{
    "track_id": "11 Milly_s Theme",
    "mood": "happy",
    "instruments": {
        "Electric Piano 1": [
            {
                "start_time": 0.013636363636363636,
                "end_time": 0.18181818181818182,
                "pitch": 74,
                "velocity": 127,
                "duration": 0.16818181818181818,
                "tempo": 120.0
            },
            {
                "start_time": 0.18181818181818182,
                "end_time": 0.35,
                "pitch": 73,
                "velocity": 127,
                "duration": 0.16818181818181815,
                "tempo": 120.0
            },
            {
                "start_time": 0.35,
                "end_time": 0.5181818181818182,
                "pitch": 72,
                "velocity": 127,
                "duration": 0.1681818181818182,
                "tempo": 120.0
            },
            {
                "start_time": 0.5181818181818182,
                "end_time": 0.6840909090909091,
                "pitch": 71,
                "velocity": 127,
                "duration": 0.1659090909090909,
                "tempo": 120.0
            },
            {
                "start_time": 0.6863636363636363,
                "end_time": 0.8522727272727272,
                "pitch": 69,
                "velocity": 127,
                "duration": 0.1659090909090909,
                "tempo": 120.0
            },
            {
                "start_time": 0.8522727272727272,
                "end_time": 0.9704545454545455,
                "pitch": 67,
                "velocity": 127,
                "duration": 0.11818181818181828,
                "tempo": 120.0
            },
            {
                "start_time": 0.9704545454545455,
                "end_time": 1.0204545454545455,
                "pitch": 67,
                "velocity": 127,
                "duration": 0.050000000000000044,
                "tempo": 120.0
            },
            {
                "start_time": 1.0204545454545455,
                "end_time": 1.1886363636363635,
                "pitch": 66,
                "velocity": 127,
                "duration": 0.168181818181818,
                "tempo": 120.0
            },
            {
                "start_time": 1.1886363636363635,
                "end_time": 1.3568181818181817,
                "pitch": 64,
                "velocity": 127,
                "duration": 0.1681818181818182,
                "tempo": 120.0
            },
            {
                "start_time": 1.3568181818181817,
                "end_time": 1.7,
                "pitch": 62,
                "velocity": 127,
                "duration": 0.34318181818181825,
                "tempo": 120.0
            },
            {
                "start_time": 1.7,
                "end_time": 1.8681818181818182,
                "pitch": 57,
                "velocity": 127,
                "duration": 0.1681818181818182,
                "tempo": 120.0
            },
            {
                "start_time": 1.8681818181818182,
                "end_time": 2.036363636363636,
                "pitch": 59,
                "velocity": 127,
                "duration": 0.168181818181818,
                "tempo": 120.0
            },
            {
                "start_time": 2.036363636363636,
                "end_time": 2.2045454545454546,
                "pitch": 61,
                "velocity": 127,
                "duration": 0.16818181818181843,
                "tempo": 120.0
            },
            {
                "start_time": 2.2045454545454546,
                "end_time": 2.370454545454545,
                "pitch": 62,
                "velocity": 127,
                "duration": 0.16590909090909056,
                "tempo": 120.0
            },
            {
                "start_time": 2.3727272727272726,
                "end_time": 2.543181818181818,
                "pitch": 64,
                "velocity": 127,
                "duration": 0.17045454545454541,
                "tempo": 120.0
            },
            {
                "start_time": 2.543181818181818,
                "end_time": 2.715909090909091,
                "pitch": 66,
                "velocity": 127,
                "duration": 0.17272727272727284,
                "tempo": 120.0
            },
            {
                "start_time": 2.7181818181818183,
                "end_time": 2.884090909090909,
                "pitch": 81,
                "velocity": 101,
                "duration": 0.16590909090909056,
                "tempo": 120.0
            },
            {
                "start_time": 2.884090909090909,
                "end_time": 3.2249999999999996,
                "pitch": 86,
                "velocity": 101,
                "duration": 0.34090909090909083,
                "tempo": 120.0
            },
            {
                "start_time": 3.2249999999999996,
                "end_time": 3.5636363636363635,
                "pitch": 81,
                "velocity": 101,
                "duration": 0.33863636363636385,
                "tempo": 120.0
            },
            {
                "start_time": 3.5636363636363635,
                "end_time": 3.7318181818181815,
                "pitch": 81,
                "velocity": 101,
                "duration": 0.168181818181818,
                "tempo": 120.0
            },
            {
                "start_time": 3.7318181818181815,
                "end_time": 4.068181818181818,
                "pitch": 83,
                "velocity": 101,
                "duration": 0.33636363636363686,
                "tempo": 120.0
            },
            {
                "start_time": 4.068181818181818,
                "end_time": 4.411363636363636,
                "pitch": 84,
                "velocity": 101,
                "duration": 0.3431818181818178,
                "tempo": 120.0
            },
            {
                "start_time": 4.411363636363636,
                "end_time": 4.747727272727272,
                "pitch": 83,
                "velocity": 101,
                "duration": 0.336363636363636,
                "tempo": 120.0
            },
            {
                "start_time": 4.747727272727272,
                "end_time": 5.081818181818182,
                "pitch": 81,
                "velocity": 101,
                "duration": 0.3340909090909099,
                "tempo": 120.0
            },
            {
                "start_time": 0.9704545454545455,
                "end_time": 5.202272727272727,
                "pitch": 79,
                "velocity": 127,
                "duration": 4.2318181818181815,
                "tempo": 120.0
            },
            {
                "start_time": 5.084090909090909,
                "end_time": 5.202272727272727,
                "pitch": 79,
                "velocity": 101,
                "duration": 0.11818181818181817,
                "tempo": 120.0
            },
            {
                "start_time": 5.202272727272727,
                "end_time": 5.375,
                "pitch": 79,
                "velocity": 101,
                "duration": 0.17272727272727284,
                "tempo": 120.0
            },
            {
                "start_time": 5.202272727272727,
                "end_time": 5.375,
                "pitch": 91,
                "velocity": 101,
                "duration": 0.17272727272727284,
                "tempo": 120.0
            },
            {
                "start_time": 5.375,
                "end_time": 5.427272727272727,
                "pitch": 79,
                "velocity": 101,
                "duration": 0.052272727272726804,
                "tempo": 120.0
            },
            {
                "start_time": 5.427272727272727,
                "end_time": 5.595454545454545,
                "pitch": 81,
                "velocity": 101,
                "duration": 0.168181818181818,
                "tempo": 120.0
            },
            {
                "start_time": 5.595454545454545,
                "end_time": 5.934090909090909,
                "pitch": 86,
                "velocity": 101,
                "duration": 0.33863636363636385,
                "tempo": 120.0
            },
            {
                "start_time": 5.9363636363636365,
                "end_time": 6.2749999999999995,
                "pitch": 81,
                "velocity": 101,
                "duration": 0.33863636363636296,
                "tempo": 120.0
            },
            {
                "start_time": 6.2749999999999995,
                "end_time": 6.4431818181818175,
                "pitch": 81,
                "velocity": 101,
                "duration": 0.168181818181818,
                "tempo": 120.0
            },
            {
                "start_time": 6.4431818181818175,
                "end_time": 6.777272727272727,
                "pitch": 83,
                "velocity": 101,
                "duration": 0.3340909090909099,
                "tempo": 120.0
            },
            {
                "start_time": 6.779545454545454,
                "end_time": 7.122727272727272,
                "pitch": 84,
                "velocity": 101,
                "duration": 0.3431818181818178,
                "tempo": 120.0
            },
            {
                "start_time": 7.122727272727272,
                "end_time": 7.29090909090909,
                "pitch": 83,
                "velocity": 101,
                "duration": 0.168181818181818,
                "tempo": 120.0
            },
            {
                "start_time": 7.29090909090909,
                "end_time": 7.459090909090909,
                "pitch": 84,
                "velocity": 101,
                "duration": 0.16818181818181888,
                "tempo": 120.0
            },
            {
                "start_time": 7.459090909090909,
                "end_time": 7.629545454545454,
                "pitch": 83,
                "velocity": 101,
                "duration": 0.17045454545454497,
                "tempo": 120.0
            },
            {
                "start_time": 7.631818181818182,
                "end_time": 7.802272727272727,
                "pitch": 84,
                "velocity": 101,
                "duration": 0.17045454545454497,
                "tempo": 120.0
            },
            {
                "start_time": 7.804545454545454,
                "end_time": 7.970454545454545,
                "pitch": 83,
                "velocity": 101,
                "duration": 0.165909090909091,
                "tempo": 120.0
            },
            {
                "start_time": 7.970454545454545,
                "end_time": 8.088636363636363,
                "pitch": 79,
                "velocity": 101,
                "duration": 0.11818181818181817,
                "tempo": 120.0
            },
            {
                "start_time": 5.375,
                "end_time": 8.088636363636363,
                "pitch": 91,
                "velocity": 101,
                "duration": 2.713636363636363,
                "tempo": 120.0
            },
            {
                "start_time": 8.088636363636363,
                "end_time": 8.138636363636364,
                "pitch": 79,
                "velocity": 101,
                "duration": 0.05000000000000071,
                "tempo": 120.0
            },
            {
                "start_time": 8.138636363636364,
                "end_time": 8.306818181818182,
                "pitch": 81,
                "velocity": 101,
                "duration": 0.168181818181818,
                "tempo": 120.0
            },
            {
                "start_time": 8.306818181818182,
                "end_time": 8.645454545454545,
                "pitch": 86,
                "velocity": 101,
                "duration": 0.33863636363636296,
                "tempo": 120.0
            },
            {
                "start_time": 8.645454545454545,
                "end_time": 9.154545454545454,
                "pitch": 81,
                "velocity": 101,
                "duration": 0.5090909090909097,
                "tempo": 120.0
            },
            {
                "start_time": 9.154545454545454,
                "end_time": 9.488636363636363,
                "pitch": 83,
                "velocity": 101,
                "duration": 0.334090909090909,
                "tempo": 120.0
            },
            {
                "start_time": 9.488636363636363,
                "end_time": 9.60909090909091,
                "pitch": 79,
                "velocity": 101,
                "duration": 0.12045454545454604,
                "tempo": 120.0
            },
            {
                "start_time": 8.088636363636363,
                "end_time": 9.60909090909091,
                "pitch": 91,
                "velocity": 101,
                "duration": 1.5204545454545464,
                "tempo": 120.0
            },
            {
                "start_time": 9.60909090909091,
                "end_time": 9.781818181818181,
                "pitch": 79,
                "velocity": 101,
                "duration": 0.17272727272727195,
                "tempo": 120.0
            },
            {
                "start_time": 9.60909090909091,
                "end_time": 9.781818181818181,
                "pitch": 91,
                "velocity": 101,
                "duration": 0.17272727272727195,
                "tempo": 120.0
            },
            {
                "start_time": 9.781818181818181,
                "end_time": 9.834090909090909,
                "pitch": 79,
                "velocity": 101,
                "duration": 0.05227272727272769,
                "tempo": 120.0
            },
            {
                "start_time": 9.834090909090909,
                "end_time": 10.002272727272727,
                "pitch": 78,
                "velocity": 101,
                "duration": 0.168181818181818,
                "tempo": 120.0
            },
            {
                "start_time": 10.002272727272727,
                "end_time": 10.118181818181817,
                "pitch": 79,
                "velocity": 101,
                "duration": 0.1159090909090903,
                "tempo": 120.0
            },
            {
                "start_time": 9.781818181818181,
                "end_time": 10.118181818181817,
                "pitch": 91,
                "velocity": 101,
                "duration": 0.336363636363636,
                "tempo": 120.0
            },
            {
                "start_time": 10.118181818181817,
                "end_time": 10.168181818181818,
                "pitch": 79,
                "velocity": 101,
                "duration": 0.05000000000000071,
                "tempo": 120.0
            },
            {
                "start_time": 10.170454545454545,
                "end_time": 10.34090909090909,
                "pitch": 78,
                "velocity": 101,
                "duration": 0.17045454545454497,
                "tempo": 120.0
            },
            {
                "start_time": 10.34090909090909,
                "end_time": 10.461363636363636,
                "pitch": 79,
                "velocity": 101,
                "duration": 0.12045454545454604,
                "tempo": 120.0
            },
            {
                "start_time": 10.118181818181817,
                "end_time": 10.461363636363636,
                "pitch": 91,
                "velocity": 101,
                "duration": 0.3431818181818187,
                "tempo": 120.0
            },
            {
                "start_time": 10.461363636363636,
                "end_time": 10.513636363636364,
                "pitch": 79,
                "velocity": 101,
                "duration": 0.05227272727272769,
                "tempo": 120.0
            },
            {
                "start_time": 10.513636363636364,
                "end_time": 10.681818181818182,
                "pitch": 84,
                "velocity": 101,
                "duration": 0.168181818181818,
                "tempo": 120.0
            },
            {
                "start_time": 10.681818181818182,
                "end_time": 10.797727272727272,
                "pitch": 79,
                "velocity": 101,
                "duration": 0.1159090909090903,
                "tempo": 120.0
            },
            {
                "start_time": 10.461363636363636,
                "end_time": 10.797727272727272,
                "pitch": 91,
                "velocity": 101,
                "duration": 0.336363636363636,
                "tempo": 120.0
            },
            {
                "start_time": 10.797727272727272,
                "end_time": 10.85,
                "pitch": 79,
                "velocity": 101,
                "duration": 0.05227272727272769,
                "tempo": 120.0
            },
            {
                "start_time": 10.85,
                "end_time": 12.2,
                "pitch": 81,
                "velocity": 101,
                "duration": 1.3499999999999996,
                "tempo": 120.0
            },
            {
                "start_time": 12.372727272727271,
                "end_time": 12.44090909090909,
                "pitch": 71,
                "velocity": 101,
                "duration": 0.06818181818181834,
                "tempo": 120.0
            },
            {
                "start_time": 12.44090909090909,
                "end_time": 12.493181818181817,
                "pitch": 69,
                "velocity": 101,
                "duration": 0.05227272727272769,
                "tempo": 120.0
            },
            {
                "start_time": 12.493181818181817,
                "end_time": 12.545454545454545,
                "pitch": 67,
                "velocity": 101,
                "duration": 0.05227272727272769,
                "tempo": 120.0
            },
            {
                "start_time": 12.545454545454545,
                "end_time": 12.611363636363636,
                "pitch": 69,
                "velocity": 101,
                "duration": 0.06590909090909136,
                "tempo": 120.0
            },
            {
                "start_time": 12.493181818181817,
                "end_time": 12.611363636363636,
                "pitch": 79,
                "velocity": 101,
                "duration": 0.11818181818181905,
                "tempo": 120.0
            },
            {
                "start_time": 12.611363636363636,
                "end_time": 12.661363636363635,
                "pitch": 66,
                "velocity": 101,
                "duration": 0.049999999999998934,
                "tempo": 120.0
            },
            {
                "start_time": 12.661363636363635,
                "end_time": 12.713636363636363,
                "pitch": 64,
                "velocity": 101,
                "duration": 0.05227272727272769,
                "tempo": 120.0
            },
            {
                "start_time": 12.713636363636363,
                "end_time": 12.729545454545454,
                "pitch": 67,
                "velocity": 101,
                "duration": 0.01590909090909065,
                "tempo": 120.0
            },
            {
                "start_time": 12.611363636363636,
                "end_time": 12.729545454545454,
                "pitch": 79,
                "velocity": 101,
                "duration": 0.11818181818181728,
                "tempo": 120.0
            },
            {
                "start_time": 12.729545454545454,
                "end_time": 12.779545454545454,
                "pitch": 66,
                "velocity": 101,
                "duration": 0.05000000000000071,
                "tempo": 120.0
            },
            {
                "start_time": 12.779545454545454,
                "end_time": 12.829545454545453,
                "pitch": 64,
                "velocity": 101,
                "duration": 0.049999999999998934,
                "tempo": 120.0
            },
            {
                "start_time": 12.829545454545453,
                "end_time": 12.879545454545454,
                "pitch": 61,
                "velocity": 101,
                "duration": 0.05000000000000071,
                "tempo": 120.0
            },
            {
                "start_time": 12.879545454545454,
                "end_time": 12.931818181818182,
                "pitch": 65,
                "velocity": 101,
                "duration": 0.05227272727272769,
                "tempo": 120.0
            },
            {
                "start_time": 12.931818181818182,
                "end_time": 12.984090909090908,
                "pitch": 63,
                "velocity": 101,
                "duration": 0.052272727272725916,
                "tempo": 120.0
            },
            {
                "start_time": 12.984090909090908,
                "end_time": 13.018181818181818,
                "pitch": 60,
                "velocity": 101,
                "duration": 0.03409090909091006,
                "tempo": 120.0
            },
            {
                "start_time": 13.018181818181818,
                "end_time": 13.052272727272726,
                "pitch": 58,
                "velocity": 101,
                "duration": 0.034090909090908283,
                "tempo": 120.0
            },
            {
                "start_time": 13.052272727272726,
                "end_time": 13.104545454545454,
                "pitch": 65,
                "velocity": 101,
                "duration": 0.05227272727272769,
                "tempo": 120.0
            },
            {
                "start_time": 13.104545454545454,
                "end_time": 13.138636363636364,
                "pitch": 63,
                "velocity": 101,
                "duration": 0.03409090909091006,
                "tempo": 120.0
            },
            {
                "start_time": 13.138636363636364,
                "end_time": 13.19090909090909,
                "pitch": 64,
                "velocity": 101,
                "duration": 0.052272727272725916,
                "tempo": 120.0
            },
            {
                "start_time": 13.19090909090909,
                "end_time": 13.225,
                "pitch": 61,
                "velocity": 101,
                "duration": 0.03409090909091006,
                "tempo": 120.0
            },
            {
                "start_time": 13.225,
                "end_time": 13.274999999999999,
                "pitch": 62,
                "velocity": 101,
                "duration": 0.049999999999998934,
                "tempo": 120.0
            },
            {
                "start_time": 13.274999999999999,
                "end_time": 13.309090909090909,
                "pitch": 59,
                "velocity": 101,
                "duration": 0.03409090909091006,
                "tempo": 120.0
            },
            {
                "start_time": 13.309090909090909,
                "end_time": 13.343181818181817,
                "pitch": 57,
                "velocity": 101,
                "duration": 0.034090909090908283,
                "tempo": 120.0
            },
            {
                "start_time": 13.343181818181817,
                "end_time": 13.375,
                "pitch": 54,
                "velocity": 101,
                "duration": 0.03181818181818308,
                "tempo": 120.0
            },
            {
                "start_time": 13.375,
                "end_time": 13.393181818181818,
                "pitch": 51,
                "velocity": 101,
                "duration": 0.018181818181817633,
                "tempo": 120.0
            },
            {
                "start_time": 13.393181818181818,
                "end_time": 13.424999999999999,
                "pitch": 60,
                "velocity": 101,
                "duration": 0.0318181818181813,
                "tempo": 120.0
            },
            {
                "start_time": 13.424999999999999,
                "end_time": 13.459090909090909,
                "pitch": 58,
                "velocity": 101,
                "duration": 0.03409090909091006,
                "tempo": 120.0
            },
            {
                "start_time": 13.459090909090909,
                "end_time": 13.493181818181817,
                "pitch": 55,
                "velocity": 101,
                "duration": 0.034090909090908283,
                "tempo": 120.0
            },
            {
                "start_time": 13.493181818181817,
                "end_time": 13.527272727272727,
                "pitch": 53,
                "velocity": 101,
                "duration": 0.03409090909091006,
                "tempo": 120.0
            },
            {
                "start_time": 13.527272727272727,
                "end_time": 13.543181818181818,
                "pitch": 50,
                "velocity": 101,
                "duration": 0.01590909090909065,
                "tempo": 120.0
            },
            {
                "start_time": 13.543181818181818,
                "end_time": 13.561363636363636,
                "pitch": 47,
                "velocity": 101,
                "duration": 0.018181818181817633,
                "tempo": 120.0
            },
            {
                "start_time": 24.404545454545453,
                "end_time": 24.52272727272727,
                "pitch": 69,
                "velocity": 101,
                "duration": 0.11818181818181728,
                "tempo": 120.0
            },
            {
                "start_time": 24.57272727272727,
                "end_time": 24.79090909090909,
                "pitch": 74,
                "velocity": 101,
                "duration": 0.2181818181818187,
                "tempo": 120.0
            },
            {
                "start_time": 24.913636363636364,
                "end_time": 25.134090909090908,
                "pitch": 69,
                "velocity": 101,
                "duration": 0.2204545454545439,
                "tempo": 120.0
            },
            {
                "start_time": 25.252272727272725,
                "end_time": 25.370454545454542,
                "pitch": 74,
                "velocity": 101,
                "duration": 0.11818181818181728,
                "tempo": 120.0
            },
            {
                "start_time": 25.420454545454543,
                "end_time": 25.54090909090909,
                "pitch": 72,
                "velocity": 101,
                "duration": 0.12045454545454604,
                "tempo": 120.0
            },
            {
                "start_time": 25.59318181818182,
                "end_time": 25.71363636363636,
                "pitch": 71,
                "velocity": 101,
                "duration": 0.12045454545454248,
                "tempo": 120.0
            },
            {
                "start_time": 25.76590909090909,
                "end_time": 25.88181818181818,
                "pitch": 69,
                "velocity": 101,
                "duration": 0.11590909090908852,
                "tempo": 120.0
            },
            {
                "start_time": 25.93181818181818,
                "end_time": 26.15,
                "pitch": 74,
                "velocity": 101,
                "duration": 0.2181818181818187,
                "tempo": 120.0
            },
            {
                "start_time": 26.268181818181816,
                "end_time": 26.486363636363635,
                "pitch": 69,
                "velocity": 101,
                "duration": 0.2181818181818187,
                "tempo": 120.0
            },
            {
                "start_time": 27.11590909090909,
                "end_time": 27.23181818181818,
                "pitch": 81,
                "velocity": 101,
                "duration": 0.11590909090909207,
                "tempo": 120.0
            },
            {
                "start_time": 27.284090909090907,
                "end_time": 27.502272727272725,
                "pitch": 86,
                "velocity": 101,
                "duration": 0.2181818181818187,
                "tempo": 120.0
            },
            {
                "start_time": 27.62272727272727,
                "end_time": 27.845454545454544,
                "pitch": 81,
                "velocity": 101,
                "duration": 0.22272727272727266,
                "tempo": 120.0
            },
            {
                "start_time": 27.96363636363636,
                "end_time": 28.079545454545453,
                "pitch": 86,
                "velocity": 101,
                "duration": 0.11590909090909207,
                "tempo": 120.0
            },
            {
                "start_time": 28.13181818181818,
                "end_time": 28.252272727272725,
                "pitch": 84,
                "velocity": 101,
                "duration": 0.12045454545454604,
                "tempo": 120.0
            },
            {
                "start_time": 28.304545454545455,
                "end_time": 28.422727272727272,
                "pitch": 83,
                "velocity": 101,
                "duration": 0.11818181818181728,
                "tempo": 120.0
            },
            {
                "start_time": 28.474999999999998,
                "end_time": 28.593181818181815,
                "pitch": 86,
                "velocity": 101,
                "duration": 0.11818181818181728,
                "tempo": 120.0
            },
            {
                "start_time": 28.643181818181816,
                "end_time": 28.761363636363637,
                "pitch": 86,
                "velocity": 101,
                "duration": 0.11818181818182083,
                "tempo": 120.0
            },
            {
                "start_time": 28.811363636363634,
                "end_time": 28.927272727272726,
                "pitch": 81,
                "velocity": 101,
                "duration": 0.11590909090909207,
                "tempo": 120.0
            },
            {
                "start_time": 28.979545454545452,
                "end_time": 29.19772727272727,
                "pitch": 86,
                "velocity": 101,
                "duration": 0.2181818181818187,
                "tempo": 120.0
            },
            {
                "start_time": 29.320454545454545,
                "end_time": 29.336363636363636,
                "pitch": 55,
                "velocity": 127,
                "duration": 0.01590909090909065,
                "tempo": 120.0
            },
            {
                "start_time": 29.336363636363636,
                "end_time": 29.386363636363637,
                "pitch": 54,
                "velocity": 127,
                "duration": 0.05000000000000071,
                "tempo": 120.0
            },
            {
                "start_time": 29.386363636363637,
                "end_time": 29.438636363636363,
                "pitch": 52,
                "velocity": 127,
                "duration": 0.052272727272725916,
                "tempo": 120.0
            },
            {
                "start_time": 29.49090909090909,
                "end_time": 29.54090909090909,
                "pitch": 62,
                "velocity": 127,
                "duration": 0.05000000000000071,
                "tempo": 120.0
            },
            {
                "start_time": 29.54090909090909,
                "end_time": 29.575,
                "pitch": 59,
                "velocity": 127,
                "duration": 0.03409090909091006,
                "tempo": 120.0
            },
            {
                "start_time": 29.575,
                "end_time": 29.60909090909091,
                "pitch": 57,
                "velocity": 127,
                "duration": 0.03409090909091006,
                "tempo": 120.0
            },
            {
                "start_time": 29.60909090909091,
                "end_time": 29.64090909090909,
                "pitch": 54,
                "velocity": 127,
                "duration": 0.0318181818181813,
                "tempo": 120.0
            },
            {
                "start_time": 29.64090909090909,
                "end_time": 29.674999999999997,
                "pitch": 51,
                "velocity": 127,
                "duration": 0.03409090909090651,
                "tempo": 120.0
            },
            {
                "start_time": 29.674999999999997,
                "end_time": 29.693181818181817,
                "pitch": 47,
                "velocity": 127,
                "duration": 0.01818181818181941,
                "tempo": 120.0
            },
            {
                "start_time": 29.693181818181817,
                "end_time": 29.709090909090907,
                "pitch": 45,
                "velocity": 127,
                "duration": 0.01590909090909065,
                "tempo": 120.0
            },
            {
                "start_time": 29.827272727272724,
                "end_time": 29.943181818181817,
                "pitch": 81,
                "velocity": 101,
                "duration": 0.11590909090909207,
                "tempo": 120.0
            },
            {
                "start_time": 29.995454545454542,
                "end_time": 30.21363636363636,
                "pitch": 86,
                "velocity": 101,
                "duration": 0.2181818181818187,
                "tempo": 120.0
            },
            {
                "start_time": 30.334090909090907,
                "end_time": 30.55681818181818,
                "pitch": 81,
                "velocity": 101,
                "duration": 0.22272727272727266,
                "tempo": 120.0
            },
            {
                "start_time": 30.674999999999997,
                "end_time": 30.79090909090909,
                "pitch": 81,
                "velocity": 101,
                "duration": 0.11590909090909207,
                "tempo": 120.0
            },
            {
                "start_time": 30.843181818181815,
                "end_time": 31.05909090909091,
                "pitch": 83,
                "velocity": 101,
                "duration": 0.2159090909090935,
                "tempo": 120.0
            },
            {
                "start_time": 31.177272727272726,
                "end_time": 31.402272727272727,
                "pitch": 84,
                "velocity": 101,
                "duration": 0.22500000000000142,
                "tempo": 120.0
            },
            {
                "start_time": 31.52272727272727,
                "end_time": 31.74090909090909,
                "pitch": 83,
                "velocity": 101,
                "duration": 0.2181818181818187,
                "tempo": 120.0
            },
            {
                "start_time": 31.85681818181818,
                "end_time": 32.08181818181818,
                "pitch": 81,
                "velocity": 101,
                "duration": 0.22499999999999787,
                "tempo": 120.0
            },
            {
                "start_time": 12.729545454545454,
                "end_time": 32.31818181818182,
                "pitch": 79,
                "velocity": 101,
                "duration": 19.58863636363637,
                "tempo": 120.0
            },
            {
                "start_time": 32.20227272727273,
                "end_time": 32.31818181818182,
                "pitch": 79,
                "velocity": 101,
                "duration": 0.11590909090909207,
                "tempo": 120.0
            },
            {
                "start_time": 10.797727272727272,
                "end_time": 32.31818181818182,
                "pitch": 91,
                "velocity": 101,
                "duration": 21.520454545454548,
                "tempo": 120.0
            },
            {
                "start_time": 32.31818181818182,
                "end_time": 32.42045454545455,
                "pitch": 79,
                "velocity": 101,
                "duration": 0.10227272727272663,
                "tempo": 120.0
            },
            {
                "start_time": 32.538636363636364,
                "end_time": 32.654545454545456,
                "pitch": 81,
                "velocity": 101,
                "duration": 0.11590909090909207,
                "tempo": 120.0
            },
            {
                "start_time": 32.70454545454545,
                "end_time": 32.925,
                "pitch": 86,
                "velocity": 101,
                "duration": 0.2204545454545439,
                "tempo": 120.0
            },
            {
                "start_time": 33.04545454545455,
                "end_time": 33.268181818181816,
                "pitch": 81,
                "velocity": 101,
                "duration": 0.2227272727272691,
                "tempo": 120.0
            },
            {
                "start_time": 33.38636363636363,
                "end_time": 33.502272727272725,
                "pitch": 81,
                "velocity": 101,
                "duration": 0.11590909090909207,
                "tempo": 120.0
            },
            {
                "start_time": 33.55227272727272,
                "end_time": 33.77045454545454,
                "pitch": 83,
                "velocity": 101,
                "duration": 0.2181818181818187,
                "tempo": 120.0
            },
            {
                "start_time": 33.888636363636365,
                "end_time": 34.111363636363635,
                "pitch": 84,
                "velocity": 101,
                "duration": 0.2227272727272691,
                "tempo": 120.0
            },
            {
                "start_time": 34.23409090909091,
                "end_time": 34.35,
                "pitch": 83,
                "velocity": 101,
                "duration": 0.11590909090909207,
                "tempo": 120.0
            },
            {
                "start_time": 34.4,
                "end_time": 34.518181818181816,
                "pitch": 84,
                "velocity": 101,
                "duration": 0.11818181818181728,
                "tempo": 120.0
            },
            {
                "start_time": 34.56818181818181,
                "end_time": 34.68863636363636,
                "pitch": 83,
                "velocity": 101,
                "duration": 0.12045454545454959,
                "tempo": 120.0
            },
            {
                "start_time": 34.74090909090909,
                "end_time": 34.861363636363635,
                "pitch": 84,
                "velocity": 101,
                "duration": 0.12045454545454248,
                "tempo": 120.0
            },
            {
                "start_time": 34.913636363636364,
                "end_time": 35.029545454545456,
                "pitch": 83,
                "velocity": 101,
                "duration": 0.11590909090909207,
                "tempo": 120.0
            },
            {
                "start_time": 35.08181818181818,
                "end_time": 35.19772727272727,
                "pitch": 79,
                "velocity": 101,
                "duration": 0.11590909090909207,
                "tempo": 120.0
            },
            {
                "start_time": 32.31818181818182,
                "end_time": 35.19772727272727,
                "pitch": 91,
                "velocity": 101,
                "duration": 2.8795454545454504,
                "tempo": 120.0
            },
            {
                "start_time": 35.24772727272727,
                "end_time": 35.36590909090909,
                "pitch": 81,
                "velocity": 101,
                "duration": 0.11818181818182438,
                "tempo": 120.0
            },
            {
                "start_time": 35.41590909090909,
                "end_time": 35.63409090909091,
                "pitch": 86,
                "velocity": 101,
                "duration": 0.2181818181818187,
                "tempo": 120.0
            },
            {
                "start_time": 35.75681818181818,
                "end_time": 36.07954545454545,
                "pitch": 81,
                "velocity": 101,
                "duration": 0.32272727272727053,
                "tempo": 120.0
            },
            {
                "start_time": 36.26363636363636,
                "end_time": 36.48181818181818,
                "pitch": 83,
                "velocity": 101,
                "duration": 0.2181818181818187,
                "tempo": 120.0
            },
            {
                "start_time": 35.19772727272727,
                "end_time": 36.720454545454544,
                "pitch": 79,
                "velocity": 101,
                "duration": 1.5227272727272734,
                "tempo": 120.0
            },
            {
                "start_time": 36.6,
                "end_time": 36.720454545454544,
                "pitch": 79,
                "velocity": 101,
                "duration": 0.12045454545454248,
                "tempo": 120.0
            },
            {
                "start_time": 35.19772727272727,
                "end_time": 36.720454545454544,
                "pitch": 91,
                "velocity": 101,
                "duration": 1.5227272727272734,
                "tempo": 120.0
            },
            {
                "start_time": 36.720454545454544,
                "end_time": 36.82272727272727,
                "pitch": 79,
                "velocity": 101,
                "duration": 0.10227272727272663,
                "tempo": 120.0
            },
            {
                "start_time": 36.945454545454545,
                "end_time": 37.06136363636364,
                "pitch": 78,
                "velocity": 101,
                "duration": 0.11590909090909207,
                "tempo": 120.0
            },
            {
                "start_time": 37.111363636363635,
                "end_time": 37.22954545454545,
                "pitch": 79,
                "velocity": 101,
                "duration": 0.11818181818181728,
                "tempo": 120.0
            },
            {
                "start_time": 36.720454545454544,
                "end_time": 37.22954545454545,
                "pitch": 91,
                "velocity": 101,
                "duration": 0.5090909090909079,
                "tempo": 120.0
            },
            {
                "start_time": 37.279545454545456,
                "end_time": 37.4,
                "pitch": 78,
                "velocity": 101,
                "duration": 0.12045454545454248,
                "tempo": 120.0
            },
            {
                "start_time": 37.22954545454545,
                "end_time": 37.57272727272727,
                "pitch": 79,
                "velocity": 101,
                "duration": 0.3431818181818187,
                "tempo": 120.0
            },
            {
                "start_time": 37.45227272727273,
                "end_time": 37.57272727272727,
                "pitch": 79,
                "velocity": 101,
                "duration": 0.12045454545454248,
                "tempo": 120.0
            },
            {
                "start_time": 37.22954545454545,
                "end_time": 37.57272727272727,
                "pitch": 91,
                "velocity": 101,
                "duration": 0.3431818181818187,
                "tempo": 120.0
            },
            {
                "start_time": 37.625,
                "end_time": 37.74090909090909,
                "pitch": 84,
                "velocity": 101,
                "duration": 0.11590909090909207,
                "tempo": 120.0
            },
            {
                "start_time": 37.57272727272727,
                "end_time": 37.90909090909091,
                "pitch": 79,
                "velocity": 101,
                "duration": 0.336363636363636,
                "tempo": 120.0
            },
            {
                "start_time": 37.793181818181814,
                "end_time": 37.90909090909091,
                "pitch": 79,
                "velocity": 101,
                "duration": 0.11590909090909207,
                "tempo": 120.0
            },
            {
                "start_time": 37.57272727272727,
                "end_time": 37.90909090909091,
                "pitch": 91,
                "velocity": 101,
                "duration": 0.336363636363636,
                "tempo": 120.0
            },
            {
                "start_time": 37.95909090909091,
                "end_time": 38.80681818181818,
                "pitch": 81,
                "velocity": 101,
                "duration": 0.8477272727272691,
                "tempo": 120.0
            },
            {
                "start_time": 39.48181818181818,
                "end_time": 39.55227272727272,
                "pitch": 71,
                "velocity": 101,
                "duration": 0.07045454545454533,
                "tempo": 120.0
            },
            {
                "start_time": 39.55227272727272,
                "end_time": 39.60227272727273,
                "pitch": 69,
                "velocity": 101,
                "duration": 0.05000000000000426,
                "tempo": 120.0
            },
            {
                "start_time": 39.654545454545456,
                "end_time": 39.72272727272727,
                "pitch": 69,
                "velocity": 101,
                "duration": 0.06818181818181301,
                "tempo": 120.0
            },
            {
                "start_time": 37.90909090909091,
                "end_time": 39.72272727272727,
                "pitch": 79,
                "velocity": 101,
                "duration": 1.8136363636363626,
                "tempo": 120.0
            },
            {
                "start_time": 39.72272727272727,
                "end_time": 39.77272727272727,
                "pitch": 66,
                "velocity": 101,
                "duration": 0.05000000000000426,
                "tempo": 120.0
            },
            {
                "start_time": 29.336363636363636,
                "end_time": 39.83863636363636,
                "pitch": 67,
                "velocity": 127,
                "duration": 10.502272727272725,
                "tempo": 120.0
            },
            {
                "start_time": 39.82272727272727,
                "end_time": 39.83863636363636,
                "pitch": 67,
                "velocity": 101,
                "duration": 0.01590909090909065,
                "tempo": 120.0
            },
            {
                "start_time": 39.72272727272727,
                "end_time": 39.83863636363636,
                "pitch": 79,
                "velocity": 101,
                "duration": 0.11590909090909207,
                "tempo": 120.0
            },
            {
                "start_time": 39.83863636363636,
                "end_time": 39.88863636363636,
                "pitch": 66,
                "velocity": 101,
                "duration": 0.04999999999999716,
                "tempo": 120.0
            },
            {
                "start_time": 39.88863636363636,
                "end_time": 39.94090909090909,
                "pitch": 64,
                "velocity": 101,
                "duration": 0.05227272727272947,
                "tempo": 120.0
            },
            {
                "start_time": 39.99090909090909,
                "end_time": 40.04090909090909,
                "pitch": 65,
                "velocity": 101,
                "duration": 0.04999999999999716,
                "tempo": 120.0
            },
            {
                "start_time": 40.04090909090909,
                "end_time": 40.09318181818182,
                "pitch": 63,
                "velocity": 101,
                "duration": 0.05227272727272947,
                "tempo": 120.0
            },
            {
                "start_time": 40.09318181818182,
                "end_time": 40.111363636363635,
                "pitch": 60,
                "velocity": 101,
                "duration": 0.018181818181815856,
                "tempo": 120.0
            },
            {
                "start_time": 40.163636363636364,
                "end_time": 40.21363636363636,
                "pitch": 65,
                "velocity": 101,
                "duration": 0.04999999999999716,
                "tempo": 120.0
            },
            {
                "start_time": 40.21363636363636,
                "end_time": 40.23181818181818,
                "pitch": 63,
                "velocity": 101,
                "duration": 0.018181818181815856,
                "tempo": 120.0
            },
            {
                "start_time": 40.25,
                "end_time": 40.3,
                "pitch": 64,
                "velocity": 101,
                "duration": 0.04999999999999716,
                "tempo": 120.0
            },
            {
                "start_time": 40.3,
                "end_time": 40.31818181818181,
                "pitch": 61,
                "velocity": 101,
                "duration": 0.018181818181815856,
                "tempo": 120.0
            },
            {
                "start_time": 40.336363636363636,
                "end_time": 40.38636363636363,
                "pitch": 62,
                "velocity": 101,
                "duration": 0.04999999999999716,
                "tempo": 120.0
            },
            {
                "start_time": 40.38636363636363,
                "end_time": 40.418181818181814,
                "pitch": 59,
                "velocity": 101,
                "duration": 0.0318181818181813,
                "tempo": 120.0
            },
            {
                "start_time": 40.418181818181814,
                "end_time": 40.45227272727273,
                "pitch": 57,
                "velocity": 101,
                "duration": 0.03409090909091361,
                "tempo": 120.0
            },
            {
                "start_time": 40.502272727272725,
                "end_time": 40.53636363636363,
                "pitch": 60,
                "velocity": 101,
                "duration": 0.03409090909090651,
                "tempo": 120.0
            },
            {
                "start_time": 40.53636363636363,
                "end_time": 40.570454545454545,
                "pitch": 58,
                "velocity": 101,
                "duration": 0.03409090909091361,
                "tempo": 120.0
            },
            {
                "start_time": 40.570454545454545,
                "end_time": 40.60227272727273,
                "pitch": 55,
                "velocity": 101,
                "duration": 0.0318181818181813,
                "tempo": 120.0
            },
            {
                "start_time": 40.60227272727273,
                "end_time": 40.62045454545454,
                "pitch": 53,
                "velocity": 101,
                "duration": 0.018181818181815856,
                "tempo": 120.0
            }
        ],
        "Clarinet": [
            {
                "start_time": 13.895454545454545,
                "end_time": 13.979545454545454,
                "pitch": 72,
                "velocity": 51,
                "duration": 0.084090909090909,
                "tempo": 120.0
            },
            {
                "start_time": 13.979545454545454,
                "end_time": 14.063636363636363,
                "pitch": 74,
                "velocity": 51,
                "duration": 0.084090909090909,
                "tempo": 120.0
            },
            {
                "start_time": 14.063636363636363,
                "end_time": 14.113636363636363,
                "pitch": 76,
                "velocity": 51,
                "duration": 0.05000000000000071,
                "tempo": 120.0
            },
            {
                "start_time": 14.23181818181818,
                "end_time": 14.454545454545453,
                "pitch": 69,
                "velocity": 51,
                "duration": 0.22272727272727266,
                "tempo": 120.0
            },
            {
                "start_time": 14.577272727272726,
                "end_time": 14.627272727272727,
                "pitch": 67,
                "velocity": 51,
                "duration": 0.05000000000000071,
                "tempo": 120.0
            },
            {
                "start_time": 14.627272727272727,
                "end_time": 14.695454545454545,
                "pitch": 67,
                "velocity": 51,
                "duration": 0.06818181818181834,
                "tempo": 120.0
            },
            {
                "start_time": 14.627272727272727,
                "end_time": 14.695454545454545,
                "pitch": 79,
                "velocity": 51,
                "duration": 0.06818181818181834,
                "tempo": 120.0
            },
            {
                "start_time": 14.695454545454545,
                "end_time": 14.76590909090909,
                "pitch": 67,
                "velocity": 51,
                "duration": 0.07045454545454533,
                "tempo": 120.0
            },
            {
                "start_time": 14.695454545454545,
                "end_time": 14.76590909090909,
                "pitch": 79,
                "velocity": 51,
                "duration": 0.07045454545454533,
                "tempo": 120.0
            },
            {
                "start_time": 14.76590909090909,
                "end_time": 14.799999999999999,
                "pitch": 67,
                "velocity": 51,
                "duration": 0.034090909090908283,
                "tempo": 120.0
            },
            {
                "start_time": 14.920454545454545,
                "end_time": 15.004545454545454,
                "pitch": 72,
                "velocity": 51,
                "duration": 0.084090909090909,
                "tempo": 120.0
            },
            {
                "start_time": 15.004545454545454,
                "end_time": 15.088636363636363,
                "pitch": 74,
                "velocity": 51,
                "duration": 0.084090909090909,
                "tempo": 120.0
            },
            {
                "start_time": 15.088636363636363,
                "end_time": 15.138636363636364,
                "pitch": 76,
                "velocity": 51,
                "duration": 0.05000000000000071,
                "tempo": 120.0
            },
            {
                "start_time": 15.256818181818181,
                "end_time": 15.475,
                "pitch": 69,
                "velocity": 51,
                "duration": 0.2181818181818187,
                "tempo": 120.0
            },
            {
                "start_time": 15.59090909090909,
                "end_time": 15.643181818181818,
                "pitch": 67,
                "velocity": 51,
                "duration": 0.05227272727272769,
                "tempo": 120.0
            },
            {
                "start_time": 14.76590909090909,
                "end_time": 15.643181818181818,
                "pitch": 79,
                "velocity": 51,
                "duration": 0.877272727272727,
                "tempo": 120.0
            },
            {
                "start_time": 15.643181818181818,
                "end_time": 15.81590909090909,
                "pitch": 67,
                "velocity": 51,
                "duration": 0.17272727272727195,
                "tempo": 120.0
            },
            {
                "start_time": 16.60681818181818,
                "end_time": 16.693181818181817,
                "pitch": 72,
                "velocity": 51,
                "duration": 0.08636363636363598,
                "tempo": 120.0
            },
            {
                "start_time": 16.693181818181817,
                "end_time": 16.779545454545453,
                "pitch": 74,
                "velocity": 51,
                "duration": 0.08636363636363598,
                "tempo": 120.0
            },
            {
                "start_time": 16.779545454545453,
                "end_time": 16.831818181818182,
                "pitch": 76,
                "velocity": 51,
                "duration": 0.05227272727272947,
                "tempo": 120.0
            },
            {
                "start_time": 16.952272727272728,
                "end_time": 17.170454545454543,
                "pitch": 69,
                "velocity": 51,
                "duration": 0.21818181818181515,
                "tempo": 120.0
            },
            {
                "start_time": 17.286363636363635,
                "end_time": 17.336363636363636,
                "pitch": 67,
                "velocity": 51,
                "duration": 0.05000000000000071,
                "tempo": 120.0
            },
            {
                "start_time": 15.643181818181818,
                "end_time": 17.336363636363636,
                "pitch": 79,
                "velocity": 51,
                "duration": 1.6931818181818183,
                "tempo": 120.0
            },
            {
                "start_time": 17.336363636363636,
                "end_time": 17.404545454545453,
                "pitch": 67,
                "velocity": 51,
                "duration": 0.06818181818181657,
                "tempo": 120.0
            },
            {
                "start_time": 17.336363636363636,
                "end_time": 17.404545454545453,
                "pitch": 79,
                "velocity": 51,
                "duration": 0.06818181818181657,
                "tempo": 120.0
            },
            {
                "start_time": 17.404545454545453,
                "end_time": 17.470454545454544,
                "pitch": 67,
                "velocity": 51,
                "duration": 0.06590909090909136,
                "tempo": 120.0
            },
            {
                "start_time": 17.404545454545453,
                "end_time": 17.470454545454544,
                "pitch": 79,
                "velocity": 51,
                "duration": 0.06590909090909136,
                "tempo": 120.0
            },
            {
                "start_time": 17.470454545454544,
                "end_time": 17.504545454545454,
                "pitch": 67,
                "velocity": 51,
                "duration": 0.03409090909091006,
                "tempo": 120.0
            },
            {
                "start_time": 17.62272727272727,
                "end_time": 17.709090909090907,
                "pitch": 72,
                "velocity": 51,
                "duration": 0.08636363636363598,
                "tempo": 120.0
            },
            {
                "start_time": 17.709090909090907,
                "end_time": 17.795454545454543,
                "pitch": 74,
                "velocity": 51,
                "duration": 0.08636363636363598,
                "tempo": 120.0
            },
            {
                "start_time": 17.795454545454543,
                "end_time": 17.845454545454544,
                "pitch": 76,
                "velocity": 51,
                "duration": 0.05000000000000071,
                "tempo": 120.0
            },
            {
                "start_time": 17.96818181818182,
                "end_time": 18.18409090909091,
                "pitch": 69,
                "velocity": 51,
                "duration": 0.21590909090908994,
                "tempo": 120.0
            },
            {
                "start_time": 18.302272727272726,
                "end_time": 18.422727272727272,
                "pitch": 67,
                "velocity": 51,
                "duration": 0.12045454545454604,
                "tempo": 120.0
            },
            {
                "start_time": 18.422727272727272,
                "end_time": 18.527272727272727,
                "pitch": 69,
                "velocity": 51,
                "duration": 0.10454545454545539,
                "tempo": 120.0
            },
            {
                "start_time": 19.318181818181817,
                "end_time": 19.404545454545453,
                "pitch": 72,
                "velocity": 51,
                "duration": 0.08636363636363598,
                "tempo": 120.0
            },
            {
                "start_time": 19.404545454545453,
                "end_time": 19.49090909090909,
                "pitch": 74,
                "velocity": 51,
                "duration": 0.08636363636363598,
                "tempo": 120.0
            },
            {
                "start_time": 19.49090909090909,
                "end_time": 19.54090909090909,
                "pitch": 76,
                "velocity": 51,
                "duration": 0.05000000000000071,
                "tempo": 120.0
            },
            {
                "start_time": 19.663636363636364,
                "end_time": 19.879545454545454,
                "pitch": 69,
                "velocity": 51,
                "duration": 0.21590909090908994,
                "tempo": 120.0
            },
            {
                "start_time": 19.99772727272727,
                "end_time": 20.047727272727272,
                "pitch": 67,
                "velocity": 51,
                "duration": 0.05000000000000071,
                "tempo": 120.0
            },
            {
                "start_time": 17.470454545454544,
                "end_time": 20.047727272727272,
                "pitch": 79,
                "velocity": 51,
                "duration": 2.577272727272728,
                "tempo": 120.0
            },
            {
                "start_time": 20.047727272727272,
                "end_time": 20.11590909090909,
                "pitch": 67,
                "velocity": 51,
                "duration": 0.06818181818181657,
                "tempo": 120.0
            },
            {
                "start_time": 20.047727272727272,
                "end_time": 20.11590909090909,
                "pitch": 79,
                "velocity": 51,
                "duration": 0.06818181818181657,
                "tempo": 120.0
            },
            {
                "start_time": 20.11590909090909,
                "end_time": 20.18181818181818,
                "pitch": 67,
                "velocity": 51,
                "duration": 0.06590909090909136,
                "tempo": 120.0
            },
            {
                "start_time": 20.11590909090909,
                "end_time": 20.18181818181818,
                "pitch": 79,
                "velocity": 51,
                "duration": 0.06590909090909136,
                "tempo": 120.0
            },
            {
                "start_time": 20.18181818181818,
                "end_time": 20.21590909090909,
                "pitch": 67,
                "velocity": 51,
                "duration": 0.03409090909091006,
                "tempo": 120.0
            },
            {
                "start_time": 20.334090909090907,
                "end_time": 20.418181818181818,
                "pitch": 72,
                "velocity": 51,
                "duration": 0.08409090909091077,
                "tempo": 120.0
            },
            {
                "start_time": 20.418181818181818,
                "end_time": 20.504545454545454,
                "pitch": 74,
                "velocity": 51,
                "duration": 0.08636363636363598,
                "tempo": 120.0
            },
            {
                "start_time": 20.504545454545454,
                "end_time": 20.55681818181818,
                "pitch": 76,
                "velocity": 51,
                "duration": 0.052272727272725916,
                "tempo": 120.0
            },
            {
                "start_time": 20.679545454545455,
                "end_time": 20.895454545454545,
                "pitch": 69,
                "velocity": 51,
                "duration": 0.21590909090908994,
                "tempo": 120.0
            },
            {
                "start_time": 21.013636363636362,
                "end_time": 21.063636363636363,
                "pitch": 67,
                "velocity": 51,
                "duration": 0.05000000000000071,
                "tempo": 120.0
            },
            {
                "start_time": 20.18181818181818,
                "end_time": 21.063636363636363,
                "pitch": 79,
                "velocity": 51,
                "duration": 0.8818181818181827,
                "tempo": 120.0
            },
            {
                "start_time": 21.063636363636363,
                "end_time": 21.236363636363635,
                "pitch": 67,
                "velocity": 51,
                "duration": 0.17272727272727195,
                "tempo": 120.0
            },
            {
                "start_time": 22.029545454545453,
                "end_time": 22.113636363636363,
                "pitch": 72,
                "velocity": 51,
                "duration": 0.08409090909091077,
                "tempo": 120.0
            },
            {
                "start_time": 22.113636363636363,
                "end_time": 22.202272727272724,
                "pitch": 74,
                "velocity": 51,
                "duration": 0.08863636363636118,
                "tempo": 120.0
            },
            {
                "start_time": 22.202272727272724,
                "end_time": 22.252272727272725,
                "pitch": 76,
                "velocity": 51,
                "duration": 0.05000000000000071,
                "tempo": 120.0
            },
            {
                "start_time": 22.375,
                "end_time": 22.59090909090909,
                "pitch": 69,
                "velocity": 51,
                "duration": 0.21590909090908994,
                "tempo": 120.0
            },
            {
                "start_time": 22.709090909090907,
                "end_time": 22.759090909090908,
                "pitch": 67,
                "velocity": 51,
                "duration": 0.05000000000000071,
                "tempo": 120.0
            },
            {
                "start_time": 21.063636363636363,
                "end_time": 22.759090909090908,
                "pitch": 79,
                "velocity": 51,
                "duration": 1.6954545454545453,
                "tempo": 120.0
            },
            {
                "start_time": 22.759090909090908,
                "end_time": 22.825,
                "pitch": 67,
                "velocity": 51,
                "duration": 0.06590909090909136,
                "tempo": 120.0
            },
            {
                "start_time": 22.759090909090908,
                "end_time": 22.825,
                "pitch": 79,
                "velocity": 51,
                "duration": 0.06590909090909136,
                "tempo": 120.0
            },
            {
                "start_time": 22.825,
                "end_time": 22.893181818181816,
                "pitch": 67,
                "velocity": 51,
                "duration": 0.06818181818181657,
                "tempo": 120.0
            },
            {
                "start_time": 22.825,
                "end_time": 22.893181818181816,
                "pitch": 79,
                "velocity": 51,
                "duration": 0.06818181818181657,
                "tempo": 120.0
            },
            {
                "start_time": 22.893181818181816,
                "end_time": 22.927272727272726,
                "pitch": 67,
                "velocity": 51,
                "duration": 0.03409090909091006,
                "tempo": 120.0
            },
            {
                "start_time": 23.045454545454543,
                "end_time": 23.129545454545454,
                "pitch": 72,
                "velocity": 51,
                "duration": 0.08409090909091077,
                "tempo": 120.0
            },
            {
                "start_time": 23.129545454545454,
                "end_time": 23.21590909090909,
                "pitch": 74,
                "velocity": 51,
                "duration": 0.08636363636363598,
                "tempo": 120.0
            },
            {
                "start_time": 23.21590909090909,
                "end_time": 23.268181818181816,
                "pitch": 76,
                "velocity": 51,
                "duration": 0.052272727272725916,
                "tempo": 120.0
            },
            {
                "start_time": 23.388636363636362,
                "end_time": 23.60681818181818,
                "pitch": 69,
                "velocity": 51,
                "duration": 0.2181818181818187,
                "tempo": 120.0
            },
            {
                "start_time": 23.724999999999998,
                "end_time": 23.80909090909091,
                "pitch": 72,
                "velocity": 51,
                "duration": 0.08409090909091077,
                "tempo": 120.0
            },
            {
                "start_time": 23.80909090909091,
                "end_time": 23.89772727272727,
                "pitch": 74,
                "velocity": 51,
                "duration": 0.08863636363636118,
                "tempo": 120.0
            },
            {
                "start_time": 23.89772727272727,
                "end_time": 23.94772727272727,
                "pitch": 76,
                "velocity": 51,
                "duration": 0.05000000000000071,
                "tempo": 120.0
            },
            {
                "start_time": 41.01590909090909,
                "end_time": 41.09772727272727,
                "pitch": 72,
                "velocity": 51,
                "duration": 0.08181818181817846,
                "tempo": 120.0
            },
            {
                "start_time": 41.09772727272727,
                "end_time": 41.15,
                "pitch": 74,
                "velocity": 51,
                "duration": 0.05227272727272947,
                "tempo": 120.0
            }
        ],
        "Flute": [
            {
                "start_time": 13.561363636363636,
                "end_time": 13.727272727272727,
                "pitch": 74,
                "velocity": 51,
                "duration": 0.165909090909091,
                "tempo": 120.0
            },
            {
                "start_time": 13.729545454545454,
                "end_time": 13.897727272727272,
                "pitch": 73,
                "velocity": 51,
                "duration": 0.168181818181818,
                "tempo": 120.0
            },
            {
                "start_time": 13.897727272727272,
                "end_time": 14.063636363636363,
                "pitch": 74,
                "velocity": 51,
                "duration": 0.165909090909091,
                "tempo": 120.0
            },
            {
                "start_time": 14.063636363636363,
                "end_time": 14.23181818181818,
                "pitch": 69,
                "velocity": 51,
                "duration": 0.168181818181818,
                "tempo": 120.0
            },
            {
                "start_time": 14.404545454545454,
                "end_time": 14.577272727272726,
                "pitch": 69,
                "velocity": 51,
                "duration": 0.17272727272727195,
                "tempo": 120.0
            },
            {
                "start_time": 14.577272727272726,
                "end_time": 14.747727272727271,
                "pitch": 67,
                "velocity": 51,
                "duration": 0.17045454545454497,
                "tempo": 120.0
            },
            {
                "start_time": 14.75,
                "end_time": 14.920454545454545,
                "pitch": 69,
                "velocity": 51,
                "duration": 0.17045454545454497,
                "tempo": 120.0
            },
            {
                "start_time": 14.922727272727272,
                "end_time": 15.088636363636363,
                "pitch": 72,
                "velocity": 51,
                "duration": 0.165909090909091,
                "tempo": 120.0
            },
            {
                "start_time": 15.088636363636363,
                "end_time": 15.256818181818181,
                "pitch": 71,
                "velocity": 51,
                "duration": 0.168181818181818,
                "tempo": 120.0
            },
            {
                "start_time": 15.256818181818181,
                "end_time": 15.424999999999999,
                "pitch": 72,
                "velocity": 51,
                "duration": 0.168181818181818,
                "tempo": 120.0
            },
            {
                "start_time": 15.424999999999999,
                "end_time": 15.593181818181817,
                "pitch": 71,
                "velocity": 51,
                "duration": 0.168181818181818,
                "tempo": 120.0
            },
            {
                "start_time": 15.593181818181817,
                "end_time": 15.763636363636364,
                "pitch": 69,
                "velocity": 51,
                "duration": 0.17045454545454675,
                "tempo": 120.0
            },
            {
                "start_time": 15.763636363636364,
                "end_time": 15.936363636363636,
                "pitch": 69,
                "velocity": 25,
                "duration": 0.17272727272727195,
                "tempo": 120.0
            },
            {
                "start_time": 15.936363636363636,
                "end_time": 16.104545454545455,
                "pitch": 67,
                "velocity": 51,
                "duration": 0.16818181818181976,
                "tempo": 120.0
            },
            {
                "start_time": 16.104545454545455,
                "end_time": 16.272727272727273,
                "pitch": 67,
                "velocity": 25,
                "duration": 0.168181818181818,
                "tempo": 120.0
            },
            {
                "start_time": 16.272727272727273,
                "end_time": 16.438636363636363,
                "pitch": 74,
                "velocity": 51,
                "duration": 0.16590909090908923,
                "tempo": 120.0
            },
            {
                "start_time": 16.438636363636363,
                "end_time": 16.60681818181818,
                "pitch": 73,
                "velocity": 51,
                "duration": 0.168181818181818,
                "tempo": 120.0
            },
            {
                "start_time": 16.60909090909091,
                "end_time": 16.779545454545453,
                "pitch": 74,
                "velocity": 51,
                "duration": 0.1704545454545432,
                "tempo": 120.0
            },
            {
                "start_time": 16.779545454545453,
                "end_time": 16.952272727272728,
                "pitch": 69,
                "velocity": 51,
                "duration": 0.1727272727272755,
                "tempo": 120.0
            },
            {
                "start_time": 17.120454545454546,
                "end_time": 17.288636363636364,
                "pitch": 69,
                "velocity": 51,
                "duration": 0.168181818181818,
                "tempo": 120.0
            },
            {
                "start_time": 17.288636363636364,
                "end_time": 17.454545454545453,
                "pitch": 67,
                "velocity": 51,
                "duration": 0.16590909090908923,
                "tempo": 120.0
            },
            {
                "start_time": 17.454545454545453,
                "end_time": 17.62272727272727,
                "pitch": 69,
                "velocity": 51,
                "duration": 0.168181818181818,
                "tempo": 120.0
            },
            {
                "start_time": 17.62272727272727,
                "end_time": 17.795454545454543,
                "pitch": 72,
                "velocity": 51,
                "duration": 0.17272727272727195,
                "tempo": 120.0
            },
            {
                "start_time": 17.795454545454543,
                "end_time": 17.96818181818182,
                "pitch": 71,
                "velocity": 51,
                "duration": 0.1727272727272755,
                "tempo": 120.0
            },
            {
                "start_time": 17.96818181818182,
                "end_time": 18.136363636363637,
                "pitch": 72,
                "velocity": 51,
                "duration": 0.168181818181818,
                "tempo": 120.0
            },
            {
                "start_time": 18.136363636363637,
                "end_time": 18.304545454545455,
                "pitch": 71,
                "velocity": 51,
                "duration": 0.168181818181818,
                "tempo": 120.0
            },
            {
                "start_time": 18.304545454545455,
                "end_time": 18.474999999999998,
                "pitch": 69,
                "velocity": 51,
                "duration": 0.1704545454545432,
                "tempo": 120.0
            },
            {
                "start_time": 18.474999999999998,
                "end_time": 18.647727272727273,
                "pitch": 81,
                "velocity": 51,
                "duration": 0.1727272727272755,
                "tempo": 120.0
            },
            {
                "start_time": 18.647727272727273,
                "end_time": 18.81590909090909,
                "pitch": 67,
                "velocity": 51,
                "duration": 0.168181818181818,
                "tempo": 120.0
            },
            {
                "start_time": 18.81590909090909,
                "end_time": 18.98181818181818,
                "pitch": 79,
                "velocity": 51,
                "duration": 0.16590909090908923,
                "tempo": 120.0
            },
            {
                "start_time": 18.98409090909091,
                "end_time": 19.15,
                "pitch": 74,
                "velocity": 51,
                "duration": 0.16590909090908923,
                "tempo": 120.0
            },
            {
                "start_time": 19.15,
                "end_time": 19.318181818181817,
                "pitch": 73,
                "velocity": 51,
                "duration": 0.168181818181818,
                "tempo": 120.0
            },
            {
                "start_time": 19.318181818181817,
                "end_time": 19.49090909090909,
                "pitch": 74,
                "velocity": 51,
                "duration": 0.17272727272727195,
                "tempo": 120.0
            },
            {
                "start_time": 19.49090909090909,
                "end_time": 19.663636363636364,
                "pitch": 69,
                "velocity": 51,
                "duration": 0.1727272727272755,
                "tempo": 120.0
            },
            {
                "start_time": 19.831818181818182,
                "end_time": 20.0,
                "pitch": 69,
                "velocity": 51,
                "duration": 0.168181818181818,
                "tempo": 120.0
            },
            {
                "start_time": 20.0,
                "end_time": 20.16590909090909,
                "pitch": 67,
                "velocity": 51,
                "duration": 0.16590909090908923,
                "tempo": 120.0
            },
            {
                "start_time": 20.16590909090909,
                "end_time": 20.334090909090907,
                "pitch": 69,
                "velocity": 51,
                "duration": 0.168181818181818,
                "tempo": 120.0
            },
            {
                "start_time": 20.334090909090907,
                "end_time": 20.50681818181818,
                "pitch": 72,
                "velocity": 51,
                "duration": 0.17272727272727195,
                "tempo": 120.0
            },
            {
                "start_time": 20.50681818181818,
                "end_time": 20.679545454545455,
                "pitch": 71,
                "velocity": 51,
                "duration": 0.1727272727272755,
                "tempo": 120.0
            },
            {
                "start_time": 20.679545454545455,
                "end_time": 20.845454545454544,
                "pitch": 72,
                "velocity": 51,
                "duration": 0.16590909090908923,
                "tempo": 120.0
            },
            {
                "start_time": 20.847727272727273,
                "end_time": 21.013636363636362,
                "pitch": 71,
                "velocity": 51,
                "duration": 0.16590909090908923,
                "tempo": 120.0
            },
            {
                "start_time": 21.013636363636362,
                "end_time": 21.186363636363634,
                "pitch": 69,
                "velocity": 51,
                "duration": 0.17272727272727195,
                "tempo": 120.0
            },
            {
                "start_time": 21.186363636363634,
                "end_time": 21.35909090909091,
                "pitch": 69,
                "velocity": 25,
                "duration": 0.1727272727272755,
                "tempo": 120.0
            },
            {
                "start_time": 21.35909090909091,
                "end_time": 21.527272727272727,
                "pitch": 67,
                "velocity": 51,
                "duration": 0.168181818181818,
                "tempo": 120.0
            },
            {
                "start_time": 21.527272727272727,
                "end_time": 21.693181818181817,
                "pitch": 67,
                "velocity": 25,
                "duration": 0.16590909090908923,
                "tempo": 120.0
            },
            {
                "start_time": 21.695454545454545,
                "end_time": 21.861363636363635,
                "pitch": 74,
                "velocity": 51,
                "duration": 0.16590909090908923,
                "tempo": 120.0
            },
            {
                "start_time": 21.861363636363635,
                "end_time": 22.029545454545453,
                "pitch": 73,
                "velocity": 51,
                "duration": 0.168181818181818,
                "tempo": 120.0
            },
            {
                "start_time": 22.029545454545453,
                "end_time": 22.202272727272724,
                "pitch": 74,
                "velocity": 51,
                "duration": 0.17272727272727195,
                "tempo": 120.0
            },
            {
                "start_time": 22.202272727272724,
                "end_time": 22.375,
                "pitch": 69,
                "velocity": 51,
                "duration": 0.1727272727272755,
                "tempo": 120.0
            },
            {
                "start_time": 22.543181818181818,
                "end_time": 22.709090909090907,
                "pitch": 69,
                "velocity": 51,
                "duration": 0.16590909090908923,
                "tempo": 120.0
            },
            {
                "start_time": 22.711363636363636,
                "end_time": 22.877272727272725,
                "pitch": 67,
                "velocity": 51,
                "duration": 0.16590909090908923,
                "tempo": 120.0
            },
            {
                "start_time": 22.877272727272725,
                "end_time": 23.045454545454543,
                "pitch": 69,
                "velocity": 51,
                "duration": 0.168181818181818,
                "tempo": 120.0
            },
            {
                "start_time": 23.045454545454543,
                "end_time": 23.21590909090909,
                "pitch": 72,
                "velocity": 51,
                "duration": 0.17045454545454675,
                "tempo": 120.0
            },
            {
                "start_time": 23.21818181818182,
                "end_time": 23.39090909090909,
                "pitch": 71,
                "velocity": 51,
                "duration": 0.17272727272727195,
                "tempo": 120.0
            },
            {
                "start_time": 23.39090909090909,
                "end_time": 23.55681818181818,
                "pitch": 72,
                "velocity": 51,
                "duration": 0.16590909090908923,
                "tempo": 120.0
            },
            {
                "start_time": 23.55681818181818,
                "end_time": 23.724999999999998,
                "pitch": 71,
                "velocity": 51,
                "duration": 0.168181818181818,
                "tempo": 120.0
            },
            {
                "start_time": 23.724999999999998,
                "end_time": 23.89772727272727,
                "pitch": 69,
                "velocity": 51,
                "duration": 0.17272727272727195,
                "tempo": 120.0
            },
            {
                "start_time": 23.89772727272727,
                "end_time": 24.070454545454545,
                "pitch": 71,
                "velocity": 51,
                "duration": 0.1727272727272755,
                "tempo": 120.0
            },
            {
                "start_time": 24.070454545454545,
                "end_time": 24.236363636363635,
                "pitch": 72,
                "velocity": 51,
                "duration": 0.16590909090908923,
                "tempo": 120.0
            },
            {
                "start_time": 24.236363636363635,
                "end_time": 24.40681818181818,
                "pitch": 74,
                "velocity": 51,
                "duration": 0.17045454545454675,
                "tempo": 120.0
            },
            {
                "start_time": 24.40681818181818,
                "end_time": 24.57272727272727,
                "pitch": 69,
                "velocity": 51,
                "duration": 0.16590909090908923,
                "tempo": 120.0
            },
            {
                "start_time": 24.57272727272727,
                "end_time": 24.913636363636364,
                "pitch": 74,
                "velocity": 51,
                "duration": 0.3409090909090935,
                "tempo": 120.0
            },
            {
                "start_time": 24.913636363636364,
                "end_time": 25.252272727272725,
                "pitch": 69,
                "velocity": 51,
                "duration": 0.3386363636363612,
                "tempo": 120.0
            },
            {
                "start_time": 25.254545454545454,
                "end_time": 25.420454545454543,
                "pitch": 74,
                "velocity": 51,
                "duration": 0.16590909090908923,
                "tempo": 120.0
            },
            {
                "start_time": 25.420454545454543,
                "end_time": 25.59318181818182,
                "pitch": 72,
                "velocity": 51,
                "duration": 0.1727272727272755,
                "tempo": 120.0
            },
            {
                "start_time": 25.59318181818182,
                "end_time": 25.76590909090909,
                "pitch": 71,
                "velocity": 51,
                "duration": 0.17272727272727195,
                "tempo": 120.0
            },
            {
                "start_time": 25.76590909090909,
                "end_time": 25.93409090909091,
                "pitch": 69,
                "velocity": 51,
                "duration": 0.168181818181818,
                "tempo": 120.0
            },
            {
                "start_time": 25.93409090909091,
                "end_time": 26.268181818181816,
                "pitch": 74,
                "velocity": 51,
                "duration": 0.3340909090909072,
                "tempo": 120.0
            },
            {
                "start_time": 26.268181818181816,
                "end_time": 26.60909090909091,
                "pitch": 69,
                "velocity": 51,
                "duration": 0.3409090909090935,
                "tempo": 120.0
            },
            {
                "start_time": 27.11590909090909,
                "end_time": 27.284090909090907,
                "pitch": 81,
                "velocity": 51,
                "duration": 0.168181818181818,
                "tempo": 120.0
            },
            {
                "start_time": 27.284090909090907,
                "end_time": 27.625,
                "pitch": 86,
                "velocity": 51,
                "duration": 0.3409090909090935,
                "tempo": 120.0
            },
            {
                "start_time": 27.625,
                "end_time": 27.96363636363636,
                "pitch": 81,
                "velocity": 51,
                "duration": 0.3386363636363612,
                "tempo": 120.0
            },
            {
                "start_time": 27.96363636363636,
                "end_time": 28.13181818181818,
                "pitch": 86,
                "velocity": 51,
                "duration": 0.168181818181818,
                "tempo": 120.0
            },
            {
                "start_time": 28.13181818181818,
                "end_time": 28.304545454545455,
                "pitch": 84,
                "velocity": 51,
                "duration": 0.1727272727272755,
                "tempo": 120.0
            },
            {
                "start_time": 28.304545454545455,
                "end_time": 28.477272727272727,
                "pitch": 83,
                "velocity": 51,
                "duration": 0.17272727272727195,
                "tempo": 120.0
            },
            {
                "start_time": 28.477272727272727,
                "end_time": 28.643181818181816,
                "pitch": 86,
                "velocity": 51,
                "duration": 0.16590909090908923,
                "tempo": 120.0
            },
            {
                "start_time": 28.645454545454545,
                "end_time": 28.811363636363634,
                "pitch": 86,
                "velocity": 51,
                "duration": 0.16590909090908923,
                "tempo": 120.0
            },
            {
                "start_time": 28.811363636363634,
                "end_time": 28.979545454545452,
                "pitch": 81,
                "velocity": 51,
                "duration": 0.168181818181818,
                "tempo": 120.0
            },
            {
                "start_time": 28.979545454545452,
                "end_time": 29.320454545454545,
                "pitch": 86,
                "velocity": 51,
                "duration": 0.3409090909090935,
                "tempo": 120.0
            },
            {
                "start_time": 40.67272727272727,
                "end_time": 40.84318181818182,
                "pitch": 74,
                "velocity": 51,
                "duration": 0.17045454545454675,
                "tempo": 120.0
            },
            {
                "start_time": 40.84318181818182,
                "end_time": 41.01590909090909,
                "pitch": 73,
                "velocity": 51,
                "duration": 0.17272727272727195,
                "tempo": 120.0
            },
            {
                "start_time": 41.01590909090909,
                "end_time": 41.15,
                "pitch": 74,
                "velocity": 51,
                "duration": 0.13409090909090793,
                "tempo": 120.0
            }
        ],
        "Trumpet": [
            {
                "start_time": 4.256818181818182,
                "end_time": 4.343181818181818,
                "pitch": 69,
                "velocity": 40,
                "duration": 0.08636363636363598,
                "tempo": 120.0
            },
            {
                "start_time": 4.343181818181818,
                "end_time": 4.429545454545455,
                "pitch": 69,
                "velocity": 20,
                "duration": 0.08636363636363686,
                "tempo": 120.0
            },
            {
                "start_time": 4.429545454545455,
                "end_time": 4.513636363636364,
                "pitch": 69,
                "velocity": 40,
                "duration": 0.084090909090909,
                "tempo": 120.0
            },
            {
                "start_time": 4.513636363636364,
                "end_time": 4.595454545454545,
                "pitch": 69,
                "velocity": 20,
                "duration": 0.08181818181818112,
                "tempo": 120.0
            },
            {
                "start_time": 4.597727272727273,
                "end_time": 4.679545454545455,
                "pitch": 69,
                "velocity": 40,
                "duration": 0.08181818181818201,
                "tempo": 120.0
            },
            {
                "start_time": 4.679545454545455,
                "end_time": 4.763636363636364,
                "pitch": 69,
                "velocity": 20,
                "duration": 0.084090909090909,
                "tempo": 120.0
            },
            {
                "start_time": 4.765909090909091,
                "end_time": 5.1,
                "pitch": 69,
                "velocity": 40,
                "duration": 0.334090909090909,
                "tempo": 120.0
            },
            {
                "start_time": 5.1,
                "end_time": 5.340909090909091,
                "pitch": 67,
                "velocity": 40,
                "duration": 0.24090909090909118,
                "tempo": 120.0
            },
            {
                "start_time": 5.340909090909091,
                "end_time": 5.443181818181818,
                "pitch": 67,
                "velocity": 40,
                "duration": 0.10227272727272751,
                "tempo": 120.0
            },
            {
                "start_time": 5.445454545454545,
                "end_time": 6.795454545454545,
                "pitch": 66,
                "velocity": 40,
                "duration": 1.3499999999999996,
                "tempo": 120.0
            },
            {
                "start_time": 6.968181818181818,
                "end_time": 7.054545454545454,
                "pitch": 62,
                "velocity": 40,
                "duration": 0.08636363636363598,
                "tempo": 120.0
            },
            {
                "start_time": 7.054545454545454,
                "end_time": 7.140909090909091,
                "pitch": 62,
                "velocity": 25,
                "duration": 0.08636363636363686,
                "tempo": 120.0
            },
            {
                "start_time": 7.140909090909091,
                "end_time": 7.222727272727273,
                "pitch": 62,
                "velocity": 40,
                "duration": 0.08181818181818201,
                "tempo": 120.0
            },
            {
                "start_time": 7.225,
                "end_time": 7.306818181818182,
                "pitch": 62,
                "velocity": 25,
                "duration": 0.08181818181818201,
                "tempo": 120.0
            },
            {
                "start_time": 7.306818181818182,
                "end_time": 7.390909090909091,
                "pitch": 62,
                "velocity": 40,
                "duration": 0.084090909090909,
                "tempo": 120.0
            },
            {
                "start_time": 7.390909090909091,
                "end_time": 7.475,
                "pitch": 62,
                "velocity": 25,
                "duration": 0.084090909090909,
                "tempo": 120.0
            },
            {
                "start_time": 7.475,
                "end_time": 7.820454545454545,
                "pitch": 62,
                "velocity": 40,
                "duration": 0.3454545454545457,
                "tempo": 120.0
            },
            {
                "start_time": 7.820454545454545,
                "end_time": 8.054545454545455,
                "pitch": 67,
                "velocity": 40,
                "duration": 0.23409090909090935,
                "tempo": 120.0
            },
            {
                "start_time": 5.340909090909091,
                "end_time": 8.054545454545455,
                "pitch": 79,
                "velocity": 40,
                "duration": 2.713636363636364,
                "tempo": 120.0
            },
            {
                "start_time": 8.054545454545455,
                "end_time": 8.154545454545454,
                "pitch": 67,
                "velocity": 40,
                "duration": 0.09999999999999964,
                "tempo": 120.0
            },
            {
                "start_time": 8.156818181818181,
                "end_time": 9.506818181818181,
                "pitch": 66,
                "velocity": 40,
                "duration": 1.3499999999999996,
                "tempo": 120.0
            },
            {
                "start_time": 9.679545454545455,
                "end_time": 9.76590909090909,
                "pitch": 62,
                "velocity": 40,
                "duration": 0.08636363636363598,
                "tempo": 120.0
            },
            {
                "start_time": 9.76590909090909,
                "end_time": 9.85,
                "pitch": 62,
                "velocity": 25,
                "duration": 0.084090909090909,
                "tempo": 120.0
            },
            {
                "start_time": 9.852272727272727,
                "end_time": 9.934090909090909,
                "pitch": 62,
                "velocity": 40,
                "duration": 0.08181818181818201,
                "tempo": 120.0
            },
            {
                "start_time": 9.934090909090909,
                "end_time": 10.018181818181818,
                "pitch": 62,
                "velocity": 25,
                "duration": 0.084090909090909,
                "tempo": 120.0
            },
            {
                "start_time": 10.018181818181818,
                "end_time": 10.102272727272727,
                "pitch": 62,
                "velocity": 40,
                "duration": 0.084090909090909,
                "tempo": 120.0
            },
            {
                "start_time": 10.102272727272727,
                "end_time": 10.186363636363636,
                "pitch": 62,
                "velocity": 25,
                "duration": 0.084090909090909,
                "tempo": 120.0
            },
            {
                "start_time": 10.186363636363636,
                "end_time": 10.531818181818181,
                "pitch": 62,
                "velocity": 40,
                "duration": 0.3454545454545457,
                "tempo": 120.0
            },
            {
                "start_time": 10.531818181818181,
                "end_time": 10.76590909090909,
                "pitch": 67,
                "velocity": 40,
                "duration": 0.23409090909090935,
                "tempo": 120.0
            },
            {
                "start_time": 8.054545454545455,
                "end_time": 10.76590909090909,
                "pitch": 79,
                "velocity": 40,
                "duration": 2.711363636363636,
                "tempo": 120.0
            },
            {
                "start_time": 10.76590909090909,
                "end_time": 10.86590909090909,
                "pitch": 67,
                "velocity": 40,
                "duration": 0.09999999999999964,
                "tempo": 120.0
            },
            {
                "start_time": 10.86590909090909,
                "end_time": 12.218181818181817,
                "pitch": 66,
                "velocity": 40,
                "duration": 1.3522727272727266,
                "tempo": 120.0
            },
            {
                "start_time": 31.368181818181817,
                "end_time": 31.454545454545453,
                "pitch": 69,
                "velocity": 40,
                "duration": 0.08636363636363598,
                "tempo": 120.0
            },
            {
                "start_time": 31.454545454545453,
                "end_time": 31.53863636363636,
                "pitch": 69,
                "velocity": 20,
                "duration": 0.08409090909090722,
                "tempo": 120.0
            },
            {
                "start_time": 31.54090909090909,
                "end_time": 31.62272727272727,
                "pitch": 69,
                "velocity": 40,
                "duration": 0.08181818181818201,
                "tempo": 120.0
            },
            {
                "start_time": 31.62272727272727,
                "end_time": 31.706818181818182,
                "pitch": 69,
                "velocity": 20,
                "duration": 0.08409090909091077,
                "tempo": 120.0
            },
            {
                "start_time": 31.706818181818182,
                "end_time": 31.79090909090909,
                "pitch": 69,
                "velocity": 40,
                "duration": 0.08409090909090722,
                "tempo": 120.0
            },
            {
                "start_time": 31.79090909090909,
                "end_time": 31.875,
                "pitch": 69,
                "velocity": 20,
                "duration": 0.08409090909091077,
                "tempo": 120.0
            },
            {
                "start_time": 31.875,
                "end_time": 32.220454545454544,
                "pitch": 69,
                "velocity": 40,
                "duration": 0.3454545454545439,
                "tempo": 120.0
            },
            {
                "start_time": 32.220454545454544,
                "end_time": 32.45454545454545,
                "pitch": 67,
                "velocity": 40,
                "duration": 0.23409090909090935,
                "tempo": 120.0
            },
            {
                "start_time": 10.76590909090909,
                "end_time": 32.45454545454545,
                "pitch": 79,
                "velocity": 40,
                "duration": 21.688636363636363,
                "tempo": 120.0
            },
            {
                "start_time": 32.45454545454545,
                "end_time": 32.554545454545455,
                "pitch": 67,
                "velocity": 40,
                "duration": 0.10000000000000142,
                "tempo": 120.0
            },
            {
                "start_time": 32.554545454545455,
                "end_time": 33.90681818181818,
                "pitch": 66,
                "velocity": 40,
                "duration": 1.3522727272727266,
                "tempo": 120.0
            },
            {
                "start_time": 34.07954545454545,
                "end_time": 34.163636363636364,
                "pitch": 62,
                "velocity": 40,
                "duration": 0.08409090909091077,
                "tempo": 120.0
            },
            {
                "start_time": 34.163636363636364,
                "end_time": 34.25,
                "pitch": 62,
                "velocity": 25,
                "duration": 0.08636363636363598,
                "tempo": 120.0
            },
            {
                "start_time": 34.25,
                "end_time": 34.33409090909091,
                "pitch": 62,
                "velocity": 40,
                "duration": 0.08409090909091077,
                "tempo": 120.0
            },
            {
                "start_time": 34.33409090909091,
                "end_time": 34.418181818181814,
                "pitch": 62,
                "velocity": 25,
                "duration": 0.08409090909090366,
                "tempo": 120.0
            },
            {
                "start_time": 34.418181818181814,
                "end_time": 34.502272727272725,
                "pitch": 62,
                "velocity": 40,
                "duration": 0.08409090909091077,
                "tempo": 120.0
            },
            {
                "start_time": 34.502272727272725,
                "end_time": 34.586363636363636,
                "pitch": 62,
                "velocity": 25,
                "duration": 0.08409090909091077,
                "tempo": 120.0
            },
            {
                "start_time": 34.586363636363636,
                "end_time": 34.929545454545455,
                "pitch": 62,
                "velocity": 40,
                "duration": 0.3431818181818187,
                "tempo": 120.0
            },
            {
                "start_time": 34.929545454545455,
                "end_time": 35.16590909090909,
                "pitch": 67,
                "velocity": 40,
                "duration": 0.23636363636363455,
                "tempo": 120.0
            },
            {
                "start_time": 32.45454545454545,
                "end_time": 35.16590909090909,
                "pitch": 79,
                "velocity": 40,
                "duration": 2.711363636363636,
                "tempo": 120.0
            },
            {
                "start_time": 35.16590909090909,
                "end_time": 35.26590909090909,
                "pitch": 67,
                "velocity": 40,
                "duration": 0.10000000000000142,
                "tempo": 120.0
            },
            {
                "start_time": 35.26590909090909,
                "end_time": 36.61590909090909,
                "pitch": 66,
                "velocity": 40,
                "duration": 1.3500000000000014,
                "tempo": 120.0
            },
            {
                "start_time": 36.788636363636364,
                "end_time": 36.875,
                "pitch": 62,
                "velocity": 40,
                "duration": 0.08636363636363598,
                "tempo": 120.0
            },
            {
                "start_time": 36.875,
                "end_time": 36.961363636363636,
                "pitch": 62,
                "velocity": 25,
                "duration": 0.08636363636363598,
                "tempo": 120.0
            },
            {
                "start_time": 36.961363636363636,
                "end_time": 37.04545454545455,
                "pitch": 62,
                "velocity": 40,
                "duration": 0.08409090909091077,
                "tempo": 120.0
            },
            {
                "start_time": 37.04545454545455,
                "end_time": 37.12954545454545,
                "pitch": 62,
                "velocity": 25,
                "duration": 0.08409090909090366,
                "tempo": 120.0
            },
            {
                "start_time": 37.12954545454545,
                "end_time": 37.211363636363636,
                "pitch": 62,
                "velocity": 40,
                "duration": 0.08181818181818556,
                "tempo": 120.0
            },
            {
                "start_time": 37.21363636363636,
                "end_time": 37.29772727272727,
                "pitch": 62,
                "velocity": 25,
                "duration": 0.08409090909091077,
                "tempo": 120.0
            },
            {
                "start_time": 37.29772727272727,
                "end_time": 37.64090909090909,
                "pitch": 62,
                "velocity": 40,
                "duration": 0.3431818181818187,
                "tempo": 120.0
            },
            {
                "start_time": 37.64090909090909,
                "end_time": 37.875,
                "pitch": 67,
                "velocity": 40,
                "duration": 0.23409090909090935,
                "tempo": 120.0
            },
            {
                "start_time": 35.16590909090909,
                "end_time": 37.875,
                "pitch": 79,
                "velocity": 40,
                "duration": 2.7090909090909108,
                "tempo": 120.0
            },
            {
                "start_time": 37.875,
                "end_time": 37.97727272727273,
                "pitch": 67,
                "velocity": 40,
                "duration": 0.10227272727272663,
                "tempo": 120.0
            },
            {
                "start_time": 37.97727272727273,
                "end_time": 39.32727272727273,
                "pitch": 66,
                "velocity": 40,
                "duration": 1.3500000000000014,
                "tempo": 120.0
            }
        ],
        "Violin": [
            {
                "start_time": 17.625,
                "end_time": 20.334090909090907,
                "pitch": 86,
                "velocity": 51,
                "duration": 2.709090909090907,
                "tempo": 120.0
            },
            {
                "start_time": 20.336363636363636,
                "end_time": 23.045454545454543,
                "pitch": 86,
                "velocity": 51,
                "duration": 2.709090909090907,
                "tempo": 120.0
            },
            {
                "start_time": 23.045454545454543,
                "end_time": 24.40681818181818,
                "pitch": 86,
                "velocity": 51,
                "duration": 1.361363636363638,
                "tempo": 120.0
            },
            {
                "start_time": 24.40681818181818,
                "end_time": 24.54090909090909,
                "pitch": 86,
                "velocity": 64,
                "duration": 0.13409090909090793,
                "tempo": 120.0
            },
            {
                "start_time": 24.575,
                "end_time": 24.706818181818182,
                "pitch": 81,
                "velocity": 64,
                "duration": 0.13181818181818272,
                "tempo": 120.0
            },
            {
                "start_time": 24.74090909090909,
                "end_time": 24.877272727272725,
                "pitch": 86,
                "velocity": 64,
                "duration": 0.1363636363636367,
                "tempo": 120.0
            },
            {
                "start_time": 24.913636363636364,
                "end_time": 25.034090909090907,
                "pitch": 79,
                "velocity": 64,
                "duration": 0.12045454545454248,
                "tempo": 120.0
            },
            {
                "start_time": 25.034090909090907,
                "end_time": 25.049999999999997,
                "pitch": 79,
                "velocity": 64,
                "duration": 0.01590909090909065,
                "tempo": 120.0
            },
            {
                "start_time": 25.086363636363636,
                "end_time": 25.202272727272724,
                "pitch": 79,
                "velocity": 40,
                "duration": 0.11590909090908852,
                "tempo": 120.0
            },
            {
                "start_time": 25.034090909090907,
                "end_time": 25.202272727272724,
                "pitch": 91,
                "velocity": 64,
                "duration": 0.168181818181818,
                "tempo": 120.0
            },
            {
                "start_time": 25.202272727272724,
                "end_time": 25.21818181818182,
                "pitch": 79,
                "velocity": 40,
                "duration": 0.015909090909094203,
                "tempo": 120.0
            },
            {
                "start_time": 25.254545454545454,
                "end_time": 25.370454545454542,
                "pitch": 79,
                "velocity": 64,
                "duration": 0.11590909090908852,
                "tempo": 120.0
            },
            {
                "start_time": 25.202272727272724,
                "end_time": 25.370454545454542,
                "pitch": 91,
                "velocity": 40,
                "duration": 0.168181818181818,
                "tempo": 120.0
            },
            {
                "start_time": 25.370454545454542,
                "end_time": 25.386363636363637,
                "pitch": 79,
                "velocity": 64,
                "duration": 0.015909090909094203,
                "tempo": 120.0
            },
            {
                "start_time": 25.422727272727272,
                "end_time": 25.55909090909091,
                "pitch": 78,
                "velocity": 64,
                "duration": 0.1363636363636367,
                "tempo": 120.0
            },
            {
                "start_time": 25.59318181818182,
                "end_time": 25.71363636363636,
                "pitch": 79,
                "velocity": 64,
                "duration": 0.12045454545454248,
                "tempo": 120.0
            },
            {
                "start_time": 25.370454545454542,
                "end_time": 25.71363636363636,
                "pitch": 91,
                "velocity": 64,
                "duration": 0.3431818181818187,
                "tempo": 120.0
            },
            {
                "start_time": 25.71363636363636,
                "end_time": 25.73181818181818,
                "pitch": 79,
                "velocity": 64,
                "duration": 0.01818181818181941,
                "tempo": 120.0
            },
            {
                "start_time": 25.76590909090909,
                "end_time": 25.9,
                "pitch": 86,
                "velocity": 64,
                "duration": 0.13409090909090793,
                "tempo": 120.0
            },
            {
                "start_time": 25.93409090909091,
                "end_time": 26.068181818181817,
                "pitch": 81,
                "velocity": 64,
                "duration": 0.13409090909090793,
                "tempo": 120.0
            },
            {
                "start_time": 26.099999999999998,
                "end_time": 26.23409090909091,
                "pitch": 86,
                "velocity": 64,
                "duration": 0.13409090909091148,
                "tempo": 120.0
            },
            {
                "start_time": 26.270454545454545,
                "end_time": 26.402272727272727,
                "pitch": 81,
                "velocity": 64,
                "duration": 0.13181818181818272,
                "tempo": 120.0
            },
            {
                "start_time": 26.436363636363634,
                "end_time": 26.55681818181818,
                "pitch": 79,
                "velocity": 64,
                "duration": 0.12045454545454604,
                "tempo": 120.0
            },
            {
                "start_time": 25.71363636363636,
                "end_time": 26.55681818181818,
                "pitch": 91,
                "velocity": 64,
                "duration": 0.8431818181818187,
                "tempo": 120.0
            },
            {
                "start_time": 26.55681818181818,
                "end_time": 26.693181818181817,
                "pitch": 79,
                "velocity": 64,
                "duration": 0.1363636363636367,
                "tempo": 120.0
            },
            {
                "start_time": 26.78181818181818,
                "end_time": 27.03181818181818,
                "pitch": 78,
                "velocity": 64,
                "duration": 0.25,
                "tempo": 120.0
            },
            {
                "start_time": 27.118181818181817,
                "end_time": 27.25,
                "pitch": 74,
                "velocity": 64,
                "duration": 0.13181818181818272,
                "tempo": 120.0
            },
            {
                "start_time": 27.284090909090907,
                "end_time": 27.418181818181818,
                "pitch": 69,
                "velocity": 64,
                "duration": 0.13409090909091148,
                "tempo": 120.0
            },
            {
                "start_time": 27.452272727272724,
                "end_time": 27.58863636363636,
                "pitch": 74,
                "velocity": 64,
                "duration": 0.1363636363636367,
                "tempo": 120.0
            },
            {
                "start_time": 27.625,
                "end_time": 27.743181818181817,
                "pitch": 67,
                "velocity": 64,
                "duration": 0.11818181818181728,
                "tempo": 120.0
            },
            {
                "start_time": 27.743181818181817,
                "end_time": 27.761363636363637,
                "pitch": 67,
                "velocity": 64,
                "duration": 0.01818181818181941,
                "tempo": 120.0
            },
            {
                "start_time": 27.795454545454543,
                "end_time": 27.913636363636364,
                "pitch": 67,
                "velocity": 40,
                "duration": 0.11818181818182083,
                "tempo": 120.0
            },
            {
                "start_time": 27.743181818181817,
                "end_time": 27.913636363636364,
                "pitch": 79,
                "velocity": 64,
                "duration": 0.17045454545454675,
                "tempo": 120.0
            },
            {
                "start_time": 27.913636363636364,
                "end_time": 27.929545454545455,
                "pitch": 67,
                "velocity": 40,
                "duration": 0.01590909090909065,
                "tempo": 120.0
            },
            {
                "start_time": 27.96590909090909,
                "end_time": 28.081818181818182,
                "pitch": 67,
                "velocity": 64,
                "duration": 0.11590909090909207,
                "tempo": 120.0
            },
            {
                "start_time": 27.913636363636364,
                "end_time": 28.081818181818182,
                "pitch": 79,
                "velocity": 40,
                "duration": 0.168181818181818,
                "tempo": 120.0
            },
            {
                "start_time": 28.081818181818182,
                "end_time": 28.097727272727273,
                "pitch": 67,
                "velocity": 64,
                "duration": 0.01590909090909065,
                "tempo": 120.0
            },
            {
                "start_time": 28.13181818181818,
                "end_time": 28.270454545454545,
                "pitch": 66,
                "velocity": 64,
                "duration": 0.13863636363636545,
                "tempo": 120.0
            },
            {
                "start_time": 28.304545454545455,
                "end_time": 28.424999999999997,
                "pitch": 67,
                "velocity": 64,
                "duration": 0.12045454545454248,
                "tempo": 120.0
            },
            {
                "start_time": 28.081818181818182,
                "end_time": 28.424999999999997,
                "pitch": 79,
                "velocity": 64,
                "duration": 0.34318181818181515,
                "tempo": 120.0
            },
            {
                "start_time": 28.424999999999997,
                "end_time": 28.440909090909088,
                "pitch": 67,
                "velocity": 64,
                "duration": 0.01590909090909065,
                "tempo": 120.0
            },
            {
                "start_time": 28.477272727272727,
                "end_time": 28.611363636363635,
                "pitch": 74,
                "velocity": 64,
                "duration": 0.13409090909090793,
                "tempo": 120.0
            },
            {
                "start_time": 28.645454545454545,
                "end_time": 28.777272727272727,
                "pitch": 74,
                "velocity": 64,
                "duration": 0.13181818181818272,
                "tempo": 120.0
            },
            {
                "start_time": 28.813636363636363,
                "end_time": 28.945454545454545,
                "pitch": 66,
                "velocity": 64,
                "duration": 0.13181818181818272,
                "tempo": 120.0
            },
            {
                "start_time": 28.98181818181818,
                "end_time": 29.23181818181818,
                "pitch": 74,
                "velocity": 64,
                "duration": 0.25,
                "tempo": 120.0
            }
        ],
        "Acoustic Bass": [
            {
                "start_time": 0.015909090909090907,
                "end_time": 0.09772727272727272,
                "pitch": 38,
                "velocity": 80,
                "duration": 0.08181818181818182,
                "tempo": 120.0
            },
            {
                "start_time": 0.09999999999999999,
                "end_time": 0.18409090909090908,
                "pitch": 38,
                "velocity": 40,
                "duration": 0.08409090909090909,
                "tempo": 120.0
            },
            {
                "start_time": 0.18409090909090908,
                "end_time": 0.2659090909090909,
                "pitch": 33,
                "velocity": 80,
                "duration": 0.08181818181818179,
                "tempo": 120.0
            },
            {
                "start_time": 0.2659090909090909,
                "end_time": 0.35,
                "pitch": 33,
                "velocity": 40,
                "duration": 0.0840909090909091,
                "tempo": 120.0
            },
            {
                "start_time": 0.35227272727272724,
                "end_time": 0.4340909090909091,
                "pitch": 38,
                "velocity": 80,
                "duration": 0.08181818181818185,
                "tempo": 120.0
            },
            {
                "start_time": 0.4340909090909091,
                "end_time": 0.5181818181818182,
                "pitch": 38,
                "velocity": 40,
                "duration": 0.0840909090909091,
                "tempo": 120.0
            },
            {
                "start_time": 0.5181818181818182,
                "end_time": 0.6022727272727273,
                "pitch": 33,
                "velocity": 80,
                "duration": 0.0840909090909091,
                "tempo": 120.0
            },
            {
                "start_time": 0.6022727272727273,
                "end_time": 0.6863636363636363,
                "pitch": 33,
                "velocity": 40,
                "duration": 0.084090909090909,
                "tempo": 120.0
            },
            {
                "start_time": 0.6863636363636363,
                "end_time": 0.7704545454545454,
                "pitch": 38,
                "velocity": 80,
                "duration": 0.0840909090909091,
                "tempo": 120.0
            },
            {
                "start_time": 0.7704545454545454,
                "end_time": 0.8545454545454545,
                "pitch": 38,
                "velocity": 40,
                "duration": 0.0840909090909091,
                "tempo": 120.0
            },
            {
                "start_time": 0.8545454545454545,
                "end_time": 0.9363636363636363,
                "pitch": 33,
                "velocity": 80,
                "duration": 0.08181818181818179,
                "tempo": 120.0
            },
            {
                "start_time": 0.9363636363636363,
                "end_time": 1.0204545454545455,
                "pitch": 33,
                "velocity": 40,
                "duration": 0.08409090909090922,
                "tempo": 120.0
            },
            {
                "start_time": 1.0227272727272727,
                "end_time": 1.1045454545454545,
                "pitch": 38,
                "velocity": 80,
                "duration": 0.08181818181818179,
                "tempo": 120.0
            },
            {
                "start_time": 1.1045454545454545,
                "end_time": 1.1886363636363635,
                "pitch": 38,
                "velocity": 40,
                "duration": 0.084090909090909,
                "tempo": 120.0
            },
            {
                "start_time": 1.1886363636363635,
                "end_time": 1.2727272727272727,
                "pitch": 33,
                "velocity": 80,
                "duration": 0.08409090909090922,
                "tempo": 120.0
            },
            {
                "start_time": 1.2727272727272727,
                "end_time": 1.3568181818181817,
                "pitch": 33,
                "velocity": 40,
                "duration": 0.084090909090909,
                "tempo": 120.0
            },
            {
                "start_time": 1.3568181818181817,
                "end_time": 1.7022727272727272,
                "pitch": 38,
                "velocity": 80,
                "duration": 0.34545454545454546,
                "tempo": 120.0
            },
            {
                "start_time": 1.7022727272727272,
                "end_time": 1.784090909090909,
                "pitch": 33,
                "velocity": 80,
                "duration": 0.08181818181818179,
                "tempo": 120.0
            },
            {
                "start_time": 1.784090909090909,
                "end_time": 1.8681818181818182,
                "pitch": 33,
                "velocity": 40,
                "duration": 0.08409090909090922,
                "tempo": 120.0
            },
            {
                "start_time": 1.8704545454545454,
                "end_time": 1.9522727272727272,
                "pitch": 33,
                "velocity": 80,
                "duration": 0.08181818181818179,
                "tempo": 120.0
            },
            {
                "start_time": 1.9522727272727272,
                "end_time": 2.036363636363636,
                "pitch": 33,
                "velocity": 40,
                "duration": 0.084090909090909,
                "tempo": 120.0
            },
            {
                "start_time": 2.036363636363636,
                "end_time": 2.120454545454545,
                "pitch": 35,
                "velocity": 80,
                "duration": 0.084090909090909,
                "tempo": 120.0
            },
            {
                "start_time": 2.120454545454545,
                "end_time": 2.2045454545454546,
                "pitch": 35,
                "velocity": 40,
                "duration": 0.08409090909090944,
                "tempo": 120.0
            },
            {
                "start_time": 2.2045454545454546,
                "end_time": 2.2886363636363636,
                "pitch": 35,
                "velocity": 80,
                "duration": 0.084090909090909,
                "tempo": 120.0
            },
            {
                "start_time": 2.2886363636363636,
                "end_time": 2.3727272727272726,
                "pitch": 35,
                "velocity": 40,
                "duration": 0.084090909090909,
                "tempo": 120.0
            },
            {
                "start_time": 2.3727272727272726,
                "end_time": 2.4568181818181816,
                "pitch": 37,
                "velocity": 80,
                "duration": 0.084090909090909,
                "tempo": 120.0
            },
            {
                "start_time": 2.459090909090909,
                "end_time": 2.5454545454545454,
                "pitch": 37,
                "velocity": 40,
                "duration": 0.08636363636363642,
                "tempo": 120.0
            },
            {
                "start_time": 2.5454545454545454,
                "end_time": 2.6295454545454544,
                "pitch": 37,
                "velocity": 80,
                "duration": 0.084090909090909,
                "tempo": 120.0
            },
            {
                "start_time": 2.6295454545454544,
                "end_time": 2.7181818181818183,
                "pitch": 37,
                "velocity": 40,
                "duration": 0.08863636363636385,
                "tempo": 120.0
            },
            {
                "start_time": 2.7181818181818183,
                "end_time": 3.0522727272727272,
                "pitch": 38,
                "velocity": 80,
                "duration": 0.334090909090909,
                "tempo": 120.0
            },
            {
                "start_time": 3.0522727272727272,
                "end_time": 3.2249999999999996,
                "pitch": 38,
                "velocity": 32,
                "duration": 0.1727272727272724,
                "tempo": 120.0
            },
            {
                "start_time": 3.2249999999999996,
                "end_time": 3.3977272727272725,
                "pitch": 38,
                "velocity": 80,
                "duration": 0.17272727272727284,
                "tempo": 120.0
            },
            {
                "start_time": 3.3977272727272725,
                "end_time": 3.7318181818181815,
                "pitch": 33,
                "velocity": 80,
                "duration": 0.334090909090909,
                "tempo": 120.0
            },
            {
                "start_time": 3.734090909090909,
                "end_time": 3.9,
                "pitch": 33,
                "velocity": 32,
                "duration": 0.165909090909091,
                "tempo": 120.0
            },
            {
                "start_time": 3.9,
                "end_time": 4.068181818181818,
                "pitch": 33,
                "velocity": 80,
                "duration": 0.16818181818181843,
                "tempo": 120.0
            },
            {
                "start_time": 4.068181818181818,
                "end_time": 4.413636363636363,
                "pitch": 36,
                "velocity": 80,
                "duration": 0.3454545454545448,
                "tempo": 120.0
            },
            {
                "start_time": 4.413636363636363,
                "end_time": 4.579545454545454,
                "pitch": 36,
                "velocity": 32,
                "duration": 0.165909090909091,
                "tempo": 120.0
            },
            {
                "start_time": 4.581818181818182,
                "end_time": 4.747727272727272,
                "pitch": 36,
                "velocity": 80,
                "duration": 0.16590909090909012,
                "tempo": 120.0
            },
            {
                "start_time": 4.75,
                "end_time": 4.915909090909091,
                "pitch": 35,
                "velocity": 80,
                "duration": 0.165909090909091,
                "tempo": 120.0
            },
            {
                "start_time": 4.915909090909091,
                "end_time": 5.084090909090909,
                "pitch": 36,
                "velocity": 80,
                "duration": 0.168181818181818,
                "tempo": 120.0
            },
            {
                "start_time": 5.084090909090909,
                "end_time": 5.429545454545455,
                "pitch": 31,
                "velocity": 80,
                "duration": 0.3454545454545457,
                "tempo": 120.0
            },
            {
                "start_time": 5.429545454545455,
                "end_time": 5.763636363636364,
                "pitch": 38,
                "velocity": 80,
                "duration": 0.334090909090909,
                "tempo": 120.0
            },
            {
                "start_time": 5.763636363636364,
                "end_time": 5.9363636363636365,
                "pitch": 38,
                "velocity": 32,
                "duration": 0.17272727272727284,
                "tempo": 120.0
            },
            {
                "start_time": 5.9363636363636365,
                "end_time": 6.1090909090909085,
                "pitch": 38,
                "velocity": 80,
                "duration": 0.17272727272727195,
                "tempo": 120.0
            },
            {
                "start_time": 6.1090909090909085,
                "end_time": 6.4431818181818175,
                "pitch": 33,
                "velocity": 80,
                "duration": 0.334090909090909,
                "tempo": 120.0
            },
            {
                "start_time": 6.445454545454545,
                "end_time": 6.611363636363636,
                "pitch": 33,
                "velocity": 32,
                "duration": 0.165909090909091,
                "tempo": 120.0
            },
            {
                "start_time": 6.611363636363636,
                "end_time": 6.779545454545454,
                "pitch": 33,
                "velocity": 80,
                "duration": 0.168181818181818,
                "tempo": 120.0
            },
            {
                "start_time": 6.779545454545454,
                "end_time": 7.125,
                "pitch": 36,
                "velocity": 80,
                "duration": 0.3454545454545457,
                "tempo": 120.0
            },
            {
                "start_time": 7.125,
                "end_time": 7.29090909090909,
                "pitch": 35,
                "velocity": 80,
                "duration": 0.16590909090909012,
                "tempo": 120.0
            },
            {
                "start_time": 4.915909090909091,
                "end_time": 7.29090909090909,
                "pitch": 40,
                "velocity": 80,
                "duration": 2.374999999999999,
                "tempo": 120.0
            },
            {
                "start_time": 7.29090909090909,
                "end_time": 7.459090909090909,
                "pitch": 36,
                "velocity": 80,
                "duration": 0.16818181818181888,
                "tempo": 120.0
            },
            {
                "start_time": 7.461363636363636,
                "end_time": 7.631818181818182,
                "pitch": 35,
                "velocity": 80,
                "duration": 0.17045454545454586,
                "tempo": 120.0
            },
            {
                "start_time": 7.29090909090909,
                "end_time": 7.631818181818182,
                "pitch": 40,
                "velocity": 80,
                "duration": 0.3409090909090917,
                "tempo": 120.0
            },
            {
                "start_time": 7.631818181818182,
                "end_time": 7.804545454545454,
                "pitch": 36,
                "velocity": 80,
                "duration": 0.17272727272727195,
                "tempo": 120.0
            },
            {
                "start_time": 7.804545454545454,
                "end_time": 7.886363636363636,
                "pitch": 31,
                "velocity": 80,
                "duration": 0.08181818181818201,
                "tempo": 120.0
            },
            {
                "start_time": 7.886363636363636,
                "end_time": 7.972727272727273,
                "pitch": 31,
                "velocity": 40,
                "duration": 0.08636363636363686,
                "tempo": 120.0
            },
            {
                "start_time": 7.972727272727273,
                "end_time": 8.054545454545455,
                "pitch": 33,
                "velocity": 80,
                "duration": 0.08181818181818201,
                "tempo": 120.0
            },
            {
                "start_time": 8.054545454545455,
                "end_time": 8.14090909090909,
                "pitch": 33,
                "velocity": 40,
                "duration": 0.08636363636363598,
                "tempo": 120.0
            },
            {
                "start_time": 8.14090909090909,
                "end_time": 8.475,
                "pitch": 38,
                "velocity": 80,
                "duration": 0.334090909090909,
                "tempo": 120.0
            },
            {
                "start_time": 8.475,
                "end_time": 8.647727272727272,
                "pitch": 38,
                "velocity": 32,
                "duration": 0.17272727272727195,
                "tempo": 120.0
            },
            {
                "start_time": 8.647727272727272,
                "end_time": 8.818181818181818,
                "pitch": 38,
                "velocity": 80,
                "duration": 0.17045454545454675,
                "tempo": 120.0
            },
            {
                "start_time": 8.820454545454545,
                "end_time": 9.154545454545454,
                "pitch": 33,
                "velocity": 80,
                "duration": 0.334090909090909,
                "tempo": 120.0
            },
            {
                "start_time": 9.154545454545454,
                "end_time": 9.322727272727272,
                "pitch": 33,
                "velocity": 32,
                "duration": 0.168181818181818,
                "tempo": 120.0
            },
            {
                "start_time": 9.322727272727272,
                "end_time": 9.49090909090909,
                "pitch": 33,
                "velocity": 80,
                "duration": 0.168181818181818,
                "tempo": 120.0
            },
            {
                "start_time": 9.49090909090909,
                "end_time": 9.836363636363636,
                "pitch": 36,
                "velocity": 80,
                "duration": 0.3454545454545457,
                "tempo": 120.0
            },
            {
                "start_time": 9.836363636363636,
                "end_time": 10.002272727272727,
                "pitch": 35,
                "velocity": 80,
                "duration": 0.165909090909091,
                "tempo": 120.0
            },
            {
                "start_time": 7.631818181818182,
                "end_time": 10.002272727272727,
                "pitch": 40,
                "velocity": 80,
                "duration": 2.370454545454545,
                "tempo": 120.0
            },
            {
                "start_time": 10.002272727272727,
                "end_time": 10.170454545454545,
                "pitch": 36,
                "velocity": 80,
                "duration": 0.168181818181818,
                "tempo": 120.0
            },
            {
                "start_time": 10.170454545454545,
                "end_time": 10.343181818181817,
                "pitch": 35,
                "velocity": 80,
                "duration": 0.17272727272727195,
                "tempo": 120.0
            },
            {
                "start_time": 10.002272727272727,
                "end_time": 10.343181818181817,
                "pitch": 40,
                "velocity": 80,
                "duration": 0.34090909090908994,
                "tempo": 120.0
            },
            {
                "start_time": 10.343181818181817,
                "end_time": 10.51590909090909,
                "pitch": 36,
                "velocity": 80,
                "duration": 0.17272727272727373,
                "tempo": 120.0
            },
            {
                "start_time": 10.51590909090909,
                "end_time": 10.597727272727273,
                "pitch": 31,
                "velocity": 80,
                "duration": 0.08181818181818201,
                "tempo": 120.0
            },
            {
                "start_time": 10.597727272727273,
                "end_time": 10.681818181818182,
                "pitch": 31,
                "velocity": 40,
                "duration": 0.084090909090909,
                "tempo": 120.0
            },
            {
                "start_time": 10.684090909090909,
                "end_time": 10.76590909090909,
                "pitch": 33,
                "velocity": 80,
                "duration": 0.08181818181818201,
                "tempo": 120.0
            },
            {
                "start_time": 10.76590909090909,
                "end_time": 10.852272727272727,
                "pitch": 33,
                "velocity": 40,
                "duration": 0.08636363636363598,
                "tempo": 120.0
            },
            {
                "start_time": 10.852272727272727,
                "end_time": 11.186363636363636,
                "pitch": 38,
                "velocity": 80,
                "duration": 0.334090909090909,
                "tempo": 120.0
            },
            {
                "start_time": 11.186363636363636,
                "end_time": 11.35681818181818,
                "pitch": 38,
                "velocity": 32,
                "duration": 0.17045454545454497,
                "tempo": 120.0
            },
            {
                "start_time": 11.35909090909091,
                "end_time": 11.529545454545454,
                "pitch": 38,
                "velocity": 80,
                "duration": 0.17045454545454497,
                "tempo": 120.0
            },
            {
                "start_time": 11.531818181818181,
                "end_time": 11.86590909090909,
                "pitch": 33,
                "velocity": 80,
                "duration": 0.334090909090909,
                "tempo": 120.0
            },
            {
                "start_time": 11.86590909090909,
                "end_time": 12.034090909090908,
                "pitch": 33,
                "velocity": 32,
                "duration": 0.168181818181818,
                "tempo": 120.0
            },
            {
                "start_time": 12.034090909090908,
                "end_time": 12.202272727272726,
                "pitch": 33,
                "velocity": 80,
                "duration": 0.168181818181818,
                "tempo": 120.0
            },
            {
                "start_time": 12.202272727272726,
                "end_time": 12.545454545454545,
                "pitch": 36,
                "velocity": 80,
                "duration": 0.3431818181818187,
                "tempo": 120.0
            },
            {
                "start_time": 12.547727272727272,
                "end_time": 12.713636363636363,
                "pitch": 36,
                "velocity": 32,
                "duration": 0.165909090909091,
                "tempo": 120.0
            },
            {
                "start_time": 12.713636363636363,
                "end_time": 12.881818181818181,
                "pitch": 36,
                "velocity": 80,
                "duration": 0.168181818181818,
                "tempo": 120.0
            },
            {
                "start_time": 12.881818181818181,
                "end_time": 13.054545454545455,
                "pitch": 35,
                "velocity": 80,
                "duration": 0.17272727272727373,
                "tempo": 120.0
            },
            {
                "start_time": 10.343181818181817,
                "end_time": 13.054545454545455,
                "pitch": 40,
                "velocity": 80,
                "duration": 2.7113636363636378,
                "tempo": 120.0
            },
            {
                "start_time": 13.054545454545455,
                "end_time": 13.227272727272727,
                "pitch": 36,
                "velocity": 80,
                "duration": 0.17272727272727195,
                "tempo": 120.0
            },
            {
                "start_time": 13.227272727272727,
                "end_time": 13.309090909090909,
                "pitch": 31,
                "velocity": 80,
                "duration": 0.08181818181818201,
                "tempo": 120.0
            },
            {
                "start_time": 13.309090909090909,
                "end_time": 13.393181818181818,
                "pitch": 31,
                "velocity": 40,
                "duration": 0.084090909090909,
                "tempo": 120.0
            },
            {
                "start_time": 13.395454545454545,
                "end_time": 13.477272727272727,
                "pitch": 33,
                "velocity": 80,
                "duration": 0.08181818181818201,
                "tempo": 120.0
            },
            {
                "start_time": 13.477272727272727,
                "end_time": 13.561363636363636,
                "pitch": 33,
                "velocity": 40,
                "duration": 0.084090909090909,
                "tempo": 120.0
            },
            {
                "start_time": 13.561363636363636,
                "end_time": 13.897727272727272,
                "pitch": 38,
                "velocity": 80,
                "duration": 0.336363636363636,
                "tempo": 120.0
            },
            {
                "start_time": 13.897727272727272,
                "end_time": 14.063636363636363,
                "pitch": 38,
                "velocity": 32,
                "duration": 0.165909090909091,
                "tempo": 120.0
            },
            {
                "start_time": 14.06590909090909,
                "end_time": 14.23181818181818,
                "pitch": 38,
                "velocity": 80,
                "duration": 0.165909090909091,
                "tempo": 120.0
            },
            {
                "start_time": 14.234090909090908,
                "end_time": 14.577272727272726,
                "pitch": 33,
                "velocity": 80,
                "duration": 0.3431818181818187,
                "tempo": 120.0
            },
            {
                "start_time": 14.577272727272726,
                "end_time": 14.75,
                "pitch": 33,
                "velocity": 32,
                "duration": 0.17272727272727373,
                "tempo": 120.0
            },
            {
                "start_time": 14.75,
                "end_time": 14.922727272727272,
                "pitch": 33,
                "velocity": 80,
                "duration": 0.17272727272727195,
                "tempo": 120.0
            },
            {
                "start_time": 14.922727272727272,
                "end_time": 15.259090909090908,
                "pitch": 36,
                "velocity": 80,
                "duration": 0.336363636363636,
                "tempo": 120.0
            },
            {
                "start_time": 15.259090909090908,
                "end_time": 15.424999999999999,
                "pitch": 36,
                "velocity": 32,
                "duration": 0.165909090909091,
                "tempo": 120.0
            },
            {
                "start_time": 15.424999999999999,
                "end_time": 15.593181818181817,
                "pitch": 35,
                "velocity": 80,
                "duration": 0.168181818181818,
                "tempo": 120.0
            },
            {
                "start_time": 13.054545454545455,
                "end_time": 15.593181818181817,
                "pitch": 40,
                "velocity": 80,
                "duration": 2.5386363636363622,
                "tempo": 120.0
            },
            {
                "start_time": 15.593181818181817,
                "end_time": 15.76590909090909,
                "pitch": 36,
                "velocity": 80,
                "duration": 0.17272727272727373,
                "tempo": 120.0
            },
            {
                "start_time": 15.76590909090909,
                "end_time": 15.938636363636363,
                "pitch": 35,
                "velocity": 80,
                "duration": 0.17272727272727195,
                "tempo": 120.0
            },
            {
                "start_time": 15.938636363636363,
                "end_time": 16.020454545454545,
                "pitch": 31,
                "velocity": 80,
                "duration": 0.08181818181818201,
                "tempo": 120.0
            },
            {
                "start_time": 16.020454545454545,
                "end_time": 16.104545454545455,
                "pitch": 31,
                "velocity": 40,
                "duration": 0.08409090909091077,
                "tempo": 120.0
            },
            {
                "start_time": 16.104545454545455,
                "end_time": 16.188636363636363,
                "pitch": 33,
                "velocity": 80,
                "duration": 0.08409090909090722,
                "tempo": 120.0
            },
            {
                "start_time": 16.188636363636363,
                "end_time": 16.272727272727273,
                "pitch": 33,
                "velocity": 40,
                "duration": 0.08409090909091077,
                "tempo": 120.0
            },
            {
                "start_time": 16.272727272727273,
                "end_time": 16.60909090909091,
                "pitch": 38,
                "velocity": 80,
                "duration": 0.336363636363636,
                "tempo": 120.0
            },
            {
                "start_time": 16.60909090909091,
                "end_time": 16.78181818181818,
                "pitch": 38,
                "velocity": 32,
                "duration": 0.17272727272727195,
                "tempo": 120.0
            },
            {
                "start_time": 16.78181818181818,
                "end_time": 16.952272727272728,
                "pitch": 38,
                "velocity": 80,
                "duration": 0.17045454545454675,
                "tempo": 120.0
            },
            {
                "start_time": 16.954545454545453,
                "end_time": 17.288636363636364,
                "pitch": 33,
                "velocity": 80,
                "duration": 0.33409090909091077,
                "tempo": 120.0
            },
            {
                "start_time": 17.288636363636364,
                "end_time": 17.456818181818182,
                "pitch": 33,
                "velocity": 32,
                "duration": 0.168181818181818,
                "tempo": 120.0
            },
            {
                "start_time": 17.456818181818182,
                "end_time": 17.625,
                "pitch": 33,
                "velocity": 80,
                "duration": 0.168181818181818,
                "tempo": 120.0
            },
            {
                "start_time": 17.625,
                "end_time": 17.96818181818182,
                "pitch": 36,
                "velocity": 80,
                "duration": 0.3431818181818187,
                "tempo": 120.0
            },
            {
                "start_time": 17.970454545454544,
                "end_time": 18.136363636363637,
                "pitch": 36,
                "velocity": 32,
                "duration": 0.16590909090909278,
                "tempo": 120.0
            },
            {
                "start_time": 18.136363636363637,
                "end_time": 18.304545454545455,
                "pitch": 35,
                "velocity": 80,
                "duration": 0.168181818181818,
                "tempo": 120.0
            },
            {
                "start_time": 15.593181818181817,
                "end_time": 18.304545454545455,
                "pitch": 40,
                "velocity": 80,
                "duration": 2.7113636363636378,
                "tempo": 120.0
            },
            {
                "start_time": 18.304545454545455,
                "end_time": 18.474999999999998,
                "pitch": 36,
                "velocity": 80,
                "duration": 0.1704545454545432,
                "tempo": 120.0
            },
            {
                "start_time": 15.76590909090909,
                "end_time": 18.477272727272727,
                "pitch": 19,
                "velocity": 80,
                "duration": 2.711363636363636,
                "tempo": 120.0
            },
            {
                "start_time": 18.474999999999998,
                "end_time": 18.477272727272727,
                "pitch": 19,
                "velocity": 80,
                "duration": 0.0022727272727287584,
                "tempo": 120.0
            },
            {
                "start_time": 18.477272727272727,
                "end_time": 18.647727272727273,
                "pitch": 35,
                "velocity": 80,
                "duration": 0.17045454545454675,
                "tempo": 120.0
            },
            {
                "start_time": 18.65,
                "end_time": 18.73181818181818,
                "pitch": 31,
                "velocity": 80,
                "duration": 0.08181818181818201,
                "tempo": 120.0
            },
            {
                "start_time": 18.73181818181818,
                "end_time": 18.81590909090909,
                "pitch": 31,
                "velocity": 40,
                "duration": 0.08409090909091077,
                "tempo": 120.0
            },
            {
                "start_time": 18.81590909090909,
                "end_time": 18.9,
                "pitch": 33,
                "velocity": 80,
                "duration": 0.08409090909090722,
                "tempo": 120.0
            },
            {
                "start_time": 18.9,
                "end_time": 18.98409090909091,
                "pitch": 33,
                "velocity": 40,
                "duration": 0.08409090909091077,
                "tempo": 120.0
            },
            {
                "start_time": 18.98409090909091,
                "end_time": 19.320454545454545,
                "pitch": 38,
                "velocity": 80,
                "duration": 0.336363636363636,
                "tempo": 120.0
            },
            {
                "start_time": 19.320454545454545,
                "end_time": 19.49090909090909,
                "pitch": 38,
                "velocity": 32,
                "duration": 0.1704545454545432,
                "tempo": 120.0
            },
            {
                "start_time": 19.493181818181817,
                "end_time": 19.663636363636364,
                "pitch": 38,
                "velocity": 80,
                "duration": 0.17045454545454675,
                "tempo": 120.0
            },
            {
                "start_time": 19.663636363636364,
                "end_time": 20.0,
                "pitch": 33,
                "velocity": 80,
                "duration": 0.336363636363636,
                "tempo": 120.0
            },
            {
                "start_time": 20.0,
                "end_time": 20.16590909090909,
                "pitch": 33,
                "velocity": 32,
                "duration": 0.16590909090908923,
                "tempo": 120.0
            },
            {
                "start_time": 20.168181818181818,
                "end_time": 20.336363636363636,
                "pitch": 33,
                "velocity": 80,
                "duration": 0.168181818181818,
                "tempo": 120.0
            },
            {
                "start_time": 20.336363636363636,
                "end_time": 20.679545454545455,
                "pitch": 36,
                "velocity": 80,
                "duration": 0.3431818181818187,
                "tempo": 120.0
            },
            {
                "start_time": 20.679545454545455,
                "end_time": 20.847727272727273,
                "pitch": 36,
                "velocity": 32,
                "duration": 0.168181818181818,
                "tempo": 120.0
            },
            {
                "start_time": 20.847727272727273,
                "end_time": 21.01590909090909,
                "pitch": 35,
                "velocity": 80,
                "duration": 0.168181818181818,
                "tempo": 120.0
            },
            {
                "start_time": 18.304545454545455,
                "end_time": 21.01590909090909,
                "pitch": 40,
                "velocity": 80,
                "duration": 2.711363636363636,
                "tempo": 120.0
            },
            {
                "start_time": 21.01590909090909,
                "end_time": 21.186363636363634,
                "pitch": 36,
                "velocity": 80,
                "duration": 0.1704545454545432,
                "tempo": 120.0
            },
            {
                "start_time": 21.186363636363634,
                "end_time": 21.35909090909091,
                "pitch": 35,
                "velocity": 80,
                "duration": 0.1727272727272755,
                "tempo": 120.0
            },
            {
                "start_time": 21.35909090909091,
                "end_time": 21.443181818181817,
                "pitch": 31,
                "velocity": 80,
                "duration": 0.08409090909090722,
                "tempo": 120.0
            },
            {
                "start_time": 21.443181818181817,
                "end_time": 21.527272727272727,
                "pitch": 31,
                "velocity": 40,
                "duration": 0.08409090909091077,
                "tempo": 120.0
            },
            {
                "start_time": 21.527272727272727,
                "end_time": 21.60909090909091,
                "pitch": 33,
                "velocity": 80,
                "duration": 0.08181818181818201,
                "tempo": 120.0
            },
            {
                "start_time": 21.611363636363635,
                "end_time": 21.695454545454545,
                "pitch": 33,
                "velocity": 40,
                "duration": 0.08409090909091077,
                "tempo": 120.0
            },
            {
                "start_time": 21.695454545454545,
                "end_time": 22.029545454545453,
                "pitch": 38,
                "velocity": 80,
                "duration": 0.3340909090909072,
                "tempo": 120.0
            },
            {
                "start_time": 22.03181818181818,
                "end_time": 22.202272727272724,
                "pitch": 38,
                "velocity": 32,
                "duration": 0.1704545454545432,
                "tempo": 120.0
            },
            {
                "start_time": 22.202272727272724,
                "end_time": 22.375,
                "pitch": 38,
                "velocity": 80,
                "duration": 0.1727272727272755,
                "tempo": 120.0
            },
            {
                "start_time": 22.375,
                "end_time": 22.711363636363636,
                "pitch": 33,
                "velocity": 80,
                "duration": 0.336363636363636,
                "tempo": 120.0
            },
            {
                "start_time": 22.711363636363636,
                "end_time": 22.877272727272725,
                "pitch": 33,
                "velocity": 32,
                "duration": 0.16590909090908923,
                "tempo": 120.0
            },
            {
                "start_time": 22.877272727272725,
                "end_time": 23.045454545454543,
                "pitch": 33,
                "velocity": 80,
                "duration": 0.168181818181818,
                "tempo": 120.0
            },
            {
                "start_time": 23.047727272727272,
                "end_time": 23.39090909090909,
                "pitch": 36,
                "velocity": 80,
                "duration": 0.3431818181818187,
                "tempo": 120.0
            },
            {
                "start_time": 23.39090909090909,
                "end_time": 23.55909090909091,
                "pitch": 36,
                "velocity": 32,
                "duration": 0.168181818181818,
                "tempo": 120.0
            },
            {
                "start_time": 23.55909090909091,
                "end_time": 23.727272727272727,
                "pitch": 35,
                "velocity": 80,
                "duration": 0.168181818181818,
                "tempo": 120.0
            },
            {
                "start_time": 21.01590909090909,
                "end_time": 23.727272727272727,
                "pitch": 40,
                "velocity": 80,
                "duration": 2.711363636363636,
                "tempo": 120.0
            },
            {
                "start_time": 21.186363636363634,
                "end_time": 23.89772727272727,
                "pitch": 19,
                "velocity": 80,
                "duration": 2.711363636363636,
                "tempo": 120.0
            },
            {
                "start_time": 23.727272727272727,
                "end_time": 23.89772727272727,
                "pitch": 36,
                "velocity": 80,
                "duration": 0.1704545454545432,
                "tempo": 120.0
            },
            {
                "start_time": 23.89772727272727,
                "end_time": 24.070454545454545,
                "pitch": 35,
                "velocity": 80,
                "duration": 0.1727272727272755,
                "tempo": 120.0
            },
            {
                "start_time": 24.070454545454545,
                "end_time": 24.154545454545453,
                "pitch": 31,
                "velocity": 80,
                "duration": 0.08409090909090722,
                "tempo": 120.0
            },
            {
                "start_time": 24.154545454545453,
                "end_time": 24.238636363636363,
                "pitch": 31,
                "velocity": 40,
                "duration": 0.08409090909091077,
                "tempo": 120.0
            },
            {
                "start_time": 24.238636363636363,
                "end_time": 24.320454545454545,
                "pitch": 33,
                "velocity": 80,
                "duration": 0.08181818181818201,
                "tempo": 120.0
            },
            {
                "start_time": 24.320454545454545,
                "end_time": 24.40681818181818,
                "pitch": 33,
                "velocity": 40,
                "duration": 0.08636363636363598,
                "tempo": 120.0
            },
            {
                "start_time": 24.409090909090907,
                "end_time": 24.74090909090909,
                "pitch": 38,
                "velocity": 80,
                "duration": 0.331818181818182,
                "tempo": 120.0
            },
            {
                "start_time": 24.74090909090909,
                "end_time": 24.827272727272724,
                "pitch": 38,
                "velocity": 80,
                "duration": 0.08636363636363598,
                "tempo": 120.0
            },
            {
                "start_time": 24.827272727272724,
                "end_time": 24.913636363636364,
                "pitch": 38,
                "velocity": 40,
                "duration": 0.08636363636363953,
                "tempo": 120.0
            },
            {
                "start_time": 24.91590909090909,
                "end_time": 25.254545454545454,
                "pitch": 33,
                "velocity": 80,
                "duration": 0.33863636363636473,
                "tempo": 120.0
            },
            {
                "start_time": 25.254545454545454,
                "end_time": 25.336363636363636,
                "pitch": 38,
                "velocity": 80,
                "duration": 0.08181818181818201,
                "tempo": 120.0
            },
            {
                "start_time": 25.336363636363636,
                "end_time": 25.422727272727272,
                "pitch": 38,
                "velocity": 40,
                "duration": 0.08636363636363598,
                "tempo": 120.0
            },
            {
                "start_time": 25.422727272727272,
                "end_time": 25.50681818181818,
                "pitch": 36,
                "velocity": 80,
                "duration": 0.08409090909090722,
                "tempo": 120.0
            },
            {
                "start_time": 25.50681818181818,
                "end_time": 25.595454545454544,
                "pitch": 36,
                "velocity": 40,
                "duration": 0.08863636363636473,
                "tempo": 120.0
            },
            {
                "start_time": 25.595454545454544,
                "end_time": 25.679545454545455,
                "pitch": 35,
                "velocity": 80,
                "duration": 0.08409090909091077,
                "tempo": 120.0
            },
            {
                "start_time": 25.679545454545455,
                "end_time": 25.76590909090909,
                "pitch": 35,
                "velocity": 40,
                "duration": 0.08636363636363598,
                "tempo": 120.0
            },
            {
                "start_time": 25.768181818181816,
                "end_time": 26.102272727272727,
                "pitch": 38,
                "velocity": 80,
                "duration": 0.33409090909091077,
                "tempo": 120.0
            },
            {
                "start_time": 26.102272727272727,
                "end_time": 26.18409090909091,
                "pitch": 38,
                "velocity": 80,
                "duration": 0.08181818181818201,
                "tempo": 120.0
            },
            {
                "start_time": 26.18409090909091,
                "end_time": 26.270454545454545,
                "pitch": 38,
                "velocity": 40,
                "duration": 0.08636363636363598,
                "tempo": 120.0
            },
            {
                "start_time": 26.270454545454545,
                "end_time": 26.60909090909091,
                "pitch": 33,
                "velocity": 80,
                "duration": 0.33863636363636473,
                "tempo": 120.0
            },
            {
                "start_time": 26.60909090909091,
                "end_time": 26.94772727272727,
                "pitch": 31,
                "velocity": 80,
                "duration": 0.3386363636363612,
                "tempo": 120.0
            },
            {
                "start_time": 26.95,
                "end_time": 27.118181818181817,
                "pitch": 33,
                "velocity": 80,
                "duration": 0.168181818181818,
                "tempo": 120.0
            },
            {
                "start_time": 27.118181818181817,
                "end_time": 27.452272727272724,
                "pitch": 38,
                "velocity": 80,
                "duration": 0.3340909090909072,
                "tempo": 120.0
            },
            {
                "start_time": 27.452272727272724,
                "end_time": 27.536363636363635,
                "pitch": 38,
                "velocity": 80,
                "duration": 0.08409090909091077,
                "tempo": 120.0
            },
            {
                "start_time": 27.538636363636364,
                "end_time": 27.625,
                "pitch": 38,
                "velocity": 40,
                "duration": 0.08636363636363598,
                "tempo": 120.0
            },
            {
                "start_time": 27.625,
                "end_time": 27.96590909090909,
                "pitch": 33,
                "velocity": 80,
                "duration": 0.34090909090908994,
                "tempo": 120.0
            },
            {
                "start_time": 27.96590909090909,
                "end_time": 28.047727272727272,
                "pitch": 38,
                "velocity": 80,
                "duration": 0.08181818181818201,
                "tempo": 120.0
            },
            {
                "start_time": 28.047727272727272,
                "end_time": 28.134090909090908,
                "pitch": 38,
                "velocity": 40,
                "duration": 0.08636363636363598,
                "tempo": 120.0
            },
            {
                "start_time": 28.134090909090908,
                "end_time": 28.218181818181815,
                "pitch": 36,
                "velocity": 80,
                "duration": 0.08409090909090722,
                "tempo": 120.0
            },
            {
                "start_time": 28.218181818181815,
                "end_time": 28.304545454545455,
                "pitch": 36,
                "velocity": 40,
                "duration": 0.08636363636363953,
                "tempo": 120.0
            },
            {
                "start_time": 28.30681818181818,
                "end_time": 28.39090909090909,
                "pitch": 35,
                "velocity": 80,
                "duration": 0.08409090909091077,
                "tempo": 120.0
            },
            {
                "start_time": 28.39090909090909,
                "end_time": 28.477272727272727,
                "pitch": 35,
                "velocity": 40,
                "duration": 0.08636363636363598,
                "tempo": 120.0
            },
            {
                "start_time": 28.477272727272727,
                "end_time": 28.55909090909091,
                "pitch": 38,
                "velocity": 80,
                "duration": 0.08181818181818201,
                "tempo": 120.0
            },
            {
                "start_time": 28.561363636363634,
                "end_time": 28.645454545454545,
                "pitch": 38,
                "velocity": 40,
                "duration": 0.08409090909091077,
                "tempo": 120.0
            },
            {
                "start_time": 28.645454545454545,
                "end_time": 28.727272727272727,
                "pitch": 38,
                "velocity": 80,
                "duration": 0.08181818181818201,
                "tempo": 120.0
            },
            {
                "start_time": 28.727272727272727,
                "end_time": 28.813636363636363,
                "pitch": 38,
                "velocity": 40,
                "duration": 0.08636363636363598,
                "tempo": 120.0
            },
            {
                "start_time": 28.813636363636363,
                "end_time": 28.895454545454545,
                "pitch": 33,
                "velocity": 80,
                "duration": 0.08181818181818201,
                "tempo": 120.0
            },
            {
                "start_time": 28.895454545454545,
                "end_time": 28.98181818181818,
                "pitch": 33,
                "velocity": 40,
                "duration": 0.08636363636363598,
                "tempo": 120.0
            },
            {
                "start_time": 28.98181818181818,
                "end_time": 29.14772727272727,
                "pitch": 38,
                "velocity": 80,
                "duration": 0.16590909090908923,
                "tempo": 120.0
            },
            {
                "start_time": 29.14772727272727,
                "end_time": 29.320454545454545,
                "pitch": 38,
                "velocity": 40,
                "duration": 0.1727272727272755,
                "tempo": 120.0
            },
            {
                "start_time": 29.829545454545453,
                "end_time": 30.16363636363636,
                "pitch": 38,
                "velocity": 80,
                "duration": 0.3340909090909072,
                "tempo": 120.0
            },
            {
                "start_time": 30.16363636363636,
                "end_time": 30.336363636363636,
                "pitch": 38,
                "velocity": 32,
                "duration": 0.1727272727272755,
                "tempo": 120.0
            },
            {
                "start_time": 30.336363636363636,
                "end_time": 30.50681818181818,
                "pitch": 38,
                "velocity": 80,
                "duration": 0.1704545454545432,
                "tempo": 120.0
            },
            {
                "start_time": 30.50681818181818,
                "end_time": 30.843181818181815,
                "pitch": 33,
                "velocity": 80,
                "duration": 0.336363636363636,
                "tempo": 120.0
            },
            {
                "start_time": 30.843181818181815,
                "end_time": 31.011363636363633,
                "pitch": 33,
                "velocity": 32,
                "duration": 0.168181818181818,
                "tempo": 120.0
            },
            {
                "start_time": 31.011363636363633,
                "end_time": 31.179545454545455,
                "pitch": 33,
                "velocity": 80,
                "duration": 0.16818181818182154,
                "tempo": 120.0
            },
            {
                "start_time": 31.179545454545455,
                "end_time": 31.525,
                "pitch": 36,
                "velocity": 80,
                "duration": 0.3454545454545439,
                "tempo": 120.0
            },
            {
                "start_time": 31.525,
                "end_time": 31.690909090909088,
                "pitch": 36,
                "velocity": 32,
                "duration": 0.16590909090908923,
                "tempo": 120.0
            },
            {
                "start_time": 31.690909090909088,
                "end_time": 31.859090909090906,
                "pitch": 36,
                "velocity": 80,
                "duration": 0.168181818181818,
                "tempo": 120.0
            },
            {
                "start_time": 31.859090909090906,
                "end_time": 32.029545454545456,
                "pitch": 35,
                "velocity": 80,
                "duration": 0.1704545454545503,
                "tempo": 120.0
            },
            {
                "start_time": 23.727272727272727,
                "end_time": 32.029545454545456,
                "pitch": 40,
                "velocity": 80,
                "duration": 8.30227272727273,
                "tempo": 120.0
            },
            {
                "start_time": 32.029545454545456,
                "end_time": 32.20454545454545,
                "pitch": 36,
                "velocity": 80,
                "duration": 0.17499999999999716,
                "tempo": 120.0
            },
            {
                "start_time": 32.20454545454545,
                "end_time": 32.538636363636364,
                "pitch": 31,
                "velocity": 80,
                "duration": 0.33409090909091077,
                "tempo": 120.0
            },
            {
                "start_time": 32.54090909090909,
                "end_time": 32.87272727272727,
                "pitch": 38,
                "velocity": 80,
                "duration": 0.33181818181817846,
                "tempo": 120.0
            },
            {
                "start_time": 32.875,
                "end_time": 33.04545454545455,
                "pitch": 38,
                "velocity": 32,
                "duration": 0.17045454545454675,
                "tempo": 120.0
            },
            {
                "start_time": 33.04772727272727,
                "end_time": 33.21818181818182,
                "pitch": 38,
                "velocity": 80,
                "duration": 0.17045454545454675,
                "tempo": 120.0
            },
            {
                "start_time": 33.21818181818182,
                "end_time": 33.554545454545455,
                "pitch": 33,
                "velocity": 80,
                "duration": 0.336363636363636,
                "tempo": 120.0
            },
            {
                "start_time": 33.554545454545455,
                "end_time": 33.720454545454544,
                "pitch": 33,
                "velocity": 32,
                "duration": 0.16590909090908923,
                "tempo": 120.0
            },
            {
                "start_time": 33.72272727272727,
                "end_time": 33.89090909090909,
                "pitch": 33,
                "velocity": 80,
                "duration": 0.16818181818182154,
                "tempo": 120.0
            },
            {
                "start_time": 33.89090909090909,
                "end_time": 34.23409090909091,
                "pitch": 36,
                "velocity": 80,
                "duration": 0.3431818181818187,
                "tempo": 120.0
            },
            {
                "start_time": 34.23409090909091,
                "end_time": 34.402272727272724,
                "pitch": 35,
                "velocity": 80,
                "duration": 0.16818181818181444,
                "tempo": 120.0
            },
            {
                "start_time": 32.029545454545456,
                "end_time": 34.402272727272724,
                "pitch": 40,
                "velocity": 80,
                "duration": 2.3727272727272677,
                "tempo": 120.0
            },
            {
                "start_time": 34.402272727272724,
                "end_time": 34.570454545454545,
                "pitch": 36,
                "velocity": 80,
                "duration": 0.16818181818182154,
                "tempo": 120.0
            },
            {
                "start_time": 34.570454545454545,
                "end_time": 34.74090909090909,
                "pitch": 35,
                "velocity": 80,
                "duration": 0.17045454545454675,
                "tempo": 120.0
            },
            {
                "start_time": 34.402272727272724,
                "end_time": 34.74090909090909,
                "pitch": 40,
                "velocity": 80,
                "duration": 0.3386363636363683,
                "tempo": 120.0
            },
            {
                "start_time": 34.74090909090909,
                "end_time": 34.91590909090909,
                "pitch": 36,
                "velocity": 80,
                "duration": 0.17499999999999716,
                "tempo": 120.0
            },
            {
                "start_time": 34.91590909090909,
                "end_time": 34.99772727272727,
                "pitch": 31,
                "velocity": 80,
                "duration": 0.08181818181817846,
                "tempo": 120.0
            },
            {
                "start_time": 34.99772727272727,
                "end_time": 35.08181818181818,
                "pitch": 31,
                "velocity": 40,
                "duration": 0.08409090909091077,
                "tempo": 120.0
            },
            {
                "start_time": 35.08181818181818,
                "end_time": 35.16590909090909,
                "pitch": 33,
                "velocity": 80,
                "duration": 0.08409090909091077,
                "tempo": 120.0
            },
            {
                "start_time": 35.16590909090909,
                "end_time": 35.25,
                "pitch": 33,
                "velocity": 40,
                "duration": 0.08409090909091077,
                "tempo": 120.0
            },
            {
                "start_time": 35.25,
                "end_time": 35.58409090909091,
                "pitch": 38,
                "velocity": 80,
                "duration": 0.33409090909091077,
                "tempo": 120.0
            },
            {
                "start_time": 35.58409090909091,
                "end_time": 35.75681818181818,
                "pitch": 38,
                "velocity": 32,
                "duration": 0.17272727272727195,
                "tempo": 120.0
            },
            {
                "start_time": 35.75681818181818,
                "end_time": 35.929545454545455,
                "pitch": 38,
                "velocity": 80,
                "duration": 0.17272727272727195,
                "tempo": 120.0
            },
            {
                "start_time": 35.929545454545455,
                "end_time": 36.26590909090909,
                "pitch": 33,
                "velocity": 80,
                "duration": 0.336363636363636,
                "tempo": 120.0
            },
            {
                "start_time": 36.26590909090909,
                "end_time": 36.43181818181818,
                "pitch": 33,
                "velocity": 32,
                "duration": 0.16590909090908923,
                "tempo": 120.0
            },
            {
                "start_time": 36.43181818181818,
                "end_time": 36.6,
                "pitch": 33,
                "velocity": 80,
                "duration": 0.16818181818182154,
                "tempo": 120.0
            },
            {
                "start_time": 36.60227272727273,
                "end_time": 36.945454545454545,
                "pitch": 36,
                "velocity": 80,
                "duration": 0.3431818181818187,
                "tempo": 120.0
            },
            {
                "start_time": 36.945454545454545,
                "end_time": 37.11363636363636,
                "pitch": 35,
                "velocity": 80,
                "duration": 0.16818181818181444,
                "tempo": 120.0
            },
            {
                "start_time": 34.74090909090909,
                "end_time": 37.11363636363636,
                "pitch": 40,
                "velocity": 80,
                "duration": 2.3727272727272677,
                "tempo": 120.0
            },
            {
                "start_time": 37.11363636363636,
                "end_time": 37.28181818181818,
                "pitch": 36,
                "velocity": 80,
                "duration": 0.16818181818182154,
                "tempo": 120.0
            },
            {
                "start_time": 37.28181818181818,
                "end_time": 37.45227272727273,
                "pitch": 35,
                "velocity": 80,
                "duration": 0.17045454545454675,
                "tempo": 120.0
            },
            {
                "start_time": 37.11363636363636,
                "end_time": 37.45227272727273,
                "pitch": 40,
                "velocity": 80,
                "duration": 0.3386363636363683,
                "tempo": 120.0
            },
            {
                "start_time": 37.45227272727273,
                "end_time": 37.625,
                "pitch": 36,
                "velocity": 80,
                "duration": 0.17272727272727195,
                "tempo": 120.0
            },
            {
                "start_time": 37.627272727272725,
                "end_time": 37.70909090909091,
                "pitch": 31,
                "velocity": 80,
                "duration": 0.08181818181818556,
                "tempo": 120.0
            },
            {
                "start_time": 37.70909090909091,
                "end_time": 37.793181818181814,
                "pitch": 31,
                "velocity": 40,
                "duration": 0.08409090909090366,
                "tempo": 120.0
            },
            {
                "start_time": 37.793181818181814,
                "end_time": 37.875,
                "pitch": 33,
                "velocity": 80,
                "duration": 0.08181818181818556,
                "tempo": 120.0
            },
            {
                "start_time": 37.877272727272725,
                "end_time": 37.961363636363636,
                "pitch": 33,
                "velocity": 40,
                "duration": 0.08409090909091077,
                "tempo": 120.0
            },
            {
                "start_time": 37.961363636363636,
                "end_time": 38.304545454545455,
                "pitch": 38,
                "velocity": 80,
                "duration": 0.3431818181818187,
                "tempo": 120.0
            },
            {
                "start_time": 38.304545454545455,
                "end_time": 38.47272727272727,
                "pitch": 38,
                "velocity": 32,
                "duration": 0.16818181818181444,
                "tempo": 120.0
            },
            {
                "start_time": 38.47272727272727,
                "end_time": 38.64090909090909,
                "pitch": 38,
                "velocity": 80,
                "duration": 0.16818181818182154,
                "tempo": 120.0
            },
            {
                "start_time": 38.64090909090909,
                "end_time": 38.975,
                "pitch": 33,
                "velocity": 80,
                "duration": 0.33409090909091077,
                "tempo": 120.0
            },
            {
                "start_time": 38.975,
                "end_time": 39.143181818181816,
                "pitch": 33,
                "velocity": 32,
                "duration": 0.16818181818181444,
                "tempo": 120.0
            },
            {
                "start_time": 39.143181818181816,
                "end_time": 39.31136363636364,
                "pitch": 33,
                "velocity": 80,
                "duration": 0.16818181818182154,
                "tempo": 120.0
            },
            {
                "start_time": 39.31136363636364,
                "end_time": 39.65681818181818,
                "pitch": 36,
                "velocity": 80,
                "duration": 0.3454545454545439,
                "tempo": 120.0
            },
            {
                "start_time": 39.65681818181818,
                "end_time": 39.824999999999996,
                "pitch": 36,
                "velocity": 32,
                "duration": 0.16818181818181444,
                "tempo": 120.0
            },
            {
                "start_time": 39.824999999999996,
                "end_time": 39.99090909090909,
                "pitch": 36,
                "velocity": 80,
                "duration": 0.16590909090909634,
                "tempo": 120.0
            },
            {
                "start_time": 39.99318181818182,
                "end_time": 40.163636363636364,
                "pitch": 35,
                "velocity": 80,
                "duration": 0.17045454545454675,
                "tempo": 120.0
            },
            {
                "start_time": 37.45227272727273,
                "end_time": 40.163636363636364,
                "pitch": 40,
                "velocity": 80,
                "duration": 2.711363636363636,
                "tempo": 120.0
            },
            {
                "start_time": 40.163636363636364,
                "end_time": 40.336363636363636,
                "pitch": 36,
                "velocity": 80,
                "duration": 0.17272727272727195,
                "tempo": 120.0
            },
            {
                "start_time": 40.336363636363636,
                "end_time": 40.42045454545455,
                "pitch": 31,
                "velocity": 80,
                "duration": 0.08409090909091077,
                "tempo": 120.0
            },
            {
                "start_time": 40.42045454545455,
                "end_time": 40.50454545454545,
                "pitch": 31,
                "velocity": 40,
                "duration": 0.08409090909090366,
                "tempo": 120.0
            },
            {
                "start_time": 40.50454545454545,
                "end_time": 40.586363636363636,
                "pitch": 33,
                "velocity": 80,
                "duration": 0.08181818181818556,
                "tempo": 120.0
            },
            {
                "start_time": 40.58863636363636,
                "end_time": 40.67272727272727,
                "pitch": 33,
                "velocity": 40,
                "duration": 0.08409090909091077,
                "tempo": 120.0
            },
            {
                "start_time": 40.67272727272727,
                "end_time": 41.01590909090909,
                "pitch": 38,
                "velocity": 80,
                "duration": 0.3431818181818187,
                "tempo": 120.0
            },
            {
                "start_time": 41.018181818181816,
                "end_time": 41.15,
                "pitch": 38,
                "velocity": 32,
                "duration": 0.13181818181818272,
                "tempo": 120.0
            }
        ]
    }
}