{
    "track_id": "11_Complete",
    "mood": "happy",
    "instruments": {
        "Trumpet": [
            {
                "start_time": 0.05227272727272727,
                "end_time": 0.8659090909090909,
                "pitch": 69,
                "velocity": 127,
                "duration": 0.8136363636363636,
                "tempo": 120.0
            },
            {
                "start_time": 0.8659090909090909,
                "end_time": 1.0272727272727271,
                "pitch": 71,
                "velocity": 127,
                "duration": 0.16136363636363626,
                "tempo": 120.0
            },
            {
                "start_time": 1.0272727272727271,
                "end_time": 1.190909090909091,
                "pitch": 72,
                "velocity": 127,
                "duration": 0.1636363636363638,
                "tempo": 120.0
            },
            {
                "start_time": 1.190909090909091,
                "end_time": 1.3545454545454545,
                "pitch": 74,
                "velocity": 127,
                "duration": 0.16363636363636358,
                "tempo": 120.0
            },
            {
                "start_time": 1.190909090909091,
                "end_time": 1.3545454545454545,
                "pitch": 74,
                "velocity": 127,
                "duration": 0.16363636363636358,
                "tempo": 120.0
            },
            {
                "start_time": 1.3545454545454545,
                "end_time": 1.434090909090909,
                "pitch": 76,
                "velocity": 127,
                "duration": 0.07954545454545459,
                "tempo": 120.0
            },
            {
                "start_time": 1.5159090909090909,
                "end_time": 1.5977272727272727,
                "pitch": 76,
                "velocity": 127,
                "duration": 0.08181818181818179,
                "tempo": 120.0
            },
            {
                "start_time": 1.6795454545454545,
                "end_time": 1.759090909090909,
                "pitch": 76,
                "velocity": 127,
                "duration": 0.07954545454545459,
                "tempo": 120.0
            },
            {
                "start_time": 1.8409090909090908,
                "end_time": 2.318181818181818,
                "pitch": 74,
                "velocity": 127,
                "duration": 0.47727272727272707,
                "tempo": 120.0
            },
            {
                "start_time": 2.318181818181818,
                "end_time": 2.634090909090909,
                "pitch": 71,
                "velocity": 127,
                "duration": 0.3159090909090909,
                "tempo": 120.0
            },
            {
                "start_time": 2.634090909090909,
                "end_time": 5.095454545454545,
                "pitch": 69,
                "velocity": 127,
                "duration": 2.461363636363636,
                "tempo": 120.0
            },
            {
                "start_time": 2.634090909090909,
                "end_time": 5.095454545454545,
                "pitch": 69,
                "velocity": 127,
                "duration": 2.461363636363636,
                "tempo": 120.0
            }
        ],
        "Acoustic Bass": [
            {
                "start_time": 0.05454545454545454,
                "end_time": 0.2159090909090909,
                "pitch": 33,
                "velocity": 127,
                "duration": 0.16136363636363638,
                "tempo": 120.0
            },
            {
                "start_time": 0.2159090909090909,
                "end_time": 0.3795454545454545,
                "pitch": 33,
                "velocity": 127,
                "duration": 0.1636363636363636,
                "tempo": 120.0
            },
            {
                "start_time": 0.3795454545454545,
                "end_time": 0.5409090909090909,
                "pitch": 33,
                "velocity": 127,
                "duration": 0.16136363636363638,
                "tempo": 120.0
            },
            {
                "start_time": 0.5409090909090909,
                "end_time": 0.7045454545454545,
                "pitch": 33,
                "velocity": 127,
                "duration": 0.16363636363636358,
                "tempo": 120.0
            },
            {
                "start_time": 0.7045454545454545,
                "end_time": 0.8659090909090909,
                "pitch": 33,
                "velocity": 127,
                "duration": 0.16136363636363638,
                "tempo": 120.0
            },
            {
                "start_time": 0.8659090909090909,
                "end_time": 1.0295454545454545,
                "pitch": 33,
                "velocity": 127,
                "duration": 0.1636363636363637,
                "tempo": 120.0
            },
            {
                "start_time": 1.0295454545454545,
                "end_time": 1.190909090909091,
                "pitch": 33,
                "velocity": 127,
                "duration": 0.16136363636363638,
                "tempo": 120.0
            },
            {
                "start_time": 1.190909090909091,
                "end_time": 1.3545454545454545,
                "pitch": 33,
                "velocity": 127,
                "duration": 0.16363636363636358,
                "tempo": 120.0
            },
            {
                "start_time": 1.3545454545454545,
                "end_time": 1.5159090909090909,
                "pitch": 36,
                "velocity": 127,
                "duration": 0.16136363636363638,
                "tempo": 120.0
            },
            {
                "start_time": 1.5159090909090909,
                "end_time": 1.6795454545454545,
                "pitch": 36,
                "velocity": 127,
                "duration": 0.16363636363636358,
                "tempo": 120.0
            },
            {
                "start_time": 1.6795454545454545,
                "end_time": 1.8409090909090908,
                "pitch": 36,
                "velocity": 127,
                "duration": 0.16136363636363638,
                "tempo": 120.0
            },
            {
                "start_time": 1.8409090909090908,
                "end_time": 2.0045454545454544,
                "pitch": 36,
                "velocity": 127,
                "duration": 0.16363636363636358,
                "tempo": 120.0
            },
            {
                "start_time": 2.0045454545454544,
                "end_time": 2.161363636363636,
                "pitch": 31,
                "velocity": 127,
                "duration": 0.15681818181818175,
                "tempo": 120.0
            },
            {
                "start_time": 2.161363636363636,
                "end_time": 2.318181818181818,
                "pitch": 31,
                "velocity": 127,
                "duration": 0.15681818181818175,
                "tempo": 120.0
            },
            {
                "start_time": 2.318181818181818,
                "end_time": 2.477272727272727,
                "pitch": 31,
                "velocity": 127,
                "duration": 0.15909090909090917,
                "tempo": 120.0
            },
            {
                "start_time": 2.477272727272727,
                "end_time": 2.634090909090909,
                "pitch": 31,
                "velocity": 127,
                "duration": 0.15681818181818175,
                "tempo": 120.0
            },
            {
                "start_time": 2.634090909090909,
                "end_time": 2.7909090909090906,
                "pitch": 33,
                "velocity": 127,
                "duration": 0.15681818181818175,
                "tempo": 120.0
            },
            {
                "start_time": 2.634090909090909,
                "end_time": 2.7909090909090906,
                "pitch": 33,
                "velocity": 127,
                "duration": 0.15681818181818175,
                "tempo": 120.0
            },
            {
                "start_time": 2.7909090909090906,
                "end_time": 3.1068181818181815,
                "pitch": 45,
                "velocity": 127,
                "duration": 0.3159090909090909,
                "tempo": 120.0
            },
            {
                "start_time": 3.1068181818181815,
                "end_time": 5.172727272727273,
                "pitch": 33,
                "velocity": 127,
                "duration": 2.0659090909090914,
                "tempo": 120.0
            }
        ],
        "Lead 2 (sawtooth)": [
            {
                "start_time": 0.05454545454545454,
                "end_time": 0.5409090909090909,
                "pitch": 64,
                "velocity": 101,
                "duration": 0.48636363636363633,
                "tempo": 120.0
            },
            {
                "start_time": 0.5409090909090909,
                "end_time": 1.0295454545454545,
                "pitch": 64,
                "velocity": 101,
                "duration": 0.48863636363636365,
                "tempo": 120.0
            },
            {
                "start_time": 1.0295454545454545,
                "end_time": 1.3545454545454545,
                "pitch": 64,
                "velocity": 101,
                "duration": 0.32499999999999996,
                "tempo": 120.0
            },
            {
                "start_time": 1.3545454545454545,
                "end_time": 1.8409090909090908,
                "pitch": 60,
                "velocity": 101,
                "duration": 0.48636363636363633,
                "tempo": 120.0
            },
            {
                "start_time": 1.3545454545454545,
                "end_time": 1.8409090909090908,
                "pitch": 60,
                "velocity": 101,
                "duration": 0.48636363636363633,
                "tempo": 120.0
            },
            {
                "start_time": 1.8409090909090908,
                "end_time": 2.318181818181818,
                "pitch": 59,
                "velocity": 101,
                "duration": 0.47727272727272707,
                "tempo": 120.0
            },
            {
                "start_time": 2.3204545454545453,
                "end_time": 2.634090909090909,
                "pitch": 64,
                "velocity": 101,
                "duration": 0.3136363636363635,
                "tempo": 120.0
            },
            {
                "start_time": 2.634090909090909,
                "end_time": 5.018181818181818,
                "pitch": 64,
                "velocity": 101,
                "duration": 2.384090909090909,
                "tempo": 120.0
            }
        ],
        "Electric Piano 1": [
            {
                "start_time": 0.05454545454545454,
                "end_time": 0.2159090909090909,
                "pitch": 33,
                "velocity": 127,
                "duration": 0.16136363636363638,
                "tempo": 120.0
            },
            {
                "start_time": 0.2159090909090909,
                "end_time": 0.3795454545454545,
                "pitch": 33,
                "velocity": 127,
                "duration": 0.1636363636363636,
                "tempo": 120.0
            },
            {
                "start_time": 0.3795454545454545,
                "end_time": 0.5409090909090909,
                "pitch": 45,
                "velocity": 127,
                "duration": 0.16136363636363638,
                "tempo": 120.0
            },
            {
                "start_time": 0.5409090909090909,
                "end_time": 0.7045454545454545,
                "pitch": 33,
                "velocity": 127,
                "duration": 0.16363636363636358,
                "tempo": 120.0
            },
            {
                "start_time": 0.7045454545454545,
                "end_time": 0.8659090909090909,
                "pitch": 33,
                "velocity": 127,
                "duration": 0.16136363636363638,
                "tempo": 120.0
            },
            {
                "start_time": 0.8659090909090909,
                "end_time": 1.0295454545454545,
                "pitch": 33,
                "velocity": 127,
                "duration": 0.1636363636363637,
                "tempo": 120.0
            },
            {
                "start_time": 1.0295454545454545,
                "end_time": 1.190909090909091,
                "pitch": 33,
                "velocity": 127,
                "duration": 0.16136363636363638,
                "tempo": 120.0
            },
            {
                "start_time": 1.190909090909091,
                "end_time": 1.3545454545454545,
                "pitch": 45,
                "velocity": 127,
                "duration": 0.16363636363636358,
                "tempo": 120.0
            },
            {
                "start_time": 1.3545454545454545,
                "end_time": 1.5159090909090909,
                "pitch": 36,
                "velocity": 127,
                "duration": 0.16136363636363638,
                "tempo": 120.0
            },
            {
                "start_time": 1.5159090909090909,
                "end_time": 1.6795454545454545,
                "pitch": 36,
                "velocity": 127,
                "duration": 0.16363636363636358,
                "tempo": 120.0
            },
            {
                "start_time": 1.6795454545454545,
                "end_time": 1.843181818181818,
                "pitch": 36,
                "velocity": 127,
                "duration": 0.16363636363636358,
                "tempo": 120.0
            },
            {
                "start_time": 1.843181818181818,
                "end_time": 2.0045454545454544,
                "pitch": 36,
                "velocity": 127,
                "duration": 0.16136363636363638,
                "tempo": 120.0
            },
            {
                "start_time": 2.0045454545454544,
                "end_time": 2.161363636363636,
                "pitch": 31,
                "velocity": 127,
                "duration": 0.15681818181818175,
                "tempo": 120.0
            },
            {
                "start_time": 2.161363636363636,
                "end_time": 2.3204545454545453,
                "pitch": 31,
                "velocity": 127,
                "duration": 0.15909090909090917,
                "tempo": 120.0
            },
            {
                "start_time": 2.3204545454545453,
                "end_time": 2.477272727272727,
                "pitch": 31,
                "velocity": 127,
                "duration": 0.15681818181818175,
                "tempo": 120.0
            },
            {
                "start_time": 2.477272727272727,
                "end_time": 2.634090909090909,
                "pitch": 43,
                "velocity": 127,
                "duration": 0.15681818181818175,
                "tempo": 120.0
            },
            {
                "start_time": 2.634090909090909,
                "end_time": 2.7909090909090906,
                "pitch": 33,
                "velocity": 127,
                "duration": 0.15681818181818175,
                "tempo": 120.0
            },
            {
                "start_time": 2.634090909090909,
                "end_time": 3.1068181818181815,
                "pitch": 45,
                "velocity": 127,
                "duration": 0.47272727272727266,
                "tempo": 120.0
            },
            {
                "start_time": 2.7909090909090906,
                "end_time": 3.1068181818181815,
                "pitch": 45,
                "velocity": 127,
                "duration": 0.3159090909090909,
                "tempo": 120.0
            },
            {
                "start_time": 3.1068181818181815,
                "end_time": 5.172727272727273,
                "pitch": 33,
                "velocity": 127,
                "duration": 2.0659090909090914,
                "tempo": 120.0
            }
        ]
    }
}