{
    "track_id": "13 Area-6 (What_s Goin_on in the Chase)",
    "mood": "happy",
    "instruments": {
        "Electric Piano 1": [
            {
                "start_time": 5.9363636363636365,
                "end_time": 6.252272727272727,
                "pitch": 38,
                "velocity": 80,
                "duration": 0.3159090909090905,
                "tempo": 120.0
            },
            {
                "start_time": 6.252272727272727,
                "end_time": 6.468181818181818,
                "pitch": 39,
                "velocity": 80,
                "duration": 0.21590909090909083,
                "tempo": 120.0
            },
            {
                "start_time": 6.470454545454545,
                "end_time": 6.5681818181818175,
                "pitch": 40,
                "velocity": 80,
                "duration": 0.09772727272727266,
                "tempo": 120.0
            },
            {
                "start_time": 6.5681818181818175,
                "end_time": 6.686363636363636,
                "pitch": 42,
                "velocity": 80,
                "duration": 0.11818181818181817,
                "tempo": 120.0
            },
            {
                "start_time": 6.686363636363636,
                "end_time": 6.786363636363636,
                "pitch": 43,
                "velocity": 80,
                "duration": 0.10000000000000053,
                "tempo": 120.0
            },
            {
                "start_time": 6.786363636363636,
                "end_time": 6.886363636363636,
                "pitch": 40,
                "velocity": 80,
                "duration": 0.09999999999999964,
                "tempo": 120.0
            },
            {
                "start_time": 6.888636363636364,
                "end_time": 7.097727272727273,
                "pitch": 24,
                "velocity": 80,
                "duration": 0.209090909090909,
                "tempo": 120.0
            },
            {
                "start_time": 7.1,
                "end_time": 7.213636363636363,
                "pitch": 24,
                "velocity": 80,
                "duration": 0.11363636363636331,
                "tempo": 120.0
            },
            {
                "start_time": 7.213636363636363,
                "end_time": 7.311363636363636,
                "pitch": 36,
                "velocity": 80,
                "duration": 0.09772727272727266,
                "tempo": 120.0
            },
            {
                "start_time": 7.311363636363636,
                "end_time": 7.427272727272727,
                "pitch": 24,
                "velocity": 80,
                "duration": 0.11590909090909118,
                "tempo": 120.0
            },
            {
                "start_time": 7.427272727272727,
                "end_time": 7.527272727272727,
                "pitch": 24,
                "velocity": 80,
                "duration": 0.10000000000000053,
                "tempo": 120.0
            },
            {
                "start_time": 7.529545454545454,
                "end_time": 7.745454545454545,
                "pitch": 36,
                "velocity": 80,
                "duration": 0.21590909090909083,
                "tempo": 120.0
            },
            {
                "start_time": 7.745454545454545,
                "end_time": 7.961363636363636,
                "pitch": 24,
                "velocity": 80,
                "duration": 0.21590909090909083,
                "tempo": 120.0
            },
            {
                "start_time": 7.961363636363636,
                "end_time": 8.061363636363636,
                "pitch": 24,
                "velocity": 80,
                "duration": 0.09999999999999964,
                "tempo": 120.0
            },
            {
                "start_time": 8.061363636363636,
                "end_time": 8.179545454545455,
                "pitch": 36,
                "velocity": 80,
                "duration": 0.11818181818181905,
                "tempo": 120.0
            },
            {
                "start_time": 8.179545454545455,
                "end_time": 8.379545454545454,
                "pitch": 23,
                "velocity": 80,
                "duration": 0.1999999999999993,
                "tempo": 120.0
            },
            {
                "start_time": 8.379545454545454,
                "end_time": 8.595454545454546,
                "pitch": 23,
                "velocity": 80,
                "duration": 0.21590909090909172,
                "tempo": 120.0
            },
            {
                "start_time": 8.597727272727273,
                "end_time": 8.809090909090909,
                "pitch": 21,
                "velocity": 80,
                "duration": 0.21136363636363598,
                "tempo": 120.0
            },
            {
                "start_time": 8.809090909090909,
                "end_time": 8.922727272727272,
                "pitch": 21,
                "velocity": 80,
                "duration": 0.11363636363636331,
                "tempo": 120.0
            },
            {
                "start_time": 8.924999999999999,
                "end_time": 9.022727272727272,
                "pitch": 33,
                "velocity": 80,
                "duration": 0.09772727272727266,
                "tempo": 120.0
            },
            {
                "start_time": 9.022727272727272,
                "end_time": 9.120454545454544,
                "pitch": 23,
                "velocity": 80,
                "duration": 0.09772727272727266,
                "tempo": 120.0
            },
            {
                "start_time": 9.122727272727273,
                "end_time": 9.238636363636363,
                "pitch": 23,
                "velocity": 80,
                "duration": 0.1159090909090903,
                "tempo": 120.0
            },
            {
                "start_time": 9.238636363636363,
                "end_time": 9.456818181818182,
                "pitch": 35,
                "velocity": 80,
                "duration": 0.2181818181818187,
                "tempo": 120.0
            },
            {
                "start_time": 9.456818181818182,
                "end_time": 9.672727272727272,
                "pitch": 36,
                "velocity": 80,
                "duration": 0.21590909090908994,
                "tempo": 120.0
            },
            {
                "start_time": 9.672727272727272,
                "end_time": 9.772727272727272,
                "pitch": 35,
                "velocity": 80,
                "duration": 0.09999999999999964,
                "tempo": 120.0
            },
            {
                "start_time": 9.772727272727272,
                "end_time": 9.872727272727273,
                "pitch": 33,
                "velocity": 80,
                "duration": 0.10000000000000142,
                "tempo": 120.0
            },
            {
                "start_time": 9.875,
                "end_time": 9.986363636363636,
                "pitch": 26,
                "velocity": 80,
                "duration": 0.11136363636363633,
                "tempo": 120.0
            },
            {
                "start_time": 9.988636363636363,
                "end_time": 10.086363636363636,
                "pitch": 38,
                "velocity": 80,
                "duration": 0.09772727272727266,
                "tempo": 120.0
            },
            {
                "start_time": 10.086363636363636,
                "end_time": 10.2,
                "pitch": 36,
                "velocity": 80,
                "duration": 0.11363636363636331,
                "tempo": 120.0
            },
            {
                "start_time": 10.2,
                "end_time": 10.297727272727272,
                "pitch": 35,
                "velocity": 80,
                "duration": 0.09772727272727266,
                "tempo": 120.0
            },
            {
                "start_time": 10.299999999999999,
                "end_time": 10.51590909090909,
                "pitch": 24,
                "velocity": 80,
                "duration": 0.21590909090909172,
                "tempo": 120.0
            },
            {
                "start_time": 10.51590909090909,
                "end_time": 10.61590909090909,
                "pitch": 24,
                "velocity": 80,
                "duration": 0.09999999999999964,
                "tempo": 120.0
            },
            {
                "start_time": 10.61590909090909,
                "end_time": 10.73181818181818,
                "pitch": 36,
                "velocity": 80,
                "duration": 0.1159090909090903,
                "tempo": 120.0
            },
            {
                "start_time": 10.73409090909091,
                "end_time": 10.831818181818182,
                "pitch": 24,
                "velocity": 80,
                "duration": 0.09772727272727266,
                "tempo": 120.0
            },
            {
                "start_time": 10.834090909090909,
                "end_time": 10.95,
                "pitch": 24,
                "velocity": 80,
                "duration": 0.1159090909090903,
                "tempo": 120.0
            },
            {
                "start_time": 10.95,
                "end_time": 11.165909090909091,
                "pitch": 36,
                "velocity": 80,
                "duration": 0.21590909090909172,
                "tempo": 120.0
            },
            {
                "start_time": 11.168181818181818,
                "end_time": 11.36590909090909,
                "pitch": 24,
                "velocity": 80,
                "duration": 0.1977272727272723,
                "tempo": 120.0
            },
            {
                "start_time": 11.368181818181817,
                "end_time": 11.48409090909091,
                "pitch": 24,
                "velocity": 80,
                "duration": 0.11590909090909207,
                "tempo": 120.0
            },
            {
                "start_time": 11.48409090909091,
                "end_time": 11.584090909090909,
                "pitch": 36,
                "velocity": 80,
                "duration": 0.09999999999999964,
                "tempo": 120.0
            },
            {
                "start_time": 11.584090909090909,
                "end_time": 11.795454545454545,
                "pitch": 23,
                "velocity": 80,
                "duration": 0.21136363636363598,
                "tempo": 120.0
            },
            {
                "start_time": 11.797727272727272,
                "end_time": 12.009090909090908,
                "pitch": 23,
                "velocity": 80,
                "duration": 0.21136363636363598,
                "tempo": 120.0
            },
            {
                "start_time": 12.009090909090908,
                "end_time": 12.227272727272727,
                "pitch": 21,
                "velocity": 80,
                "duration": 0.2181818181818187,
                "tempo": 120.0
            },
            {
                "start_time": 12.227272727272727,
                "end_time": 12.327272727272726,
                "pitch": 21,
                "velocity": 80,
                "duration": 0.09999999999999964,
                "tempo": 120.0
            },
            {
                "start_time": 12.327272727272726,
                "end_time": 12.443181818181818,
                "pitch": 33,
                "velocity": 80,
                "duration": 0.11590909090909207,
                "tempo": 120.0
            },
            {
                "start_time": 12.445454545454545,
                "end_time": 12.545454545454545,
                "pitch": 23,
                "velocity": 80,
                "duration": 0.09999999999999964,
                "tempo": 120.0
            },
            {
                "start_time": 12.545454545454545,
                "end_time": 12.665909090909091,
                "pitch": 23,
                "velocity": 80,
                "duration": 0.12045454545454604,
                "tempo": 120.0
            },
            {
                "start_time": 12.665909090909091,
                "end_time": 12.870454545454544,
                "pitch": 35,
                "velocity": 80,
                "duration": 0.20454545454545325,
                "tempo": 120.0
            },
            {
                "start_time": 12.870454545454544,
                "end_time": 13.075,
                "pitch": 36,
                "velocity": 80,
                "duration": 0.20454545454545503,
                "tempo": 120.0
            },
            {
                "start_time": 13.077272727272726,
                "end_time": 13.186363636363636,
                "pitch": 35,
                "velocity": 80,
                "duration": 0.10909090909090935,
                "tempo": 120.0
            },
            {
                "start_time": 13.188636363636363,
                "end_time": 13.284090909090908,
                "pitch": 33,
                "velocity": 80,
                "duration": 0.09545454545454568,
                "tempo": 120.0
            },
            {
                "start_time": 13.284090909090908,
                "end_time": 13.402272727272727,
                "pitch": 26,
                "velocity": 80,
                "duration": 0.11818181818181905,
                "tempo": 120.0
            },
            {
                "start_time": 13.402272727272727,
                "end_time": 13.504545454545454,
                "pitch": 38,
                "velocity": 80,
                "duration": 0.10227272727272663,
                "tempo": 120.0
            },
            {
                "start_time": 13.504545454545454,
                "end_time": 13.60681818181818,
                "pitch": 36,
                "velocity": 80,
                "duration": 0.10227272727272663,
                "tempo": 120.0
            },
            {
                "start_time": 13.60681818181818,
                "end_time": 13.727272727272727,
                "pitch": 35,
                "velocity": 80,
                "duration": 0.12045454545454604,
                "tempo": 120.0
            },
            {
                "start_time": 13.727272727272727,
                "end_time": 13.943181818181818,
                "pitch": 28,
                "velocity": 80,
                "duration": 0.21590909090909172,
                "tempo": 120.0
            },
            {
                "start_time": 13.945454545454545,
                "end_time": 14.161363636363635,
                "pitch": 40,
                "velocity": 80,
                "duration": 0.21590909090908994,
                "tempo": 120.0
            },
            {
                "start_time": 14.161363636363635,
                "end_time": 14.261363636363635,
                "pitch": 28,
                "velocity": 80,
                "duration": 0.09999999999999964,
                "tempo": 120.0
            },
            {
                "start_time": 14.261363636363635,
                "end_time": 14.361363636363636,
                "pitch": 28,
                "velocity": 80,
                "duration": 0.10000000000000142,
                "tempo": 120.0
            },
            {
                "start_time": 14.361363636363636,
                "end_time": 14.477272727272727,
                "pitch": 40,
                "velocity": 80,
                "duration": 0.1159090909090903,
                "tempo": 120.0
            },
            {
                "start_time": 14.579545454545453,
                "end_time": 14.784090909090908,
                "pitch": 28,
                "velocity": 80,
                "duration": 0.20454545454545503,
                "tempo": 120.0
            },
            {
                "start_time": 14.786363636363635,
                "end_time": 14.99090909090909,
                "pitch": 40,
                "velocity": 80,
                "duration": 0.20454545454545503,
                "tempo": 120.0
            },
            {
                "start_time": 14.993181818181817,
                "end_time": 15.213636363636363,
                "pitch": 28,
                "velocity": 80,
                "duration": 0.22045454545454568,
                "tempo": 120.0
            },
            {
                "start_time": 15.213636363636363,
                "end_time": 15.313636363636363,
                "pitch": 28,
                "velocity": 80,
                "duration": 0.09999999999999964,
                "tempo": 120.0
            },
            {
                "start_time": 15.31590909090909,
                "end_time": 15.434090909090909,
                "pitch": 28,
                "velocity": 80,
                "duration": 0.11818181818181905,
                "tempo": 120.0
            },
            {
                "start_time": 15.436363636363636,
                "end_time": 15.652272727272727,
                "pitch": 28,
                "velocity": 80,
                "duration": 0.21590909090909172,
                "tempo": 120.0
            },
            {
                "start_time": 15.652272727272727,
                "end_time": 15.752272727272727,
                "pitch": 40,
                "velocity": 80,
                "duration": 0.09999999999999964,
                "tempo": 120.0
            },
            {
                "start_time": 15.752272727272727,
                "end_time": 15.852272727272727,
                "pitch": 28,
                "velocity": 80,
                "duration": 0.09999999999999964,
                "tempo": 120.0
            },
            {
                "start_time": 15.852272727272727,
                "end_time": 15.96590909090909,
                "pitch": 28,
                "velocity": 80,
                "duration": 0.11363636363636331,
                "tempo": 120.0
            },
            {
                "start_time": 15.96590909090909,
                "end_time": 16.063636363636363,
                "pitch": 28,
                "velocity": 80,
                "duration": 0.09772727272727266,
                "tempo": 120.0
            },
            {
                "start_time": 16.06590909090909,
                "end_time": 16.179545454545455,
                "pitch": 40,
                "velocity": 80,
                "duration": 0.11363636363636331,
                "tempo": 120.0
            },
            {
                "start_time": 16.277272727272727,
                "end_time": 16.393181818181816,
                "pitch": 28,
                "velocity": 80,
                "duration": 0.11590909090908852,
                "tempo": 120.0
            },
            {
                "start_time": 16.393181818181816,
                "end_time": 16.493181818181817,
                "pitch": 40,
                "velocity": 80,
                "duration": 0.10000000000000142,
                "tempo": 120.0
            },
            {
                "start_time": 16.495454545454546,
                "end_time": 16.59318181818182,
                "pitch": 28,
                "velocity": 80,
                "duration": 0.09772727272727266,
                "tempo": 120.0
            },
            {
                "start_time": 16.711363636363636,
                "end_time": 16.929545454545455,
                "pitch": 28,
                "velocity": 80,
                "duration": 0.2181818181818187,
                "tempo": 120.0
            },
            {
                "start_time": 16.929545454545455,
                "end_time": 17.027272727272727,
                "pitch": 28,
                "velocity": 80,
                "duration": 0.09772727272727266,
                "tempo": 120.0
            },
            {
                "start_time": 17.029545454545453,
                "end_time": 17.145454545454545,
                "pitch": 28,
                "velocity": 80,
                "duration": 0.11590909090909207,
                "tempo": 120.0
            },
            {
                "start_time": 17.147727272727273,
                "end_time": 17.345454545454544,
                "pitch": 28,
                "velocity": 80,
                "duration": 0.19772727272727053,
                "tempo": 120.0
            },
            {
                "start_time": 17.347727272727273,
                "end_time": 17.563636363636363,
                "pitch": 40,
                "velocity": 80,
                "duration": 0.21590909090908994,
                "tempo": 120.0
            },
            {
                "start_time": 17.563636363636363,
                "end_time": 17.677272727272726,
                "pitch": 28,
                "velocity": 80,
                "duration": 0.11363636363636331,
                "tempo": 120.0
            },
            {
                "start_time": 17.677272727272726,
                "end_time": 17.775,
                "pitch": 28,
                "velocity": 80,
                "duration": 0.09772727272727266,
                "tempo": 120.0
            },
            {
                "start_time": 17.777272727272727,
                "end_time": 17.888636363636362,
                "pitch": 40,
                "velocity": 80,
                "duration": 0.11136363636363455,
                "tempo": 120.0
            },
            {
                "start_time": 17.988636363636363,
                "end_time": 18.204545454545453,
                "pitch": 28,
                "velocity": 80,
                "duration": 0.21590909090908994,
                "tempo": 120.0
            },
            {
                "start_time": 18.206818181818182,
                "end_time": 18.422727272727272,
                "pitch": 40,
                "velocity": 80,
                "duration": 0.21590909090908994,
                "tempo": 120.0
            },
            {
                "start_time": 18.422727272727272,
                "end_time": 18.638636363636362,
                "pitch": 28,
                "velocity": 80,
                "duration": 0.21590909090908994,
                "tempo": 120.0
            },
            {
                "start_time": 18.64090909090909,
                "end_time": 18.738636363636363,
                "pitch": 28,
                "velocity": 80,
                "duration": 0.09772727272727266,
                "tempo": 120.0
            },
            {
                "start_time": 18.74090909090909,
                "end_time": 18.83863636363636,
                "pitch": 28,
                "velocity": 80,
                "duration": 0.09772727272727266,
                "tempo": 120.0
            },
            {
                "start_time": 18.84090909090909,
                "end_time": 19.052272727272726,
                "pitch": 31,
                "velocity": 80,
                "duration": 0.21136363636363598,
                "tempo": 120.0
            },
            {
                "start_time": 19.052272727272726,
                "end_time": 19.16590909090909,
                "pitch": 19,
                "velocity": 80,
                "duration": 0.11363636363636331,
                "tempo": 120.0
            },
            {
                "start_time": 19.16590909090909,
                "end_time": 19.263636363636362,
                "pitch": 31,
                "velocity": 80,
                "duration": 0.09772727272727266,
                "tempo": 120.0
            },
            {
                "start_time": 19.26590909090909,
                "end_time": 19.38181818181818,
                "pitch": 30,
                "velocity": 80,
                "duration": 0.11590909090908852,
                "tempo": 120.0
            },
            {
                "start_time": 19.38181818181818,
                "end_time": 19.48181818181818,
                "pitch": 30,
                "velocity": 80,
                "duration": 0.10000000000000142,
                "tempo": 120.0
            },
            {
                "start_time": 19.48181818181818,
                "end_time": 19.581818181818182,
                "pitch": 18,
                "velocity": 80,
                "duration": 0.10000000000000142,
                "tempo": 120.0
            },
            {
                "start_time": 19.7,
                "end_time": 19.91590909090909,
                "pitch": 29,
                "velocity": 80,
                "duration": 0.21590909090908994,
                "tempo": 120.0
            },
            {
                "start_time": 19.91590909090909,
                "end_time": 20.01590909090909,
                "pitch": 16,
                "velocity": 80,
                "duration": 0.10000000000000142,
                "tempo": 120.0
            },
            {
                "start_time": 20.01590909090909,
                "end_time": 20.134090909090908,
                "pitch": 29,
                "velocity": 80,
                "duration": 0.11818181818181728,
                "tempo": 120.0
            },
            {
                "start_time": 20.134090909090908,
                "end_time": 20.23409090909091,
                "pitch": 23,
                "velocity": 80,
                "duration": 0.10000000000000142,
                "tempo": 120.0
            },
            {
                "start_time": 20.236363636363635,
                "end_time": 20.336363636363636,
                "pitch": 23,
                "velocity": 80,
                "duration": 0.10000000000000142,
                "tempo": 120.0
            },
            {
                "start_time": 20.33863636363636,
                "end_time": 20.456818181818182,
                "pitch": 35,
                "velocity": 80,
                "duration": 0.11818181818182083,
                "tempo": 120.0
            },
            {
                "start_time": 20.456818181818182,
                "end_time": 20.55909090909091,
                "pitch": 23,
                "velocity": 80,
                "duration": 0.10227272727272663,
                "tempo": 120.0
            },
            {
                "start_time": 20.561363636363634,
                "end_time": 20.76590909090909,
                "pitch": 28,
                "velocity": 80,
                "duration": 0.2045454545454568,
                "tempo": 120.0
            },
            {
                "start_time": 20.76590909090909,
                "end_time": 20.972727272727273,
                "pitch": 40,
                "velocity": 80,
                "duration": 0.206818181818182,
                "tempo": 120.0
            },
            {
                "start_time": 20.972727272727273,
                "end_time": 21.07272727272727,
                "pitch": 28,
                "velocity": 80,
                "duration": 0.09999999999999787,
                "tempo": 120.0
            },
            {
                "start_time": 21.07272727272727,
                "end_time": 21.188636363636363,
                "pitch": 28,
                "velocity": 80,
                "duration": 0.11590909090909207,
                "tempo": 120.0
            },
            {
                "start_time": 21.19090909090909,
                "end_time": 21.29090909090909,
                "pitch": 40,
                "velocity": 80,
                "duration": 0.09999999999999787,
                "tempo": 120.0
            },
            {
                "start_time": 21.409090909090907,
                "end_time": 21.629545454545454,
                "pitch": 28,
                "velocity": 80,
                "duration": 0.22045454545454746,
                "tempo": 120.0
            },
            {
                "start_time": 21.629545454545454,
                "end_time": 21.834090909090907,
                "pitch": 40,
                "velocity": 80,
                "duration": 0.20454545454545325,
                "tempo": 120.0
            },
            {
                "start_time": 21.834090909090907,
                "end_time": 22.04090909090909,
                "pitch": 28,
                "velocity": 80,
                "duration": 0.206818181818182,
                "tempo": 120.0
            },
            {
                "start_time": 22.04090909090909,
                "end_time": 22.15,
                "pitch": 28,
                "velocity": 80,
                "duration": 0.10909090909090935,
                "tempo": 120.0
            },
            {
                "start_time": 22.152272727272727,
                "end_time": 22.24772727272727,
                "pitch": 28,
                "velocity": 80,
                "duration": 0.0954545454545439,
                "tempo": 120.0
            },
            {
                "start_time": 22.24772727272727,
                "end_time": 22.46818181818182,
                "pitch": 28,
                "velocity": 80,
                "duration": 0.22045454545454746,
                "tempo": 120.0
            },
            {
                "start_time": 22.46818181818182,
                "end_time": 22.570454545454545,
                "pitch": 40,
                "velocity": 80,
                "duration": 0.10227272727272663,
                "tempo": 120.0
            },
            {
                "start_time": 22.570454545454545,
                "end_time": 22.69090909090909,
                "pitch": 28,
                "velocity": 80,
                "duration": 0.12045454545454604,
                "tempo": 120.0
            },
            {
                "start_time": 22.69090909090909,
                "end_time": 22.79090909090909,
                "pitch": 28,
                "velocity": 80,
                "duration": 0.09999999999999787,
                "tempo": 120.0
            },
            {
                "start_time": 22.79090909090909,
                "end_time": 22.90681818181818,
                "pitch": 28,
                "velocity": 80,
                "duration": 0.11590909090909207,
                "tempo": 120.0
            },
            {
                "start_time": 22.909090909090907,
                "end_time": 23.00681818181818,
                "pitch": 40,
                "velocity": 80,
                "duration": 0.09772727272727266,
                "tempo": 120.0
            },
            {
                "start_time": 23.125,
                "end_time": 23.224999999999998,
                "pitch": 28,
                "velocity": 80,
                "duration": 0.09999999999999787,
                "tempo": 120.0
            },
            {
                "start_time": 23.224999999999998,
                "end_time": 23.325,
                "pitch": 40,
                "velocity": 80,
                "duration": 0.10000000000000142,
                "tempo": 120.0
            },
            {
                "start_time": 23.325,
                "end_time": 23.44090909090909,
                "pitch": 28,
                "velocity": 80,
                "duration": 0.11590909090909207,
                "tempo": 120.0
            },
            {
                "start_time": 23.543181818181818,
                "end_time": 23.754545454545454,
                "pitch": 28,
                "velocity": 80,
                "duration": 0.21136363636363598,
                "tempo": 120.0
            },
            {
                "start_time": 23.754545454545454,
                "end_time": 23.868181818181817,
                "pitch": 28,
                "velocity": 80,
                "duration": 0.11363636363636331,
                "tempo": 120.0
            },
            {
                "start_time": 23.868181818181817,
                "end_time": 23.96590909090909,
                "pitch": 28,
                "velocity": 80,
                "duration": 0.09772727272727266,
                "tempo": 120.0
            },
            {
                "start_time": 23.96818181818182,
                "end_time": 24.18409090909091,
                "pitch": 28,
                "velocity": 80,
                "duration": 0.21590909090908994,
                "tempo": 120.0
            },
            {
                "start_time": 24.18409090909091,
                "end_time": 24.4,
                "pitch": 40,
                "velocity": 80,
                "duration": 0.21590909090908994,
                "tempo": 120.0
            },
            {
                "start_time": 24.402272727272727,
                "end_time": 24.5,
                "pitch": 28,
                "velocity": 80,
                "duration": 0.09772727272727266,
                "tempo": 120.0
            },
            {
                "start_time": 24.502272727272725,
                "end_time": 24.618181818181817,
                "pitch": 28,
                "velocity": 80,
                "duration": 0.11590909090909207,
                "tempo": 120.0
            },
            {
                "start_time": 24.618181818181817,
                "end_time": 24.71818181818182,
                "pitch": 40,
                "velocity": 80,
                "duration": 0.10000000000000142,
                "tempo": 120.0
            },
            {
                "start_time": 24.818181818181817,
                "end_time": 25.025,
                "pitch": 28,
                "velocity": 80,
                "duration": 0.206818181818182,
                "tempo": 120.0
            },
            {
                "start_time": 25.025,
                "end_time": 25.23181818181818,
                "pitch": 40,
                "velocity": 80,
                "duration": 0.206818181818182,
                "tempo": 120.0
            },
            {
                "start_time": 25.23181818181818,
                "end_time": 25.452272727272724,
                "pitch": 28,
                "velocity": 80,
                "duration": 0.2204545454545439,
                "tempo": 120.0
            },
            {
                "start_time": 25.454545454545453,
                "end_time": 25.554545454545455,
                "pitch": 28,
                "velocity": 80,
                "duration": 0.10000000000000142,
                "tempo": 120.0
            },
            {
                "start_time": 25.55681818181818,
                "end_time": 25.674999999999997,
                "pitch": 28,
                "velocity": 80,
                "duration": 0.11818181818181728,
                "tempo": 120.0
            },
            {
                "start_time": 25.674999999999997,
                "end_time": 25.89090909090909,
                "pitch": 31,
                "velocity": 80,
                "duration": 0.2159090909090935,
                "tempo": 120.0
            },
            {
                "start_time": 25.893181818181816,
                "end_time": 25.99090909090909,
                "pitch": 19,
                "velocity": 80,
                "duration": 0.09772727272727266,
                "tempo": 120.0
            },
            {
                "start_time": 25.993181818181817,
                "end_time": 26.10909090909091,
                "pitch": 31,
                "velocity": 80,
                "duration": 0.11590909090909207,
                "tempo": 120.0
            },
            {
                "start_time": 26.111363636363635,
                "end_time": 26.211363636363636,
                "pitch": 30,
                "velocity": 80,
                "duration": 0.10000000000000142,
                "tempo": 120.0
            },
            {
                "start_time": 26.211363636363636,
                "end_time": 26.313636363636363,
                "pitch": 30,
                "velocity": 80,
                "duration": 0.10227272727272663,
                "tempo": 120.0
            },
            {
                "start_time": 26.313636363636363,
                "end_time": 26.43181818181818,
                "pitch": 18,
                "velocity": 80,
                "duration": 0.11818181818181728,
                "tempo": 120.0
            },
            {
                "start_time": 26.536363636363635,
                "end_time": 26.743181818181817,
                "pitch": 29,
                "velocity": 80,
                "duration": 0.206818181818182,
                "tempo": 120.0
            },
            {
                "start_time": 26.743181818181817,
                "end_time": 26.852272727272727,
                "pitch": 16,
                "velocity": 80,
                "duration": 0.10909090909090935,
                "tempo": 120.0
            },
            {
                "start_time": 26.854545454545452,
                "end_time": 26.95,
                "pitch": 29,
                "velocity": 80,
                "duration": 0.09545454545454746,
                "tempo": 120.0
            },
            {
                "start_time": 26.95,
                "end_time": 27.047727272727272,
                "pitch": 23,
                "velocity": 80,
                "duration": 0.09772727272727266,
                "tempo": 120.0
            },
            {
                "start_time": 27.049999999999997,
                "end_time": 27.16590909090909,
                "pitch": 23,
                "velocity": 80,
                "duration": 0.11590909090909207,
                "tempo": 120.0
            },
            {
                "start_time": 27.16590909090909,
                "end_time": 27.26590909090909,
                "pitch": 35,
                "velocity": 80,
                "duration": 0.10000000000000142,
                "tempo": 120.0
            },
            {
                "start_time": 27.26590909090909,
                "end_time": 27.384090909090908,
                "pitch": 23,
                "velocity": 80,
                "duration": 0.11818181818181728,
                "tempo": 120.0
            },
            {
                "start_time": 27.384090909090908,
                "end_time": 27.604545454545452,
                "pitch": 24,
                "velocity": 80,
                "duration": 0.2204545454545439,
                "tempo": 120.0
            },
            {
                "start_time": 27.60681818181818,
                "end_time": 27.80909090909091,
                "pitch": 24,
                "velocity": 80,
                "duration": 0.20227272727272805,
                "tempo": 120.0
            },
            {
                "start_time": 27.811363636363634,
                "end_time": 27.920454545454543,
                "pitch": 24,
                "velocity": 80,
                "duration": 0.10909090909090935,
                "tempo": 120.0
            },
            {
                "start_time": 27.920454545454543,
                "end_time": 28.01590909090909,
                "pitch": 24,
                "velocity": 80,
                "duration": 0.09545454545454746,
                "tempo": 120.0
            },
            {
                "start_time": 28.018181818181816,
                "end_time": 28.127272727272725,
                "pitch": 36,
                "velocity": 80,
                "duration": 0.10909090909090935,
                "tempo": 120.0
            },
            {
                "start_time": 28.129545454545454,
                "end_time": 28.222727272727273,
                "pitch": 24,
                "velocity": 80,
                "duration": 0.0931818181818187,
                "tempo": 120.0
            },
            {
                "start_time": 28.224999999999998,
                "end_time": 28.440909090909088,
                "pitch": 24,
                "velocity": 80,
                "duration": 0.21590909090908994,
                "tempo": 120.0
            },
            {
                "start_time": 28.440909090909088,
                "end_time": 28.65681818181818,
                "pitch": 24,
                "velocity": 80,
                "duration": 0.2159090909090935,
                "tempo": 120.0
            },
            {
                "start_time": 28.659090909090907,
                "end_time": 28.879545454545454,
                "pitch": 28,
                "velocity": 80,
                "duration": 0.22045454545454746,
                "tempo": 120.0
            },
            {
                "start_time": 28.879545454545454,
                "end_time": 28.98181818181818,
                "pitch": 28,
                "velocity": 80,
                "duration": 0.10227272727272663,
                "tempo": 120.0
            },
            {
                "start_time": 28.98181818181818,
                "end_time": 29.084090909090907,
                "pitch": 28,
                "velocity": 80,
                "duration": 0.10227272727272663,
                "tempo": 120.0
            },
            {
                "start_time": 29.084090909090907,
                "end_time": 29.29090909090909,
                "pitch": 26,
                "velocity": 80,
                "duration": 0.206818181818182,
                "tempo": 120.0
            },
            {
                "start_time": 29.29090909090909,
                "end_time": 29.49772727272727,
                "pitch": 26,
                "velocity": 80,
                "duration": 0.206818181818182,
                "tempo": 120.0
            },
            {
                "start_time": 29.49772727272727,
                "end_time": 29.613636363636363,
                "pitch": 26,
                "velocity": 80,
                "duration": 0.11590909090909207,
                "tempo": 120.0
            },
            {
                "start_time": 29.613636363636363,
                "end_time": 29.71363636363636,
                "pitch": 26,
                "velocity": 80,
                "duration": 0.09999999999999787,
                "tempo": 120.0
            },
            {
                "start_time": 29.71590909090909,
                "end_time": 29.813636363636363,
                "pitch": 38,
                "velocity": 80,
                "duration": 0.09772727272727266,
                "tempo": 120.0
            },
            {
                "start_time": 29.815909090909088,
                "end_time": 29.93181818181818,
                "pitch": 26,
                "velocity": 80,
                "duration": 0.11590909090909207,
                "tempo": 120.0
            },
            {
                "start_time": 29.93181818181818,
                "end_time": 30.154545454545453,
                "pitch": 26,
                "velocity": 80,
                "duration": 0.22272727272727266,
                "tempo": 120.0
            },
            {
                "start_time": 30.154545454545453,
                "end_time": 30.375,
                "pitch": 26,
                "velocity": 80,
                "duration": 0.22045454545454746,
                "tempo": 120.0
            },
            {
                "start_time": 30.377272727272725,
                "end_time": 30.575,
                "pitch": 30,
                "velocity": 80,
                "duration": 0.19772727272727408,
                "tempo": 120.0
            },
            {
                "start_time": 30.577272727272724,
                "end_time": 30.693181818181817,
                "pitch": 30,
                "velocity": 80,
                "duration": 0.11590909090909207,
                "tempo": 120.0
            },
            {
                "start_time": 30.693181818181817,
                "end_time": 30.793181818181818,
                "pitch": 30,
                "velocity": 80,
                "duration": 0.10000000000000142,
                "tempo": 120.0
            },
            {
                "start_time": 30.793181818181818,
                "end_time": 31.0,
                "pitch": 28,
                "velocity": 80,
                "duration": 0.206818181818182,
                "tempo": 120.0
            },
            {
                "start_time": 31.0,
                "end_time": 31.206818181818182,
                "pitch": 28,
                "velocity": 80,
                "duration": 0.206818181818182,
                "tempo": 120.0
            },
            {
                "start_time": 31.206818181818182,
                "end_time": 31.30681818181818,
                "pitch": 28,
                "velocity": 80,
                "duration": 0.09999999999999787,
                "tempo": 120.0
            },
            {
                "start_time": 31.30909090909091,
                "end_time": 31.427272727272726,
                "pitch": 28,
                "velocity": 80,
                "duration": 0.11818181818181728,
                "tempo": 120.0
            },
            {
                "start_time": 31.429545454545455,
                "end_time": 31.529545454545453,
                "pitch": 40,
                "velocity": 80,
                "duration": 0.09999999999999787,
                "tempo": 120.0
            },
            {
                "start_time": 31.53181818181818,
                "end_time": 31.65,
                "pitch": 28,
                "velocity": 80,
                "duration": 0.11818181818181728,
                "tempo": 120.0
            },
            {
                "start_time": 31.65,
                "end_time": 31.86590909090909,
                "pitch": 28,
                "velocity": 80,
                "duration": 0.21590909090908994,
                "tempo": 120.0
            },
            {
                "start_time": 31.868181818181817,
                "end_time": 32.06590909090909,
                "pitch": 28,
                "velocity": 80,
                "duration": 0.19772727272727053,
                "tempo": 120.0
            },
            {
                "start_time": 32.06818181818182,
                "end_time": 32.279545454545456,
                "pitch": 28,
                "velocity": 80,
                "duration": 0.21136363636363598,
                "tempo": 120.0
            },
            {
                "start_time": 32.279545454545456,
                "end_time": 32.393181818181816,
                "pitch": 28,
                "velocity": 80,
                "duration": 0.11363636363635976,
                "tempo": 120.0
            },
            {
                "start_time": 32.39545454545454,
                "end_time": 32.49090909090909,
                "pitch": 28,
                "velocity": 80,
                "duration": 0.09545454545455101,
                "tempo": 120.0
            },
            {
                "start_time": 32.49318181818182,
                "end_time": 32.70909090909091,
                "pitch": 31,
                "velocity": 80,
                "duration": 0.2159090909090935,
                "tempo": 120.0
            },
            {
                "start_time": 32.70909090909091,
                "end_time": 32.809090909090905,
                "pitch": 31,
                "velocity": 80,
                "duration": 0.09999999999999432,
                "tempo": 120.0
            },
            {
                "start_time": 32.809090909090905,
                "end_time": 32.92727272727272,
                "pitch": 43,
                "velocity": 80,
                "duration": 0.11818181818181728,
                "tempo": 120.0
            },
            {
                "start_time": 32.92727272727272,
                "end_time": 33.025,
                "pitch": 31,
                "velocity": 80,
                "duration": 0.09772727272727622,
                "tempo": 120.0
            },
            {
                "start_time": 33.027272727272724,
                "end_time": 33.143181818181816,
                "pitch": 31,
                "velocity": 80,
                "duration": 0.11590909090909207,
                "tempo": 120.0
            },
            {
                "start_time": 33.143181818181816,
                "end_time": 33.24318181818182,
                "pitch": 43,
                "velocity": 80,
                "duration": 0.10000000000000142,
                "tempo": 120.0
            },
            {
                "start_time": 33.24545454545454,
                "end_time": 33.361363636363635,
                "pitch": 31,
                "velocity": 80,
                "duration": 0.11590909090909207,
                "tempo": 120.0
            },
            {
                "start_time": 33.361363636363635,
                "end_time": 33.56136363636364,
                "pitch": 31,
                "velocity": 80,
                "duration": 0.20000000000000284,
                "tempo": 120.0
            },
            {
                "start_time": 33.56136363636364,
                "end_time": 33.777272727272724,
                "pitch": 31,
                "velocity": 80,
                "duration": 0.2159090909090864,
                "tempo": 120.0
            },
            {
                "start_time": 33.779545454545456,
                "end_time": 33.99090909090909,
                "pitch": 31,
                "velocity": 80,
                "duration": 0.21136363636363598,
                "tempo": 120.0
            },
            {
                "start_time": 33.99090909090909,
                "end_time": 34.10454545454545,
                "pitch": 31,
                "velocity": 80,
                "duration": 0.11363636363635976,
                "tempo": 120.0
            },
            {
                "start_time": 34.10454545454545,
                "end_time": 34.20227272727273,
                "pitch": 31,
                "velocity": 80,
                "duration": 0.09772727272727622,
                "tempo": 120.0
            },
            {
                "start_time": 34.20454545454545,
                "end_time": 34.42045454545455,
                "pitch": 21,
                "velocity": 80,
                "duration": 0.2159090909090935,
                "tempo": 120.0
            },
            {
                "start_time": 34.42045454545455,
                "end_time": 34.63636363636363,
                "pitch": 21,
                "velocity": 80,
                "duration": 0.2159090909090864,
                "tempo": 120.0
            },
            {
                "start_time": 34.638636363636365,
                "end_time": 34.736363636363635,
                "pitch": 21,
                "velocity": 80,
                "duration": 0.09772727272726911,
                "tempo": 120.0
            },
            {
                "start_time": 34.736363636363635,
                "end_time": 34.85454545454545,
                "pitch": 21,
                "velocity": 80,
                "duration": 0.11818181818181728,
                "tempo": 120.0
            },
            {
                "start_time": 34.85454545454545,
                "end_time": 34.95454545454545,
                "pitch": 33,
                "velocity": 80,
                "duration": 0.10000000000000142,
                "tempo": 120.0
            },
            {
                "start_time": 34.95454545454545,
                "end_time": 35.054545454545455,
                "pitch": 21,
                "velocity": 80,
                "duration": 0.10000000000000142,
                "tempo": 120.0
            },
            {
                "start_time": 35.054545454545455,
                "end_time": 35.26590909090909,
                "pitch": 21,
                "velocity": 80,
                "duration": 0.21136363636363598,
                "tempo": 120.0
            },
            {
                "start_time": 35.268181818181816,
                "end_time": 35.47954545454545,
                "pitch": 21,
                "velocity": 80,
                "duration": 0.21136363636363598,
                "tempo": 120.0
            },
            {
                "start_time": 35.47954545454545,
                "end_time": 35.695454545454545,
                "pitch": 21,
                "velocity": 80,
                "duration": 0.2159090909090935,
                "tempo": 120.0
            },
            {
                "start_time": 35.69772727272727,
                "end_time": 35.79772727272727,
                "pitch": 21,
                "velocity": 80,
                "duration": 0.10000000000000142,
                "tempo": 120.0
            },
            {
                "start_time": 35.79772727272727,
                "end_time": 35.913636363636364,
                "pitch": 21,
                "velocity": 80,
                "duration": 0.11590909090909207,
                "tempo": 120.0
            },
            {
                "start_time": 35.91590909090909,
                "end_time": 36.12954545454545,
                "pitch": 23,
                "velocity": 80,
                "duration": 0.21363636363636118,
                "tempo": 120.0
            },
            {
                "start_time": 36.13181818181818,
                "end_time": 36.22954545454545,
                "pitch": 23,
                "velocity": 80,
                "duration": 0.09772727272726911,
                "tempo": 120.0
            },
            {
                "start_time": 36.23181818181818,
                "end_time": 36.34772727272727,
                "pitch": 35,
                "velocity": 80,
                "duration": 0.11590909090909207,
                "tempo": 120.0
            },
            {
                "start_time": 36.35,
                "end_time": 36.449999999999996,
                "pitch": 23,
                "velocity": 80,
                "duration": 0.09999999999999432,
                "tempo": 120.0
            },
            {
                "start_time": 36.449999999999996,
                "end_time": 36.55227272727272,
                "pitch": 23,
                "velocity": 80,
                "duration": 0.10227272727272663,
                "tempo": 120.0
            },
            {
                "start_time": 36.55227272727272,
                "end_time": 36.67272727272727,
                "pitch": 35,
                "velocity": 80,
                "duration": 0.12045454545454959,
                "tempo": 120.0
            },
            {
                "start_time": 36.67272727272727,
                "end_time": 36.775,
                "pitch": 26,
                "velocity": 80,
                "duration": 0.10227272727272663,
                "tempo": 120.0
            },
            {
                "start_time": 36.775,
                "end_time": 36.98181818181818,
                "pitch": 26,
                "velocity": 80,
                "duration": 0.20681818181817846,
                "tempo": 120.0
            },
            {
                "start_time": 36.98181818181818,
                "end_time": 37.18863636363636,
                "pitch": 27,
                "velocity": 80,
                "duration": 0.20681818181818556,
                "tempo": 120.0
            },
            {
                "start_time": 37.18863636363636,
                "end_time": 37.28636363636363,
                "pitch": 40,
                "velocity": 80,
                "duration": 0.09772727272726911,
                "tempo": 120.0
            },
            {
                "start_time": 37.288636363636364,
                "end_time": 37.404545454545456,
                "pitch": 42,
                "velocity": 80,
                "duration": 0.11590909090909207,
                "tempo": 120.0
            },
            {
                "start_time": 37.40681818181818,
                "end_time": 37.50454545454545,
                "pitch": 43,
                "velocity": 80,
                "duration": 0.09772727272726911,
                "tempo": 120.0
            },
            {
                "start_time": 37.50454545454545,
                "end_time": 37.62272727272727,
                "pitch": 40,
                "velocity": 80,
                "duration": 0.11818181818181728,
                "tempo": 120.0
            },
            {
                "start_time": 37.62272727272727,
                "end_time": 37.84318181818182,
                "pitch": 24,
                "velocity": 80,
                "duration": 0.220454545454551,
                "tempo": 120.0
            },
            {
                "start_time": 37.845454545454544,
                "end_time": 37.96363636363636,
                "pitch": 24,
                "velocity": 80,
                "duration": 0.11818181818181728,
                "tempo": 120.0
            },
            {
                "start_time": 37.96363636363636,
                "end_time": 38.06590909090909,
                "pitch": 36,
                "velocity": 80,
                "duration": 0.10227272727272663,
                "tempo": 120.0
            },
            {
                "start_time": 38.06590909090909,
                "end_time": 38.18181818181818,
                "pitch": 24,
                "velocity": 80,
                "duration": 0.11590909090909207,
                "tempo": 120.0
            },
            {
                "start_time": 38.18181818181818,
                "end_time": 38.28181818181818,
                "pitch": 24,
                "velocity": 80,
                "duration": 0.10000000000000142,
                "tempo": 120.0
            },
            {
                "start_time": 38.28409090909091,
                "end_time": 38.5,
                "pitch": 36,
                "velocity": 80,
                "duration": 0.2159090909090935,
                "tempo": 120.0
            },
            {
                "start_time": 38.5,
                "end_time": 38.715909090909086,
                "pitch": 24,
                "velocity": 80,
                "duration": 0.2159090909090864,
                "tempo": 120.0
            },
            {
                "start_time": 38.71818181818182,
                "end_time": 38.81590909090909,
                "pitch": 24,
                "velocity": 80,
                "duration": 0.09772727272726911,
                "tempo": 120.0
            },
            {
                "start_time": 38.81818181818181,
                "end_time": 38.934090909090905,
                "pitch": 36,
                "velocity": 80,
                "duration": 0.11590909090909207,
                "tempo": 120.0
            },
            {
                "start_time": 38.934090909090905,
                "end_time": 39.13409090909091,
                "pitch": 23,
                "velocity": 80,
                "duration": 0.20000000000000284,
                "tempo": 120.0
            },
            {
                "start_time": 39.13409090909091,
                "end_time": 39.35227272727273,
                "pitch": 23,
                "velocity": 80,
                "duration": 0.2181818181818187,
                "tempo": 120.0
            },
            {
                "start_time": 39.35227272727273,
                "end_time": 39.56363636363636,
                "pitch": 21,
                "velocity": 80,
                "duration": 0.21136363636363598,
                "tempo": 120.0
            },
            {
                "start_time": 39.56363636363636,
                "end_time": 39.67727272727272,
                "pitch": 21,
                "velocity": 80,
                "duration": 0.11363636363635976,
                "tempo": 120.0
            },
            {
                "start_time": 39.679545454545455,
                "end_time": 39.777272727272724,
                "pitch": 33,
                "velocity": 80,
                "duration": 0.09772727272726911,
                "tempo": 120.0
            },
            {
                "start_time": 39.777272727272724,
                "end_time": 39.875,
                "pitch": 23,
                "velocity": 80,
                "duration": 0.09772727272727622,
                "tempo": 120.0
            },
            {
                "start_time": 39.877272727272725,
                "end_time": 39.99318181818182,
                "pitch": 23,
                "velocity": 80,
                "duration": 0.11590909090909207,
                "tempo": 120.0
            },
            {
                "start_time": 39.99318181818182,
                "end_time": 40.211363636363636,
                "pitch": 35,
                "velocity": 80,
                "duration": 0.2181818181818187,
                "tempo": 120.0
            },
            {
                "start_time": 40.211363636363636,
                "end_time": 40.42727272727272,
                "pitch": 36,
                "velocity": 80,
                "duration": 0.2159090909090864,
                "tempo": 120.0
            },
            {
                "start_time": 40.42727272727272,
                "end_time": 40.527272727272724,
                "pitch": 35,
                "velocity": 80,
                "duration": 0.10000000000000142,
                "tempo": 120.0
            },
            {
                "start_time": 40.527272727272724,
                "end_time": 40.627272727272725,
                "pitch": 33,
                "velocity": 80,
                "duration": 0.10000000000000142,
                "tempo": 120.0
            },
            {
                "start_time": 40.62954545454545,
                "end_time": 40.74090909090909,
                "pitch": 26,
                "velocity": 80,
                "duration": 0.11136363636364166,
                "tempo": 120.0
            },
            {
                "start_time": 40.74318181818182,
                "end_time": 40.840909090909086,
                "pitch": 38,
                "velocity": 80,
                "duration": 0.09772727272726911,
                "tempo": 120.0
            },
            {
                "start_time": 40.840909090909086,
                "end_time": 40.95454545454545,
                "pitch": 36,
                "velocity": 80,
                "duration": 0.11363636363636687,
                "tempo": 120.0
            },
            {
                "start_time": 40.95454545454545,
                "end_time": 41.05227272727272,
                "pitch": 35,
                "velocity": 80,
                "duration": 0.09772727272726911,
                "tempo": 120.0
            },
            {
                "start_time": 41.054545454545455,
                "end_time": 41.27045454545454,
                "pitch": 24,
                "velocity": 80,
                "duration": 0.2159090909090864,
                "tempo": 120.0
            },
            {
                "start_time": 41.27045454545454,
                "end_time": 41.37045454545454,
                "pitch": 24,
                "velocity": 80,
                "duration": 0.10000000000000142,
                "tempo": 120.0
            },
            {
                "start_time": 41.37045454545454,
                "end_time": 41.486363636363635,
                "pitch": 36,
                "velocity": 80,
                "duration": 0.11590909090909207,
                "tempo": 120.0
            },
            {
                "start_time": 41.48863636363636,
                "end_time": 41.58863636363636,
                "pitch": 24,
                "velocity": 80,
                "duration": 0.10000000000000142,
                "tempo": 120.0
            },
            {
                "start_time": 41.590909090909086,
                "end_time": 41.709090909090904,
                "pitch": 24,
                "velocity": 80,
                "duration": 0.11818181818181728,
                "tempo": 120.0
            },
            {
                "start_time": 41.709090909090904,
                "end_time": 41.93181818181818,
                "pitch": 36,
                "velocity": 80,
                "duration": 0.22272727272727622,
                "tempo": 120.0
            },
            {
                "start_time": 41.93181818181818,
                "end_time": 42.13181818181818,
                "pitch": 24,
                "velocity": 80,
                "duration": 0.20000000000000284,
                "tempo": 120.0
            },
            {
                "start_time": 42.13181818181818,
                "end_time": 42.24772727272727,
                "pitch": 24,
                "velocity": 80,
                "duration": 0.11590909090908497,
                "tempo": 120.0
            },
            {
                "start_time": 42.24772727272727,
                "end_time": 42.34772727272727,
                "pitch": 36,
                "velocity": 80,
                "duration": 0.10000000000000142,
                "tempo": 120.0
            },
            {
                "start_time": 42.35,
                "end_time": 42.554545454545455,
                "pitch": 23,
                "velocity": 80,
                "duration": 0.20454545454545325,
                "tempo": 120.0
            },
            {
                "start_time": 42.554545454545455,
                "end_time": 42.76136363636363,
                "pitch": 23,
                "velocity": 80,
                "duration": 0.20681818181817846,
                "tempo": 120.0
            },
            {
                "start_time": 42.76363636363636,
                "end_time": 42.98409090909091,
                "pitch": 21,
                "velocity": 80,
                "duration": 0.220454545454551,
                "tempo": 120.0
            },
            {
                "start_time": 42.98409090909091,
                "end_time": 43.086363636363636,
                "pitch": 21,
                "velocity": 80,
                "duration": 0.10227272727272663,
                "tempo": 120.0
            },
            {
                "start_time": 43.086363636363636,
                "end_time": 43.20454545454545,
                "pitch": 33,
                "velocity": 80,
                "duration": 0.11818181818181728,
                "tempo": 120.0
            },
            {
                "start_time": 43.20681818181818,
                "end_time": 43.304545454545455,
                "pitch": 23,
                "velocity": 80,
                "duration": 0.09772727272727622,
                "tempo": 120.0
            },
            {
                "start_time": 43.304545454545455,
                "end_time": 43.42272727272727,
                "pitch": 23,
                "velocity": 80,
                "duration": 0.11818181818181728,
                "tempo": 120.0
            },
            {
                "start_time": 43.42272727272727,
                "end_time": 43.62272727272727,
                "pitch": 35,
                "velocity": 80,
                "duration": 0.19999999999999574,
                "tempo": 120.0
            },
            {
                "start_time": 43.62272727272727,
                "end_time": 43.82954545454545,
                "pitch": 36,
                "velocity": 80,
                "duration": 0.20681818181818556,
                "tempo": 120.0
            },
            {
                "start_time": 43.82954545454545,
                "end_time": 43.94090909090909,
                "pitch": 35,
                "velocity": 80,
                "duration": 0.11136363636363455,
                "tempo": 120.0
            },
            {
                "start_time": 43.94090909090909,
                "end_time": 44.03636363636363,
                "pitch": 33,
                "velocity": 80,
                "duration": 0.0954545454545439,
                "tempo": 120.0
            },
            {
                "start_time": 44.03636363636363,
                "end_time": 44.15454545454545,
                "pitch": 26,
                "velocity": 80,
                "duration": 0.11818181818181728,
                "tempo": 120.0
            },
            {
                "start_time": 44.15454545454545,
                "end_time": 44.25681818181818,
                "pitch": 38,
                "velocity": 80,
                "duration": 0.10227272727273373,
                "tempo": 120.0
            },
            {
                "start_time": 44.25909090909091,
                "end_time": 44.35909090909091,
                "pitch": 36,
                "velocity": 80,
                "duration": 0.10000000000000142,
                "tempo": 120.0
            },
            {
                "start_time": 44.35909090909091,
                "end_time": 44.47954545454545,
                "pitch": 35,
                "velocity": 80,
                "duration": 0.12045454545454248,
                "tempo": 120.0
            },
            {
                "start_time": 44.47954545454545,
                "end_time": 44.695454545454545,
                "pitch": 28,
                "velocity": 80,
                "duration": 0.2159090909090935,
                "tempo": 120.0
            },
            {
                "start_time": 44.69772727272727,
                "end_time": 44.913636363636364,
                "pitch": 40,
                "velocity": 80,
                "duration": 0.2159090909090935,
                "tempo": 120.0
            },
            {
                "start_time": 44.913636363636364,
                "end_time": 45.01363636363636,
                "pitch": 28,
                "velocity": 80,
                "duration": 0.09999999999999432,
                "tempo": 120.0
            },
            {
                "start_time": 45.01363636363636,
                "end_time": 45.11363636363636,
                "pitch": 28,
                "velocity": 80,
                "duration": 0.10000000000000142,
                "tempo": 120.0
            },
            {
                "start_time": 45.11363636363636,
                "end_time": 45.22954545454545,
                "pitch": 40,
                "velocity": 80,
                "duration": 0.11590909090909207,
                "tempo": 120.0
            },
            {
                "start_time": 45.33181818181818,
                "end_time": 45.53636363636363,
                "pitch": 28,
                "velocity": 80,
                "duration": 0.20454545454545325,
                "tempo": 120.0
            },
            {
                "start_time": 45.538636363636364,
                "end_time": 45.74318181818182,
                "pitch": 40,
                "velocity": 80,
                "duration": 0.20454545454545325,
                "tempo": 120.0
            },
            {
                "start_time": 45.74545454545454,
                "end_time": 45.965909090909086,
                "pitch": 28,
                "velocity": 80,
                "duration": 0.2204545454545439,
                "tempo": 120.0
            },
            {
                "start_time": 45.965909090909086,
                "end_time": 46.06818181818181,
                "pitch": 28,
                "velocity": 80,
                "duration": 0.10227272727272663,
                "tempo": 120.0
            },
            {
                "start_time": 46.06818181818181,
                "end_time": 46.18636363636364,
                "pitch": 28,
                "velocity": 80,
                "duration": 0.11818181818182438,
                "tempo": 120.0
            },
            {
                "start_time": 46.18863636363636,
                "end_time": 46.40454545454545,
                "pitch": 28,
                "velocity": 80,
                "duration": 0.2159090909090864,
                "tempo": 120.0
            },
            {
                "start_time": 46.40454545454545,
                "end_time": 46.50454545454545,
                "pitch": 40,
                "velocity": 80,
                "duration": 0.10000000000000142,
                "tempo": 120.0
            },
            {
                "start_time": 46.50454545454545,
                "end_time": 46.60454545454545,
                "pitch": 28,
                "velocity": 80,
                "duration": 0.10000000000000142,
                "tempo": 120.0
            },
            {
                "start_time": 46.60681818181818,
                "end_time": 46.71818181818182,
                "pitch": 28,
                "velocity": 80,
                "duration": 0.11136363636364166,
                "tempo": 120.0
            },
            {
                "start_time": 46.720454545454544,
                "end_time": 46.81818181818181,
                "pitch": 28,
                "velocity": 80,
                "duration": 0.09772727272726911,
                "tempo": 120.0
            },
            {
                "start_time": 46.81818181818181,
                "end_time": 46.93181818181818,
                "pitch": 40,
                "velocity": 80,
                "duration": 0.11363636363636687,
                "tempo": 120.0
            },
            {
                "start_time": 47.03181818181818,
                "end_time": 47.14545454545454,
                "pitch": 28,
                "velocity": 80,
                "duration": 0.11363636363635976,
                "tempo": 120.0
            },
            {
                "start_time": 47.14772727272727,
                "end_time": 47.24772727272727,
                "pitch": 40,
                "velocity": 80,
                "duration": 0.09999999999999432,
                "tempo": 120.0
            },
            {
                "start_time": 47.24772727272727,
                "end_time": 47.34772727272727,
                "pitch": 28,
                "velocity": 80,
                "duration": 0.10000000000000142,
                "tempo": 120.0
            },
            {
                "start_time": 47.465909090909086,
                "end_time": 47.68181818181818,
                "pitch": 28,
                "velocity": 80,
                "duration": 0.2159090909090935,
                "tempo": 120.0
            },
            {
                "start_time": 47.68181818181818,
                "end_time": 47.78181818181818,
                "pitch": 28,
                "velocity": 80,
                "duration": 0.10000000000000142,
                "tempo": 120.0
            },
            {
                "start_time": 47.78181818181818,
                "end_time": 47.89772727272727,
                "pitch": 28,
                "velocity": 80,
                "duration": 0.11590909090909207,
                "tempo": 120.0
            },
            {
                "start_time": 47.9,
                "end_time": 48.09772727272727,
                "pitch": 28,
                "velocity": 80,
                "duration": 0.19772727272727053,
                "tempo": 120.0
            },
            {
                "start_time": 48.099999999999994,
                "end_time": 48.31590909090909,
                "pitch": 40,
                "velocity": 80,
                "duration": 0.2159090909090935,
                "tempo": 120.0
            },
            {
                "start_time": 48.31590909090909,
                "end_time": 48.429545454545455,
                "pitch": 28,
                "velocity": 80,
                "duration": 0.11363636363636687,
                "tempo": 120.0
            },
            {
                "start_time": 48.429545454545455,
                "end_time": 48.527272727272724,
                "pitch": 28,
                "velocity": 80,
                "duration": 0.09772727272726911,
                "tempo": 120.0
            },
            {
                "start_time": 48.52954545454545,
                "end_time": 48.643181818181816,
                "pitch": 40,
                "velocity": 80,
                "duration": 0.11363636363636687,
                "tempo": 120.0
            },
            {
                "start_time": 48.74090909090909,
                "end_time": 48.95681818181818,
                "pitch": 28,
                "velocity": 80,
                "duration": 0.2159090909090864,
                "tempo": 120.0
            },
            {
                "start_time": 48.959090909090904,
                "end_time": 49.175,
                "pitch": 40,
                "velocity": 80,
                "duration": 0.2159090909090935,
                "tempo": 120.0
            },
            {
                "start_time": 49.175,
                "end_time": 49.39772727272727,
                "pitch": 28,
                "velocity": 80,
                "duration": 0.22272727272727622,
                "tempo": 120.0
            },
            {
                "start_time": 49.39772727272727,
                "end_time": 49.49772727272727,
                "pitch": 28,
                "velocity": 80,
                "duration": 0.09999999999999432,
                "tempo": 120.0
            },
            {
                "start_time": 49.5,
                "end_time": 49.60227272727273,
                "pitch": 28,
                "velocity": 80,
                "duration": 0.10227272727272663,
                "tempo": 120.0
            },
            {
                "start_time": 49.60227272727273,
                "end_time": 49.80681818181818,
                "pitch": 31,
                "velocity": 80,
                "duration": 0.20454545454545325,
                "tempo": 120.0
            },
            {
                "start_time": 49.809090909090905,
                "end_time": 49.918181818181814,
                "pitch": 19,
                "velocity": 80,
                "duration": 0.10909090909090935,
                "tempo": 120.0
            },
            {
                "start_time": 49.92045454545454,
                "end_time": 50.01590909090909,
                "pitch": 31,
                "velocity": 80,
                "duration": 0.09545454545455101,
                "tempo": 120.0
            },
            {
                "start_time": 50.01590909090909,
                "end_time": 50.13181818181818,
                "pitch": 30,
                "velocity": 80,
                "duration": 0.11590909090909207,
                "tempo": 120.0
            },
            {
                "start_time": 50.13181818181818,
                "end_time": 50.23181818181818,
                "pitch": 30,
                "velocity": 80,
                "duration": 0.09999999999999432,
                "tempo": 120.0
            },
            {
                "start_time": 50.23181818181818,
                "end_time": 50.33181818181818,
                "pitch": 18,
                "velocity": 80,
                "duration": 0.10000000000000142,
                "tempo": 120.0
            },
            {
                "start_time": 50.449999999999996,
                "end_time": 50.67045454545454,
                "pitch": 29,
                "velocity": 80,
                "duration": 0.2204545454545439,
                "tempo": 120.0
            },
            {
                "start_time": 50.67045454545454,
                "end_time": 50.77272727272727,
                "pitch": 16,
                "velocity": 80,
                "duration": 0.10227272727273373,
                "tempo": 120.0
            },
            {
                "start_time": 50.77272727272727,
                "end_time": 50.893181818181816,
                "pitch": 29,
                "velocity": 80,
                "duration": 0.12045454545454248,
                "tempo": 120.0
            },
            {
                "start_time": 50.893181818181816,
                "end_time": 50.99318181818182,
                "pitch": 23,
                "velocity": 80,
                "duration": 0.10000000000000142,
                "tempo": 120.0
            },
            {
                "start_time": 50.99318181818182,
                "end_time": 51.09318181818182,
                "pitch": 23,
                "velocity": 80,
                "duration": 0.10000000000000142,
                "tempo": 120.0
            },
            {
                "start_time": 51.09318181818182,
                "end_time": 51.209090909090904,
                "pitch": 35,
                "velocity": 80,
                "duration": 0.11590909090908497,
                "tempo": 120.0
            },
            {
                "start_time": 51.211363636363636,
                "end_time": 51.309090909090905,
                "pitch": 23,
                "velocity": 80,
                "duration": 0.09772727272726911,
                "tempo": 120.0
            },
            {
                "start_time": 51.31136363636364,
                "end_time": 51.51590909090909,
                "pitch": 28,
                "velocity": 80,
                "duration": 0.20454545454545325,
                "tempo": 120.0
            },
            {
                "start_time": 51.518181818181816,
                "end_time": 51.72272727272727,
                "pitch": 40,
                "velocity": 80,
                "duration": 0.20454545454545325,
                "tempo": 120.0
            },
            {
                "start_time": 51.724999999999994,
                "end_time": 51.824999999999996,
                "pitch": 28,
                "velocity": 80,
                "duration": 0.10000000000000142,
                "tempo": 120.0
            },
            {
                "start_time": 51.824999999999996,
                "end_time": 51.945454545454545,
                "pitch": 28,
                "velocity": 80,
                "duration": 0.12045454545454959,
                "tempo": 120.0
            },
            {
                "start_time": 51.945454545454545,
                "end_time": 52.04772727272727,
                "pitch": 40,
                "velocity": 80,
                "duration": 0.10227272727272663,
                "tempo": 120.0
            },
            {
                "start_time": 52.168181818181814,
                "end_time": 52.38409090909091,
                "pitch": 28,
                "velocity": 80,
                "duration": 0.2159090909090935,
                "tempo": 120.0
            },
            {
                "start_time": 52.38409090909091,
                "end_time": 52.584090909090904,
                "pitch": 40,
                "velocity": 80,
                "duration": 0.19999999999999574,
                "tempo": 120.0
            },
            {
                "start_time": 52.586363636363636,
                "end_time": 52.79772727272727,
                "pitch": 28,
                "velocity": 80,
                "duration": 0.21136363636363598,
                "tempo": 120.0
            },
            {
                "start_time": 52.79772727272727,
                "end_time": 52.91136363636363,
                "pitch": 28,
                "velocity": 80,
                "duration": 0.11363636363635976,
                "tempo": 120.0
            },
            {
                "start_time": 52.91136363636363,
                "end_time": 53.00909090909091,
                "pitch": 28,
                "velocity": 80,
                "duration": 0.09772727272727622,
                "tempo": 120.0
            },
            {
                "start_time": 53.01136363636363,
                "end_time": 53.224999999999994,
                "pitch": 28,
                "velocity": 80,
                "duration": 0.21363636363636118,
                "tempo": 120.0
            },
            {
                "start_time": 53.22727272727273,
                "end_time": 53.324999999999996,
                "pitch": 40,
                "velocity": 80,
                "duration": 0.09772727272726911,
                "tempo": 120.0
            },
            {
                "start_time": 53.32727272727273,
                "end_time": 53.44318181818181,
                "pitch": 28,
                "velocity": 80,
                "duration": 0.11590909090908497,
                "tempo": 120.0
            },
            {
                "start_time": 53.44318181818181,
                "end_time": 53.543181818181814,
                "pitch": 28,
                "velocity": 80,
                "duration": 0.10000000000000142,
                "tempo": 120.0
            },
            {
                "start_time": 53.543181818181814,
                "end_time": 53.65909090909091,
                "pitch": 28,
                "velocity": 80,
                "duration": 0.11590909090909207,
                "tempo": 120.0
            },
            {
                "start_time": 53.66136363636363,
                "end_time": 53.76136363636363,
                "pitch": 40,
                "velocity": 80,
                "duration": 0.10000000000000142,
                "tempo": 120.0
            },
            {
                "start_time": 53.87954545454545,
                "end_time": 53.97727272727273,
                "pitch": 28,
                "velocity": 80,
                "duration": 0.09772727272727622,
                "tempo": 120.0
            },
            {
                "start_time": 53.97727272727273,
                "end_time": 54.07727272727273,
                "pitch": 40,
                "velocity": 80,
                "duration": 0.10000000000000142,
                "tempo": 120.0
            },
            {
                "start_time": 54.07954545454545,
                "end_time": 54.19318181818181,
                "pitch": 28,
                "velocity": 80,
                "duration": 0.11363636363635976,
                "tempo": 120.0
            },
            {
                "start_time": 54.29545454545454,
                "end_time": 54.50681818181818,
                "pitch": 28,
                "velocity": 80,
                "duration": 0.21136363636364308,
                "tempo": 120.0
            },
            {
                "start_time": 54.50909090909091,
                "end_time": 54.62045454545454,
                "pitch": 28,
                "velocity": 80,
                "duration": 0.11136363636363455,
                "tempo": 120.0
            },
            {
                "start_time": 54.62272727272727,
                "end_time": 54.720454545454544,
                "pitch": 28,
                "velocity": 80,
                "duration": 0.09772727272727622,
                "tempo": 120.0
            },
            {
                "start_time": 54.720454545454544,
                "end_time": 54.93636363636363,
                "pitch": 28,
                "velocity": 80,
                "duration": 0.2159090909090864,
                "tempo": 120.0
            },
            {
                "start_time": 54.93863636363636,
                "end_time": 55.15454545454545,
                "pitch": 40,
                "velocity": 80,
                "duration": 0.2159090909090864,
                "tempo": 120.0
            },
            {
                "start_time": 55.15454545454545,
                "end_time": 55.25454545454545,
                "pitch": 28,
                "velocity": 80,
                "duration": 0.10000000000000142,
                "tempo": 120.0
            },
            {
                "start_time": 55.25454545454545,
                "end_time": 55.37045454545454,
                "pitch": 28,
                "velocity": 80,
                "duration": 0.11590909090909207,
                "tempo": 120.0
            },
            {
                "start_time": 55.37272727272727,
                "end_time": 55.470454545454544,
                "pitch": 40,
                "velocity": 80,
                "duration": 0.09772727272727622,
                "tempo": 120.0
            },
            {
                "start_time": 55.57272727272727,
                "end_time": 55.78409090909091,
                "pitch": 28,
                "velocity": 80,
                "duration": 0.21136363636363598,
                "tempo": 120.0
            },
            {
                "start_time": 55.78409090909091,
                "end_time": 55.99772727272727,
                "pitch": 40,
                "velocity": 80,
                "duration": 0.21363636363636118,
                "tempo": 120.0
            },
            {
                "start_time": 55.99772727272727,
                "end_time": 56.21363636363636,
                "pitch": 28,
                "velocity": 80,
                "duration": 0.2159090909090935,
                "tempo": 120.0
            },
            {
                "start_time": 56.21363636363636,
                "end_time": 56.31363636363636,
                "pitch": 28,
                "velocity": 80,
                "duration": 0.10000000000000142,
                "tempo": 120.0
            },
            {
                "start_time": 56.31363636363636,
                "end_time": 56.43181818181818,
                "pitch": 28,
                "velocity": 80,
                "duration": 0.11818181818181728,
                "tempo": 120.0
            },
            {
                "start_time": 56.43181818181818,
                "end_time": 56.64772727272727,
                "pitch": 31,
                "velocity": 80,
                "duration": 0.2159090909090935,
                "tempo": 120.0
            },
            {
                "start_time": 56.64772727272727,
                "end_time": 56.74772727272727,
                "pitch": 19,
                "velocity": 80,
                "duration": 0.09999999999999432,
                "tempo": 120.0
            },
            {
                "start_time": 56.74772727272727,
                "end_time": 56.865909090909085,
                "pitch": 31,
                "velocity": 80,
                "duration": 0.11818181818181728,
                "tempo": 120.0
            },
            {
                "start_time": 56.865909090909085,
                "end_time": 56.965909090909086,
                "pitch": 30,
                "velocity": 80,
                "duration": 0.10000000000000142,
                "tempo": 120.0
            },
            {
                "start_time": 56.96818181818182,
                "end_time": 57.06818181818181,
                "pitch": 30,
                "velocity": 80,
                "duration": 0.09999999999999432,
                "tempo": 120.0
            },
            {
                "start_time": 57.070454545454545,
                "end_time": 57.18863636363636,
                "pitch": 18,
                "velocity": 80,
                "duration": 0.11818181818181728,
                "tempo": 120.0
            },
            {
                "start_time": 57.293181818181814,
                "end_time": 57.49772727272727,
                "pitch": 29,
                "velocity": 80,
                "duration": 0.20454545454545325,
                "tempo": 120.0
            },
            {
                "start_time": 57.49772727272727,
                "end_time": 57.60909090909091,
                "pitch": 16,
                "velocity": 80,
                "duration": 0.11136363636364166,
                "tempo": 120.0
            },
            {
                "start_time": 57.60909090909091,
                "end_time": 57.70454545454545,
                "pitch": 29,
                "velocity": 80,
                "duration": 0.0954545454545439,
                "tempo": 120.0
            },
            {
                "start_time": 57.70681818181818,
                "end_time": 57.80681818181818,
                "pitch": 23,
                "velocity": 80,
                "duration": 0.10000000000000142,
                "tempo": 120.0
            },
            {
                "start_time": 57.80681818181818,
                "end_time": 57.925,
                "pitch": 23,
                "velocity": 80,
                "duration": 0.11818181818181728,
                "tempo": 120.0
            },
            {
                "start_time": 57.92727272727272,
                "end_time": 58.027272727272724,
                "pitch": 35,
                "velocity": 80,
                "duration": 0.10000000000000142,
                "tempo": 120.0
            },
            {
                "start_time": 58.02954545454545,
                "end_time": 58.14772727272727,
                "pitch": 23,
                "velocity": 80,
                "duration": 0.11818181818182438,
                "tempo": 120.0
            },
            {
                "start_time": 58.15,
                "end_time": 58.365909090909085,
                "pitch": 24,
                "velocity": 80,
                "duration": 0.2159090909090864,
                "tempo": 120.0
            },
            {
                "start_time": 58.365909090909085,
                "end_time": 58.56590909090909,
                "pitch": 24,
                "velocity": 80,
                "duration": 0.20000000000000284,
                "tempo": 120.0
            },
            {
                "start_time": 58.56590909090909,
                "end_time": 58.67727272727272,
                "pitch": 24,
                "velocity": 80,
                "duration": 0.11136363636363455,
                "tempo": 120.0
            },
            {
                "start_time": 58.67727272727272,
                "end_time": 58.77272727272727,
                "pitch": 24,
                "velocity": 80,
                "duration": 0.09545454545455101,
                "tempo": 120.0
            },
            {
                "start_time": 58.77272727272727,
                "end_time": 58.88409090909091,
                "pitch": 36,
                "velocity": 80,
                "duration": 0.11136363636363455,
                "tempo": 120.0
            },
            {
                "start_time": 58.88409090909091,
                "end_time": 58.97954545454545,
                "pitch": 24,
                "velocity": 80,
                "duration": 0.0954545454545439,
                "tempo": 120.0
            },
            {
                "start_time": 58.97954545454545,
                "end_time": 59.195454545454545,
                "pitch": 24,
                "velocity": 80,
                "duration": 0.2159090909090935,
                "tempo": 120.0
            },
            {
                "start_time": 59.19772727272727,
                "end_time": 59.413636363636364,
                "pitch": 24,
                "velocity": 80,
                "duration": 0.2159090909090935,
                "tempo": 120.0
            },
            {
                "start_time": 59.413636363636364,
                "end_time": 59.63409090909091,
                "pitch": 28,
                "velocity": 80,
                "duration": 0.2204545454545439,
                "tempo": 120.0
            },
            {
                "start_time": 59.63636363636363,
                "end_time": 59.736363636363635,
                "pitch": 28,
                "velocity": 80,
                "duration": 0.10000000000000142,
                "tempo": 120.0
            },
            {
                "start_time": 59.73863636363636,
                "end_time": 59.83863636363636,
                "pitch": 28,
                "velocity": 80,
                "duration": 0.10000000000000142,
                "tempo": 120.0
            },
            {
                "start_time": 59.840909090909086,
                "end_time": 60.04545454545454,
                "pitch": 26,
                "velocity": 80,
                "duration": 0.20454545454545325,
                "tempo": 120.0
            },
            {
                "start_time": 60.04772727272727,
                "end_time": 60.252272727272725,
                "pitch": 26,
                "velocity": 80,
                "duration": 0.20454545454545325,
                "tempo": 120.0
            },
            {
                "start_time": 60.25454545454545,
                "end_time": 60.37045454545454,
                "pitch": 26,
                "velocity": 80,
                "duration": 0.11590909090909207,
                "tempo": 120.0
            },
            {
                "start_time": 60.37272727272727,
                "end_time": 60.474999999999994,
                "pitch": 26,
                "velocity": 80,
                "duration": 0.10227272727272663,
                "tempo": 120.0
            },
            {
                "start_time": 60.474999999999994,
                "end_time": 60.57727272727272,
                "pitch": 38,
                "velocity": 80,
                "duration": 0.10227272727272663,
                "tempo": 120.0
            },
            {
                "start_time": 60.57727272727272,
                "end_time": 60.695454545454545,
                "pitch": 26,
                "velocity": 80,
                "duration": 0.11818181818182438,
                "tempo": 120.0
            },
            {
                "start_time": 60.69772727272727,
                "end_time": 60.913636363636364,
                "pitch": 26,
                "velocity": 80,
                "duration": 0.2159090909090935,
                "tempo": 120.0
            },
            {
                "start_time": 60.913636363636364,
                "end_time": 61.12954545454545,
                "pitch": 26,
                "velocity": 80,
                "duration": 0.2159090909090864,
                "tempo": 120.0
            },
            {
                "start_time": 61.131818181818176,
                "end_time": 61.32954545454545,
                "pitch": 30,
                "velocity": 80,
                "duration": 0.19772727272727764,
                "tempo": 120.0
            },
            {
                "start_time": 61.33181818181818,
                "end_time": 61.44772727272727,
                "pitch": 30,
                "velocity": 80,
                "duration": 0.11590909090909207,
                "tempo": 120.0
            },
            {
                "start_time": 61.44772727272727,
                "end_time": 61.54772727272727,
                "pitch": 30,
                "velocity": 80,
                "duration": 0.10000000000000142,
                "tempo": 120.0
            },
            {
                "start_time": 61.55,
                "end_time": 61.76136363636363,
                "pitch": 28,
                "velocity": 80,
                "duration": 0.21136363636363598,
                "tempo": 120.0
            },
            {
                "start_time": 61.76136363636363,
                "end_time": 61.97272727272727,
                "pitch": 28,
                "velocity": 80,
                "duration": 0.21136363636363598,
                "tempo": 120.0
            },
            {
                "start_time": 61.974999999999994,
                "end_time": 62.07272727272727,
                "pitch": 28,
                "velocity": 80,
                "duration": 0.09772727272727622,
                "tempo": 120.0
            },
            {
                "start_time": 62.07272727272727,
                "end_time": 62.19090909090909,
                "pitch": 28,
                "velocity": 80,
                "duration": 0.11818181818181728,
                "tempo": 120.0
            },
            {
                "start_time": 62.19090909090909,
                "end_time": 62.29090909090909,
                "pitch": 40,
                "velocity": 80,
                "duration": 0.10000000000000142,
                "tempo": 120.0
            },
            {
                "start_time": 62.29090909090909,
                "end_time": 62.40681818181818,
                "pitch": 28,
                "velocity": 80,
                "duration": 0.11590909090909207,
                "tempo": 120.0
            },
            {
                "start_time": 62.40909090909091,
                "end_time": 62.625,
                "pitch": 28,
                "velocity": 80,
                "duration": 0.2159090909090935,
                "tempo": 120.0
            },
            {
                "start_time": 62.625,
                "end_time": 62.824999999999996,
                "pitch": 28,
                "velocity": 80,
                "duration": 0.19999999999999574,
                "tempo": 120.0
            },
            {
                "start_time": 62.824999999999996,
                "end_time": 63.03636363636363,
                "pitch": 28,
                "velocity": 80,
                "duration": 0.21136363636363598,
                "tempo": 120.0
            },
            {
                "start_time": 63.038636363636364,
                "end_time": 63.152272727272724,
                "pitch": 28,
                "velocity": 80,
                "duration": 0.11363636363635976,
                "tempo": 120.0
            },
            {
                "start_time": 63.152272727272724,
                "end_time": 63.25,
                "pitch": 28,
                "velocity": 80,
                "duration": 0.09772727272727622,
                "tempo": 120.0
            },
            {
                "start_time": 63.25,
                "end_time": 63.465909090909086,
                "pitch": 31,
                "velocity": 80,
                "duration": 0.2159090909090864,
                "tempo": 120.0
            },
            {
                "start_time": 63.46818181818181,
                "end_time": 63.56590909090909,
                "pitch": 31,
                "velocity": 80,
                "duration": 0.09772727272727622,
                "tempo": 120.0
            },
            {
                "start_time": 63.56818181818181,
                "end_time": 63.684090909090905,
                "pitch": 43,
                "velocity": 80,
                "duration": 0.11590909090909207,
                "tempo": 120.0
            },
            {
                "start_time": 63.684090909090905,
                "end_time": 63.78409090909091,
                "pitch": 31,
                "velocity": 80,
                "duration": 0.10000000000000142,
                "tempo": 120.0
            },
            {
                "start_time": 63.78409090909091,
                "end_time": 63.9,
                "pitch": 31,
                "velocity": 80,
                "duration": 0.11590909090909207,
                "tempo": 120.0
            },
            {
                "start_time": 63.902272727272724,
                "end_time": 64.00227272727273,
                "pitch": 43,
                "velocity": 80,
                "duration": 0.10000000000000142,
                "tempo": 120.0
            },
            {
                "start_time": 64.00227272727273,
                "end_time": 64.11818181818181,
                "pitch": 31,
                "velocity": 80,
                "duration": 0.11590909090908497,
                "tempo": 120.0
            },
            {
                "start_time": 64.11818181818181,
                "end_time": 64.31818181818181,
                "pitch": 31,
                "velocity": 80,
                "duration": 0.20000000000000284,
                "tempo": 120.0
            },
            {
                "start_time": 64.31818181818181,
                "end_time": 64.53636363636363,
                "pitch": 31,
                "velocity": 80,
                "duration": 0.2181818181818187,
                "tempo": 120.0
            },
            {
                "start_time": 64.53636363636363,
                "end_time": 64.74772727272727,
                "pitch": 31,
                "velocity": 80,
                "duration": 0.21136363636364308,
                "tempo": 120.0
            },
            {
                "start_time": 64.75,
                "end_time": 64.86136363636363,
                "pitch": 31,
                "velocity": 80,
                "duration": 0.11136363636363455,
                "tempo": 120.0
            },
            {
                "start_time": 64.86363636363636,
                "end_time": 64.96136363636363,
                "pitch": 31,
                "velocity": 80,
                "duration": 0.09772727272726911,
                "tempo": 120.0
            },
            {
                "start_time": 64.96136363636363,
                "end_time": 65.17727272727272,
                "pitch": 21,
                "velocity": 80,
                "duration": 0.2159090909090935,
                "tempo": 120.0
            },
            {
                "start_time": 65.17727272727272,
                "end_time": 65.39545454545454,
                "pitch": 21,
                "velocity": 80,
                "duration": 0.2181818181818187,
                "tempo": 120.0
            },
            {
                "start_time": 65.39545454545454,
                "end_time": 65.49545454545454,
                "pitch": 21,
                "velocity": 80,
                "duration": 0.09999999999999432,
                "tempo": 120.0
            },
            {
                "start_time": 65.49772727272727,
                "end_time": 65.61590909090908,
                "pitch": 21,
                "velocity": 80,
                "duration": 0.11818181818181017,
                "tempo": 120.0
            },
            {
                "start_time": 65.61818181818181,
                "end_time": 65.71818181818182,
                "pitch": 33,
                "velocity": 80,
                "duration": 0.10000000000000853,
                "tempo": 120.0
            },
            {
                "start_time": 65.72045454545454,
                "end_time": 65.82045454545454,
                "pitch": 21,
                "velocity": 80,
                "duration": 0.09999999999999432,
                "tempo": 120.0
            },
            {
                "start_time": 65.82272727272726,
                "end_time": 66.02727272727273,
                "pitch": 21,
                "velocity": 80,
                "duration": 0.20454545454546746,
                "tempo": 120.0
            },
            {
                "start_time": 66.02954545454546,
                "end_time": 66.23409090909091,
                "pitch": 21,
                "velocity": 80,
                "duration": 0.20454545454545325,
                "tempo": 120.0
            },
            {
                "start_time": 66.23636363636363,
                "end_time": 66.45227272727273,
                "pitch": 21,
                "velocity": 80,
                "duration": 0.2159090909090935,
                "tempo": 120.0
            },
            {
                "start_time": 66.45227272727273,
                "end_time": 66.55227272727272,
                "pitch": 21,
                "velocity": 80,
                "duration": 0.09999999999999432,
                "tempo": 120.0
            },
            {
                "start_time": 66.55227272727272,
                "end_time": 66.66818181818182,
                "pitch": 21,
                "velocity": 80,
                "duration": 0.11590909090909918,
                "tempo": 120.0
            },
            {
                "start_time": 66.67045454545455,
                "end_time": 66.89090909090909,
                "pitch": 23,
                "velocity": 80,
                "duration": 0.2204545454545439,
                "tempo": 120.0
            },
            {
                "start_time": 66.89090909090909,
                "end_time": 66.99318181818181,
                "pitch": 23,
                "velocity": 80,
                "duration": 0.10227272727271952,
                "tempo": 120.0
            },
            {
                "start_time": 66.99318181818181,
                "end_time": 67.11363636363636,
                "pitch": 35,
                "velocity": 80,
                "duration": 0.12045454545454959,
                "tempo": 120.0
            },
            {
                "start_time": 67.11363636363636,
                "end_time": 67.21136363636363,
                "pitch": 23,
                "velocity": 80,
                "duration": 0.09772727272726911,
                "tempo": 120.0
            },
            {
                "start_time": 67.21363636363635,
                "end_time": 67.31363636363636,
                "pitch": 23,
                "velocity": 80,
                "duration": 0.10000000000000853,
                "tempo": 120.0
            },
            {
                "start_time": 67.31363636363636,
                "end_time": 67.42954545454545,
                "pitch": 35,
                "velocity": 80,
                "duration": 0.11590909090908497,
                "tempo": 120.0
            },
            {
                "start_time": 67.43181818181817,
                "end_time": 67.52954545454546,
                "pitch": 26,
                "velocity": 80,
                "duration": 0.09772727272728332,
                "tempo": 120.0
            },
            {
                "start_time": 67.53181818181818,
                "end_time": 67.74318181818181,
                "pitch": 26,
                "velocity": 80,
                "duration": 0.21136363636362887,
                "tempo": 120.0
            },
            {
                "start_time": 67.74318181818181,
                "end_time": 67.95454545454545,
                "pitch": 27,
                "velocity": 80,
                "duration": 0.21136363636364308,
                "tempo": 120.0
            },
            {
                "start_time": 67.95681818181818,
                "end_time": 68.05454545454545,
                "pitch": 40,
                "velocity": 80,
                "duration": 0.09772727272726911,
                "tempo": 120.0
            },
            {
                "start_time": 68.05681818181817,
                "end_time": 68.17272727272727,
                "pitch": 42,
                "velocity": 80,
                "duration": 0.11590909090909918,
                "tempo": 120.0
            },
            {
                "start_time": 68.17272727272727,
                "end_time": 68.27272727272727,
                "pitch": 43,
                "velocity": 80,
                "duration": 0.09999999999999432,
                "tempo": 120.0
            },
            {
                "start_time": 68.27272727272727,
                "end_time": 68.38863636363637,
                "pitch": 40,
                "velocity": 80,
                "duration": 0.11590909090909918,
                "tempo": 120.0
            },
            {
                "start_time": 68.39090909090909,
                "end_time": 68.60681818181818,
                "pitch": 24,
                "velocity": 80,
                "duration": 0.2159090909090935,
                "tempo": 120.0
            },
            {
                "start_time": 68.60681818181818,
                "end_time": 68.72272727272727,
                "pitch": 24,
                "velocity": 80,
                "duration": 0.11590909090908497,
                "tempo": 120.0
            },
            {
                "start_time": 68.72272727272727,
                "end_time": 68.82272727272726,
                "pitch": 36,
                "velocity": 80,
                "duration": 0.09999999999999432,
                "tempo": 120.0
            },
            {
                "start_time": 68.825,
                "end_time": 68.94090909090909,
                "pitch": 24,
                "velocity": 80,
                "duration": 0.11590909090908497,
                "tempo": 120.0
            },
            {
                "start_time": 68.94090909090909,
                "end_time": 69.04090909090908,
                "pitch": 24,
                "velocity": 80,
                "duration": 0.09999999999999432,
                "tempo": 120.0
            },
            {
                "start_time": 69.04090909090908,
                "end_time": 69.25681818181818,
                "pitch": 36,
                "velocity": 80,
                "duration": 0.2159090909090935,
                "tempo": 120.0
            },
            {
                "start_time": 69.2590909090909,
                "end_time": 69.475,
                "pitch": 24,
                "velocity": 80,
                "duration": 0.2159090909090935,
                "tempo": 120.0
            },
            {
                "start_time": 69.475,
                "end_time": 69.575,
                "pitch": 24,
                "velocity": 80,
                "duration": 0.10000000000000853,
                "tempo": 120.0
            },
            {
                "start_time": 69.575,
                "end_time": 69.69090909090909,
                "pitch": 36,
                "velocity": 80,
                "duration": 0.11590909090908497,
                "tempo": 120.0
            },
            {
                "start_time": 69.69318181818181,
                "end_time": 69.89545454545454,
                "pitch": 23,
                "velocity": 80,
                "duration": 0.20227272727272805,
                "tempo": 120.0
            },
            {
                "start_time": 69.89772727272727,
                "end_time": 70.11818181818181,
                "pitch": 23,
                "velocity": 80,
                "duration": 0.2204545454545439,
                "tempo": 120.0
            },
            {
                "start_time": 70.11818181818181,
                "end_time": 70.325,
                "pitch": 21,
                "velocity": 80,
                "duration": 0.20681818181819267,
                "tempo": 120.0
            },
            {
                "start_time": 70.325,
                "end_time": 70.43636363636364,
                "pitch": 21,
                "velocity": 80,
                "duration": 0.11136363636363455,
                "tempo": 120.0
            },
            {
                "start_time": 70.43636363636364,
                "end_time": 70.53181818181818,
                "pitch": 33,
                "velocity": 80,
                "duration": 0.0954545454545439,
                "tempo": 120.0
            },
            {
                "start_time": 70.53181818181818,
                "end_time": 70.63181818181818,
                "pitch": 23,
                "velocity": 80,
                "duration": 0.09999999999999432,
                "tempo": 120.0
            },
            {
                "start_time": 70.63181818181818,
                "end_time": 70.74772727272727,
                "pitch": 23,
                "velocity": 80,
                "duration": 0.11590909090909918,
                "tempo": 120.0
            },
            {
                "start_time": 70.75,
                "end_time": 70.9659090909091,
                "pitch": 35,
                "velocity": 80,
                "duration": 0.2159090909090935,
                "tempo": 120.0
            },
            {
                "start_time": 70.9659090909091,
                "end_time": 71.18636363636364,
                "pitch": 36,
                "velocity": 80,
                "duration": 0.2204545454545439,
                "tempo": 120.0
            },
            {
                "start_time": 71.18863636363636,
                "end_time": 71.28863636363636,
                "pitch": 35,
                "velocity": 80,
                "duration": 0.09999999999999432,
                "tempo": 120.0
            },
            {
                "start_time": 71.29090909090908,
                "end_time": 71.39318181818182,
                "pitch": 33,
                "velocity": 80,
                "duration": 0.10227272727273373,
                "tempo": 120.0
            },
            {
                "start_time": 71.39318181818182,
                "end_time": 71.50227272727273,
                "pitch": 26,
                "velocity": 80,
                "duration": 0.10909090909090935,
                "tempo": 120.0
            },
            {
                "start_time": 71.50454545454545,
                "end_time": 71.59772727272727,
                "pitch": 38,
                "velocity": 80,
                "duration": 0.0931818181818187,
                "tempo": 120.0
            },
            {
                "start_time": 71.6,
                "end_time": 71.7090909090909,
                "pitch": 36,
                "velocity": 80,
                "duration": 0.10909090909090935,
                "tempo": 120.0
            },
            {
                "start_time": 71.71136363636363,
                "end_time": 71.80681818181817,
                "pitch": 35,
                "velocity": 80,
                "duration": 0.0954545454545439,
                "tempo": 120.0
            },
            {
                "start_time": 71.80681818181817,
                "end_time": 72.02272727272727,
                "pitch": 24,
                "velocity": 80,
                "duration": 0.2159090909090935,
                "tempo": 120.0
            },
            {
                "start_time": 72.02272727272727,
                "end_time": 72.12272727272727,
                "pitch": 24,
                "velocity": 80,
                "duration": 0.10000000000000853,
                "tempo": 120.0
            },
            {
                "start_time": 72.12272727272727,
                "end_time": 72.24090909090908,
                "pitch": 36,
                "velocity": 80,
                "duration": 0.11818181818181017,
                "tempo": 120.0
            },
            {
                "start_time": 72.24090909090908,
                "end_time": 72.34318181818182,
                "pitch": 24,
                "velocity": 80,
                "duration": 0.10227272727273373,
                "tempo": 120.0
            },
            {
                "start_time": 72.34318181818182,
                "end_time": 72.46136363636363,
                "pitch": 24,
                "velocity": 80,
                "duration": 0.11818181818181017,
                "tempo": 120.0
            },
            {
                "start_time": 72.46136363636363,
                "end_time": 72.68409090909091,
                "pitch": 36,
                "velocity": 80,
                "duration": 0.22272727272728332,
                "tempo": 120.0
            },
            {
                "start_time": 72.68409090909091,
                "end_time": 72.8840909090909,
                "pitch": 24,
                "velocity": 80,
                "duration": 0.19999999999998863,
                "tempo": 120.0
            },
            {
                "start_time": 72.8840909090909,
                "end_time": 73.0,
                "pitch": 24,
                "velocity": 80,
                "duration": 0.11590909090909918,
                "tempo": 120.0
            },
            {
                "start_time": 73.0,
                "end_time": 73.1,
                "pitch": 36,
                "velocity": 80,
                "duration": 0.09999999999999432,
                "tempo": 120.0
            },
            {
                "start_time": 73.10227272727272,
                "end_time": 73.31363636363636,
                "pitch": 23,
                "velocity": 80,
                "duration": 0.21136363636364308,
                "tempo": 120.0
            },
            {
                "start_time": 73.31363636363636,
                "end_time": 73.52727272727272,
                "pitch": 23,
                "velocity": 80,
                "duration": 0.21363636363635408,
                "tempo": 120.0
            },
            {
                "start_time": 73.52727272727272,
                "end_time": 73.74318181818181,
                "pitch": 21,
                "velocity": 80,
                "duration": 0.2159090909090935,
                "tempo": 120.0
            },
            {
                "start_time": 73.74318181818181,
                "end_time": 73.84318181818182,
                "pitch": 21,
                "velocity": 80,
                "duration": 0.10000000000000853,
                "tempo": 120.0
            },
            {
                "start_time": 73.84318181818182,
                "end_time": 73.96136363636363,
                "pitch": 33,
                "velocity": 80,
                "duration": 0.11818181818181017,
                "tempo": 120.0
            },
            {
                "start_time": 73.96136363636363,
                "end_time": 74.05909090909091,
                "pitch": 23,
                "velocity": 80,
                "duration": 0.09772727272728332,
                "tempo": 120.0
            },
            {
                "start_time": 74.06136363636364,
                "end_time": 74.17727272727272,
                "pitch": 23,
                "velocity": 80,
                "duration": 0.11590909090908497,
                "tempo": 120.0
            },
            {
                "start_time": 74.17954545454545,
                "end_time": 74.37727272727273,
                "pitch": 35,
                "velocity": 80,
                "duration": 0.19772727272727764,
                "tempo": 120.0
            },
            {
                "start_time": 74.37954545454545,
                "end_time": 74.5909090909091,
                "pitch": 36,
                "velocity": 80,
                "duration": 0.21136363636364308,
                "tempo": 120.0
            },
            {
                "start_time": 74.5909090909091,
                "end_time": 74.70454545454545,
                "pitch": 35,
                "velocity": 80,
                "duration": 0.11363636363635976,
                "tempo": 120.0
            },
            {
                "start_time": 74.70454545454545,
                "end_time": 74.80227272727272,
                "pitch": 33,
                "velocity": 80,
                "duration": 0.09772727272726911,
                "tempo": 120.0
            },
            {
                "start_time": 74.80454545454545,
                "end_time": 74.91818181818182,
                "pitch": 26,
                "velocity": 80,
                "duration": 0.11363636363637397,
                "tempo": 120.0
            },
            {
                "start_time": 74.92045454545455,
                "end_time": 75.02045454545454,
                "pitch": 38,
                "velocity": 80,
                "duration": 0.09999999999999432,
                "tempo": 120.0
            },
            {
                "start_time": 75.02045454545454,
                "end_time": 75.12045454545454,
                "pitch": 36,
                "velocity": 80,
                "duration": 0.09999999999999432,
                "tempo": 120.0
            },
            {
                "start_time": 75.12045454545454,
                "end_time": 75.23636363636363,
                "pitch": 35,
                "velocity": 80,
                "duration": 0.11590909090909918,
                "tempo": 120.0
            },
            {
                "start_time": 75.23863636363636,
                "end_time": 75.45454545454545,
                "pitch": 28,
                "velocity": 80,
                "duration": 0.2159090909090935,
                "tempo": 120.0
            },
            {
                "start_time": 75.45454545454545,
                "end_time": 75.67045454545455,
                "pitch": 40,
                "velocity": 80,
                "duration": 0.2159090909090935,
                "tempo": 120.0
            },
            {
                "start_time": 75.67272727272727,
                "end_time": 75.77045454545454,
                "pitch": 28,
                "velocity": 80,
                "duration": 0.09772727272726911,
                "tempo": 120.0
            },
            {
                "start_time": 75.77045454545454,
                "end_time": 75.87045454545454,
                "pitch": 28,
                "velocity": 80,
                "duration": 0.09999999999999432,
                "tempo": 120.0
            },
            {
                "start_time": 75.87272727272727,
                "end_time": 75.98863636363636,
                "pitch": 40,
                "velocity": 80,
                "duration": 0.11590909090908497,
                "tempo": 120.0
            },
            {
                "start_time": 76.08863636363635,
                "end_time": 76.3,
                "pitch": 28,
                "velocity": 80,
                "duration": 0.21136363636364308,
                "tempo": 120.0
            },
            {
                "start_time": 76.30227272727272,
                "end_time": 76.51363636363637,
                "pitch": 40,
                "velocity": 80,
                "duration": 0.21136363636364308,
                "tempo": 120.0
            },
            {
                "start_time": 76.51363636363637,
                "end_time": 76.73181818181818,
                "pitch": 28,
                "velocity": 80,
                "duration": 0.2181818181818187,
                "tempo": 120.0
            },
            {
                "start_time": 76.73181818181818,
                "end_time": 76.82954545454545,
                "pitch": 28,
                "velocity": 80,
                "duration": 0.09772727272726911,
                "tempo": 120.0
            },
            {
                "start_time": 76.83181818181818,
                "end_time": 76.94772727272726,
                "pitch": 28,
                "velocity": 80,
                "duration": 0.11590909090908497,
                "tempo": 120.0
            },
            {
                "start_time": 76.94772727272726,
                "end_time": 77.16363636363636,
                "pitch": 28,
                "velocity": 80,
                "duration": 0.2159090909090935,
                "tempo": 120.0
            },
            {
                "start_time": 77.16590909090908,
                "end_time": 77.26363636363637,
                "pitch": 40,
                "velocity": 80,
                "duration": 0.09772727272728332,
                "tempo": 120.0
            },
            {
                "start_time": 77.26590909090909,
                "end_time": 77.36590909090908,
                "pitch": 28,
                "velocity": 80,
                "duration": 0.09999999999999432,
                "tempo": 120.0
            },
            {
                "start_time": 77.36590909090908,
                "end_time": 77.47954545454544,
                "pitch": 28,
                "velocity": 80,
                "duration": 0.11363636363635976,
                "tempo": 120.0
            },
            {
                "start_time": 77.47954545454544,
                "end_time": 77.57727272727273,
                "pitch": 28,
                "velocity": 80,
                "duration": 0.09772727272728332,
                "tempo": 120.0
            },
            {
                "start_time": 77.57954545454545,
                "end_time": 77.69090909090909,
                "pitch": 40,
                "velocity": 80,
                "duration": 0.11136363636363455,
                "tempo": 120.0
            },
            {
                "start_time": 77.79090909090908,
                "end_time": 77.90681818181818,
                "pitch": 28,
                "velocity": 80,
                "duration": 0.11590909090909918,
                "tempo": 120.0
            },
            {
                "start_time": 77.90681818181818,
                "end_time": 78.00681818181818,
                "pitch": 40,
                "velocity": 80,
                "duration": 0.09999999999999432,
                "tempo": 120.0
            },
            {
                "start_time": 78.0090909090909,
                "end_time": 78.10681818181818,
                "pitch": 28,
                "velocity": 80,
                "duration": 0.09772727272728332,
                "tempo": 120.0
            },
            {
                "start_time": 78.225,
                "end_time": 78.44545454545454,
                "pitch": 28,
                "velocity": 80,
                "duration": 0.2204545454545439,
                "tempo": 120.0
            },
            {
                "start_time": 78.44772727272726,
                "end_time": 78.54772727272727,
                "pitch": 28,
                "velocity": 80,
                "duration": 0.10000000000000853,
                "tempo": 120.0
            },
            {
                "start_time": 78.55,
                "end_time": 78.66818181818181,
                "pitch": 28,
                "velocity": 80,
                "duration": 0.11818181818181017,
                "tempo": 120.0
            },
            {
                "start_time": 78.66818181818181,
                "end_time": 78.86818181818181,
                "pitch": 28,
                "velocity": 80,
                "duration": 0.20000000000000284,
                "tempo": 120.0
            },
            {
                "start_time": 78.86818181818181,
                "end_time": 79.08636363636363,
                "pitch": 40,
                "velocity": 80,
                "duration": 0.2181818181818187,
                "tempo": 120.0
            },
            {
                "start_time": 79.08636363636363,
                "end_time": 79.19545454545454,
                "pitch": 28,
                "velocity": 80,
                "duration": 0.10909090909090935,
                "tempo": 120.0
            },
            {
                "start_time": 79.19772727272726,
                "end_time": 79.29090909090908,
                "pitch": 28,
                "velocity": 80,
                "duration": 0.0931818181818187,
                "tempo": 120.0
            },
            {
                "start_time": 79.29318181818181,
                "end_time": 79.40227272727272,
                "pitch": 40,
                "velocity": 80,
                "duration": 0.10909090909090935,
                "tempo": 120.0
            },
            {
                "start_time": 79.5,
                "end_time": 79.7159090909091,
                "pitch": 28,
                "velocity": 80,
                "duration": 0.2159090909090935,
                "tempo": 120.0
            },
            {
                "start_time": 79.7159090909091,
                "end_time": 79.93409090909091,
                "pitch": 40,
                "velocity": 80,
                "duration": 0.2181818181818187,
                "tempo": 120.0
            },
            {
                "start_time": 79.93409090909091,
                "end_time": 80.15454545454546,
                "pitch": 28,
                "velocity": 80,
                "duration": 0.2204545454545439,
                "tempo": 120.0
            },
            {
                "start_time": 80.15681818181818,
                "end_time": 80.25681818181818,
                "pitch": 28,
                "velocity": 80,
                "duration": 0.09999999999999432,
                "tempo": 120.0
            },
            {
                "start_time": 80.25681818181818,
                "end_time": 80.35909090909091,
                "pitch": 28,
                "velocity": 80,
                "duration": 0.10227272727273373,
                "tempo": 120.0
            },
            {
                "start_time": 80.36136363636363,
                "end_time": 80.56590909090909,
                "pitch": 31,
                "velocity": 80,
                "duration": 0.20454545454545325,
                "tempo": 120.0
            },
            {
                "start_time": 80.56590909090909,
                "end_time": 80.67727272727272,
                "pitch": 19,
                "velocity": 80,
                "duration": 0.11136363636363455,
                "tempo": 120.0
            },
            {
                "start_time": 80.67727272727272,
                "end_time": 80.77272727272727,
                "pitch": 31,
                "velocity": 80,
                "duration": 0.0954545454545439,
                "tempo": 120.0
            },
            {
                "start_time": 80.77499999999999,
                "end_time": 80.89090909090909,
                "pitch": 30,
                "velocity": 80,
                "duration": 0.11590909090909918,
                "tempo": 120.0
            },
            {
                "start_time": 80.89318181818182,
                "end_time": 80.99318181818181,
                "pitch": 30,
                "velocity": 80,
                "duration": 0.09999999999999432,
                "tempo": 120.0
            },
            {
                "start_time": 80.99545454545454,
                "end_time": 81.09545454545454,
                "pitch": 18,
                "velocity": 80,
                "duration": 0.10000000000000853,
                "tempo": 120.0
            },
            {
                "start_time": 81.21818181818182,
                "end_time": 81.43181818181817,
                "pitch": 29,
                "velocity": 80,
                "duration": 0.21363636363635408,
                "tempo": 120.0
            },
            {
                "start_time": 81.43409090909091,
                "end_time": 81.5340909090909,
                "pitch": 16,
                "velocity": 80,
                "duration": 0.09999999999999432,
                "tempo": 120.0
            },
            {
                "start_time": 81.5340909090909,
                "end_time": 81.64999999999999,
                "pitch": 29,
                "velocity": 80,
                "duration": 0.11590909090908497,
                "tempo": 120.0
            },
            {
                "start_time": 81.65227272727272,
                "end_time": 81.75,
                "pitch": 23,
                "velocity": 80,
                "duration": 0.09772727272728332,
                "tempo": 120.0
            },
            {
                "start_time": 81.75,
                "end_time": 81.85,
                "pitch": 23,
                "velocity": 80,
                "duration": 0.09999999999999432,
                "tempo": 120.0
            },
            {
                "start_time": 81.85227272727272,
                "end_time": 81.96818181818182,
                "pitch": 35,
                "velocity": 80,
                "duration": 0.11590909090909918,
                "tempo": 120.0
            },
            {
                "start_time": 81.96818181818182,
                "end_time": 82.06818181818181,
                "pitch": 23,
                "velocity": 80,
                "duration": 0.09999999999999432,
                "tempo": 120.0
            },
            {
                "start_time": 82.06818181818181,
                "end_time": 82.27954545454546,
                "pitch": 28,
                "velocity": 80,
                "duration": 0.21136363636364308,
                "tempo": 120.0
            },
            {
                "start_time": 82.28181818181818,
                "end_time": 82.49318181818181,
                "pitch": 40,
                "velocity": 80,
                "duration": 0.21136363636362887,
                "tempo": 120.0
            },
            {
                "start_time": 82.49318181818181,
                "end_time": 82.59318181818182,
                "pitch": 28,
                "velocity": 80,
                "duration": 0.10000000000000853,
                "tempo": 120.0
            },
            {
                "start_time": 82.59318181818182,
                "end_time": 82.7090909090909,
                "pitch": 28,
                "velocity": 80,
                "duration": 0.11590909090908497,
                "tempo": 120.0
            },
            {
                "start_time": 82.71136363636363,
                "end_time": 82.8090909090909,
                "pitch": 40,
                "velocity": 80,
                "duration": 0.09772727272726911,
                "tempo": 120.0
            },
            {
                "start_time": 82.92727272727272,
                "end_time": 83.14318181818182,
                "pitch": 28,
                "velocity": 80,
                "duration": 0.2159090909090935,
                "tempo": 120.0
            },
            {
                "start_time": 83.14545454545454,
                "end_time": 83.34545454545454,
                "pitch": 40,
                "velocity": 80,
                "duration": 0.20000000000000284,
                "tempo": 120.0
            },
            {
                "start_time": 83.34545454545454,
                "end_time": 83.55681818181817,
                "pitch": 28,
                "velocity": 80,
                "duration": 0.21136363636362887,
                "tempo": 120.0
            },
            {
                "start_time": 83.5590909090909,
                "end_time": 83.67045454545455,
                "pitch": 28,
                "velocity": 80,
                "duration": 0.11136363636364877,
                "tempo": 120.0
            },
            {
                "start_time": 83.67272727272727,
                "end_time": 83.77045454545454,
                "pitch": 28,
                "velocity": 80,
                "duration": 0.09772727272726911,
                "tempo": 120.0
            },
            {
                "start_time": 83.77045454545454,
                "end_time": 83.98636363636363,
                "pitch": 28,
                "velocity": 80,
                "duration": 0.2159090909090935,
                "tempo": 120.0
            },
            {
                "start_time": 83.98636363636363,
                "end_time": 84.08636363636363,
                "pitch": 40,
                "velocity": 80,
                "duration": 0.09999999999999432,
                "tempo": 120.0
            },
            {
                "start_time": 84.08636363636363,
                "end_time": 84.20454545454545,
                "pitch": 28,
                "velocity": 80,
                "duration": 0.11818181818182438,
                "tempo": 120.0
            },
            {
                "start_time": 84.20454545454545,
                "end_time": 84.30227272727272,
                "pitch": 28,
                "velocity": 80,
                "duration": 0.09772727272726911,
                "tempo": 120.0
            },
            {
                "start_time": 84.30454545454545,
                "end_time": 84.42045454545455,
                "pitch": 28,
                "velocity": 80,
                "duration": 0.11590909090909918,
                "tempo": 120.0
            },
            {
                "start_time": 84.42045454545455,
                "end_time": 84.52045454545454,
                "pitch": 40,
                "velocity": 80,
                "duration": 0.09999999999999432,
                "tempo": 120.0
            },
            {
                "start_time": 84.63863636363637,
                "end_time": 84.73863636363636,
                "pitch": 28,
                "velocity": 80,
                "duration": 0.09999999999999432,
                "tempo": 120.0
            },
            {
                "start_time": 84.73863636363636,
                "end_time": 84.83863636363635,
                "pitch": 40,
                "velocity": 80,
                "duration": 0.09999999999999432,
                "tempo": 120.0
            },
            {
                "start_time": 84.83863636363635,
                "end_time": 84.95454545454545,
                "pitch": 28,
                "velocity": 80,
                "duration": 0.11590909090909918,
                "tempo": 120.0
            },
            {
                "start_time": 85.05681818181817,
                "end_time": 85.26818181818182,
                "pitch": 28,
                "velocity": 80,
                "duration": 0.21136363636364308,
                "tempo": 120.0
            },
            {
                "start_time": 85.26818181818182,
                "end_time": 85.38181818181818,
                "pitch": 28,
                "velocity": 80,
                "duration": 0.11363636363635976,
                "tempo": 120.0
            },
            {
                "start_time": 85.38181818181818,
                "end_time": 85.47954545454544,
                "pitch": 28,
                "velocity": 80,
                "duration": 0.09772727272726911,
                "tempo": 120.0
            },
            {
                "start_time": 85.48181818181818,
                "end_time": 85.69772727272726,
                "pitch": 28,
                "velocity": 80,
                "duration": 0.21590909090907928,
                "tempo": 120.0
            },
            {
                "start_time": 85.69772727272726,
                "end_time": 85.91363636363636,
                "pitch": 40,
                "velocity": 80,
                "duration": 0.2159090909090935,
                "tempo": 120.0
            },
            {
                "start_time": 85.91590909090908,
                "end_time": 86.01363636363637,
                "pitch": 28,
                "velocity": 80,
                "duration": 0.09772727272728332,
                "tempo": 120.0
            },
            {
                "start_time": 86.01590909090909,
                "end_time": 86.13181818181818,
                "pitch": 28,
                "velocity": 80,
                "duration": 0.11590909090908497,
                "tempo": 120.0
            },
            {
                "start_time": 86.13181818181818,
                "end_time": 86.23181818181818,
                "pitch": 40,
                "velocity": 80,
                "duration": 0.10000000000000853,
                "tempo": 120.0
            },
            {
                "start_time": 86.33181818181818,
                "end_time": 86.54318181818181,
                "pitch": 28,
                "velocity": 80,
                "duration": 0.21136363636362887,
                "tempo": 120.0
            },
            {
                "start_time": 86.54545454545455,
                "end_time": 86.75681818181818,
                "pitch": 40,
                "velocity": 80,
                "duration": 0.21136363636362887,
                "tempo": 120.0
            },
            {
                "start_time": 86.7590909090909,
                "end_time": 86.975,
                "pitch": 28,
                "velocity": 80,
                "duration": 0.2159090909090935,
                "tempo": 120.0
            },
            {
                "start_time": 86.975,
                "end_time": 87.07272727272726,
                "pitch": 28,
                "velocity": 80,
                "duration": 0.09772727272726911,
                "tempo": 120.0
            },
            {
                "start_time": 87.075,
                "end_time": 87.19090909090909,
                "pitch": 28,
                "velocity": 80,
                "duration": 0.11590909090908497,
                "tempo": 120.0
            },
            {
                "start_time": 87.19318181818181,
                "end_time": 87.41136363636363,
                "pitch": 31,
                "velocity": 80,
                "duration": 0.2181818181818187,
                "tempo": 120.0
            },
            {
                "start_time": 87.41363636363636,
                "end_time": 87.51363636363637,
                "pitch": 19,
                "velocity": 80,
                "duration": 0.10000000000000853,
                "tempo": 120.0
            },
            {
                "start_time": 87.51590909090909,
                "end_time": 87.6340909090909,
                "pitch": 31,
                "velocity": 80,
                "duration": 0.11818181818181017,
                "tempo": 120.0
            },
            {
                "start_time": 87.63636363636363,
                "end_time": 87.73409090909091,
                "pitch": 30,
                "velocity": 80,
                "duration": 0.09772727272728332,
                "tempo": 120.0
            },
            {
                "start_time": 87.73409090909091,
                "end_time": 87.8340909090909,
                "pitch": 30,
                "velocity": 80,
                "duration": 0.09999999999999432,
                "tempo": 120.0
            },
            {
                "start_time": 87.83636363636363,
                "end_time": 87.95227272727273,
                "pitch": 18,
                "velocity": 80,
                "duration": 0.11590909090909918,
                "tempo": 120.0
            },
            {
                "start_time": 88.05227272727272,
                "end_time": 88.2590909090909,
                "pitch": 29,
                "velocity": 80,
                "duration": 0.20681818181817846,
                "tempo": 120.0
            },
            {
                "start_time": 88.2590909090909,
                "end_time": 88.37045454545454,
                "pitch": 16,
                "velocity": 80,
                "duration": 0.11136363636363455,
                "tempo": 120.0
            },
            {
                "start_time": 88.37045454545454,
                "end_time": 88.4659090909091,
                "pitch": 29,
                "velocity": 80,
                "duration": 0.09545454545455812,
                "tempo": 120.0
            },
            {
                "start_time": 88.4659090909091,
                "end_time": 88.56590909090909,
                "pitch": 23,
                "velocity": 80,
                "duration": 0.09999999999999432,
                "tempo": 120.0
            },
            {
                "start_time": 88.56818181818181,
                "end_time": 88.68636363636364,
                "pitch": 23,
                "velocity": 80,
                "duration": 0.11818181818182438,
                "tempo": 120.0
            },
            {
                "start_time": 88.68636363636364,
                "end_time": 88.78863636363636,
                "pitch": 35,
                "velocity": 80,
                "duration": 0.10227272727271952,
                "tempo": 120.0
            },
            {
                "start_time": 88.79090909090908,
                "end_time": 88.9090909090909,
                "pitch": 23,
                "velocity": 80,
                "duration": 0.11818181818182438,
                "tempo": 120.0
            },
            {
                "start_time": 88.9090909090909,
                "end_time": 89.125,
                "pitch": 24,
                "velocity": 80,
                "duration": 0.2159090909090935,
                "tempo": 120.0
            },
            {
                "start_time": 89.12727272727273,
                "end_time": 89.32499999999999,
                "pitch": 24,
                "velocity": 80,
                "duration": 0.19772727272726343,
                "tempo": 120.0
            },
            {
                "start_time": 89.32727272727273,
                "end_time": 89.43636363636364,
                "pitch": 24,
                "velocity": 80,
                "duration": 0.10909090909090935,
                "tempo": 120.0
            },
            {
                "start_time": 89.43863636363636,
                "end_time": 89.53181818181818,
                "pitch": 24,
                "velocity": 80,
                "duration": 0.0931818181818187,
                "tempo": 120.0
            },
            {
                "start_time": 89.5340909090909,
                "end_time": 89.64318181818182,
                "pitch": 36,
                "velocity": 80,
                "duration": 0.10909090909090935,
                "tempo": 120.0
            },
            {
                "start_time": 89.64545454545454,
                "end_time": 89.73863636363636,
                "pitch": 24,
                "velocity": 80,
                "duration": 0.0931818181818187,
                "tempo": 120.0
            },
            {
                "start_time": 89.74090909090908,
                "end_time": 89.96136363636363,
                "pitch": 24,
                "velocity": 80,
                "duration": 0.2204545454545439,
                "tempo": 120.0
            },
            {
                "start_time": 89.96136363636363,
                "end_time": 90.18181818181817,
                "pitch": 24,
                "velocity": 80,
                "duration": 0.2204545454545439,
                "tempo": 120.0
            },
            {
                "start_time": 90.1840909090909,
                "end_time": 90.39999999999999,
                "pitch": 28,
                "velocity": 80,
                "duration": 0.2159090909090935,
                "tempo": 120.0
            },
            {
                "start_time": 90.39999999999999,
                "end_time": 90.5,
                "pitch": 28,
                "velocity": 80,
                "duration": 0.10000000000000853,
                "tempo": 120.0
            },
            {
                "start_time": 90.5,
                "end_time": 90.6,
                "pitch": 28,
                "velocity": 80,
                "duration": 0.09999999999999432,
                "tempo": 120.0
            },
            {
                "start_time": 90.6,
                "end_time": 90.81363636363636,
                "pitch": 26,
                "velocity": 80,
                "duration": 0.2136363636363683,
                "tempo": 120.0
            },
            {
                "start_time": 90.81363636363636,
                "end_time": 91.02499999999999,
                "pitch": 26,
                "velocity": 80,
                "duration": 0.21136363636362887,
                "tempo": 120.0
            },
            {
                "start_time": 91.02727272727272,
                "end_time": 91.14090909090909,
                "pitch": 26,
                "velocity": 80,
                "duration": 0.11363636363637397,
                "tempo": 120.0
            },
            {
                "start_time": 91.14318181818182,
                "end_time": 91.24318181818181,
                "pitch": 26,
                "velocity": 80,
                "duration": 0.09999999999999432,
                "tempo": 120.0
            },
            {
                "start_time": 91.24318181818181,
                "end_time": 91.34318181818182,
                "pitch": 38,
                "velocity": 80,
                "duration": 0.10000000000000853,
                "tempo": 120.0
            },
            {
                "start_time": 91.34318181818182,
                "end_time": 91.4590909090909,
                "pitch": 26,
                "velocity": 80,
                "duration": 0.11590909090908497,
                "tempo": 120.0
            },
            {
                "start_time": 91.46136363636363,
                "end_time": 91.67727272727272,
                "pitch": 26,
                "velocity": 80,
                "duration": 0.2159090909090935,
                "tempo": 120.0
            },
            {
                "start_time": 91.67727272727272,
                "end_time": 91.89318181818182,
                "pitch": 26,
                "velocity": 80,
                "duration": 0.2159090909090935,
                "tempo": 120.0
            },
            {
                "start_time": 91.89545454545454,
                "end_time": 92.09318181818182,
                "pitch": 30,
                "velocity": 80,
                "duration": 0.19772727272727764,
                "tempo": 120.0
            },
            {
                "start_time": 92.09545454545454,
                "end_time": 92.21136363636363,
                "pitch": 30,
                "velocity": 80,
                "duration": 0.11590909090908497,
                "tempo": 120.0
            },
            {
                "start_time": 92.21136363636363,
                "end_time": 92.31136363636364,
                "pitch": 30,
                "velocity": 80,
                "duration": 0.10000000000000853,
                "tempo": 120.0
            },
            {
                "start_time": 92.31136363636364,
                "end_time": 92.52272727272727,
                "pitch": 28,
                "velocity": 80,
                "duration": 0.21136363636362887,
                "tempo": 120.0
            },
            {
                "start_time": 92.52499999999999,
                "end_time": 92.73636363636363,
                "pitch": 28,
                "velocity": 80,
                "duration": 0.21136363636364308,
                "tempo": 120.0
            },
            {
                "start_time": 92.73636363636363,
                "end_time": 92.83636363636363,
                "pitch": 28,
                "velocity": 80,
                "duration": 0.09999999999999432,
                "tempo": 120.0
            },
            {
                "start_time": 92.83636363636363,
                "end_time": 92.95227272727273,
                "pitch": 28,
                "velocity": 80,
                "duration": 0.11590909090909918,
                "tempo": 120.0
            },
            {
                "start_time": 92.95454545454545,
                "end_time": 93.05454545454545,
                "pitch": 40,
                "velocity": 80,
                "duration": 0.09999999999999432,
                "tempo": 120.0
            },
            {
                "start_time": 93.05454545454545,
                "end_time": 93.17045454545455,
                "pitch": 28,
                "velocity": 80,
                "duration": 0.11590909090909918,
                "tempo": 120.0
            },
            {
                "start_time": 93.17045454545455,
                "end_time": 93.38636363636363,
                "pitch": 28,
                "velocity": 80,
                "duration": 0.21590909090907928,
                "tempo": 120.0
            },
            {
                "start_time": 93.38863636363637,
                "end_time": 93.58636363636363,
                "pitch": 28,
                "velocity": 80,
                "duration": 0.19772727272726343,
                "tempo": 120.0
            },
            {
                "start_time": 93.58863636363635,
                "end_time": 93.8,
                "pitch": 28,
                "velocity": 80,
                "duration": 0.21136363636364308,
                "tempo": 120.0
            },
            {
                "start_time": 93.8,
                "end_time": 93.91363636363636,
                "pitch": 28,
                "velocity": 80,
                "duration": 0.11363636363635976,
                "tempo": 120.0
            },
            {
                "start_time": 93.91590909090908,
                "end_time": 94.01363636363637,
                "pitch": 28,
                "velocity": 80,
                "duration": 0.09772727272728332,
                "tempo": 120.0
            },
            {
                "start_time": 94.01363636363637,
                "end_time": 94.22954545454544,
                "pitch": 31,
                "velocity": 80,
                "duration": 0.21590909090907928,
                "tempo": 120.0
            },
            {
                "start_time": 94.22954545454544,
                "end_time": 94.32954545454545,
                "pitch": 31,
                "velocity": 80,
                "duration": 0.10000000000000853,
                "tempo": 120.0
            },
            {
                "start_time": 94.32954545454545,
                "end_time": 94.44772727272726,
                "pitch": 43,
                "velocity": 80,
                "duration": 0.11818181818181017,
                "tempo": 120.0
            },
            {
                "start_time": 94.44772727272726,
                "end_time": 94.54772727272727,
                "pitch": 31,
                "velocity": 80,
                "duration": 0.10000000000000853,
                "tempo": 120.0
            },
            {
                "start_time": 94.54772727272727,
                "end_time": 94.66363636363636,
                "pitch": 31,
                "velocity": 80,
                "duration": 0.11590909090908497,
                "tempo": 120.0
            },
            {
                "start_time": 94.66590909090908,
                "end_time": 94.76363636363637,
                "pitch": 43,
                "velocity": 80,
                "duration": 0.09772727272728332,
                "tempo": 120.0
            },
            {
                "start_time": 94.76590909090909,
                "end_time": 94.88181818181818,
                "pitch": 31,
                "velocity": 80,
                "duration": 0.11590909090908497,
                "tempo": 120.0
            },
            {
                "start_time": 94.88181818181818,
                "end_time": 95.08181818181818,
                "pitch": 31,
                "velocity": 80,
                "duration": 0.20000000000000284,
                "tempo": 120.0
            },
            {
                "start_time": 95.08181818181818,
                "end_time": 95.29772727272727,
                "pitch": 31,
                "velocity": 80,
                "duration": 0.2159090909090935,
                "tempo": 120.0
            },
            {
                "start_time": 95.3,
                "end_time": 95.51136363636363,
                "pitch": 31,
                "velocity": 80,
                "duration": 0.21136363636362887,
                "tempo": 120.0
            },
            {
                "start_time": 95.51136363636363,
                "end_time": 95.625,
                "pitch": 31,
                "velocity": 80,
                "duration": 0.11363636363637397,
                "tempo": 120.0
            },
            {
                "start_time": 95.62727272727273,
                "end_time": 95.72272727272727,
                "pitch": 31,
                "velocity": 80,
                "duration": 0.0954545454545439,
                "tempo": 120.0
            },
            {
                "start_time": 95.725,
                "end_time": 95.94090909090909,
                "pitch": 21,
                "velocity": 80,
                "duration": 0.2159090909090935,
                "tempo": 120.0
            },
            {
                "start_time": 95.94090909090909,
                "end_time": 96.1590909090909,
                "pitch": 21,
                "velocity": 80,
                "duration": 0.2181818181818187,
                "tempo": 120.0
            },
            {
                "start_time": 96.1590909090909,
                "end_time": 96.2590909090909,
                "pitch": 21,
                "velocity": 80,
                "duration": 0.09999999999999432,
                "tempo": 120.0
            },
            {
                "start_time": 96.26136363636363,
                "end_time": 96.37954545454545,
                "pitch": 21,
                "velocity": 80,
                "duration": 0.11818181818182438,
                "tempo": 120.0
            },
            {
                "start_time": 96.37954545454545,
                "end_time": 96.48181818181818,
                "pitch": 33,
                "velocity": 80,
                "duration": 0.10227272727273373,
                "tempo": 120.0
            },
            {
                "start_time": 96.48409090909091,
                "end_time": 96.5840909090909,
                "pitch": 21,
                "velocity": 80,
                "duration": 0.09999999999999432,
                "tempo": 120.0
            },
            {
                "start_time": 96.5840909090909,
                "end_time": 96.79090909090908,
                "pitch": 21,
                "velocity": 80,
                "duration": 0.20681818181817846,
                "tempo": 120.0
            },
            {
                "start_time": 96.79090909090908,
                "end_time": 96.99772727272727,
                "pitch": 21,
                "velocity": 80,
                "duration": 0.20681818181819267,
                "tempo": 120.0
            },
            {
                "start_time": 96.99772727272727,
                "end_time": 97.21818181818182,
                "pitch": 21,
                "velocity": 80,
                "duration": 0.2204545454545439,
                "tempo": 120.0
            },
            {
                "start_time": 97.22045454545454,
                "end_time": 97.32045454545454,
                "pitch": 21,
                "velocity": 80,
                "duration": 0.09999999999999432,
                "tempo": 120.0
            },
            {
                "start_time": 97.32272727272726,
                "end_time": 97.44090909090909,
                "pitch": 21,
                "velocity": 80,
                "duration": 0.11818181818182438,
                "tempo": 120.0
            },
            {
                "start_time": 97.44318181818181,
                "end_time": 97.6590909090909,
                "pitch": 23,
                "velocity": 80,
                "duration": 0.2159090909090935,
                "tempo": 120.0
            },
            {
                "start_time": 97.6590909090909,
                "end_time": 97.7590909090909,
                "pitch": 23,
                "velocity": 80,
                "duration": 0.09999999999999432,
                "tempo": 120.0
            },
            {
                "start_time": 97.7590909090909,
                "end_time": 97.875,
                "pitch": 35,
                "velocity": 80,
                "duration": 0.11590909090909918,
                "tempo": 120.0
            },
            {
                "start_time": 97.87727272727273,
                "end_time": 97.975,
                "pitch": 23,
                "velocity": 80,
                "duration": 0.09772727272726911,
                "tempo": 120.0
            },
            {
                "start_time": 97.975,
                "end_time": 98.07499999999999,
                "pitch": 23,
                "velocity": 80,
                "duration": 0.09999999999999432,
                "tempo": 120.0
            },
            {
                "start_time": 98.07727272727273,
                "end_time": 98.19318181818181,
                "pitch": 35,
                "velocity": 80,
                "duration": 0.11590909090908497,
                "tempo": 120.0
            },
            {
                "start_time": 98.19318181818181,
                "end_time": 98.29318181818181,
                "pitch": 26,
                "velocity": 80,
                "duration": 0.09999999999999432,
                "tempo": 120.0
            },
            {
                "start_time": 98.29318181818181,
                "end_time": 98.50454545454545,
                "pitch": 26,
                "velocity": 80,
                "duration": 0.21136363636364308,
                "tempo": 120.0
            },
            {
                "start_time": 98.50681818181818,
                "end_time": 98.71818181818182,
                "pitch": 27,
                "velocity": 80,
                "duration": 0.21136363636364308,
                "tempo": 120.0
            },
            {
                "start_time": 98.71818181818182,
                "end_time": 98.81818181818181,
                "pitch": 40,
                "velocity": 80,
                "duration": 0.09999999999999432,
                "tempo": 120.0
            },
            {
                "start_time": 98.81818181818181,
                "end_time": 98.9340909090909,
                "pitch": 42,
                "velocity": 80,
                "duration": 0.11590909090908497,
                "tempo": 120.0
            },
            {
                "start_time": 98.93636363636364,
                "end_time": 99.0340909090909,
                "pitch": 43,
                "velocity": 80,
                "duration": 0.09772727272726911,
                "tempo": 120.0
            },
            {
                "start_time": 99.03636363636363,
                "end_time": 99.15227272727272,
                "pitch": 40,
                "velocity": 80,
                "duration": 0.11590909090908497,
                "tempo": 120.0
            },
            {
                "start_time": 99.15454545454546,
                "end_time": 99.36818181818181,
                "pitch": 24,
                "velocity": 80,
                "duration": 0.21363636363635408,
                "tempo": 120.0
            },
            {
                "start_time": 99.37045454545454,
                "end_time": 99.48636363636363,
                "pitch": 24,
                "velocity": 80,
                "duration": 0.11590909090909918,
                "tempo": 120.0
            },
            {
                "start_time": 99.48636363636363,
                "end_time": 99.58636363636363,
                "pitch": 36,
                "velocity": 80,
                "duration": 0.09999999999999432,
                "tempo": 120.0
            },
            {
                "start_time": 99.58636363636363,
                "end_time": 99.70227272727273,
                "pitch": 24,
                "velocity": 80,
                "duration": 0.11590909090909918,
                "tempo": 120.0
            },
            {
                "start_time": 99.70227272727273,
                "end_time": 99.80227272727272,
                "pitch": 24,
                "velocity": 80,
                "duration": 0.09999999999999432,
                "tempo": 120.0
            },
            {
                "start_time": 99.80454545454545,
                "end_time": 100.02045454545454,
                "pitch": 36,
                "velocity": 80,
                "duration": 0.2159090909090935,
                "tempo": 120.0
            },
            {
                "start_time": 100.02045454545454,
                "end_time": 100.23636363636363,
                "pitch": 24,
                "velocity": 80,
                "duration": 0.2159090909090935,
                "tempo": 120.0
            },
            {
                "start_time": 100.23863636363636,
                "end_time": 100.33636363636363,
                "pitch": 24,
                "velocity": 80,
                "duration": 0.09772727272726911,
                "tempo": 120.0
            },
            {
                "start_time": 100.33863636363635,
                "end_time": 100.45454545454545,
                "pitch": 36,
                "velocity": 80,
                "duration": 0.11590909090909918,
                "tempo": 120.0
            },
            {
                "start_time": 100.45454545454545,
                "end_time": 100.6590909090909,
                "pitch": 23,
                "velocity": 80,
                "duration": 0.20454545454545325,
                "tempo": 120.0
            },
            {
                "start_time": 100.6590909090909,
                "end_time": 100.88181818181818,
                "pitch": 23,
                "velocity": 80,
                "duration": 0.2227272727272691,
                "tempo": 120.0
            },
            {
                "start_time": 100.88181818181818,
                "end_time": 101.08636363636363,
                "pitch": 21,
                "velocity": 80,
                "duration": 0.20454545454545325,
                "tempo": 120.0
            },
            {
                "start_time": 101.08863636363635,
                "end_time": 101.19772727272726,
                "pitch": 21,
                "velocity": 80,
                "duration": 0.10909090909090935,
                "tempo": 120.0
            },
            {
                "start_time": 101.19999999999999,
                "end_time": 101.29318181818181,
                "pitch": 33,
                "velocity": 80,
                "duration": 0.0931818181818187,
                "tempo": 120.0
            },
            {
                "start_time": 101.29545454545455,
                "end_time": 101.39545454545454,
                "pitch": 23,
                "velocity": 80,
                "duration": 0.09999999999999432,
                "tempo": 120.0
            },
            {
                "start_time": 101.39545454545454,
                "end_time": 101.51590909090909,
                "pitch": 23,
                "velocity": 80,
                "duration": 0.12045454545454959,
                "tempo": 120.0
            },
            {
                "start_time": 101.51590909090909,
                "end_time": 101.73863636363636,
                "pitch": 35,
                "velocity": 80,
                "duration": 0.2227272727272691,
                "tempo": 120.0
            },
            {
                "start_time": 101.73863636363636,
                "end_time": 101.95454545454545,
                "pitch": 36,
                "velocity": 80,
                "duration": 0.2159090909090935,
                "tempo": 120.0
            },
            {
                "start_time": 101.95454545454545,
                "end_time": 102.05454545454545,
                "pitch": 35,
                "velocity": 80,
                "duration": 0.09999999999999432,
                "tempo": 120.0
            },
            {
                "start_time": 102.05454545454545,
                "end_time": 102.15454545454546,
                "pitch": 33,
                "velocity": 80,
                "duration": 0.10000000000000853,
                "tempo": 120.0
            },
            {
                "start_time": 102.15681818181818,
                "end_time": 102.26590909090909,
                "pitch": 26,
                "velocity": 80,
                "duration": 0.10909090909090935,
                "tempo": 120.0
            },
            {
                "start_time": 102.26590909090909,
                "end_time": 102.36136363636363,
                "pitch": 38,
                "velocity": 80,
                "duration": 0.0954545454545439,
                "tempo": 120.0
            },
            {
                "start_time": 102.36136363636363,
                "end_time": 102.47272727272727,
                "pitch": 36,
                "velocity": 80,
                "duration": 0.11136363636363455,
                "tempo": 120.0
            },
            {
                "start_time": 102.47272727272727,
                "end_time": 102.56818181818181,
                "pitch": 35,
                "velocity": 80,
                "duration": 0.0954545454545439,
                "tempo": 120.0
            },
            {
                "start_time": 102.56818181818181,
                "end_time": 102.78863636363636,
                "pitch": 24,
                "velocity": 80,
                "duration": 0.2204545454545439,
                "tempo": 120.0
            },
            {
                "start_time": 102.79090909090908,
                "end_time": 102.89090909090909,
                "pitch": 24,
                "velocity": 80,
                "duration": 0.10000000000000853,
                "tempo": 120.0
            },
            {
                "start_time": 102.89318181818182,
                "end_time": 103.01136363636363,
                "pitch": 36,
                "velocity": 80,
                "duration": 0.11818181818181017,
                "tempo": 120.0
            },
            {
                "start_time": 103.01363636363637,
                "end_time": 103.11136363636363,
                "pitch": 24,
                "velocity": 80,
                "duration": 0.09772727272726911,
                "tempo": 120.0
            },
            {
                "start_time": 103.11136363636363,
                "end_time": 103.22954545454544,
                "pitch": 24,
                "velocity": 80,
                "duration": 0.11818181818181017,
                "tempo": 120.0
            },
            {
                "start_time": 103.22954545454544,
                "end_time": 103.44545454545454,
                "pitch": 36,
                "velocity": 80,
                "duration": 0.2159090909090935,
                "tempo": 120.0
            },
            {
                "start_time": 103.44772727272726,
                "end_time": 103.64545454545454,
                "pitch": 24,
                "velocity": 80,
                "duration": 0.19772727272727764,
                "tempo": 120.0
            },
            {
                "start_time": 103.64772727272727,
                "end_time": 103.76363636363637,
                "pitch": 24,
                "velocity": 80,
                "duration": 0.11590909090909918,
                "tempo": 120.0
            },
            {
                "start_time": 103.76363636363637,
                "end_time": 103.86363636363636,
                "pitch": 36,
                "velocity": 80,
                "duration": 0.09999999999999432,
                "tempo": 120.0
            },
            {
                "start_time": 103.86363636363636,
                "end_time": 104.07499999999999,
                "pitch": 23,
                "velocity": 80,
                "duration": 0.21136363636362887,
                "tempo": 120.0
            },
            {
                "start_time": 104.07727272727273,
                "end_time": 104.28863636363636,
                "pitch": 23,
                "velocity": 80,
                "duration": 0.21136363636362887,
                "tempo": 120.0
            },
            {
                "start_time": 104.28863636363636,
                "end_time": 104.50454545454545,
                "pitch": 21,
                "velocity": 80,
                "duration": 0.2159090909090935,
                "tempo": 120.0
            },
            {
                "start_time": 104.50681818181818,
                "end_time": 104.60681818181817,
                "pitch": 21,
                "velocity": 80,
                "duration": 0.09999999999999432,
                "tempo": 120.0
            },
            {
                "start_time": 104.60681818181817,
                "end_time": 104.72272727272727,
                "pitch": 33,
                "velocity": 80,
                "duration": 0.11590909090909918,
                "tempo": 120.0
            },
            {
                "start_time": 104.72272727272727,
                "end_time": 104.82272727272726,
                "pitch": 23,
                "velocity": 80,
                "duration": 0.09999999999999432,
                "tempo": 120.0
            },
            {
                "start_time": 104.82272727272726,
                "end_time": 104.94090909090909,
                "pitch": 23,
                "velocity": 80,
                "duration": 0.11818181818182438,
                "tempo": 120.0
            },
            {
                "start_time": 104.94090909090909,
                "end_time": 105.14090909090909,
                "pitch": 35,
                "velocity": 80,
                "duration": 0.20000000000000284,
                "tempo": 120.0
            },
            {
                "start_time": 105.14090909090909,
                "end_time": 105.35227272727272,
                "pitch": 36,
                "velocity": 80,
                "duration": 0.21136363636362887,
                "tempo": 120.0
            },
            {
                "start_time": 105.35227272727272,
                "end_time": 105.46590909090908,
                "pitch": 35,
                "velocity": 80,
                "duration": 0.11363636363635976,
                "tempo": 120.0
            },
            {
                "start_time": 105.46818181818182,
                "end_time": 105.56590909090909,
                "pitch": 33,
                "velocity": 80,
                "duration": 0.09772727272726911,
                "tempo": 120.0
            },
            {
                "start_time": 105.56590909090909,
                "end_time": 105.68181818181817,
                "pitch": 26,
                "velocity": 80,
                "duration": 0.11590909090908497,
                "tempo": 120.0
            },
            {
                "start_time": 105.68181818181817,
                "end_time": 105.78181818181818,
                "pitch": 38,
                "velocity": 80,
                "duration": 0.10000000000000853,
                "tempo": 120.0
            },
            {
                "start_time": 105.78181818181818,
                "end_time": 105.88181818181818,
                "pitch": 36,
                "velocity": 80,
                "duration": 0.09999999999999432,
                "tempo": 120.0
            },
            {
                "start_time": 105.88181818181818,
                "end_time": 106.0,
                "pitch": 35,
                "velocity": 80,
                "duration": 0.11818181818182438,
                "tempo": 120.0
            },
            {
                "start_time": 106.0,
                "end_time": 106.21590909090908,
                "pitch": 28,
                "velocity": 80,
                "duration": 0.21590909090907928,
                "tempo": 120.0
            },
            {
                "start_time": 106.21590909090908,
                "end_time": 106.4340909090909,
                "pitch": 40,
                "velocity": 80,
                "duration": 0.2181818181818187,
                "tempo": 120.0
            },
            {
                "start_time": 106.4340909090909,
                "end_time": 106.5340909090909,
                "pitch": 28,
                "velocity": 80,
                "duration": 0.10000000000000853,
                "tempo": 120.0
            },
            {
                "start_time": 106.5340909090909,
                "end_time": 106.6340909090909,
                "pitch": 28,
                "velocity": 80,
                "duration": 0.09999999999999432,
                "tempo": 120.0
            },
            {
                "start_time": 106.6340909090909,
                "end_time": 106.75,
                "pitch": 40,
                "velocity": 80,
                "duration": 0.11590909090909918,
                "tempo": 120.0
            },
            {
                "start_time": 106.85227272727272,
                "end_time": 107.06363636363636,
                "pitch": 28,
                "velocity": 80,
                "duration": 0.21136363636364308,
                "tempo": 120.0
            },
            {
                "start_time": 107.06363636363636,
                "end_time": 107.27499999999999,
                "pitch": 40,
                "velocity": 80,
                "duration": 0.21136363636362887,
                "tempo": 120.0
            },
            {
                "start_time": 107.27727272727272,
                "end_time": 107.49318181818181,
                "pitch": 28,
                "velocity": 80,
                "duration": 0.2159090909090935,
                "tempo": 120.0
            },
            {
                "start_time": 107.49318181818181,
                "end_time": 107.59318181818182,
                "pitch": 28,
                "velocity": 80,
                "duration": 0.10000000000000853,
                "tempo": 120.0
            },
            {
                "start_time": 107.59318181818182,
                "end_time": 107.7090909090909,
                "pitch": 28,
                "velocity": 80,
                "duration": 0.11590909090908497,
                "tempo": 120.0
            },
            {
                "start_time": 107.71136363636363,
                "end_time": 107.92727272727272,
                "pitch": 28,
                "velocity": 80,
                "duration": 0.2159090909090935,
                "tempo": 120.0
            },
            {
                "start_time": 107.92727272727272,
                "end_time": 108.02727272727272,
                "pitch": 40,
                "velocity": 80,
                "duration": 0.09999999999999432,
                "tempo": 120.0
            },
            {
                "start_time": 108.02727272727272,
                "end_time": 108.12727272727273,
                "pitch": 28,
                "velocity": 80,
                "duration": 0.10000000000000853,
                "tempo": 120.0
            },
            {
                "start_time": 108.12727272727273,
                "end_time": 108.24090909090908,
                "pitch": 28,
                "velocity": 80,
                "duration": 0.11363636363635976,
                "tempo": 120.0
            },
            {
                "start_time": 108.24318181818181,
                "end_time": 108.33863636363635,
                "pitch": 28,
                "velocity": 80,
                "duration": 0.0954545454545439,
                "tempo": 120.0
            },
            {
                "start_time": 108.34090909090908,
                "end_time": 108.45454545454545,
                "pitch": 40,
                "velocity": 80,
                "duration": 0.11363636363637397,
                "tempo": 120.0
            },
            {
                "start_time": 108.55454545454545,
                "end_time": 108.66818181818181,
                "pitch": 28,
                "velocity": 80,
                "duration": 0.11363636363635976,
                "tempo": 120.0
            },
            {
                "start_time": 108.67045454545455,
                "end_time": 108.77045454545454,
                "pitch": 40,
                "velocity": 80,
                "duration": 0.09999999999999432,
                "tempo": 120.0
            },
            {
                "start_time": 108.77045454545454,
                "end_time": 108.86818181818181,
                "pitch": 28,
                "velocity": 80,
                "duration": 0.09772727272726911,
                "tempo": 120.0
            },
            {
                "start_time": 108.98863636363636,
                "end_time": 109.2090909090909,
                "pitch": 28,
                "velocity": 80,
                "duration": 0.2204545454545439,
                "tempo": 120.0
            },
            {
                "start_time": 109.2090909090909,
                "end_time": 109.31136363636364,
                "pitch": 28,
                "velocity": 80,
                "duration": 0.10227272727273373,
                "tempo": 120.0
            },
            {
                "start_time": 109.31136363636364,
                "end_time": 109.42954545454545,
                "pitch": 28,
                "velocity": 80,
                "duration": 0.11818181818181017,
                "tempo": 120.0
            },
            {
                "start_time": 109.43181818181817,
                "end_time": 109.62954545454545,
                "pitch": 28,
                "velocity": 80,
                "duration": 0.19772727272727764,
                "tempo": 120.0
            },
            {
                "start_time": 109.63181818181818,
                "end_time": 109.84772727272727,
                "pitch": 40,
                "velocity": 80,
                "duration": 0.2159090909090935,
                "tempo": 120.0
            },
            {
                "start_time": 109.84772727272727,
                "end_time": 109.9590909090909,
                "pitch": 28,
                "velocity": 80,
                "duration": 0.11136363636363455,
                "tempo": 120.0
            },
            {
                "start_time": 109.9590909090909,
                "end_time": 110.05454545454545,
                "pitch": 28,
                "velocity": 80,
                "duration": 0.0954545454545439,
                "tempo": 120.0
            },
            {
                "start_time": 110.05454545454545,
                "end_time": 110.16590909090908,
                "pitch": 40,
                "velocity": 80,
                "duration": 0.11136363636363455,
                "tempo": 120.0
            },
            {
                "start_time": 110.26136363636363,
                "end_time": 110.47727272727272,
                "pitch": 28,
                "velocity": 80,
                "duration": 0.2159090909090935,
                "tempo": 120.0
            },
            {
                "start_time": 110.47954545454544,
                "end_time": 110.69545454545454,
                "pitch": 40,
                "velocity": 80,
                "duration": 0.2159090909090935,
                "tempo": 120.0
            },
            {
                "start_time": 110.69545454545454,
                "end_time": 110.91818181818181,
                "pitch": 28,
                "velocity": 80,
                "duration": 0.2227272727272691,
                "tempo": 120.0
            },
            {
                "start_time": 110.91818181818181,
                "end_time": 111.01818181818182,
                "pitch": 28,
                "velocity": 80,
                "duration": 0.10000000000000853,
                "tempo": 120.0
            },
            {
                "start_time": 111.02045454545454,
                "end_time": 111.12272727272726,
                "pitch": 28,
                "velocity": 80,
                "duration": 0.10227272727271952,
                "tempo": 120.0
            },
            {
                "start_time": 111.12272727272726,
                "end_time": 111.32727272727273,
                "pitch": 31,
                "velocity": 80,
                "duration": 0.20454545454546746,
                "tempo": 120.0
            },
            {
                "start_time": 111.32954545454545,
                "end_time": 111.43863636363636,
                "pitch": 19,
                "velocity": 80,
                "duration": 0.10909090909090935,
                "tempo": 120.0
            },
            {
                "start_time": 111.44090909090909,
                "end_time": 111.5340909090909,
                "pitch": 31,
                "velocity": 80,
                "duration": 0.0931818181818187,
                "tempo": 120.0
            },
            {
                "start_time": 111.53636363636363,
                "end_time": 111.65454545454546,
                "pitch": 30,
                "velocity": 80,
                "duration": 0.11818181818182438,
                "tempo": 120.0
            },
            {
                "start_time": 111.65454545454546,
                "end_time": 111.75681818181818,
                "pitch": 30,
                "velocity": 80,
                "duration": 0.10227272727271952,
                "tempo": 120.0
            },
            {
                "start_time": 111.75681818181818,
                "end_time": 111.85909090909091,
                "pitch": 18,
                "velocity": 80,
                "duration": 0.10227272727273373,
                "tempo": 120.0
            },
            {
                "start_time": 111.97954545454544,
                "end_time": 112.19545454545454,
                "pitch": 29,
                "velocity": 80,
                "duration": 0.2159090909090935,
                "tempo": 120.0
            },
            {
                "start_time": 112.19545454545454,
                "end_time": 112.29545454545455,
                "pitch": 16,
                "velocity": 80,
                "duration": 0.10000000000000853,
                "tempo": 120.0
            },
            {
                "start_time": 112.29545454545455,
                "end_time": 112.41363636363636,
                "pitch": 29,
                "velocity": 80,
                "duration": 0.11818181818181017,
                "tempo": 120.0
            },
            {
                "start_time": 112.41363636363636,
                "end_time": 112.51136363636363,
                "pitch": 23,
                "velocity": 80,
                "duration": 0.09772727272726911,
                "tempo": 120.0
            },
            {
                "start_time": 112.51363636363635,
                "end_time": 112.61363636363636,
                "pitch": 23,
                "velocity": 80,
                "duration": 0.10000000000000853,
                "tempo": 120.0
            },
            {
                "start_time": 112.61363636363636,
                "end_time": 112.72954545454544,
                "pitch": 35,
                "velocity": 80,
                "duration": 0.11590909090908497,
                "tempo": 120.0
            },
            {
                "start_time": 112.72954545454544,
                "end_time": 112.82954545454545,
                "pitch": 23,
                "velocity": 80,
                "duration": 0.10000000000000853,
                "tempo": 120.0
            },
            {
                "start_time": 112.83181818181818,
                "end_time": 113.04318181818181,
                "pitch": 28,
                "velocity": 80,
                "duration": 0.21136363636362887,
                "tempo": 120.0
            },
            {
                "start_time": 113.04318181818181,
                "end_time": 113.25454545454545,
                "pitch": 40,
                "velocity": 80,
                "duration": 0.21136363636364308,
                "tempo": 120.0
            },
            {
                "start_time": 113.25681818181818,
                "end_time": 113.35454545454544,
                "pitch": 28,
                "velocity": 80,
                "duration": 0.09772727272726911,
                "tempo": 120.0
            },
            {
                "start_time": 113.35454545454544,
                "end_time": 113.47272727272727,
                "pitch": 28,
                "velocity": 80,
                "duration": 0.11818181818182438,
                "tempo": 120.0
            },
            {
                "start_time": 113.47272727272727,
                "end_time": 113.57272727272726,
                "pitch": 40,
                "velocity": 80,
                "duration": 0.09999999999999432,
                "tempo": 120.0
            },
            {
                "start_time": 113.69090909090909,
                "end_time": 113.90681818181818,
                "pitch": 28,
                "velocity": 80,
                "duration": 0.2159090909090935,
                "tempo": 120.0
            },
            {
                "start_time": 113.90681818181818,
                "end_time": 114.10681818181817,
                "pitch": 40,
                "velocity": 80,
                "duration": 0.19999999999998863,
                "tempo": 120.0
            },
            {
                "start_time": 114.10681818181817,
                "end_time": 114.32045454545454,
                "pitch": 28,
                "velocity": 80,
                "duration": 0.2136363636363683,
                "tempo": 120.0
            },
            {
                "start_time": 114.32045454545454,
                "end_time": 114.4340909090909,
                "pitch": 28,
                "velocity": 80,
                "duration": 0.11363636363635976,
                "tempo": 120.0
            },
            {
                "start_time": 114.4340909090909,
                "end_time": 114.53181818181818,
                "pitch": 28,
                "velocity": 80,
                "duration": 0.09772727272728332,
                "tempo": 120.0
            },
            {
                "start_time": 114.53181818181818,
                "end_time": 114.74772727272726,
                "pitch": 28,
                "velocity": 80,
                "duration": 0.21590909090907928,
                "tempo": 120.0
            },
            {
                "start_time": 114.75,
                "end_time": 114.84772727272727,
                "pitch": 40,
                "velocity": 80,
                "duration": 0.09772727272726911,
                "tempo": 120.0
            },
            {
                "start_time": 114.85,
                "end_time": 114.96590909090908,
                "pitch": 28,
                "velocity": 80,
                "duration": 0.11590909090908497,
                "tempo": 120.0
            },
            {
                "start_time": 114.96590909090908,
                "end_time": 115.06590909090909,
                "pitch": 28,
                "velocity": 80,
                "duration": 0.10000000000000853,
                "tempo": 120.0
            },
            {
                "start_time": 115.06590909090909,
                "end_time": 115.18181818181817,
                "pitch": 28,
                "velocity": 80,
                "duration": 0.11590909090908497,
                "tempo": 120.0
            },
            {
                "start_time": 115.1840909090909,
                "end_time": 115.28181818181818,
                "pitch": 40,
                "velocity": 80,
                "duration": 0.09772727272728332,
                "tempo": 120.0
            },
            {
                "start_time": 115.39999999999999,
                "end_time": 115.5,
                "pitch": 28,
                "velocity": 80,
                "duration": 0.10000000000000853,
                "tempo": 120.0
            },
            {
                "start_time": 115.5,
                "end_time": 115.6,
                "pitch": 40,
                "velocity": 80,
                "duration": 0.09999999999999432,
                "tempo": 120.0
            },
            {
                "start_time": 115.60227272727272,
                "end_time": 115.71590909090908,
                "pitch": 28,
                "velocity": 80,
                "duration": 0.11363636363635976,
                "tempo": 120.0
            },
            {
                "start_time": 115.81818181818181,
                "end_time": 116.02954545454544,
                "pitch": 28,
                "velocity": 80,
                "duration": 0.21136363636362887,
                "tempo": 120.0
            },
            {
                "start_time": 116.03181818181818,
                "end_time": 116.14318181818182,
                "pitch": 28,
                "velocity": 80,
                "duration": 0.11136363636363455,
                "tempo": 120.0
            },
            {
                "start_time": 116.14545454545454,
                "end_time": 116.24318181818181,
                "pitch": 28,
                "velocity": 80,
                "duration": 0.09772727272726911,
                "tempo": 120.0
            },
            {
                "start_time": 116.24318181818181,
                "end_time": 116.4590909090909,
                "pitch": 28,
                "velocity": 80,
                "duration": 0.2159090909090935,
                "tempo": 120.0
            },
            {
                "start_time": 116.46136363636363,
                "end_time": 116.67727272727272,
                "pitch": 40,
                "velocity": 80,
                "duration": 0.2159090909090935,
                "tempo": 120.0
            },
            {
                "start_time": 116.67727272727272,
                "end_time": 116.77954545454544,
                "pitch": 28,
                "velocity": 80,
                "duration": 0.10227272727271952,
                "tempo": 120.0
            },
            {
                "start_time": 116.77954545454544,
                "end_time": 116.89772727272727,
                "pitch": 28,
                "velocity": 80,
                "duration": 0.11818181818182438,
                "tempo": 120.0
            },
            {
                "start_time": 116.89999999999999,
                "end_time": 117.0,
                "pitch": 40,
                "velocity": 80,
                "duration": 0.10000000000000853,
                "tempo": 120.0
            },
            {
                "start_time": 117.10454545454544,
                "end_time": 117.3090909090909,
                "pitch": 28,
                "velocity": 80,
                "duration": 0.20454545454545325,
                "tempo": 120.0
            },
            {
                "start_time": 117.31136363636364,
                "end_time": 117.51590909090909,
                "pitch": 40,
                "velocity": 80,
                "duration": 0.20454545454545325,
                "tempo": 120.0
            },
            {
                "start_time": 117.51818181818182,
                "end_time": 117.73409090909091,
                "pitch": 28,
                "velocity": 80,
                "duration": 0.2159090909090935,
                "tempo": 120.0
            },
            {
                "start_time": 117.73409090909091,
                "end_time": 117.8340909090909,
                "pitch": 28,
                "velocity": 80,
                "duration": 0.09999999999999432,
                "tempo": 120.0
            },
            {
                "start_time": 117.8340909090909,
                "end_time": 117.94999999999999,
                "pitch": 28,
                "velocity": 80,
                "duration": 0.11590909090908497,
                "tempo": 120.0
            },
            {
                "start_time": 117.95227272727273,
                "end_time": 118.17272727272727,
                "pitch": 31,
                "velocity": 80,
                "duration": 0.2204545454545439,
                "tempo": 120.0
            },
            {
                "start_time": 118.17272727272727,
                "end_time": 118.27499999999999,
                "pitch": 19,
                "velocity": 80,
                "duration": 0.10227272727271952,
                "tempo": 120.0
            },
            {
                "start_time": 118.27499999999999,
                "end_time": 118.39545454545454,
                "pitch": 31,
                "velocity": 80,
                "duration": 0.12045454545454959,
                "tempo": 120.0
            },
            {
                "start_time": 118.39545454545454,
                "end_time": 118.49318181818181,
                "pitch": 30,
                "velocity": 80,
                "duration": 0.09772727272726911,
                "tempo": 120.0
            },
            {
                "start_time": 118.49545454545454,
                "end_time": 118.59545454545454,
                "pitch": 30,
                "velocity": 80,
                "duration": 0.10000000000000853,
                "tempo": 120.0
            },
            {
                "start_time": 118.59545454545454,
                "end_time": 118.71136363636363,
                "pitch": 18,
                "velocity": 80,
                "duration": 0.11590909090908497,
                "tempo": 120.0
            },
            {
                "start_time": 118.81363636363636,
                "end_time": 119.02499999999999,
                "pitch": 29,
                "velocity": 80,
                "duration": 0.21136363636362887,
                "tempo": 120.0
            },
            {
                "start_time": 119.02499999999999,
                "end_time": 119.13863636363635,
                "pitch": 16,
                "velocity": 80,
                "duration": 0.11363636363635976,
                "tempo": 120.0
            },
            {
                "start_time": 119.13863636363635,
                "end_time": 119.23636363636363,
                "pitch": 29,
                "velocity": 80,
                "duration": 0.09772727272728332,
                "tempo": 120.0
            },
            {
                "start_time": 119.23863636363636,
                "end_time": 119.33636363636363,
                "pitch": 23,
                "velocity": 80,
                "duration": 0.09772727272726911,
                "tempo": 120.0
            },
            {
                "start_time": 119.33863636363635,
                "end_time": 119.45454545454545,
                "pitch": 23,
                "velocity": 80,
                "duration": 0.11590909090909918,
                "tempo": 120.0
            },
            {
                "start_time": 119.45454545454545,
                "end_time": 119.55454545454545,
                "pitch": 35,
                "velocity": 80,
                "duration": 0.09999999999999432,
                "tempo": 120.0
            },
            {
                "start_time": 119.55454545454545,
                "end_time": 119.67045454545455,
                "pitch": 23,
                "velocity": 80,
                "duration": 0.11590909090909918,
                "tempo": 120.0
            },
            {
                "start_time": 119.67272727272727,
                "end_time": 119.88863636363635,
                "pitch": 24,
                "velocity": 80,
                "duration": 0.21590909090907928,
                "tempo": 120.0
            },
            {
                "start_time": 119.88863636363635,
                "end_time": 120.08863636363635,
                "pitch": 24,
                "velocity": 80,
                "duration": 0.20000000000000284,
                "tempo": 120.0
            },
            {
                "start_time": 120.08863636363635,
                "end_time": 120.20227272727273,
                "pitch": 24,
                "velocity": 80,
                "duration": 0.11363636363637397,
                "tempo": 120.0
            },
            {
                "start_time": 120.20227272727273,
                "end_time": 120.3,
                "pitch": 24,
                "velocity": 80,
                "duration": 0.09772727272726911,
                "tempo": 120.0
            },
            {
                "start_time": 120.30227272727272,
                "end_time": 120.41590909090908,
                "pitch": 36,
                "velocity": 80,
                "duration": 0.11363636363635976,
                "tempo": 120.0
            },
            {
                "start_time": 120.41590909090908,
                "end_time": 120.51363636363635,
                "pitch": 24,
                "velocity": 80,
                "duration": 0.09772727272726911,
                "tempo": 120.0
            },
            {
                "start_time": 120.51363636363635,
                "end_time": 120.72954545454544,
                "pitch": 24,
                "velocity": 80,
                "duration": 0.2159090909090935,
                "tempo": 120.0
            },
            {
                "start_time": 120.73181818181817,
                "end_time": 120.94772727272726,
                "pitch": 24,
                "velocity": 80,
                "duration": 0.2159090909090935,
                "tempo": 120.0
            },
            {
                "start_time": 120.94772727272726,
                "end_time": 121.16363636363636,
                "pitch": 28,
                "velocity": 80,
                "duration": 0.2159090909090935,
                "tempo": 120.0
            },
            {
                "start_time": 121.16590909090908,
                "end_time": 121.26363636363635,
                "pitch": 28,
                "velocity": 80,
                "duration": 0.09772727272726911,
                "tempo": 120.0
            },
            {
                "start_time": 121.26590909090909,
                "end_time": 121.36363636363636,
                "pitch": 28,
                "velocity": 80,
                "duration": 0.09772727272726911,
                "tempo": 120.0
            },
            {
                "start_time": 121.36590909090908,
                "end_time": 121.57727272727273,
                "pitch": 26,
                "velocity": 80,
                "duration": 0.21136363636364308,
                "tempo": 120.0
            },
            {
                "start_time": 121.57727272727273,
                "end_time": 121.79090909090908,
                "pitch": 26,
                "velocity": 80,
                "duration": 0.21363636363635408,
                "tempo": 120.0
            },
            {
                "start_time": 121.79090909090908,
                "end_time": 121.90681818181818,
                "pitch": 26,
                "velocity": 80,
                "duration": 0.11590909090909918,
                "tempo": 120.0
            },
            {
                "start_time": 121.90681818181818,
                "end_time": 122.00681818181818,
                "pitch": 26,
                "velocity": 80,
                "duration": 0.09999999999999432,
                "tempo": 120.0
            },
            {
                "start_time": 122.00681818181818,
                "end_time": 122.10681818181817,
                "pitch": 38,
                "velocity": 80,
                "duration": 0.09999999999999432,
                "tempo": 120.0
            },
            {
                "start_time": 122.10681818181817,
                "end_time": 122.225,
                "pitch": 26,
                "velocity": 80,
                "duration": 0.11818181818182438,
                "tempo": 120.0
            },
            {
                "start_time": 122.225,
                "end_time": 122.44090909090909,
                "pitch": 26,
                "velocity": 80,
                "duration": 0.2159090909090935,
                "tempo": 120.0
            },
            {
                "start_time": 122.44318181818181,
                "end_time": 122.6590909090909,
                "pitch": 26,
                "velocity": 80,
                "duration": 0.2159090909090935,
                "tempo": 120.0
            },
            {
                "start_time": 122.6590909090909,
                "end_time": 122.86363636363636,
                "pitch": 30,
                "velocity": 80,
                "duration": 0.20454545454545325,
                "tempo": 120.0
            },
            {
                "start_time": 122.86363636363636,
                "end_time": 122.98181818181817,
                "pitch": 30,
                "velocity": 80,
                "duration": 0.11818181818181017,
                "tempo": 120.0
            },
            {
                "start_time": 122.98181818181817,
                "end_time": 123.0840909090909,
                "pitch": 30,
                "velocity": 80,
                "duration": 0.10227272727273373,
                "tempo": 120.0
            },
            {
                "start_time": 123.08636363636363,
                "end_time": 123.29090909090908,
                "pitch": 28,
                "velocity": 80,
                "duration": 0.20454545454545325,
                "tempo": 120.0
            },
            {
                "start_time": 123.29318181818181,
                "end_time": 123.49772727272726,
                "pitch": 28,
                "velocity": 80,
                "duration": 0.20454545454545325,
                "tempo": 120.0
            },
            {
                "start_time": 123.5,
                "end_time": 123.59772727272727,
                "pitch": 28,
                "velocity": 80,
                "duration": 0.09772727272726911,
                "tempo": 120.0
            },
            {
                "start_time": 123.6,
                "end_time": 123.71590909090908,
                "pitch": 28,
                "velocity": 80,
                "duration": 0.11590909090908497,
                "tempo": 120.0
            },
            {
                "start_time": 123.71590909090908,
                "end_time": 123.81590909090909,
                "pitch": 40,
                "velocity": 80,
                "duration": 0.10000000000000853,
                "tempo": 120.0
            },
            {
                "start_time": 123.81590909090909,
                "end_time": 123.93181818181817,
                "pitch": 28,
                "velocity": 80,
                "duration": 0.11590909090908497,
                "tempo": 120.0
            },
            {
                "start_time": 123.9340909090909,
                "end_time": 124.14999999999999,
                "pitch": 28,
                "velocity": 80,
                "duration": 0.2159090909090935,
                "tempo": 120.0
            },
            {
                "start_time": 124.14999999999999,
                "end_time": 124.35,
                "pitch": 28,
                "velocity": 80,
                "duration": 0.20000000000000284,
                "tempo": 120.0
            },
            {
                "start_time": 124.35,
                "end_time": 124.56136363636364,
                "pitch": 28,
                "velocity": 80,
                "duration": 0.21136363636364308,
                "tempo": 120.0
            },
            {
                "start_time": 124.56363636363636,
                "end_time": 124.67727272727272,
                "pitch": 28,
                "velocity": 80,
                "duration": 0.11363636363635976,
                "tempo": 120.0
            },
            {
                "start_time": 124.67727272727272,
                "end_time": 124.77499999999999,
                "pitch": 28,
                "velocity": 80,
                "duration": 0.09772727272726911,
                "tempo": 120.0
            },
            {
                "start_time": 124.77727272727272,
                "end_time": 124.99090909090908,
                "pitch": 31,
                "velocity": 80,
                "duration": 0.2136363636363683,
                "tempo": 120.0
            },
            {
                "start_time": 124.99318181818181,
                "end_time": 125.09090909090908,
                "pitch": 31,
                "velocity": 80,
                "duration": 0.09772727272726911,
                "tempo": 120.0
            },
            {
                "start_time": 125.09318181818182,
                "end_time": 125.2090909090909,
                "pitch": 43,
                "velocity": 80,
                "duration": 0.11590909090908497,
                "tempo": 120.0
            },
            {
                "start_time": 125.21136363636363,
                "end_time": 125.31136363636362,
                "pitch": 31,
                "velocity": 80,
                "duration": 0.09999999999999432,
                "tempo": 120.0
            },
            {
                "start_time": 125.31136363636362,
                "end_time": 125.43181818181817,
                "pitch": 31,
                "velocity": 80,
                "duration": 0.12045454545454959,
                "tempo": 120.0
            },
            {
                "start_time": 125.43181818181817,
                "end_time": 125.5340909090909,
                "pitch": 43,
                "velocity": 80,
                "duration": 0.10227272727273373,
                "tempo": 120.0
            },
            {
                "start_time": 125.5340909090909,
                "end_time": 125.65227272727272,
                "pitch": 31,
                "velocity": 80,
                "duration": 0.11818181818181017,
                "tempo": 120.0
            },
            {
                "start_time": 125.65454545454544,
                "end_time": 125.85227272727272,
                "pitch": 31,
                "velocity": 80,
                "duration": 0.19772727272727764,
                "tempo": 120.0
            },
            {
                "start_time": 125.85454545454544,
                "end_time": 126.07045454545454,
                "pitch": 31,
                "velocity": 80,
                "duration": 0.2159090909090935,
                "tempo": 120.0
            },
            {
                "start_time": 126.07045454545454,
                "end_time": 126.27727272727272,
                "pitch": 31,
                "velocity": 80,
                "duration": 0.20681818181817846,
                "tempo": 120.0
            },
            {
                "start_time": 126.27727272727272,
                "end_time": 126.38863636363635,
                "pitch": 31,
                "velocity": 80,
                "duration": 0.11136363636363455,
                "tempo": 120.0
            },
            {
                "start_time": 126.38863636363635,
                "end_time": 126.48409090909091,
                "pitch": 31,
                "velocity": 80,
                "duration": 0.09545454545455812,
                "tempo": 120.0
            },
            {
                "start_time": 126.48409090909091,
                "end_time": 126.70454545454545,
                "pitch": 21,
                "velocity": 80,
                "duration": 0.2204545454545439,
                "tempo": 120.0
            },
            {
                "start_time": 126.70681818181818,
                "end_time": 126.92727272727272,
                "pitch": 21,
                "velocity": 80,
                "duration": 0.2204545454545439,
                "tempo": 120.0
            },
            {
                "start_time": 126.92727272727272,
                "end_time": 127.02727272727272,
                "pitch": 21,
                "velocity": 80,
                "duration": 0.09999999999999432,
                "tempo": 120.0
            },
            {
                "start_time": 127.02727272727272,
                "end_time": 127.14318181818182,
                "pitch": 21,
                "velocity": 80,
                "duration": 0.11590909090909918,
                "tempo": 120.0
            },
            {
                "start_time": 127.14545454545454,
                "end_time": 127.24545454545454,
                "pitch": 33,
                "velocity": 80,
                "duration": 0.09999999999999432,
                "tempo": 120.0
            },
            {
                "start_time": 127.24545454545454,
                "end_time": 127.34318181818182,
                "pitch": 21,
                "velocity": 80,
                "duration": 0.09772727272728332,
                "tempo": 120.0
            },
            {
                "start_time": 127.34545454545454,
                "end_time": 127.55,
                "pitch": 21,
                "velocity": 80,
                "duration": 0.20454545454545325,
                "tempo": 120.0
            },
            {
                "start_time": 127.55227272727272,
                "end_time": 127.7590909090909,
                "pitch": 21,
                "velocity": 80,
                "duration": 0.20681818181817846,
                "tempo": 120.0
            },
            {
                "start_time": 127.7590909090909,
                "end_time": 127.97954545454544,
                "pitch": 21,
                "velocity": 80,
                "duration": 0.2204545454545439,
                "tempo": 120.0
            },
            {
                "start_time": 127.97954545454544,
                "end_time": 128.08181818181816,
                "pitch": 21,
                "velocity": 80,
                "duration": 0.10227272727271952,
                "tempo": 120.0
            },
            {
                "start_time": 128.08181818181816,
                "end_time": 128.2022727272727,
                "pitch": 21,
                "velocity": 80,
                "duration": 0.12045454545454959,
                "tempo": 120.0
            },
            {
                "start_time": 128.2022727272727,
                "end_time": 128.4181818181818,
                "pitch": 23,
                "velocity": 80,
                "duration": 0.2159090909090935,
                "tempo": 120.0
            },
            {
                "start_time": 128.4181818181818,
                "end_time": 128.5181818181818,
                "pitch": 23,
                "velocity": 80,
                "duration": 0.09999999999999432,
                "tempo": 120.0
            },
            {
                "start_time": 128.5181818181818,
                "end_time": 128.63636363636363,
                "pitch": 35,
                "velocity": 80,
                "duration": 0.11818181818182438,
                "tempo": 120.0
            },
            {
                "start_time": 128.63636363636363,
                "end_time": 128.73636363636362,
                "pitch": 23,
                "velocity": 80,
                "duration": 0.09999999999999432,
                "tempo": 120.0
            },
            {
                "start_time": 128.73636363636362,
                "end_time": 128.83636363636364,
                "pitch": 23,
                "velocity": 80,
                "duration": 0.10000000000002274,
                "tempo": 120.0
            },
            {
                "start_time": 128.83636363636364,
                "end_time": 128.9522727272727,
                "pitch": 35,
                "velocity": 80,
                "duration": 0.11590909090907076,
                "tempo": 120.0
            },
            {
                "start_time": 128.95454545454544,
                "end_time": 129.0522727272727,
                "pitch": 26,
                "velocity": 80,
                "duration": 0.09772727272726911,
                "tempo": 120.0
            },
            {
                "start_time": 129.05454545454546,
                "end_time": 129.26590909090908,
                "pitch": 26,
                "velocity": 80,
                "duration": 0.21136363636361466,
                "tempo": 120.0
            },
            {
                "start_time": 129.26590909090908,
                "end_time": 129.47727272727272,
                "pitch": 27,
                "velocity": 80,
                "duration": 0.21136363636364308,
                "tempo": 120.0
            },
            {
                "start_time": 129.47954545454544,
                "end_time": 129.5772727272727,
                "pitch": 40,
                "velocity": 80,
                "duration": 0.09772727272726911,
                "tempo": 120.0
            },
            {
                "start_time": 129.57954545454544,
                "end_time": 129.69545454545454,
                "pitch": 42,
                "velocity": 80,
                "duration": 0.11590909090909918,
                "tempo": 120.0
            },
            {
                "start_time": 129.69545454545454,
                "end_time": 129.79545454545453,
                "pitch": 43,
                "velocity": 80,
                "duration": 0.09999999999999432,
                "tempo": 120.0
            },
            {
                "start_time": 129.79545454545453,
                "end_time": 129.91136363636363,
                "pitch": 40,
                "velocity": 80,
                "duration": 0.11590909090909918,
                "tempo": 120.0
            },
            {
                "start_time": 129.91363636363636,
                "end_time": 130.22954545454544,
                "pitch": 28,
                "velocity": 80,
                "duration": 0.3159090909090878,
                "tempo": 120.0
            },
            {
                "start_time": 130.22954545454544,
                "end_time": 130.32954545454544,
                "pitch": 28,
                "velocity": 80,
                "duration": 0.09999999999999432,
                "tempo": 120.0
            },
            {
                "start_time": 130.32954545454544,
                "end_time": 130.75454545454545,
                "pitch": 40,
                "velocity": 80,
                "duration": 0.42500000000001137,
                "tempo": 120.0
            },
            {
                "start_time": 130.75454545454545,
                "end_time": 130.87045454545455,
                "pitch": 38,
                "velocity": 80,
                "duration": 0.11590909090909918,
                "tempo": 120.0
            },
            {
                "start_time": 130.87272727272727,
                "end_time": 130.97045454545454,
                "pitch": 40,
                "velocity": 80,
                "duration": 0.09772727272726911,
                "tempo": 120.0
            },
            {
                "start_time": 130.97272727272727,
                "end_time": 131.07045454545454,
                "pitch": 38,
                "velocity": 80,
                "duration": 0.09772727272726911,
                "tempo": 120.0
            },
            {
                "start_time": 131.07272727272726,
                "end_time": 131.18863636363636,
                "pitch": 35,
                "velocity": 80,
                "duration": 0.11590909090909918,
                "tempo": 120.0
            },
            {
                "start_time": 131.18863636363636,
                "end_time": 131.28863636363636,
                "pitch": 38,
                "velocity": 80,
                "duration": 0.09999999999999432,
                "tempo": 120.0
            },
            {
                "start_time": 131.28863636363636,
                "end_time": 131.40454545454546,
                "pitch": 35,
                "velocity": 80,
                "duration": 0.11590909090909918,
                "tempo": 120.0
            },
            {
                "start_time": 131.40681818181818,
                "end_time": 131.50454545454545,
                "pitch": 33,
                "velocity": 80,
                "duration": 0.09772727272726911,
                "tempo": 120.0
            },
            {
                "start_time": 131.50681818181818,
                "end_time": 131.62272727272727,
                "pitch": 31,
                "velocity": 80,
                "duration": 0.11590909090909918,
                "tempo": 120.0
            },
            {
                "start_time": 131.625,
                "end_time": 131.83863636363637,
                "pitch": 24,
                "velocity": 80,
                "duration": 0.2136363636363683,
                "tempo": 120.0
            },
            {
                "start_time": 131.8409090909091,
                "end_time": 131.95681818181816,
                "pitch": 24,
                "velocity": 80,
                "duration": 0.11590909090907076,
                "tempo": 120.0
            },
            {
                "start_time": 131.95681818181816,
                "end_time": 132.0568181818182,
                "pitch": 36,
                "velocity": 80,
                "duration": 0.10000000000002274,
                "tempo": 120.0
            },
            {
                "start_time": 132.0568181818182,
                "end_time": 132.17499999999998,
                "pitch": 24,
                "velocity": 80,
                "duration": 0.11818181818179596,
                "tempo": 120.0
            },
            {
                "start_time": 132.1772727272727,
                "end_time": 132.27727272727273,
                "pitch": 24,
                "velocity": 80,
                "duration": 0.10000000000002274,
                "tempo": 120.0
            },
            {
                "start_time": 132.27954545454546,
                "end_time": 132.5,
                "pitch": 36,
                "velocity": 80,
                "duration": 0.2204545454545439,
                "tempo": 120.0
            },
            {
                "start_time": 132.50227272727273,
                "end_time": 132.71818181818182,
                "pitch": 24,
                "velocity": 80,
                "duration": 0.2159090909090935,
                "tempo": 120.0
            },
            {
                "start_time": 132.71818181818182,
                "end_time": 132.8181818181818,
                "pitch": 24,
                "velocity": 80,
                "duration": 0.09999999999999432,
                "tempo": 120.0
            },
            {
                "start_time": 132.8181818181818,
                "end_time": 132.9340909090909,
                "pitch": 36,
                "velocity": 80,
                "duration": 0.11590909090909918,
                "tempo": 120.0
            },
            {
                "start_time": 132.93636363636364,
                "end_time": 133.1340909090909,
                "pitch": 23,
                "velocity": 80,
                "duration": 0.19772727272726343,
                "tempo": 120.0
            },
            {
                "start_time": 133.13636363636363,
                "end_time": 133.35227272727272,
                "pitch": 23,
                "velocity": 80,
                "duration": 0.2159090909090935,
                "tempo": 120.0
            },
            {
                "start_time": 133.35227272727272,
                "end_time": 133.56363636363636,
                "pitch": 21,
                "velocity": 80,
                "duration": 0.21136363636364308,
                "tempo": 120.0
            },
            {
                "start_time": 133.5659090909091,
                "end_time": 133.67954545454546,
                "pitch": 21,
                "velocity": 80,
                "duration": 0.11363636363637397,
                "tempo": 120.0
            },
            {
                "start_time": 133.67954545454546,
                "end_time": 133.77727272727273,
                "pitch": 33,
                "velocity": 80,
                "duration": 0.09772727272726911,
                "tempo": 120.0
            },
            {
                "start_time": 133.77727272727273,
                "end_time": 133.87727272727273,
                "pitch": 23,
                "velocity": 80,
                "duration": 0.09999999999999432,
                "tempo": 120.0
            },
            {
                "start_time": 133.87727272727273,
                "end_time": 133.99318181818182,
                "pitch": 23,
                "velocity": 80,
                "duration": 0.11590909090909918,
                "tempo": 120.0
            },
            {
                "start_time": 133.99545454545455,
                "end_time": 134.21136363636364,
                "pitch": 35,
                "velocity": 80,
                "duration": 0.2159090909090935,
                "tempo": 120.0
            },
            {
                "start_time": 134.21136363636364,
                "end_time": 134.4272727272727,
                "pitch": 36,
                "velocity": 80,
                "duration": 0.21590909090906507,
                "tempo": 120.0
            },
            {
                "start_time": 134.42954545454546,
                "end_time": 134.52727272727273,
                "pitch": 35,
                "velocity": 80,
                "duration": 0.09772727272726911,
                "tempo": 120.0
            },
            {
                "start_time": 134.52954545454546,
                "end_time": 134.62954545454545,
                "pitch": 33,
                "velocity": 80,
                "duration": 0.09999999999999432,
                "tempo": 120.0
            },
            {
                "start_time": 134.62954545454545,
                "end_time": 134.74318181818182,
                "pitch": 26,
                "velocity": 80,
                "duration": 0.11363636363637397,
                "tempo": 120.0
            },
            {
                "start_time": 134.74318181818182,
                "end_time": 134.8409090909091,
                "pitch": 38,
                "velocity": 80,
                "duration": 0.09772727272726911,
                "tempo": 120.0
            },
            {
                "start_time": 134.84318181818182,
                "end_time": 134.95454545454544,
                "pitch": 36,
                "velocity": 80,
                "duration": 0.11136363636362034,
                "tempo": 120.0
            },
            {
                "start_time": 134.95681818181816,
                "end_time": 135.05454545454546,
                "pitch": 35,
                "velocity": 80,
                "duration": 0.09772727272729753,
                "tempo": 120.0
            },
            {
                "start_time": 135.05454545454546,
                "end_time": 135.27045454545453,
                "pitch": 24,
                "velocity": 80,
                "duration": 0.21590909090906507,
                "tempo": 120.0
            },
            {
                "start_time": 135.27272727272725,
                "end_time": 135.37045454545455,
                "pitch": 24,
                "velocity": 80,
                "duration": 0.09772727272729753,
                "tempo": 120.0
            },
            {
                "start_time": 135.37045454545455,
                "end_time": 135.48863636363635,
                "pitch": 36,
                "velocity": 80,
                "duration": 0.11818181818179596,
                "tempo": 120.0
            },
            {
                "start_time": 135.48863636363635,
                "end_time": 135.5909090909091,
                "pitch": 24,
                "velocity": 80,
                "duration": 0.10227272727274794,
                "tempo": 120.0
            },
            {
                "start_time": 135.5909090909091,
                "end_time": 135.7090909090909,
                "pitch": 24,
                "velocity": 80,
                "duration": 0.11818181818179596,
                "tempo": 120.0
            },
            {
                "start_time": 135.71136363636364,
                "end_time": 135.9318181818182,
                "pitch": 36,
                "velocity": 80,
                "duration": 0.2204545454545439,
                "tempo": 120.0
            },
            {
                "start_time": 135.9318181818182,
                "end_time": 136.12727272727273,
                "pitch": 24,
                "velocity": 80,
                "duration": 0.19545454545453822,
                "tempo": 120.0
            },
            {
                "start_time": 136.12727272727273,
                "end_time": 136.24090909090907,
                "pitch": 24,
                "velocity": 80,
                "duration": 0.11363636363634555,
                "tempo": 120.0
            },
            {
                "start_time": 136.24318181818182,
                "end_time": 136.3409090909091,
                "pitch": 36,
                "velocity": 80,
                "duration": 0.09772727272726911,
                "tempo": 120.0
            },
            {
                "start_time": 136.3409090909091,
                "end_time": 136.5522727272727,
                "pitch": 23,
                "velocity": 80,
                "duration": 0.21136363636361466,
                "tempo": 120.0
            },
            {
                "start_time": 136.5522727272727,
                "end_time": 136.76590909090908,
                "pitch": 23,
                "velocity": 80,
                "duration": 0.2136363636363683,
                "tempo": 120.0
            },
            {
                "start_time": 136.76590909090908,
                "end_time": 136.98181818181817,
                "pitch": 21,
                "velocity": 80,
                "duration": 0.2159090909090935,
                "tempo": 120.0
            },
            {
                "start_time": 136.9840909090909,
                "end_time": 137.08181818181816,
                "pitch": 21,
                "velocity": 80,
                "duration": 0.09772727272726911,
                "tempo": 120.0
            },
            {
                "start_time": 137.0840909090909,
                "end_time": 137.2,
                "pitch": 33,
                "velocity": 80,
                "duration": 0.11590909090909918,
                "tempo": 120.0
            },
            {
                "start_time": 137.2,
                "end_time": 137.29999999999998,
                "pitch": 23,
                "velocity": 80,
                "duration": 0.09999999999999432,
                "tempo": 120.0
            },
            {
                "start_time": 137.3022727272727,
                "end_time": 137.42045454545453,
                "pitch": 23,
                "velocity": 80,
                "duration": 0.11818181818182438,
                "tempo": 120.0
            },
            {
                "start_time": 137.42272727272726,
                "end_time": 137.625,
                "pitch": 35,
                "velocity": 80,
                "duration": 0.20227272727274226,
                "tempo": 120.0
            },
            {
                "start_time": 137.62727272727273,
                "end_time": 137.83181818181816,
                "pitch": 36,
                "velocity": 80,
                "duration": 0.20454545454543904,
                "tempo": 120.0
            },
            {
                "start_time": 137.8340909090909,
                "end_time": 137.9431818181818,
                "pitch": 35,
                "velocity": 80,
                "duration": 0.10909090909092356,
                "tempo": 120.0
            },
            {
                "start_time": 137.9431818181818,
                "end_time": 138.03863636363636,
                "pitch": 33,
                "velocity": 80,
                "duration": 0.0954545454545439,
                "tempo": 120.0
            },
            {
                "start_time": 138.04090909090908,
                "end_time": 138.15681818181818,
                "pitch": 26,
                "velocity": 80,
                "duration": 0.11590909090909918,
                "tempo": 120.0
            },
            {
                "start_time": 138.15681818181818,
                "end_time": 138.25681818181818,
                "pitch": 38,
                "velocity": 80,
                "duration": 0.09999999999999432,
                "tempo": 120.0
            },
            {
                "start_time": 138.25681818181818,
                "end_time": 138.35681818181817,
                "pitch": 36,
                "velocity": 80,
                "duration": 0.09999999999999432,
                "tempo": 120.0
            },
            {
                "start_time": 138.35681818181817,
                "end_time": 138.47272727272727,
                "pitch": 35,
                "velocity": 80,
                "duration": 0.11590909090909918,
                "tempo": 120.0
            },
            {
                "start_time": 138.475,
                "end_time": 138.69545454545454,
                "pitch": 28,
                "velocity": 80,
                "duration": 0.2204545454545439,
                "tempo": 120.0
            },
            {
                "start_time": 138.69545454545454,
                "end_time": 138.91590909090908,
                "pitch": 40,
                "velocity": 80,
                "duration": 0.2204545454545439,
                "tempo": 120.0
            },
            {
                "start_time": 138.9181818181818,
                "end_time": 139.01590909090908,
                "pitch": 28,
                "velocity": 80,
                "duration": 0.09772727272726911,
                "tempo": 120.0
            },
            {
                "start_time": 139.0181818181818,
                "end_time": 139.11818181818182,
                "pitch": 28,
                "velocity": 80,
                "duration": 0.10000000000002274,
                "tempo": 120.0
            },
            {
                "start_time": 139.11818181818182,
                "end_time": 139.2340909090909,
                "pitch": 40,
                "velocity": 80,
                "duration": 0.11590909090907076,
                "tempo": 120.0
            },
            {
                "start_time": 139.33636363636364,
                "end_time": 139.54090909090908,
                "pitch": 28,
                "velocity": 80,
                "duration": 0.20454545454543904,
                "tempo": 120.0
            },
            {
                "start_time": 139.54090909090908,
                "end_time": 139.74772727272727,
                "pitch": 40,
                "velocity": 80,
                "duration": 0.20681818181819267,
                "tempo": 120.0
            },
            {
                "start_time": 139.74772727272727,
                "end_time": 139.97045454545454,
                "pitch": 28,
                "velocity": 80,
                "duration": 0.2227272727272691,
                "tempo": 120.0
            },
            {
                "start_time": 139.97045454545454,
                "end_time": 140.07045454545454,
                "pitch": 28,
                "velocity": 80,
                "duration": 0.09999999999999432,
                "tempo": 120.0
            },
            {
                "start_time": 140.07272727272726,
                "end_time": 140.1909090909091,
                "pitch": 28,
                "velocity": 80,
                "duration": 0.11818181818182438,
                "tempo": 120.0
            },
            {
                "start_time": 140.1931818181818,
                "end_time": 140.4090909090909,
                "pitch": 28,
                "velocity": 80,
                "duration": 0.2159090909090935,
                "tempo": 120.0
            },
            {
                "start_time": 140.4090909090909,
                "end_time": 140.5090909090909,
                "pitch": 40,
                "velocity": 80,
                "duration": 0.09999999999999432,
                "tempo": 120.0
            },
            {
                "start_time": 140.5090909090909,
                "end_time": 140.6090909090909,
                "pitch": 28,
                "velocity": 80,
                "duration": 0.09999999999999432,
                "tempo": 120.0
            },
            {
                "start_time": 140.6090909090909,
                "end_time": 140.72272727272727,
                "pitch": 28,
                "velocity": 80,
                "duration": 0.11363636363637397,
                "tempo": 120.0
            },
            {
                "start_time": 140.72272727272727,
                "end_time": 140.82045454545454,
                "pitch": 28,
                "velocity": 80,
                "duration": 0.09772727272726911,
                "tempo": 120.0
            },
            {
                "start_time": 140.82272727272726,
                "end_time": 140.93636363636364,
                "pitch": 40,
                "velocity": 80,
                "duration": 0.11363636363637397,
                "tempo": 120.0
            },
            {
                "start_time": 141.0340909090909,
                "end_time": 141.15,
                "pitch": 28,
                "velocity": 80,
                "duration": 0.11590909090909918,
                "tempo": 120.0
            },
            {
                "start_time": 141.15,
                "end_time": 141.25,
                "pitch": 40,
                "velocity": 80,
                "duration": 0.09999999999999432,
                "tempo": 120.0
            },
            {
                "start_time": 141.25227272727273,
                "end_time": 141.35,
                "pitch": 28,
                "velocity": 80,
                "duration": 0.09772727272726911,
                "tempo": 120.0
            },
            {
                "start_time": 141.46818181818182,
                "end_time": 141.6840909090909,
                "pitch": 28,
                "velocity": 80,
                "duration": 0.2159090909090935,
                "tempo": 120.0
            },
            {
                "start_time": 141.68636363636364,
                "end_time": 141.7840909090909,
                "pitch": 28,
                "velocity": 80,
                "duration": 0.09772727272726911,
                "tempo": 120.0
            },
            {
                "start_time": 141.78636363636363,
                "end_time": 141.90227272727273,
                "pitch": 28,
                "velocity": 80,
                "duration": 0.11590909090909918,
                "tempo": 120.0
            },
            {
                "start_time": 141.90227272727273,
                "end_time": 142.10227272727272,
                "pitch": 28,
                "velocity": 80,
                "duration": 0.19999999999998863,
                "tempo": 120.0
            },
            {
                "start_time": 142.10227272727272,
                "end_time": 142.3181818181818,
                "pitch": 40,
                "velocity": 80,
                "duration": 0.2159090909090935,
                "tempo": 120.0
            },
            {
                "start_time": 142.32045454545454,
                "end_time": 142.4340909090909,
                "pitch": 28,
                "velocity": 80,
                "duration": 0.11363636363637397,
                "tempo": 120.0
            },
            {
                "start_time": 142.4340909090909,
                "end_time": 142.53181818181818,
                "pitch": 28,
                "velocity": 80,
                "duration": 0.09772727272726911,
                "tempo": 120.0
            },
            {
                "start_time": 142.53181818181818,
                "end_time": 142.64545454545453,
                "pitch": 40,
                "velocity": 80,
                "duration": 0.11363636363634555,
                "tempo": 120.0
            },
            {
                "start_time": 142.74545454545455,
                "end_time": 142.96136363636364,
                "pitch": 28,
                "velocity": 80,
                "duration": 0.2159090909090935,
                "tempo": 120.0
            },
            {
                "start_time": 142.96136363636364,
                "end_time": 143.17954545454546,
                "pitch": 40,
                "velocity": 80,
                "duration": 0.2181818181818187,
                "tempo": 120.0
            },
            {
                "start_time": 143.17954545454546,
                "end_time": 143.39545454545453,
                "pitch": 28,
                "velocity": 80,
                "duration": 0.21590909090906507,
                "tempo": 120.0
            },
            {
                "start_time": 143.39772727272725,
                "end_time": 143.49545454545455,
                "pitch": 28,
                "velocity": 80,
                "duration": 0.09772727272729753,
                "tempo": 120.0
            },
            {
                "start_time": 143.49545454545455,
                "end_time": 143.59545454545454,
                "pitch": 28,
                "velocity": 80,
                "duration": 0.09999999999999432,
                "tempo": 120.0
            },
            {
                "start_time": 143.59772727272727,
                "end_time": 143.8090909090909,
                "pitch": 31,
                "velocity": 80,
                "duration": 0.21136363636364308,
                "tempo": 120.0
            },
            {
                "start_time": 143.8090909090909,
                "end_time": 143.92272727272726,
                "pitch": 19,
                "velocity": 80,
                "duration": 0.11363636363634555,
                "tempo": 120.0
            },
            {
                "start_time": 143.92272727272726,
                "end_time": 144.02045454545453,
                "pitch": 31,
                "velocity": 80,
                "duration": 0.09772727272726911,
                "tempo": 120.0
            },
            {
                "start_time": 144.02272727272725,
                "end_time": 144.13863636363635,
                "pitch": 30,
                "velocity": 80,
                "duration": 0.11590909090909918,
                "tempo": 120.0
            },
            {
                "start_time": 144.13863636363635,
                "end_time": 144.23863636363635,
                "pitch": 30,
                "velocity": 80,
                "duration": 0.09999999999999432,
                "tempo": 120.0
            },
            {
                "start_time": 144.23863636363635,
                "end_time": 144.33863636363637,
                "pitch": 18,
                "velocity": 80,
                "duration": 0.10000000000002274,
                "tempo": 120.0
            },
            {
                "start_time": 144.45681818181816,
                "end_time": 144.67272727272726,
                "pitch": 29,
                "velocity": 80,
                "duration": 0.2159090909090935,
                "tempo": 120.0
            },
            {
                "start_time": 144.67272727272726,
                "end_time": 144.77272727272725,
                "pitch": 16,
                "velocity": 80,
                "duration": 0.09999999999999432,
                "tempo": 120.0
            },
            {
                "start_time": 144.77272727272725,
                "end_time": 144.88863636363635,
                "pitch": 29,
                "velocity": 80,
                "duration": 0.11590909090909918,
                "tempo": 120.0
            },
            {
                "start_time": 144.89090909090908,
                "end_time": 144.99090909090907,
                "pitch": 23,
                "velocity": 80,
                "duration": 0.09999999999999432,
                "tempo": 120.0
            },
            {
                "start_time": 144.99090909090907,
                "end_time": 145.09318181818182,
                "pitch": 23,
                "velocity": 80,
                "duration": 0.10227272727274794,
                "tempo": 120.0
            },
            {
                "start_time": 145.09545454545454,
                "end_time": 145.21363636363637,
                "pitch": 35,
                "velocity": 80,
                "duration": 0.11818181818182438,
                "tempo": 120.0
            },
            {
                "start_time": 145.21363636363637,
                "end_time": 145.3159090909091,
                "pitch": 23,
                "velocity": 80,
                "duration": 0.10227272727271952,
                "tempo": 120.0
            },
            {
                "start_time": 145.3159090909091,
                "end_time": 145.52272727272725,
                "pitch": 28,
                "velocity": 80,
                "duration": 0.20681818181816425,
                "tempo": 120.0
            },
            {
                "start_time": 145.52272727272725,
                "end_time": 145.72954545454544,
                "pitch": 40,
                "velocity": 80,
                "duration": 0.20681818181819267,
                "tempo": 120.0
            },
            {
                "start_time": 145.72954545454544,
                "end_time": 145.82954545454544,
                "pitch": 28,
                "velocity": 80,
                "duration": 0.09999999999999432,
                "tempo": 120.0
            },
            {
                "start_time": 145.82954545454544,
                "end_time": 145.94545454545454,
                "pitch": 28,
                "velocity": 80,
                "duration": 0.11590909090909918,
                "tempo": 120.0
            },
            {
                "start_time": 145.94772727272726,
                "end_time": 146.04545454545453,
                "pitch": 40,
                "velocity": 80,
                "duration": 0.09772727272726911,
                "tempo": 120.0
            },
            {
                "start_time": 146.16363636363636,
                "end_time": 146.3840909090909,
                "pitch": 28,
                "velocity": 80,
                "duration": 0.2204545454545439,
                "tempo": 120.0
            },
            {
                "start_time": 146.38636363636363,
                "end_time": 146.5909090909091,
                "pitch": 40,
                "velocity": 80,
                "duration": 0.20454545454546746,
                "tempo": 120.0
            },
            {
                "start_time": 146.5909090909091,
                "end_time": 146.79772727272726,
                "pitch": 28,
                "velocity": 80,
                "duration": 0.20681818181816425,
                "tempo": 120.0
            },
            {
                "start_time": 146.79772727272726,
                "end_time": 146.90681818181818,
                "pitch": 28,
                "velocity": 80,
                "duration": 0.10909090909092356,
                "tempo": 120.0
            },
            {
                "start_time": 146.9090909090909,
                "end_time": 147.00454545454545,
                "pitch": 28,
                "velocity": 80,
                "duration": 0.0954545454545439,
                "tempo": 120.0
            },
            {
                "start_time": 147.00454545454545,
                "end_time": 147.225,
                "pitch": 28,
                "velocity": 80,
                "duration": 0.2204545454545439,
                "tempo": 120.0
            },
            {
                "start_time": 147.225,
                "end_time": 147.3272727272727,
                "pitch": 40,
                "velocity": 80,
                "duration": 0.10227272727271952,
                "tempo": 120.0
            },
            {
                "start_time": 147.3272727272727,
                "end_time": 147.44772727272726,
                "pitch": 28,
                "velocity": 80,
                "duration": 0.12045454545454959,
                "tempo": 120.0
            },
            {
                "start_time": 147.44772727272726,
                "end_time": 147.54545454545453,
                "pitch": 28,
                "velocity": 80,
                "duration": 0.09772727272726911,
                "tempo": 120.0
            },
            {
                "start_time": 147.54772727272726,
                "end_time": 147.66363636363636,
                "pitch": 28,
                "velocity": 80,
                "duration": 0.11590909090909918,
                "tempo": 120.0
            },
            {
                "start_time": 147.66363636363636,
                "end_time": 147.76363636363635,
                "pitch": 40,
                "velocity": 80,
                "duration": 0.09999999999999432,
                "tempo": 120.0
            },
            {
                "start_time": 147.88181818181818,
                "end_time": 147.98181818181817,
                "pitch": 28,
                "velocity": 80,
                "duration": 0.09999999999999432,
                "tempo": 120.0
            },
            {
                "start_time": 147.98181818181817,
                "end_time": 148.08181818181816,
                "pitch": 40,
                "velocity": 80,
                "duration": 0.09999999999999432,
                "tempo": 120.0
            },
            {
                "start_time": 148.08181818181816,
                "end_time": 148.19772727272726,
                "pitch": 28,
                "velocity": 80,
                "duration": 0.11590909090909918,
                "tempo": 120.0
            },
            {
                "start_time": 148.29999999999998,
                "end_time": 148.51136363636363,
                "pitch": 28,
                "velocity": 80,
                "duration": 0.21136363636364308,
                "tempo": 120.0
            },
            {
                "start_time": 148.51136363636363,
                "end_time": 148.625,
                "pitch": 28,
                "velocity": 80,
                "duration": 0.11363636363637397,
                "tempo": 120.0
            },
            {
                "start_time": 148.625,
                "end_time": 148.72272727272727,
                "pitch": 28,
                "velocity": 80,
                "duration": 0.09772727272726911,
                "tempo": 120.0
            },
            {
                "start_time": 148.725,
                "end_time": 148.9409090909091,
                "pitch": 28,
                "velocity": 80,
                "duration": 0.2159090909090935,
                "tempo": 120.0
            },
            {
                "start_time": 148.9409090909091,
                "end_time": 149.15681818181818,
                "pitch": 40,
                "velocity": 80,
                "duration": 0.2159090909090935,
                "tempo": 120.0
            },
            {
                "start_time": 149.1590909090909,
                "end_time": 149.25681818181818,
                "pitch": 28,
                "velocity": 80,
                "duration": 0.09772727272726911,
                "tempo": 120.0
            },
            {
                "start_time": 149.2590909090909,
                "end_time": 149.375,
                "pitch": 28,
                "velocity": 80,
                "duration": 0.11590909090909918,
                "tempo": 120.0
            },
            {
                "start_time": 149.375,
                "end_time": 149.475,
                "pitch": 40,
                "velocity": 80,
                "duration": 0.09999999999999432,
                "tempo": 120.0
            },
            {
                "start_time": 149.575,
                "end_time": 149.78636363636363,
                "pitch": 28,
                "velocity": 80,
                "duration": 0.21136363636364308,
                "tempo": 120.0
            },
            {
                "start_time": 149.78863636363636,
                "end_time": 150.0,
                "pitch": 40,
                "velocity": 80,
                "duration": 0.21136363636364308,
                "tempo": 120.0
            },
            {
                "start_time": 150.00227272727273,
                "end_time": 150.21818181818182,
                "pitch": 28,
                "velocity": 80,
                "duration": 0.2159090909090935,
                "tempo": 120.0
            },
            {
                "start_time": 150.21818181818182,
                "end_time": 150.3159090909091,
                "pitch": 28,
                "velocity": 80,
                "duration": 0.09772727272726911,
                "tempo": 120.0
            },
            {
                "start_time": 150.3181818181818,
                "end_time": 150.4340909090909,
                "pitch": 28,
                "velocity": 80,
                "duration": 0.11590909090909918,
                "tempo": 120.0
            },
            {
                "start_time": 150.43636363636364,
                "end_time": 150.65,
                "pitch": 31,
                "velocity": 80,
                "duration": 0.2136363636363683,
                "tempo": 120.0
            },
            {
                "start_time": 150.65227272727273,
                "end_time": 150.75,
                "pitch": 19,
                "velocity": 80,
                "duration": 0.09772727272726911,
                "tempo": 120.0
            },
            {
                "start_time": 150.75227272727273,
                "end_time": 150.86818181818182,
                "pitch": 31,
                "velocity": 80,
                "duration": 0.11590909090909918,
                "tempo": 120.0
            },
            {
                "start_time": 150.87045454545455,
                "end_time": 150.97045454545454,
                "pitch": 30,
                "velocity": 80,
                "duration": 0.09999999999999432,
                "tempo": 120.0
            },
            {
                "start_time": 150.97045454545454,
                "end_time": 151.07272727272726,
                "pitch": 30,
                "velocity": 80,
                "duration": 0.10227272727271952,
                "tempo": 120.0
            },
            {
                "start_time": 151.07272727272726,
                "end_time": 151.1909090909091,
                "pitch": 18,
                "velocity": 80,
                "duration": 0.11818181818182438,
                "tempo": 120.0
            },
            {
                "start_time": 151.29545454545453,
                "end_time": 151.50227272727273,
                "pitch": 29,
                "velocity": 80,
                "duration": 0.20681818181819267,
                "tempo": 120.0
            },
            {
                "start_time": 151.50227272727273,
                "end_time": 151.61136363636362,
                "pitch": 16,
                "velocity": 80,
                "duration": 0.10909090909089514,
                "tempo": 120.0
            },
            {
                "start_time": 151.61363636363635,
                "end_time": 151.7090909090909,
                "pitch": 29,
                "velocity": 80,
                "duration": 0.0954545454545439,
                "tempo": 120.0
            },
            {
                "start_time": 151.7090909090909,
                "end_time": 151.8090909090909,
                "pitch": 23,
                "velocity": 80,
                "duration": 0.10000000000002274,
                "tempo": 120.0
            },
            {
                "start_time": 151.8090909090909,
                "end_time": 151.92499999999998,
                "pitch": 23,
                "velocity": 80,
                "duration": 0.11590909090907076,
                "tempo": 120.0
            },
            {
                "start_time": 151.92499999999998,
                "end_time": 152.025,
                "pitch": 35,
                "velocity": 80,
                "duration": 0.10000000000002274,
                "tempo": 120.0
            },
            {
                "start_time": 152.02727272727273,
                "end_time": 152.1431818181818,
                "pitch": 23,
                "velocity": 80,
                "duration": 0.11590909090907076,
                "tempo": 120.0
            },
            {
                "start_time": 152.1431818181818,
                "end_time": 152.36363636363635,
                "pitch": 24,
                "velocity": 80,
                "duration": 0.2204545454545439,
                "tempo": 120.0
            },
            {
                "start_time": 152.36590909090907,
                "end_time": 152.5681818181818,
                "pitch": 24,
                "velocity": 80,
                "duration": 0.20227272727274226,
                "tempo": 120.0
            },
            {
                "start_time": 152.57045454545454,
                "end_time": 152.67954545454543,
                "pitch": 24,
                "velocity": 80,
                "duration": 0.10909090909089514,
                "tempo": 120.0
            },
            {
                "start_time": 152.67954545454543,
                "end_time": 152.775,
                "pitch": 24,
                "velocity": 80,
                "duration": 0.09545454545457233,
                "tempo": 120.0
            },
            {
                "start_time": 152.77727272727273,
                "end_time": 152.88636363636363,
                "pitch": 36,
                "velocity": 80,
                "duration": 0.10909090909089514,
                "tempo": 120.0
            },
            {
                "start_time": 152.88863636363635,
                "end_time": 152.98181818181817,
                "pitch": 24,
                "velocity": 80,
                "duration": 0.0931818181818187,
                "tempo": 120.0
            },
            {
                "start_time": 152.9840909090909,
                "end_time": 153.2,
                "pitch": 24,
                "velocity": 80,
                "duration": 0.2159090909090935,
                "tempo": 120.0
            },
            {
                "start_time": 153.2,
                "end_time": 153.41590909090908,
                "pitch": 24,
                "velocity": 80,
                "duration": 0.2159090909090935,
                "tempo": 120.0
            },
            {
                "start_time": 153.4181818181818,
                "end_time": 153.63863636363635,
                "pitch": 28,
                "velocity": 80,
                "duration": 0.2204545454545439,
                "tempo": 120.0
            },
            {
                "start_time": 153.63863636363635,
                "end_time": 153.74090909090907,
                "pitch": 28,
                "velocity": 80,
                "duration": 0.10227272727271952,
                "tempo": 120.0
            },
            {
                "start_time": 153.74090909090907,
                "end_time": 153.84318181818182,
                "pitch": 28,
                "velocity": 80,
                "duration": 0.10227272727274794,
                "tempo": 120.0
            },
            {
                "start_time": 153.84318181818182,
                "end_time": 154.04999999999998,
                "pitch": 26,
                "velocity": 80,
                "duration": 0.20681818181816425,
                "tempo": 120.0
            },
            {
                "start_time": 154.04999999999998,
                "end_time": 154.25681818181818,
                "pitch": 26,
                "velocity": 80,
                "duration": 0.20681818181819267,
                "tempo": 120.0
            },
            {
                "start_time": 154.25681818181818,
                "end_time": 154.37272727272727,
                "pitch": 26,
                "velocity": 80,
                "duration": 0.11590909090909918,
                "tempo": 120.0
            },
            {
                "start_time": 154.37272727272727,
                "end_time": 154.47272727272727,
                "pitch": 26,
                "velocity": 80,
                "duration": 0.09999999999999432,
                "tempo": 120.0
            },
            {
                "start_time": 154.475,
                "end_time": 154.57272727272726,
                "pitch": 38,
                "velocity": 80,
                "duration": 0.09772727272726911,
                "tempo": 120.0
            },
            {
                "start_time": 154.575,
                "end_time": 154.6909090909091,
                "pitch": 26,
                "velocity": 80,
                "duration": 0.11590909090909918,
                "tempo": 120.0
            },
            {
                "start_time": 154.6909090909091,
                "end_time": 154.91363636363636,
                "pitch": 26,
                "velocity": 80,
                "duration": 0.2227272727272691,
                "tempo": 120.0
            },
            {
                "start_time": 154.91363636363636,
                "end_time": 155.1340909090909,
                "pitch": 26,
                "velocity": 80,
                "duration": 0.2204545454545439,
                "tempo": 120.0
            },
            {
                "start_time": 155.13636363636363,
                "end_time": 155.3340909090909,
                "pitch": 30,
                "velocity": 80,
                "duration": 0.19772727272726343,
                "tempo": 120.0
            },
            {
                "start_time": 155.3340909090909,
                "end_time": 155.45,
                "pitch": 30,
                "velocity": 80,
                "duration": 0.11590909090909918,
                "tempo": 120.0
            },
            {
                "start_time": 155.4522727272727,
                "end_time": 155.5522727272727,
                "pitch": 30,
                "velocity": 80,
                "duration": 0.09999999999999432,
                "tempo": 120.0
            },
            {
                "start_time": 155.5522727272727,
                "end_time": 155.7590909090909,
                "pitch": 28,
                "velocity": 80,
                "duration": 0.20681818181819267,
                "tempo": 120.0
            },
            {
                "start_time": 155.7590909090909,
                "end_time": 155.9659090909091,
                "pitch": 28,
                "velocity": 80,
                "duration": 0.20681818181819267,
                "tempo": 120.0
            },
            {
                "start_time": 155.9659090909091,
                "end_time": 156.0659090909091,
                "pitch": 28,
                "velocity": 80,
                "duration": 0.09999999999999432,
                "tempo": 120.0
            },
            {
                "start_time": 156.0681818181818,
                "end_time": 156.18636363636364,
                "pitch": 28,
                "velocity": 80,
                "duration": 0.11818181818182438,
                "tempo": 120.0
            },
            {
                "start_time": 156.18863636363636,
                "end_time": 156.28863636363636,
                "pitch": 40,
                "velocity": 80,
                "duration": 0.09999999999999432,
                "tempo": 120.0
            },
            {
                "start_time": 156.29090909090908,
                "end_time": 156.4090909090909,
                "pitch": 28,
                "velocity": 80,
                "duration": 0.11818181818182438,
                "tempo": 120.0
            },
            {
                "start_time": 156.4090909090909,
                "end_time": 156.625,
                "pitch": 28,
                "velocity": 80,
                "duration": 0.2159090909090935,
                "tempo": 120.0
            },
            {
                "start_time": 156.62727272727273,
                "end_time": 156.825,
                "pitch": 28,
                "velocity": 80,
                "duration": 0.19772727272726343,
                "tempo": 120.0
            },
            {
                "start_time": 156.8272727272727,
                "end_time": 157.03863636363636,
                "pitch": 28,
                "velocity": 80,
                "duration": 0.21136363636364308,
                "tempo": 120.0
            },
            {
                "start_time": 157.03863636363636,
                "end_time": 157.15227272727273,
                "pitch": 28,
                "velocity": 80,
                "duration": 0.11363636363637397,
                "tempo": 120.0
            },
            {
                "start_time": 157.15454545454546,
                "end_time": 157.25,
                "pitch": 28,
                "velocity": 80,
                "duration": 0.0954545454545439,
                "tempo": 120.0
            },
            {
                "start_time": 157.25227272727273,
                "end_time": 157.46818181818182,
                "pitch": 31,
                "velocity": 80,
                "duration": 0.2159090909090935,
                "tempo": 120.0
            },
            {
                "start_time": 157.46818181818182,
                "end_time": 157.5681818181818,
                "pitch": 31,
                "velocity": 80,
                "duration": 0.09999999999999432,
                "tempo": 120.0
            },
            {
                "start_time": 157.5681818181818,
                "end_time": 157.6840909090909,
                "pitch": 43,
                "velocity": 80,
                "duration": 0.11590909090909918,
                "tempo": 120.0
            },
            {
                "start_time": 157.68636363636364,
                "end_time": 157.7840909090909,
                "pitch": 31,
                "velocity": 80,
                "duration": 0.09772727272726911,
                "tempo": 120.0
            },
            {
                "start_time": 157.78636363636363,
                "end_time": 157.90227272727273,
                "pitch": 31,
                "velocity": 80,
                "duration": 0.11590909090909918,
                "tempo": 120.0
            },
            {
                "start_time": 157.90227272727273,
                "end_time": 158.00227272727273,
                "pitch": 43,
                "velocity": 80,
                "duration": 0.09999999999999432,
                "tempo": 120.0
            },
            {
                "start_time": 158.00454545454545,
                "end_time": 158.12045454545455,
                "pitch": 31,
                "velocity": 80,
                "duration": 0.11590909090909918,
                "tempo": 120.0
            },
            {
                "start_time": 158.12045454545455,
                "end_time": 158.3181818181818,
                "pitch": 31,
                "velocity": 80,
                "duration": 0.19772727272726343,
                "tempo": 120.0
            },
            {
                "start_time": 158.32045454545454,
                "end_time": 158.53636363636363,
                "pitch": 31,
                "velocity": 80,
                "duration": 0.2159090909090935,
                "tempo": 120.0
            },
            {
                "start_time": 158.53863636363636,
                "end_time": 158.75,
                "pitch": 31,
                "velocity": 80,
                "duration": 0.21136363636364308,
                "tempo": 120.0
            },
            {
                "start_time": 158.75,
                "end_time": 158.86363636363635,
                "pitch": 31,
                "velocity": 80,
                "duration": 0.11363636363634555,
                "tempo": 120.0
            },
            {
                "start_time": 158.86363636363635,
                "end_time": 158.96136363636361,
                "pitch": 31,
                "velocity": 80,
                "duration": 0.09772727272726911,
                "tempo": 120.0
            },
            {
                "start_time": 158.96363636363637,
                "end_time": 159.17954545454543,
                "pitch": 21,
                "velocity": 80,
                "duration": 0.21590909090906507,
                "tempo": 120.0
            },
            {
                "start_time": 159.17954545454543,
                "end_time": 159.39545454545453,
                "pitch": 21,
                "velocity": 80,
                "duration": 0.2159090909090935,
                "tempo": 120.0
            },
            {
                "start_time": 159.39772727272725,
                "end_time": 159.49545454545455,
                "pitch": 21,
                "velocity": 80,
                "duration": 0.09772727272729753,
                "tempo": 120.0
            },
            {
                "start_time": 159.49545454545455,
                "end_time": 159.61363636363635,
                "pitch": 21,
                "velocity": 80,
                "duration": 0.11818181818179596,
                "tempo": 120.0
            },
            {
                "start_time": 159.61363636363635,
                "end_time": 159.71363636363637,
                "pitch": 33,
                "velocity": 80,
                "duration": 0.10000000000002274,
                "tempo": 120.0
            },
            {
                "start_time": 159.71363636363637,
                "end_time": 159.81363636363636,
                "pitch": 21,
                "velocity": 80,
                "duration": 0.09999999999999432,
                "tempo": 120.0
            },
            {
                "start_time": 159.81363636363636,
                "end_time": 160.025,
                "pitch": 21,
                "velocity": 80,
                "duration": 0.21136363636364308,
                "tempo": 120.0
            },
            {
                "start_time": 160.02727272727273,
                "end_time": 160.23863636363635,
                "pitch": 21,
                "velocity": 80,
                "duration": 0.21136363636361466,
                "tempo": 120.0
            },
            {
                "start_time": 160.23863636363635,
                "end_time": 160.45454545454544,
                "pitch": 21,
                "velocity": 80,
                "duration": 0.2159090909090935,
                "tempo": 120.0
            },
            {
                "start_time": 160.45681818181816,
                "end_time": 160.5568181818182,
                "pitch": 21,
                "velocity": 80,
                "duration": 0.10000000000002274,
                "tempo": 120.0
            },
            {
                "start_time": 160.5568181818182,
                "end_time": 160.67272727272726,
                "pitch": 21,
                "velocity": 80,
                "duration": 0.11590909090907076,
                "tempo": 120.0
            },
            {
                "start_time": 160.67499999999998,
                "end_time": 160.88863636363635,
                "pitch": 23,
                "velocity": 80,
                "duration": 0.2136363636363683,
                "tempo": 120.0
            },
            {
                "start_time": 160.89090909090908,
                "end_time": 160.98863636363635,
                "pitch": 23,
                "velocity": 80,
                "duration": 0.09772727272726911,
                "tempo": 120.0
            },
            {
                "start_time": 160.99090909090907,
                "end_time": 161.10681818181817,
                "pitch": 35,
                "velocity": 80,
                "duration": 0.11590909090909918,
                "tempo": 120.0
            },
            {
                "start_time": 161.1090909090909,
                "end_time": 161.2090909090909,
                "pitch": 23,
                "velocity": 80,
                "duration": 0.09999999999999432,
                "tempo": 120.0
            },
            {
                "start_time": 161.2090909090909,
                "end_time": 161.31136363636364,
                "pitch": 23,
                "velocity": 80,
                "duration": 0.10227272727274794,
                "tempo": 120.0
            },
            {
                "start_time": 161.31136363636364,
                "end_time": 161.4318181818182,
                "pitch": 35,
                "velocity": 80,
                "duration": 0.12045454545454959,
                "tempo": 120.0
            },
            {
                "start_time": 161.4318181818182,
                "end_time": 161.5340909090909,
                "pitch": 26,
                "velocity": 80,
                "duration": 0.10227272727271952,
                "tempo": 120.0
            },
            {
                "start_time": 161.5340909090909,
                "end_time": 161.74090909090907,
                "pitch": 26,
                "velocity": 80,
                "duration": 0.20681818181816425,
                "tempo": 120.0
            },
            {
                "start_time": 161.74090909090907,
                "end_time": 161.94772727272726,
                "pitch": 27,
                "velocity": 80,
                "duration": 0.20681818181819267,
                "tempo": 120.0
            },
            {
                "start_time": 161.94772727272726,
                "end_time": 162.04772727272726,
                "pitch": 40,
                "velocity": 80,
                "duration": 0.09999999999999432,
                "tempo": 120.0
            },
            {
                "start_time": 162.04999999999998,
                "end_time": 162.1681818181818,
                "pitch": 42,
                "velocity": 80,
                "duration": 0.11818181818182438,
                "tempo": 120.0
            },
            {
                "start_time": 162.1681818181818,
                "end_time": 162.27045454545453,
                "pitch": 43,
                "velocity": 80,
                "duration": 0.10227272727271952,
                "tempo": 120.0
            },
            {
                "start_time": 162.27045454545453,
                "end_time": 162.39090909090908,
                "pitch": 40,
                "velocity": 80,
                "duration": 0.12045454545454959,
                "tempo": 120.0
            },
            {
                "start_time": 162.39090909090908,
                "end_time": 162.60681818181817,
                "pitch": 24,
                "velocity": 80,
                "duration": 0.2159090909090935,
                "tempo": 120.0
            },
            {
                "start_time": 162.60681818181817,
                "end_time": 162.72272727272727,
                "pitch": 24,
                "velocity": 80,
                "duration": 0.11590909090909918,
                "tempo": 120.0
            },
            {
                "start_time": 162.725,
                "end_time": 162.825,
                "pitch": 36,
                "velocity": 80,
                "duration": 0.09999999999999432,
                "tempo": 120.0
            },
            {
                "start_time": 162.825,
                "end_time": 162.9409090909091,
                "pitch": 24,
                "velocity": 80,
                "duration": 0.11590909090909918,
                "tempo": 120.0
            },
            {
                "start_time": 162.9409090909091,
                "end_time": 163.04090909090908,
                "pitch": 24,
                "velocity": 80,
                "duration": 0.09999999999999432,
                "tempo": 120.0
            },
            {
                "start_time": 163.04090909090908,
                "end_time": 163.2590909090909,
                "pitch": 36,
                "velocity": 80,
                "duration": 0.2181818181818187,
                "tempo": 120.0
            },
            {
                "start_time": 163.2590909090909,
                "end_time": 163.475,
                "pitch": 24,
                "velocity": 80,
                "duration": 0.2159090909090935,
                "tempo": 120.0
            },
            {
                "start_time": 163.475,
                "end_time": 163.575,
                "pitch": 24,
                "velocity": 80,
                "duration": 0.09999999999999432,
                "tempo": 120.0
            },
            {
                "start_time": 163.575,
                "end_time": 163.6931818181818,
                "pitch": 36,
                "velocity": 80,
                "duration": 0.11818181818182438,
                "tempo": 120.0
            },
            {
                "start_time": 163.6931818181818,
                "end_time": 163.8931818181818,
                "pitch": 23,
                "velocity": 80,
                "duration": 0.19999999999998863,
                "tempo": 120.0
            },
            {
                "start_time": 163.8931818181818,
                "end_time": 164.1090909090909,
                "pitch": 23,
                "velocity": 80,
                "duration": 0.2159090909090935,
                "tempo": 120.0
            },
            {
                "start_time": 164.11136363636362,
                "end_time": 164.32272727272726,
                "pitch": 21,
                "velocity": 80,
                "duration": 0.21136363636364308,
                "tempo": 120.0
            },
            {
                "start_time": 164.32272727272726,
                "end_time": 164.43636363636364,
                "pitch": 21,
                "velocity": 80,
                "duration": 0.11363636363637397,
                "tempo": 120.0
            },
            {
                "start_time": 164.43636363636364,
                "end_time": 164.5340909090909,
                "pitch": 33,
                "velocity": 80,
                "duration": 0.09772727272726911,
                "tempo": 120.0
            },
            {
                "start_time": 164.53636363636363,
                "end_time": 164.6340909090909,
                "pitch": 23,
                "velocity": 80,
                "duration": 0.09772727272726911,
                "tempo": 120.0
            },
            {
                "start_time": 164.63636363636363,
                "end_time": 164.75227272727273,
                "pitch": 23,
                "velocity": 80,
                "duration": 0.11590909090909918,
                "tempo": 120.0
            },
            {
                "start_time": 164.75227272727273,
                "end_time": 164.96818181818182,
                "pitch": 35,
                "velocity": 80,
                "duration": 0.2159090909090935,
                "tempo": 120.0
            },
            {
                "start_time": 164.97045454545454,
                "end_time": 165.18636363636364,
                "pitch": 36,
                "velocity": 80,
                "duration": 0.2159090909090935,
                "tempo": 120.0
            },
            {
                "start_time": 165.18636363636364,
                "end_time": 165.28636363636363,
                "pitch": 35,
                "velocity": 80,
                "duration": 0.09999999999999432,
                "tempo": 120.0
            },
            {
                "start_time": 165.28636363636363,
                "end_time": 165.38636363636363,
                "pitch": 33,
                "velocity": 80,
                "duration": 0.09999999999999432,
                "tempo": 120.0
            },
            {
                "start_time": 165.38863636363635,
                "end_time": 165.5,
                "pitch": 26,
                "velocity": 80,
                "duration": 0.11136363636364877,
                "tempo": 120.0
            },
            {
                "start_time": 165.50227272727273,
                "end_time": 165.59772727272727,
                "pitch": 38,
                "velocity": 80,
                "duration": 0.0954545454545439,
                "tempo": 120.0
            },
            {
                "start_time": 165.6,
                "end_time": 165.71363636363637,
                "pitch": 36,
                "velocity": 80,
                "duration": 0.11363636363637397,
                "tempo": 120.0
            },
            {
                "start_time": 165.71363636363637,
                "end_time": 165.81136363636364,
                "pitch": 35,
                "velocity": 80,
                "duration": 0.09772727272726911,
                "tempo": 120.0
            },
            {
                "start_time": 165.81363636363636,
                "end_time": 166.02727272727273,
                "pitch": 24,
                "velocity": 80,
                "duration": 0.2136363636363683,
                "tempo": 120.0
            },
            {
                "start_time": 166.02954545454546,
                "end_time": 166.12954545454545,
                "pitch": 24,
                "velocity": 80,
                "duration": 0.09999999999999432,
                "tempo": 120.0
            },
            {
                "start_time": 166.12954545454545,
                "end_time": 166.24545454545455,
                "pitch": 36,
                "velocity": 80,
                "duration": 0.11590909090909918,
                "tempo": 120.0
            },
            {
                "start_time": 166.24772727272727,
                "end_time": 166.34772727272727,
                "pitch": 24,
                "velocity": 80,
                "duration": 0.09999999999999432,
                "tempo": 120.0
            },
            {
                "start_time": 166.34772727272727,
                "end_time": 166.46818181818182,
                "pitch": 24,
                "velocity": 80,
                "duration": 0.12045454545454959,
                "tempo": 120.0
            },
            {
                "start_time": 166.46818181818182,
                "end_time": 166.68863636363636,
                "pitch": 36,
                "velocity": 80,
                "duration": 0.2204545454545439,
                "tempo": 120.0
            },
            {
                "start_time": 166.6909090909091,
                "end_time": 166.88863636363635,
                "pitch": 24,
                "velocity": 80,
                "duration": 0.19772727272726343,
                "tempo": 120.0
            },
            {
                "start_time": 166.89090909090908,
                "end_time": 167.00681818181818,
                "pitch": 24,
                "velocity": 80,
                "duration": 0.11590909090909918,
                "tempo": 120.0
            },
            {
                "start_time": 167.00681818181818,
                "end_time": 167.10681818181817,
                "pitch": 36,
                "velocity": 80,
                "duration": 0.09999999999999432,
                "tempo": 120.0
            },
            {
                "start_time": 167.10681818181817,
                "end_time": 167.31363636363636,
                "pitch": 23,
                "velocity": 80,
                "duration": 0.20681818181819267,
                "tempo": 120.0
            },
            {
                "start_time": 167.31363636363636,
                "end_time": 167.52045454545453,
                "pitch": 23,
                "velocity": 80,
                "duration": 0.20681818181816425,
                "tempo": 120.0
            },
            {
                "start_time": 167.52045454545453,
                "end_time": 167.74090909090907,
                "pitch": 21,
                "velocity": 80,
                "duration": 0.2204545454545439,
                "tempo": 120.0
            },
            {
                "start_time": 167.7431818181818,
                "end_time": 167.84318181818182,
                "pitch": 21,
                "velocity": 80,
                "duration": 0.10000000000002274,
                "tempo": 120.0
            },
            {
                "start_time": 167.84545454545454,
                "end_time": 167.96363636363637,
                "pitch": 33,
                "velocity": 80,
                "duration": 0.11818181818182438,
                "tempo": 120.0
            },
            {
                "start_time": 167.96363636363637,
                "end_time": 168.06363636363636,
                "pitch": 23,
                "velocity": 80,
                "duration": 0.09999999999999432,
                "tempo": 120.0
            },
            {
                "start_time": 168.06363636363636,
                "end_time": 168.1818181818182,
                "pitch": 23,
                "velocity": 80,
                "duration": 0.11818181818182438,
                "tempo": 120.0
            },
            {
                "start_time": 168.1818181818182,
                "end_time": 168.38181818181818,
                "pitch": 35,
                "velocity": 80,
                "duration": 0.19999999999998863,
                "tempo": 120.0
            },
            {
                "start_time": 168.38181818181818,
                "end_time": 168.58636363636361,
                "pitch": 36,
                "velocity": 80,
                "duration": 0.20454545454543904,
                "tempo": 120.0
            },
            {
                "start_time": 168.58863636363637,
                "end_time": 168.69772727272726,
                "pitch": 35,
                "velocity": 80,
                "duration": 0.10909090909089514,
                "tempo": 120.0
            },
            {
                "start_time": 168.7,
                "end_time": 168.7931818181818,
                "pitch": 33,
                "velocity": 80,
                "duration": 0.0931818181818187,
                "tempo": 120.0
            },
            {
                "start_time": 168.79545454545453,
                "end_time": 168.91363636363636,
                "pitch": 26,
                "velocity": 80,
                "duration": 0.11818181818182438,
                "tempo": 120.0
            },
            {
                "start_time": 168.91363636363636,
                "end_time": 169.01590909090908,
                "pitch": 38,
                "velocity": 80,
                "duration": 0.10227272727271952,
                "tempo": 120.0
            },
            {
                "start_time": 169.01590909090908,
                "end_time": 169.1181818181818,
                "pitch": 36,
                "velocity": 80,
                "duration": 0.10227272727271952,
                "tempo": 120.0
            },
            {
                "start_time": 169.1181818181818,
                "end_time": 169.23863636363635,
                "pitch": 35,
                "velocity": 80,
                "duration": 0.12045454545454959,
                "tempo": 120.0
            },
            {
                "start_time": 169.23863636363635,
                "end_time": 169.45454545454544,
                "pitch": 28,
                "velocity": 80,
                "duration": 0.2159090909090935,
                "tempo": 120.0
            },
            {
                "start_time": 169.45454545454544,
                "end_time": 169.67045454545453,
                "pitch": 40,
                "velocity": 80,
                "duration": 0.2159090909090935,
                "tempo": 120.0
            },
            {
                "start_time": 169.67272727272726,
                "end_time": 169.77045454545453,
                "pitch": 28,
                "velocity": 80,
                "duration": 0.09772727272726911,
                "tempo": 120.0
            },
            {
                "start_time": 169.77272727272725,
                "end_time": 169.87272727272727,
                "pitch": 28,
                "velocity": 80,
                "duration": 0.10000000000002274,
                "tempo": 120.0
            },
            {
                "start_time": 169.87272727272727,
                "end_time": 169.98863636363635,
                "pitch": 40,
                "velocity": 80,
                "duration": 0.11590909090907076,
                "tempo": 120.0
            },
            {
                "start_time": 170.0909090909091,
                "end_time": 170.29545454545453,
                "pitch": 28,
                "velocity": 80,
                "duration": 0.20454545454543904,
                "tempo": 120.0
            },
            {
                "start_time": 170.29545454545453,
                "end_time": 170.50227272727273,
                "pitch": 40,
                "velocity": 80,
                "duration": 0.20681818181819267,
                "tempo": 120.0
            },
            {
                "start_time": 170.50227272727273,
                "end_time": 170.725,
                "pitch": 28,
                "velocity": 80,
                "duration": 0.2227272727272691,
                "tempo": 120.0
            },
            {
                "start_time": 170.725,
                "end_time": 170.825,
                "pitch": 28,
                "velocity": 80,
                "duration": 0.09999999999999432,
                "tempo": 120.0
            },
            {
                "start_time": 170.8272727272727,
                "end_time": 170.94545454545454,
                "pitch": 28,
                "velocity": 80,
                "duration": 0.11818181818182438,
                "tempo": 120.0
            },
            {
                "start_time": 170.94772727272726,
                "end_time": 171.16363636363636,
                "pitch": 28,
                "velocity": 80,
                "duration": 0.2159090909090935,
                "tempo": 120.0
            },
            {
                "start_time": 171.16363636363636,
                "end_time": 171.26363636363635,
                "pitch": 40,
                "velocity": 80,
                "duration": 0.09999999999999432,
                "tempo": 120.0
            },
            {
                "start_time": 171.26363636363635,
                "end_time": 171.36363636363635,
                "pitch": 28,
                "velocity": 80,
                "duration": 0.09999999999999432,
                "tempo": 120.0
            },
            {
                "start_time": 171.36363636363635,
                "end_time": 171.47727272727272,
                "pitch": 28,
                "velocity": 80,
                "duration": 0.11363636363637397,
                "tempo": 120.0
            },
            {
                "start_time": 171.47727272727272,
                "end_time": 171.575,
                "pitch": 28,
                "velocity": 80,
                "duration": 0.09772727272726911,
                "tempo": 120.0
            },
            {
                "start_time": 171.5772727272727,
                "end_time": 171.6909090909091,
                "pitch": 40,
                "velocity": 80,
                "duration": 0.11363636363637397,
                "tempo": 120.0
            },
            {
                "start_time": 171.78863636363636,
                "end_time": 171.90454545454546,
                "pitch": 28,
                "velocity": 80,
                "duration": 0.11590909090909918,
                "tempo": 120.0
            },
            {
                "start_time": 171.90454545454546,
                "end_time": 172.00454545454545,
                "pitch": 40,
                "velocity": 80,
                "duration": 0.09999999999999432,
                "tempo": 120.0
            },
            {
                "start_time": 172.00681818181818,
                "end_time": 172.10454545454544,
                "pitch": 28,
                "velocity": 80,
                "duration": 0.09772727272726911,
                "tempo": 120.0
            },
            {
                "start_time": 172.22272727272727,
                "end_time": 172.43863636363636,
                "pitch": 28,
                "velocity": 80,
                "duration": 0.2159090909090935,
                "tempo": 120.0
            },
            {
                "start_time": 172.4409090909091,
                "end_time": 172.53863636363636,
                "pitch": 28,
                "velocity": 80,
                "duration": 0.09772727272726911,
                "tempo": 120.0
            },
            {
                "start_time": 172.54090909090908,
                "end_time": 172.65681818181818,
                "pitch": 28,
                "velocity": 80,
                "duration": 0.11590909090909918,
                "tempo": 120.0
            },
            {
                "start_time": 172.65681818181818,
                "end_time": 172.85681818181817,
                "pitch": 28,
                "velocity": 80,
                "duration": 0.19999999999998863,
                "tempo": 120.0
            },
            {
                "start_time": 172.85681818181817,
                "end_time": 173.075,
                "pitch": 40,
                "velocity": 80,
                "duration": 0.2181818181818187,
                "tempo": 120.0
            },
            {
                "start_time": 173.075,
                "end_time": 173.18863636363636,
                "pitch": 28,
                "velocity": 80,
                "duration": 0.11363636363637397,
                "tempo": 120.0
            },
            {
                "start_time": 173.18863636363636,
                "end_time": 173.28636363636363,
                "pitch": 28,
                "velocity": 80,
                "duration": 0.09772727272726911,
                "tempo": 120.0
            },
            {
                "start_time": 173.28636363636363,
                "end_time": 173.4,
                "pitch": 40,
                "velocity": 80,
                "duration": 0.11363636363637397,
                "tempo": 120.0
            },
            {
                "start_time": 173.5,
                "end_time": 173.7159090909091,
                "pitch": 28,
                "velocity": 80,
                "duration": 0.2159090909090935,
                "tempo": 120.0
            },
            {
                "start_time": 173.7159090909091,
                "end_time": 173.9340909090909,
                "pitch": 40,
                "velocity": 80,
                "duration": 0.2181818181818187,
                "tempo": 120.0
            },
            {
                "start_time": 173.9340909090909,
                "end_time": 174.15,
                "pitch": 28,
                "velocity": 80,
                "duration": 0.2159090909090935,
                "tempo": 120.0
            },
            {
                "start_time": 174.15227272727273,
                "end_time": 174.25,
                "pitch": 28,
                "velocity": 80,
                "duration": 0.09772727272726911,
                "tempo": 120.0
            },
            {
                "start_time": 174.25,
                "end_time": 174.35,
                "pitch": 28,
                "velocity": 80,
                "duration": 0.09999999999999432,
                "tempo": 120.0
            },
            {
                "start_time": 174.35227272727272,
                "end_time": 174.56363636363636,
                "pitch": 31,
                "velocity": 80,
                "duration": 0.21136363636364308,
                "tempo": 120.0
            },
            {
                "start_time": 174.56363636363636,
                "end_time": 174.6772727272727,
                "pitch": 19,
                "velocity": 80,
                "duration": 0.11363636363634555,
                "tempo": 120.0
            },
            {
                "start_time": 174.6772727272727,
                "end_time": 174.775,
                "pitch": 31,
                "velocity": 80,
                "duration": 0.09772727272729753,
                "tempo": 120.0
            },
            {
                "start_time": 174.77727272727273,
                "end_time": 174.8931818181818,
                "pitch": 30,
                "velocity": 80,
                "duration": 0.11590909090907076,
                "tempo": 120.0
            },
            {
                "start_time": 174.8931818181818,
                "end_time": 174.9931818181818,
                "pitch": 30,
                "velocity": 80,
                "duration": 0.09999999999999432,
                "tempo": 120.0
            },
            {
                "start_time": 174.9931818181818,
                "end_time": 175.09318181818182,
                "pitch": 18,
                "velocity": 80,
                "duration": 0.10000000000002274,
                "tempo": 120.0
            },
            {
                "start_time": 175.21136363636361,
                "end_time": 175.4318181818182,
                "pitch": 29,
                "velocity": 80,
                "duration": 0.22045454545457233,
                "tempo": 120.0
            },
            {
                "start_time": 175.4318181818182,
                "end_time": 175.5340909090909,
                "pitch": 16,
                "velocity": 80,
                "duration": 0.10227272727271952,
                "tempo": 120.0
            },
            {
                "start_time": 175.5340909090909,
                "end_time": 175.65454545454546,
                "pitch": 29,
                "velocity": 80,
                "duration": 0.12045454545454959,
                "tempo": 120.0
            },
            {
                "start_time": 175.65454545454546,
                "end_time": 175.75227272727273,
                "pitch": 23,
                "velocity": 80,
                "duration": 0.09772727272726911,
                "tempo": 120.0
            },
            {
                "start_time": 175.75454545454545,
                "end_time": 175.85454545454544,
                "pitch": 23,
                "velocity": 80,
                "duration": 0.09999999999999432,
                "tempo": 120.0
            },
            {
                "start_time": 175.85454545454544,
                "end_time": 175.97045454545454,
                "pitch": 35,
                "velocity": 80,
                "duration": 0.11590909090909918,
                "tempo": 120.0
            },
            {
                "start_time": 175.97045454545454,
                "end_time": 176.07045454545454,
                "pitch": 23,
                "velocity": 80,
                "duration": 0.09999999999999432,
                "tempo": 120.0
            },
            {
                "start_time": 176.07272727272726,
                "end_time": 176.27727272727273,
                "pitch": 28,
                "velocity": 80,
                "duration": 0.20454545454546746,
                "tempo": 120.0
            },
            {
                "start_time": 176.27727272727273,
                "end_time": 176.4840909090909,
                "pitch": 40,
                "velocity": 80,
                "duration": 0.20681818181816425,
                "tempo": 120.0
            },
            {
                "start_time": 176.4840909090909,
                "end_time": 176.58636363636361,
                "pitch": 28,
                "velocity": 80,
                "duration": 0.10227272727271952,
                "tempo": 120.0
            },
            {
                "start_time": 176.58636363636361,
                "end_time": 176.70454545454544,
                "pitch": 28,
                "velocity": 80,
                "duration": 0.11818181818182438,
                "tempo": 120.0
            },
            {
                "start_time": 176.70681818181816,
                "end_time": 176.8068181818182,
                "pitch": 40,
                "velocity": 80,
                "duration": 0.10000000000002274,
                "tempo": 120.0
            },
            {
                "start_time": 176.92954545454543,
                "end_time": 177.14545454545453,
                "pitch": 28,
                "velocity": 80,
                "duration": 0.2159090909090935,
                "tempo": 120.0
            },
            {
                "start_time": 177.14545454545453,
                "end_time": 177.34545454545454,
                "pitch": 40,
                "velocity": 80,
                "duration": 0.20000000000001705,
                "tempo": 120.0
            },
            {
                "start_time": 177.34545454545454,
                "end_time": 177.5568181818182,
                "pitch": 28,
                "velocity": 80,
                "duration": 0.21136363636364308,
                "tempo": 120.0
            },
            {
                "start_time": 177.5590909090909,
                "end_time": 177.67272727272726,
                "pitch": 28,
                "velocity": 80,
                "duration": 0.11363636363634555,
                "tempo": 120.0
            },
            {
                "start_time": 177.67272727272726,
                "end_time": 177.77045454545453,
                "pitch": 28,
                "velocity": 80,
                "duration": 0.09772727272726911,
                "tempo": 120.0
            },
            {
                "start_time": 177.77045454545453,
                "end_time": 177.98636363636362,
                "pitch": 28,
                "velocity": 80,
                "duration": 0.2159090909090935,
                "tempo": 120.0
            },
            {
                "start_time": 177.98863636363635,
                "end_time": 178.08636363636361,
                "pitch": 40,
                "velocity": 80,
                "duration": 0.09772727272726911,
                "tempo": 120.0
            },
            {
                "start_time": 178.08863636363637,
                "end_time": 178.20454545454544,
                "pitch": 28,
                "velocity": 80,
                "duration": 0.11590909090907076,
                "tempo": 120.0
            },
            {
                "start_time": 178.20454545454544,
                "end_time": 178.30454545454543,
                "pitch": 28,
                "velocity": 80,
                "duration": 0.09999999999999432,
                "tempo": 120.0
            },
            {
                "start_time": 178.30454545454543,
                "end_time": 178.42045454545453,
                "pitch": 28,
                "velocity": 80,
                "duration": 0.11590909090909918,
                "tempo": 120.0
            },
            {
                "start_time": 178.42272727272726,
                "end_time": 178.52045454545453,
                "pitch": 40,
                "velocity": 80,
                "duration": 0.09772727272726911,
                "tempo": 120.0
            },
            {
                "start_time": 178.63863636363635,
                "end_time": 178.73863636363635,
                "pitch": 28,
                "velocity": 80,
                "duration": 0.09999999999999432,
                "tempo": 120.0
            },
            {
                "start_time": 178.73863636363635,
                "end_time": 178.83863636363637,
                "pitch": 40,
                "velocity": 80,
                "duration": 0.10000000000002274,
                "tempo": 120.0
            },
            {
                "start_time": 178.83863636363637,
                "end_time": 178.95454545454544,
                "pitch": 28,
                "velocity": 80,
                "duration": 0.11590909090907076,
                "tempo": 120.0
            },
            {
                "start_time": 179.0568181818182,
                "end_time": 179.2681818181818,
                "pitch": 28,
                "velocity": 80,
                "duration": 0.21136363636361466,
                "tempo": 120.0
            },
            {
                "start_time": 179.27045454545453,
                "end_time": 179.38181818181818,
                "pitch": 28,
                "velocity": 80,
                "duration": 0.11136363636364877,
                "tempo": 120.0
            },
            {
                "start_time": 179.3840909090909,
                "end_time": 179.48181818181817,
                "pitch": 28,
                "velocity": 80,
                "duration": 0.09772727272726911,
                "tempo": 120.0
            },
            {
                "start_time": 179.48181818181817,
                "end_time": 179.69772727272726,
                "pitch": 28,
                "velocity": 80,
                "duration": 0.2159090909090935,
                "tempo": 120.0
            },
            {
                "start_time": 179.69772727272726,
                "end_time": 179.91590909090908,
                "pitch": 40,
                "velocity": 80,
                "duration": 0.2181818181818187,
                "tempo": 120.0
            }
        ]
    }
}