{
    "track_id": "13 Shooting Scene",
    "mood": "happy",
    "instruments": {
        "Electric Piano 1": [
            {
                "start_time": 0.7022727272727273,
                "end_time": 0.875,
                "pitch": 62,
                "velocity": 80,
                "duration": 0.17272727272727273,
                "tempo": 120.0
            },
            {
                "start_time": 0.8772727272727272,
                "end_time": 1.065909090909091,
                "pitch": 65,
                "velocity": 80,
                "duration": 0.1886363636363637,
                "tempo": 120.0
            },
            {
                "start_time": 1.065909090909091,
                "end_time": 2.3249999999999997,
                "pitch": 72,
                "velocity": 80,
                "duration": 1.2590909090909088,
                "tempo": 120.0
            },
            {
                "start_time": 2.3249999999999997,
                "end_time": 2.356818181818182,
                "pitch": 73,
                "velocity": 80,
                "duration": 0.03181818181818219,
                "tempo": 120.0
            },
            {
                "start_time": 2.356818181818182,
                "end_time": 2.4909090909090907,
                "pitch": 74,
                "velocity": 80,
                "duration": 0.13409090909090882,
                "tempo": 120.0
            },
            {
                "start_time": 2.4909090909090907,
                "end_time": 3.7363636363636363,
                "pitch": 72,
                "velocity": 80,
                "duration": 1.2454545454545456,
                "tempo": 120.0
            },
            {
                "start_time": 3.7363636363636363,
                "end_time": 3.768181818181818,
                "pitch": 75,
                "velocity": 80,
                "duration": 0.031818181818181746,
                "tempo": 120.0
            },
            {
                "start_time": 3.768181818181818,
                "end_time": 3.9136363636363636,
                "pitch": 74,
                "velocity": 80,
                "duration": 0.1454545454545455,
                "tempo": 120.0
            },
            {
                "start_time": 3.9136363636363636,
                "end_time": 4.454545454545454,
                "pitch": 76,
                "velocity": 80,
                "duration": 0.5409090909090906,
                "tempo": 120.0
            },
            {
                "start_time": 4.454545454545454,
                "end_time": 4.8113636363636365,
                "pitch": 72,
                "velocity": 80,
                "duration": 0.35681818181818237,
                "tempo": 120.0
            },
            {
                "start_time": 4.8113636363636365,
                "end_time": 5.163636363636363,
                "pitch": 69,
                "velocity": 80,
                "duration": 0.3522727272727266,
                "tempo": 120.0
            },
            {
                "start_time": 5.163636363636363,
                "end_time": 5.195454545454545,
                "pitch": 75,
                "velocity": 80,
                "duration": 0.03181818181818219,
                "tempo": 120.0
            },
            {
                "start_time": 5.195454545454545,
                "end_time": 5.347727272727273,
                "pitch": 76,
                "velocity": 80,
                "duration": 0.15227272727272734,
                "tempo": 120.0
            },
            {
                "start_time": 5.347727272727273,
                "end_time": 6.402272727272727,
                "pitch": 74,
                "velocity": 80,
                "duration": 1.0545454545454547,
                "tempo": 120.0
            },
            {
                "start_time": 6.404545454545454,
                "end_time": 6.581818181818181,
                "pitch": 62,
                "velocity": 80,
                "duration": 0.1772727272727268,
                "tempo": 120.0
            },
            {
                "start_time": 6.581818181818181,
                "end_time": 6.754545454545454,
                "pitch": 65,
                "velocity": 80,
                "duration": 0.17272727272727284,
                "tempo": 120.0
            },
            {
                "start_time": 6.754545454545454,
                "end_time": 8.002272727272727,
                "pitch": 72,
                "velocity": 80,
                "duration": 1.247727272727273,
                "tempo": 120.0
            },
            {
                "start_time": 8.002272727272727,
                "end_time": 8.049999999999999,
                "pitch": 73,
                "velocity": 80,
                "duration": 0.04772727272727195,
                "tempo": 120.0
            },
            {
                "start_time": 8.052272727272728,
                "end_time": 8.181818181818182,
                "pitch": 74,
                "velocity": 80,
                "duration": 0.12954545454545396,
                "tempo": 120.0
            },
            {
                "start_time": 8.181818181818182,
                "end_time": 9.431818181818182,
                "pitch": 71,
                "velocity": 80,
                "duration": 1.25,
                "tempo": 120.0
            },
            {
                "start_time": 9.431818181818182,
                "end_time": 9.46590909090909,
                "pitch": 73,
                "velocity": 80,
                "duration": 0.034090909090908283,
                "tempo": 120.0
            },
            {
                "start_time": 9.46590909090909,
                "end_time": 9.61590909090909,
                "pitch": 74,
                "velocity": 80,
                "duration": 0.15000000000000036,
                "tempo": 120.0
            },
            {
                "start_time": 9.61590909090909,
                "end_time": 11.040909090909091,
                "pitch": 69,
                "velocity": 80,
                "duration": 1.4250000000000007,
                "tempo": 120.0
            },
            {
                "start_time": 11.040909090909091,
                "end_time": 11.159090909090908,
                "pitch": 67,
                "velocity": 80,
                "duration": 0.11818181818181728,
                "tempo": 120.0
            },
            {
                "start_time": 11.159090909090908,
                "end_time": 11.213636363636363,
                "pitch": 67,
                "velocity": 80,
                "duration": 0.054545454545454675,
                "tempo": 120.0
            },
            {
                "start_time": 11.213636363636363,
                "end_time": 11.293181818181818,
                "pitch": 69,
                "velocity": 80,
                "duration": 0.07954545454545503,
                "tempo": 120.0
            },
            {
                "start_time": 11.39090909090909,
                "end_time": 12.406818181818181,
                "pitch": 69,
                "velocity": 80,
                "duration": 1.0159090909090907,
                "tempo": 120.0
            },
            {
                "start_time": 11.159090909090908,
                "end_time": 12.406818181818181,
                "pitch": 79,
                "velocity": 80,
                "duration": 1.247727272727273,
                "tempo": 120.0
            },
            {
                "start_time": 12.406818181818181,
                "end_time": 12.527272727272727,
                "pitch": 67,
                "velocity": 80,
                "duration": 0.12045454545454604,
                "tempo": 120.0
            },
            {
                "start_time": 12.406818181818181,
                "end_time": 12.527272727272727,
                "pitch": 67,
                "velocity": 80,
                "duration": 0.12045454545454604,
                "tempo": 120.0
            },
            {
                "start_time": 12.527272727272727,
                "end_time": 12.613636363636363,
                "pitch": 65,
                "velocity": 80,
                "duration": 0.08636363636363598,
                "tempo": 120.0
            },
            {
                "start_time": 12.613636363636363,
                "end_time": 12.649999999999999,
                "pitch": 62,
                "velocity": 80,
                "duration": 0.036363636363635266,
                "tempo": 120.0
            },
            {
                "start_time": 12.652272727272727,
                "end_time": 12.681818181818182,
                "pitch": 75,
                "velocity": 80,
                "duration": 0.02954545454545432,
                "tempo": 120.0
            },
            {
                "start_time": 12.681818181818182,
                "end_time": 12.99090909090909,
                "pitch": 76,
                "velocity": 80,
                "duration": 0.30909090909090864,
                "tempo": 120.0
            },
            {
                "start_time": 12.99090909090909,
                "end_time": 13.347727272727273,
                "pitch": 72,
                "velocity": 80,
                "duration": 0.35681818181818237,
                "tempo": 120.0
            },
            {
                "start_time": 13.35,
                "end_time": 13.7,
                "pitch": 69,
                "velocity": 80,
                "duration": 0.34999999999999964,
                "tempo": 120.0
            },
            {
                "start_time": 13.7,
                "end_time": 13.879545454545454,
                "pitch": 76,
                "velocity": 80,
                "duration": 0.17954545454545467,
                "tempo": 120.0
            },
            {
                "start_time": 13.879545454545454,
                "end_time": 15.136363636363635,
                "pitch": 74,
                "velocity": 80,
                "duration": 1.256818181818181,
                "tempo": 120.0
            },
            {
                "start_time": 15.136363636363635,
                "end_time": 15.313636363636363,
                "pitch": 71,
                "velocity": 80,
                "duration": 0.1772727272727277,
                "tempo": 120.0
            },
            {
                "start_time": 15.31590909090909,
                "end_time": 15.477272727272727,
                "pitch": 72,
                "velocity": 80,
                "duration": 0.16136363636363704,
                "tempo": 120.0
            },
            {
                "start_time": 15.479545454545454,
                "end_time": 16.375,
                "pitch": 74,
                "velocity": 80,
                "duration": 0.8954545454545464,
                "tempo": 120.0
            },
            {
                "start_time": 16.375,
                "end_time": 16.820454545454545,
                "pitch": 76,
                "velocity": 80,
                "duration": 0.4454545454545453,
                "tempo": 120.0
            },
            {
                "start_time": 16.820454545454545,
                "end_time": 16.904545454545453,
                "pitch": 74,
                "velocity": 80,
                "duration": 0.08409090909090722,
                "tempo": 120.0
            },
            {
                "start_time": 16.904545454545453,
                "end_time": 18.32272727272727,
                "pitch": 72,
                "velocity": 80,
                "duration": 1.418181818181818,
                "tempo": 120.0
            },
            {
                "start_time": 18.32272727272727,
                "end_time": 18.35681818181818,
                "pitch": 75,
                "velocity": 80,
                "duration": 0.03409090909091006,
                "tempo": 120.0
            },
            {
                "start_time": 18.35681818181818,
                "end_time": 18.68409090909091,
                "pitch": 76,
                "velocity": 80,
                "duration": 0.32727272727272805,
                "tempo": 120.0
            },
            {
                "start_time": 18.68409090909091,
                "end_time": 19.04090909090909,
                "pitch": 72,
                "velocity": 80,
                "duration": 0.3568181818181806,
                "tempo": 120.0
            },
            {
                "start_time": 19.04090909090909,
                "end_time": 19.4,
                "pitch": 69,
                "velocity": 80,
                "duration": 0.35909090909090935,
                "tempo": 120.0
            },
            {
                "start_time": 19.402272727272727,
                "end_time": 19.579545454545453,
                "pitch": 76,
                "velocity": 80,
                "duration": 0.17727272727272592,
                "tempo": 120.0
            },
            {
                "start_time": 19.581818181818182,
                "end_time": 20.64090909090909,
                "pitch": 74,
                "velocity": 80,
                "duration": 1.0590909090909086,
                "tempo": 120.0
            },
            {
                "start_time": 20.643181818181816,
                "end_time": 20.820454545454545,
                "pitch": 71,
                "velocity": 80,
                "duration": 0.17727272727272947,
                "tempo": 120.0
            },
            {
                "start_time": 20.820454545454545,
                "end_time": 21.004545454545454,
                "pitch": 71,
                "velocity": 80,
                "duration": 0.18409090909090864,
                "tempo": 120.0
            },
            {
                "start_time": 21.004545454545454,
                "end_time": 21.172727272727272,
                "pitch": 72,
                "velocity": 80,
                "duration": 0.168181818181818,
                "tempo": 120.0
            },
            {
                "start_time": 21.172727272727272,
                "end_time": 22.068181818181817,
                "pitch": 74,
                "velocity": 80,
                "duration": 0.8954545454545446,
                "tempo": 120.0
            },
            {
                "start_time": 22.24772727272727,
                "end_time": 22.36590909090909,
                "pitch": 67,
                "velocity": 80,
                "duration": 0.11818181818181728,
                "tempo": 120.0
            },
            {
                "start_time": 12.406818181818181,
                "end_time": 22.368181818181817,
                "pitch": 79,
                "velocity": 80,
                "duration": 9.961363636363636,
                "tempo": 120.0
            },
            {
                "start_time": 22.36590909090909,
                "end_time": 22.368181818181817,
                "pitch": 79,
                "velocity": 80,
                "duration": 0.0022727272727287584,
                "tempo": 120.0
            },
            {
                "start_time": 22.368181818181817,
                "end_time": 22.60909090909091,
                "pitch": 67,
                "velocity": 80,
                "duration": 0.24090909090909207,
                "tempo": 120.0
            },
            {
                "start_time": 22.60909090909091,
                "end_time": 24.029545454545453,
                "pitch": 69,
                "velocity": 80,
                "duration": 1.4204545454545432,
                "tempo": 120.0
            },
            {
                "start_time": 24.029545454545453,
                "end_time": 24.195454545454545,
                "pitch": 69,
                "velocity": 51,
                "duration": 0.16590909090909278,
                "tempo": 120.0
            },
            {
                "start_time": 24.195454545454545,
                "end_time": 24.379545454545454,
                "pitch": 69,
                "velocity": 51,
                "duration": 0.18409090909090864,
                "tempo": 120.0
            },
            {
                "start_time": 24.379545454545454,
                "end_time": 24.74772727272727,
                "pitch": 76,
                "velocity": 51,
                "duration": 0.3681818181818173,
                "tempo": 120.0
            },
            {
                "start_time": 24.75,
                "end_time": 24.91590909090909,
                "pitch": 76,
                "velocity": 51,
                "duration": 0.16590909090908923,
                "tempo": 120.0
            },
            {
                "start_time": 24.91590909090909,
                "end_time": 25.099999999999998,
                "pitch": 74,
                "velocity": 51,
                "duration": 0.18409090909090864,
                "tempo": 120.0
            },
            {
                "start_time": 25.099999999999998,
                "end_time": 25.279545454545453,
                "pitch": 72,
                "velocity": 51,
                "duration": 0.17954545454545467,
                "tempo": 120.0
            },
            {
                "start_time": 25.279545454545453,
                "end_time": 25.620454545454542,
                "pitch": 71,
                "velocity": 51,
                "duration": 0.34090909090908994,
                "tempo": 120.0
            },
            {
                "start_time": 25.620454545454542,
                "end_time": 25.799999999999997,
                "pitch": 71,
                "velocity": 51,
                "duration": 0.17954545454545467,
                "tempo": 120.0
            },
            {
                "start_time": 25.799999999999997,
                "end_time": 25.988636363636363,
                "pitch": 71,
                "velocity": 51,
                "duration": 0.18863636363636616,
                "tempo": 120.0
            },
            {
                "start_time": 25.988636363636363,
                "end_time": 26.159090909090907,
                "pitch": 72,
                "velocity": 51,
                "duration": 0.1704545454545432,
                "tempo": 120.0
            },
            {
                "start_time": 26.161363636363635,
                "end_time": 26.33863636363636,
                "pitch": 74,
                "velocity": 51,
                "duration": 0.17727272727272592,
                "tempo": 120.0
            },
            {
                "start_time": 26.33863636363636,
                "end_time": 26.518181818181816,
                "pitch": 74,
                "velocity": 51,
                "duration": 0.17954545454545467,
                "tempo": 120.0
            },
            {
                "start_time": 26.518181818181816,
                "end_time": 26.688636363636363,
                "pitch": 72,
                "velocity": 51,
                "duration": 0.17045454545454675,
                "tempo": 120.0
            },
            {
                "start_time": 26.69090909090909,
                "end_time": 27.05681818181818,
                "pitch": 71,
                "velocity": 51,
                "duration": 0.3659090909090885,
                "tempo": 120.0
            },
            {
                "start_time": 27.05681818181818,
                "end_time": 27.236363636363635,
                "pitch": 71,
                "velocity": 51,
                "duration": 0.17954545454545467,
                "tempo": 120.0
            },
            {
                "start_time": 27.236363636363635,
                "end_time": 27.595454545454544,
                "pitch": 79,
                "velocity": 51,
                "duration": 0.35909090909090935,
                "tempo": 120.0
            },
            {
                "start_time": 27.597727272727273,
                "end_time": 27.775,
                "pitch": 79,
                "velocity": 51,
                "duration": 0.17727272727272592,
                "tempo": 120.0
            },
            {
                "start_time": 27.775,
                "end_time": 27.938636363636363,
                "pitch": 77,
                "velocity": 51,
                "duration": 0.16363636363636402,
                "tempo": 120.0
            },
            {
                "start_time": 27.938636363636363,
                "end_time": 28.11590909090909,
                "pitch": 76,
                "velocity": 51,
                "duration": 0.17727272727272592,
                "tempo": 120.0
            },
            {
                "start_time": 28.118181818181817,
                "end_time": 28.479545454545452,
                "pitch": 74,
                "velocity": 51,
                "duration": 0.36136363636363455,
                "tempo": 120.0
            },
            {
                "start_time": 28.479545454545452,
                "end_time": 28.743181818181817,
                "pitch": 76,
                "velocity": 51,
                "duration": 0.26363636363636545,
                "tempo": 120.0
            },
            {
                "start_time": 28.743181818181817,
                "end_time": 28.827272727272724,
                "pitch": 74,
                "velocity": 51,
                "duration": 0.08409090909090722,
                "tempo": 120.0
            },
            {
                "start_time": 28.827272727272724,
                "end_time": 29.177272727272726,
                "pitch": 72,
                "velocity": 51,
                "duration": 0.3500000000000014,
                "tempo": 120.0
            },
            {
                "start_time": 29.177272727272726,
                "end_time": 29.36590909090909,
                "pitch": 72,
                "velocity": 51,
                "duration": 0.1886363636363626,
                "tempo": 120.0
            },
            {
                "start_time": 29.36590909090909,
                "end_time": 29.545454545454543,
                "pitch": 72,
                "velocity": 51,
                "duration": 0.17954545454545467,
                "tempo": 120.0
            },
            {
                "start_time": 29.545454545454543,
                "end_time": 29.722727272727273,
                "pitch": 74,
                "velocity": 51,
                "duration": 0.17727272727272947,
                "tempo": 120.0
            },
            {
                "start_time": 29.722727272727273,
                "end_time": 29.895454545454545,
                "pitch": 74,
                "velocity": 51,
                "duration": 0.17272727272727195,
                "tempo": 120.0
            },
            {
                "start_time": 29.895454545454545,
                "end_time": 30.14772727272727,
                "pitch": 83,
                "velocity": 51,
                "duration": 0.2522727272727252,
                "tempo": 120.0
            },
            {
                "start_time": 30.14772727272727,
                "end_time": 30.21363636363636,
                "pitch": 81,
                "velocity": 51,
                "duration": 0.06590909090909136,
                "tempo": 120.0
            },
            {
                "start_time": 30.21363636363636,
                "end_time": 30.263636363636362,
                "pitch": 79,
                "velocity": 51,
                "duration": 0.05000000000000071,
                "tempo": 120.0
            },
            {
                "start_time": 30.263636363636362,
                "end_time": 30.375,
                "pitch": 79,
                "velocity": 51,
                "duration": 0.11136363636363811,
                "tempo": 120.0
            },
            {
                "start_time": 30.21363636363636,
                "end_time": 30.375,
                "pitch": 91,
                "velocity": 51,
                "duration": 0.16136363636363882,
                "tempo": 120.0
            },
            {
                "start_time": 30.375,
                "end_time": 30.554545454545455,
                "pitch": 79,
                "velocity": 51,
                "duration": 0.17954545454545467,
                "tempo": 120.0
            },
            {
                "start_time": 30.375,
                "end_time": 30.554545454545455,
                "pitch": 91,
                "velocity": 51,
                "duration": 0.17954545454545467,
                "tempo": 120.0
            },
            {
                "start_time": 30.554545454545455,
                "end_time": 30.604545454545452,
                "pitch": 79,
                "velocity": 51,
                "duration": 0.04999999999999716,
                "tempo": 120.0
            },
            {
                "start_time": 30.604545454545452,
                "end_time": 30.784090909090907,
                "pitch": 74,
                "velocity": 51,
                "duration": 0.17954545454545467,
                "tempo": 120.0
            },
            {
                "start_time": 30.784090909090907,
                "end_time": 30.970454545454544,
                "pitch": 74,
                "velocity": 51,
                "duration": 0.1863636363636374,
                "tempo": 120.0
            },
            {
                "start_time": 30.972727272727273,
                "end_time": 31.143181818181816,
                "pitch": 76,
                "velocity": 51,
                "duration": 0.1704545454545432,
                "tempo": 120.0
            },
            {
                "start_time": 31.143181818181816,
                "end_time": 31.32272727272727,
                "pitch": 74,
                "velocity": 51,
                "duration": 0.17954545454545467,
                "tempo": 120.0
            },
            {
                "start_time": 31.32272727272727,
                "end_time": 31.568181818181817,
                "pitch": 83,
                "velocity": 51,
                "duration": 0.24545454545454604,
                "tempo": 120.0
            },
            {
                "start_time": 31.568181818181817,
                "end_time": 31.618181818181817,
                "pitch": 81,
                "velocity": 51,
                "duration": 0.05000000000000071,
                "tempo": 120.0
            },
            {
                "start_time": 30.554545454545455,
                "end_time": 31.618181818181817,
                "pitch": 91,
                "velocity": 51,
                "duration": 1.0636363636363626,
                "tempo": 120.0
            },
            {
                "start_time": 31.618181818181817,
                "end_time": 31.668181818181818,
                "pitch": 79,
                "velocity": 51,
                "duration": 0.05000000000000071,
                "tempo": 120.0
            },
            {
                "start_time": 31.670454545454543,
                "end_time": 31.802272727272726,
                "pitch": 79,
                "velocity": 51,
                "duration": 0.13181818181818272,
                "tempo": 120.0
            },
            {
                "start_time": 31.618181818181817,
                "end_time": 31.802272727272726,
                "pitch": 91,
                "velocity": 51,
                "duration": 0.18409090909090864,
                "tempo": 120.0
            },
            {
                "start_time": 31.802272727272726,
                "end_time": 31.98181818181818,
                "pitch": 79,
                "velocity": 51,
                "duration": 0.17954545454545467,
                "tempo": 120.0
            },
            {
                "start_time": 31.802272727272726,
                "end_time": 31.98181818181818,
                "pitch": 91,
                "velocity": 51,
                "duration": 0.17954545454545467,
                "tempo": 120.0
            },
            {
                "start_time": 31.98181818181818,
                "end_time": 32.03181818181818,
                "pitch": 79,
                "velocity": 51,
                "duration": 0.05000000000000071,
                "tempo": 120.0
            },
            {
                "start_time": 32.03181818181818,
                "end_time": 32.211363636363636,
                "pitch": 74,
                "velocity": 51,
                "duration": 0.17954545454545467,
                "tempo": 120.0
            },
            {
                "start_time": 32.211363636363636,
                "end_time": 32.38181818181818,
                "pitch": 74,
                "velocity": 51,
                "duration": 0.17045454545454675,
                "tempo": 120.0
            },
            {
                "start_time": 32.38181818181818,
                "end_time": 32.570454545454545,
                "pitch": 76,
                "velocity": 51,
                "duration": 0.1886363636363626,
                "tempo": 120.0
            },
            {
                "start_time": 32.570454545454545,
                "end_time": 32.75,
                "pitch": 74,
                "velocity": 51,
                "duration": 0.17954545454545467,
                "tempo": 120.0
            },
            {
                "start_time": 32.75,
                "end_time": 32.99318181818182,
                "pitch": 83,
                "velocity": 51,
                "duration": 0.24318181818181728,
                "tempo": 120.0
            },
            {
                "start_time": 32.99318181818182,
                "end_time": 33.04090909090909,
                "pitch": 81,
                "velocity": 51,
                "duration": 0.04772727272727195,
                "tempo": 120.0
            },
            {
                "start_time": 31.98181818181818,
                "end_time": 33.04090909090909,
                "pitch": 91,
                "velocity": 51,
                "duration": 1.0590909090909086,
                "tempo": 120.0
            },
            {
                "start_time": 33.04090909090909,
                "end_time": 33.090909090909086,
                "pitch": 79,
                "velocity": 51,
                "duration": 0.04999999999999716,
                "tempo": 120.0
            },
            {
                "start_time": 33.09318181818182,
                "end_time": 33.220454545454544,
                "pitch": 79,
                "velocity": 51,
                "duration": 0.1272727272727252,
                "tempo": 120.0
            },
            {
                "start_time": 33.04090909090909,
                "end_time": 33.220454545454544,
                "pitch": 91,
                "velocity": 51,
                "duration": 0.17954545454545467,
                "tempo": 120.0
            },
            {
                "start_time": 33.220454545454544,
                "end_time": 33.388636363636365,
                "pitch": 79,
                "velocity": 51,
                "duration": 0.16818181818182154,
                "tempo": 120.0
            },
            {
                "start_time": 33.220454545454544,
                "end_time": 33.388636363636365,
                "pitch": 91,
                "velocity": 51,
                "duration": 0.16818181818182154,
                "tempo": 120.0
            },
            {
                "start_time": 33.388636363636365,
                "end_time": 33.45909090909091,
                "pitch": 79,
                "velocity": 51,
                "duration": 0.07045454545454533,
                "tempo": 120.0
            },
            {
                "start_time": 33.45909090909091,
                "end_time": 33.63181818181818,
                "pitch": 74,
                "velocity": 51,
                "duration": 0.17272727272727195,
                "tempo": 120.0
            },
            {
                "start_time": 33.63181818181818,
                "end_time": 33.809090909090905,
                "pitch": 74,
                "velocity": 51,
                "duration": 0.17727272727272236,
                "tempo": 120.0
            },
            {
                "start_time": 33.809090909090905,
                "end_time": 33.98863636363636,
                "pitch": 76,
                "velocity": 51,
                "duration": 0.17954545454545467,
                "tempo": 120.0
            },
            {
                "start_time": 33.98863636363636,
                "end_time": 34.527272727272724,
                "pitch": 83,
                "velocity": 51,
                "duration": 0.538636363636364,
                "tempo": 120.0
            },
            {
                "start_time": 34.527272727272724,
                "end_time": 34.60909090909091,
                "pitch": 84,
                "velocity": 51,
                "duration": 0.08181818181818556,
                "tempo": 120.0
            },
            {
                "start_time": 34.60909090909091,
                "end_time": 34.70681818181818,
                "pitch": 83,
                "velocity": 51,
                "duration": 0.09772727272726911,
                "tempo": 120.0
            },
            {
                "start_time": 34.70681818181818,
                "end_time": 35.41136363636363,
                "pitch": 81,
                "velocity": 51,
                "duration": 0.7045454545454533,
                "tempo": 120.0
            },
            {
                "start_time": 35.41136363636363,
                "end_time": 35.58863636363636,
                "pitch": 81,
                "velocity": 51,
                "duration": 0.17727272727272947,
                "tempo": 120.0
            },
            {
                "start_time": 35.58863636363636,
                "end_time": 35.768181818181816,
                "pitch": 81,
                "velocity": 51,
                "duration": 0.17954545454545467,
                "tempo": 120.0
            },
            {
                "start_time": 35.768181818181816,
                "end_time": 36.12045454545454,
                "pitch": 88,
                "velocity": 51,
                "duration": 0.3522727272727266,
                "tempo": 120.0
            },
            {
                "start_time": 36.12045454545454,
                "end_time": 36.29772727272727,
                "pitch": 88,
                "velocity": 51,
                "duration": 0.17727272727272947,
                "tempo": 120.0
            },
            {
                "start_time": 36.29772727272727,
                "end_time": 36.47727272727273,
                "pitch": 86,
                "velocity": 51,
                "duration": 0.17954545454545467,
                "tempo": 120.0
            },
            {
                "start_time": 36.47727272727273,
                "end_time": 36.65,
                "pitch": 84,
                "velocity": 51,
                "duration": 0.17272727272727195,
                "tempo": 120.0
            },
            {
                "start_time": 36.65,
                "end_time": 37.018181818181816,
                "pitch": 83,
                "velocity": 51,
                "duration": 0.3681818181818173,
                "tempo": 120.0
            },
            {
                "start_time": 37.018181818181816,
                "end_time": 37.195454545454545,
                "pitch": 83,
                "velocity": 51,
                "duration": 0.17727272727272947,
                "tempo": 120.0
            },
            {
                "start_time": 37.195454545454545,
                "end_time": 37.36818181818182,
                "pitch": 83,
                "velocity": 51,
                "duration": 0.17272727272727195,
                "tempo": 120.0
            },
            {
                "start_time": 37.36818181818182,
                "end_time": 37.55681818181818,
                "pitch": 84,
                "velocity": 51,
                "duration": 0.1886363636363626,
                "tempo": 120.0
            },
            {
                "start_time": 37.55681818181818,
                "end_time": 37.73409090909091,
                "pitch": 86,
                "velocity": 51,
                "duration": 0.17727272727272947,
                "tempo": 120.0
            },
            {
                "start_time": 37.73409090909091,
                "end_time": 37.89772727272727,
                "pitch": 86,
                "velocity": 51,
                "duration": 0.16363636363636402,
                "tempo": 120.0
            },
            {
                "start_time": 37.89772727272727,
                "end_time": 38.07727272727273,
                "pitch": 84,
                "velocity": 51,
                "duration": 0.17954545454545467,
                "tempo": 120.0
            },
            {
                "start_time": 38.07727272727273,
                "end_time": 38.44090909090909,
                "pitch": 83,
                "velocity": 51,
                "duration": 0.36363636363635976,
                "tempo": 120.0
            },
            {
                "start_time": 38.44090909090909,
                "end_time": 38.60681818181818,
                "pitch": 83,
                "velocity": 51,
                "duration": 0.16590909090908923,
                "tempo": 120.0
            },
            {
                "start_time": 33.388636363636365,
                "end_time": 38.97727272727273,
                "pitch": 91,
                "velocity": 51,
                "duration": 5.588636363636361,
                "tempo": 120.0
            },
            {
                "start_time": 38.60909090909091,
                "end_time": 38.97727272727273,
                "pitch": 91,
                "velocity": 51,
                "duration": 0.3681818181818173,
                "tempo": 120.0
            },
            {
                "start_time": 38.97727272727273,
                "end_time": 39.143181818181816,
                "pitch": 91,
                "velocity": 51,
                "duration": 0.16590909090908923,
                "tempo": 120.0
            },
            {
                "start_time": 39.143181818181816,
                "end_time": 39.32727272727273,
                "pitch": 89,
                "velocity": 51,
                "duration": 0.1840909090909122,
                "tempo": 120.0
            },
            {
                "start_time": 39.32727272727273,
                "end_time": 39.50681818181818,
                "pitch": 88,
                "velocity": 51,
                "duration": 0.17954545454545467,
                "tempo": 120.0
            },
            {
                "start_time": 39.50681818181818,
                "end_time": 39.85681818181818,
                "pitch": 86,
                "velocity": 51,
                "duration": 0.3499999999999943,
                "tempo": 120.0
            },
            {
                "start_time": 39.85681818181818,
                "end_time": 40.125,
                "pitch": 88,
                "velocity": 51,
                "duration": 0.26818181818182296,
                "tempo": 120.0
            },
            {
                "start_time": 40.125,
                "end_time": 40.225,
                "pitch": 86,
                "velocity": 51,
                "duration": 0.10000000000000142,
                "tempo": 120.0
            },
            {
                "start_time": 40.225,
                "end_time": 40.56590909090909,
                "pitch": 84,
                "velocity": 51,
                "duration": 0.3409090909090864,
                "tempo": 120.0
            },
            {
                "start_time": 40.56590909090909,
                "end_time": 40.74545454545454,
                "pitch": 84,
                "velocity": 51,
                "duration": 0.17954545454545467,
                "tempo": 120.0
            },
            {
                "start_time": 40.74545454545454,
                "end_time": 40.934090909090905,
                "pitch": 84,
                "velocity": 51,
                "duration": 0.1886363636363626,
                "tempo": 120.0
            },
            {
                "start_time": 40.934090909090905,
                "end_time": 41.10454545454545,
                "pitch": 86,
                "velocity": 51,
                "duration": 0.17045454545454675,
                "tempo": 120.0
            },
            {
                "start_time": 41.10681818181818,
                "end_time": 41.28409090909091,
                "pitch": 86,
                "velocity": 51,
                "duration": 0.17727272727272947,
                "tempo": 120.0
            },
            {
                "start_time": 41.28409090909091,
                "end_time": 41.52954545454545,
                "pitch": 95,
                "velocity": 51,
                "duration": 0.24545454545454248,
                "tempo": 120.0
            },
            {
                "start_time": 41.52954545454545,
                "end_time": 41.58181818181818,
                "pitch": 93,
                "velocity": 51,
                "duration": 0.05227272727272947,
                "tempo": 120.0
            },
            {
                "start_time": 41.58181818181818,
                "end_time": 41.63409090909091,
                "pitch": 91,
                "velocity": 51,
                "duration": 0.05227272727272947,
                "tempo": 120.0
            },
            {
                "start_time": 41.63636363636363,
                "end_time": 41.77045454545454,
                "pitch": 91,
                "velocity": 51,
                "duration": 0.13409090909090793,
                "tempo": 120.0
            },
            {
                "start_time": 41.58181818181818,
                "end_time": 41.77045454545454,
                "pitch": 103,
                "velocity": 51,
                "duration": 0.1886363636363626,
                "tempo": 120.0
            },
            {
                "start_time": 41.77045454545454,
                "end_time": 41.95227272727273,
                "pitch": 91,
                "velocity": 51,
                "duration": 0.18181818181818699,
                "tempo": 120.0
            },
            {
                "start_time": 41.77045454545454,
                "end_time": 41.95227272727273,
                "pitch": 103,
                "velocity": 51,
                "duration": 0.18181818181818699,
                "tempo": 120.0
            },
            {
                "start_time": 41.95227272727273,
                "end_time": 42.002272727272725,
                "pitch": 91,
                "velocity": 51,
                "duration": 0.04999999999999716,
                "tempo": 120.0
            },
            {
                "start_time": 42.002272727272725,
                "end_time": 42.18181818181818,
                "pitch": 86,
                "velocity": 51,
                "duration": 0.17954545454545467,
                "tempo": 120.0
            },
            {
                "start_time": 42.18181818181818,
                "end_time": 42.35,
                "pitch": 86,
                "velocity": 51,
                "duration": 0.16818181818182154,
                "tempo": 120.0
            },
            {
                "start_time": 42.35,
                "end_time": 42.53181818181818,
                "pitch": 88,
                "velocity": 51,
                "duration": 0.18181818181817988,
                "tempo": 120.0
            },
            {
                "start_time": 42.53409090909091,
                "end_time": 42.711363636363636,
                "pitch": 86,
                "velocity": 51,
                "duration": 0.17727272727272947,
                "tempo": 120.0
            },
            {
                "start_time": 42.71363636363636,
                "end_time": 42.95681818181818,
                "pitch": 95,
                "velocity": 51,
                "duration": 0.24318181818181728,
                "tempo": 120.0
            },
            {
                "start_time": 42.95681818181818,
                "end_time": 43.00681818181818,
                "pitch": 93,
                "velocity": 51,
                "duration": 0.05000000000000426,
                "tempo": 120.0
            },
            {
                "start_time": 41.95227272727273,
                "end_time": 43.00681818181818,
                "pitch": 103,
                "velocity": 51,
                "duration": 1.0545454545454547,
                "tempo": 120.0
            },
            {
                "start_time": 43.00681818181818,
                "end_time": 43.059090909090905,
                "pitch": 91,
                "velocity": 51,
                "duration": 0.052272727272722364,
                "tempo": 120.0
            },
            {
                "start_time": 43.059090909090905,
                "end_time": 43.19090909090909,
                "pitch": 91,
                "velocity": 51,
                "duration": 0.13181818181818272,
                "tempo": 120.0
            },
            {
                "start_time": 43.00681818181818,
                "end_time": 43.19090909090909,
                "pitch": 103,
                "velocity": 51,
                "duration": 0.18409090909090509,
                "tempo": 120.0
            },
            {
                "start_time": 43.19090909090909,
                "end_time": 43.35909090909091,
                "pitch": 91,
                "velocity": 51,
                "duration": 0.16818181818182154,
                "tempo": 120.0
            },
            {
                "start_time": 43.19090909090909,
                "end_time": 43.35909090909091,
                "pitch": 103,
                "velocity": 51,
                "duration": 0.16818181818182154,
                "tempo": 120.0
            },
            {
                "start_time": 43.35909090909091,
                "end_time": 43.42727272727272,
                "pitch": 91,
                "velocity": 51,
                "duration": 0.06818181818181301,
                "tempo": 120.0
            },
            {
                "start_time": 43.42727272727272,
                "end_time": 43.595454545454544,
                "pitch": 86,
                "velocity": 51,
                "duration": 0.16818181818182154,
                "tempo": 120.0
            },
            {
                "start_time": 43.595454545454544,
                "end_time": 43.77272727272727,
                "pitch": 86,
                "velocity": 51,
                "duration": 0.17727272727272947,
                "tempo": 120.0
            },
            {
                "start_time": 43.775,
                "end_time": 43.95227272727273,
                "pitch": 88,
                "velocity": 51,
                "duration": 0.17727272727272947,
                "tempo": 120.0
            },
            {
                "start_time": 43.95227272727273,
                "end_time": 44.125,
                "pitch": 86,
                "velocity": 51,
                "duration": 0.17272727272727195,
                "tempo": 120.0
            },
            {
                "start_time": 44.125,
                "end_time": 44.377272727272725,
                "pitch": 95,
                "velocity": 51,
                "duration": 0.2522727272727252,
                "tempo": 120.0
            },
            {
                "start_time": 44.377272727272725,
                "end_time": 44.44090909090909,
                "pitch": 93,
                "velocity": 51,
                "duration": 0.0636363636363626,
                "tempo": 120.0
            },
            {
                "start_time": 43.35909090909091,
                "end_time": 44.44090909090909,
                "pitch": 103,
                "velocity": 51,
                "duration": 1.0818181818181785,
                "tempo": 120.0
            },
            {
                "start_time": 44.44090909090909,
                "end_time": 44.49090909090909,
                "pitch": 91,
                "velocity": 51,
                "duration": 0.05000000000000426,
                "tempo": 120.0
            },
            {
                "start_time": 44.49318181818182,
                "end_time": 44.60454545454545,
                "pitch": 91,
                "velocity": 51,
                "duration": 0.11136363636363455,
                "tempo": 120.0
            },
            {
                "start_time": 44.44090909090909,
                "end_time": 44.60454545454545,
                "pitch": 103,
                "velocity": 51,
                "duration": 0.16363636363636402,
                "tempo": 120.0
            },
            {
                "start_time": 44.60454545454545,
                "end_time": 44.788636363636364,
                "pitch": 91,
                "velocity": 51,
                "duration": 0.1840909090909122,
                "tempo": 120.0
            },
            {
                "start_time": 44.60454545454545,
                "end_time": 44.788636363636364,
                "pitch": 103,
                "velocity": 51,
                "duration": 0.1840909090909122,
                "tempo": 120.0
            },
            {
                "start_time": 44.788636363636364,
                "end_time": 44.840909090909086,
                "pitch": 91,
                "velocity": 51,
                "duration": 0.052272727272722364,
                "tempo": 120.0
            },
            {
                "start_time": 44.840909090909086,
                "end_time": 45.03181818181818,
                "pitch": 86,
                "velocity": 51,
                "duration": 0.19090909090909491,
                "tempo": 120.0
            },
            {
                "start_time": 45.03181818181818,
                "end_time": 45.209090909090904,
                "pitch": 86,
                "velocity": 51,
                "duration": 0.17727272727272236,
                "tempo": 120.0
            },
            {
                "start_time": 45.211363636363636,
                "end_time": 45.37272727272727,
                "pitch": 88,
                "velocity": 51,
                "duration": 0.1613636363636317,
                "tempo": 120.0
            },
            {
                "start_time": 45.37272727272727,
                "end_time": 45.91590909090909,
                "pitch": 95,
                "velocity": 51,
                "duration": 0.5431818181818215,
                "tempo": 120.0
            },
            {
                "start_time": 45.91590909090909,
                "end_time": 45.99772727272727,
                "pitch": 96,
                "velocity": 51,
                "duration": 0.08181818181817846,
                "tempo": 120.0
            },
            {
                "start_time": 45.99772727272727,
                "end_time": 46.08181818181818,
                "pitch": 95,
                "velocity": 51,
                "duration": 0.08409090909091077,
                "tempo": 120.0
            },
            {
                "start_time": 46.08181818181818,
                "end_time": 46.80227272727272,
                "pitch": 93,
                "velocity": 51,
                "duration": 0.7204545454545439,
                "tempo": 120.0
            },
            {
                "start_time": 46.80227272727272,
                "end_time": 46.834090909090904,
                "pitch": 75,
                "velocity": 80,
                "duration": 0.0318181818181813,
                "tempo": 120.0
            },
            {
                "start_time": 46.834090909090904,
                "end_time": 47.018181818181816,
                "pitch": 76,
                "velocity": 80,
                "duration": 0.1840909090909122,
                "tempo": 120.0
            }
        ],
        "Lead 2 (sawtooth)": [
            {
                "start_time": 12.649999999999999,
                "end_time": 12.99090909090909,
                "pitch": 62,
                "velocity": 64,
                "duration": 0.3409090909090917,
                "tempo": 120.0
            },
            {
                "start_time": 12.99090909090909,
                "end_time": 13.347727272727273,
                "pitch": 60,
                "velocity": 64,
                "duration": 0.35681818181818237,
                "tempo": 120.0
            },
            {
                "start_time": 13.347727272727273,
                "end_time": 13.531818181818181,
                "pitch": 59,
                "velocity": 64,
                "duration": 0.18409090909090864,
                "tempo": 120.0
            },
            {
                "start_time": 13.531818181818181,
                "end_time": 13.877272727272727,
                "pitch": 60,
                "velocity": 64,
                "duration": 0.3454545454545457,
                "tempo": 120.0
            },
            {
                "start_time": 13.879545454545454,
                "end_time": 14.227272727272727,
                "pitch": 62,
                "velocity": 64,
                "duration": 0.34772727272727266,
                "tempo": 120.0
            },
            {
                "start_time": 14.229545454545454,
                "end_time": 14.415909090909091,
                "pitch": 62,
                "velocity": 64,
                "duration": 0.1863636363636374,
                "tempo": 120.0
            },
            {
                "start_time": 14.418181818181818,
                "end_time": 14.774999999999999,
                "pitch": 60,
                "velocity": 64,
                "duration": 0.3568181818181806,
                "tempo": 120.0
            },
            {
                "start_time": 14.774999999999999,
                "end_time": 14.945454545454545,
                "pitch": 59,
                "velocity": 64,
                "duration": 0.17045454545454675,
                "tempo": 120.0
            },
            {
                "start_time": 14.945454545454545,
                "end_time": 15.477272727272727,
                "pitch": 60,
                "velocity": 64,
                "duration": 0.5318181818181813,
                "tempo": 120.0
            },
            {
                "start_time": 15.477272727272727,
                "end_time": 15.834090909090909,
                "pitch": 62,
                "velocity": 64,
                "duration": 0.35681818181818237,
                "tempo": 120.0
            },
            {
                "start_time": 15.834090909090909,
                "end_time": 16.195454545454545,
                "pitch": 60,
                "velocity": 64,
                "duration": 0.36136363636363633,
                "tempo": 120.0
            },
            {
                "start_time": 16.195454545454545,
                "end_time": 16.375,
                "pitch": 59,
                "velocity": 64,
                "duration": 0.17954545454545467,
                "tempo": 120.0
            },
            {
                "start_time": 16.375,
                "end_time": 16.720454545454544,
                "pitch": 60,
                "velocity": 64,
                "duration": 0.3454545454545439,
                "tempo": 120.0
            },
            {
                "start_time": 16.720454545454544,
                "end_time": 17.084090909090907,
                "pitch": 64,
                "velocity": 64,
                "duration": 0.3636363636363633,
                "tempo": 120.0
            },
            {
                "start_time": 17.084090909090907,
                "end_time": 17.261363636363637,
                "pitch": 64,
                "velocity": 64,
                "duration": 0.17727272727272947,
                "tempo": 120.0
            },
            {
                "start_time": 17.261363636363637,
                "end_time": 17.62272727272727,
                "pitch": 62,
                "velocity": 64,
                "duration": 0.36136363636363455,
                "tempo": 120.0
            },
            {
                "start_time": 17.62272727272727,
                "end_time": 17.802272727272726,
                "pitch": 60,
                "velocity": 64,
                "duration": 0.17954545454545467,
                "tempo": 120.0
            },
            {
                "start_time": 17.802272727272726,
                "end_time": 18.32272727272727,
                "pitch": 64,
                "velocity": 64,
                "duration": 0.5204545454545446,
                "tempo": 120.0
            },
            {
                "start_time": 18.32272727272727,
                "end_time": 18.68409090909091,
                "pitch": 62,
                "velocity": 64,
                "duration": 0.3613636363636381,
                "tempo": 120.0
            },
            {
                "start_time": 18.68409090909091,
                "end_time": 19.04090909090909,
                "pitch": 60,
                "velocity": 64,
                "duration": 0.3568181818181806,
                "tempo": 120.0
            },
            {
                "start_time": 19.04090909090909,
                "end_time": 19.211363636363636,
                "pitch": 59,
                "velocity": 64,
                "duration": 0.17045454545454675,
                "tempo": 120.0
            },
            {
                "start_time": 19.211363636363636,
                "end_time": 19.579545454545453,
                "pitch": 60,
                "velocity": 64,
                "duration": 0.3681818181818173,
                "tempo": 120.0
            },
            {
                "start_time": 19.579545454545453,
                "end_time": 19.925,
                "pitch": 62,
                "velocity": 64,
                "duration": 0.34545454545454746,
                "tempo": 120.0
            },
            {
                "start_time": 19.927272727272726,
                "end_time": 20.10909090909091,
                "pitch": 62,
                "velocity": 64,
                "duration": 0.18181818181818343,
                "tempo": 120.0
            },
            {
                "start_time": 20.111363636363635,
                "end_time": 20.461363636363636,
                "pitch": 60,
                "velocity": 64,
                "duration": 0.3500000000000014,
                "tempo": 120.0
            },
            {
                "start_time": 20.461363636363636,
                "end_time": 20.64090909090909,
                "pitch": 59,
                "velocity": 64,
                "duration": 0.17954545454545467,
                "tempo": 120.0
            },
            {
                "start_time": 20.64090909090909,
                "end_time": 21.172727272727272,
                "pitch": 60,
                "velocity": 64,
                "duration": 0.5318181818181813,
                "tempo": 120.0
            },
            {
                "start_time": 21.172727272727272,
                "end_time": 21.529545454545453,
                "pitch": 62,
                "velocity": 64,
                "duration": 0.3568181818181806,
                "tempo": 120.0
            },
            {
                "start_time": 21.529545454545453,
                "end_time": 21.89090909090909,
                "pitch": 60,
                "velocity": 64,
                "duration": 0.3613636363636381,
                "tempo": 120.0
            },
            {
                "start_time": 21.89090909090909,
                "end_time": 22.068181818181817,
                "pitch": 59,
                "velocity": 64,
                "duration": 0.17727272727272592,
                "tempo": 120.0
            },
            {
                "start_time": 22.068181818181817,
                "end_time": 22.418181818181818,
                "pitch": 60,
                "velocity": 64,
                "duration": 0.3500000000000014,
                "tempo": 120.0
            },
            {
                "start_time": 22.420454545454543,
                "end_time": 22.786363636363635,
                "pitch": 64,
                "velocity": 64,
                "duration": 0.36590909090909207,
                "tempo": 120.0
            },
            {
                "start_time": 22.786363636363635,
                "end_time": 22.95,
                "pitch": 64,
                "velocity": 64,
                "duration": 0.16363636363636402,
                "tempo": 120.0
            },
            {
                "start_time": 22.95,
                "end_time": 23.30681818181818,
                "pitch": 62,
                "velocity": 64,
                "duration": 0.3568181818181806,
                "tempo": 120.0
            },
            {
                "start_time": 23.30681818181818,
                "end_time": 23.49090909090909,
                "pitch": 60,
                "velocity": 64,
                "duration": 0.18409090909090864,
                "tempo": 120.0
            },
            {
                "start_time": 23.49090909090909,
                "end_time": 24.029545454545453,
                "pitch": 64,
                "velocity": 64,
                "duration": 0.538636363636364,
                "tempo": 120.0
            },
            {
                "start_time": 24.029545454545453,
                "end_time": 24.195454545454545,
                "pitch": 53,
                "velocity": 64,
                "duration": 0.16590909090909278,
                "tempo": 120.0
            },
            {
                "start_time": 24.195454545454545,
                "end_time": 24.379545454545454,
                "pitch": 53,
                "velocity": 64,
                "duration": 0.18409090909090864,
                "tempo": 120.0
            },
            {
                "start_time": 24.379545454545454,
                "end_time": 24.563636363636363,
                "pitch": 53,
                "velocity": 64,
                "duration": 0.18409090909090864,
                "tempo": 120.0
            },
            {
                "start_time": 24.563636363636363,
                "end_time": 24.74772727272727,
                "pitch": 53,
                "velocity": 64,
                "duration": 0.18409090909090864,
                "tempo": 120.0
            },
            {
                "start_time": 24.74772727272727,
                "end_time": 25.099999999999998,
                "pitch": 53,
                "velocity": 64,
                "duration": 0.3522727272727266,
                "tempo": 120.0
            },
            {
                "start_time": 25.099999999999998,
                "end_time": 25.279545454545453,
                "pitch": 53,
                "velocity": 64,
                "duration": 0.17954545454545467,
                "tempo": 120.0
            },
            {
                "start_time": 25.279545454545453,
                "end_time": 25.620454545454542,
                "pitch": 53,
                "velocity": 64,
                "duration": 0.34090909090908994,
                "tempo": 120.0
            },
            {
                "start_time": 25.620454545454542,
                "end_time": 25.799999999999997,
                "pitch": 53,
                "velocity": 64,
                "duration": 0.17954545454545467,
                "tempo": 120.0
            },
            {
                "start_time": 25.799999999999997,
                "end_time": 25.988636363636363,
                "pitch": 53,
                "velocity": 64,
                "duration": 0.18863636363636616,
                "tempo": 120.0
            },
            {
                "start_time": 25.988636363636363,
                "end_time": 26.159090909090907,
                "pitch": 53,
                "velocity": 64,
                "duration": 0.1704545454545432,
                "tempo": 120.0
            },
            {
                "start_time": 26.159090909090907,
                "end_time": 26.518181818181816,
                "pitch": 57,
                "velocity": 64,
                "duration": 0.35909090909090935,
                "tempo": 120.0
            },
            {
                "start_time": 26.518181818181816,
                "end_time": 26.688636363636363,
                "pitch": 65,
                "velocity": 64,
                "duration": 0.17045454545454675,
                "tempo": 120.0
            },
            {
                "start_time": 26.688636363636363,
                "end_time": 26.94090909090909,
                "pitch": 55,
                "velocity": 64,
                "duration": 0.25227272727272876,
                "tempo": 120.0
            },
            {
                "start_time": 26.94090909090909,
                "end_time": 27.00681818181818,
                "pitch": 55,
                "velocity": 64,
                "duration": 0.06590909090908781,
                "tempo": 120.0
            },
            {
                "start_time": 27.00681818181818,
                "end_time": 27.05681818181818,
                "pitch": 55,
                "velocity": 64,
                "duration": 0.05000000000000071,
                "tempo": 120.0
            },
            {
                "start_time": 27.05681818181818,
                "end_time": 27.236363636363635,
                "pitch": 55,
                "velocity": 64,
                "duration": 0.17954545454545467,
                "tempo": 120.0
            },
            {
                "start_time": 27.236363636363635,
                "end_time": 27.40681818181818,
                "pitch": 55,
                "velocity": 64,
                "duration": 0.17045454545454675,
                "tempo": 120.0
            },
            {
                "start_time": 27.40681818181818,
                "end_time": 27.595454545454544,
                "pitch": 55,
                "velocity": 64,
                "duration": 0.1886363636363626,
                "tempo": 120.0
            },
            {
                "start_time": 27.595454545454544,
                "end_time": 27.83863636363636,
                "pitch": 55,
                "velocity": 64,
                "duration": 0.24318181818181728,
                "tempo": 120.0
            },
            {
                "start_time": 26.94090909090909,
                "end_time": 27.83863636363636,
                "pitch": 67,
                "velocity": 64,
                "duration": 0.8977272727272698,
                "tempo": 120.0
            },
            {
                "start_time": 27.00681818181818,
                "end_time": 27.888636363636362,
                "pitch": 0,
                "velocity": 64,
                "duration": 0.8818181818181827,
                "tempo": 120.0
            },
            {
                "start_time": 27.83863636363636,
                "end_time": 27.888636363636362,
                "pitch": 55,
                "velocity": 64,
                "duration": 0.05000000000000071,
                "tempo": 120.0
            },
            {
                "start_time": 27.888636363636362,
                "end_time": 27.936363636363634,
                "pitch": 55,
                "velocity": 64,
                "duration": 0.04772727272727195,
                "tempo": 120.0
            },
            {
                "start_time": 27.938636363636363,
                "end_time": 28.11590909090909,
                "pitch": 55,
                "velocity": 64,
                "duration": 0.17727272727272592,
                "tempo": 120.0
            },
            {
                "start_time": 28.11590909090909,
                "end_time": 28.361363636363635,
                "pitch": 55,
                "velocity": 64,
                "duration": 0.24545454545454604,
                "tempo": 120.0
            },
            {
                "start_time": 27.83863636363636,
                "end_time": 28.361363636363635,
                "pitch": 67,
                "velocity": 64,
                "duration": 0.5227272727272734,
                "tempo": 120.0
            },
            {
                "start_time": 27.888636363636362,
                "end_time": 28.411363636363635,
                "pitch": 0,
                "velocity": 64,
                "duration": 0.5227272727272734,
                "tempo": 120.0
            },
            {
                "start_time": 28.361363636363635,
                "end_time": 28.411363636363635,
                "pitch": 55,
                "velocity": 64,
                "duration": 0.05000000000000071,
                "tempo": 120.0
            },
            {
                "start_time": 28.411363636363635,
                "end_time": 28.479545454545452,
                "pitch": 55,
                "velocity": 64,
                "duration": 0.06818181818181657,
                "tempo": 120.0
            },
            {
                "start_time": 28.479545454545452,
                "end_time": 28.645454545454545,
                "pitch": 55,
                "velocity": 64,
                "duration": 0.16590909090909278,
                "tempo": 120.0
            },
            {
                "start_time": 28.64772727272727,
                "end_time": 28.825,
                "pitch": 55,
                "velocity": 64,
                "duration": 0.17727272727272947,
                "tempo": 120.0
            },
            {
                "start_time": 28.827272727272724,
                "end_time": 29.004545454545454,
                "pitch": 55,
                "velocity": 64,
                "duration": 0.17727272727272947,
                "tempo": 120.0
            },
            {
                "start_time": 29.004545454545454,
                "end_time": 29.36590909090909,
                "pitch": 59,
                "velocity": 64,
                "duration": 0.36136363636363455,
                "tempo": 120.0
            },
            {
                "start_time": 28.361363636363635,
                "end_time": 29.543181818181818,
                "pitch": 67,
                "velocity": 64,
                "duration": 1.1818181818181834,
                "tempo": 120.0
            },
            {
                "start_time": 29.36590909090909,
                "end_time": 29.543181818181818,
                "pitch": 67,
                "velocity": 64,
                "duration": 0.17727272727272947,
                "tempo": 120.0
            },
            {
                "start_time": 29.545454545454543,
                "end_time": 29.893181818181816,
                "pitch": 57,
                "velocity": 64,
                "duration": 0.34772727272727266,
                "tempo": 120.0
            },
            {
                "start_time": 29.895454545454545,
                "end_time": 30.081818181818182,
                "pitch": 57,
                "velocity": 64,
                "duration": 0.1863636363636374,
                "tempo": 120.0
            },
            {
                "start_time": 30.084090909090907,
                "end_time": 30.261363636363633,
                "pitch": 57,
                "velocity": 64,
                "duration": 0.17727272727272592,
                "tempo": 120.0
            },
            {
                "start_time": 30.263636363636362,
                "end_time": 30.424999999999997,
                "pitch": 57,
                "velocity": 64,
                "duration": 0.16136363636363527,
                "tempo": 120.0
            },
            {
                "start_time": 30.424999999999997,
                "end_time": 30.78181818181818,
                "pitch": 57,
                "velocity": 64,
                "duration": 0.35681818181818414,
                "tempo": 120.0
            },
            {
                "start_time": 30.784090909090907,
                "end_time": 30.970454545454544,
                "pitch": 57,
                "velocity": 64,
                "duration": 0.1863636363636374,
                "tempo": 120.0
            },
            {
                "start_time": 30.970454545454544,
                "end_time": 31.32272727272727,
                "pitch": 57,
                "velocity": 64,
                "duration": 0.3522727272727266,
                "tempo": 120.0
            },
            {
                "start_time": 31.32272727272727,
                "end_time": 31.5,
                "pitch": 57,
                "velocity": 64,
                "duration": 0.17727272727272947,
                "tempo": 120.0
            },
            {
                "start_time": 31.5,
                "end_time": 31.668181818181818,
                "pitch": 57,
                "velocity": 64,
                "duration": 0.168181818181818,
                "tempo": 120.0
            },
            {
                "start_time": 31.668181818181818,
                "end_time": 31.852272727272727,
                "pitch": 57,
                "velocity": 64,
                "duration": 0.18409090909090864,
                "tempo": 120.0
            },
            {
                "start_time": 31.852272727272727,
                "end_time": 32.211363636363636,
                "pitch": 60,
                "velocity": 64,
                "duration": 0.35909090909090935,
                "tempo": 120.0
            },
            {
                "start_time": 32.211363636363636,
                "end_time": 32.38181818181818,
                "pitch": 69,
                "velocity": 64,
                "duration": 0.17045454545454675,
                "tempo": 120.0
            },
            {
                "start_time": 32.38181818181818,
                "end_time": 32.75,
                "pitch": 57,
                "velocity": 64,
                "duration": 0.3681818181818173,
                "tempo": 120.0
            },
            {
                "start_time": 32.75,
                "end_time": 32.91136363636363,
                "pitch": 57,
                "velocity": 64,
                "duration": 0.1613636363636317,
                "tempo": 120.0
            },
            {
                "start_time": 32.91136363636363,
                "end_time": 33.090909090909086,
                "pitch": 57,
                "velocity": 64,
                "duration": 0.17954545454545467,
                "tempo": 120.0
            },
            {
                "start_time": 33.090909090909086,
                "end_time": 33.27045454545454,
                "pitch": 57,
                "velocity": 64,
                "duration": 0.17954545454545467,
                "tempo": 120.0
            },
            {
                "start_time": 33.27045454545454,
                "end_time": 33.62954545454545,
                "pitch": 57,
                "velocity": 64,
                "duration": 0.35909090909090935,
                "tempo": 120.0
            },
            {
                "start_time": 33.62954545454545,
                "end_time": 33.809090909090905,
                "pitch": 57,
                "velocity": 64,
                "duration": 0.17954545454545467,
                "tempo": 120.0
            },
            {
                "start_time": 33.809090909090905,
                "end_time": 34.15909090909091,
                "pitch": 69,
                "velocity": 64,
                "duration": 0.3500000000000014,
                "tempo": 120.0
            },
            {
                "start_time": 34.15909090909091,
                "end_time": 34.34772727272727,
                "pitch": 69,
                "velocity": 64,
                "duration": 0.1886363636363626,
                "tempo": 120.0
            },
            {
                "start_time": 34.34772727272727,
                "end_time": 34.527272727272724,
                "pitch": 67,
                "velocity": 64,
                "duration": 0.17954545454545467,
                "tempo": 120.0
            },
            {
                "start_time": 34.527272727272724,
                "end_time": 34.70681818181818,
                "pitch": 67,
                "velocity": 64,
                "duration": 0.17954545454545467,
                "tempo": 120.0
            },
            {
                "start_time": 34.70681818181818,
                "end_time": 34.87272727272727,
                "pitch": 65,
                "velocity": 64,
                "duration": 0.16590909090908923,
                "tempo": 120.0
            },
            {
                "start_time": 34.87272727272727,
                "end_time": 35.05681818181818,
                "pitch": 65,
                "velocity": 64,
                "duration": 0.1840909090909122,
                "tempo": 120.0
            },
            {
                "start_time": 35.059090909090905,
                "end_time": 35.24090909090909,
                "pitch": 64,
                "velocity": 64,
                "duration": 0.18181818181818699,
                "tempo": 120.0
            },
            {
                "start_time": 35.24318181818182,
                "end_time": 35.41136363636363,
                "pitch": 64,
                "velocity": 64,
                "duration": 0.16818181818181444,
                "tempo": 120.0
            },
            {
                "start_time": 35.41136363636363,
                "end_time": 35.58863636363636,
                "pitch": 53,
                "velocity": 64,
                "duration": 0.17727272727272947,
                "tempo": 120.0
            },
            {
                "start_time": 35.58863636363636,
                "end_time": 35.768181818181816,
                "pitch": 53,
                "velocity": 64,
                "duration": 0.17954545454545467,
                "tempo": 120.0
            },
            {
                "start_time": 35.768181818181816,
                "end_time": 35.95227272727273,
                "pitch": 53,
                "velocity": 64,
                "duration": 0.1840909090909122,
                "tempo": 120.0
            },
            {
                "start_time": 35.95227272727273,
                "end_time": 36.12045454545454,
                "pitch": 53,
                "velocity": 64,
                "duration": 0.16818181818181444,
                "tempo": 120.0
            },
            {
                "start_time": 36.12045454545454,
                "end_time": 36.47727272727273,
                "pitch": 53,
                "velocity": 64,
                "duration": 0.35681818181818414,
                "tempo": 120.0
            },
            {
                "start_time": 36.47727272727273,
                "end_time": 36.64772727272727,
                "pitch": 53,
                "velocity": 64,
                "duration": 0.17045454545454675,
                "tempo": 120.0
            },
            {
                "start_time": 36.65,
                "end_time": 37.01590909090909,
                "pitch": 53,
                "velocity": 64,
                "duration": 0.36590909090909207,
                "tempo": 120.0
            },
            {
                "start_time": 37.01590909090909,
                "end_time": 37.195454545454545,
                "pitch": 53,
                "velocity": 64,
                "duration": 0.17954545454545467,
                "tempo": 120.0
            },
            {
                "start_time": 37.195454545454545,
                "end_time": 37.36590909090909,
                "pitch": 53,
                "velocity": 64,
                "duration": 0.17045454545454675,
                "tempo": 120.0
            },
            {
                "start_time": 37.36818181818182,
                "end_time": 37.554545454545455,
                "pitch": 53,
                "velocity": 64,
                "duration": 0.1863636363636374,
                "tempo": 120.0
            },
            {
                "start_time": 37.55681818181818,
                "end_time": 37.89772727272727,
                "pitch": 57,
                "velocity": 64,
                "duration": 0.3409090909090935,
                "tempo": 120.0
            },
            {
                "start_time": 37.89772727272727,
                "end_time": 38.07727272727273,
                "pitch": 65,
                "velocity": 64,
                "duration": 0.17954545454545467,
                "tempo": 120.0
            },
            {
                "start_time": 38.07727272727273,
                "end_time": 38.320454545454545,
                "pitch": 55,
                "velocity": 64,
                "duration": 0.24318181818181728,
                "tempo": 120.0
            },
            {
                "start_time": 28.411363636363635,
                "end_time": 38.37272727272727,
                "pitch": 0,
                "velocity": 64,
                "duration": 9.961363636363632,
                "tempo": 120.0
            },
            {
                "start_time": 38.320454545454545,
                "end_time": 38.37272727272727,
                "pitch": 55,
                "velocity": 64,
                "duration": 0.052272727272722364,
                "tempo": 120.0
            },
            {
                "start_time": 38.37272727272727,
                "end_time": 38.43863636363636,
                "pitch": 55,
                "velocity": 64,
                "duration": 0.06590909090909491,
                "tempo": 120.0
            },
            {
                "start_time": 38.44090909090909,
                "end_time": 38.60681818181818,
                "pitch": 55,
                "velocity": 64,
                "duration": 0.16590909090908923,
                "tempo": 120.0
            },
            {
                "start_time": 38.60681818181818,
                "end_time": 38.79090909090909,
                "pitch": 55,
                "velocity": 64,
                "duration": 0.1840909090909122,
                "tempo": 120.0
            },
            {
                "start_time": 38.79090909090909,
                "end_time": 38.975,
                "pitch": 55,
                "velocity": 64,
                "duration": 0.1840909090909122,
                "tempo": 120.0
            },
            {
                "start_time": 38.975,
                "end_time": 39.225,
                "pitch": 55,
                "velocity": 64,
                "duration": 0.25,
                "tempo": 120.0
            },
            {
                "start_time": 38.320454545454545,
                "end_time": 39.225,
                "pitch": 67,
                "velocity": 64,
                "duration": 0.9045454545454561,
                "tempo": 120.0
            },
            {
                "start_time": 38.37272727272727,
                "end_time": 39.277272727272724,
                "pitch": 0,
                "velocity": 64,
                "duration": 0.9045454545454561,
                "tempo": 120.0
            },
            {
                "start_time": 39.225,
                "end_time": 39.277272727272724,
                "pitch": 55,
                "velocity": 64,
                "duration": 0.052272727272722364,
                "tempo": 120.0
            },
            {
                "start_time": 39.277272727272724,
                "end_time": 39.32727272727273,
                "pitch": 55,
                "velocity": 64,
                "duration": 0.05000000000000426,
                "tempo": 120.0
            },
            {
                "start_time": 39.32727272727273,
                "end_time": 39.50681818181818,
                "pitch": 55,
                "velocity": 64,
                "duration": 0.17954545454545467,
                "tempo": 120.0
            },
            {
                "start_time": 39.50681818181818,
                "end_time": 39.752272727272725,
                "pitch": 55,
                "velocity": 64,
                "duration": 0.24545454545454248,
                "tempo": 120.0
            },
            {
                "start_time": 39.225,
                "end_time": 39.752272727272725,
                "pitch": 67,
                "velocity": 64,
                "duration": 0.5272727272727238,
                "tempo": 120.0
            },
            {
                "start_time": 39.277272727272724,
                "end_time": 39.804545454545455,
                "pitch": 0,
                "velocity": 64,
                "duration": 0.5272727272727309,
                "tempo": 120.0
            },
            {
                "start_time": 39.752272727272725,
                "end_time": 39.804545454545455,
                "pitch": 55,
                "velocity": 64,
                "duration": 0.05227272727272947,
                "tempo": 120.0
            },
            {
                "start_time": 39.804545454545455,
                "end_time": 39.85681818181818,
                "pitch": 55,
                "velocity": 64,
                "duration": 0.052272727272722364,
                "tempo": 120.0
            },
            {
                "start_time": 39.85681818181818,
                "end_time": 40.04545454545455,
                "pitch": 55,
                "velocity": 64,
                "duration": 0.1886363636363697,
                "tempo": 120.0
            },
            {
                "start_time": 40.04545454545455,
                "end_time": 40.225,
                "pitch": 55,
                "velocity": 64,
                "duration": 0.17954545454545467,
                "tempo": 120.0
            },
            {
                "start_time": 40.225,
                "end_time": 40.38636363636363,
                "pitch": 55,
                "velocity": 64,
                "duration": 0.1613636363636317,
                "tempo": 120.0
            },
            {
                "start_time": 40.38636363636363,
                "end_time": 40.74545454545454,
                "pitch": 59,
                "velocity": 64,
                "duration": 0.35909090909090935,
                "tempo": 120.0
            },
            {
                "start_time": 39.752272727272725,
                "end_time": 40.934090909090905,
                "pitch": 67,
                "velocity": 64,
                "duration": 1.1818181818181799,
                "tempo": 120.0
            },
            {
                "start_time": 40.74545454545454,
                "end_time": 40.934090909090905,
                "pitch": 67,
                "velocity": 64,
                "duration": 0.1886363636363626,
                "tempo": 120.0
            },
            {
                "start_time": 40.934090909090905,
                "end_time": 41.28409090909091,
                "pitch": 57,
                "velocity": 64,
                "duration": 0.3500000000000014,
                "tempo": 120.0
            },
            {
                "start_time": 41.28409090909091,
                "end_time": 41.461363636363636,
                "pitch": 57,
                "velocity": 64,
                "duration": 0.17727272727272947,
                "tempo": 120.0
            },
            {
                "start_time": 41.46363636363636,
                "end_time": 41.63409090909091,
                "pitch": 57,
                "velocity": 64,
                "duration": 0.17045454545454675,
                "tempo": 120.0
            },
            {
                "start_time": 41.63409090909091,
                "end_time": 41.82272727272727,
                "pitch": 57,
                "velocity": 64,
                "duration": 0.1886363636363626,
                "tempo": 120.0
            },
            {
                "start_time": 41.82272727272727,
                "end_time": 42.18181818181818,
                "pitch": 57,
                "velocity": 64,
                "duration": 0.35909090909090935,
                "tempo": 120.0
            },
            {
                "start_time": 42.18181818181818,
                "end_time": 42.34772727272727,
                "pitch": 57,
                "velocity": 64,
                "duration": 0.16590909090908923,
                "tempo": 120.0
            },
            {
                "start_time": 42.35,
                "end_time": 42.711363636363636,
                "pitch": 57,
                "velocity": 64,
                "duration": 0.36136363636363455,
                "tempo": 120.0
            },
            {
                "start_time": 42.711363636363636,
                "end_time": 42.87272727272727,
                "pitch": 57,
                "velocity": 64,
                "duration": 0.1613636363636317,
                "tempo": 120.0
            },
            {
                "start_time": 42.875,
                "end_time": 43.059090909090905,
                "pitch": 57,
                "velocity": 64,
                "duration": 0.18409090909090509,
                "tempo": 120.0
            },
            {
                "start_time": 43.059090909090905,
                "end_time": 43.24318181818182,
                "pitch": 57,
                "velocity": 64,
                "duration": 0.1840909090909122,
                "tempo": 120.0
            },
            {
                "start_time": 43.24318181818182,
                "end_time": 43.595454545454544,
                "pitch": 60,
                "velocity": 64,
                "duration": 0.3522727272727266,
                "tempo": 120.0
            },
            {
                "start_time": 43.595454545454544,
                "end_time": 43.77272727272727,
                "pitch": 69,
                "velocity": 64,
                "duration": 0.17727272727272947,
                "tempo": 120.0
            },
            {
                "start_time": 43.77272727272727,
                "end_time": 44.12272727272727,
                "pitch": 57,
                "velocity": 64,
                "duration": 0.3499999999999943,
                "tempo": 120.0
            },
            {
                "start_time": 44.125,
                "end_time": 44.31136363636364,
                "pitch": 57,
                "velocity": 64,
                "duration": 0.1863636363636374,
                "tempo": 120.0
            },
            {
                "start_time": 44.31136363636364,
                "end_time": 44.49090909090909,
                "pitch": 57,
                "velocity": 64,
                "duration": 0.17954545454545467,
                "tempo": 120.0
            },
            {
                "start_time": 44.49090909090909,
                "end_time": 44.67045454545455,
                "pitch": 57,
                "velocity": 64,
                "duration": 0.17954545454545467,
                "tempo": 120.0
            },
            {
                "start_time": 44.67045454545455,
                "end_time": 45.02954545454545,
                "pitch": 57,
                "velocity": 64,
                "duration": 0.35909090909090224,
                "tempo": 120.0
            },
            {
                "start_time": 45.03181818181818,
                "end_time": 45.209090909090904,
                "pitch": 57,
                "velocity": 64,
                "duration": 0.17727272727272236,
                "tempo": 120.0
            },
            {
                "start_time": 45.209090909090904,
                "end_time": 45.55,
                "pitch": 69,
                "velocity": 64,
                "duration": 0.3409090909090935,
                "tempo": 120.0
            },
            {
                "start_time": 45.55,
                "end_time": 45.72954545454545,
                "pitch": 69,
                "velocity": 64,
                "duration": 0.17954545454545467,
                "tempo": 120.0
            },
            {
                "start_time": 45.72954545454545,
                "end_time": 45.913636363636364,
                "pitch": 67,
                "velocity": 64,
                "duration": 0.1840909090909122,
                "tempo": 120.0
            },
            {
                "start_time": 45.913636363636364,
                "end_time": 46.08181818181818,
                "pitch": 67,
                "velocity": 64,
                "duration": 0.16818181818181444,
                "tempo": 120.0
            },
            {
                "start_time": 46.08181818181818,
                "end_time": 46.25909090909091,
                "pitch": 65,
                "velocity": 64,
                "duration": 0.17727272727272947,
                "tempo": 120.0
            },
            {
                "start_time": 46.26136363636363,
                "end_time": 46.43863636363636,
                "pitch": 65,
                "velocity": 64,
                "duration": 0.17727272727272947,
                "tempo": 120.0
            },
            {
                "start_time": 46.43863636363636,
                "end_time": 46.611363636363635,
                "pitch": 64,
                "velocity": 64,
                "duration": 0.17272727272727195,
                "tempo": 120.0
            },
            {
                "start_time": 46.611363636363635,
                "end_time": 46.80227272727272,
                "pitch": 64,
                "velocity": 64,
                "duration": 0.1909090909090878,
                "tempo": 120.0
            },
            {
                "start_time": 46.80227272727272,
                "end_time": 47.018181818181816,
                "pitch": 62,
                "velocity": 64,
                "duration": 0.2159090909090935,
                "tempo": 120.0
            }
        ],
        "Acoustic Bass": [
            {
                "start_time": 1.065909090909091,
                "end_time": 1.4227272727272726,
                "pitch": 33,
                "velocity": 80,
                "duration": 0.3568181818181817,
                "tempo": 120.0
            },
            {
                "start_time": 1.4227272727272726,
                "end_time": 1.6068181818181817,
                "pitch": 45,
                "velocity": 80,
                "duration": 0.18409090909090908,
                "tempo": 120.0
            },
            {
                "start_time": 1.6068181818181817,
                "end_time": 1.7772727272727271,
                "pitch": 33,
                "velocity": 80,
                "duration": 0.17045454545454541,
                "tempo": 120.0
            },
            {
                "start_time": 1.7772727272727271,
                "end_time": 1.9659090909090908,
                "pitch": 45,
                "velocity": 80,
                "duration": 0.1886363636363637,
                "tempo": 120.0
            },
            {
                "start_time": 1.9659090909090908,
                "end_time": 2.1454545454545455,
                "pitch": 33,
                "velocity": 80,
                "duration": 0.17954545454545467,
                "tempo": 120.0
            },
            {
                "start_time": 2.1454545454545455,
                "end_time": 2.3249999999999997,
                "pitch": 45,
                "velocity": 80,
                "duration": 0.17954545454545423,
                "tempo": 120.0
            },
            {
                "start_time": 2.3249999999999997,
                "end_time": 2.493181818181818,
                "pitch": 33,
                "velocity": 80,
                "duration": 0.16818181818181843,
                "tempo": 120.0
            },
            {
                "start_time": 2.493181818181818,
                "end_time": 2.8545454545454545,
                "pitch": 31,
                "velocity": 80,
                "duration": 0.36136363636363633,
                "tempo": 120.0
            },
            {
                "start_time": 2.8545454545454545,
                "end_time": 3.018181818181818,
                "pitch": 43,
                "velocity": 80,
                "duration": 0.16363636363636358,
                "tempo": 120.0
            },
            {
                "start_time": 3.018181818181818,
                "end_time": 3.1954545454545453,
                "pitch": 31,
                "velocity": 80,
                "duration": 0.17727272727272725,
                "tempo": 120.0
            },
            {
                "start_time": 3.1977272727272728,
                "end_time": 3.375,
                "pitch": 43,
                "velocity": 80,
                "duration": 0.17727272727272725,
                "tempo": 120.0
            },
            {
                "start_time": 3.375,
                "end_time": 3.5636363636363635,
                "pitch": 31,
                "velocity": 80,
                "duration": 0.1886363636363635,
                "tempo": 120.0
            },
            {
                "start_time": 3.5636363636363635,
                "end_time": 3.7363636363636363,
                "pitch": 43,
                "velocity": 80,
                "duration": 0.17272727272727284,
                "tempo": 120.0
            },
            {
                "start_time": 3.7363636363636363,
                "end_time": 3.9159090909090906,
                "pitch": 31,
                "velocity": 80,
                "duration": 0.17954545454545423,
                "tempo": 120.0
            },
            {
                "start_time": 3.9159090909090906,
                "end_time": 4.263636363636364,
                "pitch": 29,
                "velocity": 80,
                "duration": 0.3477272727272731,
                "tempo": 120.0
            },
            {
                "start_time": 4.265909090909091,
                "end_time": 4.454545454545454,
                "pitch": 41,
                "velocity": 80,
                "duration": 0.1886363636363635,
                "tempo": 120.0
            },
            {
                "start_time": 4.454545454545454,
                "end_time": 4.631818181818182,
                "pitch": 29,
                "velocity": 80,
                "duration": 0.1772727272727277,
                "tempo": 120.0
            },
            {
                "start_time": 4.631818181818182,
                "end_time": 4.8136363636363635,
                "pitch": 41,
                "velocity": 80,
                "duration": 0.18181818181818166,
                "tempo": 120.0
            },
            {
                "start_time": 4.8136363636363635,
                "end_time": 4.9795454545454545,
                "pitch": 29,
                "velocity": 80,
                "duration": 0.165909090909091,
                "tempo": 120.0
            },
            {
                "start_time": 4.9795454545454545,
                "end_time": 5.163636363636363,
                "pitch": 41,
                "velocity": 80,
                "duration": 0.18409090909090864,
                "tempo": 120.0
            },
            {
                "start_time": 5.165909090909091,
                "end_time": 5.35,
                "pitch": 29,
                "velocity": 80,
                "duration": 0.18409090909090864,
                "tempo": 120.0
            },
            {
                "start_time": 5.35,
                "end_time": 5.693181818181818,
                "pitch": 31,
                "velocity": 80,
                "duration": 0.3431818181818187,
                "tempo": 120.0
            },
            {
                "start_time": 5.693181818181818,
                "end_time": 5.872727272727272,
                "pitch": 43,
                "velocity": 80,
                "duration": 0.1795454545454538,
                "tempo": 120.0
            },
            {
                "start_time": 5.872727272727272,
                "end_time": 6.056818181818182,
                "pitch": 31,
                "velocity": 80,
                "duration": 0.18409090909090953,
                "tempo": 120.0
            },
            {
                "start_time": 6.056818181818182,
                "end_time": 6.140909090909091,
                "pitch": 41,
                "velocity": 80,
                "duration": 0.084090909090909,
                "tempo": 120.0
            },
            {
                "start_time": 6.140909090909091,
                "end_time": 6.225,
                "pitch": 43,
                "velocity": 80,
                "duration": 0.084090909090909,
                "tempo": 120.0
            },
            {
                "start_time": 6.225,
                "end_time": 6.404545454545454,
                "pitch": 31,
                "velocity": 80,
                "duration": 0.17954545454545467,
                "tempo": 120.0
            },
            {
                "start_time": 6.404545454545454,
                "end_time": 6.584090909090909,
                "pitch": 43,
                "velocity": 80,
                "duration": 0.17954545454545467,
                "tempo": 120.0
            },
            {
                "start_time": 6.584090909090909,
                "end_time": 6.754545454545454,
                "pitch": 31,
                "velocity": 80,
                "duration": 0.17045454545454497,
                "tempo": 120.0
            },
            {
                "start_time": 6.754545454545454,
                "end_time": 7.122727272727272,
                "pitch": 33,
                "velocity": 80,
                "duration": 0.36818181818181817,
                "tempo": 120.0
            },
            {
                "start_time": 7.122727272727272,
                "end_time": 7.3,
                "pitch": 45,
                "velocity": 80,
                "duration": 0.1772727272727277,
                "tempo": 120.0
            },
            {
                "start_time": 7.302272727272727,
                "end_time": 7.472727272727273,
                "pitch": 33,
                "velocity": 80,
                "duration": 0.17045454545454586,
                "tempo": 120.0
            },
            {
                "start_time": 7.472727272727273,
                "end_time": 7.661363636363636,
                "pitch": 45,
                "velocity": 80,
                "duration": 0.1886363636363635,
                "tempo": 120.0
            },
            {
                "start_time": 7.661363636363636,
                "end_time": 7.838636363636363,
                "pitch": 33,
                "velocity": 80,
                "duration": 0.1772727272727268,
                "tempo": 120.0
            },
            {
                "start_time": 7.840909090909091,
                "end_time": 8.004545454545454,
                "pitch": 45,
                "velocity": 80,
                "duration": 0.16363636363636314,
                "tempo": 120.0
            },
            {
                "start_time": 8.004545454545454,
                "end_time": 8.181818181818182,
                "pitch": 33,
                "velocity": 80,
                "duration": 0.1772727272727277,
                "tempo": 120.0
            },
            {
                "start_time": 8.184090909090909,
                "end_time": 8.545454545454545,
                "pitch": 31,
                "velocity": 80,
                "duration": 0.36136363636363633,
                "tempo": 120.0
            },
            {
                "start_time": 8.545454545454545,
                "end_time": 8.711363636363636,
                "pitch": 43,
                "velocity": 80,
                "duration": 0.165909090909091,
                "tempo": 120.0
            },
            {
                "start_time": 8.713636363636363,
                "end_time": 8.897727272727272,
                "pitch": 31,
                "velocity": 80,
                "duration": 0.18409090909090864,
                "tempo": 120.0
            },
            {
                "start_time": 8.897727272727272,
                "end_time": 9.081818181818182,
                "pitch": 43,
                "velocity": 80,
                "duration": 0.18409090909091042,
                "tempo": 120.0
            },
            {
                "start_time": 9.081818181818182,
                "end_time": 9.247727272727273,
                "pitch": 31,
                "velocity": 80,
                "duration": 0.165909090909091,
                "tempo": 120.0
            },
            {
                "start_time": 9.247727272727273,
                "end_time": 9.434090909090909,
                "pitch": 43,
                "velocity": 80,
                "duration": 0.18636363636363562,
                "tempo": 120.0
            },
            {
                "start_time": 9.434090909090909,
                "end_time": 9.618181818181817,
                "pitch": 31,
                "velocity": 80,
                "duration": 0.18409090909090864,
                "tempo": 120.0
            },
            {
                "start_time": 9.618181818181817,
                "end_time": 9.968181818181817,
                "pitch": 29,
                "velocity": 80,
                "duration": 0.34999999999999964,
                "tempo": 120.0
            },
            {
                "start_time": 9.968181818181817,
                "end_time": 10.152272727272727,
                "pitch": 41,
                "velocity": 80,
                "duration": 0.18409090909091042,
                "tempo": 120.0
            },
            {
                "start_time": 10.152272727272727,
                "end_time": 10.331818181818182,
                "pitch": 29,
                "velocity": 80,
                "duration": 0.17954545454545467,
                "tempo": 120.0
            },
            {
                "start_time": 10.331818181818182,
                "end_time": 10.493181818181817,
                "pitch": 41,
                "velocity": 80,
                "duration": 0.16136363636363527,
                "tempo": 120.0
            },
            {
                "start_time": 10.495454545454544,
                "end_time": 10.672727272727272,
                "pitch": 29,
                "velocity": 80,
                "duration": 0.1772727272727277,
                "tempo": 120.0
            },
            {
                "start_time": 10.672727272727272,
                "end_time": 10.852272727272727,
                "pitch": 41,
                "velocity": 80,
                "duration": 0.17954545454545467,
                "tempo": 120.0
            },
            {
                "start_time": 10.852272727272727,
                "end_time": 11.040909090909091,
                "pitch": 29,
                "velocity": 80,
                "duration": 0.18863636363636438,
                "tempo": 120.0
            },
            {
                "start_time": 11.043181818181818,
                "end_time": 11.213636363636363,
                "pitch": 41,
                "velocity": 80,
                "duration": 0.17045454545454497,
                "tempo": 120.0
            },
            {
                "start_time": 11.213636363636363,
                "end_time": 11.393181818181818,
                "pitch": 29,
                "velocity": 80,
                "duration": 0.17954545454545467,
                "tempo": 120.0
            },
            {
                "start_time": 11.393181818181818,
                "end_time": 11.570454545454545,
                "pitch": 41,
                "velocity": 80,
                "duration": 0.1772727272727277,
                "tempo": 120.0
            },
            {
                "start_time": 11.570454545454545,
                "end_time": 11.74090909090909,
                "pitch": 29,
                "velocity": 80,
                "duration": 0.17045454545454497,
                "tempo": 120.0
            },
            {
                "start_time": 11.743181818181817,
                "end_time": 11.929545454545455,
                "pitch": 41,
                "velocity": 80,
                "duration": 0.1863636363636374,
                "tempo": 120.0
            },
            {
                "start_time": 11.931818181818182,
                "end_time": 12.027272727272727,
                "pitch": 29,
                "velocity": 80,
                "duration": 0.09545454545454568,
                "tempo": 120.0
            },
            {
                "start_time": 12.027272727272727,
                "end_time": 12.10909090909091,
                "pitch": 41,
                "velocity": 80,
                "duration": 0.08181818181818201,
                "tempo": 120.0
            },
            {
                "start_time": 12.10909090909091,
                "end_time": 12.19090909090909,
                "pitch": 29,
                "velocity": 80,
                "duration": 0.08181818181818024,
                "tempo": 120.0
            },
            {
                "start_time": 12.19090909090909,
                "end_time": 12.288636363636362,
                "pitch": 39,
                "velocity": 80,
                "duration": 0.09772727272727266,
                "tempo": 120.0
            },
            {
                "start_time": 12.288636363636362,
                "end_time": 12.372727272727271,
                "pitch": 41,
                "velocity": 80,
                "duration": 0.084090909090909,
                "tempo": 120.0
            },
            {
                "start_time": 12.372727272727271,
                "end_time": 12.459090909090909,
                "pitch": 39,
                "velocity": 80,
                "duration": 0.08636363636363775,
                "tempo": 120.0
            },
            {
                "start_time": 12.459090909090909,
                "end_time": 12.545454545454545,
                "pitch": 37,
                "velocity": 80,
                "duration": 0.08636363636363598,
                "tempo": 120.0
            },
            {
                "start_time": 12.545454545454545,
                "end_time": 12.613636363636363,
                "pitch": 35,
                "velocity": 80,
                "duration": 0.06818181818181834,
                "tempo": 120.0
            },
            {
                "start_time": 12.613636363636363,
                "end_time": 12.652272727272727,
                "pitch": 32,
                "velocity": 80,
                "duration": 0.038636363636364024,
                "tempo": 120.0
            },
            {
                "start_time": 12.652272727272727,
                "end_time": 12.827272727272726,
                "pitch": 29,
                "velocity": 80,
                "duration": 0.17499999999999893,
                "tempo": 120.0
            },
            {
                "start_time": 12.827272727272726,
                "end_time": 12.99090909090909,
                "pitch": 41,
                "velocity": 80,
                "duration": 0.16363636363636402,
                "tempo": 120.0
            },
            {
                "start_time": 12.993181818181817,
                "end_time": 13.168181818181818,
                "pitch": 29,
                "velocity": 80,
                "duration": 0.1750000000000007,
                "tempo": 120.0
            },
            {
                "start_time": 13.170454545454545,
                "end_time": 13.35,
                "pitch": 41,
                "velocity": 80,
                "duration": 0.17954545454545467,
                "tempo": 120.0
            },
            {
                "start_time": 13.35,
                "end_time": 13.531818181818181,
                "pitch": 29,
                "velocity": 80,
                "duration": 0.18181818181818166,
                "tempo": 120.0
            },
            {
                "start_time": 13.531818181818181,
                "end_time": 13.7,
                "pitch": 41,
                "velocity": 80,
                "duration": 0.168181818181818,
                "tempo": 120.0
            },
            {
                "start_time": 13.7,
                "end_time": 13.879545454545454,
                "pitch": 29,
                "velocity": 80,
                "duration": 0.17954545454545467,
                "tempo": 120.0
            },
            {
                "start_time": 13.879545454545454,
                "end_time": 14.229545454545454,
                "pitch": 31,
                "velocity": 80,
                "duration": 0.34999999999999964,
                "tempo": 120.0
            },
            {
                "start_time": 14.229545454545454,
                "end_time": 14.418181818181818,
                "pitch": 43,
                "velocity": 80,
                "duration": 0.18863636363636438,
                "tempo": 120.0
            },
            {
                "start_time": 14.418181818181818,
                "end_time": 14.597727272727273,
                "pitch": 31,
                "velocity": 80,
                "duration": 0.17954545454545467,
                "tempo": 120.0
            },
            {
                "start_time": 6.140909090909091,
                "end_time": 14.677272727272726,
                "pitch": 0,
                "velocity": 80,
                "duration": 8.536363636363635,
                "tempo": 120.0
            },
            {
                "start_time": 14.597727272727273,
                "end_time": 14.677272727272726,
                "pitch": 41,
                "velocity": 80,
                "duration": 0.07954545454545325,
                "tempo": 120.0
            },
            {
                "start_time": 14.677272727272726,
                "end_time": 14.777272727272727,
                "pitch": 43,
                "velocity": 80,
                "duration": 0.10000000000000142,
                "tempo": 120.0
            },
            {
                "start_time": 14.777272727272727,
                "end_time": 14.947727272727272,
                "pitch": 31,
                "velocity": 80,
                "duration": 0.17045454545454497,
                "tempo": 120.0
            },
            {
                "start_time": 14.947727272727272,
                "end_time": 15.136363636363635,
                "pitch": 43,
                "velocity": 80,
                "duration": 0.1886363636363626,
                "tempo": 120.0
            },
            {
                "start_time": 15.136363636363635,
                "end_time": 15.31590909090909,
                "pitch": 31,
                "velocity": 80,
                "duration": 0.17954545454545467,
                "tempo": 120.0
            },
            {
                "start_time": 15.31590909090909,
                "end_time": 15.479545454545454,
                "pitch": 43,
                "velocity": 80,
                "duration": 0.16363636363636402,
                "tempo": 120.0
            },
            {
                "start_time": 15.479545454545454,
                "end_time": 15.656818181818181,
                "pitch": 31,
                "velocity": 80,
                "duration": 0.1772727272727277,
                "tempo": 120.0
            },
            {
                "start_time": 15.656818181818181,
                "end_time": 15.836363636363636,
                "pitch": 43,
                "velocity": 80,
                "duration": 0.17954545454545467,
                "tempo": 120.0
            },
            {
                "start_time": 15.836363636363636,
                "end_time": 16.022727272727273,
                "pitch": 31,
                "velocity": 80,
                "duration": 0.1863636363636374,
                "tempo": 120.0
            },
            {
                "start_time": 16.025,
                "end_time": 16.195454545454545,
                "pitch": 43,
                "velocity": 80,
                "duration": 0.17045454545454675,
                "tempo": 120.0
            },
            {
                "start_time": 16.195454545454545,
                "end_time": 16.375,
                "pitch": 31,
                "velocity": 80,
                "duration": 0.17954545454545467,
                "tempo": 120.0
            },
            {
                "start_time": 16.377272727272725,
                "end_time": 16.554545454545455,
                "pitch": 43,
                "velocity": 80,
                "duration": 0.17727272727272947,
                "tempo": 120.0
            },
            {
                "start_time": 16.554545454545455,
                "end_time": 16.722727272727273,
                "pitch": 31,
                "velocity": 80,
                "duration": 0.168181818181818,
                "tempo": 120.0
            },
            {
                "start_time": 16.722727272727273,
                "end_time": 16.90681818181818,
                "pitch": 45,
                "velocity": 80,
                "duration": 0.18409090909090864,
                "tempo": 120.0
            },
            {
                "start_time": 16.90681818181818,
                "end_time": 17.084090909090907,
                "pitch": 33,
                "velocity": 80,
                "duration": 0.17727272727272592,
                "tempo": 120.0
            },
            {
                "start_time": 17.084090909090907,
                "end_time": 17.263636363636362,
                "pitch": 45,
                "velocity": 80,
                "duration": 0.17954545454545467,
                "tempo": 120.0
            },
            {
                "start_time": 17.263636363636362,
                "end_time": 17.43409090909091,
                "pitch": 33,
                "velocity": 80,
                "duration": 0.17045454545454675,
                "tempo": 120.0
            },
            {
                "start_time": 17.43409090909091,
                "end_time": 17.625,
                "pitch": 43,
                "velocity": 80,
                "duration": 0.19090909090909136,
                "tempo": 120.0
            },
            {
                "start_time": 17.625,
                "end_time": 17.802272727272726,
                "pitch": 33,
                "velocity": 80,
                "duration": 0.17727272727272592,
                "tempo": 120.0
            },
            {
                "start_time": 17.802272727272726,
                "end_time": 17.96363636363636,
                "pitch": 45,
                "velocity": 80,
                "duration": 0.16136363636363527,
                "tempo": 120.0
            },
            {
                "start_time": 17.96590909090909,
                "end_time": 18.09318181818182,
                "pitch": 33,
                "velocity": 80,
                "duration": 0.12727272727272876,
                "tempo": 120.0
            },
            {
                "start_time": 18.09318181818182,
                "end_time": 18.143181818181816,
                "pitch": 31,
                "velocity": 80,
                "duration": 0.04999999999999716,
                "tempo": 120.0
            },
            {
                "start_time": 18.143181818181816,
                "end_time": 18.325,
                "pitch": 45,
                "velocity": 80,
                "duration": 0.18181818181818343,
                "tempo": 120.0
            },
            {
                "start_time": 18.325,
                "end_time": 18.511363636363637,
                "pitch": 29,
                "velocity": 80,
                "duration": 0.1863636363636374,
                "tempo": 120.0
            },
            {
                "start_time": 18.511363636363637,
                "end_time": 18.68409090909091,
                "pitch": 41,
                "velocity": 80,
                "duration": 0.17272727272727195,
                "tempo": 120.0
            },
            {
                "start_time": 18.68409090909091,
                "end_time": 18.861363636363635,
                "pitch": 29,
                "velocity": 80,
                "duration": 0.17727272727272592,
                "tempo": 120.0
            },
            {
                "start_time": 18.861363636363635,
                "end_time": 19.043181818181818,
                "pitch": 41,
                "velocity": 80,
                "duration": 0.18181818181818343,
                "tempo": 120.0
            },
            {
                "start_time": 19.043181818181818,
                "end_time": 19.211363636363636,
                "pitch": 29,
                "velocity": 80,
                "duration": 0.168181818181818,
                "tempo": 120.0
            },
            {
                "start_time": 19.21363636363636,
                "end_time": 19.402272727272727,
                "pitch": 41,
                "velocity": 80,
                "duration": 0.18863636363636616,
                "tempo": 120.0
            },
            {
                "start_time": 19.402272727272727,
                "end_time": 19.581818181818182,
                "pitch": 29,
                "velocity": 80,
                "duration": 0.17954545454545467,
                "tempo": 120.0
            },
            {
                "start_time": 19.581818181818182,
                "end_time": 19.927272727272726,
                "pitch": 31,
                "velocity": 80,
                "duration": 0.3454545454545439,
                "tempo": 120.0
            },
            {
                "start_time": 18.09318181818182,
                "end_time": 20.111363636363635,
                "pitch": 43,
                "velocity": 80,
                "duration": 2.018181818181816,
                "tempo": 120.0
            },
            {
                "start_time": 19.927272727272726,
                "end_time": 20.111363636363635,
                "pitch": 43,
                "velocity": 80,
                "duration": 0.18409090909090864,
                "tempo": 120.0
            },
            {
                "start_time": 20.111363636363635,
                "end_time": 20.295454545454543,
                "pitch": 31,
                "velocity": 80,
                "duration": 0.18409090909090864,
                "tempo": 120.0
            },
            {
                "start_time": 14.677272727272726,
                "end_time": 20.377272727272725,
                "pitch": 0,
                "velocity": 80,
                "duration": 5.699999999999999,
                "tempo": 120.0
            },
            {
                "start_time": 20.295454545454543,
                "end_time": 20.377272727272725,
                "pitch": 41,
                "velocity": 80,
                "duration": 0.08181818181818201,
                "tempo": 120.0
            },
            {
                "start_time": 20.377272727272725,
                "end_time": 20.46363636363636,
                "pitch": 43,
                "velocity": 80,
                "duration": 0.08636363636363598,
                "tempo": 120.0
            },
            {
                "start_time": 20.46363636363636,
                "end_time": 20.643181818181816,
                "pitch": 31,
                "velocity": 80,
                "duration": 0.17954545454545467,
                "tempo": 120.0
            },
            {
                "start_time": 20.643181818181816,
                "end_time": 20.820454545454545,
                "pitch": 43,
                "velocity": 80,
                "duration": 0.17727272727272947,
                "tempo": 120.0
            },
            {
                "start_time": 20.82272727272727,
                "end_time": 21.00681818181818,
                "pitch": 31,
                "velocity": 80,
                "duration": 0.18409090909090864,
                "tempo": 120.0
            },
            {
                "start_time": 21.00681818181818,
                "end_time": 21.175,
                "pitch": 43,
                "velocity": 80,
                "duration": 0.16818181818182154,
                "tempo": 120.0
            },
            {
                "start_time": 21.175,
                "end_time": 21.349999999999998,
                "pitch": 31,
                "velocity": 80,
                "duration": 0.17499999999999716,
                "tempo": 120.0
            },
            {
                "start_time": 21.352272727272727,
                "end_time": 21.529545454545453,
                "pitch": 43,
                "velocity": 80,
                "duration": 0.17727272727272592,
                "tempo": 120.0
            },
            {
                "start_time": 21.53181818181818,
                "end_time": 21.702272727272724,
                "pitch": 31,
                "velocity": 80,
                "duration": 0.1704545454545432,
                "tempo": 120.0
            },
            {
                "start_time": 21.702272727272724,
                "end_time": 21.89090909090909,
                "pitch": 43,
                "velocity": 80,
                "duration": 0.18863636363636616,
                "tempo": 120.0
            },
            {
                "start_time": 21.89090909090909,
                "end_time": 22.070454545454545,
                "pitch": 31,
                "velocity": 80,
                "duration": 0.17954545454545467,
                "tempo": 120.0
            },
            {
                "start_time": 22.070454545454545,
                "end_time": 22.25,
                "pitch": 43,
                "velocity": 80,
                "duration": 0.17954545454545467,
                "tempo": 120.0
            },
            {
                "start_time": 22.25,
                "end_time": 22.420454545454543,
                "pitch": 31,
                "velocity": 80,
                "duration": 0.1704545454545432,
                "tempo": 120.0
            },
            {
                "start_time": 22.420454545454543,
                "end_time": 22.60909090909091,
                "pitch": 45,
                "velocity": 80,
                "duration": 0.18863636363636616,
                "tempo": 120.0
            },
            {
                "start_time": 22.60909090909091,
                "end_time": 22.788636363636364,
                "pitch": 33,
                "velocity": 80,
                "duration": 0.17954545454545467,
                "tempo": 120.0
            },
            {
                "start_time": 22.788636363636364,
                "end_time": 22.95,
                "pitch": 45,
                "velocity": 80,
                "duration": 0.16136363636363527,
                "tempo": 120.0
            },
            {
                "start_time": 22.95,
                "end_time": 23.129545454545454,
                "pitch": 33,
                "velocity": 80,
                "duration": 0.17954545454545467,
                "tempo": 120.0
            },
            {
                "start_time": 23.129545454545454,
                "end_time": 23.30909090909091,
                "pitch": 43,
                "velocity": 80,
                "duration": 0.17954545454545467,
                "tempo": 120.0
            },
            {
                "start_time": 23.30909090909091,
                "end_time": 23.493181818181817,
                "pitch": 33,
                "velocity": 80,
                "duration": 0.18409090909090864,
                "tempo": 120.0
            },
            {
                "start_time": 23.493181818181817,
                "end_time": 23.659090909090907,
                "pitch": 45,
                "velocity": 80,
                "duration": 0.16590909090908923,
                "tempo": 120.0
            },
            {
                "start_time": 23.659090909090907,
                "end_time": 23.793181818181818,
                "pitch": 33,
                "velocity": 80,
                "duration": 0.13409090909091148,
                "tempo": 120.0
            },
            {
                "start_time": 23.793181818181818,
                "end_time": 23.84318181818182,
                "pitch": 31,
                "velocity": 80,
                "duration": 0.05000000000000071,
                "tempo": 120.0
            },
            {
                "start_time": 23.84318181818182,
                "end_time": 24.03181818181818,
                "pitch": 45,
                "velocity": 80,
                "duration": 0.1886363636363626,
                "tempo": 120.0
            },
            {
                "start_time": 24.03181818181818,
                "end_time": 24.19772727272727,
                "pitch": 29,
                "velocity": 80,
                "duration": 0.16590909090908923,
                "tempo": 120.0
            },
            {
                "start_time": 24.19772727272727,
                "end_time": 24.279545454545453,
                "pitch": 29,
                "velocity": 80,
                "duration": 0.08181818181818201,
                "tempo": 120.0
            },
            {
                "start_time": 24.38181818181818,
                "end_time": 24.563636363636363,
                "pitch": 29,
                "velocity": 80,
                "duration": 0.18181818181818343,
                "tempo": 120.0
            },
            {
                "start_time": 24.56590909090909,
                "end_time": 24.629545454545454,
                "pitch": 29,
                "velocity": 80,
                "duration": 0.0636363636363626,
                "tempo": 120.0
            },
            {
                "start_time": 24.75,
                "end_time": 24.91590909090909,
                "pitch": 29,
                "velocity": 80,
                "duration": 0.16590909090908923,
                "tempo": 120.0
            },
            {
                "start_time": 24.918181818181818,
                "end_time": 25.0,
                "pitch": 29,
                "velocity": 80,
                "duration": 0.08181818181818201,
                "tempo": 120.0
            },
            {
                "start_time": 25.102272727272727,
                "end_time": 25.163636363636364,
                "pitch": 29,
                "velocity": 80,
                "duration": 0.0613636363636374,
                "tempo": 120.0
            },
            {
                "start_time": 25.28181818181818,
                "end_time": 25.62272727272727,
                "pitch": 29,
                "velocity": 80,
                "duration": 0.34090909090908994,
                "tempo": 120.0
            },
            {
                "start_time": 25.62272727272727,
                "end_time": 25.68409090909091,
                "pitch": 29,
                "velocity": 80,
                "duration": 0.0613636363636374,
                "tempo": 120.0
            },
            {
                "start_time": 25.799999999999997,
                "end_time": 25.988636363636363,
                "pitch": 29,
                "velocity": 80,
                "duration": 0.18863636363636616,
                "tempo": 120.0
            },
            {
                "start_time": 25.99090909090909,
                "end_time": 26.05681818181818,
                "pitch": 29,
                "velocity": 80,
                "duration": 0.06590909090909136,
                "tempo": 120.0
            },
            {
                "start_time": 26.161363636363635,
                "end_time": 26.25681818181818,
                "pitch": 29,
                "velocity": 80,
                "duration": 0.0954545454545439,
                "tempo": 120.0
            },
            {
                "start_time": 26.25681818181818,
                "end_time": 26.33863636363636,
                "pitch": 41,
                "velocity": 80,
                "duration": 0.08181818181818201,
                "tempo": 120.0
            },
            {
                "start_time": 26.34090909090909,
                "end_time": 26.402272727272727,
                "pitch": 29,
                "velocity": 80,
                "duration": 0.0613636363636374,
                "tempo": 120.0
            },
            {
                "start_time": 26.520454545454545,
                "end_time": 26.584090909090907,
                "pitch": 29,
                "velocity": 80,
                "duration": 0.0636363636363626,
                "tempo": 120.0
            },
            {
                "start_time": 26.69090909090909,
                "end_time": 26.775,
                "pitch": 29,
                "velocity": 80,
                "duration": 0.08409090909090722,
                "tempo": 120.0
            },
            {
                "start_time": 26.877272727272725,
                "end_time": 27.05909090909091,
                "pitch": 31,
                "velocity": 80,
                "duration": 0.18181818181818343,
                "tempo": 120.0
            },
            {
                "start_time": 27.05909090909091,
                "end_time": 27.120454545454542,
                "pitch": 31,
                "velocity": 80,
                "duration": 0.061363636363633844,
                "tempo": 120.0
            },
            {
                "start_time": 27.238636363636363,
                "end_time": 27.40681818181818,
                "pitch": 31,
                "velocity": 80,
                "duration": 0.168181818181818,
                "tempo": 120.0
            },
            {
                "start_time": 27.40681818181818,
                "end_time": 27.49090909090909,
                "pitch": 31,
                "velocity": 80,
                "duration": 0.08409090909090722,
                "tempo": 120.0
            },
            {
                "start_time": 27.597727272727273,
                "end_time": 27.775,
                "pitch": 31,
                "velocity": 80,
                "duration": 0.17727272727272592,
                "tempo": 120.0
            },
            {
                "start_time": 27.777272727272727,
                "end_time": 27.83863636363636,
                "pitch": 31,
                "velocity": 80,
                "duration": 0.061363636363633844,
                "tempo": 120.0
            },
            {
                "start_time": 27.938636363636363,
                "end_time": 28.018181818181816,
                "pitch": 31,
                "velocity": 80,
                "duration": 0.07954545454545325,
                "tempo": 120.0
            },
            {
                "start_time": 28.118181818181817,
                "end_time": 28.48181818181818,
                "pitch": 31,
                "velocity": 80,
                "duration": 0.3636363636363633,
                "tempo": 120.0
            },
            {
                "start_time": 28.48181818181818,
                "end_time": 28.545454545454543,
                "pitch": 31,
                "velocity": 80,
                "duration": 0.0636363636363626,
                "tempo": 120.0
            },
            {
                "start_time": 28.64772727272727,
                "end_time": 28.827272727272724,
                "pitch": 31,
                "velocity": 80,
                "duration": 0.17954545454545467,
                "tempo": 120.0
            },
            {
                "start_time": 28.827272727272724,
                "end_time": 28.89090909090909,
                "pitch": 31,
                "velocity": 80,
                "duration": 0.06363636363636616,
                "tempo": 120.0
            },
            {
                "start_time": 29.00681818181818,
                "end_time": 29.09090909090909,
                "pitch": 31,
                "velocity": 80,
                "duration": 0.08409090909091077,
                "tempo": 120.0
            },
            {
                "start_time": 23.793181818181818,
                "end_time": 29.177272727272726,
                "pitch": 43,
                "velocity": 80,
                "duration": 5.384090909090908,
                "tempo": 120.0
            },
            {
                "start_time": 29.09090909090909,
                "end_time": 29.177272727272726,
                "pitch": 43,
                "velocity": 80,
                "duration": 0.08636363636363598,
                "tempo": 120.0
            },
            {
                "start_time": 29.177272727272726,
                "end_time": 29.261363636363637,
                "pitch": 31,
                "velocity": 80,
                "duration": 0.08409090909091077,
                "tempo": 120.0
            },
            {
                "start_time": 29.368181818181817,
                "end_time": 29.429545454545455,
                "pitch": 31,
                "velocity": 80,
                "duration": 0.0613636363636374,
                "tempo": 120.0
            },
            {
                "start_time": 29.545454545454543,
                "end_time": 29.60909090909091,
                "pitch": 31,
                "velocity": 80,
                "duration": 0.06363636363636616,
                "tempo": 120.0
            },
            {
                "start_time": 29.724999999999998,
                "end_time": 29.895454545454545,
                "pitch": 33,
                "velocity": 80,
                "duration": 0.17045454545454675,
                "tempo": 120.0
            },
            {
                "start_time": 29.895454545454545,
                "end_time": 29.979545454545452,
                "pitch": 33,
                "velocity": 80,
                "duration": 0.08409090909090722,
                "tempo": 120.0
            },
            {
                "start_time": 30.084090909090907,
                "end_time": 30.263636363636362,
                "pitch": 33,
                "velocity": 80,
                "duration": 0.17954545454545467,
                "tempo": 120.0
            },
            {
                "start_time": 30.263636363636362,
                "end_time": 30.327272727272724,
                "pitch": 33,
                "velocity": 80,
                "duration": 0.0636363636363626,
                "tempo": 120.0
            },
            {
                "start_time": 30.424999999999997,
                "end_time": 30.604545454545452,
                "pitch": 33,
                "velocity": 80,
                "duration": 0.17954545454545467,
                "tempo": 120.0
            },
            {
                "start_time": 30.604545454545452,
                "end_time": 30.668181818181818,
                "pitch": 33,
                "velocity": 80,
                "duration": 0.06363636363636616,
                "tempo": 120.0
            },
            {
                "start_time": 30.784090909090907,
                "end_time": 30.849999999999998,
                "pitch": 33,
                "velocity": 80,
                "duration": 0.06590909090909136,
                "tempo": 120.0
            },
            {
                "start_time": 30.972727272727273,
                "end_time": 31.32272727272727,
                "pitch": 33,
                "velocity": 80,
                "duration": 0.34999999999999787,
                "tempo": 120.0
            },
            {
                "start_time": 31.325,
                "end_time": 31.386363636363633,
                "pitch": 33,
                "velocity": 80,
                "duration": 0.061363636363633844,
                "tempo": 120.0
            },
            {
                "start_time": 31.502272727272725,
                "end_time": 31.670454545454543,
                "pitch": 33,
                "velocity": 80,
                "duration": 0.168181818181818,
                "tempo": 120.0
            },
            {
                "start_time": 31.670454545454543,
                "end_time": 31.752272727272725,
                "pitch": 33,
                "velocity": 80,
                "duration": 0.08181818181818201,
                "tempo": 120.0
            },
            {
                "start_time": 31.854545454545452,
                "end_time": 31.95,
                "pitch": 33,
                "velocity": 80,
                "duration": 0.09545454545454746,
                "tempo": 120.0
            },
            {
                "start_time": 31.95,
                "end_time": 32.03181818181818,
                "pitch": 45,
                "velocity": 80,
                "duration": 0.08181818181818201,
                "tempo": 120.0
            },
            {
                "start_time": 32.03409090909091,
                "end_time": 32.095454545454544,
                "pitch": 33,
                "velocity": 80,
                "duration": 0.0613636363636374,
                "tempo": 120.0
            },
            {
                "start_time": 32.211363636363636,
                "end_time": 32.277272727272724,
                "pitch": 33,
                "velocity": 80,
                "duration": 0.06590909090908781,
                "tempo": 120.0
            },
            {
                "start_time": 32.38409090909091,
                "end_time": 32.465909090909086,
                "pitch": 33,
                "velocity": 80,
                "duration": 0.08181818181817846,
                "tempo": 120.0
            },
            {
                "start_time": 32.57272727272727,
                "end_time": 32.752272727272725,
                "pitch": 33,
                "velocity": 80,
                "duration": 0.17954545454545467,
                "tempo": 120.0
            },
            {
                "start_time": 32.752272727272725,
                "end_time": 32.81363636363636,
                "pitch": 33,
                "velocity": 80,
                "duration": 0.0613636363636374,
                "tempo": 120.0
            },
            {
                "start_time": 32.913636363636364,
                "end_time": 33.09318181818182,
                "pitch": 33,
                "velocity": 80,
                "duration": 0.17954545454545467,
                "tempo": 120.0
            },
            {
                "start_time": 33.09318181818182,
                "end_time": 33.154545454545456,
                "pitch": 33,
                "velocity": 80,
                "duration": 0.0613636363636374,
                "tempo": 120.0
            },
            {
                "start_time": 33.27045454545454,
                "end_time": 33.45909090909091,
                "pitch": 33,
                "velocity": 80,
                "duration": 0.1886363636363697,
                "tempo": 120.0
            },
            {
                "start_time": 33.45909090909091,
                "end_time": 33.527272727272724,
                "pitch": 33,
                "velocity": 80,
                "duration": 0.06818181818181301,
                "tempo": 120.0
            },
            {
                "start_time": 33.63181818181818,
                "end_time": 33.711363636363636,
                "pitch": 33,
                "velocity": 80,
                "duration": 0.07954545454545325,
                "tempo": 120.0
            },
            {
                "start_time": 33.81136363636364,
                "end_time": 34.15909090909091,
                "pitch": 33,
                "velocity": 80,
                "duration": 0.3477272727272691,
                "tempo": 120.0
            },
            {
                "start_time": 34.16136363636363,
                "end_time": 34.34772727272727,
                "pitch": 45,
                "velocity": 80,
                "duration": 0.1863636363636374,
                "tempo": 120.0
            },
            {
                "start_time": 34.35,
                "end_time": 34.529545454545456,
                "pitch": 32,
                "velocity": 80,
                "duration": 0.17954545454545467,
                "tempo": 120.0
            },
            {
                "start_time": 34.529545454545456,
                "end_time": 34.70909090909091,
                "pitch": 44,
                "velocity": 80,
                "duration": 0.17954545454545467,
                "tempo": 120.0
            },
            {
                "start_time": 34.70909090909091,
                "end_time": 34.79090909090909,
                "pitch": 31,
                "velocity": 80,
                "duration": 0.08181818181817846,
                "tempo": 120.0
            },
            {
                "start_time": 34.79090909090909,
                "end_time": 34.875,
                "pitch": 43,
                "velocity": 80,
                "duration": 0.08409090909091077,
                "tempo": 120.0
            },
            {
                "start_time": 34.875,
                "end_time": 34.975,
                "pitch": 30,
                "velocity": 80,
                "duration": 0.10000000000000142,
                "tempo": 120.0
            },
            {
                "start_time": 34.975,
                "end_time": 35.059090909090905,
                "pitch": 42,
                "velocity": 80,
                "duration": 0.08409090909090366,
                "tempo": 120.0
            },
            {
                "start_time": 35.059090909090905,
                "end_time": 35.14090909090909,
                "pitch": 29,
                "velocity": 80,
                "duration": 0.08181818181818556,
                "tempo": 120.0
            },
            {
                "start_time": 35.14090909090909,
                "end_time": 35.24318181818182,
                "pitch": 41,
                "velocity": 80,
                "duration": 0.10227272727272663,
                "tempo": 120.0
            },
            {
                "start_time": 35.24318181818182,
                "end_time": 35.324999999999996,
                "pitch": 28,
                "velocity": 80,
                "duration": 0.08181818181817846,
                "tempo": 120.0
            },
            {
                "start_time": 35.32727272727273,
                "end_time": 35.413636363636364,
                "pitch": 40,
                "velocity": 80,
                "duration": 0.08636363636363598,
                "tempo": 120.0
            },
            {
                "start_time": 35.413636363636364,
                "end_time": 35.590909090909086,
                "pitch": 41,
                "velocity": 80,
                "duration": 0.17727272727272236,
                "tempo": 120.0
            },
            {
                "start_time": 35.590909090909086,
                "end_time": 35.652272727272724,
                "pitch": 41,
                "velocity": 80,
                "duration": 0.0613636363636374,
                "tempo": 120.0
            },
            {
                "start_time": 35.77045454545454,
                "end_time": 35.95227272727273,
                "pitch": 41,
                "velocity": 80,
                "duration": 0.18181818181818699,
                "tempo": 120.0
            },
            {
                "start_time": 35.95227272727273,
                "end_time": 36.018181818181816,
                "pitch": 41,
                "velocity": 80,
                "duration": 0.06590909090908781,
                "tempo": 120.0
            },
            {
                "start_time": 36.12272727272727,
                "end_time": 36.3,
                "pitch": 41,
                "velocity": 80,
                "duration": 0.17727272727272947,
                "tempo": 120.0
            },
            {
                "start_time": 36.3,
                "end_time": 36.36363636363636,
                "pitch": 41,
                "velocity": 80,
                "duration": 0.0636363636363626,
                "tempo": 120.0
            },
            {
                "start_time": 36.47954545454545,
                "end_time": 36.54545454545455,
                "pitch": 41,
                "velocity": 80,
                "duration": 0.06590909090909491,
                "tempo": 120.0
            },
            {
                "start_time": 36.65,
                "end_time": 37.018181818181816,
                "pitch": 41,
                "velocity": 80,
                "duration": 0.3681818181818173,
                "tempo": 120.0
            },
            {
                "start_time": 37.018181818181816,
                "end_time": 37.08181818181818,
                "pitch": 41,
                "velocity": 80,
                "duration": 0.0636363636363626,
                "tempo": 120.0
            },
            {
                "start_time": 37.19772727272727,
                "end_time": 37.36818181818182,
                "pitch": 41,
                "velocity": 80,
                "duration": 0.17045454545454675,
                "tempo": 120.0
            },
            {
                "start_time": 37.36818181818182,
                "end_time": 37.45227272727273,
                "pitch": 41,
                "velocity": 80,
                "duration": 0.08409090909091077,
                "tempo": 120.0
            },
            {
                "start_time": 37.55681818181818,
                "end_time": 37.63636363636363,
                "pitch": 41,
                "velocity": 80,
                "duration": 0.07954545454545325,
                "tempo": 120.0
            },
            {
                "start_time": 37.63863636363636,
                "end_time": 37.736363636363635,
                "pitch": 53,
                "velocity": 80,
                "duration": 0.09772727272727622,
                "tempo": 120.0
            },
            {
                "start_time": 37.736363636363635,
                "end_time": 37.8,
                "pitch": 41,
                "velocity": 80,
                "duration": 0.0636363636363626,
                "tempo": 120.0
            },
            {
                "start_time": 37.9,
                "end_time": 37.97727272727273,
                "pitch": 41,
                "velocity": 80,
                "duration": 0.07727272727272805,
                "tempo": 120.0
            },
            {
                "start_time": 38.07727272727273,
                "end_time": 38.14090909090909,
                "pitch": 41,
                "velocity": 80,
                "duration": 0.0636363636363626,
                "tempo": 120.0
            },
            {
                "start_time": 38.25681818181818,
                "end_time": 38.44090909090909,
                "pitch": 43,
                "velocity": 80,
                "duration": 0.18409090909090509,
                "tempo": 120.0
            },
            {
                "start_time": 38.44090909090909,
                "end_time": 38.50681818181818,
                "pitch": 43,
                "velocity": 80,
                "duration": 0.06590909090909491,
                "tempo": 120.0
            },
            {
                "start_time": 38.60909090909091,
                "end_time": 38.79090909090909,
                "pitch": 43,
                "velocity": 80,
                "duration": 0.18181818181817988,
                "tempo": 120.0
            },
            {
                "start_time": 38.793181818181814,
                "end_time": 38.85681818181818,
                "pitch": 43,
                "velocity": 80,
                "duration": 0.0636363636363626,
                "tempo": 120.0
            },
            {
                "start_time": 38.97727272727273,
                "end_time": 39.143181818181816,
                "pitch": 43,
                "velocity": 80,
                "duration": 0.16590909090908923,
                "tempo": 120.0
            },
            {
                "start_time": 39.14545454545454,
                "end_time": 39.22727272727273,
                "pitch": 43,
                "velocity": 80,
                "duration": 0.08181818181818556,
                "tempo": 120.0
            },
            {
                "start_time": 39.32954545454545,
                "end_time": 39.39090909090909,
                "pitch": 43,
                "velocity": 80,
                "duration": 0.0613636363636374,
                "tempo": 120.0
            },
            {
                "start_time": 39.50909090909091,
                "end_time": 39.85909090909091,
                "pitch": 43,
                "velocity": 80,
                "duration": 0.3500000000000014,
                "tempo": 120.0
            },
            {
                "start_time": 39.85909090909091,
                "end_time": 39.94090909090909,
                "pitch": 43,
                "velocity": 80,
                "duration": 0.08181818181817846,
                "tempo": 120.0
            },
            {
                "start_time": 40.04772727272727,
                "end_time": 40.225,
                "pitch": 43,
                "velocity": 80,
                "duration": 0.17727272727272947,
                "tempo": 120.0
            },
            {
                "start_time": 40.22727272727273,
                "end_time": 40.288636363636364,
                "pitch": 43,
                "velocity": 80,
                "duration": 0.0613636363636374,
                "tempo": 120.0
            },
            {
                "start_time": 40.38863636363636,
                "end_time": 40.48409090909091,
                "pitch": 43,
                "velocity": 80,
                "duration": 0.09545454545455101,
                "tempo": 120.0
            },
            {
                "start_time": 40.48409090909091,
                "end_time": 40.56818181818181,
                "pitch": 55,
                "velocity": 80,
                "duration": 0.08409090909090366,
                "tempo": 120.0
            },
            {
                "start_time": 40.56818181818181,
                "end_time": 40.62954545454545,
                "pitch": 43,
                "velocity": 80,
                "duration": 0.0613636363636374,
                "tempo": 120.0
            },
            {
                "start_time": 40.74772727272727,
                "end_time": 40.81363636363636,
                "pitch": 43,
                "velocity": 80,
                "duration": 0.06590909090909491,
                "tempo": 120.0
            },
            {
                "start_time": 40.93636363636364,
                "end_time": 41.002272727272725,
                "pitch": 43,
                "velocity": 80,
                "duration": 0.06590909090908781,
                "tempo": 120.0
            },
            {
                "start_time": 41.10681818181818,
                "end_time": 41.28636363636363,
                "pitch": 45,
                "velocity": 80,
                "duration": 0.17954545454545467,
                "tempo": 120.0
            },
            {
                "start_time": 41.28636363636363,
                "end_time": 41.34772727272727,
                "pitch": 45,
                "velocity": 80,
                "duration": 0.0613636363636374,
                "tempo": 120.0
            },
            {
                "start_time": 41.46363636363636,
                "end_time": 41.63636363636363,
                "pitch": 45,
                "velocity": 80,
                "duration": 0.17272727272727195,
                "tempo": 120.0
            },
            {
                "start_time": 41.63636363636363,
                "end_time": 41.720454545454544,
                "pitch": 45,
                "velocity": 80,
                "duration": 0.08409090909091077,
                "tempo": 120.0
            },
            {
                "start_time": 41.824999999999996,
                "end_time": 42.002272727272725,
                "pitch": 45,
                "velocity": 80,
                "duration": 0.17727272727272947,
                "tempo": 120.0
            },
            {
                "start_time": 42.00454545454545,
                "end_time": 42.06590909090909,
                "pitch": 45,
                "velocity": 80,
                "duration": 0.0613636363636374,
                "tempo": 120.0
            },
            {
                "start_time": 42.184090909090905,
                "end_time": 42.24772727272727,
                "pitch": 45,
                "velocity": 80,
                "duration": 0.0636363636363626,
                "tempo": 120.0
            },
            {
                "start_time": 42.35,
                "end_time": 42.71363636363636,
                "pitch": 45,
                "velocity": 80,
                "duration": 0.36363636363635976,
                "tempo": 120.0
            },
            {
                "start_time": 42.71363636363636,
                "end_time": 42.775,
                "pitch": 45,
                "velocity": 80,
                "duration": 0.0613636363636374,
                "tempo": 120.0
            },
            {
                "start_time": 42.875,
                "end_time": 43.059090909090905,
                "pitch": 45,
                "velocity": 80,
                "duration": 0.18409090909090509,
                "tempo": 120.0
            },
            {
                "start_time": 43.06136363636364,
                "end_time": 43.125,
                "pitch": 45,
                "velocity": 80,
                "duration": 0.0636363636363626,
                "tempo": 120.0
            },
            {
                "start_time": 43.24318181818182,
                "end_time": 43.32727272727273,
                "pitch": 45,
                "velocity": 80,
                "duration": 0.08409090909091077,
                "tempo": 120.0
            },
            {
                "start_time": 43.32727272727273,
                "end_time": 43.42727272727272,
                "pitch": 57,
                "velocity": 80,
                "duration": 0.09999999999999432,
                "tempo": 120.0
            },
            {
                "start_time": 43.429545454545455,
                "end_time": 43.49318181818182,
                "pitch": 45,
                "velocity": 80,
                "duration": 0.0636363636363626,
                "tempo": 120.0
            },
            {
                "start_time": 43.595454545454544,
                "end_time": 43.675,
                "pitch": 45,
                "velocity": 80,
                "duration": 0.07954545454545325,
                "tempo": 120.0
            },
            {
                "start_time": 43.775,
                "end_time": 43.83863636363636,
                "pitch": 45,
                "velocity": 80,
                "duration": 0.0636363636363626,
                "tempo": 120.0
            },
            {
                "start_time": 43.95454545454545,
                "end_time": 44.125,
                "pitch": 45,
                "velocity": 80,
                "duration": 0.17045454545454675,
                "tempo": 120.0
            },
            {
                "start_time": 44.125,
                "end_time": 44.209090909090904,
                "pitch": 45,
                "velocity": 80,
                "duration": 0.08409090909090366,
                "tempo": 120.0
            },
            {
                "start_time": 44.31363636363636,
                "end_time": 44.49318181818182,
                "pitch": 45,
                "velocity": 80,
                "duration": 0.17954545454545467,
                "tempo": 120.0
            },
            {
                "start_time": 44.49318181818182,
                "end_time": 44.55681818181818,
                "pitch": 45,
                "velocity": 80,
                "duration": 0.0636363636363626,
                "tempo": 120.0
            },
            {
                "start_time": 44.67045454545455,
                "end_time": 44.84318181818182,
                "pitch": 45,
                "velocity": 80,
                "duration": 0.17272727272727195,
                "tempo": 120.0
            },
            {
                "start_time": 44.84318181818182,
                "end_time": 44.92727272727272,
                "pitch": 45,
                "velocity": 80,
                "duration": 0.08409090909090366,
                "tempo": 120.0
            },
            {
                "start_time": 45.03181818181818,
                "end_time": 45.095454545454544,
                "pitch": 45,
                "velocity": 80,
                "duration": 0.0636363636363626,
                "tempo": 120.0
            },
            {
                "start_time": 45.211363636363636,
                "end_time": 45.55227272727272,
                "pitch": 45,
                "velocity": 80,
                "duration": 0.3409090909090864,
                "tempo": 120.0
            },
            {
                "start_time": 45.55227272727272,
                "end_time": 45.72954545454545,
                "pitch": 57,
                "velocity": 80,
                "duration": 0.17727272727272947,
                "tempo": 120.0
            },
            {
                "start_time": 45.73181818181818,
                "end_time": 45.91590909090909,
                "pitch": 44,
                "velocity": 80,
                "duration": 0.1840909090909122,
                "tempo": 120.0
            },
            {
                "start_time": 45.91590909090909,
                "end_time": 46.084090909090904,
                "pitch": 56,
                "velocity": 80,
                "duration": 0.16818181818181444,
                "tempo": 120.0
            },
            {
                "start_time": 46.084090909090904,
                "end_time": 46.179545454545455,
                "pitch": 43,
                "velocity": 80,
                "duration": 0.09545454545455101,
                "tempo": 120.0
            },
            {
                "start_time": 46.179545454545455,
                "end_time": 46.26136363636363,
                "pitch": 55,
                "velocity": 80,
                "duration": 0.08181818181817846,
                "tempo": 120.0
            },
            {
                "start_time": 46.26136363636363,
                "end_time": 46.340909090909086,
                "pitch": 42,
                "velocity": 80,
                "duration": 0.07954545454545325,
                "tempo": 120.0
            },
            {
                "start_time": 46.34318181818182,
                "end_time": 46.44090909090909,
                "pitch": 54,
                "velocity": 80,
                "duration": 0.09772727272726911,
                "tempo": 120.0
            },
            {
                "start_time": 46.44090909090909,
                "end_time": 46.525,
                "pitch": 41,
                "velocity": 80,
                "duration": 0.08409090909091077,
                "tempo": 120.0
            },
            {
                "start_time": 46.525,
                "end_time": 46.611363636363635,
                "pitch": 53,
                "velocity": 80,
                "duration": 0.08636363636363598,
                "tempo": 120.0
            },
            {
                "start_time": 46.611363636363635,
                "end_time": 46.71363636363636,
                "pitch": 40,
                "velocity": 80,
                "duration": 0.10227272727272663,
                "tempo": 120.0
            },
            {
                "start_time": 46.71363636363636,
                "end_time": 46.804545454545455,
                "pitch": 52,
                "velocity": 80,
                "duration": 0.09090909090909349,
                "tempo": 120.0
            },
            {
                "start_time": 46.804545454545455,
                "end_time": 46.98409090909091,
                "pitch": 29,
                "velocity": 80,
                "duration": 0.17954545454545467,
                "tempo": 120.0
            },
            {
                "start_time": 46.98409090909091,
                "end_time": 47.018181818181816,
                "pitch": 41,
                "velocity": 80,
                "duration": 0.03409090909090651,
                "tempo": 120.0
            }
        ]
    }
}