{
    "track_id": "13 Staff Roll",
    "mood": "happy",
    "instruments": {
        "Electric Guitar (clean)": [
            {
                "start_time": 0.04772727272727272,
                "end_time": 0.2409090909090909,
                "pitch": 31,
                "velocity": 101,
                "duration": 0.19318181818181818,
                "tempo": 120.0
            },
            {
                "start_time": 0.2863636363636364,
                "end_time": 0.36136363636363633,
                "pitch": 31,
                "velocity": 101,
                "duration": 0.07499999999999996,
                "tempo": 120.0
            },
            {
                "start_time": 0.4068181818181818,
                "end_time": 0.6022727272727273,
                "pitch": 31,
                "velocity": 101,
                "duration": 0.1954545454545455,
                "tempo": 120.0
            },
            {
                "start_time": 0.6477272727272727,
                "end_time": 0.7204545454545455,
                "pitch": 31,
                "velocity": 101,
                "duration": 0.07272727272727275,
                "tempo": 120.0
            },
            {
                "start_time": 0.7659090909090909,
                "end_time": 0.9613636363636363,
                "pitch": 31,
                "velocity": 101,
                "duration": 0.19545454545454544,
                "tempo": 120.0
            },
            {
                "start_time": 1.0068181818181818,
                "end_time": 1.0818181818181818,
                "pitch": 31,
                "velocity": 101,
                "duration": 0.07499999999999996,
                "tempo": 120.0
            },
            {
                "start_time": 1.1272727272727272,
                "end_time": 1.3204545454545453,
                "pitch": 31,
                "velocity": 101,
                "duration": 0.19318181818181812,
                "tempo": 120.0
            },
            {
                "start_time": 1.3659090909090907,
                "end_time": 1.440909090909091,
                "pitch": 31,
                "velocity": 101,
                "duration": 0.07500000000000018,
                "tempo": 120.0
            },
            {
                "start_time": 1.4863636363636363,
                "end_time": 1.6818181818181817,
                "pitch": 31,
                "velocity": 101,
                "duration": 0.19545454545454533,
                "tempo": 120.0
            },
            {
                "start_time": 1.7272727272727273,
                "end_time": 1.8022727272727272,
                "pitch": 31,
                "velocity": 101,
                "duration": 0.07499999999999996,
                "tempo": 120.0
            },
            {
                "start_time": 1.8477272727272727,
                "end_time": 2.040909090909091,
                "pitch": 31,
                "velocity": 101,
                "duration": 0.19318181818181834,
                "tempo": 120.0
            },
            {
                "start_time": 2.0863636363636364,
                "end_time": 2.161363636363636,
                "pitch": 31,
                "velocity": 101,
                "duration": 0.07499999999999973,
                "tempo": 120.0
            },
            {
                "start_time": 2.2068181818181816,
                "end_time": 2.4022727272727273,
                "pitch": 31,
                "velocity": 101,
                "duration": 0.19545454545454577,
                "tempo": 120.0
            },
            {
                "start_time": 2.4454545454545453,
                "end_time": 2.5204545454545455,
                "pitch": 31,
                "velocity": 101,
                "duration": 0.07500000000000018,
                "tempo": 120.0
            },
            {
                "start_time": 2.565909090909091,
                "end_time": 2.7545454545454544,
                "pitch": 31,
                "velocity": 101,
                "duration": 0.1886363636363635,
                "tempo": 120.0
            },
            {
                "start_time": 2.8,
                "end_time": 2.8727272727272726,
                "pitch": 31,
                "velocity": 101,
                "duration": 0.07272727272727275,
                "tempo": 120.0
            },
            {
                "start_time": 2.9159090909090906,
                "end_time": 3.1159090909090907,
                "pitch": 31,
                "velocity": 101,
                "duration": 0.20000000000000018,
                "tempo": 120.0
            },
            {
                "start_time": 3.161363636363636,
                "end_time": 3.2386363636363633,
                "pitch": 31,
                "velocity": 101,
                "duration": 0.07727272727272716,
                "tempo": 120.0
            },
            {
                "start_time": 3.2840909090909087,
                "end_time": 3.4727272727272727,
                "pitch": 31,
                "velocity": 101,
                "duration": 0.18863636363636394,
                "tempo": 120.0
            },
            {
                "start_time": 3.5159090909090907,
                "end_time": 3.5886363636363634,
                "pitch": 31,
                "velocity": 101,
                "duration": 0.07272727272727275,
                "tempo": 120.0
            },
            {
                "start_time": 3.634090909090909,
                "end_time": 3.827272727272727,
                "pitch": 31,
                "velocity": 101,
                "duration": 0.19318181818181834,
                "tempo": 120.0
            },
            {
                "start_time": 3.8727272727272726,
                "end_time": 3.9477272727272728,
                "pitch": 31,
                "velocity": 101,
                "duration": 0.07500000000000018,
                "tempo": 120.0
            },
            {
                "start_time": 3.993181818181818,
                "end_time": 4.1886363636363635,
                "pitch": 31,
                "velocity": 101,
                "duration": 0.19545454545454533,
                "tempo": 120.0
            },
            {
                "start_time": 4.2340909090909085,
                "end_time": 4.309090909090909,
                "pitch": 31,
                "velocity": 101,
                "duration": 0.07500000000000018,
                "tempo": 120.0
            },
            {
                "start_time": 4.3545454545454545,
                "end_time": 4.547727272727273,
                "pitch": 31,
                "velocity": 101,
                "duration": 0.19318181818181834,
                "tempo": 120.0
            },
            {
                "start_time": 4.593181818181818,
                "end_time": 4.668181818181818,
                "pitch": 31,
                "velocity": 101,
                "duration": 0.07500000000000018,
                "tempo": 120.0
            },
            {
                "start_time": 4.713636363636364,
                "end_time": 4.909090909090909,
                "pitch": 31,
                "velocity": 101,
                "duration": 0.19545454545454533,
                "tempo": 120.0
            },
            {
                "start_time": 4.952272727272727,
                "end_time": 5.027272727272727,
                "pitch": 31,
                "velocity": 101,
                "duration": 0.07500000000000018,
                "tempo": 120.0
            },
            {
                "start_time": 5.072727272727272,
                "end_time": 5.261363636363636,
                "pitch": 31,
                "velocity": 101,
                "duration": 0.1886363636363635,
                "tempo": 120.0
            },
            {
                "start_time": 5.306818181818182,
                "end_time": 5.379545454545454,
                "pitch": 31,
                "velocity": 101,
                "duration": 0.07272727272727231,
                "tempo": 120.0
            },
            {
                "start_time": 5.422727272727273,
                "end_time": 5.618181818181818,
                "pitch": 31,
                "velocity": 101,
                "duration": 0.19545454545454533,
                "tempo": 120.0
            },
            {
                "start_time": 5.661363636363636,
                "end_time": 5.736363636363636,
                "pitch": 31,
                "velocity": 101,
                "duration": 0.07500000000000018,
                "tempo": 120.0
            },
            {
                "start_time": 5.781818181818181,
                "end_time": 5.9818181818181815,
                "pitch": 31,
                "velocity": 101,
                "duration": 0.20000000000000018,
                "tempo": 120.0
            },
            {
                "start_time": 6.027272727272727,
                "end_time": 6.1045454545454545,
                "pitch": 31,
                "velocity": 101,
                "duration": 0.07727272727272716,
                "tempo": 120.0
            },
            {
                "start_time": 6.152272727272727,
                "end_time": 6.340909090909091,
                "pitch": 31,
                "velocity": 101,
                "duration": 0.1886363636363635,
                "tempo": 120.0
            },
            {
                "start_time": 6.384090909090909,
                "end_time": 6.456818181818181,
                "pitch": 31,
                "velocity": 101,
                "duration": 0.07272727272727231,
                "tempo": 120.0
            },
            {
                "start_time": 6.5,
                "end_time": 6.695454545454545,
                "pitch": 31,
                "velocity": 101,
                "duration": 0.19545454545454533,
                "tempo": 120.0
            },
            {
                "start_time": 6.74090909090909,
                "end_time": 6.8159090909090905,
                "pitch": 31,
                "velocity": 101,
                "duration": 0.07500000000000018,
                "tempo": 120.0
            },
            {
                "start_time": 6.861363636363636,
                "end_time": 7.054545454545454,
                "pitch": 31,
                "velocity": 101,
                "duration": 0.19318181818181746,
                "tempo": 120.0
            },
            {
                "start_time": 7.1,
                "end_time": 7.175,
                "pitch": 31,
                "velocity": 101,
                "duration": 0.07500000000000018,
                "tempo": 120.0
            },
            {
                "start_time": 7.220454545454545,
                "end_time": 7.41590909090909,
                "pitch": 31,
                "velocity": 101,
                "duration": 0.19545454545454533,
                "tempo": 120.0
            },
            {
                "start_time": 7.461363636363636,
                "end_time": 7.534090909090908,
                "pitch": 31,
                "velocity": 101,
                "duration": 0.07272727272727231,
                "tempo": 120.0
            },
            {
                "start_time": 7.579545454545454,
                "end_time": 7.768181818181818,
                "pitch": 31,
                "velocity": 101,
                "duration": 0.1886363636363635,
                "tempo": 120.0
            },
            {
                "start_time": 7.8136363636363635,
                "end_time": 7.886363636363636,
                "pitch": 31,
                "velocity": 101,
                "duration": 0.07272727272727231,
                "tempo": 120.0
            },
            {
                "start_time": 7.929545454545454,
                "end_time": 8.125,
                "pitch": 31,
                "velocity": 101,
                "duration": 0.1954545454545462,
                "tempo": 120.0
            },
            {
                "start_time": 8.170454545454545,
                "end_time": 8.245454545454544,
                "pitch": 31,
                "velocity": 101,
                "duration": 0.07499999999999929,
                "tempo": 120.0
            },
            {
                "start_time": 8.290909090909091,
                "end_time": 8.48409090909091,
                "pitch": 31,
                "velocity": 101,
                "duration": 0.19318181818181834,
                "tempo": 120.0
            },
            {
                "start_time": 8.529545454545454,
                "end_time": 8.604545454545454,
                "pitch": 31,
                "velocity": 101,
                "duration": 0.07499999999999929,
                "tempo": 120.0
            },
            {
                "start_time": 8.65,
                "end_time": 8.847727272727273,
                "pitch": 31,
                "velocity": 101,
                "duration": 0.1977272727272723,
                "tempo": 120.0
            },
            {
                "start_time": 8.895454545454545,
                "end_time": 8.972727272727273,
                "pitch": 31,
                "velocity": 101,
                "duration": 0.07727272727272805,
                "tempo": 120.0
            },
            {
                "start_time": 9.018181818181818,
                "end_time": 9.206818181818182,
                "pitch": 31,
                "velocity": 101,
                "duration": 0.18863636363636438,
                "tempo": 120.0
            },
            {
                "start_time": 9.25,
                "end_time": 9.322727272727272,
                "pitch": 31,
                "velocity": 101,
                "duration": 0.07272727272727231,
                "tempo": 120.0
            },
            {
                "start_time": 9.368181818181817,
                "end_time": 9.561363636363636,
                "pitch": 31,
                "velocity": 101,
                "duration": 0.19318181818181834,
                "tempo": 120.0
            },
            {
                "start_time": 9.60681818181818,
                "end_time": 9.681818181818182,
                "pitch": 31,
                "velocity": 101,
                "duration": 0.07500000000000107,
                "tempo": 120.0
            },
            {
                "start_time": 9.727272727272727,
                "end_time": 9.922727272727272,
                "pitch": 31,
                "velocity": 101,
                "duration": 0.19545454545454533,
                "tempo": 120.0
            },
            {
                "start_time": 9.968181818181817,
                "end_time": 10.043181818181818,
                "pitch": 31,
                "velocity": 101,
                "duration": 0.07500000000000107,
                "tempo": 120.0
            },
            {
                "start_time": 10.088636363636363,
                "end_time": 10.281818181818181,
                "pitch": 43,
                "velocity": 101,
                "duration": 0.19318181818181834,
                "tempo": 120.0
            },
            {
                "start_time": 10.327272727272726,
                "end_time": 10.402272727272727,
                "pitch": 43,
                "velocity": 101,
                "duration": 0.07500000000000107,
                "tempo": 120.0
            },
            {
                "start_time": 10.447727272727272,
                "end_time": 10.643181818181818,
                "pitch": 41,
                "velocity": 101,
                "duration": 0.19545454545454533,
                "tempo": 120.0
            },
            {
                "start_time": 10.686363636363636,
                "end_time": 10.938636363636363,
                "pitch": 41,
                "velocity": 101,
                "duration": 0.252272727272727,
                "tempo": 120.0
            },
            {
                "start_time": 11.040909090909091,
                "end_time": 11.113636363636363,
                "pitch": 41,
                "velocity": 101,
                "duration": 0.07272727272727231,
                "tempo": 120.0
            },
            {
                "start_time": 11.156818181818181,
                "end_time": 11.23181818181818,
                "pitch": 38,
                "velocity": 101,
                "duration": 0.07499999999999929,
                "tempo": 120.0
            },
            {
                "start_time": 11.277272727272727,
                "end_time": 11.352272727272727,
                "pitch": 31,
                "velocity": 101,
                "duration": 0.07499999999999929,
                "tempo": 120.0
            },
            {
                "start_time": 10.447727272727272,
                "end_time": 11.397727272727272,
                "pitch": 0,
                "velocity": 101,
                "duration": 0.9499999999999993,
                "tempo": 120.0
            },
            {
                "start_time": 11.397727272727272,
                "end_time": 11.470454545454546,
                "pitch": 38,
                "velocity": 101,
                "duration": 0.07272727272727408,
                "tempo": 120.0
            },
            {
                "start_time": 11.277272727272727,
                "end_time": 11.51590909090909,
                "pitch": 41,
                "velocity": 101,
                "duration": 0.2386363636363633,
                "tempo": 120.0
            },
            {
                "start_time": 11.51590909090909,
                "end_time": 11.71590909090909,
                "pitch": 31,
                "velocity": 101,
                "duration": 0.1999999999999993,
                "tempo": 120.0
            },
            {
                "start_time": 11.761363636363635,
                "end_time": 11.838636363636363,
                "pitch": 31,
                "velocity": 101,
                "duration": 0.07727272727272805,
                "tempo": 120.0
            },
            {
                "start_time": 11.884090909090908,
                "end_time": 12.075,
                "pitch": 31,
                "velocity": 101,
                "duration": 0.19090909090909136,
                "tempo": 120.0
            },
            {
                "start_time": 12.118181818181817,
                "end_time": 12.19090909090909,
                "pitch": 31,
                "velocity": 101,
                "duration": 0.07272727272727231,
                "tempo": 120.0
            },
            {
                "start_time": 12.23409090909091,
                "end_time": 12.429545454545455,
                "pitch": 31,
                "velocity": 101,
                "duration": 0.19545454545454533,
                "tempo": 120.0
            },
            {
                "start_time": 12.475,
                "end_time": 12.549999999999999,
                "pitch": 31,
                "velocity": 101,
                "duration": 0.07499999999999929,
                "tempo": 120.0
            },
            {
                "start_time": 12.595454545454546,
                "end_time": 12.788636363636362,
                "pitch": 31,
                "velocity": 101,
                "duration": 0.19318181818181657,
                "tempo": 120.0
            },
            {
                "start_time": 12.834090909090909,
                "end_time": 12.909090909090908,
                "pitch": 31,
                "velocity": 101,
                "duration": 0.07499999999999929,
                "tempo": 120.0
            },
            {
                "start_time": 12.954545454545453,
                "end_time": 13.149999999999999,
                "pitch": 31,
                "velocity": 101,
                "duration": 0.19545454545454533,
                "tempo": 120.0
            },
            {
                "start_time": 13.195454545454545,
                "end_time": 13.268181818181818,
                "pitch": 31,
                "velocity": 101,
                "duration": 0.07272727272727231,
                "tempo": 120.0
            },
            {
                "start_time": 13.313636363636363,
                "end_time": 13.504545454545454,
                "pitch": 31,
                "velocity": 101,
                "duration": 0.19090909090909136,
                "tempo": 120.0
            },
            {
                "start_time": 13.547727272727272,
                "end_time": 13.620454545454544,
                "pitch": 31,
                "velocity": 101,
                "duration": 0.07272727272727231,
                "tempo": 120.0
            },
            {
                "start_time": 13.663636363636362,
                "end_time": 13.859090909090908,
                "pitch": 31,
                "velocity": 101,
                "duration": 0.19545454545454533,
                "tempo": 120.0
            },
            {
                "start_time": 13.904545454545454,
                "end_time": 13.979545454545454,
                "pitch": 31,
                "velocity": 101,
                "duration": 0.07499999999999929,
                "tempo": 120.0
            },
            {
                "start_time": 14.022727272727272,
                "end_time": 14.218181818181817,
                "pitch": 31,
                "velocity": 101,
                "duration": 0.19545454545454533,
                "tempo": 120.0
            },
            {
                "start_time": 14.263636363636364,
                "end_time": 14.338636363636363,
                "pitch": 31,
                "velocity": 101,
                "duration": 0.07499999999999929,
                "tempo": 120.0
            },
            {
                "start_time": 14.384090909090908,
                "end_time": 14.577272727272726,
                "pitch": 31,
                "velocity": 101,
                "duration": 0.19318181818181834,
                "tempo": 120.0
            },
            {
                "start_time": 14.622727272727271,
                "end_time": 14.697727272727272,
                "pitch": 31,
                "velocity": 101,
                "duration": 0.07500000000000107,
                "tempo": 120.0
            },
            {
                "start_time": 14.743181818181817,
                "end_time": 14.938636363636363,
                "pitch": 31,
                "velocity": 101,
                "duration": 0.19545454545454533,
                "tempo": 120.0
            },
            {
                "start_time": 14.984090909090908,
                "end_time": 15.059090909090909,
                "pitch": 31,
                "velocity": 101,
                "duration": 0.07500000000000107,
                "tempo": 120.0
            },
            {
                "start_time": 15.104545454545454,
                "end_time": 15.297727272727272,
                "pitch": 31,
                "velocity": 101,
                "duration": 0.19318181818181834,
                "tempo": 120.0
            },
            {
                "start_time": 15.343181818181817,
                "end_time": 15.418181818181818,
                "pitch": 31,
                "velocity": 101,
                "duration": 0.07500000000000107,
                "tempo": 120.0
            },
            {
                "start_time": 15.463636363636363,
                "end_time": 15.659090909090908,
                "pitch": 31,
                "velocity": 101,
                "duration": 0.19545454545454533,
                "tempo": 120.0
            },
            {
                "start_time": 15.702272727272726,
                "end_time": 15.777272727272727,
                "pitch": 31,
                "velocity": 101,
                "duration": 0.07500000000000107,
                "tempo": 120.0
            },
            {
                "start_time": 15.822727272727272,
                "end_time": 16.018181818181816,
                "pitch": 31,
                "velocity": 101,
                "duration": 0.19545454545454355,
                "tempo": 120.0
            },
            {
                "start_time": 16.063636363636363,
                "end_time": 16.138636363636362,
                "pitch": 31,
                "velocity": 101,
                "duration": 0.07499999999999929,
                "tempo": 120.0
            },
            {
                "start_time": 16.18409090909091,
                "end_time": 16.37272727272727,
                "pitch": 31,
                "velocity": 101,
                "duration": 0.1886363636363626,
                "tempo": 120.0
            },
            {
                "start_time": 16.41590909090909,
                "end_time": 16.488636363636363,
                "pitch": 31,
                "velocity": 101,
                "duration": 0.07272727272727408,
                "tempo": 120.0
            },
            {
                "start_time": 16.53181818181818,
                "end_time": 16.727272727272727,
                "pitch": 31,
                "velocity": 101,
                "duration": 0.19545454545454533,
                "tempo": 120.0
            },
            {
                "start_time": 16.772727272727273,
                "end_time": 16.847727272727273,
                "pitch": 31,
                "velocity": 101,
                "duration": 0.07499999999999929,
                "tempo": 120.0
            },
            {
                "start_time": 16.893181818181816,
                "end_time": 17.086363636363636,
                "pitch": 31,
                "velocity": 101,
                "duration": 0.19318181818182012,
                "tempo": 120.0
            },
            {
                "start_time": 17.131818181818183,
                "end_time": 17.206818181818182,
                "pitch": 31,
                "velocity": 101,
                "duration": 0.07499999999999929,
                "tempo": 120.0
            },
            {
                "start_time": 17.252272727272725,
                "end_time": 17.44772727272727,
                "pitch": 31,
                "velocity": 101,
                "duration": 0.19545454545454533,
                "tempo": 120.0
            },
            {
                "start_time": 17.493181818181817,
                "end_time": 17.568181818181817,
                "pitch": 31,
                "velocity": 101,
                "duration": 0.07499999999999929,
                "tempo": 120.0
            },
            {
                "start_time": 17.613636363636363,
                "end_time": 17.80681818181818,
                "pitch": 31,
                "velocity": 101,
                "duration": 0.19318181818181657,
                "tempo": 120.0
            },
            {
                "start_time": 17.852272727272727,
                "end_time": 17.927272727272726,
                "pitch": 31,
                "velocity": 101,
                "duration": 0.07499999999999929,
                "tempo": 120.0
            },
            {
                "start_time": 17.972727272727273,
                "end_time": 18.168181818181818,
                "pitch": 31,
                "velocity": 101,
                "duration": 0.19545454545454533,
                "tempo": 120.0
            },
            {
                "start_time": 18.211363636363636,
                "end_time": 18.286363636363635,
                "pitch": 31,
                "velocity": 101,
                "duration": 0.07499999999999929,
                "tempo": 120.0
            },
            {
                "start_time": 18.331818181818182,
                "end_time": 18.527272727272727,
                "pitch": 31,
                "velocity": 101,
                "duration": 0.19545454545454533,
                "tempo": 120.0
            },
            {
                "start_time": 18.57272727272727,
                "end_time": 18.647727272727273,
                "pitch": 31,
                "velocity": 101,
                "duration": 0.07500000000000284,
                "tempo": 120.0
            },
            {
                "start_time": 18.693181818181817,
                "end_time": 18.88181818181818,
                "pitch": 31,
                "velocity": 101,
                "duration": 0.1886363636363626,
                "tempo": 120.0
            },
            {
                "start_time": 18.925,
                "end_time": 18.99772727272727,
                "pitch": 31,
                "velocity": 101,
                "duration": 0.07272727272727053,
                "tempo": 120.0
            },
            {
                "start_time": 19.04090909090909,
                "end_time": 19.236363636363635,
                "pitch": 31,
                "velocity": 101,
                "duration": 0.19545454545454533,
                "tempo": 120.0
            },
            {
                "start_time": 19.28181818181818,
                "end_time": 19.35681818181818,
                "pitch": 31,
                "velocity": 101,
                "duration": 0.07499999999999929,
                "tempo": 120.0
            },
            {
                "start_time": 19.402272727272727,
                "end_time": 19.595454545454544,
                "pitch": 31,
                "velocity": 101,
                "duration": 0.19318181818181657,
                "tempo": 120.0
            },
            {
                "start_time": 19.64090909090909,
                "end_time": 19.71590909090909,
                "pitch": 31,
                "velocity": 101,
                "duration": 0.07499999999999929,
                "tempo": 120.0
            },
            {
                "start_time": 19.761363636363637,
                "end_time": 19.956818181818182,
                "pitch": 31,
                "velocity": 101,
                "duration": 0.19545454545454533,
                "tempo": 120.0
            },
            {
                "start_time": 20.002272727272725,
                "end_time": 20.077272727272728,
                "pitch": 31,
                "velocity": 101,
                "duration": 0.07500000000000284,
                "tempo": 120.0
            },
            {
                "start_time": 20.120454545454546,
                "end_time": 20.31590909090909,
                "pitch": 31,
                "velocity": 101,
                "duration": 0.19545454545454533,
                "tempo": 120.0
            },
            {
                "start_time": 20.361363636363635,
                "end_time": 20.436363636363634,
                "pitch": 31,
                "velocity": 101,
                "duration": 0.07499999999999929,
                "tempo": 120.0
            },
            {
                "start_time": 20.48181818181818,
                "end_time": 20.677272727272726,
                "pitch": 31,
                "velocity": 101,
                "duration": 0.19545454545454533,
                "tempo": 120.0
            },
            {
                "start_time": 20.720454545454544,
                "end_time": 20.795454545454543,
                "pitch": 31,
                "velocity": 101,
                "duration": 0.07499999999999929,
                "tempo": 120.0
            },
            {
                "start_time": 20.84090909090909,
                "end_time": 21.029545454545453,
                "pitch": 31,
                "velocity": 101,
                "duration": 0.1886363636363626,
                "tempo": 120.0
            },
            {
                "start_time": 21.075,
                "end_time": 21.147727272727273,
                "pitch": 31,
                "velocity": 101,
                "duration": 0.07272727272727408,
                "tempo": 120.0
            },
            {
                "start_time": 21.19090909090909,
                "end_time": 21.386363636363637,
                "pitch": 31,
                "velocity": 101,
                "duration": 0.19545454545454533,
                "tempo": 120.0
            },
            {
                "start_time": 21.429545454545455,
                "end_time": 21.504545454545454,
                "pitch": 31,
                "velocity": 101,
                "duration": 0.07499999999999929,
                "tempo": 120.0
            },
            {
                "start_time": 21.55,
                "end_time": 21.745454545454546,
                "pitch": 43,
                "velocity": 101,
                "duration": 0.19545454545454533,
                "tempo": 120.0
            },
            {
                "start_time": 21.79090909090909,
                "end_time": 21.86590909090909,
                "pitch": 43,
                "velocity": 101,
                "duration": 0.07499999999999929,
                "tempo": 120.0
            },
            {
                "start_time": 11.397727272727272,
                "end_time": 21.911363636363635,
                "pitch": 0,
                "velocity": 101,
                "duration": 10.513636363636364,
                "tempo": 120.0
            },
            {
                "start_time": 11.51590909090909,
                "end_time": 22.104545454545452,
                "pitch": 41,
                "velocity": 101,
                "duration": 10.588636363636361,
                "tempo": 120.0
            },
            {
                "start_time": 21.911363636363635,
                "end_time": 22.104545454545452,
                "pitch": 41,
                "velocity": 101,
                "duration": 0.19318181818181657,
                "tempo": 120.0
            },
            {
                "start_time": 22.15,
                "end_time": 22.224999999999998,
                "pitch": 41,
                "velocity": 101,
                "duration": 0.07499999999999929,
                "tempo": 120.0
            },
            {
                "start_time": 22.270454545454545,
                "end_time": 22.525,
                "pitch": 41,
                "velocity": 101,
                "duration": 0.25454545454545396,
                "tempo": 120.0
            },
            {
                "start_time": 11.156818181818181,
                "end_time": 22.629545454545454,
                "pitch": 40,
                "velocity": 101,
                "duration": 11.472727272727273,
                "tempo": 120.0
            },
            {
                "start_time": 22.629545454545454,
                "end_time": 22.704545454545453,
                "pitch": 38,
                "velocity": 101,
                "duration": 0.07499999999999929,
                "tempo": 120.0
            },
            {
                "start_time": 22.75,
                "end_time": 22.825,
                "pitch": 31,
                "velocity": 101,
                "duration": 0.07499999999999929,
                "tempo": 120.0
            },
            {
                "start_time": 21.911363636363635,
                "end_time": 22.870454545454546,
                "pitch": 0,
                "velocity": 101,
                "duration": 0.9590909090909108,
                "tempo": 120.0
            },
            {
                "start_time": 22.870454545454546,
                "end_time": 22.945454545454545,
                "pitch": 38,
                "velocity": 101,
                "duration": 0.07499999999999929,
                "tempo": 120.0
            },
            {
                "start_time": 22.99090909090909,
                "end_time": 23.18409090909091,
                "pitch": 55,
                "velocity": 101,
                "duration": 0.19318181818182012,
                "tempo": 120.0
            },
            {
                "start_time": 23.229545454545452,
                "end_time": 23.304545454545455,
                "pitch": 55,
                "velocity": 101,
                "duration": 0.07500000000000284,
                "tempo": 120.0
            },
            {
                "start_time": 23.349999999999998,
                "end_time": 23.538636363636364,
                "pitch": 55,
                "velocity": 101,
                "duration": 0.18863636363636616,
                "tempo": 120.0
            },
            {
                "start_time": 23.584090909090907,
                "end_time": 23.65681818181818,
                "pitch": 55,
                "velocity": 101,
                "duration": 0.07272727272727408,
                "tempo": 120.0
            },
            {
                "start_time": 23.7,
                "end_time": 23.895454545454545,
                "pitch": 55,
                "velocity": 101,
                "duration": 0.19545454545454533,
                "tempo": 120.0
            },
            {
                "start_time": 23.938636363636363,
                "end_time": 24.013636363636362,
                "pitch": 55,
                "velocity": 101,
                "duration": 0.07499999999999929,
                "tempo": 120.0
            },
            {
                "start_time": 24.05909090909091,
                "end_time": 24.254545454545454,
                "pitch": 55,
                "velocity": 101,
                "duration": 0.19545454545454533,
                "tempo": 120.0
            },
            {
                "start_time": 24.299999999999997,
                "end_time": 24.375,
                "pitch": 55,
                "velocity": 101,
                "duration": 0.07500000000000284,
                "tempo": 120.0
            },
            {
                "start_time": 24.420454545454543,
                "end_time": 24.613636363636363,
                "pitch": 55,
                "velocity": 101,
                "duration": 0.19318181818182012,
                "tempo": 120.0
            },
            {
                "start_time": 24.659090909090907,
                "end_time": 24.73409090909091,
                "pitch": 55,
                "velocity": 101,
                "duration": 0.07500000000000284,
                "tempo": 120.0
            },
            {
                "start_time": 24.779545454545453,
                "end_time": 24.974999999999998,
                "pitch": 55,
                "velocity": 101,
                "duration": 0.19545454545454533,
                "tempo": 120.0
            },
            {
                "start_time": 25.020454545454545,
                "end_time": 25.09318181818182,
                "pitch": 55,
                "velocity": 101,
                "duration": 0.07272727272727408,
                "tempo": 120.0
            },
            {
                "start_time": 25.138636363636362,
                "end_time": 25.334090909090907,
                "pitch": 55,
                "velocity": 101,
                "duration": 0.19545454545454533,
                "tempo": 120.0
            },
            {
                "start_time": 25.379545454545454,
                "end_time": 25.454545454545453,
                "pitch": 55,
                "velocity": 101,
                "duration": 0.07499999999999929,
                "tempo": 120.0
            },
            {
                "start_time": 25.5,
                "end_time": 25.688636363636363,
                "pitch": 55,
                "velocity": 101,
                "duration": 0.1886363636363626,
                "tempo": 120.0
            },
            {
                "start_time": 25.73181818181818,
                "end_time": 25.804545454545455,
                "pitch": 55,
                "velocity": 101,
                "duration": 0.07272727272727408,
                "tempo": 120.0
            },
            {
                "start_time": 25.849999999999998,
                "end_time": 26.043181818181818,
                "pitch": 55,
                "velocity": 101,
                "duration": 0.19318181818182012,
                "tempo": 120.0
            },
            {
                "start_time": 26.08863636363636,
                "end_time": 26.163636363636364,
                "pitch": 55,
                "velocity": 101,
                "duration": 0.07500000000000284,
                "tempo": 120.0
            },
            {
                "start_time": 26.209090909090907,
                "end_time": 26.404545454545453,
                "pitch": 55,
                "velocity": 101,
                "duration": 0.19545454545454533,
                "tempo": 120.0
            },
            {
                "start_time": 26.44772727272727,
                "end_time": 26.52272727272727,
                "pitch": 55,
                "velocity": 101,
                "duration": 0.07499999999999929,
                "tempo": 120.0
            },
            {
                "start_time": 26.568181818181817,
                "end_time": 26.763636363636362,
                "pitch": 55,
                "velocity": 101,
                "duration": 0.19545454545454533,
                "tempo": 120.0
            },
            {
                "start_time": 26.80909090909091,
                "end_time": 26.884090909090908,
                "pitch": 55,
                "velocity": 101,
                "duration": 0.07499999999999929,
                "tempo": 120.0
            },
            {
                "start_time": 26.929545454545455,
                "end_time": 27.12272727272727,
                "pitch": 55,
                "velocity": 101,
                "duration": 0.19318181818181657,
                "tempo": 120.0
            },
            {
                "start_time": 27.168181818181818,
                "end_time": 27.243181818181817,
                "pitch": 55,
                "velocity": 101,
                "duration": 0.07499999999999929,
                "tempo": 120.0
            },
            {
                "start_time": 27.288636363636364,
                "end_time": 27.48409090909091,
                "pitch": 57,
                "velocity": 101,
                "duration": 0.19545454545454533,
                "tempo": 120.0
            },
            {
                "start_time": 27.529545454545453,
                "end_time": 27.602272727272727,
                "pitch": 57,
                "velocity": 101,
                "duration": 0.07272727272727408,
                "tempo": 120.0
            },
            {
                "start_time": 27.64772727272727,
                "end_time": 27.843181818181815,
                "pitch": 57,
                "velocity": 101,
                "duration": 0.19545454545454533,
                "tempo": 120.0
            },
            {
                "start_time": 27.888636363636362,
                "end_time": 27.96363636363636,
                "pitch": 57,
                "velocity": 101,
                "duration": 0.07499999999999929,
                "tempo": 120.0
            },
            {
                "start_time": 28.009090909090908,
                "end_time": 28.202272727272724,
                "pitch": 57,
                "velocity": 101,
                "duration": 0.19318181818181657,
                "tempo": 120.0
            },
            {
                "start_time": 28.24772727272727,
                "end_time": 28.32272727272727,
                "pitch": 57,
                "velocity": 101,
                "duration": 0.07499999999999929,
                "tempo": 120.0
            },
            {
                "start_time": 28.368181818181817,
                "end_time": 28.55681818181818,
                "pitch": 57,
                "velocity": 101,
                "duration": 0.1886363636363626,
                "tempo": 120.0
            },
            {
                "start_time": 28.602272727272727,
                "end_time": 28.674999999999997,
                "pitch": 57,
                "velocity": 101,
                "duration": 0.07272727272727053,
                "tempo": 120.0
            },
            {
                "start_time": 27.288636363636364,
                "end_time": 28.911363636363635,
                "pitch": 55,
                "velocity": 101,
                "duration": 1.6227272727272712,
                "tempo": 120.0
            },
            {
                "start_time": 28.718181818181815,
                "end_time": 28.911363636363635,
                "pitch": 55,
                "velocity": 101,
                "duration": 0.19318181818182012,
                "tempo": 120.0
            },
            {
                "start_time": 28.956818181818182,
                "end_time": 29.03181818181818,
                "pitch": 55,
                "velocity": 101,
                "duration": 0.07499999999999929,
                "tempo": 120.0
            },
            {
                "start_time": 29.077272727272724,
                "end_time": 29.27272727272727,
                "pitch": 55,
                "velocity": 101,
                "duration": 0.19545454545454533,
                "tempo": 120.0
            },
            {
                "start_time": 29.318181818181817,
                "end_time": 29.393181818181816,
                "pitch": 55,
                "velocity": 101,
                "duration": 0.07499999999999929,
                "tempo": 120.0
            },
            {
                "start_time": 29.438636363636363,
                "end_time": 29.63181818181818,
                "pitch": 55,
                "velocity": 101,
                "duration": 0.19318181818181657,
                "tempo": 120.0
            },
            {
                "start_time": 29.677272727272726,
                "end_time": 29.752272727272725,
                "pitch": 55,
                "velocity": 101,
                "duration": 0.07499999999999929,
                "tempo": 120.0
            },
            {
                "start_time": 29.797727272727272,
                "end_time": 29.993181818181817,
                "pitch": 55,
                "velocity": 101,
                "duration": 0.19545454545454533,
                "tempo": 120.0
            },
            {
                "start_time": 30.036363636363635,
                "end_time": 30.111363636363635,
                "pitch": 55,
                "velocity": 101,
                "duration": 0.07499999999999929,
                "tempo": 120.0
            },
            {
                "start_time": 30.15681818181818,
                "end_time": 30.352272727272727,
                "pitch": 55,
                "velocity": 101,
                "duration": 0.19545454545454533,
                "tempo": 120.0
            },
            {
                "start_time": 30.39772727272727,
                "end_time": 30.472727272727273,
                "pitch": 55,
                "velocity": 101,
                "duration": 0.07500000000000284,
                "tempo": 120.0
            },
            {
                "start_time": 30.518181818181816,
                "end_time": 30.711363636363636,
                "pitch": 55,
                "velocity": 101,
                "duration": 0.19318181818182012,
                "tempo": 120.0
            },
            {
                "start_time": 30.75681818181818,
                "end_time": 30.831818181818182,
                "pitch": 55,
                "velocity": 101,
                "duration": 0.07500000000000284,
                "tempo": 120.0
            },
            {
                "start_time": 30.877272727272725,
                "end_time": 31.065909090909088,
                "pitch": 55,
                "velocity": 101,
                "duration": 0.1886363636363626,
                "tempo": 120.0
            },
            {
                "start_time": 31.111363636363635,
                "end_time": 31.18181818181818,
                "pitch": 55,
                "velocity": 101,
                "duration": 0.07045454545454533,
                "tempo": 120.0
            },
            {
                "start_time": 31.227272727272727,
                "end_time": 31.420454545454543,
                "pitch": 55,
                "velocity": 101,
                "duration": 0.19318181818181657,
                "tempo": 120.0
            },
            {
                "start_time": 31.46590909090909,
                "end_time": 31.54090909090909,
                "pitch": 55,
                "velocity": 101,
                "duration": 0.07499999999999929,
                "tempo": 120.0
            },
            {
                "start_time": 31.586363636363636,
                "end_time": 31.78181818181818,
                "pitch": 55,
                "velocity": 101,
                "duration": 0.19545454545454533,
                "tempo": 120.0
            },
            {
                "start_time": 31.827272727272724,
                "end_time": 31.902272727272727,
                "pitch": 55,
                "velocity": 101,
                "duration": 0.07500000000000284,
                "tempo": 120.0
            },
            {
                "start_time": 31.94772727272727,
                "end_time": 32.14090909090909,
                "pitch": 55,
                "velocity": 101,
                "duration": 0.19318181818182012,
                "tempo": 120.0
            },
            {
                "start_time": 32.18636363636364,
                "end_time": 32.26136363636363,
                "pitch": 55,
                "velocity": 101,
                "duration": 0.07499999999999574,
                "tempo": 120.0
            },
            {
                "start_time": 32.30681818181818,
                "end_time": 32.502272727272725,
                "pitch": 55,
                "velocity": 101,
                "duration": 0.19545454545454533,
                "tempo": 120.0
            },
            {
                "start_time": 32.54545454545455,
                "end_time": 32.62045454545454,
                "pitch": 55,
                "velocity": 101,
                "duration": 0.07499999999999574,
                "tempo": 120.0
            },
            {
                "start_time": 32.66590909090909,
                "end_time": 32.861363636363635,
                "pitch": 55,
                "velocity": 101,
                "duration": 0.19545454545454533,
                "tempo": 120.0
            },
            {
                "start_time": 32.90681818181818,
                "end_time": 32.98181818181818,
                "pitch": 55,
                "velocity": 101,
                "duration": 0.07499999999999574,
                "tempo": 120.0
            },
            {
                "start_time": 22.870454545454546,
                "end_time": 33.027272727272724,
                "pitch": 0,
                "velocity": 101,
                "duration": 10.156818181818178,
                "tempo": 120.0
            },
            {
                "start_time": 33.027272727272724,
                "end_time": 33.220454545454544,
                "pitch": 50,
                "velocity": 101,
                "duration": 0.19318181818182012,
                "tempo": 120.0
            },
            {
                "start_time": 33.26590909090909,
                "end_time": 33.340909090909086,
                "pitch": 50,
                "velocity": 101,
                "duration": 0.07499999999999574,
                "tempo": 120.0
            },
            {
                "start_time": 33.38636363636363,
                "end_time": 33.574999999999996,
                "pitch": 50,
                "velocity": 101,
                "duration": 0.1886363636363626,
                "tempo": 120.0
            },
            {
                "start_time": 33.61818181818182,
                "end_time": 33.69090909090909,
                "pitch": 50,
                "velocity": 101,
                "duration": 0.07272727272727053,
                "tempo": 120.0
            },
            {
                "start_time": 33.736363636363635,
                "end_time": 33.929545454545455,
                "pitch": 50,
                "velocity": 101,
                "duration": 0.19318181818182012,
                "tempo": 120.0
            },
            {
                "start_time": 33.975,
                "end_time": 34.05,
                "pitch": 50,
                "velocity": 101,
                "duration": 0.07499999999999574,
                "tempo": 120.0
            },
            {
                "start_time": 34.095454545454544,
                "end_time": 34.29090909090909,
                "pitch": 50,
                "velocity": 101,
                "duration": 0.19545454545454533,
                "tempo": 120.0
            },
            {
                "start_time": 34.336363636363636,
                "end_time": 34.41136363636363,
                "pitch": 50,
                "velocity": 101,
                "duration": 0.07499999999999574,
                "tempo": 120.0
            },
            {
                "start_time": 22.99090909090909,
                "end_time": 34.45454545454545,
                "pitch": 65,
                "velocity": 101,
                "duration": 11.463636363636365,
                "tempo": 120.0
            },
            {
                "start_time": 28.718181818181815,
                "end_time": 34.65,
                "pitch": 57,
                "velocity": 101,
                "duration": 5.931818181818183,
                "tempo": 120.0
            },
            {
                "start_time": 34.45454545454545,
                "end_time": 34.65,
                "pitch": 57,
                "velocity": 101,
                "duration": 0.19545454545454533,
                "tempo": 120.0
            },
            {
                "start_time": 34.695454545454545,
                "end_time": 34.77045454545454,
                "pitch": 57,
                "velocity": 101,
                "duration": 0.07499999999999574,
                "tempo": 120.0
            },
            {
                "start_time": 34.81590909090909,
                "end_time": 35.01136363636363,
                "pitch": 57,
                "velocity": 101,
                "duration": 0.19545454545454533,
                "tempo": 120.0
            },
            {
                "start_time": 35.054545454545455,
                "end_time": 35.12954545454545,
                "pitch": 57,
                "velocity": 101,
                "duration": 0.07499999999999574,
                "tempo": 120.0
            },
            {
                "start_time": 35.175,
                "end_time": 35.37045454545454,
                "pitch": 57,
                "velocity": 101,
                "duration": 0.19545454545454533,
                "tempo": 120.0
            },
            {
                "start_time": 35.41590909090909,
                "end_time": 35.49090909090909,
                "pitch": 57,
                "velocity": 101,
                "duration": 0.07500000000000284,
                "tempo": 120.0
            },
            {
                "start_time": 35.53636363636363,
                "end_time": 35.72954545454545,
                "pitch": 57,
                "velocity": 101,
                "duration": 0.19318181818182012,
                "tempo": 120.0
            },
            {
                "start_time": 35.775,
                "end_time": 35.85,
                "pitch": 57,
                "velocity": 101,
                "duration": 0.07500000000000284,
                "tempo": 120.0
            },
            {
                "start_time": 35.89545454545454,
                "end_time": 36.090909090909086,
                "pitch": 50,
                "velocity": 101,
                "duration": 0.19545454545454533,
                "tempo": 120.0
            },
            {
                "start_time": 36.13636363636363,
                "end_time": 36.20909090909091,
                "pitch": 50,
                "velocity": 101,
                "duration": 0.07272727272727764,
                "tempo": 120.0
            },
            {
                "start_time": 36.25454545454545,
                "end_time": 36.449999999999996,
                "pitch": 50,
                "velocity": 101,
                "duration": 0.19545454545454533,
                "tempo": 120.0
            },
            {
                "start_time": 36.49545454545454,
                "end_time": 36.570454545454545,
                "pitch": 50,
                "velocity": 101,
                "duration": 0.07500000000000284,
                "tempo": 120.0
            },
            {
                "start_time": 36.61590909090909,
                "end_time": 36.809090909090905,
                "pitch": 50,
                "velocity": 101,
                "duration": 0.19318181818181301,
                "tempo": 120.0
            },
            {
                "start_time": 36.85454545454545,
                "end_time": 36.929545454545455,
                "pitch": 50,
                "velocity": 101,
                "duration": 0.07500000000000284,
                "tempo": 120.0
            },
            {
                "start_time": 36.975,
                "end_time": 37.163636363636364,
                "pitch": 50,
                "velocity": 101,
                "duration": 0.1886363636363626,
                "tempo": 120.0
            },
            {
                "start_time": 37.20909090909091,
                "end_time": 37.28181818181818,
                "pitch": 50,
                "velocity": 101,
                "duration": 0.07272727272727053,
                "tempo": 120.0
            },
            {
                "start_time": 34.45454545454545,
                "end_time": 37.324999999999996,
                "pitch": 65,
                "velocity": 101,
                "duration": 2.8704545454545425,
                "tempo": 120.0
            },
            {
                "start_time": 37.324999999999996,
                "end_time": 37.518181818181816,
                "pitch": 57,
                "velocity": 101,
                "duration": 0.19318181818182012,
                "tempo": 120.0
            },
            {
                "start_time": 37.56363636363636,
                "end_time": 37.63863636363636,
                "pitch": 57,
                "velocity": 101,
                "duration": 0.07499999999999574,
                "tempo": 120.0
            },
            {
                "start_time": 37.684090909090905,
                "end_time": 37.87954545454545,
                "pitch": 57,
                "velocity": 101,
                "duration": 0.19545454545454533,
                "tempo": 120.0
            },
            {
                "start_time": 37.925,
                "end_time": 38.0,
                "pitch": 57,
                "velocity": 101,
                "duration": 0.07500000000000284,
                "tempo": 120.0
            },
            {
                "start_time": 38.04545454545455,
                "end_time": 38.23863636363636,
                "pitch": 57,
                "velocity": 101,
                "duration": 0.19318181818181301,
                "tempo": 120.0
            },
            {
                "start_time": 38.28409090909091,
                "end_time": 38.35909090909091,
                "pitch": 57,
                "velocity": 101,
                "duration": 0.07500000000000284,
                "tempo": 120.0
            },
            {
                "start_time": 38.404545454545456,
                "end_time": 38.6,
                "pitch": 57,
                "velocity": 101,
                "duration": 0.19545454545454533,
                "tempo": 120.0
            },
            {
                "start_time": 38.643181818181816,
                "end_time": 38.71818181818182,
                "pitch": 57,
                "velocity": 101,
                "duration": 0.07500000000000284,
                "tempo": 120.0
            },
            {
                "start_time": 35.89545454545454,
                "end_time": 38.76363636363636,
                "pitch": 19,
                "velocity": 101,
                "duration": 2.8681818181818173,
                "tempo": 120.0
            },
            {
                "start_time": 38.76363636363636,
                "end_time": 38.959090909090904,
                "pitch": 50,
                "velocity": 101,
                "duration": 0.19545454545454533,
                "tempo": 120.0
            },
            {
                "start_time": 39.00454545454545,
                "end_time": 39.07954545454545,
                "pitch": 50,
                "velocity": 101,
                "duration": 0.07500000000000284,
                "tempo": 120.0
            },
            {
                "start_time": 39.125,
                "end_time": 39.31363636363636,
                "pitch": 50,
                "velocity": 101,
                "duration": 0.1886363636363626,
                "tempo": 120.0
            },
            {
                "start_time": 39.35681818181818,
                "end_time": 39.429545454545455,
                "pitch": 50,
                "velocity": 101,
                "duration": 0.07272727272727764,
                "tempo": 120.0
            },
            {
                "start_time": 39.47272727272727,
                "end_time": 39.668181818181814,
                "pitch": 50,
                "velocity": 101,
                "duration": 0.19545454545454533,
                "tempo": 120.0
            },
            {
                "start_time": 39.71363636363636,
                "end_time": 39.788636363636364,
                "pitch": 50,
                "velocity": 101,
                "duration": 0.07500000000000284,
                "tempo": 120.0
            },
            {
                "start_time": 39.834090909090904,
                "end_time": 40.027272727272724,
                "pitch": 54,
                "velocity": 101,
                "duration": 0.19318181818182012,
                "tempo": 120.0
            },
            {
                "start_time": 40.07272727272727,
                "end_time": 40.14772727272727,
                "pitch": 54,
                "velocity": 101,
                "duration": 0.07500000000000284,
                "tempo": 120.0
            },
            {
                "start_time": 40.19318181818181,
                "end_time": 40.38863636363636,
                "pitch": 31,
                "velocity": 101,
                "duration": 0.19545454545454533,
                "tempo": 120.0
            },
            {
                "start_time": 40.434090909090905,
                "end_time": 40.50909090909091,
                "pitch": 31,
                "velocity": 101,
                "duration": 0.07500000000000284,
                "tempo": 120.0
            },
            {
                "start_time": 40.554545454545455,
                "end_time": 40.74772727272727,
                "pitch": 31,
                "velocity": 101,
                "duration": 0.19318181818181301,
                "tempo": 120.0
            },
            {
                "start_time": 40.793181818181814,
                "end_time": 40.86818181818182,
                "pitch": 31,
                "velocity": 101,
                "duration": 0.07500000000000284,
                "tempo": 120.0
            },
            {
                "start_time": 40.913636363636364,
                "end_time": 41.10909090909091,
                "pitch": 31,
                "velocity": 101,
                "duration": 0.19545454545454533,
                "tempo": 120.0
            },
            {
                "start_time": 41.152272727272724,
                "end_time": 41.22727272727273,
                "pitch": 31,
                "velocity": 101,
                "duration": 0.07500000000000284,
                "tempo": 120.0
            },
            {
                "start_time": 41.27272727272727,
                "end_time": 41.46818181818182,
                "pitch": 31,
                "velocity": 101,
                "duration": 0.19545454545454533,
                "tempo": 120.0
            },
            {
                "start_time": 41.51363636363636,
                "end_time": 41.58863636363636,
                "pitch": 31,
                "velocity": 101,
                "duration": 0.07500000000000284,
                "tempo": 120.0
            },
            {
                "start_time": 41.63409090909091,
                "end_time": 41.82727272727273,
                "pitch": 31,
                "velocity": 101,
                "duration": 0.19318181818182012,
                "tempo": 120.0
            },
            {
                "start_time": 41.87272727272727,
                "end_time": 41.94772727272727,
                "pitch": 31,
                "velocity": 101,
                "duration": 0.07500000000000284,
                "tempo": 120.0
            },
            {
                "start_time": 41.99318181818182,
                "end_time": 42.18181818181818,
                "pitch": 31,
                "velocity": 101,
                "duration": 0.1886363636363626,
                "tempo": 120.0
            },
            {
                "start_time": 42.22727272727273,
                "end_time": 42.29772727272727,
                "pitch": 31,
                "velocity": 101,
                "duration": 0.07045454545454533,
                "tempo": 120.0
            },
            {
                "start_time": 42.34318181818182,
                "end_time": 42.53636363636363,
                "pitch": 31,
                "velocity": 101,
                "duration": 0.19318181818181301,
                "tempo": 120.0
            },
            {
                "start_time": 42.58181818181818,
                "end_time": 42.65681818181818,
                "pitch": 31,
                "velocity": 101,
                "duration": 0.07500000000000284,
                "tempo": 120.0
            },
            {
                "start_time": 42.70227272727273,
                "end_time": 42.89772727272727,
                "pitch": 31,
                "velocity": 101,
                "duration": 0.19545454545454533,
                "tempo": 120.0
            },
            {
                "start_time": 42.94318181818181,
                "end_time": 43.018181818181816,
                "pitch": 31,
                "velocity": 101,
                "duration": 0.07500000000000284,
                "tempo": 120.0
            },
            {
                "start_time": 43.06136363636364,
                "end_time": 43.25681818181818,
                "pitch": 31,
                "velocity": 101,
                "duration": 0.19545454545454533,
                "tempo": 120.0
            },
            {
                "start_time": 43.30227272727272,
                "end_time": 43.377272727272725,
                "pitch": 31,
                "velocity": 101,
                "duration": 0.07500000000000284,
                "tempo": 120.0
            },
            {
                "start_time": 43.42272727272727,
                "end_time": 43.61818181818182,
                "pitch": 31,
                "velocity": 101,
                "duration": 0.19545454545454533,
                "tempo": 120.0
            },
            {
                "start_time": 43.66136363636363,
                "end_time": 43.736363636363635,
                "pitch": 31,
                "velocity": 101,
                "duration": 0.07500000000000284,
                "tempo": 120.0
            },
            {
                "start_time": 43.78181818181818,
                "end_time": 43.97727272727273,
                "pitch": 31,
                "velocity": 101,
                "duration": 0.19545454545454533,
                "tempo": 120.0
            },
            {
                "start_time": 44.02272727272727,
                "end_time": 44.09772727272727,
                "pitch": 31,
                "velocity": 101,
                "duration": 0.07499999999999574,
                "tempo": 120.0
            },
            {
                "start_time": 44.143181818181816,
                "end_time": 44.336363636363636,
                "pitch": 31,
                "velocity": 101,
                "duration": 0.19318181818182012,
                "tempo": 120.0
            },
            {
                "start_time": 44.38181818181818,
                "end_time": 44.45681818181818,
                "pitch": 31,
                "velocity": 101,
                "duration": 0.07499999999999574,
                "tempo": 120.0
            },
            {
                "start_time": 44.502272727272725,
                "end_time": 44.69090909090909,
                "pitch": 31,
                "velocity": 101,
                "duration": 0.1886363636363626,
                "tempo": 120.0
            },
            {
                "start_time": 44.73409090909091,
                "end_time": 44.80681818181818,
                "pitch": 31,
                "velocity": 101,
                "duration": 0.07272727272727053,
                "tempo": 120.0
            },
            {
                "start_time": 44.85227272727273,
                "end_time": 45.04545454545455,
                "pitch": 31,
                "velocity": 101,
                "duration": 0.19318181818182012,
                "tempo": 120.0
            },
            {
                "start_time": 45.090909090909086,
                "end_time": 45.16590909090909,
                "pitch": 31,
                "velocity": 101,
                "duration": 0.07500000000000284,
                "tempo": 120.0
            },
            {
                "start_time": 45.211363636363636,
                "end_time": 45.40681818181818,
                "pitch": 31,
                "velocity": 101,
                "duration": 0.19545454545454533,
                "tempo": 120.0
            },
            {
                "start_time": 45.45227272727273,
                "end_time": 45.527272727272724,
                "pitch": 31,
                "velocity": 101,
                "duration": 0.07499999999999574,
                "tempo": 120.0
            },
            {
                "start_time": 45.570454545454545,
                "end_time": 45.76590909090909,
                "pitch": 31,
                "velocity": 101,
                "duration": 0.19545454545454533,
                "tempo": 120.0
            },
            {
                "start_time": 45.81136363636364,
                "end_time": 45.88636363636363,
                "pitch": 31,
                "velocity": 101,
                "duration": 0.07499999999999574,
                "tempo": 120.0
            },
            {
                "start_time": 45.93181818181818,
                "end_time": 46.125,
                "pitch": 31,
                "velocity": 101,
                "duration": 0.19318181818182012,
                "tempo": 120.0
            },
            {
                "start_time": 46.17045454545455,
                "end_time": 46.24545454545454,
                "pitch": 31,
                "velocity": 101,
                "duration": 0.07499999999999574,
                "tempo": 120.0
            },
            {
                "start_time": 46.29090909090909,
                "end_time": 46.486363636363635,
                "pitch": 31,
                "velocity": 101,
                "duration": 0.19545454545454533,
                "tempo": 120.0
            },
            {
                "start_time": 46.53181818181818,
                "end_time": 46.60681818181818,
                "pitch": 31,
                "velocity": 101,
                "duration": 0.07499999999999574,
                "tempo": 120.0
            },
            {
                "start_time": 46.652272727272724,
                "end_time": 46.840909090909086,
                "pitch": 31,
                "velocity": 101,
                "duration": 0.1886363636363626,
                "tempo": 120.0
            },
            {
                "start_time": 46.88409090909091,
                "end_time": 46.95681818181818,
                "pitch": 31,
                "velocity": 101,
                "duration": 0.07272727272727053,
                "tempo": 120.0
            },
            {
                "start_time": 47.0,
                "end_time": 47.195454545454545,
                "pitch": 31,
                "velocity": 101,
                "duration": 0.19545454545454533,
                "tempo": 120.0
            },
            {
                "start_time": 47.24090909090909,
                "end_time": 47.31590909090909,
                "pitch": 31,
                "velocity": 101,
                "duration": 0.07499999999999574,
                "tempo": 120.0
            },
            {
                "start_time": 47.361363636363635,
                "end_time": 47.554545454545455,
                "pitch": 31,
                "velocity": 101,
                "duration": 0.19318181818182012,
                "tempo": 120.0
            },
            {
                "start_time": 47.599999999999994,
                "end_time": 47.675,
                "pitch": 31,
                "velocity": 101,
                "duration": 0.07500000000000284,
                "tempo": 120.0
            },
            {
                "start_time": 47.720454545454544,
                "end_time": 47.91590909090909,
                "pitch": 31,
                "velocity": 101,
                "duration": 0.19545454545454533,
                "tempo": 120.0
            },
            {
                "start_time": 47.961363636363636,
                "end_time": 48.03636363636363,
                "pitch": 31,
                "velocity": 101,
                "duration": 0.07499999999999574,
                "tempo": 120.0
            },
            {
                "start_time": 48.07954545454545,
                "end_time": 48.275,
                "pitch": 31,
                "velocity": 101,
                "duration": 0.19545454545454533,
                "tempo": 120.0
            },
            {
                "start_time": 48.320454545454545,
                "end_time": 48.39545454545454,
                "pitch": 31,
                "velocity": 101,
                "duration": 0.07499999999999574,
                "tempo": 120.0
            },
            {
                "start_time": 48.44090909090909,
                "end_time": 48.63409090909091,
                "pitch": 31,
                "velocity": 101,
                "duration": 0.19318181818182012,
                "tempo": 120.0
            },
            {
                "start_time": 48.679545454545455,
                "end_time": 48.75454545454545,
                "pitch": 31,
                "velocity": 101,
                "duration": 0.07499999999999574,
                "tempo": 120.0
            },
            {
                "start_time": 48.8,
                "end_time": 48.99545454545454,
                "pitch": 31,
                "velocity": 101,
                "duration": 0.19545454545454533,
                "tempo": 120.0
            },
            {
                "start_time": 49.04090909090909,
                "end_time": 49.11590909090909,
                "pitch": 31,
                "velocity": 101,
                "duration": 0.07500000000000284,
                "tempo": 120.0
            },
            {
                "start_time": 49.16136363636363,
                "end_time": 49.35454545454545,
                "pitch": 31,
                "velocity": 101,
                "duration": 0.19318181818182012,
                "tempo": 120.0
            },
            {
                "start_time": 49.4,
                "end_time": 49.474999999999994,
                "pitch": 31,
                "velocity": 101,
                "duration": 0.07499999999999574,
                "tempo": 120.0
            },
            {
                "start_time": 49.52045454545454,
                "end_time": 49.709090909090904,
                "pitch": 31,
                "velocity": 101,
                "duration": 0.1886363636363626,
                "tempo": 120.0
            },
            {
                "start_time": 49.752272727272725,
                "end_time": 49.824999999999996,
                "pitch": 31,
                "velocity": 101,
                "duration": 0.07272727272727053,
                "tempo": 120.0
            },
            {
                "start_time": 49.87045454545454,
                "end_time": 50.06363636363636,
                "pitch": 31,
                "velocity": 101,
                "duration": 0.19318181818182012,
                "tempo": 120.0
            },
            {
                "start_time": 50.10909090909091,
                "end_time": 50.184090909090905,
                "pitch": 31,
                "velocity": 101,
                "duration": 0.07499999999999574,
                "tempo": 120.0
            },
            {
                "start_time": 50.22954545454545,
                "end_time": 50.425,
                "pitch": 43,
                "velocity": 101,
                "duration": 0.19545454545454533,
                "tempo": 120.0
            },
            {
                "start_time": 50.470454545454544,
                "end_time": 50.543181818181814,
                "pitch": 43,
                "velocity": 101,
                "duration": 0.07272727272727053,
                "tempo": 120.0
            },
            {
                "start_time": 33.027272727272724,
                "end_time": 50.58863636363636,
                "pitch": 0,
                "velocity": 101,
                "duration": 17.561363636363637,
                "tempo": 120.0
            },
            {
                "start_time": 22.75,
                "end_time": 50.78409090909091,
                "pitch": 41,
                "velocity": 101,
                "duration": 28.034090909090907,
                "tempo": 120.0
            },
            {
                "start_time": 50.58863636363636,
                "end_time": 50.78409090909091,
                "pitch": 41,
                "velocity": 101,
                "duration": 0.19545454545454533,
                "tempo": 120.0
            },
            {
                "start_time": 50.82954545454545,
                "end_time": 50.90454545454545,
                "pitch": 41,
                "velocity": 101,
                "duration": 0.07499999999999574,
                "tempo": 120.0
            },
            {
                "start_time": 50.949999999999996,
                "end_time": 51.20454545454545,
                "pitch": 41,
                "velocity": 101,
                "duration": 0.2545454545454575,
                "tempo": 120.0
            },
            {
                "start_time": 22.629545454545454,
                "end_time": 51.309090909090905,
                "pitch": 40,
                "velocity": 101,
                "duration": 28.67954545454545,
                "tempo": 120.0
            },
            {
                "start_time": 51.309090909090905,
                "end_time": 51.38409090909091,
                "pitch": 38,
                "velocity": 101,
                "duration": 0.07500000000000284,
                "tempo": 120.0
            },
            {
                "start_time": 51.429545454545455,
                "end_time": 51.50454545454545,
                "pitch": 31,
                "velocity": 101,
                "duration": 0.07499999999999574,
                "tempo": 120.0
            },
            {
                "start_time": 50.58863636363636,
                "end_time": 51.55,
                "pitch": 0,
                "velocity": 101,
                "duration": 0.961363636363636,
                "tempo": 120.0
            },
            {
                "start_time": 51.55,
                "end_time": 51.625,
                "pitch": 38,
                "velocity": 101,
                "duration": 0.07500000000000284,
                "tempo": 120.0
            },
            {
                "start_time": 37.324999999999996,
                "end_time": 51.67045454545454,
                "pitch": 65,
                "velocity": 101,
                "duration": 14.345454545454544,
                "tempo": 120.0
            },
            {
                "start_time": 51.67045454545454,
                "end_time": 51.85909090909091,
                "pitch": 55,
                "velocity": 101,
                "duration": 0.1886363636363697,
                "tempo": 120.0
            },
            {
                "start_time": 51.902272727272724,
                "end_time": 51.974999999999994,
                "pitch": 55,
                "velocity": 101,
                "duration": 0.07272727272727053,
                "tempo": 120.0
            },
            {
                "start_time": 52.018181818181816,
                "end_time": 52.21363636363636,
                "pitch": 55,
                "velocity": 101,
                "duration": 0.19545454545454533,
                "tempo": 120.0
            },
            {
                "start_time": 52.25909090909091,
                "end_time": 52.334090909090904,
                "pitch": 55,
                "velocity": 101,
                "duration": 0.07499999999999574,
                "tempo": 120.0
            },
            {
                "start_time": 52.37954545454545,
                "end_time": 52.57272727272727,
                "pitch": 55,
                "velocity": 101,
                "duration": 0.19318181818182012,
                "tempo": 120.0
            },
            {
                "start_time": 52.61818181818182,
                "end_time": 52.69318181818181,
                "pitch": 55,
                "velocity": 101,
                "duration": 0.07499999999999574,
                "tempo": 120.0
            },
            {
                "start_time": 52.73863636363636,
                "end_time": 52.934090909090905,
                "pitch": 55,
                "velocity": 101,
                "duration": 0.19545454545454533,
                "tempo": 120.0
            },
            {
                "start_time": 52.97727272727273,
                "end_time": 53.05227272727272,
                "pitch": 55,
                "velocity": 101,
                "duration": 0.07499999999999574,
                "tempo": 120.0
            },
            {
                "start_time": 53.09772727272727,
                "end_time": 53.293181818181814,
                "pitch": 55,
                "velocity": 101,
                "duration": 0.19545454545454533,
                "tempo": 120.0
            },
            {
                "start_time": 53.33863636363636,
                "end_time": 53.413636363636364,
                "pitch": 55,
                "velocity": 101,
                "duration": 0.07500000000000284,
                "tempo": 120.0
            },
            {
                "start_time": 53.459090909090904,
                "end_time": 53.652272727272724,
                "pitch": 55,
                "velocity": 101,
                "duration": 0.19318181818182012,
                "tempo": 120.0
            },
            {
                "start_time": 53.69772727272727,
                "end_time": 53.77272727272727,
                "pitch": 55,
                "velocity": 101,
                "duration": 0.07500000000000284,
                "tempo": 120.0
            },
            {
                "start_time": 53.81818181818181,
                "end_time": 54.01363636363636,
                "pitch": 55,
                "velocity": 101,
                "duration": 0.19545454545454533,
                "tempo": 120.0
            },
            {
                "start_time": 54.059090909090905,
                "end_time": 54.13409090909091,
                "pitch": 55,
                "velocity": 101,
                "duration": 0.07500000000000284,
                "tempo": 120.0
            },
            {
                "start_time": 54.17727272727272,
                "end_time": 54.36818181818182,
                "pitch": 55,
                "velocity": 101,
                "duration": 0.19090909090909491,
                "tempo": 120.0
            },
            {
                "start_time": 54.41136363636363,
                "end_time": 54.48409090909091,
                "pitch": 55,
                "velocity": 101,
                "duration": 0.07272727272727764,
                "tempo": 120.0
            },
            {
                "start_time": 54.527272727272724,
                "end_time": 54.72272727272727,
                "pitch": 55,
                "velocity": 101,
                "duration": 0.19545454545454533,
                "tempo": 120.0
            },
            {
                "start_time": 54.768181818181816,
                "end_time": 54.84318181818182,
                "pitch": 55,
                "velocity": 101,
                "duration": 0.07500000000000284,
                "tempo": 120.0
            },
            {
                "start_time": 54.88863636363636,
                "end_time": 55.08181818181818,
                "pitch": 55,
                "velocity": 101,
                "duration": 0.19318181818182012,
                "tempo": 120.0
            },
            {
                "start_time": 55.127272727272725,
                "end_time": 55.20227272727273,
                "pitch": 55,
                "velocity": 101,
                "duration": 0.07500000000000284,
                "tempo": 120.0
            },
            {
                "start_time": 55.24772727272727,
                "end_time": 55.44318181818181,
                "pitch": 55,
                "velocity": 101,
                "duration": 0.19545454545454533,
                "tempo": 120.0
            },
            {
                "start_time": 55.486363636363635,
                "end_time": 55.56136363636363,
                "pitch": 55,
                "velocity": 101,
                "duration": 0.07499999999999574,
                "tempo": 120.0
            },
            {
                "start_time": 55.60681818181818,
                "end_time": 55.80227272727272,
                "pitch": 55,
                "velocity": 101,
                "duration": 0.19545454545454533,
                "tempo": 120.0
            },
            {
                "start_time": 55.84772727272727,
                "end_time": 55.92272727272727,
                "pitch": 55,
                "velocity": 101,
                "duration": 0.07500000000000284,
                "tempo": 120.0
            },
            {
                "start_time": 55.96818181818182,
                "end_time": 56.16136363636363,
                "pitch": 57,
                "velocity": 101,
                "duration": 0.19318181818181301,
                "tempo": 120.0
            },
            {
                "start_time": 56.20681818181818,
                "end_time": 56.28181818181818,
                "pitch": 57,
                "velocity": 101,
                "duration": 0.07500000000000284,
                "tempo": 120.0
            },
            {
                "start_time": 56.32727272727273,
                "end_time": 56.52272727272727,
                "pitch": 57,
                "velocity": 101,
                "duration": 0.19545454545454533,
                "tempo": 120.0
            },
            {
                "start_time": 56.56818181818181,
                "end_time": 56.64090909090909,
                "pitch": 57,
                "velocity": 101,
                "duration": 0.07272727272727764,
                "tempo": 120.0
            },
            {
                "start_time": 56.68636363636363,
                "end_time": 56.877272727272725,
                "pitch": 57,
                "velocity": 101,
                "duration": 0.19090909090909491,
                "tempo": 120.0
            },
            {
                "start_time": 56.92045454545454,
                "end_time": 56.99318181818182,
                "pitch": 57,
                "velocity": 101,
                "duration": 0.07272727272727764,
                "tempo": 120.0
            },
            {
                "start_time": 57.03636363636363,
                "end_time": 57.23181818181818,
                "pitch": 57,
                "velocity": 101,
                "duration": 0.19545454545454533,
                "tempo": 120.0
            },
            {
                "start_time": 57.277272727272724,
                "end_time": 57.35227272727273,
                "pitch": 57,
                "velocity": 101,
                "duration": 0.07500000000000284,
                "tempo": 120.0
            },
            {
                "start_time": 55.96818181818182,
                "end_time": 57.590909090909086,
                "pitch": 55,
                "velocity": 101,
                "duration": 1.6227272727272677,
                "tempo": 120.0
            },
            {
                "start_time": 57.39772727272727,
                "end_time": 57.590909090909086,
                "pitch": 55,
                "velocity": 101,
                "duration": 0.19318181818181301,
                "tempo": 120.0
            },
            {
                "start_time": 57.63636363636363,
                "end_time": 57.711363636363636,
                "pitch": 55,
                "velocity": 101,
                "duration": 0.07500000000000284,
                "tempo": 120.0
            },
            {
                "start_time": 57.756818181818176,
                "end_time": 57.95227272727272,
                "pitch": 55,
                "velocity": 101,
                "duration": 0.19545454545454533,
                "tempo": 120.0
            },
            {
                "start_time": 57.99545454545454,
                "end_time": 58.070454545454545,
                "pitch": 55,
                "velocity": 101,
                "duration": 0.07500000000000284,
                "tempo": 120.0
            },
            {
                "start_time": 58.115909090909085,
                "end_time": 58.31136363636363,
                "pitch": 55,
                "velocity": 101,
                "duration": 0.19545454545454533,
                "tempo": 120.0
            },
            {
                "start_time": 58.35681818181818,
                "end_time": 58.43181818181818,
                "pitch": 55,
                "velocity": 101,
                "duration": 0.07500000000000284,
                "tempo": 120.0
            },
            {
                "start_time": 58.47727272727273,
                "end_time": 58.67045454545454,
                "pitch": 55,
                "velocity": 101,
                "duration": 0.19318181818181301,
                "tempo": 120.0
            },
            {
                "start_time": 58.715909090909086,
                "end_time": 58.79090909090909,
                "pitch": 55,
                "velocity": 101,
                "duration": 0.07500000000000284,
                "tempo": 120.0
            },
            {
                "start_time": 58.836363636363636,
                "end_time": 59.03181818181818,
                "pitch": 55,
                "velocity": 101,
                "duration": 0.19545454545454533,
                "tempo": 120.0
            },
            {
                "start_time": 59.07727272727272,
                "end_time": 59.15,
                "pitch": 55,
                "velocity": 101,
                "duration": 0.07272727272727764,
                "tempo": 120.0
            },
            {
                "start_time": 59.195454545454545,
                "end_time": 59.38636363636363,
                "pitch": 55,
                "velocity": 101,
                "duration": 0.1909090909090878,
                "tempo": 120.0
            },
            {
                "start_time": 59.429545454545455,
                "end_time": 59.502272727272725,
                "pitch": 55,
                "velocity": 101,
                "duration": 0.07272727272727053,
                "tempo": 120.0
            },
            {
                "start_time": 59.54545454545454,
                "end_time": 59.740909090909085,
                "pitch": 55,
                "velocity": 101,
                "duration": 0.19545454545454533,
                "tempo": 120.0
            },
            {
                "start_time": 59.78636363636363,
                "end_time": 59.861363636363635,
                "pitch": 55,
                "velocity": 101,
                "duration": 0.07500000000000284,
                "tempo": 120.0
            },
            {
                "start_time": 59.90454545454545,
                "end_time": 60.099999999999994,
                "pitch": 55,
                "velocity": 101,
                "duration": 0.19545454545454533,
                "tempo": 120.0
            },
            {
                "start_time": 60.14545454545454,
                "end_time": 60.220454545454544,
                "pitch": 55,
                "velocity": 101,
                "duration": 0.07500000000000284,
                "tempo": 120.0
            },
            {
                "start_time": 60.26590909090909,
                "end_time": 60.459090909090904,
                "pitch": 55,
                "velocity": 101,
                "duration": 0.19318181818181301,
                "tempo": 120.0
            },
            {
                "start_time": 60.50454545454545,
                "end_time": 60.57954545454545,
                "pitch": 55,
                "velocity": 101,
                "duration": 0.07500000000000284,
                "tempo": 120.0
            },
            {
                "start_time": 60.625,
                "end_time": 60.820454545454545,
                "pitch": 55,
                "velocity": 101,
                "duration": 0.19545454545454533,
                "tempo": 120.0
            },
            {
                "start_time": 60.865909090909085,
                "end_time": 60.94090909090909,
                "pitch": 55,
                "velocity": 101,
                "duration": 0.07500000000000284,
                "tempo": 120.0
            },
            {
                "start_time": 60.986363636363635,
                "end_time": 61.179545454545455,
                "pitch": 55,
                "velocity": 101,
                "duration": 0.19318181818182012,
                "tempo": 120.0
            },
            {
                "start_time": 61.224999999999994,
                "end_time": 61.3,
                "pitch": 55,
                "velocity": 101,
                "duration": 0.07500000000000284,
                "tempo": 120.0
            },
            {
                "start_time": 61.345454545454544,
                "end_time": 61.54090909090909,
                "pitch": 55,
                "velocity": 101,
                "duration": 0.19545454545454533,
                "tempo": 120.0
            },
            {
                "start_time": 61.584090909090904,
                "end_time": 61.65909090909091,
                "pitch": 55,
                "velocity": 101,
                "duration": 0.07500000000000284,
                "tempo": 120.0
            },
            {
                "start_time": 51.55,
                "end_time": 61.70454545454545,
                "pitch": 0,
                "velocity": 101,
                "duration": 10.154545454545456,
                "tempo": 120.0
            },
            {
                "start_time": 39.834090909090904,
                "end_time": 61.9,
                "pitch": 50,
                "velocity": 101,
                "duration": 22.065909090909095,
                "tempo": 120.0
            },
            {
                "start_time": 61.70454545454545,
                "end_time": 61.9,
                "pitch": 50,
                "velocity": 101,
                "duration": 0.19545454545454533,
                "tempo": 120.0
            },
            {
                "start_time": 61.945454545454545,
                "end_time": 62.02045454545454,
                "pitch": 50,
                "velocity": 101,
                "duration": 0.07499999999999574,
                "tempo": 120.0
            },
            {
                "start_time": 62.06590909090909,
                "end_time": 62.25454545454545,
                "pitch": 50,
                "velocity": 101,
                "duration": 0.1886363636363626,
                "tempo": 120.0
            },
            {
                "start_time": 62.29772727272727,
                "end_time": 62.37045454545454,
                "pitch": 50,
                "velocity": 101,
                "duration": 0.07272727272727053,
                "tempo": 120.0
            },
            {
                "start_time": 62.413636363636364,
                "end_time": 62.60909090909091,
                "pitch": 50,
                "velocity": 101,
                "duration": 0.19545454545454533,
                "tempo": 120.0
            },
            {
                "start_time": 62.65454545454545,
                "end_time": 62.72954545454545,
                "pitch": 50,
                "velocity": 101,
                "duration": 0.07500000000000284,
                "tempo": 120.0
            },
            {
                "start_time": 62.775,
                "end_time": 62.96818181818181,
                "pitch": 50,
                "velocity": 101,
                "duration": 0.19318181818181301,
                "tempo": 120.0
            },
            {
                "start_time": 63.01363636363636,
                "end_time": 63.08863636363636,
                "pitch": 50,
                "velocity": 101,
                "duration": 0.07500000000000284,
                "tempo": 120.0
            },
            {
                "start_time": 51.67045454545454,
                "end_time": 63.13409090909091,
                "pitch": 65,
                "velocity": 101,
                "duration": 11.463636363636368,
                "tempo": 120.0
            },
            {
                "start_time": 57.39772727272727,
                "end_time": 63.32954545454545,
                "pitch": 57,
                "velocity": 101,
                "duration": 5.93181818181818,
                "tempo": 120.0
            },
            {
                "start_time": 63.13409090909091,
                "end_time": 63.32954545454545,
                "pitch": 57,
                "velocity": 101,
                "duration": 0.19545454545454533,
                "tempo": 120.0
            },
            {
                "start_time": 63.375,
                "end_time": 63.449999999999996,
                "pitch": 57,
                "velocity": 101,
                "duration": 0.07499999999999574,
                "tempo": 120.0
            },
            {
                "start_time": 63.49545454545454,
                "end_time": 63.68863636363636,
                "pitch": 57,
                "velocity": 101,
                "duration": 0.19318181818182012,
                "tempo": 120.0
            },
            {
                "start_time": 63.73409090909091,
                "end_time": 63.809090909090905,
                "pitch": 57,
                "velocity": 101,
                "duration": 0.07499999999999574,
                "tempo": 120.0
            },
            {
                "start_time": 63.85454545454545,
                "end_time": 64.05,
                "pitch": 57,
                "velocity": 101,
                "duration": 0.19545454545454533,
                "tempo": 120.0
            },
            {
                "start_time": 64.09318181818182,
                "end_time": 64.16818181818182,
                "pitch": 57,
                "velocity": 101,
                "duration": 0.07500000000000284,
                "tempo": 120.0
            },
            {
                "start_time": 64.21363636363635,
                "end_time": 64.40227272727273,
                "pitch": 57,
                "velocity": 101,
                "duration": 0.1886363636363768,
                "tempo": 120.0
            },
            {
                "start_time": 64.44772727272726,
                "end_time": 64.52045454545454,
                "pitch": 57,
                "velocity": 101,
                "duration": 0.07272727272727764,
                "tempo": 120.0
            },
            {
                "start_time": 38.76363636363636,
                "end_time": 64.56363636363636,
                "pitch": 19,
                "velocity": 101,
                "duration": 25.800000000000004,
                "tempo": 120.0
            },
            {
                "start_time": 64.56363636363636,
                "end_time": 64.7590909090909,
                "pitch": 50,
                "velocity": 101,
                "duration": 0.19545454545453822,
                "tempo": 120.0
            },
            {
                "start_time": 64.80454545454545,
                "end_time": 64.87727272727273,
                "pitch": 50,
                "velocity": 101,
                "duration": 0.07272727272727764,
                "tempo": 120.0
            },
            {
                "start_time": 64.92272727272727,
                "end_time": 65.11818181818181,
                "pitch": 50,
                "velocity": 101,
                "duration": 0.19545454545453822,
                "tempo": 120.0
            },
            {
                "start_time": 65.16363636363636,
                "end_time": 65.23863636363636,
                "pitch": 50,
                "velocity": 101,
                "duration": 0.07500000000000284,
                "tempo": 120.0
            },
            {
                "start_time": 65.2840909090909,
                "end_time": 65.47727272727272,
                "pitch": 50,
                "velocity": 101,
                "duration": 0.19318181818181301,
                "tempo": 120.0
            },
            {
                "start_time": 65.52272727272727,
                "end_time": 65.59772727272727,
                "pitch": 50,
                "velocity": 101,
                "duration": 0.07500000000000284,
                "tempo": 120.0
            },
            {
                "start_time": 65.64318181818182,
                "end_time": 65.83863636363635,
                "pitch": 50,
                "velocity": 101,
                "duration": 0.19545454545453822,
                "tempo": 120.0
            },
            {
                "start_time": 65.8840909090909,
                "end_time": 65.9590909090909,
                "pitch": 50,
                "velocity": 101,
                "duration": 0.07500000000000284,
                "tempo": 120.0
            },
            {
                "start_time": 63.13409090909091,
                "end_time": 66.00454545454545,
                "pitch": 65,
                "velocity": 101,
                "duration": 2.8704545454545425,
                "tempo": 120.0
            },
            {
                "start_time": 66.00227272727273,
                "end_time": 66.00454545454545,
                "pitch": 65,
                "velocity": 101,
                "duration": 0.0022727272727252057,
                "tempo": 120.0
            },
            {
                "start_time": 66.00454545454545,
                "end_time": 66.19772727272726,
                "pitch": 57,
                "velocity": 101,
                "duration": 0.19318181818181301,
                "tempo": 120.0
            },
            {
                "start_time": 66.24318181818181,
                "end_time": 66.31818181818181,
                "pitch": 57,
                "velocity": 101,
                "duration": 0.07500000000000284,
                "tempo": 120.0
            },
            {
                "start_time": 66.36363636363636,
                "end_time": 66.55909090909091,
                "pitch": 57,
                "velocity": 101,
                "duration": 0.19545454545455243,
                "tempo": 120.0
            },
            {
                "start_time": 66.60227272727272,
                "end_time": 66.67727272727272,
                "pitch": 57,
                "velocity": 101,
                "duration": 0.07500000000000284,
                "tempo": 120.0
            },
            {
                "start_time": 66.72272727272727,
                "end_time": 66.91136363636363,
                "pitch": 57,
                "velocity": 101,
                "duration": 0.1886363636363626,
                "tempo": 120.0
            },
            {
                "start_time": 66.95681818181818,
                "end_time": 67.02954545454546,
                "pitch": 57,
                "velocity": 101,
                "duration": 0.07272727272727764,
                "tempo": 120.0
            },
            {
                "start_time": 67.07272727272726,
                "end_time": 67.27045454545454,
                "pitch": 57,
                "velocity": 101,
                "duration": 0.19772727272727764,
                "tempo": 120.0
            },
            {
                "start_time": 67.31818181818181,
                "end_time": 67.39545454545454,
                "pitch": 57,
                "velocity": 101,
                "duration": 0.07727272727272805,
                "tempo": 120.0
            },
            {
                "start_time": 64.56363636363636,
                "end_time": 67.44090909090909,
                "pitch": 19,
                "velocity": 101,
                "duration": 2.877272727272725,
                "tempo": 120.0
            },
            {
                "start_time": 67.44090909090909,
                "end_time": 67.62954545454545,
                "pitch": 50,
                "velocity": 101,
                "duration": 0.1886363636363626,
                "tempo": 120.0
            },
            {
                "start_time": 67.675,
                "end_time": 67.74545454545454,
                "pitch": 50,
                "velocity": 101,
                "duration": 0.07045454545453822,
                "tempo": 120.0
            },
            {
                "start_time": 67.79090909090908,
                "end_time": 67.98409090909091,
                "pitch": 50,
                "velocity": 101,
                "duration": 0.19318181818182723,
                "tempo": 120.0
            },
            {
                "start_time": 68.02954545454546,
                "end_time": 68.10454545454544,
                "pitch": 50,
                "velocity": 101,
                "duration": 0.07499999999998863,
                "tempo": 120.0
            },
            {
                "start_time": 68.14999999999999,
                "end_time": 68.34545454545454,
                "pitch": 50,
                "velocity": 101,
                "duration": 0.19545454545455243,
                "tempo": 120.0
            },
            {
                "start_time": 68.39090909090909,
                "end_time": 68.4659090909091,
                "pitch": 50,
                "velocity": 101,
                "duration": 0.07500000000000284,
                "tempo": 120.0
            },
            {
                "start_time": 68.51136363636363,
                "end_time": 68.70454545454545,
                "pitch": 54,
                "velocity": 101,
                "duration": 0.19318181818182723,
                "tempo": 120.0
            },
            {
                "start_time": 68.75,
                "end_time": 68.825,
                "pitch": 54,
                "velocity": 101,
                "duration": 0.07500000000000284,
                "tempo": 120.0
            },
            {
                "start_time": 40.19318181818181,
                "end_time": 68.89999999999999,
                "pitch": 42,
                "velocity": 101,
                "duration": 28.70681818181818,
                "tempo": 120.0
            },
            {
                "start_time": 68.89999999999999,
                "end_time": 69.10681818181818,
                "pitch": 31,
                "velocity": 101,
                "duration": 0.20681818181819267,
                "tempo": 120.0
            },
            {
                "start_time": 69.15454545454546,
                "end_time": 69.23181818181818,
                "pitch": 31,
                "velocity": 101,
                "duration": 0.07727272727272805,
                "tempo": 120.0
            },
            {
                "start_time": 69.28181818181818,
                "end_time": 69.475,
                "pitch": 31,
                "velocity": 101,
                "duration": 0.19318181818181301,
                "tempo": 120.0
            },
            {
                "start_time": 69.52045454545454,
                "end_time": 69.59545454545454,
                "pitch": 31,
                "velocity": 101,
                "duration": 0.07500000000000284,
                "tempo": 120.0
            },
            {
                "start_time": 69.64090909090909,
                "end_time": 69.83636363636363,
                "pitch": 31,
                "velocity": 101,
                "duration": 0.19545454545453822,
                "tempo": 120.0
            },
            {
                "start_time": 69.87954545454545,
                "end_time": 69.95454545454545,
                "pitch": 31,
                "velocity": 101,
                "duration": 0.07500000000000284,
                "tempo": 120.0
            },
            {
                "start_time": 70.0,
                "end_time": 70.19545454545454,
                "pitch": 31,
                "velocity": 101,
                "duration": 0.19545454545453822,
                "tempo": 120.0
            },
            {
                "start_time": 70.24090909090908,
                "end_time": 70.31590909090909,
                "pitch": 31,
                "velocity": 101,
                "duration": 0.07500000000000284,
                "tempo": 120.0
            },
            {
                "start_time": 70.36136363636363,
                "end_time": 70.55454545454545,
                "pitch": 31,
                "velocity": 101,
                "duration": 0.19318181818181301,
                "tempo": 120.0
            },
            {
                "start_time": 70.6,
                "end_time": 70.675,
                "pitch": 31,
                "velocity": 101,
                "duration": 0.07500000000000284,
                "tempo": 120.0
            },
            {
                "start_time": 70.72045454545454,
                "end_time": 70.91590909090908,
                "pitch": 31,
                "velocity": 101,
                "duration": 0.19545454545453822,
                "tempo": 120.0
            },
            {
                "start_time": 70.96136363636363,
                "end_time": 71.03636363636363,
                "pitch": 31,
                "velocity": 101,
                "duration": 0.07500000000000284,
                "tempo": 120.0
            },
            {
                "start_time": 71.08181818181818,
                "end_time": 71.27045454545454,
                "pitch": 31,
                "velocity": 101,
                "duration": 0.1886363636363626,
                "tempo": 120.0
            },
            {
                "start_time": 71.31363636363636,
                "end_time": 71.38636363636363,
                "pitch": 31,
                "velocity": 101,
                "duration": 0.07272727272726343,
                "tempo": 120.0
            },
            {
                "start_time": 71.42954545454545,
                "end_time": 71.625,
                "pitch": 31,
                "velocity": 101,
                "duration": 0.19545454545455243,
                "tempo": 120.0
            },
            {
                "start_time": 71.67045454545455,
                "end_time": 71.74545454545454,
                "pitch": 31,
                "velocity": 101,
                "duration": 0.07499999999998863,
                "tempo": 120.0
            },
            {
                "start_time": 71.79090909090908,
                "end_time": 71.98863636363636,
                "pitch": 31,
                "velocity": 101,
                "duration": 0.19772727272727764,
                "tempo": 120.0
            },
            {
                "start_time": 72.03636363636363,
                "end_time": 72.11136363636363,
                "pitch": 31,
                "velocity": 101,
                "duration": 0.07500000000000284,
                "tempo": 120.0
            },
            {
                "start_time": 72.1590909090909,
                "end_time": 72.34772727272727,
                "pitch": 31,
                "velocity": 101,
                "duration": 0.1886363636363626,
                "tempo": 120.0
            },
            {
                "start_time": 72.39090909090909,
                "end_time": 72.46363636363635,
                "pitch": 31,
                "velocity": 101,
                "duration": 0.07272727272726343,
                "tempo": 120.0
            },
            {
                "start_time": 72.5090909090909,
                "end_time": 72.70227272727273,
                "pitch": 31,
                "velocity": 101,
                "duration": 0.19318181818182723,
                "tempo": 120.0
            },
            {
                "start_time": 72.74772727272727,
                "end_time": 72.82272727272726,
                "pitch": 31,
                "velocity": 101,
                "duration": 0.07499999999998863,
                "tempo": 120.0
            },
            {
                "start_time": 72.86818181818181,
                "end_time": 73.06136363636364,
                "pitch": 31,
                "velocity": 101,
                "duration": 0.19318181818182723,
                "tempo": 120.0
            },
            {
                "start_time": 73.10681818181818,
                "end_time": 73.18181818181817,
                "pitch": 31,
                "velocity": 101,
                "duration": 0.07499999999998863,
                "tempo": 120.0
            },
            {
                "start_time": 73.22727272727272,
                "end_time": 73.42272727272727,
                "pitch": 31,
                "velocity": 101,
                "duration": 0.19545454545455243,
                "tempo": 120.0
            },
            {
                "start_time": 73.46818181818182,
                "end_time": 73.54318181818182,
                "pitch": 31,
                "velocity": 101,
                "duration": 0.07500000000000284,
                "tempo": 120.0
            },
            {
                "start_time": 73.58863636363635,
                "end_time": 73.77727272727272,
                "pitch": 31,
                "velocity": 101,
                "duration": 0.1886363636363626,
                "tempo": 120.0
            },
            {
                "start_time": 73.82045454545454,
                "end_time": 73.89318181818182,
                "pitch": 31,
                "velocity": 101,
                "duration": 0.07272727272727764,
                "tempo": 120.0
            },
            {
                "start_time": 73.93636363636364,
                "end_time": 74.13181818181818,
                "pitch": 31,
                "velocity": 101,
                "duration": 0.19545454545453822,
                "tempo": 120.0
            },
            {
                "start_time": 74.17727272727272,
                "end_time": 74.25227272727273,
                "pitch": 31,
                "velocity": 101,
                "duration": 0.07500000000000284,
                "tempo": 120.0
            },
            {
                "start_time": 74.29772727272727,
                "end_time": 74.49090909090908,
                "pitch": 31,
                "velocity": 101,
                "duration": 0.19318181818181301,
                "tempo": 120.0
            },
            {
                "start_time": 74.53636363636363,
                "end_time": 74.61136363636363,
                "pitch": 31,
                "velocity": 101,
                "duration": 0.07500000000000284,
                "tempo": 120.0
            },
            {
                "start_time": 74.65681818181818,
                "end_time": 74.85681818181818,
                "pitch": 31,
                "velocity": 101,
                "duration": 0.20000000000000284,
                "tempo": 120.0
            },
            {
                "start_time": 74.90227272727272,
                "end_time": 74.97954545454544,
                "pitch": 31,
                "velocity": 101,
                "duration": 0.07727272727272805,
                "tempo": 120.0
            },
            {
                "start_time": 75.02499999999999,
                "end_time": 75.21363636363635,
                "pitch": 31,
                "velocity": 101,
                "duration": 0.1886363636363626,
                "tempo": 120.0
            },
            {
                "start_time": 75.2590909090909,
                "end_time": 75.33181818181818,
                "pitch": 31,
                "velocity": 101,
                "duration": 0.07272727272727764,
                "tempo": 120.0
            },
            {
                "start_time": 75.375,
                "end_time": 75.57045454545454,
                "pitch": 31,
                "velocity": 101,
                "duration": 0.19545454545453822,
                "tempo": 120.0
            },
            {
                "start_time": 75.61363636363636,
                "end_time": 75.68863636363636,
                "pitch": 31,
                "velocity": 101,
                "duration": 0.07500000000000284,
                "tempo": 120.0
            },
            {
                "start_time": 75.73409090909091,
                "end_time": 75.92954545454545,
                "pitch": 31,
                "velocity": 101,
                "duration": 0.19545454545453822,
                "tempo": 120.0
            },
            {
                "start_time": 75.975,
                "end_time": 76.05,
                "pitch": 31,
                "velocity": 101,
                "duration": 0.07500000000000284,
                "tempo": 120.0
            },
            {
                "start_time": 76.09545454545454,
                "end_time": 76.28863636363636,
                "pitch": 31,
                "velocity": 101,
                "duration": 0.19318181818181301,
                "tempo": 120.0
            },
            {
                "start_time": 76.3340909090909,
                "end_time": 76.4090909090909,
                "pitch": 31,
                "velocity": 101,
                "duration": 0.07500000000000284,
                "tempo": 120.0
            },
            {
                "start_time": 76.45454545454545,
                "end_time": 76.64318181818182,
                "pitch": 31,
                "velocity": 101,
                "duration": 0.1886363636363626,
                "tempo": 120.0
            },
            {
                "start_time": 76.68636363636364,
                "end_time": 76.7590909090909,
                "pitch": 31,
                "velocity": 101,
                "duration": 0.07272727272726343,
                "tempo": 120.0
            },
            {
                "start_time": 76.80454545454545,
                "end_time": 76.99772727272727,
                "pitch": 31,
                "velocity": 101,
                "duration": 0.19318181818182723,
                "tempo": 120.0
            },
            {
                "start_time": 77.04318181818182,
                "end_time": 77.11818181818181,
                "pitch": 31,
                "velocity": 101,
                "duration": 0.07499999999998863,
                "tempo": 120.0
            },
            {
                "start_time": 77.16363636363636,
                "end_time": 77.35909090909091,
                "pitch": 31,
                "velocity": 101,
                "duration": 0.19545454545455243,
                "tempo": 120.0
            },
            {
                "start_time": 77.40454545454546,
                "end_time": 77.47954545454544,
                "pitch": 31,
                "velocity": 101,
                "duration": 0.07499999999998863,
                "tempo": 120.0
            },
            {
                "start_time": 77.52499999999999,
                "end_time": 77.71818181818182,
                "pitch": 31,
                "velocity": 101,
                "duration": 0.19318181818182723,
                "tempo": 120.0
            },
            {
                "start_time": 77.76363636363637,
                "end_time": 77.83863636363635,
                "pitch": 31,
                "velocity": 101,
                "duration": 0.07499999999998863,
                "tempo": 120.0
            },
            {
                "start_time": 77.8840909090909,
                "end_time": 78.07954545454545,
                "pitch": 31,
                "velocity": 101,
                "duration": 0.19545454545455243,
                "tempo": 120.0
            },
            {
                "start_time": 78.12272727272727,
                "end_time": 78.19772727272726,
                "pitch": 31,
                "velocity": 101,
                "duration": 0.07499999999998863,
                "tempo": 120.0
            },
            {
                "start_time": 78.24318181818181,
                "end_time": 78.43863636363636,
                "pitch": 31,
                "velocity": 101,
                "duration": 0.19545454545455243,
                "tempo": 120.0
            },
            {
                "start_time": 78.48409090909091,
                "end_time": 78.55909090909091,
                "pitch": 31,
                "velocity": 101,
                "duration": 0.07500000000000284,
                "tempo": 120.0
            },
            {
                "start_time": 78.60454545454544,
                "end_time": 78.79772727272727,
                "pitch": 31,
                "velocity": 101,
                "duration": 0.19318181818182723,
                "tempo": 120.0
            },
            {
                "start_time": 78.84318181818182,
                "end_time": 78.91818181818181,
                "pitch": 31,
                "velocity": 101,
                "duration": 0.07499999999998863,
                "tempo": 120.0
            },
            {
                "start_time": 78.96363636363635,
                "end_time": 79.03863636363636,
                "pitch": 31,
                "velocity": 101,
                "duration": 0.07500000000000284,
                "tempo": 120.0
            },
            {
                "start_time": 79.0840909090909,
                "end_time": 79.1590909090909,
                "pitch": 43,
                "velocity": 101,
                "duration": 0.07500000000000284,
                "tempo": 120.0
            },
            {
                "start_time": 79.20454545454545,
                "end_time": 79.27727272727272,
                "pitch": 43,
                "velocity": 101,
                "duration": 0.07272727272726343,
                "tempo": 120.0
            },
            {
                "start_time": 79.32272727272726,
                "end_time": 79.39545454545454,
                "pitch": 43,
                "velocity": 101,
                "duration": 0.07272727272727764,
                "tempo": 120.0
            },
            {
                "start_time": 79.44090909090909,
                "end_time": 79.51363636363637,
                "pitch": 43,
                "velocity": 101,
                "duration": 0.07272727272727764,
                "tempo": 120.0
            },
            {
                "start_time": 79.55681818181817,
                "end_time": 79.62954545454545,
                "pitch": 43,
                "velocity": 101,
                "duration": 0.07272727272727764,
                "tempo": 120.0
            },
            {
                "start_time": 79.67272727272727,
                "end_time": 79.74772727272727,
                "pitch": 43,
                "velocity": 101,
                "duration": 0.07500000000000284,
                "tempo": 120.0
            },
            {
                "start_time": 79.79318181818181,
                "end_time": 79.86818181818181,
                "pitch": 43,
                "velocity": 101,
                "duration": 0.07500000000000284,
                "tempo": 120.0
            },
            {
                "start_time": 79.91363636363636,
                "end_time": 79.98863636363636,
                "pitch": 43,
                "velocity": 101,
                "duration": 0.07500000000000284,
                "tempo": 120.0
            },
            {
                "start_time": 80.03181818181818,
                "end_time": 80.10681818181818,
                "pitch": 43,
                "velocity": 101,
                "duration": 0.07500000000000284,
                "tempo": 120.0
            },
            {
                "start_time": 80.15227272727272,
                "end_time": 80.22727272727272,
                "pitch": 43,
                "velocity": 101,
                "duration": 0.07500000000000284,
                "tempo": 120.0
            },
            {
                "start_time": 80.27272727272727,
                "end_time": 80.34772727272727,
                "pitch": 43,
                "velocity": 101,
                "duration": 0.07500000000000284,
                "tempo": 120.0
            },
            {
                "start_time": 80.39318181818182,
                "end_time": 80.58863636363635,
                "pitch": 43,
                "velocity": 127,
                "duration": 0.19545454545453822,
                "tempo": 120.0
            },
            {
                "start_time": 80.63181818181818,
                "end_time": 80.70681818181818,
                "pitch": 43,
                "velocity": 127,
                "duration": 0.07500000000000284,
                "tempo": 120.0
            },
            {
                "start_time": 80.75227272727273,
                "end_time": 80.82727272727273,
                "pitch": 43,
                "velocity": 127,
                "duration": 0.07500000000000284,
                "tempo": 120.0
            },
            {
                "start_time": 80.87272727272727,
                "end_time": 80.94772727272726,
                "pitch": 43,
                "velocity": 127,
                "duration": 0.07499999999998863,
                "tempo": 120.0
            },
            {
                "start_time": 80.99318181818181,
                "end_time": 81.06818181818181,
                "pitch": 43,
                "velocity": 127,
                "duration": 0.07500000000000284,
                "tempo": 120.0
            },
            {
                "start_time": 81.11363636363636,
                "end_time": 81.30227272727272,
                "pitch": 43,
                "velocity": 127,
                "duration": 0.1886363636363626,
                "tempo": 120.0
            },
            {
                "start_time": 81.34545454545454,
                "end_time": 81.41818181818181,
                "pitch": 43,
                "velocity": 127,
                "duration": 0.07272727272726343,
                "tempo": 120.0
            },
            {
                "start_time": 81.46136363636363,
                "end_time": 81.53863636363636,
                "pitch": 43,
                "velocity": 127,
                "duration": 0.07727272727272805,
                "tempo": 120.0
            },
            {
                "start_time": 81.5840909090909,
                "end_time": 81.66136363636363,
                "pitch": 43,
                "velocity": 127,
                "duration": 0.07727272727272805,
                "tempo": 120.0
            },
            {
                "start_time": 81.70681818181818,
                "end_time": 81.7840909090909,
                "pitch": 43,
                "velocity": 127,
                "duration": 0.07727272727272805,
                "tempo": 120.0
            },
            {
                "start_time": 81.82954545454545,
                "end_time": 82.02045454545454,
                "pitch": 43,
                "velocity": 127,
                "duration": 0.1909090909090878,
                "tempo": 120.0
            },
            {
                "start_time": 82.06363636363636,
                "end_time": 82.13636363636363,
                "pitch": 43,
                "velocity": 127,
                "duration": 0.07272727272726343,
                "tempo": 120.0
            },
            {
                "start_time": 82.17954545454545,
                "end_time": 82.25454545454545,
                "pitch": 43,
                "velocity": 127,
                "duration": 0.07500000000000284,
                "tempo": 120.0
            },
            {
                "start_time": 82.3,
                "end_time": 82.375,
                "pitch": 43,
                "velocity": 127,
                "duration": 0.07500000000000284,
                "tempo": 120.0
            },
            {
                "start_time": 82.42045454545455,
                "end_time": 82.49545454545454,
                "pitch": 43,
                "velocity": 127,
                "duration": 0.07499999999998863,
                "tempo": 120.0
            },
            {
                "start_time": 82.54090909090908,
                "end_time": 82.73409090909091,
                "pitch": 43,
                "velocity": 127,
                "duration": 0.19318181818182723,
                "tempo": 120.0
            },
            {
                "start_time": 82.77954545454546,
                "end_time": 82.85454545454544,
                "pitch": 43,
                "velocity": 127,
                "duration": 0.07499999999998863,
                "tempo": 120.0
            },
            {
                "start_time": 82.89999999999999,
                "end_time": 82.975,
                "pitch": 43,
                "velocity": 127,
                "duration": 0.07500000000000284,
                "tempo": 120.0
            },
            {
                "start_time": 83.02045454545454,
                "end_time": 83.09318181818182,
                "pitch": 43,
                "velocity": 127,
                "duration": 0.07272727272727764,
                "tempo": 120.0
            },
            {
                "start_time": 83.13863636363637,
                "end_time": 83.21363636363635,
                "pitch": 43,
                "velocity": 127,
                "duration": 0.07499999999998863,
                "tempo": 120.0
            },
            {
                "start_time": 83.2590909090909,
                "end_time": 83.45454545454545,
                "pitch": 43,
                "velocity": 127,
                "duration": 0.19545454545455243,
                "tempo": 120.0
            },
            {
                "start_time": 83.5,
                "end_time": 83.575,
                "pitch": 43,
                "velocity": 127,
                "duration": 0.07500000000000284,
                "tempo": 120.0
            },
            {
                "start_time": 83.62045454545454,
                "end_time": 83.69318181818181,
                "pitch": 43,
                "velocity": 127,
                "duration": 0.07272727272727764,
                "tempo": 120.0
            },
            {
                "start_time": 83.73863636363636,
                "end_time": 83.81363636363636,
                "pitch": 43,
                "velocity": 127,
                "duration": 0.07500000000000284,
                "tempo": 120.0
            },
            {
                "start_time": 83.85909090909091,
                "end_time": 83.9340909090909,
                "pitch": 43,
                "velocity": 127,
                "duration": 0.07499999999998863,
                "tempo": 120.0
            },
            {
                "start_time": 83.97954545454544,
                "end_time": 84.16818181818181,
                "pitch": 43,
                "velocity": 127,
                "duration": 0.1886363636363626,
                "tempo": 120.0
            },
            {
                "start_time": 84.21136363636363,
                "end_time": 84.2840909090909,
                "pitch": 43,
                "velocity": 127,
                "duration": 0.07272727272727764,
                "tempo": 120.0
            },
            {
                "start_time": 84.32954545454545,
                "end_time": 84.40454545454546,
                "pitch": 43,
                "velocity": 127,
                "duration": 0.07500000000000284,
                "tempo": 120.0
            },
            {
                "start_time": 84.44772727272726,
                "end_time": 84.52272727272727,
                "pitch": 43,
                "velocity": 127,
                "duration": 0.07500000000000284,
                "tempo": 120.0
            },
            {
                "start_time": 84.56818181818181,
                "end_time": 84.64318181818182,
                "pitch": 43,
                "velocity": 127,
                "duration": 0.07500000000000284,
                "tempo": 120.0
            },
            {
                "start_time": 84.68863636363636,
                "end_time": 84.8840909090909,
                "pitch": 43,
                "velocity": 127,
                "duration": 0.19545454545453822,
                "tempo": 120.0
            },
            {
                "start_time": 84.92954545454545,
                "end_time": 85.00227272727273,
                "pitch": 43,
                "velocity": 127,
                "duration": 0.07272727272727764,
                "tempo": 120.0
            },
            {
                "start_time": 85.04772727272727,
                "end_time": 85.12272727272727,
                "pitch": 43,
                "velocity": 127,
                "duration": 0.07500000000000284,
                "tempo": 120.0
            },
            {
                "start_time": 85.16818181818181,
                "end_time": 85.24318181818181,
                "pitch": 43,
                "velocity": 127,
                "duration": 0.07500000000000284,
                "tempo": 120.0
            },
            {
                "start_time": 85.28863636363636,
                "end_time": 85.36363636363636,
                "pitch": 43,
                "velocity": 127,
                "duration": 0.07500000000000284,
                "tempo": 120.0
            },
            {
                "start_time": 85.4090909090909,
                "end_time": 85.60227272727272,
                "pitch": 43,
                "velocity": 127,
                "duration": 0.19318181818181301,
                "tempo": 120.0
            },
            {
                "start_time": 85.64772727272727,
                "end_time": 85.72272727272727,
                "pitch": 43,
                "velocity": 127,
                "duration": 0.07500000000000284,
                "tempo": 120.0
            },
            {
                "start_time": 85.76818181818182,
                "end_time": 85.84318181818182,
                "pitch": 43,
                "velocity": 127,
                "duration": 0.07500000000000284,
                "tempo": 120.0
            },
            {
                "start_time": 85.88863636363637,
                "end_time": 85.96363636363635,
                "pitch": 43,
                "velocity": 127,
                "duration": 0.07499999999998863,
                "tempo": 120.0
            },
            {
                "start_time": 86.0090909090909,
                "end_time": 86.0840909090909,
                "pitch": 43,
                "velocity": 127,
                "duration": 0.07500000000000284,
                "tempo": 120.0
            },
            {
                "start_time": 86.12954545454545,
                "end_time": 86.32272727272726,
                "pitch": 43,
                "velocity": 127,
                "duration": 0.19318181818181301,
                "tempo": 120.0
            },
            {
                "start_time": 86.36818181818181,
                "end_time": 86.44318181818181,
                "pitch": 43,
                "velocity": 127,
                "duration": 0.07500000000000284,
                "tempo": 120.0
            },
            {
                "start_time": 86.48863636363636,
                "end_time": 86.56136363636364,
                "pitch": 43,
                "velocity": 127,
                "duration": 0.07272727272727764,
                "tempo": 120.0
            },
            {
                "start_time": 86.60454545454544,
                "end_time": 86.67727272727272,
                "pitch": 43,
                "velocity": 127,
                "duration": 0.07272727272727764,
                "tempo": 120.0
            },
            {
                "start_time": 86.72045454545454,
                "end_time": 86.79318181818181,
                "pitch": 43,
                "velocity": 127,
                "duration": 0.07272727272726343,
                "tempo": 120.0
            },
            {
                "start_time": 86.83863636363635,
                "end_time": 87.03181818181818,
                "pitch": 43,
                "velocity": 127,
                "duration": 0.19318181818182723,
                "tempo": 120.0
            },
            {
                "start_time": 87.07727272727273,
                "end_time": 87.15227272727272,
                "pitch": 43,
                "velocity": 127,
                "duration": 0.07499999999998863,
                "tempo": 120.0
            },
            {
                "start_time": 87.19772727272726,
                "end_time": 87.27272727272727,
                "pitch": 43,
                "velocity": 127,
                "duration": 0.07500000000000284,
                "tempo": 120.0
            },
            {
                "start_time": 87.31818181818181,
                "end_time": 87.39318181818182,
                "pitch": 43,
                "velocity": 127,
                "duration": 0.07500000000000284,
                "tempo": 120.0
            },
            {
                "start_time": 87.43863636363636,
                "end_time": 87.51136363636363,
                "pitch": 43,
                "velocity": 127,
                "duration": 0.07272727272726343,
                "tempo": 120.0
            },
            {
                "start_time": 87.55681818181817,
                "end_time": 87.75227272727273,
                "pitch": 43,
                "velocity": 127,
                "duration": 0.19545454545455243,
                "tempo": 120.0
            },
            {
                "start_time": 87.79772727272727,
                "end_time": 87.87272727272727,
                "pitch": 43,
                "velocity": 127,
                "duration": 0.07500000000000284,
                "tempo": 120.0
            },
            {
                "start_time": 87.91818181818181,
                "end_time": 87.99318181818181,
                "pitch": 43,
                "velocity": 127,
                "duration": 0.07500000000000284,
                "tempo": 120.0
            },
            {
                "start_time": 88.03863636363636,
                "end_time": 88.11136363636363,
                "pitch": 43,
                "velocity": 127,
                "duration": 0.07272727272727764,
                "tempo": 120.0
            },
            {
                "start_time": 88.15681818181818,
                "end_time": 88.23181818181818,
                "pitch": 43,
                "velocity": 127,
                "duration": 0.07500000000000284,
                "tempo": 120.0
            },
            {
                "start_time": 88.27727272727272,
                "end_time": 88.47272727272727,
                "pitch": 43,
                "velocity": 127,
                "duration": 0.19545454545455243,
                "tempo": 120.0
            },
            {
                "start_time": 88.51818181818182,
                "end_time": 88.59318181818182,
                "pitch": 43,
                "velocity": 127,
                "duration": 0.07500000000000284,
                "tempo": 120.0
            },
            {
                "start_time": 88.63636363636363,
                "end_time": 88.71136363636363,
                "pitch": 43,
                "velocity": 127,
                "duration": 0.07500000000000284,
                "tempo": 120.0
            },
            {
                "start_time": 88.75681818181818,
                "end_time": 88.83181818181818,
                "pitch": 43,
                "velocity": 127,
                "duration": 0.07500000000000284,
                "tempo": 120.0
            },
            {
                "start_time": 88.87727272727273,
                "end_time": 88.95227272727273,
                "pitch": 43,
                "velocity": 127,
                "duration": 0.07500000000000284,
                "tempo": 120.0
            },
            {
                "start_time": 88.99772727272727,
                "end_time": 89.19318181818181,
                "pitch": 43,
                "velocity": 127,
                "duration": 0.19545454545453822,
                "tempo": 120.0
            },
            {
                "start_time": 89.23636363636363,
                "end_time": 89.31136363636364,
                "pitch": 43,
                "velocity": 127,
                "duration": 0.07500000000000284,
                "tempo": 120.0
            },
            {
                "start_time": 89.35681818181818,
                "end_time": 89.42954545454545,
                "pitch": 43,
                "velocity": 127,
                "duration": 0.07272727272726343,
                "tempo": 120.0
            },
            {
                "start_time": 89.47272727272727,
                "end_time": 89.54545454545455,
                "pitch": 43,
                "velocity": 127,
                "duration": 0.07272727272727764,
                "tempo": 120.0
            },
            {
                "start_time": 89.5909090909091,
                "end_time": 89.66363636363636,
                "pitch": 43,
                "velocity": 127,
                "duration": 0.07272727272726343,
                "tempo": 120.0
            },
            {
                "start_time": 89.70681818181818,
                "end_time": 89.90227272727272,
                "pitch": 43,
                "velocity": 127,
                "duration": 0.19545454545453822,
                "tempo": 120.0
            },
            {
                "start_time": 89.94772727272726,
                "end_time": 90.02045454545454,
                "pitch": 43,
                "velocity": 127,
                "duration": 0.07272727272727764,
                "tempo": 120.0
            },
            {
                "start_time": 90.06590909090909,
                "end_time": 90.14090909090909,
                "pitch": 43,
                "velocity": 127,
                "duration": 0.07500000000000284,
                "tempo": 120.0
            },
            {
                "start_time": 90.18636363636364,
                "end_time": 90.26136363636363,
                "pitch": 43,
                "velocity": 127,
                "duration": 0.07499999999998863,
                "tempo": 120.0
            },
            {
                "start_time": 90.30681818181817,
                "end_time": 90.38181818181818,
                "pitch": 43,
                "velocity": 127,
                "duration": 0.07500000000000284,
                "tempo": 120.0
            },
            {
                "start_time": 90.42727272727272,
                "end_time": 90.62045454545454,
                "pitch": 31,
                "velocity": 127,
                "duration": 0.19318181818181301,
                "tempo": 120.0
            },
            {
                "start_time": 90.66590909090908,
                "end_time": 90.74090909090908,
                "pitch": 31,
                "velocity": 127,
                "duration": 0.07500000000000284,
                "tempo": 120.0
            },
            {
                "start_time": 90.78636363636363,
                "end_time": 90.86136363636363,
                "pitch": 31,
                "velocity": 127,
                "duration": 0.07500000000000284,
                "tempo": 120.0
            },
            {
                "start_time": 90.90681818181818,
                "end_time": 90.98181818181818,
                "pitch": 43,
                "velocity": 127,
                "duration": 0.07500000000000284,
                "tempo": 120.0
            },
            {
                "start_time": 91.02727272727272,
                "end_time": 91.10227272727272,
                "pitch": 31,
                "velocity": 127,
                "duration": 0.07500000000000284,
                "tempo": 120.0
            },
            {
                "start_time": 91.14545454545454,
                "end_time": 91.3409090909091,
                "pitch": 31,
                "velocity": 127,
                "duration": 0.19545454545455243,
                "tempo": 120.0
            },
            {
                "start_time": 91.38636363636363,
                "end_time": 91.46136363636363,
                "pitch": 31,
                "velocity": 127,
                "duration": 0.07500000000000284,
                "tempo": 120.0
            },
            {
                "start_time": 91.50681818181818,
                "end_time": 91.58181818181818,
                "pitch": 31,
                "velocity": 127,
                "duration": 0.07500000000000284,
                "tempo": 120.0
            },
            {
                "start_time": 91.62727272727273,
                "end_time": 91.70227272727273,
                "pitch": 43,
                "velocity": 127,
                "duration": 0.07500000000000284,
                "tempo": 120.0
            },
            {
                "start_time": 91.74545454545454,
                "end_time": 91.82045454545454,
                "pitch": 31,
                "velocity": 127,
                "duration": 0.07500000000000284,
                "tempo": 120.0
            },
            {
                "start_time": 91.86590909090908,
                "end_time": 91.88181818181818,
                "pitch": 31,
                "velocity": 101,
                "duration": 0.01590909090909065,
                "tempo": 120.0
            }
        ],
        "Acoustic Grand Piano": [
            {
                "start_time": 11.159090909090908,
                "end_time": 11.261363636363637,
                "pitch": 67,
                "velocity": 127,
                "duration": 0.1022727272727284,
                "tempo": 120.0
            },
            {
                "start_time": 11.277272727272727,
                "end_time": 11.381818181818181,
                "pitch": 67,
                "velocity": 127,
                "duration": 0.10454545454545361,
                "tempo": 120.0
            },
            {
                "start_time": 11.397727272727272,
                "end_time": 11.502272727272727,
                "pitch": 67,
                "velocity": 127,
                "duration": 0.10454545454545539,
                "tempo": 120.0
            }
        ],
        "Trumpet": [
            {
                "start_time": 34.45909090909091,
                "end_time": 34.711363636363636,
                "pitch": 76,
                "velocity": 101,
                "duration": 0.2522727272727252,
                "tempo": 120.0
            },
            {
                "start_time": 34.45909090909091,
                "end_time": 35.070454545454545,
                "pitch": 74,
                "velocity": 101,
                "duration": 0.6113636363636346,
                "tempo": 120.0
            },
            {
                "start_time": 34.81818181818181,
                "end_time": 35.070454545454545,
                "pitch": 74,
                "velocity": 101,
                "duration": 0.2522727272727323,
                "tempo": 120.0
            },
            {
                "start_time": 35.17727272727272,
                "end_time": 35.43181818181818,
                "pitch": 74,
                "velocity": 101,
                "duration": 0.2545454545454575,
                "tempo": 120.0
            },
            {
                "start_time": 35.538636363636364,
                "end_time": 35.79090909090909,
                "pitch": 78,
                "velocity": 101,
                "duration": 0.2522727272727252,
                "tempo": 120.0
            },
            {
                "start_time": 35.89772727272727,
                "end_time": 36.15,
                "pitch": 78,
                "velocity": 101,
                "duration": 0.2522727272727252,
                "tempo": 120.0
            },
            {
                "start_time": 34.81818181818181,
                "end_time": 36.25681818181818,
                "pitch": 76,
                "velocity": 101,
                "duration": 1.4386363636363697,
                "tempo": 120.0
            },
            {
                "start_time": 35.538636363636364,
                "end_time": 36.51136363636363,
                "pitch": 74,
                "velocity": 101,
                "duration": 0.9727272727272691,
                "tempo": 120.0
            },
            {
                "start_time": 36.25681818181818,
                "end_time": 36.51136363636363,
                "pitch": 74,
                "velocity": 101,
                "duration": 0.2545454545454504,
                "tempo": 120.0
            },
            {
                "start_time": 36.61818181818182,
                "end_time": 36.87045454545454,
                "pitch": 74,
                "velocity": 101,
                "duration": 0.2522727272727252,
                "tempo": 120.0
            },
            {
                "start_time": 36.97727272727273,
                "end_time": 37.22272727272727,
                "pitch": 66,
                "velocity": 101,
                "duration": 0.24545454545454248,
                "tempo": 120.0
            },
            {
                "start_time": 37.32727272727273,
                "end_time": 37.4,
                "pitch": 67,
                "velocity": 101,
                "duration": 0.07272727272727053,
                "tempo": 120.0
            },
            {
                "start_time": 37.445454545454545,
                "end_time": 37.52045454545454,
                "pitch": 72,
                "velocity": 101,
                "duration": 0.07499999999999574,
                "tempo": 120.0
            },
            {
                "start_time": 36.25681818181818,
                "end_time": 37.56590909090909,
                "pitch": 76,
                "velocity": 101,
                "duration": 1.309090909090905,
                "tempo": 120.0
            },
            {
                "start_time": 37.56590909090909,
                "end_time": 37.64090909090909,
                "pitch": 67,
                "velocity": 101,
                "duration": 0.07500000000000284,
                "tempo": 120.0
            },
            {
                "start_time": 37.68636363636364,
                "end_time": 37.75909090909091,
                "pitch": 69,
                "velocity": 101,
                "duration": 0.07272727272727053,
                "tempo": 120.0
            },
            {
                "start_time": 37.804545454545455,
                "end_time": 37.87954545454545,
                "pitch": 74,
                "velocity": 101,
                "duration": 0.07499999999999574,
                "tempo": 120.0
            },
            {
                "start_time": 37.925,
                "end_time": 38.0,
                "pitch": 69,
                "velocity": 101,
                "duration": 0.07500000000000284,
                "tempo": 120.0
            },
            {
                "start_time": 38.04772727272727,
                "end_time": 38.12045454545454,
                "pitch": 69,
                "velocity": 101,
                "duration": 0.07272727272727053,
                "tempo": 120.0
            },
            {
                "start_time": 38.16590909090909,
                "end_time": 38.24090909090909,
                "pitch": 74,
                "velocity": 101,
                "duration": 0.07500000000000284,
                "tempo": 120.0
            },
            {
                "start_time": 37.925,
                "end_time": 38.28636363636363,
                "pitch": 77,
                "velocity": 101,
                "duration": 0.36136363636363455,
                "tempo": 120.0
            },
            {
                "start_time": 38.28636363636363,
                "end_time": 38.35909090909091,
                "pitch": 71,
                "velocity": 101,
                "duration": 0.07272727272727764,
                "tempo": 120.0
            },
            {
                "start_time": 38.16590909090909,
                "end_time": 38.40681818181818,
                "pitch": 56,
                "velocity": 101,
                "duration": 0.24090909090909207,
                "tempo": 120.0
            },
            {
                "start_time": 37.32727272727273,
                "end_time": 38.47954545454545,
                "pitch": 78,
                "velocity": 101,
                "duration": 1.1522727272727238,
                "tempo": 120.0
            },
            {
                "start_time": 38.40681818181818,
                "end_time": 38.47954545454545,
                "pitch": 78,
                "velocity": 101,
                "duration": 0.07272727272727053,
                "tempo": 120.0
            },
            {
                "start_time": 38.525,
                "end_time": 38.6,
                "pitch": 78,
                "velocity": 101,
                "duration": 0.07500000000000284,
                "tempo": 120.0
            },
            {
                "start_time": 38.64545454545454,
                "end_time": 38.720454545454544,
                "pitch": 74,
                "velocity": 101,
                "duration": 0.07500000000000284,
                "tempo": 120.0
            },
            {
                "start_time": 38.28636363636363,
                "end_time": 38.76590909090909,
                "pitch": 77,
                "velocity": 101,
                "duration": 0.47954545454545894,
                "tempo": 120.0
            },
            {
                "start_time": 38.76590909090909,
                "end_time": 38.83863636363636,
                "pitch": 71,
                "velocity": 101,
                "duration": 0.07272727272727053,
                "tempo": 120.0
            },
            {
                "start_time": 38.40681818181818,
                "end_time": 38.88409090909091,
                "pitch": 56,
                "velocity": 101,
                "duration": 0.4772727272727266,
                "tempo": 120.0
            },
            {
                "start_time": 38.88409090909091,
                "end_time": 38.959090909090904,
                "pitch": 74,
                "velocity": 101,
                "duration": 0.07499999999999574,
                "tempo": 120.0
            },
            {
                "start_time": 38.76590909090909,
                "end_time": 39.00454545454545,
                "pitch": 77,
                "velocity": 101,
                "duration": 0.23863636363635976,
                "tempo": 120.0
            },
            {
                "start_time": 39.00454545454545,
                "end_time": 39.07954545454545,
                "pitch": 71,
                "velocity": 101,
                "duration": 0.07500000000000284,
                "tempo": 120.0
            },
            {
                "start_time": 38.88409090909091,
                "end_time": 39.127272727272725,
                "pitch": 56,
                "velocity": 101,
                "duration": 0.24318181818181728,
                "tempo": 120.0
            },
            {
                "start_time": 39.127272727272725,
                "end_time": 39.19772727272727,
                "pitch": 74,
                "velocity": 101,
                "duration": 0.07045454545454533,
                "tempo": 120.0
            },
            {
                "start_time": 38.64545454545454,
                "end_time": 39.31363636363636,
                "pitch": 78,
                "velocity": 101,
                "duration": 0.6681818181818215,
                "tempo": 120.0
            },
            {
                "start_time": 39.24090909090909,
                "end_time": 39.31363636363636,
                "pitch": 78,
                "velocity": 101,
                "duration": 0.07272727272727053,
                "tempo": 120.0
            },
            {
                "start_time": 39.24090909090909,
                "end_time": 39.429545454545455,
                "pitch": 74,
                "velocity": 101,
                "duration": 0.1886363636363626,
                "tempo": 120.0
            },
            {
                "start_time": 39.35909090909091,
                "end_time": 39.429545454545455,
                "pitch": 74,
                "velocity": 101,
                "duration": 0.07045454545454533,
                "tempo": 120.0
            },
            {
                "start_time": 39.475,
                "end_time": 39.55,
                "pitch": 74,
                "velocity": 101,
                "duration": 0.07499999999999574,
                "tempo": 120.0
            },
            {
                "start_time": 39.595454545454544,
                "end_time": 39.668181818181814,
                "pitch": 74,
                "velocity": 101,
                "duration": 0.07272727272727053,
                "tempo": 120.0
            },
            {
                "start_time": 39.715909090909086,
                "end_time": 39.788636363636364,
                "pitch": 83,
                "velocity": 101,
                "duration": 0.07272727272727764,
                "tempo": 120.0
            },
            {
                "start_time": 39.127272727272725,
                "end_time": 39.836363636363636,
                "pitch": 56,
                "velocity": 101,
                "duration": 0.7090909090909108,
                "tempo": 120.0
            },
            {
                "start_time": 37.56590909090909,
                "end_time": 39.90909090909091,
                "pitch": 76,
                "velocity": 101,
                "duration": 2.3431818181818187,
                "tempo": 120.0
            },
            {
                "start_time": 39.836363636363636,
                "end_time": 39.90909090909091,
                "pitch": 76,
                "velocity": 101,
                "duration": 0.07272727272727053,
                "tempo": 120.0
            },
            {
                "start_time": 39.95454545454545,
                "end_time": 40.029545454545456,
                "pitch": 76,
                "velocity": 101,
                "duration": 0.07500000000000284,
                "tempo": 120.0
            },
            {
                "start_time": 40.074999999999996,
                "end_time": 40.15,
                "pitch": 86,
                "velocity": 101,
                "duration": 0.07500000000000284,
                "tempo": 120.0
            },
            {
                "start_time": 63.13863636363636,
                "end_time": 63.38863636363636,
                "pitch": 76,
                "velocity": 101,
                "duration": 0.25,
                "tempo": 120.0
            },
            {
                "start_time": 63.13863636363636,
                "end_time": 63.75,
                "pitch": 74,
                "velocity": 101,
                "duration": 0.6113636363636417,
                "tempo": 120.0
            },
            {
                "start_time": 63.49545454545454,
                "end_time": 63.75,
                "pitch": 74,
                "velocity": 101,
                "duration": 0.2545454545454575,
                "tempo": 120.0
            },
            {
                "start_time": 63.85681818181818,
                "end_time": 64.10909090909091,
                "pitch": 74,
                "velocity": 101,
                "duration": 0.2522727272727323,
                "tempo": 120.0
            },
            {
                "start_time": 39.35909090909091,
                "end_time": 64.46136363636363,
                "pitch": 78,
                "velocity": 101,
                "duration": 25.10227272727272,
                "tempo": 120.0
            },
            {
                "start_time": 64.2159090909091,
                "end_time": 64.46136363636363,
                "pitch": 78,
                "velocity": 101,
                "duration": 0.24545454545453538,
                "tempo": 120.0
            },
            {
                "start_time": 64.56590909090909,
                "end_time": 64.81818181818181,
                "pitch": 78,
                "velocity": 101,
                "duration": 0.2522727272727252,
                "tempo": 120.0
            },
            {
                "start_time": 63.49545454545454,
                "end_time": 64.925,
                "pitch": 76,
                "velocity": 101,
                "duration": 1.4295454545454547,
                "tempo": 120.0
            },
            {
                "start_time": 64.2159090909091,
                "end_time": 65.17954545454545,
                "pitch": 74,
                "velocity": 101,
                "duration": 0.9636363636363541,
                "tempo": 120.0
            },
            {
                "start_time": 64.925,
                "end_time": 65.17954545454545,
                "pitch": 74,
                "velocity": 101,
                "duration": 0.2545454545454504,
                "tempo": 120.0
            },
            {
                "start_time": 65.28636363636363,
                "end_time": 65.53863636363636,
                "pitch": 74,
                "velocity": 101,
                "duration": 0.2522727272727252,
                "tempo": 120.0
            },
            {
                "start_time": 36.97727272727273,
                "end_time": 65.64545454545454,
                "pitch": 62,
                "velocity": 101,
                "duration": 28.668181818181814,
                "tempo": 120.0
            },
            {
                "start_time": 65.64545454545454,
                "end_time": 65.89772727272727,
                "pitch": 66,
                "velocity": 101,
                "duration": 0.2522727272727252,
                "tempo": 120.0
            },
            {
                "start_time": 37.68636363636364,
                "end_time": 66.07954545454545,
                "pitch": 67,
                "velocity": 101,
                "duration": 28.393181818181816,
                "tempo": 120.0
            },
            {
                "start_time": 66.00454545454545,
                "end_time": 66.07954545454545,
                "pitch": 67,
                "velocity": 101,
                "duration": 0.07500000000000284,
                "tempo": 120.0
            },
            {
                "start_time": 37.445454545454545,
                "end_time": 66.125,
                "pitch": 0,
                "velocity": 101,
                "duration": 28.679545454545455,
                "tempo": 120.0
            },
            {
                "start_time": 66.125,
                "end_time": 66.19772727272726,
                "pitch": 72,
                "velocity": 101,
                "duration": 0.07272727272726343,
                "tempo": 120.0
            },
            {
                "start_time": 64.925,
                "end_time": 66.24545454545454,
                "pitch": 76,
                "velocity": 101,
                "duration": 1.3204545454545382,
                "tempo": 120.0
            },
            {
                "start_time": 66.24545454545454,
                "end_time": 66.31818181818181,
                "pitch": 67,
                "velocity": 101,
                "duration": 0.07272727272727764,
                "tempo": 120.0
            },
            {
                "start_time": 66.36590909090908,
                "end_time": 66.43863636363636,
                "pitch": 69,
                "velocity": 101,
                "duration": 0.07272727272727764,
                "tempo": 120.0
            },
            {
                "start_time": 37.804545454545455,
                "end_time": 66.48409090909091,
                "pitch": 43,
                "velocity": 101,
                "duration": 28.679545454545455,
                "tempo": 120.0
            },
            {
                "start_time": 66.48409090909091,
                "end_time": 66.55909090909091,
                "pitch": 74,
                "velocity": 101,
                "duration": 0.07500000000000284,
                "tempo": 120.0
            },
            {
                "start_time": 39.00454545454545,
                "end_time": 66.60454545454544,
                "pitch": 77,
                "velocity": 101,
                "duration": 27.599999999999994,
                "tempo": 120.0
            },
            {
                "start_time": 66.60454545454544,
                "end_time": 66.67954545454545,
                "pitch": 69,
                "velocity": 101,
                "duration": 0.07500000000000284,
                "tempo": 120.0
            },
            {
                "start_time": 66.725,
                "end_time": 66.79545454545455,
                "pitch": 69,
                "velocity": 101,
                "duration": 0.07045454545455243,
                "tempo": 120.0
            },
            {
                "start_time": 39.836363636363636,
                "end_time": 66.8409090909091,
                "pitch": 56,
                "velocity": 101,
                "duration": 27.004545454545458,
                "tempo": 120.0
            },
            {
                "start_time": 66.8409090909091,
                "end_time": 66.91363636363636,
                "pitch": 74,
                "velocity": 101,
                "duration": 0.07272727272726343,
                "tempo": 120.0
            },
            {
                "start_time": 66.60454545454544,
                "end_time": 66.95681818181818,
                "pitch": 77,
                "velocity": 101,
                "duration": 0.35227272727273373,
                "tempo": 120.0
            },
            {
                "start_time": 66.95681818181818,
                "end_time": 67.02954545454546,
                "pitch": 71,
                "velocity": 101,
                "duration": 0.07272727272727764,
                "tempo": 120.0
            },
            {
                "start_time": 66.8409090909091,
                "end_time": 67.075,
                "pitch": 56,
                "velocity": 101,
                "duration": 0.23409090909090935,
                "tempo": 120.0
            },
            {
                "start_time": 66.00454545454545,
                "end_time": 67.14999999999999,
                "pitch": 78,
                "velocity": 101,
                "duration": 1.145454545454541,
                "tempo": 120.0
            },
            {
                "start_time": 67.075,
                "end_time": 67.14999999999999,
                "pitch": 78,
                "velocity": 101,
                "duration": 0.07499999999998863,
                "tempo": 120.0
            },
            {
                "start_time": 67.19545454545454,
                "end_time": 67.27272727272727,
                "pitch": 78,
                "velocity": 101,
                "duration": 0.07727272727272805,
                "tempo": 120.0
            },
            {
                "start_time": 67.31818181818181,
                "end_time": 67.39545454545454,
                "pitch": 74,
                "velocity": 101,
                "duration": 0.07727272727272805,
                "tempo": 120.0
            },
            {
                "start_time": 66.95681818181818,
                "end_time": 67.44318181818181,
                "pitch": 77,
                "velocity": 101,
                "duration": 0.48636363636363455,
                "tempo": 120.0
            },
            {
                "start_time": 67.44318181818181,
                "end_time": 67.51363636363637,
                "pitch": 71,
                "velocity": 101,
                "duration": 0.07045454545455243,
                "tempo": 120.0
            },
            {
                "start_time": 67.075,
                "end_time": 67.55909090909091,
                "pitch": 56,
                "velocity": 101,
                "duration": 0.48409090909090935,
                "tempo": 120.0
            },
            {
                "start_time": 67.55909090909091,
                "end_time": 67.63181818181818,
                "pitch": 74,
                "velocity": 101,
                "duration": 0.07272727272726343,
                "tempo": 120.0
            },
            {
                "start_time": 67.44318181818181,
                "end_time": 67.675,
                "pitch": 77,
                "velocity": 101,
                "duration": 0.23181818181818414,
                "tempo": 120.0
            },
            {
                "start_time": 67.675,
                "end_time": 67.74772727272727,
                "pitch": 71,
                "velocity": 101,
                "duration": 0.07272727272727764,
                "tempo": 120.0
            },
            {
                "start_time": 67.55909090909091,
                "end_time": 67.79318181818182,
                "pitch": 56,
                "velocity": 101,
                "duration": 0.23409090909090935,
                "tempo": 120.0
            },
            {
                "start_time": 67.79318181818182,
                "end_time": 67.86590909090908,
                "pitch": 74,
                "velocity": 101,
                "duration": 0.07272727272726343,
                "tempo": 120.0
            },
            {
                "start_time": 67.31818181818181,
                "end_time": 67.98636363636363,
                "pitch": 78,
                "velocity": 101,
                "duration": 0.6681818181818215,
                "tempo": 120.0
            },
            {
                "start_time": 67.91136363636363,
                "end_time": 67.98636363636363,
                "pitch": 78,
                "velocity": 101,
                "duration": 0.07500000000000284,
                "tempo": 120.0
            },
            {
                "start_time": 67.91136363636363,
                "end_time": 68.10454545454544,
                "pitch": 74,
                "velocity": 101,
                "duration": 0.19318181818181301,
                "tempo": 120.0
            },
            {
                "start_time": 68.03181818181818,
                "end_time": 68.10454545454544,
                "pitch": 74,
                "velocity": 101,
                "duration": 0.07272727272726343,
                "tempo": 120.0
            },
            {
                "start_time": 68.15227272727273,
                "end_time": 68.225,
                "pitch": 74,
                "velocity": 101,
                "duration": 0.07272727272726343,
                "tempo": 120.0
            },
            {
                "start_time": 68.27045454545454,
                "end_time": 68.34545454545454,
                "pitch": 74,
                "velocity": 101,
                "duration": 0.07500000000000284,
                "tempo": 120.0
            },
            {
                "start_time": 39.715909090909086,
                "end_time": 68.39090909090909,
                "pitch": 89,
                "velocity": 101,
                "duration": 28.675000000000004,
                "tempo": 120.0
            },
            {
                "start_time": 68.39090909090909,
                "end_time": 68.4659090909091,
                "pitch": 83,
                "velocity": 101,
                "duration": 0.07500000000000284,
                "tempo": 120.0
            },
            {
                "start_time": 67.79318181818182,
                "end_time": 68.51136363636363,
                "pitch": 56,
                "velocity": 101,
                "duration": 0.7181818181818045,
                "tempo": 120.0
            },
            {
                "start_time": 66.24545454545454,
                "end_time": 68.58636363636363,
                "pitch": 76,
                "velocity": 101,
                "duration": 2.3409090909090935,
                "tempo": 120.0
            },
            {
                "start_time": 68.51136363636363,
                "end_time": 68.58636363636363,
                "pitch": 76,
                "velocity": 101,
                "duration": 0.07500000000000284,
                "tempo": 120.0
            },
            {
                "start_time": 68.63181818181818,
                "end_time": 68.70454545454545,
                "pitch": 76,
                "velocity": 101,
                "duration": 0.07272727272727764,
                "tempo": 120.0
            },
            {
                "start_time": 40.074999999999996,
                "end_time": 68.75227272727273,
                "pitch": 90,
                "velocity": 101,
                "duration": 28.67727272727273,
                "tempo": 120.0
            },
            {
                "start_time": 68.75227272727273,
                "end_time": 68.825,
                "pitch": 86,
                "velocity": 101,
                "duration": 0.07272727272727764,
                "tempo": 120.0
            }
        ],
        "Acoustic Bass": [
            {
                "start_time": 40.19772727272727,
                "end_time": 40.28409090909091,
                "pitch": 79,
                "velocity": 101,
                "duration": 0.08636363636363598,
                "tempo": 120.0
            },
            {
                "start_time": 40.31590909090909,
                "end_time": 40.404545454545456,
                "pitch": 74,
                "velocity": 101,
                "duration": 0.08863636363636829,
                "tempo": 120.0
            },
            {
                "start_time": 40.43636363636364,
                "end_time": 40.525,
                "pitch": 79,
                "velocity": 101,
                "duration": 0.08863636363636118,
                "tempo": 120.0
            },
            {
                "start_time": 40.31590909090909,
                "end_time": 40.554545454545455,
                "pitch": 0,
                "velocity": 101,
                "duration": 0.23863636363636687,
                "tempo": 120.0
            },
            {
                "start_time": 40.554545454545455,
                "end_time": 40.643181818181816,
                "pitch": 76,
                "velocity": 101,
                "duration": 0.08863636363636118,
                "tempo": 120.0
            },
            {
                "start_time": 40.675,
                "end_time": 40.76363636363636,
                "pitch": 72,
                "velocity": 101,
                "duration": 0.08863636363636118,
                "tempo": 120.0
            },
            {
                "start_time": 40.675,
                "end_time": 40.88409090909091,
                "pitch": 76,
                "velocity": 101,
                "duration": 0.20909090909091077,
                "tempo": 120.0
            },
            {
                "start_time": 40.79545454545455,
                "end_time": 40.88409090909091,
                "pitch": 76,
                "velocity": 101,
                "duration": 0.08863636363636118,
                "tempo": 120.0
            },
            {
                "start_time": 40.91590909090909,
                "end_time": 41.00454545454545,
                "pitch": 74,
                "velocity": 101,
                "duration": 0.08863636363636118,
                "tempo": 120.0
            },
            {
                "start_time": 41.03409090909091,
                "end_time": 41.125,
                "pitch": 71,
                "velocity": 101,
                "duration": 0.09090909090909349,
                "tempo": 120.0
            },
            {
                "start_time": 41.15681818181818,
                "end_time": 41.24318181818182,
                "pitch": 74,
                "velocity": 101,
                "duration": 0.08636363636363598,
                "tempo": 120.0
            },
            {
                "start_time": 40.79545454545455,
                "end_time": 41.36363636363636,
                "pitch": 72,
                "velocity": 101,
                "duration": 0.568181818181813,
                "tempo": 120.0
            },
            {
                "start_time": 41.275,
                "end_time": 41.36363636363636,
                "pitch": 72,
                "velocity": 101,
                "duration": 0.08863636363636118,
                "tempo": 120.0
            },
            {
                "start_time": 40.91590909090909,
                "end_time": 41.39545454545454,
                "pitch": 76,
                "velocity": 101,
                "duration": 0.47954545454545183,
                "tempo": 120.0
            },
            {
                "start_time": 41.39545454545454,
                "end_time": 41.48409090909091,
                "pitch": 69,
                "velocity": 101,
                "duration": 0.08863636363636829,
                "tempo": 120.0
            },
            {
                "start_time": 41.51590909090909,
                "end_time": 41.60454545454545,
                "pitch": 72,
                "velocity": 101,
                "duration": 0.08863636363636118,
                "tempo": 120.0
            },
            {
                "start_time": 41.275,
                "end_time": 41.72272727272727,
                "pitch": 74,
                "velocity": 101,
                "duration": 0.44772727272727053,
                "tempo": 120.0
            },
            {
                "start_time": 41.63636363636363,
                "end_time": 41.72272727272727,
                "pitch": 74,
                "velocity": 101,
                "duration": 0.08636363636363598,
                "tempo": 120.0
            },
            {
                "start_time": 41.03409090909091,
                "end_time": 41.75454545454545,
                "pitch": 77,
                "velocity": 101,
                "duration": 0.7204545454545439,
                "tempo": 120.0
            },
            {
                "start_time": 41.75454545454545,
                "end_time": 41.84318181818182,
                "pitch": 71,
                "velocity": 101,
                "duration": 0.08863636363636829,
                "tempo": 120.0
            },
            {
                "start_time": 41.15681818181818,
                "end_time": 41.875,
                "pitch": 56,
                "velocity": 101,
                "duration": 0.7181818181818187,
                "tempo": 120.0
            },
            {
                "start_time": 41.875,
                "end_time": 41.96363636363636,
                "pitch": 74,
                "velocity": 101,
                "duration": 0.08863636363636118,
                "tempo": 120.0
            },
            {
                "start_time": 41.63636363636363,
                "end_time": 42.08181818181818,
                "pitch": 72,
                "velocity": 101,
                "duration": 0.4454545454545453,
                "tempo": 120.0
            },
            {
                "start_time": 41.99545454545454,
                "end_time": 42.08181818181818,
                "pitch": 72,
                "velocity": 101,
                "duration": 0.08636363636363598,
                "tempo": 120.0
            },
            {
                "start_time": 41.39545454545454,
                "end_time": 42.111363636363635,
                "pitch": 76,
                "velocity": 101,
                "duration": 0.7159090909090935,
                "tempo": 120.0
            },
            {
                "start_time": 42.111363636363635,
                "end_time": 42.19772727272727,
                "pitch": 69,
                "velocity": 101,
                "duration": 0.08636363636363598,
                "tempo": 120.0
            },
            {
                "start_time": 41.51590909090909,
                "end_time": 42.22727272727273,
                "pitch": 43,
                "velocity": 101,
                "duration": 0.711363636363636,
                "tempo": 120.0
            },
            {
                "start_time": 42.22727272727273,
                "end_time": 42.31363636363636,
                "pitch": 72,
                "velocity": 101,
                "duration": 0.08636363636363598,
                "tempo": 120.0
            },
            {
                "start_time": 42.111363636363635,
                "end_time": 42.345454545454544,
                "pitch": 76,
                "velocity": 101,
                "duration": 0.23409090909090935,
                "tempo": 120.0
            },
            {
                "start_time": 42.345454545454544,
                "end_time": 42.434090909090905,
                "pitch": 71,
                "velocity": 101,
                "duration": 0.08863636363636118,
                "tempo": 120.0
            },
            {
                "start_time": 42.46363636363636,
                "end_time": 42.55227272727272,
                "pitch": 67,
                "velocity": 101,
                "duration": 0.08863636363636118,
                "tempo": 120.0
            },
            {
                "start_time": 42.46363636363636,
                "end_time": 42.67272727272727,
                "pitch": 71,
                "velocity": 101,
                "duration": 0.20909090909091077,
                "tempo": 120.0
            },
            {
                "start_time": 42.584090909090904,
                "end_time": 42.67272727272727,
                "pitch": 71,
                "velocity": 101,
                "duration": 0.08863636363636829,
                "tempo": 120.0
            },
            {
                "start_time": 42.70454545454545,
                "end_time": 42.793181818181814,
                "pitch": 66,
                "velocity": 101,
                "duration": 0.08863636363636118,
                "tempo": 120.0
            },
            {
                "start_time": 42.584090909090904,
                "end_time": 42.913636363636364,
                "pitch": 67,
                "velocity": 101,
                "duration": 0.32954545454546036,
                "tempo": 120.0
            },
            {
                "start_time": 42.82272727272727,
                "end_time": 42.913636363636364,
                "pitch": 67,
                "velocity": 101,
                "duration": 0.09090909090909349,
                "tempo": 120.0
            },
            {
                "start_time": 42.94318181818181,
                "end_time": 43.03409090909091,
                "pitch": 69,
                "velocity": 101,
                "duration": 0.09090909090909349,
                "tempo": 120.0
            },
            {
                "start_time": 43.06590909090909,
                "end_time": 43.152272727272724,
                "pitch": 79,
                "velocity": 101,
                "duration": 0.08636363636363598,
                "tempo": 120.0
            },
            {
                "start_time": 40.554545454545455,
                "end_time": 43.184090909090905,
                "pitch": 0,
                "velocity": 101,
                "duration": 2.6295454545454504,
                "tempo": 120.0
            },
            {
                "start_time": 41.99545454545454,
                "end_time": 43.27272727272727,
                "pitch": 74,
                "velocity": 101,
                "duration": 1.277272727272731,
                "tempo": 120.0
            },
            {
                "start_time": 43.184090909090905,
                "end_time": 43.27272727272727,
                "pitch": 74,
                "velocity": 101,
                "duration": 0.08863636363636829,
                "tempo": 120.0
            },
            {
                "start_time": 40.43636363636364,
                "end_time": 43.304545454545455,
                "pitch": 89,
                "velocity": 101,
                "duration": 2.8681818181818173,
                "tempo": 120.0
            },
            {
                "start_time": 43.304545454545455,
                "end_time": 43.393181818181816,
                "pitch": 79,
                "velocity": 101,
                "duration": 0.08863636363636118,
                "tempo": 120.0
            },
            {
                "start_time": 43.184090909090905,
                "end_time": 43.425,
                "pitch": 0,
                "velocity": 101,
                "duration": 0.24090909090909207,
                "tempo": 120.0
            },
            {
                "start_time": 42.345454545454544,
                "end_time": 43.51363636363636,
                "pitch": 76,
                "velocity": 101,
                "duration": 1.1681818181818144,
                "tempo": 120.0
            },
            {
                "start_time": 43.425,
                "end_time": 43.51363636363636,
                "pitch": 76,
                "velocity": 101,
                "duration": 0.08863636363636118,
                "tempo": 120.0
            },
            {
                "start_time": 43.543181818181814,
                "end_time": 43.63181818181818,
                "pitch": 72,
                "velocity": 101,
                "duration": 0.08863636363636829,
                "tempo": 120.0
            },
            {
                "start_time": 43.543181818181814,
                "end_time": 43.752272727272725,
                "pitch": 76,
                "velocity": 101,
                "duration": 0.20909090909091077,
                "tempo": 120.0
            },
            {
                "start_time": 43.663636363636364,
                "end_time": 43.752272727272725,
                "pitch": 76,
                "velocity": 101,
                "duration": 0.08863636363636118,
                "tempo": 120.0
            },
            {
                "start_time": 43.78409090909091,
                "end_time": 43.87272727272727,
                "pitch": 74,
                "velocity": 101,
                "duration": 0.08863636363636118,
                "tempo": 120.0
            },
            {
                "start_time": 41.75454545454545,
                "end_time": 43.90454545454545,
                "pitch": 77,
                "velocity": 101,
                "duration": 2.1499999999999986,
                "tempo": 120.0
            },
            {
                "start_time": 43.90454545454545,
                "end_time": 43.99318181818182,
                "pitch": 71,
                "velocity": 101,
                "duration": 0.08863636363636829,
                "tempo": 120.0
            },
            {
                "start_time": 41.875,
                "end_time": 44.025,
                "pitch": 56,
                "velocity": 101,
                "duration": 2.1499999999999986,
                "tempo": 120.0
            },
            {
                "start_time": 44.025,
                "end_time": 44.11363636363636,
                "pitch": 74,
                "velocity": 101,
                "duration": 0.08863636363636118,
                "tempo": 120.0
            },
            {
                "start_time": 43.663636363636364,
                "end_time": 44.23181818181818,
                "pitch": 72,
                "velocity": 101,
                "duration": 0.568181818181813,
                "tempo": 120.0
            },
            {
                "start_time": 44.14545454545454,
                "end_time": 44.23181818181818,
                "pitch": 72,
                "velocity": 101,
                "duration": 0.08636363636363598,
                "tempo": 120.0
            },
            {
                "start_time": 43.78409090909091,
                "end_time": 44.26363636363636,
                "pitch": 76,
                "velocity": 101,
                "duration": 0.47954545454545183,
                "tempo": 120.0
            },
            {
                "start_time": 44.26363636363636,
                "end_time": 44.35227272727273,
                "pitch": 69,
                "velocity": 101,
                "duration": 0.08863636363636829,
                "tempo": 120.0
            },
            {
                "start_time": 42.22727272727273,
                "end_time": 44.38409090909091,
                "pitch": 43,
                "velocity": 101,
                "duration": 2.1568181818181813,
                "tempo": 120.0
            },
            {
                "start_time": 44.38409090909091,
                "end_time": 44.47272727272727,
                "pitch": 72,
                "velocity": 101,
                "duration": 0.08863636363636118,
                "tempo": 120.0
            },
            {
                "start_time": 44.26363636363636,
                "end_time": 44.50454545454545,
                "pitch": 76,
                "velocity": 101,
                "duration": 0.24090909090909207,
                "tempo": 120.0
            },
            {
                "start_time": 42.94318181818181,
                "end_time": 44.590909090909086,
                "pitch": 67,
                "velocity": 101,
                "duration": 1.6477272727272734,
                "tempo": 120.0
            },
            {
                "start_time": 44.50454545454545,
                "end_time": 44.590909090909086,
                "pitch": 67,
                "velocity": 101,
                "duration": 0.08636363636363598,
                "tempo": 120.0
            },
            {
                "start_time": 44.62045454545454,
                "end_time": 44.70681818181818,
                "pitch": 69,
                "velocity": 101,
                "duration": 0.08636363636363598,
                "tempo": 120.0
            },
            {
                "start_time": 44.736363636363635,
                "end_time": 44.82272727272727,
                "pitch": 69,
                "velocity": 101,
                "duration": 0.08636363636363598,
                "tempo": 120.0
            },
            {
                "start_time": 44.85454545454545,
                "end_time": 44.94090909090909,
                "pitch": 71,
                "velocity": 101,
                "duration": 0.08636363636363598,
                "tempo": 120.0
            },
            {
                "start_time": 44.97272727272727,
                "end_time": 45.06136363636364,
                "pitch": 69,
                "velocity": 101,
                "duration": 0.08863636363636829,
                "tempo": 120.0
            },
            {
                "start_time": 44.025,
                "end_time": 45.09318181818182,
                "pitch": 56,
                "velocity": 101,
                "duration": 1.0681818181818201,
                "tempo": 120.0
            },
            {
                "start_time": 45.09318181818182,
                "end_time": 45.18181818181818,
                "pitch": 72,
                "velocity": 101,
                "duration": 0.08863636363636118,
                "tempo": 120.0
            },
            {
                "start_time": 44.50454545454545,
                "end_time": 45.21363636363636,
                "pitch": 76,
                "velocity": 101,
                "duration": 0.7090909090909108,
                "tempo": 120.0
            },
            {
                "start_time": 45.21363636363636,
                "end_time": 45.30227272727272,
                "pitch": 71,
                "velocity": 101,
                "duration": 0.08863636363636118,
                "tempo": 120.0
            },
            {
                "start_time": 45.09318181818182,
                "end_time": 45.33181818181818,
                "pitch": 56,
                "velocity": 101,
                "duration": 0.23863636363635976,
                "tempo": 120.0
            },
            {
                "start_time": 45.33181818181818,
                "end_time": 45.42272727272727,
                "pitch": 72,
                "velocity": 101,
                "duration": 0.09090909090909349,
                "tempo": 120.0
            },
            {
                "start_time": 44.14545454545454,
                "end_time": 45.54090909090909,
                "pitch": 74,
                "velocity": 101,
                "duration": 1.3954545454545482,
                "tempo": 120.0
            },
            {
                "start_time": 45.45227272727273,
                "end_time": 45.54090909090909,
                "pitch": 74,
                "velocity": 101,
                "duration": 0.08863636363636118,
                "tempo": 120.0
            },
            {
                "start_time": 45.45227272727273,
                "end_time": 45.66136363636363,
                "pitch": 72,
                "velocity": 101,
                "duration": 0.20909090909090366,
                "tempo": 120.0
            },
            {
                "start_time": 45.57272727272727,
                "end_time": 45.66136363636363,
                "pitch": 72,
                "velocity": 101,
                "duration": 0.08863636363636118,
                "tempo": 120.0
            },
            {
                "start_time": 45.57272727272727,
                "end_time": 45.78181818181818,
                "pitch": 74,
                "velocity": 101,
                "duration": 0.20909090909091077,
                "tempo": 120.0
            },
            {
                "start_time": 45.69318181818181,
                "end_time": 45.78181818181818,
                "pitch": 74,
                "velocity": 101,
                "duration": 0.08863636363636829,
                "tempo": 120.0
            },
            {
                "start_time": 45.21363636363636,
                "end_time": 45.902272727272724,
                "pitch": 76,
                "velocity": 101,
                "duration": 0.6886363636363626,
                "tempo": 120.0
            },
            {
                "start_time": 45.81363636363636,
                "end_time": 45.902272727272724,
                "pitch": 76,
                "velocity": 101,
                "duration": 0.08863636363636118,
                "tempo": 120.0
            },
            {
                "start_time": 45.934090909090905,
                "end_time": 46.02272727272727,
                "pitch": 76,
                "velocity": 101,
                "duration": 0.08863636363636829,
                "tempo": 120.0
            },
            {
                "start_time": 45.69318181818181,
                "end_time": 46.14090909090909,
                "pitch": 72,
                "velocity": 101,
                "duration": 0.44772727272727764,
                "tempo": 120.0
            },
            {
                "start_time": 46.05227272727272,
                "end_time": 46.14090909090909,
                "pitch": 72,
                "velocity": 101,
                "duration": 0.08863636363636829,
                "tempo": 120.0
            },
            {
                "start_time": 46.05227272727272,
                "end_time": 46.26136363636363,
                "pitch": 76,
                "velocity": 101,
                "duration": 0.20909090909091077,
                "tempo": 120.0
            },
            {
                "start_time": 46.17272727272727,
                "end_time": 46.26136363636363,
                "pitch": 76,
                "velocity": 101,
                "duration": 0.08863636363636118,
                "tempo": 120.0
            },
            {
                "start_time": 46.293181818181814,
                "end_time": 46.38181818181818,
                "pitch": 76,
                "velocity": 101,
                "duration": 0.08863636363636829,
                "tempo": 120.0
            },
            {
                "start_time": 42.82272727272727,
                "end_time": 46.413636363636364,
                "pitch": 78,
                "velocity": 101,
                "duration": 3.5909090909090935,
                "tempo": 120.0
            },
            {
                "start_time": 45.81363636363636,
                "end_time": 46.502272727272725,
                "pitch": 74,
                "velocity": 101,
                "duration": 0.6886363636363626,
                "tempo": 120.0
            },
            {
                "start_time": 46.413636363636364,
                "end_time": 46.502272727272725,
                "pitch": 74,
                "velocity": 101,
                "duration": 0.08863636363636118,
                "tempo": 120.0
            },
            {
                "start_time": 46.413636363636364,
                "end_time": 46.62272727272727,
                "pitch": 78,
                "velocity": 101,
                "duration": 0.20909090909090366,
                "tempo": 120.0
            },
            {
                "start_time": 46.53409090909091,
                "end_time": 46.62272727272727,
                "pitch": 78,
                "velocity": 101,
                "duration": 0.08863636363636118,
                "tempo": 120.0
            },
            {
                "start_time": 46.652272727272724,
                "end_time": 46.73863636363636,
                "pitch": 79,
                "velocity": 101,
                "duration": 0.08636363636363598,
                "tempo": 120.0
            },
            {
                "start_time": 43.425,
                "end_time": 46.768181818181816,
                "pitch": 0,
                "velocity": 101,
                "duration": 3.3431818181818187,
                "tempo": 120.0
            },
            {
                "start_time": 46.768181818181816,
                "end_time": 46.85454545454545,
                "pitch": 78,
                "velocity": 101,
                "duration": 0.08636363636363598,
                "tempo": 120.0
            },
            {
                "start_time": 46.652272727272724,
                "end_time": 46.88636363636363,
                "pitch": 90,
                "velocity": 101,
                "duration": 0.23409090909090935,
                "tempo": 120.0
            },
            {
                "start_time": 46.88636363636363,
                "end_time": 46.97272727272727,
                "pitch": 79,
                "velocity": 101,
                "duration": 0.08636363636363598,
                "tempo": 120.0
            },
            {
                "start_time": 43.06590909090909,
                "end_time": 47.090909090909086,
                "pitch": 81,
                "velocity": 101,
                "duration": 4.024999999999999,
                "tempo": 120.0
            },
            {
                "start_time": 47.002272727272725,
                "end_time": 47.090909090909086,
                "pitch": 81,
                "velocity": 101,
                "duration": 0.08863636363636118,
                "tempo": 120.0
            },
            {
                "start_time": 47.002272727272725,
                "end_time": 47.211363636363636,
                "pitch": 79,
                "velocity": 101,
                "duration": 0.20909090909091077,
                "tempo": 120.0
            },
            {
                "start_time": 47.12272727272727,
                "end_time": 47.211363636363636,
                "pitch": 79,
                "velocity": 101,
                "duration": 0.08863636363636829,
                "tempo": 120.0
            },
            {
                "start_time": 47.12272727272727,
                "end_time": 47.33181818181818,
                "pitch": 81,
                "velocity": 101,
                "duration": 0.20909090909091077,
                "tempo": 120.0
            },
            {
                "start_time": 47.24318181818182,
                "end_time": 47.33181818181818,
                "pitch": 81,
                "velocity": 101,
                "duration": 0.08863636363636118,
                "tempo": 120.0
            },
            {
                "start_time": 47.24318181818182,
                "end_time": 47.449999999999996,
                "pitch": 79,
                "velocity": 101,
                "duration": 0.20681818181817846,
                "tempo": 120.0
            },
            {
                "start_time": 47.36363636363636,
                "end_time": 47.449999999999996,
                "pitch": 79,
                "velocity": 101,
                "duration": 0.08636363636363598,
                "tempo": 120.0
            },
            {
                "start_time": 46.768181818181816,
                "end_time": 47.48181818181818,
                "pitch": 0,
                "velocity": 101,
                "duration": 0.7136363636363612,
                "tempo": 120.0
            },
            {
                "start_time": 47.48181818181818,
                "end_time": 47.570454545454545,
                "pitch": 78,
                "velocity": 101,
                "duration": 0.08863636363636829,
                "tempo": 120.0
            },
            {
                "start_time": 47.60227272727273,
                "end_time": 47.69090909090909,
                "pitch": 78,
                "velocity": 101,
                "duration": 0.08863636363636118,
                "tempo": 120.0
            },
            {
                "start_time": 46.88636363636363,
                "end_time": 47.72272727272727,
                "pitch": 90,
                "velocity": 101,
                "duration": 0.836363636363636,
                "tempo": 120.0
            },
            {
                "start_time": 47.36363636363636,
                "end_time": 47.81136363636364,
                "pitch": 81,
                "velocity": 101,
                "duration": 0.44772727272727764,
                "tempo": 120.0
            },
            {
                "start_time": 47.72272727272727,
                "end_time": 47.81136363636364,
                "pitch": 81,
                "velocity": 101,
                "duration": 0.08863636363636829,
                "tempo": 120.0
            },
            {
                "start_time": 47.840909090909086,
                "end_time": 47.93181818181818,
                "pitch": 79,
                "velocity": 101,
                "duration": 0.09090909090909349,
                "tempo": 120.0
            },
            {
                "start_time": 47.48181818181818,
                "end_time": 47.961363636363636,
                "pitch": 0,
                "velocity": 101,
                "duration": 0.47954545454545894,
                "tempo": 120.0
            },
            {
                "start_time": 47.961363636363636,
                "end_time": 48.05,
                "pitch": 78,
                "velocity": 101,
                "duration": 0.08863636363636118,
                "tempo": 120.0
            },
            {
                "start_time": 47.72272727272727,
                "end_time": 48.08181818181818,
                "pitch": 90,
                "velocity": 101,
                "duration": 0.35909090909090935,
                "tempo": 120.0
            },
            {
                "start_time": 48.08181818181818,
                "end_time": 48.17045454545454,
                "pitch": 83,
                "velocity": 101,
                "duration": 0.08863636363636118,
                "tempo": 120.0
            },
            {
                "start_time": 48.20227272727273,
                "end_time": 48.29090909090909,
                "pitch": 83,
                "velocity": 101,
                "duration": 0.08863636363636118,
                "tempo": 120.0
            },
            {
                "start_time": 47.840909090909086,
                "end_time": 48.32272727272727,
                "pitch": 81,
                "velocity": 101,
                "duration": 0.48181818181818414,
                "tempo": 120.0
            },
            {
                "start_time": 48.32272727272727,
                "end_time": 48.41136363636363,
                "pitch": 79,
                "velocity": 101,
                "duration": 0.08863636363636118,
                "tempo": 120.0
            },
            {
                "start_time": 47.961363636363636,
                "end_time": 48.44318181818181,
                "pitch": 0,
                "velocity": 101,
                "duration": 0.48181818181817704,
                "tempo": 120.0
            },
            {
                "start_time": 48.44318181818181,
                "end_time": 48.53181818181818,
                "pitch": 84,
                "velocity": 101,
                "duration": 0.08863636363636829,
                "tempo": 120.0
            },
            {
                "start_time": 40.19772727272727,
                "end_time": 48.56136363636364,
                "pitch": 88,
                "velocity": 101,
                "duration": 8.363636363636367,
                "tempo": 120.0
            },
            {
                "start_time": 48.56136363636364,
                "end_time": 48.65,
                "pitch": 83,
                "velocity": 101,
                "duration": 0.08863636363636118,
                "tempo": 120.0
            },
            {
                "start_time": 48.68181818181818,
                "end_time": 48.77045454545454,
                "pitch": 83,
                "velocity": 101,
                "duration": 0.08863636363636118,
                "tempo": 120.0
            },
            {
                "start_time": 78.9659090909091,
                "end_time": 79.05454545454545,
                "pitch": 31,
                "velocity": 101,
                "duration": 0.08863636363635408,
                "tempo": 120.0
            },
            {
                "start_time": 44.38409090909091,
                "end_time": 79.175,
                "pitch": 43,
                "velocity": 101,
                "duration": 34.79090909090909,
                "tempo": 120.0
            },
            {
                "start_time": 79.0840909090909,
                "end_time": 79.175,
                "pitch": 43,
                "velocity": 101,
                "duration": 0.09090909090909349,
                "tempo": 120.0
            },
            {
                "start_time": 79.20454545454545,
                "end_time": 79.29318181818181,
                "pitch": 43,
                "velocity": 101,
                "duration": 0.08863636363635408,
                "tempo": 120.0
            },
            {
                "start_time": 79.325,
                "end_time": 79.41136363636363,
                "pitch": 43,
                "velocity": 101,
                "duration": 0.08636363636362887,
                "tempo": 120.0
            },
            {
                "start_time": 79.44090909090909,
                "end_time": 79.52727272727272,
                "pitch": 43,
                "velocity": 101,
                "duration": 0.08636363636362887,
                "tempo": 120.0
            },
            {
                "start_time": 79.55681818181817,
                "end_time": 79.64545454545454,
                "pitch": 43,
                "velocity": 101,
                "duration": 0.08863636363636829,
                "tempo": 120.0
            },
            {
                "start_time": 79.675,
                "end_time": 79.76363636363637,
                "pitch": 43,
                "velocity": 101,
                "duration": 0.08863636363636829,
                "tempo": 120.0
            },
            {
                "start_time": 79.79545454545455,
                "end_time": 79.8840909090909,
                "pitch": 43,
                "velocity": 101,
                "duration": 0.08863636363635408,
                "tempo": 120.0
            },
            {
                "start_time": 79.91363636363636,
                "end_time": 80.00227272727273,
                "pitch": 43,
                "velocity": 101,
                "duration": 0.08863636363636829,
                "tempo": 120.0
            },
            {
                "start_time": 80.0340909090909,
                "end_time": 80.12272727272727,
                "pitch": 43,
                "velocity": 101,
                "duration": 0.08863636363636829,
                "tempo": 120.0
            },
            {
                "start_time": 80.15454545454546,
                "end_time": 80.24318181818181,
                "pitch": 43,
                "velocity": 101,
                "duration": 0.08863636363635408,
                "tempo": 120.0
            },
            {
                "start_time": 80.27272727272727,
                "end_time": 80.36363636363636,
                "pitch": 43,
                "velocity": 101,
                "duration": 0.09090909090909349,
                "tempo": 120.0
            },
            {
                "start_time": 80.39772727272727,
                "end_time": 80.60454545454544,
                "pitch": 55,
                "velocity": 80,
                "duration": 0.20681818181817846,
                "tempo": 120.0
            },
            {
                "start_time": 80.6340909090909,
                "end_time": 80.72272727272727,
                "pitch": 55,
                "velocity": 80,
                "duration": 0.08863636363636829,
                "tempo": 120.0
            },
            {
                "start_time": 80.75454545454545,
                "end_time": 80.84318181818182,
                "pitch": 55,
                "velocity": 80,
                "duration": 0.08863636363636829,
                "tempo": 120.0
            },
            {
                "start_time": 80.87272727272727,
                "end_time": 80.96363636363635,
                "pitch": 55,
                "velocity": 80,
                "duration": 0.09090909090907928,
                "tempo": 120.0
            },
            {
                "start_time": 80.99318181818181,
                "end_time": 81.0840909090909,
                "pitch": 55,
                "velocity": 80,
                "duration": 0.09090909090909349,
                "tempo": 120.0
            },
            {
                "start_time": 81.11363636363636,
                "end_time": 81.31590909090909,
                "pitch": 55,
                "velocity": 80,
                "duration": 0.20227272727272805,
                "tempo": 120.0
            },
            {
                "start_time": 81.34772727272727,
                "end_time": 81.43409090909091,
                "pitch": 55,
                "velocity": 80,
                "duration": 0.08636363636364308,
                "tempo": 120.0
            },
            {
                "start_time": 81.46363636363635,
                "end_time": 81.55454545454545,
                "pitch": 55,
                "velocity": 80,
                "duration": 0.09090909090909349,
                "tempo": 120.0
            },
            {
                "start_time": 81.58636363636363,
                "end_time": 81.67727272727272,
                "pitch": 55,
                "velocity": 80,
                "duration": 0.09090909090909349,
                "tempo": 120.0
            },
            {
                "start_time": 81.7090909090909,
                "end_time": 81.8,
                "pitch": 55,
                "velocity": 80,
                "duration": 0.09090909090909349,
                "tempo": 120.0
            },
            {
                "start_time": 81.83181818181818,
                "end_time": 82.0340909090909,
                "pitch": 55,
                "velocity": 80,
                "duration": 0.20227272727272805,
                "tempo": 120.0
            },
            {
                "start_time": 82.06363636363636,
                "end_time": 82.14999999999999,
                "pitch": 55,
                "velocity": 80,
                "duration": 0.08636363636362887,
                "tempo": 120.0
            },
            {
                "start_time": 82.18181818181817,
                "end_time": 82.27045454545454,
                "pitch": 55,
                "velocity": 80,
                "duration": 0.08863636363636829,
                "tempo": 120.0
            },
            {
                "start_time": 82.3,
                "end_time": 82.39090909090909,
                "pitch": 55,
                "velocity": 80,
                "duration": 0.09090909090909349,
                "tempo": 120.0
            },
            {
                "start_time": 82.42045454545455,
                "end_time": 82.5090909090909,
                "pitch": 55,
                "velocity": 80,
                "duration": 0.08863636363635408,
                "tempo": 120.0
            },
            {
                "start_time": 82.54090909090908,
                "end_time": 82.75,
                "pitch": 55,
                "velocity": 80,
                "duration": 0.20909090909091788,
                "tempo": 120.0
            },
            {
                "start_time": 82.78181818181818,
                "end_time": 82.87045454545454,
                "pitch": 55,
                "velocity": 80,
                "duration": 0.08863636363635408,
                "tempo": 120.0
            },
            {
                "start_time": 82.89999999999999,
                "end_time": 82.99090909090908,
                "pitch": 55,
                "velocity": 80,
                "duration": 0.09090909090909349,
                "tempo": 120.0
            },
            {
                "start_time": 83.02045454545454,
                "end_time": 83.10909090909091,
                "pitch": 55,
                "velocity": 80,
                "duration": 0.08863636363636829,
                "tempo": 120.0
            },
            {
                "start_time": 83.14090909090909,
                "end_time": 83.22954545454544,
                "pitch": 55,
                "velocity": 80,
                "duration": 0.08863636363635408,
                "tempo": 120.0
            },
            {
                "start_time": 83.26363636363637,
                "end_time": 83.47045454545454,
                "pitch": 55,
                "velocity": 80,
                "duration": 0.20681818181817846,
                "tempo": 120.0
            },
            {
                "start_time": 83.50227272727273,
                "end_time": 83.5909090909091,
                "pitch": 55,
                "velocity": 80,
                "duration": 0.08863636363636829,
                "tempo": 120.0
            },
            {
                "start_time": 83.62045454545454,
                "end_time": 83.7090909090909,
                "pitch": 55,
                "velocity": 80,
                "duration": 0.08863636363636829,
                "tempo": 120.0
            },
            {
                "start_time": 83.74090909090908,
                "end_time": 83.82954545454545,
                "pitch": 55,
                "velocity": 80,
                "duration": 0.08863636363636829,
                "tempo": 120.0
            },
            {
                "start_time": 83.86136363636363,
                "end_time": 83.95,
                "pitch": 55,
                "velocity": 80,
                "duration": 0.08863636363636829,
                "tempo": 120.0
            },
            {
                "start_time": 83.98181818181818,
                "end_time": 84.1840909090909,
                "pitch": 55,
                "velocity": 80,
                "duration": 0.20227272727271384,
                "tempo": 120.0
            },
            {
                "start_time": 84.2159090909091,
                "end_time": 84.3,
                "pitch": 55,
                "velocity": 80,
                "duration": 0.08409090909090366,
                "tempo": 120.0
            },
            {
                "start_time": 84.32954545454545,
                "end_time": 84.41818181818181,
                "pitch": 55,
                "velocity": 80,
                "duration": 0.08863636363635408,
                "tempo": 120.0
            },
            {
                "start_time": 84.45,
                "end_time": 84.53863636363636,
                "pitch": 55,
                "velocity": 80,
                "duration": 0.08863636363635408,
                "tempo": 120.0
            },
            {
                "start_time": 84.57045454545454,
                "end_time": 84.6590909090909,
                "pitch": 55,
                "velocity": 80,
                "duration": 0.08863636363636829,
                "tempo": 120.0
            },
            {
                "start_time": 84.69090909090909,
                "end_time": 84.89999999999999,
                "pitch": 55,
                "velocity": 80,
                "duration": 0.20909090909090366,
                "tempo": 120.0
            },
            {
                "start_time": 84.92954545454545,
                "end_time": 85.01818181818182,
                "pitch": 55,
                "velocity": 80,
                "duration": 0.08863636363636829,
                "tempo": 120.0
            },
            {
                "start_time": 85.05,
                "end_time": 85.13863636363637,
                "pitch": 55,
                "velocity": 80,
                "duration": 0.08863636363636829,
                "tempo": 120.0
            },
            {
                "start_time": 85.17045454545455,
                "end_time": 85.2590909090909,
                "pitch": 55,
                "velocity": 80,
                "duration": 0.08863636363635408,
                "tempo": 120.0
            },
            {
                "start_time": 85.29090909090908,
                "end_time": 85.37954545454545,
                "pitch": 55,
                "velocity": 80,
                "duration": 0.08863636363636829,
                "tempo": 120.0
            },
            {
                "start_time": 85.41136363636363,
                "end_time": 85.61818181818181,
                "pitch": 55,
                "velocity": 80,
                "duration": 0.20681818181817846,
                "tempo": 120.0
            },
            {
                "start_time": 85.64999999999999,
                "end_time": 85.73863636363636,
                "pitch": 55,
                "velocity": 80,
                "duration": 0.08863636363636829,
                "tempo": 120.0
            },
            {
                "start_time": 85.77045454545454,
                "end_time": 85.85909090909091,
                "pitch": 55,
                "velocity": 80,
                "duration": 0.08863636363636829,
                "tempo": 120.0
            },
            {
                "start_time": 85.88863636363637,
                "end_time": 85.97954545454544,
                "pitch": 55,
                "velocity": 80,
                "duration": 0.09090909090907928,
                "tempo": 120.0
            },
            {
                "start_time": 86.0090909090909,
                "end_time": 86.1,
                "pitch": 55,
                "velocity": 80,
                "duration": 0.09090909090909349,
                "tempo": 120.0
            },
            {
                "start_time": 86.1340909090909,
                "end_time": 86.33863636363635,
                "pitch": 55,
                "velocity": 80,
                "duration": 0.20454545454545325,
                "tempo": 120.0
            },
            {
                "start_time": 86.37045454545454,
                "end_time": 86.4590909090909,
                "pitch": 55,
                "velocity": 80,
                "duration": 0.08863636363636829,
                "tempo": 120.0
            },
            {
                "start_time": 86.48863636363636,
                "end_time": 86.575,
                "pitch": 55,
                "velocity": 80,
                "duration": 0.08636363636364308,
                "tempo": 120.0
            },
            {
                "start_time": 86.60681818181818,
                "end_time": 86.69318181818181,
                "pitch": 55,
                "velocity": 80,
                "duration": 0.08636363636362887,
                "tempo": 120.0
            },
            {
                "start_time": 86.72272727272727,
                "end_time": 86.8090909090909,
                "pitch": 55,
                "velocity": 80,
                "duration": 0.08636363636362887,
                "tempo": 120.0
            },
            {
                "start_time": 86.83863636363635,
                "end_time": 87.04772727272727,
                "pitch": 55,
                "velocity": 80,
                "duration": 0.20909090909091788,
                "tempo": 120.0
            },
            {
                "start_time": 87.07954545454545,
                "end_time": 87.16818181818181,
                "pitch": 55,
                "velocity": 80,
                "duration": 0.08863636363635408,
                "tempo": 120.0
            },
            {
                "start_time": 87.2,
                "end_time": 87.28863636363636,
                "pitch": 55,
                "velocity": 80,
                "duration": 0.08863636363635408,
                "tempo": 120.0
            },
            {
                "start_time": 87.31818181818181,
                "end_time": 87.4090909090909,
                "pitch": 55,
                "velocity": 80,
                "duration": 0.09090909090909349,
                "tempo": 120.0
            },
            {
                "start_time": 87.44090909090909,
                "end_time": 87.52727272727272,
                "pitch": 55,
                "velocity": 80,
                "duration": 0.08636363636362887,
                "tempo": 120.0
            },
            {
                "start_time": 87.5590909090909,
                "end_time": 87.76818181818182,
                "pitch": 55,
                "velocity": 80,
                "duration": 0.20909090909091788,
                "tempo": 120.0
            },
            {
                "start_time": 87.79772727272727,
                "end_time": 87.88863636363637,
                "pitch": 55,
                "velocity": 80,
                "duration": 0.09090909090909349,
                "tempo": 120.0
            },
            {
                "start_time": 87.91818181818181,
                "end_time": 88.0090909090909,
                "pitch": 55,
                "velocity": 80,
                "duration": 0.09090909090909349,
                "tempo": 120.0
            },
            {
                "start_time": 88.03863636363636,
                "end_time": 88.12727272727273,
                "pitch": 55,
                "velocity": 80,
                "duration": 0.08863636363636829,
                "tempo": 120.0
            },
            {
                "start_time": 88.1590909090909,
                "end_time": 88.24772727272727,
                "pitch": 55,
                "velocity": 80,
                "duration": 0.08863636363636829,
                "tempo": 120.0
            },
            {
                "start_time": 88.27954545454546,
                "end_time": 88.48863636363636,
                "pitch": 55,
                "velocity": 80,
                "duration": 0.20909090909090366,
                "tempo": 120.0
            },
            {
                "start_time": 88.51818181818182,
                "end_time": 88.60681818181818,
                "pitch": 55,
                "velocity": 80,
                "duration": 0.08863636363636829,
                "tempo": 120.0
            },
            {
                "start_time": 88.63863636363637,
                "end_time": 88.72727272727272,
                "pitch": 55,
                "velocity": 80,
                "duration": 0.08863636363635408,
                "tempo": 120.0
            },
            {
                "start_time": 88.7590909090909,
                "end_time": 88.84772727272727,
                "pitch": 55,
                "velocity": 80,
                "duration": 0.08863636363636829,
                "tempo": 120.0
            },
            {
                "start_time": 88.87727272727273,
                "end_time": 88.96818181818182,
                "pitch": 55,
                "velocity": 80,
                "duration": 0.09090909090909349,
                "tempo": 120.0
            }
        ],
        "Lead 2 (sawtooth)": [
            {
                "start_time": 0.049999999999999996,
                "end_time": 0.13636363636363635,
                "pitch": 55,
                "velocity": 127,
                "duration": 0.08636363636363636,
                "tempo": 120.0
            },
            {
                "start_time": 1.009090909090909,
                "end_time": 1.0977272727272727,
                "pitch": 55,
                "velocity": 127,
                "duration": 0.08863636363636362,
                "tempo": 120.0
            },
            {
                "start_time": 1.3681818181818182,
                "end_time": 1.4568181818181818,
                "pitch": 55,
                "velocity": 127,
                "duration": 0.08863636363636362,
                "tempo": 120.0
            },
            {
                "start_time": 2.9204545454545454,
                "end_time": 3.006818181818182,
                "pitch": 55,
                "velocity": 127,
                "duration": 0.08636363636363642,
                "tempo": 120.0
            },
            {
                "start_time": 3.875,
                "end_time": 3.9636363636363634,
                "pitch": 55,
                "velocity": 127,
                "duration": 0.0886363636363634,
                "tempo": 120.0
            },
            {
                "start_time": 4.236363636363636,
                "end_time": 4.322727272727272,
                "pitch": 55,
                "velocity": 127,
                "duration": 0.08636363636363598,
                "tempo": 120.0
            },
            {
                "start_time": 5.786363636363636,
                "end_time": 5.875,
                "pitch": 55,
                "velocity": 127,
                "duration": 0.08863636363636385,
                "tempo": 120.0
            },
            {
                "start_time": 6.743181818181818,
                "end_time": 6.831818181818181,
                "pitch": 55,
                "velocity": 127,
                "duration": 0.08863636363636296,
                "tempo": 120.0
            },
            {
                "start_time": 7.102272727272727,
                "end_time": 7.1909090909090905,
                "pitch": 55,
                "velocity": 127,
                "duration": 0.08863636363636385,
                "tempo": 120.0
            },
            {
                "start_time": 11.520454545454545,
                "end_time": 11.71590909090909,
                "pitch": 67,
                "velocity": 101,
                "duration": 0.19545454545454533,
                "tempo": 120.0
            },
            {
                "start_time": 11.763636363636364,
                "end_time": 12.26590909090909,
                "pitch": 67,
                "velocity": 101,
                "duration": 0.502272727272727,
                "tempo": 120.0
            },
            {
                "start_time": 12.477272727272727,
                "end_time": 12.595454545454546,
                "pitch": 67,
                "velocity": 101,
                "duration": 0.11818181818181905,
                "tempo": 120.0
            },
            {
                "start_time": 12.836363636363636,
                "end_time": 13.963636363636363,
                "pitch": 67,
                "velocity": 101,
                "duration": 1.127272727272727,
                "tempo": 120.0
            },
            {
                "start_time": 14.386363636363635,
                "end_time": 14.579545454545453,
                "pitch": 67,
                "velocity": 101,
                "duration": 0.19318181818181834,
                "tempo": 120.0
            },
            {
                "start_time": 14.625,
                "end_time": 15.134090909090908,
                "pitch": 67,
                "velocity": 101,
                "duration": 0.5090909090909079,
                "tempo": 120.0
            },
            {
                "start_time": 15.345454545454544,
                "end_time": 15.46590909090909,
                "pitch": 67,
                "velocity": 101,
                "duration": 0.12045454545454604,
                "tempo": 120.0
            },
            {
                "start_time": 15.704545454545453,
                "end_time": 16.577272727272728,
                "pitch": 67,
                "velocity": 101,
                "duration": 0.8727272727272748,
                "tempo": 120.0
            },
            {
                "start_time": 17.134090909090908,
                "end_time": 17.209090909090907,
                "pitch": 67,
                "velocity": 101,
                "duration": 0.07499999999999929,
                "tempo": 120.0
            },
            {
                "start_time": 17.254545454545454,
                "end_time": 17.506818181818183,
                "pitch": 67,
                "velocity": 101,
                "duration": 0.25227272727272876,
                "tempo": 120.0
            },
            {
                "start_time": 17.61590909090909,
                "end_time": 18.10681818181818,
                "pitch": 67,
                "velocity": 101,
                "duration": 0.49090909090909207,
                "tempo": 120.0
            },
            {
                "start_time": 18.21363636363636,
                "end_time": 18.288636363636364,
                "pitch": 67,
                "velocity": 101,
                "duration": 0.07500000000000284,
                "tempo": 120.0
            },
            {
                "start_time": 18.575,
                "end_time": 19.702272727272728,
                "pitch": 67,
                "velocity": 101,
                "duration": 1.1272727272727288,
                "tempo": 120.0
            },
            {
                "start_time": 20.125,
                "end_time": 20.31590909090909,
                "pitch": 67,
                "velocity": 101,
                "duration": 0.19090909090909136,
                "tempo": 120.0
            },
            {
                "start_time": 20.363636363636363,
                "end_time": 20.870454545454546,
                "pitch": 67,
                "velocity": 101,
                "duration": 0.5068181818181827,
                "tempo": 120.0
            },
            {
                "start_time": 21.077272727272724,
                "end_time": 21.193181818181817,
                "pitch": 67,
                "velocity": 101,
                "duration": 0.11590909090909207,
                "tempo": 120.0
            },
            {
                "start_time": 21.43181818181818,
                "end_time": 22.570454545454545,
                "pitch": 67,
                "velocity": 101,
                "duration": 1.1386363636363654,
                "tempo": 120.0
            },
            {
                "start_time": 22.993181818181817,
                "end_time": 23.245454545454546,
                "pitch": 74,
                "velocity": 101,
                "duration": 0.25227272727272876,
                "tempo": 120.0
            },
            {
                "start_time": 23.352272727272727,
                "end_time": 23.775,
                "pitch": 74,
                "velocity": 101,
                "duration": 0.42272727272727195,
                "tempo": 120.0
            },
            {
                "start_time": 23.94090909090909,
                "end_time": 24.061363636363634,
                "pitch": 74,
                "velocity": 101,
                "duration": 0.12045454545454248,
                "tempo": 120.0
            },
            {
                "start_time": 24.302272727272726,
                "end_time": 25.44090909090909,
                "pitch": 76,
                "velocity": 101,
                "duration": 1.1386363636363654,
                "tempo": 120.0
            },
            {
                "start_time": 24.302272727272726,
                "end_time": 26.104545454545452,
                "pitch": 74,
                "velocity": 101,
                "duration": 1.802272727272726,
                "tempo": 120.0
            },
            {
                "start_time": 25.852272727272727,
                "end_time": 26.104545454545452,
                "pitch": 74,
                "velocity": 101,
                "duration": 0.2522727272727252,
                "tempo": 120.0
            },
            {
                "start_time": 26.211363636363636,
                "end_time": 26.643181818181816,
                "pitch": 74,
                "velocity": 101,
                "duration": 0.4318181818181799,
                "tempo": 120.0
            },
            {
                "start_time": 26.811363636363634,
                "end_time": 26.929545454545455,
                "pitch": 74,
                "velocity": 101,
                "duration": 0.11818181818182083,
                "tempo": 120.0
            },
            {
                "start_time": 27.170454545454543,
                "end_time": 28.30909090909091,
                "pitch": 74,
                "velocity": 101,
                "duration": 1.1386363636363654,
                "tempo": 120.0
            },
            {
                "start_time": 28.720454545454544,
                "end_time": 28.972727272727273,
                "pitch": 74,
                "velocity": 101,
                "duration": 0.25227272727272876,
                "tempo": 120.0
            },
            {
                "start_time": 29.079545454545453,
                "end_time": 29.513636363636362,
                "pitch": 74,
                "velocity": 101,
                "duration": 0.43409090909090864,
                "tempo": 120.0
            },
            {
                "start_time": 29.679545454545455,
                "end_time": 29.799999999999997,
                "pitch": 74,
                "velocity": 101,
                "duration": 0.12045454545454248,
                "tempo": 120.0
            },
            {
                "start_time": 25.852272727272727,
                "end_time": 31.168181818181818,
                "pitch": 76,
                "velocity": 101,
                "duration": 5.315909090909091,
                "tempo": 120.0
            },
            {
                "start_time": 30.04090909090909,
                "end_time": 31.168181818181818,
                "pitch": 76,
                "velocity": 101,
                "duration": 1.1272727272727288,
                "tempo": 120.0
            },
            {
                "start_time": 30.04090909090909,
                "end_time": 31.843181818181815,
                "pitch": 74,
                "velocity": 101,
                "duration": 1.802272727272726,
                "tempo": 120.0
            },
            {
                "start_time": 31.58863636363636,
                "end_time": 31.843181818181815,
                "pitch": 74,
                "velocity": 101,
                "duration": 0.25454545454545396,
                "tempo": 120.0
            },
            {
                "start_time": 31.95,
                "end_time": 32.38181818181818,
                "pitch": 74,
                "velocity": 101,
                "duration": 0.43181818181818343,
                "tempo": 120.0
            },
            {
                "start_time": 32.54772727272727,
                "end_time": 32.668181818181814,
                "pitch": 74,
                "velocity": 101,
                "duration": 0.12045454545454248,
                "tempo": 120.0
            },
            {
                "start_time": 32.90909090909091,
                "end_time": 34.03636363636363,
                "pitch": 74,
                "velocity": 101,
                "duration": 1.1272727272727252,
                "tempo": 120.0
            },
            {
                "start_time": 40.19772727272727,
                "end_time": 40.38863636363636,
                "pitch": 67,
                "velocity": 101,
                "duration": 0.1909090909090878,
                "tempo": 120.0
            },
            {
                "start_time": 40.43636363636364,
                "end_time": 40.94318181818181,
                "pitch": 67,
                "velocity": 101,
                "duration": 0.5068181818181756,
                "tempo": 120.0
            },
            {
                "start_time": 41.154545454545456,
                "end_time": 41.22954545454545,
                "pitch": 67,
                "velocity": 101,
                "duration": 0.07499999999999574,
                "tempo": 120.0
            },
            {
                "start_time": 41.51590909090909,
                "end_time": 41.709090909090904,
                "pitch": 67,
                "velocity": 101,
                "duration": 0.19318181818181301,
                "tempo": 120.0
            },
            {
                "start_time": 48.80227272727272,
                "end_time": 48.99545454545454,
                "pitch": 67,
                "velocity": 101,
                "duration": 0.19318181818182012,
                "tempo": 120.0
            },
            {
                "start_time": 49.043181818181814,
                "end_time": 49.55,
                "pitch": 67,
                "velocity": 101,
                "duration": 0.5068181818181827,
                "tempo": 120.0
            },
            {
                "start_time": 49.75454545454545,
                "end_time": 49.87045454545454,
                "pitch": 67,
                "velocity": 101,
                "duration": 0.11590909090909207,
                "tempo": 120.0
            },
            {
                "start_time": 50.111363636363635,
                "end_time": 51.25,
                "pitch": 67,
                "velocity": 101,
                "duration": 1.1386363636363654,
                "tempo": 120.0
            },
            {
                "start_time": 22.993181818181817,
                "end_time": 51.67272727272727,
                "pitch": 0,
                "velocity": 101,
                "duration": 28.679545454545455,
                "tempo": 120.0
            },
            {
                "start_time": 51.67272727272727,
                "end_time": 51.918181818181814,
                "pitch": 74,
                "velocity": 101,
                "duration": 0.24545454545454248,
                "tempo": 120.0
            },
            {
                "start_time": 52.02045454545454,
                "end_time": 52.45454545454545,
                "pitch": 74,
                "velocity": 101,
                "duration": 0.4340909090909122,
                "tempo": 120.0
            },
            {
                "start_time": 52.62045454545454,
                "end_time": 52.740909090909085,
                "pitch": 74,
                "velocity": 101,
                "duration": 0.12045454545454248,
                "tempo": 120.0
            },
            {
                "start_time": 52.97954545454545,
                "end_time": 52.98181818181818,
                "pitch": 74,
                "velocity": 101,
                "duration": 0.0022727272727252057,
                "tempo": 120.0
            },
            {
                "start_time": 31.58863636363636,
                "end_time": 54.11818181818182,
                "pitch": 76,
                "velocity": 101,
                "duration": 22.529545454545456,
                "tempo": 120.0
            },
            {
                "start_time": 52.98181818181818,
                "end_time": 54.11818181818182,
                "pitch": 76,
                "velocity": 101,
                "duration": 1.1363636363636402,
                "tempo": 120.0
            },
            {
                "start_time": 54.52954545454545,
                "end_time": 54.78409090909091,
                "pitch": 74,
                "velocity": 101,
                "duration": 0.2545454545454575,
                "tempo": 120.0
            },
            {
                "start_time": 54.89090909090909,
                "end_time": 55.32272727272727,
                "pitch": 74,
                "velocity": 101,
                "duration": 0.4318181818181799,
                "tempo": 120.0
            },
            {
                "start_time": 55.48863636363636,
                "end_time": 55.60909090909091,
                "pitch": 74,
                "velocity": 101,
                "duration": 0.12045454545454959,
                "tempo": 120.0
            },
            {
                "start_time": 55.849999999999994,
                "end_time": 56.97954545454545,
                "pitch": 74,
                "velocity": 101,
                "duration": 1.1295454545454575,
                "tempo": 120.0
            },
            {
                "start_time": 57.4,
                "end_time": 57.652272727272724,
                "pitch": 74,
                "velocity": 101,
                "duration": 0.2522727272727252,
                "tempo": 120.0
            },
            {
                "start_time": 57.75909090909091,
                "end_time": 58.19090909090909,
                "pitch": 74,
                "velocity": 101,
                "duration": 0.4318181818181799,
                "tempo": 120.0
            },
            {
                "start_time": 58.35909090909091,
                "end_time": 58.47727272727273,
                "pitch": 74,
                "velocity": 101,
                "duration": 0.11818181818181728,
                "tempo": 120.0
            },
            {
                "start_time": 54.52954545454545,
                "end_time": 59.845454545454544,
                "pitch": 76,
                "velocity": 101,
                "duration": 5.315909090909095,
                "tempo": 120.0
            },
            {
                "start_time": 58.71818181818182,
                "end_time": 59.845454545454544,
                "pitch": 76,
                "velocity": 101,
                "duration": 1.1272727272727252,
                "tempo": 120.0
            },
            {
                "start_time": 58.71818181818182,
                "end_time": 60.52045454545454,
                "pitch": 74,
                "velocity": 101,
                "duration": 1.8022727272727224,
                "tempo": 120.0
            },
            {
                "start_time": 60.268181818181816,
                "end_time": 60.52045454545454,
                "pitch": 74,
                "velocity": 101,
                "duration": 0.2522727272727252,
                "tempo": 120.0
            },
            {
                "start_time": 60.627272727272725,
                "end_time": 61.06136363636363,
                "pitch": 74,
                "velocity": 101,
                "duration": 0.4340909090909051,
                "tempo": 120.0
            },
            {
                "start_time": 61.22727272727273,
                "end_time": 61.34772727272727,
                "pitch": 74,
                "velocity": 101,
                "duration": 0.12045454545454248,
                "tempo": 120.0
            },
            {
                "start_time": 61.586363636363636,
                "end_time": 62.715909090909086,
                "pitch": 74,
                "velocity": 101,
                "duration": 1.1295454545454504,
                "tempo": 120.0
            },
            {
                "start_time": 68.90454545454546,
                "end_time": 68.99545454545454,
                "pitch": 55,
                "velocity": 127,
                "duration": 0.09090909090907928,
                "tempo": 120.0
            },
            {
                "start_time": 69.88181818181818,
                "end_time": 69.97045454545454,
                "pitch": 55,
                "velocity": 127,
                "duration": 0.08863636363636829,
                "tempo": 120.0
            },
            {
                "start_time": 70.24318181818181,
                "end_time": 70.33181818181818,
                "pitch": 55,
                "velocity": 127,
                "duration": 0.08863636363636829,
                "tempo": 120.0
            },
            {
                "start_time": 71.79318181818182,
                "end_time": 71.88181818181818,
                "pitch": 55,
                "velocity": 127,
                "duration": 0.08863636363635408,
                "tempo": 120.0
            },
            {
                "start_time": 72.75,
                "end_time": 72.83863636363635,
                "pitch": 55,
                "velocity": 127,
                "duration": 0.08863636363635408,
                "tempo": 120.0
            },
            {
                "start_time": 73.10909090909091,
                "end_time": 73.19772727272726,
                "pitch": 55,
                "velocity": 127,
                "duration": 0.08863636363635408,
                "tempo": 120.0
            },
            {
                "start_time": 74.66136363636363,
                "end_time": 74.75,
                "pitch": 55,
                "velocity": 127,
                "duration": 0.08863636363636829,
                "tempo": 120.0
            },
            {
                "start_time": 75.61590909090908,
                "end_time": 75.70454545454545,
                "pitch": 55,
                "velocity": 127,
                "duration": 0.08863636363636829,
                "tempo": 120.0
            },
            {
                "start_time": 75.97727272727272,
                "end_time": 76.06590909090909,
                "pitch": 55,
                "velocity": 127,
                "duration": 0.08863636363636829,
                "tempo": 120.0
            },
            {
                "start_time": 77.52727272727272,
                "end_time": 77.61363636363636,
                "pitch": 55,
                "velocity": 127,
                "duration": 0.08636363636364308,
                "tempo": 120.0
            },
            {
                "start_time": 78.48636363636363,
                "end_time": 78.575,
                "pitch": 55,
                "velocity": 127,
                "duration": 0.08863636363636829,
                "tempo": 120.0
            },
            {
                "start_time": 78.84545454545454,
                "end_time": 78.93409090909091,
                "pitch": 55,
                "velocity": 127,
                "duration": 0.08863636363636829,
                "tempo": 120.0
            },
            {
                "start_time": 80.39772727272727,
                "end_time": 80.48409090909091,
                "pitch": 55,
                "velocity": 127,
                "duration": 0.08636363636364308,
                "tempo": 120.0
            },
            {
                "start_time": 81.34772727272727,
                "end_time": 81.43409090909091,
                "pitch": 55,
                "velocity": 127,
                "duration": 0.08636363636364308,
                "tempo": 120.0
            },
            {
                "start_time": 81.7090909090909,
                "end_time": 81.8,
                "pitch": 55,
                "velocity": 127,
                "duration": 0.09090909090909349,
                "tempo": 120.0
            },
            {
                "start_time": 83.26363636363637,
                "end_time": 83.35,
                "pitch": 55,
                "velocity": 127,
                "duration": 0.08636363636362887,
                "tempo": 120.0
            },
            {
                "start_time": 84.21363636363635,
                "end_time": 84.3,
                "pitch": 55,
                "velocity": 127,
                "duration": 0.08636363636364308,
                "tempo": 120.0
            },
            {
                "start_time": 84.57045454545454,
                "end_time": 84.6590909090909,
                "pitch": 55,
                "velocity": 127,
                "duration": 0.08863636363636829,
                "tempo": 120.0
            },
            {
                "start_time": 86.13181818181818,
                "end_time": 86.21818181818182,
                "pitch": 55,
                "velocity": 127,
                "duration": 0.08636363636364308,
                "tempo": 120.0
            },
            {
                "start_time": 87.07954545454545,
                "end_time": 87.16818181818181,
                "pitch": 55,
                "velocity": 127,
                "duration": 0.08863636363635408,
                "tempo": 120.0
            },
            {
                "start_time": 87.43863636363636,
                "end_time": 87.52727272727272,
                "pitch": 55,
                "velocity": 127,
                "duration": 0.08863636363635408,
                "tempo": 120.0
            },
            {
                "start_time": 91.87045454545454,
                "end_time": 91.88181818181818,
                "pitch": 55,
                "velocity": 127,
                "duration": 0.01136363636364024,
                "tempo": 120.0
            }
        ],
        "Church Organ": [
            {
                "start_time": 34.45681818181818,
                "end_time": 34.75454545454545,
                "pitch": 72,
                "velocity": 127,
                "duration": 0.29772727272727195,
                "tempo": 120.0
            },
            {
                "start_time": 34.81590909090909,
                "end_time": 35.11590909090909,
                "pitch": 71,
                "velocity": 127,
                "duration": 0.30000000000000426,
                "tempo": 120.0
            },
            {
                "start_time": 35.17727272727272,
                "end_time": 35.475,
                "pitch": 71,
                "velocity": 127,
                "duration": 0.29772727272727906,
                "tempo": 120.0
            },
            {
                "start_time": 34.45681818181818,
                "end_time": 35.53636363636363,
                "pitch": 43,
                "velocity": 127,
                "duration": 1.0795454545454533,
                "tempo": 120.0
            },
            {
                "start_time": 35.53636363636363,
                "end_time": 35.836363636363636,
                "pitch": 74,
                "velocity": 127,
                "duration": 0.30000000000000426,
                "tempo": 120.0
            },
            {
                "start_time": 35.89772727272727,
                "end_time": 36.195454545454545,
                "pitch": 72,
                "velocity": 127,
                "duration": 0.29772727272727195,
                "tempo": 120.0
            },
            {
                "start_time": 34.81590909090909,
                "end_time": 36.25681818181818,
                "pitch": 76,
                "velocity": 127,
                "duration": 1.440909090909095,
                "tempo": 120.0
            },
            {
                "start_time": 36.25681818181818,
                "end_time": 36.554545454545455,
                "pitch": 71,
                "velocity": 127,
                "duration": 0.29772727272727195,
                "tempo": 120.0
            },
            {
                "start_time": 36.61590909090909,
                "end_time": 36.91590909090909,
                "pitch": 71,
                "velocity": 127,
                "duration": 0.29999999999999716,
                "tempo": 120.0
            },
            {
                "start_time": 36.97727272727273,
                "end_time": 37.26590909090909,
                "pitch": 62,
                "velocity": 127,
                "duration": 0.288636363636364,
                "tempo": 120.0
            },
            {
                "start_time": 37.324999999999996,
                "end_time": 37.625,
                "pitch": 64,
                "velocity": 127,
                "duration": 0.30000000000000426,
                "tempo": 120.0
            },
            {
                "start_time": 37.68636363636364,
                "end_time": 37.98409090909091,
                "pitch": 64,
                "velocity": 127,
                "duration": 0.29772727272727195,
                "tempo": 120.0
            },
            {
                "start_time": 38.04545454545455,
                "end_time": 38.345454545454544,
                "pitch": 67,
                "velocity": 127,
                "duration": 0.29999999999999716,
                "tempo": 120.0
            },
            {
                "start_time": 38.404545454545456,
                "end_time": 38.70454545454545,
                "pitch": 69,
                "velocity": 127,
                "duration": 0.29999999999999716,
                "tempo": 120.0
            },
            {
                "start_time": 38.404545454545456,
                "end_time": 39.06363636363636,
                "pitch": 67,
                "velocity": 127,
                "duration": 0.6590909090909065,
                "tempo": 120.0
            },
            {
                "start_time": 38.76590909090909,
                "end_time": 39.06363636363636,
                "pitch": 67,
                "velocity": 127,
                "duration": 0.29772727272727195,
                "tempo": 120.0
            },
            {
                "start_time": 38.76590909090909,
                "end_time": 39.41590909090909,
                "pitch": 69,
                "velocity": 127,
                "duration": 0.6499999999999986,
                "tempo": 120.0
            },
            {
                "start_time": 39.125,
                "end_time": 39.41590909090909,
                "pitch": 69,
                "velocity": 127,
                "duration": 0.29090909090908923,
                "tempo": 120.0
            },
            {
                "start_time": 39.475,
                "end_time": 39.77272727272727,
                "pitch": 69,
                "velocity": 127,
                "duration": 0.29772727272727195,
                "tempo": 120.0
            },
            {
                "start_time": 39.834090909090904,
                "end_time": 40.13409090909091,
                "pitch": 72,
                "velocity": 127,
                "duration": 0.30000000000000426,
                "tempo": 120.0
            },
            {
                "start_time": 35.53636363636363,
                "end_time": 63.13636363636363,
                "pitch": 43,
                "velocity": 127,
                "duration": 27.6,
                "tempo": 120.0
            },
            {
                "start_time": 63.13636363636363,
                "end_time": 63.434090909090905,
                "pitch": 72,
                "velocity": 127,
                "duration": 0.29772727272727195,
                "tempo": 120.0
            },
            {
                "start_time": 36.25681818181818,
                "end_time": 63.49545454545454,
                "pitch": 76,
                "velocity": 127,
                "duration": 27.23863636363636,
                "tempo": 120.0
            },
            {
                "start_time": 63.49545454545454,
                "end_time": 63.79545454545454,
                "pitch": 71,
                "velocity": 127,
                "duration": 0.29999999999999716,
                "tempo": 120.0
            },
            {
                "start_time": 63.85454545454545,
                "end_time": 64.15454545454546,
                "pitch": 71,
                "velocity": 127,
                "duration": 0.30000000000000426,
                "tempo": 120.0
            },
            {
                "start_time": 63.13636363636363,
                "end_time": 64.2159090909091,
                "pitch": 43,
                "velocity": 127,
                "duration": 1.0795454545454604,
                "tempo": 120.0
            },
            {
                "start_time": 35.89772727272727,
                "end_time": 64.50454545454545,
                "pitch": 74,
                "velocity": 127,
                "duration": 28.606818181818177,
                "tempo": 120.0
            },
            {
                "start_time": 64.2159090909091,
                "end_time": 64.50454545454545,
                "pitch": 74,
                "velocity": 127,
                "duration": 0.2886363636363569,
                "tempo": 120.0
            },
            {
                "start_time": 64.56590909090909,
                "end_time": 64.86363636363636,
                "pitch": 72,
                "velocity": 127,
                "duration": 0.29772727272727195,
                "tempo": 120.0
            },
            {
                "start_time": 63.49545454545454,
                "end_time": 64.925,
                "pitch": 76,
                "velocity": 127,
                "duration": 1.4295454545454547,
                "tempo": 120.0
            },
            {
                "start_time": 64.925,
                "end_time": 65.22272727272727,
                "pitch": 71,
                "velocity": 127,
                "duration": 0.29772727272727195,
                "tempo": 120.0
            },
            {
                "start_time": 65.2840909090909,
                "end_time": 65.5840909090909,
                "pitch": 71,
                "velocity": 127,
                "duration": 0.29999999999999716,
                "tempo": 120.0
            },
            {
                "start_time": 36.97727272727273,
                "end_time": 65.64545454545454,
                "pitch": 31,
                "velocity": 127,
                "duration": 28.668181818181814,
                "tempo": 120.0
            },
            {
                "start_time": 37.324999999999996,
                "end_time": 65.94318181818181,
                "pitch": 62,
                "velocity": 127,
                "duration": 28.618181818181817,
                "tempo": 120.0
            },
            {
                "start_time": 65.64545454545454,
                "end_time": 65.94318181818181,
                "pitch": 62,
                "velocity": 127,
                "duration": 0.29772727272727195,
                "tempo": 120.0
            },
            {
                "start_time": 66.00454545454545,
                "end_time": 66.30227272727272,
                "pitch": 64,
                "velocity": 127,
                "duration": 0.29772727272727195,
                "tempo": 120.0
            },
            {
                "start_time": 66.36363636363636,
                "end_time": 66.66363636363636,
                "pitch": 64,
                "velocity": 127,
                "duration": 0.29999999999999716,
                "tempo": 120.0
            },
            {
                "start_time": 38.04545454545455,
                "end_time": 66.725,
                "pitch": 78,
                "velocity": 127,
                "duration": 28.679545454545448,
                "tempo": 120.0
            },
            {
                "start_time": 39.125,
                "end_time": 67.01363636363637,
                "pitch": 67,
                "velocity": 127,
                "duration": 27.888636363636365,
                "tempo": 120.0
            },
            {
                "start_time": 66.725,
                "end_time": 67.01363636363637,
                "pitch": 67,
                "velocity": 127,
                "duration": 0.28863636363637113,
                "tempo": 120.0
            },
            {
                "start_time": 67.07272727272726,
                "end_time": 67.37954545454545,
                "pitch": 69,
                "velocity": 127,
                "duration": 0.306818181818187,
                "tempo": 120.0
            },
            {
                "start_time": 67.07272727272726,
                "end_time": 67.73181818181818,
                "pitch": 67,
                "velocity": 127,
                "duration": 0.6590909090909207,
                "tempo": 120.0
            },
            {
                "start_time": 67.44318181818181,
                "end_time": 67.73181818181818,
                "pitch": 67,
                "velocity": 127,
                "duration": 0.28863636363637113,
                "tempo": 120.0
            },
            {
                "start_time": 67.44318181818181,
                "end_time": 68.0909090909091,
                "pitch": 69,
                "velocity": 127,
                "duration": 0.6477272727272805,
                "tempo": 120.0
            },
            {
                "start_time": 67.79090909090908,
                "end_time": 68.0909090909091,
                "pitch": 69,
                "velocity": 127,
                "duration": 0.30000000000001137,
                "tempo": 120.0
            },
            {
                "start_time": 68.15227272727273,
                "end_time": 68.45,
                "pitch": 69,
                "velocity": 127,
                "duration": 0.29772727272727195,
                "tempo": 120.0
            },
            {
                "start_time": 39.834090909090904,
                "end_time": 68.51136363636363,
                "pitch": 56,
                "velocity": 127,
                "duration": 28.677272727272722,
                "tempo": 120.0
            },
            {
                "start_time": 68.51136363636363,
                "end_time": 68.80909090909091,
                "pitch": 72,
                "velocity": 127,
                "duration": 0.29772727272728616,
                "tempo": 120.0
            }
        ],
        "Electric Piano 1": [
            {
                "start_time": 48.804545454545455,
                "end_time": 49.990909090909085,
                "pitch": 86,
                "velocity": 80,
                "duration": 1.1863636363636303,
                "tempo": 120.0
            },
            {
                "start_time": 50.320454545454545,
                "end_time": 50.39545454545454,
                "pitch": 83,
                "velocity": 101,
                "duration": 0.07499999999999574,
                "tempo": 120.0
            },
            {
                "start_time": 50.40909090909091,
                "end_time": 50.48409090909091,
                "pitch": 84,
                "velocity": 101,
                "duration": 0.07500000000000284,
                "tempo": 120.0
            },
            {
                "start_time": 50.5,
                "end_time": 50.574999999999996,
                "pitch": 83,
                "velocity": 101,
                "duration": 0.07499999999999574,
                "tempo": 120.0
            },
            {
                "start_time": 50.590909090909086,
                "end_time": 50.66590909090909,
                "pitch": 83,
                "velocity": 101,
                "duration": 0.07500000000000284,
                "tempo": 120.0
            },
            {
                "start_time": 50.679545454545455,
                "end_time": 50.75454545454545,
                "pitch": 81,
                "velocity": 101,
                "duration": 0.07499999999999574,
                "tempo": 120.0
            },
            {
                "start_time": 50.77045454545454,
                "end_time": 50.845454545454544,
                "pitch": 83,
                "velocity": 101,
                "duration": 0.07500000000000284,
                "tempo": 120.0
            },
            {
                "start_time": 50.85909090909091,
                "end_time": 50.934090909090905,
                "pitch": 79,
                "velocity": 101,
                "duration": 0.07499999999999574,
                "tempo": 120.0
            },
            {
                "start_time": 50.85909090909091,
                "end_time": 51.025,
                "pitch": 81,
                "velocity": 101,
                "duration": 0.16590909090908923,
                "tempo": 120.0
            },
            {
                "start_time": 50.949999999999996,
                "end_time": 51.025,
                "pitch": 81,
                "velocity": 101,
                "duration": 0.07500000000000284,
                "tempo": 120.0
            },
            {
                "start_time": 50.949999999999996,
                "end_time": 51.11363636363636,
                "pitch": 79,
                "velocity": 101,
                "duration": 0.16363636363636402,
                "tempo": 120.0
            },
            {
                "start_time": 51.04090909090909,
                "end_time": 51.11363636363636,
                "pitch": 79,
                "velocity": 101,
                "duration": 0.07272727272727053,
                "tempo": 120.0
            },
            {
                "start_time": 51.12954545454545,
                "end_time": 51.20454545454545,
                "pitch": 78,
                "velocity": 101,
                "duration": 0.07500000000000284,
                "tempo": 120.0
            },
            {
                "start_time": 51.220454545454544,
                "end_time": 51.29545454545454,
                "pitch": 79,
                "velocity": 101,
                "duration": 0.07499999999999574,
                "tempo": 120.0
            },
            {
                "start_time": 51.12954545454545,
                "end_time": 51.31136363636364,
                "pitch": 0,
                "velocity": 101,
                "duration": 0.18181818181818699,
                "tempo": 120.0
            },
            {
                "start_time": 51.31136363636364,
                "end_time": 51.38409090909091,
                "pitch": 74,
                "velocity": 101,
                "duration": 0.07272727272727053,
                "tempo": 120.0
            },
            {
                "start_time": 51.4,
                "end_time": 51.474999999999994,
                "pitch": 76,
                "velocity": 101,
                "duration": 0.07499999999999574,
                "tempo": 120.0
            },
            {
                "start_time": 51.490909090909085,
                "end_time": 51.56363636363636,
                "pitch": 72,
                "velocity": 101,
                "duration": 0.07272727272727764,
                "tempo": 120.0
            },
            {
                "start_time": 51.4,
                "end_time": 51.65454545454545,
                "pitch": 74,
                "velocity": 101,
                "duration": 0.2545454545454504,
                "tempo": 120.0
            },
            {
                "start_time": 51.57954545454545,
                "end_time": 51.65454545454545,
                "pitch": 74,
                "velocity": 101,
                "duration": 0.07499999999999574,
                "tempo": 120.0
            },
            {
                "start_time": 50.320454545454545,
                "end_time": 51.67272727272727,
                "pitch": 89,
                "velocity": 101,
                "duration": 1.3522727272727266,
                "tempo": 120.0
            },
            {
                "start_time": 51.04090909090909,
                "end_time": 51.75681818181818,
                "pitch": 81,
                "velocity": 101,
                "duration": 0.7159090909090935,
                "tempo": 120.0
            },
            {
                "start_time": 51.67272727272727,
                "end_time": 51.75681818181818,
                "pitch": 81,
                "velocity": 101,
                "duration": 0.08409090909091077,
                "tempo": 120.0
            },
            {
                "start_time": 51.78636363636363,
                "end_time": 51.87272727272727,
                "pitch": 93,
                "velocity": 101,
                "duration": 0.08636363636363598,
                "tempo": 120.0
            },
            {
                "start_time": 51.90454545454545,
                "end_time": 51.990909090909085,
                "pitch": 91,
                "velocity": 101,
                "duration": 0.08636363636363598,
                "tempo": 120.0
            },
            {
                "start_time": 51.31136363636364,
                "end_time": 52.02045454545454,
                "pitch": 0,
                "velocity": 101,
                "duration": 0.7090909090909037,
                "tempo": 120.0
            },
            {
                "start_time": 51.220454545454544,
                "end_time": 52.10909090909091,
                "pitch": 90,
                "velocity": 101,
                "duration": 0.8886363636363654,
                "tempo": 120.0
            },
            {
                "start_time": 52.02045454545454,
                "end_time": 52.10909090909091,
                "pitch": 90,
                "velocity": 101,
                "duration": 0.08863636363636829,
                "tempo": 120.0
            },
            {
                "start_time": 52.14090909090909,
                "end_time": 52.22954545454545,
                "pitch": 90,
                "velocity": 101,
                "duration": 0.08863636363636118,
                "tempo": 120.0
            },
            {
                "start_time": 50.5,
                "end_time": 52.26136363636363,
                "pitch": 88,
                "velocity": 101,
                "duration": 1.7613636363636331,
                "tempo": 120.0
            },
            {
                "start_time": 52.26136363636363,
                "end_time": 52.349999999999994,
                "pitch": 84,
                "velocity": 101,
                "duration": 0.08863636363636118,
                "tempo": 120.0
            },
            {
                "start_time": 52.26136363636363,
                "end_time": 52.37954545454545,
                "pitch": 88,
                "velocity": 101,
                "duration": 0.11818181818181728,
                "tempo": 120.0
            },
            {
                "start_time": 52.37954545454545,
                "end_time": 52.46818181818182,
                "pitch": 81,
                "velocity": 101,
                "duration": 0.08863636363636829,
                "tempo": 120.0
            },
            {
                "start_time": 51.90454545454545,
                "end_time": 52.5,
                "pitch": 93,
                "velocity": 101,
                "duration": 0.595454545454551,
                "tempo": 120.0
            },
            {
                "start_time": 52.5,
                "end_time": 52.58863636363636,
                "pitch": 91,
                "velocity": 101,
                "duration": 0.08863636363636118,
                "tempo": 120.0
            },
            {
                "start_time": 52.02045454545454,
                "end_time": 52.62045454545454,
                "pitch": 0,
                "velocity": 101,
                "duration": 0.6000000000000014,
                "tempo": 120.0
            },
            {
                "start_time": 52.62045454545454,
                "end_time": 52.709090909090904,
                "pitch": 90,
                "velocity": 101,
                "duration": 0.08863636363636118,
                "tempo": 120.0
            },
            {
                "start_time": 52.740909090909085,
                "end_time": 52.82954545454545,
                "pitch": 90,
                "velocity": 101,
                "duration": 0.08863636363636829,
                "tempo": 120.0
            },
            {
                "start_time": 52.85909090909091,
                "end_time": 52.949999999999996,
                "pitch": 83,
                "velocity": 101,
                "duration": 0.09090909090908639,
                "tempo": 120.0
            },
            {
                "start_time": 50.40909090909091,
                "end_time": 52.98181818181818,
                "pitch": 68,
                "velocity": 101,
                "duration": 2.5727272727272705,
                "tempo": 120.0
            },
            {
                "start_time": 52.98181818181818,
                "end_time": 53.06818181818181,
                "pitch": 86,
                "velocity": 101,
                "duration": 0.08636363636363598,
                "tempo": 120.0
            },
            {
                "start_time": 53.099999999999994,
                "end_time": 53.18863636363636,
                "pitch": 69,
                "velocity": 101,
                "duration": 0.08863636363636829,
                "tempo": 120.0
            },
            {
                "start_time": 53.220454545454544,
                "end_time": 53.309090909090905,
                "pitch": 69,
                "velocity": 101,
                "duration": 0.08863636363636118,
                "tempo": 120.0
            },
            {
                "start_time": 53.33863636363636,
                "end_time": 53.340909090909086,
                "pitch": 56,
                "velocity": 101,
                "duration": 0.0022727272727252057,
                "tempo": 120.0
            },
            {
                "start_time": 51.57954545454545,
                "end_time": 53.429545454545455,
                "pitch": 72,
                "velocity": 101,
                "duration": 1.8500000000000014,
                "tempo": 120.0
            },
            {
                "start_time": 53.340909090909086,
                "end_time": 53.429545454545455,
                "pitch": 72,
                "velocity": 101,
                "duration": 0.08863636363636829,
                "tempo": 120.0
            },
            {
                "start_time": 51.490909090909085,
                "end_time": 53.459090909090904,
                "pitch": 76,
                "velocity": 101,
                "duration": 1.9681818181818187,
                "tempo": 120.0
            },
            {
                "start_time": 53.459090909090904,
                "end_time": 53.55,
                "pitch": 69,
                "velocity": 101,
                "duration": 0.09090909090909349,
                "tempo": 120.0
            },
            {
                "start_time": 53.57954545454545,
                "end_time": 53.668181818181814,
                "pitch": 69,
                "velocity": 101,
                "duration": 0.08863636363636118,
                "tempo": 120.0
            },
            {
                "start_time": 53.699999999999996,
                "end_time": 53.788636363636364,
                "pitch": 72,
                "velocity": 101,
                "duration": 0.08863636363636829,
                "tempo": 120.0
            },
            {
                "start_time": 53.820454545454545,
                "end_time": 53.90909090909091,
                "pitch": 74,
                "velocity": 101,
                "duration": 0.08863636363636118,
                "tempo": 120.0
            },
            {
                "start_time": 53.459090909090904,
                "end_time": 54.02954545454545,
                "pitch": 76,
                "velocity": 101,
                "duration": 0.5704545454545453,
                "tempo": 120.0
            },
            {
                "start_time": 53.93863636363636,
                "end_time": 54.02954545454545,
                "pitch": 76,
                "velocity": 101,
                "duration": 0.09090909090908639,
                "tempo": 120.0
            },
            {
                "start_time": 54.059090909090905,
                "end_time": 54.14772727272727,
                "pitch": 76,
                "velocity": 101,
                "duration": 0.08863636363636829,
                "tempo": 120.0
            },
            {
                "start_time": 52.85909090909091,
                "end_time": 54.179545454545455,
                "pitch": 90,
                "velocity": 101,
                "duration": 1.3204545454545453,
                "tempo": 120.0
            },
            {
                "start_time": 54.179545454545455,
                "end_time": 54.26590909090909,
                "pitch": 79,
                "velocity": 101,
                "duration": 0.08636363636363598,
                "tempo": 120.0
            },
            {
                "start_time": 54.29545454545454,
                "end_time": 54.38181818181818,
                "pitch": 81,
                "velocity": 101,
                "duration": 0.08636363636364308,
                "tempo": 120.0
            },
            {
                "start_time": 54.413636363636364,
                "end_time": 54.5,
                "pitch": 81,
                "velocity": 101,
                "duration": 0.08636363636363598,
                "tempo": 120.0
            },
            {
                "start_time": 53.699999999999996,
                "end_time": 54.53181818181818,
                "pitch": 56,
                "velocity": 101,
                "duration": 0.8318181818181856,
                "tempo": 120.0
            },
            {
                "start_time": 54.53181818181818,
                "end_time": 54.709090909090904,
                "pitch": 76,
                "velocity": 101,
                "duration": 0.17727272727272236,
                "tempo": 120.0
            },
            {
                "start_time": 54.768181818181816,
                "end_time": 54.94772727272727,
                "pitch": 76,
                "velocity": 101,
                "duration": 0.17954545454545467,
                "tempo": 120.0
            },
            {
                "start_time": 53.93863636363636,
                "end_time": 55.18863636363636,
                "pitch": 74,
                "velocity": 101,
                "duration": 1.25,
                "tempo": 120.0
            },
            {
                "start_time": 55.00909090909091,
                "end_time": 55.18863636363636,
                "pitch": 74,
                "velocity": 101,
                "duration": 0.17954545454545467,
                "tempo": 120.0
            },
            {
                "start_time": 51.67272727272727,
                "end_time": 55.25,
                "pitch": 89,
                "velocity": 101,
                "duration": 3.577272727272728,
                "tempo": 120.0
            },
            {
                "start_time": 54.29545454545454,
                "end_time": 55.42727272727272,
                "pitch": 79,
                "velocity": 101,
                "duration": 1.1318181818181827,
                "tempo": 120.0
            },
            {
                "start_time": 55.25,
                "end_time": 55.42727272727272,
                "pitch": 79,
                "velocity": 101,
                "duration": 0.17727272727272236,
                "tempo": 120.0
            },
            {
                "start_time": 55.490909090909085,
                "end_time": 55.668181818181814,
                "pitch": 79,
                "velocity": 101,
                "duration": 0.17727272727272947,
                "tempo": 120.0
            },
            {
                "start_time": 52.62045454545454,
                "end_time": 55.72954545454545,
                "pitch": 0,
                "velocity": 101,
                "duration": 3.1090909090909093,
                "tempo": 120.0
            },
            {
                "start_time": 55.72954545454545,
                "end_time": 55.90681818181818,
                "pitch": 78,
                "velocity": 101,
                "duration": 0.17727272727272947,
                "tempo": 120.0
            },
            {
                "start_time": 54.179545454545455,
                "end_time": 55.970454545454544,
                "pitch": 90,
                "velocity": 101,
                "duration": 1.7909090909090892,
                "tempo": 120.0
            },
            {
                "start_time": 55.970454545454544,
                "end_time": 56.14772727272727,
                "pitch": 83,
                "velocity": 101,
                "duration": 0.17727272727272947,
                "tempo": 120.0
            },
            {
                "start_time": 56.209090909090904,
                "end_time": 56.38863636363636,
                "pitch": 83,
                "velocity": 101,
                "duration": 0.17954545454545467,
                "tempo": 120.0
            },
            {
                "start_time": 56.44772727272727,
                "end_time": 56.627272727272725,
                "pitch": 81,
                "velocity": 101,
                "duration": 0.17954545454545467,
                "tempo": 120.0
            },
            {
                "start_time": 52.98181818181818,
                "end_time": 56.68863636363636,
                "pitch": 68,
                "velocity": 101,
                "duration": 3.7068181818181856,
                "tempo": 120.0
            },
            {
                "start_time": 56.68863636363636,
                "end_time": 56.861363636363635,
                "pitch": 86,
                "velocity": 101,
                "duration": 0.17272727272727195,
                "tempo": 120.0
            },
            {
                "start_time": 56.92272727272727,
                "end_time": 56.96363636363636,
                "pitch": 84,
                "velocity": 101,
                "duration": 0.04090909090908923,
                "tempo": 120.0
            },
            {
                "start_time": 56.92272727272727,
                "end_time": 57.02272727272727,
                "pitch": 86,
                "velocity": 101,
                "duration": 0.10000000000000142,
                "tempo": 120.0
            },
            {
                "start_time": 56.97954545454545,
                "end_time": 57.02272727272727,
                "pitch": 86,
                "velocity": 101,
                "duration": 0.04318181818182154,
                "tempo": 120.0
            },
            {
                "start_time": 56.97954545454545,
                "end_time": 57.08181818181818,
                "pitch": 84,
                "velocity": 101,
                "duration": 0.10227272727272663,
                "tempo": 120.0
            },
            {
                "start_time": 57.038636363636364,
                "end_time": 57.08181818181818,
                "pitch": 84,
                "velocity": 101,
                "duration": 0.043181818181814435,
                "tempo": 120.0
            },
            {
                "start_time": 57.038636363636364,
                "end_time": 57.14090909090909,
                "pitch": 86,
                "velocity": 101,
                "duration": 0.10227272727272663,
                "tempo": 120.0
            },
            {
                "start_time": 57.09772727272727,
                "end_time": 57.14090909090909,
                "pitch": 86,
                "velocity": 101,
                "duration": 0.04318181818182154,
                "tempo": 120.0
            },
            {
                "start_time": 57.09772727272727,
                "end_time": 57.30681818181818,
                "pitch": 84,
                "velocity": 101,
                "duration": 0.20909090909091077,
                "tempo": 120.0
            },
            {
                "start_time": 57.15909090909091,
                "end_time": 57.30681818181818,
                "pitch": 84,
                "velocity": 101,
                "duration": 0.14772727272727337,
                "tempo": 120.0
            },
            {
                "start_time": 55.00909090909091,
                "end_time": 57.336363636363636,
                "pitch": 76,
                "velocity": 101,
                "duration": 2.327272727272728,
                "tempo": 120.0
            },
            {
                "start_time": 57.336363636363636,
                "end_time": 57.42727272727272,
                "pitch": 67,
                "velocity": 101,
                "duration": 0.09090909090908639,
                "tempo": 120.0
            },
            {
                "start_time": 57.45681818181818,
                "end_time": 57.54772727272727,
                "pitch": 79,
                "velocity": 101,
                "duration": 0.09090909090909349,
                "tempo": 120.0
            },
            {
                "start_time": 57.57727272727272,
                "end_time": 57.66590909090909,
                "pitch": 81,
                "velocity": 101,
                "duration": 0.08863636363636829,
                "tempo": 120.0
            },
            {
                "start_time": 57.57727272727272,
                "end_time": 57.78636363636363,
                "pitch": 79,
                "velocity": 101,
                "duration": 0.20909090909091077,
                "tempo": 120.0
            },
            {
                "start_time": 57.69772727272727,
                "end_time": 57.78636363636363,
                "pitch": 79,
                "velocity": 101,
                "duration": 0.08863636363636118,
                "tempo": 120.0
            },
            {
                "start_time": 55.72954545454545,
                "end_time": 57.81818181818181,
                "pitch": 0,
                "velocity": 101,
                "duration": 2.088636363636361,
                "tempo": 120.0
            },
            {
                "start_time": 57.81818181818181,
                "end_time": 57.90681818181818,
                "pitch": 78,
                "velocity": 101,
                "duration": 0.08863636363636829,
                "tempo": 120.0
            },
            {
                "start_time": 57.93636363636363,
                "end_time": 58.027272727272724,
                "pitch": 78,
                "velocity": 101,
                "duration": 0.09090909090909349,
                "tempo": 120.0
            },
            {
                "start_time": 57.336363636363636,
                "end_time": 58.14772727272727,
                "pitch": 76,
                "velocity": 101,
                "duration": 0.8113636363636374,
                "tempo": 120.0
            },
            {
                "start_time": 58.05681818181818,
                "end_time": 58.14772727272727,
                "pitch": 76,
                "velocity": 101,
                "duration": 0.09090909090909349,
                "tempo": 120.0
            },
            {
                "start_time": 55.970454545454544,
                "end_time": 58.17727272727272,
                "pitch": 90,
                "velocity": 101,
                "duration": 2.2068181818181785,
                "tempo": 120.0
            },
            {
                "start_time": 58.17727272727272,
                "end_time": 58.26590909090909,
                "pitch": 79,
                "velocity": 101,
                "duration": 0.08863636363636829,
                "tempo": 120.0
            },
            {
                "start_time": 57.69772727272727,
                "end_time": 58.38636363636363,
                "pitch": 81,
                "velocity": 101,
                "duration": 0.6886363636363626,
                "tempo": 120.0
            },
            {
                "start_time": 58.29772727272727,
                "end_time": 58.38636363636363,
                "pitch": 81,
                "velocity": 101,
                "duration": 0.08863636363636118,
                "tempo": 120.0
            },
            {
                "start_time": 58.29772727272727,
                "end_time": 58.506818181818176,
                "pitch": 79,
                "velocity": 101,
                "duration": 0.20909090909090366,
                "tempo": 120.0
            },
            {
                "start_time": 58.41590909090909,
                "end_time": 58.506818181818176,
                "pitch": 79,
                "velocity": 101,
                "duration": 0.09090909090908639,
                "tempo": 120.0
            },
            {
                "start_time": 57.81818181818181,
                "end_time": 58.53636363636363,
                "pitch": 0,
                "velocity": 101,
                "duration": 0.7181818181818187,
                "tempo": 120.0
            },
            {
                "start_time": 58.53636363636363,
                "end_time": 58.627272727272725,
                "pitch": 78,
                "velocity": 101,
                "duration": 0.09090909090909349,
                "tempo": 120.0
            },
            {
                "start_time": 58.65681818181818,
                "end_time": 58.74772727272727,
                "pitch": 78,
                "velocity": 101,
                "duration": 0.09090909090908639,
                "tempo": 120.0
            },
            {
                "start_time": 58.777272727272724,
                "end_time": 58.865909090909085,
                "pitch": 76,
                "velocity": 101,
                "duration": 0.08863636363636118,
                "tempo": 120.0
            },
            {
                "start_time": 58.17727272727272,
                "end_time": 58.89772727272727,
                "pitch": 90,
                "velocity": 101,
                "duration": 0.720454545454551,
                "tempo": 120.0
            },
            {
                "start_time": 58.89772727272727,
                "end_time": 58.986363636363635,
                "pitch": 79,
                "velocity": 101,
                "duration": 0.08863636363636118,
                "tempo": 120.0
            },
            {
                "start_time": 58.41590909090909,
                "end_time": 59.10681818181818,
                "pitch": 81,
                "velocity": 101,
                "duration": 0.6909090909090878,
                "tempo": 120.0
            },
            {
                "start_time": 59.01590909090909,
                "end_time": 59.10681818181818,
                "pitch": 81,
                "velocity": 101,
                "duration": 0.09090909090908639,
                "tempo": 120.0
            },
            {
                "start_time": 59.01590909090909,
                "end_time": 59.224999999999994,
                "pitch": 79,
                "velocity": 101,
                "duration": 0.20909090909090366,
                "tempo": 120.0
            },
            {
                "start_time": 59.13636363636363,
                "end_time": 59.224999999999994,
                "pitch": 79,
                "velocity": 101,
                "duration": 0.08863636363636118,
                "tempo": 120.0
            },
            {
                "start_time": 59.25454545454545,
                "end_time": 59.34318181818182,
                "pitch": 83,
                "velocity": 101,
                "duration": 0.08863636363636829,
                "tempo": 120.0
            },
            {
                "start_time": 59.37045454545454,
                "end_time": 59.459090909090904,
                "pitch": 83,
                "velocity": 101,
                "duration": 0.08863636363636118,
                "tempo": 120.0
            },
            {
                "start_time": 59.13636363636363,
                "end_time": 59.48863636363636,
                "pitch": 81,
                "velocity": 101,
                "duration": 0.3522727272727266,
                "tempo": 120.0
            },
            {
                "start_time": 59.25454545454545,
                "end_time": 59.574999999999996,
                "pitch": 79,
                "velocity": 101,
                "duration": 0.3204545454545453,
                "tempo": 120.0
            },
            {
                "start_time": 59.48863636363636,
                "end_time": 59.574999999999996,
                "pitch": 79,
                "velocity": 101,
                "duration": 0.08636363636363598,
                "tempo": 120.0
            },
            {
                "start_time": 58.53636363636363,
                "end_time": 59.60681818181818,
                "pitch": 0,
                "velocity": 101,
                "duration": 1.0704545454545453,
                "tempo": 120.0
            },
            {
                "start_time": 59.60681818181818,
                "end_time": 59.695454545454545,
                "pitch": 84,
                "velocity": 101,
                "duration": 0.08863636363636829,
                "tempo": 120.0
            },
            {
                "start_time": 52.37954545454545,
                "end_time": 59.72727272727273,
                "pitch": 88,
                "velocity": 101,
                "duration": 7.347727272727276,
                "tempo": 120.0
            },
            {
                "start_time": 59.72727272727273,
                "end_time": 59.81590909090909,
                "pitch": 83,
                "velocity": 101,
                "duration": 0.08863636363636118,
                "tempo": 120.0
            },
            {
                "start_time": 59.845454545454544,
                "end_time": 59.93636363636363,
                "pitch": 83,
                "velocity": 101,
                "duration": 0.09090909090908639,
                "tempo": 120.0
            },
            {
                "start_time": 48.804545454545455,
                "end_time": 59.965909090909086,
                "pitch": 55,
                "velocity": 80,
                "duration": 11.161363636363632,
                "tempo": 120.0
            },
            {
                "start_time": 59.965909090909086,
                "end_time": 60.05681818181818,
                "pitch": 84,
                "velocity": 101,
                "duration": 0.09090909090909349,
                "tempo": 120.0
            },
            {
                "start_time": 59.72727272727273,
                "end_time": 60.086363636363636,
                "pitch": 88,
                "velocity": 101,
                "duration": 0.35909090909090935,
                "tempo": 120.0
            },
            {
                "start_time": 60.086363636363636,
                "end_time": 60.175,
                "pitch": 83,
                "velocity": 101,
                "duration": 0.08863636363636118,
                "tempo": 120.0
            },
            {
                "start_time": 60.20681818181818,
                "end_time": 60.29545454545454,
                "pitch": 83,
                "velocity": 101,
                "duration": 0.08863636363636118,
                "tempo": 120.0
            },
            {
                "start_time": 59.965909090909086,
                "end_time": 60.32727272727272,
                "pitch": 55,
                "velocity": 101,
                "duration": 0.36136363636363455,
                "tempo": 120.0
            },
            {
                "start_time": 60.324999999999996,
                "end_time": 60.32727272727272,
                "pitch": 55,
                "velocity": 101,
                "duration": 0.0022727272727252057,
                "tempo": 120.0
            },
            {
                "start_time": 60.086363636363636,
                "end_time": 60.41590909090909,
                "pitch": 88,
                "velocity": 101,
                "duration": 0.32954545454545325,
                "tempo": 120.0
            },
            {
                "start_time": 60.32727272727272,
                "end_time": 60.41590909090909,
                "pitch": 88,
                "velocity": 101,
                "duration": 0.08863636363636829,
                "tempo": 120.0
            },
            {
                "start_time": 60.445454545454545,
                "end_time": 60.53636363636363,
                "pitch": 88,
                "velocity": 101,
                "duration": 0.09090909090908639,
                "tempo": 120.0
            },
            {
                "start_time": 60.56590909090909,
                "end_time": 60.65681818181818,
                "pitch": 91,
                "velocity": 101,
                "duration": 0.09090909090909349,
                "tempo": 120.0
            },
            {
                "start_time": 59.60681818181818,
                "end_time": 60.68636363636363,
                "pitch": 0,
                "velocity": 101,
                "duration": 1.0795454545454533,
                "tempo": 120.0
            },
            {
                "start_time": 60.68636363636363,
                "end_time": 60.775,
                "pitch": 74,
                "velocity": 101,
                "duration": 0.08863636363636829,
                "tempo": 120.0
            },
            {
                "start_time": 60.80681818181818,
                "end_time": 60.89545454545454,
                "pitch": 76,
                "velocity": 101,
                "duration": 0.08863636363636118,
                "tempo": 120.0
            },
            {
                "start_time": 60.92727272727272,
                "end_time": 60.970454545454544,
                "pitch": 76,
                "velocity": 101,
                "duration": 0.04318181818182154,
                "tempo": 120.0
            },
            {
                "start_time": 58.89772727272727,
                "end_time": 60.986363636363635,
                "pitch": 90,
                "velocity": 101,
                "duration": 2.088636363636361,
                "tempo": 120.0
            },
            {
                "start_time": 60.986363636363635,
                "end_time": 61.03181818181818,
                "pitch": 83,
                "velocity": 101,
                "duration": 0.045454545454546746,
                "tempo": 120.0
            },
            {
                "start_time": 61.04545454545454,
                "end_time": 61.090909090909086,
                "pitch": 83,
                "velocity": 101,
                "duration": 0.045454545454546746,
                "tempo": 120.0
            },
            {
                "start_time": 59.48863636363636,
                "end_time": 61.15,
                "pitch": 81,
                "velocity": 101,
                "duration": 1.6613636363636388,
                "tempo": 120.0
            },
            {
                "start_time": 61.10681818181818,
                "end_time": 61.15,
                "pitch": 81,
                "velocity": 101,
                "duration": 0.04318181818182154,
                "tempo": 120.0
            },
            {
                "start_time": 56.68863636363636,
                "end_time": 61.16590909090909,
                "pitch": 68,
                "velocity": 101,
                "duration": 4.477272727272727,
                "tempo": 120.0
            },
            {
                "start_time": 61.16590909090909,
                "end_time": 61.211363636363636,
                "pitch": 84,
                "velocity": 101,
                "duration": 0.045454545454546746,
                "tempo": 120.0
            },
            {
                "start_time": 61.22727272727273,
                "end_time": 61.27045454545454,
                "pitch": 83,
                "velocity": 101,
                "duration": 0.043181818181814435,
                "tempo": 120.0
            },
            {
                "start_time": 61.16590909090909,
                "end_time": 61.28636363636363,
                "pitch": 68,
                "velocity": 101,
                "duration": 0.12045454545454248,
                "tempo": 120.0
            },
            {
                "start_time": 61.28636363636363,
                "end_time": 61.33181818181818,
                "pitch": 84,
                "velocity": 101,
                "duration": 0.045454545454546746,
                "tempo": 120.0
            },
            {
                "start_time": 57.15909090909091,
                "end_time": 61.39090909090909,
                "pitch": 86,
                "velocity": 101,
                "duration": 4.231818181818184,
                "tempo": 120.0
            },
            {
                "start_time": 61.34772727272727,
                "end_time": 61.39090909090909,
                "pitch": 86,
                "velocity": 101,
                "duration": 0.04318181818182154,
                "tempo": 120.0
            },
            {
                "start_time": 61.40681818181818,
                "end_time": 61.449999999999996,
                "pitch": 86,
                "velocity": 101,
                "duration": 0.043181818181814435,
                "tempo": 120.0
            },
            {
                "start_time": 61.465909090909086,
                "end_time": 61.51136363636363,
                "pitch": 85,
                "velocity": 101,
                "duration": 0.045454545454546746,
                "tempo": 120.0
            },
            {
                "start_time": 61.22727272727273,
                "end_time": 61.570454545454545,
                "pitch": 88,
                "velocity": 101,
                "duration": 0.3431818181818187,
                "tempo": 120.0
            },
            {
                "start_time": 61.527272727272724,
                "end_time": 61.570454545454545,
                "pitch": 88,
                "velocity": 101,
                "duration": 0.04318181818182154,
                "tempo": 120.0
            },
            {
                "start_time": 61.58863636363636,
                "end_time": 61.62954545454545,
                "pitch": 88,
                "velocity": 101,
                "duration": 0.04090909090908923,
                "tempo": 120.0
            },
            {
                "start_time": 61.64545454545454,
                "end_time": 61.69090909090909,
                "pitch": 87,
                "velocity": 101,
                "duration": 0.045454545454546746,
                "tempo": 120.0
            },
            {
                "start_time": 61.70681818181818,
                "end_time": 61.75,
                "pitch": 88,
                "velocity": 101,
                "duration": 0.04318181818182154,
                "tempo": 120.0
            },
            {
                "start_time": 60.986363636363635,
                "end_time": 61.76590909090909,
                "pitch": 90,
                "velocity": 101,
                "duration": 0.7795454545454561,
                "tempo": 120.0
            },
            {
                "start_time": 61.527272727272724,
                "end_time": 61.81136363636363,
                "pitch": 86,
                "velocity": 101,
                "duration": 0.2840909090909065,
                "tempo": 120.0
            },
            {
                "start_time": 61.76590909090909,
                "end_time": 61.81136363636363,
                "pitch": 86,
                "velocity": 101,
                "duration": 0.04545454545453964,
                "tempo": 120.0
            },
            {
                "start_time": 61.34772727272727,
                "end_time": 61.87045454545454,
                "pitch": 84,
                "velocity": 101,
                "duration": 0.5227272727272734,
                "tempo": 120.0
            },
            {
                "start_time": 61.82727272727272,
                "end_time": 61.87045454545454,
                "pitch": 84,
                "velocity": 101,
                "duration": 0.04318181818182154,
                "tempo": 120.0
            },
            {
                "start_time": 61.76590909090909,
                "end_time": 61.929545454545455,
                "pitch": 90,
                "velocity": 101,
                "duration": 0.16363636363636402,
                "tempo": 120.0
            },
            {
                "start_time": 61.88636363636363,
                "end_time": 61.929545454545455,
                "pitch": 90,
                "velocity": 101,
                "duration": 0.04318181818182154,
                "tempo": 120.0
            },
            {
                "start_time": 61.945454545454545,
                "end_time": 61.990909090909085,
                "pitch": 90,
                "velocity": 101,
                "duration": 0.04545454545453964,
                "tempo": 120.0
            },
            {
                "start_time": 61.82727272727272,
                "end_time": 62.05,
                "pitch": 86,
                "velocity": 101,
                "duration": 0.22272727272727622,
                "tempo": 120.0
            },
            {
                "start_time": 62.006818181818176,
                "end_time": 62.05,
                "pitch": 86,
                "velocity": 101,
                "duration": 0.04318181818182154,
                "tempo": 120.0
            },
            {
                "start_time": 62.06590909090909,
                "end_time": 62.10909090909091,
                "pitch": 95,
                "velocity": 101,
                "duration": 0.04318181818182154,
                "tempo": 120.0
            },
            {
                "start_time": 62.125,
                "end_time": 62.168181818181814,
                "pitch": 95,
                "velocity": 101,
                "duration": 0.043181818181814435,
                "tempo": 120.0
            },
            {
                "start_time": 52.5,
                "end_time": 62.18181818181818,
                "pitch": 93,
                "velocity": 101,
                "duration": 9.68181818181818,
                "tempo": 120.0
            },
            {
                "start_time": 62.18181818181818,
                "end_time": 62.224999999999994,
                "pitch": 91,
                "velocity": 101,
                "duration": 0.043181818181814435,
                "tempo": 120.0
            },
            {
                "start_time": 62.240909090909085,
                "end_time": 62.28409090909091,
                "pitch": 95,
                "velocity": 101,
                "duration": 0.04318181818182154,
                "tempo": 120.0
            },
            {
                "start_time": 62.3,
                "end_time": 62.34318181818182,
                "pitch": 95,
                "velocity": 101,
                "duration": 0.04318181818182154,
                "tempo": 120.0
            },
            {
                "start_time": 62.18181818181818,
                "end_time": 62.35681818181818,
                "pitch": 93,
                "velocity": 101,
                "duration": 0.17499999999999716,
                "tempo": 120.0
            },
            {
                "start_time": 62.240909090909085,
                "end_time": 62.4,
                "pitch": 91,
                "velocity": 101,
                "duration": 0.1590909090909136,
                "tempo": 120.0
            },
            {
                "start_time": 62.35681818181818,
                "end_time": 62.4,
                "pitch": 91,
                "velocity": 101,
                "duration": 0.04318181818182154,
                "tempo": 120.0
            },
            {
                "start_time": 62.41590909090909,
                "end_time": 62.459090909090904,
                "pitch": 95,
                "velocity": 101,
                "duration": 0.043181818181814435,
                "tempo": 120.0
            },
            {
                "start_time": 62.474999999999994,
                "end_time": 62.52045454545454,
                "pitch": 95,
                "velocity": 101,
                "duration": 0.045454545454546746,
                "tempo": 120.0
            },
            {
                "start_time": 62.35681818181818,
                "end_time": 62.53636363636363,
                "pitch": 93,
                "velocity": 101,
                "duration": 0.17954545454545467,
                "tempo": 120.0
            },
            {
                "start_time": 62.41590909090909,
                "end_time": 62.57954545454545,
                "pitch": 91,
                "velocity": 101,
                "duration": 0.16363636363636402,
                "tempo": 120.0
            },
            {
                "start_time": 62.53636363636363,
                "end_time": 62.57954545454545,
                "pitch": 91,
                "velocity": 101,
                "duration": 0.04318181818182154,
                "tempo": 120.0
            },
            {
                "start_time": 62.595454545454544,
                "end_time": 62.64090909090909,
                "pitch": 95,
                "velocity": 101,
                "duration": 0.045454545454546746,
                "tempo": 120.0
            },
            {
                "start_time": 62.65681818181818,
                "end_time": 62.699999999999996,
                "pitch": 95,
                "velocity": 101,
                "duration": 0.043181818181814435,
                "tempo": 120.0
            },
            {
                "start_time": 62.53636363636363,
                "end_time": 62.715909090909086,
                "pitch": 93,
                "velocity": 101,
                "duration": 0.17954545454545467,
                "tempo": 120.0
            },
            {
                "start_time": 62.595454545454544,
                "end_time": 62.75909090909091,
                "pitch": 91,
                "velocity": 101,
                "duration": 0.16363636363636402,
                "tempo": 120.0
            },
            {
                "start_time": 62.715909090909086,
                "end_time": 62.75909090909091,
                "pitch": 91,
                "velocity": 101,
                "duration": 0.04318181818182154,
                "tempo": 120.0
            },
            {
                "start_time": 62.775,
                "end_time": 62.820454545454545,
                "pitch": 95,
                "velocity": 101,
                "duration": 0.045454545454546746,
                "tempo": 120.0
            },
            {
                "start_time": 62.834090909090904,
                "end_time": 62.87954545454545,
                "pitch": 95,
                "velocity": 101,
                "duration": 0.045454545454546746,
                "tempo": 120.0
            },
            {
                "start_time": 62.715909090909086,
                "end_time": 62.89545454545454,
                "pitch": 93,
                "velocity": 101,
                "duration": 0.17954545454545467,
                "tempo": 120.0
            },
            {
                "start_time": 62.775,
                "end_time": 62.94090909090909,
                "pitch": 91,
                "velocity": 101,
                "duration": 0.16590909090908923,
                "tempo": 120.0
            },
            {
                "start_time": 62.89545454545454,
                "end_time": 62.94090909090909,
                "pitch": 91,
                "velocity": 101,
                "duration": 0.045454545454546746,
                "tempo": 120.0
            },
            {
                "start_time": 62.95454545454545,
                "end_time": 63.0,
                "pitch": 95,
                "velocity": 101,
                "duration": 0.045454545454546746,
                "tempo": 120.0
            },
            {
                "start_time": 63.01590909090909,
                "end_time": 63.059090909090905,
                "pitch": 95,
                "velocity": 101,
                "duration": 0.043181818181814435,
                "tempo": 120.0
            },
            {
                "start_time": 62.89545454545454,
                "end_time": 63.074999999999996,
                "pitch": 93,
                "velocity": 101,
                "duration": 0.17954545454545467,
                "tempo": 120.0
            },
            {
                "start_time": 62.95454545454545,
                "end_time": 63.12045454545454,
                "pitch": 91,
                "velocity": 101,
                "duration": 0.16590909090908923,
                "tempo": 120.0
            },
            {
                "start_time": 63.074999999999996,
                "end_time": 63.12045454545454,
                "pitch": 91,
                "velocity": 101,
                "duration": 0.045454545454546746,
                "tempo": 120.0
            }
        ],
        "French Horn": [
            {
                "start_time": 8.652272727272727,
                "end_time": 8.74090909090909,
                "pitch": 72,
                "velocity": 127,
                "duration": 0.08863636363636296,
                "tempo": 120.0
            },
            {
                "start_time": 8.772727272727272,
                "end_time": 8.86590909090909,
                "pitch": 71,
                "velocity": 127,
                "duration": 0.0931818181818187,
                "tempo": 120.0
            },
            {
                "start_time": 8.897727272727272,
                "end_time": 8.988636363636363,
                "pitch": 71,
                "velocity": 127,
                "duration": 0.09090909090909172,
                "tempo": 120.0
            },
            {
                "start_time": 9.020454545454545,
                "end_time": 9.10681818181818,
                "pitch": 69,
                "velocity": 127,
                "duration": 0.08636363636363598,
                "tempo": 120.0
            },
            {
                "start_time": 9.136363636363637,
                "end_time": 9.222727272727273,
                "pitch": 72,
                "velocity": 127,
                "duration": 0.08636363636363598,
                "tempo": 120.0
            },
            {
                "start_time": 9.252272727272727,
                "end_time": 9.338636363636363,
                "pitch": 74,
                "velocity": 127,
                "duration": 0.08636363636363598,
                "tempo": 120.0
            },
            {
                "start_time": 8.772727272727272,
                "end_time": 9.456818181818182,
                "pitch": 76,
                "velocity": 127,
                "duration": 0.6840909090909104,
                "tempo": 120.0
            },
            {
                "start_time": 9.368181818181817,
                "end_time": 9.456818181818182,
                "pitch": 76,
                "velocity": 127,
                "duration": 0.08863636363636473,
                "tempo": 120.0
            },
            {
                "start_time": 9.368181818181817,
                "end_time": 9.577272727272726,
                "pitch": 74,
                "velocity": 127,
                "duration": 0.209090909090909,
                "tempo": 120.0
            },
            {
                "start_time": 9.488636363636363,
                "end_time": 9.577272727272726,
                "pitch": 74,
                "velocity": 127,
                "duration": 0.08863636363636296,
                "tempo": 120.0
            },
            {
                "start_time": 9.252272727272727,
                "end_time": 9.697727272727272,
                "pitch": 72,
                "velocity": 127,
                "duration": 0.4454545454545453,
                "tempo": 120.0
            },
            {
                "start_time": 9.60909090909091,
                "end_time": 9.697727272727272,
                "pitch": 72,
                "velocity": 127,
                "duration": 0.08863636363636296,
                "tempo": 120.0
            },
            {
                "start_time": 9.60909090909091,
                "end_time": 9.818181818181818,
                "pitch": 74,
                "velocity": 127,
                "duration": 0.209090909090909,
                "tempo": 120.0
            },
            {
                "start_time": 9.729545454545454,
                "end_time": 9.818181818181818,
                "pitch": 74,
                "velocity": 127,
                "duration": 0.08863636363636473,
                "tempo": 120.0
            },
            {
                "start_time": 9.488636363636363,
                "end_time": 9.938636363636363,
                "pitch": 76,
                "velocity": 127,
                "duration": 0.4499999999999993,
                "tempo": 120.0
            },
            {
                "start_time": 9.847727272727273,
                "end_time": 9.938636363636363,
                "pitch": 76,
                "velocity": 127,
                "duration": 0.09090909090908994,
                "tempo": 120.0
            },
            {
                "start_time": 9.970454545454546,
                "end_time": 10.056818181818182,
                "pitch": 76,
                "velocity": 127,
                "duration": 0.08636363636363598,
                "tempo": 120.0
            },
            {
                "start_time": 10.088636363636363,
                "end_time": 10.177272727272726,
                "pitch": 79,
                "velocity": 127,
                "duration": 0.08863636363636296,
                "tempo": 120.0
            },
            {
                "start_time": 8.652272727272727,
                "end_time": 10.209090909090909,
                "pitch": 0,
                "velocity": 127,
                "duration": 1.5568181818181817,
                "tempo": 120.0
            },
            {
                "start_time": 10.209090909090909,
                "end_time": 10.297727272727272,
                "pitch": 77,
                "velocity": 127,
                "duration": 0.08863636363636296,
                "tempo": 120.0
            },
            {
                "start_time": 10.327272727272726,
                "end_time": 10.418181818181818,
                "pitch": 77,
                "velocity": 127,
                "duration": 0.09090909090909172,
                "tempo": 120.0
            },
            {
                "start_time": 10.447727272727272,
                "end_time": 10.538636363636362,
                "pitch": 76,
                "velocity": 127,
                "duration": 0.09090909090908994,
                "tempo": 120.0
            },
            {
                "start_time": 10.568181818181818,
                "end_time": 10.656818181818181,
                "pitch": 77,
                "velocity": 127,
                "duration": 0.08863636363636296,
                "tempo": 120.0
            },
            {
                "start_time": 9.847727272727273,
                "end_time": 10.777272727272727,
                "pitch": 74,
                "velocity": 127,
                "duration": 0.9295454545454547,
                "tempo": 120.0
            },
            {
                "start_time": 10.688636363636363,
                "end_time": 10.777272727272727,
                "pitch": 74,
                "velocity": 127,
                "duration": 0.08863636363636473,
                "tempo": 120.0
            },
            {
                "start_time": 10.688636363636363,
                "end_time": 10.895454545454545,
                "pitch": 76,
                "velocity": 127,
                "duration": 0.206818181818182,
                "tempo": 120.0
            },
            {
                "start_time": 10.809090909090909,
                "end_time": 10.895454545454545,
                "pitch": 76,
                "velocity": 127,
                "duration": 0.08636363636363598,
                "tempo": 120.0
            },
            {
                "start_time": 10.809090909090909,
                "end_time": 11.011363636363637,
                "pitch": 74,
                "velocity": 127,
                "duration": 0.20227272727272805,
                "tempo": 120.0
            },
            {
                "start_time": 10.924999999999999,
                "end_time": 11.011363636363637,
                "pitch": 74,
                "velocity": 127,
                "duration": 0.08636363636363775,
                "tempo": 120.0
            },
            {
                "start_time": 9.729545454545454,
                "end_time": 11.127272727272727,
                "pitch": 72,
                "velocity": 127,
                "duration": 1.3977272727272734,
                "tempo": 120.0
            },
            {
                "start_time": 11.040909090909091,
                "end_time": 11.127272727272727,
                "pitch": 72,
                "velocity": 127,
                "duration": 0.08636363636363598,
                "tempo": 120.0
            },
            {
                "start_time": 11.040909090909091,
                "end_time": 11.247727272727273,
                "pitch": 74,
                "velocity": 127,
                "duration": 0.206818181818182,
                "tempo": 120.0
            },
            {
                "start_time": 11.159090909090908,
                "end_time": 11.247727272727273,
                "pitch": 74,
                "velocity": 127,
                "duration": 0.08863636363636473,
                "tempo": 120.0
            },
            {
                "start_time": 11.277272727272727,
                "end_time": 11.279545454545454,
                "pitch": 74,
                "velocity": 127,
                "duration": 0.002272727272726982,
                "tempo": 120.0
            },
            {
                "start_time": 11.159090909090908,
                "end_time": 11.36590909090909,
                "pitch": 72,
                "velocity": 127,
                "duration": 0.206818181818182,
                "tempo": 120.0
            },
            {
                "start_time": 11.279545454545454,
                "end_time": 11.36590909090909,
                "pitch": 72,
                "velocity": 127,
                "duration": 0.08636363636363598,
                "tempo": 120.0
            },
            {
                "start_time": 10.924999999999999,
                "end_time": 11.397727272727272,
                "pitch": 76,
                "velocity": 127,
                "duration": 0.47272727272727266,
                "tempo": 120.0
            },
            {
                "start_time": 11.397727272727272,
                "end_time": 11.486363636363636,
                "pitch": 71,
                "velocity": 127,
                "duration": 0.08863636363636473,
                "tempo": 120.0
            },
            {
                "start_time": 10.209090909090909,
                "end_time": 89.00227272727273,
                "pitch": 0,
                "velocity": 127,
                "duration": 78.79318181818182,
                "tempo": 120.0
            },
            {
                "start_time": 89.00227272727273,
                "end_time": 89.08863636363635,
                "pitch": 72,
                "velocity": 127,
                "duration": 0.08636363636362887,
                "tempo": 120.0
            },
            {
                "start_time": 11.397727272727272,
                "end_time": 89.11818181818181,
                "pitch": 76,
                "velocity": 127,
                "duration": 77.72045454545454,
                "tempo": 120.0
            },
            {
                "start_time": 89.11818181818181,
                "end_time": 89.20681818181818,
                "pitch": 71,
                "velocity": 127,
                "duration": 0.08863636363636829,
                "tempo": 120.0
            },
            {
                "start_time": 89.23863636363636,
                "end_time": 89.32727272727273,
                "pitch": 71,
                "velocity": 127,
                "duration": 0.08863636363636829,
                "tempo": 120.0
            },
            {
                "start_time": 89.35909090909091,
                "end_time": 89.44545454545454,
                "pitch": 69,
                "velocity": 127,
                "duration": 0.08636363636362887,
                "tempo": 120.0
            },
            {
                "start_time": 9.136363636363637,
                "end_time": 89.475,
                "pitch": 56,
                "velocity": 127,
                "duration": 80.33863636363635,
                "tempo": 120.0
            },
            {
                "start_time": 89.475,
                "end_time": 89.56136363636364,
                "pitch": 72,
                "velocity": 127,
                "duration": 0.08636363636364308,
                "tempo": 120.0
            },
            {
                "start_time": 89.5909090909091,
                "end_time": 89.67727272727272,
                "pitch": 74,
                "velocity": 127,
                "duration": 0.08636363636362887,
                "tempo": 120.0
            },
            {
                "start_time": 89.11818181818181,
                "end_time": 89.79772727272727,
                "pitch": 76,
                "velocity": 127,
                "duration": 0.6795454545454618,
                "tempo": 120.0
            },
            {
                "start_time": 89.7090909090909,
                "end_time": 89.79772727272727,
                "pitch": 76,
                "velocity": 127,
                "duration": 0.08863636363636829,
                "tempo": 120.0
            },
            {
                "start_time": 89.7090909090909,
                "end_time": 89.91818181818181,
                "pitch": 74,
                "velocity": 127,
                "duration": 0.20909090909090366,
                "tempo": 120.0
            },
            {
                "start_time": 89.82727272727273,
                "end_time": 89.91818181818181,
                "pitch": 74,
                "velocity": 127,
                "duration": 0.09090909090907928,
                "tempo": 120.0
            },
            {
                "start_time": 89.94772727272726,
                "end_time": 89.94999999999999,
                "pitch": 74,
                "velocity": 127,
                "duration": 0.0022727272727252057,
                "tempo": 120.0
            },
            {
                "start_time": 89.5909090909091,
                "end_time": 90.03636363636363,
                "pitch": 72,
                "velocity": 127,
                "duration": 0.4454545454545382,
                "tempo": 120.0
            },
            {
                "start_time": 89.94999999999999,
                "end_time": 90.03636363636363,
                "pitch": 72,
                "velocity": 127,
                "duration": 0.08636363636364308,
                "tempo": 120.0
            },
            {
                "start_time": 90.06818181818181,
                "end_time": 90.15681818181818,
                "pitch": 74,
                "velocity": 127,
                "duration": 0.08863636363636829,
                "tempo": 120.0
            },
            {
                "start_time": 89.82727272727273,
                "end_time": 90.27727272727272,
                "pitch": 76,
                "velocity": 127,
                "duration": 0.44999999999998863,
                "tempo": 120.0
            },
            {
                "start_time": 90.18863636363636,
                "end_time": 90.27727272727272,
                "pitch": 76,
                "velocity": 127,
                "duration": 0.08863636363635408,
                "tempo": 120.0
            },
            {
                "start_time": 90.3090909090909,
                "end_time": 90.39772727272727,
                "pitch": 76,
                "velocity": 127,
                "duration": 0.08863636363636829,
                "tempo": 120.0
            },
            {
                "start_time": 10.088636363636363,
                "end_time": 90.42954545454545,
                "pitch": 90,
                "velocity": 127,
                "duration": 80.34090909090908,
                "tempo": 120.0
            },
            {
                "start_time": 90.42954545454545,
                "end_time": 90.51590909090909,
                "pitch": 79,
                "velocity": 127,
                "duration": 0.08636363636364308,
                "tempo": 120.0
            },
            {
                "start_time": 89.00227272727273,
                "end_time": 90.54772727272727,
                "pitch": 0,
                "velocity": 127,
                "duration": 1.5454545454545467,
                "tempo": 120.0
            },
            {
                "start_time": 90.54772727272727,
                "end_time": 90.63636363636363,
                "pitch": 77,
                "velocity": 127,
                "duration": 0.08863636363635408,
                "tempo": 120.0
            },
            {
                "start_time": 90.66818181818181,
                "end_time": 90.75681818181818,
                "pitch": 77,
                "velocity": 127,
                "duration": 0.08863636363636829,
                "tempo": 120.0
            },
            {
                "start_time": 90.78863636363636,
                "end_time": 90.87727272727273,
                "pitch": 76,
                "velocity": 127,
                "duration": 0.08863636363636829,
                "tempo": 120.0
            },
            {
                "start_time": 90.90681818181818,
                "end_time": 90.99772727272727,
                "pitch": 77,
                "velocity": 127,
                "duration": 0.09090909090909349,
                "tempo": 120.0
            },
            {
                "start_time": 90.18863636363636,
                "end_time": 91.11590909090908,
                "pitch": 74,
                "velocity": 127,
                "duration": 0.9272727272727224,
                "tempo": 120.0
            },
            {
                "start_time": 91.02727272727272,
                "end_time": 91.11590909090908,
                "pitch": 74,
                "velocity": 127,
                "duration": 0.08863636363636829,
                "tempo": 120.0
            },
            {
                "start_time": 91.02727272727272,
                "end_time": 91.23636363636363,
                "pitch": 76,
                "velocity": 127,
                "duration": 0.20909090909091788,
                "tempo": 120.0
            },
            {
                "start_time": 91.14772727272727,
                "end_time": 91.23636363636363,
                "pitch": 76,
                "velocity": 127,
                "duration": 0.08863636363636829,
                "tempo": 120.0
            },
            {
                "start_time": 91.14772727272727,
                "end_time": 91.35681818181818,
                "pitch": 74,
                "velocity": 127,
                "duration": 0.20909090909091788,
                "tempo": 120.0
            },
            {
                "start_time": 91.26818181818182,
                "end_time": 91.35681818181818,
                "pitch": 74,
                "velocity": 127,
                "duration": 0.08863636363636829,
                "tempo": 120.0
            },
            {
                "start_time": 90.06818181818181,
                "end_time": 91.47727272727272,
                "pitch": 72,
                "velocity": 127,
                "duration": 1.4090909090909065,
                "tempo": 120.0
            },
            {
                "start_time": 91.38863636363637,
                "end_time": 91.47727272727272,
                "pitch": 72,
                "velocity": 127,
                "duration": 0.08863636363635408,
                "tempo": 120.0
            },
            {
                "start_time": 91.38863636363637,
                "end_time": 91.59772727272727,
                "pitch": 74,
                "velocity": 127,
                "duration": 0.20909090909090366,
                "tempo": 120.0
            },
            {
                "start_time": 91.50681818181818,
                "end_time": 91.59772727272727,
                "pitch": 74,
                "velocity": 127,
                "duration": 0.09090909090909349,
                "tempo": 120.0
            },
            {
                "start_time": 91.50681818181818,
                "end_time": 91.7159090909091,
                "pitch": 72,
                "velocity": 127,
                "duration": 0.20909090909091788,
                "tempo": 120.0
            },
            {
                "start_time": 91.62727272727273,
                "end_time": 91.7159090909091,
                "pitch": 72,
                "velocity": 127,
                "duration": 0.08863636363636829,
                "tempo": 120.0
            },
            {
                "start_time": 91.26818181818182,
                "end_time": 91.74772727272727,
                "pitch": 76,
                "velocity": 127,
                "duration": 0.47954545454545894,
                "tempo": 120.0
            },
            {
                "start_time": 91.74772727272727,
                "end_time": 91.83636363636363,
                "pitch": 71,
                "velocity": 127,
                "duration": 0.08863636363635408,
                "tempo": 120.0
            }
        ],
        "Vibraphone": [
            {
                "start_time": 41.75454545454545,
                "end_time": 41.82954545454545,
                "pitch": 79,
                "velocity": 101,
                "duration": 0.07500000000000284,
                "tempo": 120.0
            },
            {
                "start_time": 41.875,
                "end_time": 41.94772727272727,
                "pitch": 79,
                "velocity": 101,
                "duration": 0.07272727272727053,
                "tempo": 120.0
            },
            {
                "start_time": 41.99545454545454,
                "end_time": 42.18181818181818,
                "pitch": 79,
                "velocity": 101,
                "duration": 0.1863636363636374,
                "tempo": 120.0
            },
            {
                "start_time": 42.22727272727273,
                "end_time": 42.3,
                "pitch": 79,
                "velocity": 101,
                "duration": 0.07272727272727053,
                "tempo": 120.0
            },
            {
                "start_time": 42.34318181818182,
                "end_time": 42.418181818181814,
                "pitch": 79,
                "velocity": 101,
                "duration": 0.07499999999999574,
                "tempo": 120.0
            },
            {
                "start_time": 42.46363636363636,
                "end_time": 42.538636363636364,
                "pitch": 79,
                "velocity": 101,
                "duration": 0.07500000000000284,
                "tempo": 120.0
            },
            {
                "start_time": 42.584090909090904,
                "end_time": 42.65681818181818,
                "pitch": 79,
                "velocity": 101,
                "duration": 0.07272727272727764,
                "tempo": 120.0
            },
            {
                "start_time": 42.70454545454545,
                "end_time": 42.89772727272727,
                "pitch": 79,
                "velocity": 101,
                "duration": 0.19318181818182012,
                "tempo": 120.0
            },
            {
                "start_time": 42.94318181818181,
                "end_time": 43.018181818181816,
                "pitch": 79,
                "velocity": 101,
                "duration": 0.07500000000000284,
                "tempo": 120.0
            },
            {
                "start_time": 43.06590909090909,
                "end_time": 43.13863636363636,
                "pitch": 79,
                "velocity": 101,
                "duration": 0.07272727272727053,
                "tempo": 120.0
            },
            {
                "start_time": 43.184090909090905,
                "end_time": 43.25681818181818,
                "pitch": 79,
                "velocity": 101,
                "duration": 0.07272727272727764,
                "tempo": 120.0
            },
            {
                "start_time": 43.304545454545455,
                "end_time": 43.377272727272725,
                "pitch": 79,
                "velocity": 101,
                "duration": 0.07272727272727053,
                "tempo": 120.0
            },
            {
                "start_time": 43.425,
                "end_time": 43.61818181818182,
                "pitch": 79,
                "velocity": 101,
                "duration": 0.19318181818182012,
                "tempo": 120.0
            },
            {
                "start_time": 43.663636363636364,
                "end_time": 43.73863636363636,
                "pitch": 79,
                "velocity": 101,
                "duration": 0.07499999999999574,
                "tempo": 120.0
            },
            {
                "start_time": 43.78409090909091,
                "end_time": 43.85681818181818,
                "pitch": 79,
                "velocity": 101,
                "duration": 0.07272727272727053,
                "tempo": 120.0
            },
            {
                "start_time": 43.902272727272724,
                "end_time": 43.97727272727273,
                "pitch": 79,
                "velocity": 101,
                "duration": 0.07500000000000284,
                "tempo": 120.0
            },
            {
                "start_time": 44.025,
                "end_time": 44.09772727272727,
                "pitch": 79,
                "velocity": 101,
                "duration": 0.07272727272727053,
                "tempo": 120.0
            },
            {
                "start_time": 44.14545454545454,
                "end_time": 44.33863636363636,
                "pitch": 79,
                "velocity": 101,
                "duration": 0.19318181818182012,
                "tempo": 120.0
            },
            {
                "start_time": 44.38409090909091,
                "end_time": 44.45681818181818,
                "pitch": 79,
                "velocity": 101,
                "duration": 0.07272727272727053,
                "tempo": 120.0
            },
            {
                "start_time": 44.50454545454545,
                "end_time": 44.574999999999996,
                "pitch": 79,
                "velocity": 101,
                "duration": 0.07045454545454533,
                "tempo": 120.0
            },
            {
                "start_time": 44.62045454545454,
                "end_time": 44.69090909090909,
                "pitch": 79,
                "velocity": 101,
                "duration": 0.07045454545454533,
                "tempo": 120.0
            },
            {
                "start_time": 44.736363636363635,
                "end_time": 44.809090909090905,
                "pitch": 79,
                "velocity": 101,
                "duration": 0.07272727272727053,
                "tempo": 120.0
            },
            {
                "start_time": 44.85227272727273,
                "end_time": 45.04772727272727,
                "pitch": 79,
                "velocity": 101,
                "duration": 0.19545454545454533,
                "tempo": 120.0
            },
            {
                "start_time": 45.09318181818182,
                "end_time": 45.16590909090909,
                "pitch": 79,
                "velocity": 101,
                "duration": 0.07272727272727053,
                "tempo": 120.0
            },
            {
                "start_time": 45.21363636363636,
                "end_time": 45.28636363636363,
                "pitch": 79,
                "velocity": 101,
                "duration": 0.07272727272727053,
                "tempo": 120.0
            },
            {
                "start_time": 45.33181818181818,
                "end_time": 45.40681818181818,
                "pitch": 79,
                "velocity": 101,
                "duration": 0.07500000000000284,
                "tempo": 120.0
            },
            {
                "start_time": 45.45227272727273,
                "end_time": 45.527272727272724,
                "pitch": 79,
                "velocity": 101,
                "duration": 0.07499999999999574,
                "tempo": 120.0
            },
            {
                "start_time": 45.57272727272727,
                "end_time": 45.76590909090909,
                "pitch": 79,
                "velocity": 101,
                "duration": 0.19318181818182012,
                "tempo": 120.0
            },
            {
                "start_time": 45.81363636363636,
                "end_time": 45.88636363636363,
                "pitch": 79,
                "velocity": 101,
                "duration": 0.07272727272727053,
                "tempo": 120.0
            },
            {
                "start_time": 45.934090909090905,
                "end_time": 46.00681818181818,
                "pitch": 79,
                "velocity": 101,
                "duration": 0.07272727272727764,
                "tempo": 120.0
            },
            {
                "start_time": 46.05227272727272,
                "end_time": 46.127272727272725,
                "pitch": 79,
                "velocity": 101,
                "duration": 0.07500000000000284,
                "tempo": 120.0
            },
            {
                "start_time": 46.17272727272727,
                "end_time": 46.24772727272727,
                "pitch": 79,
                "velocity": 101,
                "duration": 0.07499999999999574,
                "tempo": 120.0
            },
            {
                "start_time": 46.293181818181814,
                "end_time": 46.486363636363635,
                "pitch": 79,
                "velocity": 101,
                "duration": 0.19318181818182012,
                "tempo": 120.0
            },
            {
                "start_time": 46.53409090909091,
                "end_time": 46.60681818181818,
                "pitch": 79,
                "velocity": 101,
                "duration": 0.07272727272727053,
                "tempo": 120.0
            },
            {
                "start_time": 46.652272727272724,
                "end_time": 46.724999999999994,
                "pitch": 79,
                "velocity": 101,
                "duration": 0.07272727272727053,
                "tempo": 120.0
            },
            {
                "start_time": 46.768181818181816,
                "end_time": 46.840909090909086,
                "pitch": 79,
                "velocity": 101,
                "duration": 0.07272727272727053,
                "tempo": 120.0
            },
            {
                "start_time": 46.88636363636363,
                "end_time": 46.95681818181818,
                "pitch": 79,
                "velocity": 101,
                "duration": 0.07045454545454533,
                "tempo": 120.0
            },
            {
                "start_time": 47.002272727272725,
                "end_time": 47.195454545454545,
                "pitch": 79,
                "velocity": 101,
                "duration": 0.19318181818182012,
                "tempo": 120.0
            },
            {
                "start_time": 47.24318181818182,
                "end_time": 47.31590909090909,
                "pitch": 79,
                "velocity": 101,
                "duration": 0.07272727272727053,
                "tempo": 120.0
            },
            {
                "start_time": 47.36363636363636,
                "end_time": 47.43636363636364,
                "pitch": 79,
                "velocity": 101,
                "duration": 0.07272727272727764,
                "tempo": 120.0
            },
            {
                "start_time": 47.48181818181818,
                "end_time": 47.55681818181818,
                "pitch": 79,
                "velocity": 101,
                "duration": 0.07500000000000284,
                "tempo": 120.0
            },
            {
                "start_time": 47.60227272727273,
                "end_time": 47.675,
                "pitch": 79,
                "velocity": 101,
                "duration": 0.07272727272727053,
                "tempo": 120.0
            },
            {
                "start_time": 47.72272727272727,
                "end_time": 47.91590909090909,
                "pitch": 79,
                "velocity": 101,
                "duration": 0.19318181818182012,
                "tempo": 120.0
            },
            {
                "start_time": 47.961363636363636,
                "end_time": 48.03636363636363,
                "pitch": 79,
                "velocity": 101,
                "duration": 0.07499999999999574,
                "tempo": 120.0
            },
            {
                "start_time": 48.08181818181818,
                "end_time": 48.15681818181818,
                "pitch": 79,
                "velocity": 101,
                "duration": 0.07500000000000284,
                "tempo": 120.0
            },
            {
                "start_time": 48.20227272727273,
                "end_time": 48.275,
                "pitch": 79,
                "velocity": 101,
                "duration": 0.07272727272727053,
                "tempo": 120.0
            },
            {
                "start_time": 48.32272727272727,
                "end_time": 48.39545454545454,
                "pitch": 79,
                "velocity": 101,
                "duration": 0.07272727272727053,
                "tempo": 120.0
            },
            {
                "start_time": 48.44090909090909,
                "end_time": 48.63636363636363,
                "pitch": 79,
                "velocity": 101,
                "duration": 0.19545454545454533,
                "tempo": 120.0
            },
            {
                "start_time": 48.68181818181818,
                "end_time": 48.75681818181818,
                "pitch": 79,
                "velocity": 101,
                "duration": 0.07500000000000284,
                "tempo": 120.0
            }
        ],
        "Clarinet": [
            {
                "start_time": 34.461363636363636,
                "end_time": 34.54545454545455,
                "pitch": 64,
                "velocity": 127,
                "duration": 0.08409090909091077,
                "tempo": 120.0
            },
            {
                "start_time": 34.57727272727273,
                "end_time": 34.66590909090909,
                "pitch": 60,
                "velocity": 127,
                "duration": 0.08863636363636118,
                "tempo": 120.0
            },
            {
                "start_time": 34.57727272727273,
                "end_time": 34.69772727272727,
                "pitch": 64,
                "velocity": 127,
                "duration": 0.12045454545454248,
                "tempo": 120.0
            },
            {
                "start_time": 34.69772727272727,
                "end_time": 34.78636363636363,
                "pitch": 57,
                "velocity": 127,
                "duration": 0.08863636363636118,
                "tempo": 120.0
            },
            {
                "start_time": 34.81818181818181,
                "end_time": 34.90681818181818,
                "pitch": 69,
                "velocity": 127,
                "duration": 0.08863636363636829,
                "tempo": 120.0
            },
            {
                "start_time": 34.93636363636364,
                "end_time": 35.025,
                "pitch": 62,
                "velocity": 127,
                "duration": 0.08863636363636118,
                "tempo": 120.0
            },
            {
                "start_time": 35.05681818181818,
                "end_time": 35.14545454545454,
                "pitch": 74,
                "velocity": 127,
                "duration": 0.08863636363636118,
                "tempo": 120.0
            },
            {
                "start_time": 34.69772727272727,
                "end_time": 35.26590909090909,
                "pitch": 64,
                "velocity": 127,
                "duration": 0.5681818181818201,
                "tempo": 120.0
            },
            {
                "start_time": 35.17727272727272,
                "end_time": 35.26590909090909,
                "pitch": 64,
                "velocity": 127,
                "duration": 0.08863636363636829,
                "tempo": 120.0
            },
            {
                "start_time": 35.29545454545455,
                "end_time": 35.38636363636363,
                "pitch": 60,
                "velocity": 127,
                "duration": 0.09090909090908639,
                "tempo": 120.0
            },
            {
                "start_time": 35.29545454545455,
                "end_time": 35.41590909090909,
                "pitch": 64,
                "velocity": 127,
                "duration": 0.12045454545454248,
                "tempo": 120.0
            },
            {
                "start_time": 35.41590909090909,
                "end_time": 35.50681818181818,
                "pitch": 57,
                "velocity": 127,
                "duration": 0.09090909090909349,
                "tempo": 120.0
            },
            {
                "start_time": 35.538636363636364,
                "end_time": 35.625,
                "pitch": 69,
                "velocity": 127,
                "duration": 0.08636363636363598,
                "tempo": 120.0
            },
            {
                "start_time": 34.93636363636364,
                "end_time": 35.65681818181818,
                "pitch": 31,
                "velocity": 127,
                "duration": 0.7204545454545439,
                "tempo": 120.0
            },
            {
                "start_time": 35.17727272727272,
                "end_time": 35.74545454545454,
                "pitch": 62,
                "velocity": 127,
                "duration": 0.5681818181818201,
                "tempo": 120.0
            },
            {
                "start_time": 35.65681818181818,
                "end_time": 35.74545454545454,
                "pitch": 62,
                "velocity": 127,
                "duration": 0.08863636363636118,
                "tempo": 120.0
            },
            {
                "start_time": 35.777272727272724,
                "end_time": 35.86590909090909,
                "pitch": 74,
                "velocity": 127,
                "duration": 0.08863636363636829,
                "tempo": 120.0
            },
            {
                "start_time": 35.89772727272727,
                "end_time": 35.986363636363635,
                "pitch": 72,
                "velocity": 127,
                "duration": 0.08863636363636118,
                "tempo": 120.0
            },
            {
                "start_time": 36.01590909090909,
                "end_time": 36.10681818181818,
                "pitch": 71,
                "velocity": 127,
                "duration": 0.09090909090908639,
                "tempo": 120.0
            },
            {
                "start_time": 36.13636363636363,
                "end_time": 36.225,
                "pitch": 72,
                "velocity": 127,
                "duration": 0.08863636363636829,
                "tempo": 120.0
            },
            {
                "start_time": 36.01590909090909,
                "end_time": 36.25909090909091,
                "pitch": 76,
                "velocity": 127,
                "duration": 0.24318181818181728,
                "tempo": 120.0
            },
            {
                "start_time": 36.25909090909091,
                "end_time": 36.345454545454544,
                "pitch": 71,
                "velocity": 127,
                "duration": 0.08636363636363598,
                "tempo": 120.0
            },
            {
                "start_time": 36.377272727272725,
                "end_time": 36.465909090909086,
                "pitch": 71,
                "velocity": 127,
                "duration": 0.08863636363636118,
                "tempo": 120.0
            },
            {
                "start_time": 36.49772727272727,
                "end_time": 36.586363636363636,
                "pitch": 67,
                "velocity": 127,
                "duration": 0.08863636363636829,
                "tempo": 120.0
            },
            {
                "start_time": 36.49772727272727,
                "end_time": 36.70454545454545,
                "pitch": 69,
                "velocity": 127,
                "duration": 0.20681818181818556,
                "tempo": 120.0
            },
            {
                "start_time": 36.61818181818182,
                "end_time": 36.70454545454545,
                "pitch": 69,
                "velocity": 127,
                "duration": 0.08636363636363598,
                "tempo": 120.0
            },
            {
                "start_time": 36.61818181818182,
                "end_time": 36.824999999999996,
                "pitch": 67,
                "velocity": 127,
                "duration": 0.20681818181817846,
                "tempo": 120.0
            },
            {
                "start_time": 36.736363636363635,
                "end_time": 36.824999999999996,
                "pitch": 67,
                "velocity": 127,
                "duration": 0.08863636363636118,
                "tempo": 120.0
            },
            {
                "start_time": 36.85681818181818,
                "end_time": 36.945454545454545,
                "pitch": 66,
                "velocity": 127,
                "duration": 0.08863636363636829,
                "tempo": 120.0
            },
            {
                "start_time": 36.97727272727273,
                "end_time": 37.06363636363636,
                "pitch": 67,
                "velocity": 127,
                "duration": 0.08636363636363598,
                "tempo": 120.0
            },
            {
                "start_time": 36.85681818181818,
                "end_time": 37.09318181818182,
                "pitch": 0,
                "velocity": 127,
                "duration": 0.23636363636364166,
                "tempo": 120.0
            },
            {
                "start_time": 37.09318181818182,
                "end_time": 37.179545454545455,
                "pitch": 66,
                "velocity": 127,
                "duration": 0.08636363636363598,
                "tempo": 120.0
            },
            {
                "start_time": 36.97727272727273,
                "end_time": 37.20909090909091,
                "pitch": 78,
                "velocity": 127,
                "duration": 0.23181818181818414,
                "tempo": 120.0
            },
            {
                "start_time": 36.736363636363635,
                "end_time": 37.29545454545455,
                "pitch": 69,
                "velocity": 127,
                "duration": 0.5590909090909122,
                "tempo": 120.0
            },
            {
                "start_time": 37.20909090909091,
                "end_time": 37.29545454545455,
                "pitch": 69,
                "velocity": 127,
                "duration": 0.08636363636363598,
                "tempo": 120.0
            },
            {
                "start_time": 36.25909090909091,
                "end_time": 37.41590909090909,
                "pitch": 76,
                "velocity": 127,
                "duration": 1.1568181818181813,
                "tempo": 120.0
            },
            {
                "start_time": 37.32727272727273,
                "end_time": 37.41590909090909,
                "pitch": 76,
                "velocity": 127,
                "duration": 0.08863636363636118,
                "tempo": 120.0
            },
            {
                "start_time": 37.445454545454545,
                "end_time": 37.53409090909091,
                "pitch": 72,
                "velocity": 127,
                "duration": 0.08863636363636118,
                "tempo": 120.0
            },
            {
                "start_time": 37.445454545454545,
                "end_time": 37.56590909090909,
                "pitch": 76,
                "velocity": 127,
                "duration": 0.12045454545454248,
                "tempo": 120.0
            },
            {
                "start_time": 37.56590909090909,
                "end_time": 37.654545454545456,
                "pitch": 69,
                "velocity": 127,
                "duration": 0.08863636363636829,
                "tempo": 120.0
            },
            {
                "start_time": 37.68636363636364,
                "end_time": 37.775,
                "pitch": 81,
                "velocity": 127,
                "duration": 0.08863636363636118,
                "tempo": 120.0
            },
            {
                "start_time": 37.80681818181818,
                "end_time": 37.89545454545454,
                "pitch": 79,
                "velocity": 127,
                "duration": 0.08863636363636118,
                "tempo": 120.0
            },
            {
                "start_time": 37.09318181818182,
                "end_time": 37.92727272727272,
                "pitch": 0,
                "velocity": 127,
                "duration": 0.8340909090909037,
                "tempo": 120.0
            },
            {
                "start_time": 37.20909090909091,
                "end_time": 38.01590909090909,
                "pitch": 78,
                "velocity": 127,
                "duration": 0.8068181818181799,
                "tempo": 120.0
            },
            {
                "start_time": 37.92727272727272,
                "end_time": 38.01590909090909,
                "pitch": 78,
                "velocity": 127,
                "duration": 0.08863636363636829,
                "tempo": 120.0
            },
            {
                "start_time": 38.04772727272727,
                "end_time": 38.13409090909091,
                "pitch": 78,
                "velocity": 127,
                "duration": 0.08636363636363598,
                "tempo": 120.0
            },
            {
                "start_time": 37.56590909090909,
                "end_time": 38.16590909090909,
                "pitch": 76,
                "velocity": 127,
                "duration": 0.6000000000000014,
                "tempo": 120.0
            },
            {
                "start_time": 38.16590909090909,
                "end_time": 38.25454545454545,
                "pitch": 72,
                "velocity": 127,
                "duration": 0.08863636363636118,
                "tempo": 120.0
            },
            {
                "start_time": 38.16590909090909,
                "end_time": 38.28636363636363,
                "pitch": 76,
                "velocity": 127,
                "duration": 0.12045454545454248,
                "tempo": 120.0
            },
            {
                "start_time": 38.28636363636363,
                "end_time": 38.375,
                "pitch": 71,
                "velocity": 127,
                "duration": 0.08863636363636829,
                "tempo": 120.0
            },
            {
                "start_time": 38.40681818181818,
                "end_time": 38.49545454545454,
                "pitch": 71,
                "velocity": 127,
                "duration": 0.08863636363636118,
                "tempo": 120.0
            },
            {
                "start_time": 35.65681818181818,
                "end_time": 38.525,
                "pitch": 31,
                "velocity": 127,
                "duration": 2.8681818181818173,
                "tempo": 120.0
            },
            {
                "start_time": 38.525,
                "end_time": 38.61590909090909,
                "pitch": 62,
                "velocity": 127,
                "duration": 0.09090909090909349,
                "tempo": 120.0
            },
            {
                "start_time": 38.64545454545454,
                "end_time": 38.73409090909091,
                "pitch": 66,
                "velocity": 127,
                "duration": 0.08863636363636829,
                "tempo": 120.0
            },
            {
                "start_time": 38.768181818181816,
                "end_time": 38.85454545454545,
                "pitch": 66,
                "velocity": 127,
                "duration": 0.08636363636363598,
                "tempo": 120.0
            },
            {
                "start_time": 35.41590909090909,
                "end_time": 38.975,
                "pitch": 64,
                "velocity": 127,
                "duration": 3.559090909090912,
                "tempo": 120.0
            },
            {
                "start_time": 38.88636363636363,
                "end_time": 38.975,
                "pitch": 64,
                "velocity": 127,
                "duration": 0.08863636363636829,
                "tempo": 120.0
            },
            {
                "start_time": 39.00681818181818,
                "end_time": 39.095454545454544,
                "pitch": 67,
                "velocity": 127,
                "duration": 0.08863636363636118,
                "tempo": 120.0
            },
            {
                "start_time": 37.92727272727272,
                "end_time": 39.127272727272725,
                "pitch": 0,
                "velocity": 127,
                "duration": 1.2000000000000028,
                "tempo": 120.0
            },
            {
                "start_time": 39.127272727272725,
                "end_time": 39.211363636363636,
                "pitch": 66,
                "velocity": 127,
                "duration": 0.08409090909091077,
                "tempo": 120.0
            },
            {
                "start_time": 39.00681818181818,
                "end_time": 39.24318181818182,
                "pitch": 78,
                "velocity": 127,
                "duration": 0.23636363636363455,
                "tempo": 120.0
            },
            {
                "start_time": 39.24318181818182,
                "end_time": 39.32954545454545,
                "pitch": 67,
                "velocity": 127,
                "duration": 0.08636363636363598,
                "tempo": 120.0
            },
            {
                "start_time": 39.35909090909091,
                "end_time": 39.445454545454545,
                "pitch": 69,
                "velocity": 127,
                "duration": 0.08636363636363598,
                "tempo": 120.0
            },
            {
                "start_time": 39.35909090909091,
                "end_time": 39.56363636363636,
                "pitch": 67,
                "velocity": 127,
                "duration": 0.20454545454545325,
                "tempo": 120.0
            },
            {
                "start_time": 39.47727272727273,
                "end_time": 39.56363636363636,
                "pitch": 67,
                "velocity": 127,
                "duration": 0.08636363636363598,
                "tempo": 120.0
            },
            {
                "start_time": 39.47727272727273,
                "end_time": 39.684090909090905,
                "pitch": 69,
                "velocity": 127,
                "duration": 0.20681818181817846,
                "tempo": 120.0
            },
            {
                "start_time": 39.595454545454544,
                "end_time": 39.684090909090905,
                "pitch": 69,
                "velocity": 127,
                "duration": 0.08863636363636118,
                "tempo": 120.0
            },
            {
                "start_time": 39.715909090909086,
                "end_time": 39.804545454545455,
                "pitch": 69,
                "velocity": 127,
                "duration": 0.08863636363636829,
                "tempo": 120.0
            },
            {
                "start_time": 39.836363636363636,
                "end_time": 39.925,
                "pitch": 71,
                "velocity": 127,
                "duration": 0.08863636363636118,
                "tempo": 120.0
            },
            {
                "start_time": 39.95454545454545,
                "end_time": 40.043181818181814,
                "pitch": 69,
                "velocity": 127,
                "duration": 0.08863636363636118,
                "tempo": 120.0
            },
            {
                "start_time": 36.13636363636363,
                "end_time": 40.074999999999996,
                "pitch": 56,
                "velocity": 127,
                "duration": 3.9386363636363626,
                "tempo": 120.0
            },
            {
                "start_time": 40.074999999999996,
                "end_time": 40.163636363636364,
                "pitch": 72,
                "velocity": 127,
                "duration": 0.08863636363636829,
                "tempo": 120.0
            },
            {
                "start_time": 39.127272727272725,
                "end_time": 63.13863636363636,
                "pitch": 0,
                "velocity": 127,
                "duration": 24.011363636363633,
                "tempo": 120.0
            },
            {
                "start_time": 63.13863636363636,
                "end_time": 63.224999999999994,
                "pitch": 64,
                "velocity": 101,
                "duration": 0.08636363636363598,
                "tempo": 120.0
            },
            {
                "start_time": 63.25454545454545,
                "end_time": 63.345454545454544,
                "pitch": 60,
                "velocity": 101,
                "duration": 0.09090909090909349,
                "tempo": 120.0
            },
            {
                "start_time": 63.25454545454545,
                "end_time": 63.375,
                "pitch": 64,
                "velocity": 101,
                "duration": 0.12045454545454959,
                "tempo": 120.0
            },
            {
                "start_time": 63.375,
                "end_time": 63.465909090909086,
                "pitch": 57,
                "velocity": 101,
                "duration": 0.09090909090908639,
                "tempo": 120.0
            },
            {
                "start_time": 63.49772727272727,
                "end_time": 63.584090909090904,
                "pitch": 69,
                "velocity": 101,
                "duration": 0.08636363636363598,
                "tempo": 120.0
            },
            {
                "start_time": 38.525,
                "end_time": 63.615909090909085,
                "pitch": 31,
                "velocity": 127,
                "duration": 25.090909090909086,
                "tempo": 120.0
            },
            {
                "start_time": 38.64545454545454,
                "end_time": 63.70454545454545,
                "pitch": 62,
                "velocity": 127,
                "duration": 25.059090909090912,
                "tempo": 120.0
            },
            {
                "start_time": 63.615909090909085,
                "end_time": 63.70454545454545,
                "pitch": 62,
                "velocity": 101,
                "duration": 0.08863636363636829,
                "tempo": 120.0
            },
            {
                "start_time": 35.89772727272727,
                "end_time": 63.824999999999996,
                "pitch": 74,
                "velocity": 127,
                "duration": 27.927272727272722,
                "tempo": 120.0
            },
            {
                "start_time": 63.736363636363635,
                "end_time": 63.824999999999996,
                "pitch": 74,
                "velocity": 101,
                "duration": 0.08863636363636118,
                "tempo": 120.0
            },
            {
                "start_time": 63.375,
                "end_time": 63.945454545454545,
                "pitch": 64,
                "velocity": 101,
                "duration": 0.5704545454545453,
                "tempo": 120.0
            },
            {
                "start_time": 63.85681818181818,
                "end_time": 63.945454545454545,
                "pitch": 64,
                "velocity": 101,
                "duration": 0.08863636363636829,
                "tempo": 120.0
            },
            {
                "start_time": 63.974999999999994,
                "end_time": 64.06590909090909,
                "pitch": 60,
                "velocity": 101,
                "duration": 0.09090909090909349,
                "tempo": 120.0
            },
            {
                "start_time": 63.974999999999994,
                "end_time": 64.09545454545454,
                "pitch": 64,
                "velocity": 101,
                "duration": 0.12045454545454959,
                "tempo": 120.0
            },
            {
                "start_time": 64.09545454545454,
                "end_time": 64.18409090909091,
                "pitch": 57,
                "velocity": 101,
                "duration": 0.08863636363636829,
                "tempo": 120.0
            },
            {
                "start_time": 64.2159090909091,
                "end_time": 64.30227272727272,
                "pitch": 69,
                "velocity": 101,
                "duration": 0.08636363636362887,
                "tempo": 120.0
            },
            {
                "start_time": 63.615909090909085,
                "end_time": 64.33181818181818,
                "pitch": 31,
                "velocity": 101,
                "duration": 0.7159090909090935,
                "tempo": 120.0
            },
            {
                "start_time": 63.85681818181818,
                "end_time": 64.41818181818182,
                "pitch": 62,
                "velocity": 101,
                "duration": 0.5613636363636445,
                "tempo": 120.0
            },
            {
                "start_time": 64.33181818181818,
                "end_time": 64.41818181818182,
                "pitch": 62,
                "velocity": 101,
                "duration": 0.08636363636364308,
                "tempo": 120.0
            },
            {
                "start_time": 64.44772727272726,
                "end_time": 64.5340909090909,
                "pitch": 74,
                "velocity": 101,
                "duration": 0.08636363636364308,
                "tempo": 120.0
            },
            {
                "start_time": 64.56590909090909,
                "end_time": 64.65454545454546,
                "pitch": 72,
                "velocity": 101,
                "duration": 0.08863636363636829,
                "tempo": 120.0
            },
            {
                "start_time": 38.28636363636363,
                "end_time": 64.68409090909091,
                "pitch": 76,
                "velocity": 127,
                "duration": 26.39772727272728,
                "tempo": 120.0
            },
            {
                "start_time": 64.68409090909091,
                "end_time": 64.77499999999999,
                "pitch": 71,
                "velocity": 101,
                "duration": 0.09090909090907928,
                "tempo": 120.0
            },
            {
                "start_time": 40.074999999999996,
                "end_time": 64.80454545454545,
                "pitch": 56,
                "velocity": 127,
                "duration": 24.729545454545452,
                "tempo": 120.0
            },
            {
                "start_time": 64.80454545454545,
                "end_time": 64.89318181818182,
                "pitch": 72,
                "velocity": 101,
                "duration": 0.08863636363636829,
                "tempo": 120.0
            },
            {
                "start_time": 64.68409090909091,
                "end_time": 64.92727272727272,
                "pitch": 76,
                "velocity": 101,
                "duration": 0.24318181818181017,
                "tempo": 120.0
            },
            {
                "start_time": 64.92727272727272,
                "end_time": 65.01363636363637,
                "pitch": 71,
                "velocity": 101,
                "duration": 0.08636363636364308,
                "tempo": 120.0
            },
            {
                "start_time": 65.04545454545455,
                "end_time": 65.1340909090909,
                "pitch": 71,
                "velocity": 101,
                "duration": 0.08863636363635408,
                "tempo": 120.0
            },
            {
                "start_time": 39.595454545454544,
                "end_time": 65.25454545454545,
                "pitch": 67,
                "velocity": 127,
                "duration": 25.659090909090907,
                "tempo": 120.0
            },
            {
                "start_time": 65.16590909090908,
                "end_time": 65.25454545454545,
                "pitch": 67,
                "velocity": 101,
                "duration": 0.08863636363636829,
                "tempo": 120.0
            },
            {
                "start_time": 65.16590909090908,
                "end_time": 65.375,
                "pitch": 69,
                "velocity": 101,
                "duration": 0.20909090909091788,
                "tempo": 120.0
            },
            {
                "start_time": 65.28636363636363,
                "end_time": 65.375,
                "pitch": 69,
                "velocity": 101,
                "duration": 0.08863636363636829,
                "tempo": 120.0
            },
            {
                "start_time": 65.28636363636363,
                "end_time": 65.49318181818181,
                "pitch": 67,
                "velocity": 101,
                "duration": 0.20681818181817846,
                "tempo": 120.0
            },
            {
                "start_time": 65.40454545454546,
                "end_time": 65.49318181818181,
                "pitch": 67,
                "velocity": 101,
                "duration": 0.08863636363635408,
                "tempo": 120.0
            },
            {
                "start_time": 63.13863636363636,
                "end_time": 65.52499999999999,
                "pitch": 0,
                "velocity": 101,
                "duration": 2.386363636363633,
                "tempo": 120.0
            },
            {
                "start_time": 65.52499999999999,
                "end_time": 65.61363636363636,
                "pitch": 66,
                "velocity": 101,
                "duration": 0.08863636363636829,
                "tempo": 120.0
            },
            {
                "start_time": 39.24318181818182,
                "end_time": 65.64545454545454,
                "pitch": 78,
                "velocity": 127,
                "duration": 26.402272727272724,
                "tempo": 120.0
            },
            {
                "start_time": 65.64545454545454,
                "end_time": 65.73409090909091,
                "pitch": 67,
                "velocity": 101,
                "duration": 0.08863636363636829,
                "tempo": 120.0
            },
            {
                "start_time": 65.52499999999999,
                "end_time": 65.76363636363637,
                "pitch": 0,
                "velocity": 101,
                "duration": 0.23863636363637397,
                "tempo": 120.0
            },
            {
                "start_time": 65.76363636363637,
                "end_time": 65.85454545454544,
                "pitch": 66,
                "velocity": 101,
                "duration": 0.09090909090907928,
                "tempo": 120.0
            },
            {
                "start_time": 65.64545454545454,
                "end_time": 65.8840909090909,
                "pitch": 78,
                "velocity": 101,
                "duration": 0.23863636363635976,
                "tempo": 120.0
            },
            {
                "start_time": 65.40454545454546,
                "end_time": 65.975,
                "pitch": 69,
                "velocity": 101,
                "duration": 0.5704545454545382,
                "tempo": 120.0
            },
            {
                "start_time": 65.8840909090909,
                "end_time": 65.975,
                "pitch": 69,
                "velocity": 101,
                "duration": 0.09090909090909349,
                "tempo": 120.0
            },
            {
                "start_time": 37.32727272727273,
                "end_time": 66.00681818181818,
                "pitch": 43,
                "velocity": 127,
                "duration": 28.679545454545448,
                "tempo": 120.0
            },
            {
                "start_time": 64.92727272727272,
                "end_time": 66.09318181818182,
                "pitch": 76,
                "velocity": 101,
                "duration": 1.1659090909090963,
                "tempo": 120.0
            },
            {
                "start_time": 66.00681818181818,
                "end_time": 66.09318181818182,
                "pitch": 76,
                "velocity": 101,
                "duration": 0.08636363636364308,
                "tempo": 120.0
            },
            {
                "start_time": 66.125,
                "end_time": 66.21363636363635,
                "pitch": 72,
                "velocity": 101,
                "duration": 0.08863636363635408,
                "tempo": 120.0
            },
            {
                "start_time": 66.125,
                "end_time": 66.24545454545454,
                "pitch": 76,
                "velocity": 101,
                "duration": 0.12045454545453538,
                "tempo": 120.0
            },
            {
                "start_time": 66.24545454545454,
                "end_time": 66.3340909090909,
                "pitch": 69,
                "velocity": 101,
                "duration": 0.08863636363636829,
                "tempo": 120.0
            },
            {
                "start_time": 37.80681818181818,
                "end_time": 66.45454545454545,
                "pitch": 81,
                "velocity": 127,
                "duration": 28.647727272727273,
                "tempo": 120.0
            },
            {
                "start_time": 66.36590909090908,
                "end_time": 66.45454545454545,
                "pitch": 81,
                "velocity": 101,
                "duration": 0.08863636363636829,
                "tempo": 120.0
            },
            {
                "start_time": 66.48409090909091,
                "end_time": 66.57272727272726,
                "pitch": 79,
                "velocity": 101,
                "duration": 0.08863636363635408,
                "tempo": 120.0
            },
            {
                "start_time": 65.76363636363637,
                "end_time": 66.60454545454544,
                "pitch": 0,
                "velocity": 101,
                "duration": 0.8409090909090793,
                "tempo": 120.0
            },
            {
                "start_time": 65.8840909090909,
                "end_time": 66.69318181818181,
                "pitch": 78,
                "velocity": 101,
                "duration": 0.8090909090909122,
                "tempo": 120.0
            },
            {
                "start_time": 66.60454545454544,
                "end_time": 66.69318181818181,
                "pitch": 78,
                "velocity": 101,
                "duration": 0.08863636363636829,
                "tempo": 120.0
            },
            {
                "start_time": 66.725,
                "end_time": 66.81136363636364,
                "pitch": 78,
                "velocity": 101,
                "duration": 0.08636363636364308,
                "tempo": 120.0
            },
            {
                "start_time": 66.24545454545454,
                "end_time": 66.8409090909091,
                "pitch": 76,
                "velocity": 101,
                "duration": 0.5954545454545581,
                "tempo": 120.0
            },
            {
                "start_time": 66.8409090909091,
                "end_time": 66.92727272727272,
                "pitch": 72,
                "velocity": 101,
                "duration": 0.08636363636362887,
                "tempo": 120.0
            },
            {
                "start_time": 66.8409090909091,
                "end_time": 66.9590909090909,
                "pitch": 76,
                "velocity": 101,
                "duration": 0.11818181818181017,
                "tempo": 120.0
            },
            {
                "start_time": 66.95681818181818,
                "end_time": 66.9590909090909,
                "pitch": 76,
                "velocity": 101,
                "duration": 0.0022727272727252057,
                "tempo": 120.0
            },
            {
                "start_time": 66.9590909090909,
                "end_time": 67.04318181818182,
                "pitch": 71,
                "velocity": 101,
                "duration": 0.08409090909091788,
                "tempo": 120.0
            },
            {
                "start_time": 67.075,
                "end_time": 67.16590909090908,
                "pitch": 71,
                "velocity": 101,
                "duration": 0.09090909090907928,
                "tempo": 120.0
            },
            {
                "start_time": 64.33181818181818,
                "end_time": 67.19772727272726,
                "pitch": 31,
                "velocity": 101,
                "duration": 2.865909090909085,
                "tempo": 120.0
            },
            {
                "start_time": 67.19545454545454,
                "end_time": 67.19772727272726,
                "pitch": 31,
                "velocity": 101,
                "duration": 0.0022727272727252057,
                "tempo": 120.0
            },
            {
                "start_time": 67.19772727272726,
                "end_time": 67.28863636363636,
                "pitch": 62,
                "velocity": 101,
                "duration": 0.09090909090909349,
                "tempo": 120.0
            },
            {
                "start_time": 67.32045454545454,
                "end_time": 67.41136363636363,
                "pitch": 66,
                "velocity": 101,
                "duration": 0.09090909090909349,
                "tempo": 120.0
            },
            {
                "start_time": 67.44318181818181,
                "end_time": 67.52954545454546,
                "pitch": 66,
                "velocity": 101,
                "duration": 0.08636363636364308,
                "tempo": 120.0
            },
            {
                "start_time": 64.09545454545454,
                "end_time": 67.64545454545454,
                "pitch": 64,
                "velocity": 101,
                "duration": 3.549999999999997,
                "tempo": 120.0
            },
            {
                "start_time": 67.55909090909091,
                "end_time": 67.64545454545454,
                "pitch": 64,
                "velocity": 101,
                "duration": 0.08636363636362887,
                "tempo": 120.0
            },
            {
                "start_time": 67.675,
                "end_time": 67.76136363636363,
                "pitch": 67,
                "velocity": 101,
                "duration": 0.08636363636362887,
                "tempo": 120.0
            },
            {
                "start_time": 66.60454545454544,
                "end_time": 67.79318181818182,
                "pitch": 0,
                "velocity": 101,
                "duration": 1.1886363636363768,
                "tempo": 120.0
            },
            {
                "start_time": 67.79318181818182,
                "end_time": 67.88181818181818,
                "pitch": 66,
                "velocity": 101,
                "duration": 0.08863636363635408,
                "tempo": 120.0
            },
            {
                "start_time": 67.675,
                "end_time": 67.91136363636363,
                "pitch": 78,
                "velocity": 101,
                "duration": 0.23636363636363455,
                "tempo": 120.0
            },
            {
                "start_time": 67.91136363636363,
                "end_time": 68.0,
                "pitch": 67,
                "velocity": 101,
                "duration": 0.08863636363636829,
                "tempo": 120.0
            },
            {
                "start_time": 68.03181818181818,
                "end_time": 68.12045454545454,
                "pitch": 69,
                "velocity": 101,
                "duration": 0.08863636363635408,
                "tempo": 120.0
            },
            {
                "start_time": 68.03181818181818,
                "end_time": 68.24090909090908,
                "pitch": 67,
                "velocity": 101,
                "duration": 0.20909090909090366,
                "tempo": 120.0
            },
            {
                "start_time": 68.15227272727273,
                "end_time": 68.24090909090908,
                "pitch": 67,
                "velocity": 101,
                "duration": 0.08863636363635408,
                "tempo": 120.0
            },
            {
                "start_time": 68.15227272727273,
                "end_time": 68.36136363636363,
                "pitch": 69,
                "velocity": 101,
                "duration": 0.20909090909090366,
                "tempo": 120.0
            },
            {
                "start_time": 68.27272727272727,
                "end_time": 68.36136363636363,
                "pitch": 69,
                "velocity": 101,
                "duration": 0.08863636363636829,
                "tempo": 120.0
            },
            {
                "start_time": 68.39090909090909,
                "end_time": 68.48181818181818,
                "pitch": 69,
                "velocity": 101,
                "duration": 0.09090909090909349,
                "tempo": 120.0
            },
            {
                "start_time": 68.51363636363637,
                "end_time": 68.6,
                "pitch": 71,
                "velocity": 101,
                "duration": 0.08636363636362887,
                "tempo": 120.0
            },
            {
                "start_time": 68.63181818181818,
                "end_time": 68.72045454545454,
                "pitch": 69,
                "velocity": 101,
                "duration": 0.08863636363636829,
                "tempo": 120.0
            },
            {
                "start_time": 64.80454545454545,
                "end_time": 68.75227272727273,
                "pitch": 56,
                "velocity": 101,
                "duration": 3.9477272727272776,
                "tempo": 120.0
            },
            {
                "start_time": 68.75227272727273,
                "end_time": 68.8409090909091,
                "pitch": 72,
                "velocity": 101,
                "duration": 0.08863636363636829,
                "tempo": 120.0
            }
        ]
    }
}