{
    "track_id": "14 Clear #2",
    "mood": "happy",
    "instruments": {
        "Trumpet": [
            {
                "start_time": 0.045454545454545456,
                "end_time": 0.09772727272727272,
                "pitch": 65,
                "velocity": 80,
                "duration": 0.05227272727272726,
                "tempo": 120.0
            },
            {
                "start_time": 0.26136363636363635,
                "end_time": 0.34318181818181814,
                "pitch": 64,
                "velocity": 80,
                "duration": 0.08181818181818179,
                "tempo": 120.0
            },
            {
                "start_time": 0.5590909090909091,
                "end_time": 0.6409090909090909,
                "pitch": 65,
                "velocity": 80,
                "duration": 0.08181818181818179,
                "tempo": 120.0
            },
            {
                "start_time": 0.8545454545454545,
                "end_time": 0.9363636363636363,
                "pitch": 64,
                "velocity": 80,
                "duration": 0.08181818181818179,
                "tempo": 120.0
            },
            {
                "start_time": 1.1522727272727271,
                "end_time": 1.2340909090909091,
                "pitch": 65,
                "velocity": 80,
                "duration": 0.08181818181818201,
                "tempo": 120.0
            },
            {
                "start_time": 1.25,
                "end_time": 1.3318181818181818,
                "pitch": 65,
                "velocity": 80,
                "duration": 0.08181818181818179,
                "tempo": 120.0
            },
            {
                "start_time": 1.3499999999999999,
                "end_time": 1.4318181818181817,
                "pitch": 64,
                "velocity": 80,
                "duration": 0.08181818181818179,
                "tempo": 120.0
            },
            {
                "start_time": 1.5568181818181817,
                "end_time": 1.6454545454545453,
                "pitch": 67,
                "velocity": 80,
                "duration": 0.08863636363636362,
                "tempo": 120.0
            },
            {
                "start_time": 1.884090909090909,
                "end_time": 1.9727272727272727,
                "pitch": 67,
                "velocity": 80,
                "duration": 0.08863636363636362,
                "tempo": 120.0
            },
            {
                "start_time": 2.2045454545454546,
                "end_time": 2.3886363636363637,
                "pitch": 67,
                "velocity": 80,
                "duration": 0.18409090909090908,
                "tempo": 120.0
            }
        ],
        "Lead 2 (sawtooth)": [
            {
                "start_time": 0.0022727272727272726,
                "end_time": 0.05454545454545454,
                "pitch": 36,
                "velocity": 127,
                "duration": 0.05227272727272727,
                "tempo": 120.0
            },
            {
                "start_time": 0.0659090909090909,
                "end_time": 0.11818181818181818,
                "pitch": 36,
                "velocity": 127,
                "duration": 0.052272727272727276,
                "tempo": 120.0
            },
            {
                "start_time": 0.12954545454545455,
                "end_time": 0.18409090909090908,
                "pitch": 48,
                "velocity": 127,
                "duration": 0.054545454545454536,
                "tempo": 120.0
            },
            {
                "start_time": 0.19545454545454544,
                "end_time": 0.2772727272727273,
                "pitch": 36,
                "velocity": 127,
                "duration": 0.08181818181818185,
                "tempo": 120.0
            },
            {
                "start_time": 0.29318181818181815,
                "end_time": 0.375,
                "pitch": 36,
                "velocity": 127,
                "duration": 0.08181818181818185,
                "tempo": 120.0
            },
            {
                "start_time": 0.3931818181818182,
                "end_time": 0.475,
                "pitch": 48,
                "velocity": 127,
                "duration": 0.08181818181818179,
                "tempo": 120.0
            },
            {
                "start_time": 0.49318181818181817,
                "end_time": 0.5727272727272728,
                "pitch": 36,
                "velocity": 127,
                "duration": 0.07954545454545459,
                "tempo": 120.0
            },
            {
                "start_time": 0.5909090909090908,
                "end_time": 0.6727272727272727,
                "pitch": 36,
                "velocity": 127,
                "duration": 0.0818181818181819,
                "tempo": 120.0
            },
            {
                "start_time": 0.6886363636363636,
                "end_time": 0.7704545454545454,
                "pitch": 48,
                "velocity": 127,
                "duration": 0.08181818181818179,
                "tempo": 120.0
            },
            {
                "start_time": 0.7886363636363636,
                "end_time": 0.8704545454545454,
                "pitch": 36,
                "velocity": 127,
                "duration": 0.08181818181818179,
                "tempo": 120.0
            },
            {
                "start_time": 0.8863636363636364,
                "end_time": 0.9681818181818181,
                "pitch": 36,
                "velocity": 127,
                "duration": 0.08181818181818179,
                "tempo": 120.0
            },
            {
                "start_time": 0.9863636363636363,
                "end_time": 1.0681818181818181,
                "pitch": 48,
                "velocity": 127,
                "duration": 0.08181818181818179,
                "tempo": 120.0
            },
            {
                "start_time": 1.0863636363636364,
                "end_time": 1.1659090909090908,
                "pitch": 36,
                "velocity": 127,
                "duration": 0.07954545454545436,
                "tempo": 120.0
            },
            {
                "start_time": 1.184090909090909,
                "end_time": 1.2659090909090909,
                "pitch": 36,
                "velocity": 127,
                "duration": 0.08181818181818179,
                "tempo": 120.0
            },
            {
                "start_time": 1.284090909090909,
                "end_time": 1.3636363636363635,
                "pitch": 36,
                "velocity": 127,
                "duration": 0.07954545454545459,
                "tempo": 120.0
            },
            {
                "start_time": 1.4840909090909091,
                "end_time": 1.5727272727272728,
                "pitch": 36,
                "velocity": 127,
                "duration": 0.08863636363636362,
                "tempo": 120.0
            },
            {
                "start_time": 1.809090909090909,
                "end_time": 1.9,
                "pitch": 36,
                "velocity": 127,
                "duration": 0.09090909090909083,
                "tempo": 120.0
            },
            {
                "start_time": 2.1363636363636362,
                "end_time": 2.3204545454545453,
                "pitch": 36,
                "velocity": 127,
                "duration": 0.18409090909090908,
                "tempo": 120.0
            }
        ],
        "French Horn": [
            {
                "start_time": 0.004545454545454545,
                "end_time": 0.05454545454545454,
                "pitch": 77,
                "velocity": 80,
                "duration": 0.049999999999999996,
                "tempo": 120.0
            },
            {
                "start_time": 0.19772727272727272,
                "end_time": 0.2772727272727273,
                "pitch": 76,
                "velocity": 80,
                "duration": 0.07954545454545456,
                "tempo": 120.0
            },
            {
                "start_time": 0.49318181818181817,
                "end_time": 0.5727272727272728,
                "pitch": 77,
                "velocity": 80,
                "duration": 0.07954545454545459,
                "tempo": 120.0
            },
            {
                "start_time": 0.7909090909090909,
                "end_time": 0.8704545454545454,
                "pitch": 76,
                "velocity": 80,
                "duration": 0.07954545454545447,
                "tempo": 120.0
            },
            {
                "start_time": 1.0863636363636364,
                "end_time": 1.1659090909090908,
                "pitch": 77,
                "velocity": 80,
                "duration": 0.07954545454545436,
                "tempo": 120.0
            },
            {
                "start_time": 1.1863636363636363,
                "end_time": 1.2659090909090909,
                "pitch": 77,
                "velocity": 80,
                "duration": 0.07954545454545459,
                "tempo": 120.0
            },
            {
                "start_time": 1.284090909090909,
                "end_time": 1.3636363636363635,
                "pitch": 76,
                "velocity": 80,
                "duration": 0.07954545454545459,
                "tempo": 120.0
            },
            {
                "start_time": 1.4840909090909091,
                "end_time": 1.5727272727272728,
                "pitch": 79,
                "velocity": 80,
                "duration": 0.08863636363636362,
                "tempo": 120.0
            },
            {
                "start_time": 1.8113636363636363,
                "end_time": 1.9,
                "pitch": 79,
                "velocity": 80,
                "duration": 0.08863636363636362,
                "tempo": 120.0
            },
            {
                "start_time": 2.1386363636363637,
                "end_time": 2.3204545454545453,
                "pitch": 79,
                "velocity": 80,
                "duration": 0.18181818181818166,
                "tempo": 120.0
            }
        ]
    }
}