{
    "track_id": "14 Pirate Island",
    "mood": "happy",
    "instruments": {
        "French Horn": [
            {
                "start_time": 0.8045454545454545,
                "end_time": 2.356818181818182,
                "pitch": 55,
                "velocity": 40,
                "duration": 1.5522727272727275,
                "tempo": 120.0
            },
            {
                "start_time": 2.815909090909091,
                "end_time": 3.1659090909090906,
                "pitch": 55,
                "velocity": 40,
                "duration": 0.34999999999999964,
                "tempo": 120.0
            },
            {
                "start_time": 3.218181818181818,
                "end_time": 3.568181818181818,
                "pitch": 55,
                "velocity": 40,
                "duration": 0.3500000000000001,
                "tempo": 120.0
            },
            {
                "start_time": 3.620454545454545,
                "end_time": 3.9727272727272727,
                "pitch": 52,
                "velocity": 40,
                "duration": 0.3522727272727275,
                "tempo": 120.0
            },
            {
                "start_time": 5.113636363636363,
                "end_time": 6.663636363636363,
                "pitch": 57,
                "velocity": 40,
                "duration": 1.5499999999999998,
                "tempo": 120.0
            },
            {
                "start_time": 2.815909090909091,
                "end_time": 7.122727272727272,
                "pitch": 67,
                "velocity": 40,
                "duration": 4.306818181818182,
                "tempo": 120.0
            },
            {
                "start_time": 7.122727272727272,
                "end_time": 7.472727272727273,
                "pitch": 55,
                "velocity": 40,
                "duration": 0.35000000000000053,
                "tempo": 120.0
            },
            {
                "start_time": 7.5249999999999995,
                "end_time": 7.875,
                "pitch": 55,
                "velocity": 40,
                "duration": 0.35000000000000053,
                "tempo": 120.0
            },
            {
                "start_time": 7.927272727272727,
                "end_time": 8.279545454545454,
                "pitch": 62,
                "velocity": 40,
                "duration": 0.3522727272727275,
                "tempo": 120.0
            },
            {
                "start_time": 9.424999999999999,
                "end_time": 10.975,
                "pitch": 57,
                "velocity": 40,
                "duration": 1.5500000000000007,
                "tempo": 120.0
            },
            {
                "start_time": 7.122727272727272,
                "end_time": 11.431818181818182,
                "pitch": 67,
                "velocity": 40,
                "duration": 4.3090909090909095,
                "tempo": 120.0
            },
            {
                "start_time": 11.431818181818182,
                "end_time": 11.784090909090908,
                "pitch": 55,
                "velocity": 40,
                "duration": 0.3522727272727266,
                "tempo": 120.0
            },
            {
                "start_time": 11.836363636363636,
                "end_time": 12.184090909090909,
                "pitch": 55,
                "velocity": 40,
                "duration": 0.34772727272727266,
                "tempo": 120.0
            },
            {
                "start_time": 3.620454545454545,
                "end_time": 12.236363636363636,
                "pitch": 19,
                "velocity": 40,
                "duration": 8.615909090909092,
                "tempo": 120.0
            },
            {
                "start_time": 12.236363636363636,
                "end_time": 12.59090909090909,
                "pitch": 52,
                "velocity": 40,
                "duration": 0.3545454545454536,
                "tempo": 120.0
            },
            {
                "start_time": 12.913636363636362,
                "end_time": 14.477272727272727,
                "pitch": 52,
                "velocity": 40,
                "duration": 1.5636363636363644,
                "tempo": 120.0
            },
            {
                "start_time": 14.531818181818181,
                "end_time": 14.75,
                "pitch": 50,
                "velocity": 40,
                "duration": 0.2181818181818187,
                "tempo": 120.0
            },
            {
                "start_time": 14.802272727272726,
                "end_time": 15.022727272727272,
                "pitch": 52,
                "velocity": 40,
                "duration": 0.22045454545454568,
                "tempo": 120.0
            },
            {
                "start_time": 11.431818181818182,
                "end_time": 15.072727272727272,
                "pitch": 67,
                "velocity": 40,
                "duration": 3.6409090909090907,
                "tempo": 120.0
            },
            {
                "start_time": 15.072727272727272,
                "end_time": 15.693181818181817,
                "pitch": 57,
                "velocity": 40,
                "duration": 0.6204545454545443,
                "tempo": 120.0
            },
            {
                "start_time": 15.745454545454544,
                "end_time": 16.102272727272727,
                "pitch": 57,
                "velocity": 40,
                "duration": 0.35681818181818237,
                "tempo": 120.0
            },
            {
                "start_time": 16.422727272727272,
                "end_time": 16.638636363636362,
                "pitch": 54,
                "velocity": 40,
                "duration": 0.21590909090908994,
                "tempo": 120.0
            },
            {
                "start_time": 16.961363636363636,
                "end_time": 17.18181818181818,
                "pitch": 52,
                "velocity": 40,
                "duration": 0.2204545454545439,
                "tempo": 120.0
            },
            {
                "start_time": 17.23409090909091,
                "end_time": 17.31590909090909,
                "pitch": 45,
                "velocity": 40,
                "duration": 0.08181818181818201,
                "tempo": 120.0
            },
            {
                "start_time": 17.36590909090909,
                "end_time": 19.46590909090909,
                "pitch": 45,
                "velocity": 40,
                "duration": 2.1000000000000014,
                "tempo": 120.0
            },
            {
                "start_time": 7.927272727272727,
                "end_time": 19.518181818181816,
                "pitch": 32,
                "velocity": 40,
                "duration": 11.59090909090909,
                "tempo": 120.0
            },
            {
                "start_time": 19.518181818181816,
                "end_time": 19.599999999999998,
                "pitch": 52,
                "velocity": 32,
                "duration": 0.08181818181818201,
                "tempo": 120.0
            },
            {
                "start_time": 19.652272727272727,
                "end_time": 19.73409090909091,
                "pitch": 52,
                "velocity": 32,
                "duration": 0.08181818181818201,
                "tempo": 120.0
            },
            {
                "start_time": 19.786363636363635,
                "end_time": 19.868181818181817,
                "pitch": 52,
                "velocity": 32,
                "duration": 0.08181818181818201,
                "tempo": 120.0
            },
            {
                "start_time": 19.918181818181818,
                "end_time": 20.002272727272725,
                "pitch": 50,
                "velocity": 32,
                "duration": 0.08409090909090722,
                "tempo": 120.0
            },
            {
                "start_time": 20.327272727272728,
                "end_time": 20.545454545454543,
                "pitch": 55,
                "velocity": 32,
                "duration": 0.21818181818181515,
                "tempo": 120.0
            },
            {
                "start_time": 20.595454545454544,
                "end_time": 20.679545454545455,
                "pitch": 55,
                "velocity": 32,
                "duration": 0.08409090909091077,
                "tempo": 120.0
            },
            {
                "start_time": 20.99772727272727,
                "end_time": 21.081818181818182,
                "pitch": 57,
                "velocity": 32,
                "duration": 0.08409090909091077,
                "tempo": 120.0
            },
            {
                "start_time": 21.4,
                "end_time": 21.618181818181817,
                "pitch": 55,
                "velocity": 32,
                "duration": 0.2181818181818187,
                "tempo": 120.0
            },
            {
                "start_time": 12.236363636363636,
                "end_time": 21.670454545454543,
                "pitch": 19,
                "velocity": 40,
                "duration": 9.434090909090907,
                "tempo": 120.0
            },
            {
                "start_time": 21.670454545454543,
                "end_time": 21.754545454545454,
                "pitch": 52,
                "velocity": 32,
                "duration": 0.08409090909091077,
                "tempo": 120.0
            },
            {
                "start_time": 21.80681818181818,
                "end_time": 21.89090909090909,
                "pitch": 52,
                "velocity": 32,
                "duration": 0.08409090909091077,
                "tempo": 120.0
            },
            {
                "start_time": 21.943181818181817,
                "end_time": 22.027272727272727,
                "pitch": 52,
                "velocity": 32,
                "duration": 0.08409090909091077,
                "tempo": 120.0
            },
            {
                "start_time": 22.079545454545453,
                "end_time": 22.161363636363635,
                "pitch": 50,
                "velocity": 32,
                "duration": 0.08181818181818201,
                "tempo": 120.0
            },
            {
                "start_time": 20.327272727272728,
                "end_time": 22.479545454545452,
                "pitch": 66,
                "velocity": 32,
                "duration": 2.152272727272724,
                "tempo": 120.0
            },
            {
                "start_time": 22.479545454545452,
                "end_time": 22.69772727272727,
                "pitch": 55,
                "velocity": 32,
                "duration": 0.2181818181818187,
                "tempo": 120.0
            },
            {
                "start_time": 22.74772727272727,
                "end_time": 22.834090909090907,
                "pitch": 55,
                "velocity": 32,
                "duration": 0.08636363636363598,
                "tempo": 120.0
            },
            {
                "start_time": 23.15681818181818,
                "end_time": 23.24090909090909,
                "pitch": 57,
                "velocity": 32,
                "duration": 0.08409090909090722,
                "tempo": 120.0
            },
            {
                "start_time": 23.695454545454545,
                "end_time": 23.777272727272727,
                "pitch": 47,
                "velocity": 51,
                "duration": 0.08181818181818201,
                "tempo": 120.0
            },
            {
                "start_time": 23.96818181818182,
                "end_time": 24.049999999999997,
                "pitch": 47,
                "velocity": 51,
                "duration": 0.08181818181817846,
                "tempo": 120.0
            },
            {
                "start_time": 24.24090909090909,
                "end_time": 24.320454545454545,
                "pitch": 47,
                "velocity": 51,
                "duration": 0.0795454545454568,
                "tempo": 120.0
            },
            {
                "start_time": 24.50681818181818,
                "end_time": 24.58863636363636,
                "pitch": 47,
                "velocity": 51,
                "duration": 0.08181818181818201,
                "tempo": 120.0
            },
            {
                "start_time": 24.775,
                "end_time": 24.85681818181818,
                "pitch": 47,
                "velocity": 51,
                "duration": 0.08181818181818201,
                "tempo": 120.0
            }
        ],
        "Flute": [
            {
                "start_time": 4.0249999999999995,
                "end_time": 4.245454545454545,
                "pitch": 76,
                "velocity": 32,
                "duration": 0.22045454545454568,
                "tempo": 120.0
            },
            {
                "start_time": 4.297727272727273,
                "end_time": 4.513636363636364,
                "pitch": 79,
                "velocity": 32,
                "duration": 0.21590909090909083,
                "tempo": 120.0
            },
            {
                "start_time": 4.5636363636363635,
                "end_time": 5.059090909090909,
                "pitch": 79,
                "velocity": 32,
                "duration": 0.49545454545454515,
                "tempo": 120.0
            },
            {
                "start_time": 8.331818181818182,
                "end_time": 8.552272727272728,
                "pitch": 78,
                "velocity": 32,
                "duration": 0.22045454545454568,
                "tempo": 120.0
            },
            {
                "start_time": 4.297727272727273,
                "end_time": 8.604545454545454,
                "pitch": 91,
                "velocity": 32,
                "duration": 4.306818181818181,
                "tempo": 120.0
            },
            {
                "start_time": 8.604545454545454,
                "end_time": 8.822727272727272,
                "pitch": 79,
                "velocity": 32,
                "duration": 0.2181818181818187,
                "tempo": 120.0
            },
            {
                "start_time": 8.875,
                "end_time": 9.372727272727273,
                "pitch": 79,
                "velocity": 32,
                "duration": 0.497727272727273,
                "tempo": 120.0
            }
        ],
        "Vibraphone": [
            {
                "start_time": 25.979545454545452,
                "end_time": 26.079545454545453,
                "pitch": 83,
                "velocity": 51,
                "duration": 0.10000000000000142,
                "tempo": 120.0
            },
            {
                "start_time": 26.252272727272725,
                "end_time": 26.352272727272727,
                "pitch": 83,
                "velocity": 51,
                "duration": 0.10000000000000142,
                "tempo": 120.0
            },
            {
                "start_time": 26.520454545454545,
                "end_time": 26.620454545454542,
                "pitch": 83,
                "velocity": 51,
                "duration": 0.09999999999999787,
                "tempo": 120.0
            },
            {
                "start_time": 26.788636363636364,
                "end_time": 26.888636363636362,
                "pitch": 81,
                "velocity": 51,
                "duration": 0.09999999999999787,
                "tempo": 120.0
            },
            {
                "start_time": 27.05909090909091,
                "end_time": 27.43181818181818,
                "pitch": 86,
                "velocity": 51,
                "duration": 0.37272727272727124,
                "tempo": 120.0
            },
            {
                "start_time": 27.468181818181815,
                "end_time": 27.565909090909088,
                "pitch": 88,
                "velocity": 51,
                "duration": 0.09772727272727266,
                "tempo": 120.0
            },
            {
                "start_time": 27.868181818181817,
                "end_time": 28.375,
                "pitch": 83,
                "velocity": 51,
                "duration": 0.5068181818181827,
                "tempo": 120.0
            },
            {
                "start_time": 28.411363636363635,
                "end_time": 28.511363636363637,
                "pitch": 83,
                "velocity": 51,
                "duration": 0.10000000000000142,
                "tempo": 120.0
            },
            {
                "start_time": 28.68181818181818,
                "end_time": 28.779545454545453,
                "pitch": 83,
                "velocity": 51,
                "duration": 0.09772727272727266,
                "tempo": 120.0
            },
            {
                "start_time": 28.94772727272727,
                "end_time": 29.047727272727272,
                "pitch": 81,
                "velocity": 51,
                "duration": 0.10000000000000142,
                "tempo": 120.0
            },
            {
                "start_time": 27.05909090909091,
                "end_time": 29.21590909090909,
                "pitch": 68,
                "velocity": 51,
                "duration": 2.1568181818181813,
                "tempo": 120.0
            },
            {
                "start_time": 27.468181818181815,
                "end_time": 29.584090909090907,
                "pitch": 86,
                "velocity": 51,
                "duration": 2.115909090909092,
                "tempo": 120.0
            },
            {
                "start_time": 29.21590909090909,
                "end_time": 29.584090909090907,
                "pitch": 86,
                "velocity": 51,
                "duration": 0.3681818181818173,
                "tempo": 120.0
            },
            {
                "start_time": 29.618181818181817,
                "end_time": 29.718181818181815,
                "pitch": 88,
                "velocity": 51,
                "duration": 0.09999999999999787,
                "tempo": 120.0
            },
            {
                "start_time": 30.025,
                "end_time": 31.34090909090909,
                "pitch": 91,
                "velocity": 51,
                "duration": 1.3159090909090914,
                "tempo": 120.0
            },
            {
                "start_time": 27.868181818181817,
                "end_time": 32.15,
                "pitch": 90,
                "velocity": 51,
                "duration": 4.281818181818181,
                "tempo": 120.0
            },
            {
                "start_time": 31.91363636363636,
                "end_time": 32.15,
                "pitch": 90,
                "velocity": 51,
                "duration": 0.2363636363636381,
                "tempo": 120.0
            },
            {
                "start_time": 29.618181818181817,
                "end_time": 32.28636363636363,
                "pitch": 86,
                "velocity": 51,
                "duration": 2.6681818181818144,
                "tempo": 120.0
            },
            {
                "start_time": 32.18636363636364,
                "end_time": 32.28636363636363,
                "pitch": 86,
                "velocity": 51,
                "duration": 0.09999999999999432,
                "tempo": 120.0
            },
            {
                "start_time": 32.32272727272727,
                "end_time": 33.76590909090909,
                "pitch": 81,
                "velocity": 51,
                "duration": 1.4431818181818201,
                "tempo": 120.0
            },
            {
                "start_time": 34.33863636363636,
                "end_time": 34.70909090909091,
                "pitch": 81,
                "velocity": 51,
                "duration": 0.3704545454545496,
                "tempo": 120.0
            },
            {
                "start_time": 34.87954545454545,
                "end_time": 34.98181818181818,
                "pitch": 83,
                "velocity": 51,
                "duration": 0.10227272727272663,
                "tempo": 120.0
            },
            {
                "start_time": 35.15,
                "end_time": 35.25,
                "pitch": 83,
                "velocity": 51,
                "duration": 0.10000000000000142,
                "tempo": 120.0
            },
            {
                "start_time": 35.418181818181814,
                "end_time": 35.518181818181816,
                "pitch": 81,
                "velocity": 51,
                "duration": 0.10000000000000142,
                "tempo": 120.0
            },
            {
                "start_time": 29.21590909090909,
                "end_time": 35.684090909090905,
                "pitch": 68,
                "velocity": 51,
                "duration": 6.468181818181815,
                "tempo": 120.0
            },
            {
                "start_time": 35.684090909090905,
                "end_time": 36.05227272727272,
                "pitch": 86,
                "velocity": 51,
                "duration": 0.3681818181818173,
                "tempo": 120.0
            },
            {
                "start_time": 36.086363636363636,
                "end_time": 36.08863636363636,
                "pitch": 86,
                "velocity": 51,
                "duration": 0.0022727272727252057,
                "tempo": 120.0
            },
            {
                "start_time": 36.08863636363636,
                "end_time": 36.18863636363636,
                "pitch": 88,
                "velocity": 51,
                "duration": 0.10000000000000142,
                "tempo": 120.0
            },
            {
                "start_time": 32.18636363636364,
                "end_time": 36.49545454545454,
                "pitch": 90,
                "velocity": 51,
                "duration": 4.309090909090905,
                "tempo": 120.0
            },
            {
                "start_time": 36.49545454545454,
                "end_time": 37.00454545454545,
                "pitch": 83,
                "velocity": 51,
                "duration": 0.5090909090909079,
                "tempo": 120.0
            },
            {
                "start_time": 37.038636363636364,
                "end_time": 37.14090909090909,
                "pitch": 83,
                "velocity": 51,
                "duration": 0.10227272727272663,
                "tempo": 120.0
            },
            {
                "start_time": 37.30681818181818,
                "end_time": 37.404545454545456,
                "pitch": 83,
                "velocity": 51,
                "duration": 0.09772727272727622,
                "tempo": 120.0
            },
            {
                "start_time": 37.570454545454545,
                "end_time": 37.668181818181814,
                "pitch": 81,
                "velocity": 51,
                "duration": 0.09772727272726911,
                "tempo": 120.0
            },
            {
                "start_time": 35.684090909090905,
                "end_time": 37.83863636363636,
                "pitch": 68,
                "velocity": 51,
                "duration": 2.154545454545456,
                "tempo": 120.0
            },
            {
                "start_time": 37.83863636363636,
                "end_time": 38.074999999999996,
                "pitch": 86,
                "velocity": 51,
                "duration": 0.23636363636363455,
                "tempo": 120.0
            },
            {
                "start_time": 38.111363636363635,
                "end_time": 38.34772727272727,
                "pitch": 88,
                "velocity": 51,
                "duration": 0.23636363636363455,
                "tempo": 120.0
            },
            {
                "start_time": 30.025,
                "end_time": 38.38181818181818,
                "pitch": 102,
                "velocity": 51,
                "duration": 8.356818181818184,
                "tempo": 120.0
            },
            {
                "start_time": 38.38181818181818,
                "end_time": 38.62045454545454,
                "pitch": 91,
                "velocity": 51,
                "duration": 0.23863636363635976,
                "tempo": 120.0
            },
            {
                "start_time": 31.91363636363636,
                "end_time": 38.654545454545456,
                "pitch": 14,
                "velocity": 51,
                "duration": 6.740909090909096,
                "tempo": 120.0
            },
            {
                "start_time": 36.49545454545454,
                "end_time": 39.69318181818181,
                "pitch": 90,
                "velocity": 51,
                "duration": 3.1977272727272705,
                "tempo": 120.0
            },
            {
                "start_time": 38.654545454545456,
                "end_time": 39.69318181818181,
                "pitch": 90,
                "velocity": 51,
                "duration": 1.038636363636357,
                "tempo": 120.0
            },
            {
                "start_time": 40.27045454545454,
                "end_time": 40.50454545454545,
                "pitch": 74,
                "velocity": 25,
                "duration": 0.23409090909090935,
                "tempo": 120.0
            },
            {
                "start_time": 40.54090909090909,
                "end_time": 40.77272727272727,
                "pitch": 76,
                "velocity": 25,
                "duration": 0.23181818181818414,
                "tempo": 120.0
            },
            {
                "start_time": 40.809090909090905,
                "end_time": 40.90681818181818,
                "pitch": 79,
                "velocity": 25,
                "duration": 0.09772727272727622,
                "tempo": 120.0
            },
            {
                "start_time": 40.27045454545454,
                "end_time": 41.31363636363636,
                "pitch": 78,
                "velocity": 25,
                "duration": 1.0431818181818215,
                "tempo": 120.0
            },
            {
                "start_time": 40.94090909090909,
                "end_time": 41.31363636363636,
                "pitch": 78,
                "velocity": 25,
                "duration": 0.3727272727272748,
                "tempo": 120.0
            },
            {
                "start_time": 41.35,
                "end_time": 41.449999999999996,
                "pitch": 62,
                "velocity": 25,
                "duration": 0.09999999999999432,
                "tempo": 120.0
            },
            {
                "start_time": 41.62045454545454,
                "end_time": 41.71818181818182,
                "pitch": 62,
                "velocity": 25,
                "duration": 0.09772727272727622,
                "tempo": 120.0
            },
            {
                "start_time": 41.88636363636363,
                "end_time": 41.986363636363635,
                "pitch": 67,
                "velocity": 25,
                "duration": 0.10000000000000142,
                "tempo": 120.0
            },
            {
                "start_time": 32.32272727272727,
                "end_time": 60.48409090909091,
                "pitch": 89,
                "velocity": 51,
                "duration": 28.16136363636364,
                "tempo": 120.0
            },
            {
                "start_time": 60.48409090909091,
                "end_time": 60.58181818181818,
                "pitch": 83,
                "velocity": 51,
                "duration": 0.09772727272726911,
                "tempo": 120.0
            },
            {
                "start_time": 60.75,
                "end_time": 60.849999999999994,
                "pitch": 83,
                "velocity": 51,
                "duration": 0.09999999999999432,
                "tempo": 120.0
            },
            {
                "start_time": 61.018181818181816,
                "end_time": 61.11818181818182,
                "pitch": 83,
                "velocity": 51,
                "duration": 0.10000000000000142,
                "tempo": 120.0
            },
            {
                "start_time": 61.28636363636363,
                "end_time": 61.38636363636363,
                "pitch": 81,
                "velocity": 51,
                "duration": 0.10000000000000142,
                "tempo": 120.0
            },
            {
                "start_time": 37.83863636363636,
                "end_time": 61.554545454545455,
                "pitch": 68,
                "velocity": 51,
                "duration": 23.715909090909093,
                "tempo": 120.0
            },
            {
                "start_time": 38.111363636363635,
                "end_time": 61.929545454545455,
                "pitch": 86,
                "velocity": 51,
                "duration": 23.81818181818182,
                "tempo": 120.0
            },
            {
                "start_time": 61.554545454545455,
                "end_time": 61.929545454545455,
                "pitch": 86,
                "velocity": 51,
                "duration": 0.375,
                "tempo": 120.0
            },
            {
                "start_time": 61.965909090909086,
                "end_time": 62.06363636363636,
                "pitch": 88,
                "velocity": 51,
                "duration": 0.09772727272727622,
                "tempo": 120.0
            },
            {
                "start_time": 40.809090909090905,
                "end_time": 62.365909090909085,
                "pitch": 90,
                "velocity": 25,
                "duration": 21.55681818181818,
                "tempo": 120.0
            },
            {
                "start_time": 62.365909090909085,
                "end_time": 62.87272727272727,
                "pitch": 83,
                "velocity": 51,
                "duration": 0.5068181818181827,
                "tempo": 120.0
            },
            {
                "start_time": 62.90681818181818,
                "end_time": 63.00909090909091,
                "pitch": 83,
                "velocity": 51,
                "duration": 0.10227272727272663,
                "tempo": 120.0
            },
            {
                "start_time": 63.17727272727272,
                "end_time": 63.277272727272724,
                "pitch": 83,
                "velocity": 51,
                "duration": 0.10000000000000142,
                "tempo": 120.0
            },
            {
                "start_time": 63.445454545454545,
                "end_time": 63.54545454545454,
                "pitch": 81,
                "velocity": 51,
                "duration": 0.09999999999999432,
                "tempo": 120.0
            },
            {
                "start_time": 61.554545454545455,
                "end_time": 63.71363636363636,
                "pitch": 68,
                "velocity": 51,
                "duration": 2.1590909090909065,
                "tempo": 120.0
            },
            {
                "start_time": 61.965909090909086,
                "end_time": 64.07954545454545,
                "pitch": 86,
                "velocity": 51,
                "duration": 2.113636363636367,
                "tempo": 120.0
            },
            {
                "start_time": 63.71363636363636,
                "end_time": 64.07954545454545,
                "pitch": 86,
                "velocity": 51,
                "duration": 0.36590909090909207,
                "tempo": 120.0
            },
            {
                "start_time": 64.11590909090908,
                "end_time": 64.2159090909091,
                "pitch": 88,
                "velocity": 51,
                "duration": 0.10000000000000853,
                "tempo": 120.0
            },
            {
                "start_time": 38.38181818181818,
                "end_time": 64.52272727272727,
                "pitch": 102,
                "velocity": 51,
                "duration": 26.140909090909084,
                "tempo": 120.0
            },
            {
                "start_time": 64.52272727272727,
                "end_time": 65.83863636363635,
                "pitch": 91,
                "velocity": 51,
                "duration": 1.3159090909090878,
                "tempo": 120.0
            },
            {
                "start_time": 38.654545454545456,
                "end_time": 66.40681818181818,
                "pitch": 14,
                "velocity": 51,
                "duration": 27.752272727272725,
                "tempo": 120.0
            },
            {
                "start_time": 62.365909090909085,
                "end_time": 66.64090909090909,
                "pitch": 90,
                "velocity": 51,
                "duration": 4.275000000000006,
                "tempo": 120.0
            },
            {
                "start_time": 66.40681818181818,
                "end_time": 66.64090909090909,
                "pitch": 90,
                "velocity": 51,
                "duration": 0.23409090909090935,
                "tempo": 120.0
            },
            {
                "start_time": 64.11590909090908,
                "end_time": 66.77499999999999,
                "pitch": 86,
                "velocity": 51,
                "duration": 2.6590909090909065,
                "tempo": 120.0
            },
            {
                "start_time": 66.67727272727272,
                "end_time": 66.77499999999999,
                "pitch": 86,
                "velocity": 51,
                "duration": 0.09772727272726911,
                "tempo": 120.0
            },
            {
                "start_time": 60.48409090909091,
                "end_time": 66.80909090909091,
                "pitch": 89,
                "velocity": 51,
                "duration": 6.325000000000003,
                "tempo": 120.0
            },
            {
                "start_time": 66.80909090909091,
                "end_time": 68.26363636363637,
                "pitch": 81,
                "velocity": 51,
                "duration": 1.4545454545454533,
                "tempo": 120.0
            },
            {
                "start_time": 68.8340909090909,
                "end_time": 69.20681818181818,
                "pitch": 81,
                "velocity": 51,
                "duration": 0.3727272727272748,
                "tempo": 120.0
            },
            {
                "start_time": 69.37727272727273,
                "end_time": 69.47954545454544,
                "pitch": 83,
                "velocity": 51,
                "duration": 0.10227272727271952,
                "tempo": 120.0
            },
            {
                "start_time": 69.64772727272727,
                "end_time": 69.74772727272727,
                "pitch": 83,
                "velocity": 51,
                "duration": 0.10000000000000853,
                "tempo": 120.0
            },
            {
                "start_time": 69.91363636363636,
                "end_time": 70.01363636363637,
                "pitch": 81,
                "velocity": 51,
                "duration": 0.10000000000000853,
                "tempo": 120.0
            },
            {
                "start_time": 63.71363636363636,
                "end_time": 70.18181818181817,
                "pitch": 68,
                "velocity": 51,
                "duration": 6.468181818181812,
                "tempo": 120.0
            },
            {
                "start_time": 70.18181818181817,
                "end_time": 70.55,
                "pitch": 86,
                "velocity": 51,
                "duration": 0.3681818181818244,
                "tempo": 120.0
            },
            {
                "start_time": 70.5840909090909,
                "end_time": 70.68409090909091,
                "pitch": 88,
                "velocity": 51,
                "duration": 0.10000000000000853,
                "tempo": 120.0
            },
            {
                "start_time": 66.67727272727272,
                "end_time": 70.99090909090908,
                "pitch": 90,
                "velocity": 51,
                "duration": 4.313636363636363,
                "tempo": 120.0
            },
            {
                "start_time": 70.99090909090908,
                "end_time": 71.49545454545454,
                "pitch": 83,
                "velocity": 51,
                "duration": 0.5045454545454504,
                "tempo": 120.0
            },
            {
                "start_time": 71.52954545454546,
                "end_time": 71.62954545454545,
                "pitch": 83,
                "velocity": 51,
                "duration": 0.09999999999999432,
                "tempo": 120.0
            },
            {
                "start_time": 71.79772727272727,
                "end_time": 71.89772727272727,
                "pitch": 83,
                "velocity": 51,
                "duration": 0.09999999999999432,
                "tempo": 120.0
            },
            {
                "start_time": 72.06363636363636,
                "end_time": 72.16363636363636,
                "pitch": 81,
                "velocity": 51,
                "duration": 0.09999999999999432,
                "tempo": 120.0
            },
            {
                "start_time": 70.18181818181817,
                "end_time": 72.3340909090909,
                "pitch": 68,
                "velocity": 51,
                "duration": 2.152272727272731,
                "tempo": 120.0
            },
            {
                "start_time": 70.5840909090909,
                "end_time": 72.57272727272726,
                "pitch": 86,
                "velocity": 51,
                "duration": 1.9886363636363598,
                "tempo": 120.0
            },
            {
                "start_time": 72.3340909090909,
                "end_time": 72.57272727272726,
                "pitch": 86,
                "velocity": 51,
                "duration": 0.23863636363635976,
                "tempo": 120.0
            },
            {
                "start_time": 72.60909090909091,
                "end_time": 72.84545454545454,
                "pitch": 88,
                "velocity": 51,
                "duration": 0.23636363636363455,
                "tempo": 120.0
            },
            {
                "start_time": 64.52272727272727,
                "end_time": 72.87954545454545,
                "pitch": 102,
                "velocity": 51,
                "duration": 8.356818181818184,
                "tempo": 120.0
            },
            {
                "start_time": 72.87954545454545,
                "end_time": 73.11590909090908,
                "pitch": 91,
                "velocity": 51,
                "duration": 0.23636363636363455,
                "tempo": 120.0
            },
            {
                "start_time": 66.40681818181818,
                "end_time": 73.15227272727272,
                "pitch": 14,
                "velocity": 51,
                "duration": 6.745454545454535,
                "tempo": 120.0
            },
            {
                "start_time": 73.14999999999999,
                "end_time": 73.15227272727272,
                "pitch": 14,
                "velocity": 51,
                "duration": 0.0022727272727252057,
                "tempo": 120.0
            },
            {
                "start_time": 70.99090909090908,
                "end_time": 74.19090909090909,
                "pitch": 90,
                "velocity": 51,
                "duration": 3.200000000000003,
                "tempo": 120.0
            },
            {
                "start_time": 73.15227272727272,
                "end_time": 74.19090909090909,
                "pitch": 90,
                "velocity": 51,
                "duration": 1.0386363636363711,
                "tempo": 120.0
            },
            {
                "start_time": 41.88636363636363,
                "end_time": 74.76590909090909,
                "pitch": 78,
                "velocity": 25,
                "duration": 32.87954545454546,
                "tempo": 120.0
            },
            {
                "start_time": 40.54090909090909,
                "end_time": 75.00227272727273,
                "pitch": 74,
                "velocity": 25,
                "duration": 34.461363636363636,
                "tempo": 120.0
            },
            {
                "start_time": 74.76590909090909,
                "end_time": 75.00227272727273,
                "pitch": 74,
                "velocity": 25,
                "duration": 0.23636363636363455,
                "tempo": 120.0
            },
            {
                "start_time": 75.03636363636363,
                "end_time": 75.27045454545454,
                "pitch": 76,
                "velocity": 25,
                "duration": 0.23409090909090935,
                "tempo": 120.0
            },
            {
                "start_time": 75.30454545454545,
                "end_time": 75.40454545454546,
                "pitch": 79,
                "velocity": 25,
                "duration": 0.10000000000000853,
                "tempo": 120.0
            },
            {
                "start_time": 40.94090909090909,
                "end_time": 75.43863636363636,
                "pitch": 2,
                "velocity": 25,
                "duration": 34.497727272727275,
                "tempo": 120.0
            },
            {
                "start_time": 74.76590909090909,
                "end_time": 75.81136363636364,
                "pitch": 78,
                "velocity": 25,
                "duration": 1.0454545454545467,
                "tempo": 120.0
            },
            {
                "start_time": 75.43863636363636,
                "end_time": 75.81136363636364,
                "pitch": 78,
                "velocity": 25,
                "duration": 0.3727272727272748,
                "tempo": 120.0
            },
            {
                "start_time": 41.35,
                "end_time": 75.84545454545454,
                "pitch": 66,
                "velocity": 25,
                "duration": 34.49545454545454,
                "tempo": 120.0
            },
            {
                "start_time": 75.84545454545454,
                "end_time": 75.94772727272726,
                "pitch": 62,
                "velocity": 25,
                "duration": 0.10227272727271952,
                "tempo": 120.0
            },
            {
                "start_time": 76.11590909090908,
                "end_time": 76.2159090909091,
                "pitch": 62,
                "velocity": 25,
                "duration": 0.10000000000000853,
                "tempo": 120.0
            },
            {
                "start_time": 76.3840909090909,
                "end_time": 76.48409090909091,
                "pitch": 67,
                "velocity": 25,
                "duration": 0.10000000000000853,
                "tempo": 120.0
            }
        ],
        "Church Organ": [
            {
                "start_time": 42.559090909090905,
                "end_time": 42.793181818181814,
                "pitch": 66,
                "velocity": 40,
                "duration": 0.23409090909090935,
                "tempo": 120.0
            },
            {
                "start_time": 42.82727272727273,
                "end_time": 43.06590909090909,
                "pitch": 66,
                "velocity": 40,
                "duration": 0.23863636363635976,
                "tempo": 120.0
            },
            {
                "start_time": 43.10454545454545,
                "end_time": 43.33863636363636,
                "pitch": 64,
                "velocity": 40,
                "duration": 0.23409090909090935,
                "tempo": 120.0
            },
            {
                "start_time": 43.375,
                "end_time": 44.69090909090909,
                "pitch": 62,
                "velocity": 40,
                "duration": 1.3159090909090878,
                "tempo": 120.0
            },
            {
                "start_time": 44.72727272727273,
                "end_time": 44.959090909090904,
                "pitch": 59,
                "velocity": 40,
                "duration": 0.23181818181817704,
                "tempo": 120.0
            },
            {
                "start_time": 44.99318181818182,
                "end_time": 45.22727272727273,
                "pitch": 60,
                "velocity": 40,
                "duration": 0.23409090909090935,
                "tempo": 120.0
            },
            {
                "start_time": 45.25909090909091,
                "end_time": 45.35909090909091,
                "pitch": 62,
                "velocity": 40,
                "duration": 0.10000000000000142,
                "tempo": 120.0
            },
            {
                "start_time": 45.39545454545454,
                "end_time": 46.840909090909086,
                "pitch": 62,
                "velocity": 40,
                "duration": 1.4454545454545453,
                "tempo": 120.0
            },
            {
                "start_time": 46.877272727272725,
                "end_time": 47.10909090909091,
                "pitch": 64,
                "velocity": 40,
                "duration": 0.23181818181818414,
                "tempo": 120.0
            },
            {
                "start_time": 47.14545454545454,
                "end_time": 47.377272727272725,
                "pitch": 67,
                "velocity": 40,
                "duration": 0.23181818181818414,
                "tempo": 120.0
            },
            {
                "start_time": 47.40909090909091,
                "end_time": 48.18863636363636,
                "pitch": 67,
                "velocity": 40,
                "duration": 0.7795454545454561,
                "tempo": 120.0
            },
            {
                "start_time": 48.22272727272727,
                "end_time": 48.72727272727273,
                "pitch": 69,
                "velocity": 40,
                "duration": 0.5045454545454575,
                "tempo": 120.0
            },
            {
                "start_time": 44.72727272727273,
                "end_time": 49.304545454545455,
                "pitch": 66,
                "velocity": 40,
                "duration": 4.577272727272728,
                "tempo": 120.0
            },
            {
                "start_time": 49.304545454545455,
                "end_time": 49.53636363636363,
                "pitch": 62,
                "velocity": 40,
                "duration": 0.23181818181817704,
                "tempo": 120.0
            },
            {
                "start_time": 49.570454545454545,
                "end_time": 49.67045454545454,
                "pitch": 57,
                "velocity": 40,
                "duration": 0.09999999999999432,
                "tempo": 120.0
            },
            {
                "start_time": 49.70454545454545,
                "end_time": 50.877272727272725,
                "pitch": 57,
                "velocity": 40,
                "duration": 1.172727272727272,
                "tempo": 120.0
            },
            {
                "start_time": 44.99318181818182,
                "end_time": 51.18636363636364,
                "pitch": 44,
                "velocity": 40,
                "duration": 6.19318181818182,
                "tempo": 120.0
            },
            {
                "start_time": 49.304545454545455,
                "end_time": 51.42272727272727,
                "pitch": 66,
                "velocity": 40,
                "duration": 2.1181818181818173,
                "tempo": 120.0
            },
            {
                "start_time": 51.18636363636364,
                "end_time": 51.42272727272727,
                "pitch": 66,
                "velocity": 40,
                "duration": 0.23636363636363455,
                "tempo": 120.0
            },
            {
                "start_time": 51.459090909090904,
                "end_time": 51.695454545454545,
                "pitch": 66,
                "velocity": 40,
                "duration": 0.23636363636364166,
                "tempo": 120.0
            },
            {
                "start_time": 51.72954545454545,
                "end_time": 51.82954545454545,
                "pitch": 64,
                "velocity": 40,
                "duration": 0.10000000000000142,
                "tempo": 120.0
            },
            {
                "start_time": 51.86363636363636,
                "end_time": 52.76590909090909,
                "pitch": 62,
                "velocity": 40,
                "duration": 0.9022727272727309,
                "tempo": 120.0
            },
            {
                "start_time": 52.80227272727272,
                "end_time": 53.03636363636363,
                "pitch": 59,
                "velocity": 40,
                "duration": 0.23409090909090935,
                "tempo": 120.0
            },
            {
                "start_time": 51.18636363636364,
                "end_time": 53.07272727272727,
                "pitch": 44,
                "velocity": 40,
                "duration": 1.8863636363636331,
                "tempo": 120.0
            },
            {
                "start_time": 45.25909090909091,
                "end_time": 53.309090909090905,
                "pitch": 60,
                "velocity": 40,
                "duration": 8.049999999999997,
                "tempo": 120.0
            },
            {
                "start_time": 53.07272727272727,
                "end_time": 53.309090909090905,
                "pitch": 60,
                "velocity": 40,
                "duration": 0.23636363636363455,
                "tempo": 120.0
            },
            {
                "start_time": 53.34772727272727,
                "end_time": 53.57727272727273,
                "pitch": 62,
                "velocity": 40,
                "duration": 0.22954545454545894,
                "tempo": 120.0
            },
            {
                "start_time": 53.61363636363636,
                "end_time": 53.845454545454544,
                "pitch": 62,
                "velocity": 40,
                "duration": 0.23181818181818414,
                "tempo": 120.0
            },
            {
                "start_time": 53.87954545454545,
                "end_time": 53.97954545454545,
                "pitch": 64,
                "velocity": 40,
                "duration": 0.10000000000000142,
                "tempo": 120.0
            },
            {
                "start_time": 47.14545454545454,
                "end_time": 54.01363636363636,
                "pitch": 79,
                "velocity": 40,
                "duration": 6.868181818181817,
                "tempo": 120.0
            },
            {
                "start_time": 54.01363636363636,
                "end_time": 54.925,
                "pitch": 67,
                "velocity": 40,
                "duration": 0.9113636363636388,
                "tempo": 120.0
            },
            {
                "start_time": 55.506818181818176,
                "end_time": 55.73863636363636,
                "pitch": 64,
                "velocity": 40,
                "duration": 0.23181818181818414,
                "tempo": 120.0
            },
            {
                "start_time": 54.01363636363636,
                "end_time": 55.775,
                "pitch": 79,
                "velocity": 40,
                "duration": 1.7613636363636402,
                "tempo": 120.0
            },
            {
                "start_time": 55.775,
                "end_time": 56.00454545454545,
                "pitch": 67,
                "velocity": 40,
                "duration": 0.22954545454545183,
                "tempo": 120.0
            },
            {
                "start_time": 56.038636363636364,
                "end_time": 56.13863636363636,
                "pitch": 67,
                "velocity": 40,
                "duration": 0.09999999999999432,
                "tempo": 120.0
            },
            {
                "start_time": 56.17272727272727,
                "end_time": 57.074999999999996,
                "pitch": 69,
                "velocity": 40,
                "duration": 0.9022727272727238,
                "tempo": 120.0
            },
            {
                "start_time": 52.80227272727272,
                "end_time": 58.43181818181818,
                "pitch": 66,
                "velocity": 40,
                "duration": 5.6295454545454575,
                "tempo": 120.0
            },
            {
                "start_time": 57.929545454545455,
                "end_time": 58.43181818181818,
                "pitch": 66,
                "velocity": 40,
                "duration": 0.5022727272727252,
                "tempo": 120.0
            },
            {
                "start_time": 58.465909090909086,
                "end_time": 58.699999999999996,
                "pitch": 64,
                "velocity": 40,
                "duration": 0.23409090909090935,
                "tempo": 120.0
            },
            {
                "start_time": 77.05454545454545,
                "end_time": 77.29090909090908,
                "pitch": 66,
                "velocity": 40,
                "duration": 0.23636363636363455,
                "tempo": 120.0
            },
            {
                "start_time": 77.325,
                "end_time": 77.56363636363636,
                "pitch": 66,
                "velocity": 40,
                "duration": 0.23863636363635976,
                "tempo": 120.0
            },
            {
                "start_time": 77.6,
                "end_time": 77.8340909090909,
                "pitch": 64,
                "velocity": 40,
                "duration": 0.23409090909090935,
                "tempo": 120.0
            },
            {
                "start_time": 77.87045454545454,
                "end_time": 79.18636363636364,
                "pitch": 62,
                "velocity": 40,
                "duration": 1.315909090909102,
                "tempo": 120.0
            },
            {
                "start_time": 79.225,
                "end_time": 79.45454545454545,
                "pitch": 59,
                "velocity": 40,
                "duration": 0.22954545454545894,
                "tempo": 120.0
            },
            {
                "start_time": 53.07272727272727,
                "end_time": 79.49090909090908,
                "pitch": 44,
                "velocity": 40,
                "duration": 26.418181818181814,
                "tempo": 120.0
            },
            {
                "start_time": 53.34772727272727,
                "end_time": 79.72272727272727,
                "pitch": 60,
                "velocity": 40,
                "duration": 26.375,
                "tempo": 120.0
            },
            {
                "start_time": 79.49090909090908,
                "end_time": 79.72272727272727,
                "pitch": 60,
                "velocity": 40,
                "duration": 0.23181818181818414,
                "tempo": 120.0
            },
            {
                "start_time": 79.75681818181818,
                "end_time": 79.85681818181818,
                "pitch": 62,
                "velocity": 40,
                "duration": 0.10000000000000853,
                "tempo": 120.0
            },
            {
                "start_time": 79.89090909090909,
                "end_time": 81.33636363636363,
                "pitch": 62,
                "velocity": 40,
                "duration": 1.4454545454545382,
                "tempo": 120.0
            },
            {
                "start_time": 81.375,
                "end_time": 81.60454545454544,
                "pitch": 64,
                "velocity": 40,
                "duration": 0.22954545454544473,
                "tempo": 120.0
            },
            {
                "start_time": 55.775,
                "end_time": 81.64090909090909,
                "pitch": 79,
                "velocity": 40,
                "duration": 25.865909090909092,
                "tempo": 120.0
            },
            {
                "start_time": 81.64090909090909,
                "end_time": 81.87272727272727,
                "pitch": 67,
                "velocity": 40,
                "duration": 0.23181818181818414,
                "tempo": 120.0
            },
            {
                "start_time": 81.90681818181818,
                "end_time": 82.68636363636364,
                "pitch": 67,
                "velocity": 40,
                "duration": 0.7795454545454561,
                "tempo": 120.0
            },
            {
                "start_time": 82.72045454545454,
                "end_time": 83.225,
                "pitch": 69,
                "velocity": 40,
                "duration": 0.5045454545454504,
                "tempo": 120.0
            },
            {
                "start_time": 79.225,
                "end_time": 83.8,
                "pitch": 66,
                "velocity": 40,
                "duration": 4.575000000000003,
                "tempo": 120.0
            },
            {
                "start_time": 83.8,
                "end_time": 84.03181818181818,
                "pitch": 62,
                "velocity": 40,
                "duration": 0.23181818181818414,
                "tempo": 120.0
            },
            {
                "start_time": 49.570454545454545,
                "end_time": 84.06590909090909,
                "pitch": 65,
                "velocity": 40,
                "duration": 34.49545454545454,
                "tempo": 120.0
            },
            {
                "start_time": 84.06590909090909,
                "end_time": 84.16590909090908,
                "pitch": 57,
                "velocity": 40,
                "duration": 0.09999999999999432,
                "tempo": 120.0
            },
            {
                "start_time": 84.2,
                "end_time": 85.375,
                "pitch": 57,
                "velocity": 40,
                "duration": 1.1749999999999972,
                "tempo": 120.0
            },
            {
                "start_time": 79.49090909090908,
                "end_time": 85.6840909090909,
                "pitch": 44,
                "velocity": 40,
                "duration": 6.193181818181813,
                "tempo": 120.0
            },
            {
                "start_time": 83.8,
                "end_time": 85.91818181818181,
                "pitch": 66,
                "velocity": 40,
                "duration": 2.11818181818181,
                "tempo": 120.0
            },
            {
                "start_time": 85.6840909090909,
                "end_time": 85.91818181818181,
                "pitch": 66,
                "velocity": 40,
                "duration": 0.23409090909090935,
                "tempo": 120.0
            },
            {
                "start_time": 85.95681818181818,
                "end_time": 86.19090909090909,
                "pitch": 66,
                "velocity": 40,
                "duration": 0.23409090909090935,
                "tempo": 120.0
            },
            {
                "start_time": 86.225,
                "end_time": 86.325,
                "pitch": 64,
                "velocity": 40,
                "duration": 0.10000000000000853,
                "tempo": 120.0
            },
            {
                "start_time": 86.36136363636363,
                "end_time": 87.26363636363637,
                "pitch": 62,
                "velocity": 40,
                "duration": 0.9022727272727309,
                "tempo": 120.0
            },
            {
                "start_time": 87.29772727272727,
                "end_time": 87.5340909090909,
                "pitch": 59,
                "velocity": 40,
                "duration": 0.23636363636363455,
                "tempo": 120.0
            },
            {
                "start_time": 85.6840909090909,
                "end_time": 87.57045454545454,
                "pitch": 44,
                "velocity": 40,
                "duration": 1.8863636363636402,
                "tempo": 120.0
            },
            {
                "start_time": 79.75681818181818,
                "end_time": 87.80681818181817,
                "pitch": 60,
                "velocity": 40,
                "duration": 8.049999999999997,
                "tempo": 120.0
            },
            {
                "start_time": 87.57045454545454,
                "end_time": 87.80681818181817,
                "pitch": 60,
                "velocity": 40,
                "duration": 0.23636363636363455,
                "tempo": 120.0
            },
            {
                "start_time": 87.84318181818182,
                "end_time": 88.07499999999999,
                "pitch": 62,
                "velocity": 40,
                "duration": 0.23181818181816993,
                "tempo": 120.0
            },
            {
                "start_time": 88.11136363636363,
                "end_time": 88.34318181818182,
                "pitch": 62,
                "velocity": 40,
                "duration": 0.23181818181818414,
                "tempo": 120.0
            },
            {
                "start_time": 88.37727272727273,
                "end_time": 88.475,
                "pitch": 64,
                "velocity": 40,
                "duration": 0.09772727272726911,
                "tempo": 120.0
            },
            {
                "start_time": 81.64090909090909,
                "end_time": 88.51136363636363,
                "pitch": 79,
                "velocity": 40,
                "duration": 6.870454545454535,
                "tempo": 120.0
            },
            {
                "start_time": 88.51136363636363,
                "end_time": 89.42045454545455,
                "pitch": 67,
                "velocity": 40,
                "duration": 0.9090909090909207,
                "tempo": 120.0
            },
            {
                "start_time": 90.00227272727273,
                "end_time": 90.23409090909091,
                "pitch": 64,
                "velocity": 40,
                "duration": 0.23181818181818414,
                "tempo": 120.0
            },
            {
                "start_time": 88.51136363636363,
                "end_time": 90.27045454545454,
                "pitch": 79,
                "velocity": 40,
                "duration": 1.759090909090915,
                "tempo": 120.0
            },
            {
                "start_time": 90.27045454545454,
                "end_time": 90.50227272727273,
                "pitch": 67,
                "velocity": 40,
                "duration": 0.23181818181818414,
                "tempo": 120.0
            },
            {
                "start_time": 90.53636363636363,
                "end_time": 90.63636363636363,
                "pitch": 67,
                "velocity": 40,
                "duration": 0.09999999999999432,
                "tempo": 120.0
            },
            {
                "start_time": 90.67045454545455,
                "end_time": 91.57272727272726,
                "pitch": 69,
                "velocity": 40,
                "duration": 0.9022727272727167,
                "tempo": 120.0
            },
            {
                "start_time": 87.29772727272727,
                "end_time": 92.66136363636363,
                "pitch": 66,
                "velocity": 40,
                "duration": 5.36363636363636,
                "tempo": 120.0
            },
            {
                "start_time": 92.425,
                "end_time": 92.66136363636363,
                "pitch": 66,
                "velocity": 40,
                "duration": 0.23636363636363455,
                "tempo": 120.0
            },
            {
                "start_time": 92.69772727272726,
                "end_time": 92.92954545454545,
                "pitch": 71,
                "velocity": 40,
                "duration": 0.23181818181818414,
                "tempo": 120.0
            }
        ],
        "Trumpet": [
            {
                "start_time": 95.12045454545454,
                "end_time": 95.60681818181818,
                "pitch": 71,
                "velocity": 32,
                "duration": 0.48636363636364877,
                "tempo": 120.0
            },
            {
                "start_time": 95.6590909090909,
                "end_time": 96.14545454545454,
                "pitch": 71,
                "velocity": 32,
                "duration": 0.48636363636363455,
                "tempo": 120.0
            },
            {
                "start_time": 96.19999999999999,
                "end_time": 96.68863636363636,
                "pitch": 69,
                "velocity": 32,
                "duration": 0.48863636363637397,
                "tempo": 120.0
            },
            {
                "start_time": 96.74090909090908,
                "end_time": 96.95454545454545,
                "pitch": 72,
                "velocity": 32,
                "duration": 0.2136363636363683,
                "tempo": 120.0
            },
            {
                "start_time": 97.00681818181818,
                "end_time": 97.76136363636363,
                "pitch": 74,
                "velocity": 32,
                "duration": 0.7545454545454504,
                "tempo": 120.0
            },
            {
                "start_time": 97.81363636363636,
                "end_time": 98.30227272727272,
                "pitch": 74,
                "velocity": 32,
                "duration": 0.48863636363635976,
                "tempo": 120.0
            },
            {
                "start_time": 97.00681818181818,
                "end_time": 98.83863636363635,
                "pitch": 72,
                "velocity": 32,
                "duration": 1.8318181818181785,
                "tempo": 120.0
            },
            {
                "start_time": 98.35454545454544,
                "end_time": 98.83863636363635,
                "pitch": 72,
                "velocity": 32,
                "duration": 0.48409090909090935,
                "tempo": 120.0
            },
            {
                "start_time": 98.88863636363637,
                "end_time": 99.37727272727273,
                "pitch": 71,
                "velocity": 32,
                "duration": 0.48863636363635976,
                "tempo": 120.0
            },
            {
                "start_time": 99.42954545454545,
                "end_time": 100.99772727272727,
                "pitch": 71,
                "velocity": 32,
                "duration": 1.5681818181818272,
                "tempo": 120.0
            },
            {
                "start_time": 101.05,
                "end_time": 101.26363636363637,
                "pitch": 71,
                "velocity": 32,
                "duration": 0.2136363636363683,
                "tempo": 120.0
            },
            {
                "start_time": 101.31818181818181,
                "end_time": 102.34545454545454,
                "pitch": 69,
                "velocity": 32,
                "duration": 1.027272727272731,
                "tempo": 120.0
            },
            {
                "start_time": 102.39545454545454,
                "end_time": 102.61136363636363,
                "pitch": 69,
                "velocity": 32,
                "duration": 0.2159090909090935,
                "tempo": 120.0
            },
            {
                "start_time": 102.66363636363636,
                "end_time": 103.01363636363637,
                "pitch": 72,
                "velocity": 32,
                "duration": 0.3500000000000085,
                "tempo": 120.0
            },
            {
                "start_time": 98.88863636363637,
                "end_time": 103.06590909090909,
                "pitch": 76,
                "velocity": 32,
                "duration": 4.177272727272722,
                "tempo": 120.0
            },
            {
                "start_time": 103.06590909090909,
                "end_time": 103.42272727272727,
                "pitch": 71,
                "velocity": 32,
                "duration": 0.35681818181818414,
                "tempo": 120.0
            },
            {
                "start_time": 103.475,
                "end_time": 103.55681818181817,
                "pitch": 71,
                "velocity": 32,
                "duration": 0.08181818181817846,
                "tempo": 120.0
            },
            {
                "start_time": 103.60909090909091,
                "end_time": 105.30681818181817,
                "pitch": 69,
                "velocity": 32,
                "duration": 1.6977272727272634,
                "tempo": 120.0
            },
            {
                "start_time": 105.35909090909091,
                "end_time": 105.57499999999999,
                "pitch": 69,
                "velocity": 32,
                "duration": 0.21590909090907928,
                "tempo": 120.0
            },
            {
                "start_time": 105.625,
                "end_time": 106.65454545454546,
                "pitch": 67,
                "velocity": 32,
                "duration": 1.029545454545456,
                "tempo": 120.0
            },
            {
                "start_time": 106.97727272727272,
                "end_time": 107.19772727272726,
                "pitch": 64,
                "velocity": 32,
                "duration": 0.2204545454545439,
                "tempo": 120.0
            },
            {
                "start_time": 95.12045454545454,
                "end_time": 107.25,
                "pitch": 79,
                "velocity": 32,
                "duration": 12.129545454545465,
                "tempo": 120.0
            },
            {
                "start_time": 107.25,
                "end_time": 107.73409090909091,
                "pitch": 67,
                "velocity": 32,
                "duration": 0.48409090909090935,
                "tempo": 120.0
            },
            {
                "start_time": 107.78636363636363,
                "end_time": 109.35,
                "pitch": 67,
                "velocity": 32,
                "duration": 1.5636363636363626,
                "tempo": 120.0
            },
            {
                "start_time": 109.67272727272727,
                "end_time": 109.89318181818182,
                "pitch": 66,
                "velocity": 32,
                "duration": 0.2204545454545439,
                "tempo": 120.0
            },
            {
                "start_time": 109.94545454545454,
                "end_time": 112.31363636363636,
                "pitch": 64,
                "velocity": 32,
                "duration": 2.3681818181818244,
                "tempo": 120.0
            },
            {
                "start_time": 107.25,
                "end_time": 112.36818181818181,
                "pitch": 79,
                "velocity": 32,
                "duration": 5.11818181818181,
                "tempo": 120.0
            },
            {
                "start_time": 112.36818181818181,
                "end_time": 112.85454545454544,
                "pitch": 71,
                "velocity": 32,
                "duration": 0.48636363636363455,
                "tempo": 120.0
            },
            {
                "start_time": 112.90681818181818,
                "end_time": 113.39545454545454,
                "pitch": 71,
                "velocity": 32,
                "duration": 0.48863636363635976,
                "tempo": 120.0
            },
            {
                "start_time": 113.44772727272726,
                "end_time": 113.93636363636364,
                "pitch": 69,
                "velocity": 32,
                "duration": 0.48863636363637397,
                "tempo": 120.0
            },
            {
                "start_time": 96.74090909090908,
                "end_time": 113.98863636363636,
                "pitch": 56,
                "velocity": 32,
                "duration": 17.247727272727275,
                "tempo": 120.0
            },
            {
                "start_time": 113.98863636363636,
                "end_time": 114.20227272727273,
                "pitch": 72,
                "velocity": 32,
                "duration": 0.2136363636363683,
                "tempo": 120.0
            },
            {
                "start_time": 98.35454545454544,
                "end_time": 115.0090909090909,
                "pitch": 74,
                "velocity": 32,
                "duration": 16.654545454545456,
                "tempo": 120.0
            },
            {
                "start_time": 114.25454545454545,
                "end_time": 115.0090909090909,
                "pitch": 74,
                "velocity": 32,
                "duration": 0.7545454545454504,
                "tempo": 120.0
            },
            {
                "start_time": 115.06136363636364,
                "end_time": 115.55,
                "pitch": 74,
                "velocity": 32,
                "duration": 0.48863636363635976,
                "tempo": 120.0
            },
            {
                "start_time": 114.25454545454545,
                "end_time": 116.08636363636363,
                "pitch": 72,
                "velocity": 32,
                "duration": 1.8318181818181785,
                "tempo": 120.0
            },
            {
                "start_time": 115.60227272727272,
                "end_time": 116.08636363636363,
                "pitch": 72,
                "velocity": 32,
                "duration": 0.48409090909090935,
                "tempo": 120.0
            },
            {
                "start_time": 103.06590909090909,
                "end_time": 116.13636363636363,
                "pitch": 76,
                "velocity": 32,
                "duration": 13.070454545454538,
                "tempo": 120.0
            },
            {
                "start_time": 116.13636363636363,
                "end_time": 116.625,
                "pitch": 71,
                "velocity": 32,
                "duration": 0.48863636363637397,
                "tempo": 120.0
            },
            {
                "start_time": 116.67727272727272,
                "end_time": 118.23863636363636,
                "pitch": 71,
                "velocity": 32,
                "duration": 1.5613636363636374,
                "tempo": 120.0
            },
            {
                "start_time": 118.29318181818181,
                "end_time": 118.51136363636363,
                "pitch": 71,
                "velocity": 32,
                "duration": 0.2181818181818187,
                "tempo": 120.0
            },
            {
                "start_time": 118.56590909090909,
                "end_time": 119.59090909090908,
                "pitch": 69,
                "velocity": 32,
                "duration": 1.0249999999999915,
                "tempo": 120.0
            },
            {
                "start_time": 119.64318181818182,
                "end_time": 119.85909090909091,
                "pitch": 69,
                "velocity": 32,
                "duration": 0.2159090909090935,
                "tempo": 120.0
            },
            {
                "start_time": 102.66363636363636,
                "end_time": 119.91136363636363,
                "pitch": 44,
                "velocity": 32,
                "duration": 17.247727272727275,
                "tempo": 120.0
            },
            {
                "start_time": 119.91136363636363,
                "end_time": 120.26136363636363,
                "pitch": 72,
                "velocity": 32,
                "duration": 0.3499999999999943,
                "tempo": 120.0
            },
            {
                "start_time": 116.13636363636363,
                "end_time": 120.31363636363636,
                "pitch": 76,
                "velocity": 32,
                "duration": 4.177272727272737,
                "tempo": 120.0
            },
            {
                "start_time": 120.31363636363636,
                "end_time": 120.67045454545453,
                "pitch": 71,
                "velocity": 32,
                "duration": 0.35681818181816993,
                "tempo": 120.0
            },
            {
                "start_time": 120.725,
                "end_time": 120.80681818181817,
                "pitch": 71,
                "velocity": 32,
                "duration": 0.08181818181817846,
                "tempo": 120.0
            },
            {
                "start_time": 120.85681818181817,
                "end_time": 122.55454545454545,
                "pitch": 69,
                "velocity": 32,
                "duration": 1.6977272727272776,
                "tempo": 120.0
            },
            {
                "start_time": 122.60681818181817,
                "end_time": 122.82272727272726,
                "pitch": 69,
                "velocity": 32,
                "duration": 0.2159090909090935,
                "tempo": 120.0
            },
            {
                "start_time": 122.875,
                "end_time": 125.25,
                "pitch": 67,
                "velocity": 32,
                "duration": 2.375,
                "tempo": 120.0
            },
            {
                "start_time": 125.3,
                "end_time": 126.86818181818181,
                "pitch": 67,
                "velocity": 32,
                "duration": 1.568181818181813,
                "tempo": 120.0
            },
            {
                "start_time": 126.92045454545453,
                "end_time": 127.14090909090909,
                "pitch": 69,
                "velocity": 32,
                "duration": 0.22045454545455812,
                "tempo": 120.0
            },
            {
                "start_time": 122.875,
                "end_time": 127.94318181818181,
                "pitch": 71,
                "velocity": 32,
                "duration": 5.068181818181813,
                "tempo": 120.0
            },
            {
                "start_time": 127.19318181818181,
                "end_time": 127.94318181818181,
                "pitch": 71,
                "velocity": 32,
                "duration": 0.75,
                "tempo": 120.0
            },
            {
                "start_time": 127.99545454545454,
                "end_time": 128.48181818181817,
                "pitch": 69,
                "velocity": 32,
                "duration": 0.48636363636363455,
                "tempo": 120.0
            },
            {
                "start_time": 129.075,
                "end_time": 129.56136363636364,
                "pitch": 62,
                "velocity": 32,
                "duration": 0.48636363636364877,
                "tempo": 120.0
            },
            {
                "start_time": 129.61363636363635,
                "end_time": 131.49545454545455,
                "pitch": 62,
                "velocity": 32,
                "duration": 1.881818181818204,
                "tempo": 120.0
            }
        ],
        "Acoustic Bass": [
            {
                "start_time": 0.0022727272727272726,
                "end_time": 0.07954545454545454,
                "pitch": 40,
                "velocity": 64,
                "duration": 0.07727272727272727,
                "tempo": 120.0
            },
            {
                "start_time": 0.12954545454545455,
                "end_time": 0.21363636363636362,
                "pitch": 40,
                "velocity": 64,
                "duration": 0.08409090909090908,
                "tempo": 120.0
            },
            {
                "start_time": 0.2636363636363636,
                "end_time": 0.34545454545454546,
                "pitch": 38,
                "velocity": 64,
                "duration": 0.08181818181818185,
                "tempo": 120.0
            },
            {
                "start_time": 0.2636363636363636,
                "end_time": 0.4795454545454545,
                "pitch": 40,
                "velocity": 64,
                "duration": 0.21590909090909088,
                "tempo": 120.0
            },
            {
                "start_time": 0.3977272727272727,
                "end_time": 0.4795454545454545,
                "pitch": 40,
                "velocity": 64,
                "duration": 0.08181818181818179,
                "tempo": 120.0
            },
            {
                "start_time": 0.8022727272727272,
                "end_time": 1.025,
                "pitch": 43,
                "velocity": 64,
                "duration": 0.22272727272727266,
                "tempo": 120.0
            },
            {
                "start_time": 1.075,
                "end_time": 1.284090909090909,
                "pitch": 43,
                "velocity": 64,
                "duration": 0.209090909090909,
                "tempo": 120.0
            },
            {
                "start_time": 1.334090909090909,
                "end_time": 1.4136363636363636,
                "pitch": 57,
                "velocity": 64,
                "duration": 0.07954545454545459,
                "tempo": 120.0
            },
            {
                "start_time": 1.4636363636363636,
                "end_time": 1.6772727272727272,
                "pitch": 45,
                "velocity": 64,
                "duration": 0.21363636363636362,
                "tempo": 120.0
            },
            {
                "start_time": 1.7272727272727273,
                "end_time": 1.8136363636363635,
                "pitch": 43,
                "velocity": 64,
                "duration": 0.0863636363636362,
                "tempo": 120.0
            },
            {
                "start_time": 1.8636363636363635,
                "end_time": 1.95,
                "pitch": 55,
                "velocity": 64,
                "duration": 0.08636363636363642,
                "tempo": 120.0
            },
            {
                "start_time": 2.0,
                "end_time": 2.0863636363636364,
                "pitch": 45,
                "velocity": 64,
                "duration": 0.08636363636363642,
                "tempo": 120.0
            },
            {
                "start_time": 2.1363636363636362,
                "end_time": 2.2204545454545452,
                "pitch": 40,
                "velocity": 64,
                "duration": 0.084090909090909,
                "tempo": 120.0
            },
            {
                "start_time": 2.2727272727272725,
                "end_time": 2.356818181818182,
                "pitch": 40,
                "velocity": 64,
                "duration": 0.08409090909090944,
                "tempo": 120.0
            },
            {
                "start_time": 0.3977272727272727,
                "end_time": 2.493181818181818,
                "pitch": 38,
                "velocity": 64,
                "duration": 2.0954545454545457,
                "tempo": 120.0
            },
            {
                "start_time": 2.409090909090909,
                "end_time": 2.493181818181818,
                "pitch": 38,
                "velocity": 64,
                "duration": 0.084090909090909,
                "tempo": 120.0
            },
            {
                "start_time": 2.409090909090909,
                "end_time": 2.6295454545454544,
                "pitch": 40,
                "velocity": 64,
                "duration": 0.22045454545454524,
                "tempo": 120.0
            },
            {
                "start_time": 2.5454545454545454,
                "end_time": 2.6295454545454544,
                "pitch": 40,
                "velocity": 64,
                "duration": 0.084090909090909,
                "tempo": 120.0
            },
            {
                "start_time": 0.8022727272727272,
                "end_time": 2.9499999999999997,
                "pitch": 54,
                "velocity": 64,
                "duration": 2.1477272727272725,
                "tempo": 120.0
            },
            {
                "start_time": 2.9499999999999997,
                "end_time": 3.1659090909090906,
                "pitch": 43,
                "velocity": 64,
                "duration": 0.21590909090909083,
                "tempo": 120.0
            },
            {
                "start_time": 3.215909090909091,
                "end_time": 3.434090909090909,
                "pitch": 43,
                "velocity": 64,
                "duration": 0.21818181818181825,
                "tempo": 120.0
            },
            {
                "start_time": 3.484090909090909,
                "end_time": 3.568181818181818,
                "pitch": 57,
                "velocity": 64,
                "duration": 0.084090909090909,
                "tempo": 120.0
            },
            {
                "start_time": 3.618181818181818,
                "end_time": 3.836363636363636,
                "pitch": 45,
                "velocity": 64,
                "duration": 0.2181818181818178,
                "tempo": 120.0
            },
            {
                "start_time": 3.8886363636363637,
                "end_time": 3.9727272727272727,
                "pitch": 43,
                "velocity": 64,
                "duration": 0.084090909090909,
                "tempo": 120.0
            },
            {
                "start_time": 4.0249999999999995,
                "end_time": 4.1090909090909085,
                "pitch": 55,
                "velocity": 64,
                "duration": 0.084090909090909,
                "tempo": 120.0
            },
            {
                "start_time": 4.159090909090909,
                "end_time": 4.245454545454545,
                "pitch": 45,
                "velocity": 64,
                "duration": 0.08636363636363598,
                "tempo": 120.0
            },
            {
                "start_time": 2.1363636363636362,
                "end_time": 4.297727272727273,
                "pitch": 7,
                "velocity": 64,
                "duration": 2.1613636363636366,
                "tempo": 120.0
            },
            {
                "start_time": 4.297727272727273,
                "end_time": 4.379545454545454,
                "pitch": 40,
                "velocity": 64,
                "duration": 0.08181818181818112,
                "tempo": 120.0
            },
            {
                "start_time": 4.429545454545455,
                "end_time": 4.513636363636364,
                "pitch": 40,
                "velocity": 64,
                "duration": 0.084090909090909,
                "tempo": 120.0
            },
            {
                "start_time": 2.5454545454545454,
                "end_time": 4.6477272727272725,
                "pitch": 38,
                "velocity": 64,
                "duration": 2.102272727272727,
                "tempo": 120.0
            },
            {
                "start_time": 4.5636363636363635,
                "end_time": 4.6477272727272725,
                "pitch": 38,
                "velocity": 64,
                "duration": 0.084090909090909,
                "tempo": 120.0
            },
            {
                "start_time": 4.5636363636363635,
                "end_time": 4.781818181818181,
                "pitch": 40,
                "velocity": 64,
                "duration": 0.2181818181818178,
                "tempo": 120.0
            },
            {
                "start_time": 4.697727272727272,
                "end_time": 4.781818181818181,
                "pitch": 40,
                "velocity": 64,
                "duration": 0.084090909090909,
                "tempo": 120.0
            },
            {
                "start_time": 2.9499999999999997,
                "end_time": 5.111363636363636,
                "pitch": 54,
                "velocity": 64,
                "duration": 2.1613636363636366,
                "tempo": 120.0
            },
            {
                "start_time": 5.111363636363636,
                "end_time": 5.340909090909091,
                "pitch": 43,
                "velocity": 64,
                "duration": 0.2295454545454545,
                "tempo": 120.0
            },
            {
                "start_time": 5.3954545454545455,
                "end_time": 5.6,
                "pitch": 43,
                "velocity": 64,
                "duration": 0.20454545454545414,
                "tempo": 120.0
            },
            {
                "start_time": 5.6454545454545455,
                "end_time": 5.725,
                "pitch": 57,
                "velocity": 64,
                "duration": 0.07954545454545414,
                "tempo": 120.0
            },
            {
                "start_time": 5.7727272727272725,
                "end_time": 5.9840909090909085,
                "pitch": 45,
                "velocity": 64,
                "duration": 0.21136363636363598,
                "tempo": 120.0
            },
            {
                "start_time": 6.034090909090909,
                "end_time": 6.118181818181818,
                "pitch": 43,
                "velocity": 64,
                "duration": 0.084090909090909,
                "tempo": 120.0
            },
            {
                "start_time": 6.170454545454545,
                "end_time": 6.254545454545454,
                "pitch": 55,
                "velocity": 64,
                "duration": 0.084090909090909,
                "tempo": 120.0
            },
            {
                "start_time": 6.306818181818182,
                "end_time": 6.390909090909091,
                "pitch": 45,
                "velocity": 64,
                "duration": 0.084090909090909,
                "tempo": 120.0
            },
            {
                "start_time": 4.297727272727273,
                "end_time": 6.4431818181818175,
                "pitch": 7,
                "velocity": 64,
                "duration": 2.1454545454545446,
                "tempo": 120.0
            },
            {
                "start_time": 6.4431818181818175,
                "end_time": 6.527272727272727,
                "pitch": 40,
                "velocity": 64,
                "duration": 0.08409090909090988,
                "tempo": 120.0
            },
            {
                "start_time": 6.579545454545454,
                "end_time": 6.663636363636363,
                "pitch": 40,
                "velocity": 64,
                "duration": 0.084090909090909,
                "tempo": 120.0
            },
            {
                "start_time": 4.697727272727272,
                "end_time": 6.8,
                "pitch": 38,
                "velocity": 64,
                "duration": 2.1022727272727275,
                "tempo": 120.0
            },
            {
                "start_time": 6.715909090909091,
                "end_time": 6.8,
                "pitch": 38,
                "velocity": 64,
                "duration": 0.084090909090909,
                "tempo": 120.0
            },
            {
                "start_time": 6.715909090909091,
                "end_time": 6.936363636363636,
                "pitch": 40,
                "velocity": 64,
                "duration": 0.2204545454545448,
                "tempo": 120.0
            },
            {
                "start_time": 6.852272727272727,
                "end_time": 6.936363636363636,
                "pitch": 40,
                "velocity": 64,
                "duration": 0.084090909090909,
                "tempo": 120.0
            },
            {
                "start_time": 5.111363636363636,
                "end_time": 7.254545454545454,
                "pitch": 54,
                "velocity": 64,
                "duration": 2.1431818181818176,
                "tempo": 120.0
            },
            {
                "start_time": 7.254545454545454,
                "end_time": 7.472727272727273,
                "pitch": 43,
                "velocity": 64,
                "duration": 0.2181818181818187,
                "tempo": 120.0
            },
            {
                "start_time": 7.5227272727272725,
                "end_time": 7.738636363636363,
                "pitch": 43,
                "velocity": 64,
                "duration": 0.21590909090909083,
                "tempo": 120.0
            },
            {
                "start_time": 7.79090909090909,
                "end_time": 7.872727272727272,
                "pitch": 57,
                "velocity": 64,
                "duration": 0.08181818181818201,
                "tempo": 120.0
            },
            {
                "start_time": 7.925,
                "end_time": 8.143181818181818,
                "pitch": 45,
                "velocity": 64,
                "duration": 0.2181818181818178,
                "tempo": 120.0
            },
            {
                "start_time": 8.193181818181818,
                "end_time": 8.279545454545454,
                "pitch": 43,
                "velocity": 64,
                "duration": 0.08636363636363598,
                "tempo": 120.0
            },
            {
                "start_time": 8.329545454545453,
                "end_time": 8.415909090909091,
                "pitch": 55,
                "velocity": 64,
                "duration": 0.08636363636363775,
                "tempo": 120.0
            },
            {
                "start_time": 8.46590909090909,
                "end_time": 8.549999999999999,
                "pitch": 45,
                "velocity": 64,
                "duration": 0.084090909090909,
                "tempo": 120.0
            },
            {
                "start_time": 6.4431818181818175,
                "end_time": 8.602272727272727,
                "pitch": 7,
                "velocity": 64,
                "duration": 2.159090909090909,
                "tempo": 120.0
            },
            {
                "start_time": 8.602272727272727,
                "end_time": 8.686363636363636,
                "pitch": 40,
                "velocity": 64,
                "duration": 0.084090909090909,
                "tempo": 120.0
            },
            {
                "start_time": 8.738636363636363,
                "end_time": 8.822727272727272,
                "pitch": 40,
                "velocity": 64,
                "duration": 0.084090909090909,
                "tempo": 120.0
            },
            {
                "start_time": 6.852272727272727,
                "end_time": 8.959090909090909,
                "pitch": 38,
                "velocity": 64,
                "duration": 2.1068181818181824,
                "tempo": 120.0
            },
            {
                "start_time": 8.875,
                "end_time": 8.959090909090909,
                "pitch": 38,
                "velocity": 64,
                "duration": 0.084090909090909,
                "tempo": 120.0
            },
            {
                "start_time": 8.875,
                "end_time": 9.095454545454546,
                "pitch": 40,
                "velocity": 64,
                "duration": 0.22045454545454568,
                "tempo": 120.0
            },
            {
                "start_time": 9.011363636363637,
                "end_time": 9.095454545454546,
                "pitch": 40,
                "velocity": 64,
                "duration": 0.084090909090909,
                "tempo": 120.0
            },
            {
                "start_time": 7.254545454545454,
                "end_time": 9.424999999999999,
                "pitch": 54,
                "velocity": 64,
                "duration": 2.170454545454545,
                "tempo": 120.0
            },
            {
                "start_time": 9.424999999999999,
                "end_time": 9.65,
                "pitch": 43,
                "velocity": 64,
                "duration": 0.22500000000000142,
                "tempo": 120.0
            },
            {
                "start_time": 9.702272727272726,
                "end_time": 9.911363636363635,
                "pitch": 43,
                "velocity": 64,
                "duration": 0.209090909090909,
                "tempo": 120.0
            },
            {
                "start_time": 9.961363636363636,
                "end_time": 10.040909090909091,
                "pitch": 57,
                "velocity": 64,
                "duration": 0.07954545454545503,
                "tempo": 120.0
            },
            {
                "start_time": 10.088636363636363,
                "end_time": 10.302272727272726,
                "pitch": 45,
                "velocity": 64,
                "duration": 0.21363636363636296,
                "tempo": 120.0
            },
            {
                "start_time": 10.352272727272727,
                "end_time": 10.436363636363636,
                "pitch": 43,
                "velocity": 64,
                "duration": 0.084090909090909,
                "tempo": 120.0
            },
            {
                "start_time": 10.486363636363636,
                "end_time": 10.570454545454545,
                "pitch": 55,
                "velocity": 64,
                "duration": 0.084090909090909,
                "tempo": 120.0
            },
            {
                "start_time": 10.620454545454544,
                "end_time": 10.704545454545453,
                "pitch": 45,
                "velocity": 64,
                "duration": 0.084090909090909,
                "tempo": 120.0
            },
            {
                "start_time": 8.602272727272727,
                "end_time": 10.754545454545454,
                "pitch": 7,
                "velocity": 64,
                "duration": 2.1522727272727273,
                "tempo": 120.0
            },
            {
                "start_time": 10.754545454545454,
                "end_time": 10.838636363636363,
                "pitch": 40,
                "velocity": 64,
                "duration": 0.084090909090909,
                "tempo": 120.0
            },
            {
                "start_time": 10.888636363636364,
                "end_time": 10.975,
                "pitch": 40,
                "velocity": 64,
                "duration": 0.08636363636363598,
                "tempo": 120.0
            },
            {
                "start_time": 9.011363636363637,
                "end_time": 11.111363636363636,
                "pitch": 38,
                "velocity": 64,
                "duration": 2.0999999999999996,
                "tempo": 120.0
            },
            {
                "start_time": 11.024999999999999,
                "end_time": 11.111363636363636,
                "pitch": 38,
                "velocity": 64,
                "duration": 0.08636363636363775,
                "tempo": 120.0
            },
            {
                "start_time": 11.024999999999999,
                "end_time": 11.247727272727273,
                "pitch": 40,
                "velocity": 64,
                "duration": 0.22272727272727444,
                "tempo": 120.0
            },
            {
                "start_time": 11.163636363636362,
                "end_time": 11.247727272727273,
                "pitch": 40,
                "velocity": 64,
                "duration": 0.08409090909091077,
                "tempo": 120.0
            },
            {
                "start_time": 9.424999999999999,
                "end_time": 11.56590909090909,
                "pitch": 54,
                "velocity": 64,
                "duration": 2.1409090909090907,
                "tempo": 120.0
            },
            {
                "start_time": 11.56590909090909,
                "end_time": 11.781818181818181,
                "pitch": 43,
                "velocity": 64,
                "duration": 0.21590909090909172,
                "tempo": 120.0
            },
            {
                "start_time": 11.834090909090909,
                "end_time": 12.049999999999999,
                "pitch": 43,
                "velocity": 64,
                "duration": 0.21590909090908994,
                "tempo": 120.0
            },
            {
                "start_time": 12.1,
                "end_time": 12.184090909090909,
                "pitch": 57,
                "velocity": 64,
                "duration": 0.084090909090909,
                "tempo": 120.0
            },
            {
                "start_time": 12.23409090909091,
                "end_time": 12.454545454545453,
                "pitch": 45,
                "velocity": 64,
                "duration": 0.2204545454545439,
                "tempo": 120.0
            },
            {
                "start_time": 0.0022727272727272726,
                "end_time": 12.64090909090909,
                "pitch": 0,
                "velocity": 64,
                "duration": 12.638636363636364,
                "tempo": 120.0
            },
            {
                "start_time": 11.163636363636362,
                "end_time": 13.129545454545454,
                "pitch": 38,
                "velocity": 64,
                "duration": 1.9659090909090917,
                "tempo": 120.0
            },
            {
                "start_time": 12.64090909090909,
                "end_time": 13.129545454545454,
                "pitch": 38,
                "velocity": 64,
                "duration": 0.4886363636363633,
                "tempo": 120.0
            },
            {
                "start_time": 13.181818181818182,
                "end_time": 13.397727272727272,
                "pitch": 38,
                "velocity": 64,
                "duration": 0.21590909090908994,
                "tempo": 120.0
            },
            {
                "start_time": 13.447727272727272,
                "end_time": 13.670454545454545,
                "pitch": 38,
                "velocity": 64,
                "duration": 0.22272727272727266,
                "tempo": 120.0
            },
            {
                "start_time": 13.720454545454544,
                "end_time": 13.94090909090909,
                "pitch": 38,
                "velocity": 64,
                "duration": 0.22045454545454568,
                "tempo": 120.0
            },
            {
                "start_time": 13.993181818181817,
                "end_time": 14.211363636363636,
                "pitch": 38,
                "velocity": 64,
                "duration": 0.2181818181818187,
                "tempo": 120.0
            },
            {
                "start_time": 14.261363636363635,
                "end_time": 14.477272727272727,
                "pitch": 38,
                "velocity": 64,
                "duration": 0.21590909090909172,
                "tempo": 120.0
            },
            {
                "start_time": 14.529545454545454,
                "end_time": 14.75,
                "pitch": 38,
                "velocity": 64,
                "duration": 0.22045454545454568,
                "tempo": 120.0
            },
            {
                "start_time": 14.799999999999999,
                "end_time": 15.290909090909091,
                "pitch": 38,
                "velocity": 64,
                "duration": 0.49090909090909207,
                "tempo": 120.0
            },
            {
                "start_time": 15.34090909090909,
                "end_time": 15.556818181818182,
                "pitch": 38,
                "velocity": 64,
                "duration": 0.21590909090909172,
                "tempo": 120.0
            },
            {
                "start_time": 15.60681818181818,
                "end_time": 15.829545454545453,
                "pitch": 38,
                "velocity": 64,
                "duration": 0.22272727272727266,
                "tempo": 120.0
            },
            {
                "start_time": 15.879545454545454,
                "end_time": 16.099999999999998,
                "pitch": 38,
                "velocity": 64,
                "duration": 0.2204545454545439,
                "tempo": 120.0
            },
            {
                "start_time": 16.152272727272727,
                "end_time": 16.370454545454546,
                "pitch": 38,
                "velocity": 64,
                "duration": 0.2181818181818187,
                "tempo": 120.0
            },
            {
                "start_time": 16.688636363636363,
                "end_time": 16.772727272727273,
                "pitch": 38,
                "velocity": 64,
                "duration": 0.08409090909091077,
                "tempo": 120.0
            },
            {
                "start_time": 16.82272727272727,
                "end_time": 17.045454545454543,
                "pitch": 38,
                "velocity": 64,
                "duration": 0.22272727272727266,
                "tempo": 120.0
            },
            {
                "start_time": 17.095454545454544,
                "end_time": 17.31590909090909,
                "pitch": 39,
                "velocity": 64,
                "duration": 0.22045454545454746,
                "tempo": 120.0
            },
            {
                "start_time": 17.36590909090909,
                "end_time": 17.45,
                "pitch": 40,
                "velocity": 64,
                "duration": 0.08409090909091077,
                "tempo": 120.0
            },
            {
                "start_time": 17.5,
                "end_time": 17.584090909090907,
                "pitch": 38,
                "velocity": 64,
                "duration": 0.08409090909090722,
                "tempo": 120.0
            },
            {
                "start_time": 17.5,
                "end_time": 17.71818181818182,
                "pitch": 40,
                "velocity": 64,
                "duration": 0.2181818181818187,
                "tempo": 120.0
            },
            {
                "start_time": 17.634090909090908,
                "end_time": 17.71818181818182,
                "pitch": 40,
                "velocity": 64,
                "duration": 0.08409090909091077,
                "tempo": 120.0
            },
            {
                "start_time": 11.56590909090909,
                "end_time": 18.034090909090907,
                "pitch": 54,
                "velocity": 64,
                "duration": 6.468181818181817,
                "tempo": 120.0
            },
            {
                "start_time": 18.034090909090907,
                "end_time": 18.252272727272725,
                "pitch": 43,
                "velocity": 64,
                "duration": 0.2181818181818187,
                "tempo": 120.0
            },
            {
                "start_time": 18.302272727272726,
                "end_time": 18.520454545454545,
                "pitch": 43,
                "velocity": 64,
                "duration": 0.2181818181818187,
                "tempo": 120.0
            },
            {
                "start_time": 18.570454545454545,
                "end_time": 18.654545454545453,
                "pitch": 57,
                "velocity": 64,
                "duration": 0.08409090909090722,
                "tempo": 120.0
            },
            {
                "start_time": 18.704545454545453,
                "end_time": 18.922727272727272,
                "pitch": 45,
                "velocity": 64,
                "duration": 0.2181818181818187,
                "tempo": 120.0
            },
            {
                "start_time": 18.974999999999998,
                "end_time": 19.05909090909091,
                "pitch": 43,
                "velocity": 64,
                "duration": 0.08409090909091077,
                "tempo": 120.0
            },
            {
                "start_time": 19.10909090909091,
                "end_time": 19.195454545454545,
                "pitch": 55,
                "velocity": 64,
                "duration": 0.08636363636363598,
                "tempo": 120.0
            },
            {
                "start_time": 19.245454545454546,
                "end_time": 19.331818181818182,
                "pitch": 45,
                "velocity": 64,
                "duration": 0.08636363636363598,
                "tempo": 120.0
            },
            {
                "start_time": 10.754545454545454,
                "end_time": 19.384090909090908,
                "pitch": 7,
                "velocity": 64,
                "duration": 8.629545454545454,
                "tempo": 120.0
            },
            {
                "start_time": 19.384090909090908,
                "end_time": 19.46590909090909,
                "pitch": 40,
                "velocity": 64,
                "duration": 0.08181818181818201,
                "tempo": 120.0
            },
            {
                "start_time": 19.51590909090909,
                "end_time": 19.599999999999998,
                "pitch": 40,
                "velocity": 64,
                "duration": 0.08409090909090722,
                "tempo": 120.0
            },
            {
                "start_time": 17.634090909090908,
                "end_time": 19.73409090909091,
                "pitch": 38,
                "velocity": 64,
                "duration": 2.1000000000000014,
                "tempo": 120.0
            },
            {
                "start_time": 19.65,
                "end_time": 19.73409090909091,
                "pitch": 38,
                "velocity": 64,
                "duration": 0.08409090909091077,
                "tempo": 120.0
            },
            {
                "start_time": 19.65,
                "end_time": 19.868181818181817,
                "pitch": 40,
                "velocity": 64,
                "duration": 0.2181818181818187,
                "tempo": 120.0
            },
            {
                "start_time": 19.784090909090907,
                "end_time": 19.868181818181817,
                "pitch": 40,
                "velocity": 64,
                "duration": 0.08409090909091077,
                "tempo": 120.0
            },
            {
                "start_time": 18.034090909090907,
                "end_time": 20.19090909090909,
                "pitch": 54,
                "velocity": 64,
                "duration": 2.156818181818185,
                "tempo": 120.0
            },
            {
                "start_time": 20.19090909090909,
                "end_time": 20.411363636363635,
                "pitch": 43,
                "velocity": 64,
                "duration": 0.2204545454545439,
                "tempo": 120.0
            },
            {
                "start_time": 20.46363636363636,
                "end_time": 20.679545454545455,
                "pitch": 43,
                "velocity": 64,
                "duration": 0.2159090909090935,
                "tempo": 120.0
            },
            {
                "start_time": 20.729545454545452,
                "end_time": 20.813636363636363,
                "pitch": 57,
                "velocity": 64,
                "duration": 0.08409090909091077,
                "tempo": 120.0
            },
            {
                "start_time": 20.863636363636363,
                "end_time": 21.079545454545453,
                "pitch": 45,
                "velocity": 64,
                "duration": 0.21590909090908994,
                "tempo": 120.0
            },
            {
                "start_time": 21.13181818181818,
                "end_time": 21.21363636363636,
                "pitch": 43,
                "velocity": 64,
                "duration": 0.08181818181818201,
                "tempo": 120.0
            },
            {
                "start_time": 21.26590909090909,
                "end_time": 21.347727272727273,
                "pitch": 55,
                "velocity": 64,
                "duration": 0.08181818181818201,
                "tempo": 120.0
            },
            {
                "start_time": 21.397727272727273,
                "end_time": 21.48181818181818,
                "pitch": 45,
                "velocity": 64,
                "duration": 0.08409090909090722,
                "tempo": 120.0
            },
            {
                "start_time": 19.384090909090908,
                "end_time": 21.534090909090907,
                "pitch": 7,
                "velocity": 64,
                "duration": 2.1499999999999986,
                "tempo": 120.0
            },
            {
                "start_time": 21.534090909090907,
                "end_time": 21.618181818181817,
                "pitch": 40,
                "velocity": 64,
                "duration": 0.08409090909091077,
                "tempo": 120.0
            },
            {
                "start_time": 21.668181818181818,
                "end_time": 21.752272727272725,
                "pitch": 40,
                "velocity": 64,
                "duration": 0.08409090909090722,
                "tempo": 120.0
            },
            {
                "start_time": 19.784090909090907,
                "end_time": 21.888636363636362,
                "pitch": 38,
                "velocity": 64,
                "duration": 2.1045454545454554,
                "tempo": 120.0
            },
            {
                "start_time": 21.804545454545455,
                "end_time": 21.888636363636362,
                "pitch": 38,
                "velocity": 64,
                "duration": 0.08409090909090722,
                "tempo": 120.0
            },
            {
                "start_time": 21.804545454545455,
                "end_time": 22.025,
                "pitch": 40,
                "velocity": 64,
                "duration": 0.2204545454545439,
                "tempo": 120.0
            },
            {
                "start_time": 21.94090909090909,
                "end_time": 22.025,
                "pitch": 40,
                "velocity": 64,
                "duration": 0.08409090909090722,
                "tempo": 120.0
            },
            {
                "start_time": 20.19090909090909,
                "end_time": 22.345454545454544,
                "pitch": 54,
                "velocity": 64,
                "duration": 2.1545454545454525,
                "tempo": 120.0
            },
            {
                "start_time": 22.345454545454544,
                "end_time": 22.561363636363634,
                "pitch": 43,
                "velocity": 64,
                "duration": 0.21590909090908994,
                "tempo": 120.0
            },
            {
                "start_time": 22.613636363636363,
                "end_time": 22.831818181818182,
                "pitch": 43,
                "velocity": 64,
                "duration": 0.2181818181818187,
                "tempo": 120.0
            },
            {
                "start_time": 22.884090909090908,
                "end_time": 22.96818181818182,
                "pitch": 57,
                "velocity": 64,
                "duration": 0.08409090909091077,
                "tempo": 120.0
            },
            {
                "start_time": 23.020454545454545,
                "end_time": 23.24090909090909,
                "pitch": 45,
                "velocity": 64,
                "duration": 0.2204545454545439,
                "tempo": 120.0
            },
            {
                "start_time": 23.29090909090909,
                "end_time": 23.375,
                "pitch": 43,
                "velocity": 64,
                "duration": 0.08409090909091077,
                "tempo": 120.0
            },
            {
                "start_time": 23.424999999999997,
                "end_time": 23.50681818181818,
                "pitch": 55,
                "velocity": 64,
                "duration": 0.08181818181818201,
                "tempo": 120.0
            },
            {
                "start_time": 23.55909090909091,
                "end_time": 23.64090909090909,
                "pitch": 45,
                "velocity": 64,
                "duration": 0.08181818181818201,
                "tempo": 120.0
            },
            {
                "start_time": 21.534090909090907,
                "end_time": 23.693181818181817,
                "pitch": 7,
                "velocity": 64,
                "duration": 2.15909090909091,
                "tempo": 120.0
            },
            {
                "start_time": 23.693181818181817,
                "end_time": 23.777272727272727,
                "pitch": 40,
                "velocity": 64,
                "duration": 0.08409090909091077,
                "tempo": 120.0
            },
            {
                "start_time": 23.96363636363636,
                "end_time": 24.049999999999997,
                "pitch": 40,
                "velocity": 64,
                "duration": 0.08636363636363598,
                "tempo": 120.0
            },
            {
                "start_time": 24.236363636363635,
                "end_time": 24.320454545454545,
                "pitch": 40,
                "velocity": 64,
                "duration": 0.08409090909091077,
                "tempo": 120.0
            },
            {
                "start_time": 24.504545454545454,
                "end_time": 24.58863636363636,
                "pitch": 40,
                "velocity": 64,
                "duration": 0.08409090909090722,
                "tempo": 120.0
            },
            {
                "start_time": 24.77272727272727,
                "end_time": 24.854545454545452,
                "pitch": 40,
                "velocity": 64,
                "duration": 0.08181818181818201,
                "tempo": 120.0
            },
            {
                "start_time": 25.84318181818182,
                "end_time": 25.927272727272726,
                "pitch": 40,
                "velocity": 64,
                "duration": 0.08409090909090722,
                "tempo": 120.0
            },
            {
                "start_time": 25.977272727272727,
                "end_time": 26.063636363636363,
                "pitch": 40,
                "velocity": 64,
                "duration": 0.08636363636363598,
                "tempo": 120.0
            },
            {
                "start_time": 21.94090909090909,
                "end_time": 26.2,
                "pitch": 38,
                "velocity": 64,
                "duration": 4.259090909090908,
                "tempo": 120.0
            },
            {
                "start_time": 26.113636363636363,
                "end_time": 26.2,
                "pitch": 38,
                "velocity": 64,
                "duration": 0.08636363636363598,
                "tempo": 120.0
            },
            {
                "start_time": 26.113636363636363,
                "end_time": 26.470454545454544,
                "pitch": 40,
                "velocity": 64,
                "duration": 0.3568181818181806,
                "tempo": 120.0
            },
            {
                "start_time": 26.386363636363637,
                "end_time": 26.470454545454544,
                "pitch": 40,
                "velocity": 64,
                "duration": 0.08409090909090722,
                "tempo": 120.0
            },
            {
                "start_time": 22.345454545454544,
                "end_time": 26.654545454545453,
                "pitch": 54,
                "velocity": 64,
                "duration": 4.309090909090909,
                "tempo": 120.0
            },
            {
                "start_time": 26.654545454545453,
                "end_time": 26.870454545454542,
                "pitch": 43,
                "velocity": 64,
                "duration": 0.21590909090908994,
                "tempo": 120.0
            },
            {
                "start_time": 26.922727272727272,
                "end_time": 27.00681818181818,
                "pitch": 43,
                "velocity": 64,
                "duration": 0.08409090909090722,
                "tempo": 120.0
            },
            {
                "start_time": 27.46590909090909,
                "end_time": 27.549999999999997,
                "pitch": 45,
                "velocity": 64,
                "duration": 0.08409090909090722,
                "tempo": 120.0
            },
            {
                "start_time": 27.599999999999998,
                "end_time": 27.95,
                "pitch": 43,
                "velocity": 64,
                "duration": 0.3500000000000014,
                "tempo": 120.0
            },
            {
                "start_time": 23.693181818181817,
                "end_time": 28.002272727272725,
                "pitch": 7,
                "velocity": 64,
                "duration": 4.309090909090909,
                "tempo": 120.0
            },
            {
                "start_time": 28.002272727272725,
                "end_time": 28.086363636363636,
                "pitch": 40,
                "velocity": 64,
                "duration": 0.08409090909091077,
                "tempo": 120.0
            },
            {
                "start_time": 28.138636363636362,
                "end_time": 28.222727272727273,
                "pitch": 40,
                "velocity": 64,
                "duration": 0.08409090909091077,
                "tempo": 120.0
            },
            {
                "start_time": 26.386363636363637,
                "end_time": 28.35909090909091,
                "pitch": 38,
                "velocity": 64,
                "duration": 1.9727272727272727,
                "tempo": 120.0
            },
            {
                "start_time": 28.275,
                "end_time": 28.35909090909091,
                "pitch": 38,
                "velocity": 64,
                "duration": 0.08409090909091077,
                "tempo": 120.0
            },
            {
                "start_time": 28.545454545454543,
                "end_time": 28.547727272727272,
                "pitch": 38,
                "velocity": 64,
                "duration": 0.0022727272727287584,
                "tempo": 120.0
            },
            {
                "start_time": 28.275,
                "end_time": 28.629545454545454,
                "pitch": 40,
                "velocity": 64,
                "duration": 0.3545454545454554,
                "tempo": 120.0
            },
            {
                "start_time": 28.547727272727272,
                "end_time": 28.629545454545454,
                "pitch": 40,
                "velocity": 64,
                "duration": 0.08181818181818201,
                "tempo": 120.0
            },
            {
                "start_time": 26.654545454545453,
                "end_time": 28.813636363636363,
                "pitch": 54,
                "velocity": 64,
                "duration": 2.15909090909091,
                "tempo": 120.0
            },
            {
                "start_time": 28.813636363636363,
                "end_time": 29.03181818181818,
                "pitch": 43,
                "velocity": 64,
                "duration": 0.2181818181818187,
                "tempo": 120.0
            },
            {
                "start_time": 29.081818181818182,
                "end_time": 29.16363636363636,
                "pitch": 47,
                "velocity": 64,
                "duration": 0.08181818181817846,
                "tempo": 120.0
            },
            {
                "start_time": 29.081818181818182,
                "end_time": 29.43181818181818,
                "pitch": 43,
                "velocity": 64,
                "duration": 0.34999999999999787,
                "tempo": 120.0
            },
            {
                "start_time": 29.347727272727273,
                "end_time": 29.43181818181818,
                "pitch": 43,
                "velocity": 64,
                "duration": 0.08409090909090722,
                "tempo": 120.0
            },
            {
                "start_time": 29.61590909090909,
                "end_time": 29.7,
                "pitch": 43,
                "velocity": 64,
                "duration": 0.08409090909091077,
                "tempo": 120.0
            },
            {
                "start_time": 29.752272727272725,
                "end_time": 30.10909090909091,
                "pitch": 45,
                "velocity": 64,
                "duration": 0.35681818181818414,
                "tempo": 120.0
            },
            {
                "start_time": 12.64090909090909,
                "end_time": 30.161363636363635,
                "pitch": 0,
                "velocity": 64,
                "duration": 17.520454545454545,
                "tempo": 120.0
            },
            {
                "start_time": 30.161363636363635,
                "end_time": 30.245454545454542,
                "pitch": 38,
                "velocity": 64,
                "duration": 0.08409090909090722,
                "tempo": 120.0
            },
            {
                "start_time": 30.297727272727272,
                "end_time": 30.38181818181818,
                "pitch": 38,
                "velocity": 64,
                "duration": 0.08409090909090722,
                "tempo": 120.0
            },
            {
                "start_time": 30.43409090909091,
                "end_time": 30.518181818181816,
                "pitch": 33,
                "velocity": 64,
                "duration": 0.08409090909090722,
                "tempo": 120.0
            },
            {
                "start_time": 28.002272727272725,
                "end_time": 30.706818181818182,
                "pitch": 7,
                "velocity": 64,
                "duration": 2.704545454545457,
                "tempo": 120.0
            },
            {
                "start_time": 30.706818181818182,
                "end_time": 30.78863636363636,
                "pitch": 38,
                "velocity": 64,
                "duration": 0.08181818181817846,
                "tempo": 120.0
            },
            {
                "start_time": 30.972727272727273,
                "end_time": 31.05681818181818,
                "pitch": 40,
                "velocity": 64,
                "duration": 0.08409090909090722,
                "tempo": 120.0
            },
            {
                "start_time": 31.24090909090909,
                "end_time": 31.325,
                "pitch": 40,
                "velocity": 64,
                "duration": 0.08409090909091077,
                "tempo": 120.0
            },
            {
                "start_time": 31.777272727272727,
                "end_time": 31.861363636363635,
                "pitch": 42,
                "velocity": 64,
                "duration": 0.08409090909090722,
                "tempo": 120.0
            },
            {
                "start_time": 31.911363636363635,
                "end_time": 32.268181818181816,
                "pitch": 40,
                "velocity": 64,
                "duration": 0.3568181818181806,
                "tempo": 120.0
            },
            {
                "start_time": 30.972727272727273,
                "end_time": 32.404545454545456,
                "pitch": 38,
                "velocity": 64,
                "duration": 1.4318181818181834,
                "tempo": 120.0
            },
            {
                "start_time": 32.320454545454545,
                "end_time": 32.404545454545456,
                "pitch": 38,
                "velocity": 64,
                "duration": 0.08409090909091077,
                "tempo": 120.0
            },
            {
                "start_time": 32.45454545454545,
                "end_time": 32.538636363636364,
                "pitch": 38,
                "velocity": 64,
                "duration": 0.08409090909091077,
                "tempo": 120.0
            },
            {
                "start_time": 30.43409090909091,
                "end_time": 32.58863636363636,
                "pitch": 41,
                "velocity": 64,
                "duration": 2.1545454545454525,
                "tempo": 120.0
            },
            {
                "start_time": 32.58863636363636,
                "end_time": 32.67272727272727,
                "pitch": 33,
                "velocity": 64,
                "duration": 0.08409090909091077,
                "tempo": 120.0
            },
            {
                "start_time": 30.706818181818182,
                "end_time": 32.85681818181818,
                "pitch": 7,
                "velocity": 64,
                "duration": 2.149999999999995,
                "tempo": 120.0
            },
            {
                "start_time": 32.85681818181818,
                "end_time": 32.93863636363636,
                "pitch": 38,
                "velocity": 64,
                "duration": 0.08181818181818556,
                "tempo": 120.0
            },
            {
                "start_time": 33.12272727272727,
                "end_time": 33.20681818181818,
                "pitch": 40,
                "velocity": 64,
                "duration": 0.08409090909091077,
                "tempo": 120.0
            },
            {
                "start_time": 33.39090909090909,
                "end_time": 33.475,
                "pitch": 40,
                "velocity": 64,
                "duration": 0.08409090909091077,
                "tempo": 120.0
            },
            {
                "start_time": 28.813636363636363,
                "end_time": 33.93636363636364,
                "pitch": 54,
                "velocity": 64,
                "duration": 5.122727272727275,
                "tempo": 120.0
            },
            {
                "start_time": 33.93636363636364,
                "end_time": 34.018181818181816,
                "pitch": 43,
                "velocity": 64,
                "duration": 0.08181818181817846,
                "tempo": 120.0
            },
            {
                "start_time": 30.161363636363635,
                "end_time": 34.070454545454545,
                "pitch": 0,
                "velocity": 64,
                "duration": 3.90909090909091,
                "tempo": 120.0
            },
            {
                "start_time": 32.320454545454545,
                "end_time": 34.28636363636363,
                "pitch": 42,
                "velocity": 64,
                "duration": 1.9659090909090864,
                "tempo": 120.0
            },
            {
                "start_time": 34.070454545454545,
                "end_time": 34.28636363636363,
                "pitch": 42,
                "velocity": 64,
                "duration": 0.2159090909090864,
                "tempo": 120.0
            },
            {
                "start_time": 33.12272727272727,
                "end_time": 34.42045454545455,
                "pitch": 38,
                "velocity": 64,
                "duration": 1.297727272727279,
                "tempo": 120.0
            },
            {
                "start_time": 34.336363636363636,
                "end_time": 34.42045454545455,
                "pitch": 38,
                "velocity": 64,
                "duration": 0.08409090909091077,
                "tempo": 120.0
            },
            {
                "start_time": 34.470454545454544,
                "end_time": 34.554545454545455,
                "pitch": 40,
                "velocity": 64,
                "duration": 0.08409090909091077,
                "tempo": 120.0
            },
            {
                "start_time": 34.60681818181818,
                "end_time": 34.69090909090909,
                "pitch": 40,
                "velocity": 64,
                "duration": 0.08409090909091077,
                "tempo": 120.0
            },
            {
                "start_time": 34.470454545454544,
                "end_time": 34.82727272727273,
                "pitch": 38,
                "velocity": 64,
                "duration": 0.35681818181818414,
                "tempo": 120.0
            },
            {
                "start_time": 34.74318181818182,
                "end_time": 34.82727272727273,
                "pitch": 38,
                "velocity": 64,
                "duration": 0.08409090909091077,
                "tempo": 120.0
            },
            {
                "start_time": 34.74318181818182,
                "end_time": 35.09772727272727,
                "pitch": 40,
                "velocity": 64,
                "duration": 0.35454545454545183,
                "tempo": 120.0
            },
            {
                "start_time": 35.01590909090909,
                "end_time": 35.09772727272727,
                "pitch": 40,
                "velocity": 64,
                "duration": 0.08181818181817846,
                "tempo": 120.0
            },
            {
                "start_time": 33.93636363636364,
                "end_time": 35.28409090909091,
                "pitch": 54,
                "velocity": 64,
                "duration": 1.347727272727269,
                "tempo": 120.0
            },
            {
                "start_time": 35.28409090909091,
                "end_time": 35.5,
                "pitch": 43,
                "velocity": 64,
                "duration": 0.2159090909090935,
                "tempo": 120.0
            },
            {
                "start_time": 35.55227272727272,
                "end_time": 35.63409090909091,
                "pitch": 43,
                "velocity": 64,
                "duration": 0.08181818181818556,
                "tempo": 120.0
            },
            {
                "start_time": 36.086363636363636,
                "end_time": 36.17045454545455,
                "pitch": 45,
                "velocity": 64,
                "duration": 0.08409090909091077,
                "tempo": 120.0
            },
            {
                "start_time": 36.22272727272727,
                "end_time": 36.57954545454545,
                "pitch": 43,
                "velocity": 64,
                "duration": 0.35681818181818414,
                "tempo": 120.0
            },
            {
                "start_time": 32.85681818181818,
                "end_time": 36.62954545454545,
                "pitch": 7,
                "velocity": 64,
                "duration": 3.7727272727272734,
                "tempo": 120.0
            },
            {
                "start_time": 36.62954545454545,
                "end_time": 36.715909090909086,
                "pitch": 40,
                "velocity": 64,
                "duration": 0.08636363636363598,
                "tempo": 120.0
            },
            {
                "start_time": 36.76590909090909,
                "end_time": 36.85227272727273,
                "pitch": 40,
                "velocity": 64,
                "duration": 0.08636363636363598,
                "tempo": 120.0
            },
            {
                "start_time": 35.01590909090909,
                "end_time": 36.986363636363635,
                "pitch": 38,
                "velocity": 64,
                "duration": 1.970454545454544,
                "tempo": 120.0
            },
            {
                "start_time": 36.902272727272724,
                "end_time": 36.986363636363635,
                "pitch": 38,
                "velocity": 64,
                "duration": 0.08409090909091077,
                "tempo": 120.0
            },
            {
                "start_time": 36.902272727272724,
                "end_time": 37.25681818181818,
                "pitch": 40,
                "velocity": 64,
                "duration": 0.35454545454545894,
                "tempo": 120.0
            },
            {
                "start_time": 37.175,
                "end_time": 37.25681818181818,
                "pitch": 40,
                "velocity": 64,
                "duration": 0.08181818181818556,
                "tempo": 120.0
            },
            {
                "start_time": 35.28409090909091,
                "end_time": 37.43863636363636,
                "pitch": 54,
                "velocity": 64,
                "duration": 2.154545454545456,
                "tempo": 120.0
            },
            {
                "start_time": 37.43863636363636,
                "end_time": 37.652272727272724,
                "pitch": 43,
                "velocity": 64,
                "duration": 0.21363636363636118,
                "tempo": 120.0
            },
            {
                "start_time": 29.347727272727273,
                "end_time": 37.78636363636363,
                "pitch": 47,
                "velocity": 64,
                "duration": 8.438636363636359,
                "tempo": 120.0
            },
            {
                "start_time": 37.70227272727273,
                "end_time": 37.78636363636363,
                "pitch": 47,
                "velocity": 64,
                "duration": 0.08409090909090366,
                "tempo": 120.0
            },
            {
                "start_time": 37.70227272727273,
                "end_time": 38.05681818181818,
                "pitch": 43,
                "velocity": 64,
                "duration": 0.35454545454545183,
                "tempo": 120.0
            },
            {
                "start_time": 37.97272727272727,
                "end_time": 38.05681818181818,
                "pitch": 43,
                "velocity": 64,
                "duration": 0.08409090909091077,
                "tempo": 120.0
            },
            {
                "start_time": 38.24545454545454,
                "end_time": 38.32954545454545,
                "pitch": 43,
                "velocity": 64,
                "duration": 0.08409090909091077,
                "tempo": 120.0
            },
            {
                "start_time": 38.38181818181818,
                "end_time": 38.73863636363636,
                "pitch": 45,
                "velocity": 64,
                "duration": 0.35681818181817704,
                "tempo": 120.0
            },
            {
                "start_time": 34.070454545454545,
                "end_time": 38.79090909090909,
                "pitch": 0,
                "velocity": 64,
                "duration": 4.720454545454544,
                "tempo": 120.0
            },
            {
                "start_time": 37.175,
                "end_time": 38.87272727272727,
                "pitch": 38,
                "velocity": 64,
                "duration": 1.6977272727272705,
                "tempo": 120.0
            },
            {
                "start_time": 38.79090909090909,
                "end_time": 38.87272727272727,
                "pitch": 38,
                "velocity": 64,
                "duration": 0.08181818181817846,
                "tempo": 120.0
            },
            {
                "start_time": 38.925,
                "end_time": 39.00681818181818,
                "pitch": 38,
                "velocity": 64,
                "duration": 0.08181818181818556,
                "tempo": 120.0
            },
            {
                "start_time": 32.58863636363636,
                "end_time": 39.05681818181818,
                "pitch": 41,
                "velocity": 64,
                "duration": 6.468181818181819,
                "tempo": 120.0
            },
            {
                "start_time": 39.05681818181818,
                "end_time": 39.14090909090909,
                "pitch": 33,
                "velocity": 64,
                "duration": 0.08409090909091077,
                "tempo": 120.0
            },
            {
                "start_time": 36.62954545454545,
                "end_time": 39.324999999999996,
                "pitch": 7,
                "velocity": 64,
                "duration": 2.6954545454545453,
                "tempo": 120.0
            },
            {
                "start_time": 39.324999999999996,
                "end_time": 39.40909090909091,
                "pitch": 38,
                "velocity": 64,
                "duration": 0.08409090909091077,
                "tempo": 120.0
            },
            {
                "start_time": 39.59318181818182,
                "end_time": 39.67727272727272,
                "pitch": 40,
                "velocity": 64,
                "duration": 0.08409090909090366,
                "tempo": 120.0
            },
            {
                "start_time": 39.861363636363635,
                "end_time": 39.945454545454545,
                "pitch": 40,
                "velocity": 64,
                "duration": 0.08409090909091077,
                "tempo": 120.0
            },
            {
                "start_time": 34.336363636363636,
                "end_time": 40.48863636363636,
                "pitch": 42,
                "velocity": 64,
                "duration": 6.152272727272724,
                "tempo": 120.0
            },
            {
                "start_time": 40.404545454545456,
                "end_time": 40.48863636363636,
                "pitch": 42,
                "velocity": 64,
                "duration": 0.08409090909090366,
                "tempo": 120.0
            },
            {
                "start_time": 40.538636363636364,
                "end_time": 40.89090909090909,
                "pitch": 40,
                "velocity": 64,
                "duration": 0.3522727272727266,
                "tempo": 120.0
            },
            {
                "start_time": 39.59318181818182,
                "end_time": 41.025,
                "pitch": 38,
                "velocity": 64,
                "duration": 1.4318181818181799,
                "tempo": 120.0
            },
            {
                "start_time": 40.94090909090909,
                "end_time": 41.025,
                "pitch": 38,
                "velocity": 64,
                "duration": 0.08409090909091077,
                "tempo": 120.0
            },
            {
                "start_time": 41.07727272727273,
                "end_time": 41.16136363636363,
                "pitch": 38,
                "velocity": 64,
                "duration": 0.08409090909090366,
                "tempo": 120.0
            },
            {
                "start_time": 39.05681818181818,
                "end_time": 41.21363636363636,
                "pitch": 41,
                "velocity": 64,
                "duration": 2.1568181818181813,
                "tempo": 120.0
            },
            {
                "start_time": 41.21363636363636,
                "end_time": 41.29772727272727,
                "pitch": 33,
                "velocity": 64,
                "duration": 0.08409090909091077,
                "tempo": 120.0
            },
            {
                "start_time": 39.324999999999996,
                "end_time": 41.486363636363635,
                "pitch": 7,
                "velocity": 64,
                "duration": 2.161363636363639,
                "tempo": 120.0
            },
            {
                "start_time": 41.486363636363635,
                "end_time": 41.56818181818181,
                "pitch": 38,
                "velocity": 64,
                "duration": 0.08181818181817846,
                "tempo": 120.0
            },
            {
                "start_time": 41.752272727272725,
                "end_time": 41.836363636363636,
                "pitch": 40,
                "velocity": 64,
                "duration": 0.08409090909091077,
                "tempo": 120.0
            },
            {
                "start_time": 42.02045454545454,
                "end_time": 42.10227272727273,
                "pitch": 40,
                "velocity": 64,
                "duration": 0.08181818181818556,
                "tempo": 120.0
            },
            {
                "start_time": 37.43863636363636,
                "end_time": 42.55681818181818,
                "pitch": 54,
                "velocity": 64,
                "duration": 5.118181818181817,
                "tempo": 120.0
            },
            {
                "start_time": 42.55681818181818,
                "end_time": 42.64090909090909,
                "pitch": 43,
                "velocity": 64,
                "duration": 0.08409090909091077,
                "tempo": 120.0
            },
            {
                "start_time": 38.79090909090909,
                "end_time": 42.69090909090909,
                "pitch": 0,
                "velocity": 64,
                "duration": 3.8999999999999986,
                "tempo": 120.0
            },
            {
                "start_time": 40.94090909090909,
                "end_time": 42.91136363636363,
                "pitch": 42,
                "velocity": 64,
                "duration": 1.970454545454544,
                "tempo": 120.0
            },
            {
                "start_time": 42.69090909090909,
                "end_time": 42.91136363636363,
                "pitch": 42,
                "velocity": 64,
                "duration": 0.2204545454545439,
                "tempo": 120.0
            },
            {
                "start_time": 41.752272727272725,
                "end_time": 43.04772727272727,
                "pitch": 38,
                "velocity": 64,
                "duration": 1.2954545454545467,
                "tempo": 120.0
            },
            {
                "start_time": 42.96363636363636,
                "end_time": 43.04772727272727,
                "pitch": 38,
                "velocity": 64,
                "duration": 0.08409090909091077,
                "tempo": 120.0
            },
            {
                "start_time": 43.1,
                "end_time": 43.320454545454545,
                "pitch": 36,
                "velocity": 64,
                "duration": 0.2204545454545439,
                "tempo": 120.0
            },
            {
                "start_time": 43.37272727272727,
                "end_time": 43.59318181818182,
                "pitch": 36,
                "velocity": 64,
                "duration": 0.220454545454551,
                "tempo": 120.0
            },
            {
                "start_time": 43.64545454545454,
                "end_time": 43.861363636363635,
                "pitch": 36,
                "velocity": 64,
                "duration": 0.2159090909090935,
                "tempo": 120.0
            },
            {
                "start_time": 43.913636363636364,
                "end_time": 44.12954545454545,
                "pitch": 36,
                "velocity": 64,
                "duration": 0.2159090909090864,
                "tempo": 120.0
            },
            {
                "start_time": 44.179545454545455,
                "end_time": 44.4,
                "pitch": 36,
                "velocity": 64,
                "duration": 0.2204545454545439,
                "tempo": 120.0
            },
            {
                "start_time": 44.45227272727273,
                "end_time": 44.67272727272727,
                "pitch": 36,
                "velocity": 64,
                "duration": 0.2204545454545439,
                "tempo": 120.0
            },
            {
                "start_time": 44.724999999999994,
                "end_time": 44.94090909090909,
                "pitch": 36,
                "velocity": 64,
                "duration": 0.2159090909090935,
                "tempo": 120.0
            },
            {
                "start_time": 44.99318181818182,
                "end_time": 45.47727272727273,
                "pitch": 36,
                "velocity": 64,
                "duration": 0.48409090909090935,
                "tempo": 120.0
            },
            {
                "start_time": 45.527272727272724,
                "end_time": 45.74318181818182,
                "pitch": 36,
                "velocity": 64,
                "duration": 0.2159090909090935,
                "tempo": 120.0
            },
            {
                "start_time": 45.79545454545455,
                "end_time": 46.01136363636363,
                "pitch": 36,
                "velocity": 64,
                "duration": 0.2159090909090864,
                "tempo": 120.0
            },
            {
                "start_time": 46.06363636363636,
                "end_time": 46.27954545454545,
                "pitch": 36,
                "velocity": 64,
                "duration": 0.2159090909090864,
                "tempo": 120.0
            },
            {
                "start_time": 46.32954545454545,
                "end_time": 46.55,
                "pitch": 36,
                "velocity": 64,
                "duration": 0.2204545454545439,
                "tempo": 120.0
            },
            {
                "start_time": 46.60227272727273,
                "end_time": 46.82272727272727,
                "pitch": 36,
                "velocity": 64,
                "duration": 0.2204545454545439,
                "tempo": 120.0
            },
            {
                "start_time": 46.875,
                "end_time": 47.090909090909086,
                "pitch": 36,
                "velocity": 64,
                "duration": 0.2159090909090864,
                "tempo": 120.0
            },
            {
                "start_time": 47.143181818181816,
                "end_time": 47.62954545454545,
                "pitch": 40,
                "velocity": 64,
                "duration": 0.48636363636363455,
                "tempo": 120.0
            },
            {
                "start_time": 47.68181818181818,
                "end_time": 47.902272727272724,
                "pitch": 40,
                "velocity": 64,
                "duration": 0.2204545454545439,
                "tempo": 120.0
            },
            {
                "start_time": 47.95454545454545,
                "end_time": 48.17045454545454,
                "pitch": 40,
                "velocity": 64,
                "duration": 0.2159090909090864,
                "tempo": 120.0
            },
            {
                "start_time": 48.22272727272727,
                "end_time": 48.43863636363636,
                "pitch": 40,
                "velocity": 64,
                "duration": 0.2159090909090935,
                "tempo": 120.0
            },
            {
                "start_time": 48.49090909090909,
                "end_time": 48.709090909090904,
                "pitch": 40,
                "velocity": 64,
                "duration": 0.2181818181818116,
                "tempo": 120.0
            },
            {
                "start_time": 48.76136363636363,
                "end_time": 48.98181818181818,
                "pitch": 40,
                "velocity": 64,
                "duration": 0.2204545454545439,
                "tempo": 120.0
            },
            {
                "start_time": 49.03409090909091,
                "end_time": 49.252272727272725,
                "pitch": 40,
                "velocity": 64,
                "duration": 0.2181818181818187,
                "tempo": 120.0
            },
            {
                "start_time": 49.30227272727272,
                "end_time": 49.78636363636363,
                "pitch": 40,
                "velocity": 64,
                "duration": 0.48409090909090935,
                "tempo": 120.0
            },
            {
                "start_time": 49.836363636363636,
                "end_time": 50.054545454545455,
                "pitch": 40,
                "velocity": 64,
                "duration": 0.2181818181818187,
                "tempo": 120.0
            },
            {
                "start_time": 50.10454545454545,
                "end_time": 50.320454545454545,
                "pitch": 40,
                "velocity": 64,
                "duration": 0.2159090909090935,
                "tempo": 120.0
            },
            {
                "start_time": 50.37272727272727,
                "end_time": 50.58863636363636,
                "pitch": 40,
                "velocity": 64,
                "duration": 0.2159090909090935,
                "tempo": 120.0
            },
            {
                "start_time": 50.64090909090909,
                "end_time": 50.861363636363635,
                "pitch": 40,
                "velocity": 64,
                "duration": 0.2204545454545439,
                "tempo": 120.0
            },
            {
                "start_time": 50.91136363636363,
                "end_time": 51.13181818181818,
                "pitch": 40,
                "velocity": 64,
                "duration": 0.220454545454551,
                "tempo": 120.0
            },
            {
                "start_time": 43.1,
                "end_time": 51.40454545454545,
                "pitch": 38,
                "velocity": 64,
                "duration": 8.304545454545448,
                "tempo": 120.0
            },
            {
                "start_time": 51.184090909090905,
                "end_time": 51.40454545454545,
                "pitch": 38,
                "velocity": 64,
                "duration": 0.2204545454545439,
                "tempo": 120.0
            },
            {
                "start_time": 47.143181818181816,
                "end_time": 51.945454545454545,
                "pitch": 36,
                "velocity": 64,
                "duration": 4.8022727272727295,
                "tempo": 120.0
            },
            {
                "start_time": 51.45681818181818,
                "end_time": 51.945454545454545,
                "pitch": 36,
                "velocity": 64,
                "duration": 0.48863636363636687,
                "tempo": 120.0
            },
            {
                "start_time": 51.99545454545454,
                "end_time": 52.21363636363636,
                "pitch": 36,
                "velocity": 64,
                "duration": 0.2181818181818187,
                "tempo": 120.0
            },
            {
                "start_time": 52.26363636363636,
                "end_time": 52.48181818181818,
                "pitch": 36,
                "velocity": 64,
                "duration": 0.2181818181818187,
                "tempo": 120.0
            },
            {
                "start_time": 52.53181818181818,
                "end_time": 52.74772727272727,
                "pitch": 36,
                "velocity": 64,
                "duration": 0.2159090909090864,
                "tempo": 120.0
            },
            {
                "start_time": 52.8,
                "end_time": 53.02045454545454,
                "pitch": 36,
                "velocity": 64,
                "duration": 0.2204545454545439,
                "tempo": 120.0
            },
            {
                "start_time": 53.07272727272727,
                "end_time": 53.293181818181814,
                "pitch": 36,
                "velocity": 64,
                "duration": 0.2204545454545439,
                "tempo": 120.0
            },
            {
                "start_time": 53.34318181818182,
                "end_time": 53.56136363636363,
                "pitch": 36,
                "velocity": 64,
                "duration": 0.2181818181818116,
                "tempo": 120.0
            },
            {
                "start_time": 51.184090909090905,
                "end_time": 53.611363636363635,
                "pitch": 40,
                "velocity": 64,
                "duration": 2.4272727272727295,
                "tempo": 120.0
            },
            {
                "start_time": 53.611363636363635,
                "end_time": 53.695454545454545,
                "pitch": 35,
                "velocity": 64,
                "duration": 0.08409090909091077,
                "tempo": 120.0
            },
            {
                "start_time": 53.74545454545454,
                "end_time": 54.095454545454544,
                "pitch": 35,
                "velocity": 64,
                "duration": 0.3500000000000014,
                "tempo": 120.0
            },
            {
                "start_time": 54.14545454545454,
                "end_time": 54.36363636363636,
                "pitch": 34,
                "velocity": 64,
                "duration": 0.2181818181818187,
                "tempo": 120.0
            },
            {
                "start_time": 54.413636363636364,
                "end_time": 54.63409090909091,
                "pitch": 34,
                "velocity": 64,
                "duration": 0.2204545454545439,
                "tempo": 120.0
            },
            {
                "start_time": 54.68636363636363,
                "end_time": 54.90681818181818,
                "pitch": 34,
                "velocity": 64,
                "duration": 0.220454545454551,
                "tempo": 120.0
            },
            {
                "start_time": 54.959090909090904,
                "end_time": 55.179545454545455,
                "pitch": 34,
                "velocity": 64,
                "duration": 0.220454545454551,
                "tempo": 120.0
            },
            {
                "start_time": 55.23181818181818,
                "end_time": 55.45227272727273,
                "pitch": 34,
                "velocity": 64,
                "duration": 0.220454545454551,
                "tempo": 120.0
            },
            {
                "start_time": 55.50454545454545,
                "end_time": 55.720454545454544,
                "pitch": 34,
                "velocity": 64,
                "duration": 0.2159090909090935,
                "tempo": 120.0
            },
            {
                "start_time": 55.77272727272727,
                "end_time": 56.256818181818176,
                "pitch": 34,
                "velocity": 64,
                "duration": 0.48409090909090224,
                "tempo": 120.0
            },
            {
                "start_time": 56.30681818181818,
                "end_time": 56.52272727272727,
                "pitch": 35,
                "velocity": 64,
                "duration": 0.2159090909090935,
                "tempo": 120.0
            },
            {
                "start_time": 56.574999999999996,
                "end_time": 56.79090909090909,
                "pitch": 35,
                "velocity": 64,
                "duration": 0.2159090909090935,
                "tempo": 120.0
            },
            {
                "start_time": 56.840909090909086,
                "end_time": 57.32954545454545,
                "pitch": 35,
                "velocity": 64,
                "duration": 0.48863636363636687,
                "tempo": 120.0
            },
            {
                "start_time": 57.381818181818176,
                "end_time": 57.60227272727273,
                "pitch": 35,
                "velocity": 64,
                "duration": 0.220454545454551,
                "tempo": 120.0
            },
            {
                "start_time": 57.65454545454545,
                "end_time": 57.875,
                "pitch": 35,
                "velocity": 64,
                "duration": 0.220454545454551,
                "tempo": 120.0
            },
            {
                "start_time": 57.925,
                "end_time": 58.14772727272727,
                "pitch": 35,
                "velocity": 64,
                "duration": 0.22272727272727622,
                "tempo": 120.0
            },
            {
                "start_time": 58.19772727272727,
                "end_time": 58.41590909090909,
                "pitch": 35,
                "velocity": 64,
                "duration": 0.2181818181818187,
                "tempo": 120.0
            },
            {
                "start_time": 59.53636363636363,
                "end_time": 60.29772727272727,
                "pitch": 35,
                "velocity": 64,
                "duration": 0.7613636363636402,
                "tempo": 120.0
            },
            {
                "start_time": 53.611363636363635,
                "end_time": 60.43181818181818,
                "pitch": 40,
                "velocity": 64,
                "duration": 6.820454545454545,
                "tempo": 120.0
            },
            {
                "start_time": 60.349999999999994,
                "end_time": 60.43181818181818,
                "pitch": 40,
                "velocity": 64,
                "duration": 0.08181818181818556,
                "tempo": 120.0
            },
            {
                "start_time": 60.48181818181818,
                "end_time": 60.56590909090909,
                "pitch": 40,
                "velocity": 64,
                "duration": 0.08409090909091077,
                "tempo": 120.0
            },
            {
                "start_time": 51.45681818181818,
                "end_time": 60.699999999999996,
                "pitch": 38,
                "velocity": 64,
                "duration": 9.243181818181817,
                "tempo": 120.0
            },
            {
                "start_time": 60.615909090909085,
                "end_time": 60.699999999999996,
                "pitch": 38,
                "velocity": 64,
                "duration": 0.08409090909091077,
                "tempo": 120.0
            },
            {
                "start_time": 60.615909090909085,
                "end_time": 60.965909090909086,
                "pitch": 40,
                "velocity": 64,
                "duration": 0.3500000000000014,
                "tempo": 120.0
            },
            {
                "start_time": 60.88409090909091,
                "end_time": 60.965909090909086,
                "pitch": 40,
                "velocity": 64,
                "duration": 0.08181818181817846,
                "tempo": 120.0
            },
            {
                "start_time": 42.55681818181818,
                "end_time": 61.152272727272724,
                "pitch": 54,
                "velocity": 64,
                "duration": 18.595454545454544,
                "tempo": 120.0
            },
            {
                "start_time": 61.152272727272724,
                "end_time": 61.36818181818182,
                "pitch": 43,
                "velocity": 64,
                "duration": 0.2159090909090935,
                "tempo": 120.0
            },
            {
                "start_time": 61.418181818181814,
                "end_time": 61.502272727272725,
                "pitch": 43,
                "velocity": 64,
                "duration": 0.08409090909091077,
                "tempo": 120.0
            },
            {
                "start_time": 61.96363636363636,
                "end_time": 62.04772727272727,
                "pitch": 45,
                "velocity": 64,
                "duration": 0.08409090909091077,
                "tempo": 120.0
            },
            {
                "start_time": 62.09772727272727,
                "end_time": 62.44772727272727,
                "pitch": 43,
                "velocity": 64,
                "duration": 0.3500000000000014,
                "tempo": 120.0
            },
            {
                "start_time": 41.486363636363635,
                "end_time": 62.49772727272727,
                "pitch": 7,
                "velocity": 64,
                "duration": 21.011363636363633,
                "tempo": 120.0
            },
            {
                "start_time": 62.49772727272727,
                "end_time": 62.584090909090904,
                "pitch": 40,
                "velocity": 64,
                "duration": 0.08636363636363598,
                "tempo": 120.0
            },
            {
                "start_time": 62.63409090909091,
                "end_time": 62.71818181818181,
                "pitch": 40,
                "velocity": 64,
                "duration": 0.08409090909090366,
                "tempo": 120.0
            },
            {
                "start_time": 60.88409090909091,
                "end_time": 62.85454545454545,
                "pitch": 38,
                "velocity": 64,
                "duration": 1.970454545454544,
                "tempo": 120.0
            },
            {
                "start_time": 62.77045454545454,
                "end_time": 62.85454545454545,
                "pitch": 38,
                "velocity": 64,
                "duration": 0.08409090909091077,
                "tempo": 120.0
            },
            {
                "start_time": 62.77045454545454,
                "end_time": 63.127272727272725,
                "pitch": 40,
                "velocity": 64,
                "duration": 0.35681818181818414,
                "tempo": 120.0
            },
            {
                "start_time": 63.043181818181814,
                "end_time": 63.127272727272725,
                "pitch": 40,
                "velocity": 64,
                "duration": 0.08409090909091077,
                "tempo": 120.0
            },
            {
                "start_time": 61.152272727272724,
                "end_time": 63.31136363636363,
                "pitch": 54,
                "velocity": 64,
                "duration": 2.1590909090909065,
                "tempo": 120.0
            },
            {
                "start_time": 63.31136363636363,
                "end_time": 63.527272727272724,
                "pitch": 43,
                "velocity": 64,
                "duration": 0.2159090909090935,
                "tempo": 120.0
            },
            {
                "start_time": 37.97272727272727,
                "end_time": 63.66136363636363,
                "pitch": 47,
                "velocity": 64,
                "duration": 25.688636363636363,
                "tempo": 120.0
            },
            {
                "start_time": 63.57954545454545,
                "end_time": 63.66136363636363,
                "pitch": 47,
                "velocity": 64,
                "duration": 0.08181818181817846,
                "tempo": 120.0
            },
            {
                "start_time": 63.57954545454545,
                "end_time": 63.929545454545455,
                "pitch": 43,
                "velocity": 64,
                "duration": 0.3500000000000014,
                "tempo": 120.0
            },
            {
                "start_time": 63.845454545454544,
                "end_time": 63.929545454545455,
                "pitch": 43,
                "velocity": 64,
                "duration": 0.08409090909091077,
                "tempo": 120.0
            },
            {
                "start_time": 64.11363636363636,
                "end_time": 64.19772727272726,
                "pitch": 43,
                "velocity": 64,
                "duration": 0.08409090909090366,
                "tempo": 120.0
            },
            {
                "start_time": 64.25,
                "end_time": 64.60681818181818,
                "pitch": 45,
                "velocity": 64,
                "duration": 0.35681818181818414,
                "tempo": 120.0
            },
            {
                "start_time": 42.69090909090909,
                "end_time": 64.6590909090909,
                "pitch": 0,
                "velocity": 64,
                "duration": 21.96818181818182,
                "tempo": 120.0
            },
            {
                "start_time": 64.65681818181818,
                "end_time": 64.6590909090909,
                "pitch": 0,
                "velocity": 64,
                "duration": 0.0022727272727252057,
                "tempo": 120.0
            },
            {
                "start_time": 63.043181818181814,
                "end_time": 64.74318181818181,
                "pitch": 38,
                "velocity": 64,
                "duration": 1.6999999999999957,
                "tempo": 120.0
            },
            {
                "start_time": 64.6590909090909,
                "end_time": 64.74318181818181,
                "pitch": 38,
                "velocity": 64,
                "duration": 0.08409090909090366,
                "tempo": 120.0
            },
            {
                "start_time": 64.79318181818182,
                "end_time": 64.87954545454545,
                "pitch": 38,
                "velocity": 64,
                "duration": 0.08636363636362887,
                "tempo": 120.0
            },
            {
                "start_time": 41.21363636363636,
                "end_time": 64.92954545454545,
                "pitch": 41,
                "velocity": 64,
                "duration": 23.715909090909086,
                "tempo": 120.0
            },
            {
                "start_time": 64.92954545454545,
                "end_time": 65.01590909090909,
                "pitch": 33,
                "velocity": 64,
                "duration": 0.08636363636364308,
                "tempo": 120.0
            },
            {
                "start_time": 62.49772727272727,
                "end_time": 65.20227272727273,
                "pitch": 7,
                "velocity": 64,
                "duration": 2.7045454545454604,
                "tempo": 120.0
            },
            {
                "start_time": 65.20227272727273,
                "end_time": 65.28636363636363,
                "pitch": 38,
                "velocity": 64,
                "duration": 0.08409090909090366,
                "tempo": 120.0
            },
            {
                "start_time": 65.47045454545454,
                "end_time": 65.55454545454545,
                "pitch": 40,
                "velocity": 64,
                "duration": 0.08409090909090366,
                "tempo": 120.0
            },
            {
                "start_time": 65.73863636363636,
                "end_time": 65.82045454545454,
                "pitch": 40,
                "velocity": 64,
                "duration": 0.08181818181817846,
                "tempo": 120.0
            },
            {
                "start_time": 42.96363636363636,
                "end_time": 66.35681818181818,
                "pitch": 42,
                "velocity": 64,
                "duration": 23.393181818181823,
                "tempo": 120.0
            },
            {
                "start_time": 66.27272727272727,
                "end_time": 66.35681818181818,
                "pitch": 42,
                "velocity": 64,
                "duration": 0.08409090909091788,
                "tempo": 120.0
            },
            {
                "start_time": 66.40681818181818,
                "end_time": 66.75681818181818,
                "pitch": 40,
                "velocity": 64,
                "duration": 0.3499999999999943,
                "tempo": 120.0
            },
            {
                "start_time": 65.47045454545454,
                "end_time": 66.89318181818182,
                "pitch": 38,
                "velocity": 64,
                "duration": 1.422727272727272,
                "tempo": 120.0
            },
            {
                "start_time": 66.80909090909091,
                "end_time": 66.89318181818182,
                "pitch": 38,
                "velocity": 64,
                "duration": 0.08409090909090366,
                "tempo": 120.0
            },
            {
                "start_time": 66.94318181818181,
                "end_time": 67.02954545454546,
                "pitch": 38,
                "velocity": 64,
                "duration": 0.08636363636364308,
                "tempo": 120.0
            },
            {
                "start_time": 64.92954545454545,
                "end_time": 67.07954545454545,
                "pitch": 41,
                "velocity": 64,
                "duration": 2.1500000000000057,
                "tempo": 120.0
            },
            {
                "start_time": 67.07954545454545,
                "end_time": 67.16590909090908,
                "pitch": 33,
                "velocity": 64,
                "duration": 0.08636363636362887,
                "tempo": 120.0
            },
            {
                "start_time": 65.20227272727273,
                "end_time": 67.35227272727272,
                "pitch": 7,
                "velocity": 64,
                "duration": 2.1499999999999915,
                "tempo": 120.0
            },
            {
                "start_time": 67.35227272727272,
                "end_time": 67.43636363636364,
                "pitch": 38,
                "velocity": 64,
                "duration": 0.08409090909091788,
                "tempo": 120.0
            },
            {
                "start_time": 67.62045454545454,
                "end_time": 67.70454545454545,
                "pitch": 40,
                "velocity": 64,
                "duration": 0.08409090909091788,
                "tempo": 120.0
            },
            {
                "start_time": 67.88863636363637,
                "end_time": 67.97272727272727,
                "pitch": 40,
                "velocity": 64,
                "duration": 0.08409090909090366,
                "tempo": 120.0
            },
            {
                "start_time": 63.31136363636363,
                "end_time": 68.43409090909091,
                "pitch": 54,
                "velocity": 64,
                "duration": 5.122727272727282,
                "tempo": 120.0
            },
            {
                "start_time": 68.43181818181817,
                "end_time": 68.43409090909091,
                "pitch": 54,
                "velocity": 64,
                "duration": 0.0022727272727394165,
                "tempo": 120.0
            },
            {
                "start_time": 68.43409090909091,
                "end_time": 68.51590909090909,
                "pitch": 43,
                "velocity": 64,
                "duration": 0.08181818181817846,
                "tempo": 120.0
            },
            {
                "start_time": 66.80909090909091,
                "end_time": 68.7840909090909,
                "pitch": 42,
                "velocity": 64,
                "duration": 1.9749999999999943,
                "tempo": 120.0
            },
            {
                "start_time": 68.56590909090909,
                "end_time": 68.7840909090909,
                "pitch": 42,
                "velocity": 64,
                "duration": 0.2181818181818187,
                "tempo": 120.0
            },
            {
                "start_time": 67.62045454545454,
                "end_time": 68.91818181818182,
                "pitch": 38,
                "velocity": 64,
                "duration": 1.2977272727272862,
                "tempo": 120.0
            },
            {
                "start_time": 68.8340909090909,
                "end_time": 68.91818181818182,
                "pitch": 38,
                "velocity": 64,
                "duration": 0.08409090909091788,
                "tempo": 120.0
            },
            {
                "start_time": 68.96818181818182,
                "end_time": 69.05227272727272,
                "pitch": 40,
                "velocity": 64,
                "duration": 0.08409090909090366,
                "tempo": 120.0
            },
            {
                "start_time": 69.10454545454544,
                "end_time": 69.18863636363636,
                "pitch": 40,
                "velocity": 64,
                "duration": 0.08409090909091788,
                "tempo": 120.0
            },
            {
                "start_time": 68.96818181818182,
                "end_time": 69.325,
                "pitch": 38,
                "velocity": 64,
                "duration": 0.35681818181818414,
                "tempo": 120.0
            },
            {
                "start_time": 69.24090909090908,
                "end_time": 69.325,
                "pitch": 38,
                "velocity": 64,
                "duration": 0.08409090909091788,
                "tempo": 120.0
            },
            {
                "start_time": 69.24090909090908,
                "end_time": 69.59545454545454,
                "pitch": 40,
                "velocity": 64,
                "duration": 0.35454545454545894,
                "tempo": 120.0
            },
            {
                "start_time": 69.51363636363637,
                "end_time": 69.59545454545454,
                "pitch": 40,
                "velocity": 64,
                "duration": 0.08181818181817846,
                "tempo": 120.0
            },
            {
                "start_time": 69.77954545454546,
                "end_time": 69.99772727272727,
                "pitch": 43,
                "velocity": 64,
                "duration": 0.2181818181818187,
                "tempo": 120.0
            },
            {
                "start_time": 70.04772727272727,
                "end_time": 70.13181818181818,
                "pitch": 43,
                "velocity": 64,
                "duration": 0.08409090909090366,
                "tempo": 120.0
            },
            {
                "start_time": 70.58181818181818,
                "end_time": 70.66818181818182,
                "pitch": 45,
                "velocity": 64,
                "duration": 0.08636363636364308,
                "tempo": 120.0
            },
            {
                "start_time": 70.71818181818182,
                "end_time": 71.075,
                "pitch": 43,
                "velocity": 64,
                "duration": 0.35681818181818414,
                "tempo": 120.0
            },
            {
                "start_time": 67.35227272727272,
                "end_time": 71.12727272727273,
                "pitch": 7,
                "velocity": 64,
                "duration": 3.7750000000000057,
                "tempo": 120.0
            },
            {
                "start_time": 71.12727272727273,
                "end_time": 71.21136363636363,
                "pitch": 40,
                "velocity": 64,
                "duration": 0.08409090909090366,
                "tempo": 120.0
            },
            {
                "start_time": 71.26136363636363,
                "end_time": 71.34545454545454,
                "pitch": 40,
                "velocity": 64,
                "duration": 0.08409090909091788,
                "tempo": 120.0
            },
            {
                "start_time": 69.51363636363637,
                "end_time": 71.47727272727272,
                "pitch": 38,
                "velocity": 64,
                "duration": 1.963636363636354,
                "tempo": 120.0
            },
            {
                "start_time": 71.39545454545454,
                "end_time": 71.47727272727272,
                "pitch": 38,
                "velocity": 64,
                "duration": 0.08181818181817846,
                "tempo": 120.0
            },
            {
                "start_time": 71.39545454545454,
                "end_time": 71.74545454545454,
                "pitch": 40,
                "velocity": 64,
                "duration": 0.3499999999999943,
                "tempo": 120.0
            },
            {
                "start_time": 71.66363636363636,
                "end_time": 71.74545454545454,
                "pitch": 40,
                "velocity": 64,
                "duration": 0.08181818181817846,
                "tempo": 120.0
            },
            {
                "start_time": 69.77954545454546,
                "end_time": 71.92954545454545,
                "pitch": 54,
                "velocity": 64,
                "duration": 2.1499999999999915,
                "tempo": 120.0
            },
            {
                "start_time": 71.92954545454545,
                "end_time": 72.14772727272727,
                "pitch": 43,
                "velocity": 64,
                "duration": 0.2181818181818187,
                "tempo": 120.0
            },
            {
                "start_time": 63.845454545454544,
                "end_time": 72.28181818181818,
                "pitch": 47,
                "velocity": 64,
                "duration": 8.436363636363637,
                "tempo": 120.0
            },
            {
                "start_time": 72.19772727272726,
                "end_time": 72.28181818181818,
                "pitch": 47,
                "velocity": 64,
                "duration": 0.08409090909091788,
                "tempo": 120.0
            },
            {
                "start_time": 72.19772727272726,
                "end_time": 72.55454545454545,
                "pitch": 43,
                "velocity": 64,
                "duration": 0.35681818181818414,
                "tempo": 120.0
            },
            {
                "start_time": 72.47045454545454,
                "end_time": 72.55454545454545,
                "pitch": 43,
                "velocity": 64,
                "duration": 0.08409090909090366,
                "tempo": 120.0
            },
            {
                "start_time": 72.74318181818181,
                "end_time": 72.82727272727273,
                "pitch": 43,
                "velocity": 64,
                "duration": 0.08409090909091788,
                "tempo": 120.0
            },
            {
                "start_time": 72.87727272727273,
                "end_time": 73.23636363636363,
                "pitch": 45,
                "velocity": 64,
                "duration": 0.35909090909090935,
                "tempo": 120.0
            },
            {
                "start_time": 68.56590909090909,
                "end_time": 73.28636363636363,
                "pitch": 0,
                "velocity": 64,
                "duration": 4.720454545454544,
                "tempo": 120.0
            },
            {
                "start_time": 71.66363636363636,
                "end_time": 73.37045454545454,
                "pitch": 38,
                "velocity": 64,
                "duration": 1.7068181818181785,
                "tempo": 120.0
            },
            {
                "start_time": 73.28636363636363,
                "end_time": 73.37045454545454,
                "pitch": 38,
                "velocity": 64,
                "duration": 0.08409090909090366,
                "tempo": 120.0
            },
            {
                "start_time": 73.42045454545455,
                "end_time": 73.50454545454545,
                "pitch": 38,
                "velocity": 64,
                "duration": 0.08409090909090366,
                "tempo": 120.0
            },
            {
                "start_time": 67.07954545454545,
                "end_time": 73.55454545454545,
                "pitch": 41,
                "velocity": 64,
                "duration": 6.474999999999994,
                "tempo": 120.0
            },
            {
                "start_time": 73.55454545454545,
                "end_time": 73.63863636363637,
                "pitch": 33,
                "velocity": 64,
                "duration": 0.08409090909091788,
                "tempo": 120.0
            },
            {
                "start_time": 71.12727272727273,
                "end_time": 73.82272727272726,
                "pitch": 7,
                "velocity": 64,
                "duration": 2.695454545454538,
                "tempo": 120.0
            },
            {
                "start_time": 73.82272727272726,
                "end_time": 73.90681818181818,
                "pitch": 38,
                "velocity": 64,
                "duration": 0.08409090909091788,
                "tempo": 120.0
            },
            {
                "start_time": 74.0909090909091,
                "end_time": 74.17272727272727,
                "pitch": 40,
                "velocity": 64,
                "duration": 0.08181818181817846,
                "tempo": 120.0
            },
            {
                "start_time": 74.35681818181818,
                "end_time": 74.44318181818181,
                "pitch": 40,
                "velocity": 64,
                "duration": 0.08636363636362887,
                "tempo": 120.0
            },
            {
                "start_time": 68.8340909090909,
                "end_time": 74.98636363636363,
                "pitch": 42,
                "velocity": 64,
                "duration": 6.152272727272731,
                "tempo": 120.0
            },
            {
                "start_time": 74.90227272727272,
                "end_time": 74.98636363636363,
                "pitch": 42,
                "velocity": 64,
                "duration": 0.08409090909091788,
                "tempo": 120.0
            },
            {
                "start_time": 75.03636363636363,
                "end_time": 75.38636363636363,
                "pitch": 40,
                "velocity": 64,
                "duration": 0.3499999999999943,
                "tempo": 120.0
            },
            {
                "start_time": 74.0909090909091,
                "end_time": 75.52272727272727,
                "pitch": 38,
                "velocity": 64,
                "duration": 1.4318181818181728,
                "tempo": 120.0
            },
            {
                "start_time": 75.43636363636364,
                "end_time": 75.52272727272727,
                "pitch": 38,
                "velocity": 64,
                "duration": 0.08636363636362887,
                "tempo": 120.0
            },
            {
                "start_time": 75.57272727272726,
                "end_time": 75.65681818181818,
                "pitch": 38,
                "velocity": 64,
                "duration": 0.08409090909091788,
                "tempo": 120.0
            },
            {
                "start_time": 73.55454545454545,
                "end_time": 75.7090909090909,
                "pitch": 41,
                "velocity": 64,
                "duration": 2.154545454545456,
                "tempo": 120.0
            },
            {
                "start_time": 75.7090909090909,
                "end_time": 75.79318181818182,
                "pitch": 33,
                "velocity": 64,
                "duration": 0.08409090909091788,
                "tempo": 120.0
            },
            {
                "start_time": 73.82272727272726,
                "end_time": 75.98181818181818,
                "pitch": 7,
                "velocity": 64,
                "duration": 2.1590909090909207,
                "tempo": 120.0
            },
            {
                "start_time": 75.98181818181818,
                "end_time": 76.06590909090909,
                "pitch": 38,
                "velocity": 64,
                "duration": 0.08409090909090366,
                "tempo": 120.0
            },
            {
                "start_time": 76.25,
                "end_time": 76.33181818181818,
                "pitch": 40,
                "velocity": 64,
                "duration": 0.08181818181817846,
                "tempo": 120.0
            },
            {
                "start_time": 76.51590909090909,
                "end_time": 76.6,
                "pitch": 40,
                "velocity": 64,
                "duration": 0.08409090909090366,
                "tempo": 120.0
            },
            {
                "start_time": 71.92954545454545,
                "end_time": 77.05227272727272,
                "pitch": 54,
                "velocity": 64,
                "duration": 5.122727272727275,
                "tempo": 120.0
            },
            {
                "start_time": 77.05227272727272,
                "end_time": 77.13636363636363,
                "pitch": 43,
                "velocity": 64,
                "duration": 0.08409090909090366,
                "tempo": 120.0
            },
            {
                "start_time": 73.28636363636363,
                "end_time": 77.18863636363636,
                "pitch": 0,
                "velocity": 64,
                "duration": 3.902272727272731,
                "tempo": 120.0
            },
            {
                "start_time": 75.43636363636364,
                "end_time": 77.4090909090909,
                "pitch": 42,
                "velocity": 64,
                "duration": 1.972727272727269,
                "tempo": 120.0
            },
            {
                "start_time": 77.18863636363636,
                "end_time": 77.4090909090909,
                "pitch": 42,
                "velocity": 64,
                "duration": 0.2204545454545439,
                "tempo": 120.0
            },
            {
                "start_time": 76.25,
                "end_time": 77.54545454545455,
                "pitch": 38,
                "velocity": 64,
                "duration": 1.2954545454545467,
                "tempo": 120.0
            },
            {
                "start_time": 77.46136363636363,
                "end_time": 77.54545454545455,
                "pitch": 38,
                "velocity": 64,
                "duration": 0.08409090909091788,
                "tempo": 120.0
            },
            {
                "start_time": 77.59772727272727,
                "end_time": 77.81818181818181,
                "pitch": 36,
                "velocity": 64,
                "duration": 0.2204545454545439,
                "tempo": 120.0
            },
            {
                "start_time": 77.86818181818181,
                "end_time": 78.0909090909091,
                "pitch": 36,
                "velocity": 64,
                "duration": 0.22272727272728332,
                "tempo": 120.0
            },
            {
                "start_time": 78.14090909090909,
                "end_time": 78.35909090909091,
                "pitch": 36,
                "velocity": 64,
                "duration": 0.2181818181818187,
                "tempo": 120.0
            },
            {
                "start_time": 78.4090909090909,
                "end_time": 78.62727272727273,
                "pitch": 36,
                "velocity": 64,
                "duration": 0.2181818181818187,
                "tempo": 120.0
            },
            {
                "start_time": 78.67727272727272,
                "end_time": 78.89772727272727,
                "pitch": 36,
                "velocity": 64,
                "duration": 0.2204545454545439,
                "tempo": 120.0
            },
            {
                "start_time": 78.95,
                "end_time": 79.17045454545455,
                "pitch": 36,
                "velocity": 64,
                "duration": 0.2204545454545439,
                "tempo": 120.0
            },
            {
                "start_time": 79.22272727272727,
                "end_time": 79.43863636363636,
                "pitch": 36,
                "velocity": 64,
                "duration": 0.2159090909090935,
                "tempo": 120.0
            },
            {
                "start_time": 79.48863636363636,
                "end_time": 79.97272727272727,
                "pitch": 36,
                "velocity": 64,
                "duration": 0.48409090909090935,
                "tempo": 120.0
            },
            {
                "start_time": 80.02499999999999,
                "end_time": 80.24090909090908,
                "pitch": 36,
                "velocity": 64,
                "duration": 0.2159090909090935,
                "tempo": 120.0
            },
            {
                "start_time": 80.29090909090908,
                "end_time": 80.5090909090909,
                "pitch": 36,
                "velocity": 64,
                "duration": 0.2181818181818187,
                "tempo": 120.0
            },
            {
                "start_time": 80.55909090909091,
                "end_time": 80.77727272727272,
                "pitch": 36,
                "velocity": 64,
                "duration": 0.2181818181818045,
                "tempo": 120.0
            },
            {
                "start_time": 80.82727272727273,
                "end_time": 81.04772727272727,
                "pitch": 36,
                "velocity": 64,
                "duration": 0.2204545454545439,
                "tempo": 120.0
            },
            {
                "start_time": 81.1,
                "end_time": 81.32045454545454,
                "pitch": 36,
                "velocity": 64,
                "duration": 0.2204545454545439,
                "tempo": 120.0
            },
            {
                "start_time": 81.37272727272727,
                "end_time": 81.58863636363635,
                "pitch": 36,
                "velocity": 64,
                "duration": 0.21590909090907928,
                "tempo": 120.0
            },
            {
                "start_time": 81.63863636363637,
                "end_time": 82.12727272727273,
                "pitch": 40,
                "velocity": 64,
                "duration": 0.48863636363635976,
                "tempo": 120.0
            },
            {
                "start_time": 82.17954545454545,
                "end_time": 82.39999999999999,
                "pitch": 40,
                "velocity": 64,
                "duration": 0.2204545454545439,
                "tempo": 120.0
            },
            {
                "start_time": 82.45227272727273,
                "end_time": 82.66818181818181,
                "pitch": 40,
                "velocity": 64,
                "duration": 0.21590909090907928,
                "tempo": 120.0
            },
            {
                "start_time": 82.71818181818182,
                "end_time": 82.93636363636364,
                "pitch": 40,
                "velocity": 64,
                "duration": 0.2181818181818187,
                "tempo": 120.0
            },
            {
                "start_time": 82.98636363636363,
                "end_time": 83.20681818181818,
                "pitch": 40,
                "velocity": 64,
                "duration": 0.2204545454545439,
                "tempo": 120.0
            },
            {
                "start_time": 83.2590909090909,
                "end_time": 83.47954545454544,
                "pitch": 40,
                "velocity": 64,
                "duration": 0.2204545454545439,
                "tempo": 120.0
            },
            {
                "start_time": 83.53181818181818,
                "end_time": 83.74772727272727,
                "pitch": 40,
                "velocity": 64,
                "duration": 0.2159090909090935,
                "tempo": 120.0
            },
            {
                "start_time": 83.8,
                "end_time": 84.2840909090909,
                "pitch": 40,
                "velocity": 64,
                "duration": 0.48409090909090935,
                "tempo": 120.0
            },
            {
                "start_time": 84.3340909090909,
                "end_time": 84.55,
                "pitch": 40,
                "velocity": 64,
                "duration": 0.2159090909090935,
                "tempo": 120.0
            },
            {
                "start_time": 84.60227272727272,
                "end_time": 84.81818181818181,
                "pitch": 40,
                "velocity": 64,
                "duration": 0.2159090909090935,
                "tempo": 120.0
            },
            {
                "start_time": 84.86818181818181,
                "end_time": 85.08636363636363,
                "pitch": 40,
                "velocity": 64,
                "duration": 0.2181818181818187,
                "tempo": 120.0
            },
            {
                "start_time": 85.13636363636363,
                "end_time": 85.35681818181818,
                "pitch": 40,
                "velocity": 64,
                "duration": 0.22045454545455812,
                "tempo": 120.0
            },
            {
                "start_time": 85.4090909090909,
                "end_time": 85.62954545454545,
                "pitch": 40,
                "velocity": 64,
                "duration": 0.2204545454545439,
                "tempo": 120.0
            },
            {
                "start_time": 77.59772727272727,
                "end_time": 85.90227272727272,
                "pitch": 38,
                "velocity": 64,
                "duration": 8.304545454545448,
                "tempo": 120.0
            },
            {
                "start_time": 85.68181818181817,
                "end_time": 85.90227272727272,
                "pitch": 38,
                "velocity": 64,
                "duration": 0.2204545454545439,
                "tempo": 120.0
            },
            {
                "start_time": 81.63863636363637,
                "end_time": 86.44318181818181,
                "pitch": 36,
                "velocity": 64,
                "duration": 4.804545454545448,
                "tempo": 120.0
            },
            {
                "start_time": 85.95454545454545,
                "end_time": 86.44318181818181,
                "pitch": 36,
                "velocity": 64,
                "duration": 0.48863636363635976,
                "tempo": 120.0
            },
            {
                "start_time": 86.49318181818181,
                "end_time": 86.71136363636363,
                "pitch": 36,
                "velocity": 64,
                "duration": 0.2181818181818187,
                "tempo": 120.0
            },
            {
                "start_time": 86.76136363636363,
                "end_time": 86.97727272727272,
                "pitch": 36,
                "velocity": 64,
                "duration": 0.2159090909090935,
                "tempo": 120.0
            },
            {
                "start_time": 87.02954545454546,
                "end_time": 87.24545454545454,
                "pitch": 36,
                "velocity": 64,
                "duration": 0.21590909090907928,
                "tempo": 120.0
            },
            {
                "start_time": 87.29545454545455,
                "end_time": 87.51590909090909,
                "pitch": 36,
                "velocity": 64,
                "duration": 0.2204545454545439,
                "tempo": 120.0
            },
            {
                "start_time": 87.56818181818181,
                "end_time": 87.78863636363636,
                "pitch": 36,
                "velocity": 64,
                "duration": 0.2204545454545439,
                "tempo": 120.0
            },
            {
                "start_time": 87.8409090909091,
                "end_time": 88.05681818181817,
                "pitch": 36,
                "velocity": 64,
                "duration": 0.21590909090907928,
                "tempo": 120.0
            },
            {
                "start_time": 85.68181818181817,
                "end_time": 88.10909090909091,
                "pitch": 40,
                "velocity": 64,
                "duration": 2.4272727272727366,
                "tempo": 120.0
            },
            {
                "start_time": 88.10909090909091,
                "end_time": 88.19090909090909,
                "pitch": 35,
                "velocity": 64,
                "duration": 0.08181818181817846,
                "tempo": 120.0
            },
            {
                "start_time": 88.24318181818181,
                "end_time": 88.59318181818182,
                "pitch": 35,
                "velocity": 64,
                "duration": 0.3500000000000085,
                "tempo": 120.0
            },
            {
                "start_time": 88.64318181818182,
                "end_time": 88.86136363636363,
                "pitch": 34,
                "velocity": 64,
                "duration": 0.2181818181818187,
                "tempo": 120.0
            },
            {
                "start_time": 88.91136363636363,
                "end_time": 89.13181818181818,
                "pitch": 34,
                "velocity": 64,
                "duration": 0.2204545454545439,
                "tempo": 120.0
            },
            {
                "start_time": 89.1840909090909,
                "end_time": 89.40454545454546,
                "pitch": 34,
                "velocity": 64,
                "duration": 0.22045454545455812,
                "tempo": 120.0
            },
            {
                "start_time": 89.45454545454545,
                "end_time": 89.67727272727272,
                "pitch": 34,
                "velocity": 64,
                "duration": 0.2227272727272691,
                "tempo": 120.0
            },
            {
                "start_time": 89.72727272727272,
                "end_time": 89.94772727272726,
                "pitch": 34,
                "velocity": 64,
                "duration": 0.2204545454545439,
                "tempo": 120.0
            },
            {
                "start_time": 90.0,
                "end_time": 90.21818181818182,
                "pitch": 34,
                "velocity": 64,
                "duration": 0.2181818181818187,
                "tempo": 120.0
            },
            {
                "start_time": 90.26818181818182,
                "end_time": 90.75227272727273,
                "pitch": 34,
                "velocity": 64,
                "duration": 0.48409090909090935,
                "tempo": 120.0
            },
            {
                "start_time": 90.80227272727272,
                "end_time": 91.02045454545454,
                "pitch": 35,
                "velocity": 64,
                "duration": 0.2181818181818187,
                "tempo": 120.0
            },
            {
                "start_time": 91.07045454545454,
                "end_time": 91.28863636363636,
                "pitch": 35,
                "velocity": 64,
                "duration": 0.2181818181818187,
                "tempo": 120.0
            },
            {
                "start_time": 91.33863636363635,
                "end_time": 91.82727272727273,
                "pitch": 35,
                "velocity": 64,
                "duration": 0.48863636363637397,
                "tempo": 120.0
            },
            {
                "start_time": 91.87727272727273,
                "end_time": 92.1,
                "pitch": 35,
                "velocity": 64,
                "duration": 0.2227272727272691,
                "tempo": 120.0
            },
            {
                "start_time": 92.14999999999999,
                "end_time": 92.37045454545454,
                "pitch": 35,
                "velocity": 64,
                "duration": 0.2204545454545439,
                "tempo": 120.0
            },
            {
                "start_time": 92.42272727272727,
                "end_time": 92.64318181818182,
                "pitch": 35,
                "velocity": 64,
                "duration": 0.2204545454545439,
                "tempo": 120.0
            },
            {
                "start_time": 94.0340909090909,
                "end_time": 94.79318181818181,
                "pitch": 35,
                "velocity": 64,
                "duration": 0.7590909090909008,
                "tempo": 120.0
            },
            {
                "start_time": 94.84545454545454,
                "end_time": 95.06590909090909,
                "pitch": 31,
                "velocity": 64,
                "duration": 0.2204545454545439,
                "tempo": 120.0
            },
            {
                "start_time": 95.11818181818181,
                "end_time": 95.33863636363635,
                "pitch": 31,
                "velocity": 64,
                "duration": 0.2204545454545439,
                "tempo": 120.0
            },
            {
                "start_time": 95.39090909090909,
                "end_time": 95.60681818181818,
                "pitch": 31,
                "velocity": 64,
                "duration": 0.2159090909090935,
                "tempo": 120.0
            },
            {
                "start_time": 95.65681818181818,
                "end_time": 95.875,
                "pitch": 31,
                "velocity": 64,
                "duration": 0.2181818181818187,
                "tempo": 120.0
            },
            {
                "start_time": 95.925,
                "end_time": 96.14545454545454,
                "pitch": 31,
                "velocity": 64,
                "duration": 0.2204545454545439,
                "tempo": 120.0
            },
            {
                "start_time": 96.19772727272726,
                "end_time": 96.41818181818181,
                "pitch": 31,
                "velocity": 64,
                "duration": 0.2204545454545439,
                "tempo": 120.0
            },
            {
                "start_time": 96.47045454545454,
                "end_time": 96.68636363636364,
                "pitch": 31,
                "velocity": 64,
                "duration": 0.2159090909090935,
                "tempo": 120.0
            },
            {
                "start_time": 96.73863636363636,
                "end_time": 96.95454545454545,
                "pitch": 31,
                "velocity": 64,
                "duration": 0.2159090909090935,
                "tempo": 120.0
            },
            {
                "start_time": 97.00454545454545,
                "end_time": 97.22272727272727,
                "pitch": 31,
                "velocity": 64,
                "duration": 0.2181818181818187,
                "tempo": 120.0
            },
            {
                "start_time": 97.27272727272727,
                "end_time": 97.49090909090908,
                "pitch": 31,
                "velocity": 64,
                "duration": 0.2181818181818187,
                "tempo": 120.0
            },
            {
                "start_time": 97.54090909090908,
                "end_time": 97.76136363636363,
                "pitch": 31,
                "velocity": 64,
                "duration": 0.2204545454545439,
                "tempo": 120.0
            },
            {
                "start_time": 97.81136363636364,
                "end_time": 98.0340909090909,
                "pitch": 43,
                "velocity": 64,
                "duration": 0.2227272727272691,
                "tempo": 120.0
            },
            {
                "start_time": 77.18863636363636,
                "end_time": 98.0840909090909,
                "pitch": 0,
                "velocity": 64,
                "duration": 20.89545454545454,
                "tempo": 120.0
            },
            {
                "start_time": 77.46136363636363,
                "end_time": 98.30227272727272,
                "pitch": 42,
                "velocity": 64,
                "duration": 20.840909090909093,
                "tempo": 120.0
            },
            {
                "start_time": 98.0840909090909,
                "end_time": 98.30227272727272,
                "pitch": 42,
                "velocity": 64,
                "duration": 0.2181818181818187,
                "tempo": 120.0
            },
            {
                "start_time": 98.35227272727272,
                "end_time": 98.57045454545454,
                "pitch": 42,
                "velocity": 64,
                "duration": 0.2181818181818187,
                "tempo": 120.0
            },
            {
                "start_time": 98.62045454545454,
                "end_time": 98.83636363636363,
                "pitch": 42,
                "velocity": 64,
                "duration": 0.2159090909090935,
                "tempo": 120.0
            },
            {
                "start_time": 88.10909090909091,
                "end_time": 99.10454545454544,
                "pitch": 40,
                "velocity": 64,
                "duration": 10.995454545454535,
                "tempo": 120.0
            },
            {
                "start_time": 98.88636363636363,
                "end_time": 99.10454545454544,
                "pitch": 40,
                "velocity": 64,
                "duration": 0.2181818181818187,
                "tempo": 120.0
            },
            {
                "start_time": 85.95454545454545,
                "end_time": 99.375,
                "pitch": 38,
                "velocity": 64,
                "duration": 13.420454545454547,
                "tempo": 120.0
            },
            {
                "start_time": 99.15454545454546,
                "end_time": 99.375,
                "pitch": 38,
                "velocity": 64,
                "duration": 0.2204545454545439,
                "tempo": 120.0
            },
            {
                "start_time": 99.42727272727272,
                "end_time": 99.64772727272727,
                "pitch": 38,
                "velocity": 64,
                "duration": 0.2204545454545439,
                "tempo": 120.0
            },
            {
                "start_time": 99.69999999999999,
                "end_time": 99.91590909090908,
                "pitch": 38,
                "velocity": 64,
                "duration": 0.2159090909090935,
                "tempo": 120.0
            },
            {
                "start_time": 99.96818181818182,
                "end_time": 100.1840909090909,
                "pitch": 38,
                "velocity": 64,
                "duration": 0.21590909090907928,
                "tempo": 120.0
            },
            {
                "start_time": 100.23409090909091,
                "end_time": 100.45681818181818,
                "pitch": 38,
                "velocity": 64,
                "duration": 0.2227272727272691,
                "tempo": 120.0
            },
            {
                "start_time": 100.50681818181818,
                "end_time": 100.72727272727272,
                "pitch": 38,
                "velocity": 64,
                "duration": 0.2204545454545439,
                "tempo": 120.0
            },
            {
                "start_time": 100.77954545454546,
                "end_time": 100.99772727272727,
                "pitch": 38,
                "velocity": 64,
                "duration": 0.2181818181818187,
                "tempo": 120.0
            },
            {
                "start_time": 101.04772727272727,
                "end_time": 101.26363636363637,
                "pitch": 38,
                "velocity": 64,
                "duration": 0.2159090909090935,
                "tempo": 120.0
            },
            {
                "start_time": 101.31363636363636,
                "end_time": 101.53636363636363,
                "pitch": 38,
                "velocity": 64,
                "duration": 0.2227272727272691,
                "tempo": 120.0
            },
            {
                "start_time": 101.58636363636363,
                "end_time": 101.80681818181817,
                "pitch": 38,
                "velocity": 64,
                "duration": 0.2204545454545439,
                "tempo": 120.0
            },
            {
                "start_time": 101.85909090909091,
                "end_time": 102.07727272727273,
                "pitch": 38,
                "velocity": 64,
                "duration": 0.2181818181818187,
                "tempo": 120.0
            },
            {
                "start_time": 102.12727272727273,
                "end_time": 102.34318181818182,
                "pitch": 38,
                "velocity": 64,
                "duration": 0.2159090909090935,
                "tempo": 120.0
            },
            {
                "start_time": 102.39545454545454,
                "end_time": 102.61136363636363,
                "pitch": 38,
                "velocity": 64,
                "duration": 0.2159090909090935,
                "tempo": 120.0
            },
            {
                "start_time": 102.66136363636363,
                "end_time": 102.87954545454545,
                "pitch": 39,
                "velocity": 64,
                "duration": 0.2181818181818187,
                "tempo": 120.0
            },
            {
                "start_time": 102.92954545454545,
                "end_time": 103.14999999999999,
                "pitch": 39,
                "velocity": 64,
                "duration": 0.2204545454545439,
                "tempo": 120.0
            },
            {
                "start_time": 103.20227272727273,
                "end_time": 103.42272727272727,
                "pitch": 39,
                "velocity": 64,
                "duration": 0.2204545454545439,
                "tempo": 120.0
            },
            {
                "start_time": 103.475,
                "end_time": 103.69090909090909,
                "pitch": 39,
                "velocity": 64,
                "duration": 0.2159090909090935,
                "tempo": 120.0
            },
            {
                "start_time": 99.15454545454546,
                "end_time": 103.9590909090909,
                "pitch": 40,
                "velocity": 64,
                "duration": 4.804545454545448,
                "tempo": 120.0
            },
            {
                "start_time": 103.74090909090908,
                "end_time": 103.9590909090909,
                "pitch": 40,
                "velocity": 64,
                "duration": 0.2181818181818187,
                "tempo": 120.0
            },
            {
                "start_time": 104.0090909090909,
                "end_time": 104.22727272727272,
                "pitch": 40,
                "velocity": 64,
                "duration": 0.2181818181818187,
                "tempo": 120.0
            },
            {
                "start_time": 104.27727272727272,
                "end_time": 104.49318181818181,
                "pitch": 40,
                "velocity": 64,
                "duration": 0.2159090909090935,
                "tempo": 120.0
            },
            {
                "start_time": 104.54545454545455,
                "end_time": 104.76590909090909,
                "pitch": 40,
                "velocity": 64,
                "duration": 0.2204545454545439,
                "tempo": 120.0
            },
            {
                "start_time": 104.81590909090909,
                "end_time": 105.03863636363636,
                "pitch": 40,
                "velocity": 64,
                "duration": 0.2227272727272691,
                "tempo": 120.0
            },
            {
                "start_time": 105.08863636363635,
                "end_time": 105.30681818181817,
                "pitch": 40,
                "velocity": 64,
                "duration": 0.2181818181818187,
                "tempo": 120.0
            },
            {
                "start_time": 105.35681818181817,
                "end_time": 105.57272727272726,
                "pitch": 40,
                "velocity": 64,
                "duration": 0.2159090909090935,
                "tempo": 120.0
            },
            {
                "start_time": 105.625,
                "end_time": 105.84545454545454,
                "pitch": 40,
                "velocity": 64,
                "duration": 0.2204545454545439,
                "tempo": 120.0
            },
            {
                "start_time": 105.89545454545454,
                "end_time": 106.11818181818181,
                "pitch": 40,
                "velocity": 64,
                "duration": 0.2227272727272691,
                "tempo": 120.0
            },
            {
                "start_time": 106.16818181818181,
                "end_time": 106.38636363636363,
                "pitch": 40,
                "velocity": 64,
                "duration": 0.2181818181818187,
                "tempo": 120.0
            },
            {
                "start_time": 106.43636363636364,
                "end_time": 106.65454545454546,
                "pitch": 40,
                "velocity": 64,
                "duration": 0.2181818181818187,
                "tempo": 120.0
            },
            {
                "start_time": 106.70454545454545,
                "end_time": 106.925,
                "pitch": 40,
                "velocity": 64,
                "duration": 0.2204545454545439,
                "tempo": 120.0
            },
            {
                "start_time": 106.97727272727272,
                "end_time": 107.19772727272726,
                "pitch": 40,
                "velocity": 64,
                "duration": 0.2204545454545439,
                "tempo": 120.0
            },
            {
                "start_time": 107.24772727272726,
                "end_time": 107.46590909090908,
                "pitch": 40,
                "velocity": 64,
                "duration": 0.2181818181818187,
                "tempo": 120.0
            },
            {
                "start_time": 107.51590909090909,
                "end_time": 107.73409090909091,
                "pitch": 40,
                "velocity": 64,
                "duration": 0.2181818181818187,
                "tempo": 120.0
            },
            {
                "start_time": 107.7840909090909,
                "end_time": 108.00454545454545,
                "pitch": 38,
                "velocity": 64,
                "duration": 0.2204545454545439,
                "tempo": 120.0
            },
            {
                "start_time": 108.05681818181817,
                "end_time": 108.27727272727272,
                "pitch": 38,
                "velocity": 64,
                "duration": 0.2204545454545439,
                "tempo": 120.0
            },
            {
                "start_time": 108.32954545454545,
                "end_time": 108.54545454545455,
                "pitch": 38,
                "velocity": 64,
                "duration": 0.2159090909090935,
                "tempo": 120.0
            },
            {
                "start_time": 108.59545454545454,
                "end_time": 108.81363636363636,
                "pitch": 38,
                "velocity": 64,
                "duration": 0.2181818181818187,
                "tempo": 120.0
            },
            {
                "start_time": 108.86363636363636,
                "end_time": 109.08181818181818,
                "pitch": 38,
                "velocity": 64,
                "duration": 0.2181818181818187,
                "tempo": 120.0
            },
            {
                "start_time": 109.13181818181818,
                "end_time": 109.34772727272727,
                "pitch": 38,
                "velocity": 64,
                "duration": 0.2159090909090935,
                "tempo": 120.0
            },
            {
                "start_time": 109.39999999999999,
                "end_time": 109.62045454545454,
                "pitch": 38,
                "velocity": 64,
                "duration": 0.2204545454545439,
                "tempo": 120.0
            },
            {
                "start_time": 109.67045454545455,
                "end_time": 109.89090909090909,
                "pitch": 38,
                "velocity": 64,
                "duration": 0.2204545454545439,
                "tempo": 120.0
            },
            {
                "start_time": 109.94318181818181,
                "end_time": 110.16136363636363,
                "pitch": 38,
                "velocity": 64,
                "duration": 0.2181818181818187,
                "tempo": 120.0
            },
            {
                "start_time": 110.21136363636363,
                "end_time": 110.42727272727272,
                "pitch": 38,
                "velocity": 64,
                "duration": 0.2159090909090935,
                "tempo": 120.0
            },
            {
                "start_time": 110.47954545454544,
                "end_time": 110.69545454545454,
                "pitch": 38,
                "velocity": 64,
                "duration": 0.2159090909090935,
                "tempo": 120.0
            },
            {
                "start_time": 110.74545454545454,
                "end_time": 110.96363636363635,
                "pitch": 38,
                "velocity": 64,
                "duration": 0.2181818181818187,
                "tempo": 120.0
            },
            {
                "start_time": 111.01363636363635,
                "end_time": 111.23409090909091,
                "pitch": 38,
                "velocity": 64,
                "duration": 0.22045454545455812,
                "tempo": 120.0
            },
            {
                "start_time": 107.7840909090909,
                "end_time": 111.50681818181818,
                "pitch": 40,
                "velocity": 64,
                "duration": 3.722727272727269,
                "tempo": 120.0
            },
            {
                "start_time": 111.28636363636363,
                "end_time": 111.50681818181818,
                "pitch": 40,
                "velocity": 64,
                "duration": 0.2204545454545439,
                "tempo": 120.0
            },
            {
                "start_time": 111.5590909090909,
                "end_time": 111.77499999999999,
                "pitch": 40,
                "velocity": 64,
                "duration": 0.2159090909090935,
                "tempo": 120.0
            },
            {
                "start_time": 111.82499999999999,
                "end_time": 112.04318181818181,
                "pitch": 42,
                "velocity": 64,
                "duration": 0.2181818181818187,
                "tempo": 120.0
            },
            {
                "start_time": 77.05227272727272,
                "end_time": 112.09318181818182,
                "pitch": 54,
                "velocity": 64,
                "duration": 35.040909090909096,
                "tempo": 120.0
            },
            {
                "start_time": 112.09318181818182,
                "end_time": 112.31363636363636,
                "pitch": 43,
                "velocity": 64,
                "duration": 0.2204545454545439,
                "tempo": 120.0
            },
            {
                "start_time": 112.36590909090908,
                "end_time": 112.58636363636363,
                "pitch": 43,
                "velocity": 64,
                "duration": 0.2204545454545439,
                "tempo": 120.0
            },
            {
                "start_time": 112.63863636363635,
                "end_time": 112.85454545454544,
                "pitch": 43,
                "velocity": 64,
                "duration": 0.2159090909090935,
                "tempo": 120.0
            },
            {
                "start_time": 112.90454545454546,
                "end_time": 113.12272727272726,
                "pitch": 43,
                "velocity": 64,
                "duration": 0.2181818181818045,
                "tempo": 120.0
            },
            {
                "start_time": 113.17272727272727,
                "end_time": 113.39318181818182,
                "pitch": 43,
                "velocity": 64,
                "duration": 0.2204545454545439,
                "tempo": 120.0
            },
            {
                "start_time": 113.44545454545454,
                "end_time": 113.66590909090908,
                "pitch": 43,
                "velocity": 64,
                "duration": 0.2204545454545439,
                "tempo": 120.0
            },
            {
                "start_time": 113.71818181818182,
                "end_time": 113.9340909090909,
                "pitch": 43,
                "velocity": 64,
                "duration": 0.21590909090907928,
                "tempo": 120.0
            },
            {
                "start_time": 113.98636363636363,
                "end_time": 114.20227272727273,
                "pitch": 43,
                "velocity": 64,
                "duration": 0.2159090909090935,
                "tempo": 120.0
            },
            {
                "start_time": 114.25227272727273,
                "end_time": 114.47045454545454,
                "pitch": 43,
                "velocity": 64,
                "duration": 0.2181818181818187,
                "tempo": 120.0
            },
            {
                "start_time": 114.52045454545454,
                "end_time": 114.73863636363636,
                "pitch": 43,
                "velocity": 64,
                "duration": 0.2181818181818187,
                "tempo": 120.0
            },
            {
                "start_time": 114.78863636363636,
                "end_time": 115.0090909090909,
                "pitch": 43,
                "velocity": 64,
                "duration": 0.2204545454545439,
                "tempo": 120.0
            },
            {
                "start_time": 115.0590909090909,
                "end_time": 115.28181818181818,
                "pitch": 43,
                "velocity": 64,
                "duration": 0.22272727272728332,
                "tempo": 120.0
            },
            {
                "start_time": 115.3340909090909,
                "end_time": 115.55,
                "pitch": 43,
                "velocity": 64,
                "duration": 0.2159090909090935,
                "tempo": 120.0
            },
            {
                "start_time": 115.6,
                "end_time": 115.81818181818181,
                "pitch": 43,
                "velocity": 64,
                "duration": 0.2181818181818187,
                "tempo": 120.0
            },
            {
                "start_time": 98.0840909090909,
                "end_time": 115.86818181818181,
                "pitch": 0,
                "velocity": 64,
                "duration": 17.784090909090907,
                "tempo": 120.0
            },
            {
                "start_time": 115.86818181818181,
                "end_time": 116.0840909090909,
                "pitch": 42,
                "velocity": 64,
                "duration": 0.2159090909090935,
                "tempo": 120.0
            },
            {
                "start_time": 116.13636363636363,
                "end_time": 116.35227272727272,
                "pitch": 42,
                "velocity": 64,
                "duration": 0.2159090909090935,
                "tempo": 120.0
            },
            {
                "start_time": 116.40227272727272,
                "end_time": 116.62272727272726,
                "pitch": 42,
                "velocity": 64,
                "duration": 0.2204545454545439,
                "tempo": 120.0
            },
            {
                "start_time": 75.7090909090909,
                "end_time": 116.89545454545454,
                "pitch": 41,
                "velocity": 64,
                "duration": 41.18636363636364,
                "tempo": 120.0
            },
            {
                "start_time": 116.675,
                "end_time": 116.89545454545454,
                "pitch": 41,
                "velocity": 64,
                "duration": 0.2204545454545439,
                "tempo": 120.0
            },
            {
                "start_time": 116.94772727272726,
                "end_time": 117.16590909090908,
                "pitch": 41,
                "velocity": 64,
                "duration": 0.2181818181818187,
                "tempo": 120.0
            },
            {
                "start_time": 117.21590909090908,
                "end_time": 117.43181818181817,
                "pitch": 41,
                "velocity": 64,
                "duration": 0.2159090909090935,
                "tempo": 120.0
            },
            {
                "start_time": 117.48181818181817,
                "end_time": 117.69999999999999,
                "pitch": 41,
                "velocity": 64,
                "duration": 0.2181818181818187,
                "tempo": 120.0
            },
            {
                "start_time": 117.75,
                "end_time": 117.96818181818182,
                "pitch": 41,
                "velocity": 64,
                "duration": 0.2181818181818187,
                "tempo": 120.0
            },
            {
                "start_time": 118.01818181818182,
                "end_time": 118.23863636363636,
                "pitch": 41,
                "velocity": 64,
                "duration": 0.2204545454545439,
                "tempo": 120.0
            },
            {
                "start_time": 118.29090909090908,
                "end_time": 118.51136363636363,
                "pitch": 41,
                "velocity": 64,
                "duration": 0.2204545454545439,
                "tempo": 120.0
            },
            {
                "start_time": 118.56136363636364,
                "end_time": 118.77954545454544,
                "pitch": 41,
                "velocity": 64,
                "duration": 0.2181818181818045,
                "tempo": 120.0
            },
            {
                "start_time": 118.82954545454545,
                "end_time": 119.04772727272727,
                "pitch": 41,
                "velocity": 64,
                "duration": 0.2181818181818187,
                "tempo": 120.0
            },
            {
                "start_time": 119.09772727272727,
                "end_time": 119.31818181818181,
                "pitch": 41,
                "velocity": 64,
                "duration": 0.2204545454545439,
                "tempo": 120.0
            },
            {
                "start_time": 119.37045454545454,
                "end_time": 119.59090909090908,
                "pitch": 41,
                "velocity": 64,
                "duration": 0.2204545454545439,
                "tempo": 120.0
            },
            {
                "start_time": 119.64318181818182,
                "end_time": 119.85909090909091,
                "pitch": 41,
                "velocity": 64,
                "duration": 0.2159090909090935,
                "tempo": 120.0
            },
            {
                "start_time": 119.9090909090909,
                "end_time": 120.12727272727273,
                "pitch": 41,
                "velocity": 64,
                "duration": 0.2181818181818187,
                "tempo": 120.0
            },
            {
                "start_time": 120.17727272727272,
                "end_time": 120.39772727272727,
                "pitch": 41,
                "velocity": 64,
                "duration": 0.2204545454545439,
                "tempo": 120.0
            },
            {
                "start_time": 120.44999999999999,
                "end_time": 120.67045454545453,
                "pitch": 41,
                "velocity": 64,
                "duration": 0.2204545454545439,
                "tempo": 120.0
            },
            {
                "start_time": 120.72272727272727,
                "end_time": 120.93863636363636,
                "pitch": 41,
                "velocity": 64,
                "duration": 0.2159090909090935,
                "tempo": 120.0
            },
            {
                "start_time": 120.98863636363636,
                "end_time": 121.20681818181818,
                "pitch": 40,
                "velocity": 64,
                "duration": 0.2181818181818187,
                "tempo": 120.0
            },
            {
                "start_time": 121.25681818181818,
                "end_time": 121.475,
                "pitch": 40,
                "velocity": 64,
                "duration": 0.2181818181818187,
                "tempo": 120.0
            },
            {
                "start_time": 121.52499999999999,
                "end_time": 121.74090909090908,
                "pitch": 40,
                "velocity": 64,
                "duration": 0.2159090909090935,
                "tempo": 120.0
            },
            {
                "start_time": 121.79318181818181,
                "end_time": 122.01363636363635,
                "pitch": 40,
                "velocity": 64,
                "duration": 0.2204545454545439,
                "tempo": 120.0
            },
            {
                "start_time": 122.06363636363636,
                "end_time": 122.28636363636363,
                "pitch": 40,
                "velocity": 64,
                "duration": 0.2227272727272691,
                "tempo": 120.0
            },
            {
                "start_time": 122.33636363636363,
                "end_time": 122.55454545454545,
                "pitch": 40,
                "velocity": 64,
                "duration": 0.2181818181818187,
                "tempo": 120.0
            },
            {
                "start_time": 122.60454545454544,
                "end_time": 122.82045454545454,
                "pitch": 40,
                "velocity": 64,
                "duration": 0.2159090909090935,
                "tempo": 120.0
            },
            {
                "start_time": 122.87272727272726,
                "end_time": 123.09318181818182,
                "pitch": 40,
                "velocity": 64,
                "duration": 0.22045454545455812,
                "tempo": 120.0
            },
            {
                "start_time": 123.14318181818182,
                "end_time": 123.36590909090908,
                "pitch": 40,
                "velocity": 64,
                "duration": 0.2227272727272691,
                "tempo": 120.0
            },
            {
                "start_time": 123.41590909090908,
                "end_time": 123.6340909090909,
                "pitch": 40,
                "velocity": 64,
                "duration": 0.2181818181818187,
                "tempo": 120.0
            },
            {
                "start_time": 123.6840909090909,
                "end_time": 123.90227272727272,
                "pitch": 40,
                "velocity": 64,
                "duration": 0.2181818181818187,
                "tempo": 120.0
            },
            {
                "start_time": 123.95227272727273,
                "end_time": 124.16818181818181,
                "pitch": 40,
                "velocity": 64,
                "duration": 0.21590909090907928,
                "tempo": 120.0
            },
            {
                "start_time": 124.22045454545454,
                "end_time": 124.43636363636364,
                "pitch": 40,
                "velocity": 64,
                "duration": 0.2159090909090935,
                "tempo": 120.0
            },
            {
                "start_time": 111.28636363636363,
                "end_time": 124.70681818181818,
                "pitch": 38,
                "velocity": 64,
                "duration": 13.420454545454547,
                "tempo": 120.0
            },
            {
                "start_time": 124.48636363636363,
                "end_time": 124.70681818181818,
                "pitch": 38,
                "velocity": 64,
                "duration": 0.2204545454545439,
                "tempo": 120.0
            },
            {
                "start_time": 124.7590909090909,
                "end_time": 124.97954545454544,
                "pitch": 38,
                "velocity": 64,
                "duration": 0.2204545454545439,
                "tempo": 120.0
            },
            {
                "start_time": 125.03181818181818,
                "end_time": 125.24772727272726,
                "pitch": 36,
                "velocity": 64,
                "duration": 0.21590909090907928,
                "tempo": 120.0
            },
            {
                "start_time": 125.3,
                "end_time": 125.51590909090909,
                "pitch": 36,
                "velocity": 64,
                "duration": 0.2159090909090935,
                "tempo": 120.0
            },
            {
                "start_time": 125.56590909090909,
                "end_time": 125.78863636363636,
                "pitch": 36,
                "velocity": 64,
                "duration": 0.2227272727272691,
                "tempo": 120.0
            },
            {
                "start_time": 125.83863636363635,
                "end_time": 126.0590909090909,
                "pitch": 36,
                "velocity": 64,
                "duration": 0.2204545454545439,
                "tempo": 120.0
            },
            {
                "start_time": 126.11136363636363,
                "end_time": 126.32954545454545,
                "pitch": 36,
                "velocity": 64,
                "duration": 0.2181818181818187,
                "tempo": 120.0
            },
            {
                "start_time": 126.37954545454545,
                "end_time": 126.59545454545454,
                "pitch": 36,
                "velocity": 64,
                "duration": 0.2159090909090935,
                "tempo": 120.0
            },
            {
                "start_time": 126.64772727272727,
                "end_time": 126.86818181818181,
                "pitch": 36,
                "velocity": 64,
                "duration": 0.2204545454545439,
                "tempo": 120.0
            },
            {
                "start_time": 126.91818181818181,
                "end_time": 127.13863636363635,
                "pitch": 36,
                "velocity": 64,
                "duration": 0.2204545454545439,
                "tempo": 120.0
            },
            {
                "start_time": 125.03181818181818,
                "end_time": 127.4090909090909,
                "pitch": 38,
                "velocity": 64,
                "duration": 2.377272727272725,
                "tempo": 120.0
            },
            {
                "start_time": 127.19090909090909,
                "end_time": 127.4090909090909,
                "pitch": 38,
                "velocity": 64,
                "duration": 0.2181818181818187,
                "tempo": 120.0
            },
            {
                "start_time": 127.4590909090909,
                "end_time": 127.675,
                "pitch": 38,
                "velocity": 64,
                "duration": 0.2159090909090935,
                "tempo": 120.0
            },
            {
                "start_time": 127.72727272727272,
                "end_time": 127.94318181818181,
                "pitch": 38,
                "velocity": 64,
                "duration": 0.2159090909090935,
                "tempo": 120.0
            },
            {
                "start_time": 127.99318181818181,
                "end_time": 128.21136363636364,
                "pitch": 38,
                "velocity": 64,
                "duration": 0.2181818181818329,
                "tempo": 120.0
            },
            {
                "start_time": 128.26136363636363,
                "end_time": 128.48181818181817,
                "pitch": 38,
                "velocity": 64,
                "duration": 0.2204545454545439,
                "tempo": 120.0
            },
            {
                "start_time": 128.5340909090909,
                "end_time": 128.75454545454545,
                "pitch": 38,
                "velocity": 64,
                "duration": 0.2204545454545439,
                "tempo": 120.0
            },
            {
                "start_time": 128.8068181818182,
                "end_time": 129.02272727272728,
                "pitch": 38,
                "velocity": 64,
                "duration": 0.2159090909090935,
                "tempo": 120.0
            },
            {
                "start_time": 129.07272727272726,
                "end_time": 129.29090909090908,
                "pitch": 38,
                "velocity": 64,
                "duration": 0.2181818181818187,
                "tempo": 120.0
            },
            {
                "start_time": 124.48636363636363,
                "end_time": 129.42499999999998,
                "pitch": 40,
                "velocity": 64,
                "duration": 4.938636363636348,
                "tempo": 120.0
            },
            {
                "start_time": 129.3409090909091,
                "end_time": 129.42499999999998,
                "pitch": 40,
                "velocity": 64,
                "duration": 0.08409090909088945,
                "tempo": 120.0
            },
            {
                "start_time": 129.47727272727272,
                "end_time": 129.56136363636364,
                "pitch": 40,
                "velocity": 64,
                "duration": 0.08409090909091788,
                "tempo": 120.0
            },
            {
                "start_time": 129.3409090909091,
                "end_time": 129.69772727272726,
                "pitch": 38,
                "velocity": 64,
                "duration": 0.35681818181816993,
                "tempo": 120.0
            },
            {
                "start_time": 129.61363636363635,
                "end_time": 129.69772727272726,
                "pitch": 38,
                "velocity": 64,
                "duration": 0.08409090909091788,
                "tempo": 120.0
            },
            {
                "start_time": 129.61363636363635,
                "end_time": 129.8340909090909,
                "pitch": 40,
                "velocity": 64,
                "duration": 0.2204545454545439,
                "tempo": 120.0
            },
            {
                "start_time": 129.75,
                "end_time": 129.8340909090909,
                "pitch": 40,
                "velocity": 64,
                "duration": 0.08409090909088945,
                "tempo": 120.0
            },
            {
                "start_time": 112.09318181818182,
                "end_time": 130.15454545454546,
                "pitch": 54,
                "velocity": 64,
                "duration": 18.061363636363637,
                "tempo": 120.0
            },
            {
                "start_time": 130.15454545454546,
                "end_time": 130.37045454545455,
                "pitch": 43,
                "velocity": 64,
                "duration": 0.2159090909090935,
                "tempo": 120.0
            },
            {
                "start_time": 130.42045454545453,
                "end_time": 130.63863636363635,
                "pitch": 43,
                "velocity": 64,
                "duration": 0.2181818181818187,
                "tempo": 120.0
            },
            {
                "start_time": 130.68863636363636,
                "end_time": 130.77272727272728,
                "pitch": 57,
                "velocity": 64,
                "duration": 0.08409090909091788,
                "tempo": 120.0
            },
            {
                "start_time": 130.82272727272726,
                "end_time": 131.03863636363636,
                "pitch": 45,
                "velocity": 64,
                "duration": 0.2159090909090935,
                "tempo": 120.0
            },
            {
                "start_time": 131.0909090909091,
                "end_time": 131.17272727272726,
                "pitch": 43,
                "velocity": 64,
                "duration": 0.08181818181816425,
                "tempo": 120.0
            },
            {
                "start_time": 131.22272727272727,
                "end_time": 131.3068181818182,
                "pitch": 55,
                "velocity": 64,
                "duration": 0.08409090909091788,
                "tempo": 120.0
            },
            {
                "start_time": 131.35681818181817,
                "end_time": 131.4409090909091,
                "pitch": 45,
                "velocity": 64,
                "duration": 0.08409090909091788,
                "tempo": 120.0
            },
            {
                "start_time": 75.98181818181818,
                "end_time": 131.49090909090907,
                "pitch": 7,
                "velocity": 64,
                "duration": 55.50909090909089,
                "tempo": 120.0
            },
            {
                "start_time": 131.49090909090907,
                "end_time": 131.575,
                "pitch": 40,
                "velocity": 64,
                "duration": 0.08409090909091788,
                "tempo": 120.0
            },
            {
                "start_time": 131.62727272727273,
                "end_time": 131.71136363636364,
                "pitch": 40,
                "velocity": 64,
                "duration": 0.08409090909091788,
                "tempo": 120.0
            },
            {
                "start_time": 129.75,
                "end_time": 131.84772727272727,
                "pitch": 38,
                "velocity": 64,
                "duration": 2.097727272727269,
                "tempo": 120.0
            },
            {
                "start_time": 131.76363636363635,
                "end_time": 131.84772727272727,
                "pitch": 38,
                "velocity": 64,
                "duration": 0.08409090909091788,
                "tempo": 120.0
            },
            {
                "start_time": 131.76363636363635,
                "end_time": 131.9840909090909,
                "pitch": 40,
                "velocity": 64,
                "duration": 0.2204545454545439,
                "tempo": 120.0
            },
            {
                "start_time": 131.9,
                "end_time": 131.9840909090909,
                "pitch": 40,
                "velocity": 64,
                "duration": 0.08409090909088945,
                "tempo": 120.0
            },
            {
                "start_time": 130.15454545454546,
                "end_time": 132.30454545454546,
                "pitch": 54,
                "velocity": 64,
                "duration": 2.1500000000000057,
                "tempo": 120.0
            },
            {
                "start_time": 132.30454545454546,
                "end_time": 132.52045454545453,
                "pitch": 43,
                "velocity": 64,
                "duration": 0.21590909090906507,
                "tempo": 120.0
            },
            {
                "start_time": 132.57045454545454,
                "end_time": 132.78863636363636,
                "pitch": 43,
                "velocity": 64,
                "duration": 0.2181818181818187,
                "tempo": 120.0
            },
            {
                "start_time": 132.83863636363637,
                "end_time": 132.92272727272726,
                "pitch": 57,
                "velocity": 64,
                "duration": 0.08409090909088945,
                "tempo": 120.0
            },
            {
                "start_time": 132.97272727272727,
                "end_time": 133.1909090909091,
                "pitch": 45,
                "velocity": 64,
                "duration": 0.2181818181818187,
                "tempo": 120.0
            },
            {
                "start_time": 133.24318181818182,
                "end_time": 133.3272727272727,
                "pitch": 43,
                "velocity": 64,
                "duration": 0.08409090909088945,
                "tempo": 120.0
            },
            {
                "start_time": 133.37954545454545,
                "end_time": 133.46363636363637,
                "pitch": 55,
                "velocity": 64,
                "duration": 0.08409090909091788,
                "tempo": 120.0
            },
            {
                "start_time": 133.51363636363635,
                "end_time": 133.6,
                "pitch": 45,
                "velocity": 64,
                "duration": 0.08636363636364308,
                "tempo": 120.0
            },
            {
                "start_time": 131.49090909090907,
                "end_time": 133.65,
                "pitch": 7,
                "velocity": 64,
                "duration": 2.159090909090935,
                "tempo": 120.0
            },
            {
                "start_time": 133.65,
                "end_time": 133.73636363636362,
                "pitch": 40,
                "velocity": 64,
                "duration": 0.08636363636361466,
                "tempo": 120.0
            },
            {
                "start_time": 133.78636363636363,
                "end_time": 133.87272727272727,
                "pitch": 40,
                "velocity": 64,
                "duration": 0.08636363636364308,
                "tempo": 120.0
            },
            {
                "start_time": 131.9,
                "end_time": 134.0090909090909,
                "pitch": 38,
                "velocity": 64,
                "duration": 2.109090909090895,
                "tempo": 120.0
            },
            {
                "start_time": 133.92272727272726,
                "end_time": 134.0090909090909,
                "pitch": 38,
                "velocity": 64,
                "duration": 0.08636363636364308,
                "tempo": 120.0
            },
            {
                "start_time": 133.92272727272726,
                "end_time": 134.1431818181818,
                "pitch": 40,
                "velocity": 64,
                "duration": 0.2204545454545439,
                "tempo": 120.0
            },
            {
                "start_time": 134.0590909090909,
                "end_time": 134.1431818181818,
                "pitch": 40,
                "velocity": 64,
                "duration": 0.08409090909088945,
                "tempo": 120.0
            },
            {
                "start_time": 132.30454545454546,
                "end_time": 134.46363636363637,
                "pitch": 54,
                "velocity": 64,
                "duration": 2.1590909090909065,
                "tempo": 120.0
            },
            {
                "start_time": 134.46363636363637,
                "end_time": 134.67954545454546,
                "pitch": 43,
                "velocity": 64,
                "duration": 0.2159090909090935,
                "tempo": 120.0
            },
            {
                "start_time": 134.73181818181817,
                "end_time": 134.94772727272726,
                "pitch": 43,
                "velocity": 64,
                "duration": 0.2159090909090935,
                "tempo": 120.0
            },
            {
                "start_time": 134.99772727272727,
                "end_time": 135.08181818181816,
                "pitch": 57,
                "velocity": 64,
                "duration": 0.08409090909088945,
                "tempo": 120.0
            },
            {
                "start_time": 135.13181818181818,
                "end_time": 135.35,
                "pitch": 45,
                "velocity": 64,
                "duration": 0.2181818181818187,
                "tempo": 120.0
            },
            {
                "start_time": 135.4,
                "end_time": 135.4840909090909,
                "pitch": 43,
                "velocity": 64,
                "duration": 0.08409090909088945,
                "tempo": 120.0
            },
            {
                "start_time": 135.5340909090909,
                "end_time": 135.61590909090907,
                "pitch": 55,
                "velocity": 64,
                "duration": 0.08181818181816425,
                "tempo": 120.0
            },
            {
                "start_time": 135.6681818181818,
                "end_time": 135.75,
                "pitch": 45,
                "velocity": 64,
                "duration": 0.08181818181819267,
                "tempo": 120.0
            },
            {
                "start_time": 133.65,
                "end_time": 135.8022727272727,
                "pitch": 7,
                "velocity": 64,
                "duration": 2.1522727272727025,
                "tempo": 120.0
            },
            {
                "start_time": 135.8022727272727,
                "end_time": 135.88636363636363,
                "pitch": 40,
                "velocity": 64,
                "duration": 0.08409090909091788,
                "tempo": 120.0
            },
            {
                "start_time": 135.93636363636364,
                "end_time": 136.02272727272725,
                "pitch": 40,
                "velocity": 64,
                "duration": 0.08636363636361466,
                "tempo": 120.0
            },
            {
                "start_time": 134.0590909090909,
                "end_time": 136.1590909090909,
                "pitch": 38,
                "velocity": 64,
                "duration": 2.0999999999999943,
                "tempo": 120.0
            },
            {
                "start_time": 136.07272727272726,
                "end_time": 136.1590909090909,
                "pitch": 38,
                "velocity": 64,
                "duration": 0.08636363636364308,
                "tempo": 120.0
            },
            {
                "start_time": 136.07272727272726,
                "end_time": 136.29545454545453,
                "pitch": 40,
                "velocity": 64,
                "duration": 0.2227272727272691,
                "tempo": 120.0
            },
            {
                "start_time": 136.2090909090909,
                "end_time": 136.29545454545453,
                "pitch": 40,
                "velocity": 64,
                "duration": 0.08636363636364308,
                "tempo": 120.0
            },
            {
                "start_time": 134.46363636363637,
                "end_time": 136.61363636363635,
                "pitch": 54,
                "velocity": 64,
                "duration": 2.1499999999999773,
                "tempo": 120.0
            },
            {
                "start_time": 136.61363636363635,
                "end_time": 136.82954545454544,
                "pitch": 43,
                "velocity": 64,
                "duration": 0.2159090909090935,
                "tempo": 120.0
            },
            {
                "start_time": 136.88181818181818,
                "end_time": 137.09772727272727,
                "pitch": 43,
                "velocity": 64,
                "duration": 0.2159090909090935,
                "tempo": 120.0
            },
            {
                "start_time": 137.14772727272725,
                "end_time": 137.23181818181817,
                "pitch": 57,
                "velocity": 64,
                "duration": 0.08409090909091788,
                "tempo": 120.0
            },
            {
                "start_time": 137.28181818181818,
                "end_time": 137.5,
                "pitch": 45,
                "velocity": 64,
                "duration": 0.2181818181818187,
                "tempo": 120.0
            },
            {
                "start_time": 137.5522727272727,
                "end_time": 137.63636363636363,
                "pitch": 43,
                "velocity": 64,
                "duration": 0.08409090909091788,
                "tempo": 120.0
            },
            {
                "start_time": 137.68863636363636,
                "end_time": 137.77272727272725,
                "pitch": 55,
                "velocity": 64,
                "duration": 0.08409090909088945,
                "tempo": 120.0
            },
            {
                "start_time": 137.825,
                "end_time": 137.9090909090909,
                "pitch": 45,
                "velocity": 64,
                "duration": 0.08409090909091788,
                "tempo": 120.0
            },
            {
                "start_time": 135.8022727272727,
                "end_time": 137.96136363636364,
                "pitch": 7,
                "velocity": 64,
                "duration": 2.159090909090935,
                "tempo": 120.0
            },
            {
                "start_time": 137.96136363636364,
                "end_time": 138.0431818181818,
                "pitch": 40,
                "velocity": 64,
                "duration": 0.08181818181816425,
                "tempo": 120.0
            },
            {
                "start_time": 138.09545454545454,
                "end_time": 138.1772727272727,
                "pitch": 40,
                "velocity": 64,
                "duration": 0.08181818181816425,
                "tempo": 120.0
            }
        ],
        "Acoustic Grand Piano": [
            {
                "start_time": 92.96363636363635,
                "end_time": 93.04772727272727,
                "pitch": 51,
                "velocity": 40,
                "duration": 0.08409090909091788,
                "tempo": 120.0
            },
            {
                "start_time": 93.09772727272727,
                "end_time": 93.17954545454545,
                "pitch": 52,
                "velocity": 40,
                "duration": 0.08181818181817846,
                "tempo": 120.0
            },
            {
                "start_time": 93.23181818181818,
                "end_time": 93.31363636363636,
                "pitch": 59,
                "velocity": 40,
                "duration": 0.08181818181817846,
                "tempo": 120.0
            },
            {
                "start_time": 93.36590909090908,
                "end_time": 93.44772727272726,
                "pitch": 61,
                "velocity": 40,
                "duration": 0.08181818181817846,
                "tempo": 120.0
            },
            {
                "start_time": 93.5,
                "end_time": 93.58181818181818,
                "pitch": 63,
                "velocity": 40,
                "duration": 0.08181818181817846,
                "tempo": 120.0
            },
            {
                "start_time": 93.6340909090909,
                "end_time": 93.71590909090908,
                "pitch": 63,
                "velocity": 40,
                "duration": 0.08181818181817846,
                "tempo": 120.0
            },
            {
                "start_time": 93.76818181818182,
                "end_time": 93.85,
                "pitch": 64,
                "velocity": 40,
                "duration": 0.08181818181817846,
                "tempo": 120.0
            },
            {
                "start_time": 93.23181818181818,
                "end_time": 94.11590909090908,
                "pitch": 66,
                "velocity": 40,
                "duration": 0.8840909090909008,
                "tempo": 120.0
            },
            {
                "start_time": 94.0340909090909,
                "end_time": 94.11590909090908,
                "pitch": 66,
                "velocity": 40,
                "duration": 0.08181818181817846,
                "tempo": 120.0
            },
            {
                "start_time": 94.16818181818181,
                "end_time": 94.25,
                "pitch": 67,
                "velocity": 40,
                "duration": 0.08181818181819267,
                "tempo": 120.0
            },
            {
                "start_time": 94.30227272727272,
                "end_time": 94.38636363636363,
                "pitch": 67,
                "velocity": 40,
                "duration": 0.08409090909090366,
                "tempo": 120.0
            },
            {
                "start_time": 94.43863636363636,
                "end_time": 94.52272727272727,
                "pitch": 71,
                "velocity": 40,
                "duration": 0.08409090909090366,
                "tempo": 120.0
            },
            {
                "start_time": 94.57499999999999,
                "end_time": 94.6590909090909,
                "pitch": 72,
                "velocity": 40,
                "duration": 0.08409090909091788,
                "tempo": 120.0
            },
            {
                "start_time": 94.71136363636363,
                "end_time": 94.79545454545455,
                "pitch": 74,
                "velocity": 40,
                "duration": 0.08409090909091788,
                "tempo": 120.0
            },
            {
                "start_time": 94.84772727272727,
                "end_time": 94.92954545454545,
                "pitch": 91,
                "velocity": 40,
                "duration": 0.08181818181817846,
                "tempo": 120.0
            },
            {
                "start_time": 94.98181818181818,
                "end_time": 95.06590909090909,
                "pitch": 90,
                "velocity": 40,
                "duration": 0.08409090909090366,
                "tempo": 120.0
            },
            {
                "start_time": 95.12045454545454,
                "end_time": 95.20227272727273,
                "pitch": 91,
                "velocity": 40,
                "duration": 0.08181818181819267,
                "tempo": 120.0
            },
            {
                "start_time": 94.98181818181818,
                "end_time": 95.25454545454545,
                "pitch": 7,
                "velocity": 40,
                "duration": 0.27272727272726627,
                "tempo": 120.0
            },
            {
                "start_time": 95.25454545454545,
                "end_time": 95.33863636363635,
                "pitch": 86,
                "velocity": 40,
                "duration": 0.08409090909090366,
                "tempo": 120.0
            },
            {
                "start_time": 94.84772727272727,
                "end_time": 95.39090909090909,
                "pitch": 101,
                "velocity": 40,
                "duration": 0.5431818181818215,
                "tempo": 120.0
            },
            {
                "start_time": 95.39090909090909,
                "end_time": 95.47272727272727,
                "pitch": 91,
                "velocity": 40,
                "duration": 0.08181818181817846,
                "tempo": 120.0
            },
            {
                "start_time": 95.25454545454545,
                "end_time": 95.52499999999999,
                "pitch": 7,
                "velocity": 40,
                "duration": 0.27045454545454106,
                "tempo": 120.0
            },
            {
                "start_time": 95.52499999999999,
                "end_time": 95.60681818181818,
                "pitch": 90,
                "velocity": 40,
                "duration": 0.08181818181819267,
                "tempo": 120.0
            },
            {
                "start_time": 95.12045454545454,
                "end_time": 95.6590909090909,
                "pitch": 102,
                "velocity": 40,
                "duration": 0.5386363636363711,
                "tempo": 120.0
            },
            {
                "start_time": 95.6590909090909,
                "end_time": 95.74090909090908,
                "pitch": 91,
                "velocity": 40,
                "duration": 0.08181818181817846,
                "tempo": 120.0
            },
            {
                "start_time": 95.52499999999999,
                "end_time": 95.79090909090908,
                "pitch": 7,
                "velocity": 40,
                "duration": 0.26590909090909065,
                "tempo": 120.0
            },
            {
                "start_time": 95.79090909090908,
                "end_time": 95.875,
                "pitch": 86,
                "velocity": 40,
                "duration": 0.08409090909091788,
                "tempo": 120.0
            },
            {
                "start_time": 95.39090909090909,
                "end_time": 95.92727272727272,
                "pitch": 101,
                "velocity": 40,
                "duration": 0.5363636363636317,
                "tempo": 120.0
            },
            {
                "start_time": 95.92727272727272,
                "end_time": 96.0090909090909,
                "pitch": 91,
                "velocity": 40,
                "duration": 0.08181818181817846,
                "tempo": 120.0
            },
            {
                "start_time": 95.79090909090908,
                "end_time": 96.06136363636364,
                "pitch": 7,
                "velocity": 40,
                "duration": 0.2704545454545553,
                "tempo": 120.0
            },
            {
                "start_time": 96.06136363636364,
                "end_time": 96.14545454545454,
                "pitch": 90,
                "velocity": 40,
                "duration": 0.08409090909090366,
                "tempo": 120.0
            },
            {
                "start_time": 95.6590909090909,
                "end_time": 96.19772727272726,
                "pitch": 102,
                "velocity": 40,
                "duration": 0.5386363636363569,
                "tempo": 120.0
            },
            {
                "start_time": 96.19772727272726,
                "end_time": 96.28181818181818,
                "pitch": 91,
                "velocity": 40,
                "duration": 0.08409090909091788,
                "tempo": 120.0
            },
            {
                "start_time": 96.06136363636364,
                "end_time": 96.3340909090909,
                "pitch": 7,
                "velocity": 40,
                "duration": 0.27272727272726627,
                "tempo": 120.0
            },
            {
                "start_time": 96.3340909090909,
                "end_time": 96.41818181818181,
                "pitch": 86,
                "velocity": 40,
                "duration": 0.08409090909090366,
                "tempo": 120.0
            },
            {
                "start_time": 95.92727272727272,
                "end_time": 96.47272727272727,
                "pitch": 101,
                "velocity": 40,
                "duration": 0.5454545454545467,
                "tempo": 120.0
            },
            {
                "start_time": 96.47272727272727,
                "end_time": 96.55454545454545,
                "pitch": 91,
                "velocity": 40,
                "duration": 0.08181818181817846,
                "tempo": 120.0
            },
            {
                "start_time": 96.3340909090909,
                "end_time": 96.60454545454544,
                "pitch": 7,
                "velocity": 40,
                "duration": 0.27045454545454106,
                "tempo": 120.0
            },
            {
                "start_time": 96.60454545454544,
                "end_time": 96.68636363636364,
                "pitch": 90,
                "velocity": 40,
                "duration": 0.08181818181819267,
                "tempo": 120.0
            },
            {
                "start_time": 96.19772727272726,
                "end_time": 96.73863636363636,
                "pitch": 102,
                "velocity": 40,
                "duration": 0.5409090909090963,
                "tempo": 120.0
            },
            {
                "start_time": 96.73863636363636,
                "end_time": 96.82045454545454,
                "pitch": 91,
                "velocity": 40,
                "duration": 0.08181818181817846,
                "tempo": 120.0
            },
            {
                "start_time": 96.60454545454544,
                "end_time": 96.87045454545454,
                "pitch": 7,
                "velocity": 40,
                "duration": 0.26590909090909065,
                "tempo": 120.0
            },
            {
                "start_time": 96.87045454545454,
                "end_time": 96.95454545454545,
                "pitch": 86,
                "velocity": 40,
                "duration": 0.08409090909091788,
                "tempo": 120.0
            },
            {
                "start_time": 96.47272727272727,
                "end_time": 97.00681818181818,
                "pitch": 101,
                "velocity": 40,
                "duration": 0.5340909090909065,
                "tempo": 120.0
            },
            {
                "start_time": 97.00681818181818,
                "end_time": 97.08863636363635,
                "pitch": 91,
                "velocity": 40,
                "duration": 0.08181818181817846,
                "tempo": 120.0
            },
            {
                "start_time": 96.87045454545454,
                "end_time": 97.13863636363637,
                "pitch": 7,
                "velocity": 40,
                "duration": 0.26818181818183007,
                "tempo": 120.0
            },
            {
                "start_time": 97.13863636363637,
                "end_time": 97.22272727272727,
                "pitch": 90,
                "velocity": 40,
                "duration": 0.08409090909090366,
                "tempo": 120.0
            },
            {
                "start_time": 96.73863636363636,
                "end_time": 97.27272727272727,
                "pitch": 102,
                "velocity": 40,
                "duration": 0.5340909090909065,
                "tempo": 120.0
            },
            {
                "start_time": 97.27272727272727,
                "end_time": 97.35681818181818,
                "pitch": 91,
                "velocity": 40,
                "duration": 0.08409090909091788,
                "tempo": 120.0
            },
            {
                "start_time": 97.13863636363637,
                "end_time": 97.40681818181818,
                "pitch": 7,
                "velocity": 40,
                "duration": 0.26818181818181586,
                "tempo": 120.0
            },
            {
                "start_time": 97.40681818181818,
                "end_time": 97.49090909090908,
                "pitch": 86,
                "velocity": 40,
                "duration": 0.08409090909090366,
                "tempo": 120.0
            },
            {
                "start_time": 97.00681818181818,
                "end_time": 97.54318181818181,
                "pitch": 101,
                "velocity": 40,
                "duration": 0.5363636363636317,
                "tempo": 120.0
            },
            {
                "start_time": 97.54090909090908,
                "end_time": 97.54318181818181,
                "pitch": 101,
                "velocity": 40,
                "duration": 0.0022727272727252057,
                "tempo": 120.0
            },
            {
                "start_time": 97.54318181818181,
                "end_time": 97.625,
                "pitch": 91,
                "velocity": 40,
                "duration": 0.08181818181819267,
                "tempo": 120.0
            },
            {
                "start_time": 97.40681818181818,
                "end_time": 97.67727272727272,
                "pitch": 7,
                "velocity": 40,
                "duration": 0.27045454545454106,
                "tempo": 120.0
            },
            {
                "start_time": 97.67727272727272,
                "end_time": 97.76136363636363,
                "pitch": 90,
                "velocity": 40,
                "duration": 0.08409090909090366,
                "tempo": 120.0
            },
            {
                "start_time": 97.27272727272727,
                "end_time": 97.81363636363636,
                "pitch": 102,
                "velocity": 40,
                "duration": 0.5409090909090963,
                "tempo": 120.0
            },
            {
                "start_time": 97.81363636363636,
                "end_time": 97.89772727272727,
                "pitch": 91,
                "velocity": 40,
                "duration": 0.08409090909090366,
                "tempo": 120.0
            },
            {
                "start_time": 97.67727272727272,
                "end_time": 97.94772727272726,
                "pitch": 7,
                "velocity": 40,
                "duration": 0.27045454545454106,
                "tempo": 120.0
            },
            {
                "start_time": 97.94772727272726,
                "end_time": 98.0340909090909,
                "pitch": 86,
                "velocity": 40,
                "duration": 0.08636363636364308,
                "tempo": 120.0
            },
            {
                "start_time": 98.08636363636363,
                "end_time": 98.16818181818181,
                "pitch": 91,
                "velocity": 40,
                "duration": 0.08181818181817846,
                "tempo": 120.0
            },
            {
                "start_time": 97.94772727272726,
                "end_time": 98.21818181818182,
                "pitch": 7,
                "velocity": 40,
                "duration": 0.2704545454545553,
                "tempo": 120.0
            },
            {
                "start_time": 98.21818181818182,
                "end_time": 98.30227272727272,
                "pitch": 90,
                "velocity": 40,
                "duration": 0.08409090909090366,
                "tempo": 120.0
            },
            {
                "start_time": 97.81363636363636,
                "end_time": 98.35454545454544,
                "pitch": 102,
                "velocity": 40,
                "duration": 0.5409090909090821,
                "tempo": 120.0
            },
            {
                "start_time": 98.35454545454544,
                "end_time": 98.43636363636364,
                "pitch": 91,
                "velocity": 40,
                "duration": 0.08181818181819267,
                "tempo": 120.0
            },
            {
                "start_time": 98.21818181818182,
                "end_time": 98.48636363636363,
                "pitch": 7,
                "velocity": 40,
                "duration": 0.26818181818181586,
                "tempo": 120.0
            },
            {
                "start_time": 98.48636363636363,
                "end_time": 98.57045454545454,
                "pitch": 86,
                "velocity": 40,
                "duration": 0.08409090909090366,
                "tempo": 120.0
            },
            {
                "start_time": 98.08636363636363,
                "end_time": 98.62272727272727,
                "pitch": 101,
                "velocity": 40,
                "duration": 0.5363636363636459,
                "tempo": 120.0
            },
            {
                "start_time": 98.62272727272727,
                "end_time": 98.70454545454545,
                "pitch": 91,
                "velocity": 40,
                "duration": 0.08181818181817846,
                "tempo": 120.0
            },
            {
                "start_time": 98.48636363636363,
                "end_time": 98.75454545454545,
                "pitch": 7,
                "velocity": 40,
                "duration": 0.26818181818181586,
                "tempo": 120.0
            },
            {
                "start_time": 98.75454545454545,
                "end_time": 98.83636363636363,
                "pitch": 90,
                "velocity": 40,
                "duration": 0.08181818181817846,
                "tempo": 120.0
            },
            {
                "start_time": 98.35454545454544,
                "end_time": 98.88863636363637,
                "pitch": 102,
                "velocity": 40,
                "duration": 0.5340909090909207,
                "tempo": 120.0
            },
            {
                "start_time": 98.88863636363637,
                "end_time": 98.97045454545454,
                "pitch": 91,
                "velocity": 40,
                "duration": 0.08181818181817846,
                "tempo": 120.0
            },
            {
                "start_time": 98.75454545454545,
                "end_time": 99.02272727272727,
                "pitch": 7,
                "velocity": 40,
                "duration": 0.26818181818181586,
                "tempo": 120.0
            },
            {
                "start_time": 99.02272727272727,
                "end_time": 99.10454545454544,
                "pitch": 88,
                "velocity": 40,
                "duration": 0.08181818181817846,
                "tempo": 120.0
            },
            {
                "start_time": 99.15681818181818,
                "end_time": 99.24090909090908,
                "pitch": 86,
                "velocity": 40,
                "duration": 0.08409090909090366,
                "tempo": 120.0
            },
            {
                "start_time": 99.29090909090908,
                "end_time": 99.37727272727273,
                "pitch": 86,
                "velocity": 40,
                "duration": 0.08636363636364308,
                "tempo": 120.0
            },
            {
                "start_time": 99.42954545454545,
                "end_time": 99.51136363636363,
                "pitch": 85,
                "velocity": 40,
                "duration": 0.08181818181817846,
                "tempo": 120.0
            },
            {
                "start_time": 99.56363636363636,
                "end_time": 99.64772727272727,
                "pitch": 81,
                "velocity": 40,
                "duration": 0.08409090909090366,
                "tempo": 120.0
            },
            {
                "start_time": 99.69999999999999,
                "end_time": 99.7840909090909,
                "pitch": 86,
                "velocity": 40,
                "duration": 0.08409090909091788,
                "tempo": 120.0
            },
            {
                "start_time": 99.8340909090909,
                "end_time": 99.91818181818181,
                "pitch": 86,
                "velocity": 40,
                "duration": 0.08409090909090366,
                "tempo": 120.0
            },
            {
                "start_time": 99.96818181818182,
                "end_time": 100.05,
                "pitch": 85,
                "velocity": 40,
                "duration": 0.08181818181817846,
                "tempo": 120.0
            },
            {
                "start_time": 99.56363636363636,
                "end_time": 100.10227272727272,
                "pitch": 89,
                "velocity": 40,
                "duration": 0.5386363636363569,
                "tempo": 120.0
            },
            {
                "start_time": 100.10227272727272,
                "end_time": 100.1840909090909,
                "pitch": 81,
                "velocity": 40,
                "duration": 0.08181818181817846,
                "tempo": 120.0
            },
            {
                "start_time": 99.69999999999999,
                "end_time": 100.23636363636363,
                "pitch": 55,
                "velocity": 40,
                "duration": 0.5363636363636459,
                "tempo": 120.0
            },
            {
                "start_time": 100.23636363636363,
                "end_time": 100.32045454545454,
                "pitch": 86,
                "velocity": 40,
                "duration": 0.08409090909090366,
                "tempo": 120.0
            },
            {
                "start_time": 100.37045454545454,
                "end_time": 100.45681818181818,
                "pitch": 86,
                "velocity": 40,
                "duration": 0.08636363636364308,
                "tempo": 120.0
            },
            {
                "start_time": 100.5090909090909,
                "end_time": 100.59318181818182,
                "pitch": 85,
                "velocity": 40,
                "duration": 0.08409090909091788,
                "tempo": 120.0
            },
            {
                "start_time": 100.10227272727272,
                "end_time": 100.64318181818182,
                "pitch": 89,
                "velocity": 40,
                "duration": 0.5409090909090963,
                "tempo": 120.0
            },
            {
                "start_time": 100.64318181818182,
                "end_time": 100.72954545454544,
                "pitch": 81,
                "velocity": 40,
                "duration": 0.08636363636362887,
                "tempo": 120.0
            },
            {
                "start_time": 100.23636363636363,
                "end_time": 100.78181818181818,
                "pitch": 55,
                "velocity": 40,
                "duration": 0.5454545454545467,
                "tempo": 120.0
            },
            {
                "start_time": 100.78181818181818,
                "end_time": 100.86363636363636,
                "pitch": 86,
                "velocity": 40,
                "duration": 0.08181818181817846,
                "tempo": 120.0
            },
            {
                "start_time": 100.91363636363636,
                "end_time": 100.99772727272727,
                "pitch": 86,
                "velocity": 40,
                "duration": 0.08409090909091788,
                "tempo": 120.0
            },
            {
                "start_time": 101.05,
                "end_time": 101.12954545454545,
                "pitch": 85,
                "velocity": 40,
                "duration": 0.07954545454545325,
                "tempo": 120.0
            },
            {
                "start_time": 100.64318181818182,
                "end_time": 101.18181818181817,
                "pitch": 89,
                "velocity": 40,
                "duration": 0.5386363636363569,
                "tempo": 120.0
            },
            {
                "start_time": 101.18181818181817,
                "end_time": 101.26363636363637,
                "pitch": 81,
                "velocity": 40,
                "duration": 0.08181818181819267,
                "tempo": 120.0
            },
            {
                "start_time": 100.78181818181818,
                "end_time": 101.31590909090909,
                "pitch": 55,
                "velocity": 40,
                "duration": 0.5340909090909065,
                "tempo": 120.0
            },
            {
                "start_time": 101.31590909090909,
                "end_time": 101.39999999999999,
                "pitch": 86,
                "velocity": 40,
                "duration": 0.08409090909090366,
                "tempo": 120.0
            },
            {
                "start_time": 101.44999999999999,
                "end_time": 101.53636363636363,
                "pitch": 86,
                "velocity": 40,
                "duration": 0.08636363636364308,
                "tempo": 120.0
            },
            {
                "start_time": 101.58863636363635,
                "end_time": 101.67272727272727,
                "pitch": 85,
                "velocity": 40,
                "duration": 0.08409090909091788,
                "tempo": 120.0
            },
            {
                "start_time": 101.18181818181817,
                "end_time": 101.72272727272727,
                "pitch": 89,
                "velocity": 40,
                "duration": 0.5409090909090963,
                "tempo": 120.0
            },
            {
                "start_time": 101.72272727272727,
                "end_time": 101.8090909090909,
                "pitch": 81,
                "velocity": 40,
                "duration": 0.08636363636362887,
                "tempo": 120.0
            },
            {
                "start_time": 101.31590909090909,
                "end_time": 101.85909090909091,
                "pitch": 55,
                "velocity": 40,
                "duration": 0.5431818181818215,
                "tempo": 120.0
            },
            {
                "start_time": 101.85909090909091,
                "end_time": 101.94318181818181,
                "pitch": 86,
                "velocity": 40,
                "duration": 0.08409090909090366,
                "tempo": 120.0
            },
            {
                "start_time": 101.99318181818181,
                "end_time": 102.07727272727273,
                "pitch": 86,
                "velocity": 40,
                "duration": 0.08409090909091788,
                "tempo": 120.0
            },
            {
                "start_time": 102.12727272727273,
                "end_time": 102.21136363636363,
                "pitch": 85,
                "velocity": 40,
                "duration": 0.08409090909090366,
                "tempo": 120.0
            },
            {
                "start_time": 101.72272727272727,
                "end_time": 102.26136363636363,
                "pitch": 89,
                "velocity": 40,
                "duration": 0.5386363636363569,
                "tempo": 120.0
            },
            {
                "start_time": 102.26136363636363,
                "end_time": 102.34318181818182,
                "pitch": 81,
                "velocity": 40,
                "duration": 0.08181818181819267,
                "tempo": 120.0
            },
            {
                "start_time": 101.85909090909091,
                "end_time": 102.39545454545454,
                "pitch": 55,
                "velocity": 40,
                "duration": 0.5363636363636317,
                "tempo": 120.0
            },
            {
                "start_time": 102.39545454545454,
                "end_time": 102.47727272727272,
                "pitch": 86,
                "velocity": 40,
                "duration": 0.08181818181817846,
                "tempo": 120.0
            },
            {
                "start_time": 102.52727272727272,
                "end_time": 102.61136363636363,
                "pitch": 86,
                "velocity": 40,
                "duration": 0.08409090909091788,
                "tempo": 120.0
            },
            {
                "start_time": 102.66363636363636,
                "end_time": 102.74545454545454,
                "pitch": 85,
                "velocity": 40,
                "duration": 0.08181818181817846,
                "tempo": 120.0
            },
            {
                "start_time": 102.26136363636363,
                "end_time": 102.79545454545455,
                "pitch": 89,
                "velocity": 40,
                "duration": 0.5340909090909207,
                "tempo": 120.0
            },
            {
                "start_time": 102.79545454545455,
                "end_time": 102.87954545454545,
                "pitch": 81,
                "velocity": 40,
                "duration": 0.08409090909090366,
                "tempo": 120.0
            },
            {
                "start_time": 102.39545454545454,
                "end_time": 102.93181818181817,
                "pitch": 55,
                "velocity": 40,
                "duration": 0.5363636363636317,
                "tempo": 120.0
            },
            {
                "start_time": 102.93181818181817,
                "end_time": 103.01363636363637,
                "pitch": 86,
                "velocity": 40,
                "duration": 0.08181818181819267,
                "tempo": 120.0
            },
            {
                "start_time": 103.06590909090909,
                "end_time": 103.14999999999999,
                "pitch": 86,
                "velocity": 40,
                "duration": 0.08409090909090366,
                "tempo": 120.0
            },
            {
                "start_time": 103.20227272727273,
                "end_time": 103.28636363636363,
                "pitch": 85,
                "velocity": 40,
                "duration": 0.08409090909090366,
                "tempo": 120.0
            },
            {
                "start_time": 103.33863636363635,
                "end_time": 103.42272727272727,
                "pitch": 86,
                "velocity": 40,
                "duration": 0.08409090909091788,
                "tempo": 120.0
            },
            {
                "start_time": 103.475,
                "end_time": 103.55681818181817,
                "pitch": 87,
                "velocity": 40,
                "duration": 0.08181818181817846,
                "tempo": 120.0
            },
            {
                "start_time": 99.15681818181818,
                "end_time": 103.69090909090909,
                "pitch": 88,
                "velocity": 40,
                "duration": 4.5340909090909065,
                "tempo": 120.0
            },
            {
                "start_time": 103.60909090909091,
                "end_time": 103.69090909090909,
                "pitch": 88,
                "velocity": 40,
                "duration": 0.08181818181817846,
                "tempo": 120.0
            },
            {
                "start_time": 103.74318181818181,
                "end_time": 103.82499999999999,
                "pitch": 87,
                "velocity": 40,
                "duration": 0.08181818181817846,
                "tempo": 120.0
            },
            {
                "start_time": 103.875,
                "end_time": 103.9590909090909,
                "pitch": 83,
                "velocity": 40,
                "duration": 0.08409090909090366,
                "tempo": 120.0
            },
            {
                "start_time": 104.01136363636363,
                "end_time": 104.09318181818182,
                "pitch": 88,
                "velocity": 40,
                "duration": 0.08181818181819267,
                "tempo": 120.0
            },
            {
                "start_time": 104.14318181818182,
                "end_time": 104.22727272727272,
                "pitch": 88,
                "velocity": 40,
                "duration": 0.08409090909090366,
                "tempo": 120.0
            },
            {
                "start_time": 104.27727272727272,
                "end_time": 104.36136363636363,
                "pitch": 87,
                "velocity": 40,
                "duration": 0.08409090909091788,
                "tempo": 120.0
            },
            {
                "start_time": 103.875,
                "end_time": 104.41136363636363,
                "pitch": 90,
                "velocity": 40,
                "duration": 0.5363636363636317,
                "tempo": 120.0
            },
            {
                "start_time": 104.41136363636363,
                "end_time": 104.49545454545454,
                "pitch": 83,
                "velocity": 40,
                "duration": 0.08409090909090366,
                "tempo": 120.0
            },
            {
                "start_time": 104.01136363636363,
                "end_time": 104.54545454545455,
                "pitch": 68,
                "velocity": 40,
                "duration": 0.5340909090909207,
                "tempo": 120.0
            },
            {
                "start_time": 104.54545454545455,
                "end_time": 104.62954545454545,
                "pitch": 88,
                "velocity": 40,
                "duration": 0.08409090909090366,
                "tempo": 120.0
            },
            {
                "start_time": 104.68181818181817,
                "end_time": 104.76590909090909,
                "pitch": 88,
                "velocity": 40,
                "duration": 0.08409090909091788,
                "tempo": 120.0
            },
            {
                "start_time": 104.81818181818181,
                "end_time": 104.90227272727272,
                "pitch": 87,
                "velocity": 40,
                "duration": 0.08409090909090366,
                "tempo": 120.0
            },
            {
                "start_time": 104.41136363636363,
                "end_time": 104.95227272727273,
                "pitch": 90,
                "velocity": 40,
                "duration": 0.5409090909090963,
                "tempo": 120.0
            },
            {
                "start_time": 104.95227272727273,
                "end_time": 105.03863636363636,
                "pitch": 83,
                "velocity": 40,
                "duration": 0.08636363636362887,
                "tempo": 120.0
            },
            {
                "start_time": 104.54545454545455,
                "end_time": 105.09090909090908,
                "pitch": 68,
                "velocity": 40,
                "duration": 0.5454545454545325,
                "tempo": 120.0
            },
            {
                "start_time": 105.09090909090908,
                "end_time": 105.17272727272727,
                "pitch": 88,
                "velocity": 40,
                "duration": 0.08181818181819267,
                "tempo": 120.0
            },
            {
                "start_time": 105.22272727272727,
                "end_time": 105.30681818181817,
                "pitch": 88,
                "velocity": 40,
                "duration": 0.08409090909090366,
                "tempo": 120.0
            },
            {
                "start_time": 105.35909090909091,
                "end_time": 105.44090909090909,
                "pitch": 87,
                "velocity": 40,
                "duration": 0.08181818181817846,
                "tempo": 120.0
            },
            {
                "start_time": 104.95227272727273,
                "end_time": 105.49090909090908,
                "pitch": 90,
                "velocity": 40,
                "duration": 0.5386363636363569,
                "tempo": 120.0
            },
            {
                "start_time": 105.49090909090908,
                "end_time": 105.57499999999999,
                "pitch": 83,
                "velocity": 40,
                "duration": 0.08409090909090366,
                "tempo": 120.0
            },
            {
                "start_time": 105.09090909090908,
                "end_time": 105.625,
                "pitch": 68,
                "velocity": 40,
                "duration": 0.5340909090909207,
                "tempo": 120.0
            },
            {
                "start_time": 105.625,
                "end_time": 105.7090909090909,
                "pitch": 88,
                "velocity": 40,
                "duration": 0.08409090909090366,
                "tempo": 120.0
            },
            {
                "start_time": 105.76136363636363,
                "end_time": 105.84545454545454,
                "pitch": 88,
                "velocity": 40,
                "duration": 0.08409090909091788,
                "tempo": 120.0
            },
            {
                "start_time": 105.89772727272727,
                "end_time": 105.98181818181817,
                "pitch": 87,
                "velocity": 40,
                "duration": 0.08409090909090366,
                "tempo": 120.0
            },
            {
                "start_time": 105.49090909090908,
                "end_time": 106.0340909090909,
                "pitch": 90,
                "velocity": 40,
                "duration": 0.5431818181818215,
                "tempo": 120.0
            },
            {
                "start_time": 106.03181818181818,
                "end_time": 106.0340909090909,
                "pitch": 90,
                "velocity": 40,
                "duration": 0.0022727272727252057,
                "tempo": 120.0
            },
            {
                "start_time": 106.0340909090909,
                "end_time": 106.11818181818181,
                "pitch": 83,
                "velocity": 40,
                "duration": 0.08409090909090366,
                "tempo": 120.0
            },
            {
                "start_time": 105.625,
                "end_time": 106.17045454545455,
                "pitch": 68,
                "velocity": 40,
                "duration": 0.5454545454545467,
                "tempo": 120.0
            },
            {
                "start_time": 106.17045454545455,
                "end_time": 106.25227272727273,
                "pitch": 88,
                "velocity": 40,
                "duration": 0.08181818181817846,
                "tempo": 120.0
            },
            {
                "start_time": 106.30227272727272,
                "end_time": 106.38636363636363,
                "pitch": 88,
                "velocity": 40,
                "duration": 0.08409090909090366,
                "tempo": 120.0
            },
            {
                "start_time": 106.43863636363636,
                "end_time": 106.52045454545454,
                "pitch": 87,
                "velocity": 40,
                "duration": 0.08181818181817846,
                "tempo": 120.0
            },
            {
                "start_time": 106.57045454545454,
                "end_time": 106.65454545454546,
                "pitch": 83,
                "velocity": 40,
                "duration": 0.08409090909091788,
                "tempo": 120.0
            },
            {
                "start_time": 106.17045454545455,
                "end_time": 106.70454545454545,
                "pitch": 68,
                "velocity": 40,
                "duration": 0.5340909090909065,
                "tempo": 120.0
            },
            {
                "start_time": 106.70454545454545,
                "end_time": 106.78863636363636,
                "pitch": 88,
                "velocity": 40,
                "duration": 0.08409090909090366,
                "tempo": 120.0
            },
            {
                "start_time": 106.84090909090908,
                "end_time": 106.925,
                "pitch": 88,
                "velocity": 40,
                "duration": 0.08409090909091788,
                "tempo": 120.0
            },
            {
                "start_time": 106.97727272727272,
                "end_time": 107.06136363636364,
                "pitch": 87,
                "velocity": 40,
                "duration": 0.08409090909091788,
                "tempo": 120.0
            },
            {
                "start_time": 106.57045454545454,
                "end_time": 107.11363636363636,
                "pitch": 90,
                "velocity": 40,
                "duration": 0.5431818181818215,
                "tempo": 120.0
            },
            {
                "start_time": 107.11136363636363,
                "end_time": 107.11363636363636,
                "pitch": 90,
                "velocity": 40,
                "duration": 0.0022727272727252057,
                "tempo": 120.0
            },
            {
                "start_time": 107.11363636363636,
                "end_time": 107.19772727272726,
                "pitch": 83,
                "velocity": 40,
                "duration": 0.08409090909090366,
                "tempo": 120.0
            },
            {
                "start_time": 106.70454545454545,
                "end_time": 107.25,
                "pitch": 68,
                "velocity": 40,
                "duration": 0.5454545454545467,
                "tempo": 120.0
            },
            {
                "start_time": 107.25,
                "end_time": 107.33181818181818,
                "pitch": 88,
                "velocity": 40,
                "duration": 0.08181818181817846,
                "tempo": 120.0
            },
            {
                "start_time": 107.38181818181818,
                "end_time": 107.46590909090908,
                "pitch": 88,
                "velocity": 40,
                "duration": 0.08409090909090366,
                "tempo": 120.0
            },
            {
                "start_time": 107.51818181818182,
                "end_time": 107.6,
                "pitch": 87,
                "velocity": 40,
                "duration": 0.08181818181817846,
                "tempo": 120.0
            },
            {
                "start_time": 107.64999999999999,
                "end_time": 107.73409090909091,
                "pitch": 83,
                "velocity": 40,
                "duration": 0.08409090909091788,
                "tempo": 120.0
            },
            {
                "start_time": 107.25,
                "end_time": 107.7840909090909,
                "pitch": 68,
                "velocity": 40,
                "duration": 0.5340909090909065,
                "tempo": 120.0
            },
            {
                "start_time": 107.7840909090909,
                "end_time": 107.86818181818181,
                "pitch": 86,
                "velocity": 40,
                "duration": 0.08409090909090366,
                "tempo": 120.0
            },
            {
                "start_time": 107.92045454545455,
                "end_time": 108.00454545454545,
                "pitch": 86,
                "velocity": 40,
                "duration": 0.08409090909090366,
                "tempo": 120.0
            },
            {
                "start_time": 108.05681818181817,
                "end_time": 108.14090909090909,
                "pitch": 85,
                "velocity": 40,
                "duration": 0.08409090909091788,
                "tempo": 120.0
            },
            {
                "start_time": 102.79545454545455,
                "end_time": 108.19318181818181,
                "pitch": 89,
                "velocity": 40,
                "duration": 5.397727272727266,
                "tempo": 120.0
            },
            {
                "start_time": 108.19318181818181,
                "end_time": 108.27727272727272,
                "pitch": 81,
                "velocity": 40,
                "duration": 0.08409090909090366,
                "tempo": 120.0
            },
            {
                "start_time": 102.93181818181817,
                "end_time": 108.32954545454545,
                "pitch": 55,
                "velocity": 40,
                "duration": 5.3977272727272805,
                "tempo": 120.0
            },
            {
                "start_time": 108.32954545454545,
                "end_time": 108.41136363636363,
                "pitch": 86,
                "velocity": 40,
                "duration": 0.08181818181817846,
                "tempo": 120.0
            },
            {
                "start_time": 108.46363636363635,
                "end_time": 108.54545454545455,
                "pitch": 86,
                "velocity": 40,
                "duration": 0.08181818181819267,
                "tempo": 120.0
            },
            {
                "start_time": 108.59772727272727,
                "end_time": 108.67954545454545,
                "pitch": 85,
                "velocity": 40,
                "duration": 0.08181818181817846,
                "tempo": 120.0
            },
            {
                "start_time": 108.19318181818181,
                "end_time": 108.72954545454544,
                "pitch": 89,
                "velocity": 40,
                "duration": 0.5363636363636317,
                "tempo": 120.0
            },
            {
                "start_time": 108.72954545454544,
                "end_time": 108.81363636363636,
                "pitch": 81,
                "velocity": 40,
                "duration": 0.08409090909091788,
                "tempo": 120.0
            },
            {
                "start_time": 108.32954545454545,
                "end_time": 108.86363636363636,
                "pitch": 55,
                "velocity": 40,
                "duration": 0.5340909090909065,
                "tempo": 120.0
            },
            {
                "start_time": 108.86363636363636,
                "end_time": 108.94772727272726,
                "pitch": 86,
                "velocity": 40,
                "duration": 0.08409090909090366,
                "tempo": 120.0
            },
            {
                "start_time": 108.99772727272726,
                "end_time": 109.08181818181818,
                "pitch": 86,
                "velocity": 40,
                "duration": 0.08409090909091788,
                "tempo": 120.0
            },
            {
                "start_time": 109.13181818181818,
                "end_time": 109.21363636363635,
                "pitch": 85,
                "velocity": 40,
                "duration": 0.08181818181817846,
                "tempo": 120.0
            },
            {
                "start_time": 108.72954545454544,
                "end_time": 109.26590909090909,
                "pitch": 89,
                "velocity": 40,
                "duration": 0.5363636363636459,
                "tempo": 120.0
            },
            {
                "start_time": 109.26590909090909,
                "end_time": 109.34772727272727,
                "pitch": 81,
                "velocity": 40,
                "duration": 0.08181818181817846,
                "tempo": 120.0
            },
            {
                "start_time": 108.86363636363636,
                "end_time": 109.39999999999999,
                "pitch": 55,
                "velocity": 40,
                "duration": 0.5363636363636317,
                "tempo": 120.0
            },
            {
                "start_time": 109.39999999999999,
                "end_time": 109.48409090909091,
                "pitch": 86,
                "velocity": 40,
                "duration": 0.08409090909091788,
                "tempo": 120.0
            },
            {
                "start_time": 109.5340909090909,
                "end_time": 109.62045454545454,
                "pitch": 86,
                "velocity": 40,
                "duration": 0.08636363636362887,
                "tempo": 120.0
            },
            {
                "start_time": 109.67272727272727,
                "end_time": 109.75681818181818,
                "pitch": 85,
                "velocity": 40,
                "duration": 0.08409090909090366,
                "tempo": 120.0
            },
            {
                "start_time": 109.26590909090909,
                "end_time": 109.80681818181817,
                "pitch": 89,
                "velocity": 40,
                "duration": 0.5409090909090821,
                "tempo": 120.0
            },
            {
                "start_time": 109.80681818181817,
                "end_time": 109.89318181818182,
                "pitch": 81,
                "velocity": 40,
                "duration": 0.08636363636364308,
                "tempo": 120.0
            },
            {
                "start_time": 109.39999999999999,
                "end_time": 109.94545454545454,
                "pitch": 55,
                "velocity": 40,
                "duration": 0.5454545454545467,
                "tempo": 120.0
            },
            {
                "start_time": 109.94545454545454,
                "end_time": 110.02727272727272,
                "pitch": 86,
                "velocity": 40,
                "duration": 0.08181818181817846,
                "tempo": 120.0
            },
            {
                "start_time": 110.07727272727273,
                "end_time": 110.16136363636363,
                "pitch": 86,
                "velocity": 40,
                "duration": 0.08409090909090366,
                "tempo": 120.0
            },
            {
                "start_time": 110.21363636363635,
                "end_time": 110.29545454545455,
                "pitch": 85,
                "velocity": 40,
                "duration": 0.08181818181819267,
                "tempo": 120.0
            },
            {
                "start_time": 109.80681818181817,
                "end_time": 110.34545454545454,
                "pitch": 89,
                "velocity": 40,
                "duration": 0.5386363636363711,
                "tempo": 120.0
            },
            {
                "start_time": 110.34545454545454,
                "end_time": 110.42954545454545,
                "pitch": 81,
                "velocity": 40,
                "duration": 0.08409090909090366,
                "tempo": 120.0
            },
            {
                "start_time": 109.94545454545454,
                "end_time": 110.47954545454544,
                "pitch": 55,
                "velocity": 40,
                "duration": 0.5340909090909065,
                "tempo": 120.0
            },
            {
                "start_time": 110.47954545454544,
                "end_time": 110.56136363636364,
                "pitch": 86,
                "velocity": 40,
                "duration": 0.08181818181819267,
                "tempo": 120.0
            },
            {
                "start_time": 110.61363636363636,
                "end_time": 110.69545454545454,
                "pitch": 86,
                "velocity": 40,
                "duration": 0.08181818181817846,
                "tempo": 120.0
            },
            {
                "start_time": 110.74772727272726,
                "end_time": 110.82954545454545,
                "pitch": 85,
                "velocity": 40,
                "duration": 0.08181818181819267,
                "tempo": 120.0
            },
            {
                "start_time": 110.34545454545454,
                "end_time": 110.87954545454545,
                "pitch": 89,
                "velocity": 40,
                "duration": 0.5340909090909065,
                "tempo": 120.0
            },
            {
                "start_time": 110.87954545454545,
                "end_time": 110.96363636363635,
                "pitch": 81,
                "velocity": 40,
                "duration": 0.08409090909090366,
                "tempo": 120.0
            },
            {
                "start_time": 110.47954545454544,
                "end_time": 111.01590909090909,
                "pitch": 55,
                "velocity": 40,
                "duration": 0.5363636363636459,
                "tempo": 120.0
            },
            {
                "start_time": 111.01590909090909,
                "end_time": 111.09772727272727,
                "pitch": 86,
                "velocity": 40,
                "duration": 0.08181818181817846,
                "tempo": 120.0
            },
            {
                "start_time": 111.14999999999999,
                "end_time": 111.23409090909091,
                "pitch": 86,
                "velocity": 40,
                "duration": 0.08409090909091788,
                "tempo": 120.0
            },
            {
                "start_time": 111.28863636363636,
                "end_time": 111.37045454545454,
                "pitch": 85,
                "velocity": 40,
                "duration": 0.08181818181817846,
                "tempo": 120.0
            },
            {
                "start_time": 110.87954545454545,
                "end_time": 111.42272727272727,
                "pitch": 89,
                "velocity": 40,
                "duration": 0.5431818181818215,
                "tempo": 120.0
            },
            {
                "start_time": 111.42272727272727,
                "end_time": 111.50681818181818,
                "pitch": 81,
                "velocity": 40,
                "duration": 0.08409090909090366,
                "tempo": 120.0
            },
            {
                "start_time": 111.01590909090909,
                "end_time": 111.5590909090909,
                "pitch": 55,
                "velocity": 40,
                "duration": 0.5431818181818073,
                "tempo": 120.0
            },
            {
                "start_time": 111.5590909090909,
                "end_time": 111.64090909090909,
                "pitch": 86,
                "velocity": 40,
                "duration": 0.08181818181819267,
                "tempo": 120.0
            },
            {
                "start_time": 111.69318181818181,
                "end_time": 111.77499999999999,
                "pitch": 86,
                "velocity": 40,
                "duration": 0.08181818181817846,
                "tempo": 120.0
            },
            {
                "start_time": 111.82727272727273,
                "end_time": 111.9090909090909,
                "pitch": 85,
                "velocity": 40,
                "duration": 0.08181818181817846,
                "tempo": 120.0
            },
            {
                "start_time": 107.64999999999999,
                "end_time": 112.04318181818181,
                "pitch": 90,
                "velocity": 40,
                "duration": 4.393181818181816,
                "tempo": 120.0
            },
            {
                "start_time": 111.9590909090909,
                "end_time": 112.04318181818181,
                "pitch": 90,
                "velocity": 40,
                "duration": 0.08409090909090366,
                "tempo": 120.0
            },
            {
                "start_time": 98.88863636363637,
                "end_time": 112.09545454545454,
                "pitch": 102,
                "velocity": 40,
                "duration": 13.206818181818178,
                "tempo": 120.0
            },
            {
                "start_time": 112.09545454545454,
                "end_time": 112.17727272727272,
                "pitch": 91,
                "velocity": 40,
                "duration": 0.08181818181817846,
                "tempo": 120.0
            },
            {
                "start_time": 99.02272727272727,
                "end_time": 112.22954545454544,
                "pitch": 7,
                "velocity": 40,
                "duration": 13.206818181818178,
                "tempo": 120.0
            },
            {
                "start_time": 112.22954545454544,
                "end_time": 112.31363636363636,
                "pitch": 90,
                "velocity": 40,
                "duration": 0.08409090909091788,
                "tempo": 120.0
            },
            {
                "start_time": 112.09545454545454,
                "end_time": 112.36590909090908,
                "pitch": 102,
                "velocity": 40,
                "duration": 0.27045454545454106,
                "tempo": 120.0
            },
            {
                "start_time": 112.36590909090908,
                "end_time": 112.44999999999999,
                "pitch": 91,
                "velocity": 40,
                "duration": 0.08409090909090366,
                "tempo": 120.0
            },
            {
                "start_time": 112.22954545454544,
                "end_time": 112.50227272727273,
                "pitch": 7,
                "velocity": 40,
                "duration": 0.2727272727272805,
                "tempo": 120.0
            },
            {
                "start_time": 111.9590909090909,
                "end_time": 112.58636363636363,
                "pitch": 86,
                "velocity": 40,
                "duration": 0.6272727272727252,
                "tempo": 120.0
            },
            {
                "start_time": 112.50227272727273,
                "end_time": 112.58636363636363,
                "pitch": 86,
                "velocity": 40,
                "duration": 0.08409090909090366,
                "tempo": 120.0
            },
            {
                "start_time": 98.62272727272727,
                "end_time": 112.63863636363635,
                "pitch": 101,
                "velocity": 40,
                "duration": 14.015909090909076,
                "tempo": 120.0
            },
            {
                "start_time": 112.63863636363635,
                "end_time": 112.72045454545454,
                "pitch": 91,
                "velocity": 40,
                "duration": 0.08181818181819267,
                "tempo": 120.0
            },
            {
                "start_time": 112.50227272727273,
                "end_time": 112.77272727272727,
                "pitch": 7,
                "velocity": 40,
                "duration": 0.27045454545454106,
                "tempo": 120.0
            },
            {
                "start_time": 112.77272727272727,
                "end_time": 112.85454545454544,
                "pitch": 90,
                "velocity": 40,
                "duration": 0.08181818181817846,
                "tempo": 120.0
            },
            {
                "start_time": 112.36590909090908,
                "end_time": 112.90681818181818,
                "pitch": 102,
                "velocity": 40,
                "duration": 0.5409090909090963,
                "tempo": 120.0
            },
            {
                "start_time": 112.90681818181818,
                "end_time": 112.98863636363636,
                "pitch": 91,
                "velocity": 40,
                "duration": 0.08181818181817846,
                "tempo": 120.0
            },
            {
                "start_time": 112.77272727272727,
                "end_time": 113.03863636363636,
                "pitch": 7,
                "velocity": 40,
                "duration": 0.26590909090909065,
                "tempo": 120.0
            },
            {
                "start_time": 113.03863636363636,
                "end_time": 113.12272727272726,
                "pitch": 86,
                "velocity": 40,
                "duration": 0.08409090909090366,
                "tempo": 120.0
            },
            {
                "start_time": 112.63863636363635,
                "end_time": 113.175,
                "pitch": 101,
                "velocity": 40,
                "duration": 0.5363636363636459,
                "tempo": 120.0
            },
            {
                "start_time": 113.175,
                "end_time": 113.25681818181818,
                "pitch": 91,
                "velocity": 40,
                "duration": 0.08181818181817846,
                "tempo": 120.0
            },
            {
                "start_time": 113.03863636363636,
                "end_time": 113.3090909090909,
                "pitch": 7,
                "velocity": 40,
                "duration": 0.27045454545454106,
                "tempo": 120.0
            },
            {
                "start_time": 113.3090909090909,
                "end_time": 113.39318181818182,
                "pitch": 90,
                "velocity": 40,
                "duration": 0.08409090909091788,
                "tempo": 120.0
            },
            {
                "start_time": 112.90681818181818,
                "end_time": 113.44545454545454,
                "pitch": 102,
                "velocity": 40,
                "duration": 0.5386363636363569,
                "tempo": 120.0
            },
            {
                "start_time": 113.44545454545454,
                "end_time": 113.52954545454546,
                "pitch": 91,
                "velocity": 40,
                "duration": 0.08409090909091788,
                "tempo": 120.0
            },
            {
                "start_time": 113.3090909090909,
                "end_time": 113.58181818181818,
                "pitch": 7,
                "velocity": 40,
                "duration": 0.2727272727272805,
                "tempo": 120.0
            },
            {
                "start_time": 113.58181818181818,
                "end_time": 113.66590909090908,
                "pitch": 86,
                "velocity": 40,
                "duration": 0.08409090909090366,
                "tempo": 120.0
            },
            {
                "start_time": 113.175,
                "end_time": 113.72045454545454,
                "pitch": 101,
                "velocity": 40,
                "duration": 0.5454545454545467,
                "tempo": 120.0
            },
            {
                "start_time": 113.72045454545454,
                "end_time": 113.80227272727272,
                "pitch": 91,
                "velocity": 40,
                "duration": 0.08181818181817846,
                "tempo": 120.0
            },
            {
                "start_time": 113.58181818181818,
                "end_time": 113.85227272727272,
                "pitch": 7,
                "velocity": 40,
                "duration": 0.27045454545454106,
                "tempo": 120.0
            },
            {
                "start_time": 113.85227272727272,
                "end_time": 113.93636363636364,
                "pitch": 90,
                "velocity": 40,
                "duration": 0.08409090909091788,
                "tempo": 120.0
            },
            {
                "start_time": 113.44545454545454,
                "end_time": 113.98636363636363,
                "pitch": 102,
                "velocity": 40,
                "duration": 0.5409090909090963,
                "tempo": 120.0
            },
            {
                "start_time": 113.98636363636363,
                "end_time": 114.06818181818181,
                "pitch": 91,
                "velocity": 40,
                "duration": 0.08181818181817846,
                "tempo": 120.0
            },
            {
                "start_time": 113.85227272727272,
                "end_time": 114.12045454545454,
                "pitch": 7,
                "velocity": 40,
                "duration": 0.26818181818181586,
                "tempo": 120.0
            },
            {
                "start_time": 114.11818181818181,
                "end_time": 114.12045454545454,
                "pitch": 7,
                "velocity": 40,
                "duration": 0.0022727272727252057,
                "tempo": 120.0
            },
            {
                "start_time": 114.12045454545454,
                "end_time": 114.20227272727273,
                "pitch": 86,
                "velocity": 40,
                "duration": 0.08181818181819267,
                "tempo": 120.0
            },
            {
                "start_time": 113.72045454545454,
                "end_time": 114.25454545454545,
                "pitch": 101,
                "velocity": 40,
                "duration": 0.5340909090909065,
                "tempo": 120.0
            },
            {
                "start_time": 114.25454545454545,
                "end_time": 114.33636363636363,
                "pitch": 91,
                "velocity": 40,
                "duration": 0.08181818181817846,
                "tempo": 120.0
            },
            {
                "start_time": 114.38636363636363,
                "end_time": 114.47045454545454,
                "pitch": 90,
                "velocity": 40,
                "duration": 0.08409090909091788,
                "tempo": 120.0
            },
            {
                "start_time": 113.98636363636363,
                "end_time": 114.52045454545454,
                "pitch": 102,
                "velocity": 40,
                "duration": 0.5340909090909065,
                "tempo": 120.0
            },
            {
                "start_time": 114.52045454545454,
                "end_time": 114.60454545454544,
                "pitch": 91,
                "velocity": 40,
                "duration": 0.08409090909090366,
                "tempo": 120.0
            },
            {
                "start_time": 114.38636363636363,
                "end_time": 114.65454545454544,
                "pitch": 7,
                "velocity": 40,
                "duration": 0.26818181818181586,
                "tempo": 120.0
            },
            {
                "start_time": 114.65454545454544,
                "end_time": 114.73863636363636,
                "pitch": 86,
                "velocity": 40,
                "duration": 0.08409090909091788,
                "tempo": 120.0
            },
            {
                "start_time": 114.25454545454545,
                "end_time": 114.79090909090908,
                "pitch": 101,
                "velocity": 40,
                "duration": 0.5363636363636317,
                "tempo": 120.0
            },
            {
                "start_time": 114.79090909090908,
                "end_time": 114.87272727272726,
                "pitch": 91,
                "velocity": 40,
                "duration": 0.08181818181817846,
                "tempo": 120.0
            },
            {
                "start_time": 114.65454545454544,
                "end_time": 114.925,
                "pitch": 7,
                "velocity": 40,
                "duration": 0.2704545454545553,
                "tempo": 120.0
            },
            {
                "start_time": 114.925,
                "end_time": 115.0090909090909,
                "pitch": 90,
                "velocity": 40,
                "duration": 0.08409090909090366,
                "tempo": 120.0
            },
            {
                "start_time": 114.52045454545454,
                "end_time": 115.06136363636364,
                "pitch": 102,
                "velocity": 40,
                "duration": 0.5409090909090963,
                "tempo": 120.0
            },
            {
                "start_time": 115.06136363636364,
                "end_time": 115.14545454545454,
                "pitch": 91,
                "velocity": 40,
                "duration": 0.08409090909090366,
                "tempo": 120.0
            },
            {
                "start_time": 114.925,
                "end_time": 115.19545454545454,
                "pitch": 7,
                "velocity": 40,
                "duration": 0.27045454545454106,
                "tempo": 120.0
            },
            {
                "start_time": 115.19545454545454,
                "end_time": 115.28181818181818,
                "pitch": 86,
                "velocity": 40,
                "duration": 0.08636363636364308,
                "tempo": 120.0
            },
            {
                "start_time": 114.79090909090908,
                "end_time": 115.3340909090909,
                "pitch": 101,
                "velocity": 40,
                "duration": 0.5431818181818215,
                "tempo": 120.0
            },
            {
                "start_time": 115.3340909090909,
                "end_time": 115.41590909090908,
                "pitch": 91,
                "velocity": 40,
                "duration": 0.08181818181817846,
                "tempo": 120.0
            },
            {
                "start_time": 115.19545454545454,
                "end_time": 115.46590909090908,
                "pitch": 7,
                "velocity": 40,
                "duration": 0.27045454545454106,
                "tempo": 120.0
            },
            {
                "start_time": 115.46590909090908,
                "end_time": 115.55,
                "pitch": 90,
                "velocity": 40,
                "duration": 0.08409090909091788,
                "tempo": 120.0
            },
            {
                "start_time": 115.06136363636364,
                "end_time": 115.60227272727272,
                "pitch": 102,
                "velocity": 40,
                "duration": 0.5409090909090821,
                "tempo": 120.0
            },
            {
                "start_time": 115.60227272727272,
                "end_time": 115.6840909090909,
                "pitch": 91,
                "velocity": 40,
                "duration": 0.08181818181817846,
                "tempo": 120.0
            },
            {
                "start_time": 115.46590909090908,
                "end_time": 115.73409090909091,
                "pitch": 7,
                "velocity": 40,
                "duration": 0.26818181818183007,
                "tempo": 120.0
            },
            {
                "start_time": 115.73409090909091,
                "end_time": 115.81818181818181,
                "pitch": 86,
                "velocity": 40,
                "duration": 0.08409090909090366,
                "tempo": 120.0
            },
            {
                "start_time": 115.3340909090909,
                "end_time": 115.87045454545454,
                "pitch": 101,
                "velocity": 40,
                "duration": 0.5363636363636317,
                "tempo": 120.0
            },
            {
                "start_time": 115.87045454545454,
                "end_time": 115.95227272727273,
                "pitch": 91,
                "velocity": 40,
                "duration": 0.08181818181819267,
                "tempo": 120.0
            },
            {
                "start_time": 115.73409090909091,
                "end_time": 116.00227272727273,
                "pitch": 7,
                "velocity": 40,
                "duration": 0.26818181818181586,
                "tempo": 120.0
            },
            {
                "start_time": 116.00227272727273,
                "end_time": 116.08636363636363,
                "pitch": 90,
                "velocity": 40,
                "duration": 0.08409090909090366,
                "tempo": 120.0
            },
            {
                "start_time": 115.60227272727272,
                "end_time": 116.13636363636363,
                "pitch": 102,
                "velocity": 40,
                "duration": 0.5340909090909065,
                "tempo": 120.0
            },
            {
                "start_time": 116.13636363636363,
                "end_time": 116.21818181818182,
                "pitch": 91,
                "velocity": 40,
                "duration": 0.08181818181819267,
                "tempo": 120.0
            },
            {
                "start_time": 116.00227272727273,
                "end_time": 116.27045454545454,
                "pitch": 7,
                "velocity": 40,
                "duration": 0.26818181818181586,
                "tempo": 120.0
            },
            {
                "start_time": 116.26818181818182,
                "end_time": 116.27045454545454,
                "pitch": 7,
                "velocity": 40,
                "duration": 0.0022727272727252057,
                "tempo": 120.0
            },
            {
                "start_time": 116.27045454545454,
                "end_time": 116.35227272727272,
                "pitch": 86,
                "velocity": 40,
                "duration": 0.08181818181817846,
                "tempo": 120.0
            },
            {
                "start_time": 111.42272727272727,
                "end_time": 116.48863636363636,
                "pitch": 89,
                "velocity": 40,
                "duration": 5.065909090909088,
                "tempo": 120.0
            },
            {
                "start_time": 116.40454545454544,
                "end_time": 116.48863636363636,
                "pitch": 89,
                "velocity": 40,
                "duration": 0.08409090909091788,
                "tempo": 120.0
            },
            {
                "start_time": 116.53863636363636,
                "end_time": 116.625,
                "pitch": 89,
                "velocity": 40,
                "duration": 0.08636363636364308,
                "tempo": 120.0
            },
            {
                "start_time": 116.67727272727272,
                "end_time": 116.7590909090909,
                "pitch": 88,
                "velocity": 40,
                "duration": 0.08181818181817846,
                "tempo": 120.0
            },
            {
                "start_time": 116.81136363636364,
                "end_time": 116.89545454545454,
                "pitch": 84,
                "velocity": 40,
                "duration": 0.08409090909090366,
                "tempo": 120.0
            },
            {
                "start_time": 116.81136363636364,
                "end_time": 117.03181818181818,
                "pitch": 89,
                "velocity": 40,
                "duration": 0.2204545454545439,
                "tempo": 120.0
            },
            {
                "start_time": 116.94772727272726,
                "end_time": 117.03181818181818,
                "pitch": 89,
                "velocity": 40,
                "duration": 0.08409090909091788,
                "tempo": 120.0
            },
            {
                "start_time": 117.08181818181818,
                "end_time": 117.16590909090908,
                "pitch": 89,
                "velocity": 40,
                "duration": 0.08409090909090366,
                "tempo": 120.0
            },
            {
                "start_time": 117.21590909090908,
                "end_time": 117.29772727272727,
                "pitch": 88,
                "velocity": 40,
                "duration": 0.08181818181819267,
                "tempo": 120.0
            },
            {
                "start_time": 116.94772727272726,
                "end_time": 117.43181818181817,
                "pitch": 84,
                "velocity": 40,
                "duration": 0.48409090909090935,
                "tempo": 120.0
            },
            {
                "start_time": 117.35,
                "end_time": 117.43181818181817,
                "pitch": 84,
                "velocity": 40,
                "duration": 0.08181818181817846,
                "tempo": 120.0
            },
            {
                "start_time": 117.35,
                "end_time": 117.56590909090909,
                "pitch": 89,
                "velocity": 40,
                "duration": 0.2159090909090935,
                "tempo": 120.0
            },
            {
                "start_time": 117.48409090909091,
                "end_time": 117.56590909090909,
                "pitch": 89,
                "velocity": 40,
                "duration": 0.08181818181817846,
                "tempo": 120.0
            },
            {
                "start_time": 117.61590909090908,
                "end_time": 117.69999999999999,
                "pitch": 89,
                "velocity": 40,
                "duration": 0.08409090909090366,
                "tempo": 120.0
            },
            {
                "start_time": 117.75227272727273,
                "end_time": 117.8340909090909,
                "pitch": 88,
                "velocity": 40,
                "duration": 0.08181818181817846,
                "tempo": 120.0
            },
            {
                "start_time": 117.48409090909091,
                "end_time": 117.96818181818182,
                "pitch": 84,
                "velocity": 40,
                "duration": 0.48409090909090935,
                "tempo": 120.0
            },
            {
                "start_time": 117.8840909090909,
                "end_time": 117.96818181818182,
                "pitch": 84,
                "velocity": 40,
                "duration": 0.08409090909091788,
                "tempo": 120.0
            },
            {
                "start_time": 117.8840909090909,
                "end_time": 118.10227272727272,
                "pitch": 89,
                "velocity": 40,
                "duration": 0.2181818181818187,
                "tempo": 120.0
            },
            {
                "start_time": 118.02045454545454,
                "end_time": 118.10227272727272,
                "pitch": 89,
                "velocity": 40,
                "duration": 0.08181818181817846,
                "tempo": 120.0
            },
            {
                "start_time": 118.15454545454544,
                "end_time": 118.23863636363636,
                "pitch": 89,
                "velocity": 40,
                "duration": 0.08409090909091788,
                "tempo": 120.0
            },
            {
                "start_time": 118.29318181818181,
                "end_time": 118.375,
                "pitch": 88,
                "velocity": 40,
                "duration": 0.08181818181819267,
                "tempo": 120.0
            },
            {
                "start_time": 118.02045454545454,
                "end_time": 118.51136363636363,
                "pitch": 84,
                "velocity": 40,
                "duration": 0.49090909090908497,
                "tempo": 120.0
            },
            {
                "start_time": 118.42727272727272,
                "end_time": 118.51136363636363,
                "pitch": 84,
                "velocity": 40,
                "duration": 0.08409090909090366,
                "tempo": 120.0
            },
            {
                "start_time": 118.42727272727272,
                "end_time": 118.64545454545454,
                "pitch": 89,
                "velocity": 40,
                "duration": 0.2181818181818187,
                "tempo": 120.0
            },
            {
                "start_time": 118.56363636363636,
                "end_time": 118.64545454545454,
                "pitch": 89,
                "velocity": 40,
                "duration": 0.08181818181817846,
                "tempo": 120.0
            },
            {
                "start_time": 118.69545454545454,
                "end_time": 118.77954545454544,
                "pitch": 89,
                "velocity": 40,
                "duration": 0.08409090909090366,
                "tempo": 120.0
            },
            {
                "start_time": 118.83181818181818,
                "end_time": 118.91363636363636,
                "pitch": 88,
                "velocity": 40,
                "duration": 0.08181818181817846,
                "tempo": 120.0
            },
            {
                "start_time": 118.56363636363636,
                "end_time": 119.04772727272727,
                "pitch": 84,
                "velocity": 40,
                "duration": 0.48409090909090935,
                "tempo": 120.0
            },
            {
                "start_time": 118.96363636363635,
                "end_time": 119.04772727272727,
                "pitch": 84,
                "velocity": 40,
                "duration": 0.08409090909091788,
                "tempo": 120.0
            },
            {
                "start_time": 118.96363636363635,
                "end_time": 119.18181818181817,
                "pitch": 89,
                "velocity": 40,
                "duration": 0.2181818181818187,
                "tempo": 120.0
            },
            {
                "start_time": 119.09772727272727,
                "end_time": 119.18181818181817,
                "pitch": 89,
                "velocity": 40,
                "duration": 0.08409090909090366,
                "tempo": 120.0
            },
            {
                "start_time": 119.23409090909091,
                "end_time": 119.31818181818181,
                "pitch": 89,
                "velocity": 40,
                "duration": 0.08409090909090366,
                "tempo": 120.0
            },
            {
                "start_time": 119.37045454545454,
                "end_time": 119.45454545454545,
                "pitch": 88,
                "velocity": 40,
                "duration": 0.08409090909091788,
                "tempo": 120.0
            },
            {
                "start_time": 119.09772727272727,
                "end_time": 119.59090909090908,
                "pitch": 84,
                "velocity": 40,
                "duration": 0.49318181818181017,
                "tempo": 120.0
            },
            {
                "start_time": 119.50681818181818,
                "end_time": 119.59090909090908,
                "pitch": 84,
                "velocity": 40,
                "duration": 0.08409090909090366,
                "tempo": 120.0
            },
            {
                "start_time": 119.50681818181818,
                "end_time": 119.725,
                "pitch": 89,
                "velocity": 40,
                "duration": 0.2181818181818187,
                "tempo": 120.0
            },
            {
                "start_time": 119.64318181818182,
                "end_time": 119.725,
                "pitch": 89,
                "velocity": 40,
                "duration": 0.08181818181817846,
                "tempo": 120.0
            },
            {
                "start_time": 119.77727272727272,
                "end_time": 119.85909090909091,
                "pitch": 89,
                "velocity": 40,
                "duration": 0.08181818181819267,
                "tempo": 120.0
            },
            {
                "start_time": 119.91136363636363,
                "end_time": 119.99318181818181,
                "pitch": 88,
                "velocity": 40,
                "duration": 0.08181818181817846,
                "tempo": 120.0
            },
            {
                "start_time": 120.04318181818181,
                "end_time": 120.04545454545453,
                "pitch": 89,
                "velocity": 40,
                "duration": 0.0022727272727252057,
                "tempo": 120.0
            },
            {
                "start_time": 119.64318181818182,
                "end_time": 120.12727272727273,
                "pitch": 84,
                "velocity": 40,
                "duration": 0.48409090909090935,
                "tempo": 120.0
            },
            {
                "start_time": 120.04545454545453,
                "end_time": 120.12727272727273,
                "pitch": 84,
                "velocity": 40,
                "duration": 0.08181818181819267,
                "tempo": 120.0
            },
            {
                "start_time": 120.17954545454545,
                "end_time": 120.26136363636363,
                "pitch": 89,
                "velocity": 40,
                "duration": 0.08181818181817846,
                "tempo": 120.0
            },
            {
                "start_time": 120.31363636363636,
                "end_time": 120.39772727272727,
                "pitch": 89,
                "velocity": 40,
                "duration": 0.08409090909090366,
                "tempo": 120.0
            },
            {
                "start_time": 120.45227272727273,
                "end_time": 120.5340909090909,
                "pitch": 88,
                "velocity": 40,
                "duration": 0.08181818181817846,
                "tempo": 120.0
            },
            {
                "start_time": 120.17954545454545,
                "end_time": 120.67045454545453,
                "pitch": 84,
                "velocity": 40,
                "duration": 0.49090909090908497,
                "tempo": 120.0
            },
            {
                "start_time": 120.58636363636363,
                "end_time": 120.67045454545453,
                "pitch": 84,
                "velocity": 40,
                "duration": 0.08409090909090366,
                "tempo": 120.0
            },
            {
                "start_time": 120.72272727272727,
                "end_time": 120.80454545454545,
                "pitch": 88,
                "velocity": 40,
                "duration": 0.08181818181817846,
                "tempo": 120.0
            },
            {
                "start_time": 120.85681818181817,
                "end_time": 120.93863636363636,
                "pitch": 88,
                "velocity": 40,
                "duration": 0.08181818181819267,
                "tempo": 120.0
            },
            {
                "start_time": 120.99090909090908,
                "end_time": 121.07272727272726,
                "pitch": 87,
                "velocity": 40,
                "duration": 0.08181818181817846,
                "tempo": 120.0
            },
            {
                "start_time": 121.12272727272726,
                "end_time": 121.20681818181818,
                "pitch": 83,
                "velocity": 40,
                "duration": 0.08409090909091788,
                "tempo": 120.0
            },
            {
                "start_time": 107.7840909090909,
                "end_time": 121.2590909090909,
                "pitch": 68,
                "velocity": 40,
                "duration": 13.474999999999994,
                "tempo": 120.0
            },
            {
                "start_time": 121.2590909090909,
                "end_time": 121.34090909090908,
                "pitch": 88,
                "velocity": 40,
                "duration": 0.08181818181817846,
                "tempo": 120.0
            },
            {
                "start_time": 121.39090909090909,
                "end_time": 121.475,
                "pitch": 88,
                "velocity": 40,
                "duration": 0.08409090909090366,
                "tempo": 120.0
            },
            {
                "start_time": 121.52499999999999,
                "end_time": 121.60909090909091,
                "pitch": 87,
                "velocity": 40,
                "duration": 0.08409090909091788,
                "tempo": 120.0
            },
            {
                "start_time": 121.12272727272726,
                "end_time": 121.6590909090909,
                "pitch": 90,
                "velocity": 40,
                "duration": 0.5363636363636459,
                "tempo": 120.0
            },
            {
                "start_time": 121.6590909090909,
                "end_time": 121.74318181818181,
                "pitch": 83,
                "velocity": 40,
                "duration": 0.08409090909090366,
                "tempo": 120.0
            },
            {
                "start_time": 121.2590909090909,
                "end_time": 121.79318181818181,
                "pitch": 68,
                "velocity": 40,
                "duration": 0.5340909090909065,
                "tempo": 120.0
            },
            {
                "start_time": 121.79318181818181,
                "end_time": 121.87727272727273,
                "pitch": 88,
                "velocity": 40,
                "duration": 0.08409090909091788,
                "tempo": 120.0
            },
            {
                "start_time": 121.92954545454545,
                "end_time": 122.01363636363635,
                "pitch": 88,
                "velocity": 40,
                "duration": 0.08409090909090366,
                "tempo": 120.0
            },
            {
                "start_time": 122.06590909090909,
                "end_time": 122.14999999999999,
                "pitch": 87,
                "velocity": 40,
                "duration": 0.08409090909090366,
                "tempo": 120.0
            },
            {
                "start_time": 121.6590909090909,
                "end_time": 122.19999999999999,
                "pitch": 90,
                "velocity": 40,
                "duration": 0.5409090909090821,
                "tempo": 120.0
            },
            {
                "start_time": 122.19999999999999,
                "end_time": 122.28636363636363,
                "pitch": 83,
                "velocity": 40,
                "duration": 0.08636363636364308,
                "tempo": 120.0
            },
            {
                "start_time": 121.79318181818181,
                "end_time": 122.33863636363635,
                "pitch": 68,
                "velocity": 40,
                "duration": 0.5454545454545467,
                "tempo": 120.0
            },
            {
                "start_time": 122.33863636363635,
                "end_time": 122.42045454545453,
                "pitch": 88,
                "velocity": 40,
                "duration": 0.08181818181817846,
                "tempo": 120.0
            },
            {
                "start_time": 122.47045454545454,
                "end_time": 122.55454545454545,
                "pitch": 88,
                "velocity": 40,
                "duration": 0.08409090909090366,
                "tempo": 120.0
            },
            {
                "start_time": 122.60681818181817,
                "end_time": 122.68863636363636,
                "pitch": 87,
                "velocity": 40,
                "duration": 0.08181818181819267,
                "tempo": 120.0
            },
            {
                "start_time": 122.19999999999999,
                "end_time": 122.73863636363636,
                "pitch": 90,
                "velocity": 40,
                "duration": 0.5386363636363711,
                "tempo": 120.0
            },
            {
                "start_time": 122.73863636363636,
                "end_time": 122.82272727272726,
                "pitch": 83,
                "velocity": 40,
                "duration": 0.08409090909090366,
                "tempo": 120.0
            },
            {
                "start_time": 122.33863636363635,
                "end_time": 122.87272727272726,
                "pitch": 68,
                "velocity": 40,
                "duration": 0.5340909090909065,
                "tempo": 120.0
            },
            {
                "start_time": 122.87272727272726,
                "end_time": 122.95681818181818,
                "pitch": 88,
                "velocity": 40,
                "duration": 0.08409090909091788,
                "tempo": 120.0
            },
            {
                "start_time": 123.0090909090909,
                "end_time": 123.09318181818182,
                "pitch": 88,
                "velocity": 40,
                "duration": 0.08409090909091788,
                "tempo": 120.0
            },
            {
                "start_time": 123.14545454545454,
                "end_time": 123.22954545454544,
                "pitch": 87,
                "velocity": 40,
                "duration": 0.08409090909090366,
                "tempo": 120.0
            },
            {
                "start_time": 122.73863636363636,
                "end_time": 123.28181818181818,
                "pitch": 90,
                "velocity": 40,
                "duration": 0.5431818181818215,
                "tempo": 120.0
            },
            {
                "start_time": 123.28181818181818,
                "end_time": 123.36590909090908,
                "pitch": 83,
                "velocity": 40,
                "duration": 0.08409090909090366,
                "tempo": 120.0
            },
            {
                "start_time": 122.87272727272726,
                "end_time": 123.41818181818181,
                "pitch": 68,
                "velocity": 40,
                "duration": 0.5454545454545467,
                "tempo": 120.0
            },
            {
                "start_time": 123.41818181818181,
                "end_time": 123.5,
                "pitch": 88,
                "velocity": 40,
                "duration": 0.08181818181819267,
                "tempo": 120.0
            },
            {
                "start_time": 123.55,
                "end_time": 123.6340909090909,
                "pitch": 88,
                "velocity": 40,
                "duration": 0.08409090909090366,
                "tempo": 120.0
            },
            {
                "start_time": 123.68636363636364,
                "end_time": 123.76818181818182,
                "pitch": 87,
                "velocity": 40,
                "duration": 0.08181818181817846,
                "tempo": 120.0
            },
            {
                "start_time": 123.28181818181818,
                "end_time": 123.81818181818181,
                "pitch": 90,
                "velocity": 40,
                "duration": 0.5363636363636317,
                "tempo": 120.0
            },
            {
                "start_time": 123.81818181818181,
                "end_time": 123.90227272727272,
                "pitch": 83,
                "velocity": 40,
                "duration": 0.08409090909090366,
                "tempo": 120.0
            },
            {
                "start_time": 123.41818181818181,
                "end_time": 123.95227272727273,
                "pitch": 68,
                "velocity": 40,
                "duration": 0.5340909090909207,
                "tempo": 120.0
            },
            {
                "start_time": 123.95227272727273,
                "end_time": 124.03636363636363,
                "pitch": 88,
                "velocity": 40,
                "duration": 0.08409090909090366,
                "tempo": 120.0
            },
            {
                "start_time": 124.08636363636363,
                "end_time": 124.17045454545453,
                "pitch": 88,
                "velocity": 40,
                "duration": 0.08409090909090366,
                "tempo": 120.0
            },
            {
                "start_time": 124.22045454545454,
                "end_time": 124.30227272727272,
                "pitch": 87,
                "velocity": 40,
                "duration": 0.08181818181817846,
                "tempo": 120.0
            },
            {
                "start_time": 123.81818181818181,
                "end_time": 124.35454545454544,
                "pitch": 90,
                "velocity": 40,
                "duration": 0.5363636363636317,
                "tempo": 120.0
            },
            {
                "start_time": 124.35454545454544,
                "end_time": 124.43636363636364,
                "pitch": 83,
                "velocity": 40,
                "duration": 0.08181818181819267,
                "tempo": 120.0
            },
            {
                "start_time": 124.48863636363636,
                "end_time": 124.57272727272726,
                "pitch": 83,
                "velocity": 40,
                "duration": 0.08409090909090366,
                "tempo": 120.0
            },
            {
                "start_time": 124.62272727272726,
                "end_time": 124.7090909090909,
                "pitch": 81,
                "velocity": 40,
                "duration": 0.08636363636364308,
                "tempo": 120.0
            },
            {
                "start_time": 123.95227272727273,
                "end_time": 124.76136363636363,
                "pitch": 68,
                "velocity": 40,
                "duration": 0.809090909090898,
                "tempo": 120.0
            },
            {
                "start_time": 120.72272727272727,
                "end_time": 124.84318181818182,
                "pitch": 84,
                "velocity": 40,
                "duration": 4.12045454545455,
                "tempo": 120.0
            },
            {
                "start_time": 124.76136363636363,
                "end_time": 124.84318181818182,
                "pitch": 84,
                "velocity": 40,
                "duration": 0.08181818181819267,
                "tempo": 120.0
            },
            {
                "start_time": 116.40454545454544,
                "end_time": 124.98181818181817,
                "pitch": 86,
                "velocity": 40,
                "duration": 8.577272727272728,
                "tempo": 120.0
            },
            {
                "start_time": 124.89545454545454,
                "end_time": 124.98181818181817,
                "pitch": 86,
                "velocity": 40,
                "duration": 0.08636363636362887,
                "tempo": 120.0
            },
            {
                "start_time": 125.0340909090909,
                "end_time": 125.11590909090908,
                "pitch": 88,
                "velocity": 40,
                "duration": 0.08181818181817846,
                "tempo": 120.0
            },
            {
                "start_time": 125.0340909090909,
                "end_time": 125.25,
                "pitch": 86,
                "velocity": 40,
                "duration": 0.2159090909090935,
                "tempo": 120.0
            },
            {
                "start_time": 125.16590909090908,
                "end_time": 125.25,
                "pitch": 86,
                "velocity": 40,
                "duration": 0.08409090909091788,
                "tempo": 120.0
            },
            {
                "start_time": 125.16590909090908,
                "end_time": 125.38181818181818,
                "pitch": 88,
                "velocity": 40,
                "duration": 0.2159090909090935,
                "tempo": 120.0
            },
            {
                "start_time": 125.3,
                "end_time": 125.38181818181818,
                "pitch": 88,
                "velocity": 40,
                "duration": 0.08181818181817846,
                "tempo": 120.0
            },
            {
                "start_time": 124.89545454545454,
                "end_time": 125.51590909090909,
                "pitch": 84,
                "velocity": 40,
                "duration": 0.6204545454545496,
                "tempo": 120.0
            },
            {
                "start_time": 125.4340909090909,
                "end_time": 125.51590909090909,
                "pitch": 84,
                "velocity": 40,
                "duration": 0.08181818181819267,
                "tempo": 120.0
            },
            {
                "start_time": 125.4340909090909,
                "end_time": 125.65227272727272,
                "pitch": 88,
                "velocity": 40,
                "duration": 0.2181818181818187,
                "tempo": 120.0
            },
            {
                "start_time": 125.56818181818181,
                "end_time": 125.65227272727272,
                "pitch": 88,
                "velocity": 40,
                "duration": 0.08409090909090366,
                "tempo": 120.0
            },
            {
                "start_time": 125.3,
                "end_time": 125.78863636363636,
                "pitch": 86,
                "velocity": 40,
                "duration": 0.48863636363635976,
                "tempo": 120.0
            },
            {
                "start_time": 125.70227272727273,
                "end_time": 125.78863636363636,
                "pitch": 86,
                "velocity": 40,
                "duration": 0.08636363636362887,
                "tempo": 120.0
            },
            {
                "start_time": 125.70227272727273,
                "end_time": 125.925,
                "pitch": 88,
                "velocity": 40,
                "duration": 0.2227272727272691,
                "tempo": 120.0
            },
            {
                "start_time": 125.84090909090908,
                "end_time": 125.925,
                "pitch": 88,
                "velocity": 40,
                "duration": 0.08409090909091788,
                "tempo": 120.0
            },
            {
                "start_time": 125.56818181818181,
                "end_time": 126.06136363636362,
                "pitch": 84,
                "velocity": 40,
                "duration": 0.49318181818181017,
                "tempo": 120.0
            },
            {
                "start_time": 125.975,
                "end_time": 126.06136363636362,
                "pitch": 84,
                "velocity": 40,
                "duration": 0.08636363636362887,
                "tempo": 120.0
            },
            {
                "start_time": 125.975,
                "end_time": 126.19545454545454,
                "pitch": 88,
                "velocity": 40,
                "duration": 0.2204545454545439,
                "tempo": 120.0
            },
            {
                "start_time": 126.11136363636363,
                "end_time": 126.19545454545454,
                "pitch": 88,
                "velocity": 40,
                "duration": 0.08409090909090366,
                "tempo": 120.0
            },
            {
                "start_time": 125.84090909090908,
                "end_time": 126.32954545454545,
                "pitch": 86,
                "velocity": 40,
                "duration": 0.48863636363637397,
                "tempo": 120.0
            },
            {
                "start_time": 126.24545454545454,
                "end_time": 126.32954545454545,
                "pitch": 86,
                "velocity": 40,
                "duration": 0.08409090909091788,
                "tempo": 120.0
            },
            {
                "start_time": 126.24545454545454,
                "end_time": 126.46363636363635,
                "pitch": 88,
                "velocity": 40,
                "duration": 0.2181818181818187,
                "tempo": 120.0
            },
            {
                "start_time": 126.37954545454545,
                "end_time": 126.46363636363635,
                "pitch": 88,
                "velocity": 40,
                "duration": 0.08409090909090366,
                "tempo": 120.0
            },
            {
                "start_time": 126.11136363636363,
                "end_time": 126.59545454545454,
                "pitch": 84,
                "velocity": 40,
                "duration": 0.48409090909090935,
                "tempo": 120.0
            },
            {
                "start_time": 126.51363636363635,
                "end_time": 126.59545454545454,
                "pitch": 84,
                "velocity": 40,
                "duration": 0.08181818181819267,
                "tempo": 120.0
            },
            {
                "start_time": 126.51363636363635,
                "end_time": 126.73181818181817,
                "pitch": 88,
                "velocity": 40,
                "duration": 0.2181818181818187,
                "tempo": 120.0
            },
            {
                "start_time": 126.64772727272727,
                "end_time": 126.73181818181817,
                "pitch": 88,
                "velocity": 40,
                "duration": 0.08409090909090366,
                "tempo": 120.0
            },
            {
                "start_time": 126.37954545454545,
                "end_time": 126.86818181818181,
                "pitch": 86,
                "velocity": 40,
                "duration": 0.48863636363635976,
                "tempo": 120.0
            },
            {
                "start_time": 126.78181818181818,
                "end_time": 126.86818181818181,
                "pitch": 86,
                "velocity": 40,
                "duration": 0.08636363636362887,
                "tempo": 120.0
            },
            {
                "start_time": 126.78181818181818,
                "end_time": 127.00454545454545,
                "pitch": 88,
                "velocity": 40,
                "duration": 0.2227272727272691,
                "tempo": 120.0
            },
            {
                "start_time": 126.92045454545453,
                "end_time": 127.00454545454545,
                "pitch": 88,
                "velocity": 40,
                "duration": 0.08409090909091788,
                "tempo": 120.0
            },
            {
                "start_time": 126.64772727272727,
                "end_time": 127.14090909090909,
                "pitch": 84,
                "velocity": 40,
                "duration": 0.4931818181818244,
                "tempo": 120.0
            },
            {
                "start_time": 127.05454545454545,
                "end_time": 127.14090909090909,
                "pitch": 84,
                "velocity": 40,
                "duration": 0.08636363636364308,
                "tempo": 120.0
            },
            {
                "start_time": 124.35454545454544,
                "end_time": 127.27499999999999,
                "pitch": 90,
                "velocity": 40,
                "duration": 2.9204545454545467,
                "tempo": 120.0
            },
            {
                "start_time": 127.19318181818181,
                "end_time": 127.27499999999999,
                "pitch": 90,
                "velocity": 40,
                "duration": 0.08181818181817846,
                "tempo": 120.0
            },
            {
                "start_time": 127.32499999999999,
                "end_time": 127.4090909090909,
                "pitch": 90,
                "velocity": 40,
                "duration": 0.08409090909091788,
                "tempo": 120.0
            },
            {
                "start_time": 127.05454545454545,
                "end_time": 127.54318181818181,
                "pitch": 88,
                "velocity": 40,
                "duration": 0.48863636363635976,
                "tempo": 120.0
            },
            {
                "start_time": 127.4590909090909,
                "end_time": 127.54318181818181,
                "pitch": 88,
                "velocity": 40,
                "duration": 0.08409090909090366,
                "tempo": 120.0
            },
            {
                "start_time": 126.92045454545453,
                "end_time": 127.67727272727272,
                "pitch": 86,
                "velocity": 40,
                "duration": 0.7568181818181898,
                "tempo": 120.0
            },
            {
                "start_time": 127.59318181818182,
                "end_time": 127.67727272727272,
                "pitch": 86,
                "velocity": 40,
                "duration": 0.08409090909090366,
                "tempo": 120.0
            },
            {
                "start_time": 127.59318181818182,
                "end_time": 127.8090909090909,
                "pitch": 90,
                "velocity": 40,
                "duration": 0.21590909090907928,
                "tempo": 120.0
            },
            {
                "start_time": 127.72727272727272,
                "end_time": 127.8090909090909,
                "pitch": 90,
                "velocity": 40,
                "duration": 0.08181818181817846,
                "tempo": 120.0
            },
            {
                "start_time": 127.86136363636363,
                "end_time": 127.94318181818181,
                "pitch": 90,
                "velocity": 40,
                "duration": 0.08181818181817846,
                "tempo": 120.0
            },
            {
                "start_time": 127.99545454545454,
                "end_time": 128.0772727272727,
                "pitch": 88,
                "velocity": 40,
                "duration": 0.08181818181817846,
                "tempo": 120.0
            },
            {
                "start_time": 127.72727272727272,
                "end_time": 128.21136363636364,
                "pitch": 86,
                "velocity": 40,
                "duration": 0.48409090909092356,
                "tempo": 120.0
            },
            {
                "start_time": 128.12727272727273,
                "end_time": 128.21136363636364,
                "pitch": 86,
                "velocity": 40,
                "duration": 0.08409090909091788,
                "tempo": 120.0
            },
            {
                "start_time": 128.12727272727273,
                "end_time": 128.34545454545454,
                "pitch": 90,
                "velocity": 40,
                "duration": 0.2181818181818187,
                "tempo": 120.0
            },
            {
                "start_time": 128.26363636363635,
                "end_time": 128.34545454545454,
                "pitch": 90,
                "velocity": 40,
                "duration": 0.08181818181819267,
                "tempo": 120.0
            },
            {
                "start_time": 128.39772727272728,
                "end_time": 128.48181818181817,
                "pitch": 90,
                "velocity": 40,
                "duration": 0.08409090909088945,
                "tempo": 120.0
            },
            {
                "start_time": 128.5340909090909,
                "end_time": 128.61818181818182,
                "pitch": 88,
                "velocity": 40,
                "duration": 0.08409090909091788,
                "tempo": 120.0
            },
            {
                "start_time": 128.26363636363635,
                "end_time": 128.75454545454545,
                "pitch": 86,
                "velocity": 40,
                "duration": 0.4909090909090992,
                "tempo": 120.0
            },
            {
                "start_time": 128.67045454545453,
                "end_time": 128.75454545454545,
                "pitch": 86,
                "velocity": 40,
                "duration": 0.08409090909091788,
                "tempo": 120.0
            },
            {
                "start_time": 128.67045454545453,
                "end_time": 128.88863636363635,
                "pitch": 90,
                "velocity": 40,
                "duration": 0.2181818181818187,
                "tempo": 120.0
            },
            {
                "start_time": 128.8068181818182,
                "end_time": 128.88863636363635,
                "pitch": 90,
                "velocity": 40,
                "duration": 0.08181818181816425,
                "tempo": 120.0
            },
            {
                "start_time": 128.9409090909091,
                "end_time": 129.02272727272728,
                "pitch": 90,
                "velocity": 40,
                "duration": 0.08181818181819267,
                "tempo": 120.0
            },
            {
                "start_time": 128.8068181818182,
                "end_time": 129.15681818181818,
                "pitch": 86,
                "velocity": 40,
                "duration": 0.3499999999999943,
                "tempo": 120.0
            },
            {
                "start_time": 129.075,
                "end_time": 129.15681818181818,
                "pitch": 86,
                "velocity": 40,
                "duration": 0.08181818181819267,
                "tempo": 120.0
            },
            {
                "start_time": 120.58636363636363,
                "end_time": 129.20681818181816,
                "pitch": 89,
                "velocity": 40,
                "duration": 8.620454545454535,
                "tempo": 120.0
            },
            {
                "start_time": 129.20681818181816,
                "end_time": 129.29090909090908,
                "pitch": 81,
                "velocity": 40,
                "duration": 0.08409090909091788,
                "tempo": 120.0
            },
            {
                "start_time": 129.34318181818182,
                "end_time": 131.4409090909091,
                "pitch": 81,
                "velocity": 40,
                "duration": 2.097727272727269,
                "tempo": 120.0
            }
        ],
        "Acoustic Guitar (nylon)": [
            {
                "start_time": 1.0772727272727272,
                "end_time": 1.1568181818181817,
                "pitch": 67,
                "velocity": 64,
                "duration": 0.07954545454545459,
                "tempo": 120.0
            },
            {
                "start_time": 1.2068181818181818,
                "end_time": 1.2863636363636364,
                "pitch": 67,
                "velocity": 64,
                "duration": 0.07954545454545459,
                "tempo": 120.0
            },
            {
                "start_time": 1.4636363636363636,
                "end_time": 1.4659090909090908,
                "pitch": 78,
                "velocity": 64,
                "duration": 0.002272727272727204,
                "tempo": 120.0
            },
            {
                "start_time": 1.4659090909090908,
                "end_time": 1.5431818181818182,
                "pitch": 67,
                "velocity": 64,
                "duration": 0.07727272727272738,
                "tempo": 120.0
            },
            {
                "start_time": 3.218181818181818,
                "end_time": 3.3,
                "pitch": 64,
                "velocity": 64,
                "duration": 0.08181818181818201,
                "tempo": 120.0
            },
            {
                "start_time": 3.352272727272727,
                "end_time": 3.434090909090909,
                "pitch": 66,
                "velocity": 64,
                "duration": 0.08181818181818201,
                "tempo": 120.0
            },
            {
                "start_time": 3.4863636363636363,
                "end_time": 3.568181818181818,
                "pitch": 66,
                "velocity": 64,
                "duration": 0.08181818181818157,
                "tempo": 120.0
            },
            {
                "start_time": 3.620454545454545,
                "end_time": 3.702272727272727,
                "pitch": 64,
                "velocity": 64,
                "duration": 0.08181818181818201,
                "tempo": 120.0
            },
            {
                "start_time": 3.8886363636363637,
                "end_time": 4.245454545454545,
                "pitch": 66,
                "velocity": 64,
                "duration": 0.3568181818181815,
                "tempo": 120.0
            },
            {
                "start_time": 5.3954545454545455,
                "end_time": 5.472727272727273,
                "pitch": 67,
                "velocity": 64,
                "duration": 0.07727272727272716,
                "tempo": 120.0
            },
            {
                "start_time": 5.5227272727272725,
                "end_time": 5.6,
                "pitch": 67,
                "velocity": 64,
                "duration": 0.07727272727272716,
                "tempo": 120.0
            },
            {
                "start_time": 5.3954545454545455,
                "end_time": 5.7749999999999995,
                "pitch": 78,
                "velocity": 64,
                "duration": 0.37954545454545396,
                "tempo": 120.0
            },
            {
                "start_time": 5.7749999999999995,
                "end_time": 5.852272727272727,
                "pitch": 67,
                "velocity": 64,
                "duration": 0.07727272727272716,
                "tempo": 120.0
            },
            {
                "start_time": 5.7749999999999995,
                "end_time": 6.445454545454545,
                "pitch": 78,
                "velocity": 64,
                "duration": 0.6704545454545459,
                "tempo": 120.0
            },
            {
                "start_time": 6.445454545454545,
                "end_time": 6.8,
                "pitch": 69,
                "velocity": 64,
                "duration": 0.3545454545454545,
                "tempo": 120.0
            },
            {
                "start_time": 6.8545454545454545,
                "end_time": 7.204545454545454,
                "pitch": 69,
                "velocity": 64,
                "duration": 0.34999999999999964,
                "tempo": 120.0
            },
            {
                "start_time": 7.256818181818182,
                "end_time": 7.472727272727273,
                "pitch": 69,
                "velocity": 64,
                "duration": 0.21590909090909083,
                "tempo": 120.0
            },
            {
                "start_time": 7.659090909090908,
                "end_time": 7.74090909090909,
                "pitch": 66,
                "velocity": 64,
                "duration": 0.08181818181818201,
                "tempo": 120.0
            },
            {
                "start_time": 7.79090909090909,
                "end_time": 7.875,
                "pitch": 66,
                "velocity": 64,
                "duration": 0.08409090909090988,
                "tempo": 120.0
            },
            {
                "start_time": 7.925,
                "end_time": 8.006818181818181,
                "pitch": 64,
                "velocity": 64,
                "duration": 0.08181818181818112,
                "tempo": 120.0
            },
            {
                "start_time": 8.195454545454545,
                "end_time": 8.552272727272728,
                "pitch": 66,
                "velocity": 64,
                "duration": 0.35681818181818237,
                "tempo": 120.0
            },
            {
                "start_time": 6.445454545454545,
                "end_time": 9.704545454545453,
                "pitch": 78,
                "velocity": 64,
                "duration": 3.259090909090908,
                "tempo": 120.0
            },
            {
                "start_time": 9.702272727272726,
                "end_time": 9.704545454545453,
                "pitch": 78,
                "velocity": 64,
                "duration": 0.002272727272726982,
                "tempo": 120.0
            },
            {
                "start_time": 9.704545454545453,
                "end_time": 9.781818181818181,
                "pitch": 67,
                "velocity": 64,
                "duration": 0.07727272727272805,
                "tempo": 120.0
            },
            {
                "start_time": 9.831818181818182,
                "end_time": 9.911363636363635,
                "pitch": 67,
                "velocity": 64,
                "duration": 0.07954545454545325,
                "tempo": 120.0
            },
            {
                "start_time": 10.09090909090909,
                "end_time": 10.170454545454545,
                "pitch": 67,
                "velocity": 64,
                "duration": 0.07954545454545503,
                "tempo": 120.0
            },
            {
                "start_time": 11.834090909090909,
                "end_time": 11.918181818181818,
                "pitch": 64,
                "velocity": 64,
                "duration": 0.084090909090909,
                "tempo": 120.0
            },
            {
                "start_time": 11.968181818181817,
                "end_time": 12.049999999999999,
                "pitch": 66,
                "velocity": 64,
                "duration": 0.08181818181818201,
                "tempo": 120.0
            },
            {
                "start_time": 12.102272727272727,
                "end_time": 12.318181818181818,
                "pitch": 62,
                "velocity": 64,
                "duration": 0.21590909090909172,
                "tempo": 120.0
            },
            {
                "start_time": 12.370454545454544,
                "end_time": 12.454545454545453,
                "pitch": 71,
                "velocity": 64,
                "duration": 0.084090909090909,
                "tempo": 120.0
            },
            {
                "start_time": 12.643181818181818,
                "end_time": 12.997727272727271,
                "pitch": 69,
                "velocity": 64,
                "duration": 0.3545454545454536,
                "tempo": 120.0
            },
            {
                "start_time": 13.047727272727272,
                "end_time": 13.131818181818181,
                "pitch": 69,
                "velocity": 64,
                "duration": 0.084090909090909,
                "tempo": 120.0
            },
            {
                "start_time": 13.181818181818182,
                "end_time": 13.263636363636364,
                "pitch": 67,
                "velocity": 64,
                "duration": 0.08181818181818201,
                "tempo": 120.0
            },
            {
                "start_time": 13.31590909090909,
                "end_time": 13.397727272727272,
                "pitch": 74,
                "velocity": 64,
                "duration": 0.08181818181818201,
                "tempo": 120.0
            },
            {
                "start_time": 12.370454545454544,
                "end_time": 13.722727272727273,
                "pitch": 77,
                "velocity": 64,
                "duration": 1.3522727272727284,
                "tempo": 120.0
            },
            {
                "start_time": 13.722727272727273,
                "end_time": 13.806818181818182,
                "pitch": 69,
                "velocity": 64,
                "duration": 0.084090909090909,
                "tempo": 120.0
            },
            {
                "start_time": 13.859090909090908,
                "end_time": 13.943181818181818,
                "pitch": 69,
                "velocity": 64,
                "duration": 0.08409090909091077,
                "tempo": 120.0
            },
            {
                "start_time": 13.995454545454544,
                "end_time": 14.077272727272726,
                "pitch": 67,
                "velocity": 64,
                "duration": 0.08181818181818201,
                "tempo": 120.0
            },
            {
                "start_time": 13.31590909090909,
                "end_time": 14.127272727272727,
                "pitch": 43,
                "velocity": 64,
                "duration": 0.8113636363636374,
                "tempo": 120.0
            },
            {
                "start_time": 14.127272727272727,
                "end_time": 14.211363636363636,
                "pitch": 74,
                "velocity": 64,
                "duration": 0.084090909090909,
                "tempo": 120.0
            },
            {
                "start_time": 13.722727272727273,
                "end_time": 14.529545454545454,
                "pitch": 77,
                "velocity": 64,
                "duration": 0.8068181818181817,
                "tempo": 120.0
            },
            {
                "start_time": 14.529545454545454,
                "end_time": 14.613636363636363,
                "pitch": 69,
                "velocity": 64,
                "duration": 0.084090909090909,
                "tempo": 120.0
            },
            {
                "start_time": 14.665909090909091,
                "end_time": 14.75,
                "pitch": 69,
                "velocity": 64,
                "duration": 0.084090909090909,
                "tempo": 120.0
            },
            {
                "start_time": 14.802272727272726,
                "end_time": 14.886363636363635,
                "pitch": 67,
                "velocity": 64,
                "duration": 0.084090909090909,
                "tempo": 120.0
            },
            {
                "start_time": 14.127272727272727,
                "end_time": 14.938636363636363,
                "pitch": 43,
                "velocity": 64,
                "duration": 0.8113636363636356,
                "tempo": 120.0
            },
            {
                "start_time": 14.938636363636363,
                "end_time": 15.022727272727272,
                "pitch": 74,
                "velocity": 64,
                "duration": 0.084090909090909,
                "tempo": 120.0
            },
            {
                "start_time": 14.529545454545454,
                "end_time": 15.343181818181817,
                "pitch": 77,
                "velocity": 64,
                "duration": 0.8136363636363626,
                "tempo": 120.0
            },
            {
                "start_time": 15.343181818181817,
                "end_time": 15.424999999999999,
                "pitch": 69,
                "velocity": 64,
                "duration": 0.08181818181818201,
                "tempo": 120.0
            },
            {
                "start_time": 15.475,
                "end_time": 15.556818181818182,
                "pitch": 69,
                "velocity": 64,
                "duration": 0.08181818181818201,
                "tempo": 120.0
            },
            {
                "start_time": 15.609090909090908,
                "end_time": 15.693181818181817,
                "pitch": 67,
                "velocity": 64,
                "duration": 0.084090909090909,
                "tempo": 120.0
            },
            {
                "start_time": 14.938636363636363,
                "end_time": 15.745454545454544,
                "pitch": 43,
                "velocity": 64,
                "duration": 0.8068181818181817,
                "tempo": 120.0
            },
            {
                "start_time": 15.745454545454544,
                "end_time": 15.829545454545453,
                "pitch": 74,
                "velocity": 64,
                "duration": 0.084090909090909,
                "tempo": 120.0
            },
            {
                "start_time": 15.343181818181817,
                "end_time": 16.154545454545453,
                "pitch": 77,
                "velocity": 64,
                "duration": 0.8113636363636356,
                "tempo": 120.0
            },
            {
                "start_time": 16.154545454545453,
                "end_time": 16.236363636363635,
                "pitch": 69,
                "velocity": 64,
                "duration": 0.08181818181818201,
                "tempo": 120.0
            },
            {
                "start_time": 16.288636363636364,
                "end_time": 16.370454545454546,
                "pitch": 69,
                "velocity": 64,
                "duration": 0.08181818181818201,
                "tempo": 120.0
            },
            {
                "start_time": 16.422727272727272,
                "end_time": 16.504545454545454,
                "pitch": 67,
                "velocity": 64,
                "duration": 0.08181818181818201,
                "tempo": 120.0
            },
            {
                "start_time": 15.745454545454544,
                "end_time": 16.554545454545455,
                "pitch": 43,
                "velocity": 64,
                "duration": 0.8090909090909104,
                "tempo": 120.0
            },
            {
                "start_time": 16.554545454545455,
                "end_time": 16.638636363636362,
                "pitch": 74,
                "velocity": 64,
                "duration": 0.08409090909090722,
                "tempo": 120.0
            },
            {
                "start_time": 16.154545454545453,
                "end_time": 16.961363636363636,
                "pitch": 77,
                "velocity": 64,
                "duration": 0.8068181818181834,
                "tempo": 120.0
            },
            {
                "start_time": 16.961363636363636,
                "end_time": 17.045454545454543,
                "pitch": 69,
                "velocity": 64,
                "duration": 0.08409090909090722,
                "tempo": 120.0
            },
            {
                "start_time": 12.643181818181818,
                "end_time": 17.71818181818182,
                "pitch": 71,
                "velocity": 64,
                "duration": 5.075000000000001,
                "tempo": 120.0
            },
            {
                "start_time": 17.097727272727273,
                "end_time": 17.71818181818182,
                "pitch": 71,
                "velocity": 64,
                "duration": 0.620454545454546,
                "tempo": 120.0
            },
            {
                "start_time": 18.036363636363635,
                "end_time": 18.252272727272725,
                "pitch": 62,
                "velocity": 64,
                "duration": 0.21590909090908994,
                "tempo": 120.0
            },
            {
                "start_time": 18.304545454545455,
                "end_time": 18.520454545454545,
                "pitch": 62,
                "velocity": 64,
                "duration": 0.21590909090908994,
                "tempo": 120.0
            },
            {
                "start_time": 18.706818181818182,
                "end_time": 18.922727272727272,
                "pitch": 62,
                "velocity": 64,
                "duration": 0.21590909090908994,
                "tempo": 120.0
            },
            {
                "start_time": 19.111363636363635,
                "end_time": 19.331818181818182,
                "pitch": 62,
                "velocity": 64,
                "duration": 0.22045454545454746,
                "tempo": 120.0
            },
            {
                "start_time": 19.384090909090908,
                "end_time": 19.46590909090909,
                "pitch": 59,
                "velocity": 64,
                "duration": 0.08181818181818201,
                "tempo": 120.0
            },
            {
                "start_time": 19.518181818181816,
                "end_time": 19.599999999999998,
                "pitch": 59,
                "velocity": 64,
                "duration": 0.08181818181818201,
                "tempo": 120.0
            },
            {
                "start_time": 19.652272727272727,
                "end_time": 19.73409090909091,
                "pitch": 57,
                "velocity": 64,
                "duration": 0.08181818181818201,
                "tempo": 120.0
            },
            {
                "start_time": 19.652272727272727,
                "end_time": 19.868181818181817,
                "pitch": 59,
                "velocity": 64,
                "duration": 0.21590909090908994,
                "tempo": 120.0
            },
            {
                "start_time": 19.786363636363635,
                "end_time": 19.868181818181817,
                "pitch": 59,
                "velocity": 64,
                "duration": 0.08181818181818201,
                "tempo": 120.0
            },
            {
                "start_time": 18.036363636363635,
                "end_time": 20.19090909090909,
                "pitch": 44,
                "velocity": 64,
                "duration": 2.154545454545456,
                "tempo": 120.0
            },
            {
                "start_time": 20.19090909090909,
                "end_time": 20.411363636363635,
                "pitch": 62,
                "velocity": 64,
                "duration": 0.2204545454545439,
                "tempo": 120.0
            },
            {
                "start_time": 20.46363636363636,
                "end_time": 20.679545454545455,
                "pitch": 62,
                "velocity": 64,
                "duration": 0.2159090909090935,
                "tempo": 120.0
            },
            {
                "start_time": 20.86590909090909,
                "end_time": 21.081818181818182,
                "pitch": 62,
                "velocity": 64,
                "duration": 0.2159090909090935,
                "tempo": 120.0
            },
            {
                "start_time": 21.26590909090909,
                "end_time": 21.48181818181818,
                "pitch": 62,
                "velocity": 64,
                "duration": 0.21590909090908994,
                "tempo": 120.0
            },
            {
                "start_time": 19.384090909090908,
                "end_time": 21.534090909090907,
                "pitch": 65,
                "velocity": 64,
                "duration": 2.1499999999999986,
                "tempo": 120.0
            },
            {
                "start_time": 21.534090909090907,
                "end_time": 21.618181818181817,
                "pitch": 59,
                "velocity": 64,
                "duration": 0.08409090909091077,
                "tempo": 120.0
            },
            {
                "start_time": 21.670454545454543,
                "end_time": 21.754545454545454,
                "pitch": 59,
                "velocity": 64,
                "duration": 0.08409090909091077,
                "tempo": 120.0
            },
            {
                "start_time": 19.786363636363635,
                "end_time": 21.89090909090909,
                "pitch": 57,
                "velocity": 64,
                "duration": 2.1045454545454554,
                "tempo": 120.0
            },
            {
                "start_time": 21.80681818181818,
                "end_time": 21.89090909090909,
                "pitch": 57,
                "velocity": 64,
                "duration": 0.08409090909091077,
                "tempo": 120.0
            },
            {
                "start_time": 21.80681818181818,
                "end_time": 22.027272727272727,
                "pitch": 59,
                "velocity": 64,
                "duration": 0.22045454545454746,
                "tempo": 120.0
            },
            {
                "start_time": 21.943181818181817,
                "end_time": 22.027272727272727,
                "pitch": 59,
                "velocity": 64,
                "duration": 0.08409090909091077,
                "tempo": 120.0
            },
            {
                "start_time": 20.19090909090909,
                "end_time": 22.347727272727273,
                "pitch": 44,
                "velocity": 64,
                "duration": 2.1568181818181813,
                "tempo": 120.0
            },
            {
                "start_time": 22.347727272727273,
                "end_time": 22.561363636363634,
                "pitch": 62,
                "velocity": 64,
                "duration": 0.21363636363636118,
                "tempo": 120.0
            },
            {
                "start_time": 22.613636363636363,
                "end_time": 22.834090909090907,
                "pitch": 62,
                "velocity": 64,
                "duration": 0.2204545454545439,
                "tempo": 120.0
            },
            {
                "start_time": 23.022727272727273,
                "end_time": 23.24090909090909,
                "pitch": 62,
                "velocity": 64,
                "duration": 0.21818181818181515,
                "tempo": 120.0
            },
            {
                "start_time": 23.427272727272726,
                "end_time": 23.64090909090909,
                "pitch": 62,
                "velocity": 64,
                "duration": 0.21363636363636473,
                "tempo": 120.0
            },
            {
                "start_time": 16.961363636363636,
                "end_time": 23.695454545454545,
                "pitch": 77,
                "velocity": 64,
                "duration": 6.734090909090909,
                "tempo": 120.0
            },
            {
                "start_time": 23.695454545454545,
                "end_time": 23.777272727272727,
                "pitch": 71,
                "velocity": 64,
                "duration": 0.08181818181818201,
                "tempo": 120.0
            },
            {
                "start_time": 23.96590909090909,
                "end_time": 24.049999999999997,
                "pitch": 71,
                "velocity": 64,
                "duration": 0.08409090909090722,
                "tempo": 120.0
            },
            {
                "start_time": 24.238636363636363,
                "end_time": 24.320454545454545,
                "pitch": 71,
                "velocity": 64,
                "duration": 0.08181818181818201,
                "tempo": 120.0
            },
            {
                "start_time": 24.50681818181818,
                "end_time": 24.58863636363636,
                "pitch": 71,
                "velocity": 64,
                "duration": 0.08181818181818201,
                "tempo": 120.0
            },
            {
                "start_time": 24.775,
                "end_time": 24.854545454545452,
                "pitch": 71,
                "velocity": 64,
                "duration": 0.07954545454545325,
                "tempo": 120.0
            },
            {
                "start_time": 21.943181818181817,
                "end_time": 27.279545454545453,
                "pitch": 57,
                "velocity": 64,
                "duration": 5.336363636363636,
                "tempo": 120.0
            },
            {
                "start_time": 26.924999999999997,
                "end_time": 27.279545454545453,
                "pitch": 57,
                "velocity": 64,
                "duration": 0.3545454545454554,
                "tempo": 120.0
            },
            {
                "start_time": 27.331818181818182,
                "end_time": 27.41590909090909,
                "pitch": 57,
                "velocity": 64,
                "duration": 0.08409090909090722,
                "tempo": 120.0
            },
            {
                "start_time": 29.084090909090907,
                "end_time": 29.43181818181818,
                "pitch": 57,
                "velocity": 64,
                "duration": 0.34772727272727266,
                "tempo": 120.0
            },
            {
                "start_time": 29.48409090909091,
                "end_time": 29.565909090909088,
                "pitch": 57,
                "velocity": 64,
                "duration": 0.08181818181817846,
                "tempo": 120.0
            },
            {
                "start_time": 29.89090909090909,
                "end_time": 31.459090909090907,
                "pitch": 57,
                "velocity": 64,
                "duration": 1.5681818181818166,
                "tempo": 120.0
            },
            {
                "start_time": 31.509090909090908,
                "end_time": 31.727272727272727,
                "pitch": 57,
                "velocity": 64,
                "duration": 0.2181818181818187,
                "tempo": 120.0
            },
            {
                "start_time": 26.924999999999997,
                "end_time": 31.99772727272727,
                "pitch": 59,
                "velocity": 64,
                "duration": 5.072727272727274,
                "tempo": 120.0
            },
            {
                "start_time": 31.779545454545453,
                "end_time": 31.99772727272727,
                "pitch": 59,
                "velocity": 64,
                "duration": 0.2181818181818187,
                "tempo": 120.0
            },
            {
                "start_time": 31.779545454545453,
                "end_time": 32.13409090909091,
                "pitch": 57,
                "velocity": 64,
                "duration": 0.3545454545454554,
                "tempo": 120.0
            },
            {
                "start_time": 32.05,
                "end_time": 32.13409090909091,
                "pitch": 57,
                "velocity": 64,
                "duration": 0.08409090909091077,
                "tempo": 120.0
            },
            {
                "start_time": 32.18636363636364,
                "end_time": 33.340909090909086,
                "pitch": 54,
                "velocity": 64,
                "duration": 1.154545454545449,
                "tempo": 120.0
            },
            {
                "start_time": 12.102272727272727,
                "end_time": 33.393181818181816,
                "pitch": 66,
                "velocity": 64,
                "duration": 21.29090909090909,
                "tempo": 120.0
            },
            {
                "start_time": 32.05,
                "end_time": 33.47727272727273,
                "pitch": 59,
                "velocity": 64,
                "duration": 1.4272727272727295,
                "tempo": 120.0
            },
            {
                "start_time": 33.393181818181816,
                "end_time": 33.47727272727273,
                "pitch": 59,
                "velocity": 64,
                "duration": 0.08409090909091077,
                "tempo": 120.0
            },
            {
                "start_time": 33.529545454545456,
                "end_time": 33.61363636363636,
                "pitch": 59,
                "velocity": 64,
                "duration": 0.08409090909090366,
                "tempo": 120.0
            },
            {
                "start_time": 33.80227272727272,
                "end_time": 34.42045454545455,
                "pitch": 57,
                "velocity": 64,
                "duration": 0.6181818181818244,
                "tempo": 120.0
            },
            {
                "start_time": 35.55227272727272,
                "end_time": 35.902272727272724,
                "pitch": 57,
                "velocity": 64,
                "duration": 0.3500000000000014,
                "tempo": 120.0
            },
            {
                "start_time": 35.95454545454545,
                "end_time": 36.03636363636363,
                "pitch": 57,
                "velocity": 64,
                "duration": 0.08181818181817846,
                "tempo": 120.0
            },
            {
                "start_time": 37.70227272727273,
                "end_time": 38.059090909090905,
                "pitch": 57,
                "velocity": 64,
                "duration": 0.35681818181817704,
                "tempo": 120.0
            },
            {
                "start_time": 38.111363636363635,
                "end_time": 38.195454545454545,
                "pitch": 57,
                "velocity": 64,
                "duration": 0.08409090909091077,
                "tempo": 120.0
            },
            {
                "start_time": 38.52045454545454,
                "end_time": 40.08181818181818,
                "pitch": 57,
                "velocity": 64,
                "duration": 1.5613636363636374,
                "tempo": 120.0
            },
            {
                "start_time": 40.13409090909091,
                "end_time": 40.35454545454545,
                "pitch": 57,
                "velocity": 64,
                "duration": 0.2204545454545439,
                "tempo": 120.0
            },
            {
                "start_time": 33.80227272727272,
                "end_time": 40.62272727272727,
                "pitch": 59,
                "velocity": 64,
                "duration": 6.820454545454545,
                "tempo": 120.0
            },
            {
                "start_time": 40.40681818181818,
                "end_time": 40.62272727272727,
                "pitch": 59,
                "velocity": 64,
                "duration": 0.2159090909090864,
                "tempo": 120.0
            },
            {
                "start_time": 40.40681818181818,
                "end_time": 40.75681818181818,
                "pitch": 57,
                "velocity": 64,
                "duration": 0.3500000000000014,
                "tempo": 120.0
            },
            {
                "start_time": 40.675,
                "end_time": 40.75681818181818,
                "pitch": 57,
                "velocity": 64,
                "duration": 0.08181818181818556,
                "tempo": 120.0
            },
            {
                "start_time": 32.18636363636364,
                "end_time": 40.809090909090905,
                "pitch": 19,
                "velocity": 64,
                "duration": 8.622727272727268,
                "tempo": 120.0
            },
            {
                "start_time": 40.809090909090905,
                "end_time": 41.970454545454544,
                "pitch": 54,
                "velocity": 64,
                "duration": 1.1613636363636388,
                "tempo": 120.0
            },
            {
                "start_time": 33.393181818181816,
                "end_time": 42.02272727272727,
                "pitch": 66,
                "velocity": 64,
                "duration": 8.629545454545458,
                "tempo": 120.0
            },
            {
                "start_time": 40.675,
                "end_time": 42.10454545454545,
                "pitch": 59,
                "velocity": 64,
                "duration": 1.4295454545454547,
                "tempo": 120.0
            },
            {
                "start_time": 42.02272727272727,
                "end_time": 42.10454545454545,
                "pitch": 59,
                "velocity": 64,
                "duration": 0.08181818181817846,
                "tempo": 120.0
            },
            {
                "start_time": 42.15454545454545,
                "end_time": 42.23863636363636,
                "pitch": 59,
                "velocity": 64,
                "duration": 0.08409090909091077,
                "tempo": 120.0
            },
            {
                "start_time": 42.55681818181818,
                "end_time": 43.05,
                "pitch": 57,
                "velocity": 64,
                "duration": 0.4931818181818173,
                "tempo": 120.0
            },
            {
                "start_time": 7.659090909090908,
                "end_time": 43.10227272727273,
                "pitch": 31,
                "velocity": 64,
                "duration": 35.44318181818182,
                "tempo": 120.0
            },
            {
                "start_time": 43.10227272727273,
                "end_time": 43.184090909090905,
                "pitch": 64,
                "velocity": 51,
                "duration": 0.08181818181817846,
                "tempo": 120.0
            },
            {
                "start_time": 43.375,
                "end_time": 43.45681818181818,
                "pitch": 64,
                "velocity": 51,
                "duration": 0.08181818181817846,
                "tempo": 120.0
            },
            {
                "start_time": 43.64545454545454,
                "end_time": 43.72954545454545,
                "pitch": 64,
                "velocity": 51,
                "duration": 0.08409090909091077,
                "tempo": 120.0
            },
            {
                "start_time": 42.02272727272727,
                "end_time": 43.861363636363635,
                "pitch": 66,
                "velocity": 64,
                "duration": 1.8386363636363612,
                "tempo": 120.0
            },
            {
                "start_time": 43.77954545454545,
                "end_time": 43.861363636363635,
                "pitch": 66,
                "velocity": 51,
                "duration": 0.08181818181818556,
                "tempo": 120.0
            },
            {
                "start_time": 44.04772727272727,
                "end_time": 44.12954545454545,
                "pitch": 64,
                "velocity": 51,
                "duration": 0.08181818181817846,
                "tempo": 120.0
            },
            {
                "start_time": 44.31818181818181,
                "end_time": 44.402272727272724,
                "pitch": 64,
                "velocity": 51,
                "duration": 0.08409090909091077,
                "tempo": 120.0
            },
            {
                "start_time": 44.58863636363636,
                "end_time": 44.67272727272727,
                "pitch": 64,
                "velocity": 51,
                "duration": 0.08409090909091077,
                "tempo": 120.0
            },
            {
                "start_time": 44.72727272727273,
                "end_time": 44.809090909090905,
                "pitch": 64,
                "velocity": 51,
                "duration": 0.08181818181817846,
                "tempo": 120.0
            },
            {
                "start_time": 44.85909090909091,
                "end_time": 44.94318181818181,
                "pitch": 66,
                "velocity": 51,
                "duration": 0.08409090909090366,
                "tempo": 120.0
            },
            {
                "start_time": 45.127272727272725,
                "end_time": 45.34318181818182,
                "pitch": 64,
                "velocity": 51,
                "duration": 0.2159090909090935,
                "tempo": 120.0
            },
            {
                "start_time": 45.52954545454545,
                "end_time": 45.611363636363635,
                "pitch": 64,
                "velocity": 51,
                "duration": 0.08181818181818556,
                "tempo": 120.0
            },
            {
                "start_time": 45.79772727272727,
                "end_time": 45.87954545454545,
                "pitch": 64,
                "velocity": 51,
                "duration": 0.08181818181817846,
                "tempo": 120.0
            },
            {
                "start_time": 45.929545454545455,
                "end_time": 46.01136363636363,
                "pitch": 66,
                "velocity": 51,
                "duration": 0.08181818181817846,
                "tempo": 120.0
            },
            {
                "start_time": 46.19772727272727,
                "end_time": 46.27954545454545,
                "pitch": 64,
                "velocity": 51,
                "duration": 0.08181818181817846,
                "tempo": 120.0
            },
            {
                "start_time": 46.46818181818182,
                "end_time": 46.55227272727272,
                "pitch": 64,
                "velocity": 51,
                "duration": 0.08409090909090366,
                "tempo": 120.0
            },
            {
                "start_time": 10.09090909090909,
                "end_time": 46.60454545454545,
                "pitch": 78,
                "velocity": 64,
                "duration": 36.513636363636365,
                "tempo": 120.0
            },
            {
                "start_time": 46.60454545454545,
                "end_time": 46.82272727272727,
                "pitch": 67,
                "velocity": 51,
                "duration": 0.2181818181818187,
                "tempo": 120.0
            },
            {
                "start_time": 47.14545454545454,
                "end_time": 47.49545454545454,
                "pitch": 66,
                "velocity": 51,
                "duration": 0.3500000000000014,
                "tempo": 120.0
            },
            {
                "start_time": 47.684090909090905,
                "end_time": 47.76590909090909,
                "pitch": 64,
                "velocity": 51,
                "duration": 0.08181818181818556,
                "tempo": 120.0
            },
            {
                "start_time": 47.95681818181818,
                "end_time": 48.038636363636364,
                "pitch": 64,
                "velocity": 51,
                "duration": 0.08181818181818556,
                "tempo": 120.0
            },
            {
                "start_time": 48.08863636363636,
                "end_time": 48.17272727272727,
                "pitch": 66,
                "velocity": 51,
                "duration": 0.08409090909091077,
                "tempo": 120.0
            },
            {
                "start_time": 48.35681818181818,
                "end_time": 48.43863636363636,
                "pitch": 64,
                "velocity": 51,
                "duration": 0.08181818181818556,
                "tempo": 120.0
            },
            {
                "start_time": 48.627272727272725,
                "end_time": 48.711363636363636,
                "pitch": 64,
                "velocity": 51,
                "duration": 0.08409090909091077,
                "tempo": 120.0
            },
            {
                "start_time": 48.9,
                "end_time": 48.98409090909091,
                "pitch": 64,
                "velocity": 51,
                "duration": 0.08409090909091077,
                "tempo": 120.0
            },
            {
                "start_time": 49.03636363636363,
                "end_time": 49.11818181818182,
                "pitch": 64,
                "velocity": 51,
                "duration": 0.08181818181818556,
                "tempo": 120.0
            },
            {
                "start_time": 49.168181818181814,
                "end_time": 49.252272727272725,
                "pitch": 66,
                "velocity": 51,
                "duration": 0.08409090909091077,
                "tempo": 120.0
            },
            {
                "start_time": 49.43636363636364,
                "end_time": 49.652272727272724,
                "pitch": 64,
                "velocity": 51,
                "duration": 0.2159090909090864,
                "tempo": 120.0
            },
            {
                "start_time": 49.83863636363636,
                "end_time": 49.92045454545454,
                "pitch": 64,
                "velocity": 51,
                "duration": 0.08181818181817846,
                "tempo": 120.0
            },
            {
                "start_time": 50.10681818181818,
                "end_time": 50.18863636363636,
                "pitch": 64,
                "velocity": 51,
                "duration": 0.08181818181818556,
                "tempo": 120.0
            },
            {
                "start_time": 50.23863636363636,
                "end_time": 50.32272727272727,
                "pitch": 66,
                "velocity": 51,
                "duration": 0.08409090909091077,
                "tempo": 120.0
            },
            {
                "start_time": 50.50681818181818,
                "end_time": 50.58863636363636,
                "pitch": 64,
                "velocity": 51,
                "duration": 0.08181818181817846,
                "tempo": 120.0
            },
            {
                "start_time": 50.777272727272724,
                "end_time": 50.861363636363635,
                "pitch": 64,
                "velocity": 51,
                "duration": 0.08409090909091077,
                "tempo": 120.0
            },
            {
                "start_time": 46.60454545454545,
                "end_time": 50.913636363636364,
                "pitch": 78,
                "velocity": 51,
                "duration": 4.309090909090912,
                "tempo": 120.0
            },
            {
                "start_time": 50.913636363636364,
                "end_time": 51.13409090909091,
                "pitch": 67,
                "velocity": 51,
                "duration": 0.2204545454545439,
                "tempo": 120.0
            },
            {
                "start_time": 51.459090909090904,
                "end_time": 51.81363636363636,
                "pitch": 66,
                "velocity": 51,
                "duration": 0.35454545454545894,
                "tempo": 120.0
            },
            {
                "start_time": 51.99772727272727,
                "end_time": 52.07954545454545,
                "pitch": 64,
                "velocity": 51,
                "duration": 0.08181818181818556,
                "tempo": 120.0
            },
            {
                "start_time": 52.26590909090909,
                "end_time": 52.34772727272727,
                "pitch": 64,
                "velocity": 51,
                "duration": 0.08181818181817846,
                "tempo": 120.0
            },
            {
                "start_time": 52.4,
                "end_time": 52.48181818181818,
                "pitch": 64,
                "velocity": 51,
                "duration": 0.08181818181817846,
                "tempo": 120.0
            },
            {
                "start_time": 52.66590909090909,
                "end_time": 52.75,
                "pitch": 64,
                "velocity": 51,
                "duration": 0.08409090909091077,
                "tempo": 120.0
            },
            {
                "start_time": 52.93636363636363,
                "end_time": 53.02045454545454,
                "pitch": 64,
                "velocity": 51,
                "duration": 0.08409090909091077,
                "tempo": 120.0
            },
            {
                "start_time": 53.209090909090904,
                "end_time": 53.293181818181814,
                "pitch": 64,
                "velocity": 51,
                "duration": 0.08409090909091077,
                "tempo": 120.0
            },
            {
                "start_time": 53.345454545454544,
                "end_time": 53.42727272727272,
                "pitch": 64,
                "velocity": 51,
                "duration": 0.08181818181817846,
                "tempo": 120.0
            },
            {
                "start_time": 53.61363636363636,
                "end_time": 53.695454545454545,
                "pitch": 64,
                "velocity": 51,
                "duration": 0.08181818181818556,
                "tempo": 120.0
            },
            {
                "start_time": 53.74772727272727,
                "end_time": 53.96363636363636,
                "pitch": 64,
                "velocity": 51,
                "duration": 0.2159090909090935,
                "tempo": 120.0
            },
            {
                "start_time": 54.14772727272727,
                "end_time": 54.22954545454545,
                "pitch": 64,
                "velocity": 51,
                "duration": 0.08181818181817846,
                "tempo": 120.0
            },
            {
                "start_time": 54.41590909090909,
                "end_time": 54.5,
                "pitch": 64,
                "velocity": 51,
                "duration": 0.08409090909091077,
                "tempo": 120.0
            },
            {
                "start_time": 54.55227272727272,
                "end_time": 54.63636363636363,
                "pitch": 64,
                "velocity": 51,
                "duration": 0.08409090909091077,
                "tempo": 120.0
            },
            {
                "start_time": 54.82272727272727,
                "end_time": 54.90681818181818,
                "pitch": 64,
                "velocity": 51,
                "duration": 0.08409090909091077,
                "tempo": 120.0
            },
            {
                "start_time": 55.095454545454544,
                "end_time": 55.179545454545455,
                "pitch": 64,
                "velocity": 51,
                "duration": 0.08409090909091077,
                "tempo": 120.0
            },
            {
                "start_time": 55.36818181818182,
                "end_time": 55.45227272727273,
                "pitch": 64,
                "velocity": 51,
                "duration": 0.08409090909091077,
                "tempo": 120.0
            },
            {
                "start_time": 55.506818181818176,
                "end_time": 55.586363636363636,
                "pitch": 64,
                "velocity": 51,
                "duration": 0.07954545454546036,
                "tempo": 120.0
            },
            {
                "start_time": 55.77272727272727,
                "end_time": 55.85454545454545,
                "pitch": 64,
                "velocity": 51,
                "duration": 0.08181818181817846,
                "tempo": 120.0
            },
            {
                "start_time": 55.90681818181818,
                "end_time": 56.12272727272727,
                "pitch": 64,
                "velocity": 51,
                "duration": 0.2159090909090864,
                "tempo": 120.0
            },
            {
                "start_time": 56.309090909090905,
                "end_time": 56.39090909090909,
                "pitch": 64,
                "velocity": 51,
                "duration": 0.08181818181818556,
                "tempo": 120.0
            },
            {
                "start_time": 56.574999999999996,
                "end_time": 56.65681818181818,
                "pitch": 64,
                "velocity": 51,
                "duration": 0.08181818181818556,
                "tempo": 120.0
            },
            {
                "start_time": 56.709090909090904,
                "end_time": 56.79090909090909,
                "pitch": 61,
                "velocity": 51,
                "duration": 0.08181818181818556,
                "tempo": 120.0
            },
            {
                "start_time": 56.97727272727273,
                "end_time": 57.059090909090905,
                "pitch": 66,
                "velocity": 51,
                "duration": 0.08181818181817846,
                "tempo": 120.0
            },
            {
                "start_time": 57.24545454545454,
                "end_time": 57.32954545454545,
                "pitch": 66,
                "velocity": 51,
                "duration": 0.08409090909091077,
                "tempo": 120.0
            },
            {
                "start_time": 57.518181818181816,
                "end_time": 57.60227272727273,
                "pitch": 66,
                "velocity": 51,
                "duration": 0.08409090909091077,
                "tempo": 120.0
            },
            {
                "start_time": 57.65681818181818,
                "end_time": 57.73863636363636,
                "pitch": 66,
                "velocity": 51,
                "duration": 0.08181818181817846,
                "tempo": 120.0
            },
            {
                "start_time": 57.92727272727272,
                "end_time": 58.01136363636363,
                "pitch": 64,
                "velocity": 51,
                "duration": 0.08409090909091077,
                "tempo": 120.0
            },
            {
                "start_time": 58.199999999999996,
                "end_time": 58.28181818181818,
                "pitch": 64,
                "velocity": 51,
                "duration": 0.08181818181818556,
                "tempo": 120.0
            },
            {
                "start_time": 56.709090909090904,
                "end_time": 60.29772727272727,
                "pitch": 63,
                "velocity": 51,
                "duration": 3.5886363636363683,
                "tempo": 120.0
            },
            {
                "start_time": 59.538636363636364,
                "end_time": 60.29772727272727,
                "pitch": 63,
                "velocity": 51,
                "duration": 0.7590909090909079,
                "tempo": 120.0
            },
            {
                "start_time": 21.534090909090907,
                "end_time": 61.42045454545454,
                "pitch": 65,
                "velocity": 64,
                "duration": 39.88636363636363,
                "tempo": 120.0
            },
            {
                "start_time": 61.42045454545454,
                "end_time": 61.777272727272724,
                "pitch": 57,
                "velocity": 64,
                "duration": 0.35681818181818414,
                "tempo": 120.0
            },
            {
                "start_time": 61.82954545454545,
                "end_time": 61.91136363636363,
                "pitch": 57,
                "velocity": 64,
                "duration": 0.08181818181817846,
                "tempo": 120.0
            },
            {
                "start_time": 63.58181818181818,
                "end_time": 63.929545454545455,
                "pitch": 57,
                "velocity": 64,
                "duration": 0.3477272727272762,
                "tempo": 120.0
            },
            {
                "start_time": 63.98181818181818,
                "end_time": 64.06363636363636,
                "pitch": 57,
                "velocity": 64,
                "duration": 0.08181818181818556,
                "tempo": 120.0
            },
            {
                "start_time": 64.38636363636364,
                "end_time": 65.95681818181818,
                "pitch": 57,
                "velocity": 64,
                "duration": 1.5704545454545382,
                "tempo": 120.0
            },
            {
                "start_time": 66.00681818181818,
                "end_time": 66.22272727272727,
                "pitch": 57,
                "velocity": 64,
                "duration": 0.2159090909090935,
                "tempo": 120.0
            },
            {
                "start_time": 42.55681818181818,
                "end_time": 66.49090909090908,
                "pitch": 59,
                "velocity": 64,
                "duration": 23.934090909090905,
                "tempo": 120.0
            },
            {
                "start_time": 66.27499999999999,
                "end_time": 66.49090909090908,
                "pitch": 59,
                "velocity": 64,
                "duration": 0.2159090909090935,
                "tempo": 120.0
            },
            {
                "start_time": 66.27499999999999,
                "end_time": 66.625,
                "pitch": 57,
                "velocity": 64,
                "duration": 0.3500000000000085,
                "tempo": 120.0
            },
            {
                "start_time": 66.54318181818182,
                "end_time": 66.625,
                "pitch": 57,
                "velocity": 64,
                "duration": 0.08181818181817846,
                "tempo": 120.0
            },
            {
                "start_time": 40.809090909090905,
                "end_time": 66.67727272727272,
                "pitch": 19,
                "velocity": 64,
                "duration": 25.868181818181817,
                "tempo": 120.0
            },
            {
                "start_time": 66.67727272727272,
                "end_time": 67.83863636363635,
                "pitch": 54,
                "velocity": 64,
                "duration": 1.1613636363636317,
                "tempo": 120.0
            },
            {
                "start_time": 66.54318181818182,
                "end_time": 67.97272727272727,
                "pitch": 59,
                "velocity": 64,
                "duration": 1.4295454545454476,
                "tempo": 120.0
            },
            {
                "start_time": 67.89090909090909,
                "end_time": 67.97272727272727,
                "pitch": 59,
                "velocity": 64,
                "duration": 0.08181818181817846,
                "tempo": 120.0
            },
            {
                "start_time": 68.02499999999999,
                "end_time": 68.10909090909091,
                "pitch": 59,
                "velocity": 64,
                "duration": 0.08409090909091788,
                "tempo": 120.0
            },
            {
                "start_time": 68.29772727272727,
                "end_time": 68.91818181818182,
                "pitch": 57,
                "velocity": 64,
                "duration": 0.6204545454545496,
                "tempo": 120.0
            },
            {
                "start_time": 70.05,
                "end_time": 70.39772727272727,
                "pitch": 57,
                "velocity": 64,
                "duration": 0.3477272727272691,
                "tempo": 120.0
            },
            {
                "start_time": 70.45,
                "end_time": 70.53181818181818,
                "pitch": 57,
                "velocity": 64,
                "duration": 0.08181818181817846,
                "tempo": 120.0
            },
            {
                "start_time": 72.2,
                "end_time": 72.55454545454545,
                "pitch": 57,
                "velocity": 64,
                "duration": 0.3545454545454447,
                "tempo": 120.0
            },
            {
                "start_time": 72.60681818181818,
                "end_time": 72.69090909090909,
                "pitch": 57,
                "velocity": 64,
                "duration": 0.08409090909090366,
                "tempo": 120.0
            },
            {
                "start_time": 73.01590909090909,
                "end_time": 74.57954545454545,
                "pitch": 57,
                "velocity": 64,
                "duration": 1.5636363636363626,
                "tempo": 120.0
            },
            {
                "start_time": 74.63181818181818,
                "end_time": 74.85,
                "pitch": 57,
                "velocity": 64,
                "duration": 0.2181818181818187,
                "tempo": 120.0
            },
            {
                "start_time": 68.29772727272727,
                "end_time": 75.12045454545454,
                "pitch": 59,
                "velocity": 64,
                "duration": 6.822727272727263,
                "tempo": 120.0
            },
            {
                "start_time": 74.90454545454546,
                "end_time": 75.12045454545454,
                "pitch": 59,
                "velocity": 64,
                "duration": 0.21590909090907928,
                "tempo": 120.0
            },
            {
                "start_time": 74.90454545454546,
                "end_time": 75.25227272727273,
                "pitch": 57,
                "velocity": 64,
                "duration": 0.3477272727272691,
                "tempo": 120.0
            },
            {
                "start_time": 75.17045454545455,
                "end_time": 75.25227272727273,
                "pitch": 57,
                "velocity": 64,
                "duration": 0.08181818181817846,
                "tempo": 120.0
            },
            {
                "start_time": 66.67727272727272,
                "end_time": 75.30454545454545,
                "pitch": 19,
                "velocity": 64,
                "duration": 8.627272727272725,
                "tempo": 120.0
            },
            {
                "start_time": 75.30454545454545,
                "end_time": 76.4659090909091,
                "pitch": 54,
                "velocity": 64,
                "duration": 1.161363636363646,
                "tempo": 120.0
            },
            {
                "start_time": 67.89090909090909,
                "end_time": 76.51818181818182,
                "pitch": 66,
                "velocity": 64,
                "duration": 8.627272727272725,
                "tempo": 120.0
            },
            {
                "start_time": 75.17045454545455,
                "end_time": 76.6,
                "pitch": 59,
                "velocity": 64,
                "duration": 1.4295454545454476,
                "tempo": 120.0
            },
            {
                "start_time": 76.51818181818182,
                "end_time": 76.6,
                "pitch": 59,
                "velocity": 64,
                "duration": 0.08181818181817846,
                "tempo": 120.0
            },
            {
                "start_time": 76.65227272727272,
                "end_time": 76.73409090909091,
                "pitch": 59,
                "velocity": 64,
                "duration": 0.08181818181819267,
                "tempo": 120.0
            },
            {
                "start_time": 77.05454545454545,
                "end_time": 77.54545454545455,
                "pitch": 57,
                "velocity": 64,
                "duration": 0.4909090909090992,
                "tempo": 120.0
            },
            {
                "start_time": 43.10227272727273,
                "end_time": 77.6,
                "pitch": 31,
                "velocity": 51,
                "duration": 34.49772727272727,
                "tempo": 120.0
            },
            {
                "start_time": 77.6,
                "end_time": 77.68181818181817,
                "pitch": 64,
                "velocity": 51,
                "duration": 0.08181818181817846,
                "tempo": 120.0
            },
            {
                "start_time": 77.87045454545454,
                "end_time": 77.95454545454545,
                "pitch": 64,
                "velocity": 51,
                "duration": 0.08409090909091788,
                "tempo": 120.0
            },
            {
                "start_time": 78.14318181818182,
                "end_time": 78.225,
                "pitch": 64,
                "velocity": 51,
                "duration": 0.08181818181817846,
                "tempo": 120.0
            },
            {
                "start_time": 76.51818181818182,
                "end_time": 78.35909090909091,
                "pitch": 66,
                "velocity": 64,
                "duration": 1.8409090909090935,
                "tempo": 120.0
            },
            {
                "start_time": 78.27727272727272,
                "end_time": 78.35909090909091,
                "pitch": 66,
                "velocity": 51,
                "duration": 0.08181818181819267,
                "tempo": 120.0
            },
            {
                "start_time": 78.54318181818181,
                "end_time": 78.62727272727273,
                "pitch": 64,
                "velocity": 51,
                "duration": 0.08409090909091788,
                "tempo": 120.0
            },
            {
                "start_time": 78.81363636363636,
                "end_time": 78.89772727272727,
                "pitch": 64,
                "velocity": 51,
                "duration": 0.08409090909090366,
                "tempo": 120.0
            },
            {
                "start_time": 79.08636363636363,
                "end_time": 79.17045454545455,
                "pitch": 64,
                "velocity": 51,
                "duration": 0.08409090909091788,
                "tempo": 120.0
            },
            {
                "start_time": 79.22272727272727,
                "end_time": 79.30454545454545,
                "pitch": 64,
                "velocity": 51,
                "duration": 0.08181818181817846,
                "tempo": 120.0
            },
            {
                "start_time": 79.35681818181818,
                "end_time": 79.43863636363636,
                "pitch": 66,
                "velocity": 51,
                "duration": 0.08181818181817846,
                "tempo": 120.0
            },
            {
                "start_time": 79.625,
                "end_time": 79.8409090909091,
                "pitch": 64,
                "velocity": 51,
                "duration": 0.2159090909090935,
                "tempo": 120.0
            },
            {
                "start_time": 80.02499999999999,
                "end_time": 80.10681818181818,
                "pitch": 64,
                "velocity": 51,
                "duration": 0.08181818181819267,
                "tempo": 120.0
            },
            {
                "start_time": 80.29318181818181,
                "end_time": 80.375,
                "pitch": 64,
                "velocity": 51,
                "duration": 0.08181818181819267,
                "tempo": 120.0
            },
            {
                "start_time": 80.42727272727272,
                "end_time": 80.5090909090909,
                "pitch": 66,
                "velocity": 51,
                "duration": 0.08181818181817846,
                "tempo": 120.0
            },
            {
                "start_time": 80.69545454545454,
                "end_time": 80.77727272727272,
                "pitch": 64,
                "velocity": 51,
                "duration": 0.08181818181817846,
                "tempo": 120.0
            },
            {
                "start_time": 80.96363636363635,
                "end_time": 81.04772727272727,
                "pitch": 64,
                "velocity": 51,
                "duration": 0.08409090909091788,
                "tempo": 120.0
            },
            {
                "start_time": 50.913636363636364,
                "end_time": 81.10227272727272,
                "pitch": 78,
                "velocity": 51,
                "duration": 30.188636363636355,
                "tempo": 120.0
            },
            {
                "start_time": 81.10227272727272,
                "end_time": 81.32045454545454,
                "pitch": 67,
                "velocity": 51,
                "duration": 0.2181818181818187,
                "tempo": 120.0
            },
            {
                "start_time": 81.64090909090909,
                "end_time": 81.99090909090908,
                "pitch": 66,
                "velocity": 51,
                "duration": 0.3499999999999943,
                "tempo": 120.0
            },
            {
                "start_time": 82.17954545454545,
                "end_time": 82.26363636363637,
                "pitch": 64,
                "velocity": 51,
                "duration": 0.08409090909091788,
                "tempo": 120.0
            },
            {
                "start_time": 82.45227272727273,
                "end_time": 82.5340909090909,
                "pitch": 64,
                "velocity": 51,
                "duration": 0.08181818181817846,
                "tempo": 120.0
            },
            {
                "start_time": 82.58636363636363,
                "end_time": 82.66818181818181,
                "pitch": 66,
                "velocity": 51,
                "duration": 0.08181818181817846,
                "tempo": 120.0
            },
            {
                "start_time": 82.85454545454544,
                "end_time": 82.93636363636364,
                "pitch": 64,
                "velocity": 51,
                "duration": 0.08181818181819267,
                "tempo": 120.0
            },
            {
                "start_time": 83.12272727272727,
                "end_time": 83.20681818181818,
                "pitch": 64,
                "velocity": 51,
                "duration": 0.08409090909090366,
                "tempo": 120.0
            },
            {
                "start_time": 83.39545454545454,
                "end_time": 83.47954545454544,
                "pitch": 64,
                "velocity": 51,
                "duration": 0.08409090909090366,
                "tempo": 120.0
            },
            {
                "start_time": 83.5340909090909,
                "end_time": 83.61363636363636,
                "pitch": 64,
                "velocity": 51,
                "duration": 0.07954545454545325,
                "tempo": 120.0
            },
            {
                "start_time": 83.66590909090908,
                "end_time": 83.74772727272727,
                "pitch": 66,
                "velocity": 51,
                "duration": 0.08181818181819267,
                "tempo": 120.0
            },
            {
                "start_time": 83.9340909090909,
                "end_time": 84.14999999999999,
                "pitch": 64,
                "velocity": 51,
                "duration": 0.2159090909090935,
                "tempo": 120.0
            },
            {
                "start_time": 84.33636363636363,
                "end_time": 84.41818181818181,
                "pitch": 64,
                "velocity": 51,
                "duration": 0.08181818181817846,
                "tempo": 120.0
            },
            {
                "start_time": 84.60227272727272,
                "end_time": 84.6840909090909,
                "pitch": 64,
                "velocity": 51,
                "duration": 0.08181818181817846,
                "tempo": 120.0
            },
            {
                "start_time": 84.73636363636363,
                "end_time": 84.81818181818181,
                "pitch": 66,
                "velocity": 51,
                "duration": 0.08181818181817846,
                "tempo": 120.0
            },
            {
                "start_time": 85.00454545454545,
                "end_time": 85.08636363636363,
                "pitch": 64,
                "velocity": 51,
                "duration": 0.08181818181817846,
                "tempo": 120.0
            },
            {
                "start_time": 85.27272727272727,
                "end_time": 85.35681818181818,
                "pitch": 64,
                "velocity": 51,
                "duration": 0.08409090909091788,
                "tempo": 120.0
            },
            {
                "start_time": 81.10227272727272,
                "end_time": 85.41136363636363,
                "pitch": 78,
                "velocity": 51,
                "duration": 4.309090909090912,
                "tempo": 120.0
            },
            {
                "start_time": 85.41136363636363,
                "end_time": 85.62954545454545,
                "pitch": 67,
                "velocity": 51,
                "duration": 0.2181818181818187,
                "tempo": 120.0
            },
            {
                "start_time": 85.95454545454545,
                "end_time": 86.3090909090909,
                "pitch": 66,
                "velocity": 51,
                "duration": 0.3545454545454447,
                "tempo": 120.0
            },
            {
                "start_time": 86.49545454545454,
                "end_time": 86.57727272727273,
                "pitch": 64,
                "velocity": 51,
                "duration": 0.08181818181819267,
                "tempo": 120.0
            },
            {
                "start_time": 86.76363636363637,
                "end_time": 86.84545454545454,
                "pitch": 64,
                "velocity": 51,
                "duration": 0.08181818181817846,
                "tempo": 120.0
            },
            {
                "start_time": 86.89545454545454,
                "end_time": 86.97954545454544,
                "pitch": 64,
                "velocity": 51,
                "duration": 0.08409090909090366,
                "tempo": 120.0
            },
            {
                "start_time": 87.16363636363636,
                "end_time": 87.24545454545454,
                "pitch": 64,
                "velocity": 51,
                "duration": 0.08181818181817846,
                "tempo": 120.0
            },
            {
                "start_time": 87.4340909090909,
                "end_time": 87.51818181818182,
                "pitch": 64,
                "velocity": 51,
                "duration": 0.08409090909091788,
                "tempo": 120.0
            },
            {
                "start_time": 87.70454545454545,
                "end_time": 87.78863636363636,
                "pitch": 64,
                "velocity": 51,
                "duration": 0.08409090909090366,
                "tempo": 120.0
            },
            {
                "start_time": 87.84318181818182,
                "end_time": 87.925,
                "pitch": 64,
                "velocity": 51,
                "duration": 0.08181818181817846,
                "tempo": 120.0
            },
            {
                "start_time": 88.11136363636363,
                "end_time": 88.19090909090909,
                "pitch": 64,
                "velocity": 51,
                "duration": 0.07954545454545325,
                "tempo": 120.0
            },
            {
                "start_time": 88.24545454545454,
                "end_time": 88.4590909090909,
                "pitch": 64,
                "velocity": 51,
                "duration": 0.2136363636363683,
                "tempo": 120.0
            },
            {
                "start_time": 88.64545454545454,
                "end_time": 88.72727272727272,
                "pitch": 64,
                "velocity": 51,
                "duration": 0.08181818181817846,
                "tempo": 120.0
            },
            {
                "start_time": 88.91363636363636,
                "end_time": 88.99545454545454,
                "pitch": 64,
                "velocity": 51,
                "duration": 0.08181818181817846,
                "tempo": 120.0
            },
            {
                "start_time": 89.04772727272727,
                "end_time": 89.13181818181818,
                "pitch": 64,
                "velocity": 51,
                "duration": 0.08409090909090366,
                "tempo": 120.0
            },
            {
                "start_time": 89.32045454545454,
                "end_time": 89.40454545454546,
                "pitch": 64,
                "velocity": 51,
                "duration": 0.08409090909091788,
                "tempo": 120.0
            },
            {
                "start_time": 89.59318181818182,
                "end_time": 89.67727272727272,
                "pitch": 64,
                "velocity": 51,
                "duration": 0.08409090909090366,
                "tempo": 120.0
            },
            {
                "start_time": 89.86590909090908,
                "end_time": 89.94999999999999,
                "pitch": 64,
                "velocity": 51,
                "duration": 0.08409090909090366,
                "tempo": 120.0
            },
            {
                "start_time": 90.00227272727273,
                "end_time": 90.0840909090909,
                "pitch": 64,
                "velocity": 51,
                "duration": 0.08181818181817846,
                "tempo": 120.0
            },
            {
                "start_time": 90.27045454545454,
                "end_time": 90.35227272727272,
                "pitch": 64,
                "velocity": 51,
                "duration": 0.08181818181817846,
                "tempo": 120.0
            },
            {
                "start_time": 90.40454545454546,
                "end_time": 90.61818181818181,
                "pitch": 64,
                "velocity": 51,
                "duration": 0.21363636363635408,
                "tempo": 120.0
            },
            {
                "start_time": 90.80454545454545,
                "end_time": 90.88636363636363,
                "pitch": 64,
                "velocity": 51,
                "duration": 0.08181818181817846,
                "tempo": 120.0
            },
            {
                "start_time": 91.07272727272726,
                "end_time": 91.15454545454546,
                "pitch": 64,
                "velocity": 51,
                "duration": 0.08181818181819267,
                "tempo": 120.0
            },
            {
                "start_time": 56.97727272727273,
                "end_time": 91.28863636363636,
                "pitch": 61,
                "velocity": 51,
                "duration": 34.31136363636363,
                "tempo": 120.0
            },
            {
                "start_time": 91.20681818181818,
                "end_time": 91.28863636363636,
                "pitch": 61,
                "velocity": 51,
                "duration": 0.08181818181817846,
                "tempo": 120.0
            },
            {
                "start_time": 91.47272727272727,
                "end_time": 91.55454545454545,
                "pitch": 66,
                "velocity": 51,
                "duration": 0.08181818181817846,
                "tempo": 120.0
            },
            {
                "start_time": 91.74318181818181,
                "end_time": 91.82727272727273,
                "pitch": 66,
                "velocity": 51,
                "duration": 0.08409090909091788,
                "tempo": 120.0
            },
            {
                "start_time": 92.01590909090909,
                "end_time": 92.1,
                "pitch": 66,
                "velocity": 51,
                "duration": 0.08409090909090366,
                "tempo": 120.0
            },
            {
                "start_time": 91.47272727272727,
                "end_time": 92.37272727272727,
                "pitch": 61,
                "velocity": 51,
                "duration": 0.9000000000000057,
                "tempo": 120.0
            },
            {
                "start_time": 92.15454545454546,
                "end_time": 92.37272727272727,
                "pitch": 61,
                "velocity": 51,
                "duration": 0.2181818181818187,
                "tempo": 120.0
            },
            {
                "start_time": 91.20681818181818,
                "end_time": 92.64318181818182,
                "pitch": 63,
                "velocity": 51,
                "duration": 1.4363636363636374,
                "tempo": 120.0
            },
            {
                "start_time": 92.425,
                "end_time": 92.64318181818182,
                "pitch": 63,
                "velocity": 51,
                "duration": 0.2181818181818187,
                "tempo": 120.0
            },
            {
                "start_time": 17.097727272727273,
                "end_time": 132.92272727272726,
                "pitch": 69,
                "velocity": 64,
                "duration": 115.82499999999999,
                "tempo": 120.0
            },
            {
                "start_time": 132.57272727272726,
                "end_time": 132.92272727272726,
                "pitch": 69,
                "velocity": 64,
                "duration": 0.3499999999999943,
                "tempo": 120.0
            },
            {
                "start_time": 132.975,
                "end_time": 133.0568181818182,
                "pitch": 69,
                "velocity": 64,
                "duration": 0.08181818181819267,
                "tempo": 120.0
            },
            {
                "start_time": 136.88181818181818,
                "end_time": 137.23181818181817,
                "pitch": 69,
                "velocity": 64,
                "duration": 0.3499999999999943,
                "tempo": 120.0
            },
            {
                "start_time": 137.2840909090909,
                "end_time": 137.36590909090907,
                "pitch": 69,
                "velocity": 64,
                "duration": 0.08181818181816425,
                "tempo": 120.0
            }
        ],
        "Electric Guitar (clean)": [
            {
                "start_time": 0.006818181818181818,
                "end_time": 0.07954545454545454,
                "pitch": 52,
                "velocity": 32,
                "duration": 0.07272727272727272,
                "tempo": 120.0
            },
            {
                "start_time": 0.12954545454545455,
                "end_time": 0.21363636363636362,
                "pitch": 52,
                "velocity": 32,
                "duration": 0.08409090909090908,
                "tempo": 120.0
            },
            {
                "start_time": 0.2636363636363636,
                "end_time": 0.3477272727272727,
                "pitch": 52,
                "velocity": 32,
                "duration": 0.0840909090909091,
                "tempo": 120.0
            },
            {
                "start_time": 0.3977272727272727,
                "end_time": 0.4818181818181818,
                "pitch": 50,
                "velocity": 32,
                "duration": 0.0840909090909091,
                "tempo": 120.0
            },
            {
                "start_time": 0.8045454545454545,
                "end_time": 1.025,
                "pitch": 55,
                "velocity": 32,
                "duration": 0.22045454545454546,
                "tempo": 120.0
            },
            {
                "start_time": 1.0772727272727272,
                "end_time": 1.2863636363636364,
                "pitch": 55,
                "velocity": 32,
                "duration": 0.20909090909090922,
                "tempo": 120.0
            },
            {
                "start_time": 1.3363636363636362,
                "end_time": 1.4159090909090908,
                "pitch": 69,
                "velocity": 32,
                "duration": 0.07954545454545459,
                "tempo": 120.0
            },
            {
                "start_time": 1.4659090909090908,
                "end_time": 1.6772727272727272,
                "pitch": 57,
                "velocity": 32,
                "duration": 0.21136363636363642,
                "tempo": 120.0
            },
            {
                "start_time": 1.7295454545454545,
                "end_time": 1.8136363636363635,
                "pitch": 55,
                "velocity": 32,
                "duration": 0.084090909090909,
                "tempo": 120.0
            },
            {
                "start_time": 1.8659090909090907,
                "end_time": 1.95,
                "pitch": 67,
                "velocity": 32,
                "duration": 0.08409090909090922,
                "tempo": 120.0
            },
            {
                "start_time": 2.002272727272727,
                "end_time": 2.0863636363636364,
                "pitch": 57,
                "velocity": 32,
                "duration": 0.08409090909090944,
                "tempo": 120.0
            },
            {
                "start_time": 2.1386363636363637,
                "end_time": 2.2227272727272727,
                "pitch": 52,
                "velocity": 32,
                "duration": 0.084090909090909,
                "tempo": 120.0
            },
            {
                "start_time": 2.2727272727272725,
                "end_time": 2.359090909090909,
                "pitch": 52,
                "velocity": 32,
                "duration": 0.08636363636363642,
                "tempo": 120.0
            },
            {
                "start_time": 2.409090909090909,
                "end_time": 2.493181818181818,
                "pitch": 52,
                "velocity": 32,
                "duration": 0.084090909090909,
                "tempo": 120.0
            },
            {
                "start_time": 2.5454545454545454,
                "end_time": 2.6295454545454544,
                "pitch": 50,
                "velocity": 32,
                "duration": 0.084090909090909,
                "tempo": 120.0
            },
            {
                "start_time": 0.8045454545454545,
                "end_time": 2.9499999999999997,
                "pitch": 66,
                "velocity": 32,
                "duration": 2.1454545454545455,
                "tempo": 120.0
            },
            {
                "start_time": 2.9499999999999997,
                "end_time": 3.1659090909090906,
                "pitch": 55,
                "velocity": 32,
                "duration": 0.21590909090909083,
                "tempo": 120.0
            },
            {
                "start_time": 3.218181818181818,
                "end_time": 3.434090909090909,
                "pitch": 55,
                "velocity": 32,
                "duration": 0.21590909090909127,
                "tempo": 120.0
            },
            {
                "start_time": 3.4863636363636363,
                "end_time": 3.568181818181818,
                "pitch": 69,
                "velocity": 32,
                "duration": 0.08181818181818157,
                "tempo": 120.0
            },
            {
                "start_time": 3.620454545454545,
                "end_time": 3.836363636363636,
                "pitch": 57,
                "velocity": 32,
                "duration": 0.21590909090909083,
                "tempo": 120.0
            },
            {
                "start_time": 3.8909090909090907,
                "end_time": 3.9727272727272727,
                "pitch": 55,
                "velocity": 32,
                "duration": 0.08181818181818201,
                "tempo": 120.0
            },
            {
                "start_time": 4.027272727272727,
                "end_time": 4.1090909090909085,
                "pitch": 67,
                "velocity": 32,
                "duration": 0.08181818181818112,
                "tempo": 120.0
            },
            {
                "start_time": 4.161363636363636,
                "end_time": 4.245454545454545,
                "pitch": 57,
                "velocity": 32,
                "duration": 0.084090909090909,
                "tempo": 120.0
            },
            {
                "start_time": 2.1386363636363637,
                "end_time": 4.3,
                "pitch": 19,
                "velocity": 32,
                "duration": 2.161363636363636,
                "tempo": 120.0
            },
            {
                "start_time": 4.3,
                "end_time": 4.379545454545454,
                "pitch": 52,
                "velocity": 32,
                "duration": 0.07954545454545414,
                "tempo": 120.0
            },
            {
                "start_time": 4.431818181818182,
                "end_time": 4.513636363636364,
                "pitch": 52,
                "velocity": 32,
                "duration": 0.08181818181818201,
                "tempo": 120.0
            },
            {
                "start_time": 4.5659090909090905,
                "end_time": 4.6477272727272725,
                "pitch": 52,
                "velocity": 32,
                "duration": 0.08181818181818201,
                "tempo": 120.0
            },
            {
                "start_time": 4.697727272727272,
                "end_time": 4.781818181818181,
                "pitch": 50,
                "velocity": 32,
                "duration": 0.084090909090909,
                "tempo": 120.0
            },
            {
                "start_time": 2.9499999999999997,
                "end_time": 5.113636363636363,
                "pitch": 66,
                "velocity": 32,
                "duration": 2.1636363636363636,
                "tempo": 120.0
            },
            {
                "start_time": 5.113636363636363,
                "end_time": 5.343181818181818,
                "pitch": 55,
                "velocity": 32,
                "duration": 0.2295454545454545,
                "tempo": 120.0
            },
            {
                "start_time": 5.3977272727272725,
                "end_time": 5.6,
                "pitch": 55,
                "velocity": 32,
                "duration": 0.20227272727272716,
                "tempo": 120.0
            },
            {
                "start_time": 5.6499999999999995,
                "end_time": 5.725,
                "pitch": 69,
                "velocity": 32,
                "duration": 0.07500000000000018,
                "tempo": 120.0
            },
            {
                "start_time": 5.7749999999999995,
                "end_time": 5.9840909090909085,
                "pitch": 57,
                "velocity": 32,
                "duration": 0.209090909090909,
                "tempo": 120.0
            },
            {
                "start_time": 6.036363636363636,
                "end_time": 6.120454545454545,
                "pitch": 55,
                "velocity": 32,
                "duration": 0.084090909090909,
                "tempo": 120.0
            },
            {
                "start_time": 6.170454545454545,
                "end_time": 6.256818181818182,
                "pitch": 67,
                "velocity": 32,
                "duration": 0.08636363636363686,
                "tempo": 120.0
            },
            {
                "start_time": 6.306818181818182,
                "end_time": 6.393181818181818,
                "pitch": 57,
                "velocity": 32,
                "duration": 0.08636363636363598,
                "tempo": 120.0
            },
            {
                "start_time": 4.3,
                "end_time": 6.445454545454545,
                "pitch": 19,
                "velocity": 32,
                "duration": 2.1454545454545455,
                "tempo": 120.0
            },
            {
                "start_time": 6.445454545454545,
                "end_time": 6.527272727272727,
                "pitch": 52,
                "velocity": 32,
                "duration": 0.08181818181818201,
                "tempo": 120.0
            },
            {
                "start_time": 6.579545454545454,
                "end_time": 6.663636363636363,
                "pitch": 52,
                "velocity": 32,
                "duration": 0.084090909090909,
                "tempo": 120.0
            },
            {
                "start_time": 6.715909090909091,
                "end_time": 6.8,
                "pitch": 52,
                "velocity": 32,
                "duration": 0.084090909090909,
                "tempo": 120.0
            },
            {
                "start_time": 6.8545454545454545,
                "end_time": 6.936363636363636,
                "pitch": 50,
                "velocity": 32,
                "duration": 0.08181818181818112,
                "tempo": 120.0
            },
            {
                "start_time": 5.113636363636363,
                "end_time": 7.259090909090909,
                "pitch": 66,
                "velocity": 32,
                "duration": 2.1454545454545455,
                "tempo": 120.0
            },
            {
                "start_time": 7.259090909090909,
                "end_time": 7.472727272727273,
                "pitch": 55,
                "velocity": 32,
                "duration": 0.21363636363636385,
                "tempo": 120.0
            },
            {
                "start_time": 7.5249999999999995,
                "end_time": 7.74090909090909,
                "pitch": 55,
                "velocity": 32,
                "duration": 0.21590909090909083,
                "tempo": 120.0
            },
            {
                "start_time": 7.793181818181818,
                "end_time": 7.875,
                "pitch": 69,
                "velocity": 32,
                "duration": 0.08181818181818201,
                "tempo": 120.0
            },
            {
                "start_time": 7.927272727272727,
                "end_time": 8.143181818181818,
                "pitch": 57,
                "velocity": 32,
                "duration": 0.21590909090909083,
                "tempo": 120.0
            },
            {
                "start_time": 8.195454545454545,
                "end_time": 8.279545454545454,
                "pitch": 55,
                "velocity": 32,
                "duration": 0.084090909090909,
                "tempo": 120.0
            },
            {
                "start_time": 8.331818181818182,
                "end_time": 8.415909090909091,
                "pitch": 67,
                "velocity": 32,
                "duration": 0.084090909090909,
                "tempo": 120.0
            },
            {
                "start_time": 8.468181818181817,
                "end_time": 8.552272727272728,
                "pitch": 57,
                "velocity": 32,
                "duration": 0.08409090909091077,
                "tempo": 120.0
            },
            {
                "start_time": 6.445454545454545,
                "end_time": 8.604545454545454,
                "pitch": 19,
                "velocity": 32,
                "duration": 2.1590909090909083,
                "tempo": 120.0
            },
            {
                "start_time": 8.604545454545454,
                "end_time": 8.688636363636363,
                "pitch": 52,
                "velocity": 32,
                "duration": 0.084090909090909,
                "tempo": 120.0
            },
            {
                "start_time": 8.738636363636363,
                "end_time": 8.825,
                "pitch": 52,
                "velocity": 32,
                "duration": 0.08636363636363598,
                "tempo": 120.0
            },
            {
                "start_time": 8.877272727272727,
                "end_time": 8.959090909090909,
                "pitch": 52,
                "velocity": 32,
                "duration": 0.08181818181818201,
                "tempo": 120.0
            },
            {
                "start_time": 9.011363636363637,
                "end_time": 9.095454545454546,
                "pitch": 50,
                "velocity": 32,
                "duration": 0.084090909090909,
                "tempo": 120.0
            },
            {
                "start_time": 7.259090909090909,
                "end_time": 9.424999999999999,
                "pitch": 66,
                "velocity": 32,
                "duration": 2.16590909090909,
                "tempo": 120.0
            },
            {
                "start_time": 9.424999999999999,
                "end_time": 9.65,
                "pitch": 55,
                "velocity": 32,
                "duration": 0.22500000000000142,
                "tempo": 120.0
            },
            {
                "start_time": 9.704545454545453,
                "end_time": 9.911363636363635,
                "pitch": 55,
                "velocity": 32,
                "duration": 0.206818181818182,
                "tempo": 120.0
            },
            {
                "start_time": 9.963636363636363,
                "end_time": 10.040909090909091,
                "pitch": 69,
                "velocity": 32,
                "duration": 0.07727272727272805,
                "tempo": 120.0
            },
            {
                "start_time": 10.09090909090909,
                "end_time": 10.302272727272726,
                "pitch": 57,
                "velocity": 32,
                "duration": 0.21136363636363598,
                "tempo": 120.0
            },
            {
                "start_time": 10.354545454545454,
                "end_time": 10.436363636363636,
                "pitch": 55,
                "velocity": 32,
                "duration": 0.08181818181818201,
                "tempo": 120.0
            },
            {
                "start_time": 10.486363636363636,
                "end_time": 10.570454545454545,
                "pitch": 67,
                "velocity": 32,
                "duration": 0.084090909090909,
                "tempo": 120.0
            },
            {
                "start_time": 10.620454545454544,
                "end_time": 10.704545454545453,
                "pitch": 57,
                "velocity": 32,
                "duration": 0.084090909090909,
                "tempo": 120.0
            },
            {
                "start_time": 8.604545454545454,
                "end_time": 10.756818181818181,
                "pitch": 19,
                "velocity": 32,
                "duration": 2.1522727272727273,
                "tempo": 120.0
            },
            {
                "start_time": 10.754545454545454,
                "end_time": 10.756818181818181,
                "pitch": 19,
                "velocity": 32,
                "duration": 0.002272727272726982,
                "tempo": 120.0
            },
            {
                "start_time": 10.756818181818181,
                "end_time": 10.838636363636363,
                "pitch": 52,
                "velocity": 32,
                "duration": 0.08181818181818201,
                "tempo": 120.0
            },
            {
                "start_time": 10.89090909090909,
                "end_time": 10.975,
                "pitch": 52,
                "velocity": 32,
                "duration": 0.084090909090909,
                "tempo": 120.0
            },
            {
                "start_time": 11.027272727272727,
                "end_time": 11.111363636363636,
                "pitch": 52,
                "velocity": 32,
                "duration": 0.084090909090909,
                "tempo": 120.0
            },
            {
                "start_time": 11.163636363636362,
                "end_time": 11.247727272727273,
                "pitch": 50,
                "velocity": 32,
                "duration": 0.08409090909091077,
                "tempo": 120.0
            },
            {
                "start_time": 9.424999999999999,
                "end_time": 11.568181818181818,
                "pitch": 66,
                "velocity": 32,
                "duration": 2.1431818181818194,
                "tempo": 120.0
            },
            {
                "start_time": 11.568181818181818,
                "end_time": 11.784090909090908,
                "pitch": 55,
                "velocity": 32,
                "duration": 0.21590909090908994,
                "tempo": 120.0
            },
            {
                "start_time": 11.836363636363636,
                "end_time": 12.052272727272726,
                "pitch": 55,
                "velocity": 32,
                "duration": 0.21590909090908994,
                "tempo": 120.0
            },
            {
                "start_time": 12.102272727272727,
                "end_time": 12.184090909090909,
                "pitch": 69,
                "velocity": 32,
                "duration": 0.08181818181818201,
                "tempo": 120.0
            },
            {
                "start_time": 12.236363636363636,
                "end_time": 12.454545454545453,
                "pitch": 57,
                "velocity": 32,
                "duration": 0.21818181818181692,
                "tempo": 120.0
            },
            {
                "start_time": 13.184090909090909,
                "end_time": 13.397727272727272,
                "pitch": 50,
                "velocity": 32,
                "duration": 0.21363636363636296,
                "tempo": 120.0
            },
            {
                "start_time": 13.45,
                "end_time": 13.670454545454545,
                "pitch": 50,
                "velocity": 32,
                "duration": 0.22045454545454568,
                "tempo": 120.0
            },
            {
                "start_time": 13.722727272727273,
                "end_time": 13.943181818181818,
                "pitch": 50,
                "velocity": 32,
                "duration": 0.22045454545454568,
                "tempo": 120.0
            },
            {
                "start_time": 13.995454545454544,
                "end_time": 14.211363636363636,
                "pitch": 50,
                "velocity": 32,
                "duration": 0.21590909090909172,
                "tempo": 120.0
            },
            {
                "start_time": 14.263636363636364,
                "end_time": 14.479545454545454,
                "pitch": 50,
                "velocity": 32,
                "duration": 0.21590909090908994,
                "tempo": 120.0
            },
            {
                "start_time": 14.531818181818181,
                "end_time": 14.75,
                "pitch": 50,
                "velocity": 32,
                "duration": 0.2181818181818187,
                "tempo": 120.0
            },
            {
                "start_time": 14.804545454545455,
                "end_time": 15.290909090909091,
                "pitch": 50,
                "velocity": 32,
                "duration": 0.48636363636363633,
                "tempo": 120.0
            },
            {
                "start_time": 15.343181818181817,
                "end_time": 15.559090909090909,
                "pitch": 50,
                "velocity": 32,
                "duration": 0.21590909090909172,
                "tempo": 120.0
            },
            {
                "start_time": 15.611363636363636,
                "end_time": 15.829545454545453,
                "pitch": 50,
                "velocity": 32,
                "duration": 0.21818181818181692,
                "tempo": 120.0
            },
            {
                "start_time": 15.881818181818181,
                "end_time": 16.102272727272727,
                "pitch": 50,
                "velocity": 32,
                "duration": 0.22045454545454568,
                "tempo": 120.0
            },
            {
                "start_time": 16.15681818181818,
                "end_time": 16.370454545454546,
                "pitch": 50,
                "velocity": 32,
                "duration": 0.21363636363636473,
                "tempo": 120.0
            },
            {
                "start_time": 16.69090909090909,
                "end_time": 16.772727272727273,
                "pitch": 50,
                "velocity": 32,
                "duration": 0.08181818181818201,
                "tempo": 120.0
            },
            {
                "start_time": 16.825,
                "end_time": 17.045454545454543,
                "pitch": 50,
                "velocity": 32,
                "duration": 0.2204545454545439,
                "tempo": 120.0
            },
            {
                "start_time": 17.099999999999998,
                "end_time": 17.31590909090909,
                "pitch": 51,
                "velocity": 32,
                "duration": 0.2159090909090935,
                "tempo": 120.0
            },
            {
                "start_time": 17.368181818181817,
                "end_time": 17.45,
                "pitch": 52,
                "velocity": 32,
                "duration": 0.08181818181818201,
                "tempo": 120.0
            },
            {
                "start_time": 17.5,
                "end_time": 17.584090909090907,
                "pitch": 52,
                "velocity": 32,
                "duration": 0.08409090909090722,
                "tempo": 120.0
            },
            {
                "start_time": 17.634090909090908,
                "end_time": 17.71818181818182,
                "pitch": 50,
                "velocity": 32,
                "duration": 0.08409090909091077,
                "tempo": 120.0
            },
            {
                "start_time": 11.568181818181818,
                "end_time": 18.038636363636364,
                "pitch": 66,
                "velocity": 32,
                "duration": 6.470454545454546,
                "tempo": 120.0
            },
            {
                "start_time": 18.038636363636364,
                "end_time": 18.252272727272725,
                "pitch": 55,
                "velocity": 32,
                "duration": 0.21363636363636118,
                "tempo": 120.0
            },
            {
                "start_time": 18.304545454545455,
                "end_time": 18.520454545454545,
                "pitch": 55,
                "velocity": 32,
                "duration": 0.21590909090908994,
                "tempo": 120.0
            },
            {
                "start_time": 18.57272727272727,
                "end_time": 18.654545454545453,
                "pitch": 69,
                "velocity": 32,
                "duration": 0.08181818181818201,
                "tempo": 120.0
            },
            {
                "start_time": 18.706818181818182,
                "end_time": 18.922727272727272,
                "pitch": 57,
                "velocity": 32,
                "duration": 0.21590909090908994,
                "tempo": 120.0
            },
            {
                "start_time": 18.974999999999998,
                "end_time": 19.05909090909091,
                "pitch": 55,
                "velocity": 32,
                "duration": 0.08409090909091077,
                "tempo": 120.0
            },
            {
                "start_time": 19.113636363636363,
                "end_time": 19.195454545454545,
                "pitch": 67,
                "velocity": 32,
                "duration": 0.08181818181818201,
                "tempo": 120.0
            },
            {
                "start_time": 19.24772727272727,
                "end_time": 19.331818181818182,
                "pitch": 57,
                "velocity": 32,
                "duration": 0.08409090909091077,
                "tempo": 120.0
            },
            {
                "start_time": 19.386363636363637,
                "end_time": 19.46590909090909,
                "pitch": 52,
                "velocity": 32,
                "duration": 0.07954545454545325,
                "tempo": 120.0
            },
            {
                "start_time": 19.518181818181816,
                "end_time": 19.599999999999998,
                "pitch": 52,
                "velocity": 32,
                "duration": 0.08181818181818201,
                "tempo": 120.0
            },
            {
                "start_time": 19.652272727272727,
                "end_time": 19.73409090909091,
                "pitch": 52,
                "velocity": 32,
                "duration": 0.08181818181818201,
                "tempo": 120.0
            },
            {
                "start_time": 19.786363636363635,
                "end_time": 19.868181818181817,
                "pitch": 50,
                "velocity": 32,
                "duration": 0.08181818181818201,
                "tempo": 120.0
            },
            {
                "start_time": 18.038636363636364,
                "end_time": 20.193181818181817,
                "pitch": 66,
                "velocity": 32,
                "duration": 2.1545454545454525,
                "tempo": 120.0
            },
            {
                "start_time": 20.193181818181817,
                "end_time": 20.411363636363635,
                "pitch": 55,
                "velocity": 32,
                "duration": 0.2181818181818187,
                "tempo": 120.0
            },
            {
                "start_time": 20.46590909090909,
                "end_time": 20.679545454545455,
                "pitch": 55,
                "velocity": 32,
                "duration": 0.21363636363636473,
                "tempo": 120.0
            },
            {
                "start_time": 20.73181818181818,
                "end_time": 20.813636363636363,
                "pitch": 69,
                "velocity": 32,
                "duration": 0.08181818181818201,
                "tempo": 120.0
            },
            {
                "start_time": 20.86590909090909,
                "end_time": 21.081818181818182,
                "pitch": 57,
                "velocity": 32,
                "duration": 0.2159090909090935,
                "tempo": 120.0
            },
            {
                "start_time": 21.13181818181818,
                "end_time": 21.21590909090909,
                "pitch": 55,
                "velocity": 32,
                "duration": 0.08409090909091077,
                "tempo": 120.0
            },
            {
                "start_time": 21.268181818181816,
                "end_time": 21.347727272727273,
                "pitch": 67,
                "velocity": 32,
                "duration": 0.0795454545454568,
                "tempo": 120.0
            },
            {
                "start_time": 21.4,
                "end_time": 21.48181818181818,
                "pitch": 57,
                "velocity": 32,
                "duration": 0.08181818181818201,
                "tempo": 120.0
            },
            {
                "start_time": 19.386363636363637,
                "end_time": 21.536363636363635,
                "pitch": 19,
                "velocity": 32,
                "duration": 2.1499999999999986,
                "tempo": 120.0
            },
            {
                "start_time": 21.536363636363635,
                "end_time": 21.618181818181817,
                "pitch": 52,
                "velocity": 32,
                "duration": 0.08181818181818201,
                "tempo": 120.0
            },
            {
                "start_time": 21.670454545454543,
                "end_time": 21.754545454545454,
                "pitch": 52,
                "velocity": 32,
                "duration": 0.08409090909091077,
                "tempo": 120.0
            },
            {
                "start_time": 21.80681818181818,
                "end_time": 21.89090909090909,
                "pitch": 52,
                "velocity": 32,
                "duration": 0.08409090909091077,
                "tempo": 120.0
            },
            {
                "start_time": 21.943181818181817,
                "end_time": 22.027272727272727,
                "pitch": 50,
                "velocity": 32,
                "duration": 0.08409090909091077,
                "tempo": 120.0
            },
            {
                "start_time": 20.193181818181817,
                "end_time": 22.347727272727273,
                "pitch": 66,
                "velocity": 32,
                "duration": 2.154545454545456,
                "tempo": 120.0
            },
            {
                "start_time": 22.347727272727273,
                "end_time": 22.563636363636363,
                "pitch": 55,
                "velocity": 32,
                "duration": 0.21590909090908994,
                "tempo": 120.0
            },
            {
                "start_time": 22.61590909090909,
                "end_time": 22.834090909090907,
                "pitch": 55,
                "velocity": 32,
                "duration": 0.2181818181818187,
                "tempo": 120.0
            },
            {
                "start_time": 22.886363636363637,
                "end_time": 22.970454545454544,
                "pitch": 69,
                "velocity": 32,
                "duration": 0.08409090909090722,
                "tempo": 120.0
            },
            {
                "start_time": 23.022727272727273,
                "end_time": 23.24090909090909,
                "pitch": 57,
                "velocity": 32,
                "duration": 0.21818181818181515,
                "tempo": 120.0
            },
            {
                "start_time": 23.293181818181818,
                "end_time": 23.375,
                "pitch": 55,
                "velocity": 32,
                "duration": 0.08181818181818201,
                "tempo": 120.0
            },
            {
                "start_time": 23.427272727272726,
                "end_time": 23.509090909090908,
                "pitch": 67,
                "velocity": 32,
                "duration": 0.08181818181818201,
                "tempo": 120.0
            },
            {
                "start_time": 23.55909090909091,
                "end_time": 23.643181818181816,
                "pitch": 57,
                "velocity": 32,
                "duration": 0.08409090909090722,
                "tempo": 120.0
            },
            {
                "start_time": 21.536363636363635,
                "end_time": 23.695454545454545,
                "pitch": 19,
                "velocity": 32,
                "duration": 2.15909090909091,
                "tempo": 120.0
            },
            {
                "start_time": 23.695454545454545,
                "end_time": 23.777272727272727,
                "pitch": 52,
                "velocity": 32,
                "duration": 0.08181818181818201,
                "tempo": 120.0
            },
            {
                "start_time": 23.96818181818182,
                "end_time": 24.049999999999997,
                "pitch": 52,
                "velocity": 32,
                "duration": 0.08181818181817846,
                "tempo": 120.0
            },
            {
                "start_time": 24.24090909090909,
                "end_time": 24.320454545454545,
                "pitch": 52,
                "velocity": 32,
                "duration": 0.0795454545454568,
                "tempo": 120.0
            },
            {
                "start_time": 24.509090909090908,
                "end_time": 24.58863636363636,
                "pitch": 52,
                "velocity": 32,
                "duration": 0.07954545454545325,
                "tempo": 120.0
            },
            {
                "start_time": 24.775,
                "end_time": 24.85681818181818,
                "pitch": 52,
                "velocity": 32,
                "duration": 0.08181818181818201,
                "tempo": 120.0
            },
            {
                "start_time": 25.845454545454544,
                "end_time": 25.927272727272726,
                "pitch": 52,
                "velocity": 32,
                "duration": 0.08181818181818201,
                "tempo": 120.0
            },
            {
                "start_time": 25.979545454545452,
                "end_time": 26.063636363636363,
                "pitch": 52,
                "velocity": 32,
                "duration": 0.08409090909091077,
                "tempo": 120.0
            },
            {
                "start_time": 26.11590909090909,
                "end_time": 26.2,
                "pitch": 52,
                "velocity": 32,
                "duration": 0.08409090909091077,
                "tempo": 120.0
            },
            {
                "start_time": 26.388636363636362,
                "end_time": 26.470454545454544,
                "pitch": 50,
                "velocity": 32,
                "duration": 0.08181818181818201,
                "tempo": 120.0
            },
            {
                "start_time": 22.347727272727273,
                "end_time": 26.65681818181818,
                "pitch": 66,
                "velocity": 32,
                "duration": 4.309090909090909,
                "tempo": 120.0
            },
            {
                "start_time": 26.65681818181818,
                "end_time": 26.87272727272727,
                "pitch": 55,
                "velocity": 32,
                "duration": 0.21590909090908994,
                "tempo": 120.0
            },
            {
                "start_time": 26.924999999999997,
                "end_time": 27.00681818181818,
                "pitch": 55,
                "velocity": 32,
                "duration": 0.08181818181818201,
                "tempo": 120.0
            },
            {
                "start_time": 27.468181818181815,
                "end_time": 27.549999999999997,
                "pitch": 57,
                "velocity": 32,
                "duration": 0.08181818181818201,
                "tempo": 120.0
            },
            {
                "start_time": 27.602272727272727,
                "end_time": 27.952272727272724,
                "pitch": 55,
                "velocity": 32,
                "duration": 0.34999999999999787,
                "tempo": 120.0
            },
            {
                "start_time": 23.695454545454545,
                "end_time": 28.002272727272725,
                "pitch": 19,
                "velocity": 32,
                "duration": 4.30681818181818,
                "tempo": 120.0
            },
            {
                "start_time": 28.002272727272725,
                "end_time": 28.086363636363636,
                "pitch": 52,
                "velocity": 32,
                "duration": 0.08409090909091077,
                "tempo": 120.0
            },
            {
                "start_time": 28.138636363636362,
                "end_time": 28.222727272727273,
                "pitch": 52,
                "velocity": 32,
                "duration": 0.08409090909091077,
                "tempo": 120.0
            },
            {
                "start_time": 28.275,
                "end_time": 28.35909090909091,
                "pitch": 52,
                "velocity": 32,
                "duration": 0.08409090909091077,
                "tempo": 120.0
            },
            {
                "start_time": 28.547727272727272,
                "end_time": 28.629545454545454,
                "pitch": 50,
                "velocity": 32,
                "duration": 0.08181818181818201,
                "tempo": 120.0
            },
            {
                "start_time": 26.65681818181818,
                "end_time": 28.815909090909088,
                "pitch": 66,
                "velocity": 32,
                "duration": 2.1590909090909065,
                "tempo": 120.0
            },
            {
                "start_time": 28.815909090909088,
                "end_time": 29.03181818181818,
                "pitch": 55,
                "velocity": 32,
                "duration": 0.2159090909090935,
                "tempo": 120.0
            },
            {
                "start_time": 29.084090909090907,
                "end_time": 29.16590909090909,
                "pitch": 59,
                "velocity": 32,
                "duration": 0.08181818181818201,
                "tempo": 120.0
            },
            {
                "start_time": 29.084090909090907,
                "end_time": 29.43181818181818,
                "pitch": 55,
                "velocity": 32,
                "duration": 0.34772727272727266,
                "tempo": 120.0
            },
            {
                "start_time": 29.349999999999998,
                "end_time": 29.43181818181818,
                "pitch": 55,
                "velocity": 32,
                "duration": 0.08181818181818201,
                "tempo": 120.0
            },
            {
                "start_time": 29.618181818181817,
                "end_time": 29.702272727272724,
                "pitch": 55,
                "velocity": 32,
                "duration": 0.08409090909090722,
                "tempo": 120.0
            },
            {
                "start_time": 29.754545454545454,
                "end_time": 30.10909090909091,
                "pitch": 57,
                "velocity": 32,
                "duration": 0.3545454545454554,
                "tempo": 120.0
            },
            {
                "start_time": 30.297727272727272,
                "end_time": 30.38181818181818,
                "pitch": 50,
                "velocity": 32,
                "duration": 0.08409090909090722,
                "tempo": 120.0
            },
            {
                "start_time": 30.43409090909091,
                "end_time": 30.518181818181816,
                "pitch": 45,
                "velocity": 32,
                "duration": 0.08409090909090722,
                "tempo": 120.0
            },
            {
                "start_time": 28.002272727272725,
                "end_time": 30.706818181818182,
                "pitch": 19,
                "velocity": 32,
                "duration": 2.704545454545457,
                "tempo": 120.0
            },
            {
                "start_time": 30.706818181818182,
                "end_time": 30.79090909090909,
                "pitch": 50,
                "velocity": 32,
                "duration": 0.08409090909090722,
                "tempo": 120.0
            },
            {
                "start_time": 30.974999999999998,
                "end_time": 31.05681818181818,
                "pitch": 50,
                "velocity": 32,
                "duration": 0.08181818181818201,
                "tempo": 120.0
            },
            {
                "start_time": 31.243181818181817,
                "end_time": 31.325,
                "pitch": 52,
                "velocity": 32,
                "duration": 0.08181818181818201,
                "tempo": 120.0
            },
            {
                "start_time": 31.779545454545453,
                "end_time": 31.861363636363635,
                "pitch": 54,
                "velocity": 32,
                "duration": 0.08181818181818201,
                "tempo": 120.0
            },
            {
                "start_time": 31.91363636363636,
                "end_time": 32.27045454545454,
                "pitch": 52,
                "velocity": 32,
                "duration": 0.3568181818181806,
                "tempo": 120.0
            },
            {
                "start_time": 32.32272727272727,
                "end_time": 32.404545454545456,
                "pitch": 50,
                "velocity": 32,
                "duration": 0.08181818181818556,
                "tempo": 120.0
            },
            {
                "start_time": 32.45454545454545,
                "end_time": 32.538636363636364,
                "pitch": 50,
                "velocity": 32,
                "duration": 0.08409090909091077,
                "tempo": 120.0
            },
            {
                "start_time": 30.43409090909091,
                "end_time": 32.58863636363636,
                "pitch": 53,
                "velocity": 32,
                "duration": 2.1545454545454525,
                "tempo": 120.0
            },
            {
                "start_time": 32.58863636363636,
                "end_time": 32.67272727272727,
                "pitch": 45,
                "velocity": 32,
                "duration": 0.08409090909091077,
                "tempo": 120.0
            },
            {
                "start_time": 30.706818181818182,
                "end_time": 32.85681818181818,
                "pitch": 19,
                "velocity": 32,
                "duration": 2.149999999999995,
                "tempo": 120.0
            },
            {
                "start_time": 32.85681818181818,
                "end_time": 32.94090909090909,
                "pitch": 50,
                "velocity": 32,
                "duration": 0.08409090909091077,
                "tempo": 120.0
            },
            {
                "start_time": 33.125,
                "end_time": 33.20681818181818,
                "pitch": 50,
                "velocity": 32,
                "duration": 0.08181818181817846,
                "tempo": 120.0
            },
            {
                "start_time": 33.393181818181816,
                "end_time": 33.47727272727273,
                "pitch": 52,
                "velocity": 32,
                "duration": 0.08409090909091077,
                "tempo": 120.0
            },
            {
                "start_time": 33.93636363636364,
                "end_time": 34.02045454545454,
                "pitch": 55,
                "velocity": 32,
                "duration": 0.08409090909090366,
                "tempo": 120.0
            },
            {
                "start_time": 32.32272727272727,
                "end_time": 34.33863636363636,
                "pitch": 54,
                "velocity": 32,
                "duration": 2.0159090909090907,
                "tempo": 120.0
            },
            {
                "start_time": 34.33863636363636,
                "end_time": 34.42045454545455,
                "pitch": 50,
                "velocity": 32,
                "duration": 0.08181818181818556,
                "tempo": 120.0
            },
            {
                "start_time": 34.47272727272727,
                "end_time": 34.55681818181818,
                "pitch": 50,
                "velocity": 32,
                "duration": 0.08409090909091077,
                "tempo": 120.0
            },
            {
                "start_time": 34.60909090909091,
                "end_time": 34.69318181818181,
                "pitch": 52,
                "velocity": 32,
                "duration": 0.08409090909090366,
                "tempo": 120.0
            },
            {
                "start_time": 34.74545454545454,
                "end_time": 34.82727272727273,
                "pitch": 52,
                "velocity": 32,
                "duration": 0.08181818181818556,
                "tempo": 120.0
            },
            {
                "start_time": 35.018181818181816,
                "end_time": 35.1,
                "pitch": 50,
                "velocity": 32,
                "duration": 0.08181818181818556,
                "tempo": 120.0
            },
            {
                "start_time": 28.815909090909088,
                "end_time": 35.28409090909091,
                "pitch": 66,
                "velocity": 32,
                "duration": 6.468181818181819,
                "tempo": 120.0
            },
            {
                "start_time": 35.28409090909091,
                "end_time": 35.5,
                "pitch": 55,
                "velocity": 32,
                "duration": 0.2159090909090935,
                "tempo": 120.0
            },
            {
                "start_time": 35.554545454545455,
                "end_time": 35.63409090909091,
                "pitch": 55,
                "velocity": 32,
                "duration": 0.07954545454545325,
                "tempo": 120.0
            },
            {
                "start_time": 36.08863636363636,
                "end_time": 36.17045454545455,
                "pitch": 57,
                "velocity": 32,
                "duration": 0.08181818181818556,
                "tempo": 120.0
            },
            {
                "start_time": 36.22272727272727,
                "end_time": 36.57954545454545,
                "pitch": 55,
                "velocity": 32,
                "duration": 0.35681818181818414,
                "tempo": 120.0
            },
            {
                "start_time": 32.85681818181818,
                "end_time": 36.63181818181818,
                "pitch": 19,
                "velocity": 32,
                "duration": 3.7750000000000057,
                "tempo": 120.0
            },
            {
                "start_time": 36.63181818181818,
                "end_time": 36.715909090909086,
                "pitch": 52,
                "velocity": 32,
                "duration": 0.08409090909090366,
                "tempo": 120.0
            },
            {
                "start_time": 36.768181818181816,
                "end_time": 36.85227272727273,
                "pitch": 52,
                "velocity": 32,
                "duration": 0.08409090909091077,
                "tempo": 120.0
            },
            {
                "start_time": 36.904545454545456,
                "end_time": 36.98863636363636,
                "pitch": 52,
                "velocity": 32,
                "duration": 0.08409090909090366,
                "tempo": 120.0
            },
            {
                "start_time": 37.17727272727272,
                "end_time": 37.25681818181818,
                "pitch": 50,
                "velocity": 32,
                "duration": 0.07954545454546036,
                "tempo": 120.0
            },
            {
                "start_time": 35.28409090909091,
                "end_time": 37.43863636363636,
                "pitch": 66,
                "velocity": 32,
                "duration": 2.154545454545456,
                "tempo": 120.0
            },
            {
                "start_time": 37.43863636363636,
                "end_time": 37.652272727272724,
                "pitch": 55,
                "velocity": 32,
                "duration": 0.21363636363636118,
                "tempo": 120.0
            },
            {
                "start_time": 29.349999999999998,
                "end_time": 37.78636363636363,
                "pitch": 59,
                "velocity": 32,
                "duration": 8.436363636363634,
                "tempo": 120.0
            },
            {
                "start_time": 37.70454545454545,
                "end_time": 37.78636363636363,
                "pitch": 59,
                "velocity": 32,
                "duration": 0.08181818181817846,
                "tempo": 120.0
            },
            {
                "start_time": 37.70454545454545,
                "end_time": 38.059090909090905,
                "pitch": 55,
                "velocity": 32,
                "duration": 0.35454545454545183,
                "tempo": 120.0
            },
            {
                "start_time": 37.975,
                "end_time": 38.059090909090905,
                "pitch": 55,
                "velocity": 32,
                "duration": 0.08409090909090366,
                "tempo": 120.0
            },
            {
                "start_time": 38.24772727272727,
                "end_time": 38.33181818181818,
                "pitch": 55,
                "velocity": 32,
                "duration": 0.08409090909091077,
                "tempo": 120.0
            },
            {
                "start_time": 38.38409090909091,
                "end_time": 38.73863636363636,
                "pitch": 57,
                "velocity": 32,
                "duration": 0.35454545454545183,
                "tempo": 120.0
            },
            {
                "start_time": 38.925,
                "end_time": 39.00681818181818,
                "pitch": 50,
                "velocity": 32,
                "duration": 0.08181818181818556,
                "tempo": 120.0
            },
            {
                "start_time": 32.58863636363636,
                "end_time": 39.059090909090905,
                "pitch": 53,
                "velocity": 32,
                "duration": 6.470454545454544,
                "tempo": 120.0
            },
            {
                "start_time": 39.059090909090905,
                "end_time": 39.14090909090909,
                "pitch": 45,
                "velocity": 32,
                "duration": 0.08181818181818556,
                "tempo": 120.0
            },
            {
                "start_time": 36.63181818181818,
                "end_time": 39.32727272727273,
                "pitch": 19,
                "velocity": 32,
                "duration": 2.6954545454545453,
                "tempo": 120.0
            },
            {
                "start_time": 39.32727272727273,
                "end_time": 39.40909090909091,
                "pitch": 50,
                "velocity": 32,
                "duration": 0.08181818181817846,
                "tempo": 120.0
            },
            {
                "start_time": 39.595454545454544,
                "end_time": 39.67727272727272,
                "pitch": 50,
                "velocity": 32,
                "duration": 0.08181818181817846,
                "tempo": 120.0
            },
            {
                "start_time": 39.861363636363635,
                "end_time": 39.945454545454545,
                "pitch": 52,
                "velocity": 32,
                "duration": 0.08409090909091077,
                "tempo": 120.0
            },
            {
                "start_time": 34.33863636363636,
                "end_time": 40.48863636363636,
                "pitch": 54,
                "velocity": 32,
                "duration": 6.149999999999999,
                "tempo": 120.0
            },
            {
                "start_time": 40.40909090909091,
                "end_time": 40.48863636363636,
                "pitch": 54,
                "velocity": 32,
                "duration": 0.07954545454545325,
                "tempo": 120.0
            },
            {
                "start_time": 40.54090909090909,
                "end_time": 40.89090909090909,
                "pitch": 52,
                "velocity": 32,
                "duration": 0.3500000000000014,
                "tempo": 120.0
            },
            {
                "start_time": 40.94090909090909,
                "end_time": 41.025,
                "pitch": 50,
                "velocity": 32,
                "duration": 0.08409090909091077,
                "tempo": 120.0
            },
            {
                "start_time": 41.07727272727273,
                "end_time": 41.16136363636363,
                "pitch": 50,
                "velocity": 32,
                "duration": 0.08409090909090366,
                "tempo": 120.0
            },
            {
                "start_time": 39.059090909090905,
                "end_time": 41.21363636363636,
                "pitch": 53,
                "velocity": 32,
                "duration": 2.154545454545456,
                "tempo": 120.0
            },
            {
                "start_time": 41.21363636363636,
                "end_time": 41.29772727272727,
                "pitch": 45,
                "velocity": 32,
                "duration": 0.08409090909091077,
                "tempo": 120.0
            },
            {
                "start_time": 39.32727272727273,
                "end_time": 41.486363636363635,
                "pitch": 19,
                "velocity": 32,
                "duration": 2.1590909090909065,
                "tempo": 120.0
            },
            {
                "start_time": 41.486363636363635,
                "end_time": 41.56818181818181,
                "pitch": 50,
                "velocity": 32,
                "duration": 0.08181818181817846,
                "tempo": 120.0
            },
            {
                "start_time": 41.75454545454545,
                "end_time": 41.836363636363636,
                "pitch": 50,
                "velocity": 32,
                "duration": 0.08181818181818556,
                "tempo": 120.0
            },
            {
                "start_time": 42.02272727272727,
                "end_time": 42.10454545454545,
                "pitch": 52,
                "velocity": 32,
                "duration": 0.08181818181817846,
                "tempo": 120.0
            },
            {
                "start_time": 33.93636363636364,
                "end_time": 42.559090909090905,
                "pitch": 67,
                "velocity": 32,
                "duration": 8.622727272727268,
                "tempo": 120.0
            },
            {
                "start_time": 42.559090909090905,
                "end_time": 42.64090909090909,
                "pitch": 55,
                "velocity": 32,
                "duration": 0.08181818181818556,
                "tempo": 120.0
            },
            {
                "start_time": 40.94090909090909,
                "end_time": 42.96363636363636,
                "pitch": 54,
                "velocity": 32,
                "duration": 2.0227272727272734,
                "tempo": 120.0
            },
            {
                "start_time": 42.96363636363636,
                "end_time": 43.05,
                "pitch": 50,
                "velocity": 32,
                "duration": 0.08636363636363598,
                "tempo": 120.0
            },
            {
                "start_time": 43.10454545454545,
                "end_time": 43.320454545454545,
                "pitch": 48,
                "velocity": 32,
                "duration": 0.2159090909090935,
                "tempo": 120.0
            },
            {
                "start_time": 43.375,
                "end_time": 43.59318181818182,
                "pitch": 48,
                "velocity": 32,
                "duration": 0.2181818181818187,
                "tempo": 120.0
            },
            {
                "start_time": 43.64772727272727,
                "end_time": 43.86363636363636,
                "pitch": 48,
                "velocity": 32,
                "duration": 0.2159090909090864,
                "tempo": 120.0
            },
            {
                "start_time": 43.913636363636364,
                "end_time": 44.12954545454545,
                "pitch": 48,
                "velocity": 32,
                "duration": 0.2159090909090864,
                "tempo": 120.0
            },
            {
                "start_time": 44.18181818181818,
                "end_time": 44.402272727272724,
                "pitch": 48,
                "velocity": 32,
                "duration": 0.2204545454545439,
                "tempo": 120.0
            },
            {
                "start_time": 44.45454545454545,
                "end_time": 44.67272727272727,
                "pitch": 48,
                "velocity": 32,
                "duration": 0.2181818181818187,
                "tempo": 120.0
            },
            {
                "start_time": 44.72727272727273,
                "end_time": 44.94318181818181,
                "pitch": 48,
                "velocity": 32,
                "duration": 0.2159090909090864,
                "tempo": 120.0
            },
            {
                "start_time": 44.99545454545454,
                "end_time": 45.47727272727273,
                "pitch": 48,
                "velocity": 32,
                "duration": 0.48181818181818414,
                "tempo": 120.0
            },
            {
                "start_time": 45.52954545454545,
                "end_time": 45.74545454545454,
                "pitch": 48,
                "velocity": 32,
                "duration": 0.2159090909090935,
                "tempo": 120.0
            },
            {
                "start_time": 45.79772727272727,
                "end_time": 46.01363636363636,
                "pitch": 48,
                "velocity": 32,
                "duration": 0.2159090909090864,
                "tempo": 120.0
            },
            {
                "start_time": 46.06363636363636,
                "end_time": 46.27954545454545,
                "pitch": 48,
                "velocity": 32,
                "duration": 0.2159090909090864,
                "tempo": 120.0
            },
            {
                "start_time": 46.33181818181818,
                "end_time": 46.55227272727272,
                "pitch": 48,
                "velocity": 32,
                "duration": 0.2204545454545439,
                "tempo": 120.0
            },
            {
                "start_time": 46.60454545454545,
                "end_time": 46.82272727272727,
                "pitch": 48,
                "velocity": 32,
                "duration": 0.2181818181818187,
                "tempo": 120.0
            },
            {
                "start_time": 46.877272727272725,
                "end_time": 47.09318181818182,
                "pitch": 48,
                "velocity": 32,
                "duration": 0.2159090909090935,
                "tempo": 120.0
            },
            {
                "start_time": 47.14545454545454,
                "end_time": 47.63181818181818,
                "pitch": 52,
                "velocity": 32,
                "duration": 0.48636363636364166,
                "tempo": 120.0
            },
            {
                "start_time": 47.684090909090905,
                "end_time": 47.90454545454545,
                "pitch": 52,
                "velocity": 32,
                "duration": 0.2204545454545439,
                "tempo": 120.0
            },
            {
                "start_time": 47.95681818181818,
                "end_time": 48.17272727272727,
                "pitch": 52,
                "velocity": 32,
                "duration": 0.2159090909090935,
                "tempo": 120.0
            },
            {
                "start_time": 48.224999999999994,
                "end_time": 48.43863636363636,
                "pitch": 52,
                "velocity": 32,
                "duration": 0.2136363636363683,
                "tempo": 120.0
            },
            {
                "start_time": 48.49090909090909,
                "end_time": 48.711363636363636,
                "pitch": 52,
                "velocity": 32,
                "duration": 0.2204545454545439,
                "tempo": 120.0
            },
            {
                "start_time": 48.76363636363636,
                "end_time": 48.98409090909091,
                "pitch": 52,
                "velocity": 32,
                "duration": 0.220454545454551,
                "tempo": 120.0
            },
            {
                "start_time": 49.03636363636363,
                "end_time": 49.252272727272725,
                "pitch": 52,
                "velocity": 32,
                "duration": 0.2159090909090935,
                "tempo": 120.0
            },
            {
                "start_time": 49.304545454545455,
                "end_time": 49.78636363636363,
                "pitch": 52,
                "velocity": 32,
                "duration": 0.48181818181817704,
                "tempo": 120.0
            },
            {
                "start_time": 49.83863636363636,
                "end_time": 50.054545454545455,
                "pitch": 52,
                "velocity": 32,
                "duration": 0.2159090909090935,
                "tempo": 120.0
            },
            {
                "start_time": 50.10681818181818,
                "end_time": 50.32272727272727,
                "pitch": 52,
                "velocity": 32,
                "duration": 0.2159090909090935,
                "tempo": 120.0
            },
            {
                "start_time": 50.37272727272727,
                "end_time": 50.590909090909086,
                "pitch": 52,
                "velocity": 32,
                "duration": 0.2181818181818187,
                "tempo": 120.0
            },
            {
                "start_time": 50.64090909090909,
                "end_time": 50.861363636363635,
                "pitch": 52,
                "velocity": 32,
                "duration": 0.2204545454545439,
                "tempo": 120.0
            },
            {
                "start_time": 50.91590909090909,
                "end_time": 51.13409090909091,
                "pitch": 52,
                "velocity": 32,
                "duration": 0.2181818181818187,
                "tempo": 120.0
            },
            {
                "start_time": 51.18863636363636,
                "end_time": 51.40681818181818,
                "pitch": 52,
                "velocity": 32,
                "duration": 0.2181818181818187,
                "tempo": 120.0
            },
            {
                "start_time": 43.10454545454545,
                "end_time": 51.459090909090904,
                "pitch": 50,
                "velocity": 32,
                "duration": 8.354545454545452,
                "tempo": 120.0
            },
            {
                "start_time": 47.14545454545454,
                "end_time": 51.94772727272727,
                "pitch": 48,
                "velocity": 32,
                "duration": 4.8022727272727295,
                "tempo": 120.0
            },
            {
                "start_time": 51.459090909090904,
                "end_time": 51.94772727272727,
                "pitch": 48,
                "velocity": 32,
                "duration": 0.48863636363636687,
                "tempo": 120.0
            },
            {
                "start_time": 52.0,
                "end_time": 52.21363636363636,
                "pitch": 48,
                "velocity": 32,
                "duration": 0.21363636363636118,
                "tempo": 120.0
            },
            {
                "start_time": 52.26590909090909,
                "end_time": 52.48181818181818,
                "pitch": 48,
                "velocity": 32,
                "duration": 0.2159090909090864,
                "tempo": 120.0
            },
            {
                "start_time": 52.53409090909091,
                "end_time": 52.75,
                "pitch": 48,
                "velocity": 32,
                "duration": 0.2159090909090935,
                "tempo": 120.0
            },
            {
                "start_time": 52.80227272727272,
                "end_time": 53.02045454545454,
                "pitch": 48,
                "velocity": 32,
                "duration": 0.2181818181818187,
                "tempo": 120.0
            },
            {
                "start_time": 53.074999999999996,
                "end_time": 53.293181818181814,
                "pitch": 48,
                "velocity": 32,
                "duration": 0.2181818181818187,
                "tempo": 120.0
            },
            {
                "start_time": 53.34772727272727,
                "end_time": 53.56136363636363,
                "pitch": 48,
                "velocity": 32,
                "duration": 0.21363636363636118,
                "tempo": 120.0
            },
            {
                "start_time": 53.615909090909085,
                "end_time": 53.695454545454545,
                "pitch": 47,
                "velocity": 32,
                "duration": 0.07954545454546036,
                "tempo": 120.0
            },
            {
                "start_time": 53.74772727272727,
                "end_time": 54.09772727272727,
                "pitch": 47,
                "velocity": 32,
                "duration": 0.3500000000000014,
                "tempo": 120.0
            },
            {
                "start_time": 54.15,
                "end_time": 54.36363636363636,
                "pitch": 46,
                "velocity": 32,
                "duration": 0.21363636363636118,
                "tempo": 120.0
            },
            {
                "start_time": 54.41590909090909,
                "end_time": 54.63636363636363,
                "pitch": 46,
                "velocity": 32,
                "duration": 0.2204545454545439,
                "tempo": 120.0
            },
            {
                "start_time": 54.68863636363636,
                "end_time": 54.90909090909091,
                "pitch": 46,
                "velocity": 32,
                "duration": 0.2204545454545439,
                "tempo": 120.0
            },
            {
                "start_time": 54.961363636363636,
                "end_time": 55.179545454545455,
                "pitch": 46,
                "velocity": 32,
                "duration": 0.2181818181818187,
                "tempo": 120.0
            },
            {
                "start_time": 55.23409090909091,
                "end_time": 55.45227272727273,
                "pitch": 46,
                "velocity": 32,
                "duration": 0.2181818181818187,
                "tempo": 120.0
            },
            {
                "start_time": 55.506818181818176,
                "end_time": 55.720454545454544,
                "pitch": 46,
                "velocity": 32,
                "duration": 0.2136363636363683,
                "tempo": 120.0
            },
            {
                "start_time": 55.775,
                "end_time": 56.256818181818176,
                "pitch": 46,
                "velocity": 32,
                "duration": 0.48181818181817704,
                "tempo": 120.0
            },
            {
                "start_time": 56.309090909090905,
                "end_time": 56.525,
                "pitch": 47,
                "velocity": 32,
                "duration": 0.2159090909090935,
                "tempo": 120.0
            },
            {
                "start_time": 56.57727272727273,
                "end_time": 56.79090909090909,
                "pitch": 47,
                "velocity": 32,
                "duration": 0.21363636363636118,
                "tempo": 120.0
            },
            {
                "start_time": 56.84318181818182,
                "end_time": 57.32954545454545,
                "pitch": 47,
                "velocity": 32,
                "duration": 0.48636363636363455,
                "tempo": 120.0
            },
            {
                "start_time": 57.38409090909091,
                "end_time": 57.60227272727273,
                "pitch": 47,
                "velocity": 32,
                "duration": 0.2181818181818187,
                "tempo": 120.0
            },
            {
                "start_time": 57.65681818181818,
                "end_time": 57.875,
                "pitch": 47,
                "velocity": 32,
                "duration": 0.2181818181818187,
                "tempo": 120.0
            },
            {
                "start_time": 57.929545454545455,
                "end_time": 58.14772727272727,
                "pitch": 47,
                "velocity": 32,
                "duration": 0.2181818181818187,
                "tempo": 120.0
            },
            {
                "start_time": 58.20227272727272,
                "end_time": 58.41590909090909,
                "pitch": 47,
                "velocity": 32,
                "duration": 0.2136363636363683,
                "tempo": 120.0
            },
            {
                "start_time": 59.538636363636364,
                "end_time": 60.29772727272727,
                "pitch": 47,
                "velocity": 32,
                "duration": 0.7590909090909079,
                "tempo": 120.0
            },
            {
                "start_time": 53.615909090909085,
                "end_time": 60.43181818181818,
                "pitch": 52,
                "velocity": 32,
                "duration": 6.815909090909095,
                "tempo": 120.0
            },
            {
                "start_time": 60.35454545454545,
                "end_time": 60.43181818181818,
                "pitch": 52,
                "velocity": 32,
                "duration": 0.07727272727272805,
                "tempo": 120.0
            },
            {
                "start_time": 60.48409090909091,
                "end_time": 60.56590909090909,
                "pitch": 52,
                "velocity": 32,
                "duration": 0.08181818181817846,
                "tempo": 120.0
            },
            {
                "start_time": 60.61818181818182,
                "end_time": 60.699999999999996,
                "pitch": 52,
                "velocity": 32,
                "duration": 0.08181818181817846,
                "tempo": 120.0
            },
            {
                "start_time": 51.459090909090904,
                "end_time": 60.96818181818182,
                "pitch": 50,
                "velocity": 32,
                "duration": 9.509090909090915,
                "tempo": 120.0
            },
            {
                "start_time": 60.88409090909091,
                "end_time": 60.96818181818182,
                "pitch": 50,
                "velocity": 32,
                "duration": 0.08409090909091077,
                "tempo": 120.0
            },
            {
                "start_time": 37.43863636363636,
                "end_time": 61.152272727272724,
                "pitch": 66,
                "velocity": 32,
                "duration": 23.71363636363636,
                "tempo": 120.0
            },
            {
                "start_time": 61.152272727272724,
                "end_time": 61.36818181818182,
                "pitch": 55,
                "velocity": 32,
                "duration": 0.2159090909090935,
                "tempo": 120.0
            },
            {
                "start_time": 61.42272727272727,
                "end_time": 61.50454545454545,
                "pitch": 55,
                "velocity": 32,
                "duration": 0.08181818181817846,
                "tempo": 120.0
            },
            {
                "start_time": 61.965909090909086,
                "end_time": 62.04772727272727,
                "pitch": 57,
                "velocity": 32,
                "duration": 0.08181818181818556,
                "tempo": 120.0
            },
            {
                "start_time": 62.09772727272727,
                "end_time": 62.44772727272727,
                "pitch": 55,
                "velocity": 32,
                "duration": 0.3500000000000014,
                "tempo": 120.0
            },
            {
                "start_time": 41.486363636363635,
                "end_time": 62.5,
                "pitch": 19,
                "velocity": 32,
                "duration": 21.013636363636365,
                "tempo": 120.0
            },
            {
                "start_time": 62.5,
                "end_time": 62.584090909090904,
                "pitch": 52,
                "velocity": 32,
                "duration": 0.08409090909090366,
                "tempo": 120.0
            },
            {
                "start_time": 62.63636363636363,
                "end_time": 62.720454545454544,
                "pitch": 52,
                "velocity": 32,
                "duration": 0.08409090909091077,
                "tempo": 120.0
            },
            {
                "start_time": 62.772727272727266,
                "end_time": 62.85681818181818,
                "pitch": 52,
                "velocity": 32,
                "duration": 0.08409090909091077,
                "tempo": 120.0
            },
            {
                "start_time": 63.04545454545454,
                "end_time": 63.127272727272725,
                "pitch": 50,
                "velocity": 32,
                "duration": 0.08181818181818556,
                "tempo": 120.0
            },
            {
                "start_time": 61.152272727272724,
                "end_time": 63.31136363636363,
                "pitch": 66,
                "velocity": 32,
                "duration": 2.1590909090909065,
                "tempo": 120.0
            },
            {
                "start_time": 63.31136363636363,
                "end_time": 63.52954545454545,
                "pitch": 55,
                "velocity": 32,
                "duration": 0.2181818181818187,
                "tempo": 120.0
            },
            {
                "start_time": 37.975,
                "end_time": 63.66136363636363,
                "pitch": 59,
                "velocity": 32,
                "duration": 25.68636363636363,
                "tempo": 120.0
            },
            {
                "start_time": 63.58181818181818,
                "end_time": 63.66136363636363,
                "pitch": 59,
                "velocity": 32,
                "duration": 0.07954545454545325,
                "tempo": 120.0
            },
            {
                "start_time": 63.58181818181818,
                "end_time": 63.929545454545455,
                "pitch": 55,
                "velocity": 32,
                "duration": 0.3477272727272762,
                "tempo": 120.0
            },
            {
                "start_time": 63.84772727272727,
                "end_time": 63.929545454545455,
                "pitch": 55,
                "velocity": 32,
                "duration": 0.08181818181818556,
                "tempo": 120.0
            },
            {
                "start_time": 64.11590909090908,
                "end_time": 64.19772727272726,
                "pitch": 55,
                "velocity": 32,
                "duration": 0.08181818181817846,
                "tempo": 120.0
            },
            {
                "start_time": 64.25,
                "end_time": 64.60681818181818,
                "pitch": 57,
                "velocity": 32,
                "duration": 0.35681818181818414,
                "tempo": 120.0
            },
            {
                "start_time": 64.79545454545455,
                "end_time": 64.87954545454545,
                "pitch": 50,
                "velocity": 32,
                "duration": 0.08409090909090366,
                "tempo": 120.0
            },
            {
                "start_time": 41.21363636363636,
                "end_time": 64.93181818181817,
                "pitch": 53,
                "velocity": 32,
                "duration": 23.71818181818181,
                "tempo": 120.0
            },
            {
                "start_time": 64.93181818181817,
                "end_time": 65.01590909090909,
                "pitch": 45,
                "velocity": 32,
                "duration": 0.08409090909091788,
                "tempo": 120.0
            },
            {
                "start_time": 62.5,
                "end_time": 65.20454545454545,
                "pitch": 19,
                "velocity": 32,
                "duration": 2.7045454545454533,
                "tempo": 120.0
            },
            {
                "start_time": 65.20454545454545,
                "end_time": 65.28636363636363,
                "pitch": 50,
                "velocity": 32,
                "duration": 0.08181818181817846,
                "tempo": 120.0
            },
            {
                "start_time": 65.47045454545454,
                "end_time": 65.55454545454545,
                "pitch": 50,
                "velocity": 32,
                "duration": 0.08409090909090366,
                "tempo": 120.0
            },
            {
                "start_time": 65.73863636363636,
                "end_time": 65.82272727272726,
                "pitch": 52,
                "velocity": 32,
                "duration": 0.08409090909090366,
                "tempo": 120.0
            },
            {
                "start_time": 42.96363636363636,
                "end_time": 66.35681818181818,
                "pitch": 54,
                "velocity": 32,
                "duration": 23.393181818181823,
                "tempo": 120.0
            },
            {
                "start_time": 66.27499999999999,
                "end_time": 66.35681818181818,
                "pitch": 54,
                "velocity": 32,
                "duration": 0.08181818181819267,
                "tempo": 120.0
            },
            {
                "start_time": 66.4090909090909,
                "end_time": 66.7590909090909,
                "pitch": 52,
                "velocity": 32,
                "duration": 0.3499999999999943,
                "tempo": 120.0
            },
            {
                "start_time": 66.80909090909091,
                "end_time": 66.89318181818182,
                "pitch": 50,
                "velocity": 32,
                "duration": 0.08409090909090366,
                "tempo": 120.0
            },
            {
                "start_time": 66.94545454545454,
                "end_time": 67.02954545454546,
                "pitch": 50,
                "velocity": 32,
                "duration": 0.08409090909091788,
                "tempo": 120.0
            },
            {
                "start_time": 64.93181818181817,
                "end_time": 67.08181818181818,
                "pitch": 53,
                "velocity": 32,
                "duration": 2.1500000000000057,
                "tempo": 120.0
            },
            {
                "start_time": 67.08181818181818,
                "end_time": 67.16590909090908,
                "pitch": 45,
                "velocity": 32,
                "duration": 0.08409090909090366,
                "tempo": 120.0
            },
            {
                "start_time": 65.20454545454545,
                "end_time": 67.35454545454544,
                "pitch": 19,
                "velocity": 32,
                "duration": 2.1499999999999915,
                "tempo": 120.0
            },
            {
                "start_time": 67.35454545454544,
                "end_time": 67.43636363636364,
                "pitch": 50,
                "velocity": 32,
                "duration": 0.08181818181819267,
                "tempo": 120.0
            },
            {
                "start_time": 67.62045454545454,
                "end_time": 67.70454545454545,
                "pitch": 50,
                "velocity": 32,
                "duration": 0.08409090909091788,
                "tempo": 120.0
            },
            {
                "start_time": 67.89090909090909,
                "end_time": 67.97272727272727,
                "pitch": 52,
                "velocity": 32,
                "duration": 0.08181818181817846,
                "tempo": 120.0
            },
            {
                "start_time": 42.559090909090905,
                "end_time": 68.43409090909091,
                "pitch": 67,
                "velocity": 32,
                "duration": 25.875000000000007,
                "tempo": 120.0
            },
            {
                "start_time": 68.43409090909091,
                "end_time": 68.51590909090909,
                "pitch": 55,
                "velocity": 32,
                "duration": 0.08181818181817846,
                "tempo": 120.0
            },
            {
                "start_time": 66.80909090909091,
                "end_time": 68.83636363636363,
                "pitch": 54,
                "velocity": 32,
                "duration": 2.0272727272727167,
                "tempo": 120.0
            },
            {
                "start_time": 68.83636363636363,
                "end_time": 68.91818181818182,
                "pitch": 50,
                "velocity": 32,
                "duration": 0.08181818181819267,
                "tempo": 120.0
            },
            {
                "start_time": 68.97045454545454,
                "end_time": 69.05227272727272,
                "pitch": 50,
                "velocity": 32,
                "duration": 0.08181818181817846,
                "tempo": 120.0
            },
            {
                "start_time": 69.10454545454544,
                "end_time": 69.18863636363636,
                "pitch": 52,
                "velocity": 32,
                "duration": 0.08409090909091788,
                "tempo": 120.0
            },
            {
                "start_time": 69.24090909090908,
                "end_time": 69.325,
                "pitch": 52,
                "velocity": 32,
                "duration": 0.08409090909091788,
                "tempo": 120.0
            },
            {
                "start_time": 69.51363636363637,
                "end_time": 69.59545454545454,
                "pitch": 50,
                "velocity": 32,
                "duration": 0.08181818181817846,
                "tempo": 120.0
            },
            {
                "start_time": 63.31136363636363,
                "end_time": 69.78181818181818,
                "pitch": 66,
                "velocity": 32,
                "duration": 6.470454545454551,
                "tempo": 120.0
            },
            {
                "start_time": 69.78181818181818,
                "end_time": 69.99772727272727,
                "pitch": 55,
                "velocity": 32,
                "duration": 0.2159090909090935,
                "tempo": 120.0
            },
            {
                "start_time": 70.05,
                "end_time": 70.13181818181818,
                "pitch": 55,
                "velocity": 32,
                "duration": 0.08181818181817846,
                "tempo": 120.0
            },
            {
                "start_time": 70.5840909090909,
                "end_time": 70.66818181818182,
                "pitch": 57,
                "velocity": 32,
                "duration": 0.08409090909091788,
                "tempo": 120.0
            },
            {
                "start_time": 70.72045454545454,
                "end_time": 71.07727272727273,
                "pitch": 55,
                "velocity": 32,
                "duration": 0.35681818181818414,
                "tempo": 120.0
            },
            {
                "start_time": 67.35454545454544,
                "end_time": 71.12954545454545,
                "pitch": 19,
                "velocity": 32,
                "duration": 3.7750000000000057,
                "tempo": 120.0
            },
            {
                "start_time": 71.12727272727273,
                "end_time": 71.12954545454545,
                "pitch": 19,
                "velocity": 32,
                "duration": 0.0022727272727252057,
                "tempo": 120.0
            },
            {
                "start_time": 71.12954545454545,
                "end_time": 71.21136363636363,
                "pitch": 52,
                "velocity": 32,
                "duration": 0.08181818181817846,
                "tempo": 120.0
            },
            {
                "start_time": 71.26136363636363,
                "end_time": 71.34545454545454,
                "pitch": 52,
                "velocity": 32,
                "duration": 0.08409090909091788,
                "tempo": 120.0
            },
            {
                "start_time": 71.39545454545454,
                "end_time": 71.47954545454544,
                "pitch": 52,
                "velocity": 32,
                "duration": 0.08409090909090366,
                "tempo": 120.0
            },
            {
                "start_time": 71.66363636363636,
                "end_time": 71.74545454545454,
                "pitch": 50,
                "velocity": 32,
                "duration": 0.08181818181817846,
                "tempo": 120.0
            },
            {
                "start_time": 69.78181818181818,
                "end_time": 71.93181818181817,
                "pitch": 66,
                "velocity": 32,
                "duration": 2.1499999999999915,
                "tempo": 120.0
            },
            {
                "start_time": 71.93181818181817,
                "end_time": 72.14772727272727,
                "pitch": 55,
                "velocity": 32,
                "duration": 0.2159090909090935,
                "tempo": 120.0
            },
            {
                "start_time": 63.84772727272727,
                "end_time": 72.28181818181818,
                "pitch": 59,
                "velocity": 32,
                "duration": 8.434090909090912,
                "tempo": 120.0
            },
            {
                "start_time": 72.20227272727273,
                "end_time": 72.28181818181818,
                "pitch": 59,
                "velocity": 32,
                "duration": 0.07954545454545325,
                "tempo": 120.0
            },
            {
                "start_time": 72.20227272727273,
                "end_time": 72.55454545454545,
                "pitch": 55,
                "velocity": 32,
                "duration": 0.3522727272727195,
                "tempo": 120.0
            },
            {
                "start_time": 72.47045454545454,
                "end_time": 72.55454545454545,
                "pitch": 55,
                "velocity": 32,
                "duration": 0.08409090909090366,
                "tempo": 120.0
            },
            {
                "start_time": 72.74545454545454,
                "end_time": 72.82727272727273,
                "pitch": 55,
                "velocity": 32,
                "duration": 0.08181818181819267,
                "tempo": 120.0
            },
            {
                "start_time": 72.87954545454545,
                "end_time": 73.23636363636363,
                "pitch": 57,
                "velocity": 32,
                "duration": 0.35681818181818414,
                "tempo": 120.0
            },
            {
                "start_time": 73.42272727272727,
                "end_time": 73.50454545454545,
                "pitch": 50,
                "velocity": 32,
                "duration": 0.08181818181817846,
                "tempo": 120.0
            },
            {
                "start_time": 67.08181818181818,
                "end_time": 73.55454545454545,
                "pitch": 53,
                "velocity": 32,
                "duration": 6.472727272727269,
                "tempo": 120.0
            },
            {
                "start_time": 73.55454545454545,
                "end_time": 73.63863636363637,
                "pitch": 45,
                "velocity": 32,
                "duration": 0.08409090909091788,
                "tempo": 120.0
            },
            {
                "start_time": 73.82272727272726,
                "end_time": 73.90681818181818,
                "pitch": 50,
                "velocity": 32,
                "duration": 0.08409090909091788,
                "tempo": 120.0
            },
            {
                "start_time": 74.0909090909091,
                "end_time": 74.17272727272727,
                "pitch": 50,
                "velocity": 32,
                "duration": 0.08181818181817846,
                "tempo": 120.0
            },
            {
                "start_time": 74.35909090909091,
                "end_time": 74.44318181818181,
                "pitch": 52,
                "velocity": 32,
                "duration": 0.08409090909090366,
                "tempo": 120.0
            },
            {
                "start_time": 68.83636363636363,
                "end_time": 74.98636363636363,
                "pitch": 54,
                "velocity": 32,
                "duration": 6.150000000000006,
                "tempo": 120.0
            },
            {
                "start_time": 74.90454545454546,
                "end_time": 74.98636363636363,
                "pitch": 54,
                "velocity": 32,
                "duration": 0.08181818181817846,
                "tempo": 120.0
            },
            {
                "start_time": 75.03636363636363,
                "end_time": 75.38636363636363,
                "pitch": 52,
                "velocity": 32,
                "duration": 0.3499999999999943,
                "tempo": 120.0
            },
            {
                "start_time": 75.43863636363636,
                "end_time": 75.52272727272727,
                "pitch": 50,
                "velocity": 32,
                "duration": 0.08409090909090366,
                "tempo": 120.0
            },
            {
                "start_time": 75.575,
                "end_time": 75.6590909090909,
                "pitch": 50,
                "velocity": 32,
                "duration": 0.08409090909090366,
                "tempo": 120.0
            },
            {
                "start_time": 73.55454545454545,
                "end_time": 75.71136363636363,
                "pitch": 53,
                "velocity": 32,
                "duration": 2.1568181818181813,
                "tempo": 120.0
            },
            {
                "start_time": 75.71136363636363,
                "end_time": 75.79545454545455,
                "pitch": 45,
                "velocity": 32,
                "duration": 0.08409090909091788,
                "tempo": 120.0
            },
            {
                "start_time": 73.82272727272726,
                "end_time": 75.98409090909091,
                "pitch": 19,
                "velocity": 32,
                "duration": 2.161363636363646,
                "tempo": 120.0
            },
            {
                "start_time": 75.98409090909091,
                "end_time": 76.06590909090909,
                "pitch": 50,
                "velocity": 32,
                "duration": 0.08181818181817846,
                "tempo": 120.0
            },
            {
                "start_time": 76.25,
                "end_time": 76.3340909090909,
                "pitch": 50,
                "velocity": 32,
                "duration": 0.08409090909090366,
                "tempo": 120.0
            },
            {
                "start_time": 76.52045454545454,
                "end_time": 76.6,
                "pitch": 52,
                "velocity": 32,
                "duration": 0.07954545454545325,
                "tempo": 120.0
            },
            {
                "start_time": 68.43409090909091,
                "end_time": 77.05681818181817,
                "pitch": 67,
                "velocity": 32,
                "duration": 8.62272727272726,
                "tempo": 120.0
            },
            {
                "start_time": 77.05681818181817,
                "end_time": 77.13636363636363,
                "pitch": 55,
                "velocity": 32,
                "duration": 0.07954545454545325,
                "tempo": 120.0
            },
            {
                "start_time": 75.43863636363636,
                "end_time": 77.46136363636363,
                "pitch": 54,
                "velocity": 32,
                "duration": 2.0227272727272663,
                "tempo": 120.0
            },
            {
                "start_time": 77.46136363636363,
                "end_time": 77.54545454545455,
                "pitch": 50,
                "velocity": 32,
                "duration": 0.08409090909091788,
                "tempo": 120.0
            },
            {
                "start_time": 77.6,
                "end_time": 77.81818181818181,
                "pitch": 48,
                "velocity": 32,
                "duration": 0.2181818181818187,
                "tempo": 120.0
            },
            {
                "start_time": 77.87272727272727,
                "end_time": 78.0909090909091,
                "pitch": 48,
                "velocity": 32,
                "duration": 0.2181818181818187,
                "tempo": 120.0
            },
            {
                "start_time": 78.14318181818182,
                "end_time": 78.35909090909091,
                "pitch": 48,
                "velocity": 32,
                "duration": 0.2159090909090935,
                "tempo": 120.0
            },
            {
                "start_time": 78.41136363636363,
                "end_time": 78.62727272727273,
                "pitch": 48,
                "velocity": 32,
                "duration": 0.2159090909090935,
                "tempo": 120.0
            },
            {
                "start_time": 78.67954545454545,
                "end_time": 78.89772727272727,
                "pitch": 48,
                "velocity": 32,
                "duration": 0.2181818181818187,
                "tempo": 120.0
            },
            {
                "start_time": 78.95227272727273,
                "end_time": 79.17045454545455,
                "pitch": 48,
                "velocity": 32,
                "duration": 0.2181818181818187,
                "tempo": 120.0
            },
            {
                "start_time": 79.225,
                "end_time": 79.43863636363636,
                "pitch": 48,
                "velocity": 32,
                "duration": 0.2136363636363683,
                "tempo": 120.0
            },
            {
                "start_time": 79.49090909090908,
                "end_time": 79.975,
                "pitch": 48,
                "velocity": 32,
                "duration": 0.48409090909090935,
                "tempo": 120.0
            },
            {
                "start_time": 80.02727272727272,
                "end_time": 80.24090909090908,
                "pitch": 48,
                "velocity": 32,
                "duration": 0.2136363636363683,
                "tempo": 120.0
            },
            {
                "start_time": 80.29545454545455,
                "end_time": 80.5090909090909,
                "pitch": 48,
                "velocity": 32,
                "duration": 0.21363636363635408,
                "tempo": 120.0
            },
            {
                "start_time": 80.56136363636364,
                "end_time": 80.77727272727272,
                "pitch": 48,
                "velocity": 32,
                "duration": 0.21590909090907928,
                "tempo": 120.0
            },
            {
                "start_time": 80.82954545454545,
                "end_time": 81.04772727272727,
                "pitch": 48,
                "velocity": 32,
                "duration": 0.2181818181818187,
                "tempo": 120.0
            },
            {
                "start_time": 81.10227272727272,
                "end_time": 81.32045454545454,
                "pitch": 48,
                "velocity": 32,
                "duration": 0.2181818181818187,
                "tempo": 120.0
            },
            {
                "start_time": 81.375,
                "end_time": 81.58863636363635,
                "pitch": 48,
                "velocity": 32,
                "duration": 0.21363636363635408,
                "tempo": 120.0
            },
            {
                "start_time": 81.64318181818182,
                "end_time": 82.12727272727273,
                "pitch": 52,
                "velocity": 32,
                "duration": 0.48409090909090935,
                "tempo": 120.0
            },
            {
                "start_time": 82.18181818181817,
                "end_time": 82.39999999999999,
                "pitch": 52,
                "velocity": 32,
                "duration": 0.2181818181818187,
                "tempo": 120.0
            },
            {
                "start_time": 82.45454545454545,
                "end_time": 82.66818181818181,
                "pitch": 52,
                "velocity": 32,
                "duration": 0.21363636363635408,
                "tempo": 120.0
            },
            {
                "start_time": 82.72045454545454,
                "end_time": 82.93636363636364,
                "pitch": 52,
                "velocity": 32,
                "duration": 0.2159090909090935,
                "tempo": 120.0
            },
            {
                "start_time": 82.98863636363636,
                "end_time": 83.20681818181818,
                "pitch": 52,
                "velocity": 32,
                "duration": 0.2181818181818187,
                "tempo": 120.0
            },
            {
                "start_time": 83.26136363636363,
                "end_time": 83.47954545454544,
                "pitch": 52,
                "velocity": 32,
                "duration": 0.2181818181818187,
                "tempo": 120.0
            },
            {
                "start_time": 83.5340909090909,
                "end_time": 83.74772727272727,
                "pitch": 52,
                "velocity": 32,
                "duration": 0.2136363636363683,
                "tempo": 120.0
            },
            {
                "start_time": 83.80227272727272,
                "end_time": 84.2840909090909,
                "pitch": 52,
                "velocity": 32,
                "duration": 0.48181818181818414,
                "tempo": 120.0
            },
            {
                "start_time": 84.33636363636363,
                "end_time": 84.55227272727272,
                "pitch": 52,
                "velocity": 32,
                "duration": 0.2159090909090935,
                "tempo": 120.0
            },
            {
                "start_time": 84.60454545454544,
                "end_time": 84.81818181818181,
                "pitch": 52,
                "velocity": 32,
                "duration": 0.2136363636363683,
                "tempo": 120.0
            },
            {
                "start_time": 84.87045454545454,
                "end_time": 85.08636363636363,
                "pitch": 52,
                "velocity": 32,
                "duration": 0.2159090909090935,
                "tempo": 120.0
            },
            {
                "start_time": 85.13863636363637,
                "end_time": 85.35909090909091,
                "pitch": 52,
                "velocity": 32,
                "duration": 0.2204545454545439,
                "tempo": 120.0
            },
            {
                "start_time": 85.41136363636363,
                "end_time": 85.62954545454545,
                "pitch": 52,
                "velocity": 32,
                "duration": 0.2181818181818187,
                "tempo": 120.0
            },
            {
                "start_time": 85.6840909090909,
                "end_time": 85.90227272727272,
                "pitch": 52,
                "velocity": 32,
                "duration": 0.2181818181818187,
                "tempo": 120.0
            },
            {
                "start_time": 77.6,
                "end_time": 85.95681818181818,
                "pitch": 50,
                "velocity": 32,
                "duration": 8.356818181818184,
                "tempo": 120.0
            },
            {
                "start_time": 81.64318181818182,
                "end_time": 86.44318181818181,
                "pitch": 48,
                "velocity": 32,
                "duration": 4.799999999999997,
                "tempo": 120.0
            },
            {
                "start_time": 85.95681818181818,
                "end_time": 86.44318181818181,
                "pitch": 48,
                "velocity": 32,
                "duration": 0.48636363636363455,
                "tempo": 120.0
            },
            {
                "start_time": 86.49545454545454,
                "end_time": 86.71136363636363,
                "pitch": 48,
                "velocity": 32,
                "duration": 0.2159090909090935,
                "tempo": 120.0
            },
            {
                "start_time": 86.76363636363637,
                "end_time": 86.97954545454544,
                "pitch": 48,
                "velocity": 32,
                "duration": 0.21590909090907928,
                "tempo": 120.0
            },
            {
                "start_time": 87.03181818181818,
                "end_time": 87.24545454545454,
                "pitch": 48,
                "velocity": 32,
                "duration": 0.21363636363635408,
                "tempo": 120.0
            },
            {
                "start_time": 87.3,
                "end_time": 87.51818181818182,
                "pitch": 48,
                "velocity": 32,
                "duration": 0.2181818181818187,
                "tempo": 120.0
            },
            {
                "start_time": 87.57045454545454,
                "end_time": 87.79090909090908,
                "pitch": 48,
                "velocity": 32,
                "duration": 0.2204545454545439,
                "tempo": 120.0
            },
            {
                "start_time": 87.84318181818182,
                "end_time": 88.0590909090909,
                "pitch": 48,
                "velocity": 32,
                "duration": 0.21590909090907928,
                "tempo": 120.0
            },
            {
                "start_time": 88.11136363636363,
                "end_time": 88.19318181818181,
                "pitch": 47,
                "velocity": 32,
                "duration": 0.08181818181817846,
                "tempo": 120.0
            },
            {
                "start_time": 88.24545454545454,
                "end_time": 88.59318181818182,
                "pitch": 47,
                "velocity": 32,
                "duration": 0.3477272727272833,
                "tempo": 120.0
            },
            {
                "start_time": 88.64545454545454,
                "end_time": 88.86136363636363,
                "pitch": 46,
                "velocity": 32,
                "duration": 0.2159090909090935,
                "tempo": 120.0
            },
            {
                "start_time": 88.91363636363636,
                "end_time": 89.13181818181818,
                "pitch": 46,
                "velocity": 32,
                "duration": 0.2181818181818187,
                "tempo": 120.0
            },
            {
                "start_time": 89.18636363636364,
                "end_time": 89.40454545454546,
                "pitch": 46,
                "velocity": 32,
                "duration": 0.2181818181818187,
                "tempo": 120.0
            },
            {
                "start_time": 89.4590909090909,
                "end_time": 89.67727272727272,
                "pitch": 46,
                "velocity": 32,
                "duration": 0.2181818181818187,
                "tempo": 120.0
            },
            {
                "start_time": 89.72954545454544,
                "end_time": 89.94999999999999,
                "pitch": 46,
                "velocity": 32,
                "duration": 0.2204545454545439,
                "tempo": 120.0
            },
            {
                "start_time": 90.00454545454545,
                "end_time": 90.21818181818182,
                "pitch": 46,
                "velocity": 32,
                "duration": 0.2136363636363683,
                "tempo": 120.0
            },
            {
                "start_time": 90.27045454545454,
                "end_time": 90.75227272727273,
                "pitch": 46,
                "velocity": 32,
                "duration": 0.48181818181818414,
                "tempo": 120.0
            },
            {
                "start_time": 90.80454545454545,
                "end_time": 91.02045454545454,
                "pitch": 47,
                "velocity": 32,
                "duration": 0.2159090909090935,
                "tempo": 120.0
            },
            {
                "start_time": 91.07272727272726,
                "end_time": 91.28863636363636,
                "pitch": 47,
                "velocity": 32,
                "duration": 0.2159090909090935,
                "tempo": 120.0
            },
            {
                "start_time": 91.3409090909091,
                "end_time": 91.82727272727273,
                "pitch": 47,
                "velocity": 32,
                "duration": 0.48636363636363455,
                "tempo": 120.0
            },
            {
                "start_time": 91.87954545454545,
                "end_time": 92.1,
                "pitch": 47,
                "velocity": 32,
                "duration": 0.2204545454545439,
                "tempo": 120.0
            },
            {
                "start_time": 92.15454545454546,
                "end_time": 92.37272727272727,
                "pitch": 47,
                "velocity": 32,
                "duration": 0.2181818181818187,
                "tempo": 120.0
            },
            {
                "start_time": 92.42727272727272,
                "end_time": 92.64545454545454,
                "pitch": 47,
                "velocity": 32,
                "duration": 0.2181818181818187,
                "tempo": 120.0
            },
            {
                "start_time": 94.03636363636363,
                "end_time": 94.79545454545455,
                "pitch": 47,
                "velocity": 32,
                "duration": 0.759090909090915,
                "tempo": 120.0
            },
            {
                "start_time": 94.85,
                "end_time": 95.06590909090909,
                "pitch": 43,
                "velocity": 32,
                "duration": 0.2159090909090935,
                "tempo": 120.0
            },
            {
                "start_time": 95.12045454545454,
                "end_time": 95.33863636363635,
                "pitch": 43,
                "velocity": 32,
                "duration": 0.2181818181818187,
                "tempo": 120.0
            },
            {
                "start_time": 95.39318181818182,
                "end_time": 95.60681818181818,
                "pitch": 43,
                "velocity": 32,
                "duration": 0.2136363636363683,
                "tempo": 120.0
            },
            {
                "start_time": 95.6590909090909,
                "end_time": 95.875,
                "pitch": 43,
                "velocity": 32,
                "duration": 0.2159090909090935,
                "tempo": 120.0
            },
            {
                "start_time": 95.92727272727272,
                "end_time": 96.14772727272727,
                "pitch": 43,
                "velocity": 32,
                "duration": 0.2204545454545439,
                "tempo": 120.0
            },
            {
                "start_time": 96.19999999999999,
                "end_time": 96.41818181818181,
                "pitch": 43,
                "velocity": 32,
                "duration": 0.2181818181818187,
                "tempo": 120.0
            },
            {
                "start_time": 96.47272727272727,
                "end_time": 96.68863636363636,
                "pitch": 43,
                "velocity": 32,
                "duration": 0.2159090909090935,
                "tempo": 120.0
            },
            {
                "start_time": 96.74090909090908,
                "end_time": 96.95454545454545,
                "pitch": 43,
                "velocity": 32,
                "duration": 0.2136363636363683,
                "tempo": 120.0
            },
            {
                "start_time": 97.00681818181818,
                "end_time": 97.22272727272727,
                "pitch": 43,
                "velocity": 32,
                "duration": 0.2159090909090935,
                "tempo": 120.0
            },
            {
                "start_time": 97.27499999999999,
                "end_time": 97.49090909090908,
                "pitch": 43,
                "velocity": 32,
                "duration": 0.2159090909090935,
                "tempo": 120.0
            },
            {
                "start_time": 97.54318181818181,
                "end_time": 97.76136363636363,
                "pitch": 43,
                "velocity": 32,
                "duration": 0.2181818181818187,
                "tempo": 120.0
            },
            {
                "start_time": 97.81590909090909,
                "end_time": 98.0340909090909,
                "pitch": 55,
                "velocity": 32,
                "duration": 0.2181818181818187,
                "tempo": 120.0
            },
            {
                "start_time": 77.46136363636363,
                "end_time": 98.57045454545454,
                "pitch": 54,
                "velocity": 32,
                "duration": 21.10909090909091,
                "tempo": 120.0
            },
            {
                "start_time": 98.35454545454544,
                "end_time": 98.57045454545454,
                "pitch": 54,
                "velocity": 32,
                "duration": 0.2159090909090935,
                "tempo": 120.0
            },
            {
                "start_time": 98.62272727272727,
                "end_time": 98.83863636363635,
                "pitch": 54,
                "velocity": 32,
                "duration": 0.21590909090907928,
                "tempo": 120.0
            },
            {
                "start_time": 88.11136363636363,
                "end_time": 99.10454545454544,
                "pitch": 52,
                "velocity": 32,
                "duration": 10.99318181818181,
                "tempo": 120.0
            },
            {
                "start_time": 98.89090909090909,
                "end_time": 99.10454545454544,
                "pitch": 52,
                "velocity": 32,
                "duration": 0.21363636363635408,
                "tempo": 120.0
            },
            {
                "start_time": 99.15681818181818,
                "end_time": 99.37727272727273,
                "pitch": 52,
                "velocity": 32,
                "duration": 0.2204545454545439,
                "tempo": 120.0
            },
            {
                "start_time": 85.95681818181818,
                "end_time": 99.64772727272727,
                "pitch": 50,
                "velocity": 32,
                "duration": 13.690909090909088,
                "tempo": 120.0
            },
            {
                "start_time": 99.42954545454545,
                "end_time": 99.64772727272727,
                "pitch": 50,
                "velocity": 32,
                "duration": 0.2181818181818187,
                "tempo": 120.0
            },
            {
                "start_time": 99.70227272727273,
                "end_time": 99.91818181818181,
                "pitch": 50,
                "velocity": 32,
                "duration": 0.21590909090907928,
                "tempo": 120.0
            },
            {
                "start_time": 99.96818181818182,
                "end_time": 100.1840909090909,
                "pitch": 50,
                "velocity": 32,
                "duration": 0.21590909090907928,
                "tempo": 120.0
            },
            {
                "start_time": 100.23636363636363,
                "end_time": 100.45681818181818,
                "pitch": 50,
                "velocity": 32,
                "duration": 0.2204545454545439,
                "tempo": 120.0
            },
            {
                "start_time": 100.5090909090909,
                "end_time": 100.72954545454544,
                "pitch": 50,
                "velocity": 32,
                "duration": 0.2204545454545439,
                "tempo": 120.0
            },
            {
                "start_time": 100.78181818181818,
                "end_time": 100.99772727272727,
                "pitch": 50,
                "velocity": 32,
                "duration": 0.2159090909090935,
                "tempo": 120.0
            },
            {
                "start_time": 101.05,
                "end_time": 101.26590909090909,
                "pitch": 50,
                "velocity": 32,
                "duration": 0.2159090909090935,
                "tempo": 120.0
            },
            {
                "start_time": 101.31818181818181,
                "end_time": 101.53636363636363,
                "pitch": 50,
                "velocity": 32,
                "duration": 0.2181818181818187,
                "tempo": 120.0
            },
            {
                "start_time": 101.58863636363635,
                "end_time": 101.8090909090909,
                "pitch": 50,
                "velocity": 32,
                "duration": 0.2204545454545439,
                "tempo": 120.0
            },
            {
                "start_time": 101.86136363636363,
                "end_time": 102.07727272727273,
                "pitch": 50,
                "velocity": 32,
                "duration": 0.2159090909090935,
                "tempo": 120.0
            },
            {
                "start_time": 102.12954545454545,
                "end_time": 102.34545454545454,
                "pitch": 50,
                "velocity": 32,
                "duration": 0.2159090909090935,
                "tempo": 120.0
            },
            {
                "start_time": 102.39772727272727,
                "end_time": 102.61136363636363,
                "pitch": 50,
                "velocity": 32,
                "duration": 0.2136363636363683,
                "tempo": 120.0
            },
            {
                "start_time": 102.66363636363636,
                "end_time": 102.87954545454545,
                "pitch": 51,
                "velocity": 32,
                "duration": 0.2159090909090935,
                "tempo": 120.0
            },
            {
                "start_time": 102.93181818181817,
                "end_time": 103.14999999999999,
                "pitch": 51,
                "velocity": 32,
                "duration": 0.2181818181818187,
                "tempo": 120.0
            },
            {
                "start_time": 103.20454545454545,
                "end_time": 103.42272727272727,
                "pitch": 51,
                "velocity": 32,
                "duration": 0.2181818181818187,
                "tempo": 120.0
            },
            {
                "start_time": 103.47727272727272,
                "end_time": 103.69090909090909,
                "pitch": 51,
                "velocity": 32,
                "duration": 0.2136363636363683,
                "tempo": 120.0
            },
            {
                "start_time": 103.74318181818181,
                "end_time": 103.9590909090909,
                "pitch": 52,
                "velocity": 32,
                "duration": 0.2159090909090935,
                "tempo": 120.0
            },
            {
                "start_time": 104.01136363636363,
                "end_time": 104.22727272727272,
                "pitch": 52,
                "velocity": 32,
                "duration": 0.2159090909090935,
                "tempo": 120.0
            },
            {
                "start_time": 104.27954545454546,
                "end_time": 104.49545454545454,
                "pitch": 52,
                "velocity": 32,
                "duration": 0.21590909090907928,
                "tempo": 120.0
            },
            {
                "start_time": 104.54545454545455,
                "end_time": 104.76590909090909,
                "pitch": 52,
                "velocity": 32,
                "duration": 0.2204545454545439,
                "tempo": 120.0
            },
            {
                "start_time": 104.81818181818181,
                "end_time": 105.03863636363636,
                "pitch": 52,
                "velocity": 32,
                "duration": 0.2204545454545439,
                "tempo": 120.0
            },
            {
                "start_time": 105.09318181818182,
                "end_time": 105.30681818181817,
                "pitch": 52,
                "velocity": 32,
                "duration": 0.21363636363635408,
                "tempo": 120.0
            },
            {
                "start_time": 105.35909090909091,
                "end_time": 105.57499999999999,
                "pitch": 52,
                "velocity": 32,
                "duration": 0.21590909090907928,
                "tempo": 120.0
            },
            {
                "start_time": 105.62727272727273,
                "end_time": 105.84545454545454,
                "pitch": 52,
                "velocity": 32,
                "duration": 0.2181818181818187,
                "tempo": 120.0
            },
            {
                "start_time": 105.89772727272727,
                "end_time": 106.11818181818181,
                "pitch": 52,
                "velocity": 32,
                "duration": 0.2204545454545439,
                "tempo": 120.0
            },
            {
                "start_time": 106.17045454545455,
                "end_time": 106.38636363636363,
                "pitch": 52,
                "velocity": 32,
                "duration": 0.21590909090907928,
                "tempo": 120.0
            },
            {
                "start_time": 106.43863636363636,
                "end_time": 106.65454545454546,
                "pitch": 52,
                "velocity": 32,
                "duration": 0.2159090909090935,
                "tempo": 120.0
            },
            {
                "start_time": 106.70681818181818,
                "end_time": 106.925,
                "pitch": 52,
                "velocity": 32,
                "duration": 0.2181818181818187,
                "tempo": 120.0
            },
            {
                "start_time": 106.97954545454544,
                "end_time": 107.19772727272726,
                "pitch": 52,
                "velocity": 32,
                "duration": 0.2181818181818187,
                "tempo": 120.0
            },
            {
                "start_time": 107.25,
                "end_time": 107.46590909090908,
                "pitch": 52,
                "velocity": 32,
                "duration": 0.21590909090907928,
                "tempo": 120.0
            },
            {
                "start_time": 107.51818181818182,
                "end_time": 107.73409090909091,
                "pitch": 52,
                "velocity": 32,
                "duration": 0.2159090909090935,
                "tempo": 120.0
            },
            {
                "start_time": 107.78636363636363,
                "end_time": 108.00454545454545,
                "pitch": 52,
                "velocity": 32,
                "duration": 0.2181818181818187,
                "tempo": 120.0
            },
            {
                "start_time": 108.05681818181817,
                "end_time": 108.27727272727272,
                "pitch": 50,
                "velocity": 32,
                "duration": 0.2204545454545439,
                "tempo": 120.0
            },
            {
                "start_time": 108.32954545454545,
                "end_time": 108.54545454545455,
                "pitch": 50,
                "velocity": 32,
                "duration": 0.2159090909090935,
                "tempo": 120.0
            },
            {
                "start_time": 108.59772727272727,
                "end_time": 108.81363636363636,
                "pitch": 50,
                "velocity": 32,
                "duration": 0.2159090909090935,
                "tempo": 120.0
            },
            {
                "start_time": 108.86590909090908,
                "end_time": 109.08181818181818,
                "pitch": 50,
                "velocity": 32,
                "duration": 0.2159090909090935,
                "tempo": 120.0
            },
            {
                "start_time": 109.1340909090909,
                "end_time": 109.35,
                "pitch": 50,
                "velocity": 32,
                "duration": 0.2159090909090935,
                "tempo": 120.0
            },
            {
                "start_time": 109.40227272727272,
                "end_time": 109.62045454545454,
                "pitch": 50,
                "velocity": 32,
                "duration": 0.2181818181818187,
                "tempo": 120.0
            },
            {
                "start_time": 109.675,
                "end_time": 109.89318181818182,
                "pitch": 50,
                "velocity": 32,
                "duration": 0.2181818181818187,
                "tempo": 120.0
            },
            {
                "start_time": 109.94545454545454,
                "end_time": 110.16136363636363,
                "pitch": 50,
                "velocity": 32,
                "duration": 0.2159090909090935,
                "tempo": 120.0
            },
            {
                "start_time": 110.21363636363635,
                "end_time": 110.42954545454545,
                "pitch": 50,
                "velocity": 32,
                "duration": 0.2159090909090935,
                "tempo": 120.0
            },
            {
                "start_time": 110.48181818181817,
                "end_time": 110.69545454545454,
                "pitch": 50,
                "velocity": 32,
                "duration": 0.2136363636363683,
                "tempo": 120.0
            },
            {
                "start_time": 110.74772727272726,
                "end_time": 110.96363636363635,
                "pitch": 50,
                "velocity": 32,
                "duration": 0.2159090909090935,
                "tempo": 120.0
            },
            {
                "start_time": 111.01590909090909,
                "end_time": 111.23409090909091,
                "pitch": 50,
                "velocity": 32,
                "duration": 0.2181818181818187,
                "tempo": 120.0
            },
            {
                "start_time": 111.28863636363636,
                "end_time": 111.50681818181818,
                "pitch": 50,
                "velocity": 32,
                "duration": 0.2181818181818187,
                "tempo": 120.0
            },
            {
                "start_time": 111.56136363636364,
                "end_time": 111.77727272727272,
                "pitch": 52,
                "velocity": 32,
                "duration": 0.21590909090907928,
                "tempo": 120.0
            },
            {
                "start_time": 111.82727272727273,
                "end_time": 112.04318181818181,
                "pitch": 54,
                "velocity": 32,
                "duration": 0.21590909090907928,
                "tempo": 120.0
            },
            {
                "start_time": 77.05681818181817,
                "end_time": 112.09545454545454,
                "pitch": 67,
                "velocity": 32,
                "duration": 35.03863636363637,
                "tempo": 120.0
            },
            {
                "start_time": 112.09545454545454,
                "end_time": 112.31590909090909,
                "pitch": 55,
                "velocity": 32,
                "duration": 0.2204545454545439,
                "tempo": 120.0
            },
            {
                "start_time": 112.36818181818181,
                "end_time": 112.58636363636363,
                "pitch": 55,
                "velocity": 32,
                "duration": 0.2181818181818187,
                "tempo": 120.0
            },
            {
                "start_time": 112.64090909090909,
                "end_time": 112.85681818181817,
                "pitch": 55,
                "velocity": 32,
                "duration": 0.21590909090907928,
                "tempo": 120.0
            },
            {
                "start_time": 112.90681818181818,
                "end_time": 113.12272727272726,
                "pitch": 55,
                "velocity": 32,
                "duration": 0.21590909090907928,
                "tempo": 120.0
            },
            {
                "start_time": 113.175,
                "end_time": 113.39545454545454,
                "pitch": 55,
                "velocity": 32,
                "duration": 0.2204545454545439,
                "tempo": 120.0
            },
            {
                "start_time": 113.44772727272726,
                "end_time": 113.66590909090908,
                "pitch": 55,
                "velocity": 32,
                "duration": 0.2181818181818187,
                "tempo": 120.0
            },
            {
                "start_time": 113.72045454545454,
                "end_time": 113.93636363636364,
                "pitch": 55,
                "velocity": 32,
                "duration": 0.2159090909090935,
                "tempo": 120.0
            },
            {
                "start_time": 113.98863636363636,
                "end_time": 114.20227272727273,
                "pitch": 55,
                "velocity": 32,
                "duration": 0.2136363636363683,
                "tempo": 120.0
            },
            {
                "start_time": 114.25454545454545,
                "end_time": 114.47045454545454,
                "pitch": 55,
                "velocity": 32,
                "duration": 0.2159090909090935,
                "tempo": 120.0
            },
            {
                "start_time": 114.52272727272727,
                "end_time": 114.73863636363636,
                "pitch": 55,
                "velocity": 32,
                "duration": 0.2159090909090935,
                "tempo": 120.0
            },
            {
                "start_time": 114.79090909090908,
                "end_time": 115.0090909090909,
                "pitch": 55,
                "velocity": 32,
                "duration": 0.2181818181818187,
                "tempo": 120.0
            },
            {
                "start_time": 115.06363636363636,
                "end_time": 115.28181818181818,
                "pitch": 55,
                "velocity": 32,
                "duration": 0.2181818181818187,
                "tempo": 120.0
            },
            {
                "start_time": 115.3340909090909,
                "end_time": 115.55,
                "pitch": 55,
                "velocity": 32,
                "duration": 0.2159090909090935,
                "tempo": 120.0
            },
            {
                "start_time": 115.60227272727272,
                "end_time": 115.81818181818181,
                "pitch": 55,
                "velocity": 32,
                "duration": 0.2159090909090935,
                "tempo": 120.0
            },
            {
                "start_time": 116.13863636363635,
                "end_time": 116.35227272727272,
                "pitch": 54,
                "velocity": 32,
                "duration": 0.2136363636363683,
                "tempo": 120.0
            },
            {
                "start_time": 116.40454545454544,
                "end_time": 116.625,
                "pitch": 54,
                "velocity": 32,
                "duration": 0.22045454545455812,
                "tempo": 120.0
            },
            {
                "start_time": 75.71136363636363,
                "end_time": 116.89772727272727,
                "pitch": 53,
                "velocity": 32,
                "duration": 41.18636363636364,
                "tempo": 120.0
            },
            {
                "start_time": 116.67727272727272,
                "end_time": 116.89772727272727,
                "pitch": 53,
                "velocity": 32,
                "duration": 0.2204545454545439,
                "tempo": 120.0
            },
            {
                "start_time": 116.94999999999999,
                "end_time": 117.16590909090908,
                "pitch": 53,
                "velocity": 32,
                "duration": 0.2159090909090935,
                "tempo": 120.0
            },
            {
                "start_time": 117.21590909090908,
                "end_time": 117.4340909090909,
                "pitch": 53,
                "velocity": 32,
                "duration": 0.2181818181818187,
                "tempo": 120.0
            },
            {
                "start_time": 117.48409090909091,
                "end_time": 117.69999999999999,
                "pitch": 53,
                "velocity": 32,
                "duration": 0.21590909090907928,
                "tempo": 120.0
            },
            {
                "start_time": 117.75227272727273,
                "end_time": 117.96818181818182,
                "pitch": 53,
                "velocity": 32,
                "duration": 0.2159090909090935,
                "tempo": 120.0
            },
            {
                "start_time": 118.02045454545454,
                "end_time": 118.23863636363636,
                "pitch": 53,
                "velocity": 32,
                "duration": 0.2181818181818187,
                "tempo": 120.0
            },
            {
                "start_time": 118.29318181818181,
                "end_time": 118.51136363636363,
                "pitch": 53,
                "velocity": 32,
                "duration": 0.2181818181818187,
                "tempo": 120.0
            },
            {
                "start_time": 118.56590909090909,
                "end_time": 118.77954545454544,
                "pitch": 53,
                "velocity": 32,
                "duration": 0.21363636363635408,
                "tempo": 120.0
            },
            {
                "start_time": 118.83181818181818,
                "end_time": 119.04772727272727,
                "pitch": 53,
                "velocity": 32,
                "duration": 0.2159090909090935,
                "tempo": 120.0
            },
            {
                "start_time": 119.1,
                "end_time": 119.31818181818181,
                "pitch": 53,
                "velocity": 32,
                "duration": 0.2181818181818187,
                "tempo": 120.0
            },
            {
                "start_time": 119.37272727272726,
                "end_time": 119.59090909090908,
                "pitch": 53,
                "velocity": 32,
                "duration": 0.2181818181818187,
                "tempo": 120.0
            },
            {
                "start_time": 119.64545454545454,
                "end_time": 119.85909090909091,
                "pitch": 53,
                "velocity": 32,
                "duration": 0.2136363636363683,
                "tempo": 120.0
            },
            {
                "start_time": 119.91136363636363,
                "end_time": 120.12727272727273,
                "pitch": 53,
                "velocity": 32,
                "duration": 0.2159090909090935,
                "tempo": 120.0
            },
            {
                "start_time": 120.17954545454545,
                "end_time": 120.39772727272727,
                "pitch": 53,
                "velocity": 32,
                "duration": 0.2181818181818187,
                "tempo": 120.0
            },
            {
                "start_time": 120.45227272727273,
                "end_time": 120.67045454545453,
                "pitch": 53,
                "velocity": 32,
                "duration": 0.2181818181818045,
                "tempo": 120.0
            },
            {
                "start_time": 120.725,
                "end_time": 120.93863636363636,
                "pitch": 53,
                "velocity": 32,
                "duration": 0.2136363636363683,
                "tempo": 120.0
            },
            {
                "start_time": 120.99090909090908,
                "end_time": 121.20681818181818,
                "pitch": 52,
                "velocity": 32,
                "duration": 0.2159090909090935,
                "tempo": 120.0
            },
            {
                "start_time": 121.2590909090909,
                "end_time": 121.475,
                "pitch": 52,
                "velocity": 32,
                "duration": 0.2159090909090935,
                "tempo": 120.0
            },
            {
                "start_time": 121.52727272727272,
                "end_time": 121.74318181818181,
                "pitch": 52,
                "velocity": 32,
                "duration": 0.2159090909090935,
                "tempo": 120.0
            },
            {
                "start_time": 121.79318181818181,
                "end_time": 122.01363636363635,
                "pitch": 52,
                "velocity": 32,
                "duration": 0.2204545454545439,
                "tempo": 120.0
            },
            {
                "start_time": 122.06590909090909,
                "end_time": 122.28636363636363,
                "pitch": 52,
                "velocity": 32,
                "duration": 0.2204545454545439,
                "tempo": 120.0
            },
            {
                "start_time": 122.33863636363635,
                "end_time": 122.55454545454545,
                "pitch": 52,
                "velocity": 32,
                "duration": 0.2159090909090935,
                "tempo": 120.0
            },
            {
                "start_time": 122.60909090909091,
                "end_time": 122.82272727272726,
                "pitch": 52,
                "velocity": 32,
                "duration": 0.21363636363635408,
                "tempo": 120.0
            },
            {
                "start_time": 122.875,
                "end_time": 123.09318181818182,
                "pitch": 52,
                "velocity": 32,
                "duration": 0.2181818181818187,
                "tempo": 120.0
            },
            {
                "start_time": 123.14545454545454,
                "end_time": 123.36590909090908,
                "pitch": 52,
                "velocity": 32,
                "duration": 0.2204545454545439,
                "tempo": 120.0
            },
            {
                "start_time": 123.41818181818181,
                "end_time": 123.6340909090909,
                "pitch": 52,
                "velocity": 32,
                "duration": 0.2159090909090935,
                "tempo": 120.0
            },
            {
                "start_time": 123.68636363636364,
                "end_time": 123.90227272727272,
                "pitch": 52,
                "velocity": 32,
                "duration": 0.21590909090907928,
                "tempo": 120.0
            },
            {
                "start_time": 123.95454545454545,
                "end_time": 124.17045454545453,
                "pitch": 52,
                "velocity": 32,
                "duration": 0.21590909090907928,
                "tempo": 120.0
            },
            {
                "start_time": 124.22045454545454,
                "end_time": 124.43636363636364,
                "pitch": 52,
                "velocity": 32,
                "duration": 0.2159090909090935,
                "tempo": 120.0
            },
            {
                "start_time": 124.48863636363636,
                "end_time": 124.7090909090909,
                "pitch": 52,
                "velocity": 32,
                "duration": 0.2204545454545439,
                "tempo": 120.0
            },
            {
                "start_time": 124.76136363636363,
                "end_time": 124.98181818181817,
                "pitch": 50,
                "velocity": 32,
                "duration": 0.2204545454545439,
                "tempo": 120.0
            },
            {
                "start_time": 125.0340909090909,
                "end_time": 125.25,
                "pitch": 48,
                "velocity": 32,
                "duration": 0.2159090909090935,
                "tempo": 120.0
            },
            {
                "start_time": 125.30227272727272,
                "end_time": 125.51590909090909,
                "pitch": 48,
                "velocity": 32,
                "duration": 0.2136363636363683,
                "tempo": 120.0
            },
            {
                "start_time": 125.56818181818181,
                "end_time": 125.78863636363636,
                "pitch": 48,
                "velocity": 32,
                "duration": 0.2204545454545439,
                "tempo": 120.0
            },
            {
                "start_time": 125.84090909090908,
                "end_time": 126.06136363636362,
                "pitch": 48,
                "velocity": 32,
                "duration": 0.2204545454545439,
                "tempo": 120.0
            },
            {
                "start_time": 126.11363636363636,
                "end_time": 126.32954545454545,
                "pitch": 48,
                "velocity": 32,
                "duration": 0.2159090909090935,
                "tempo": 120.0
            },
            {
                "start_time": 126.37954545454545,
                "end_time": 126.59772727272727,
                "pitch": 48,
                "velocity": 32,
                "duration": 0.2181818181818187,
                "tempo": 120.0
            },
            {
                "start_time": 126.64772727272727,
                "end_time": 126.86818181818181,
                "pitch": 48,
                "velocity": 32,
                "duration": 0.2204545454545439,
                "tempo": 120.0
            },
            {
                "start_time": 126.92272727272727,
                "end_time": 127.14090909090909,
                "pitch": 48,
                "velocity": 32,
                "duration": 0.2181818181818187,
                "tempo": 120.0
            },
            {
                "start_time": 125.0340909090909,
                "end_time": 127.4090909090909,
                "pitch": 50,
                "velocity": 32,
                "duration": 2.375,
                "tempo": 120.0
            },
            {
                "start_time": 127.19318181818181,
                "end_time": 127.4090909090909,
                "pitch": 50,
                "velocity": 32,
                "duration": 0.2159090909090935,
                "tempo": 120.0
            },
            {
                "start_time": 127.46136363636363,
                "end_time": 127.67727272727272,
                "pitch": 50,
                "velocity": 32,
                "duration": 0.2159090909090935,
                "tempo": 120.0
            },
            {
                "start_time": 127.72954545454544,
                "end_time": 127.94318181818181,
                "pitch": 50,
                "velocity": 32,
                "duration": 0.2136363636363683,
                "tempo": 120.0
            },
            {
                "start_time": 127.99545454545454,
                "end_time": 128.21136363636364,
                "pitch": 50,
                "velocity": 32,
                "duration": 0.2159090909091077,
                "tempo": 120.0
            },
            {
                "start_time": 128.26363636363635,
                "end_time": 128.48181818181817,
                "pitch": 50,
                "velocity": 32,
                "duration": 0.2181818181818187,
                "tempo": 120.0
            },
            {
                "start_time": 128.53636363636363,
                "end_time": 128.75454545454545,
                "pitch": 50,
                "velocity": 32,
                "duration": 0.2181818181818187,
                "tempo": 120.0
            },
            {
                "start_time": 128.8090909090909,
                "end_time": 129.025,
                "pitch": 50,
                "velocity": 32,
                "duration": 0.2159090909090935,
                "tempo": 120.0
            },
            {
                "start_time": 129.0772727272727,
                "end_time": 129.29090909090908,
                "pitch": 50,
                "velocity": 32,
                "duration": 0.2136363636363683,
                "tempo": 120.0
            },
            {
                "start_time": 129.34318181818182,
                "end_time": 129.4272727272727,
                "pitch": 50,
                "velocity": 32,
                "duration": 0.08409090909088945,
                "tempo": 120.0
            },
            {
                "start_time": 129.47727272727272,
                "end_time": 129.56363636363636,
                "pitch": 52,
                "velocity": 32,
                "duration": 0.08636363636364308,
                "tempo": 120.0
            },
            {
                "start_time": 129.61590909090907,
                "end_time": 129.69772727272726,
                "pitch": 52,
                "velocity": 32,
                "duration": 0.08181818181819267,
                "tempo": 120.0
            },
            {
                "start_time": 129.75,
                "end_time": 129.8340909090909,
                "pitch": 50,
                "velocity": 32,
                "duration": 0.08409090909088945,
                "tempo": 120.0
            },
            {
                "start_time": 71.93181818181817,
                "end_time": 130.15454545454546,
                "pitch": 66,
                "velocity": 32,
                "duration": 58.22272727272728,
                "tempo": 120.0
            },
            {
                "start_time": 130.15454545454546,
                "end_time": 130.37045454545455,
                "pitch": 55,
                "velocity": 32,
                "duration": 0.2159090909090935,
                "tempo": 120.0
            },
            {
                "start_time": 130.42272727272726,
                "end_time": 130.63863636363635,
                "pitch": 55,
                "velocity": 32,
                "duration": 0.2159090909090935,
                "tempo": 120.0
            },
            {
                "start_time": 130.68863636363636,
                "end_time": 130.77272727272728,
                "pitch": 69,
                "velocity": 32,
                "duration": 0.08409090909091788,
                "tempo": 120.0
            },
            {
                "start_time": 130.82272727272726,
                "end_time": 131.04090909090908,
                "pitch": 57,
                "velocity": 32,
                "duration": 0.2181818181818187,
                "tempo": 120.0
            },
            {
                "start_time": 131.0909090909091,
                "end_time": 131.17272727272726,
                "pitch": 55,
                "velocity": 32,
                "duration": 0.08181818181816425,
                "tempo": 120.0
            },
            {
                "start_time": 112.09545454545454,
                "end_time": 131.3068181818182,
                "pitch": 67,
                "velocity": 32,
                "duration": 19.211363636363643,
                "tempo": 120.0
            },
            {
                "start_time": 131.225,
                "end_time": 131.3068181818182,
                "pitch": 67,
                "velocity": 32,
                "duration": 0.08181818181819267,
                "tempo": 120.0
            },
            {
                "start_time": 131.3590909090909,
                "end_time": 131.4409090909091,
                "pitch": 57,
                "velocity": 32,
                "duration": 0.08181818181819267,
                "tempo": 120.0
            },
            {
                "start_time": 75.98409090909091,
                "end_time": 131.49545454545455,
                "pitch": 19,
                "velocity": 32,
                "duration": 55.51136363636364,
                "tempo": 120.0
            },
            {
                "start_time": 131.49545454545455,
                "end_time": 131.5772727272727,
                "pitch": 52,
                "velocity": 32,
                "duration": 0.08181818181816425,
                "tempo": 120.0
            },
            {
                "start_time": 131.62727272727273,
                "end_time": 131.71363636363637,
                "pitch": 52,
                "velocity": 32,
                "duration": 0.08636363636364308,
                "tempo": 120.0
            },
            {
                "start_time": 131.76363636363635,
                "end_time": 131.85,
                "pitch": 52,
                "velocity": 32,
                "duration": 0.08636363636364308,
                "tempo": 120.0
            },
            {
                "start_time": 131.9,
                "end_time": 131.9840909090909,
                "pitch": 50,
                "velocity": 32,
                "duration": 0.08409090909088945,
                "tempo": 120.0
            },
            {
                "start_time": 130.15454545454546,
                "end_time": 132.30454545454546,
                "pitch": 66,
                "velocity": 32,
                "duration": 2.1500000000000057,
                "tempo": 120.0
            },
            {
                "start_time": 132.30454545454546,
                "end_time": 132.52045454545453,
                "pitch": 55,
                "velocity": 32,
                "duration": 0.21590909090906507,
                "tempo": 120.0
            },
            {
                "start_time": 132.57272727272726,
                "end_time": 132.78863636363636,
                "pitch": 55,
                "velocity": 32,
                "duration": 0.2159090909090935,
                "tempo": 120.0
            },
            {
                "start_time": 132.83863636363637,
                "end_time": 132.92272727272726,
                "pitch": 69,
                "velocity": 32,
                "duration": 0.08409090909088945,
                "tempo": 120.0
            },
            {
                "start_time": 132.975,
                "end_time": 133.1909090909091,
                "pitch": 57,
                "velocity": 32,
                "duration": 0.2159090909090935,
                "tempo": 120.0
            },
            {
                "start_time": 133.24318181818182,
                "end_time": 133.3272727272727,
                "pitch": 55,
                "velocity": 32,
                "duration": 0.08409090909088945,
                "tempo": 120.0
            },
            {
                "start_time": 133.37954545454545,
                "end_time": 133.46363636363637,
                "pitch": 67,
                "velocity": 32,
                "duration": 0.08409090909091788,
                "tempo": 120.0
            },
            {
                "start_time": 133.51590909090908,
                "end_time": 133.6,
                "pitch": 57,
                "velocity": 32,
                "duration": 0.08409090909091788,
                "tempo": 120.0
            },
            {
                "start_time": 131.49545454545455,
                "end_time": 133.65227272727273,
                "pitch": 19,
                "velocity": 32,
                "duration": 2.1568181818181813,
                "tempo": 120.0
            },
            {
                "start_time": 133.65227272727273,
                "end_time": 133.73636363636362,
                "pitch": 52,
                "velocity": 32,
                "duration": 0.08409090909088945,
                "tempo": 120.0
            },
            {
                "start_time": 133.78863636363636,
                "end_time": 133.87272727272727,
                "pitch": 52,
                "velocity": 32,
                "duration": 0.08409090909091788,
                "tempo": 120.0
            },
            {
                "start_time": 133.92499999999998,
                "end_time": 134.0090909090909,
                "pitch": 52,
                "velocity": 32,
                "duration": 0.08409090909091788,
                "tempo": 120.0
            },
            {
                "start_time": 134.06136363636364,
                "end_time": 134.14545454545453,
                "pitch": 50,
                "velocity": 32,
                "duration": 0.08409090909088945,
                "tempo": 120.0
            },
            {
                "start_time": 132.30454545454546,
                "end_time": 134.46363636363637,
                "pitch": 66,
                "velocity": 32,
                "duration": 2.1590909090909065,
                "tempo": 120.0
            },
            {
                "start_time": 134.46363636363637,
                "end_time": 134.6818181818182,
                "pitch": 55,
                "velocity": 32,
                "duration": 0.2181818181818187,
                "tempo": 120.0
            },
            {
                "start_time": 134.73181818181817,
                "end_time": 134.94772727272726,
                "pitch": 55,
                "velocity": 32,
                "duration": 0.2159090909090935,
                "tempo": 120.0
            },
            {
                "start_time": 135.0,
                "end_time": 135.08181818181816,
                "pitch": 69,
                "velocity": 32,
                "duration": 0.08181818181816425,
                "tempo": 120.0
            },
            {
                "start_time": 135.1340909090909,
                "end_time": 135.35,
                "pitch": 57,
                "velocity": 32,
                "duration": 0.2159090909090935,
                "tempo": 120.0
            },
            {
                "start_time": 135.4,
                "end_time": 135.4840909090909,
                "pitch": 55,
                "velocity": 32,
                "duration": 0.08409090909088945,
                "tempo": 120.0
            },
            {
                "start_time": 135.5340909090909,
                "end_time": 135.61818181818182,
                "pitch": 67,
                "velocity": 32,
                "duration": 0.08409090909091788,
                "tempo": 120.0
            },
            {
                "start_time": 135.6681818181818,
                "end_time": 135.75,
                "pitch": 57,
                "velocity": 32,
                "duration": 0.08181818181819267,
                "tempo": 120.0
            },
            {
                "start_time": 133.65227272727273,
                "end_time": 135.8022727272727,
                "pitch": 19,
                "velocity": 32,
                "duration": 2.1499999999999773,
                "tempo": 120.0
            },
            {
                "start_time": 135.8022727272727,
                "end_time": 135.88636363636363,
                "pitch": 52,
                "velocity": 32,
                "duration": 0.08409090909091788,
                "tempo": 120.0
            },
            {
                "start_time": 135.93863636363636,
                "end_time": 136.02272727272725,
                "pitch": 52,
                "velocity": 32,
                "duration": 0.08409090909088945,
                "tempo": 120.0
            },
            {
                "start_time": 136.075,
                "end_time": 136.1590909090909,
                "pitch": 52,
                "velocity": 32,
                "duration": 0.08409090909091788,
                "tempo": 120.0
            },
            {
                "start_time": 136.21136363636364,
                "end_time": 136.29545454545453,
                "pitch": 50,
                "velocity": 32,
                "duration": 0.08409090909088945,
                "tempo": 120.0
            },
            {
                "start_time": 134.46363636363637,
                "end_time": 136.61363636363635,
                "pitch": 66,
                "velocity": 32,
                "duration": 2.1499999999999773,
                "tempo": 120.0
            },
            {
                "start_time": 136.61363636363635,
                "end_time": 136.83181818181816,
                "pitch": 55,
                "velocity": 32,
                "duration": 0.2181818181818187,
                "tempo": 120.0
            },
            {
                "start_time": 136.8840909090909,
                "end_time": 137.1,
                "pitch": 55,
                "velocity": 32,
                "duration": 0.2159090909090935,
                "tempo": 120.0
            },
            {
                "start_time": 137.15,
                "end_time": 137.23181818181817,
                "pitch": 69,
                "velocity": 32,
                "duration": 0.08181818181816425,
                "tempo": 120.0
            },
            {
                "start_time": 137.2840909090909,
                "end_time": 137.50227272727273,
                "pitch": 57,
                "velocity": 32,
                "duration": 0.2181818181818187,
                "tempo": 120.0
            },
            {
                "start_time": 137.5522727272727,
                "end_time": 137.63636363636363,
                "pitch": 55,
                "velocity": 32,
                "duration": 0.08409090909091788,
                "tempo": 120.0
            },
            {
                "start_time": 137.68863636363636,
                "end_time": 137.77272727272725,
                "pitch": 67,
                "velocity": 32,
                "duration": 0.08409090909088945,
                "tempo": 120.0
            },
            {
                "start_time": 137.825,
                "end_time": 137.91136363636363,
                "pitch": 57,
                "velocity": 32,
                "duration": 0.08636363636364308,
                "tempo": 120.0
            },
            {
                "start_time": 135.8022727272727,
                "end_time": 137.9659090909091,
                "pitch": 19,
                "velocity": 32,
                "duration": 2.1636363636363853,
                "tempo": 120.0
            },
            {
                "start_time": 137.9659090909091,
                "end_time": 138.0431818181818,
                "pitch": 52,
                "velocity": 32,
                "duration": 0.07727272727271384,
                "tempo": 120.0
            },
            {
                "start_time": 138.09545454545454,
                "end_time": 138.1772727272727,
                "pitch": 52,
                "velocity": 32,
                "duration": 0.08181818181816425,
                "tempo": 120.0
            }
        ]
    }
}