{
    "track_id": "14 Staff Roll (Short)",
    "mood": "happy",
    "instruments": {
        "Electric Guitar (clean)": [
            {
                "start_time": 0.04772727272727272,
                "end_time": 0.2409090909090909,
                "pitch": 31,
                "velocity": 101,
                "duration": 0.19318181818181818,
                "tempo": 120.0
            },
            {
                "start_time": 0.2863636363636364,
                "end_time": 0.36136363636363633,
                "pitch": 31,
                "velocity": 101,
                "duration": 0.07499999999999996,
                "tempo": 120.0
            },
            {
                "start_time": 0.4068181818181818,
                "end_time": 0.6022727272727273,
                "pitch": 31,
                "velocity": 101,
                "duration": 0.1954545454545455,
                "tempo": 120.0
            },
            {
                "start_time": 0.6477272727272727,
                "end_time": 0.7204545454545455,
                "pitch": 31,
                "velocity": 101,
                "duration": 0.07272727272727275,
                "tempo": 120.0
            },
            {
                "start_time": 0.7659090909090909,
                "end_time": 0.9613636363636363,
                "pitch": 31,
                "velocity": 101,
                "duration": 0.19545454545454544,
                "tempo": 120.0
            },
            {
                "start_time": 1.0068181818181818,
                "end_time": 1.0818181818181818,
                "pitch": 31,
                "velocity": 101,
                "duration": 0.07499999999999996,
                "tempo": 120.0
            },
            {
                "start_time": 1.1272727272727272,
                "end_time": 1.3204545454545453,
                "pitch": 31,
                "velocity": 101,
                "duration": 0.19318181818181812,
                "tempo": 120.0
            },
            {
                "start_time": 1.3659090909090907,
                "end_time": 1.440909090909091,
                "pitch": 31,
                "velocity": 101,
                "duration": 0.07500000000000018,
                "tempo": 120.0
            },
            {
                "start_time": 1.4863636363636363,
                "end_time": 1.6818181818181817,
                "pitch": 31,
                "velocity": 101,
                "duration": 0.19545454545454533,
                "tempo": 120.0
            },
            {
                "start_time": 1.7272727272727273,
                "end_time": 1.8022727272727272,
                "pitch": 31,
                "velocity": 101,
                "duration": 0.07499999999999996,
                "tempo": 120.0
            },
            {
                "start_time": 1.8477272727272727,
                "end_time": 2.040909090909091,
                "pitch": 31,
                "velocity": 101,
                "duration": 0.19318181818181834,
                "tempo": 120.0
            },
            {
                "start_time": 2.0863636363636364,
                "end_time": 2.161363636363636,
                "pitch": 31,
                "velocity": 101,
                "duration": 0.07499999999999973,
                "tempo": 120.0
            },
            {
                "start_time": 2.2068181818181816,
                "end_time": 2.4022727272727273,
                "pitch": 31,
                "velocity": 101,
                "duration": 0.19545454545454577,
                "tempo": 120.0
            },
            {
                "start_time": 2.4454545454545453,
                "end_time": 2.5204545454545455,
                "pitch": 31,
                "velocity": 101,
                "duration": 0.07500000000000018,
                "tempo": 120.0
            },
            {
                "start_time": 2.565909090909091,
                "end_time": 2.7613636363636362,
                "pitch": 31,
                "velocity": 101,
                "duration": 0.19545454545454533,
                "tempo": 120.0
            },
            {
                "start_time": 2.8068181818181817,
                "end_time": 2.881818181818182,
                "pitch": 31,
                "velocity": 101,
                "duration": 0.07500000000000018,
                "tempo": 120.0
            },
            {
                "start_time": 2.9272727272727272,
                "end_time": 3.120454545454545,
                "pitch": 31,
                "velocity": 101,
                "duration": 0.1931818181818179,
                "tempo": 120.0
            },
            {
                "start_time": 3.1659090909090906,
                "end_time": 3.2409090909090907,
                "pitch": 31,
                "velocity": 101,
                "duration": 0.07500000000000018,
                "tempo": 120.0
            },
            {
                "start_time": 3.286363636363636,
                "end_time": 3.4749999999999996,
                "pitch": 31,
                "velocity": 101,
                "duration": 0.1886363636363635,
                "tempo": 120.0
            },
            {
                "start_time": 3.518181818181818,
                "end_time": 3.590909090909091,
                "pitch": 31,
                "velocity": 101,
                "duration": 0.07272727272727275,
                "tempo": 120.0
            },
            {
                "start_time": 3.6363636363636362,
                "end_time": 3.829545454545454,
                "pitch": 31,
                "velocity": 101,
                "duration": 0.1931818181818179,
                "tempo": 120.0
            },
            {
                "start_time": 3.875,
                "end_time": 3.9499999999999997,
                "pitch": 31,
                "velocity": 101,
                "duration": 0.07499999999999973,
                "tempo": 120.0
            },
            {
                "start_time": 3.995454545454545,
                "end_time": 4.1909090909090905,
                "pitch": 31,
                "velocity": 101,
                "duration": 0.19545454545454533,
                "tempo": 120.0
            },
            {
                "start_time": 4.236363636363636,
                "end_time": 4.3113636363636365,
                "pitch": 31,
                "velocity": 101,
                "duration": 0.07500000000000018,
                "tempo": 120.0
            },
            {
                "start_time": 4.3568181818181815,
                "end_time": 4.55,
                "pitch": 31,
                "velocity": 101,
                "duration": 0.19318181818181834,
                "tempo": 120.0
            },
            {
                "start_time": 4.595454545454545,
                "end_time": 4.670454545454545,
                "pitch": 31,
                "velocity": 101,
                "duration": 0.07500000000000018,
                "tempo": 120.0
            },
            {
                "start_time": 4.715909090909091,
                "end_time": 4.909090909090909,
                "pitch": 31,
                "velocity": 101,
                "duration": 0.19318181818181834,
                "tempo": 120.0
            },
            {
                "start_time": 4.954545454545454,
                "end_time": 5.029545454545454,
                "pitch": 31,
                "velocity": 101,
                "duration": 0.07500000000000018,
                "tempo": 120.0
            },
            {
                "start_time": 5.075,
                "end_time": 5.2704545454545455,
                "pitch": 31,
                "velocity": 101,
                "duration": 0.19545454545454533,
                "tempo": 120.0
            },
            {
                "start_time": 5.3159090909090905,
                "end_time": 5.390909090909091,
                "pitch": 31,
                "velocity": 101,
                "duration": 0.07500000000000018,
                "tempo": 120.0
            },
            {
                "start_time": 5.4363636363636365,
                "end_time": 5.625,
                "pitch": 31,
                "velocity": 101,
                "duration": 0.1886363636363635,
                "tempo": 120.0
            },
            {
                "start_time": 5.668181818181818,
                "end_time": 5.74090909090909,
                "pitch": 31,
                "velocity": 101,
                "duration": 0.07272727272727231,
                "tempo": 120.0
            },
            {
                "start_time": 5.784090909090909,
                "end_time": 5.9840909090909085,
                "pitch": 31,
                "velocity": 101,
                "duration": 0.1999999999999993,
                "tempo": 120.0
            },
            {
                "start_time": 6.029545454545454,
                "end_time": 6.1068181818181815,
                "pitch": 31,
                "velocity": 101,
                "duration": 0.07727272727272716,
                "tempo": 120.0
            },
            {
                "start_time": 6.152272727272727,
                "end_time": 6.343181818181818,
                "pitch": 31,
                "velocity": 101,
                "duration": 0.19090909090909047,
                "tempo": 120.0
            },
            {
                "start_time": 6.386363636363636,
                "end_time": 6.459090909090909,
                "pitch": 31,
                "velocity": 101,
                "duration": 0.0727272727272732,
                "tempo": 120.0
            },
            {
                "start_time": 6.502272727272727,
                "end_time": 6.697727272727272,
                "pitch": 31,
                "velocity": 101,
                "duration": 0.19545454545454533,
                "tempo": 120.0
            },
            {
                "start_time": 6.743181818181818,
                "end_time": 6.8181818181818175,
                "pitch": 31,
                "velocity": 101,
                "duration": 0.07499999999999929,
                "tempo": 120.0
            },
            {
                "start_time": 6.863636363636363,
                "end_time": 7.056818181818182,
                "pitch": 31,
                "velocity": 101,
                "duration": 0.19318181818181834,
                "tempo": 120.0
            },
            {
                "start_time": 7.102272727272727,
                "end_time": 7.177272727272727,
                "pitch": 31,
                "velocity": 101,
                "duration": 0.07500000000000018,
                "tempo": 120.0
            },
            {
                "start_time": 7.222727272727273,
                "end_time": 7.41590909090909,
                "pitch": 31,
                "velocity": 101,
                "duration": 0.19318181818181746,
                "tempo": 120.0
            },
            {
                "start_time": 7.461363636363636,
                "end_time": 7.536363636363636,
                "pitch": 31,
                "velocity": 101,
                "duration": 0.07500000000000018,
                "tempo": 120.0
            },
            {
                "start_time": 7.581818181818181,
                "end_time": 7.7704545454545455,
                "pitch": 31,
                "velocity": 101,
                "duration": 0.18863636363636438,
                "tempo": 120.0
            },
            {
                "start_time": 7.8159090909090905,
                "end_time": 7.888636363636364,
                "pitch": 31,
                "velocity": 101,
                "duration": 0.0727272727272732,
                "tempo": 120.0
            },
            {
                "start_time": 7.931818181818182,
                "end_time": 8.127272727272727,
                "pitch": 31,
                "velocity": 101,
                "duration": 0.19545454545454533,
                "tempo": 120.0
            },
            {
                "start_time": 8.170454545454545,
                "end_time": 8.245454545454544,
                "pitch": 31,
                "velocity": 101,
                "duration": 0.07499999999999929,
                "tempo": 120.0
            },
            {
                "start_time": 8.290909090909091,
                "end_time": 8.486363636363636,
                "pitch": 31,
                "velocity": 101,
                "duration": 0.19545454545454533,
                "tempo": 120.0
            },
            {
                "start_time": 8.531818181818181,
                "end_time": 8.60681818181818,
                "pitch": 31,
                "velocity": 101,
                "duration": 0.07499999999999929,
                "tempo": 120.0
            },
            {
                "start_time": 8.652272727272727,
                "end_time": 8.845454545454546,
                "pitch": 31,
                "velocity": 101,
                "duration": 0.19318181818181834,
                "tempo": 120.0
            },
            {
                "start_time": 8.89090909090909,
                "end_time": 8.96590909090909,
                "pitch": 31,
                "velocity": 101,
                "duration": 0.07499999999999929,
                "tempo": 120.0
            },
            {
                "start_time": 9.011363636363637,
                "end_time": 9.206818181818182,
                "pitch": 31,
                "velocity": 101,
                "duration": 0.19545454545454533,
                "tempo": 120.0
            },
            {
                "start_time": 9.252272727272727,
                "end_time": 9.325,
                "pitch": 31,
                "velocity": 101,
                "duration": 0.07272727272727231,
                "tempo": 120.0
            },
            {
                "start_time": 9.372727272727273,
                "end_time": 9.56590909090909,
                "pitch": 31,
                "velocity": 101,
                "duration": 0.19318181818181657,
                "tempo": 120.0
            },
            {
                "start_time": 9.611363636363636,
                "end_time": 9.686363636363636,
                "pitch": 31,
                "velocity": 101,
                "duration": 0.07499999999999929,
                "tempo": 120.0
            },
            {
                "start_time": 9.73181818181818,
                "end_time": 9.924999999999999,
                "pitch": 31,
                "velocity": 101,
                "duration": 0.19318181818181834,
                "tempo": 120.0
            },
            {
                "start_time": 9.970454545454546,
                "end_time": 10.045454545454545,
                "pitch": 31,
                "velocity": 101,
                "duration": 0.07499999999999929,
                "tempo": 120.0
            },
            {
                "start_time": 10.09090909090909,
                "end_time": 10.165909090909091,
                "pitch": 31,
                "velocity": 101,
                "duration": 0.07500000000000107,
                "tempo": 120.0
            },
            {
                "start_time": 10.211363636363636,
                "end_time": 10.286363636363635,
                "pitch": 43,
                "velocity": 101,
                "duration": 0.07499999999999929,
                "tempo": 120.0
            },
            {
                "start_time": 10.331818181818182,
                "end_time": 10.406818181818181,
                "pitch": 43,
                "velocity": 101,
                "duration": 0.07499999999999929,
                "tempo": 120.0
            },
            {
                "start_time": 10.45,
                "end_time": 10.522727272727272,
                "pitch": 43,
                "velocity": 101,
                "duration": 0.07272727272727231,
                "tempo": 120.0
            },
            {
                "start_time": 10.568181818181818,
                "end_time": 10.64090909090909,
                "pitch": 43,
                "velocity": 101,
                "duration": 0.07272727272727231,
                "tempo": 120.0
            },
            {
                "start_time": 10.684090909090909,
                "end_time": 10.756818181818181,
                "pitch": 43,
                "velocity": 101,
                "duration": 0.07272727272727231,
                "tempo": 120.0
            },
            {
                "start_time": 10.799999999999999,
                "end_time": 10.875,
                "pitch": 43,
                "velocity": 101,
                "duration": 0.07500000000000107,
                "tempo": 120.0
            },
            {
                "start_time": 10.920454545454545,
                "end_time": 10.995454545454544,
                "pitch": 43,
                "velocity": 101,
                "duration": 0.07499999999999929,
                "tempo": 120.0
            },
            {
                "start_time": 11.040909090909091,
                "end_time": 11.11590909090909,
                "pitch": 43,
                "velocity": 101,
                "duration": 0.07499999999999929,
                "tempo": 120.0
            },
            {
                "start_time": 11.161363636363635,
                "end_time": 11.23409090909091,
                "pitch": 43,
                "velocity": 101,
                "duration": 0.07272727272727408,
                "tempo": 120.0
            },
            {
                "start_time": 11.279545454545454,
                "end_time": 11.354545454545454,
                "pitch": 43,
                "velocity": 101,
                "duration": 0.07499999999999929,
                "tempo": 120.0
            },
            {
                "start_time": 11.399999999999999,
                "end_time": 11.475,
                "pitch": 43,
                "velocity": 101,
                "duration": 0.07500000000000107,
                "tempo": 120.0
            },
            {
                "start_time": 11.520454545454545,
                "end_time": 11.71590909090909,
                "pitch": 43,
                "velocity": 127,
                "duration": 0.19545454545454533,
                "tempo": 120.0
            },
            {
                "start_time": 11.761363636363635,
                "end_time": 11.834090909090909,
                "pitch": 43,
                "velocity": 127,
                "duration": 0.07272727272727408,
                "tempo": 120.0
            },
            {
                "start_time": 11.879545454545454,
                "end_time": 11.954545454545453,
                "pitch": 43,
                "velocity": 127,
                "duration": 0.07499999999999929,
                "tempo": 120.0
            },
            {
                "start_time": 12.0,
                "end_time": 12.075,
                "pitch": 43,
                "velocity": 127,
                "duration": 0.07499999999999929,
                "tempo": 120.0
            },
            {
                "start_time": 12.120454545454544,
                "end_time": 12.195454545454545,
                "pitch": 43,
                "velocity": 127,
                "duration": 0.07500000000000107,
                "tempo": 120.0
            },
            {
                "start_time": 12.24090909090909,
                "end_time": 12.434090909090909,
                "pitch": 43,
                "velocity": 127,
                "duration": 0.19318181818181834,
                "tempo": 120.0
            },
            {
                "start_time": 12.479545454545454,
                "end_time": 12.554545454545455,
                "pitch": 43,
                "velocity": 127,
                "duration": 0.07500000000000107,
                "tempo": 120.0
            },
            {
                "start_time": 12.6,
                "end_time": 12.674999999999999,
                "pitch": 43,
                "velocity": 127,
                "duration": 0.07499999999999929,
                "tempo": 120.0
            },
            {
                "start_time": 12.720454545454546,
                "end_time": 12.795454545454545,
                "pitch": 43,
                "velocity": 127,
                "duration": 0.07499999999999929,
                "tempo": 120.0
            },
            {
                "start_time": 12.84090909090909,
                "end_time": 12.915909090909091,
                "pitch": 43,
                "velocity": 127,
                "duration": 0.07500000000000107,
                "tempo": 120.0
            },
            {
                "start_time": 12.961363636363636,
                "end_time": 13.154545454545454,
                "pitch": 43,
                "velocity": 127,
                "duration": 0.19318181818181834,
                "tempo": 120.0
            },
            {
                "start_time": 13.2,
                "end_time": 13.274999999999999,
                "pitch": 43,
                "velocity": 127,
                "duration": 0.07499999999999929,
                "tempo": 120.0
            },
            {
                "start_time": 13.320454545454545,
                "end_time": 13.393181818181818,
                "pitch": 43,
                "velocity": 127,
                "duration": 0.07272727272727231,
                "tempo": 120.0
            },
            {
                "start_time": 13.436363636363636,
                "end_time": 13.509090909090908,
                "pitch": 43,
                "velocity": 127,
                "duration": 0.07272727272727231,
                "tempo": 120.0
            },
            {
                "start_time": 13.552272727272726,
                "end_time": 13.625,
                "pitch": 43,
                "velocity": 127,
                "duration": 0.07272727272727408,
                "tempo": 120.0
            },
            {
                "start_time": 13.670454545454545,
                "end_time": 13.863636363636363,
                "pitch": 43,
                "velocity": 127,
                "duration": 0.19318181818181834,
                "tempo": 120.0
            },
            {
                "start_time": 13.909090909090908,
                "end_time": 13.984090909090908,
                "pitch": 43,
                "velocity": 127,
                "duration": 0.07499999999999929,
                "tempo": 120.0
            },
            {
                "start_time": 14.029545454545454,
                "end_time": 14.104545454545454,
                "pitch": 43,
                "velocity": 127,
                "duration": 0.07499999999999929,
                "tempo": 120.0
            },
            {
                "start_time": 14.149999999999999,
                "end_time": 14.225,
                "pitch": 43,
                "velocity": 127,
                "duration": 0.07500000000000107,
                "tempo": 120.0
            },
            {
                "start_time": 14.268181818181818,
                "end_time": 14.343181818181817,
                "pitch": 43,
                "velocity": 127,
                "duration": 0.07499999999999929,
                "tempo": 120.0
            },
            {
                "start_time": 14.388636363636364,
                "end_time": 14.584090909090909,
                "pitch": 43,
                "velocity": 127,
                "duration": 0.19545454545454533,
                "tempo": 120.0
            },
            {
                "start_time": 14.629545454545454,
                "end_time": 14.704545454545453,
                "pitch": 43,
                "velocity": 127,
                "duration": 0.07499999999999929,
                "tempo": 120.0
            },
            {
                "start_time": 14.75,
                "end_time": 14.825,
                "pitch": 43,
                "velocity": 127,
                "duration": 0.07499999999999929,
                "tempo": 120.0
            },
            {
                "start_time": 14.868181818181817,
                "end_time": 14.943181818181818,
                "pitch": 43,
                "velocity": 127,
                "duration": 0.07500000000000107,
                "tempo": 120.0
            },
            {
                "start_time": 14.988636363636363,
                "end_time": 15.063636363636363,
                "pitch": 43,
                "velocity": 127,
                "duration": 0.07499999999999929,
                "tempo": 120.0
            },
            {
                "start_time": 15.109090909090908,
                "end_time": 15.297727272727272,
                "pitch": 43,
                "velocity": 127,
                "duration": 0.18863636363636438,
                "tempo": 120.0
            },
            {
                "start_time": 15.34090909090909,
                "end_time": 15.413636363636362,
                "pitch": 43,
                "velocity": 127,
                "duration": 0.07272727272727231,
                "tempo": 120.0
            },
            {
                "start_time": 15.459090909090909,
                "end_time": 15.534090909090908,
                "pitch": 43,
                "velocity": 127,
                "duration": 0.07499999999999929,
                "tempo": 120.0
            },
            {
                "start_time": 15.579545454545453,
                "end_time": 15.652272727272727,
                "pitch": 43,
                "velocity": 127,
                "duration": 0.07272727272727408,
                "tempo": 120.0
            },
            {
                "start_time": 15.697727272727272,
                "end_time": 15.772727272727272,
                "pitch": 43,
                "velocity": 127,
                "duration": 0.07499999999999929,
                "tempo": 120.0
            },
            {
                "start_time": 15.818181818181817,
                "end_time": 16.013636363636362,
                "pitch": 43,
                "velocity": 127,
                "duration": 0.19545454545454533,
                "tempo": 120.0
            },
            {
                "start_time": 16.05909090909091,
                "end_time": 16.134090909090908,
                "pitch": 43,
                "velocity": 127,
                "duration": 0.07499999999999929,
                "tempo": 120.0
            },
            {
                "start_time": 16.177272727272726,
                "end_time": 16.252272727272725,
                "pitch": 43,
                "velocity": 127,
                "duration": 0.07499999999999929,
                "tempo": 120.0
            },
            {
                "start_time": 16.297727272727272,
                "end_time": 16.37272727272727,
                "pitch": 43,
                "velocity": 127,
                "duration": 0.07499999999999929,
                "tempo": 120.0
            },
            {
                "start_time": 16.418181818181818,
                "end_time": 16.493181818181817,
                "pitch": 43,
                "velocity": 127,
                "duration": 0.07499999999999929,
                "tempo": 120.0
            },
            {
                "start_time": 16.538636363636364,
                "end_time": 16.73409090909091,
                "pitch": 43,
                "velocity": 127,
                "duration": 0.19545454545454533,
                "tempo": 120.0
            },
            {
                "start_time": 16.777272727272727,
                "end_time": 16.852272727272727,
                "pitch": 43,
                "velocity": 127,
                "duration": 0.07499999999999929,
                "tempo": 120.0
            },
            {
                "start_time": 16.897727272727273,
                "end_time": 16.972727272727273,
                "pitch": 43,
                "velocity": 127,
                "duration": 0.07499999999999929,
                "tempo": 120.0
            },
            {
                "start_time": 17.018181818181816,
                "end_time": 17.09318181818182,
                "pitch": 43,
                "velocity": 127,
                "duration": 0.07500000000000284,
                "tempo": 120.0
            },
            {
                "start_time": 17.138636363636362,
                "end_time": 17.21363636363636,
                "pitch": 43,
                "velocity": 127,
                "duration": 0.07499999999999929,
                "tempo": 120.0
            },
            {
                "start_time": 17.259090909090908,
                "end_time": 17.452272727272728,
                "pitch": 43,
                "velocity": 127,
                "duration": 0.19318181818182012,
                "tempo": 120.0
            },
            {
                "start_time": 17.49772727272727,
                "end_time": 17.57272727272727,
                "pitch": 43,
                "velocity": 127,
                "duration": 0.07499999999999929,
                "tempo": 120.0
            },
            {
                "start_time": 17.618181818181817,
                "end_time": 17.69090909090909,
                "pitch": 43,
                "velocity": 127,
                "duration": 0.07272727272727408,
                "tempo": 120.0
            },
            {
                "start_time": 17.73409090909091,
                "end_time": 17.80681818181818,
                "pitch": 43,
                "velocity": 127,
                "duration": 0.07272727272727053,
                "tempo": 120.0
            },
            {
                "start_time": 17.849999999999998,
                "end_time": 17.922727272727272,
                "pitch": 43,
                "velocity": 127,
                "duration": 0.07272727272727408,
                "tempo": 120.0
            },
            {
                "start_time": 17.96818181818182,
                "end_time": 18.161363636363635,
                "pitch": 43,
                "velocity": 127,
                "duration": 0.19318181818181657,
                "tempo": 120.0
            },
            {
                "start_time": 18.206818181818182,
                "end_time": 18.28181818181818,
                "pitch": 43,
                "velocity": 127,
                "duration": 0.07499999999999929,
                "tempo": 120.0
            },
            {
                "start_time": 18.327272727272728,
                "end_time": 18.402272727272727,
                "pitch": 43,
                "velocity": 127,
                "duration": 0.07499999999999929,
                "tempo": 120.0
            },
            {
                "start_time": 18.44772727272727,
                "end_time": 18.522727272727273,
                "pitch": 43,
                "velocity": 127,
                "duration": 0.07500000000000284,
                "tempo": 120.0
            },
            {
                "start_time": 18.568181818181817,
                "end_time": 18.643181818181816,
                "pitch": 43,
                "velocity": 127,
                "duration": 0.07499999999999929,
                "tempo": 120.0
            },
            {
                "start_time": 18.688636363636363,
                "end_time": 18.88181818181818,
                "pitch": 43,
                "velocity": 127,
                "duration": 0.19318181818181657,
                "tempo": 120.0
            },
            {
                "start_time": 18.927272727272726,
                "end_time": 19.002272727272725,
                "pitch": 43,
                "velocity": 127,
                "duration": 0.07499999999999929,
                "tempo": 120.0
            },
            {
                "start_time": 19.047727272727272,
                "end_time": 19.12272727272727,
                "pitch": 43,
                "velocity": 127,
                "duration": 0.07499999999999929,
                "tempo": 120.0
            },
            {
                "start_time": 19.168181818181818,
                "end_time": 19.243181818181817,
                "pitch": 43,
                "velocity": 127,
                "duration": 0.07499999999999929,
                "tempo": 120.0
            },
            {
                "start_time": 19.286363636363635,
                "end_time": 19.361363636363635,
                "pitch": 43,
                "velocity": 127,
                "duration": 0.07499999999999929,
                "tempo": 120.0
            },
            {
                "start_time": 19.40681818181818,
                "end_time": 19.602272727272727,
                "pitch": 43,
                "velocity": 127,
                "duration": 0.19545454545454533,
                "tempo": 120.0
            },
            {
                "start_time": 19.647727272727273,
                "end_time": 19.722727272727273,
                "pitch": 43,
                "velocity": 127,
                "duration": 0.07499999999999929,
                "tempo": 120.0
            },
            {
                "start_time": 19.768181818181816,
                "end_time": 19.84090909090909,
                "pitch": 43,
                "velocity": 127,
                "duration": 0.07272727272727408,
                "tempo": 120.0
            },
            {
                "start_time": 19.886363636363637,
                "end_time": 19.961363636363636,
                "pitch": 43,
                "velocity": 127,
                "duration": 0.07499999999999929,
                "tempo": 120.0
            },
            {
                "start_time": 20.00681818181818,
                "end_time": 20.081818181818182,
                "pitch": 43,
                "velocity": 127,
                "duration": 0.07500000000000284,
                "tempo": 120.0
            },
            {
                "start_time": 20.127272727272725,
                "end_time": 20.32272727272727,
                "pitch": 43,
                "velocity": 127,
                "duration": 0.19545454545454533,
                "tempo": 120.0
            },
            {
                "start_time": 20.368181818181817,
                "end_time": 20.44090909090909,
                "pitch": 43,
                "velocity": 127,
                "duration": 0.07272727272727408,
                "tempo": 120.0
            },
            {
                "start_time": 20.486363636363635,
                "end_time": 20.561363636363634,
                "pitch": 43,
                "velocity": 127,
                "duration": 0.07499999999999929,
                "tempo": 120.0
            },
            {
                "start_time": 20.60681818181818,
                "end_time": 20.68181818181818,
                "pitch": 43,
                "velocity": 127,
                "duration": 0.07499999999999929,
                "tempo": 120.0
            },
            {
                "start_time": 20.727272727272727,
                "end_time": 20.802272727272726,
                "pitch": 43,
                "velocity": 127,
                "duration": 0.07499999999999929,
                "tempo": 120.0
            },
            {
                "start_time": 20.847727272727273,
                "end_time": 21.036363636363635,
                "pitch": 43,
                "velocity": 127,
                "duration": 0.1886363636363626,
                "tempo": 120.0
            },
            {
                "start_time": 21.079545454545453,
                "end_time": 21.152272727272727,
                "pitch": 43,
                "velocity": 127,
                "duration": 0.07272727272727408,
                "tempo": 120.0
            },
            {
                "start_time": 21.195454545454545,
                "end_time": 21.270454545454545,
                "pitch": 43,
                "velocity": 127,
                "duration": 0.07499999999999929,
                "tempo": 120.0
            },
            {
                "start_time": 21.31590909090909,
                "end_time": 21.39090909090909,
                "pitch": 43,
                "velocity": 127,
                "duration": 0.07499999999999929,
                "tempo": 120.0
            },
            {
                "start_time": 21.436363636363634,
                "end_time": 21.511363636363637,
                "pitch": 43,
                "velocity": 127,
                "duration": 0.07500000000000284,
                "tempo": 120.0
            },
            {
                "start_time": 21.55681818181818,
                "end_time": 21.75,
                "pitch": 31,
                "velocity": 127,
                "duration": 0.19318181818182012,
                "tempo": 120.0
            },
            {
                "start_time": 21.795454545454543,
                "end_time": 21.870454545454546,
                "pitch": 31,
                "velocity": 127,
                "duration": 0.07500000000000284,
                "tempo": 120.0
            },
            {
                "start_time": 21.91590909090909,
                "end_time": 21.99090909090909,
                "pitch": 31,
                "velocity": 127,
                "duration": 0.07499999999999929,
                "tempo": 120.0
            },
            {
                "start_time": 22.036363636363635,
                "end_time": 22.111363636363635,
                "pitch": 43,
                "velocity": 127,
                "duration": 0.07499999999999929,
                "tempo": 120.0
            },
            {
                "start_time": 22.15681818181818,
                "end_time": 22.23181818181818,
                "pitch": 31,
                "velocity": 127,
                "duration": 0.07499999999999929,
                "tempo": 120.0
            },
            {
                "start_time": 22.277272727272727,
                "end_time": 22.470454545454544,
                "pitch": 31,
                "velocity": 127,
                "duration": 0.19318181818181657,
                "tempo": 120.0
            },
            {
                "start_time": 22.51590909090909,
                "end_time": 22.59090909090909,
                "pitch": 31,
                "velocity": 127,
                "duration": 0.07499999999999929,
                "tempo": 120.0
            },
            {
                "start_time": 22.636363636363637,
                "end_time": 22.711363636363636,
                "pitch": 31,
                "velocity": 127,
                "duration": 0.07499999999999929,
                "tempo": 120.0
            },
            {
                "start_time": 22.75681818181818,
                "end_time": 22.831818181818182,
                "pitch": 43,
                "velocity": 127,
                "duration": 0.07500000000000284,
                "tempo": 120.0
            },
            {
                "start_time": 22.877272727272725,
                "end_time": 22.95,
                "pitch": 31,
                "velocity": 127,
                "duration": 0.07272727272727408,
                "tempo": 120.0
            },
            {
                "start_time": 22.995454545454546,
                "end_time": 23.011363636363637,
                "pitch": 31,
                "velocity": 101,
                "duration": 0.01590909090909065,
                "tempo": 120.0
            }
        ],
        "Acoustic Grand Piano": [
            {
                "start_time": 0.04772727272727272,
                "end_time": 0.2568181818181818,
                "pitch": 43,
                "velocity": 101,
                "duration": 0.20909090909090905,
                "tempo": 120.0
            },
            {
                "start_time": 0.2863636363636364,
                "end_time": 0.37727272727272726,
                "pitch": 43,
                "velocity": 101,
                "duration": 0.09090909090909088,
                "tempo": 120.0
            },
            {
                "start_time": 0.4068181818181818,
                "end_time": 0.6159090909090909,
                "pitch": 43,
                "velocity": 101,
                "duration": 0.20909090909090905,
                "tempo": 120.0
            },
            {
                "start_time": 0.6477272727272727,
                "end_time": 0.7363636363636363,
                "pitch": 43,
                "velocity": 101,
                "duration": 0.08863636363636362,
                "tempo": 120.0
            },
            {
                "start_time": 0.7681818181818182,
                "end_time": 0.9772727272727272,
                "pitch": 43,
                "velocity": 101,
                "duration": 0.209090909090909,
                "tempo": 120.0
            },
            {
                "start_time": 1.0068181818181818,
                "end_time": 1.0954545454545455,
                "pitch": 43,
                "velocity": 101,
                "duration": 0.08863636363636362,
                "tempo": 120.0
            },
            {
                "start_time": 1.1272727272727272,
                "end_time": 1.3363636363636362,
                "pitch": 43,
                "velocity": 101,
                "duration": 0.209090909090909,
                "tempo": 120.0
            },
            {
                "start_time": 1.3659090909090907,
                "end_time": 1.4568181818181818,
                "pitch": 43,
                "velocity": 101,
                "duration": 0.09090909090909105,
                "tempo": 120.0
            },
            {
                "start_time": 2.9272727272727272,
                "end_time": 3.1363636363636362,
                "pitch": 43,
                "velocity": 101,
                "duration": 0.209090909090909,
                "tempo": 120.0
            },
            {
                "start_time": 3.1659090909090906,
                "end_time": 3.256818181818182,
                "pitch": 43,
                "velocity": 101,
                "duration": 0.09090909090909127,
                "tempo": 120.0
            },
            {
                "start_time": 3.286363636363636,
                "end_time": 3.4909090909090907,
                "pitch": 43,
                "velocity": 101,
                "duration": 0.20454545454545459,
                "tempo": 120.0
            },
            {
                "start_time": 3.5204545454545455,
                "end_time": 3.6068181818181815,
                "pitch": 43,
                "velocity": 101,
                "duration": 0.08636363636363598,
                "tempo": 120.0
            },
            {
                "start_time": 3.6363636363636362,
                "end_time": 3.8454545454545452,
                "pitch": 43,
                "velocity": 101,
                "duration": 0.209090909090909,
                "tempo": 120.0
            },
            {
                "start_time": 3.875,
                "end_time": 3.965909090909091,
                "pitch": 43,
                "velocity": 101,
                "duration": 0.09090909090909083,
                "tempo": 120.0
            },
            {
                "start_time": 3.995454545454545,
                "end_time": 4.204545454545454,
                "pitch": 43,
                "velocity": 101,
                "duration": 0.209090909090909,
                "tempo": 120.0
            },
            {
                "start_time": 4.236363636363636,
                "end_time": 4.325,
                "pitch": 43,
                "velocity": 101,
                "duration": 0.08863636363636385,
                "tempo": 120.0
            },
            {
                "start_time": 5.786363636363636,
                "end_time": 6.0,
                "pitch": 43,
                "velocity": 101,
                "duration": 0.21363636363636385,
                "tempo": 120.0
            },
            {
                "start_time": 6.029545454545454,
                "end_time": 6.122727272727272,
                "pitch": 43,
                "velocity": 101,
                "duration": 0.09318181818181781,
                "tempo": 120.0
            },
            {
                "start_time": 6.154545454545454,
                "end_time": 6.3568181818181815,
                "pitch": 43,
                "velocity": 101,
                "duration": 0.20227272727272716,
                "tempo": 120.0
            },
            {
                "start_time": 6.386363636363636,
                "end_time": 6.472727272727273,
                "pitch": 43,
                "velocity": 101,
                "duration": 0.08636363636363686,
                "tempo": 120.0
            },
            {
                "start_time": 6.502272727272727,
                "end_time": 6.711363636363636,
                "pitch": 43,
                "velocity": 101,
                "duration": 0.209090909090909,
                "tempo": 120.0
            },
            {
                "start_time": 6.743181818181818,
                "end_time": 6.831818181818181,
                "pitch": 43,
                "velocity": 101,
                "duration": 0.08863636363636296,
                "tempo": 120.0
            },
            {
                "start_time": 6.863636363636363,
                "end_time": 7.072727272727272,
                "pitch": 43,
                "velocity": 101,
                "duration": 0.209090909090909,
                "tempo": 120.0
            },
            {
                "start_time": 7.102272727272727,
                "end_time": 7.1931818181818175,
                "pitch": 43,
                "velocity": 101,
                "duration": 0.09090909090909083,
                "tempo": 120.0
            },
            {
                "start_time": 8.652272727272727,
                "end_time": 8.861363636363636,
                "pitch": 43,
                "velocity": 101,
                "duration": 0.209090909090909,
                "tempo": 120.0
            },
            {
                "start_time": 8.89090909090909,
                "end_time": 8.98181818181818,
                "pitch": 43,
                "velocity": 101,
                "duration": 0.09090909090908994,
                "tempo": 120.0
            },
            {
                "start_time": 9.011363636363637,
                "end_time": 9.220454545454546,
                "pitch": 43,
                "velocity": 101,
                "duration": 0.209090909090909,
                "tempo": 120.0
            },
            {
                "start_time": 9.252272727272727,
                "end_time": 9.34090909090909,
                "pitch": 43,
                "velocity": 101,
                "duration": 0.08863636363636296,
                "tempo": 120.0
            },
            {
                "start_time": 9.372727272727273,
                "end_time": 9.581818181818182,
                "pitch": 43,
                "velocity": 101,
                "duration": 0.209090909090909,
                "tempo": 120.0
            },
            {
                "start_time": 9.611363636363636,
                "end_time": 9.702272727272726,
                "pitch": 43,
                "velocity": 101,
                "duration": 0.09090909090908994,
                "tempo": 120.0
            },
            {
                "start_time": 9.73181818181818,
                "end_time": 9.94090909090909,
                "pitch": 43,
                "velocity": 101,
                "duration": 0.209090909090909,
                "tempo": 120.0
            },
            {
                "start_time": 9.972727272727273,
                "end_time": 10.061363636363636,
                "pitch": 43,
                "velocity": 101,
                "duration": 0.08863636363636296,
                "tempo": 120.0
            },
            {
                "start_time": 11.522727272727272,
                "end_time": 11.729545454545454,
                "pitch": 43,
                "velocity": 101,
                "duration": 0.206818181818182,
                "tempo": 120.0
            },
            {
                "start_time": 11.761363636363635,
                "end_time": 11.85,
                "pitch": 43,
                "velocity": 101,
                "duration": 0.08863636363636473,
                "tempo": 120.0
            },
            {
                "start_time": 11.881818181818181,
                "end_time": 12.09090909090909,
                "pitch": 43,
                "velocity": 101,
                "duration": 0.209090909090909,
                "tempo": 120.0
            },
            {
                "start_time": 12.120454545454544,
                "end_time": 12.209090909090909,
                "pitch": 43,
                "velocity": 101,
                "duration": 0.08863636363636473,
                "tempo": 120.0
            },
            {
                "start_time": 12.24090909090909,
                "end_time": 12.45,
                "pitch": 43,
                "velocity": 101,
                "duration": 0.209090909090909,
                "tempo": 120.0
            },
            {
                "start_time": 12.479545454545454,
                "end_time": 12.570454545454545,
                "pitch": 43,
                "velocity": 101,
                "duration": 0.09090909090909172,
                "tempo": 120.0
            },
            {
                "start_time": 12.6,
                "end_time": 12.809090909090909,
                "pitch": 43,
                "velocity": 101,
                "duration": 0.209090909090909,
                "tempo": 120.0
            },
            {
                "start_time": 12.84090909090909,
                "end_time": 12.929545454545455,
                "pitch": 43,
                "velocity": 101,
                "duration": 0.08863636363636473,
                "tempo": 120.0
            },
            {
                "start_time": 14.39090909090909,
                "end_time": 14.6,
                "pitch": 43,
                "velocity": 101,
                "duration": 0.209090909090909,
                "tempo": 120.0
            },
            {
                "start_time": 14.629545454545454,
                "end_time": 14.718181818181817,
                "pitch": 43,
                "velocity": 101,
                "duration": 0.08863636363636296,
                "tempo": 120.0
            },
            {
                "start_time": 14.75,
                "end_time": 14.959090909090909,
                "pitch": 43,
                "velocity": 101,
                "duration": 0.209090909090909,
                "tempo": 120.0
            },
            {
                "start_time": 14.988636363636363,
                "end_time": 15.079545454545453,
                "pitch": 43,
                "velocity": 101,
                "duration": 0.09090909090908994,
                "tempo": 120.0
            },
            {
                "start_time": 15.109090909090908,
                "end_time": 15.313636363636363,
                "pitch": 43,
                "velocity": 101,
                "duration": 0.20454545454545503,
                "tempo": 120.0
            },
            {
                "start_time": 15.343181818181817,
                "end_time": 15.429545454545455,
                "pitch": 43,
                "velocity": 101,
                "duration": 0.08636363636363775,
                "tempo": 120.0
            },
            {
                "start_time": 15.459090909090909,
                "end_time": 15.668181818181818,
                "pitch": 43,
                "velocity": 101,
                "duration": 0.209090909090909,
                "tempo": 120.0
            },
            {
                "start_time": 15.7,
                "end_time": 15.788636363636362,
                "pitch": 43,
                "velocity": 101,
                "duration": 0.08863636363636296,
                "tempo": 120.0
            },
            {
                "start_time": 17.259090909090908,
                "end_time": 17.46818181818182,
                "pitch": 43,
                "velocity": 101,
                "duration": 0.20909090909091077,
                "tempo": 120.0
            },
            {
                "start_time": 17.49772727272727,
                "end_time": 17.58863636363636,
                "pitch": 43,
                "velocity": 101,
                "duration": 0.09090909090908994,
                "tempo": 120.0
            },
            {
                "start_time": 17.618181818181817,
                "end_time": 17.82272727272727,
                "pitch": 43,
                "velocity": 101,
                "duration": 0.20454545454545325,
                "tempo": 120.0
            },
            {
                "start_time": 17.852272727272727,
                "end_time": 17.938636363636363,
                "pitch": 43,
                "velocity": 101,
                "duration": 0.08636363636363598,
                "tempo": 120.0
            },
            {
                "start_time": 17.96818181818182,
                "end_time": 18.177272727272726,
                "pitch": 43,
                "velocity": 101,
                "duration": 0.20909090909090722,
                "tempo": 120.0
            },
            {
                "start_time": 18.206818181818182,
                "end_time": 18.297727272727272,
                "pitch": 43,
                "velocity": 101,
                "duration": 0.09090909090908994,
                "tempo": 120.0
            },
            {
                "start_time": 18.327272727272728,
                "end_time": 18.536363636363635,
                "pitch": 43,
                "velocity": 101,
                "duration": 0.20909090909090722,
                "tempo": 120.0
            },
            {
                "start_time": 18.568181818181817,
                "end_time": 18.65681818181818,
                "pitch": 43,
                "velocity": 101,
                "duration": 0.08863636363636473,
                "tempo": 120.0
            },
            {
                "start_time": 20.127272727272725,
                "end_time": 20.336363636363636,
                "pitch": 43,
                "velocity": 101,
                "duration": 0.20909090909091077,
                "tempo": 120.0
            },
            {
                "start_time": 20.368181818181817,
                "end_time": 20.456818181818182,
                "pitch": 43,
                "velocity": 101,
                "duration": 0.08863636363636473,
                "tempo": 120.0
            },
            {
                "start_time": 20.488636363636363,
                "end_time": 20.69772727272727,
                "pitch": 43,
                "velocity": 101,
                "duration": 0.20909090909090722,
                "tempo": 120.0
            },
            {
                "start_time": 20.727272727272727,
                "end_time": 20.81590909090909,
                "pitch": 43,
                "velocity": 101,
                "duration": 0.08863636363636473,
                "tempo": 120.0
            },
            {
                "start_time": 20.847727272727273,
                "end_time": 21.05,
                "pitch": 43,
                "velocity": 101,
                "duration": 0.20227272727272805,
                "tempo": 120.0
            },
            {
                "start_time": 21.079545454545453,
                "end_time": 21.168181818181818,
                "pitch": 43,
                "velocity": 101,
                "duration": 0.08863636363636473,
                "tempo": 120.0
            },
            {
                "start_time": 21.19772727272727,
                "end_time": 21.40681818181818,
                "pitch": 43,
                "velocity": 101,
                "duration": 0.20909090909091077,
                "tempo": 120.0
            },
            {
                "start_time": 21.436363636363634,
                "end_time": 21.527272727272727,
                "pitch": 43,
                "velocity": 101,
                "duration": 0.09090909090909349,
                "tempo": 120.0
            },
            {
                "start_time": 22.99772727272727,
                "end_time": 23.011363636363637,
                "pitch": 43,
                "velocity": 101,
                "duration": 0.013636363636365445,
                "tempo": 120.0
            }
        ],
        "Trumpet": [
            {
                "start_time": 0.049999999999999996,
                "end_time": 0.15227272727272725,
                "pitch": 60,
                "velocity": 127,
                "duration": 0.10227272727272727,
                "tempo": 120.0
            },
            {
                "start_time": 1.009090909090909,
                "end_time": 1.2159090909090908,
                "pitch": 60,
                "velocity": 127,
                "duration": 0.2068181818181818,
                "tempo": 120.0
            },
            {
                "start_time": 1.3681818181818182,
                "end_time": 1.4727272727272727,
                "pitch": 59,
                "velocity": 127,
                "duration": 0.1045454545454545,
                "tempo": 120.0
            },
            {
                "start_time": 2.9295454545454542,
                "end_time": 3.0318181818181817,
                "pitch": 60,
                "velocity": 127,
                "duration": 0.10227272727272751,
                "tempo": 120.0
            },
            {
                "start_time": 3.877272727272727,
                "end_time": 4.086363636363636,
                "pitch": 60,
                "velocity": 127,
                "duration": 0.209090909090909,
                "tempo": 120.0
            },
            {
                "start_time": 1.3681818181818182,
                "end_time": 4.236363636363636,
                "pitch": 64,
                "velocity": 127,
                "duration": 2.868181818181818,
                "tempo": 120.0
            },
            {
                "start_time": 4.236363636363636,
                "end_time": 4.340909090909091,
                "pitch": 59,
                "velocity": 127,
                "duration": 0.1045454545454545,
                "tempo": 120.0
            },
            {
                "start_time": 2.9295454545454542,
                "end_time": 5.788636363636363,
                "pitch": 44,
                "velocity": 127,
                "duration": 2.859090909090909,
                "tempo": 120.0
            },
            {
                "start_time": 5.788636363636363,
                "end_time": 5.890909090909091,
                "pitch": 60,
                "velocity": 127,
                "duration": 0.10227272727272751,
                "tempo": 120.0
            },
            {
                "start_time": 6.743181818181818,
                "end_time": 6.952272727272727,
                "pitch": 60,
                "velocity": 127,
                "duration": 0.209090909090909,
                "tempo": 120.0
            },
            {
                "start_time": 4.236363636363636,
                "end_time": 7.1045454545454545,
                "pitch": 64,
                "velocity": 127,
                "duration": 2.868181818181818,
                "tempo": 120.0
            },
            {
                "start_time": 7.1045454545454545,
                "end_time": 7.206818181818181,
                "pitch": 59,
                "velocity": 127,
                "duration": 0.10227272727272663,
                "tempo": 120.0
            },
            {
                "start_time": 5.788636363636363,
                "end_time": 8.654545454545454,
                "pitch": 44,
                "velocity": 127,
                "duration": 2.865909090909091,
                "tempo": 120.0
            },
            {
                "start_time": 8.654545454545454,
                "end_time": 8.756818181818181,
                "pitch": 60,
                "velocity": 127,
                "duration": 0.10227272727272663,
                "tempo": 120.0
            },
            {
                "start_time": 9.613636363636363,
                "end_time": 9.820454545454545,
                "pitch": 60,
                "velocity": 127,
                "duration": 0.206818181818182,
                "tempo": 120.0
            },
            {
                "start_time": 7.1045454545454545,
                "end_time": 9.972727272727273,
                "pitch": 64,
                "velocity": 127,
                "duration": 2.868181818181818,
                "tempo": 120.0
            },
            {
                "start_time": 9.972727272727273,
                "end_time": 10.077272727272726,
                "pitch": 59,
                "velocity": 127,
                "duration": 0.10454545454545361,
                "tempo": 120.0
            },
            {
                "start_time": 8.654545454545454,
                "end_time": 11.522727272727272,
                "pitch": 44,
                "velocity": 127,
                "duration": 2.8681818181818173,
                "tempo": 120.0
            },
            {
                "start_time": 11.522727272727272,
                "end_time": 11.625,
                "pitch": 60,
                "velocity": 127,
                "duration": 0.1022727272727284,
                "tempo": 120.0
            },
            {
                "start_time": 12.48181818181818,
                "end_time": 12.69090909090909,
                "pitch": 60,
                "velocity": 127,
                "duration": 0.209090909090909,
                "tempo": 120.0
            },
            {
                "start_time": 9.972727272727273,
                "end_time": 12.84090909090909,
                "pitch": 64,
                "velocity": 127,
                "duration": 2.8681818181818173,
                "tempo": 120.0
            },
            {
                "start_time": 12.84090909090909,
                "end_time": 12.945454545454545,
                "pitch": 59,
                "velocity": 127,
                "duration": 0.10454545454545539,
                "tempo": 120.0
            },
            {
                "start_time": 11.522727272727272,
                "end_time": 14.393181818181818,
                "pitch": 44,
                "velocity": 127,
                "duration": 2.870454545454546,
                "tempo": 120.0
            },
            {
                "start_time": 14.393181818181818,
                "end_time": 14.495454545454544,
                "pitch": 60,
                "velocity": 127,
                "duration": 0.10227272727272663,
                "tempo": 120.0
            },
            {
                "start_time": 15.343181818181817,
                "end_time": 15.547727272727272,
                "pitch": 60,
                "velocity": 127,
                "duration": 0.20454545454545503,
                "tempo": 120.0
            },
            {
                "start_time": 12.84090909090909,
                "end_time": 15.7,
                "pitch": 64,
                "velocity": 127,
                "duration": 2.8590909090909093,
                "tempo": 120.0
            },
            {
                "start_time": 15.7,
                "end_time": 15.804545454545453,
                "pitch": 59,
                "velocity": 127,
                "duration": 0.10454545454545361,
                "tempo": 120.0
            },
            {
                "start_time": 14.393181818181818,
                "end_time": 17.261363636363637,
                "pitch": 44,
                "velocity": 127,
                "duration": 2.868181818181819,
                "tempo": 120.0
            },
            {
                "start_time": 17.261363636363637,
                "end_time": 17.363636363636363,
                "pitch": 60,
                "velocity": 127,
                "duration": 0.10227272727272663,
                "tempo": 120.0
            },
            {
                "start_time": 18.209090909090907,
                "end_time": 18.418181818181818,
                "pitch": 60,
                "velocity": 127,
                "duration": 0.20909090909091077,
                "tempo": 120.0
            },
            {
                "start_time": 15.7,
                "end_time": 18.568181818181817,
                "pitch": 64,
                "velocity": 127,
                "duration": 2.8681818181818173,
                "tempo": 120.0
            },
            {
                "start_time": 18.568181818181817,
                "end_time": 18.672727272727272,
                "pitch": 59,
                "velocity": 127,
                "duration": 0.10454545454545539,
                "tempo": 120.0
            },
            {
                "start_time": 17.261363636363637,
                "end_time": 20.129545454545454,
                "pitch": 44,
                "velocity": 127,
                "duration": 2.8681818181818173,
                "tempo": 120.0
            },
            {
                "start_time": 20.129545454545454,
                "end_time": 20.23181818181818,
                "pitch": 60,
                "velocity": 127,
                "duration": 0.10227272727272663,
                "tempo": 120.0
            },
            {
                "start_time": 21.081818181818182,
                "end_time": 21.286363636363635,
                "pitch": 60,
                "velocity": 127,
                "duration": 0.20454545454545325,
                "tempo": 120.0
            },
            {
                "start_time": 18.568181818181817,
                "end_time": 21.438636363636363,
                "pitch": 64,
                "velocity": 127,
                "duration": 2.870454545454546,
                "tempo": 120.0
            },
            {
                "start_time": 21.438636363636363,
                "end_time": 21.54090909090909,
                "pitch": 59,
                "velocity": 127,
                "duration": 0.10227272727272663,
                "tempo": 120.0
            },
            {
                "start_time": 20.129545454545454,
                "end_time": 23.0,
                "pitch": 44,
                "velocity": 127,
                "duration": 2.870454545454546,
                "tempo": 120.0
            },
            {
                "start_time": 23.0,
                "end_time": 23.011363636363637,
                "pitch": 60,
                "velocity": 127,
                "duration": 0.011363636363636687,
                "tempo": 120.0
            }
        ],
        "Lead 2 (sawtooth)": [
            {
                "start_time": 0.05227272727272727,
                "end_time": 0.13636363636363635,
                "pitch": 55,
                "velocity": 127,
                "duration": 0.08409090909090908,
                "tempo": 120.0
            },
            {
                "start_time": 1.009090909090909,
                "end_time": 1.0977272727272727,
                "pitch": 55,
                "velocity": 127,
                "duration": 0.08863636363636362,
                "tempo": 120.0
            },
            {
                "start_time": 1.3681818181818182,
                "end_time": 1.4568181818181818,
                "pitch": 55,
                "velocity": 127,
                "duration": 0.08863636363636362,
                "tempo": 120.0
            },
            {
                "start_time": 2.9295454545454542,
                "end_time": 3.0159090909090907,
                "pitch": 55,
                "velocity": 127,
                "duration": 0.08636363636363642,
                "tempo": 120.0
            },
            {
                "start_time": 3.877272727272727,
                "end_time": 3.965909090909091,
                "pitch": 55,
                "velocity": 127,
                "duration": 0.08863636363636385,
                "tempo": 120.0
            },
            {
                "start_time": 4.238636363636363,
                "end_time": 4.325,
                "pitch": 55,
                "velocity": 127,
                "duration": 0.08636363636363686,
                "tempo": 120.0
            },
            {
                "start_time": 5.788636363636363,
                "end_time": 5.877272727272727,
                "pitch": 55,
                "velocity": 127,
                "duration": 0.08863636363636385,
                "tempo": 120.0
            },
            {
                "start_time": 6.745454545454545,
                "end_time": 6.831818181818181,
                "pitch": 55,
                "velocity": 127,
                "duration": 0.08636363636363598,
                "tempo": 120.0
            },
            {
                "start_time": 7.1045454545454545,
                "end_time": 7.1931818181818175,
                "pitch": 55,
                "velocity": 127,
                "duration": 0.08863636363636296,
                "tempo": 120.0
            },
            {
                "start_time": 8.656818181818181,
                "end_time": 8.74090909090909,
                "pitch": 55,
                "velocity": 127,
                "duration": 0.084090909090909,
                "tempo": 120.0
            },
            {
                "start_time": 9.613636363636363,
                "end_time": 9.702272727272726,
                "pitch": 55,
                "velocity": 127,
                "duration": 0.08863636363636296,
                "tempo": 120.0
            },
            {
                "start_time": 9.972727272727273,
                "end_time": 10.061363636363636,
                "pitch": 55,
                "velocity": 127,
                "duration": 0.08863636363636296,
                "tempo": 120.0
            },
            {
                "start_time": 11.524999999999999,
                "end_time": 11.611363636363636,
                "pitch": 55,
                "velocity": 127,
                "duration": 0.08636363636363775,
                "tempo": 120.0
            },
            {
                "start_time": 12.48181818181818,
                "end_time": 12.570454545454545,
                "pitch": 55,
                "velocity": 127,
                "duration": 0.08863636363636473,
                "tempo": 120.0
            },
            {
                "start_time": 12.843181818181817,
                "end_time": 12.929545454545455,
                "pitch": 55,
                "velocity": 127,
                "duration": 0.08636363636363775,
                "tempo": 120.0
            },
            {
                "start_time": 14.393181818181818,
                "end_time": 14.479545454545454,
                "pitch": 55,
                "velocity": 127,
                "duration": 0.08636363636363598,
                "tempo": 120.0
            },
            {
                "start_time": 15.343181818181817,
                "end_time": 15.429545454545455,
                "pitch": 55,
                "velocity": 127,
                "duration": 0.08636363636363775,
                "tempo": 120.0
            },
            {
                "start_time": 15.7,
                "end_time": 15.788636363636362,
                "pitch": 55,
                "velocity": 127,
                "duration": 0.08863636363636296,
                "tempo": 120.0
            },
            {
                "start_time": 17.263636363636362,
                "end_time": 17.347727272727273,
                "pitch": 55,
                "velocity": 127,
                "duration": 0.08409090909091077,
                "tempo": 120.0
            },
            {
                "start_time": 18.209090909090907,
                "end_time": 18.297727272727272,
                "pitch": 55,
                "velocity": 127,
                "duration": 0.08863636363636473,
                "tempo": 120.0
            },
            {
                "start_time": 18.570454545454545,
                "end_time": 18.65681818181818,
                "pitch": 55,
                "velocity": 127,
                "duration": 0.08636363636363598,
                "tempo": 120.0
            },
            {
                "start_time": 23.0,
                "end_time": 23.011363636363637,
                "pitch": 55,
                "velocity": 127,
                "duration": 0.011363636363636687,
                "tempo": 120.0
            }
        ],
        "French Horn": [
            {
                "start_time": 20.13181818181818,
                "end_time": 20.21818181818182,
                "pitch": 72,
                "velocity": 127,
                "duration": 0.08636363636363953,
                "tempo": 120.0
            },
            {
                "start_time": 20.24772727272727,
                "end_time": 20.33863636363636,
                "pitch": 71,
                "velocity": 127,
                "duration": 0.09090909090908994,
                "tempo": 120.0
            },
            {
                "start_time": 20.368181818181817,
                "end_time": 20.456818181818182,
                "pitch": 71,
                "velocity": 127,
                "duration": 0.08863636363636473,
                "tempo": 120.0
            },
            {
                "start_time": 20.488636363636363,
                "end_time": 20.577272727272728,
                "pitch": 69,
                "velocity": 127,
                "duration": 0.08863636363636473,
                "tempo": 120.0
            },
            {
                "start_time": 20.60909090909091,
                "end_time": 20.69772727272727,
                "pitch": 72,
                "velocity": 127,
                "duration": 0.08863636363636118,
                "tempo": 120.0
            },
            {
                "start_time": 20.727272727272727,
                "end_time": 20.818181818181817,
                "pitch": 74,
                "velocity": 127,
                "duration": 0.09090909090908994,
                "tempo": 120.0
            },
            {
                "start_time": 20.24772727272727,
                "end_time": 20.93409090909091,
                "pitch": 76,
                "velocity": 127,
                "duration": 0.6863636363636374,
                "tempo": 120.0
            },
            {
                "start_time": 20.847727272727273,
                "end_time": 20.93409090909091,
                "pitch": 76,
                "velocity": 127,
                "duration": 0.08636363636363598,
                "tempo": 120.0
            },
            {
                "start_time": 20.847727272727273,
                "end_time": 21.052272727272726,
                "pitch": 74,
                "velocity": 127,
                "duration": 0.20454545454545325,
                "tempo": 120.0
            },
            {
                "start_time": 20.96363636363636,
                "end_time": 21.052272727272726,
                "pitch": 74,
                "velocity": 127,
                "duration": 0.08863636363636473,
                "tempo": 120.0
            },
            {
                "start_time": 20.727272727272727,
                "end_time": 21.168181818181818,
                "pitch": 72,
                "velocity": 127,
                "duration": 0.44090909090909136,
                "tempo": 120.0
            },
            {
                "start_time": 21.081818181818182,
                "end_time": 21.168181818181818,
                "pitch": 72,
                "velocity": 127,
                "duration": 0.08636363636363598,
                "tempo": 120.0
            },
            {
                "start_time": 21.081818181818182,
                "end_time": 21.286363636363635,
                "pitch": 74,
                "velocity": 127,
                "duration": 0.20454545454545325,
                "tempo": 120.0
            },
            {
                "start_time": 21.19772727272727,
                "end_time": 21.286363636363635,
                "pitch": 74,
                "velocity": 127,
                "duration": 0.08863636363636473,
                "tempo": 120.0
            },
            {
                "start_time": 20.96363636363636,
                "end_time": 21.40681818181818,
                "pitch": 76,
                "velocity": 127,
                "duration": 0.4431818181818201,
                "tempo": 120.0
            },
            {
                "start_time": 21.318181818181817,
                "end_time": 21.40681818181818,
                "pitch": 76,
                "velocity": 127,
                "duration": 0.08863636363636473,
                "tempo": 120.0
            },
            {
                "start_time": 21.438636363636363,
                "end_time": 21.527272727272727,
                "pitch": 76,
                "velocity": 127,
                "duration": 0.08863636363636473,
                "tempo": 120.0
            },
            {
                "start_time": 21.55909090909091,
                "end_time": 21.647727272727273,
                "pitch": 79,
                "velocity": 127,
                "duration": 0.08863636363636473,
                "tempo": 120.0
            },
            {
                "start_time": 20.13181818181818,
                "end_time": 21.677272727272726,
                "pitch": 0,
                "velocity": 127,
                "duration": 1.5454545454545467,
                "tempo": 120.0
            },
            {
                "start_time": 21.677272727272726,
                "end_time": 21.76590909090909,
                "pitch": 77,
                "velocity": 127,
                "duration": 0.08863636363636473,
                "tempo": 120.0
            },
            {
                "start_time": 21.797727272727272,
                "end_time": 21.886363636363637,
                "pitch": 77,
                "velocity": 127,
                "duration": 0.08863636363636473,
                "tempo": 120.0
            },
            {
                "start_time": 21.918181818181818,
                "end_time": 22.00681818181818,
                "pitch": 76,
                "velocity": 127,
                "duration": 0.08863636363636118,
                "tempo": 120.0
            },
            {
                "start_time": 22.038636363636364,
                "end_time": 22.127272727272725,
                "pitch": 77,
                "velocity": 127,
                "duration": 0.08863636363636118,
                "tempo": 120.0
            },
            {
                "start_time": 21.318181818181817,
                "end_time": 22.24772727272727,
                "pitch": 74,
                "velocity": 127,
                "duration": 0.9295454545454547,
                "tempo": 120.0
            },
            {
                "start_time": 22.15681818181818,
                "end_time": 22.24772727272727,
                "pitch": 74,
                "velocity": 127,
                "duration": 0.09090909090908994,
                "tempo": 120.0
            },
            {
                "start_time": 22.15681818181818,
                "end_time": 22.36590909090909,
                "pitch": 76,
                "velocity": 127,
                "duration": 0.20909090909090722,
                "tempo": 120.0
            },
            {
                "start_time": 22.277272727272727,
                "end_time": 22.36590909090909,
                "pitch": 76,
                "velocity": 127,
                "duration": 0.08863636363636118,
                "tempo": 120.0
            },
            {
                "start_time": 22.277272727272727,
                "end_time": 22.486363636363635,
                "pitch": 74,
                "velocity": 127,
                "duration": 0.20909090909090722,
                "tempo": 120.0
            },
            {
                "start_time": 22.397727272727273,
                "end_time": 22.486363636363635,
                "pitch": 74,
                "velocity": 127,
                "duration": 0.08863636363636118,
                "tempo": 120.0
            },
            {
                "start_time": 21.19772727272727,
                "end_time": 22.60681818181818,
                "pitch": 72,
                "velocity": 127,
                "duration": 1.40909090909091,
                "tempo": 120.0
            },
            {
                "start_time": 22.518181818181816,
                "end_time": 22.60681818181818,
                "pitch": 72,
                "velocity": 127,
                "duration": 0.08863636363636473,
                "tempo": 120.0
            },
            {
                "start_time": 22.518181818181816,
                "end_time": 22.727272727272727,
                "pitch": 74,
                "velocity": 127,
                "duration": 0.20909090909091077,
                "tempo": 120.0
            },
            {
                "start_time": 22.636363636363637,
                "end_time": 22.727272727272727,
                "pitch": 74,
                "velocity": 127,
                "duration": 0.09090909090908994,
                "tempo": 120.0
            },
            {
                "start_time": 22.636363636363637,
                "end_time": 22.845454545454544,
                "pitch": 72,
                "velocity": 127,
                "duration": 0.20909090909090722,
                "tempo": 120.0
            },
            {
                "start_time": 22.75681818181818,
                "end_time": 22.845454545454544,
                "pitch": 72,
                "velocity": 127,
                "duration": 0.08863636363636473,
                "tempo": 120.0
            },
            {
                "start_time": 22.397727272727273,
                "end_time": 22.877272727272725,
                "pitch": 76,
                "velocity": 127,
                "duration": 0.47954545454545183,
                "tempo": 120.0
            },
            {
                "start_time": 22.877272727272725,
                "end_time": 22.96590909090909,
                "pitch": 71,
                "velocity": 127,
                "duration": 0.08863636363636473,
                "tempo": 120.0
            }
        ],
        "Acoustic Bass": [
            {
                "start_time": 10.093181818181817,
                "end_time": 10.181818181818182,
                "pitch": 31,
                "velocity": 101,
                "duration": 0.08863636363636473,
                "tempo": 120.0
            },
            {
                "start_time": 10.211363636363636,
                "end_time": 10.302272727272726,
                "pitch": 43,
                "velocity": 101,
                "duration": 0.09090909090908994,
                "tempo": 120.0
            },
            {
                "start_time": 10.331818181818182,
                "end_time": 10.420454545454545,
                "pitch": 43,
                "velocity": 101,
                "duration": 0.08863636363636296,
                "tempo": 120.0
            },
            {
                "start_time": 10.452272727272726,
                "end_time": 10.538636363636362,
                "pitch": 43,
                "velocity": 101,
                "duration": 0.08636363636363598,
                "tempo": 120.0
            },
            {
                "start_time": 10.568181818181818,
                "end_time": 10.654545454545454,
                "pitch": 43,
                "velocity": 101,
                "duration": 0.08636363636363598,
                "tempo": 120.0
            },
            {
                "start_time": 10.686363636363636,
                "end_time": 10.772727272727272,
                "pitch": 43,
                "velocity": 101,
                "duration": 0.08636363636363598,
                "tempo": 120.0
            },
            {
                "start_time": 10.802272727272726,
                "end_time": 10.89090909090909,
                "pitch": 43,
                "velocity": 101,
                "duration": 0.08863636363636473,
                "tempo": 120.0
            },
            {
                "start_time": 10.922727272727272,
                "end_time": 11.011363636363637,
                "pitch": 43,
                "velocity": 101,
                "duration": 0.08863636363636473,
                "tempo": 120.0
            },
            {
                "start_time": 11.040909090909091,
                "end_time": 11.131818181818181,
                "pitch": 43,
                "velocity": 101,
                "duration": 0.09090909090908994,
                "tempo": 120.0
            },
            {
                "start_time": 11.161363636363635,
                "end_time": 11.25,
                "pitch": 43,
                "velocity": 101,
                "duration": 0.08863636363636473,
                "tempo": 120.0
            },
            {
                "start_time": 11.281818181818181,
                "end_time": 11.370454545454544,
                "pitch": 43,
                "velocity": 101,
                "duration": 0.08863636363636296,
                "tempo": 120.0
            },
            {
                "start_time": 11.402272727272727,
                "end_time": 11.49090909090909,
                "pitch": 43,
                "velocity": 101,
                "duration": 0.08863636363636296,
                "tempo": 120.0
            },
            {
                "start_time": 11.524999999999999,
                "end_time": 11.73181818181818,
                "pitch": 55,
                "velocity": 80,
                "duration": 0.206818181818182,
                "tempo": 120.0
            },
            {
                "start_time": 11.761363636363635,
                "end_time": 11.85,
                "pitch": 55,
                "velocity": 80,
                "duration": 0.08863636363636473,
                "tempo": 120.0
            },
            {
                "start_time": 11.881818181818181,
                "end_time": 11.970454545454546,
                "pitch": 55,
                "velocity": 80,
                "duration": 0.08863636363636473,
                "tempo": 120.0
            },
            {
                "start_time": 12.002272727272727,
                "end_time": 12.09090909090909,
                "pitch": 55,
                "velocity": 80,
                "duration": 0.08863636363636296,
                "tempo": 120.0
            },
            {
                "start_time": 12.122727272727273,
                "end_time": 12.211363636363636,
                "pitch": 55,
                "velocity": 80,
                "duration": 0.08863636363636296,
                "tempo": 120.0
            },
            {
                "start_time": 12.24090909090909,
                "end_time": 12.45,
                "pitch": 55,
                "velocity": 80,
                "duration": 0.209090909090909,
                "tempo": 120.0
            },
            {
                "start_time": 12.48181818181818,
                "end_time": 12.570454545454545,
                "pitch": 55,
                "velocity": 80,
                "duration": 0.08863636363636473,
                "tempo": 120.0
            },
            {
                "start_time": 12.602272727272727,
                "end_time": 12.69090909090909,
                "pitch": 55,
                "velocity": 80,
                "duration": 0.08863636363636296,
                "tempo": 120.0
            },
            {
                "start_time": 12.720454545454546,
                "end_time": 12.811363636363636,
                "pitch": 55,
                "velocity": 80,
                "duration": 0.09090909090908994,
                "tempo": 120.0
            },
            {
                "start_time": 12.843181818181817,
                "end_time": 12.931818181818182,
                "pitch": 55,
                "velocity": 80,
                "duration": 0.08863636363636473,
                "tempo": 120.0
            },
            {
                "start_time": 12.963636363636363,
                "end_time": 13.170454545454545,
                "pitch": 55,
                "velocity": 80,
                "duration": 0.206818181818182,
                "tempo": 120.0
            },
            {
                "start_time": 13.2,
                "end_time": 13.290909090909091,
                "pitch": 55,
                "velocity": 80,
                "duration": 0.09090909090909172,
                "tempo": 120.0
            },
            {
                "start_time": 13.320454545454545,
                "end_time": 13.406818181818181,
                "pitch": 55,
                "velocity": 80,
                "duration": 0.08636363636363598,
                "tempo": 120.0
            },
            {
                "start_time": 13.438636363636363,
                "end_time": 13.524999999999999,
                "pitch": 55,
                "velocity": 80,
                "duration": 0.08636363636363598,
                "tempo": 120.0
            },
            {
                "start_time": 13.554545454545455,
                "end_time": 13.64090909090909,
                "pitch": 55,
                "velocity": 80,
                "duration": 0.08636363636363598,
                "tempo": 120.0
            },
            {
                "start_time": 13.670454545454545,
                "end_time": 13.879545454545454,
                "pitch": 55,
                "velocity": 80,
                "duration": 0.209090909090909,
                "tempo": 120.0
            },
            {
                "start_time": 13.911363636363635,
                "end_time": 14.0,
                "pitch": 55,
                "velocity": 80,
                "duration": 0.08863636363636473,
                "tempo": 120.0
            },
            {
                "start_time": 14.029545454545454,
                "end_time": 14.120454545454544,
                "pitch": 55,
                "velocity": 80,
                "duration": 0.09090909090908994,
                "tempo": 120.0
            },
            {
                "start_time": 14.149999999999999,
                "end_time": 14.238636363636363,
                "pitch": 55,
                "velocity": 80,
                "duration": 0.08863636363636473,
                "tempo": 120.0
            },
            {
                "start_time": 14.270454545454545,
                "end_time": 14.359090909090908,
                "pitch": 55,
                "velocity": 80,
                "duration": 0.08863636363636296,
                "tempo": 120.0
            },
            {
                "start_time": 14.393181818181818,
                "end_time": 14.6,
                "pitch": 55,
                "velocity": 80,
                "duration": 0.206818181818182,
                "tempo": 120.0
            },
            {
                "start_time": 14.631818181818181,
                "end_time": 14.720454545454544,
                "pitch": 55,
                "velocity": 80,
                "duration": 0.08863636363636296,
                "tempo": 120.0
            },
            {
                "start_time": 14.75,
                "end_time": 14.838636363636363,
                "pitch": 55,
                "velocity": 80,
                "duration": 0.08863636363636296,
                "tempo": 120.0
            },
            {
                "start_time": 14.870454545454544,
                "end_time": 14.959090909090909,
                "pitch": 55,
                "velocity": 80,
                "duration": 0.08863636363636473,
                "tempo": 120.0
            },
            {
                "start_time": 14.99090909090909,
                "end_time": 15.079545454545453,
                "pitch": 55,
                "velocity": 80,
                "duration": 0.08863636363636296,
                "tempo": 120.0
            },
            {
                "start_time": 15.111363636363636,
                "end_time": 15.313636363636363,
                "pitch": 55,
                "velocity": 80,
                "duration": 0.20227272727272627,
                "tempo": 120.0
            },
            {
                "start_time": 15.345454545454544,
                "end_time": 15.429545454545455,
                "pitch": 55,
                "velocity": 80,
                "duration": 0.08409090909091077,
                "tempo": 120.0
            },
            {
                "start_time": 15.461363636363636,
                "end_time": 15.549999999999999,
                "pitch": 55,
                "velocity": 80,
                "duration": 0.08863636363636296,
                "tempo": 120.0
            },
            {
                "start_time": 15.579545454545453,
                "end_time": 15.668181818181818,
                "pitch": 55,
                "velocity": 80,
                "duration": 0.08863636363636473,
                "tempo": 120.0
            },
            {
                "start_time": 15.7,
                "end_time": 15.788636363636362,
                "pitch": 55,
                "velocity": 80,
                "duration": 0.08863636363636296,
                "tempo": 120.0
            },
            {
                "start_time": 15.820454545454545,
                "end_time": 16.029545454545453,
                "pitch": 55,
                "velocity": 80,
                "duration": 0.20909090909090722,
                "tempo": 120.0
            },
            {
                "start_time": 16.05909090909091,
                "end_time": 16.147727272727273,
                "pitch": 55,
                "velocity": 80,
                "duration": 0.08863636363636473,
                "tempo": 120.0
            },
            {
                "start_time": 16.179545454545455,
                "end_time": 16.268181818181816,
                "pitch": 55,
                "velocity": 80,
                "duration": 0.08863636363636118,
                "tempo": 120.0
            },
            {
                "start_time": 16.3,
                "end_time": 16.388636363636362,
                "pitch": 55,
                "velocity": 80,
                "duration": 0.08863636363636118,
                "tempo": 120.0
            },
            {
                "start_time": 16.420454545454543,
                "end_time": 16.509090909090908,
                "pitch": 55,
                "velocity": 80,
                "duration": 0.08863636363636473,
                "tempo": 120.0
            },
            {
                "start_time": 16.54090909090909,
                "end_time": 16.75,
                "pitch": 55,
                "velocity": 80,
                "duration": 0.20909090909091077,
                "tempo": 120.0
            },
            {
                "start_time": 16.779545454545453,
                "end_time": 16.868181818181817,
                "pitch": 55,
                "velocity": 80,
                "duration": 0.08863636363636473,
                "tempo": 120.0
            },
            {
                "start_time": 16.9,
                "end_time": 16.988636363636363,
                "pitch": 55,
                "velocity": 80,
                "duration": 0.08863636363636473,
                "tempo": 120.0
            },
            {
                "start_time": 17.020454545454545,
                "end_time": 17.10909090909091,
                "pitch": 55,
                "velocity": 80,
                "duration": 0.08863636363636473,
                "tempo": 120.0
            },
            {
                "start_time": 17.138636363636362,
                "end_time": 17.229545454545455,
                "pitch": 55,
                "velocity": 80,
                "duration": 0.09090909090909349,
                "tempo": 120.0
            },
            {
                "start_time": 17.263636363636362,
                "end_time": 17.46818181818182,
                "pitch": 55,
                "velocity": 80,
                "duration": 0.2045454545454568,
                "tempo": 120.0
            },
            {
                "start_time": 17.5,
                "end_time": 17.58863636363636,
                "pitch": 55,
                "velocity": 80,
                "duration": 0.08863636363636118,
                "tempo": 120.0
            },
            {
                "start_time": 17.620454545454546,
                "end_time": 17.706818181818182,
                "pitch": 55,
                "velocity": 80,
                "duration": 0.08636363636363598,
                "tempo": 120.0
            },
            {
                "start_time": 17.736363636363635,
                "end_time": 17.82272727272727,
                "pitch": 55,
                "velocity": 80,
                "duration": 0.08636363636363598,
                "tempo": 120.0
            },
            {
                "start_time": 17.852272727272727,
                "end_time": 17.938636363636363,
                "pitch": 55,
                "velocity": 80,
                "duration": 0.08636363636363598,
                "tempo": 120.0
            },
            {
                "start_time": 17.96818181818182,
                "end_time": 18.177272727272726,
                "pitch": 55,
                "velocity": 80,
                "duration": 0.20909090909090722,
                "tempo": 120.0
            },
            {
                "start_time": 18.209090909090907,
                "end_time": 18.297727272727272,
                "pitch": 55,
                "velocity": 80,
                "duration": 0.08863636363636473,
                "tempo": 120.0
            },
            {
                "start_time": 18.329545454545453,
                "end_time": 18.418181818181818,
                "pitch": 55,
                "velocity": 80,
                "duration": 0.08863636363636473,
                "tempo": 120.0
            },
            {
                "start_time": 18.44772727272727,
                "end_time": 18.538636363636364,
                "pitch": 55,
                "velocity": 80,
                "duration": 0.09090909090909349,
                "tempo": 120.0
            },
            {
                "start_time": 18.570454545454545,
                "end_time": 18.659090909090907,
                "pitch": 55,
                "velocity": 80,
                "duration": 0.08863636363636118,
                "tempo": 120.0
            },
            {
                "start_time": 18.69090909090909,
                "end_time": 18.897727272727273,
                "pitch": 55,
                "velocity": 80,
                "duration": 0.206818181818182,
                "tempo": 120.0
            },
            {
                "start_time": 18.927272727272726,
                "end_time": 19.018181818181816,
                "pitch": 55,
                "velocity": 80,
                "duration": 0.09090909090908994,
                "tempo": 120.0
            },
            {
                "start_time": 19.047727272727272,
                "end_time": 19.138636363636362,
                "pitch": 55,
                "velocity": 80,
                "duration": 0.09090909090908994,
                "tempo": 120.0
            },
            {
                "start_time": 19.168181818181818,
                "end_time": 19.25681818181818,
                "pitch": 55,
                "velocity": 80,
                "duration": 0.08863636363636118,
                "tempo": 120.0
            },
            {
                "start_time": 19.288636363636364,
                "end_time": 19.377272727272725,
                "pitch": 55,
                "velocity": 80,
                "duration": 0.08863636363636118,
                "tempo": 120.0
            },
            {
                "start_time": 19.409090909090907,
                "end_time": 19.618181818181817,
                "pitch": 55,
                "velocity": 80,
                "duration": 0.20909090909091077,
                "tempo": 120.0
            },
            {
                "start_time": 19.647727272727273,
                "end_time": 19.738636363636363,
                "pitch": 55,
                "velocity": 80,
                "duration": 0.09090909090908994,
                "tempo": 120.0
            },
            {
                "start_time": 19.768181818181816,
                "end_time": 19.85681818181818,
                "pitch": 55,
                "velocity": 80,
                "duration": 0.08863636363636473,
                "tempo": 120.0
            },
            {
                "start_time": 19.888636363636362,
                "end_time": 19.977272727272727,
                "pitch": 55,
                "velocity": 80,
                "duration": 0.08863636363636473,
                "tempo": 120.0
            },
            {
                "start_time": 20.009090909090908,
                "end_time": 20.097727272727273,
                "pitch": 55,
                "velocity": 80,
                "duration": 0.08863636363636473,
                "tempo": 120.0
            }
        ]
    }
}