{
    "track_id": "15 Dragon",
    "mood": "happy",
    "instruments": {
        "Acoustic Guitar (nylon)": [
            {
                "start_time": 0.006818181818181818,
                "end_time": 0.09999999999999999,
                "pitch": 52,
                "velocity": 64,
                "duration": 0.09318181818181817,
                "tempo": 120.0
            },
            {
                "start_time": 0.10227272727272727,
                "end_time": 0.20227272727272727,
                "pitch": 52,
                "velocity": 64,
                "duration": 0.1,
                "tempo": 120.0
            },
            {
                "start_time": 0.006818181818181818,
                "end_time": 0.30227272727272725,
                "pitch": 0,
                "velocity": 64,
                "duration": 0.2954545454545454,
                "tempo": 120.0
            },
            {
                "start_time": 0.20227272727272727,
                "end_time": 0.30227272727272725,
                "pitch": 55,
                "velocity": 64,
                "duration": 0.09999999999999998,
                "tempo": 120.0
            },
            {
                "start_time": 0.30227272727272725,
                "end_time": 0.4022727272727272,
                "pitch": 52,
                "velocity": 64,
                "duration": 0.09999999999999998,
                "tempo": 120.0
            },
            {
                "start_time": 0.4022727272727272,
                "end_time": 0.5045454545454545,
                "pitch": 52,
                "velocity": 64,
                "duration": 0.10227272727272729,
                "tempo": 120.0
            },
            {
                "start_time": 0.20227272727272727,
                "end_time": 0.5045454545454545,
                "pitch": 66,
                "velocity": 64,
                "duration": 0.30227272727272725,
                "tempo": 120.0
            },
            {
                "start_time": 0.5045454545454545,
                "end_time": 0.6068181818181818,
                "pitch": 55,
                "velocity": 64,
                "duration": 0.10227272727272729,
                "tempo": 120.0
            },
            {
                "start_time": 0.6068181818181818,
                "end_time": 0.7090909090909091,
                "pitch": 55,
                "velocity": 64,
                "duration": 0.10227272727272729,
                "tempo": 120.0
            },
            {
                "start_time": 0.7090909090909091,
                "end_time": 0.7113636363636363,
                "pitch": 18,
                "velocity": 64,
                "duration": 0.002272727272727204,
                "tempo": 120.0
            },
            {
                "start_time": 0.7113636363636363,
                "end_time": 0.8136363636363636,
                "pitch": 53,
                "velocity": 64,
                "duration": 0.10227272727272729,
                "tempo": 120.0
            },
            {
                "start_time": 0.5045454545454545,
                "end_time": 0.8136363636363636,
                "pitch": 66,
                "velocity": 64,
                "duration": 0.3090909090909091,
                "tempo": 120.0
            },
            {
                "start_time": 0.8136363636363636,
                "end_time": 0.9113636363636363,
                "pitch": 55,
                "velocity": 64,
                "duration": 0.09772727272727266,
                "tempo": 120.0
            },
            {
                "start_time": 0.9113636363636363,
                "end_time": 1.009090909090909,
                "pitch": 55,
                "velocity": 64,
                "duration": 0.09772727272727277,
                "tempo": 120.0
            },
            {
                "start_time": 1.009090909090909,
                "end_time": 1.1068181818181817,
                "pitch": 59,
                "velocity": 64,
                "duration": 0.09772727272727266,
                "tempo": 120.0
            },
            {
                "start_time": 1.1068181818181817,
                "end_time": 1.2068181818181818,
                "pitch": 55,
                "velocity": 64,
                "duration": 0.10000000000000009,
                "tempo": 120.0
            },
            {
                "start_time": 1.2068181818181818,
                "end_time": 1.3068181818181817,
                "pitch": 55,
                "velocity": 64,
                "duration": 0.09999999999999987,
                "tempo": 120.0
            },
            {
                "start_time": 1.009090909090909,
                "end_time": 1.3068181818181817,
                "pitch": 57,
                "velocity": 64,
                "duration": 0.2977272727272726,
                "tempo": 120.0
            },
            {
                "start_time": 1.1068181818181817,
                "end_time": 1.4068181818181817,
                "pitch": 59,
                "velocity": 64,
                "duration": 0.30000000000000004,
                "tempo": 120.0
            },
            {
                "start_time": 1.3068181818181817,
                "end_time": 1.4068181818181817,
                "pitch": 59,
                "velocity": 64,
                "duration": 0.10000000000000009,
                "tempo": 120.0
            },
            {
                "start_time": 1.4068181818181817,
                "end_time": 1.5068181818181818,
                "pitch": 60,
                "velocity": 64,
                "duration": 0.10000000000000009,
                "tempo": 120.0
            },
            {
                "start_time": 1.5068181818181818,
                "end_time": 1.6068181818181817,
                "pitch": 62,
                "velocity": 64,
                "duration": 0.09999999999999987,
                "tempo": 120.0
            }
        ],
        "Trumpet": [
            {
                "start_time": 1.8136363636363635,
                "end_time": 2.502272727272727,
                "pitch": 79,
                "velocity": 32,
                "duration": 0.6886363636363635,
                "tempo": 120.0
            },
            {
                "start_time": 2.502272727272727,
                "end_time": 2.6363636363636362,
                "pitch": 79,
                "velocity": 32,
                "duration": 0.13409090909090926,
                "tempo": 120.0
            },
            {
                "start_time": 2.502272727272727,
                "end_time": 2.6363636363636362,
                "pitch": 91,
                "velocity": 32,
                "duration": 0.13409090909090926,
                "tempo": 120.0
            },
            {
                "start_time": 2.6363636363636362,
                "end_time": 2.7727272727272725,
                "pitch": 79,
                "velocity": 32,
                "duration": 0.13636363636363624,
                "tempo": 120.0
            },
            {
                "start_time": 2.6363636363636362,
                "end_time": 2.7727272727272725,
                "pitch": 91,
                "velocity": 32,
                "duration": 0.13636363636363624,
                "tempo": 120.0
            },
            {
                "start_time": 2.7727272727272725,
                "end_time": 2.9045454545454543,
                "pitch": 79,
                "velocity": 32,
                "duration": 0.13181818181818183,
                "tempo": 120.0
            },
            {
                "start_time": 2.7727272727272725,
                "end_time": 2.9045454545454543,
                "pitch": 91,
                "velocity": 32,
                "duration": 0.13181818181818183,
                "tempo": 120.0
            },
            {
                "start_time": 2.9045454545454543,
                "end_time": 3.0386363636363636,
                "pitch": 79,
                "velocity": 32,
                "duration": 0.13409090909090926,
                "tempo": 120.0
            },
            {
                "start_time": 2.9045454545454543,
                "end_time": 3.0386363636363636,
                "pitch": 91,
                "velocity": 32,
                "duration": 0.13409090909090926,
                "tempo": 120.0
            },
            {
                "start_time": 3.0386363636363636,
                "end_time": 3.1727272727272724,
                "pitch": 79,
                "velocity": 32,
                "duration": 0.13409090909090882,
                "tempo": 120.0
            },
            {
                "start_time": 3.0386363636363636,
                "end_time": 3.1727272727272724,
                "pitch": 91,
                "velocity": 32,
                "duration": 0.13409090909090882,
                "tempo": 120.0
            },
            {
                "start_time": 3.1727272727272724,
                "end_time": 3.3045454545454542,
                "pitch": 79,
                "velocity": 32,
                "duration": 0.13181818181818183,
                "tempo": 120.0
            },
            {
                "start_time": 3.1727272727272724,
                "end_time": 3.3045454545454542,
                "pitch": 91,
                "velocity": 32,
                "duration": 0.13181818181818183,
                "tempo": 120.0
            },
            {
                "start_time": 3.3045454545454542,
                "end_time": 3.4227272727272724,
                "pitch": 79,
                "velocity": 32,
                "duration": 0.11818181818181817,
                "tempo": 120.0
            },
            {
                "start_time": 3.4227272727272724,
                "end_time": 4.072727272727272,
                "pitch": 79,
                "velocity": 32,
                "duration": 0.6499999999999999,
                "tempo": 120.0
            },
            {
                "start_time": 4.072727272727272,
                "end_time": 4.225,
                "pitch": 77,
                "velocity": 32,
                "duration": 0.15227272727272734,
                "tempo": 120.0
            },
            {
                "start_time": 4.225,
                "end_time": 4.425,
                "pitch": 77,
                "velocity": 32,
                "duration": 0.20000000000000018,
                "tempo": 120.0
            },
            {
                "start_time": 1.8136363636363635,
                "end_time": 4.425,
                "pitch": 90,
                "velocity": 32,
                "duration": 2.6113636363636363,
                "tempo": 120.0
            },
            {
                "start_time": 4.425,
                "end_time": 4.627272727272727,
                "pitch": 81,
                "velocity": 32,
                "duration": 0.20227272727272716,
                "tempo": 120.0
            },
            {
                "start_time": 4.829545454545454,
                "end_time": 5.029545454545454,
                "pitch": 81,
                "velocity": 32,
                "duration": 0.20000000000000018,
                "tempo": 120.0
            },
            {
                "start_time": 5.2295454545454545,
                "end_time": 5.870454545454545,
                "pitch": 81,
                "velocity": 32,
                "duration": 0.6409090909090907,
                "tempo": 120.0
            },
            {
                "start_time": 5.870454545454545,
                "end_time": 5.922727272727273,
                "pitch": 79,
                "velocity": 32,
                "duration": 0.05227272727272769,
                "tempo": 120.0
            },
            {
                "start_time": 3.3045454545454542,
                "end_time": 5.922727272727273,
                "pitch": 91,
                "velocity": 32,
                "duration": 2.6181818181818186,
                "tempo": 120.0
            },
            {
                "start_time": 5.922727272727273,
                "end_time": 6.059090909090909,
                "pitch": 79,
                "velocity": 32,
                "duration": 0.1363636363636358,
                "tempo": 120.0
            },
            {
                "start_time": 5.922727272727273,
                "end_time": 6.059090909090909,
                "pitch": 91,
                "velocity": 32,
                "duration": 0.1363636363636358,
                "tempo": 120.0
            },
            {
                "start_time": 6.059090909090909,
                "end_time": 6.1931818181818175,
                "pitch": 79,
                "velocity": 32,
                "duration": 0.13409090909090882,
                "tempo": 120.0
            },
            {
                "start_time": 6.059090909090909,
                "end_time": 6.1931818181818175,
                "pitch": 91,
                "velocity": 32,
                "duration": 0.13409090909090882,
                "tempo": 120.0
            },
            {
                "start_time": 6.1931818181818175,
                "end_time": 6.327272727272727,
                "pitch": 79,
                "velocity": 32,
                "duration": 0.1340909090909097,
                "tempo": 120.0
            },
            {
                "start_time": 6.1931818181818175,
                "end_time": 6.327272727272727,
                "pitch": 91,
                "velocity": 32,
                "duration": 0.1340909090909097,
                "tempo": 120.0
            },
            {
                "start_time": 6.327272727272727,
                "end_time": 6.459090909090909,
                "pitch": 79,
                "velocity": 32,
                "duration": 0.13181818181818183,
                "tempo": 120.0
            },
            {
                "start_time": 6.327272727272727,
                "end_time": 6.459090909090909,
                "pitch": 91,
                "velocity": 32,
                "duration": 0.13181818181818183,
                "tempo": 120.0
            },
            {
                "start_time": 6.459090909090909,
                "end_time": 6.595454545454545,
                "pitch": 79,
                "velocity": 32,
                "duration": 0.1363636363636358,
                "tempo": 120.0
            },
            {
                "start_time": 6.459090909090909,
                "end_time": 6.595454545454545,
                "pitch": 91,
                "velocity": 32,
                "duration": 0.1363636363636358,
                "tempo": 120.0
            },
            {
                "start_time": 6.595454545454545,
                "end_time": 6.7295454545454545,
                "pitch": 79,
                "velocity": 32,
                "duration": 0.1340909090909097,
                "tempo": 120.0
            },
            {
                "start_time": 6.595454545454545,
                "end_time": 6.7295454545454545,
                "pitch": 91,
                "velocity": 32,
                "duration": 0.1340909090909097,
                "tempo": 120.0
            },
            {
                "start_time": 6.7295454545454545,
                "end_time": 6.863636363636363,
                "pitch": 79,
                "velocity": 32,
                "duration": 0.13409090909090882,
                "tempo": 120.0
            },
            {
                "start_time": 6.7295454545454545,
                "end_time": 6.863636363636363,
                "pitch": 91,
                "velocity": 32,
                "duration": 0.13409090909090882,
                "tempo": 120.0
            },
            {
                "start_time": 6.863636363636363,
                "end_time": 6.997727272727272,
                "pitch": 79,
                "velocity": 32,
                "duration": 0.13409090909090882,
                "tempo": 120.0
            },
            {
                "start_time": 6.863636363636363,
                "end_time": 6.997727272727272,
                "pitch": 91,
                "velocity": 32,
                "duration": 0.13409090909090882,
                "tempo": 120.0
            },
            {
                "start_time": 6.997727272727272,
                "end_time": 7.131818181818182,
                "pitch": 79,
                "velocity": 32,
                "duration": 0.1340909090909097,
                "tempo": 120.0
            },
            {
                "start_time": 6.997727272727272,
                "end_time": 7.131818181818182,
                "pitch": 91,
                "velocity": 32,
                "duration": 0.1340909090909097,
                "tempo": 120.0
            },
            {
                "start_time": 7.131818181818182,
                "end_time": 7.265909090909091,
                "pitch": 79,
                "velocity": 32,
                "duration": 0.13409090909090882,
                "tempo": 120.0
            },
            {
                "start_time": 7.131818181818182,
                "end_time": 7.265909090909091,
                "pitch": 91,
                "velocity": 32,
                "duration": 0.13409090909090882,
                "tempo": 120.0
            },
            {
                "start_time": 7.265909090909091,
                "end_time": 7.3999999999999995,
                "pitch": 79,
                "velocity": 32,
                "duration": 0.13409090909090882,
                "tempo": 120.0
            },
            {
                "start_time": 7.265909090909091,
                "end_time": 7.3999999999999995,
                "pitch": 91,
                "velocity": 32,
                "duration": 0.13409090909090882,
                "tempo": 120.0
            },
            {
                "start_time": 7.3999999999999995,
                "end_time": 7.534090909090908,
                "pitch": 79,
                "velocity": 32,
                "duration": 0.13409090909090882,
                "tempo": 120.0
            },
            {
                "start_time": 7.3999999999999995,
                "end_time": 7.534090909090908,
                "pitch": 91,
                "velocity": 32,
                "duration": 0.13409090909090882,
                "tempo": 120.0
            },
            {
                "start_time": 7.534090909090908,
                "end_time": 7.66590909090909,
                "pitch": 79,
                "velocity": 32,
                "duration": 0.13181818181818183,
                "tempo": 120.0
            },
            {
                "start_time": 7.534090909090908,
                "end_time": 7.66590909090909,
                "pitch": 91,
                "velocity": 32,
                "duration": 0.13181818181818183,
                "tempo": 120.0
            },
            {
                "start_time": 7.66590909090909,
                "end_time": 7.802272727272727,
                "pitch": 79,
                "velocity": 32,
                "duration": 0.1363636363636367,
                "tempo": 120.0
            },
            {
                "start_time": 7.66590909090909,
                "end_time": 7.802272727272727,
                "pitch": 91,
                "velocity": 32,
                "duration": 0.1363636363636367,
                "tempo": 120.0
            },
            {
                "start_time": 7.802272727272727,
                "end_time": 7.936363636363636,
                "pitch": 79,
                "velocity": 32,
                "duration": 0.13409090909090882,
                "tempo": 120.0
            },
            {
                "start_time": 7.802272727272727,
                "end_time": 7.936363636363636,
                "pitch": 91,
                "velocity": 32,
                "duration": 0.13409090909090882,
                "tempo": 120.0
            },
            {
                "start_time": 7.936363636363636,
                "end_time": 8.070454545454545,
                "pitch": 79,
                "velocity": 32,
                "duration": 0.1340909090909097,
                "tempo": 120.0
            },
            {
                "start_time": 7.936363636363636,
                "end_time": 8.070454545454545,
                "pitch": 91,
                "velocity": 32,
                "duration": 0.1340909090909097,
                "tempo": 120.0
            },
            {
                "start_time": 8.070454545454545,
                "end_time": 8.202272727272726,
                "pitch": 79,
                "velocity": 32,
                "duration": 0.13181818181818095,
                "tempo": 120.0
            },
            {
                "start_time": 8.070454545454545,
                "end_time": 8.202272727272726,
                "pitch": 91,
                "velocity": 32,
                "duration": 0.13181818181818095,
                "tempo": 120.0
            },
            {
                "start_time": 8.202272727272726,
                "end_time": 8.254545454545454,
                "pitch": 79,
                "velocity": 32,
                "duration": 0.05227272727272769,
                "tempo": 120.0
            },
            {
                "start_time": 8.254545454545454,
                "end_time": 8.940909090909091,
                "pitch": 79,
                "velocity": 32,
                "duration": 0.6863636363636374,
                "tempo": 120.0
            },
            {
                "start_time": 8.202272727272726,
                "end_time": 8.940909090909091,
                "pitch": 91,
                "velocity": 32,
                "duration": 0.7386363636363651,
                "tempo": 120.0
            },
            {
                "start_time": 8.940909090909091,
                "end_time": 9.075,
                "pitch": 79,
                "velocity": 32,
                "duration": 0.13409090909090793,
                "tempo": 120.0
            },
            {
                "start_time": 8.940909090909091,
                "end_time": 9.075,
                "pitch": 91,
                "velocity": 32,
                "duration": 0.13409090909090793,
                "tempo": 120.0
            },
            {
                "start_time": 9.075,
                "end_time": 9.209090909090909,
                "pitch": 79,
                "velocity": 32,
                "duration": 0.1340909090909097,
                "tempo": 120.0
            },
            {
                "start_time": 9.075,
                "end_time": 9.209090909090909,
                "pitch": 91,
                "velocity": 32,
                "duration": 0.1340909090909097,
                "tempo": 120.0
            },
            {
                "start_time": 9.209090909090909,
                "end_time": 9.345454545454546,
                "pitch": 79,
                "velocity": 32,
                "duration": 0.1363636363636367,
                "tempo": 120.0
            },
            {
                "start_time": 9.209090909090909,
                "end_time": 9.345454545454546,
                "pitch": 91,
                "velocity": 32,
                "duration": 0.1363636363636367,
                "tempo": 120.0
            },
            {
                "start_time": 9.345454545454546,
                "end_time": 9.479545454545454,
                "pitch": 79,
                "velocity": 32,
                "duration": 0.13409090909090793,
                "tempo": 120.0
            },
            {
                "start_time": 9.345454545454546,
                "end_time": 9.479545454545454,
                "pitch": 91,
                "velocity": 32,
                "duration": 0.13409090909090793,
                "tempo": 120.0
            },
            {
                "start_time": 9.479545454545454,
                "end_time": 9.613636363636363,
                "pitch": 79,
                "velocity": 32,
                "duration": 0.1340909090909097,
                "tempo": 120.0
            },
            {
                "start_time": 9.479545454545454,
                "end_time": 9.613636363636363,
                "pitch": 91,
                "velocity": 32,
                "duration": 0.1340909090909097,
                "tempo": 120.0
            },
            {
                "start_time": 9.613636363636363,
                "end_time": 9.745454545454544,
                "pitch": 79,
                "velocity": 32,
                "duration": 0.13181818181818095,
                "tempo": 120.0
            },
            {
                "start_time": 9.613636363636363,
                "end_time": 9.747727272727273,
                "pitch": 91,
                "velocity": 32,
                "duration": 0.1340909090909097,
                "tempo": 120.0
            },
            {
                "start_time": 9.745454545454544,
                "end_time": 9.747727272727273,
                "pitch": 91,
                "velocity": 32,
                "duration": 0.0022727272727287584,
                "tempo": 120.0
            },
            {
                "start_time": 9.747727272727273,
                "end_time": 9.863636363636363,
                "pitch": 79,
                "velocity": 32,
                "duration": 0.1159090909090903,
                "tempo": 120.0
            },
            {
                "start_time": 9.86590909090909,
                "end_time": 10.518181818181818,
                "pitch": 79,
                "velocity": 32,
                "duration": 0.6522727272727273,
                "tempo": 120.0
            },
            {
                "start_time": 10.518181818181818,
                "end_time": 10.670454545454545,
                "pitch": 77,
                "velocity": 32,
                "duration": 0.15227272727272734,
                "tempo": 120.0
            },
            {
                "start_time": 10.670454545454545,
                "end_time": 10.870454545454544,
                "pitch": 77,
                "velocity": 32,
                "duration": 0.1999999999999993,
                "tempo": 120.0
            },
            {
                "start_time": 4.425,
                "end_time": 10.870454545454544,
                "pitch": 90,
                "velocity": 32,
                "duration": 6.445454545454544,
                "tempo": 120.0
            },
            {
                "start_time": 10.870454545454544,
                "end_time": 11.072727272727272,
                "pitch": 81,
                "velocity": 32,
                "duration": 0.20227272727272805,
                "tempo": 120.0
            },
            {
                "start_time": 11.274999999999999,
                "end_time": 11.477272727272727,
                "pitch": 81,
                "velocity": 32,
                "duration": 0.20227272727272805,
                "tempo": 120.0
            },
            {
                "start_time": 11.677272727272726,
                "end_time": 12.311363636363636,
                "pitch": 81,
                "velocity": 32,
                "duration": 0.6340909090909097,
                "tempo": 120.0
            },
            {
                "start_time": 12.311363636363636,
                "end_time": 12.363636363636363,
                "pitch": 79,
                "velocity": 32,
                "duration": 0.05227272727272769,
                "tempo": 120.0
            },
            {
                "start_time": 12.363636363636363,
                "end_time": 12.497727272727271,
                "pitch": 79,
                "velocity": 32,
                "duration": 0.13409090909090793,
                "tempo": 120.0
            },
            {
                "start_time": 12.363636363636363,
                "end_time": 12.497727272727271,
                "pitch": 91,
                "velocity": 32,
                "duration": 0.13409090909090793,
                "tempo": 120.0
            },
            {
                "start_time": 12.497727272727271,
                "end_time": 12.631818181818181,
                "pitch": 79,
                "velocity": 32,
                "duration": 0.1340909090909097,
                "tempo": 120.0
            },
            {
                "start_time": 12.497727272727271,
                "end_time": 12.631818181818181,
                "pitch": 91,
                "velocity": 32,
                "duration": 0.1340909090909097,
                "tempo": 120.0
            },
            {
                "start_time": 12.631818181818181,
                "end_time": 12.76590909090909,
                "pitch": 79,
                "velocity": 32,
                "duration": 0.1340909090909097,
                "tempo": 120.0
            },
            {
                "start_time": 12.631818181818181,
                "end_time": 12.76590909090909,
                "pitch": 91,
                "velocity": 32,
                "duration": 0.1340909090909097,
                "tempo": 120.0
            },
            {
                "start_time": 12.76590909090909,
                "end_time": 12.899999999999999,
                "pitch": 79,
                "velocity": 32,
                "duration": 0.13409090909090793,
                "tempo": 120.0
            },
            {
                "start_time": 12.76590909090909,
                "end_time": 12.899999999999999,
                "pitch": 91,
                "velocity": 32,
                "duration": 0.13409090909090793,
                "tempo": 120.0
            },
            {
                "start_time": 12.899999999999999,
                "end_time": 13.036363636363635,
                "pitch": 79,
                "velocity": 32,
                "duration": 0.1363636363636367,
                "tempo": 120.0
            },
            {
                "start_time": 12.899999999999999,
                "end_time": 13.036363636363635,
                "pitch": 91,
                "velocity": 32,
                "duration": 0.1363636363636367,
                "tempo": 120.0
            },
            {
                "start_time": 13.036363636363635,
                "end_time": 13.170454545454545,
                "pitch": 79,
                "velocity": 32,
                "duration": 0.1340909090909097,
                "tempo": 120.0
            },
            {
                "start_time": 13.036363636363635,
                "end_time": 13.170454545454545,
                "pitch": 91,
                "velocity": 32,
                "duration": 0.1340909090909097,
                "tempo": 120.0
            },
            {
                "start_time": 13.170454545454545,
                "end_time": 13.304545454545455,
                "pitch": 79,
                "velocity": 32,
                "duration": 0.1340909090909097,
                "tempo": 120.0
            },
            {
                "start_time": 13.170454545454545,
                "end_time": 13.304545454545455,
                "pitch": 91,
                "velocity": 32,
                "duration": 0.1340909090909097,
                "tempo": 120.0
            },
            {
                "start_time": 13.304545454545455,
                "end_time": 13.44090909090909,
                "pitch": 79,
                "velocity": 32,
                "duration": 0.1363636363636349,
                "tempo": 120.0
            },
            {
                "start_time": 13.304545454545455,
                "end_time": 13.44090909090909,
                "pitch": 91,
                "velocity": 32,
                "duration": 0.1363636363636349,
                "tempo": 120.0
            },
            {
                "start_time": 13.44090909090909,
                "end_time": 13.577272727272726,
                "pitch": 79,
                "velocity": 32,
                "duration": 0.1363636363636367,
                "tempo": 120.0
            },
            {
                "start_time": 13.44090909090909,
                "end_time": 13.577272727272726,
                "pitch": 91,
                "velocity": 32,
                "duration": 0.1363636363636367,
                "tempo": 120.0
            },
            {
                "start_time": 13.577272727272726,
                "end_time": 13.713636363636363,
                "pitch": 79,
                "velocity": 32,
                "duration": 0.1363636363636367,
                "tempo": 120.0
            },
            {
                "start_time": 13.577272727272726,
                "end_time": 13.713636363636363,
                "pitch": 91,
                "velocity": 32,
                "duration": 0.1363636363636367,
                "tempo": 120.0
            },
            {
                "start_time": 13.713636363636363,
                "end_time": 13.845454545454544,
                "pitch": 79,
                "velocity": 32,
                "duration": 0.13181818181818095,
                "tempo": 120.0
            },
            {
                "start_time": 13.713636363636363,
                "end_time": 13.845454545454544,
                "pitch": 91,
                "velocity": 32,
                "duration": 0.13181818181818095,
                "tempo": 120.0
            },
            {
                "start_time": 13.845454545454544,
                "end_time": 13.977272727272727,
                "pitch": 79,
                "velocity": 32,
                "duration": 0.13181818181818272,
                "tempo": 120.0
            },
            {
                "start_time": 13.845454545454544,
                "end_time": 13.977272727272727,
                "pitch": 91,
                "velocity": 32,
                "duration": 0.13181818181818272,
                "tempo": 120.0
            },
            {
                "start_time": 13.977272727272727,
                "end_time": 14.109090909090908,
                "pitch": 79,
                "velocity": 32,
                "duration": 0.13181818181818095,
                "tempo": 120.0
            },
            {
                "start_time": 13.977272727272727,
                "end_time": 14.109090909090908,
                "pitch": 91,
                "velocity": 32,
                "duration": 0.13181818181818095,
                "tempo": 120.0
            },
            {
                "start_time": 14.109090909090908,
                "end_time": 14.245454545454544,
                "pitch": 79,
                "velocity": 32,
                "duration": 0.1363636363636367,
                "tempo": 120.0
            },
            {
                "start_time": 14.109090909090908,
                "end_time": 14.245454545454544,
                "pitch": 91,
                "velocity": 32,
                "duration": 0.1363636363636367,
                "tempo": 120.0
            },
            {
                "start_time": 14.245454545454544,
                "end_time": 14.297727272727272,
                "pitch": 79,
                "velocity": 32,
                "duration": 0.05227272727272769,
                "tempo": 120.0
            },
            {
                "start_time": 40.22954545454545,
                "end_time": 40.429545454545455,
                "pitch": 72,
                "velocity": 40,
                "duration": 0.20000000000000284,
                "tempo": 120.0
            },
            {
                "start_time": 40.83181818181818,
                "end_time": 41.23181818181818,
                "pitch": 70,
                "velocity": 40,
                "duration": 0.3999999999999986,
                "tempo": 120.0
            },
            {
                "start_time": 41.23181818181818,
                "end_time": 41.43181818181818,
                "pitch": 70,
                "velocity": 40,
                "duration": 0.20000000000000284,
                "tempo": 120.0
            },
            {
                "start_time": 41.43181818181818,
                "end_time": 41.63181818181818,
                "pitch": 72,
                "velocity": 40,
                "duration": 0.20000000000000284,
                "tempo": 120.0
            },
            {
                "start_time": 41.63181818181818,
                "end_time": 41.83181818181818,
                "pitch": 74,
                "velocity": 40,
                "duration": 0.19999999999999574,
                "tempo": 120.0
            },
            {
                "start_time": 41.83181818181818,
                "end_time": 41.834090909090904,
                "pitch": 74,
                "velocity": 40,
                "duration": 0.0022727272727252057,
                "tempo": 120.0
            },
            {
                "start_time": 40.83181818181818,
                "end_time": 42.03181818181818,
                "pitch": 76,
                "velocity": 40,
                "duration": 1.2000000000000028,
                "tempo": 120.0
            },
            {
                "start_time": 41.834090909090904,
                "end_time": 42.03181818181818,
                "pitch": 76,
                "velocity": 40,
                "duration": 0.19772727272727764,
                "tempo": 120.0
            },
            {
                "start_time": 42.03409090909091,
                "end_time": 43.445454545454545,
                "pitch": 70,
                "velocity": 40,
                "duration": 1.4113636363636388,
                "tempo": 120.0
            },
            {
                "start_time": 43.445454545454545,
                "end_time": 43.64772727272727,
                "pitch": 70,
                "velocity": 40,
                "duration": 0.20227272727272805,
                "tempo": 120.0
            },
            {
                "start_time": 41.63181818181818,
                "end_time": 44.449999999999996,
                "pitch": 72,
                "velocity": 40,
                "duration": 2.818181818181813,
                "tempo": 120.0
            },
            {
                "start_time": 44.05,
                "end_time": 44.449999999999996,
                "pitch": 72,
                "velocity": 40,
                "duration": 0.3999999999999986,
                "tempo": 120.0
            },
            {
                "start_time": 44.449999999999996,
                "end_time": 44.55,
                "pitch": 69,
                "velocity": 40,
                "duration": 0.10000000000000142,
                "tempo": 120.0
            },
            {
                "start_time": 41.43181818181818,
                "end_time": 44.65,
                "pitch": 50,
                "velocity": 40,
                "duration": 3.2181818181818187,
                "tempo": 120.0
            },
            {
                "start_time": 44.55,
                "end_time": 44.65,
                "pitch": 69,
                "velocity": 40,
                "duration": 0.10000000000000142,
                "tempo": 120.0
            },
            {
                "start_time": 44.65,
                "end_time": 44.75,
                "pitch": 72,
                "velocity": 40,
                "duration": 0.10000000000000142,
                "tempo": 120.0
            },
            {
                "start_time": 44.449999999999996,
                "end_time": 44.849999999999994,
                "pitch": 76,
                "velocity": 40,
                "duration": 0.3999999999999986,
                "tempo": 120.0
            },
            {
                "start_time": 44.849999999999994,
                "end_time": 44.949999999999996,
                "pitch": 69,
                "velocity": 40,
                "duration": 0.10000000000000142,
                "tempo": 120.0
            },
            {
                "start_time": 44.65,
                "end_time": 45.05,
                "pitch": 50,
                "velocity": 40,
                "duration": 0.3999999999999986,
                "tempo": 120.0
            },
            {
                "start_time": 44.949999999999996,
                "end_time": 45.05,
                "pitch": 69,
                "velocity": 40,
                "duration": 0.10000000000000142,
                "tempo": 120.0
            },
            {
                "start_time": 45.05,
                "end_time": 46.65681818181818,
                "pitch": 72,
                "velocity": 40,
                "duration": 1.6068181818181841,
                "tempo": 120.0
            }
        ],
        "Clarinet": [
            {
                "start_time": 14.7,
                "end_time": 15.1,
                "pitch": 67,
                "velocity": 51,
                "duration": 0.40000000000000036,
                "tempo": 120.0
            },
            {
                "start_time": 15.1,
                "end_time": 15.149999999999999,
                "pitch": 67,
                "velocity": 51,
                "duration": 0.049999999999998934,
                "tempo": 120.0
            },
            {
                "start_time": 15.1,
                "end_time": 15.236363636363636,
                "pitch": 0,
                "velocity": 51,
                "duration": 0.1363636363636367,
                "tempo": 120.0
            },
            {
                "start_time": 15.149999999999999,
                "end_time": 15.236363636363636,
                "pitch": 67,
                "velocity": 51,
                "duration": 0.08636363636363775,
                "tempo": 120.0
            },
            {
                "start_time": 15.236363636363636,
                "end_time": 15.288636363636362,
                "pitch": 67,
                "velocity": 51,
                "duration": 0.052272727272725916,
                "tempo": 120.0
            },
            {
                "start_time": 15.149999999999999,
                "end_time": 15.288636363636362,
                "pitch": 79,
                "velocity": 51,
                "duration": 0.13863636363636367,
                "tempo": 120.0
            },
            {
                "start_time": 15.236363636363636,
                "end_time": 15.372727272727271,
                "pitch": 0,
                "velocity": 51,
                "duration": 0.1363636363636349,
                "tempo": 120.0
            },
            {
                "start_time": 15.288636363636362,
                "end_time": 15.372727272727271,
                "pitch": 67,
                "velocity": 51,
                "duration": 0.084090909090909,
                "tempo": 120.0
            },
            {
                "start_time": 15.372727272727271,
                "end_time": 15.422727272727272,
                "pitch": 67,
                "velocity": 51,
                "duration": 0.05000000000000071,
                "tempo": 120.0
            },
            {
                "start_time": 15.288636363636362,
                "end_time": 15.422727272727272,
                "pitch": 79,
                "velocity": 51,
                "duration": 0.1340909090909097,
                "tempo": 120.0
            },
            {
                "start_time": 15.372727272727271,
                "end_time": 15.506818181818181,
                "pitch": 0,
                "velocity": 51,
                "duration": 0.1340909090909097,
                "tempo": 120.0
            },
            {
                "start_time": 15.422727272727272,
                "end_time": 15.506818181818181,
                "pitch": 67,
                "velocity": 51,
                "duration": 0.084090909090909,
                "tempo": 120.0
            },
            {
                "start_time": 15.506818181818181,
                "end_time": 15.556818181818182,
                "pitch": 67,
                "velocity": 51,
                "duration": 0.05000000000000071,
                "tempo": 120.0
            },
            {
                "start_time": 15.422727272727272,
                "end_time": 15.556818181818182,
                "pitch": 79,
                "velocity": 51,
                "duration": 0.1340909090909097,
                "tempo": 120.0
            },
            {
                "start_time": 15.506818181818181,
                "end_time": 15.64090909090909,
                "pitch": 0,
                "velocity": 51,
                "duration": 0.1340909090909097,
                "tempo": 120.0
            },
            {
                "start_time": 15.556818181818182,
                "end_time": 15.64090909090909,
                "pitch": 67,
                "velocity": 51,
                "duration": 0.084090909090909,
                "tempo": 120.0
            },
            {
                "start_time": 15.64090909090909,
                "end_time": 15.69090909090909,
                "pitch": 67,
                "velocity": 51,
                "duration": 0.049999999999998934,
                "tempo": 120.0
            },
            {
                "start_time": 15.556818181818182,
                "end_time": 15.69090909090909,
                "pitch": 79,
                "velocity": 51,
                "duration": 0.13409090909090793,
                "tempo": 120.0
            },
            {
                "start_time": 15.64090909090909,
                "end_time": 15.774999999999999,
                "pitch": 0,
                "velocity": 51,
                "duration": 0.13409090909090793,
                "tempo": 120.0
            },
            {
                "start_time": 15.69090909090909,
                "end_time": 15.774999999999999,
                "pitch": 67,
                "velocity": 51,
                "duration": 0.084090909090909,
                "tempo": 120.0
            },
            {
                "start_time": 15.774999999999999,
                "end_time": 15.827272727272726,
                "pitch": 67,
                "velocity": 51,
                "duration": 0.05227272727272769,
                "tempo": 120.0
            },
            {
                "start_time": 15.69090909090909,
                "end_time": 15.827272727272726,
                "pitch": 79,
                "velocity": 51,
                "duration": 0.1363636363636367,
                "tempo": 120.0
            },
            {
                "start_time": 15.774999999999999,
                "end_time": 15.911363636363635,
                "pitch": 0,
                "velocity": 51,
                "duration": 0.1363636363636367,
                "tempo": 120.0
            },
            {
                "start_time": 15.827272727272726,
                "end_time": 15.911363636363635,
                "pitch": 67,
                "velocity": 51,
                "duration": 0.084090909090909,
                "tempo": 120.0
            },
            {
                "start_time": 15.911363636363635,
                "end_time": 15.961363636363636,
                "pitch": 67,
                "velocity": 51,
                "duration": 0.05000000000000071,
                "tempo": 120.0
            },
            {
                "start_time": 15.827272727272726,
                "end_time": 15.961363636363636,
                "pitch": 79,
                "velocity": 51,
                "duration": 0.1340909090909097,
                "tempo": 120.0
            },
            {
                "start_time": 15.911363636363635,
                "end_time": 16.045454545454543,
                "pitch": 0,
                "velocity": 51,
                "duration": 0.13409090909090793,
                "tempo": 120.0
            },
            {
                "start_time": 15.961363636363636,
                "end_time": 16.045454545454543,
                "pitch": 67,
                "velocity": 51,
                "duration": 0.08409090909090722,
                "tempo": 120.0
            },
            {
                "start_time": 16.045454545454543,
                "end_time": 16.095454545454544,
                "pitch": 67,
                "velocity": 51,
                "duration": 0.05000000000000071,
                "tempo": 120.0
            },
            {
                "start_time": 15.961363636363636,
                "end_time": 16.095454545454544,
                "pitch": 79,
                "velocity": 51,
                "duration": 0.13409090909090793,
                "tempo": 120.0
            },
            {
                "start_time": 16.045454545454543,
                "end_time": 16.179545454545455,
                "pitch": 0,
                "velocity": 51,
                "duration": 0.13409090909091148,
                "tempo": 120.0
            },
            {
                "start_time": 16.095454545454544,
                "end_time": 16.179545454545455,
                "pitch": 67,
                "velocity": 51,
                "duration": 0.08409090909091077,
                "tempo": 120.0
            },
            {
                "start_time": 16.179545454545455,
                "end_time": 16.229545454545455,
                "pitch": 67,
                "velocity": 51,
                "duration": 0.05000000000000071,
                "tempo": 120.0
            },
            {
                "start_time": 16.095454545454544,
                "end_time": 16.229545454545455,
                "pitch": 79,
                "velocity": 51,
                "duration": 0.13409090909091148,
                "tempo": 120.0
            },
            {
                "start_time": 16.179545454545455,
                "end_time": 16.313636363636363,
                "pitch": 0,
                "velocity": 51,
                "duration": 0.13409090909090793,
                "tempo": 120.0
            },
            {
                "start_time": 16.229545454545455,
                "end_time": 16.313636363636363,
                "pitch": 67,
                "velocity": 51,
                "duration": 0.08409090909090722,
                "tempo": 120.0
            },
            {
                "start_time": 16.313636363636363,
                "end_time": 17.11590909090909,
                "pitch": 64,
                "velocity": 51,
                "duration": 0.8022727272727259,
                "tempo": 120.0
            },
            {
                "start_time": 17.11590909090909,
                "end_time": 17.920454545454543,
                "pitch": 64,
                "velocity": 51,
                "duration": 0.8045454545454547,
                "tempo": 120.0
            },
            {
                "start_time": 17.920454545454543,
                "end_time": 18.522727272727273,
                "pitch": 65,
                "velocity": 51,
                "duration": 0.6022727272727302,
                "tempo": 120.0
            },
            {
                "start_time": 18.522727272727273,
                "end_time": 18.525,
                "pitch": 64,
                "velocity": 51,
                "duration": 0.0022727272727252057,
                "tempo": 120.0
            },
            {
                "start_time": 18.525,
                "end_time": 19.125,
                "pitch": 62,
                "velocity": 51,
                "duration": 0.6000000000000014,
                "tempo": 120.0
            },
            {
                "start_time": 19.125,
                "end_time": 20.93181818181818,
                "pitch": 74,
                "velocity": 51,
                "duration": 1.8068181818181799,
                "tempo": 120.0
            },
            {
                "start_time": 20.93409090909091,
                "end_time": 21.034090909090907,
                "pitch": 60,
                "velocity": 51,
                "duration": 0.09999999999999787,
                "tempo": 120.0
            },
            {
                "start_time": 20.93409090909091,
                "end_time": 21.138636363636362,
                "pitch": 62,
                "velocity": 51,
                "duration": 0.20454545454545325,
                "tempo": 120.0
            },
            {
                "start_time": 21.034090909090907,
                "end_time": 21.138636363636362,
                "pitch": 62,
                "velocity": 51,
                "duration": 0.10454545454545539,
                "tempo": 120.0
            },
            {
                "start_time": 21.138636363636362,
                "end_time": 21.736363636363635,
                "pitch": 64,
                "velocity": 51,
                "duration": 0.5977272727272727,
                "tempo": 120.0
            },
            {
                "start_time": 21.736363636363635,
                "end_time": 22.75,
                "pitch": 64,
                "velocity": 51,
                "duration": 1.0136363636363654,
                "tempo": 120.0
            },
            {
                "start_time": 22.75,
                "end_time": 23.352272727272727,
                "pitch": 65,
                "velocity": 51,
                "duration": 0.6022727272727266,
                "tempo": 120.0
            },
            {
                "start_time": 23.352272727272727,
                "end_time": 24.15681818181818,
                "pitch": 64,
                "velocity": 51,
                "duration": 0.8045454545454547,
                "tempo": 120.0
            },
            {
                "start_time": 24.15681818181818,
                "end_time": 24.254545454545454,
                "pitch": 65,
                "velocity": 51,
                "duration": 0.09772727272727266,
                "tempo": 120.0
            },
            {
                "start_time": 24.254545454545454,
                "end_time": 24.35681818181818,
                "pitch": 64,
                "velocity": 51,
                "duration": 0.10227272727272663,
                "tempo": 120.0
            },
            {
                "start_time": 24.35681818181818,
                "end_time": 25.159090909090907,
                "pitch": 70,
                "velocity": 51,
                "duration": 0.8022727272727259,
                "tempo": 120.0
            },
            {
                "start_time": 25.159090909090907,
                "end_time": 25.961363636363636,
                "pitch": 65,
                "velocity": 51,
                "duration": 0.8022727272727295,
                "tempo": 120.0
            },
            {
                "start_time": 21.138636363636362,
                "end_time": 26.76590909090909,
                "pitch": 62,
                "velocity": 51,
                "duration": 5.627272727272729,
                "tempo": 120.0
            },
            {
                "start_time": 25.961363636363636,
                "end_time": 26.76590909090909,
                "pitch": 62,
                "velocity": 51,
                "duration": 0.8045454545454547,
                "tempo": 120.0
            },
            {
                "start_time": 14.7,
                "end_time": 26.76590909090909,
                "pitch": 77,
                "velocity": 51,
                "duration": 12.065909090909091,
                "tempo": 120.0
            },
            {
                "start_time": 25.159090909090907,
                "end_time": 27.168181818181818,
                "pitch": 38,
                "velocity": 51,
                "duration": 2.0090909090909115,
                "tempo": 120.0
            },
            {
                "start_time": 26.76590909090909,
                "end_time": 27.168181818181818,
                "pitch": 70,
                "velocity": 51,
                "duration": 0.40227272727272734,
                "tempo": 120.0
            },
            {
                "start_time": 21.034090909090907,
                "end_time": 27.268181818181816,
                "pitch": 60,
                "velocity": 51,
                "duration": 6.234090909090909,
                "tempo": 120.0
            },
            {
                "start_time": 27.168181818181818,
                "end_time": 27.268181818181816,
                "pitch": 60,
                "velocity": 51,
                "duration": 0.09999999999999787,
                "tempo": 120.0
            },
            {
                "start_time": 27.268181818181816,
                "end_time": 27.368181818181817,
                "pitch": 62,
                "velocity": 51,
                "duration": 0.10000000000000142,
                "tempo": 120.0
            },
            {
                "start_time": 27.368181818181817,
                "end_time": 27.568181818181817,
                "pitch": 64,
                "velocity": 51,
                "duration": 0.1999999999999993,
                "tempo": 120.0
            },
            {
                "start_time": 24.35681818181818,
                "end_time": 27.568181818181817,
                "pitch": 78,
                "velocity": 51,
                "duration": 3.211363636363636,
                "tempo": 120.0
            },
            {
                "start_time": 16.313636363636363,
                "end_time": 27.970454545454544,
                "pitch": 0,
                "velocity": 51,
                "duration": 11.656818181818181,
                "tempo": 120.0
            },
            {
                "start_time": 27.568181818181817,
                "end_time": 27.970454545454544,
                "pitch": 67,
                "velocity": 51,
                "duration": 0.40227272727272734,
                "tempo": 120.0
            },
            {
                "start_time": 27.970454545454544,
                "end_time": 28.020454545454545,
                "pitch": 67,
                "velocity": 51,
                "duration": 0.05000000000000071,
                "tempo": 120.0
            },
            {
                "start_time": 16.229545454545455,
                "end_time": 28.020454545454545,
                "pitch": 79,
                "velocity": 51,
                "duration": 11.79090909090909,
                "tempo": 120.0
            },
            {
                "start_time": 27.970454545454544,
                "end_time": 28.104545454545452,
                "pitch": 0,
                "velocity": 51,
                "duration": 0.13409090909090793,
                "tempo": 120.0
            },
            {
                "start_time": 28.020454545454545,
                "end_time": 28.104545454545452,
                "pitch": 67,
                "velocity": 51,
                "duration": 0.08409090909090722,
                "tempo": 120.0
            },
            {
                "start_time": 28.104545454545452,
                "end_time": 28.154545454545453,
                "pitch": 67,
                "velocity": 51,
                "duration": 0.05000000000000071,
                "tempo": 120.0
            },
            {
                "start_time": 28.020454545454545,
                "end_time": 28.154545454545453,
                "pitch": 79,
                "velocity": 51,
                "duration": 0.13409090909090793,
                "tempo": 120.0
            },
            {
                "start_time": 28.104545454545452,
                "end_time": 28.24090909090909,
                "pitch": 0,
                "velocity": 51,
                "duration": 0.1363636363636367,
                "tempo": 120.0
            },
            {
                "start_time": 28.154545454545453,
                "end_time": 28.24090909090909,
                "pitch": 67,
                "velocity": 51,
                "duration": 0.08636363636363598,
                "tempo": 120.0
            },
            {
                "start_time": 28.24090909090909,
                "end_time": 28.29090909090909,
                "pitch": 67,
                "velocity": 51,
                "duration": 0.05000000000000071,
                "tempo": 120.0
            },
            {
                "start_time": 28.154545454545453,
                "end_time": 28.29090909090909,
                "pitch": 79,
                "velocity": 51,
                "duration": 0.1363636363636367,
                "tempo": 120.0
            },
            {
                "start_time": 28.24090909090909,
                "end_time": 28.377272727272725,
                "pitch": 0,
                "velocity": 51,
                "duration": 0.1363636363636367,
                "tempo": 120.0
            },
            {
                "start_time": 28.29090909090909,
                "end_time": 28.377272727272725,
                "pitch": 67,
                "velocity": 51,
                "duration": 0.08636363636363598,
                "tempo": 120.0
            },
            {
                "start_time": 28.377272727272725,
                "end_time": 28.429545454545455,
                "pitch": 67,
                "velocity": 51,
                "duration": 0.05227272727272947,
                "tempo": 120.0
            },
            {
                "start_time": 28.29090909090909,
                "end_time": 28.429545454545455,
                "pitch": 79,
                "velocity": 51,
                "duration": 0.13863636363636545,
                "tempo": 120.0
            },
            {
                "start_time": 28.377272727272725,
                "end_time": 28.513636363636362,
                "pitch": 0,
                "velocity": 51,
                "duration": 0.1363636363636367,
                "tempo": 120.0
            },
            {
                "start_time": 28.429545454545455,
                "end_time": 28.513636363636362,
                "pitch": 67,
                "velocity": 51,
                "duration": 0.08409090909090722,
                "tempo": 120.0
            },
            {
                "start_time": 28.513636363636362,
                "end_time": 28.565909090909088,
                "pitch": 67,
                "velocity": 51,
                "duration": 0.052272727272725916,
                "tempo": 120.0
            },
            {
                "start_time": 28.429545454545455,
                "end_time": 28.565909090909088,
                "pitch": 79,
                "velocity": 51,
                "duration": 0.13636363636363313,
                "tempo": 120.0
            },
            {
                "start_time": 28.513636363636362,
                "end_time": 28.64772727272727,
                "pitch": 0,
                "velocity": 51,
                "duration": 0.13409090909090793,
                "tempo": 120.0
            },
            {
                "start_time": 28.565909090909088,
                "end_time": 28.64772727272727,
                "pitch": 67,
                "velocity": 51,
                "duration": 0.08181818181818201,
                "tempo": 120.0
            },
            {
                "start_time": 28.64772727272727,
                "end_time": 28.69772727272727,
                "pitch": 67,
                "velocity": 51,
                "duration": 0.05000000000000071,
                "tempo": 120.0
            },
            {
                "start_time": 28.565909090909088,
                "end_time": 28.69772727272727,
                "pitch": 79,
                "velocity": 51,
                "duration": 0.13181818181818272,
                "tempo": 120.0
            },
            {
                "start_time": 28.64772727272727,
                "end_time": 28.779545454545453,
                "pitch": 0,
                "velocity": 51,
                "duration": 0.13181818181818272,
                "tempo": 120.0
            },
            {
                "start_time": 28.69772727272727,
                "end_time": 28.779545454545453,
                "pitch": 67,
                "velocity": 51,
                "duration": 0.08181818181818201,
                "tempo": 120.0
            },
            {
                "start_time": 28.779545454545453,
                "end_time": 28.827272727272724,
                "pitch": 67,
                "velocity": 51,
                "duration": 0.04772727272727195,
                "tempo": 120.0
            },
            {
                "start_time": 28.69772727272727,
                "end_time": 28.827272727272724,
                "pitch": 79,
                "velocity": 51,
                "duration": 0.12954545454545396,
                "tempo": 120.0
            },
            {
                "start_time": 28.779545454545453,
                "end_time": 28.909090909090907,
                "pitch": 0,
                "velocity": 51,
                "duration": 0.12954545454545396,
                "tempo": 120.0
            },
            {
                "start_time": 28.827272727272724,
                "end_time": 28.909090909090907,
                "pitch": 67,
                "velocity": 51,
                "duration": 0.08181818181818201,
                "tempo": 120.0
            },
            {
                "start_time": 28.909090909090907,
                "end_time": 28.959090909090907,
                "pitch": 67,
                "velocity": 51,
                "duration": 0.05000000000000071,
                "tempo": 120.0
            },
            {
                "start_time": 28.827272727272724,
                "end_time": 28.959090909090907,
                "pitch": 79,
                "velocity": 51,
                "duration": 0.13181818181818272,
                "tempo": 120.0
            },
            {
                "start_time": 28.909090909090907,
                "end_time": 29.043181818181818,
                "pitch": 0,
                "velocity": 51,
                "duration": 0.13409090909091148,
                "tempo": 120.0
            },
            {
                "start_time": 28.959090909090907,
                "end_time": 29.043181818181818,
                "pitch": 67,
                "velocity": 51,
                "duration": 0.08409090909091077,
                "tempo": 120.0
            },
            {
                "start_time": 29.043181818181818,
                "end_time": 29.095454545454544,
                "pitch": 67,
                "velocity": 51,
                "duration": 0.052272727272725916,
                "tempo": 120.0
            },
            {
                "start_time": 28.959090909090907,
                "end_time": 29.095454545454544,
                "pitch": 79,
                "velocity": 51,
                "duration": 0.1363636363636367,
                "tempo": 120.0
            },
            {
                "start_time": 29.043181818181818,
                "end_time": 29.18181818181818,
                "pitch": 0,
                "velocity": 51,
                "duration": 0.1386363636363619,
                "tempo": 120.0
            },
            {
                "start_time": 29.095454545454544,
                "end_time": 29.18181818181818,
                "pitch": 67,
                "velocity": 51,
                "duration": 0.08636363636363598,
                "tempo": 120.0
            },
            {
                "start_time": 29.18181818181818,
                "end_time": 29.988636363636363,
                "pitch": 64,
                "velocity": 51,
                "duration": 0.8068181818181834,
                "tempo": 120.0
            },
            {
                "start_time": 29.988636363636363,
                "end_time": 30.79090909090909,
                "pitch": 64,
                "velocity": 51,
                "duration": 0.8022727272727259,
                "tempo": 120.0
            },
            {
                "start_time": 25.961363636363636,
                "end_time": 31.395454545454545,
                "pitch": 65,
                "velocity": 51,
                "duration": 5.434090909090909,
                "tempo": 120.0
            },
            {
                "start_time": 30.79090909090909,
                "end_time": 31.395454545454545,
                "pitch": 65,
                "velocity": 51,
                "duration": 0.6045454545454554,
                "tempo": 120.0
            },
            {
                "start_time": 31.395454545454545,
                "end_time": 31.995454545454542,
                "pitch": 62,
                "velocity": 51,
                "duration": 0.5999999999999979,
                "tempo": 120.0
            },
            {
                "start_time": 31.995454545454542,
                "end_time": 33.80227272727272,
                "pitch": 74,
                "velocity": 51,
                "duration": 1.8068181818181799,
                "tempo": 120.0
            },
            {
                "start_time": 33.80227272727272,
                "end_time": 33.9,
                "pitch": 60,
                "velocity": 51,
                "duration": 0.09772727272727622,
                "tempo": 120.0
            },
            {
                "start_time": 33.80227272727272,
                "end_time": 34.002272727272725,
                "pitch": 62,
                "velocity": 51,
                "duration": 0.20000000000000284,
                "tempo": 120.0
            },
            {
                "start_time": 33.9,
                "end_time": 34.002272727272725,
                "pitch": 62,
                "velocity": 51,
                "duration": 0.10227272727272663,
                "tempo": 120.0
            },
            {
                "start_time": 31.395454545454545,
                "end_time": 34.60227272727273,
                "pitch": 64,
                "velocity": 51,
                "duration": 3.206818181818182,
                "tempo": 120.0
            },
            {
                "start_time": 34.002272727272725,
                "end_time": 34.60227272727273,
                "pitch": 64,
                "velocity": 51,
                "duration": 0.6000000000000014,
                "tempo": 120.0
            },
            {
                "start_time": 34.60227272727273,
                "end_time": 35.60681818181818,
                "pitch": 64,
                "velocity": 51,
                "duration": 1.0045454545454504,
                "tempo": 120.0
            },
            {
                "start_time": 35.60681818181818,
                "end_time": 36.20681818181818,
                "pitch": 65,
                "velocity": 51,
                "duration": 0.6000000000000014,
                "tempo": 120.0
            },
            {
                "start_time": 36.20681818181818,
                "end_time": 37.02045454545454,
                "pitch": 64,
                "velocity": 51,
                "duration": 0.8136363636363626,
                "tempo": 120.0
            },
            {
                "start_time": 37.02045454545454,
                "end_time": 37.11818181818182,
                "pitch": 65,
                "velocity": 51,
                "duration": 0.09772727272727622,
                "tempo": 120.0
            },
            {
                "start_time": 37.11818181818182,
                "end_time": 37.220454545454544,
                "pitch": 64,
                "velocity": 51,
                "duration": 0.10227272727272663,
                "tempo": 120.0
            },
            {
                "start_time": 27.568181818181817,
                "end_time": 37.220454545454544,
                "pitch": 78,
                "velocity": 51,
                "duration": 9.652272727272727,
                "tempo": 120.0
            },
            {
                "start_time": 37.220454545454544,
                "end_time": 38.02045454545454,
                "pitch": 70,
                "velocity": 51,
                "duration": 0.7999999999999972,
                "tempo": 120.0
            },
            {
                "start_time": 38.02045454545454,
                "end_time": 38.824999999999996,
                "pitch": 72,
                "velocity": 51,
                "duration": 0.8045454545454547,
                "tempo": 120.0
            },
            {
                "start_time": 38.824999999999996,
                "end_time": 39.625,
                "pitch": 74,
                "velocity": 51,
                "duration": 0.8000000000000043,
                "tempo": 120.0
            },
            {
                "start_time": 26.76590909090909,
                "end_time": 40.22727272727273,
                "pitch": 77,
                "velocity": 51,
                "duration": 13.461363636363636,
                "tempo": 120.0
            },
            {
                "start_time": 39.625,
                "end_time": 40.22727272727273,
                "pitch": 77,
                "velocity": 51,
                "duration": 0.6022727272727266,
                "tempo": 120.0
            },
            {
                "start_time": 40.22727272727273,
                "end_time": 40.32727272727273,
                "pitch": 77,
                "velocity": 51,
                "duration": 0.10000000000000142,
                "tempo": 120.0
            },
            {
                "start_time": 40.32727272727273,
                "end_time": 40.42727272727272,
                "pitch": 76,
                "velocity": 51,
                "duration": 0.09999999999999432,
                "tempo": 120.0
            },
            {
                "start_time": 40.42727272727272,
                "end_time": 43.445454545454545,
                "pitch": 77,
                "velocity": 51,
                "duration": 3.018181818181823,
                "tempo": 120.0
            },
            {
                "start_time": 43.445454545454545,
                "end_time": 43.543181818181814,
                "pitch": 84,
                "velocity": 51,
                "duration": 0.09772727272726911,
                "tempo": 120.0
            },
            {
                "start_time": 43.54545454545455,
                "end_time": 43.64545454545454,
                "pitch": 86,
                "velocity": 51,
                "duration": 0.09999999999999432,
                "tempo": 120.0
            },
            {
                "start_time": 43.445454545454545,
                "end_time": 46.85454545454545,
                "pitch": 88,
                "velocity": 51,
                "duration": 3.4090909090909065,
                "tempo": 120.0
            },
            {
                "start_time": 43.64545454545454,
                "end_time": 46.85454545454545,
                "pitch": 88,
                "velocity": 51,
                "duration": 3.2090909090909108,
                "tempo": 120.0
            },
            {
                "start_time": 29.18181818181818,
                "end_time": 47.25454545454545,
                "pitch": 0,
                "velocity": 51,
                "duration": 18.07272727272727,
                "tempo": 120.0
            },
            {
                "start_time": 46.85454545454545,
                "end_time": 47.25454545454545,
                "pitch": 67,
                "velocity": 51,
                "duration": 0.3999999999999986,
                "tempo": 120.0
            },
            {
                "start_time": 47.25454545454545,
                "end_time": 47.304545454545455,
                "pitch": 67,
                "velocity": 51,
                "duration": 0.05000000000000426,
                "tempo": 120.0
            },
            {
                "start_time": 29.095454545454544,
                "end_time": 47.304545454545455,
                "pitch": 79,
                "velocity": 51,
                "duration": 18.20909090909091,
                "tempo": 120.0
            },
            {
                "start_time": 47.25454545454545,
                "end_time": 47.38863636363636,
                "pitch": 0,
                "velocity": 51,
                "duration": 0.13409090909090793,
                "tempo": 120.0
            },
            {
                "start_time": 47.304545454545455,
                "end_time": 47.38863636363636,
                "pitch": 67,
                "velocity": 51,
                "duration": 0.08409090909090366,
                "tempo": 120.0
            },
            {
                "start_time": 47.38863636363636,
                "end_time": 47.43863636363636,
                "pitch": 67,
                "velocity": 51,
                "duration": 0.05000000000000426,
                "tempo": 120.0
            },
            {
                "start_time": 47.304545454545455,
                "end_time": 47.43863636363636,
                "pitch": 79,
                "velocity": 51,
                "duration": 0.13409090909090793,
                "tempo": 120.0
            },
            {
                "start_time": 47.38863636363636,
                "end_time": 47.52272727272727,
                "pitch": 0,
                "velocity": 51,
                "duration": 0.13409090909091503,
                "tempo": 120.0
            },
            {
                "start_time": 47.43863636363636,
                "end_time": 47.52272727272727,
                "pitch": 67,
                "velocity": 51,
                "duration": 0.08409090909091077,
                "tempo": 120.0
            },
            {
                "start_time": 47.52272727272727,
                "end_time": 47.57272727272727,
                "pitch": 67,
                "velocity": 51,
                "duration": 0.04999999999999716,
                "tempo": 120.0
            },
            {
                "start_time": 47.43863636363636,
                "end_time": 47.57272727272727,
                "pitch": 79,
                "velocity": 51,
                "duration": 0.13409090909090793,
                "tempo": 120.0
            },
            {
                "start_time": 47.52272727272727,
                "end_time": 47.65681818181818,
                "pitch": 0,
                "velocity": 51,
                "duration": 0.13409090909090793,
                "tempo": 120.0
            },
            {
                "start_time": 47.57272727272727,
                "end_time": 47.65681818181818,
                "pitch": 67,
                "velocity": 51,
                "duration": 0.08409090909091077,
                "tempo": 120.0
            },
            {
                "start_time": 47.65681818181818,
                "end_time": 47.70681818181818,
                "pitch": 67,
                "velocity": 51,
                "duration": 0.04999999999999716,
                "tempo": 120.0
            },
            {
                "start_time": 47.57272727272727,
                "end_time": 47.70681818181818,
                "pitch": 79,
                "velocity": 51,
                "duration": 0.13409090909090793,
                "tempo": 120.0
            },
            {
                "start_time": 47.65681818181818,
                "end_time": 47.79090909090909,
                "pitch": 0,
                "velocity": 51,
                "duration": 0.13409090909090793,
                "tempo": 120.0
            },
            {
                "start_time": 47.70681818181818,
                "end_time": 47.79090909090909,
                "pitch": 67,
                "velocity": 51,
                "duration": 0.08409090909091077,
                "tempo": 120.0
            },
            {
                "start_time": 47.79090909090909,
                "end_time": 47.840909090909086,
                "pitch": 67,
                "velocity": 51,
                "duration": 0.04999999999999716,
                "tempo": 120.0
            },
            {
                "start_time": 47.70681818181818,
                "end_time": 47.840909090909086,
                "pitch": 79,
                "velocity": 51,
                "duration": 0.13409090909090793,
                "tempo": 120.0
            },
            {
                "start_time": 47.79090909090909,
                "end_time": 47.925,
                "pitch": 0,
                "velocity": 51,
                "duration": 0.13409090909090793,
                "tempo": 120.0
            },
            {
                "start_time": 47.840909090909086,
                "end_time": 47.925,
                "pitch": 67,
                "velocity": 51,
                "duration": 0.08409090909091077,
                "tempo": 120.0
            },
            {
                "start_time": 47.925,
                "end_time": 47.974999999999994,
                "pitch": 67,
                "velocity": 51,
                "duration": 0.04999999999999716,
                "tempo": 120.0
            },
            {
                "start_time": 47.840909090909086,
                "end_time": 47.974999999999994,
                "pitch": 79,
                "velocity": 51,
                "duration": 0.13409090909090793,
                "tempo": 120.0
            },
            {
                "start_time": 47.925,
                "end_time": 48.059090909090905,
                "pitch": 0,
                "velocity": 51,
                "duration": 0.13409090909090793,
                "tempo": 120.0
            },
            {
                "start_time": 47.974999999999994,
                "end_time": 48.059090909090905,
                "pitch": 67,
                "velocity": 51,
                "duration": 0.08409090909091077,
                "tempo": 120.0
            },
            {
                "start_time": 48.059090909090905,
                "end_time": 48.10909090909091,
                "pitch": 67,
                "velocity": 51,
                "duration": 0.05000000000000426,
                "tempo": 120.0
            },
            {
                "start_time": 47.974999999999994,
                "end_time": 48.10909090909091,
                "pitch": 79,
                "velocity": 51,
                "duration": 0.13409090909091503,
                "tempo": 120.0
            },
            {
                "start_time": 48.059090909090905,
                "end_time": 48.19090909090909,
                "pitch": 0,
                "velocity": 51,
                "duration": 0.13181818181818272,
                "tempo": 120.0
            },
            {
                "start_time": 48.10909090909091,
                "end_time": 48.19090909090909,
                "pitch": 67,
                "velocity": 51,
                "duration": 0.08181818181817846,
                "tempo": 120.0
            },
            {
                "start_time": 48.19090909090909,
                "end_time": 48.24090909090909,
                "pitch": 67,
                "velocity": 51,
                "duration": 0.05000000000000426,
                "tempo": 120.0
            },
            {
                "start_time": 48.10909090909091,
                "end_time": 48.24090909090909,
                "pitch": 79,
                "velocity": 51,
                "duration": 0.13181818181818272,
                "tempo": 120.0
            },
            {
                "start_time": 48.19090909090909,
                "end_time": 48.324999999999996,
                "pitch": 0,
                "velocity": 51,
                "duration": 0.13409090909090793,
                "tempo": 120.0
            },
            {
                "start_time": 48.24090909090909,
                "end_time": 48.324999999999996,
                "pitch": 67,
                "velocity": 51,
                "duration": 0.08409090909090366,
                "tempo": 120.0
            },
            {
                "start_time": 48.324999999999996,
                "end_time": 48.375,
                "pitch": 67,
                "velocity": 51,
                "duration": 0.05000000000000426,
                "tempo": 120.0
            },
            {
                "start_time": 48.24090909090909,
                "end_time": 48.375,
                "pitch": 79,
                "velocity": 51,
                "duration": 0.13409090909090793,
                "tempo": 120.0
            },
            {
                "start_time": 48.324999999999996,
                "end_time": 48.459090909090904,
                "pitch": 0,
                "velocity": 51,
                "duration": 0.13409090909090793,
                "tempo": 120.0
            },
            {
                "start_time": 48.375,
                "end_time": 48.459090909090904,
                "pitch": 67,
                "velocity": 51,
                "duration": 0.08409090909090366,
                "tempo": 120.0
            },
            {
                "start_time": 48.459090909090904,
                "end_time": 49.25909090909091,
                "pitch": 64,
                "velocity": 51,
                "duration": 0.8000000000000043,
                "tempo": 120.0
            },
            {
                "start_time": 49.26136363636363,
                "end_time": 50.06818181818181,
                "pitch": 64,
                "velocity": 51,
                "duration": 0.8068181818181799,
                "tempo": 120.0
            },
            {
                "start_time": 50.070454545454545,
                "end_time": 50.668181818181814,
                "pitch": 65,
                "velocity": 51,
                "duration": 0.5977272727272691,
                "tempo": 120.0
            },
            {
                "start_time": 34.002272727272725,
                "end_time": 51.275,
                "pitch": 62,
                "velocity": 51,
                "duration": 17.272727272727273,
                "tempo": 120.0
            },
            {
                "start_time": 50.668181818181814,
                "end_time": 51.275,
                "pitch": 62,
                "velocity": 51,
                "duration": 0.6068181818181841,
                "tempo": 120.0
            },
            {
                "start_time": 39.625,
                "end_time": 53.084090909090904,
                "pitch": 74,
                "velocity": 51,
                "duration": 13.459090909090904,
                "tempo": 120.0
            },
            {
                "start_time": 51.275,
                "end_time": 53.084090909090904,
                "pitch": 74,
                "velocity": 51,
                "duration": 1.809090909090905,
                "tempo": 120.0
            },
            {
                "start_time": 33.9,
                "end_time": 53.184090909090905,
                "pitch": 60,
                "velocity": 51,
                "duration": 19.284090909090907,
                "tempo": 120.0
            },
            {
                "start_time": 53.084090909090904,
                "end_time": 53.184090909090905,
                "pitch": 60,
                "velocity": 51,
                "duration": 0.10000000000000142,
                "tempo": 120.0
            },
            {
                "start_time": 53.084090909090904,
                "end_time": 53.28636363636363,
                "pitch": 62,
                "velocity": 51,
                "duration": 0.20227272727272805,
                "tempo": 120.0
            },
            {
                "start_time": 53.184090909090905,
                "end_time": 53.28636363636363,
                "pitch": 62,
                "velocity": 51,
                "duration": 0.10227272727272663,
                "tempo": 120.0
            },
            {
                "start_time": 50.668181818181814,
                "end_time": 53.88863636363636,
                "pitch": 64,
                "velocity": 51,
                "duration": 3.220454545454544,
                "tempo": 120.0
            },
            {
                "start_time": 53.28636363636363,
                "end_time": 53.88863636363636,
                "pitch": 64,
                "velocity": 51,
                "duration": 0.6022727272727266,
                "tempo": 120.0
            },
            {
                "start_time": 53.88863636363636,
                "end_time": 54.88863636363636,
                "pitch": 64,
                "velocity": 51,
                "duration": 1.0,
                "tempo": 120.0
            },
            {
                "start_time": 54.88863636363636,
                "end_time": 55.49318181818182,
                "pitch": 65,
                "velocity": 51,
                "duration": 0.6045454545454589,
                "tempo": 120.0
            },
            {
                "start_time": 55.49318181818182,
                "end_time": 56.29545454545454,
                "pitch": 64,
                "velocity": 51,
                "duration": 0.8022727272727224,
                "tempo": 120.0
            },
            {
                "start_time": 56.29545454545454,
                "end_time": 56.393181818181816,
                "pitch": 65,
                "velocity": 51,
                "duration": 0.09772727272727622,
                "tempo": 120.0
            },
            {
                "start_time": 56.393181818181816,
                "end_time": 56.49318181818182,
                "pitch": 64,
                "velocity": 51,
                "duration": 0.10000000000000142,
                "tempo": 120.0
            },
            {
                "start_time": 37.220454545454544,
                "end_time": 56.49545454545454,
                "pitch": 78,
                "velocity": 51,
                "duration": 19.275,
                "tempo": 120.0
            },
            {
                "start_time": 27.168181818181818,
                "end_time": 57.29772727272727,
                "pitch": 38,
                "velocity": 51,
                "duration": 30.129545454545454,
                "tempo": 120.0
            },
            {
                "start_time": 56.49545454545454,
                "end_time": 57.29772727272727,
                "pitch": 70,
                "velocity": 51,
                "duration": 0.8022727272727295,
                "tempo": 120.0
            },
            {
                "start_time": 57.29772727272727,
                "end_time": 58.10454545454545,
                "pitch": 65,
                "velocity": 51,
                "duration": 0.8068181818181799,
                "tempo": 120.0
            },
            {
                "start_time": 53.28636363636363,
                "end_time": 58.90909090909091,
                "pitch": 62,
                "velocity": 51,
                "duration": 5.622727272727275,
                "tempo": 120.0
            },
            {
                "start_time": 58.10454545454545,
                "end_time": 58.90909090909091,
                "pitch": 62,
                "velocity": 51,
                "duration": 0.8045454545454547,
                "tempo": 120.0
            },
            {
                "start_time": 46.85454545454545,
                "end_time": 58.90909090909091,
                "pitch": 77,
                "velocity": 51,
                "duration": 12.054545454545455,
                "tempo": 120.0
            },
            {
                "start_time": 57.29772727272727,
                "end_time": 59.31136363636363,
                "pitch": 38,
                "velocity": 51,
                "duration": 2.0136363636363583,
                "tempo": 120.0
            },
            {
                "start_time": 58.90909090909091,
                "end_time": 59.31136363636363,
                "pitch": 70,
                "velocity": 51,
                "duration": 0.4022727272727238,
                "tempo": 120.0
            },
            {
                "start_time": 53.184090909090905,
                "end_time": 59.41590909090909,
                "pitch": 60,
                "velocity": 51,
                "duration": 6.231818181818184,
                "tempo": 120.0
            },
            {
                "start_time": 59.31136363636363,
                "end_time": 59.41590909090909,
                "pitch": 60,
                "velocity": 51,
                "duration": 0.10454545454545894,
                "tempo": 120.0
            },
            {
                "start_time": 59.41590909090909,
                "end_time": 59.518181818181816,
                "pitch": 62,
                "velocity": 51,
                "duration": 0.10227272727272663,
                "tempo": 120.0
            },
            {
                "start_time": 59.518181818181816,
                "end_time": 59.71818181818182,
                "pitch": 64,
                "velocity": 51,
                "duration": 0.20000000000000284,
                "tempo": 120.0
            },
            {
                "start_time": 56.49545454545454,
                "end_time": 59.71818181818182,
                "pitch": 78,
                "velocity": 51,
                "duration": 3.222727272727276,
                "tempo": 120.0
            },
            {
                "start_time": 48.459090909090904,
                "end_time": 60.11818181818182,
                "pitch": 0,
                "velocity": 51,
                "duration": 11.659090909090914,
                "tempo": 120.0
            },
            {
                "start_time": 59.71818181818182,
                "end_time": 60.11818181818182,
                "pitch": 67,
                "velocity": 51,
                "duration": 0.3999999999999986,
                "tempo": 120.0
            },
            {
                "start_time": 60.11818181818182,
                "end_time": 60.168181818181814,
                "pitch": 67,
                "velocity": 51,
                "duration": 0.04999999999999716,
                "tempo": 120.0
            },
            {
                "start_time": 48.375,
                "end_time": 60.168181818181814,
                "pitch": 79,
                "velocity": 51,
                "duration": 11.793181818181814,
                "tempo": 120.0
            },
            {
                "start_time": 60.11818181818182,
                "end_time": 60.252272727272725,
                "pitch": 0,
                "velocity": 51,
                "duration": 0.13409090909090793,
                "tempo": 120.0
            },
            {
                "start_time": 60.168181818181814,
                "end_time": 60.252272727272725,
                "pitch": 67,
                "velocity": 51,
                "duration": 0.08409090909091077,
                "tempo": 120.0
            },
            {
                "start_time": 60.252272727272725,
                "end_time": 60.30227272727272,
                "pitch": 67,
                "velocity": 51,
                "duration": 0.04999999999999716,
                "tempo": 120.0
            },
            {
                "start_time": 60.168181818181814,
                "end_time": 60.30227272727272,
                "pitch": 79,
                "velocity": 51,
                "duration": 0.13409090909090793,
                "tempo": 120.0
            },
            {
                "start_time": 60.252272727272725,
                "end_time": 60.38636363636363,
                "pitch": 0,
                "velocity": 51,
                "duration": 0.13409090909090793,
                "tempo": 120.0
            },
            {
                "start_time": 60.30227272727272,
                "end_time": 60.38636363636363,
                "pitch": 67,
                "velocity": 51,
                "duration": 0.08409090909091077,
                "tempo": 120.0
            },
            {
                "start_time": 60.38636363636363,
                "end_time": 60.43636363636363,
                "pitch": 67,
                "velocity": 51,
                "duration": 0.04999999999999716,
                "tempo": 120.0
            },
            {
                "start_time": 60.30227272727272,
                "end_time": 60.43636363636363,
                "pitch": 79,
                "velocity": 51,
                "duration": 0.13409090909090793,
                "tempo": 120.0
            },
            {
                "start_time": 60.38636363636363,
                "end_time": 60.52045454545454,
                "pitch": 0,
                "velocity": 51,
                "duration": 0.13409090909090793,
                "tempo": 120.0
            },
            {
                "start_time": 60.43636363636363,
                "end_time": 60.52045454545454,
                "pitch": 67,
                "velocity": 51,
                "duration": 0.08409090909091077,
                "tempo": 120.0
            },
            {
                "start_time": 60.52045454545454,
                "end_time": 60.570454545454545,
                "pitch": 67,
                "velocity": 51,
                "duration": 0.05000000000000426,
                "tempo": 120.0
            },
            {
                "start_time": 60.43636363636363,
                "end_time": 60.570454545454545,
                "pitch": 79,
                "velocity": 51,
                "duration": 0.13409090909091503,
                "tempo": 120.0
            },
            {
                "start_time": 60.52045454545454,
                "end_time": 60.65454545454545,
                "pitch": 0,
                "velocity": 51,
                "duration": 0.13409090909090793,
                "tempo": 120.0
            },
            {
                "start_time": 60.570454545454545,
                "end_time": 60.65454545454545,
                "pitch": 67,
                "velocity": 51,
                "duration": 0.08409090909090366,
                "tempo": 120.0
            },
            {
                "start_time": 60.65454545454545,
                "end_time": 60.70454545454545,
                "pitch": 67,
                "velocity": 51,
                "duration": 0.05000000000000426,
                "tempo": 120.0
            },
            {
                "start_time": 60.570454545454545,
                "end_time": 60.70454545454545,
                "pitch": 79,
                "velocity": 51,
                "duration": 0.13409090909090793,
                "tempo": 120.0
            },
            {
                "start_time": 60.65454545454545,
                "end_time": 60.788636363636364,
                "pitch": 0,
                "velocity": 51,
                "duration": 0.13409090909091503,
                "tempo": 120.0
            },
            {
                "start_time": 60.70454545454545,
                "end_time": 60.788636363636364,
                "pitch": 67,
                "velocity": 51,
                "duration": 0.08409090909091077,
                "tempo": 120.0
            },
            {
                "start_time": 60.788636363636364,
                "end_time": 60.83863636363636,
                "pitch": 67,
                "velocity": 51,
                "duration": 0.04999999999999716,
                "tempo": 120.0
            },
            {
                "start_time": 60.70454545454545,
                "end_time": 60.83863636363636,
                "pitch": 79,
                "velocity": 51,
                "duration": 0.13409090909090793,
                "tempo": 120.0
            },
            {
                "start_time": 60.788636363636364,
                "end_time": 60.92272727272727,
                "pitch": 0,
                "velocity": 51,
                "duration": 0.13409090909090793,
                "tempo": 120.0
            },
            {
                "start_time": 60.83863636363636,
                "end_time": 60.92272727272727,
                "pitch": 67,
                "velocity": 51,
                "duration": 0.08409090909091077,
                "tempo": 120.0
            },
            {
                "start_time": 60.92272727272727,
                "end_time": 60.97272727272727,
                "pitch": 67,
                "velocity": 51,
                "duration": 0.04999999999999716,
                "tempo": 120.0
            },
            {
                "start_time": 60.83863636363636,
                "end_time": 60.97272727272727,
                "pitch": 79,
                "velocity": 51,
                "duration": 0.13409090909090793,
                "tempo": 120.0
            },
            {
                "start_time": 60.92272727272727,
                "end_time": 61.054545454545455,
                "pitch": 0,
                "velocity": 51,
                "duration": 0.13181818181818272,
                "tempo": 120.0
            },
            {
                "start_time": 60.97272727272727,
                "end_time": 61.054545454545455,
                "pitch": 67,
                "velocity": 51,
                "duration": 0.08181818181818556,
                "tempo": 120.0
            },
            {
                "start_time": 61.054545454545455,
                "end_time": 61.10454545454545,
                "pitch": 67,
                "velocity": 51,
                "duration": 0.04999999999999716,
                "tempo": 120.0
            },
            {
                "start_time": 60.97272727272727,
                "end_time": 61.10454545454545,
                "pitch": 79,
                "velocity": 51,
                "duration": 0.13181818181818272,
                "tempo": 120.0
            },
            {
                "start_time": 61.054545454545455,
                "end_time": 61.18863636363636,
                "pitch": 0,
                "velocity": 51,
                "duration": 0.13409090909090793,
                "tempo": 120.0
            },
            {
                "start_time": 61.10454545454545,
                "end_time": 61.18863636363636,
                "pitch": 67,
                "velocity": 51,
                "duration": 0.08409090909091077,
                "tempo": 120.0
            },
            {
                "start_time": 61.18863636363636,
                "end_time": 61.23863636363636,
                "pitch": 67,
                "velocity": 51,
                "duration": 0.04999999999999716,
                "tempo": 120.0
            },
            {
                "start_time": 61.10454545454545,
                "end_time": 61.23863636363636,
                "pitch": 79,
                "velocity": 51,
                "duration": 0.13409090909090793,
                "tempo": 120.0
            },
            {
                "start_time": 61.18863636363636,
                "end_time": 61.32272727272727,
                "pitch": 0,
                "velocity": 51,
                "duration": 0.13409090909090793,
                "tempo": 120.0
            },
            {
                "start_time": 61.23863636363636,
                "end_time": 61.32272727272727,
                "pitch": 67,
                "velocity": 51,
                "duration": 0.08409090909091077,
                "tempo": 120.0
            },
            {
                "start_time": 61.32272727272727,
                "end_time": 62.12272727272727,
                "pitch": 64,
                "velocity": 51,
                "duration": 0.7999999999999972,
                "tempo": 120.0
            },
            {
                "start_time": 62.125,
                "end_time": 62.92727272727272,
                "pitch": 64,
                "velocity": 51,
                "duration": 0.8022727272727224,
                "tempo": 120.0
            },
            {
                "start_time": 58.10454545454545,
                "end_time": 63.527272727272724,
                "pitch": 65,
                "velocity": 51,
                "duration": 5.422727272727272,
                "tempo": 120.0
            },
            {
                "start_time": 62.92727272727272,
                "end_time": 63.527272727272724,
                "pitch": 65,
                "velocity": 51,
                "duration": 0.6000000000000014,
                "tempo": 120.0
            },
            {
                "start_time": 63.52954545454545,
                "end_time": 64.12954545454545,
                "pitch": 62,
                "velocity": 51,
                "duration": 0.6000000000000014,
                "tempo": 120.0
            },
            {
                "start_time": 64.12954545454545,
                "end_time": 65.94090909090909,
                "pitch": 74,
                "velocity": 51,
                "duration": 1.8113636363636374,
                "tempo": 120.0
            },
            {
                "start_time": 65.94090909090909,
                "end_time": 66.04090909090908,
                "pitch": 60,
                "velocity": 51,
                "duration": 0.09999999999999432,
                "tempo": 120.0
            },
            {
                "start_time": 65.94090909090909,
                "end_time": 66.14545454545454,
                "pitch": 62,
                "velocity": 51,
                "duration": 0.20454545454545325,
                "tempo": 120.0
            },
            {
                "start_time": 66.04318181818182,
                "end_time": 66.14545454545454,
                "pitch": 62,
                "velocity": 51,
                "duration": 0.10227272727271952,
                "tempo": 120.0
            },
            {
                "start_time": 63.52954545454545,
                "end_time": 66.75227272727273,
                "pitch": 64,
                "velocity": 51,
                "duration": 3.222727272727276,
                "tempo": 120.0
            },
            {
                "start_time": 66.14545454545454,
                "end_time": 66.75227272727273,
                "pitch": 64,
                "velocity": 51,
                "duration": 0.6068181818181841,
                "tempo": 120.0
            },
            {
                "start_time": 66.75227272727273,
                "end_time": 67.7590909090909,
                "pitch": 64,
                "velocity": 51,
                "duration": 1.0068181818181756,
                "tempo": 120.0
            },
            {
                "start_time": 67.7590909090909,
                "end_time": 68.36136363636363,
                "pitch": 65,
                "velocity": 51,
                "duration": 0.6022727272727337,
                "tempo": 120.0
            },
            {
                "start_time": 68.36363636363636,
                "end_time": 69.16590909090908,
                "pitch": 64,
                "velocity": 51,
                "duration": 0.8022727272727224,
                "tempo": 120.0
            },
            {
                "start_time": 69.16590909090908,
                "end_time": 69.26590909090909,
                "pitch": 65,
                "velocity": 51,
                "duration": 0.10000000000000853,
                "tempo": 120.0
            },
            {
                "start_time": 69.26590909090909,
                "end_time": 69.36818181818181,
                "pitch": 64,
                "velocity": 51,
                "duration": 0.10227272727271952,
                "tempo": 120.0
            },
            {
                "start_time": 59.71818181818182,
                "end_time": 69.36818181818181,
                "pitch": 78,
                "velocity": 51,
                "duration": 9.649999999999991,
                "tempo": 120.0
            },
            {
                "start_time": 69.36818181818181,
                "end_time": 70.17045454545455,
                "pitch": 70,
                "velocity": 51,
                "duration": 0.8022727272727366,
                "tempo": 120.0
            },
            {
                "start_time": 38.02045454545454,
                "end_time": 70.17272727272727,
                "pitch": 50,
                "velocity": 51,
                "duration": 32.15227272727273,
                "tempo": 120.0
            },
            {
                "start_time": 70.17045454545455,
                "end_time": 70.17272727272727,
                "pitch": 50,
                "velocity": 51,
                "duration": 0.0022727272727252057,
                "tempo": 120.0
            },
            {
                "start_time": 38.824999999999996,
                "end_time": 70.975,
                "pitch": 72,
                "velocity": 51,
                "duration": 32.15,
                "tempo": 120.0
            },
            {
                "start_time": 70.17272727272727,
                "end_time": 70.975,
                "pitch": 72,
                "velocity": 51,
                "duration": 0.8022727272727224,
                "tempo": 120.0
            },
            {
                "start_time": 70.975,
                "end_time": 71.77954545454546,
                "pitch": 74,
                "velocity": 51,
                "duration": 0.8045454545454618,
                "tempo": 120.0
            },
            {
                "start_time": 71.77954545454546,
                "end_time": 72.08181818181818,
                "pitch": 74,
                "velocity": 51,
                "duration": 0.30227272727272236,
                "tempo": 120.0
            },
            {
                "start_time": 72.08181818181818,
                "end_time": 72.3840909090909,
                "pitch": 74,
                "velocity": 51,
                "duration": 0.30227272727272236,
                "tempo": 120.0
            },
            {
                "start_time": 58.90909090909091,
                "end_time": 72.58863636363635,
                "pitch": 77,
                "velocity": 51,
                "duration": 13.679545454545448,
                "tempo": 120.0
            },
            {
                "start_time": 72.3840909090909,
                "end_time": 72.58863636363635,
                "pitch": 77,
                "velocity": 51,
                "duration": 0.20454545454545325,
                "tempo": 120.0
            },
            {
                "start_time": 61.32272727272727,
                "end_time": 72.99090909090908,
                "pitch": 0,
                "velocity": 51,
                "duration": 11.668181818181814,
                "tempo": 120.0
            },
            {
                "start_time": 61.23863636363636,
                "end_time": 72.99090909090908,
                "pitch": 79,
                "velocity": 51,
                "duration": 11.752272727272725,
                "tempo": 120.0
            },
            {
                "start_time": 72.58863636363635,
                "end_time": 72.99090909090908,
                "pitch": 79,
                "velocity": 51,
                "duration": 0.4022727272727309,
                "tempo": 120.0
            },
            {
                "start_time": 72.99090909090908,
                "end_time": 73.04090909090908,
                "pitch": 79,
                "velocity": 51,
                "duration": 0.04999999999999716,
                "tempo": 120.0
            },
            {
                "start_time": 72.99090909090908,
                "end_time": 73.12272727272727,
                "pitch": 0,
                "velocity": 51,
                "duration": 0.13181818181818983,
                "tempo": 120.0
            },
            {
                "start_time": 73.04090909090908,
                "end_time": 73.12272727272727,
                "pitch": 79,
                "velocity": 51,
                "duration": 0.08181818181819267,
                "tempo": 120.0
            },
            {
                "start_time": 73.12272727272727,
                "end_time": 73.17045454545455,
                "pitch": 79,
                "velocity": 51,
                "duration": 0.04772727272727195,
                "tempo": 120.0
            },
            {
                "start_time": 73.04090909090908,
                "end_time": 73.17045454545455,
                "pitch": 91,
                "velocity": 51,
                "duration": 0.12954545454546462,
                "tempo": 120.0
            },
            {
                "start_time": 73.12272727272727,
                "end_time": 73.18863636363636,
                "pitch": 0,
                "velocity": 51,
                "duration": 0.06590909090908781,
                "tempo": 120.0
            },
            {
                "start_time": 73.17045454545455,
                "end_time": 73.18863636363636,
                "pitch": 79,
                "velocity": 51,
                "duration": 0.018181818181815856,
                "tempo": 120.0
            },
            {
                "start_time": 73.18863636363636,
                "end_time": 73.8,
                "pitch": 74,
                "velocity": 51,
                "duration": 0.6113636363636346,
                "tempo": 120.0
            },
            {
                "start_time": 43.64545454545454,
                "end_time": 75.61136363636363,
                "pitch": 86,
                "velocity": 51,
                "duration": 31.965909090909093,
                "tempo": 120.0
            },
            {
                "start_time": 73.8,
                "end_time": 75.61136363636363,
                "pitch": 86,
                "velocity": 51,
                "duration": 1.8113636363636374,
                "tempo": 120.0
            },
            {
                "start_time": 43.54545454545455,
                "end_time": 75.7090909090909,
                "pitch": 84,
                "velocity": 51,
                "duration": 32.16363636363636,
                "tempo": 120.0
            },
            {
                "start_time": 75.61136363636363,
                "end_time": 75.7090909090909,
                "pitch": 84,
                "velocity": 51,
                "duration": 0.09772727272726911,
                "tempo": 120.0
            },
            {
                "start_time": 75.61136363636363,
                "end_time": 75.81136363636364,
                "pitch": 86,
                "velocity": 51,
                "duration": 0.20000000000000284,
                "tempo": 120.0
            },
            {
                "start_time": 75.71136363636363,
                "end_time": 75.81136363636364,
                "pitch": 86,
                "velocity": 51,
                "duration": 0.10000000000000853,
                "tempo": 120.0
            },
            {
                "start_time": 73.18863636363636,
                "end_time": 76.21363636363635,
                "pitch": 0,
                "velocity": 51,
                "duration": 3.0249999999999915,
                "tempo": 120.0
            },
            {
                "start_time": 75.81136363636364,
                "end_time": 76.21363636363635,
                "pitch": 79,
                "velocity": 51,
                "duration": 0.4022727272727167,
                "tempo": 120.0
            },
            {
                "start_time": 76.21363636363635,
                "end_time": 76.26363636363637,
                "pitch": 79,
                "velocity": 51,
                "duration": 0.05000000000001137,
                "tempo": 120.0
            },
            {
                "start_time": 73.17045454545455,
                "end_time": 76.26363636363637,
                "pitch": 91,
                "velocity": 51,
                "duration": 3.0931818181818187,
                "tempo": 120.0
            },
            {
                "start_time": 76.21363636363635,
                "end_time": 76.34545454545454,
                "pitch": 0,
                "velocity": 51,
                "duration": 0.13181818181818983,
                "tempo": 120.0
            },
            {
                "start_time": 76.26363636363637,
                "end_time": 76.34545454545454,
                "pitch": 79,
                "velocity": 51,
                "duration": 0.08181818181817846,
                "tempo": 120.0
            },
            {
                "start_time": 76.34545454545454,
                "end_time": 76.39545454545454,
                "pitch": 79,
                "velocity": 51,
                "duration": 0.04999999999999716,
                "tempo": 120.0
            },
            {
                "start_time": 76.26363636363637,
                "end_time": 76.39545454545454,
                "pitch": 91,
                "velocity": 51,
                "duration": 0.13181818181817562,
                "tempo": 120.0
            },
            {
                "start_time": 76.34545454545454,
                "end_time": 76.41363636363636,
                "pitch": 0,
                "velocity": 51,
                "duration": 0.06818181818181301,
                "tempo": 120.0
            },
            {
                "start_time": 76.39545454545454,
                "end_time": 76.41363636363636,
                "pitch": 79,
                "velocity": 51,
                "duration": 0.018181818181815856,
                "tempo": 120.0
            },
            {
                "start_time": 76.41363636363636,
                "end_time": 77.01818181818182,
                "pitch": 74,
                "velocity": 51,
                "duration": 0.6045454545454589,
                "tempo": 120.0
            },
            {
                "start_time": 77.01818181818182,
                "end_time": 78.82727272727273,
                "pitch": 86,
                "velocity": 51,
                "duration": 1.8090909090909122,
                "tempo": 120.0
            },
            {
                "start_time": 75.71136363636363,
                "end_time": 78.92954545454545,
                "pitch": 84,
                "velocity": 51,
                "duration": 3.2181818181818187,
                "tempo": 120.0
            },
            {
                "start_time": 78.82954545454545,
                "end_time": 78.92954545454545,
                "pitch": 84,
                "velocity": 51,
                "duration": 0.09999999999999432,
                "tempo": 120.0
            },
            {
                "start_time": 78.82954545454545,
                "end_time": 79.0340909090909,
                "pitch": 86,
                "velocity": 51,
                "duration": 0.20454545454545325,
                "tempo": 120.0
            },
            {
                "start_time": 78.92954545454545,
                "end_time": 79.0340909090909,
                "pitch": 86,
                "velocity": 51,
                "duration": 0.10454545454545894,
                "tempo": 120.0
            },
            {
                "start_time": 75.81136363636364,
                "end_time": 79.0340909090909,
                "pitch": 89,
                "velocity": 51,
                "duration": 3.222727272727269,
                "tempo": 120.0
            },
            {
                "start_time": 76.41363636363636,
                "end_time": 79.43636363636364,
                "pitch": 0,
                "velocity": 51,
                "duration": 3.0227272727272805,
                "tempo": 120.0
            },
            {
                "start_time": 79.0340909090909,
                "end_time": 79.43636363636364,
                "pitch": 79,
                "velocity": 51,
                "duration": 0.4022727272727309,
                "tempo": 120.0
            },
            {
                "start_time": 79.43636363636364,
                "end_time": 79.48409090909091,
                "pitch": 79,
                "velocity": 51,
                "duration": 0.04772727272727195,
                "tempo": 120.0
            },
            {
                "start_time": 76.39545454545454,
                "end_time": 79.48409090909091,
                "pitch": 91,
                "velocity": 51,
                "duration": 3.0886363636363683,
                "tempo": 120.0
            },
            {
                "start_time": 79.43636363636364,
                "end_time": 79.56590909090909,
                "pitch": 0,
                "velocity": 51,
                "duration": 0.1295454545454504,
                "tempo": 120.0
            },
            {
                "start_time": 79.48409090909091,
                "end_time": 79.56590909090909,
                "pitch": 79,
                "velocity": 51,
                "duration": 0.08181818181817846,
                "tempo": 120.0
            },
            {
                "start_time": 79.56590909090909,
                "end_time": 79.61363636363636,
                "pitch": 79,
                "velocity": 51,
                "duration": 0.04772727272727195,
                "tempo": 120.0
            },
            {
                "start_time": 79.48409090909091,
                "end_time": 79.61363636363636,
                "pitch": 91,
                "velocity": 51,
                "duration": 0.1295454545454504,
                "tempo": 120.0
            },
            {
                "start_time": 79.56590909090909,
                "end_time": 79.63181818181818,
                "pitch": 0,
                "velocity": 51,
                "duration": 0.06590909090908781,
                "tempo": 120.0
            },
            {
                "start_time": 79.61363636363636,
                "end_time": 79.63181818181818,
                "pitch": 79,
                "velocity": 51,
                "duration": 0.018181818181815856,
                "tempo": 120.0
            },
            {
                "start_time": 79.63181818181818,
                "end_time": 80.23409090909091,
                "pitch": 74,
                "velocity": 51,
                "duration": 0.6022727272727337,
                "tempo": 120.0
            },
            {
                "start_time": 80.23636363636363,
                "end_time": 82.05227272727272,
                "pitch": 86,
                "velocity": 51,
                "duration": 1.8159090909090878,
                "tempo": 120.0
            },
            {
                "start_time": 78.92954545454545,
                "end_time": 82.15227272727272,
                "pitch": 84,
                "velocity": 51,
                "duration": 3.222727272727269,
                "tempo": 120.0
            },
            {
                "start_time": 82.05227272727272,
                "end_time": 82.15227272727272,
                "pitch": 84,
                "velocity": 51,
                "duration": 0.09999999999999432,
                "tempo": 120.0
            },
            {
                "start_time": 82.05227272727272,
                "end_time": 82.25227272727273,
                "pitch": 86,
                "velocity": 51,
                "duration": 0.20000000000000284,
                "tempo": 120.0
            },
            {
                "start_time": 82.15227272727272,
                "end_time": 82.25227272727273,
                "pitch": 86,
                "velocity": 51,
                "duration": 0.10000000000000853,
                "tempo": 120.0
            },
            {
                "start_time": 79.0340909090909,
                "end_time": 82.25227272727273,
                "pitch": 89,
                "velocity": 51,
                "duration": 3.2181818181818187,
                "tempo": 120.0
            },
            {
                "start_time": 82.25227272727273,
                "end_time": 83.0590909090909,
                "pitch": 80,
                "velocity": 51,
                "duration": 0.8068181818181728,
                "tempo": 120.0
            },
            {
                "start_time": 83.2590909090909,
                "end_time": 83.4590909090909,
                "pitch": 80,
                "velocity": 51,
                "duration": 0.20000000000000284,
                "tempo": 120.0
            },
            {
                "start_time": 66.14545454545454,
                "end_time": 83.66136363636363,
                "pitch": 62,
                "velocity": 51,
                "duration": 17.51590909090909,
                "tempo": 120.0
            },
            {
                "start_time": 83.46136363636363,
                "end_time": 83.66136363636363,
                "pitch": 80,
                "velocity": 51,
                "duration": 0.20000000000000284,
                "tempo": 120.0
            },
            {
                "start_time": 82.15227272727272,
                "end_time": 83.86136363636363,
                "pitch": 84,
                "velocity": 51,
                "duration": 1.7090909090909179,
                "tempo": 120.0
            },
            {
                "start_time": 83.66136363636363,
                "end_time": 83.86136363636363,
                "pitch": 84,
                "velocity": 51,
                "duration": 0.20000000000000284,
                "tempo": 120.0
            },
            {
                "start_time": 82.25227272727273,
                "end_time": 84.4659090909091,
                "pitch": 89,
                "velocity": 51,
                "duration": 2.2136363636363683,
                "tempo": 120.0
            },
            {
                "start_time": 83.86136363636363,
                "end_time": 84.4659090909091,
                "pitch": 89,
                "velocity": 51,
                "duration": 0.6045454545454589,
                "tempo": 120.0
            },
            {
                "start_time": 84.4659090909091,
                "end_time": 84.66590909090908,
                "pitch": 86,
                "velocity": 51,
                "duration": 0.19999999999998863,
                "tempo": 120.0
            },
            {
                "start_time": 84.66590909090908,
                "end_time": 84.96818181818182,
                "pitch": 86,
                "velocity": 51,
                "duration": 0.3022727272727366,
                "tempo": 120.0
            },
            {
                "start_time": 84.4659090909091,
                "end_time": 85.27045454545454,
                "pitch": 89,
                "velocity": 51,
                "duration": 0.8045454545454476,
                "tempo": 120.0
            },
            {
                "start_time": 84.96818181818182,
                "end_time": 85.27045454545454,
                "pitch": 89,
                "velocity": 51,
                "duration": 0.30227272727272236,
                "tempo": 120.0
            }
        ],
        "Acoustic Bass": [
            {
                "start_time": 0.004545454545454545,
                "end_time": 0.16818181818181818,
                "pitch": 31,
                "velocity": 51,
                "duration": 0.16363636363636364,
                "tempo": 120.0
            },
            {
                "start_time": 0.20227272727272727,
                "end_time": 0.36818181818181817,
                "pitch": 31,
                "velocity": 51,
                "duration": 0.1659090909090909,
                "tempo": 120.0
            },
            {
                "start_time": 0.4022727272727272,
                "end_time": 0.5727272727272728,
                "pitch": 31,
                "velocity": 51,
                "duration": 0.17045454545454553,
                "tempo": 120.0
            },
            {
                "start_time": 0.6068181818181818,
                "end_time": 0.7772727272727272,
                "pitch": 31,
                "velocity": 51,
                "duration": 0.17045454545454541,
                "tempo": 120.0
            },
            {
                "start_time": 0.8136363636363636,
                "end_time": 0.975,
                "pitch": 31,
                "velocity": 51,
                "duration": 0.16136363636363638,
                "tempo": 120.0
            },
            {
                "start_time": 1.009090909090909,
                "end_time": 1.1727272727272726,
                "pitch": 31,
                "velocity": 51,
                "duration": 0.16363636363636358,
                "tempo": 120.0
            },
            {
                "start_time": 1.2068181818181818,
                "end_time": 1.2727272727272727,
                "pitch": 31,
                "velocity": 51,
                "duration": 0.06590909090909092,
                "tempo": 120.0
            },
            {
                "start_time": 1.3068181818181817,
                "end_time": 1.3727272727272726,
                "pitch": 35,
                "velocity": 51,
                "duration": 0.06590909090909092,
                "tempo": 120.0
            },
            {
                "start_time": 1.4068181818181817,
                "end_time": 1.4727272727272727,
                "pitch": 36,
                "velocity": 51,
                "duration": 0.06590909090909092,
                "tempo": 120.0
            },
            {
                "start_time": 1.5068181818181818,
                "end_time": 1.5727272727272728,
                "pitch": 38,
                "velocity": 51,
                "duration": 0.06590909090909092,
                "tempo": 120.0
            },
            {
                "start_time": 1.5068181818181818,
                "end_time": 1.7772727272727271,
                "pitch": 36,
                "velocity": 51,
                "duration": 0.2704545454545453,
                "tempo": 120.0
            },
            {
                "start_time": 1.6068181818181817,
                "end_time": 1.7772727272727271,
                "pitch": 36,
                "velocity": 51,
                "duration": 0.17045454545454541,
                "tempo": 120.0
            },
            {
                "start_time": 1.8113636363636363,
                "end_time": 1.9818181818181817,
                "pitch": 36,
                "velocity": 51,
                "duration": 0.17045454545454541,
                "tempo": 120.0
            },
            {
                "start_time": 2.018181818181818,
                "end_time": 2.184090909090909,
                "pitch": 36,
                "velocity": 51,
                "duration": 0.165909090909091,
                "tempo": 120.0
            },
            {
                "start_time": 2.2181818181818183,
                "end_time": 2.384090909090909,
                "pitch": 36,
                "velocity": 51,
                "duration": 0.16590909090909056,
                "tempo": 120.0
            },
            {
                "start_time": 2.418181818181818,
                "end_time": 2.5863636363636364,
                "pitch": 36,
                "velocity": 51,
                "duration": 0.16818181818181843,
                "tempo": 120.0
            },
            {
                "start_time": 2.620454545454545,
                "end_time": 2.786363636363636,
                "pitch": 36,
                "velocity": 51,
                "duration": 0.165909090909091,
                "tempo": 120.0
            },
            {
                "start_time": 2.8204545454545453,
                "end_time": 2.9886363636363633,
                "pitch": 36,
                "velocity": 51,
                "duration": 0.168181818181818,
                "tempo": 120.0
            },
            {
                "start_time": 3.0204545454545455,
                "end_time": 3.1886363636363635,
                "pitch": 36,
                "velocity": 51,
                "duration": 0.168181818181818,
                "tempo": 120.0
            },
            {
                "start_time": 3.2227272727272727,
                "end_time": 3.3886363636363637,
                "pitch": 36,
                "velocity": 51,
                "duration": 0.165909090909091,
                "tempo": 120.0
            },
            {
                "start_time": 3.4227272727272724,
                "end_time": 3.5886363636363634,
                "pitch": 36,
                "velocity": 51,
                "duration": 0.165909090909091,
                "tempo": 120.0
            },
            {
                "start_time": 3.6227272727272726,
                "end_time": 3.7886363636363636,
                "pitch": 36,
                "velocity": 51,
                "duration": 0.165909090909091,
                "tempo": 120.0
            },
            {
                "start_time": 3.8227272727272728,
                "end_time": 3.9886363636363633,
                "pitch": 36,
                "velocity": 51,
                "duration": 0.16590909090909056,
                "tempo": 120.0
            },
            {
                "start_time": 4.0227272727272725,
                "end_time": 4.1886363636363635,
                "pitch": 36,
                "velocity": 51,
                "duration": 0.165909090909091,
                "tempo": 120.0
            },
            {
                "start_time": 4.222727272727273,
                "end_time": 4.388636363636364,
                "pitch": 36,
                "velocity": 51,
                "duration": 0.165909090909091,
                "tempo": 120.0
            },
            {
                "start_time": 4.422727272727273,
                "end_time": 4.590909090909091,
                "pitch": 36,
                "velocity": 51,
                "duration": 0.168181818181818,
                "tempo": 120.0
            },
            {
                "start_time": 4.625,
                "end_time": 4.793181818181818,
                "pitch": 36,
                "velocity": 51,
                "duration": 0.168181818181818,
                "tempo": 120.0
            },
            {
                "start_time": 4.827272727272727,
                "end_time": 4.993181818181818,
                "pitch": 36,
                "velocity": 51,
                "duration": 0.165909090909091,
                "tempo": 120.0
            },
            {
                "start_time": 5.027272727272727,
                "end_time": 5.193181818181818,
                "pitch": 36,
                "velocity": 51,
                "duration": 0.165909090909091,
                "tempo": 120.0
            },
            {
                "start_time": 5.227272727272727,
                "end_time": 5.3954545454545455,
                "pitch": 36,
                "velocity": 51,
                "duration": 0.16818181818181888,
                "tempo": 120.0
            },
            {
                "start_time": 5.429545454545455,
                "end_time": 5.595454545454545,
                "pitch": 36,
                "velocity": 51,
                "duration": 0.16590909090909012,
                "tempo": 120.0
            },
            {
                "start_time": 5.629545454545454,
                "end_time": 5.802272727272727,
                "pitch": 36,
                "velocity": 51,
                "duration": 0.17272727272727284,
                "tempo": 120.0
            },
            {
                "start_time": 5.836363636363636,
                "end_time": 6.006818181818182,
                "pitch": 36,
                "velocity": 51,
                "duration": 0.17045454545454586,
                "tempo": 120.0
            },
            {
                "start_time": 6.040909090909091,
                "end_time": 6.209090909090909,
                "pitch": 36,
                "velocity": 51,
                "duration": 0.168181818181818,
                "tempo": 120.0
            },
            {
                "start_time": 6.243181818181818,
                "end_time": 6.409090909090909,
                "pitch": 36,
                "velocity": 51,
                "duration": 0.165909090909091,
                "tempo": 120.0
            },
            {
                "start_time": 6.4431818181818175,
                "end_time": 6.6090909090909085,
                "pitch": 36,
                "velocity": 51,
                "duration": 0.165909090909091,
                "tempo": 120.0
            },
            {
                "start_time": 6.643181818181818,
                "end_time": 6.811363636363636,
                "pitch": 36,
                "velocity": 51,
                "duration": 0.168181818181818,
                "tempo": 120.0
            },
            {
                "start_time": 6.845454545454545,
                "end_time": 7.013636363636364,
                "pitch": 36,
                "velocity": 51,
                "duration": 0.16818181818181888,
                "tempo": 120.0
            },
            {
                "start_time": 7.047727272727272,
                "end_time": 7.215909090909091,
                "pitch": 36,
                "velocity": 51,
                "duration": 0.16818181818181888,
                "tempo": 120.0
            },
            {
                "start_time": 7.25,
                "end_time": 7.41590909090909,
                "pitch": 36,
                "velocity": 51,
                "duration": 0.16590909090909012,
                "tempo": 120.0
            },
            {
                "start_time": 7.449999999999999,
                "end_time": 7.61590909090909,
                "pitch": 36,
                "velocity": 51,
                "duration": 0.165909090909091,
                "tempo": 120.0
            },
            {
                "start_time": 7.6499999999999995,
                "end_time": 7.8181818181818175,
                "pitch": 36,
                "velocity": 51,
                "duration": 0.168181818181818,
                "tempo": 120.0
            },
            {
                "start_time": 7.85,
                "end_time": 7.918181818181818,
                "pitch": 36,
                "velocity": 51,
                "duration": 0.06818181818181834,
                "tempo": 120.0
            },
            {
                "start_time": 7.952272727272727,
                "end_time": 8.018181818181818,
                "pitch": 36,
                "velocity": 51,
                "duration": 0.06590909090909047,
                "tempo": 120.0
            },
            {
                "start_time": 8.052272727272728,
                "end_time": 8.218181818181817,
                "pitch": 36,
                "velocity": 51,
                "duration": 0.16590909090908923,
                "tempo": 120.0
            },
            {
                "start_time": 8.252272727272727,
                "end_time": 8.420454545454545,
                "pitch": 36,
                "velocity": 51,
                "duration": 0.168181818181818,
                "tempo": 120.0
            },
            {
                "start_time": 8.452272727272726,
                "end_time": 8.620454545454544,
                "pitch": 36,
                "velocity": 51,
                "duration": 0.168181818181818,
                "tempo": 120.0
            },
            {
                "start_time": 8.654545454545454,
                "end_time": 8.822727272727272,
                "pitch": 36,
                "velocity": 51,
                "duration": 0.168181818181818,
                "tempo": 120.0
            },
            {
                "start_time": 8.85681818181818,
                "end_time": 9.025,
                "pitch": 36,
                "velocity": 51,
                "duration": 0.16818181818181976,
                "tempo": 120.0
            },
            {
                "start_time": 9.059090909090909,
                "end_time": 9.225,
                "pitch": 36,
                "velocity": 51,
                "duration": 0.165909090909091,
                "tempo": 120.0
            },
            {
                "start_time": 9.259090909090908,
                "end_time": 9.427272727272728,
                "pitch": 36,
                "velocity": 51,
                "duration": 0.16818181818181976,
                "tempo": 120.0
            },
            {
                "start_time": 9.461363636363636,
                "end_time": 9.629545454545454,
                "pitch": 36,
                "velocity": 51,
                "duration": 0.168181818181818,
                "tempo": 120.0
            },
            {
                "start_time": 9.663636363636364,
                "end_time": 9.829545454545453,
                "pitch": 36,
                "velocity": 51,
                "duration": 0.16590909090908923,
                "tempo": 120.0
            },
            {
                "start_time": 9.863636363636363,
                "end_time": 10.029545454545454,
                "pitch": 36,
                "velocity": 51,
                "duration": 0.165909090909091,
                "tempo": 120.0
            },
            {
                "start_time": 10.063636363636363,
                "end_time": 10.23181818181818,
                "pitch": 36,
                "velocity": 51,
                "duration": 0.168181818181818,
                "tempo": 120.0
            },
            {
                "start_time": 10.26590909090909,
                "end_time": 10.431818181818182,
                "pitch": 36,
                "velocity": 51,
                "duration": 0.165909090909091,
                "tempo": 120.0
            },
            {
                "start_time": 10.46590909090909,
                "end_time": 10.634090909090908,
                "pitch": 36,
                "velocity": 51,
                "duration": 0.168181818181818,
                "tempo": 120.0
            },
            {
                "start_time": 10.668181818181818,
                "end_time": 10.836363636363636,
                "pitch": 36,
                "velocity": 51,
                "duration": 0.168181818181818,
                "tempo": 120.0
            },
            {
                "start_time": 10.870454545454544,
                "end_time": 11.038636363636362,
                "pitch": 36,
                "velocity": 51,
                "duration": 0.168181818181818,
                "tempo": 120.0
            },
            {
                "start_time": 11.072727272727272,
                "end_time": 11.238636363636363,
                "pitch": 36,
                "velocity": 51,
                "duration": 0.165909090909091,
                "tempo": 120.0
            },
            {
                "start_time": 11.272727272727272,
                "end_time": 11.44090909090909,
                "pitch": 36,
                "velocity": 51,
                "duration": 0.168181818181818,
                "tempo": 120.0
            },
            {
                "start_time": 11.475,
                "end_time": 11.643181818181818,
                "pitch": 36,
                "velocity": 51,
                "duration": 0.168181818181818,
                "tempo": 120.0
            },
            {
                "start_time": 11.677272727272726,
                "end_time": 11.843181818181817,
                "pitch": 36,
                "velocity": 51,
                "duration": 0.165909090909091,
                "tempo": 120.0
            },
            {
                "start_time": 11.877272727272727,
                "end_time": 12.043181818181818,
                "pitch": 36,
                "velocity": 51,
                "duration": 0.165909090909091,
                "tempo": 120.0
            },
            {
                "start_time": 12.077272727272726,
                "end_time": 12.245454545454544,
                "pitch": 36,
                "velocity": 51,
                "duration": 0.168181818181818,
                "tempo": 120.0
            },
            {
                "start_time": 12.279545454545454,
                "end_time": 12.445454545454545,
                "pitch": 36,
                "velocity": 51,
                "duration": 0.165909090909091,
                "tempo": 120.0
            },
            {
                "start_time": 12.479545454545454,
                "end_time": 12.647727272727272,
                "pitch": 36,
                "velocity": 51,
                "duration": 0.168181818181818,
                "tempo": 120.0
            },
            {
                "start_time": 12.681818181818182,
                "end_time": 12.85,
                "pitch": 36,
                "velocity": 51,
                "duration": 0.168181818181818,
                "tempo": 120.0
            },
            {
                "start_time": 12.884090909090908,
                "end_time": 13.049999999999999,
                "pitch": 36,
                "velocity": 51,
                "duration": 0.165909090909091,
                "tempo": 120.0
            },
            {
                "start_time": 13.084090909090909,
                "end_time": 13.252272727272727,
                "pitch": 36,
                "velocity": 51,
                "duration": 0.168181818181818,
                "tempo": 120.0
            },
            {
                "start_time": 13.286363636363635,
                "end_time": 13.456818181818182,
                "pitch": 36,
                "velocity": 51,
                "duration": 0.17045454545454675,
                "tempo": 120.0
            },
            {
                "start_time": 13.493181818181817,
                "end_time": 13.663636363636362,
                "pitch": 36,
                "velocity": 51,
                "duration": 0.17045454545454497,
                "tempo": 120.0
            },
            {
                "start_time": 13.697727272727272,
                "end_time": 13.861363636363636,
                "pitch": 36,
                "velocity": 51,
                "duration": 0.16363636363636402,
                "tempo": 120.0
            },
            {
                "start_time": 13.893181818181818,
                "end_time": 14.056818181818182,
                "pitch": 36,
                "velocity": 51,
                "duration": 0.16363636363636402,
                "tempo": 120.0
            },
            {
                "start_time": 14.09090909090909,
                "end_time": 14.159090909090908,
                "pitch": 36,
                "velocity": 51,
                "duration": 0.06818181818181834,
                "tempo": 120.0
            },
            {
                "start_time": 14.193181818181818,
                "end_time": 14.261363636363635,
                "pitch": 41,
                "velocity": 51,
                "duration": 0.06818181818181657,
                "tempo": 120.0
            },
            {
                "start_time": 14.295454545454545,
                "end_time": 14.363636363636363,
                "pitch": 43,
                "velocity": 51,
                "duration": 0.06818181818181834,
                "tempo": 120.0
            },
            {
                "start_time": 14.397727272727272,
                "end_time": 14.468181818181817,
                "pitch": 48,
                "velocity": 51,
                "duration": 0.07045454545454533,
                "tempo": 120.0
            },
            {
                "start_time": 14.193181818181818,
                "end_time": 14.663636363636362,
                "pitch": 36,
                "velocity": 51,
                "duration": 0.4704545454545439,
                "tempo": 120.0
            },
            {
                "start_time": 14.502272727272727,
                "end_time": 14.663636363636362,
                "pitch": 36,
                "velocity": 51,
                "duration": 0.16136363636363527,
                "tempo": 120.0
            },
            {
                "start_time": 14.697727272727272,
                "end_time": 14.861363636363636,
                "pitch": 36,
                "velocity": 51,
                "duration": 0.16363636363636402,
                "tempo": 120.0
            },
            {
                "start_time": 14.895454545454545,
                "end_time": 15.06590909090909,
                "pitch": 36,
                "velocity": 51,
                "duration": 0.17045454545454497,
                "tempo": 120.0
            },
            {
                "start_time": 15.1,
                "end_time": 15.270454545454545,
                "pitch": 36,
                "velocity": 51,
                "duration": 0.17045454545454497,
                "tempo": 120.0
            },
            {
                "start_time": 15.304545454545455,
                "end_time": 15.472727272727273,
                "pitch": 36,
                "velocity": 51,
                "duration": 0.168181818181818,
                "tempo": 120.0
            },
            {
                "start_time": 15.506818181818181,
                "end_time": 15.674999999999999,
                "pitch": 36,
                "velocity": 51,
                "duration": 0.168181818181818,
                "tempo": 120.0
            },
            {
                "start_time": 15.709090909090909,
                "end_time": 15.877272727272727,
                "pitch": 36,
                "velocity": 51,
                "duration": 0.168181818181818,
                "tempo": 120.0
            },
            {
                "start_time": 15.911363636363635,
                "end_time": 16.077272727272728,
                "pitch": 36,
                "velocity": 51,
                "duration": 0.16590909090909278,
                "tempo": 120.0
            },
            {
                "start_time": 16.111363636363635,
                "end_time": 16.279545454545453,
                "pitch": 36,
                "velocity": 51,
                "duration": 0.168181818181818,
                "tempo": 120.0
            },
            {
                "start_time": 16.313636363636363,
                "end_time": 16.48181818181818,
                "pitch": 36,
                "velocity": 51,
                "duration": 0.168181818181818,
                "tempo": 120.0
            },
            {
                "start_time": 16.51590909090909,
                "end_time": 16.68181818181818,
                "pitch": 36,
                "velocity": 51,
                "duration": 0.16590909090908923,
                "tempo": 120.0
            },
            {
                "start_time": 16.71590909090909,
                "end_time": 16.881818181818183,
                "pitch": 36,
                "velocity": 51,
                "duration": 0.16590909090909278,
                "tempo": 120.0
            },
            {
                "start_time": 16.91590909090909,
                "end_time": 17.081818181818182,
                "pitch": 36,
                "velocity": 51,
                "duration": 0.16590909090909278,
                "tempo": 120.0
            },
            {
                "start_time": 17.11590909090909,
                "end_time": 17.28181818181818,
                "pitch": 36,
                "velocity": 51,
                "duration": 0.16590909090909278,
                "tempo": 120.0
            },
            {
                "start_time": 17.31590909090909,
                "end_time": 17.48409090909091,
                "pitch": 36,
                "velocity": 51,
                "duration": 0.168181818181818,
                "tempo": 120.0
            },
            {
                "start_time": 17.518181818181816,
                "end_time": 17.584090909090907,
                "pitch": 36,
                "velocity": 51,
                "duration": 0.06590909090909136,
                "tempo": 120.0
            },
            {
                "start_time": 17.618181818181817,
                "end_time": 17.686363636363634,
                "pitch": 36,
                "velocity": 51,
                "duration": 0.06818181818181657,
                "tempo": 120.0
            },
            {
                "start_time": 17.720454545454544,
                "end_time": 17.886363636363637,
                "pitch": 34,
                "velocity": 51,
                "duration": 0.16590909090909278,
                "tempo": 120.0
            },
            {
                "start_time": 17.920454545454543,
                "end_time": 18.086363636363636,
                "pitch": 34,
                "velocity": 51,
                "duration": 0.16590909090909278,
                "tempo": 120.0
            },
            {
                "start_time": 18.120454545454546,
                "end_time": 18.288636363636364,
                "pitch": 34,
                "velocity": 51,
                "duration": 0.168181818181818,
                "tempo": 120.0
            },
            {
                "start_time": 18.32272727272727,
                "end_time": 18.488636363636363,
                "pitch": 34,
                "velocity": 51,
                "duration": 0.16590909090909278,
                "tempo": 120.0
            },
            {
                "start_time": 18.522727272727273,
                "end_time": 18.69090909090909,
                "pitch": 34,
                "velocity": 51,
                "duration": 0.168181818181818,
                "tempo": 120.0
            },
            {
                "start_time": 18.722727272727273,
                "end_time": 18.89090909090909,
                "pitch": 34,
                "velocity": 51,
                "duration": 0.168181818181818,
                "tempo": 120.0
            },
            {
                "start_time": 18.925,
                "end_time": 19.09090909090909,
                "pitch": 34,
                "velocity": 51,
                "duration": 0.16590909090908923,
                "tempo": 120.0
            },
            {
                "start_time": 19.125,
                "end_time": 19.29090909090909,
                "pitch": 34,
                "velocity": 51,
                "duration": 0.16590909090908923,
                "tempo": 120.0
            },
            {
                "start_time": 19.325,
                "end_time": 19.493181818181817,
                "pitch": 34,
                "velocity": 51,
                "duration": 0.168181818181818,
                "tempo": 120.0
            },
            {
                "start_time": 19.527272727272727,
                "end_time": 19.693181818181817,
                "pitch": 34,
                "velocity": 51,
                "duration": 0.16590909090908923,
                "tempo": 120.0
            },
            {
                "start_time": 19.727272727272727,
                "end_time": 19.895454545454545,
                "pitch": 34,
                "velocity": 51,
                "duration": 0.168181818181818,
                "tempo": 120.0
            },
            {
                "start_time": 19.927272727272726,
                "end_time": 20.095454545454544,
                "pitch": 34,
                "velocity": 51,
                "duration": 0.168181818181818,
                "tempo": 120.0
            },
            {
                "start_time": 20.129545454545454,
                "end_time": 20.295454545454543,
                "pitch": 34,
                "velocity": 51,
                "duration": 0.16590909090908923,
                "tempo": 120.0
            },
            {
                "start_time": 20.329545454545453,
                "end_time": 20.49772727272727,
                "pitch": 34,
                "velocity": 51,
                "duration": 0.168181818181818,
                "tempo": 120.0
            },
            {
                "start_time": 20.53181818181818,
                "end_time": 20.597727272727273,
                "pitch": 34,
                "velocity": 51,
                "duration": 0.06590909090909136,
                "tempo": 120.0
            },
            {
                "start_time": 1.6068181818181817,
                "end_time": 20.69772727272727,
                "pitch": 38,
                "velocity": 51,
                "duration": 19.09090909090909,
                "tempo": 120.0
            },
            {
                "start_time": 20.63181818181818,
                "end_time": 20.69772727272727,
                "pitch": 38,
                "velocity": 51,
                "duration": 0.06590909090909136,
                "tempo": 120.0
            },
            {
                "start_time": 20.73181818181818,
                "end_time": 20.797727272727272,
                "pitch": 41,
                "velocity": 51,
                "duration": 0.06590909090909136,
                "tempo": 120.0
            },
            {
                "start_time": 14.295454545454545,
                "end_time": 20.831818181818182,
                "pitch": 54,
                "velocity": 51,
                "duration": 6.536363636363637,
                "tempo": 120.0
            },
            {
                "start_time": 20.831818181818182,
                "end_time": 20.897727272727273,
                "pitch": 46,
                "velocity": 51,
                "duration": 0.06590909090909136,
                "tempo": 120.0
            },
            {
                "start_time": 20.63181818181818,
                "end_time": 20.93181818181818,
                "pitch": 14,
                "velocity": 51,
                "duration": 0.3000000000000007,
                "tempo": 120.0
            },
            {
                "start_time": 20.93181818181818,
                "end_time": 21.102272727272727,
                "pitch": 36,
                "velocity": 51,
                "duration": 0.17045454545454675,
                "tempo": 120.0
            },
            {
                "start_time": 21.136363636363637,
                "end_time": 21.30909090909091,
                "pitch": 36,
                "velocity": 51,
                "duration": 0.17272727272727195,
                "tempo": 120.0
            },
            {
                "start_time": 21.34318181818182,
                "end_time": 21.50681818181818,
                "pitch": 36,
                "velocity": 51,
                "duration": 0.16363636363636047,
                "tempo": 120.0
            },
            {
                "start_time": 21.54090909090909,
                "end_time": 21.702272727272724,
                "pitch": 36,
                "velocity": 51,
                "duration": 0.16136363636363527,
                "tempo": 120.0
            },
            {
                "start_time": 21.736363636363635,
                "end_time": 21.90681818181818,
                "pitch": 36,
                "velocity": 51,
                "duration": 0.17045454545454675,
                "tempo": 120.0
            },
            {
                "start_time": 21.94090909090909,
                "end_time": 22.111363636363635,
                "pitch": 36,
                "velocity": 51,
                "duration": 0.1704545454545432,
                "tempo": 120.0
            },
            {
                "start_time": 22.147727272727273,
                "end_time": 22.313636363636363,
                "pitch": 36,
                "velocity": 51,
                "duration": 0.16590909090908923,
                "tempo": 120.0
            },
            {
                "start_time": 22.347727272727273,
                "end_time": 22.513636363636362,
                "pitch": 36,
                "velocity": 51,
                "duration": 0.16590909090908923,
                "tempo": 120.0
            },
            {
                "start_time": 22.547727272727272,
                "end_time": 22.71590909090909,
                "pitch": 36,
                "velocity": 51,
                "duration": 0.168181818181818,
                "tempo": 120.0
            },
            {
                "start_time": 22.75,
                "end_time": 22.918181818181818,
                "pitch": 36,
                "velocity": 51,
                "duration": 0.168181818181818,
                "tempo": 120.0
            },
            {
                "start_time": 22.95,
                "end_time": 23.118181818181817,
                "pitch": 36,
                "velocity": 51,
                "duration": 0.168181818181818,
                "tempo": 120.0
            },
            {
                "start_time": 23.152272727272727,
                "end_time": 23.318181818181817,
                "pitch": 36,
                "velocity": 51,
                "duration": 0.16590909090908923,
                "tempo": 120.0
            },
            {
                "start_time": 23.352272727272727,
                "end_time": 23.518181818181816,
                "pitch": 36,
                "velocity": 51,
                "duration": 0.16590909090908923,
                "tempo": 120.0
            },
            {
                "start_time": 23.552272727272726,
                "end_time": 23.71818181818182,
                "pitch": 36,
                "velocity": 51,
                "duration": 0.16590909090909278,
                "tempo": 120.0
            },
            {
                "start_time": 23.752272727272725,
                "end_time": 23.920454545454543,
                "pitch": 36,
                "velocity": 51,
                "duration": 0.168181818181818,
                "tempo": 120.0
            },
            {
                "start_time": 23.954545454545453,
                "end_time": 24.020454545454545,
                "pitch": 36,
                "velocity": 51,
                "duration": 0.06590909090909136,
                "tempo": 120.0
            },
            {
                "start_time": 24.054545454545455,
                "end_time": 24.120454545454546,
                "pitch": 36,
                "velocity": 51,
                "duration": 0.06590909090909136,
                "tempo": 120.0
            },
            {
                "start_time": 17.720454545454544,
                "end_time": 24.15681818181818,
                "pitch": 40,
                "velocity": 51,
                "duration": 6.436363636363637,
                "tempo": 120.0
            },
            {
                "start_time": 24.15681818181818,
                "end_time": 24.32272727272727,
                "pitch": 34,
                "velocity": 51,
                "duration": 0.16590909090908923,
                "tempo": 120.0
            },
            {
                "start_time": 24.354545454545452,
                "end_time": 24.52272727272727,
                "pitch": 34,
                "velocity": 51,
                "duration": 0.168181818181818,
                "tempo": 120.0
            },
            {
                "start_time": 24.55681818181818,
                "end_time": 24.722727272727273,
                "pitch": 34,
                "velocity": 51,
                "duration": 0.16590909090909278,
                "tempo": 120.0
            },
            {
                "start_time": 24.75681818181818,
                "end_time": 24.924999999999997,
                "pitch": 34,
                "velocity": 51,
                "duration": 0.168181818181818,
                "tempo": 120.0
            },
            {
                "start_time": 24.959090909090907,
                "end_time": 25.125,
                "pitch": 34,
                "velocity": 51,
                "duration": 0.16590909090909278,
                "tempo": 120.0
            },
            {
                "start_time": 25.159090909090907,
                "end_time": 25.325,
                "pitch": 34,
                "velocity": 51,
                "duration": 0.16590909090909278,
                "tempo": 120.0
            },
            {
                "start_time": 25.35909090909091,
                "end_time": 25.527272727272727,
                "pitch": 34,
                "velocity": 51,
                "duration": 0.168181818181818,
                "tempo": 120.0
            },
            {
                "start_time": 25.55909090909091,
                "end_time": 25.727272727272727,
                "pitch": 34,
                "velocity": 51,
                "duration": 0.168181818181818,
                "tempo": 120.0
            },
            {
                "start_time": 25.761363636363637,
                "end_time": 25.927272727272726,
                "pitch": 34,
                "velocity": 51,
                "duration": 0.16590909090908923,
                "tempo": 120.0
            },
            {
                "start_time": 25.961363636363636,
                "end_time": 26.129545454545454,
                "pitch": 34,
                "velocity": 51,
                "duration": 0.168181818181818,
                "tempo": 120.0
            },
            {
                "start_time": 26.163636363636364,
                "end_time": 26.329545454545453,
                "pitch": 34,
                "velocity": 51,
                "duration": 0.16590909090908923,
                "tempo": 120.0
            },
            {
                "start_time": 26.363636363636363,
                "end_time": 26.529545454545453,
                "pitch": 34,
                "velocity": 51,
                "duration": 0.16590909090908923,
                "tempo": 120.0
            },
            {
                "start_time": 26.563636363636363,
                "end_time": 26.73181818181818,
                "pitch": 34,
                "velocity": 51,
                "duration": 0.168181818181818,
                "tempo": 120.0
            },
            {
                "start_time": 26.76590909090909,
                "end_time": 26.93409090909091,
                "pitch": 34,
                "velocity": 51,
                "duration": 0.168181818181818,
                "tempo": 120.0
            },
            {
                "start_time": 26.968181818181815,
                "end_time": 27.034090909090907,
                "pitch": 34,
                "velocity": 51,
                "duration": 0.06590909090909136,
                "tempo": 120.0
            },
            {
                "start_time": 20.93181818181818,
                "end_time": 27.068181818181817,
                "pitch": 14,
                "velocity": 51,
                "duration": 6.136363636363637,
                "tempo": 120.0
            },
            {
                "start_time": 20.73181818181818,
                "end_time": 27.134090909090908,
                "pitch": 38,
                "velocity": 51,
                "duration": 6.402272727272727,
                "tempo": 120.0
            },
            {
                "start_time": 27.068181818181817,
                "end_time": 27.134090909090908,
                "pitch": 38,
                "velocity": 51,
                "duration": 0.06590909090909136,
                "tempo": 120.0
            },
            {
                "start_time": 27.168181818181818,
                "end_time": 27.23409090909091,
                "pitch": 41,
                "velocity": 51,
                "duration": 0.06590909090909136,
                "tempo": 120.0
            },
            {
                "start_time": 20.831818181818182,
                "end_time": 27.268181818181816,
                "pitch": 54,
                "velocity": 51,
                "duration": 6.436363636363634,
                "tempo": 120.0
            },
            {
                "start_time": 27.268181818181816,
                "end_time": 27.334090909090907,
                "pitch": 46,
                "velocity": 51,
                "duration": 0.06590909090909136,
                "tempo": 120.0
            },
            {
                "start_time": 27.068181818181817,
                "end_time": 27.368181818181817,
                "pitch": 14,
                "velocity": 51,
                "duration": 0.3000000000000007,
                "tempo": 120.0
            },
            {
                "start_time": 27.368181818181817,
                "end_time": 27.534090909090907,
                "pitch": 36,
                "velocity": 51,
                "duration": 0.16590909090908923,
                "tempo": 120.0
            },
            {
                "start_time": 27.568181818181817,
                "end_time": 27.73409090909091,
                "pitch": 36,
                "velocity": 51,
                "duration": 0.16590909090909278,
                "tempo": 120.0
            },
            {
                "start_time": 27.768181818181816,
                "end_time": 27.936363636363634,
                "pitch": 36,
                "velocity": 51,
                "duration": 0.168181818181818,
                "tempo": 120.0
            },
            {
                "start_time": 27.970454545454544,
                "end_time": 28.138636363636362,
                "pitch": 36,
                "velocity": 51,
                "duration": 0.168181818181818,
                "tempo": 120.0
            },
            {
                "start_time": 28.172727272727272,
                "end_time": 28.343181818181815,
                "pitch": 36,
                "velocity": 51,
                "duration": 0.1704545454545432,
                "tempo": 120.0
            },
            {
                "start_time": 28.377272727272725,
                "end_time": 28.547727272727272,
                "pitch": 36,
                "velocity": 51,
                "duration": 0.17045454545454675,
                "tempo": 120.0
            },
            {
                "start_time": 28.581818181818182,
                "end_time": 28.745454545454542,
                "pitch": 36,
                "velocity": 51,
                "duration": 0.16363636363636047,
                "tempo": 120.0
            },
            {
                "start_time": 28.779545454545453,
                "end_time": 28.943181818181817,
                "pitch": 36,
                "velocity": 51,
                "duration": 0.16363636363636402,
                "tempo": 120.0
            },
            {
                "start_time": 28.974999999999998,
                "end_time": 29.145454545454545,
                "pitch": 36,
                "velocity": 51,
                "duration": 0.17045454545454675,
                "tempo": 120.0
            },
            {
                "start_time": 29.18181818181818,
                "end_time": 29.352272727272727,
                "pitch": 36,
                "velocity": 51,
                "duration": 0.17045454545454675,
                "tempo": 120.0
            },
            {
                "start_time": 29.386363636363637,
                "end_time": 29.554545454545455,
                "pitch": 36,
                "velocity": 51,
                "duration": 0.168181818181818,
                "tempo": 120.0
            },
            {
                "start_time": 29.586363636363636,
                "end_time": 29.754545454545454,
                "pitch": 36,
                "velocity": 51,
                "duration": 0.168181818181818,
                "tempo": 120.0
            },
            {
                "start_time": 29.78863636363636,
                "end_time": 29.954545454545453,
                "pitch": 36,
                "velocity": 51,
                "duration": 0.16590909090909278,
                "tempo": 120.0
            },
            {
                "start_time": 29.988636363636363,
                "end_time": 30.154545454545453,
                "pitch": 36,
                "velocity": 51,
                "duration": 0.16590909090908923,
                "tempo": 120.0
            },
            {
                "start_time": 30.188636363636363,
                "end_time": 30.354545454545452,
                "pitch": 36,
                "velocity": 51,
                "duration": 0.16590909090908923,
                "tempo": 120.0
            },
            {
                "start_time": 30.388636363636362,
                "end_time": 30.456818181818182,
                "pitch": 36,
                "velocity": 51,
                "duration": 0.06818181818182012,
                "tempo": 120.0
            },
            {
                "start_time": 30.49090909090909,
                "end_time": 30.55681818181818,
                "pitch": 36,
                "velocity": 51,
                "duration": 0.06590909090909136,
                "tempo": 120.0
            },
            {
                "start_time": 24.15681818181818,
                "end_time": 30.59090909090909,
                "pitch": 40,
                "velocity": 51,
                "duration": 6.434090909090909,
                "tempo": 120.0
            },
            {
                "start_time": 30.59090909090909,
                "end_time": 30.75681818181818,
                "pitch": 34,
                "velocity": 51,
                "duration": 0.16590909090908923,
                "tempo": 120.0
            },
            {
                "start_time": 30.79090909090909,
                "end_time": 30.959090909090907,
                "pitch": 34,
                "velocity": 51,
                "duration": 0.168181818181818,
                "tempo": 120.0
            },
            {
                "start_time": 30.99090909090909,
                "end_time": 31.159090909090907,
                "pitch": 34,
                "velocity": 51,
                "duration": 0.168181818181818,
                "tempo": 120.0
            },
            {
                "start_time": 31.193181818181817,
                "end_time": 31.361363636363635,
                "pitch": 34,
                "velocity": 51,
                "duration": 0.168181818181818,
                "tempo": 120.0
            },
            {
                "start_time": 31.395454545454545,
                "end_time": 31.561363636363634,
                "pitch": 34,
                "velocity": 51,
                "duration": 0.16590909090908923,
                "tempo": 120.0
            },
            {
                "start_time": 31.595454545454544,
                "end_time": 31.761363636363633,
                "pitch": 34,
                "velocity": 51,
                "duration": 0.16590909090908923,
                "tempo": 120.0
            },
            {
                "start_time": 31.795454545454543,
                "end_time": 31.961363636363636,
                "pitch": 34,
                "velocity": 51,
                "duration": 0.16590909090909278,
                "tempo": 120.0
            },
            {
                "start_time": 31.995454545454542,
                "end_time": 32.16136363636363,
                "pitch": 34,
                "velocity": 51,
                "duration": 0.16590909090908923,
                "tempo": 120.0
            },
            {
                "start_time": 32.195454545454545,
                "end_time": 32.36363636363636,
                "pitch": 34,
                "velocity": 51,
                "duration": 0.16818181818181444,
                "tempo": 120.0
            },
            {
                "start_time": 32.39545454545454,
                "end_time": 32.56363636363636,
                "pitch": 34,
                "velocity": 51,
                "duration": 0.16818181818182154,
                "tempo": 120.0
            },
            {
                "start_time": 32.59772727272727,
                "end_time": 32.763636363636365,
                "pitch": 34,
                "velocity": 51,
                "duration": 0.16590909090909634,
                "tempo": 120.0
            },
            {
                "start_time": 32.79772727272727,
                "end_time": 32.965909090909086,
                "pitch": 34,
                "velocity": 51,
                "duration": 0.16818181818181444,
                "tempo": 120.0
            },
            {
                "start_time": 33.0,
                "end_time": 33.16590909090909,
                "pitch": 34,
                "velocity": 51,
                "duration": 0.16590909090908923,
                "tempo": 120.0
            },
            {
                "start_time": 33.199999999999996,
                "end_time": 33.36590909090909,
                "pitch": 34,
                "velocity": 51,
                "duration": 0.16590909090909634,
                "tempo": 120.0
            },
            {
                "start_time": 33.4,
                "end_time": 33.465909090909086,
                "pitch": 34,
                "velocity": 51,
                "duration": 0.06590909090908781,
                "tempo": 120.0
            },
            {
                "start_time": 27.368181818181817,
                "end_time": 33.5,
                "pitch": 14,
                "velocity": 51,
                "duration": 6.131818181818183,
                "tempo": 120.0
            },
            {
                "start_time": 27.168181818181818,
                "end_time": 33.56590909090909,
                "pitch": 38,
                "velocity": 51,
                "duration": 6.39772727272727,
                "tempo": 120.0
            },
            {
                "start_time": 33.5,
                "end_time": 33.56590909090909,
                "pitch": 38,
                "velocity": 51,
                "duration": 0.06590909090908781,
                "tempo": 120.0
            },
            {
                "start_time": 33.6,
                "end_time": 33.66590909090909,
                "pitch": 41,
                "velocity": 51,
                "duration": 0.06590909090908781,
                "tempo": 120.0
            },
            {
                "start_time": 27.268181818181816,
                "end_time": 33.699999999999996,
                "pitch": 54,
                "velocity": 51,
                "duration": 6.43181818181818,
                "tempo": 120.0
            },
            {
                "start_time": 33.699999999999996,
                "end_time": 33.76590909090909,
                "pitch": 46,
                "velocity": 51,
                "duration": 0.06590909090909491,
                "tempo": 120.0
            },
            {
                "start_time": 33.5,
                "end_time": 33.80227272727272,
                "pitch": 14,
                "velocity": 51,
                "duration": 0.30227272727272236,
                "tempo": 120.0
            },
            {
                "start_time": 33.80227272727272,
                "end_time": 33.96818181818182,
                "pitch": 36,
                "velocity": 51,
                "duration": 0.16590909090909634,
                "tempo": 120.0
            },
            {
                "start_time": 34.0,
                "end_time": 34.168181818181814,
                "pitch": 36,
                "velocity": 51,
                "duration": 0.16818181818181444,
                "tempo": 120.0
            },
            {
                "start_time": 34.20227272727273,
                "end_time": 34.36818181818182,
                "pitch": 36,
                "velocity": 51,
                "duration": 0.16590909090908923,
                "tempo": 120.0
            },
            {
                "start_time": 34.402272727272724,
                "end_time": 34.56818181818181,
                "pitch": 36,
                "velocity": 51,
                "duration": 0.16590909090908923,
                "tempo": 120.0
            },
            {
                "start_time": 34.60227272727273,
                "end_time": 34.77045454545454,
                "pitch": 36,
                "velocity": 51,
                "duration": 0.16818181818181444,
                "tempo": 120.0
            },
            {
                "start_time": 34.804545454545455,
                "end_time": 34.970454545454544,
                "pitch": 36,
                "velocity": 51,
                "duration": 0.16590909090908923,
                "tempo": 120.0
            },
            {
                "start_time": 35.00454545454545,
                "end_time": 35.17272727272727,
                "pitch": 36,
                "velocity": 51,
                "duration": 0.16818181818182154,
                "tempo": 120.0
            },
            {
                "start_time": 35.20454545454545,
                "end_time": 35.37272727272727,
                "pitch": 36,
                "velocity": 51,
                "duration": 0.16818181818181444,
                "tempo": 120.0
            },
            {
                "start_time": 35.40681818181818,
                "end_time": 35.57272727272727,
                "pitch": 36,
                "velocity": 51,
                "duration": 0.16590909090908923,
                "tempo": 120.0
            },
            {
                "start_time": 35.60681818181818,
                "end_time": 35.77272727272727,
                "pitch": 36,
                "velocity": 51,
                "duration": 0.16590909090909634,
                "tempo": 120.0
            },
            {
                "start_time": 35.80681818181818,
                "end_time": 35.97272727272727,
                "pitch": 36,
                "velocity": 51,
                "duration": 0.16590909090908923,
                "tempo": 120.0
            },
            {
                "start_time": 36.00681818181818,
                "end_time": 36.17272727272727,
                "pitch": 36,
                "velocity": 51,
                "duration": 0.16590909090908923,
                "tempo": 120.0
            },
            {
                "start_time": 36.20681818181818,
                "end_time": 36.377272727272725,
                "pitch": 36,
                "velocity": 51,
                "duration": 0.17045454545454675,
                "tempo": 120.0
            },
            {
                "start_time": 36.41136363636363,
                "end_time": 36.58409090909091,
                "pitch": 36,
                "velocity": 51,
                "duration": 0.17272727272727906,
                "tempo": 120.0
            },
            {
                "start_time": 36.61818181818182,
                "end_time": 36.78409090909091,
                "pitch": 36,
                "velocity": 51,
                "duration": 0.16590909090908923,
                "tempo": 120.0
            },
            {
                "start_time": 36.81818181818181,
                "end_time": 36.88409090909091,
                "pitch": 36,
                "velocity": 51,
                "duration": 0.06590909090909491,
                "tempo": 120.0
            },
            {
                "start_time": 36.918181818181814,
                "end_time": 36.98409090909091,
                "pitch": 36,
                "velocity": 51,
                "duration": 0.06590909090909491,
                "tempo": 120.0
            },
            {
                "start_time": 30.59090909090909,
                "end_time": 37.02045454545454,
                "pitch": 40,
                "velocity": 51,
                "duration": 6.429545454545451,
                "tempo": 120.0
            },
            {
                "start_time": 37.02045454545454,
                "end_time": 37.18636363636364,
                "pitch": 34,
                "velocity": 51,
                "duration": 0.16590909090909634,
                "tempo": 120.0
            },
            {
                "start_time": 37.21818181818182,
                "end_time": 37.38636363636363,
                "pitch": 34,
                "velocity": 51,
                "duration": 0.16818181818181444,
                "tempo": 120.0
            },
            {
                "start_time": 37.42045454545455,
                "end_time": 37.586363636363636,
                "pitch": 34,
                "velocity": 51,
                "duration": 0.16590909090908923,
                "tempo": 120.0
            },
            {
                "start_time": 37.62045454545454,
                "end_time": 37.78636363636363,
                "pitch": 34,
                "velocity": 51,
                "duration": 0.16590909090908923,
                "tempo": 120.0
            },
            {
                "start_time": 37.820454545454545,
                "end_time": 37.986363636363635,
                "pitch": 34,
                "velocity": 51,
                "duration": 0.16590909090908923,
                "tempo": 120.0
            },
            {
                "start_time": 38.02045454545454,
                "end_time": 38.18636363636364,
                "pitch": 34,
                "velocity": 51,
                "duration": 0.16590909090909634,
                "tempo": 120.0
            },
            {
                "start_time": 38.220454545454544,
                "end_time": 38.38863636363636,
                "pitch": 34,
                "velocity": 51,
                "duration": 0.16818181818181444,
                "tempo": 120.0
            },
            {
                "start_time": 38.42272727272727,
                "end_time": 38.590909090909086,
                "pitch": 34,
                "velocity": 51,
                "duration": 0.16818181818181444,
                "tempo": 120.0
            },
            {
                "start_time": 38.625,
                "end_time": 38.79090909090909,
                "pitch": 34,
                "velocity": 51,
                "duration": 0.16590909090908923,
                "tempo": 120.0
            },
            {
                "start_time": 38.824999999999996,
                "end_time": 38.99090909090909,
                "pitch": 34,
                "velocity": 51,
                "duration": 0.16590909090909634,
                "tempo": 120.0
            },
            {
                "start_time": 39.025,
                "end_time": 39.19090909090909,
                "pitch": 34,
                "velocity": 51,
                "duration": 0.16590909090908923,
                "tempo": 120.0
            },
            {
                "start_time": 39.225,
                "end_time": 39.39090909090909,
                "pitch": 34,
                "velocity": 51,
                "duration": 0.16590909090908923,
                "tempo": 120.0
            },
            {
                "start_time": 39.425,
                "end_time": 39.590909090909086,
                "pitch": 34,
                "velocity": 51,
                "duration": 0.16590909090908923,
                "tempo": 120.0
            },
            {
                "start_time": 39.625,
                "end_time": 39.79090909090909,
                "pitch": 34,
                "velocity": 51,
                "duration": 0.16590909090908923,
                "tempo": 120.0
            },
            {
                "start_time": 39.824999999999996,
                "end_time": 39.89090909090909,
                "pitch": 34,
                "velocity": 51,
                "duration": 0.06590909090909491,
                "tempo": 120.0
            },
            {
                "start_time": 33.80227272727272,
                "end_time": 39.925,
                "pitch": 14,
                "velocity": 51,
                "duration": 6.122727272727275,
                "tempo": 120.0
            },
            {
                "start_time": 33.6,
                "end_time": 39.99090909090909,
                "pitch": 38,
                "velocity": 51,
                "duration": 6.390909090909091,
                "tempo": 120.0
            },
            {
                "start_time": 39.925,
                "end_time": 39.99090909090909,
                "pitch": 38,
                "velocity": 51,
                "duration": 0.06590909090909491,
                "tempo": 120.0
            },
            {
                "start_time": 40.025,
                "end_time": 40.090909090909086,
                "pitch": 41,
                "velocity": 51,
                "duration": 0.06590909090908781,
                "tempo": 120.0
            },
            {
                "start_time": 33.699999999999996,
                "end_time": 40.127272727272725,
                "pitch": 54,
                "velocity": 51,
                "duration": 6.4272727272727295,
                "tempo": 120.0
            },
            {
                "start_time": 40.125,
                "end_time": 40.127272727272725,
                "pitch": 54,
                "velocity": 51,
                "duration": 0.0022727272727252057,
                "tempo": 120.0
            },
            {
                "start_time": 40.127272727272725,
                "end_time": 40.19318181818181,
                "pitch": 46,
                "velocity": 51,
                "duration": 0.06590909090908781,
                "tempo": 120.0
            },
            {
                "start_time": 39.925,
                "end_time": 40.22727272727273,
                "pitch": 14,
                "velocity": 51,
                "duration": 0.30227272727272947,
                "tempo": 120.0
            },
            {
                "start_time": 40.22727272727273,
                "end_time": 40.393181818181816,
                "pitch": 36,
                "velocity": 51,
                "duration": 0.16590909090908923,
                "tempo": 120.0
            },
            {
                "start_time": 40.42727272727272,
                "end_time": 40.595454545454544,
                "pitch": 36,
                "velocity": 51,
                "duration": 0.16818181818182154,
                "tempo": 120.0
            },
            {
                "start_time": 40.62954545454545,
                "end_time": 40.79545454545455,
                "pitch": 36,
                "velocity": 51,
                "duration": 0.16590909090909634,
                "tempo": 120.0
            },
            {
                "start_time": 40.82954545454545,
                "end_time": 40.99545454545454,
                "pitch": 36,
                "velocity": 51,
                "duration": 0.16590909090908923,
                "tempo": 120.0
            },
            {
                "start_time": 41.029545454545456,
                "end_time": 41.195454545454545,
                "pitch": 36,
                "velocity": 51,
                "duration": 0.16590909090908923,
                "tempo": 120.0
            },
            {
                "start_time": 41.22954545454545,
                "end_time": 41.39545454545454,
                "pitch": 36,
                "velocity": 51,
                "duration": 0.16590909090908923,
                "tempo": 120.0
            },
            {
                "start_time": 41.429545454545455,
                "end_time": 41.59772727272727,
                "pitch": 36,
                "velocity": 51,
                "duration": 0.16818181818181444,
                "tempo": 120.0
            },
            {
                "start_time": 41.62954545454545,
                "end_time": 41.79772727272727,
                "pitch": 36,
                "velocity": 51,
                "duration": 0.16818181818182154,
                "tempo": 120.0
            },
            {
                "start_time": 41.83181818181818,
                "end_time": 41.99772727272727,
                "pitch": 36,
                "velocity": 51,
                "duration": 0.16590909090908923,
                "tempo": 120.0
            },
            {
                "start_time": 42.03181818181818,
                "end_time": 42.19772727272727,
                "pitch": 36,
                "velocity": 51,
                "duration": 0.16590909090908923,
                "tempo": 120.0
            },
            {
                "start_time": 42.23181818181818,
                "end_time": 42.402272727272724,
                "pitch": 36,
                "velocity": 51,
                "duration": 0.17045454545454675,
                "tempo": 120.0
            },
            {
                "start_time": 42.43636363636364,
                "end_time": 42.60681818181818,
                "pitch": 36,
                "velocity": 51,
                "duration": 0.17045454545453964,
                "tempo": 120.0
            },
            {
                "start_time": 42.643181818181816,
                "end_time": 42.809090909090905,
                "pitch": 36,
                "velocity": 51,
                "duration": 0.16590909090908923,
                "tempo": 120.0
            },
            {
                "start_time": 42.84318181818182,
                "end_time": 43.00909090909091,
                "pitch": 36,
                "velocity": 51,
                "duration": 0.16590909090908923,
                "tempo": 120.0
            },
            {
                "start_time": 43.043181818181814,
                "end_time": 43.209090909090904,
                "pitch": 36,
                "velocity": 51,
                "duration": 0.16590909090908923,
                "tempo": 120.0
            },
            {
                "start_time": 43.24318181818182,
                "end_time": 43.40909090909091,
                "pitch": 36,
                "velocity": 51,
                "duration": 0.16590909090908923,
                "tempo": 120.0
            },
            {
                "start_time": 43.445454545454545,
                "end_time": 43.611363636363635,
                "pitch": 36,
                "velocity": 51,
                "duration": 0.16590909090908923,
                "tempo": 120.0
            },
            {
                "start_time": 43.64545454545454,
                "end_time": 43.81363636363636,
                "pitch": 36,
                "velocity": 51,
                "duration": 0.16818181818182154,
                "tempo": 120.0
            },
            {
                "start_time": 43.84772727272727,
                "end_time": 44.01363636363636,
                "pitch": 36,
                "velocity": 51,
                "duration": 0.16590909090908923,
                "tempo": 120.0
            },
            {
                "start_time": 44.04772727272727,
                "end_time": 44.21363636363636,
                "pitch": 36,
                "velocity": 51,
                "duration": 0.16590909090908923,
                "tempo": 120.0
            },
            {
                "start_time": 44.24772727272727,
                "end_time": 44.413636363636364,
                "pitch": 36,
                "velocity": 51,
                "duration": 0.16590909090909634,
                "tempo": 120.0
            },
            {
                "start_time": 44.44772727272727,
                "end_time": 44.61363636363636,
                "pitch": 36,
                "velocity": 51,
                "duration": 0.16590909090908923,
                "tempo": 120.0
            },
            {
                "start_time": 44.64772727272727,
                "end_time": 44.81590909090909,
                "pitch": 36,
                "velocity": 51,
                "duration": 0.16818181818181444,
                "tempo": 120.0
            },
            {
                "start_time": 44.84772727272727,
                "end_time": 45.01590909090909,
                "pitch": 36,
                "velocity": 51,
                "duration": 0.16818181818182154,
                "tempo": 120.0
            },
            {
                "start_time": 45.05,
                "end_time": 45.215909090909086,
                "pitch": 36,
                "velocity": 51,
                "duration": 0.16590909090908923,
                "tempo": 120.0
            },
            {
                "start_time": 45.25,
                "end_time": 45.41590909090909,
                "pitch": 36,
                "velocity": 51,
                "duration": 0.16590909090908923,
                "tempo": 120.0
            },
            {
                "start_time": 45.449999999999996,
                "end_time": 45.61590909090909,
                "pitch": 36,
                "velocity": 51,
                "duration": 0.16590909090909634,
                "tempo": 120.0
            },
            {
                "start_time": 45.65,
                "end_time": 45.81818181818181,
                "pitch": 36,
                "velocity": 51,
                "duration": 0.16818181818181444,
                "tempo": 120.0
            },
            {
                "start_time": 45.85227272727273,
                "end_time": 46.018181818181816,
                "pitch": 36,
                "velocity": 51,
                "duration": 0.16590909090908923,
                "tempo": 120.0
            },
            {
                "start_time": 46.05227272727272,
                "end_time": 46.220454545454544,
                "pitch": 36,
                "velocity": 51,
                "duration": 0.16818181818182154,
                "tempo": 120.0
            },
            {
                "start_time": 46.252272727272725,
                "end_time": 46.320454545454545,
                "pitch": 36,
                "velocity": 51,
                "duration": 0.06818181818182012,
                "tempo": 120.0
            },
            {
                "start_time": 46.35227272727273,
                "end_time": 46.42045454545455,
                "pitch": 41,
                "velocity": 51,
                "duration": 0.06818181818182012,
                "tempo": 120.0
            },
            {
                "start_time": 46.45227272727273,
                "end_time": 46.45454545454545,
                "pitch": 54,
                "velocity": 51,
                "duration": 0.0022727272727252057,
                "tempo": 120.0
            },
            {
                "start_time": 46.45454545454545,
                "end_time": 46.52045454545454,
                "pitch": 43,
                "velocity": 51,
                "duration": 0.06590909090908781,
                "tempo": 120.0
            },
            {
                "start_time": 14.397727272727272,
                "end_time": 46.554545454545455,
                "pitch": 0,
                "velocity": 51,
                "duration": 32.15681818181818,
                "tempo": 120.0
            },
            {
                "start_time": 46.554545454545455,
                "end_time": 46.62045454545454,
                "pitch": 48,
                "velocity": 51,
                "duration": 0.06590909090908781,
                "tempo": 120.0
            },
            {
                "start_time": 46.35227272727273,
                "end_time": 46.820454545454545,
                "pitch": 36,
                "velocity": 51,
                "duration": 0.4681818181818187,
                "tempo": 120.0
            },
            {
                "start_time": 46.65454545454545,
                "end_time": 46.820454545454545,
                "pitch": 36,
                "velocity": 51,
                "duration": 0.16590909090909634,
                "tempo": 120.0
            },
            {
                "start_time": 46.85454545454545,
                "end_time": 47.02045454545454,
                "pitch": 36,
                "velocity": 51,
                "duration": 0.16590909090908923,
                "tempo": 120.0
            },
            {
                "start_time": 47.054545454545455,
                "end_time": 47.220454545454544,
                "pitch": 36,
                "velocity": 51,
                "duration": 0.16590909090908923,
                "tempo": 120.0
            },
            {
                "start_time": 47.25454545454545,
                "end_time": 47.42045454545454,
                "pitch": 36,
                "velocity": 51,
                "duration": 0.16590909090908923,
                "tempo": 120.0
            },
            {
                "start_time": 47.45454545454545,
                "end_time": 47.62272727272727,
                "pitch": 36,
                "velocity": 51,
                "duration": 0.16818181818181444,
                "tempo": 120.0
            },
            {
                "start_time": 47.65681818181818,
                "end_time": 47.824999999999996,
                "pitch": 36,
                "velocity": 51,
                "duration": 0.16818181818181444,
                "tempo": 120.0
            },
            {
                "start_time": 47.85909090909091,
                "end_time": 48.025,
                "pitch": 36,
                "velocity": 51,
                "duration": 0.16590909090908923,
                "tempo": 120.0
            },
            {
                "start_time": 48.059090909090905,
                "end_time": 48.224999999999994,
                "pitch": 36,
                "velocity": 51,
                "duration": 0.16590909090908923,
                "tempo": 120.0
            },
            {
                "start_time": 48.25909090909091,
                "end_time": 48.425,
                "pitch": 36,
                "velocity": 51,
                "duration": 0.16590909090908923,
                "tempo": 120.0
            },
            {
                "start_time": 48.459090909090904,
                "end_time": 48.625,
                "pitch": 36,
                "velocity": 51,
                "duration": 0.16590909090909634,
                "tempo": 120.0
            },
            {
                "start_time": 48.65909090909091,
                "end_time": 48.824999999999996,
                "pitch": 36,
                "velocity": 51,
                "duration": 0.16590909090908923,
                "tempo": 120.0
            },
            {
                "start_time": 48.85909090909091,
                "end_time": 49.025,
                "pitch": 36,
                "velocity": 51,
                "duration": 0.16590909090908923,
                "tempo": 120.0
            },
            {
                "start_time": 49.059090909090905,
                "end_time": 49.224999999999994,
                "pitch": 36,
                "velocity": 51,
                "duration": 0.16590909090908923,
                "tempo": 120.0
            },
            {
                "start_time": 49.25909090909091,
                "end_time": 49.42727272727272,
                "pitch": 36,
                "velocity": 51,
                "duration": 0.16818181818181444,
                "tempo": 120.0
            },
            {
                "start_time": 49.461363636363636,
                "end_time": 49.627272727272725,
                "pitch": 36,
                "velocity": 51,
                "duration": 0.16590909090908923,
                "tempo": 120.0
            },
            {
                "start_time": 49.66136363636363,
                "end_time": 49.72954545454545,
                "pitch": 36,
                "velocity": 51,
                "duration": 0.06818181818182012,
                "tempo": 120.0
            },
            {
                "start_time": 49.76363636363636,
                "end_time": 49.82954545454545,
                "pitch": 36,
                "velocity": 51,
                "duration": 0.06590909090909491,
                "tempo": 120.0
            },
            {
                "start_time": 37.02045454545454,
                "end_time": 49.86363636363636,
                "pitch": 40,
                "velocity": 51,
                "duration": 12.843181818181819,
                "tempo": 120.0
            },
            {
                "start_time": 49.86363636363636,
                "end_time": 50.03409090909091,
                "pitch": 34,
                "velocity": 51,
                "duration": 0.17045454545454675,
                "tempo": 120.0
            },
            {
                "start_time": 50.06818181818181,
                "end_time": 50.240909090909085,
                "pitch": 34,
                "velocity": 51,
                "duration": 0.17272727272727195,
                "tempo": 120.0
            },
            {
                "start_time": 50.275,
                "end_time": 50.43863636363636,
                "pitch": 34,
                "velocity": 51,
                "duration": 0.16363636363636402,
                "tempo": 120.0
            },
            {
                "start_time": 50.470454545454544,
                "end_time": 50.63409090909091,
                "pitch": 34,
                "velocity": 51,
                "duration": 0.16363636363636402,
                "tempo": 120.0
            },
            {
                "start_time": 50.668181818181814,
                "end_time": 50.83863636363636,
                "pitch": 34,
                "velocity": 51,
                "duration": 0.17045454545454675,
                "tempo": 120.0
            },
            {
                "start_time": 50.87272727272727,
                "end_time": 51.043181818181814,
                "pitch": 34,
                "velocity": 51,
                "duration": 0.17045454545454675,
                "tempo": 120.0
            },
            {
                "start_time": 51.07954545454545,
                "end_time": 51.240909090909085,
                "pitch": 34,
                "velocity": 51,
                "duration": 0.1613636363636317,
                "tempo": 120.0
            },
            {
                "start_time": 51.275,
                "end_time": 51.43863636363636,
                "pitch": 34,
                "velocity": 51,
                "duration": 0.16363636363636402,
                "tempo": 120.0
            },
            {
                "start_time": 51.470454545454544,
                "end_time": 51.64090909090909,
                "pitch": 34,
                "velocity": 51,
                "duration": 0.17045454545454675,
                "tempo": 120.0
            },
            {
                "start_time": 51.67727272727272,
                "end_time": 51.84772727272727,
                "pitch": 34,
                "velocity": 51,
                "duration": 0.17045454545454675,
                "tempo": 120.0
            },
            {
                "start_time": 51.88181818181818,
                "end_time": 52.05,
                "pitch": 34,
                "velocity": 51,
                "duration": 0.16818181818181444,
                "tempo": 120.0
            },
            {
                "start_time": 52.08181818181818,
                "end_time": 52.25,
                "pitch": 34,
                "velocity": 51,
                "duration": 0.16818181818182154,
                "tempo": 120.0
            },
            {
                "start_time": 52.28409090909091,
                "end_time": 52.449999999999996,
                "pitch": 34,
                "velocity": 51,
                "duration": 0.16590909090908923,
                "tempo": 120.0
            },
            {
                "start_time": 52.48409090909091,
                "end_time": 52.65,
                "pitch": 34,
                "velocity": 51,
                "duration": 0.16590909090908923,
                "tempo": 120.0
            },
            {
                "start_time": 52.684090909090905,
                "end_time": 52.75,
                "pitch": 34,
                "velocity": 51,
                "duration": 0.06590909090909491,
                "tempo": 120.0
            },
            {
                "start_time": 40.22727272727273,
                "end_time": 52.78409090909091,
                "pitch": 14,
                "velocity": 51,
                "duration": 12.55681818181818,
                "tempo": 120.0
            },
            {
                "start_time": 40.025,
                "end_time": 52.849999999999994,
                "pitch": 38,
                "velocity": 51,
                "duration": 12.824999999999996,
                "tempo": 120.0
            },
            {
                "start_time": 52.78409090909091,
                "end_time": 52.849999999999994,
                "pitch": 38,
                "velocity": 51,
                "duration": 0.06590909090908781,
                "tempo": 120.0
            },
            {
                "start_time": 52.88409090909091,
                "end_time": 52.949999999999996,
                "pitch": 41,
                "velocity": 51,
                "duration": 0.06590909090908781,
                "tempo": 120.0
            },
            {
                "start_time": 52.98409090909091,
                "end_time": 53.05,
                "pitch": 46,
                "velocity": 51,
                "duration": 0.06590909090908781,
                "tempo": 120.0
            },
            {
                "start_time": 52.78409090909091,
                "end_time": 53.084090909090904,
                "pitch": 14,
                "velocity": 51,
                "duration": 0.29999999999999716,
                "tempo": 120.0
            },
            {
                "start_time": 53.084090909090904,
                "end_time": 53.252272727272725,
                "pitch": 36,
                "velocity": 51,
                "duration": 0.16818181818182154,
                "tempo": 120.0
            },
            {
                "start_time": 53.28636363636363,
                "end_time": 53.45227272727273,
                "pitch": 36,
                "velocity": 51,
                "duration": 0.16590909090909634,
                "tempo": 120.0
            },
            {
                "start_time": 53.486363636363635,
                "end_time": 53.65454545454545,
                "pitch": 36,
                "velocity": 51,
                "duration": 0.16818181818181444,
                "tempo": 120.0
            },
            {
                "start_time": 53.68863636363636,
                "end_time": 53.85454545454545,
                "pitch": 36,
                "velocity": 51,
                "duration": 0.16590909090908923,
                "tempo": 120.0
            },
            {
                "start_time": 53.88863636363636,
                "end_time": 54.054545454545455,
                "pitch": 36,
                "velocity": 51,
                "duration": 0.16590909090909634,
                "tempo": 120.0
            },
            {
                "start_time": 54.08863636363636,
                "end_time": 54.25454545454545,
                "pitch": 36,
                "velocity": 51,
                "duration": 0.16590909090908923,
                "tempo": 120.0
            },
            {
                "start_time": 54.288636363636364,
                "end_time": 54.45454545454545,
                "pitch": 36,
                "velocity": 51,
                "duration": 0.16590909090908923,
                "tempo": 120.0
            },
            {
                "start_time": 54.48863636363636,
                "end_time": 54.65454545454545,
                "pitch": 36,
                "velocity": 51,
                "duration": 0.16590909090908923,
                "tempo": 120.0
            },
            {
                "start_time": 54.68863636363636,
                "end_time": 54.85454545454545,
                "pitch": 36,
                "velocity": 51,
                "duration": 0.16590909090908923,
                "tempo": 120.0
            },
            {
                "start_time": 54.88863636363636,
                "end_time": 55.05681818181818,
                "pitch": 36,
                "velocity": 51,
                "duration": 0.16818181818182154,
                "tempo": 120.0
            },
            {
                "start_time": 55.08863636363636,
                "end_time": 55.256818181818176,
                "pitch": 36,
                "velocity": 51,
                "duration": 0.16818181818181444,
                "tempo": 120.0
            },
            {
                "start_time": 55.29090909090909,
                "end_time": 55.459090909090904,
                "pitch": 36,
                "velocity": 51,
                "duration": 0.16818181818181444,
                "tempo": 120.0
            },
            {
                "start_time": 55.49318181818182,
                "end_time": 55.65909090909091,
                "pitch": 36,
                "velocity": 51,
                "duration": 0.16590909090908923,
                "tempo": 120.0
            },
            {
                "start_time": 55.69318181818181,
                "end_time": 55.85909090909091,
                "pitch": 36,
                "velocity": 51,
                "duration": 0.16590909090909634,
                "tempo": 120.0
            },
            {
                "start_time": 55.893181818181816,
                "end_time": 56.059090909090905,
                "pitch": 36,
                "velocity": 51,
                "duration": 0.16590909090908923,
                "tempo": 120.0
            },
            {
                "start_time": 56.09318181818182,
                "end_time": 56.15909090909091,
                "pitch": 36,
                "velocity": 51,
                "duration": 0.06590909090908781,
                "tempo": 120.0
            },
            {
                "start_time": 56.19318181818181,
                "end_time": 56.25909090909091,
                "pitch": 36,
                "velocity": 51,
                "duration": 0.06590909090909491,
                "tempo": 120.0
            },
            {
                "start_time": 49.86363636363636,
                "end_time": 56.293181818181814,
                "pitch": 40,
                "velocity": 51,
                "duration": 6.429545454545455,
                "tempo": 120.0
            },
            {
                "start_time": 56.293181818181814,
                "end_time": 56.459090909090904,
                "pitch": 34,
                "velocity": 51,
                "duration": 0.16590909090908923,
                "tempo": 120.0
            },
            {
                "start_time": 56.49318181818182,
                "end_time": 56.66136363636363,
                "pitch": 34,
                "velocity": 51,
                "duration": 0.16818181818181444,
                "tempo": 120.0
            },
            {
                "start_time": 56.695454545454545,
                "end_time": 56.861363636363635,
                "pitch": 34,
                "velocity": 51,
                "duration": 0.16590909090908923,
                "tempo": 120.0
            },
            {
                "start_time": 56.89545454545454,
                "end_time": 57.06136363636363,
                "pitch": 34,
                "velocity": 51,
                "duration": 0.16590909090908923,
                "tempo": 120.0
            },
            {
                "start_time": 57.095454545454544,
                "end_time": 57.26136363636363,
                "pitch": 34,
                "velocity": 51,
                "duration": 0.16590909090908923,
                "tempo": 120.0
            },
            {
                "start_time": 57.29545454545454,
                "end_time": 57.46363636363636,
                "pitch": 34,
                "velocity": 51,
                "duration": 0.16818181818182154,
                "tempo": 120.0
            },
            {
                "start_time": 57.49772727272727,
                "end_time": 57.663636363636364,
                "pitch": 34,
                "velocity": 51,
                "duration": 0.16590909090909634,
                "tempo": 120.0
            },
            {
                "start_time": 57.69772727272727,
                "end_time": 57.865909090909085,
                "pitch": 34,
                "velocity": 51,
                "duration": 0.16818181818181444,
                "tempo": 120.0
            },
            {
                "start_time": 57.9,
                "end_time": 58.06818181818181,
                "pitch": 34,
                "velocity": 51,
                "duration": 0.16818181818181444,
                "tempo": 120.0
            },
            {
                "start_time": 58.10454545454545,
                "end_time": 58.275,
                "pitch": 34,
                "velocity": 51,
                "duration": 0.17045454545454675,
                "tempo": 120.0
            },
            {
                "start_time": 58.309090909090905,
                "end_time": 58.47727272727273,
                "pitch": 34,
                "velocity": 51,
                "duration": 0.16818181818182154,
                "tempo": 120.0
            },
            {
                "start_time": 58.51136363636363,
                "end_time": 58.679545454545455,
                "pitch": 34,
                "velocity": 51,
                "duration": 0.16818181818182154,
                "tempo": 120.0
            },
            {
                "start_time": 58.71363636363636,
                "end_time": 58.877272727272725,
                "pitch": 34,
                "velocity": 51,
                "duration": 0.16363636363636402,
                "tempo": 120.0
            },
            {
                "start_time": 58.90909090909091,
                "end_time": 59.07272727272727,
                "pitch": 34,
                "velocity": 51,
                "duration": 0.16363636363636402,
                "tempo": 120.0
            },
            {
                "start_time": 59.10681818181818,
                "end_time": 59.17272727272727,
                "pitch": 34,
                "velocity": 51,
                "duration": 0.06590909090909491,
                "tempo": 120.0
            },
            {
                "start_time": 53.084090909090904,
                "end_time": 59.209090909090904,
                "pitch": 14,
                "velocity": 51,
                "duration": 6.125,
                "tempo": 120.0
            },
            {
                "start_time": 52.88409090909091,
                "end_time": 59.277272727272724,
                "pitch": 38,
                "velocity": 51,
                "duration": 6.393181818181816,
                "tempo": 120.0
            },
            {
                "start_time": 59.209090909090904,
                "end_time": 59.277272727272724,
                "pitch": 38,
                "velocity": 51,
                "duration": 0.06818181818182012,
                "tempo": 120.0
            },
            {
                "start_time": 59.31136363636363,
                "end_time": 59.37954545454545,
                "pitch": 41,
                "velocity": 51,
                "duration": 0.06818181818182012,
                "tempo": 120.0
            },
            {
                "start_time": 52.98409090909091,
                "end_time": 59.413636363636364,
                "pitch": 54,
                "velocity": 51,
                "duration": 6.429545454545455,
                "tempo": 120.0
            },
            {
                "start_time": 59.413636363636364,
                "end_time": 59.48181818181818,
                "pitch": 46,
                "velocity": 51,
                "duration": 0.06818181818181301,
                "tempo": 120.0
            },
            {
                "start_time": 59.209090909090904,
                "end_time": 59.518181818181816,
                "pitch": 14,
                "velocity": 51,
                "duration": 0.3090909090909122,
                "tempo": 120.0
            },
            {
                "start_time": 59.518181818181816,
                "end_time": 59.684090909090905,
                "pitch": 36,
                "velocity": 51,
                "duration": 0.16590909090908923,
                "tempo": 120.0
            },
            {
                "start_time": 59.71818181818182,
                "end_time": 59.88409090909091,
                "pitch": 36,
                "velocity": 51,
                "duration": 0.16590909090908923,
                "tempo": 120.0
            },
            {
                "start_time": 59.918181818181814,
                "end_time": 60.084090909090904,
                "pitch": 36,
                "velocity": 51,
                "duration": 0.16590909090908923,
                "tempo": 120.0
            },
            {
                "start_time": 60.11818181818182,
                "end_time": 60.28409090909091,
                "pitch": 36,
                "velocity": 51,
                "duration": 0.16590909090908923,
                "tempo": 120.0
            },
            {
                "start_time": 60.31818181818181,
                "end_time": 60.486363636363635,
                "pitch": 36,
                "velocity": 51,
                "duration": 0.16818181818182154,
                "tempo": 120.0
            },
            {
                "start_time": 60.52045454545454,
                "end_time": 60.68863636363636,
                "pitch": 36,
                "velocity": 51,
                "duration": 0.16818181818182154,
                "tempo": 120.0
            },
            {
                "start_time": 60.72272727272727,
                "end_time": 60.88863636363636,
                "pitch": 36,
                "velocity": 51,
                "duration": 0.16590909090908923,
                "tempo": 120.0
            },
            {
                "start_time": 60.92272727272727,
                "end_time": 61.08863636363636,
                "pitch": 36,
                "velocity": 51,
                "duration": 0.16590909090908923,
                "tempo": 120.0
            },
            {
                "start_time": 61.12272727272727,
                "end_time": 61.288636363636364,
                "pitch": 36,
                "velocity": 51,
                "duration": 0.16590909090909634,
                "tempo": 120.0
            },
            {
                "start_time": 61.32272727272727,
                "end_time": 61.48863636363636,
                "pitch": 36,
                "velocity": 51,
                "duration": 0.16590909090908923,
                "tempo": 120.0
            },
            {
                "start_time": 61.522727272727266,
                "end_time": 61.68863636363636,
                "pitch": 36,
                "velocity": 51,
                "duration": 0.16590909090909634,
                "tempo": 120.0
            },
            {
                "start_time": 61.72272727272727,
                "end_time": 61.88863636363636,
                "pitch": 36,
                "velocity": 51,
                "duration": 0.16590909090908923,
                "tempo": 120.0
            },
            {
                "start_time": 61.92272727272727,
                "end_time": 62.08863636363636,
                "pitch": 36,
                "velocity": 51,
                "duration": 0.16590909090908923,
                "tempo": 120.0
            },
            {
                "start_time": 62.12272727272727,
                "end_time": 62.29090909090909,
                "pitch": 36,
                "velocity": 51,
                "duration": 0.16818181818182154,
                "tempo": 120.0
            },
            {
                "start_time": 62.324999999999996,
                "end_time": 62.490909090909085,
                "pitch": 36,
                "velocity": 51,
                "duration": 0.16590909090908923,
                "tempo": 120.0
            },
            {
                "start_time": 62.525,
                "end_time": 62.59318181818181,
                "pitch": 36,
                "velocity": 51,
                "duration": 0.06818181818181301,
                "tempo": 120.0
            },
            {
                "start_time": 62.627272727272725,
                "end_time": 62.69318181818181,
                "pitch": 36,
                "velocity": 51,
                "duration": 0.06590909090908781,
                "tempo": 120.0
            },
            {
                "start_time": 56.293181818181814,
                "end_time": 62.72727272727273,
                "pitch": 40,
                "velocity": 51,
                "duration": 6.434090909090912,
                "tempo": 120.0
            },
            {
                "start_time": 62.72727272727273,
                "end_time": 62.893181818181816,
                "pitch": 34,
                "velocity": 51,
                "duration": 0.16590909090908923,
                "tempo": 120.0
            },
            {
                "start_time": 62.92727272727272,
                "end_time": 63.09318181818181,
                "pitch": 34,
                "velocity": 51,
                "duration": 0.16590909090908923,
                "tempo": 120.0
            },
            {
                "start_time": 63.127272727272725,
                "end_time": 63.293181818181814,
                "pitch": 34,
                "velocity": 51,
                "duration": 0.16590909090908923,
                "tempo": 120.0
            },
            {
                "start_time": 63.32727272727272,
                "end_time": 63.49318181818182,
                "pitch": 34,
                "velocity": 51,
                "duration": 0.16590909090909634,
                "tempo": 120.0
            },
            {
                "start_time": 63.527272727272724,
                "end_time": 63.695454545454545,
                "pitch": 34,
                "velocity": 51,
                "duration": 0.16818181818182154,
                "tempo": 120.0
            },
            {
                "start_time": 63.72954545454545,
                "end_time": 63.89545454545454,
                "pitch": 34,
                "velocity": 51,
                "duration": 0.16590909090908923,
                "tempo": 120.0
            },
            {
                "start_time": 63.929545454545455,
                "end_time": 64.09545454545454,
                "pitch": 34,
                "velocity": 51,
                "duration": 0.16590909090908923,
                "tempo": 120.0
            },
            {
                "start_time": 64.12954545454545,
                "end_time": 64.29545454545455,
                "pitch": 34,
                "velocity": 51,
                "duration": 0.16590909090909634,
                "tempo": 120.0
            },
            {
                "start_time": 64.32954545454545,
                "end_time": 64.49772727272727,
                "pitch": 34,
                "velocity": 51,
                "duration": 0.16818181818182154,
                "tempo": 120.0
            },
            {
                "start_time": 64.53181818181818,
                "end_time": 64.69772727272726,
                "pitch": 34,
                "velocity": 51,
                "duration": 0.16590909090908212,
                "tempo": 120.0
            },
            {
                "start_time": 64.73181818181818,
                "end_time": 64.90227272727273,
                "pitch": 34,
                "velocity": 51,
                "duration": 0.17045454545454675,
                "tempo": 120.0
            },
            {
                "start_time": 64.93863636363636,
                "end_time": 65.10909090909091,
                "pitch": 34,
                "velocity": 51,
                "duration": 0.17045454545454675,
                "tempo": 120.0
            },
            {
                "start_time": 65.14318181818182,
                "end_time": 65.31136363636364,
                "pitch": 34,
                "velocity": 51,
                "duration": 0.16818181818182154,
                "tempo": 120.0
            },
            {
                "start_time": 65.34545454545454,
                "end_time": 65.51363636363637,
                "pitch": 34,
                "velocity": 51,
                "duration": 0.16818181818182154,
                "tempo": 120.0
            },
            {
                "start_time": 65.54772727272727,
                "end_time": 65.61136363636363,
                "pitch": 34,
                "velocity": 51,
                "duration": 0.0636363636363626,
                "tempo": 120.0
            },
            {
                "start_time": 59.518181818181816,
                "end_time": 65.64545454545454,
                "pitch": 14,
                "velocity": 51,
                "duration": 6.127272727272725,
                "tempo": 120.0
            },
            {
                "start_time": 59.31136363636363,
                "end_time": 65.71136363636363,
                "pitch": 38,
                "velocity": 51,
                "duration": 6.399999999999999,
                "tempo": 120.0
            },
            {
                "start_time": 65.64545454545454,
                "end_time": 65.71136363636363,
                "pitch": 38,
                "velocity": 51,
                "duration": 0.06590909090908781,
                "tempo": 120.0
            },
            {
                "start_time": 65.74318181818181,
                "end_time": 65.80909090909091,
                "pitch": 41,
                "velocity": 51,
                "duration": 0.06590909090910202,
                "tempo": 120.0
            },
            {
                "start_time": 59.413636363636364,
                "end_time": 65.84318181818182,
                "pitch": 54,
                "velocity": 51,
                "duration": 6.429545454545455,
                "tempo": 120.0
            },
            {
                "start_time": 65.8409090909091,
                "end_time": 65.84318181818182,
                "pitch": 54,
                "velocity": 51,
                "duration": 0.0022727272727252057,
                "tempo": 120.0
            },
            {
                "start_time": 65.84318181818182,
                "end_time": 65.90681818181818,
                "pitch": 46,
                "velocity": 51,
                "duration": 0.0636363636363626,
                "tempo": 120.0
            },
            {
                "start_time": 65.64545454545454,
                "end_time": 65.94090909090909,
                "pitch": 14,
                "velocity": 51,
                "duration": 0.29545454545454675,
                "tempo": 120.0
            },
            {
                "start_time": 65.94090909090909,
                "end_time": 66.11136363636363,
                "pitch": 36,
                "velocity": 51,
                "duration": 0.17045454545454675,
                "tempo": 120.0
            },
            {
                "start_time": 66.14545454545454,
                "end_time": 66.31590909090909,
                "pitch": 36,
                "velocity": 51,
                "duration": 0.17045454545454675,
                "tempo": 120.0
            },
            {
                "start_time": 66.35,
                "end_time": 66.51818181818182,
                "pitch": 36,
                "velocity": 51,
                "duration": 0.16818181818182154,
                "tempo": 120.0
            },
            {
                "start_time": 66.55227272727272,
                "end_time": 66.71818181818182,
                "pitch": 36,
                "velocity": 51,
                "duration": 0.16590909090909634,
                "tempo": 120.0
            },
            {
                "start_time": 66.75227272727273,
                "end_time": 66.92045454545455,
                "pitch": 36,
                "velocity": 51,
                "duration": 0.16818181818182154,
                "tempo": 120.0
            },
            {
                "start_time": 66.95227272727273,
                "end_time": 67.12045454545454,
                "pitch": 36,
                "velocity": 51,
                "duration": 0.16818181818180733,
                "tempo": 120.0
            },
            {
                "start_time": 67.15454545454546,
                "end_time": 67.32272727272726,
                "pitch": 36,
                "velocity": 51,
                "duration": 0.16818181818180733,
                "tempo": 120.0
            },
            {
                "start_time": 67.35681818181818,
                "end_time": 67.52499999999999,
                "pitch": 36,
                "velocity": 51,
                "duration": 0.16818181818180733,
                "tempo": 120.0
            },
            {
                "start_time": 67.55909090909091,
                "end_time": 67.725,
                "pitch": 36,
                "velocity": 51,
                "duration": 0.16590909090908212,
                "tempo": 120.0
            },
            {
                "start_time": 67.7590909090909,
                "end_time": 67.925,
                "pitch": 36,
                "velocity": 51,
                "duration": 0.16590909090909634,
                "tempo": 120.0
            },
            {
                "start_time": 67.9590909090909,
                "end_time": 68.12727272727273,
                "pitch": 36,
                "velocity": 51,
                "duration": 0.16818181818182154,
                "tempo": 120.0
            },
            {
                "start_time": 68.16136363636363,
                "end_time": 68.32727272727273,
                "pitch": 36,
                "velocity": 51,
                "duration": 0.16590909090909634,
                "tempo": 120.0
            },
            {
                "start_time": 68.36136363636363,
                "end_time": 68.52954545454546,
                "pitch": 36,
                "velocity": 51,
                "duration": 0.16818181818182154,
                "tempo": 120.0
            },
            {
                "start_time": 68.56136363636364,
                "end_time": 68.72954545454544,
                "pitch": 36,
                "velocity": 51,
                "duration": 0.16818181818180733,
                "tempo": 120.0
            },
            {
                "start_time": 68.76363636363637,
                "end_time": 68.92954545454545,
                "pitch": 36,
                "velocity": 51,
                "duration": 0.16590909090908212,
                "tempo": 120.0
            },
            {
                "start_time": 68.96363636363635,
                "end_time": 69.03181818181818,
                "pitch": 36,
                "velocity": 51,
                "duration": 0.06818181818182723,
                "tempo": 120.0
            },
            {
                "start_time": 69.06590909090909,
                "end_time": 69.13181818181818,
                "pitch": 36,
                "velocity": 51,
                "duration": 0.06590909090908781,
                "tempo": 120.0
            },
            {
                "start_time": 62.72727272727273,
                "end_time": 69.16590909090908,
                "pitch": 40,
                "velocity": 51,
                "duration": 6.4386363636363555,
                "tempo": 120.0
            },
            {
                "start_time": 69.16590909090908,
                "end_time": 69.3340909090909,
                "pitch": 34,
                "velocity": 51,
                "duration": 0.16818181818182154,
                "tempo": 120.0
            },
            {
                "start_time": 69.36818181818181,
                "end_time": 69.5340909090909,
                "pitch": 34,
                "velocity": 51,
                "duration": 0.16590909090909634,
                "tempo": 120.0
            },
            {
                "start_time": 69.56818181818181,
                "end_time": 69.73636363636363,
                "pitch": 34,
                "velocity": 51,
                "duration": 0.16818181818182154,
                "tempo": 120.0
            },
            {
                "start_time": 69.77045454545454,
                "end_time": 69.93636363636364,
                "pitch": 34,
                "velocity": 51,
                "duration": 0.16590909090909634,
                "tempo": 120.0
            },
            {
                "start_time": 69.97045454545454,
                "end_time": 70.13636363636363,
                "pitch": 34,
                "velocity": 51,
                "duration": 0.16590909090908212,
                "tempo": 120.0
            },
            {
                "start_time": 70.17045454545455,
                "end_time": 70.33863636363635,
                "pitch": 34,
                "velocity": 51,
                "duration": 0.16818181818180733,
                "tempo": 120.0
            },
            {
                "start_time": 70.37272727272727,
                "end_time": 70.53863636363636,
                "pitch": 34,
                "velocity": 51,
                "duration": 0.16590909090908212,
                "tempo": 120.0
            },
            {
                "start_time": 70.57272727272726,
                "end_time": 70.73863636363636,
                "pitch": 34,
                "velocity": 51,
                "duration": 0.16590909090909634,
                "tempo": 120.0
            },
            {
                "start_time": 70.77272727272727,
                "end_time": 70.94090909090909,
                "pitch": 34,
                "velocity": 51,
                "duration": 0.16818181818182154,
                "tempo": 120.0
            },
            {
                "start_time": 70.975,
                "end_time": 71.14318181818182,
                "pitch": 34,
                "velocity": 51,
                "duration": 0.16818181818182154,
                "tempo": 120.0
            },
            {
                "start_time": 71.17727272727272,
                "end_time": 71.34318181818182,
                "pitch": 34,
                "velocity": 51,
                "duration": 0.16590909090909634,
                "tempo": 120.0
            },
            {
                "start_time": 71.37727272727273,
                "end_time": 71.54545454545455,
                "pitch": 34,
                "velocity": 51,
                "duration": 0.16818181818182154,
                "tempo": 120.0
            },
            {
                "start_time": 65.94090909090909,
                "end_time": 71.57954545454545,
                "pitch": 14,
                "velocity": 51,
                "duration": 5.6386363636363654,
                "tempo": 120.0
            },
            {
                "start_time": 71.57954545454545,
                "end_time": 71.74545454545454,
                "pitch": 41,
                "velocity": 51,
                "duration": 0.16590909090908212,
                "tempo": 120.0
            },
            {
                "start_time": 71.77954545454546,
                "end_time": 71.94545454545454,
                "pitch": 41,
                "velocity": 51,
                "duration": 0.16590909090908212,
                "tempo": 120.0
            },
            {
                "start_time": 71.97954545454544,
                "end_time": 72.14772727272727,
                "pitch": 41,
                "velocity": 51,
                "duration": 0.16818181818182154,
                "tempo": 120.0
            },
            {
                "start_time": 72.18181818181817,
                "end_time": 72.24772727272727,
                "pitch": 41,
                "velocity": 51,
                "duration": 0.06590909090910202,
                "tempo": 120.0
            },
            {
                "start_time": 72.28181818181818,
                "end_time": 72.35,
                "pitch": 41,
                "velocity": 51,
                "duration": 0.06818181818181301,
                "tempo": 120.0
            },
            {
                "start_time": 72.3840909090909,
                "end_time": 72.55454545454545,
                "pitch": 39,
                "velocity": 51,
                "duration": 0.17045454545454675,
                "tempo": 120.0
            },
            {
                "start_time": 72.58863636363635,
                "end_time": 72.7590909090909,
                "pitch": 39,
                "velocity": 51,
                "duration": 0.17045454545454675,
                "tempo": 120.0
            },
            {
                "start_time": 72.79545454545455,
                "end_time": 72.9590909090909,
                "pitch": 39,
                "velocity": 51,
                "duration": 0.16363636363635692,
                "tempo": 120.0
            },
            {
                "start_time": 72.99090909090908,
                "end_time": 73.15454545454546,
                "pitch": 39,
                "velocity": 51,
                "duration": 0.16363636363637113,
                "tempo": 120.0
            },
            {
                "start_time": 73.18636363636364,
                "end_time": 73.35909090909091,
                "pitch": 39,
                "velocity": 51,
                "duration": 0.17272727272727195,
                "tempo": 120.0
            },
            {
                "start_time": 73.39318181818182,
                "end_time": 73.56363636363636,
                "pitch": 39,
                "velocity": 51,
                "duration": 0.17045454545454675,
                "tempo": 120.0
            },
            {
                "start_time": 73.6,
                "end_time": 73.76590909090909,
                "pitch": 39,
                "velocity": 51,
                "duration": 0.16590909090909634,
                "tempo": 120.0
            },
            {
                "start_time": 73.8,
                "end_time": 73.96818181818182,
                "pitch": 39,
                "velocity": 51,
                "duration": 0.16818181818182154,
                "tempo": 120.0
            },
            {
                "start_time": 74.00227272727273,
                "end_time": 74.16818181818182,
                "pitch": 39,
                "velocity": 51,
                "duration": 0.16590909090909634,
                "tempo": 120.0
            },
            {
                "start_time": 74.20227272727273,
                "end_time": 74.36818181818181,
                "pitch": 39,
                "velocity": 51,
                "duration": 0.16590909090908212,
                "tempo": 120.0
            },
            {
                "start_time": 74.40227272727272,
                "end_time": 74.57045454545454,
                "pitch": 39,
                "velocity": 51,
                "duration": 0.16818181818182154,
                "tempo": 120.0
            },
            {
                "start_time": 74.60454545454544,
                "end_time": 74.77272727272727,
                "pitch": 39,
                "velocity": 51,
                "duration": 0.16818181818182154,
                "tempo": 120.0
            },
            {
                "start_time": 74.80681818181817,
                "end_time": 74.97272727272727,
                "pitch": 39,
                "velocity": 51,
                "duration": 0.16590909090909634,
                "tempo": 120.0
            },
            {
                "start_time": 75.00681818181818,
                "end_time": 75.175,
                "pitch": 39,
                "velocity": 51,
                "duration": 0.16818181818182154,
                "tempo": 120.0
            },
            {
                "start_time": 75.2090909090909,
                "end_time": 75.375,
                "pitch": 39,
                "velocity": 51,
                "duration": 0.16590909090909634,
                "tempo": 120.0
            },
            {
                "start_time": 75.4090909090909,
                "end_time": 75.475,
                "pitch": 39,
                "velocity": 51,
                "duration": 0.06590909090908781,
                "tempo": 120.0
            },
            {
                "start_time": 75.5090909090909,
                "end_time": 75.575,
                "pitch": 39,
                "velocity": 51,
                "duration": 0.06590909090910202,
                "tempo": 120.0
            },
            {
                "start_time": 75.60909090909091,
                "end_time": 75.77727272727272,
                "pitch": 39,
                "velocity": 51,
                "duration": 0.16818181818180733,
                "tempo": 120.0
            },
            {
                "start_time": 65.74318181818181,
                "end_time": 75.97954545454544,
                "pitch": 38,
                "velocity": 51,
                "duration": 10.236363636363635,
                "tempo": 120.0
            },
            {
                "start_time": 75.81136363636364,
                "end_time": 75.97954545454544,
                "pitch": 38,
                "velocity": 51,
                "duration": 0.16818181818180733,
                "tempo": 120.0
            },
            {
                "start_time": 76.01363636363637,
                "end_time": 76.17954545454545,
                "pitch": 38,
                "velocity": 51,
                "duration": 0.16590909090908212,
                "tempo": 120.0
            },
            {
                "start_time": 76.21363636363635,
                "end_time": 76.37954545454545,
                "pitch": 38,
                "velocity": 51,
                "duration": 0.16590909090909634,
                "tempo": 120.0
            },
            {
                "start_time": 76.41363636363636,
                "end_time": 76.58181818181818,
                "pitch": 38,
                "velocity": 51,
                "duration": 0.16818181818182154,
                "tempo": 120.0
            },
            {
                "start_time": 76.61590909090908,
                "end_time": 76.78181818181818,
                "pitch": 38,
                "velocity": 51,
                "duration": 0.16590909090909634,
                "tempo": 120.0
            },
            {
                "start_time": 76.81590909090909,
                "end_time": 76.98409090909091,
                "pitch": 38,
                "velocity": 51,
                "duration": 0.16818181818182154,
                "tempo": 120.0
            },
            {
                "start_time": 77.01818181818182,
                "end_time": 77.18636363636364,
                "pitch": 38,
                "velocity": 51,
                "duration": 0.16818181818182154,
                "tempo": 120.0
            },
            {
                "start_time": 77.22045454545454,
                "end_time": 77.38636363636363,
                "pitch": 38,
                "velocity": 51,
                "duration": 0.16590909090908212,
                "tempo": 120.0
            },
            {
                "start_time": 77.42045454545455,
                "end_time": 77.58636363636363,
                "pitch": 38,
                "velocity": 51,
                "duration": 0.16590909090908212,
                "tempo": 120.0
            },
            {
                "start_time": 77.62045454545454,
                "end_time": 77.78863636363636,
                "pitch": 38,
                "velocity": 51,
                "duration": 0.16818181818182154,
                "tempo": 120.0
            },
            {
                "start_time": 77.82272727272726,
                "end_time": 77.98863636363636,
                "pitch": 38,
                "velocity": 51,
                "duration": 0.16590909090909634,
                "tempo": 120.0
            },
            {
                "start_time": 78.02272727272727,
                "end_time": 78.19545454545454,
                "pitch": 38,
                "velocity": 51,
                "duration": 0.17272727272727195,
                "tempo": 120.0
            },
            {
                "start_time": 78.22954545454544,
                "end_time": 78.39999999999999,
                "pitch": 38,
                "velocity": 51,
                "duration": 0.17045454545454675,
                "tempo": 120.0
            },
            {
                "start_time": 78.43409090909091,
                "end_time": 78.59772727272727,
                "pitch": 38,
                "velocity": 51,
                "duration": 0.16363636363635692,
                "tempo": 120.0
            },
            {
                "start_time": 78.63181818181818,
                "end_time": 78.69545454545454,
                "pitch": 38,
                "velocity": 51,
                "duration": 0.0636363636363626,
                "tempo": 120.0
            },
            {
                "start_time": 78.72954545454544,
                "end_time": 78.79545454545455,
                "pitch": 38,
                "velocity": 51,
                "duration": 0.06590909090910202,
                "tempo": 120.0
            },
            {
                "start_time": 78.82727272727273,
                "end_time": 78.99772727272727,
                "pitch": 36,
                "velocity": 51,
                "duration": 0.17045454545454675,
                "tempo": 120.0
            },
            {
                "start_time": 79.03181818181818,
                "end_time": 79.20454545454545,
                "pitch": 36,
                "velocity": 51,
                "duration": 0.17272727272727195,
                "tempo": 120.0
            },
            {
                "start_time": 79.23863636363636,
                "end_time": 79.40227272727272,
                "pitch": 36,
                "velocity": 51,
                "duration": 0.16363636363635692,
                "tempo": 120.0
            },
            {
                "start_time": 79.43636363636364,
                "end_time": 79.59772727272727,
                "pitch": 36,
                "velocity": 51,
                "duration": 0.1613636363636317,
                "tempo": 120.0
            },
            {
                "start_time": 79.63181818181818,
                "end_time": 79.8,
                "pitch": 36,
                "velocity": 51,
                "duration": 0.16818181818182154,
                "tempo": 120.0
            },
            {
                "start_time": 79.8340909090909,
                "end_time": 80.0,
                "pitch": 36,
                "velocity": 51,
                "duration": 0.16590909090909634,
                "tempo": 120.0
            },
            {
                "start_time": 80.0340909090909,
                "end_time": 80.2,
                "pitch": 36,
                "velocity": 51,
                "duration": 0.16590909090909634,
                "tempo": 120.0
            },
            {
                "start_time": 80.23409090909091,
                "end_time": 80.40227272727272,
                "pitch": 36,
                "velocity": 51,
                "duration": 0.16818181818180733,
                "tempo": 120.0
            },
            {
                "start_time": 80.43409090909091,
                "end_time": 80.60681818181818,
                "pitch": 36,
                "velocity": 51,
                "duration": 0.17272727272727195,
                "tempo": 120.0
            },
            {
                "start_time": 80.64090909090909,
                "end_time": 80.81136363636364,
                "pitch": 36,
                "velocity": 51,
                "duration": 0.17045454545454675,
                "tempo": 120.0
            },
            {
                "start_time": 80.84545454545454,
                "end_time": 81.01363636363637,
                "pitch": 36,
                "velocity": 51,
                "duration": 0.16818181818182154,
                "tempo": 120.0
            },
            {
                "start_time": 81.04772727272727,
                "end_time": 81.21363636363635,
                "pitch": 36,
                "velocity": 51,
                "duration": 0.16590909090908212,
                "tempo": 120.0
            },
            {
                "start_time": 81.24772727272727,
                "end_time": 81.41590909090908,
                "pitch": 36,
                "velocity": 51,
                "duration": 0.16818181818180733,
                "tempo": 120.0
            },
            {
                "start_time": 81.44772727272726,
                "end_time": 81.61590909090908,
                "pitch": 36,
                "velocity": 51,
                "duration": 0.16818181818182154,
                "tempo": 120.0
            },
            {
                "start_time": 81.64999999999999,
                "end_time": 81.81590909090909,
                "pitch": 36,
                "velocity": 51,
                "duration": 0.16590909090909634,
                "tempo": 120.0
            },
            {
                "start_time": 69.16590909090908,
                "end_time": 81.85,
                "pitch": 40,
                "velocity": 51,
                "duration": 12.684090909090912,
                "tempo": 120.0
            },
            {
                "start_time": 81.85,
                "end_time": 81.91590909090908,
                "pitch": 34,
                "velocity": 51,
                "duration": 0.06590909090908781,
                "tempo": 120.0
            },
            {
                "start_time": 81.95,
                "end_time": 82.01818181818182,
                "pitch": 34,
                "velocity": 51,
                "duration": 0.06818181818181301,
                "tempo": 120.0
            },
            {
                "start_time": 82.05227272727272,
                "end_time": 82.21818181818182,
                "pitch": 32,
                "velocity": 51,
                "duration": 0.16590909090909634,
                "tempo": 120.0
            },
            {
                "start_time": 82.25227272727273,
                "end_time": 82.42045454545455,
                "pitch": 32,
                "velocity": 51,
                "duration": 0.16818181818182154,
                "tempo": 120.0
            },
            {
                "start_time": 82.45454545454545,
                "end_time": 82.62272727272727,
                "pitch": 32,
                "velocity": 51,
                "duration": 0.16818181818182154,
                "tempo": 120.0
            },
            {
                "start_time": 82.65681818181818,
                "end_time": 82.72272727272727,
                "pitch": 32,
                "velocity": 51,
                "duration": 0.06590909090908781,
                "tempo": 120.0
            },
            {
                "start_time": 82.75681818181818,
                "end_time": 82.82272727272726,
                "pitch": 32,
                "velocity": 51,
                "duration": 0.06590909090908781,
                "tempo": 120.0
            },
            {
                "start_time": 82.85681818181818,
                "end_time": 83.02499999999999,
                "pitch": 32,
                "velocity": 51,
                "duration": 0.16818181818180733,
                "tempo": 120.0
            },
            {
                "start_time": 83.0590909090909,
                "end_time": 83.225,
                "pitch": 32,
                "velocity": 51,
                "duration": 0.16590909090909634,
                "tempo": 120.0
            },
            {
                "start_time": 83.2590909090909,
                "end_time": 83.425,
                "pitch": 32,
                "velocity": 51,
                "duration": 0.16590909090909634,
                "tempo": 120.0
            },
            {
                "start_time": 83.4590909090909,
                "end_time": 83.52727272727272,
                "pitch": 32,
                "velocity": 51,
                "duration": 0.06818181818181301,
                "tempo": 120.0
            },
            {
                "start_time": 83.5590909090909,
                "end_time": 83.62727272727273,
                "pitch": 32,
                "velocity": 51,
                "duration": 0.06818181818182723,
                "tempo": 120.0
            },
            {
                "start_time": 82.05227272727272,
                "end_time": 83.82727272727273,
                "pitch": 34,
                "velocity": 51,
                "duration": 1.7750000000000057,
                "tempo": 120.0
            },
            {
                "start_time": 83.66136363636363,
                "end_time": 83.82727272727273,
                "pitch": 34,
                "velocity": 51,
                "duration": 0.16590909090909634,
                "tempo": 120.0
            },
            {
                "start_time": 83.86136363636363,
                "end_time": 83.92727272727272,
                "pitch": 34,
                "velocity": 51,
                "duration": 0.06590909090908781,
                "tempo": 120.0
            },
            {
                "start_time": 83.96136363636363,
                "end_time": 84.02727272727272,
                "pitch": 34,
                "velocity": 51,
                "duration": 0.06590909090908781,
                "tempo": 120.0
            },
            {
                "start_time": 71.57954545454545,
                "end_time": 84.06136363636364,
                "pitch": 14,
                "velocity": 51,
                "duration": 12.481818181818184,
                "tempo": 120.0
            },
            {
                "start_time": 84.06136363636364,
                "end_time": 84.22954545454544,
                "pitch": 36,
                "velocity": 51,
                "duration": 0.16818181818180733,
                "tempo": 120.0
            },
            {
                "start_time": 84.26363636363637,
                "end_time": 84.32954545454545,
                "pitch": 36,
                "velocity": 51,
                "duration": 0.06590909090908781,
                "tempo": 120.0
            },
            {
                "start_time": 84.36363636363636,
                "end_time": 84.43181818181817,
                "pitch": 36,
                "velocity": 51,
                "duration": 0.06818181818181301,
                "tempo": 120.0
            },
            {
                "start_time": 78.82727272727273,
                "end_time": 84.63181818181818,
                "pitch": 38,
                "velocity": 51,
                "duration": 5.804545454545448,
                "tempo": 120.0
            },
            {
                "start_time": 84.4659090909091,
                "end_time": 84.63181818181818,
                "pitch": 38,
                "velocity": 51,
                "duration": 0.16590909090908212,
                "tempo": 120.0
            },
            {
                "start_time": 84.66590909090908,
                "end_time": 84.73409090909091,
                "pitch": 38,
                "velocity": 51,
                "duration": 0.06818181818182723,
                "tempo": 120.0
            },
            {
                "start_time": 84.76818181818182,
                "end_time": 84.8340909090909,
                "pitch": 38,
                "velocity": 51,
                "duration": 0.06590909090908781,
                "tempo": 120.0
            },
            {
                "start_time": 72.3840909090909,
                "end_time": 85.0340909090909,
                "pitch": 41,
                "velocity": 51,
                "duration": 12.650000000000006,
                "tempo": 120.0
            },
            {
                "start_time": 84.86818181818181,
                "end_time": 85.0340909090909,
                "pitch": 41,
                "velocity": 51,
                "duration": 0.16590909090909634,
                "tempo": 120.0
            },
            {
                "start_time": 85.06818181818181,
                "end_time": 85.1340909090909,
                "pitch": 41,
                "velocity": 51,
                "duration": 0.06590909090908781,
                "tempo": 120.0
            },
            {
                "start_time": 85.16818181818181,
                "end_time": 85.23409090909091,
                "pitch": 41,
                "velocity": 51,
                "duration": 0.06590909090910202,
                "tempo": 120.0
            },
            {
                "start_time": 84.4659090909091,
                "end_time": 85.43863636363636,
                "pitch": 36,
                "velocity": 51,
                "duration": 0.9727272727272691,
                "tempo": 120.0
            },
            {
                "start_time": 85.27045454545454,
                "end_time": 85.43863636363636,
                "pitch": 36,
                "velocity": 51,
                "duration": 0.16818181818182154,
                "tempo": 120.0
            }
        ],
        "Acoustic Grand Piano": [
            {
                "start_time": 14.7,
                "end_time": 14.895454545454545,
                "pitch": 77,
                "velocity": 40,
                "duration": 0.19545454545454533,
                "tempo": 120.0
            },
            {
                "start_time": 14.895454545454545,
                "end_time": 15.1,
                "pitch": 79,
                "velocity": 40,
                "duration": 0.20454545454545503,
                "tempo": 120.0
            },
            {
                "start_time": 15.509090909090908,
                "end_time": 15.709090909090909,
                "pitch": 79,
                "velocity": 40,
                "duration": 0.20000000000000107,
                "tempo": 120.0
            },
            {
                "start_time": 14.7,
                "end_time": 16.313636363636363,
                "pitch": 72,
                "velocity": 40,
                "duration": 1.6136363636363633,
                "tempo": 120.0
            },
            {
                "start_time": 16.113636363636363,
                "end_time": 16.313636363636363,
                "pitch": 72,
                "velocity": 40,
                "duration": 0.1999999999999993,
                "tempo": 120.0
            },
            {
                "start_time": 16.313636363636363,
                "end_time": 16.31590909090909,
                "pitch": 72,
                "velocity": 40,
                "duration": 0.0022727272727287584,
                "tempo": 120.0
            },
            {
                "start_time": 16.113636363636363,
                "end_time": 16.51590909090909,
                "pitch": 77,
                "velocity": 40,
                "duration": 0.40227272727272734,
                "tempo": 120.0
            },
            {
                "start_time": 16.31590909090909,
                "end_time": 16.51590909090909,
                "pitch": 77,
                "velocity": 40,
                "duration": 0.1999999999999993,
                "tempo": 120.0
            },
            {
                "start_time": 14.895454545454545,
                "end_time": 16.51590909090909,
                "pitch": 90,
                "velocity": 40,
                "duration": 1.620454545454546,
                "tempo": 120.0
            },
            {
                "start_time": 16.51590909090909,
                "end_time": 16.71590909090909,
                "pitch": 79,
                "velocity": 40,
                "duration": 0.1999999999999993,
                "tempo": 120.0
            },
            {
                "start_time": 15.509090909090908,
                "end_time": 17.118181818181817,
                "pitch": 88,
                "velocity": 40,
                "duration": 1.6090909090909093,
                "tempo": 120.0
            },
            {
                "start_time": 17.118181818181817,
                "end_time": 17.31590909090909,
                "pitch": 79,
                "velocity": 40,
                "duration": 0.19772727272727408,
                "tempo": 120.0
            },
            {
                "start_time": 17.720454545454544,
                "end_time": 17.920454545454543,
                "pitch": 72,
                "velocity": 40,
                "duration": 0.1999999999999993,
                "tempo": 120.0
            },
            {
                "start_time": 17.720454545454544,
                "end_time": 18.120454545454546,
                "pitch": 77,
                "velocity": 40,
                "duration": 0.40000000000000213,
                "tempo": 120.0
            },
            {
                "start_time": 17.920454545454543,
                "end_time": 18.120454545454546,
                "pitch": 77,
                "velocity": 40,
                "duration": 0.20000000000000284,
                "tempo": 120.0
            },
            {
                "start_time": 16.51590909090909,
                "end_time": 18.120454545454546,
                "pitch": 90,
                "velocity": 40,
                "duration": 1.6045454545454554,
                "tempo": 120.0
            },
            {
                "start_time": 18.120454545454546,
                "end_time": 18.32272727272727,
                "pitch": 79,
                "velocity": 40,
                "duration": 0.2022727272727245,
                "tempo": 120.0
            },
            {
                "start_time": 17.118181818181817,
                "end_time": 18.724999999999998,
                "pitch": 88,
                "velocity": 40,
                "duration": 1.6068181818181806,
                "tempo": 120.0
            },
            {
                "start_time": 18.724999999999998,
                "end_time": 18.925,
                "pitch": 79,
                "velocity": 40,
                "duration": 0.20000000000000284,
                "tempo": 120.0
            },
            {
                "start_time": 17.920454545454543,
                "end_time": 19.527272727272727,
                "pitch": 72,
                "velocity": 40,
                "duration": 1.6068181818181841,
                "tempo": 120.0
            },
            {
                "start_time": 19.325,
                "end_time": 19.527272727272727,
                "pitch": 72,
                "velocity": 40,
                "duration": 0.20227272727272805,
                "tempo": 120.0
            },
            {
                "start_time": 19.325,
                "end_time": 19.729545454545452,
                "pitch": 77,
                "velocity": 40,
                "duration": 0.40454545454545254,
                "tempo": 120.0
            },
            {
                "start_time": 19.527272727272727,
                "end_time": 19.729545454545452,
                "pitch": 77,
                "velocity": 40,
                "duration": 0.2022727272727245,
                "tempo": 120.0
            },
            {
                "start_time": 18.120454545454546,
                "end_time": 19.729545454545452,
                "pitch": 90,
                "velocity": 40,
                "duration": 1.6090909090909058,
                "tempo": 120.0
            },
            {
                "start_time": 19.729545454545452,
                "end_time": 19.929545454545455,
                "pitch": 79,
                "velocity": 40,
                "duration": 0.20000000000000284,
                "tempo": 120.0
            },
            {
                "start_time": 18.724999999999998,
                "end_time": 20.331818181818182,
                "pitch": 88,
                "velocity": 40,
                "duration": 1.6068181818181841,
                "tempo": 120.0
            },
            {
                "start_time": 20.331818181818182,
                "end_time": 20.53181818181818,
                "pitch": 79,
                "velocity": 40,
                "duration": 0.1999999999999993,
                "tempo": 120.0
            },
            {
                "start_time": 19.527272727272727,
                "end_time": 21.138636363636362,
                "pitch": 72,
                "velocity": 40,
                "duration": 1.6113636363636346,
                "tempo": 120.0
            },
            {
                "start_time": 20.93409090909091,
                "end_time": 21.138636363636362,
                "pitch": 72,
                "velocity": 40,
                "duration": 0.20454545454545325,
                "tempo": 120.0
            },
            {
                "start_time": 20.93409090909091,
                "end_time": 21.34318181818182,
                "pitch": 77,
                "velocity": 40,
                "duration": 0.40909090909091006,
                "tempo": 120.0
            },
            {
                "start_time": 21.138636363636362,
                "end_time": 21.34318181818182,
                "pitch": 77,
                "velocity": 40,
                "duration": 0.2045454545454568,
                "tempo": 120.0
            },
            {
                "start_time": 19.729545454545452,
                "end_time": 21.34318181818182,
                "pitch": 90,
                "velocity": 40,
                "duration": 1.6136363636363669,
                "tempo": 120.0
            },
            {
                "start_time": 21.34318181818182,
                "end_time": 21.54090909090909,
                "pitch": 79,
                "velocity": 40,
                "duration": 0.19772727272727053,
                "tempo": 120.0
            },
            {
                "start_time": 20.331818181818182,
                "end_time": 21.943181818181817,
                "pitch": 88,
                "velocity": 40,
                "duration": 1.6113636363636346,
                "tempo": 120.0
            },
            {
                "start_time": 21.943181818181817,
                "end_time": 22.147727272727273,
                "pitch": 79,
                "velocity": 40,
                "duration": 0.2045454545454568,
                "tempo": 120.0
            },
            {
                "start_time": 21.138636363636362,
                "end_time": 22.75,
                "pitch": 72,
                "velocity": 40,
                "duration": 1.611363636363638,
                "tempo": 120.0
            },
            {
                "start_time": 22.549999999999997,
                "end_time": 22.75,
                "pitch": 72,
                "velocity": 40,
                "duration": 0.20000000000000284,
                "tempo": 120.0
            },
            {
                "start_time": 22.549999999999997,
                "end_time": 22.952272727272724,
                "pitch": 77,
                "velocity": 40,
                "duration": 0.40227272727272734,
                "tempo": 120.0
            },
            {
                "start_time": 22.75,
                "end_time": 22.952272727272724,
                "pitch": 77,
                "velocity": 40,
                "duration": 0.2022727272727245,
                "tempo": 120.0
            },
            {
                "start_time": 21.34318181818182,
                "end_time": 22.952272727272724,
                "pitch": 90,
                "velocity": 40,
                "duration": 1.6090909090909058,
                "tempo": 120.0
            },
            {
                "start_time": 22.952272727272724,
                "end_time": 23.152272727272727,
                "pitch": 79,
                "velocity": 40,
                "duration": 0.20000000000000284,
                "tempo": 120.0
            },
            {
                "start_time": 21.943181818181817,
                "end_time": 23.552272727272726,
                "pitch": 88,
                "velocity": 40,
                "duration": 1.6090909090909093,
                "tempo": 120.0
            },
            {
                "start_time": 23.552272727272726,
                "end_time": 23.752272727272725,
                "pitch": 79,
                "velocity": 40,
                "duration": 0.1999999999999993,
                "tempo": 120.0
            },
            {
                "start_time": 22.75,
                "end_time": 24.35681818181818,
                "pitch": 72,
                "velocity": 40,
                "duration": 1.6068181818181806,
                "tempo": 120.0
            },
            {
                "start_time": 24.15681818181818,
                "end_time": 24.35681818181818,
                "pitch": 72,
                "velocity": 40,
                "duration": 0.1999999999999993,
                "tempo": 120.0
            },
            {
                "start_time": 24.15681818181818,
                "end_time": 24.55681818181818,
                "pitch": 77,
                "velocity": 40,
                "duration": 0.3999999999999986,
                "tempo": 120.0
            },
            {
                "start_time": 24.35681818181818,
                "end_time": 24.55681818181818,
                "pitch": 77,
                "velocity": 40,
                "duration": 0.1999999999999993,
                "tempo": 120.0
            },
            {
                "start_time": 22.952272727272724,
                "end_time": 24.55681818181818,
                "pitch": 90,
                "velocity": 40,
                "duration": 1.6045454545454554,
                "tempo": 120.0
            },
            {
                "start_time": 24.55681818181818,
                "end_time": 24.759090909090908,
                "pitch": 79,
                "velocity": 40,
                "duration": 0.20227272727272805,
                "tempo": 120.0
            },
            {
                "start_time": 23.552272727272726,
                "end_time": 25.161363636363635,
                "pitch": 88,
                "velocity": 40,
                "duration": 1.6090909090909093,
                "tempo": 120.0
            },
            {
                "start_time": 25.161363636363635,
                "end_time": 25.35909090909091,
                "pitch": 79,
                "velocity": 40,
                "duration": 0.19772727272727408,
                "tempo": 120.0
            },
            {
                "start_time": 24.35681818181818,
                "end_time": 25.96363636363636,
                "pitch": 72,
                "velocity": 40,
                "duration": 1.6068181818181806,
                "tempo": 120.0
            },
            {
                "start_time": 25.761363636363637,
                "end_time": 25.96363636363636,
                "pitch": 72,
                "velocity": 40,
                "duration": 0.2022727272727245,
                "tempo": 120.0
            },
            {
                "start_time": 25.761363636363637,
                "end_time": 26.163636363636364,
                "pitch": 77,
                "velocity": 40,
                "duration": 0.40227272727272734,
                "tempo": 120.0
            },
            {
                "start_time": 25.96363636363636,
                "end_time": 26.163636363636364,
                "pitch": 77,
                "velocity": 40,
                "duration": 0.20000000000000284,
                "tempo": 120.0
            },
            {
                "start_time": 24.55681818181818,
                "end_time": 26.163636363636364,
                "pitch": 90,
                "velocity": 40,
                "duration": 1.6068181818181841,
                "tempo": 120.0
            },
            {
                "start_time": 26.163636363636364,
                "end_time": 26.363636363636363,
                "pitch": 79,
                "velocity": 40,
                "duration": 0.1999999999999993,
                "tempo": 120.0
            },
            {
                "start_time": 25.161363636363635,
                "end_time": 26.76590909090909,
                "pitch": 88,
                "velocity": 40,
                "duration": 1.6045454545454554,
                "tempo": 120.0
            },
            {
                "start_time": 26.76590909090909,
                "end_time": 26.968181818181815,
                "pitch": 79,
                "velocity": 40,
                "duration": 0.2022727272727245,
                "tempo": 120.0
            },
            {
                "start_time": 25.96363636363636,
                "end_time": 27.568181818181817,
                "pitch": 72,
                "velocity": 40,
                "duration": 1.6045454545454554,
                "tempo": 120.0
            },
            {
                "start_time": 27.370454545454542,
                "end_time": 27.568181818181817,
                "pitch": 72,
                "velocity": 40,
                "duration": 0.19772727272727408,
                "tempo": 120.0
            },
            {
                "start_time": 27.370454545454542,
                "end_time": 27.768181818181816,
                "pitch": 77,
                "velocity": 40,
                "duration": 0.3977272727272734,
                "tempo": 120.0
            },
            {
                "start_time": 27.568181818181817,
                "end_time": 27.768181818181816,
                "pitch": 77,
                "velocity": 40,
                "duration": 0.1999999999999993,
                "tempo": 120.0
            },
            {
                "start_time": 26.163636363636364,
                "end_time": 27.768181818181816,
                "pitch": 90,
                "velocity": 40,
                "duration": 1.6045454545454518,
                "tempo": 120.0
            },
            {
                "start_time": 27.768181818181816,
                "end_time": 27.970454545454544,
                "pitch": 79,
                "velocity": 40,
                "duration": 0.20227272727272805,
                "tempo": 120.0
            },
            {
                "start_time": 26.76590909090909,
                "end_time": 28.377272727272725,
                "pitch": 88,
                "velocity": 40,
                "duration": 1.6113636363636346,
                "tempo": 120.0
            },
            {
                "start_time": 28.377272727272725,
                "end_time": 28.584090909090907,
                "pitch": 79,
                "velocity": 40,
                "duration": 0.206818181818182,
                "tempo": 120.0
            },
            {
                "start_time": 27.568181818181817,
                "end_time": 29.18181818181818,
                "pitch": 72,
                "velocity": 40,
                "duration": 1.6136363636363633,
                "tempo": 120.0
            },
            {
                "start_time": 28.977272727272727,
                "end_time": 29.18181818181818,
                "pitch": 72,
                "velocity": 40,
                "duration": 0.20454545454545325,
                "tempo": 120.0
            },
            {
                "start_time": 28.977272727272727,
                "end_time": 29.386363636363637,
                "pitch": 77,
                "velocity": 40,
                "duration": 0.40909090909091006,
                "tempo": 120.0
            },
            {
                "start_time": 29.18181818181818,
                "end_time": 29.386363636363637,
                "pitch": 77,
                "velocity": 40,
                "duration": 0.2045454545454568,
                "tempo": 120.0
            },
            {
                "start_time": 27.768181818181816,
                "end_time": 29.386363636363637,
                "pitch": 90,
                "velocity": 40,
                "duration": 1.6181818181818208,
                "tempo": 120.0
            },
            {
                "start_time": 29.386363636363637,
                "end_time": 29.58863636363636,
                "pitch": 79,
                "velocity": 40,
                "duration": 0.2022727272727245,
                "tempo": 120.0
            },
            {
                "start_time": 28.377272727272725,
                "end_time": 29.988636363636363,
                "pitch": 88,
                "velocity": 40,
                "duration": 1.611363636363638,
                "tempo": 120.0
            },
            {
                "start_time": 29.988636363636363,
                "end_time": 30.188636363636363,
                "pitch": 79,
                "velocity": 40,
                "duration": 0.1999999999999993,
                "tempo": 120.0
            },
            {
                "start_time": 29.18181818181818,
                "end_time": 30.793181818181818,
                "pitch": 72,
                "velocity": 40,
                "duration": 1.611363636363638,
                "tempo": 120.0
            },
            {
                "start_time": 30.593181818181815,
                "end_time": 30.793181818181818,
                "pitch": 72,
                "velocity": 40,
                "duration": 0.20000000000000284,
                "tempo": 120.0
            },
            {
                "start_time": 30.593181818181815,
                "end_time": 30.993181818181817,
                "pitch": 77,
                "velocity": 40,
                "duration": 0.40000000000000213,
                "tempo": 120.0
            },
            {
                "start_time": 30.793181818181818,
                "end_time": 30.993181818181817,
                "pitch": 77,
                "velocity": 40,
                "duration": 0.1999999999999993,
                "tempo": 120.0
            },
            {
                "start_time": 29.386363636363637,
                "end_time": 30.993181818181817,
                "pitch": 90,
                "velocity": 40,
                "duration": 1.6068181818181806,
                "tempo": 120.0
            },
            {
                "start_time": 30.993181818181817,
                "end_time": 31.193181818181817,
                "pitch": 79,
                "velocity": 40,
                "duration": 0.1999999999999993,
                "tempo": 120.0
            },
            {
                "start_time": 29.988636363636363,
                "end_time": 31.595454545454544,
                "pitch": 88,
                "velocity": 40,
                "duration": 1.6068181818181806,
                "tempo": 120.0
            },
            {
                "start_time": 31.595454545454544,
                "end_time": 31.795454545454543,
                "pitch": 79,
                "velocity": 40,
                "duration": 0.1999999999999993,
                "tempo": 120.0
            },
            {
                "start_time": 30.793181818181818,
                "end_time": 32.39772727272727,
                "pitch": 72,
                "velocity": 40,
                "duration": 1.6045454545454554,
                "tempo": 120.0
            },
            {
                "start_time": 32.19772727272727,
                "end_time": 32.39772727272727,
                "pitch": 72,
                "velocity": 40,
                "duration": 0.20000000000000284,
                "tempo": 120.0
            },
            {
                "start_time": 32.19772727272727,
                "end_time": 32.59772727272727,
                "pitch": 77,
                "velocity": 40,
                "duration": 0.3999999999999986,
                "tempo": 120.0
            },
            {
                "start_time": 32.39772727272727,
                "end_time": 32.59772727272727,
                "pitch": 77,
                "velocity": 40,
                "duration": 0.19999999999999574,
                "tempo": 120.0
            },
            {
                "start_time": 30.993181818181817,
                "end_time": 32.59772727272727,
                "pitch": 90,
                "velocity": 40,
                "duration": 1.6045454545454518,
                "tempo": 120.0
            },
            {
                "start_time": 32.59772727272727,
                "end_time": 32.8,
                "pitch": 79,
                "velocity": 40,
                "duration": 0.20227272727272805,
                "tempo": 120.0
            },
            {
                "start_time": 31.595454545454544,
                "end_time": 33.199999999999996,
                "pitch": 88,
                "velocity": 40,
                "duration": 1.6045454545454518,
                "tempo": 120.0
            },
            {
                "start_time": 33.199999999999996,
                "end_time": 33.4,
                "pitch": 79,
                "velocity": 40,
                "duration": 0.20000000000000284,
                "tempo": 120.0
            },
            {
                "start_time": 32.39772727272727,
                "end_time": 34.002272727272725,
                "pitch": 72,
                "velocity": 40,
                "duration": 1.6045454545454518,
                "tempo": 120.0
            },
            {
                "start_time": 33.80227272727272,
                "end_time": 34.002272727272725,
                "pitch": 72,
                "velocity": 40,
                "duration": 0.20000000000000284,
                "tempo": 120.0
            },
            {
                "start_time": 33.80227272727272,
                "end_time": 34.20227272727273,
                "pitch": 77,
                "velocity": 40,
                "duration": 0.4000000000000057,
                "tempo": 120.0
            },
            {
                "start_time": 34.002272727272725,
                "end_time": 34.20227272727273,
                "pitch": 77,
                "velocity": 40,
                "duration": 0.20000000000000284,
                "tempo": 120.0
            },
            {
                "start_time": 32.59772727272727,
                "end_time": 34.20227272727273,
                "pitch": 90,
                "velocity": 40,
                "duration": 1.604545454545459,
                "tempo": 120.0
            },
            {
                "start_time": 34.20227272727273,
                "end_time": 34.402272727272724,
                "pitch": 79,
                "velocity": 40,
                "duration": 0.19999999999999574,
                "tempo": 120.0
            },
            {
                "start_time": 33.199999999999996,
                "end_time": 34.804545454545455,
                "pitch": 88,
                "velocity": 40,
                "duration": 1.604545454545459,
                "tempo": 120.0
            },
            {
                "start_time": 34.804545454545455,
                "end_time": 35.00681818181818,
                "pitch": 79,
                "velocity": 40,
                "duration": 0.20227272727272805,
                "tempo": 120.0
            },
            {
                "start_time": 34.002272727272725,
                "end_time": 35.60681818181818,
                "pitch": 72,
                "velocity": 40,
                "duration": 1.6045454545454518,
                "tempo": 120.0
            },
            {
                "start_time": 35.40681818181818,
                "end_time": 35.60681818181818,
                "pitch": 72,
                "velocity": 40,
                "duration": 0.19999999999999574,
                "tempo": 120.0
            },
            {
                "start_time": 35.40681818181818,
                "end_time": 35.80681818181818,
                "pitch": 77,
                "velocity": 40,
                "duration": 0.3999999999999986,
                "tempo": 120.0
            },
            {
                "start_time": 35.60681818181818,
                "end_time": 35.80681818181818,
                "pitch": 77,
                "velocity": 40,
                "duration": 0.20000000000000284,
                "tempo": 120.0
            },
            {
                "start_time": 34.20227272727273,
                "end_time": 35.80681818181818,
                "pitch": 90,
                "velocity": 40,
                "duration": 1.6045454545454518,
                "tempo": 120.0
            },
            {
                "start_time": 35.80681818181818,
                "end_time": 36.00681818181818,
                "pitch": 79,
                "velocity": 40,
                "duration": 0.20000000000000284,
                "tempo": 120.0
            },
            {
                "start_time": 34.804545454545455,
                "end_time": 36.413636363636364,
                "pitch": 88,
                "velocity": 40,
                "duration": 1.6090909090909093,
                "tempo": 120.0
            },
            {
                "start_time": 36.413636363636364,
                "end_time": 36.61818181818182,
                "pitch": 79,
                "velocity": 40,
                "duration": 0.20454545454545325,
                "tempo": 120.0
            },
            {
                "start_time": 35.60681818181818,
                "end_time": 37.220454545454544,
                "pitch": 72,
                "velocity": 40,
                "duration": 1.6136363636363669,
                "tempo": 120.0
            },
            {
                "start_time": 37.02045454545454,
                "end_time": 37.220454545454544,
                "pitch": 72,
                "velocity": 40,
                "duration": 0.20000000000000284,
                "tempo": 120.0
            },
            {
                "start_time": 37.02045454545454,
                "end_time": 37.42045454545455,
                "pitch": 77,
                "velocity": 40,
                "duration": 0.4000000000000057,
                "tempo": 120.0
            },
            {
                "start_time": 37.220454545454544,
                "end_time": 37.42045454545455,
                "pitch": 77,
                "velocity": 40,
                "duration": 0.20000000000000284,
                "tempo": 120.0
            },
            {
                "start_time": 35.80681818181818,
                "end_time": 37.42045454545455,
                "pitch": 90,
                "velocity": 40,
                "duration": 1.6136363636363669,
                "tempo": 120.0
            },
            {
                "start_time": 37.42045454545455,
                "end_time": 37.62045454545454,
                "pitch": 79,
                "velocity": 40,
                "duration": 0.19999999999999574,
                "tempo": 120.0
            },
            {
                "start_time": 36.413636363636364,
                "end_time": 38.02045454545454,
                "pitch": 88,
                "velocity": 40,
                "duration": 1.606818181818177,
                "tempo": 120.0
            },
            {
                "start_time": 38.02045454545454,
                "end_time": 38.220454545454544,
                "pitch": 79,
                "velocity": 40,
                "duration": 0.20000000000000284,
                "tempo": 120.0
            },
            {
                "start_time": 37.220454545454544,
                "end_time": 38.824999999999996,
                "pitch": 72,
                "velocity": 40,
                "duration": 1.6045454545454518,
                "tempo": 120.0
            },
            {
                "start_time": 38.625,
                "end_time": 38.824999999999996,
                "pitch": 72,
                "velocity": 40,
                "duration": 0.19999999999999574,
                "tempo": 120.0
            },
            {
                "start_time": 38.625,
                "end_time": 39.025,
                "pitch": 77,
                "velocity": 40,
                "duration": 0.3999999999999986,
                "tempo": 120.0
            },
            {
                "start_time": 38.824999999999996,
                "end_time": 39.025,
                "pitch": 77,
                "velocity": 40,
                "duration": 0.20000000000000284,
                "tempo": 120.0
            },
            {
                "start_time": 37.42045454545455,
                "end_time": 39.025,
                "pitch": 90,
                "velocity": 40,
                "duration": 1.6045454545454518,
                "tempo": 120.0
            },
            {
                "start_time": 39.025,
                "end_time": 39.225,
                "pitch": 79,
                "velocity": 40,
                "duration": 0.20000000000000284,
                "tempo": 120.0
            },
            {
                "start_time": 38.02045454545454,
                "end_time": 39.627272727272725,
                "pitch": 88,
                "velocity": 40,
                "duration": 1.6068181818181841,
                "tempo": 120.0
            },
            {
                "start_time": 39.627272727272725,
                "end_time": 39.824999999999996,
                "pitch": 79,
                "velocity": 40,
                "duration": 0.19772727272727053,
                "tempo": 120.0
            },
            {
                "start_time": 38.824999999999996,
                "end_time": 46.85454545454545,
                "pitch": 72,
                "velocity": 40,
                "duration": 8.029545454545456,
                "tempo": 120.0
            },
            {
                "start_time": 46.65681818181818,
                "end_time": 46.85454545454545,
                "pitch": 72,
                "velocity": 40,
                "duration": 0.19772727272727053,
                "tempo": 120.0
            },
            {
                "start_time": 46.85454545454545,
                "end_time": 46.85681818181818,
                "pitch": 72,
                "velocity": 40,
                "duration": 0.0022727272727252057,
                "tempo": 120.0
            },
            {
                "start_time": 46.85681818181818,
                "end_time": 47.054545454545455,
                "pitch": 77,
                "velocity": 40,
                "duration": 0.19772727272727764,
                "tempo": 120.0
            },
            {
                "start_time": 39.025,
                "end_time": 47.054545454545455,
                "pitch": 90,
                "velocity": 40,
                "duration": 8.029545454545456,
                "tempo": 120.0
            },
            {
                "start_time": 47.054545454545455,
                "end_time": 47.25454545454545,
                "pitch": 79,
                "velocity": 40,
                "duration": 0.19999999999999574,
                "tempo": 120.0
            },
            {
                "start_time": 39.627272727272725,
                "end_time": 47.65681818181818,
                "pitch": 88,
                "velocity": 40,
                "duration": 8.029545454545456,
                "tempo": 120.0
            },
            {
                "start_time": 47.65681818181818,
                "end_time": 47.85909090909091,
                "pitch": 79,
                "velocity": 40,
                "duration": 0.20227272727272805,
                "tempo": 120.0
            },
            {
                "start_time": 48.25909090909091,
                "end_time": 48.459090909090904,
                "pitch": 72,
                "velocity": 40,
                "duration": 0.19999999999999574,
                "tempo": 120.0
            },
            {
                "start_time": 48.25909090909091,
                "end_time": 48.65909090909091,
                "pitch": 77,
                "velocity": 40,
                "duration": 0.3999999999999986,
                "tempo": 120.0
            },
            {
                "start_time": 48.459090909090904,
                "end_time": 48.65909090909091,
                "pitch": 77,
                "velocity": 40,
                "duration": 0.20000000000000284,
                "tempo": 120.0
            },
            {
                "start_time": 47.054545454545455,
                "end_time": 48.65909090909091,
                "pitch": 90,
                "velocity": 40,
                "duration": 1.6045454545454518,
                "tempo": 120.0
            },
            {
                "start_time": 48.65909090909091,
                "end_time": 48.85909090909091,
                "pitch": 79,
                "velocity": 40,
                "duration": 0.20000000000000284,
                "tempo": 120.0
            },
            {
                "start_time": 47.65681818181818,
                "end_time": 49.26136363636363,
                "pitch": 88,
                "velocity": 40,
                "duration": 1.6045454545454518,
                "tempo": 120.0
            },
            {
                "start_time": 49.26136363636363,
                "end_time": 49.461363636363636,
                "pitch": 79,
                "velocity": 40,
                "duration": 0.20000000000000284,
                "tempo": 120.0
            },
            {
                "start_time": 48.459090909090904,
                "end_time": 50.070454545454545,
                "pitch": 72,
                "velocity": 40,
                "duration": 1.6113636363636417,
                "tempo": 120.0
            },
            {
                "start_time": 49.86363636363636,
                "end_time": 50.070454545454545,
                "pitch": 72,
                "velocity": 40,
                "duration": 0.20681818181818556,
                "tempo": 120.0
            },
            {
                "start_time": 49.86363636363636,
                "end_time": 50.275,
                "pitch": 77,
                "velocity": 40,
                "duration": 0.4113636363636388,
                "tempo": 120.0
            },
            {
                "start_time": 50.070454545454545,
                "end_time": 50.275,
                "pitch": 77,
                "velocity": 40,
                "duration": 0.20454545454545325,
                "tempo": 120.0
            },
            {
                "start_time": 48.65909090909091,
                "end_time": 50.275,
                "pitch": 90,
                "velocity": 40,
                "duration": 1.615909090909092,
                "tempo": 120.0
            },
            {
                "start_time": 50.275,
                "end_time": 50.47272727272727,
                "pitch": 79,
                "velocity": 40,
                "duration": 0.19772727272727053,
                "tempo": 120.0
            },
            {
                "start_time": 49.26136363636363,
                "end_time": 50.87272727272727,
                "pitch": 88,
                "velocity": 40,
                "duration": 1.6113636363636346,
                "tempo": 120.0
            },
            {
                "start_time": 50.87272727272727,
                "end_time": 51.07954545454545,
                "pitch": 79,
                "velocity": 40,
                "duration": 0.20681818181818556,
                "tempo": 120.0
            },
            {
                "start_time": 50.070454545454545,
                "end_time": 51.67727272727272,
                "pitch": 72,
                "velocity": 40,
                "duration": 1.606818181818177,
                "tempo": 120.0
            },
            {
                "start_time": 51.47272727272727,
                "end_time": 51.67727272727272,
                "pitch": 72,
                "velocity": 40,
                "duration": 0.20454545454545325,
                "tempo": 120.0
            },
            {
                "start_time": 51.47272727272727,
                "end_time": 51.88181818181818,
                "pitch": 77,
                "velocity": 40,
                "duration": 0.4090909090909136,
                "tempo": 120.0
            },
            {
                "start_time": 51.67727272727272,
                "end_time": 51.88181818181818,
                "pitch": 77,
                "velocity": 40,
                "duration": 0.20454545454546036,
                "tempo": 120.0
            },
            {
                "start_time": 50.275,
                "end_time": 51.88409090909091,
                "pitch": 90,
                "velocity": 40,
                "duration": 1.6090909090909093,
                "tempo": 120.0
            },
            {
                "start_time": 51.88409090909091,
                "end_time": 52.084090909090904,
                "pitch": 79,
                "velocity": 40,
                "duration": 0.19999999999999574,
                "tempo": 120.0
            },
            {
                "start_time": 50.87272727272727,
                "end_time": 52.48409090909091,
                "pitch": 88,
                "velocity": 40,
                "duration": 1.6113636363636417,
                "tempo": 120.0
            },
            {
                "start_time": 52.48409090909091,
                "end_time": 52.684090909090905,
                "pitch": 79,
                "velocity": 40,
                "duration": 0.19999999999999574,
                "tempo": 120.0
            },
            {
                "start_time": 51.67727272727272,
                "end_time": 53.28636363636363,
                "pitch": 72,
                "velocity": 40,
                "duration": 1.6090909090909093,
                "tempo": 120.0
            },
            {
                "start_time": 53.086363636363636,
                "end_time": 53.28636363636363,
                "pitch": 72,
                "velocity": 40,
                "duration": 0.19999999999999574,
                "tempo": 120.0
            },
            {
                "start_time": 53.086363636363636,
                "end_time": 53.48863636363636,
                "pitch": 77,
                "velocity": 40,
                "duration": 0.4022727272727238,
                "tempo": 120.0
            },
            {
                "start_time": 53.28636363636363,
                "end_time": 53.48863636363636,
                "pitch": 77,
                "velocity": 40,
                "duration": 0.20227272727272805,
                "tempo": 120.0
            },
            {
                "start_time": 51.88409090909091,
                "end_time": 53.48863636363636,
                "pitch": 90,
                "velocity": 40,
                "duration": 1.6045454545454518,
                "tempo": 120.0
            },
            {
                "start_time": 53.48863636363636,
                "end_time": 53.68863636363636,
                "pitch": 79,
                "velocity": 40,
                "duration": 0.20000000000000284,
                "tempo": 120.0
            },
            {
                "start_time": 52.48409090909091,
                "end_time": 54.08863636363636,
                "pitch": 88,
                "velocity": 40,
                "duration": 1.6045454545454518,
                "tempo": 120.0
            },
            {
                "start_time": 54.08863636363636,
                "end_time": 54.288636363636364,
                "pitch": 79,
                "velocity": 40,
                "duration": 0.20000000000000284,
                "tempo": 120.0
            },
            {
                "start_time": 53.28636363636363,
                "end_time": 54.89090909090909,
                "pitch": 72,
                "velocity": 40,
                "duration": 1.604545454545459,
                "tempo": 120.0
            },
            {
                "start_time": 54.69090909090909,
                "end_time": 54.89090909090909,
                "pitch": 72,
                "velocity": 40,
                "duration": 0.20000000000000284,
                "tempo": 120.0
            },
            {
                "start_time": 54.69090909090909,
                "end_time": 55.090909090909086,
                "pitch": 77,
                "velocity": 40,
                "duration": 0.3999999999999986,
                "tempo": 120.0
            },
            {
                "start_time": 54.89090909090909,
                "end_time": 55.090909090909086,
                "pitch": 77,
                "velocity": 40,
                "duration": 0.19999999999999574,
                "tempo": 120.0
            },
            {
                "start_time": 53.48863636363636,
                "end_time": 55.090909090909086,
                "pitch": 90,
                "velocity": 40,
                "duration": 1.6022727272727266,
                "tempo": 120.0
            },
            {
                "start_time": 55.090909090909086,
                "end_time": 55.29090909090909,
                "pitch": 79,
                "velocity": 40,
                "duration": 0.20000000000000284,
                "tempo": 120.0
            },
            {
                "start_time": 54.08863636363636,
                "end_time": 55.69318181818181,
                "pitch": 88,
                "velocity": 40,
                "duration": 1.6045454545454518,
                "tempo": 120.0
            },
            {
                "start_time": 55.69318181818181,
                "end_time": 55.893181818181816,
                "pitch": 79,
                "velocity": 40,
                "duration": 0.20000000000000284,
                "tempo": 120.0
            },
            {
                "start_time": 54.89090909090909,
                "end_time": 56.49545454545454,
                "pitch": 72,
                "velocity": 40,
                "duration": 1.6045454545454518,
                "tempo": 120.0
            },
            {
                "start_time": 56.29545454545454,
                "end_time": 56.49545454545454,
                "pitch": 72,
                "velocity": 40,
                "duration": 0.20000000000000284,
                "tempo": 120.0
            },
            {
                "start_time": 56.29545454545454,
                "end_time": 56.695454545454545,
                "pitch": 77,
                "velocity": 40,
                "duration": 0.4000000000000057,
                "tempo": 120.0
            },
            {
                "start_time": 56.49545454545454,
                "end_time": 56.695454545454545,
                "pitch": 77,
                "velocity": 40,
                "duration": 0.20000000000000284,
                "tempo": 120.0
            },
            {
                "start_time": 55.090909090909086,
                "end_time": 56.695454545454545,
                "pitch": 90,
                "velocity": 40,
                "duration": 1.604545454545459,
                "tempo": 120.0
            },
            {
                "start_time": 56.695454545454545,
                "end_time": 56.89545454545454,
                "pitch": 79,
                "velocity": 40,
                "duration": 0.19999999999999574,
                "tempo": 120.0
            },
            {
                "start_time": 55.69318181818181,
                "end_time": 57.29772727272727,
                "pitch": 88,
                "velocity": 40,
                "duration": 1.604545454545459,
                "tempo": 120.0
            },
            {
                "start_time": 57.29772727272727,
                "end_time": 57.49772727272727,
                "pitch": 79,
                "velocity": 40,
                "duration": 0.19999999999999574,
                "tempo": 120.0
            },
            {
                "start_time": 56.49545454545454,
                "end_time": 58.10454545454545,
                "pitch": 72,
                "velocity": 40,
                "duration": 1.6090909090909093,
                "tempo": 120.0
            },
            {
                "start_time": 57.9,
                "end_time": 58.10454545454545,
                "pitch": 72,
                "velocity": 40,
                "duration": 0.20454545454545325,
                "tempo": 120.0
            },
            {
                "start_time": 57.9,
                "end_time": 58.31136363636363,
                "pitch": 77,
                "velocity": 40,
                "duration": 0.4113636363636317,
                "tempo": 120.0
            },
            {
                "start_time": 58.10454545454545,
                "end_time": 58.31136363636363,
                "pitch": 77,
                "velocity": 40,
                "duration": 0.20681818181817846,
                "tempo": 120.0
            },
            {
                "start_time": 56.695454545454545,
                "end_time": 58.31136363636363,
                "pitch": 90,
                "velocity": 40,
                "duration": 1.615909090909085,
                "tempo": 120.0
            },
            {
                "start_time": 58.31136363636363,
                "end_time": 58.51136363636363,
                "pitch": 79,
                "velocity": 40,
                "duration": 0.20000000000000284,
                "tempo": 120.0
            },
            {
                "start_time": 57.29772727272727,
                "end_time": 58.91136363636363,
                "pitch": 88,
                "velocity": 40,
                "duration": 1.6136363636363598,
                "tempo": 120.0
            },
            {
                "start_time": 58.91136363636363,
                "end_time": 59.10681818181818,
                "pitch": 79,
                "velocity": 40,
                "duration": 0.19545454545454533,
                "tempo": 120.0
            },
            {
                "start_time": 58.10454545454545,
                "end_time": 59.71818181818182,
                "pitch": 72,
                "velocity": 40,
                "duration": 1.6136363636363669,
                "tempo": 120.0
            },
            {
                "start_time": 59.518181818181816,
                "end_time": 59.71818181818182,
                "pitch": 72,
                "velocity": 40,
                "duration": 0.20000000000000284,
                "tempo": 120.0
            },
            {
                "start_time": 59.518181818181816,
                "end_time": 59.918181818181814,
                "pitch": 77,
                "velocity": 40,
                "duration": 0.3999999999999986,
                "tempo": 120.0
            },
            {
                "start_time": 59.71818181818182,
                "end_time": 59.918181818181814,
                "pitch": 77,
                "velocity": 40,
                "duration": 0.19999999999999574,
                "tempo": 120.0
            },
            {
                "start_time": 58.31136363636363,
                "end_time": 59.918181818181814,
                "pitch": 90,
                "velocity": 40,
                "duration": 1.6068181818181841,
                "tempo": 120.0
            },
            {
                "start_time": 59.918181818181814,
                "end_time": 60.11818181818182,
                "pitch": 79,
                "velocity": 40,
                "duration": 0.20000000000000284,
                "tempo": 120.0
            },
            {
                "start_time": 58.91136363636363,
                "end_time": 60.52045454545454,
                "pitch": 88,
                "velocity": 40,
                "duration": 1.6090909090909093,
                "tempo": 120.0
            },
            {
                "start_time": 60.52045454545454,
                "end_time": 60.72272727272727,
                "pitch": 79,
                "velocity": 40,
                "duration": 0.20227272727272805,
                "tempo": 120.0
            },
            {
                "start_time": 59.71818181818182,
                "end_time": 61.32272727272727,
                "pitch": 72,
                "velocity": 40,
                "duration": 1.6045454545454518,
                "tempo": 120.0
            },
            {
                "start_time": 61.12272727272727,
                "end_time": 61.32272727272727,
                "pitch": 72,
                "velocity": 40,
                "duration": 0.20000000000000284,
                "tempo": 120.0
            },
            {
                "start_time": 61.12272727272727,
                "end_time": 61.522727272727266,
                "pitch": 77,
                "velocity": 40,
                "duration": 0.3999999999999986,
                "tempo": 120.0
            },
            {
                "start_time": 61.32272727272727,
                "end_time": 61.522727272727266,
                "pitch": 77,
                "velocity": 40,
                "duration": 0.19999999999999574,
                "tempo": 120.0
            },
            {
                "start_time": 59.918181818181814,
                "end_time": 61.522727272727266,
                "pitch": 90,
                "velocity": 40,
                "duration": 1.6045454545454518,
                "tempo": 120.0
            },
            {
                "start_time": 61.522727272727266,
                "end_time": 61.72272727272727,
                "pitch": 79,
                "velocity": 40,
                "duration": 0.20000000000000284,
                "tempo": 120.0
            },
            {
                "start_time": 60.52045454545454,
                "end_time": 62.125,
                "pitch": 88,
                "velocity": 40,
                "duration": 1.604545454545459,
                "tempo": 120.0
            },
            {
                "start_time": 62.125,
                "end_time": 62.324999999999996,
                "pitch": 79,
                "velocity": 40,
                "duration": 0.19999999999999574,
                "tempo": 120.0
            },
            {
                "start_time": 61.32272727272727,
                "end_time": 62.92727272727272,
                "pitch": 72,
                "velocity": 40,
                "duration": 1.6045454545454518,
                "tempo": 120.0
            },
            {
                "start_time": 62.72727272727273,
                "end_time": 62.92727272727272,
                "pitch": 72,
                "velocity": 40,
                "duration": 0.19999999999999574,
                "tempo": 120.0
            },
            {
                "start_time": 62.92727272727272,
                "end_time": 62.929545454545455,
                "pitch": 72,
                "velocity": 40,
                "duration": 0.002272727272732311,
                "tempo": 120.0
            },
            {
                "start_time": 62.72727272727273,
                "end_time": 63.127272727272725,
                "pitch": 77,
                "velocity": 40,
                "duration": 0.3999999999999986,
                "tempo": 120.0
            },
            {
                "start_time": 62.929545454545455,
                "end_time": 63.127272727272725,
                "pitch": 77,
                "velocity": 40,
                "duration": 0.19772727272727053,
                "tempo": 120.0
            },
            {
                "start_time": 61.522727272727266,
                "end_time": 63.12954545454545,
                "pitch": 90,
                "velocity": 40,
                "duration": 1.6068181818181841,
                "tempo": 120.0
            },
            {
                "start_time": 63.127272727272725,
                "end_time": 63.12954545454545,
                "pitch": 90,
                "velocity": 40,
                "duration": 0.0022727272727252057,
                "tempo": 120.0
            },
            {
                "start_time": 63.12954545454545,
                "end_time": 63.32954545454545,
                "pitch": 79,
                "velocity": 40,
                "duration": 0.20000000000000284,
                "tempo": 120.0
            },
            {
                "start_time": 62.125,
                "end_time": 63.72954545454545,
                "pitch": 88,
                "velocity": 40,
                "duration": 1.6045454545454518,
                "tempo": 120.0
            },
            {
                "start_time": 63.72954545454545,
                "end_time": 63.929545454545455,
                "pitch": 79,
                "velocity": 40,
                "duration": 0.20000000000000284,
                "tempo": 120.0
            },
            {
                "start_time": 64.32954545454545,
                "end_time": 64.53181818181818,
                "pitch": 72,
                "velocity": 40,
                "duration": 0.20227272727272805,
                "tempo": 120.0
            },
            {
                "start_time": 64.32954545454545,
                "end_time": 64.73409090909091,
                "pitch": 77,
                "velocity": 40,
                "duration": 0.4045454545454561,
                "tempo": 120.0
            },
            {
                "start_time": 64.53181818181818,
                "end_time": 64.73409090909091,
                "pitch": 77,
                "velocity": 40,
                "duration": 0.20227272727272805,
                "tempo": 120.0
            },
            {
                "start_time": 64.73409090909091,
                "end_time": 64.93863636363636,
                "pitch": 79,
                "velocity": 40,
                "duration": 0.20454545454545325,
                "tempo": 120.0
            },
            {
                "start_time": 63.72954545454545,
                "end_time": 65.34545454545454,
                "pitch": 88,
                "velocity": 40,
                "duration": 1.615909090909092,
                "tempo": 120.0
            },
            {
                "start_time": 65.34545454545454,
                "end_time": 65.54772727272727,
                "pitch": 79,
                "velocity": 40,
                "duration": 0.20227272727272805,
                "tempo": 120.0
            },
            {
                "start_time": 64.53181818181818,
                "end_time": 66.14545454545454,
                "pitch": 72,
                "velocity": 40,
                "duration": 1.6136363636363598,
                "tempo": 120.0
            },
            {
                "start_time": 65.94090909090909,
                "end_time": 66.14545454545454,
                "pitch": 72,
                "velocity": 40,
                "duration": 0.20454545454545325,
                "tempo": 120.0
            },
            {
                "start_time": 65.94090909090909,
                "end_time": 66.35227272727272,
                "pitch": 77,
                "velocity": 40,
                "duration": 0.4113636363636317,
                "tempo": 120.0
            },
            {
                "start_time": 66.14545454545454,
                "end_time": 66.35227272727272,
                "pitch": 77,
                "velocity": 40,
                "duration": 0.20681818181817846,
                "tempo": 120.0
            },
            {
                "start_time": 64.73409090909091,
                "end_time": 66.35227272727272,
                "pitch": 90,
                "velocity": 40,
                "duration": 1.6181818181818102,
                "tempo": 120.0
            },
            {
                "start_time": 66.35227272727272,
                "end_time": 66.55227272727272,
                "pitch": 79,
                "velocity": 40,
                "duration": 0.20000000000000284,
                "tempo": 120.0
            },
            {
                "start_time": 65.34545454545454,
                "end_time": 66.95454545454545,
                "pitch": 88,
                "velocity": 40,
                "duration": 1.6090909090909093,
                "tempo": 120.0
            },
            {
                "start_time": 66.95454545454545,
                "end_time": 67.15454545454546,
                "pitch": 79,
                "velocity": 40,
                "duration": 0.20000000000000284,
                "tempo": 120.0
            },
            {
                "start_time": 66.14545454545454,
                "end_time": 67.7590909090909,
                "pitch": 72,
                "velocity": 40,
                "duration": 1.6136363636363598,
                "tempo": 120.0
            },
            {
                "start_time": 67.55909090909091,
                "end_time": 67.7590909090909,
                "pitch": 72,
                "velocity": 40,
                "duration": 0.19999999999998863,
                "tempo": 120.0
            },
            {
                "start_time": 67.55909090909091,
                "end_time": 67.9590909090909,
                "pitch": 77,
                "velocity": 40,
                "duration": 0.3999999999999915,
                "tempo": 120.0
            },
            {
                "start_time": 67.7590909090909,
                "end_time": 67.9590909090909,
                "pitch": 77,
                "velocity": 40,
                "duration": 0.20000000000000284,
                "tempo": 120.0
            },
            {
                "start_time": 66.35227272727272,
                "end_time": 67.9590909090909,
                "pitch": 90,
                "velocity": 40,
                "duration": 1.6068181818181841,
                "tempo": 120.0
            },
            {
                "start_time": 67.9590909090909,
                "end_time": 68.16136363636363,
                "pitch": 79,
                "velocity": 40,
                "duration": 0.20227272727272805,
                "tempo": 120.0
            },
            {
                "start_time": 66.95454545454545,
                "end_time": 68.56363636363636,
                "pitch": 88,
                "velocity": 40,
                "duration": 1.6090909090909093,
                "tempo": 120.0
            },
            {
                "start_time": 68.56363636363636,
                "end_time": 68.76363636363637,
                "pitch": 79,
                "velocity": 40,
                "duration": 0.20000000000000284,
                "tempo": 120.0
            },
            {
                "start_time": 67.7590909090909,
                "end_time": 69.36818181818181,
                "pitch": 72,
                "velocity": 40,
                "duration": 1.6090909090909093,
                "tempo": 120.0
            },
            {
                "start_time": 69.16818181818182,
                "end_time": 69.36818181818181,
                "pitch": 72,
                "velocity": 40,
                "duration": 0.19999999999998863,
                "tempo": 120.0
            },
            {
                "start_time": 69.16818181818182,
                "end_time": 69.57045454545454,
                "pitch": 77,
                "velocity": 40,
                "duration": 0.4022727272727167,
                "tempo": 120.0
            },
            {
                "start_time": 69.36818181818181,
                "end_time": 69.57045454545454,
                "pitch": 77,
                "velocity": 40,
                "duration": 0.20227272727272805,
                "tempo": 120.0
            },
            {
                "start_time": 67.9590909090909,
                "end_time": 69.57045454545454,
                "pitch": 90,
                "velocity": 40,
                "duration": 1.6113636363636346,
                "tempo": 120.0
            },
            {
                "start_time": 69.57045454545454,
                "end_time": 69.77045454545454,
                "pitch": 79,
                "velocity": 40,
                "duration": 0.20000000000000284,
                "tempo": 120.0
            },
            {
                "start_time": 68.56363636363636,
                "end_time": 70.17272727272727,
                "pitch": 88,
                "velocity": 40,
                "duration": 1.6090909090909093,
                "tempo": 120.0
            },
            {
                "start_time": 70.17272727272727,
                "end_time": 70.37272727272727,
                "pitch": 79,
                "velocity": 40,
                "duration": 0.20000000000000284,
                "tempo": 120.0
            },
            {
                "start_time": 69.36818181818181,
                "end_time": 70.975,
                "pitch": 72,
                "velocity": 40,
                "duration": 1.6068181818181841,
                "tempo": 120.0
            },
            {
                "start_time": 70.77499999999999,
                "end_time": 70.975,
                "pitch": 72,
                "velocity": 40,
                "duration": 0.20000000000000284,
                "tempo": 120.0
            },
            {
                "start_time": 70.77499999999999,
                "end_time": 71.17727272727272,
                "pitch": 77,
                "velocity": 40,
                "duration": 0.4022727272727309,
                "tempo": 120.0
            },
            {
                "start_time": 70.975,
                "end_time": 71.17727272727272,
                "pitch": 77,
                "velocity": 40,
                "duration": 0.20227272727272805,
                "tempo": 120.0
            },
            {
                "start_time": 69.57045454545454,
                "end_time": 71.17727272727272,
                "pitch": 90,
                "velocity": 40,
                "duration": 1.6068181818181841,
                "tempo": 120.0
            },
            {
                "start_time": 71.17727272727272,
                "end_time": 71.37954545454545,
                "pitch": 79,
                "velocity": 40,
                "duration": 0.20227272727272805,
                "tempo": 120.0
            }
        ],
        "French Horn": [
            {
                "start_time": 0.00909090909090909,
                "end_time": 1.609090909090909,
                "pitch": 59,
                "velocity": 25,
                "duration": 1.5999999999999999,
                "tempo": 120.0
            }
        ],
        "Church Organ": [
            {
                "start_time": 1.8136363636363635,
                "end_time": 2.018181818181818,
                "pitch": 64,
                "velocity": 32,
                "duration": 0.20454545454545459,
                "tempo": 120.0
            },
            {
                "start_time": 2.018181818181818,
                "end_time": 2.2181818181818183,
                "pitch": 55,
                "velocity": 32,
                "duration": 0.20000000000000018,
                "tempo": 120.0
            },
            {
                "start_time": 2.2181818181818183,
                "end_time": 2.418181818181818,
                "pitch": 60,
                "velocity": 32,
                "duration": 0.19999999999999973,
                "tempo": 120.0
            },
            {
                "start_time": 2.418181818181818,
                "end_time": 3.4227272727272724,
                "pitch": 64,
                "velocity": 32,
                "duration": 1.0045454545454544,
                "tempo": 120.0
            },
            {
                "start_time": 3.4227272727272724,
                "end_time": 3.6227272727272726,
                "pitch": 64,
                "velocity": 32,
                "duration": 0.20000000000000018,
                "tempo": 120.0
            },
            {
                "start_time": 3.6227272727272726,
                "end_time": 3.8227272727272728,
                "pitch": 57,
                "velocity": 32,
                "duration": 0.20000000000000018,
                "tempo": 120.0
            },
            {
                "start_time": 2.418181818181818,
                "end_time": 4.0249999999999995,
                "pitch": 60,
                "velocity": 32,
                "duration": 1.6068181818181815,
                "tempo": 120.0
            },
            {
                "start_time": 3.8249999999999997,
                "end_time": 4.0249999999999995,
                "pitch": 60,
                "velocity": 32,
                "duration": 0.19999999999999973,
                "tempo": 120.0
            },
            {
                "start_time": 2.018181818181818,
                "end_time": 5.029545454545454,
                "pitch": 65,
                "velocity": 32,
                "duration": 3.0113636363636362,
                "tempo": 120.0
            },
            {
                "start_time": 4.0249999999999995,
                "end_time": 5.029545454545454,
                "pitch": 65,
                "velocity": 32,
                "duration": 1.0045454545454549,
                "tempo": 120.0
            },
            {
                "start_time": 5.227272727272727,
                "end_time": 5.327272727272727,
                "pitch": 65,
                "velocity": 32,
                "duration": 0.10000000000000053,
                "tempo": 120.0
            },
            {
                "start_time": 5.327272727272727,
                "end_time": 5.429545454545455,
                "pitch": 64,
                "velocity": 32,
                "duration": 0.10227272727272751,
                "tempo": 120.0
            },
            {
                "start_time": 5.429545454545455,
                "end_time": 5.529545454545454,
                "pitch": 67,
                "velocity": 32,
                "duration": 0.09999999999999964,
                "tempo": 120.0
            },
            {
                "start_time": 2.2181818181818183,
                "end_time": 5.631818181818182,
                "pitch": 0,
                "velocity": 32,
                "duration": 3.4136363636363636,
                "tempo": 120.0
            },
            {
                "start_time": 5.631818181818182,
                "end_time": 5.7340909090909085,
                "pitch": 64,
                "velocity": 32,
                "duration": 0.10227272727272663,
                "tempo": 120.0
            },
            {
                "start_time": 5.7340909090909085,
                "end_time": 5.836363636363636,
                "pitch": 64,
                "velocity": 32,
                "duration": 0.10227272727272751,
                "tempo": 120.0
            },
            {
                "start_time": 5.429545454545455,
                "end_time": 5.836363636363636,
                "pitch": 78,
                "velocity": 32,
                "duration": 0.4068181818181813,
                "tempo": 120.0
            },
            {
                "start_time": 5.631818181818182,
                "end_time": 6.243181818181818,
                "pitch": 0,
                "velocity": 32,
                "duration": 0.6113636363636363,
                "tempo": 120.0
            },
            {
                "start_time": 5.836363636363636,
                "end_time": 6.243181818181818,
                "pitch": 67,
                "velocity": 32,
                "duration": 0.4068181818181822,
                "tempo": 120.0
            },
            {
                "start_time": 6.243181818181818,
                "end_time": 6.293181818181818,
                "pitch": 67,
                "velocity": 32,
                "duration": 0.04999999999999982,
                "tempo": 120.0
            },
            {
                "start_time": 6.293181818181818,
                "end_time": 6.375,
                "pitch": 67,
                "velocity": 32,
                "duration": 0.08181818181818201,
                "tempo": 120.0
            },
            {
                "start_time": 6.243181818181818,
                "end_time": 6.377272727272727,
                "pitch": 0,
                "velocity": 32,
                "duration": 0.13409090909090882,
                "tempo": 120.0
            },
            {
                "start_time": 6.375,
                "end_time": 6.377272727272727,
                "pitch": 0,
                "velocity": 32,
                "duration": 0.002272727272726982,
                "tempo": 120.0
            },
            {
                "start_time": 6.377272727272727,
                "end_time": 6.427272727272727,
                "pitch": 67,
                "velocity": 32,
                "duration": 0.04999999999999982,
                "tempo": 120.0
            },
            {
                "start_time": 6.293181818181818,
                "end_time": 6.427272727272727,
                "pitch": 79,
                "velocity": 32,
                "duration": 0.13409090909090882,
                "tempo": 120.0
            },
            {
                "start_time": 6.427272727272727,
                "end_time": 6.509090909090909,
                "pitch": 67,
                "velocity": 32,
                "duration": 0.08181818181818201,
                "tempo": 120.0
            },
            {
                "start_time": 6.509090909090909,
                "end_time": 6.561363636363636,
                "pitch": 67,
                "velocity": 32,
                "duration": 0.052272727272726804,
                "tempo": 120.0
            },
            {
                "start_time": 6.427272727272727,
                "end_time": 6.561363636363636,
                "pitch": 79,
                "velocity": 32,
                "duration": 0.13409090909090882,
                "tempo": 120.0
            },
            {
                "start_time": 6.561363636363636,
                "end_time": 6.6454545454545455,
                "pitch": 67,
                "velocity": 32,
                "duration": 0.08409090909090988,
                "tempo": 120.0
            },
            {
                "start_time": 6.509090909090909,
                "end_time": 6.847727272727273,
                "pitch": 0,
                "velocity": 32,
                "duration": 0.33863636363636385,
                "tempo": 120.0
            },
            {
                "start_time": 6.847727272727273,
                "end_time": 6.947727272727272,
                "pitch": 76,
                "velocity": 32,
                "duration": 0.09999999999999964,
                "tempo": 120.0
            },
            {
                "start_time": 6.947727272727272,
                "end_time": 7.047727272727272,
                "pitch": 76,
                "velocity": 32,
                "duration": 0.09999999999999964,
                "tempo": 120.0
            },
            {
                "start_time": 6.561363636363636,
                "end_time": 7.1477272727272725,
                "pitch": 79,
                "velocity": 32,
                "duration": 0.5863636363636369,
                "tempo": 120.0
            },
            {
                "start_time": 7.047727272727272,
                "end_time": 7.1477272727272725,
                "pitch": 79,
                "velocity": 32,
                "duration": 0.10000000000000053,
                "tempo": 120.0
            },
            {
                "start_time": 6.847727272727273,
                "end_time": 7.25,
                "pitch": 0,
                "velocity": 32,
                "duration": 0.40227272727272734,
                "tempo": 120.0
            },
            {
                "start_time": 7.25,
                "end_time": 7.35,
                "pitch": 76,
                "velocity": 32,
                "duration": 0.09999999999999964,
                "tempo": 120.0
            },
            {
                "start_time": 7.35,
                "end_time": 7.449999999999999,
                "pitch": 76,
                "velocity": 32,
                "duration": 0.09999999999999964,
                "tempo": 120.0
            },
            {
                "start_time": 7.047727272727272,
                "end_time": 7.449999999999999,
                "pitch": 90,
                "velocity": 32,
                "duration": 0.40227272727272734,
                "tempo": 120.0
            },
            {
                "start_time": 7.25,
                "end_time": 7.852272727272727,
                "pitch": 0,
                "velocity": 32,
                "duration": 0.6022727272727266,
                "tempo": 120.0
            },
            {
                "start_time": 7.449999999999999,
                "end_time": 7.852272727272727,
                "pitch": 79,
                "velocity": 32,
                "duration": 0.40227272727272734,
                "tempo": 120.0
            },
            {
                "start_time": 7.852272727272727,
                "end_time": 7.9022727272727264,
                "pitch": 79,
                "velocity": 32,
                "duration": 0.04999999999999982,
                "tempo": 120.0
            },
            {
                "start_time": 7.852272727272727,
                "end_time": 7.986363636363636,
                "pitch": 0,
                "velocity": 32,
                "duration": 0.1340909090909097,
                "tempo": 120.0
            },
            {
                "start_time": 7.9022727272727264,
                "end_time": 7.986363636363636,
                "pitch": 79,
                "velocity": 32,
                "duration": 0.08409090909090988,
                "tempo": 120.0
            },
            {
                "start_time": 7.986363636363636,
                "end_time": 8.036363636363635,
                "pitch": 79,
                "velocity": 32,
                "duration": 0.049999999999998934,
                "tempo": 120.0
            },
            {
                "start_time": 7.9022727272727264,
                "end_time": 8.036363636363635,
                "pitch": 91,
                "velocity": 32,
                "duration": 0.13409090909090882,
                "tempo": 120.0
            },
            {
                "start_time": 8.036363636363635,
                "end_time": 8.118181818181817,
                "pitch": 79,
                "velocity": 32,
                "duration": 0.08181818181818201,
                "tempo": 120.0
            },
            {
                "start_time": 7.986363636363636,
                "end_time": 8.120454545454544,
                "pitch": 0,
                "velocity": 32,
                "duration": 0.13409090909090793,
                "tempo": 120.0
            },
            {
                "start_time": 8.118181818181817,
                "end_time": 8.120454545454544,
                "pitch": 0,
                "velocity": 32,
                "duration": 0.002272727272726982,
                "tempo": 120.0
            },
            {
                "start_time": 8.120454545454544,
                "end_time": 8.170454545454545,
                "pitch": 79,
                "velocity": 32,
                "duration": 0.05000000000000071,
                "tempo": 120.0
            },
            {
                "start_time": 8.036363636363635,
                "end_time": 8.170454545454545,
                "pitch": 91,
                "velocity": 32,
                "duration": 0.1340909090909097,
                "tempo": 120.0
            },
            {
                "start_time": 8.170454545454545,
                "end_time": 8.254545454545454,
                "pitch": 79,
                "velocity": 32,
                "duration": 0.084090909090909,
                "tempo": 120.0
            },
            {
                "start_time": 8.254545454545454,
                "end_time": 8.454545454545453,
                "pitch": 64,
                "velocity": 32,
                "duration": 0.1999999999999993,
                "tempo": 120.0
            },
            {
                "start_time": 8.254545454545454,
                "end_time": 8.656818181818181,
                "pitch": 0,
                "velocity": 32,
                "duration": 0.40227272727272734,
                "tempo": 120.0
            },
            {
                "start_time": 8.454545454545453,
                "end_time": 8.656818181818181,
                "pitch": 55,
                "velocity": 32,
                "duration": 0.20227272727272805,
                "tempo": 120.0
            },
            {
                "start_time": 4.0249999999999995,
                "end_time": 8.85681818181818,
                "pitch": 60,
                "velocity": 32,
                "duration": 4.831818181818181,
                "tempo": 120.0
            },
            {
                "start_time": 8.656818181818181,
                "end_time": 8.85681818181818,
                "pitch": 60,
                "velocity": 32,
                "duration": 0.1999999999999993,
                "tempo": 120.0
            },
            {
                "start_time": 8.85681818181818,
                "end_time": 9.863636363636363,
                "pitch": 64,
                "velocity": 32,
                "duration": 1.0068181818181827,
                "tempo": 120.0
            },
            {
                "start_time": 9.863636363636363,
                "end_time": 10.063636363636363,
                "pitch": 64,
                "velocity": 32,
                "duration": 0.1999999999999993,
                "tempo": 120.0
            },
            {
                "start_time": 3.6227272727272726,
                "end_time": 10.06590909090909,
                "pitch": 66,
                "velocity": 32,
                "duration": 6.443181818181817,
                "tempo": 120.0
            },
            {
                "start_time": 3.8249999999999997,
                "end_time": 10.26590909090909,
                "pitch": 30,
                "velocity": 32,
                "duration": 6.440909090909091,
                "tempo": 120.0
            },
            {
                "start_time": 10.06590909090909,
                "end_time": 10.26590909090909,
                "pitch": 57,
                "velocity": 32,
                "duration": 0.20000000000000107,
                "tempo": 120.0
            },
            {
                "start_time": 8.85681818181818,
                "end_time": 10.468181818181817,
                "pitch": 60,
                "velocity": 32,
                "duration": 1.6113636363636363,
                "tempo": 120.0
            },
            {
                "start_time": 10.26590909090909,
                "end_time": 10.468181818181817,
                "pitch": 60,
                "velocity": 32,
                "duration": 0.20227272727272627,
                "tempo": 120.0
            },
            {
                "start_time": 8.454545454545453,
                "end_time": 11.477272727272727,
                "pitch": 65,
                "velocity": 32,
                "duration": 3.0227272727272734,
                "tempo": 120.0
            },
            {
                "start_time": 10.468181818181817,
                "end_time": 11.477272727272727,
                "pitch": 65,
                "velocity": 32,
                "duration": 1.0090909090909097,
                "tempo": 120.0
            },
            {
                "start_time": 11.677272727272726,
                "end_time": 11.777272727272727,
                "pitch": 65,
                "velocity": 32,
                "duration": 0.10000000000000142,
                "tempo": 120.0
            },
            {
                "start_time": 11.777272727272727,
                "end_time": 11.877272727272727,
                "pitch": 64,
                "velocity": 32,
                "duration": 0.09999999999999964,
                "tempo": 120.0
            },
            {
                "start_time": 5.836363636363636,
                "end_time": 11.877272727272727,
                "pitch": 78,
                "velocity": 32,
                "duration": 6.040909090909091,
                "tempo": 120.0
            },
            {
                "start_time": 11.877272727272727,
                "end_time": 11.977272727272727,
                "pitch": 67,
                "velocity": 32,
                "duration": 0.09999999999999964,
                "tempo": 120.0
            },
            {
                "start_time": 8.656818181818181,
                "end_time": 12.079545454545453,
                "pitch": 0,
                "velocity": 32,
                "duration": 3.422727272727272,
                "tempo": 120.0
            },
            {
                "start_time": 12.079545454545453,
                "end_time": 12.177272727272726,
                "pitch": 64,
                "velocity": 32,
                "duration": 0.09772727272727266,
                "tempo": 120.0
            },
            {
                "start_time": 12.177272727272726,
                "end_time": 12.279545454545454,
                "pitch": 64,
                "velocity": 32,
                "duration": 0.1022727272727284,
                "tempo": 120.0
            },
            {
                "start_time": 11.877272727272727,
                "end_time": 12.279545454545454,
                "pitch": 78,
                "velocity": 32,
                "duration": 0.40227272727272734,
                "tempo": 120.0
            },
            {
                "start_time": 12.079545454545453,
                "end_time": 12.681818181818182,
                "pitch": 0,
                "velocity": 32,
                "duration": 0.6022727272727284,
                "tempo": 120.0
            },
            {
                "start_time": 12.279545454545454,
                "end_time": 12.681818181818182,
                "pitch": 67,
                "velocity": 32,
                "duration": 0.40227272727272734,
                "tempo": 120.0
            },
            {
                "start_time": 12.681818181818182,
                "end_time": 12.73181818181818,
                "pitch": 67,
                "velocity": 32,
                "duration": 0.049999999999998934,
                "tempo": 120.0
            },
            {
                "start_time": 12.681818181818182,
                "end_time": 12.81590909090909,
                "pitch": 0,
                "velocity": 32,
                "duration": 0.13409090909090793,
                "tempo": 120.0
            },
            {
                "start_time": 12.73181818181818,
                "end_time": 12.81590909090909,
                "pitch": 67,
                "velocity": 32,
                "duration": 0.084090909090909,
                "tempo": 120.0
            },
            {
                "start_time": 12.81590909090909,
                "end_time": 12.86590909090909,
                "pitch": 67,
                "velocity": 32,
                "duration": 0.05000000000000071,
                "tempo": 120.0
            },
            {
                "start_time": 12.73181818181818,
                "end_time": 12.86590909090909,
                "pitch": 79,
                "velocity": 32,
                "duration": 0.1340909090909097,
                "tempo": 120.0
            },
            {
                "start_time": 12.81590909090909,
                "end_time": 12.95,
                "pitch": 0,
                "velocity": 32,
                "duration": 0.1340909090909097,
                "tempo": 120.0
            },
            {
                "start_time": 12.86590909090909,
                "end_time": 12.95,
                "pitch": 67,
                "velocity": 32,
                "duration": 0.084090909090909,
                "tempo": 120.0
            },
            {
                "start_time": 12.95,
                "end_time": 13.002272727272727,
                "pitch": 67,
                "velocity": 32,
                "duration": 0.05227272727272769,
                "tempo": 120.0
            },
            {
                "start_time": 12.86590909090909,
                "end_time": 13.002272727272727,
                "pitch": 79,
                "velocity": 32,
                "duration": 0.1363636363636367,
                "tempo": 120.0
            },
            {
                "start_time": 13.002272727272727,
                "end_time": 13.086363636363636,
                "pitch": 67,
                "velocity": 32,
                "duration": 0.084090909090909,
                "tempo": 120.0
            },
            {
                "start_time": 12.95,
                "end_time": 13.288636363636362,
                "pitch": 0,
                "velocity": 32,
                "duration": 0.33863636363636296,
                "tempo": 120.0
            },
            {
                "start_time": 13.288636363636362,
                "end_time": 13.388636363636364,
                "pitch": 76,
                "velocity": 32,
                "duration": 0.10000000000000142,
                "tempo": 120.0
            },
            {
                "start_time": 13.39090909090909,
                "end_time": 13.493181818181817,
                "pitch": 76,
                "velocity": 32,
                "duration": 0.10227272727272663,
                "tempo": 120.0
            },
            {
                "start_time": 7.449999999999999,
                "end_time": 13.493181818181817,
                "pitch": 90,
                "velocity": 32,
                "duration": 6.043181818181818,
                "tempo": 120.0
            },
            {
                "start_time": 13.002272727272727,
                "end_time": 13.595454545454546,
                "pitch": 79,
                "velocity": 32,
                "duration": 0.5931818181818187,
                "tempo": 120.0
            },
            {
                "start_time": 13.493181818181817,
                "end_time": 13.595454545454546,
                "pitch": 79,
                "velocity": 32,
                "duration": 0.1022727272727284,
                "tempo": 120.0
            },
            {
                "start_time": 13.288636363636362,
                "end_time": 13.7,
                "pitch": 0,
                "velocity": 32,
                "duration": 0.41136363636363704,
                "tempo": 120.0
            },
            {
                "start_time": 13.7,
                "end_time": 13.795454545454545,
                "pitch": 76,
                "velocity": 32,
                "duration": 0.09545454545454568,
                "tempo": 120.0
            },
            {
                "start_time": 13.795454545454545,
                "end_time": 13.895454545454545,
                "pitch": 76,
                "velocity": 32,
                "duration": 0.09999999999999964,
                "tempo": 120.0
            },
            {
                "start_time": 13.493181818181817,
                "end_time": 13.895454545454545,
                "pitch": 90,
                "velocity": 32,
                "duration": 0.40227272727272734,
                "tempo": 120.0
            },
            {
                "start_time": 13.7,
                "end_time": 14.297727272727272,
                "pitch": 0,
                "velocity": 32,
                "duration": 0.5977272727272727,
                "tempo": 120.0
            },
            {
                "start_time": 13.895454545454545,
                "end_time": 14.297727272727272,
                "pitch": 79,
                "velocity": 32,
                "duration": 0.40227272727272734,
                "tempo": 120.0
            },
            {
                "start_time": 14.297727272727272,
                "end_time": 14.347727272727273,
                "pitch": 79,
                "velocity": 32,
                "duration": 0.05000000000000071,
                "tempo": 120.0
            },
            {
                "start_time": 8.170454545454545,
                "end_time": 14.347727272727273,
                "pitch": 91,
                "velocity": 32,
                "duration": 6.177272727272728,
                "tempo": 120.0
            },
            {
                "start_time": 14.297727272727272,
                "end_time": 14.434090909090909,
                "pitch": 0,
                "velocity": 32,
                "duration": 0.1363636363636367,
                "tempo": 120.0
            },
            {
                "start_time": 14.347727272727273,
                "end_time": 14.434090909090909,
                "pitch": 79,
                "velocity": 32,
                "duration": 0.08636363636363598,
                "tempo": 120.0
            },
            {
                "start_time": 14.434090909090909,
                "end_time": 14.484090909090908,
                "pitch": 79,
                "velocity": 32,
                "duration": 0.049999999999998934,
                "tempo": 120.0
            },
            {
                "start_time": 14.347727272727273,
                "end_time": 14.484090909090908,
                "pitch": 91,
                "velocity": 32,
                "duration": 0.1363636363636349,
                "tempo": 120.0
            },
            {
                "start_time": 14.434090909090909,
                "end_time": 14.568181818181818,
                "pitch": 0,
                "velocity": 32,
                "duration": 0.1340909090909097,
                "tempo": 120.0
            },
            {
                "start_time": 14.484090909090908,
                "end_time": 14.568181818181818,
                "pitch": 79,
                "velocity": 32,
                "duration": 0.08409090909091077,
                "tempo": 120.0
            },
            {
                "start_time": 14.568181818181818,
                "end_time": 14.61590909090909,
                "pitch": 79,
                "velocity": 32,
                "duration": 0.04772727272727195,
                "tempo": 120.0
            },
            {
                "start_time": 14.484090909090908,
                "end_time": 14.61590909090909,
                "pitch": 91,
                "velocity": 32,
                "duration": 0.13181818181818272,
                "tempo": 120.0
            },
            {
                "start_time": 14.61590909090909,
                "end_time": 14.7,
                "pitch": 79,
                "velocity": 32,
                "duration": 0.084090909090909,
                "tempo": 120.0
            }
        ],
        "Violin": [
            {
                "start_time": 46.65681818181818,
                "end_time": 48.66136363636363,
                "pitch": 71,
                "velocity": 80,
                "duration": 2.0045454545454504,
                "tempo": 120.0
            },
            {
                "start_time": 48.66136363636363,
                "end_time": 49.06136363636364,
                "pitch": 74,
                "velocity": 80,
                "duration": 0.4000000000000057,
                "tempo": 120.0
            },
            {
                "start_time": 49.06136363636364,
                "end_time": 49.461363636363636,
                "pitch": 76,
                "velocity": 80,
                "duration": 0.3999999999999986,
                "tempo": 120.0
            },
            {
                "start_time": 49.461363636363636,
                "end_time": 49.865909090909085,
                "pitch": 83,
                "velocity": 80,
                "duration": 0.404545454545449,
                "tempo": 120.0
            },
            {
                "start_time": 49.865909090909085,
                "end_time": 51.277272727272724,
                "pitch": 77,
                "velocity": 80,
                "duration": 1.4113636363636388,
                "tempo": 120.0
            },
            {
                "start_time": 51.277272727272724,
                "end_time": 53.086363636363636,
                "pitch": 89,
                "velocity": 80,
                "duration": 1.8090909090909122,
                "tempo": 120.0
            },
            {
                "start_time": 53.086363636363636,
                "end_time": 53.88863636363636,
                "pitch": 77,
                "velocity": 80,
                "duration": 0.8022727272727224,
                "tempo": 120.0
            },
            {
                "start_time": 53.88863636363636,
                "end_time": 54.69090909090909,
                "pitch": 76,
                "velocity": 80,
                "duration": 0.8022727272727295,
                "tempo": 120.0
            },
            {
                "start_time": 49.461363636363636,
                "end_time": 54.69090909090909,
                "pitch": 90,
                "velocity": 80,
                "duration": 5.229545454545452,
                "tempo": 120.0
            },
            {
                "start_time": 54.69090909090909,
                "end_time": 55.375,
                "pitch": 79,
                "velocity": 80,
                "duration": 0.6840909090909122,
                "tempo": 120.0
            },
            {
                "start_time": 55.375,
                "end_time": 55.49545454545454,
                "pitch": 79,
                "velocity": 80,
                "duration": 0.12045454545454248,
                "tempo": 120.0
            },
            {
                "start_time": 55.375,
                "end_time": 55.49545454545454,
                "pitch": 91,
                "velocity": 80,
                "duration": 0.12045454545454248,
                "tempo": 120.0
            },
            {
                "start_time": 55.49545454545454,
                "end_time": 56.29545454545454,
                "pitch": 82,
                "velocity": 80,
                "duration": 0.7999999999999972,
                "tempo": 120.0
            },
            {
                "start_time": 56.29545454545454,
                "end_time": 57.5,
                "pitch": 86,
                "velocity": 80,
                "duration": 1.2045454545454604,
                "tempo": 120.0
            },
            {
                "start_time": 57.5,
                "end_time": 57.699999999999996,
                "pitch": 82,
                "velocity": 80,
                "duration": 0.19999999999999574,
                "tempo": 120.0
            },
            {
                "start_time": 57.699999999999996,
                "end_time": 59.52045454545454,
                "pitch": 77,
                "velocity": 80,
                "duration": 1.8204545454545453,
                "tempo": 120.0
            },
            {
                "start_time": 59.52045454545454,
                "end_time": 61.125,
                "pitch": 77,
                "velocity": 80,
                "duration": 1.604545454545459,
                "tempo": 120.0
            },
            {
                "start_time": 61.125,
                "end_time": 61.80681818181818,
                "pitch": 79,
                "velocity": 80,
                "duration": 0.6818181818181799,
                "tempo": 120.0
            },
            {
                "start_time": 55.49545454545454,
                "end_time": 61.80681818181818,
                "pitch": 91,
                "velocity": 80,
                "duration": 6.311363636363637,
                "tempo": 120.0
            },
            {
                "start_time": 61.80681818181818,
                "end_time": 61.925,
                "pitch": 79,
                "velocity": 80,
                "duration": 0.11818181818181728,
                "tempo": 120.0
            },
            {
                "start_time": 61.80681818181818,
                "end_time": 61.925,
                "pitch": 91,
                "velocity": 80,
                "duration": 0.11818181818181728,
                "tempo": 120.0
            },
            {
                "start_time": 61.925,
                "end_time": 62.72954545454545,
                "pitch": 83,
                "velocity": 80,
                "duration": 0.8045454545454547,
                "tempo": 120.0
            },
            {
                "start_time": 62.72954545454545,
                "end_time": 64.13181818181818,
                "pitch": 83,
                "velocity": 80,
                "duration": 1.4022727272727238,
                "tempo": 120.0
            },
            {
                "start_time": 61.125,
                "end_time": 65.94318181818181,
                "pitch": 89,
                "velocity": 80,
                "duration": 4.818181818181813,
                "tempo": 120.0
            },
            {
                "start_time": 64.13181818181818,
                "end_time": 65.94318181818181,
                "pitch": 89,
                "velocity": 80,
                "duration": 1.8113636363636374,
                "tempo": 120.0
            },
            {
                "start_time": 65.94318181818181,
                "end_time": 66.75227272727273,
                "pitch": 77,
                "velocity": 80,
                "duration": 0.8090909090909122,
                "tempo": 120.0
            },
            {
                "start_time": 66.75454545454545,
                "end_time": 67.55909090909091,
                "pitch": 76,
                "velocity": 80,
                "duration": 0.8045454545454618,
                "tempo": 120.0
            },
            {
                "start_time": 54.69090909090909,
                "end_time": 67.56136363636364,
                "pitch": 90,
                "velocity": 80,
                "duration": 12.87045454545455,
                "tempo": 120.0
            },
            {
                "start_time": 67.56136363636364,
                "end_time": 68.24545454545454,
                "pitch": 79,
                "velocity": 80,
                "duration": 0.684090909090898,
                "tempo": 120.0
            },
            {
                "start_time": 61.925,
                "end_time": 68.24545454545454,
                "pitch": 91,
                "velocity": 80,
                "duration": 6.320454545454538,
                "tempo": 120.0
            },
            {
                "start_time": 68.24545454545454,
                "end_time": 68.36363636363636,
                "pitch": 79,
                "velocity": 80,
                "duration": 0.11818181818182438,
                "tempo": 120.0
            },
            {
                "start_time": 68.24545454545454,
                "end_time": 68.36363636363636,
                "pitch": 91,
                "velocity": 80,
                "duration": 0.11818181818182438,
                "tempo": 120.0
            },
            {
                "start_time": 56.29545454545454,
                "end_time": 69.16818181818182,
                "pitch": 61,
                "velocity": 80,
                "duration": 12.872727272727282,
                "tempo": 120.0
            },
            {
                "start_time": 68.36363636363636,
                "end_time": 69.16818181818182,
                "pitch": 82,
                "velocity": 80,
                "duration": 0.8045454545454618,
                "tempo": 120.0
            },
            {
                "start_time": 69.16818181818182,
                "end_time": 69.97045454545454,
                "pitch": 86,
                "velocity": 80,
                "duration": 0.8022727272727224,
                "tempo": 120.0
            },
            {
                "start_time": 57.5,
                "end_time": 70.77499999999999,
                "pitch": 88,
                "velocity": 80,
                "duration": 13.274999999999991,
                "tempo": 120.0
            },
            {
                "start_time": 69.97045454545454,
                "end_time": 70.77499999999999,
                "pitch": 88,
                "velocity": 80,
                "duration": 0.8045454545454476,
                "tempo": 120.0
            },
            {
                "start_time": 70.77499999999999,
                "end_time": 71.58181818181818,
                "pitch": 88,
                "velocity": 80,
                "duration": 0.806818181818187,
                "tempo": 120.0
            }
        ],
        "Flute": [
            {
                "start_time": 71.5840909090909,
                "end_time": 71.88181818181818,
                "pitch": 77,
                "velocity": 51,
                "duration": 0.29772727272727195,
                "tempo": 120.0
            },
            {
                "start_time": 71.88181818181818,
                "end_time": 72.18409090909091,
                "pitch": 80,
                "velocity": 51,
                "duration": 0.3022727272727366,
                "tempo": 120.0
            },
            {
                "start_time": 72.18409090909091,
                "end_time": 72.38636363636363,
                "pitch": 80,
                "velocity": 51,
                "duration": 0.20227272727271384,
                "tempo": 120.0
            },
            {
                "start_time": 72.38636363636363,
                "end_time": 72.99318181818181,
                "pitch": 67,
                "velocity": 51,
                "duration": 0.6068181818181841,
                "tempo": 120.0
            },
            {
                "start_time": 73.6,
                "end_time": 75.41136363636363,
                "pitch": 74,
                "velocity": 51,
                "duration": 1.8113636363636374,
                "tempo": 120.0
            },
            {
                "start_time": 75.41136363636363,
                "end_time": 75.51136363636363,
                "pitch": 72,
                "velocity": 51,
                "duration": 0.09999999999999432,
                "tempo": 120.0
            },
            {
                "start_time": 75.41136363636363,
                "end_time": 75.61136363636363,
                "pitch": 74,
                "velocity": 51,
                "duration": 0.20000000000000284,
                "tempo": 120.0
            },
            {
                "start_time": 75.51136363636363,
                "end_time": 75.61136363636363,
                "pitch": 74,
                "velocity": 51,
                "duration": 0.10000000000000853,
                "tempo": 120.0
            },
            {
                "start_time": 75.61136363636363,
                "end_time": 76.2159090909091,
                "pitch": 67,
                "velocity": 51,
                "duration": 0.6045454545454589,
                "tempo": 120.0
            },
            {
                "start_time": 76.81818181818181,
                "end_time": 78.63181818181818,
                "pitch": 74,
                "velocity": 51,
                "duration": 1.8136363636363626,
                "tempo": 120.0
            },
            {
                "start_time": 75.51136363636363,
                "end_time": 78.72954545454544,
                "pitch": 72,
                "velocity": 51,
                "duration": 3.2181818181818187,
                "tempo": 120.0
            },
            {
                "start_time": 78.6340909090909,
                "end_time": 78.72954545454544,
                "pitch": 72,
                "velocity": 51,
                "duration": 0.0954545454545439,
                "tempo": 120.0
            },
            {
                "start_time": 78.6340909090909,
                "end_time": 78.82954545454545,
                "pitch": 74,
                "velocity": 51,
                "duration": 0.19545454545455243,
                "tempo": 120.0
            },
            {
                "start_time": 78.73181818181818,
                "end_time": 78.82954545454545,
                "pitch": 74,
                "velocity": 51,
                "duration": 0.09772727272726911,
                "tempo": 120.0
            },
            {
                "start_time": 75.61136363636363,
                "end_time": 78.82954545454545,
                "pitch": 77,
                "velocity": 51,
                "duration": 3.2181818181818187,
                "tempo": 120.0
            },
            {
                "start_time": 78.82954545454545,
                "end_time": 79.43636363636364,
                "pitch": 67,
                "velocity": 51,
                "duration": 0.6068181818181841,
                "tempo": 120.0
            },
            {
                "start_time": 80.03636363636363,
                "end_time": 81.85227272727272,
                "pitch": 74,
                "velocity": 51,
                "duration": 1.8159090909090878,
                "tempo": 120.0
            },
            {
                "start_time": 78.73181818181818,
                "end_time": 81.95227272727273,
                "pitch": 72,
                "velocity": 51,
                "duration": 3.220454545454544,
                "tempo": 120.0
            },
            {
                "start_time": 81.85227272727272,
                "end_time": 81.95227272727273,
                "pitch": 72,
                "velocity": 51,
                "duration": 0.10000000000000853,
                "tempo": 120.0
            },
            {
                "start_time": 81.85227272727272,
                "end_time": 82.05227272727272,
                "pitch": 74,
                "velocity": 51,
                "duration": 0.20000000000000284,
                "tempo": 120.0
            },
            {
                "start_time": 81.95227272727273,
                "end_time": 82.05227272727272,
                "pitch": 74,
                "velocity": 51,
                "duration": 0.09999999999999432,
                "tempo": 120.0
            },
            {
                "start_time": 78.82954545454545,
                "end_time": 82.05227272727272,
                "pitch": 77,
                "velocity": 51,
                "duration": 3.222727272727269,
                "tempo": 120.0
            },
            {
                "start_time": 82.05227272727272,
                "end_time": 82.85909090909091,
                "pitch": 68,
                "velocity": 51,
                "duration": 0.806818181818187,
                "tempo": 120.0
            },
            {
                "start_time": 83.0590909090909,
                "end_time": 83.26136363636363,
                "pitch": 68,
                "velocity": 51,
                "duration": 0.20227272727272805,
                "tempo": 120.0
            },
            {
                "start_time": 83.26136363636363,
                "end_time": 83.46136363636363,
                "pitch": 68,
                "velocity": 51,
                "duration": 0.20000000000000284,
                "tempo": 120.0
            },
            {
                "start_time": 81.95227272727273,
                "end_time": 83.66363636363636,
                "pitch": 72,
                "velocity": 51,
                "duration": 1.7113636363636289,
                "tempo": 120.0
            },
            {
                "start_time": 83.46136363636363,
                "end_time": 83.66363636363636,
                "pitch": 72,
                "velocity": 51,
                "duration": 0.20227272727272805,
                "tempo": 120.0
            },
            {
                "start_time": 82.05227272727272,
                "end_time": 84.26590909090909,
                "pitch": 77,
                "velocity": 51,
                "duration": 2.2136363636363683,
                "tempo": 120.0
            },
            {
                "start_time": 83.66363636363636,
                "end_time": 84.26590909090909,
                "pitch": 77,
                "velocity": 51,
                "duration": 0.6022727272727337,
                "tempo": 120.0
            },
            {
                "start_time": 84.26590909090909,
                "end_time": 84.46818181818182,
                "pitch": 74,
                "velocity": 51,
                "duration": 0.20227272727272805,
                "tempo": 120.0
            },
            {
                "start_time": 84.46818181818182,
                "end_time": 84.76818181818182,
                "pitch": 74,
                "velocity": 51,
                "duration": 0.29999999999999716,
                "tempo": 120.0
            },
            {
                "start_time": 84.76818181818182,
                "end_time": 85.07045454545454,
                "pitch": 75,
                "velocity": 51,
                "duration": 0.30227272727272236,
                "tempo": 120.0
            },
            {
                "start_time": 71.88181818181818,
                "end_time": 85.07045454545454,
                "pitch": 90,
                "velocity": 51,
                "duration": 13.188636363636363,
                "tempo": 120.0
            },
            {
                "start_time": 85.07045454545454,
                "end_time": 85.27272727272727,
                "pitch": 79,
                "velocity": 51,
                "duration": 0.20227272727272805,
                "tempo": 120.0
            }
        ]
    }
}