{
    "track_id": "15 Ending #2",
    "mood": "happy",
    "instruments": {
        "French Horn": [
            {
                "start_time": 0.015909090909090907,
                "end_time": 0.4159090909090909,
                "pitch": 52,
                "velocity": 80,
                "duration": 0.39999999999999997,
                "tempo": 120.0
            },
            {
                "start_time": 0.4159090909090909,
                "end_time": 0.8363636363636363,
                "pitch": 55,
                "velocity": 80,
                "duration": 0.4204545454545454,
                "tempo": 120.0
            },
            {
                "start_time": 0.8363636363636363,
                "end_time": 2.425,
                "pitch": 57,
                "velocity": 80,
                "duration": 1.5886363636363634,
                "tempo": 120.0
            },
            {
                "start_time": 0.8363636363636363,
                "end_time": 2.425,
                "pitch": 57,
                "velocity": 80,
                "duration": 1.5886363636363634,
                "tempo": 120.0
            },
            {
                "start_time": 2.425,
                "end_time": 2.8454545454545452,
                "pitch": 57,
                "velocity": 80,
                "duration": 0.4204545454545454,
                "tempo": 120.0
            },
            {
                "start_time": 2.8454545454545452,
                "end_time": 3.2409090909090907,
                "pitch": 60,
                "velocity": 80,
                "duration": 0.3954545454545455,
                "tempo": 120.0
            },
            {
                "start_time": 3.2409090909090907,
                "end_time": 4.454545454545454,
                "pitch": 59,
                "velocity": 80,
                "duration": 1.2136363636363634,
                "tempo": 120.0
            },
            {
                "start_time": 4.454545454545454,
                "end_time": 4.8590909090909085,
                "pitch": 55,
                "velocity": 80,
                "duration": 0.4045454545454543,
                "tempo": 120.0
            },
            {
                "start_time": 4.454545454545454,
                "end_time": 4.8590909090909085,
                "pitch": 55,
                "velocity": 80,
                "duration": 0.4045454545454543,
                "tempo": 120.0
            },
            {
                "start_time": 2.8454545454545452,
                "end_time": 4.8590909090909085,
                "pitch": 64,
                "velocity": 80,
                "duration": 2.0136363636363632,
                "tempo": 120.0
            },
            {
                "start_time": 4.8590909090909085,
                "end_time": 5.259090909090909,
                "pitch": 60,
                "velocity": 80,
                "duration": 0.40000000000000036,
                "tempo": 120.0
            },
            {
                "start_time": 5.259090909090909,
                "end_time": 5.6499999999999995,
                "pitch": 62,
                "velocity": 80,
                "duration": 0.39090909090909065,
                "tempo": 120.0
            },
            {
                "start_time": 4.8590909090909085,
                "end_time": 5.6499999999999995,
                "pitch": 64,
                "velocity": 80,
                "duration": 0.790909090909091,
                "tempo": 120.0
            },
            {
                "start_time": 5.6499999999999995,
                "end_time": 6.747727272727272,
                "pitch": 64,
                "velocity": 80,
                "duration": 1.0977272727272727,
                "tempo": 120.0
            },
            {
                "start_time": 5.6499999999999995,
                "end_time": 6.747727272727272,
                "pitch": 64,
                "velocity": 80,
                "duration": 1.0977272727272727,
                "tempo": 120.0
            },
            {
                "start_time": 6.747727272727272,
                "end_time": 6.9431818181818175,
                "pitch": 64,
                "velocity": 80,
                "duration": 0.19545454545454533,
                "tempo": 120.0
            },
            {
                "start_time": 6.9431818181818175,
                "end_time": 7.134090909090909,
                "pitch": 67,
                "velocity": 80,
                "duration": 0.19090909090909136,
                "tempo": 120.0
            },
            {
                "start_time": 7.134090909090909,
                "end_time": 7.2295454545454545,
                "pitch": 71,
                "velocity": 80,
                "duration": 0.09545454545454568,
                "tempo": 120.0
            },
            {
                "start_time": 7.2295454545454545,
                "end_time": 7.431818181818182,
                "pitch": 72,
                "velocity": 80,
                "duration": 0.20227272727272716,
                "tempo": 120.0
            },
            {
                "start_time": 7.2295454545454545,
                "end_time": 7.431818181818182,
                "pitch": 76,
                "velocity": 80,
                "duration": 0.20227272727272716,
                "tempo": 120.0
            },
            {
                "start_time": 7.431818181818182,
                "end_time": 7.845454545454545,
                "pitch": 76,
                "velocity": 80,
                "duration": 0.41363636363636314,
                "tempo": 120.0
            },
            {
                "start_time": 7.431818181818182,
                "end_time": 7.845454545454545,
                "pitch": 76,
                "velocity": 80,
                "duration": 0.41363636363636314,
                "tempo": 120.0
            },
            {
                "start_time": 7.845454545454545,
                "end_time": 8.245454545454544,
                "pitch": 74,
                "velocity": 80,
                "duration": 0.39999999999999947,
                "tempo": 120.0
            },
            {
                "start_time": 7.845454545454545,
                "end_time": 8.245454545454544,
                "pitch": 74,
                "velocity": 80,
                "duration": 0.39999999999999947,
                "tempo": 120.0
            },
            {
                "start_time": 8.245454545454544,
                "end_time": 9.047727272727272,
                "pitch": 72,
                "velocity": 80,
                "duration": 0.8022727272727277,
                "tempo": 120.0
            },
            {
                "start_time": 9.047727272727272,
                "end_time": 10.661363636363635,
                "pitch": 74,
                "velocity": 80,
                "duration": 1.6136363636363633,
                "tempo": 120.0
            },
            {
                "start_time": 10.661363636363635,
                "end_time": 42.23181818181818,
                "pitch": 72,
                "velocity": 80,
                "duration": 31.57045454545454,
                "tempo": 120.0
            },
            {
                "start_time": 42.23181818181818,
                "end_time": 42.429545454545455,
                "pitch": 72,
                "velocity": 101,
                "duration": 0.19772727272727764,
                "tempo": 120.0
            },
            {
                "start_time": 42.43181818181818,
                "end_time": 42.63181818181818,
                "pitch": 71,
                "velocity": 101,
                "duration": 0.20000000000000284,
                "tempo": 120.0
            },
            {
                "start_time": 42.63181818181818,
                "end_time": 43.23409090909091,
                "pitch": 69,
                "velocity": 101,
                "duration": 0.6022727272727266,
                "tempo": 120.0
            },
            {
                "start_time": 42.63181818181818,
                "end_time": 43.23409090909091,
                "pitch": 69,
                "velocity": 101,
                "duration": 0.6022727272727266,
                "tempo": 120.0
            },
            {
                "start_time": 43.23409090909091,
                "end_time": 43.85,
                "pitch": 76,
                "velocity": 101,
                "duration": 0.6159090909090921,
                "tempo": 120.0
            },
            {
                "start_time": 44.236363636363635,
                "end_time": 44.83863636363636,
                "pitch": 67,
                "velocity": 101,
                "duration": 0.6022727272727266,
                "tempo": 120.0
            },
            {
                "start_time": 43.23409090909091,
                "end_time": 44.83863636363636,
                "pitch": 78,
                "velocity": 101,
                "duration": 1.6045454545454518,
                "tempo": 120.0
            },
            {
                "start_time": 44.83863636363636,
                "end_time": 45.45681818181818,
                "pitch": 76,
                "velocity": 101,
                "duration": 0.6181818181818173,
                "tempo": 120.0
            },
            {
                "start_time": 45.849999999999994,
                "end_time": 46.449999999999996,
                "pitch": 65,
                "velocity": 101,
                "duration": 0.6000000000000014,
                "tempo": 120.0
            },
            {
                "start_time": 46.449999999999996,
                "end_time": 47.070454545454545,
                "pitch": 76,
                "velocity": 101,
                "duration": 0.6204545454545496,
                "tempo": 120.0
            },
            {
                "start_time": 47.45681818181818,
                "end_time": 48.459090909090904,
                "pitch": 67,
                "velocity": 101,
                "duration": 1.0022727272727252,
                "tempo": 120.0
            },
            {
                "start_time": 44.83863636363636,
                "end_time": 48.459090909090904,
                "pitch": 78,
                "velocity": 101,
                "duration": 3.6204545454545425,
                "tempo": 120.0
            },
            {
                "start_time": 48.459090909090904,
                "end_time": 48.65909090909091,
                "pitch": 64,
                "velocity": 101,
                "duration": 0.20000000000000284,
                "tempo": 120.0
            },
            {
                "start_time": 48.66136363636363,
                "end_time": 48.861363636363635,
                "pitch": 65,
                "velocity": 101,
                "duration": 0.20000000000000284,
                "tempo": 120.0
            },
            {
                "start_time": 48.861363636363635,
                "end_time": 49.06136363636364,
                "pitch": 67,
                "velocity": 101,
                "duration": 0.20000000000000284,
                "tempo": 120.0
            },
            {
                "start_time": 49.06136363636364,
                "end_time": 49.66136363636363,
                "pitch": 69,
                "velocity": 101,
                "duration": 0.5999999999999943,
                "tempo": 120.0
            },
            {
                "start_time": 48.459090909090904,
                "end_time": 49.66136363636363,
                "pitch": 78,
                "velocity": 101,
                "duration": 1.202272727272728,
                "tempo": 120.0
            },
            {
                "start_time": 49.66136363636363,
                "end_time": 50.27954545454545,
                "pitch": 76,
                "velocity": 101,
                "duration": 0.6181818181818173,
                "tempo": 120.0
            },
            {
                "start_time": 50.66590909090909,
                "end_time": 51.26590909090909,
                "pitch": 67,
                "velocity": 101,
                "duration": 0.6000000000000014,
                "tempo": 120.0
            },
            {
                "start_time": 49.66136363636363,
                "end_time": 51.26590909090909,
                "pitch": 78,
                "velocity": 101,
                "duration": 1.604545454545459,
                "tempo": 120.0
            },
            {
                "start_time": 51.26590909090909,
                "end_time": 51.88409090909091,
                "pitch": 76,
                "velocity": 101,
                "duration": 0.6181818181818173,
                "tempo": 120.0
            },
            {
                "start_time": 52.268181818181816,
                "end_time": 52.87045454545454,
                "pitch": 65,
                "velocity": 101,
                "duration": 0.6022727272727266,
                "tempo": 120.0
            },
            {
                "start_time": 52.87045454545454,
                "end_time": 53.48863636363636,
                "pitch": 76,
                "velocity": 101,
                "duration": 0.6181818181818173,
                "tempo": 120.0
            }
        ],
        "Trumpet": [
            {
                "start_time": 13.693181818181818,
                "end_time": 14.293181818181818,
                "pitch": 67,
                "velocity": 80,
                "duration": 0.5999999999999996,
                "tempo": 120.0
            },
            {
                "start_time": 14.293181818181818,
                "end_time": 14.897727272727272,
                "pitch": 72,
                "velocity": 80,
                "duration": 0.6045454545454536,
                "tempo": 120.0
            },
            {
                "start_time": 14.897727272727272,
                "end_time": 15.502272727272727,
                "pitch": 77,
                "velocity": 80,
                "duration": 0.6045454545454554,
                "tempo": 120.0
            },
            {
                "start_time": 14.897727272727272,
                "end_time": 15.502272727272727,
                "pitch": 77,
                "velocity": 80,
                "duration": 0.6045454545454554,
                "tempo": 120.0
            },
            {
                "start_time": 14.293181818181818,
                "end_time": 16.104545454545455,
                "pitch": 76,
                "velocity": 80,
                "duration": 1.8113636363636374,
                "tempo": 120.0
            },
            {
                "start_time": 15.502272727272727,
                "end_time": 16.104545454545455,
                "pitch": 76,
                "velocity": 80,
                "duration": 0.6022727272727284,
                "tempo": 120.0
            },
            {
                "start_time": 16.104545454545455,
                "end_time": 16.509090909090908,
                "pitch": 74,
                "velocity": 80,
                "duration": 0.40454545454545254,
                "tempo": 120.0
            },
            {
                "start_time": 16.104545454545455,
                "end_time": 16.509090909090908,
                "pitch": 74,
                "velocity": 80,
                "duration": 0.40454545454545254,
                "tempo": 120.0
            },
            {
                "start_time": 16.509090909090908,
                "end_time": 16.911363636363635,
                "pitch": 72,
                "velocity": 80,
                "duration": 0.40227272727272734,
                "tempo": 120.0
            },
            {
                "start_time": 16.911363636363635,
                "end_time": 17.511363636363637,
                "pitch": 79,
                "velocity": 80,
                "duration": 0.6000000000000014,
                "tempo": 120.0
            },
            {
                "start_time": 17.513636363636362,
                "end_time": 20.12272727272727,
                "pitch": 76,
                "velocity": 80,
                "duration": 2.6090909090909093,
                "tempo": 120.0
            },
            {
                "start_time": 20.12272727272727,
                "end_time": 20.724999999999998,
                "pitch": 67,
                "velocity": 80,
                "duration": 0.6022727272727266,
                "tempo": 120.0
            },
            {
                "start_time": 20.724999999999998,
                "end_time": 21.327272727272724,
                "pitch": 72,
                "velocity": 80,
                "duration": 0.6022727272727266,
                "tempo": 120.0
            },
            {
                "start_time": 21.327272727272724,
                "end_time": 21.93409090909091,
                "pitch": 77,
                "velocity": 80,
                "duration": 0.6068181818181841,
                "tempo": 120.0
            },
            {
                "start_time": 21.327272727272724,
                "end_time": 21.93409090909091,
                "pitch": 77,
                "velocity": 80,
                "duration": 0.6068181818181841,
                "tempo": 120.0
            },
            {
                "start_time": 20.724999999999998,
                "end_time": 22.543181818181818,
                "pitch": 76,
                "velocity": 80,
                "duration": 1.8181818181818201,
                "tempo": 120.0
            },
            {
                "start_time": 21.93409090909091,
                "end_time": 22.543181818181818,
                "pitch": 76,
                "velocity": 80,
                "duration": 0.6090909090909093,
                "tempo": 120.0
            },
            {
                "start_time": 22.543181818181818,
                "end_time": 22.943181818181817,
                "pitch": 74,
                "velocity": 80,
                "duration": 0.3999999999999986,
                "tempo": 120.0
            },
            {
                "start_time": 22.543181818181818,
                "end_time": 22.943181818181817,
                "pitch": 74,
                "velocity": 80,
                "duration": 0.3999999999999986,
                "tempo": 120.0
            },
            {
                "start_time": 22.943181818181817,
                "end_time": 23.345454545454544,
                "pitch": 72,
                "velocity": 80,
                "duration": 0.40227272727272734,
                "tempo": 120.0
            },
            {
                "start_time": 23.345454545454544,
                "end_time": 25.954545454545453,
                "pitch": 74,
                "velocity": 80,
                "duration": 2.6090909090909093,
                "tempo": 120.0
            },
            {
                "start_time": 25.954545454545453,
                "end_time": 26.154545454545453,
                "pitch": 74,
                "velocity": 80,
                "duration": 0.1999999999999993,
                "tempo": 120.0
            },
            {
                "start_time": 26.154545454545453,
                "end_time": 26.35681818181818,
                "pitch": 76,
                "velocity": 80,
                "duration": 0.20227272727272805,
                "tempo": 120.0
            },
            {
                "start_time": 26.15681818181818,
                "end_time": 26.35681818181818,
                "pitch": 76,
                "velocity": 80,
                "duration": 0.1999999999999993,
                "tempo": 120.0
            },
            {
                "start_time": 26.35681818181818,
                "end_time": 26.55909090909091,
                "pitch": 77,
                "velocity": 80,
                "duration": 0.20227272727272805,
                "tempo": 120.0
            },
            {
                "start_time": 26.55909090909091,
                "end_time": 27.159090909090907,
                "pitch": 79,
                "velocity": 80,
                "duration": 0.5999999999999979,
                "tempo": 120.0
            },
            {
                "start_time": 27.159090909090907,
                "end_time": 28.163636363636364,
                "pitch": 72,
                "velocity": 80,
                "duration": 1.0045454545454575,
                "tempo": 120.0
            },
            {
                "start_time": 28.163636363636364,
                "end_time": 28.76590909090909,
                "pitch": 81,
                "velocity": 80,
                "duration": 0.6022727272727266,
                "tempo": 120.0
            },
            {
                "start_time": 17.511363636363637,
                "end_time": 28.768181818181816,
                "pitch": 90,
                "velocity": 80,
                "duration": 11.25681818181818,
                "tempo": 120.0
            },
            {
                "start_time": 28.76590909090909,
                "end_time": 28.768181818181816,
                "pitch": 90,
                "velocity": 80,
                "duration": 0.0022727272727252057,
                "tempo": 120.0
            },
            {
                "start_time": 28.768181818181816,
                "end_time": 29.770454545454545,
                "pitch": 77,
                "velocity": 80,
                "duration": 1.0022727272727288,
                "tempo": 120.0
            },
            {
                "start_time": 29.770454545454545,
                "end_time": 30.581818181818182,
                "pitch": 76,
                "velocity": 80,
                "duration": 0.8113636363636374,
                "tempo": 120.0
            },
            {
                "start_time": 30.581818181818182,
                "end_time": 31.186363636363634,
                "pitch": 72,
                "velocity": 80,
                "duration": 0.6045454545454518,
                "tempo": 120.0
            },
            {
                "start_time": 30.584090909090907,
                "end_time": 31.186363636363634,
                "pitch": 72,
                "velocity": 80,
                "duration": 0.6022727272727266,
                "tempo": 120.0
            },
            {
                "start_time": 31.186363636363634,
                "end_time": 32.39090909090909,
                "pitch": 74,
                "velocity": 80,
                "duration": 1.2045454545454568,
                "tempo": 120.0
            },
            {
                "start_time": 32.39090909090909,
                "end_time": 32.590909090909086,
                "pitch": 74,
                "velocity": 80,
                "duration": 0.19999999999999574,
                "tempo": 120.0
            },
            {
                "start_time": 32.590909090909086,
                "end_time": 32.79090909090909,
                "pitch": 76,
                "velocity": 80,
                "duration": 0.20000000000000284,
                "tempo": 120.0
            },
            {
                "start_time": 32.590909090909086,
                "end_time": 32.79090909090909,
                "pitch": 76,
                "velocity": 80,
                "duration": 0.20000000000000284,
                "tempo": 120.0
            },
            {
                "start_time": 32.79090909090909,
                "end_time": 32.99090909090909,
                "pitch": 77,
                "velocity": 80,
                "duration": 0.20000000000000284,
                "tempo": 120.0
            },
            {
                "start_time": 32.99090909090909,
                "end_time": 33.595454545454544,
                "pitch": 79,
                "velocity": 80,
                "duration": 0.6045454545454518,
                "tempo": 120.0
            },
            {
                "start_time": 27.159090909090907,
                "end_time": 33.595454545454544,
                "pitch": 88,
                "velocity": 80,
                "duration": 6.436363636363637,
                "tempo": 120.0
            },
            {
                "start_time": 28.163636363636364,
                "end_time": 34.595454545454544,
                "pitch": 43,
                "velocity": 80,
                "duration": 6.43181818181818,
                "tempo": 120.0
            },
            {
                "start_time": 33.595454545454544,
                "end_time": 34.595454545454544,
                "pitch": 72,
                "velocity": 80,
                "duration": 1.0,
                "tempo": 120.0
            },
            {
                "start_time": 34.595454545454544,
                "end_time": 35.19772727272727,
                "pitch": 81,
                "velocity": 80,
                "duration": 0.6022727272727266,
                "tempo": 120.0
            },
            {
                "start_time": 35.19772727272727,
                "end_time": 36.199999999999996,
                "pitch": 77,
                "velocity": 80,
                "duration": 1.0022727272727252,
                "tempo": 120.0
            },
            {
                "start_time": 36.199999999999996,
                "end_time": 37.002272727272725,
                "pitch": 76,
                "velocity": 80,
                "duration": 0.8022727272727295,
                "tempo": 120.0
            },
            {
                "start_time": 37.002272727272725,
                "end_time": 37.611363636363635,
                "pitch": 72,
                "velocity": 80,
                "duration": 0.6090909090909093,
                "tempo": 120.0
            },
            {
                "start_time": 37.002272727272725,
                "end_time": 37.611363636363635,
                "pitch": 72,
                "velocity": 80,
                "duration": 0.6090909090909093,
                "tempo": 120.0
            },
            {
                "start_time": 37.611363636363635,
                "end_time": 38.81590909090909,
                "pitch": 74,
                "velocity": 80,
                "duration": 1.2045454545454533,
                "tempo": 120.0
            },
            {
                "start_time": 38.81590909090909,
                "end_time": 39.01363636363636,
                "pitch": 72,
                "velocity": 80,
                "duration": 0.19772727272727053,
                "tempo": 120.0
            },
            {
                "start_time": 39.01363636363636,
                "end_time": 39.21818181818182,
                "pitch": 71,
                "velocity": 80,
                "duration": 0.20454545454546036,
                "tempo": 120.0
            },
            {
                "start_time": 39.21818181818182,
                "end_time": 68.34772727272727,
                "pitch": 72,
                "velocity": 80,
                "duration": 29.12954545454545,
                "tempo": 120.0
            },
            {
                "start_time": 68.34772727272727,
                "end_time": 68.35,
                "pitch": 67,
                "velocity": 80,
                "duration": 0.0022727272727252057,
                "tempo": 120.0
            },
            {
                "start_time": 68.35,
                "end_time": 68.95227272727273,
                "pitch": 79,
                "velocity": 80,
                "duration": 0.6022727272727337,
                "tempo": 120.0
            },
            {
                "start_time": 68.95227272727273,
                "end_time": 69.75,
                "pitch": 79,
                "velocity": 80,
                "duration": 0.797727272727272,
                "tempo": 120.0
            },
            {
                "start_time": 69.75,
                "end_time": 69.95454545454545,
                "pitch": 67,
                "velocity": 80,
                "duration": 0.20454545454545325,
                "tempo": 120.0
            },
            {
                "start_time": 69.95454545454545,
                "end_time": 70.35681818181818,
                "pitch": 77,
                "velocity": 80,
                "duration": 0.4022727272727309,
                "tempo": 120.0
            },
            {
                "start_time": 39.21818181818182,
                "end_time": 70.7590909090909,
                "pitch": 76,
                "velocity": 80,
                "duration": 31.540909090909082,
                "tempo": 120.0
            },
            {
                "start_time": 70.35681818181818,
                "end_time": 70.7590909090909,
                "pitch": 76,
                "velocity": 80,
                "duration": 0.4022727272727167,
                "tempo": 120.0
            },
            {
                "start_time": 70.7590909090909,
                "end_time": 71.1590909090909,
                "pitch": 74,
                "velocity": 80,
                "duration": 0.4000000000000057,
                "tempo": 120.0
            },
            {
                "start_time": 70.7590909090909,
                "end_time": 71.1590909090909,
                "pitch": 74,
                "velocity": 80,
                "duration": 0.4000000000000057,
                "tempo": 120.0
            },
            {
                "start_time": 71.1590909090909,
                "end_time": 71.56363636363636,
                "pitch": 72,
                "velocity": 80,
                "duration": 0.4045454545454561,
                "tempo": 120.0
            },
            {
                "start_time": 71.56363636363636,
                "end_time": 72.16590909090908,
                "pitch": 72,
                "velocity": 80,
                "duration": 0.6022727272727195,
                "tempo": 120.0
            },
            {
                "start_time": 72.16590909090908,
                "end_time": 72.97045454545454,
                "pitch": 72,
                "velocity": 80,
                "duration": 0.8045454545454618,
                "tempo": 120.0
            },
            {
                "start_time": 72.97045454545454,
                "end_time": 73.17045454545455,
                "pitch": 67,
                "velocity": 80,
                "duration": 0.20000000000000284,
                "tempo": 120.0
            },
            {
                "start_time": 69.95454545454545,
                "end_time": 73.17045454545455,
                "pitch": 78,
                "velocity": 80,
                "duration": 3.2159090909090935,
                "tempo": 120.0
            },
            {
                "start_time": 73.17045454545455,
                "end_time": 73.57272727272726,
                "pitch": 77,
                "velocity": 80,
                "duration": 0.4022727272727167,
                "tempo": 120.0
            },
            {
                "start_time": 73.57272727272726,
                "end_time": 73.97727272727272,
                "pitch": 76,
                "velocity": 80,
                "duration": 0.4045454545454561,
                "tempo": 120.0
            },
            {
                "start_time": 73.97727272727272,
                "end_time": 74.37727272727273,
                "pitch": 74,
                "velocity": 80,
                "duration": 0.4000000000000057,
                "tempo": 120.0
            },
            {
                "start_time": 73.97727272727272,
                "end_time": 74.37727272727273,
                "pitch": 74,
                "velocity": 80,
                "duration": 0.4000000000000057,
                "tempo": 120.0
            },
            {
                "start_time": 74.37727272727273,
                "end_time": 74.77954545454546,
                "pitch": 72,
                "velocity": 80,
                "duration": 0.4022727272727309,
                "tempo": 120.0
            },
            {
                "start_time": 74.77954545454546,
                "end_time": 75.38181818181818,
                "pitch": 72,
                "velocity": 80,
                "duration": 0.6022727272727195,
                "tempo": 120.0
            },
            {
                "start_time": 34.595454545454544,
                "end_time": 76.18863636363636,
                "pitch": 43,
                "velocity": 80,
                "duration": 41.59318181818182,
                "tempo": 120.0
            },
            {
                "start_time": 75.38181818181818,
                "end_time": 76.18863636363636,
                "pitch": 72,
                "velocity": 80,
                "duration": 0.806818181818187,
                "tempo": 120.0
            },
            {
                "start_time": 76.18863636363636,
                "end_time": 76.38863636363637,
                "pitch": 69,
                "velocity": 80,
                "duration": 0.20000000000000284,
                "tempo": 120.0
            },
            {
                "start_time": 76.38863636363637,
                "end_time": 76.8,
                "pitch": 79,
                "velocity": 80,
                "duration": 0.4113636363636317,
                "tempo": 120.0
            },
            {
                "start_time": 35.19772727272727,
                "end_time": 76.8,
                "pitch": 90,
                "velocity": 80,
                "duration": 41.60227272727273,
                "tempo": 120.0
            },
            {
                "start_time": 76.8,
                "end_time": 77.20227272727273,
                "pitch": 77,
                "velocity": 80,
                "duration": 0.4022727272727309,
                "tempo": 120.0
            },
            {
                "start_time": 77.20227272727273,
                "end_time": 77.60681818181818,
                "pitch": 76,
                "velocity": 80,
                "duration": 0.4045454545454561,
                "tempo": 120.0
            },
            {
                "start_time": 77.60681818181818,
                "end_time": 78.00681818181818,
                "pitch": 74,
                "velocity": 80,
                "duration": 0.3999999999999915,
                "tempo": 120.0
            },
            {
                "start_time": 77.60681818181818,
                "end_time": 78.00681818181818,
                "pitch": 74,
                "velocity": 80,
                "duration": 0.3999999999999915,
                "tempo": 120.0
            },
            {
                "start_time": 78.00681818181818,
                "end_time": 78.80909090909091,
                "pitch": 76,
                "velocity": 80,
                "duration": 0.8022727272727366,
                "tempo": 120.0
            },
            {
                "start_time": 78.00681818181818,
                "end_time": 78.80909090909091,
                "pitch": 76,
                "velocity": 80,
                "duration": 0.8022727272727366,
                "tempo": 120.0
            },
            {
                "start_time": 78.80909090909091,
                "end_time": 79.61590909090908,
                "pitch": 74,
                "velocity": 80,
                "duration": 0.8068181818181728,
                "tempo": 120.0
            },
            {
                "start_time": 78.81136363636364,
                "end_time": 79.61590909090908,
                "pitch": 74,
                "velocity": 80,
                "duration": 0.8045454545454476,
                "tempo": 120.0
            },
            {
                "start_time": 79.61590909090908,
                "end_time": 80.42045454545455,
                "pitch": 72,
                "velocity": 80,
                "duration": 0.8045454545454618,
                "tempo": 120.0
            },
            {
                "start_time": 80.42045454545455,
                "end_time": 81.225,
                "pitch": 74,
                "velocity": 80,
                "duration": 0.8045454545454476,
                "tempo": 120.0
            },
            {
                "start_time": 81.225,
                "end_time": 84.03863636363636,
                "pitch": 76,
                "velocity": 80,
                "duration": 2.8136363636363626,
                "tempo": 120.0
            },
            {
                "start_time": 81.225,
                "end_time": 84.03863636363636,
                "pitch": 76,
                "velocity": 80,
                "duration": 2.8136363636363626,
                "tempo": 120.0
            },
            {
                "start_time": 84.03863636363636,
                "end_time": 84.14090909090909,
                "pitch": 75,
                "velocity": 80,
                "duration": 0.10227272727273373,
                "tempo": 120.0
            },
            {
                "start_time": 84.14090909090909,
                "end_time": 84.24318181818181,
                "pitch": 73,
                "velocity": 80,
                "duration": 0.10227272727271952,
                "tempo": 120.0
            },
            {
                "start_time": 39.01363636363636,
                "end_time": 84.24545454545454,
                "pitch": 56,
                "velocity": 80,
                "duration": 45.23181818181818,
                "tempo": 120.0
            },
            {
                "start_time": 84.24318181818181,
                "end_time": 84.24545454545454,
                "pitch": 56,
                "velocity": 80,
                "duration": 0.0022727272727252057,
                "tempo": 120.0
            },
            {
                "start_time": 84.24545454545454,
                "end_time": 84.34772727272727,
                "pitch": 71,
                "velocity": 80,
                "duration": 0.10227272727273373,
                "tempo": 120.0
            },
            {
                "start_time": 84.34772727272727,
                "end_time": 84.45,
                "pitch": 69,
                "velocity": 80,
                "duration": 0.10227272727273373,
                "tempo": 120.0
            }
        ],
        "Electric Guitar (clean)": [
            {
                "start_time": 10.445454545454545,
                "end_time": 10.593181818181817,
                "pitch": 36,
                "velocity": 101,
                "duration": 0.1477272727272716,
                "tempo": 120.0
            },
            {
                "start_time": 10.645454545454545,
                "end_time": 10.795454545454545,
                "pitch": 36,
                "velocity": 101,
                "duration": 0.15000000000000036,
                "tempo": 120.0
            },
            {
                "start_time": 10.845454545454546,
                "end_time": 10.895454545454545,
                "pitch": 36,
                "velocity": 101,
                "duration": 0.049999999999998934,
                "tempo": 120.0
            },
            {
                "start_time": 10.947727272727272,
                "end_time": 10.997727272727273,
                "pitch": 36,
                "velocity": 80,
                "duration": 0.05000000000000071,
                "tempo": 120.0
            },
            {
                "start_time": 11.047727272727272,
                "end_time": 11.197727272727272,
                "pitch": 36,
                "velocity": 101,
                "duration": 0.15000000000000036,
                "tempo": 120.0
            },
            {
                "start_time": 11.25,
                "end_time": 11.399999999999999,
                "pitch": 36,
                "velocity": 101,
                "duration": 0.14999999999999858,
                "tempo": 120.0
            },
            {
                "start_time": 11.45,
                "end_time": 11.602272727272727,
                "pitch": 36,
                "velocity": 101,
                "duration": 0.15227272727272734,
                "tempo": 120.0
            },
            {
                "start_time": 11.652272727272727,
                "end_time": 11.702272727272726,
                "pitch": 36,
                "velocity": 101,
                "duration": 0.049999999999998934,
                "tempo": 120.0
            },
            {
                "start_time": 11.752272727272727,
                "end_time": 11.802272727272726,
                "pitch": 36,
                "velocity": 80,
                "duration": 0.049999999999998934,
                "tempo": 120.0
            },
            {
                "start_time": 11.852272727272727,
                "end_time": 12.002272727272727,
                "pitch": 36,
                "velocity": 101,
                "duration": 0.15000000000000036,
                "tempo": 120.0
            },
            {
                "start_time": 12.052272727272726,
                "end_time": 12.204545454545453,
                "pitch": 36,
                "velocity": 101,
                "duration": 0.15227272727272734,
                "tempo": 120.0
            },
            {
                "start_time": 12.254545454545454,
                "end_time": 12.404545454545454,
                "pitch": 36,
                "velocity": 101,
                "duration": 0.15000000000000036,
                "tempo": 120.0
            },
            {
                "start_time": 12.456818181818182,
                "end_time": 12.506818181818181,
                "pitch": 36,
                "velocity": 101,
                "duration": 0.049999999999998934,
                "tempo": 120.0
            },
            {
                "start_time": 12.556818181818182,
                "end_time": 12.60681818181818,
                "pitch": 36,
                "velocity": 80,
                "duration": 0.049999999999998934,
                "tempo": 120.0
            },
            {
                "start_time": 12.659090909090908,
                "end_time": 12.809090909090909,
                "pitch": 36,
                "velocity": 101,
                "duration": 0.15000000000000036,
                "tempo": 120.0
            },
            {
                "start_time": 12.85909090909091,
                "end_time": 12.909090909090908,
                "pitch": 36,
                "velocity": 101,
                "duration": 0.049999999999998934,
                "tempo": 120.0
            },
            {
                "start_time": 12.961363636363636,
                "end_time": 13.009090909090908,
                "pitch": 36,
                "velocity": 80,
                "duration": 0.04772727272727195,
                "tempo": 120.0
            },
            {
                "start_time": 13.061363636363636,
                "end_time": 13.211363636363636,
                "pitch": 36,
                "velocity": 101,
                "duration": 0.15000000000000036,
                "tempo": 120.0
            },
            {
                "start_time": 13.263636363636364,
                "end_time": 13.313636363636363,
                "pitch": 36,
                "velocity": 101,
                "duration": 0.049999999999998934,
                "tempo": 120.0
            },
            {
                "start_time": 13.36590909090909,
                "end_time": 13.415909090909091,
                "pitch": 48,
                "velocity": 101,
                "duration": 0.05000000000000071,
                "tempo": 120.0
            },
            {
                "start_time": 13.468181818181817,
                "end_time": 13.622727272727271,
                "pitch": 36,
                "velocity": 101,
                "duration": 0.15454545454545432,
                "tempo": 120.0
            },
            {
                "start_time": 13.679545454545455,
                "end_time": 13.822727272727272,
                "pitch": 36,
                "velocity": 101,
                "duration": 0.14318181818181763,
                "tempo": 120.0
            },
            {
                "start_time": 13.875,
                "end_time": 14.024999999999999,
                "pitch": 36,
                "velocity": 101,
                "duration": 0.14999999999999858,
                "tempo": 120.0
            },
            {
                "start_time": 14.075,
                "end_time": 14.125,
                "pitch": 36,
                "velocity": 101,
                "duration": 0.05000000000000071,
                "tempo": 120.0
            },
            {
                "start_time": 14.174999999999999,
                "end_time": 14.225,
                "pitch": 36,
                "velocity": 80,
                "duration": 0.05000000000000071,
                "tempo": 120.0
            },
            {
                "start_time": 14.277272727272727,
                "end_time": 14.427272727272726,
                "pitch": 36,
                "velocity": 101,
                "duration": 0.14999999999999858,
                "tempo": 120.0
            },
            {
                "start_time": 14.477272727272727,
                "end_time": 14.629545454545454,
                "pitch": 36,
                "velocity": 101,
                "duration": 0.15227272727272734,
                "tempo": 120.0
            },
            {
                "start_time": 14.679545454545455,
                "end_time": 14.829545454545453,
                "pitch": 36,
                "velocity": 101,
                "duration": 0.14999999999999858,
                "tempo": 120.0
            },
            {
                "start_time": 14.881818181818181,
                "end_time": 14.931818181818182,
                "pitch": 36,
                "velocity": 101,
                "duration": 0.05000000000000071,
                "tempo": 120.0
            },
            {
                "start_time": 14.98181818181818,
                "end_time": 15.031818181818181,
                "pitch": 36,
                "velocity": 80,
                "duration": 0.05000000000000071,
                "tempo": 120.0
            },
            {
                "start_time": 15.08181818181818,
                "end_time": 15.234090909090908,
                "pitch": 36,
                "velocity": 101,
                "duration": 0.15227272727272734,
                "tempo": 120.0
            },
            {
                "start_time": 15.284090909090908,
                "end_time": 15.434090909090909,
                "pitch": 36,
                "velocity": 101,
                "duration": 0.15000000000000036,
                "tempo": 120.0
            },
            {
                "start_time": 15.486363636363636,
                "end_time": 15.636363636363635,
                "pitch": 36,
                "velocity": 101,
                "duration": 0.14999999999999858,
                "tempo": 120.0
            },
            {
                "start_time": 15.686363636363636,
                "end_time": 15.736363636363636,
                "pitch": 36,
                "velocity": 101,
                "duration": 0.05000000000000071,
                "tempo": 120.0
            },
            {
                "start_time": 15.788636363636362,
                "end_time": 15.836363636363636,
                "pitch": 36,
                "velocity": 80,
                "duration": 0.04772727272727373,
                "tempo": 120.0
            },
            {
                "start_time": 15.888636363636364,
                "end_time": 16.036363636363635,
                "pitch": 36,
                "velocity": 101,
                "duration": 0.1477272727272716,
                "tempo": 120.0
            },
            {
                "start_time": 16.08863636363636,
                "end_time": 16.138636363636362,
                "pitch": 36,
                "velocity": 101,
                "duration": 0.05000000000000071,
                "tempo": 120.0
            },
            {
                "start_time": 16.188636363636363,
                "end_time": 16.238636363636363,
                "pitch": 36,
                "velocity": 80,
                "duration": 0.05000000000000071,
                "tempo": 120.0
            },
            {
                "start_time": 16.29090909090909,
                "end_time": 16.44090909090909,
                "pitch": 36,
                "velocity": 101,
                "duration": 0.15000000000000213,
                "tempo": 120.0
            },
            {
                "start_time": 16.49090909090909,
                "end_time": 16.54090909090909,
                "pitch": 36,
                "velocity": 101,
                "duration": 0.05000000000000071,
                "tempo": 120.0
            },
            {
                "start_time": 16.59090909090909,
                "end_time": 16.64090909090909,
                "pitch": 48,
                "velocity": 101,
                "duration": 0.05000000000000071,
                "tempo": 120.0
            },
            {
                "start_time": 16.693181818181817,
                "end_time": 16.84318181818182,
                "pitch": 36,
                "velocity": 101,
                "duration": 0.15000000000000213,
                "tempo": 120.0
            },
            {
                "start_time": 16.895454545454545,
                "end_time": 17.043181818181818,
                "pitch": 36,
                "velocity": 101,
                "duration": 0.14772727272727337,
                "tempo": 120.0
            },
            {
                "start_time": 17.095454545454544,
                "end_time": 17.243181818181817,
                "pitch": 36,
                "velocity": 101,
                "duration": 0.14772727272727337,
                "tempo": 120.0
            },
            {
                "start_time": 17.295454545454543,
                "end_time": 17.345454545454544,
                "pitch": 36,
                "velocity": 101,
                "duration": 0.05000000000000071,
                "tempo": 120.0
            },
            {
                "start_time": 17.395454545454545,
                "end_time": 17.445454545454545,
                "pitch": 36,
                "velocity": 80,
                "duration": 0.05000000000000071,
                "tempo": 120.0
            },
            {
                "start_time": 17.49772727272727,
                "end_time": 17.645454545454545,
                "pitch": 36,
                "velocity": 101,
                "duration": 0.14772727272727337,
                "tempo": 120.0
            },
            {
                "start_time": 17.695454545454545,
                "end_time": 17.845454545454544,
                "pitch": 36,
                "velocity": 101,
                "duration": 0.14999999999999858,
                "tempo": 120.0
            },
            {
                "start_time": 17.897727272727273,
                "end_time": 18.047727272727272,
                "pitch": 36,
                "velocity": 101,
                "duration": 0.14999999999999858,
                "tempo": 120.0
            },
            {
                "start_time": 18.097727272727273,
                "end_time": 18.147727272727273,
                "pitch": 36,
                "velocity": 101,
                "duration": 0.05000000000000071,
                "tempo": 120.0
            },
            {
                "start_time": 18.2,
                "end_time": 18.24772727272727,
                "pitch": 36,
                "velocity": 80,
                "duration": 0.04772727272727195,
                "tempo": 120.0
            },
            {
                "start_time": 18.3,
                "end_time": 18.44772727272727,
                "pitch": 36,
                "velocity": 101,
                "duration": 0.14772727272726982,
                "tempo": 120.0
            },
            {
                "start_time": 18.5,
                "end_time": 18.65,
                "pitch": 36,
                "velocity": 101,
                "duration": 0.14999999999999858,
                "tempo": 120.0
            },
            {
                "start_time": 18.7,
                "end_time": 18.852272727272727,
                "pitch": 36,
                "velocity": 101,
                "duration": 0.15227272727272734,
                "tempo": 120.0
            },
            {
                "start_time": 18.902272727272727,
                "end_time": 18.952272727272728,
                "pitch": 36,
                "velocity": 101,
                "duration": 0.05000000000000071,
                "tempo": 120.0
            },
            {
                "start_time": 19.002272727272725,
                "end_time": 19.052272727272726,
                "pitch": 36,
                "velocity": 80,
                "duration": 0.05000000000000071,
                "tempo": 120.0
            },
            {
                "start_time": 19.102272727272727,
                "end_time": 19.252272727272725,
                "pitch": 36,
                "velocity": 101,
                "duration": 0.14999999999999858,
                "tempo": 120.0
            },
            {
                "start_time": 19.302272727272726,
                "end_time": 19.352272727272727,
                "pitch": 36,
                "velocity": 101,
                "duration": 0.05000000000000071,
                "tempo": 120.0
            },
            {
                "start_time": 19.402272727272727,
                "end_time": 19.452272727272728,
                "pitch": 36,
                "velocity": 80,
                "duration": 0.05000000000000071,
                "tempo": 120.0
            },
            {
                "start_time": 19.502272727272725,
                "end_time": 19.652272727272727,
                "pitch": 36,
                "velocity": 101,
                "duration": 0.15000000000000213,
                "tempo": 120.0
            },
            {
                "start_time": 19.702272727272728,
                "end_time": 19.752272727272725,
                "pitch": 36,
                "velocity": 101,
                "duration": 0.04999999999999716,
                "tempo": 120.0
            },
            {
                "start_time": 19.804545454545455,
                "end_time": 19.854545454545452,
                "pitch": 48,
                "velocity": 101,
                "duration": 0.04999999999999716,
                "tempo": 120.0
            },
            {
                "start_time": 19.904545454545453,
                "end_time": 20.054545454545455,
                "pitch": 36,
                "velocity": 101,
                "duration": 0.15000000000000213,
                "tempo": 120.0
            },
            {
                "start_time": 20.10909090909091,
                "end_time": 20.25681818181818,
                "pitch": 36,
                "velocity": 101,
                "duration": 0.14772727272726982,
                "tempo": 120.0
            },
            {
                "start_time": 20.30681818181818,
                "end_time": 20.456818181818182,
                "pitch": 36,
                "velocity": 101,
                "duration": 0.15000000000000213,
                "tempo": 120.0
            },
            {
                "start_time": 20.50681818181818,
                "end_time": 20.55681818181818,
                "pitch": 36,
                "velocity": 101,
                "duration": 0.05000000000000071,
                "tempo": 120.0
            },
            {
                "start_time": 20.60909090909091,
                "end_time": 20.65681818181818,
                "pitch": 36,
                "velocity": 80,
                "duration": 0.04772727272727195,
                "tempo": 120.0
            },
            {
                "start_time": 20.709090909090907,
                "end_time": 20.85909090909091,
                "pitch": 36,
                "velocity": 101,
                "duration": 0.15000000000000213,
                "tempo": 120.0
            },
            {
                "start_time": 20.911363636363635,
                "end_time": 21.05909090909091,
                "pitch": 36,
                "velocity": 101,
                "duration": 0.14772727272727337,
                "tempo": 120.0
            },
            {
                "start_time": 21.111363636363635,
                "end_time": 21.259090909090908,
                "pitch": 36,
                "velocity": 101,
                "duration": 0.14772727272727337,
                "tempo": 120.0
            },
            {
                "start_time": 21.311363636363634,
                "end_time": 21.361363636363635,
                "pitch": 36,
                "velocity": 101,
                "duration": 0.05000000000000071,
                "tempo": 120.0
            },
            {
                "start_time": 21.413636363636364,
                "end_time": 21.46363636363636,
                "pitch": 36,
                "velocity": 80,
                "duration": 0.04999999999999716,
                "tempo": 120.0
            },
            {
                "start_time": 21.51590909090909,
                "end_time": 21.670454545454543,
                "pitch": 36,
                "velocity": 101,
                "duration": 0.15454545454545254,
                "tempo": 120.0
            },
            {
                "start_time": 21.722727272727273,
                "end_time": 21.868181818181817,
                "pitch": 36,
                "velocity": 101,
                "duration": 0.14545454545454461,
                "tempo": 120.0
            },
            {
                "start_time": 21.918181818181818,
                "end_time": 22.06590909090909,
                "pitch": 36,
                "velocity": 101,
                "duration": 0.14772727272727337,
                "tempo": 120.0
            },
            {
                "start_time": 22.113636363636363,
                "end_time": 22.16590909090909,
                "pitch": 36,
                "velocity": 101,
                "duration": 0.052272727272725916,
                "tempo": 120.0
            },
            {
                "start_time": 22.21818181818182,
                "end_time": 22.268181818181816,
                "pitch": 36,
                "velocity": 80,
                "duration": 0.04999999999999716,
                "tempo": 120.0
            },
            {
                "start_time": 22.320454545454545,
                "end_time": 22.472727272727273,
                "pitch": 36,
                "velocity": 101,
                "duration": 0.15227272727272734,
                "tempo": 120.0
            },
            {
                "start_time": 22.527272727272727,
                "end_time": 22.575,
                "pitch": 36,
                "velocity": 101,
                "duration": 0.04772727272727195,
                "tempo": 120.0
            },
            {
                "start_time": 22.627272727272725,
                "end_time": 22.674999999999997,
                "pitch": 36,
                "velocity": 80,
                "duration": 0.04772727272727195,
                "tempo": 120.0
            },
            {
                "start_time": 22.727272727272727,
                "end_time": 22.875,
                "pitch": 36,
                "velocity": 101,
                "duration": 0.14772727272727337,
                "tempo": 120.0
            },
            {
                "start_time": 22.927272727272726,
                "end_time": 22.974999999999998,
                "pitch": 36,
                "velocity": 101,
                "duration": 0.04772727272727195,
                "tempo": 120.0
            },
            {
                "start_time": 23.027272727272727,
                "end_time": 23.075,
                "pitch": 48,
                "velocity": 101,
                "duration": 0.04772727272727195,
                "tempo": 120.0
            },
            {
                "start_time": 23.127272727272725,
                "end_time": 23.277272727272727,
                "pitch": 36,
                "velocity": 101,
                "duration": 0.15000000000000213,
                "tempo": 120.0
            },
            {
                "start_time": 23.329545454545453,
                "end_time": 23.477272727272727,
                "pitch": 38,
                "velocity": 101,
                "duration": 0.14772727272727337,
                "tempo": 120.0
            },
            {
                "start_time": 23.529545454545453,
                "end_time": 23.679545454545455,
                "pitch": 38,
                "velocity": 101,
                "duration": 0.15000000000000213,
                "tempo": 120.0
            },
            {
                "start_time": 23.729545454545452,
                "end_time": 23.779545454545453,
                "pitch": 38,
                "velocity": 101,
                "duration": 0.05000000000000071,
                "tempo": 120.0
            },
            {
                "start_time": 23.831818181818182,
                "end_time": 23.879545454545454,
                "pitch": 38,
                "velocity": 80,
                "duration": 0.04772727272727195,
                "tempo": 120.0
            },
            {
                "start_time": 23.93181818181818,
                "end_time": 24.079545454545453,
                "pitch": 38,
                "velocity": 101,
                "duration": 0.14772727272727337,
                "tempo": 120.0
            },
            {
                "start_time": 24.13181818181818,
                "end_time": 24.28181818181818,
                "pitch": 38,
                "velocity": 101,
                "duration": 0.15000000000000213,
                "tempo": 120.0
            },
            {
                "start_time": 24.331818181818182,
                "end_time": 24.48181818181818,
                "pitch": 38,
                "velocity": 101,
                "duration": 0.14999999999999858,
                "tempo": 120.0
            },
            {
                "start_time": 24.534090909090907,
                "end_time": 24.584090909090907,
                "pitch": 38,
                "velocity": 101,
                "duration": 0.05000000000000071,
                "tempo": 120.0
            },
            {
                "start_time": 24.634090909090908,
                "end_time": 24.68409090909091,
                "pitch": 38,
                "velocity": 80,
                "duration": 0.05000000000000071,
                "tempo": 120.0
            },
            {
                "start_time": 24.73409090909091,
                "end_time": 24.884090909090908,
                "pitch": 38,
                "velocity": 101,
                "duration": 0.14999999999999858,
                "tempo": 120.0
            },
            {
                "start_time": 24.93409090909091,
                "end_time": 25.084090909090907,
                "pitch": 38,
                "velocity": 101,
                "duration": 0.14999999999999858,
                "tempo": 120.0
            },
            {
                "start_time": 25.134090909090908,
                "end_time": 25.284090909090907,
                "pitch": 38,
                "velocity": 101,
                "duration": 0.14999999999999858,
                "tempo": 120.0
            },
            {
                "start_time": 25.334090909090907,
                "end_time": 25.384090909090908,
                "pitch": 38,
                "velocity": 101,
                "duration": 0.05000000000000071,
                "tempo": 120.0
            },
            {
                "start_time": 25.436363636363634,
                "end_time": 25.486363636363635,
                "pitch": 38,
                "velocity": 80,
                "duration": 0.05000000000000071,
                "tempo": 120.0
            },
            {
                "start_time": 25.536363636363635,
                "end_time": 25.686363636363634,
                "pitch": 38,
                "velocity": 101,
                "duration": 0.14999999999999858,
                "tempo": 120.0
            },
            {
                "start_time": 25.738636363636363,
                "end_time": 25.788636363636364,
                "pitch": 38,
                "velocity": 101,
                "duration": 0.05000000000000071,
                "tempo": 120.0
            },
            {
                "start_time": 25.83863636363636,
                "end_time": 25.888636363636362,
                "pitch": 38,
                "velocity": 80,
                "duration": 0.05000000000000071,
                "tempo": 120.0
            },
            {
                "start_time": 25.938636363636363,
                "end_time": 25.988636363636363,
                "pitch": 38,
                "velocity": 101,
                "duration": 0.05000000000000071,
                "tempo": 120.0
            },
            {
                "start_time": 26.038636363636364,
                "end_time": 26.188636363636363,
                "pitch": 38,
                "velocity": 101,
                "duration": 0.14999999999999858,
                "tempo": 120.0
            },
            {
                "start_time": 26.238636363636363,
                "end_time": 26.288636363636364,
                "pitch": 38,
                "velocity": 101,
                "duration": 0.05000000000000071,
                "tempo": 120.0
            },
            {
                "start_time": 26.34090909090909,
                "end_time": 26.49090909090909,
                "pitch": 38,
                "velocity": 101,
                "duration": 0.14999999999999858,
                "tempo": 120.0
            },
            {
                "start_time": 26.543181818181818,
                "end_time": 26.69090909090909,
                "pitch": 36,
                "velocity": 101,
                "duration": 0.14772727272727337,
                "tempo": 120.0
            },
            {
                "start_time": 26.743181818181817,
                "end_time": 26.89090909090909,
                "pitch": 36,
                "velocity": 101,
                "duration": 0.14772727272727337,
                "tempo": 120.0
            },
            {
                "start_time": 26.943181818181817,
                "end_time": 26.99090909090909,
                "pitch": 36,
                "velocity": 101,
                "duration": 0.04772727272727195,
                "tempo": 120.0
            },
            {
                "start_time": 27.043181818181818,
                "end_time": 27.09090909090909,
                "pitch": 36,
                "velocity": 80,
                "duration": 0.04772727272727195,
                "tempo": 120.0
            },
            {
                "start_time": 27.143181818181816,
                "end_time": 27.293181818181818,
                "pitch": 36,
                "velocity": 101,
                "duration": 0.15000000000000213,
                "tempo": 120.0
            },
            {
                "start_time": 27.343181818181815,
                "end_time": 27.493181818181817,
                "pitch": 36,
                "velocity": 101,
                "duration": 0.15000000000000213,
                "tempo": 120.0
            },
            {
                "start_time": 27.545454545454543,
                "end_time": 27.695454545454545,
                "pitch": 36,
                "velocity": 101,
                "duration": 0.15000000000000213,
                "tempo": 120.0
            },
            {
                "start_time": 27.745454545454542,
                "end_time": 27.795454545454543,
                "pitch": 36,
                "velocity": 101,
                "duration": 0.05000000000000071,
                "tempo": 120.0
            },
            {
                "start_time": 27.845454545454544,
                "end_time": 27.895454545454545,
                "pitch": 36,
                "velocity": 80,
                "duration": 0.05000000000000071,
                "tempo": 120.0
            },
            {
                "start_time": 27.945454545454545,
                "end_time": 28.095454545454544,
                "pitch": 36,
                "velocity": 101,
                "duration": 0.14999999999999858,
                "tempo": 120.0
            },
            {
                "start_time": 28.14772727272727,
                "end_time": 28.297727272727272,
                "pitch": 41,
                "velocity": 101,
                "duration": 0.15000000000000213,
                "tempo": 120.0
            },
            {
                "start_time": 28.347727272727273,
                "end_time": 28.5,
                "pitch": 41,
                "velocity": 101,
                "duration": 0.15227272727272734,
                "tempo": 120.0
            },
            {
                "start_time": 28.549999999999997,
                "end_time": 28.599999999999998,
                "pitch": 41,
                "velocity": 101,
                "duration": 0.05000000000000071,
                "tempo": 120.0
            },
            {
                "start_time": 28.65,
                "end_time": 28.7,
                "pitch": 41,
                "velocity": 80,
                "duration": 0.05000000000000071,
                "tempo": 120.0
            },
            {
                "start_time": 28.752272727272725,
                "end_time": 28.9,
                "pitch": 41,
                "velocity": 101,
                "duration": 0.14772727272727337,
                "tempo": 120.0
            },
            {
                "start_time": 28.95,
                "end_time": 29.0,
                "pitch": 41,
                "velocity": 101,
                "duration": 0.05000000000000071,
                "tempo": 120.0
            },
            {
                "start_time": 29.049999999999997,
                "end_time": 29.099999999999998,
                "pitch": 41,
                "velocity": 80,
                "duration": 0.05000000000000071,
                "tempo": 120.0
            },
            {
                "start_time": 29.15,
                "end_time": 29.299999999999997,
                "pitch": 41,
                "velocity": 101,
                "duration": 0.14999999999999858,
                "tempo": 120.0
            },
            {
                "start_time": 29.349999999999998,
                "end_time": 29.4,
                "pitch": 41,
                "velocity": 101,
                "duration": 0.05000000000000071,
                "tempo": 120.0
            },
            {
                "start_time": 29.452272727272724,
                "end_time": 29.502272727272725,
                "pitch": 53,
                "velocity": 101,
                "duration": 0.05000000000000071,
                "tempo": 120.0
            },
            {
                "start_time": 29.552272727272726,
                "end_time": 29.702272727272724,
                "pitch": 41,
                "velocity": 101,
                "duration": 0.14999999999999858,
                "tempo": 120.0
            },
            {
                "start_time": 29.754545454545454,
                "end_time": 29.904545454545453,
                "pitch": 36,
                "velocity": 101,
                "duration": 0.14999999999999858,
                "tempo": 120.0
            },
            {
                "start_time": 29.954545454545453,
                "end_time": 30.104545454545452,
                "pitch": 36,
                "velocity": 101,
                "duration": 0.14999999999999858,
                "tempo": 120.0
            },
            {
                "start_time": 30.154545454545453,
                "end_time": 30.204545454545453,
                "pitch": 36,
                "velocity": 101,
                "duration": 0.05000000000000071,
                "tempo": 120.0
            },
            {
                "start_time": 30.25681818181818,
                "end_time": 30.30909090909091,
                "pitch": 36,
                "velocity": 80,
                "duration": 0.05227272727272947,
                "tempo": 120.0
            },
            {
                "start_time": 30.361363636363635,
                "end_time": 30.513636363636362,
                "pitch": 36,
                "velocity": 101,
                "duration": 0.15227272727272734,
                "tempo": 120.0
            },
            {
                "start_time": 30.565909090909088,
                "end_time": 30.71590909090909,
                "pitch": 36,
                "velocity": 101,
                "duration": 0.15000000000000213,
                "tempo": 120.0
            },
            {
                "start_time": 30.768181818181816,
                "end_time": 30.918181818181818,
                "pitch": 36,
                "velocity": 101,
                "duration": 0.15000000000000213,
                "tempo": 120.0
            },
            {
                "start_time": 30.968181818181815,
                "end_time": 31.018181818181816,
                "pitch": 36,
                "velocity": 101,
                "duration": 0.05000000000000071,
                "tempo": 120.0
            },
            {
                "start_time": 31.070454545454545,
                "end_time": 31.118181818181817,
                "pitch": 36,
                "velocity": 80,
                "duration": 0.04772727272727195,
                "tempo": 120.0
            },
            {
                "start_time": 31.170454545454543,
                "end_time": 31.318181818181817,
                "pitch": 36,
                "velocity": 101,
                "duration": 0.14772727272727337,
                "tempo": 120.0
            },
            {
                "start_time": 31.370454545454542,
                "end_time": 31.520454545454545,
                "pitch": 43,
                "velocity": 101,
                "duration": 0.15000000000000213,
                "tempo": 120.0
            },
            {
                "start_time": 31.570454545454545,
                "end_time": 31.720454545454544,
                "pitch": 43,
                "velocity": 101,
                "duration": 0.14999999999999858,
                "tempo": 120.0
            },
            {
                "start_time": 31.770454545454545,
                "end_time": 31.820454545454545,
                "pitch": 43,
                "velocity": 101,
                "duration": 0.05000000000000071,
                "tempo": 120.0
            },
            {
                "start_time": 31.870454545454542,
                "end_time": 31.920454545454543,
                "pitch": 43,
                "velocity": 80,
                "duration": 0.05000000000000071,
                "tempo": 120.0
            },
            {
                "start_time": 31.972727272727273,
                "end_time": 32.12272727272727,
                "pitch": 43,
                "velocity": 101,
                "duration": 0.14999999999999503,
                "tempo": 120.0
            },
            {
                "start_time": 32.17272727272727,
                "end_time": 32.22272727272727,
                "pitch": 43,
                "velocity": 101,
                "duration": 0.04999999999999716,
                "tempo": 120.0
            },
            {
                "start_time": 32.275,
                "end_time": 32.32272727272727,
                "pitch": 43,
                "velocity": 80,
                "duration": 0.04772727272727195,
                "tempo": 120.0
            },
            {
                "start_time": 32.375,
                "end_time": 32.52272727272727,
                "pitch": 43,
                "velocity": 101,
                "duration": 0.14772727272727337,
                "tempo": 120.0
            },
            {
                "start_time": 32.574999999999996,
                "end_time": 32.62272727272727,
                "pitch": 43,
                "velocity": 101,
                "duration": 0.04772727272727195,
                "tempo": 120.0
            },
            {
                "start_time": 32.675,
                "end_time": 32.72272727272727,
                "pitch": 55,
                "velocity": 101,
                "duration": 0.04772727272727195,
                "tempo": 120.0
            },
            {
                "start_time": 32.775,
                "end_time": 32.925,
                "pitch": 43,
                "velocity": 101,
                "duration": 0.14999999999999858,
                "tempo": 120.0
            },
            {
                "start_time": 32.975,
                "end_time": 33.125,
                "pitch": 36,
                "velocity": 101,
                "duration": 0.14999999999999858,
                "tempo": 120.0
            },
            {
                "start_time": 33.17727272727272,
                "end_time": 33.32727272727273,
                "pitch": 36,
                "velocity": 101,
                "duration": 0.15000000000000568,
                "tempo": 120.0
            },
            {
                "start_time": 33.377272727272725,
                "end_time": 33.42727272727272,
                "pitch": 36,
                "velocity": 101,
                "duration": 0.04999999999999716,
                "tempo": 120.0
            },
            {
                "start_time": 33.47727272727273,
                "end_time": 33.527272727272724,
                "pitch": 36,
                "velocity": 80,
                "duration": 0.04999999999999716,
                "tempo": 120.0
            },
            {
                "start_time": 33.57954545454545,
                "end_time": 33.72727272727273,
                "pitch": 36,
                "velocity": 101,
                "duration": 0.14772727272727337,
                "tempo": 120.0
            },
            {
                "start_time": 33.777272727272724,
                "end_time": 33.92727272727272,
                "pitch": 36,
                "velocity": 101,
                "duration": 0.14999999999999858,
                "tempo": 120.0
            },
            {
                "start_time": 33.97954545454545,
                "end_time": 34.127272727272725,
                "pitch": 36,
                "velocity": 101,
                "duration": 0.14772727272727337,
                "tempo": 120.0
            },
            {
                "start_time": 34.179545454545455,
                "end_time": 34.22727272727273,
                "pitch": 36,
                "velocity": 101,
                "duration": 0.04772727272727195,
                "tempo": 120.0
            },
            {
                "start_time": 34.279545454545456,
                "end_time": 34.32727272727273,
                "pitch": 36,
                "velocity": 80,
                "duration": 0.04772727272727195,
                "tempo": 120.0
            },
            {
                "start_time": 34.37954545454545,
                "end_time": 34.529545454545456,
                "pitch": 36,
                "velocity": 101,
                "duration": 0.15000000000000568,
                "tempo": 120.0
            },
            {
                "start_time": 34.57954545454545,
                "end_time": 34.72954545454545,
                "pitch": 41,
                "velocity": 101,
                "duration": 0.14999999999999858,
                "tempo": 120.0
            },
            {
                "start_time": 34.779545454545456,
                "end_time": 34.929545454545455,
                "pitch": 41,
                "velocity": 101,
                "duration": 0.14999999999999858,
                "tempo": 120.0
            },
            {
                "start_time": 34.97954545454545,
                "end_time": 35.029545454545456,
                "pitch": 41,
                "velocity": 101,
                "duration": 0.05000000000000426,
                "tempo": 120.0
            },
            {
                "start_time": 35.08181818181818,
                "end_time": 35.12954545454545,
                "pitch": 41,
                "velocity": 80,
                "duration": 0.04772727272727195,
                "tempo": 120.0
            },
            {
                "start_time": 35.18181818181818,
                "end_time": 35.33181818181818,
                "pitch": 41,
                "velocity": 101,
                "duration": 0.14999999999999858,
                "tempo": 120.0
            },
            {
                "start_time": 35.38409090909091,
                "end_time": 35.43181818181818,
                "pitch": 41,
                "velocity": 101,
                "duration": 0.04772727272727195,
                "tempo": 120.0
            },
            {
                "start_time": 35.48409090909091,
                "end_time": 35.53181818181818,
                "pitch": 41,
                "velocity": 80,
                "duration": 0.04772727272727195,
                "tempo": 120.0
            },
            {
                "start_time": 35.58409090909091,
                "end_time": 35.73181818181818,
                "pitch": 41,
                "velocity": 101,
                "duration": 0.14772727272726627,
                "tempo": 120.0
            },
            {
                "start_time": 35.78409090909091,
                "end_time": 35.83409090909091,
                "pitch": 41,
                "velocity": 101,
                "duration": 0.05000000000000426,
                "tempo": 120.0
            },
            {
                "start_time": 35.88409090909091,
                "end_time": 35.934090909090905,
                "pitch": 53,
                "velocity": 101,
                "duration": 0.04999999999999716,
                "tempo": 120.0
            },
            {
                "start_time": 35.98409090909091,
                "end_time": 36.13409090909091,
                "pitch": 41,
                "velocity": 101,
                "duration": 0.14999999999999858,
                "tempo": 120.0
            },
            {
                "start_time": 36.184090909090905,
                "end_time": 36.33409090909091,
                "pitch": 36,
                "velocity": 101,
                "duration": 0.15000000000000568,
                "tempo": 120.0
            },
            {
                "start_time": 36.38409090909091,
                "end_time": 36.53409090909091,
                "pitch": 36,
                "velocity": 101,
                "duration": 0.14999999999999858,
                "tempo": 120.0
            },
            {
                "start_time": 36.58409090909091,
                "end_time": 36.63409090909091,
                "pitch": 36,
                "velocity": 101,
                "duration": 0.04999999999999716,
                "tempo": 120.0
            },
            {
                "start_time": 36.684090909090905,
                "end_time": 36.73409090909091,
                "pitch": 36,
                "velocity": 80,
                "duration": 0.05000000000000426,
                "tempo": 120.0
            },
            {
                "start_time": 36.78409090909091,
                "end_time": 36.934090909090905,
                "pitch": 36,
                "velocity": 101,
                "duration": 0.14999999999999858,
                "tempo": 120.0
            },
            {
                "start_time": 36.986363636363635,
                "end_time": 37.13636363636363,
                "pitch": 36,
                "velocity": 101,
                "duration": 0.14999999999999858,
                "tempo": 120.0
            },
            {
                "start_time": 37.18636363636364,
                "end_time": 37.336363636363636,
                "pitch": 36,
                "velocity": 101,
                "duration": 0.14999999999999858,
                "tempo": 120.0
            },
            {
                "start_time": 37.38863636363636,
                "end_time": 37.43863636363636,
                "pitch": 36,
                "velocity": 101,
                "duration": 0.05000000000000426,
                "tempo": 120.0
            },
            {
                "start_time": 37.49090909090909,
                "end_time": 37.54090909090909,
                "pitch": 36,
                "velocity": 80,
                "duration": 0.04999999999999716,
                "tempo": 120.0
            },
            {
                "start_time": 37.595454545454544,
                "end_time": 37.74772727272727,
                "pitch": 36,
                "velocity": 101,
                "duration": 0.15227272727272378,
                "tempo": 120.0
            },
            {
                "start_time": 37.8,
                "end_time": 37.945454545454545,
                "pitch": 43,
                "velocity": 101,
                "duration": 0.14545454545454817,
                "tempo": 120.0
            },
            {
                "start_time": 37.99545454545454,
                "end_time": 38.143181818181816,
                "pitch": 43,
                "velocity": 101,
                "duration": 0.14772727272727337,
                "tempo": 120.0
            },
            {
                "start_time": 38.19318181818181,
                "end_time": 38.24318181818182,
                "pitch": 43,
                "velocity": 101,
                "duration": 0.05000000000000426,
                "tempo": 120.0
            },
            {
                "start_time": 38.29545454545455,
                "end_time": 38.345454545454544,
                "pitch": 43,
                "velocity": 80,
                "duration": 0.04999999999999716,
                "tempo": 120.0
            },
            {
                "start_time": 38.39772727272727,
                "end_time": 38.55227272727272,
                "pitch": 43,
                "velocity": 101,
                "duration": 0.154545454545449,
                "tempo": 120.0
            },
            {
                "start_time": 38.60227272727273,
                "end_time": 38.652272727272724,
                "pitch": 43,
                "velocity": 101,
                "duration": 0.04999999999999716,
                "tempo": 120.0
            },
            {
                "start_time": 38.70227272727273,
                "end_time": 38.75,
                "pitch": 43,
                "velocity": 80,
                "duration": 0.04772727272727195,
                "tempo": 120.0
            },
            {
                "start_time": 38.8,
                "end_time": 38.945454545454545,
                "pitch": 43,
                "velocity": 101,
                "duration": 0.14545454545454817,
                "tempo": 120.0
            },
            {
                "start_time": 38.99772727272727,
                "end_time": 39.04545454545455,
                "pitch": 43,
                "velocity": 101,
                "duration": 0.04772727272727906,
                "tempo": 120.0
            },
            {
                "start_time": 39.09772727272727,
                "end_time": 39.15,
                "pitch": 55,
                "velocity": 101,
                "duration": 0.05227272727272947,
                "tempo": 120.0
            },
            {
                "start_time": 39.20227272727273,
                "end_time": 39.35454545454545,
                "pitch": 43,
                "velocity": 101,
                "duration": 0.15227272727272378,
                "tempo": 120.0
            },
            {
                "start_time": 39.40909090909091,
                "end_time": 39.55681818181818,
                "pitch": 36,
                "velocity": 101,
                "duration": 0.14772727272727337,
                "tempo": 120.0
            },
            {
                "start_time": 39.60681818181818,
                "end_time": 39.75681818181818,
                "pitch": 36,
                "velocity": 101,
                "duration": 0.15000000000000568,
                "tempo": 120.0
            },
            {
                "start_time": 39.80681818181818,
                "end_time": 39.85681818181818,
                "pitch": 36,
                "velocity": 101,
                "duration": 0.04999999999999716,
                "tempo": 120.0
            },
            {
                "start_time": 39.90909090909091,
                "end_time": 39.95681818181818,
                "pitch": 36,
                "velocity": 80,
                "duration": 0.04772727272727195,
                "tempo": 120.0
            },
            {
                "start_time": 40.00909090909091,
                "end_time": 40.15681818181818,
                "pitch": 36,
                "velocity": 101,
                "duration": 0.14772727272727337,
                "tempo": 120.0
            },
            {
                "start_time": 40.209090909090904,
                "end_time": 40.35681818181818,
                "pitch": 36,
                "velocity": 101,
                "duration": 0.14772727272727337,
                "tempo": 120.0
            },
            {
                "start_time": 40.40909090909091,
                "end_time": 40.559090909090905,
                "pitch": 36,
                "velocity": 101,
                "duration": 0.14999999999999858,
                "tempo": 120.0
            },
            {
                "start_time": 40.60909090909091,
                "end_time": 40.65909090909091,
                "pitch": 36,
                "velocity": 101,
                "duration": 0.04999999999999716,
                "tempo": 120.0
            },
            {
                "start_time": 40.709090909090904,
                "end_time": 40.75909090909091,
                "pitch": 36,
                "velocity": 80,
                "duration": 0.05000000000000426,
                "tempo": 120.0
            },
            {
                "start_time": 40.81136363636364,
                "end_time": 40.961363636363636,
                "pitch": 36,
                "velocity": 101,
                "duration": 0.14999999999999858,
                "tempo": 120.0
            },
            {
                "start_time": 41.01136363636363,
                "end_time": 41.16136363636363,
                "pitch": 36,
                "velocity": 101,
                "duration": 0.14999999999999858,
                "tempo": 120.0
            },
            {
                "start_time": 41.211363636363636,
                "end_time": 41.361363636363635,
                "pitch": 36,
                "velocity": 101,
                "duration": 0.14999999999999858,
                "tempo": 120.0
            },
            {
                "start_time": 41.41136363636363,
                "end_time": 41.461363636363636,
                "pitch": 36,
                "velocity": 101,
                "duration": 0.05000000000000426,
                "tempo": 120.0
            },
            {
                "start_time": 41.51363636363636,
                "end_time": 41.56136363636364,
                "pitch": 36,
                "velocity": 80,
                "duration": 0.04772727272727906,
                "tempo": 120.0
            },
            {
                "start_time": 41.61363636363636,
                "end_time": 41.76136363636363,
                "pitch": 36,
                "velocity": 101,
                "duration": 0.14772727272727337,
                "tempo": 120.0
            },
            {
                "start_time": 41.81363636363636,
                "end_time": 41.861363636363635,
                "pitch": 36,
                "velocity": 101,
                "duration": 0.04772727272727195,
                "tempo": 120.0
            },
            {
                "start_time": 41.913636363636364,
                "end_time": 41.96363636363636,
                "pitch": 36,
                "velocity": 80,
                "duration": 0.04999999999999716,
                "tempo": 120.0
            },
            {
                "start_time": 42.01363636363636,
                "end_time": 42.06363636363636,
                "pitch": 36,
                "velocity": 101,
                "duration": 0.05000000000000426,
                "tempo": 120.0
            },
            {
                "start_time": 42.11363636363636,
                "end_time": 42.26363636363636,
                "pitch": 36,
                "velocity": 101,
                "duration": 0.14999999999999858,
                "tempo": 120.0
            },
            {
                "start_time": 42.31363636363636,
                "end_time": 42.36363636363636,
                "pitch": 36,
                "velocity": 101,
                "duration": 0.04999999999999716,
                "tempo": 120.0
            },
            {
                "start_time": 42.41590909090909,
                "end_time": 42.56363636363636,
                "pitch": 36,
                "velocity": 101,
                "duration": 0.14772727272727337,
                "tempo": 120.0
            },
            {
                "start_time": 42.61590909090909,
                "end_time": 42.81590909090909,
                "pitch": 33,
                "velocity": 101,
                "duration": 0.19999999999999574,
                "tempo": 120.0
            },
            {
                "start_time": 42.81590909090909,
                "end_time": 43.01590909090909,
                "pitch": 28,
                "velocity": 101,
                "duration": 0.20000000000000284,
                "tempo": 120.0
            },
            {
                "start_time": 43.018181818181816,
                "end_time": 43.21818181818182,
                "pitch": 33,
                "velocity": 101,
                "duration": 0.20000000000000284,
                "tempo": 120.0
            },
            {
                "start_time": 42.81590909090909,
                "end_time": 43.21818181818182,
                "pitch": 42,
                "velocity": 101,
                "duration": 0.4022727272727309,
                "tempo": 120.0
            },
            {
                "start_time": 43.21818181818182,
                "end_time": 43.418181818181814,
                "pitch": 40,
                "velocity": 101,
                "duration": 0.19999999999999574,
                "tempo": 120.0
            },
            {
                "start_time": 43.418181818181814,
                "end_time": 43.61818181818182,
                "pitch": 38,
                "velocity": 101,
                "duration": 0.20000000000000284,
                "tempo": 120.0
            },
            {
                "start_time": 43.61818181818182,
                "end_time": 43.81818181818181,
                "pitch": 36,
                "velocity": 101,
                "duration": 0.19999999999999574,
                "tempo": 120.0
            },
            {
                "start_time": 43.61818181818182,
                "end_time": 43.81818181818181,
                "pitch": 36,
                "velocity": 101,
                "duration": 0.19999999999999574,
                "tempo": 120.0
            },
            {
                "start_time": 43.81818181818181,
                "end_time": 43.820454545454545,
                "pitch": 20,
                "velocity": 101,
                "duration": 0.002272727272732311,
                "tempo": 120.0
            },
            {
                "start_time": 43.820454545454545,
                "end_time": 44.018181818181816,
                "pitch": 35,
                "velocity": 101,
                "duration": 0.19772727272727053,
                "tempo": 120.0
            },
            {
                "start_time": 44.018181818181816,
                "end_time": 44.220454545454544,
                "pitch": 33,
                "velocity": 101,
                "duration": 0.20227272727272805,
                "tempo": 120.0
            },
            {
                "start_time": 44.220454545454544,
                "end_time": 44.418181818181814,
                "pitch": 31,
                "velocity": 101,
                "duration": 0.19772727272727053,
                "tempo": 120.0
            },
            {
                "start_time": 44.220454545454544,
                "end_time": 44.418181818181814,
                "pitch": 31,
                "velocity": 101,
                "duration": 0.19772727272727053,
                "tempo": 120.0
            },
            {
                "start_time": 44.418181818181814,
                "end_time": 44.61818181818182,
                "pitch": 26,
                "velocity": 101,
                "duration": 0.20000000000000284,
                "tempo": 120.0
            },
            {
                "start_time": 44.61818181818182,
                "end_time": 44.820454545454545,
                "pitch": 31,
                "velocity": 101,
                "duration": 0.20227272727272805,
                "tempo": 120.0
            },
            {
                "start_time": 44.418181818181814,
                "end_time": 44.82272727272727,
                "pitch": 41,
                "velocity": 101,
                "duration": 0.4045454545454561,
                "tempo": 120.0
            },
            {
                "start_time": 44.820454545454545,
                "end_time": 44.82272727272727,
                "pitch": 41,
                "velocity": 101,
                "duration": 0.0022727272727252057,
                "tempo": 120.0
            },
            {
                "start_time": 44.82272727272727,
                "end_time": 45.02272727272727,
                "pitch": 38,
                "velocity": 101,
                "duration": 0.20000000000000284,
                "tempo": 120.0
            },
            {
                "start_time": 45.02272727272727,
                "end_time": 45.22272727272727,
                "pitch": 36,
                "velocity": 101,
                "duration": 0.19999999999999574,
                "tempo": 120.0
            },
            {
                "start_time": 45.02272727272727,
                "end_time": 45.22272727272727,
                "pitch": 36,
                "velocity": 101,
                "duration": 0.19999999999999574,
                "tempo": 120.0
            },
            {
                "start_time": 45.22272727272727,
                "end_time": 45.425,
                "pitch": 35,
                "velocity": 101,
                "duration": 0.20227272727272805,
                "tempo": 120.0
            },
            {
                "start_time": 45.425,
                "end_time": 45.627272727272725,
                "pitch": 33,
                "velocity": 101,
                "duration": 0.20227272727272805,
                "tempo": 120.0
            },
            {
                "start_time": 45.627272727272725,
                "end_time": 45.834090909090904,
                "pitch": 31,
                "velocity": 101,
                "duration": 0.20681818181817846,
                "tempo": 120.0
            },
            {
                "start_time": 45.62954545454545,
                "end_time": 45.834090909090904,
                "pitch": 31,
                "velocity": 101,
                "duration": 0.20454545454545325,
                "tempo": 120.0
            },
            {
                "start_time": 43.21818181818182,
                "end_time": 45.834090909090904,
                "pitch": 42,
                "velocity": 101,
                "duration": 2.615909090909085,
                "tempo": 120.0
            },
            {
                "start_time": 45.836363636363636,
                "end_time": 46.02954545454545,
                "pitch": 29,
                "velocity": 101,
                "duration": 0.19318181818181301,
                "tempo": 120.0
            },
            {
                "start_time": 46.02954545454545,
                "end_time": 46.22727272727273,
                "pitch": 26,
                "velocity": 101,
                "duration": 0.19772727272727764,
                "tempo": 120.0
            },
            {
                "start_time": 46.02954545454545,
                "end_time": 46.22727272727273,
                "pitch": 26,
                "velocity": 101,
                "duration": 0.19772727272727764,
                "tempo": 120.0
            },
            {
                "start_time": 46.22727272727273,
                "end_time": 46.43181818181818,
                "pitch": 29,
                "velocity": 101,
                "duration": 0.20454545454545325,
                "tempo": 120.0
            },
            {
                "start_time": 46.22727272727273,
                "end_time": 46.43181818181818,
                "pitch": 29,
                "velocity": 101,
                "duration": 0.20454545454545325,
                "tempo": 120.0
            },
            {
                "start_time": 46.43181818181818,
                "end_time": 46.434090909090905,
                "pitch": 24,
                "velocity": 101,
                "duration": 0.0022727272727252057,
                "tempo": 120.0
            },
            {
                "start_time": 45.22272727272727,
                "end_time": 46.63863636363636,
                "pitch": 20,
                "velocity": 101,
                "duration": 1.4159090909090892,
                "tempo": 120.0
            },
            {
                "start_time": 46.434090909090905,
                "end_time": 46.63863636363636,
                "pitch": 36,
                "velocity": 101,
                "duration": 0.20454545454545325,
                "tempo": 120.0
            },
            {
                "start_time": 46.63863636363636,
                "end_time": 46.83863636363636,
                "pitch": 35,
                "velocity": 101,
                "duration": 0.20000000000000284,
                "tempo": 120.0
            },
            {
                "start_time": 46.83863636363636,
                "end_time": 47.038636363636364,
                "pitch": 33,
                "velocity": 101,
                "duration": 0.20000000000000284,
                "tempo": 120.0
            },
            {
                "start_time": 47.038636363636364,
                "end_time": 47.23863636363636,
                "pitch": 31,
                "velocity": 101,
                "duration": 0.19999999999999574,
                "tempo": 120.0
            },
            {
                "start_time": 47.04090909090909,
                "end_time": 47.23863636363636,
                "pitch": 31,
                "velocity": 101,
                "duration": 0.19772727272727053,
                "tempo": 120.0
            },
            {
                "start_time": 45.834090909090904,
                "end_time": 47.23863636363636,
                "pitch": 42,
                "velocity": 101,
                "duration": 1.404545454545456,
                "tempo": 120.0
            },
            {
                "start_time": 44.61818181818182,
                "end_time": 47.44090909090909,
                "pitch": 0,
                "velocity": 101,
                "duration": 2.8227272727272705,
                "tempo": 120.0
            },
            {
                "start_time": 47.23863636363636,
                "end_time": 47.44090909090909,
                "pitch": 29,
                "velocity": 101,
                "duration": 0.20227272727272805,
                "tempo": 120.0
            },
            {
                "start_time": 47.44090909090909,
                "end_time": 47.63863636363636,
                "pitch": 31,
                "velocity": 101,
                "duration": 0.19772727272727053,
                "tempo": 120.0
            },
            {
                "start_time": 47.44090909090909,
                "end_time": 47.83863636363636,
                "pitch": 0,
                "velocity": 101,
                "duration": 0.3977272727272734,
                "tempo": 120.0
            },
            {
                "start_time": 47.63863636363636,
                "end_time": 47.83863636363636,
                "pitch": 26,
                "velocity": 101,
                "duration": 0.20000000000000284,
                "tempo": 120.0
            },
            {
                "start_time": 47.83863636363636,
                "end_time": 48.04090909090909,
                "pitch": 31,
                "velocity": 101,
                "duration": 0.20227272727272805,
                "tempo": 120.0
            },
            {
                "start_time": 47.63863636363636,
                "end_time": 48.04090909090909,
                "pitch": 41,
                "velocity": 101,
                "duration": 0.4022727272727309,
                "tempo": 120.0
            },
            {
                "start_time": 48.04090909090909,
                "end_time": 48.24090909090909,
                "pitch": 38,
                "velocity": 101,
                "duration": 0.20000000000000284,
                "tempo": 120.0
            },
            {
                "start_time": 46.63863636363636,
                "end_time": 48.44318181818181,
                "pitch": 20,
                "velocity": 101,
                "duration": 1.8045454545454547,
                "tempo": 120.0
            },
            {
                "start_time": 48.24090909090909,
                "end_time": 48.44318181818181,
                "pitch": 36,
                "velocity": 101,
                "duration": 0.20227272727272094,
                "tempo": 120.0
            },
            {
                "start_time": 48.24090909090909,
                "end_time": 48.44318181818181,
                "pitch": 36,
                "velocity": 101,
                "duration": 0.20227272727272094,
                "tempo": 120.0
            },
            {
                "start_time": 48.44318181818181,
                "end_time": 48.643181818181816,
                "pitch": 35,
                "velocity": 101,
                "duration": 0.20000000000000284,
                "tempo": 120.0
            },
            {
                "start_time": 48.643181818181816,
                "end_time": 48.845454545454544,
                "pitch": 33,
                "velocity": 101,
                "duration": 0.20227272727272805,
                "tempo": 120.0
            },
            {
                "start_time": 48.845454545454544,
                "end_time": 49.04545454545454,
                "pitch": 35,
                "velocity": 101,
                "duration": 0.19999999999999574,
                "tempo": 120.0
            },
            {
                "start_time": 49.04545454545454,
                "end_time": 49.24318181818182,
                "pitch": 33,
                "velocity": 101,
                "duration": 0.19772727272727764,
                "tempo": 120.0
            },
            {
                "start_time": 47.23863636363636,
                "end_time": 49.24318181818182,
                "pitch": 42,
                "velocity": 101,
                "duration": 2.0045454545454575,
                "tempo": 120.0
            },
            {
                "start_time": 49.24318181818182,
                "end_time": 49.44318181818181,
                "pitch": 28,
                "velocity": 101,
                "duration": 0.19999999999999574,
                "tempo": 120.0
            },
            {
                "start_time": 49.445454545454545,
                "end_time": 49.64545454545454,
                "pitch": 33,
                "velocity": 101,
                "duration": 0.19999999999999574,
                "tempo": 120.0
            },
            {
                "start_time": 49.24318181818182,
                "end_time": 49.64545454545454,
                "pitch": 42,
                "velocity": 101,
                "duration": 0.4022727272727238,
                "tempo": 120.0
            },
            {
                "start_time": 49.64545454545454,
                "end_time": 49.845454545454544,
                "pitch": 40,
                "velocity": 101,
                "duration": 0.20000000000000284,
                "tempo": 120.0
            },
            {
                "start_time": 49.845454545454544,
                "end_time": 50.04545454545454,
                "pitch": 38,
                "velocity": 101,
                "duration": 0.19999999999999574,
                "tempo": 120.0
            },
            {
                "start_time": 50.04545454545454,
                "end_time": 50.24545454545454,
                "pitch": 36,
                "velocity": 101,
                "duration": 0.20000000000000284,
                "tempo": 120.0
            },
            {
                "start_time": 50.04545454545454,
                "end_time": 50.24545454545454,
                "pitch": 36,
                "velocity": 101,
                "duration": 0.20000000000000284,
                "tempo": 120.0
            },
            {
                "start_time": 48.44318181818181,
                "end_time": 50.24772727272727,
                "pitch": 20,
                "velocity": 101,
                "duration": 1.8045454545454547,
                "tempo": 120.0
            },
            {
                "start_time": 50.24545454545454,
                "end_time": 50.24772727272727,
                "pitch": 20,
                "velocity": 101,
                "duration": 0.0022727272727252057,
                "tempo": 120.0
            },
            {
                "start_time": 50.24772727272727,
                "end_time": 50.44772727272727,
                "pitch": 35,
                "velocity": 101,
                "duration": 0.20000000000000284,
                "tempo": 120.0
            },
            {
                "start_time": 50.44772727272727,
                "end_time": 50.65,
                "pitch": 33,
                "velocity": 101,
                "duration": 0.20227272727272805,
                "tempo": 120.0
            },
            {
                "start_time": 50.65,
                "end_time": 50.84772727272727,
                "pitch": 31,
                "velocity": 101,
                "duration": 0.19772727272727053,
                "tempo": 120.0
            },
            {
                "start_time": 50.65,
                "end_time": 50.84772727272727,
                "pitch": 31,
                "velocity": 101,
                "duration": 0.19772727272727053,
                "tempo": 120.0
            },
            {
                "start_time": 48.04090909090909,
                "end_time": 50.84772727272727,
                "pitch": 41,
                "velocity": 101,
                "duration": 2.80681818181818,
                "tempo": 120.0
            },
            {
                "start_time": 47.83863636363636,
                "end_time": 51.05,
                "pitch": 0,
                "velocity": 101,
                "duration": 3.211363636363636,
                "tempo": 120.0
            },
            {
                "start_time": 50.84772727272727,
                "end_time": 51.05,
                "pitch": 26,
                "velocity": 101,
                "duration": 0.20227272727272805,
                "tempo": 120.0
            },
            {
                "start_time": 51.05,
                "end_time": 51.25,
                "pitch": 31,
                "velocity": 101,
                "duration": 0.20000000000000284,
                "tempo": 120.0
            },
            {
                "start_time": 50.84772727272727,
                "end_time": 51.25,
                "pitch": 41,
                "velocity": 101,
                "duration": 0.4022727272727309,
                "tempo": 120.0
            },
            {
                "start_time": 51.25,
                "end_time": 51.449999999999996,
                "pitch": 38,
                "velocity": 101,
                "duration": 0.19999999999999574,
                "tempo": 120.0
            },
            {
                "start_time": 51.449999999999996,
                "end_time": 51.65,
                "pitch": 36,
                "velocity": 101,
                "duration": 0.20000000000000284,
                "tempo": 120.0
            },
            {
                "start_time": 51.449999999999996,
                "end_time": 51.65,
                "pitch": 36,
                "velocity": 101,
                "duration": 0.20000000000000284,
                "tempo": 120.0
            },
            {
                "start_time": 51.65,
                "end_time": 51.85227272727273,
                "pitch": 35,
                "velocity": 101,
                "duration": 0.20227272727272805,
                "tempo": 120.0
            },
            {
                "start_time": 51.85227272727273,
                "end_time": 52.05,
                "pitch": 33,
                "velocity": 101,
                "duration": 0.19772727272727053,
                "tempo": 120.0
            },
            {
                "start_time": 52.05,
                "end_time": 52.252272727272725,
                "pitch": 31,
                "velocity": 101,
                "duration": 0.20227272727272805,
                "tempo": 120.0
            },
            {
                "start_time": 52.05,
                "end_time": 52.252272727272725,
                "pitch": 31,
                "velocity": 101,
                "duration": 0.20227272727272805,
                "tempo": 120.0
            },
            {
                "start_time": 49.64545454545454,
                "end_time": 52.252272727272725,
                "pitch": 42,
                "velocity": 101,
                "duration": 2.606818181818184,
                "tempo": 120.0
            },
            {
                "start_time": 52.252272727272725,
                "end_time": 52.45227272727273,
                "pitch": 29,
                "velocity": 101,
                "duration": 0.20000000000000284,
                "tempo": 120.0
            },
            {
                "start_time": 52.45227272727273,
                "end_time": 52.65454545454545,
                "pitch": 26,
                "velocity": 101,
                "duration": 0.20227272727272094,
                "tempo": 120.0
            },
            {
                "start_time": 52.45227272727273,
                "end_time": 52.65454545454545,
                "pitch": 26,
                "velocity": 101,
                "duration": 0.20227272727272094,
                "tempo": 120.0
            },
            {
                "start_time": 52.65454545454545,
                "end_time": 52.85454545454545,
                "pitch": 29,
                "velocity": 101,
                "duration": 0.20000000000000284,
                "tempo": 120.0
            },
            {
                "start_time": 52.65454545454545,
                "end_time": 52.85454545454545,
                "pitch": 29,
                "velocity": 101,
                "duration": 0.20000000000000284,
                "tempo": 120.0
            },
            {
                "start_time": 51.65,
                "end_time": 53.054545454545455,
                "pitch": 20,
                "velocity": 101,
                "duration": 1.404545454545456,
                "tempo": 120.0
            },
            {
                "start_time": 52.85454545454545,
                "end_time": 53.054545454545455,
                "pitch": 36,
                "velocity": 101,
                "duration": 0.20000000000000284,
                "tempo": 120.0
            },
            {
                "start_time": 53.054545454545455,
                "end_time": 53.25454545454545,
                "pitch": 35,
                "velocity": 101,
                "duration": 0.19999999999999574,
                "tempo": 120.0
            },
            {
                "start_time": 53.25454545454545,
                "end_time": 53.45681818181818,
                "pitch": 33,
                "velocity": 101,
                "duration": 0.20227272727272805,
                "tempo": 120.0
            },
            {
                "start_time": 53.45681818181818,
                "end_time": 53.66136363636363,
                "pitch": 31,
                "velocity": 101,
                "duration": 0.20454545454545325,
                "tempo": 120.0
            },
            {
                "start_time": 53.45681818181818,
                "end_time": 53.66136363636363,
                "pitch": 31,
                "velocity": 101,
                "duration": 0.20454545454545325,
                "tempo": 120.0
            },
            {
                "start_time": 52.252272727272725,
                "end_time": 53.66136363636363,
                "pitch": 42,
                "velocity": 101,
                "duration": 1.4090909090909065,
                "tempo": 120.0
            },
            {
                "start_time": 51.05,
                "end_time": 53.86818181818182,
                "pitch": 0,
                "velocity": 101,
                "duration": 2.81818181818182,
                "tempo": 120.0
            },
            {
                "start_time": 53.66136363636363,
                "end_time": 53.86818181818182,
                "pitch": 29,
                "velocity": 101,
                "duration": 0.20681818181818556,
                "tempo": 120.0
            },
            {
                "start_time": 53.86818181818182,
                "end_time": 54.06590909090909,
                "pitch": 31,
                "velocity": 101,
                "duration": 0.19772727272727053,
                "tempo": 120.0
            },
            {
                "start_time": 51.25,
                "end_time": 54.06590909090909,
                "pitch": 41,
                "velocity": 101,
                "duration": 2.815909090909088,
                "tempo": 120.0
            },
            {
                "start_time": 53.86818181818182,
                "end_time": 54.26590909090909,
                "pitch": 0,
                "velocity": 101,
                "duration": 0.3977272727272734,
                "tempo": 120.0
            },
            {
                "start_time": 54.06590909090909,
                "end_time": 54.26590909090909,
                "pitch": 26,
                "velocity": 101,
                "duration": 0.20000000000000284,
                "tempo": 120.0
            },
            {
                "start_time": 54.26590909090909,
                "end_time": 54.465909090909086,
                "pitch": 31,
                "velocity": 101,
                "duration": 0.19999999999999574,
                "tempo": 120.0
            },
            {
                "start_time": 54.06590909090909,
                "end_time": 54.46818181818182,
                "pitch": 41,
                "velocity": 101,
                "duration": 0.4022727272727309,
                "tempo": 120.0
            },
            {
                "start_time": 54.465909090909086,
                "end_time": 54.46818181818182,
                "pitch": 41,
                "velocity": 101,
                "duration": 0.002272727272732311,
                "tempo": 120.0
            },
            {
                "start_time": 54.46818181818182,
                "end_time": 54.668181818181814,
                "pitch": 38,
                "velocity": 101,
                "duration": 0.19999999999999574,
                "tempo": 120.0
            },
            {
                "start_time": 53.054545454545455,
                "end_time": 54.86818181818182,
                "pitch": 20,
                "velocity": 101,
                "duration": 1.8136363636363626,
                "tempo": 120.0
            },
            {
                "start_time": 54.668181818181814,
                "end_time": 54.86818181818182,
                "pitch": 36,
                "velocity": 101,
                "duration": 0.20000000000000284,
                "tempo": 120.0
            },
            {
                "start_time": 54.668181818181814,
                "end_time": 54.86818181818182,
                "pitch": 36,
                "velocity": 101,
                "duration": 0.20000000000000284,
                "tempo": 120.0
            },
            {
                "start_time": 54.86818181818182,
                "end_time": 55.06818181818181,
                "pitch": 35,
                "velocity": 101,
                "duration": 0.19999999999999574,
                "tempo": 120.0
            },
            {
                "start_time": 55.06818181818181,
                "end_time": 55.27045454545454,
                "pitch": 33,
                "velocity": 101,
                "duration": 0.20227272727272805,
                "tempo": 120.0
            },
            {
                "start_time": 55.27045454545454,
                "end_time": 55.470454545454544,
                "pitch": 35,
                "velocity": 101,
                "duration": 0.20000000000000284,
                "tempo": 120.0
            },
            {
                "start_time": 55.470454545454544,
                "end_time": 55.61818181818182,
                "pitch": 33,
                "velocity": 101,
                "duration": 0.14772727272727337,
                "tempo": 120.0
            },
            {
                "start_time": 55.67045454545454,
                "end_time": 55.720454545454544,
                "pitch": 45,
                "velocity": 101,
                "duration": 0.05000000000000426,
                "tempo": 120.0
            },
            {
                "start_time": 55.77045454545454,
                "end_time": 55.820454545454545,
                "pitch": 33,
                "velocity": 101,
                "duration": 0.05000000000000426,
                "tempo": 120.0
            },
            {
                "start_time": 55.87272727272727,
                "end_time": 55.92045454545454,
                "pitch": 45,
                "velocity": 101,
                "duration": 0.04772727272727195,
                "tempo": 120.0
            },
            {
                "start_time": 55.97272727272727,
                "end_time": 56.02045454545454,
                "pitch": 33,
                "velocity": 80,
                "duration": 0.04772727272727195,
                "tempo": 120.0
            },
            {
                "start_time": 56.07272727272727,
                "end_time": 56.220454545454544,
                "pitch": 33,
                "velocity": 101,
                "duration": 0.14772727272727337,
                "tempo": 120.0
            },
            {
                "start_time": 56.27272727272727,
                "end_time": 56.42272727272727,
                "pitch": 33,
                "velocity": 101,
                "duration": 0.14999999999999858,
                "tempo": 120.0
            },
            {
                "start_time": 56.47272727272727,
                "end_time": 56.62272727272727,
                "pitch": 33,
                "velocity": 101,
                "duration": 0.14999999999999858,
                "tempo": 120.0
            },
            {
                "start_time": 56.67272727272727,
                "end_time": 56.72272727272727,
                "pitch": 45,
                "velocity": 101,
                "duration": 0.04999999999999716,
                "tempo": 120.0
            },
            {
                "start_time": 56.77272727272727,
                "end_time": 56.82272727272727,
                "pitch": 33,
                "velocity": 80,
                "duration": 0.04999999999999716,
                "tempo": 120.0
            },
            {
                "start_time": 56.875,
                "end_time": 57.02272727272727,
                "pitch": 33,
                "velocity": 101,
                "duration": 0.14772727272727337,
                "tempo": 120.0
            },
            {
                "start_time": 57.074999999999996,
                "end_time": 57.22272727272727,
                "pitch": 33,
                "velocity": 101,
                "duration": 0.14772727272727337,
                "tempo": 120.0
            },
            {
                "start_time": 57.275,
                "end_time": 57.32272727272727,
                "pitch": 45,
                "velocity": 101,
                "duration": 0.04772727272727195,
                "tempo": 120.0
            },
            {
                "start_time": 57.37272727272727,
                "end_time": 57.42272727272727,
                "pitch": 33,
                "velocity": 101,
                "duration": 0.05000000000000426,
                "tempo": 120.0
            },
            {
                "start_time": 57.474999999999994,
                "end_time": 57.52272727272727,
                "pitch": 45,
                "velocity": 101,
                "duration": 0.04772727272727906,
                "tempo": 120.0
            },
            {
                "start_time": 57.574999999999996,
                "end_time": 57.625,
                "pitch": 33,
                "velocity": 80,
                "duration": 0.05000000000000426,
                "tempo": 120.0
            },
            {
                "start_time": 57.675,
                "end_time": 57.824999999999996,
                "pitch": 33,
                "velocity": 101,
                "duration": 0.14999999999999858,
                "tempo": 120.0
            },
            {
                "start_time": 57.877272727272725,
                "end_time": 58.027272727272724,
                "pitch": 33,
                "velocity": 101,
                "duration": 0.14999999999999858,
                "tempo": 120.0
            },
            {
                "start_time": 58.07727272727272,
                "end_time": 58.127272727272725,
                "pitch": 45,
                "velocity": 101,
                "duration": 0.05000000000000426,
                "tempo": 120.0
            },
            {
                "start_time": 58.17727272727272,
                "end_time": 58.22727272727273,
                "pitch": 33,
                "velocity": 101,
                "duration": 0.05000000000000426,
                "tempo": 120.0
            },
            {
                "start_time": 58.277272727272724,
                "end_time": 58.32727272727272,
                "pitch": 45,
                "velocity": 101,
                "duration": 0.04999999999999716,
                "tempo": 120.0
            },
            {
                "start_time": 58.377272727272725,
                "end_time": 58.42727272727272,
                "pitch": 45,
                "velocity": 101,
                "duration": 0.04999999999999716,
                "tempo": 120.0
            },
            {
                "start_time": 58.47727272727273,
                "end_time": 58.627272727272725,
                "pitch": 33,
                "velocity": 101,
                "duration": 0.14999999999999858,
                "tempo": 120.0
            },
            {
                "start_time": 58.679545454545455,
                "end_time": 58.82727272727272,
                "pitch": 33,
                "velocity": 101,
                "duration": 0.14772727272726627,
                "tempo": 120.0
            },
            {
                "start_time": 58.87954545454545,
                "end_time": 58.92727272727272,
                "pitch": 45,
                "velocity": 101,
                "duration": 0.04772727272727195,
                "tempo": 120.0
            },
            {
                "start_time": 58.97954545454545,
                "end_time": 59.027272727272724,
                "pitch": 33,
                "velocity": 101,
                "duration": 0.04772727272727195,
                "tempo": 120.0
            },
            {
                "start_time": 59.07954545454545,
                "end_time": 59.127272727272725,
                "pitch": 45,
                "velocity": 101,
                "duration": 0.04772727272727195,
                "tempo": 120.0
            },
            {
                "start_time": 59.179545454545455,
                "end_time": 59.22727272727273,
                "pitch": 33,
                "velocity": 80,
                "duration": 0.04772727272727195,
                "tempo": 120.0
            },
            {
                "start_time": 59.27954545454545,
                "end_time": 59.42727272727272,
                "pitch": 33,
                "velocity": 101,
                "duration": 0.14772727272727337,
                "tempo": 120.0
            },
            {
                "start_time": 59.47954545454545,
                "end_time": 59.62954545454545,
                "pitch": 33,
                "velocity": 101,
                "duration": 0.14999999999999858,
                "tempo": 120.0
            },
            {
                "start_time": 59.68181818181818,
                "end_time": 59.83181818181818,
                "pitch": 33,
                "velocity": 101,
                "duration": 0.14999999999999858,
                "tempo": 120.0
            },
            {
                "start_time": 59.881818181818176,
                "end_time": 59.93181818181818,
                "pitch": 45,
                "velocity": 101,
                "duration": 0.05000000000000426,
                "tempo": 120.0
            },
            {
                "start_time": 59.98181818181818,
                "end_time": 60.03181818181818,
                "pitch": 33,
                "velocity": 80,
                "duration": 0.05000000000000426,
                "tempo": 120.0
            },
            {
                "start_time": 60.08181818181818,
                "end_time": 60.23181818181818,
                "pitch": 33,
                "velocity": 101,
                "duration": 0.14999999999999858,
                "tempo": 120.0
            },
            {
                "start_time": 60.28409090909091,
                "end_time": 60.43181818181818,
                "pitch": 33,
                "velocity": 101,
                "duration": 0.14772727272727337,
                "tempo": 120.0
            },
            {
                "start_time": 60.48409090909091,
                "end_time": 60.53181818181818,
                "pitch": 45,
                "velocity": 101,
                "duration": 0.04772727272727195,
                "tempo": 120.0
            },
            {
                "start_time": 60.584090909090904,
                "end_time": 60.631818181818176,
                "pitch": 33,
                "velocity": 101,
                "duration": 0.04772727272727195,
                "tempo": 120.0
            },
            {
                "start_time": 60.684090909090905,
                "end_time": 60.73181818181818,
                "pitch": 45,
                "velocity": 101,
                "duration": 0.04772727272727195,
                "tempo": 120.0
            },
            {
                "start_time": 60.78409090909091,
                "end_time": 60.83181818181818,
                "pitch": 33,
                "velocity": 80,
                "duration": 0.04772727272727195,
                "tempo": 120.0
            },
            {
                "start_time": 60.88409090909091,
                "end_time": 61.03409090909091,
                "pitch": 33,
                "velocity": 101,
                "duration": 0.14999999999999858,
                "tempo": 120.0
            },
            {
                "start_time": 61.084090909090904,
                "end_time": 61.23409090909091,
                "pitch": 33,
                "velocity": 101,
                "duration": 0.15000000000000568,
                "tempo": 120.0
            },
            {
                "start_time": 61.28409090909091,
                "end_time": 61.334090909090904,
                "pitch": 45,
                "velocity": 101,
                "duration": 0.04999999999999716,
                "tempo": 120.0
            },
            {
                "start_time": 61.38409090909091,
                "end_time": 61.434090909090905,
                "pitch": 33,
                "velocity": 101,
                "duration": 0.04999999999999716,
                "tempo": 120.0
            },
            {
                "start_time": 61.48409090909091,
                "end_time": 61.53409090909091,
                "pitch": 45,
                "velocity": 101,
                "duration": 0.04999999999999716,
                "tempo": 120.0
            },
            {
                "start_time": 61.586363636363636,
                "end_time": 61.63863636363636,
                "pitch": 45,
                "velocity": 101,
                "duration": 0.052272727272722364,
                "tempo": 120.0
            },
            {
                "start_time": 61.69090909090909,
                "end_time": 61.84318181818182,
                "pitch": 33,
                "velocity": 101,
                "duration": 0.1522727272727309,
                "tempo": 120.0
            },
            {
                "start_time": 61.897727272727266,
                "end_time": 62.04545454545454,
                "pitch": 33,
                "velocity": 101,
                "duration": 0.14772727272727337,
                "tempo": 120.0
            },
            {
                "start_time": 62.09772727272727,
                "end_time": 62.14545454545454,
                "pitch": 45,
                "velocity": 101,
                "duration": 0.04772727272727195,
                "tempo": 120.0
            },
            {
                "start_time": 62.195454545454545,
                "end_time": 62.24545454545454,
                "pitch": 33,
                "velocity": 101,
                "duration": 0.04999999999999716,
                "tempo": 120.0
            },
            {
                "start_time": 62.29772727272727,
                "end_time": 62.345454545454544,
                "pitch": 45,
                "velocity": 101,
                "duration": 0.04772727272727195,
                "tempo": 120.0
            },
            {
                "start_time": 62.397727272727266,
                "end_time": 62.445454545454545,
                "pitch": 33,
                "velocity": 80,
                "duration": 0.04772727272727906,
                "tempo": 120.0
            },
            {
                "start_time": 62.49772727272727,
                "end_time": 62.64545454545454,
                "pitch": 33,
                "velocity": 101,
                "duration": 0.14772727272727337,
                "tempo": 120.0
            },
            {
                "start_time": 62.69772727272727,
                "end_time": 62.845454545454544,
                "pitch": 33,
                "velocity": 101,
                "duration": 0.14772727272727337,
                "tempo": 120.0
            },
            {
                "start_time": 62.897727272727266,
                "end_time": 63.04772727272727,
                "pitch": 33,
                "velocity": 101,
                "duration": 0.15000000000000568,
                "tempo": 120.0
            },
            {
                "start_time": 63.09772727272727,
                "end_time": 63.147727272727266,
                "pitch": 45,
                "velocity": 101,
                "duration": 0.04999999999999716,
                "tempo": 120.0
            },
            {
                "start_time": 63.19772727272727,
                "end_time": 63.24772727272727,
                "pitch": 33,
                "velocity": 80,
                "duration": 0.04999999999999716,
                "tempo": 120.0
            },
            {
                "start_time": 63.3,
                "end_time": 63.449999999999996,
                "pitch": 33,
                "velocity": 101,
                "duration": 0.14999999999999858,
                "tempo": 120.0
            },
            {
                "start_time": 63.502272727272725,
                "end_time": 63.65,
                "pitch": 33,
                "velocity": 101,
                "duration": 0.14772727272727337,
                "tempo": 120.0
            },
            {
                "start_time": 63.70227272727272,
                "end_time": 63.75,
                "pitch": 45,
                "velocity": 101,
                "duration": 0.04772727272727906,
                "tempo": 120.0
            },
            {
                "start_time": 63.8,
                "end_time": 63.849999999999994,
                "pitch": 33,
                "velocity": 101,
                "duration": 0.04999999999999716,
                "tempo": 120.0
            },
            {
                "start_time": 63.902272727272724,
                "end_time": 63.949999999999996,
                "pitch": 45,
                "velocity": 101,
                "duration": 0.04772727272727195,
                "tempo": 120.0
            },
            {
                "start_time": 64.00227272727273,
                "end_time": 64.05,
                "pitch": 33,
                "velocity": 80,
                "duration": 0.04772727272727195,
                "tempo": 120.0
            },
            {
                "start_time": 64.10227272727272,
                "end_time": 64.25,
                "pitch": 33,
                "velocity": 101,
                "duration": 0.14772727272728048,
                "tempo": 120.0
            },
            {
                "start_time": 64.30227272727272,
                "end_time": 64.45,
                "pitch": 33,
                "velocity": 101,
                "duration": 0.14772727272728048,
                "tempo": 120.0
            },
            {
                "start_time": 64.50227272727273,
                "end_time": 64.55227272727272,
                "pitch": 45,
                "velocity": 101,
                "duration": 0.04999999999999716,
                "tempo": 120.0
            },
            {
                "start_time": 64.60227272727272,
                "end_time": 64.65227272727273,
                "pitch": 33,
                "velocity": 101,
                "duration": 0.05000000000001137,
                "tempo": 120.0
            },
            {
                "start_time": 64.70227272727273,
                "end_time": 64.75227272727273,
                "pitch": 45,
                "velocity": 101,
                "duration": 0.04999999999999716,
                "tempo": 120.0
            },
            {
                "start_time": 64.80227272727272,
                "end_time": 64.85227272727272,
                "pitch": 45,
                "velocity": 101,
                "duration": 0.04999999999999716,
                "tempo": 120.0
            },
            {
                "start_time": 64.90454545454546,
                "end_time": 65.05454545454545,
                "pitch": 33,
                "velocity": 101,
                "duration": 0.14999999999999147,
                "tempo": 120.0
            },
            {
                "start_time": 65.10681818181818,
                "end_time": 65.25454545454545,
                "pitch": 33,
                "velocity": 101,
                "duration": 0.14772727272726627,
                "tempo": 120.0
            },
            {
                "start_time": 65.30681818181817,
                "end_time": 65.35454545454544,
                "pitch": 45,
                "velocity": 101,
                "duration": 0.04772727272727195,
                "tempo": 120.0
            },
            {
                "start_time": 65.40681818181818,
                "end_time": 65.45454545454545,
                "pitch": 33,
                "velocity": 101,
                "duration": 0.04772727272727195,
                "tempo": 120.0
            },
            {
                "start_time": 65.50681818181818,
                "end_time": 65.55454545454545,
                "pitch": 45,
                "velocity": 101,
                "duration": 0.04772727272727195,
                "tempo": 120.0
            },
            {
                "start_time": 65.60681818181818,
                "end_time": 65.65681818181818,
                "pitch": 33,
                "velocity": 80,
                "duration": 0.04999999999999716,
                "tempo": 120.0
            },
            {
                "start_time": 65.70681818181818,
                "end_time": 65.85681818181818,
                "pitch": 33,
                "velocity": 101,
                "duration": 0.15000000000000568,
                "tempo": 120.0
            },
            {
                "start_time": 65.9090909090909,
                "end_time": 66.05909090909091,
                "pitch": 33,
                "velocity": 101,
                "duration": 0.15000000000000568,
                "tempo": 120.0
            },
            {
                "start_time": 66.11136363636363,
                "end_time": 66.26136363636364,
                "pitch": 33,
                "velocity": 101,
                "duration": 0.15000000000000568,
                "tempo": 120.0
            },
            {
                "start_time": 66.31136363636364,
                "end_time": 66.36136363636363,
                "pitch": 45,
                "velocity": 101,
                "duration": 0.04999999999999716,
                "tempo": 120.0
            },
            {
                "start_time": 66.41363636363636,
                "end_time": 66.46136363636363,
                "pitch": 33,
                "velocity": 80,
                "duration": 0.04772727272727195,
                "tempo": 120.0
            },
            {
                "start_time": 66.51363636363637,
                "end_time": 66.66136363636363,
                "pitch": 33,
                "velocity": 101,
                "duration": 0.14772727272726627,
                "tempo": 120.0
            },
            {
                "start_time": 66.71363636363635,
                "end_time": 66.86363636363636,
                "pitch": 33,
                "velocity": 101,
                "duration": 0.15000000000000568,
                "tempo": 120.0
            },
            {
                "start_time": 66.91363636363636,
                "end_time": 66.96363636363635,
                "pitch": 45,
                "velocity": 101,
                "duration": 0.04999999999999716,
                "tempo": 120.0
            },
            {
                "start_time": 67.01590909090909,
                "end_time": 67.06590909090909,
                "pitch": 33,
                "velocity": 101,
                "duration": 0.04999999999999716,
                "tempo": 120.0
            },
            {
                "start_time": 67.11590909090908,
                "end_time": 67.16590909090908,
                "pitch": 45,
                "velocity": 101,
                "duration": 0.04999999999999716,
                "tempo": 120.0
            },
            {
                "start_time": 67.2159090909091,
                "end_time": 67.26590909090909,
                "pitch": 33,
                "velocity": 80,
                "duration": 0.04999999999999716,
                "tempo": 120.0
            },
            {
                "start_time": 67.31818181818181,
                "end_time": 67.4659090909091,
                "pitch": 33,
                "velocity": 101,
                "duration": 0.14772727272728048,
                "tempo": 120.0
            },
            {
                "start_time": 67.51590909090909,
                "end_time": 67.66590909090908,
                "pitch": 33,
                "velocity": 101,
                "duration": 0.14999999999999147,
                "tempo": 120.0
            },
            {
                "start_time": 67.71818181818182,
                "end_time": 67.76818181818182,
                "pitch": 45,
                "velocity": 101,
                "duration": 0.04999999999999716,
                "tempo": 120.0
            },
            {
                "start_time": 67.81818181818181,
                "end_time": 67.86818181818181,
                "pitch": 33,
                "velocity": 101,
                "duration": 0.04999999999999716,
                "tempo": 120.0
            },
            {
                "start_time": 67.92045454545455,
                "end_time": 67.97045454545454,
                "pitch": 45,
                "velocity": 101,
                "duration": 0.04999999999999716,
                "tempo": 120.0
            },
            {
                "start_time": 68.02272727272727,
                "end_time": 68.07272727272726,
                "pitch": 45,
                "velocity": 101,
                "duration": 0.04999999999999716,
                "tempo": 120.0
            },
            {
                "start_time": 68.125,
                "end_time": 68.27954545454546,
                "pitch": 33,
                "velocity": 101,
                "duration": 0.1545454545454561,
                "tempo": 120.0
            },
            {
                "start_time": 68.3340909090909,
                "end_time": 68.53181818181818,
                "pitch": 36,
                "velocity": 101,
                "duration": 0.19772727272727764,
                "tempo": 120.0
            },
            {
                "start_time": 68.53181818181818,
                "end_time": 68.73409090909091,
                "pitch": 48,
                "velocity": 101,
                "duration": 0.20227272727272805,
                "tempo": 120.0
            },
            {
                "start_time": 68.73409090909091,
                "end_time": 68.93636363636364,
                "pitch": 36,
                "velocity": 101,
                "duration": 0.20227272727272805,
                "tempo": 120.0
            },
            {
                "start_time": 68.93636363636364,
                "end_time": 69.1340909090909,
                "pitch": 48,
                "velocity": 101,
                "duration": 0.19772727272726343,
                "tempo": 120.0
            },
            {
                "start_time": 69.13636363636363,
                "end_time": 69.33181818181818,
                "pitch": 36,
                "velocity": 101,
                "duration": 0.19545454545455243,
                "tempo": 120.0
            },
            {
                "start_time": 69.33181818181818,
                "end_time": 69.52727272727273,
                "pitch": 48,
                "velocity": 101,
                "duration": 0.19545454545455243,
                "tempo": 120.0
            },
            {
                "start_time": 69.52727272727273,
                "end_time": 69.73409090909091,
                "pitch": 36,
                "velocity": 101,
                "duration": 0.20681818181817846,
                "tempo": 120.0
            },
            {
                "start_time": 69.73409090909091,
                "end_time": 69.94090909090909,
                "pitch": 48,
                "velocity": 101,
                "duration": 0.20681818181817846,
                "tempo": 120.0
            },
            {
                "start_time": 69.94090909090909,
                "end_time": 70.13863636363637,
                "pitch": 36,
                "velocity": 101,
                "duration": 0.19772727272727764,
                "tempo": 120.0
            },
            {
                "start_time": 70.13863636363637,
                "end_time": 70.3409090909091,
                "pitch": 48,
                "velocity": 101,
                "duration": 0.20227272727272805,
                "tempo": 120.0
            },
            {
                "start_time": 70.3409090909091,
                "end_time": 70.54090909090908,
                "pitch": 36,
                "velocity": 101,
                "duration": 0.19999999999998863,
                "tempo": 120.0
            },
            {
                "start_time": 70.54090909090908,
                "end_time": 70.74318181818181,
                "pitch": 48,
                "velocity": 101,
                "duration": 0.20227272727272805,
                "tempo": 120.0
            },
            {
                "start_time": 70.74318181818181,
                "end_time": 70.94318181818181,
                "pitch": 36,
                "velocity": 101,
                "duration": 0.20000000000000284,
                "tempo": 120.0
            },
            {
                "start_time": 70.94318181818181,
                "end_time": 71.14318181818182,
                "pitch": 48,
                "velocity": 101,
                "duration": 0.20000000000000284,
                "tempo": 120.0
            },
            {
                "start_time": 71.14318181818182,
                "end_time": 71.34545454545454,
                "pitch": 36,
                "velocity": 101,
                "duration": 0.20227272727272805,
                "tempo": 120.0
            },
            {
                "start_time": 71.34545454545454,
                "end_time": 71.54772727272727,
                "pitch": 48,
                "velocity": 101,
                "duration": 0.20227272727272805,
                "tempo": 120.0
            },
            {
                "start_time": 71.54772727272727,
                "end_time": 71.74772727272727,
                "pitch": 33,
                "velocity": 101,
                "duration": 0.20000000000000284,
                "tempo": 120.0
            },
            {
                "start_time": 71.74772727272727,
                "end_time": 71.95,
                "pitch": 45,
                "velocity": 101,
                "duration": 0.20227272727272805,
                "tempo": 120.0
            },
            {
                "start_time": 71.95,
                "end_time": 72.14999999999999,
                "pitch": 33,
                "velocity": 101,
                "duration": 0.19999999999998863,
                "tempo": 120.0
            },
            {
                "start_time": 72.14999999999999,
                "end_time": 72.35,
                "pitch": 45,
                "velocity": 101,
                "duration": 0.20000000000000284,
                "tempo": 120.0
            },
            {
                "start_time": 72.35,
                "end_time": 72.55227272727272,
                "pitch": 33,
                "velocity": 101,
                "duration": 0.20227272727272805,
                "tempo": 120.0
            },
            {
                "start_time": 72.55227272727272,
                "end_time": 72.75454545454545,
                "pitch": 45,
                "velocity": 101,
                "duration": 0.20227272727272805,
                "tempo": 120.0
            },
            {
                "start_time": 72.75454545454545,
                "end_time": 72.95454545454545,
                "pitch": 33,
                "velocity": 101,
                "duration": 0.20000000000000284,
                "tempo": 120.0
            },
            {
                "start_time": 72.95454545454545,
                "end_time": 73.15454545454546,
                "pitch": 45,
                "velocity": 101,
                "duration": 0.20000000000000284,
                "tempo": 120.0
            },
            {
                "start_time": 73.15454545454546,
                "end_time": 73.35454545454544,
                "pitch": 33,
                "velocity": 101,
                "duration": 0.19999999999998863,
                "tempo": 120.0
            },
            {
                "start_time": 73.35454545454544,
                "end_time": 73.55909090909091,
                "pitch": 45,
                "velocity": 101,
                "duration": 0.20454545454546746,
                "tempo": 120.0
            },
            {
                "start_time": 73.55909090909091,
                "end_time": 73.7590909090909,
                "pitch": 33,
                "velocity": 101,
                "duration": 0.19999999999998863,
                "tempo": 120.0
            },
            {
                "start_time": 73.7590909090909,
                "end_time": 73.96136363636363,
                "pitch": 45,
                "velocity": 101,
                "duration": 0.20227272727272805,
                "tempo": 120.0
            },
            {
                "start_time": 73.96136363636363,
                "end_time": 74.1590909090909,
                "pitch": 33,
                "velocity": 101,
                "duration": 0.19772727272727764,
                "tempo": 120.0
            },
            {
                "start_time": 74.16136363636363,
                "end_time": 74.36136363636363,
                "pitch": 45,
                "velocity": 101,
                "duration": 0.20000000000000284,
                "tempo": 120.0
            },
            {
                "start_time": 74.36136363636363,
                "end_time": 74.56136363636364,
                "pitch": 33,
                "velocity": 101,
                "duration": 0.20000000000000284,
                "tempo": 120.0
            },
            {
                "start_time": 74.56136363636364,
                "end_time": 74.76590909090909,
                "pitch": 45,
                "velocity": 101,
                "duration": 0.20454545454545325,
                "tempo": 120.0
            },
            {
                "start_time": 74.76590909090909,
                "end_time": 74.96363636363635,
                "pitch": 29,
                "velocity": 101,
                "duration": 0.19772727272726343,
                "tempo": 120.0
            },
            {
                "start_time": 74.96363636363635,
                "end_time": 75.16363636363636,
                "pitch": 41,
                "velocity": 101,
                "duration": 0.20000000000000284,
                "tempo": 120.0
            },
            {
                "start_time": 75.16590909090908,
                "end_time": 75.36590909090908,
                "pitch": 29,
                "velocity": 101,
                "duration": 0.20000000000000284,
                "tempo": 120.0
            },
            {
                "start_time": 75.36590909090908,
                "end_time": 75.56818181818181,
                "pitch": 41,
                "velocity": 101,
                "duration": 0.20227272727272805,
                "tempo": 120.0
            },
            {
                "start_time": 75.56818181818181,
                "end_time": 75.76818181818182,
                "pitch": 29,
                "velocity": 101,
                "duration": 0.20000000000000284,
                "tempo": 120.0
            },
            {
                "start_time": 75.76818181818182,
                "end_time": 75.97045454545454,
                "pitch": 41,
                "velocity": 101,
                "duration": 0.20227272727272805,
                "tempo": 120.0
            },
            {
                "start_time": 75.97045454545454,
                "end_time": 76.17272727272727,
                "pitch": 29,
                "velocity": 101,
                "duration": 0.20227272727272805,
                "tempo": 120.0
            },
            {
                "start_time": 76.17272727272727,
                "end_time": 76.37272727272727,
                "pitch": 41,
                "velocity": 101,
                "duration": 0.20000000000000284,
                "tempo": 120.0
            },
            {
                "start_time": 76.37272727272727,
                "end_time": 76.57727272727273,
                "pitch": 29,
                "velocity": 101,
                "duration": 0.20454545454545325,
                "tempo": 120.0
            },
            {
                "start_time": 76.57727272727273,
                "end_time": 76.7840909090909,
                "pitch": 41,
                "velocity": 101,
                "duration": 0.20681818181817846,
                "tempo": 120.0
            },
            {
                "start_time": 76.7840909090909,
                "end_time": 76.98409090909091,
                "pitch": 29,
                "velocity": 101,
                "duration": 0.20000000000000284,
                "tempo": 120.0
            },
            {
                "start_time": 76.98409090909091,
                "end_time": 77.18636363636364,
                "pitch": 41,
                "velocity": 101,
                "duration": 0.20227272727272805,
                "tempo": 120.0
            },
            {
                "start_time": 77.18636363636364,
                "end_time": 77.38636363636363,
                "pitch": 29,
                "velocity": 101,
                "duration": 0.19999999999998863,
                "tempo": 120.0
            },
            {
                "start_time": 77.38636363636363,
                "end_time": 77.5909090909091,
                "pitch": 41,
                "velocity": 101,
                "duration": 0.20454545454546746,
                "tempo": 120.0
            },
            {
                "start_time": 77.5909090909091,
                "end_time": 77.78863636363636,
                "pitch": 29,
                "velocity": 101,
                "duration": 0.19772727272726343,
                "tempo": 120.0
            },
            {
                "start_time": 77.78863636363636,
                "end_time": 77.99090909090908,
                "pitch": 41,
                "velocity": 101,
                "duration": 0.20227272727272805,
                "tempo": 120.0
            },
            {
                "start_time": 77.99090909090908,
                "end_time": 78.19090909090909,
                "pitch": 33,
                "velocity": 101,
                "duration": 0.20000000000000284,
                "tempo": 120.0
            },
            {
                "start_time": 53.66136363636363,
                "end_time": 78.19090909090909,
                "pitch": 42,
                "velocity": 101,
                "duration": 24.529545454545456,
                "tempo": 120.0
            },
            {
                "start_time": 77.99090909090908,
                "end_time": 78.39318181818182,
                "pitch": 7,
                "velocity": 101,
                "duration": 0.4022727272727309,
                "tempo": 120.0
            },
            {
                "start_time": 78.19090909090909,
                "end_time": 78.39318181818182,
                "pitch": 40,
                "velocity": 101,
                "duration": 0.20227272727272805,
                "tempo": 120.0
            },
            {
                "start_time": 78.39318181818182,
                "end_time": 78.59318181818182,
                "pitch": 45,
                "velocity": 101,
                "duration": 0.20000000000000284,
                "tempo": 120.0
            },
            {
                "start_time": 74.76590909090909,
                "end_time": 78.59318181818182,
                "pitch": 54,
                "velocity": 101,
                "duration": 3.827272727272728,
                "tempo": 120.0
            },
            {
                "start_time": 78.59318181818182,
                "end_time": 78.79318181818181,
                "pitch": 40,
                "velocity": 101,
                "duration": 0.19999999999998863,
                "tempo": 120.0
            },
            {
                "start_time": 78.79318181818181,
                "end_time": 78.99545454545454,
                "pitch": 31,
                "velocity": 101,
                "duration": 0.20227272727272805,
                "tempo": 120.0
            },
            {
                "start_time": 78.99545454545454,
                "end_time": 79.19545454545454,
                "pitch": 38,
                "velocity": 101,
                "duration": 0.20000000000000284,
                "tempo": 120.0
            },
            {
                "start_time": 79.19545454545454,
                "end_time": 79.39772727272727,
                "pitch": 43,
                "velocity": 101,
                "duration": 0.20227272727272805,
                "tempo": 120.0
            },
            {
                "start_time": 79.39772727272727,
                "end_time": 79.6,
                "pitch": 38,
                "velocity": 101,
                "duration": 0.20227272727272805,
                "tempo": 120.0
            },
            {
                "start_time": 78.99545454545454,
                "end_time": 79.6,
                "pitch": 41,
                "velocity": 101,
                "duration": 0.6045454545454589,
                "tempo": 120.0
            },
            {
                "start_time": 52.85454545454545,
                "end_time": 79.8,
                "pitch": 24,
                "velocity": 101,
                "duration": 26.945454545454545,
                "tempo": 120.0
            },
            {
                "start_time": 79.6,
                "end_time": 79.8,
                "pitch": 29,
                "velocity": 101,
                "duration": 0.20000000000000284,
                "tempo": 120.0
            },
            {
                "start_time": 79.8,
                "end_time": 80.0,
                "pitch": 36,
                "velocity": 101,
                "duration": 0.20000000000000284,
                "tempo": 120.0
            },
            {
                "start_time": 79.6,
                "end_time": 80.0,
                "pitch": 41,
                "velocity": 101,
                "duration": 0.4000000000000057,
                "tempo": 120.0
            },
            {
                "start_time": 80.0,
                "end_time": 80.20227272727273,
                "pitch": 41,
                "velocity": 101,
                "duration": 0.20227272727272805,
                "tempo": 120.0
            },
            {
                "start_time": 80.0,
                "end_time": 80.20227272727273,
                "pitch": 41,
                "velocity": 101,
                "duration": 0.20227272727272805,
                "tempo": 120.0
            },
            {
                "start_time": 80.20227272727273,
                "end_time": 80.40454545454546,
                "pitch": 36,
                "velocity": 101,
                "duration": 0.20227272727272805,
                "tempo": 120.0
            },
            {
                "start_time": 80.20227272727273,
                "end_time": 80.40454545454546,
                "pitch": 36,
                "velocity": 101,
                "duration": 0.20227272727272805,
                "tempo": 120.0
            },
            {
                "start_time": 80.40454545454546,
                "end_time": 80.60454545454544,
                "pitch": 31,
                "velocity": 101,
                "duration": 0.19999999999998863,
                "tempo": 120.0
            },
            {
                "start_time": 80.60454545454544,
                "end_time": 80.80454545454545,
                "pitch": 38,
                "velocity": 101,
                "duration": 0.20000000000000284,
                "tempo": 120.0
            },
            {
                "start_time": 80.80454545454545,
                "end_time": 81.00454545454545,
                "pitch": 43,
                "velocity": 101,
                "duration": 0.20000000000000284,
                "tempo": 120.0
            },
            {
                "start_time": 79.39772727272727,
                "end_time": 81.00454545454545,
                "pitch": 53,
                "velocity": 101,
                "duration": 1.6068181818181841,
                "tempo": 120.0
            },
            {
                "start_time": 81.00454545454545,
                "end_time": 81.2090909090909,
                "pitch": 38,
                "velocity": 101,
                "duration": 0.20454545454545325,
                "tempo": 120.0
            },
            {
                "start_time": 81.2090909090909,
                "end_time": 81.35681818181818,
                "pitch": 36,
                "velocity": 101,
                "duration": 0.14772727272728048,
                "tempo": 120.0
            },
            {
                "start_time": 81.2090909090909,
                "end_time": 81.35681818181818,
                "pitch": 36,
                "velocity": 101,
                "duration": 0.14772727272728048,
                "tempo": 120.0
            },
            {
                "start_time": 81.61136363636363,
                "end_time": 81.6590909090909,
                "pitch": 36,
                "velocity": 101,
                "duration": 0.04772727272727195,
                "tempo": 120.0
            },
            {
                "start_time": 81.71136363636363,
                "end_time": 81.7590909090909,
                "pitch": 36,
                "velocity": 80,
                "duration": 0.04772727272727195,
                "tempo": 120.0
            },
            {
                "start_time": 82.01136363636363,
                "end_time": 82.16136363636363,
                "pitch": 36,
                "velocity": 101,
                "duration": 0.15000000000000568,
                "tempo": 120.0
            },
            {
                "start_time": 82.41363636363636,
                "end_time": 82.46363636363635,
                "pitch": 36,
                "velocity": 101,
                "duration": 0.04999999999999716,
                "tempo": 120.0
            },
            {
                "start_time": 82.51363636363637,
                "end_time": 82.56363636363636,
                "pitch": 36,
                "velocity": 80,
                "duration": 0.04999999999999716,
                "tempo": 120.0
            },
            {
                "start_time": 82.81363636363636,
                "end_time": 82.9659090909091,
                "pitch": 36,
                "velocity": 101,
                "duration": 0.1522727272727309,
                "tempo": 120.0
            },
            {
                "start_time": 83.01590909090909,
                "end_time": 83.16590909090908,
                "pitch": 36,
                "velocity": 101,
                "duration": 0.14999999999999147,
                "tempo": 120.0
            },
            {
                "start_time": 83.21818181818182,
                "end_time": 83.26818181818182,
                "pitch": 36,
                "velocity": 101,
                "duration": 0.04999999999999716,
                "tempo": 120.0
            },
            {
                "start_time": 83.32045454545454,
                "end_time": 83.37045454545454,
                "pitch": 36,
                "velocity": 80,
                "duration": 0.04999999999999716,
                "tempo": 120.0
            },
            {
                "start_time": 83.42272727272727,
                "end_time": 83.57727272727273,
                "pitch": 36,
                "velocity": 101,
                "duration": 0.1545454545454561,
                "tempo": 120.0
            },
            {
                "start_time": 83.62954545454545,
                "end_time": 83.67727272727272,
                "pitch": 36,
                "velocity": 101,
                "duration": 0.04772727272727195,
                "tempo": 120.0
            },
            {
                "start_time": 83.72727272727272,
                "end_time": 83.77499999999999,
                "pitch": 36,
                "velocity": 80,
                "duration": 0.04772727272727195,
                "tempo": 120.0
            },
            {
                "start_time": 83.825,
                "end_time": 83.97272727272727,
                "pitch": 36,
                "velocity": 101,
                "duration": 0.14772727272726627,
                "tempo": 120.0
            },
            {
                "start_time": 84.02272727272727,
                "end_time": 84.07272727272726,
                "pitch": 36,
                "velocity": 101,
                "duration": 0.04999999999999716,
                "tempo": 120.0
            },
            {
                "start_time": 84.125,
                "end_time": 84.175,
                "pitch": 48,
                "velocity": 101,
                "duration": 0.04999999999999716,
                "tempo": 120.0
            },
            {
                "start_time": 84.22727272727272,
                "end_time": 84.38181818181818,
                "pitch": 36,
                "velocity": 101,
                "duration": 0.1545454545454561,
                "tempo": 120.0
            },
            {
                "start_time": 84.43863636363636,
                "end_time": 84.45,
                "pitch": 36,
                "velocity": 101,
                "duration": 0.01136363636364024,
                "tempo": 120.0
            }
        ],
        "Acoustic Grand Piano": [
            {
                "start_time": 55.28636363636363,
                "end_time": 55.486363636363635,
                "pitch": 71,
                "velocity": 101,
                "duration": 0.20000000000000284,
                "tempo": 120.0
            },
            {
                "start_time": 55.486363636363635,
                "end_time": 55.68636363636363,
                "pitch": 69,
                "velocity": 101,
                "duration": 0.19999999999999574,
                "tempo": 120.0
            },
            {
                "start_time": 55.486363636363635,
                "end_time": 55.68636363636363,
                "pitch": 69,
                "velocity": 127,
                "duration": 0.19999999999999574,
                "tempo": 120.0
            },
            {
                "start_time": 55.68636363636363,
                "end_time": 55.90454545454545,
                "pitch": 69,
                "velocity": 127,
                "duration": 0.2181818181818187,
                "tempo": 120.0
            },
            {
                "start_time": 56.89090909090909,
                "end_time": 57.090909090909086,
                "pitch": 67,
                "velocity": 127,
                "duration": 0.19999999999999574,
                "tempo": 120.0
            },
            {
                "start_time": 57.090909090909086,
                "end_time": 57.29090909090909,
                "pitch": 69,
                "velocity": 127,
                "duration": 0.20000000000000284,
                "tempo": 120.0
            },
            {
                "start_time": 57.29090909090909,
                "end_time": 57.506818181818176,
                "pitch": 69,
                "velocity": 127,
                "duration": 0.2159090909090864,
                "tempo": 120.0
            },
            {
                "start_time": 58.29545454545454,
                "end_time": 58.695454545454545,
                "pitch": 67,
                "velocity": 127,
                "duration": 0.4000000000000057,
                "tempo": 120.0
            },
            {
                "start_time": 58.695454545454545,
                "end_time": 58.89545454545454,
                "pitch": 69,
                "velocity": 127,
                "duration": 0.19999999999999574,
                "tempo": 120.0
            },
            {
                "start_time": 58.89545454545454,
                "end_time": 59.111363636363635,
                "pitch": 69,
                "velocity": 127,
                "duration": 0.2159090909090935,
                "tempo": 120.0
            },
            {
                "start_time": 60.3,
                "end_time": 60.9,
                "pitch": 65,
                "velocity": 127,
                "duration": 0.6000000000000014,
                "tempo": 120.0
            },
            {
                "start_time": 60.9,
                "end_time": 61.3,
                "pitch": 65,
                "velocity": 127,
                "duration": 0.3999999999999986,
                "tempo": 120.0
            },
            {
                "start_time": 61.3,
                "end_time": 61.502272727272725,
                "pitch": 65,
                "velocity": 127,
                "duration": 0.20227272727272805,
                "tempo": 120.0
            },
            {
                "start_time": 61.502272727272725,
                "end_time": 61.913636363636364,
                "pitch": 67,
                "velocity": 127,
                "duration": 0.4113636363636388,
                "tempo": 120.0
            },
            {
                "start_time": 61.913636363636364,
                "end_time": 62.11363636363636,
                "pitch": 69,
                "velocity": 127,
                "duration": 0.19999999999999574,
                "tempo": 120.0
            },
            {
                "start_time": 62.11363636363636,
                "end_time": 62.32954545454545,
                "pitch": 69,
                "velocity": 127,
                "duration": 0.2159090909090935,
                "tempo": 120.0
            },
            {
                "start_time": 63.31590909090909,
                "end_time": 63.518181818181816,
                "pitch": 67,
                "velocity": 127,
                "duration": 0.20227272727272805,
                "tempo": 120.0
            },
            {
                "start_time": 63.518181818181816,
                "end_time": 63.71818181818181,
                "pitch": 69,
                "velocity": 127,
                "duration": 0.19999999999999574,
                "tempo": 120.0
            },
            {
                "start_time": 63.71818181818181,
                "end_time": 63.934090909090905,
                "pitch": 69,
                "velocity": 127,
                "duration": 0.2159090909090935,
                "tempo": 120.0
            },
            {
                "start_time": 64.71818181818182,
                "end_time": 65.12272727272727,
                "pitch": 67,
                "velocity": 127,
                "duration": 0.4045454545454561,
                "tempo": 120.0
            },
            {
                "start_time": 65.12272727272727,
                "end_time": 65.32272727272726,
                "pitch": 69,
                "velocity": 127,
                "duration": 0.19999999999998863,
                "tempo": 120.0
            },
            {
                "start_time": 65.32272727272726,
                "end_time": 65.53863636363636,
                "pitch": 69,
                "velocity": 127,
                "duration": 0.2159090909090935,
                "tempo": 120.0
            },
            {
                "start_time": 66.72954545454544,
                "end_time": 67.3340909090909,
                "pitch": 69,
                "velocity": 127,
                "duration": 0.6045454545454589,
                "tempo": 120.0
            },
            {
                "start_time": 67.3340909090909,
                "end_time": 67.73409090909091,
                "pitch": 69,
                "velocity": 127,
                "duration": 0.4000000000000057,
                "tempo": 120.0
            },
            {
                "start_time": 67.73409090909091,
                "end_time": 67.93636363636364,
                "pitch": 69,
                "velocity": 127,
                "duration": 0.20227272727272805,
                "tempo": 120.0
            }
        ]
    }
}