{
    "track_id": "16 Ending 1",
    "mood": "happy",
    "instruments": {
        "Acoustic Grand Piano": [
            {
                "start_time": 0.4795454545454545,
                "end_time": 0.9363636363636363,
                "pitch": 64,
                "velocity": 80,
                "duration": 0.4568181818181818,
                "tempo": 120.0
            },
            {
                "start_time": 0.9386363636363636,
                "end_time": 1.6363636363636362,
                "pitch": 62,
                "velocity": 80,
                "duration": 0.6977272727272726,
                "tempo": 120.0
            },
            {
                "start_time": 1.6363636363636362,
                "end_time": 1.8659090909090907,
                "pitch": 64,
                "velocity": 80,
                "duration": 0.2295454545454545,
                "tempo": 120.0
            },
            {
                "start_time": 1.8659090909090907,
                "end_time": 2.334090909090909,
                "pitch": 65,
                "velocity": 80,
                "duration": 0.46818181818181825,
                "tempo": 120.0
            },
            {
                "start_time": 2.3363636363636364,
                "end_time": 2.5704545454545453,
                "pitch": 64,
                "velocity": 80,
                "duration": 0.2340909090909089,
                "tempo": 120.0
            },
            {
                "start_time": 2.5704545454545453,
                "end_time": 3.0386363636363636,
                "pitch": 62,
                "velocity": 80,
                "duration": 0.46818181818181825,
                "tempo": 120.0
            },
            {
                "start_time": 3.0409090909090906,
                "end_time": 3.7318181818181815,
                "pitch": 64,
                "velocity": 80,
                "duration": 0.6909090909090909,
                "tempo": 120.0
            },
            {
                "start_time": 3.734090909090909,
                "end_time": 5.6,
                "pitch": 60,
                "velocity": 80,
                "duration": 1.8659090909090907,
                "tempo": 120.0
            },
            {
                "start_time": 5.602272727272727,
                "end_time": 7.463636363636363,
                "pitch": 62,
                "velocity": 80,
                "duration": 1.8613636363636363,
                "tempo": 120.0
            },
            {
                "start_time": 7.934090909090909,
                "end_time": 8.393181818181818,
                "pitch": 64,
                "velocity": 80,
                "duration": 0.459090909090909,
                "tempo": 120.0
            },
            {
                "start_time": 8.393181818181818,
                "end_time": 9.097727272727273,
                "pitch": 62,
                "velocity": 80,
                "duration": 0.704545454545455,
                "tempo": 120.0
            },
            {
                "start_time": 9.1,
                "end_time": 9.327272727272726,
                "pitch": 64,
                "velocity": 80,
                "duration": 0.22727272727272663,
                "tempo": 120.0
            },
            {
                "start_time": 9.329545454545453,
                "end_time": 9.797727272727272,
                "pitch": 65,
                "velocity": 80,
                "duration": 0.4681818181818187,
                "tempo": 120.0
            },
            {
                "start_time": 9.797727272727272,
                "end_time": 10.031818181818181,
                "pitch": 64,
                "velocity": 80,
                "duration": 0.23409090909090935,
                "tempo": 120.0
            },
            {
                "start_time": 10.034090909090908,
                "end_time": 10.495454545454544,
                "pitch": 62,
                "velocity": 80,
                "duration": 0.461363636363636,
                "tempo": 120.0
            },
            {
                "start_time": 10.497727272727273,
                "end_time": 11.195454545454545,
                "pitch": 64,
                "velocity": 80,
                "duration": 0.6977272727272723,
                "tempo": 120.0
            },
            {
                "start_time": 11.197727272727272,
                "end_time": 13.063636363636363,
                "pitch": 60,
                "velocity": 80,
                "duration": 1.8659090909090903,
                "tempo": 120.0
            },
            {
                "start_time": 13.063636363636363,
                "end_time": 14.931818181818182,
                "pitch": 62,
                "velocity": 80,
                "duration": 1.868181818181819,
                "tempo": 120.0
            },
            {
                "start_time": 15.39090909090909,
                "end_time": 15.859090909090908,
                "pitch": 64,
                "velocity": 80,
                "duration": 0.4681818181818169,
                "tempo": 120.0
            },
            {
                "start_time": 15.859090909090908,
                "end_time": 16.563636363636363,
                "pitch": 62,
                "velocity": 80,
                "duration": 0.704545454545455,
                "tempo": 120.0
            },
            {
                "start_time": 16.563636363636363,
                "end_time": 16.797727272727272,
                "pitch": 64,
                "velocity": 80,
                "duration": 0.23409090909090935,
                "tempo": 120.0
            },
            {
                "start_time": 16.8,
                "end_time": 17.256818181818183,
                "pitch": 65,
                "velocity": 80,
                "duration": 0.456818181818182,
                "tempo": 120.0
            },
            {
                "start_time": 17.256818181818183,
                "end_time": 17.49090909090909,
                "pitch": 64,
                "velocity": 80,
                "duration": 0.2340909090909058,
                "tempo": 120.0
            },
            {
                "start_time": 17.493181818181817,
                "end_time": 17.961363636363636,
                "pitch": 62,
                "velocity": 80,
                "duration": 0.4681818181818187,
                "tempo": 120.0
            },
            {
                "start_time": 17.961363636363636,
                "end_time": 18.66590909090909,
                "pitch": 64,
                "velocity": 80,
                "duration": 0.7045454545454533,
                "tempo": 120.0
            },
            {
                "start_time": 19.125,
                "end_time": 19.59318181818182,
                "pitch": 64,
                "velocity": 80,
                "duration": 0.4681818181818187,
                "tempo": 120.0
            },
            {
                "start_time": 19.595454545454544,
                "end_time": 20.297727272727272,
                "pitch": 62,
                "velocity": 80,
                "duration": 0.702272727272728,
                "tempo": 120.0
            },
            {
                "start_time": 20.3,
                "end_time": 20.534090909090907,
                "pitch": 64,
                "velocity": 80,
                "duration": 0.2340909090909058,
                "tempo": 120.0
            },
            {
                "start_time": 20.534090909090907,
                "end_time": 20.993181818181817,
                "pitch": 65,
                "velocity": 80,
                "duration": 0.45909090909091077,
                "tempo": 120.0
            },
            {
                "start_time": 20.993181818181817,
                "end_time": 21.227272727272727,
                "pitch": 64,
                "velocity": 80,
                "duration": 0.23409090909090935,
                "tempo": 120.0
            },
            {
                "start_time": 21.227272727272727,
                "end_time": 21.69772727272727,
                "pitch": 62,
                "velocity": 80,
                "duration": 0.4704545454545439,
                "tempo": 120.0
            },
            {
                "start_time": 21.69772727272727,
                "end_time": 22.39090909090909,
                "pitch": 64,
                "velocity": 80,
                "duration": 0.6931818181818201,
                "tempo": 120.0
            },
            {
                "start_time": 22.861363636363635,
                "end_time": 23.329545454545453,
                "pitch": 64,
                "velocity": 80,
                "duration": 0.4681818181818187,
                "tempo": 120.0
            },
            {
                "start_time": 23.329545454545453,
                "end_time": 24.029545454545453,
                "pitch": 62,
                "velocity": 80,
                "duration": 0.6999999999999993,
                "tempo": 120.0
            },
            {
                "start_time": 24.029545454545453,
                "end_time": 24.259090909090908,
                "pitch": 64,
                "velocity": 80,
                "duration": 0.22954545454545539,
                "tempo": 120.0
            },
            {
                "start_time": 24.259090909090908,
                "end_time": 24.727272727272727,
                "pitch": 65,
                "velocity": 80,
                "duration": 0.4681818181818187,
                "tempo": 120.0
            },
            {
                "start_time": 24.727272727272727,
                "end_time": 24.961363636363636,
                "pitch": 64,
                "velocity": 80,
                "duration": 0.23409090909090935,
                "tempo": 120.0
            },
            {
                "start_time": 24.96363636363636,
                "end_time": 25.427272727272726,
                "pitch": 62,
                "velocity": 80,
                "duration": 0.46363636363636473,
                "tempo": 120.0
            },
            {
                "start_time": 25.427272727272726,
                "end_time": 26.125,
                "pitch": 64,
                "velocity": 80,
                "duration": 0.6977272727272741,
                "tempo": 120.0
            },
            {
                "start_time": 26.127272727272725,
                "end_time": 27.993181818181817,
                "pitch": 60,
                "velocity": 80,
                "duration": 1.865909090909092,
                "tempo": 120.0
            },
            {
                "start_time": 27.993181818181817,
                "end_time": 29.861363636363635,
                "pitch": 62,
                "velocity": 80,
                "duration": 1.8681818181818173,
                "tempo": 120.0
            }
        ]
    }
}