{
    "track_id": "17 Ending 1",
    "mood": "happy",
    "instruments": {
        "Trumpet": [
            {
                "start_time": 0.2727272727272727,
                "end_time": 0.7045454545454545,
                "pitch": 67,
                "velocity": 51,
                "duration": 0.43181818181818177,
                "tempo": 120.0
            },
            {
                "start_time": 0.7545454545454545,
                "end_time": 1.093181818181818,
                "pitch": 74,
                "velocity": 51,
                "duration": 0.3386363636363635,
                "tempo": 120.0
            },
            {
                "start_time": 1.143181818181818,
                "end_time": 2.2727272727272725,
                "pitch": 77,
                "velocity": 51,
                "duration": 1.1295454545454544,
                "tempo": 120.0
            },
            {
                "start_time": 2.3227272727272728,
                "end_time": 2.4681818181818183,
                "pitch": 77,
                "velocity": 51,
                "duration": 0.1454545454545455,
                "tempo": 120.0
            },
            {
                "start_time": 2.518181818181818,
                "end_time": 2.6636363636363636,
                "pitch": 76,
                "velocity": 51,
                "duration": 0.1454545454545455,
                "tempo": 120.0
            },
            {
                "start_time": 2.7136363636363634,
                "end_time": 2.859090909090909,
                "pitch": 77,
                "velocity": 51,
                "duration": 0.1454545454545455,
                "tempo": 120.0
            },
            {
                "start_time": 3.1045454545454545,
                "end_time": 3.25,
                "pitch": 72,
                "velocity": 51,
                "duration": 0.1454545454545455,
                "tempo": 120.0
            },
            {
                "start_time": 1.143181818181818,
                "end_time": 6.595454545454545,
                "pitch": 74,
                "velocity": 51,
                "duration": 5.452272727272726,
                "tempo": 120.0
            },
            {
                "start_time": 3.495454545454545,
                "end_time": 6.595454545454545,
                "pitch": 74,
                "velocity": 51,
                "duration": 3.0999999999999996,
                "tempo": 120.0
            },
            {
                "start_time": 6.6454545454545455,
                "end_time": 6.986363636363636,
                "pitch": 67,
                "velocity": 51,
                "duration": 0.34090909090909083,
                "tempo": 120.0
            },
            {
                "start_time": 0.7545454545454545,
                "end_time": 7.036363636363636,
                "pitch": 2,
                "velocity": 51,
                "duration": 6.281818181818181,
                "tempo": 120.0
            },
            {
                "start_time": 7.036363636363636,
                "end_time": 7.377272727272727,
                "pitch": 74,
                "velocity": 51,
                "duration": 0.34090909090909083,
                "tempo": 120.0
            },
            {
                "start_time": 6.6454545454545455,
                "end_time": 8.549999999999999,
                "pitch": 77,
                "velocity": 51,
                "duration": 1.9045454545454534,
                "tempo": 120.0
            },
            {
                "start_time": 7.425,
                "end_time": 8.549999999999999,
                "pitch": 77,
                "velocity": 51,
                "duration": 1.1249999999999991,
                "tempo": 120.0
            },
            {
                "start_time": 8.602272727272727,
                "end_time": 8.752272727272727,
                "pitch": 77,
                "velocity": 51,
                "duration": 0.15000000000000036,
                "tempo": 120.0
            },
            {
                "start_time": 3.1045454545454545,
                "end_time": 8.95,
                "pitch": 76,
                "velocity": 51,
                "duration": 5.845454545454545,
                "tempo": 120.0
            },
            {
                "start_time": 8.804545454545455,
                "end_time": 8.95,
                "pitch": 76,
                "velocity": 51,
                "duration": 0.14545454545454461,
                "tempo": 120.0
            },
            {
                "start_time": 9.0,
                "end_time": 9.145454545454545,
                "pitch": 77,
                "velocity": 51,
                "duration": 0.14545454545454461,
                "tempo": 120.0
            },
            {
                "start_time": 3.495454545454545,
                "end_time": 9.540909090909091,
                "pitch": 72,
                "velocity": 51,
                "duration": 6.045454545454546,
                "tempo": 120.0
            },
            {
                "start_time": 9.393181818181818,
                "end_time": 9.540909090909091,
                "pitch": 72,
                "velocity": 51,
                "duration": 0.14772727272727337,
                "tempo": 120.0
            },
            {
                "start_time": 7.425,
                "end_time": 10.129545454545454,
                "pitch": 74,
                "velocity": 51,
                "duration": 2.704545454545454,
                "tempo": 120.0
            },
            {
                "start_time": 9.786363636363635,
                "end_time": 10.129545454545454,
                "pitch": 74,
                "velocity": 51,
                "duration": 0.3431818181818187,
                "tempo": 120.0
            },
            {
                "start_time": 10.375,
                "end_time": 10.520454545454545,
                "pitch": 79,
                "velocity": 51,
                "duration": 0.14545454545454461,
                "tempo": 120.0
            },
            {
                "start_time": 10.570454545454545,
                "end_time": 12.493181818181817,
                "pitch": 79,
                "velocity": 51,
                "duration": 1.922727272727272,
                "tempo": 120.0
            },
            {
                "start_time": 12.543181818181818,
                "end_time": 12.886363636363635,
                "pitch": 55,
                "velocity": 32,
                "duration": 0.3431818181818169,
                "tempo": 120.0
            },
            {
                "start_time": 12.936363636363636,
                "end_time": 13.147727272727272,
                "pitch": 55,
                "velocity": 32,
                "duration": 0.21136363636363598,
                "tempo": 120.0
            },
            {
                "start_time": 13.197727272727272,
                "end_time": 13.452272727272726,
                "pitch": 56,
                "velocity": 32,
                "duration": 0.25454545454545396,
                "tempo": 120.0
            },
            {
                "start_time": 13.518181818181818,
                "end_time": 13.797727272727272,
                "pitch": 67,
                "velocity": 32,
                "duration": 0.2795454545454543,
                "tempo": 120.0
            },
            {
                "start_time": 14.213636363636363,
                "end_time": 14.5,
                "pitch": 65,
                "velocity": 32,
                "duration": 0.28636363636363704,
                "tempo": 120.0
            },
            {
                "start_time": 14.56590909090909,
                "end_time": 14.847727272727273,
                "pitch": 63,
                "velocity": 32,
                "duration": 0.2818181818181831,
                "tempo": 120.0
            },
            {
                "start_time": 14.913636363636362,
                "end_time": 15.193181818181817,
                "pitch": 62,
                "velocity": 32,
                "duration": 0.2795454545454543,
                "tempo": 120.0
            },
            {
                "start_time": 15.259090909090908,
                "end_time": 15.540909090909091,
                "pitch": 63,
                "velocity": 32,
                "duration": 0.2818181818181831,
                "tempo": 120.0
            },
            {
                "start_time": 15.604545454545454,
                "end_time": 15.886363636363635,
                "pitch": 67,
                "velocity": 32,
                "duration": 0.2818181818181813,
                "tempo": 120.0
            },
            {
                "start_time": 15.95,
                "end_time": 16.23409090909091,
                "pitch": 67,
                "velocity": 32,
                "duration": 0.28409090909091006,
                "tempo": 120.0
            },
            {
                "start_time": 16.302272727272726,
                "end_time": 16.586363636363636,
                "pitch": 68,
                "velocity": 32,
                "duration": 0.28409090909091006,
                "tempo": 120.0
            },
            {
                "start_time": 9.786363636363635,
                "end_time": 16.936363636363634,
                "pitch": 72,
                "velocity": 51,
                "duration": 7.149999999999999,
                "tempo": 120.0
            },
            {
                "start_time": 16.654545454545453,
                "end_time": 16.936363636363634,
                "pitch": 72,
                "velocity": 32,
                "duration": 0.2818181818181813,
                "tempo": 120.0
            },
            {
                "start_time": 17.0,
                "end_time": 17.002272727272725,
                "pitch": 72,
                "velocity": 32,
                "duration": 0.0022727272727252057,
                "tempo": 120.0
            },
            {
                "start_time": 17.002272727272725,
                "end_time": 17.28181818181818,
                "pitch": 75,
                "velocity": 32,
                "duration": 0.2795454545454561,
                "tempo": 120.0
            },
            {
                "start_time": 17.345454545454544,
                "end_time": 17.627272727272725,
                "pitch": 75,
                "velocity": 32,
                "duration": 0.2818181818181813,
                "tempo": 120.0
            },
            {
                "start_time": 17.693181818181817,
                "end_time": 17.972727272727273,
                "pitch": 74,
                "velocity": 32,
                "duration": 0.2795454545454561,
                "tempo": 120.0
            },
            {
                "start_time": 18.038636363636364,
                "end_time": 18.32272727272727,
                "pitch": 74,
                "velocity": 32,
                "duration": 0.2840909090909065,
                "tempo": 120.0
            },
            {
                "start_time": 18.388636363636362,
                "end_time": 18.675,
                "pitch": 72,
                "velocity": 32,
                "duration": 0.2863636363636388,
                "tempo": 120.0
            },
            {
                "start_time": 18.74090909090909,
                "end_time": 19.022727272727273,
                "pitch": 72,
                "velocity": 32,
                "duration": 0.28181818181818485,
                "tempo": 120.0
            },
            {
                "start_time": 19.08863636363636,
                "end_time": 19.368181818181817,
                "pitch": 72,
                "velocity": 32,
                "duration": 0.2795454545454561,
                "tempo": 120.0
            },
            {
                "start_time": 9.393181818181818,
                "end_time": 19.43409090909091,
                "pitch": 76,
                "velocity": 51,
                "duration": 10.040909090909091,
                "tempo": 120.0
            },
            {
                "start_time": 13.518181818181818,
                "end_time": 19.71818181818182,
                "pitch": 70,
                "velocity": 32,
                "duration": 6.200000000000001,
                "tempo": 120.0
            },
            {
                "start_time": 19.43409090909091,
                "end_time": 19.71818181818182,
                "pitch": 70,
                "velocity": 32,
                "duration": 0.28409090909091006,
                "tempo": 120.0
            },
            {
                "start_time": 19.784090909090907,
                "end_time": 20.070454545454545,
                "pitch": 70,
                "velocity": 32,
                "duration": 0.2863636363636388,
                "tempo": 120.0
            },
            {
                "start_time": 20.136363636363637,
                "end_time": 20.418181818181818,
                "pitch": 70,
                "velocity": 32,
                "duration": 0.2818181818181813,
                "tempo": 120.0
            },
            {
                "start_time": 16.654545454545453,
                "end_time": 20.48409090909091,
                "pitch": 51,
                "velocity": 32,
                "duration": 3.829545454545457,
                "tempo": 120.0
            },
            {
                "start_time": 20.48409090909091,
                "end_time": 20.763636363636362,
                "pitch": 72,
                "velocity": 32,
                "duration": 0.27954545454545254,
                "tempo": 120.0
            },
            {
                "start_time": 18.388636363636362,
                "end_time": 21.113636363636363,
                "pitch": 74,
                "velocity": 32,
                "duration": 2.7250000000000014,
                "tempo": 120.0
            },
            {
                "start_time": 20.829545454545453,
                "end_time": 21.113636363636363,
                "pitch": 74,
                "velocity": 32,
                "duration": 0.28409090909091006,
                "tempo": 120.0
            },
            {
                "start_time": 21.179545454545455,
                "end_time": 27.302272727272726,
                "pitch": 74,
                "velocity": 32,
                "duration": 6.122727272727271,
                "tempo": 120.0
            }
        ],
        "Flute": [
            {
                "start_time": 77.62045454545454,
                "end_time": 79.52499999999999,
                "pitch": 84,
                "velocity": 64,
                "duration": 1.904545454545456,
                "tempo": 120.0
            },
            {
                "start_time": 79.57727272727273,
                "end_time": 79.92045454545455,
                "pitch": 80,
                "velocity": 64,
                "duration": 0.3431818181818187,
                "tempo": 120.0
            },
            {
                "start_time": 79.97045454545454,
                "end_time": 80.31136363636364,
                "pitch": 80,
                "velocity": 64,
                "duration": 0.3409090909090935,
                "tempo": 120.0
            },
            {
                "start_time": 80.36136363636363,
                "end_time": 80.70454545454545,
                "pitch": 79,
                "velocity": 64,
                "duration": 0.3431818181818187,
                "tempo": 120.0
            },
            {
                "start_time": 80.75681818181818,
                "end_time": 82.67272727272727,
                "pitch": 77,
                "velocity": 64,
                "duration": 1.9159090909090963,
                "tempo": 120.0
            },
            {
                "start_time": 82.72272727272727,
                "end_time": 83.05681818181817,
                "pitch": 79,
                "velocity": 64,
                "duration": 0.33409090909090366,
                "tempo": 120.0
            },
            {
                "start_time": 83.10681818181818,
                "end_time": 83.44772727272726,
                "pitch": 79,
                "velocity": 64,
                "duration": 0.3409090909090793,
                "tempo": 120.0
            },
            {
                "start_time": 83.5,
                "end_time": 83.84318181818182,
                "pitch": 80,
                "velocity": 64,
                "duration": 0.3431818181818187,
                "tempo": 120.0
            },
            {
                "start_time": 83.89318181818182,
                "end_time": 89.40454545454546,
                "pitch": 84,
                "velocity": 64,
                "duration": 5.51136363636364,
                "tempo": 120.0
            },
            {
                "start_time": 89.40454545454546,
                "end_time": 90.13863636363637,
                "pitch": 72,
                "velocity": 64,
                "duration": 0.7340909090909093,
                "tempo": 120.0
            },
            {
                "start_time": 90.19090909090909,
                "end_time": 92.09545454545454,
                "pitch": 84,
                "velocity": 64,
                "duration": 1.904545454545456,
                "tempo": 120.0
            },
            {
                "start_time": 79.57727272727273,
                "end_time": 92.14318181818182,
                "pitch": 88,
                "velocity": 64,
                "duration": 12.565909090909088,
                "tempo": 120.0
            },
            {
                "start_time": 92.14318181818182,
                "end_time": 92.48409090909091,
                "pitch": 80,
                "velocity": 64,
                "duration": 0.3409090909090935,
                "tempo": 120.0
            },
            {
                "start_time": 92.5340909090909,
                "end_time": 92.8840909090909,
                "pitch": 80,
                "velocity": 64,
                "duration": 0.3499999999999943,
                "tempo": 120.0
            },
            {
                "start_time": 92.93636363636364,
                "end_time": 93.27727272727272,
                "pitch": 79,
                "velocity": 64,
                "duration": 0.3409090909090793,
                "tempo": 120.0
            },
            {
                "start_time": 80.75681818181818,
                "end_time": 93.32727272727273,
                "pitch": 31,
                "velocity": 64,
                "duration": 12.570454545454552,
                "tempo": 120.0
            },
            {
                "start_time": 93.32727272727273,
                "end_time": 95.25,
                "pitch": 77,
                "velocity": 64,
                "duration": 1.922727272727272,
                "tempo": 120.0
            },
            {
                "start_time": 82.72272727272727,
                "end_time": 95.3,
                "pitch": 90,
                "velocity": 64,
                "duration": 12.577272727272728,
                "tempo": 120.0
            },
            {
                "start_time": 95.3,
                "end_time": 95.6340909090909,
                "pitch": 79,
                "velocity": 64,
                "duration": 0.33409090909090366,
                "tempo": 120.0
            },
            {
                "start_time": 95.6840909090909,
                "end_time": 96.02272727272727,
                "pitch": 79,
                "velocity": 64,
                "duration": 0.3386363636363683,
                "tempo": 120.0
            },
            {
                "start_time": 96.07272727272726,
                "end_time": 96.41590909090908,
                "pitch": 80,
                "velocity": 64,
                "duration": 0.3431818181818187,
                "tempo": 120.0
            },
            {
                "start_time": 96.46818181818182,
                "end_time": 99.61818181818181,
                "pitch": 82,
                "velocity": 64,
                "duration": 3.1499999999999915,
                "tempo": 120.0
            },
            {
                "start_time": 99.61818181818181,
                "end_time": 101.14772727272727,
                "pitch": 75,
                "velocity": 64,
                "duration": 1.529545454545456,
                "tempo": 120.0
            },
            {
                "start_time": 102.76818181818182,
                "end_time": 105.46363636363635,
                "pitch": 63,
                "velocity": 64,
                "duration": 2.695454545454538,
                "tempo": 120.0
            },
            {
                "start_time": 105.51590909090909,
                "end_time": 105.85681818181817,
                "pitch": 67,
                "velocity": 64,
                "duration": 0.3409090909090793,
                "tempo": 120.0
            },
            {
                "start_time": 105.9090909090909,
                "end_time": 107.04090909090908,
                "pitch": 70,
                "velocity": 64,
                "duration": 1.1318181818181756,
                "tempo": 120.0
            },
            {
                "start_time": 107.09090909090908,
                "end_time": 108.21818181818182,
                "pitch": 70,
                "velocity": 64,
                "duration": 1.1272727272727394,
                "tempo": 120.0
            },
            {
                "start_time": 99.61818181818181,
                "end_time": 108.26818181818182,
                "pitch": 50,
                "velocity": 64,
                "duration": 8.650000000000006,
                "tempo": 120.0
            },
            {
                "start_time": 108.26818181818182,
                "end_time": 109.00227272727273,
                "pitch": 74,
                "velocity": 64,
                "duration": 0.7340909090909093,
                "tempo": 120.0
            },
            {
                "start_time": 109.05227272727272,
                "end_time": 110.97272727272727,
                "pitch": 72,
                "velocity": 64,
                "duration": 1.9204545454545467,
                "tempo": 120.0
            },
            {
                "start_time": 111.02499999999999,
                "end_time": 111.36136363636363,
                "pitch": 63,
                "velocity": 64,
                "duration": 0.3363636363636431,
                "tempo": 120.0
            },
            {
                "start_time": 111.4090909090909,
                "end_time": 111.75,
                "pitch": 63,
                "velocity": 64,
                "duration": 0.3409090909090935,
                "tempo": 120.0
            },
            {
                "start_time": 105.9090909090909,
                "end_time": 114.11590909090908,
                "pitch": 67,
                "velocity": 64,
                "duration": 8.206818181818178,
                "tempo": 120.0
            },
            {
                "start_time": 111.8,
                "end_time": 114.11590909090908,
                "pitch": 67,
                "velocity": 64,
                "duration": 2.315909090909088,
                "tempo": 120.0
            },
            {
                "start_time": 114.55,
                "end_time": 114.89772727272727,
                "pitch": 63,
                "velocity": 64,
                "duration": 0.3477272727272691,
                "tempo": 120.0
            },
            {
                "start_time": 111.8,
                "end_time": 114.94999999999999,
                "pitch": 78,
                "velocity": 64,
                "duration": 3.1499999999999915,
                "tempo": 120.0
            },
            {
                "start_time": 114.94999999999999,
                "end_time": 115.2840909090909,
                "pitch": 67,
                "velocity": 64,
                "duration": 0.3340909090909179,
                "tempo": 120.0
            },
            {
                "start_time": 111.02499999999999,
                "end_time": 117.31136363636364,
                "pitch": 60,
                "velocity": 64,
                "duration": 6.286363636363646,
                "tempo": 120.0
            },
            {
                "start_time": 117.31136363636364,
                "end_time": 117.64772727272727,
                "pitch": 63,
                "velocity": 64,
                "duration": 0.33636363636362887,
                "tempo": 120.0
            },
            {
                "start_time": 117.69772727272726,
                "end_time": 118.03863636363636,
                "pitch": 63,
                "velocity": 64,
                "duration": 0.3409090909090935,
                "tempo": 120.0
            },
            {
                "start_time": 114.94999999999999,
                "end_time": 118.09090909090908,
                "pitch": 78,
                "velocity": 64,
                "duration": 3.1409090909090907,
                "tempo": 120.0
            },
            {
                "start_time": 118.09090909090908,
                "end_time": 118.43181818181817,
                "pitch": 68,
                "velocity": 64,
                "duration": 0.3409090909090935,
                "tempo": 120.0
            },
            {
                "start_time": 118.48181818181817,
                "end_time": 119.61818181818181,
                "pitch": 68,
                "velocity": 64,
                "duration": 1.1363636363636402,
                "tempo": 120.0
            },
            {
                "start_time": 119.66818181818181,
                "end_time": 120.79318181818181,
                "pitch": 68,
                "velocity": 64,
                "duration": 1.125,
                "tempo": 120.0
            },
            {
                "start_time": 120.84318181818182,
                "end_time": 121.57727272727273,
                "pitch": 67,
                "velocity": 64,
                "duration": 0.7340909090909093,
                "tempo": 120.0
            },
            {
                "start_time": 121.62954545454545,
                "end_time": 125.90227272727272,
                "pitch": 65,
                "velocity": 64,
                "duration": 4.272727272727266,
                "tempo": 120.0
            },
            {
                "start_time": 126.34772727272727,
                "end_time": 127.07727272727273,
                "pitch": 65,
                "velocity": 64,
                "duration": 0.7295454545454589,
                "tempo": 120.0
            },
            {
                "start_time": 83.89318181818182,
                "end_time": 127.85227272727272,
                "pitch": 62,
                "velocity": 64,
                "duration": 43.959090909090904,
                "tempo": 120.0
            },
            {
                "start_time": 127.12954545454545,
                "end_time": 127.85227272727272,
                "pitch": 62,
                "velocity": 64,
                "duration": 0.7227272727272691,
                "tempo": 120.0
            },
            {
                "start_time": 127.90227272727272,
                "end_time": 129.8181818181818,
                "pitch": 62,
                "velocity": 64,
                "duration": 1.9159090909090963,
                "tempo": 120.0
            },
            {
                "start_time": 129.86818181818182,
                "end_time": 130.2159090909091,
                "pitch": 62,
                "velocity": 64,
                "duration": 0.3477272727272691,
                "tempo": 120.0
            },
            {
                "start_time": 105.51590909090909,
                "end_time": 130.2681818181818,
                "pitch": 77,
                "velocity": 64,
                "duration": 24.75227272727271,
                "tempo": 120.0
            },
            {
                "start_time": 130.2681818181818,
                "end_time": 130.60227272727272,
                "pitch": 67,
                "velocity": 64,
                "duration": 0.3340909090909179,
                "tempo": 120.0
            },
            {
                "start_time": 130.65227272727273,
                "end_time": 130.99545454545455,
                "pitch": 71,
                "velocity": 64,
                "duration": 0.3431818181818187,
                "tempo": 120.0
            },
            {
                "start_time": 131.04545454545453,
                "end_time": 133.3590909090909,
                "pitch": 71,
                "velocity": 64,
                "duration": 2.3136363636363626,
                "tempo": 120.0
            },
            {
                "start_time": 133.4090909090909,
                "end_time": 133.75227272727273,
                "pitch": 72,
                "velocity": 64,
                "duration": 0.3431818181818187,
                "tempo": 120.0
            },
            {
                "start_time": 133.8022727272727,
                "end_time": 134.14545454545453,
                "pitch": 71,
                "velocity": 64,
                "duration": 0.3431818181818187,
                "tempo": 120.0
            },
            {
                "start_time": 133.4090909090909,
                "end_time": 134.19772727272726,
                "pitch": 56,
                "velocity": 64,
                "duration": 0.7886363636363569,
                "tempo": 120.0
            },
            {
                "start_time": 130.2681818181818,
                "end_time": 136.8931818181818,
                "pitch": 77,
                "velocity": 64,
                "duration": 6.625,
                "tempo": 120.0
            },
            {
                "start_time": 134.19772727272726,
                "end_time": 136.8931818181818,
                "pitch": 77,
                "velocity": 64,
                "duration": 2.695454545454538,
                "tempo": 120.0
            },
            {
                "start_time": 95.3,
                "end_time": 136.9431818181818,
                "pitch": 90,
                "velocity": 64,
                "duration": 41.643181818181816,
                "tempo": 120.0
            },
            {
                "start_time": 136.9431818181818,
                "end_time": 139.25227272727273,
                "pitch": 79,
                "velocity": 64,
                "duration": 2.309090909090912,
                "tempo": 120.0
            },
            {
                "start_time": 139.3022727272727,
                "end_time": 139.45,
                "pitch": 83,
                "velocity": 64,
                "duration": 0.14772727272728048,
                "tempo": 120.0
            },
            {
                "start_time": 139.3022727272727,
                "end_time": 139.65,
                "pitch": 79,
                "velocity": 64,
                "duration": 0.34772727272729753,
                "tempo": 120.0
            },
            {
                "start_time": 139.5,
                "end_time": 139.65,
                "pitch": 79,
                "velocity": 64,
                "duration": 0.15000000000000568,
                "tempo": 120.0
            },
            {
                "start_time": 130.65227272727273,
                "end_time": 140.04545454545453,
                "pitch": 67,
                "velocity": 64,
                "duration": 9.393181818181802,
                "tempo": 120.0
            },
            {
                "start_time": 139.89772727272725,
                "end_time": 140.04545454545453,
                "pitch": 67,
                "velocity": 64,
                "duration": 0.14772727272728048,
                "tempo": 120.0
            },
            {
                "start_time": 140.2931818181818,
                "end_time": 140.43863636363636,
                "pitch": 75,
                "velocity": 64,
                "duration": 0.14545454545455527,
                "tempo": 120.0
            },
            {
                "start_time": 140.48863636363635,
                "end_time": 142.20681818181816,
                "pitch": 80,
                "velocity": 64,
                "duration": 1.7181818181818187,
                "tempo": 120.0
            },
            {
                "start_time": 93.32727272727273,
                "end_time": 142.25681818181818,
                "pitch": 31,
                "velocity": 64,
                "duration": 48.92954545454545,
                "tempo": 120.0
            },
            {
                "start_time": 140.2931818181818,
                "end_time": 142.40227272727273,
                "pitch": 72,
                "velocity": 64,
                "duration": 2.1090909090909236,
                "tempo": 120.0
            },
            {
                "start_time": 142.25681818181818,
                "end_time": 142.40227272727273,
                "pitch": 72,
                "velocity": 64,
                "duration": 0.14545454545455527,
                "tempo": 120.0
            },
            {
                "start_time": 109.05227272727272,
                "end_time": 142.6,
                "pitch": 74,
                "velocity": 64,
                "duration": 33.54772727272727,
                "tempo": 120.0
            },
            {
                "start_time": 142.45454545454544,
                "end_time": 142.6,
                "pitch": 74,
                "velocity": 64,
                "duration": 0.14545454545455527,
                "tempo": 120.0
            },
            {
                "start_time": 142.65,
                "end_time": 142.79545454545453,
                "pitch": 74,
                "velocity": 64,
                "duration": 0.14545454545452685,
                "tempo": 120.0
            },
            {
                "start_time": 142.84772727272727,
                "end_time": 142.99318181818182,
                "pitch": 75,
                "velocity": 64,
                "duration": 0.14545454545455527,
                "tempo": 120.0
            },
            {
                "start_time": 136.9431818181818,
                "end_time": 143.0431818181818,
                "pitch": 90,
                "velocity": 64,
                "duration": 6.099999999999994,
                "tempo": 120.0
            },
            {
                "start_time": 143.0431818181818,
                "end_time": 143.18863636363636,
                "pitch": 79,
                "velocity": 64,
                "duration": 0.14545454545455527,
                "tempo": 120.0
            },
            {
                "start_time": 143.23863636363635,
                "end_time": 143.3840909090909,
                "pitch": 79,
                "velocity": 64,
                "duration": 0.14545454545455527,
                "tempo": 120.0
            },
            {
                "start_time": 139.5,
                "end_time": 143.57954545454544,
                "pitch": 83,
                "velocity": 64,
                "duration": 4.079545454545439,
                "tempo": 120.0
            },
            {
                "start_time": 143.4340909090909,
                "end_time": 143.57954545454544,
                "pitch": 83,
                "velocity": 64,
                "duration": 0.14545454545452685,
                "tempo": 120.0
            },
            {
                "start_time": 143.63181818181818,
                "end_time": 144.76136363636363,
                "pitch": 83,
                "velocity": 64,
                "duration": 1.1295454545454504,
                "tempo": 120.0
            },
            {
                "start_time": 144.81136363636364,
                "end_time": 146.725,
                "pitch": 83,
                "velocity": 64,
                "duration": 1.913636363636357,
                "tempo": 120.0
            },
            {
                "start_time": 146.775,
                "end_time": 148.3022727272727,
                "pitch": 82,
                "velocity": 64,
                "duration": 1.5272727272727025,
                "tempo": 120.0
            }
        ],
        "Oboe": [
            {
                "start_time": 13.952272727272726,
                "end_time": 14.256818181818181,
                "pitch": 58,
                "velocity": 101,
                "duration": 0.3045454545454547,
                "tempo": 120.0
            },
            {
                "start_time": 14.302272727272726,
                "end_time": 14.609090909090908,
                "pitch": 60,
                "velocity": 101,
                "duration": 0.30681818181818166,
                "tempo": 120.0
            },
            {
                "start_time": 13.952272727272726,
                "end_time": 14.654545454545454,
                "pitch": 64,
                "velocity": 101,
                "duration": 0.702272727272728,
                "tempo": 120.0
            },
            {
                "start_time": 14.654545454545454,
                "end_time": 15.993181818181817,
                "pitch": 56,
                "velocity": 101,
                "duration": 1.338636363636363,
                "tempo": 120.0
            },
            {
                "start_time": 16.038636363636364,
                "end_time": 16.345454545454544,
                "pitch": 56,
                "velocity": 101,
                "duration": 0.3068181818181799,
                "tempo": 120.0
            },
            {
                "start_time": 14.302272727272726,
                "end_time": 16.39090909090909,
                "pitch": 39,
                "velocity": 101,
                "duration": 2.0886363636363647,
                "tempo": 120.0
            },
            {
                "start_time": 16.39090909090909,
                "end_time": 16.695454545454545,
                "pitch": 60,
                "velocity": 101,
                "duration": 0.3045454545454547,
                "tempo": 120.0
            },
            {
                "start_time": 16.743181818181817,
                "end_time": 18.081818181818182,
                "pitch": 70,
                "velocity": 101,
                "duration": 1.3386363636363647,
                "tempo": 120.0
            },
            {
                "start_time": 18.127272727272725,
                "end_time": 18.43181818181818,
                "pitch": 70,
                "velocity": 101,
                "duration": 0.3045454545454547,
                "tempo": 120.0
            },
            {
                "start_time": 18.477272727272727,
                "end_time": 18.784090909090907,
                "pitch": 68,
                "velocity": 101,
                "duration": 0.3068181818181799,
                "tempo": 120.0
            },
            {
                "start_time": 20.224999999999998,
                "end_time": 20.527272727272727,
                "pitch": 67,
                "velocity": 101,
                "duration": 0.30227272727272947,
                "tempo": 120.0
            },
            {
                "start_time": 20.57272727272727,
                "end_time": 20.87272727272727,
                "pitch": 67,
                "velocity": 101,
                "duration": 0.3000000000000007,
                "tempo": 120.0
            },
            {
                "start_time": 20.918181818181818,
                "end_time": 27.318181818181817,
                "pitch": 68,
                "velocity": 101,
                "duration": 6.399999999999999,
                "tempo": 120.0
            },
            {
                "start_time": 127.31590909090909,
                "end_time": 128.04772727272726,
                "pitch": 63,
                "velocity": 32,
                "duration": 0.7318181818181699,
                "tempo": 120.0
            },
            {
                "start_time": 128.09772727272727,
                "end_time": 128.43863636363636,
                "pitch": 59,
                "velocity": 32,
                "duration": 0.3409090909090935,
                "tempo": 120.0
            },
            {
                "start_time": 128.48863636363635,
                "end_time": 128.8340909090909,
                "pitch": 60,
                "velocity": 32,
                "duration": 0.3454545454545439,
                "tempo": 120.0
            },
            {
                "start_time": 128.88181818181818,
                "end_time": 129.22727272727272,
                "pitch": 62,
                "velocity": 32,
                "duration": 0.3454545454545439,
                "tempo": 120.0
            },
            {
                "start_time": 129.27727272727273,
                "end_time": 129.62045454545455,
                "pitch": 62,
                "velocity": 32,
                "duration": 0.3431818181818187,
                "tempo": 120.0
            },
            {
                "start_time": 129.67045454545453,
                "end_time": 131.9840909090909,
                "pitch": 63,
                "velocity": 32,
                "duration": 2.3136363636363626,
                "tempo": 120.0
            },
            {
                "start_time": 20.224999999999998,
                "end_time": 132.03181818181818,
                "pitch": 78,
                "velocity": 101,
                "duration": 111.80681818181819,
                "tempo": 120.0
            },
            {
                "start_time": 132.03181818181818,
                "end_time": 132.77045454545453,
                "pitch": 68,
                "velocity": 32,
                "duration": 0.7386363636363455,
                "tempo": 120.0
            },
            {
                "start_time": 132.82045454545454,
                "end_time": 133.55454545454546,
                "pitch": 68,
                "velocity": 32,
                "duration": 0.7340909090909236,
                "tempo": 120.0
            },
            {
                "start_time": 133.60454545454544,
                "end_time": 134.3409090909091,
                "pitch": 59,
                "velocity": 32,
                "duration": 0.7363636363636488,
                "tempo": 120.0
            },
            {
                "start_time": 128.48863636363635,
                "end_time": 134.39090909090908,
                "pitch": 44,
                "velocity": 32,
                "duration": 5.902272727272731,
                "tempo": 120.0
            },
            {
                "start_time": 128.88181818181818,
                "end_time": 135.525,
                "pitch": 60,
                "velocity": 32,
                "duration": 6.64318181818183,
                "tempo": 120.0
            },
            {
                "start_time": 134.39090909090908,
                "end_time": 135.525,
                "pitch": 60,
                "velocity": 32,
                "duration": 1.1340909090909292,
                "tempo": 120.0
            },
            {
                "start_time": 14.654545454545454,
                "end_time": 135.57272727272726,
                "pitch": 64,
                "velocity": 101,
                "duration": 120.91818181818181,
                "tempo": 120.0
            },
            {
                "start_time": 133.60454545454544,
                "end_time": 135.91136363636363,
                "pitch": 55,
                "velocity": 32,
                "duration": 2.306818181818187,
                "tempo": 120.0
            },
            {
                "start_time": 135.57272727272726,
                "end_time": 135.91136363636363,
                "pitch": 55,
                "velocity": 32,
                "duration": 0.3386363636363683,
                "tempo": 120.0
            },
            {
                "start_time": 135.57272727272726,
                "end_time": 136.35454545454544,
                "pitch": 64,
                "velocity": 32,
                "duration": 0.7818181818181813,
                "tempo": 120.0
            },
            {
                "start_time": 136.35454545454544,
                "end_time": 136.69772727272726,
                "pitch": 59,
                "velocity": 32,
                "duration": 0.3431818181818187,
                "tempo": 120.0
            },
            {
                "start_time": 134.39090909090908,
                "end_time": 136.74545454545455,
                "pitch": 44,
                "velocity": 32,
                "duration": 2.354545454545473,
                "tempo": 120.0
            },
            {
                "start_time": 136.74545454545455,
                "end_time": 137.08863636363637,
                "pitch": 60,
                "velocity": 32,
                "duration": 0.3431818181818187,
                "tempo": 120.0
            },
            {
                "start_time": 137.13863636363635,
                "end_time": 137.4840909090909,
                "pitch": 62,
                "velocity": 32,
                "duration": 0.3454545454545439,
                "tempo": 120.0
            },
            {
                "start_time": 137.5340909090909,
                "end_time": 138.67045454545453,
                "pitch": 62,
                "velocity": 32,
                "duration": 1.136363636363626,
                "tempo": 120.0
            },
            {
                "start_time": 138.72045454545454,
                "end_time": 139.06136363636364,
                "pitch": 59,
                "velocity": 32,
                "duration": 0.3409090909090935,
                "tempo": 120.0
            },
            {
                "start_time": 136.74545454545455,
                "end_time": 139.1090909090909,
                "pitch": 44,
                "velocity": 32,
                "duration": 2.3636363636363455,
                "tempo": 120.0
            },
            {
                "start_time": 139.1090909090909,
                "end_time": 139.45,
                "pitch": 62,
                "velocity": 32,
                "duration": 0.3409090909090935,
                "tempo": 120.0
            },
            {
                "start_time": 137.13863636363635,
                "end_time": 140.24090909090907,
                "pitch": 60,
                "velocity": 32,
                "duration": 3.1022727272727195,
                "tempo": 120.0
            },
            {
                "start_time": 139.5,
                "end_time": 140.24090909090907,
                "pitch": 60,
                "velocity": 32,
                "duration": 0.7409090909090708,
                "tempo": 120.0
            },
            {
                "start_time": 140.29090909090908,
                "end_time": 140.7340909090909,
                "pitch": 63,
                "velocity": 32,
                "duration": 0.443181818181813,
                "tempo": 120.0
            },
            {
                "start_time": 140.78181818181818,
                "end_time": 140.92954545454546,
                "pitch": 52,
                "velocity": 32,
                "duration": 0.14772727272728048,
                "tempo": 120.0
            },
            {
                "start_time": 140.97954545454544,
                "end_time": 141.125,
                "pitch": 51,
                "velocity": 32,
                "duration": 0.14545454545455527,
                "tempo": 120.0
            },
            {
                "start_time": 128.09772727272727,
                "end_time": 141.17499999999998,
                "pitch": 66,
                "velocity": 32,
                "duration": 13.077272727272714,
                "tempo": 120.0
            },
            {
                "start_time": 141.17499999999998,
                "end_time": 141.32045454545454,
                "pitch": 56,
                "velocity": 32,
                "duration": 0.14545454545455527,
                "tempo": 120.0
            },
            {
                "start_time": 141.37045454545455,
                "end_time": 141.5181818181818,
                "pitch": 48,
                "velocity": 32,
                "duration": 0.14772727272725206,
                "tempo": 120.0
            },
            {
                "start_time": 141.5659090909091,
                "end_time": 141.71363636363637,
                "pitch": 51,
                "velocity": 32,
                "duration": 0.14772727272728048,
                "tempo": 120.0
            },
            {
                "start_time": 141.76363636363635,
                "end_time": 141.91136363636363,
                "pitch": 51,
                "velocity": 32,
                "duration": 0.14772727272728048,
                "tempo": 120.0
            },
            {
                "start_time": 141.17499999999998,
                "end_time": 141.96136363636364,
                "pitch": 66,
                "velocity": 32,
                "duration": 0.7863636363636601,
                "tempo": 120.0
            },
            {
                "start_time": 141.96136363636364,
                "end_time": 142.10681818181817,
                "pitch": 56,
                "velocity": 32,
                "duration": 0.14545454545452685,
                "tempo": 120.0
            },
            {
                "start_time": 140.29090909090908,
                "end_time": 142.30454545454546,
                "pitch": 60,
                "velocity": 32,
                "duration": 2.0136363636363797,
                "tempo": 120.0
            },
            {
                "start_time": 142.15681818181818,
                "end_time": 142.30454545454546,
                "pitch": 60,
                "velocity": 32,
                "duration": 0.14772727272728048,
                "tempo": 120.0
            },
            {
                "start_time": 141.5659090909091,
                "end_time": 142.35454545454544,
                "pitch": 48,
                "velocity": 32,
                "duration": 0.7886363636363569,
                "tempo": 120.0
            },
            {
                "start_time": 142.35454545454544,
                "end_time": 142.5,
                "pitch": 51,
                "velocity": 32,
                "duration": 0.14545454545455527,
                "tempo": 120.0
            },
            {
                "start_time": 142.54999999999998,
                "end_time": 142.69772727272726,
                "pitch": 51,
                "velocity": 32,
                "duration": 0.14772727272728048,
                "tempo": 120.0
            },
            {
                "start_time": 141.96136363636364,
                "end_time": 142.74772727272727,
                "pitch": 66,
                "velocity": 32,
                "duration": 0.7863636363636317,
                "tempo": 120.0
            },
            {
                "start_time": 142.74772727272727,
                "end_time": 142.8931818181818,
                "pitch": 55,
                "velocity": 32,
                "duration": 0.14545454545452685,
                "tempo": 120.0
            },
            {
                "start_time": 142.9431818181818,
                "end_time": 143.08863636363637,
                "pitch": 55,
                "velocity": 32,
                "duration": 0.14545454545455527,
                "tempo": 120.0
            },
            {
                "start_time": 143.13863636363635,
                "end_time": 143.2840909090909,
                "pitch": 56,
                "velocity": 32,
                "duration": 0.14545454545455527,
                "tempo": 120.0
            },
            {
                "start_time": 16.39090909090909,
                "end_time": 143.3340909090909,
                "pitch": 39,
                "velocity": 101,
                "duration": 126.9431818181818,
                "tempo": 120.0
            },
            {
                "start_time": 143.3340909090909,
                "end_time": 143.48181818181817,
                "pitch": 60,
                "velocity": 32,
                "duration": 0.14772727272728048,
                "tempo": 120.0
            },
            {
                "start_time": 139.5,
                "end_time": 143.6772727272727,
                "pitch": 62,
                "velocity": 32,
                "duration": 4.177272727272708,
                "tempo": 120.0
            },
            {
                "start_time": 143.53181818181818,
                "end_time": 143.6772727272727,
                "pitch": 62,
                "velocity": 32,
                "duration": 0.14545454545452685,
                "tempo": 120.0
            },
            {
                "start_time": 143.72727272727272,
                "end_time": 143.875,
                "pitch": 62,
                "velocity": 32,
                "duration": 0.14772727272728048,
                "tempo": 120.0
            },
            {
                "start_time": 143.92499999999998,
                "end_time": 144.07272727272726,
                "pitch": 51,
                "velocity": 32,
                "duration": 0.14772727272728048,
                "tempo": 120.0
            },
            {
                "start_time": 138.72045454545454,
                "end_time": 144.12045454545455,
                "pitch": 65,
                "velocity": 32,
                "duration": 5.400000000000006,
                "tempo": 120.0
            },
            {
                "start_time": 144.12045454545455,
                "end_time": 144.2681818181818,
                "pitch": 56,
                "velocity": 32,
                "duration": 0.14772727272725206,
                "tempo": 120.0
            },
            {
                "start_time": 144.3181818181818,
                "end_time": 144.4659090909091,
                "pitch": 59,
                "velocity": 32,
                "duration": 0.14772727272728048,
                "tempo": 120.0
            },
            {
                "start_time": 139.1090909090909,
                "end_time": 144.51590909090908,
                "pitch": 44,
                "velocity": 32,
                "duration": 5.406818181818181,
                "tempo": 120.0
            },
            {
                "start_time": 144.51590909090908,
                "end_time": 144.66136363636363,
                "pitch": 63,
                "velocity": 32,
                "duration": 0.14545454545455527,
                "tempo": 120.0
            },
            {
                "start_time": 144.71136363636364,
                "end_time": 144.8590909090909,
                "pitch": 51,
                "velocity": 32,
                "duration": 0.14772727272725206,
                "tempo": 120.0
            },
            {
                "start_time": 142.74772727272727,
                "end_time": 144.90681818181818,
                "pitch": 66,
                "velocity": 32,
                "duration": 2.1590909090909065,
                "tempo": 120.0
            },
            {
                "start_time": 144.3181818181818,
                "end_time": 145.05454545454543,
                "pitch": 56,
                "velocity": 32,
                "duration": 0.7363636363636203,
                "tempo": 120.0
            },
            {
                "start_time": 144.90681818181818,
                "end_time": 145.05454545454543,
                "pitch": 56,
                "velocity": 32,
                "duration": 0.14772727272725206,
                "tempo": 120.0
            },
            {
                "start_time": 145.10227272727272,
                "end_time": 145.25,
                "pitch": 59,
                "velocity": 32,
                "duration": 0.14772727272728048,
                "tempo": 120.0
            },
            {
                "start_time": 145.29999999999998,
                "end_time": 145.44545454545454,
                "pitch": 59,
                "velocity": 32,
                "duration": 0.14545454545455527,
                "tempo": 120.0
            },
            {
                "start_time": 145.49545454545455,
                "end_time": 145.6431818181818,
                "pitch": 50,
                "velocity": 32,
                "duration": 0.14772727272725206,
                "tempo": 120.0
            },
            {
                "start_time": 145.6931818181818,
                "end_time": 145.8409090909091,
                "pitch": 53,
                "velocity": 32,
                "duration": 0.14772727272728048,
                "tempo": 120.0
            },
            {
                "start_time": 144.90681818181818,
                "end_time": 145.88863636363635,
                "pitch": 66,
                "velocity": 32,
                "duration": 0.9818181818181699,
                "tempo": 120.0
            },
            {
                "start_time": 145.10227272727272,
                "end_time": 146.03636363636363,
                "pitch": 56,
                "velocity": 32,
                "duration": 0.9340909090909122,
                "tempo": 120.0
            },
            {
                "start_time": 145.88863636363635,
                "end_time": 146.03636363636363,
                "pitch": 56,
                "velocity": 32,
                "duration": 0.14772727272728048,
                "tempo": 120.0
            },
            {
                "start_time": 146.08636363636364,
                "end_time": 146.23863636363635,
                "pitch": 56,
                "velocity": 32,
                "duration": 0.15227272727270247,
                "tempo": 120.0
            },
            {
                "start_time": 143.3340909090909,
                "end_time": 146.28863636363636,
                "pitch": 39,
                "velocity": 32,
                "duration": 2.9545454545454675,
                "tempo": 120.0
            },
            {
                "start_time": 146.28863636363636,
                "end_time": 146.43636363636364,
                "pitch": 62,
                "velocity": 32,
                "duration": 0.14772727272728048,
                "tempo": 120.0
            },
            {
                "start_time": 144.12045454545455,
                "end_time": 146.62954545454545,
                "pitch": 65,
                "velocity": 32,
                "duration": 2.509090909090901,
                "tempo": 120.0
            },
            {
                "start_time": 146.4840909090909,
                "end_time": 146.62954545454545,
                "pitch": 65,
                "velocity": 32,
                "duration": 0.14545454545455527,
                "tempo": 120.0
            },
            {
                "start_time": 132.03181818181818,
                "end_time": 146.6772727272727,
                "pitch": 78,
                "velocity": 32,
                "duration": 14.645454545454527,
                "tempo": 120.0
            },
            {
                "start_time": 146.6772727272727,
                "end_time": 146.82045454545454,
                "pitch": 68,
                "velocity": 32,
                "duration": 0.14318181818183007,
                "tempo": 120.0
            }
        ],
        "French Horn": [
            {
                "start_time": 149.12727272727273,
                "end_time": 149.72045454545454,
                "pitch": 58,
                "velocity": 101,
                "duration": 0.5931818181818187,
                "tempo": 120.0
            },
            {
                "start_time": 149.72045454545454,
                "end_time": 149.85227272727272,
                "pitch": 51,
                "velocity": 101,
                "duration": 0.13181818181817562,
                "tempo": 120.0
            },
            {
                "start_time": 149.92272727272726,
                "end_time": 150.64772727272725,
                "pitch": 57,
                "velocity": 101,
                "duration": 0.7249999999999943,
                "tempo": 120.0
            },
            {
                "start_time": 150.7159090909091,
                "end_time": 151.42499999999998,
                "pitch": 53,
                "velocity": 101,
                "duration": 0.7090909090908895,
                "tempo": 120.0
            },
            {
                "start_time": 151.49318181818182,
                "end_time": 151.825,
                "pitch": 57,
                "velocity": 101,
                "duration": 0.33181818181816425,
                "tempo": 120.0
            },
            {
                "start_time": 150.7159090909091,
                "end_time": 151.8931818181818,
                "pitch": 19,
                "velocity": 101,
                "duration": 1.1772727272727082,
                "tempo": 120.0
            },
            {
                "start_time": 151.8931818181818,
                "end_time": 152.02272727272725,
                "pitch": 51,
                "velocity": 101,
                "duration": 0.1295454545454504,
                "tempo": 120.0
            },
            {
                "start_time": 152.08863636363637,
                "end_time": 152.21818181818182,
                "pitch": 53,
                "velocity": 101,
                "duration": 0.1295454545454504,
                "tempo": 120.0
            },
            {
                "start_time": 149.92272727272726,
                "end_time": 152.28636363636363,
                "pitch": 65,
                "velocity": 101,
                "duration": 2.363636363636374,
                "tempo": 120.0
            },
            {
                "start_time": 152.28636363636363,
                "end_time": 152.41136363636363,
                "pitch": 60,
                "velocity": 101,
                "duration": 0.125,
                "tempo": 120.0
            },
            {
                "start_time": 152.08863636363637,
                "end_time": 152.79772727272726,
                "pitch": 51,
                "velocity": 101,
                "duration": 0.7090909090908895,
                "tempo": 120.0
            },
            {
                "start_time": 152.67045454545453,
                "end_time": 152.79772727272726,
                "pitch": 51,
                "velocity": 101,
                "duration": 0.1272727272727252,
                "tempo": 120.0
            },
            {
                "start_time": 152.86590909090907,
                "end_time": 152.99545454545455,
                "pitch": 53,
                "velocity": 101,
                "duration": 0.12954545454547883,
                "tempo": 120.0
            },
            {
                "start_time": 151.49318181818182,
                "end_time": 153.06363636363636,
                "pitch": 66,
                "velocity": 101,
                "duration": 1.5704545454545382,
                "tempo": 120.0
            },
            {
                "start_time": 153.06363636363636,
                "end_time": 153.78863636363636,
                "pitch": 58,
                "velocity": 101,
                "duration": 0.7249999999999943,
                "tempo": 120.0
            },
            {
                "start_time": 153.85454545454544,
                "end_time": 154.5659090909091,
                "pitch": 55,
                "velocity": 101,
                "duration": 0.7113636363636431,
                "tempo": 120.0
            },
            {
                "start_time": 152.86590909090907,
                "end_time": 155.16136363636363,
                "pitch": 51,
                "velocity": 101,
                "duration": 2.295454545454561,
                "tempo": 120.0
            },
            {
                "start_time": 155.03181818181818,
                "end_time": 155.16136363636363,
                "pitch": 51,
                "velocity": 101,
                "duration": 0.1295454545454504,
                "tempo": 120.0
            },
            {
                "start_time": 155.22727272727272,
                "end_time": 155.3590909090909,
                "pitch": 50,
                "velocity": 101,
                "duration": 0.13181818181817562,
                "tempo": 120.0
            },
            {
                "start_time": 152.28636363636363,
                "end_time": 155.42499999999998,
                "pitch": 65,
                "velocity": 101,
                "duration": 3.1386363636363512,
                "tempo": 120.0
            },
            {
                "start_time": 153.85454545454544,
                "end_time": 155.5522727272727,
                "pitch": 58,
                "velocity": 101,
                "duration": 1.6977272727272634,
                "tempo": 120.0
            },
            {
                "start_time": 155.42499999999998,
                "end_time": 155.5522727272727,
                "pitch": 58,
                "velocity": 101,
                "duration": 0.1272727272727252,
                "tempo": 120.0
            },
            {
                "start_time": 149.72045454545454,
                "end_time": 155.8090909090909,
                "pitch": 26,
                "velocity": 101,
                "duration": 6.088636363636368,
                "tempo": 120.0
            },
            {
                "start_time": 155.8090909090909,
                "end_time": 155.93863636363636,
                "pitch": 50,
                "velocity": 101,
                "duration": 0.1295454545454504,
                "tempo": 120.0
            },
            {
                "start_time": 156.00681818181818,
                "end_time": 156.1340909090909,
                "pitch": 50,
                "velocity": 101,
                "duration": 0.1272727272727252,
                "tempo": 120.0
            },
            {
                "start_time": 156.2022727272727,
                "end_time": 156.52727272727273,
                "pitch": 60,
                "velocity": 101,
                "duration": 0.32500000000001705,
                "tempo": 120.0
            },
            {
                "start_time": 152.67045454545453,
                "end_time": 156.59545454545454,
                "pitch": 48,
                "velocity": 101,
                "duration": 3.9250000000000114,
                "tempo": 120.0
            },
            {
                "start_time": 156.59545454545454,
                "end_time": 156.72727272727272,
                "pitch": 53,
                "velocity": 101,
                "duration": 0.13181818181817562,
                "tempo": 120.0
            },
            {
                "start_time": 153.06363636363636,
                "end_time": 156.79545454545453,
                "pitch": 66,
                "velocity": 101,
                "duration": 3.73181818181817,
                "tempo": 120.0
            },
            {
                "start_time": 156.79545454545453,
                "end_time": 156.9272727272727,
                "pitch": 55,
                "velocity": 101,
                "duration": 0.13181818181817562,
                "tempo": 120.0
            },
            {
                "start_time": 156.99545454545455,
                "end_time": 157.12727272727273,
                "pitch": 55,
                "velocity": 101,
                "duration": 0.13181818181817562,
                "tempo": 120.0
            },
            {
                "start_time": 157.38863636363635,
                "end_time": 157.52045454545453,
                "pitch": 53,
                "velocity": 101,
                "duration": 0.13181818181817562,
                "tempo": 120.0
            },
            {
                "start_time": 156.79545454545453,
                "end_time": 157.58636363636361,
                "pitch": 66,
                "velocity": 101,
                "duration": 0.7909090909090821,
                "tempo": 120.0
            },
            {
                "start_time": 157.58636363636361,
                "end_time": 157.7159090909091,
                "pitch": 55,
                "velocity": 101,
                "duration": 0.12954545454547883,
                "tempo": 120.0
            },
            {
                "start_time": 157.7840909090909,
                "end_time": 157.91136363636363,
                "pitch": 55,
                "velocity": 101,
                "duration": 0.1272727272727252,
                "tempo": 120.0
            },
            {
                "start_time": 157.38863636363635,
                "end_time": 158.16590909090908,
                "pitch": 7,
                "velocity": 101,
                "duration": 0.7772727272727309,
                "tempo": 120.0
            },
            {
                "start_time": 158.16590909090908,
                "end_time": 158.29772727272726,
                "pitch": 53,
                "velocity": 101,
                "duration": 0.13181818181817562,
                "tempo": 120.0
            },
            {
                "start_time": 157.58636363636361,
                "end_time": 158.5681818181818,
                "pitch": 66,
                "velocity": 101,
                "duration": 0.9818181818181984,
                "tempo": 120.0
            },
            {
                "start_time": 158.5681818181818,
                "end_time": 158.69772727272726,
                "pitch": 57,
                "velocity": 101,
                "duration": 0.1295454545454504,
                "tempo": 120.0
            },
            {
                "start_time": 158.96136363636361,
                "end_time": 159.09318181818182,
                "pitch": 60,
                "velocity": 101,
                "duration": 0.13181818181820404,
                "tempo": 120.0
            },
            {
                "start_time": 159.36363636363635,
                "end_time": 160.8590909090909,
                "pitch": 62,
                "velocity": 101,
                "duration": 1.4954545454545496,
                "tempo": 120.0
            },
            {
                "start_time": 160.92499999999998,
                "end_time": 164.475,
                "pitch": 64,
                "velocity": 101,
                "duration": 3.5500000000000114,
                "tempo": 120.0
            }
        ],
        "Acoustic Bass": [
            {
                "start_time": 164.99772727272727,
                "end_time": 165.37045454545455,
                "pitch": 45,
                "velocity": 64,
                "duration": 0.3727272727272748,
                "tempo": 120.0
            },
            {
                "start_time": 165.42045454545453,
                "end_time": 165.42272727272726,
                "pitch": 19,
                "velocity": 64,
                "duration": 0.0022727272727252057,
                "tempo": 120.0
            },
            {
                "start_time": 165.42272727272726,
                "end_time": 165.7931818181818,
                "pitch": 52,
                "velocity": 64,
                "duration": 0.3704545454545496,
                "tempo": 120.0
            },
            {
                "start_time": 165.84545454545454,
                "end_time": 166.1931818181818,
                "pitch": 57,
                "velocity": 64,
                "duration": 0.3477272727272691,
                "tempo": 120.0
            },
            {
                "start_time": 166.24090909090907,
                "end_time": 166.58863636363637,
                "pitch": 52,
                "velocity": 64,
                "duration": 0.34772727272729753,
                "tempo": 120.0
            },
            {
                "start_time": 166.63636363636363,
                "end_time": 166.9840909090909,
                "pitch": 43,
                "velocity": 64,
                "duration": 0.3477272727272691,
                "tempo": 120.0
            },
            {
                "start_time": 167.03181818181818,
                "end_time": 167.37954545454545,
                "pitch": 50,
                "velocity": 64,
                "duration": 0.3477272727272691,
                "tempo": 120.0
            },
            {
                "start_time": 167.4272727272727,
                "end_time": 168.17045454545453,
                "pitch": 59,
                "velocity": 64,
                "duration": 0.7431818181818244,
                "tempo": 120.0
            },
            {
                "start_time": 168.21818181818182,
                "end_time": 168.5659090909091,
                "pitch": 43,
                "velocity": 64,
                "duration": 0.3477272727272691,
                "tempo": 120.0
            },
            {
                "start_time": 167.03181818181818,
                "end_time": 168.61363636363635,
                "pitch": 0,
                "velocity": 64,
                "duration": 1.5818181818181642,
                "tempo": 120.0
            },
            {
                "start_time": 168.61363636363635,
                "end_time": 168.96136363636361,
                "pitch": 50,
                "velocity": 64,
                "duration": 0.3477272727272691,
                "tempo": 120.0
            },
            {
                "start_time": 167.4272727272727,
                "end_time": 169.0090909090909,
                "pitch": 65,
                "velocity": 64,
                "duration": 1.5818181818181927,
                "tempo": 120.0
            },
            {
                "start_time": 169.0090909090909,
                "end_time": 169.35,
                "pitch": 59,
                "velocity": 64,
                "duration": 0.3409090909090935,
                "tempo": 120.0
            },
            {
                "start_time": 169.39772727272725,
                "end_time": 169.73863636363635,
                "pitch": 50,
                "velocity": 64,
                "duration": 0.3409090909090935,
                "tempo": 120.0
            },
            {
                "start_time": 169.78636363636363,
                "end_time": 170.1340909090909,
                "pitch": 41,
                "velocity": 64,
                "duration": 0.3477272727272691,
                "tempo": 120.0
            },
            {
                "start_time": 164.99772727272727,
                "end_time": 170.17954545454543,
                "pitch": 53,
                "velocity": 64,
                "duration": 5.181818181818159,
                "tempo": 120.0
            },
            {
                "start_time": 170.17954545454543,
                "end_time": 170.52954545454546,
                "pitch": 48,
                "velocity": 64,
                "duration": 0.35000000000002274,
                "tempo": 120.0
            },
            {
                "start_time": 170.575,
                "end_time": 170.5772727272727,
                "pitch": 64,
                "velocity": 64,
                "duration": 0.0022727272727252057,
                "tempo": 120.0
            },
            {
                "start_time": 170.5772727272727,
                "end_time": 171.32045454545454,
                "pitch": 57,
                "velocity": 64,
                "duration": 0.7431818181818244,
                "tempo": 120.0
            },
            {
                "start_time": 171.3681818181818,
                "end_time": 171.7159090909091,
                "pitch": 41,
                "velocity": 64,
                "duration": 0.34772727272729753,
                "tempo": 120.0
            },
            {
                "start_time": 170.17954545454543,
                "end_time": 171.76363636363635,
                "pitch": 53,
                "velocity": 64,
                "duration": 1.5840909090909179,
                "tempo": 120.0
            },
            {
                "start_time": 171.76363636363635,
                "end_time": 172.11136363636362,
                "pitch": 48,
                "velocity": 64,
                "duration": 0.3477272727272691,
                "tempo": 120.0
            },
            {
                "start_time": 172.1590909090909,
                "end_time": 172.5,
                "pitch": 57,
                "velocity": 64,
                "duration": 0.3409090909090935,
                "tempo": 120.0
            },
            {
                "start_time": 166.24090909090907,
                "end_time": 172.54772727272726,
                "pitch": 19,
                "velocity": 64,
                "duration": 6.306818181818187,
                "tempo": 120.0
            },
            {
                "start_time": 172.54772727272726,
                "end_time": 172.88636363636363,
                "pitch": 48,
                "velocity": 64,
                "duration": 0.3386363636363683,
                "tempo": 120.0
            },
            {
                "start_time": 172.9340909090909,
                "end_time": 173.28181818181818,
                "pitch": 40,
                "velocity": 64,
                "duration": 0.3477272727272691,
                "tempo": 120.0
            },
            {
                "start_time": 166.63636363636363,
                "end_time": 173.32954545454544,
                "pitch": 54,
                "velocity": 64,
                "duration": 6.693181818181813,
                "tempo": 120.0
            },
            {
                "start_time": 168.21818181818182,
                "end_time": 173.6772727272727,
                "pitch": 47,
                "velocity": 64,
                "duration": 5.4590909090908895,
                "tempo": 120.0
            },
            {
                "start_time": 173.32954545454544,
                "end_time": 173.6772727272727,
                "pitch": 47,
                "velocity": 64,
                "duration": 0.3477272727272691,
                "tempo": 120.0
            },
            {
                "start_time": 173.725,
                "end_time": 174.07272727272726,
                "pitch": 55,
                "velocity": 64,
                "duration": 0.3477272727272691,
                "tempo": 120.0
            },
            {
                "start_time": 168.61363636363635,
                "end_time": 174.12045454545455,
                "pitch": 0,
                "velocity": 64,
                "duration": 5.506818181818204,
                "tempo": 120.0
            },
            {
                "start_time": 174.12045454545455,
                "end_time": 174.46818181818182,
                "pitch": 50,
                "velocity": 64,
                "duration": 0.3477272727272691,
                "tempo": 120.0
            },
            {
                "start_time": 171.76363636363635,
                "end_time": 174.51590909090908,
                "pitch": 53,
                "velocity": 64,
                "duration": 2.752272727272725,
                "tempo": 120.0
            },
            {
                "start_time": 174.51590909090908,
                "end_time": 174.86363636363635,
                "pitch": 45,
                "velocity": 64,
                "duration": 0.3477272727272691,
                "tempo": 120.0
            },
            {
                "start_time": 172.54772727272726,
                "end_time": 174.91136363636363,
                "pitch": 19,
                "velocity": 64,
                "duration": 2.363636363636374,
                "tempo": 120.0
            },
            {
                "start_time": 174.91136363636363,
                "end_time": 175.2590909090909,
                "pitch": 52,
                "velocity": 64,
                "duration": 0.3477272727272691,
                "tempo": 120.0
            },
            {
                "start_time": 172.1590909090909,
                "end_time": 175.3068181818182,
                "pitch": 64,
                "velocity": 64,
                "duration": 3.1477272727272805,
                "tempo": 120.0
            },
            {
                "start_time": 175.3068181818182,
                "end_time": 175.64772727272725,
                "pitch": 60,
                "velocity": 64,
                "duration": 0.34090909090906507,
                "tempo": 120.0
            },
            {
                "start_time": 175.69545454545454,
                "end_time": 176.03636363636363,
                "pitch": 52,
                "velocity": 64,
                "duration": 0.3409090909090935,
                "tempo": 120.0
            },
            {
                "start_time": 165.84545454545454,
                "end_time": 176.08181818181816,
                "pitch": 66,
                "velocity": 64,
                "duration": 10.23636363636362,
                "tempo": 120.0
            },
            {
                "start_time": 173.725,
                "end_time": 176.4318181818182,
                "pitch": 59,
                "velocity": 64,
                "duration": 2.7068181818181927,
                "tempo": 120.0
            },
            {
                "start_time": 176.08181818181816,
                "end_time": 176.4318181818182,
                "pitch": 59,
                "velocity": 64,
                "duration": 0.35000000000002274,
                "tempo": 120.0
            },
            {
                "start_time": 169.39772727272725,
                "end_time": 176.47727272727272,
                "pitch": 32,
                "velocity": 64,
                "duration": 7.0795454545454675,
                "tempo": 120.0
            },
            {
                "start_time": 176.47727272727272,
                "end_time": 176.8272727272727,
                "pitch": 52,
                "velocity": 64,
                "duration": 0.3499999999999943,
                "tempo": 120.0
            },
            {
                "start_time": 176.875,
                "end_time": 177.22045454545454,
                "pitch": 50,
                "velocity": 64,
                "duration": 0.3454545454545439,
                "tempo": 120.0
            },
            {
                "start_time": 176.875,
                "end_time": 177.61590909090907,
                "pitch": 52,
                "velocity": 64,
                "duration": 0.7409090909090708,
                "tempo": 120.0
            },
            {
                "start_time": 177.27045454545453,
                "end_time": 177.61590909090907,
                "pitch": 52,
                "velocity": 64,
                "duration": 0.3454545454545439,
                "tempo": 120.0
            },
            {
                "start_time": 177.66590909090908,
                "end_time": 178.01136363636363,
                "pitch": 40,
                "velocity": 64,
                "duration": 0.3454545454545439,
                "tempo": 120.0
            },
            {
                "start_time": 174.51590909090908,
                "end_time": 178.0590909090909,
                "pitch": 53,
                "velocity": 64,
                "duration": 3.5431818181818358,
                "tempo": 120.0
            },
            {
                "start_time": 175.69545454545454,
                "end_time": 178.40681818181818,
                "pitch": 48,
                "velocity": 64,
                "duration": 2.711363636363643,
                "tempo": 120.0
            },
            {
                "start_time": 178.0590909090909,
                "end_time": 178.40681818181818,
                "pitch": 48,
                "velocity": 64,
                "duration": 0.3477272727272691,
                "tempo": 120.0
            },
            {
                "start_time": 175.3068181818182,
                "end_time": 178.45454545454544,
                "pitch": 64,
                "velocity": 64,
                "duration": 3.147727272727252,
                "tempo": 120.0
            },
            {
                "start_time": 178.45454545454544,
                "end_time": 178.8022727272727,
                "pitch": 55,
                "velocity": 64,
                "duration": 0.3477272727272691,
                "tempo": 120.0
            },
            {
                "start_time": 174.12045454545455,
                "end_time": 178.85227272727272,
                "pitch": 0,
                "velocity": 64,
                "duration": 4.73181818181817,
                "tempo": 120.0
            },
            {
                "start_time": 178.85227272727272,
                "end_time": 179.19772727272726,
                "pitch": 48,
                "velocity": 64,
                "duration": 0.3454545454545439,
                "tempo": 120.0
            },
            {
                "start_time": 172.9340909090909,
                "end_time": 179.24772727272727,
                "pitch": 36,
                "velocity": 64,
                "duration": 6.313636363636363,
                "tempo": 120.0
            },
            {
                "start_time": 169.78636363636363,
                "end_time": 179.58863636363637,
                "pitch": 38,
                "velocity": 64,
                "duration": 9.802272727272737,
                "tempo": 120.0
            },
            {
                "start_time": 179.24772727272727,
                "end_time": 179.58863636363637,
                "pitch": 38,
                "velocity": 64,
                "duration": 0.3409090909090935,
                "tempo": 120.0
            },
            {
                "start_time": 178.0590909090909,
                "end_time": 179.6340909090909,
                "pitch": 53,
                "velocity": 64,
                "duration": 1.5749999999999886,
                "tempo": 120.0
            },
            {
                "start_time": 179.6340909090909,
                "end_time": 179.975,
                "pitch": 45,
                "velocity": 64,
                "duration": 0.3409090909090935,
                "tempo": 120.0
            }
        ],
        "Acoustic Grand Piano": [
            {
                "start_time": 28.41590909090909,
                "end_time": 28.55681818181818,
                "pitch": 58,
                "velocity": 32,
                "duration": 0.14090909090909065,
                "tempo": 120.0
            },
            {
                "start_time": 28.60681818181818,
                "end_time": 30.138636363636362,
                "pitch": 60,
                "velocity": 32,
                "duration": 1.5318181818181813,
                "tempo": 120.0
            },
            {
                "start_time": 28.41590909090909,
                "end_time": 30.188636363636363,
                "pitch": 64,
                "velocity": 32,
                "duration": 1.7727272727272734,
                "tempo": 120.0
            },
            {
                "start_time": 30.188636363636363,
                "end_time": 30.331818181818182,
                "pitch": 55,
                "velocity": 32,
                "duration": 0.1431818181818194,
                "tempo": 120.0
            },
            {
                "start_time": 30.57272727272727,
                "end_time": 31.327272727272724,
                "pitch": 55,
                "velocity": 32,
                "duration": 0.754545454545454,
                "tempo": 120.0
            },
            {
                "start_time": 32.15909090909091,
                "end_time": 32.89545454545454,
                "pitch": 62,
                "velocity": 32,
                "duration": 0.7363636363636346,
                "tempo": 120.0
            },
            {
                "start_time": 32.94318181818182,
                "end_time": 33.679545454545455,
                "pitch": 63,
                "velocity": 32,
                "duration": 0.7363636363636346,
                "tempo": 120.0
            },
            {
                "start_time": 33.72727272727273,
                "end_time": 33.86590909090909,
                "pitch": 60,
                "velocity": 32,
                "duration": 0.13863636363636545,
                "tempo": 120.0
            },
            {
                "start_time": 30.188636363636363,
                "end_time": 33.913636363636364,
                "pitch": 64,
                "velocity": 32,
                "duration": 3.7250000000000014,
                "tempo": 120.0
            },
            {
                "start_time": 33.913636363636364,
                "end_time": 34.054545454545455,
                "pitch": 58,
                "velocity": 32,
                "duration": 0.14090909090909065,
                "tempo": 120.0
            },
            {
                "start_time": 28.60681818181818,
                "end_time": 34.10681818181818,
                "pitch": 39,
                "velocity": 32,
                "duration": 5.4999999999999964,
                "tempo": 120.0
            },
            {
                "start_time": 34.10681818181818,
                "end_time": 35.25,
                "pitch": 60,
                "velocity": 32,
                "duration": 1.143181818181823,
                "tempo": 120.0
            },
            {
                "start_time": 33.913636363636364,
                "end_time": 35.29545454545455,
                "pitch": 64,
                "velocity": 32,
                "duration": 1.3818181818181827,
                "tempo": 120.0
            },
            {
                "start_time": 35.29545454545455,
                "end_time": 35.43636363636364,
                "pitch": 55,
                "velocity": 32,
                "duration": 0.14090909090909065,
                "tempo": 120.0
            },
            {
                "start_time": 30.57272727272727,
                "end_time": 35.675,
                "pitch": 66,
                "velocity": 32,
                "duration": 5.102272727272727,
                "tempo": 120.0
            },
            {
                "start_time": 35.675,
                "end_time": 36.81818181818181,
                "pitch": 55,
                "velocity": 32,
                "duration": 1.1431818181818159,
                "tempo": 120.0
            },
            {
                "start_time": 33.72727272727273,
                "end_time": 37.25,
                "pitch": 65,
                "velocity": 32,
                "duration": 3.5227272727272734,
                "tempo": 120.0
            },
            {
                "start_time": 37.25,
                "end_time": 37.590909090909086,
                "pitch": 55,
                "velocity": 32,
                "duration": 0.3409090909090864,
                "tempo": 120.0
            },
            {
                "start_time": 37.64090909090909,
                "end_time": 37.98409090909091,
                "pitch": 58,
                "velocity": 32,
                "duration": 0.3431818181818187,
                "tempo": 120.0
            },
            {
                "start_time": 38.03409090909091,
                "end_time": 38.777272727272724,
                "pitch": 67,
                "velocity": 32,
                "duration": 0.7431818181818173,
                "tempo": 120.0
            },
            {
                "start_time": 37.25,
                "end_time": 39.55227272727272,
                "pitch": 65,
                "velocity": 32,
                "duration": 2.3022727272727224,
                "tempo": 120.0
            },
            {
                "start_time": 39.209090909090904,
                "end_time": 39.55227272727272,
                "pitch": 65,
                "velocity": 32,
                "duration": 0.3431818181818187,
                "tempo": 120.0
            },
            {
                "start_time": 39.6,
                "end_time": 40.75,
                "pitch": 63,
                "velocity": 32,
                "duration": 1.1499999999999986,
                "tempo": 120.0
            },
            {
                "start_time": 40.79772727272727,
                "end_time": 41.00454545454545,
                "pitch": 53,
                "velocity": 32,
                "duration": 0.20681818181817846,
                "tempo": 120.0
            },
            {
                "start_time": 35.675,
                "end_time": 41.054545454545455,
                "pitch": 66,
                "velocity": 32,
                "duration": 5.3795454545454575,
                "tempo": 120.0
            },
            {
                "start_time": 37.64090909090909,
                "end_time": 41.27272727272727,
                "pitch": 55,
                "velocity": 32,
                "duration": 3.6318181818181827,
                "tempo": 120.0
            },
            {
                "start_time": 41.054545454545455,
                "end_time": 41.27272727272727,
                "pitch": 55,
                "velocity": 32,
                "duration": 0.2181818181818187,
                "tempo": 120.0
            },
            {
                "start_time": 41.32272727272727,
                "end_time": 41.324999999999996,
                "pitch": 55,
                "velocity": 32,
                "duration": 0.0022727272727252057,
                "tempo": 120.0
            },
            {
                "start_time": 41.324999999999996,
                "end_time": 41.543181818181814,
                "pitch": 58,
                "velocity": 32,
                "duration": 0.2181818181818187,
                "tempo": 120.0
            },
            {
                "start_time": 34.10681818181818,
                "end_time": 41.590909090909086,
                "pitch": 39,
                "velocity": 32,
                "duration": 7.484090909090909,
                "tempo": 120.0
            },
            {
                "start_time": 41.590909090909086,
                "end_time": 42.31818181818181,
                "pitch": 60,
                "velocity": 32,
                "duration": 0.7272727272727266,
                "tempo": 120.0
            },
            {
                "start_time": 42.36818181818182,
                "end_time": 42.574999999999996,
                "pitch": 65,
                "velocity": 32,
                "duration": 0.20681818181817846,
                "tempo": 120.0
            },
            {
                "start_time": 42.62272727272727,
                "end_time": 42.836363636363636,
                "pitch": 67,
                "velocity": 32,
                "duration": 0.2136363636363683,
                "tempo": 120.0
            },
            {
                "start_time": 38.03409090909091,
                "end_time": 43.10227272727273,
                "pitch": 70,
                "velocity": 32,
                "duration": 5.06818181818182,
                "tempo": 120.0
            },
            {
                "start_time": 42.88863636363636,
                "end_time": 43.10227272727273,
                "pitch": 70,
                "velocity": 32,
                "duration": 0.2136363636363683,
                "tempo": 120.0
            },
            {
                "start_time": 43.152272727272724,
                "end_time": 43.89772727272727,
                "pitch": 72,
                "velocity": 32,
                "duration": 0.7454545454545496,
                "tempo": 120.0
            },
            {
                "start_time": 42.36818181818182,
                "end_time": 43.94318181818181,
                "pitch": 60,
                "velocity": 32,
                "duration": 1.5749999999999957,
                "tempo": 120.0
            },
            {
                "start_time": 43.94318181818181,
                "end_time": 44.67045454545455,
                "pitch": 63,
                "velocity": 32,
                "duration": 0.7272727272727337,
                "tempo": 120.0
            },
            {
                "start_time": 44.720454545454544,
                "end_time": 45.465909090909086,
                "pitch": 63,
                "velocity": 32,
                "duration": 0.7454545454545425,
                "tempo": 120.0
            },
            {
                "start_time": 41.054545454545455,
                "end_time": 45.51136363636363,
                "pitch": 66,
                "velocity": 32,
                "duration": 4.4568181818181785,
                "tempo": 120.0
            },
            {
                "start_time": 45.51136363636363,
                "end_time": 46.25,
                "pitch": 58,
                "velocity": 32,
                "duration": 0.7386363636363669,
                "tempo": 120.0
            },
            {
                "start_time": 41.590909090909086,
                "end_time": 46.29545454545455,
                "pitch": 39,
                "velocity": 32,
                "duration": 4.70454545454546,
                "tempo": 120.0
            },
            {
                "start_time": 43.94318181818181,
                "end_time": 46.43636363636364,
                "pitch": 60,
                "velocity": 32,
                "duration": 2.4931818181818244,
                "tempo": 120.0
            },
            {
                "start_time": 46.29545454545455,
                "end_time": 46.43636363636364,
                "pitch": 60,
                "velocity": 32,
                "duration": 0.14090909090909065,
                "tempo": 120.0
            },
            {
                "start_time": 35.29545454545455,
                "end_time": 46.48181818181818,
                "pitch": 64,
                "velocity": 32,
                "duration": 11.18636363636363,
                "tempo": 120.0
            },
            {
                "start_time": 46.48181818181818,
                "end_time": 46.625,
                "pitch": 58,
                "velocity": 32,
                "duration": 0.14318181818182296,
                "tempo": 120.0
            },
            {
                "start_time": 46.29545454545455,
                "end_time": 46.675,
                "pitch": 39,
                "velocity": 32,
                "duration": 0.3795454545454504,
                "tempo": 120.0
            },
            {
                "start_time": 46.675,
                "end_time": 47.81818181818181,
                "pitch": 60,
                "velocity": 32,
                "duration": 1.1431818181818159,
                "tempo": 120.0
            },
            {
                "start_time": 46.48181818181818,
                "end_time": 47.86590909090909,
                "pitch": 64,
                "velocity": 32,
                "duration": 1.384090909090915,
                "tempo": 120.0
            },
            {
                "start_time": 47.86590909090909,
                "end_time": 48.00454545454545,
                "pitch": 55,
                "velocity": 32,
                "duration": 0.13863636363635834,
                "tempo": 120.0
            },
            {
                "start_time": 45.51136363636363,
                "end_time": 48.24318181818182,
                "pitch": 66,
                "velocity": 32,
                "duration": 2.731818181818184,
                "tempo": 120.0
            },
            {
                "start_time": 48.24318181818182,
                "end_time": 48.99545454545454,
                "pitch": 55,
                "velocity": 32,
                "duration": 0.7522727272727252,
                "tempo": 120.0
            },
            {
                "start_time": 49.04090909090909,
                "end_time": 49.18181818181818,
                "pitch": 72,
                "velocity": 32,
                "duration": 0.14090909090909065,
                "tempo": 120.0
            },
            {
                "start_time": 49.22727272727273,
                "end_time": 49.37045454545454,
                "pitch": 70,
                "velocity": 32,
                "duration": 0.14318181818181586,
                "tempo": 120.0
            },
            {
                "start_time": 43.152272727272724,
                "end_time": 49.42045454545454,
                "pitch": 51,
                "velocity": 32,
                "duration": 6.268181818181816,
                "tempo": 120.0
            },
            {
                "start_time": 49.42045454545454,
                "end_time": 50.56136363636364,
                "pitch": 72,
                "velocity": 32,
                "duration": 1.1409090909090978,
                "tempo": 120.0
            },
            {
                "start_time": 50.60909090909091,
                "end_time": 50.74772727272727,
                "pitch": 60,
                "velocity": 32,
                "duration": 0.13863636363635834,
                "tempo": 120.0
            },
            {
                "start_time": 47.86590909090909,
                "end_time": 50.79545454545454,
                "pitch": 64,
                "velocity": 32,
                "duration": 2.9295454545454476,
                "tempo": 120.0
            },
            {
                "start_time": 50.79545454545454,
                "end_time": 50.93636363636364,
                "pitch": 58,
                "velocity": 32,
                "duration": 0.14090909090909776,
                "tempo": 120.0
            },
            {
                "start_time": 46.675,
                "end_time": 50.98863636363636,
                "pitch": 39,
                "velocity": 32,
                "duration": 4.313636363636363,
                "tempo": 120.0
            },
            {
                "start_time": 50.98863636363636,
                "end_time": 52.525,
                "pitch": 60,
                "velocity": 32,
                "duration": 1.5363636363636388,
                "tempo": 120.0
            },
            {
                "start_time": 53.36818181818182,
                "end_time": 53.51136363636363,
                "pitch": 60,
                "velocity": 32,
                "duration": 0.14318181818181586,
                "tempo": 120.0
            },
            {
                "start_time": 50.79545454545454,
                "end_time": 53.559090909090905,
                "pitch": 64,
                "velocity": 32,
                "duration": 2.7636363636363654,
                "tempo": 120.0
            },
            {
                "start_time": 53.559090909090905,
                "end_time": 53.70227272727273,
                "pitch": 58,
                "velocity": 32,
                "duration": 0.14318181818182296,
                "tempo": 120.0
            },
            {
                "start_time": 50.98863636363636,
                "end_time": 53.752272727272725,
                "pitch": 39,
                "velocity": 32,
                "duration": 2.7636363636363654,
                "tempo": 120.0
            },
            {
                "start_time": 53.752272727272725,
                "end_time": 55.27954545454545,
                "pitch": 60,
                "velocity": 32,
                "duration": 1.5272727272727238,
                "tempo": 120.0
            },
            {
                "start_time": 53.559090909090905,
                "end_time": 55.32727272727273,
                "pitch": 64,
                "velocity": 32,
                "duration": 1.768181818181823,
                "tempo": 120.0
            },
            {
                "start_time": 55.32727272727273,
                "end_time": 55.470454545454544,
                "pitch": 55,
                "velocity": 32,
                "duration": 0.14318181818181586,
                "tempo": 120.0
            },
            {
                "start_time": 48.24318181818182,
                "end_time": 55.71363636363636,
                "pitch": 66,
                "velocity": 32,
                "duration": 7.470454545454544,
                "tempo": 120.0
            },
            {
                "start_time": 55.71363636363636,
                "end_time": 56.45454545454545,
                "pitch": 55,
                "velocity": 32,
                "duration": 0.7409090909090921,
                "tempo": 120.0
            },
            {
                "start_time": 57.29545454545454,
                "end_time": 58.03181818181818,
                "pitch": 62,
                "velocity": 32,
                "duration": 0.7363636363636417,
                "tempo": 120.0
            },
            {
                "start_time": 58.07954545454545,
                "end_time": 58.80681818181818,
                "pitch": 63,
                "velocity": 32,
                "duration": 0.7272727272727266,
                "tempo": 120.0
            },
            {
                "start_time": 58.85681818181818,
                "end_time": 59.0,
                "pitch": 60,
                "velocity": 32,
                "duration": 0.14318181818182296,
                "tempo": 120.0
            },
            {
                "start_time": 55.32727272727273,
                "end_time": 59.04772727272727,
                "pitch": 64,
                "velocity": 32,
                "duration": 3.720454545454544,
                "tempo": 120.0
            },
            {
                "start_time": 59.04772727272727,
                "end_time": 59.19090909090909,
                "pitch": 58,
                "velocity": 32,
                "duration": 0.14318181818181586,
                "tempo": 120.0
            },
            {
                "start_time": 53.752272727272725,
                "end_time": 59.240909090909085,
                "pitch": 39,
                "velocity": 32,
                "duration": 5.48863636363636,
                "tempo": 120.0
            },
            {
                "start_time": 59.240909090909085,
                "end_time": 60.38636363636363,
                "pitch": 60,
                "velocity": 32,
                "duration": 1.1454545454545482,
                "tempo": 120.0
            },
            {
                "start_time": 59.04772727272727,
                "end_time": 60.434090909090905,
                "pitch": 64,
                "velocity": 32,
                "duration": 1.3863636363636331,
                "tempo": 120.0
            },
            {
                "start_time": 60.434090909090905,
                "end_time": 60.57272727272727,
                "pitch": 55,
                "velocity": 32,
                "duration": 0.13863636363636545,
                "tempo": 120.0
            },
            {
                "start_time": 55.71363636363636,
                "end_time": 60.81136363636363,
                "pitch": 66,
                "velocity": 32,
                "duration": 5.097727272727269,
                "tempo": 120.0
            },
            {
                "start_time": 60.81136363636363,
                "end_time": 61.95681818181818,
                "pitch": 55,
                "velocity": 32,
                "duration": 1.1454545454545482,
                "tempo": 120.0
            },
            {
                "start_time": 58.85681818181818,
                "end_time": 62.38636363636363,
                "pitch": 65,
                "velocity": 32,
                "duration": 3.529545454545456,
                "tempo": 120.0
            },
            {
                "start_time": 62.38636363636363,
                "end_time": 62.72272727272727,
                "pitch": 55,
                "velocity": 32,
                "duration": 0.336363636363636,
                "tempo": 120.0
            },
            {
                "start_time": 62.775,
                "end_time": 63.12272727272727,
                "pitch": 58,
                "velocity": 32,
                "duration": 0.3477272727272691,
                "tempo": 120.0
            },
            {
                "start_time": 42.88863636363636,
                "end_time": 63.91590909090909,
                "pitch": 67,
                "velocity": 32,
                "duration": 21.02727272727273,
                "tempo": 120.0
            },
            {
                "start_time": 63.17045454545454,
                "end_time": 63.91590909090909,
                "pitch": 67,
                "velocity": 32,
                "duration": 0.7454545454545496,
                "tempo": 120.0
            },
            {
                "start_time": 62.38636363636363,
                "end_time": 64.68409090909091,
                "pitch": 65,
                "velocity": 32,
                "duration": 2.297727272727279,
                "tempo": 120.0
            },
            {
                "start_time": 64.3409090909091,
                "end_time": 64.68409090909091,
                "pitch": 65,
                "velocity": 32,
                "duration": 0.3431818181818187,
                "tempo": 120.0
            },
            {
                "start_time": 64.73409090909091,
                "end_time": 65.87954545454545,
                "pitch": 63,
                "velocity": 32,
                "duration": 1.145454545454541,
                "tempo": 120.0
            },
            {
                "start_time": 40.79772727272727,
                "end_time": 65.92727272727272,
                "pitch": 50,
                "velocity": 32,
                "duration": 25.12954545454545,
                "tempo": 120.0
            },
            {
                "start_time": 65.92727272727272,
                "end_time": 66.1340909090909,
                "pitch": 53,
                "velocity": 32,
                "duration": 0.20681818181817846,
                "tempo": 120.0
            },
            {
                "start_time": 60.81136363636363,
                "end_time": 66.18409090909091,
                "pitch": 66,
                "velocity": 32,
                "duration": 5.372727272727282,
                "tempo": 120.0
            },
            {
                "start_time": 62.775,
                "end_time": 66.40227272727273,
                "pitch": 55,
                "velocity": 32,
                "duration": 3.6272727272727323,
                "tempo": 120.0
            },
            {
                "start_time": 66.18409090909091,
                "end_time": 66.40227272727273,
                "pitch": 55,
                "velocity": 32,
                "duration": 0.2181818181818187,
                "tempo": 120.0
            },
            {
                "start_time": 66.45454545454545,
                "end_time": 66.67272727272727,
                "pitch": 58,
                "velocity": 32,
                "duration": 0.2181818181818187,
                "tempo": 120.0
            },
            {
                "start_time": 59.240909090909085,
                "end_time": 66.72045454545454,
                "pitch": 39,
                "velocity": 32,
                "duration": 7.479545454545459,
                "tempo": 120.0
            },
            {
                "start_time": 66.72045454545454,
                "end_time": 67.45681818181818,
                "pitch": 60,
                "velocity": 32,
                "duration": 0.7363636363636346,
                "tempo": 120.0
            },
            {
                "start_time": 67.50454545454545,
                "end_time": 67.70681818181818,
                "pitch": 65,
                "velocity": 32,
                "duration": 0.20227272727272805,
                "tempo": 120.0
            },
            {
                "start_time": 42.62272727272727,
                "end_time": 67.75227272727273,
                "pitch": 78,
                "velocity": 32,
                "duration": 25.129545454545458,
                "tempo": 120.0
            },
            {
                "start_time": 67.75227272727273,
                "end_time": 67.97045454545454,
                "pitch": 67,
                "velocity": 32,
                "duration": 0.2181818181818187,
                "tempo": 120.0
            },
            {
                "start_time": 63.17045454545454,
                "end_time": 68.24090909090908,
                "pitch": 70,
                "velocity": 32,
                "duration": 5.070454545454545,
                "tempo": 120.0
            },
            {
                "start_time": 68.02272727272727,
                "end_time": 68.24090909090908,
                "pitch": 70,
                "velocity": 32,
                "duration": 0.2181818181818187,
                "tempo": 120.0
            },
            {
                "start_time": 49.42045454545454,
                "end_time": 68.28863636363636,
                "pitch": 51,
                "velocity": 32,
                "duration": 18.868181818181817,
                "tempo": 120.0
            },
            {
                "start_time": 68.28863636363636,
                "end_time": 69.02499999999999,
                "pitch": 72,
                "velocity": 32,
                "duration": 0.7363636363636346,
                "tempo": 120.0
            },
            {
                "start_time": 67.50454545454545,
                "end_time": 69.07272727272726,
                "pitch": 60,
                "velocity": 32,
                "duration": 1.568181818181813,
                "tempo": 120.0
            },
            {
                "start_time": 69.07272727272726,
                "end_time": 69.8,
                "pitch": 63,
                "velocity": 32,
                "duration": 0.7272727272727337,
                "tempo": 120.0
            },
            {
                "start_time": 69.84772727272727,
                "end_time": 70.59318181818182,
                "pitch": 63,
                "velocity": 32,
                "duration": 0.7454545454545496,
                "tempo": 120.0
            },
            {
                "start_time": 66.18409090909091,
                "end_time": 70.64090909090909,
                "pitch": 66,
                "velocity": 32,
                "duration": 4.4568181818181785,
                "tempo": 120.0
            },
            {
                "start_time": 70.64090909090909,
                "end_time": 71.37954545454545,
                "pitch": 58,
                "velocity": 32,
                "duration": 0.7386363636363598,
                "tempo": 120.0
            },
            {
                "start_time": 66.72045454545454,
                "end_time": 71.42727272727272,
                "pitch": 39,
                "velocity": 32,
                "duration": 4.7068181818181785,
                "tempo": 120.0
            },
            {
                "start_time": 69.07272727272726,
                "end_time": 71.57045454545454,
                "pitch": 60,
                "velocity": 32,
                "duration": 2.497727272727275,
                "tempo": 120.0
            },
            {
                "start_time": 71.42727272727272,
                "end_time": 71.57045454545454,
                "pitch": 60,
                "velocity": 32,
                "duration": 0.14318181818181586,
                "tempo": 120.0
            },
            {
                "start_time": 60.434090909090905,
                "end_time": 71.62045454545454,
                "pitch": 64,
                "velocity": 32,
                "duration": 11.18636363636363,
                "tempo": 120.0
            },
            {
                "start_time": 71.62045454545454,
                "end_time": 71.76363636363637,
                "pitch": 58,
                "velocity": 32,
                "duration": 0.14318181818183007,
                "tempo": 120.0
            },
            {
                "start_time": 71.42727272727272,
                "end_time": 71.81363636363636,
                "pitch": 39,
                "velocity": 32,
                "duration": 0.38636363636364024,
                "tempo": 120.0
            },
            {
                "start_time": 71.81363636363636,
                "end_time": 72.94772727272726,
                "pitch": 60,
                "velocity": 32,
                "duration": 1.1340909090909008,
                "tempo": 120.0
            },
            {
                "start_time": 71.62045454545454,
                "end_time": 72.99545454545454,
                "pitch": 64,
                "velocity": 32,
                "duration": 1.375,
                "tempo": 120.0
            },
            {
                "start_time": 66.45454545454545,
                "end_time": 73.1340909090909,
                "pitch": 55,
                "velocity": 32,
                "duration": 6.679545454545448,
                "tempo": 120.0
            },
            {
                "start_time": 72.99545454545454,
                "end_time": 73.1340909090909,
                "pitch": 55,
                "velocity": 32,
                "duration": 0.13863636363636545,
                "tempo": 120.0
            },
            {
                "start_time": 70.64090909090909,
                "end_time": 73.375,
                "pitch": 66,
                "velocity": 32,
                "duration": 2.7340909090909093,
                "tempo": 120.0
            },
            {
                "start_time": 73.375,
                "end_time": 74.125,
                "pitch": 55,
                "velocity": 32,
                "duration": 0.75,
                "tempo": 120.0
            },
            {
                "start_time": 49.04090909090909,
                "end_time": 74.17272727272727,
                "pitch": 2,
                "velocity": 32,
                "duration": 25.131818181818183,
                "tempo": 120.0
            },
            {
                "start_time": 74.17272727272727,
                "end_time": 74.31590909090909,
                "pitch": 72,
                "velocity": 32,
                "duration": 0.14318181818181586,
                "tempo": 120.0
            },
            {
                "start_time": 49.22727272727273,
                "end_time": 74.36363636363636,
                "pitch": 76,
                "velocity": 32,
                "duration": 25.136363636363633,
                "tempo": 120.0
            },
            {
                "start_time": 74.36363636363636,
                "end_time": 74.5090909090909,
                "pitch": 70,
                "velocity": 32,
                "duration": 0.14545454545454106,
                "tempo": 120.0
            },
            {
                "start_time": 68.28863636363636,
                "end_time": 74.55681818181817,
                "pitch": 51,
                "velocity": 32,
                "duration": 6.268181818181816,
                "tempo": 120.0
            },
            {
                "start_time": 74.55681818181817,
                "end_time": 75.69090909090909,
                "pitch": 72,
                "velocity": 32,
                "duration": 1.134090909090915,
                "tempo": 120.0
            },
            {
                "start_time": 75.73863636363636,
                "end_time": 75.88181818181818,
                "pitch": 60,
                "velocity": 32,
                "duration": 0.14318181818181586,
                "tempo": 120.0
            },
            {
                "start_time": 72.99545454545454,
                "end_time": 75.93181818181817,
                "pitch": 64,
                "velocity": 32,
                "duration": 2.9363636363636374,
                "tempo": 120.0
            },
            {
                "start_time": 75.92954545454545,
                "end_time": 75.93181818181817,
                "pitch": 64,
                "velocity": 32,
                "duration": 0.0022727272727252057,
                "tempo": 120.0
            },
            {
                "start_time": 75.93181818181817,
                "end_time": 76.075,
                "pitch": 58,
                "velocity": 32,
                "duration": 0.14318181818183007,
                "tempo": 120.0
            },
            {
                "start_time": 71.81363636363636,
                "end_time": 76.125,
                "pitch": 39,
                "velocity": 32,
                "duration": 4.311363636363637,
                "tempo": 120.0
            },
            {
                "start_time": 76.125,
                "end_time": 76.27272727272727,
                "pitch": 60,
                "velocity": 32,
                "duration": 0.14772727272726627,
                "tempo": 120.0
            }
        ],
        "Church Organ": [
            {
                "start_time": 76.225,
                "end_time": 76.37045454545454,
                "pitch": 48,
                "velocity": 40,
                "duration": 0.14545454545454106,
                "tempo": 120.0
            },
            {
                "start_time": 76.42272727272727,
                "end_time": 76.57045454545454,
                "pitch": 50,
                "velocity": 40,
                "duration": 0.14772727272726627,
                "tempo": 120.0
            },
            {
                "start_time": 76.62045454545454,
                "end_time": 76.77045454545454,
                "pitch": 50,
                "velocity": 40,
                "duration": 0.15000000000000568,
                "tempo": 120.0
            },
            {
                "start_time": 76.82272727272726,
                "end_time": 76.97045454545454,
                "pitch": 53,
                "velocity": 40,
                "duration": 0.14772727272728048,
                "tempo": 120.0
            },
            {
                "start_time": 77.02272727272727,
                "end_time": 77.17272727272727,
                "pitch": 55,
                "velocity": 40,
                "duration": 0.15000000000000568,
                "tempo": 120.0
            },
            {
                "start_time": 77.225,
                "end_time": 77.37045454545454,
                "pitch": 55,
                "velocity": 40,
                "duration": 0.14545454545454106,
                "tempo": 120.0
            },
            {
                "start_time": 77.42045454545455,
                "end_time": 77.56590909090909,
                "pitch": 56,
                "velocity": 40,
                "duration": 0.14545454545454106,
                "tempo": 120.0
            },
            {
                "start_time": 77.61818181818181,
                "end_time": 80.70454545454545,
                "pitch": 60,
                "velocity": 40,
                "duration": 3.086363636363643,
                "tempo": 120.0
            },
            {
                "start_time": 80.75681818181818,
                "end_time": 83.84318181818182,
                "pitch": 60,
                "velocity": 40,
                "duration": 3.086363636363643,
                "tempo": 120.0
            },
            {
                "start_time": 83.89318181818182,
                "end_time": 86.99090909090908,
                "pitch": 55,
                "velocity": 40,
                "duration": 3.097727272727269,
                "tempo": 120.0
            },
            {
                "start_time": 76.225,
                "end_time": 87.04090909090908,
                "pitch": 0,
                "velocity": 40,
                "duration": 10.815909090909088,
                "tempo": 120.0
            },
            {
                "start_time": 76.82272727272726,
                "end_time": 90.13636363636363,
                "pitch": 51,
                "velocity": 40,
                "duration": 13.313636363636363,
                "tempo": 120.0
            },
            {
                "start_time": 87.04090909090908,
                "end_time": 90.13636363636363,
                "pitch": 51,
                "velocity": 40,
                "duration": 3.095454545454544,
                "tempo": 120.0
            },
            {
                "start_time": 90.18863636363636,
                "end_time": 93.27727272727272,
                "pitch": 60,
                "velocity": 40,
                "duration": 3.088636363636354,
                "tempo": 120.0
            },
            {
                "start_time": 93.32727272727273,
                "end_time": 96.41590909090908,
                "pitch": 60,
                "velocity": 40,
                "duration": 3.088636363636354,
                "tempo": 120.0
            },
            {
                "start_time": 83.89318181818182,
                "end_time": 96.46818181818182,
                "pitch": 64,
                "velocity": 40,
                "duration": 12.575000000000003,
                "tempo": 120.0
            },
            {
                "start_time": 96.46818181818182,
                "end_time": 99.56818181818181,
                "pitch": 58,
                "velocity": 40,
                "duration": 3.0999999999999943,
                "tempo": 120.0
            },
            {
                "start_time": 99.61818181818181,
                "end_time": 104.29318181818181,
                "pitch": 70,
                "velocity": 40,
                "duration": 4.674999999999997,
                "tempo": 120.0
            }
        ],
        "Acoustic Guitar (nylon)": [
            {
                "start_time": 165.00227272727273,
                "end_time": 165.37045454545455,
                "pitch": 64,
                "velocity": 40,
                "duration": 0.3681818181818244,
                "tempo": 120.0
            },
            {
                "start_time": 165.42499999999998,
                "end_time": 165.79545454545453,
                "pitch": 64,
                "velocity": 40,
                "duration": 0.3704545454545496,
                "tempo": 120.0
            },
            {
                "start_time": 166.2431818181818,
                "end_time": 166.58863636363637,
                "pitch": 64,
                "velocity": 40,
                "duration": 0.3454545454545723,
                "tempo": 120.0
            },
            {
                "start_time": 166.63863636363635,
                "end_time": 167.775,
                "pitch": 67,
                "velocity": 40,
                "duration": 1.1363636363636545,
                "tempo": 120.0
            },
            {
                "start_time": 167.825,
                "end_time": 168.5659090909091,
                "pitch": 59,
                "velocity": 40,
                "duration": 0.7409090909090992,
                "tempo": 120.0
            },
            {
                "start_time": 168.61590909090907,
                "end_time": 168.96136363636361,
                "pitch": 59,
                "velocity": 40,
                "duration": 0.3454545454545439,
                "tempo": 120.0
            },
            {
                "start_time": 169.01136363636363,
                "end_time": 169.35227272727272,
                "pitch": 62,
                "velocity": 40,
                "duration": 0.3409090909090935,
                "tempo": 120.0
            },
            {
                "start_time": 169.4,
                "end_time": 169.73863636363635,
                "pitch": 67,
                "velocity": 40,
                "duration": 0.33863636363633987,
                "tempo": 120.0
            },
            {
                "start_time": 171.37045454545455,
                "end_time": 171.7159090909091,
                "pitch": 57,
                "velocity": 40,
                "duration": 0.3454545454545439,
                "tempo": 120.0
            },
            {
                "start_time": 171.76590909090908,
                "end_time": 172.11136363636362,
                "pitch": 57,
                "velocity": 40,
                "duration": 0.3454545454545439,
                "tempo": 120.0
            },
            {
                "start_time": 172.16136363636363,
                "end_time": 172.88863636363635,
                "pitch": 60,
                "velocity": 40,
                "duration": 0.7272727272727195,
                "tempo": 120.0
            },
            {
                "start_time": 172.93636363636364,
                "end_time": 173.28181818181818,
                "pitch": 62,
                "velocity": 40,
                "duration": 0.3454545454545439,
                "tempo": 120.0
            },
            {
                "start_time": 173.33181818181816,
                "end_time": 173.6772727272727,
                "pitch": 62,
                "velocity": 40,
                "duration": 0.3454545454545439,
                "tempo": 120.0
            },
            {
                "start_time": 169.4,
                "end_time": 174.12272727272727,
                "pitch": 77,
                "velocity": 40,
                "duration": 4.722727272727269,
                "tempo": 120.0
            },
            {
                "start_time": 174.12272727272727,
                "end_time": 174.86363636363635,
                "pitch": 67,
                "velocity": 40,
                "duration": 0.7409090909090708,
                "tempo": 120.0
            },
            {
                "start_time": 174.91363636363636,
                "end_time": 175.2590909090909,
                "pitch": 67,
                "velocity": 40,
                "duration": 0.3454545454545439,
                "tempo": 120.0
            },
            {
                "start_time": 175.3090909090909,
                "end_time": 176.8272727272727,
                "pitch": 69,
                "velocity": 40,
                "duration": 1.5181818181818016,
                "tempo": 120.0
            },
            {
                "start_time": 176.87727272727273,
                "end_time": 177.6181818181818,
                "pitch": 69,
                "velocity": 40,
                "duration": 0.7409090909090708,
                "tempo": 120.0
            },
            {
                "start_time": 171.37045454545455,
                "end_time": 179.25,
                "pitch": 64,
                "velocity": 40,
                "duration": 7.87954545454545,
                "tempo": 120.0
            },
            {
                "start_time": 179.25,
                "end_time": 179.97727272727272,
                "pitch": 57,
                "velocity": 40,
                "duration": 0.7272727272727195,
                "tempo": 120.0
            }
        ]
    }
}