{
    "track_id": "17 Triumph (Ending)",
    "mood": "happy",
    "instruments": {
        "Lead 2 (sawtooth)": [
            {
                "start_time": 25.545454545454543,
                "end_time": 25.745454545454542,
                "pitch": 44,
                "velocity": 80,
                "duration": 0.1999999999999993,
                "tempo": 120.0
            },
            {
                "start_time": 25.745454545454542,
                "end_time": 25.943181818181817,
                "pitch": 44,
                "velocity": 80,
                "duration": 0.19772727272727408,
                "tempo": 120.0
            },
            {
                "start_time": 25.943181818181817,
                "end_time": 25.945454545454545,
                "pitch": 44,
                "velocity": 80,
                "duration": 0.0022727272727287584,
                "tempo": 120.0
            },
            {
                "start_time": 25.545454545454543,
                "end_time": 26.138636363636362,
                "pitch": 48,
                "velocity": 80,
                "duration": 0.5931818181818187,
                "tempo": 120.0
            },
            {
                "start_time": 25.945454545454545,
                "end_time": 26.138636363636362,
                "pitch": 48,
                "velocity": 80,
                "duration": 0.19318181818181657,
                "tempo": 120.0
            },
            {
                "start_time": 26.138636363636362,
                "end_time": 26.334090909090907,
                "pitch": 44,
                "velocity": 80,
                "duration": 0.19545454545454533,
                "tempo": 120.0
            },
            {
                "start_time": 26.334090909090907,
                "end_time": 26.534090909090907,
                "pitch": 51,
                "velocity": 80,
                "duration": 0.1999999999999993,
                "tempo": 120.0
            },
            {
                "start_time": 26.534090909090907,
                "end_time": 26.73409090909091,
                "pitch": 51,
                "velocity": 80,
                "duration": 0.20000000000000284,
                "tempo": 120.0
            },
            {
                "start_time": 26.73409090909091,
                "end_time": 26.93409090909091,
                "pitch": 48,
                "velocity": 80,
                "duration": 0.1999999999999993,
                "tempo": 120.0
            },
            {
                "start_time": 26.93409090909091,
                "end_time": 27.134090909090908,
                "pitch": 51,
                "velocity": 80,
                "duration": 0.1999999999999993,
                "tempo": 120.0
            },
            {
                "start_time": 27.136363636363637,
                "end_time": 27.334090909090907,
                "pitch": 46,
                "velocity": 80,
                "duration": 0.19772727272727053,
                "tempo": 120.0
            },
            {
                "start_time": 27.334090909090907,
                "end_time": 27.534090909090907,
                "pitch": 46,
                "velocity": 80,
                "duration": 0.1999999999999993,
                "tempo": 120.0
            },
            {
                "start_time": 26.73409090909091,
                "end_time": 27.73409090909091,
                "pitch": 50,
                "velocity": 80,
                "duration": 1.0,
                "tempo": 120.0
            },
            {
                "start_time": 27.534090909090907,
                "end_time": 27.73409090909091,
                "pitch": 50,
                "velocity": 80,
                "duration": 0.20000000000000284,
                "tempo": 120.0
            },
            {
                "start_time": 27.534090909090907,
                "end_time": 27.93409090909091,
                "pitch": 46,
                "velocity": 80,
                "duration": 0.40000000000000213,
                "tempo": 120.0
            },
            {
                "start_time": 27.73409090909091,
                "end_time": 27.93409090909091,
                "pitch": 46,
                "velocity": 80,
                "duration": 0.1999999999999993,
                "tempo": 120.0
            },
            {
                "start_time": 27.93409090909091,
                "end_time": 28.134090909090908,
                "pitch": 53,
                "velocity": 80,
                "duration": 0.1999999999999993,
                "tempo": 120.0
            },
            {
                "start_time": 28.134090909090908,
                "end_time": 28.334090909090907,
                "pitch": 51,
                "velocity": 80,
                "duration": 0.1999999999999993,
                "tempo": 120.0
            },
            {
                "start_time": 28.334090909090907,
                "end_time": 28.529545454545453,
                "pitch": 51,
                "velocity": 80,
                "duration": 0.19545454545454533,
                "tempo": 120.0
            },
            {
                "start_time": 28.134090909090908,
                "end_time": 28.724999999999998,
                "pitch": 53,
                "velocity": 80,
                "duration": 0.5909090909090899,
                "tempo": 120.0
            },
            {
                "start_time": 28.529545454545453,
                "end_time": 28.724999999999998,
                "pitch": 53,
                "velocity": 80,
                "duration": 0.19545454545454533,
                "tempo": 120.0
            },
            {
                "start_time": 28.724999999999998,
                "end_time": 28.793181818181818,
                "pitch": 43,
                "velocity": 80,
                "duration": 0.06818181818182012,
                "tempo": 120.0
            },
            {
                "start_time": 28.793181818181818,
                "end_time": 28.861363636363635,
                "pitch": 43,
                "velocity": 80,
                "duration": 0.06818181818181657,
                "tempo": 120.0
            },
            {
                "start_time": 28.861363636363635,
                "end_time": 28.929545454545455,
                "pitch": 43,
                "velocity": 80,
                "duration": 0.06818181818182012,
                "tempo": 120.0
            },
            {
                "start_time": 28.929545454545455,
                "end_time": 28.99772727272727,
                "pitch": 43,
                "velocity": 80,
                "duration": 0.06818181818181657,
                "tempo": 120.0
            },
            {
                "start_time": 28.793181818181818,
                "end_time": 28.99772727272727,
                "pitch": 55,
                "velocity": 80,
                "duration": 0.20454545454545325,
                "tempo": 120.0
            },
            {
                "start_time": 28.861363636363635,
                "end_time": 29.065909090909088,
                "pitch": 0,
                "velocity": 80,
                "duration": 0.20454545454545325,
                "tempo": 120.0
            },
            {
                "start_time": 28.99772727272727,
                "end_time": 29.065909090909088,
                "pitch": 43,
                "velocity": 80,
                "duration": 0.06818181818181657,
                "tempo": 120.0
            },
            {
                "start_time": 29.065909090909088,
                "end_time": 29.134090909090908,
                "pitch": 43,
                "velocity": 80,
                "duration": 0.06818181818182012,
                "tempo": 120.0
            },
            {
                "start_time": 28.99772727272727,
                "end_time": 29.134090909090908,
                "pitch": 55,
                "velocity": 80,
                "duration": 0.1363636363636367,
                "tempo": 120.0
            },
            {
                "start_time": 29.134090909090908,
                "end_time": 29.329545454545453,
                "pitch": 46,
                "velocity": 80,
                "duration": 0.19545454545454533,
                "tempo": 120.0
            },
            {
                "start_time": 29.329545454545453,
                "end_time": 29.393181818181816,
                "pitch": 43,
                "velocity": 80,
                "duration": 0.0636363636363626,
                "tempo": 120.0
            },
            {
                "start_time": 29.134090909090908,
                "end_time": 29.393181818181816,
                "pitch": 55,
                "velocity": 80,
                "duration": 0.25909090909090793,
                "tempo": 120.0
            },
            {
                "start_time": 29.065909090909088,
                "end_time": 29.459090909090907,
                "pitch": 0,
                "velocity": 80,
                "duration": 0.3931818181818194,
                "tempo": 120.0
            },
            {
                "start_time": 29.393181818181816,
                "end_time": 29.459090909090907,
                "pitch": 43,
                "velocity": 80,
                "duration": 0.06590909090909136,
                "tempo": 120.0
            },
            {
                "start_time": 29.459090909090907,
                "end_time": 29.525,
                "pitch": 43,
                "velocity": 80,
                "duration": 0.06590909090909136,
                "tempo": 120.0
            },
            {
                "start_time": 29.525,
                "end_time": 29.724999999999998,
                "pitch": 50,
                "velocity": 80,
                "duration": 0.1999999999999993,
                "tempo": 120.0
            },
            {
                "start_time": 26.93409090909091,
                "end_time": 29.922727272727272,
                "pitch": 48,
                "velocity": 80,
                "duration": 2.9886363636363633,
                "tempo": 120.0
            },
            {
                "start_time": 29.724999999999998,
                "end_time": 29.922727272727272,
                "pitch": 48,
                "velocity": 80,
                "duration": 0.19772727272727408,
                "tempo": 120.0
            },
            {
                "start_time": 29.922727272727272,
                "end_time": 30.125,
                "pitch": 46,
                "velocity": 80,
                "duration": 0.20227272727272805,
                "tempo": 120.0
            },
            {
                "start_time": 29.724999999999998,
                "end_time": 30.325,
                "pitch": 50,
                "velocity": 80,
                "duration": 0.6000000000000014,
                "tempo": 120.0
            },
            {
                "start_time": 30.125,
                "end_time": 30.325,
                "pitch": 50,
                "velocity": 80,
                "duration": 0.1999999999999993,
                "tempo": 120.0
            },
            {
                "start_time": 29.922727272727272,
                "end_time": 30.529545454545453,
                "pitch": 48,
                "velocity": 80,
                "duration": 0.6068181818181806,
                "tempo": 120.0
            },
            {
                "start_time": 30.325,
                "end_time": 30.529545454545453,
                "pitch": 48,
                "velocity": 80,
                "duration": 0.20454545454545325,
                "tempo": 120.0
            },
            {
                "start_time": 30.529545454545453,
                "end_time": 30.73409090909091,
                "pitch": 48,
                "velocity": 80,
                "duration": 0.2045454545454568,
                "tempo": 120.0
            },
            {
                "start_time": 30.73409090909091,
                "end_time": 30.929545454545455,
                "pitch": 51,
                "velocity": 80,
                "duration": 0.19545454545454533,
                "tempo": 120.0
            },
            {
                "start_time": 30.73409090909091,
                "end_time": 31.125,
                "pitch": 48,
                "velocity": 80,
                "duration": 0.39090909090909065,
                "tempo": 120.0
            },
            {
                "start_time": 30.929545454545455,
                "end_time": 31.125,
                "pitch": 48,
                "velocity": 80,
                "duration": 0.19545454545454533,
                "tempo": 120.0
            },
            {
                "start_time": 29.393181818181816,
                "end_time": 31.190909090909088,
                "pitch": 55,
                "velocity": 80,
                "duration": 1.797727272727272,
                "tempo": 120.0
            },
            {
                "start_time": 31.125,
                "end_time": 31.190909090909088,
                "pitch": 55,
                "velocity": 80,
                "duration": 0.06590909090908781,
                "tempo": 120.0
            },
            {
                "start_time": 29.459090909090907,
                "end_time": 31.259090909090908,
                "pitch": 0,
                "velocity": 80,
                "duration": 1.8000000000000007,
                "tempo": 120.0
            },
            {
                "start_time": 31.190909090909088,
                "end_time": 31.259090909090908,
                "pitch": 55,
                "velocity": 80,
                "duration": 0.06818181818182012,
                "tempo": 120.0
            },
            {
                "start_time": 31.259090909090908,
                "end_time": 31.325,
                "pitch": 55,
                "velocity": 80,
                "duration": 0.06590909090909136,
                "tempo": 120.0
            },
            {
                "start_time": 31.325,
                "end_time": 31.527272727272727,
                "pitch": 55,
                "velocity": 80,
                "duration": 0.20227272727272805,
                "tempo": 120.0
            },
            {
                "start_time": 31.527272727272727,
                "end_time": 31.720454545454544,
                "pitch": 51,
                "velocity": 80,
                "duration": 0.19318181818181657,
                "tempo": 120.0
            },
            {
                "start_time": 31.720454545454544,
                "end_time": 31.722727272727273,
                "pitch": 34,
                "velocity": 80,
                "duration": 0.0022727272727287584,
                "tempo": 120.0
            },
            {
                "start_time": 31.722727272727273,
                "end_time": 31.786363636363635,
                "pitch": 43,
                "velocity": 80,
                "duration": 0.0636363636363626,
                "tempo": 120.0
            },
            {
                "start_time": 31.259090909090908,
                "end_time": 31.852272727272727,
                "pitch": 0,
                "velocity": 80,
                "duration": 0.5931818181818187,
                "tempo": 120.0
            },
            {
                "start_time": 31.786363636363635,
                "end_time": 31.852272727272727,
                "pitch": 43,
                "velocity": 80,
                "duration": 0.06590909090909136,
                "tempo": 120.0
            },
            {
                "start_time": 31.852272727272727,
                "end_time": 31.918181818181818,
                "pitch": 43,
                "velocity": 80,
                "duration": 0.06590909090909136,
                "tempo": 120.0
            },
            {
                "start_time": 31.918181818181818,
                "end_time": 32.12045454545454,
                "pitch": 44,
                "velocity": 80,
                "duration": 0.2022727272727245,
                "tempo": 120.0
            },
            {
                "start_time": 32.12045454545454,
                "end_time": 32.32727272727273,
                "pitch": 44,
                "velocity": 80,
                "duration": 0.20681818181818556,
                "tempo": 120.0
            },
            {
                "start_time": 32.32727272727273,
                "end_time": 32.52272727272727,
                "pitch": 48,
                "velocity": 80,
                "duration": 0.19545454545454533,
                "tempo": 120.0
            },
            {
                "start_time": 32.32727272727273,
                "end_time": 32.715909090909086,
                "pitch": 44,
                "velocity": 80,
                "duration": 0.38863636363635834,
                "tempo": 120.0
            },
            {
                "start_time": 32.52272727272727,
                "end_time": 32.715909090909086,
                "pitch": 44,
                "velocity": 80,
                "duration": 0.19318181818181301,
                "tempo": 120.0
            },
            {
                "start_time": 32.715909090909086,
                "end_time": 32.91590909090909,
                "pitch": 51,
                "velocity": 80,
                "duration": 0.20000000000000284,
                "tempo": 120.0
            },
            {
                "start_time": 32.91590909090909,
                "end_time": 33.11590909090909,
                "pitch": 51,
                "velocity": 80,
                "duration": 0.20000000000000284,
                "tempo": 120.0
            },
            {
                "start_time": 32.52272727272727,
                "end_time": 33.31590909090909,
                "pitch": 48,
                "velocity": 80,
                "duration": 0.7931818181818144,
                "tempo": 120.0
            },
            {
                "start_time": 33.11590909090909,
                "end_time": 33.31590909090909,
                "pitch": 48,
                "velocity": 80,
                "duration": 0.19999999999999574,
                "tempo": 120.0
            },
            {
                "start_time": 33.31590909090909,
                "end_time": 33.513636363636365,
                "pitch": 51,
                "velocity": 80,
                "duration": 0.19772727272727764,
                "tempo": 120.0
            },
            {
                "start_time": 30.125,
                "end_time": 33.71363636363636,
                "pitch": 46,
                "velocity": 80,
                "duration": 3.588636363636361,
                "tempo": 120.0
            },
            {
                "start_time": 33.513636363636365,
                "end_time": 33.71363636363636,
                "pitch": 46,
                "velocity": 80,
                "duration": 0.19999999999999574,
                "tempo": 120.0
            },
            {
                "start_time": 33.71363636363636,
                "end_time": 33.913636363636364,
                "pitch": 46,
                "velocity": 80,
                "duration": 0.20000000000000284,
                "tempo": 120.0
            },
            {
                "start_time": 33.11590909090909,
                "end_time": 34.111363636363635,
                "pitch": 50,
                "velocity": 80,
                "duration": 0.9954545454545425,
                "tempo": 120.0
            },
            {
                "start_time": 33.913636363636364,
                "end_time": 34.111363636363635,
                "pitch": 50,
                "velocity": 80,
                "duration": 0.19772727272727053,
                "tempo": 120.0
            },
            {
                "start_time": 33.913636363636364,
                "end_time": 34.31136363636364,
                "pitch": 46,
                "velocity": 80,
                "duration": 0.3977272727272734,
                "tempo": 120.0
            },
            {
                "start_time": 34.111363636363635,
                "end_time": 34.31136363636364,
                "pitch": 46,
                "velocity": 80,
                "duration": 0.20000000000000284,
                "tempo": 120.0
            },
            {
                "start_time": 31.527272727272727,
                "end_time": 34.51136363636363,
                "pitch": 53,
                "velocity": 80,
                "duration": 2.984090909090906,
                "tempo": 120.0
            },
            {
                "start_time": 34.31136363636364,
                "end_time": 34.51136363636363,
                "pitch": 53,
                "velocity": 80,
                "duration": 0.19999999999999574,
                "tempo": 120.0
            },
            {
                "start_time": 33.513636363636365,
                "end_time": 34.71363636363636,
                "pitch": 51,
                "velocity": 80,
                "duration": 1.1999999999999957,
                "tempo": 120.0
            },
            {
                "start_time": 34.51136363636363,
                "end_time": 34.71363636363636,
                "pitch": 51,
                "velocity": 80,
                "duration": 0.20227272727272805,
                "tempo": 120.0
            },
            {
                "start_time": 34.71363636363636,
                "end_time": 34.90909090909091,
                "pitch": 51,
                "velocity": 80,
                "duration": 0.19545454545454533,
                "tempo": 120.0
            },
            {
                "start_time": 34.51136363636363,
                "end_time": 35.10454545454545,
                "pitch": 53,
                "velocity": 80,
                "duration": 0.5931818181818187,
                "tempo": 120.0
            },
            {
                "start_time": 34.90909090909091,
                "end_time": 35.10454545454545,
                "pitch": 53,
                "velocity": 80,
                "duration": 0.19545454545454533,
                "tempo": 120.0
            },
            {
                "start_time": 31.786363636363635,
                "end_time": 35.17045454545455,
                "pitch": 55,
                "velocity": 80,
                "duration": 3.3840909090909115,
                "tempo": 120.0
            },
            {
                "start_time": 35.10454545454545,
                "end_time": 35.17045454545455,
                "pitch": 55,
                "velocity": 80,
                "duration": 0.06590909090909491,
                "tempo": 120.0
            },
            {
                "start_time": 31.190909090909088,
                "end_time": 35.17045454545455,
                "pitch": 67,
                "velocity": 80,
                "duration": 3.979545454545459,
                "tempo": 120.0
            },
            {
                "start_time": 31.852272727272727,
                "end_time": 35.23863636363636,
                "pitch": 0,
                "velocity": 80,
                "duration": 3.386363636363633,
                "tempo": 120.0
            },
            {
                "start_time": 35.17045454545455,
                "end_time": 35.23863636363636,
                "pitch": 55,
                "velocity": 80,
                "duration": 0.06818181818181301,
                "tempo": 120.0
            },
            {
                "start_time": 35.23863636363636,
                "end_time": 35.309090909090905,
                "pitch": 55,
                "velocity": 80,
                "duration": 0.07045454545454533,
                "tempo": 120.0
            },
            {
                "start_time": 35.17045454545455,
                "end_time": 35.309090909090905,
                "pitch": 67,
                "velocity": 80,
                "duration": 0.13863636363635834,
                "tempo": 120.0
            },
            {
                "start_time": 35.23863636363636,
                "end_time": 35.375,
                "pitch": 0,
                "velocity": 80,
                "duration": 0.13636363636364024,
                "tempo": 120.0
            },
            {
                "start_time": 35.309090909090905,
                "end_time": 35.375,
                "pitch": 55,
                "velocity": 80,
                "duration": 0.06590909090909491,
                "tempo": 120.0
            },
            {
                "start_time": 35.375,
                "end_time": 35.445454545454545,
                "pitch": 55,
                "velocity": 80,
                "duration": 0.07045454545454533,
                "tempo": 120.0
            },
            {
                "start_time": 35.309090909090905,
                "end_time": 35.445454545454545,
                "pitch": 67,
                "velocity": 80,
                "duration": 0.13636363636364024,
                "tempo": 120.0
            },
            {
                "start_time": 35.445454545454545,
                "end_time": 35.513636363636365,
                "pitch": 55,
                "velocity": 80,
                "duration": 0.06818181818182012,
                "tempo": 120.0
            },
            {
                "start_time": 35.513636363636365,
                "end_time": 35.57727272727273,
                "pitch": 55,
                "velocity": 80,
                "duration": 0.0636363636363626,
                "tempo": 120.0
            },
            {
                "start_time": 35.445454545454545,
                "end_time": 35.57727272727273,
                "pitch": 67,
                "velocity": 80,
                "duration": 0.13181818181818272,
                "tempo": 120.0
            },
            {
                "start_time": 35.375,
                "end_time": 35.643181818181816,
                "pitch": 0,
                "velocity": 80,
                "duration": 0.26818181818181586,
                "tempo": 120.0
            },
            {
                "start_time": 35.57727272727273,
                "end_time": 35.643181818181816,
                "pitch": 55,
                "velocity": 80,
                "duration": 0.06590909090908781,
                "tempo": 120.0
            },
            {
                "start_time": 35.643181818181816,
                "end_time": 35.70909090909091,
                "pitch": 55,
                "velocity": 80,
                "duration": 0.06590909090909491,
                "tempo": 120.0
            },
            {
                "start_time": 35.57727272727273,
                "end_time": 35.70909090909091,
                "pitch": 67,
                "velocity": 80,
                "duration": 0.13181818181818272,
                "tempo": 120.0
            },
            {
                "start_time": 35.643181818181816,
                "end_time": 35.77272727272727,
                "pitch": 0,
                "velocity": 80,
                "duration": 0.12954545454545752,
                "tempo": 120.0
            },
            {
                "start_time": 35.70909090909091,
                "end_time": 35.77272727272727,
                "pitch": 55,
                "velocity": 80,
                "duration": 0.0636363636363626,
                "tempo": 120.0
            },
            {
                "start_time": 35.77272727272727,
                "end_time": 35.83863636363636,
                "pitch": 55,
                "velocity": 80,
                "duration": 0.06590909090908781,
                "tempo": 120.0
            },
            {
                "start_time": 35.70909090909091,
                "end_time": 35.83863636363636,
                "pitch": 67,
                "velocity": 80,
                "duration": 0.1295454545454504,
                "tempo": 120.0
            },
            {
                "start_time": 35.77272727272727,
                "end_time": 35.904545454545456,
                "pitch": 0,
                "velocity": 80,
                "duration": 0.13181818181818272,
                "tempo": 120.0
            },
            {
                "start_time": 35.83863636363636,
                "end_time": 35.904545454545456,
                "pitch": 55,
                "velocity": 80,
                "duration": 0.06590909090909491,
                "tempo": 120.0
            },
            {
                "start_time": 35.904545454545456,
                "end_time": 35.970454545454544,
                "pitch": 55,
                "velocity": 80,
                "duration": 0.06590909090908781,
                "tempo": 120.0
            },
            {
                "start_time": 35.83863636363636,
                "end_time": 35.970454545454544,
                "pitch": 67,
                "velocity": 80,
                "duration": 0.13181818181818272,
                "tempo": 120.0
            },
            {
                "start_time": 35.904545454545456,
                "end_time": 36.03636363636363,
                "pitch": 0,
                "velocity": 80,
                "duration": 0.13181818181817562,
                "tempo": 120.0
            },
            {
                "start_time": 35.970454545454544,
                "end_time": 36.03636363636363,
                "pitch": 55,
                "velocity": 80,
                "duration": 0.06590909090908781,
                "tempo": 120.0
            },
            {
                "start_time": 36.03636363636363,
                "end_time": 36.10227272727273,
                "pitch": 55,
                "velocity": 80,
                "duration": 0.06590909090909491,
                "tempo": 120.0
            },
            {
                "start_time": 35.970454545454544,
                "end_time": 36.10227272727273,
                "pitch": 67,
                "velocity": 80,
                "duration": 0.13181818181818272,
                "tempo": 120.0
            },
            {
                "start_time": 36.03636363636363,
                "end_time": 36.168181818181814,
                "pitch": 0,
                "velocity": 80,
                "duration": 0.13181818181818272,
                "tempo": 120.0
            },
            {
                "start_time": 36.10227272727273,
                "end_time": 36.168181818181814,
                "pitch": 55,
                "velocity": 80,
                "duration": 0.06590909090908781,
                "tempo": 120.0
            },
            {
                "start_time": 36.168181818181814,
                "end_time": 36.236363636363635,
                "pitch": 55,
                "velocity": 80,
                "duration": 0.06818181818182012,
                "tempo": 120.0
            },
            {
                "start_time": 36.10227272727273,
                "end_time": 36.236363636363635,
                "pitch": 67,
                "velocity": 80,
                "duration": 0.13409090909090793,
                "tempo": 120.0
            },
            {
                "start_time": 36.168181818181814,
                "end_time": 36.30227272727272,
                "pitch": 0,
                "velocity": 80,
                "duration": 0.13409090909090793,
                "tempo": 120.0
            },
            {
                "start_time": 36.236363636363635,
                "end_time": 36.30227272727272,
                "pitch": 55,
                "velocity": 80,
                "duration": 0.06590909090908781,
                "tempo": 120.0
            },
            {
                "start_time": 36.30227272727272,
                "end_time": 36.36818181818182,
                "pitch": 55,
                "velocity": 80,
                "duration": 0.06590909090909491,
                "tempo": 120.0
            },
            {
                "start_time": 36.236363636363635,
                "end_time": 36.36818181818182,
                "pitch": 67,
                "velocity": 80,
                "duration": 0.13181818181818272,
                "tempo": 120.0
            },
            {
                "start_time": 36.30227272727272,
                "end_time": 36.434090909090905,
                "pitch": 0,
                "velocity": 80,
                "duration": 0.13181818181818272,
                "tempo": 120.0
            },
            {
                "start_time": 36.36818181818182,
                "end_time": 36.434090909090905,
                "pitch": 55,
                "velocity": 80,
                "duration": 0.06590909090908781,
                "tempo": 120.0
            },
            {
                "start_time": 36.434090909090905,
                "end_time": 36.502272727272725,
                "pitch": 55,
                "velocity": 80,
                "duration": 0.06818181818182012,
                "tempo": 120.0
            },
            {
                "start_time": 36.36818181818182,
                "end_time": 36.502272727272725,
                "pitch": 67,
                "velocity": 80,
                "duration": 0.13409090909090793,
                "tempo": 120.0
            },
            {
                "start_time": 36.434090909090905,
                "end_time": 36.56818181818181,
                "pitch": 0,
                "velocity": 80,
                "duration": 0.13409090909090793,
                "tempo": 120.0
            },
            {
                "start_time": 36.502272727272725,
                "end_time": 36.56818181818181,
                "pitch": 55,
                "velocity": 80,
                "duration": 0.06590909090908781,
                "tempo": 120.0
            },
            {
                "start_time": 36.56818181818181,
                "end_time": 36.63409090909091,
                "pitch": 55,
                "velocity": 80,
                "duration": 0.06590909090909491,
                "tempo": 120.0
            },
            {
                "start_time": 36.502272727272725,
                "end_time": 36.63409090909091,
                "pitch": 67,
                "velocity": 80,
                "duration": 0.13181818181818272,
                "tempo": 120.0
            }
        ],
        "Acoustic Bass": [
            {
                "start_time": 0.01818181818181818,
                "end_time": 0.21818181818181817,
                "pitch": 48,
                "velocity": 101,
                "duration": 0.19999999999999998,
                "tempo": 120.0
            },
            {
                "start_time": 0.21818181818181817,
                "end_time": 0.4159090909090909,
                "pitch": 48,
                "velocity": 101,
                "duration": 0.19772727272727272,
                "tempo": 120.0
            },
            {
                "start_time": 0.4159090909090909,
                "end_time": 0.6159090909090909,
                "pitch": 48,
                "velocity": 101,
                "duration": 0.19999999999999996,
                "tempo": 120.0
            },
            {
                "start_time": 0.6159090909090909,
                "end_time": 1.0136363636363637,
                "pitch": 48,
                "velocity": 101,
                "duration": 0.3977272727272728,
                "tempo": 120.0
            },
            {
                "start_time": 1.0136363636363637,
                "end_time": 1.2136363636363636,
                "pitch": 48,
                "velocity": 101,
                "duration": 0.19999999999999996,
                "tempo": 120.0
            },
            {
                "start_time": 1.2136363636363636,
                "end_time": 1.4136363636363636,
                "pitch": 48,
                "velocity": 101,
                "duration": 0.19999999999999996,
                "tempo": 120.0
            },
            {
                "start_time": 1.4136363636363636,
                "end_time": 1.6136363636363635,
                "pitch": 48,
                "velocity": 101,
                "duration": 0.19999999999999996,
                "tempo": 120.0
            },
            {
                "start_time": 1.6136363636363635,
                "end_time": 1.8136363636363635,
                "pitch": 48,
                "velocity": 101,
                "duration": 0.19999999999999996,
                "tempo": 120.0
            },
            {
                "start_time": 1.8136363636363635,
                "end_time": 2.0136363636363637,
                "pitch": 48,
                "velocity": 101,
                "duration": 0.20000000000000018,
                "tempo": 120.0
            },
            {
                "start_time": 2.0136363636363637,
                "end_time": 2.209090909090909,
                "pitch": 48,
                "velocity": 101,
                "duration": 0.19545454545454533,
                "tempo": 120.0
            },
            {
                "start_time": 2.209090909090909,
                "end_time": 2.6068181818181815,
                "pitch": 48,
                "velocity": 101,
                "duration": 0.3977272727272725,
                "tempo": 120.0
            },
            {
                "start_time": 2.6068181818181815,
                "end_time": 2.8068181818181817,
                "pitch": 48,
                "velocity": 101,
                "duration": 0.20000000000000018,
                "tempo": 120.0
            },
            {
                "start_time": 2.8068181818181817,
                "end_time": 3.006818181818182,
                "pitch": 48,
                "velocity": 101,
                "duration": 0.20000000000000018,
                "tempo": 120.0
            },
            {
                "start_time": 3.006818181818182,
                "end_time": 3.2045454545454546,
                "pitch": 48,
                "velocity": 101,
                "duration": 0.19772727272727275,
                "tempo": 120.0
            },
            {
                "start_time": 3.2045454545454546,
                "end_time": 3.4045454545454543,
                "pitch": 44,
                "velocity": 101,
                "duration": 0.19999999999999973,
                "tempo": 120.0
            },
            {
                "start_time": 3.4045454545454543,
                "end_time": 3.6045454545454545,
                "pitch": 44,
                "velocity": 101,
                "duration": 0.20000000000000018,
                "tempo": 120.0
            },
            {
                "start_time": 3.6045454545454545,
                "end_time": 3.8022727272727272,
                "pitch": 44,
                "velocity": 101,
                "duration": 0.19772727272727275,
                "tempo": 120.0
            },
            {
                "start_time": 3.8022727272727272,
                "end_time": 4.202272727272727,
                "pitch": 44,
                "velocity": 101,
                "duration": 0.3999999999999999,
                "tempo": 120.0
            },
            {
                "start_time": 4.202272727272727,
                "end_time": 4.3999999999999995,
                "pitch": 44,
                "velocity": 101,
                "duration": 0.1977272727272723,
                "tempo": 120.0
            },
            {
                "start_time": 4.3999999999999995,
                "end_time": 4.595454545454545,
                "pitch": 44,
                "velocity": 101,
                "duration": 0.19545454545454533,
                "tempo": 120.0
            },
            {
                "start_time": 4.595454545454545,
                "end_time": 4.790909090909091,
                "pitch": 44,
                "velocity": 101,
                "duration": 0.1954545454545462,
                "tempo": 120.0
            },
            {
                "start_time": 4.790909090909091,
                "end_time": 4.99090909090909,
                "pitch": 44,
                "velocity": 101,
                "duration": 0.1999999999999993,
                "tempo": 120.0
            },
            {
                "start_time": 4.99090909090909,
                "end_time": 5.1909090909090905,
                "pitch": 44,
                "velocity": 101,
                "duration": 0.20000000000000018,
                "tempo": 120.0
            },
            {
                "start_time": 5.1909090909090905,
                "end_time": 5.390909090909091,
                "pitch": 44,
                "velocity": 101,
                "duration": 0.20000000000000018,
                "tempo": 120.0
            },
            {
                "start_time": 5.390909090909091,
                "end_time": 5.790909090909091,
                "pitch": 44,
                "velocity": 101,
                "duration": 0.40000000000000036,
                "tempo": 120.0
            },
            {
                "start_time": 5.790909090909091,
                "end_time": 5.99090909090909,
                "pitch": 44,
                "velocity": 101,
                "duration": 0.1999999999999993,
                "tempo": 120.0
            },
            {
                "start_time": 5.99090909090909,
                "end_time": 6.1909090909090905,
                "pitch": 44,
                "velocity": 101,
                "duration": 0.20000000000000018,
                "tempo": 120.0
            },
            {
                "start_time": 6.1909090909090905,
                "end_time": 6.390909090909091,
                "pitch": 44,
                "velocity": 101,
                "duration": 0.20000000000000018,
                "tempo": 120.0
            },
            {
                "start_time": 6.390909090909091,
                "end_time": 6.593181818181818,
                "pitch": 46,
                "velocity": 101,
                "duration": 0.20227272727272716,
                "tempo": 120.0
            },
            {
                "start_time": 6.593181818181818,
                "end_time": 6.793181818181818,
                "pitch": 46,
                "velocity": 101,
                "duration": 0.20000000000000018,
                "tempo": 120.0
            },
            {
                "start_time": 6.793181818181818,
                "end_time": 6.993181818181818,
                "pitch": 46,
                "velocity": 101,
                "duration": 0.20000000000000018,
                "tempo": 120.0
            },
            {
                "start_time": 6.993181818181818,
                "end_time": 7.386363636363636,
                "pitch": 46,
                "velocity": 101,
                "duration": 0.39318181818181763,
                "tempo": 120.0
            },
            {
                "start_time": 7.386363636363636,
                "end_time": 7.581818181818181,
                "pitch": 46,
                "velocity": 101,
                "duration": 0.19545454545454533,
                "tempo": 120.0
            },
            {
                "start_time": 7.581818181818181,
                "end_time": 7.781818181818181,
                "pitch": 46,
                "velocity": 101,
                "duration": 0.20000000000000018,
                "tempo": 120.0
            },
            {
                "start_time": 7.781818181818181,
                "end_time": 7.9818181818181815,
                "pitch": 46,
                "velocity": 101,
                "duration": 0.20000000000000018,
                "tempo": 120.0
            },
            {
                "start_time": 7.9818181818181815,
                "end_time": 8.186363636363636,
                "pitch": 46,
                "velocity": 101,
                "duration": 0.20454545454545414,
                "tempo": 120.0
            },
            {
                "start_time": 8.186363636363636,
                "end_time": 8.39090909090909,
                "pitch": 46,
                "velocity": 101,
                "duration": 0.20454545454545503,
                "tempo": 120.0
            },
            {
                "start_time": 8.39090909090909,
                "end_time": 8.586363636363636,
                "pitch": 46,
                "velocity": 101,
                "duration": 0.19545454545454533,
                "tempo": 120.0
            },
            {
                "start_time": 8.586363636363636,
                "end_time": 8.98181818181818,
                "pitch": 46,
                "velocity": 101,
                "duration": 0.3954545454545446,
                "tempo": 120.0
            },
            {
                "start_time": 8.98181818181818,
                "end_time": 9.179545454545455,
                "pitch": 46,
                "velocity": 101,
                "duration": 0.19772727272727408,
                "tempo": 120.0
            },
            {
                "start_time": 9.179545454545455,
                "end_time": 9.381818181818181,
                "pitch": 46,
                "velocity": 101,
                "duration": 0.20227272727272627,
                "tempo": 120.0
            },
            {
                "start_time": 9.381818181818181,
                "end_time": 9.581818181818182,
                "pitch": 46,
                "velocity": 101,
                "duration": 0.20000000000000107,
                "tempo": 120.0
            },
            {
                "start_time": 0.01818181818181818,
                "end_time": 9.781818181818181,
                "pitch": 43,
                "velocity": 101,
                "duration": 9.763636363636364,
                "tempo": 120.0
            },
            {
                "start_time": 9.581818181818182,
                "end_time": 9.781818181818181,
                "pitch": 43,
                "velocity": 101,
                "duration": 0.1999999999999993,
                "tempo": 120.0
            },
            {
                "start_time": 9.781818181818181,
                "end_time": 9.98409090909091,
                "pitch": 43,
                "velocity": 101,
                "duration": 0.20227272727272805,
                "tempo": 120.0
            },
            {
                "start_time": 9.98409090909091,
                "end_time": 10.184090909090909,
                "pitch": 43,
                "velocity": 101,
                "duration": 0.1999999999999993,
                "tempo": 120.0
            },
            {
                "start_time": 10.184090909090909,
                "end_time": 10.579545454545453,
                "pitch": 43,
                "velocity": 101,
                "duration": 0.3954545454545446,
                "tempo": 120.0
            },
            {
                "start_time": 10.579545454545453,
                "end_time": 10.775,
                "pitch": 43,
                "velocity": 101,
                "duration": 0.1954545454545471,
                "tempo": 120.0
            },
            {
                "start_time": 10.775,
                "end_time": 10.975,
                "pitch": 43,
                "velocity": 101,
                "duration": 0.1999999999999993,
                "tempo": 120.0
            },
            {
                "start_time": 10.975,
                "end_time": 11.174999999999999,
                "pitch": 43,
                "velocity": 101,
                "duration": 0.1999999999999993,
                "tempo": 120.0
            },
            {
                "start_time": 11.174999999999999,
                "end_time": 11.375,
                "pitch": 43,
                "velocity": 101,
                "duration": 0.20000000000000107,
                "tempo": 120.0
            },
            {
                "start_time": 11.375,
                "end_time": 11.575,
                "pitch": 43,
                "velocity": 101,
                "duration": 0.1999999999999993,
                "tempo": 120.0
            },
            {
                "start_time": 11.575,
                "end_time": 11.774999999999999,
                "pitch": 43,
                "velocity": 101,
                "duration": 0.1999999999999993,
                "tempo": 120.0
            },
            {
                "start_time": 11.774999999999999,
                "end_time": 12.177272727272726,
                "pitch": 43,
                "velocity": 101,
                "duration": 0.40227272727272734,
                "tempo": 120.0
            },
            {
                "start_time": 9.581818181818182,
                "end_time": 12.377272727272727,
                "pitch": 46,
                "velocity": 101,
                "duration": 2.795454545454545,
                "tempo": 120.0
            },
            {
                "start_time": 12.177272727272726,
                "end_time": 12.377272727272727,
                "pitch": 46,
                "velocity": 101,
                "duration": 0.20000000000000107,
                "tempo": 120.0
            },
            {
                "start_time": 12.377272727272727,
                "end_time": 12.579545454545453,
                "pitch": 46,
                "velocity": 101,
                "duration": 0.20227272727272627,
                "tempo": 120.0
            },
            {
                "start_time": 12.579545454545453,
                "end_time": 12.779545454545454,
                "pitch": 46,
                "velocity": 101,
                "duration": 0.20000000000000107,
                "tempo": 120.0
            },
            {
                "start_time": 12.779545454545454,
                "end_time": 12.979545454545454,
                "pitch": 46,
                "velocity": 101,
                "duration": 0.1999999999999993,
                "tempo": 120.0
            },
            {
                "start_time": 3.2045454545454546,
                "end_time": 13.177272727272726,
                "pitch": 48,
                "velocity": 101,
                "duration": 9.97272727272727,
                "tempo": 120.0
            },
            {
                "start_time": 12.979545454545454,
                "end_time": 13.177272727272726,
                "pitch": 48,
                "velocity": 101,
                "duration": 0.1977272727272723,
                "tempo": 120.0
            },
            {
                "start_time": 13.177272727272726,
                "end_time": 13.379545454545454,
                "pitch": 48,
                "velocity": 101,
                "duration": 0.20227272727272805,
                "tempo": 120.0
            },
            {
                "start_time": 13.379545454545454,
                "end_time": 13.774999999999999,
                "pitch": 48,
                "velocity": 101,
                "duration": 0.3954545454545446,
                "tempo": 120.0
            },
            {
                "start_time": 13.774999999999999,
                "end_time": 13.970454545454544,
                "pitch": 48,
                "velocity": 101,
                "duration": 0.19545454545454533,
                "tempo": 120.0
            },
            {
                "start_time": 13.970454545454544,
                "end_time": 14.170454545454545,
                "pitch": 48,
                "velocity": 101,
                "duration": 0.20000000000000107,
                "tempo": 120.0
            },
            {
                "start_time": 14.170454545454545,
                "end_time": 14.372727272727271,
                "pitch": 48,
                "velocity": 101,
                "duration": 0.20227272727272627,
                "tempo": 120.0
            },
            {
                "start_time": 14.372727272727271,
                "end_time": 14.570454545454545,
                "pitch": 48,
                "velocity": 101,
                "duration": 0.19772727272727408,
                "tempo": 120.0
            },
            {
                "start_time": 14.570454545454545,
                "end_time": 14.770454545454545,
                "pitch": 48,
                "velocity": 101,
                "duration": 0.1999999999999993,
                "tempo": 120.0
            },
            {
                "start_time": 14.770454545454545,
                "end_time": 14.970454545454544,
                "pitch": 48,
                "velocity": 101,
                "duration": 0.1999999999999993,
                "tempo": 120.0
            },
            {
                "start_time": 14.970454545454544,
                "end_time": 15.372727272727271,
                "pitch": 48,
                "velocity": 101,
                "duration": 0.40227272727272734,
                "tempo": 120.0
            },
            {
                "start_time": 15.372727272727271,
                "end_time": 15.572727272727272,
                "pitch": 48,
                "velocity": 101,
                "duration": 0.20000000000000107,
                "tempo": 120.0
            },
            {
                "start_time": 15.572727272727272,
                "end_time": 15.772727272727272,
                "pitch": 48,
                "velocity": 101,
                "duration": 0.1999999999999993,
                "tempo": 120.0
            },
            {
                "start_time": 15.772727272727272,
                "end_time": 15.975,
                "pitch": 48,
                "velocity": 101,
                "duration": 0.20227272727272805,
                "tempo": 120.0
            },
            {
                "start_time": 6.390909090909091,
                "end_time": 16.175,
                "pitch": 44,
                "velocity": 101,
                "duration": 9.78409090909091,
                "tempo": 120.0
            },
            {
                "start_time": 15.975,
                "end_time": 16.175,
                "pitch": 44,
                "velocity": 101,
                "duration": 0.20000000000000107,
                "tempo": 120.0
            },
            {
                "start_time": 16.175,
                "end_time": 16.375,
                "pitch": 44,
                "velocity": 101,
                "duration": 0.1999999999999993,
                "tempo": 120.0
            },
            {
                "start_time": 16.375,
                "end_time": 16.577272727272728,
                "pitch": 44,
                "velocity": 101,
                "duration": 0.20227272727272805,
                "tempo": 120.0
            },
            {
                "start_time": 16.577272727272728,
                "end_time": 16.972727272727273,
                "pitch": 44,
                "velocity": 101,
                "duration": 0.3954545454545446,
                "tempo": 120.0
            },
            {
                "start_time": 16.972727272727273,
                "end_time": 17.168181818181818,
                "pitch": 44,
                "velocity": 101,
                "duration": 0.19545454545454533,
                "tempo": 120.0
            },
            {
                "start_time": 17.168181818181818,
                "end_time": 17.368181818181817,
                "pitch": 44,
                "velocity": 101,
                "duration": 0.1999999999999993,
                "tempo": 120.0
            },
            {
                "start_time": 17.368181818181817,
                "end_time": 17.56590909090909,
                "pitch": 44,
                "velocity": 101,
                "duration": 0.19772727272727408,
                "tempo": 120.0
            },
            {
                "start_time": 17.56590909090909,
                "end_time": 17.76590909090909,
                "pitch": 44,
                "velocity": 101,
                "duration": 0.1999999999999993,
                "tempo": 120.0
            },
            {
                "start_time": 17.76590909090909,
                "end_time": 17.96590909090909,
                "pitch": 44,
                "velocity": 101,
                "duration": 0.1999999999999993,
                "tempo": 120.0
            },
            {
                "start_time": 17.96590909090909,
                "end_time": 18.16590909090909,
                "pitch": 44,
                "velocity": 101,
                "duration": 0.1999999999999993,
                "tempo": 120.0
            },
            {
                "start_time": 18.16590909090909,
                "end_time": 18.56590909090909,
                "pitch": 44,
                "velocity": 101,
                "duration": 0.40000000000000213,
                "tempo": 120.0
            },
            {
                "start_time": 18.56590909090909,
                "end_time": 18.76590909090909,
                "pitch": 44,
                "velocity": 101,
                "duration": 0.1999999999999993,
                "tempo": 120.0
            },
            {
                "start_time": 18.76590909090909,
                "end_time": 18.96590909090909,
                "pitch": 44,
                "velocity": 101,
                "duration": 0.1999999999999993,
                "tempo": 120.0
            },
            {
                "start_time": 18.96590909090909,
                "end_time": 19.16590909090909,
                "pitch": 44,
                "velocity": 101,
                "duration": 0.1999999999999993,
                "tempo": 120.0
            },
            {
                "start_time": 19.16590909090909,
                "end_time": 19.36590909090909,
                "pitch": 44,
                "velocity": 101,
                "duration": 0.1999999999999993,
                "tempo": 120.0
            },
            {
                "start_time": 19.36590909090909,
                "end_time": 19.56590909090909,
                "pitch": 43,
                "velocity": 101,
                "duration": 0.20000000000000284,
                "tempo": 120.0
            },
            {
                "start_time": 19.56590909090909,
                "end_time": 19.761363636363637,
                "pitch": 43,
                "velocity": 101,
                "duration": 0.19545454545454533,
                "tempo": 120.0
            },
            {
                "start_time": 19.761363636363637,
                "end_time": 20.154545454545453,
                "pitch": 43,
                "velocity": 101,
                "duration": 0.39318181818181586,
                "tempo": 120.0
            },
            {
                "start_time": 20.154545454545453,
                "end_time": 20.354545454545452,
                "pitch": 43,
                "velocity": 101,
                "duration": 0.1999999999999993,
                "tempo": 120.0
            },
            {
                "start_time": 20.354545454545452,
                "end_time": 20.554545454545455,
                "pitch": 43,
                "velocity": 101,
                "duration": 0.20000000000000284,
                "tempo": 120.0
            },
            {
                "start_time": 20.554545454545455,
                "end_time": 20.75681818181818,
                "pitch": 43,
                "velocity": 101,
                "duration": 0.2022727272727245,
                "tempo": 120.0
            },
            {
                "start_time": 20.75681818181818,
                "end_time": 20.954545454545453,
                "pitch": 43,
                "velocity": 101,
                "duration": 0.19772727272727408,
                "tempo": 120.0
            },
            {
                "start_time": 20.954545454545453,
                "end_time": 21.154545454545453,
                "pitch": 43,
                "velocity": 101,
                "duration": 0.1999999999999993,
                "tempo": 120.0
            },
            {
                "start_time": 21.154545454545453,
                "end_time": 21.354545454545452,
                "pitch": 43,
                "velocity": 101,
                "duration": 0.1999999999999993,
                "tempo": 120.0
            },
            {
                "start_time": 21.354545454545452,
                "end_time": 21.754545454545454,
                "pitch": 43,
                "velocity": 101,
                "duration": 0.40000000000000213,
                "tempo": 120.0
            },
            {
                "start_time": 21.754545454545454,
                "end_time": 21.954545454545453,
                "pitch": 43,
                "velocity": 101,
                "duration": 0.1999999999999993,
                "tempo": 120.0
            },
            {
                "start_time": 21.954545454545453,
                "end_time": 22.154545454545453,
                "pitch": 43,
                "velocity": 101,
                "duration": 0.1999999999999993,
                "tempo": 120.0
            },
            {
                "start_time": 22.154545454545453,
                "end_time": 22.354545454545452,
                "pitch": 43,
                "velocity": 101,
                "duration": 0.1999999999999993,
                "tempo": 120.0
            },
            {
                "start_time": 22.354545454545452,
                "end_time": 22.554545454545455,
                "pitch": 48,
                "velocity": 101,
                "duration": 0.20000000000000284,
                "tempo": 120.0
            },
            {
                "start_time": 22.554545454545455,
                "end_time": 22.754545454545454,
                "pitch": 48,
                "velocity": 101,
                "duration": 0.1999999999999993,
                "tempo": 120.0
            },
            {
                "start_time": 22.754545454545454,
                "end_time": 22.95,
                "pitch": 48,
                "velocity": 101,
                "duration": 0.19545454545454533,
                "tempo": 120.0
            },
            {
                "start_time": 22.95,
                "end_time": 23.349999999999998,
                "pitch": 48,
                "velocity": 101,
                "duration": 0.3999999999999986,
                "tempo": 120.0
            },
            {
                "start_time": 23.349999999999998,
                "end_time": 23.554545454545455,
                "pitch": 48,
                "velocity": 101,
                "duration": 0.2045454545454568,
                "tempo": 120.0
            },
            {
                "start_time": 23.554545454545455,
                "end_time": 23.75,
                "pitch": 48,
                "velocity": 101,
                "duration": 0.19545454545454533,
                "tempo": 120.0
            },
            {
                "start_time": 23.75,
                "end_time": 23.945454545454545,
                "pitch": 48,
                "velocity": 101,
                "duration": 0.19545454545454533,
                "tempo": 120.0
            },
            {
                "start_time": 23.945454545454545,
                "end_time": 24.145454545454545,
                "pitch": 48,
                "velocity": 101,
                "duration": 0.1999999999999993,
                "tempo": 120.0
            },
            {
                "start_time": 24.145454545454545,
                "end_time": 24.347727272727273,
                "pitch": 48,
                "velocity": 101,
                "duration": 0.20227272727272805,
                "tempo": 120.0
            },
            {
                "start_time": 24.347727272727273,
                "end_time": 24.545454545454543,
                "pitch": 48,
                "velocity": 101,
                "duration": 0.19772727272727053,
                "tempo": 120.0
            },
            {
                "start_time": 24.545454545454543,
                "end_time": 24.745454545454542,
                "pitch": 48,
                "velocity": 101,
                "duration": 0.1999999999999993,
                "tempo": 120.0
            },
            {
                "start_time": 24.745454545454542,
                "end_time": 24.945454545454545,
                "pitch": 48,
                "velocity": 101,
                "duration": 0.20000000000000284,
                "tempo": 120.0
            },
            {
                "start_time": 24.945454545454545,
                "end_time": 25.143181818181816,
                "pitch": 48,
                "velocity": 101,
                "duration": 0.19772727272727053,
                "tempo": 120.0
            },
            {
                "start_time": 25.143181818181816,
                "end_time": 25.345454545454544,
                "pitch": 48,
                "velocity": 101,
                "duration": 0.20227272727272805,
                "tempo": 120.0
            },
            {
                "start_time": 25.345454545454544,
                "end_time": 25.545454545454543,
                "pitch": 48,
                "velocity": 101,
                "duration": 0.1999999999999993,
                "tempo": 120.0
            },
            {
                "start_time": 25.545454545454543,
                "end_time": 25.745454545454542,
                "pitch": 44,
                "velocity": 64,
                "duration": 0.1999999999999993,
                "tempo": 120.0
            },
            {
                "start_time": 25.745454545454542,
                "end_time": 25.945454545454545,
                "pitch": 44,
                "velocity": 64,
                "duration": 0.20000000000000284,
                "tempo": 120.0
            },
            {
                "start_time": 25.945454545454545,
                "end_time": 26.138636363636362,
                "pitch": 44,
                "velocity": 64,
                "duration": 0.19318181818181657,
                "tempo": 120.0
            },
            {
                "start_time": 26.138636363636362,
                "end_time": 26.534090909090907,
                "pitch": 44,
                "velocity": 64,
                "duration": 0.3954545454545446,
                "tempo": 120.0
            },
            {
                "start_time": 26.534090909090907,
                "end_time": 26.73409090909091,
                "pitch": 44,
                "velocity": 64,
                "duration": 0.20000000000000284,
                "tempo": 120.0
            },
            {
                "start_time": 26.73409090909091,
                "end_time": 26.93409090909091,
                "pitch": 44,
                "velocity": 64,
                "duration": 0.1999999999999993,
                "tempo": 120.0
            },
            {
                "start_time": 26.93409090909091,
                "end_time": 27.136363636363637,
                "pitch": 44,
                "velocity": 64,
                "duration": 0.20227272727272805,
                "tempo": 120.0
            },
            {
                "start_time": 27.136363636363637,
                "end_time": 27.334090909090907,
                "pitch": 46,
                "velocity": 64,
                "duration": 0.19772727272727053,
                "tempo": 120.0
            },
            {
                "start_time": 27.334090909090907,
                "end_time": 27.534090909090907,
                "pitch": 46,
                "velocity": 64,
                "duration": 0.1999999999999993,
                "tempo": 120.0
            },
            {
                "start_time": 27.534090909090907,
                "end_time": 27.73409090909091,
                "pitch": 46,
                "velocity": 64,
                "duration": 0.20000000000000284,
                "tempo": 120.0
            },
            {
                "start_time": 27.73409090909091,
                "end_time": 28.134090909090908,
                "pitch": 46,
                "velocity": 64,
                "duration": 0.3999999999999986,
                "tempo": 120.0
            },
            {
                "start_time": 28.134090909090908,
                "end_time": 28.334090909090907,
                "pitch": 46,
                "velocity": 64,
                "duration": 0.1999999999999993,
                "tempo": 120.0
            },
            {
                "start_time": 28.334090909090907,
                "end_time": 28.529545454545453,
                "pitch": 46,
                "velocity": 64,
                "duration": 0.19545454545454533,
                "tempo": 120.0
            },
            {
                "start_time": 28.529545454545453,
                "end_time": 28.724999999999998,
                "pitch": 46,
                "velocity": 64,
                "duration": 0.19545454545454533,
                "tempo": 120.0
            },
            {
                "start_time": 22.354545454545452,
                "end_time": 28.929545454545455,
                "pitch": 43,
                "velocity": 101,
                "duration": 6.575000000000003,
                "tempo": 120.0
            },
            {
                "start_time": 28.724999999999998,
                "end_time": 28.929545454545455,
                "pitch": 43,
                "velocity": 64,
                "duration": 0.2045454545454568,
                "tempo": 120.0
            },
            {
                "start_time": 28.929545454545455,
                "end_time": 29.134090909090908,
                "pitch": 43,
                "velocity": 64,
                "duration": 0.20454545454545325,
                "tempo": 120.0
            },
            {
                "start_time": 29.134090909090908,
                "end_time": 29.329545454545453,
                "pitch": 43,
                "velocity": 64,
                "duration": 0.19545454545454533,
                "tempo": 120.0
            },
            {
                "start_time": 29.329545454545453,
                "end_time": 29.724999999999998,
                "pitch": 43,
                "velocity": 64,
                "duration": 0.3954545454545446,
                "tempo": 120.0
            },
            {
                "start_time": 29.724999999999998,
                "end_time": 29.922727272727272,
                "pitch": 43,
                "velocity": 64,
                "duration": 0.19772727272727408,
                "tempo": 120.0
            },
            {
                "start_time": 29.922727272727272,
                "end_time": 30.125,
                "pitch": 43,
                "velocity": 64,
                "duration": 0.20227272727272805,
                "tempo": 120.0
            },
            {
                "start_time": 30.125,
                "end_time": 30.325,
                "pitch": 43,
                "velocity": 64,
                "duration": 0.1999999999999993,
                "tempo": 120.0
            },
            {
                "start_time": 25.545454545454543,
                "end_time": 30.529545454545453,
                "pitch": 48,
                "velocity": 64,
                "duration": 4.984090909090909,
                "tempo": 120.0
            },
            {
                "start_time": 30.325,
                "end_time": 30.529545454545453,
                "pitch": 48,
                "velocity": 64,
                "duration": 0.20454545454545325,
                "tempo": 120.0
            },
            {
                "start_time": 30.529545454545453,
                "end_time": 30.73409090909091,
                "pitch": 48,
                "velocity": 64,
                "duration": 0.2045454545454568,
                "tempo": 120.0
            },
            {
                "start_time": 30.73409090909091,
                "end_time": 30.929545454545455,
                "pitch": 48,
                "velocity": 64,
                "duration": 0.19545454545454533,
                "tempo": 120.0
            },
            {
                "start_time": 30.929545454545455,
                "end_time": 31.325,
                "pitch": 48,
                "velocity": 64,
                "duration": 0.3954545454545446,
                "tempo": 120.0
            },
            {
                "start_time": 31.325,
                "end_time": 31.527272727272727,
                "pitch": 48,
                "velocity": 64,
                "duration": 0.20227272727272805,
                "tempo": 120.0
            },
            {
                "start_time": 31.527272727272727,
                "end_time": 31.722727272727273,
                "pitch": 48,
                "velocity": 64,
                "duration": 0.19545454545454533,
                "tempo": 120.0
            },
            {
                "start_time": 31.722727272727273,
                "end_time": 31.918181818181818,
                "pitch": 48,
                "velocity": 64,
                "duration": 0.19545454545454533,
                "tempo": 120.0
            },
            {
                "start_time": 27.136363636363637,
                "end_time": 32.12045454545454,
                "pitch": 44,
                "velocity": 64,
                "duration": 4.984090909090906,
                "tempo": 120.0
            },
            {
                "start_time": 31.918181818181818,
                "end_time": 32.12045454545454,
                "pitch": 44,
                "velocity": 64,
                "duration": 0.2022727272727245,
                "tempo": 120.0
            },
            {
                "start_time": 32.12045454545454,
                "end_time": 32.32727272727273,
                "pitch": 44,
                "velocity": 64,
                "duration": 0.20681818181818556,
                "tempo": 120.0
            },
            {
                "start_time": 32.32727272727273,
                "end_time": 32.52272727272727,
                "pitch": 44,
                "velocity": 64,
                "duration": 0.19545454545454533,
                "tempo": 120.0
            },
            {
                "start_time": 32.52272727272727,
                "end_time": 32.91590909090909,
                "pitch": 44,
                "velocity": 64,
                "duration": 0.39318181818181586,
                "tempo": 120.0
            },
            {
                "start_time": 32.91590909090909,
                "end_time": 33.11590909090909,
                "pitch": 44,
                "velocity": 64,
                "duration": 0.20000000000000284,
                "tempo": 120.0
            },
            {
                "start_time": 33.11590909090909,
                "end_time": 33.31590909090909,
                "pitch": 44,
                "velocity": 64,
                "duration": 0.19999999999999574,
                "tempo": 120.0
            },
            {
                "start_time": 33.31590909090909,
                "end_time": 33.513636363636365,
                "pitch": 44,
                "velocity": 64,
                "duration": 0.19772727272727764,
                "tempo": 120.0
            },
            {
                "start_time": 28.724999999999998,
                "end_time": 33.71363636363636,
                "pitch": 46,
                "velocity": 64,
                "duration": 4.988636363636363,
                "tempo": 120.0
            },
            {
                "start_time": 33.513636363636365,
                "end_time": 33.71363636363636,
                "pitch": 46,
                "velocity": 64,
                "duration": 0.19999999999999574,
                "tempo": 120.0
            },
            {
                "start_time": 33.71363636363636,
                "end_time": 33.913636363636364,
                "pitch": 46,
                "velocity": 64,
                "duration": 0.20000000000000284,
                "tempo": 120.0
            },
            {
                "start_time": 33.913636363636364,
                "end_time": 34.111363636363635,
                "pitch": 46,
                "velocity": 64,
                "duration": 0.19772727272727053,
                "tempo": 120.0
            },
            {
                "start_time": 34.111363636363635,
                "end_time": 34.51136363636363,
                "pitch": 46,
                "velocity": 64,
                "duration": 0.3999999999999986,
                "tempo": 120.0
            },
            {
                "start_time": 34.51136363636363,
                "end_time": 34.71363636363636,
                "pitch": 46,
                "velocity": 64,
                "duration": 0.20227272727272805,
                "tempo": 120.0
            },
            {
                "start_time": 34.71363636363636,
                "end_time": 34.90909090909091,
                "pitch": 46,
                "velocity": 64,
                "duration": 0.19545454545454533,
                "tempo": 120.0
            },
            {
                "start_time": 34.90909090909091,
                "end_time": 35.10454545454545,
                "pitch": 46,
                "velocity": 64,
                "duration": 0.19545454545454533,
                "tempo": 120.0
            },
            {
                "start_time": 30.325,
                "end_time": 35.309090909090905,
                "pitch": 43,
                "velocity": 64,
                "duration": 4.984090909090906,
                "tempo": 120.0
            },
            {
                "start_time": 35.10454545454545,
                "end_time": 35.309090909090905,
                "pitch": 43,
                "velocity": 101,
                "duration": 0.20454545454545325,
                "tempo": 120.0
            },
            {
                "start_time": 35.309090909090905,
                "end_time": 35.513636363636365,
                "pitch": 43,
                "velocity": 101,
                "duration": 0.20454545454546036,
                "tempo": 120.0
            },
            {
                "start_time": 35.513636363636365,
                "end_time": 35.70909090909091,
                "pitch": 43,
                "velocity": 101,
                "duration": 0.19545454545454533,
                "tempo": 120.0
            },
            {
                "start_time": 35.70909090909091,
                "end_time": 36.10227272727273,
                "pitch": 43,
                "velocity": 101,
                "duration": 0.39318181818181586,
                "tempo": 120.0
            },
            {
                "start_time": 36.10227272727273,
                "end_time": 36.30227272727272,
                "pitch": 43,
                "velocity": 101,
                "duration": 0.19999999999999574,
                "tempo": 120.0
            },
            {
                "start_time": 36.30227272727272,
                "end_time": 36.502272727272725,
                "pitch": 43,
                "velocity": 101,
                "duration": 0.20000000000000284,
                "tempo": 120.0
            },
            {
                "start_time": 36.502272727272725,
                "end_time": 36.70227272727273,
                "pitch": 43,
                "velocity": 101,
                "duration": 0.20000000000000284,
                "tempo": 120.0
            },
            {
                "start_time": 36.70227272727273,
                "end_time": 36.902272727272724,
                "pitch": 43,
                "velocity": 101,
                "duration": 0.19999999999999574,
                "tempo": 120.0
            },
            {
                "start_time": 36.902272727272724,
                "end_time": 37.10227272727273,
                "pitch": 43,
                "velocity": 101,
                "duration": 0.20000000000000284,
                "tempo": 120.0
            },
            {
                "start_time": 37.10227272727273,
                "end_time": 37.30227272727272,
                "pitch": 43,
                "velocity": 101,
                "duration": 0.19999999999999574,
                "tempo": 120.0
            },
            {
                "start_time": 37.30227272727272,
                "end_time": 37.695454545454545,
                "pitch": 43,
                "velocity": 101,
                "duration": 0.39318181818182296,
                "tempo": 120.0
            },
            {
                "start_time": 37.695454545454545,
                "end_time": 37.893181818181816,
                "pitch": 43,
                "velocity": 101,
                "duration": 0.19772727272727053,
                "tempo": 120.0
            },
            {
                "start_time": 37.893181818181816,
                "end_time": 38.090909090909086,
                "pitch": 43,
                "velocity": 101,
                "duration": 0.19772727272727053,
                "tempo": 120.0
            },
            {
                "start_time": 38.090909090909086,
                "end_time": 38.29090909090909,
                "pitch": 43,
                "velocity": 101,
                "duration": 0.20000000000000284,
                "tempo": 120.0
            },
            {
                "start_time": 38.29090909090909,
                "end_time": 38.49545454545454,
                "pitch": 43,
                "velocity": 101,
                "duration": 0.20454545454545325,
                "tempo": 120.0
            },
            {
                "start_time": 33.513636363636365,
                "end_time": 38.699999999999996,
                "pitch": 44,
                "velocity": 64,
                "duration": 5.18636363636363,
                "tempo": 120.0
            },
            {
                "start_time": 38.49545454545454,
                "end_time": 38.699999999999996,
                "pitch": 44,
                "velocity": 101,
                "duration": 0.20454545454545325,
                "tempo": 120.0
            },
            {
                "start_time": 38.699999999999996,
                "end_time": 38.89545454545454,
                "pitch": 44,
                "velocity": 101,
                "duration": 0.19545454545454533,
                "tempo": 120.0
            },
            {
                "start_time": 38.89545454545454,
                "end_time": 39.29090909090909,
                "pitch": 44,
                "velocity": 101,
                "duration": 0.39545454545454817,
                "tempo": 120.0
            },
            {
                "start_time": 39.29090909090909,
                "end_time": 39.49318181818182,
                "pitch": 44,
                "velocity": 101,
                "duration": 0.20227272727272805,
                "tempo": 120.0
            },
            {
                "start_time": 39.49318181818182,
                "end_time": 39.69090909090909,
                "pitch": 44,
                "velocity": 101,
                "duration": 0.19772727272727053,
                "tempo": 120.0
            },
            {
                "start_time": 39.69090909090909,
                "end_time": 39.89090909090909,
                "pitch": 44,
                "velocity": 101,
                "duration": 0.20000000000000284,
                "tempo": 120.0
            },
            {
                "start_time": 35.10454545454545,
                "end_time": 40.090909090909086,
                "pitch": 46,
                "velocity": 101,
                "duration": 4.9863636363636346,
                "tempo": 120.0
            },
            {
                "start_time": 39.89090909090909,
                "end_time": 40.090909090909086,
                "pitch": 46,
                "velocity": 101,
                "duration": 0.19999999999999574,
                "tempo": 120.0
            },
            {
                "start_time": 40.090909090909086,
                "end_time": 40.288636363636364,
                "pitch": 46,
                "velocity": 101,
                "duration": 0.19772727272727764,
                "tempo": 120.0
            },
            {
                "start_time": 40.288636363636364,
                "end_time": 40.48863636363636,
                "pitch": 46,
                "velocity": 101,
                "duration": 0.19999999999999574,
                "tempo": 120.0
            },
            {
                "start_time": 40.48863636363636,
                "end_time": 40.88409090909091,
                "pitch": 46,
                "velocity": 101,
                "duration": 0.39545454545454817,
                "tempo": 120.0
            },
            {
                "start_time": 40.88409090909091,
                "end_time": 41.07954545454545,
                "pitch": 46,
                "velocity": 101,
                "duration": 0.19545454545454533,
                "tempo": 120.0
            },
            {
                "start_time": 41.07954545454545,
                "end_time": 41.277272727272724,
                "pitch": 46,
                "velocity": 101,
                "duration": 0.19772727272727053,
                "tempo": 120.0
            },
            {
                "start_time": 41.27954545454545,
                "end_time": 41.47727272727273,
                "pitch": 46,
                "velocity": 101,
                "duration": 0.19772727272727764,
                "tempo": 120.0
            },
            {
                "start_time": 41.47727272727273,
                "end_time": 41.67727272727272,
                "pitch": 43,
                "velocity": 101,
                "duration": 0.19999999999999574,
                "tempo": 120.0
            },
            {
                "start_time": 41.67727272727272,
                "end_time": 41.877272727272725,
                "pitch": 43,
                "velocity": 101,
                "duration": 0.20000000000000284,
                "tempo": 120.0
            },
            {
                "start_time": 41.877272727272725,
                "end_time": 42.07727272727273,
                "pitch": 43,
                "velocity": 101,
                "duration": 0.20000000000000284,
                "tempo": 120.0
            },
            {
                "start_time": 42.07727272727273,
                "end_time": 42.47727272727273,
                "pitch": 43,
                "velocity": 101,
                "duration": 0.3999999999999986,
                "tempo": 120.0
            },
            {
                "start_time": 42.47727272727273,
                "end_time": 42.67727272727272,
                "pitch": 43,
                "velocity": 101,
                "duration": 0.19999999999999574,
                "tempo": 120.0
            },
            {
                "start_time": 42.67727272727272,
                "end_time": 42.875,
                "pitch": 43,
                "velocity": 101,
                "duration": 0.19772727272727764,
                "tempo": 120.0
            },
            {
                "start_time": 42.875,
                "end_time": 43.074999999999996,
                "pitch": 43,
                "velocity": 101,
                "duration": 0.19999999999999574,
                "tempo": 120.0
            },
            {
                "start_time": 31.918181818181818,
                "end_time": 43.275,
                "pitch": 48,
                "velocity": 64,
                "duration": 11.35681818181818,
                "tempo": 120.0
            },
            {
                "start_time": 43.074999999999996,
                "end_time": 43.275,
                "pitch": 48,
                "velocity": 101,
                "duration": 0.20000000000000284,
                "tempo": 120.0
            },
            {
                "start_time": 43.275,
                "end_time": 43.475,
                "pitch": 48,
                "velocity": 101,
                "duration": 0.20000000000000284,
                "tempo": 120.0
            },
            {
                "start_time": 43.475,
                "end_time": 43.67272727272727,
                "pitch": 48,
                "velocity": 101,
                "duration": 0.19772727272727053,
                "tempo": 120.0
            },
            {
                "start_time": 43.67272727272727,
                "end_time": 44.06818181818181,
                "pitch": 48,
                "velocity": 101,
                "duration": 0.39545454545454106,
                "tempo": 120.0
            },
            {
                "start_time": 44.06818181818181,
                "end_time": 44.26363636363636,
                "pitch": 48,
                "velocity": 101,
                "duration": 0.19545454545454533,
                "tempo": 120.0
            },
            {
                "start_time": 44.26363636363636,
                "end_time": 44.46363636363636,
                "pitch": 48,
                "velocity": 101,
                "duration": 0.20000000000000284,
                "tempo": 120.0
            },
            {
                "start_time": 44.46363636363636,
                "end_time": 44.66590909090909,
                "pitch": 48,
                "velocity": 101,
                "duration": 0.20227272727272805,
                "tempo": 120.0
            },
            {
                "start_time": 39.89090909090909,
                "end_time": 44.86363636363636,
                "pitch": 44,
                "velocity": 101,
                "duration": 4.972727272727269,
                "tempo": 120.0
            },
            {
                "start_time": 44.66590909090909,
                "end_time": 44.86363636363636,
                "pitch": 44,
                "velocity": 101,
                "duration": 0.19772727272727053,
                "tempo": 120.0
            },
            {
                "start_time": 44.86363636363636,
                "end_time": 45.06363636363636,
                "pitch": 44,
                "velocity": 101,
                "duration": 0.20000000000000284,
                "tempo": 120.0
            },
            {
                "start_time": 45.06363636363636,
                "end_time": 45.26363636363636,
                "pitch": 44,
                "velocity": 101,
                "duration": 0.19999999999999574,
                "tempo": 120.0
            },
            {
                "start_time": 45.26363636363636,
                "end_time": 45.66136363636363,
                "pitch": 44,
                "velocity": 101,
                "duration": 0.3977272727272734,
                "tempo": 120.0
            },
            {
                "start_time": 45.66136363636363,
                "end_time": 45.861363636363635,
                "pitch": 44,
                "velocity": 101,
                "duration": 0.20000000000000284,
                "tempo": 120.0
            },
            {
                "start_time": 45.861363636363635,
                "end_time": 46.059090909090905,
                "pitch": 44,
                "velocity": 101,
                "duration": 0.19772727272727053,
                "tempo": 120.0
            },
            {
                "start_time": 46.059090909090905,
                "end_time": 46.25909090909091,
                "pitch": 44,
                "velocity": 101,
                "duration": 0.20000000000000284,
                "tempo": 120.0
            },
            {
                "start_time": 41.47727272727273,
                "end_time": 46.459090909090904,
                "pitch": 46,
                "velocity": 101,
                "duration": 4.981818181818177,
                "tempo": 120.0
            },
            {
                "start_time": 46.25909090909091,
                "end_time": 46.459090909090904,
                "pitch": 46,
                "velocity": 101,
                "duration": 0.19999999999999574,
                "tempo": 120.0
            },
            {
                "start_time": 46.459090909090904,
                "end_time": 46.66136363636363,
                "pitch": 46,
                "velocity": 101,
                "duration": 0.20227272727272805,
                "tempo": 120.0
            },
            {
                "start_time": 46.66136363636363,
                "end_time": 46.85681818181818,
                "pitch": 46,
                "velocity": 101,
                "duration": 0.19545454545454533,
                "tempo": 120.0
            },
            {
                "start_time": 46.85681818181818,
                "end_time": 47.252272727272725,
                "pitch": 46,
                "velocity": 101,
                "duration": 0.39545454545454817,
                "tempo": 120.0
            },
            {
                "start_time": 47.252272727272725,
                "end_time": 47.45227272727273,
                "pitch": 46,
                "velocity": 101,
                "duration": 0.20000000000000284,
                "tempo": 120.0
            },
            {
                "start_time": 47.45227272727273,
                "end_time": 47.652272727272724,
                "pitch": 46,
                "velocity": 101,
                "duration": 0.19999999999999574,
                "tempo": 120.0
            },
            {
                "start_time": 47.652272727272724,
                "end_time": 47.85227272727273,
                "pitch": 46,
                "velocity": 101,
                "duration": 0.20000000000000284,
                "tempo": 120.0
            },
            {
                "start_time": 47.85227272727273,
                "end_time": 48.05,
                "pitch": 50,
                "velocity": 101,
                "duration": 0.19772727272727053,
                "tempo": 120.0
            },
            {
                "start_time": 48.05,
                "end_time": 48.25,
                "pitch": 50,
                "velocity": 101,
                "duration": 0.20000000000000284,
                "tempo": 120.0
            },
            {
                "start_time": 48.25,
                "end_time": 48.449999999999996,
                "pitch": 50,
                "velocity": 101,
                "duration": 0.19999999999999574,
                "tempo": 120.0
            },
            {
                "start_time": 48.449999999999996,
                "end_time": 48.64772727272727,
                "pitch": 50,
                "velocity": 101,
                "duration": 0.19772727272727764,
                "tempo": 120.0
            },
            {
                "start_time": 48.64772727272727,
                "end_time": 48.84772727272727,
                "pitch": 50,
                "velocity": 101,
                "duration": 0.19999999999999574,
                "tempo": 120.0
            },
            {
                "start_time": 48.84772727272727,
                "end_time": 49.04772727272727,
                "pitch": 50,
                "velocity": 101,
                "duration": 0.20000000000000284,
                "tempo": 120.0
            },
            {
                "start_time": 49.04772727272727,
                "end_time": 49.24772727272727,
                "pitch": 50,
                "velocity": 101,
                "duration": 0.19999999999999574,
                "tempo": 120.0
            },
            {
                "start_time": 49.24772727272727,
                "end_time": 49.44772727272727,
                "pitch": 50,
                "velocity": 101,
                "duration": 0.20000000000000284,
                "tempo": 120.0
            },
            {
                "start_time": 49.44772727272727,
                "end_time": 49.64772727272727,
                "pitch": 50,
                "velocity": 101,
                "duration": 0.20000000000000284,
                "tempo": 120.0
            },
            {
                "start_time": 49.64772727272727,
                "end_time": 49.84772727272727,
                "pitch": 50,
                "velocity": 101,
                "duration": 0.19999999999999574,
                "tempo": 120.0
            },
            {
                "start_time": 49.84772727272727,
                "end_time": 50.043181818181814,
                "pitch": 50,
                "velocity": 101,
                "duration": 0.19545454545454533,
                "tempo": 120.0
            },
            {
                "start_time": 50.043181818181814,
                "end_time": 50.43863636363636,
                "pitch": 50,
                "velocity": 101,
                "duration": 0.39545454545454817,
                "tempo": 120.0
            },
            {
                "start_time": 50.43863636363636,
                "end_time": 50.63636363636363,
                "pitch": 50,
                "velocity": 101,
                "duration": 0.19772727272727053,
                "tempo": 120.0
            },
            {
                "start_time": 50.63636363636363,
                "end_time": 50.836363636363636,
                "pitch": 50,
                "velocity": 101,
                "duration": 0.20000000000000284,
                "tempo": 120.0
            },
            {
                "start_time": 50.836363636363636,
                "end_time": 51.03636363636363,
                "pitch": 50,
                "velocity": 101,
                "duration": 0.19999999999999574,
                "tempo": 120.0
            },
            {
                "start_time": 44.66590909090909,
                "end_time": 51.240909090909085,
                "pitch": 48,
                "velocity": 101,
                "duration": 6.574999999999996,
                "tempo": 120.0
            },
            {
                "start_time": 51.03636363636363,
                "end_time": 51.240909090909085,
                "pitch": 48,
                "velocity": 101,
                "duration": 0.20454545454545325,
                "tempo": 120.0
            },
            {
                "start_time": 51.240909090909085,
                "end_time": 51.324999999999996,
                "pitch": 48,
                "velocity": 101,
                "duration": 0.08409090909091077,
                "tempo": 120.0
            }
        ]
    }
}