{
    "track_id": "18 Boss 7",
    "mood": "happy",
    "instruments": {
        "Church Organ": [
            {
                "start_time": 0.08636363636363636,
                "end_time": 1.4068181818181817,
                "pitch": 62,
                "velocity": 80,
                "duration": 1.3204545454545453,
                "tempo": 120.0
            },
            {
                "start_time": 1.440909090909091,
                "end_time": 2.7704545454545455,
                "pitch": 63,
                "velocity": 80,
                "duration": 1.3295454545454546,
                "tempo": 120.0
            },
            {
                "start_time": 2.8045454545454542,
                "end_time": 4.127272727272727,
                "pitch": 64,
                "velocity": 80,
                "duration": 1.3227272727272728,
                "tempo": 120.0
            },
            {
                "start_time": 4.161363636363636,
                "end_time": 5.509090909090909,
                "pitch": 65,
                "velocity": 80,
                "duration": 1.3477272727272727,
                "tempo": 120.0
            }
        ],
        "Violin": [
            {
                "start_time": 0.004545454545454545,
                "end_time": 0.41818181818181815,
                "pitch": 60,
                "velocity": 80,
                "duration": 0.41363636363636364,
                "tempo": 120.0
            },
            {
                "start_time": 0.41818181818181815,
                "end_time": 0.9295454545454545,
                "pitch": 62,
                "velocity": 80,
                "duration": 0.5113636363636362,
                "tempo": 120.0
            },
            {
                "start_time": 0.9295454545454545,
                "end_time": 1.3227272727272728,
                "pitch": 64,
                "velocity": 80,
                "duration": 0.3931818181818183,
                "tempo": 120.0
            },
            {
                "start_time": 1.3568181818181817,
                "end_time": 1.7727272727272727,
                "pitch": 60,
                "velocity": 80,
                "duration": 0.415909090909091,
                "tempo": 120.0
            },
            {
                "start_time": 1.7727272727272727,
                "end_time": 2.290909090909091,
                "pitch": 62,
                "velocity": 80,
                "duration": 0.5181818181818183,
                "tempo": 120.0
            },
            {
                "start_time": 2.290909090909091,
                "end_time": 2.686363636363636,
                "pitch": 64,
                "velocity": 80,
                "duration": 0.39545454545454506,
                "tempo": 120.0
            },
            {
                "start_time": 2.702272727272727,
                "end_time": 3.1227272727272726,
                "pitch": 60,
                "velocity": 80,
                "duration": 0.4204545454545454,
                "tempo": 120.0
            },
            {
                "start_time": 3.1227272727272726,
                "end_time": 3.643181818181818,
                "pitch": 62,
                "velocity": 80,
                "duration": 0.5204545454545455,
                "tempo": 120.0
            },
            {
                "start_time": 3.643181818181818,
                "end_time": 4.247727272727272,
                "pitch": 64,
                "velocity": 80,
                "duration": 0.604545454545454,
                "tempo": 120.0
            },
            {
                "start_time": 4.247727272727272,
                "end_time": 4.55,
                "pitch": 66,
                "velocity": 80,
                "duration": 0.3022727272727277,
                "tempo": 120.0
            },
            {
                "start_time": 4.55,
                "end_time": 5.24090909090909,
                "pitch": 67,
                "velocity": 80,
                "duration": 0.6909090909090905,
                "tempo": 120.0
            },
            {
                "start_time": 5.24090909090909,
                "end_time": 5.425,
                "pitch": 69,
                "velocity": 80,
                "duration": 0.18409090909090953,
                "tempo": 120.0
            }
        ],
        "Harpsichord": [
            {
                "start_time": 5.4409090909090905,
                "end_time": 5.590909090909091,
                "pitch": 67,
                "velocity": 80,
                "duration": 0.15000000000000036,
                "tempo": 120.0
            },
            {
                "start_time": 5.6090909090909085,
                "end_time": 5.759090909090909,
                "pitch": 70,
                "velocity": 80,
                "duration": 0.15000000000000036,
                "tempo": 120.0
            },
            {
                "start_time": 5.793181818181818,
                "end_time": 5.927272727272727,
                "pitch": 74,
                "velocity": 80,
                "duration": 0.13409090909090882,
                "tempo": 120.0
            },
            {
                "start_time": 5.959090909090909,
                "end_time": 6.093181818181818,
                "pitch": 79,
                "velocity": 80,
                "duration": 0.13409090909090882,
                "tempo": 120.0
            },
            {
                "start_time": 6.127272727272727,
                "end_time": 6.256818181818182,
                "pitch": 67,
                "velocity": 80,
                "duration": 0.12954545454545485,
                "tempo": 120.0
            },
            {
                "start_time": 6.290909090909091,
                "end_time": 6.436363636363636,
                "pitch": 70,
                "velocity": 80,
                "duration": 0.14545454545454461,
                "tempo": 120.0
            },
            {
                "start_time": 6.452272727272727,
                "end_time": 6.602272727272727,
                "pitch": 74,
                "velocity": 80,
                "duration": 0.14999999999999947,
                "tempo": 120.0
            },
            {
                "start_time": 6.620454545454545,
                "end_time": 6.7704545454545455,
                "pitch": 79,
                "velocity": 80,
                "duration": 0.15000000000000036,
                "tempo": 120.0
            },
            {
                "start_time": 6.804545454545454,
                "end_time": 6.9409090909090905,
                "pitch": 67,
                "velocity": 80,
                "duration": 0.1363636363636367,
                "tempo": 120.0
            },
            {
                "start_time": 6.975,
                "end_time": 7.113636363636363,
                "pitch": 70,
                "velocity": 80,
                "duration": 0.13863636363636367,
                "tempo": 120.0
            },
            {
                "start_time": 7.1477272727272725,
                "end_time": 7.279545454545454,
                "pitch": 74,
                "velocity": 80,
                "duration": 0.13181818181818183,
                "tempo": 120.0
            },
            {
                "start_time": 7.311363636363636,
                "end_time": 7.456818181818181,
                "pitch": 79,
                "velocity": 80,
                "duration": 0.1454545454545455,
                "tempo": 120.0
            },
            {
                "start_time": 7.475,
                "end_time": 7.625,
                "pitch": 67,
                "velocity": 80,
                "duration": 0.15000000000000036,
                "tempo": 120.0
            },
            {
                "start_time": 7.640909090909091,
                "end_time": 7.79090909090909,
                "pitch": 70,
                "velocity": 80,
                "duration": 0.14999999999999947,
                "tempo": 120.0
            },
            {
                "start_time": 7.824999999999999,
                "end_time": 7.963636363636363,
                "pitch": 74,
                "velocity": 80,
                "duration": 0.13863636363636367,
                "tempo": 120.0
            },
            {
                "start_time": 7.997727272727272,
                "end_time": 8.134090909090908,
                "pitch": 79,
                "velocity": 80,
                "duration": 0.1363636363636358,
                "tempo": 120.0
            },
            {
                "start_time": 8.170454545454545,
                "end_time": 8.299999999999999,
                "pitch": 67,
                "velocity": 80,
                "duration": 0.12954545454545396,
                "tempo": 120.0
            },
            {
                "start_time": 8.331818181818182,
                "end_time": 8.479545454545454,
                "pitch": 70,
                "velocity": 80,
                "duration": 0.1477272727272716,
                "tempo": 120.0
            },
            {
                "start_time": 8.495454545454544,
                "end_time": 8.645454545454545,
                "pitch": 74,
                "velocity": 80,
                "duration": 0.15000000000000036,
                "tempo": 120.0
            },
            {
                "start_time": 8.661363636363635,
                "end_time": 8.813636363636363,
                "pitch": 79,
                "velocity": 80,
                "duration": 0.15227272727272734,
                "tempo": 120.0
            },
            {
                "start_time": 8.845454545454546,
                "end_time": 8.979545454545454,
                "pitch": 67,
                "velocity": 80,
                "duration": 0.13409090909090793,
                "tempo": 120.0
            },
            {
                "start_time": 9.013636363636364,
                "end_time": 9.147727272727272,
                "pitch": 70,
                "velocity": 80,
                "duration": 0.13409090909090793,
                "tempo": 120.0
            },
            {
                "start_time": 9.181818181818182,
                "end_time": 9.31590909090909,
                "pitch": 74,
                "velocity": 80,
                "duration": 0.13409090909090793,
                "tempo": 120.0
            },
            {
                "start_time": 9.347727272727273,
                "end_time": 9.5,
                "pitch": 79,
                "velocity": 80,
                "duration": 0.15227272727272734,
                "tempo": 120.0
            },
            {
                "start_time": 9.51590909090909,
                "end_time": 9.661363636363635,
                "pitch": 67,
                "velocity": 80,
                "duration": 0.14545454545454461,
                "tempo": 120.0
            },
            {
                "start_time": 9.695454545454545,
                "end_time": 9.825,
                "pitch": 70,
                "velocity": 80,
                "duration": 0.12954545454545396,
                "tempo": 120.0
            },
            {
                "start_time": 9.85681818181818,
                "end_time": 9.995454545454544,
                "pitch": 74,
                "velocity": 80,
                "duration": 0.13863636363636367,
                "tempo": 120.0
            },
            {
                "start_time": 10.029545454545454,
                "end_time": 10.168181818181818,
                "pitch": 79,
                "velocity": 80,
                "duration": 0.13863636363636367,
                "tempo": 120.0
            },
            {
                "start_time": 10.202272727272726,
                "end_time": 10.352272727272727,
                "pitch": 67,
                "velocity": 80,
                "duration": 0.15000000000000036,
                "tempo": 120.0
            },
            {
                "start_time": 10.370454545454544,
                "end_time": 10.520454545454545,
                "pitch": 70,
                "velocity": 80,
                "duration": 0.15000000000000036,
                "tempo": 120.0
            },
            {
                "start_time": 10.536363636363635,
                "end_time": 10.684090909090909,
                "pitch": 74,
                "velocity": 80,
                "duration": 0.14772727272727337,
                "tempo": 120.0
            },
            {
                "start_time": 10.71590909090909,
                "end_time": 10.845454545454546,
                "pitch": 79,
                "velocity": 80,
                "duration": 0.12954545454545574,
                "tempo": 120.0
            },
            {
                "start_time": 10.881818181818181,
                "end_time": 11.01590909090909,
                "pitch": 67,
                "velocity": 80,
                "duration": 0.1340909090909097,
                "tempo": 120.0
            },
            {
                "start_time": 11.049999999999999,
                "end_time": 11.188636363636363,
                "pitch": 70,
                "velocity": 80,
                "duration": 0.13863636363636367,
                "tempo": 120.0
            },
            {
                "start_time": 11.222727272727273,
                "end_time": 11.370454545454544,
                "pitch": 74,
                "velocity": 80,
                "duration": 0.1477272727272716,
                "tempo": 120.0
            },
            {
                "start_time": 11.386363636363637,
                "end_time": 11.531818181818181,
                "pitch": 79,
                "velocity": 80,
                "duration": 0.14545454545454461,
                "tempo": 120.0
            },
            {
                "start_time": 11.549999999999999,
                "end_time": 11.7,
                "pitch": 67,
                "velocity": 80,
                "duration": 0.15000000000000036,
                "tempo": 120.0
            },
            {
                "start_time": 11.73409090909091,
                "end_time": 11.86590909090909,
                "pitch": 70,
                "velocity": 80,
                "duration": 0.13181818181818095,
                "tempo": 120.0
            },
            {
                "start_time": 11.899999999999999,
                "end_time": 12.038636363636362,
                "pitch": 74,
                "velocity": 80,
                "duration": 0.13863636363636367,
                "tempo": 120.0
            },
            {
                "start_time": 12.072727272727272,
                "end_time": 12.209090909090909,
                "pitch": 79,
                "velocity": 80,
                "duration": 0.1363636363636367,
                "tempo": 120.0
            },
            {
                "start_time": 12.245454545454544,
                "end_time": 12.39090909090909,
                "pitch": 67,
                "velocity": 80,
                "duration": 0.1454545454545464,
                "tempo": 120.0
            },
            {
                "start_time": 12.406818181818181,
                "end_time": 12.554545454545455,
                "pitch": 70,
                "velocity": 80,
                "duration": 0.14772727272727337,
                "tempo": 120.0
            },
            {
                "start_time": 12.570454545454545,
                "end_time": 12.720454545454546,
                "pitch": 74,
                "velocity": 80,
                "duration": 0.15000000000000036,
                "tempo": 120.0
            },
            {
                "start_time": 12.754545454545454,
                "end_time": 12.888636363636364,
                "pitch": 79,
                "velocity": 80,
                "duration": 0.1340909090909097,
                "tempo": 120.0
            },
            {
                "start_time": 12.920454545454545,
                "end_time": 13.059090909090909,
                "pitch": 67,
                "velocity": 80,
                "duration": 0.13863636363636367,
                "tempo": 120.0
            },
            {
                "start_time": 13.093181818181817,
                "end_time": 13.23181818181818,
                "pitch": 70,
                "velocity": 80,
                "duration": 0.13863636363636367,
                "tempo": 120.0
            },
            {
                "start_time": 13.26590909090909,
                "end_time": 13.411363636363635,
                "pitch": 74,
                "velocity": 80,
                "duration": 0.14545454545454461,
                "tempo": 120.0
            },
            {
                "start_time": 13.429545454545455,
                "end_time": 13.575,
                "pitch": 79,
                "velocity": 80,
                "duration": 0.14545454545454461,
                "tempo": 120.0
            },
            {
                "start_time": 13.593181818181817,
                "end_time": 13.74090909090909,
                "pitch": 67,
                "velocity": 80,
                "duration": 0.14772727272727337,
                "tempo": 120.0
            },
            {
                "start_time": 13.774999999999999,
                "end_time": 13.909090909090908,
                "pitch": 70,
                "velocity": 80,
                "duration": 0.1340909090909097,
                "tempo": 120.0
            },
            {
                "start_time": 13.943181818181818,
                "end_time": 14.077272727272726,
                "pitch": 74,
                "velocity": 80,
                "duration": 0.13409090909090793,
                "tempo": 120.0
            },
            {
                "start_time": 14.111363636363636,
                "end_time": 14.243181818181817,
                "pitch": 79,
                "velocity": 80,
                "duration": 0.13181818181818095,
                "tempo": 120.0
            },
            {
                "start_time": 14.277272727272727,
                "end_time": 14.427272727272726,
                "pitch": 67,
                "velocity": 80,
                "duration": 0.14999999999999858,
                "tempo": 120.0
            },
            {
                "start_time": 14.445454545454545,
                "end_time": 14.595454545454544,
                "pitch": 70,
                "velocity": 80,
                "duration": 0.14999999999999858,
                "tempo": 120.0
            },
            {
                "start_time": 14.629545454545454,
                "end_time": 14.76590909090909,
                "pitch": 74,
                "velocity": 80,
                "duration": 0.1363636363636367,
                "tempo": 120.0
            },
            {
                "start_time": 14.802272727272726,
                "end_time": 14.938636363636363,
                "pitch": 79,
                "velocity": 80,
                "duration": 0.1363636363636367,
                "tempo": 120.0
            },
            {
                "start_time": 14.975,
                "end_time": 15.104545454545454,
                "pitch": 67,
                "velocity": 80,
                "duration": 0.12954545454545396,
                "tempo": 120.0
            },
            {
                "start_time": 15.136363636363635,
                "end_time": 15.281818181818181,
                "pitch": 70,
                "velocity": 80,
                "duration": 0.1454545454545464,
                "tempo": 120.0
            },
            {
                "start_time": 15.299999999999999,
                "end_time": 15.45,
                "pitch": 74,
                "velocity": 80,
                "duration": 0.15000000000000036,
                "tempo": 120.0
            },
            {
                "start_time": 15.46590909090909,
                "end_time": 15.61590909090909,
                "pitch": 79,
                "velocity": 80,
                "duration": 0.15000000000000036,
                "tempo": 120.0
            },
            {
                "start_time": 15.649999999999999,
                "end_time": 15.786363636363635,
                "pitch": 67,
                "velocity": 80,
                "duration": 0.1363636363636367,
                "tempo": 120.0
            },
            {
                "start_time": 15.822727272727272,
                "end_time": 15.959090909090909,
                "pitch": 70,
                "velocity": 80,
                "duration": 0.1363636363636367,
                "tempo": 120.0
            },
            {
                "start_time": 15.995454545454544,
                "end_time": 16.125,
                "pitch": 74,
                "velocity": 80,
                "duration": 0.12954545454545574,
                "tempo": 120.0
            },
            {
                "start_time": 16.15681818181818,
                "end_time": 16.304545454545455,
                "pitch": 79,
                "velocity": 80,
                "duration": 0.14772727272727337,
                "tempo": 120.0
            },
            {
                "start_time": 16.320454545454545,
                "end_time": 16.470454545454544,
                "pitch": 67,
                "velocity": 80,
                "duration": 0.14999999999999858,
                "tempo": 120.0
            },
            {
                "start_time": 16.486363636363635,
                "end_time": 16.638636363636362,
                "pitch": 70,
                "velocity": 80,
                "duration": 0.15227272727272734,
                "tempo": 120.0
            },
            {
                "start_time": 16.670454545454543,
                "end_time": 16.804545454545455,
                "pitch": 74,
                "velocity": 80,
                "duration": 0.13409090909091148,
                "tempo": 120.0
            },
            {
                "start_time": 16.83863636363636,
                "end_time": 16.972727272727273,
                "pitch": 79,
                "velocity": 80,
                "duration": 0.13409090909091148,
                "tempo": 120.0
            },
            {
                "start_time": 17.006818181818183,
                "end_time": 17.14090909090909,
                "pitch": 67,
                "velocity": 80,
                "duration": 0.13409090909090793,
                "tempo": 120.0
            },
            {
                "start_time": 17.175,
                "end_time": 17.325,
                "pitch": 70,
                "velocity": 80,
                "duration": 0.14999999999999858,
                "tempo": 120.0
            },
            {
                "start_time": 17.34090909090909,
                "end_time": 17.486363636363635,
                "pitch": 74,
                "velocity": 80,
                "duration": 0.14545454545454461,
                "tempo": 120.0
            },
            {
                "start_time": 17.504545454545454,
                "end_time": 17.65,
                "pitch": 79,
                "velocity": 80,
                "duration": 0.14545454545454461,
                "tempo": 120.0
            },
            {
                "start_time": 17.68409090909091,
                "end_time": 17.820454545454545,
                "pitch": 67,
                "velocity": 80,
                "duration": 0.1363636363636367,
                "tempo": 120.0
            },
            {
                "start_time": 17.854545454545455,
                "end_time": 17.993181818181817,
                "pitch": 70,
                "velocity": 80,
                "duration": 0.1386363636363619,
                "tempo": 120.0
            },
            {
                "start_time": 18.027272727272727,
                "end_time": 18.161363636363635,
                "pitch": 74,
                "velocity": 80,
                "duration": 0.13409090909090793,
                "tempo": 120.0
            },
            {
                "start_time": 18.195454545454545,
                "end_time": 18.345454545454544,
                "pitch": 79,
                "velocity": 80,
                "duration": 0.14999999999999858,
                "tempo": 120.0
            },
            {
                "start_time": 18.361363636363635,
                "end_time": 18.509090909090908,
                "pitch": 67,
                "velocity": 80,
                "duration": 0.14772727272727337,
                "tempo": 120.0
            },
            {
                "start_time": 18.525,
                "end_time": 18.670454545454543,
                "pitch": 70,
                "velocity": 80,
                "duration": 0.14545454545454461,
                "tempo": 120.0
            },
            {
                "start_time": 18.704545454545453,
                "end_time": 18.84090909090909,
                "pitch": 74,
                "velocity": 80,
                "duration": 0.1363636363636367,
                "tempo": 120.0
            },
            {
                "start_time": 18.875,
                "end_time": 19.013636363636362,
                "pitch": 79,
                "velocity": 80,
                "duration": 0.1386363636363619,
                "tempo": 120.0
            },
            {
                "start_time": 19.047727272727272,
                "end_time": 19.18181818181818,
                "pitch": 67,
                "velocity": 80,
                "duration": 0.13409090909090793,
                "tempo": 120.0
            },
            {
                "start_time": 19.21590909090909,
                "end_time": 19.36590909090909,
                "pitch": 70,
                "velocity": 80,
                "duration": 0.14999999999999858,
                "tempo": 120.0
            },
            {
                "start_time": 19.384090909090908,
                "end_time": 19.529545454545453,
                "pitch": 74,
                "velocity": 80,
                "duration": 0.14545454545454461,
                "tempo": 120.0
            },
            {
                "start_time": 19.563636363636363,
                "end_time": 19.693181818181817,
                "pitch": 79,
                "velocity": 80,
                "duration": 0.12954545454545396,
                "tempo": 120.0
            },
            {
                "start_time": 19.724999999999998,
                "end_time": 19.863636363636363,
                "pitch": 67,
                "velocity": 80,
                "duration": 0.13863636363636545,
                "tempo": 120.0
            },
            {
                "start_time": 19.897727272727273,
                "end_time": 20.034090909090907,
                "pitch": 70,
                "velocity": 80,
                "duration": 0.13636363636363313,
                "tempo": 120.0
            },
            {
                "start_time": 20.070454545454545,
                "end_time": 20.21590909090909,
                "pitch": 74,
                "velocity": 80,
                "duration": 0.14545454545454461,
                "tempo": 120.0
            },
            {
                "start_time": 20.23181818181818,
                "end_time": 20.379545454545454,
                "pitch": 79,
                "velocity": 80,
                "duration": 0.14772727272727337,
                "tempo": 120.0
            },
            {
                "start_time": 20.395454545454545,
                "end_time": 20.545454545454543,
                "pitch": 67,
                "velocity": 80,
                "duration": 0.14999999999999858,
                "tempo": 120.0
            },
            {
                "start_time": 20.579545454545453,
                "end_time": 20.71363636363636,
                "pitch": 70,
                "velocity": 80,
                "duration": 0.13409090909090793,
                "tempo": 120.0
            },
            {
                "start_time": 20.74772727272727,
                "end_time": 20.884090909090908,
                "pitch": 74,
                "velocity": 80,
                "duration": 0.1363636363636367,
                "tempo": 120.0
            },
            {
                "start_time": 20.918181818181818,
                "end_time": 21.05681818181818,
                "pitch": 79,
                "velocity": 80,
                "duration": 0.1386363636363619,
                "tempo": 120.0
            },
            {
                "start_time": 21.09090909090909,
                "end_time": 21.236363636363635,
                "pitch": 67,
                "velocity": 80,
                "duration": 0.14545454545454461,
                "tempo": 120.0
            },
            {
                "start_time": 21.254545454545454,
                "end_time": 21.4,
                "pitch": 70,
                "velocity": 80,
                "duration": 0.14545454545454461,
                "tempo": 120.0
            },
            {
                "start_time": 21.41590909090909,
                "end_time": 21.56590909090909,
                "pitch": 74,
                "velocity": 80,
                "duration": 0.15000000000000213,
                "tempo": 120.0
            },
            {
                "start_time": 21.599999999999998,
                "end_time": 21.73409090909091,
                "pitch": 79,
                "velocity": 80,
                "duration": 0.13409090909091148,
                "tempo": 120.0
            },
            {
                "start_time": 21.768181818181816,
                "end_time": 21.904545454545453,
                "pitch": 62,
                "velocity": 80,
                "duration": 0.1363636363636367,
                "tempo": 120.0
            },
            {
                "start_time": 21.938636363636363,
                "end_time": 22.077272727272724,
                "pitch": 65,
                "velocity": 80,
                "duration": 0.1386363636363619,
                "tempo": 120.0
            },
            {
                "start_time": 22.111363636363635,
                "end_time": 22.259090909090908,
                "pitch": 69,
                "velocity": 80,
                "duration": 0.14772727272727337,
                "tempo": 120.0
            },
            {
                "start_time": 22.275,
                "end_time": 22.420454545454543,
                "pitch": 74,
                "velocity": 80,
                "duration": 0.14545454545454461,
                "tempo": 120.0
            },
            {
                "start_time": 22.438636363636363,
                "end_time": 22.584090909090907,
                "pitch": 62,
                "velocity": 80,
                "duration": 0.14545454545454461,
                "tempo": 120.0
            },
            {
                "start_time": 22.618181818181817,
                "end_time": 22.74772727272727,
                "pitch": 65,
                "velocity": 80,
                "duration": 0.12954545454545396,
                "tempo": 120.0
            },
            {
                "start_time": 22.779545454545453,
                "end_time": 22.918181818181818,
                "pitch": 69,
                "velocity": 80,
                "duration": 0.13863636363636545,
                "tempo": 120.0
            },
            {
                "start_time": 22.952272727272724,
                "end_time": 23.08863636363636,
                "pitch": 74,
                "velocity": 80,
                "duration": 0.1363636363636367,
                "tempo": 120.0
            },
            {
                "start_time": 23.125,
                "end_time": 23.275,
                "pitch": 62,
                "velocity": 80,
                "duration": 0.14999999999999858,
                "tempo": 120.0
            },
            {
                "start_time": 23.29090909090909,
                "end_time": 23.443181818181817,
                "pitch": 65,
                "velocity": 80,
                "duration": 0.15227272727272734,
                "tempo": 120.0
            },
            {
                "start_time": 23.459090909090907,
                "end_time": 23.604545454545452,
                "pitch": 69,
                "velocity": 80,
                "duration": 0.14545454545454461,
                "tempo": 120.0
            },
            {
                "start_time": 23.638636363636362,
                "end_time": 23.768181818181816,
                "pitch": 74,
                "velocity": 80,
                "duration": 0.12954545454545396,
                "tempo": 120.0
            },
            {
                "start_time": 23.802272727272726,
                "end_time": 23.938636363636363,
                "pitch": 62,
                "velocity": 80,
                "duration": 0.1363636363636367,
                "tempo": 120.0
            },
            {
                "start_time": 23.972727272727273,
                "end_time": 24.111363636363635,
                "pitch": 65,
                "velocity": 80,
                "duration": 0.1386363636363619,
                "tempo": 120.0
            },
            {
                "start_time": 24.145454545454545,
                "end_time": 24.295454545454543,
                "pitch": 69,
                "velocity": 80,
                "duration": 0.14999999999999858,
                "tempo": 120.0
            },
            {
                "start_time": 24.313636363636363,
                "end_time": 24.46363636363636,
                "pitch": 74,
                "velocity": 80,
                "duration": 0.14999999999999858,
                "tempo": 120.0
            },
            {
                "start_time": 24.49772727272727,
                "end_time": 24.634090909090908,
                "pitch": 62,
                "velocity": 80,
                "duration": 0.1363636363636367,
                "tempo": 120.0
            },
            {
                "start_time": 24.668181818181818,
                "end_time": 24.80681818181818,
                "pitch": 65,
                "velocity": 80,
                "duration": 0.1386363636363619,
                "tempo": 120.0
            },
            {
                "start_time": 24.84090909090909,
                "end_time": 24.972727272727273,
                "pitch": 69,
                "velocity": 80,
                "duration": 0.13181818181818272,
                "tempo": 120.0
            },
            {
                "start_time": 25.004545454545454,
                "end_time": 25.134090909090908,
                "pitch": 74,
                "velocity": 80,
                "duration": 0.12954545454545396,
                "tempo": 120.0
            },
            {
                "start_time": 25.168181818181818,
                "end_time": 25.313636363636363,
                "pitch": 62,
                "velocity": 80,
                "duration": 0.14545454545454461,
                "tempo": 120.0
            },
            {
                "start_time": 25.329545454545453,
                "end_time": 25.477272727272727,
                "pitch": 65,
                "velocity": 80,
                "duration": 0.14772727272727337,
                "tempo": 120.0
            },
            {
                "start_time": 25.509090909090908,
                "end_time": 25.645454545454545,
                "pitch": 69,
                "velocity": 80,
                "duration": 0.1363636363636367,
                "tempo": 120.0
            },
            {
                "start_time": 25.68181818181818,
                "end_time": 25.818181818181817,
                "pitch": 74,
                "velocity": 80,
                "duration": 0.1363636363636367,
                "tempo": 120.0
            },
            {
                "start_time": 25.854545454545452,
                "end_time": 25.986363636363635,
                "pitch": 62,
                "velocity": 80,
                "duration": 0.13181818181818272,
                "tempo": 120.0
            },
            {
                "start_time": 26.020454545454545,
                "end_time": 26.170454545454543,
                "pitch": 65,
                "velocity": 80,
                "duration": 0.14999999999999858,
                "tempo": 120.0
            },
            {
                "start_time": 26.188636363636363,
                "end_time": 26.334090909090907,
                "pitch": 69,
                "velocity": 80,
                "duration": 0.14545454545454461,
                "tempo": 120.0
            },
            {
                "start_time": 26.352272727272727,
                "end_time": 26.49772727272727,
                "pitch": 74,
                "velocity": 80,
                "duration": 0.14545454545454461,
                "tempo": 120.0
            },
            {
                "start_time": 26.529545454545453,
                "end_time": 26.668181818181818,
                "pitch": 62,
                "velocity": 80,
                "duration": 0.13863636363636545,
                "tempo": 120.0
            },
            {
                "start_time": 26.702272727272724,
                "end_time": 26.83863636363636,
                "pitch": 65,
                "velocity": 80,
                "duration": 0.1363636363636367,
                "tempo": 120.0
            },
            {
                "start_time": 26.875,
                "end_time": 27.004545454545454,
                "pitch": 69,
                "velocity": 80,
                "duration": 0.12954545454545396,
                "tempo": 120.0
            },
            {
                "start_time": 27.036363636363635,
                "end_time": 27.18409090909091,
                "pitch": 74,
                "velocity": 80,
                "duration": 0.14772727272727337,
                "tempo": 120.0
            },
            {
                "start_time": 27.2,
                "end_time": 27.349999999999998,
                "pitch": 62,
                "velocity": 80,
                "duration": 0.14999999999999858,
                "tempo": 120.0
            },
            {
                "start_time": 27.36590909090909,
                "end_time": 27.518181818181816,
                "pitch": 65,
                "velocity": 80,
                "duration": 0.15227272727272734,
                "tempo": 120.0
            },
            {
                "start_time": 27.552272727272726,
                "end_time": 27.688636363636363,
                "pitch": 69,
                "velocity": 80,
                "duration": 0.1363636363636367,
                "tempo": 120.0
            },
            {
                "start_time": 27.722727272727273,
                "end_time": 27.861363636363635,
                "pitch": 74,
                "velocity": 80,
                "duration": 0.1386363636363619,
                "tempo": 120.0
            },
            {
                "start_time": 27.895454545454545,
                "end_time": 28.025,
                "pitch": 62,
                "velocity": 80,
                "duration": 0.12954545454545396,
                "tempo": 120.0
            },
            {
                "start_time": 28.05909090909091,
                "end_time": 28.204545454545453,
                "pitch": 65,
                "velocity": 80,
                "duration": 0.14545454545454461,
                "tempo": 120.0
            },
            {
                "start_time": 28.220454545454544,
                "end_time": 28.370454545454542,
                "pitch": 69,
                "velocity": 80,
                "duration": 0.14999999999999858,
                "tempo": 120.0
            },
            {
                "start_time": 28.388636363636362,
                "end_time": 28.538636363636364,
                "pitch": 74,
                "velocity": 80,
                "duration": 0.15000000000000213,
                "tempo": 120.0
            },
            {
                "start_time": 28.57272727272727,
                "end_time": 28.709090909090907,
                "pitch": 62,
                "velocity": 80,
                "duration": 0.1363636363636367,
                "tempo": 120.0
            },
            {
                "start_time": 28.745454545454542,
                "end_time": 28.88181818181818,
                "pitch": 65,
                "velocity": 80,
                "duration": 0.1363636363636367,
                "tempo": 120.0
            },
            {
                "start_time": 28.918181818181818,
                "end_time": 29.047727272727272,
                "pitch": 69,
                "velocity": 80,
                "duration": 0.12954545454545396,
                "tempo": 120.0
            },
            {
                "start_time": 29.079545454545453,
                "end_time": 29.227272727272727,
                "pitch": 74,
                "velocity": 80,
                "duration": 0.14772727272727337,
                "tempo": 120.0
            },
            {
                "start_time": 29.243181818181817,
                "end_time": 29.393181818181816,
                "pitch": 62,
                "velocity": 80,
                "duration": 0.14999999999999858,
                "tempo": 120.0
            },
            {
                "start_time": 29.409090909090907,
                "end_time": 29.55909090909091,
                "pitch": 65,
                "velocity": 80,
                "duration": 0.15000000000000213,
                "tempo": 120.0
            },
            {
                "start_time": 29.593181818181815,
                "end_time": 29.727272727272727,
                "pitch": 69,
                "velocity": 80,
                "duration": 0.13409090909091148,
                "tempo": 120.0
            },
            {
                "start_time": 29.761363636363637,
                "end_time": 29.895454545454545,
                "pitch": 74,
                "velocity": 80,
                "duration": 0.13409090909090793,
                "tempo": 120.0
            },
            {
                "start_time": 29.929545454545455,
                "end_time": 30.061363636363634,
                "pitch": 62,
                "velocity": 80,
                "duration": 0.13181818181817917,
                "tempo": 120.0
            },
            {
                "start_time": 30.095454545454544,
                "end_time": 30.245454545454542,
                "pitch": 65,
                "velocity": 80,
                "duration": 0.14999999999999858,
                "tempo": 120.0
            },
            {
                "start_time": 30.263636363636362,
                "end_time": 30.409090909090907,
                "pitch": 69,
                "velocity": 80,
                "duration": 0.14545454545454461,
                "tempo": 120.0
            },
            {
                "start_time": 30.443181818181817,
                "end_time": 30.57272727272727,
                "pitch": 74,
                "velocity": 80,
                "duration": 0.12954545454545396,
                "tempo": 120.0
            },
            {
                "start_time": 30.604545454545452,
                "end_time": 30.743181818181817,
                "pitch": 62,
                "velocity": 80,
                "duration": 0.13863636363636545,
                "tempo": 120.0
            },
            {
                "start_time": 30.777272727272727,
                "end_time": 30.91590909090909,
                "pitch": 65,
                "velocity": 80,
                "duration": 0.1386363636363619,
                "tempo": 120.0
            },
            {
                "start_time": 30.95,
                "end_time": 31.099999999999998,
                "pitch": 69,
                "velocity": 80,
                "duration": 0.14999999999999858,
                "tempo": 120.0
            },
            {
                "start_time": 31.118181818181817,
                "end_time": 31.268181818181816,
                "pitch": 74,
                "velocity": 80,
                "duration": 0.14999999999999858,
                "tempo": 120.0
            },
            {
                "start_time": 31.284090909090907,
                "end_time": 31.43181818181818,
                "pitch": 62,
                "velocity": 80,
                "duration": 0.14772727272727337,
                "tempo": 120.0
            },
            {
                "start_time": 31.46363636363636,
                "end_time": 31.593181818181815,
                "pitch": 65,
                "velocity": 80,
                "duration": 0.12954545454545396,
                "tempo": 120.0
            },
            {
                "start_time": 31.627272727272725,
                "end_time": 31.763636363636362,
                "pitch": 69,
                "velocity": 80,
                "duration": 0.1363636363636367,
                "tempo": 120.0
            },
            {
                "start_time": 31.797727272727272,
                "end_time": 31.936363636363634,
                "pitch": 74,
                "velocity": 80,
                "duration": 0.1386363636363619,
                "tempo": 120.0
            },
            {
                "start_time": 31.970454545454544,
                "end_time": 32.11818181818182,
                "pitch": 62,
                "velocity": 80,
                "duration": 0.14772727272727337,
                "tempo": 120.0
            },
            {
                "start_time": 32.13409090909091,
                "end_time": 32.279545454545456,
                "pitch": 65,
                "velocity": 80,
                "duration": 0.14545454545454817,
                "tempo": 120.0
            },
            {
                "start_time": 32.29545454545455,
                "end_time": 32.445454545454545,
                "pitch": 69,
                "velocity": 80,
                "duration": 0.14999999999999858,
                "tempo": 120.0
            },
            {
                "start_time": 32.47954545454545,
                "end_time": 32.61363636363636,
                "pitch": 74,
                "velocity": 80,
                "duration": 0.13409090909090793,
                "tempo": 120.0
            },
            {
                "start_time": 32.64772727272727,
                "end_time": 32.78409090909091,
                "pitch": 67,
                "velocity": 80,
                "duration": 0.13636363636363313,
                "tempo": 120.0
            },
            {
                "start_time": 32.820454545454545,
                "end_time": 32.95681818181818,
                "pitch": 70,
                "velocity": 80,
                "duration": 0.13636363636363313,
                "tempo": 120.0
            },
            {
                "start_time": 32.99090909090909,
                "end_time": 33.138636363636365,
                "pitch": 74,
                "velocity": 80,
                "duration": 0.14772727272727337,
                "tempo": 120.0
            },
            {
                "start_time": 33.154545454545456,
                "end_time": 33.3,
                "pitch": 79,
                "velocity": 80,
                "duration": 0.14545454545454106,
                "tempo": 120.0
            },
            {
                "start_time": 33.31818181818181,
                "end_time": 33.46818181818182,
                "pitch": 67,
                "velocity": 80,
                "duration": 0.15000000000000568,
                "tempo": 120.0
            },
            {
                "start_time": 33.502272727272725,
                "end_time": 33.63409090909091,
                "pitch": 70,
                "velocity": 80,
                "duration": 0.13181818181818272,
                "tempo": 120.0
            },
            {
                "start_time": 33.668181818181814,
                "end_time": 33.80681818181818,
                "pitch": 74,
                "velocity": 80,
                "duration": 0.13863636363636545,
                "tempo": 120.0
            },
            {
                "start_time": 33.840909090909086,
                "end_time": 33.97727272727273,
                "pitch": 79,
                "velocity": 80,
                "duration": 0.13636363636364024,
                "tempo": 120.0
            },
            {
                "start_time": 34.013636363636365,
                "end_time": 34.15909090909091,
                "pitch": 67,
                "velocity": 80,
                "duration": 0.14545454545454106,
                "tempo": 120.0
            },
            {
                "start_time": 34.17727272727272,
                "end_time": 34.32272727272727,
                "pitch": 70,
                "velocity": 80,
                "duration": 0.14545454545454817,
                "tempo": 120.0
            },
            {
                "start_time": 34.33863636363636,
                "end_time": 34.48863636363636,
                "pitch": 74,
                "velocity": 80,
                "duration": 0.14999999999999858,
                "tempo": 120.0
            },
            {
                "start_time": 34.52272727272727,
                "end_time": 34.65681818181818,
                "pitch": 79,
                "velocity": 80,
                "duration": 0.13409090909090793,
                "tempo": 120.0
            },
            {
                "start_time": 34.69090909090909,
                "end_time": 34.82272727272727,
                "pitch": 67,
                "velocity": 80,
                "duration": 0.13181818181818272,
                "tempo": 120.0
            },
            {
                "start_time": 34.85681818181818,
                "end_time": 34.99090909090909,
                "pitch": 70,
                "velocity": 80,
                "duration": 0.13409090909091503,
                "tempo": 120.0
            },
            {
                "start_time": 35.025,
                "end_time": 35.175,
                "pitch": 74,
                "velocity": 80,
                "duration": 0.14999999999999858,
                "tempo": 120.0
            },
            {
                "start_time": 35.19090909090909,
                "end_time": 35.34318181818182,
                "pitch": 79,
                "velocity": 80,
                "duration": 0.1522727272727309,
                "tempo": 120.0
            },
            {
                "start_time": 35.377272727272725,
                "end_time": 35.513636363636365,
                "pitch": 67,
                "velocity": 80,
                "duration": 0.13636363636364024,
                "tempo": 120.0
            },
            {
                "start_time": 35.54772727272727,
                "end_time": 35.68636363636364,
                "pitch": 70,
                "velocity": 80,
                "duration": 0.13863636363636545,
                "tempo": 120.0
            },
            {
                "start_time": 35.720454545454544,
                "end_time": 35.85,
                "pitch": 74,
                "velocity": 80,
                "duration": 0.12954545454545752,
                "tempo": 120.0
            },
            {
                "start_time": 35.88409090909091,
                "end_time": 36.029545454545456,
                "pitch": 79,
                "velocity": 80,
                "duration": 0.14545454545454817,
                "tempo": 120.0
            },
            {
                "start_time": 36.04545454545455,
                "end_time": 36.195454545454545,
                "pitch": 67,
                "velocity": 80,
                "duration": 0.14999999999999858,
                "tempo": 120.0
            },
            {
                "start_time": 36.21363636363636,
                "end_time": 36.36363636363636,
                "pitch": 70,
                "velocity": 80,
                "duration": 0.14999999999999858,
                "tempo": 120.0
            },
            {
                "start_time": 36.39772727272727,
                "end_time": 36.53409090909091,
                "pitch": 74,
                "velocity": 80,
                "duration": 0.13636363636363313,
                "tempo": 120.0
            },
            {
                "start_time": 36.570454545454545,
                "end_time": 36.70681818181818,
                "pitch": 79,
                "velocity": 80,
                "duration": 0.13636363636363313,
                "tempo": 120.0
            },
            {
                "start_time": 36.74318181818182,
                "end_time": 36.87272727272727,
                "pitch": 67,
                "velocity": 80,
                "duration": 0.1295454545454504,
                "tempo": 120.0
            },
            {
                "start_time": 36.904545454545456,
                "end_time": 37.05,
                "pitch": 70,
                "velocity": 80,
                "duration": 0.14545454545454106,
                "tempo": 120.0
            },
            {
                "start_time": 37.06818181818181,
                "end_time": 37.21818181818182,
                "pitch": 74,
                "velocity": 80,
                "duration": 0.15000000000000568,
                "tempo": 120.0
            },
            {
                "start_time": 37.23409090909091,
                "end_time": 37.38409090909091,
                "pitch": 79,
                "velocity": 80,
                "duration": 0.14999999999999858,
                "tempo": 120.0
            },
            {
                "start_time": 37.418181818181814,
                "end_time": 37.55227272727272,
                "pitch": 67,
                "velocity": 80,
                "duration": 0.13409090909090793,
                "tempo": 120.0
            },
            {
                "start_time": 37.586363636363636,
                "end_time": 37.720454545454544,
                "pitch": 70,
                "velocity": 80,
                "duration": 0.13409090909090793,
                "tempo": 120.0
            },
            {
                "start_time": 37.752272727272725,
                "end_time": 37.88636363636363,
                "pitch": 74,
                "velocity": 80,
                "duration": 0.13409090909090793,
                "tempo": 120.0
            },
            {
                "start_time": 37.92045454545455,
                "end_time": 38.070454545454545,
                "pitch": 79,
                "velocity": 80,
                "duration": 0.14999999999999858,
                "tempo": 120.0
            },
            {
                "start_time": 38.08863636363636,
                "end_time": 38.23409090909091,
                "pitch": 67,
                "velocity": 80,
                "duration": 0.14545454545454817,
                "tempo": 120.0
            },
            {
                "start_time": 38.25,
                "end_time": 38.39772727272727,
                "pitch": 70,
                "velocity": 80,
                "duration": 0.14772727272727337,
                "tempo": 120.0
            },
            {
                "start_time": 38.429545454545455,
                "end_time": 38.56818181818181,
                "pitch": 74,
                "velocity": 80,
                "duration": 0.13863636363635834,
                "tempo": 120.0
            },
            {
                "start_time": 38.60227272727273,
                "end_time": 38.73863636363636,
                "pitch": 79,
                "velocity": 80,
                "duration": 0.13636363636363313,
                "tempo": 120.0
            },
            {
                "start_time": 38.775,
                "end_time": 38.90909090909091,
                "pitch": 67,
                "velocity": 80,
                "duration": 0.13409090909090793,
                "tempo": 120.0
            },
            {
                "start_time": 38.94318181818181,
                "end_time": 39.09318181818182,
                "pitch": 70,
                "velocity": 80,
                "duration": 0.15000000000000568,
                "tempo": 120.0
            },
            {
                "start_time": 39.10909090909091,
                "end_time": 39.25681818181818,
                "pitch": 74,
                "velocity": 80,
                "duration": 0.14772727272727337,
                "tempo": 120.0
            },
            {
                "start_time": 39.27272727272727,
                "end_time": 39.418181818181814,
                "pitch": 79,
                "velocity": 80,
                "duration": 0.14545454545454106,
                "tempo": 120.0
            },
            {
                "start_time": 39.45227272727273,
                "end_time": 39.58863636363636,
                "pitch": 67,
                "velocity": 80,
                "duration": 0.13636363636363313,
                "tempo": 120.0
            },
            {
                "start_time": 39.62272727272727,
                "end_time": 39.76136363636363,
                "pitch": 70,
                "velocity": 80,
                "duration": 0.13863636363636545,
                "tempo": 120.0
            },
            {
                "start_time": 39.79545454545455,
                "end_time": 39.925,
                "pitch": 74,
                "velocity": 80,
                "duration": 0.1295454545454504,
                "tempo": 120.0
            },
            {
                "start_time": 39.959090909090904,
                "end_time": 40.10454545454545,
                "pitch": 79,
                "velocity": 80,
                "duration": 0.14545454545454817,
                "tempo": 120.0
            },
            {
                "start_time": 40.12045454545454,
                "end_time": 40.27045454545454,
                "pitch": 67,
                "velocity": 80,
                "duration": 0.14999999999999858,
                "tempo": 120.0
            },
            {
                "start_time": 40.304545454545455,
                "end_time": 40.43863636363636,
                "pitch": 70,
                "velocity": 80,
                "duration": 0.13409090909090793,
                "tempo": 120.0
            },
            {
                "start_time": 40.47272727272727,
                "end_time": 40.60909090909091,
                "pitch": 74,
                "velocity": 80,
                "duration": 0.13636363636364024,
                "tempo": 120.0
            },
            {
                "start_time": 40.64545454545454,
                "end_time": 40.78181818181818,
                "pitch": 79,
                "velocity": 80,
                "duration": 0.13636363636364024,
                "tempo": 120.0
            },
            {
                "start_time": 40.81818181818181,
                "end_time": 40.96363636363636,
                "pitch": 67,
                "velocity": 80,
                "duration": 0.14545454545454817,
                "tempo": 120.0
            },
            {
                "start_time": 40.97954545454545,
                "end_time": 41.125,
                "pitch": 70,
                "velocity": 80,
                "duration": 0.14545454545454817,
                "tempo": 120.0
            },
            {
                "start_time": 41.143181818181816,
                "end_time": 41.293181818181814,
                "pitch": 74,
                "velocity": 80,
                "duration": 0.14999999999999858,
                "tempo": 120.0
            },
            {
                "start_time": 41.32727272727273,
                "end_time": 41.459090909090904,
                "pitch": 79,
                "velocity": 80,
                "duration": 0.13181818181817562,
                "tempo": 120.0
            },
            {
                "start_time": 41.49318181818182,
                "end_time": 41.63181818181818,
                "pitch": 67,
                "velocity": 80,
                "duration": 0.13863636363636545,
                "tempo": 120.0
            },
            {
                "start_time": 41.66590909090909,
                "end_time": 41.80227272727272,
                "pitch": 70,
                "velocity": 80,
                "duration": 0.13636363636363313,
                "tempo": 120.0
            },
            {
                "start_time": 41.83863636363636,
                "end_time": 41.98409090909091,
                "pitch": 74,
                "velocity": 80,
                "duration": 0.14545454545454817,
                "tempo": 120.0
            },
            {
                "start_time": 42.002272727272725,
                "end_time": 42.14772727272727,
                "pitch": 79,
                "velocity": 80,
                "duration": 0.14545454545454817,
                "tempo": 120.0
            },
            {
                "start_time": 42.163636363636364,
                "end_time": 42.31363636363636,
                "pitch": 67,
                "velocity": 80,
                "duration": 0.14999999999999858,
                "tempo": 120.0
            },
            {
                "start_time": 42.34772727272727,
                "end_time": 42.48181818181818,
                "pitch": 70,
                "velocity": 80,
                "duration": 0.13409090909090793,
                "tempo": 120.0
            },
            {
                "start_time": 42.51590909090909,
                "end_time": 42.64772727272727,
                "pitch": 74,
                "velocity": 80,
                "duration": 0.13181818181818272,
                "tempo": 120.0
            },
            {
                "start_time": 42.68181818181818,
                "end_time": 42.81590909090909,
                "pitch": 79,
                "velocity": 80,
                "duration": 0.13409090909090793,
                "tempo": 120.0
            },
            {
                "start_time": 42.85,
                "end_time": 43.0,
                "pitch": 67,
                "velocity": 80,
                "duration": 0.14999999999999858,
                "tempo": 120.0
            },
            {
                "start_time": 43.01590909090909,
                "end_time": 43.168181818181814,
                "pitch": 70,
                "velocity": 80,
                "duration": 0.15227272727272378,
                "tempo": 120.0
            },
            {
                "start_time": 43.184090909090905,
                "end_time": 43.32954545454545,
                "pitch": 74,
                "velocity": 80,
                "duration": 0.14545454545454817,
                "tempo": 120.0
            },
            {
                "start_time": 43.36363636363636,
                "end_time": 43.49318181818182,
                "pitch": 79,
                "velocity": 80,
                "duration": 0.12954545454545752,
                "tempo": 120.0
            },
            {
                "start_time": 43.527272727272724,
                "end_time": 43.663636363636364,
                "pitch": 62,
                "velocity": 80,
                "duration": 0.13636363636364024,
                "tempo": 120.0
            },
            {
                "start_time": 43.69772727272727,
                "end_time": 43.836363636363636,
                "pitch": 65,
                "velocity": 80,
                "duration": 0.13863636363636545,
                "tempo": 120.0
            },
            {
                "start_time": 43.87045454545454,
                "end_time": 44.02045454545454,
                "pitch": 69,
                "velocity": 80,
                "duration": 0.14999999999999858,
                "tempo": 120.0
            },
            {
                "start_time": 44.038636363636364,
                "end_time": 44.18863636363636,
                "pitch": 74,
                "velocity": 80,
                "duration": 0.14999999999999858,
                "tempo": 120.0
            },
            {
                "start_time": 44.20681818181818,
                "end_time": 44.35227272727273,
                "pitch": 62,
                "velocity": 80,
                "duration": 0.14545454545454817,
                "tempo": 120.0
            },
            {
                "start_time": 44.38409090909091,
                "end_time": 44.51590909090909,
                "pitch": 65,
                "velocity": 80,
                "duration": 0.13181818181818272,
                "tempo": 120.0
            },
            {
                "start_time": 44.54772727272727,
                "end_time": 44.684090909090905,
                "pitch": 69,
                "velocity": 80,
                "duration": 0.13636363636363313,
                "tempo": 120.0
            },
            {
                "start_time": 44.720454545454544,
                "end_time": 44.85681818181818,
                "pitch": 74,
                "velocity": 80,
                "duration": 0.13636363636363313,
                "tempo": 120.0
            },
            {
                "start_time": 44.893181818181816,
                "end_time": 45.043181818181814,
                "pitch": 62,
                "velocity": 80,
                "duration": 0.14999999999999858,
                "tempo": 120.0
            },
            {
                "start_time": 45.059090909090905,
                "end_time": 45.209090909090904,
                "pitch": 65,
                "velocity": 80,
                "duration": 0.14999999999999858,
                "tempo": 120.0
            },
            {
                "start_time": 45.24318181818182,
                "end_time": 45.377272727272725,
                "pitch": 69,
                "velocity": 80,
                "duration": 0.13409090909090793,
                "tempo": 120.0
            },
            {
                "start_time": 45.41136363636363,
                "end_time": 45.54545454545455,
                "pitch": 74,
                "velocity": 80,
                "duration": 0.13409090909091503,
                "tempo": 120.0
            },
            {
                "start_time": 45.57954545454545,
                "end_time": 45.711363636363636,
                "pitch": 62,
                "velocity": 80,
                "duration": 0.13181818181818272,
                "tempo": 120.0
            },
            {
                "start_time": 45.74545454545454,
                "end_time": 45.89545454545454,
                "pitch": 65,
                "velocity": 80,
                "duration": 0.14999999999999858,
                "tempo": 120.0
            },
            {
                "start_time": 45.913636363636364,
                "end_time": 46.059090909090905,
                "pitch": 69,
                "velocity": 80,
                "duration": 0.14545454545454106,
                "tempo": 120.0
            },
            {
                "start_time": 46.07727272727273,
                "end_time": 46.22272727272727,
                "pitch": 74,
                "velocity": 80,
                "duration": 0.14545454545454106,
                "tempo": 120.0
            },
            {
                "start_time": 46.25454545454545,
                "end_time": 46.393181818181816,
                "pitch": 62,
                "velocity": 80,
                "duration": 0.13863636363636545,
                "tempo": 120.0
            },
            {
                "start_time": 46.42727272727272,
                "end_time": 46.56363636363636,
                "pitch": 65,
                "velocity": 80,
                "duration": 0.13636363636364024,
                "tempo": 120.0
            },
            {
                "start_time": 46.599999999999994,
                "end_time": 46.73409090909091,
                "pitch": 69,
                "velocity": 80,
                "duration": 0.13409090909091503,
                "tempo": 120.0
            },
            {
                "start_time": 46.768181818181816,
                "end_time": 46.918181818181814,
                "pitch": 74,
                "velocity": 80,
                "duration": 0.14999999999999858,
                "tempo": 120.0
            },
            {
                "start_time": 46.934090909090905,
                "end_time": 47.08181818181818,
                "pitch": 62,
                "velocity": 80,
                "duration": 0.14772727272727337,
                "tempo": 120.0
            },
            {
                "start_time": 47.09772727272727,
                "end_time": 47.24318181818182,
                "pitch": 65,
                "velocity": 80,
                "duration": 0.14545454545454817,
                "tempo": 120.0
            },
            {
                "start_time": 47.277272727272724,
                "end_time": 47.413636363636364,
                "pitch": 69,
                "velocity": 80,
                "duration": 0.13636363636364024,
                "tempo": 120.0
            },
            {
                "start_time": 47.44772727272727,
                "end_time": 47.586363636363636,
                "pitch": 74,
                "velocity": 80,
                "duration": 0.13863636363636545,
                "tempo": 120.0
            },
            {
                "start_time": 47.62045454545454,
                "end_time": 47.75454545454545,
                "pitch": 62,
                "velocity": 80,
                "duration": 0.13409090909090793,
                "tempo": 120.0
            },
            {
                "start_time": 47.788636363636364,
                "end_time": 47.93863636363636,
                "pitch": 65,
                "velocity": 80,
                "duration": 0.14999999999999858,
                "tempo": 120.0
            },
            {
                "start_time": 47.95681818181818,
                "end_time": 48.10227272727273,
                "pitch": 69,
                "velocity": 80,
                "duration": 0.14545454545454817,
                "tempo": 120.0
            },
            {
                "start_time": 48.12045454545454,
                "end_time": 48.26590909090909,
                "pitch": 74,
                "velocity": 80,
                "duration": 0.14545454545454817,
                "tempo": 120.0
            },
            {
                "start_time": 48.29772727272727,
                "end_time": 48.434090909090905,
                "pitch": 62,
                "velocity": 80,
                "duration": 0.13636363636363313,
                "tempo": 120.0
            },
            {
                "start_time": 48.470454545454544,
                "end_time": 48.60681818181818,
                "pitch": 65,
                "velocity": 80,
                "duration": 0.13636363636363313,
                "tempo": 120.0
            },
            {
                "start_time": 48.64090909090909,
                "end_time": 48.77272727272727,
                "pitch": 69,
                "velocity": 80,
                "duration": 0.13181818181818272,
                "tempo": 120.0
            },
            {
                "start_time": 48.804545454545455,
                "end_time": 48.949999999999996,
                "pitch": 74,
                "velocity": 80,
                "duration": 0.14545454545454106,
                "tempo": 120.0
            },
            {
                "start_time": 48.96818181818182,
                "end_time": 49.11818181818182,
                "pitch": 62,
                "velocity": 80,
                "duration": 0.14999999999999858,
                "tempo": 120.0
            },
            {
                "start_time": 49.13409090909091,
                "end_time": 49.28409090909091,
                "pitch": 65,
                "velocity": 80,
                "duration": 0.14999999999999858,
                "tempo": 120.0
            },
            {
                "start_time": 49.31818181818181,
                "end_time": 49.45681818181818,
                "pitch": 69,
                "velocity": 80,
                "duration": 0.13863636363636545,
                "tempo": 120.0
            },
            {
                "start_time": 49.490909090909085,
                "end_time": 49.627272727272725,
                "pitch": 74,
                "velocity": 80,
                "duration": 0.13636363636364024,
                "tempo": 120.0
            },
            {
                "start_time": 49.663636363636364,
                "end_time": 49.793181818181814,
                "pitch": 62,
                "velocity": 80,
                "duration": 0.1295454545454504,
                "tempo": 120.0
            },
            {
                "start_time": 49.82727272727273,
                "end_time": 49.97272727272727,
                "pitch": 65,
                "velocity": 80,
                "duration": 0.14545454545454106,
                "tempo": 120.0
            },
            {
                "start_time": 49.98863636363636,
                "end_time": 50.13863636363636,
                "pitch": 69,
                "velocity": 80,
                "duration": 0.14999999999999858,
                "tempo": 120.0
            },
            {
                "start_time": 50.17272727272727,
                "end_time": 50.30681818181818,
                "pitch": 74,
                "velocity": 80,
                "duration": 0.13409090909090793,
                "tempo": 120.0
            },
            {
                "start_time": 50.340909090909086,
                "end_time": 50.47727272727273,
                "pitch": 62,
                "velocity": 80,
                "duration": 0.13636363636364024,
                "tempo": 120.0
            },
            {
                "start_time": 50.51136363636363,
                "end_time": 50.65,
                "pitch": 65,
                "velocity": 80,
                "duration": 0.13863636363636545,
                "tempo": 120.0
            },
            {
                "start_time": 50.684090909090905,
                "end_time": 50.81363636363636,
                "pitch": 69,
                "velocity": 80,
                "duration": 0.12954545454545752,
                "tempo": 120.0
            },
            {
                "start_time": 50.84772727272727,
                "end_time": 50.99318181818182,
                "pitch": 74,
                "velocity": 80,
                "duration": 0.14545454545454817,
                "tempo": 120.0
            },
            {
                "start_time": 51.01136363636363,
                "end_time": 51.15681818181818,
                "pitch": 62,
                "velocity": 80,
                "duration": 0.14545454545454817,
                "tempo": 120.0
            },
            {
                "start_time": 51.18863636363636,
                "end_time": 51.31818181818181,
                "pitch": 65,
                "velocity": 80,
                "duration": 0.1295454545454504,
                "tempo": 120.0
            },
            {
                "start_time": 51.35227272727273,
                "end_time": 51.48863636363636,
                "pitch": 69,
                "velocity": 80,
                "duration": 0.13636363636363313,
                "tempo": 120.0
            },
            {
                "start_time": 51.525,
                "end_time": 51.66136363636363,
                "pitch": 74,
                "velocity": 80,
                "duration": 0.13636363636363313,
                "tempo": 120.0
            },
            {
                "start_time": 51.695454545454545,
                "end_time": 51.84772727272727,
                "pitch": 62,
                "velocity": 80,
                "duration": 0.15227272727272378,
                "tempo": 120.0
            },
            {
                "start_time": 51.86363636363636,
                "end_time": 52.01363636363636,
                "pitch": 65,
                "velocity": 80,
                "duration": 0.14999999999999858,
                "tempo": 120.0
            },
            {
                "start_time": 52.03181818181818,
                "end_time": 52.17727272727272,
                "pitch": 69,
                "velocity": 80,
                "duration": 0.14545454545454106,
                "tempo": 120.0
            },
            {
                "start_time": 52.211363636363636,
                "end_time": 52.340909090909086,
                "pitch": 74,
                "velocity": 80,
                "duration": 0.1295454545454504,
                "tempo": 120.0
            },
            {
                "start_time": 52.37272727272727,
                "end_time": 52.51136363636363,
                "pitch": 62,
                "velocity": 80,
                "duration": 0.13863636363636545,
                "tempo": 120.0
            },
            {
                "start_time": 52.54545454545454,
                "end_time": 52.68181818181818,
                "pitch": 65,
                "velocity": 80,
                "duration": 0.13636363636364024,
                "tempo": 120.0
            },
            {
                "start_time": 52.71818181818182,
                "end_time": 52.86818181818182,
                "pitch": 69,
                "velocity": 80,
                "duration": 0.14999999999999858,
                "tempo": 120.0
            },
            {
                "start_time": 52.88636363636363,
                "end_time": 53.03636363636363,
                "pitch": 74,
                "velocity": 80,
                "duration": 0.14999999999999858,
                "tempo": 120.0
            },
            {
                "start_time": 53.05227272727272,
                "end_time": 53.19772727272727,
                "pitch": 62,
                "velocity": 80,
                "duration": 0.14545454545454817,
                "tempo": 120.0
            },
            {
                "start_time": 53.23181818181818,
                "end_time": 53.361363636363635,
                "pitch": 65,
                "velocity": 80,
                "duration": 0.12954545454545752,
                "tempo": 120.0
            },
            {
                "start_time": 53.39545454545454,
                "end_time": 53.53181818181818,
                "pitch": 69,
                "velocity": 80,
                "duration": 0.13636363636364024,
                "tempo": 120.0
            },
            {
                "start_time": 53.56590909090909,
                "end_time": 53.70454545454545,
                "pitch": 74,
                "velocity": 80,
                "duration": 0.13863636363636545,
                "tempo": 120.0
            },
            {
                "start_time": 53.73863636363636,
                "end_time": 53.88409090909091,
                "pitch": 62,
                "velocity": 80,
                "duration": 0.14545454545454817,
                "tempo": 120.0
            },
            {
                "start_time": 53.902272727272724,
                "end_time": 54.04772727272727,
                "pitch": 65,
                "velocity": 80,
                "duration": 0.14545454545454817,
                "tempo": 120.0
            },
            {
                "start_time": 54.06363636363636,
                "end_time": 54.21363636363636,
                "pitch": 69,
                "velocity": 80,
                "duration": 0.14999999999999858,
                "tempo": 120.0
            },
            {
                "start_time": 54.24772727272727,
                "end_time": 54.38181818181818,
                "pitch": 74,
                "velocity": 80,
                "duration": 0.13409090909091503,
                "tempo": 120.0
            },
            {
                "start_time": 89.79318181818181,
                "end_time": 89.92954545454545,
                "pitch": 67,
                "velocity": 80,
                "duration": 0.13636363636364024,
                "tempo": 120.0
            }
        ],
        "Flute": [
            {
                "start_time": 76.19545454545454,
                "end_time": 76.83636363636363,
                "pitch": 79,
                "velocity": 64,
                "duration": 0.6409090909090907,
                "tempo": 120.0
            },
            {
                "start_time": 76.87045454545454,
                "end_time": 77.00681818181818,
                "pitch": 79,
                "velocity": 64,
                "duration": 0.13636363636364024,
                "tempo": 120.0
            },
            {
                "start_time": 77.04318181818182,
                "end_time": 77.17954545454545,
                "pitch": 74,
                "velocity": 64,
                "duration": 0.13636363636362603,
                "tempo": 120.0
            },
            {
                "start_time": 77.2159090909091,
                "end_time": 77.34545454545454,
                "pitch": 79,
                "velocity": 64,
                "duration": 0.1295454545454504,
                "tempo": 120.0
            },
            {
                "start_time": 77.37727272727273,
                "end_time": 77.52499999999999,
                "pitch": 82,
                "velocity": 64,
                "duration": 0.14772727272726627,
                "tempo": 120.0
            },
            {
                "start_time": 77.54090909090908,
                "end_time": 78.20227272727273,
                "pitch": 79,
                "velocity": 64,
                "duration": 0.6613636363636459,
                "tempo": 120.0
            },
            {
                "start_time": 78.23636363636363,
                "end_time": 78.36590909090908,
                "pitch": 79,
                "velocity": 64,
                "duration": 0.1295454545454504,
                "tempo": 120.0
            },
            {
                "start_time": 78.39999999999999,
                "end_time": 78.54545454545455,
                "pitch": 74,
                "velocity": 64,
                "duration": 0.14545454545455527,
                "tempo": 120.0
            },
            {
                "start_time": 78.56136363636364,
                "end_time": 78.71136363636363,
                "pitch": 79,
                "velocity": 64,
                "duration": 0.14999999999999147,
                "tempo": 120.0
            },
            {
                "start_time": 78.72954545454544,
                "end_time": 78.87954545454545,
                "pitch": 82,
                "velocity": 64,
                "duration": 0.15000000000000568,
                "tempo": 120.0
            },
            {
                "start_time": 78.91363636363636,
                "end_time": 79.56590909090909,
                "pitch": 79,
                "velocity": 64,
                "duration": 0.6522727272727309,
                "tempo": 120.0
            },
            {
                "start_time": 79.5840909090909,
                "end_time": 79.72954545454544,
                "pitch": 79,
                "velocity": 64,
                "duration": 0.14545454545454106,
                "tempo": 120.0
            },
            {
                "start_time": 79.74545454545454,
                "end_time": 79.89318181818182,
                "pitch": 74,
                "velocity": 64,
                "duration": 0.14772727272728048,
                "tempo": 120.0
            },
            {
                "start_time": 79.925,
                "end_time": 80.06136363636364,
                "pitch": 79,
                "velocity": 64,
                "duration": 0.13636363636364024,
                "tempo": 120.0
            },
            {
                "start_time": 80.09772727272727,
                "end_time": 80.23409090909091,
                "pitch": 82,
                "velocity": 64,
                "duration": 0.13636363636364024,
                "tempo": 120.0
            },
            {
                "start_time": 80.27045454545454,
                "end_time": 80.91363636363636,
                "pitch": 79,
                "velocity": 64,
                "duration": 0.6431818181818159,
                "tempo": 120.0
            },
            {
                "start_time": 80.94772727272726,
                "end_time": 81.0840909090909,
                "pitch": 79,
                "velocity": 64,
                "duration": 0.13636363636364024,
                "tempo": 120.0
            },
            {
                "start_time": 81.11818181818181,
                "end_time": 81.25681818181818,
                "pitch": 74,
                "velocity": 64,
                "duration": 0.13863636363636545,
                "tempo": 120.0
            },
            {
                "start_time": 81.29090909090908,
                "end_time": 81.42045454545455,
                "pitch": 79,
                "velocity": 64,
                "duration": 0.12954545454546462,
                "tempo": 120.0
            },
            {
                "start_time": 81.45454545454545,
                "end_time": 81.6,
                "pitch": 82,
                "velocity": 64,
                "duration": 0.14545454545454106,
                "tempo": 120.0
            },
            {
                "start_time": 81.61590909090908,
                "end_time": 82.27727272727272,
                "pitch": 79,
                "velocity": 64,
                "duration": 0.6613636363636317,
                "tempo": 120.0
            },
            {
                "start_time": 82.31136363636364,
                "end_time": 82.4590909090909,
                "pitch": 79,
                "velocity": 64,
                "duration": 0.14772727272726627,
                "tempo": 120.0
            },
            {
                "start_time": 82.475,
                "end_time": 82.62045454545454,
                "pitch": 74,
                "velocity": 64,
                "duration": 0.14545454545454106,
                "tempo": 120.0
            },
            {
                "start_time": 82.63863636363637,
                "end_time": 82.78636363636363,
                "pitch": 79,
                "velocity": 64,
                "duration": 0.14772727272726627,
                "tempo": 120.0
            },
            {
                "start_time": 82.82045454545454,
                "end_time": 82.95454545454545,
                "pitch": 82,
                "velocity": 64,
                "duration": 0.13409090909091503,
                "tempo": 120.0
            },
            {
                "start_time": 82.98863636363636,
                "end_time": 83.64090909090909,
                "pitch": 79,
                "velocity": 64,
                "duration": 0.6522727272727309,
                "tempo": 120.0
            },
            {
                "start_time": 83.6590909090909,
                "end_time": 83.8090909090909,
                "pitch": 79,
                "velocity": 64,
                "duration": 0.14999999999999147,
                "tempo": 120.0
            },
            {
                "start_time": 83.84318181818182,
                "end_time": 83.975,
                "pitch": 74,
                "velocity": 64,
                "duration": 0.13181818181817562,
                "tempo": 120.0
            },
            {
                "start_time": 84.0090909090909,
                "end_time": 84.14318181818182,
                "pitch": 79,
                "velocity": 64,
                "duration": 0.13409090909091503,
                "tempo": 120.0
            },
            {
                "start_time": 84.17727272727272,
                "end_time": 84.31136363636364,
                "pitch": 82,
                "velocity": 64,
                "duration": 0.13409090909091503,
                "tempo": 120.0
            },
            {
                "start_time": 84.34545454545454,
                "end_time": 84.98863636363636,
                "pitch": 79,
                "velocity": 64,
                "duration": 0.6431818181818159,
                "tempo": 120.0
            },
            {
                "start_time": 85.02045454545454,
                "end_time": 85.1590909090909,
                "pitch": 79,
                "velocity": 64,
                "duration": 0.13863636363636545,
                "tempo": 120.0
            },
            {
                "start_time": 85.19318181818181,
                "end_time": 85.32954545454545,
                "pitch": 74,
                "velocity": 64,
                "duration": 0.13636363636364024,
                "tempo": 120.0
            },
            {
                "start_time": 85.36590909090908,
                "end_time": 85.51590909090909,
                "pitch": 79,
                "velocity": 64,
                "duration": 0.15000000000000568,
                "tempo": 120.0
            },
            {
                "start_time": 85.5340909090909,
                "end_time": 85.6840909090909,
                "pitch": 82,
                "velocity": 64,
                "duration": 0.14999999999999147,
                "tempo": 120.0
            },
            {
                "start_time": 85.7,
                "end_time": 86.35227272727272,
                "pitch": 79,
                "velocity": 64,
                "duration": 0.6522727272727167,
                "tempo": 120.0
            },
            {
                "start_time": 86.38636363636363,
                "end_time": 86.53636363636363,
                "pitch": 79,
                "velocity": 64,
                "duration": 0.15000000000000568,
                "tempo": 120.0
            },
            {
                "start_time": 86.55454545454545,
                "end_time": 86.70454545454545,
                "pitch": 74,
                "velocity": 64,
                "duration": 0.15000000000000568,
                "tempo": 120.0
            },
            {
                "start_time": 86.73863636363636,
                "end_time": 86.87272727272727,
                "pitch": 79,
                "velocity": 64,
                "duration": 0.13409090909091503,
                "tempo": 120.0
            },
            {
                "start_time": 86.90681818181818,
                "end_time": 87.03863636363636,
                "pitch": 82,
                "velocity": 64,
                "duration": 0.13181818181817562,
                "tempo": 120.0
            },
            {
                "start_time": 87.07272727272726,
                "end_time": 88.40227272727272,
                "pitch": 79,
                "velocity": 64,
                "duration": 1.3295454545454533,
                "tempo": 120.0
            },
            {
                "start_time": 88.41818181818181,
                "end_time": 89.7590909090909,
                "pitch": 79,
                "velocity": 64,
                "duration": 1.3409090909090935,
                "tempo": 120.0
            }
        ],
        "Electric Guitar (clean)": [
            {
                "start_time": 0.006818181818181818,
                "end_time": 0.1340909090909091,
                "pitch": 31,
                "velocity": 51,
                "duration": 0.1272727272727273,
                "tempo": 120.0
            },
            {
                "start_time": 0.16818181818181818,
                "end_time": 0.30227272727272725,
                "pitch": 38,
                "velocity": 51,
                "duration": 0.13409090909090907,
                "tempo": 120.0
            },
            {
                "start_time": 0.33636363636363636,
                "end_time": 0.48636363636363633,
                "pitch": 43,
                "velocity": 51,
                "duration": 0.14999999999999997,
                "tempo": 120.0
            },
            {
                "start_time": 0.5022727272727272,
                "end_time": 0.8159090909090909,
                "pitch": 31,
                "velocity": 51,
                "duration": 0.3136363636363637,
                "tempo": 120.0
            },
            {
                "start_time": 0.85,
                "end_time": 0.9795454545454545,
                "pitch": 31,
                "velocity": 51,
                "duration": 0.12954545454545452,
                "tempo": 120.0
            },
            {
                "start_time": 1.0113636363636362,
                "end_time": 1.0636363636363635,
                "pitch": 31,
                "velocity": 51,
                "duration": 0.05227272727272725,
                "tempo": 120.0
            },
            {
                "start_time": 1.0977272727272727,
                "end_time": 1.15,
                "pitch": 38,
                "velocity": 51,
                "duration": 0.05227272727272725,
                "tempo": 120.0
            },
            {
                "start_time": 1.184090909090909,
                "end_time": 1.2363636363636363,
                "pitch": 43,
                "velocity": 51,
                "duration": 0.05227272727272725,
                "tempo": 120.0
            },
            {
                "start_time": 1.2704545454545455,
                "end_time": 1.3227272727272728,
                "pitch": 38,
                "velocity": 51,
                "duration": 0.05227272727272725,
                "tempo": 120.0
            },
            {
                "start_time": 1.3568181818181817,
                "end_time": 1.5068181818181818,
                "pitch": 31,
                "velocity": 51,
                "duration": 0.15000000000000013,
                "tempo": 120.0
            },
            {
                "start_time": 1.525,
                "end_time": 1.6749999999999998,
                "pitch": 38,
                "velocity": 51,
                "duration": 0.1499999999999999,
                "tempo": 120.0
            },
            {
                "start_time": 1.690909090909091,
                "end_time": 1.8386363636363636,
                "pitch": 43,
                "velocity": 51,
                "duration": 0.1477272727272727,
                "tempo": 120.0
            },
            {
                "start_time": 1.8704545454545454,
                "end_time": 2.1704545454545454,
                "pitch": 31,
                "velocity": 51,
                "duration": 0.30000000000000004,
                "tempo": 120.0
            },
            {
                "start_time": 2.2045454545454546,
                "end_time": 2.3431818181818183,
                "pitch": 31,
                "velocity": 51,
                "duration": 0.13863636363636367,
                "tempo": 120.0
            },
            {
                "start_time": 2.377272727272727,
                "end_time": 2.443181818181818,
                "pitch": 31,
                "velocity": 51,
                "duration": 0.06590909090909092,
                "tempo": 120.0
            },
            {
                "start_time": 2.459090909090909,
                "end_time": 2.525,
                "pitch": 38,
                "velocity": 51,
                "duration": 0.06590909090909092,
                "tempo": 120.0
            },
            {
                "start_time": 2.540909090909091,
                "end_time": 2.6045454545454545,
                "pitch": 43,
                "velocity": 51,
                "duration": 0.06363636363636349,
                "tempo": 120.0
            },
            {
                "start_time": 2.6227272727272726,
                "end_time": 2.686363636363636,
                "pitch": 38,
                "velocity": 51,
                "duration": 0.06363636363636349,
                "tempo": 120.0
            },
            {
                "start_time": 2.7045454545454546,
                "end_time": 2.852272727272727,
                "pitch": 31,
                "velocity": 51,
                "duration": 0.14772727272727249,
                "tempo": 120.0
            },
            {
                "start_time": 2.8863636363636362,
                "end_time": 3.0204545454545455,
                "pitch": 38,
                "velocity": 51,
                "duration": 0.13409090909090926,
                "tempo": 120.0
            },
            {
                "start_time": 3.0545454545454542,
                "end_time": 3.190909090909091,
                "pitch": 43,
                "velocity": 51,
                "duration": 0.1363636363636367,
                "tempo": 120.0
            },
            {
                "start_time": 3.227272727272727,
                "end_time": 3.5454545454545454,
                "pitch": 31,
                "velocity": 51,
                "duration": 0.31818181818181834,
                "tempo": 120.0
            },
            {
                "start_time": 3.561363636363636,
                "end_time": 3.7068181818181816,
                "pitch": 31,
                "velocity": 51,
                "duration": 0.1454545454545455,
                "tempo": 120.0
            },
            {
                "start_time": 3.7249999999999996,
                "end_time": 3.7909090909090906,
                "pitch": 31,
                "velocity": 51,
                "duration": 0.06590909090909092,
                "tempo": 120.0
            },
            {
                "start_time": 3.8249999999999997,
                "end_time": 3.875,
                "pitch": 38,
                "velocity": 51,
                "duration": 0.050000000000000266,
                "tempo": 120.0
            },
            {
                "start_time": 3.9090909090909087,
                "end_time": 3.959090909090909,
                "pitch": 43,
                "velocity": 51,
                "duration": 0.050000000000000266,
                "tempo": 120.0
            },
            {
                "start_time": 3.9909090909090907,
                "end_time": 4.043181818181818,
                "pitch": 38,
                "velocity": 51,
                "duration": 0.05227272727272725,
                "tempo": 120.0
            },
            {
                "start_time": 4.077272727272727,
                "end_time": 4.213636363636364,
                "pitch": 31,
                "velocity": 51,
                "duration": 0.1363636363636367,
                "tempo": 120.0
            },
            {
                "start_time": 4.247727272727272,
                "end_time": 4.386363636363636,
                "pitch": 38,
                "velocity": 51,
                "duration": 0.13863636363636367,
                "tempo": 120.0
            },
            {
                "start_time": 4.420454545454545,
                "end_time": 4.5659090909090905,
                "pitch": 43,
                "velocity": 51,
                "duration": 0.1454545454545455,
                "tempo": 120.0
            },
            {
                "start_time": 4.584090909090909,
                "end_time": 4.8999999999999995,
                "pitch": 31,
                "velocity": 51,
                "duration": 0.3159090909090905,
                "tempo": 120.0
            },
            {
                "start_time": 4.934090909090909,
                "end_time": 5.070454545454545,
                "pitch": 31,
                "velocity": 51,
                "duration": 0.1363636363636367,
                "tempo": 120.0
            },
            {
                "start_time": 5.1068181818181815,
                "end_time": 5.156818181818181,
                "pitch": 31,
                "velocity": 51,
                "duration": 0.04999999999999982,
                "tempo": 120.0
            },
            {
                "start_time": 5.1909090909090905,
                "end_time": 5.24090909090909,
                "pitch": 38,
                "velocity": 51,
                "duration": 0.04999999999999982,
                "tempo": 120.0
            },
            {
                "start_time": 5.2749999999999995,
                "end_time": 5.325,
                "pitch": 43,
                "velocity": 51,
                "duration": 0.05000000000000071,
                "tempo": 120.0
            },
            {
                "start_time": 5.3568181818181815,
                "end_time": 5.425,
                "pitch": 38,
                "velocity": 51,
                "duration": 0.06818181818181834,
                "tempo": 120.0
            },
            {
                "start_time": 5.443181818181818,
                "end_time": 5.590909090909091,
                "pitch": 31,
                "velocity": 51,
                "duration": 0.14772727272727249,
                "tempo": 120.0
            },
            {
                "start_time": 5.6090909090909085,
                "end_time": 5.759090909090909,
                "pitch": 31,
                "velocity": 51,
                "duration": 0.15000000000000036,
                "tempo": 120.0
            },
            {
                "start_time": 5.793181818181818,
                "end_time": 5.927272727272727,
                "pitch": 33,
                "velocity": 51,
                "duration": 0.13409090909090882,
                "tempo": 120.0
            },
            {
                "start_time": 5.961363636363636,
                "end_time": 6.093181818181818,
                "pitch": 34,
                "velocity": 51,
                "duration": 0.13181818181818183,
                "tempo": 120.0
            },
            {
                "start_time": 6.127272727272727,
                "end_time": 6.256818181818182,
                "pitch": 31,
                "velocity": 51,
                "duration": 0.12954545454545485,
                "tempo": 120.0
            },
            {
                "start_time": 6.290909090909091,
                "end_time": 6.436363636363636,
                "pitch": 31,
                "velocity": 51,
                "duration": 0.14545454545454461,
                "tempo": 120.0
            },
            {
                "start_time": 6.452272727272727,
                "end_time": 6.602272727272727,
                "pitch": 33,
                "velocity": 51,
                "duration": 0.14999999999999947,
                "tempo": 120.0
            },
            {
                "start_time": 6.620454545454545,
                "end_time": 6.7704545454545455,
                "pitch": 34,
                "velocity": 51,
                "duration": 0.15000000000000036,
                "tempo": 120.0
            },
            {
                "start_time": 6.804545454545454,
                "end_time": 6.9409090909090905,
                "pitch": 31,
                "velocity": 51,
                "duration": 0.1363636363636367,
                "tempo": 120.0
            },
            {
                "start_time": 6.977272727272727,
                "end_time": 7.113636363636363,
                "pitch": 31,
                "velocity": 51,
                "duration": 0.1363636363636367,
                "tempo": 120.0
            },
            {
                "start_time": 7.1499999999999995,
                "end_time": 7.279545454545454,
                "pitch": 33,
                "velocity": 51,
                "duration": 0.12954545454545485,
                "tempo": 120.0
            },
            {
                "start_time": 7.311363636363636,
                "end_time": 7.456818181818181,
                "pitch": 34,
                "velocity": 51,
                "duration": 0.1454545454545455,
                "tempo": 120.0
            },
            {
                "start_time": 7.475,
                "end_time": 7.625,
                "pitch": 31,
                "velocity": 51,
                "duration": 0.15000000000000036,
                "tempo": 120.0
            },
            {
                "start_time": 7.640909090909091,
                "end_time": 7.79090909090909,
                "pitch": 31,
                "velocity": 51,
                "duration": 0.14999999999999947,
                "tempo": 120.0
            },
            {
                "start_time": 7.824999999999999,
                "end_time": 7.963636363636363,
                "pitch": 33,
                "velocity": 51,
                "duration": 0.13863636363636367,
                "tempo": 120.0
            },
            {
                "start_time": 7.997727272727272,
                "end_time": 8.136363636363637,
                "pitch": 34,
                "velocity": 51,
                "duration": 0.13863636363636456,
                "tempo": 120.0
            },
            {
                "start_time": 8.170454545454545,
                "end_time": 8.299999999999999,
                "pitch": 31,
                "velocity": 51,
                "duration": 0.12954545454545396,
                "tempo": 120.0
            },
            {
                "start_time": 8.334090909090909,
                "end_time": 8.479545454545454,
                "pitch": 31,
                "velocity": 51,
                "duration": 0.14545454545454461,
                "tempo": 120.0
            },
            {
                "start_time": 8.495454545454544,
                "end_time": 8.645454545454545,
                "pitch": 33,
                "velocity": 51,
                "duration": 0.15000000000000036,
                "tempo": 120.0
            },
            {
                "start_time": 8.663636363636364,
                "end_time": 8.813636363636363,
                "pitch": 34,
                "velocity": 51,
                "duration": 0.14999999999999858,
                "tempo": 120.0
            },
            {
                "start_time": 8.847727272727273,
                "end_time": 8.979545454545454,
                "pitch": 31,
                "velocity": 51,
                "duration": 0.13181818181818095,
                "tempo": 120.0
            },
            {
                "start_time": 9.013636363636364,
                "end_time": 9.147727272727272,
                "pitch": 31,
                "velocity": 51,
                "duration": 0.13409090909090793,
                "tempo": 120.0
            },
            {
                "start_time": 9.181818181818182,
                "end_time": 9.31590909090909,
                "pitch": 33,
                "velocity": 51,
                "duration": 0.13409090909090793,
                "tempo": 120.0
            },
            {
                "start_time": 9.35,
                "end_time": 9.5,
                "pitch": 34,
                "velocity": 51,
                "duration": 0.15000000000000036,
                "tempo": 120.0
            },
            {
                "start_time": 9.51590909090909,
                "end_time": 9.663636363636364,
                "pitch": 31,
                "velocity": 51,
                "duration": 0.14772727272727337,
                "tempo": 120.0
            },
            {
                "start_time": 9.695454545454545,
                "end_time": 9.825,
                "pitch": 31,
                "velocity": 51,
                "duration": 0.12954545454545396,
                "tempo": 120.0
            },
            {
                "start_time": 9.85909090909091,
                "end_time": 9.995454545454544,
                "pitch": 33,
                "velocity": 51,
                "duration": 0.1363636363636349,
                "tempo": 120.0
            },
            {
                "start_time": 10.029545454545454,
                "end_time": 10.168181818181818,
                "pitch": 34,
                "velocity": 51,
                "duration": 0.13863636363636367,
                "tempo": 120.0
            },
            {
                "start_time": 10.202272727272726,
                "end_time": 10.352272727272727,
                "pitch": 31,
                "velocity": 51,
                "duration": 0.15000000000000036,
                "tempo": 120.0
            },
            {
                "start_time": 10.370454545454544,
                "end_time": 10.520454545454545,
                "pitch": 31,
                "velocity": 51,
                "duration": 0.15000000000000036,
                "tempo": 120.0
            },
            {
                "start_time": 10.538636363636362,
                "end_time": 10.684090909090909,
                "pitch": 33,
                "velocity": 51,
                "duration": 0.1454545454545464,
                "tempo": 120.0
            },
            {
                "start_time": 10.71590909090909,
                "end_time": 10.847727272727273,
                "pitch": 34,
                "velocity": 51,
                "duration": 0.13181818181818272,
                "tempo": 120.0
            },
            {
                "start_time": 10.881818181818181,
                "end_time": 11.01590909090909,
                "pitch": 31,
                "velocity": 51,
                "duration": 0.1340909090909097,
                "tempo": 120.0
            },
            {
                "start_time": 11.052272727272726,
                "end_time": 11.188636363636363,
                "pitch": 31,
                "velocity": 51,
                "duration": 0.1363636363636367,
                "tempo": 120.0
            },
            {
                "start_time": 11.225,
                "end_time": 11.370454545454544,
                "pitch": 33,
                "velocity": 51,
                "duration": 0.14545454545454461,
                "tempo": 120.0
            },
            {
                "start_time": 11.386363636363637,
                "end_time": 11.531818181818181,
                "pitch": 34,
                "velocity": 51,
                "duration": 0.14545454545454461,
                "tempo": 120.0
            },
            {
                "start_time": 11.549999999999999,
                "end_time": 11.7,
                "pitch": 31,
                "velocity": 51,
                "duration": 0.15000000000000036,
                "tempo": 120.0
            },
            {
                "start_time": 11.73409090909091,
                "end_time": 11.86590909090909,
                "pitch": 31,
                "velocity": 51,
                "duration": 0.13181818181818095,
                "tempo": 120.0
            },
            {
                "start_time": 11.902272727272727,
                "end_time": 12.038636363636362,
                "pitch": 33,
                "velocity": 51,
                "duration": 0.1363636363636349,
                "tempo": 120.0
            },
            {
                "start_time": 12.072727272727272,
                "end_time": 12.211363636363636,
                "pitch": 34,
                "velocity": 51,
                "duration": 0.13863636363636367,
                "tempo": 120.0
            },
            {
                "start_time": 12.245454545454544,
                "end_time": 12.39090909090909,
                "pitch": 31,
                "velocity": 51,
                "duration": 0.1454545454545464,
                "tempo": 120.0
            },
            {
                "start_time": 12.409090909090908,
                "end_time": 12.554545454545455,
                "pitch": 31,
                "velocity": 51,
                "duration": 0.1454545454545464,
                "tempo": 120.0
            },
            {
                "start_time": 12.570454545454545,
                "end_time": 12.720454545454546,
                "pitch": 33,
                "velocity": 51,
                "duration": 0.15000000000000036,
                "tempo": 120.0
            },
            {
                "start_time": 12.754545454545454,
                "end_time": 12.888636363636364,
                "pitch": 34,
                "velocity": 51,
                "duration": 0.1340909090909097,
                "tempo": 120.0
            },
            {
                "start_time": 12.922727272727272,
                "end_time": 13.059090909090909,
                "pitch": 31,
                "velocity": 51,
                "duration": 0.1363636363636367,
                "tempo": 120.0
            },
            {
                "start_time": 13.093181818181817,
                "end_time": 13.23181818181818,
                "pitch": 31,
                "velocity": 51,
                "duration": 0.13863636363636367,
                "tempo": 120.0
            },
            {
                "start_time": 13.26590909090909,
                "end_time": 13.413636363636362,
                "pitch": 33,
                "velocity": 51,
                "duration": 0.1477272727272716,
                "tempo": 120.0
            },
            {
                "start_time": 13.429545454545455,
                "end_time": 13.575,
                "pitch": 34,
                "velocity": 51,
                "duration": 0.14545454545454461,
                "tempo": 120.0
            },
            {
                "start_time": 13.593181818181817,
                "end_time": 13.74090909090909,
                "pitch": 31,
                "velocity": 51,
                "duration": 0.14772727272727337,
                "tempo": 120.0
            },
            {
                "start_time": 13.774999999999999,
                "end_time": 13.909090909090908,
                "pitch": 31,
                "velocity": 51,
                "duration": 0.1340909090909097,
                "tempo": 120.0
            },
            {
                "start_time": 13.943181818181818,
                "end_time": 14.077272727272726,
                "pitch": 33,
                "velocity": 51,
                "duration": 0.13409090909090793,
                "tempo": 120.0
            },
            {
                "start_time": 14.111363636363636,
                "end_time": 14.243181818181817,
                "pitch": 34,
                "velocity": 51,
                "duration": 0.13181818181818095,
                "tempo": 120.0
            },
            {
                "start_time": 14.277272727272727,
                "end_time": 14.427272727272726,
                "pitch": 31,
                "velocity": 51,
                "duration": 0.14999999999999858,
                "tempo": 120.0
            },
            {
                "start_time": 14.445454545454545,
                "end_time": 14.595454545454544,
                "pitch": 31,
                "velocity": 51,
                "duration": 0.14999999999999858,
                "tempo": 120.0
            },
            {
                "start_time": 14.629545454545454,
                "end_time": 14.76590909090909,
                "pitch": 33,
                "velocity": 51,
                "duration": 0.1363636363636367,
                "tempo": 120.0
            },
            {
                "start_time": 14.802272727272726,
                "end_time": 14.938636363636363,
                "pitch": 34,
                "velocity": 51,
                "duration": 0.1363636363636367,
                "tempo": 120.0
            },
            {
                "start_time": 14.975,
                "end_time": 15.104545454545454,
                "pitch": 31,
                "velocity": 51,
                "duration": 0.12954545454545396,
                "tempo": 120.0
            },
            {
                "start_time": 15.138636363636364,
                "end_time": 15.281818181818181,
                "pitch": 31,
                "velocity": 51,
                "duration": 0.14318181818181763,
                "tempo": 120.0
            },
            {
                "start_time": 15.299999999999999,
                "end_time": 15.45,
                "pitch": 33,
                "velocity": 51,
                "duration": 0.15000000000000036,
                "tempo": 120.0
            },
            {
                "start_time": 15.46590909090909,
                "end_time": 15.61590909090909,
                "pitch": 34,
                "velocity": 51,
                "duration": 0.15000000000000036,
                "tempo": 120.0
            },
            {
                "start_time": 15.649999999999999,
                "end_time": 15.788636363636362,
                "pitch": 31,
                "velocity": 51,
                "duration": 0.13863636363636367,
                "tempo": 120.0
            },
            {
                "start_time": 15.822727272727272,
                "end_time": 15.959090909090909,
                "pitch": 31,
                "velocity": 51,
                "duration": 0.1363636363636367,
                "tempo": 120.0
            },
            {
                "start_time": 15.995454545454544,
                "end_time": 16.125,
                "pitch": 33,
                "velocity": 51,
                "duration": 0.12954545454545574,
                "tempo": 120.0
            },
            {
                "start_time": 16.15681818181818,
                "end_time": 16.304545454545455,
                "pitch": 34,
                "velocity": 51,
                "duration": 0.14772727272727337,
                "tempo": 120.0
            },
            {
                "start_time": 16.32272727272727,
                "end_time": 16.470454545454544,
                "pitch": 31,
                "velocity": 51,
                "duration": 0.14772727272727337,
                "tempo": 120.0
            },
            {
                "start_time": 16.488636363636363,
                "end_time": 16.638636363636362,
                "pitch": 31,
                "velocity": 51,
                "duration": 0.14999999999999858,
                "tempo": 120.0
            },
            {
                "start_time": 16.672727272727272,
                "end_time": 16.804545454545455,
                "pitch": 33,
                "velocity": 51,
                "duration": 0.13181818181818272,
                "tempo": 120.0
            },
            {
                "start_time": 16.83863636363636,
                "end_time": 16.972727272727273,
                "pitch": 34,
                "velocity": 51,
                "duration": 0.13409090909091148,
                "tempo": 120.0
            },
            {
                "start_time": 17.006818181818183,
                "end_time": 17.14090909090909,
                "pitch": 31,
                "velocity": 51,
                "duration": 0.13409090909090793,
                "tempo": 120.0
            },
            {
                "start_time": 17.175,
                "end_time": 17.325,
                "pitch": 31,
                "velocity": 51,
                "duration": 0.14999999999999858,
                "tempo": 120.0
            },
            {
                "start_time": 17.34090909090909,
                "end_time": 17.488636363636363,
                "pitch": 33,
                "velocity": 51,
                "duration": 0.14772727272727337,
                "tempo": 120.0
            },
            {
                "start_time": 17.504545454545454,
                "end_time": 17.65,
                "pitch": 34,
                "velocity": 51,
                "duration": 0.14545454545454461,
                "tempo": 120.0
            },
            {
                "start_time": 17.68409090909091,
                "end_time": 17.820454545454545,
                "pitch": 31,
                "velocity": 51,
                "duration": 0.1363636363636367,
                "tempo": 120.0
            },
            {
                "start_time": 17.85681818181818,
                "end_time": 17.993181818181817,
                "pitch": 31,
                "velocity": 51,
                "duration": 0.1363636363636367,
                "tempo": 120.0
            },
            {
                "start_time": 18.027272727272727,
                "end_time": 18.161363636363635,
                "pitch": 33,
                "velocity": 51,
                "duration": 0.13409090909090793,
                "tempo": 120.0
            },
            {
                "start_time": 18.195454545454545,
                "end_time": 18.345454545454544,
                "pitch": 34,
                "velocity": 51,
                "duration": 0.14999999999999858,
                "tempo": 120.0
            },
            {
                "start_time": 18.363636363636363,
                "end_time": 18.509090909090908,
                "pitch": 31,
                "velocity": 51,
                "duration": 0.14545454545454461,
                "tempo": 120.0
            },
            {
                "start_time": 18.525,
                "end_time": 18.670454545454543,
                "pitch": 31,
                "velocity": 51,
                "duration": 0.14545454545454461,
                "tempo": 120.0
            },
            {
                "start_time": 18.704545454545453,
                "end_time": 18.84090909090909,
                "pitch": 33,
                "velocity": 51,
                "duration": 0.1363636363636367,
                "tempo": 120.0
            },
            {
                "start_time": 18.877272727272725,
                "end_time": 19.013636363636362,
                "pitch": 34,
                "velocity": 51,
                "duration": 0.1363636363636367,
                "tempo": 120.0
            },
            {
                "start_time": 19.05,
                "end_time": 19.18181818181818,
                "pitch": 31,
                "velocity": 51,
                "duration": 0.13181818181817917,
                "tempo": 120.0
            },
            {
                "start_time": 19.21590909090909,
                "end_time": 19.36590909090909,
                "pitch": 31,
                "velocity": 51,
                "duration": 0.14999999999999858,
                "tempo": 120.0
            },
            {
                "start_time": 19.384090909090908,
                "end_time": 19.529545454545453,
                "pitch": 33,
                "velocity": 51,
                "duration": 0.14545454545454461,
                "tempo": 120.0
            },
            {
                "start_time": 19.563636363636363,
                "end_time": 19.693181818181817,
                "pitch": 34,
                "velocity": 51,
                "duration": 0.12954545454545396,
                "tempo": 120.0
            },
            {
                "start_time": 19.727272727272727,
                "end_time": 19.863636363636363,
                "pitch": 31,
                "velocity": 51,
                "duration": 0.1363636363636367,
                "tempo": 120.0
            },
            {
                "start_time": 19.897727272727273,
                "end_time": 20.034090909090907,
                "pitch": 31,
                "velocity": 51,
                "duration": 0.13636363636363313,
                "tempo": 120.0
            },
            {
                "start_time": 20.070454545454545,
                "end_time": 20.21590909090909,
                "pitch": 33,
                "velocity": 51,
                "duration": 0.14545454545454461,
                "tempo": 120.0
            },
            {
                "start_time": 20.23409090909091,
                "end_time": 20.379545454545454,
                "pitch": 34,
                "velocity": 51,
                "duration": 0.14545454545454461,
                "tempo": 120.0
            },
            {
                "start_time": 20.397727272727273,
                "end_time": 20.545454545454543,
                "pitch": 31,
                "velocity": 51,
                "duration": 0.14772727272726982,
                "tempo": 120.0
            },
            {
                "start_time": 20.579545454545453,
                "end_time": 20.71363636363636,
                "pitch": 31,
                "velocity": 51,
                "duration": 0.13409090909090793,
                "tempo": 120.0
            },
            {
                "start_time": 20.74772727272727,
                "end_time": 20.884090909090908,
                "pitch": 33,
                "velocity": 51,
                "duration": 0.1363636363636367,
                "tempo": 120.0
            },
            {
                "start_time": 20.920454545454543,
                "end_time": 21.05681818181818,
                "pitch": 34,
                "velocity": 51,
                "duration": 0.1363636363636367,
                "tempo": 120.0
            },
            {
                "start_time": 21.09090909090909,
                "end_time": 21.236363636363635,
                "pitch": 31,
                "velocity": 51,
                "duration": 0.14545454545454461,
                "tempo": 120.0
            },
            {
                "start_time": 21.254545454545454,
                "end_time": 21.4,
                "pitch": 31,
                "velocity": 51,
                "duration": 0.14545454545454461,
                "tempo": 120.0
            },
            {
                "start_time": 21.41590909090909,
                "end_time": 21.56590909090909,
                "pitch": 33,
                "velocity": 51,
                "duration": 0.15000000000000213,
                "tempo": 120.0
            },
            {
                "start_time": 21.599999999999998,
                "end_time": 21.73409090909091,
                "pitch": 34,
                "velocity": 51,
                "duration": 0.13409090909091148,
                "tempo": 120.0
            },
            {
                "start_time": 21.770454545454545,
                "end_time": 21.904545454545453,
                "pitch": 38,
                "velocity": 51,
                "duration": 0.13409090909090793,
                "tempo": 120.0
            },
            {
                "start_time": 21.94090909090909,
                "end_time": 22.077272727272724,
                "pitch": 38,
                "velocity": 51,
                "duration": 0.13636363636363313,
                "tempo": 120.0
            },
            {
                "start_time": 22.113636363636363,
                "end_time": 22.259090909090908,
                "pitch": 40,
                "velocity": 51,
                "duration": 0.14545454545454461,
                "tempo": 120.0
            },
            {
                "start_time": 22.275,
                "end_time": 22.422727272727272,
                "pitch": 41,
                "velocity": 51,
                "duration": 0.14772727272727337,
                "tempo": 120.0
            },
            {
                "start_time": 22.438636363636363,
                "end_time": 22.584090909090907,
                "pitch": 38,
                "velocity": 51,
                "duration": 0.14545454545454461,
                "tempo": 120.0
            },
            {
                "start_time": 22.618181818181817,
                "end_time": 22.74772727272727,
                "pitch": 38,
                "velocity": 51,
                "duration": 0.12954545454545396,
                "tempo": 120.0
            },
            {
                "start_time": 22.779545454545453,
                "end_time": 22.918181818181818,
                "pitch": 40,
                "velocity": 51,
                "duration": 0.13863636363636545,
                "tempo": 120.0
            },
            {
                "start_time": 22.952272727272724,
                "end_time": 23.08863636363636,
                "pitch": 41,
                "velocity": 51,
                "duration": 0.1363636363636367,
                "tempo": 120.0
            },
            {
                "start_time": 23.125,
                "end_time": 23.275,
                "pitch": 38,
                "velocity": 51,
                "duration": 0.14999999999999858,
                "tempo": 120.0
            },
            {
                "start_time": 23.293181818181818,
                "end_time": 23.443181818181817,
                "pitch": 38,
                "velocity": 51,
                "duration": 0.14999999999999858,
                "tempo": 120.0
            },
            {
                "start_time": 23.459090909090907,
                "end_time": 23.60681818181818,
                "pitch": 40,
                "velocity": 51,
                "duration": 0.14772727272727337,
                "tempo": 120.0
            },
            {
                "start_time": 23.638636363636362,
                "end_time": 23.768181818181816,
                "pitch": 41,
                "velocity": 51,
                "duration": 0.12954545454545396,
                "tempo": 120.0
            },
            {
                "start_time": 23.802272727272726,
                "end_time": 23.938636363636363,
                "pitch": 38,
                "velocity": 51,
                "duration": 0.1363636363636367,
                "tempo": 120.0
            },
            {
                "start_time": 23.972727272727273,
                "end_time": 24.111363636363635,
                "pitch": 38,
                "velocity": 51,
                "duration": 0.1386363636363619,
                "tempo": 120.0
            },
            {
                "start_time": 24.145454545454545,
                "end_time": 24.295454545454543,
                "pitch": 40,
                "velocity": 51,
                "duration": 0.14999999999999858,
                "tempo": 120.0
            },
            {
                "start_time": 24.313636363636363,
                "end_time": 24.46363636363636,
                "pitch": 41,
                "velocity": 51,
                "duration": 0.14999999999999858,
                "tempo": 120.0
            },
            {
                "start_time": 24.49772727272727,
                "end_time": 24.634090909090908,
                "pitch": 38,
                "velocity": 51,
                "duration": 0.1363636363636367,
                "tempo": 120.0
            },
            {
                "start_time": 24.670454545454543,
                "end_time": 24.80681818181818,
                "pitch": 38,
                "velocity": 51,
                "duration": 0.1363636363636367,
                "tempo": 120.0
            },
            {
                "start_time": 24.84318181818182,
                "end_time": 24.972727272727273,
                "pitch": 40,
                "velocity": 51,
                "duration": 0.12954545454545396,
                "tempo": 120.0
            },
            {
                "start_time": 25.004545454545454,
                "end_time": 25.134090909090908,
                "pitch": 41,
                "velocity": 51,
                "duration": 0.12954545454545396,
                "tempo": 120.0
            },
            {
                "start_time": 25.168181818181818,
                "end_time": 25.313636363636363,
                "pitch": 38,
                "velocity": 51,
                "duration": 0.14545454545454461,
                "tempo": 120.0
            },
            {
                "start_time": 25.331818181818182,
                "end_time": 25.477272727272727,
                "pitch": 38,
                "velocity": 51,
                "duration": 0.14545454545454461,
                "tempo": 120.0
            },
            {
                "start_time": 25.509090909090908,
                "end_time": 25.64772727272727,
                "pitch": 40,
                "velocity": 51,
                "duration": 0.1386363636363619,
                "tempo": 120.0
            },
            {
                "start_time": 25.68181818181818,
                "end_time": 25.818181818181817,
                "pitch": 41,
                "velocity": 51,
                "duration": 0.1363636363636367,
                "tempo": 120.0
            },
            {
                "start_time": 25.854545454545452,
                "end_time": 25.988636363636363,
                "pitch": 38,
                "velocity": 51,
                "duration": 0.13409090909091148,
                "tempo": 120.0
            },
            {
                "start_time": 26.02272727272727,
                "end_time": 26.172727272727272,
                "pitch": 38,
                "velocity": 51,
                "duration": 0.15000000000000213,
                "tempo": 120.0
            },
            {
                "start_time": 26.188636363636363,
                "end_time": 26.334090909090907,
                "pitch": 40,
                "velocity": 51,
                "duration": 0.14545454545454461,
                "tempo": 120.0
            },
            {
                "start_time": 26.352272727272727,
                "end_time": 26.49772727272727,
                "pitch": 41,
                "velocity": 51,
                "duration": 0.14545454545454461,
                "tempo": 120.0
            },
            {
                "start_time": 26.53181818181818,
                "end_time": 26.668181818181818,
                "pitch": 38,
                "velocity": 51,
                "duration": 0.1363636363636367,
                "tempo": 120.0
            },
            {
                "start_time": 26.702272727272724,
                "end_time": 26.84090909090909,
                "pitch": 38,
                "velocity": 51,
                "duration": 0.13863636363636545,
                "tempo": 120.0
            },
            {
                "start_time": 26.875,
                "end_time": 27.004545454545454,
                "pitch": 40,
                "velocity": 51,
                "duration": 0.12954545454545396,
                "tempo": 120.0
            },
            {
                "start_time": 27.038636363636364,
                "end_time": 27.18409090909091,
                "pitch": 41,
                "velocity": 51,
                "duration": 0.14545454545454461,
                "tempo": 120.0
            },
            {
                "start_time": 27.202272727272724,
                "end_time": 27.349999999999998,
                "pitch": 38,
                "velocity": 51,
                "duration": 0.14772727272727337,
                "tempo": 120.0
            },
            {
                "start_time": 27.368181818181817,
                "end_time": 27.518181818181816,
                "pitch": 38,
                "velocity": 51,
                "duration": 0.14999999999999858,
                "tempo": 120.0
            },
            {
                "start_time": 27.552272727272726,
                "end_time": 27.688636363636363,
                "pitch": 40,
                "velocity": 51,
                "duration": 0.1363636363636367,
                "tempo": 120.0
            },
            {
                "start_time": 27.722727272727273,
                "end_time": 27.861363636363635,
                "pitch": 41,
                "velocity": 51,
                "duration": 0.1386363636363619,
                "tempo": 120.0
            },
            {
                "start_time": 27.895454545454545,
                "end_time": 28.025,
                "pitch": 38,
                "velocity": 51,
                "duration": 0.12954545454545396,
                "tempo": 120.0
            },
            {
                "start_time": 28.05909090909091,
                "end_time": 28.204545454545453,
                "pitch": 38,
                "velocity": 51,
                "duration": 0.14545454545454461,
                "tempo": 120.0
            },
            {
                "start_time": 28.222727272727273,
                "end_time": 28.37272727272727,
                "pitch": 40,
                "velocity": 51,
                "duration": 0.14999999999999858,
                "tempo": 120.0
            },
            {
                "start_time": 28.388636363636362,
                "end_time": 28.538636363636364,
                "pitch": 41,
                "velocity": 51,
                "duration": 0.15000000000000213,
                "tempo": 120.0
            },
            {
                "start_time": 28.57272727272727,
                "end_time": 28.709090909090907,
                "pitch": 38,
                "velocity": 51,
                "duration": 0.1363636363636367,
                "tempo": 120.0
            },
            {
                "start_time": 28.745454545454542,
                "end_time": 28.88181818181818,
                "pitch": 38,
                "velocity": 51,
                "duration": 0.1363636363636367,
                "tempo": 120.0
            },
            {
                "start_time": 28.918181818181818,
                "end_time": 29.047727272727272,
                "pitch": 40,
                "velocity": 51,
                "duration": 0.12954545454545396,
                "tempo": 120.0
            },
            {
                "start_time": 29.079545454545453,
                "end_time": 29.227272727272727,
                "pitch": 41,
                "velocity": 51,
                "duration": 0.14772727272727337,
                "tempo": 120.0
            },
            {
                "start_time": 29.243181818181817,
                "end_time": 29.393181818181816,
                "pitch": 38,
                "velocity": 51,
                "duration": 0.14999999999999858,
                "tempo": 120.0
            },
            {
                "start_time": 29.411363636363635,
                "end_time": 29.561363636363634,
                "pitch": 38,
                "velocity": 51,
                "duration": 0.14999999999999858,
                "tempo": 120.0
            },
            {
                "start_time": 29.595454545454544,
                "end_time": 29.727272727272727,
                "pitch": 40,
                "velocity": 51,
                "duration": 0.13181818181818272,
                "tempo": 120.0
            },
            {
                "start_time": 29.761363636363637,
                "end_time": 29.895454545454545,
                "pitch": 41,
                "velocity": 51,
                "duration": 0.13409090909090793,
                "tempo": 120.0
            },
            {
                "start_time": 29.929545454545455,
                "end_time": 30.061363636363634,
                "pitch": 38,
                "velocity": 51,
                "duration": 0.13181818181817917,
                "tempo": 120.0
            },
            {
                "start_time": 30.097727272727273,
                "end_time": 30.245454545454542,
                "pitch": 38,
                "velocity": 51,
                "duration": 0.14772727272726982,
                "tempo": 120.0
            },
            {
                "start_time": 30.263636363636362,
                "end_time": 30.409090909090907,
                "pitch": 40,
                "velocity": 51,
                "duration": 0.14545454545454461,
                "tempo": 120.0
            },
            {
                "start_time": 30.443181818181817,
                "end_time": 30.57272727272727,
                "pitch": 41,
                "velocity": 51,
                "duration": 0.12954545454545396,
                "tempo": 120.0
            },
            {
                "start_time": 30.60681818181818,
                "end_time": 30.743181818181817,
                "pitch": 38,
                "velocity": 51,
                "duration": 0.1363636363636367,
                "tempo": 120.0
            },
            {
                "start_time": 30.777272727272727,
                "end_time": 30.91590909090909,
                "pitch": 38,
                "velocity": 51,
                "duration": 0.1386363636363619,
                "tempo": 120.0
            },
            {
                "start_time": 30.95,
                "end_time": 31.099999999999998,
                "pitch": 40,
                "velocity": 51,
                "duration": 0.14999999999999858,
                "tempo": 120.0
            },
            {
                "start_time": 31.118181818181817,
                "end_time": 31.268181818181816,
                "pitch": 41,
                "velocity": 51,
                "duration": 0.14999999999999858,
                "tempo": 120.0
            },
            {
                "start_time": 31.286363636363635,
                "end_time": 31.43181818181818,
                "pitch": 38,
                "velocity": 51,
                "duration": 0.14545454545454461,
                "tempo": 120.0
            },
            {
                "start_time": 31.46363636363636,
                "end_time": 31.593181818181815,
                "pitch": 38,
                "velocity": 51,
                "duration": 0.12954545454545396,
                "tempo": 120.0
            },
            {
                "start_time": 31.627272727272725,
                "end_time": 31.763636363636362,
                "pitch": 40,
                "velocity": 51,
                "duration": 0.1363636363636367,
                "tempo": 120.0
            },
            {
                "start_time": 31.799999999999997,
                "end_time": 31.936363636363634,
                "pitch": 41,
                "velocity": 51,
                "duration": 0.1363636363636367,
                "tempo": 120.0
            },
            {
                "start_time": 31.970454545454544,
                "end_time": 32.11818181818182,
                "pitch": 38,
                "velocity": 51,
                "duration": 0.14772727272727337,
                "tempo": 120.0
            },
            {
                "start_time": 32.13409090909091,
                "end_time": 32.279545454545456,
                "pitch": 38,
                "velocity": 51,
                "duration": 0.14545454545454817,
                "tempo": 120.0
            },
            {
                "start_time": 32.29772727272727,
                "end_time": 32.44772727272727,
                "pitch": 40,
                "velocity": 51,
                "duration": 0.14999999999999858,
                "tempo": 120.0
            },
            {
                "start_time": 32.48181818181818,
                "end_time": 32.61363636363636,
                "pitch": 41,
                "velocity": 51,
                "duration": 0.13181818181818272,
                "tempo": 120.0
            },
            {
                "start_time": 32.65,
                "end_time": 32.78409090909091,
                "pitch": 31,
                "velocity": 51,
                "duration": 0.13409090909090793,
                "tempo": 120.0
            },
            {
                "start_time": 32.820454545454545,
                "end_time": 32.95681818181818,
                "pitch": 31,
                "velocity": 51,
                "duration": 0.13636363636363313,
                "tempo": 120.0
            },
            {
                "start_time": 32.99318181818182,
                "end_time": 33.138636363636365,
                "pitch": 33,
                "velocity": 51,
                "duration": 0.14545454545454817,
                "tempo": 120.0
            },
            {
                "start_time": 33.154545454545456,
                "end_time": 33.30227272727272,
                "pitch": 34,
                "velocity": 51,
                "duration": 0.14772727272726627,
                "tempo": 120.0
            },
            {
                "start_time": 33.31818181818181,
                "end_time": 33.46818181818182,
                "pitch": 31,
                "velocity": 51,
                "duration": 0.15000000000000568,
                "tempo": 120.0
            },
            {
                "start_time": 33.502272727272725,
                "end_time": 33.63636363636363,
                "pitch": 31,
                "velocity": 51,
                "duration": 0.13409090909090793,
                "tempo": 120.0
            },
            {
                "start_time": 33.67045454545455,
                "end_time": 33.80681818181818,
                "pitch": 33,
                "velocity": 51,
                "duration": 0.13636363636363313,
                "tempo": 120.0
            },
            {
                "start_time": 33.840909090909086,
                "end_time": 33.97954545454545,
                "pitch": 34,
                "velocity": 51,
                "duration": 0.13863636363636545,
                "tempo": 120.0
            },
            {
                "start_time": 34.013636363636365,
                "end_time": 34.15909090909091,
                "pitch": 31,
                "velocity": 51,
                "duration": 0.14545454545454106,
                "tempo": 120.0
            },
            {
                "start_time": 34.17727272727272,
                "end_time": 34.32272727272727,
                "pitch": 31,
                "velocity": 51,
                "duration": 0.14545454545454817,
                "tempo": 120.0
            },
            {
                "start_time": 34.33863636363636,
                "end_time": 34.48863636363636,
                "pitch": 33,
                "velocity": 51,
                "duration": 0.14999999999999858,
                "tempo": 120.0
            },
            {
                "start_time": 34.525,
                "end_time": 34.65681818181818,
                "pitch": 34,
                "velocity": 51,
                "duration": 0.13181818181818272,
                "tempo": 120.0
            },
            {
                "start_time": 34.69090909090909,
                "end_time": 34.824999999999996,
                "pitch": 31,
                "velocity": 51,
                "duration": 0.13409090909090793,
                "tempo": 120.0
            },
            {
                "start_time": 34.85681818181818,
                "end_time": 34.99090909090909,
                "pitch": 31,
                "velocity": 51,
                "duration": 0.13409090909091503,
                "tempo": 120.0
            },
            {
                "start_time": 35.025,
                "end_time": 35.175,
                "pitch": 33,
                "velocity": 51,
                "duration": 0.14999999999999858,
                "tempo": 120.0
            },
            {
                "start_time": 35.19318181818181,
                "end_time": 35.34318181818182,
                "pitch": 34,
                "velocity": 51,
                "duration": 0.15000000000000568,
                "tempo": 120.0
            },
            {
                "start_time": 35.377272727272725,
                "end_time": 35.513636363636365,
                "pitch": 31,
                "velocity": 51,
                "duration": 0.13636363636364024,
                "tempo": 120.0
            },
            {
                "start_time": 35.54772727272727,
                "end_time": 35.68636363636364,
                "pitch": 31,
                "velocity": 51,
                "duration": 0.13863636363636545,
                "tempo": 120.0
            },
            {
                "start_time": 35.720454545454544,
                "end_time": 35.85,
                "pitch": 33,
                "velocity": 51,
                "duration": 0.12954545454545752,
                "tempo": 120.0
            },
            {
                "start_time": 35.88409090909091,
                "end_time": 36.029545454545456,
                "pitch": 34,
                "velocity": 51,
                "duration": 0.14545454545454817,
                "tempo": 120.0
            },
            {
                "start_time": 36.04772727272727,
                "end_time": 36.19772727272727,
                "pitch": 31,
                "velocity": 51,
                "duration": 0.14999999999999858,
                "tempo": 120.0
            },
            {
                "start_time": 36.21363636363636,
                "end_time": 36.36363636363636,
                "pitch": 31,
                "velocity": 51,
                "duration": 0.14999999999999858,
                "tempo": 120.0
            },
            {
                "start_time": 36.39772727272727,
                "end_time": 36.53409090909091,
                "pitch": 33,
                "velocity": 51,
                "duration": 0.13636363636363313,
                "tempo": 120.0
            },
            {
                "start_time": 36.570454545454545,
                "end_time": 36.70681818181818,
                "pitch": 34,
                "velocity": 51,
                "duration": 0.13636363636363313,
                "tempo": 120.0
            },
            {
                "start_time": 36.74318181818182,
                "end_time": 36.87272727272727,
                "pitch": 31,
                "velocity": 51,
                "duration": 0.1295454545454504,
                "tempo": 120.0
            },
            {
                "start_time": 36.90681818181818,
                "end_time": 37.05227272727272,
                "pitch": 31,
                "velocity": 51,
                "duration": 0.14545454545454106,
                "tempo": 120.0
            },
            {
                "start_time": 37.06818181818181,
                "end_time": 37.21818181818182,
                "pitch": 33,
                "velocity": 51,
                "duration": 0.15000000000000568,
                "tempo": 120.0
            },
            {
                "start_time": 37.236363636363635,
                "end_time": 37.38636363636363,
                "pitch": 34,
                "velocity": 51,
                "duration": 0.14999999999999858,
                "tempo": 120.0
            },
            {
                "start_time": 37.42045454545455,
                "end_time": 37.55227272727272,
                "pitch": 31,
                "velocity": 51,
                "duration": 0.13181818181817562,
                "tempo": 120.0
            },
            {
                "start_time": 37.586363636363636,
                "end_time": 37.720454545454544,
                "pitch": 31,
                "velocity": 51,
                "duration": 0.13409090909090793,
                "tempo": 120.0
            },
            {
                "start_time": 37.75454545454545,
                "end_time": 37.88636363636363,
                "pitch": 33,
                "velocity": 51,
                "duration": 0.13181818181818272,
                "tempo": 120.0
            },
            {
                "start_time": 37.92045454545455,
                "end_time": 38.070454545454545,
                "pitch": 34,
                "velocity": 51,
                "duration": 0.14999999999999858,
                "tempo": 120.0
            },
            {
                "start_time": 38.090909090909086,
                "end_time": 38.23409090909091,
                "pitch": 31,
                "velocity": 51,
                "duration": 0.14318181818182296,
                "tempo": 120.0
            },
            {
                "start_time": 38.252272727272725,
                "end_time": 38.39772727272727,
                "pitch": 31,
                "velocity": 51,
                "duration": 0.14545454545454817,
                "tempo": 120.0
            },
            {
                "start_time": 38.429545454545455,
                "end_time": 38.56818181818181,
                "pitch": 33,
                "velocity": 51,
                "duration": 0.13863636363635834,
                "tempo": 120.0
            },
            {
                "start_time": 38.60227272727273,
                "end_time": 38.74090909090909,
                "pitch": 34,
                "velocity": 51,
                "duration": 0.13863636363636545,
                "tempo": 120.0
            },
            {
                "start_time": 38.775,
                "end_time": 38.90909090909091,
                "pitch": 31,
                "velocity": 51,
                "duration": 0.13409090909090793,
                "tempo": 120.0
            },
            {
                "start_time": 38.94318181818181,
                "end_time": 39.09318181818182,
                "pitch": 31,
                "velocity": 51,
                "duration": 0.15000000000000568,
                "tempo": 120.0
            },
            {
                "start_time": 39.111363636363635,
                "end_time": 39.25681818181818,
                "pitch": 33,
                "velocity": 51,
                "duration": 0.14545454545454817,
                "tempo": 120.0
            },
            {
                "start_time": 39.27272727272727,
                "end_time": 39.418181818181814,
                "pitch": 34,
                "velocity": 51,
                "duration": 0.14545454545454106,
                "tempo": 120.0
            },
            {
                "start_time": 39.45227272727273,
                "end_time": 39.58863636363636,
                "pitch": 31,
                "velocity": 51,
                "duration": 0.13636363636363313,
                "tempo": 120.0
            },
            {
                "start_time": 39.625,
                "end_time": 39.76136363636363,
                "pitch": 31,
                "velocity": 51,
                "duration": 0.13636363636363313,
                "tempo": 120.0
            },
            {
                "start_time": 39.79545454545455,
                "end_time": 39.925,
                "pitch": 33,
                "velocity": 51,
                "duration": 0.1295454545454504,
                "tempo": 120.0
            },
            {
                "start_time": 39.959090909090904,
                "end_time": 40.10454545454545,
                "pitch": 34,
                "velocity": 51,
                "duration": 0.14545454545454817,
                "tempo": 120.0
            },
            {
                "start_time": 40.12045454545454,
                "end_time": 40.27272727272727,
                "pitch": 31,
                "velocity": 51,
                "duration": 0.1522727272727309,
                "tempo": 120.0
            },
            {
                "start_time": 40.304545454545455,
                "end_time": 40.43863636363636,
                "pitch": 31,
                "velocity": 51,
                "duration": 0.13409090909090793,
                "tempo": 120.0
            },
            {
                "start_time": 40.47272727272727,
                "end_time": 40.60909090909091,
                "pitch": 33,
                "velocity": 51,
                "duration": 0.13636363636364024,
                "tempo": 120.0
            },
            {
                "start_time": 40.64545454545454,
                "end_time": 40.78181818181818,
                "pitch": 34,
                "velocity": 51,
                "duration": 0.13636363636364024,
                "tempo": 120.0
            },
            {
                "start_time": 40.81818181818181,
                "end_time": 40.96363636363636,
                "pitch": 31,
                "velocity": 51,
                "duration": 0.14545454545454817,
                "tempo": 120.0
            },
            {
                "start_time": 40.97954545454545,
                "end_time": 41.127272727272725,
                "pitch": 31,
                "velocity": 51,
                "duration": 0.14772727272727337,
                "tempo": 120.0
            },
            {
                "start_time": 41.143181818181816,
                "end_time": 41.293181818181814,
                "pitch": 33,
                "velocity": 51,
                "duration": 0.14999999999999858,
                "tempo": 120.0
            },
            {
                "start_time": 41.32727272727273,
                "end_time": 41.461363636363636,
                "pitch": 34,
                "velocity": 51,
                "duration": 0.13409090909090793,
                "tempo": 120.0
            },
            {
                "start_time": 41.49545454545454,
                "end_time": 41.63181818181818,
                "pitch": 31,
                "velocity": 51,
                "duration": 0.13636363636364024,
                "tempo": 120.0
            },
            {
                "start_time": 41.66590909090909,
                "end_time": 41.804545454545455,
                "pitch": 31,
                "velocity": 51,
                "duration": 0.13863636363636545,
                "tempo": 120.0
            },
            {
                "start_time": 41.83863636363636,
                "end_time": 41.98409090909091,
                "pitch": 33,
                "velocity": 51,
                "duration": 0.14545454545454817,
                "tempo": 120.0
            },
            {
                "start_time": 42.002272727272725,
                "end_time": 42.14772727272727,
                "pitch": 34,
                "velocity": 51,
                "duration": 0.14545454545454817,
                "tempo": 120.0
            },
            {
                "start_time": 42.16590909090909,
                "end_time": 42.31363636363636,
                "pitch": 31,
                "velocity": 51,
                "duration": 0.14772727272727337,
                "tempo": 120.0
            },
            {
                "start_time": 42.35,
                "end_time": 42.48181818181818,
                "pitch": 31,
                "velocity": 51,
                "duration": 0.13181818181817562,
                "tempo": 120.0
            },
            {
                "start_time": 42.51590909090909,
                "end_time": 42.65,
                "pitch": 33,
                "velocity": 51,
                "duration": 0.13409090909090793,
                "tempo": 120.0
            },
            {
                "start_time": 42.684090909090905,
                "end_time": 42.81590909090909,
                "pitch": 34,
                "velocity": 51,
                "duration": 0.13181818181818272,
                "tempo": 120.0
            },
            {
                "start_time": 42.85,
                "end_time": 43.0,
                "pitch": 31,
                "velocity": 51,
                "duration": 0.14999999999999858,
                "tempo": 120.0
            },
            {
                "start_time": 43.018181818181816,
                "end_time": 43.168181818181814,
                "pitch": 31,
                "velocity": 51,
                "duration": 0.14999999999999858,
                "tempo": 120.0
            },
            {
                "start_time": 43.184090909090905,
                "end_time": 43.33181818181818,
                "pitch": 33,
                "velocity": 51,
                "duration": 0.14772727272727337,
                "tempo": 120.0
            },
            {
                "start_time": 43.36363636363636,
                "end_time": 43.49318181818182,
                "pitch": 34,
                "velocity": 51,
                "duration": 0.12954545454545752,
                "tempo": 120.0
            },
            {
                "start_time": 43.527272727272724,
                "end_time": 43.663636363636364,
                "pitch": 38,
                "velocity": 51,
                "duration": 0.13636363636364024,
                "tempo": 120.0
            },
            {
                "start_time": 43.69772727272727,
                "end_time": 43.836363636363636,
                "pitch": 38,
                "velocity": 51,
                "duration": 0.13863636363636545,
                "tempo": 120.0
            },
            {
                "start_time": 43.87045454545454,
                "end_time": 44.02045454545454,
                "pitch": 40,
                "velocity": 51,
                "duration": 0.14999999999999858,
                "tempo": 120.0
            },
            {
                "start_time": 44.038636363636364,
                "end_time": 44.18863636363636,
                "pitch": 41,
                "velocity": 51,
                "duration": 0.14999999999999858,
                "tempo": 120.0
            },
            {
                "start_time": 44.20681818181818,
                "end_time": 44.35227272727273,
                "pitch": 38,
                "velocity": 51,
                "duration": 0.14545454545454817,
                "tempo": 120.0
            },
            {
                "start_time": 44.38636363636363,
                "end_time": 44.51590909090909,
                "pitch": 38,
                "velocity": 51,
                "duration": 0.12954545454545752,
                "tempo": 120.0
            },
            {
                "start_time": 44.54772727272727,
                "end_time": 44.684090909090905,
                "pitch": 40,
                "velocity": 51,
                "duration": 0.13636363636363313,
                "tempo": 120.0
            },
            {
                "start_time": 44.720454545454544,
                "end_time": 44.85681818181818,
                "pitch": 41,
                "velocity": 51,
                "duration": 0.13636363636363313,
                "tempo": 120.0
            },
            {
                "start_time": 44.893181818181816,
                "end_time": 45.043181818181814,
                "pitch": 38,
                "velocity": 51,
                "duration": 0.14999999999999858,
                "tempo": 120.0
            },
            {
                "start_time": 45.06136363636364,
                "end_time": 45.209090909090904,
                "pitch": 38,
                "velocity": 51,
                "duration": 0.14772727272726627,
                "tempo": 120.0
            },
            {
                "start_time": 45.24545454545454,
                "end_time": 45.377272727272725,
                "pitch": 40,
                "velocity": 51,
                "duration": 0.13181818181818272,
                "tempo": 120.0
            },
            {
                "start_time": 45.41136363636363,
                "end_time": 45.54545454545455,
                "pitch": 41,
                "velocity": 51,
                "duration": 0.13409090909091503,
                "tempo": 120.0
            },
            {
                "start_time": 45.57954545454545,
                "end_time": 45.711363636363636,
                "pitch": 38,
                "velocity": 51,
                "duration": 0.13181818181818272,
                "tempo": 120.0
            },
            {
                "start_time": 45.74545454545454,
                "end_time": 45.89545454545454,
                "pitch": 38,
                "velocity": 51,
                "duration": 0.14999999999999858,
                "tempo": 120.0
            },
            {
                "start_time": 45.913636363636364,
                "end_time": 46.059090909090905,
                "pitch": 40,
                "velocity": 51,
                "duration": 0.14545454545454106,
                "tempo": 120.0
            },
            {
                "start_time": 46.07727272727273,
                "end_time": 46.22272727272727,
                "pitch": 41,
                "velocity": 51,
                "duration": 0.14545454545454106,
                "tempo": 120.0
            },
            {
                "start_time": 46.25681818181818,
                "end_time": 46.393181818181816,
                "pitch": 38,
                "velocity": 51,
                "duration": 0.13636363636363313,
                "tempo": 120.0
            },
            {
                "start_time": 46.42727272727272,
                "end_time": 46.56590909090909,
                "pitch": 38,
                "velocity": 51,
                "duration": 0.13863636363636545,
                "tempo": 120.0
            },
            {
                "start_time": 46.599999999999994,
                "end_time": 46.73409090909091,
                "pitch": 40,
                "velocity": 51,
                "duration": 0.13409090909091503,
                "tempo": 120.0
            },
            {
                "start_time": 46.768181818181816,
                "end_time": 46.918181818181814,
                "pitch": 41,
                "velocity": 51,
                "duration": 0.14999999999999858,
                "tempo": 120.0
            },
            {
                "start_time": 46.934090909090905,
                "end_time": 47.08181818181818,
                "pitch": 38,
                "velocity": 51,
                "duration": 0.14772727272727337,
                "tempo": 120.0
            },
            {
                "start_time": 47.09772727272727,
                "end_time": 47.24318181818182,
                "pitch": 38,
                "velocity": 51,
                "duration": 0.14545454545454817,
                "tempo": 120.0
            },
            {
                "start_time": 47.277272727272724,
                "end_time": 47.413636363636364,
                "pitch": 40,
                "velocity": 51,
                "duration": 0.13636363636364024,
                "tempo": 120.0
            },
            {
                "start_time": 47.449999999999996,
                "end_time": 47.586363636363636,
                "pitch": 41,
                "velocity": 51,
                "duration": 0.13636363636364024,
                "tempo": 120.0
            },
            {
                "start_time": 47.62045454545454,
                "end_time": 47.75454545454545,
                "pitch": 38,
                "velocity": 51,
                "duration": 0.13409090909090793,
                "tempo": 120.0
            },
            {
                "start_time": 47.788636363636364,
                "end_time": 47.93863636363636,
                "pitch": 38,
                "velocity": 51,
                "duration": 0.14999999999999858,
                "tempo": 120.0
            },
            {
                "start_time": 47.95681818181818,
                "end_time": 48.10227272727273,
                "pitch": 40,
                "velocity": 51,
                "duration": 0.14545454545454817,
                "tempo": 120.0
            },
            {
                "start_time": 48.12045454545454,
                "end_time": 48.26590909090909,
                "pitch": 41,
                "velocity": 51,
                "duration": 0.14545454545454817,
                "tempo": 120.0
            },
            {
                "start_time": 48.29772727272727,
                "end_time": 48.434090909090905,
                "pitch": 38,
                "velocity": 51,
                "duration": 0.13636363636363313,
                "tempo": 120.0
            },
            {
                "start_time": 48.470454545454544,
                "end_time": 48.60681818181818,
                "pitch": 38,
                "velocity": 51,
                "duration": 0.13636363636363313,
                "tempo": 120.0
            },
            {
                "start_time": 48.64090909090909,
                "end_time": 48.77272727272727,
                "pitch": 40,
                "velocity": 51,
                "duration": 0.13181818181818272,
                "tempo": 120.0
            },
            {
                "start_time": 48.804545454545455,
                "end_time": 48.95227272727273,
                "pitch": 41,
                "velocity": 51,
                "duration": 0.14772727272727337,
                "tempo": 120.0
            },
            {
                "start_time": 48.96818181818182,
                "end_time": 49.11818181818182,
                "pitch": 38,
                "velocity": 51,
                "duration": 0.14999999999999858,
                "tempo": 120.0
            },
            {
                "start_time": 49.13409090909091,
                "end_time": 49.28409090909091,
                "pitch": 38,
                "velocity": 51,
                "duration": 0.14999999999999858,
                "tempo": 120.0
            },
            {
                "start_time": 49.320454545454545,
                "end_time": 49.45681818181818,
                "pitch": 40,
                "velocity": 51,
                "duration": 0.13636363636363313,
                "tempo": 120.0
            },
            {
                "start_time": 49.490909090909085,
                "end_time": 49.62954545454545,
                "pitch": 41,
                "velocity": 51,
                "duration": 0.13863636363636545,
                "tempo": 120.0
            },
            {
                "start_time": 49.663636363636364,
                "end_time": 49.793181818181814,
                "pitch": 38,
                "velocity": 51,
                "duration": 0.1295454545454504,
                "tempo": 120.0
            },
            {
                "start_time": 49.82727272727273,
                "end_time": 49.97272727272727,
                "pitch": 38,
                "velocity": 51,
                "duration": 0.14545454545454106,
                "tempo": 120.0
            },
            {
                "start_time": 49.98863636363636,
                "end_time": 50.13863636363636,
                "pitch": 40,
                "velocity": 51,
                "duration": 0.14999999999999858,
                "tempo": 120.0
            },
            {
                "start_time": 50.17272727272727,
                "end_time": 50.30681818181818,
                "pitch": 41,
                "velocity": 51,
                "duration": 0.13409090909090793,
                "tempo": 120.0
            },
            {
                "start_time": 50.340909090909086,
                "end_time": 50.47727272727273,
                "pitch": 38,
                "velocity": 51,
                "duration": 0.13636363636364024,
                "tempo": 120.0
            },
            {
                "start_time": 50.51363636363636,
                "end_time": 50.65,
                "pitch": 38,
                "velocity": 51,
                "duration": 0.13636363636364024,
                "tempo": 120.0
            },
            {
                "start_time": 50.684090909090905,
                "end_time": 50.81363636363636,
                "pitch": 40,
                "velocity": 51,
                "duration": 0.12954545454545752,
                "tempo": 120.0
            },
            {
                "start_time": 50.84772727272727,
                "end_time": 50.99318181818182,
                "pitch": 41,
                "velocity": 51,
                "duration": 0.14545454545454817,
                "tempo": 120.0
            },
            {
                "start_time": 51.01136363636363,
                "end_time": 51.15681818181818,
                "pitch": 38,
                "velocity": 51,
                "duration": 0.14545454545454817,
                "tempo": 120.0
            },
            {
                "start_time": 51.18863636363636,
                "end_time": 51.31818181818181,
                "pitch": 38,
                "velocity": 51,
                "duration": 0.1295454545454504,
                "tempo": 120.0
            },
            {
                "start_time": 51.35227272727273,
                "end_time": 51.48863636363636,
                "pitch": 40,
                "velocity": 51,
                "duration": 0.13636363636363313,
                "tempo": 120.0
            },
            {
                "start_time": 51.525,
                "end_time": 51.66136363636363,
                "pitch": 41,
                "velocity": 51,
                "duration": 0.13636363636363313,
                "tempo": 120.0
            },
            {
                "start_time": 51.69772727272727,
                "end_time": 51.84772727272727,
                "pitch": 38,
                "velocity": 51,
                "duration": 0.14999999999999858,
                "tempo": 120.0
            },
            {
                "start_time": 51.86363636363636,
                "end_time": 52.01363636363636,
                "pitch": 38,
                "velocity": 51,
                "duration": 0.14999999999999858,
                "tempo": 120.0
            },
            {
                "start_time": 52.03181818181818,
                "end_time": 52.17727272727272,
                "pitch": 40,
                "velocity": 51,
                "duration": 0.14545454545454106,
                "tempo": 120.0
            },
            {
                "start_time": 52.211363636363636,
                "end_time": 52.340909090909086,
                "pitch": 41,
                "velocity": 51,
                "duration": 0.1295454545454504,
                "tempo": 120.0
            },
            {
                "start_time": 52.375,
                "end_time": 52.51136363636363,
                "pitch": 38,
                "velocity": 51,
                "duration": 0.13636363636363313,
                "tempo": 120.0
            },
            {
                "start_time": 52.54545454545454,
                "end_time": 52.68181818181818,
                "pitch": 38,
                "velocity": 51,
                "duration": 0.13636363636364024,
                "tempo": 120.0
            },
            {
                "start_time": 52.71818181818182,
                "end_time": 52.86818181818182,
                "pitch": 40,
                "velocity": 51,
                "duration": 0.14999999999999858,
                "tempo": 120.0
            },
            {
                "start_time": 52.88636363636363,
                "end_time": 53.03636363636363,
                "pitch": 41,
                "velocity": 51,
                "duration": 0.14999999999999858,
                "tempo": 120.0
            },
            {
                "start_time": 53.05227272727272,
                "end_time": 53.199999999999996,
                "pitch": 38,
                "velocity": 51,
                "duration": 0.14772727272727337,
                "tempo": 120.0
            },
            {
                "start_time": 53.23181818181818,
                "end_time": 53.361363636363635,
                "pitch": 38,
                "velocity": 51,
                "duration": 0.12954545454545752,
                "tempo": 120.0
            },
            {
                "start_time": 53.39545454545454,
                "end_time": 53.53181818181818,
                "pitch": 40,
                "velocity": 51,
                "duration": 0.13636363636364024,
                "tempo": 120.0
            },
            {
                "start_time": 53.56590909090909,
                "end_time": 53.70454545454545,
                "pitch": 41,
                "velocity": 51,
                "duration": 0.13863636363636545,
                "tempo": 120.0
            },
            {
                "start_time": 53.73863636363636,
                "end_time": 53.88409090909091,
                "pitch": 38,
                "velocity": 51,
                "duration": 0.14545454545454817,
                "tempo": 120.0
            },
            {
                "start_time": 53.902272727272724,
                "end_time": 54.04772727272727,
                "pitch": 38,
                "velocity": 51,
                "duration": 0.14545454545454817,
                "tempo": 120.0
            },
            {
                "start_time": 54.06590909090909,
                "end_time": 54.21363636363636,
                "pitch": 40,
                "velocity": 51,
                "duration": 0.14772727272727337,
                "tempo": 120.0
            },
            {
                "start_time": 54.24772727272727,
                "end_time": 54.38181818181818,
                "pitch": 41,
                "velocity": 51,
                "duration": 0.13409090909091503,
                "tempo": 120.0
            },
            {
                "start_time": 54.418181818181814,
                "end_time": 54.55227272727272,
                "pitch": 36,
                "velocity": 51,
                "duration": 0.13409090909090793,
                "tempo": 120.0
            },
            {
                "start_time": 54.58863636363636,
                "end_time": 54.724999999999994,
                "pitch": 36,
                "velocity": 51,
                "duration": 0.13636363636363313,
                "tempo": 120.0
            },
            {
                "start_time": 54.76136363636363,
                "end_time": 54.90681818181818,
                "pitch": 36,
                "velocity": 51,
                "duration": 0.14545454545454817,
                "tempo": 120.0
            },
            {
                "start_time": 54.92272727272727,
                "end_time": 54.98863636363636,
                "pitch": 36,
                "velocity": 51,
                "duration": 0.06590909090908781,
                "tempo": 120.0
            },
            {
                "start_time": 55.00454545454545,
                "end_time": 55.06818181818181,
                "pitch": 36,
                "velocity": 51,
                "duration": 0.0636363636363626,
                "tempo": 120.0
            },
            {
                "start_time": 55.086363636363636,
                "end_time": 55.23181818181818,
                "pitch": 36,
                "velocity": 51,
                "duration": 0.14545454545454106,
                "tempo": 120.0
            },
            {
                "start_time": 55.26590909090909,
                "end_time": 55.39545454545454,
                "pitch": 36,
                "velocity": 51,
                "duration": 0.1295454545454504,
                "tempo": 120.0
            },
            {
                "start_time": 55.42727272727272,
                "end_time": 55.56590909090909,
                "pitch": 36,
                "velocity": 51,
                "duration": 0.13863636363636545,
                "tempo": 120.0
            },
            {
                "start_time": 55.599999999999994,
                "end_time": 55.65,
                "pitch": 36,
                "velocity": 51,
                "duration": 0.05000000000000426,
                "tempo": 120.0
            },
            {
                "start_time": 55.68636363636363,
                "end_time": 55.736363636363635,
                "pitch": 36,
                "velocity": 51,
                "duration": 0.05000000000000426,
                "tempo": 120.0
            },
            {
                "start_time": 55.77272727272727,
                "end_time": 55.92272727272727,
                "pitch": 36,
                "velocity": 51,
                "duration": 0.14999999999999858,
                "tempo": 120.0
            },
            {
                "start_time": 55.94090909090909,
                "end_time": 56.090909090909086,
                "pitch": 36,
                "velocity": 51,
                "duration": 0.14999999999999858,
                "tempo": 120.0
            },
            {
                "start_time": 56.125,
                "end_time": 56.26136363636363,
                "pitch": 36,
                "velocity": 51,
                "duration": 0.13636363636363313,
                "tempo": 120.0
            },
            {
                "start_time": 56.29545454545454,
                "end_time": 56.34772727272727,
                "pitch": 36,
                "velocity": 51,
                "duration": 0.05227272727272947,
                "tempo": 120.0
            },
            {
                "start_time": 56.381818181818176,
                "end_time": 56.434090909090905,
                "pitch": 36,
                "velocity": 51,
                "duration": 0.05227272727272947,
                "tempo": 120.0
            },
            {
                "start_time": 56.46818181818182,
                "end_time": 56.59772727272727,
                "pitch": 36,
                "velocity": 51,
                "duration": 0.1295454545454504,
                "tempo": 120.0
            },
            {
                "start_time": 56.631818181818176,
                "end_time": 56.777272727272724,
                "pitch": 36,
                "velocity": 51,
                "duration": 0.14545454545454817,
                "tempo": 120.0
            },
            {
                "start_time": 56.793181818181814,
                "end_time": 56.94318181818181,
                "pitch": 36,
                "velocity": 51,
                "duration": 0.14999999999999858,
                "tempo": 120.0
            },
            {
                "start_time": 56.961363636363636,
                "end_time": 57.027272727272724,
                "pitch": 36,
                "velocity": 51,
                "duration": 0.06590909090908781,
                "tempo": 120.0
            },
            {
                "start_time": 57.04545454545454,
                "end_time": 57.111363636363635,
                "pitch": 36,
                "velocity": 51,
                "duration": 0.06590909090909491,
                "tempo": 120.0
            },
            {
                "start_time": 57.14545454545454,
                "end_time": 57.28181818181818,
                "pitch": 29,
                "velocity": 51,
                "duration": 0.13636363636364024,
                "tempo": 120.0
            },
            {
                "start_time": 57.31590909090909,
                "end_time": 57.45454545454545,
                "pitch": 29,
                "velocity": 51,
                "duration": 0.13863636363636545,
                "tempo": 120.0
            },
            {
                "start_time": 57.48863636363636,
                "end_time": 57.62045454545454,
                "pitch": 29,
                "velocity": 51,
                "duration": 0.13181818181818272,
                "tempo": 120.0
            },
            {
                "start_time": 57.652272727272724,
                "end_time": 57.699999999999996,
                "pitch": 29,
                "velocity": 51,
                "duration": 0.04772727272727195,
                "tempo": 120.0
            },
            {
                "start_time": 57.73409090909091,
                "end_time": 57.79772727272727,
                "pitch": 29,
                "velocity": 51,
                "duration": 0.0636363636363626,
                "tempo": 120.0
            },
            {
                "start_time": 57.81590909090909,
                "end_time": 57.961363636363636,
                "pitch": 29,
                "velocity": 51,
                "duration": 0.14545454545454817,
                "tempo": 120.0
            },
            {
                "start_time": 57.97727272727273,
                "end_time": 58.12272727272727,
                "pitch": 29,
                "velocity": 51,
                "duration": 0.14545454545454106,
                "tempo": 120.0
            },
            {
                "start_time": 58.15681818181818,
                "end_time": 58.293181818181814,
                "pitch": 29,
                "velocity": 51,
                "duration": 0.13636363636363313,
                "tempo": 120.0
            },
            {
                "start_time": 58.32954545454545,
                "end_time": 58.37954545454545,
                "pitch": 29,
                "velocity": 51,
                "duration": 0.04999999999999716,
                "tempo": 120.0
            },
            {
                "start_time": 58.413636363636364,
                "end_time": 58.465909090909086,
                "pitch": 29,
                "velocity": 51,
                "duration": 0.052272727272722364,
                "tempo": 120.0
            },
            {
                "start_time": 58.502272727272725,
                "end_time": 58.63409090909091,
                "pitch": 29,
                "velocity": 51,
                "duration": 0.13181818181818272,
                "tempo": 120.0
            },
            {
                "start_time": 58.668181818181814,
                "end_time": 58.81818181818181,
                "pitch": 29,
                "velocity": 51,
                "duration": 0.14999999999999858,
                "tempo": 120.0
            },
            {
                "start_time": 58.836363636363636,
                "end_time": 58.98181818181818,
                "pitch": 29,
                "velocity": 51,
                "duration": 0.14545454545454106,
                "tempo": 120.0
            },
            {
                "start_time": 59.0,
                "end_time": 59.06363636363636,
                "pitch": 29,
                "velocity": 51,
                "duration": 0.0636363636363626,
                "tempo": 120.0
            },
            {
                "start_time": 59.095454545454544,
                "end_time": 59.14545454545454,
                "pitch": 29,
                "velocity": 51,
                "duration": 0.04999999999999716,
                "tempo": 120.0
            },
            {
                "start_time": 59.179545454545455,
                "end_time": 59.31590909090909,
                "pitch": 29,
                "velocity": 51,
                "duration": 0.13636363636363313,
                "tempo": 120.0
            },
            {
                "start_time": 59.349999999999994,
                "end_time": 59.48863636363636,
                "pitch": 29,
                "velocity": 51,
                "duration": 0.13863636363636545,
                "tempo": 120.0
            },
            {
                "start_time": 59.52272727272727,
                "end_time": 59.65681818181818,
                "pitch": 29,
                "velocity": 51,
                "duration": 0.13409090909090793,
                "tempo": 120.0
            },
            {
                "start_time": 59.69090909090909,
                "end_time": 59.756818181818176,
                "pitch": 29,
                "velocity": 51,
                "duration": 0.06590909090908781,
                "tempo": 120.0
            },
            {
                "start_time": 59.77272727272727,
                "end_time": 59.840909090909086,
                "pitch": 29,
                "velocity": 51,
                "duration": 0.06818181818181301,
                "tempo": 120.0
            },
            {
                "start_time": 59.85909090909091,
                "end_time": 60.00454545454545,
                "pitch": 38,
                "velocity": 51,
                "duration": 0.14545454545454106,
                "tempo": 120.0
            },
            {
                "start_time": 60.02045454545454,
                "end_time": 60.16590909090909,
                "pitch": 38,
                "velocity": 51,
                "duration": 0.14545454545454817,
                "tempo": 120.0
            },
            {
                "start_time": 60.199999999999996,
                "end_time": 60.336363636363636,
                "pitch": 38,
                "velocity": 51,
                "duration": 0.13636363636364024,
                "tempo": 120.0
            },
            {
                "start_time": 60.37045454545454,
                "end_time": 60.42272727272727,
                "pitch": 38,
                "velocity": 51,
                "duration": 0.05227272727272947,
                "tempo": 120.0
            },
            {
                "start_time": 60.45681818181818,
                "end_time": 60.50909090909091,
                "pitch": 38,
                "velocity": 51,
                "duration": 0.05227272727272947,
                "tempo": 120.0
            },
            {
                "start_time": 60.543181818181814,
                "end_time": 60.67272727272727,
                "pitch": 38,
                "velocity": 51,
                "duration": 0.12954545454545752,
                "tempo": 120.0
            },
            {
                "start_time": 60.70681818181818,
                "end_time": 60.85227272727273,
                "pitch": 38,
                "velocity": 51,
                "duration": 0.14545454545454817,
                "tempo": 120.0
            },
            {
                "start_time": 60.86818181818182,
                "end_time": 61.018181818181816,
                "pitch": 38,
                "velocity": 51,
                "duration": 0.14999999999999858,
                "tempo": 120.0
            },
            {
                "start_time": 61.05227272727272,
                "end_time": 61.10227272727273,
                "pitch": 38,
                "velocity": 51,
                "duration": 0.05000000000000426,
                "tempo": 120.0
            },
            {
                "start_time": 61.13636363636363,
                "end_time": 61.18636363636363,
                "pitch": 38,
                "velocity": 51,
                "duration": 0.04999999999999716,
                "tempo": 120.0
            },
            {
                "start_time": 61.220454545454544,
                "end_time": 61.35681818181818,
                "pitch": 38,
                "velocity": 51,
                "duration": 0.13636363636363313,
                "tempo": 120.0
            },
            {
                "start_time": 61.393181818181816,
                "end_time": 61.52954545454545,
                "pitch": 38,
                "velocity": 51,
                "duration": 0.13636363636363313,
                "tempo": 120.0
            },
            {
                "start_time": 61.56590909090909,
                "end_time": 61.711363636363636,
                "pitch": 38,
                "velocity": 51,
                "duration": 0.14545454545454817,
                "tempo": 120.0
            },
            {
                "start_time": 61.72727272727273,
                "end_time": 61.793181818181814,
                "pitch": 38,
                "velocity": 51,
                "duration": 0.06590909090908781,
                "tempo": 120.0
            },
            {
                "start_time": 61.809090909090905,
                "end_time": 61.875,
                "pitch": 38,
                "velocity": 51,
                "duration": 0.06590909090909491,
                "tempo": 120.0
            },
            {
                "start_time": 61.89090909090909,
                "end_time": 62.04090909090909,
                "pitch": 38,
                "velocity": 51,
                "duration": 0.14999999999999858,
                "tempo": 120.0
            },
            {
                "start_time": 62.074999999999996,
                "end_time": 62.209090909090904,
                "pitch": 38,
                "velocity": 51,
                "duration": 0.13409090909090793,
                "tempo": 120.0
            },
            {
                "start_time": 62.24318181818182,
                "end_time": 62.37954545454545,
                "pitch": 38,
                "velocity": 51,
                "duration": 0.13636363636363313,
                "tempo": 120.0
            },
            {
                "start_time": 62.413636363636364,
                "end_time": 62.46363636363636,
                "pitch": 38,
                "velocity": 51,
                "duration": 0.04999999999999716,
                "tempo": 120.0
            },
            {
                "start_time": 62.5,
                "end_time": 62.55227272727272,
                "pitch": 38,
                "velocity": 51,
                "duration": 0.052272727272722364,
                "tempo": 120.0
            },
            {
                "start_time": 62.586363636363636,
                "end_time": 62.73181818181818,
                "pitch": 31,
                "velocity": 51,
                "duration": 0.14545454545454106,
                "tempo": 120.0
            },
            {
                "start_time": 62.75,
                "end_time": 62.89545454545454,
                "pitch": 31,
                "velocity": 51,
                "duration": 0.14545454545454106,
                "tempo": 120.0
            },
            {
                "start_time": 62.91136363636363,
                "end_time": 63.05681818181818,
                "pitch": 31,
                "velocity": 51,
                "duration": 0.14545454545454817,
                "tempo": 120.0
            },
            {
                "start_time": 63.090909090909086,
                "end_time": 63.13863636363636,
                "pitch": 31,
                "velocity": 51,
                "duration": 0.04772727272727195,
                "tempo": 120.0
            },
            {
                "start_time": 63.17272727272727,
                "end_time": 63.220454545454544,
                "pitch": 31,
                "velocity": 51,
                "duration": 0.04772727272727195,
                "tempo": 120.0
            },
            {
                "start_time": 63.25454545454545,
                "end_time": 63.39090909090909,
                "pitch": 31,
                "velocity": 51,
                "duration": 0.13636363636364024,
                "tempo": 120.0
            },
            {
                "start_time": 63.425,
                "end_time": 63.56363636363636,
                "pitch": 31,
                "velocity": 51,
                "duration": 0.13863636363636545,
                "tempo": 120.0
            },
            {
                "start_time": 63.59772727272727,
                "end_time": 63.74772727272727,
                "pitch": 31,
                "velocity": 51,
                "duration": 0.14999999999999858,
                "tempo": 120.0
            },
            {
                "start_time": 63.76590909090909,
                "end_time": 63.83181818181818,
                "pitch": 31,
                "velocity": 51,
                "duration": 0.06590909090908781,
                "tempo": 120.0
            },
            {
                "start_time": 63.849999999999994,
                "end_time": 63.91590909090909,
                "pitch": 31,
                "velocity": 51,
                "duration": 0.06590909090909491,
                "tempo": 120.0
            },
            {
                "start_time": 63.934090909090905,
                "end_time": 64.07954545454545,
                "pitch": 31,
                "velocity": 51,
                "duration": 0.14545454545454817,
                "tempo": 120.0
            },
            {
                "start_time": 64.11136363636363,
                "end_time": 64.24090909090908,
                "pitch": 31,
                "velocity": 51,
                "duration": 0.1295454545454504,
                "tempo": 120.0
            },
            {
                "start_time": 64.27499999999999,
                "end_time": 64.41136363636363,
                "pitch": 31,
                "velocity": 51,
                "duration": 0.13636363636364024,
                "tempo": 120.0
            },
            {
                "start_time": 64.44772727272726,
                "end_time": 64.49772727272727,
                "pitch": 31,
                "velocity": 51,
                "duration": 0.05000000000001137,
                "tempo": 120.0
            },
            {
                "start_time": 64.53181818181818,
                "end_time": 64.5840909090909,
                "pitch": 31,
                "velocity": 51,
                "duration": 0.052272727272722364,
                "tempo": 120.0
            },
            {
                "start_time": 64.61818181818181,
                "end_time": 64.76590909090909,
                "pitch": 31,
                "velocity": 51,
                "duration": 0.14772727272728048,
                "tempo": 120.0
            },
            {
                "start_time": 64.78181818181818,
                "end_time": 64.92727272727272,
                "pitch": 31,
                "velocity": 51,
                "duration": 0.14545454545454106,
                "tempo": 120.0
            },
            {
                "start_time": 64.94545454545454,
                "end_time": 65.09545454545454,
                "pitch": 31,
                "velocity": 51,
                "duration": 0.15000000000000568,
                "tempo": 120.0
            },
            {
                "start_time": 65.12954545454545,
                "end_time": 65.17727272727272,
                "pitch": 31,
                "velocity": 51,
                "duration": 0.04772727272727195,
                "tempo": 120.0
            },
            {
                "start_time": 65.21136363636363,
                "end_time": 65.26136363636364,
                "pitch": 31,
                "velocity": 51,
                "duration": 0.05000000000001137,
                "tempo": 120.0
            },
            {
                "start_time": 65.29772727272727,
                "end_time": 65.43409090909091,
                "pitch": 36,
                "velocity": 51,
                "duration": 0.13636363636364024,
                "tempo": 120.0
            },
            {
                "start_time": 65.46818181818182,
                "end_time": 65.60454545454544,
                "pitch": 36,
                "velocity": 51,
                "duration": 0.13636363636362603,
                "tempo": 120.0
            },
            {
                "start_time": 65.64090909090909,
                "end_time": 65.79090909090908,
                "pitch": 36,
                "velocity": 51,
                "duration": 0.14999999999999147,
                "tempo": 120.0
            },
            {
                "start_time": 65.80909090909091,
                "end_time": 65.875,
                "pitch": 36,
                "velocity": 51,
                "duration": 0.06590909090908781,
                "tempo": 120.0
            },
            {
                "start_time": 65.89090909090909,
                "end_time": 65.9590909090909,
                "pitch": 36,
                "velocity": 51,
                "duration": 0.06818181818181301,
                "tempo": 120.0
            },
            {
                "start_time": 65.99318181818181,
                "end_time": 66.125,
                "pitch": 36,
                "velocity": 51,
                "duration": 0.13181818181818983,
                "tempo": 120.0
            },
            {
                "start_time": 66.1590909090909,
                "end_time": 66.29318181818182,
                "pitch": 36,
                "velocity": 51,
                "duration": 0.13409090909091503,
                "tempo": 120.0
            },
            {
                "start_time": 66.32727272727273,
                "end_time": 66.46136363636363,
                "pitch": 36,
                "velocity": 51,
                "duration": 0.13409090909090082,
                "tempo": 120.0
            },
            {
                "start_time": 66.49545454545454,
                "end_time": 66.54318181818182,
                "pitch": 36,
                "velocity": 51,
                "duration": 0.04772727272728616,
                "tempo": 120.0
            },
            {
                "start_time": 66.57727272727273,
                "end_time": 66.64545454545454,
                "pitch": 36,
                "velocity": 51,
                "duration": 0.06818181818181301,
                "tempo": 120.0
            },
            {
                "start_time": 66.66136363636363,
                "end_time": 66.80909090909091,
                "pitch": 36,
                "velocity": 51,
                "duration": 0.14772727272728048,
                "tempo": 120.0
            },
            {
                "start_time": 66.825,
                "end_time": 66.97045454545454,
                "pitch": 36,
                "velocity": 51,
                "duration": 0.14545454545454106,
                "tempo": 120.0
            },
            {
                "start_time": 67.00454545454545,
                "end_time": 67.14090909090909,
                "pitch": 36,
                "velocity": 51,
                "duration": 0.13636363636364024,
                "tempo": 120.0
            },
            {
                "start_time": 67.17727272727272,
                "end_time": 67.22727272727272,
                "pitch": 36,
                "velocity": 51,
                "duration": 0.04999999999999716,
                "tempo": 120.0
            },
            {
                "start_time": 67.26136363636363,
                "end_time": 67.31363636363636,
                "pitch": 36,
                "velocity": 51,
                "duration": 0.052272727272736574,
                "tempo": 120.0
            },
            {
                "start_time": 67.34772727272727,
                "end_time": 67.48181818181818,
                "pitch": 36,
                "velocity": 51,
                "duration": 0.13409090909091503,
                "tempo": 120.0
            },
            {
                "start_time": 67.51590909090909,
                "end_time": 67.66590909090908,
                "pitch": 36,
                "velocity": 51,
                "duration": 0.14999999999999147,
                "tempo": 120.0
            },
            {
                "start_time": 67.68409090909091,
                "end_time": 67.82954545454545,
                "pitch": 36,
                "velocity": 51,
                "duration": 0.14545454545454106,
                "tempo": 120.0
            },
            {
                "start_time": 67.84545454545454,
                "end_time": 67.91136363636363,
                "pitch": 36,
                "velocity": 51,
                "duration": 0.06590909090908781,
                "tempo": 120.0
            },
            {
                "start_time": 67.92727272727272,
                "end_time": 67.99090909090908,
                "pitch": 36,
                "velocity": 51,
                "duration": 0.0636363636363626,
                "tempo": 120.0
            },
            {
                "start_time": 68.02499999999999,
                "end_time": 68.16136363636363,
                "pitch": 29,
                "velocity": 51,
                "duration": 0.13636363636364024,
                "tempo": 120.0
            },
            {
                "start_time": 68.19772727272726,
                "end_time": 68.3340909090909,
                "pitch": 29,
                "velocity": 51,
                "duration": 0.13636363636364024,
                "tempo": 120.0
            },
            {
                "start_time": 68.36818181818181,
                "end_time": 68.5,
                "pitch": 29,
                "velocity": 51,
                "duration": 0.13181818181818983,
                "tempo": 120.0
            },
            {
                "start_time": 68.53181818181818,
                "end_time": 68.57954545454545,
                "pitch": 29,
                "velocity": 51,
                "duration": 0.04772727272727195,
                "tempo": 120.0
            },
            {
                "start_time": 68.61363636363636,
                "end_time": 68.67727272727272,
                "pitch": 29,
                "velocity": 51,
                "duration": 0.0636363636363626,
                "tempo": 120.0
            },
            {
                "start_time": 68.69545454545454,
                "end_time": 68.84545454545454,
                "pitch": 29,
                "velocity": 51,
                "duration": 0.15000000000000568,
                "tempo": 120.0
            },
            {
                "start_time": 68.86136363636363,
                "end_time": 69.01136363636363,
                "pitch": 29,
                "velocity": 51,
                "duration": 0.14999999999999147,
                "tempo": 120.0
            },
            {
                "start_time": 69.04545454545455,
                "end_time": 69.18409090909091,
                "pitch": 29,
                "velocity": 51,
                "duration": 0.13863636363636545,
                "tempo": 120.0
            },
            {
                "start_time": 69.21818181818182,
                "end_time": 69.26818181818182,
                "pitch": 29,
                "velocity": 51,
                "duration": 0.04999999999999716,
                "tempo": 120.0
            },
            {
                "start_time": 69.30454545454545,
                "end_time": 69.35454545454544,
                "pitch": 29,
                "velocity": 51,
                "duration": 0.04999999999999716,
                "tempo": 120.0
            },
            {
                "start_time": 69.39090909090909,
                "end_time": 69.52045454545454,
                "pitch": 29,
                "velocity": 51,
                "duration": 0.1295454545454504,
                "tempo": 120.0
            },
            {
                "start_time": 69.55227272727272,
                "end_time": 69.7,
                "pitch": 29,
                "velocity": 51,
                "duration": 0.14772727272728048,
                "tempo": 120.0
            },
            {
                "start_time": 69.7159090909091,
                "end_time": 69.86590909090908,
                "pitch": 29,
                "velocity": 51,
                "duration": 0.14999999999999147,
                "tempo": 120.0
            },
            {
                "start_time": 69.8840909090909,
                "end_time": 69.95,
                "pitch": 29,
                "velocity": 51,
                "duration": 0.06590909090910202,
                "tempo": 120.0
            },
            {
                "start_time": 69.98409090909091,
                "end_time": 70.0340909090909,
                "pitch": 29,
                "velocity": 51,
                "duration": 0.04999999999999716,
                "tempo": 120.0
            },
            {
                "start_time": 70.06818181818181,
                "end_time": 70.2,
                "pitch": 29,
                "velocity": 51,
                "duration": 0.13181818181818983,
                "tempo": 120.0
            },
            {
                "start_time": 70.23409090909091,
                "end_time": 70.36818181818181,
                "pitch": 29,
                "velocity": 51,
                "duration": 0.13409090909090082,
                "tempo": 120.0
            },
            {
                "start_time": 70.40227272727273,
                "end_time": 70.53636363636363,
                "pitch": 29,
                "velocity": 51,
                "duration": 0.13409090909090082,
                "tempo": 120.0
            },
            {
                "start_time": 70.56818181818181,
                "end_time": 70.63636363636363,
                "pitch": 29,
                "velocity": 51,
                "duration": 0.06818181818181301,
                "tempo": 120.0
            },
            {
                "start_time": 70.65227272727273,
                "end_time": 70.72045454545454,
                "pitch": 29,
                "velocity": 51,
                "duration": 0.06818181818181301,
                "tempo": 120.0
            },
            {
                "start_time": 70.73863636363636,
                "end_time": 70.88181818181818,
                "pitch": 33,
                "velocity": 51,
                "duration": 0.14318181818181586,
                "tempo": 120.0
            },
            {
                "start_time": 70.91590909090908,
                "end_time": 71.04545454545455,
                "pitch": 33,
                "velocity": 51,
                "duration": 0.12954545454546462,
                "tempo": 120.0
            },
            {
                "start_time": 71.07954545454545,
                "end_time": 71.2159090909091,
                "pitch": 33,
                "velocity": 51,
                "duration": 0.13636363636364024,
                "tempo": 120.0
            },
            {
                "start_time": 71.25,
                "end_time": 71.30227272727272,
                "pitch": 33,
                "velocity": 51,
                "duration": 0.052272727272722364,
                "tempo": 120.0
            },
            {
                "start_time": 71.33636363636363,
                "end_time": 71.38863636363637,
                "pitch": 33,
                "velocity": 51,
                "duration": 0.052272727272736574,
                "tempo": 120.0
            },
            {
                "start_time": 71.42272727272727,
                "end_time": 71.57272727272726,
                "pitch": 33,
                "velocity": 51,
                "duration": 0.14999999999999147,
                "tempo": 120.0
            },
            {
                "start_time": 71.5909090909091,
                "end_time": 71.74090909090908,
                "pitch": 33,
                "velocity": 51,
                "duration": 0.14999999999999147,
                "tempo": 120.0
            },
            {
                "start_time": 71.75681818181818,
                "end_time": 71.90454545454546,
                "pitch": 33,
                "velocity": 51,
                "duration": 0.14772727272728048,
                "tempo": 120.0
            },
            {
                "start_time": 71.93636363636364,
                "end_time": 71.98636363636363,
                "pitch": 33,
                "velocity": 51,
                "duration": 0.04999999999999716,
                "tempo": 120.0
            },
            {
                "start_time": 72.01818181818182,
                "end_time": 72.06590909090909,
                "pitch": 33,
                "velocity": 51,
                "duration": 0.04772727272727195,
                "tempo": 120.0
            },
            {
                "start_time": 72.1,
                "end_time": 72.23636363636363,
                "pitch": 33,
                "velocity": 51,
                "duration": 0.13636363636364024,
                "tempo": 120.0
            },
            {
                "start_time": 72.27272727272727,
                "end_time": 72.4090909090909,
                "pitch": 33,
                "velocity": 51,
                "duration": 0.13636363636364024,
                "tempo": 120.0
            },
            {
                "start_time": 72.44545454545454,
                "end_time": 72.59545454545454,
                "pitch": 33,
                "velocity": 51,
                "duration": 0.15000000000000568,
                "tempo": 120.0
            },
            {
                "start_time": 72.61136363636363,
                "end_time": 72.67727272727272,
                "pitch": 33,
                "velocity": 51,
                "duration": 0.06590909090908781,
                "tempo": 120.0
            },
            {
                "start_time": 72.69545454545454,
                "end_time": 72.76136363636363,
                "pitch": 33,
                "velocity": 51,
                "duration": 0.06590909090908781,
                "tempo": 120.0
            },
            {
                "start_time": 72.77954545454546,
                "end_time": 72.925,
                "pitch": 33,
                "velocity": 51,
                "duration": 0.14545454545454106,
                "tempo": 120.0
            },
            {
                "start_time": 72.9590909090909,
                "end_time": 73.08863636363635,
                "pitch": 33,
                "velocity": 51,
                "duration": 0.1295454545454504,
                "tempo": 120.0
            },
            {
                "start_time": 73.12045454545454,
                "end_time": 73.2590909090909,
                "pitch": 33,
                "velocity": 51,
                "duration": 0.13863636363636545,
                "tempo": 120.0
            },
            {
                "start_time": 73.29318181818182,
                "end_time": 73.34318181818182,
                "pitch": 33,
                "velocity": 51,
                "duration": 0.04999999999999716,
                "tempo": 120.0
            },
            {
                "start_time": 73.37954545454545,
                "end_time": 73.42954545454545,
                "pitch": 33,
                "velocity": 51,
                "duration": 0.04999999999999716,
                "tempo": 120.0
            },
            {
                "start_time": 73.4659090909091,
                "end_time": 73.61136363636363,
                "pitch": 38,
                "velocity": 51,
                "duration": 0.14545454545454106,
                "tempo": 120.0
            },
            {
                "start_time": 73.62727272727273,
                "end_time": 73.77499999999999,
                "pitch": 38,
                "velocity": 51,
                "duration": 0.14772727272726627,
                "tempo": 120.0
            },
            {
                "start_time": 73.79090909090908,
                "end_time": 73.94090909090909,
                "pitch": 38,
                "velocity": 51,
                "duration": 0.15000000000000568,
                "tempo": 120.0
            },
            {
                "start_time": 73.975,
                "end_time": 74.02499999999999,
                "pitch": 38,
                "velocity": 51,
                "duration": 0.04999999999999716,
                "tempo": 120.0
            },
            {
                "start_time": 74.05909090909091,
                "end_time": 74.10909090909091,
                "pitch": 38,
                "velocity": 51,
                "duration": 0.04999999999999716,
                "tempo": 120.0
            },
            {
                "start_time": 74.14318181818182,
                "end_time": 74.27499999999999,
                "pitch": 38,
                "velocity": 51,
                "duration": 0.13181818181817562,
                "tempo": 120.0
            },
            {
                "start_time": 74.30909090909091,
                "end_time": 74.44318181818181,
                "pitch": 38,
                "velocity": 51,
                "duration": 0.13409090909090082,
                "tempo": 120.0
            },
            {
                "start_time": 74.47727272727272,
                "end_time": 74.62727272727273,
                "pitch": 38,
                "velocity": 51,
                "duration": 0.15000000000000568,
                "tempo": 120.0
            },
            {
                "start_time": 74.64318181818182,
                "end_time": 74.71136363636363,
                "pitch": 38,
                "velocity": 51,
                "duration": 0.06818181818181301,
                "tempo": 120.0
            },
            {
                "start_time": 74.72727272727272,
                "end_time": 74.79545454545455,
                "pitch": 38,
                "velocity": 51,
                "duration": 0.06818181818182723,
                "tempo": 120.0
            },
            {
                "start_time": 74.81136363636364,
                "end_time": 74.95681818181818,
                "pitch": 38,
                "velocity": 51,
                "duration": 0.14545454545454106,
                "tempo": 120.0
            },
            {
                "start_time": 74.99090909090908,
                "end_time": 75.12045454545454,
                "pitch": 38,
                "velocity": 51,
                "duration": 0.1295454545454504,
                "tempo": 120.0
            },
            {
                "start_time": 75.15454545454546,
                "end_time": 75.29318181818182,
                "pitch": 38,
                "velocity": 51,
                "duration": 0.13863636363636545,
                "tempo": 120.0
            },
            {
                "start_time": 75.32954545454545,
                "end_time": 75.38181818181818,
                "pitch": 38,
                "velocity": 51,
                "duration": 0.052272727272722364,
                "tempo": 120.0
            },
            {
                "start_time": 75.41818181818182,
                "end_time": 75.47272727272727,
                "pitch": 38,
                "velocity": 51,
                "duration": 0.05454545454544757,
                "tempo": 120.0
            },
            {
                "start_time": 75.5090909090909,
                "end_time": 75.65454545454546,
                "pitch": 38,
                "velocity": 51,
                "duration": 0.14545454545455527,
                "tempo": 120.0
            },
            {
                "start_time": 75.67045454545455,
                "end_time": 75.81590909090909,
                "pitch": 38,
                "velocity": 51,
                "duration": 0.14545454545454106,
                "tempo": 120.0
            },
            {
                "start_time": 75.85,
                "end_time": 75.98636363636363,
                "pitch": 38,
                "velocity": 51,
                "duration": 0.13636363636364024,
                "tempo": 120.0
            },
            {
                "start_time": 76.02272727272727,
                "end_time": 76.07272727272726,
                "pitch": 38,
                "velocity": 51,
                "duration": 0.04999999999999716,
                "tempo": 120.0
            },
            {
                "start_time": 76.10681818181818,
                "end_time": 76.1590909090909,
                "pitch": 38,
                "velocity": 51,
                "duration": 0.052272727272722364,
                "tempo": 120.0
            },
            {
                "start_time": 76.19545454545454,
                "end_time": 76.32272727272726,
                "pitch": 43,
                "velocity": 51,
                "duration": 0.1272727272727252,
                "tempo": 120.0
            },
            {
                "start_time": 76.35681818181818,
                "end_time": 76.48636363636363,
                "pitch": 43,
                "velocity": 51,
                "duration": 0.1295454545454504,
                "tempo": 120.0
            },
            {
                "start_time": 76.52045454545454,
                "end_time": 76.67045454545455,
                "pitch": 43,
                "velocity": 51,
                "duration": 0.15000000000000568,
                "tempo": 120.0
            },
            {
                "start_time": 76.68636363636364,
                "end_time": 76.83636363636363,
                "pitch": 43,
                "velocity": 51,
                "duration": 0.14999999999999147,
                "tempo": 120.0
            },
            {
                "start_time": 76.87045454545454,
                "end_time": 77.0090909090909,
                "pitch": 43,
                "velocity": 51,
                "duration": 0.13863636363636545,
                "tempo": 120.0
            },
            {
                "start_time": 77.04318181818182,
                "end_time": 77.17954545454545,
                "pitch": 43,
                "velocity": 51,
                "duration": 0.13636363636362603,
                "tempo": 120.0
            },
            {
                "start_time": 77.2159090909091,
                "end_time": 77.34545454545454,
                "pitch": 43,
                "velocity": 51,
                "duration": 0.1295454545454504,
                "tempo": 120.0
            },
            {
                "start_time": 77.37954545454545,
                "end_time": 77.52499999999999,
                "pitch": 43,
                "velocity": 51,
                "duration": 0.14545454545454106,
                "tempo": 120.0
            },
            {
                "start_time": 77.54090909090908,
                "end_time": 77.69090909090909,
                "pitch": 41,
                "velocity": 51,
                "duration": 0.15000000000000568,
                "tempo": 120.0
            },
            {
                "start_time": 77.7090909090909,
                "end_time": 77.85909090909091,
                "pitch": 41,
                "velocity": 51,
                "duration": 0.15000000000000568,
                "tempo": 120.0
            },
            {
                "start_time": 77.89318181818182,
                "end_time": 78.02954545454546,
                "pitch": 41,
                "velocity": 51,
                "duration": 0.13636363636364024,
                "tempo": 120.0
            },
            {
                "start_time": 78.06363636363636,
                "end_time": 78.20227272727273,
                "pitch": 41,
                "velocity": 51,
                "duration": 0.13863636363636545,
                "tempo": 120.0
            },
            {
                "start_time": 78.23636363636363,
                "end_time": 78.36590909090908,
                "pitch": 41,
                "velocity": 51,
                "duration": 0.1295454545454504,
                "tempo": 120.0
            },
            {
                "start_time": 78.39999999999999,
                "end_time": 78.54545454545455,
                "pitch": 41,
                "velocity": 51,
                "duration": 0.14545454545455527,
                "tempo": 120.0
            },
            {
                "start_time": 78.56363636363636,
                "end_time": 78.71136363636363,
                "pitch": 41,
                "velocity": 51,
                "duration": 0.14772727272726627,
                "tempo": 120.0
            },
            {
                "start_time": 78.72954545454544,
                "end_time": 78.87954545454545,
                "pitch": 41,
                "velocity": 51,
                "duration": 0.15000000000000568,
                "tempo": 120.0
            },
            {
                "start_time": 78.91363636363636,
                "end_time": 79.05,
                "pitch": 40,
                "velocity": 51,
                "duration": 0.13636363636364024,
                "tempo": 120.0
            },
            {
                "start_time": 79.08636363636363,
                "end_time": 79.22272727272727,
                "pitch": 40,
                "velocity": 51,
                "duration": 0.13636363636364024,
                "tempo": 120.0
            },
            {
                "start_time": 79.25681818181818,
                "end_time": 79.38863636363637,
                "pitch": 40,
                "velocity": 51,
                "duration": 0.13181818181818983,
                "tempo": 120.0
            },
            {
                "start_time": 79.42045454545455,
                "end_time": 79.56590909090909,
                "pitch": 40,
                "velocity": 51,
                "duration": 0.14545454545454106,
                "tempo": 120.0
            },
            {
                "start_time": 79.5840909090909,
                "end_time": 79.72954545454544,
                "pitch": 40,
                "velocity": 51,
                "duration": 0.14545454545454106,
                "tempo": 120.0
            },
            {
                "start_time": 79.74545454545454,
                "end_time": 79.89318181818182,
                "pitch": 40,
                "velocity": 51,
                "duration": 0.14772727272728048,
                "tempo": 120.0
            },
            {
                "start_time": 79.925,
                "end_time": 80.06363636363636,
                "pitch": 40,
                "velocity": 51,
                "duration": 0.13863636363636545,
                "tempo": 120.0
            },
            {
                "start_time": 80.09772727272727,
                "end_time": 80.23409090909091,
                "pitch": 40,
                "velocity": 51,
                "duration": 0.13636363636364024,
                "tempo": 120.0
            },
            {
                "start_time": 80.27045454545454,
                "end_time": 80.40227272727272,
                "pitch": 39,
                "velocity": 51,
                "duration": 0.13181818181817562,
                "tempo": 120.0
            },
            {
                "start_time": 80.43636363636364,
                "end_time": 80.58636363636363,
                "pitch": 39,
                "velocity": 51,
                "duration": 0.14999999999999147,
                "tempo": 120.0
            },
            {
                "start_time": 80.60454545454544,
                "end_time": 80.75,
                "pitch": 39,
                "velocity": 51,
                "duration": 0.14545454545455527,
                "tempo": 120.0
            },
            {
                "start_time": 80.76818181818182,
                "end_time": 80.91363636363636,
                "pitch": 39,
                "velocity": 51,
                "duration": 0.14545454545454106,
                "tempo": 120.0
            },
            {
                "start_time": 80.94772727272726,
                "end_time": 81.0840909090909,
                "pitch": 39,
                "velocity": 51,
                "duration": 0.13636363636364024,
                "tempo": 120.0
            },
            {
                "start_time": 81.11818181818181,
                "end_time": 81.25681818181818,
                "pitch": 39,
                "velocity": 51,
                "duration": 0.13863636363636545,
                "tempo": 120.0
            },
            {
                "start_time": 81.29090909090908,
                "end_time": 81.42045454545455,
                "pitch": 39,
                "velocity": 51,
                "duration": 0.12954545454546462,
                "tempo": 120.0
            },
            {
                "start_time": 81.45454545454545,
                "end_time": 81.6,
                "pitch": 39,
                "velocity": 51,
                "duration": 0.14545454545454106,
                "tempo": 120.0
            },
            {
                "start_time": 81.61818181818181,
                "end_time": 81.76590909090909,
                "pitch": 43,
                "velocity": 51,
                "duration": 0.14772727272728048,
                "tempo": 120.0
            },
            {
                "start_time": 81.8,
                "end_time": 81.93409090909091,
                "pitch": 43,
                "velocity": 51,
                "duration": 0.13409090909091503,
                "tempo": 120.0
            },
            {
                "start_time": 81.96818181818182,
                "end_time": 82.10454545454544,
                "pitch": 43,
                "velocity": 51,
                "duration": 0.13636363636362603,
                "tempo": 120.0
            },
            {
                "start_time": 82.13863636363637,
                "end_time": 82.27727272727272,
                "pitch": 43,
                "velocity": 51,
                "duration": 0.13863636363635123,
                "tempo": 120.0
            },
            {
                "start_time": 82.31363636363636,
                "end_time": 82.4590909090909,
                "pitch": 43,
                "velocity": 51,
                "duration": 0.14545454545454106,
                "tempo": 120.0
            },
            {
                "start_time": 82.475,
                "end_time": 82.62045454545454,
                "pitch": 43,
                "velocity": 51,
                "duration": 0.14545454545454106,
                "tempo": 120.0
            },
            {
                "start_time": 82.63863636363637,
                "end_time": 82.78863636363636,
                "pitch": 43,
                "velocity": 51,
                "duration": 0.14999999999999147,
                "tempo": 120.0
            },
            {
                "start_time": 82.82272727272726,
                "end_time": 82.95454545454545,
                "pitch": 43,
                "velocity": 51,
                "duration": 0.13181818181818983,
                "tempo": 120.0
            },
            {
                "start_time": 82.98863636363636,
                "end_time": 83.12272727272727,
                "pitch": 41,
                "velocity": 51,
                "duration": 0.13409090909091503,
                "tempo": 120.0
            },
            {
                "start_time": 83.15681818181818,
                "end_time": 83.28863636363636,
                "pitch": 41,
                "velocity": 51,
                "duration": 0.13181818181817562,
                "tempo": 120.0
            },
            {
                "start_time": 83.32272727272726,
                "end_time": 83.47272727272727,
                "pitch": 41,
                "velocity": 51,
                "duration": 0.15000000000000568,
                "tempo": 120.0
            },
            {
                "start_time": 83.49090909090908,
                "end_time": 83.64090909090909,
                "pitch": 41,
                "velocity": 51,
                "duration": 0.15000000000000568,
                "tempo": 120.0
            },
            {
                "start_time": 83.6590909090909,
                "end_time": 83.8090909090909,
                "pitch": 41,
                "velocity": 51,
                "duration": 0.14999999999999147,
                "tempo": 120.0
            },
            {
                "start_time": 83.84318181818182,
                "end_time": 83.975,
                "pitch": 41,
                "velocity": 51,
                "duration": 0.13181818181817562,
                "tempo": 120.0
            },
            {
                "start_time": 84.0090909090909,
                "end_time": 84.14318181818182,
                "pitch": 41,
                "velocity": 51,
                "duration": 0.13409090909091503,
                "tempo": 120.0
            },
            {
                "start_time": 84.17727272727272,
                "end_time": 84.31136363636364,
                "pitch": 41,
                "velocity": 51,
                "duration": 0.13409090909091503,
                "tempo": 120.0
            },
            {
                "start_time": 84.34545454545454,
                "end_time": 84.49545454545454,
                "pitch": 40,
                "velocity": 51,
                "duration": 0.14999999999999147,
                "tempo": 120.0
            },
            {
                "start_time": 84.51136363636363,
                "end_time": 84.66136363636363,
                "pitch": 40,
                "velocity": 51,
                "duration": 0.15000000000000568,
                "tempo": 120.0
            },
            {
                "start_time": 84.67954545454545,
                "end_time": 84.825,
                "pitch": 40,
                "velocity": 51,
                "duration": 0.14545454545455527,
                "tempo": 120.0
            },
            {
                "start_time": 84.85909090909091,
                "end_time": 84.98863636363636,
                "pitch": 40,
                "velocity": 51,
                "duration": 0.1295454545454504,
                "tempo": 120.0
            },
            {
                "start_time": 85.02272727272727,
                "end_time": 85.1590909090909,
                "pitch": 40,
                "velocity": 51,
                "duration": 0.13636363636364024,
                "tempo": 120.0
            },
            {
                "start_time": 85.19318181818181,
                "end_time": 85.33181818181818,
                "pitch": 40,
                "velocity": 51,
                "duration": 0.13863636363636545,
                "tempo": 120.0
            },
            {
                "start_time": 85.36590909090908,
                "end_time": 85.51590909090909,
                "pitch": 40,
                "velocity": 51,
                "duration": 0.15000000000000568,
                "tempo": 120.0
            },
            {
                "start_time": 85.5340909090909,
                "end_time": 85.6840909090909,
                "pitch": 40,
                "velocity": 51,
                "duration": 0.14999999999999147,
                "tempo": 120.0
            },
            {
                "start_time": 85.70227272727273,
                "end_time": 85.84772727272727,
                "pitch": 39,
                "velocity": 51,
                "duration": 0.14545454545454106,
                "tempo": 120.0
            },
            {
                "start_time": 85.87954545454545,
                "end_time": 86.0090909090909,
                "pitch": 39,
                "velocity": 51,
                "duration": 0.1295454545454504,
                "tempo": 120.0
            },
            {
                "start_time": 86.04318181818181,
                "end_time": 86.17954545454545,
                "pitch": 39,
                "velocity": 51,
                "duration": 0.13636363636364024,
                "tempo": 120.0
            },
            {
                "start_time": 86.21363636363635,
                "end_time": 86.35227272727272,
                "pitch": 39,
                "velocity": 51,
                "duration": 0.13863636363636545,
                "tempo": 120.0
            },
            {
                "start_time": 86.38636363636363,
                "end_time": 86.53636363636363,
                "pitch": 39,
                "velocity": 51,
                "duration": 0.15000000000000568,
                "tempo": 120.0
            },
            {
                "start_time": 86.55454545454545,
                "end_time": 86.70454545454545,
                "pitch": 39,
                "velocity": 51,
                "duration": 0.15000000000000568,
                "tempo": 120.0
            },
            {
                "start_time": 86.73863636363636,
                "end_time": 86.87272727272727,
                "pitch": 39,
                "velocity": 51,
                "duration": 0.13409090909091503,
                "tempo": 120.0
            },
            {
                "start_time": 86.90681818181818,
                "end_time": 87.03863636363636,
                "pitch": 39,
                "velocity": 51,
                "duration": 0.13181818181817562,
                "tempo": 120.0
            },
            {
                "start_time": 87.075,
                "end_time": 87.20681818181818,
                "pitch": 43,
                "velocity": 51,
                "duration": 0.13181818181817562,
                "tempo": 120.0
            },
            {
                "start_time": 87.24090909090908,
                "end_time": 87.39090909090909,
                "pitch": 43,
                "velocity": 51,
                "duration": 0.15000000000000568,
                "tempo": 120.0
            },
            {
                "start_time": 87.40681818181818,
                "end_time": 87.55454545454545,
                "pitch": 43,
                "velocity": 51,
                "duration": 0.14772727272726627,
                "tempo": 120.0
            },
            {
                "start_time": 87.57045454545454,
                "end_time": 87.7159090909091,
                "pitch": 43,
                "velocity": 51,
                "duration": 0.14545454545455527,
                "tempo": 120.0
            },
            {
                "start_time": 87.75,
                "end_time": 87.88636363636363,
                "pitch": 43,
                "velocity": 51,
                "duration": 0.13636363636362603,
                "tempo": 120.0
            },
            {
                "start_time": 87.92045454545455,
                "end_time": 88.0590909090909,
                "pitch": 43,
                "velocity": 51,
                "duration": 0.13863636363635123,
                "tempo": 120.0
            },
            {
                "start_time": 88.09318181818182,
                "end_time": 88.22272727272727,
                "pitch": 43,
                "velocity": 51,
                "duration": 0.1295454545454504,
                "tempo": 120.0
            },
            {
                "start_time": 88.25681818181818,
                "end_time": 88.40227272727272,
                "pitch": 43,
                "velocity": 51,
                "duration": 0.14545454545454106,
                "tempo": 120.0
            },
            {
                "start_time": 88.42045454545455,
                "end_time": 88.57045454545454,
                "pitch": 43,
                "velocity": 51,
                "duration": 0.14999999999999147,
                "tempo": 120.0
            },
            {
                "start_time": 88.58636363636363,
                "end_time": 88.73636363636363,
                "pitch": 43,
                "velocity": 51,
                "duration": 0.15000000000000568,
                "tempo": 120.0
            },
            {
                "start_time": 88.77045454545454,
                "end_time": 88.9090909090909,
                "pitch": 43,
                "velocity": 51,
                "duration": 0.13863636363636545,
                "tempo": 120.0
            },
            {
                "start_time": 88.94318181818181,
                "end_time": 89.07954545454545,
                "pitch": 43,
                "velocity": 51,
                "duration": 0.13636363636364024,
                "tempo": 120.0
            },
            {
                "start_time": 89.11590909090908,
                "end_time": 89.24545454545454,
                "pitch": 43,
                "velocity": 51,
                "duration": 0.1295454545454504,
                "tempo": 120.0
            },
            {
                "start_time": 89.27727272727272,
                "end_time": 89.425,
                "pitch": 43,
                "velocity": 51,
                "duration": 0.14772727272728048,
                "tempo": 120.0
            },
            {
                "start_time": 89.44090909090909,
                "end_time": 89.5909090909091,
                "pitch": 43,
                "velocity": 51,
                "duration": 0.15000000000000568,
                "tempo": 120.0
            },
            {
                "start_time": 89.60681818181818,
                "end_time": 89.7590909090909,
                "pitch": 43,
                "velocity": 51,
                "duration": 0.15227272727271668,
                "tempo": 120.0
            },
            {
                "start_time": 89.79545454545455,
                "end_time": 89.92954545454545,
                "pitch": 31,
                "velocity": 51,
                "duration": 0.13409090909090082,
                "tempo": 120.0
            }
        ]
    }
}