{
    "track_id": "18 Darkmare",
    "mood": "happy",
    "instruments": {
        "Electric Piano 1": [
            {
                "start_time": 0.1590909090909091,
                "end_time": 0.22272727272727272,
                "pitch": 59,
                "velocity": 127,
                "duration": 0.06363636363636363,
                "tempo": 120.0
            },
            {
                "start_time": 0.22272727272727272,
                "end_time": 0.2409090909090909,
                "pitch": 57,
                "velocity": 127,
                "duration": 0.018181818181818188,
                "tempo": 120.0
            },
            {
                "start_time": 0.2409090909090909,
                "end_time": 0.3068181818181818,
                "pitch": 57,
                "velocity": 127,
                "duration": 0.06590909090909092,
                "tempo": 120.0
            },
            {
                "start_time": 0.3068181818181818,
                "end_time": 0.3227272727272727,
                "pitch": 54,
                "velocity": 127,
                "duration": 0.015909090909090873,
                "tempo": 120.0
            },
            {
                "start_time": 0.325,
                "end_time": 0.3409090909090909,
                "pitch": 55,
                "velocity": 127,
                "duration": 0.015909090909090873,
                "tempo": 120.0
            },
            {
                "start_time": 0.3068181818181818,
                "end_time": 0.3409090909090909,
                "pitch": 67,
                "velocity": 127,
                "duration": 0.03409090909090906,
                "tempo": 120.0
            },
            {
                "start_time": 0.3409090909090909,
                "end_time": 0.3909090909090909,
                "pitch": 54,
                "velocity": 127,
                "duration": 0.04999999999999999,
                "tempo": 120.0
            },
            {
                "start_time": 0.3909090909090909,
                "end_time": 0.4068181818181818,
                "pitch": 52,
                "velocity": 127,
                "duration": 0.01590909090909093,
                "tempo": 120.0
            },
            {
                "start_time": 0.4068181818181818,
                "end_time": 0.475,
                "pitch": 47,
                "velocity": 127,
                "duration": 0.06818181818181818,
                "tempo": 120.0
            },
            {
                "start_time": 0.475,
                "end_time": 0.4909090909090909,
                "pitch": 45,
                "velocity": 127,
                "duration": 0.01590909090909093,
                "tempo": 120.0
            },
            {
                "start_time": 0.4909090909090909,
                "end_time": 0.5409090909090909,
                "pitch": 41,
                "velocity": 127,
                "duration": 0.04999999999999999,
                "tempo": 120.0
            },
            {
                "start_time": 0.5409090909090909,
                "end_time": 0.575,
                "pitch": 38,
                "velocity": 127,
                "duration": 0.03409090909090906,
                "tempo": 120.0
            },
            {
                "start_time": 0.575,
                "end_time": 0.5909090909090908,
                "pitch": 43,
                "velocity": 127,
                "duration": 0.015909090909090873,
                "tempo": 120.0
            },
            {
                "start_time": 0.5909090909090908,
                "end_time": 0.6409090909090909,
                "pitch": 42,
                "velocity": 127,
                "duration": 0.050000000000000044,
                "tempo": 120.0
            },
            {
                "start_time": 0.6409090909090909,
                "end_time": 0.6568181818181817,
                "pitch": 40,
                "velocity": 127,
                "duration": 0.015909090909090873,
                "tempo": 120.0
            },
            {
                "start_time": 0.6568181818181817,
                "end_time": 0.725,
                "pitch": 47,
                "velocity": 127,
                "duration": 0.06818181818181823,
                "tempo": 120.0
            },
            {
                "start_time": 0.725,
                "end_time": 0.7431818181818182,
                "pitch": 45,
                "velocity": 127,
                "duration": 0.018181818181818188,
                "tempo": 120.0
            },
            {
                "start_time": 0.7431818181818182,
                "end_time": 0.7931818181818181,
                "pitch": 41,
                "velocity": 127,
                "duration": 0.04999999999999993,
                "tempo": 120.0
            },
            {
                "start_time": 0.7931818181818181,
                "end_time": 0.8295454545454545,
                "pitch": 38,
                "velocity": 127,
                "duration": 0.036363636363636376,
                "tempo": 120.0
            },
            {
                "start_time": 0.8295454545454545,
                "end_time": 0.8454545454545455,
                "pitch": 43,
                "velocity": 127,
                "duration": 0.015909090909090984,
                "tempo": 120.0
            },
            {
                "start_time": 0.5909090909090908,
                "end_time": 0.8454545454545455,
                "pitch": 55,
                "velocity": 127,
                "duration": 0.25454545454545463,
                "tempo": 120.0
            },
            {
                "start_time": 0.8454545454545455,
                "end_time": 0.8977272727272727,
                "pitch": 42,
                "velocity": 127,
                "duration": 0.05227272727272725,
                "tempo": 120.0
            },
            {
                "start_time": 0.8977272727272727,
                "end_time": 0.9136363636363636,
                "pitch": 40,
                "velocity": 127,
                "duration": 0.015909090909090873,
                "tempo": 120.0
            },
            {
                "start_time": 0.9136363636363636,
                "end_time": 0.9818181818181818,
                "pitch": 47,
                "velocity": 127,
                "duration": 0.06818181818181823,
                "tempo": 120.0
            },
            {
                "start_time": 0.9818181818181818,
                "end_time": 1.0,
                "pitch": 45,
                "velocity": 127,
                "duration": 0.018181818181818188,
                "tempo": 120.0
            },
            {
                "start_time": 1.0,
                "end_time": 1.05,
                "pitch": 41,
                "velocity": 127,
                "duration": 0.050000000000000044,
                "tempo": 120.0
            },
            {
                "start_time": 1.05,
                "end_time": 1.084090909090909,
                "pitch": 38,
                "velocity": 127,
                "duration": 0.03409090909090895,
                "tempo": 120.0
            },
            {
                "start_time": 1.0863636363636364,
                "end_time": 1.1022727272727273,
                "pitch": 43,
                "velocity": 127,
                "duration": 0.015909090909090873,
                "tempo": 120.0
            },
            {
                "start_time": 0.8454545454545455,
                "end_time": 1.1022727272727273,
                "pitch": 55,
                "velocity": 127,
                "duration": 0.25681818181818183,
                "tempo": 120.0
            },
            {
                "start_time": 1.1022727272727273,
                "end_time": 1.1545454545454545,
                "pitch": 42,
                "velocity": 127,
                "duration": 0.05227272727272725,
                "tempo": 120.0
            },
            {
                "start_time": 1.1545454545454545,
                "end_time": 1.1704545454545454,
                "pitch": 40,
                "velocity": 127,
                "duration": 0.015909090909090873,
                "tempo": 120.0
            },
            {
                "start_time": 1.1704545454545454,
                "end_time": 1.2386363636363635,
                "pitch": 47,
                "velocity": 127,
                "duration": 0.06818181818181812,
                "tempo": 120.0
            },
            {
                "start_time": 1.2386363636363635,
                "end_time": 1.2545454545454544,
                "pitch": 45,
                "velocity": 127,
                "duration": 0.015909090909090873,
                "tempo": 120.0
            },
            {
                "start_time": 1.2545454545454544,
                "end_time": 1.3045454545454545,
                "pitch": 41,
                "velocity": 127,
                "duration": 0.050000000000000044,
                "tempo": 120.0
            },
            {
                "start_time": 1.3045454545454545,
                "end_time": 1.3386363636363636,
                "pitch": 38,
                "velocity": 127,
                "duration": 0.03409090909090917,
                "tempo": 120.0
            },
            {
                "start_time": 1.3386363636363636,
                "end_time": 1.3545454545454545,
                "pitch": 43,
                "velocity": 127,
                "duration": 0.015909090909090873,
                "tempo": 120.0
            },
            {
                "start_time": 1.1022727272727273,
                "end_time": 1.3545454545454545,
                "pitch": 55,
                "velocity": 127,
                "duration": 0.2522727272727272,
                "tempo": 120.0
            },
            {
                "start_time": 1.3545454545454545,
                "end_time": 1.4045454545454545,
                "pitch": 42,
                "velocity": 127,
                "duration": 0.050000000000000044,
                "tempo": 120.0
            },
            {
                "start_time": 1.4045454545454545,
                "end_time": 1.4204545454545454,
                "pitch": 40,
                "velocity": 127,
                "duration": 0.015909090909090873,
                "tempo": 120.0
            },
            {
                "start_time": 1.4227272727272726,
                "end_time": 1.4886363636363635,
                "pitch": 47,
                "velocity": 127,
                "duration": 0.06590909090909092,
                "tempo": 120.0
            },
            {
                "start_time": 1.4886363636363635,
                "end_time": 1.5045454545454544,
                "pitch": 45,
                "velocity": 127,
                "duration": 0.015909090909090873,
                "tempo": 120.0
            },
            {
                "start_time": 1.5045454545454544,
                "end_time": 1.5545454545454545,
                "pitch": 41,
                "velocity": 127,
                "duration": 0.050000000000000044,
                "tempo": 120.0
            },
            {
                "start_time": 1.5545454545454545,
                "end_time": 1.5886363636363636,
                "pitch": 38,
                "velocity": 127,
                "duration": 0.03409090909090917,
                "tempo": 120.0
            },
            {
                "start_time": 1.5886363636363636,
                "end_time": 1.6045454545454545,
                "pitch": 43,
                "velocity": 127,
                "duration": 0.015909090909090873,
                "tempo": 120.0
            },
            {
                "start_time": 1.3545454545454545,
                "end_time": 1.6045454545454545,
                "pitch": 55,
                "velocity": 127,
                "duration": 0.25,
                "tempo": 120.0
            },
            {
                "start_time": 1.6045454545454545,
                "end_time": 1.6545454545454545,
                "pitch": 42,
                "velocity": 127,
                "duration": 0.050000000000000044,
                "tempo": 120.0
            },
            {
                "start_time": 1.6545454545454545,
                "end_time": 1.6704545454545454,
                "pitch": 40,
                "velocity": 127,
                "duration": 0.015909090909090873,
                "tempo": 120.0
            },
            {
                "start_time": 1.6727272727272726,
                "end_time": 1.7386363636363635,
                "pitch": 47,
                "velocity": 127,
                "duration": 0.06590909090909092,
                "tempo": 120.0
            },
            {
                "start_time": 1.7386363636363635,
                "end_time": 1.7545454545454544,
                "pitch": 45,
                "velocity": 127,
                "duration": 0.015909090909090873,
                "tempo": 120.0
            },
            {
                "start_time": 1.7545454545454544,
                "end_time": 1.8045454545454545,
                "pitch": 41,
                "velocity": 127,
                "duration": 0.050000000000000044,
                "tempo": 120.0
            },
            {
                "start_time": 1.8045454545454545,
                "end_time": 1.8386363636363636,
                "pitch": 38,
                "velocity": 127,
                "duration": 0.03409090909090917,
                "tempo": 120.0
            },
            {
                "start_time": 1.8386363636363636,
                "end_time": 1.8545454545454545,
                "pitch": 43,
                "velocity": 127,
                "duration": 0.015909090909090873,
                "tempo": 120.0
            },
            {
                "start_time": 1.6045454545454545,
                "end_time": 1.8545454545454545,
                "pitch": 55,
                "velocity": 127,
                "duration": 0.25,
                "tempo": 120.0
            },
            {
                "start_time": 1.8545454545454545,
                "end_time": 1.9045454545454545,
                "pitch": 42,
                "velocity": 127,
                "duration": 0.050000000000000044,
                "tempo": 120.0
            },
            {
                "start_time": 1.9045454545454545,
                "end_time": 1.9227272727272726,
                "pitch": 40,
                "velocity": 127,
                "duration": 0.018181818181818077,
                "tempo": 120.0
            },
            {
                "start_time": 1.9227272727272726,
                "end_time": 1.9886363636363635,
                "pitch": 47,
                "velocity": 127,
                "duration": 0.06590909090909092,
                "tempo": 120.0
            },
            {
                "start_time": 1.9886363636363635,
                "end_time": 2.0045454545454544,
                "pitch": 45,
                "velocity": 127,
                "duration": 0.015909090909090873,
                "tempo": 120.0
            },
            {
                "start_time": 2.006818181818182,
                "end_time": 2.0545454545454542,
                "pitch": 41,
                "velocity": 127,
                "duration": 0.047727272727272396,
                "tempo": 120.0
            },
            {
                "start_time": 2.0545454545454542,
                "end_time": 2.0886363636363634,
                "pitch": 38,
                "velocity": 127,
                "duration": 0.03409090909090917,
                "tempo": 120.0
            },
            {
                "start_time": 2.0886363636363634,
                "end_time": 2.1045454545454545,
                "pitch": 43,
                "velocity": 127,
                "duration": 0.015909090909091095,
                "tempo": 120.0
            },
            {
                "start_time": 1.8545454545454545,
                "end_time": 2.1045454545454545,
                "pitch": 55,
                "velocity": 127,
                "duration": 0.25,
                "tempo": 120.0
            },
            {
                "start_time": 2.1045454545454545,
                "end_time": 2.1545454545454543,
                "pitch": 42,
                "velocity": 127,
                "duration": 0.04999999999999982,
                "tempo": 120.0
            },
            {
                "start_time": 2.1545454545454543,
                "end_time": 2.172727272727273,
                "pitch": 40,
                "velocity": 127,
                "duration": 0.01818181818181852,
                "tempo": 120.0
            },
            {
                "start_time": 2.172727272727273,
                "end_time": 2.2386363636363633,
                "pitch": 59,
                "velocity": 127,
                "duration": 0.06590909090909047,
                "tempo": 120.0
            },
            {
                "start_time": 2.2386363636363633,
                "end_time": 2.256818181818182,
                "pitch": 57,
                "velocity": 127,
                "duration": 0.01818181818181852,
                "tempo": 120.0
            },
            {
                "start_time": 2.256818181818182,
                "end_time": 2.3227272727272728,
                "pitch": 57,
                "velocity": 127,
                "duration": 0.06590909090909092,
                "tempo": 120.0
            },
            {
                "start_time": 0.3409090909090909,
                "end_time": 2.3227272727272728,
                "pitch": 67,
                "velocity": 127,
                "duration": 1.981818181818182,
                "tempo": 120.0
            },
            {
                "start_time": 2.3227272727272728,
                "end_time": 2.340909090909091,
                "pitch": 54,
                "velocity": 127,
                "duration": 0.018181818181818077,
                "tempo": 120.0
            },
            {
                "start_time": 2.1045454545454545,
                "end_time": 2.356818181818182,
                "pitch": 55,
                "velocity": 127,
                "duration": 0.2522727272727274,
                "tempo": 120.0
            },
            {
                "start_time": 2.340909090909091,
                "end_time": 2.356818181818182,
                "pitch": 55,
                "velocity": 127,
                "duration": 0.015909090909091095,
                "tempo": 120.0
            },
            {
                "start_time": 2.3227272727272728,
                "end_time": 2.356818181818182,
                "pitch": 67,
                "velocity": 127,
                "duration": 0.03409090909090917,
                "tempo": 120.0
            },
            {
                "start_time": 2.356818181818182,
                "end_time": 2.4068181818181817,
                "pitch": 54,
                "velocity": 127,
                "duration": 0.04999999999999982,
                "tempo": 120.0
            },
            {
                "start_time": 2.4068181818181817,
                "end_time": 2.425,
                "pitch": 52,
                "velocity": 127,
                "duration": 0.018181818181818077,
                "tempo": 120.0
            },
            {
                "start_time": 2.425,
                "end_time": 2.4909090909090907,
                "pitch": 47,
                "velocity": 127,
                "duration": 0.06590909090909092,
                "tempo": 120.0
            },
            {
                "start_time": 2.4909090909090907,
                "end_time": 2.509090909090909,
                "pitch": 45,
                "velocity": 127,
                "duration": 0.018181818181818077,
                "tempo": 120.0
            },
            {
                "start_time": 2.509090909090909,
                "end_time": 2.559090909090909,
                "pitch": 41,
                "velocity": 127,
                "duration": 0.050000000000000266,
                "tempo": 120.0
            },
            {
                "start_time": 2.559090909090909,
                "end_time": 2.5931818181818183,
                "pitch": 38,
                "velocity": 127,
                "duration": 0.03409090909090917,
                "tempo": 120.0
            },
            {
                "start_time": 2.5931818181818183,
                "end_time": 2.609090909090909,
                "pitch": 43,
                "velocity": 127,
                "duration": 0.01590909090909065,
                "tempo": 120.0
            },
            {
                "start_time": 2.609090909090909,
                "end_time": 2.661363636363636,
                "pitch": 42,
                "velocity": 127,
                "duration": 0.05227272727272725,
                "tempo": 120.0
            },
            {
                "start_time": 2.661363636363636,
                "end_time": 2.6772727272727272,
                "pitch": 40,
                "velocity": 127,
                "duration": 0.015909090909091095,
                "tempo": 120.0
            },
            {
                "start_time": 2.6772727272727272,
                "end_time": 2.743181818181818,
                "pitch": 47,
                "velocity": 127,
                "duration": 0.06590909090909092,
                "tempo": 120.0
            },
            {
                "start_time": 2.743181818181818,
                "end_time": 2.7613636363636362,
                "pitch": 45,
                "velocity": 127,
                "duration": 0.018181818181818077,
                "tempo": 120.0
            },
            {
                "start_time": 2.7613636363636362,
                "end_time": 2.811363636363636,
                "pitch": 41,
                "velocity": 127,
                "duration": 0.04999999999999982,
                "tempo": 120.0
            },
            {
                "start_time": 2.811363636363636,
                "end_time": 2.8431818181818183,
                "pitch": 38,
                "velocity": 127,
                "duration": 0.03181818181818219,
                "tempo": 120.0
            },
            {
                "start_time": 2.8454545454545452,
                "end_time": 2.8613636363636363,
                "pitch": 43,
                "velocity": 127,
                "duration": 0.015909090909091095,
                "tempo": 120.0
            },
            {
                "start_time": 2.609090909090909,
                "end_time": 2.8613636363636363,
                "pitch": 55,
                "velocity": 127,
                "duration": 0.2522727272727274,
                "tempo": 120.0
            },
            {
                "start_time": 2.8613636363636363,
                "end_time": 2.911363636363636,
                "pitch": 42,
                "velocity": 127,
                "duration": 0.04999999999999982,
                "tempo": 120.0
            },
            {
                "start_time": 2.911363636363636,
                "end_time": 2.9272727272727272,
                "pitch": 40,
                "velocity": 127,
                "duration": 0.015909090909091095,
                "tempo": 120.0
            },
            {
                "start_time": 2.9272727272727272,
                "end_time": 2.993181818181818,
                "pitch": 47,
                "velocity": 127,
                "duration": 0.06590909090909092,
                "tempo": 120.0
            },
            {
                "start_time": 2.993181818181818,
                "end_time": 3.0113636363636362,
                "pitch": 45,
                "velocity": 127,
                "duration": 0.018181818181818077,
                "tempo": 120.0
            },
            {
                "start_time": 3.0113636363636362,
                "end_time": 3.061363636363636,
                "pitch": 41,
                "velocity": 127,
                "duration": 0.04999999999999982,
                "tempo": 120.0
            },
            {
                "start_time": 3.061363636363636,
                "end_time": 3.093181818181818,
                "pitch": 38,
                "velocity": 127,
                "duration": 0.031818181818181746,
                "tempo": 120.0
            },
            {
                "start_time": 3.0954545454545452,
                "end_time": 3.1113636363636363,
                "pitch": 43,
                "velocity": 127,
                "duration": 0.015909090909091095,
                "tempo": 120.0
            },
            {
                "start_time": 2.8613636363636363,
                "end_time": 3.1113636363636363,
                "pitch": 55,
                "velocity": 127,
                "duration": 0.25,
                "tempo": 120.0
            },
            {
                "start_time": 3.1113636363636363,
                "end_time": 3.161363636363636,
                "pitch": 42,
                "velocity": 127,
                "duration": 0.04999999999999982,
                "tempo": 120.0
            },
            {
                "start_time": 3.161363636363636,
                "end_time": 3.1772727272727272,
                "pitch": 40,
                "velocity": 127,
                "duration": 0.015909090909091095,
                "tempo": 120.0
            },
            {
                "start_time": 3.1772727272727272,
                "end_time": 3.245454545454545,
                "pitch": 47,
                "velocity": 127,
                "duration": 0.0681818181818179,
                "tempo": 120.0
            },
            {
                "start_time": 3.245454545454545,
                "end_time": 3.2613636363636362,
                "pitch": 45,
                "velocity": 127,
                "duration": 0.015909090909091095,
                "tempo": 120.0
            },
            {
                "start_time": 3.2613636363636362,
                "end_time": 3.311363636363636,
                "pitch": 41,
                "velocity": 127,
                "duration": 0.04999999999999982,
                "tempo": 120.0
            },
            {
                "start_time": 3.311363636363636,
                "end_time": 3.3454545454545452,
                "pitch": 38,
                "velocity": 127,
                "duration": 0.03409090909090917,
                "tempo": 120.0
            },
            {
                "start_time": 3.3454545454545452,
                "end_time": 3.3613636363636363,
                "pitch": 43,
                "velocity": 127,
                "duration": 0.015909090909091095,
                "tempo": 120.0
            },
            {
                "start_time": 3.1113636363636363,
                "end_time": 3.3613636363636363,
                "pitch": 55,
                "velocity": 127,
                "duration": 0.25,
                "tempo": 120.0
            },
            {
                "start_time": 3.3613636363636363,
                "end_time": 3.411363636363636,
                "pitch": 42,
                "velocity": 127,
                "duration": 0.04999999999999982,
                "tempo": 120.0
            },
            {
                "start_time": 3.411363636363636,
                "end_time": 3.4272727272727272,
                "pitch": 40,
                "velocity": 127,
                "duration": 0.015909090909091095,
                "tempo": 120.0
            },
            {
                "start_time": 3.4295454545454542,
                "end_time": 3.495454545454545,
                "pitch": 47,
                "velocity": 127,
                "duration": 0.06590909090909092,
                "tempo": 120.0
            },
            {
                "start_time": 3.495454545454545,
                "end_time": 3.5113636363636362,
                "pitch": 45,
                "velocity": 127,
                "duration": 0.015909090909091095,
                "tempo": 120.0
            },
            {
                "start_time": 3.5113636363636362,
                "end_time": 3.561363636363636,
                "pitch": 41,
                "velocity": 127,
                "duration": 0.04999999999999982,
                "tempo": 120.0
            },
            {
                "start_time": 3.561363636363636,
                "end_time": 3.5954545454545452,
                "pitch": 38,
                "velocity": 127,
                "duration": 0.03409090909090917,
                "tempo": 120.0
            },
            {
                "start_time": 3.5954545454545452,
                "end_time": 3.6113636363636363,
                "pitch": 43,
                "velocity": 127,
                "duration": 0.015909090909091095,
                "tempo": 120.0
            },
            {
                "start_time": 3.3613636363636363,
                "end_time": 3.6113636363636363,
                "pitch": 55,
                "velocity": 127,
                "duration": 0.25,
                "tempo": 120.0
            },
            {
                "start_time": 3.6113636363636363,
                "end_time": 3.661363636363636,
                "pitch": 42,
                "velocity": 127,
                "duration": 0.04999999999999982,
                "tempo": 120.0
            },
            {
                "start_time": 3.661363636363636,
                "end_time": 3.6772727272727272,
                "pitch": 40,
                "velocity": 127,
                "duration": 0.015909090909091095,
                "tempo": 120.0
            },
            {
                "start_time": 3.6795454545454542,
                "end_time": 3.745454545454545,
                "pitch": 47,
                "velocity": 127,
                "duration": 0.06590909090909092,
                "tempo": 120.0
            },
            {
                "start_time": 3.745454545454545,
                "end_time": 3.7613636363636362,
                "pitch": 45,
                "velocity": 127,
                "duration": 0.015909090909091095,
                "tempo": 120.0
            },
            {
                "start_time": 3.7613636363636362,
                "end_time": 3.811363636363636,
                "pitch": 41,
                "velocity": 127,
                "duration": 0.04999999999999982,
                "tempo": 120.0
            },
            {
                "start_time": 3.811363636363636,
                "end_time": 3.8454545454545452,
                "pitch": 38,
                "velocity": 127,
                "duration": 0.03409090909090917,
                "tempo": 120.0
            },
            {
                "start_time": 3.8454545454545452,
                "end_time": 3.8613636363636363,
                "pitch": 43,
                "velocity": 127,
                "duration": 0.015909090909091095,
                "tempo": 120.0
            },
            {
                "start_time": 3.6113636363636363,
                "end_time": 3.8613636363636363,
                "pitch": 55,
                "velocity": 127,
                "duration": 0.25,
                "tempo": 120.0
            },
            {
                "start_time": 3.8613636363636363,
                "end_time": 3.911363636363636,
                "pitch": 42,
                "velocity": 127,
                "duration": 0.04999999999999982,
                "tempo": 120.0
            },
            {
                "start_time": 3.911363636363636,
                "end_time": 3.9295454545454542,
                "pitch": 40,
                "velocity": 127,
                "duration": 0.018181818181818077,
                "tempo": 120.0
            },
            {
                "start_time": 3.9295454545454542,
                "end_time": 3.995454545454545,
                "pitch": 47,
                "velocity": 127,
                "duration": 0.06590909090909092,
                "tempo": 120.0
            },
            {
                "start_time": 3.995454545454545,
                "end_time": 4.011363636363636,
                "pitch": 45,
                "velocity": 127,
                "duration": 0.01590909090909065,
                "tempo": 120.0
            },
            {
                "start_time": 4.011363636363636,
                "end_time": 4.0613636363636365,
                "pitch": 41,
                "velocity": 127,
                "duration": 0.05000000000000071,
                "tempo": 120.0
            },
            {
                "start_time": 4.0613636363636365,
                "end_time": 4.095454545454546,
                "pitch": 38,
                "velocity": 127,
                "duration": 0.03409090909090917,
                "tempo": 120.0
            },
            {
                "start_time": 4.095454545454546,
                "end_time": 4.111363636363636,
                "pitch": 43,
                "velocity": 127,
                "duration": 0.01590909090909065,
                "tempo": 120.0
            },
            {
                "start_time": 3.8613636363636363,
                "end_time": 4.111363636363636,
                "pitch": 55,
                "velocity": 127,
                "duration": 0.25,
                "tempo": 120.0
            },
            {
                "start_time": 4.111363636363636,
                "end_time": 4.161363636363636,
                "pitch": 42,
                "velocity": 127,
                "duration": 0.04999999999999982,
                "tempo": 120.0
            },
            {
                "start_time": 4.161363636363636,
                "end_time": 4.179545454545455,
                "pitch": 40,
                "velocity": 127,
                "duration": 0.01818181818181852,
                "tempo": 120.0
            },
            {
                "start_time": 4.179545454545455,
                "end_time": 4.195454545454545,
                "pitch": 50,
                "velocity": 127,
                "duration": 0.01590909090909065,
                "tempo": 120.0
            },
            {
                "start_time": 4.195454545454545,
                "end_time": 4.245454545454545,
                "pitch": 50,
                "velocity": 127,
                "duration": 0.04999999999999982,
                "tempo": 120.0
            },
            {
                "start_time": 4.245454545454545,
                "end_time": 4.279545454545454,
                "pitch": 47,
                "velocity": 127,
                "duration": 0.03409090909090917,
                "tempo": 120.0
            },
            {
                "start_time": 4.279545454545454,
                "end_time": 4.3113636363636365,
                "pitch": 45,
                "velocity": 127,
                "duration": 0.03181818181818219,
                "tempo": 120.0
            },
            {
                "start_time": 4.3113636363636365,
                "end_time": 4.345454545454546,
                "pitch": 42,
                "velocity": 127,
                "duration": 0.03409090909090917,
                "tempo": 120.0
            },
            {
                "start_time": 4.345454545454546,
                "end_time": 4.379545454545454,
                "pitch": 39,
                "velocity": 127,
                "duration": 0.034090909090908283,
                "tempo": 120.0
            },
            {
                "start_time": 4.379545454545454,
                "end_time": 4.3954545454545455,
                "pitch": 35,
                "velocity": 127,
                "duration": 0.01590909090909154,
                "tempo": 120.0
            },
            {
                "start_time": 4.3954545454545455,
                "end_time": 4.413636363636363,
                "pitch": 33,
                "velocity": 127,
                "duration": 0.018181818181817633,
                "tempo": 120.0
            },
            {
                "start_time": 4.413636363636363,
                "end_time": 4.429545454545455,
                "pitch": 30,
                "velocity": 127,
                "duration": 0.01590909090909154,
                "tempo": 120.0
            },
            {
                "start_time": 4.429545454545455,
                "end_time": 4.445454545454545,
                "pitch": 27,
                "velocity": 127,
                "duration": 0.01590909090909065,
                "tempo": 120.0
            },
            {
                "start_time": 4.445454545454545,
                "end_time": 4.463636363636364,
                "pitch": 24,
                "velocity": 127,
                "duration": 0.01818181818181852,
                "tempo": 120.0
            },
            {
                "start_time": 4.463636363636364,
                "end_time": 4.4795454545454545,
                "pitch": 19,
                "velocity": 127,
                "duration": 0.01590909090909065,
                "tempo": 120.0
            },
            {
                "start_time": 4.4795454545454545,
                "end_time": 4.495454545454545,
                "pitch": 12,
                "velocity": 127,
                "duration": 0.01590909090909065,
                "tempo": 120.0
            },
            {
                "start_time": 4.495454545454545,
                "end_time": 4.5636363636363635,
                "pitch": 2,
                "velocity": 127,
                "duration": 0.06818181818181834,
                "tempo": 120.0
            },
            {
                "start_time": 4.5636363636363635,
                "end_time": 4.579545454545454,
                "pitch": 47,
                "velocity": 127,
                "duration": 0.01590909090909065,
                "tempo": 120.0
            },
            {
                "start_time": 4.579545454545454,
                "end_time": 4.6454545454545455,
                "pitch": 47,
                "velocity": 127,
                "duration": 0.06590909090909136,
                "tempo": 120.0
            },
            {
                "start_time": 4.6454545454545455,
                "end_time": 4.695454545454545,
                "pitch": 45,
                "velocity": 127,
                "duration": 0.04999999999999982,
                "tempo": 120.0
            },
            {
                "start_time": 4.111363636363636,
                "end_time": 4.695454545454545,
                "pitch": 55,
                "velocity": 127,
                "duration": 0.584090909090909,
                "tempo": 120.0
            },
            {
                "start_time": 4.695454545454545,
                "end_time": 4.747727272727272,
                "pitch": 43,
                "velocity": 127,
                "duration": 0.052272727272726804,
                "tempo": 120.0
            },
            {
                "start_time": 4.747727272727272,
                "end_time": 4.8,
                "pitch": 41,
                "velocity": 127,
                "duration": 0.05227272727272769,
                "tempo": 120.0
            },
            {
                "start_time": 4.8,
                "end_time": 4.85,
                "pitch": 38,
                "velocity": 127,
                "duration": 0.04999999999999982,
                "tempo": 120.0
            },
            {
                "start_time": 4.85,
                "end_time": 4.884090909090909,
                "pitch": 35,
                "velocity": 127,
                "duration": 0.03409090909090917,
                "tempo": 120.0
            },
            {
                "start_time": 4.884090909090909,
                "end_time": 4.918181818181818,
                "pitch": 33,
                "velocity": 127,
                "duration": 0.03409090909090917,
                "tempo": 120.0
            },
            {
                "start_time": 4.918181818181818,
                "end_time": 4.9363636363636365,
                "pitch": 30,
                "velocity": 127,
                "duration": 0.01818181818181852,
                "tempo": 120.0
            },
            {
                "start_time": 4.9363636363636365,
                "end_time": 4.952272727272727,
                "pitch": 50,
                "velocity": 127,
                "duration": 0.01590909090909065,
                "tempo": 120.0
            },
            {
                "start_time": 4.954545454545454,
                "end_time": 5.004545454545454,
                "pitch": 50,
                "velocity": 127,
                "duration": 0.04999999999999982,
                "tempo": 120.0
            },
            {
                "start_time": 5.004545454545454,
                "end_time": 5.038636363636363,
                "pitch": 47,
                "velocity": 127,
                "duration": 0.03409090909090917,
                "tempo": 120.0
            },
            {
                "start_time": 5.038636363636363,
                "end_time": 5.072727272727272,
                "pitch": 45,
                "velocity": 127,
                "duration": 0.03409090909090917,
                "tempo": 120.0
            },
            {
                "start_time": 5.072727272727272,
                "end_time": 5.1068181818181815,
                "pitch": 42,
                "velocity": 127,
                "duration": 0.03409090909090917,
                "tempo": 120.0
            },
            {
                "start_time": 5.1068181818181815,
                "end_time": 5.140909090909091,
                "pitch": 39,
                "velocity": 127,
                "duration": 0.03409090909090917,
                "tempo": 120.0
            },
            {
                "start_time": 5.140909090909091,
                "end_time": 5.159090909090909,
                "pitch": 35,
                "velocity": 127,
                "duration": 0.01818181818181852,
                "tempo": 120.0
            },
            {
                "start_time": 5.159090909090909,
                "end_time": 5.175,
                "pitch": 33,
                "velocity": 127,
                "duration": 0.01590909090909065,
                "tempo": 120.0
            },
            {
                "start_time": 5.175,
                "end_time": 5.193181818181818,
                "pitch": 30,
                "velocity": 127,
                "duration": 0.01818181818181852,
                "tempo": 120.0
            },
            {
                "start_time": 5.193181818181818,
                "end_time": 5.209090909090909,
                "pitch": 27,
                "velocity": 127,
                "duration": 0.01590909090909065,
                "tempo": 120.0
            },
            {
                "start_time": 5.209090909090909,
                "end_time": 5.227272727272727,
                "pitch": 24,
                "velocity": 127,
                "duration": 0.018181818181817633,
                "tempo": 120.0
            },
            {
                "start_time": 5.227272727272727,
                "end_time": 5.243181818181818,
                "pitch": 19,
                "velocity": 127,
                "duration": 0.01590909090909154,
                "tempo": 120.0
            },
            {
                "start_time": 5.243181818181818,
                "end_time": 5.259090909090909,
                "pitch": 12,
                "velocity": 127,
                "duration": 0.01590909090909065,
                "tempo": 120.0
            },
            {
                "start_time": 5.259090909090909,
                "end_time": 5.327272727272727,
                "pitch": 2,
                "velocity": 127,
                "duration": 0.06818181818181834,
                "tempo": 120.0
            },
            {
                "start_time": 5.327272727272727,
                "end_time": 5.343181818181818,
                "pitch": 47,
                "velocity": 127,
                "duration": 0.01590909090909065,
                "tempo": 120.0
            },
            {
                "start_time": 5.343181818181818,
                "end_time": 5.409090909090909,
                "pitch": 47,
                "velocity": 127,
                "duration": 0.06590909090909136,
                "tempo": 120.0
            },
            {
                "start_time": 5.409090909090909,
                "end_time": 5.459090909090909,
                "pitch": 45,
                "velocity": 127,
                "duration": 0.04999999999999982,
                "tempo": 120.0
            },
            {
                "start_time": 4.695454545454545,
                "end_time": 5.459090909090909,
                "pitch": 55,
                "velocity": 127,
                "duration": 0.7636363636363637,
                "tempo": 120.0
            },
            {
                "start_time": 5.459090909090909,
                "end_time": 5.509090909090909,
                "pitch": 43,
                "velocity": 127,
                "duration": 0.04999999999999982,
                "tempo": 120.0
            },
            {
                "start_time": 5.509090909090909,
                "end_time": 5.5613636363636365,
                "pitch": 41,
                "velocity": 127,
                "duration": 0.05227272727272769,
                "tempo": 120.0
            },
            {
                "start_time": 5.5613636363636365,
                "end_time": 5.611363636363636,
                "pitch": 38,
                "velocity": 127,
                "duration": 0.04999999999999982,
                "tempo": 120.0
            },
            {
                "start_time": 5.611363636363636,
                "end_time": 5.643181818181818,
                "pitch": 35,
                "velocity": 127,
                "duration": 0.0318181818181813,
                "tempo": 120.0
            },
            {
                "start_time": 5.643181818181818,
                "end_time": 5.677272727272727,
                "pitch": 33,
                "velocity": 127,
                "duration": 0.03409090909090917,
                "tempo": 120.0
            },
            {
                "start_time": 5.677272727272727,
                "end_time": 5.693181818181818,
                "pitch": 30,
                "velocity": 127,
                "duration": 0.01590909090909154,
                "tempo": 120.0
            },
            {
                "start_time": 5.695454545454545,
                "end_time": 5.761363636363636,
                "pitch": 59,
                "velocity": 127,
                "duration": 0.06590909090909047,
                "tempo": 120.0
            },
            {
                "start_time": 5.761363636363636,
                "end_time": 5.777272727272727,
                "pitch": 57,
                "velocity": 127,
                "duration": 0.01590909090909154,
                "tempo": 120.0
            },
            {
                "start_time": 5.777272727272727,
                "end_time": 5.843181818181818,
                "pitch": 57,
                "velocity": 127,
                "duration": 0.06590909090909047,
                "tempo": 120.0
            },
            {
                "start_time": 2.356818181818182,
                "end_time": 5.843181818181818,
                "pitch": 67,
                "velocity": 127,
                "duration": 3.486363636363636,
                "tempo": 120.0
            },
            {
                "start_time": 5.843181818181818,
                "end_time": 5.861363636363636,
                "pitch": 54,
                "velocity": 127,
                "duration": 0.01818181818181852,
                "tempo": 120.0
            },
            {
                "start_time": 5.459090909090909,
                "end_time": 5.877272727272727,
                "pitch": 55,
                "velocity": 127,
                "duration": 0.418181818181818,
                "tempo": 120.0
            },
            {
                "start_time": 5.861363636363636,
                "end_time": 5.877272727272727,
                "pitch": 55,
                "velocity": 127,
                "duration": 0.01590909090909065,
                "tempo": 120.0
            },
            {
                "start_time": 5.843181818181818,
                "end_time": 5.877272727272727,
                "pitch": 67,
                "velocity": 127,
                "duration": 0.03409090909090917,
                "tempo": 120.0
            },
            {
                "start_time": 5.877272727272727,
                "end_time": 5.927272727272727,
                "pitch": 54,
                "velocity": 127,
                "duration": 0.04999999999999982,
                "tempo": 120.0
            },
            {
                "start_time": 5.927272727272727,
                "end_time": 5.9431818181818175,
                "pitch": 52,
                "velocity": 127,
                "duration": 0.01590909090909065,
                "tempo": 120.0
            },
            {
                "start_time": 5.945454545454545,
                "end_time": 5.993181818181818,
                "pitch": 53,
                "velocity": 127,
                "duration": 0.04772727272727284,
                "tempo": 120.0
            },
            {
                "start_time": 5.993181818181818,
                "end_time": 6.027272727272727,
                "pitch": 50,
                "velocity": 127,
                "duration": 0.03409090909090917,
                "tempo": 120.0
            },
            {
                "start_time": 6.027272727272727,
                "end_time": 6.077272727272727,
                "pitch": 52,
                "velocity": 127,
                "duration": 0.04999999999999982,
                "tempo": 120.0
            },
            {
                "start_time": 6.077272727272727,
                "end_time": 6.111363636363636,
                "pitch": 49,
                "velocity": 127,
                "duration": 0.03409090909090917,
                "tempo": 120.0
            },
            {
                "start_time": 6.111363636363636,
                "end_time": 6.161363636363636,
                "pitch": 50,
                "velocity": 127,
                "duration": 0.04999999999999982,
                "tempo": 120.0
            },
            {
                "start_time": 6.161363636363636,
                "end_time": 6.195454545454545,
                "pitch": 47,
                "velocity": 127,
                "duration": 0.03409090909090917,
                "tempo": 120.0
            },
            {
                "start_time": 6.195454545454545,
                "end_time": 6.261363636363636,
                "pitch": 47,
                "velocity": 127,
                "duration": 0.06590909090909047,
                "tempo": 120.0
            },
            {
                "start_time": 6.261363636363636,
                "end_time": 6.311363636363636,
                "pitch": 45,
                "velocity": 127,
                "duration": 0.04999999999999982,
                "tempo": 120.0
            },
            {
                "start_time": 6.311363636363636,
                "end_time": 6.361363636363636,
                "pitch": 43,
                "velocity": 127,
                "duration": 0.05000000000000071,
                "tempo": 120.0
            },
            {
                "start_time": 6.361363636363636,
                "end_time": 6.411363636363636,
                "pitch": 41,
                "velocity": 127,
                "duration": 0.04999999999999982,
                "tempo": 120.0
            },
            {
                "start_time": 6.411363636363636,
                "end_time": 6.445454545454545,
                "pitch": 38,
                "velocity": 127,
                "duration": 0.03409090909090917,
                "tempo": 120.0
            },
            {
                "start_time": 6.445454545454545,
                "end_time": 6.495454545454545,
                "pitch": 53,
                "velocity": 127,
                "duration": 0.04999999999999982,
                "tempo": 120.0
            },
            {
                "start_time": 6.495454545454545,
                "end_time": 6.545454545454545,
                "pitch": 50,
                "velocity": 127,
                "duration": 0.04999999999999982,
                "tempo": 120.0
            },
            {
                "start_time": 6.545454545454545,
                "end_time": 6.577272727272727,
                "pitch": 48,
                "velocity": 127,
                "duration": 0.03181818181818219,
                "tempo": 120.0
            },
            {
                "start_time": 6.577272727272727,
                "end_time": 6.611363636363636,
                "pitch": 45,
                "velocity": 127,
                "duration": 0.03409090909090917,
                "tempo": 120.0
            },
            {
                "start_time": 6.611363636363636,
                "end_time": 6.6454545454545455,
                "pitch": 43,
                "velocity": 127,
                "duration": 0.03409090909090917,
                "tempo": 120.0
            },
            {
                "start_time": 6.6454545454545455,
                "end_time": 6.677272727272727,
                "pitch": 40,
                "velocity": 127,
                "duration": 0.0318181818181813,
                "tempo": 120.0
            },
            {
                "start_time": 6.677272727272727,
                "end_time": 6.695454545454545,
                "pitch": 36,
                "velocity": 127,
                "duration": 0.01818181818181852,
                "tempo": 120.0
            },
            {
                "start_time": 6.695454545454545,
                "end_time": 6.761363636363636,
                "pitch": 47,
                "velocity": 127,
                "duration": 0.06590909090909047,
                "tempo": 120.0
            },
            {
                "start_time": 6.761363636363636,
                "end_time": 6.811363636363636,
                "pitch": 45,
                "velocity": 127,
                "duration": 0.04999999999999982,
                "tempo": 120.0
            },
            {
                "start_time": 6.311363636363636,
                "end_time": 6.811363636363636,
                "pitch": 55,
                "velocity": 127,
                "duration": 0.5,
                "tempo": 120.0
            },
            {
                "start_time": 6.811363636363636,
                "end_time": 6.861363636363636,
                "pitch": 43,
                "velocity": 127,
                "duration": 0.05000000000000071,
                "tempo": 120.0
            },
            {
                "start_time": 6.861363636363636,
                "end_time": 6.911363636363636,
                "pitch": 41,
                "velocity": 127,
                "duration": 0.04999999999999982,
                "tempo": 120.0
            },
            {
                "start_time": 6.911363636363636,
                "end_time": 6.945454545454545,
                "pitch": 38,
                "velocity": 127,
                "duration": 0.03409090909090917,
                "tempo": 120.0
            },
            {
                "start_time": 6.945454545454545,
                "end_time": 6.995454545454545,
                "pitch": 53,
                "velocity": 127,
                "duration": 0.04999999999999982,
                "tempo": 120.0
            },
            {
                "start_time": 6.995454545454545,
                "end_time": 7.045454545454545,
                "pitch": 50,
                "velocity": 127,
                "duration": 0.04999999999999982,
                "tempo": 120.0
            },
            {
                "start_time": 7.045454545454545,
                "end_time": 7.079545454545454,
                "pitch": 48,
                "velocity": 127,
                "duration": 0.03409090909090917,
                "tempo": 120.0
            },
            {
                "start_time": 7.079545454545454,
                "end_time": 7.111363636363636,
                "pitch": 45,
                "velocity": 127,
                "duration": 0.03181818181818219,
                "tempo": 120.0
            },
            {
                "start_time": 7.111363636363636,
                "end_time": 7.1454545454545455,
                "pitch": 43,
                "velocity": 127,
                "duration": 0.03409090909090917,
                "tempo": 120.0
            },
            {
                "start_time": 7.1454545454545455,
                "end_time": 7.179545454545454,
                "pitch": 40,
                "velocity": 127,
                "duration": 0.034090909090908283,
                "tempo": 120.0
            },
            {
                "start_time": 7.179545454545454,
                "end_time": 7.195454545454545,
                "pitch": 36,
                "velocity": 127,
                "duration": 0.01590909090909154,
                "tempo": 120.0
            },
            {
                "start_time": 7.195454545454545,
                "end_time": 7.261363636363636,
                "pitch": 47,
                "velocity": 127,
                "duration": 0.06590909090909047,
                "tempo": 120.0
            },
            {
                "start_time": 7.261363636363636,
                "end_time": 7.3136363636363635,
                "pitch": 45,
                "velocity": 127,
                "duration": 0.05227272727272769,
                "tempo": 120.0
            },
            {
                "start_time": 6.811363636363636,
                "end_time": 7.3136363636363635,
                "pitch": 55,
                "velocity": 127,
                "duration": 0.5022727272727279,
                "tempo": 120.0
            },
            {
                "start_time": 7.3136363636363635,
                "end_time": 7.363636363636363,
                "pitch": 43,
                "velocity": 127,
                "duration": 0.04999999999999982,
                "tempo": 120.0
            },
            {
                "start_time": 7.363636363636363,
                "end_time": 7.413636363636363,
                "pitch": 41,
                "velocity": 127,
                "duration": 0.04999999999999982,
                "tempo": 120.0
            },
            {
                "start_time": 7.413636363636363,
                "end_time": 7.445454545454545,
                "pitch": 38,
                "velocity": 127,
                "duration": 0.03181818181818219,
                "tempo": 120.0
            },
            {
                "start_time": 7.445454545454545,
                "end_time": 7.495454545454545,
                "pitch": 53,
                "velocity": 127,
                "duration": 0.04999999999999982,
                "tempo": 120.0
            },
            {
                "start_time": 7.495454545454545,
                "end_time": 7.545454545454545,
                "pitch": 50,
                "velocity": 127,
                "duration": 0.04999999999999982,
                "tempo": 120.0
            },
            {
                "start_time": 7.545454545454545,
                "end_time": 7.579545454545454,
                "pitch": 48,
                "velocity": 127,
                "duration": 0.03409090909090917,
                "tempo": 120.0
            },
            {
                "start_time": 7.579545454545454,
                "end_time": 7.613636363636363,
                "pitch": 45,
                "velocity": 127,
                "duration": 0.03409090909090917,
                "tempo": 120.0
            },
            {
                "start_time": 7.613636363636363,
                "end_time": 7.6454545454545455,
                "pitch": 43,
                "velocity": 127,
                "duration": 0.03181818181818219,
                "tempo": 120.0
            },
            {
                "start_time": 7.6454545454545455,
                "end_time": 7.679545454545454,
                "pitch": 40,
                "velocity": 127,
                "duration": 0.034090909090908283,
                "tempo": 120.0
            },
            {
                "start_time": 7.679545454545454,
                "end_time": 7.695454545454545,
                "pitch": 36,
                "velocity": 127,
                "duration": 0.01590909090909154,
                "tempo": 120.0
            },
            {
                "start_time": 7.697727272727272,
                "end_time": 7.763636363636364,
                "pitch": 47,
                "velocity": 127,
                "duration": 0.06590909090909136,
                "tempo": 120.0
            },
            {
                "start_time": 7.763636363636364,
                "end_time": 7.8136363636363635,
                "pitch": 45,
                "velocity": 127,
                "duration": 0.04999999999999982,
                "tempo": 120.0
            },
            {
                "start_time": 7.3136363636363635,
                "end_time": 7.8136363636363635,
                "pitch": 55,
                "velocity": 127,
                "duration": 0.5,
                "tempo": 120.0
            },
            {
                "start_time": 7.8136363636363635,
                "end_time": 7.863636363636363,
                "pitch": 43,
                "velocity": 127,
                "duration": 0.04999999999999982,
                "tempo": 120.0
            },
            {
                "start_time": 7.863636363636363,
                "end_time": 7.913636363636363,
                "pitch": 41,
                "velocity": 127,
                "duration": 0.04999999999999982,
                "tempo": 120.0
            },
            {
                "start_time": 7.913636363636363,
                "end_time": 7.947727272727272,
                "pitch": 38,
                "velocity": 127,
                "duration": 0.03409090909090917,
                "tempo": 120.0
            },
            {
                "start_time": 7.947727272727272,
                "end_time": 7.997727272727272,
                "pitch": 53,
                "velocity": 127,
                "duration": 0.04999999999999982,
                "tempo": 120.0
            },
            {
                "start_time": 7.997727272727272,
                "end_time": 8.047727272727272,
                "pitch": 50,
                "velocity": 127,
                "duration": 0.04999999999999982,
                "tempo": 120.0
            },
            {
                "start_time": 8.047727272727272,
                "end_time": 8.079545454545455,
                "pitch": 48,
                "velocity": 127,
                "duration": 0.03181818181818308,
                "tempo": 120.0
            },
            {
                "start_time": 8.079545454545455,
                "end_time": 8.113636363636363,
                "pitch": 45,
                "velocity": 127,
                "duration": 0.034090909090908283,
                "tempo": 120.0
            },
            {
                "start_time": 8.113636363636363,
                "end_time": 8.147727272727272,
                "pitch": 43,
                "velocity": 127,
                "duration": 0.034090909090908283,
                "tempo": 120.0
            },
            {
                "start_time": 8.147727272727272,
                "end_time": 8.179545454545455,
                "pitch": 40,
                "velocity": 127,
                "duration": 0.03181818181818308,
                "tempo": 120.0
            },
            {
                "start_time": 8.179545454545455,
                "end_time": 8.197727272727272,
                "pitch": 36,
                "velocity": 127,
                "duration": 0.018181818181817633,
                "tempo": 120.0
            },
            {
                "start_time": 8.197727272727272,
                "end_time": 8.263636363636364,
                "pitch": 47,
                "velocity": 127,
                "duration": 0.06590909090909136,
                "tempo": 120.0
            },
            {
                "start_time": 8.263636363636364,
                "end_time": 8.313636363636363,
                "pitch": 45,
                "velocity": 127,
                "duration": 0.049999999999998934,
                "tempo": 120.0
            },
            {
                "start_time": 7.8136363636363635,
                "end_time": 8.315909090909091,
                "pitch": 55,
                "velocity": 127,
                "duration": 0.5022727272727279,
                "tempo": 120.0
            },
            {
                "start_time": 8.313636363636363,
                "end_time": 8.315909090909091,
                "pitch": 55,
                "velocity": 127,
                "duration": 0.0022727272727287584,
                "tempo": 120.0
            },
            {
                "start_time": 8.315909090909091,
                "end_time": 8.36590909090909,
                "pitch": 43,
                "velocity": 127,
                "duration": 0.049999999999998934,
                "tempo": 120.0
            },
            {
                "start_time": 8.36590909090909,
                "end_time": 8.415909090909091,
                "pitch": 41,
                "velocity": 127,
                "duration": 0.05000000000000071,
                "tempo": 120.0
            },
            {
                "start_time": 8.415909090909091,
                "end_time": 8.45,
                "pitch": 38,
                "velocity": 127,
                "duration": 0.034090909090908283,
                "tempo": 120.0
            },
            {
                "start_time": 8.45,
                "end_time": 8.5,
                "pitch": 53,
                "velocity": 127,
                "duration": 0.05000000000000071,
                "tempo": 120.0
            },
            {
                "start_time": 8.5,
                "end_time": 8.549999999999999,
                "pitch": 50,
                "velocity": 127,
                "duration": 0.049999999999998934,
                "tempo": 120.0
            },
            {
                "start_time": 8.549999999999999,
                "end_time": 8.584090909090909,
                "pitch": 48,
                "velocity": 127,
                "duration": 0.03409090909091006,
                "tempo": 120.0
            },
            {
                "start_time": 8.584090909090909,
                "end_time": 8.618181818181817,
                "pitch": 45,
                "velocity": 127,
                "duration": 0.034090909090908283,
                "tempo": 120.0
            },
            {
                "start_time": 8.618181818181817,
                "end_time": 8.652272727272727,
                "pitch": 43,
                "velocity": 127,
                "duration": 0.03409090909091006,
                "tempo": 120.0
            },
            {
                "start_time": 8.652272727272727,
                "end_time": 8.684090909090909,
                "pitch": 40,
                "velocity": 127,
                "duration": 0.0318181818181813,
                "tempo": 120.0
            },
            {
                "start_time": 8.684090909090909,
                "end_time": 8.702272727272726,
                "pitch": 36,
                "velocity": 127,
                "duration": 0.018181818181817633,
                "tempo": 120.0
            },
            {
                "start_time": 8.702272727272726,
                "end_time": 8.768181818181818,
                "pitch": 47,
                "velocity": 127,
                "duration": 0.06590909090909136,
                "tempo": 120.0
            },
            {
                "start_time": 8.768181818181818,
                "end_time": 8.818181818181818,
                "pitch": 45,
                "velocity": 127,
                "duration": 0.05000000000000071,
                "tempo": 120.0
            },
            {
                "start_time": 8.818181818181818,
                "end_time": 8.868181818181817,
                "pitch": 43,
                "velocity": 127,
                "duration": 0.049999999999998934,
                "tempo": 120.0
            },
            {
                "start_time": 8.868181818181817,
                "end_time": 8.918181818181818,
                "pitch": 41,
                "velocity": 127,
                "duration": 0.05000000000000071,
                "tempo": 120.0
            },
            {
                "start_time": 8.918181818181818,
                "end_time": 8.952272727272726,
                "pitch": 38,
                "velocity": 127,
                "duration": 0.034090909090908283,
                "tempo": 120.0
            },
            {
                "start_time": 8.952272727272726,
                "end_time": 9.002272727272727,
                "pitch": 53,
                "velocity": 127,
                "duration": 0.05000000000000071,
                "tempo": 120.0
            },
            {
                "start_time": 9.002272727272727,
                "end_time": 9.052272727272728,
                "pitch": 50,
                "velocity": 127,
                "duration": 0.05000000000000071,
                "tempo": 120.0
            },
            {
                "start_time": 9.052272727272728,
                "end_time": 9.086363636363636,
                "pitch": 48,
                "velocity": 127,
                "duration": 0.034090909090908283,
                "tempo": 120.0
            },
            {
                "start_time": 9.086363636363636,
                "end_time": 9.118181818181817,
                "pitch": 45,
                "velocity": 127,
                "duration": 0.0318181818181813,
                "tempo": 120.0
            },
            {
                "start_time": 9.118181818181817,
                "end_time": 9.152272727272727,
                "pitch": 43,
                "velocity": 127,
                "duration": 0.03409090909091006,
                "tempo": 120.0
            },
            {
                "start_time": 9.152272727272727,
                "end_time": 9.186363636363636,
                "pitch": 40,
                "velocity": 127,
                "duration": 0.034090909090908283,
                "tempo": 120.0
            },
            {
                "start_time": 9.186363636363636,
                "end_time": 9.202272727272726,
                "pitch": 36,
                "velocity": 127,
                "duration": 0.01590909090909065,
                "tempo": 120.0
            },
            {
                "start_time": 9.202272727272726,
                "end_time": 9.252272727272727,
                "pitch": 50,
                "velocity": 127,
                "duration": 0.05000000000000071,
                "tempo": 120.0
            },
            {
                "start_time": 9.252272727272727,
                "end_time": 9.286363636363635,
                "pitch": 47,
                "velocity": 127,
                "duration": 0.034090909090908283,
                "tempo": 120.0
            },
            {
                "start_time": 9.286363636363635,
                "end_time": 9.318181818181818,
                "pitch": 45,
                "velocity": 127,
                "duration": 0.03181818181818308,
                "tempo": 120.0
            },
            {
                "start_time": 9.318181818181818,
                "end_time": 9.352272727272727,
                "pitch": 42,
                "velocity": 127,
                "duration": 0.034090909090908283,
                "tempo": 120.0
            },
            {
                "start_time": 9.352272727272727,
                "end_time": 9.386363636363637,
                "pitch": 39,
                "velocity": 127,
                "duration": 0.03409090909091006,
                "tempo": 120.0
            },
            {
                "start_time": 9.386363636363637,
                "end_time": 9.402272727272727,
                "pitch": 35,
                "velocity": 127,
                "duration": 0.01590909090909065,
                "tempo": 120.0
            },
            {
                "start_time": 9.402272727272727,
                "end_time": 9.420454545454545,
                "pitch": 33,
                "velocity": 127,
                "duration": 0.018181818181817633,
                "tempo": 120.0
            },
            {
                "start_time": 9.420454545454545,
                "end_time": 9.436363636363636,
                "pitch": 30,
                "velocity": 127,
                "duration": 0.01590909090909065,
                "tempo": 120.0
            },
            {
                "start_time": 9.436363636363636,
                "end_time": 9.452272727272726,
                "pitch": 27,
                "velocity": 127,
                "duration": 0.01590909090909065,
                "tempo": 120.0
            },
            {
                "start_time": 9.452272727272726,
                "end_time": 9.502272727272727,
                "pitch": 50,
                "velocity": 127,
                "duration": 0.05000000000000071,
                "tempo": 120.0
            },
            {
                "start_time": 9.502272727272727,
                "end_time": 9.536363636363635,
                "pitch": 47,
                "velocity": 127,
                "duration": 0.034090909090908283,
                "tempo": 120.0
            },
            {
                "start_time": 9.536363636363635,
                "end_time": 9.570454545454545,
                "pitch": 45,
                "velocity": 127,
                "duration": 0.03409090909091006,
                "tempo": 120.0
            },
            {
                "start_time": 9.570454545454545,
                "end_time": 9.602272727272727,
                "pitch": 42,
                "velocity": 127,
                "duration": 0.0318181818181813,
                "tempo": 120.0
            },
            {
                "start_time": 9.602272727272727,
                "end_time": 9.636363636363637,
                "pitch": 39,
                "velocity": 127,
                "duration": 0.03409090909091006,
                "tempo": 120.0
            },
            {
                "start_time": 9.636363636363637,
                "end_time": 9.652272727272727,
                "pitch": 35,
                "velocity": 127,
                "duration": 0.01590909090909065,
                "tempo": 120.0
            },
            {
                "start_time": 9.652272727272727,
                "end_time": 9.670454545454545,
                "pitch": 33,
                "velocity": 127,
                "duration": 0.018181818181817633,
                "tempo": 120.0
            },
            {
                "start_time": 9.670454545454545,
                "end_time": 9.686363636363636,
                "pitch": 30,
                "velocity": 127,
                "duration": 0.01590909090909065,
                "tempo": 120.0
            },
            {
                "start_time": 9.686363636363636,
                "end_time": 9.702272727272726,
                "pitch": 27,
                "velocity": 127,
                "duration": 0.01590909090909065,
                "tempo": 120.0
            },
            {
                "start_time": 9.704545454545453,
                "end_time": 9.752272727272727,
                "pitch": 50,
                "velocity": 127,
                "duration": 0.04772727272727373,
                "tempo": 120.0
            },
            {
                "start_time": 9.752272727272727,
                "end_time": 9.786363636363635,
                "pitch": 47,
                "velocity": 127,
                "duration": 0.034090909090908283,
                "tempo": 120.0
            },
            {
                "start_time": 9.786363636363635,
                "end_time": 9.820454545454545,
                "pitch": 45,
                "velocity": 127,
                "duration": 0.03409090909091006,
                "tempo": 120.0
            },
            {
                "start_time": 9.820454545454545,
                "end_time": 9.852272727272727,
                "pitch": 42,
                "velocity": 127,
                "duration": 0.0318181818181813,
                "tempo": 120.0
            },
            {
                "start_time": 9.852272727272727,
                "end_time": 9.886363636363637,
                "pitch": 39,
                "velocity": 127,
                "duration": 0.03409090909091006,
                "tempo": 120.0
            },
            {
                "start_time": 9.886363636363637,
                "end_time": 9.902272727272727,
                "pitch": 35,
                "velocity": 127,
                "duration": 0.01590909090909065,
                "tempo": 120.0
            },
            {
                "start_time": 9.902272727272727,
                "end_time": 9.920454545454545,
                "pitch": 33,
                "velocity": 127,
                "duration": 0.018181818181817633,
                "tempo": 120.0
            },
            {
                "start_time": 9.920454545454545,
                "end_time": 9.936363636363636,
                "pitch": 30,
                "velocity": 127,
                "duration": 0.01590909090909065,
                "tempo": 120.0
            },
            {
                "start_time": 9.936363636363636,
                "end_time": 9.954545454545453,
                "pitch": 27,
                "velocity": 127,
                "duration": 0.018181818181817633,
                "tempo": 120.0
            },
            {
                "start_time": 9.954545454545453,
                "end_time": 10.004545454545454,
                "pitch": 50,
                "velocity": 127,
                "duration": 0.05000000000000071,
                "tempo": 120.0
            },
            {
                "start_time": 10.004545454545454,
                "end_time": 10.036363636363635,
                "pitch": 47,
                "velocity": 127,
                "duration": 0.0318181818181813,
                "tempo": 120.0
            },
            {
                "start_time": 10.036363636363635,
                "end_time": 10.070454545454545,
                "pitch": 45,
                "velocity": 127,
                "duration": 0.03409090909091006,
                "tempo": 120.0
            },
            {
                "start_time": 10.070454545454545,
                "end_time": 10.104545454545454,
                "pitch": 42,
                "velocity": 127,
                "duration": 0.034090909090908283,
                "tempo": 120.0
            },
            {
                "start_time": 10.104545454545454,
                "end_time": 10.136363636363637,
                "pitch": 39,
                "velocity": 127,
                "duration": 0.03181818181818308,
                "tempo": 120.0
            },
            {
                "start_time": 10.136363636363637,
                "end_time": 10.154545454545454,
                "pitch": 35,
                "velocity": 127,
                "duration": 0.018181818181817633,
                "tempo": 120.0
            },
            {
                "start_time": 10.154545454545454,
                "end_time": 10.170454545454545,
                "pitch": 33,
                "velocity": 127,
                "duration": 0.01590909090909065,
                "tempo": 120.0
            },
            {
                "start_time": 10.170454545454545,
                "end_time": 10.186363636363636,
                "pitch": 30,
                "velocity": 127,
                "duration": 0.01590909090909065,
                "tempo": 120.0
            },
            {
                "start_time": 10.186363636363636,
                "end_time": 10.204545454545453,
                "pitch": 27,
                "velocity": 127,
                "duration": 0.018181818181817633,
                "tempo": 120.0
            },
            {
                "start_time": 10.204545454545453,
                "end_time": 10.270454545454545,
                "pitch": 47,
                "velocity": 127,
                "duration": 0.06590909090909136,
                "tempo": 120.0
            },
            {
                "start_time": 10.270454545454545,
                "end_time": 10.320454545454545,
                "pitch": 45,
                "velocity": 127,
                "duration": 0.05000000000000071,
                "tempo": 120.0
            },
            {
                "start_time": 8.818181818181818,
                "end_time": 10.320454545454545,
                "pitch": 55,
                "velocity": 127,
                "duration": 1.502272727272727,
                "tempo": 120.0
            },
            {
                "start_time": 10.320454545454545,
                "end_time": 10.370454545454544,
                "pitch": 43,
                "velocity": 127,
                "duration": 0.049999999999998934,
                "tempo": 120.0
            },
            {
                "start_time": 10.370454545454544,
                "end_time": 10.420454545454545,
                "pitch": 41,
                "velocity": 127,
                "duration": 0.05000000000000071,
                "tempo": 120.0
            },
            {
                "start_time": 10.420454545454545,
                "end_time": 10.454545454545453,
                "pitch": 38,
                "velocity": 127,
                "duration": 0.034090909090908283,
                "tempo": 120.0
            },
            {
                "start_time": 10.454545454545453,
                "end_time": 10.504545454545454,
                "pitch": 53,
                "velocity": 127,
                "duration": 0.05000000000000071,
                "tempo": 120.0
            },
            {
                "start_time": 10.504545454545454,
                "end_time": 10.554545454545455,
                "pitch": 50,
                "velocity": 127,
                "duration": 0.05000000000000071,
                "tempo": 120.0
            },
            {
                "start_time": 10.554545454545455,
                "end_time": 10.588636363636363,
                "pitch": 48,
                "velocity": 127,
                "duration": 0.034090909090908283,
                "tempo": 120.0
            },
            {
                "start_time": 10.588636363636363,
                "end_time": 10.620454545454544,
                "pitch": 45,
                "velocity": 127,
                "duration": 0.0318181818181813,
                "tempo": 120.0
            },
            {
                "start_time": 10.620454545454544,
                "end_time": 10.654545454545454,
                "pitch": 43,
                "velocity": 127,
                "duration": 0.03409090909091006,
                "tempo": 120.0
            },
            {
                "start_time": 10.654545454545454,
                "end_time": 10.688636363636363,
                "pitch": 40,
                "velocity": 127,
                "duration": 0.034090909090908283,
                "tempo": 120.0
            },
            {
                "start_time": 10.688636363636363,
                "end_time": 10.704545454545453,
                "pitch": 36,
                "velocity": 127,
                "duration": 0.01590909090909065,
                "tempo": 120.0
            },
            {
                "start_time": 10.704545454545453,
                "end_time": 10.770454545454545,
                "pitch": 47,
                "velocity": 127,
                "duration": 0.06590909090909136,
                "tempo": 120.0
            },
            {
                "start_time": 10.770454545454545,
                "end_time": 10.820454545454545,
                "pitch": 45,
                "velocity": 127,
                "duration": 0.05000000000000071,
                "tempo": 120.0
            },
            {
                "start_time": 10.320454545454545,
                "end_time": 10.820454545454545,
                "pitch": 55,
                "velocity": 127,
                "duration": 0.5,
                "tempo": 120.0
            },
            {
                "start_time": 10.820454545454545,
                "end_time": 10.870454545454544,
                "pitch": 43,
                "velocity": 127,
                "duration": 0.049999999999998934,
                "tempo": 120.0
            },
            {
                "start_time": 10.870454545454544,
                "end_time": 10.920454545454545,
                "pitch": 41,
                "velocity": 127,
                "duration": 0.05000000000000071,
                "tempo": 120.0
            },
            {
                "start_time": 10.920454545454545,
                "end_time": 10.954545454545453,
                "pitch": 38,
                "velocity": 127,
                "duration": 0.034090909090908283,
                "tempo": 120.0
            },
            {
                "start_time": 10.954545454545453,
                "end_time": 11.004545454545454,
                "pitch": 53,
                "velocity": 127,
                "duration": 0.05000000000000071,
                "tempo": 120.0
            },
            {
                "start_time": 11.004545454545454,
                "end_time": 11.054545454545455,
                "pitch": 50,
                "velocity": 127,
                "duration": 0.05000000000000071,
                "tempo": 120.0
            },
            {
                "start_time": 11.054545454545455,
                "end_time": 11.088636363636363,
                "pitch": 48,
                "velocity": 127,
                "duration": 0.034090909090908283,
                "tempo": 120.0
            },
            {
                "start_time": 11.088636363636363,
                "end_time": 11.122727272727273,
                "pitch": 45,
                "velocity": 127,
                "duration": 0.03409090909091006,
                "tempo": 120.0
            },
            {
                "start_time": 11.122727272727273,
                "end_time": 11.154545454545454,
                "pitch": 43,
                "velocity": 127,
                "duration": 0.0318181818181813,
                "tempo": 120.0
            },
            {
                "start_time": 11.154545454545454,
                "end_time": 11.188636363636363,
                "pitch": 40,
                "velocity": 127,
                "duration": 0.034090909090908283,
                "tempo": 120.0
            },
            {
                "start_time": 11.188636363636363,
                "end_time": 11.204545454545453,
                "pitch": 36,
                "velocity": 127,
                "duration": 0.01590909090909065,
                "tempo": 120.0
            },
            {
                "start_time": 11.206818181818182,
                "end_time": 11.272727272727272,
                "pitch": 47,
                "velocity": 127,
                "duration": 0.06590909090908958,
                "tempo": 120.0
            },
            {
                "start_time": 11.272727272727272,
                "end_time": 11.322727272727272,
                "pitch": 45,
                "velocity": 127,
                "duration": 0.05000000000000071,
                "tempo": 120.0
            },
            {
                "start_time": 10.820454545454545,
                "end_time": 11.322727272727272,
                "pitch": 55,
                "velocity": 127,
                "duration": 0.502272727272727,
                "tempo": 120.0
            },
            {
                "start_time": 11.322727272727272,
                "end_time": 11.372727272727273,
                "pitch": 43,
                "velocity": 127,
                "duration": 0.05000000000000071,
                "tempo": 120.0
            },
            {
                "start_time": 11.372727272727273,
                "end_time": 11.422727272727272,
                "pitch": 41,
                "velocity": 127,
                "duration": 0.049999999999998934,
                "tempo": 120.0
            },
            {
                "start_time": 11.422727272727272,
                "end_time": 11.454545454545453,
                "pitch": 38,
                "velocity": 127,
                "duration": 0.0318181818181813,
                "tempo": 120.0
            },
            {
                "start_time": 11.456818181818182,
                "end_time": 11.504545454545454,
                "pitch": 53,
                "velocity": 127,
                "duration": 0.04772727272727195,
                "tempo": 120.0
            },
            {
                "start_time": 11.504545454545454,
                "end_time": 11.554545454545455,
                "pitch": 50,
                "velocity": 127,
                "duration": 0.05000000000000071,
                "tempo": 120.0
            },
            {
                "start_time": 11.554545454545455,
                "end_time": 11.588636363636363,
                "pitch": 48,
                "velocity": 127,
                "duration": 0.034090909090908283,
                "tempo": 120.0
            },
            {
                "start_time": 11.588636363636363,
                "end_time": 11.622727272727273,
                "pitch": 45,
                "velocity": 127,
                "duration": 0.03409090909091006,
                "tempo": 120.0
            },
            {
                "start_time": 11.622727272727273,
                "end_time": 11.654545454545454,
                "pitch": 43,
                "velocity": 127,
                "duration": 0.0318181818181813,
                "tempo": 120.0
            },
            {
                "start_time": 11.654545454545454,
                "end_time": 11.688636363636363,
                "pitch": 40,
                "velocity": 127,
                "duration": 0.034090909090908283,
                "tempo": 120.0
            },
            {
                "start_time": 11.688636363636363,
                "end_time": 11.706818181818182,
                "pitch": 36,
                "velocity": 127,
                "duration": 0.01818181818181941,
                "tempo": 120.0
            },
            {
                "start_time": 11.706818181818182,
                "end_time": 11.774999999999999,
                "pitch": 47,
                "velocity": 127,
                "duration": 0.06818181818181657,
                "tempo": 120.0
            },
            {
                "start_time": 11.774999999999999,
                "end_time": 11.825,
                "pitch": 45,
                "velocity": 127,
                "duration": 0.05000000000000071,
                "tempo": 120.0
            },
            {
                "start_time": 11.322727272727272,
                "end_time": 11.825,
                "pitch": 55,
                "velocity": 127,
                "duration": 0.502272727272727,
                "tempo": 120.0
            },
            {
                "start_time": 11.825,
                "end_time": 11.877272727272727,
                "pitch": 43,
                "velocity": 127,
                "duration": 0.05227272727272769,
                "tempo": 120.0
            },
            {
                "start_time": 11.877272727272727,
                "end_time": 11.927272727272726,
                "pitch": 41,
                "velocity": 127,
                "duration": 0.049999999999998934,
                "tempo": 120.0
            },
            {
                "start_time": 11.927272727272726,
                "end_time": 11.961363636363636,
                "pitch": 38,
                "velocity": 127,
                "duration": 0.03409090909091006,
                "tempo": 120.0
            },
            {
                "start_time": 11.963636363636363,
                "end_time": 12.013636363636364,
                "pitch": 53,
                "velocity": 127,
                "duration": 0.05000000000000071,
                "tempo": 120.0
            },
            {
                "start_time": 12.013636363636364,
                "end_time": 12.06590909090909,
                "pitch": 50,
                "velocity": 127,
                "duration": 0.052272727272725916,
                "tempo": 120.0
            },
            {
                "start_time": 12.06590909090909,
                "end_time": 12.1,
                "pitch": 48,
                "velocity": 127,
                "duration": 0.03409090909091006,
                "tempo": 120.0
            },
            {
                "start_time": 12.1,
                "end_time": 12.134090909090908,
                "pitch": 45,
                "velocity": 127,
                "duration": 0.034090909090908283,
                "tempo": 120.0
            },
            {
                "start_time": 12.134090909090908,
                "end_time": 12.168181818181818,
                "pitch": 43,
                "velocity": 127,
                "duration": 0.03409090909091006,
                "tempo": 120.0
            },
            {
                "start_time": 12.168181818181818,
                "end_time": 12.202272727272726,
                "pitch": 40,
                "velocity": 127,
                "duration": 0.034090909090908283,
                "tempo": 120.0
            },
            {
                "start_time": 12.202272727272726,
                "end_time": 12.218181818181817,
                "pitch": 36,
                "velocity": 127,
                "duration": 0.01590909090909065,
                "tempo": 120.0
            },
            {
                "start_time": 12.220454545454546,
                "end_time": 12.286363636363635,
                "pitch": 47,
                "velocity": 127,
                "duration": 0.06590909090908958,
                "tempo": 120.0
            },
            {
                "start_time": 12.286363636363635,
                "end_time": 12.336363636363636,
                "pitch": 45,
                "velocity": 127,
                "duration": 0.05000000000000071,
                "tempo": 120.0
            },
            {
                "start_time": 11.825,
                "end_time": 12.336363636363636,
                "pitch": 55,
                "velocity": 127,
                "duration": 0.5113636363636367,
                "tempo": 120.0
            },
            {
                "start_time": 12.336363636363636,
                "end_time": 12.386363636363635,
                "pitch": 43,
                "velocity": 127,
                "duration": 0.049999999999998934,
                "tempo": 120.0
            },
            {
                "start_time": 12.386363636363635,
                "end_time": 12.436363636363636,
                "pitch": 41,
                "velocity": 127,
                "duration": 0.05000000000000071,
                "tempo": 120.0
            },
            {
                "start_time": 12.436363636363636,
                "end_time": 12.470454545454546,
                "pitch": 38,
                "velocity": 127,
                "duration": 0.03409090909091006,
                "tempo": 120.0
            },
            {
                "start_time": 12.470454545454546,
                "end_time": 12.520454545454545,
                "pitch": 53,
                "velocity": 127,
                "duration": 0.049999999999998934,
                "tempo": 120.0
            },
            {
                "start_time": 12.520454545454545,
                "end_time": 12.570454545454545,
                "pitch": 50,
                "velocity": 127,
                "duration": 0.05000000000000071,
                "tempo": 120.0
            },
            {
                "start_time": 12.570454545454545,
                "end_time": 12.602272727272727,
                "pitch": 48,
                "velocity": 127,
                "duration": 0.0318181818181813,
                "tempo": 120.0
            },
            {
                "start_time": 12.602272727272727,
                "end_time": 12.636363636363635,
                "pitch": 45,
                "velocity": 127,
                "duration": 0.034090909090908283,
                "tempo": 120.0
            },
            {
                "start_time": 12.636363636363635,
                "end_time": 12.670454545454545,
                "pitch": 43,
                "velocity": 127,
                "duration": 0.03409090909091006,
                "tempo": 120.0
            },
            {
                "start_time": 12.670454545454545,
                "end_time": 12.702272727272726,
                "pitch": 40,
                "velocity": 127,
                "duration": 0.0318181818181813,
                "tempo": 120.0
            },
            {
                "start_time": 12.702272727272726,
                "end_time": 12.720454545454546,
                "pitch": 36,
                "velocity": 127,
                "duration": 0.01818181818181941,
                "tempo": 120.0
            },
            {
                "start_time": 12.720454545454546,
                "end_time": 12.786363636363635,
                "pitch": 47,
                "velocity": 127,
                "duration": 0.06590909090908958,
                "tempo": 120.0
            },
            {
                "start_time": 12.786363636363635,
                "end_time": 12.836363636363636,
                "pitch": 45,
                "velocity": 127,
                "duration": 0.05000000000000071,
                "tempo": 120.0
            },
            {
                "start_time": 12.336363636363636,
                "end_time": 12.836363636363636,
                "pitch": 55,
                "velocity": 127,
                "duration": 0.5,
                "tempo": 120.0
            },
            {
                "start_time": 12.836363636363636,
                "end_time": 12.886363636363635,
                "pitch": 43,
                "velocity": 127,
                "duration": 0.049999999999998934,
                "tempo": 120.0
            },
            {
                "start_time": 12.886363636363635,
                "end_time": 12.936363636363636,
                "pitch": 41,
                "velocity": 127,
                "duration": 0.05000000000000071,
                "tempo": 120.0
            },
            {
                "start_time": 12.936363636363636,
                "end_time": 12.970454545454546,
                "pitch": 38,
                "velocity": 127,
                "duration": 0.03409090909091006,
                "tempo": 120.0
            },
            {
                "start_time": 12.970454545454546,
                "end_time": 13.020454545454545,
                "pitch": 53,
                "velocity": 127,
                "duration": 0.049999999999998934,
                "tempo": 120.0
            },
            {
                "start_time": 13.020454545454545,
                "end_time": 13.070454545454545,
                "pitch": 50,
                "velocity": 127,
                "duration": 0.05000000000000071,
                "tempo": 120.0
            },
            {
                "start_time": 13.070454545454545,
                "end_time": 13.104545454545454,
                "pitch": 48,
                "velocity": 127,
                "duration": 0.034090909090908283,
                "tempo": 120.0
            },
            {
                "start_time": 13.104545454545454,
                "end_time": 13.136363636363635,
                "pitch": 45,
                "velocity": 127,
                "duration": 0.0318181818181813,
                "tempo": 120.0
            },
            {
                "start_time": 13.136363636363635,
                "end_time": 13.170454545454545,
                "pitch": 43,
                "velocity": 127,
                "duration": 0.03409090909091006,
                "tempo": 120.0
            },
            {
                "start_time": 13.170454545454545,
                "end_time": 13.204545454545453,
                "pitch": 40,
                "velocity": 127,
                "duration": 0.034090909090908283,
                "tempo": 120.0
            },
            {
                "start_time": 13.204545454545453,
                "end_time": 13.220454545454546,
                "pitch": 36,
                "velocity": 127,
                "duration": 0.015909090909092427,
                "tempo": 120.0
            },
            {
                "start_time": 13.220454545454546,
                "end_time": 13.270454545454545,
                "pitch": 50,
                "velocity": 127,
                "duration": 0.049999999999998934,
                "tempo": 120.0
            },
            {
                "start_time": 13.270454545454545,
                "end_time": 13.304545454545455,
                "pitch": 47,
                "velocity": 127,
                "duration": 0.03409090909091006,
                "tempo": 120.0
            },
            {
                "start_time": 13.304545454545455,
                "end_time": 13.336363636363636,
                "pitch": 45,
                "velocity": 127,
                "duration": 0.0318181818181813,
                "tempo": 120.0
            },
            {
                "start_time": 13.336363636363636,
                "end_time": 13.370454545454544,
                "pitch": 42,
                "velocity": 127,
                "duration": 0.034090909090908283,
                "tempo": 120.0
            },
            {
                "start_time": 13.370454545454544,
                "end_time": 13.404545454545454,
                "pitch": 39,
                "velocity": 127,
                "duration": 0.03409090909091006,
                "tempo": 120.0
            },
            {
                "start_time": 13.404545454545454,
                "end_time": 13.420454545454545,
                "pitch": 35,
                "velocity": 127,
                "duration": 0.01590909090909065,
                "tempo": 120.0
            },
            {
                "start_time": 13.420454545454545,
                "end_time": 13.436363636363636,
                "pitch": 33,
                "velocity": 127,
                "duration": 0.01590909090909065,
                "tempo": 120.0
            },
            {
                "start_time": 13.436363636363636,
                "end_time": 13.454545454545453,
                "pitch": 30,
                "velocity": 127,
                "duration": 0.018181818181817633,
                "tempo": 120.0
            },
            {
                "start_time": 13.454545454545453,
                "end_time": 13.470454545454546,
                "pitch": 27,
                "velocity": 127,
                "duration": 0.015909090909092427,
                "tempo": 120.0
            },
            {
                "start_time": 13.470454545454546,
                "end_time": 13.520454545454545,
                "pitch": 50,
                "velocity": 127,
                "duration": 0.049999999999998934,
                "tempo": 120.0
            },
            {
                "start_time": 13.520454545454545,
                "end_time": 13.554545454545455,
                "pitch": 47,
                "velocity": 127,
                "duration": 0.03409090909091006,
                "tempo": 120.0
            },
            {
                "start_time": 13.554545454545455,
                "end_time": 13.588636363636363,
                "pitch": 45,
                "velocity": 127,
                "duration": 0.034090909090908283,
                "tempo": 120.0
            },
            {
                "start_time": 13.588636363636363,
                "end_time": 13.620454545454544,
                "pitch": 42,
                "velocity": 127,
                "duration": 0.0318181818181813,
                "tempo": 120.0
            },
            {
                "start_time": 13.620454545454544,
                "end_time": 13.654545454545454,
                "pitch": 39,
                "velocity": 127,
                "duration": 0.03409090909091006,
                "tempo": 120.0
            },
            {
                "start_time": 13.654545454545454,
                "end_time": 13.670454545454545,
                "pitch": 35,
                "velocity": 127,
                "duration": 0.01590909090909065,
                "tempo": 120.0
            },
            {
                "start_time": 13.670454545454545,
                "end_time": 13.688636363636363,
                "pitch": 33,
                "velocity": 127,
                "duration": 0.018181818181817633,
                "tempo": 120.0
            },
            {
                "start_time": 13.688636363636363,
                "end_time": 13.704545454545453,
                "pitch": 30,
                "velocity": 127,
                "duration": 0.01590909090909065,
                "tempo": 120.0
            },
            {
                "start_time": 13.704545454545453,
                "end_time": 13.720454545454544,
                "pitch": 27,
                "velocity": 127,
                "duration": 0.01590909090909065,
                "tempo": 120.0
            },
            {
                "start_time": 13.720454545454544,
                "end_time": 13.770454545454545,
                "pitch": 50,
                "velocity": 127,
                "duration": 0.05000000000000071,
                "tempo": 120.0
            },
            {
                "start_time": 13.770454545454545,
                "end_time": 13.804545454545455,
                "pitch": 47,
                "velocity": 127,
                "duration": 0.03409090909091006,
                "tempo": 120.0
            },
            {
                "start_time": 13.804545454545455,
                "end_time": 13.838636363636363,
                "pitch": 45,
                "velocity": 127,
                "duration": 0.034090909090908283,
                "tempo": 120.0
            },
            {
                "start_time": 13.838636363636363,
                "end_time": 13.870454545454544,
                "pitch": 42,
                "velocity": 127,
                "duration": 0.0318181818181813,
                "tempo": 120.0
            },
            {
                "start_time": 13.870454545454544,
                "end_time": 13.904545454545454,
                "pitch": 39,
                "velocity": 127,
                "duration": 0.03409090909091006,
                "tempo": 120.0
            },
            {
                "start_time": 13.904545454545454,
                "end_time": 13.920454545454545,
                "pitch": 35,
                "velocity": 127,
                "duration": 0.01590909090909065,
                "tempo": 120.0
            },
            {
                "start_time": 13.920454545454545,
                "end_time": 13.938636363636363,
                "pitch": 33,
                "velocity": 127,
                "duration": 0.018181818181817633,
                "tempo": 120.0
            },
            {
                "start_time": 13.938636363636363,
                "end_time": 13.954545454545453,
                "pitch": 30,
                "velocity": 127,
                "duration": 0.01590909090909065,
                "tempo": 120.0
            },
            {
                "start_time": 13.954545454545453,
                "end_time": 13.970454545454544,
                "pitch": 27,
                "velocity": 127,
                "duration": 0.01590909090909065,
                "tempo": 120.0
            },
            {
                "start_time": 13.972727272727273,
                "end_time": 14.020454545454545,
                "pitch": 50,
                "velocity": 127,
                "duration": 0.04772727272727195,
                "tempo": 120.0
            },
            {
                "start_time": 14.020454545454545,
                "end_time": 14.054545454545455,
                "pitch": 47,
                "velocity": 127,
                "duration": 0.03409090909091006,
                "tempo": 120.0
            },
            {
                "start_time": 14.054545454545455,
                "end_time": 14.088636363636363,
                "pitch": 45,
                "velocity": 127,
                "duration": 0.034090909090908283,
                "tempo": 120.0
            },
            {
                "start_time": 14.088636363636363,
                "end_time": 14.122727272727271,
                "pitch": 42,
                "velocity": 127,
                "duration": 0.034090909090908283,
                "tempo": 120.0
            },
            {
                "start_time": 14.122727272727271,
                "end_time": 14.154545454545454,
                "pitch": 39,
                "velocity": 127,
                "duration": 0.03181818181818308,
                "tempo": 120.0
            },
            {
                "start_time": 14.154545454545454,
                "end_time": 14.172727272727272,
                "pitch": 35,
                "velocity": 127,
                "duration": 0.018181818181817633,
                "tempo": 120.0
            },
            {
                "start_time": 14.172727272727272,
                "end_time": 14.188636363636363,
                "pitch": 33,
                "velocity": 127,
                "duration": 0.01590909090909065,
                "tempo": 120.0
            },
            {
                "start_time": 14.188636363636363,
                "end_time": 14.204545454545453,
                "pitch": 30,
                "velocity": 127,
                "duration": 0.01590909090909065,
                "tempo": 120.0
            },
            {
                "start_time": 14.204545454545453,
                "end_time": 14.222727272727273,
                "pitch": 27,
                "velocity": 127,
                "duration": 0.01818181818181941,
                "tempo": 120.0
            },
            {
                "start_time": 14.222727272727273,
                "end_time": 14.288636363636362,
                "pitch": 47,
                "velocity": 127,
                "duration": 0.06590909090908958,
                "tempo": 120.0
            },
            {
                "start_time": 14.288636363636362,
                "end_time": 14.338636363636363,
                "pitch": 45,
                "velocity": 127,
                "duration": 0.05000000000000071,
                "tempo": 120.0
            },
            {
                "start_time": 12.836363636363636,
                "end_time": 14.338636363636363,
                "pitch": 55,
                "velocity": 127,
                "duration": 1.502272727272727,
                "tempo": 120.0
            },
            {
                "start_time": 14.338636363636363,
                "end_time": 14.388636363636364,
                "pitch": 43,
                "velocity": 127,
                "duration": 0.05000000000000071,
                "tempo": 120.0
            },
            {
                "start_time": 14.388636363636364,
                "end_time": 14.438636363636363,
                "pitch": 41,
                "velocity": 127,
                "duration": 0.049999999999998934,
                "tempo": 120.0
            },
            {
                "start_time": 14.438636363636363,
                "end_time": 14.472727272727273,
                "pitch": 38,
                "velocity": 127,
                "duration": 0.03409090909091006,
                "tempo": 120.0
            },
            {
                "start_time": 14.472727272727273,
                "end_time": 14.522727272727272,
                "pitch": 53,
                "velocity": 127,
                "duration": 0.049999999999998934,
                "tempo": 120.0
            },
            {
                "start_time": 14.522727272727272,
                "end_time": 14.572727272727272,
                "pitch": 50,
                "velocity": 127,
                "duration": 0.05000000000000071,
                "tempo": 120.0
            },
            {
                "start_time": 14.572727272727272,
                "end_time": 14.604545454545454,
                "pitch": 48,
                "velocity": 127,
                "duration": 0.0318181818181813,
                "tempo": 120.0
            },
            {
                "start_time": 14.604545454545454,
                "end_time": 14.638636363636364,
                "pitch": 45,
                "velocity": 127,
                "duration": 0.03409090909091006,
                "tempo": 120.0
            },
            {
                "start_time": 14.638636363636364,
                "end_time": 14.672727272727272,
                "pitch": 43,
                "velocity": 127,
                "duration": 0.034090909090908283,
                "tempo": 120.0
            },
            {
                "start_time": 14.672727272727272,
                "end_time": 14.70681818181818,
                "pitch": 40,
                "velocity": 127,
                "duration": 0.034090909090908283,
                "tempo": 120.0
            },
            {
                "start_time": 14.70681818181818,
                "end_time": 14.722727272727273,
                "pitch": 36,
                "velocity": 127,
                "duration": 0.015909090909092427,
                "tempo": 120.0
            },
            {
                "start_time": 14.722727272727273,
                "end_time": 14.788636363636362,
                "pitch": 47,
                "velocity": 127,
                "duration": 0.06590909090908958,
                "tempo": 120.0
            },
            {
                "start_time": 14.788636363636362,
                "end_time": 14.838636363636363,
                "pitch": 45,
                "velocity": 127,
                "duration": 0.05000000000000071,
                "tempo": 120.0
            },
            {
                "start_time": 14.338636363636363,
                "end_time": 14.838636363636363,
                "pitch": 55,
                "velocity": 127,
                "duration": 0.5,
                "tempo": 120.0
            },
            {
                "start_time": 14.838636363636363,
                "end_time": 14.888636363636364,
                "pitch": 43,
                "velocity": 127,
                "duration": 0.05000000000000071,
                "tempo": 120.0
            },
            {
                "start_time": 14.888636363636364,
                "end_time": 14.938636363636363,
                "pitch": 41,
                "velocity": 127,
                "duration": 0.049999999999998934,
                "tempo": 120.0
            },
            {
                "start_time": 14.938636363636363,
                "end_time": 14.972727272727273,
                "pitch": 38,
                "velocity": 127,
                "duration": 0.03409090909091006,
                "tempo": 120.0
            },
            {
                "start_time": 14.972727272727273,
                "end_time": 15.022727272727272,
                "pitch": 53,
                "velocity": 127,
                "duration": 0.049999999999998934,
                "tempo": 120.0
            },
            {
                "start_time": 15.022727272727272,
                "end_time": 15.072727272727272,
                "pitch": 50,
                "velocity": 127,
                "duration": 0.05000000000000071,
                "tempo": 120.0
            },
            {
                "start_time": 15.072727272727272,
                "end_time": 15.10681818181818,
                "pitch": 48,
                "velocity": 127,
                "duration": 0.034090909090908283,
                "tempo": 120.0
            },
            {
                "start_time": 15.10681818181818,
                "end_time": 15.138636363636364,
                "pitch": 45,
                "velocity": 127,
                "duration": 0.03181818181818308,
                "tempo": 120.0
            },
            {
                "start_time": 15.138636363636364,
                "end_time": 15.172727272727272,
                "pitch": 43,
                "velocity": 127,
                "duration": 0.034090909090908283,
                "tempo": 120.0
            },
            {
                "start_time": 15.172727272727272,
                "end_time": 15.20681818181818,
                "pitch": 40,
                "velocity": 127,
                "duration": 0.034090909090908283,
                "tempo": 120.0
            },
            {
                "start_time": 15.20681818181818,
                "end_time": 15.222727272727273,
                "pitch": 36,
                "velocity": 127,
                "duration": 0.015909090909092427,
                "tempo": 120.0
            },
            {
                "start_time": 15.222727272727273,
                "end_time": 15.290909090909091,
                "pitch": 47,
                "velocity": 127,
                "duration": 0.06818181818181834,
                "tempo": 120.0
            },
            {
                "start_time": 15.290909090909091,
                "end_time": 15.34090909090909,
                "pitch": 45,
                "velocity": 127,
                "duration": 0.049999999999998934,
                "tempo": 120.0
            },
            {
                "start_time": 14.838636363636363,
                "end_time": 15.34090909090909,
                "pitch": 55,
                "velocity": 127,
                "duration": 0.502272727272727,
                "tempo": 120.0
            },
            {
                "start_time": 15.34090909090909,
                "end_time": 15.39090909090909,
                "pitch": 43,
                "velocity": 127,
                "duration": 0.05000000000000071,
                "tempo": 120.0
            },
            {
                "start_time": 15.39090909090909,
                "end_time": 15.44090909090909,
                "pitch": 41,
                "velocity": 127,
                "duration": 0.049999999999998934,
                "tempo": 120.0
            },
            {
                "start_time": 15.44090909090909,
                "end_time": 15.472727272727273,
                "pitch": 38,
                "velocity": 127,
                "duration": 0.03181818181818308,
                "tempo": 120.0
            },
            {
                "start_time": 15.475,
                "end_time": 15.522727272727272,
                "pitch": 53,
                "velocity": 127,
                "duration": 0.04772727272727195,
                "tempo": 120.0
            },
            {
                "start_time": 15.522727272727272,
                "end_time": 15.572727272727272,
                "pitch": 50,
                "velocity": 127,
                "duration": 0.05000000000000071,
                "tempo": 120.0
            },
            {
                "start_time": 15.572727272727272,
                "end_time": 15.60681818181818,
                "pitch": 48,
                "velocity": 127,
                "duration": 0.034090909090908283,
                "tempo": 120.0
            },
            {
                "start_time": 15.60681818181818,
                "end_time": 15.64090909090909,
                "pitch": 45,
                "velocity": 127,
                "duration": 0.03409090909091006,
                "tempo": 120.0
            },
            {
                "start_time": 15.64090909090909,
                "end_time": 15.672727272727272,
                "pitch": 43,
                "velocity": 127,
                "duration": 0.0318181818181813,
                "tempo": 120.0
            },
            {
                "start_time": 15.672727272727272,
                "end_time": 15.70681818181818,
                "pitch": 40,
                "velocity": 127,
                "duration": 0.034090909090908283,
                "tempo": 120.0
            },
            {
                "start_time": 15.70681818181818,
                "end_time": 15.722727272727273,
                "pitch": 36,
                "velocity": 127,
                "duration": 0.015909090909092427,
                "tempo": 120.0
            },
            {
                "start_time": 15.725,
                "end_time": 15.790909090909091,
                "pitch": 47,
                "velocity": 127,
                "duration": 0.06590909090909136,
                "tempo": 120.0
            },
            {
                "start_time": 15.790909090909091,
                "end_time": 15.84090909090909,
                "pitch": 45,
                "velocity": 127,
                "duration": 0.049999999999998934,
                "tempo": 120.0
            },
            {
                "start_time": 15.34090909090909,
                "end_time": 15.84090909090909,
                "pitch": 55,
                "velocity": 127,
                "duration": 0.5,
                "tempo": 120.0
            },
            {
                "start_time": 15.84090909090909,
                "end_time": 15.89090909090909,
                "pitch": 43,
                "velocity": 127,
                "duration": 0.05000000000000071,
                "tempo": 120.0
            },
            {
                "start_time": 15.89090909090909,
                "end_time": 15.94090909090909,
                "pitch": 41,
                "velocity": 127,
                "duration": 0.049999999999998934,
                "tempo": 120.0
            },
            {
                "start_time": 15.94090909090909,
                "end_time": 15.975,
                "pitch": 38,
                "velocity": 127,
                "duration": 0.03409090909091006,
                "tempo": 120.0
            },
            {
                "start_time": 15.975,
                "end_time": 16.025,
                "pitch": 53,
                "velocity": 127,
                "duration": 0.049999999999998934,
                "tempo": 120.0
            },
            {
                "start_time": 16.025,
                "end_time": 16.075,
                "pitch": 50,
                "velocity": 127,
                "duration": 0.05000000000000071,
                "tempo": 120.0
            },
            {
                "start_time": 16.075,
                "end_time": 16.10681818181818,
                "pitch": 48,
                "velocity": 127,
                "duration": 0.0318181818181813,
                "tempo": 120.0
            },
            {
                "start_time": 16.10681818181818,
                "end_time": 16.14090909090909,
                "pitch": 45,
                "velocity": 127,
                "duration": 0.03409090909091006,
                "tempo": 120.0
            },
            {
                "start_time": 16.14090909090909,
                "end_time": 16.175,
                "pitch": 43,
                "velocity": 127,
                "duration": 0.03409090909091006,
                "tempo": 120.0
            },
            {
                "start_time": 16.175,
                "end_time": 16.206818181818182,
                "pitch": 40,
                "velocity": 127,
                "duration": 0.0318181818181813,
                "tempo": 120.0
            },
            {
                "start_time": 16.206818181818182,
                "end_time": 16.224999999999998,
                "pitch": 36,
                "velocity": 127,
                "duration": 0.018181818181815856,
                "tempo": 120.0
            },
            {
                "start_time": 16.224999999999998,
                "end_time": 16.29090909090909,
                "pitch": 47,
                "velocity": 127,
                "duration": 0.06590909090909136,
                "tempo": 120.0
            },
            {
                "start_time": 16.29090909090909,
                "end_time": 16.34090909090909,
                "pitch": 45,
                "velocity": 127,
                "duration": 0.05000000000000071,
                "tempo": 120.0
            },
            {
                "start_time": 15.84090909090909,
                "end_time": 16.34090909090909,
                "pitch": 55,
                "velocity": 127,
                "duration": 0.5,
                "tempo": 120.0
            },
            {
                "start_time": 16.34090909090909,
                "end_time": 16.39090909090909,
                "pitch": 43,
                "velocity": 127,
                "duration": 0.05000000000000071,
                "tempo": 120.0
            },
            {
                "start_time": 16.39090909090909,
                "end_time": 16.44090909090909,
                "pitch": 41,
                "velocity": 127,
                "duration": 0.05000000000000071,
                "tempo": 120.0
            },
            {
                "start_time": 16.44090909090909,
                "end_time": 16.474999999999998,
                "pitch": 38,
                "velocity": 127,
                "duration": 0.03409090909090651,
                "tempo": 120.0
            },
            {
                "start_time": 16.474999999999998,
                "end_time": 16.525,
                "pitch": 53,
                "velocity": 127,
                "duration": 0.05000000000000071,
                "tempo": 120.0
            },
            {
                "start_time": 16.525,
                "end_time": 16.575,
                "pitch": 50,
                "velocity": 127,
                "duration": 0.05000000000000071,
                "tempo": 120.0
            },
            {
                "start_time": 16.575,
                "end_time": 16.60909090909091,
                "pitch": 48,
                "velocity": 127,
                "duration": 0.03409090909091006,
                "tempo": 120.0
            },
            {
                "start_time": 16.60909090909091,
                "end_time": 16.64090909090909,
                "pitch": 45,
                "velocity": 127,
                "duration": 0.0318181818181813,
                "tempo": 120.0
            },
            {
                "start_time": 16.64090909090909,
                "end_time": 16.675,
                "pitch": 43,
                "velocity": 127,
                "duration": 0.03409090909091006,
                "tempo": 120.0
            },
            {
                "start_time": 16.675,
                "end_time": 16.709090909090907,
                "pitch": 40,
                "velocity": 127,
                "duration": 0.03409090909090651,
                "tempo": 120.0
            },
            {
                "start_time": 16.709090909090907,
                "end_time": 16.724999999999998,
                "pitch": 36,
                "velocity": 127,
                "duration": 0.01590909090909065,
                "tempo": 120.0
            },
            {
                "start_time": 16.724999999999998,
                "end_time": 16.79090909090909,
                "pitch": 47,
                "velocity": 127,
                "duration": 0.06590909090909136,
                "tempo": 120.0
            },
            {
                "start_time": 16.79090909090909,
                "end_time": 16.84090909090909,
                "pitch": 45,
                "velocity": 127,
                "duration": 0.05000000000000071,
                "tempo": 120.0
            },
            {
                "start_time": 16.34090909090909,
                "end_time": 16.84090909090909,
                "pitch": 55,
                "velocity": 127,
                "duration": 0.5,
                "tempo": 120.0
            },
            {
                "start_time": 16.84090909090909,
                "end_time": 16.89090909090909,
                "pitch": 43,
                "velocity": 127,
                "duration": 0.05000000000000071,
                "tempo": 120.0
            },
            {
                "start_time": 16.89090909090909,
                "end_time": 16.94090909090909,
                "pitch": 41,
                "velocity": 127,
                "duration": 0.05000000000000071,
                "tempo": 120.0
            },
            {
                "start_time": 16.94090909090909,
                "end_time": 16.974999999999998,
                "pitch": 38,
                "velocity": 127,
                "duration": 0.03409090909090651,
                "tempo": 120.0
            },
            {
                "start_time": 16.974999999999998,
                "end_time": 17.025,
                "pitch": 53,
                "velocity": 127,
                "duration": 0.05000000000000071,
                "tempo": 120.0
            },
            {
                "start_time": 17.025,
                "end_time": 17.075,
                "pitch": 50,
                "velocity": 127,
                "duration": 0.05000000000000071,
                "tempo": 120.0
            },
            {
                "start_time": 17.075,
                "end_time": 17.10909090909091,
                "pitch": 48,
                "velocity": 127,
                "duration": 0.03409090909091006,
                "tempo": 120.0
            },
            {
                "start_time": 17.10909090909091,
                "end_time": 17.143181818181816,
                "pitch": 45,
                "velocity": 127,
                "duration": 0.03409090909090651,
                "tempo": 120.0
            },
            {
                "start_time": 17.143181818181816,
                "end_time": 17.175,
                "pitch": 43,
                "velocity": 127,
                "duration": 0.031818181818184854,
                "tempo": 120.0
            },
            {
                "start_time": 17.175,
                "end_time": 17.209090909090907,
                "pitch": 40,
                "velocity": 127,
                "duration": 0.03409090909090651,
                "tempo": 120.0
            },
            {
                "start_time": 17.209090909090907,
                "end_time": 17.224999999999998,
                "pitch": 36,
                "velocity": 127,
                "duration": 0.01590909090909065,
                "tempo": 120.0
            },
            {
                "start_time": 17.227272727272727,
                "end_time": 17.275,
                "pitch": 50,
                "velocity": 127,
                "duration": 0.04772727272727195,
                "tempo": 120.0
            },
            {
                "start_time": 17.275,
                "end_time": 17.30909090909091,
                "pitch": 47,
                "velocity": 127,
                "duration": 0.03409090909091006,
                "tempo": 120.0
            },
            {
                "start_time": 17.30909090909091,
                "end_time": 17.34318181818182,
                "pitch": 45,
                "velocity": 127,
                "duration": 0.03409090909091006,
                "tempo": 120.0
            },
            {
                "start_time": 17.34318181818182,
                "end_time": 17.375,
                "pitch": 42,
                "velocity": 127,
                "duration": 0.0318181818181813,
                "tempo": 120.0
            },
            {
                "start_time": 17.375,
                "end_time": 17.409090909090907,
                "pitch": 39,
                "velocity": 127,
                "duration": 0.03409090909090651,
                "tempo": 120.0
            },
            {
                "start_time": 17.409090909090907,
                "end_time": 17.425,
                "pitch": 35,
                "velocity": 127,
                "duration": 0.015909090909094203,
                "tempo": 120.0
            },
            {
                "start_time": 17.425,
                "end_time": 17.443181818181817,
                "pitch": 33,
                "velocity": 127,
                "duration": 0.018181818181815856,
                "tempo": 120.0
            },
            {
                "start_time": 17.443181818181817,
                "end_time": 17.459090909090907,
                "pitch": 30,
                "velocity": 127,
                "duration": 0.01590909090909065,
                "tempo": 120.0
            },
            {
                "start_time": 17.459090909090907,
                "end_time": 17.474999999999998,
                "pitch": 27,
                "velocity": 127,
                "duration": 0.01590909090909065,
                "tempo": 120.0
            },
            {
                "start_time": 17.477272727272727,
                "end_time": 17.525,
                "pitch": 50,
                "velocity": 127,
                "duration": 0.04772727272727195,
                "tempo": 120.0
            },
            {
                "start_time": 17.525,
                "end_time": 17.55909090909091,
                "pitch": 47,
                "velocity": 127,
                "duration": 0.03409090909091006,
                "tempo": 120.0
            },
            {
                "start_time": 17.55909090909091,
                "end_time": 17.59318181818182,
                "pitch": 45,
                "velocity": 127,
                "duration": 0.03409090909091006,
                "tempo": 120.0
            },
            {
                "start_time": 17.59318181818182,
                "end_time": 17.627272727272725,
                "pitch": 42,
                "velocity": 127,
                "duration": 0.03409090909090651,
                "tempo": 120.0
            },
            {
                "start_time": 17.627272727272725,
                "end_time": 17.659090909090907,
                "pitch": 39,
                "velocity": 127,
                "duration": 0.0318181818181813,
                "tempo": 120.0
            },
            {
                "start_time": 17.659090909090907,
                "end_time": 17.677272727272726,
                "pitch": 35,
                "velocity": 127,
                "duration": 0.01818181818181941,
                "tempo": 120.0
            },
            {
                "start_time": 17.677272727272726,
                "end_time": 17.693181818181817,
                "pitch": 33,
                "velocity": 127,
                "duration": 0.01590909090909065,
                "tempo": 120.0
            },
            {
                "start_time": 17.693181818181817,
                "end_time": 17.709090909090907,
                "pitch": 30,
                "velocity": 127,
                "duration": 0.01590909090909065,
                "tempo": 120.0
            },
            {
                "start_time": 17.709090909090907,
                "end_time": 17.727272727272727,
                "pitch": 27,
                "velocity": 127,
                "duration": 0.01818181818181941,
                "tempo": 120.0
            },
            {
                "start_time": 17.727272727272727,
                "end_time": 17.777272727272727,
                "pitch": 50,
                "velocity": 127,
                "duration": 0.05000000000000071,
                "tempo": 120.0
            },
            {
                "start_time": 17.777272727272727,
                "end_time": 17.80909090909091,
                "pitch": 47,
                "velocity": 127,
                "duration": 0.0318181818181813,
                "tempo": 120.0
            },
            {
                "start_time": 17.80909090909091,
                "end_time": 17.84318181818182,
                "pitch": 45,
                "velocity": 127,
                "duration": 0.03409090909091006,
                "tempo": 120.0
            },
            {
                "start_time": 17.84318181818182,
                "end_time": 17.877272727272725,
                "pitch": 42,
                "velocity": 127,
                "duration": 0.03409090909090651,
                "tempo": 120.0
            },
            {
                "start_time": 17.877272727272725,
                "end_time": 17.909090909090907,
                "pitch": 39,
                "velocity": 127,
                "duration": 0.0318181818181813,
                "tempo": 120.0
            },
            {
                "start_time": 17.909090909090907,
                "end_time": 17.927272727272726,
                "pitch": 35,
                "velocity": 127,
                "duration": 0.01818181818181941,
                "tempo": 120.0
            },
            {
                "start_time": 17.927272727272726,
                "end_time": 17.943181818181817,
                "pitch": 33,
                "velocity": 127,
                "duration": 0.01590909090909065,
                "tempo": 120.0
            },
            {
                "start_time": 17.943181818181817,
                "end_time": 17.959090909090907,
                "pitch": 30,
                "velocity": 127,
                "duration": 0.01590909090909065,
                "tempo": 120.0
            },
            {
                "start_time": 17.959090909090907,
                "end_time": 17.977272727272727,
                "pitch": 27,
                "velocity": 127,
                "duration": 0.01818181818181941,
                "tempo": 120.0
            },
            {
                "start_time": 17.977272727272727,
                "end_time": 18.027272727272727,
                "pitch": 50,
                "velocity": 127,
                "duration": 0.05000000000000071,
                "tempo": 120.0
            },
            {
                "start_time": 18.027272727272727,
                "end_time": 18.05909090909091,
                "pitch": 47,
                "velocity": 127,
                "duration": 0.0318181818181813,
                "tempo": 120.0
            },
            {
                "start_time": 18.05909090909091,
                "end_time": 18.09318181818182,
                "pitch": 45,
                "velocity": 127,
                "duration": 0.03409090909091006,
                "tempo": 120.0
            },
            {
                "start_time": 18.09318181818182,
                "end_time": 18.127272727272725,
                "pitch": 42,
                "velocity": 127,
                "duration": 0.03409090909090651,
                "tempo": 120.0
            },
            {
                "start_time": 18.127272727272725,
                "end_time": 18.159090909090907,
                "pitch": 39,
                "velocity": 127,
                "duration": 0.0318181818181813,
                "tempo": 120.0
            },
            {
                "start_time": 18.159090909090907,
                "end_time": 18.177272727272726,
                "pitch": 35,
                "velocity": 127,
                "duration": 0.01818181818181941,
                "tempo": 120.0
            },
            {
                "start_time": 18.177272727272726,
                "end_time": 18.193181818181817,
                "pitch": 33,
                "velocity": 127,
                "duration": 0.01590909090909065,
                "tempo": 120.0
            },
            {
                "start_time": 18.193181818181817,
                "end_time": 18.209090909090907,
                "pitch": 30,
                "velocity": 127,
                "duration": 0.01590909090909065,
                "tempo": 120.0
            },
            {
                "start_time": 18.209090909090907,
                "end_time": 18.227272727272727,
                "pitch": 27,
                "velocity": 127,
                "duration": 0.01818181818181941,
                "tempo": 120.0
            },
            {
                "start_time": 18.227272727272727,
                "end_time": 18.293181818181818,
                "pitch": 47,
                "velocity": 127,
                "duration": 0.06590909090909136,
                "tempo": 120.0
            },
            {
                "start_time": 18.293181818181818,
                "end_time": 18.34318181818182,
                "pitch": 45,
                "velocity": 127,
                "duration": 0.05000000000000071,
                "tempo": 120.0
            },
            {
                "start_time": 16.84090909090909,
                "end_time": 18.34318181818182,
                "pitch": 55,
                "velocity": 127,
                "duration": 1.5022727272727288,
                "tempo": 120.0
            },
            {
                "start_time": 18.34318181818182,
                "end_time": 18.393181818181816,
                "pitch": 43,
                "velocity": 127,
                "duration": 0.04999999999999716,
                "tempo": 120.0
            },
            {
                "start_time": 18.393181818181816,
                "end_time": 18.443181818181817,
                "pitch": 41,
                "velocity": 127,
                "duration": 0.05000000000000071,
                "tempo": 120.0
            },
            {
                "start_time": 18.443181818181817,
                "end_time": 18.477272727272727,
                "pitch": 38,
                "velocity": 127,
                "duration": 0.03409090909091006,
                "tempo": 120.0
            },
            {
                "start_time": 18.477272727272727,
                "end_time": 18.527272727272727,
                "pitch": 53,
                "velocity": 127,
                "duration": 0.05000000000000071,
                "tempo": 120.0
            },
            {
                "start_time": 18.527272727272727,
                "end_time": 18.577272727272728,
                "pitch": 50,
                "velocity": 127,
                "duration": 0.05000000000000071,
                "tempo": 120.0
            },
            {
                "start_time": 18.577272727272728,
                "end_time": 18.611363636363635,
                "pitch": 48,
                "velocity": 127,
                "duration": 0.03409090909090651,
                "tempo": 120.0
            },
            {
                "start_time": 18.611363636363635,
                "end_time": 18.643181818181816,
                "pitch": 45,
                "velocity": 127,
                "duration": 0.0318181818181813,
                "tempo": 120.0
            },
            {
                "start_time": 18.643181818181816,
                "end_time": 18.677272727272726,
                "pitch": 43,
                "velocity": 127,
                "duration": 0.03409090909091006,
                "tempo": 120.0
            },
            {
                "start_time": 18.677272727272726,
                "end_time": 18.711363636363636,
                "pitch": 40,
                "velocity": 127,
                "duration": 0.03409090909091006,
                "tempo": 120.0
            },
            {
                "start_time": 18.711363636363636,
                "end_time": 18.727272727272727,
                "pitch": 36,
                "velocity": 127,
                "duration": 0.01590909090909065,
                "tempo": 120.0
            },
            {
                "start_time": 18.727272727272727,
                "end_time": 18.793181818181818,
                "pitch": 47,
                "velocity": 127,
                "duration": 0.06590909090909136,
                "tempo": 120.0
            },
            {
                "start_time": 18.793181818181818,
                "end_time": 18.845454545454544,
                "pitch": 45,
                "velocity": 127,
                "duration": 0.052272727272725916,
                "tempo": 120.0
            },
            {
                "start_time": 18.34318181818182,
                "end_time": 18.845454545454544,
                "pitch": 55,
                "velocity": 127,
                "duration": 0.5022727272727252,
                "tempo": 120.0
            },
            {
                "start_time": 18.845454545454544,
                "end_time": 18.895454545454545,
                "pitch": 43,
                "velocity": 127,
                "duration": 0.05000000000000071,
                "tempo": 120.0
            },
            {
                "start_time": 18.895454545454545,
                "end_time": 18.945454545454545,
                "pitch": 41,
                "velocity": 127,
                "duration": 0.05000000000000071,
                "tempo": 120.0
            },
            {
                "start_time": 18.945454545454545,
                "end_time": 18.977272727272727,
                "pitch": 38,
                "velocity": 127,
                "duration": 0.0318181818181813,
                "tempo": 120.0
            },
            {
                "start_time": 18.979545454545455,
                "end_time": 19.027272727272727,
                "pitch": 53,
                "velocity": 127,
                "duration": 0.04772727272727195,
                "tempo": 120.0
            },
            {
                "start_time": 19.027272727272727,
                "end_time": 19.077272727272728,
                "pitch": 50,
                "velocity": 127,
                "duration": 0.05000000000000071,
                "tempo": 120.0
            },
            {
                "start_time": 19.077272727272728,
                "end_time": 19.111363636363635,
                "pitch": 48,
                "velocity": 127,
                "duration": 0.03409090909090651,
                "tempo": 120.0
            },
            {
                "start_time": 19.111363636363635,
                "end_time": 19.145454545454545,
                "pitch": 45,
                "velocity": 127,
                "duration": 0.03409090909091006,
                "tempo": 120.0
            },
            {
                "start_time": 19.145454545454545,
                "end_time": 19.177272727272726,
                "pitch": 43,
                "velocity": 127,
                "duration": 0.0318181818181813,
                "tempo": 120.0
            },
            {
                "start_time": 19.177272727272726,
                "end_time": 19.211363636363636,
                "pitch": 40,
                "velocity": 127,
                "duration": 0.03409090909091006,
                "tempo": 120.0
            },
            {
                "start_time": 19.211363636363636,
                "end_time": 19.227272727272727,
                "pitch": 36,
                "velocity": 127,
                "duration": 0.01590909090909065,
                "tempo": 120.0
            },
            {
                "start_time": 19.229545454545455,
                "end_time": 19.295454545454543,
                "pitch": 47,
                "velocity": 127,
                "duration": 0.06590909090908781,
                "tempo": 120.0
            },
            {
                "start_time": 19.295454545454543,
                "end_time": 19.345454545454544,
                "pitch": 45,
                "velocity": 127,
                "duration": 0.05000000000000071,
                "tempo": 120.0
            },
            {
                "start_time": 18.845454545454544,
                "end_time": 19.345454545454544,
                "pitch": 55,
                "velocity": 127,
                "duration": 0.5,
                "tempo": 120.0
            },
            {
                "start_time": 19.345454545454544,
                "end_time": 19.395454545454545,
                "pitch": 43,
                "velocity": 127,
                "duration": 0.05000000000000071,
                "tempo": 120.0
            },
            {
                "start_time": 19.395454545454545,
                "end_time": 19.445454545454545,
                "pitch": 41,
                "velocity": 127,
                "duration": 0.05000000000000071,
                "tempo": 120.0
            },
            {
                "start_time": 19.445454545454545,
                "end_time": 19.479545454545452,
                "pitch": 38,
                "velocity": 127,
                "duration": 0.03409090909090651,
                "tempo": 120.0
            },
            {
                "start_time": 19.479545454545452,
                "end_time": 19.529545454545453,
                "pitch": 53,
                "velocity": 127,
                "duration": 0.05000000000000071,
                "tempo": 120.0
            },
            {
                "start_time": 19.529545454545453,
                "end_time": 19.579545454545453,
                "pitch": 50,
                "velocity": 127,
                "duration": 0.05000000000000071,
                "tempo": 120.0
            },
            {
                "start_time": 19.579545454545453,
                "end_time": 19.611363636363635,
                "pitch": 48,
                "velocity": 127,
                "duration": 0.0318181818181813,
                "tempo": 120.0
            },
            {
                "start_time": 19.611363636363635,
                "end_time": 19.645454545454545,
                "pitch": 45,
                "velocity": 127,
                "duration": 0.03409090909091006,
                "tempo": 120.0
            },
            {
                "start_time": 19.645454545454545,
                "end_time": 19.679545454545455,
                "pitch": 43,
                "velocity": 127,
                "duration": 0.03409090909091006,
                "tempo": 120.0
            },
            {
                "start_time": 19.679545454545455,
                "end_time": 19.711363636363636,
                "pitch": 40,
                "velocity": 127,
                "duration": 0.0318181818181813,
                "tempo": 120.0
            },
            {
                "start_time": 19.711363636363636,
                "end_time": 19.729545454545452,
                "pitch": 36,
                "velocity": 127,
                "duration": 0.018181818181815856,
                "tempo": 120.0
            },
            {
                "start_time": 19.729545454545452,
                "end_time": 19.797727272727272,
                "pitch": 47,
                "velocity": 127,
                "duration": 0.06818181818182012,
                "tempo": 120.0
            },
            {
                "start_time": 19.797727272727272,
                "end_time": 19.847727272727273,
                "pitch": 45,
                "velocity": 127,
                "duration": 0.05000000000000071,
                "tempo": 120.0
            },
            {
                "start_time": 19.345454545454544,
                "end_time": 19.847727272727273,
                "pitch": 55,
                "velocity": 127,
                "duration": 0.5022727272727288,
                "tempo": 120.0
            },
            {
                "start_time": 19.847727272727273,
                "end_time": 19.9,
                "pitch": 43,
                "velocity": 127,
                "duration": 0.052272727272725916,
                "tempo": 120.0
            },
            {
                "start_time": 19.9,
                "end_time": 19.95,
                "pitch": 41,
                "velocity": 127,
                "duration": 0.05000000000000071,
                "tempo": 120.0
            },
            {
                "start_time": 19.95,
                "end_time": 19.986363636363635,
                "pitch": 38,
                "velocity": 127,
                "duration": 0.036363636363635266,
                "tempo": 120.0
            },
            {
                "start_time": 19.986363636363635,
                "end_time": 20.036363636363635,
                "pitch": 53,
                "velocity": 127,
                "duration": 0.05000000000000071,
                "tempo": 120.0
            },
            {
                "start_time": 20.036363636363635,
                "end_time": 20.08863636363636,
                "pitch": 50,
                "velocity": 127,
                "duration": 0.052272727272725916,
                "tempo": 120.0
            },
            {
                "start_time": 20.08863636363636,
                "end_time": 20.12272727272727,
                "pitch": 48,
                "velocity": 127,
                "duration": 0.03409090909091006,
                "tempo": 120.0
            },
            {
                "start_time": 20.12272727272727,
                "end_time": 20.15681818181818,
                "pitch": 45,
                "velocity": 127,
                "duration": 0.03409090909091006,
                "tempo": 120.0
            },
            {
                "start_time": 20.15681818181818,
                "end_time": 20.19090909090909,
                "pitch": 43,
                "velocity": 127,
                "duration": 0.03409090909091006,
                "tempo": 120.0
            },
            {
                "start_time": 20.19090909090909,
                "end_time": 20.224999999999998,
                "pitch": 40,
                "velocity": 127,
                "duration": 0.03409090909090651,
                "tempo": 120.0
            },
            {
                "start_time": 20.224999999999998,
                "end_time": 20.243181818181817,
                "pitch": 36,
                "velocity": 127,
                "duration": 0.01818181818181941,
                "tempo": 120.0
            },
            {
                "start_time": 20.243181818181817,
                "end_time": 20.30909090909091,
                "pitch": 47,
                "velocity": 127,
                "duration": 0.06590909090909136,
                "tempo": 120.0
            },
            {
                "start_time": 20.30909090909091,
                "end_time": 20.35909090909091,
                "pitch": 45,
                "velocity": 127,
                "duration": 0.05000000000000071,
                "tempo": 120.0
            },
            {
                "start_time": 19.847727272727273,
                "end_time": 20.35909090909091,
                "pitch": 55,
                "velocity": 127,
                "duration": 0.5113636363636367,
                "tempo": 120.0
            },
            {
                "start_time": 20.35909090909091,
                "end_time": 20.409090909090907,
                "pitch": 43,
                "velocity": 127,
                "duration": 0.04999999999999716,
                "tempo": 120.0
            },
            {
                "start_time": 20.409090909090907,
                "end_time": 20.459090909090907,
                "pitch": 41,
                "velocity": 127,
                "duration": 0.05000000000000071,
                "tempo": 120.0
            },
            {
                "start_time": 20.459090909090907,
                "end_time": 20.493181818181817,
                "pitch": 38,
                "velocity": 127,
                "duration": 0.03409090909091006,
                "tempo": 120.0
            },
            {
                "start_time": 20.493181818181817,
                "end_time": 20.543181818181818,
                "pitch": 53,
                "velocity": 127,
                "duration": 0.05000000000000071,
                "tempo": 120.0
            },
            {
                "start_time": 20.543181818181818,
                "end_time": 20.59318181818182,
                "pitch": 50,
                "velocity": 127,
                "duration": 0.05000000000000071,
                "tempo": 120.0
            },
            {
                "start_time": 20.59318181818182,
                "end_time": 20.625,
                "pitch": 48,
                "velocity": 127,
                "duration": 0.0318181818181813,
                "tempo": 120.0
            },
            {
                "start_time": 20.625,
                "end_time": 20.659090909090907,
                "pitch": 45,
                "velocity": 127,
                "duration": 0.03409090909090651,
                "tempo": 120.0
            },
            {
                "start_time": 20.659090909090907,
                "end_time": 20.693181818181817,
                "pitch": 43,
                "velocity": 127,
                "duration": 0.03409090909091006,
                "tempo": 120.0
            },
            {
                "start_time": 20.693181818181817,
                "end_time": 20.727272727272727,
                "pitch": 40,
                "velocity": 127,
                "duration": 0.03409090909091006,
                "tempo": 120.0
            },
            {
                "start_time": 20.727272727272727,
                "end_time": 20.743181818181817,
                "pitch": 36,
                "velocity": 127,
                "duration": 0.01590909090909065,
                "tempo": 120.0
            },
            {
                "start_time": 20.743181818181817,
                "end_time": 20.80909090909091,
                "pitch": 47,
                "velocity": 127,
                "duration": 0.06590909090909136,
                "tempo": 120.0
            },
            {
                "start_time": 20.80909090909091,
                "end_time": 20.85909090909091,
                "pitch": 45,
                "velocity": 127,
                "duration": 0.05000000000000071,
                "tempo": 120.0
            },
            {
                "start_time": 20.35909090909091,
                "end_time": 20.85909090909091,
                "pitch": 55,
                "velocity": 127,
                "duration": 0.5,
                "tempo": 120.0
            },
            {
                "start_time": 20.85909090909091,
                "end_time": 20.909090909090907,
                "pitch": 43,
                "velocity": 127,
                "duration": 0.04999999999999716,
                "tempo": 120.0
            },
            {
                "start_time": 20.909090909090907,
                "end_time": 20.959090909090907,
                "pitch": 41,
                "velocity": 127,
                "duration": 0.05000000000000071,
                "tempo": 120.0
            },
            {
                "start_time": 20.959090909090907,
                "end_time": 20.993181818181817,
                "pitch": 38,
                "velocity": 127,
                "duration": 0.03409090909091006,
                "tempo": 120.0
            },
            {
                "start_time": 20.993181818181817,
                "end_time": 21.043181818181818,
                "pitch": 53,
                "velocity": 127,
                "duration": 0.05000000000000071,
                "tempo": 120.0
            },
            {
                "start_time": 21.043181818181818,
                "end_time": 21.09318181818182,
                "pitch": 50,
                "velocity": 127,
                "duration": 0.05000000000000071,
                "tempo": 120.0
            },
            {
                "start_time": 21.09318181818182,
                "end_time": 21.127272727272725,
                "pitch": 48,
                "velocity": 127,
                "duration": 0.03409090909090651,
                "tempo": 120.0
            },
            {
                "start_time": 21.127272727272725,
                "end_time": 21.159090909090907,
                "pitch": 45,
                "velocity": 127,
                "duration": 0.0318181818181813,
                "tempo": 120.0
            },
            {
                "start_time": 21.159090909090907,
                "end_time": 21.193181818181817,
                "pitch": 43,
                "velocity": 127,
                "duration": 0.03409090909091006,
                "tempo": 120.0
            },
            {
                "start_time": 21.193181818181817,
                "end_time": 21.227272727272727,
                "pitch": 40,
                "velocity": 127,
                "duration": 0.03409090909091006,
                "tempo": 120.0
            },
            {
                "start_time": 21.227272727272727,
                "end_time": 21.243181818181817,
                "pitch": 36,
                "velocity": 127,
                "duration": 0.01590909090909065,
                "tempo": 120.0
            },
            {
                "start_time": 21.245454545454546,
                "end_time": 21.261363636363637,
                "pitch": 59,
                "velocity": 127,
                "duration": 0.01590909090909065,
                "tempo": 120.0
            },
            {
                "start_time": 21.261363636363637,
                "end_time": 21.327272727272724,
                "pitch": 59,
                "velocity": 127,
                "duration": 0.06590909090908781,
                "tempo": 120.0
            },
            {
                "start_time": 21.327272727272724,
                "end_time": 21.377272727272725,
                "pitch": 57,
                "velocity": 127,
                "duration": 0.05000000000000071,
                "tempo": 120.0
            },
            {
                "start_time": 5.877272727272727,
                "end_time": 21.377272727272725,
                "pitch": 67,
                "velocity": 127,
                "duration": 15.499999999999998,
                "tempo": 120.0
            },
            {
                "start_time": 20.85909090909091,
                "end_time": 21.411363636363635,
                "pitch": 55,
                "velocity": 127,
                "duration": 0.5522727272727259,
                "tempo": 120.0
            },
            {
                "start_time": 21.377272727272725,
                "end_time": 21.411363636363635,
                "pitch": 55,
                "velocity": 127,
                "duration": 0.03409090909091006,
                "tempo": 120.0
            },
            {
                "start_time": 21.411363636363635,
                "end_time": 21.427272727272726,
                "pitch": 57,
                "velocity": 127,
                "duration": 0.01590909090909065,
                "tempo": 120.0
            },
            {
                "start_time": 21.427272727272726,
                "end_time": 21.493181818181817,
                "pitch": 57,
                "velocity": 127,
                "duration": 0.06590909090909136,
                "tempo": 120.0
            },
            {
                "start_time": 21.495454545454546,
                "end_time": 21.511363636363637,
                "pitch": 55,
                "velocity": 127,
                "duration": 0.01590909090909065,
                "tempo": 120.0
            },
            {
                "start_time": 21.511363636363637,
                "end_time": 21.527272727272727,
                "pitch": 55,
                "velocity": 127,
                "duration": 0.01590909090909065,
                "tempo": 120.0
            },
            {
                "start_time": 21.377272727272725,
                "end_time": 21.527272727272727,
                "pitch": 67,
                "velocity": 127,
                "duration": 0.15000000000000213,
                "tempo": 120.0
            },
            {
                "start_time": 21.527272727272727,
                "end_time": 21.577272727272724,
                "pitch": 54,
                "velocity": 127,
                "duration": 0.04999999999999716,
                "tempo": 120.0
            },
            {
                "start_time": 21.577272727272724,
                "end_time": 21.627272727272725,
                "pitch": 52,
                "velocity": 127,
                "duration": 0.05000000000000071,
                "tempo": 120.0
            },
            {
                "start_time": 21.627272727272725,
                "end_time": 21.661363636363635,
                "pitch": 49,
                "velocity": 127,
                "duration": 0.03409090909091006,
                "tempo": 120.0
            },
            {
                "start_time": 21.661363636363635,
                "end_time": 21.677272727272726,
                "pitch": 53,
                "velocity": 127,
                "duration": 0.01590909090909065,
                "tempo": 120.0
            },
            {
                "start_time": 21.677272727272726,
                "end_time": 21.727272727272727,
                "pitch": 53,
                "velocity": 127,
                "duration": 0.05000000000000071,
                "tempo": 120.0
            },
            {
                "start_time": 21.727272727272727,
                "end_time": 21.745454545454546,
                "pitch": 50,
                "velocity": 127,
                "duration": 0.01818181818181941,
                "tempo": 120.0
            },
            {
                "start_time": 21.745454545454546,
                "end_time": 21.761363636363637,
                "pitch": 41,
                "velocity": 101,
                "duration": 0.01590909090909065,
                "tempo": 120.0
            },
            {
                "start_time": 21.761363636363637,
                "end_time": 21.811363636363634,
                "pitch": 41,
                "velocity": 101,
                "duration": 0.04999999999999716,
                "tempo": 120.0
            },
            {
                "start_time": 21.811363636363634,
                "end_time": 21.861363636363635,
                "pitch": 38,
                "velocity": 101,
                "duration": 0.05000000000000071,
                "tempo": 120.0
            },
            {
                "start_time": 21.861363636363635,
                "end_time": 21.895454545454545,
                "pitch": 36,
                "velocity": 101,
                "duration": 0.03409090909091006,
                "tempo": 120.0
            },
            {
                "start_time": 21.895454545454545,
                "end_time": 21.911363636363635,
                "pitch": 33,
                "velocity": 101,
                "duration": 0.01590909090909065,
                "tempo": 120.0
            },
            {
                "start_time": 21.911363636363635,
                "end_time": 21.961363636363636,
                "pitch": 41,
                "velocity": 101,
                "duration": 0.05000000000000071,
                "tempo": 120.0
            },
            {
                "start_time": 21.961363636363636,
                "end_time": 21.995454545454546,
                "pitch": 38,
                "velocity": 101,
                "duration": 0.03409090909091006,
                "tempo": 120.0
            },
            {
                "start_time": 21.995454545454546,
                "end_time": 22.011363636363637,
                "pitch": 41,
                "velocity": 101,
                "duration": 0.01590909090909065,
                "tempo": 120.0
            },
            {
                "start_time": 22.011363636363637,
                "end_time": 22.061363636363634,
                "pitch": 41,
                "velocity": 101,
                "duration": 0.04999999999999716,
                "tempo": 120.0
            },
            {
                "start_time": 22.061363636363634,
                "end_time": 22.111363636363635,
                "pitch": 38,
                "velocity": 101,
                "duration": 0.05000000000000071,
                "tempo": 120.0
            },
            {
                "start_time": 22.111363636363635,
                "end_time": 22.145454545454545,
                "pitch": 36,
                "velocity": 101,
                "duration": 0.03409090909091006,
                "tempo": 120.0
            },
            {
                "start_time": 22.145454545454545,
                "end_time": 22.161363636363635,
                "pitch": 33,
                "velocity": 101,
                "duration": 0.01590909090909065,
                "tempo": 120.0
            },
            {
                "start_time": 22.161363636363635,
                "end_time": 22.211363636363636,
                "pitch": 41,
                "velocity": 101,
                "duration": 0.05000000000000071,
                "tempo": 120.0
            },
            {
                "start_time": 22.211363636363636,
                "end_time": 22.245454545454546,
                "pitch": 38,
                "velocity": 101,
                "duration": 0.03409090909091006,
                "tempo": 120.0
            },
            {
                "start_time": 22.245454545454546,
                "end_time": 22.261363636363637,
                "pitch": 59,
                "velocity": 127,
                "duration": 0.01590909090909065,
                "tempo": 120.0
            },
            {
                "start_time": 22.261363636363637,
                "end_time": 22.327272727272724,
                "pitch": 59,
                "velocity": 127,
                "duration": 0.06590909090908781,
                "tempo": 120.0
            },
            {
                "start_time": 22.327272727272724,
                "end_time": 22.377272727272725,
                "pitch": 57,
                "velocity": 127,
                "duration": 0.05000000000000071,
                "tempo": 120.0
            },
            {
                "start_time": 21.527272727272727,
                "end_time": 22.379545454545454,
                "pitch": 67,
                "velocity": 127,
                "duration": 0.8522727272727266,
                "tempo": 120.0
            },
            {
                "start_time": 22.377272727272725,
                "end_time": 22.379545454545454,
                "pitch": 67,
                "velocity": 127,
                "duration": 0.0022727272727287584,
                "tempo": 120.0
            },
            {
                "start_time": 22.379545454545454,
                "end_time": 22.411363636363635,
                "pitch": 55,
                "velocity": 127,
                "duration": 0.0318181818181813,
                "tempo": 120.0
            },
            {
                "start_time": 22.411363636363635,
                "end_time": 22.429545454545455,
                "pitch": 57,
                "velocity": 127,
                "duration": 0.01818181818181941,
                "tempo": 120.0
            },
            {
                "start_time": 22.429545454545455,
                "end_time": 22.495454545454546,
                "pitch": 57,
                "velocity": 127,
                "duration": 0.06590909090909136,
                "tempo": 120.0
            },
            {
                "start_time": 22.495454545454546,
                "end_time": 22.511363636363637,
                "pitch": 55,
                "velocity": 127,
                "duration": 0.01590909090909065,
                "tempo": 120.0
            },
            {
                "start_time": 22.511363636363637,
                "end_time": 22.529545454545453,
                "pitch": 55,
                "velocity": 127,
                "duration": 0.018181818181815856,
                "tempo": 120.0
            },
            {
                "start_time": 22.529545454545453,
                "end_time": 22.579545454545453,
                "pitch": 54,
                "velocity": 127,
                "duration": 0.05000000000000071,
                "tempo": 120.0
            },
            {
                "start_time": 22.579545454545453,
                "end_time": 22.629545454545454,
                "pitch": 52,
                "velocity": 127,
                "duration": 0.05000000000000071,
                "tempo": 120.0
            },
            {
                "start_time": 22.629545454545454,
                "end_time": 22.661363636363635,
                "pitch": 49,
                "velocity": 127,
                "duration": 0.0318181818181813,
                "tempo": 120.0
            },
            {
                "start_time": 22.663636363636364,
                "end_time": 22.679545454545455,
                "pitch": 53,
                "velocity": 127,
                "duration": 0.01590909090909065,
                "tempo": 120.0
            },
            {
                "start_time": 22.679545454545455,
                "end_time": 22.729545454545452,
                "pitch": 53,
                "velocity": 127,
                "duration": 0.04999999999999716,
                "tempo": 120.0
            },
            {
                "start_time": 22.729545454545452,
                "end_time": 22.745454545454546,
                "pitch": 50,
                "velocity": 127,
                "duration": 0.015909090909094203,
                "tempo": 120.0
            },
            {
                "start_time": 22.74772727272727,
                "end_time": 22.761363636363637,
                "pitch": 41,
                "velocity": 101,
                "duration": 0.013636363636365445,
                "tempo": 120.0
            },
            {
                "start_time": 22.763636363636362,
                "end_time": 22.811363636363634,
                "pitch": 41,
                "velocity": 101,
                "duration": 0.04772727272727195,
                "tempo": 120.0
            },
            {
                "start_time": 22.811363636363634,
                "end_time": 22.861363636363635,
                "pitch": 38,
                "velocity": 101,
                "duration": 0.05000000000000071,
                "tempo": 120.0
            },
            {
                "start_time": 22.861363636363635,
                "end_time": 22.895454545454545,
                "pitch": 36,
                "velocity": 101,
                "duration": 0.03409090909091006,
                "tempo": 120.0
            },
            {
                "start_time": 22.895454545454545,
                "end_time": 22.913636363636364,
                "pitch": 33,
                "velocity": 101,
                "duration": 0.01818181818181941,
                "tempo": 120.0
            },
            {
                "start_time": 22.913636363636364,
                "end_time": 22.961363636363636,
                "pitch": 41,
                "velocity": 101,
                "duration": 0.04772727272727195,
                "tempo": 120.0
            },
            {
                "start_time": 22.961363636363636,
                "end_time": 22.995454545454546,
                "pitch": 38,
                "velocity": 101,
                "duration": 0.03409090909091006,
                "tempo": 120.0
            },
            {
                "start_time": 22.995454545454546,
                "end_time": 23.013636363636362,
                "pitch": 41,
                "velocity": 101,
                "duration": 0.018181818181815856,
                "tempo": 120.0
            },
            {
                "start_time": 23.013636363636362,
                "end_time": 23.063636363636363,
                "pitch": 41,
                "velocity": 101,
                "duration": 0.05000000000000071,
                "tempo": 120.0
            },
            {
                "start_time": 23.063636363636363,
                "end_time": 23.113636363636363,
                "pitch": 38,
                "velocity": 101,
                "duration": 0.05000000000000071,
                "tempo": 120.0
            },
            {
                "start_time": 23.113636363636363,
                "end_time": 23.145454545454545,
                "pitch": 36,
                "velocity": 101,
                "duration": 0.0318181818181813,
                "tempo": 120.0
            },
            {
                "start_time": 23.145454545454545,
                "end_time": 23.163636363636364,
                "pitch": 33,
                "velocity": 101,
                "duration": 0.01818181818181941,
                "tempo": 120.0
            },
            {
                "start_time": 23.163636363636364,
                "end_time": 23.21363636363636,
                "pitch": 41,
                "velocity": 101,
                "duration": 0.04999999999999716,
                "tempo": 120.0
            },
            {
                "start_time": 23.21363636363636,
                "end_time": 23.245454545454546,
                "pitch": 38,
                "velocity": 101,
                "duration": 0.031818181818184854,
                "tempo": 120.0
            },
            {
                "start_time": 23.24772727272727,
                "end_time": 23.263636363636362,
                "pitch": 59,
                "velocity": 127,
                "duration": 0.01590909090909065,
                "tempo": 120.0
            },
            {
                "start_time": 23.263636363636362,
                "end_time": 23.329545454545453,
                "pitch": 59,
                "velocity": 127,
                "duration": 0.06590909090909136,
                "tempo": 120.0
            },
            {
                "start_time": 23.329545454545453,
                "end_time": 23.379545454545454,
                "pitch": 57,
                "velocity": 127,
                "duration": 0.05000000000000071,
                "tempo": 120.0
            },
            {
                "start_time": 22.529545454545453,
                "end_time": 23.379545454545454,
                "pitch": 67,
                "velocity": 127,
                "duration": 0.8500000000000014,
                "tempo": 120.0
            },
            {
                "start_time": 23.379545454545454,
                "end_time": 23.413636363636364,
                "pitch": 55,
                "velocity": 127,
                "duration": 0.03409090909091006,
                "tempo": 120.0
            },
            {
                "start_time": 23.413636363636364,
                "end_time": 23.429545454545455,
                "pitch": 57,
                "velocity": 127,
                "duration": 0.01590909090909065,
                "tempo": 120.0
            },
            {
                "start_time": 23.429545454545455,
                "end_time": 23.49772727272727,
                "pitch": 57,
                "velocity": 127,
                "duration": 0.06818181818181657,
                "tempo": 120.0
            },
            {
                "start_time": 23.49772727272727,
                "end_time": 23.513636363636362,
                "pitch": 55,
                "velocity": 127,
                "duration": 0.01590909090909065,
                "tempo": 120.0
            },
            {
                "start_time": 23.513636363636362,
                "end_time": 23.529545454545453,
                "pitch": 55,
                "velocity": 127,
                "duration": 0.01590909090909065,
                "tempo": 120.0
            },
            {
                "start_time": 23.379545454545454,
                "end_time": 23.529545454545453,
                "pitch": 67,
                "velocity": 127,
                "duration": 0.14999999999999858,
                "tempo": 120.0
            },
            {
                "start_time": 23.529545454545453,
                "end_time": 23.579545454545453,
                "pitch": 54,
                "velocity": 127,
                "duration": 0.05000000000000071,
                "tempo": 120.0
            },
            {
                "start_time": 23.579545454545453,
                "end_time": 23.629545454545454,
                "pitch": 52,
                "velocity": 127,
                "duration": 0.05000000000000071,
                "tempo": 120.0
            },
            {
                "start_time": 23.629545454545454,
                "end_time": 23.663636363636364,
                "pitch": 49,
                "velocity": 127,
                "duration": 0.03409090909091006,
                "tempo": 120.0
            },
            {
                "start_time": 23.663636363636364,
                "end_time": 23.679545454545455,
                "pitch": 53,
                "velocity": 127,
                "duration": 0.01590909090909065,
                "tempo": 120.0
            },
            {
                "start_time": 23.679545454545455,
                "end_time": 23.729545454545452,
                "pitch": 53,
                "velocity": 127,
                "duration": 0.04999999999999716,
                "tempo": 120.0
            },
            {
                "start_time": 23.729545454545452,
                "end_time": 23.74772727272727,
                "pitch": 50,
                "velocity": 127,
                "duration": 0.01818181818181941,
                "tempo": 120.0
            },
            {
                "start_time": 23.74772727272727,
                "end_time": 23.763636363636362,
                "pitch": 41,
                "velocity": 101,
                "duration": 0.01590909090909065,
                "tempo": 120.0
            },
            {
                "start_time": 23.763636363636362,
                "end_time": 23.813636363636363,
                "pitch": 41,
                "velocity": 101,
                "duration": 0.05000000000000071,
                "tempo": 120.0
            },
            {
                "start_time": 23.813636363636363,
                "end_time": 23.863636363636363,
                "pitch": 38,
                "velocity": 101,
                "duration": 0.05000000000000071,
                "tempo": 120.0
            },
            {
                "start_time": 23.863636363636363,
                "end_time": 23.89772727272727,
                "pitch": 36,
                "velocity": 101,
                "duration": 0.03409090909090651,
                "tempo": 120.0
            },
            {
                "start_time": 23.89772727272727,
                "end_time": 23.913636363636364,
                "pitch": 33,
                "velocity": 101,
                "duration": 0.015909090909094203,
                "tempo": 120.0
            },
            {
                "start_time": 23.913636363636364,
                "end_time": 23.96363636363636,
                "pitch": 41,
                "velocity": 101,
                "duration": 0.04999999999999716,
                "tempo": 120.0
            },
            {
                "start_time": 23.96363636363636,
                "end_time": 23.99772727272727,
                "pitch": 38,
                "velocity": 101,
                "duration": 0.03409090909091006,
                "tempo": 120.0
            },
            {
                "start_time": 23.99772727272727,
                "end_time": 24.013636363636362,
                "pitch": 41,
                "velocity": 101,
                "duration": 0.01590909090909065,
                "tempo": 120.0
            },
            {
                "start_time": 24.013636363636362,
                "end_time": 24.063636363636363,
                "pitch": 41,
                "velocity": 101,
                "duration": 0.05000000000000071,
                "tempo": 120.0
            },
            {
                "start_time": 24.063636363636363,
                "end_time": 24.113636363636363,
                "pitch": 38,
                "velocity": 101,
                "duration": 0.05000000000000071,
                "tempo": 120.0
            },
            {
                "start_time": 24.113636363636363,
                "end_time": 24.14772727272727,
                "pitch": 36,
                "velocity": 101,
                "duration": 0.03409090909090651,
                "tempo": 120.0
            },
            {
                "start_time": 24.14772727272727,
                "end_time": 24.163636363636364,
                "pitch": 33,
                "velocity": 101,
                "duration": 0.015909090909094203,
                "tempo": 120.0
            },
            {
                "start_time": 24.163636363636364,
                "end_time": 24.21363636363636,
                "pitch": 41,
                "velocity": 101,
                "duration": 0.04999999999999716,
                "tempo": 120.0
            },
            {
                "start_time": 24.21363636363636,
                "end_time": 24.24772727272727,
                "pitch": 38,
                "velocity": 101,
                "duration": 0.03409090909091006,
                "tempo": 120.0
            },
            {
                "start_time": 24.24772727272727,
                "end_time": 24.263636363636362,
                "pitch": 59,
                "velocity": 127,
                "duration": 0.01590909090909065,
                "tempo": 120.0
            },
            {
                "start_time": 24.263636363636362,
                "end_time": 24.331818181818182,
                "pitch": 59,
                "velocity": 127,
                "duration": 0.06818181818182012,
                "tempo": 120.0
            },
            {
                "start_time": 24.331818181818182,
                "end_time": 24.38181818181818,
                "pitch": 57,
                "velocity": 127,
                "duration": 0.04999999999999716,
                "tempo": 120.0
            },
            {
                "start_time": 23.529545454545453,
                "end_time": 24.38181818181818,
                "pitch": 67,
                "velocity": 127,
                "duration": 0.8522727272727266,
                "tempo": 120.0
            },
            {
                "start_time": 24.38181818181818,
                "end_time": 24.413636363636364,
                "pitch": 55,
                "velocity": 127,
                "duration": 0.031818181818184854,
                "tempo": 120.0
            },
            {
                "start_time": 24.41590909090909,
                "end_time": 24.43181818181818,
                "pitch": 57,
                "velocity": 127,
                "duration": 0.01590909090909065,
                "tempo": 120.0
            },
            {
                "start_time": 24.43181818181818,
                "end_time": 24.49772727272727,
                "pitch": 57,
                "velocity": 127,
                "duration": 0.06590909090909136,
                "tempo": 120.0
            },
            {
                "start_time": 24.49772727272727,
                "end_time": 24.513636363636362,
                "pitch": 55,
                "velocity": 127,
                "duration": 0.01590909090909065,
                "tempo": 120.0
            },
            {
                "start_time": 24.51590909090909,
                "end_time": 24.53181818181818,
                "pitch": 55,
                "velocity": 127,
                "duration": 0.01590909090909065,
                "tempo": 120.0
            },
            {
                "start_time": 24.38181818181818,
                "end_time": 24.53181818181818,
                "pitch": 67,
                "velocity": 127,
                "duration": 0.15000000000000213,
                "tempo": 120.0
            },
            {
                "start_time": 24.53181818181818,
                "end_time": 24.581818181818182,
                "pitch": 54,
                "velocity": 127,
                "duration": 0.05000000000000071,
                "tempo": 120.0
            },
            {
                "start_time": 24.581818181818182,
                "end_time": 24.63181818181818,
                "pitch": 52,
                "velocity": 127,
                "duration": 0.04999999999999716,
                "tempo": 120.0
            },
            {
                "start_time": 24.63181818181818,
                "end_time": 24.66590909090909,
                "pitch": 49,
                "velocity": 127,
                "duration": 0.03409090909091006,
                "tempo": 120.0
            },
            {
                "start_time": 24.66590909090909,
                "end_time": 24.68181818181818,
                "pitch": 53,
                "velocity": 127,
                "duration": 0.01590909090909065,
                "tempo": 120.0
            },
            {
                "start_time": 24.68181818181818,
                "end_time": 24.73181818181818,
                "pitch": 53,
                "velocity": 127,
                "duration": 0.05000000000000071,
                "tempo": 120.0
            },
            {
                "start_time": 24.73181818181818,
                "end_time": 24.74772727272727,
                "pitch": 50,
                "velocity": 127,
                "duration": 0.01590909090909065,
                "tempo": 120.0
            },
            {
                "start_time": 24.75,
                "end_time": 24.763636363636362,
                "pitch": 41,
                "velocity": 101,
                "duration": 0.013636363636361892,
                "tempo": 120.0
            },
            {
                "start_time": 24.76590909090909,
                "end_time": 24.81590909090909,
                "pitch": 41,
                "velocity": 101,
                "duration": 0.05000000000000071,
                "tempo": 120.0
            },
            {
                "start_time": 24.81590909090909,
                "end_time": 24.86590909090909,
                "pitch": 38,
                "velocity": 101,
                "duration": 0.04999999999999716,
                "tempo": 120.0
            },
            {
                "start_time": 24.86590909090909,
                "end_time": 24.89772727272727,
                "pitch": 36,
                "velocity": 101,
                "duration": 0.0318181818181813,
                "tempo": 120.0
            },
            {
                "start_time": 24.89772727272727,
                "end_time": 24.91590909090909,
                "pitch": 33,
                "velocity": 101,
                "duration": 0.01818181818181941,
                "tempo": 120.0
            },
            {
                "start_time": 24.91590909090909,
                "end_time": 24.96590909090909,
                "pitch": 41,
                "velocity": 101,
                "duration": 0.05000000000000071,
                "tempo": 120.0
            },
            {
                "start_time": 24.96590909090909,
                "end_time": 24.99772727272727,
                "pitch": 38,
                "velocity": 101,
                "duration": 0.0318181818181813,
                "tempo": 120.0
            },
            {
                "start_time": 25.0,
                "end_time": 25.01590909090909,
                "pitch": 41,
                "velocity": 101,
                "duration": 0.01590909090909065,
                "tempo": 120.0
            },
            {
                "start_time": 25.01590909090909,
                "end_time": 25.06590909090909,
                "pitch": 41,
                "velocity": 101,
                "duration": 0.05000000000000071,
                "tempo": 120.0
            },
            {
                "start_time": 25.06590909090909,
                "end_time": 25.11590909090909,
                "pitch": 38,
                "velocity": 101,
                "duration": 0.04999999999999716,
                "tempo": 120.0
            },
            {
                "start_time": 25.11590909090909,
                "end_time": 25.14772727272727,
                "pitch": 36,
                "velocity": 101,
                "duration": 0.0318181818181813,
                "tempo": 120.0
            },
            {
                "start_time": 25.14772727272727,
                "end_time": 25.16590909090909,
                "pitch": 33,
                "velocity": 101,
                "duration": 0.01818181818181941,
                "tempo": 120.0
            },
            {
                "start_time": 25.16590909090909,
                "end_time": 25.21590909090909,
                "pitch": 41,
                "velocity": 101,
                "duration": 0.05000000000000071,
                "tempo": 120.0
            },
            {
                "start_time": 25.21590909090909,
                "end_time": 25.25,
                "pitch": 38,
                "velocity": 101,
                "duration": 0.03409090909091006,
                "tempo": 120.0
            },
            {
                "start_time": 25.25,
                "end_time": 25.26590909090909,
                "pitch": 59,
                "velocity": 127,
                "duration": 0.01590909090909065,
                "tempo": 120.0
            },
            {
                "start_time": 25.26590909090909,
                "end_time": 25.331818181818182,
                "pitch": 59,
                "velocity": 127,
                "duration": 0.06590909090909136,
                "tempo": 120.0
            },
            {
                "start_time": 25.331818181818182,
                "end_time": 25.38181818181818,
                "pitch": 57,
                "velocity": 127,
                "duration": 0.04999999999999716,
                "tempo": 120.0
            },
            {
                "start_time": 24.53181818181818,
                "end_time": 25.38181818181818,
                "pitch": 67,
                "velocity": 127,
                "duration": 0.8499999999999979,
                "tempo": 120.0
            },
            {
                "start_time": 25.38181818181818,
                "end_time": 25.41590909090909,
                "pitch": 55,
                "velocity": 127,
                "duration": 0.03409090909091006,
                "tempo": 120.0
            },
            {
                "start_time": 25.41590909090909,
                "end_time": 25.43181818181818,
                "pitch": 57,
                "velocity": 127,
                "duration": 0.01590909090909065,
                "tempo": 120.0
            },
            {
                "start_time": 25.43181818181818,
                "end_time": 25.5,
                "pitch": 57,
                "velocity": 127,
                "duration": 0.06818181818182012,
                "tempo": 120.0
            },
            {
                "start_time": 25.5,
                "end_time": 25.51590909090909,
                "pitch": 55,
                "velocity": 127,
                "duration": 0.01590909090909065,
                "tempo": 120.0
            },
            {
                "start_time": 25.51590909090909,
                "end_time": 25.53181818181818,
                "pitch": 55,
                "velocity": 127,
                "duration": 0.01590909090909065,
                "tempo": 120.0
            },
            {
                "start_time": 25.38181818181818,
                "end_time": 25.53181818181818,
                "pitch": 67,
                "velocity": 127,
                "duration": 0.15000000000000213,
                "tempo": 120.0
            },
            {
                "start_time": 25.53181818181818,
                "end_time": 25.581818181818182,
                "pitch": 54,
                "velocity": 127,
                "duration": 0.05000000000000071,
                "tempo": 120.0
            },
            {
                "start_time": 25.581818181818182,
                "end_time": 25.63181818181818,
                "pitch": 52,
                "velocity": 127,
                "duration": 0.04999999999999716,
                "tempo": 120.0
            },
            {
                "start_time": 25.63181818181818,
                "end_time": 25.66590909090909,
                "pitch": 49,
                "velocity": 127,
                "duration": 0.03409090909091006,
                "tempo": 120.0
            },
            {
                "start_time": 25.66590909090909,
                "end_time": 25.68181818181818,
                "pitch": 53,
                "velocity": 127,
                "duration": 0.01590909090909065,
                "tempo": 120.0
            },
            {
                "start_time": 25.68409090909091,
                "end_time": 25.73181818181818,
                "pitch": 53,
                "velocity": 127,
                "duration": 0.04772727272727195,
                "tempo": 120.0
            },
            {
                "start_time": 25.73181818181818,
                "end_time": 25.75,
                "pitch": 50,
                "velocity": 127,
                "duration": 0.01818181818181941,
                "tempo": 120.0
            },
            {
                "start_time": 25.75,
                "end_time": 25.76590909090909,
                "pitch": 41,
                "velocity": 101,
                "duration": 0.01590909090909065,
                "tempo": 120.0
            },
            {
                "start_time": 25.76590909090909,
                "end_time": 25.81590909090909,
                "pitch": 41,
                "velocity": 101,
                "duration": 0.05000000000000071,
                "tempo": 120.0
            },
            {
                "start_time": 25.81590909090909,
                "end_time": 25.86590909090909,
                "pitch": 38,
                "velocity": 101,
                "duration": 0.04999999999999716,
                "tempo": 120.0
            },
            {
                "start_time": 25.86590909090909,
                "end_time": 25.9,
                "pitch": 36,
                "velocity": 101,
                "duration": 0.03409090909091006,
                "tempo": 120.0
            },
            {
                "start_time": 25.9,
                "end_time": 25.91590909090909,
                "pitch": 33,
                "velocity": 101,
                "duration": 0.01590909090909065,
                "tempo": 120.0
            },
            {
                "start_time": 25.91590909090909,
                "end_time": 25.96590909090909,
                "pitch": 41,
                "velocity": 101,
                "duration": 0.05000000000000071,
                "tempo": 120.0
            },
            {
                "start_time": 25.96590909090909,
                "end_time": 26.0,
                "pitch": 38,
                "velocity": 101,
                "duration": 0.03409090909091006,
                "tempo": 120.0
            },
            {
                "start_time": 26.0,
                "end_time": 26.01590909090909,
                "pitch": 41,
                "velocity": 101,
                "duration": 0.01590909090909065,
                "tempo": 120.0
            },
            {
                "start_time": 26.01590909090909,
                "end_time": 26.06590909090909,
                "pitch": 41,
                "velocity": 101,
                "duration": 0.05000000000000071,
                "tempo": 120.0
            },
            {
                "start_time": 26.06590909090909,
                "end_time": 26.11590909090909,
                "pitch": 38,
                "velocity": 101,
                "duration": 0.04999999999999716,
                "tempo": 120.0
            },
            {
                "start_time": 26.11590909090909,
                "end_time": 26.15,
                "pitch": 36,
                "velocity": 101,
                "duration": 0.03409090909091006,
                "tempo": 120.0
            },
            {
                "start_time": 26.15,
                "end_time": 26.16590909090909,
                "pitch": 33,
                "velocity": 101,
                "duration": 0.01590909090909065,
                "tempo": 120.0
            },
            {
                "start_time": 26.168181818181818,
                "end_time": 26.21590909090909,
                "pitch": 41,
                "velocity": 101,
                "duration": 0.04772727272727195,
                "tempo": 120.0
            },
            {
                "start_time": 26.21590909090909,
                "end_time": 26.25,
                "pitch": 38,
                "velocity": 101,
                "duration": 0.03409090909091006,
                "tempo": 120.0
            },
            {
                "start_time": 26.252272727272725,
                "end_time": 26.31590909090909,
                "pitch": 47,
                "velocity": 127,
                "duration": 0.06363636363636616,
                "tempo": 120.0
            },
            {
                "start_time": 26.31590909090909,
                "end_time": 26.36590909090909,
                "pitch": 45,
                "velocity": 127,
                "duration": 0.04999999999999716,
                "tempo": 120.0
            },
            {
                "start_time": 26.36590909090909,
                "end_time": 26.41590909090909,
                "pitch": 43,
                "velocity": 127,
                "duration": 0.05000000000000071,
                "tempo": 120.0
            },
            {
                "start_time": 26.41590909090909,
                "end_time": 26.46590909090909,
                "pitch": 41,
                "velocity": 127,
                "duration": 0.05000000000000071,
                "tempo": 120.0
            },
            {
                "start_time": 26.46590909090909,
                "end_time": 26.5,
                "pitch": 38,
                "velocity": 127,
                "duration": 0.03409090909091006,
                "tempo": 120.0
            },
            {
                "start_time": 26.5,
                "end_time": 26.549999999999997,
                "pitch": 53,
                "velocity": 127,
                "duration": 0.04999999999999716,
                "tempo": 120.0
            },
            {
                "start_time": 26.549999999999997,
                "end_time": 26.599999999999998,
                "pitch": 50,
                "velocity": 127,
                "duration": 0.05000000000000071,
                "tempo": 120.0
            },
            {
                "start_time": 26.599999999999998,
                "end_time": 26.634090909090908,
                "pitch": 48,
                "velocity": 127,
                "duration": 0.03409090909091006,
                "tempo": 120.0
            },
            {
                "start_time": 26.634090909090908,
                "end_time": 26.668181818181818,
                "pitch": 45,
                "velocity": 127,
                "duration": 0.03409090909091006,
                "tempo": 120.0
            },
            {
                "start_time": 26.668181818181818,
                "end_time": 26.7,
                "pitch": 43,
                "velocity": 127,
                "duration": 0.0318181818181813,
                "tempo": 120.0
            },
            {
                "start_time": 26.7,
                "end_time": 26.73409090909091,
                "pitch": 40,
                "velocity": 127,
                "duration": 0.03409090909091006,
                "tempo": 120.0
            },
            {
                "start_time": 26.73409090909091,
                "end_time": 26.75,
                "pitch": 36,
                "velocity": 127,
                "duration": 0.01590909090909065,
                "tempo": 120.0
            },
            {
                "start_time": 26.752272727272725,
                "end_time": 26.818181818181817,
                "pitch": 47,
                "velocity": 127,
                "duration": 0.06590909090909136,
                "tempo": 120.0
            },
            {
                "start_time": 26.818181818181817,
                "end_time": 26.868181818181817,
                "pitch": 45,
                "velocity": 127,
                "duration": 0.05000000000000071,
                "tempo": 120.0
            },
            {
                "start_time": 26.36590909090909,
                "end_time": 26.868181818181817,
                "pitch": 55,
                "velocity": 127,
                "duration": 0.5022727272727288,
                "tempo": 120.0
            },
            {
                "start_time": 26.868181818181817,
                "end_time": 26.918181818181818,
                "pitch": 43,
                "velocity": 127,
                "duration": 0.05000000000000071,
                "tempo": 120.0
            },
            {
                "start_time": 26.918181818181818,
                "end_time": 26.968181818181815,
                "pitch": 41,
                "velocity": 127,
                "duration": 0.04999999999999716,
                "tempo": 120.0
            },
            {
                "start_time": 26.968181818181815,
                "end_time": 27.002272727272725,
                "pitch": 38,
                "velocity": 127,
                "duration": 0.03409090909091006,
                "tempo": 120.0
            },
            {
                "start_time": 27.002272727272725,
                "end_time": 27.049999999999997,
                "pitch": 53,
                "velocity": 127,
                "duration": 0.04772727272727195,
                "tempo": 120.0
            },
            {
                "start_time": 27.049999999999997,
                "end_time": 27.102272727272727,
                "pitch": 50,
                "velocity": 127,
                "duration": 0.05227272727272947,
                "tempo": 120.0
            },
            {
                "start_time": 27.102272727272727,
                "end_time": 27.134090909090908,
                "pitch": 48,
                "velocity": 127,
                "duration": 0.0318181818181813,
                "tempo": 120.0
            },
            {
                "start_time": 27.134090909090908,
                "end_time": 27.168181818181818,
                "pitch": 45,
                "velocity": 127,
                "duration": 0.03409090909091006,
                "tempo": 120.0
            },
            {
                "start_time": 27.168181818181818,
                "end_time": 27.202272727272724,
                "pitch": 43,
                "velocity": 127,
                "duration": 0.03409090909090651,
                "tempo": 120.0
            },
            {
                "start_time": 27.202272727272724,
                "end_time": 27.23409090909091,
                "pitch": 40,
                "velocity": 127,
                "duration": 0.031818181818184854,
                "tempo": 120.0
            },
            {
                "start_time": 27.23409090909091,
                "end_time": 27.252272727272725,
                "pitch": 36,
                "velocity": 127,
                "duration": 0.018181818181815856,
                "tempo": 120.0
            },
            {
                "start_time": 27.252272727272725,
                "end_time": 27.318181818181817,
                "pitch": 47,
                "velocity": 127,
                "duration": 0.06590909090909136,
                "tempo": 120.0
            },
            {
                "start_time": 27.318181818181817,
                "end_time": 27.368181818181817,
                "pitch": 45,
                "velocity": 127,
                "duration": 0.05000000000000071,
                "tempo": 120.0
            },
            {
                "start_time": 26.868181818181817,
                "end_time": 27.368181818181817,
                "pitch": 55,
                "velocity": 127,
                "duration": 0.5,
                "tempo": 120.0
            },
            {
                "start_time": 27.368181818181817,
                "end_time": 27.418181818181818,
                "pitch": 43,
                "velocity": 127,
                "duration": 0.05000000000000071,
                "tempo": 120.0
            },
            {
                "start_time": 27.418181818181818,
                "end_time": 27.468181818181815,
                "pitch": 41,
                "velocity": 127,
                "duration": 0.04999999999999716,
                "tempo": 120.0
            },
            {
                "start_time": 27.468181818181815,
                "end_time": 27.502272727272725,
                "pitch": 38,
                "velocity": 127,
                "duration": 0.03409090909091006,
                "tempo": 120.0
            },
            {
                "start_time": 27.502272727272725,
                "end_time": 27.552272727272726,
                "pitch": 53,
                "velocity": 127,
                "duration": 0.05000000000000071,
                "tempo": 120.0
            },
            {
                "start_time": 27.552272727272726,
                "end_time": 27.602272727272727,
                "pitch": 50,
                "velocity": 127,
                "duration": 0.05000000000000071,
                "tempo": 120.0
            },
            {
                "start_time": 27.602272727272727,
                "end_time": 27.634090909090908,
                "pitch": 48,
                "velocity": 127,
                "duration": 0.0318181818181813,
                "tempo": 120.0
            },
            {
                "start_time": 27.634090909090908,
                "end_time": 27.668181818181818,
                "pitch": 45,
                "velocity": 127,
                "duration": 0.03409090909091006,
                "tempo": 120.0
            },
            {
                "start_time": 27.668181818181818,
                "end_time": 27.702272727272724,
                "pitch": 43,
                "velocity": 127,
                "duration": 0.03409090909090651,
                "tempo": 120.0
            },
            {
                "start_time": 27.702272727272724,
                "end_time": 27.736363636363635,
                "pitch": 40,
                "velocity": 127,
                "duration": 0.03409090909091006,
                "tempo": 120.0
            },
            {
                "start_time": 27.736363636363635,
                "end_time": 27.752272727272725,
                "pitch": 36,
                "velocity": 127,
                "duration": 0.01590909090909065,
                "tempo": 120.0
            },
            {
                "start_time": 27.752272727272725,
                "end_time": 27.820454545454545,
                "pitch": 47,
                "velocity": 127,
                "duration": 0.06818181818182012,
                "tempo": 120.0
            },
            {
                "start_time": 27.820454545454545,
                "end_time": 27.870454545454542,
                "pitch": 45,
                "velocity": 127,
                "duration": 0.04999999999999716,
                "tempo": 120.0
            },
            {
                "start_time": 27.368181818181817,
                "end_time": 27.870454545454542,
                "pitch": 55,
                "velocity": 127,
                "duration": 0.5022727272727252,
                "tempo": 120.0
            },
            {
                "start_time": 27.870454545454542,
                "end_time": 27.922727272727272,
                "pitch": 43,
                "velocity": 127,
                "duration": 0.05227272727272947,
                "tempo": 120.0
            },
            {
                "start_time": 27.922727272727272,
                "end_time": 27.974999999999998,
                "pitch": 41,
                "velocity": 127,
                "duration": 0.052272727272725916,
                "tempo": 120.0
            },
            {
                "start_time": 27.974999999999998,
                "end_time": 28.009090909090908,
                "pitch": 38,
                "velocity": 127,
                "duration": 0.03409090909091006,
                "tempo": 120.0
            },
            {
                "start_time": 28.009090909090908,
                "end_time": 28.05909090909091,
                "pitch": 53,
                "velocity": 127,
                "duration": 0.05000000000000071,
                "tempo": 120.0
            },
            {
                "start_time": 28.05909090909091,
                "end_time": 28.111363636363635,
                "pitch": 50,
                "velocity": 127,
                "duration": 0.052272727272725916,
                "tempo": 120.0
            },
            {
                "start_time": 28.111363636363635,
                "end_time": 28.145454545454545,
                "pitch": 48,
                "velocity": 127,
                "duration": 0.03409090909091006,
                "tempo": 120.0
            },
            {
                "start_time": 28.145454545454545,
                "end_time": 28.179545454545455,
                "pitch": 45,
                "velocity": 127,
                "duration": 0.03409090909091006,
                "tempo": 120.0
            },
            {
                "start_time": 28.179545454545455,
                "end_time": 28.21363636363636,
                "pitch": 43,
                "velocity": 127,
                "duration": 0.03409090909090651,
                "tempo": 120.0
            },
            {
                "start_time": 28.21363636363636,
                "end_time": 28.24772727272727,
                "pitch": 40,
                "velocity": 127,
                "duration": 0.03409090909091006,
                "tempo": 120.0
            },
            {
                "start_time": 28.24772727272727,
                "end_time": 28.26590909090909,
                "pitch": 36,
                "velocity": 127,
                "duration": 0.01818181818181941,
                "tempo": 120.0
            },
            {
                "start_time": 28.26590909090909,
                "end_time": 28.331818181818182,
                "pitch": 47,
                "velocity": 127,
                "duration": 0.06590909090909136,
                "tempo": 120.0
            },
            {
                "start_time": 28.331818181818182,
                "end_time": 28.38181818181818,
                "pitch": 45,
                "velocity": 127,
                "duration": 0.04999999999999716,
                "tempo": 120.0
            },
            {
                "start_time": 27.870454545454542,
                "end_time": 28.38181818181818,
                "pitch": 55,
                "velocity": 127,
                "duration": 0.5113636363636367,
                "tempo": 120.0
            },
            {
                "start_time": 28.38181818181818,
                "end_time": 28.43181818181818,
                "pitch": 43,
                "velocity": 127,
                "duration": 0.05000000000000071,
                "tempo": 120.0
            },
            {
                "start_time": 28.43181818181818,
                "end_time": 28.48181818181818,
                "pitch": 41,
                "velocity": 127,
                "duration": 0.05000000000000071,
                "tempo": 120.0
            },
            {
                "start_time": 28.48181818181818,
                "end_time": 28.51590909090909,
                "pitch": 38,
                "velocity": 127,
                "duration": 0.03409090909091006,
                "tempo": 120.0
            },
            {
                "start_time": 28.51590909090909,
                "end_time": 28.565909090909088,
                "pitch": 53,
                "velocity": 127,
                "duration": 0.04999999999999716,
                "tempo": 120.0
            },
            {
                "start_time": 28.565909090909088,
                "end_time": 28.61590909090909,
                "pitch": 50,
                "velocity": 127,
                "duration": 0.05000000000000071,
                "tempo": 120.0
            },
            {
                "start_time": 28.61590909090909,
                "end_time": 28.65,
                "pitch": 48,
                "velocity": 127,
                "duration": 0.03409090909091006,
                "tempo": 120.0
            },
            {
                "start_time": 28.65,
                "end_time": 28.68181818181818,
                "pitch": 45,
                "velocity": 127,
                "duration": 0.0318181818181813,
                "tempo": 120.0
            },
            {
                "start_time": 28.68181818181818,
                "end_time": 28.71590909090909,
                "pitch": 43,
                "velocity": 127,
                "duration": 0.03409090909091006,
                "tempo": 120.0
            },
            {
                "start_time": 28.71590909090909,
                "end_time": 28.75,
                "pitch": 40,
                "velocity": 127,
                "duration": 0.03409090909091006,
                "tempo": 120.0
            },
            {
                "start_time": 28.75,
                "end_time": 28.76590909090909,
                "pitch": 36,
                "velocity": 127,
                "duration": 0.01590909090909065,
                "tempo": 120.0
            },
            {
                "start_time": 28.76590909090909,
                "end_time": 28.831818181818182,
                "pitch": 47,
                "velocity": 127,
                "duration": 0.06590909090909136,
                "tempo": 120.0
            },
            {
                "start_time": 28.831818181818182,
                "end_time": 28.88181818181818,
                "pitch": 45,
                "velocity": 127,
                "duration": 0.04999999999999716,
                "tempo": 120.0
            },
            {
                "start_time": 28.38181818181818,
                "end_time": 28.88181818181818,
                "pitch": 55,
                "velocity": 127,
                "duration": 0.5,
                "tempo": 120.0
            },
            {
                "start_time": 28.88181818181818,
                "end_time": 28.93181818181818,
                "pitch": 43,
                "velocity": 127,
                "duration": 0.05000000000000071,
                "tempo": 120.0
            },
            {
                "start_time": 28.93181818181818,
                "end_time": 28.98409090909091,
                "pitch": 41,
                "velocity": 127,
                "duration": 0.05227272727272947,
                "tempo": 120.0
            },
            {
                "start_time": 28.98409090909091,
                "end_time": 29.01590909090909,
                "pitch": 38,
                "velocity": 127,
                "duration": 0.0318181818181813,
                "tempo": 120.0
            },
            {
                "start_time": 29.01590909090909,
                "end_time": 29.065909090909088,
                "pitch": 53,
                "velocity": 127,
                "duration": 0.04999999999999716,
                "tempo": 120.0
            },
            {
                "start_time": 29.065909090909088,
                "end_time": 29.11590909090909,
                "pitch": 50,
                "velocity": 127,
                "duration": 0.05000000000000071,
                "tempo": 120.0
            },
            {
                "start_time": 29.11590909090909,
                "end_time": 29.15,
                "pitch": 48,
                "velocity": 127,
                "duration": 0.03409090909091006,
                "tempo": 120.0
            },
            {
                "start_time": 29.15,
                "end_time": 29.18409090909091,
                "pitch": 45,
                "velocity": 127,
                "duration": 0.03409090909091006,
                "tempo": 120.0
            },
            {
                "start_time": 29.18409090909091,
                "end_time": 29.21590909090909,
                "pitch": 43,
                "velocity": 127,
                "duration": 0.0318181818181813,
                "tempo": 120.0
            },
            {
                "start_time": 29.21590909090909,
                "end_time": 29.25,
                "pitch": 40,
                "velocity": 127,
                "duration": 0.03409090909091006,
                "tempo": 120.0
            },
            {
                "start_time": 29.25,
                "end_time": 29.26590909090909,
                "pitch": 36,
                "velocity": 127,
                "duration": 0.01590909090909065,
                "tempo": 120.0
            },
            {
                "start_time": 29.268181818181816,
                "end_time": 29.334090909090907,
                "pitch": 47,
                "velocity": 127,
                "duration": 0.06590909090909136,
                "tempo": 120.0
            },
            {
                "start_time": 29.334090909090907,
                "end_time": 29.384090909090908,
                "pitch": 45,
                "velocity": 127,
                "duration": 0.05000000000000071,
                "tempo": 120.0
            },
            {
                "start_time": 28.88181818181818,
                "end_time": 29.384090909090908,
                "pitch": 55,
                "velocity": 127,
                "duration": 0.5022727272727288,
                "tempo": 120.0
            },
            {
                "start_time": 29.384090909090908,
                "end_time": 29.43409090909091,
                "pitch": 43,
                "velocity": 127,
                "duration": 0.05000000000000071,
                "tempo": 120.0
            },
            {
                "start_time": 29.43409090909091,
                "end_time": 29.48409090909091,
                "pitch": 41,
                "velocity": 127,
                "duration": 0.05000000000000071,
                "tempo": 120.0
            },
            {
                "start_time": 29.48409090909091,
                "end_time": 29.518181818181816,
                "pitch": 38,
                "velocity": 127,
                "duration": 0.03409090909090651,
                "tempo": 120.0
            },
            {
                "start_time": 29.518181818181816,
                "end_time": 29.568181818181817,
                "pitch": 53,
                "velocity": 127,
                "duration": 0.05000000000000071,
                "tempo": 120.0
            },
            {
                "start_time": 29.568181818181817,
                "end_time": 29.618181818181817,
                "pitch": 50,
                "velocity": 127,
                "duration": 0.05000000000000071,
                "tempo": 120.0
            },
            {
                "start_time": 29.618181818181817,
                "end_time": 29.65,
                "pitch": 48,
                "velocity": 127,
                "duration": 0.0318181818181813,
                "tempo": 120.0
            },
            {
                "start_time": 29.65,
                "end_time": 29.68409090909091,
                "pitch": 45,
                "velocity": 127,
                "duration": 0.03409090909091006,
                "tempo": 120.0
            },
            {
                "start_time": 29.68409090909091,
                "end_time": 29.718181818181815,
                "pitch": 43,
                "velocity": 127,
                "duration": 0.03409090909090651,
                "tempo": 120.0
            },
            {
                "start_time": 29.718181818181815,
                "end_time": 29.75,
                "pitch": 40,
                "velocity": 127,
                "duration": 0.031818181818184854,
                "tempo": 120.0
            },
            {
                "start_time": 29.75,
                "end_time": 29.768181818181816,
                "pitch": 36,
                "velocity": 127,
                "duration": 0.018181818181815856,
                "tempo": 120.0
            },
            {
                "start_time": 29.768181818181816,
                "end_time": 29.834090909090907,
                "pitch": 47,
                "velocity": 127,
                "duration": 0.06590909090909136,
                "tempo": 120.0
            },
            {
                "start_time": 29.834090909090907,
                "end_time": 29.884090909090908,
                "pitch": 45,
                "velocity": 127,
                "duration": 0.05000000000000071,
                "tempo": 120.0
            },
            {
                "start_time": 29.384090909090908,
                "end_time": 29.884090909090908,
                "pitch": 55,
                "velocity": 127,
                "duration": 0.5,
                "tempo": 120.0
            },
            {
                "start_time": 29.884090909090908,
                "end_time": 29.93409090909091,
                "pitch": 43,
                "velocity": 127,
                "duration": 0.05000000000000071,
                "tempo": 120.0
            },
            {
                "start_time": 29.93409090909091,
                "end_time": 29.98409090909091,
                "pitch": 41,
                "velocity": 127,
                "duration": 0.05000000000000071,
                "tempo": 120.0
            },
            {
                "start_time": 29.98409090909091,
                "end_time": 30.018181818181816,
                "pitch": 38,
                "velocity": 127,
                "duration": 0.03409090909090651,
                "tempo": 120.0
            },
            {
                "start_time": 30.018181818181816,
                "end_time": 30.068181818181817,
                "pitch": 53,
                "velocity": 127,
                "duration": 0.05000000000000071,
                "tempo": 120.0
            },
            {
                "start_time": 30.068181818181817,
                "end_time": 30.118181818181817,
                "pitch": 50,
                "velocity": 127,
                "duration": 0.05000000000000071,
                "tempo": 120.0
            },
            {
                "start_time": 30.118181818181817,
                "end_time": 30.152272727272727,
                "pitch": 48,
                "velocity": 127,
                "duration": 0.03409090909091006,
                "tempo": 120.0
            },
            {
                "start_time": 30.152272727272727,
                "end_time": 30.18409090909091,
                "pitch": 45,
                "velocity": 127,
                "duration": 0.0318181818181813,
                "tempo": 120.0
            },
            {
                "start_time": 30.18409090909091,
                "end_time": 30.218181818181815,
                "pitch": 43,
                "velocity": 127,
                "duration": 0.03409090909090651,
                "tempo": 120.0
            },
            {
                "start_time": 30.218181818181815,
                "end_time": 30.252272727272725,
                "pitch": 40,
                "velocity": 127,
                "duration": 0.03409090909091006,
                "tempo": 120.0
            },
            {
                "start_time": 30.252272727272725,
                "end_time": 30.268181818181816,
                "pitch": 36,
                "velocity": 127,
                "duration": 0.01590909090909065,
                "tempo": 120.0
            },
            {
                "start_time": 30.268181818181816,
                "end_time": 30.334090909090907,
                "pitch": 47,
                "velocity": 127,
                "duration": 0.06590909090909136,
                "tempo": 120.0
            },
            {
                "start_time": 30.334090909090907,
                "end_time": 30.384090909090908,
                "pitch": 45,
                "velocity": 127,
                "duration": 0.05000000000000071,
                "tempo": 120.0
            },
            {
                "start_time": 29.884090909090908,
                "end_time": 30.384090909090908,
                "pitch": 55,
                "velocity": 127,
                "duration": 0.5,
                "tempo": 120.0
            },
            {
                "start_time": 30.384090909090908,
                "end_time": 30.43409090909091,
                "pitch": 43,
                "velocity": 127,
                "duration": 0.05000000000000071,
                "tempo": 120.0
            },
            {
                "start_time": 30.43409090909091,
                "end_time": 30.48409090909091,
                "pitch": 41,
                "velocity": 127,
                "duration": 0.05000000000000071,
                "tempo": 120.0
            },
            {
                "start_time": 30.48409090909091,
                "end_time": 30.518181818181816,
                "pitch": 38,
                "velocity": 127,
                "duration": 0.03409090909090651,
                "tempo": 120.0
            },
            {
                "start_time": 30.518181818181816,
                "end_time": 30.568181818181817,
                "pitch": 53,
                "velocity": 127,
                "duration": 0.05000000000000071,
                "tempo": 120.0
            },
            {
                "start_time": 30.568181818181817,
                "end_time": 30.618181818181817,
                "pitch": 50,
                "velocity": 127,
                "duration": 0.05000000000000071,
                "tempo": 120.0
            },
            {
                "start_time": 30.618181818181817,
                "end_time": 30.652272727272727,
                "pitch": 48,
                "velocity": 127,
                "duration": 0.03409090909091006,
                "tempo": 120.0
            },
            {
                "start_time": 30.652272727272727,
                "end_time": 30.68409090909091,
                "pitch": 45,
                "velocity": 127,
                "duration": 0.0318181818181813,
                "tempo": 120.0
            },
            {
                "start_time": 30.68409090909091,
                "end_time": 30.718181818181815,
                "pitch": 43,
                "velocity": 127,
                "duration": 0.03409090909090651,
                "tempo": 120.0
            },
            {
                "start_time": 30.718181818181815,
                "end_time": 30.752272727272725,
                "pitch": 40,
                "velocity": 127,
                "duration": 0.03409090909091006,
                "tempo": 120.0
            },
            {
                "start_time": 30.752272727272725,
                "end_time": 30.768181818181816,
                "pitch": 36,
                "velocity": 127,
                "duration": 0.01590909090909065,
                "tempo": 120.0
            },
            {
                "start_time": 30.768181818181816,
                "end_time": 30.836363636363636,
                "pitch": 47,
                "velocity": 127,
                "duration": 0.06818181818182012,
                "tempo": 120.0
            },
            {
                "start_time": 30.836363636363636,
                "end_time": 30.886363636363633,
                "pitch": 45,
                "velocity": 127,
                "duration": 0.04999999999999716,
                "tempo": 120.0
            },
            {
                "start_time": 30.384090909090908,
                "end_time": 30.886363636363633,
                "pitch": 55,
                "velocity": 127,
                "duration": 0.5022727272727252,
                "tempo": 120.0
            },
            {
                "start_time": 30.886363636363633,
                "end_time": 30.936363636363634,
                "pitch": 43,
                "velocity": 127,
                "duration": 0.05000000000000071,
                "tempo": 120.0
            },
            {
                "start_time": 30.936363636363634,
                "end_time": 30.986363636363635,
                "pitch": 41,
                "velocity": 127,
                "duration": 0.05000000000000071,
                "tempo": 120.0
            },
            {
                "start_time": 30.986363636363635,
                "end_time": 31.018181818181816,
                "pitch": 38,
                "velocity": 127,
                "duration": 0.0318181818181813,
                "tempo": 120.0
            },
            {
                "start_time": 31.020454545454545,
                "end_time": 31.068181818181817,
                "pitch": 53,
                "velocity": 127,
                "duration": 0.04772727272727195,
                "tempo": 120.0
            },
            {
                "start_time": 31.068181818181817,
                "end_time": 31.118181818181817,
                "pitch": 50,
                "velocity": 127,
                "duration": 0.05000000000000071,
                "tempo": 120.0
            },
            {
                "start_time": 31.118181818181817,
                "end_time": 31.152272727272727,
                "pitch": 48,
                "velocity": 127,
                "duration": 0.03409090909091006,
                "tempo": 120.0
            },
            {
                "start_time": 31.152272727272727,
                "end_time": 31.186363636363634,
                "pitch": 45,
                "velocity": 127,
                "duration": 0.03409090909090651,
                "tempo": 120.0
            },
            {
                "start_time": 31.186363636363634,
                "end_time": 31.218181818181815,
                "pitch": 43,
                "velocity": 127,
                "duration": 0.0318181818181813,
                "tempo": 120.0
            },
            {
                "start_time": 31.218181818181815,
                "end_time": 31.252272727272725,
                "pitch": 40,
                "velocity": 127,
                "duration": 0.03409090909091006,
                "tempo": 120.0
            },
            {
                "start_time": 31.252272727272725,
                "end_time": 31.270454545454545,
                "pitch": 36,
                "velocity": 127,
                "duration": 0.01818181818181941,
                "tempo": 120.0
            },
            {
                "start_time": 31.270454545454545,
                "end_time": 31.336363636363636,
                "pitch": 47,
                "velocity": 127,
                "duration": 0.06590909090909136,
                "tempo": 120.0
            },
            {
                "start_time": 31.336363636363636,
                "end_time": 31.386363636363633,
                "pitch": 45,
                "velocity": 127,
                "duration": 0.04999999999999716,
                "tempo": 120.0
            },
            {
                "start_time": 30.886363636363633,
                "end_time": 31.386363636363633,
                "pitch": 55,
                "velocity": 127,
                "duration": 0.5,
                "tempo": 120.0
            },
            {
                "start_time": 31.386363636363633,
                "end_time": 31.436363636363634,
                "pitch": 43,
                "velocity": 127,
                "duration": 0.05000000000000071,
                "tempo": 120.0
            },
            {
                "start_time": 31.436363636363634,
                "end_time": 31.486363636363635,
                "pitch": 41,
                "velocity": 127,
                "duration": 0.05000000000000071,
                "tempo": 120.0
            },
            {
                "start_time": 31.486363636363635,
                "end_time": 31.520454545454545,
                "pitch": 38,
                "velocity": 127,
                "duration": 0.03409090909091006,
                "tempo": 120.0
            },
            {
                "start_time": 31.520454545454545,
                "end_time": 31.570454545454545,
                "pitch": 53,
                "velocity": 127,
                "duration": 0.05000000000000071,
                "tempo": 120.0
            },
            {
                "start_time": 31.570454545454545,
                "end_time": 31.620454545454542,
                "pitch": 50,
                "velocity": 127,
                "duration": 0.04999999999999716,
                "tempo": 120.0
            },
            {
                "start_time": 31.620454545454542,
                "end_time": 31.652272727272727,
                "pitch": 48,
                "velocity": 127,
                "duration": 0.031818181818184854,
                "tempo": 120.0
            },
            {
                "start_time": 31.652272727272727,
                "end_time": 31.686363636363634,
                "pitch": 45,
                "velocity": 127,
                "duration": 0.03409090909090651,
                "tempo": 120.0
            },
            {
                "start_time": 31.686363636363634,
                "end_time": 31.720454545454544,
                "pitch": 43,
                "velocity": 127,
                "duration": 0.03409090909091006,
                "tempo": 120.0
            },
            {
                "start_time": 31.720454545454544,
                "end_time": 31.752272727272725,
                "pitch": 40,
                "velocity": 127,
                "duration": 0.0318181818181813,
                "tempo": 120.0
            },
            {
                "start_time": 31.752272727272725,
                "end_time": 31.770454545454545,
                "pitch": 36,
                "velocity": 127,
                "duration": 0.01818181818181941,
                "tempo": 120.0
            },
            {
                "start_time": 31.770454545454545,
                "end_time": 31.836363636363636,
                "pitch": 47,
                "velocity": 127,
                "duration": 0.06590909090909136,
                "tempo": 120.0
            },
            {
                "start_time": 31.836363636363636,
                "end_time": 31.886363636363633,
                "pitch": 45,
                "velocity": 127,
                "duration": 0.04999999999999716,
                "tempo": 120.0
            },
            {
                "start_time": 31.386363636363633,
                "end_time": 31.886363636363633,
                "pitch": 55,
                "velocity": 127,
                "duration": 0.5,
                "tempo": 120.0
            },
            {
                "start_time": 31.886363636363633,
                "end_time": 31.936363636363634,
                "pitch": 43,
                "velocity": 127,
                "duration": 0.05000000000000071,
                "tempo": 120.0
            },
            {
                "start_time": 31.936363636363634,
                "end_time": 31.986363636363635,
                "pitch": 41,
                "velocity": 127,
                "duration": 0.05000000000000071,
                "tempo": 120.0
            },
            {
                "start_time": 31.986363636363635,
                "end_time": 32.02045454545454,
                "pitch": 38,
                "velocity": 127,
                "duration": 0.03409090909090651,
                "tempo": 120.0
            },
            {
                "start_time": 32.02045454545454,
                "end_time": 32.070454545454545,
                "pitch": 53,
                "velocity": 127,
                "duration": 0.05000000000000426,
                "tempo": 120.0
            },
            {
                "start_time": 32.070454545454545,
                "end_time": 32.12045454545454,
                "pitch": 50,
                "velocity": 127,
                "duration": 0.04999999999999716,
                "tempo": 120.0
            },
            {
                "start_time": 32.12045454545454,
                "end_time": 32.154545454545456,
                "pitch": 48,
                "velocity": 127,
                "duration": 0.03409090909091361,
                "tempo": 120.0
            },
            {
                "start_time": 32.154545454545456,
                "end_time": 32.18636363636364,
                "pitch": 45,
                "velocity": 127,
                "duration": 0.0318181818181813,
                "tempo": 120.0
            },
            {
                "start_time": 32.18636363636364,
                "end_time": 32.220454545454544,
                "pitch": 43,
                "velocity": 127,
                "duration": 0.03409090909090651,
                "tempo": 120.0
            },
            {
                "start_time": 32.220454545454544,
                "end_time": 32.25454545454545,
                "pitch": 40,
                "velocity": 127,
                "duration": 0.03409090909090651,
                "tempo": 120.0
            },
            {
                "start_time": 32.25454545454545,
                "end_time": 32.27045454545454,
                "pitch": 36,
                "velocity": 127,
                "duration": 0.01590909090909065,
                "tempo": 120.0
            },
            {
                "start_time": 32.27045454545454,
                "end_time": 32.33863636363636,
                "pitch": 47,
                "velocity": 127,
                "duration": 0.06818181818182012,
                "tempo": 120.0
            },
            {
                "start_time": 32.33863636363636,
                "end_time": 32.388636363636365,
                "pitch": 45,
                "velocity": 127,
                "duration": 0.05000000000000426,
                "tempo": 120.0
            },
            {
                "start_time": 31.886363636363633,
                "end_time": 32.388636363636365,
                "pitch": 55,
                "velocity": 127,
                "duration": 0.5022727272727323,
                "tempo": 120.0
            },
            {
                "start_time": 32.388636363636365,
                "end_time": 32.43863636363636,
                "pitch": 43,
                "velocity": 127,
                "duration": 0.04999999999999716,
                "tempo": 120.0
            },
            {
                "start_time": 32.43863636363636,
                "end_time": 32.48863636363636,
                "pitch": 41,
                "velocity": 127,
                "duration": 0.04999999999999716,
                "tempo": 120.0
            },
            {
                "start_time": 32.48863636363636,
                "end_time": 32.52272727272727,
                "pitch": 38,
                "velocity": 127,
                "duration": 0.03409090909091361,
                "tempo": 120.0
            },
            {
                "start_time": 32.52272727272727,
                "end_time": 32.57272727272727,
                "pitch": 53,
                "velocity": 127,
                "duration": 0.04999999999999716,
                "tempo": 120.0
            },
            {
                "start_time": 32.57272727272727,
                "end_time": 32.625,
                "pitch": 50,
                "velocity": 127,
                "duration": 0.05227272727272947,
                "tempo": 120.0
            },
            {
                "start_time": 32.625,
                "end_time": 32.65681818181818,
                "pitch": 48,
                "velocity": 127,
                "duration": 0.0318181818181813,
                "tempo": 120.0
            },
            {
                "start_time": 32.65681818181818,
                "end_time": 32.69090909090909,
                "pitch": 45,
                "velocity": 127,
                "duration": 0.03409090909090651,
                "tempo": 120.0
            },
            {
                "start_time": 32.69090909090909,
                "end_time": 32.725,
                "pitch": 43,
                "velocity": 127,
                "duration": 0.03409090909091361,
                "tempo": 120.0
            },
            {
                "start_time": 32.725,
                "end_time": 32.75909090909091,
                "pitch": 40,
                "velocity": 127,
                "duration": 0.03409090909090651,
                "tempo": 120.0
            },
            {
                "start_time": 32.75909090909091,
                "end_time": 32.775,
                "pitch": 36,
                "velocity": 127,
                "duration": 0.01590909090909065,
                "tempo": 120.0
            },
            {
                "start_time": 32.775,
                "end_time": 32.84318181818182,
                "pitch": 47,
                "velocity": 127,
                "duration": 0.06818181818182012,
                "tempo": 120.0
            },
            {
                "start_time": 32.84318181818182,
                "end_time": 32.893181818181816,
                "pitch": 45,
                "velocity": 127,
                "duration": 0.04999999999999716,
                "tempo": 120.0
            },
            {
                "start_time": 32.388636363636365,
                "end_time": 32.893181818181816,
                "pitch": 55,
                "velocity": 127,
                "duration": 0.5045454545454504,
                "tempo": 120.0
            },
            {
                "start_time": 32.893181818181816,
                "end_time": 32.94318181818182,
                "pitch": 43,
                "velocity": 127,
                "duration": 0.05000000000000426,
                "tempo": 120.0
            },
            {
                "start_time": 32.94318181818182,
                "end_time": 32.99318181818182,
                "pitch": 41,
                "velocity": 127,
                "duration": 0.04999999999999716,
                "tempo": 120.0
            },
            {
                "start_time": 32.99318181818182,
                "end_time": 33.025,
                "pitch": 38,
                "velocity": 127,
                "duration": 0.0318181818181813,
                "tempo": 120.0
            },
            {
                "start_time": 33.027272727272724,
                "end_time": 33.074999999999996,
                "pitch": 53,
                "velocity": 127,
                "duration": 0.04772727272727195,
                "tempo": 120.0
            },
            {
                "start_time": 33.074999999999996,
                "end_time": 33.125,
                "pitch": 50,
                "velocity": 127,
                "duration": 0.05000000000000426,
                "tempo": 120.0
            },
            {
                "start_time": 33.125,
                "end_time": 33.15909090909091,
                "pitch": 48,
                "velocity": 127,
                "duration": 0.03409090909090651,
                "tempo": 120.0
            },
            {
                "start_time": 33.15909090909091,
                "end_time": 33.19318181818182,
                "pitch": 45,
                "velocity": 127,
                "duration": 0.03409090909091361,
                "tempo": 120.0
            },
            {
                "start_time": 33.19318181818182,
                "end_time": 33.225,
                "pitch": 43,
                "velocity": 127,
                "duration": 0.0318181818181813,
                "tempo": 120.0
            },
            {
                "start_time": 33.225,
                "end_time": 33.25909090909091,
                "pitch": 40,
                "velocity": 127,
                "duration": 0.03409090909090651,
                "tempo": 120.0
            },
            {
                "start_time": 33.25909090909091,
                "end_time": 33.277272727272724,
                "pitch": 36,
                "velocity": 127,
                "duration": 0.018181818181815856,
                "tempo": 120.0
            },
            {
                "start_time": 33.277272727272724,
                "end_time": 33.34318181818182,
                "pitch": 47,
                "velocity": 127,
                "duration": 0.06590909090909491,
                "tempo": 120.0
            },
            {
                "start_time": 33.34318181818182,
                "end_time": 33.393181818181816,
                "pitch": 45,
                "velocity": 127,
                "duration": 0.04999999999999716,
                "tempo": 120.0
            },
            {
                "start_time": 32.893181818181816,
                "end_time": 33.393181818181816,
                "pitch": 55,
                "velocity": 127,
                "duration": 0.5,
                "tempo": 120.0
            },
            {
                "start_time": 33.393181818181816,
                "end_time": 33.44318181818181,
                "pitch": 43,
                "velocity": 127,
                "duration": 0.04999999999999716,
                "tempo": 120.0
            },
            {
                "start_time": 33.44318181818181,
                "end_time": 33.49318181818182,
                "pitch": 41,
                "velocity": 127,
                "duration": 0.05000000000000426,
                "tempo": 120.0
            },
            {
                "start_time": 33.49318181818182,
                "end_time": 33.527272727272724,
                "pitch": 38,
                "velocity": 127,
                "duration": 0.03409090909090651,
                "tempo": 120.0
            },
            {
                "start_time": 33.527272727272724,
                "end_time": 33.57727272727273,
                "pitch": 53,
                "velocity": 127,
                "duration": 0.05000000000000426,
                "tempo": 120.0
            },
            {
                "start_time": 33.57727272727273,
                "end_time": 33.627272727272725,
                "pitch": 50,
                "velocity": 127,
                "duration": 0.04999999999999716,
                "tempo": 120.0
            },
            {
                "start_time": 33.627272727272725,
                "end_time": 33.65909090909091,
                "pitch": 48,
                "velocity": 127,
                "duration": 0.0318181818181813,
                "tempo": 120.0
            },
            {
                "start_time": 33.65909090909091,
                "end_time": 33.69318181818181,
                "pitch": 45,
                "velocity": 127,
                "duration": 0.03409090909090651,
                "tempo": 120.0
            },
            {
                "start_time": 33.69318181818181,
                "end_time": 33.72727272727273,
                "pitch": 43,
                "velocity": 127,
                "duration": 0.03409090909091361,
                "tempo": 120.0
            },
            {
                "start_time": 33.72727272727273,
                "end_time": 33.75909090909091,
                "pitch": 40,
                "velocity": 127,
                "duration": 0.0318181818181813,
                "tempo": 120.0
            },
            {
                "start_time": 33.75909090909091,
                "end_time": 33.777272727272724,
                "pitch": 36,
                "velocity": 127,
                "duration": 0.018181818181815856,
                "tempo": 120.0
            },
            {
                "start_time": 33.777272727272724,
                "end_time": 33.84318181818182,
                "pitch": 47,
                "velocity": 127,
                "duration": 0.06590909090909491,
                "tempo": 120.0
            },
            {
                "start_time": 33.84318181818182,
                "end_time": 33.893181818181816,
                "pitch": 45,
                "velocity": 127,
                "duration": 0.04999999999999716,
                "tempo": 120.0
            },
            {
                "start_time": 33.393181818181816,
                "end_time": 33.893181818181816,
                "pitch": 55,
                "velocity": 127,
                "duration": 0.5,
                "tempo": 120.0
            },
            {
                "start_time": 33.893181818181816,
                "end_time": 33.94318181818181,
                "pitch": 43,
                "velocity": 127,
                "duration": 0.04999999999999716,
                "tempo": 120.0
            },
            {
                "start_time": 33.94318181818181,
                "end_time": 33.99318181818182,
                "pitch": 41,
                "velocity": 127,
                "duration": 0.05000000000000426,
                "tempo": 120.0
            },
            {
                "start_time": 33.99318181818182,
                "end_time": 34.027272727272724,
                "pitch": 38,
                "velocity": 127,
                "duration": 0.03409090909090651,
                "tempo": 120.0
            },
            {
                "start_time": 34.027272727272724,
                "end_time": 34.07727272727273,
                "pitch": 53,
                "velocity": 127,
                "duration": 0.05000000000000426,
                "tempo": 120.0
            },
            {
                "start_time": 34.07727272727273,
                "end_time": 34.127272727272725,
                "pitch": 50,
                "velocity": 127,
                "duration": 0.04999999999999716,
                "tempo": 120.0
            },
            {
                "start_time": 34.127272727272725,
                "end_time": 34.16136363636363,
                "pitch": 48,
                "velocity": 127,
                "duration": 0.03409090909090651,
                "tempo": 120.0
            },
            {
                "start_time": 34.16136363636363,
                "end_time": 34.19318181818181,
                "pitch": 45,
                "velocity": 127,
                "duration": 0.0318181818181813,
                "tempo": 120.0
            },
            {
                "start_time": 34.19318181818181,
                "end_time": 34.22727272727273,
                "pitch": 43,
                "velocity": 127,
                "duration": 0.03409090909091361,
                "tempo": 120.0
            },
            {
                "start_time": 34.22727272727273,
                "end_time": 34.26136363636363,
                "pitch": 40,
                "velocity": 127,
                "duration": 0.03409090909090651,
                "tempo": 120.0
            },
            {
                "start_time": 34.26136363636363,
                "end_time": 34.277272727272724,
                "pitch": 36,
                "velocity": 127,
                "duration": 0.01590909090909065,
                "tempo": 120.0
            },
            {
                "start_time": 34.277272727272724,
                "end_time": 34.34318181818182,
                "pitch": 47,
                "velocity": 127,
                "duration": 0.06590909090909491,
                "tempo": 120.0
            },
            {
                "start_time": 34.34318181818182,
                "end_time": 34.393181818181816,
                "pitch": 45,
                "velocity": 127,
                "duration": 0.04999999999999716,
                "tempo": 120.0
            },
            {
                "start_time": 33.893181818181816,
                "end_time": 34.393181818181816,
                "pitch": 55,
                "velocity": 127,
                "duration": 0.5,
                "tempo": 120.0
            },
            {
                "start_time": 34.393181818181816,
                "end_time": 34.44318181818181,
                "pitch": 43,
                "velocity": 127,
                "duration": 0.04999999999999716,
                "tempo": 120.0
            },
            {
                "start_time": 34.44318181818181,
                "end_time": 34.49318181818182,
                "pitch": 41,
                "velocity": 127,
                "duration": 0.05000000000000426,
                "tempo": 120.0
            },
            {
                "start_time": 34.49318181818182,
                "end_time": 34.527272727272724,
                "pitch": 38,
                "velocity": 127,
                "duration": 0.03409090909090651,
                "tempo": 120.0
            },
            {
                "start_time": 36.293181818181814,
                "end_time": 36.35909090909091,
                "pitch": 47,
                "velocity": 127,
                "duration": 0.06590909090909491,
                "tempo": 120.0
            },
            {
                "start_time": 36.35909090909091,
                "end_time": 36.40681818181818,
                "pitch": 45,
                "velocity": 127,
                "duration": 0.04772727272727195,
                "tempo": 120.0
            },
            {
                "start_time": 34.393181818181816,
                "end_time": 36.40681818181818,
                "pitch": 55,
                "velocity": 127,
                "duration": 2.0136363636363654,
                "tempo": 120.0
            },
            {
                "start_time": 36.40681818181818,
                "end_time": 36.45681818181818,
                "pitch": 43,
                "velocity": 127,
                "duration": 0.04999999999999716,
                "tempo": 120.0
            },
            {
                "start_time": 36.45681818181818,
                "end_time": 36.50681818181818,
                "pitch": 41,
                "velocity": 127,
                "duration": 0.05000000000000426,
                "tempo": 120.0
            },
            {
                "start_time": 36.50681818181818,
                "end_time": 36.538636363636364,
                "pitch": 38,
                "velocity": 127,
                "duration": 0.0318181818181813,
                "tempo": 120.0
            },
            {
                "start_time": 36.538636363636364,
                "end_time": 36.58863636363636,
                "pitch": 53,
                "velocity": 127,
                "duration": 0.04999999999999716,
                "tempo": 120.0
            },
            {
                "start_time": 36.58863636363636,
                "end_time": 36.63636363636363,
                "pitch": 50,
                "velocity": 127,
                "duration": 0.04772727272727195,
                "tempo": 120.0
            },
            {
                "start_time": 36.63636363636363,
                "end_time": 36.67045454545455,
                "pitch": 48,
                "velocity": 127,
                "duration": 0.03409090909091361,
                "tempo": 120.0
            },
            {
                "start_time": 36.67045454545455,
                "end_time": 36.70227272727273,
                "pitch": 45,
                "velocity": 127,
                "duration": 0.0318181818181813,
                "tempo": 120.0
            },
            {
                "start_time": 36.70227272727273,
                "end_time": 36.736363636363635,
                "pitch": 43,
                "velocity": 127,
                "duration": 0.03409090909090651,
                "tempo": 120.0
            },
            {
                "start_time": 36.736363636363635,
                "end_time": 36.768181818181816,
                "pitch": 40,
                "velocity": 127,
                "duration": 0.0318181818181813,
                "tempo": 120.0
            },
            {
                "start_time": 36.768181818181816,
                "end_time": 36.78409090909091,
                "pitch": 36,
                "velocity": 127,
                "duration": 0.01590909090909065,
                "tempo": 120.0
            },
            {
                "start_time": 36.78636363636363,
                "end_time": 36.85227272727273,
                "pitch": 47,
                "velocity": 127,
                "duration": 0.06590909090909491,
                "tempo": 120.0
            },
            {
                "start_time": 36.85227272727273,
                "end_time": 36.904545454545456,
                "pitch": 45,
                "velocity": 127,
                "duration": 0.05227272727272947,
                "tempo": 120.0
            },
            {
                "start_time": 36.40681818181818,
                "end_time": 36.904545454545456,
                "pitch": 55,
                "velocity": 127,
                "duration": 0.4977272727272748,
                "tempo": 120.0
            },
            {
                "start_time": 36.904545454545456,
                "end_time": 36.95681818181818,
                "pitch": 43,
                "velocity": 127,
                "duration": 0.052272727272722364,
                "tempo": 120.0
            },
            {
                "start_time": 36.95681818181818,
                "end_time": 37.00681818181818,
                "pitch": 41,
                "velocity": 127,
                "duration": 0.05000000000000426,
                "tempo": 120.0
            },
            {
                "start_time": 37.00681818181818,
                "end_time": 37.04090909090909,
                "pitch": 38,
                "velocity": 127,
                "duration": 0.03409090909090651,
                "tempo": 120.0
            },
            {
                "start_time": 37.04090909090909,
                "end_time": 37.09318181818182,
                "pitch": 53,
                "velocity": 127,
                "duration": 0.05227272727272947,
                "tempo": 120.0
            },
            {
                "start_time": 37.09318181818182,
                "end_time": 37.143181818181816,
                "pitch": 50,
                "velocity": 127,
                "duration": 0.04999999999999716,
                "tempo": 120.0
            },
            {
                "start_time": 37.143181818181816,
                "end_time": 37.17727272727272,
                "pitch": 48,
                "velocity": 127,
                "duration": 0.03409090909090651,
                "tempo": 120.0
            },
            {
                "start_time": 37.17727272727272,
                "end_time": 37.211363636363636,
                "pitch": 45,
                "velocity": 127,
                "duration": 0.03409090909091361,
                "tempo": 120.0
            },
            {
                "start_time": 37.211363636363636,
                "end_time": 37.24772727272727,
                "pitch": 43,
                "velocity": 127,
                "duration": 0.03636363636363171,
                "tempo": 120.0
            },
            {
                "start_time": 37.24772727272727,
                "end_time": 37.28181818181818,
                "pitch": 40,
                "velocity": 127,
                "duration": 0.03409090909091361,
                "tempo": 120.0
            },
            {
                "start_time": 37.28181818181818,
                "end_time": 37.29772727272727,
                "pitch": 36,
                "velocity": 127,
                "duration": 0.01590909090909065,
                "tempo": 120.0
            },
            {
                "start_time": 37.3,
                "end_time": 37.36590909090909,
                "pitch": 59,
                "velocity": 127,
                "duration": 0.06590909090909491,
                "tempo": 120.0
            },
            {
                "start_time": 37.36590909090909,
                "end_time": 37.38181818181818,
                "pitch": 57,
                "velocity": 127,
                "duration": 0.01590909090909065,
                "tempo": 120.0
            },
            {
                "start_time": 37.38181818181818,
                "end_time": 37.44772727272727,
                "pitch": 57,
                "velocity": 127,
                "duration": 0.06590909090908781,
                "tempo": 120.0
            },
            {
                "start_time": 25.53181818181818,
                "end_time": 37.44772727272727,
                "pitch": 67,
                "velocity": 127,
                "duration": 11.91590909090909,
                "tempo": 120.0
            },
            {
                "start_time": 37.44772727272727,
                "end_time": 37.465909090909086,
                "pitch": 54,
                "velocity": 127,
                "duration": 0.018181818181815856,
                "tempo": 120.0
            },
            {
                "start_time": 36.904545454545456,
                "end_time": 37.48181818181818,
                "pitch": 55,
                "velocity": 127,
                "duration": 0.5772727272727209,
                "tempo": 120.0
            },
            {
                "start_time": 37.465909090909086,
                "end_time": 37.48181818181818,
                "pitch": 55,
                "velocity": 127,
                "duration": 0.01590909090909065,
                "tempo": 120.0
            },
            {
                "start_time": 37.44772727272727,
                "end_time": 37.48181818181818,
                "pitch": 67,
                "velocity": 127,
                "duration": 0.03409090909090651,
                "tempo": 120.0
            },
            {
                "start_time": 37.48181818181818,
                "end_time": 37.53181818181818,
                "pitch": 54,
                "velocity": 127,
                "duration": 0.05000000000000426,
                "tempo": 120.0
            },
            {
                "start_time": 37.53181818181818,
                "end_time": 37.54772727272727,
                "pitch": 52,
                "velocity": 127,
                "duration": 0.01590909090909065,
                "tempo": 120.0
            },
            {
                "start_time": 37.55,
                "end_time": 37.59772727272727,
                "pitch": 53,
                "velocity": 127,
                "duration": 0.04772727272727195,
                "tempo": 120.0
            },
            {
                "start_time": 37.59772727272727,
                "end_time": 37.63181818181818,
                "pitch": 50,
                "velocity": 127,
                "duration": 0.03409090909091361,
                "tempo": 120.0
            },
            {
                "start_time": 37.63181818181818,
                "end_time": 37.68181818181818,
                "pitch": 52,
                "velocity": 127,
                "duration": 0.04999999999999716,
                "tempo": 120.0
            },
            {
                "start_time": 37.68181818181818,
                "end_time": 37.715909090909086,
                "pitch": 49,
                "velocity": 127,
                "duration": 0.03409090909090651,
                "tempo": 120.0
            },
            {
                "start_time": 37.715909090909086,
                "end_time": 37.76590909090909,
                "pitch": 50,
                "velocity": 127,
                "duration": 0.05000000000000426,
                "tempo": 120.0
            },
            {
                "start_time": 37.76590909090909,
                "end_time": 37.8,
                "pitch": 47,
                "velocity": 127,
                "duration": 0.03409090909090651,
                "tempo": 120.0
            },
            {
                "start_time": 37.8,
                "end_time": 37.85,
                "pitch": 50,
                "velocity": 127,
                "duration": 0.05000000000000426,
                "tempo": 120.0
            },
            {
                "start_time": 37.85,
                "end_time": 37.88181818181818,
                "pitch": 47,
                "velocity": 127,
                "duration": 0.0318181818181813,
                "tempo": 120.0
            },
            {
                "start_time": 37.88181818181818,
                "end_time": 37.93181818181818,
                "pitch": 50,
                "velocity": 127,
                "duration": 0.04999999999999716,
                "tempo": 120.0
            },
            {
                "start_time": 37.93181818181818,
                "end_time": 37.965909090909086,
                "pitch": 47,
                "velocity": 127,
                "duration": 0.03409090909090651,
                "tempo": 120.0
            },
            {
                "start_time": 37.965909090909086,
                "end_time": 38.01590909090909,
                "pitch": 50,
                "velocity": 127,
                "duration": 0.05000000000000426,
                "tempo": 120.0
            },
            {
                "start_time": 38.01590909090909,
                "end_time": 38.05,
                "pitch": 47,
                "velocity": 127,
                "duration": 0.03409090909090651,
                "tempo": 120.0
            },
            {
                "start_time": 38.05,
                "end_time": 38.1,
                "pitch": 50,
                "velocity": 127,
                "duration": 0.05000000000000426,
                "tempo": 120.0
            },
            {
                "start_time": 38.1,
                "end_time": 38.13181818181818,
                "pitch": 47,
                "velocity": 127,
                "duration": 0.0318181818181813,
                "tempo": 120.0
            },
            {
                "start_time": 38.13409090909091,
                "end_time": 38.18181818181818,
                "pitch": 50,
                "velocity": 127,
                "duration": 0.04772727272727195,
                "tempo": 120.0
            },
            {
                "start_time": 38.18181818181818,
                "end_time": 38.215909090909086,
                "pitch": 47,
                "velocity": 127,
                "duration": 0.03409090909090651,
                "tempo": 120.0
            },
            {
                "start_time": 38.215909090909086,
                "end_time": 38.26590909090909,
                "pitch": 50,
                "velocity": 127,
                "duration": 0.05000000000000426,
                "tempo": 120.0
            },
            {
                "start_time": 38.26590909090909,
                "end_time": 38.3,
                "pitch": 47,
                "velocity": 127,
                "duration": 0.03409090909090651,
                "tempo": 120.0
            },
            {
                "start_time": 38.3,
                "end_time": 38.36590909090909,
                "pitch": 47,
                "velocity": 127,
                "duration": 0.06590909090909491,
                "tempo": 120.0
            },
            {
                "start_time": 38.36590909090909,
                "end_time": 38.41590909090909,
                "pitch": 45,
                "velocity": 127,
                "duration": 0.04999999999999716,
                "tempo": 120.0
            },
            {
                "start_time": 38.41590909090909,
                "end_time": 38.465909090909086,
                "pitch": 43,
                "velocity": 127,
                "duration": 0.04999999999999716,
                "tempo": 120.0
            },
            {
                "start_time": 38.465909090909086,
                "end_time": 38.51590909090909,
                "pitch": 41,
                "velocity": 127,
                "duration": 0.05000000000000426,
                "tempo": 120.0
            },
            {
                "start_time": 38.51590909090909,
                "end_time": 38.55,
                "pitch": 38,
                "velocity": 127,
                "duration": 0.03409090909090651,
                "tempo": 120.0
            },
            {
                "start_time": 38.55,
                "end_time": 38.6,
                "pitch": 53,
                "velocity": 127,
                "duration": 0.05000000000000426,
                "tempo": 120.0
            },
            {
                "start_time": 38.6,
                "end_time": 38.65,
                "pitch": 50,
                "velocity": 127,
                "duration": 0.04999999999999716,
                "tempo": 120.0
            },
            {
                "start_time": 38.65,
                "end_time": 38.684090909090905,
                "pitch": 48,
                "velocity": 127,
                "duration": 0.03409090909090651,
                "tempo": 120.0
            },
            {
                "start_time": 38.684090909090905,
                "end_time": 38.715909090909086,
                "pitch": 45,
                "velocity": 127,
                "duration": 0.0318181818181813,
                "tempo": 120.0
            },
            {
                "start_time": 38.715909090909086,
                "end_time": 38.75,
                "pitch": 43,
                "velocity": 127,
                "duration": 0.03409090909091361,
                "tempo": 120.0
            },
            {
                "start_time": 38.75,
                "end_time": 38.78409090909091,
                "pitch": 40,
                "velocity": 127,
                "duration": 0.03409090909090651,
                "tempo": 120.0
            },
            {
                "start_time": 38.78409090909091,
                "end_time": 38.8,
                "pitch": 36,
                "velocity": 127,
                "duration": 0.01590909090909065,
                "tempo": 120.0
            },
            {
                "start_time": 38.8,
                "end_time": 38.86590909090909,
                "pitch": 47,
                "velocity": 127,
                "duration": 0.06590909090909491,
                "tempo": 120.0
            },
            {
                "start_time": 38.86590909090909,
                "end_time": 38.91590909090909,
                "pitch": 45,
                "velocity": 127,
                "duration": 0.04999999999999716,
                "tempo": 120.0
            },
            {
                "start_time": 38.41590909090909,
                "end_time": 38.918181818181814,
                "pitch": 55,
                "velocity": 127,
                "duration": 0.5022727272727252,
                "tempo": 120.0
            },
            {
                "start_time": 38.91590909090909,
                "end_time": 38.918181818181814,
                "pitch": 55,
                "velocity": 127,
                "duration": 0.0022727272727252057,
                "tempo": 120.0
            },
            {
                "start_time": 38.918181818181814,
                "end_time": 38.96818181818182,
                "pitch": 43,
                "velocity": 127,
                "duration": 0.05000000000000426,
                "tempo": 120.0
            },
            {
                "start_time": 38.96818181818182,
                "end_time": 39.018181818181816,
                "pitch": 41,
                "velocity": 127,
                "duration": 0.04999999999999716,
                "tempo": 120.0
            },
            {
                "start_time": 39.018181818181816,
                "end_time": 39.05,
                "pitch": 38,
                "velocity": 127,
                "duration": 0.0318181818181813,
                "tempo": 120.0
            },
            {
                "start_time": 39.05,
                "end_time": 39.1,
                "pitch": 53,
                "velocity": 127,
                "duration": 0.05000000000000426,
                "tempo": 120.0
            },
            {
                "start_time": 39.1,
                "end_time": 39.15,
                "pitch": 50,
                "velocity": 127,
                "duration": 0.04999999999999716,
                "tempo": 120.0
            },
            {
                "start_time": 39.15,
                "end_time": 39.184090909090905,
                "pitch": 48,
                "velocity": 127,
                "duration": 0.03409090909090651,
                "tempo": 120.0
            },
            {
                "start_time": 39.184090909090905,
                "end_time": 39.21818181818182,
                "pitch": 45,
                "velocity": 127,
                "duration": 0.03409090909091361,
                "tempo": 120.0
            },
            {
                "start_time": 39.21818181818182,
                "end_time": 39.25,
                "pitch": 43,
                "velocity": 127,
                "duration": 0.0318181818181813,
                "tempo": 120.0
            },
            {
                "start_time": 39.25,
                "end_time": 39.28409090909091,
                "pitch": 40,
                "velocity": 127,
                "duration": 0.03409090909090651,
                "tempo": 120.0
            },
            {
                "start_time": 39.28409090909091,
                "end_time": 39.3,
                "pitch": 36,
                "velocity": 127,
                "duration": 0.01590909090909065,
                "tempo": 120.0
            },
            {
                "start_time": 39.30227272727272,
                "end_time": 39.36818181818182,
                "pitch": 47,
                "velocity": 127,
                "duration": 0.06590909090909491,
                "tempo": 120.0
            },
            {
                "start_time": 39.36818181818182,
                "end_time": 39.418181818181814,
                "pitch": 45,
                "velocity": 127,
                "duration": 0.04999999999999716,
                "tempo": 120.0
            },
            {
                "start_time": 39.418181818181814,
                "end_time": 39.46818181818182,
                "pitch": 43,
                "velocity": 127,
                "duration": 0.05000000000000426,
                "tempo": 120.0
            },
            {
                "start_time": 39.46818181818182,
                "end_time": 39.518181818181816,
                "pitch": 41,
                "velocity": 127,
                "duration": 0.04999999999999716,
                "tempo": 120.0
            },
            {
                "start_time": 39.518181818181816,
                "end_time": 39.55227272727272,
                "pitch": 38,
                "velocity": 127,
                "duration": 0.03409090909090651,
                "tempo": 120.0
            },
            {
                "start_time": 39.55227272727272,
                "end_time": 39.60227272727273,
                "pitch": 53,
                "velocity": 127,
                "duration": 0.05000000000000426,
                "tempo": 120.0
            },
            {
                "start_time": 39.60227272727273,
                "end_time": 39.652272727272724,
                "pitch": 50,
                "velocity": 127,
                "duration": 0.04999999999999716,
                "tempo": 120.0
            },
            {
                "start_time": 39.652272727272724,
                "end_time": 39.684090909090905,
                "pitch": 48,
                "velocity": 127,
                "duration": 0.0318181818181813,
                "tempo": 120.0
            },
            {
                "start_time": 39.684090909090905,
                "end_time": 39.71818181818182,
                "pitch": 45,
                "velocity": 127,
                "duration": 0.03409090909091361,
                "tempo": 120.0
            },
            {
                "start_time": 39.71818181818182,
                "end_time": 39.752272727272725,
                "pitch": 43,
                "velocity": 127,
                "duration": 0.03409090909090651,
                "tempo": 120.0
            },
            {
                "start_time": 39.752272727272725,
                "end_time": 39.78409090909091,
                "pitch": 40,
                "velocity": 127,
                "duration": 0.0318181818181813,
                "tempo": 120.0
            },
            {
                "start_time": 39.78409090909091,
                "end_time": 39.80227272727272,
                "pitch": 36,
                "velocity": 127,
                "duration": 0.018181818181815856,
                "tempo": 120.0
            },
            {
                "start_time": 39.80227272727272,
                "end_time": 39.86818181818182,
                "pitch": 47,
                "velocity": 127,
                "duration": 0.06590909090909491,
                "tempo": 120.0
            },
            {
                "start_time": 39.86818181818182,
                "end_time": 39.918181818181814,
                "pitch": 45,
                "velocity": 127,
                "duration": 0.04999999999999716,
                "tempo": 120.0
            },
            {
                "start_time": 39.418181818181814,
                "end_time": 39.918181818181814,
                "pitch": 55,
                "velocity": 127,
                "duration": 0.5,
                "tempo": 120.0
            },
            {
                "start_time": 39.918181818181814,
                "end_time": 39.96818181818182,
                "pitch": 43,
                "velocity": 127,
                "duration": 0.05000000000000426,
                "tempo": 120.0
            },
            {
                "start_time": 39.96818181818182,
                "end_time": 40.018181818181816,
                "pitch": 41,
                "velocity": 127,
                "duration": 0.04999999999999716,
                "tempo": 120.0
            },
            {
                "start_time": 40.018181818181816,
                "end_time": 40.05227272727272,
                "pitch": 38,
                "velocity": 127,
                "duration": 0.03409090909090651,
                "tempo": 120.0
            },
            {
                "start_time": 40.05227272727272,
                "end_time": 40.10227272727273,
                "pitch": 53,
                "velocity": 127,
                "duration": 0.05000000000000426,
                "tempo": 120.0
            },
            {
                "start_time": 40.10227272727273,
                "end_time": 40.152272727272724,
                "pitch": 50,
                "velocity": 127,
                "duration": 0.04999999999999716,
                "tempo": 120.0
            },
            {
                "start_time": 40.152272727272724,
                "end_time": 40.18636363636364,
                "pitch": 48,
                "velocity": 127,
                "duration": 0.03409090909091361,
                "tempo": 120.0
            },
            {
                "start_time": 40.18636363636364,
                "end_time": 40.21818181818182,
                "pitch": 45,
                "velocity": 127,
                "duration": 0.0318181818181813,
                "tempo": 120.0
            },
            {
                "start_time": 40.21818181818182,
                "end_time": 40.252272727272725,
                "pitch": 43,
                "velocity": 127,
                "duration": 0.03409090909090651,
                "tempo": 120.0
            },
            {
                "start_time": 40.252272727272725,
                "end_time": 40.28636363636363,
                "pitch": 40,
                "velocity": 127,
                "duration": 0.03409090909090651,
                "tempo": 120.0
            },
            {
                "start_time": 40.28636363636363,
                "end_time": 40.30227272727272,
                "pitch": 36,
                "velocity": 127,
                "duration": 0.01590909090909065,
                "tempo": 120.0
            },
            {
                "start_time": 40.30227272727272,
                "end_time": 40.36818181818182,
                "pitch": 47,
                "velocity": 127,
                "duration": 0.06590909090909491,
                "tempo": 120.0
            },
            {
                "start_time": 40.36818181818182,
                "end_time": 40.418181818181814,
                "pitch": 45,
                "velocity": 127,
                "duration": 0.04999999999999716,
                "tempo": 120.0
            },
            {
                "start_time": 39.918181818181814,
                "end_time": 40.418181818181814,
                "pitch": 55,
                "velocity": 127,
                "duration": 0.5,
                "tempo": 120.0
            },
            {
                "start_time": 40.418181818181814,
                "end_time": 40.46818181818182,
                "pitch": 43,
                "velocity": 127,
                "duration": 0.05000000000000426,
                "tempo": 120.0
            },
            {
                "start_time": 40.46818181818182,
                "end_time": 40.518181818181816,
                "pitch": 41,
                "velocity": 127,
                "duration": 0.04999999999999716,
                "tempo": 120.0
            },
            {
                "start_time": 40.518181818181816,
                "end_time": 40.55227272727272,
                "pitch": 38,
                "velocity": 127,
                "duration": 0.03409090909090651,
                "tempo": 120.0
            },
            {
                "start_time": 40.55227272727272,
                "end_time": 40.60227272727273,
                "pitch": 53,
                "velocity": 127,
                "duration": 0.05000000000000426,
                "tempo": 120.0
            },
            {
                "start_time": 40.60227272727273,
                "end_time": 40.652272727272724,
                "pitch": 50,
                "velocity": 127,
                "duration": 0.04999999999999716,
                "tempo": 120.0
            },
            {
                "start_time": 40.652272727272724,
                "end_time": 40.68636363636364,
                "pitch": 48,
                "velocity": 127,
                "duration": 0.03409090909091361,
                "tempo": 120.0
            },
            {
                "start_time": 40.68636363636364,
                "end_time": 40.720454545454544,
                "pitch": 45,
                "velocity": 127,
                "duration": 0.03409090909090651,
                "tempo": 120.0
            },
            {
                "start_time": 40.720454545454544,
                "end_time": 40.752272727272725,
                "pitch": 43,
                "velocity": 127,
                "duration": 0.0318181818181813,
                "tempo": 120.0
            },
            {
                "start_time": 40.752272727272725,
                "end_time": 40.78636363636363,
                "pitch": 40,
                "velocity": 127,
                "duration": 0.03409090909090651,
                "tempo": 120.0
            },
            {
                "start_time": 40.78636363636363,
                "end_time": 40.80227272727272,
                "pitch": 36,
                "velocity": 127,
                "duration": 0.01590909090909065,
                "tempo": 120.0
            },
            {
                "start_time": 40.804545454545455,
                "end_time": 40.87045454545454,
                "pitch": 47,
                "velocity": 127,
                "duration": 0.06590909090908781,
                "tempo": 120.0
            },
            {
                "start_time": 40.87045454545454,
                "end_time": 40.92045454545455,
                "pitch": 45,
                "velocity": 127,
                "duration": 0.05000000000000426,
                "tempo": 120.0
            },
            {
                "start_time": 40.418181818181814,
                "end_time": 40.92045454545455,
                "pitch": 55,
                "velocity": 127,
                "duration": 0.5022727272727323,
                "tempo": 120.0
            },
            {
                "start_time": 40.92045454545455,
                "end_time": 40.970454545454544,
                "pitch": 43,
                "velocity": 127,
                "duration": 0.04999999999999716,
                "tempo": 120.0
            },
            {
                "start_time": 40.970454545454544,
                "end_time": 41.02045454545454,
                "pitch": 41,
                "velocity": 127,
                "duration": 0.04999999999999716,
                "tempo": 120.0
            },
            {
                "start_time": 41.02045454545454,
                "end_time": 41.05227272727272,
                "pitch": 38,
                "velocity": 127,
                "duration": 0.0318181818181813,
                "tempo": 120.0
            },
            {
                "start_time": 41.054545454545455,
                "end_time": 41.10227272727273,
                "pitch": 53,
                "velocity": 127,
                "duration": 0.04772727272727195,
                "tempo": 120.0
            },
            {
                "start_time": 41.10227272727273,
                "end_time": 41.152272727272724,
                "pitch": 50,
                "velocity": 127,
                "duration": 0.04999999999999716,
                "tempo": 120.0
            },
            {
                "start_time": 41.152272727272724,
                "end_time": 41.18636363636364,
                "pitch": 48,
                "velocity": 127,
                "duration": 0.03409090909091361,
                "tempo": 120.0
            },
            {
                "start_time": 41.18636363636364,
                "end_time": 41.220454545454544,
                "pitch": 45,
                "velocity": 127,
                "duration": 0.03409090909090651,
                "tempo": 120.0
            },
            {
                "start_time": 41.220454545454544,
                "end_time": 41.252272727272725,
                "pitch": 43,
                "velocity": 127,
                "duration": 0.0318181818181813,
                "tempo": 120.0
            },
            {
                "start_time": 41.252272727272725,
                "end_time": 41.28636363636363,
                "pitch": 40,
                "velocity": 127,
                "duration": 0.03409090909090651,
                "tempo": 120.0
            },
            {
                "start_time": 41.28636363636363,
                "end_time": 41.304545454545455,
                "pitch": 36,
                "velocity": 127,
                "duration": 0.018181818181822962,
                "tempo": 120.0
            },
            {
                "start_time": 41.304545454545455,
                "end_time": 41.35454545454545,
                "pitch": 50,
                "velocity": 127,
                "duration": 0.04999999999999716,
                "tempo": 120.0
            },
            {
                "start_time": 41.35454545454545,
                "end_time": 41.38636363636363,
                "pitch": 47,
                "velocity": 127,
                "duration": 0.0318181818181813,
                "tempo": 120.0
            },
            {
                "start_time": 41.38636363636363,
                "end_time": 41.42045454545455,
                "pitch": 45,
                "velocity": 127,
                "duration": 0.03409090909091361,
                "tempo": 120.0
            },
            {
                "start_time": 41.42045454545455,
                "end_time": 41.45454545454545,
                "pitch": 42,
                "velocity": 127,
                "duration": 0.03409090909090651,
                "tempo": 120.0
            },
            {
                "start_time": 41.45454545454545,
                "end_time": 41.486363636363635,
                "pitch": 39,
                "velocity": 127,
                "duration": 0.0318181818181813,
                "tempo": 120.0
            },
            {
                "start_time": 41.486363636363635,
                "end_time": 41.50454545454545,
                "pitch": 35,
                "velocity": 127,
                "duration": 0.018181818181815856,
                "tempo": 120.0
            },
            {
                "start_time": 41.50454545454545,
                "end_time": 41.52045454545454,
                "pitch": 33,
                "velocity": 127,
                "duration": 0.01590909090909065,
                "tempo": 120.0
            },
            {
                "start_time": 41.52045454545454,
                "end_time": 41.53636363636363,
                "pitch": 30,
                "velocity": 127,
                "duration": 0.01590909090909065,
                "tempo": 120.0
            },
            {
                "start_time": 41.53636363636363,
                "end_time": 41.554545454545455,
                "pitch": 27,
                "velocity": 127,
                "duration": 0.018181818181822962,
                "tempo": 120.0
            },
            {
                "start_time": 41.554545454545455,
                "end_time": 41.60454545454545,
                "pitch": 50,
                "velocity": 127,
                "duration": 0.04999999999999716,
                "tempo": 120.0
            },
            {
                "start_time": 41.60454545454545,
                "end_time": 41.63636363636363,
                "pitch": 47,
                "velocity": 127,
                "duration": 0.0318181818181813,
                "tempo": 120.0
            },
            {
                "start_time": 41.63636363636363,
                "end_time": 41.67045454545455,
                "pitch": 45,
                "velocity": 127,
                "duration": 0.03409090909091361,
                "tempo": 120.0
            },
            {
                "start_time": 41.67045454545455,
                "end_time": 41.70454545454545,
                "pitch": 42,
                "velocity": 127,
                "duration": 0.03409090909090651,
                "tempo": 120.0
            },
            {
                "start_time": 41.70454545454545,
                "end_time": 41.736363636363635,
                "pitch": 39,
                "velocity": 127,
                "duration": 0.0318181818181813,
                "tempo": 120.0
            },
            {
                "start_time": 41.736363636363635,
                "end_time": 41.75454545454545,
                "pitch": 35,
                "velocity": 127,
                "duration": 0.018181818181815856,
                "tempo": 120.0
            },
            {
                "start_time": 41.75454545454545,
                "end_time": 41.77045454545454,
                "pitch": 33,
                "velocity": 127,
                "duration": 0.01590909090909065,
                "tempo": 120.0
            },
            {
                "start_time": 41.77045454545454,
                "end_time": 41.78636363636363,
                "pitch": 30,
                "velocity": 127,
                "duration": 0.01590909090909065,
                "tempo": 120.0
            },
            {
                "start_time": 41.78636363636363,
                "end_time": 41.804545454545455,
                "pitch": 27,
                "velocity": 127,
                "duration": 0.018181818181822962,
                "tempo": 120.0
            },
            {
                "start_time": 41.804545454545455,
                "end_time": 41.85454545454545,
                "pitch": 50,
                "velocity": 127,
                "duration": 0.04999999999999716,
                "tempo": 120.0
            },
            {
                "start_time": 41.85454545454545,
                "end_time": 41.88863636363636,
                "pitch": 47,
                "velocity": 127,
                "duration": 0.03409090909090651,
                "tempo": 120.0
            },
            {
                "start_time": 41.88863636363636,
                "end_time": 41.92045454545455,
                "pitch": 45,
                "velocity": 127,
                "duration": 0.03181818181818841,
                "tempo": 120.0
            },
            {
                "start_time": 41.92045454545455,
                "end_time": 41.95454545454545,
                "pitch": 42,
                "velocity": 127,
                "duration": 0.03409090909090651,
                "tempo": 120.0
            },
            {
                "start_time": 41.95454545454545,
                "end_time": 41.98863636363636,
                "pitch": 39,
                "velocity": 127,
                "duration": 0.03409090909090651,
                "tempo": 120.0
            },
            {
                "start_time": 41.98863636363636,
                "end_time": 42.00454545454545,
                "pitch": 35,
                "velocity": 127,
                "duration": 0.01590909090909065,
                "tempo": 120.0
            },
            {
                "start_time": 42.00454545454545,
                "end_time": 42.02045454545454,
                "pitch": 33,
                "velocity": 127,
                "duration": 0.01590909090909065,
                "tempo": 120.0
            },
            {
                "start_time": 42.02045454545454,
                "end_time": 42.038636363636364,
                "pitch": 30,
                "velocity": 127,
                "duration": 0.018181818181822962,
                "tempo": 120.0
            },
            {
                "start_time": 42.038636363636364,
                "end_time": 42.054545454545455,
                "pitch": 27,
                "velocity": 127,
                "duration": 0.01590909090909065,
                "tempo": 120.0
            },
            {
                "start_time": 42.054545454545455,
                "end_time": 42.10454545454545,
                "pitch": 50,
                "velocity": 127,
                "duration": 0.04999999999999716,
                "tempo": 120.0
            },
            {
                "start_time": 42.10454545454545,
                "end_time": 42.13863636363636,
                "pitch": 47,
                "velocity": 127,
                "duration": 0.03409090909090651,
                "tempo": 120.0
            },
            {
                "start_time": 42.13863636363636,
                "end_time": 42.17045454545455,
                "pitch": 45,
                "velocity": 127,
                "duration": 0.03181818181818841,
                "tempo": 120.0
            },
            {
                "start_time": 42.17045454545455,
                "end_time": 42.20454545454545,
                "pitch": 42,
                "velocity": 127,
                "duration": 0.03409090909090651,
                "tempo": 120.0
            },
            {
                "start_time": 42.20454545454545,
                "end_time": 42.23863636363636,
                "pitch": 39,
                "velocity": 127,
                "duration": 0.03409090909090651,
                "tempo": 120.0
            },
            {
                "start_time": 42.23863636363636,
                "end_time": 42.25454545454545,
                "pitch": 35,
                "velocity": 127,
                "duration": 0.01590909090909065,
                "tempo": 120.0
            },
            {
                "start_time": 42.25454545454545,
                "end_time": 42.27045454545454,
                "pitch": 33,
                "velocity": 127,
                "duration": 0.01590909090909065,
                "tempo": 120.0
            },
            {
                "start_time": 42.27045454545454,
                "end_time": 42.288636363636364,
                "pitch": 30,
                "velocity": 127,
                "duration": 0.018181818181822962,
                "tempo": 120.0
            },
            {
                "start_time": 42.288636363636364,
                "end_time": 42.304545454545455,
                "pitch": 27,
                "velocity": 127,
                "duration": 0.01590909090909065,
                "tempo": 120.0
            },
            {
                "start_time": 42.304545454545455,
                "end_time": 42.37045454545454,
                "pitch": 47,
                "velocity": 127,
                "duration": 0.06590909090908781,
                "tempo": 120.0
            },
            {
                "start_time": 42.37045454545454,
                "end_time": 42.42045454545455,
                "pitch": 45,
                "velocity": 127,
                "duration": 0.05000000000000426,
                "tempo": 120.0
            },
            {
                "start_time": 40.92045454545455,
                "end_time": 42.42045454545455,
                "pitch": 55,
                "velocity": 127,
                "duration": 1.5,
                "tempo": 120.0
            },
            {
                "start_time": 42.42045454545455,
                "end_time": 42.470454545454544,
                "pitch": 43,
                "velocity": 127,
                "duration": 0.04999999999999716,
                "tempo": 120.0
            },
            {
                "start_time": 42.470454545454544,
                "end_time": 42.52272727272727,
                "pitch": 41,
                "velocity": 127,
                "duration": 0.05227272727272947,
                "tempo": 120.0
            },
            {
                "start_time": 42.52272727272727,
                "end_time": 42.554545454545455,
                "pitch": 38,
                "velocity": 127,
                "duration": 0.0318181818181813,
                "tempo": 120.0
            },
            {
                "start_time": 42.554545454545455,
                "end_time": 42.60454545454545,
                "pitch": 53,
                "velocity": 127,
                "duration": 0.04999999999999716,
                "tempo": 120.0
            },
            {
                "start_time": 42.60454545454545,
                "end_time": 42.65454545454545,
                "pitch": 50,
                "velocity": 127,
                "duration": 0.04999999999999716,
                "tempo": 120.0
            },
            {
                "start_time": 42.65454545454545,
                "end_time": 42.68863636363636,
                "pitch": 48,
                "velocity": 127,
                "duration": 0.03409090909091361,
                "tempo": 120.0
            },
            {
                "start_time": 42.68863636363636,
                "end_time": 42.72272727272727,
                "pitch": 45,
                "velocity": 127,
                "duration": 0.03409090909090651,
                "tempo": 120.0
            },
            {
                "start_time": 42.72272727272727,
                "end_time": 42.75454545454545,
                "pitch": 43,
                "velocity": 127,
                "duration": 0.0318181818181813,
                "tempo": 120.0
            },
            {
                "start_time": 42.75454545454545,
                "end_time": 42.788636363636364,
                "pitch": 40,
                "velocity": 127,
                "duration": 0.03409090909091361,
                "tempo": 120.0
            },
            {
                "start_time": 42.788636363636364,
                "end_time": 42.804545454545455,
                "pitch": 36,
                "velocity": 127,
                "duration": 0.01590909090909065,
                "tempo": 120.0
            },
            {
                "start_time": 42.80681818181818,
                "end_time": 42.87272727272727,
                "pitch": 47,
                "velocity": 127,
                "duration": 0.06590909090908781,
                "tempo": 120.0
            },
            {
                "start_time": 42.87272727272727,
                "end_time": 42.925,
                "pitch": 45,
                "velocity": 127,
                "duration": 0.05227272727272947,
                "tempo": 120.0
            },
            {
                "start_time": 42.42045454545455,
                "end_time": 42.925,
                "pitch": 55,
                "velocity": 127,
                "duration": 0.5045454545454504,
                "tempo": 120.0
            },
            {
                "start_time": 42.925,
                "end_time": 42.97727272727273,
                "pitch": 43,
                "velocity": 127,
                "duration": 0.05227272727272947,
                "tempo": 120.0
            },
            {
                "start_time": 42.97727272727273,
                "end_time": 43.027272727272724,
                "pitch": 41,
                "velocity": 127,
                "duration": 0.04999999999999716,
                "tempo": 120.0
            },
            {
                "start_time": 43.027272727272724,
                "end_time": 43.06136363636364,
                "pitch": 38,
                "velocity": 127,
                "duration": 0.03409090909091361,
                "tempo": 120.0
            },
            {
                "start_time": 43.06136363636364,
                "end_time": 43.11363636363636,
                "pitch": 53,
                "velocity": 127,
                "duration": 0.052272727272722364,
                "tempo": 120.0
            },
            {
                "start_time": 43.11363636363636,
                "end_time": 43.163636363636364,
                "pitch": 50,
                "velocity": 127,
                "duration": 0.05000000000000426,
                "tempo": 120.0
            },
            {
                "start_time": 43.163636363636364,
                "end_time": 43.19772727272727,
                "pitch": 48,
                "velocity": 127,
                "duration": 0.03409090909090651,
                "tempo": 120.0
            },
            {
                "start_time": 43.19772727272727,
                "end_time": 43.23409090909091,
                "pitch": 45,
                "velocity": 127,
                "duration": 0.03636363636363882,
                "tempo": 120.0
            },
            {
                "start_time": 43.23409090909091,
                "end_time": 43.268181818181816,
                "pitch": 43,
                "velocity": 127,
                "duration": 0.03409090909090651,
                "tempo": 120.0
            },
            {
                "start_time": 43.268181818181816,
                "end_time": 43.30227272727272,
                "pitch": 40,
                "velocity": 127,
                "duration": 0.03409090909090651,
                "tempo": 120.0
            },
            {
                "start_time": 43.30227272727272,
                "end_time": 43.31818181818181,
                "pitch": 36,
                "velocity": 127,
                "duration": 0.01590909090909065,
                "tempo": 120.0
            },
            {
                "start_time": 43.31818181818181,
                "end_time": 43.38409090909091,
                "pitch": 47,
                "velocity": 127,
                "duration": 0.06590909090909491,
                "tempo": 120.0
            },
            {
                "start_time": 43.38409090909091,
                "end_time": 43.434090909090905,
                "pitch": 45,
                "velocity": 127,
                "duration": 0.04999999999999716,
                "tempo": 120.0
            },
            {
                "start_time": 42.925,
                "end_time": 43.434090909090905,
                "pitch": 55,
                "velocity": 127,
                "duration": 0.5090909090909079,
                "tempo": 120.0
            },
            {
                "start_time": 43.434090909090905,
                "end_time": 43.48181818181818,
                "pitch": 43,
                "velocity": 127,
                "duration": 0.04772727272727195,
                "tempo": 120.0
            },
            {
                "start_time": 43.48181818181818,
                "end_time": 43.53181818181818,
                "pitch": 41,
                "velocity": 127,
                "duration": 0.05000000000000426,
                "tempo": 120.0
            },
            {
                "start_time": 43.53181818181818,
                "end_time": 43.56590909090909,
                "pitch": 38,
                "velocity": 127,
                "duration": 0.03409090909090651,
                "tempo": 120.0
            },
            {
                "start_time": 43.56590909090909,
                "end_time": 43.61363636363636,
                "pitch": 53,
                "velocity": 127,
                "duration": 0.04772727272727195,
                "tempo": 120.0
            },
            {
                "start_time": 43.61363636363636,
                "end_time": 43.663636363636364,
                "pitch": 50,
                "velocity": 127,
                "duration": 0.05000000000000426,
                "tempo": 120.0
            },
            {
                "start_time": 43.663636363636364,
                "end_time": 43.695454545454545,
                "pitch": 48,
                "velocity": 127,
                "duration": 0.0318181818181813,
                "tempo": 120.0
            },
            {
                "start_time": 43.695454545454545,
                "end_time": 43.72954545454545,
                "pitch": 45,
                "velocity": 127,
                "duration": 0.03409090909090651,
                "tempo": 120.0
            },
            {
                "start_time": 43.72954545454545,
                "end_time": 43.76136363636363,
                "pitch": 43,
                "velocity": 127,
                "duration": 0.0318181818181813,
                "tempo": 120.0
            },
            {
                "start_time": 43.76136363636363,
                "end_time": 43.79545454545455,
                "pitch": 40,
                "velocity": 127,
                "duration": 0.03409090909091361,
                "tempo": 120.0
            },
            {
                "start_time": 43.79545454545455,
                "end_time": 43.81136363636364,
                "pitch": 36,
                "velocity": 127,
                "duration": 0.01590909090909065,
                "tempo": 120.0
            },
            {
                "start_time": 43.81136363636364,
                "end_time": 43.87954545454545,
                "pitch": 47,
                "velocity": 127,
                "duration": 0.06818181818181301,
                "tempo": 120.0
            },
            {
                "start_time": 43.87954545454545,
                "end_time": 43.929545454545455,
                "pitch": 45,
                "velocity": 127,
                "duration": 0.05000000000000426,
                "tempo": 120.0
            },
            {
                "start_time": 43.434090909090905,
                "end_time": 43.929545454545455,
                "pitch": 55,
                "velocity": 127,
                "duration": 0.4954545454545496,
                "tempo": 120.0
            },
            {
                "start_time": 43.929545454545455,
                "end_time": 43.98181818181818,
                "pitch": 43,
                "velocity": 127,
                "duration": 0.052272727272722364,
                "tempo": 120.0
            },
            {
                "start_time": 43.98181818181818,
                "end_time": 44.03409090909091,
                "pitch": 41,
                "velocity": 127,
                "duration": 0.05227272727272947,
                "tempo": 120.0
            },
            {
                "start_time": 44.03409090909091,
                "end_time": 44.06818181818181,
                "pitch": 38,
                "velocity": 127,
                "duration": 0.03409090909090651,
                "tempo": 120.0
            },
            {
                "start_time": 44.06818181818181,
                "end_time": 44.11818181818182,
                "pitch": 53,
                "velocity": 127,
                "duration": 0.05000000000000426,
                "tempo": 120.0
            },
            {
                "start_time": 44.11818181818182,
                "end_time": 44.17045454545455,
                "pitch": 50,
                "velocity": 127,
                "duration": 0.05227272727272947,
                "tempo": 120.0
            },
            {
                "start_time": 44.17045454545455,
                "end_time": 44.20454545454545,
                "pitch": 48,
                "velocity": 127,
                "duration": 0.03409090909090651,
                "tempo": 120.0
            },
            {
                "start_time": 44.20454545454545,
                "end_time": 44.23863636363636,
                "pitch": 45,
                "velocity": 127,
                "duration": 0.03409090909090651,
                "tempo": 120.0
            },
            {
                "start_time": 44.23863636363636,
                "end_time": 44.27272727272727,
                "pitch": 43,
                "velocity": 127,
                "duration": 0.03409090909091361,
                "tempo": 120.0
            },
            {
                "start_time": 44.27272727272727,
                "end_time": 44.30681818181818,
                "pitch": 40,
                "velocity": 127,
                "duration": 0.03409090909090651,
                "tempo": 120.0
            },
            {
                "start_time": 44.30681818181818,
                "end_time": 44.324999999999996,
                "pitch": 36,
                "velocity": 127,
                "duration": 0.018181818181815856,
                "tempo": 120.0
            },
            {
                "start_time": 44.324999999999996,
                "end_time": 44.39090909090909,
                "pitch": 47,
                "velocity": 127,
                "duration": 0.06590909090909491,
                "tempo": 120.0
            },
            {
                "start_time": 44.39090909090909,
                "end_time": 44.44090909090909,
                "pitch": 45,
                "velocity": 127,
                "duration": 0.04999999999999716,
                "tempo": 120.0
            },
            {
                "start_time": 43.929545454545455,
                "end_time": 44.44090909090909,
                "pitch": 55,
                "velocity": 127,
                "duration": 0.5113636363636331,
                "tempo": 120.0
            },
            {
                "start_time": 44.44090909090909,
                "end_time": 44.49090909090909,
                "pitch": 43,
                "velocity": 127,
                "duration": 0.05000000000000426,
                "tempo": 120.0
            },
            {
                "start_time": 44.49090909090909,
                "end_time": 44.54090909090909,
                "pitch": 41,
                "velocity": 127,
                "duration": 0.04999999999999716,
                "tempo": 120.0
            },
            {
                "start_time": 44.54090909090909,
                "end_time": 44.574999999999996,
                "pitch": 38,
                "velocity": 127,
                "duration": 0.03409090909090651,
                "tempo": 120.0
            },
            {
                "start_time": 44.574999999999996,
                "end_time": 44.625,
                "pitch": 53,
                "velocity": 127,
                "duration": 0.05000000000000426,
                "tempo": 120.0
            },
            {
                "start_time": 44.625,
                "end_time": 44.675,
                "pitch": 50,
                "velocity": 127,
                "duration": 0.04999999999999716,
                "tempo": 120.0
            },
            {
                "start_time": 44.675,
                "end_time": 44.709090909090904,
                "pitch": 48,
                "velocity": 127,
                "duration": 0.03409090909090651,
                "tempo": 120.0
            },
            {
                "start_time": 44.709090909090904,
                "end_time": 44.74090909090909,
                "pitch": 45,
                "velocity": 127,
                "duration": 0.03181818181818841,
                "tempo": 120.0
            },
            {
                "start_time": 44.74090909090909,
                "end_time": 44.775,
                "pitch": 43,
                "velocity": 127,
                "duration": 0.03409090909090651,
                "tempo": 120.0
            },
            {
                "start_time": 44.775,
                "end_time": 44.809090909090905,
                "pitch": 40,
                "velocity": 127,
                "duration": 0.03409090909090651,
                "tempo": 120.0
            },
            {
                "start_time": 44.809090909090905,
                "end_time": 44.824999999999996,
                "pitch": 36,
                "velocity": 127,
                "duration": 0.01590909090909065,
                "tempo": 120.0
            },
            {
                "start_time": 44.824999999999996,
                "end_time": 44.89090909090909,
                "pitch": 47,
                "velocity": 127,
                "duration": 0.06590909090909491,
                "tempo": 120.0
            },
            {
                "start_time": 44.89090909090909,
                "end_time": 44.94090909090909,
                "pitch": 45,
                "velocity": 127,
                "duration": 0.04999999999999716,
                "tempo": 120.0
            },
            {
                "start_time": 44.44090909090909,
                "end_time": 44.94090909090909,
                "pitch": 55,
                "velocity": 127,
                "duration": 0.5,
                "tempo": 120.0
            },
            {
                "start_time": 44.94090909090909,
                "end_time": 44.99090909090909,
                "pitch": 43,
                "velocity": 127,
                "duration": 0.05000000000000426,
                "tempo": 120.0
            },
            {
                "start_time": 44.99090909090909,
                "end_time": 45.04090909090909,
                "pitch": 41,
                "velocity": 127,
                "duration": 0.04999999999999716,
                "tempo": 120.0
            },
            {
                "start_time": 45.04090909090909,
                "end_time": 45.074999999999996,
                "pitch": 38,
                "velocity": 127,
                "duration": 0.03409090909090651,
                "tempo": 120.0
            },
            {
                "start_time": 45.074999999999996,
                "end_time": 45.125,
                "pitch": 53,
                "velocity": 127,
                "duration": 0.05000000000000426,
                "tempo": 120.0
            },
            {
                "start_time": 45.125,
                "end_time": 45.175,
                "pitch": 50,
                "velocity": 127,
                "duration": 0.04999999999999716,
                "tempo": 120.0
            },
            {
                "start_time": 45.175,
                "end_time": 45.209090909090904,
                "pitch": 48,
                "velocity": 127,
                "duration": 0.03409090909090651,
                "tempo": 120.0
            },
            {
                "start_time": 45.209090909090904,
                "end_time": 45.24318181818182,
                "pitch": 45,
                "velocity": 127,
                "duration": 0.03409090909091361,
                "tempo": 120.0
            },
            {
                "start_time": 45.24318181818182,
                "end_time": 45.275,
                "pitch": 43,
                "velocity": 127,
                "duration": 0.0318181818181813,
                "tempo": 120.0
            },
            {
                "start_time": 45.275,
                "end_time": 45.309090909090905,
                "pitch": 40,
                "velocity": 127,
                "duration": 0.03409090909090651,
                "tempo": 120.0
            },
            {
                "start_time": 45.309090909090905,
                "end_time": 45.324999999999996,
                "pitch": 36,
                "velocity": 127,
                "duration": 0.01590909090909065,
                "tempo": 120.0
            },
            {
                "start_time": 45.32727272727273,
                "end_time": 45.375,
                "pitch": 50,
                "velocity": 127,
                "duration": 0.04772727272727195,
                "tempo": 120.0
            },
            {
                "start_time": 45.375,
                "end_time": 45.40909090909091,
                "pitch": 47,
                "velocity": 127,
                "duration": 0.03409090909090651,
                "tempo": 120.0
            },
            {
                "start_time": 45.40909090909091,
                "end_time": 45.44318181818181,
                "pitch": 45,
                "velocity": 127,
                "duration": 0.03409090909090651,
                "tempo": 120.0
            },
            {
                "start_time": 45.44318181818181,
                "end_time": 45.474999999999994,
                "pitch": 42,
                "velocity": 127,
                "duration": 0.0318181818181813,
                "tempo": 120.0
            },
            {
                "start_time": 45.474999999999994,
                "end_time": 45.50909090909091,
                "pitch": 39,
                "velocity": 127,
                "duration": 0.03409090909091361,
                "tempo": 120.0
            },
            {
                "start_time": 45.50909090909091,
                "end_time": 45.525,
                "pitch": 35,
                "velocity": 127,
                "duration": 0.01590909090909065,
                "tempo": 120.0
            },
            {
                "start_time": 45.525,
                "end_time": 45.543181818181814,
                "pitch": 33,
                "velocity": 127,
                "duration": 0.018181818181815856,
                "tempo": 120.0
            },
            {
                "start_time": 45.543181818181814,
                "end_time": 45.559090909090905,
                "pitch": 30,
                "velocity": 127,
                "duration": 0.01590909090909065,
                "tempo": 120.0
            },
            {
                "start_time": 45.559090909090905,
                "end_time": 45.574999999999996,
                "pitch": 27,
                "velocity": 127,
                "duration": 0.01590909090909065,
                "tempo": 120.0
            },
            {
                "start_time": 45.57727272727273,
                "end_time": 45.625,
                "pitch": 50,
                "velocity": 127,
                "duration": 0.04772727272727195,
                "tempo": 120.0
            },
            {
                "start_time": 45.625,
                "end_time": 45.65909090909091,
                "pitch": 47,
                "velocity": 127,
                "duration": 0.03409090909090651,
                "tempo": 120.0
            },
            {
                "start_time": 45.65909090909091,
                "end_time": 45.69318181818181,
                "pitch": 45,
                "velocity": 127,
                "duration": 0.03409090909090651,
                "tempo": 120.0
            },
            {
                "start_time": 45.69318181818181,
                "end_time": 45.72727272727273,
                "pitch": 42,
                "velocity": 127,
                "duration": 0.03409090909091361,
                "tempo": 120.0
            },
            {
                "start_time": 45.72727272727273,
                "end_time": 45.75909090909091,
                "pitch": 39,
                "velocity": 127,
                "duration": 0.0318181818181813,
                "tempo": 120.0
            },
            {
                "start_time": 45.75909090909091,
                "end_time": 45.777272727272724,
                "pitch": 35,
                "velocity": 127,
                "duration": 0.018181818181815856,
                "tempo": 120.0
            },
            {
                "start_time": 45.777272727272724,
                "end_time": 45.793181818181814,
                "pitch": 33,
                "velocity": 127,
                "duration": 0.01590909090909065,
                "tempo": 120.0
            },
            {
                "start_time": 45.793181818181814,
                "end_time": 45.809090909090905,
                "pitch": 30,
                "velocity": 127,
                "duration": 0.01590909090909065,
                "tempo": 120.0
            },
            {
                "start_time": 45.809090909090905,
                "end_time": 45.82727272727273,
                "pitch": 27,
                "velocity": 127,
                "duration": 0.018181818181822962,
                "tempo": 120.0
            },
            {
                "start_time": 45.82727272727273,
                "end_time": 45.877272727272725,
                "pitch": 50,
                "velocity": 127,
                "duration": 0.04999999999999716,
                "tempo": 120.0
            },
            {
                "start_time": 45.877272727272725,
                "end_time": 45.90909090909091,
                "pitch": 47,
                "velocity": 127,
                "duration": 0.0318181818181813,
                "tempo": 120.0
            },
            {
                "start_time": 45.90909090909091,
                "end_time": 45.94318181818181,
                "pitch": 45,
                "velocity": 127,
                "duration": 0.03409090909090651,
                "tempo": 120.0
            },
            {
                "start_time": 45.94318181818181,
                "end_time": 45.97727272727273,
                "pitch": 42,
                "velocity": 127,
                "duration": 0.03409090909091361,
                "tempo": 120.0
            },
            {
                "start_time": 45.97727272727273,
                "end_time": 46.00909090909091,
                "pitch": 39,
                "velocity": 127,
                "duration": 0.0318181818181813,
                "tempo": 120.0
            },
            {
                "start_time": 46.00909090909091,
                "end_time": 46.027272727272724,
                "pitch": 35,
                "velocity": 127,
                "duration": 0.018181818181815856,
                "tempo": 120.0
            },
            {
                "start_time": 46.027272727272724,
                "end_time": 46.043181818181814,
                "pitch": 33,
                "velocity": 127,
                "duration": 0.01590909090909065,
                "tempo": 120.0
            },
            {
                "start_time": 46.043181818181814,
                "end_time": 46.059090909090905,
                "pitch": 30,
                "velocity": 127,
                "duration": 0.01590909090909065,
                "tempo": 120.0
            },
            {
                "start_time": 46.059090909090905,
                "end_time": 46.07727272727273,
                "pitch": 27,
                "velocity": 127,
                "duration": 0.018181818181822962,
                "tempo": 120.0
            },
            {
                "start_time": 46.07727272727273,
                "end_time": 46.127272727272725,
                "pitch": 50,
                "velocity": 127,
                "duration": 0.04999999999999716,
                "tempo": 120.0
            },
            {
                "start_time": 46.127272727272725,
                "end_time": 46.15909090909091,
                "pitch": 47,
                "velocity": 127,
                "duration": 0.0318181818181813,
                "tempo": 120.0
            },
            {
                "start_time": 46.15909090909091,
                "end_time": 46.19318181818181,
                "pitch": 45,
                "velocity": 127,
                "duration": 0.03409090909090651,
                "tempo": 120.0
            },
            {
                "start_time": 46.19318181818181,
                "end_time": 46.22727272727273,
                "pitch": 42,
                "velocity": 127,
                "duration": 0.03409090909091361,
                "tempo": 120.0
            },
            {
                "start_time": 46.22727272727273,
                "end_time": 46.25909090909091,
                "pitch": 39,
                "velocity": 127,
                "duration": 0.0318181818181813,
                "tempo": 120.0
            },
            {
                "start_time": 46.25909090909091,
                "end_time": 46.277272727272724,
                "pitch": 35,
                "velocity": 127,
                "duration": 0.018181818181815856,
                "tempo": 120.0
            },
            {
                "start_time": 46.277272727272724,
                "end_time": 46.293181818181814,
                "pitch": 33,
                "velocity": 127,
                "duration": 0.01590909090909065,
                "tempo": 120.0
            },
            {
                "start_time": 46.293181818181814,
                "end_time": 46.309090909090905,
                "pitch": 30,
                "velocity": 127,
                "duration": 0.01590909090909065,
                "tempo": 120.0
            },
            {
                "start_time": 46.309090909090905,
                "end_time": 46.32727272727273,
                "pitch": 27,
                "velocity": 127,
                "duration": 0.018181818181822962,
                "tempo": 120.0
            },
            {
                "start_time": 46.32727272727273,
                "end_time": 46.393181818181816,
                "pitch": 47,
                "velocity": 127,
                "duration": 0.06590909090908781,
                "tempo": 120.0
            },
            {
                "start_time": 46.393181818181816,
                "end_time": 46.44318181818181,
                "pitch": 45,
                "velocity": 127,
                "duration": 0.04999999999999716,
                "tempo": 120.0
            },
            {
                "start_time": 44.94090909090909,
                "end_time": 46.44318181818181,
                "pitch": 55,
                "velocity": 127,
                "duration": 1.5022727272727252,
                "tempo": 120.0
            },
            {
                "start_time": 46.44318181818181,
                "end_time": 46.49318181818182,
                "pitch": 43,
                "velocity": 127,
                "duration": 0.05000000000000426,
                "tempo": 120.0
            },
            {
                "start_time": 46.49318181818182,
                "end_time": 46.543181818181814,
                "pitch": 41,
                "velocity": 127,
                "duration": 0.04999999999999716,
                "tempo": 120.0
            },
            {
                "start_time": 46.543181818181814,
                "end_time": 46.57727272727273,
                "pitch": 38,
                "velocity": 127,
                "duration": 0.03409090909091361,
                "tempo": 120.0
            },
            {
                "start_time": 46.57727272727273,
                "end_time": 46.627272727272725,
                "pitch": 53,
                "velocity": 127,
                "duration": 0.04999999999999716,
                "tempo": 120.0
            },
            {
                "start_time": 46.627272727272725,
                "end_time": 46.67727272727272,
                "pitch": 50,
                "velocity": 127,
                "duration": 0.04999999999999716,
                "tempo": 120.0
            },
            {
                "start_time": 46.67727272727272,
                "end_time": 46.711363636363636,
                "pitch": 48,
                "velocity": 127,
                "duration": 0.03409090909091361,
                "tempo": 120.0
            },
            {
                "start_time": 46.711363636363636,
                "end_time": 46.74318181818182,
                "pitch": 45,
                "velocity": 127,
                "duration": 0.0318181818181813,
                "tempo": 120.0
            },
            {
                "start_time": 46.74318181818182,
                "end_time": 46.777272727272724,
                "pitch": 43,
                "velocity": 127,
                "duration": 0.03409090909090651,
                "tempo": 120.0
            },
            {
                "start_time": 46.777272727272724,
                "end_time": 46.81136363636364,
                "pitch": 40,
                "velocity": 127,
                "duration": 0.03409090909091361,
                "tempo": 120.0
            },
            {
                "start_time": 46.81136363636364,
                "end_time": 46.82727272727273,
                "pitch": 36,
                "velocity": 127,
                "duration": 0.01590909090909065,
                "tempo": 120.0
            },
            {
                "start_time": 46.82727272727273,
                "end_time": 46.893181818181816,
                "pitch": 47,
                "velocity": 127,
                "duration": 0.06590909090908781,
                "tempo": 120.0
            },
            {
                "start_time": 46.893181818181816,
                "end_time": 46.945454545454545,
                "pitch": 45,
                "velocity": 127,
                "duration": 0.05227272727272947,
                "tempo": 120.0
            },
            {
                "start_time": 46.44318181818181,
                "end_time": 46.945454545454545,
                "pitch": 55,
                "velocity": 127,
                "duration": 0.5022727272727323,
                "tempo": 120.0
            },
            {
                "start_time": 46.945454545454545,
                "end_time": 46.99545454545454,
                "pitch": 43,
                "velocity": 127,
                "duration": 0.04999999999999716,
                "tempo": 120.0
            },
            {
                "start_time": 46.99545454545454,
                "end_time": 47.04545454545454,
                "pitch": 41,
                "velocity": 127,
                "duration": 0.04999999999999716,
                "tempo": 120.0
            },
            {
                "start_time": 47.04545454545454,
                "end_time": 47.07727272727273,
                "pitch": 38,
                "velocity": 127,
                "duration": 0.03181818181818841,
                "tempo": 120.0
            },
            {
                "start_time": 47.07954545454545,
                "end_time": 47.127272727272725,
                "pitch": 53,
                "velocity": 127,
                "duration": 0.04772727272727195,
                "tempo": 120.0
            },
            {
                "start_time": 47.127272727272725,
                "end_time": 47.17727272727272,
                "pitch": 50,
                "velocity": 127,
                "duration": 0.04999999999999716,
                "tempo": 120.0
            },
            {
                "start_time": 47.17727272727272,
                "end_time": 47.211363636363636,
                "pitch": 48,
                "velocity": 127,
                "duration": 0.03409090909091361,
                "tempo": 120.0
            },
            {
                "start_time": 47.211363636363636,
                "end_time": 47.24545454545454,
                "pitch": 45,
                "velocity": 127,
                "duration": 0.03409090909090651,
                "tempo": 120.0
            },
            {
                "start_time": 47.24545454545454,
                "end_time": 47.277272727272724,
                "pitch": 43,
                "velocity": 127,
                "duration": 0.0318181818181813,
                "tempo": 120.0
            },
            {
                "start_time": 47.277272727272724,
                "end_time": 47.31136363636364,
                "pitch": 40,
                "velocity": 127,
                "duration": 0.03409090909091361,
                "tempo": 120.0
            },
            {
                "start_time": 47.31136363636364,
                "end_time": 47.32727272727273,
                "pitch": 36,
                "velocity": 127,
                "duration": 0.01590909090909065,
                "tempo": 120.0
            },
            {
                "start_time": 47.32954545454545,
                "end_time": 47.39545454545454,
                "pitch": 47,
                "velocity": 127,
                "duration": 0.06590909090908781,
                "tempo": 120.0
            },
            {
                "start_time": 47.39545454545454,
                "end_time": 47.445454545454545,
                "pitch": 45,
                "velocity": 127,
                "duration": 0.05000000000000426,
                "tempo": 120.0
            },
            {
                "start_time": 46.945454545454545,
                "end_time": 47.445454545454545,
                "pitch": 55,
                "velocity": 127,
                "duration": 0.5,
                "tempo": 120.0
            },
            {
                "start_time": 47.445454545454545,
                "end_time": 47.49545454545454,
                "pitch": 43,
                "velocity": 127,
                "duration": 0.04999999999999716,
                "tempo": 120.0
            },
            {
                "start_time": 47.49545454545454,
                "end_time": 47.54545454545454,
                "pitch": 41,
                "velocity": 127,
                "duration": 0.04999999999999716,
                "tempo": 120.0
            },
            {
                "start_time": 47.54545454545454,
                "end_time": 47.57954545454545,
                "pitch": 38,
                "velocity": 127,
                "duration": 0.03409090909091361,
                "tempo": 120.0
            },
            {
                "start_time": 47.57954545454545,
                "end_time": 47.62954545454545,
                "pitch": 53,
                "velocity": 127,
                "duration": 0.04999999999999716,
                "tempo": 120.0
            },
            {
                "start_time": 47.62954545454545,
                "end_time": 47.679545454545455,
                "pitch": 50,
                "velocity": 127,
                "duration": 0.05000000000000426,
                "tempo": 120.0
            },
            {
                "start_time": 47.679545454545455,
                "end_time": 47.711363636363636,
                "pitch": 48,
                "velocity": 127,
                "duration": 0.0318181818181813,
                "tempo": 120.0
            },
            {
                "start_time": 47.711363636363636,
                "end_time": 47.74545454545454,
                "pitch": 45,
                "velocity": 127,
                "duration": 0.03409090909090651,
                "tempo": 120.0
            },
            {
                "start_time": 47.74545454545454,
                "end_time": 47.77954545454545,
                "pitch": 43,
                "velocity": 127,
                "duration": 0.03409090909090651,
                "tempo": 120.0
            },
            {
                "start_time": 47.77954545454545,
                "end_time": 47.81136363636364,
                "pitch": 40,
                "velocity": 127,
                "duration": 0.03181818181818841,
                "tempo": 120.0
            },
            {
                "start_time": 47.81136363636364,
                "end_time": 47.82954545454545,
                "pitch": 36,
                "velocity": 127,
                "duration": 0.018181818181815856,
                "tempo": 120.0
            },
            {
                "start_time": 47.82954545454545,
                "end_time": 47.89545454545454,
                "pitch": 47,
                "velocity": 127,
                "duration": 0.06590909090908781,
                "tempo": 120.0
            },
            {
                "start_time": 47.89545454545454,
                "end_time": 47.945454545454545,
                "pitch": 45,
                "velocity": 127,
                "duration": 0.05000000000000426,
                "tempo": 120.0
            },
            {
                "start_time": 47.445454545454545,
                "end_time": 47.945454545454545,
                "pitch": 55,
                "velocity": 127,
                "duration": 0.5,
                "tempo": 120.0
            },
            {
                "start_time": 47.945454545454545,
                "end_time": 47.99545454545454,
                "pitch": 43,
                "velocity": 127,
                "duration": 0.04999999999999716,
                "tempo": 120.0
            },
            {
                "start_time": 47.99545454545454,
                "end_time": 48.04545454545454,
                "pitch": 41,
                "velocity": 127,
                "duration": 0.04999999999999716,
                "tempo": 120.0
            },
            {
                "start_time": 48.04545454545454,
                "end_time": 48.07954545454545,
                "pitch": 38,
                "velocity": 127,
                "duration": 0.03409090909091361,
                "tempo": 120.0
            },
            {
                "start_time": 48.07954545454545,
                "end_time": 48.12954545454545,
                "pitch": 53,
                "velocity": 127,
                "duration": 0.04999999999999716,
                "tempo": 120.0
            },
            {
                "start_time": 48.12954545454545,
                "end_time": 48.179545454545455,
                "pitch": 50,
                "velocity": 127,
                "duration": 0.05000000000000426,
                "tempo": 120.0
            },
            {
                "start_time": 48.179545454545455,
                "end_time": 48.21363636363636,
                "pitch": 48,
                "velocity": 127,
                "duration": 0.03409090909090651,
                "tempo": 120.0
            },
            {
                "start_time": 48.21363636363636,
                "end_time": 48.24545454545454,
                "pitch": 45,
                "velocity": 127,
                "duration": 0.0318181818181813,
                "tempo": 120.0
            },
            {
                "start_time": 48.24545454545454,
                "end_time": 48.27954545454545,
                "pitch": 43,
                "velocity": 127,
                "duration": 0.03409090909090651,
                "tempo": 120.0
            },
            {
                "start_time": 48.27954545454545,
                "end_time": 48.31363636363636,
                "pitch": 40,
                "velocity": 127,
                "duration": 0.03409090909091361,
                "tempo": 120.0
            },
            {
                "start_time": 48.31363636363636,
                "end_time": 48.32954545454545,
                "pitch": 36,
                "velocity": 127,
                "duration": 0.01590909090909065,
                "tempo": 120.0
            },
            {
                "start_time": 48.32954545454545,
                "end_time": 48.39545454545454,
                "pitch": 47,
                "velocity": 127,
                "duration": 0.06590909090908781,
                "tempo": 120.0
            },
            {
                "start_time": 48.39545454545454,
                "end_time": 48.445454545454545,
                "pitch": 45,
                "velocity": 127,
                "duration": 0.05000000000000426,
                "tempo": 120.0
            },
            {
                "start_time": 47.945454545454545,
                "end_time": 48.445454545454545,
                "pitch": 55,
                "velocity": 127,
                "duration": 0.5,
                "tempo": 120.0
            },
            {
                "start_time": 48.445454545454545,
                "end_time": 48.49545454545454,
                "pitch": 43,
                "velocity": 127,
                "duration": 0.04999999999999716,
                "tempo": 120.0
            },
            {
                "start_time": 48.49545454545454,
                "end_time": 48.54545454545454,
                "pitch": 41,
                "velocity": 127,
                "duration": 0.04999999999999716,
                "tempo": 120.0
            },
            {
                "start_time": 48.54545454545454,
                "end_time": 48.57954545454545,
                "pitch": 38,
                "velocity": 127,
                "duration": 0.03409090909091361,
                "tempo": 120.0
            },
            {
                "start_time": 48.57954545454545,
                "end_time": 48.62954545454545,
                "pitch": 53,
                "velocity": 127,
                "duration": 0.04999999999999716,
                "tempo": 120.0
            },
            {
                "start_time": 48.62954545454545,
                "end_time": 48.679545454545455,
                "pitch": 50,
                "velocity": 127,
                "duration": 0.05000000000000426,
                "tempo": 120.0
            },
            {
                "start_time": 48.679545454545455,
                "end_time": 48.71363636363636,
                "pitch": 48,
                "velocity": 127,
                "duration": 0.03409090909090651,
                "tempo": 120.0
            },
            {
                "start_time": 48.71363636363636,
                "end_time": 48.74772727272727,
                "pitch": 45,
                "velocity": 127,
                "duration": 0.03409090909090651,
                "tempo": 120.0
            },
            {
                "start_time": 48.74772727272727,
                "end_time": 48.77954545454545,
                "pitch": 43,
                "velocity": 127,
                "duration": 0.0318181818181813,
                "tempo": 120.0
            },
            {
                "start_time": 48.77954545454545,
                "end_time": 48.81363636363636,
                "pitch": 40,
                "velocity": 127,
                "duration": 0.03409090909091361,
                "tempo": 120.0
            },
            {
                "start_time": 48.81363636363636,
                "end_time": 48.82954545454545,
                "pitch": 36,
                "velocity": 127,
                "duration": 0.01590909090909065,
                "tempo": 120.0
            },
            {
                "start_time": 48.83181818181818,
                "end_time": 48.89772727272727,
                "pitch": 47,
                "velocity": 127,
                "duration": 0.06590909090909491,
                "tempo": 120.0
            },
            {
                "start_time": 48.89772727272727,
                "end_time": 48.94772727272727,
                "pitch": 45,
                "velocity": 127,
                "duration": 0.04999999999999716,
                "tempo": 120.0
            },
            {
                "start_time": 48.445454545454545,
                "end_time": 48.94772727272727,
                "pitch": 55,
                "velocity": 127,
                "duration": 0.5022727272727252,
                "tempo": 120.0
            },
            {
                "start_time": 48.94772727272727,
                "end_time": 48.99772727272727,
                "pitch": 43,
                "velocity": 127,
                "duration": 0.04999999999999716,
                "tempo": 120.0
            },
            {
                "start_time": 48.99772727272727,
                "end_time": 49.04772727272727,
                "pitch": 41,
                "velocity": 127,
                "duration": 0.05000000000000426,
                "tempo": 120.0
            },
            {
                "start_time": 49.04772727272727,
                "end_time": 49.07954545454545,
                "pitch": 38,
                "velocity": 127,
                "duration": 0.0318181818181813,
                "tempo": 120.0
            },
            {
                "start_time": 49.08181818181818,
                "end_time": 49.12954545454545,
                "pitch": 53,
                "velocity": 127,
                "duration": 0.04772727272727195,
                "tempo": 120.0
            },
            {
                "start_time": 49.12954545454545,
                "end_time": 49.179545454545455,
                "pitch": 50,
                "velocity": 127,
                "duration": 0.05000000000000426,
                "tempo": 120.0
            },
            {
                "start_time": 49.179545454545455,
                "end_time": 49.21363636363636,
                "pitch": 48,
                "velocity": 127,
                "duration": 0.03409090909090651,
                "tempo": 120.0
            },
            {
                "start_time": 49.21363636363636,
                "end_time": 49.24772727272727,
                "pitch": 45,
                "velocity": 127,
                "duration": 0.03409090909090651,
                "tempo": 120.0
            },
            {
                "start_time": 49.24772727272727,
                "end_time": 49.27954545454545,
                "pitch": 43,
                "velocity": 127,
                "duration": 0.0318181818181813,
                "tempo": 120.0
            },
            {
                "start_time": 49.27954545454545,
                "end_time": 49.31363636363636,
                "pitch": 40,
                "velocity": 127,
                "duration": 0.03409090909091361,
                "tempo": 120.0
            },
            {
                "start_time": 49.31363636363636,
                "end_time": 49.33181818181818,
                "pitch": 36,
                "velocity": 127,
                "duration": 0.018181818181815856,
                "tempo": 120.0
            },
            {
                "start_time": 49.33181818181818,
                "end_time": 49.38181818181818,
                "pitch": 50,
                "velocity": 127,
                "duration": 0.05000000000000426,
                "tempo": 120.0
            },
            {
                "start_time": 49.38181818181818,
                "end_time": 49.413636363636364,
                "pitch": 47,
                "velocity": 127,
                "duration": 0.0318181818181813,
                "tempo": 120.0
            },
            {
                "start_time": 49.413636363636364,
                "end_time": 49.44772727272727,
                "pitch": 45,
                "velocity": 127,
                "duration": 0.03409090909090651,
                "tempo": 120.0
            },
            {
                "start_time": 49.44772727272727,
                "end_time": 49.48181818181818,
                "pitch": 42,
                "velocity": 127,
                "duration": 0.03409090909090651,
                "tempo": 120.0
            },
            {
                "start_time": 49.48181818181818,
                "end_time": 49.51363636363636,
                "pitch": 39,
                "velocity": 127,
                "duration": 0.0318181818181813,
                "tempo": 120.0
            },
            {
                "start_time": 49.51363636363636,
                "end_time": 49.53181818181818,
                "pitch": 35,
                "velocity": 127,
                "duration": 0.018181818181822962,
                "tempo": 120.0
            },
            {
                "start_time": 49.53181818181818,
                "end_time": 49.54772727272727,
                "pitch": 33,
                "velocity": 127,
                "duration": 0.01590909090909065,
                "tempo": 120.0
            },
            {
                "start_time": 49.54772727272727,
                "end_time": 49.56363636363636,
                "pitch": 30,
                "velocity": 127,
                "duration": 0.01590909090909065,
                "tempo": 120.0
            },
            {
                "start_time": 49.56363636363636,
                "end_time": 49.58181818181818,
                "pitch": 27,
                "velocity": 127,
                "duration": 0.018181818181815856,
                "tempo": 120.0
            },
            {
                "start_time": 49.58181818181818,
                "end_time": 49.63181818181818,
                "pitch": 50,
                "velocity": 127,
                "duration": 0.05000000000000426,
                "tempo": 120.0
            },
            {
                "start_time": 49.63181818181818,
                "end_time": 49.663636363636364,
                "pitch": 47,
                "velocity": 127,
                "duration": 0.0318181818181813,
                "tempo": 120.0
            },
            {
                "start_time": 49.663636363636364,
                "end_time": 49.69772727272727,
                "pitch": 45,
                "velocity": 127,
                "duration": 0.03409090909090651,
                "tempo": 120.0
            },
            {
                "start_time": 49.69772727272727,
                "end_time": 49.73181818181818,
                "pitch": 42,
                "velocity": 127,
                "duration": 0.03409090909090651,
                "tempo": 120.0
            },
            {
                "start_time": 49.73181818181818,
                "end_time": 49.76363636363636,
                "pitch": 39,
                "velocity": 127,
                "duration": 0.0318181818181813,
                "tempo": 120.0
            },
            {
                "start_time": 49.76363636363636,
                "end_time": 49.78181818181818,
                "pitch": 35,
                "velocity": 127,
                "duration": 0.018181818181822962,
                "tempo": 120.0
            },
            {
                "start_time": 49.78181818181818,
                "end_time": 49.79772727272727,
                "pitch": 33,
                "velocity": 127,
                "duration": 0.01590909090909065,
                "tempo": 120.0
            },
            {
                "start_time": 49.79772727272727,
                "end_time": 49.81363636363636,
                "pitch": 30,
                "velocity": 127,
                "duration": 0.01590909090909065,
                "tempo": 120.0
            },
            {
                "start_time": 49.81363636363636,
                "end_time": 49.83181818181818,
                "pitch": 27,
                "velocity": 127,
                "duration": 0.018181818181815856,
                "tempo": 120.0
            },
            {
                "start_time": 49.83181818181818,
                "end_time": 49.88181818181818,
                "pitch": 50,
                "velocity": 127,
                "duration": 0.05000000000000426,
                "tempo": 120.0
            },
            {
                "start_time": 49.88181818181818,
                "end_time": 49.91590909090909,
                "pitch": 47,
                "velocity": 127,
                "duration": 0.03409090909090651,
                "tempo": 120.0
            },
            {
                "start_time": 49.91590909090909,
                "end_time": 49.94772727272727,
                "pitch": 45,
                "velocity": 127,
                "duration": 0.0318181818181813,
                "tempo": 120.0
            },
            {
                "start_time": 49.94772727272727,
                "end_time": 49.98181818181818,
                "pitch": 42,
                "velocity": 127,
                "duration": 0.03409090909090651,
                "tempo": 120.0
            },
            {
                "start_time": 49.98181818181818,
                "end_time": 50.01590909090909,
                "pitch": 39,
                "velocity": 127,
                "duration": 0.03409090909091361,
                "tempo": 120.0
            },
            {
                "start_time": 50.01590909090909,
                "end_time": 50.03181818181818,
                "pitch": 35,
                "velocity": 127,
                "duration": 0.01590909090909065,
                "tempo": 120.0
            },
            {
                "start_time": 50.03181818181818,
                "end_time": 50.04772727272727,
                "pitch": 33,
                "velocity": 127,
                "duration": 0.01590909090909065,
                "tempo": 120.0
            },
            {
                "start_time": 50.04772727272727,
                "end_time": 50.06590909090909,
                "pitch": 30,
                "velocity": 127,
                "duration": 0.018181818181815856,
                "tempo": 120.0
            },
            {
                "start_time": 50.06590909090909,
                "end_time": 50.08181818181818,
                "pitch": 27,
                "velocity": 127,
                "duration": 0.01590909090909065,
                "tempo": 120.0
            },
            {
                "start_time": 50.08181818181818,
                "end_time": 50.13181818181818,
                "pitch": 50,
                "velocity": 127,
                "duration": 0.05000000000000426,
                "tempo": 120.0
            },
            {
                "start_time": 50.13181818181818,
                "end_time": 50.16590909090909,
                "pitch": 47,
                "velocity": 127,
                "duration": 0.03409090909090651,
                "tempo": 120.0
            },
            {
                "start_time": 50.16590909090909,
                "end_time": 50.19772727272727,
                "pitch": 45,
                "velocity": 127,
                "duration": 0.0318181818181813,
                "tempo": 120.0
            },
            {
                "start_time": 50.19772727272727,
                "end_time": 50.23181818181818,
                "pitch": 42,
                "velocity": 127,
                "duration": 0.03409090909090651,
                "tempo": 120.0
            },
            {
                "start_time": 50.23181818181818,
                "end_time": 50.26590909090909,
                "pitch": 39,
                "velocity": 127,
                "duration": 0.03409090909091361,
                "tempo": 120.0
            },
            {
                "start_time": 50.26590909090909,
                "end_time": 50.28181818181818,
                "pitch": 35,
                "velocity": 127,
                "duration": 0.01590909090909065,
                "tempo": 120.0
            },
            {
                "start_time": 50.28181818181818,
                "end_time": 50.29772727272727,
                "pitch": 33,
                "velocity": 127,
                "duration": 0.01590909090909065,
                "tempo": 120.0
            },
            {
                "start_time": 50.29772727272727,
                "end_time": 50.31590909090909,
                "pitch": 30,
                "velocity": 127,
                "duration": 0.018181818181815856,
                "tempo": 120.0
            },
            {
                "start_time": 50.31590909090909,
                "end_time": 50.33181818181818,
                "pitch": 27,
                "velocity": 127,
                "duration": 0.01590909090909065,
                "tempo": 120.0
            },
            {
                "start_time": 50.33181818181818,
                "end_time": 50.39772727272727,
                "pitch": 47,
                "velocity": 127,
                "duration": 0.06590909090909491,
                "tempo": 120.0
            },
            {
                "start_time": 50.39772727272727,
                "end_time": 50.44772727272727,
                "pitch": 45,
                "velocity": 127,
                "duration": 0.04999999999999716,
                "tempo": 120.0
            },
            {
                "start_time": 48.94772727272727,
                "end_time": 50.449999999999996,
                "pitch": 55,
                "velocity": 127,
                "duration": 1.5022727272727252,
                "tempo": 120.0
            },
            {
                "start_time": 50.44772727272727,
                "end_time": 50.449999999999996,
                "pitch": 55,
                "velocity": 127,
                "duration": 0.0022727272727252057,
                "tempo": 120.0
            },
            {
                "start_time": 50.449999999999996,
                "end_time": 50.5,
                "pitch": 43,
                "velocity": 127,
                "duration": 0.05000000000000426,
                "tempo": 120.0
            },
            {
                "start_time": 50.5,
                "end_time": 50.55,
                "pitch": 41,
                "velocity": 127,
                "duration": 0.04999999999999716,
                "tempo": 120.0
            },
            {
                "start_time": 50.55,
                "end_time": 50.58181818181818,
                "pitch": 38,
                "velocity": 127,
                "duration": 0.0318181818181813,
                "tempo": 120.0
            },
            {
                "start_time": 50.58181818181818,
                "end_time": 50.63181818181818,
                "pitch": 53,
                "velocity": 127,
                "duration": 0.05000000000000426,
                "tempo": 120.0
            },
            {
                "start_time": 50.63181818181818,
                "end_time": 50.68181818181818,
                "pitch": 50,
                "velocity": 127,
                "duration": 0.04999999999999716,
                "tempo": 120.0
            },
            {
                "start_time": 50.68181818181818,
                "end_time": 50.715909090909086,
                "pitch": 48,
                "velocity": 127,
                "duration": 0.03409090909090651,
                "tempo": 120.0
            },
            {
                "start_time": 50.715909090909086,
                "end_time": 50.75,
                "pitch": 45,
                "velocity": 127,
                "duration": 0.03409090909091361,
                "tempo": 120.0
            },
            {
                "start_time": 50.75,
                "end_time": 50.78181818181818,
                "pitch": 43,
                "velocity": 127,
                "duration": 0.0318181818181813,
                "tempo": 120.0
            },
            {
                "start_time": 50.78181818181818,
                "end_time": 50.81590909090909,
                "pitch": 40,
                "velocity": 127,
                "duration": 0.03409090909090651,
                "tempo": 120.0
            },
            {
                "start_time": 50.81590909090909,
                "end_time": 50.83181818181818,
                "pitch": 36,
                "velocity": 127,
                "duration": 0.01590909090909065,
                "tempo": 120.0
            },
            {
                "start_time": 50.834090909090904,
                "end_time": 50.9,
                "pitch": 47,
                "velocity": 127,
                "duration": 0.06590909090909491,
                "tempo": 120.0
            },
            {
                "start_time": 50.9,
                "end_time": 50.95227272727273,
                "pitch": 45,
                "velocity": 127,
                "duration": 0.05227272727272947,
                "tempo": 120.0
            },
            {
                "start_time": 50.95227272727273,
                "end_time": 51.00454545454545,
                "pitch": 43,
                "velocity": 127,
                "duration": 0.052272727272722364,
                "tempo": 120.0
            },
            {
                "start_time": 51.00454545454545,
                "end_time": 51.054545454545455,
                "pitch": 41,
                "velocity": 127,
                "duration": 0.05000000000000426,
                "tempo": 120.0
            },
            {
                "start_time": 51.054545454545455,
                "end_time": 51.08863636363636,
                "pitch": 38,
                "velocity": 127,
                "duration": 0.03409090909090651,
                "tempo": 120.0
            },
            {
                "start_time": 51.08863636363636,
                "end_time": 51.14090909090909,
                "pitch": 53,
                "velocity": 127,
                "duration": 0.05227272727272947,
                "tempo": 120.0
            },
            {
                "start_time": 51.14090909090909,
                "end_time": 51.19090909090909,
                "pitch": 50,
                "velocity": 127,
                "duration": 0.04999999999999716,
                "tempo": 120.0
            },
            {
                "start_time": 51.19090909090909,
                "end_time": 51.224999999999994,
                "pitch": 48,
                "velocity": 127,
                "duration": 0.03409090909090651,
                "tempo": 120.0
            },
            {
                "start_time": 51.224999999999994,
                "end_time": 51.26136363636363,
                "pitch": 45,
                "velocity": 127,
                "duration": 0.03636363636363882,
                "tempo": 120.0
            },
            {
                "start_time": 51.26136363636363,
                "end_time": 51.29545454545454,
                "pitch": 43,
                "velocity": 127,
                "duration": 0.03409090909090651,
                "tempo": 120.0
            },
            {
                "start_time": 51.29545454545454,
                "end_time": 51.32954545454545,
                "pitch": 40,
                "velocity": 127,
                "duration": 0.03409090909091361,
                "tempo": 120.0
            },
            {
                "start_time": 51.32954545454545,
                "end_time": 51.345454545454544,
                "pitch": 36,
                "velocity": 127,
                "duration": 0.01590909090909065,
                "tempo": 120.0
            },
            {
                "start_time": 51.34772727272727,
                "end_time": 51.413636363636364,
                "pitch": 47,
                "velocity": 127,
                "duration": 0.06590909090909491,
                "tempo": 120.0
            },
            {
                "start_time": 51.413636363636364,
                "end_time": 51.46363636363636,
                "pitch": 45,
                "velocity": 127,
                "duration": 0.04999999999999716,
                "tempo": 120.0
            },
            {
                "start_time": 50.95227272727273,
                "end_time": 51.46363636363636,
                "pitch": 55,
                "velocity": 127,
                "duration": 0.5113636363636331,
                "tempo": 120.0
            },
            {
                "start_time": 51.46363636363636,
                "end_time": 51.51363636363636,
                "pitch": 43,
                "velocity": 127,
                "duration": 0.04999999999999716,
                "tempo": 120.0
            },
            {
                "start_time": 51.51363636363636,
                "end_time": 51.56363636363636,
                "pitch": 41,
                "velocity": 127,
                "duration": 0.05000000000000426,
                "tempo": 120.0
            },
            {
                "start_time": 51.56363636363636,
                "end_time": 51.59772727272727,
                "pitch": 38,
                "velocity": 127,
                "duration": 0.03409090909090651,
                "tempo": 120.0
            },
            {
                "start_time": 51.59772727272727,
                "end_time": 51.64545454545454,
                "pitch": 53,
                "velocity": 127,
                "duration": 0.04772727272727195,
                "tempo": 120.0
            },
            {
                "start_time": 51.64545454545454,
                "end_time": 51.69772727272727,
                "pitch": 50,
                "velocity": 127,
                "duration": 0.05227272727272947,
                "tempo": 120.0
            },
            {
                "start_time": 51.69772727272727,
                "end_time": 51.72954545454545,
                "pitch": 48,
                "velocity": 127,
                "duration": 0.0318181818181813,
                "tempo": 120.0
            },
            {
                "start_time": 51.72954545454545,
                "end_time": 51.76363636363636,
                "pitch": 45,
                "velocity": 127,
                "duration": 0.03409090909090651,
                "tempo": 120.0
            },
            {
                "start_time": 51.76363636363636,
                "end_time": 51.79772727272727,
                "pitch": 43,
                "velocity": 127,
                "duration": 0.03409090909091361,
                "tempo": 120.0
            },
            {
                "start_time": 51.79772727272727,
                "end_time": 51.82954545454545,
                "pitch": 40,
                "velocity": 127,
                "duration": 0.0318181818181813,
                "tempo": 120.0
            },
            {
                "start_time": 51.82954545454545,
                "end_time": 51.84772727272727,
                "pitch": 36,
                "velocity": 127,
                "duration": 0.018181818181815856,
                "tempo": 120.0
            },
            {
                "start_time": 51.84772727272727,
                "end_time": 51.913636363636364,
                "pitch": 47,
                "velocity": 127,
                "duration": 0.06590909090909491,
                "tempo": 120.0
            },
            {
                "start_time": 51.913636363636364,
                "end_time": 51.96363636363636,
                "pitch": 45,
                "velocity": 127,
                "duration": 0.04999999999999716,
                "tempo": 120.0
            },
            {
                "start_time": 51.46363636363636,
                "end_time": 51.96363636363636,
                "pitch": 55,
                "velocity": 127,
                "duration": 0.5,
                "tempo": 120.0
            },
            {
                "start_time": 51.96363636363636,
                "end_time": 52.01363636363636,
                "pitch": 43,
                "velocity": 127,
                "duration": 0.04999999999999716,
                "tempo": 120.0
            },
            {
                "start_time": 52.01363636363636,
                "end_time": 52.06363636363636,
                "pitch": 41,
                "velocity": 127,
                "duration": 0.05000000000000426,
                "tempo": 120.0
            },
            {
                "start_time": 52.06363636363636,
                "end_time": 52.09772727272727,
                "pitch": 38,
                "velocity": 127,
                "duration": 0.03409090909090651,
                "tempo": 120.0
            },
            {
                "start_time": 52.09772727272727,
                "end_time": 52.14772727272727,
                "pitch": 53,
                "velocity": 127,
                "duration": 0.05000000000000426,
                "tempo": 120.0
            },
            {
                "start_time": 52.14772727272727,
                "end_time": 52.19772727272727,
                "pitch": 50,
                "velocity": 127,
                "duration": 0.04999999999999716,
                "tempo": 120.0
            },
            {
                "start_time": 52.19772727272727,
                "end_time": 52.22954545454545,
                "pitch": 48,
                "velocity": 127,
                "duration": 0.0318181818181813,
                "tempo": 120.0
            },
            {
                "start_time": 52.22954545454545,
                "end_time": 52.26363636363636,
                "pitch": 45,
                "velocity": 127,
                "duration": 0.03409090909090651,
                "tempo": 120.0
            },
            {
                "start_time": 52.26363636363636,
                "end_time": 52.29772727272727,
                "pitch": 43,
                "velocity": 127,
                "duration": 0.03409090909091361,
                "tempo": 120.0
            },
            {
                "start_time": 52.29772727272727,
                "end_time": 52.33181818181818,
                "pitch": 40,
                "velocity": 127,
                "duration": 0.03409090909090651,
                "tempo": 120.0
            },
            {
                "start_time": 52.33181818181818,
                "end_time": 52.34772727272727,
                "pitch": 36,
                "velocity": 127,
                "duration": 0.01590909090909065,
                "tempo": 120.0
            },
            {
                "start_time": 52.34772727272727,
                "end_time": 52.413636363636364,
                "pitch": 47,
                "velocity": 127,
                "duration": 0.06590909090909491,
                "tempo": 120.0
            },
            {
                "start_time": 52.413636363636364,
                "end_time": 52.46363636363636,
                "pitch": 45,
                "velocity": 127,
                "duration": 0.04999999999999716,
                "tempo": 120.0
            },
            {
                "start_time": 51.96363636363636,
                "end_time": 52.46363636363636,
                "pitch": 55,
                "velocity": 127,
                "duration": 0.5,
                "tempo": 120.0
            },
            {
                "start_time": 52.46363636363636,
                "end_time": 52.51363636363636,
                "pitch": 43,
                "velocity": 127,
                "duration": 0.04999999999999716,
                "tempo": 120.0
            },
            {
                "start_time": 52.51363636363636,
                "end_time": 52.56363636363636,
                "pitch": 41,
                "velocity": 127,
                "duration": 0.05000000000000426,
                "tempo": 120.0
            },
            {
                "start_time": 52.56363636363636,
                "end_time": 52.59772727272727,
                "pitch": 38,
                "velocity": 127,
                "duration": 0.03409090909090651,
                "tempo": 120.0
            },
            {
                "start_time": 52.59772727272727,
                "end_time": 52.64772727272727,
                "pitch": 53,
                "velocity": 127,
                "duration": 0.05000000000000426,
                "tempo": 120.0
            },
            {
                "start_time": 52.64772727272727,
                "end_time": 52.69772727272727,
                "pitch": 50,
                "velocity": 127,
                "duration": 0.04999999999999716,
                "tempo": 120.0
            },
            {
                "start_time": 52.69772727272727,
                "end_time": 52.73181818181818,
                "pitch": 48,
                "velocity": 127,
                "duration": 0.03409090909090651,
                "tempo": 120.0
            },
            {
                "start_time": 52.73181818181818,
                "end_time": 52.76363636363636,
                "pitch": 45,
                "velocity": 127,
                "duration": 0.0318181818181813,
                "tempo": 120.0
            },
            {
                "start_time": 52.76363636363636,
                "end_time": 52.79772727272727,
                "pitch": 43,
                "velocity": 127,
                "duration": 0.03409090909091361,
                "tempo": 120.0
            },
            {
                "start_time": 52.79772727272727,
                "end_time": 52.83181818181818,
                "pitch": 40,
                "velocity": 127,
                "duration": 0.03409090909090651,
                "tempo": 120.0
            },
            {
                "start_time": 52.83181818181818,
                "end_time": 52.84772727272727,
                "pitch": 36,
                "velocity": 127,
                "duration": 0.01590909090909065,
                "tempo": 120.0
            },
            {
                "start_time": 52.84772727272727,
                "end_time": 52.91590909090909,
                "pitch": 47,
                "velocity": 127,
                "duration": 0.06818181818182012,
                "tempo": 120.0
            },
            {
                "start_time": 52.91590909090909,
                "end_time": 52.965909090909086,
                "pitch": 45,
                "velocity": 127,
                "duration": 0.04999999999999716,
                "tempo": 120.0
            },
            {
                "start_time": 52.46363636363636,
                "end_time": 52.965909090909086,
                "pitch": 55,
                "velocity": 127,
                "duration": 0.5022727272727252,
                "tempo": 120.0
            },
            {
                "start_time": 52.965909090909086,
                "end_time": 53.01590909090909,
                "pitch": 43,
                "velocity": 127,
                "duration": 0.05000000000000426,
                "tempo": 120.0
            },
            {
                "start_time": 53.01590909090909,
                "end_time": 53.06590909090909,
                "pitch": 41,
                "velocity": 127,
                "duration": 0.04999999999999716,
                "tempo": 120.0
            },
            {
                "start_time": 53.06590909090909,
                "end_time": 53.09772727272727,
                "pitch": 38,
                "velocity": 127,
                "duration": 0.0318181818181813,
                "tempo": 120.0
            },
            {
                "start_time": 53.099999999999994,
                "end_time": 53.14772727272727,
                "pitch": 53,
                "velocity": 127,
                "duration": 0.04772727272727906,
                "tempo": 120.0
            },
            {
                "start_time": 53.14772727272727,
                "end_time": 53.19772727272727,
                "pitch": 50,
                "velocity": 127,
                "duration": 0.04999999999999716,
                "tempo": 120.0
            },
            {
                "start_time": 53.19772727272727,
                "end_time": 53.23181818181818,
                "pitch": 48,
                "velocity": 127,
                "duration": 0.03409090909090651,
                "tempo": 120.0
            },
            {
                "start_time": 53.23181818181818,
                "end_time": 53.26590909090909,
                "pitch": 45,
                "velocity": 127,
                "duration": 0.03409090909091361,
                "tempo": 120.0
            },
            {
                "start_time": 53.26590909090909,
                "end_time": 53.29772727272727,
                "pitch": 43,
                "velocity": 127,
                "duration": 0.0318181818181813,
                "tempo": 120.0
            },
            {
                "start_time": 53.29772727272727,
                "end_time": 53.33181818181818,
                "pitch": 40,
                "velocity": 127,
                "duration": 0.03409090909090651,
                "tempo": 120.0
            },
            {
                "start_time": 53.33181818181818,
                "end_time": 53.349999999999994,
                "pitch": 36,
                "velocity": 127,
                "duration": 0.018181818181815856,
                "tempo": 120.0
            },
            {
                "start_time": 53.349999999999994,
                "end_time": 53.365909090909085,
                "pitch": 59,
                "velocity": 127,
                "duration": 0.01590909090909065,
                "tempo": 120.0
            },
            {
                "start_time": 53.365909090909085,
                "end_time": 53.43181818181818,
                "pitch": 59,
                "velocity": 127,
                "duration": 0.06590909090909491,
                "tempo": 120.0
            },
            {
                "start_time": 53.43181818181818,
                "end_time": 53.48181818181818,
                "pitch": 57,
                "velocity": 127,
                "duration": 0.04999999999999716,
                "tempo": 120.0
            },
            {
                "start_time": 37.48181818181818,
                "end_time": 53.48181818181818,
                "pitch": 67,
                "velocity": 127,
                "duration": 16.0,
                "tempo": 120.0
            },
            {
                "start_time": 52.965909090909086,
                "end_time": 53.51590909090909,
                "pitch": 55,
                "velocity": 127,
                "duration": 0.5500000000000043,
                "tempo": 120.0
            },
            {
                "start_time": 53.48181818181818,
                "end_time": 53.51590909090909,
                "pitch": 55,
                "velocity": 127,
                "duration": 0.03409090909091361,
                "tempo": 120.0
            },
            {
                "start_time": 53.51590909090909,
                "end_time": 53.53181818181818,
                "pitch": 57,
                "velocity": 127,
                "duration": 0.01590909090909065,
                "tempo": 120.0
            },
            {
                "start_time": 53.53181818181818,
                "end_time": 53.599999999999994,
                "pitch": 57,
                "velocity": 127,
                "duration": 0.06818181818181301,
                "tempo": 120.0
            },
            {
                "start_time": 53.599999999999994,
                "end_time": 53.615909090909085,
                "pitch": 55,
                "velocity": 127,
                "duration": 0.01590909090909065,
                "tempo": 120.0
            },
            {
                "start_time": 53.615909090909085,
                "end_time": 53.63181818181818,
                "pitch": 55,
                "velocity": 127,
                "duration": 0.015909090909097756,
                "tempo": 120.0
            },
            {
                "start_time": 53.48181818181818,
                "end_time": 53.63181818181818,
                "pitch": 67,
                "velocity": 127,
                "duration": 0.15000000000000568,
                "tempo": 120.0
            },
            {
                "start_time": 53.63181818181818,
                "end_time": 53.68181818181818,
                "pitch": 54,
                "velocity": 127,
                "duration": 0.04999999999999716,
                "tempo": 120.0
            },
            {
                "start_time": 53.68181818181818,
                "end_time": 53.73181818181818,
                "pitch": 52,
                "velocity": 127,
                "duration": 0.04999999999999716,
                "tempo": 120.0
            },
            {
                "start_time": 53.73181818181818,
                "end_time": 53.76590909090909,
                "pitch": 49,
                "velocity": 127,
                "duration": 0.03409090909091361,
                "tempo": 120.0
            },
            {
                "start_time": 53.76590909090909,
                "end_time": 53.78181818181818,
                "pitch": 53,
                "velocity": 127,
                "duration": 0.01590909090909065,
                "tempo": 120.0
            },
            {
                "start_time": 53.78409090909091,
                "end_time": 53.83181818181818,
                "pitch": 53,
                "velocity": 127,
                "duration": 0.04772727272727195,
                "tempo": 120.0
            },
            {
                "start_time": 53.83181818181818,
                "end_time": 53.849999999999994,
                "pitch": 50,
                "velocity": 127,
                "duration": 0.018181818181815856,
                "tempo": 120.0
            },
            {
                "start_time": 53.849999999999994,
                "end_time": 53.865909090909085,
                "pitch": 41,
                "velocity": 101,
                "duration": 0.01590909090909065,
                "tempo": 120.0
            },
            {
                "start_time": 53.865909090909085,
                "end_time": 53.91590909090909,
                "pitch": 41,
                "velocity": 101,
                "duration": 0.05000000000000426,
                "tempo": 120.0
            },
            {
                "start_time": 53.91590909090909,
                "end_time": 53.965909090909086,
                "pitch": 38,
                "velocity": 101,
                "duration": 0.04999999999999716,
                "tempo": 120.0
            },
            {
                "start_time": 53.965909090909086,
                "end_time": 54.0,
                "pitch": 36,
                "velocity": 101,
                "duration": 0.03409090909091361,
                "tempo": 120.0
            },
            {
                "start_time": 54.0,
                "end_time": 54.01590909090909,
                "pitch": 33,
                "velocity": 101,
                "duration": 0.01590909090909065,
                "tempo": 120.0
            },
            {
                "start_time": 54.01590909090909,
                "end_time": 54.06590909090909,
                "pitch": 41,
                "velocity": 101,
                "duration": 0.04999999999999716,
                "tempo": 120.0
            },
            {
                "start_time": 54.06590909090909,
                "end_time": 54.099999999999994,
                "pitch": 38,
                "velocity": 101,
                "duration": 0.03409090909090651,
                "tempo": 120.0
            },
            {
                "start_time": 54.099999999999994,
                "end_time": 54.115909090909085,
                "pitch": 41,
                "velocity": 101,
                "duration": 0.01590909090909065,
                "tempo": 120.0
            },
            {
                "start_time": 54.115909090909085,
                "end_time": 54.16590909090909,
                "pitch": 41,
                "velocity": 101,
                "duration": 0.05000000000000426,
                "tempo": 120.0
            },
            {
                "start_time": 54.16590909090909,
                "end_time": 54.215909090909086,
                "pitch": 38,
                "velocity": 101,
                "duration": 0.04999999999999716,
                "tempo": 120.0
            },
            {
                "start_time": 54.215909090909086,
                "end_time": 54.25,
                "pitch": 36,
                "velocity": 101,
                "duration": 0.03409090909091361,
                "tempo": 120.0
            },
            {
                "start_time": 54.25,
                "end_time": 54.26590909090909,
                "pitch": 33,
                "velocity": 101,
                "duration": 0.01590909090909065,
                "tempo": 120.0
            },
            {
                "start_time": 54.26590909090909,
                "end_time": 54.31590909090909,
                "pitch": 41,
                "velocity": 101,
                "duration": 0.04999999999999716,
                "tempo": 120.0
            },
            {
                "start_time": 54.31590909090909,
                "end_time": 54.349999999999994,
                "pitch": 38,
                "velocity": 101,
                "duration": 0.03409090909090651,
                "tempo": 120.0
            }
        ],
        "Violin": [
            {
                "start_time": 0.45909090909090905,
                "end_time": 0.5068181818181818,
                "pitch": 103,
                "velocity": 64,
                "duration": 0.047727272727272785,
                "tempo": 120.0
            },
            {
                "start_time": 0.5068181818181818,
                "end_time": 1.2204545454545455,
                "pitch": 103,
                "velocity": 64,
                "duration": 0.7136363636363636,
                "tempo": 120.0
            },
            {
                "start_time": 1.2204545454545455,
                "end_time": 1.8727272727272726,
                "pitch": 101,
                "velocity": 64,
                "duration": 0.6522727272727271,
                "tempo": 120.0
            },
            {
                "start_time": 1.8727272727272726,
                "end_time": 2.425,
                "pitch": 99,
                "velocity": 64,
                "duration": 0.5522727272727272,
                "tempo": 120.0
            },
            {
                "start_time": 2.425,
                "end_time": 2.9272727272727272,
                "pitch": 97,
                "velocity": 64,
                "duration": 0.5022727272727274,
                "tempo": 120.0
            },
            {
                "start_time": 2.9272727272727272,
                "end_time": 3.377272727272727,
                "pitch": 95,
                "velocity": 64,
                "duration": 0.44999999999999973,
                "tempo": 120.0
            },
            {
                "start_time": 3.377272727272727,
                "end_time": 3.7795454545454543,
                "pitch": 93,
                "velocity": 64,
                "duration": 0.40227272727272734,
                "tempo": 120.0
            },
            {
                "start_time": 3.7795454545454543,
                "end_time": 4.129545454545454,
                "pitch": 91,
                "velocity": 64,
                "duration": 0.34999999999999964,
                "tempo": 120.0
            },
            {
                "start_time": 4.129545454545454,
                "end_time": 4.4795454545454545,
                "pitch": 88,
                "velocity": 64,
                "duration": 0.35000000000000053,
                "tempo": 120.0
            },
            {
                "start_time": 4.4795454545454545,
                "end_time": 4.7318181818181815,
                "pitch": 92,
                "velocity": 64,
                "duration": 0.252272727272727,
                "tempo": 120.0
            },
            {
                "start_time": 4.7318181818181815,
                "end_time": 4.988636363636363,
                "pitch": 94,
                "velocity": 64,
                "duration": 0.25681818181818183,
                "tempo": 120.0
            },
            {
                "start_time": 4.988636363636363,
                "end_time": 5.243181818181818,
                "pitch": 92,
                "velocity": 64,
                "duration": 0.25454545454545485,
                "tempo": 120.0
            },
            {
                "start_time": 5.243181818181818,
                "end_time": 5.493181818181818,
                "pitch": 91,
                "velocity": 64,
                "duration": 0.25,
                "tempo": 120.0
            },
            {
                "start_time": 5.495454545454545,
                "end_time": 6.495454545454545,
                "pitch": 90,
                "velocity": 64,
                "duration": 1.0,
                "tempo": 120.0
            },
            {
                "start_time": 6.745454545454545,
                "end_time": 6.995454545454545,
                "pitch": 91,
                "velocity": 64,
                "duration": 0.25,
                "tempo": 120.0
            },
            {
                "start_time": 6.995454545454545,
                "end_time": 7.245454545454545,
                "pitch": 103,
                "velocity": 64,
                "duration": 0.25,
                "tempo": 120.0
            },
            {
                "start_time": 7.497727272727272,
                "end_time": 7.747727272727272,
                "pitch": 91,
                "velocity": 64,
                "duration": 0.25,
                "tempo": 120.0
            },
            {
                "start_time": 7.747727272727272,
                "end_time": 7.997727272727272,
                "pitch": 103,
                "velocity": 64,
                "duration": 0.25,
                "tempo": 120.0
            },
            {
                "start_time": 8.247727272727273,
                "end_time": 8.5,
                "pitch": 91,
                "velocity": 64,
                "duration": 0.252272727272727,
                "tempo": 120.0
            },
            {
                "start_time": 8.5,
                "end_time": 8.752272727272727,
                "pitch": 103,
                "velocity": 64,
                "duration": 0.252272727272727,
                "tempo": 120.0
            },
            {
                "start_time": 9.002272727272727,
                "end_time": 9.252272727272727,
                "pitch": 91,
                "velocity": 64,
                "duration": 0.25,
                "tempo": 120.0
            },
            {
                "start_time": 9.252272727272727,
                "end_time": 9.502272727272727,
                "pitch": 103,
                "velocity": 64,
                "duration": 0.25,
                "tempo": 120.0
            },
            {
                "start_time": 10.754545454545454,
                "end_time": 11.004545454545454,
                "pitch": 91,
                "velocity": 64,
                "duration": 0.25,
                "tempo": 120.0
            },
            {
                "start_time": 11.004545454545454,
                "end_time": 11.254545454545454,
                "pitch": 103,
                "velocity": 64,
                "duration": 0.25,
                "tempo": 120.0
            },
            {
                "start_time": 11.506818181818181,
                "end_time": 11.756818181818181,
                "pitch": 91,
                "velocity": 64,
                "duration": 0.25,
                "tempo": 120.0
            },
            {
                "start_time": 11.756818181818181,
                "end_time": 12.013636363636364,
                "pitch": 103,
                "velocity": 64,
                "duration": 0.2568181818181827,
                "tempo": 120.0
            },
            {
                "start_time": 12.270454545454545,
                "end_time": 12.520454545454545,
                "pitch": 91,
                "velocity": 64,
                "duration": 0.25,
                "tempo": 120.0
            },
            {
                "start_time": 12.520454545454545,
                "end_time": 12.770454545454545,
                "pitch": 103,
                "velocity": 64,
                "duration": 0.25,
                "tempo": 120.0
            },
            {
                "start_time": 13.020454545454545,
                "end_time": 13.270454545454545,
                "pitch": 91,
                "velocity": 64,
                "duration": 0.25,
                "tempo": 120.0
            },
            {
                "start_time": 13.270454545454545,
                "end_time": 13.520454545454545,
                "pitch": 103,
                "velocity": 64,
                "duration": 0.25,
                "tempo": 120.0
            },
            {
                "start_time": 14.522727272727272,
                "end_time": 14.772727272727272,
                "pitch": 79,
                "velocity": 80,
                "duration": 0.25,
                "tempo": 120.0
            },
            {
                "start_time": 14.772727272727272,
                "end_time": 15.022727272727272,
                "pitch": 91,
                "velocity": 80,
                "duration": 0.25,
                "tempo": 120.0
            },
            {
                "start_time": 15.022727272727272,
                "end_time": 15.272727272727272,
                "pitch": 79,
                "velocity": 80,
                "duration": 0.25,
                "tempo": 120.0
            },
            {
                "start_time": 15.274999999999999,
                "end_time": 15.522727272727272,
                "pitch": 91,
                "velocity": 80,
                "duration": 0.24772727272727302,
                "tempo": 120.0
            },
            {
                "start_time": 15.69090909090909,
                "end_time": 15.774999999999999,
                "pitch": 91,
                "velocity": 80,
                "duration": 0.084090909090909,
                "tempo": 120.0
            },
            {
                "start_time": 15.774999999999999,
                "end_time": 15.94090909090909,
                "pitch": 94,
                "velocity": 80,
                "duration": 0.165909090909091,
                "tempo": 120.0
            },
            {
                "start_time": 15.94090909090909,
                "end_time": 16.025,
                "pitch": 96,
                "velocity": 80,
                "duration": 0.084090909090909,
                "tempo": 120.0
            },
            {
                "start_time": 16.025,
                "end_time": 16.275,
                "pitch": 97,
                "velocity": 80,
                "duration": 0.25,
                "tempo": 120.0
            },
            {
                "start_time": 16.275,
                "end_time": 16.44090909090909,
                "pitch": 96,
                "velocity": 80,
                "duration": 0.16590909090909278,
                "tempo": 120.0
            },
            {
                "start_time": 16.44090909090909,
                "end_time": 16.525,
                "pitch": 94,
                "velocity": 80,
                "duration": 0.08409090909090722,
                "tempo": 120.0
            },
            {
                "start_time": 16.525,
                "end_time": 16.775,
                "pitch": 89,
                "velocity": 80,
                "duration": 0.25,
                "tempo": 120.0
            },
            {
                "start_time": 16.775,
                "end_time": 17.025,
                "pitch": 91,
                "velocity": 80,
                "duration": 0.25,
                "tempo": 120.0
            },
            {
                "start_time": 18.527272727272727,
                "end_time": 18.777272727272727,
                "pitch": 79,
                "velocity": 80,
                "duration": 0.25,
                "tempo": 120.0
            },
            {
                "start_time": 18.777272727272727,
                "end_time": 19.027272727272727,
                "pitch": 91,
                "velocity": 80,
                "duration": 0.25,
                "tempo": 120.0
            },
            {
                "start_time": 19.029545454545453,
                "end_time": 19.279545454545453,
                "pitch": 79,
                "velocity": 80,
                "duration": 0.25,
                "tempo": 120.0
            },
            {
                "start_time": 19.279545454545453,
                "end_time": 19.529545454545453,
                "pitch": 91,
                "velocity": 80,
                "duration": 0.25,
                "tempo": 120.0
            },
            {
                "start_time": 19.695454545454545,
                "end_time": 19.779545454545453,
                "pitch": 91,
                "velocity": 80,
                "duration": 0.08409090909090722,
                "tempo": 120.0
            },
            {
                "start_time": 19.779545454545453,
                "end_time": 19.952272727272728,
                "pitch": 94,
                "velocity": 80,
                "duration": 0.1727272727272755,
                "tempo": 120.0
            },
            {
                "start_time": 19.952272727272728,
                "end_time": 20.036363636363635,
                "pitch": 96,
                "velocity": 80,
                "duration": 0.08409090909090722,
                "tempo": 120.0
            },
            {
                "start_time": 20.036363636363635,
                "end_time": 20.293181818181818,
                "pitch": 97,
                "velocity": 80,
                "duration": 0.2568181818181827,
                "tempo": 120.0
            },
            {
                "start_time": 20.293181818181818,
                "end_time": 20.459090909090907,
                "pitch": 96,
                "velocity": 80,
                "duration": 0.16590909090908923,
                "tempo": 120.0
            },
            {
                "start_time": 20.459090909090907,
                "end_time": 20.543181818181818,
                "pitch": 89,
                "velocity": 80,
                "duration": 0.08409090909091077,
                "tempo": 120.0
            },
            {
                "start_time": 20.543181818181818,
                "end_time": 20.84318181818182,
                "pitch": 91,
                "velocity": 80,
                "duration": 0.3000000000000007,
                "tempo": 120.0
            },
            {
                "start_time": 20.84318181818182,
                "end_time": 20.85909090909091,
                "pitch": 91,
                "velocity": 80,
                "duration": 0.01590909090909065,
                "tempo": 120.0
            },
            {
                "start_time": 20.84318181818182,
                "end_time": 20.85909090909091,
                "pitch": 103,
                "velocity": 80,
                "duration": 0.01590909090909065,
                "tempo": 120.0
            },
            {
                "start_time": 20.85909090909091,
                "end_time": 20.893181818181816,
                "pitch": 91,
                "velocity": 80,
                "duration": 0.03409090909090651,
                "tempo": 120.0
            },
            {
                "start_time": 20.85909090909091,
                "end_time": 20.893181818181816,
                "pitch": 103,
                "velocity": 80,
                "duration": 0.03409090909090651,
                "tempo": 120.0
            },
            {
                "start_time": 20.893181818181816,
                "end_time": 20.909090909090907,
                "pitch": 91,
                "velocity": 80,
                "duration": 0.01590909090909065,
                "tempo": 120.0
            },
            {
                "start_time": 20.909090909090907,
                "end_time": 20.943181818181817,
                "pitch": 91,
                "velocity": 80,
                "duration": 0.03409090909091006,
                "tempo": 120.0
            },
            {
                "start_time": 20.893181818181816,
                "end_time": 20.943181818181817,
                "pitch": 103,
                "velocity": 80,
                "duration": 0.05000000000000071,
                "tempo": 120.0
            },
            {
                "start_time": 20.943181818181817,
                "end_time": 21.09318181818182,
                "pitch": 91,
                "velocity": 80,
                "duration": 0.15000000000000213,
                "tempo": 120.0
            },
            {
                "start_time": 20.943181818181817,
                "end_time": 21.09318181818182,
                "pitch": 103,
                "velocity": 80,
                "duration": 0.15000000000000213,
                "tempo": 120.0
            },
            {
                "start_time": 21.09318181818182,
                "end_time": 21.545454545454543,
                "pitch": 90,
                "velocity": 80,
                "duration": 0.4522727272727245,
                "tempo": 120.0
            },
            {
                "start_time": 21.09318181818182,
                "end_time": 21.627272727272725,
                "pitch": 91,
                "velocity": 80,
                "duration": 0.5340909090909065,
                "tempo": 120.0
            },
            {
                "start_time": 21.545454545454543,
                "end_time": 21.627272727272725,
                "pitch": 91,
                "velocity": 80,
                "duration": 0.08181818181818201,
                "tempo": 120.0
            },
            {
                "start_time": 21.627272727272725,
                "end_time": 21.711363636363636,
                "pitch": 89,
                "velocity": 80,
                "duration": 0.08409090909091077,
                "tempo": 120.0
            },
            {
                "start_time": 21.711363636363636,
                "end_time": 21.795454545454543,
                "pitch": 86,
                "velocity": 80,
                "duration": 0.08409090909090722,
                "tempo": 120.0
            },
            {
                "start_time": 21.795454545454543,
                "end_time": 21.877272727272725,
                "pitch": 89,
                "velocity": 80,
                "duration": 0.08181818181818201,
                "tempo": 120.0
            },
            {
                "start_time": 21.877272727272725,
                "end_time": 21.961363636363636,
                "pitch": 88,
                "velocity": 80,
                "duration": 0.08409090909091077,
                "tempo": 120.0
            },
            {
                "start_time": 21.961363636363636,
                "end_time": 22.045454545454543,
                "pitch": 84,
                "velocity": 80,
                "duration": 0.08409090909090722,
                "tempo": 120.0
            },
            {
                "start_time": 22.045454545454543,
                "end_time": 22.127272727272725,
                "pitch": 87,
                "velocity": 80,
                "duration": 0.08181818181818201,
                "tempo": 120.0
            },
            {
                "start_time": 22.129545454545454,
                "end_time": 22.211363636363636,
                "pitch": 86,
                "velocity": 80,
                "duration": 0.08181818181818201,
                "tempo": 120.0
            },
            {
                "start_time": 22.211363636363636,
                "end_time": 22.295454545454543,
                "pitch": 82,
                "velocity": 80,
                "duration": 0.08409090909090722,
                "tempo": 120.0
            },
            {
                "start_time": 22.295454545454543,
                "end_time": 22.545454545454543,
                "pitch": 84,
                "velocity": 80,
                "duration": 0.25,
                "tempo": 120.0
            },
            {
                "start_time": 26.552272727272726,
                "end_time": 26.634090909090908,
                "pitch": 91,
                "velocity": 80,
                "duration": 0.08181818181818201,
                "tempo": 120.0
            },
            {
                "start_time": 26.634090909090908,
                "end_time": 26.718181818181815,
                "pitch": 90,
                "velocity": 80,
                "duration": 0.08409090909090722,
                "tempo": 120.0
            },
            {
                "start_time": 26.718181818181815,
                "end_time": 26.799999999999997,
                "pitch": 86,
                "velocity": 80,
                "duration": 0.08181818181818201,
                "tempo": 120.0
            },
            {
                "start_time": 26.802272727272726,
                "end_time": 26.884090909090908,
                "pitch": 89,
                "velocity": 80,
                "duration": 0.08181818181818201,
                "tempo": 120.0
            },
            {
                "start_time": 26.884090909090908,
                "end_time": 26.968181818181815,
                "pitch": 88,
                "velocity": 80,
                "duration": 0.08409090909090722,
                "tempo": 120.0
            },
            {
                "start_time": 26.968181818181815,
                "end_time": 27.052272727272726,
                "pitch": 84,
                "velocity": 80,
                "duration": 0.08409090909091077,
                "tempo": 120.0
            },
            {
                "start_time": 27.052272727272726,
                "end_time": 27.134090909090908,
                "pitch": 87,
                "velocity": 80,
                "duration": 0.08181818181818201,
                "tempo": 120.0
            },
            {
                "start_time": 27.134090909090908,
                "end_time": 27.218181818181815,
                "pitch": 86,
                "velocity": 80,
                "duration": 0.08409090909090722,
                "tempo": 120.0
            },
            {
                "start_time": 27.218181818181815,
                "end_time": 27.302272727272726,
                "pitch": 82,
                "velocity": 80,
                "duration": 0.08409090909091077,
                "tempo": 120.0
            },
            {
                "start_time": 27.302272727272726,
                "end_time": 27.384090909090908,
                "pitch": 84,
                "velocity": 80,
                "duration": 0.08181818181818201,
                "tempo": 120.0
            },
            {
                "start_time": 27.386363636363637,
                "end_time": 27.468181818181815,
                "pitch": 86,
                "velocity": 80,
                "duration": 0.08181818181817846,
                "tempo": 120.0
            },
            {
                "start_time": 27.468181818181815,
                "end_time": 27.552272727272726,
                "pitch": 84,
                "velocity": 80,
                "duration": 0.08409090909091077,
                "tempo": 120.0
            },
            {
                "start_time": 27.552272727272726,
                "end_time": 27.636363636363637,
                "pitch": 89,
                "velocity": 80,
                "duration": 0.08409090909091077,
                "tempo": 120.0
            },
            {
                "start_time": 27.636363636363637,
                "end_time": 27.718181818181815,
                "pitch": 88,
                "velocity": 80,
                "duration": 0.08181818181817846,
                "tempo": 120.0
            },
            {
                "start_time": 27.718181818181815,
                "end_time": 27.802272727272726,
                "pitch": 84,
                "velocity": 80,
                "duration": 0.08409090909091077,
                "tempo": 120.0
            },
            {
                "start_time": 27.804545454545455,
                "end_time": 27.888636363636362,
                "pitch": 87,
                "velocity": 80,
                "duration": 0.08409090909090722,
                "tempo": 120.0
            },
            {
                "start_time": 27.888636363636362,
                "end_time": 27.974999999999998,
                "pitch": 86,
                "velocity": 80,
                "duration": 0.08636363636363598,
                "tempo": 120.0
            },
            {
                "start_time": 27.974999999999998,
                "end_time": 28.05909090909091,
                "pitch": 82,
                "velocity": 80,
                "duration": 0.08409090909091077,
                "tempo": 120.0
            },
            {
                "start_time": 28.061363636363634,
                "end_time": 28.145454545454545,
                "pitch": 85,
                "velocity": 80,
                "duration": 0.08409090909091077,
                "tempo": 120.0
            },
            {
                "start_time": 28.145454545454545,
                "end_time": 28.23181818181818,
                "pitch": 84,
                "velocity": 80,
                "duration": 0.08636363636363598,
                "tempo": 120.0
            },
            {
                "start_time": 28.23181818181818,
                "end_time": 28.315909090909088,
                "pitch": 80,
                "velocity": 80,
                "duration": 0.08409090909090722,
                "tempo": 120.0
            },
            {
                "start_time": 28.315909090909088,
                "end_time": 28.4,
                "pitch": 82,
                "velocity": 80,
                "duration": 0.08409090909091077,
                "tempo": 120.0
            },
            {
                "start_time": 28.4,
                "end_time": 28.48181818181818,
                "pitch": 84,
                "velocity": 80,
                "duration": 0.08181818181818201,
                "tempo": 120.0
            },
            {
                "start_time": 28.48181818181818,
                "end_time": 28.565909090909088,
                "pitch": 82,
                "velocity": 80,
                "duration": 0.08409090909090722,
                "tempo": 120.0
            },
            {
                "start_time": 28.565909090909088,
                "end_time": 28.65,
                "pitch": 79,
                "velocity": 80,
                "duration": 0.08409090909091077,
                "tempo": 120.0
            },
            {
                "start_time": 28.65,
                "end_time": 28.73181818181818,
                "pitch": 78,
                "velocity": 80,
                "duration": 0.08181818181818201,
                "tempo": 120.0
            },
            {
                "start_time": 28.73409090909091,
                "end_time": 28.815909090909088,
                "pitch": 74,
                "velocity": 80,
                "duration": 0.08181818181817846,
                "tempo": 120.0
            },
            {
                "start_time": 28.815909090909088,
                "end_time": 28.9,
                "pitch": 77,
                "velocity": 80,
                "duration": 0.08409090909091077,
                "tempo": 120.0
            },
            {
                "start_time": 28.9,
                "end_time": 28.98409090909091,
                "pitch": 76,
                "velocity": 80,
                "duration": 0.08409090909091077,
                "tempo": 120.0
            },
            {
                "start_time": 28.98409090909091,
                "end_time": 29.065909090909088,
                "pitch": 72,
                "velocity": 80,
                "duration": 0.08181818181817846,
                "tempo": 120.0
            },
            {
                "start_time": 29.065909090909088,
                "end_time": 29.15,
                "pitch": 75,
                "velocity": 80,
                "duration": 0.08409090909091077,
                "tempo": 120.0
            },
            {
                "start_time": 29.15,
                "end_time": 29.23409090909091,
                "pitch": 74,
                "velocity": 80,
                "duration": 0.08409090909091077,
                "tempo": 120.0
            },
            {
                "start_time": 29.23409090909091,
                "end_time": 29.315909090909088,
                "pitch": 70,
                "velocity": 80,
                "duration": 0.08181818181817846,
                "tempo": 120.0
            },
            {
                "start_time": 29.318181818181817,
                "end_time": 29.4,
                "pitch": 72,
                "velocity": 80,
                "duration": 0.08181818181818201,
                "tempo": 120.0
            },
            {
                "start_time": 29.4,
                "end_time": 29.48409090909091,
                "pitch": 74,
                "velocity": 80,
                "duration": 0.08409090909091077,
                "tempo": 120.0
            },
            {
                "start_time": 29.48409090909091,
                "end_time": 29.568181818181817,
                "pitch": 72,
                "velocity": 80,
                "duration": 0.08409090909090722,
                "tempo": 120.0
            },
            {
                "start_time": 29.568181818181817,
                "end_time": 29.65,
                "pitch": 77,
                "velocity": 80,
                "duration": 0.08181818181818201,
                "tempo": 120.0
            },
            {
                "start_time": 29.65,
                "end_time": 29.73409090909091,
                "pitch": 76,
                "velocity": 80,
                "duration": 0.08409090909091077,
                "tempo": 120.0
            },
            {
                "start_time": 29.73409090909091,
                "end_time": 29.818181818181817,
                "pitch": 72,
                "velocity": 80,
                "duration": 0.08409090909090722,
                "tempo": 120.0
            },
            {
                "start_time": 29.818181818181817,
                "end_time": 29.9,
                "pitch": 75,
                "velocity": 80,
                "duration": 0.08181818181818201,
                "tempo": 120.0
            },
            {
                "start_time": 29.902272727272727,
                "end_time": 29.98409090909091,
                "pitch": 74,
                "velocity": 80,
                "duration": 0.08181818181818201,
                "tempo": 120.0
            },
            {
                "start_time": 29.98409090909091,
                "end_time": 30.068181818181817,
                "pitch": 70,
                "velocity": 80,
                "duration": 0.08409090909090722,
                "tempo": 120.0
            },
            {
                "start_time": 30.068181818181817,
                "end_time": 30.152272727272727,
                "pitch": 73,
                "velocity": 80,
                "duration": 0.08409090909091077,
                "tempo": 120.0
            },
            {
                "start_time": 30.152272727272727,
                "end_time": 30.23409090909091,
                "pitch": 72,
                "velocity": 80,
                "duration": 0.08181818181818201,
                "tempo": 120.0
            },
            {
                "start_time": 30.23409090909091,
                "end_time": 30.318181818181817,
                "pitch": 68,
                "velocity": 80,
                "duration": 0.08409090909090722,
                "tempo": 120.0
            },
            {
                "start_time": 30.318181818181817,
                "end_time": 30.402272727272727,
                "pitch": 70,
                "velocity": 80,
                "duration": 0.08409090909091077,
                "tempo": 120.0
            },
            {
                "start_time": 30.402272727272727,
                "end_time": 30.48409090909091,
                "pitch": 72,
                "velocity": 80,
                "duration": 0.08181818181818201,
                "tempo": 120.0
            },
            {
                "start_time": 30.486363636363635,
                "end_time": 30.568181818181817,
                "pitch": 70,
                "velocity": 80,
                "duration": 0.08181818181818201,
                "tempo": 120.0
            },
            {
                "start_time": 30.568181818181817,
                "end_time": 30.686363636363634,
                "pitch": 67,
                "velocity": 80,
                "duration": 0.11818181818181728,
                "tempo": 120.0
            },
            {
                "start_time": 30.736363636363635,
                "end_time": 30.802272727272726,
                "pitch": 69,
                "velocity": 80,
                "duration": 0.06590909090909136,
                "tempo": 120.0
            },
            {
                "start_time": 30.818181818181817,
                "end_time": 30.936363636363634,
                "pitch": 69,
                "velocity": 80,
                "duration": 0.11818181818181728,
                "tempo": 120.0
            },
            {
                "start_time": 30.986363636363635,
                "end_time": 31.052272727272726,
                "pitch": 67,
                "velocity": 80,
                "duration": 0.06590909090909136,
                "tempo": 120.0
            },
            {
                "start_time": 31.070454545454545,
                "end_time": 31.186363636363634,
                "pitch": 68,
                "velocity": 80,
                "duration": 0.11590909090908852,
                "tempo": 120.0
            },
            {
                "start_time": 31.236363636363635,
                "end_time": 31.302272727272726,
                "pitch": 70,
                "velocity": 80,
                "duration": 0.06590909090909136,
                "tempo": 120.0
            },
            {
                "start_time": 31.320454545454545,
                "end_time": 31.436363636363634,
                "pitch": 70,
                "velocity": 80,
                "duration": 0.11590909090908852,
                "tempo": 120.0
            },
            {
                "start_time": 31.486363636363635,
                "end_time": 31.552272727272726,
                "pitch": 68,
                "velocity": 80,
                "duration": 0.06590909090909136,
                "tempo": 120.0
            },
            {
                "start_time": 31.570454545454545,
                "end_time": 31.686363636363634,
                "pitch": 69,
                "velocity": 80,
                "duration": 0.11590909090908852,
                "tempo": 120.0
            },
            {
                "start_time": 31.736363636363635,
                "end_time": 31.804545454545455,
                "pitch": 71,
                "velocity": 80,
                "duration": 0.06818181818182012,
                "tempo": 120.0
            },
            {
                "start_time": 31.820454545454545,
                "end_time": 31.936363636363634,
                "pitch": 71,
                "velocity": 80,
                "duration": 0.11590909090908852,
                "tempo": 120.0
            },
            {
                "start_time": 31.986363636363635,
                "end_time": 32.054545454545455,
                "pitch": 69,
                "velocity": 80,
                "duration": 0.06818181818182012,
                "tempo": 120.0
            },
            {
                "start_time": 32.070454545454545,
                "end_time": 32.18863636363636,
                "pitch": 70,
                "velocity": 80,
                "duration": 0.11818181818181728,
                "tempo": 120.0
            },
            {
                "start_time": 32.23863636363636,
                "end_time": 32.304545454545455,
                "pitch": 72,
                "velocity": 80,
                "duration": 0.06590909090909491,
                "tempo": 120.0
            },
            {
                "start_time": 32.320454545454545,
                "end_time": 32.43863636363636,
                "pitch": 72,
                "velocity": 80,
                "duration": 0.11818181818181728,
                "tempo": 120.0
            },
            {
                "start_time": 32.49090909090909,
                "end_time": 32.55681818181818,
                "pitch": 70,
                "velocity": 80,
                "duration": 0.06590909090908781,
                "tempo": 120.0
            },
            {
                "start_time": 32.574999999999996,
                "end_time": 32.65681818181818,
                "pitch": 71,
                "velocity": 80,
                "duration": 0.08181818181818556,
                "tempo": 120.0
            },
            {
                "start_time": 32.74318181818182,
                "end_time": 32.793181818181814,
                "pitch": 73,
                "velocity": 80,
                "duration": 0.04999999999999716,
                "tempo": 120.0
            },
            {
                "start_time": 32.824999999999996,
                "end_time": 32.90909090909091,
                "pitch": 73,
                "velocity": 80,
                "duration": 0.08409090909091077,
                "tempo": 120.0
            },
            {
                "start_time": 32.99318181818182,
                "end_time": 33.043181818181814,
                "pitch": 71,
                "velocity": 80,
                "duration": 0.04999999999999716,
                "tempo": 120.0
            },
            {
                "start_time": 33.07727272727273,
                "end_time": 33.15909090909091,
                "pitch": 72,
                "velocity": 80,
                "duration": 0.08181818181817846,
                "tempo": 120.0
            },
            {
                "start_time": 33.24318181818182,
                "end_time": 33.293181818181814,
                "pitch": 74,
                "velocity": 80,
                "duration": 0.04999999999999716,
                "tempo": 120.0
            },
            {
                "start_time": 33.32727272727273,
                "end_time": 33.40909090909091,
                "pitch": 74,
                "velocity": 80,
                "duration": 0.08181818181817846,
                "tempo": 120.0
            },
            {
                "start_time": 33.49318181818182,
                "end_time": 33.543181818181814,
                "pitch": 72,
                "velocity": 80,
                "duration": 0.04999999999999716,
                "tempo": 120.0
            },
            {
                "start_time": 33.57727272727273,
                "end_time": 33.65909090909091,
                "pitch": 73,
                "velocity": 80,
                "duration": 0.08181818181817846,
                "tempo": 120.0
            },
            {
                "start_time": 33.74318181818182,
                "end_time": 33.793181818181814,
                "pitch": 75,
                "velocity": 80,
                "duration": 0.04999999999999716,
                "tempo": 120.0
            },
            {
                "start_time": 33.82727272727273,
                "end_time": 33.91136363636363,
                "pitch": 75,
                "velocity": 80,
                "duration": 0.08409090909090366,
                "tempo": 120.0
            },
            {
                "start_time": 33.99318181818182,
                "end_time": 34.043181818181814,
                "pitch": 73,
                "velocity": 80,
                "duration": 0.04999999999999716,
                "tempo": 120.0
            },
            {
                "start_time": 34.07727272727273,
                "end_time": 34.16136363636363,
                "pitch": 74,
                "velocity": 80,
                "duration": 0.08409090909090366,
                "tempo": 120.0
            },
            {
                "start_time": 34.24545454545454,
                "end_time": 34.293181818181814,
                "pitch": 76,
                "velocity": 80,
                "duration": 0.04772727272727195,
                "tempo": 120.0
            },
            {
                "start_time": 34.32727272727273,
                "end_time": 34.41136363636363,
                "pitch": 76,
                "velocity": 80,
                "duration": 0.08409090909090366,
                "tempo": 120.0
            },
            {
                "start_time": 34.49545454545454,
                "end_time": 34.54545454545455,
                "pitch": 74,
                "velocity": 80,
                "duration": 0.05000000000000426,
                "tempo": 120.0
            },
            {
                "start_time": 34.57727272727273,
                "end_time": 34.711363636363636,
                "pitch": 75,
                "velocity": 80,
                "duration": 0.13409090909090793,
                "tempo": 120.0
            },
            {
                "start_time": 36.58863636363636,
                "end_time": 36.720454545454544,
                "pitch": 68,
                "velocity": 80,
                "duration": 0.13181818181818272,
                "tempo": 120.0
            },
            {
                "start_time": 36.836363636363636,
                "end_time": 36.97272727272727,
                "pitch": 70,
                "velocity": 80,
                "duration": 0.13636363636363313,
                "tempo": 120.0
            },
            {
                "start_time": 37.09318181818182,
                "end_time": 37.22954545454545,
                "pitch": 68,
                "velocity": 80,
                "duration": 0.13636363636363313,
                "tempo": 120.0
            },
            {
                "start_time": 37.35,
                "end_time": 37.48181818181818,
                "pitch": 67,
                "velocity": 80,
                "duration": 0.13181818181817562,
                "tempo": 120.0
            },
            {
                "start_time": 37.6,
                "end_time": 38.1,
                "pitch": 66,
                "velocity": 80,
                "duration": 0.5,
                "tempo": 120.0
            },
            {
                "start_time": 38.85,
                "end_time": 39.1,
                "pitch": 91,
                "velocity": 80,
                "duration": 0.25,
                "tempo": 120.0
            },
            {
                "start_time": 21.09318181818182,
                "end_time": 39.35227272727273,
                "pitch": 103,
                "velocity": 80,
                "duration": 18.259090909090908,
                "tempo": 120.0
            },
            {
                "start_time": 39.10227272727273,
                "end_time": 39.35227272727273,
                "pitch": 103,
                "velocity": 80,
                "duration": 0.25,
                "tempo": 120.0
            },
            {
                "start_time": 39.60227272727273,
                "end_time": 39.85227272727273,
                "pitch": 91,
                "velocity": 80,
                "duration": 0.25,
                "tempo": 120.0
            },
            {
                "start_time": 39.85227272727273,
                "end_time": 40.10227272727273,
                "pitch": 103,
                "velocity": 80,
                "duration": 0.25,
                "tempo": 120.0
            },
            {
                "start_time": 40.35227272727273,
                "end_time": 40.60227272727273,
                "pitch": 91,
                "velocity": 80,
                "duration": 0.25,
                "tempo": 120.0
            },
            {
                "start_time": 40.60227272727273,
                "end_time": 40.85227272727273,
                "pitch": 103,
                "velocity": 80,
                "duration": 0.25,
                "tempo": 120.0
            },
            {
                "start_time": 41.10454545454545,
                "end_time": 41.35454545454545,
                "pitch": 91,
                "velocity": 80,
                "duration": 0.25,
                "tempo": 120.0
            },
            {
                "start_time": 41.35454545454545,
                "end_time": 41.60454545454545,
                "pitch": 103,
                "velocity": 80,
                "duration": 0.25,
                "tempo": 120.0
            },
            {
                "start_time": 42.85681818181818,
                "end_time": 43.11363636363636,
                "pitch": 91,
                "velocity": 80,
                "duration": 0.2568181818181827,
                "tempo": 120.0
            },
            {
                "start_time": 43.11363636363636,
                "end_time": 43.36818181818182,
                "pitch": 103,
                "velocity": 80,
                "duration": 0.2545454545454575,
                "tempo": 120.0
            },
            {
                "start_time": 43.61363636363636,
                "end_time": 43.861363636363635,
                "pitch": 91,
                "velocity": 80,
                "duration": 0.2477272727272748,
                "tempo": 120.0
            },
            {
                "start_time": 43.86363636363636,
                "end_time": 44.11818181818182,
                "pitch": 103,
                "velocity": 80,
                "duration": 0.2545454545454575,
                "tempo": 120.0
            },
            {
                "start_time": 44.375,
                "end_time": 44.625,
                "pitch": 91,
                "velocity": 80,
                "duration": 0.25,
                "tempo": 120.0
            },
            {
                "start_time": 44.625,
                "end_time": 44.875,
                "pitch": 103,
                "velocity": 80,
                "duration": 0.25,
                "tempo": 120.0
            },
            {
                "start_time": 45.125,
                "end_time": 45.375,
                "pitch": 91,
                "velocity": 80,
                "duration": 0.25,
                "tempo": 120.0
            },
            {
                "start_time": 45.377272727272725,
                "end_time": 45.627272727272725,
                "pitch": 103,
                "velocity": 80,
                "duration": 0.25,
                "tempo": 120.0
            },
            {
                "start_time": 46.627272727272725,
                "end_time": 46.877272727272725,
                "pitch": 79,
                "velocity": 80,
                "duration": 0.25,
                "tempo": 120.0
            },
            {
                "start_time": 46.877272727272725,
                "end_time": 47.127272727272725,
                "pitch": 91,
                "velocity": 80,
                "duration": 0.25,
                "tempo": 120.0
            },
            {
                "start_time": 47.12954545454545,
                "end_time": 47.37954545454545,
                "pitch": 79,
                "velocity": 80,
                "duration": 0.25,
                "tempo": 120.0
            },
            {
                "start_time": 47.37954545454545,
                "end_time": 47.62954545454545,
                "pitch": 91,
                "velocity": 80,
                "duration": 0.25,
                "tempo": 120.0
            },
            {
                "start_time": 47.79545454545454,
                "end_time": 47.87954545454545,
                "pitch": 91,
                "velocity": 80,
                "duration": 0.08409090909091077,
                "tempo": 120.0
            },
            {
                "start_time": 47.87954545454545,
                "end_time": 48.04545454545454,
                "pitch": 94,
                "velocity": 80,
                "duration": 0.16590909090908923,
                "tempo": 120.0
            },
            {
                "start_time": 48.04545454545454,
                "end_time": 48.12954545454545,
                "pitch": 96,
                "velocity": 80,
                "duration": 0.08409090909091077,
                "tempo": 120.0
            },
            {
                "start_time": 48.12954545454545,
                "end_time": 48.37954545454545,
                "pitch": 97,
                "velocity": 80,
                "duration": 0.25,
                "tempo": 120.0
            },
            {
                "start_time": 48.37954545454545,
                "end_time": 48.54772727272727,
                "pitch": 96,
                "velocity": 80,
                "duration": 0.16818181818182154,
                "tempo": 120.0
            },
            {
                "start_time": 48.54772727272727,
                "end_time": 48.62954545454545,
                "pitch": 94,
                "velocity": 80,
                "duration": 0.08181818181817846,
                "tempo": 120.0
            },
            {
                "start_time": 48.62954545454545,
                "end_time": 48.87954545454545,
                "pitch": 89,
                "velocity": 80,
                "duration": 0.25,
                "tempo": 120.0
            },
            {
                "start_time": 48.88181818181818,
                "end_time": 49.13181818181818,
                "pitch": 91,
                "velocity": 80,
                "duration": 0.25,
                "tempo": 120.0
            },
            {
                "start_time": 50.63409090909091,
                "end_time": 50.88409090909091,
                "pitch": 79,
                "velocity": 80,
                "duration": 0.25,
                "tempo": 120.0
            },
            {
                "start_time": 50.88409090909091,
                "end_time": 51.14090909090909,
                "pitch": 91,
                "velocity": 80,
                "duration": 0.2568181818181827,
                "tempo": 120.0
            },
            {
                "start_time": 51.14090909090909,
                "end_time": 51.39772727272727,
                "pitch": 79,
                "velocity": 80,
                "duration": 0.2568181818181827,
                "tempo": 120.0
            },
            {
                "start_time": 51.39772727272727,
                "end_time": 51.64772727272727,
                "pitch": 91,
                "velocity": 80,
                "duration": 0.25,
                "tempo": 120.0
            },
            {
                "start_time": 51.81363636363636,
                "end_time": 51.89772727272727,
                "pitch": 91,
                "velocity": 80,
                "duration": 0.08409090909091077,
                "tempo": 120.0
            },
            {
                "start_time": 51.89772727272727,
                "end_time": 52.06363636363636,
                "pitch": 94,
                "velocity": 80,
                "duration": 0.16590909090908923,
                "tempo": 120.0
            },
            {
                "start_time": 52.06363636363636,
                "end_time": 52.14772727272727,
                "pitch": 96,
                "velocity": 80,
                "duration": 0.08409090909091077,
                "tempo": 120.0
            },
            {
                "start_time": 52.14772727272727,
                "end_time": 52.39772727272727,
                "pitch": 97,
                "velocity": 80,
                "duration": 0.25,
                "tempo": 120.0
            },
            {
                "start_time": 52.39772727272727,
                "end_time": 52.56363636363636,
                "pitch": 96,
                "velocity": 80,
                "duration": 0.16590909090908923,
                "tempo": 120.0
            },
            {
                "start_time": 52.56590909090909,
                "end_time": 52.64772727272727,
                "pitch": 89,
                "velocity": 80,
                "duration": 0.08181818181818556,
                "tempo": 120.0
            },
            {
                "start_time": 52.64772727272727,
                "end_time": 52.94772727272727,
                "pitch": 91,
                "velocity": 80,
                "duration": 0.29999999999999716,
                "tempo": 120.0
            },
            {
                "start_time": 52.94772727272727,
                "end_time": 52.965909090909086,
                "pitch": 91,
                "velocity": 80,
                "duration": 0.018181818181815856,
                "tempo": 120.0
            },
            {
                "start_time": 52.94772727272727,
                "end_time": 52.965909090909086,
                "pitch": 103,
                "velocity": 80,
                "duration": 0.018181818181815856,
                "tempo": 120.0
            },
            {
                "start_time": 52.965909090909086,
                "end_time": 52.99772727272727,
                "pitch": 91,
                "velocity": 80,
                "duration": 0.0318181818181813,
                "tempo": 120.0
            },
            {
                "start_time": 52.965909090909086,
                "end_time": 53.0,
                "pitch": 103,
                "velocity": 80,
                "duration": 0.03409090909091361,
                "tempo": 120.0
            },
            {
                "start_time": 52.99772727272727,
                "end_time": 53.0,
                "pitch": 103,
                "velocity": 80,
                "duration": 0.002272727272732311,
                "tempo": 120.0
            },
            {
                "start_time": 20.909090909090907,
                "end_time": 53.01590909090909,
                "pitch": 14,
                "velocity": 80,
                "duration": 32.106818181818184,
                "tempo": 120.0
            },
            {
                "start_time": 53.0,
                "end_time": 53.01590909090909,
                "pitch": 91,
                "velocity": 80,
                "duration": 0.01590909090909065,
                "tempo": 120.0
            },
            {
                "start_time": 53.01590909090909,
                "end_time": 53.05,
                "pitch": 91,
                "velocity": 80,
                "duration": 0.03409090909090651,
                "tempo": 120.0
            },
            {
                "start_time": 21.09318181818182,
                "end_time": 53.199999999999996,
                "pitch": 0,
                "velocity": 80,
                "duration": 32.10681818181818,
                "tempo": 120.0
            },
            {
                "start_time": 53.05,
                "end_time": 53.199999999999996,
                "pitch": 91,
                "velocity": 80,
                "duration": 0.14999999999999858,
                "tempo": 120.0
            },
            {
                "start_time": 53.05,
                "end_time": 53.199999999999996,
                "pitch": 103,
                "velocity": 80,
                "duration": 0.14999999999999858,
                "tempo": 120.0
            },
            {
                "start_time": 53.199999999999996,
                "end_time": 53.65,
                "pitch": 90,
                "velocity": 80,
                "duration": 0.45000000000000284,
                "tempo": 120.0
            },
            {
                "start_time": 53.199999999999996,
                "end_time": 53.73181818181818,
                "pitch": 91,
                "velocity": 80,
                "duration": 0.5318181818181813,
                "tempo": 120.0
            },
            {
                "start_time": 53.65,
                "end_time": 53.73181818181818,
                "pitch": 91,
                "velocity": 80,
                "duration": 0.08181818181817846,
                "tempo": 120.0
            },
            {
                "start_time": 53.73409090909091,
                "end_time": 53.81590909090909,
                "pitch": 89,
                "velocity": 80,
                "duration": 0.08181818181817846,
                "tempo": 120.0
            },
            {
                "start_time": 53.81590909090909,
                "end_time": 53.9,
                "pitch": 86,
                "velocity": 80,
                "duration": 0.08409090909091077,
                "tempo": 120.0
            },
            {
                "start_time": 53.9,
                "end_time": 53.98409090909091,
                "pitch": 89,
                "velocity": 80,
                "duration": 0.08409090909091077,
                "tempo": 120.0
            },
            {
                "start_time": 53.98409090909091,
                "end_time": 54.06590909090909,
                "pitch": 88,
                "velocity": 80,
                "duration": 0.08181818181817846,
                "tempo": 120.0
            },
            {
                "start_time": 54.06590909090909,
                "end_time": 54.15,
                "pitch": 84,
                "velocity": 80,
                "duration": 0.08409090909091077,
                "tempo": 120.0
            },
            {
                "start_time": 54.15,
                "end_time": 54.23409090909091,
                "pitch": 87,
                "velocity": 80,
                "duration": 0.08409090909091077,
                "tempo": 120.0
            },
            {
                "start_time": 54.23409090909091,
                "end_time": 54.31590909090909,
                "pitch": 86,
                "velocity": 80,
                "duration": 0.08181818181817846,
                "tempo": 120.0
            },
            {
                "start_time": 54.31818181818181,
                "end_time": 54.35227272727273,
                "pitch": 82,
                "velocity": 80,
                "duration": 0.03409090909091361,
                "tempo": 120.0
            }
        ],
        "Lead 2 (sawtooth)": [
            {
                "start_time": 0.16136363636363635,
                "end_time": 2.172727272727273,
                "pitch": 43,
                "velocity": 80,
                "duration": 2.0113636363636367,
                "tempo": 120.0
            },
            {
                "start_time": 2.175,
                "end_time": 4.181818181818182,
                "pitch": 44,
                "velocity": 80,
                "duration": 2.006818181818182,
                "tempo": 120.0
            },
            {
                "start_time": 4.181818181818182,
                "end_time": 4.429545454545455,
                "pitch": 44,
                "velocity": 80,
                "duration": 0.24772727272727302,
                "tempo": 120.0
            },
            {
                "start_time": 4.431818181818182,
                "end_time": 4.681818181818182,
                "pitch": 46,
                "velocity": 80,
                "duration": 0.25,
                "tempo": 120.0
            },
            {
                "start_time": 4.681818181818182,
                "end_time": 4.9386363636363635,
                "pitch": 44,
                "velocity": 80,
                "duration": 0.25681818181818183,
                "tempo": 120.0
            },
            {
                "start_time": 4.9386363636363635,
                "end_time": 5.195454545454545,
                "pitch": 43,
                "velocity": 80,
                "duration": 0.25681818181818183,
                "tempo": 120.0
            },
            {
                "start_time": 5.195454545454545,
                "end_time": 5.443181818181818,
                "pitch": 42,
                "velocity": 80,
                "duration": 0.24772727272727302,
                "tempo": 120.0
            },
            {
                "start_time": 5.445454545454545,
                "end_time": 5.611363636363636,
                "pitch": 42,
                "velocity": 80,
                "duration": 0.165909090909091,
                "tempo": 120.0
            },
            {
                "start_time": 5.611363636363636,
                "end_time": 5.661363636363636,
                "pitch": 43,
                "velocity": 80,
                "duration": 0.04999999999999982,
                "tempo": 120.0
            },
            {
                "start_time": 5.661363636363636,
                "end_time": 5.695454545454545,
                "pitch": 46,
                "velocity": 80,
                "duration": 0.03409090909090917,
                "tempo": 120.0
            },
            {
                "start_time": 5.695454545454545,
                "end_time": 5.745454545454545,
                "pitch": 48,
                "velocity": 80,
                "duration": 0.04999999999999982,
                "tempo": 120.0
            },
            {
                "start_time": 5.745454545454545,
                "end_time": 5.777272727272727,
                "pitch": 51,
                "velocity": 80,
                "duration": 0.03181818181818219,
                "tempo": 120.0
            },
            {
                "start_time": 5.777272727272727,
                "end_time": 5.861363636363636,
                "pitch": 53,
                "velocity": 80,
                "duration": 0.084090909090909,
                "tempo": 120.0
            },
            {
                "start_time": 5.861363636363636,
                "end_time": 5.927272727272727,
                "pitch": 51,
                "velocity": 80,
                "duration": 0.06590909090909047,
                "tempo": 120.0
            },
            {
                "start_time": 5.927272727272727,
                "end_time": 5.995454545454545,
                "pitch": 49,
                "velocity": 80,
                "duration": 0.06818181818181834,
                "tempo": 120.0
            },
            {
                "start_time": 5.995454545454545,
                "end_time": 6.0613636363636365,
                "pitch": 47,
                "velocity": 80,
                "duration": 0.06590909090909136,
                "tempo": 120.0
            },
            {
                "start_time": 6.0613636363636365,
                "end_time": 6.161363636363636,
                "pitch": 45,
                "velocity": 80,
                "duration": 0.09999999999999964,
                "tempo": 120.0
            },
            {
                "start_time": 6.161363636363636,
                "end_time": 6.197727272727272,
                "pitch": 41,
                "velocity": 80,
                "duration": 0.036363636363636154,
                "tempo": 120.0
            },
            {
                "start_time": 6.197727272727272,
                "end_time": 6.447727272727272,
                "pitch": 43,
                "velocity": 51,
                "duration": 0.25,
                "tempo": 120.0
            },
            {
                "start_time": 6.447727272727272,
                "end_time": 6.697727272727272,
                "pitch": 55,
                "velocity": 51,
                "duration": 0.25,
                "tempo": 120.0
            },
            {
                "start_time": 6.697727272727272,
                "end_time": 6.861363636363636,
                "pitch": 53,
                "velocity": 51,
                "duration": 0.16363636363636402,
                "tempo": 120.0
            },
            {
                "start_time": 6.863636363636363,
                "end_time": 6.947727272727272,
                "pitch": 50,
                "velocity": 51,
                "duration": 0.084090909090909,
                "tempo": 120.0
            },
            {
                "start_time": 6.947727272727272,
                "end_time": 7.113636363636363,
                "pitch": 49,
                "velocity": 51,
                "duration": 0.165909090909091,
                "tempo": 120.0
            },
            {
                "start_time": 7.113636363636363,
                "end_time": 7.363636363636363,
                "pitch": 50,
                "velocity": 51,
                "duration": 0.25,
                "tempo": 120.0
            },
            {
                "start_time": 7.363636363636363,
                "end_time": 7.447727272727272,
                "pitch": 50,
                "velocity": 51,
                "duration": 0.084090909090909,
                "tempo": 120.0
            },
            {
                "start_time": 7.447727272727272,
                "end_time": 7.697727272727272,
                "pitch": 50,
                "velocity": 51,
                "duration": 0.25,
                "tempo": 120.0
            },
            {
                "start_time": 7.697727272727272,
                "end_time": 7.947727272727272,
                "pitch": 49,
                "velocity": 51,
                "duration": 0.25,
                "tempo": 120.0
            },
            {
                "start_time": 7.947727272727272,
                "end_time": 8.113636363636363,
                "pitch": 48,
                "velocity": 51,
                "duration": 0.165909090909091,
                "tempo": 120.0
            },
            {
                "start_time": 8.113636363636363,
                "end_time": 8.2,
                "pitch": 46,
                "velocity": 51,
                "duration": 0.08636363636363598,
                "tempo": 120.0
            },
            {
                "start_time": 8.2,
                "end_time": 8.452272727272726,
                "pitch": 43,
                "velocity": 51,
                "duration": 0.252272727272727,
                "tempo": 120.0
            },
            {
                "start_time": 8.452272727272726,
                "end_time": 8.704545454545453,
                "pitch": 55,
                "velocity": 51,
                "duration": 0.252272727272727,
                "tempo": 120.0
            },
            {
                "start_time": 8.704545454545453,
                "end_time": 8.868181818181817,
                "pitch": 53,
                "velocity": 51,
                "duration": 0.16363636363636402,
                "tempo": 120.0
            },
            {
                "start_time": 8.870454545454544,
                "end_time": 8.954545454545453,
                "pitch": 50,
                "velocity": 51,
                "duration": 0.084090909090909,
                "tempo": 120.0
            },
            {
                "start_time": 8.954545454545453,
                "end_time": 9.118181818181817,
                "pitch": 49,
                "velocity": 51,
                "duration": 0.16363636363636402,
                "tempo": 120.0
            },
            {
                "start_time": 5.995454545454545,
                "end_time": 9.504545454545454,
                "pitch": 32,
                "velocity": 80,
                "duration": 3.509090909090909,
                "tempo": 120.0
            },
            {
                "start_time": 9.120454545454544,
                "end_time": 9.504545454545454,
                "pitch": 50,
                "velocity": 51,
                "duration": 0.3840909090909097,
                "tempo": 120.0
            },
            {
                "start_time": 9.504545454545454,
                "end_time": 9.636363636363637,
                "pitch": 47,
                "velocity": 51,
                "duration": 0.13181818181818272,
                "tempo": 120.0
            },
            {
                "start_time": 10.206818181818182,
                "end_time": 10.456818181818182,
                "pitch": 43,
                "velocity": 51,
                "duration": 0.25,
                "tempo": 120.0
            },
            {
                "start_time": 10.456818181818182,
                "end_time": 10.706818181818182,
                "pitch": 55,
                "velocity": 51,
                "duration": 0.25,
                "tempo": 120.0
            },
            {
                "start_time": 10.706818181818182,
                "end_time": 10.870454545454544,
                "pitch": 53,
                "velocity": 51,
                "duration": 0.16363636363636225,
                "tempo": 120.0
            },
            {
                "start_time": 10.872727272727273,
                "end_time": 10.956818181818182,
                "pitch": 50,
                "velocity": 51,
                "duration": 0.084090909090909,
                "tempo": 120.0
            },
            {
                "start_time": 10.956818181818182,
                "end_time": 11.122727272727273,
                "pitch": 49,
                "velocity": 51,
                "duration": 0.165909090909091,
                "tempo": 120.0
            },
            {
                "start_time": 11.122727272727273,
                "end_time": 11.372727272727273,
                "pitch": 50,
                "velocity": 51,
                "duration": 0.25,
                "tempo": 120.0
            },
            {
                "start_time": 11.372727272727273,
                "end_time": 11.456818181818182,
                "pitch": 50,
                "velocity": 51,
                "duration": 0.084090909090909,
                "tempo": 120.0
            },
            {
                "start_time": 11.456818181818182,
                "end_time": 11.706818181818182,
                "pitch": 53,
                "velocity": 51,
                "duration": 0.25,
                "tempo": 120.0
            },
            {
                "start_time": 11.706818181818182,
                "end_time": 11.963636363636363,
                "pitch": 55,
                "velocity": 51,
                "duration": 0.25681818181818095,
                "tempo": 120.0
            },
            {
                "start_time": 11.963636363636363,
                "end_time": 12.134090909090908,
                "pitch": 58,
                "velocity": 51,
                "duration": 0.17045454545454497,
                "tempo": 120.0
            },
            {
                "start_time": 12.134090909090908,
                "end_time": 12.220454545454546,
                "pitch": 60,
                "velocity": 51,
                "duration": 0.08636363636363775,
                "tempo": 120.0
            },
            {
                "start_time": 12.222727272727273,
                "end_time": 12.386363636363635,
                "pitch": 61,
                "velocity": 51,
                "duration": 0.16363636363636225,
                "tempo": 120.0
            },
            {
                "start_time": 12.386363636363635,
                "end_time": 12.470454545454546,
                "pitch": 60,
                "velocity": 51,
                "duration": 0.08409090909091077,
                "tempo": 120.0
            },
            {
                "start_time": 12.472727272727273,
                "end_time": 12.636363636363635,
                "pitch": 58,
                "velocity": 51,
                "duration": 0.16363636363636225,
                "tempo": 120.0
            },
            {
                "start_time": 12.636363636363635,
                "end_time": 12.722727272727273,
                "pitch": 61,
                "velocity": 51,
                "duration": 0.08636363636363775,
                "tempo": 120.0
            },
            {
                "start_time": 12.722727272727273,
                "end_time": 12.886363636363635,
                "pitch": 60,
                "velocity": 51,
                "duration": 0.16363636363636225,
                "tempo": 120.0
            },
            {
                "start_time": 12.886363636363635,
                "end_time": 12.972727272727273,
                "pitch": 58,
                "velocity": 51,
                "duration": 0.08636363636363775,
                "tempo": 120.0
            },
            {
                "start_time": 12.972727272727273,
                "end_time": 13.136363636363635,
                "pitch": 55,
                "velocity": 51,
                "duration": 0.16363636363636225,
                "tempo": 120.0
            },
            {
                "start_time": 13.138636363636364,
                "end_time": 13.454545454545453,
                "pitch": 53,
                "velocity": 51,
                "duration": 0.3159090909090896,
                "tempo": 120.0
            },
            {
                "start_time": 13.454545454545453,
                "end_time": 13.588636363636363,
                "pitch": 51,
                "velocity": 51,
                "duration": 0.1340909090909097,
                "tempo": 120.0
            },
            {
                "start_time": 13.588636363636363,
                "end_time": 13.654545454545454,
                "pitch": 48,
                "velocity": 51,
                "duration": 0.06590909090909136,
                "tempo": 120.0
            },
            {
                "start_time": 14.225,
                "end_time": 14.472727272727273,
                "pitch": 43,
                "velocity": 51,
                "duration": 0.24772727272727302,
                "tempo": 120.0
            },
            {
                "start_time": 14.475,
                "end_time": 14.725,
                "pitch": 55,
                "velocity": 51,
                "duration": 0.25,
                "tempo": 120.0
            },
            {
                "start_time": 14.725,
                "end_time": 14.888636363636364,
                "pitch": 53,
                "velocity": 51,
                "duration": 0.16363636363636402,
                "tempo": 120.0
            },
            {
                "start_time": 14.89090909090909,
                "end_time": 14.975,
                "pitch": 50,
                "velocity": 51,
                "duration": 0.084090909090909,
                "tempo": 120.0
            },
            {
                "start_time": 14.975,
                "end_time": 15.14090909090909,
                "pitch": 49,
                "velocity": 51,
                "duration": 0.165909090909091,
                "tempo": 120.0
            },
            {
                "start_time": 15.14090909090909,
                "end_time": 15.39090909090909,
                "pitch": 50,
                "velocity": 51,
                "duration": 0.25,
                "tempo": 120.0
            },
            {
                "start_time": 15.39090909090909,
                "end_time": 15.475,
                "pitch": 50,
                "velocity": 51,
                "duration": 0.084090909090909,
                "tempo": 120.0
            },
            {
                "start_time": 15.475,
                "end_time": 15.725,
                "pitch": 50,
                "velocity": 51,
                "duration": 0.25,
                "tempo": 120.0
            },
            {
                "start_time": 15.725,
                "end_time": 15.975,
                "pitch": 49,
                "velocity": 51,
                "duration": 0.25,
                "tempo": 120.0
            },
            {
                "start_time": 15.975,
                "end_time": 16.14090909090909,
                "pitch": 48,
                "velocity": 51,
                "duration": 0.165909090909091,
                "tempo": 120.0
            },
            {
                "start_time": 16.14090909090909,
                "end_time": 16.227272727272727,
                "pitch": 46,
                "velocity": 51,
                "duration": 0.08636363636363598,
                "tempo": 120.0
            },
            {
                "start_time": 16.227272727272727,
                "end_time": 16.477272727272727,
                "pitch": 43,
                "velocity": 51,
                "duration": 0.25,
                "tempo": 120.0
            },
            {
                "start_time": 16.477272727272727,
                "end_time": 16.727272727272727,
                "pitch": 55,
                "velocity": 51,
                "duration": 0.25,
                "tempo": 120.0
            },
            {
                "start_time": 16.727272727272727,
                "end_time": 16.893181818181816,
                "pitch": 53,
                "velocity": 51,
                "duration": 0.16590909090908923,
                "tempo": 120.0
            },
            {
                "start_time": 16.893181818181816,
                "end_time": 16.977272727272727,
                "pitch": 50,
                "velocity": 51,
                "duration": 0.08409090909091077,
                "tempo": 120.0
            },
            {
                "start_time": 16.977272727272727,
                "end_time": 17.143181818181816,
                "pitch": 49,
                "velocity": 51,
                "duration": 0.16590909090908923,
                "tempo": 120.0
            },
            {
                "start_time": 9.504545454545454,
                "end_time": 17.527272727272727,
                "pitch": 32,
                "velocity": 51,
                "duration": 8.022727272727273,
                "tempo": 120.0
            },
            {
                "start_time": 17.143181818181816,
                "end_time": 17.527272727272727,
                "pitch": 50,
                "velocity": 51,
                "duration": 0.3840909090909115,
                "tempo": 120.0
            },
            {
                "start_time": 17.527272727272727,
                "end_time": 17.659090909090907,
                "pitch": 47,
                "velocity": 51,
                "duration": 0.13181818181817917,
                "tempo": 120.0
            },
            {
                "start_time": 18.229545454545455,
                "end_time": 18.479545454545455,
                "pitch": 43,
                "velocity": 51,
                "duration": 0.25,
                "tempo": 120.0
            },
            {
                "start_time": 18.479545454545455,
                "end_time": 18.729545454545455,
                "pitch": 55,
                "velocity": 51,
                "duration": 0.25,
                "tempo": 120.0
            },
            {
                "start_time": 18.729545454545455,
                "end_time": 18.895454545454545,
                "pitch": 53,
                "velocity": 51,
                "duration": 0.16590909090908923,
                "tempo": 120.0
            },
            {
                "start_time": 18.895454545454545,
                "end_time": 18.979545454545455,
                "pitch": 50,
                "velocity": 51,
                "duration": 0.08409090909091077,
                "tempo": 120.0
            },
            {
                "start_time": 18.979545454545455,
                "end_time": 19.145454545454545,
                "pitch": 49,
                "velocity": 51,
                "duration": 0.16590909090908923,
                "tempo": 120.0
            },
            {
                "start_time": 19.145454545454545,
                "end_time": 19.395454545454545,
                "pitch": 50,
                "velocity": 51,
                "duration": 0.25,
                "tempo": 120.0
            },
            {
                "start_time": 19.395454545454545,
                "end_time": 19.479545454545452,
                "pitch": 50,
                "velocity": 51,
                "duration": 0.08409090909090722,
                "tempo": 120.0
            },
            {
                "start_time": 19.48181818181818,
                "end_time": 19.73181818181818,
                "pitch": 53,
                "velocity": 51,
                "duration": 0.25,
                "tempo": 120.0
            },
            {
                "start_time": 19.73181818181818,
                "end_time": 19.986363636363635,
                "pitch": 55,
                "velocity": 51,
                "duration": 0.25454545454545396,
                "tempo": 120.0
            },
            {
                "start_time": 19.986363636363635,
                "end_time": 20.15681818181818,
                "pitch": 58,
                "velocity": 51,
                "duration": 0.17045454545454675,
                "tempo": 120.0
            },
            {
                "start_time": 12.134090909090908,
                "end_time": 20.15681818181818,
                "pitch": 64,
                "velocity": 51,
                "duration": 8.022727272727273,
                "tempo": 120.0
            },
            {
                "start_time": 20.15681818181818,
                "end_time": 20.245454545454546,
                "pitch": 60,
                "velocity": 51,
                "duration": 0.08863636363636473,
                "tempo": 120.0
            },
            {
                "start_time": 20.245454545454546,
                "end_time": 20.409090909090907,
                "pitch": 61,
                "velocity": 51,
                "duration": 0.16363636363636047,
                "tempo": 120.0
            },
            {
                "start_time": 20.409090909090907,
                "end_time": 20.495454545454546,
                "pitch": 60,
                "velocity": 51,
                "duration": 0.08636363636363953,
                "tempo": 120.0
            },
            {
                "start_time": 20.495454545454546,
                "end_time": 20.659090909090907,
                "pitch": 58,
                "velocity": 51,
                "duration": 0.16363636363636047,
                "tempo": 120.0
            },
            {
                "start_time": 20.661363636363635,
                "end_time": 20.745454545454546,
                "pitch": 61,
                "velocity": 51,
                "duration": 0.08409090909091077,
                "tempo": 120.0
            },
            {
                "start_time": 20.745454545454546,
                "end_time": 20.911363636363635,
                "pitch": 60,
                "velocity": 51,
                "duration": 0.16590909090908923,
                "tempo": 120.0
            },
            {
                "start_time": 20.911363636363635,
                "end_time": 20.995454545454546,
                "pitch": 58,
                "velocity": 51,
                "duration": 0.08409090909091077,
                "tempo": 120.0
            },
            {
                "start_time": 20.995454545454546,
                "end_time": 21.161363636363635,
                "pitch": 55,
                "velocity": 51,
                "duration": 0.16590909090908923,
                "tempo": 120.0
            },
            {
                "start_time": 21.161363636363635,
                "end_time": 21.477272727272727,
                "pitch": 53,
                "velocity": 51,
                "duration": 0.31590909090909136,
                "tempo": 120.0
            },
            {
                "start_time": 21.477272727272727,
                "end_time": 21.611363636363635,
                "pitch": 51,
                "velocity": 51,
                "duration": 0.13409090909090793,
                "tempo": 120.0
            },
            {
                "start_time": 21.611363636363635,
                "end_time": 21.677272727272726,
                "pitch": 48,
                "velocity": 51,
                "duration": 0.06590909090909136,
                "tempo": 120.0
            },
            {
                "start_time": 23.24772727272727,
                "end_time": 23.413636363636364,
                "pitch": 44,
                "velocity": 51,
                "duration": 0.16590909090909278,
                "tempo": 120.0
            },
            {
                "start_time": 23.413636363636364,
                "end_time": 23.49772727272727,
                "pitch": 46,
                "velocity": 51,
                "duration": 0.08409090909090722,
                "tempo": 120.0
            },
            {
                "start_time": 23.49772727272727,
                "end_time": 23.663636363636364,
                "pitch": 46,
                "velocity": 51,
                "duration": 0.16590909090909278,
                "tempo": 120.0
            },
            {
                "start_time": 23.66590909090909,
                "end_time": 23.913636363636364,
                "pitch": 46,
                "velocity": 51,
                "duration": 0.2477272727272748,
                "tempo": 120.0
            },
            {
                "start_time": 23.91590909090909,
                "end_time": 23.99772727272727,
                "pitch": 46,
                "velocity": 51,
                "duration": 0.08181818181818201,
                "tempo": 120.0
            },
            {
                "start_time": 24.0,
                "end_time": 24.25,
                "pitch": 44,
                "velocity": 51,
                "duration": 0.25,
                "tempo": 120.0
            },
            {
                "start_time": 24.25,
                "end_time": 24.5,
                "pitch": 43,
                "velocity": 51,
                "duration": 0.25,
                "tempo": 120.0
            },
            {
                "start_time": 6.161363636363636,
                "end_time": 24.5,
                "pitch": 54,
                "velocity": 80,
                "duration": 18.338636363636365,
                "tempo": 120.0
            },
            {
                "start_time": 24.5,
                "end_time": 24.69772727272727,
                "pitch": 42,
                "velocity": 51,
                "duration": 0.19772727272727053,
                "tempo": 120.0
            },
            {
                "start_time": 24.69772727272727,
                "end_time": 24.75,
                "pitch": 39,
                "velocity": 51,
                "duration": 0.05227272727272947,
                "tempo": 120.0
            },
            {
                "start_time": 17.527272727272727,
                "end_time": 25.41590909090909,
                "pitch": 32,
                "velocity": 51,
                "duration": 7.888636363636362,
                "tempo": 120.0
            },
            {
                "start_time": 25.252272727272725,
                "end_time": 25.41590909090909,
                "pitch": 32,
                "velocity": 51,
                "duration": 0.16363636363636402,
                "tempo": 120.0
            },
            {
                "start_time": 25.418181818181818,
                "end_time": 25.5,
                "pitch": 34,
                "velocity": 51,
                "duration": 0.08181818181818201,
                "tempo": 120.0
            },
            {
                "start_time": 25.5,
                "end_time": 25.66590909090909,
                "pitch": 34,
                "velocity": 51,
                "duration": 0.16590909090908923,
                "tempo": 120.0
            },
            {
                "start_time": 25.668181818181818,
                "end_time": 25.918181818181818,
                "pitch": 34,
                "velocity": 51,
                "duration": 0.25,
                "tempo": 120.0
            },
            {
                "start_time": 25.918181818181818,
                "end_time": 26.002272727272725,
                "pitch": 34,
                "velocity": 51,
                "duration": 0.08409090909090722,
                "tempo": 120.0
            },
            {
                "start_time": 26.002272727272725,
                "end_time": 26.252272727272725,
                "pitch": 32,
                "velocity": 51,
                "duration": 0.25,
                "tempo": 120.0
            },
            {
                "start_time": 5.611363636363636,
                "end_time": 26.418181818181818,
                "pitch": 0,
                "velocity": 80,
                "duration": 20.80681818181818,
                "tempo": 120.0
            },
            {
                "start_time": 26.254545454545454,
                "end_time": 26.418181818181818,
                "pitch": 42,
                "velocity": 51,
                "duration": 0.16363636363636402,
                "tempo": 120.0
            },
            {
                "start_time": 26.418181818181818,
                "end_time": 26.502272727272725,
                "pitch": 43,
                "velocity": 51,
                "duration": 0.08409090909090722,
                "tempo": 120.0
            },
            {
                "start_time": 26.502272727272725,
                "end_time": 26.668181818181818,
                "pitch": 43,
                "velocity": 51,
                "duration": 0.16590909090909278,
                "tempo": 120.0
            },
            {
                "start_time": 26.668181818181818,
                "end_time": 26.752272727272725,
                "pitch": 43,
                "velocity": 51,
                "duration": 0.08409090909090722,
                "tempo": 120.0
            },
            {
                "start_time": 26.418181818181818,
                "end_time": 26.918181818181818,
                "pitch": 0,
                "velocity": 51,
                "duration": 0.5,
                "tempo": 120.0
            },
            {
                "start_time": 26.752272727272725,
                "end_time": 26.918181818181818,
                "pitch": 42,
                "velocity": 51,
                "duration": 0.16590909090909278,
                "tempo": 120.0
            },
            {
                "start_time": 26.918181818181818,
                "end_time": 27.002272727272725,
                "pitch": 43,
                "velocity": 51,
                "duration": 0.08409090909090722,
                "tempo": 120.0
            },
            {
                "start_time": 27.002272727272725,
                "end_time": 27.168181818181818,
                "pitch": 43,
                "velocity": 51,
                "duration": 0.16590909090909278,
                "tempo": 120.0
            },
            {
                "start_time": 27.168181818181818,
                "end_time": 27.252272727272725,
                "pitch": 43,
                "velocity": 51,
                "duration": 0.08409090909090722,
                "tempo": 120.0
            },
            {
                "start_time": 26.918181818181818,
                "end_time": 27.418181818181818,
                "pitch": 0,
                "velocity": 51,
                "duration": 0.5,
                "tempo": 120.0
            },
            {
                "start_time": 27.254545454545454,
                "end_time": 27.418181818181818,
                "pitch": 42,
                "velocity": 51,
                "duration": 0.16363636363636402,
                "tempo": 120.0
            },
            {
                "start_time": 27.418181818181818,
                "end_time": 27.502272727272725,
                "pitch": 43,
                "velocity": 51,
                "duration": 0.08409090909090722,
                "tempo": 120.0
            },
            {
                "start_time": 27.504545454545454,
                "end_time": 27.668181818181818,
                "pitch": 43,
                "velocity": 51,
                "duration": 0.16363636363636402,
                "tempo": 120.0
            },
            {
                "start_time": 27.670454545454543,
                "end_time": 27.754545454545454,
                "pitch": 43,
                "velocity": 51,
                "duration": 0.08409090909091077,
                "tempo": 120.0
            },
            {
                "start_time": 27.418181818181818,
                "end_time": 27.922727272727272,
                "pitch": 0,
                "velocity": 51,
                "duration": 0.504545454545454,
                "tempo": 120.0
            },
            {
                "start_time": 27.754545454545454,
                "end_time": 27.922727272727272,
                "pitch": 42,
                "velocity": 51,
                "duration": 0.168181818181818,
                "tempo": 120.0
            },
            {
                "start_time": 27.922727272727272,
                "end_time": 28.011363636363637,
                "pitch": 43,
                "velocity": 51,
                "duration": 0.08863636363636473,
                "tempo": 120.0
            },
            {
                "start_time": 28.011363636363637,
                "end_time": 28.179545454545455,
                "pitch": 43,
                "velocity": 51,
                "duration": 0.168181818181818,
                "tempo": 120.0
            },
            {
                "start_time": 28.18181818181818,
                "end_time": 28.26590909090909,
                "pitch": 43,
                "velocity": 51,
                "duration": 0.08409090909091077,
                "tempo": 120.0
            },
            {
                "start_time": 28.268181818181816,
                "end_time": 28.43409090909091,
                "pitch": 44,
                "velocity": 51,
                "duration": 0.16590909090909278,
                "tempo": 120.0
            },
            {
                "start_time": 28.43409090909091,
                "end_time": 28.518181818181816,
                "pitch": 46,
                "velocity": 51,
                "duration": 0.08409090909090722,
                "tempo": 120.0
            },
            {
                "start_time": 28.518181818181816,
                "end_time": 28.68409090909091,
                "pitch": 46,
                "velocity": 51,
                "duration": 0.16590909090909278,
                "tempo": 120.0
            },
            {
                "start_time": 28.68409090909091,
                "end_time": 28.768181818181816,
                "pitch": 46,
                "velocity": 51,
                "duration": 0.08409090909090722,
                "tempo": 120.0
            },
            {
                "start_time": 28.768181818181816,
                "end_time": 28.93409090909091,
                "pitch": 44,
                "velocity": 51,
                "duration": 0.16590909090909278,
                "tempo": 120.0
            },
            {
                "start_time": 28.93409090909091,
                "end_time": 29.018181818181816,
                "pitch": 46,
                "velocity": 51,
                "duration": 0.08409090909090722,
                "tempo": 120.0
            },
            {
                "start_time": 29.018181818181816,
                "end_time": 29.18409090909091,
                "pitch": 46,
                "velocity": 51,
                "duration": 0.16590909090909278,
                "tempo": 120.0
            },
            {
                "start_time": 29.18409090909091,
                "end_time": 29.268181818181816,
                "pitch": 46,
                "velocity": 51,
                "duration": 0.08409090909090722,
                "tempo": 120.0
            },
            {
                "start_time": 29.268181818181816,
                "end_time": 29.43409090909091,
                "pitch": 44,
                "velocity": 51,
                "duration": 0.16590909090909278,
                "tempo": 120.0
            },
            {
                "start_time": 29.43409090909091,
                "end_time": 29.518181818181816,
                "pitch": 46,
                "velocity": 51,
                "duration": 0.08409090909090722,
                "tempo": 120.0
            },
            {
                "start_time": 29.518181818181816,
                "end_time": 29.68409090909091,
                "pitch": 46,
                "velocity": 51,
                "duration": 0.16590909090909278,
                "tempo": 120.0
            },
            {
                "start_time": 29.68409090909091,
                "end_time": 29.768181818181816,
                "pitch": 46,
                "velocity": 51,
                "duration": 0.08409090909090722,
                "tempo": 120.0
            },
            {
                "start_time": 29.770454545454545,
                "end_time": 29.93409090909091,
                "pitch": 44,
                "velocity": 51,
                "duration": 0.16363636363636402,
                "tempo": 120.0
            },
            {
                "start_time": 29.93409090909091,
                "end_time": 30.020454545454545,
                "pitch": 46,
                "velocity": 51,
                "duration": 0.08636363636363598,
                "tempo": 120.0
            },
            {
                "start_time": 30.020454545454545,
                "end_time": 30.186363636363634,
                "pitch": 46,
                "velocity": 51,
                "duration": 0.16590909090908923,
                "tempo": 120.0
            },
            {
                "start_time": 30.186363636363634,
                "end_time": 30.270454545454545,
                "pitch": 46,
                "velocity": 51,
                "duration": 0.08409090909091077,
                "tempo": 120.0
            },
            {
                "start_time": 30.270454545454545,
                "end_time": 30.436363636363634,
                "pitch": 47,
                "velocity": 51,
                "duration": 0.16590909090908923,
                "tempo": 120.0
            },
            {
                "start_time": 5.695454545454545,
                "end_time": 30.436363636363634,
                "pitch": 52,
                "velocity": 80,
                "duration": 24.74090909090909,
                "tempo": 120.0
            },
            {
                "start_time": 30.436363636363634,
                "end_time": 30.520454545454545,
                "pitch": 48,
                "velocity": 51,
                "duration": 0.08409090909091077,
                "tempo": 120.0
            },
            {
                "start_time": 30.520454545454545,
                "end_time": 30.686363636363634,
                "pitch": 48,
                "velocity": 51,
                "duration": 0.16590909090908923,
                "tempo": 120.0
            },
            {
                "start_time": 30.686363636363634,
                "end_time": 30.770454545454545,
                "pitch": 48,
                "velocity": 51,
                "duration": 0.08409090909091077,
                "tempo": 120.0
            },
            {
                "start_time": 30.770454545454545,
                "end_time": 30.936363636363634,
                "pitch": 47,
                "velocity": 51,
                "duration": 0.16590909090908923,
                "tempo": 120.0
            },
            {
                "start_time": 30.436363636363634,
                "end_time": 30.936363636363634,
                "pitch": 52,
                "velocity": 51,
                "duration": 0.5,
                "tempo": 120.0
            },
            {
                "start_time": 30.936363636363634,
                "end_time": 31.020454545454545,
                "pitch": 48,
                "velocity": 51,
                "duration": 0.08409090909091077,
                "tempo": 120.0
            },
            {
                "start_time": 31.020454545454545,
                "end_time": 31.186363636363634,
                "pitch": 48,
                "velocity": 51,
                "duration": 0.16590909090908923,
                "tempo": 120.0
            },
            {
                "start_time": 31.186363636363634,
                "end_time": 31.270454545454545,
                "pitch": 48,
                "velocity": 51,
                "duration": 0.08409090909091077,
                "tempo": 120.0
            },
            {
                "start_time": 31.27272727272727,
                "end_time": 31.520454545454545,
                "pitch": 49,
                "velocity": 51,
                "duration": 0.2477272727272748,
                "tempo": 120.0
            },
            {
                "start_time": 31.52272727272727,
                "end_time": 31.686363636363634,
                "pitch": 50,
                "velocity": 51,
                "duration": 0.16363636363636402,
                "tempo": 120.0
            },
            {
                "start_time": 31.688636363636363,
                "end_time": 31.77272727272727,
                "pitch": 50,
                "velocity": 51,
                "duration": 0.08409090909090722,
                "tempo": 120.0
            },
            {
                "start_time": 31.77272727272727,
                "end_time": 32.02272727272727,
                "pitch": 49,
                "velocity": 51,
                "duration": 0.25000000000000355,
                "tempo": 120.0
            },
            {
                "start_time": 32.02272727272727,
                "end_time": 32.18863636363636,
                "pitch": 50,
                "velocity": 51,
                "duration": 0.16590909090908923,
                "tempo": 120.0
            },
            {
                "start_time": 32.18863636363636,
                "end_time": 32.27272727272727,
                "pitch": 50,
                "velocity": 51,
                "duration": 0.08409090909091077,
                "tempo": 120.0
            },
            {
                "start_time": 32.27272727272727,
                "end_time": 32.525,
                "pitch": 51,
                "velocity": 51,
                "duration": 0.2522727272727252,
                "tempo": 120.0
            },
            {
                "start_time": 30.936363636363634,
                "end_time": 32.69090909090909,
                "pitch": 52,
                "velocity": 51,
                "duration": 1.754545454545454,
                "tempo": 120.0
            },
            {
                "start_time": 32.525,
                "end_time": 32.69090909090909,
                "pitch": 52,
                "velocity": 51,
                "duration": 0.16590909090908923,
                "tempo": 120.0
            },
            {
                "start_time": 32.69318181818182,
                "end_time": 32.777272727272724,
                "pitch": 52,
                "velocity": 51,
                "duration": 0.08409090909090366,
                "tempo": 120.0
            },
            {
                "start_time": 32.777272727272724,
                "end_time": 33.027272727272724,
                "pitch": 51,
                "velocity": 51,
                "duration": 0.25,
                "tempo": 120.0
            },
            {
                "start_time": 33.027272727272724,
                "end_time": 33.19318181818182,
                "pitch": 52,
                "velocity": 51,
                "duration": 0.16590909090909634,
                "tempo": 120.0
            },
            {
                "start_time": 33.19318181818182,
                "end_time": 33.277272727272724,
                "pitch": 52,
                "velocity": 51,
                "duration": 0.08409090909090366,
                "tempo": 120.0
            },
            {
                "start_time": 33.279545454545456,
                "end_time": 33.527272727272724,
                "pitch": 53,
                "velocity": 51,
                "duration": 0.2477272727272677,
                "tempo": 120.0
            },
            {
                "start_time": 24.5,
                "end_time": 33.69318181818181,
                "pitch": 54,
                "velocity": 51,
                "duration": 9.193181818181813,
                "tempo": 120.0
            },
            {
                "start_time": 33.529545454545456,
                "end_time": 33.69318181818181,
                "pitch": 54,
                "velocity": 51,
                "duration": 0.16363636363635692,
                "tempo": 120.0
            },
            {
                "start_time": 33.695454545454545,
                "end_time": 33.779545454545456,
                "pitch": 54,
                "velocity": 51,
                "duration": 0.08409090909091077,
                "tempo": 120.0
            },
            {
                "start_time": 33.779545454545456,
                "end_time": 34.029545454545456,
                "pitch": 53,
                "velocity": 51,
                "duration": 0.25,
                "tempo": 120.0
            },
            {
                "start_time": 34.029545454545456,
                "end_time": 34.195454545454545,
                "pitch": 54,
                "velocity": 51,
                "duration": 0.16590909090908923,
                "tempo": 120.0
            },
            {
                "start_time": 34.195454545454545,
                "end_time": 34.279545454545456,
                "pitch": 54,
                "velocity": 51,
                "duration": 0.08409090909091077,
                "tempo": 120.0
            },
            {
                "start_time": 36.29545454545455,
                "end_time": 36.54090909090909,
                "pitch": 44,
                "velocity": 80,
                "duration": 0.24545454545454248,
                "tempo": 120.0
            },
            {
                "start_time": 36.54090909090909,
                "end_time": 36.78636363636363,
                "pitch": 46,
                "velocity": 80,
                "duration": 0.24545454545454248,
                "tempo": 120.0
            },
            {
                "start_time": 36.78636363636363,
                "end_time": 37.043181818181814,
                "pitch": 44,
                "velocity": 80,
                "duration": 0.2568181818181827,
                "tempo": 120.0
            },
            {
                "start_time": 37.043181818181814,
                "end_time": 37.3,
                "pitch": 43,
                "velocity": 80,
                "duration": 0.2568181818181827,
                "tempo": 120.0
            },
            {
                "start_time": 37.3,
                "end_time": 37.55,
                "pitch": 42,
                "velocity": 80,
                "duration": 0.25,
                "tempo": 120.0
            },
            {
                "start_time": 27.922727272727272,
                "end_time": 37.715909090909086,
                "pitch": 0,
                "velocity": 51,
                "duration": 9.793181818181814,
                "tempo": 120.0
            },
            {
                "start_time": 37.55,
                "end_time": 37.715909090909086,
                "pitch": 42,
                "velocity": 80,
                "duration": 0.16590909090908923,
                "tempo": 120.0
            },
            {
                "start_time": 37.715909090909086,
                "end_time": 37.76590909090909,
                "pitch": 43,
                "velocity": 80,
                "duration": 0.05000000000000426,
                "tempo": 120.0
            },
            {
                "start_time": 37.76590909090909,
                "end_time": 37.8,
                "pitch": 46,
                "velocity": 80,
                "duration": 0.03409090909090651,
                "tempo": 120.0
            },
            {
                "start_time": 37.8,
                "end_time": 37.85,
                "pitch": 48,
                "velocity": 80,
                "duration": 0.05000000000000426,
                "tempo": 120.0
            },
            {
                "start_time": 37.85,
                "end_time": 37.88409090909091,
                "pitch": 51,
                "velocity": 80,
                "duration": 0.03409090909090651,
                "tempo": 120.0
            },
            {
                "start_time": 37.88409090909091,
                "end_time": 37.965909090909086,
                "pitch": 53,
                "velocity": 80,
                "duration": 0.08181818181817846,
                "tempo": 120.0
            },
            {
                "start_time": 37.965909090909086,
                "end_time": 38.03409090909091,
                "pitch": 51,
                "velocity": 80,
                "duration": 0.06818181818182012,
                "tempo": 120.0
            },
            {
                "start_time": 38.03409090909091,
                "end_time": 38.1,
                "pitch": 49,
                "velocity": 80,
                "duration": 0.06590909090909491,
                "tempo": 120.0
            },
            {
                "start_time": 38.1,
                "end_time": 38.16590909090909,
                "pitch": 47,
                "velocity": 80,
                "duration": 0.06590909090908781,
                "tempo": 120.0
            },
            {
                "start_time": 38.16590909090909,
                "end_time": 38.26590909090909,
                "pitch": 45,
                "velocity": 80,
                "duration": 0.10000000000000142,
                "tempo": 120.0
            },
            {
                "start_time": 38.26590909090909,
                "end_time": 38.30227272727272,
                "pitch": 41,
                "velocity": 80,
                "duration": 0.03636363636363171,
                "tempo": 120.0
            },
            {
                "start_time": 38.304545454545455,
                "end_time": 38.55227272727272,
                "pitch": 43,
                "velocity": 51,
                "duration": 0.2477272727272677,
                "tempo": 120.0
            },
            {
                "start_time": 38.55227272727272,
                "end_time": 38.80227272727272,
                "pitch": 55,
                "velocity": 51,
                "duration": 0.25,
                "tempo": 120.0
            },
            {
                "start_time": 38.80227272727272,
                "end_time": 38.96818181818182,
                "pitch": 53,
                "velocity": 51,
                "duration": 0.16590909090909634,
                "tempo": 120.0
            },
            {
                "start_time": 38.96818181818182,
                "end_time": 39.05227272727272,
                "pitch": 50,
                "velocity": 51,
                "duration": 0.08409090909090366,
                "tempo": 120.0
            },
            {
                "start_time": 39.05227272727272,
                "end_time": 39.21818181818182,
                "pitch": 49,
                "velocity": 51,
                "duration": 0.16590909090909634,
                "tempo": 120.0
            },
            {
                "start_time": 39.21818181818182,
                "end_time": 39.46818181818182,
                "pitch": 50,
                "velocity": 51,
                "duration": 0.25,
                "tempo": 120.0
            },
            {
                "start_time": 39.46818181818182,
                "end_time": 39.55227272727272,
                "pitch": 50,
                "velocity": 51,
                "duration": 0.08409090909090366,
                "tempo": 120.0
            },
            {
                "start_time": 39.554545454545455,
                "end_time": 39.80227272727272,
                "pitch": 50,
                "velocity": 51,
                "duration": 0.2477272727272677,
                "tempo": 120.0
            },
            {
                "start_time": 39.804545454545455,
                "end_time": 40.054545454545455,
                "pitch": 49,
                "velocity": 51,
                "duration": 0.25,
                "tempo": 120.0
            },
            {
                "start_time": 40.054545454545455,
                "end_time": 40.21818181818182,
                "pitch": 48,
                "velocity": 51,
                "duration": 0.16363636363636402,
                "tempo": 120.0
            },
            {
                "start_time": 40.220454545454544,
                "end_time": 40.304545454545455,
                "pitch": 46,
                "velocity": 51,
                "duration": 0.08409090909091077,
                "tempo": 120.0
            },
            {
                "start_time": 40.304545454545455,
                "end_time": 40.554545454545455,
                "pitch": 43,
                "velocity": 51,
                "duration": 0.25,
                "tempo": 120.0
            },
            {
                "start_time": 40.554545454545455,
                "end_time": 40.804545454545455,
                "pitch": 55,
                "velocity": 51,
                "duration": 0.25,
                "tempo": 120.0
            },
            {
                "start_time": 40.804545454545455,
                "end_time": 40.970454545454544,
                "pitch": 53,
                "velocity": 51,
                "duration": 0.16590909090908923,
                "tempo": 120.0
            },
            {
                "start_time": 40.970454545454544,
                "end_time": 41.054545454545455,
                "pitch": 50,
                "velocity": 51,
                "duration": 0.08409090909091077,
                "tempo": 120.0
            },
            {
                "start_time": 41.054545454545455,
                "end_time": 41.220454545454544,
                "pitch": 49,
                "velocity": 51,
                "duration": 0.16590909090908923,
                "tempo": 120.0
            },
            {
                "start_time": 38.1,
                "end_time": 41.60454545454545,
                "pitch": 32,
                "velocity": 80,
                "duration": 3.5045454545454504,
                "tempo": 120.0
            },
            {
                "start_time": 41.220454545454544,
                "end_time": 41.60454545454545,
                "pitch": 50,
                "velocity": 51,
                "duration": 0.38409090909090793,
                "tempo": 120.0
            },
            {
                "start_time": 41.60454545454545,
                "end_time": 41.73863636363636,
                "pitch": 47,
                "velocity": 51,
                "duration": 0.13409090909090793,
                "tempo": 120.0
            },
            {
                "start_time": 42.30681818181818,
                "end_time": 42.55681818181818,
                "pitch": 43,
                "velocity": 51,
                "duration": 0.25,
                "tempo": 120.0
            },
            {
                "start_time": 42.55681818181818,
                "end_time": 42.80681818181818,
                "pitch": 55,
                "velocity": 51,
                "duration": 0.25,
                "tempo": 120.0
            },
            {
                "start_time": 42.80681818181818,
                "end_time": 42.97727272727273,
                "pitch": 53,
                "velocity": 51,
                "duration": 0.17045454545454675,
                "tempo": 120.0
            },
            {
                "start_time": 42.97727272727273,
                "end_time": 43.06363636363636,
                "pitch": 50,
                "velocity": 51,
                "duration": 0.08636363636363598,
                "tempo": 120.0
            },
            {
                "start_time": 43.06363636363636,
                "end_time": 43.23409090909091,
                "pitch": 49,
                "velocity": 51,
                "duration": 0.17045454545454675,
                "tempo": 120.0
            },
            {
                "start_time": 43.23409090909091,
                "end_time": 43.48409090909091,
                "pitch": 50,
                "velocity": 51,
                "duration": 0.25,
                "tempo": 120.0
            },
            {
                "start_time": 43.48409090909091,
                "end_time": 43.56590909090909,
                "pitch": 50,
                "velocity": 51,
                "duration": 0.08181818181817846,
                "tempo": 120.0
            },
            {
                "start_time": 43.56818181818181,
                "end_time": 43.81363636363636,
                "pitch": 53,
                "velocity": 51,
                "duration": 0.2454545454545496,
                "tempo": 120.0
            },
            {
                "start_time": 43.81363636363636,
                "end_time": 44.06818181818181,
                "pitch": 55,
                "velocity": 51,
                "duration": 0.2545454545454504,
                "tempo": 120.0
            },
            {
                "start_time": 44.070454545454545,
                "end_time": 44.23863636363636,
                "pitch": 58,
                "velocity": 51,
                "duration": 0.16818181818181444,
                "tempo": 120.0
            },
            {
                "start_time": 20.15681818181818,
                "end_time": 44.23863636363636,
                "pitch": 64,
                "velocity": 51,
                "duration": 24.08181818181818,
                "tempo": 120.0
            },
            {
                "start_time": 44.23863636363636,
                "end_time": 44.32727272727273,
                "pitch": 60,
                "velocity": 51,
                "duration": 0.08863636363636829,
                "tempo": 120.0
            },
            {
                "start_time": 44.32727272727273,
                "end_time": 44.49090909090909,
                "pitch": 61,
                "velocity": 51,
                "duration": 0.16363636363636402,
                "tempo": 120.0
            },
            {
                "start_time": 44.49090909090909,
                "end_time": 44.57727272727273,
                "pitch": 60,
                "velocity": 51,
                "duration": 0.08636363636363598,
                "tempo": 120.0
            },
            {
                "start_time": 44.57727272727273,
                "end_time": 44.74090909090909,
                "pitch": 58,
                "velocity": 51,
                "duration": 0.16363636363636402,
                "tempo": 120.0
            },
            {
                "start_time": 44.74318181818182,
                "end_time": 44.82727272727273,
                "pitch": 61,
                "velocity": 51,
                "duration": 0.08409090909091077,
                "tempo": 120.0
            },
            {
                "start_time": 44.82727272727273,
                "end_time": 44.99318181818182,
                "pitch": 60,
                "velocity": 51,
                "duration": 0.16590909090908923,
                "tempo": 120.0
            },
            {
                "start_time": 44.99318181818182,
                "end_time": 45.07727272727273,
                "pitch": 58,
                "velocity": 51,
                "duration": 0.08409090909091077,
                "tempo": 120.0
            },
            {
                "start_time": 45.07727272727273,
                "end_time": 45.24318181818182,
                "pitch": 55,
                "velocity": 51,
                "duration": 0.16590909090908923,
                "tempo": 120.0
            },
            {
                "start_time": 45.24318181818182,
                "end_time": 45.559090909090905,
                "pitch": 53,
                "velocity": 51,
                "duration": 0.3159090909090878,
                "tempo": 120.0
            },
            {
                "start_time": 45.559090909090905,
                "end_time": 45.69318181818181,
                "pitch": 51,
                "velocity": 51,
                "duration": 0.13409090909090793,
                "tempo": 120.0
            },
            {
                "start_time": 45.69318181818181,
                "end_time": 45.75909090909091,
                "pitch": 48,
                "velocity": 51,
                "duration": 0.06590909090909491,
                "tempo": 120.0
            },
            {
                "start_time": 46.32954545454545,
                "end_time": 46.57954545454545,
                "pitch": 43,
                "velocity": 51,
                "duration": 0.25,
                "tempo": 120.0
            },
            {
                "start_time": 46.57954545454545,
                "end_time": 46.82954545454545,
                "pitch": 55,
                "velocity": 51,
                "duration": 0.25,
                "tempo": 120.0
            },
            {
                "start_time": 46.82954545454545,
                "end_time": 46.99545454545454,
                "pitch": 53,
                "velocity": 51,
                "duration": 0.16590909090908923,
                "tempo": 120.0
            },
            {
                "start_time": 46.99545454545454,
                "end_time": 47.07954545454545,
                "pitch": 50,
                "velocity": 51,
                "duration": 0.08409090909091077,
                "tempo": 120.0
            },
            {
                "start_time": 47.07954545454545,
                "end_time": 47.24545454545454,
                "pitch": 49,
                "velocity": 51,
                "duration": 0.16590909090908923,
                "tempo": 120.0
            },
            {
                "start_time": 47.24545454545454,
                "end_time": 47.49545454545454,
                "pitch": 50,
                "velocity": 51,
                "duration": 0.25,
                "tempo": 120.0
            },
            {
                "start_time": 47.49545454545454,
                "end_time": 47.57954545454545,
                "pitch": 50,
                "velocity": 51,
                "duration": 0.08409090909091077,
                "tempo": 120.0
            },
            {
                "start_time": 47.58181818181818,
                "end_time": 47.83181818181818,
                "pitch": 50,
                "velocity": 51,
                "duration": 0.25,
                "tempo": 120.0
            },
            {
                "start_time": 47.83181818181818,
                "end_time": 48.08181818181818,
                "pitch": 49,
                "velocity": 51,
                "duration": 0.25,
                "tempo": 120.0
            },
            {
                "start_time": 48.08181818181818,
                "end_time": 48.24772727272727,
                "pitch": 48,
                "velocity": 51,
                "duration": 0.16590909090908923,
                "tempo": 120.0
            },
            {
                "start_time": 48.24772727272727,
                "end_time": 48.33181818181818,
                "pitch": 46,
                "velocity": 51,
                "duration": 0.08409090909091077,
                "tempo": 120.0
            },
            {
                "start_time": 48.33181818181818,
                "end_time": 48.58181818181818,
                "pitch": 43,
                "velocity": 51,
                "duration": 0.25,
                "tempo": 120.0
            },
            {
                "start_time": 48.58181818181818,
                "end_time": 48.83181818181818,
                "pitch": 55,
                "velocity": 51,
                "duration": 0.25,
                "tempo": 120.0
            },
            {
                "start_time": 48.83181818181818,
                "end_time": 48.99772727272727,
                "pitch": 53,
                "velocity": 51,
                "duration": 0.16590909090908923,
                "tempo": 120.0
            },
            {
                "start_time": 48.99772727272727,
                "end_time": 49.08181818181818,
                "pitch": 50,
                "velocity": 51,
                "duration": 0.08409090909091077,
                "tempo": 120.0
            },
            {
                "start_time": 49.08181818181818,
                "end_time": 49.24772727272727,
                "pitch": 49,
                "velocity": 51,
                "duration": 0.16590909090908923,
                "tempo": 120.0
            },
            {
                "start_time": 41.60454545454545,
                "end_time": 49.63181818181818,
                "pitch": 32,
                "velocity": 51,
                "duration": 8.027272727272731,
                "tempo": 120.0
            },
            {
                "start_time": 49.24772727272727,
                "end_time": 49.63181818181818,
                "pitch": 50,
                "velocity": 51,
                "duration": 0.38409090909091503,
                "tempo": 120.0
            },
            {
                "start_time": 49.63181818181818,
                "end_time": 49.76590909090909,
                "pitch": 47,
                "velocity": 51,
                "duration": 0.13409090909090793,
                "tempo": 120.0
            },
            {
                "start_time": 50.334090909090904,
                "end_time": 50.584090909090904,
                "pitch": 43,
                "velocity": 51,
                "duration": 0.25,
                "tempo": 120.0
            },
            {
                "start_time": 50.584090909090904,
                "end_time": 50.834090909090904,
                "pitch": 55,
                "velocity": 51,
                "duration": 0.25,
                "tempo": 120.0
            },
            {
                "start_time": 50.834090909090904,
                "end_time": 51.00454545454545,
                "pitch": 53,
                "velocity": 51,
                "duration": 0.17045454545454675,
                "tempo": 120.0
            },
            {
                "start_time": 51.00454545454545,
                "end_time": 51.090909090909086,
                "pitch": 50,
                "velocity": 51,
                "duration": 0.08636363636363598,
                "tempo": 120.0
            },
            {
                "start_time": 51.090909090909086,
                "end_time": 51.26136363636363,
                "pitch": 49,
                "velocity": 51,
                "duration": 0.17045454545454675,
                "tempo": 120.0
            },
            {
                "start_time": 51.26136363636363,
                "end_time": 51.51363636363636,
                "pitch": 50,
                "velocity": 51,
                "duration": 0.2522727272727252,
                "tempo": 120.0
            },
            {
                "start_time": 51.51363636363636,
                "end_time": 51.59772727272727,
                "pitch": 50,
                "velocity": 51,
                "duration": 0.08409090909091077,
                "tempo": 120.0
            },
            {
                "start_time": 51.59772727272727,
                "end_time": 51.84772727272727,
                "pitch": 53,
                "velocity": 51,
                "duration": 0.25,
                "tempo": 120.0
            },
            {
                "start_time": 51.849999999999994,
                "end_time": 52.09772727272727,
                "pitch": 55,
                "velocity": 51,
                "duration": 0.2477272727272748,
                "tempo": 120.0
            },
            {
                "start_time": 52.099999999999994,
                "end_time": 52.26590909090909,
                "pitch": 58,
                "velocity": 51,
                "duration": 0.16590909090909634,
                "tempo": 120.0
            },
            {
                "start_time": 44.23863636363636,
                "end_time": 52.26590909090909,
                "pitch": 64,
                "velocity": 51,
                "duration": 8.027272727272731,
                "tempo": 120.0
            },
            {
                "start_time": 52.26590909090909,
                "end_time": 52.349999999999994,
                "pitch": 60,
                "velocity": 51,
                "duration": 0.08409090909090366,
                "tempo": 120.0
            },
            {
                "start_time": 52.349999999999994,
                "end_time": 52.51363636363636,
                "pitch": 61,
                "velocity": 51,
                "duration": 0.16363636363636402,
                "tempo": 120.0
            },
            {
                "start_time": 52.51590909090909,
                "end_time": 52.599999999999994,
                "pitch": 60,
                "velocity": 51,
                "duration": 0.08409090909090366,
                "tempo": 120.0
            },
            {
                "start_time": 52.599999999999994,
                "end_time": 52.76590909090909,
                "pitch": 58,
                "velocity": 51,
                "duration": 0.16590909090909634,
                "tempo": 120.0
            },
            {
                "start_time": 52.76590909090909,
                "end_time": 52.849999999999994,
                "pitch": 61,
                "velocity": 51,
                "duration": 0.08409090909090366,
                "tempo": 120.0
            },
            {
                "start_time": 52.849999999999994,
                "end_time": 53.01590909090909,
                "pitch": 60,
                "velocity": 51,
                "duration": 0.16590909090909634,
                "tempo": 120.0
            },
            {
                "start_time": 53.01590909090909,
                "end_time": 53.099999999999994,
                "pitch": 58,
                "velocity": 51,
                "duration": 0.08409090909090366,
                "tempo": 120.0
            },
            {
                "start_time": 53.099999999999994,
                "end_time": 53.26590909090909,
                "pitch": 55,
                "velocity": 51,
                "duration": 0.16590909090909634,
                "tempo": 120.0
            },
            {
                "start_time": 53.26590909090909,
                "end_time": 53.58181818181818,
                "pitch": 53,
                "velocity": 51,
                "duration": 0.3159090909090878,
                "tempo": 120.0
            },
            {
                "start_time": 53.58181818181818,
                "end_time": 53.715909090909086,
                "pitch": 51,
                "velocity": 51,
                "duration": 0.13409090909090793,
                "tempo": 120.0
            },
            {
                "start_time": 53.715909090909086,
                "end_time": 53.78409090909091,
                "pitch": 48,
                "velocity": 51,
                "duration": 0.06818181818182012,
                "tempo": 120.0
            }
        ],
        "Clarinet": [
            {
                "start_time": 34.279545454545456,
                "end_time": 35.16136363636363,
                "pitch": 103,
                "velocity": 64,
                "duration": 0.8818181818181756,
                "tempo": 120.0
            },
            {
                "start_time": 35.16136363636363,
                "end_time": 35.21363636363636,
                "pitch": 106,
                "velocity": 64,
                "duration": 0.05227272727272947,
                "tempo": 120.0
            }
        ],
        "Synth Bass 1": [
            {
                "start_time": 22.24772727272727,
                "end_time": 22.345454545454544,
                "pitch": 79,
                "velocity": 80,
                "duration": 0.09772727272727266,
                "tempo": 120.0
            },
            {
                "start_time": 22.429545454545455,
                "end_time": 22.461363636363636,
                "pitch": 77,
                "velocity": 80,
                "duration": 0.0318181818181813,
                "tempo": 120.0
            },
            {
                "start_time": 22.495454545454546,
                "end_time": 22.595454545454544,
                "pitch": 74,
                "velocity": 80,
                "duration": 0.09999999999999787,
                "tempo": 120.0
            },
            {
                "start_time": 22.679545454545455,
                "end_time": 22.71363636363636,
                "pitch": 72,
                "velocity": 80,
                "duration": 0.03409090909090651,
                "tempo": 120.0
            },
            {
                "start_time": 22.74772727272727,
                "end_time": 22.845454545454544,
                "pitch": 71,
                "velocity": 80,
                "duration": 0.09772727272727266,
                "tempo": 120.0
            },
            {
                "start_time": 22.929545454545455,
                "end_time": 22.96363636363636,
                "pitch": 72,
                "velocity": 80,
                "duration": 0.03409090909090651,
                "tempo": 120.0
            },
            {
                "start_time": 22.99772727272727,
                "end_time": 23.095454545454544,
                "pitch": 79,
                "velocity": 80,
                "duration": 0.09772727272727266,
                "tempo": 120.0
            },
            {
                "start_time": 23.179545454545455,
                "end_time": 23.21363636363636,
                "pitch": 77,
                "velocity": 80,
                "duration": 0.03409090909090651,
                "tempo": 120.0
            },
            {
                "start_time": 23.24772727272727,
                "end_time": 23.347727272727273,
                "pitch": 74,
                "velocity": 80,
                "duration": 0.10000000000000142,
                "tempo": 120.0
            },
            {
                "start_time": 23.43181818181818,
                "end_time": 23.46363636363636,
                "pitch": 72,
                "velocity": 80,
                "duration": 0.0318181818181813,
                "tempo": 120.0
            },
            {
                "start_time": 23.49772727272727,
                "end_time": 23.597727272727273,
                "pitch": 71,
                "velocity": 80,
                "duration": 0.10000000000000142,
                "tempo": 120.0
            },
            {
                "start_time": 23.68181818181818,
                "end_time": 23.71363636363636,
                "pitch": 72,
                "velocity": 80,
                "duration": 0.0318181818181813,
                "tempo": 120.0
            },
            {
                "start_time": 23.74772727272727,
                "end_time": 23.847727272727273,
                "pitch": 79,
                "velocity": 80,
                "duration": 0.10000000000000142,
                "tempo": 120.0
            },
            {
                "start_time": 23.93181818181818,
                "end_time": 23.96363636363636,
                "pitch": 77,
                "velocity": 80,
                "duration": 0.0318181818181813,
                "tempo": 120.0
            },
            {
                "start_time": 23.99772727272727,
                "end_time": 24.097727272727273,
                "pitch": 74,
                "velocity": 80,
                "duration": 0.10000000000000142,
                "tempo": 120.0
            },
            {
                "start_time": 24.18181818181818,
                "end_time": 24.21363636363636,
                "pitch": 72,
                "velocity": 80,
                "duration": 0.0318181818181813,
                "tempo": 120.0
            },
            {
                "start_time": 24.25,
                "end_time": 24.347727272727273,
                "pitch": 71,
                "velocity": 80,
                "duration": 0.09772727272727266,
                "tempo": 120.0
            },
            {
                "start_time": 24.43181818181818,
                "end_time": 24.46590909090909,
                "pitch": 72,
                "velocity": 80,
                "duration": 0.03409090909091006,
                "tempo": 120.0
            },
            {
                "start_time": 24.5,
                "end_time": 24.597727272727273,
                "pitch": 79,
                "velocity": 80,
                "duration": 0.09772727272727266,
                "tempo": 120.0
            },
            {
                "start_time": 24.68181818181818,
                "end_time": 24.71590909090909,
                "pitch": 77,
                "velocity": 80,
                "duration": 0.03409090909091006,
                "tempo": 120.0
            },
            {
                "start_time": 24.75,
                "end_time": 24.847727272727273,
                "pitch": 74,
                "velocity": 80,
                "duration": 0.09772727272727266,
                "tempo": 120.0
            },
            {
                "start_time": 24.93181818181818,
                "end_time": 24.96590909090909,
                "pitch": 72,
                "velocity": 80,
                "duration": 0.03409090909091006,
                "tempo": 120.0
            },
            {
                "start_time": 25.0,
                "end_time": 25.099999999999998,
                "pitch": 71,
                "velocity": 80,
                "duration": 0.09999999999999787,
                "tempo": 120.0
            },
            {
                "start_time": 25.18181818181818,
                "end_time": 25.21590909090909,
                "pitch": 72,
                "velocity": 80,
                "duration": 0.03409090909091006,
                "tempo": 120.0
            },
            {
                "start_time": 25.25,
                "end_time": 25.349999999999998,
                "pitch": 79,
                "velocity": 80,
                "duration": 0.09999999999999787,
                "tempo": 120.0
            },
            {
                "start_time": 25.43409090909091,
                "end_time": 25.46590909090909,
                "pitch": 77,
                "velocity": 80,
                "duration": 0.0318181818181813,
                "tempo": 120.0
            },
            {
                "start_time": 25.5,
                "end_time": 25.599999999999998,
                "pitch": 74,
                "velocity": 80,
                "duration": 0.09999999999999787,
                "tempo": 120.0
            },
            {
                "start_time": 25.68409090909091,
                "end_time": 25.71590909090909,
                "pitch": 72,
                "velocity": 80,
                "duration": 0.0318181818181813,
                "tempo": 120.0
            },
            {
                "start_time": 25.752272727272725,
                "end_time": 25.849999999999998,
                "pitch": 71,
                "velocity": 80,
                "duration": 0.09772727272727266,
                "tempo": 120.0
            },
            {
                "start_time": 25.93409090909091,
                "end_time": 25.96590909090909,
                "pitch": 72,
                "velocity": 80,
                "duration": 0.0318181818181813,
                "tempo": 120.0
            },
            {
                "start_time": 26.002272727272725,
                "end_time": 26.099999999999998,
                "pitch": 79,
                "velocity": 80,
                "duration": 0.09772727272727266,
                "tempo": 120.0
            },
            {
                "start_time": 26.18409090909091,
                "end_time": 26.218181818181815,
                "pitch": 77,
                "velocity": 80,
                "duration": 0.03409090909090651,
                "tempo": 120.0
            },
            {
                "start_time": 26.252272727272725,
                "end_time": 26.349999999999998,
                "pitch": 74,
                "velocity": 80,
                "duration": 0.09772727272727266,
                "tempo": 120.0
            },
            {
                "start_time": 26.43409090909091,
                "end_time": 26.468181818181815,
                "pitch": 72,
                "velocity": 80,
                "duration": 0.03409090909090651,
                "tempo": 120.0
            },
            {
                "start_time": 26.502272727272725,
                "end_time": 26.599999999999998,
                "pitch": 71,
                "velocity": 80,
                "duration": 0.09772727272727266,
                "tempo": 120.0
            },
            {
                "start_time": 26.68409090909091,
                "end_time": 26.718181818181815,
                "pitch": 72,
                "velocity": 80,
                "duration": 0.03409090909090651,
                "tempo": 120.0
            },
            {
                "start_time": 26.752272727272725,
                "end_time": 26.849999999999998,
                "pitch": 79,
                "velocity": 80,
                "duration": 0.09772727272727266,
                "tempo": 120.0
            },
            {
                "start_time": 26.93409090909091,
                "end_time": 26.968181818181815,
                "pitch": 77,
                "velocity": 80,
                "duration": 0.03409090909090651,
                "tempo": 120.0
            },
            {
                "start_time": 27.002272727272725,
                "end_time": 27.102272727272727,
                "pitch": 74,
                "velocity": 80,
                "duration": 0.10000000000000142,
                "tempo": 120.0
            },
            {
                "start_time": 27.18409090909091,
                "end_time": 27.218181818181815,
                "pitch": 72,
                "velocity": 80,
                "duration": 0.03409090909090651,
                "tempo": 120.0
            },
            {
                "start_time": 27.252272727272725,
                "end_time": 27.352272727272727,
                "pitch": 71,
                "velocity": 80,
                "duration": 0.10000000000000142,
                "tempo": 120.0
            },
            {
                "start_time": 27.436363636363634,
                "end_time": 27.468181818181815,
                "pitch": 72,
                "velocity": 80,
                "duration": 0.0318181818181813,
                "tempo": 120.0
            },
            {
                "start_time": 27.502272727272725,
                "end_time": 27.602272727272727,
                "pitch": 79,
                "velocity": 80,
                "duration": 0.10000000000000142,
                "tempo": 120.0
            },
            {
                "start_time": 27.686363636363634,
                "end_time": 27.718181818181815,
                "pitch": 77,
                "velocity": 80,
                "duration": 0.0318181818181813,
                "tempo": 120.0
            },
            {
                "start_time": 27.754545454545454,
                "end_time": 27.854545454545452,
                "pitch": 74,
                "velocity": 80,
                "duration": 0.09999999999999787,
                "tempo": 120.0
            },
            {
                "start_time": 27.940909090909088,
                "end_time": 27.974999999999998,
                "pitch": 72,
                "velocity": 80,
                "duration": 0.03409090909091006,
                "tempo": 120.0
            },
            {
                "start_time": 28.009090909090908,
                "end_time": 28.111363636363635,
                "pitch": 71,
                "velocity": 80,
                "duration": 0.10227272727272663,
                "tempo": 120.0
            },
            {
                "start_time": 28.19772727272727,
                "end_time": 28.23181818181818,
                "pitch": 72,
                "velocity": 80,
                "duration": 0.03409090909091006,
                "tempo": 120.0
            },
            {
                "start_time": 28.26590909090909,
                "end_time": 28.36590909090909,
                "pitch": 79,
                "velocity": 80,
                "duration": 0.09999999999999787,
                "tempo": 120.0
            },
            {
                "start_time": 28.45,
                "end_time": 28.48409090909091,
                "pitch": 77,
                "velocity": 80,
                "duration": 0.03409090909091006,
                "tempo": 120.0
            },
            {
                "start_time": 28.518181818181816,
                "end_time": 28.61590909090909,
                "pitch": 74,
                "velocity": 80,
                "duration": 0.09772727272727266,
                "tempo": 120.0
            },
            {
                "start_time": 28.7,
                "end_time": 28.73409090909091,
                "pitch": 72,
                "velocity": 80,
                "duration": 0.03409090909091006,
                "tempo": 120.0
            },
            {
                "start_time": 28.768181818181816,
                "end_time": 28.86590909090909,
                "pitch": 71,
                "velocity": 80,
                "duration": 0.09772727272727266,
                "tempo": 120.0
            },
            {
                "start_time": 28.95,
                "end_time": 28.98409090909091,
                "pitch": 72,
                "velocity": 80,
                "duration": 0.03409090909091006,
                "tempo": 120.0
            },
            {
                "start_time": 34.279545454545456,
                "end_time": 34.377272727272725,
                "pitch": 63,
                "velocity": 101,
                "duration": 0.09772727272726911,
                "tempo": 120.0
            },
            {
                "start_time": 34.377272727272725,
                "end_time": 34.461363636363636,
                "pitch": 65,
                "velocity": 101,
                "duration": 0.08409090909091077,
                "tempo": 120.0
            },
            {
                "start_time": 34.64545454545454,
                "end_time": 34.711363636363636,
                "pitch": 75,
                "velocity": 101,
                "duration": 0.06590909090909491,
                "tempo": 120.0
            },
            {
                "start_time": 34.779545454545456,
                "end_time": 34.845454545454544,
                "pitch": 83,
                "velocity": 101,
                "duration": 0.06590909090908781,
                "tempo": 120.0
            },
            {
                "start_time": 34.91136363636363,
                "end_time": 34.97954545454545,
                "pitch": 77,
                "velocity": 101,
                "duration": 0.06818181818182012,
                "tempo": 120.0
            },
            {
                "start_time": 35.04545454545455,
                "end_time": 35.111363636363635,
                "pitch": 83,
                "velocity": 101,
                "duration": 0.06590909090908781,
                "tempo": 120.0
            },
            {
                "start_time": 35.179545454545455,
                "end_time": 35.26136363636363,
                "pitch": 72,
                "velocity": 101,
                "duration": 0.08181818181817846,
                "tempo": 120.0
            },
            {
                "start_time": 35.26136363636363,
                "end_time": 35.32954545454545,
                "pitch": 74,
                "velocity": 101,
                "duration": 0.06818181818182012,
                "tempo": 120.0
            },
            {
                "start_time": 35.46363636363636,
                "end_time": 35.54545454545455,
                "pitch": 76,
                "velocity": 101,
                "duration": 0.08181818181818556,
                "tempo": 120.0
            },
            {
                "start_time": 35.62954545454545,
                "end_time": 35.71363636363636,
                "pitch": 77,
                "velocity": 101,
                "duration": 0.08409090909091077,
                "tempo": 120.0
            },
            {
                "start_time": 35.79772727272727,
                "end_time": 35.88181818181818,
                "pitch": 74,
                "velocity": 101,
                "duration": 0.08409090909091077,
                "tempo": 120.0
            },
            {
                "start_time": 35.96818181818182,
                "end_time": 36.03636363636363,
                "pitch": 72,
                "velocity": 101,
                "duration": 0.06818181818181301,
                "tempo": 120.0
            },
            {
                "start_time": 36.03636363636363,
                "end_time": 36.10454545454545,
                "pitch": 70,
                "velocity": 101,
                "duration": 0.06818181818182012,
                "tempo": 120.0
            },
            {
                "start_time": 36.10454545454545,
                "end_time": 36.15681818181818,
                "pitch": 67,
                "velocity": 101,
                "duration": 0.05227272727272947,
                "tempo": 120.0
            },
            {
                "start_time": 36.34318181818182,
                "end_time": 36.35909090909091,
                "pitch": 67,
                "velocity": 101,
                "duration": 0.01590909090909065,
                "tempo": 120.0
            },
            {
                "start_time": 36.35909090909091,
                "end_time": 36.45681818181818,
                "pitch": 67,
                "velocity": 101,
                "duration": 0.09772727272726911,
                "tempo": 120.0
            },
            {
                "start_time": 36.45681818181818,
                "end_time": 36.52272727272727,
                "pitch": 64,
                "velocity": 101,
                "duration": 0.06590909090909491,
                "tempo": 120.0
            },
            {
                "start_time": 36.70454545454545,
                "end_time": 36.78636363636363,
                "pitch": 71,
                "velocity": 101,
                "duration": 0.08181818181817846,
                "tempo": 120.0
            },
            {
                "start_time": 36.85454545454545,
                "end_time": 36.93863636363636,
                "pitch": 83,
                "velocity": 127,
                "duration": 0.08409090909091077,
                "tempo": 120.0
            },
            {
                "start_time": 36.35909090909091,
                "end_time": 37.025,
                "pitch": 79,
                "velocity": 101,
                "duration": 0.6659090909090892,
                "tempo": 120.0
            },
            {
                "start_time": 37.00681818181818,
                "end_time": 37.025,
                "pitch": 79,
                "velocity": 127,
                "duration": 0.018181818181815856,
                "tempo": 120.0
            },
            {
                "start_time": 37.025,
                "end_time": 37.09318181818182,
                "pitch": 79,
                "velocity": 127,
                "duration": 0.06818181818182012,
                "tempo": 120.0
            },
            {
                "start_time": 37.16136363636363,
                "end_time": 37.24772727272727,
                "pitch": 89,
                "velocity": 127,
                "duration": 0.08636363636363598,
                "tempo": 120.0
            },
            {
                "start_time": 37.025,
                "end_time": 37.33181818181818,
                "pitch": 91,
                "velocity": 127,
                "duration": 0.3068181818181799,
                "tempo": 120.0
            },
            {
                "start_time": 37.31590909090909,
                "end_time": 37.33181818181818,
                "pitch": 91,
                "velocity": 127,
                "duration": 0.01590909090909065,
                "tempo": 120.0
            },
            {
                "start_time": 37.33181818181818,
                "end_time": 37.39772727272727,
                "pitch": 91,
                "velocity": 127,
                "duration": 0.06590909090909491,
                "tempo": 120.0
            },
            {
                "start_time": 37.465909090909086,
                "end_time": 37.55,
                "pitch": 95,
                "velocity": 127,
                "duration": 0.08409090909091077,
                "tempo": 120.0
            }
        ],
        "Trumpet": [
            {
                "start_time": 29.018181818181816,
                "end_time": 29.099999999999998,
                "pitch": 103,
                "velocity": 64,
                "duration": 0.08181818181818201,
                "tempo": 120.0
            },
            {
                "start_time": 29.268181818181816,
                "end_time": 29.349999999999998,
                "pitch": 103,
                "velocity": 64,
                "duration": 0.08181818181818201,
                "tempo": 120.0
            },
            {
                "start_time": 29.518181818181816,
                "end_time": 29.602272727272727,
                "pitch": 103,
                "velocity": 64,
                "duration": 0.08409090909091077,
                "tempo": 120.0
            },
            {
                "start_time": 29.768181818181816,
                "end_time": 29.852272727272727,
                "pitch": 103,
                "velocity": 64,
                "duration": 0.08409090909091077,
                "tempo": 120.0
            },
            {
                "start_time": 30.020454545454545,
                "end_time": 30.102272727272727,
                "pitch": 103,
                "velocity": 64,
                "duration": 0.08181818181818201,
                "tempo": 120.0
            },
            {
                "start_time": 30.270454545454545,
                "end_time": 30.352272727272727,
                "pitch": 103,
                "velocity": 64,
                "duration": 0.08181818181818201,
                "tempo": 120.0
            },
            {
                "start_time": 30.520454545454545,
                "end_time": 30.602272727272727,
                "pitch": 103,
                "velocity": 64,
                "duration": 0.08181818181818201,
                "tempo": 120.0
            },
            {
                "start_time": 30.770454545454545,
                "end_time": 30.852272727272727,
                "pitch": 103,
                "velocity": 64,
                "duration": 0.08181818181818201,
                "tempo": 120.0
            },
            {
                "start_time": 31.020454545454545,
                "end_time": 31.102272727272727,
                "pitch": 103,
                "velocity": 64,
                "duration": 0.08181818181818201,
                "tempo": 120.0
            },
            {
                "start_time": 31.270454545454545,
                "end_time": 31.352272727272727,
                "pitch": 103,
                "velocity": 64,
                "duration": 0.08181818181818201,
                "tempo": 120.0
            },
            {
                "start_time": 31.520454545454545,
                "end_time": 31.602272727272727,
                "pitch": 103,
                "velocity": 64,
                "duration": 0.08181818181818201,
                "tempo": 120.0
            },
            {
                "start_time": 31.77272727272727,
                "end_time": 31.854545454545452,
                "pitch": 103,
                "velocity": 64,
                "duration": 0.08181818181818201,
                "tempo": 120.0
            },
            {
                "start_time": 32.02272727272727,
                "end_time": 32.10454545454545,
                "pitch": 103,
                "velocity": 64,
                "duration": 0.08181818181817846,
                "tempo": 120.0
            },
            {
                "start_time": 32.27272727272727,
                "end_time": 32.35454545454545,
                "pitch": 103,
                "velocity": 64,
                "duration": 0.08181818181817846,
                "tempo": 120.0
            },
            {
                "start_time": 32.525,
                "end_time": 32.60681818181818,
                "pitch": 103,
                "velocity": 64,
                "duration": 0.08181818181817846,
                "tempo": 120.0
            },
            {
                "start_time": 32.777272727272724,
                "end_time": 32.85909090909091,
                "pitch": 103,
                "velocity": 64,
                "duration": 0.08181818181818556,
                "tempo": 120.0
            },
            {
                "start_time": 33.027272727272724,
                "end_time": 33.10909090909091,
                "pitch": 103,
                "velocity": 64,
                "duration": 0.08181818181818556,
                "tempo": 120.0
            },
            {
                "start_time": 33.277272727272724,
                "end_time": 33.35909090909091,
                "pitch": 103,
                "velocity": 64,
                "duration": 0.08181818181818556,
                "tempo": 120.0
            },
            {
                "start_time": 33.527272727272724,
                "end_time": 33.60909090909091,
                "pitch": 103,
                "velocity": 64,
                "duration": 0.08181818181818556,
                "tempo": 120.0
            },
            {
                "start_time": 33.779545454545456,
                "end_time": 33.861363636363635,
                "pitch": 103,
                "velocity": 64,
                "duration": 0.08181818181817846,
                "tempo": 120.0
            },
            {
                "start_time": 34.029545454545456,
                "end_time": 34.111363636363635,
                "pitch": 103,
                "velocity": 64,
                "duration": 0.08181818181817846,
                "tempo": 120.0
            }
        ],
        "Acoustic Bass": [
            {
                "start_time": 0.16136363636363635,
                "end_time": 1.0,
                "pitch": 31,
                "velocity": 80,
                "duration": 0.8386363636363636,
                "tempo": 120.0
            },
            {
                "start_time": 1.0,
                "end_time": 1.0863636363636364,
                "pitch": 31,
                "velocity": 80,
                "duration": 0.08636363636363642,
                "tempo": 120.0
            },
            {
                "start_time": 1.0863636363636364,
                "end_time": 1.1727272727272726,
                "pitch": 31,
                "velocity": 80,
                "duration": 0.0863636363636362,
                "tempo": 120.0
            },
            {
                "start_time": 1.1727272727272726,
                "end_time": 2.006818181818182,
                "pitch": 31,
                "velocity": 80,
                "duration": 0.8340909090909092,
                "tempo": 120.0
            },
            {
                "start_time": 2.006818181818182,
                "end_time": 2.0886363636363634,
                "pitch": 31,
                "velocity": 80,
                "duration": 0.08181818181818157,
                "tempo": 120.0
            },
            {
                "start_time": 2.0886363636363634,
                "end_time": 2.175,
                "pitch": 31,
                "velocity": 80,
                "duration": 0.08636363636363642,
                "tempo": 120.0
            },
            {
                "start_time": 2.175,
                "end_time": 3.0113636363636362,
                "pitch": 32,
                "velocity": 80,
                "duration": 0.8363636363636364,
                "tempo": 120.0
            },
            {
                "start_time": 3.0113636363636362,
                "end_time": 3.0954545454545452,
                "pitch": 32,
                "velocity": 80,
                "duration": 0.084090909090909,
                "tempo": 120.0
            },
            {
                "start_time": 3.0954545454545452,
                "end_time": 3.1795454545454542,
                "pitch": 32,
                "velocity": 80,
                "duration": 0.084090909090909,
                "tempo": 120.0
            },
            {
                "start_time": 3.1795454545454542,
                "end_time": 4.013636363636364,
                "pitch": 32,
                "velocity": 80,
                "duration": 0.8340909090909094,
                "tempo": 120.0
            },
            {
                "start_time": 4.013636363636364,
                "end_time": 4.095454545454546,
                "pitch": 32,
                "velocity": 80,
                "duration": 0.08181818181818201,
                "tempo": 120.0
            },
            {
                "start_time": 4.095454545454546,
                "end_time": 4.181818181818182,
                "pitch": 32,
                "velocity": 80,
                "duration": 0.08636363636363598,
                "tempo": 120.0
            },
            {
                "start_time": 4.181818181818182,
                "end_time": 4.431818181818182,
                "pitch": 32,
                "velocity": 80,
                "duration": 0.25,
                "tempo": 120.0
            },
            {
                "start_time": 4.431818181818182,
                "end_time": 4.681818181818182,
                "pitch": 34,
                "velocity": 80,
                "duration": 0.25,
                "tempo": 120.0
            },
            {
                "start_time": 4.681818181818182,
                "end_time": 4.9386363636363635,
                "pitch": 32,
                "velocity": 80,
                "duration": 0.25681818181818183,
                "tempo": 120.0
            },
            {
                "start_time": 4.9386363636363635,
                "end_time": 5.195454545454545,
                "pitch": 31,
                "velocity": 80,
                "duration": 0.25681818181818183,
                "tempo": 120.0
            },
            {
                "start_time": 5.195454545454545,
                "end_time": 5.445454545454545,
                "pitch": 30,
                "velocity": 80,
                "duration": 0.25,
                "tempo": 120.0
            },
            {
                "start_time": 5.445454545454545,
                "end_time": 5.611363636363636,
                "pitch": 30,
                "velocity": 80,
                "duration": 0.165909090909091,
                "tempo": 120.0
            },
            {
                "start_time": 5.611363636363636,
                "end_time": 5.661363636363636,
                "pitch": 31,
                "velocity": 80,
                "duration": 0.04999999999999982,
                "tempo": 120.0
            },
            {
                "start_time": 5.661363636363636,
                "end_time": 5.695454545454545,
                "pitch": 34,
                "velocity": 80,
                "duration": 0.03409090909090917,
                "tempo": 120.0
            },
            {
                "start_time": 5.695454545454545,
                "end_time": 5.727272727272727,
                "pitch": 36,
                "velocity": 80,
                "duration": 0.0318181818181813,
                "tempo": 120.0
            },
            {
                "start_time": 5.727272727272727,
                "end_time": 5.761363636363636,
                "pitch": 38,
                "velocity": 80,
                "duration": 0.03409090909090917,
                "tempo": 120.0
            },
            {
                "start_time": 5.695454545454545,
                "end_time": 5.8954545454545455,
                "pitch": 40,
                "velocity": 80,
                "duration": 0.20000000000000018,
                "tempo": 120.0
            },
            {
                "start_time": 5.761363636363636,
                "end_time": 5.8954545454545455,
                "pitch": 40,
                "velocity": 80,
                "duration": 0.1340909090909097,
                "tempo": 120.0
            },
            {
                "start_time": 5.8954545454545455,
                "end_time": 5.961363636363636,
                "pitch": 38,
                "velocity": 80,
                "duration": 0.06590909090909047,
                "tempo": 120.0
            },
            {
                "start_time": 5.961363636363636,
                "end_time": 5.995454545454545,
                "pitch": 36,
                "velocity": 80,
                "duration": 0.03409090909090917,
                "tempo": 120.0
            },
            {
                "start_time": 5.995454545454545,
                "end_time": 6.0613636363636365,
                "pitch": 35,
                "velocity": 80,
                "duration": 0.06590909090909136,
                "tempo": 120.0
            },
            {
                "start_time": 6.0613636363636365,
                "end_time": 6.161363636363636,
                "pitch": 33,
                "velocity": 80,
                "duration": 0.09999999999999964,
                "tempo": 120.0
            },
            {
                "start_time": 6.161363636363636,
                "end_time": 6.197727272727272,
                "pitch": 29,
                "velocity": 80,
                "duration": 0.036363636363636154,
                "tempo": 120.0
            },
            {
                "start_time": 6.199999999999999,
                "end_time": 6.447727272727272,
                "pitch": 31,
                "velocity": 80,
                "duration": 0.24772727272727302,
                "tempo": 120.0
            },
            {
                "start_time": 6.447727272727272,
                "end_time": 6.697727272727272,
                "pitch": 43,
                "velocity": 80,
                "duration": 0.25,
                "tempo": 120.0
            },
            {
                "start_time": 6.697727272727272,
                "end_time": 6.863636363636363,
                "pitch": 41,
                "velocity": 80,
                "duration": 0.165909090909091,
                "tempo": 120.0
            },
            {
                "start_time": 6.863636363636363,
                "end_time": 6.947727272727272,
                "pitch": 38,
                "velocity": 80,
                "duration": 0.084090909090909,
                "tempo": 120.0
            },
            {
                "start_time": 6.947727272727272,
                "end_time": 7.113636363636363,
                "pitch": 37,
                "velocity": 80,
                "duration": 0.165909090909091,
                "tempo": 120.0
            },
            {
                "start_time": 7.113636363636363,
                "end_time": 7.363636363636363,
                "pitch": 38,
                "velocity": 80,
                "duration": 0.25,
                "tempo": 120.0
            },
            {
                "start_time": 7.363636363636363,
                "end_time": 7.447727272727272,
                "pitch": 38,
                "velocity": 80,
                "duration": 0.084090909090909,
                "tempo": 120.0
            },
            {
                "start_time": 7.449999999999999,
                "end_time": 7.697727272727272,
                "pitch": 38,
                "velocity": 80,
                "duration": 0.24772727272727302,
                "tempo": 120.0
            },
            {
                "start_time": 7.699999999999999,
                "end_time": 7.949999999999999,
                "pitch": 37,
                "velocity": 80,
                "duration": 0.25,
                "tempo": 120.0
            },
            {
                "start_time": 7.949999999999999,
                "end_time": 8.113636363636363,
                "pitch": 36,
                "velocity": 80,
                "duration": 0.16363636363636402,
                "tempo": 120.0
            },
            {
                "start_time": 8.11590909090909,
                "end_time": 8.2,
                "pitch": 34,
                "velocity": 80,
                "duration": 0.084090909090909,
                "tempo": 120.0
            },
            {
                "start_time": 8.2,
                "end_time": 8.452272727272726,
                "pitch": 31,
                "velocity": 80,
                "duration": 0.252272727272727,
                "tempo": 120.0
            },
            {
                "start_time": 8.452272727272726,
                "end_time": 8.704545454545453,
                "pitch": 43,
                "velocity": 80,
                "duration": 0.252272727272727,
                "tempo": 120.0
            },
            {
                "start_time": 8.704545454545453,
                "end_time": 8.870454545454544,
                "pitch": 41,
                "velocity": 80,
                "duration": 0.165909090909091,
                "tempo": 120.0
            },
            {
                "start_time": 8.870454545454544,
                "end_time": 8.954545454545453,
                "pitch": 38,
                "velocity": 80,
                "duration": 0.084090909090909,
                "tempo": 120.0
            },
            {
                "start_time": 8.954545454545453,
                "end_time": 9.120454545454544,
                "pitch": 37,
                "velocity": 80,
                "duration": 0.165909090909091,
                "tempo": 120.0
            },
            {
                "start_time": 9.120454545454544,
                "end_time": 9.436363636363636,
                "pitch": 38,
                "velocity": 80,
                "duration": 0.31590909090909136,
                "tempo": 120.0
            },
            {
                "start_time": 5.995454545454545,
                "end_time": 9.504545454545454,
                "pitch": 19,
                "velocity": 80,
                "duration": 3.509090909090909,
                "tempo": 120.0
            },
            {
                "start_time": 9.436363636363636,
                "end_time": 9.504545454545454,
                "pitch": 36,
                "velocity": 80,
                "duration": 0.06818181818181834,
                "tempo": 120.0
            },
            {
                "start_time": 9.504545454545454,
                "end_time": 9.636363636363637,
                "pitch": 35,
                "velocity": 80,
                "duration": 0.13181818181818272,
                "tempo": 120.0
            },
            {
                "start_time": 10.206818181818182,
                "end_time": 10.456818181818182,
                "pitch": 31,
                "velocity": 80,
                "duration": 0.25,
                "tempo": 120.0
            },
            {
                "start_time": 10.456818181818182,
                "end_time": 10.706818181818182,
                "pitch": 43,
                "velocity": 80,
                "duration": 0.25,
                "tempo": 120.0
            },
            {
                "start_time": 10.706818181818182,
                "end_time": 10.872727272727273,
                "pitch": 41,
                "velocity": 80,
                "duration": 0.165909090909091,
                "tempo": 120.0
            },
            {
                "start_time": 10.872727272727273,
                "end_time": 10.956818181818182,
                "pitch": 38,
                "velocity": 80,
                "duration": 0.084090909090909,
                "tempo": 120.0
            },
            {
                "start_time": 10.956818181818182,
                "end_time": 11.122727272727273,
                "pitch": 37,
                "velocity": 80,
                "duration": 0.165909090909091,
                "tempo": 120.0
            },
            {
                "start_time": 11.122727272727273,
                "end_time": 11.372727272727273,
                "pitch": 38,
                "velocity": 80,
                "duration": 0.25,
                "tempo": 120.0
            },
            {
                "start_time": 11.372727272727273,
                "end_time": 11.456818181818182,
                "pitch": 38,
                "velocity": 80,
                "duration": 0.084090909090909,
                "tempo": 120.0
            },
            {
                "start_time": 11.459090909090909,
                "end_time": 11.709090909090909,
                "pitch": 41,
                "velocity": 80,
                "duration": 0.25,
                "tempo": 120.0
            },
            {
                "start_time": 11.709090909090909,
                "end_time": 11.963636363636363,
                "pitch": 43,
                "velocity": 80,
                "duration": 0.25454545454545396,
                "tempo": 120.0
            },
            {
                "start_time": 11.96590909090909,
                "end_time": 12.134090909090908,
                "pitch": 46,
                "velocity": 80,
                "duration": 0.168181818181818,
                "tempo": 120.0
            },
            {
                "start_time": 12.134090909090908,
                "end_time": 12.222727272727273,
                "pitch": 48,
                "velocity": 80,
                "duration": 0.08863636363636473,
                "tempo": 120.0
            },
            {
                "start_time": 12.222727272727273,
                "end_time": 12.386363636363635,
                "pitch": 49,
                "velocity": 80,
                "duration": 0.16363636363636225,
                "tempo": 120.0
            },
            {
                "start_time": 12.386363636363635,
                "end_time": 12.472727272727273,
                "pitch": 48,
                "velocity": 80,
                "duration": 0.08636363636363775,
                "tempo": 120.0
            },
            {
                "start_time": 12.472727272727273,
                "end_time": 12.636363636363635,
                "pitch": 46,
                "velocity": 80,
                "duration": 0.16363636363636225,
                "tempo": 120.0
            },
            {
                "start_time": 12.638636363636364,
                "end_time": 12.722727272727273,
                "pitch": 49,
                "velocity": 80,
                "duration": 0.084090909090909,
                "tempo": 120.0
            },
            {
                "start_time": 12.722727272727273,
                "end_time": 12.888636363636364,
                "pitch": 48,
                "velocity": 80,
                "duration": 0.165909090909091,
                "tempo": 120.0
            },
            {
                "start_time": 12.888636363636364,
                "end_time": 12.972727272727273,
                "pitch": 46,
                "velocity": 80,
                "duration": 0.084090909090909,
                "tempo": 120.0
            },
            {
                "start_time": 12.972727272727273,
                "end_time": 13.138636363636364,
                "pitch": 43,
                "velocity": 80,
                "duration": 0.165909090909091,
                "tempo": 120.0
            },
            {
                "start_time": 13.138636363636364,
                "end_time": 13.454545454545453,
                "pitch": 41,
                "velocity": 80,
                "duration": 0.3159090909090896,
                "tempo": 120.0
            },
            {
                "start_time": 13.454545454545453,
                "end_time": 13.588636363636363,
                "pitch": 39,
                "velocity": 80,
                "duration": 0.1340909090909097,
                "tempo": 120.0
            },
            {
                "start_time": 13.588636363636363,
                "end_time": 13.654545454545454,
                "pitch": 36,
                "velocity": 80,
                "duration": 0.06590909090909136,
                "tempo": 120.0
            },
            {
                "start_time": 14.225,
                "end_time": 14.475,
                "pitch": 31,
                "velocity": 80,
                "duration": 0.25,
                "tempo": 120.0
            },
            {
                "start_time": 14.475,
                "end_time": 14.725,
                "pitch": 43,
                "velocity": 80,
                "duration": 0.25,
                "tempo": 120.0
            },
            {
                "start_time": 14.725,
                "end_time": 14.89090909090909,
                "pitch": 41,
                "velocity": 80,
                "duration": 0.165909090909091,
                "tempo": 120.0
            },
            {
                "start_time": 14.89090909090909,
                "end_time": 14.975,
                "pitch": 38,
                "velocity": 80,
                "duration": 0.084090909090909,
                "tempo": 120.0
            },
            {
                "start_time": 14.975,
                "end_time": 15.14090909090909,
                "pitch": 37,
                "velocity": 80,
                "duration": 0.165909090909091,
                "tempo": 120.0
            },
            {
                "start_time": 15.14090909090909,
                "end_time": 15.39090909090909,
                "pitch": 38,
                "velocity": 80,
                "duration": 0.25,
                "tempo": 120.0
            },
            {
                "start_time": 15.39090909090909,
                "end_time": 15.475,
                "pitch": 38,
                "velocity": 80,
                "duration": 0.084090909090909,
                "tempo": 120.0
            },
            {
                "start_time": 15.477272727272727,
                "end_time": 15.725,
                "pitch": 38,
                "velocity": 80,
                "duration": 0.24772727272727302,
                "tempo": 120.0
            },
            {
                "start_time": 15.727272727272727,
                "end_time": 15.975,
                "pitch": 37,
                "velocity": 80,
                "duration": 0.24772727272727302,
                "tempo": 120.0
            },
            {
                "start_time": 15.977272727272727,
                "end_time": 16.143181818181816,
                "pitch": 36,
                "velocity": 80,
                "duration": 0.16590909090908923,
                "tempo": 120.0
            },
            {
                "start_time": 16.143181818181816,
                "end_time": 16.227272727272727,
                "pitch": 34,
                "velocity": 80,
                "duration": 0.08409090909091077,
                "tempo": 120.0
            },
            {
                "start_time": 16.227272727272727,
                "end_time": 16.477272727272727,
                "pitch": 31,
                "velocity": 80,
                "duration": 0.25,
                "tempo": 120.0
            },
            {
                "start_time": 16.477272727272727,
                "end_time": 16.727272727272727,
                "pitch": 43,
                "velocity": 80,
                "duration": 0.25,
                "tempo": 120.0
            },
            {
                "start_time": 16.727272727272727,
                "end_time": 16.893181818181816,
                "pitch": 41,
                "velocity": 80,
                "duration": 0.16590909090908923,
                "tempo": 120.0
            },
            {
                "start_time": 16.893181818181816,
                "end_time": 16.977272727272727,
                "pitch": 38,
                "velocity": 80,
                "duration": 0.08409090909091077,
                "tempo": 120.0
            },
            {
                "start_time": 16.977272727272727,
                "end_time": 17.143181818181816,
                "pitch": 37,
                "velocity": 80,
                "duration": 0.16590909090908923,
                "tempo": 120.0
            },
            {
                "start_time": 17.143181818181816,
                "end_time": 17.459090909090907,
                "pitch": 38,
                "velocity": 80,
                "duration": 0.31590909090909136,
                "tempo": 120.0
            },
            {
                "start_time": 9.504545454545454,
                "end_time": 17.527272727272727,
                "pitch": 19,
                "velocity": 80,
                "duration": 8.022727272727273,
                "tempo": 120.0
            },
            {
                "start_time": 17.459090909090907,
                "end_time": 17.527272727272727,
                "pitch": 36,
                "velocity": 80,
                "duration": 0.06818181818182012,
                "tempo": 120.0
            },
            {
                "start_time": 17.527272727272727,
                "end_time": 17.661363636363635,
                "pitch": 35,
                "velocity": 80,
                "duration": 0.13409090909090793,
                "tempo": 120.0
            },
            {
                "start_time": 18.229545454545455,
                "end_time": 18.479545454545455,
                "pitch": 31,
                "velocity": 80,
                "duration": 0.25,
                "tempo": 120.0
            },
            {
                "start_time": 18.479545454545455,
                "end_time": 18.729545454545455,
                "pitch": 43,
                "velocity": 80,
                "duration": 0.25,
                "tempo": 120.0
            },
            {
                "start_time": 18.729545454545455,
                "end_time": 18.895454545454545,
                "pitch": 41,
                "velocity": 80,
                "duration": 0.16590909090908923,
                "tempo": 120.0
            },
            {
                "start_time": 18.895454545454545,
                "end_time": 18.979545454545455,
                "pitch": 38,
                "velocity": 80,
                "duration": 0.08409090909091077,
                "tempo": 120.0
            },
            {
                "start_time": 18.979545454545455,
                "end_time": 19.145454545454545,
                "pitch": 37,
                "velocity": 80,
                "duration": 0.16590909090908923,
                "tempo": 120.0
            },
            {
                "start_time": 19.145454545454545,
                "end_time": 19.395454545454545,
                "pitch": 38,
                "velocity": 80,
                "duration": 0.25,
                "tempo": 120.0
            },
            {
                "start_time": 19.397727272727273,
                "end_time": 19.48181818181818,
                "pitch": 38,
                "velocity": 80,
                "duration": 0.08409090909090722,
                "tempo": 120.0
            },
            {
                "start_time": 19.48181818181818,
                "end_time": 19.73181818181818,
                "pitch": 41,
                "velocity": 80,
                "duration": 0.25,
                "tempo": 120.0
            },
            {
                "start_time": 19.73181818181818,
                "end_time": 19.988636363636363,
                "pitch": 43,
                "velocity": 80,
                "duration": 0.2568181818181827,
                "tempo": 120.0
            },
            {
                "start_time": 19.988636363636363,
                "end_time": 20.15681818181818,
                "pitch": 46,
                "velocity": 80,
                "duration": 0.168181818181818,
                "tempo": 120.0
            },
            {
                "start_time": 12.134090909090908,
                "end_time": 20.15681818181818,
                "pitch": 52,
                "velocity": 80,
                "duration": 8.022727272727273,
                "tempo": 120.0
            },
            {
                "start_time": 20.15681818181818,
                "end_time": 20.245454545454546,
                "pitch": 48,
                "velocity": 80,
                "duration": 0.08863636363636473,
                "tempo": 120.0
            },
            {
                "start_time": 20.245454545454546,
                "end_time": 20.409090909090907,
                "pitch": 49,
                "velocity": 80,
                "duration": 0.16363636363636047,
                "tempo": 120.0
            },
            {
                "start_time": 20.411363636363635,
                "end_time": 20.495454545454546,
                "pitch": 48,
                "velocity": 80,
                "duration": 0.08409090909091077,
                "tempo": 120.0
            },
            {
                "start_time": 20.495454545454546,
                "end_time": 20.661363636363635,
                "pitch": 46,
                "velocity": 80,
                "duration": 0.16590909090908923,
                "tempo": 120.0
            },
            {
                "start_time": 20.661363636363635,
                "end_time": 20.745454545454546,
                "pitch": 49,
                "velocity": 80,
                "duration": 0.08409090909091077,
                "tempo": 120.0
            },
            {
                "start_time": 20.745454545454546,
                "end_time": 20.911363636363635,
                "pitch": 48,
                "velocity": 80,
                "duration": 0.16590909090908923,
                "tempo": 120.0
            },
            {
                "start_time": 20.911363636363635,
                "end_time": 20.995454545454546,
                "pitch": 46,
                "velocity": 80,
                "duration": 0.08409090909091077,
                "tempo": 120.0
            },
            {
                "start_time": 20.995454545454546,
                "end_time": 21.161363636363635,
                "pitch": 43,
                "velocity": 80,
                "duration": 0.16590909090908923,
                "tempo": 120.0
            },
            {
                "start_time": 21.161363636363635,
                "end_time": 21.477272727272727,
                "pitch": 41,
                "velocity": 80,
                "duration": 0.31590909090909136,
                "tempo": 120.0
            },
            {
                "start_time": 21.477272727272727,
                "end_time": 21.611363636363635,
                "pitch": 39,
                "velocity": 80,
                "duration": 0.13409090909090793,
                "tempo": 120.0
            },
            {
                "start_time": 21.611363636363635,
                "end_time": 21.679545454545455,
                "pitch": 36,
                "velocity": 80,
                "duration": 0.06818181818182012,
                "tempo": 120.0
            },
            {
                "start_time": 23.25,
                "end_time": 23.413636363636364,
                "pitch": 44,
                "velocity": 80,
                "duration": 0.16363636363636402,
                "tempo": 120.0
            },
            {
                "start_time": 23.41590909090909,
                "end_time": 23.49772727272727,
                "pitch": 46,
                "velocity": 80,
                "duration": 0.08181818181818201,
                "tempo": 120.0
            },
            {
                "start_time": 23.5,
                "end_time": 23.66590909090909,
                "pitch": 46,
                "velocity": 80,
                "duration": 0.16590909090908923,
                "tempo": 120.0
            },
            {
                "start_time": 23.66590909090909,
                "end_time": 23.91590909090909,
                "pitch": 46,
                "velocity": 80,
                "duration": 0.25,
                "tempo": 120.0
            },
            {
                "start_time": 23.91590909090909,
                "end_time": 24.0,
                "pitch": 46,
                "velocity": 80,
                "duration": 0.08409090909091077,
                "tempo": 120.0
            },
            {
                "start_time": 24.0,
                "end_time": 24.25,
                "pitch": 44,
                "velocity": 80,
                "duration": 0.25,
                "tempo": 120.0
            },
            {
                "start_time": 24.25,
                "end_time": 24.5,
                "pitch": 43,
                "velocity": 80,
                "duration": 0.25,
                "tempo": 120.0
            },
            {
                "start_time": 6.161363636363636,
                "end_time": 24.7,
                "pitch": 42,
                "velocity": 80,
                "duration": 18.538636363636364,
                "tempo": 120.0
            },
            {
                "start_time": 24.5,
                "end_time": 24.7,
                "pitch": 42,
                "velocity": 80,
                "duration": 0.1999999999999993,
                "tempo": 120.0
            },
            {
                "start_time": 24.7,
                "end_time": 24.75,
                "pitch": 39,
                "velocity": 80,
                "duration": 0.05000000000000071,
                "tempo": 120.0
            },
            {
                "start_time": 25.252272727272725,
                "end_time": 25.418181818181818,
                "pitch": 32,
                "velocity": 80,
                "duration": 0.16590909090909278,
                "tempo": 120.0
            },
            {
                "start_time": 25.418181818181818,
                "end_time": 25.5,
                "pitch": 34,
                "velocity": 80,
                "duration": 0.08181818181818201,
                "tempo": 120.0
            },
            {
                "start_time": 25.502272727272725,
                "end_time": 25.668181818181818,
                "pitch": 34,
                "velocity": 80,
                "duration": 0.16590909090909278,
                "tempo": 120.0
            },
            {
                "start_time": 25.668181818181818,
                "end_time": 25.918181818181818,
                "pitch": 34,
                "velocity": 80,
                "duration": 0.25,
                "tempo": 120.0
            },
            {
                "start_time": 25.918181818181818,
                "end_time": 26.002272727272725,
                "pitch": 34,
                "velocity": 80,
                "duration": 0.08409090909090722,
                "tempo": 120.0
            },
            {
                "start_time": 26.002272727272725,
                "end_time": 26.254545454545454,
                "pitch": 32,
                "velocity": 80,
                "duration": 0.25227272727272876,
                "tempo": 120.0
            },
            {
                "start_time": 5.611363636363636,
                "end_time": 26.418181818181818,
                "pitch": 0,
                "velocity": 80,
                "duration": 20.80681818181818,
                "tempo": 120.0
            },
            {
                "start_time": 26.254545454545454,
                "end_time": 26.418181818181818,
                "pitch": 30,
                "velocity": 80,
                "duration": 0.16363636363636402,
                "tempo": 120.0
            },
            {
                "start_time": 26.418181818181818,
                "end_time": 26.502272727272725,
                "pitch": 31,
                "velocity": 80,
                "duration": 0.08409090909090722,
                "tempo": 120.0
            },
            {
                "start_time": 26.502272727272725,
                "end_time": 26.668181818181818,
                "pitch": 31,
                "velocity": 80,
                "duration": 0.16590909090909278,
                "tempo": 120.0
            },
            {
                "start_time": 26.668181818181818,
                "end_time": 26.752272727272725,
                "pitch": 31,
                "velocity": 80,
                "duration": 0.08409090909090722,
                "tempo": 120.0
            },
            {
                "start_time": 26.418181818181818,
                "end_time": 26.918181818181818,
                "pitch": 0,
                "velocity": 80,
                "duration": 0.5,
                "tempo": 120.0
            },
            {
                "start_time": 26.754545454545454,
                "end_time": 26.918181818181818,
                "pitch": 30,
                "velocity": 80,
                "duration": 0.16363636363636402,
                "tempo": 120.0
            },
            {
                "start_time": 26.918181818181818,
                "end_time": 27.002272727272725,
                "pitch": 31,
                "velocity": 80,
                "duration": 0.08409090909090722,
                "tempo": 120.0
            },
            {
                "start_time": 27.004545454545454,
                "end_time": 27.168181818181818,
                "pitch": 31,
                "velocity": 80,
                "duration": 0.16363636363636402,
                "tempo": 120.0
            },
            {
                "start_time": 27.170454545454543,
                "end_time": 27.254545454545454,
                "pitch": 31,
                "velocity": 80,
                "duration": 0.08409090909091077,
                "tempo": 120.0
            },
            {
                "start_time": 26.918181818181818,
                "end_time": 27.418181818181818,
                "pitch": 0,
                "velocity": 80,
                "duration": 0.5,
                "tempo": 120.0
            },
            {
                "start_time": 27.254545454545454,
                "end_time": 27.418181818181818,
                "pitch": 30,
                "velocity": 80,
                "duration": 0.16363636363636402,
                "tempo": 120.0
            },
            {
                "start_time": 27.418181818181818,
                "end_time": 27.504545454545454,
                "pitch": 31,
                "velocity": 80,
                "duration": 0.08636363636363598,
                "tempo": 120.0
            },
            {
                "start_time": 27.504545454545454,
                "end_time": 27.670454545454543,
                "pitch": 31,
                "velocity": 80,
                "duration": 0.16590909090908923,
                "tempo": 120.0
            },
            {
                "start_time": 27.670454545454543,
                "end_time": 27.754545454545454,
                "pitch": 31,
                "velocity": 80,
                "duration": 0.08409090909091077,
                "tempo": 120.0
            },
            {
                "start_time": 27.418181818181818,
                "end_time": 27.924999999999997,
                "pitch": 0,
                "velocity": 80,
                "duration": 0.5068181818181792,
                "tempo": 120.0
            },
            {
                "start_time": 27.754545454545454,
                "end_time": 27.924999999999997,
                "pitch": 30,
                "velocity": 80,
                "duration": 0.1704545454545432,
                "tempo": 120.0
            },
            {
                "start_time": 27.924999999999997,
                "end_time": 28.011363636363637,
                "pitch": 31,
                "velocity": 80,
                "duration": 0.08636363636363953,
                "tempo": 120.0
            },
            {
                "start_time": 28.011363636363637,
                "end_time": 28.18181818181818,
                "pitch": 31,
                "velocity": 80,
                "duration": 0.1704545454545432,
                "tempo": 120.0
            },
            {
                "start_time": 28.18181818181818,
                "end_time": 28.268181818181816,
                "pitch": 31,
                "velocity": 80,
                "duration": 0.08636363636363598,
                "tempo": 120.0
            },
            {
                "start_time": 28.268181818181816,
                "end_time": 28.43409090909091,
                "pitch": 32,
                "velocity": 80,
                "duration": 0.16590909090909278,
                "tempo": 120.0
            },
            {
                "start_time": 28.43409090909091,
                "end_time": 28.518181818181816,
                "pitch": 34,
                "velocity": 80,
                "duration": 0.08409090909090722,
                "tempo": 120.0
            },
            {
                "start_time": 28.518181818181816,
                "end_time": 28.68409090909091,
                "pitch": 34,
                "velocity": 80,
                "duration": 0.16590909090909278,
                "tempo": 120.0
            },
            {
                "start_time": 28.68409090909091,
                "end_time": 28.768181818181816,
                "pitch": 34,
                "velocity": 80,
                "duration": 0.08409090909090722,
                "tempo": 120.0
            },
            {
                "start_time": 28.768181818181816,
                "end_time": 28.93409090909091,
                "pitch": 32,
                "velocity": 80,
                "duration": 0.16590909090909278,
                "tempo": 120.0
            },
            {
                "start_time": 28.93409090909091,
                "end_time": 29.018181818181816,
                "pitch": 34,
                "velocity": 80,
                "duration": 0.08409090909090722,
                "tempo": 120.0
            },
            {
                "start_time": 29.020454545454545,
                "end_time": 29.18409090909091,
                "pitch": 34,
                "velocity": 80,
                "duration": 0.16363636363636402,
                "tempo": 120.0
            },
            {
                "start_time": 29.18409090909091,
                "end_time": 29.268181818181816,
                "pitch": 34,
                "velocity": 80,
                "duration": 0.08409090909090722,
                "tempo": 120.0
            },
            {
                "start_time": 29.270454545454545,
                "end_time": 29.43409090909091,
                "pitch": 32,
                "velocity": 80,
                "duration": 0.16363636363636402,
                "tempo": 120.0
            },
            {
                "start_time": 29.43409090909091,
                "end_time": 29.520454545454545,
                "pitch": 34,
                "velocity": 80,
                "duration": 0.08636363636363598,
                "tempo": 120.0
            },
            {
                "start_time": 29.520454545454545,
                "end_time": 29.68409090909091,
                "pitch": 34,
                "velocity": 80,
                "duration": 0.16363636363636402,
                "tempo": 120.0
            },
            {
                "start_time": 29.686363636363634,
                "end_time": 29.770454545454545,
                "pitch": 34,
                "velocity": 80,
                "duration": 0.08409090909091077,
                "tempo": 120.0
            },
            {
                "start_time": 29.770454545454545,
                "end_time": 29.936363636363634,
                "pitch": 32,
                "velocity": 80,
                "duration": 0.16590909090908923,
                "tempo": 120.0
            },
            {
                "start_time": 29.936363636363634,
                "end_time": 30.020454545454545,
                "pitch": 34,
                "velocity": 80,
                "duration": 0.08409090909091077,
                "tempo": 120.0
            },
            {
                "start_time": 30.020454545454545,
                "end_time": 30.186363636363634,
                "pitch": 34,
                "velocity": 80,
                "duration": 0.16590909090908923,
                "tempo": 120.0
            },
            {
                "start_time": 30.186363636363634,
                "end_time": 30.270454545454545,
                "pitch": 34,
                "velocity": 80,
                "duration": 0.08409090909091077,
                "tempo": 120.0
            },
            {
                "start_time": 30.270454545454545,
                "end_time": 30.436363636363634,
                "pitch": 35,
                "velocity": 80,
                "duration": 0.16590909090908923,
                "tempo": 120.0
            },
            {
                "start_time": 30.436363636363634,
                "end_time": 30.520454545454545,
                "pitch": 36,
                "velocity": 80,
                "duration": 0.08409090909091077,
                "tempo": 120.0
            },
            {
                "start_time": 30.520454545454545,
                "end_time": 30.686363636363634,
                "pitch": 36,
                "velocity": 80,
                "duration": 0.16590909090908923,
                "tempo": 120.0
            },
            {
                "start_time": 30.686363636363634,
                "end_time": 30.770454545454545,
                "pitch": 36,
                "velocity": 80,
                "duration": 0.08409090909091077,
                "tempo": 120.0
            },
            {
                "start_time": 30.77272727272727,
                "end_time": 30.936363636363634,
                "pitch": 35,
                "velocity": 80,
                "duration": 0.16363636363636402,
                "tempo": 120.0
            },
            {
                "start_time": 30.436363636363634,
                "end_time": 30.936363636363634,
                "pitch": 40,
                "velocity": 80,
                "duration": 0.5,
                "tempo": 120.0
            },
            {
                "start_time": 30.936363636363634,
                "end_time": 31.020454545454545,
                "pitch": 36,
                "velocity": 80,
                "duration": 0.08409090909091077,
                "tempo": 120.0
            },
            {
                "start_time": 31.02272727272727,
                "end_time": 31.186363636363634,
                "pitch": 36,
                "velocity": 80,
                "duration": 0.16363636363636402,
                "tempo": 120.0
            },
            {
                "start_time": 31.188636363636363,
                "end_time": 31.27272727272727,
                "pitch": 36,
                "velocity": 80,
                "duration": 0.08409090909090722,
                "tempo": 120.0
            },
            {
                "start_time": 31.27272727272727,
                "end_time": 31.52272727272727,
                "pitch": 37,
                "velocity": 80,
                "duration": 0.25,
                "tempo": 120.0
            },
            {
                "start_time": 31.52272727272727,
                "end_time": 31.688636363636363,
                "pitch": 38,
                "velocity": 80,
                "duration": 0.16590909090909278,
                "tempo": 120.0
            },
            {
                "start_time": 31.688636363636363,
                "end_time": 31.77272727272727,
                "pitch": 38,
                "velocity": 80,
                "duration": 0.08409090909090722,
                "tempo": 120.0
            },
            {
                "start_time": 31.77272727272727,
                "end_time": 32.02272727272727,
                "pitch": 37,
                "velocity": 80,
                "duration": 0.25000000000000355,
                "tempo": 120.0
            },
            {
                "start_time": 32.02272727272727,
                "end_time": 32.18863636363636,
                "pitch": 38,
                "velocity": 80,
                "duration": 0.16590909090908923,
                "tempo": 120.0
            },
            {
                "start_time": 32.18863636363636,
                "end_time": 32.27272727272727,
                "pitch": 38,
                "velocity": 80,
                "duration": 0.08409090909091077,
                "tempo": 120.0
            },
            {
                "start_time": 32.27272727272727,
                "end_time": 32.525,
                "pitch": 39,
                "velocity": 80,
                "duration": 0.2522727272727252,
                "tempo": 120.0
            },
            {
                "start_time": 30.936363636363634,
                "end_time": 32.69318181818182,
                "pitch": 40,
                "velocity": 80,
                "duration": 1.7568181818181863,
                "tempo": 120.0
            },
            {
                "start_time": 32.525,
                "end_time": 32.69318181818182,
                "pitch": 40,
                "velocity": 80,
                "duration": 0.16818181818182154,
                "tempo": 120.0
            },
            {
                "start_time": 32.69318181818182,
                "end_time": 32.777272727272724,
                "pitch": 40,
                "velocity": 80,
                "duration": 0.08409090909090366,
                "tempo": 120.0
            },
            {
                "start_time": 32.779545454545456,
                "end_time": 33.027272727272724,
                "pitch": 39,
                "velocity": 80,
                "duration": 0.2477272727272677,
                "tempo": 120.0
            },
            {
                "start_time": 33.029545454545456,
                "end_time": 33.19318181818182,
                "pitch": 40,
                "velocity": 80,
                "duration": 0.16363636363636402,
                "tempo": 120.0
            },
            {
                "start_time": 33.19318181818182,
                "end_time": 33.279545454545456,
                "pitch": 40,
                "velocity": 80,
                "duration": 0.08636363636363598,
                "tempo": 120.0
            },
            {
                "start_time": 33.279545454545456,
                "end_time": 33.529545454545456,
                "pitch": 41,
                "velocity": 80,
                "duration": 0.25,
                "tempo": 120.0
            },
            {
                "start_time": 33.529545454545456,
                "end_time": 33.695454545454545,
                "pitch": 42,
                "velocity": 80,
                "duration": 0.16590909090908923,
                "tempo": 120.0
            },
            {
                "start_time": 33.695454545454545,
                "end_time": 33.779545454545456,
                "pitch": 42,
                "velocity": 80,
                "duration": 0.08409090909091077,
                "tempo": 120.0
            },
            {
                "start_time": 33.779545454545456,
                "end_time": 34.029545454545456,
                "pitch": 41,
                "velocity": 80,
                "duration": 0.25,
                "tempo": 120.0
            },
            {
                "start_time": 34.029545454545456,
                "end_time": 34.195454545454545,
                "pitch": 42,
                "velocity": 80,
                "duration": 0.16590909090908923,
                "tempo": 120.0
            },
            {
                "start_time": 34.195454545454545,
                "end_time": 34.279545454545456,
                "pitch": 42,
                "velocity": 80,
                "duration": 0.08409090909091077,
                "tempo": 120.0
            },
            {
                "start_time": 34.28181818181818,
                "end_time": 34.66136363636363,
                "pitch": 39,
                "velocity": 80,
                "duration": 0.3795454545454504,
                "tempo": 120.0
            },
            {
                "start_time": 17.527272727272727,
                "end_time": 34.72954545454545,
                "pitch": 19,
                "velocity": 80,
                "duration": 17.202272727272724,
                "tempo": 120.0
            },
            {
                "start_time": 34.66136363636363,
                "end_time": 34.72954545454545,
                "pitch": 36,
                "velocity": 80,
                "duration": 0.06818181818182012,
                "tempo": 120.0
            },
            {
                "start_time": 34.72954545454545,
                "end_time": 34.779545454545456,
                "pitch": 35,
                "velocity": 80,
                "duration": 0.05000000000000426,
                "tempo": 120.0
            },
            {
                "start_time": 36.29545454545455,
                "end_time": 36.54090909090909,
                "pitch": 32,
                "velocity": 80,
                "duration": 0.24545454545454248,
                "tempo": 120.0
            },
            {
                "start_time": 36.54090909090909,
                "end_time": 36.78636363636363,
                "pitch": 34,
                "velocity": 80,
                "duration": 0.24545454545454248,
                "tempo": 120.0
            },
            {
                "start_time": 36.78636363636363,
                "end_time": 37.043181818181814,
                "pitch": 32,
                "velocity": 80,
                "duration": 0.2568181818181827,
                "tempo": 120.0
            },
            {
                "start_time": 37.043181818181814,
                "end_time": 37.3,
                "pitch": 31,
                "velocity": 80,
                "duration": 0.2568181818181827,
                "tempo": 120.0
            },
            {
                "start_time": 37.3,
                "end_time": 37.55,
                "pitch": 30,
                "velocity": 80,
                "duration": 0.25,
                "tempo": 120.0
            },
            {
                "start_time": 27.924999999999997,
                "end_time": 37.715909090909086,
                "pitch": 0,
                "velocity": 80,
                "duration": 9.79090909090909,
                "tempo": 120.0
            },
            {
                "start_time": 37.55,
                "end_time": 37.715909090909086,
                "pitch": 30,
                "velocity": 80,
                "duration": 0.16590909090908923,
                "tempo": 120.0
            },
            {
                "start_time": 37.715909090909086,
                "end_time": 37.76590909090909,
                "pitch": 31,
                "velocity": 80,
                "duration": 0.05000000000000426,
                "tempo": 120.0
            },
            {
                "start_time": 37.76590909090909,
                "end_time": 37.8,
                "pitch": 34,
                "velocity": 80,
                "duration": 0.03409090909090651,
                "tempo": 120.0
            },
            {
                "start_time": 37.8,
                "end_time": 37.83409090909091,
                "pitch": 36,
                "velocity": 80,
                "duration": 0.03409090909091361,
                "tempo": 120.0
            },
            {
                "start_time": 37.83409090909091,
                "end_time": 37.86590909090909,
                "pitch": 38,
                "velocity": 80,
                "duration": 0.0318181818181813,
                "tempo": 120.0
            },
            {
                "start_time": 37.8,
                "end_time": 38.0,
                "pitch": 40,
                "velocity": 80,
                "duration": 0.20000000000000284,
                "tempo": 120.0
            },
            {
                "start_time": 37.86590909090909,
                "end_time": 38.0,
                "pitch": 40,
                "velocity": 80,
                "duration": 0.13409090909090793,
                "tempo": 120.0
            },
            {
                "start_time": 38.0,
                "end_time": 38.06590909090909,
                "pitch": 38,
                "velocity": 80,
                "duration": 0.06590909090908781,
                "tempo": 120.0
            },
            {
                "start_time": 34.72954545454545,
                "end_time": 38.1,
                "pitch": 19,
                "velocity": 80,
                "duration": 3.3704545454545496,
                "tempo": 120.0
            },
            {
                "start_time": 38.06590909090909,
                "end_time": 38.1,
                "pitch": 36,
                "velocity": 80,
                "duration": 0.03409090909091361,
                "tempo": 120.0
            },
            {
                "start_time": 38.1,
                "end_time": 38.16590909090909,
                "pitch": 35,
                "velocity": 80,
                "duration": 0.06590909090908781,
                "tempo": 120.0
            },
            {
                "start_time": 38.16590909090909,
                "end_time": 38.268181818181816,
                "pitch": 33,
                "velocity": 80,
                "duration": 0.10227272727272663,
                "tempo": 120.0
            },
            {
                "start_time": 38.268181818181816,
                "end_time": 38.304545454545455,
                "pitch": 29,
                "velocity": 80,
                "duration": 0.03636363636363882,
                "tempo": 120.0
            },
            {
                "start_time": 38.304545454545455,
                "end_time": 38.55227272727272,
                "pitch": 31,
                "velocity": 80,
                "duration": 0.2477272727272677,
                "tempo": 120.0
            },
            {
                "start_time": 38.55227272727272,
                "end_time": 38.80227272727272,
                "pitch": 43,
                "velocity": 80,
                "duration": 0.25,
                "tempo": 120.0
            },
            {
                "start_time": 38.80227272727272,
                "end_time": 38.96818181818182,
                "pitch": 41,
                "velocity": 80,
                "duration": 0.16590909090909634,
                "tempo": 120.0
            },
            {
                "start_time": 38.96818181818182,
                "end_time": 39.05227272727272,
                "pitch": 38,
                "velocity": 80,
                "duration": 0.08409090909090366,
                "tempo": 120.0
            },
            {
                "start_time": 39.05227272727272,
                "end_time": 39.21818181818182,
                "pitch": 37,
                "velocity": 80,
                "duration": 0.16590909090909634,
                "tempo": 120.0
            },
            {
                "start_time": 39.21818181818182,
                "end_time": 39.46818181818182,
                "pitch": 38,
                "velocity": 80,
                "duration": 0.25,
                "tempo": 120.0
            },
            {
                "start_time": 39.46818181818182,
                "end_time": 39.554545454545455,
                "pitch": 38,
                "velocity": 80,
                "duration": 0.08636363636363598,
                "tempo": 120.0
            },
            {
                "start_time": 39.554545454545455,
                "end_time": 39.804545454545455,
                "pitch": 38,
                "velocity": 80,
                "duration": 0.25,
                "tempo": 120.0
            },
            {
                "start_time": 39.804545454545455,
                "end_time": 40.054545454545455,
                "pitch": 37,
                "velocity": 80,
                "duration": 0.25,
                "tempo": 120.0
            },
            {
                "start_time": 40.054545454545455,
                "end_time": 40.220454545454544,
                "pitch": 36,
                "velocity": 80,
                "duration": 0.16590909090908923,
                "tempo": 120.0
            },
            {
                "start_time": 40.220454545454544,
                "end_time": 40.304545454545455,
                "pitch": 34,
                "velocity": 80,
                "duration": 0.08409090909091077,
                "tempo": 120.0
            },
            {
                "start_time": 40.304545454545455,
                "end_time": 40.554545454545455,
                "pitch": 31,
                "velocity": 80,
                "duration": 0.25,
                "tempo": 120.0
            },
            {
                "start_time": 40.554545454545455,
                "end_time": 40.804545454545455,
                "pitch": 43,
                "velocity": 80,
                "duration": 0.25,
                "tempo": 120.0
            },
            {
                "start_time": 40.80681818181818,
                "end_time": 40.970454545454544,
                "pitch": 41,
                "velocity": 80,
                "duration": 0.16363636363636402,
                "tempo": 120.0
            },
            {
                "start_time": 40.970454545454544,
                "end_time": 41.054545454545455,
                "pitch": 38,
                "velocity": 80,
                "duration": 0.08409090909091077,
                "tempo": 120.0
            },
            {
                "start_time": 41.05681818181818,
                "end_time": 41.220454545454544,
                "pitch": 37,
                "velocity": 80,
                "duration": 0.16363636363636402,
                "tempo": 120.0
            },
            {
                "start_time": 41.220454545454544,
                "end_time": 41.538636363636364,
                "pitch": 38,
                "velocity": 80,
                "duration": 0.3181818181818201,
                "tempo": 120.0
            },
            {
                "start_time": 38.1,
                "end_time": 41.60454545454545,
                "pitch": 19,
                "velocity": 80,
                "duration": 3.5045454545454504,
                "tempo": 120.0
            },
            {
                "start_time": 41.538636363636364,
                "end_time": 41.60454545454545,
                "pitch": 36,
                "velocity": 80,
                "duration": 0.06590909090908781,
                "tempo": 120.0
            },
            {
                "start_time": 41.60454545454545,
                "end_time": 41.73863636363636,
                "pitch": 35,
                "velocity": 80,
                "duration": 0.13409090909090793,
                "tempo": 120.0
            },
            {
                "start_time": 42.30681818181818,
                "end_time": 42.55681818181818,
                "pitch": 31,
                "velocity": 80,
                "duration": 0.25,
                "tempo": 120.0
            },
            {
                "start_time": 42.55681818181818,
                "end_time": 42.80681818181818,
                "pitch": 43,
                "velocity": 80,
                "duration": 0.25,
                "tempo": 120.0
            },
            {
                "start_time": 42.809090909090905,
                "end_time": 42.97727272727273,
                "pitch": 41,
                "velocity": 80,
                "duration": 0.16818181818182154,
                "tempo": 120.0
            },
            {
                "start_time": 42.97727272727273,
                "end_time": 43.06363636363636,
                "pitch": 38,
                "velocity": 80,
                "duration": 0.08636363636363598,
                "tempo": 120.0
            },
            {
                "start_time": 43.06363636363636,
                "end_time": 43.23409090909091,
                "pitch": 37,
                "velocity": 80,
                "duration": 0.17045454545454675,
                "tempo": 120.0
            },
            {
                "start_time": 43.23409090909091,
                "end_time": 43.48409090909091,
                "pitch": 38,
                "velocity": 80,
                "duration": 0.25,
                "tempo": 120.0
            },
            {
                "start_time": 43.48409090909091,
                "end_time": 43.56818181818181,
                "pitch": 38,
                "velocity": 80,
                "duration": 0.08409090909090366,
                "tempo": 120.0
            },
            {
                "start_time": 43.56818181818181,
                "end_time": 43.81363636363636,
                "pitch": 41,
                "velocity": 80,
                "duration": 0.2454545454545496,
                "tempo": 120.0
            },
            {
                "start_time": 43.81363636363636,
                "end_time": 44.070454545454545,
                "pitch": 43,
                "velocity": 80,
                "duration": 0.2568181818181827,
                "tempo": 120.0
            },
            {
                "start_time": 44.070454545454545,
                "end_time": 44.23863636363636,
                "pitch": 46,
                "velocity": 80,
                "duration": 0.16818181818181444,
                "tempo": 120.0
            },
            {
                "start_time": 20.15681818181818,
                "end_time": 44.23863636363636,
                "pitch": 52,
                "velocity": 80,
                "duration": 24.08181818181818,
                "tempo": 120.0
            },
            {
                "start_time": 44.23863636363636,
                "end_time": 44.32727272727273,
                "pitch": 48,
                "velocity": 80,
                "duration": 0.08863636363636829,
                "tempo": 120.0
            },
            {
                "start_time": 44.32727272727273,
                "end_time": 44.49090909090909,
                "pitch": 49,
                "velocity": 80,
                "duration": 0.16363636363636402,
                "tempo": 120.0
            },
            {
                "start_time": 44.49318181818182,
                "end_time": 44.57727272727273,
                "pitch": 48,
                "velocity": 80,
                "duration": 0.08409090909091077,
                "tempo": 120.0
            },
            {
                "start_time": 44.57727272727273,
                "end_time": 44.74318181818182,
                "pitch": 46,
                "velocity": 80,
                "duration": 0.16590909090908923,
                "tempo": 120.0
            },
            {
                "start_time": 44.74318181818182,
                "end_time": 44.82727272727273,
                "pitch": 49,
                "velocity": 80,
                "duration": 0.08409090909091077,
                "tempo": 120.0
            },
            {
                "start_time": 44.82727272727273,
                "end_time": 44.99318181818182,
                "pitch": 48,
                "velocity": 80,
                "duration": 0.16590909090908923,
                "tempo": 120.0
            },
            {
                "start_time": 44.99318181818182,
                "end_time": 45.07727272727273,
                "pitch": 46,
                "velocity": 80,
                "duration": 0.08409090909091077,
                "tempo": 120.0
            },
            {
                "start_time": 45.07727272727273,
                "end_time": 45.24318181818182,
                "pitch": 43,
                "velocity": 80,
                "duration": 0.16590909090908923,
                "tempo": 120.0
            },
            {
                "start_time": 45.24318181818182,
                "end_time": 45.559090909090905,
                "pitch": 41,
                "velocity": 80,
                "duration": 0.3159090909090878,
                "tempo": 120.0
            },
            {
                "start_time": 45.559090909090905,
                "end_time": 45.69318181818181,
                "pitch": 39,
                "velocity": 80,
                "duration": 0.13409090909090793,
                "tempo": 120.0
            },
            {
                "start_time": 45.69318181818181,
                "end_time": 45.76136363636363,
                "pitch": 36,
                "velocity": 80,
                "duration": 0.06818181818182012,
                "tempo": 120.0
            },
            {
                "start_time": 46.32954545454545,
                "end_time": 46.57954545454545,
                "pitch": 31,
                "velocity": 80,
                "duration": 0.25,
                "tempo": 120.0
            },
            {
                "start_time": 46.57954545454545,
                "end_time": 46.82954545454545,
                "pitch": 43,
                "velocity": 80,
                "duration": 0.25,
                "tempo": 120.0
            },
            {
                "start_time": 46.82954545454545,
                "end_time": 46.99545454545454,
                "pitch": 41,
                "velocity": 80,
                "duration": 0.16590909090908923,
                "tempo": 120.0
            },
            {
                "start_time": 46.99545454545454,
                "end_time": 47.07954545454545,
                "pitch": 38,
                "velocity": 80,
                "duration": 0.08409090909091077,
                "tempo": 120.0
            },
            {
                "start_time": 47.07954545454545,
                "end_time": 47.24545454545454,
                "pitch": 37,
                "velocity": 80,
                "duration": 0.16590909090908923,
                "tempo": 120.0
            },
            {
                "start_time": 47.24545454545454,
                "end_time": 47.49545454545454,
                "pitch": 38,
                "velocity": 80,
                "duration": 0.25,
                "tempo": 120.0
            },
            {
                "start_time": 47.49772727272727,
                "end_time": 47.58181818181818,
                "pitch": 38,
                "velocity": 80,
                "duration": 0.08409090909091077,
                "tempo": 120.0
            },
            {
                "start_time": 47.58181818181818,
                "end_time": 47.83181818181818,
                "pitch": 38,
                "velocity": 80,
                "duration": 0.25,
                "tempo": 120.0
            },
            {
                "start_time": 47.83181818181818,
                "end_time": 48.08181818181818,
                "pitch": 37,
                "velocity": 80,
                "duration": 0.25,
                "tempo": 120.0
            },
            {
                "start_time": 48.08181818181818,
                "end_time": 48.24772727272727,
                "pitch": 36,
                "velocity": 80,
                "duration": 0.16590909090908923,
                "tempo": 120.0
            },
            {
                "start_time": 48.24772727272727,
                "end_time": 48.33181818181818,
                "pitch": 34,
                "velocity": 80,
                "duration": 0.08409090909091077,
                "tempo": 120.0
            },
            {
                "start_time": 48.33181818181818,
                "end_time": 48.58181818181818,
                "pitch": 31,
                "velocity": 80,
                "duration": 0.25,
                "tempo": 120.0
            },
            {
                "start_time": 48.58181818181818,
                "end_time": 48.83181818181818,
                "pitch": 43,
                "velocity": 80,
                "duration": 0.25,
                "tempo": 120.0
            },
            {
                "start_time": 48.83181818181818,
                "end_time": 48.99772727272727,
                "pitch": 41,
                "velocity": 80,
                "duration": 0.16590909090908923,
                "tempo": 120.0
            },
            {
                "start_time": 48.99772727272727,
                "end_time": 49.08181818181818,
                "pitch": 38,
                "velocity": 80,
                "duration": 0.08409090909091077,
                "tempo": 120.0
            },
            {
                "start_time": 49.08181818181818,
                "end_time": 49.24772727272727,
                "pitch": 37,
                "velocity": 80,
                "duration": 0.16590909090908923,
                "tempo": 120.0
            },
            {
                "start_time": 49.25,
                "end_time": 49.56590909090909,
                "pitch": 38,
                "velocity": 80,
                "duration": 0.3159090909090878,
                "tempo": 120.0
            },
            {
                "start_time": 41.60454545454545,
                "end_time": 49.63181818181818,
                "pitch": 19,
                "velocity": 80,
                "duration": 8.027272727272731,
                "tempo": 120.0
            },
            {
                "start_time": 49.56590909090909,
                "end_time": 49.63181818181818,
                "pitch": 36,
                "velocity": 80,
                "duration": 0.06590909090909491,
                "tempo": 120.0
            },
            {
                "start_time": 49.63181818181818,
                "end_time": 49.76590909090909,
                "pitch": 35,
                "velocity": 80,
                "duration": 0.13409090909090793,
                "tempo": 120.0
            },
            {
                "start_time": 50.336363636363636,
                "end_time": 50.584090909090904,
                "pitch": 31,
                "velocity": 80,
                "duration": 0.2477272727272677,
                "tempo": 120.0
            },
            {
                "start_time": 50.584090909090904,
                "end_time": 50.836363636363636,
                "pitch": 43,
                "velocity": 80,
                "duration": 0.2522727272727323,
                "tempo": 120.0
            },
            {
                "start_time": 50.836363636363636,
                "end_time": 51.00454545454545,
                "pitch": 41,
                "velocity": 80,
                "duration": 0.16818181818181444,
                "tempo": 120.0
            },
            {
                "start_time": 51.00454545454545,
                "end_time": 51.090909090909086,
                "pitch": 38,
                "velocity": 80,
                "duration": 0.08636363636363598,
                "tempo": 120.0
            },
            {
                "start_time": 51.090909090909086,
                "end_time": 51.26136363636363,
                "pitch": 37,
                "velocity": 80,
                "duration": 0.17045454545454675,
                "tempo": 120.0
            },
            {
                "start_time": 51.26136363636363,
                "end_time": 51.51363636363636,
                "pitch": 38,
                "velocity": 80,
                "duration": 0.2522727272727252,
                "tempo": 120.0
            },
            {
                "start_time": 51.51590909090909,
                "end_time": 51.599999999999994,
                "pitch": 38,
                "velocity": 80,
                "duration": 0.08409090909090366,
                "tempo": 120.0
            },
            {
                "start_time": 51.599999999999994,
                "end_time": 51.849999999999994,
                "pitch": 41,
                "velocity": 80,
                "duration": 0.25,
                "tempo": 120.0
            },
            {
                "start_time": 51.849999999999994,
                "end_time": 52.099999999999994,
                "pitch": 43,
                "velocity": 80,
                "duration": 0.25,
                "tempo": 120.0
            },
            {
                "start_time": 52.099999999999994,
                "end_time": 52.26590909090909,
                "pitch": 46,
                "velocity": 80,
                "duration": 0.16590909090909634,
                "tempo": 120.0
            },
            {
                "start_time": 44.23863636363636,
                "end_time": 52.26590909090909,
                "pitch": 52,
                "velocity": 80,
                "duration": 8.027272727272731,
                "tempo": 120.0
            },
            {
                "start_time": 52.26590909090909,
                "end_time": 52.349999999999994,
                "pitch": 48,
                "velocity": 80,
                "duration": 0.08409090909090366,
                "tempo": 120.0
            },
            {
                "start_time": 52.349999999999994,
                "end_time": 52.51590909090909,
                "pitch": 49,
                "velocity": 80,
                "duration": 0.16590909090909634,
                "tempo": 120.0
            },
            {
                "start_time": 52.51590909090909,
                "end_time": 52.599999999999994,
                "pitch": 48,
                "velocity": 80,
                "duration": 0.08409090909090366,
                "tempo": 120.0
            },
            {
                "start_time": 52.599999999999994,
                "end_time": 52.76590909090909,
                "pitch": 46,
                "velocity": 80,
                "duration": 0.16590909090909634,
                "tempo": 120.0
            },
            {
                "start_time": 52.76590909090909,
                "end_time": 52.849999999999994,
                "pitch": 49,
                "velocity": 80,
                "duration": 0.08409090909090366,
                "tempo": 120.0
            },
            {
                "start_time": 52.849999999999994,
                "end_time": 53.01590909090909,
                "pitch": 48,
                "velocity": 80,
                "duration": 0.16590909090909634,
                "tempo": 120.0
            },
            {
                "start_time": 53.01590909090909,
                "end_time": 53.099999999999994,
                "pitch": 46,
                "velocity": 80,
                "duration": 0.08409090909090366,
                "tempo": 120.0
            },
            {
                "start_time": 53.10227272727273,
                "end_time": 53.26590909090909,
                "pitch": 43,
                "velocity": 80,
                "duration": 0.16363636363636402,
                "tempo": 120.0
            },
            {
                "start_time": 53.26590909090909,
                "end_time": 53.584090909090904,
                "pitch": 41,
                "velocity": 80,
                "duration": 0.318181818181813,
                "tempo": 120.0
            },
            {
                "start_time": 53.584090909090904,
                "end_time": 53.715909090909086,
                "pitch": 39,
                "velocity": 80,
                "duration": 0.13181818181818272,
                "tempo": 120.0
            },
            {
                "start_time": 53.715909090909086,
                "end_time": 53.78409090909091,
                "pitch": 36,
                "velocity": 80,
                "duration": 0.06818181818182012,
                "tempo": 120.0
            }
        ]
    }
}