{
    "track_id": "18 Ending 2",
    "mood": "happy",
    "instruments": {
        "Acoustic Bass": [
            {
                "start_time": 0.0022727272727272726,
                "end_time": 0.08409090909090909,
                "pitch": 43,
                "velocity": 51,
                "duration": 0.08181818181818182,
                "tempo": 120.0
            },
            {
                "start_time": 0.10227272727272727,
                "end_time": 0.18409090909090908,
                "pitch": 43,
                "velocity": 51,
                "duration": 0.08181818181818182,
                "tempo": 120.0
            },
            {
                "start_time": 0.30227272727272725,
                "end_time": 0.38636363636363635,
                "pitch": 43,
                "velocity": 51,
                "duration": 0.0840909090909091,
                "tempo": 120.0
            },
            {
                "start_time": 0.5022727272727272,
                "end_time": 0.5840909090909091,
                "pitch": 43,
                "velocity": 51,
                "duration": 0.0818181818181819,
                "tempo": 120.0
            },
            {
                "start_time": 0.6977272727272726,
                "end_time": 0.7795454545454545,
                "pitch": 43,
                "velocity": 51,
                "duration": 0.0818181818181819,
                "tempo": 120.0
            },
            {
                "start_time": 0.7954545454545454,
                "end_time": 0.8818181818181817,
                "pitch": 41,
                "velocity": 51,
                "duration": 0.08636363636363631,
                "tempo": 120.0
            },
            {
                "start_time": 1.0022727272727272,
                "end_time": 1.0863636363636364,
                "pitch": 41,
                "velocity": 51,
                "duration": 0.08409090909090922,
                "tempo": 120.0
            },
            {
                "start_time": 1.2068181818181818,
                "end_time": 1.2886363636363636,
                "pitch": 43,
                "velocity": 51,
                "duration": 0.08181818181818179,
                "tempo": 120.0
            },
            {
                "start_time": 1.4045454545454545,
                "end_time": 1.584090909090909,
                "pitch": 31,
                "velocity": 51,
                "duration": 0.17954545454545445,
                "tempo": 120.0
            },
            {
                "start_time": 0.7954545454545454,
                "end_time": 1.5999999999999999,
                "pitch": 0,
                "velocity": 51,
                "duration": 0.8045454545454545,
                "tempo": 120.0
            },
            {
                "start_time": 1.5999999999999999,
                "end_time": 1.9931818181818182,
                "pitch": 36,
                "velocity": 51,
                "duration": 0.3931818181818183,
                "tempo": 120.0
            },
            {
                "start_time": 2.0113636363636362,
                "end_time": 2.3954545454545455,
                "pitch": 36,
                "velocity": 51,
                "duration": 0.38409090909090926,
                "tempo": 120.0
            },
            {
                "start_time": 2.411363636363636,
                "end_time": 2.6,
                "pitch": 36,
                "velocity": 51,
                "duration": 0.18863636363636394,
                "tempo": 120.0
            },
            {
                "start_time": 2.618181818181818,
                "end_time": 3.002272727272727,
                "pitch": 36,
                "velocity": 51,
                "duration": 0.3840909090909088,
                "tempo": 120.0
            },
            {
                "start_time": 3.0204545454545455,
                "end_time": 3.4,
                "pitch": 36,
                "velocity": 51,
                "duration": 0.3795454545454544,
                "tempo": 120.0
            },
            {
                "start_time": 3.4159090909090906,
                "end_time": 3.5999999999999996,
                "pitch": 36,
                "velocity": 51,
                "duration": 0.18409090909090908,
                "tempo": 120.0
            },
            {
                "start_time": 3.6159090909090907,
                "end_time": 4.009090909090909,
                "pitch": 36,
                "velocity": 51,
                "duration": 0.3931818181818181,
                "tempo": 120.0
            },
            {
                "start_time": 4.027272727272727,
                "end_time": 4.206818181818182,
                "pitch": 36,
                "velocity": 51,
                "duration": 0.17954545454545467,
                "tempo": 120.0
            },
            {
                "start_time": 4.225,
                "end_time": 4.6090909090909085,
                "pitch": 36,
                "velocity": 51,
                "duration": 0.3840909090909088,
                "tempo": 120.0
            },
            {
                "start_time": 4.625,
                "end_time": 4.8136363636363635,
                "pitch": 36,
                "velocity": 51,
                "duration": 0.1886363636363635,
                "tempo": 120.0
            },
            {
                "start_time": 4.831818181818182,
                "end_time": 5.218181818181818,
                "pitch": 36,
                "velocity": 51,
                "duration": 0.3863636363636358,
                "tempo": 120.0
            },
            {
                "start_time": 5.2340909090909085,
                "end_time": 5.611363636363636,
                "pitch": 36,
                "velocity": 51,
                "duration": 0.37727272727272787,
                "tempo": 120.0
            },
            {
                "start_time": 5.627272727272727,
                "end_time": 5.8159090909090905,
                "pitch": 36,
                "velocity": 51,
                "duration": 0.1886363636363635,
                "tempo": 120.0
            },
            {
                "start_time": 5.831818181818181,
                "end_time": 6.227272727272727,
                "pitch": 36,
                "velocity": 51,
                "duration": 0.3954545454545455,
                "tempo": 120.0
            },
            {
                "start_time": 6.245454545454545,
                "end_time": 6.629545454545454,
                "pitch": 36,
                "velocity": 51,
                "duration": 0.3840909090909088,
                "tempo": 120.0
            },
            {
                "start_time": 6.6477272727272725,
                "end_time": 6.827272727272727,
                "pitch": 36,
                "velocity": 51,
                "duration": 0.17954545454545467,
                "tempo": 120.0
            },
            {
                "start_time": 6.843181818181818,
                "end_time": 7.2295454545454545,
                "pitch": 36,
                "velocity": 51,
                "duration": 0.3863636363636367,
                "tempo": 120.0
            },
            {
                "start_time": 7.245454545454545,
                "end_time": 7.429545454545454,
                "pitch": 36,
                "velocity": 51,
                "duration": 0.18409090909090864,
                "tempo": 120.0
            },
            {
                "start_time": 7.447727272727272,
                "end_time": 7.831818181818181,
                "pitch": 36,
                "velocity": 51,
                "duration": 0.3840909090909088,
                "tempo": 120.0
            },
            {
                "start_time": 7.847727272727273,
                "end_time": 8.031818181818181,
                "pitch": 36,
                "velocity": 51,
                "duration": 0.18409090909090864,
                "tempo": 120.0
            },
            {
                "start_time": 8.049999999999999,
                "end_time": 8.434090909090909,
                "pitch": 36,
                "velocity": 51,
                "duration": 0.3840909090909097,
                "tempo": 120.0
            },
            {
                "start_time": 8.45,
                "end_time": 8.836363636363636,
                "pitch": 36,
                "velocity": 51,
                "duration": 0.3863636363636367,
                "tempo": 120.0
            },
            {
                "start_time": 8.854545454545454,
                "end_time": 9.040909090909091,
                "pitch": 36,
                "velocity": 51,
                "duration": 0.1863636363636374,
                "tempo": 120.0
            },
            {
                "start_time": 9.059090909090909,
                "end_time": 9.445454545454545,
                "pitch": 36,
                "velocity": 51,
                "duration": 0.3863636363636367,
                "tempo": 120.0
            },
            {
                "start_time": 9.461363636363636,
                "end_time": 9.84090909090909,
                "pitch": 36,
                "velocity": 51,
                "duration": 0.37954545454545396,
                "tempo": 120.0
            },
            {
                "start_time": 9.85909090909091,
                "end_time": 10.040909090909091,
                "pitch": 36,
                "velocity": 51,
                "duration": 0.18181818181818166,
                "tempo": 120.0
            },
            {
                "start_time": 10.059090909090909,
                "end_time": 10.452272727272726,
                "pitch": 36,
                "velocity": 51,
                "duration": 0.39318181818181763,
                "tempo": 120.0
            },
            {
                "start_time": 10.470454545454546,
                "end_time": 10.65,
                "pitch": 36,
                "velocity": 51,
                "duration": 0.17954545454545467,
                "tempo": 120.0
            },
            {
                "start_time": 10.665909090909091,
                "end_time": 11.049999999999999,
                "pitch": 36,
                "velocity": 51,
                "duration": 0.38409090909090793,
                "tempo": 120.0
            },
            {
                "start_time": 11.068181818181818,
                "end_time": 11.256818181818181,
                "pitch": 36,
                "velocity": 51,
                "duration": 0.1886363636363626,
                "tempo": 120.0
            },
            {
                "start_time": 11.272727272727272,
                "end_time": 11.659090909090908,
                "pitch": 36,
                "velocity": 51,
                "duration": 0.3863636363636367,
                "tempo": 120.0
            },
            {
                "start_time": 11.677272727272726,
                "end_time": 12.063636363636363,
                "pitch": 36,
                "velocity": 51,
                "duration": 0.3863636363636367,
                "tempo": 120.0
            },
            {
                "start_time": 12.079545454545453,
                "end_time": 12.263636363636364,
                "pitch": 36,
                "velocity": 51,
                "duration": 0.18409090909091042,
                "tempo": 120.0
            },
            {
                "start_time": 12.279545454545454,
                "end_time": 12.665909090909091,
                "pitch": 36,
                "velocity": 51,
                "duration": 0.3863636363636367,
                "tempo": 120.0
            },
            {
                "start_time": 12.681818181818182,
                "end_time": 13.068181818181818,
                "pitch": 36,
                "velocity": 51,
                "duration": 0.3863636363636367,
                "tempo": 120.0
            },
            {
                "start_time": 13.086363636363636,
                "end_time": 13.270454545454545,
                "pitch": 36,
                "velocity": 51,
                "duration": 0.18409090909090864,
                "tempo": 120.0
            },
            {
                "start_time": 13.286363636363635,
                "end_time": 13.672727272727272,
                "pitch": 36,
                "velocity": 51,
                "duration": 0.3863636363636367,
                "tempo": 120.0
            },
            {
                "start_time": 13.69090909090909,
                "end_time": 13.875,
                "pitch": 36,
                "velocity": 51,
                "duration": 0.18409090909091042,
                "tempo": 120.0
            },
            {
                "start_time": 13.89090909090909,
                "end_time": 14.272727272727272,
                "pitch": 36,
                "velocity": 51,
                "duration": 0.38181818181818095,
                "tempo": 120.0
            },
            {
                "start_time": 14.290909090909091,
                "end_time": 14.470454545454544,
                "pitch": 36,
                "velocity": 51,
                "duration": 0.1795454545454529,
                "tempo": 120.0
            },
            {
                "start_time": 14.486363636363636,
                "end_time": 14.674999999999999,
                "pitch": 36,
                "velocity": 51,
                "duration": 0.1886363636363626,
                "tempo": 120.0
            },
            {
                "start_time": 14.69090909090909,
                "end_time": 14.879545454545454,
                "pitch": 36,
                "velocity": 51,
                "duration": 0.18863636363636438,
                "tempo": 120.0
            },
            {
                "start_time": 14.897727272727272,
                "end_time": 15.08181818181818,
                "pitch": 36,
                "velocity": 51,
                "duration": 0.18409090909090864,
                "tempo": 120.0
            },
            {
                "start_time": 15.1,
                "end_time": 15.284090909090908,
                "pitch": 36,
                "velocity": 51,
                "duration": 0.18409090909090864,
                "tempo": 120.0
            },
            {
                "start_time": 15.299999999999999,
                "end_time": 15.484090909090908,
                "pitch": 36,
                "velocity": 51,
                "duration": 0.18409090909090864,
                "tempo": 120.0
            },
            {
                "start_time": 15.502272727272727,
                "end_time": 15.686363636363636,
                "pitch": 36,
                "velocity": 51,
                "duration": 0.18409090909090864,
                "tempo": 120.0
            },
            {
                "start_time": 15.704545454545453,
                "end_time": 15.888636363636364,
                "pitch": 36,
                "velocity": 51,
                "duration": 0.18409090909091042,
                "tempo": 120.0
            },
            {
                "start_time": 15.904545454545454,
                "end_time": 15.988636363636363,
                "pitch": 36,
                "velocity": 51,
                "duration": 0.084090909090909,
                "tempo": 120.0
            },
            {
                "start_time": 16.006818181818183,
                "end_time": 16.09090909090909,
                "pitch": 36,
                "velocity": 51,
                "duration": 0.08409090909090722,
                "tempo": 120.0
            },
            {
                "start_time": 16.10681818181818,
                "end_time": 16.29090909090909,
                "pitch": 34,
                "velocity": 51,
                "duration": 0.18409090909090864,
                "tempo": 120.0
            },
            {
                "start_time": 16.30909090909091,
                "end_time": 16.493181818181817,
                "pitch": 34,
                "velocity": 51,
                "duration": 0.18409090909090864,
                "tempo": 120.0
            },
            {
                "start_time": 16.511363636363637,
                "end_time": 16.693181818181817,
                "pitch": 34,
                "velocity": 51,
                "duration": 0.18181818181817988,
                "tempo": 120.0
            },
            {
                "start_time": 16.711363636363636,
                "end_time": 16.893181818181816,
                "pitch": 34,
                "velocity": 51,
                "duration": 0.18181818181817988,
                "tempo": 120.0
            },
            {
                "start_time": 16.911363636363635,
                "end_time": 17.09318181818182,
                "pitch": 34,
                "velocity": 51,
                "duration": 0.18181818181818343,
                "tempo": 120.0
            },
            {
                "start_time": 17.111363636363635,
                "end_time": 17.295454545454543,
                "pitch": 34,
                "velocity": 51,
                "duration": 0.18409090909090864,
                "tempo": 120.0
            },
            {
                "start_time": 17.311363636363634,
                "end_time": 17.495454545454546,
                "pitch": 34,
                "velocity": 51,
                "duration": 0.1840909090909122,
                "tempo": 120.0
            },
            {
                "start_time": 17.513636363636362,
                "end_time": 17.597727272727273,
                "pitch": 34,
                "velocity": 51,
                "duration": 0.08409090909091077,
                "tempo": 120.0
            },
            {
                "start_time": 17.613636363636363,
                "end_time": 17.69772727272727,
                "pitch": 34,
                "velocity": 51,
                "duration": 0.08409090909090722,
                "tempo": 120.0
            },
            {
                "start_time": 17.71363636363636,
                "end_time": 17.902272727272727,
                "pitch": 34,
                "velocity": 51,
                "duration": 0.18863636363636616,
                "tempo": 120.0
            },
            {
                "start_time": 17.920454545454543,
                "end_time": 18.10909090909091,
                "pitch": 33,
                "velocity": 51,
                "duration": 0.18863636363636616,
                "tempo": 120.0
            },
            {
                "start_time": 18.125,
                "end_time": 18.30681818181818,
                "pitch": 33,
                "velocity": 51,
                "duration": 0.18181818181817988,
                "tempo": 120.0
            },
            {
                "start_time": 18.32272727272727,
                "end_time": 18.502272727272725,
                "pitch": 33,
                "velocity": 51,
                "duration": 0.17954545454545467,
                "tempo": 120.0
            },
            {
                "start_time": 18.518181818181816,
                "end_time": 18.702272727272728,
                "pitch": 33,
                "velocity": 51,
                "duration": 0.1840909090909122,
                "tempo": 120.0
            },
            {
                "start_time": 18.71818181818182,
                "end_time": 18.902272727272727,
                "pitch": 33,
                "velocity": 51,
                "duration": 0.18409090909090864,
                "tempo": 120.0
            },
            {
                "start_time": 18.920454545454543,
                "end_time": 19.102272727272727,
                "pitch": 33,
                "velocity": 51,
                "duration": 0.18181818181818343,
                "tempo": 120.0
            },
            {
                "start_time": 19.120454545454546,
                "end_time": 19.202272727272728,
                "pitch": 33,
                "velocity": 51,
                "duration": 0.08181818181818201,
                "tempo": 120.0
            },
            {
                "start_time": 19.220454545454544,
                "end_time": 19.302272727272726,
                "pitch": 33,
                "velocity": 51,
                "duration": 0.08181818181818201,
                "tempo": 120.0
            },
            {
                "start_time": 19.525,
                "end_time": 19.71363636363636,
                "pitch": 29,
                "velocity": 51,
                "duration": 0.1886363636363626,
                "tempo": 120.0
            },
            {
                "start_time": 19.73181818181818,
                "end_time": 19.911363636363635,
                "pitch": 29,
                "velocity": 51,
                "duration": 0.17954545454545467,
                "tempo": 120.0
            },
            {
                "start_time": 19.927272727272726,
                "end_time": 20.10681818181818,
                "pitch": 29,
                "velocity": 51,
                "duration": 0.17954545454545467,
                "tempo": 120.0
            },
            {
                "start_time": 20.125,
                "end_time": 20.311363636363634,
                "pitch": 29,
                "velocity": 51,
                "duration": 0.18636363636363384,
                "tempo": 120.0
            },
            {
                "start_time": 20.329545454545453,
                "end_time": 20.518181818181816,
                "pitch": 29,
                "velocity": 51,
                "duration": 0.1886363636363626,
                "tempo": 120.0
            },
            {
                "start_time": 20.534090909090907,
                "end_time": 20.720454545454544,
                "pitch": 29,
                "velocity": 51,
                "duration": 0.1863636363636374,
                "tempo": 120.0
            },
            {
                "start_time": 20.736363636363635,
                "end_time": 20.820454545454545,
                "pitch": 29,
                "velocity": 51,
                "duration": 0.08409090909091077,
                "tempo": 120.0
            },
            {
                "start_time": 20.836363636363636,
                "end_time": 20.920454545454543,
                "pitch": 29,
                "velocity": 51,
                "duration": 0.08409090909090722,
                "tempo": 120.0
            },
            {
                "start_time": 20.938636363636363,
                "end_time": 21.12272727272727,
                "pitch": 38,
                "velocity": 51,
                "duration": 0.18409090909090864,
                "tempo": 120.0
            },
            {
                "start_time": 21.138636363636362,
                "end_time": 21.32272727272727,
                "pitch": 38,
                "velocity": 51,
                "duration": 0.18409090909090864,
                "tempo": 120.0
            },
            {
                "start_time": 21.33863636363636,
                "end_time": 21.518181818181816,
                "pitch": 38,
                "velocity": 51,
                "duration": 0.17954545454545467,
                "tempo": 120.0
            },
            {
                "start_time": 21.536363636363635,
                "end_time": 21.71590909090909,
                "pitch": 38,
                "velocity": 51,
                "duration": 0.17954545454545467,
                "tempo": 120.0
            },
            {
                "start_time": 21.73181818181818,
                "end_time": 21.920454545454543,
                "pitch": 38,
                "velocity": 51,
                "duration": 0.1886363636363626,
                "tempo": 120.0
            },
            {
                "start_time": 21.936363636363634,
                "end_time": 22.125,
                "pitch": 38,
                "velocity": 51,
                "duration": 0.18863636363636616,
                "tempo": 120.0
            },
            {
                "start_time": 22.143181818181816,
                "end_time": 22.327272727272724,
                "pitch": 38,
                "velocity": 51,
                "duration": 0.18409090909090864,
                "tempo": 120.0
            },
            {
                "start_time": 22.34318181818182,
                "end_time": 22.427272727272726,
                "pitch": 38,
                "velocity": 51,
                "duration": 0.08409090909090722,
                "tempo": 120.0
            },
            {
                "start_time": 22.443181818181817,
                "end_time": 22.527272727272727,
                "pitch": 38,
                "velocity": 51,
                "duration": 0.08409090909091077,
                "tempo": 120.0
            },
            {
                "start_time": 16.10681818181818,
                "end_time": 22.727272727272727,
                "pitch": 40,
                "velocity": 51,
                "duration": 6.620454545454546,
                "tempo": 120.0
            },
            {
                "start_time": 22.543181818181818,
                "end_time": 22.727272727272727,
                "pitch": 40,
                "velocity": 51,
                "duration": 0.18409090909090864,
                "tempo": 120.0
            },
            {
                "start_time": 22.745454545454546,
                "end_time": 22.929545454545455,
                "pitch": 40,
                "velocity": 51,
                "duration": 0.18409090909090864,
                "tempo": 120.0
            },
            {
                "start_time": 22.94772727272727,
                "end_time": 23.129545454545454,
                "pitch": 40,
                "velocity": 51,
                "duration": 0.18181818181818343,
                "tempo": 120.0
            },
            {
                "start_time": 23.147727272727273,
                "end_time": 23.329545454545453,
                "pitch": 40,
                "velocity": 51,
                "duration": 0.18181818181817988,
                "tempo": 120.0
            },
            {
                "start_time": 23.347727272727273,
                "end_time": 23.529545454545453,
                "pitch": 40,
                "velocity": 51,
                "duration": 0.18181818181817988,
                "tempo": 120.0
            },
            {
                "start_time": 23.547727272727272,
                "end_time": 23.73181818181818,
                "pitch": 40,
                "velocity": 51,
                "duration": 0.18409090909090864,
                "tempo": 120.0
            },
            {
                "start_time": 23.74772727272727,
                "end_time": 23.93181818181818,
                "pitch": 40,
                "velocity": 51,
                "duration": 0.18409090909090864,
                "tempo": 120.0
            },
            {
                "start_time": 23.95,
                "end_time": 24.034090909090907,
                "pitch": 40,
                "velocity": 51,
                "duration": 0.08409090909090722,
                "tempo": 120.0
            },
            {
                "start_time": 24.049999999999997,
                "end_time": 24.134090909090908,
                "pitch": 40,
                "velocity": 51,
                "duration": 0.08409090909091077,
                "tempo": 120.0
            },
            {
                "start_time": 24.15,
                "end_time": 24.334090909090907,
                "pitch": 40,
                "velocity": 51,
                "duration": 0.18409090909090864,
                "tempo": 120.0
            },
            {
                "start_time": 20.938636363636363,
                "end_time": 24.534090909090907,
                "pitch": 41,
                "velocity": 51,
                "duration": 3.595454545454544,
                "tempo": 120.0
            },
            {
                "start_time": 24.352272727272727,
                "end_time": 24.534090909090907,
                "pitch": 41,
                "velocity": 51,
                "duration": 0.18181818181817988,
                "tempo": 120.0
            },
            {
                "start_time": 24.552272727272726,
                "end_time": 24.736363636363635,
                "pitch": 41,
                "velocity": 51,
                "duration": 0.18409090909090864,
                "tempo": 120.0
            },
            {
                "start_time": 24.752272727272725,
                "end_time": 24.938636363636363,
                "pitch": 41,
                "velocity": 51,
                "duration": 0.1863636363636374,
                "tempo": 120.0
            },
            {
                "start_time": 24.954545454545453,
                "end_time": 25.138636363636362,
                "pitch": 41,
                "velocity": 51,
                "duration": 0.18409090909090864,
                "tempo": 120.0
            },
            {
                "start_time": 25.154545454545453,
                "end_time": 25.33863636363636,
                "pitch": 41,
                "velocity": 51,
                "duration": 0.18409090909090864,
                "tempo": 120.0
            },
            {
                "start_time": 25.354545454545452,
                "end_time": 25.538636363636364,
                "pitch": 41,
                "velocity": 51,
                "duration": 0.1840909090909122,
                "tempo": 120.0
            },
            {
                "start_time": 25.554545454545455,
                "end_time": 25.638636363636362,
                "pitch": 41,
                "velocity": 51,
                "duration": 0.08409090909090722,
                "tempo": 120.0
            },
            {
                "start_time": 25.654545454545453,
                "end_time": 25.738636363636363,
                "pitch": 41,
                "velocity": 51,
                "duration": 0.08409090909091077,
                "tempo": 120.0
            },
            {
                "start_time": 25.75681818181818,
                "end_time": 25.94090909090909,
                "pitch": 31,
                "velocity": 51,
                "duration": 0.1840909090909122,
                "tempo": 120.0
            },
            {
                "start_time": 25.956818181818182,
                "end_time": 26.04090909090909,
                "pitch": 31,
                "velocity": 51,
                "duration": 0.08409090909090722,
                "tempo": 120.0
            },
            {
                "start_time": 26.05909090909091,
                "end_time": 26.14090909090909,
                "pitch": 31,
                "velocity": 51,
                "duration": 0.08181818181818201,
                "tempo": 120.0
            },
            {
                "start_time": 26.159090909090907,
                "end_time": 26.343181818181815,
                "pitch": 31,
                "velocity": 51,
                "duration": 0.18409090909090864,
                "tempo": 120.0
            },
            {
                "start_time": 26.35909090909091,
                "end_time": 26.443181818181817,
                "pitch": 33,
                "velocity": 51,
                "duration": 0.08409090909090722,
                "tempo": 120.0
            },
            {
                "start_time": 26.459090909090907,
                "end_time": 26.543181818181818,
                "pitch": 33,
                "velocity": 51,
                "duration": 0.08409090909091077,
                "tempo": 120.0
            },
            {
                "start_time": 26.55909090909091,
                "end_time": 26.74772727272727,
                "pitch": 35,
                "velocity": 51,
                "duration": 0.1886363636363626,
                "tempo": 120.0
            },
            {
                "start_time": 26.76590909090909,
                "end_time": 26.849999999999998,
                "pitch": 35,
                "velocity": 51,
                "duration": 0.08409090909090722,
                "tempo": 120.0
            },
            {
                "start_time": 26.868181818181817,
                "end_time": 26.952272727272724,
                "pitch": 35,
                "velocity": 51,
                "duration": 0.08409090909090722,
                "tempo": 120.0
            },
            {
                "start_time": 22.543181818181818,
                "end_time": 27.154545454545453,
                "pitch": 38,
                "velocity": 51,
                "duration": 4.6113636363636346,
                "tempo": 120.0
            },
            {
                "start_time": 26.970454545454544,
                "end_time": 27.154545454545453,
                "pitch": 38,
                "velocity": 51,
                "duration": 0.18409090909090864,
                "tempo": 120.0
            },
            {
                "start_time": 27.172727272727272,
                "end_time": 27.25681818181818,
                "pitch": 38,
                "velocity": 51,
                "duration": 0.08409090909090722,
                "tempo": 120.0
            },
            {
                "start_time": 27.27272727272727,
                "end_time": 27.35681818181818,
                "pitch": 38,
                "velocity": 51,
                "duration": 0.08409090909091077,
                "tempo": 120.0
            },
            {
                "start_time": 27.375,
                "end_time": 27.55681818181818,
                "pitch": 36,
                "velocity": 51,
                "duration": 0.18181818181817988,
                "tempo": 120.0
            },
            {
                "start_time": 27.575,
                "end_time": 27.75681818181818,
                "pitch": 36,
                "velocity": 51,
                "duration": 0.18181818181817988,
                "tempo": 120.0
            },
            {
                "start_time": 27.775,
                "end_time": 27.954545454545453,
                "pitch": 36,
                "velocity": 51,
                "duration": 0.17954545454545467,
                "tempo": 120.0
            },
            {
                "start_time": 27.970454545454544,
                "end_time": 28.15,
                "pitch": 36,
                "velocity": 51,
                "duration": 0.17954545454545467,
                "tempo": 120.0
            },
            {
                "start_time": 28.168181818181818,
                "end_time": 28.354545454545452,
                "pitch": 36,
                "velocity": 51,
                "duration": 0.18636363636363384,
                "tempo": 120.0
            },
            {
                "start_time": 28.37272727272727,
                "end_time": 28.561363636363634,
                "pitch": 36,
                "velocity": 51,
                "duration": 0.1886363636363626,
                "tempo": 120.0
            },
            {
                "start_time": 28.579545454545453,
                "end_time": 28.761363636363637,
                "pitch": 36,
                "velocity": 51,
                "duration": 0.18181818181818343,
                "tempo": 120.0
            },
            {
                "start_time": 28.779545454545453,
                "end_time": 28.861363636363635,
                "pitch": 36,
                "velocity": 51,
                "duration": 0.08181818181818201,
                "tempo": 120.0
            },
            {
                "start_time": 28.879545454545454,
                "end_time": 28.961363636363636,
                "pitch": 36,
                "velocity": 51,
                "duration": 0.08181818181818201,
                "tempo": 120.0
            },
            {
                "start_time": 28.979545454545452,
                "end_time": 29.16363636363636,
                "pitch": 34,
                "velocity": 51,
                "duration": 0.18409090909090864,
                "tempo": 120.0
            },
            {
                "start_time": 29.18181818181818,
                "end_time": 29.36590909090909,
                "pitch": 34,
                "velocity": 51,
                "duration": 0.18409090909090864,
                "tempo": 120.0
            },
            {
                "start_time": 29.38181818181818,
                "end_time": 29.565909090909088,
                "pitch": 34,
                "velocity": 51,
                "duration": 0.18409090909090864,
                "tempo": 120.0
            },
            {
                "start_time": 29.584090909090907,
                "end_time": 29.76590909090909,
                "pitch": 34,
                "velocity": 51,
                "duration": 0.18181818181818343,
                "tempo": 120.0
            },
            {
                "start_time": 29.784090909090907,
                "end_time": 29.96590909090909,
                "pitch": 34,
                "velocity": 51,
                "duration": 0.18181818181818343,
                "tempo": 120.0
            },
            {
                "start_time": 29.98409090909091,
                "end_time": 30.16590909090909,
                "pitch": 34,
                "velocity": 51,
                "duration": 0.18181818181817988,
                "tempo": 120.0
            },
            {
                "start_time": 30.18409090909091,
                "end_time": 30.368181818181817,
                "pitch": 34,
                "velocity": 51,
                "duration": 0.18409090909090864,
                "tempo": 120.0
            },
            {
                "start_time": 30.386363636363633,
                "end_time": 30.468181818181815,
                "pitch": 34,
                "velocity": 51,
                "duration": 0.08181818181818201,
                "tempo": 120.0
            },
            {
                "start_time": 30.486363636363635,
                "end_time": 30.570454545454545,
                "pitch": 34,
                "velocity": 51,
                "duration": 0.08409090909091077,
                "tempo": 120.0
            },
            {
                "start_time": 30.586363636363636,
                "end_time": 30.770454545454545,
                "pitch": 34,
                "velocity": 51,
                "duration": 0.18409090909090864,
                "tempo": 120.0
            },
            {
                "start_time": 26.55909090909091,
                "end_time": 30.970454545454544,
                "pitch": 33,
                "velocity": 51,
                "duration": 4.411363636363635,
                "tempo": 120.0
            },
            {
                "start_time": 30.786363636363635,
                "end_time": 30.970454545454544,
                "pitch": 33,
                "velocity": 51,
                "duration": 0.18409090909090864,
                "tempo": 120.0
            },
            {
                "start_time": 30.988636363636363,
                "end_time": 31.172727272727272,
                "pitch": 33,
                "velocity": 51,
                "duration": 0.18409090909090864,
                "tempo": 120.0
            },
            {
                "start_time": 31.188636363636363,
                "end_time": 31.37272727272727,
                "pitch": 33,
                "velocity": 51,
                "duration": 0.18409090909090864,
                "tempo": 120.0
            },
            {
                "start_time": 31.39090909090909,
                "end_time": 31.575,
                "pitch": 33,
                "velocity": 51,
                "duration": 0.18409090909090864,
                "tempo": 120.0
            },
            {
                "start_time": 31.59090909090909,
                "end_time": 31.775,
                "pitch": 33,
                "velocity": 51,
                "duration": 0.18409090909090864,
                "tempo": 120.0
            },
            {
                "start_time": 31.79090909090909,
                "end_time": 31.974999999999998,
                "pitch": 33,
                "velocity": 51,
                "duration": 0.18409090909090864,
                "tempo": 120.0
            },
            {
                "start_time": 31.99090909090909,
                "end_time": 32.074999999999996,
                "pitch": 33,
                "velocity": 51,
                "duration": 0.08409090909090722,
                "tempo": 120.0
            },
            {
                "start_time": 32.090909090909086,
                "end_time": 32.175,
                "pitch": 33,
                "velocity": 51,
                "duration": 0.08409090909091077,
                "tempo": 120.0
            },
            {
                "start_time": 32.393181818181816,
                "end_time": 32.574999999999996,
                "pitch": 29,
                "velocity": 51,
                "duration": 0.18181818181817988,
                "tempo": 120.0
            },
            {
                "start_time": 32.59318181818182,
                "end_time": 32.777272727272724,
                "pitch": 29,
                "velocity": 51,
                "duration": 0.18409090909090509,
                "tempo": 120.0
            },
            {
                "start_time": 32.793181818181814,
                "end_time": 32.97954545454545,
                "pitch": 29,
                "velocity": 51,
                "duration": 0.1863636363636374,
                "tempo": 120.0
            },
            {
                "start_time": 32.99545454545454,
                "end_time": 33.179545454545455,
                "pitch": 29,
                "velocity": 51,
                "duration": 0.1840909090909122,
                "tempo": 120.0
            },
            {
                "start_time": 33.195454545454545,
                "end_time": 33.37954545454545,
                "pitch": 29,
                "velocity": 51,
                "duration": 0.18409090909090509,
                "tempo": 120.0
            },
            {
                "start_time": 33.39545454545454,
                "end_time": 33.57954545454545,
                "pitch": 29,
                "velocity": 51,
                "duration": 0.1840909090909122,
                "tempo": 120.0
            },
            {
                "start_time": 33.595454545454544,
                "end_time": 33.679545454545455,
                "pitch": 29,
                "velocity": 51,
                "duration": 0.08409090909091077,
                "tempo": 120.0
            },
            {
                "start_time": 33.695454545454545,
                "end_time": 33.779545454545456,
                "pitch": 29,
                "velocity": 51,
                "duration": 0.08409090909091077,
                "tempo": 120.0
            },
            {
                "start_time": 27.375,
                "end_time": 33.98409090909091,
                "pitch": 38,
                "velocity": 51,
                "duration": 6.609090909090909,
                "tempo": 120.0
            },
            {
                "start_time": 33.79772727272727,
                "end_time": 33.98409090909091,
                "pitch": 38,
                "velocity": 51,
                "duration": 0.1863636363636374,
                "tempo": 120.0
            },
            {
                "start_time": 34.002272727272725,
                "end_time": 34.19090909090909,
                "pitch": 38,
                "velocity": 51,
                "duration": 0.1886363636363626,
                "tempo": 120.0
            },
            {
                "start_time": 34.20681818181818,
                "end_time": 34.388636363636365,
                "pitch": 38,
                "velocity": 51,
                "duration": 0.18181818181818699,
                "tempo": 120.0
            },
            {
                "start_time": 34.404545454545456,
                "end_time": 34.58409090909091,
                "pitch": 38,
                "velocity": 51,
                "duration": 0.17954545454545467,
                "tempo": 120.0
            },
            {
                "start_time": 34.6,
                "end_time": 34.788636363636364,
                "pitch": 38,
                "velocity": 51,
                "duration": 0.1886363636363626,
                "tempo": 120.0
            },
            {
                "start_time": 34.80681818181818,
                "end_time": 34.99318181818182,
                "pitch": 38,
                "velocity": 51,
                "duration": 0.1863636363636374,
                "tempo": 120.0
            },
            {
                "start_time": 35.01136363636363,
                "end_time": 35.19090909090909,
                "pitch": 38,
                "velocity": 51,
                "duration": 0.17954545454545467,
                "tempo": 120.0
            },
            {
                "start_time": 35.20909090909091,
                "end_time": 35.288636363636364,
                "pitch": 38,
                "velocity": 51,
                "duration": 0.07954545454545325,
                "tempo": 120.0
            },
            {
                "start_time": 35.30681818181818,
                "end_time": 35.388636363636365,
                "pitch": 38,
                "velocity": 51,
                "duration": 0.08181818181818556,
                "tempo": 120.0
            },
            {
                "start_time": 33.79772727272727,
                "end_time": 35.404545454545456,
                "pitch": 41,
                "velocity": 51,
                "duration": 1.6068181818181841,
                "tempo": 120.0
            },
            {
                "start_time": 35.404545454545456,
                "end_time": 35.59318181818182,
                "pitch": 31,
                "velocity": 51,
                "duration": 0.1886363636363626,
                "tempo": 120.0
            },
            {
                "start_time": 35.60909090909091,
                "end_time": 35.79772727272727,
                "pitch": 31,
                "velocity": 51,
                "duration": 0.1886363636363626,
                "tempo": 120.0
            },
            {
                "start_time": 35.81590909090909,
                "end_time": 35.99545454545454,
                "pitch": 31,
                "velocity": 51,
                "duration": 0.17954545454545467,
                "tempo": 120.0
            },
            {
                "start_time": 36.01136363636363,
                "end_time": 36.19090909090909,
                "pitch": 31,
                "velocity": 51,
                "duration": 0.17954545454545467,
                "tempo": 120.0
            },
            {
                "start_time": 36.20909090909091,
                "end_time": 36.39090909090909,
                "pitch": 31,
                "velocity": 51,
                "duration": 0.18181818181817988,
                "tempo": 120.0
            },
            {
                "start_time": 36.40909090909091,
                "end_time": 36.590909090909086,
                "pitch": 31,
                "velocity": 51,
                "duration": 0.18181818181817988,
                "tempo": 120.0
            },
            {
                "start_time": 36.60909090909091,
                "end_time": 36.79772727272727,
                "pitch": 31,
                "velocity": 51,
                "duration": 0.1886363636363626,
                "tempo": 120.0
            },
            {
                "start_time": 36.81363636363636,
                "end_time": 36.9,
                "pitch": 31,
                "velocity": 51,
                "duration": 0.08636363636363598,
                "tempo": 120.0
            },
            {
                "start_time": 36.91590909090909,
                "end_time": 37.002272727272725,
                "pitch": 31,
                "velocity": 51,
                "duration": 0.08636363636363598,
                "tempo": 120.0
            },
            {
                "start_time": 1.5999999999999999,
                "end_time": 37.02045454545454,
                "pitch": 0,
                "velocity": 51,
                "duration": 35.42045454545454,
                "tempo": 120.0
            },
            {
                "start_time": 37.02045454545454,
                "end_time": 37.20454545454545,
                "pitch": 36,
                "velocity": 51,
                "duration": 0.1840909090909122,
                "tempo": 120.0
            },
            {
                "start_time": 37.220454545454544,
                "end_time": 37.304545454545455,
                "pitch": 36,
                "velocity": 51,
                "duration": 0.08409090909091077,
                "tempo": 120.0
            },
            {
                "start_time": 37.320454545454545,
                "end_time": 37.404545454545456,
                "pitch": 36,
                "velocity": 51,
                "duration": 0.08409090909091077,
                "tempo": 120.0
            },
            {
                "start_time": 37.42045454545455,
                "end_time": 37.60454545454545,
                "pitch": 38,
                "velocity": 51,
                "duration": 0.18409090909090509,
                "tempo": 120.0
            },
            {
                "start_time": 37.62045454545454,
                "end_time": 37.70454545454545,
                "pitch": 38,
                "velocity": 51,
                "duration": 0.08409090909091077,
                "tempo": 120.0
            },
            {
                "start_time": 37.720454545454544,
                "end_time": 37.804545454545455,
                "pitch": 38,
                "velocity": 51,
                "duration": 0.08409090909091077,
                "tempo": 120.0
            },
            {
                "start_time": 28.979545454545452,
                "end_time": 38.00454545454545,
                "pitch": 40,
                "velocity": 51,
                "duration": 9.024999999999999,
                "tempo": 120.0
            },
            {
                "start_time": 37.820454545454545,
                "end_time": 38.00454545454545,
                "pitch": 40,
                "velocity": 51,
                "duration": 0.18409090909090509,
                "tempo": 120.0
            },
            {
                "start_time": 38.02045454545454,
                "end_time": 38.10454545454545,
                "pitch": 40,
                "velocity": 51,
                "duration": 0.08409090909091077,
                "tempo": 120.0
            },
            {
                "start_time": 38.12272727272727,
                "end_time": 38.20454545454545,
                "pitch": 40,
                "velocity": 51,
                "duration": 0.08181818181818556,
                "tempo": 120.0
            },
            {
                "start_time": 37.42045454545455,
                "end_time": 38.40681818181818,
                "pitch": 36,
                "velocity": 51,
                "duration": 0.9863636363636346,
                "tempo": 120.0
            },
            {
                "start_time": 38.22272727272727,
                "end_time": 38.40681818181818,
                "pitch": 36,
                "velocity": 51,
                "duration": 0.1840909090909122,
                "tempo": 120.0
            },
            {
                "start_time": 38.42272727272727,
                "end_time": 38.50681818181818,
                "pitch": 36,
                "velocity": 51,
                "duration": 0.08409090909091077,
                "tempo": 120.0
            },
            {
                "start_time": 38.525,
                "end_time": 38.60681818181818,
                "pitch": 36,
                "velocity": 51,
                "duration": 0.08181818181817846,
                "tempo": 120.0
            },
            {
                "start_time": 38.625,
                "end_time": 38.709090909090904,
                "pitch": 36,
                "velocity": 51,
                "duration": 0.08409090909090366,
                "tempo": 120.0
            },
            {
                "start_time": 38.725,
                "end_time": 38.809090909090905,
                "pitch": 48,
                "velocity": 51,
                "duration": 0.08409090909090366,
                "tempo": 120.0
            },
            {
                "start_time": 38.824999999999996,
                "end_time": 38.90909090909091,
                "pitch": 48,
                "velocity": 51,
                "duration": 0.08409090909091077,
                "tempo": 120.0
            },
            {
                "start_time": 38.925,
                "end_time": 39.00909090909091,
                "pitch": 48,
                "velocity": 51,
                "duration": 0.08409090909091077,
                "tempo": 120.0
            },
            {
                "start_time": 38.22272727272727,
                "end_time": 39.025,
                "pitch": 40,
                "velocity": 51,
                "duration": 0.8022727272727295,
                "tempo": 120.0
            },
            {
                "start_time": 39.025,
                "end_time": 39.10909090909091,
                "pitch": 31,
                "velocity": 51,
                "duration": 0.08409090909091077,
                "tempo": 120.0
            },
            {
                "start_time": 39.125,
                "end_time": 39.209090909090904,
                "pitch": 43,
                "velocity": 51,
                "duration": 0.08409090909090366,
                "tempo": 120.0
            },
            {
                "start_time": 39.225,
                "end_time": 39.309090909090905,
                "pitch": 43,
                "velocity": 51,
                "duration": 0.08409090909090366,
                "tempo": 120.0
            },
            {
                "start_time": 39.324999999999996,
                "end_time": 39.40909090909091,
                "pitch": 43,
                "velocity": 51,
                "duration": 0.08409090909091077,
                "tempo": 120.0
            },
            {
                "start_time": 37.02045454545454,
                "end_time": 39.425,
                "pitch": 0,
                "velocity": 51,
                "duration": 2.404545454545456,
                "tempo": 120.0
            },
            {
                "start_time": 39.425,
                "end_time": 39.50909090909091,
                "pitch": 28,
                "velocity": 51,
                "duration": 0.08409090909091077,
                "tempo": 120.0
            },
            {
                "start_time": 39.025,
                "end_time": 39.60909090909091,
                "pitch": 40,
                "velocity": 51,
                "duration": 0.5840909090909108,
                "tempo": 120.0
            },
            {
                "start_time": 39.527272727272724,
                "end_time": 39.60909090909091,
                "pitch": 40,
                "velocity": 51,
                "duration": 0.08181818181818556,
                "tempo": 120.0
            },
            {
                "start_time": 39.627272727272725,
                "end_time": 39.709090909090904,
                "pitch": 40,
                "velocity": 51,
                "duration": 0.08181818181817846,
                "tempo": 120.0
            },
            {
                "start_time": 39.72727272727273,
                "end_time": 39.809090909090905,
                "pitch": 40,
                "velocity": 51,
                "duration": 0.08181818181817846,
                "tempo": 120.0
            },
            {
                "start_time": 1.2068181818181818,
                "end_time": 39.82727272727273,
                "pitch": 54,
                "velocity": 51,
                "duration": 38.62045454545455,
                "tempo": 120.0
            },
            {
                "start_time": 39.82727272727273,
                "end_time": 39.90909090909091,
                "pitch": 43,
                "velocity": 51,
                "duration": 0.08181818181817846,
                "tempo": 120.0
            },
            {
                "start_time": 39.425,
                "end_time": 39.92727272727272,
                "pitch": 0,
                "velocity": 51,
                "duration": 0.5022727272727252,
                "tempo": 120.0
            },
            {
                "start_time": 39.92727272727272,
                "end_time": 40.00909090909091,
                "pitch": 36,
                "velocity": 51,
                "duration": 0.08181818181818556,
                "tempo": 120.0
            },
            {
                "start_time": 40.027272727272724,
                "end_time": 40.10909090909091,
                "pitch": 36,
                "velocity": 51,
                "duration": 0.08181818181818556,
                "tempo": 120.0
            },
            {
                "start_time": 40.127272727272725,
                "end_time": 40.209090909090904,
                "pitch": 36,
                "velocity": 51,
                "duration": 0.08181818181817846,
                "tempo": 120.0
            },
            {
                "start_time": 40.22727272727273,
                "end_time": 40.41590909090909,
                "pitch": 36,
                "velocity": 51,
                "duration": 0.1886363636363626,
                "tempo": 120.0
            },
            {
                "start_time": 40.43181818181818,
                "end_time": 40.62045454545454,
                "pitch": 36,
                "velocity": 51,
                "duration": 0.1886363636363626,
                "tempo": 120.0
            },
            {
                "start_time": 40.63863636363636,
                "end_time": 40.81818181818181,
                "pitch": 36,
                "velocity": 51,
                "duration": 0.17954545454545467,
                "tempo": 120.0
            },
            {
                "start_time": 40.834090909090904,
                "end_time": 41.01363636363636,
                "pitch": 36,
                "velocity": 51,
                "duration": 0.17954545454545467,
                "tempo": 120.0
            },
            {
                "start_time": 41.03181818181818,
                "end_time": 41.21363636363636,
                "pitch": 36,
                "velocity": 51,
                "duration": 0.18181818181817988,
                "tempo": 120.0
            },
            {
                "start_time": 41.23181818181818,
                "end_time": 41.413636363636364,
                "pitch": 36,
                "velocity": 51,
                "duration": 0.18181818181818699,
                "tempo": 120.0
            },
            {
                "start_time": 41.43181818181818,
                "end_time": 41.62045454545454,
                "pitch": 36,
                "velocity": 51,
                "duration": 0.1886363636363626,
                "tempo": 120.0
            },
            {
                "start_time": 41.63636363636363,
                "end_time": 41.72272727272727,
                "pitch": 36,
                "velocity": 51,
                "duration": 0.08636363636363598,
                "tempo": 120.0
            },
            {
                "start_time": 41.74090909090909,
                "end_time": 41.824999999999996,
                "pitch": 36,
                "velocity": 51,
                "duration": 0.08409090909090366,
                "tempo": 120.0
            },
            {
                "start_time": 41.84318181818182,
                "end_time": 42.03181818181818,
                "pitch": 34,
                "velocity": 51,
                "duration": 0.1886363636363626,
                "tempo": 120.0
            },
            {
                "start_time": 42.04772727272727,
                "end_time": 42.236363636363635,
                "pitch": 34,
                "velocity": 51,
                "duration": 0.1886363636363626,
                "tempo": 120.0
            },
            {
                "start_time": 42.25454545454545,
                "end_time": 42.434090909090905,
                "pitch": 34,
                "velocity": 51,
                "duration": 0.17954545454545467,
                "tempo": 120.0
            },
            {
                "start_time": 42.45227272727273,
                "end_time": 42.63181818181818,
                "pitch": 34,
                "velocity": 51,
                "duration": 0.17954545454545467,
                "tempo": 120.0
            },
            {
                "start_time": 42.64772727272727,
                "end_time": 42.82954545454545,
                "pitch": 34,
                "velocity": 51,
                "duration": 0.18181818181817988,
                "tempo": 120.0
            },
            {
                "start_time": 42.84772727272727,
                "end_time": 43.03181818181818,
                "pitch": 34,
                "velocity": 51,
                "duration": 0.1840909090909122,
                "tempo": 120.0
            },
            {
                "start_time": 43.04772727272727,
                "end_time": 43.23181818181818,
                "pitch": 34,
                "velocity": 51,
                "duration": 0.18409090909090509,
                "tempo": 120.0
            },
            {
                "start_time": 43.24772727272727,
                "end_time": 43.33181818181818,
                "pitch": 34,
                "velocity": 51,
                "duration": 0.08409090909091077,
                "tempo": 120.0
            },
            {
                "start_time": 43.34772727272727,
                "end_time": 43.43181818181818,
                "pitch": 34,
                "velocity": 51,
                "duration": 0.08409090909091077,
                "tempo": 120.0
            },
            {
                "start_time": 43.44772727272727,
                "end_time": 43.63181818181818,
                "pitch": 34,
                "velocity": 51,
                "duration": 0.1840909090909122,
                "tempo": 120.0
            },
            {
                "start_time": 43.65,
                "end_time": 43.834090909090904,
                "pitch": 33,
                "velocity": 51,
                "duration": 0.18409090909090509,
                "tempo": 120.0
            },
            {
                "start_time": 43.85227272727273,
                "end_time": 44.03409090909091,
                "pitch": 33,
                "velocity": 51,
                "duration": 0.18181818181817988,
                "tempo": 120.0
            },
            {
                "start_time": 44.05227272727272,
                "end_time": 44.236363636363635,
                "pitch": 33,
                "velocity": 51,
                "duration": 0.1840909090909122,
                "tempo": 120.0
            },
            {
                "start_time": 44.252272727272725,
                "end_time": 44.43636363636364,
                "pitch": 33,
                "velocity": 51,
                "duration": 0.1840909090909122,
                "tempo": 120.0
            },
            {
                "start_time": 44.45227272727273,
                "end_time": 44.63636363636363,
                "pitch": 33,
                "velocity": 51,
                "duration": 0.18409090909090509,
                "tempo": 120.0
            },
            {
                "start_time": 44.652272727272724,
                "end_time": 44.836363636363636,
                "pitch": 33,
                "velocity": 51,
                "duration": 0.1840909090909122,
                "tempo": 120.0
            },
            {
                "start_time": 44.85227272727273,
                "end_time": 44.93636363636364,
                "pitch": 33,
                "velocity": 51,
                "duration": 0.08409090909091077,
                "tempo": 120.0
            },
            {
                "start_time": 44.95227272727273,
                "end_time": 45.03636363636363,
                "pitch": 33,
                "velocity": 51,
                "duration": 0.08409090909090366,
                "tempo": 120.0
            },
            {
                "start_time": 45.25454545454545,
                "end_time": 45.43636363636364,
                "pitch": 29,
                "velocity": 51,
                "duration": 0.18181818181818699,
                "tempo": 120.0
            },
            {
                "start_time": 45.45454545454545,
                "end_time": 45.63863636363636,
                "pitch": 29,
                "velocity": 51,
                "duration": 0.18409090909090509,
                "tempo": 120.0
            },
            {
                "start_time": 45.65454545454545,
                "end_time": 45.840909090909086,
                "pitch": 29,
                "velocity": 51,
                "duration": 0.1863636363636374,
                "tempo": 120.0
            },
            {
                "start_time": 45.85681818181818,
                "end_time": 46.04090909090909,
                "pitch": 29,
                "velocity": 51,
                "duration": 0.1840909090909122,
                "tempo": 120.0
            },
            {
                "start_time": 46.05681818181818,
                "end_time": 46.24090909090909,
                "pitch": 29,
                "velocity": 51,
                "duration": 0.1840909090909122,
                "tempo": 120.0
            },
            {
                "start_time": 46.25681818181818,
                "end_time": 46.44090909090909,
                "pitch": 29,
                "velocity": 51,
                "duration": 0.18409090909090509,
                "tempo": 120.0
            },
            {
                "start_time": 46.459090909090904,
                "end_time": 46.54090909090909,
                "pitch": 29,
                "velocity": 51,
                "duration": 0.08181818181818556,
                "tempo": 120.0
            },
            {
                "start_time": 46.559090909090905,
                "end_time": 46.64090909090909,
                "pitch": 29,
                "velocity": 51,
                "duration": 0.08181818181818556,
                "tempo": 120.0
            },
            {
                "start_time": 35.404545454545456,
                "end_time": 46.65909090909091,
                "pitch": 41,
                "velocity": 51,
                "duration": 11.25454545454545,
                "tempo": 120.0
            },
            {
                "start_time": 37.820454545454545,
                "end_time": 46.845454545454544,
                "pitch": 38,
                "velocity": 51,
                "duration": 9.024999999999999,
                "tempo": 120.0
            },
            {
                "start_time": 46.65909090909091,
                "end_time": 46.845454545454544,
                "pitch": 38,
                "velocity": 51,
                "duration": 0.1863636363636374,
                "tempo": 120.0
            },
            {
                "start_time": 46.86363636363636,
                "end_time": 47.05227272727272,
                "pitch": 38,
                "velocity": 51,
                "duration": 0.1886363636363626,
                "tempo": 120.0
            },
            {
                "start_time": 47.070454545454545,
                "end_time": 47.25,
                "pitch": 38,
                "velocity": 51,
                "duration": 0.17954545454545467,
                "tempo": 120.0
            },
            {
                "start_time": 47.26590909090909,
                "end_time": 47.445454545454545,
                "pitch": 38,
                "velocity": 51,
                "duration": 0.17954545454545467,
                "tempo": 120.0
            },
            {
                "start_time": 47.461363636363636,
                "end_time": 47.64545454545454,
                "pitch": 38,
                "velocity": 51,
                "duration": 0.18409090909090509,
                "tempo": 120.0
            },
            {
                "start_time": 47.663636363636364,
                "end_time": 47.84772727272727,
                "pitch": 38,
                "velocity": 51,
                "duration": 0.18409090909090509,
                "tempo": 120.0
            },
            {
                "start_time": 47.86590909090909,
                "end_time": 48.05227272727272,
                "pitch": 38,
                "velocity": 51,
                "duration": 0.1863636363636303,
                "tempo": 120.0
            },
            {
                "start_time": 48.070454545454545,
                "end_time": 48.15681818181818,
                "pitch": 38,
                "velocity": 51,
                "duration": 0.08636363636363598,
                "tempo": 120.0
            },
            {
                "start_time": 48.17272727272727,
                "end_time": 48.25909090909091,
                "pitch": 38,
                "velocity": 51,
                "duration": 0.08636363636363598,
                "tempo": 120.0
            },
            {
                "start_time": 41.84318181818182,
                "end_time": 48.45681818181818,
                "pitch": 40,
                "velocity": 51,
                "duration": 6.61363636363636,
                "tempo": 120.0
            },
            {
                "start_time": 48.277272727272724,
                "end_time": 48.45681818181818,
                "pitch": 40,
                "velocity": 51,
                "duration": 0.17954545454545467,
                "tempo": 120.0
            },
            {
                "start_time": 48.47272727272727,
                "end_time": 48.652272727272724,
                "pitch": 40,
                "velocity": 51,
                "duration": 0.17954545454545467,
                "tempo": 120.0
            },
            {
                "start_time": 48.67045454545454,
                "end_time": 48.85227272727273,
                "pitch": 40,
                "velocity": 51,
                "duration": 0.18181818181818699,
                "tempo": 120.0
            },
            {
                "start_time": 48.87045454545454,
                "end_time": 49.05227272727272,
                "pitch": 40,
                "velocity": 51,
                "duration": 0.18181818181817988,
                "tempo": 120.0
            },
            {
                "start_time": 49.070454545454545,
                "end_time": 49.252272727272725,
                "pitch": 40,
                "velocity": 51,
                "duration": 0.18181818181817988,
                "tempo": 120.0
            },
            {
                "start_time": 49.27045454545454,
                "end_time": 49.45454545454545,
                "pitch": 40,
                "velocity": 51,
                "duration": 0.1840909090909122,
                "tempo": 120.0
            },
            {
                "start_time": 49.470454545454544,
                "end_time": 49.65909090909091,
                "pitch": 40,
                "velocity": 51,
                "duration": 0.1886363636363626,
                "tempo": 120.0
            },
            {
                "start_time": 49.675,
                "end_time": 49.76136363636363,
                "pitch": 40,
                "velocity": 51,
                "duration": 0.08636363636363598,
                "tempo": 120.0
            },
            {
                "start_time": 49.77954545454545,
                "end_time": 49.86363636363636,
                "pitch": 40,
                "velocity": 51,
                "duration": 0.08409090909091077,
                "tempo": 120.0
            },
            {
                "start_time": 49.88181818181818,
                "end_time": 50.06590909090909,
                "pitch": 40,
                "velocity": 51,
                "duration": 0.18409090909090509,
                "tempo": 120.0
            },
            {
                "start_time": 46.65909090909091,
                "end_time": 50.26590909090909,
                "pitch": 41,
                "velocity": 51,
                "duration": 3.606818181818184,
                "tempo": 120.0
            },
            {
                "start_time": 50.08181818181818,
                "end_time": 50.26590909090909,
                "pitch": 41,
                "velocity": 51,
                "duration": 0.1840909090909122,
                "tempo": 120.0
            },
            {
                "start_time": 50.28181818181818,
                "end_time": 50.465909090909086,
                "pitch": 41,
                "velocity": 51,
                "duration": 0.18409090909090509,
                "tempo": 120.0
            },
            {
                "start_time": 50.48181818181818,
                "end_time": 50.66590909090909,
                "pitch": 41,
                "velocity": 51,
                "duration": 0.1840909090909122,
                "tempo": 120.0
            },
            {
                "start_time": 50.684090909090905,
                "end_time": 50.865909090909085,
                "pitch": 41,
                "velocity": 51,
                "duration": 0.18181818181817988,
                "tempo": 120.0
            },
            {
                "start_time": 50.88409090909091,
                "end_time": 51.06590909090909,
                "pitch": 41,
                "velocity": 51,
                "duration": 0.18181818181817988,
                "tempo": 120.0
            },
            {
                "start_time": 51.084090909090904,
                "end_time": 51.268181818181816,
                "pitch": 41,
                "velocity": 51,
                "duration": 0.1840909090909122,
                "tempo": 120.0
            },
            {
                "start_time": 51.28409090909091,
                "end_time": 51.36818181818182,
                "pitch": 41,
                "velocity": 51,
                "duration": 0.08409090909091077,
                "tempo": 120.0
            },
            {
                "start_time": 51.38636363636363,
                "end_time": 51.470454545454544,
                "pitch": 41,
                "velocity": 51,
                "duration": 0.08409090909091077,
                "tempo": 120.0
            },
            {
                "start_time": 25.75681818181818,
                "end_time": 51.486363636363635,
                "pitch": 42,
                "velocity": 51,
                "duration": 25.729545454545455,
                "tempo": 120.0
            },
            {
                "start_time": 51.486363636363635,
                "end_time": 51.67045454545454,
                "pitch": 31,
                "velocity": 51,
                "duration": 0.18409090909090509,
                "tempo": 120.0
            },
            {
                "start_time": 51.68636363636364,
                "end_time": 51.77045454545454,
                "pitch": 31,
                "velocity": 51,
                "duration": 0.08409090909090366,
                "tempo": 120.0
            },
            {
                "start_time": 51.78636363636363,
                "end_time": 51.87045454545454,
                "pitch": 31,
                "velocity": 51,
                "duration": 0.08409090909091077,
                "tempo": 120.0
            },
            {
                "start_time": 51.88636363636363,
                "end_time": 52.070454545454545,
                "pitch": 31,
                "velocity": 51,
                "duration": 0.1840909090909122,
                "tempo": 120.0
            },
            {
                "start_time": 52.08863636363636,
                "end_time": 52.17045454545454,
                "pitch": 33,
                "velocity": 51,
                "duration": 0.08181818181817846,
                "tempo": 120.0
            },
            {
                "start_time": 52.18863636363636,
                "end_time": 52.27045454545454,
                "pitch": 33,
                "velocity": 51,
                "duration": 0.08181818181817846,
                "tempo": 120.0
            },
            {
                "start_time": 52.288636363636364,
                "end_time": 52.470454545454544,
                "pitch": 35,
                "velocity": 51,
                "duration": 0.18181818181817988,
                "tempo": 120.0
            },
            {
                "start_time": 52.48863636363636,
                "end_time": 52.570454545454545,
                "pitch": 35,
                "velocity": 51,
                "duration": 0.08181818181818556,
                "tempo": 120.0
            },
            {
                "start_time": 52.58863636363636,
                "end_time": 52.67045454545454,
                "pitch": 35,
                "velocity": 51,
                "duration": 0.08181818181817846,
                "tempo": 120.0
            },
            {
                "start_time": 26.970454545454544,
                "end_time": 52.68863636363636,
                "pitch": 19,
                "velocity": 51,
                "duration": 25.71818181818182,
                "tempo": 120.0
            },
            {
                "start_time": 48.277272727272724,
                "end_time": 52.87272727272727,
                "pitch": 38,
                "velocity": 51,
                "duration": 4.595454545454544,
                "tempo": 120.0
            },
            {
                "start_time": 52.68863636363636,
                "end_time": 52.87272727272727,
                "pitch": 38,
                "velocity": 51,
                "duration": 0.18409090909090509,
                "tempo": 120.0
            },
            {
                "start_time": 52.88863636363636,
                "end_time": 52.97272727272727,
                "pitch": 38,
                "velocity": 51,
                "duration": 0.08409090909091077,
                "tempo": 120.0
            },
            {
                "start_time": 52.98863636363636,
                "end_time": 53.07272727272727,
                "pitch": 38,
                "velocity": 51,
                "duration": 0.08409090909091077,
                "tempo": 120.0
            },
            {
                "start_time": 53.08863636363636,
                "end_time": 53.27272727272727,
                "pitch": 36,
                "velocity": 51,
                "duration": 0.1840909090909122,
                "tempo": 120.0
            },
            {
                "start_time": 53.29090909090909,
                "end_time": 53.474999999999994,
                "pitch": 36,
                "velocity": 51,
                "duration": 0.18409090909090509,
                "tempo": 120.0
            },
            {
                "start_time": 53.49318181818182,
                "end_time": 53.675,
                "pitch": 36,
                "velocity": 51,
                "duration": 0.18181818181817988,
                "tempo": 120.0
            },
            {
                "start_time": 53.69318181818181,
                "end_time": 53.875,
                "pitch": 36,
                "velocity": 51,
                "duration": 0.18181818181818699,
                "tempo": 120.0
            },
            {
                "start_time": 53.893181818181816,
                "end_time": 54.074999999999996,
                "pitch": 36,
                "velocity": 51,
                "duration": 0.18181818181817988,
                "tempo": 120.0
            },
            {
                "start_time": 54.09318181818182,
                "end_time": 54.277272727272724,
                "pitch": 36,
                "velocity": 51,
                "duration": 0.18409090909090509,
                "tempo": 120.0
            },
            {
                "start_time": 54.293181818181814,
                "end_time": 54.47727272727273,
                "pitch": 36,
                "velocity": 51,
                "duration": 0.1840909090909122,
                "tempo": 120.0
            },
            {
                "start_time": 54.49318181818182,
                "end_time": 54.57727272727273,
                "pitch": 36,
                "velocity": 51,
                "duration": 0.08409090909091077,
                "tempo": 120.0
            },
            {
                "start_time": 54.59318181818182,
                "end_time": 54.67727272727272,
                "pitch": 36,
                "velocity": 51,
                "duration": 0.08409090909090366,
                "tempo": 120.0
            },
            {
                "start_time": 54.69318181818181,
                "end_time": 54.881818181818176,
                "pitch": 34,
                "velocity": 51,
                "duration": 0.1886363636363626,
                "tempo": 120.0
            },
            {
                "start_time": 54.9,
                "end_time": 55.086363636363636,
                "pitch": 34,
                "velocity": 51,
                "duration": 0.1863636363636374,
                "tempo": 120.0
            },
            {
                "start_time": 55.10454545454545,
                "end_time": 55.28409090909091,
                "pitch": 34,
                "velocity": 51,
                "duration": 0.17954545454545467,
                "tempo": 120.0
            },
            {
                "start_time": 55.30227272727272,
                "end_time": 55.48181818181818,
                "pitch": 34,
                "velocity": 51,
                "duration": 0.17954545454545467,
                "tempo": 120.0
            },
            {
                "start_time": 55.49772727272727,
                "end_time": 55.68181818181818,
                "pitch": 34,
                "velocity": 51,
                "duration": 0.1840909090909122,
                "tempo": 120.0
            },
            {
                "start_time": 55.69772727272727,
                "end_time": 55.881818181818176,
                "pitch": 34,
                "velocity": 51,
                "duration": 0.18409090909090509,
                "tempo": 120.0
            },
            {
                "start_time": 55.89772727272727,
                "end_time": 56.086363636363636,
                "pitch": 34,
                "velocity": 51,
                "duration": 0.1886363636363626,
                "tempo": 120.0
            },
            {
                "start_time": 56.10454545454545,
                "end_time": 56.18863636363636,
                "pitch": 34,
                "velocity": 51,
                "duration": 0.08409090909091077,
                "tempo": 120.0
            },
            {
                "start_time": 56.20681818181818,
                "end_time": 56.29090909090909,
                "pitch": 34,
                "velocity": 51,
                "duration": 0.08409090909091077,
                "tempo": 120.0
            },
            {
                "start_time": 56.309090909090905,
                "end_time": 56.49318181818182,
                "pitch": 34,
                "velocity": 51,
                "duration": 0.1840909090909122,
                "tempo": 120.0
            },
            {
                "start_time": 52.288636363636364,
                "end_time": 56.695454545454545,
                "pitch": 33,
                "velocity": 51,
                "duration": 4.406818181818181,
                "tempo": 120.0
            },
            {
                "start_time": 56.51136363636363,
                "end_time": 56.695454545454545,
                "pitch": 33,
                "velocity": 51,
                "duration": 0.1840909090909122,
                "tempo": 120.0
            },
            {
                "start_time": 56.71363636363636,
                "end_time": 56.893181818181816,
                "pitch": 33,
                "velocity": 51,
                "duration": 0.17954545454545467,
                "tempo": 120.0
            },
            {
                "start_time": 56.90909090909091,
                "end_time": 57.08863636363636,
                "pitch": 33,
                "velocity": 51,
                "duration": 0.17954545454545467,
                "tempo": 120.0
            },
            {
                "start_time": 57.10681818181818,
                "end_time": 57.293181818181814,
                "pitch": 33,
                "velocity": 51,
                "duration": 0.1863636363636374,
                "tempo": 120.0
            },
            {
                "start_time": 57.31136363636363,
                "end_time": 57.5,
                "pitch": 33,
                "velocity": 51,
                "duration": 0.1886363636363697,
                "tempo": 120.0
            },
            {
                "start_time": 57.51590909090909,
                "end_time": 57.695454545454545,
                "pitch": 33,
                "velocity": 51,
                "duration": 0.17954545454545467,
                "tempo": 120.0
            },
            {
                "start_time": 57.71363636363636,
                "end_time": 57.79545454545454,
                "pitch": 33,
                "velocity": 51,
                "duration": 0.08181818181817846,
                "tempo": 120.0
            },
            {
                "start_time": 57.81136363636363,
                "end_time": 57.893181818181816,
                "pitch": 33,
                "velocity": 51,
                "duration": 0.08181818181818556,
                "tempo": 120.0
            },
            {
                "start_time": 58.11363636363636,
                "end_time": 58.30227272727272,
                "pitch": 29,
                "velocity": 51,
                "duration": 0.1886363636363626,
                "tempo": 120.0
            },
            {
                "start_time": 58.320454545454545,
                "end_time": 58.5,
                "pitch": 29,
                "velocity": 51,
                "duration": 0.17954545454545467,
                "tempo": 120.0
            },
            {
                "start_time": 58.51590909090909,
                "end_time": 58.695454545454545,
                "pitch": 29,
                "velocity": 51,
                "duration": 0.17954545454545467,
                "tempo": 120.0
            },
            {
                "start_time": 58.71363636363636,
                "end_time": 58.9,
                "pitch": 29,
                "velocity": 51,
                "duration": 0.1863636363636374,
                "tempo": 120.0
            },
            {
                "start_time": 58.918181818181814,
                "end_time": 59.10681818181818,
                "pitch": 29,
                "velocity": 51,
                "duration": 0.1886363636363626,
                "tempo": 120.0
            },
            {
                "start_time": 59.125,
                "end_time": 59.30681818181818,
                "pitch": 29,
                "velocity": 51,
                "duration": 0.18181818181817988,
                "tempo": 120.0
            },
            {
                "start_time": 59.324999999999996,
                "end_time": 59.40681818181818,
                "pitch": 29,
                "velocity": 51,
                "duration": 0.08181818181818556,
                "tempo": 120.0
            },
            {
                "start_time": 59.425,
                "end_time": 59.50909090909091,
                "pitch": 29,
                "velocity": 51,
                "duration": 0.08409090909091077,
                "tempo": 120.0
            },
            {
                "start_time": 53.08863636363636,
                "end_time": 59.709090909090904,
                "pitch": 38,
                "velocity": 51,
                "duration": 6.6204545454545425,
                "tempo": 120.0
            },
            {
                "start_time": 59.525,
                "end_time": 59.709090909090904,
                "pitch": 38,
                "velocity": 51,
                "duration": 0.18409090909090509,
                "tempo": 120.0
            },
            {
                "start_time": 59.724999999999994,
                "end_time": 59.90909090909091,
                "pitch": 38,
                "velocity": 51,
                "duration": 0.1840909090909122,
                "tempo": 120.0
            },
            {
                "start_time": 59.925,
                "end_time": 60.10909090909091,
                "pitch": 38,
                "velocity": 51,
                "duration": 0.1840909090909122,
                "tempo": 120.0
            },
            {
                "start_time": 60.125,
                "end_time": 60.309090909090905,
                "pitch": 38,
                "velocity": 51,
                "duration": 0.18409090909090509,
                "tempo": 120.0
            },
            {
                "start_time": 60.32727272727272,
                "end_time": 60.51136363636363,
                "pitch": 38,
                "velocity": 51,
                "duration": 0.1840909090909122,
                "tempo": 120.0
            },
            {
                "start_time": 60.527272727272724,
                "end_time": 60.711363636363636,
                "pitch": 38,
                "velocity": 51,
                "duration": 0.1840909090909122,
                "tempo": 120.0
            },
            {
                "start_time": 60.72954545454545,
                "end_time": 60.913636363636364,
                "pitch": 38,
                "velocity": 51,
                "duration": 0.1840909090909122,
                "tempo": 120.0
            },
            {
                "start_time": 60.929545454545455,
                "end_time": 61.01363636363636,
                "pitch": 38,
                "velocity": 51,
                "duration": 0.08409090909090366,
                "tempo": 120.0
            },
            {
                "start_time": 61.02954545454545,
                "end_time": 61.11363636363636,
                "pitch": 38,
                "velocity": 51,
                "duration": 0.08409090909091077,
                "tempo": 120.0
            },
            {
                "start_time": 59.525,
                "end_time": 61.12954545454545,
                "pitch": 41,
                "velocity": 51,
                "duration": 1.6045454545454518,
                "tempo": 120.0
            },
            {
                "start_time": 61.12954545454545,
                "end_time": 61.31818181818181,
                "pitch": 31,
                "velocity": 51,
                "duration": 0.1886363636363626,
                "tempo": 120.0
            },
            {
                "start_time": 61.336363636363636,
                "end_time": 61.522727272727266,
                "pitch": 31,
                "velocity": 51,
                "duration": 0.1863636363636303,
                "tempo": 120.0
            },
            {
                "start_time": 61.54090909090909,
                "end_time": 61.720454545454544,
                "pitch": 31,
                "velocity": 51,
                "duration": 0.17954545454545467,
                "tempo": 120.0
            },
            {
                "start_time": 61.73863636363636,
                "end_time": 61.918181818181814,
                "pitch": 31,
                "velocity": 51,
                "duration": 0.17954545454545467,
                "tempo": 120.0
            },
            {
                "start_time": 61.934090909090905,
                "end_time": 62.11818181818182,
                "pitch": 31,
                "velocity": 51,
                "duration": 0.1840909090909122,
                "tempo": 120.0
            },
            {
                "start_time": 62.13409090909091,
                "end_time": 62.31818181818181,
                "pitch": 31,
                "velocity": 51,
                "duration": 0.18409090909090509,
                "tempo": 120.0
            },
            {
                "start_time": 62.334090909090904,
                "end_time": 62.522727272727266,
                "pitch": 31,
                "velocity": 51,
                "duration": 0.1886363636363626,
                "tempo": 120.0
            },
            {
                "start_time": 62.538636363636364,
                "end_time": 62.625,
                "pitch": 31,
                "velocity": 51,
                "duration": 0.08636363636363598,
                "tempo": 120.0
            },
            {
                "start_time": 62.643181818181816,
                "end_time": 62.72727272727273,
                "pitch": 31,
                "velocity": 51,
                "duration": 0.08409090909091077,
                "tempo": 120.0
            },
            {
                "start_time": 39.92727272727272,
                "end_time": 62.74545454545454,
                "pitch": 0,
                "velocity": 51,
                "duration": 22.81818181818182,
                "tempo": 120.0
            },
            {
                "start_time": 62.74545454545454,
                "end_time": 62.925,
                "pitch": 36,
                "velocity": 51,
                "duration": 0.17954545454545467,
                "tempo": 120.0
            },
            {
                "start_time": 62.94090909090909,
                "end_time": 63.022727272727266,
                "pitch": 36,
                "velocity": 51,
                "duration": 0.08181818181817846,
                "tempo": 120.0
            },
            {
                "start_time": 63.04090909090909,
                "end_time": 63.12272727272727,
                "pitch": 36,
                "velocity": 51,
                "duration": 0.08181818181817846,
                "tempo": 120.0
            },
            {
                "start_time": 63.13863636363636,
                "end_time": 63.320454545454545,
                "pitch": 38,
                "velocity": 51,
                "duration": 0.18181818181818699,
                "tempo": 120.0
            },
            {
                "start_time": 63.33863636363636,
                "end_time": 63.42272727272727,
                "pitch": 38,
                "velocity": 51,
                "duration": 0.08409090909091077,
                "tempo": 120.0
            },
            {
                "start_time": 63.43863636363636,
                "end_time": 63.522727272727266,
                "pitch": 38,
                "velocity": 51,
                "duration": 0.08409090909090366,
                "tempo": 120.0
            },
            {
                "start_time": 54.69318181818181,
                "end_time": 63.72272727272727,
                "pitch": 40,
                "velocity": 51,
                "duration": 9.029545454545456,
                "tempo": 120.0
            },
            {
                "start_time": 63.538636363636364,
                "end_time": 63.72272727272727,
                "pitch": 40,
                "velocity": 51,
                "duration": 0.18409090909090509,
                "tempo": 120.0
            },
            {
                "start_time": 63.73863636363636,
                "end_time": 63.82272727272727,
                "pitch": 40,
                "velocity": 51,
                "duration": 0.08409090909091077,
                "tempo": 120.0
            },
            {
                "start_time": 63.83863636363636,
                "end_time": 63.92272727272727,
                "pitch": 40,
                "velocity": 51,
                "duration": 0.08409090909091077,
                "tempo": 120.0
            },
            {
                "start_time": 63.13863636363636,
                "end_time": 64.12272727272727,
                "pitch": 36,
                "velocity": 51,
                "duration": 0.9840909090909165,
                "tempo": 120.0
            },
            {
                "start_time": 63.93863636363636,
                "end_time": 64.12272727272727,
                "pitch": 36,
                "velocity": 51,
                "duration": 0.1840909090909122,
                "tempo": 120.0
            },
            {
                "start_time": 64.13863636363637,
                "end_time": 64.22272727272727,
                "pitch": 36,
                "velocity": 51,
                "duration": 0.08409090909090366,
                "tempo": 120.0
            },
            {
                "start_time": 64.23863636363636,
                "end_time": 64.32272727272726,
                "pitch": 36,
                "velocity": 51,
                "duration": 0.08409090909090366,
                "tempo": 120.0
            },
            {
                "start_time": 64.3409090909091,
                "end_time": 64.42272727272727,
                "pitch": 36,
                "velocity": 51,
                "duration": 0.08181818181817846,
                "tempo": 120.0
            },
            {
                "start_time": 64.44090909090909,
                "end_time": 64.52499999999999,
                "pitch": 48,
                "velocity": 51,
                "duration": 0.08409090909090366,
                "tempo": 120.0
            },
            {
                "start_time": 64.54090909090908,
                "end_time": 64.625,
                "pitch": 48,
                "velocity": 51,
                "duration": 0.08409090909091788,
                "tempo": 120.0
            },
            {
                "start_time": 64.64318181818182,
                "end_time": 64.725,
                "pitch": 48,
                "velocity": 51,
                "duration": 0.08181818181817846,
                "tempo": 120.0
            },
            {
                "start_time": 63.93863636363636,
                "end_time": 64.74318181818181,
                "pitch": 40,
                "velocity": 51,
                "duration": 0.8045454545454476,
                "tempo": 120.0
            },
            {
                "start_time": 64.74318181818181,
                "end_time": 64.82727272727273,
                "pitch": 31,
                "velocity": 51,
                "duration": 0.08409090909091788,
                "tempo": 120.0
            },
            {
                "start_time": 64.84318181818182,
                "end_time": 64.92727272727272,
                "pitch": 43,
                "velocity": 51,
                "duration": 0.08409090909090366,
                "tempo": 120.0
            },
            {
                "start_time": 64.94318181818181,
                "end_time": 65.02727272727273,
                "pitch": 43,
                "velocity": 51,
                "duration": 0.08409090909091788,
                "tempo": 120.0
            },
            {
                "start_time": 65.04318181818182,
                "end_time": 65.12727272727273,
                "pitch": 43,
                "velocity": 51,
                "duration": 0.08409090909090366,
                "tempo": 120.0
            },
            {
                "start_time": 62.74545454545454,
                "end_time": 65.14318181818182,
                "pitch": 0,
                "velocity": 51,
                "duration": 2.3977272727272734,
                "tempo": 120.0
            },
            {
                "start_time": 65.14318181818182,
                "end_time": 65.22727272727272,
                "pitch": 28,
                "velocity": 51,
                "duration": 0.08409090909090366,
                "tempo": 120.0
            },
            {
                "start_time": 64.74318181818181,
                "end_time": 65.32727272727273,
                "pitch": 40,
                "velocity": 51,
                "duration": 0.5840909090909179,
                "tempo": 120.0
            },
            {
                "start_time": 65.24545454545454,
                "end_time": 65.32727272727273,
                "pitch": 40,
                "velocity": 51,
                "duration": 0.08181818181819267,
                "tempo": 120.0
            },
            {
                "start_time": 65.34545454545454,
                "end_time": 65.42954545454545,
                "pitch": 40,
                "velocity": 51,
                "duration": 0.08409090909090366,
                "tempo": 120.0
            },
            {
                "start_time": 65.44545454545454,
                "end_time": 65.52954545454546,
                "pitch": 40,
                "velocity": 51,
                "duration": 0.08409090909091788,
                "tempo": 120.0
            },
            {
                "start_time": 39.82727272727273,
                "end_time": 65.54772727272727,
                "pitch": 54,
                "velocity": 51,
                "duration": 25.720454545454544,
                "tempo": 120.0
            },
            {
                "start_time": 65.54772727272727,
                "end_time": 65.63181818181818,
                "pitch": 43,
                "velocity": 51,
                "duration": 0.08409090909090366,
                "tempo": 120.0
            },
            {
                "start_time": 65.14318181818182,
                "end_time": 65.64999999999999,
                "pitch": 0,
                "velocity": 51,
                "duration": 0.5068181818181756,
                "tempo": 120.0
            },
            {
                "start_time": 65.64999999999999,
                "end_time": 65.73409090909091,
                "pitch": 36,
                "velocity": 51,
                "duration": 0.08409090909091788,
                "tempo": 120.0
            },
            {
                "start_time": 65.75227272727273,
                "end_time": 65.83863636363635,
                "pitch": 36,
                "velocity": 51,
                "duration": 0.08636363636362887,
                "tempo": 120.0
            },
            {
                "start_time": 65.85454545454544,
                "end_time": 65.94090909090909,
                "pitch": 36,
                "velocity": 51,
                "duration": 0.08636363636364308,
                "tempo": 120.0
            },
            {
                "start_time": 65.9590909090909,
                "end_time": 66.14318181818182,
                "pitch": 29,
                "velocity": 51,
                "duration": 0.1840909090909122,
                "tempo": 120.0
            },
            {
                "start_time": 66.1590909090909,
                "end_time": 66.34545454545454,
                "pitch": 29,
                "velocity": 51,
                "duration": 0.1863636363636374,
                "tempo": 120.0
            },
            {
                "start_time": 67.56590909090909,
                "end_time": 67.75,
                "pitch": 29,
                "velocity": 51,
                "duration": 0.1840909090909122,
                "tempo": 120.0
            },
            {
                "start_time": 67.76590909090909,
                "end_time": 67.95,
                "pitch": 29,
                "velocity": 51,
                "duration": 0.1840909090909122,
                "tempo": 120.0
            },
            {
                "start_time": 61.12954545454545,
                "end_time": 69.175,
                "pitch": 41,
                "velocity": 51,
                "duration": 8.045454545454547,
                "tempo": 120.0
            },
            {
                "start_time": 69.175,
                "end_time": 69.35909090909091,
                "pitch": 36,
                "velocity": 51,
                "duration": 0.1840909090909122,
                "tempo": 120.0
            },
            {
                "start_time": 69.375,
                "end_time": 69.56136363636364,
                "pitch": 36,
                "velocity": 51,
                "duration": 0.1863636363636374,
                "tempo": 120.0
            },
            {
                "start_time": 69.57727272727273,
                "end_time": 69.76136363636363,
                "pitch": 40,
                "velocity": 51,
                "duration": 0.18409090909089798,
                "tempo": 120.0
            },
            {
                "start_time": 65.54772727272727,
                "end_time": 69.77727272727273,
                "pitch": 54,
                "velocity": 51,
                "duration": 4.229545454545459,
                "tempo": 120.0
            },
            {
                "start_time": 69.77727272727273,
                "end_time": 69.96136363636363,
                "pitch": 43,
                "velocity": 51,
                "duration": 0.18409090909089798,
                "tempo": 120.0
            },
            {
                "start_time": 69.97727272727272,
                "end_time": 70.16136363636363,
                "pitch": 46,
                "velocity": 51,
                "duration": 0.1840909090909122,
                "tempo": 120.0
            },
            {
                "start_time": 70.17954545454545,
                "end_time": 70.56363636363636,
                "pitch": 48,
                "velocity": 51,
                "duration": 0.38409090909091503,
                "tempo": 120.0
            },
            {
                "start_time": 69.57727272727273,
                "end_time": 70.76363636363637,
                "pitch": 36,
                "velocity": 51,
                "duration": 1.1863636363636374,
                "tempo": 120.0
            },
            {
                "start_time": 70.58181818181818,
                "end_time": 70.76363636363637,
                "pitch": 36,
                "velocity": 51,
                "duration": 0.18181818181818699,
                "tempo": 120.0
            },
            {
                "start_time": 70.78181818181818,
                "end_time": 70.9659090909091,
                "pitch": 36,
                "velocity": 51,
                "duration": 0.1840909090909122,
                "tempo": 120.0
            },
            {
                "start_time": 70.98409090909091,
                "end_time": 71.16818181818182,
                "pitch": 36,
                "velocity": 51,
                "duration": 0.1840909090909122,
                "tempo": 120.0
            },
            {
                "start_time": 71.18409090909091,
                "end_time": 71.37045454545454,
                "pitch": 40,
                "velocity": 51,
                "duration": 0.1863636363636232,
                "tempo": 120.0
            },
            {
                "start_time": 69.77727272727273,
                "end_time": 71.38636363636363,
                "pitch": 54,
                "velocity": 51,
                "duration": 1.6090909090908951,
                "tempo": 120.0
            },
            {
                "start_time": 69.97727272727272,
                "end_time": 71.57045454545454,
                "pitch": 43,
                "velocity": 51,
                "duration": 1.5931818181818187,
                "tempo": 120.0
            },
            {
                "start_time": 71.38636363636363,
                "end_time": 71.57045454545454,
                "pitch": 43,
                "velocity": 51,
                "duration": 0.1840909090909122,
                "tempo": 120.0
            },
            {
                "start_time": 71.58863636363635,
                "end_time": 71.77045454545454,
                "pitch": 46,
                "velocity": 51,
                "duration": 0.18181818181818699,
                "tempo": 120.0
            },
            {
                "start_time": 70.17954545454545,
                "end_time": 71.78863636363636,
                "pitch": 26,
                "velocity": 51,
                "duration": 1.6090909090909093,
                "tempo": 120.0
            },
            {
                "start_time": 71.78863636363636,
                "end_time": 72.17272727272727,
                "pitch": 48,
                "velocity": 51,
                "duration": 0.38409090909091503,
                "tempo": 120.0
            },
            {
                "start_time": 71.18409090909091,
                "end_time": 72.375,
                "pitch": 36,
                "velocity": 51,
                "duration": 1.1909090909090878,
                "tempo": 120.0
            },
            {
                "start_time": 72.19090909090909,
                "end_time": 72.375,
                "pitch": 36,
                "velocity": 51,
                "duration": 0.1840909090909122,
                "tempo": 120.0
            },
            {
                "start_time": 65.9590909090909,
                "end_time": 72.39318181818182,
                "pitch": 24,
                "velocity": 51,
                "duration": 6.434090909090912,
                "tempo": 120.0
            },
            {
                "start_time": 72.39318181818182,
                "end_time": 72.57954545454545,
                "pitch": 29,
                "velocity": 51,
                "duration": 0.1863636363636374,
                "tempo": 120.0
            },
            {
                "start_time": 72.59772727272727,
                "end_time": 72.78636363636363,
                "pitch": 29,
                "velocity": 51,
                "duration": 0.1886363636363626,
                "tempo": 120.0
            },
            {
                "start_time": 74.0,
                "end_time": 74.18863636363636,
                "pitch": 29,
                "velocity": 51,
                "duration": 0.1886363636363626,
                "tempo": 120.0
            },
            {
                "start_time": 74.20454545454545,
                "end_time": 74.39318181818182,
                "pitch": 29,
                "velocity": 51,
                "duration": 0.1886363636363626,
                "tempo": 120.0
            },
            {
                "start_time": 69.175,
                "end_time": 75.60681818181818,
                "pitch": 41,
                "velocity": 51,
                "duration": 6.431818181818187,
                "tempo": 120.0
            },
            {
                "start_time": 75.60681818181818,
                "end_time": 75.79090909090908,
                "pitch": 36,
                "velocity": 51,
                "duration": 0.18409090909089798,
                "tempo": 120.0
            },
            {
                "start_time": 75.80681818181817,
                "end_time": 75.99090909090908,
                "pitch": 36,
                "velocity": 51,
                "duration": 0.1840909090909122,
                "tempo": 120.0
            },
            {
                "start_time": 76.00681818181818,
                "end_time": 76.19545454545454,
                "pitch": 40,
                "velocity": 51,
                "duration": 0.1886363636363626,
                "tempo": 120.0
            },
            {
                "start_time": 76.21363636363635,
                "end_time": 76.40227272727272,
                "pitch": 40,
                "velocity": 51,
                "duration": 0.1886363636363626,
                "tempo": 120.0
            },
            {
                "start_time": 76.41818181818182,
                "end_time": 76.60454545454544,
                "pitch": 40,
                "velocity": 51,
                "duration": 0.1863636363636232,
                "tempo": 120.0
            },
            {
                "start_time": 75.60681818181818,
                "end_time": 76.80454545454545,
                "pitch": 41,
                "velocity": 51,
                "duration": 1.1977272727272634,
                "tempo": 120.0
            },
            {
                "start_time": 76.62045454545454,
                "end_time": 76.80454545454545,
                "pitch": 41,
                "velocity": 51,
                "duration": 0.1840909090909122,
                "tempo": 120.0
            },
            {
                "start_time": 76.82272727272726,
                "end_time": 77.00227272727273,
                "pitch": 41,
                "velocity": 51,
                "duration": 0.17954545454546178,
                "tempo": 120.0
            },
            {
                "start_time": 71.38636363636363,
                "end_time": 77.01818181818182,
                "pitch": 54,
                "velocity": 51,
                "duration": 5.63181818181819,
                "tempo": 120.0
            },
            {
                "start_time": 71.58863636363635,
                "end_time": 77.39999999999999,
                "pitch": 43,
                "velocity": 51,
                "duration": 5.811363636363637,
                "tempo": 120.0
            },
            {
                "start_time": 77.01818181818182,
                "end_time": 77.39999999999999,
                "pitch": 43,
                "velocity": 51,
                "duration": 0.3818181818181756,
                "tempo": 120.0
            },
            {
                "start_time": 77.41590909090908,
                "end_time": 77.60227272727272,
                "pitch": 43,
                "velocity": 51,
                "duration": 0.1863636363636374,
                "tempo": 120.0
            },
            {
                "start_time": 65.64999999999999,
                "end_time": 77.61818181818181,
                "pitch": 0,
                "velocity": 51,
                "duration": 11.968181818181819,
                "tempo": 120.0
            },
            {
                "start_time": 77.61818181818181,
                "end_time": 77.80681818181817,
                "pitch": 48,
                "velocity": 51,
                "duration": 0.1886363636363626,
                "tempo": 120.0
            },
            {
                "start_time": 77.825,
                "end_time": 78.01363636363637,
                "pitch": 48,
                "velocity": 51,
                "duration": 0.1886363636363626,
                "tempo": 120.0
            },
            {
                "start_time": 78.02954545454546,
                "end_time": 78.21363636363635,
                "pitch": 50,
                "velocity": 51,
                "duration": 0.18409090909089798,
                "tempo": 120.0
            },
            {
                "start_time": 78.22954545454544,
                "end_time": 78.41363636363636,
                "pitch": 50,
                "velocity": 51,
                "duration": 0.1840909090909122,
                "tempo": 120.0
            },
            {
                "start_time": 78.42954545454545,
                "end_time": 78.61590909090908,
                "pitch": 50,
                "velocity": 51,
                "duration": 0.1863636363636374,
                "tempo": 120.0
            },
            {
                "start_time": 78.63181818181818,
                "end_time": 78.81590909090909,
                "pitch": 51,
                "velocity": 51,
                "duration": 0.1840909090909122,
                "tempo": 120.0
            },
            {
                "start_time": 78.8340909090909,
                "end_time": 79.01818181818182,
                "pitch": 28,
                "velocity": 51,
                "duration": 0.1840909090909122,
                "tempo": 120.0
            },
            {
                "start_time": 79.03636363636363,
                "end_time": 79.22045454545454,
                "pitch": 29,
                "velocity": 51,
                "duration": 0.1840909090909122,
                "tempo": 120.0
            },
            {
                "start_time": 80.44090909090909,
                "end_time": 80.625,
                "pitch": 29,
                "velocity": 51,
                "duration": 0.1840909090909122,
                "tempo": 120.0
            },
            {
                "start_time": 80.64318181818182,
                "end_time": 80.82727272727273,
                "pitch": 29,
                "velocity": 51,
                "duration": 0.1840909090909122,
                "tempo": 120.0
            },
            {
                "start_time": 76.00681818181818,
                "end_time": 82.23636363636363,
                "pitch": 36,
                "velocity": 51,
                "duration": 6.229545454545459,
                "tempo": 120.0
            },
            {
                "start_time": 82.05227272727272,
                "end_time": 82.23636363636363,
                "pitch": 36,
                "velocity": 51,
                "duration": 0.1840909090909122,
                "tempo": 120.0
            },
            {
                "start_time": 82.25227272727273,
                "end_time": 82.43636363636364,
                "pitch": 36,
                "velocity": 51,
                "duration": 0.1840909090909122,
                "tempo": 120.0
            },
            {
                "start_time": 82.45227272727273,
                "end_time": 82.63636363636363,
                "pitch": 40,
                "velocity": 51,
                "duration": 0.18409090909089798,
                "tempo": 120.0
            },
            {
                "start_time": 77.01818181818182,
                "end_time": 82.65454545454546,
                "pitch": 54,
                "velocity": 51,
                "duration": 5.63636363636364,
                "tempo": 120.0
            },
            {
                "start_time": 82.65454545454546,
                "end_time": 82.83863636363635,
                "pitch": 43,
                "velocity": 51,
                "duration": 0.18409090909089798,
                "tempo": 120.0
            },
            {
                "start_time": 82.85681818181818,
                "end_time": 83.04090909090908,
                "pitch": 46,
                "velocity": 51,
                "duration": 0.18409090909089798,
                "tempo": 120.0
            },
            {
                "start_time": 71.78863636363636,
                "end_time": 83.05681818181817,
                "pitch": 26,
                "velocity": 51,
                "duration": 11.268181818181816,
                "tempo": 120.0
            },
            {
                "start_time": 78.02954545454546,
                "end_time": 83.44318181818181,
                "pitch": 48,
                "velocity": 51,
                "duration": 5.413636363636357,
                "tempo": 120.0
            },
            {
                "start_time": 83.05681818181817,
                "end_time": 83.44318181818181,
                "pitch": 48,
                "velocity": 51,
                "duration": 0.38636363636364024,
                "tempo": 120.0
            },
            {
                "start_time": 82.45227272727273,
                "end_time": 83.64318181818182,
                "pitch": 36,
                "velocity": 51,
                "duration": 1.1909090909090878,
                "tempo": 120.0
            },
            {
                "start_time": 83.4590909090909,
                "end_time": 83.64318181818182,
                "pitch": 36,
                "velocity": 51,
                "duration": 0.1840909090909122,
                "tempo": 120.0
            },
            {
                "start_time": 83.6590909090909,
                "end_time": 83.84772727272727,
                "pitch": 36,
                "velocity": 51,
                "duration": 0.1886363636363626,
                "tempo": 120.0
            },
            {
                "start_time": 83.86590909090908,
                "end_time": 84.05227272727272,
                "pitch": 36,
                "velocity": 51,
                "duration": 0.1863636363636374,
                "tempo": 120.0
            },
            {
                "start_time": 84.07045454545454,
                "end_time": 84.25454545454545,
                "pitch": 40,
                "velocity": 51,
                "duration": 0.1840909090909122,
                "tempo": 120.0
            },
            {
                "start_time": 82.65454545454546,
                "end_time": 84.27272727272727,
                "pitch": 54,
                "velocity": 51,
                "duration": 1.6181818181818102,
                "tempo": 120.0
            },
            {
                "start_time": 82.85681818181818,
                "end_time": 84.45681818181818,
                "pitch": 43,
                "velocity": 51,
                "duration": 1.5999999999999943,
                "tempo": 120.0
            },
            {
                "start_time": 84.27272727272727,
                "end_time": 84.45681818181818,
                "pitch": 43,
                "velocity": 51,
                "duration": 0.1840909090909122,
                "tempo": 120.0
            },
            {
                "start_time": 84.475,
                "end_time": 84.6590909090909,
                "pitch": 46,
                "velocity": 51,
                "duration": 0.1840909090909122,
                "tempo": 120.0
            },
            {
                "start_time": 83.05681818181817,
                "end_time": 84.675,
                "pitch": 26,
                "velocity": 51,
                "duration": 1.6181818181818244,
                "tempo": 120.0
            },
            {
                "start_time": 84.675,
                "end_time": 85.05681818181817,
                "pitch": 48,
                "velocity": 51,
                "duration": 0.3818181818181756,
                "tempo": 120.0
            },
            {
                "start_time": 84.07045454545454,
                "end_time": 85.25227272727273,
                "pitch": 36,
                "velocity": 51,
                "duration": 1.181818181818187,
                "tempo": 120.0
            },
            {
                "start_time": 85.07272727272726,
                "end_time": 85.25227272727273,
                "pitch": 36,
                "velocity": 51,
                "duration": 0.17954545454546178,
                "tempo": 120.0
            },
            {
                "start_time": 82.05227272727272,
                "end_time": 85.4590909090909,
                "pitch": 41,
                "velocity": 51,
                "duration": 3.4068181818181813,
                "tempo": 120.0
            },
            {
                "start_time": 85.27045454545454,
                "end_time": 85.4590909090909,
                "pitch": 41,
                "velocity": 51,
                "duration": 0.1886363636363626,
                "tempo": 120.0
            },
            {
                "start_time": 85.475,
                "end_time": 85.66363636363636,
                "pitch": 41,
                "velocity": 51,
                "duration": 0.1886363636363626,
                "tempo": 120.0
            },
            {
                "start_time": 85.68181818181817,
                "end_time": 85.86363636363636,
                "pitch": 41,
                "velocity": 51,
                "duration": 0.18181818181818699,
                "tempo": 120.0
            },
            {
                "start_time": 85.88181818181818,
                "end_time": 86.06590909090909,
                "pitch": 41,
                "velocity": 51,
                "duration": 0.1840909090909122,
                "tempo": 120.0
            },
            {
                "start_time": 86.08181818181818,
                "end_time": 86.26590909090909,
                "pitch": 41,
                "velocity": 51,
                "duration": 0.1840909090909122,
                "tempo": 120.0
            },
            {
                "start_time": 86.2840909090909,
                "end_time": 86.46818181818182,
                "pitch": 41,
                "velocity": 51,
                "duration": 0.1840909090909122,
                "tempo": 120.0
            },
            {
                "start_time": 86.48636363636363,
                "end_time": 86.67272727272727,
                "pitch": 41,
                "velocity": 51,
                "duration": 0.1863636363636374,
                "tempo": 120.0
            },
            {
                "start_time": 86.69090909090909,
                "end_time": 86.77499999999999,
                "pitch": 41,
                "velocity": 51,
                "duration": 0.08409090909090366,
                "tempo": 120.0
            },
            {
                "start_time": 86.79318181818181,
                "end_time": 86.87954545454545,
                "pitch": 41,
                "velocity": 51,
                "duration": 0.08636363636364308,
                "tempo": 120.0
            },
            {
                "start_time": 86.89545454545454,
                "end_time": 87.08181818181818,
                "pitch": 41,
                "velocity": 51,
                "duration": 0.1863636363636374,
                "tempo": 120.0
            },
            {
                "start_time": 87.09772727272727,
                "end_time": 87.28181818181818,
                "pitch": 41,
                "velocity": 51,
                "duration": 0.1840909090909122,
                "tempo": 120.0
            },
            {
                "start_time": 87.3,
                "end_time": 87.48409090909091,
                "pitch": 41,
                "velocity": 51,
                "duration": 0.1840909090909122,
                "tempo": 120.0
            },
            {
                "start_time": 87.50227272727273,
                "end_time": 87.68636363636364,
                "pitch": 41,
                "velocity": 51,
                "duration": 0.1840909090909122,
                "tempo": 120.0
            },
            {
                "start_time": 87.70227272727273,
                "end_time": 87.88181818181818,
                "pitch": 41,
                "velocity": 51,
                "duration": 0.17954545454544757,
                "tempo": 120.0
            },
            {
                "start_time": 87.89999999999999,
                "end_time": 88.07954545454545,
                "pitch": 41,
                "velocity": 51,
                "duration": 0.17954545454546178,
                "tempo": 120.0
            },
            {
                "start_time": 88.09545454545454,
                "end_time": 88.27954545454546,
                "pitch": 41,
                "velocity": 51,
                "duration": 0.1840909090909122,
                "tempo": 120.0
            },
            {
                "start_time": 88.29772727272727,
                "end_time": 88.38181818181818,
                "pitch": 41,
                "velocity": 51,
                "duration": 0.08409090909090366,
                "tempo": 120.0
            },
            {
                "start_time": 88.39772727272727,
                "end_time": 88.48181818181818,
                "pitch": 41,
                "velocity": 51,
                "duration": 0.08409090909091788,
                "tempo": 120.0
            },
            {
                "start_time": 84.27272727272727,
                "end_time": 88.5,
                "pitch": 54,
                "velocity": 51,
                "duration": 4.227272727272734,
                "tempo": 120.0
            },
            {
                "start_time": 84.475,
                "end_time": 88.6840909090909,
                "pitch": 43,
                "velocity": 51,
                "duration": 4.209090909090904,
                "tempo": 120.0
            },
            {
                "start_time": 88.5,
                "end_time": 88.6840909090909,
                "pitch": 43,
                "velocity": 51,
                "duration": 0.18409090909089798,
                "tempo": 120.0
            },
            {
                "start_time": 88.69999999999999,
                "end_time": 88.8840909090909,
                "pitch": 43,
                "velocity": 51,
                "duration": 0.1840909090909122,
                "tempo": 120.0
            },
            {
                "start_time": 88.90227272727272,
                "end_time": 89.08636363636363,
                "pitch": 43,
                "velocity": 51,
                "duration": 0.1840909090909122,
                "tempo": 120.0
            },
            {
                "start_time": 89.10227272727272,
                "end_time": 89.28636363636363,
                "pitch": 43,
                "velocity": 51,
                "duration": 0.1840909090909122,
                "tempo": 120.0
            },
            {
                "start_time": 89.30227272727272,
                "end_time": 89.48636363636363,
                "pitch": 43,
                "velocity": 51,
                "duration": 0.1840909090909122,
                "tempo": 120.0
            },
            {
                "start_time": 89.50454545454545,
                "end_time": 89.68863636363636,
                "pitch": 43,
                "velocity": 51,
                "duration": 0.1840909090909122,
                "tempo": 120.0
            },
            {
                "start_time": 89.70681818181818,
                "end_time": 89.88863636363637,
                "pitch": 43,
                "velocity": 51,
                "duration": 0.18181818181818699,
                "tempo": 120.0
            },
            {
                "start_time": 89.90681818181818,
                "end_time": 89.98863636363636,
                "pitch": 43,
                "velocity": 51,
                "duration": 0.08181818181817846,
                "tempo": 120.0
            },
            {
                "start_time": 90.00681818181818,
                "end_time": 90.08863636363635,
                "pitch": 43,
                "velocity": 51,
                "duration": 0.08181818181817846,
                "tempo": 120.0
            },
            {
                "start_time": 90.10681818181818,
                "end_time": 90.29545454545455,
                "pitch": 43,
                "velocity": 51,
                "duration": 0.1886363636363626,
                "tempo": 120.0
            },
            {
                "start_time": 90.31136363636364,
                "end_time": 90.39772727272727,
                "pitch": 43,
                "velocity": 51,
                "duration": 0.08636363636362887,
                "tempo": 120.0
            },
            {
                "start_time": 90.41590909090908,
                "end_time": 90.5,
                "pitch": 43,
                "velocity": 51,
                "duration": 0.08409090909091788,
                "tempo": 120.0
            },
            {
                "start_time": 90.51818181818182,
                "end_time": 90.70227272727273,
                "pitch": 43,
                "velocity": 51,
                "duration": 0.1840909090909122,
                "tempo": 120.0
            },
            {
                "start_time": 90.71818181818182,
                "end_time": 90.80227272727272,
                "pitch": 45,
                "velocity": 51,
                "duration": 0.08409090909090366,
                "tempo": 120.0
            },
            {
                "start_time": 90.81818181818181,
                "end_time": 90.90227272727272,
                "pitch": 45,
                "velocity": 51,
                "duration": 0.08409090909090366,
                "tempo": 120.0
            },
            {
                "start_time": 90.91818181818181,
                "end_time": 91.10227272727272,
                "pitch": 47,
                "velocity": 51,
                "duration": 0.1840909090909122,
                "tempo": 120.0
            },
            {
                "start_time": 91.12045454545454,
                "end_time": 91.20454545454545,
                "pitch": 47,
                "velocity": 51,
                "duration": 0.08409090909091788,
                "tempo": 120.0
            },
            {
                "start_time": 91.22045454545454,
                "end_time": 91.30454545454545,
                "pitch": 47,
                "velocity": 51,
                "duration": 0.08409090909090366,
                "tempo": 120.0
            },
            {
                "start_time": 91.32272727272726,
                "end_time": 91.50681818181818,
                "pitch": 50,
                "velocity": 51,
                "duration": 0.1840909090909122,
                "tempo": 120.0
            },
            {
                "start_time": 91.52272727272727,
                "end_time": 91.60681818181818,
                "pitch": 50,
                "velocity": 51,
                "duration": 0.08409090909091788,
                "tempo": 120.0
            },
            {
                "start_time": 91.625,
                "end_time": 91.7090909090909,
                "pitch": 50,
                "velocity": 51,
                "duration": 0.08409090909090366,
                "tempo": 120.0
            },
            {
                "start_time": 63.538636363636364,
                "end_time": 91.725,
                "pitch": 38,
                "velocity": 51,
                "duration": 28.18636363636363,
                "tempo": 120.0
            },
            {
                "start_time": 91.725,
                "end_time": 91.90454545454546,
                "pitch": 41,
                "velocity": 51,
                "duration": 0.17954545454546178,
                "tempo": 120.0
            },
            {
                "start_time": 91.92045454545455,
                "end_time": 92.1,
                "pitch": 41,
                "velocity": 51,
                "duration": 0.17954545454544757,
                "tempo": 120.0
            },
            {
                "start_time": 92.11818181818181,
                "end_time": 92.20227272727273,
                "pitch": 41,
                "velocity": 51,
                "duration": 0.08409090909091788,
                "tempo": 120.0
            },
            {
                "start_time": 92.22045454545454,
                "end_time": 92.4090909090909,
                "pitch": 41,
                "velocity": 51,
                "duration": 0.1886363636363626,
                "tempo": 120.0
            },
            {
                "start_time": 92.425,
                "end_time": 92.51136363636363,
                "pitch": 41,
                "velocity": 51,
                "duration": 0.08636363636362887,
                "tempo": 120.0
            },
            {
                "start_time": 88.5,
                "end_time": 92.52954545454546,
                "pitch": 54,
                "velocity": 51,
                "duration": 4.029545454545456,
                "tempo": 120.0
            },
            {
                "start_time": 92.52954545454546,
                "end_time": 92.71818181818182,
                "pitch": 43,
                "velocity": 51,
                "duration": 0.1886363636363626,
                "tempo": 120.0
            },
            {
                "start_time": 92.73409090909091,
                "end_time": 92.92272727272727,
                "pitch": 43,
                "velocity": 51,
                "duration": 0.1886363636363626,
                "tempo": 120.0
            },
            {
                "start_time": 77.61818181818181,
                "end_time": 92.94090909090909,
                "pitch": 0,
                "velocity": 51,
                "duration": 15.322727272727278,
                "tempo": 120.0
            },
            {
                "start_time": 92.94090909090909,
                "end_time": 93.02499999999999,
                "pitch": 41,
                "velocity": 51,
                "duration": 0.08409090909090366,
                "tempo": 120.0
            },
            {
                "start_time": 92.52954545454546,
                "end_time": 93.04090909090908,
                "pitch": 54,
                "velocity": 51,
                "duration": 0.511363636363626,
                "tempo": 120.0
            },
            {
                "start_time": 93.04090909090908,
                "end_time": 93.225,
                "pitch": 43,
                "velocity": 51,
                "duration": 0.1840909090909122,
                "tempo": 120.0
            },
            {
                "start_time": 93.24318181818181,
                "end_time": 93.32727272727273,
                "pitch": 43,
                "velocity": 51,
                "duration": 0.08409090909091788,
                "tempo": 120.0
            },
            {
                "start_time": 92.94090909090909,
                "end_time": 93.34318181818182,
                "pitch": 0,
                "velocity": 51,
                "duration": 0.4022727272727309,
                "tempo": 120.0
            },
            {
                "start_time": 85.27045454545454,
                "end_time": 93.53181818181818,
                "pitch": 36,
                "velocity": 51,
                "duration": 8.26136363636364,
                "tempo": 120.0
            },
            {
                "start_time": 93.34318181818182,
                "end_time": 93.53181818181818,
                "pitch": 36,
                "velocity": 51,
                "duration": 0.1886363636363626,
                "tempo": 120.0
            },
            {
                "start_time": 93.55,
                "end_time": 93.6340909090909,
                "pitch": 36,
                "velocity": 51,
                "duration": 0.08409090909090366,
                "tempo": 120.0
            },
            {
                "start_time": 93.65227272727272,
                "end_time": 93.73863636363636,
                "pitch": 36,
                "velocity": 51,
                "duration": 0.08636363636364308,
                "tempo": 120.0
            },
            {
                "start_time": 91.725,
                "end_time": 93.8340909090909,
                "pitch": 38,
                "velocity": 51,
                "duration": 2.1090909090909093,
                "tempo": 120.0
            },
            {
                "start_time": 93.75454545454545,
                "end_time": 93.8340909090909,
                "pitch": 38,
                "velocity": 51,
                "duration": 0.07954545454545325,
                "tempo": 120.0
            },
            {
                "start_time": 93.85,
                "end_time": 94.02499999999999,
                "pitch": 38,
                "velocity": 51,
                "duration": 0.17499999999999716,
                "tempo": 120.0
            },
            {
                "start_time": 94.04318181818181,
                "end_time": 94.12272727272727,
                "pitch": 38,
                "velocity": 51,
                "duration": 0.07954545454546746,
                "tempo": 120.0
            },
            {
                "start_time": 94.13863636363637,
                "end_time": 94.22272727272727,
                "pitch": 40,
                "velocity": 51,
                "duration": 0.08409090909090366,
                "tempo": 120.0
            },
            {
                "start_time": 94.24090909090908,
                "end_time": 94.32499999999999,
                "pitch": 40,
                "velocity": 51,
                "duration": 0.08409090909090366,
                "tempo": 120.0
            },
            {
                "start_time": 94.34318181818182,
                "end_time": 94.53181818181818,
                "pitch": 40,
                "velocity": 51,
                "duration": 0.1886363636363626,
                "tempo": 120.0
            },
            {
                "start_time": 93.04090909090908,
                "end_time": 94.54772727272727,
                "pitch": 54,
                "velocity": 51,
                "duration": 1.5068181818181898,
                "tempo": 120.0
            },
            {
                "start_time": 94.54772727272727,
                "end_time": 94.63181818181818,
                "pitch": 43,
                "velocity": 51,
                "duration": 0.08409090909090366,
                "tempo": 120.0
            },
            {
                "start_time": 94.64999999999999,
                "end_time": 94.8340909090909,
                "pitch": 43,
                "velocity": 51,
                "duration": 0.1840909090909122,
                "tempo": 120.0
            },
            {
                "start_time": 94.85227272727272,
                "end_time": 94.9340909090909,
                "pitch": 43,
                "velocity": 51,
                "duration": 0.08181818181817846,
                "tempo": 120.0
            },
            {
                "start_time": 93.34318181818182,
                "end_time": 94.95227272727273,
                "pitch": 0,
                "velocity": 51,
                "duration": 1.6090909090909093,
                "tempo": 120.0
            },
            {
                "start_time": 94.95227272727273,
                "end_time": 95.13636363636363,
                "pitch": 41,
                "velocity": 51,
                "duration": 0.18409090909089798,
                "tempo": 120.0
            },
            {
                "start_time": 95.15454545454546,
                "end_time": 95.33863636363635,
                "pitch": 41,
                "velocity": 51,
                "duration": 0.18409090909089798,
                "tempo": 120.0
            },
            {
                "start_time": 95.35454545454544,
                "end_time": 95.43863636363636,
                "pitch": 41,
                "velocity": 51,
                "duration": 0.08409090909091788,
                "tempo": 120.0
            },
            {
                "start_time": 95.45454545454545,
                "end_time": 95.63863636363637,
                "pitch": 41,
                "velocity": 51,
                "duration": 0.1840909090909122,
                "tempo": 120.0
            },
            {
                "start_time": 95.65681818181818,
                "end_time": 95.73863636363636,
                "pitch": 41,
                "velocity": 51,
                "duration": 0.08181818181817846,
                "tempo": 120.0
            },
            {
                "start_time": 94.54772727272727,
                "end_time": 95.75681818181818,
                "pitch": 54,
                "velocity": 51,
                "duration": 1.2090909090909037,
                "tempo": 120.0
            },
            {
                "start_time": 95.75681818181818,
                "end_time": 95.94090909090909,
                "pitch": 43,
                "velocity": 51,
                "duration": 0.1840909090909122,
                "tempo": 120.0
            },
            {
                "start_time": 95.95681818181818,
                "end_time": 96.14090909090909,
                "pitch": 43,
                "velocity": 51,
                "duration": 0.1840909090909122,
                "tempo": 120.0
            },
            {
                "start_time": 94.95227272727273,
                "end_time": 96.1590909090909,
                "pitch": 0,
                "velocity": 51,
                "duration": 1.2068181818181785,
                "tempo": 120.0
            },
            {
                "start_time": 96.1590909090909,
                "end_time": 96.24318181818181,
                "pitch": 41,
                "velocity": 51,
                "duration": 0.08409090909090366,
                "tempo": 120.0
            },
            {
                "start_time": 95.75681818181818,
                "end_time": 96.2590909090909,
                "pitch": 54,
                "velocity": 51,
                "duration": 0.5022727272727252,
                "tempo": 120.0
            },
            {
                "start_time": 96.2590909090909,
                "end_time": 96.44318181818181,
                "pitch": 43,
                "velocity": 51,
                "duration": 0.1840909090909122,
                "tempo": 120.0
            },
            {
                "start_time": 96.4590909090909,
                "end_time": 96.54318181818181,
                "pitch": 43,
                "velocity": 51,
                "duration": 0.08409090909090366,
                "tempo": 120.0
            },
            {
                "start_time": 96.1590909090909,
                "end_time": 96.5590909090909,
                "pitch": 0,
                "velocity": 51,
                "duration": 0.3999999999999915,
                "tempo": 120.0
            },
            {
                "start_time": 93.75454545454545,
                "end_time": 96.73863636363636,
                "pitch": 36,
                "velocity": 51,
                "duration": 2.9840909090909093,
                "tempo": 120.0
            },
            {
                "start_time": 96.5590909090909,
                "end_time": 96.73863636363636,
                "pitch": 36,
                "velocity": 51,
                "duration": 0.17954545454546178,
                "tempo": 120.0
            },
            {
                "start_time": 96.75681818181818,
                "end_time": 96.83636363636363,
                "pitch": 36,
                "velocity": 51,
                "duration": 0.07954545454545325,
                "tempo": 120.0
            },
            {
                "start_time": 96.85454545454544,
                "end_time": 96.93636363636364,
                "pitch": 36,
                "velocity": 51,
                "duration": 0.08181818181819267,
                "tempo": 120.0
            },
            {
                "start_time": 94.13863636363637,
                "end_time": 97.03636363636363,
                "pitch": 38,
                "velocity": 51,
                "duration": 2.8977272727272663,
                "tempo": 120.0
            },
            {
                "start_time": 96.95227272727273,
                "end_time": 97.03636363636363,
                "pitch": 38,
                "velocity": 51,
                "duration": 0.08409090909090366,
                "tempo": 120.0
            },
            {
                "start_time": 97.05454545454545,
                "end_time": 97.24318181818181,
                "pitch": 38,
                "velocity": 51,
                "duration": 0.1886363636363626,
                "tempo": 120.0
            },
            {
                "start_time": 97.26136363636363,
                "end_time": 97.34545454545454,
                "pitch": 38,
                "velocity": 51,
                "duration": 0.08409090909091788,
                "tempo": 120.0
            },
            {
                "start_time": 97.36363636363636,
                "end_time": 97.44772727272726,
                "pitch": 40,
                "velocity": 51,
                "duration": 0.08409090909090366,
                "tempo": 120.0
            },
            {
                "start_time": 97.46363636363635,
                "end_time": 97.54772727272727,
                "pitch": 40,
                "velocity": 51,
                "duration": 0.08409090909091788,
                "tempo": 120.0
            },
            {
                "start_time": 97.56363636363636,
                "end_time": 97.74772727272727,
                "pitch": 40,
                "velocity": 51,
                "duration": 0.1840909090909122,
                "tempo": 120.0
            },
            {
                "start_time": 96.2590909090909,
                "end_time": 97.76363636363637,
                "pitch": 54,
                "velocity": 51,
                "duration": 1.5045454545454646,
                "tempo": 120.0
            },
            {
                "start_time": 97.76363636363637,
                "end_time": 97.84772727272727,
                "pitch": 43,
                "velocity": 51,
                "duration": 0.08409090909090366,
                "tempo": 120.0
            },
            {
                "start_time": 97.86590909090908,
                "end_time": 98.05,
                "pitch": 43,
                "velocity": 51,
                "duration": 0.1840909090909122,
                "tempo": 120.0
            },
            {
                "start_time": 98.06590909090909,
                "end_time": 98.14999999999999,
                "pitch": 43,
                "velocity": 51,
                "duration": 0.08409090909090366,
                "tempo": 120.0
            },
            {
                "start_time": 96.5590909090909,
                "end_time": 98.16818181818181,
                "pitch": 0,
                "velocity": 51,
                "duration": 1.6090909090909093,
                "tempo": 120.0
            },
            {
                "start_time": 98.16818181818181,
                "end_time": 98.35454545454544,
                "pitch": 41,
                "velocity": 51,
                "duration": 0.1863636363636374,
                "tempo": 120.0
            },
            {
                "start_time": 98.37272727272727,
                "end_time": 98.56136363636364,
                "pitch": 41,
                "velocity": 51,
                "duration": 0.1886363636363626,
                "tempo": 120.0
            },
            {
                "start_time": 98.57954545454545,
                "end_time": 98.66363636363636,
                "pitch": 41,
                "velocity": 51,
                "duration": 0.08409090909090366,
                "tempo": 120.0
            },
            {
                "start_time": 98.67954545454545,
                "end_time": 98.86363636363636,
                "pitch": 41,
                "velocity": 51,
                "duration": 0.1840909090909122,
                "tempo": 120.0
            },
            {
                "start_time": 98.88181818181818,
                "end_time": 98.96590909090908,
                "pitch": 41,
                "velocity": 51,
                "duration": 0.08409090909090366,
                "tempo": 120.0
            },
            {
                "start_time": 97.76363636363637,
                "end_time": 98.98181818181817,
                "pitch": 54,
                "velocity": 51,
                "duration": 1.2181818181818045,
                "tempo": 120.0
            },
            {
                "start_time": 98.98181818181817,
                "end_time": 99.16590909090908,
                "pitch": 43,
                "velocity": 51,
                "duration": 0.1840909090909122,
                "tempo": 120.0
            },
            {
                "start_time": 99.18181818181817,
                "end_time": 99.36590909090908,
                "pitch": 43,
                "velocity": 51,
                "duration": 0.1840909090909122,
                "tempo": 120.0
            },
            {
                "start_time": 98.16818181818181,
                "end_time": 99.38181818181818,
                "pitch": 0,
                "velocity": 51,
                "duration": 1.2136363636363683,
                "tempo": 120.0
            },
            {
                "start_time": 99.38181818181818,
                "end_time": 99.46363636363635,
                "pitch": 41,
                "velocity": 51,
                "duration": 0.08181818181817846,
                "tempo": 120.0
            },
            {
                "start_time": 98.98181818181817,
                "end_time": 99.48181818181817,
                "pitch": 54,
                "velocity": 51,
                "duration": 0.5,
                "tempo": 120.0
            },
            {
                "start_time": 99.48181818181817,
                "end_time": 99.66136363636363,
                "pitch": 43,
                "velocity": 51,
                "duration": 0.17954545454546178,
                "tempo": 120.0
            },
            {
                "start_time": 99.67727272727272,
                "end_time": 99.7590909090909,
                "pitch": 43,
                "velocity": 51,
                "duration": 0.08181818181817846,
                "tempo": 120.0
            },
            {
                "start_time": 99.38181818181818,
                "end_time": 99.77499999999999,
                "pitch": 0,
                "velocity": 51,
                "duration": 0.39318181818181586,
                "tempo": 120.0
            },
            {
                "start_time": 96.95227272727273,
                "end_time": 99.9590909090909,
                "pitch": 36,
                "velocity": 51,
                "duration": 3.0068181818181756,
                "tempo": 120.0
            },
            {
                "start_time": 99.77499999999999,
                "end_time": 99.9590909090909,
                "pitch": 36,
                "velocity": 51,
                "duration": 0.1840909090909122,
                "tempo": 120.0
            },
            {
                "start_time": 99.97727272727272,
                "end_time": 100.06136363636364,
                "pitch": 36,
                "velocity": 51,
                "duration": 0.08409090909091788,
                "tempo": 120.0
            },
            {
                "start_time": 100.07727272727273,
                "end_time": 100.16136363636363,
                "pitch": 48,
                "velocity": 51,
                "duration": 0.08409090909090366,
                "tempo": 120.0
            },
            {
                "start_time": 100.17954545454545,
                "end_time": 100.26136363636363,
                "pitch": 36,
                "velocity": 51,
                "duration": 0.08181818181817846,
                "tempo": 120.0
            },
            {
                "start_time": 100.27954545454546,
                "end_time": 100.46136363636363,
                "pitch": 48,
                "velocity": 51,
                "duration": 0.18181818181817277,
                "tempo": 120.0
            },
            {
                "start_time": 100.47954545454544,
                "end_time": 100.56136363636364,
                "pitch": 36,
                "velocity": 51,
                "duration": 0.08181818181819267,
                "tempo": 120.0
            },
            {
                "start_time": 100.57954545454545,
                "end_time": 100.66363636363636,
                "pitch": 43,
                "velocity": 51,
                "duration": 0.08409090909090366,
                "tempo": 120.0
            },
            {
                "start_time": 100.68181818181817,
                "end_time": 100.76818181818182,
                "pitch": 43,
                "velocity": 51,
                "duration": 0.08636363636364308,
                "tempo": 120.0
            },
            {
                "start_time": 100.7840909090909,
                "end_time": 100.87045454545454,
                "pitch": 43,
                "velocity": 51,
                "duration": 0.08636363636362887,
                "tempo": 120.0
            },
            {
                "start_time": 100.88863636363637,
                "end_time": 100.97272727272727,
                "pitch": 43,
                "velocity": 51,
                "duration": 0.08409090909090366,
                "tempo": 120.0
            },
            {
                "start_time": 100.99090909090908,
                "end_time": 101.07272727272726,
                "pitch": 43,
                "velocity": 51,
                "duration": 0.08181818181817846,
                "tempo": 120.0
            },
            {
                "start_time": 101.08863636363635,
                "end_time": 101.17045454545455,
                "pitch": 43,
                "velocity": 51,
                "duration": 0.08181818181819267,
                "tempo": 120.0
            },
            {
                "start_time": 101.18636363636364,
                "end_time": 101.26818181818182,
                "pitch": 43,
                "velocity": 51,
                "duration": 0.08181818181817846,
                "tempo": 120.0
            },
            {
                "start_time": 101.2840909090909,
                "end_time": 101.36590909090908,
                "pitch": 43,
                "velocity": 51,
                "duration": 0.08181818181817846,
                "tempo": 120.0
            },
            {
                "start_time": 99.77499999999999,
                "end_time": 101.3840909090909,
                "pitch": 0,
                "velocity": 51,
                "duration": 1.6090909090909093,
                "tempo": 120.0
            },
            {
                "start_time": 97.36363636363636,
                "end_time": 101.56590909090909,
                "pitch": 38,
                "velocity": 51,
                "duration": 4.202272727272728,
                "tempo": 120.0
            },
            {
                "start_time": 101.3840909090909,
                "end_time": 101.56590909090909,
                "pitch": 38,
                "velocity": 51,
                "duration": 0.18181818181818699,
                "tempo": 120.0
            },
            {
                "start_time": 101.5840909090909,
                "end_time": 101.66590909090908,
                "pitch": 38,
                "velocity": 51,
                "duration": 0.08181818181817846,
                "tempo": 120.0
            },
            {
                "start_time": 101.6840909090909,
                "end_time": 101.76590909090909,
                "pitch": 38,
                "velocity": 51,
                "duration": 0.08181818181819267,
                "tempo": 120.0
            },
            {
                "start_time": 101.7840909090909,
                "end_time": 101.86818181818181,
                "pitch": 40,
                "velocity": 51,
                "duration": 0.08409090909090366,
                "tempo": 120.0
            },
            {
                "start_time": 101.88636363636363,
                "end_time": 102.07499999999999,
                "pitch": 40,
                "velocity": 51,
                "duration": 0.1886363636363626,
                "tempo": 120.0
            },
            {
                "start_time": 102.09090909090908,
                "end_time": 102.17727272727272,
                "pitch": 40,
                "velocity": 51,
                "duration": 0.08636363636364308,
                "tempo": 120.0
            },
            {
                "start_time": 102.19545454545454,
                "end_time": 102.27954545454546,
                "pitch": 40,
                "velocity": 51,
                "duration": 0.08409090909091788,
                "tempo": 120.0
            },
            {
                "start_time": 102.29545454545455,
                "end_time": 102.37954545454545,
                "pitch": 41,
                "velocity": 51,
                "duration": 0.08409090909090366,
                "tempo": 120.0
            },
            {
                "start_time": 102.39772727272727,
                "end_time": 102.58181818181818,
                "pitch": 41,
                "velocity": 51,
                "duration": 0.1840909090909122,
                "tempo": 120.0
            },
            {
                "start_time": 99.48181818181817,
                "end_time": 102.59772727272727,
                "pitch": 54,
                "velocity": 51,
                "duration": 3.115909090909099,
                "tempo": 120.0
            },
            {
                "start_time": 102.59772727272727,
                "end_time": 102.78181818181818,
                "pitch": 43,
                "velocity": 51,
                "duration": 0.1840909090909122,
                "tempo": 120.0
            },
            {
                "start_time": 101.3840909090909,
                "end_time": 102.8,
                "pitch": 0,
                "velocity": 51,
                "duration": 1.4159090909090963,
                "tempo": 120.0
            },
            {
                "start_time": 101.7840909090909,
                "end_time": 103.1840909090909,
                "pitch": 38,
                "velocity": 51,
                "duration": 1.3999999999999915,
                "tempo": 120.0
            },
            {
                "start_time": 102.8,
                "end_time": 103.1840909090909,
                "pitch": 38,
                "velocity": 51,
                "duration": 0.3840909090909008,
                "tempo": 120.0
            },
            {
                "start_time": 103.20227272727273,
                "end_time": 103.2840909090909,
                "pitch": 38,
                "velocity": 51,
                "duration": 0.08181818181817846,
                "tempo": 120.0
            },
            {
                "start_time": 103.30227272727272,
                "end_time": 103.38636363636363,
                "pitch": 38,
                "velocity": 51,
                "duration": 0.08409090909090366,
                "tempo": 120.0
            },
            {
                "start_time": 103.40227272727272,
                "end_time": 103.48636363636363,
                "pitch": 40,
                "velocity": 51,
                "duration": 0.08409090909091788,
                "tempo": 120.0
            },
            {
                "start_time": 103.50227272727273,
                "end_time": 103.68636363636364,
                "pitch": 40,
                "velocity": 51,
                "duration": 0.1840909090909122,
                "tempo": 120.0
            },
            {
                "start_time": 103.70454545454545,
                "end_time": 103.78863636363636,
                "pitch": 40,
                "velocity": 51,
                "duration": 0.08409090909090366,
                "tempo": 120.0
            },
            {
                "start_time": 103.80454545454545,
                "end_time": 103.88863636363637,
                "pitch": 40,
                "velocity": 51,
                "duration": 0.08409090909091788,
                "tempo": 120.0
            },
            {
                "start_time": 103.90454545454546,
                "end_time": 103.98863636363636,
                "pitch": 41,
                "velocity": 51,
                "duration": 0.08409090909090366,
                "tempo": 120.0
            },
            {
                "start_time": 104.00681818181818,
                "end_time": 104.18863636363636,
                "pitch": 41,
                "velocity": 51,
                "duration": 0.18181818181818699,
                "tempo": 120.0
            },
            {
                "start_time": 102.59772727272727,
                "end_time": 104.20681818181818,
                "pitch": 54,
                "velocity": 51,
                "duration": 1.6090909090909093,
                "tempo": 120.0
            },
            {
                "start_time": 104.20681818181818,
                "end_time": 104.39090909090909,
                "pitch": 43,
                "velocity": 51,
                "duration": 0.1840909090909122,
                "tempo": 120.0
            },
            {
                "start_time": 102.8,
                "end_time": 104.40681818181818,
                "pitch": 0,
                "velocity": 51,
                "duration": 1.6068181818181841,
                "tempo": 120.0
            },
            {
                "start_time": 103.40227272727272,
                "end_time": 104.79318181818181,
                "pitch": 38,
                "velocity": 51,
                "duration": 1.3909090909090907,
                "tempo": 120.0
            },
            {
                "start_time": 104.40681818181818,
                "end_time": 104.79318181818181,
                "pitch": 38,
                "velocity": 51,
                "duration": 0.38636363636362603,
                "tempo": 120.0
            },
            {
                "start_time": 104.81136363636364,
                "end_time": 104.89545454545454,
                "pitch": 38,
                "velocity": 51,
                "duration": 0.08409090909090366,
                "tempo": 120.0
            },
            {
                "start_time": 104.91136363636363,
                "end_time": 104.99545454545454,
                "pitch": 38,
                "velocity": 51,
                "duration": 0.08409090909090366,
                "tempo": 120.0
            },
            {
                "start_time": 105.01136363636363,
                "end_time": 105.09772727272727,
                "pitch": 40,
                "velocity": 51,
                "duration": 0.08636363636364308,
                "tempo": 120.0
            },
            {
                "start_time": 105.11590909090908,
                "end_time": 105.30227272727272,
                "pitch": 40,
                "velocity": 51,
                "duration": 0.1863636363636374,
                "tempo": 120.0
            },
            {
                "start_time": 105.32045454545454,
                "end_time": 105.40681818181818,
                "pitch": 40,
                "velocity": 51,
                "duration": 0.08636363636364308,
                "tempo": 120.0
            },
            {
                "start_time": 105.42272727272727,
                "end_time": 105.50681818181818,
                "pitch": 40,
                "velocity": 51,
                "duration": 0.08409090909090366,
                "tempo": 120.0
            },
            {
                "start_time": 105.52499999999999,
                "end_time": 105.60681818181817,
                "pitch": 41,
                "velocity": 51,
                "duration": 0.08181818181817846,
                "tempo": 120.0
            },
            {
                "start_time": 105.625,
                "end_time": 105.80681818181817,
                "pitch": 41,
                "velocity": 51,
                "duration": 0.18181818181817277,
                "tempo": 120.0
            },
            {
                "start_time": 104.20681818181818,
                "end_time": 105.82499999999999,
                "pitch": 54,
                "velocity": 51,
                "duration": 1.6181818181818102,
                "tempo": 120.0
            },
            {
                "start_time": 105.82499999999999,
                "end_time": 106.00454545454545,
                "pitch": 43,
                "velocity": 51,
                "duration": 0.17954545454546178,
                "tempo": 120.0
            },
            {
                "start_time": 104.40681818181818,
                "end_time": 106.02045454545454,
                "pitch": 0,
                "velocity": 51,
                "duration": 1.6136363636363598,
                "tempo": 120.0
            },
            {
                "start_time": 105.01136363636363,
                "end_time": 106.40227272727272,
                "pitch": 38,
                "velocity": 51,
                "duration": 1.3909090909090907,
                "tempo": 120.0
            },
            {
                "start_time": 106.02045454545454,
                "end_time": 106.40227272727272,
                "pitch": 38,
                "velocity": 51,
                "duration": 0.3818181818181756,
                "tempo": 120.0
            },
            {
                "start_time": 106.41818181818181,
                "end_time": 106.50227272727273,
                "pitch": 38,
                "velocity": 51,
                "duration": 0.08409090909091788,
                "tempo": 120.0
            },
            {
                "start_time": 106.52045454545454,
                "end_time": 106.60227272727272,
                "pitch": 38,
                "velocity": 51,
                "duration": 0.08181818181817846,
                "tempo": 120.0
            },
            {
                "start_time": 106.62045454545454,
                "end_time": 106.70454545454545,
                "pitch": 40,
                "velocity": 51,
                "duration": 0.08409090909091788,
                "tempo": 120.0
            },
            {
                "start_time": 106.72045454545454,
                "end_time": 106.90681818181818,
                "pitch": 40,
                "velocity": 51,
                "duration": 0.1863636363636374,
                "tempo": 120.0
            },
            {
                "start_time": 106.92272727272727,
                "end_time": 107.00681818181818,
                "pitch": 40,
                "velocity": 51,
                "duration": 0.08409090909090366,
                "tempo": 120.0
            },
            {
                "start_time": 107.02272727272727,
                "end_time": 107.10909090909091,
                "pitch": 40,
                "velocity": 51,
                "duration": 0.08636363636364308,
                "tempo": 120.0
            },
            {
                "start_time": 107.12727272727273,
                "end_time": 107.21136363636363,
                "pitch": 41,
                "velocity": 51,
                "duration": 0.08409090909090366,
                "tempo": 120.0
            },
            {
                "start_time": 107.22954545454544,
                "end_time": 107.41818181818181,
                "pitch": 41,
                "velocity": 51,
                "duration": 0.1886363636363626,
                "tempo": 120.0
            },
            {
                "start_time": 107.4340909090909,
                "end_time": 107.51590909090909,
                "pitch": 55,
                "velocity": 51,
                "duration": 0.08181818181819267,
                "tempo": 120.0
            },
            {
                "start_time": 107.5340909090909,
                "end_time": 107.61590909090908,
                "pitch": 55,
                "velocity": 51,
                "duration": 0.08181818181817846,
                "tempo": 120.0
            },
            {
                "start_time": 107.63181818181818,
                "end_time": 107.71363636363635,
                "pitch": 55,
                "velocity": 51,
                "duration": 0.08181818181817846,
                "tempo": 120.0
            },
            {
                "start_time": 107.72954545454544,
                "end_time": 107.81136363636364,
                "pitch": 55,
                "velocity": 51,
                "duration": 0.08181818181819267,
                "tempo": 120.0
            },
            {
                "start_time": 106.02045454545454,
                "end_time": 107.82727272727273,
                "pitch": 0,
                "velocity": 51,
                "duration": 1.806818181818187,
                "tempo": 120.0
            },
            {
                "start_time": 107.82727272727273,
                "end_time": 108.21136363636363,
                "pitch": 36,
                "velocity": 51,
                "duration": 0.3840909090909008,
                "tempo": 120.0
            },
            {
                "start_time": 108.22727272727272,
                "end_time": 108.61363636363636,
                "pitch": 36,
                "velocity": 51,
                "duration": 0.38636363636364024,
                "tempo": 120.0
            },
            {
                "start_time": 108.63181818181818,
                "end_time": 108.82045454545454,
                "pitch": 36,
                "velocity": 51,
                "duration": 0.1886363636363626,
                "tempo": 120.0
            },
            {
                "start_time": 108.83636363636363,
                "end_time": 109.22727272727272,
                "pitch": 36,
                "velocity": 51,
                "duration": 0.39090909090909065,
                "tempo": 120.0
            },
            {
                "start_time": 109.24545454545454,
                "end_time": 109.62954545454545,
                "pitch": 36,
                "velocity": 51,
                "duration": 0.38409090909091503,
                "tempo": 120.0
            },
            {
                "start_time": 109.64545454545454,
                "end_time": 109.82954545454545,
                "pitch": 36,
                "velocity": 51,
                "duration": 0.1840909090909122,
                "tempo": 120.0
            },
            {
                "start_time": 109.84772727272727,
                "end_time": 110.24090909090908,
                "pitch": 36,
                "velocity": 51,
                "duration": 0.39318181818181586,
                "tempo": 120.0
            },
            {
                "start_time": 110.25681818181818,
                "end_time": 110.43863636363636,
                "pitch": 36,
                "velocity": 51,
                "duration": 0.18181818181818699,
                "tempo": 120.0
            },
            {
                "start_time": 110.45454545454545,
                "end_time": 110.83863636363635,
                "pitch": 36,
                "velocity": 51,
                "duration": 0.3840909090909008,
                "tempo": 120.0
            },
            {
                "start_time": 110.85681818181817,
                "end_time": 111.04318181818181,
                "pitch": 36,
                "velocity": 51,
                "duration": 0.1863636363636374,
                "tempo": 120.0
            },
            {
                "start_time": 111.06136363636364,
                "end_time": 111.43863636363636,
                "pitch": 36,
                "velocity": 51,
                "duration": 0.3772727272727252,
                "tempo": 120.0
            },
            {
                "start_time": 111.45454545454545,
                "end_time": 111.83863636363635,
                "pitch": 36,
                "velocity": 51,
                "duration": 0.3840909090909008,
                "tempo": 120.0
            },
            {
                "start_time": 111.85454545454544,
                "end_time": 112.04318181818181,
                "pitch": 36,
                "velocity": 51,
                "duration": 0.1886363636363626,
                "tempo": 120.0
            },
            {
                "start_time": 112.06136363636364,
                "end_time": 112.44999999999999,
                "pitch": 36,
                "velocity": 51,
                "duration": 0.38863636363635123,
                "tempo": 120.0
            },
            {
                "start_time": 112.46590909090908,
                "end_time": 112.84772727272727,
                "pitch": 36,
                "velocity": 51,
                "duration": 0.38181818181818983,
                "tempo": 120.0
            },
            {
                "start_time": 112.86363636363636,
                "end_time": 113.04318181818181,
                "pitch": 36,
                "velocity": 51,
                "duration": 0.17954545454544757,
                "tempo": 120.0
            },
            {
                "start_time": 113.0590909090909,
                "end_time": 113.44545454545454,
                "pitch": 36,
                "velocity": 51,
                "duration": 0.38636363636364024,
                "tempo": 120.0
            },
            {
                "start_time": 113.46363636363635,
                "end_time": 113.64545454545454,
                "pitch": 36,
                "velocity": 51,
                "duration": 0.18181818181818699,
                "tempo": 120.0
            },
            {
                "start_time": 113.66363636363636,
                "end_time": 114.04772727272727,
                "pitch": 36,
                "velocity": 51,
                "duration": 0.38409090909091503,
                "tempo": 120.0
            },
            {
                "start_time": 114.06590909090909,
                "end_time": 114.25,
                "pitch": 36,
                "velocity": 51,
                "duration": 0.1840909090909122,
                "tempo": 120.0
            },
            {
                "start_time": 114.26590909090909,
                "end_time": 114.65227272727272,
                "pitch": 36,
                "velocity": 51,
                "duration": 0.38636363636362603,
                "tempo": 120.0
            },
            {
                "start_time": 114.67045454545455,
                "end_time": 115.05454545454545,
                "pitch": 36,
                "velocity": 51,
                "duration": 0.3840909090909008,
                "tempo": 120.0
            },
            {
                "start_time": 115.07045454545454,
                "end_time": 115.2590909090909,
                "pitch": 36,
                "velocity": 51,
                "duration": 0.1886363636363626,
                "tempo": 120.0
            },
            {
                "start_time": 115.27499999999999,
                "end_time": 115.66136363636363,
                "pitch": 36,
                "velocity": 51,
                "duration": 0.38636363636364024,
                "tempo": 120.0
            },
            {
                "start_time": 115.67727272727272,
                "end_time": 116.06136363636364,
                "pitch": 36,
                "velocity": 51,
                "duration": 0.38409090909091503,
                "tempo": 120.0
            },
            {
                "start_time": 116.07954545454545,
                "end_time": 116.26818181818182,
                "pitch": 36,
                "velocity": 51,
                "duration": 0.1886363636363626,
                "tempo": 120.0
            },
            {
                "start_time": 116.28636363636363,
                "end_time": 116.67045454545455,
                "pitch": 36,
                "velocity": 51,
                "duration": 0.38409090909091503,
                "tempo": 120.0
            },
            {
                "start_time": 116.68636363636364,
                "end_time": 116.87045454545454,
                "pitch": 36,
                "velocity": 51,
                "duration": 0.18409090909089798,
                "tempo": 120.0
            },
            {
                "start_time": 116.88863636363635,
                "end_time": 117.27727272727272,
                "pitch": 36,
                "velocity": 51,
                "duration": 0.38863636363636545,
                "tempo": 120.0
            },
            {
                "start_time": 117.29545454545455,
                "end_time": 117.48409090909091,
                "pitch": 36,
                "velocity": 51,
                "duration": 0.1886363636363626,
                "tempo": 120.0
            },
            {
                "start_time": 117.5,
                "end_time": 117.87727272727273,
                "pitch": 36,
                "velocity": 51,
                "duration": 0.3772727272727252,
                "tempo": 120.0
            },
            {
                "start_time": 117.89318181818182,
                "end_time": 118.27954545454544,
                "pitch": 36,
                "velocity": 51,
                "duration": 0.38636363636362603,
                "tempo": 120.0
            },
            {
                "start_time": 118.29772727272727,
                "end_time": 118.47954545454544,
                "pitch": 36,
                "velocity": 51,
                "duration": 0.18181818181817277,
                "tempo": 120.0
            },
            {
                "start_time": 118.49772727272726,
                "end_time": 118.8840909090909,
                "pitch": 36,
                "velocity": 51,
                "duration": 0.38636363636364024,
                "tempo": 120.0
            },
            {
                "start_time": 118.90227272727272,
                "end_time": 119.28863636363636,
                "pitch": 36,
                "velocity": 51,
                "duration": 0.38636363636364024,
                "tempo": 120.0
            },
            {
                "start_time": 119.30454545454545,
                "end_time": 119.48409090909091,
                "pitch": 36,
                "velocity": 51,
                "duration": 0.17954545454546178,
                "tempo": 120.0
            },
            {
                "start_time": 119.50227272727273,
                "end_time": 119.88636363636363,
                "pitch": 36,
                "velocity": 51,
                "duration": 0.3840909090909008,
                "tempo": 120.0
            },
            {
                "start_time": 119.90454545454544,
                "end_time": 120.08863636363635,
                "pitch": 36,
                "velocity": 51,
                "duration": 0.1840909090909122,
                "tempo": 120.0
            },
            {
                "start_time": 120.10681818181817,
                "end_time": 120.49090909090908,
                "pitch": 36,
                "velocity": 51,
                "duration": 0.38409090909091503,
                "tempo": 120.0
            },
            {
                "start_time": 120.5090909090909,
                "end_time": 120.69090909090909,
                "pitch": 36,
                "velocity": 51,
                "duration": 0.18181818181818699,
                "tempo": 120.0
            },
            {
                "start_time": 120.7090909090909,
                "end_time": 120.89318181818182,
                "pitch": 36,
                "velocity": 51,
                "duration": 0.1840909090909122,
                "tempo": 120.0
            },
            {
                "start_time": 120.9090909090909,
                "end_time": 121.09545454545454,
                "pitch": 36,
                "velocity": 51,
                "duration": 0.1863636363636374,
                "tempo": 120.0
            },
            {
                "start_time": 121.11136363636363,
                "end_time": 121.29545454545453,
                "pitch": 36,
                "velocity": 51,
                "duration": 0.18409090909089798,
                "tempo": 120.0
            },
            {
                "start_time": 121.31136363636364,
                "end_time": 121.49545454545454,
                "pitch": 36,
                "velocity": 51,
                "duration": 0.18409090909089798,
                "tempo": 120.0
            },
            {
                "start_time": 121.51136363636363,
                "end_time": 121.69545454545454,
                "pitch": 36,
                "velocity": 51,
                "duration": 0.1840909090909122,
                "tempo": 120.0
            },
            {
                "start_time": 121.71363636363635,
                "end_time": 121.89772727272727,
                "pitch": 36,
                "velocity": 51,
                "duration": 0.1840909090909122,
                "tempo": 120.0
            },
            {
                "start_time": 121.91590909090908,
                "end_time": 122.1,
                "pitch": 36,
                "velocity": 51,
                "duration": 0.1840909090909122,
                "tempo": 120.0
            },
            {
                "start_time": 122.11590909090908,
                "end_time": 122.19999999999999,
                "pitch": 36,
                "velocity": 51,
                "duration": 0.08409090909090366,
                "tempo": 120.0
            },
            {
                "start_time": 122.21818181818182,
                "end_time": 122.30227272727272,
                "pitch": 36,
                "velocity": 51,
                "duration": 0.08409090909090366,
                "tempo": 120.0
            },
            {
                "start_time": 122.31818181818181,
                "end_time": 122.50681818181818,
                "pitch": 34,
                "velocity": 51,
                "duration": 0.1886363636363626,
                "tempo": 120.0
            },
            {
                "start_time": 122.52499999999999,
                "end_time": 122.71136363636363,
                "pitch": 34,
                "velocity": 51,
                "duration": 0.1863636363636374,
                "tempo": 120.0
            },
            {
                "start_time": 122.72954545454544,
                "end_time": 122.9090909090909,
                "pitch": 34,
                "velocity": 51,
                "duration": 0.17954545454546178,
                "tempo": 120.0
            },
            {
                "start_time": 122.92727272727272,
                "end_time": 123.10681818181817,
                "pitch": 34,
                "velocity": 51,
                "duration": 0.17954545454544757,
                "tempo": 120.0
            },
            {
                "start_time": 123.12272727272726,
                "end_time": 123.30681818181817,
                "pitch": 34,
                "velocity": 51,
                "duration": 0.1840909090909122,
                "tempo": 120.0
            },
            {
                "start_time": 123.32272727272726,
                "end_time": 123.50681818181818,
                "pitch": 34,
                "velocity": 51,
                "duration": 0.1840909090909122,
                "tempo": 120.0
            },
            {
                "start_time": 123.52272727272727,
                "end_time": 123.70681818181818,
                "pitch": 34,
                "velocity": 51,
                "duration": 0.1840909090909122,
                "tempo": 120.0
            },
            {
                "start_time": 123.725,
                "end_time": 123.8090909090909,
                "pitch": 34,
                "velocity": 51,
                "duration": 0.08409090909090366,
                "tempo": 120.0
            },
            {
                "start_time": 123.82499999999999,
                "end_time": 123.9090909090909,
                "pitch": 34,
                "velocity": 51,
                "duration": 0.08409090909091788,
                "tempo": 120.0
            },
            {
                "start_time": 123.92727272727272,
                "end_time": 124.11363636363636,
                "pitch": 34,
                "velocity": 51,
                "duration": 0.1863636363636374,
                "tempo": 120.0
            },
            {
                "start_time": 124.13181818181818,
                "end_time": 124.32045454545454,
                "pitch": 33,
                "velocity": 51,
                "duration": 0.1886363636363626,
                "tempo": 120.0
            },
            {
                "start_time": 124.33863636363635,
                "end_time": 124.52272727272727,
                "pitch": 33,
                "velocity": 51,
                "duration": 0.1840909090909122,
                "tempo": 120.0
            },
            {
                "start_time": 124.53863636363636,
                "end_time": 124.725,
                "pitch": 33,
                "velocity": 51,
                "duration": 0.1863636363636374,
                "tempo": 120.0
            },
            {
                "start_time": 124.74090909090908,
                "end_time": 124.925,
                "pitch": 33,
                "velocity": 51,
                "duration": 0.1840909090909122,
                "tempo": 120.0
            },
            {
                "start_time": 124.94318181818181,
                "end_time": 125.12727272727273,
                "pitch": 33,
                "velocity": 51,
                "duration": 0.1840909090909122,
                "tempo": 120.0
            },
            {
                "start_time": 125.14545454545454,
                "end_time": 125.32727272727273,
                "pitch": 33,
                "velocity": 51,
                "duration": 0.18181818181818699,
                "tempo": 120.0
            },
            {
                "start_time": 125.34545454545454,
                "end_time": 125.42727272727272,
                "pitch": 33,
                "velocity": 51,
                "duration": 0.08181818181817846,
                "tempo": 120.0
            },
            {
                "start_time": 125.44545454545454,
                "end_time": 125.52727272727272,
                "pitch": 33,
                "velocity": 51,
                "duration": 0.08181818181817846,
                "tempo": 120.0
            },
            {
                "start_time": 125.74545454545454,
                "end_time": 125.93181818181817,
                "pitch": 29,
                "velocity": 51,
                "duration": 0.1863636363636374,
                "tempo": 120.0
            },
            {
                "start_time": 125.94772727272726,
                "end_time": 126.13181818181818,
                "pitch": 29,
                "velocity": 51,
                "duration": 0.1840909090909122,
                "tempo": 120.0
            },
            {
                "start_time": 126.14772727272727,
                "end_time": 126.33181818181818,
                "pitch": 29,
                "velocity": 51,
                "duration": 0.1840909090909122,
                "tempo": 120.0
            },
            {
                "start_time": 126.34772727272727,
                "end_time": 126.5340909090909,
                "pitch": 29,
                "velocity": 51,
                "duration": 0.1863636363636374,
                "tempo": 120.0
            },
            {
                "start_time": 126.55,
                "end_time": 126.73409090909091,
                "pitch": 29,
                "velocity": 51,
                "duration": 0.1840909090909122,
                "tempo": 120.0
            },
            {
                "start_time": 126.75227272727273,
                "end_time": 126.93636363636362,
                "pitch": 29,
                "velocity": 51,
                "duration": 0.18409090909089798,
                "tempo": 120.0
            },
            {
                "start_time": 126.95454545454545,
                "end_time": 127.03636363636363,
                "pitch": 29,
                "velocity": 51,
                "duration": 0.08181818181817846,
                "tempo": 120.0
            },
            {
                "start_time": 127.05454545454545,
                "end_time": 127.13863636363635,
                "pitch": 29,
                "velocity": 51,
                "duration": 0.08409090909090366,
                "tempo": 120.0
            },
            {
                "start_time": 106.62045454545454,
                "end_time": 127.33863636363635,
                "pitch": 38,
                "velocity": 51,
                "duration": 20.71818181818182,
                "tempo": 120.0
            },
            {
                "start_time": 127.15454545454544,
                "end_time": 127.33863636363635,
                "pitch": 38,
                "velocity": 51,
                "duration": 0.1840909090909122,
                "tempo": 120.0
            },
            {
                "start_time": 127.35454545454544,
                "end_time": 127.53863636363636,
                "pitch": 38,
                "velocity": 51,
                "duration": 0.1840909090909122,
                "tempo": 120.0
            },
            {
                "start_time": 127.55681818181817,
                "end_time": 127.74090909090908,
                "pitch": 38,
                "velocity": 51,
                "duration": 0.1840909090909122,
                "tempo": 120.0
            },
            {
                "start_time": 127.75681818181818,
                "end_time": 127.94090909090909,
                "pitch": 38,
                "velocity": 51,
                "duration": 0.1840909090909122,
                "tempo": 120.0
            },
            {
                "start_time": 127.9590909090909,
                "end_time": 128.1431818181818,
                "pitch": 38,
                "velocity": 51,
                "duration": 0.18409090909089798,
                "tempo": 120.0
            },
            {
                "start_time": 128.1590909090909,
                "end_time": 128.34318181818182,
                "pitch": 38,
                "velocity": 51,
                "duration": 0.1840909090909122,
                "tempo": 120.0
            },
            {
                "start_time": 128.3590909090909,
                "end_time": 128.5431818181818,
                "pitch": 38,
                "velocity": 51,
                "duration": 0.1840909090909122,
                "tempo": 120.0
            },
            {
                "start_time": 128.56136363636364,
                "end_time": 128.64545454545453,
                "pitch": 38,
                "velocity": 51,
                "duration": 0.08409090909088945,
                "tempo": 120.0
            },
            {
                "start_time": 128.66136363636363,
                "end_time": 128.74545454545455,
                "pitch": 38,
                "velocity": 51,
                "duration": 0.08409090909091788,
                "tempo": 120.0
            },
            {
                "start_time": 122.31818181818181,
                "end_time": 128.95,
                "pitch": 40,
                "velocity": 51,
                "duration": 6.631818181818176,
                "tempo": 120.0
            },
            {
                "start_time": 128.76363636363635,
                "end_time": 128.95,
                "pitch": 40,
                "velocity": 51,
                "duration": 0.1863636363636374,
                "tempo": 120.0
            },
            {
                "start_time": 128.96818181818182,
                "end_time": 129.15681818181818,
                "pitch": 40,
                "velocity": 51,
                "duration": 0.1886363636363626,
                "tempo": 120.0
            },
            {
                "start_time": 129.17499999999998,
                "end_time": 129.3590909090909,
                "pitch": 40,
                "velocity": 51,
                "duration": 0.1840909090909122,
                "tempo": 120.0
            },
            {
                "start_time": 129.375,
                "end_time": 129.56136363636364,
                "pitch": 40,
                "velocity": 51,
                "duration": 0.1863636363636374,
                "tempo": 120.0
            },
            {
                "start_time": 129.5772727272727,
                "end_time": 129.75681818181818,
                "pitch": 40,
                "velocity": 51,
                "duration": 0.17954545454546178,
                "tempo": 120.0
            },
            {
                "start_time": 129.775,
                "end_time": 129.95454545454544,
                "pitch": 40,
                "velocity": 51,
                "duration": 0.17954545454543336,
                "tempo": 120.0
            },
            {
                "start_time": 129.97045454545454,
                "end_time": 130.15681818181818,
                "pitch": 40,
                "velocity": 51,
                "duration": 0.1863636363636374,
                "tempo": 120.0
            },
            {
                "start_time": 130.17499999999998,
                "end_time": 130.26136363636363,
                "pitch": 40,
                "velocity": 51,
                "duration": 0.08636363636364308,
                "tempo": 120.0
            },
            {
                "start_time": 130.27727272727273,
                "end_time": 130.36363636363635,
                "pitch": 40,
                "velocity": 51,
                "duration": 0.08636363636361466,
                "tempo": 120.0
            },
            {
                "start_time": 130.38181818181818,
                "end_time": 130.56136363636364,
                "pitch": 40,
                "velocity": 51,
                "duration": 0.17954545454546178,
                "tempo": 120.0
            },
            {
                "start_time": 127.15454545454544,
                "end_time": 130.75681818181818,
                "pitch": 41,
                "velocity": 51,
                "duration": 3.6022727272727337,
                "tempo": 120.0
            },
            {
                "start_time": 130.5772727272727,
                "end_time": 130.75681818181818,
                "pitch": 41,
                "velocity": 51,
                "duration": 0.17954545454546178,
                "tempo": 120.0
            },
            {
                "start_time": 130.775,
                "end_time": 130.9590909090909,
                "pitch": 41,
                "velocity": 51,
                "duration": 0.18409090909088377,
                "tempo": 120.0
            },
            {
                "start_time": 130.975,
                "end_time": 131.1590909090909,
                "pitch": 41,
                "velocity": 51,
                "duration": 0.1840909090909122,
                "tempo": 120.0
            },
            {
                "start_time": 131.1772727272727,
                "end_time": 131.36136363636362,
                "pitch": 41,
                "velocity": 51,
                "duration": 0.1840909090909122,
                "tempo": 120.0
            },
            {
                "start_time": 131.37954545454545,
                "end_time": 131.56363636363636,
                "pitch": 41,
                "velocity": 51,
                "duration": 0.1840909090909122,
                "tempo": 120.0
            },
            {
                "start_time": 131.57954545454544,
                "end_time": 131.76363636363635,
                "pitch": 41,
                "velocity": 51,
                "duration": 0.1840909090909122,
                "tempo": 120.0
            },
            {
                "start_time": 131.77954545454546,
                "end_time": 131.86363636363635,
                "pitch": 41,
                "velocity": 51,
                "duration": 0.08409090909088945,
                "tempo": 120.0
            },
            {
                "start_time": 131.87954545454545,
                "end_time": 131.96363636363637,
                "pitch": 41,
                "velocity": 51,
                "duration": 0.08409090909091788,
                "tempo": 120.0
            },
            {
                "start_time": 51.486363636363635,
                "end_time": 131.98181818181817,
                "pitch": 42,
                "velocity": 51,
                "duration": 80.49545454545454,
                "tempo": 120.0
            },
            {
                "start_time": 131.98181818181817,
                "end_time": 132.1681818181818,
                "pitch": 31,
                "velocity": 51,
                "duration": 0.1863636363636374,
                "tempo": 120.0
            },
            {
                "start_time": 132.18636363636364,
                "end_time": 132.27272727272728,
                "pitch": 31,
                "velocity": 51,
                "duration": 0.08636363636364308,
                "tempo": 120.0
            },
            {
                "start_time": 132.28863636363636,
                "end_time": 132.375,
                "pitch": 31,
                "velocity": 51,
                "duration": 0.08636363636364308,
                "tempo": 120.0
            },
            {
                "start_time": 132.39090909090908,
                "end_time": 132.5772727272727,
                "pitch": 31,
                "velocity": 51,
                "duration": 0.1863636363636374,
                "tempo": 120.0
            },
            {
                "start_time": 132.59318181818182,
                "end_time": 132.6772727272727,
                "pitch": 33,
                "velocity": 51,
                "duration": 0.08409090909088945,
                "tempo": 120.0
            },
            {
                "start_time": 132.69545454545454,
                "end_time": 132.77727272727273,
                "pitch": 33,
                "velocity": 51,
                "duration": 0.08181818181819267,
                "tempo": 120.0
            },
            {
                "start_time": 132.79545454545453,
                "end_time": 132.97954545454544,
                "pitch": 35,
                "velocity": 51,
                "duration": 0.1840909090909122,
                "tempo": 120.0
            },
            {
                "start_time": 132.99772727272727,
                "end_time": 133.08181818181816,
                "pitch": 35,
                "velocity": 51,
                "duration": 0.08409090909088945,
                "tempo": 120.0
            },
            {
                "start_time": 133.09772727272727,
                "end_time": 133.1818181818182,
                "pitch": 35,
                "velocity": 51,
                "duration": 0.08409090909091788,
                "tempo": 120.0
            },
            {
                "start_time": 52.68863636363636,
                "end_time": 133.19772727272726,
                "pitch": 19,
                "velocity": 51,
                "duration": 80.5090909090909,
                "tempo": 120.0
            },
            {
                "start_time": 128.76363636363635,
                "end_time": 133.3840909090909,
                "pitch": 38,
                "velocity": 51,
                "duration": 4.62045454545455,
                "tempo": 120.0
            },
            {
                "start_time": 133.19772727272726,
                "end_time": 133.3840909090909,
                "pitch": 38,
                "velocity": 51,
                "duration": 0.1863636363636374,
                "tempo": 120.0
            },
            {
                "start_time": 133.4,
                "end_time": 133.4840909090909,
                "pitch": 38,
                "velocity": 51,
                "duration": 0.08409090909088945,
                "tempo": 120.0
            },
            {
                "start_time": 133.50227272727273,
                "end_time": 133.5840909090909,
                "pitch": 38,
                "velocity": 51,
                "duration": 0.08181818181816425,
                "tempo": 120.0
            },
            {
                "start_time": 133.60227272727272,
                "end_time": 133.78636363636363,
                "pitch": 36,
                "velocity": 51,
                "duration": 0.1840909090909122,
                "tempo": 120.0
            },
            {
                "start_time": 133.80454545454546,
                "end_time": 133.98863636363635,
                "pitch": 36,
                "velocity": 51,
                "duration": 0.18409090909088377,
                "tempo": 120.0
            },
            {
                "start_time": 134.00454545454545,
                "end_time": 134.18863636363636,
                "pitch": 36,
                "velocity": 51,
                "duration": 0.1840909090909122,
                "tempo": 120.0
            },
            {
                "start_time": 134.20454545454544,
                "end_time": 134.38863636363635,
                "pitch": 36,
                "velocity": 51,
                "duration": 0.1840909090909122,
                "tempo": 120.0
            },
            {
                "start_time": 134.40681818181818,
                "end_time": 134.5909090909091,
                "pitch": 36,
                "velocity": 51,
                "duration": 0.1840909090909122,
                "tempo": 120.0
            },
            {
                "start_time": 134.60681818181817,
                "end_time": 134.79090909090908,
                "pitch": 36,
                "velocity": 51,
                "duration": 0.1840909090909122,
                "tempo": 120.0
            },
            {
                "start_time": 134.8090909090909,
                "end_time": 134.99318181818182,
                "pitch": 36,
                "velocity": 51,
                "duration": 0.1840909090909122,
                "tempo": 120.0
            },
            {
                "start_time": 135.01136363636363,
                "end_time": 135.09318181818182,
                "pitch": 36,
                "velocity": 51,
                "duration": 0.08181818181819267,
                "tempo": 120.0
            },
            {
                "start_time": 135.11136363636362,
                "end_time": 135.19545454545454,
                "pitch": 36,
                "velocity": 51,
                "duration": 0.08409090909091788,
                "tempo": 120.0
            },
            {
                "start_time": 135.21136363636364,
                "end_time": 135.4,
                "pitch": 34,
                "velocity": 51,
                "duration": 0.1886363636363626,
                "tempo": 120.0
            },
            {
                "start_time": 135.4181818181818,
                "end_time": 135.60681818181817,
                "pitch": 34,
                "velocity": 51,
                "duration": 0.1886363636363626,
                "tempo": 120.0
            },
            {
                "start_time": 135.62272727272727,
                "end_time": 135.8022727272727,
                "pitch": 34,
                "velocity": 51,
                "duration": 0.17954545454543336,
                "tempo": 120.0
            },
            {
                "start_time": 135.82045454545454,
                "end_time": 136.0,
                "pitch": 34,
                "velocity": 51,
                "duration": 0.17954545454546178,
                "tempo": 120.0
            },
            {
                "start_time": 136.01590909090908,
                "end_time": 136.2,
                "pitch": 34,
                "velocity": 51,
                "duration": 0.1840909090909122,
                "tempo": 120.0
            },
            {
                "start_time": 136.2159090909091,
                "end_time": 136.4,
                "pitch": 34,
                "velocity": 51,
                "duration": 0.1840909090909122,
                "tempo": 120.0
            },
            {
                "start_time": 136.41590909090908,
                "end_time": 136.60227272727272,
                "pitch": 34,
                "velocity": 51,
                "duration": 0.1863636363636374,
                "tempo": 120.0
            },
            {
                "start_time": 136.61818181818182,
                "end_time": 136.7022727272727,
                "pitch": 34,
                "velocity": 51,
                "duration": 0.08409090909088945,
                "tempo": 120.0
            },
            {
                "start_time": 136.71818181818182,
                "end_time": 136.8022727272727,
                "pitch": 34,
                "velocity": 51,
                "duration": 0.08409090909088945,
                "tempo": 120.0
            },
            {
                "start_time": 136.82045454545454,
                "end_time": 137.0090909090909,
                "pitch": 34,
                "velocity": 51,
                "duration": 0.1886363636363626,
                "tempo": 120.0
            },
            {
                "start_time": 132.79545454545453,
                "end_time": 137.21363636363637,
                "pitch": 33,
                "velocity": 51,
                "duration": 4.418181818181836,
                "tempo": 120.0
            },
            {
                "start_time": 137.025,
                "end_time": 137.21363636363637,
                "pitch": 33,
                "velocity": 51,
                "duration": 0.1886363636363626,
                "tempo": 120.0
            },
            {
                "start_time": 137.23181818181817,
                "end_time": 137.41136363636363,
                "pitch": 33,
                "velocity": 51,
                "duration": 0.17954545454546178,
                "tempo": 120.0
            },
            {
                "start_time": 137.4272727272727,
                "end_time": 137.60681818181817,
                "pitch": 33,
                "velocity": 51,
                "duration": 0.17954545454546178,
                "tempo": 120.0
            },
            {
                "start_time": 137.625,
                "end_time": 137.8090909090909,
                "pitch": 33,
                "velocity": 51,
                "duration": 0.1840909090909122,
                "tempo": 120.0
            },
            {
                "start_time": 137.825,
                "end_time": 138.0090909090909,
                "pitch": 33,
                "velocity": 51,
                "duration": 0.1840909090909122,
                "tempo": 120.0
            },
            {
                "start_time": 138.02727272727273,
                "end_time": 138.21136363636364,
                "pitch": 33,
                "velocity": 51,
                "duration": 0.1840909090909122,
                "tempo": 120.0
            },
            {
                "start_time": 138.22727272727272,
                "end_time": 138.31136363636364,
                "pitch": 33,
                "velocity": 51,
                "duration": 0.08409090909091788,
                "tempo": 120.0
            },
            {
                "start_time": 138.3272727272727,
                "end_time": 138.41136363636363,
                "pitch": 33,
                "velocity": 51,
                "duration": 0.08409090909091788,
                "tempo": 120.0
            },
            {
                "start_time": 138.62954545454545,
                "end_time": 138.81363636363636,
                "pitch": 29,
                "velocity": 51,
                "duration": 0.1840909090909122,
                "tempo": 120.0
            },
            {
                "start_time": 138.83181818181816,
                "end_time": 139.01590909090908,
                "pitch": 29,
                "velocity": 51,
                "duration": 0.1840909090909122,
                "tempo": 120.0
            },
            {
                "start_time": 139.03181818181818,
                "end_time": 139.21818181818182,
                "pitch": 29,
                "velocity": 51,
                "duration": 0.1863636363636374,
                "tempo": 120.0
            },
            {
                "start_time": 139.2340909090909,
                "end_time": 139.42272727272726,
                "pitch": 29,
                "velocity": 51,
                "duration": 0.1886363636363626,
                "tempo": 120.0
            },
            {
                "start_time": 139.4409090909091,
                "end_time": 139.62727272727273,
                "pitch": 29,
                "velocity": 51,
                "duration": 0.1863636363636374,
                "tempo": 120.0
            },
            {
                "start_time": 139.64545454545453,
                "end_time": 139.82954545454544,
                "pitch": 29,
                "velocity": 51,
                "duration": 0.1840909090909122,
                "tempo": 120.0
            },
            {
                "start_time": 139.84772727272727,
                "end_time": 139.9318181818182,
                "pitch": 29,
                "velocity": 51,
                "duration": 0.08409090909091788,
                "tempo": 120.0
            },
            {
                "start_time": 139.94772727272726,
                "end_time": 140.03181818181818,
                "pitch": 29,
                "velocity": 51,
                "duration": 0.08409090909091788,
                "tempo": 120.0
            },
            {
                "start_time": 133.60227272727272,
                "end_time": 140.2340909090909,
                "pitch": 38,
                "velocity": 51,
                "duration": 6.631818181818176,
                "tempo": 120.0
            },
            {
                "start_time": 140.04999999999998,
                "end_time": 140.2340909090909,
                "pitch": 38,
                "velocity": 51,
                "duration": 0.1840909090909122,
                "tempo": 120.0
            },
            {
                "start_time": 140.25,
                "end_time": 140.4340909090909,
                "pitch": 38,
                "velocity": 51,
                "duration": 0.1840909090909122,
                "tempo": 120.0
            },
            {
                "start_time": 140.4522727272727,
                "end_time": 140.63636363636363,
                "pitch": 38,
                "velocity": 51,
                "duration": 0.1840909090909122,
                "tempo": 120.0
            },
            {
                "start_time": 140.65454545454546,
                "end_time": 140.83863636363637,
                "pitch": 38,
                "velocity": 51,
                "duration": 0.1840909090909122,
                "tempo": 120.0
            },
            {
                "start_time": 140.85454545454544,
                "end_time": 141.03863636363636,
                "pitch": 38,
                "velocity": 51,
                "duration": 0.1840909090909122,
                "tempo": 120.0
            },
            {
                "start_time": 141.0568181818182,
                "end_time": 141.23863636363635,
                "pitch": 38,
                "velocity": 51,
                "duration": 0.18181818181815856,
                "tempo": 120.0
            },
            {
                "start_time": 141.25681818181818,
                "end_time": 141.4409090909091,
                "pitch": 38,
                "velocity": 51,
                "duration": 0.1840909090909122,
                "tempo": 120.0
            },
            {
                "start_time": 141.45681818181816,
                "end_time": 141.54090909090908,
                "pitch": 38,
                "velocity": 51,
                "duration": 0.08409090909091788,
                "tempo": 120.0
            },
            {
                "start_time": 141.5590909090909,
                "end_time": 141.6431818181818,
                "pitch": 38,
                "velocity": 51,
                "duration": 0.08409090909088945,
                "tempo": 120.0
            },
            {
                "start_time": 140.04999999999998,
                "end_time": 141.6590909090909,
                "pitch": 41,
                "velocity": 51,
                "duration": 1.6090909090909236,
                "tempo": 120.0
            },
            {
                "start_time": 141.6590909090909,
                "end_time": 141.84772727272727,
                "pitch": 31,
                "velocity": 51,
                "duration": 0.1886363636363626,
                "tempo": 120.0
            },
            {
                "start_time": 141.86363636363635,
                "end_time": 142.0522727272727,
                "pitch": 31,
                "velocity": 51,
                "duration": 0.1886363636363626,
                "tempo": 120.0
            },
            {
                "start_time": 142.07045454545454,
                "end_time": 142.25,
                "pitch": 31,
                "velocity": 51,
                "duration": 0.17954545454546178,
                "tempo": 120.0
            },
            {
                "start_time": 142.2681818181818,
                "end_time": 142.44772727272726,
                "pitch": 31,
                "velocity": 51,
                "duration": 0.17954545454546178,
                "tempo": 120.0
            },
            {
                "start_time": 142.46363636363637,
                "end_time": 142.64772727272725,
                "pitch": 31,
                "velocity": 51,
                "duration": 0.18409090909088377,
                "tempo": 120.0
            },
            {
                "start_time": 142.66590909090908,
                "end_time": 142.85,
                "pitch": 31,
                "velocity": 51,
                "duration": 0.1840909090909122,
                "tempo": 120.0
            },
            {
                "start_time": 142.86590909090907,
                "end_time": 143.04999999999998,
                "pitch": 31,
                "velocity": 51,
                "duration": 0.1840909090909122,
                "tempo": 120.0
            },
            {
                "start_time": 143.0659090909091,
                "end_time": 143.15,
                "pitch": 31,
                "velocity": 51,
                "duration": 0.08409090909091788,
                "tempo": 120.0
            },
            {
                "start_time": 143.16590909090908,
                "end_time": 143.25,
                "pitch": 31,
                "velocity": 51,
                "duration": 0.08409090909091788,
                "tempo": 120.0
            },
            {
                "start_time": 107.82727272727273,
                "end_time": 143.2681818181818,
                "pitch": 0,
                "velocity": 51,
                "duration": 35.440909090909074,
                "tempo": 120.0
            },
            {
                "start_time": 143.26590909090908,
                "end_time": 143.2681818181818,
                "pitch": 0,
                "velocity": 51,
                "duration": 0.0022727272727252057,
                "tempo": 120.0
            },
            {
                "start_time": 143.2681818181818,
                "end_time": 143.4522727272727,
                "pitch": 36,
                "velocity": 51,
                "duration": 0.1840909090909122,
                "tempo": 120.0
            },
            {
                "start_time": 143.46818181818182,
                "end_time": 143.5522727272727,
                "pitch": 36,
                "velocity": 51,
                "duration": 0.08409090909088945,
                "tempo": 120.0
            },
            {
                "start_time": 143.57045454545454,
                "end_time": 143.65227272727273,
                "pitch": 36,
                "velocity": 51,
                "duration": 0.08181818181819267,
                "tempo": 120.0
            },
            {
                "start_time": 143.67045454545453,
                "end_time": 143.85454545454544,
                "pitch": 38,
                "velocity": 51,
                "duration": 0.1840909090909122,
                "tempo": 120.0
            },
            {
                "start_time": 143.87272727272727,
                "end_time": 143.95454545454544,
                "pitch": 38,
                "velocity": 51,
                "duration": 0.08181818181816425,
                "tempo": 120.0
            },
            {
                "start_time": 143.97272727272727,
                "end_time": 144.0568181818182,
                "pitch": 38,
                "velocity": 51,
                "duration": 0.08409090909091788,
                "tempo": 120.0
            },
            {
                "start_time": 135.21136363636364,
                "end_time": 144.2590909090909,
                "pitch": 40,
                "velocity": 51,
                "duration": 9.047727272727258,
                "tempo": 120.0
            },
            {
                "start_time": 144.07272727272726,
                "end_time": 144.2590909090909,
                "pitch": 40,
                "velocity": 51,
                "duration": 0.1863636363636374,
                "tempo": 120.0
            },
            {
                "start_time": 144.275,
                "end_time": 144.3590909090909,
                "pitch": 40,
                "velocity": 51,
                "duration": 0.08409090909088945,
                "tempo": 120.0
            },
            {
                "start_time": 144.375,
                "end_time": 144.4590909090909,
                "pitch": 40,
                "velocity": 51,
                "duration": 0.08409090909088945,
                "tempo": 120.0
            },
            {
                "start_time": 143.67045454545453,
                "end_time": 144.66136363636363,
                "pitch": 36,
                "velocity": 51,
                "duration": 0.9909090909090992,
                "tempo": 120.0
            },
            {
                "start_time": 144.47727272727272,
                "end_time": 144.66136363636363,
                "pitch": 36,
                "velocity": 51,
                "duration": 0.1840909090909122,
                "tempo": 120.0
            },
            {
                "start_time": 144.6772727272727,
                "end_time": 144.76136363636363,
                "pitch": 36,
                "velocity": 51,
                "duration": 0.08409090909091788,
                "tempo": 120.0
            },
            {
                "start_time": 144.77954545454546,
                "end_time": 144.86363636363635,
                "pitch": 36,
                "velocity": 51,
                "duration": 0.08409090909088945,
                "tempo": 120.0
            },
            {
                "start_time": 144.87954545454545,
                "end_time": 144.96363636363637,
                "pitch": 36,
                "velocity": 51,
                "duration": 0.08409090909091788,
                "tempo": 120.0
            },
            {
                "start_time": 144.97954545454544,
                "end_time": 145.06363636363636,
                "pitch": 48,
                "velocity": 51,
                "duration": 0.08409090909091788,
                "tempo": 120.0
            },
            {
                "start_time": 145.07954545454544,
                "end_time": 145.16363636363636,
                "pitch": 48,
                "velocity": 51,
                "duration": 0.08409090909091788,
                "tempo": 120.0
            },
            {
                "start_time": 145.17954545454543,
                "end_time": 145.26363636363635,
                "pitch": 48,
                "velocity": 51,
                "duration": 0.08409090909091788,
                "tempo": 120.0
            },
            {
                "start_time": 144.47727272727272,
                "end_time": 145.27954545454546,
                "pitch": 40,
                "velocity": 51,
                "duration": 0.8022727272727366,
                "tempo": 120.0
            },
            {
                "start_time": 145.27954545454546,
                "end_time": 145.36590909090907,
                "pitch": 31,
                "velocity": 51,
                "duration": 0.08636363636361466,
                "tempo": 120.0
            },
            {
                "start_time": 145.3840909090909,
                "end_time": 145.46818181818182,
                "pitch": 43,
                "velocity": 51,
                "duration": 0.08409090909091788,
                "tempo": 120.0
            },
            {
                "start_time": 145.48636363636362,
                "end_time": 145.57045454545454,
                "pitch": 43,
                "velocity": 51,
                "duration": 0.08409090909091788,
                "tempo": 120.0
            },
            {
                "start_time": 145.58863636363637,
                "end_time": 145.67499999999998,
                "pitch": 43,
                "velocity": 51,
                "duration": 0.08636363636361466,
                "tempo": 120.0
            },
            {
                "start_time": 145.6909090909091,
                "end_time": 145.77272727272725,
                "pitch": 28,
                "velocity": 51,
                "duration": 0.08181818181816425,
                "tempo": 120.0
            },
            {
                "start_time": 145.27954545454546,
                "end_time": 145.87045454545455,
                "pitch": 40,
                "velocity": 51,
                "duration": 0.5909090909090935,
                "tempo": 120.0
            },
            {
                "start_time": 145.79090909090908,
                "end_time": 145.87045454545455,
                "pitch": 40,
                "velocity": 51,
                "duration": 0.07954545454546746,
                "tempo": 120.0
            },
            {
                "start_time": 145.88863636363635,
                "end_time": 145.97045454545454,
                "pitch": 40,
                "velocity": 51,
                "duration": 0.08181818181819267,
                "tempo": 120.0
            },
            {
                "start_time": 145.98636363636362,
                "end_time": 146.0681818181818,
                "pitch": 40,
                "velocity": 51,
                "duration": 0.08181818181819267,
                "tempo": 120.0
            },
            {
                "start_time": 105.82499999999999,
                "end_time": 146.0840909090909,
                "pitch": 54,
                "velocity": 51,
                "duration": 40.2590909090909,
                "tempo": 120.0
            },
            {
                "start_time": 146.0840909090909,
                "end_time": 146.1681818181818,
                "pitch": 43,
                "velocity": 51,
                "duration": 0.08409090909091788,
                "tempo": 120.0
            },
            {
                "start_time": 145.6909090909091,
                "end_time": 146.18636363636364,
                "pitch": 0,
                "velocity": 51,
                "duration": 0.4954545454545496,
                "tempo": 120.0
            },
            {
                "start_time": 146.1840909090909,
                "end_time": 146.18636363636364,
                "pitch": 0,
                "velocity": 51,
                "duration": 0.0022727272727252057,
                "tempo": 120.0
            },
            {
                "start_time": 146.18636363636364,
                "end_time": 146.2681818181818,
                "pitch": 36,
                "velocity": 51,
                "duration": 0.08181818181816425,
                "tempo": 120.0
            },
            {
                "start_time": 146.28636363636363,
                "end_time": 146.37045454545455,
                "pitch": 36,
                "velocity": 51,
                "duration": 0.08409090909091788,
                "tempo": 120.0
            },
            {
                "start_time": 146.38636363636363,
                "end_time": 146.47045454545454,
                "pitch": 36,
                "velocity": 51,
                "duration": 0.08409090909091788,
                "tempo": 120.0
            },
            {
                "start_time": 146.48863636363635,
                "end_time": 146.67499999999998,
                "pitch": 36,
                "velocity": 51,
                "duration": 0.1863636363636374,
                "tempo": 120.0
            },
            {
                "start_time": 146.6931818181818,
                "end_time": 146.88181818181818,
                "pitch": 36,
                "velocity": 51,
                "duration": 0.1886363636363626,
                "tempo": 120.0
            },
            {
                "start_time": 146.9,
                "end_time": 147.0840909090909,
                "pitch": 36,
                "velocity": 51,
                "duration": 0.18409090909088377,
                "tempo": 120.0
            },
            {
                "start_time": 147.1,
                "end_time": 147.28636363636363,
                "pitch": 36,
                "velocity": 51,
                "duration": 0.1863636363636374,
                "tempo": 120.0
            },
            {
                "start_time": 147.3022727272727,
                "end_time": 147.48636363636362,
                "pitch": 36,
                "velocity": 51,
                "duration": 0.1840909090909122,
                "tempo": 120.0
            },
            {
                "start_time": 147.50454545454545,
                "end_time": 147.68863636363636,
                "pitch": 36,
                "velocity": 51,
                "duration": 0.1840909090909122,
                "tempo": 120.0
            },
            {
                "start_time": 147.70681818181816,
                "end_time": 147.88863636363635,
                "pitch": 36,
                "velocity": 51,
                "duration": 0.18181818181818699,
                "tempo": 120.0
            },
            {
                "start_time": 147.90681818181818,
                "end_time": 147.98863636363635,
                "pitch": 36,
                "velocity": 51,
                "duration": 0.08181818181816425,
                "tempo": 120.0
            },
            {
                "start_time": 148.00681818181818,
                "end_time": 148.08863636363637,
                "pitch": 36,
                "velocity": 51,
                "duration": 0.08181818181819267,
                "tempo": 120.0
            },
            {
                "start_time": 148.10681818181817,
                "end_time": 148.2931818181818,
                "pitch": 34,
                "velocity": 51,
                "duration": 0.1863636363636374,
                "tempo": 120.0
            },
            {
                "start_time": 148.31136363636364,
                "end_time": 148.5,
                "pitch": 34,
                "velocity": 51,
                "duration": 0.1886363636363626,
                "tempo": 120.0
            },
            {
                "start_time": 148.5181818181818,
                "end_time": 148.69772727272726,
                "pitch": 34,
                "velocity": 51,
                "duration": 0.17954545454546178,
                "tempo": 120.0
            },
            {
                "start_time": 148.71363636363637,
                "end_time": 148.8931818181818,
                "pitch": 34,
                "velocity": 51,
                "duration": 0.17954545454543336,
                "tempo": 120.0
            },
            {
                "start_time": 148.91136363636363,
                "end_time": 149.09545454545454,
                "pitch": 34,
                "velocity": 51,
                "duration": 0.1840909090909122,
                "tempo": 120.0
            },
            {
                "start_time": 149.11136363636362,
                "end_time": 149.29545454545453,
                "pitch": 34,
                "velocity": 51,
                "duration": 0.1840909090909122,
                "tempo": 120.0
            },
            {
                "start_time": 149.31363636363636,
                "end_time": 149.49772727272727,
                "pitch": 34,
                "velocity": 51,
                "duration": 0.1840909090909122,
                "tempo": 120.0
            },
            {
                "start_time": 149.51590909090908,
                "end_time": 149.59772727272727,
                "pitch": 34,
                "velocity": 51,
                "duration": 0.08181818181819267,
                "tempo": 120.0
            },
            {
                "start_time": 149.61590909090907,
                "end_time": 149.7,
                "pitch": 34,
                "velocity": 51,
                "duration": 0.08409090909091788,
                "tempo": 120.0
            },
            {
                "start_time": 149.7159090909091,
                "end_time": 149.90454545454546,
                "pitch": 34,
                "velocity": 51,
                "duration": 0.1886363636363626,
                "tempo": 120.0
            },
            {
                "start_time": 149.92272727272726,
                "end_time": 150.11136363636362,
                "pitch": 33,
                "velocity": 51,
                "duration": 0.1886363636363626,
                "tempo": 120.0
            },
            {
                "start_time": 150.12727272727273,
                "end_time": 150.3068181818182,
                "pitch": 33,
                "velocity": 51,
                "duration": 0.17954545454546178,
                "tempo": 120.0
            },
            {
                "start_time": 150.325,
                "end_time": 150.50454545454545,
                "pitch": 33,
                "velocity": 51,
                "duration": 0.17954545454546178,
                "tempo": 120.0
            },
            {
                "start_time": 150.52045454545453,
                "end_time": 150.70454545454544,
                "pitch": 33,
                "velocity": 51,
                "duration": 0.1840909090909122,
                "tempo": 120.0
            },
            {
                "start_time": 150.72272727272727,
                "end_time": 150.90681818181818,
                "pitch": 33,
                "velocity": 51,
                "duration": 0.1840909090909122,
                "tempo": 120.0
            },
            {
                "start_time": 150.92499999999998,
                "end_time": 151.1090909090909,
                "pitch": 33,
                "velocity": 51,
                "duration": 0.1840909090909122,
                "tempo": 120.0
            },
            {
                "start_time": 151.125,
                "end_time": 151.2090909090909,
                "pitch": 33,
                "velocity": 51,
                "duration": 0.08409090909088945,
                "tempo": 120.0
            },
            {
                "start_time": 151.22727272727272,
                "end_time": 151.3090909090909,
                "pitch": 33,
                "velocity": 51,
                "duration": 0.08181818181819267,
                "tempo": 120.0
            },
            {
                "start_time": 151.53181818181818,
                "end_time": 151.72045454545454,
                "pitch": 29,
                "velocity": 51,
                "duration": 0.1886363636363626,
                "tempo": 120.0
            },
            {
                "start_time": 151.73863636363635,
                "end_time": 151.9181818181818,
                "pitch": 29,
                "velocity": 51,
                "duration": 0.17954545454546178,
                "tempo": 120.0
            },
            {
                "start_time": 151.9340909090909,
                "end_time": 152.11363636363635,
                "pitch": 29,
                "velocity": 51,
                "duration": 0.17954545454543336,
                "tempo": 120.0
            },
            {
                "start_time": 152.13181818181818,
                "end_time": 152.3181818181818,
                "pitch": 29,
                "velocity": 51,
                "duration": 0.1863636363636374,
                "tempo": 120.0
            },
            {
                "start_time": 152.33636363636364,
                "end_time": 152.525,
                "pitch": 29,
                "velocity": 51,
                "duration": 0.1886363636363626,
                "tempo": 120.0
            },
            {
                "start_time": 152.5431818181818,
                "end_time": 152.72272727272727,
                "pitch": 29,
                "velocity": 51,
                "duration": 0.17954545454546178,
                "tempo": 120.0
            },
            {
                "start_time": 152.73863636363635,
                "end_time": 152.82045454545454,
                "pitch": 29,
                "velocity": 51,
                "duration": 0.08181818181819267,
                "tempo": 120.0
            },
            {
                "start_time": 152.83636363636364,
                "end_time": 152.9181818181818,
                "pitch": 29,
                "velocity": 51,
                "duration": 0.08181818181816425,
                "tempo": 120.0
            },
            {
                "start_time": 141.6590909090909,
                "end_time": 152.9340909090909,
                "pitch": 41,
                "velocity": 51,
                "duration": 11.275000000000006,
                "tempo": 120.0
            },
            {
                "start_time": 144.07272727272726,
                "end_time": 153.12272727272727,
                "pitch": 38,
                "velocity": 51,
                "duration": 9.050000000000011,
                "tempo": 120.0
            },
            {
                "start_time": 152.9340909090909,
                "end_time": 153.12272727272727,
                "pitch": 38,
                "velocity": 51,
                "duration": 0.1886363636363626,
                "tempo": 120.0
            },
            {
                "start_time": 153.14090909090908,
                "end_time": 153.3272727272727,
                "pitch": 38,
                "velocity": 51,
                "duration": 0.1863636363636374,
                "tempo": 120.0
            },
            {
                "start_time": 153.34545454545454,
                "end_time": 153.525,
                "pitch": 38,
                "velocity": 51,
                "duration": 0.17954545454546178,
                "tempo": 120.0
            },
            {
                "start_time": 153.5431818181818,
                "end_time": 153.72272727272727,
                "pitch": 38,
                "velocity": 51,
                "duration": 0.17954545454546178,
                "tempo": 120.0
            },
            {
                "start_time": 153.73863636363635,
                "end_time": 153.9272727272727,
                "pitch": 38,
                "velocity": 51,
                "duration": 0.1886363636363626,
                "tempo": 120.0
            },
            {
                "start_time": 153.9431818181818,
                "end_time": 154.13181818181818,
                "pitch": 38,
                "velocity": 51,
                "duration": 0.1886363636363626,
                "tempo": 120.0
            },
            {
                "start_time": 154.15,
                "end_time": 154.3340909090909,
                "pitch": 38,
                "velocity": 51,
                "duration": 0.18409090909088377,
                "tempo": 120.0
            },
            {
                "start_time": 154.35,
                "end_time": 154.4340909090909,
                "pitch": 38,
                "velocity": 51,
                "duration": 0.08409090909091788,
                "tempo": 120.0
            },
            {
                "start_time": 154.45,
                "end_time": 154.5340909090909,
                "pitch": 38,
                "velocity": 51,
                "duration": 0.08409090909091788,
                "tempo": 120.0
            },
            {
                "start_time": 148.10681818181817,
                "end_time": 154.7340909090909,
                "pitch": 40,
                "velocity": 51,
                "duration": 6.627272727272725,
                "tempo": 120.0
            },
            {
                "start_time": 154.54999999999998,
                "end_time": 154.7340909090909,
                "pitch": 40,
                "velocity": 51,
                "duration": 0.1840909090909122,
                "tempo": 120.0
            },
            {
                "start_time": 154.75227272727273,
                "end_time": 154.93636363636364,
                "pitch": 40,
                "velocity": 51,
                "duration": 0.1840909090909122,
                "tempo": 120.0
            },
            {
                "start_time": 154.95454545454544,
                "end_time": 155.13863636363635,
                "pitch": 40,
                "velocity": 51,
                "duration": 0.1840909090909122,
                "tempo": 120.0
            },
            {
                "start_time": 155.15454545454546,
                "end_time": 155.33863636363637,
                "pitch": 40,
                "velocity": 51,
                "duration": 0.1840909090909122,
                "tempo": 120.0
            },
            {
                "start_time": 155.35681818181817,
                "end_time": 155.54090909090908,
                "pitch": 40,
                "velocity": 51,
                "duration": 0.1840909090909122,
                "tempo": 120.0
            },
            {
                "start_time": 155.5590909090909,
                "end_time": 155.74318181818182,
                "pitch": 40,
                "velocity": 51,
                "duration": 0.1840909090909122,
                "tempo": 120.0
            },
            {
                "start_time": 155.7590909090909,
                "end_time": 155.94545454545454,
                "pitch": 40,
                "velocity": 51,
                "duration": 0.1863636363636374,
                "tempo": 120.0
            },
            {
                "start_time": 155.96136363636361,
                "end_time": 156.04545454545453,
                "pitch": 40,
                "velocity": 51,
                "duration": 0.08409090909091788,
                "tempo": 120.0
            },
            {
                "start_time": 156.06136363636364,
                "end_time": 156.14545454545453,
                "pitch": 40,
                "velocity": 51,
                "duration": 0.08409090909088945,
                "tempo": 120.0
            },
            {
                "start_time": 156.16363636363636,
                "end_time": 156.34772727272727,
                "pitch": 40,
                "velocity": 51,
                "duration": 0.1840909090909122,
                "tempo": 120.0
            },
            {
                "start_time": 152.9340909090909,
                "end_time": 156.54772727272726,
                "pitch": 41,
                "velocity": 51,
                "duration": 3.6136363636363455,
                "tempo": 120.0
            },
            {
                "start_time": 156.36363636363635,
                "end_time": 156.54772727272726,
                "pitch": 41,
                "velocity": 51,
                "duration": 0.1840909090909122,
                "tempo": 120.0
            },
            {
                "start_time": 156.56363636363636,
                "end_time": 156.74772727272727,
                "pitch": 41,
                "velocity": 51,
                "duration": 0.1840909090909122,
                "tempo": 120.0
            },
            {
                "start_time": 156.76590909090908,
                "end_time": 156.95,
                "pitch": 41,
                "velocity": 51,
                "duration": 0.1840909090909122,
                "tempo": 120.0
            },
            {
                "start_time": 156.96818181818182,
                "end_time": 157.15227272727273,
                "pitch": 41,
                "velocity": 51,
                "duration": 0.1840909090909122,
                "tempo": 120.0
            },
            {
                "start_time": 157.1681818181818,
                "end_time": 157.35227272727272,
                "pitch": 41,
                "velocity": 51,
                "duration": 0.1840909090909122,
                "tempo": 120.0
            },
            {
                "start_time": 157.37045454545455,
                "end_time": 157.55454545454543,
                "pitch": 41,
                "velocity": 51,
                "duration": 0.18409090909088377,
                "tempo": 120.0
            },
            {
                "start_time": 157.57272727272726,
                "end_time": 157.65454545454546,
                "pitch": 41,
                "velocity": 51,
                "duration": 0.08181818181819267,
                "tempo": 120.0
            },
            {
                "start_time": 157.67272727272726,
                "end_time": 157.75681818181818,
                "pitch": 41,
                "velocity": 51,
                "duration": 0.08409090909091788,
                "tempo": 120.0
            },
            {
                "start_time": 131.98181818181817,
                "end_time": 157.77272727272725,
                "pitch": 42,
                "velocity": 51,
                "duration": 25.790909090909082,
                "tempo": 120.0
            },
            {
                "start_time": 157.77272727272725,
                "end_time": 157.96136363636361,
                "pitch": 31,
                "velocity": 51,
                "duration": 0.1886363636363626,
                "tempo": 120.0
            },
            {
                "start_time": 157.97954545454544,
                "end_time": 158.06363636363636,
                "pitch": 31,
                "velocity": 51,
                "duration": 0.08409090909091788,
                "tempo": 120.0
            },
            {
                "start_time": 158.08181818181816,
                "end_time": 158.1681818181818,
                "pitch": 31,
                "velocity": 51,
                "duration": 0.08636363636364308,
                "tempo": 120.0
            },
            {
                "start_time": 158.1840909090909,
                "end_time": 158.36363636363635,
                "pitch": 31,
                "velocity": 51,
                "duration": 0.17954545454543336,
                "tempo": 120.0
            },
            {
                "start_time": 158.38181818181818,
                "end_time": 158.46363636363637,
                "pitch": 33,
                "velocity": 51,
                "duration": 0.08181818181819267,
                "tempo": 120.0
            },
            {
                "start_time": 158.47954545454544,
                "end_time": 158.56136363636364,
                "pitch": 33,
                "velocity": 51,
                "duration": 0.08181818181819267,
                "tempo": 120.0
            },
            {
                "start_time": 158.5772727272727,
                "end_time": 158.76590909090908,
                "pitch": 35,
                "velocity": 51,
                "duration": 0.1886363636363626,
                "tempo": 120.0
            },
            {
                "start_time": 158.78181818181818,
                "end_time": 158.86818181818182,
                "pitch": 35,
                "velocity": 51,
                "duration": 0.08636363636364308,
                "tempo": 120.0
            },
            {
                "start_time": 158.88636363636363,
                "end_time": 158.97045454545454,
                "pitch": 35,
                "velocity": 51,
                "duration": 0.08409090909091788,
                "tempo": 120.0
            },
            {
                "start_time": 133.19772727272726,
                "end_time": 158.98863636363635,
                "pitch": 19,
                "velocity": 51,
                "duration": 25.790909090909082,
                "tempo": 120.0
            },
            {
                "start_time": 154.54999999999998,
                "end_time": 159.17272727272726,
                "pitch": 38,
                "velocity": 51,
                "duration": 4.622727272727275,
                "tempo": 120.0
            },
            {
                "start_time": 158.98863636363635,
                "end_time": 159.17272727272726,
                "pitch": 38,
                "velocity": 51,
                "duration": 0.1840909090909122,
                "tempo": 120.0
            },
            {
                "start_time": 159.18863636363636,
                "end_time": 159.27272727272725,
                "pitch": 38,
                "velocity": 51,
                "duration": 0.08409090909088945,
                "tempo": 120.0
            },
            {
                "start_time": 159.28863636363636,
                "end_time": 159.37272727272727,
                "pitch": 38,
                "velocity": 51,
                "duration": 0.08409090909091788,
                "tempo": 120.0
            },
            {
                "start_time": 159.38863636363635,
                "end_time": 159.57272727272726,
                "pitch": 36,
                "velocity": 51,
                "duration": 0.1840909090909122,
                "tempo": 120.0
            },
            {
                "start_time": 159.5909090909091,
                "end_time": 159.775,
                "pitch": 36,
                "velocity": 51,
                "duration": 0.1840909090909122,
                "tempo": 120.0
            },
            {
                "start_time": 159.7931818181818,
                "end_time": 159.97727272727272,
                "pitch": 36,
                "velocity": 51,
                "duration": 0.1840909090909122,
                "tempo": 120.0
            },
            {
                "start_time": 159.99318181818182,
                "end_time": 160.17954545454543,
                "pitch": 36,
                "velocity": 51,
                "duration": 0.18636363636360898,
                "tempo": 120.0
            },
            {
                "start_time": 160.19545454545454,
                "end_time": 160.375,
                "pitch": 36,
                "velocity": 51,
                "duration": 0.17954545454546178,
                "tempo": 120.0
            },
            {
                "start_time": 160.3931818181818,
                "end_time": 160.57272727272726,
                "pitch": 36,
                "velocity": 51,
                "duration": 0.17954545454546178,
                "tempo": 120.0
            },
            {
                "start_time": 160.58863636363637,
                "end_time": 160.77727272727273,
                "pitch": 36,
                "velocity": 51,
                "duration": 0.1886363636363626,
                "tempo": 120.0
            },
            {
                "start_time": 160.7931818181818,
                "end_time": 160.87954545454545,
                "pitch": 36,
                "velocity": 51,
                "duration": 0.08636363636364308,
                "tempo": 120.0
            },
            {
                "start_time": 160.89545454545453,
                "end_time": 160.98181818181817,
                "pitch": 36,
                "velocity": 51,
                "duration": 0.08636363636364308,
                "tempo": 120.0
            },
            {
                "start_time": 161.0,
                "end_time": 161.1840909090909,
                "pitch": 34,
                "velocity": 51,
                "duration": 0.1840909090909122,
                "tempo": 120.0
            },
            {
                "start_time": 161.2,
                "end_time": 161.3840909090909,
                "pitch": 34,
                "velocity": 51,
                "duration": 0.1840909090909122,
                "tempo": 120.0
            },
            {
                "start_time": 161.4,
                "end_time": 161.5840909090909,
                "pitch": 34,
                "velocity": 51,
                "duration": 0.18409090909088377,
                "tempo": 120.0
            },
            {
                "start_time": 161.60227272727272,
                "end_time": 161.78636363636363,
                "pitch": 34,
                "velocity": 51,
                "duration": 0.1840909090909122,
                "tempo": 120.0
            },
            {
                "start_time": 161.80454545454543,
                "end_time": 161.98863636363635,
                "pitch": 34,
                "velocity": 51,
                "duration": 0.1840909090909122,
                "tempo": 120.0
            },
            {
                "start_time": 162.00454545454545,
                "end_time": 162.18863636363636,
                "pitch": 34,
                "velocity": 51,
                "duration": 0.1840909090909122,
                "tempo": 120.0
            },
            {
                "start_time": 162.20681818181816,
                "end_time": 162.39090909090908,
                "pitch": 34,
                "velocity": 51,
                "duration": 0.1840909090909122,
                "tempo": 120.0
            },
            {
                "start_time": 162.4090909090909,
                "end_time": 162.49318181818182,
                "pitch": 34,
                "velocity": 51,
                "duration": 0.08409090909091788,
                "tempo": 120.0
            },
            {
                "start_time": 162.5090909090909,
                "end_time": 162.59318181818182,
                "pitch": 34,
                "velocity": 51,
                "duration": 0.08409090909091788,
                "tempo": 120.0
            },
            {
                "start_time": 162.6090909090909,
                "end_time": 162.79545454545453,
                "pitch": 34,
                "velocity": 51,
                "duration": 0.1863636363636374,
                "tempo": 120.0
            },
            {
                "start_time": 158.5772727272727,
                "end_time": 162.99545454545455,
                "pitch": 33,
                "velocity": 51,
                "duration": 4.418181818181836,
                "tempo": 120.0
            },
            {
                "start_time": 162.81136363636364,
                "end_time": 162.99545454545455,
                "pitch": 33,
                "velocity": 51,
                "duration": 0.1840909090909122,
                "tempo": 120.0
            },
            {
                "start_time": 163.01363636363635,
                "end_time": 163.19545454545454,
                "pitch": 33,
                "velocity": 51,
                "duration": 0.18181818181818699,
                "tempo": 120.0
            },
            {
                "start_time": 163.21363636363637,
                "end_time": 163.39772727272725,
                "pitch": 33,
                "velocity": 51,
                "duration": 0.18409090909088377,
                "tempo": 120.0
            },
            {
                "start_time": 163.41363636363636,
                "end_time": 163.59772727272727,
                "pitch": 33,
                "velocity": 51,
                "duration": 0.1840909090909122,
                "tempo": 120.0
            },
            {
                "start_time": 163.61590909090907,
                "end_time": 163.79999999999998,
                "pitch": 33,
                "velocity": 51,
                "duration": 0.1840909090909122,
                "tempo": 120.0
            },
            {
                "start_time": 163.8181818181818,
                "end_time": 164.00227272727273,
                "pitch": 33,
                "velocity": 51,
                "duration": 0.1840909090909122,
                "tempo": 120.0
            },
            {
                "start_time": 164.0181818181818,
                "end_time": 164.10227272727272,
                "pitch": 33,
                "velocity": 51,
                "duration": 0.08409090909091788,
                "tempo": 120.0
            },
            {
                "start_time": 164.12045454545455,
                "end_time": 164.2022727272727,
                "pitch": 33,
                "velocity": 51,
                "duration": 0.08181818181816425,
                "tempo": 120.0
            },
            {
                "start_time": 164.42272727272726,
                "end_time": 164.60681818181817,
                "pitch": 29,
                "velocity": 51,
                "duration": 0.1840909090909122,
                "tempo": 120.0
            },
            {
                "start_time": 164.62272727272727,
                "end_time": 164.8090909090909,
                "pitch": 29,
                "velocity": 51,
                "duration": 0.1863636363636374,
                "tempo": 120.0
            },
            {
                "start_time": 164.825,
                "end_time": 165.0090909090909,
                "pitch": 29,
                "velocity": 51,
                "duration": 0.1840909090909122,
                "tempo": 120.0
            },
            {
                "start_time": 165.02727272727273,
                "end_time": 165.2090909090909,
                "pitch": 29,
                "velocity": 51,
                "duration": 0.18181818181815856,
                "tempo": 120.0
            },
            {
                "start_time": 165.22727272727272,
                "end_time": 165.41136363636363,
                "pitch": 29,
                "velocity": 51,
                "duration": 0.1840909090909122,
                "tempo": 120.0
            },
            {
                "start_time": 165.4272727272727,
                "end_time": 165.61136363636362,
                "pitch": 29,
                "velocity": 51,
                "duration": 0.1840909090909122,
                "tempo": 120.0
            },
            {
                "start_time": 165.62954545454545,
                "end_time": 165.71363636363637,
                "pitch": 29,
                "velocity": 51,
                "duration": 0.08409090909091788,
                "tempo": 120.0
            },
            {
                "start_time": 165.72954545454544,
                "end_time": 165.81363636363636,
                "pitch": 29,
                "velocity": 51,
                "duration": 0.08409090909091788,
                "tempo": 120.0
            },
            {
                "start_time": 159.38863636363635,
                "end_time": 166.01590909090908,
                "pitch": 38,
                "velocity": 51,
                "duration": 6.627272727272725,
                "tempo": 120.0
            },
            {
                "start_time": 165.82954545454544,
                "end_time": 166.01590909090908,
                "pitch": 38,
                "velocity": 51,
                "duration": 0.1863636363636374,
                "tempo": 120.0
            },
            {
                "start_time": 166.03181818181818,
                "end_time": 166.2159090909091,
                "pitch": 38,
                "velocity": 51,
                "duration": 0.1840909090909122,
                "tempo": 120.0
            },
            {
                "start_time": 166.2340909090909,
                "end_time": 166.4181818181818,
                "pitch": 38,
                "velocity": 51,
                "duration": 0.1840909090909122,
                "tempo": 120.0
            },
            {
                "start_time": 166.43636363636364,
                "end_time": 166.62045454545455,
                "pitch": 38,
                "velocity": 51,
                "duration": 0.1840909090909122,
                "tempo": 120.0
            },
            {
                "start_time": 166.63636363636363,
                "end_time": 166.82045454545454,
                "pitch": 38,
                "velocity": 51,
                "duration": 0.1840909090909122,
                "tempo": 120.0
            },
            {
                "start_time": 166.83863636363637,
                "end_time": 167.02272727272725,
                "pitch": 38,
                "velocity": 51,
                "duration": 0.18409090909088377,
                "tempo": 120.0
            },
            {
                "start_time": 167.04090909090908,
                "end_time": 167.22272727272727,
                "pitch": 38,
                "velocity": 51,
                "duration": 0.18181818181818699,
                "tempo": 120.0
            },
            {
                "start_time": 167.24090909090907,
                "end_time": 167.32272727272726,
                "pitch": 38,
                "velocity": 51,
                "duration": 0.08181818181819267,
                "tempo": 120.0
            },
            {
                "start_time": 167.3409090909091,
                "end_time": 167.42272727272726,
                "pitch": 38,
                "velocity": 51,
                "duration": 0.08181818181816425,
                "tempo": 120.0
            },
            {
                "start_time": 165.82954545454544,
                "end_time": 167.4409090909091,
                "pitch": 41,
                "velocity": 51,
                "duration": 1.6113636363636488,
                "tempo": 120.0
            },
            {
                "start_time": 167.4409090909091,
                "end_time": 167.62954545454545,
                "pitch": 31,
                "velocity": 51,
                "duration": 0.1886363636363626,
                "tempo": 120.0
            },
            {
                "start_time": 167.64545454545453,
                "end_time": 167.8340909090909,
                "pitch": 31,
                "velocity": 51,
                "duration": 0.1886363636363626,
                "tempo": 120.0
            },
            {
                "start_time": 167.85227272727272,
                "end_time": 168.03181818181818,
                "pitch": 31,
                "velocity": 51,
                "duration": 0.17954545454546178,
                "tempo": 120.0
            },
            {
                "start_time": 168.04772727272726,
                "end_time": 168.22727272727272,
                "pitch": 31,
                "velocity": 51,
                "duration": 0.17954545454546178,
                "tempo": 120.0
            },
            {
                "start_time": 168.24545454545455,
                "end_time": 168.4318181818182,
                "pitch": 31,
                "velocity": 51,
                "duration": 0.1863636363636374,
                "tempo": 120.0
            },
            {
                "start_time": 168.45,
                "end_time": 168.63863636363635,
                "pitch": 31,
                "velocity": 51,
                "duration": 0.1886363636363626,
                "tempo": 120.0
            },
            {
                "start_time": 168.65681818181818,
                "end_time": 168.8409090909091,
                "pitch": 31,
                "velocity": 51,
                "duration": 0.1840909090909122,
                "tempo": 120.0
            },
            {
                "start_time": 168.85681818181817,
                "end_time": 168.9409090909091,
                "pitch": 31,
                "velocity": 51,
                "duration": 0.08409090909091788,
                "tempo": 120.0
            },
            {
                "start_time": 168.9590909090909,
                "end_time": 169.04090909090908,
                "pitch": 31,
                "velocity": 51,
                "duration": 0.08181818181819267,
                "tempo": 120.0
            },
            {
                "start_time": 169.0590909090909,
                "end_time": 169.23863636363635,
                "pitch": 36,
                "velocity": 51,
                "duration": 0.17954545454543336,
                "tempo": 120.0
            },
            {
                "start_time": 169.25454545454545,
                "end_time": 169.33636363636361,
                "pitch": 36,
                "velocity": 51,
                "duration": 0.08181818181816425,
                "tempo": 120.0
            },
            {
                "start_time": 169.35454545454544,
                "end_time": 169.4340909090909,
                "pitch": 36,
                "velocity": 51,
                "duration": 0.07954545454546746,
                "tempo": 120.0
            },
            {
                "start_time": 169.4522727272727,
                "end_time": 169.63863636363635,
                "pitch": 38,
                "velocity": 51,
                "duration": 0.1863636363636374,
                "tempo": 120.0
            },
            {
                "start_time": 169.65681818181818,
                "end_time": 169.7431818181818,
                "pitch": 38,
                "velocity": 51,
                "duration": 0.08636363636361466,
                "tempo": 120.0
            },
            {
                "start_time": 169.7590909090909,
                "end_time": 169.84545454545454,
                "pitch": 38,
                "velocity": 51,
                "duration": 0.08636363636364308,
                "tempo": 120.0
            },
            {
                "start_time": 161.0,
                "end_time": 170.04772727272726,
                "pitch": 40,
                "velocity": 51,
                "duration": 9.047727272727258,
                "tempo": 120.0
            },
            {
                "start_time": 169.86363636363635,
                "end_time": 170.04772727272726,
                "pitch": 40,
                "velocity": 51,
                "duration": 0.1840909090909122,
                "tempo": 120.0
            },
            {
                "start_time": 170.06363636363636,
                "end_time": 170.14772727272725,
                "pitch": 40,
                "velocity": 51,
                "duration": 0.08409090909088945,
                "tempo": 120.0
            },
            {
                "start_time": 170.16590909090908,
                "end_time": 170.25,
                "pitch": 40,
                "velocity": 51,
                "duration": 0.08409090909091788,
                "tempo": 120.0
            },
            {
                "start_time": 169.4522727272727,
                "end_time": 170.44545454545454,
                "pitch": 36,
                "velocity": 51,
                "duration": 0.9931818181818244,
                "tempo": 120.0
            },
            {
                "start_time": 170.26590909090908,
                "end_time": 170.44545454545454,
                "pitch": 36,
                "velocity": 51,
                "duration": 0.17954545454546178,
                "tempo": 120.0
            },
            {
                "start_time": 170.46363636363637,
                "end_time": 170.5431818181818,
                "pitch": 36,
                "velocity": 51,
                "duration": 0.07954545454543904,
                "tempo": 120.0
            },
            {
                "start_time": 170.56136363636364,
                "end_time": 170.6431818181818,
                "pitch": 36,
                "velocity": 51,
                "duration": 0.08181818181816425,
                "tempo": 120.0
            },
            {
                "start_time": 170.6590909090909,
                "end_time": 170.7431818181818,
                "pitch": 36,
                "velocity": 51,
                "duration": 0.08409090909088945,
                "tempo": 120.0
            },
            {
                "start_time": 170.76136363636363,
                "end_time": 170.84772727272727,
                "pitch": 48,
                "velocity": 51,
                "duration": 0.08636363636364308,
                "tempo": 120.0
            },
            {
                "start_time": 170.86363636363635,
                "end_time": 170.95,
                "pitch": 48,
                "velocity": 51,
                "duration": 0.08636363636364308,
                "tempo": 120.0
            },
            {
                "start_time": 170.96818181818182,
                "end_time": 171.0522727272727,
                "pitch": 48,
                "velocity": 51,
                "duration": 0.08409090909088945,
                "tempo": 120.0
            },
            {
                "start_time": 170.26590909090908,
                "end_time": 171.07045454545454,
                "pitch": 40,
                "velocity": 51,
                "duration": 0.8045454545454618,
                "tempo": 120.0
            },
            {
                "start_time": 171.07045454545454,
                "end_time": 171.15454545454546,
                "pitch": 31,
                "velocity": 51,
                "duration": 0.08409090909091788,
                "tempo": 120.0
            },
            {
                "start_time": 171.17045454545453,
                "end_time": 171.25454545454545,
                "pitch": 43,
                "velocity": 51,
                "duration": 0.08409090909091788,
                "tempo": 120.0
            },
            {
                "start_time": 171.27272727272725,
                "end_time": 171.35454545454544,
                "pitch": 43,
                "velocity": 51,
                "duration": 0.08181818181819267,
                "tempo": 120.0
            },
            {
                "start_time": 171.37272727272727,
                "end_time": 171.45681818181816,
                "pitch": 43,
                "velocity": 51,
                "duration": 0.08409090909088945,
                "tempo": 120.0
            },
            {
                "start_time": 169.0590909090909,
                "end_time": 171.47272727272727,
                "pitch": 0,
                "velocity": 51,
                "duration": 2.413636363636357,
                "tempo": 120.0
            },
            {
                "start_time": 171.47272727272727,
                "end_time": 171.5568181818182,
                "pitch": 28,
                "velocity": 51,
                "duration": 0.08409090909091788,
                "tempo": 120.0
            },
            {
                "start_time": 171.07045454545454,
                "end_time": 171.65681818181818,
                "pitch": 40,
                "velocity": 51,
                "duration": 0.5863636363636431,
                "tempo": 120.0
            },
            {
                "start_time": 171.57272727272726,
                "end_time": 171.65681818181818,
                "pitch": 40,
                "velocity": 51,
                "duration": 0.08409090909091788,
                "tempo": 120.0
            },
            {
                "start_time": 171.67272727272726,
                "end_time": 171.75681818181818,
                "pitch": 40,
                "velocity": 51,
                "duration": 0.08409090909091788,
                "tempo": 120.0
            },
            {
                "start_time": 171.775,
                "end_time": 171.85681818181817,
                "pitch": 40,
                "velocity": 51,
                "duration": 0.08181818181816425,
                "tempo": 120.0
            },
            {
                "start_time": 146.0840909090909,
                "end_time": 171.875,
                "pitch": 54,
                "velocity": 51,
                "duration": 25.79090909090911,
                "tempo": 120.0
            },
            {
                "start_time": 171.875,
                "end_time": 171.95681818181816,
                "pitch": 43,
                "velocity": 51,
                "duration": 0.08181818181816425,
                "tempo": 120.0
            },
            {
                "start_time": 171.47272727272727,
                "end_time": 171.975,
                "pitch": 0,
                "velocity": 51,
                "duration": 0.5022727272727252,
                "tempo": 120.0
            },
            {
                "start_time": 171.975,
                "end_time": 172.0590909090909,
                "pitch": 36,
                "velocity": 51,
                "duration": 0.08409090909091788,
                "tempo": 120.0
            },
            {
                "start_time": 172.075,
                "end_time": 172.1590909090909,
                "pitch": 36,
                "velocity": 51,
                "duration": 0.08409090909091788,
                "tempo": 120.0
            },
            {
                "start_time": 172.1772727272727,
                "end_time": 172.2590909090909,
                "pitch": 36,
                "velocity": 51,
                "duration": 0.08181818181819267,
                "tempo": 120.0
            },
            {
                "start_time": 72.39318181818182,
                "end_time": 172.27727272727273,
                "pitch": 24,
                "velocity": 51,
                "duration": 99.88409090909092,
                "tempo": 120.0
            },
            {
                "start_time": 172.27727272727273,
                "end_time": 172.46136363636361,
                "pitch": 29,
                "velocity": 51,
                "duration": 0.18409090909088377,
                "tempo": 120.0
            },
            {
                "start_time": 172.47954545454544,
                "end_time": 172.66363636363636,
                "pitch": 29,
                "velocity": 51,
                "duration": 0.1840909090909122,
                "tempo": 120.0
            },
            {
                "start_time": 173.8840909090909,
                "end_time": 174.07045454545454,
                "pitch": 29,
                "velocity": 51,
                "duration": 0.1863636363636374,
                "tempo": 120.0
            },
            {
                "start_time": 174.08636363636361,
                "end_time": 174.27045454545453,
                "pitch": 29,
                "velocity": 51,
                "duration": 0.1840909090909122,
                "tempo": 120.0
            },
            {
                "start_time": 167.4409090909091,
                "end_time": 175.49545454545455,
                "pitch": 41,
                "velocity": 51,
                "duration": 8.054545454545462,
                "tempo": 120.0
            },
            {
                "start_time": 175.49545454545455,
                "end_time": 175.67954545454543,
                "pitch": 36,
                "velocity": 51,
                "duration": 0.18409090909088377,
                "tempo": 120.0
            },
            {
                "start_time": 175.69545454545454,
                "end_time": 175.87954545454545,
                "pitch": 36,
                "velocity": 51,
                "duration": 0.1840909090909122,
                "tempo": 120.0
            },
            {
                "start_time": 175.89545454545453,
                "end_time": 176.07954545454544,
                "pitch": 40,
                "velocity": 51,
                "duration": 0.1840909090909122,
                "tempo": 120.0
            },
            {
                "start_time": 171.875,
                "end_time": 176.09772727272727,
                "pitch": 54,
                "velocity": 51,
                "duration": 4.222727272727269,
                "tempo": 120.0
            },
            {
                "start_time": 176.09772727272727,
                "end_time": 176.28181818181818,
                "pitch": 43,
                "velocity": 51,
                "duration": 0.1840909090909122,
                "tempo": 120.0
            },
            {
                "start_time": 176.29999999999998,
                "end_time": 176.48636363636362,
                "pitch": 46,
                "velocity": 51,
                "duration": 0.1863636363636374,
                "tempo": 120.0
            },
            {
                "start_time": 84.675,
                "end_time": 176.50454545454545,
                "pitch": 26,
                "velocity": 51,
                "duration": 91.82954545454545,
                "tempo": 120.0
            },
            {
                "start_time": 176.50454545454545,
                "end_time": 176.89090909090908,
                "pitch": 48,
                "velocity": 51,
                "duration": 0.38636363636362603,
                "tempo": 120.0
            },
            {
                "start_time": 175.89545454545453,
                "end_time": 177.08636363636361,
                "pitch": 36,
                "velocity": 51,
                "duration": 1.1909090909090878,
                "tempo": 120.0
            },
            {
                "start_time": 176.90681818181818,
                "end_time": 177.08636363636361,
                "pitch": 36,
                "velocity": 51,
                "duration": 0.17954545454543336,
                "tempo": 120.0
            },
            {
                "start_time": 177.10227272727272,
                "end_time": 177.29090909090908,
                "pitch": 36,
                "velocity": 51,
                "duration": 0.1886363636363626,
                "tempo": 120.0
            },
            {
                "start_time": 177.3090909090909,
                "end_time": 177.49772727272727,
                "pitch": 36,
                "velocity": 51,
                "duration": 0.1886363636363626,
                "tempo": 120.0
            },
            {
                "start_time": 177.51363636363635,
                "end_time": 177.7,
                "pitch": 40,
                "velocity": 51,
                "duration": 0.1863636363636374,
                "tempo": 120.0
            },
            {
                "start_time": 176.09772727272727,
                "end_time": 177.7159090909091,
                "pitch": 54,
                "velocity": 51,
                "duration": 1.6181818181818244,
                "tempo": 120.0
            },
            {
                "start_time": 176.29999999999998,
                "end_time": 177.89999999999998,
                "pitch": 43,
                "velocity": 51,
                "duration": 1.5999999999999943,
                "tempo": 120.0
            },
            {
                "start_time": 177.7159090909091,
                "end_time": 177.89999999999998,
                "pitch": 43,
                "velocity": 51,
                "duration": 0.18409090909088377,
                "tempo": 120.0
            },
            {
                "start_time": 177.9181818181818,
                "end_time": 178.10227272727272,
                "pitch": 46,
                "velocity": 51,
                "duration": 0.1840909090909122,
                "tempo": 120.0
            },
            {
                "start_time": 176.50454545454545,
                "end_time": 178.12045454545455,
                "pitch": 26,
                "velocity": 51,
                "duration": 1.6159090909090992,
                "tempo": 120.0
            },
            {
                "start_time": 178.1181818181818,
                "end_time": 178.12045454545455,
                "pitch": 26,
                "velocity": 51,
                "duration": 0.0022727272727536274,
                "tempo": 120.0
            },
            {
                "start_time": 178.12045454545455,
                "end_time": 178.5,
                "pitch": 48,
                "velocity": 51,
                "duration": 0.3795454545454504,
                "tempo": 120.0
            },
            {
                "start_time": 177.51363636363635,
                "end_time": 178.69772727272726,
                "pitch": 36,
                "velocity": 51,
                "duration": 1.1840909090909122,
                "tempo": 120.0
            },
            {
                "start_time": 178.5181818181818,
                "end_time": 178.69772727272726,
                "pitch": 36,
                "velocity": 51,
                "duration": 0.17954545454546178,
                "tempo": 120.0
            },
            {
                "start_time": 172.27727272727273,
                "end_time": 178.71363636363637,
                "pitch": 24,
                "velocity": 51,
                "duration": 6.436363636363637,
                "tempo": 120.0
            },
            {
                "start_time": 178.71363636363637,
                "end_time": 178.90227272727273,
                "pitch": 29,
                "velocity": 51,
                "duration": 0.1886363636363626,
                "tempo": 120.0
            },
            {
                "start_time": 178.9181818181818,
                "end_time": 179.10681818181817,
                "pitch": 29,
                "velocity": 51,
                "duration": 0.1886363636363626,
                "tempo": 120.0
            }
        ],
        "Trumpet": [
            {
                "start_time": 65.96363636363635,
                "end_time": 66.16136363636363,
                "pitch": 60,
                "velocity": 64,
                "duration": 0.19772727272727764,
                "tempo": 120.0
            },
            {
                "start_time": 66.16136363636363,
                "end_time": 66.36363636363636,
                "pitch": 60,
                "velocity": 64,
                "duration": 0.20227272727272805,
                "tempo": 120.0
            },
            {
                "start_time": 67.56818181818181,
                "end_time": 67.76818181818182,
                "pitch": 60,
                "velocity": 64,
                "duration": 0.20000000000000284,
                "tempo": 120.0
            },
            {
                "start_time": 67.76818181818182,
                "end_time": 67.96818181818182,
                "pitch": 60,
                "velocity": 64,
                "duration": 0.20000000000000284,
                "tempo": 120.0
            },
            {
                "start_time": 69.17727272727272,
                "end_time": 69.37727272727273,
                "pitch": 72,
                "velocity": 64,
                "duration": 0.20000000000000284,
                "tempo": 120.0
            },
            {
                "start_time": 69.37727272727273,
                "end_time": 69.57954545454545,
                "pitch": 71,
                "velocity": 64,
                "duration": 0.20227272727272805,
                "tempo": 120.0
            },
            {
                "start_time": 69.57954545454545,
                "end_time": 69.77954545454546,
                "pitch": 67,
                "velocity": 64,
                "duration": 0.20000000000000284,
                "tempo": 120.0
            },
            {
                "start_time": 69.37727272727273,
                "end_time": 70.98409090909091,
                "pitch": 76,
                "velocity": 64,
                "duration": 1.6068181818181841,
                "tempo": 120.0
            },
            {
                "start_time": 70.7840909090909,
                "end_time": 70.98409090909091,
                "pitch": 76,
                "velocity": 64,
                "duration": 0.20000000000000284,
                "tempo": 120.0
            },
            {
                "start_time": 70.98636363636363,
                "end_time": 71.18636363636364,
                "pitch": 74,
                "velocity": 64,
                "duration": 0.20000000000000284,
                "tempo": 120.0
            },
            {
                "start_time": 71.18636363636364,
                "end_time": 71.38863636363637,
                "pitch": 72,
                "velocity": 64,
                "duration": 0.20227272727272805,
                "tempo": 120.0
            },
            {
                "start_time": 70.98636363636363,
                "end_time": 71.38863636363637,
                "pitch": 76,
                "velocity": 64,
                "duration": 0.4022727272727309,
                "tempo": 120.0
            },
            {
                "start_time": 71.38863636363637,
                "end_time": 72.07272727272726,
                "pitch": 67,
                "velocity": 64,
                "duration": 0.684090909090898,
                "tempo": 120.0
            },
            {
                "start_time": 72.07272727272726,
                "end_time": 72.20681818181818,
                "pitch": 67,
                "velocity": 64,
                "duration": 0.13409090909091503,
                "tempo": 120.0
            },
            {
                "start_time": 72.07272727272726,
                "end_time": 72.20681818181818,
                "pitch": 79,
                "velocity": 64,
                "duration": 0.13409090909091503,
                "tempo": 120.0
            },
            {
                "start_time": 72.20681818181818,
                "end_time": 72.3409090909091,
                "pitch": 67,
                "velocity": 64,
                "duration": 0.13409090909091503,
                "tempo": 120.0
            },
            {
                "start_time": 72.20681818181818,
                "end_time": 72.3409090909091,
                "pitch": 79,
                "velocity": 64,
                "duration": 0.13409090909091503,
                "tempo": 120.0
            },
            {
                "start_time": 72.3409090909091,
                "end_time": 72.39545454545454,
                "pitch": 67,
                "velocity": 64,
                "duration": 0.05454545454544757,
                "tempo": 120.0
            },
            {
                "start_time": 72.6,
                "end_time": 72.80454545454545,
                "pitch": 60,
                "velocity": 64,
                "duration": 0.20454545454545325,
                "tempo": 120.0
            },
            {
                "start_time": 74.00227272727273,
                "end_time": 74.20681818181818,
                "pitch": 60,
                "velocity": 64,
                "duration": 0.20454545454545325,
                "tempo": 120.0
            },
            {
                "start_time": 74.20681818181818,
                "end_time": 74.41136363636363,
                "pitch": 60,
                "velocity": 64,
                "duration": 0.20454545454545325,
                "tempo": 120.0
            },
            {
                "start_time": 75.80909090909091,
                "end_time": 76.0090909090909,
                "pitch": 59,
                "velocity": 64,
                "duration": 0.19999999999998863,
                "tempo": 120.0
            },
            {
                "start_time": 76.01136363636363,
                "end_time": 76.2159090909091,
                "pitch": 60,
                "velocity": 64,
                "duration": 0.20454545454546746,
                "tempo": 120.0
            },
            {
                "start_time": 76.2159090909091,
                "end_time": 76.42045454545455,
                "pitch": 64,
                "velocity": 64,
                "duration": 0.20454545454545325,
                "tempo": 120.0
            },
            {
                "start_time": 76.42272727272727,
                "end_time": 76.62272727272727,
                "pitch": 64,
                "velocity": 64,
                "duration": 0.20000000000000284,
                "tempo": 120.0
            },
            {
                "start_time": 76.62272727272727,
                "end_time": 76.825,
                "pitch": 64,
                "velocity": 64,
                "duration": 0.20227272727272805,
                "tempo": 120.0
            },
            {
                "start_time": 76.825,
                "end_time": 77.02045454545454,
                "pitch": 65,
                "velocity": 64,
                "duration": 0.19545454545453822,
                "tempo": 120.0
            },
            {
                "start_time": 77.02045454545454,
                "end_time": 77.2159090909091,
                "pitch": 65,
                "velocity": 64,
                "duration": 0.19545454545455243,
                "tempo": 120.0
            },
            {
                "start_time": 77.2159090909091,
                "end_time": 77.62045454545454,
                "pitch": 67,
                "velocity": 64,
                "duration": 0.4045454545454419,
                "tempo": 120.0
            },
            {
                "start_time": 77.82727272727273,
                "end_time": 78.03181818181818,
                "pitch": 72,
                "velocity": 64,
                "duration": 0.20454545454545325,
                "tempo": 120.0
            },
            {
                "start_time": 71.18636363636364,
                "end_time": 78.23181818181818,
                "pitch": 74,
                "velocity": 64,
                "duration": 7.045454545454547,
                "tempo": 120.0
            },
            {
                "start_time": 78.03181818181818,
                "end_time": 78.23181818181818,
                "pitch": 74,
                "velocity": 64,
                "duration": 0.20000000000000284,
                "tempo": 120.0
            },
            {
                "start_time": 78.23181818181818,
                "end_time": 78.43181818181817,
                "pitch": 74,
                "velocity": 64,
                "duration": 0.19999999999998863,
                "tempo": 120.0
            },
            {
                "start_time": 78.43181818181817,
                "end_time": 78.6340909090909,
                "pitch": 74,
                "velocity": 64,
                "duration": 0.20227272727272805,
                "tempo": 120.0
            },
            {
                "start_time": 78.6340909090909,
                "end_time": 78.83636363636363,
                "pitch": 75,
                "velocity": 64,
                "duration": 0.20227272727272805,
                "tempo": 120.0
            },
            {
                "start_time": 76.2159090909091,
                "end_time": 79.03636363636363,
                "pitch": 60,
                "velocity": 64,
                "duration": 2.820454545454538,
                "tempo": 120.0
            },
            {
                "start_time": 78.83863636363635,
                "end_time": 79.03636363636363,
                "pitch": 60,
                "velocity": 51,
                "duration": 0.19772727272727764,
                "tempo": 120.0
            },
            {
                "start_time": 79.03636363636363,
                "end_time": 79.23863636363636,
                "pitch": 60,
                "velocity": 51,
                "duration": 0.20227272727272805,
                "tempo": 120.0
            },
            {
                "start_time": 80.44318181818181,
                "end_time": 80.64545454545454,
                "pitch": 60,
                "velocity": 51,
                "duration": 0.20227272727272805,
                "tempo": 120.0
            },
            {
                "start_time": 80.64545454545454,
                "end_time": 80.84545454545454,
                "pitch": 60,
                "velocity": 51,
                "duration": 0.20000000000000284,
                "tempo": 120.0
            },
            {
                "start_time": 78.03181818181818,
                "end_time": 82.25454545454545,
                "pitch": 72,
                "velocity": 64,
                "duration": 4.222727272727269,
                "tempo": 120.0
            },
            {
                "start_time": 82.05454545454545,
                "end_time": 82.25454545454545,
                "pitch": 72,
                "velocity": 51,
                "duration": 0.20000000000000284,
                "tempo": 120.0
            },
            {
                "start_time": 71.38863636363637,
                "end_time": 82.25454545454545,
                "pitch": 76,
                "velocity": 64,
                "duration": 10.865909090909085,
                "tempo": 120.0
            },
            {
                "start_time": 69.57954545454545,
                "end_time": 82.45454545454545,
                "pitch": 71,
                "velocity": 64,
                "duration": 12.875,
                "tempo": 120.0
            },
            {
                "start_time": 82.25454545454545,
                "end_time": 82.45454545454545,
                "pitch": 71,
                "velocity": 51,
                "duration": 0.20000000000000284,
                "tempo": 120.0
            },
            {
                "start_time": 82.45454545454545,
                "end_time": 82.65681818181818,
                "pitch": 67,
                "velocity": 51,
                "duration": 0.20227272727272805,
                "tempo": 120.0
            },
            {
                "start_time": 82.25454545454545,
                "end_time": 83.86590909090908,
                "pitch": 76,
                "velocity": 51,
                "duration": 1.6113636363636346,
                "tempo": 120.0
            },
            {
                "start_time": 83.66136363636363,
                "end_time": 83.86590909090908,
                "pitch": 76,
                "velocity": 51,
                "duration": 0.20454545454545325,
                "tempo": 120.0
            },
            {
                "start_time": 83.86818181818181,
                "end_time": 84.07272727272726,
                "pitch": 74,
                "velocity": 51,
                "duration": 0.20454545454545325,
                "tempo": 120.0
            },
            {
                "start_time": 84.07272727272726,
                "end_time": 84.27499999999999,
                "pitch": 72,
                "velocity": 51,
                "duration": 0.20227272727272805,
                "tempo": 120.0
            },
            {
                "start_time": 83.86818181818181,
                "end_time": 84.27499999999999,
                "pitch": 76,
                "velocity": 51,
                "duration": 0.4068181818181813,
                "tempo": 120.0
            },
            {
                "start_time": 84.27499999999999,
                "end_time": 84.9590909090909,
                "pitch": 67,
                "velocity": 51,
                "duration": 0.6840909090909122,
                "tempo": 120.0
            },
            {
                "start_time": 72.3409090909091,
                "end_time": 84.9590909090909,
                "pitch": 79,
                "velocity": 64,
                "duration": 12.61818181818181,
                "tempo": 120.0
            },
            {
                "start_time": 84.9590909090909,
                "end_time": 85.0909090909091,
                "pitch": 67,
                "velocity": 51,
                "duration": 0.13181818181818983,
                "tempo": 120.0
            },
            {
                "start_time": 84.9590909090909,
                "end_time": 85.0909090909091,
                "pitch": 79,
                "velocity": 51,
                "duration": 0.13181818181818983,
                "tempo": 120.0
            },
            {
                "start_time": 85.0909090909091,
                "end_time": 85.22045454545454,
                "pitch": 67,
                "velocity": 51,
                "duration": 0.1295454545454504,
                "tempo": 120.0
            },
            {
                "start_time": 85.0909090909091,
                "end_time": 85.22045454545454,
                "pitch": 79,
                "velocity": 51,
                "duration": 0.1295454545454504,
                "tempo": 120.0
            },
            {
                "start_time": 85.22045454545454,
                "end_time": 85.27272727272727,
                "pitch": 67,
                "velocity": 51,
                "duration": 0.052272727272722364,
                "tempo": 120.0
            },
            {
                "start_time": 86.28636363636363,
                "end_time": 86.48636363636363,
                "pitch": 65,
                "velocity": 51,
                "duration": 0.20000000000000284,
                "tempo": 120.0
            },
            {
                "start_time": 77.2159090909091,
                "end_time": 86.48863636363636,
                "pitch": 78,
                "velocity": 64,
                "duration": 9.272727272727266,
                "tempo": 120.0
            },
            {
                "start_time": 86.48863636363636,
                "end_time": 86.69318181818181,
                "pitch": 67,
                "velocity": 51,
                "duration": 0.20454545454545325,
                "tempo": 120.0
            },
            {
                "start_time": 86.69318181818181,
                "end_time": 87.26590909090909,
                "pitch": 67,
                "velocity": 51,
                "duration": 0.5727272727272776,
                "tempo": 120.0
            },
            {
                "start_time": 87.26590909090909,
                "end_time": 88.50227272727273,
                "pitch": 69,
                "velocity": 51,
                "duration": 1.2363636363636346,
                "tempo": 120.0
            },
            {
                "start_time": 88.50227272727273,
                "end_time": 89.18636363636364,
                "pitch": 67,
                "velocity": 51,
                "duration": 0.6840909090909122,
                "tempo": 120.0
            },
            {
                "start_time": 85.22045454545454,
                "end_time": 89.18636363636364,
                "pitch": 79,
                "velocity": 51,
                "duration": 3.9659090909090935,
                "tempo": 120.0
            },
            {
                "start_time": 89.18636363636364,
                "end_time": 89.30454545454545,
                "pitch": 67,
                "velocity": 51,
                "duration": 0.11818181818181017,
                "tempo": 120.0
            },
            {
                "start_time": 89.18636363636364,
                "end_time": 89.30454545454545,
                "pitch": 79,
                "velocity": 51,
                "duration": 0.11818181818181017,
                "tempo": 120.0
            },
            {
                "start_time": 88.50227272727273,
                "end_time": 90.10909090909091,
                "pitch": 69,
                "velocity": 51,
                "duration": 1.6068181818181841,
                "tempo": 120.0
            },
            {
                "start_time": 89.30454545454545,
                "end_time": 90.10909090909091,
                "pitch": 69,
                "velocity": 51,
                "duration": 0.8045454545454618,
                "tempo": 120.0
            },
            {
                "start_time": 82.45454545454545,
                "end_time": 90.92045454545455,
                "pitch": 71,
                "velocity": 51,
                "duration": 8.465909090909093,
                "tempo": 120.0
            },
            {
                "start_time": 90.10909090909091,
                "end_time": 90.92045454545455,
                "pitch": 71,
                "velocity": 51,
                "duration": 0.8113636363636374,
                "tempo": 120.0
            },
            {
                "start_time": 91.12272727272727,
                "end_time": 91.72954545454544,
                "pitch": 71,
                "velocity": 51,
                "duration": 0.6068181818181699,
                "tempo": 120.0
            },
            {
                "start_time": 172.28181818181818,
                "end_time": 172.47954545454544,
                "pitch": 60,
                "velocity": 64,
                "duration": 0.19772727272726343,
                "tempo": 120.0
            },
            {
                "start_time": 172.48181818181817,
                "end_time": 172.6818181818182,
                "pitch": 60,
                "velocity": 64,
                "duration": 0.20000000000001705,
                "tempo": 120.0
            },
            {
                "start_time": 173.88636363636363,
                "end_time": 174.08863636363637,
                "pitch": 60,
                "velocity": 64,
                "duration": 0.20227272727274226,
                "tempo": 120.0
            },
            {
                "start_time": 174.08863636363637,
                "end_time": 174.28863636363636,
                "pitch": 60,
                "velocity": 64,
                "duration": 0.19999999999998863,
                "tempo": 120.0
            },
            {
                "start_time": 175.49772727272727,
                "end_time": 175.69772727272726,
                "pitch": 72,
                "velocity": 64,
                "duration": 0.19999999999998863,
                "tempo": 120.0
            },
            {
                "start_time": 84.27499999999999,
                "end_time": 175.69772727272726,
                "pitch": 76,
                "velocity": 51,
                "duration": 91.42272727272727,
                "tempo": 120.0
            },
            {
                "start_time": 175.69772727272726,
                "end_time": 175.89772727272725,
                "pitch": 71,
                "velocity": 64,
                "duration": 0.19999999999998863,
                "tempo": 120.0
            },
            {
                "start_time": 175.89772727272725,
                "end_time": 176.1,
                "pitch": 67,
                "velocity": 64,
                "duration": 0.20227272727274226,
                "tempo": 120.0
            },
            {
                "start_time": 175.69772727272726,
                "end_time": 177.31136363636364,
                "pitch": 76,
                "velocity": 64,
                "duration": 1.613636363636374,
                "tempo": 120.0
            },
            {
                "start_time": 177.10454545454544,
                "end_time": 177.31136363636364,
                "pitch": 76,
                "velocity": 64,
                "duration": 0.20681818181819267,
                "tempo": 120.0
            },
            {
                "start_time": 84.07272727272726,
                "end_time": 177.51590909090908,
                "pitch": 74,
                "velocity": 51,
                "duration": 93.44318181818181,
                "tempo": 120.0
            },
            {
                "start_time": 177.31136363636364,
                "end_time": 177.51590909090908,
                "pitch": 74,
                "velocity": 64,
                "duration": 0.20454545454543904,
                "tempo": 120.0
            },
            {
                "start_time": 177.51590909090908,
                "end_time": 177.71818181818182,
                "pitch": 72,
                "velocity": 64,
                "duration": 0.20227272727274226,
                "tempo": 120.0
            },
            {
                "start_time": 177.31136363636364,
                "end_time": 177.71818181818182,
                "pitch": 76,
                "velocity": 64,
                "duration": 0.4068181818181813,
                "tempo": 120.0
            },
            {
                "start_time": 177.71818181818182,
                "end_time": 178.40227272727273,
                "pitch": 67,
                "velocity": 64,
                "duration": 0.6840909090909122,
                "tempo": 120.0
            },
            {
                "start_time": 89.30454545454545,
                "end_time": 178.40227272727273,
                "pitch": 79,
                "velocity": 51,
                "duration": 89.09772727272728,
                "tempo": 120.0
            },
            {
                "start_time": 178.40227272727273,
                "end_time": 178.5340909090909,
                "pitch": 67,
                "velocity": 64,
                "duration": 0.13181818181817562,
                "tempo": 120.0
            },
            {
                "start_time": 178.40227272727273,
                "end_time": 178.5340909090909,
                "pitch": 79,
                "velocity": 64,
                "duration": 0.13181818181817562,
                "tempo": 120.0
            },
            {
                "start_time": 178.5340909090909,
                "end_time": 178.66590909090908,
                "pitch": 67,
                "velocity": 64,
                "duration": 0.13181818181817562,
                "tempo": 120.0
            },
            {
                "start_time": 178.5340909090909,
                "end_time": 178.66590909090908,
                "pitch": 79,
                "velocity": 64,
                "duration": 0.13181818181817562,
                "tempo": 120.0
            },
            {
                "start_time": 178.66590909090908,
                "end_time": 178.7159090909091,
                "pitch": 67,
                "velocity": 64,
                "duration": 0.05000000000001137,
                "tempo": 120.0
            },
            {
                "start_time": 178.92045454545453,
                "end_time": 179.125,
                "pitch": 60,
                "velocity": 64,
                "duration": 0.20454545454546746,
                "tempo": 120.0
            }
        ],
        "Clarinet": [
            {
                "start_time": 1.6022727272727273,
                "end_time": 1.7022727272727272,
                "pitch": 72,
                "velocity": 80,
                "duration": 0.09999999999999987,
                "tempo": 120.0
            },
            {
                "start_time": 1.8068181818181817,
                "end_time": 1.909090909090909,
                "pitch": 72,
                "velocity": 80,
                "duration": 0.10227272727272729,
                "tempo": 120.0
            },
            {
                "start_time": 1.909090909090909,
                "end_time": 2.0113636363636362,
                "pitch": 74,
                "velocity": 80,
                "duration": 0.10227272727272729,
                "tempo": 120.0
            },
            {
                "start_time": 2.0136363636363637,
                "end_time": 2.618181818181818,
                "pitch": 76,
                "velocity": 80,
                "duration": 0.6045454545454545,
                "tempo": 120.0
            },
            {
                "start_time": 2.618181818181818,
                "end_time": 2.8227272727272728,
                "pitch": 76,
                "velocity": 80,
                "duration": 0.20454545454545459,
                "tempo": 120.0
            },
            {
                "start_time": 2.0136363636363637,
                "end_time": 3.0204545454545455,
                "pitch": 74,
                "velocity": 80,
                "duration": 1.0068181818181818,
                "tempo": 120.0
            },
            {
                "start_time": 2.8249999999999997,
                "end_time": 3.0204545454545455,
                "pitch": 74,
                "velocity": 80,
                "duration": 0.19545454545454577,
                "tempo": 120.0
            },
            {
                "start_time": 2.8249999999999997,
                "end_time": 3.118181818181818,
                "pitch": 76,
                "velocity": 80,
                "duration": 0.29318181818181843,
                "tempo": 120.0
            },
            {
                "start_time": 3.0204545454545455,
                "end_time": 3.118181818181818,
                "pitch": 76,
                "velocity": 80,
                "duration": 0.09772727272727266,
                "tempo": 120.0
            },
            {
                "start_time": 3.215909090909091,
                "end_time": 3.315909090909091,
                "pitch": 76,
                "velocity": 80,
                "duration": 0.10000000000000009,
                "tempo": 120.0
            },
            {
                "start_time": 3.418181818181818,
                "end_time": 3.618181818181818,
                "pitch": 77,
                "velocity": 80,
                "duration": 0.20000000000000018,
                "tempo": 120.0
            },
            {
                "start_time": 3.618181818181818,
                "end_time": 3.718181818181818,
                "pitch": 77,
                "velocity": 80,
                "duration": 0.09999999999999964,
                "tempo": 120.0
            },
            {
                "start_time": 3.8227272727272728,
                "end_time": 3.925,
                "pitch": 76,
                "velocity": 80,
                "duration": 0.10227272727272707,
                "tempo": 120.0
            },
            {
                "start_time": 3.0204545454545455,
                "end_time": 4.322727272727272,
                "pitch": 74,
                "velocity": 80,
                "duration": 1.3022727272727268,
                "tempo": 120.0
            },
            {
                "start_time": 4.225,
                "end_time": 4.322727272727272,
                "pitch": 74,
                "velocity": 80,
                "duration": 0.09772727272727266,
                "tempo": 120.0
            },
            {
                "start_time": 4.322727272727272,
                "end_time": 4.420454545454545,
                "pitch": 74,
                "velocity": 80,
                "duration": 0.09772727272727266,
                "tempo": 120.0
            },
            {
                "start_time": 4.420454545454545,
                "end_time": 4.627272727272727,
                "pitch": 76,
                "velocity": 80,
                "duration": 0.206818181818182,
                "tempo": 120.0
            },
            {
                "start_time": 4.420454545454545,
                "end_time": 4.7295454545454545,
                "pitch": 74,
                "velocity": 80,
                "duration": 0.3090909090909095,
                "tempo": 120.0
            },
            {
                "start_time": 4.627272727272727,
                "end_time": 4.7295454545454545,
                "pitch": 74,
                "velocity": 80,
                "duration": 0.10227272727272751,
                "tempo": 120.0
            },
            {
                "start_time": 4.627272727272727,
                "end_time": 4.831818181818182,
                "pitch": 76,
                "velocity": 80,
                "duration": 0.20454545454545503,
                "tempo": 120.0
            },
            {
                "start_time": 4.7295454545454545,
                "end_time": 4.831818181818182,
                "pitch": 76,
                "velocity": 80,
                "duration": 0.10227272727272751,
                "tempo": 120.0
            },
            {
                "start_time": 1.909090909090909,
                "end_time": 4.931818181818182,
                "pitch": 72,
                "velocity": 80,
                "duration": 3.0227272727272725,
                "tempo": 120.0
            },
            {
                "start_time": 4.834090909090909,
                "end_time": 4.931818181818182,
                "pitch": 72,
                "velocity": 80,
                "duration": 0.09772727272727266,
                "tempo": 120.0
            },
            {
                "start_time": 5.034090909090909,
                "end_time": 5.134090909090909,
                "pitch": 72,
                "velocity": 80,
                "duration": 0.09999999999999964,
                "tempo": 120.0
            },
            {
                "start_time": 4.7295454545454545,
                "end_time": 5.236363636363636,
                "pitch": 74,
                "velocity": 80,
                "duration": 0.5068181818181818,
                "tempo": 120.0
            },
            {
                "start_time": 5.134090909090909,
                "end_time": 5.236363636363636,
                "pitch": 74,
                "velocity": 80,
                "duration": 0.10227272727272751,
                "tempo": 120.0
            },
            {
                "start_time": 4.834090909090909,
                "end_time": 5.834090909090909,
                "pitch": 76,
                "velocity": 80,
                "duration": 1.0,
                "tempo": 120.0
            },
            {
                "start_time": 5.236363636363636,
                "end_time": 5.834090909090909,
                "pitch": 76,
                "velocity": 80,
                "duration": 0.5977272727272727,
                "tempo": 120.0
            },
            {
                "start_time": 5.834090909090909,
                "end_time": 6.038636363636363,
                "pitch": 76,
                "velocity": 80,
                "duration": 0.20454545454545414,
                "tempo": 120.0
            },
            {
                "start_time": 5.236363636363636,
                "end_time": 6.245454545454545,
                "pitch": 74,
                "velocity": 80,
                "duration": 1.0090909090909088,
                "tempo": 120.0
            },
            {
                "start_time": 6.038636363636363,
                "end_time": 6.245454545454545,
                "pitch": 74,
                "velocity": 80,
                "duration": 0.206818181818182,
                "tempo": 120.0
            },
            {
                "start_time": 6.038636363636363,
                "end_time": 6.347727272727273,
                "pitch": 76,
                "velocity": 80,
                "duration": 0.3090909090909095,
                "tempo": 120.0
            },
            {
                "start_time": 6.245454545454545,
                "end_time": 6.347727272727273,
                "pitch": 76,
                "velocity": 80,
                "duration": 0.10227272727272751,
                "tempo": 120.0
            },
            {
                "start_time": 6.449999999999999,
                "end_time": 6.55,
                "pitch": 76,
                "velocity": 80,
                "duration": 0.10000000000000053,
                "tempo": 120.0
            },
            {
                "start_time": 4.225,
                "end_time": 6.843181818181818,
                "pitch": 77,
                "velocity": 80,
                "duration": 2.618181818181818,
                "tempo": 120.0
            },
            {
                "start_time": 6.6477272727272725,
                "end_time": 6.843181818181818,
                "pitch": 77,
                "velocity": 80,
                "duration": 0.19545454545454533,
                "tempo": 120.0
            },
            {
                "start_time": 6.845454545454545,
                "end_time": 6.9431818181818175,
                "pitch": 77,
                "velocity": 80,
                "duration": 0.09772727272727266,
                "tempo": 120.0
            },
            {
                "start_time": 7.045454545454545,
                "end_time": 7.1454545454545455,
                "pitch": 76,
                "velocity": 80,
                "duration": 0.10000000000000053,
                "tempo": 120.0
            },
            {
                "start_time": 6.245454545454545,
                "end_time": 7.547727272727272,
                "pitch": 74,
                "velocity": 80,
                "duration": 1.3022727272727268,
                "tempo": 120.0
            },
            {
                "start_time": 7.447727272727272,
                "end_time": 7.547727272727272,
                "pitch": 74,
                "velocity": 80,
                "duration": 0.09999999999999964,
                "tempo": 120.0
            },
            {
                "start_time": 7.547727272727272,
                "end_time": 7.6477272727272725,
                "pitch": 74,
                "velocity": 80,
                "duration": 0.10000000000000053,
                "tempo": 120.0
            },
            {
                "start_time": 7.6477272727272725,
                "end_time": 7.85,
                "pitch": 76,
                "velocity": 80,
                "duration": 0.20227272727272716,
                "tempo": 120.0
            },
            {
                "start_time": 7.6477272727272725,
                "end_time": 7.949999999999999,
                "pitch": 74,
                "velocity": 80,
                "duration": 0.3022727272727268,
                "tempo": 120.0
            },
            {
                "start_time": 7.85,
                "end_time": 7.949999999999999,
                "pitch": 74,
                "velocity": 80,
                "duration": 0.09999999999999964,
                "tempo": 120.0
            },
            {
                "start_time": 7.85,
                "end_time": 8.052272727272728,
                "pitch": 76,
                "velocity": 80,
                "duration": 0.20227272727272805,
                "tempo": 120.0
            },
            {
                "start_time": 7.949999999999999,
                "end_time": 8.052272727272728,
                "pitch": 76,
                "velocity": 80,
                "duration": 0.1022727272727284,
                "tempo": 120.0
            },
            {
                "start_time": 5.134090909090909,
                "end_time": 8.15,
                "pitch": 72,
                "velocity": 80,
                "duration": 3.0159090909090915,
                "tempo": 120.0
            },
            {
                "start_time": 8.052272727272728,
                "end_time": 8.15,
                "pitch": 72,
                "velocity": 80,
                "duration": 0.09772727272727266,
                "tempo": 120.0
            },
            {
                "start_time": 8.252272727272727,
                "end_time": 8.35,
                "pitch": 72,
                "velocity": 80,
                "duration": 0.09772727272727266,
                "tempo": 120.0
            },
            {
                "start_time": 7.949999999999999,
                "end_time": 8.452272727272726,
                "pitch": 74,
                "velocity": 80,
                "duration": 0.502272727272727,
                "tempo": 120.0
            },
            {
                "start_time": 8.352272727272727,
                "end_time": 8.452272727272726,
                "pitch": 74,
                "velocity": 80,
                "duration": 0.09999999999999964,
                "tempo": 120.0
            },
            {
                "start_time": 8.052272727272728,
                "end_time": 9.059090909090909,
                "pitch": 76,
                "velocity": 80,
                "duration": 1.006818181818181,
                "tempo": 120.0
            },
            {
                "start_time": 8.452272727272726,
                "end_time": 9.059090909090909,
                "pitch": 76,
                "velocity": 80,
                "duration": 0.6068181818181824,
                "tempo": 120.0
            },
            {
                "start_time": 9.061363636363636,
                "end_time": 9.26590909090909,
                "pitch": 76,
                "velocity": 80,
                "duration": 0.20454545454545503,
                "tempo": 120.0
            },
            {
                "start_time": 8.452272727272726,
                "end_time": 9.463636363636363,
                "pitch": 74,
                "velocity": 80,
                "duration": 1.0113636363636367,
                "tempo": 120.0
            },
            {
                "start_time": 9.26590909090909,
                "end_time": 9.463636363636363,
                "pitch": 74,
                "velocity": 80,
                "duration": 0.1977272727272723,
                "tempo": 120.0
            },
            {
                "start_time": 9.26590909090909,
                "end_time": 9.559090909090909,
                "pitch": 76,
                "velocity": 80,
                "duration": 0.293181818181818,
                "tempo": 120.0
            },
            {
                "start_time": 9.463636363636363,
                "end_time": 9.559090909090909,
                "pitch": 76,
                "velocity": 80,
                "duration": 0.09545454545454568,
                "tempo": 120.0
            },
            {
                "start_time": 9.659090909090908,
                "end_time": 9.759090909090908,
                "pitch": 76,
                "velocity": 80,
                "duration": 0.09999999999999964,
                "tempo": 120.0
            },
            {
                "start_time": 7.447727272727272,
                "end_time": 10.059090909090909,
                "pitch": 77,
                "velocity": 80,
                "duration": 2.6113636363636363,
                "tempo": 120.0
            },
            {
                "start_time": 9.85909090909091,
                "end_time": 10.059090909090909,
                "pitch": 77,
                "velocity": 80,
                "duration": 0.1999999999999993,
                "tempo": 120.0
            },
            {
                "start_time": 10.059090909090909,
                "end_time": 10.161363636363635,
                "pitch": 77,
                "velocity": 80,
                "duration": 0.10227272727272663,
                "tempo": 120.0
            },
            {
                "start_time": 10.263636363636364,
                "end_time": 10.36590909090909,
                "pitch": 76,
                "velocity": 80,
                "duration": 0.10227272727272663,
                "tempo": 120.0
            },
            {
                "start_time": 9.463636363636363,
                "end_time": 10.763636363636364,
                "pitch": 74,
                "velocity": 80,
                "duration": 1.3000000000000007,
                "tempo": 120.0
            },
            {
                "start_time": 10.668181818181818,
                "end_time": 10.763636363636364,
                "pitch": 74,
                "velocity": 80,
                "duration": 0.09545454545454568,
                "tempo": 120.0
            },
            {
                "start_time": 10.76590909090909,
                "end_time": 10.863636363636363,
                "pitch": 74,
                "velocity": 80,
                "duration": 0.09772727272727266,
                "tempo": 120.0
            },
            {
                "start_time": 10.863636363636363,
                "end_time": 11.068181818181818,
                "pitch": 76,
                "velocity": 80,
                "duration": 0.20454545454545503,
                "tempo": 120.0
            },
            {
                "start_time": 10.863636363636363,
                "end_time": 11.170454545454545,
                "pitch": 74,
                "velocity": 80,
                "duration": 0.30681818181818166,
                "tempo": 120.0
            },
            {
                "start_time": 11.068181818181818,
                "end_time": 11.170454545454545,
                "pitch": 74,
                "velocity": 80,
                "duration": 0.10227272727272663,
                "tempo": 120.0
            },
            {
                "start_time": 11.068181818181818,
                "end_time": 11.274999999999999,
                "pitch": 76,
                "velocity": 80,
                "duration": 0.20681818181818024,
                "tempo": 120.0
            },
            {
                "start_time": 11.170454545454545,
                "end_time": 11.274999999999999,
                "pitch": 76,
                "velocity": 80,
                "duration": 0.10454545454545361,
                "tempo": 120.0
            },
            {
                "start_time": 8.352272727272727,
                "end_time": 11.375,
                "pitch": 72,
                "velocity": 80,
                "duration": 3.0227272727272734,
                "tempo": 120.0
            },
            {
                "start_time": 11.274999999999999,
                "end_time": 11.375,
                "pitch": 72,
                "velocity": 80,
                "duration": 0.10000000000000142,
                "tempo": 120.0
            },
            {
                "start_time": 11.475,
                "end_time": 11.577272727272726,
                "pitch": 72,
                "velocity": 80,
                "duration": 0.10227272727272663,
                "tempo": 120.0
            },
            {
                "start_time": 11.170454545454545,
                "end_time": 11.677272727272726,
                "pitch": 74,
                "velocity": 80,
                "duration": 0.506818181818181,
                "tempo": 120.0
            },
            {
                "start_time": 11.577272727272726,
                "end_time": 11.677272727272726,
                "pitch": 74,
                "velocity": 80,
                "duration": 0.09999999999999964,
                "tempo": 120.0
            },
            {
                "start_time": 11.274999999999999,
                "end_time": 12.281818181818181,
                "pitch": 76,
                "velocity": 80,
                "duration": 1.0068181818181827,
                "tempo": 120.0
            },
            {
                "start_time": 11.677272727272726,
                "end_time": 12.281818181818181,
                "pitch": 76,
                "velocity": 80,
                "duration": 0.6045454545454554,
                "tempo": 120.0
            },
            {
                "start_time": 12.281818181818181,
                "end_time": 12.48181818181818,
                "pitch": 76,
                "velocity": 80,
                "duration": 0.1999999999999993,
                "tempo": 120.0
            },
            {
                "start_time": 11.677272727272726,
                "end_time": 12.684090909090909,
                "pitch": 74,
                "velocity": 80,
                "duration": 1.0068181818181827,
                "tempo": 120.0
            },
            {
                "start_time": 12.48181818181818,
                "end_time": 12.684090909090909,
                "pitch": 74,
                "velocity": 80,
                "duration": 0.20227272727272805,
                "tempo": 120.0
            },
            {
                "start_time": 12.48181818181818,
                "end_time": 12.784090909090908,
                "pitch": 76,
                "velocity": 80,
                "duration": 0.3022727272727277,
                "tempo": 120.0
            },
            {
                "start_time": 12.684090909090909,
                "end_time": 12.784090909090908,
                "pitch": 76,
                "velocity": 80,
                "duration": 0.09999999999999964,
                "tempo": 120.0
            },
            {
                "start_time": 12.884090909090908,
                "end_time": 12.984090909090908,
                "pitch": 76,
                "velocity": 80,
                "duration": 0.09999999999999964,
                "tempo": 120.0
            },
            {
                "start_time": 10.668181818181818,
                "end_time": 13.288636363636362,
                "pitch": 77,
                "velocity": 80,
                "duration": 2.6204545454545443,
                "tempo": 120.0
            },
            {
                "start_time": 13.086363636363636,
                "end_time": 13.288636363636362,
                "pitch": 77,
                "velocity": 80,
                "duration": 0.20227272727272627,
                "tempo": 120.0
            },
            {
                "start_time": 13.288636363636362,
                "end_time": 13.388636363636364,
                "pitch": 77,
                "velocity": 80,
                "duration": 0.10000000000000142,
                "tempo": 120.0
            },
            {
                "start_time": 13.488636363636363,
                "end_time": 13.588636363636363,
                "pitch": 76,
                "velocity": 80,
                "duration": 0.09999999999999964,
                "tempo": 120.0
            },
            {
                "start_time": 12.684090909090909,
                "end_time": 13.993181818181817,
                "pitch": 74,
                "velocity": 80,
                "duration": 1.3090909090909086,
                "tempo": 120.0
            },
            {
                "start_time": 13.893181818181818,
                "end_time": 13.993181818181817,
                "pitch": 74,
                "velocity": 80,
                "duration": 0.09999999999999964,
                "tempo": 120.0
            },
            {
                "start_time": 13.993181818181817,
                "end_time": 14.093181818181817,
                "pitch": 74,
                "velocity": 80,
                "duration": 0.09999999999999964,
                "tempo": 120.0
            },
            {
                "start_time": 14.095454545454544,
                "end_time": 14.290909090909091,
                "pitch": 76,
                "velocity": 80,
                "duration": 0.1954545454545471,
                "tempo": 120.0
            },
            {
                "start_time": 14.095454545454544,
                "end_time": 14.388636363636364,
                "pitch": 74,
                "velocity": 80,
                "duration": 0.29318181818181976,
                "tempo": 120.0
            },
            {
                "start_time": 14.290909090909091,
                "end_time": 14.388636363636364,
                "pitch": 74,
                "velocity": 80,
                "duration": 0.09772727272727266,
                "tempo": 120.0
            },
            {
                "start_time": 14.290909090909091,
                "end_time": 14.486363636363636,
                "pitch": 76,
                "velocity": 80,
                "duration": 0.19545454545454533,
                "tempo": 120.0
            },
            {
                "start_time": 14.388636363636364,
                "end_time": 14.486363636363636,
                "pitch": 76,
                "velocity": 80,
                "duration": 0.09772727272727266,
                "tempo": 120.0
            },
            {
                "start_time": 14.488636363636363,
                "end_time": 14.693181818181818,
                "pitch": 64,
                "velocity": 51,
                "duration": 0.20454545454545503,
                "tempo": 120.0
            },
            {
                "start_time": 14.693181818181818,
                "end_time": 14.897727272727272,
                "pitch": 64,
                "velocity": 51,
                "duration": 0.20454545454545325,
                "tempo": 120.0
            },
            {
                "start_time": 14.897727272727272,
                "end_time": 15.1,
                "pitch": 65,
                "velocity": 51,
                "duration": 0.20227272727272805,
                "tempo": 120.0
            },
            {
                "start_time": 15.1,
                "end_time": 15.302272727272726,
                "pitch": 64,
                "velocity": 51,
                "duration": 0.20227272727272627,
                "tempo": 120.0
            },
            {
                "start_time": 15.504545454545454,
                "end_time": 16.10909090909091,
                "pitch": 65,
                "velocity": 51,
                "duration": 0.6045454545454554,
                "tempo": 120.0
            },
            {
                "start_time": 16.10909090909091,
                "end_time": 16.30909090909091,
                "pitch": 64,
                "velocity": 51,
                "duration": 0.1999999999999993,
                "tempo": 120.0
            },
            {
                "start_time": 16.30909090909091,
                "end_time": 16.511363636363637,
                "pitch": 64,
                "velocity": 51,
                "duration": 0.20227272727272805,
                "tempo": 120.0
            },
            {
                "start_time": 16.511363636363637,
                "end_time": 16.711363636363636,
                "pitch": 65,
                "velocity": 51,
                "duration": 0.1999999999999993,
                "tempo": 120.0
            },
            {
                "start_time": 13.893181818181818,
                "end_time": 16.711363636363636,
                "pitch": 77,
                "velocity": 80,
                "duration": 2.8181818181818183,
                "tempo": 120.0
            },
            {
                "start_time": 16.711363636363636,
                "end_time": 16.911363636363635,
                "pitch": 67,
                "velocity": 51,
                "duration": 0.1999999999999993,
                "tempo": 120.0
            },
            {
                "start_time": 1.6022727272727273,
                "end_time": 17.113636363636363,
                "pitch": 0,
                "velocity": 80,
                "duration": 15.511363636363637,
                "tempo": 120.0
            },
            {
                "start_time": 17.113636363636363,
                "end_time": 17.71590909090909,
                "pitch": 64,
                "velocity": 51,
                "duration": 0.6022727272727266,
                "tempo": 120.0
            },
            {
                "start_time": 17.71590909090909,
                "end_time": 17.920454545454543,
                "pitch": 64,
                "velocity": 51,
                "duration": 0.20454545454545325,
                "tempo": 120.0
            },
            {
                "start_time": 17.922727272727272,
                "end_time": 18.127272727272725,
                "pitch": 64,
                "velocity": 51,
                "duration": 0.20454545454545325,
                "tempo": 120.0
            },
            {
                "start_time": 18.127272727272725,
                "end_time": 18.32272727272727,
                "pitch": 65,
                "velocity": 51,
                "duration": 0.19545454545454533,
                "tempo": 120.0
            },
            {
                "start_time": 16.711363636363636,
                "end_time": 18.325,
                "pitch": 77,
                "velocity": 51,
                "duration": 1.6136363636363633,
                "tempo": 120.0
            },
            {
                "start_time": 18.325,
                "end_time": 18.520454545454545,
                "pitch": 69,
                "velocity": 51,
                "duration": 0.19545454545454533,
                "tempo": 120.0
            },
            {
                "start_time": 18.720454545454544,
                "end_time": 18.920454545454543,
                "pitch": 64,
                "velocity": 51,
                "duration": 0.1999999999999993,
                "tempo": 120.0
            },
            {
                "start_time": 18.920454545454543,
                "end_time": 19.120454545454546,
                "pitch": 60,
                "velocity": 51,
                "duration": 0.20000000000000284,
                "tempo": 120.0
            },
            {
                "start_time": 19.120454545454546,
                "end_time": 19.320454545454545,
                "pitch": 62,
                "velocity": 51,
                "duration": 0.1999999999999993,
                "tempo": 120.0
            },
            {
                "start_time": 18.920454545454543,
                "end_time": 19.929545454545455,
                "pitch": 64,
                "velocity": 51,
                "duration": 1.0090909090909115,
                "tempo": 120.0
            },
            {
                "start_time": 19.320454545454545,
                "end_time": 19.929545454545455,
                "pitch": 64,
                "velocity": 51,
                "duration": 0.6090909090909093,
                "tempo": 120.0
            },
            {
                "start_time": 19.320454545454545,
                "end_time": 20.025,
                "pitch": 62,
                "velocity": 51,
                "duration": 0.7045454545454533,
                "tempo": 120.0
            },
            {
                "start_time": 19.929545454545455,
                "end_time": 20.025,
                "pitch": 62,
                "velocity": 51,
                "duration": 0.0954545454545439,
                "tempo": 120.0
            },
            {
                "start_time": 19.929545454545455,
                "end_time": 20.125,
                "pitch": 64,
                "velocity": 51,
                "duration": 0.19545454545454533,
                "tempo": 120.0
            },
            {
                "start_time": 20.027272727272727,
                "end_time": 20.125,
                "pitch": 64,
                "velocity": 51,
                "duration": 0.09772727272727266,
                "tempo": 120.0
            },
            {
                "start_time": 20.027272727272727,
                "end_time": 20.536363636363635,
                "pitch": 62,
                "velocity": 51,
                "duration": 0.5090909090909079,
                "tempo": 120.0
            },
            {
                "start_time": 20.125,
                "end_time": 20.536363636363635,
                "pitch": 62,
                "velocity": 51,
                "duration": 0.41136363636363527,
                "tempo": 120.0
            },
            {
                "start_time": 19.120454545454546,
                "end_time": 20.738636363636363,
                "pitch": 60,
                "velocity": 51,
                "duration": 1.6181818181818173,
                "tempo": 120.0
            },
            {
                "start_time": 20.536363636363635,
                "end_time": 20.738636363636363,
                "pitch": 60,
                "velocity": 51,
                "duration": 0.20227272727272805,
                "tempo": 120.0
            },
            {
                "start_time": 20.536363636363635,
                "end_time": 20.938636363636363,
                "pitch": 62,
                "velocity": 51,
                "duration": 0.40227272727272734,
                "tempo": 120.0
            },
            {
                "start_time": 20.738636363636363,
                "end_time": 20.938636363636363,
                "pitch": 62,
                "velocity": 51,
                "duration": 0.1999999999999993,
                "tempo": 120.0
            },
            {
                "start_time": 20.738636363636363,
                "end_time": 21.73181818181818,
                "pitch": 60,
                "velocity": 51,
                "duration": 0.9931818181818173,
                "tempo": 120.0
            },
            {
                "start_time": 20.938636363636363,
                "end_time": 21.73181818181818,
                "pitch": 60,
                "velocity": 51,
                "duration": 0.793181818181818,
                "tempo": 120.0
            },
            {
                "start_time": 20.125,
                "end_time": 21.938636363636363,
                "pitch": 64,
                "velocity": 51,
                "duration": 1.8136363636363626,
                "tempo": 120.0
            },
            {
                "start_time": 21.938636363636363,
                "end_time": 22.143181818181816,
                "pitch": 57,
                "velocity": 51,
                "duration": 0.20454545454545325,
                "tempo": 120.0
            },
            {
                "start_time": 22.143181818181816,
                "end_time": 22.34318181818182,
                "pitch": 59,
                "velocity": 51,
                "duration": 0.20000000000000284,
                "tempo": 120.0
            },
            {
                "start_time": 22.345454545454544,
                "end_time": 22.545454545454543,
                "pitch": 60,
                "velocity": 51,
                "duration": 0.1999999999999993,
                "tempo": 120.0
            },
            {
                "start_time": 20.938636363636363,
                "end_time": 22.94772727272727,
                "pitch": 62,
                "velocity": 51,
                "duration": 2.009090909090908,
                "tempo": 120.0
            },
            {
                "start_time": 22.545454545454543,
                "end_time": 22.94772727272727,
                "pitch": 62,
                "velocity": 51,
                "duration": 0.40227272727272734,
                "tempo": 120.0
            },
            {
                "start_time": 21.938636363636363,
                "end_time": 23.147727272727273,
                "pitch": 64,
                "velocity": 51,
                "duration": 1.2090909090909108,
                "tempo": 120.0
            },
            {
                "start_time": 22.94772727272727,
                "end_time": 23.147727272727273,
                "pitch": 64,
                "velocity": 51,
                "duration": 0.20000000000000284,
                "tempo": 120.0
            },
            {
                "start_time": 22.94772727272727,
                "end_time": 23.347727272727273,
                "pitch": 62,
                "velocity": 51,
                "duration": 0.40000000000000213,
                "tempo": 120.0
            },
            {
                "start_time": 23.147727272727273,
                "end_time": 23.347727272727273,
                "pitch": 62,
                "velocity": 51,
                "duration": 0.1999999999999993,
                "tempo": 120.0
            },
            {
                "start_time": 23.549999999999997,
                "end_time": 23.74772727272727,
                "pitch": 62,
                "velocity": 51,
                "duration": 0.19772727272727408,
                "tempo": 120.0
            },
            {
                "start_time": 23.147727272727273,
                "end_time": 23.95,
                "pitch": 64,
                "velocity": 51,
                "duration": 0.8022727272727259,
                "tempo": 120.0
            },
            {
                "start_time": 23.75,
                "end_time": 23.95,
                "pitch": 64,
                "velocity": 51,
                "duration": 0.1999999999999993,
                "tempo": 120.0
            },
            {
                "start_time": 23.95,
                "end_time": 24.152272727272727,
                "pitch": 64,
                "velocity": 51,
                "duration": 0.20227272727272805,
                "tempo": 120.0
            },
            {
                "start_time": 24.152272727272727,
                "end_time": 24.552272727272726,
                "pitch": 69,
                "velocity": 51,
                "duration": 0.3999999999999986,
                "tempo": 120.0
            },
            {
                "start_time": 24.552272727272726,
                "end_time": 24.956818181818182,
                "pitch": 71,
                "velocity": 51,
                "duration": 0.4045454545454561,
                "tempo": 120.0
            },
            {
                "start_time": 11.577272727272726,
                "end_time": 25.15681818181818,
                "pitch": 72,
                "velocity": 80,
                "duration": 13.579545454545455,
                "tempo": 120.0
            },
            {
                "start_time": 24.956818181818182,
                "end_time": 25.15681818181818,
                "pitch": 72,
                "velocity": 51,
                "duration": 0.1999999999999993,
                "tempo": 120.0
            },
            {
                "start_time": 14.388636363636364,
                "end_time": 25.35681818181818,
                "pitch": 74,
                "velocity": 80,
                "duration": 10.968181818181817,
                "tempo": 120.0
            },
            {
                "start_time": 25.15681818181818,
                "end_time": 25.35681818181818,
                "pitch": 74,
                "velocity": 51,
                "duration": 0.1999999999999993,
                "tempo": 120.0
            },
            {
                "start_time": 18.325,
                "end_time": 25.55681818181818,
                "pitch": 77,
                "velocity": 51,
                "duration": 7.231818181818181,
                "tempo": 120.0
            },
            {
                "start_time": 25.55681818181818,
                "end_time": 25.959090909090907,
                "pitch": 71,
                "velocity": 51,
                "duration": 0.40227272727272734,
                "tempo": 120.0
            },
            {
                "start_time": 25.959090909090907,
                "end_time": 26.159090909090907,
                "pitch": 71,
                "velocity": 51,
                "duration": 0.1999999999999993,
                "tempo": 120.0
            },
            {
                "start_time": 24.956818181818182,
                "end_time": 26.161363636363635,
                "pitch": 55,
                "velocity": 51,
                "duration": 1.2045454545454533,
                "tempo": 120.0
            },
            {
                "start_time": 25.15681818181818,
                "end_time": 26.361363636363635,
                "pitch": 72,
                "velocity": 51,
                "duration": 1.2045454545454533,
                "tempo": 120.0
            },
            {
                "start_time": 26.161363636363635,
                "end_time": 26.361363636363635,
                "pitch": 72,
                "velocity": 51,
                "duration": 0.1999999999999993,
                "tempo": 120.0
            },
            {
                "start_time": 26.361363636363635,
                "end_time": 26.561363636363634,
                "pitch": 74,
                "velocity": 51,
                "duration": 0.1999999999999993,
                "tempo": 120.0
            },
            {
                "start_time": 26.76590909090909,
                "end_time": 26.972727272727273,
                "pitch": 74,
                "velocity": 51,
                "duration": 0.206818181818182,
                "tempo": 120.0
            },
            {
                "start_time": 26.972727272727273,
                "end_time": 27.172727272727272,
                "pitch": 76,
                "velocity": 51,
                "duration": 0.1999999999999993,
                "tempo": 120.0
            },
            {
                "start_time": 26.972727272727273,
                "end_time": 27.375,
                "pitch": 74,
                "velocity": 51,
                "duration": 0.40227272727272734,
                "tempo": 120.0
            },
            {
                "start_time": 27.174999999999997,
                "end_time": 27.375,
                "pitch": 74,
                "velocity": 51,
                "duration": 0.20000000000000284,
                "tempo": 120.0
            },
            {
                "start_time": 26.361363636363635,
                "end_time": 27.575,
                "pitch": 72,
                "velocity": 51,
                "duration": 1.2136363636363647,
                "tempo": 120.0
            },
            {
                "start_time": 27.375,
                "end_time": 27.575,
                "pitch": 72,
                "velocity": 51,
                "duration": 0.1999999999999993,
                "tempo": 120.0
            },
            {
                "start_time": 27.174999999999997,
                "end_time": 27.575,
                "pitch": 76,
                "velocity": 51,
                "duration": 0.40000000000000213,
                "tempo": 120.0
            },
            {
                "start_time": 27.575,
                "end_time": 27.775,
                "pitch": 71,
                "velocity": 51,
                "duration": 0.1999999999999993,
                "tempo": 120.0
            },
            {
                "start_time": 26.161363636363635,
                "end_time": 27.777272727272727,
                "pitch": 55,
                "velocity": 51,
                "duration": 1.615909090909092,
                "tempo": 120.0
            },
            {
                "start_time": 27.375,
                "end_time": 27.972727272727273,
                "pitch": 74,
                "velocity": 51,
                "duration": 0.5977272727272727,
                "tempo": 120.0
            },
            {
                "start_time": 27.777272727272727,
                "end_time": 27.972727272727273,
                "pitch": 74,
                "velocity": 51,
                "duration": 0.19545454545454533,
                "tempo": 120.0
            },
            {
                "start_time": 27.972727272727273,
                "end_time": 28.168181818181818,
                "pitch": 72,
                "velocity": 51,
                "duration": 0.19545454545454533,
                "tempo": 120.0
            },
            {
                "start_time": 27.575,
                "end_time": 28.375,
                "pitch": 76,
                "velocity": 51,
                "duration": 0.8000000000000007,
                "tempo": 120.0
            },
            {
                "start_time": 28.375,
                "end_time": 28.779545454545453,
                "pitch": 71,
                "velocity": 51,
                "duration": 0.40454545454545254,
                "tempo": 120.0
            },
            {
                "start_time": 28.779545454545453,
                "end_time": 28.979545454545452,
                "pitch": 67,
                "velocity": 51,
                "duration": 0.1999999999999993,
                "tempo": 120.0
            },
            {
                "start_time": 17.113636363636363,
                "end_time": 28.98181818181818,
                "pitch": 0,
                "velocity": 51,
                "duration": 11.868181818181817,
                "tempo": 120.0
            },
            {
                "start_time": 28.98181818181818,
                "end_time": 29.18181818181818,
                "pitch": 72,
                "velocity": 51,
                "duration": 0.1999999999999993,
                "tempo": 120.0
            },
            {
                "start_time": 28.375,
                "end_time": 29.18181818181818,
                "pitch": 76,
                "velocity": 51,
                "duration": 0.8068181818181799,
                "tempo": 120.0
            },
            {
                "start_time": 29.18181818181818,
                "end_time": 29.384090909090908,
                "pitch": 70,
                "velocity": 51,
                "duration": 0.20227272727272805,
                "tempo": 120.0
            },
            {
                "start_time": 27.972727272727273,
                "end_time": 29.584090909090907,
                "pitch": 74,
                "velocity": 51,
                "duration": 1.6113636363636346,
                "tempo": 120.0
            },
            {
                "start_time": 29.384090909090908,
                "end_time": 29.584090909090907,
                "pitch": 74,
                "velocity": 51,
                "duration": 0.1999999999999993,
                "tempo": 120.0
            },
            {
                "start_time": 29.584090909090907,
                "end_time": 29.784090909090907,
                "pitch": 72,
                "velocity": 51,
                "duration": 0.1999999999999993,
                "tempo": 120.0
            },
            {
                "start_time": 29.584090909090907,
                "end_time": 30.58863636363636,
                "pitch": 74,
                "velocity": 51,
                "duration": 1.004545454545454,
                "tempo": 120.0
            },
            {
                "start_time": 29.98409090909091,
                "end_time": 30.58863636363636,
                "pitch": 74,
                "velocity": 51,
                "duration": 0.6045454545454518,
                "tempo": 120.0
            },
            {
                "start_time": 29.18181818181818,
                "end_time": 30.78863636363636,
                "pitch": 76,
                "velocity": 51,
                "duration": 1.6068181818181806,
                "tempo": 120.0
            },
            {
                "start_time": 30.58863636363636,
                "end_time": 30.78863636363636,
                "pitch": 76,
                "velocity": 51,
                "duration": 0.1999999999999993,
                "tempo": 120.0
            },
            {
                "start_time": 30.58863636363636,
                "end_time": 30.988636363636363,
                "pitch": 74,
                "velocity": 51,
                "duration": 0.40000000000000213,
                "tempo": 120.0
            },
            {
                "start_time": 30.78863636363636,
                "end_time": 30.988636363636363,
                "pitch": 74,
                "velocity": 51,
                "duration": 0.20000000000000284,
                "tempo": 120.0
            },
            {
                "start_time": 30.988636363636363,
                "end_time": 31.190909090909088,
                "pitch": 81,
                "velocity": 51,
                "duration": 0.2022727272727245,
                "tempo": 120.0
            },
            {
                "start_time": 31.190909090909088,
                "end_time": 31.39090909090909,
                "pitch": 81,
                "velocity": 51,
                "duration": 0.20000000000000284,
                "tempo": 120.0
            },
            {
                "start_time": 28.98181818181818,
                "end_time": 31.593181818181815,
                "pitch": 0,
                "velocity": 51,
                "duration": 2.6113636363636346,
                "tempo": 120.0
            },
            {
                "start_time": 25.55681818181818,
                "end_time": 31.993181818181817,
                "pitch": 77,
                "velocity": 51,
                "duration": 6.436363636363637,
                "tempo": 120.0
            },
            {
                "start_time": 31.593181818181815,
                "end_time": 31.993181818181817,
                "pitch": 77,
                "velocity": 51,
                "duration": 0.40000000000000213,
                "tempo": 120.0
            },
            {
                "start_time": 31.593181818181815,
                "end_time": 32.19318181818182,
                "pitch": 0,
                "velocity": 51,
                "duration": 0.600000000000005,
                "tempo": 120.0
            },
            {
                "start_time": 31.993181818181817,
                "end_time": 32.19318181818182,
                "pitch": 79,
                "velocity": 51,
                "duration": 0.20000000000000284,
                "tempo": 120.0
            },
            {
                "start_time": 32.19318181818182,
                "end_time": 32.79545454545455,
                "pitch": 77,
                "velocity": 51,
                "duration": 0.6022727272727266,
                "tempo": 120.0
            },
            {
                "start_time": 31.993181818181817,
                "end_time": 32.79545454545455,
                "pitch": 90,
                "velocity": 51,
                "duration": 0.8022727272727295,
                "tempo": 120.0
            },
            {
                "start_time": 32.19318181818182,
                "end_time": 32.89545454545454,
                "pitch": 0,
                "velocity": 51,
                "duration": 0.7022727272727209,
                "tempo": 120.0
            },
            {
                "start_time": 32.79545454545455,
                "end_time": 32.89545454545454,
                "pitch": 79,
                "velocity": 51,
                "duration": 0.09999999999999432,
                "tempo": 120.0
            },
            {
                "start_time": 32.89545454545454,
                "end_time": 32.99772727272727,
                "pitch": 77,
                "velocity": 51,
                "duration": 0.10227272727272663,
                "tempo": 120.0
            },
            {
                "start_time": 30.78863636363636,
                "end_time": 33.39772727272727,
                "pitch": 76,
                "velocity": 51,
                "duration": 2.609090909090913,
                "tempo": 120.0
            },
            {
                "start_time": 32.99772727272727,
                "end_time": 33.39772727272727,
                "pitch": 77,
                "velocity": 51,
                "duration": 0.4000000000000057,
                "tempo": 120.0
            },
            {
                "start_time": 29.98409090909091,
                "end_time": 33.59772727272727,
                "pitch": 72,
                "velocity": 51,
                "duration": 3.6136363636363598,
                "tempo": 120.0
            },
            {
                "start_time": 33.39772727272727,
                "end_time": 33.59772727272727,
                "pitch": 72,
                "velocity": 51,
                "duration": 0.19999999999999574,
                "tempo": 120.0
            },
            {
                "start_time": 33.59772727272727,
                "end_time": 33.79772727272727,
                "pitch": 74,
                "velocity": 51,
                "duration": 0.20000000000000284,
                "tempo": 120.0
            },
            {
                "start_time": 33.39772727272727,
                "end_time": 34.002272727272725,
                "pitch": 76,
                "velocity": 51,
                "duration": 0.6045454545454518,
                "tempo": 120.0
            },
            {
                "start_time": 33.79772727272727,
                "end_time": 34.002272727272725,
                "pitch": 76,
                "velocity": 51,
                "duration": 0.20454545454545325,
                "tempo": 120.0
            },
            {
                "start_time": 34.00454545454545,
                "end_time": 34.20909090909091,
                "pitch": 76,
                "velocity": 51,
                "duration": 0.20454545454546036,
                "tempo": 120.0
            },
            {
                "start_time": 34.20909090909091,
                "end_time": 34.404545454545456,
                "pitch": 77,
                "velocity": 51,
                "duration": 0.19545454545454533,
                "tempo": 120.0
            },
            {
                "start_time": 30.988636363636363,
                "end_time": 34.40681818181818,
                "pitch": 89,
                "velocity": 51,
                "duration": 3.418181818181818,
                "tempo": 120.0
            },
            {
                "start_time": 34.40681818181818,
                "end_time": 34.60227272727273,
                "pitch": 81,
                "velocity": 51,
                "duration": 0.19545454545454533,
                "tempo": 120.0
            },
            {
                "start_time": 34.80681818181818,
                "end_time": 35.19090909090909,
                "pitch": 81,
                "velocity": 51,
                "duration": 0.38409090909090793,
                "tempo": 120.0
            },
            {
                "start_time": 32.89545454545454,
                "end_time": 35.20909090909091,
                "pitch": 0,
                "velocity": 51,
                "duration": 2.3136363636363697,
                "tempo": 120.0
            },
            {
                "start_time": 35.20909090909091,
                "end_time": 35.404545454545456,
                "pitch": 77,
                "velocity": 51,
                "duration": 0.19545454545454533,
                "tempo": 120.0
            },
            {
                "start_time": 35.404545454545456,
                "end_time": 35.40681818181818,
                "pitch": 77,
                "velocity": 51,
                "duration": 0.0022727272727252057,
                "tempo": 120.0
            },
            {
                "start_time": 33.79772727272727,
                "end_time": 35.611363636363635,
                "pitch": 74,
                "velocity": 51,
                "duration": 1.8136363636363626,
                "tempo": 120.0
            },
            {
                "start_time": 35.40681818181818,
                "end_time": 35.611363636363635,
                "pitch": 74,
                "velocity": 51,
                "duration": 0.20454545454545325,
                "tempo": 120.0
            },
            {
                "start_time": 35.611363636363635,
                "end_time": 35.81590909090909,
                "pitch": 76,
                "velocity": 51,
                "duration": 0.20454545454545325,
                "tempo": 120.0
            },
            {
                "start_time": 35.81590909090909,
                "end_time": 36.01363636363636,
                "pitch": 76,
                "velocity": 51,
                "duration": 0.19772727272727053,
                "tempo": 120.0
            },
            {
                "start_time": 32.79545454545455,
                "end_time": 36.01363636363636,
                "pitch": 90,
                "velocity": 51,
                "duration": 3.2181818181818116,
                "tempo": 120.0
            },
            {
                "start_time": 36.01363636363636,
                "end_time": 36.20909090909091,
                "pitch": 79,
                "velocity": 51,
                "duration": 0.19545454545455243,
                "tempo": 120.0
            },
            {
                "start_time": 35.20909090909091,
                "end_time": 36.40909090909091,
                "pitch": 0,
                "velocity": 51,
                "duration": 1.1999999999999957,
                "tempo": 120.0
            },
            {
                "start_time": 35.611363636363635,
                "end_time": 36.60909090909091,
                "pitch": 74,
                "velocity": 51,
                "duration": 0.9977272727272748,
                "tempo": 120.0
            },
            {
                "start_time": 36.40909090909091,
                "end_time": 36.60909090909091,
                "pitch": 74,
                "velocity": 51,
                "duration": 0.20000000000000284,
                "tempo": 120.0
            },
            {
                "start_time": 36.60909090909091,
                "end_time": 36.81590909090909,
                "pitch": 76,
                "velocity": 51,
                "duration": 0.20681818181817846,
                "tempo": 120.0
            },
            {
                "start_time": 33.59772727272727,
                "end_time": 36.918181818181814,
                "pitch": 72,
                "velocity": 51,
                "duration": 3.3204545454545453,
                "tempo": 120.0
            },
            {
                "start_time": 36.81590909090909,
                "end_time": 36.918181818181814,
                "pitch": 72,
                "velocity": 51,
                "duration": 0.10227272727272663,
                "tempo": 120.0
            },
            {
                "start_time": 36.60909090909091,
                "end_time": 37.02045454545454,
                "pitch": 74,
                "velocity": 51,
                "duration": 0.4113636363636317,
                "tempo": 120.0
            },
            {
                "start_time": 36.918181818181814,
                "end_time": 37.02045454545454,
                "pitch": 74,
                "velocity": 51,
                "duration": 0.10227272727272663,
                "tempo": 120.0
            },
            {
                "start_time": 36.918181818181814,
                "end_time": 38.22272727272727,
                "pitch": 72,
                "velocity": 51,
                "duration": 1.3045454545454547,
                "tempo": 120.0
            },
            {
                "start_time": 37.02045454545454,
                "end_time": 38.22272727272727,
                "pitch": 72,
                "velocity": 51,
                "duration": 1.202272727272728,
                "tempo": 120.0
            },
            {
                "start_time": 36.81590909090909,
                "end_time": 38.525,
                "pitch": 76,
                "velocity": 51,
                "duration": 1.7090909090909108,
                "tempo": 120.0
            },
            {
                "start_time": 38.425,
                "end_time": 38.525,
                "pitch": 76,
                "velocity": 51,
                "duration": 0.10000000000000142,
                "tempo": 120.0
            },
            {
                "start_time": 37.02045454545454,
                "end_time": 38.625,
                "pitch": 74,
                "velocity": 51,
                "duration": 1.604545454545459,
                "tempo": 120.0
            },
            {
                "start_time": 38.525,
                "end_time": 38.625,
                "pitch": 74,
                "velocity": 51,
                "duration": 0.10000000000000142,
                "tempo": 120.0
            },
            {
                "start_time": 38.425,
                "end_time": 40.22727272727273,
                "pitch": 72,
                "velocity": 51,
                "duration": 1.8022727272727295,
                "tempo": 120.0
            },
            {
                "start_time": 38.627272727272725,
                "end_time": 40.22727272727273,
                "pitch": 72,
                "velocity": 51,
                "duration": 1.6000000000000014,
                "tempo": 120.0
            },
            {
                "start_time": 22.545454545454543,
                "end_time": 40.434090909090905,
                "pitch": 60,
                "velocity": 51,
                "duration": 17.888636363636362,
                "tempo": 120.0
            },
            {
                "start_time": 40.434090909090905,
                "end_time": 40.63863636363636,
                "pitch": 64,
                "velocity": 51,
                "duration": 0.20454545454545325,
                "tempo": 120.0
            },
            {
                "start_time": 40.63863636363636,
                "end_time": 40.836363636363636,
                "pitch": 64,
                "velocity": 51,
                "duration": 0.19772727272727764,
                "tempo": 120.0
            },
            {
                "start_time": 40.836363636363636,
                "end_time": 41.03181818181818,
                "pitch": 65,
                "velocity": 51,
                "duration": 0.19545454545454533,
                "tempo": 120.0
            },
            {
                "start_time": 41.03181818181818,
                "end_time": 41.23181818181818,
                "pitch": 64,
                "velocity": 51,
                "duration": 0.19999999999999574,
                "tempo": 120.0
            },
            {
                "start_time": 41.43181818181818,
                "end_time": 42.05,
                "pitch": 65,
                "velocity": 51,
                "duration": 0.6181818181818173,
                "tempo": 120.0
            },
            {
                "start_time": 42.05,
                "end_time": 42.25454545454545,
                "pitch": 64,
                "velocity": 51,
                "duration": 0.20454545454545325,
                "tempo": 120.0
            },
            {
                "start_time": 42.25454545454545,
                "end_time": 42.45227272727273,
                "pitch": 64,
                "velocity": 51,
                "duration": 0.19772727272727764,
                "tempo": 120.0
            },
            {
                "start_time": 42.45227272727273,
                "end_time": 42.64772727272727,
                "pitch": 65,
                "velocity": 51,
                "duration": 0.19545454545454533,
                "tempo": 120.0
            },
            {
                "start_time": 42.64772727272727,
                "end_time": 42.84772727272727,
                "pitch": 67,
                "velocity": 51,
                "duration": 0.19999999999999574,
                "tempo": 120.0
            },
            {
                "start_time": 36.40909090909091,
                "end_time": 43.04772727272727,
                "pitch": 0,
                "velocity": 51,
                "duration": 6.6386363636363654,
                "tempo": 120.0
            },
            {
                "start_time": 43.04772727272727,
                "end_time": 43.65,
                "pitch": 64,
                "velocity": 51,
                "duration": 0.6022727272727266,
                "tempo": 120.0
            },
            {
                "start_time": 43.652272727272724,
                "end_time": 43.85227272727273,
                "pitch": 64,
                "velocity": 51,
                "duration": 0.20000000000000284,
                "tempo": 120.0
            },
            {
                "start_time": 43.85227272727273,
                "end_time": 44.05227272727272,
                "pitch": 64,
                "velocity": 51,
                "duration": 0.19999999999999574,
                "tempo": 120.0
            },
            {
                "start_time": 44.05227272727272,
                "end_time": 44.252272727272725,
                "pitch": 65,
                "velocity": 51,
                "duration": 0.20000000000000284,
                "tempo": 120.0
            },
            {
                "start_time": 42.64772727272727,
                "end_time": 44.252272727272725,
                "pitch": 77,
                "velocity": 51,
                "duration": 1.6045454545454518,
                "tempo": 120.0
            },
            {
                "start_time": 24.552272727272726,
                "end_time": 44.45454545454545,
                "pitch": 69,
                "velocity": 51,
                "duration": 19.902272727272727,
                "tempo": 120.0
            },
            {
                "start_time": 44.252272727272725,
                "end_time": 44.45454545454545,
                "pitch": 69,
                "velocity": 51,
                "duration": 0.20227272727272805,
                "tempo": 120.0
            },
            {
                "start_time": 18.720454545454544,
                "end_time": 44.65454545454545,
                "pitch": 30,
                "velocity": 51,
                "duration": 25.934090909090905,
                "tempo": 120.0
            },
            {
                "start_time": 44.65454545454545,
                "end_time": 44.85454545454545,
                "pitch": 64,
                "velocity": 51,
                "duration": 0.20000000000000284,
                "tempo": 120.0
            },
            {
                "start_time": 40.434090909090905,
                "end_time": 45.054545454545455,
                "pitch": 60,
                "velocity": 51,
                "duration": 4.62045454545455,
                "tempo": 120.0
            },
            {
                "start_time": 44.85454545454545,
                "end_time": 45.054545454545455,
                "pitch": 60,
                "velocity": 51,
                "duration": 0.20000000000000284,
                "tempo": 120.0
            },
            {
                "start_time": 23.75,
                "end_time": 45.25454545454545,
                "pitch": 62,
                "velocity": 51,
                "duration": 21.50454545454545,
                "tempo": 120.0
            },
            {
                "start_time": 45.054545454545455,
                "end_time": 45.25454545454545,
                "pitch": 62,
                "velocity": 51,
                "duration": 0.19999999999999574,
                "tempo": 120.0
            },
            {
                "start_time": 44.85454545454545,
                "end_time": 45.85909090909091,
                "pitch": 64,
                "velocity": 51,
                "duration": 1.0045454545454575,
                "tempo": 120.0
            },
            {
                "start_time": 45.25454545454545,
                "end_time": 45.85909090909091,
                "pitch": 64,
                "velocity": 51,
                "duration": 0.6045454545454589,
                "tempo": 120.0
            },
            {
                "start_time": 45.25454545454545,
                "end_time": 45.95681818181818,
                "pitch": 62,
                "velocity": 51,
                "duration": 0.702272727272728,
                "tempo": 120.0
            },
            {
                "start_time": 45.85909090909091,
                "end_time": 45.95681818181818,
                "pitch": 62,
                "velocity": 51,
                "duration": 0.09772727272726911,
                "tempo": 120.0
            },
            {
                "start_time": 45.85909090909091,
                "end_time": 46.05681818181818,
                "pitch": 64,
                "velocity": 51,
                "duration": 0.19772727272727053,
                "tempo": 120.0
            },
            {
                "start_time": 45.95681818181818,
                "end_time": 46.05681818181818,
                "pitch": 64,
                "velocity": 51,
                "duration": 0.10000000000000142,
                "tempo": 120.0
            },
            {
                "start_time": 45.95681818181818,
                "end_time": 46.459090909090904,
                "pitch": 62,
                "velocity": 51,
                "duration": 0.5022727272727252,
                "tempo": 120.0
            },
            {
                "start_time": 46.059090909090905,
                "end_time": 46.459090909090904,
                "pitch": 62,
                "velocity": 51,
                "duration": 0.3999999999999986,
                "tempo": 120.0
            },
            {
                "start_time": 45.054545454545455,
                "end_time": 46.65909090909091,
                "pitch": 60,
                "velocity": 51,
                "duration": 1.6045454545454518,
                "tempo": 120.0
            },
            {
                "start_time": 46.459090909090904,
                "end_time": 46.65909090909091,
                "pitch": 60,
                "velocity": 51,
                "duration": 0.20000000000000284,
                "tempo": 120.0
            },
            {
                "start_time": 46.459090909090904,
                "end_time": 46.86363636363636,
                "pitch": 62,
                "velocity": 51,
                "duration": 0.4045454545454561,
                "tempo": 120.0
            },
            {
                "start_time": 46.65909090909091,
                "end_time": 46.86363636363636,
                "pitch": 62,
                "velocity": 51,
                "duration": 0.20454545454545325,
                "tempo": 120.0
            },
            {
                "start_time": 46.65909090909091,
                "end_time": 47.663636363636364,
                "pitch": 60,
                "velocity": 51,
                "duration": 1.0045454545454575,
                "tempo": 120.0
            },
            {
                "start_time": 46.86363636363636,
                "end_time": 47.663636363636364,
                "pitch": 60,
                "velocity": 51,
                "duration": 0.8000000000000043,
                "tempo": 120.0
            },
            {
                "start_time": 46.059090909090905,
                "end_time": 47.86590909090909,
                "pitch": 64,
                "velocity": 51,
                "duration": 1.806818181818187,
                "tempo": 120.0
            },
            {
                "start_time": 22.143181818181816,
                "end_time": 48.07272727272727,
                "pitch": 57,
                "velocity": 51,
                "duration": 25.929545454545455,
                "tempo": 120.0
            },
            {
                "start_time": 47.86590909090909,
                "end_time": 48.07272727272727,
                "pitch": 57,
                "velocity": 51,
                "duration": 0.20681818181817846,
                "tempo": 120.0
            },
            {
                "start_time": 22.345454545454544,
                "end_time": 48.277272727272724,
                "pitch": 43,
                "velocity": 51,
                "duration": 25.93181818181818,
                "tempo": 120.0
            },
            {
                "start_time": 48.07272727272727,
                "end_time": 48.277272727272724,
                "pitch": 59,
                "velocity": 51,
                "duration": 0.20454545454545325,
                "tempo": 120.0
            },
            {
                "start_time": 48.277272727272724,
                "end_time": 48.47272727272727,
                "pitch": 60,
                "velocity": 51,
                "duration": 0.19545454545454533,
                "tempo": 120.0
            },
            {
                "start_time": 46.86363636363636,
                "end_time": 48.87045454545454,
                "pitch": 62,
                "velocity": 51,
                "duration": 2.0068181818181827,
                "tempo": 120.0
            },
            {
                "start_time": 48.47272727272727,
                "end_time": 48.87045454545454,
                "pitch": 62,
                "velocity": 51,
                "duration": 0.3977272727272734,
                "tempo": 120.0
            },
            {
                "start_time": 47.86590909090909,
                "end_time": 49.070454545454545,
                "pitch": 64,
                "velocity": 51,
                "duration": 1.2045454545454533,
                "tempo": 120.0
            },
            {
                "start_time": 48.87045454545454,
                "end_time": 49.070454545454545,
                "pitch": 64,
                "velocity": 51,
                "duration": 0.20000000000000284,
                "tempo": 120.0
            },
            {
                "start_time": 48.87045454545454,
                "end_time": 49.27045454545454,
                "pitch": 62,
                "velocity": 51,
                "duration": 0.3999999999999986,
                "tempo": 120.0
            },
            {
                "start_time": 49.070454545454545,
                "end_time": 49.27045454545454,
                "pitch": 62,
                "velocity": 51,
                "duration": 0.19999999999999574,
                "tempo": 120.0
            },
            {
                "start_time": 49.47272727272727,
                "end_time": 49.67727272727272,
                "pitch": 62,
                "velocity": 51,
                "duration": 0.20454545454545325,
                "tempo": 120.0
            },
            {
                "start_time": 49.070454545454545,
                "end_time": 49.88181818181818,
                "pitch": 64,
                "velocity": 51,
                "duration": 0.8113636363636374,
                "tempo": 120.0
            },
            {
                "start_time": 49.67727272727272,
                "end_time": 49.88181818181818,
                "pitch": 64,
                "velocity": 51,
                "duration": 0.20454545454546036,
                "tempo": 120.0
            },
            {
                "start_time": 49.88181818181818,
                "end_time": 50.08181818181818,
                "pitch": 64,
                "velocity": 51,
                "duration": 0.19999999999999574,
                "tempo": 120.0
            },
            {
                "start_time": 24.152272727272727,
                "end_time": 50.084090909090904,
                "pitch": 78,
                "velocity": 51,
                "duration": 25.931818181818176,
                "tempo": 120.0
            },
            {
                "start_time": 50.08181818181818,
                "end_time": 50.084090909090904,
                "pitch": 78,
                "velocity": 51,
                "duration": 0.0022727272727252057,
                "tempo": 120.0
            },
            {
                "start_time": 50.084090909090904,
                "end_time": 50.48409090909091,
                "pitch": 69,
                "velocity": 51,
                "duration": 0.4000000000000057,
                "tempo": 120.0
            },
            {
                "start_time": 27.777272727272727,
                "end_time": 50.88409090909091,
                "pitch": 55,
                "velocity": 51,
                "duration": 23.10681818181818,
                "tempo": 120.0
            },
            {
                "start_time": 28.779545454545453,
                "end_time": 50.88409090909091,
                "pitch": 71,
                "velocity": 51,
                "duration": 22.104545454545455,
                "tempo": 120.0
            },
            {
                "start_time": 50.48409090909091,
                "end_time": 50.88409090909091,
                "pitch": 71,
                "velocity": 51,
                "duration": 0.3999999999999986,
                "tempo": 120.0
            },
            {
                "start_time": 50.88409090909091,
                "end_time": 51.084090909090904,
                "pitch": 72,
                "velocity": 51,
                "duration": 0.19999999999999574,
                "tempo": 120.0
            },
            {
                "start_time": 38.627272727272725,
                "end_time": 51.28636363636363,
                "pitch": 74,
                "velocity": 51,
                "duration": 12.659090909090907,
                "tempo": 120.0
            },
            {
                "start_time": 51.084090909090904,
                "end_time": 51.28636363636363,
                "pitch": 74,
                "velocity": 51,
                "duration": 0.20227272727272805,
                "tempo": 120.0
            },
            {
                "start_time": 44.252272727272725,
                "end_time": 51.486363636363635,
                "pitch": 77,
                "velocity": 51,
                "duration": 7.234090909090909,
                "tempo": 120.0
            },
            {
                "start_time": 51.486363636363635,
                "end_time": 51.88863636363636,
                "pitch": 71,
                "velocity": 51,
                "duration": 0.4022727272727238,
                "tempo": 120.0
            },
            {
                "start_time": 50.88409090909091,
                "end_time": 52.08863636363636,
                "pitch": 55,
                "velocity": 51,
                "duration": 1.2045454545454533,
                "tempo": 120.0
            },
            {
                "start_time": 51.88863636363636,
                "end_time": 52.08863636363636,
                "pitch": 71,
                "velocity": 51,
                "duration": 0.20000000000000284,
                "tempo": 120.0
            },
            {
                "start_time": 51.084090909090904,
                "end_time": 52.288636363636364,
                "pitch": 72,
                "velocity": 51,
                "duration": 1.2045454545454604,
                "tempo": 120.0
            },
            {
                "start_time": 52.08863636363636,
                "end_time": 52.288636363636364,
                "pitch": 72,
                "velocity": 51,
                "duration": 0.20000000000000284,
                "tempo": 120.0
            },
            {
                "start_time": 52.288636363636364,
                "end_time": 52.48863636363636,
                "pitch": 74,
                "velocity": 51,
                "duration": 0.19999999999999574,
                "tempo": 120.0
            },
            {
                "start_time": 52.68863636363636,
                "end_time": 52.88863636363636,
                "pitch": 74,
                "velocity": 51,
                "duration": 0.19999999999999574,
                "tempo": 120.0
            },
            {
                "start_time": 38.525,
                "end_time": 53.090909090909086,
                "pitch": 76,
                "velocity": 51,
                "duration": 14.565909090909088,
                "tempo": 120.0
            },
            {
                "start_time": 52.89090909090909,
                "end_time": 53.090909090909086,
                "pitch": 76,
                "velocity": 51,
                "duration": 0.19999999999999574,
                "tempo": 120.0
            },
            {
                "start_time": 52.89090909090909,
                "end_time": 53.29090909090909,
                "pitch": 74,
                "velocity": 51,
                "duration": 0.3999999999999986,
                "tempo": 120.0
            },
            {
                "start_time": 53.090909090909086,
                "end_time": 53.29090909090909,
                "pitch": 74,
                "velocity": 51,
                "duration": 0.20000000000000284,
                "tempo": 120.0
            },
            {
                "start_time": 52.288636363636364,
                "end_time": 53.49318181818182,
                "pitch": 72,
                "velocity": 51,
                "duration": 1.2045454545454533,
                "tempo": 120.0
            },
            {
                "start_time": 53.29090909090909,
                "end_time": 53.49318181818182,
                "pitch": 72,
                "velocity": 51,
                "duration": 0.20227272727272805,
                "tempo": 120.0
            },
            {
                "start_time": 53.090909090909086,
                "end_time": 53.49318181818182,
                "pitch": 76,
                "velocity": 51,
                "duration": 0.4022727272727309,
                "tempo": 120.0
            },
            {
                "start_time": 52.08863636363636,
                "end_time": 53.69318181818181,
                "pitch": 55,
                "velocity": 51,
                "duration": 1.6045454545454518,
                "tempo": 120.0
            },
            {
                "start_time": 53.49318181818182,
                "end_time": 53.69318181818181,
                "pitch": 71,
                "velocity": 51,
                "duration": 0.19999999999999574,
                "tempo": 120.0
            },
            {
                "start_time": 53.29090909090909,
                "end_time": 53.893181818181816,
                "pitch": 74,
                "velocity": 51,
                "duration": 0.6022727272727266,
                "tempo": 120.0
            },
            {
                "start_time": 53.69318181818181,
                "end_time": 53.893181818181816,
                "pitch": 74,
                "velocity": 51,
                "duration": 0.20000000000000284,
                "tempo": 120.0
            },
            {
                "start_time": 53.893181818181816,
                "end_time": 54.09318181818182,
                "pitch": 72,
                "velocity": 51,
                "duration": 0.20000000000000284,
                "tempo": 120.0
            },
            {
                "start_time": 53.49318181818182,
                "end_time": 54.293181818181814,
                "pitch": 76,
                "velocity": 51,
                "duration": 0.7999999999999972,
                "tempo": 120.0
            },
            {
                "start_time": 54.293181818181814,
                "end_time": 54.695454545454545,
                "pitch": 71,
                "velocity": 51,
                "duration": 0.4022727272727309,
                "tempo": 120.0
            },
            {
                "start_time": 43.04772727272727,
                "end_time": 54.9,
                "pitch": 0,
                "velocity": 51,
                "duration": 11.852272727272727,
                "tempo": 120.0
            },
            {
                "start_time": 54.695454545454545,
                "end_time": 54.9,
                "pitch": 67,
                "velocity": 51,
                "duration": 0.20454545454545325,
                "tempo": 120.0
            },
            {
                "start_time": 54.9,
                "end_time": 55.10681818181818,
                "pitch": 72,
                "velocity": 51,
                "duration": 0.20681818181817846,
                "tempo": 120.0
            },
            {
                "start_time": 54.293181818181814,
                "end_time": 55.10681818181818,
                "pitch": 76,
                "velocity": 51,
                "duration": 0.8136363636363626,
                "tempo": 120.0
            },
            {
                "start_time": 29.384090909090908,
                "end_time": 55.30227272727272,
                "pitch": 50,
                "velocity": 51,
                "duration": 25.918181818181814,
                "tempo": 120.0
            },
            {
                "start_time": 55.10681818181818,
                "end_time": 55.30227272727272,
                "pitch": 70,
                "velocity": 51,
                "duration": 0.19545454545454533,
                "tempo": 120.0
            },
            {
                "start_time": 53.893181818181816,
                "end_time": 55.49772727272727,
                "pitch": 74,
                "velocity": 51,
                "duration": 1.6045454545454518,
                "tempo": 120.0
            },
            {
                "start_time": 55.30227272727272,
                "end_time": 55.49772727272727,
                "pitch": 74,
                "velocity": 51,
                "duration": 0.19545454545454533,
                "tempo": 120.0
            },
            {
                "start_time": 55.49772727272727,
                "end_time": 55.699999999999996,
                "pitch": 72,
                "velocity": 51,
                "duration": 0.20227272727272805,
                "tempo": 120.0
            },
            {
                "start_time": 55.49772727272727,
                "end_time": 56.51136363636363,
                "pitch": 74,
                "velocity": 51,
                "duration": 1.0136363636363654,
                "tempo": 120.0
            },
            {
                "start_time": 55.9,
                "end_time": 56.51136363636363,
                "pitch": 74,
                "velocity": 51,
                "duration": 0.6113636363636346,
                "tempo": 120.0
            },
            {
                "start_time": 55.10681818181818,
                "end_time": 56.71363636363636,
                "pitch": 76,
                "velocity": 51,
                "duration": 1.6068181818181841,
                "tempo": 120.0
            },
            {
                "start_time": 56.51363636363636,
                "end_time": 56.71363636363636,
                "pitch": 76,
                "velocity": 51,
                "duration": 0.20000000000000284,
                "tempo": 120.0
            },
            {
                "start_time": 56.51363636363636,
                "end_time": 56.91136363636363,
                "pitch": 74,
                "velocity": 51,
                "duration": 0.3977272727272734,
                "tempo": 120.0
            },
            {
                "start_time": 56.71363636363636,
                "end_time": 56.91136363636363,
                "pitch": 74,
                "velocity": 51,
                "duration": 0.19772727272727053,
                "tempo": 120.0
            },
            {
                "start_time": 34.40681818181818,
                "end_time": 56.91136363636363,
                "pitch": 89,
                "velocity": 51,
                "duration": 22.50454545454545,
                "tempo": 120.0
            },
            {
                "start_time": 56.91136363636363,
                "end_time": 57.10681818181818,
                "pitch": 81,
                "velocity": 51,
                "duration": 0.19545454545454533,
                "tempo": 120.0
            },
            {
                "start_time": 57.10681818181818,
                "end_time": 57.31136363636363,
                "pitch": 81,
                "velocity": 51,
                "duration": 0.20454545454545325,
                "tempo": 120.0
            },
            {
                "start_time": 54.9,
                "end_time": 57.518181818181816,
                "pitch": 0,
                "velocity": 51,
                "duration": 2.6181818181818173,
                "tempo": 120.0
            },
            {
                "start_time": 51.486363636363635,
                "end_time": 57.91136363636363,
                "pitch": 77,
                "velocity": 51,
                "duration": 6.424999999999997,
                "tempo": 120.0
            },
            {
                "start_time": 57.518181818181816,
                "end_time": 57.91136363636363,
                "pitch": 77,
                "velocity": 51,
                "duration": 0.39318181818181586,
                "tempo": 120.0
            },
            {
                "start_time": 36.01363636363636,
                "end_time": 57.91136363636363,
                "pitch": 90,
                "velocity": 51,
                "duration": 21.897727272727273,
                "tempo": 120.0
            },
            {
                "start_time": 57.518181818181816,
                "end_time": 58.115909090909085,
                "pitch": 0,
                "velocity": 51,
                "duration": 0.5977272727272691,
                "tempo": 120.0
            },
            {
                "start_time": 57.91136363636363,
                "end_time": 58.115909090909085,
                "pitch": 79,
                "velocity": 51,
                "duration": 0.20454545454545325,
                "tempo": 120.0
            },
            {
                "start_time": 58.115909090909085,
                "end_time": 58.71363636363636,
                "pitch": 77,
                "velocity": 51,
                "duration": 0.5977272727272762,
                "tempo": 120.0
            },
            {
                "start_time": 57.91136363636363,
                "end_time": 58.71363636363636,
                "pitch": 90,
                "velocity": 51,
                "duration": 0.8022727272727295,
                "tempo": 120.0
            },
            {
                "start_time": 58.115909090909085,
                "end_time": 58.81590909090909,
                "pitch": 0,
                "velocity": 51,
                "duration": 0.7000000000000028,
                "tempo": 120.0
            },
            {
                "start_time": 58.71363636363636,
                "end_time": 58.81590909090909,
                "pitch": 79,
                "velocity": 51,
                "duration": 0.10227272727272663,
                "tempo": 120.0
            },
            {
                "start_time": 58.81590909090909,
                "end_time": 58.918181818181814,
                "pitch": 77,
                "velocity": 51,
                "duration": 0.10227272727272663,
                "tempo": 120.0
            },
            {
                "start_time": 56.71363636363636,
                "end_time": 59.324999999999996,
                "pitch": 76,
                "velocity": 51,
                "duration": 2.6113636363636346,
                "tempo": 120.0
            },
            {
                "start_time": 58.918181818181814,
                "end_time": 59.324999999999996,
                "pitch": 77,
                "velocity": 51,
                "duration": 0.4068181818181813,
                "tempo": 120.0
            },
            {
                "start_time": 55.9,
                "end_time": 59.525,
                "pitch": 72,
                "velocity": 51,
                "duration": 3.625,
                "tempo": 120.0
            },
            {
                "start_time": 59.324999999999996,
                "end_time": 59.525,
                "pitch": 72,
                "velocity": 51,
                "duration": 0.20000000000000284,
                "tempo": 120.0
            },
            {
                "start_time": 59.525,
                "end_time": 59.527272727272724,
                "pitch": 72,
                "velocity": 51,
                "duration": 0.0022727272727252057,
                "tempo": 120.0
            },
            {
                "start_time": 59.527272727272724,
                "end_time": 59.72727272727273,
                "pitch": 74,
                "velocity": 51,
                "duration": 0.20000000000000284,
                "tempo": 120.0
            },
            {
                "start_time": 59.324999999999996,
                "end_time": 59.92727272727272,
                "pitch": 76,
                "velocity": 51,
                "duration": 0.6022727272727266,
                "tempo": 120.0
            },
            {
                "start_time": 59.72727272727273,
                "end_time": 59.92727272727272,
                "pitch": 76,
                "velocity": 51,
                "duration": 0.19999999999999574,
                "tempo": 120.0
            },
            {
                "start_time": 59.92727272727272,
                "end_time": 60.127272727272725,
                "pitch": 76,
                "velocity": 51,
                "duration": 0.20000000000000284,
                "tempo": 120.0
            },
            {
                "start_time": 60.127272727272725,
                "end_time": 60.32727272727272,
                "pitch": 77,
                "velocity": 51,
                "duration": 0.19999999999999574,
                "tempo": 120.0
            },
            {
                "start_time": 56.91136363636363,
                "end_time": 60.32727272727272,
                "pitch": 89,
                "velocity": 51,
                "duration": 3.4159090909090892,
                "tempo": 120.0
            },
            {
                "start_time": 60.32727272727272,
                "end_time": 60.52954545454545,
                "pitch": 81,
                "velocity": 51,
                "duration": 0.20227272727272805,
                "tempo": 120.0
            },
            {
                "start_time": 60.72954545454545,
                "end_time": 61.11363636363636,
                "pitch": 81,
                "velocity": 51,
                "duration": 0.38409090909090793,
                "tempo": 120.0
            },
            {
                "start_time": 58.81590909090909,
                "end_time": 61.131818181818176,
                "pitch": 0,
                "velocity": 51,
                "duration": 2.315909090909088,
                "tempo": 120.0
            },
            {
                "start_time": 61.131818181818176,
                "end_time": 61.336363636363636,
                "pitch": 77,
                "velocity": 51,
                "duration": 0.20454545454546036,
                "tempo": 120.0
            },
            {
                "start_time": 59.72727272727273,
                "end_time": 61.54090909090909,
                "pitch": 74,
                "velocity": 51,
                "duration": 1.8136363636363626,
                "tempo": 120.0
            },
            {
                "start_time": 61.336363636363636,
                "end_time": 61.54090909090909,
                "pitch": 74,
                "velocity": 51,
                "duration": 0.20454545454545325,
                "tempo": 120.0
            },
            {
                "start_time": 61.543181818181814,
                "end_time": 61.73863636363636,
                "pitch": 76,
                "velocity": 51,
                "duration": 0.19545454545454533,
                "tempo": 120.0
            },
            {
                "start_time": 61.73863636363636,
                "end_time": 61.934090909090905,
                "pitch": 76,
                "velocity": 51,
                "duration": 0.19545454545454533,
                "tempo": 120.0
            },
            {
                "start_time": 58.71363636363636,
                "end_time": 61.934090909090905,
                "pitch": 90,
                "velocity": 51,
                "duration": 3.220454545454544,
                "tempo": 120.0
            },
            {
                "start_time": 61.934090909090905,
                "end_time": 62.13409090909091,
                "pitch": 79,
                "velocity": 51,
                "duration": 0.20000000000000284,
                "tempo": 120.0
            },
            {
                "start_time": 61.131818181818176,
                "end_time": 62.336363636363636,
                "pitch": 0,
                "velocity": 51,
                "duration": 1.2045454545454604,
                "tempo": 120.0
            },
            {
                "start_time": 61.543181818181814,
                "end_time": 62.54090909090909,
                "pitch": 74,
                "velocity": 51,
                "duration": 0.9977272727272748,
                "tempo": 120.0
            },
            {
                "start_time": 62.336363636363636,
                "end_time": 62.54090909090909,
                "pitch": 74,
                "velocity": 51,
                "duration": 0.20454545454545325,
                "tempo": 120.0
            },
            {
                "start_time": 62.54090909090909,
                "end_time": 62.74545454545454,
                "pitch": 76,
                "velocity": 51,
                "duration": 0.20454545454545325,
                "tempo": 120.0
            },
            {
                "start_time": 62.74772727272727,
                "end_time": 62.84318181818181,
                "pitch": 72,
                "velocity": 51,
                "duration": 0.0954545454545439,
                "tempo": 120.0
            },
            {
                "start_time": 62.54090909090909,
                "end_time": 62.94318181818181,
                "pitch": 74,
                "velocity": 51,
                "duration": 0.4022727272727238,
                "tempo": 120.0
            },
            {
                "start_time": 62.84318181818181,
                "end_time": 62.94318181818181,
                "pitch": 74,
                "velocity": 51,
                "duration": 0.10000000000000142,
                "tempo": 120.0
            },
            {
                "start_time": 62.84318181818181,
                "end_time": 64.14090909090909,
                "pitch": 72,
                "velocity": 51,
                "duration": 1.297727272727279,
                "tempo": 120.0
            },
            {
                "start_time": 62.94318181818181,
                "end_time": 64.14090909090909,
                "pitch": 72,
                "velocity": 51,
                "duration": 1.1977272727272776,
                "tempo": 120.0
            },
            {
                "start_time": 62.74772727272727,
                "end_time": 64.44090909090909,
                "pitch": 76,
                "velocity": 51,
                "duration": 1.6931818181818201,
                "tempo": 120.0
            },
            {
                "start_time": 64.3409090909091,
                "end_time": 64.44090909090909,
                "pitch": 76,
                "velocity": 51,
                "duration": 0.09999999999999432,
                "tempo": 120.0
            },
            {
                "start_time": 62.94318181818181,
                "end_time": 64.54090909090908,
                "pitch": 74,
                "velocity": 51,
                "duration": 1.597727272727269,
                "tempo": 120.0
            },
            {
                "start_time": 64.44090909090909,
                "end_time": 64.54090909090908,
                "pitch": 74,
                "velocity": 51,
                "duration": 0.09999999999999432,
                "tempo": 120.0
            },
            {
                "start_time": 64.3409090909091,
                "end_time": 65.9590909090909,
                "pitch": 72,
                "velocity": 51,
                "duration": 1.6181818181818102,
                "tempo": 120.0
            },
            {
                "start_time": 64.54318181818182,
                "end_time": 65.9590909090909,
                "pitch": 72,
                "velocity": 51,
                "duration": 1.4159090909090821,
                "tempo": 120.0
            },
            {
                "start_time": 62.336363636363636,
                "end_time": 107.82954545454545,
                "pitch": 0,
                "velocity": 51,
                "duration": 45.49318181818182,
                "tempo": 120.0
            },
            {
                "start_time": 107.82954545454545,
                "end_time": 107.92727272727272,
                "pitch": 72,
                "velocity": 80,
                "duration": 0.09772727272726911,
                "tempo": 120.0
            },
            {
                "start_time": 108.02954545454546,
                "end_time": 108.12954545454545,
                "pitch": 72,
                "velocity": 80,
                "duration": 0.09999999999999432,
                "tempo": 120.0
            },
            {
                "start_time": 64.54318181818182,
                "end_time": 108.22954545454544,
                "pitch": 74,
                "velocity": 51,
                "duration": 43.68636363636362,
                "tempo": 120.0
            },
            {
                "start_time": 108.12954545454545,
                "end_time": 108.22954545454544,
                "pitch": 74,
                "velocity": 80,
                "duration": 0.09999999999999432,
                "tempo": 120.0
            },
            {
                "start_time": 64.44090909090909,
                "end_time": 108.83863636363635,
                "pitch": 76,
                "velocity": 51,
                "duration": 44.397727272727266,
                "tempo": 120.0
            },
            {
                "start_time": 108.22954545454544,
                "end_time": 108.83863636363635,
                "pitch": 76,
                "velocity": 80,
                "duration": 0.6090909090909093,
                "tempo": 120.0
            },
            {
                "start_time": 108.83863636363635,
                "end_time": 109.04318181818181,
                "pitch": 76,
                "velocity": 80,
                "duration": 0.20454545454545325,
                "tempo": 120.0
            },
            {
                "start_time": 108.22954545454544,
                "end_time": 109.24545454545454,
                "pitch": 74,
                "velocity": 80,
                "duration": 1.0159090909090907,
                "tempo": 120.0
            },
            {
                "start_time": 109.04318181818181,
                "end_time": 109.24545454545454,
                "pitch": 74,
                "velocity": 80,
                "duration": 0.20227272727272805,
                "tempo": 120.0
            },
            {
                "start_time": 109.04318181818181,
                "end_time": 109.34545454545454,
                "pitch": 76,
                "velocity": 80,
                "duration": 0.3022727272727366,
                "tempo": 120.0
            },
            {
                "start_time": 109.24545454545454,
                "end_time": 109.34545454545454,
                "pitch": 76,
                "velocity": 80,
                "duration": 0.10000000000000853,
                "tempo": 120.0
            },
            {
                "start_time": 109.44772727272726,
                "end_time": 109.54772727272727,
                "pitch": 76,
                "velocity": 80,
                "duration": 0.10000000000000853,
                "tempo": 120.0
            },
            {
                "start_time": 61.336363636363636,
                "end_time": 109.84772727272727,
                "pitch": 77,
                "velocity": 51,
                "duration": 48.51136363636363,
                "tempo": 120.0
            },
            {
                "start_time": 109.64772727272727,
                "end_time": 109.84772727272727,
                "pitch": 77,
                "velocity": 80,
                "duration": 0.20000000000000284,
                "tempo": 120.0
            },
            {
                "start_time": 109.84772727272727,
                "end_time": 109.94999999999999,
                "pitch": 77,
                "velocity": 80,
                "duration": 0.10227272727271952,
                "tempo": 120.0
            },
            {
                "start_time": 110.05227272727272,
                "end_time": 110.15454545454546,
                "pitch": 76,
                "velocity": 80,
                "duration": 0.10227272727273373,
                "tempo": 120.0
            },
            {
                "start_time": 109.24545454545454,
                "end_time": 110.55227272727272,
                "pitch": 74,
                "velocity": 80,
                "duration": 1.306818181818187,
                "tempo": 120.0
            },
            {
                "start_time": 110.45681818181818,
                "end_time": 110.55227272727272,
                "pitch": 74,
                "velocity": 80,
                "duration": 0.0954545454545439,
                "tempo": 120.0
            },
            {
                "start_time": 110.55454545454545,
                "end_time": 110.65227272727272,
                "pitch": 74,
                "velocity": 80,
                "duration": 0.09772727272726911,
                "tempo": 120.0
            },
            {
                "start_time": 110.65227272727272,
                "end_time": 110.85681818181817,
                "pitch": 76,
                "velocity": 80,
                "duration": 0.20454545454545325,
                "tempo": 120.0
            },
            {
                "start_time": 110.65227272727272,
                "end_time": 110.9590909090909,
                "pitch": 74,
                "velocity": 80,
                "duration": 0.306818181818187,
                "tempo": 120.0
            },
            {
                "start_time": 110.85681818181817,
                "end_time": 110.9590909090909,
                "pitch": 74,
                "velocity": 80,
                "duration": 0.10227272727273373,
                "tempo": 120.0
            },
            {
                "start_time": 110.85681818181817,
                "end_time": 111.06363636363636,
                "pitch": 76,
                "velocity": 80,
                "duration": 0.20681818181819267,
                "tempo": 120.0
            },
            {
                "start_time": 110.9590909090909,
                "end_time": 111.06363636363636,
                "pitch": 76,
                "velocity": 80,
                "duration": 0.10454545454545894,
                "tempo": 120.0
            },
            {
                "start_time": 108.12954545454545,
                "end_time": 111.16136363636363,
                "pitch": 72,
                "velocity": 80,
                "duration": 3.0318181818181813,
                "tempo": 120.0
            },
            {
                "start_time": 111.06363636363636,
                "end_time": 111.16136363636363,
                "pitch": 72,
                "velocity": 80,
                "duration": 0.09772727272726911,
                "tempo": 120.0
            },
            {
                "start_time": 111.2590909090909,
                "end_time": 111.35681818181817,
                "pitch": 72,
                "velocity": 80,
                "duration": 0.09772727272726911,
                "tempo": 120.0
            },
            {
                "start_time": 110.9590909090909,
                "end_time": 111.45454545454545,
                "pitch": 74,
                "velocity": 80,
                "duration": 0.4954545454545496,
                "tempo": 120.0
            },
            {
                "start_time": 111.35681818181817,
                "end_time": 111.45454545454545,
                "pitch": 74,
                "velocity": 80,
                "duration": 0.09772727272728332,
                "tempo": 120.0
            },
            {
                "start_time": 111.06363636363636,
                "end_time": 112.06136363636364,
                "pitch": 76,
                "velocity": 80,
                "duration": 0.9977272727272748,
                "tempo": 120.0
            },
            {
                "start_time": 111.45681818181818,
                "end_time": 112.06136363636364,
                "pitch": 76,
                "velocity": 80,
                "duration": 0.6045454545454589,
                "tempo": 120.0
            },
            {
                "start_time": 112.06136363636364,
                "end_time": 112.26590909090909,
                "pitch": 76,
                "velocity": 80,
                "duration": 0.20454545454545325,
                "tempo": 120.0
            },
            {
                "start_time": 111.45681818181818,
                "end_time": 112.46818181818182,
                "pitch": 74,
                "velocity": 80,
                "duration": 1.0113636363636402,
                "tempo": 120.0
            },
            {
                "start_time": 112.26590909090909,
                "end_time": 112.46818181818182,
                "pitch": 74,
                "velocity": 80,
                "duration": 0.20227272727272805,
                "tempo": 120.0
            },
            {
                "start_time": 112.26590909090909,
                "end_time": 112.56818181818181,
                "pitch": 76,
                "velocity": 80,
                "duration": 0.30227272727272236,
                "tempo": 120.0
            },
            {
                "start_time": 112.46818181818182,
                "end_time": 112.56818181818181,
                "pitch": 76,
                "velocity": 80,
                "duration": 0.09999999999999432,
                "tempo": 120.0
            },
            {
                "start_time": 112.66818181818181,
                "end_time": 112.76590909090909,
                "pitch": 76,
                "velocity": 80,
                "duration": 0.09772727272728332,
                "tempo": 120.0
            },
            {
                "start_time": 110.45681818181818,
                "end_time": 113.06136363636364,
                "pitch": 77,
                "velocity": 80,
                "duration": 2.604545454545459,
                "tempo": 120.0
            },
            {
                "start_time": 112.86590909090908,
                "end_time": 113.06136363636364,
                "pitch": 77,
                "velocity": 80,
                "duration": 0.19545454545455243,
                "tempo": 120.0
            },
            {
                "start_time": 113.06136363636364,
                "end_time": 113.16136363636363,
                "pitch": 77,
                "velocity": 80,
                "duration": 0.09999999999999432,
                "tempo": 120.0
            },
            {
                "start_time": 113.26136363636363,
                "end_time": 113.36136363636363,
                "pitch": 76,
                "velocity": 80,
                "duration": 0.10000000000000853,
                "tempo": 120.0
            },
            {
                "start_time": 112.46818181818182,
                "end_time": 113.76363636363635,
                "pitch": 74,
                "velocity": 80,
                "duration": 1.2954545454545325,
                "tempo": 120.0
            },
            {
                "start_time": 113.66363636363636,
                "end_time": 113.76363636363635,
                "pitch": 74,
                "velocity": 80,
                "duration": 0.09999999999999432,
                "tempo": 120.0
            },
            {
                "start_time": 113.76363636363635,
                "end_time": 113.86363636363636,
                "pitch": 74,
                "velocity": 80,
                "duration": 0.10000000000000853,
                "tempo": 120.0
            },
            {
                "start_time": 113.86363636363636,
                "end_time": 114.06590909090909,
                "pitch": 76,
                "velocity": 80,
                "duration": 0.20227272727272805,
                "tempo": 120.0
            },
            {
                "start_time": 113.86363636363636,
                "end_time": 114.16590909090908,
                "pitch": 74,
                "velocity": 80,
                "duration": 0.30227272727272236,
                "tempo": 120.0
            },
            {
                "start_time": 114.06590909090909,
                "end_time": 114.16590909090908,
                "pitch": 74,
                "velocity": 80,
                "duration": 0.09999999999999432,
                "tempo": 120.0
            },
            {
                "start_time": 114.06590909090909,
                "end_time": 114.26818181818182,
                "pitch": 76,
                "velocity": 80,
                "duration": 0.20227272727272805,
                "tempo": 120.0
            },
            {
                "start_time": 114.16590909090908,
                "end_time": 114.26818181818182,
                "pitch": 76,
                "velocity": 80,
                "duration": 0.10227272727273373,
                "tempo": 120.0
            },
            {
                "start_time": 111.35681818181817,
                "end_time": 114.36818181818181,
                "pitch": 72,
                "velocity": 80,
                "duration": 3.0113636363636402,
                "tempo": 120.0
            },
            {
                "start_time": 114.26818181818182,
                "end_time": 114.36818181818181,
                "pitch": 72,
                "velocity": 80,
                "duration": 0.09999999999999432,
                "tempo": 120.0
            },
            {
                "start_time": 114.46818181818182,
                "end_time": 114.57045454545454,
                "pitch": 72,
                "velocity": 80,
                "duration": 0.10227272727271952,
                "tempo": 120.0
            },
            {
                "start_time": 114.16590909090908,
                "end_time": 114.67045454545455,
                "pitch": 74,
                "velocity": 80,
                "duration": 0.5045454545454646,
                "tempo": 120.0
            },
            {
                "start_time": 114.57045454545454,
                "end_time": 114.67045454545455,
                "pitch": 74,
                "velocity": 80,
                "duration": 0.10000000000000853,
                "tempo": 120.0
            },
            {
                "start_time": 114.26818181818182,
                "end_time": 115.27727272727272,
                "pitch": 76,
                "velocity": 80,
                "duration": 1.0090909090909008,
                "tempo": 120.0
            },
            {
                "start_time": 114.67045454545455,
                "end_time": 115.27727272727272,
                "pitch": 76,
                "velocity": 80,
                "duration": 0.6068181818181699,
                "tempo": 120.0
            },
            {
                "start_time": 115.27727272727272,
                "end_time": 115.48181818181817,
                "pitch": 76,
                "velocity": 80,
                "duration": 0.20454545454545325,
                "tempo": 120.0
            },
            {
                "start_time": 114.67045454545455,
                "end_time": 115.67954545454545,
                "pitch": 74,
                "velocity": 80,
                "duration": 1.0090909090909008,
                "tempo": 120.0
            },
            {
                "start_time": 115.48181818181817,
                "end_time": 115.67954545454545,
                "pitch": 74,
                "velocity": 80,
                "duration": 0.19772727272727764,
                "tempo": 120.0
            },
            {
                "start_time": 115.48181818181817,
                "end_time": 115.77727272727272,
                "pitch": 76,
                "velocity": 80,
                "duration": 0.29545454545454675,
                "tempo": 120.0
            },
            {
                "start_time": 115.67954545454545,
                "end_time": 115.77727272727272,
                "pitch": 76,
                "velocity": 80,
                "duration": 0.09772727272726911,
                "tempo": 120.0
            },
            {
                "start_time": 115.875,
                "end_time": 115.97727272727272,
                "pitch": 76,
                "velocity": 80,
                "duration": 0.10227272727271952,
                "tempo": 120.0
            },
            {
                "start_time": 113.66363636363636,
                "end_time": 116.28636363636363,
                "pitch": 77,
                "velocity": 80,
                "duration": 2.622727272727275,
                "tempo": 120.0
            },
            {
                "start_time": 116.08181818181818,
                "end_time": 116.28636363636363,
                "pitch": 77,
                "velocity": 80,
                "duration": 0.20454545454545325,
                "tempo": 120.0
            },
            {
                "start_time": 116.28636363636363,
                "end_time": 116.38636363636363,
                "pitch": 77,
                "velocity": 80,
                "duration": 0.09999999999999432,
                "tempo": 120.0
            },
            {
                "start_time": 116.48636363636363,
                "end_time": 116.58636363636363,
                "pitch": 76,
                "velocity": 80,
                "duration": 0.09999999999999432,
                "tempo": 120.0
            },
            {
                "start_time": 115.67954545454545,
                "end_time": 116.98863636363636,
                "pitch": 74,
                "velocity": 80,
                "duration": 1.3090909090909122,
                "tempo": 120.0
            },
            {
                "start_time": 116.88863636363635,
                "end_time": 116.98863636363636,
                "pitch": 74,
                "velocity": 80,
                "duration": 0.10000000000000853,
                "tempo": 120.0
            },
            {
                "start_time": 116.98863636363636,
                "end_time": 117.09090909090908,
                "pitch": 74,
                "velocity": 80,
                "duration": 0.10227272727271952,
                "tempo": 120.0
            },
            {
                "start_time": 117.09090909090908,
                "end_time": 117.29545454545455,
                "pitch": 76,
                "velocity": 80,
                "duration": 0.20454545454546746,
                "tempo": 120.0
            },
            {
                "start_time": 117.09090909090908,
                "end_time": 117.39772727272727,
                "pitch": 74,
                "velocity": 80,
                "duration": 0.306818181818187,
                "tempo": 120.0
            },
            {
                "start_time": 117.29545454545455,
                "end_time": 117.39772727272727,
                "pitch": 74,
                "velocity": 80,
                "duration": 0.10227272727271952,
                "tempo": 120.0
            },
            {
                "start_time": 117.29545454545455,
                "end_time": 117.50227272727273,
                "pitch": 76,
                "velocity": 80,
                "duration": 0.20681818181817846,
                "tempo": 120.0
            },
            {
                "start_time": 117.39772727272727,
                "end_time": 117.50227272727273,
                "pitch": 76,
                "velocity": 80,
                "duration": 0.10454545454545894,
                "tempo": 120.0
            },
            {
                "start_time": 114.57045454545454,
                "end_time": 117.6,
                "pitch": 72,
                "velocity": 80,
                "duration": 3.029545454545456,
                "tempo": 120.0
            },
            {
                "start_time": 117.50227272727273,
                "end_time": 117.6,
                "pitch": 72,
                "velocity": 80,
                "duration": 0.09772727272726911,
                "tempo": 120.0
            },
            {
                "start_time": 117.69772727272726,
                "end_time": 117.79545454545455,
                "pitch": 72,
                "velocity": 80,
                "duration": 0.09772727272728332,
                "tempo": 120.0
            },
            {
                "start_time": 117.39772727272727,
                "end_time": 117.89545454545454,
                "pitch": 74,
                "velocity": 80,
                "duration": 0.4977272727272748,
                "tempo": 120.0
            },
            {
                "start_time": 117.79545454545455,
                "end_time": 117.89545454545454,
                "pitch": 74,
                "velocity": 80,
                "duration": 0.09999999999999432,
                "tempo": 120.0
            },
            {
                "start_time": 117.50227272727273,
                "end_time": 118.49772727272726,
                "pitch": 76,
                "velocity": 80,
                "duration": 0.9954545454545354,
                "tempo": 120.0
            },
            {
                "start_time": 117.89545454545454,
                "end_time": 118.49772727272726,
                "pitch": 76,
                "velocity": 80,
                "duration": 0.6022727272727195,
                "tempo": 120.0
            },
            {
                "start_time": 118.49772727272726,
                "end_time": 118.69772727272726,
                "pitch": 76,
                "velocity": 80,
                "duration": 0.20000000000000284,
                "tempo": 120.0
            },
            {
                "start_time": 117.89545454545454,
                "end_time": 118.90454545454544,
                "pitch": 74,
                "velocity": 80,
                "duration": 1.0090909090909008,
                "tempo": 120.0
            },
            {
                "start_time": 118.69772727272726,
                "end_time": 118.90454545454544,
                "pitch": 74,
                "velocity": 80,
                "duration": 0.20681818181817846,
                "tempo": 120.0
            },
            {
                "start_time": 118.69772727272726,
                "end_time": 119.00681818181818,
                "pitch": 76,
                "velocity": 80,
                "duration": 0.3090909090909122,
                "tempo": 120.0
            },
            {
                "start_time": 118.90454545454544,
                "end_time": 119.00681818181818,
                "pitch": 76,
                "velocity": 80,
                "duration": 0.10227272727273373,
                "tempo": 120.0
            },
            {
                "start_time": 119.10909090909091,
                "end_time": 119.20681818181818,
                "pitch": 76,
                "velocity": 80,
                "duration": 0.09772727272726911,
                "tempo": 120.0
            },
            {
                "start_time": 116.88863636363635,
                "end_time": 119.50227272727273,
                "pitch": 77,
                "velocity": 80,
                "duration": 2.613636363636374,
                "tempo": 120.0
            },
            {
                "start_time": 119.30681818181817,
                "end_time": 119.50227272727273,
                "pitch": 77,
                "velocity": 80,
                "duration": 0.19545454545455243,
                "tempo": 120.0
            },
            {
                "start_time": 119.50227272727273,
                "end_time": 119.60227272727272,
                "pitch": 77,
                "velocity": 80,
                "duration": 0.09999999999999432,
                "tempo": 120.0
            },
            {
                "start_time": 119.70454545454545,
                "end_time": 119.80454545454545,
                "pitch": 76,
                "velocity": 80,
                "duration": 0.09999999999999432,
                "tempo": 120.0
            },
            {
                "start_time": 118.90454545454544,
                "end_time": 120.20681818181818,
                "pitch": 74,
                "velocity": 80,
                "duration": 1.3022727272727366,
                "tempo": 120.0
            },
            {
                "start_time": 120.10681818181817,
                "end_time": 120.20681818181818,
                "pitch": 74,
                "velocity": 80,
                "duration": 0.10000000000000853,
                "tempo": 120.0
            },
            {
                "start_time": 120.20681818181818,
                "end_time": 120.3090909090909,
                "pitch": 74,
                "velocity": 80,
                "duration": 0.10227272727271952,
                "tempo": 120.0
            },
            {
                "start_time": 120.3090909090909,
                "end_time": 120.5090909090909,
                "pitch": 76,
                "velocity": 80,
                "duration": 0.20000000000000284,
                "tempo": 120.0
            },
            {
                "start_time": 120.3090909090909,
                "end_time": 120.60909090909091,
                "pitch": 74,
                "velocity": 80,
                "duration": 0.30000000000001137,
                "tempo": 120.0
            },
            {
                "start_time": 120.5090909090909,
                "end_time": 120.60909090909091,
                "pitch": 74,
                "velocity": 80,
                "duration": 0.10000000000000853,
                "tempo": 120.0
            },
            {
                "start_time": 120.5090909090909,
                "end_time": 120.7090909090909,
                "pitch": 76,
                "velocity": 80,
                "duration": 0.20000000000000284,
                "tempo": 120.0
            },
            {
                "start_time": 120.60909090909091,
                "end_time": 120.7090909090909,
                "pitch": 76,
                "velocity": 80,
                "duration": 0.09999999999999432,
                "tempo": 120.0
            },
            {
                "start_time": 120.7090909090909,
                "end_time": 120.91136363636363,
                "pitch": 64,
                "velocity": 51,
                "duration": 0.20227272727272805,
                "tempo": 120.0
            },
            {
                "start_time": 120.91136363636363,
                "end_time": 121.11363636363636,
                "pitch": 64,
                "velocity": 51,
                "duration": 0.20227272727272805,
                "tempo": 120.0
            },
            {
                "start_time": 121.11363636363636,
                "end_time": 121.31363636363636,
                "pitch": 65,
                "velocity": 51,
                "duration": 0.20000000000000284,
                "tempo": 120.0
            },
            {
                "start_time": 121.31363636363636,
                "end_time": 121.51363636363635,
                "pitch": 64,
                "velocity": 51,
                "duration": 0.19999999999998863,
                "tempo": 120.0
            },
            {
                "start_time": 121.71590909090908,
                "end_time": 122.32045454545454,
                "pitch": 65,
                "velocity": 51,
                "duration": 0.6045454545454589,
                "tempo": 120.0
            },
            {
                "start_time": 122.32045454545454,
                "end_time": 122.52499999999999,
                "pitch": 64,
                "velocity": 51,
                "duration": 0.20454545454545325,
                "tempo": 120.0
            },
            {
                "start_time": 122.52499999999999,
                "end_time": 122.73181818181817,
                "pitch": 64,
                "velocity": 51,
                "duration": 0.20681818181817846,
                "tempo": 120.0
            },
            {
                "start_time": 122.73181818181817,
                "end_time": 122.92727272727272,
                "pitch": 65,
                "velocity": 51,
                "duration": 0.19545454545455243,
                "tempo": 120.0
            },
            {
                "start_time": 120.10681818181817,
                "end_time": 122.92727272727272,
                "pitch": 77,
                "velocity": 80,
                "duration": 2.8204545454545524,
                "tempo": 120.0
            },
            {
                "start_time": 122.92727272727272,
                "end_time": 123.12272727272726,
                "pitch": 67,
                "velocity": 51,
                "duration": 0.19545454545453822,
                "tempo": 120.0
            },
            {
                "start_time": 107.82954545454545,
                "end_time": 123.32499999999999,
                "pitch": 0,
                "velocity": 80,
                "duration": 15.495454545454535,
                "tempo": 120.0
            },
            {
                "start_time": 123.32499999999999,
                "end_time": 123.92727272727272,
                "pitch": 64,
                "velocity": 51,
                "duration": 0.6022727272727337,
                "tempo": 120.0
            },
            {
                "start_time": 123.92727272727272,
                "end_time": 124.13181818181818,
                "pitch": 64,
                "velocity": 51,
                "duration": 0.20454545454545325,
                "tempo": 120.0
            },
            {
                "start_time": 124.1340909090909,
                "end_time": 124.33863636363635,
                "pitch": 64,
                "velocity": 51,
                "duration": 0.20454545454545325,
                "tempo": 120.0
            },
            {
                "start_time": 124.33863636363635,
                "end_time": 124.54090909090908,
                "pitch": 65,
                "velocity": 51,
                "duration": 0.20227272727272805,
                "tempo": 120.0
            },
            {
                "start_time": 122.92727272727272,
                "end_time": 124.54090909090908,
                "pitch": 77,
                "velocity": 51,
                "duration": 1.6136363636363598,
                "tempo": 120.0
            },
            {
                "start_time": 50.48409090909091,
                "end_time": 124.74090909090908,
                "pitch": 69,
                "velocity": 51,
                "duration": 74.25681818181818,
                "tempo": 120.0
            },
            {
                "start_time": 124.54090909090908,
                "end_time": 124.74090909090908,
                "pitch": 69,
                "velocity": 51,
                "duration": 0.20000000000000284,
                "tempo": 120.0
            },
            {
                "start_time": 44.65454545454545,
                "end_time": 124.94318181818181,
                "pitch": 30,
                "velocity": 51,
                "duration": 80.28863636363636,
                "tempo": 120.0
            },
            {
                "start_time": 124.94318181818181,
                "end_time": 125.14545454545454,
                "pitch": 64,
                "velocity": 51,
                "duration": 0.20227272727272805,
                "tempo": 120.0
            },
            {
                "start_time": 48.47272727272727,
                "end_time": 125.34545454545454,
                "pitch": 60,
                "velocity": 51,
                "duration": 76.87272727272727,
                "tempo": 120.0
            },
            {
                "start_time": 125.14545454545454,
                "end_time": 125.34545454545454,
                "pitch": 60,
                "velocity": 51,
                "duration": 0.20000000000000284,
                "tempo": 120.0
            },
            {
                "start_time": 49.67727272727272,
                "end_time": 125.54545454545453,
                "pitch": 62,
                "velocity": 51,
                "duration": 75.86818181818181,
                "tempo": 120.0
            },
            {
                "start_time": 125.34545454545454,
                "end_time": 125.54545454545453,
                "pitch": 62,
                "velocity": 51,
                "duration": 0.19999999999998863,
                "tempo": 120.0
            },
            {
                "start_time": 125.14545454545454,
                "end_time": 126.14999999999999,
                "pitch": 64,
                "velocity": 51,
                "duration": 1.0045454545454504,
                "tempo": 120.0
            },
            {
                "start_time": 125.54545454545453,
                "end_time": 126.14999999999999,
                "pitch": 64,
                "velocity": 51,
                "duration": 0.6045454545454589,
                "tempo": 120.0
            },
            {
                "start_time": 125.54545454545453,
                "end_time": 126.25,
                "pitch": 62,
                "velocity": 51,
                "duration": 0.7045454545454675,
                "tempo": 120.0
            },
            {
                "start_time": 126.14999999999999,
                "end_time": 126.25,
                "pitch": 62,
                "velocity": 51,
                "duration": 0.10000000000000853,
                "tempo": 120.0
            },
            {
                "start_time": 126.14999999999999,
                "end_time": 126.35,
                "pitch": 64,
                "velocity": 51,
                "duration": 0.20000000000000284,
                "tempo": 120.0
            },
            {
                "start_time": 126.25,
                "end_time": 126.35,
                "pitch": 64,
                "velocity": 51,
                "duration": 0.09999999999999432,
                "tempo": 120.0
            },
            {
                "start_time": 126.25,
                "end_time": 126.75227272727273,
                "pitch": 62,
                "velocity": 51,
                "duration": 0.5022727272727252,
                "tempo": 120.0
            },
            {
                "start_time": 126.35,
                "end_time": 126.75227272727273,
                "pitch": 62,
                "velocity": 51,
                "duration": 0.4022727272727309,
                "tempo": 120.0
            },
            {
                "start_time": 125.34545454545454,
                "end_time": 126.95454545454545,
                "pitch": 60,
                "velocity": 51,
                "duration": 1.6090909090909093,
                "tempo": 120.0
            },
            {
                "start_time": 126.75227272727273,
                "end_time": 126.95454545454545,
                "pitch": 60,
                "velocity": 51,
                "duration": 0.20227272727272805,
                "tempo": 120.0
            },
            {
                "start_time": 126.75227272727273,
                "end_time": 127.15681818181818,
                "pitch": 62,
                "velocity": 51,
                "duration": 0.4045454545454561,
                "tempo": 120.0
            },
            {
                "start_time": 126.95454545454545,
                "end_time": 127.15681818181818,
                "pitch": 62,
                "velocity": 51,
                "duration": 0.20227272727272805,
                "tempo": 120.0
            },
            {
                "start_time": 126.95454545454545,
                "end_time": 127.9590909090909,
                "pitch": 60,
                "velocity": 51,
                "duration": 1.0045454545454504,
                "tempo": 120.0
            },
            {
                "start_time": 127.15681818181818,
                "end_time": 127.9590909090909,
                "pitch": 60,
                "velocity": 51,
                "duration": 0.8022727272727224,
                "tempo": 120.0
            },
            {
                "start_time": 126.35,
                "end_time": 128.16136363636363,
                "pitch": 64,
                "velocity": 51,
                "duration": 1.8113636363636374,
                "tempo": 120.0
            },
            {
                "start_time": 48.07272727272727,
                "end_time": 128.36136363636362,
                "pitch": 57,
                "velocity": 51,
                "duration": 80.28863636363636,
                "tempo": 120.0
            },
            {
                "start_time": 128.16136363636363,
                "end_time": 128.36136363636362,
                "pitch": 57,
                "velocity": 51,
                "duration": 0.19999999999998863,
                "tempo": 120.0
            },
            {
                "start_time": 48.277272727272724,
                "end_time": 128.56136363636364,
                "pitch": 43,
                "velocity": 51,
                "duration": 80.2840909090909,
                "tempo": 120.0
            },
            {
                "start_time": 128.36136363636362,
                "end_time": 128.56136363636364,
                "pitch": 59,
                "velocity": 51,
                "duration": 0.20000000000001705,
                "tempo": 120.0
            },
            {
                "start_time": 128.56136363636364,
                "end_time": 128.76363636363635,
                "pitch": 60,
                "velocity": 51,
                "duration": 0.20227272727271384,
                "tempo": 120.0
            },
            {
                "start_time": 127.15681818181818,
                "end_time": 129.17499999999998,
                "pitch": 62,
                "velocity": 51,
                "duration": 2.0181818181818016,
                "tempo": 120.0
            },
            {
                "start_time": 128.76363636363635,
                "end_time": 129.17499999999998,
                "pitch": 62,
                "velocity": 51,
                "duration": 0.4113636363636317,
                "tempo": 120.0
            },
            {
                "start_time": 128.16136363636363,
                "end_time": 129.37727272727273,
                "pitch": 64,
                "velocity": 51,
                "duration": 1.2159090909090935,
                "tempo": 120.0
            },
            {
                "start_time": 129.17499999999998,
                "end_time": 129.37727272727273,
                "pitch": 64,
                "velocity": 51,
                "duration": 0.20227272727274226,
                "tempo": 120.0
            },
            {
                "start_time": 129.17499999999998,
                "end_time": 129.5772727272727,
                "pitch": 62,
                "velocity": 51,
                "duration": 0.4022727272727309,
                "tempo": 120.0
            },
            {
                "start_time": 129.37727272727273,
                "end_time": 129.5772727272727,
                "pitch": 62,
                "velocity": 51,
                "duration": 0.19999999999998863,
                "tempo": 120.0
            },
            {
                "start_time": 129.775,
                "end_time": 129.97045454545454,
                "pitch": 62,
                "velocity": 51,
                "duration": 0.19545454545453822,
                "tempo": 120.0
            },
            {
                "start_time": 129.37727272727273,
                "end_time": 130.1772727272727,
                "pitch": 64,
                "velocity": 51,
                "duration": 0.799999999999983,
                "tempo": 120.0
            },
            {
                "start_time": 129.97045454545454,
                "end_time": 130.1772727272727,
                "pitch": 64,
                "velocity": 51,
                "duration": 0.20681818181816425,
                "tempo": 120.0
            },
            {
                "start_time": 130.1772727272727,
                "end_time": 130.38181818181818,
                "pitch": 64,
                "velocity": 51,
                "duration": 0.20454545454546746,
                "tempo": 120.0
            },
            {
                "start_time": 130.38181818181818,
                "end_time": 130.775,
                "pitch": 69,
                "velocity": 51,
                "duration": 0.39318181818183007,
                "tempo": 120.0
            },
            {
                "start_time": 54.695454545454545,
                "end_time": 131.1772727272727,
                "pitch": 71,
                "velocity": 51,
                "duration": 76.48181818181817,
                "tempo": 120.0
            },
            {
                "start_time": 130.775,
                "end_time": 131.1772727272727,
                "pitch": 71,
                "velocity": 51,
                "duration": 0.40227272727270247,
                "tempo": 120.0
            },
            {
                "start_time": 53.69318181818181,
                "end_time": 131.17954545454546,
                "pitch": 55,
                "velocity": 51,
                "duration": 77.48636363636365,
                "tempo": 120.0
            },
            {
                "start_time": 117.79545454545455,
                "end_time": 131.37954545454545,
                "pitch": 72,
                "velocity": 80,
                "duration": 13.584090909090904,
                "tempo": 120.0
            },
            {
                "start_time": 131.17954545454546,
                "end_time": 131.37954545454545,
                "pitch": 72,
                "velocity": 51,
                "duration": 0.19999999999998863,
                "tempo": 120.0
            },
            {
                "start_time": 120.60909090909091,
                "end_time": 131.58181818181816,
                "pitch": 74,
                "velocity": 80,
                "duration": 10.972727272727255,
                "tempo": 120.0
            },
            {
                "start_time": 131.37954545454545,
                "end_time": 131.58181818181816,
                "pitch": 74,
                "velocity": 51,
                "duration": 0.20227272727271384,
                "tempo": 120.0
            },
            {
                "start_time": 124.54090909090908,
                "end_time": 131.78181818181818,
                "pitch": 77,
                "velocity": 51,
                "duration": 7.240909090909099,
                "tempo": 120.0
            },
            {
                "start_time": 131.78181818181818,
                "end_time": 132.18636363636364,
                "pitch": 71,
                "velocity": 51,
                "duration": 0.4045454545454561,
                "tempo": 120.0
            },
            {
                "start_time": 131.17954545454546,
                "end_time": 132.3931818181818,
                "pitch": 55,
                "velocity": 51,
                "duration": 1.2136363636363399,
                "tempo": 120.0
            },
            {
                "start_time": 132.18863636363636,
                "end_time": 132.3931818181818,
                "pitch": 71,
                "velocity": 51,
                "duration": 0.20454545454543904,
                "tempo": 120.0
            },
            {
                "start_time": 131.37954545454545,
                "end_time": 132.59545454545454,
                "pitch": 72,
                "velocity": 51,
                "duration": 1.2159090909090935,
                "tempo": 120.0
            },
            {
                "start_time": 132.3931818181818,
                "end_time": 132.59545454545454,
                "pitch": 72,
                "velocity": 51,
                "duration": 0.20227272727274226,
                "tempo": 120.0
            },
            {
                "start_time": 132.59545454545454,
                "end_time": 132.79545454545453,
                "pitch": 74,
                "velocity": 51,
                "duration": 0.19999999999998863,
                "tempo": 120.0
            },
            {
                "start_time": 132.99772727272727,
                "end_time": 133.2,
                "pitch": 74,
                "velocity": 51,
                "duration": 0.20227272727271384,
                "tempo": 120.0
            },
            {
                "start_time": 133.2,
                "end_time": 133.40227272727273,
                "pitch": 76,
                "velocity": 51,
                "duration": 0.20227272727274226,
                "tempo": 120.0
            },
            {
                "start_time": 133.2,
                "end_time": 133.60227272727272,
                "pitch": 74,
                "velocity": 51,
                "duration": 0.4022727272727309,
                "tempo": 120.0
            },
            {
                "start_time": 133.40227272727273,
                "end_time": 133.60227272727272,
                "pitch": 74,
                "velocity": 51,
                "duration": 0.19999999999998863,
                "tempo": 120.0
            },
            {
                "start_time": 133.60227272727272,
                "end_time": 133.60454545454544,
                "pitch": 74,
                "velocity": 51,
                "duration": 0.0022727272727252057,
                "tempo": 120.0
            },
            {
                "start_time": 132.59545454545454,
                "end_time": 133.80454545454546,
                "pitch": 72,
                "velocity": 51,
                "duration": 1.2090909090909179,
                "tempo": 120.0
            },
            {
                "start_time": 133.60454545454544,
                "end_time": 133.80454545454546,
                "pitch": 72,
                "velocity": 51,
                "duration": 0.20000000000001705,
                "tempo": 120.0
            },
            {
                "start_time": 133.40227272727273,
                "end_time": 133.80454545454546,
                "pitch": 76,
                "velocity": 51,
                "duration": 0.4022727272727309,
                "tempo": 120.0
            },
            {
                "start_time": 132.3931818181818,
                "end_time": 134.00681818181818,
                "pitch": 55,
                "velocity": 51,
                "duration": 1.613636363636374,
                "tempo": 120.0
            },
            {
                "start_time": 133.80454545454546,
                "end_time": 134.00681818181818,
                "pitch": 71,
                "velocity": 51,
                "duration": 0.20227272727271384,
                "tempo": 120.0
            },
            {
                "start_time": 134.00681818181818,
                "end_time": 134.20681818181816,
                "pitch": 74,
                "velocity": 51,
                "duration": 0.19999999999998863,
                "tempo": 120.0
            },
            {
                "start_time": 134.20681818181816,
                "end_time": 134.40681818181818,
                "pitch": 72,
                "velocity": 51,
                "duration": 0.20000000000001705,
                "tempo": 120.0
            },
            {
                "start_time": 133.80454545454546,
                "end_time": 134.6090909090909,
                "pitch": 76,
                "velocity": 51,
                "duration": 0.8045454545454334,
                "tempo": 120.0
            },
            {
                "start_time": 134.6090909090909,
                "end_time": 135.01136363636363,
                "pitch": 71,
                "velocity": 51,
                "duration": 0.4022727272727309,
                "tempo": 120.0
            },
            {
                "start_time": 123.32499999999999,
                "end_time": 135.21363636363637,
                "pitch": 0,
                "velocity": 51,
                "duration": 11.88863636363638,
                "tempo": 120.0
            },
            {
                "start_time": 135.01136363636363,
                "end_time": 135.21363636363637,
                "pitch": 67,
                "velocity": 51,
                "duration": 0.20227272727274226,
                "tempo": 120.0
            },
            {
                "start_time": 135.21363636363637,
                "end_time": 135.4181818181818,
                "pitch": 72,
                "velocity": 51,
                "duration": 0.20454545454543904,
                "tempo": 120.0
            },
            {
                "start_time": 134.6090909090909,
                "end_time": 135.4181818181818,
                "pitch": 76,
                "velocity": 51,
                "duration": 0.8090909090909122,
                "tempo": 120.0
            },
            {
                "start_time": 55.30227272727272,
                "end_time": 135.625,
                "pitch": 50,
                "velocity": 51,
                "duration": 80.32272727272728,
                "tempo": 120.0
            },
            {
                "start_time": 135.4181818181818,
                "end_time": 135.625,
                "pitch": 70,
                "velocity": 51,
                "duration": 0.20681818181819267,
                "tempo": 120.0
            },
            {
                "start_time": 134.20681818181816,
                "end_time": 135.82045454545454,
                "pitch": 74,
                "velocity": 51,
                "duration": 1.613636363636374,
                "tempo": 120.0
            },
            {
                "start_time": 135.625,
                "end_time": 135.82045454545454,
                "pitch": 74,
                "velocity": 51,
                "duration": 0.19545454545453822,
                "tempo": 120.0
            },
            {
                "start_time": 135.82045454545454,
                "end_time": 136.0181818181818,
                "pitch": 72,
                "velocity": 51,
                "duration": 0.19772727272726343,
                "tempo": 120.0
            },
            {
                "start_time": 135.82045454545454,
                "end_time": 136.82045454545454,
                "pitch": 74,
                "velocity": 51,
                "duration": 1.0,
                "tempo": 120.0
            },
            {
                "start_time": 136.21818181818182,
                "end_time": 136.82045454545454,
                "pitch": 74,
                "velocity": 51,
                "duration": 0.6022727272727195,
                "tempo": 120.0
            },
            {
                "start_time": 135.4181818181818,
                "end_time": 137.02727272727273,
                "pitch": 76,
                "velocity": 51,
                "duration": 1.6090909090909236,
                "tempo": 120.0
            },
            {
                "start_time": 136.82045454545454,
                "end_time": 137.02727272727273,
                "pitch": 76,
                "velocity": 51,
                "duration": 0.20681818181819267,
                "tempo": 120.0
            },
            {
                "start_time": 136.82045454545454,
                "end_time": 137.23181818181817,
                "pitch": 74,
                "velocity": 51,
                "duration": 0.4113636363636317,
                "tempo": 120.0
            },
            {
                "start_time": 137.02727272727273,
                "end_time": 137.23181818181817,
                "pitch": 74,
                "velocity": 51,
                "duration": 0.20454545454543904,
                "tempo": 120.0
            },
            {
                "start_time": 60.32727272727272,
                "end_time": 137.23181818181817,
                "pitch": 89,
                "velocity": 51,
                "duration": 76.90454545454546,
                "tempo": 120.0
            },
            {
                "start_time": 137.23181818181817,
                "end_time": 137.42954545454546,
                "pitch": 81,
                "velocity": 51,
                "duration": 0.19772727272729185,
                "tempo": 120.0
            },
            {
                "start_time": 137.42954545454546,
                "end_time": 137.625,
                "pitch": 81,
                "velocity": 51,
                "duration": 0.19545454545453822,
                "tempo": 120.0
            },
            {
                "start_time": 135.21363636363637,
                "end_time": 137.8272727272727,
                "pitch": 0,
                "velocity": 51,
                "duration": 2.6136363636363455,
                "tempo": 120.0
            },
            {
                "start_time": 131.78181818181818,
                "end_time": 138.22954545454544,
                "pitch": 77,
                "velocity": 51,
                "duration": 6.447727272727263,
                "tempo": 120.0
            },
            {
                "start_time": 137.8272727272727,
                "end_time": 138.22954545454544,
                "pitch": 77,
                "velocity": 51,
                "duration": 0.4022727272727309,
                "tempo": 120.0
            },
            {
                "start_time": 61.934090909090905,
                "end_time": 138.22954545454544,
                "pitch": 90,
                "velocity": 51,
                "duration": 76.29545454545453,
                "tempo": 120.0
            },
            {
                "start_time": 137.8272727272727,
                "end_time": 138.42954545454546,
                "pitch": 0,
                "velocity": 51,
                "duration": 0.6022727272727479,
                "tempo": 120.0
            },
            {
                "start_time": 138.22954545454544,
                "end_time": 138.42954545454546,
                "pitch": 79,
                "velocity": 51,
                "duration": 0.20000000000001705,
                "tempo": 120.0
            },
            {
                "start_time": 138.42954545454546,
                "end_time": 139.0340909090909,
                "pitch": 77,
                "velocity": 51,
                "duration": 0.6045454545454447,
                "tempo": 120.0
            },
            {
                "start_time": 138.22954545454544,
                "end_time": 139.0340909090909,
                "pitch": 90,
                "velocity": 51,
                "duration": 0.8045454545454618,
                "tempo": 120.0
            },
            {
                "start_time": 138.42954545454546,
                "end_time": 139.1340909090909,
                "pitch": 0,
                "velocity": 51,
                "duration": 0.704545454545439,
                "tempo": 120.0
            },
            {
                "start_time": 139.0340909090909,
                "end_time": 139.1340909090909,
                "pitch": 79,
                "velocity": 51,
                "duration": 0.09999999999999432,
                "tempo": 120.0
            },
            {
                "start_time": 139.1340909090909,
                "end_time": 139.23636363636362,
                "pitch": 77,
                "velocity": 51,
                "duration": 0.10227272727271952,
                "tempo": 120.0
            },
            {
                "start_time": 139.23636363636362,
                "end_time": 139.64545454545453,
                "pitch": 77,
                "velocity": 51,
                "duration": 0.4090909090909065,
                "tempo": 120.0
            },
            {
                "start_time": 137.02727272727273,
                "end_time": 139.64772727272725,
                "pitch": 76,
                "velocity": 51,
                "duration": 2.620454545454521,
                "tempo": 120.0
            },
            {
                "start_time": 136.21818181818182,
                "end_time": 139.84772727272727,
                "pitch": 72,
                "velocity": 51,
                "duration": 3.6295454545454504,
                "tempo": 120.0
            },
            {
                "start_time": 139.64772727272725,
                "end_time": 139.84772727272727,
                "pitch": 72,
                "velocity": 51,
                "duration": 0.20000000000001705,
                "tempo": 120.0
            },
            {
                "start_time": 139.84772727272727,
                "end_time": 140.04999999999998,
                "pitch": 74,
                "velocity": 51,
                "duration": 0.20227272727271384,
                "tempo": 120.0
            },
            {
                "start_time": 139.64772727272725,
                "end_time": 140.25227272727273,
                "pitch": 76,
                "velocity": 51,
                "duration": 0.6045454545454731,
                "tempo": 120.0
            },
            {
                "start_time": 140.04999999999998,
                "end_time": 140.25227272727273,
                "pitch": 76,
                "velocity": 51,
                "duration": 0.20227272727274226,
                "tempo": 120.0
            },
            {
                "start_time": 140.25227272727273,
                "end_time": 140.4522727272727,
                "pitch": 76,
                "velocity": 51,
                "duration": 0.19999999999998863,
                "tempo": 120.0
            },
            {
                "start_time": 140.45454545454544,
                "end_time": 140.65454545454546,
                "pitch": 77,
                "velocity": 51,
                "duration": 0.20000000000001705,
                "tempo": 120.0
            },
            {
                "start_time": 137.23181818181817,
                "end_time": 140.65454545454546,
                "pitch": 89,
                "velocity": 51,
                "duration": 3.422727272727286,
                "tempo": 120.0
            },
            {
                "start_time": 140.65454545454546,
                "end_time": 140.85681818181817,
                "pitch": 81,
                "velocity": 51,
                "duration": 0.20227272727271384,
                "tempo": 120.0
            },
            {
                "start_time": 141.0568181818182,
                "end_time": 141.4409090909091,
                "pitch": 81,
                "velocity": 51,
                "duration": 0.3840909090909008,
                "tempo": 120.0
            },
            {
                "start_time": 139.1340909090909,
                "end_time": 141.4590909090909,
                "pitch": 0,
                "velocity": 51,
                "duration": 2.3249999999999886,
                "tempo": 120.0
            },
            {
                "start_time": 141.4590909090909,
                "end_time": 141.66136363636363,
                "pitch": 77,
                "velocity": 51,
                "duration": 0.20227272727274226,
                "tempo": 120.0
            },
            {
                "start_time": 140.04999999999998,
                "end_time": 141.86590909090907,
                "pitch": 74,
                "velocity": 51,
                "duration": 1.8159090909090878,
                "tempo": 120.0
            },
            {
                "start_time": 141.66136363636363,
                "end_time": 141.86590909090907,
                "pitch": 74,
                "velocity": 51,
                "duration": 0.20454545454543904,
                "tempo": 120.0
            },
            {
                "start_time": 141.86590909090907,
                "end_time": 142.07045454545454,
                "pitch": 76,
                "velocity": 51,
                "duration": 0.20454545454546746,
                "tempo": 120.0
            },
            {
                "start_time": 142.07272727272726,
                "end_time": 142.2681818181818,
                "pitch": 76,
                "velocity": 51,
                "duration": 0.19545454545453822,
                "tempo": 120.0
            },
            {
                "start_time": 139.0340909090909,
                "end_time": 142.2681818181818,
                "pitch": 90,
                "velocity": 51,
                "duration": 3.234090909090895,
                "tempo": 120.0
            },
            {
                "start_time": 142.2681818181818,
                "end_time": 142.46363636363637,
                "pitch": 79,
                "velocity": 51,
                "duration": 0.19545454545456664,
                "tempo": 120.0
            },
            {
                "start_time": 141.4590909090909,
                "end_time": 142.66590909090908,
                "pitch": 0,
                "velocity": 51,
                "duration": 1.2068181818181927,
                "tempo": 120.0
            },
            {
                "start_time": 141.86590909090907,
                "end_time": 142.86818181818182,
                "pitch": 74,
                "velocity": 51,
                "duration": 1.0022727272727536,
                "tempo": 120.0
            },
            {
                "start_time": 142.66590909090908,
                "end_time": 142.86818181818182,
                "pitch": 74,
                "velocity": 51,
                "duration": 0.20227272727274226,
                "tempo": 120.0
            },
            {
                "start_time": 142.86818181818182,
                "end_time": 143.0681818181818,
                "pitch": 76,
                "velocity": 51,
                "duration": 0.19999999999998863,
                "tempo": 120.0
            },
            {
                "start_time": 139.84772727272727,
                "end_time": 143.1681818181818,
                "pitch": 72,
                "velocity": 51,
                "duration": 3.320454545454538,
                "tempo": 120.0
            },
            {
                "start_time": 143.0681818181818,
                "end_time": 143.1681818181818,
                "pitch": 72,
                "velocity": 51,
                "duration": 0.09999999999999432,
                "tempo": 120.0
            },
            {
                "start_time": 142.86818181818182,
                "end_time": 143.2681818181818,
                "pitch": 74,
                "velocity": 51,
                "duration": 0.39999999999997726,
                "tempo": 120.0
            },
            {
                "start_time": 143.1681818181818,
                "end_time": 143.2681818181818,
                "pitch": 74,
                "velocity": 51,
                "duration": 0.09999999999999432,
                "tempo": 120.0
            },
            {
                "start_time": 143.1681818181818,
                "end_time": 144.47727272727272,
                "pitch": 72,
                "velocity": 51,
                "duration": 1.3090909090909122,
                "tempo": 120.0
            },
            {
                "start_time": 143.2681818181818,
                "end_time": 144.47727272727272,
                "pitch": 72,
                "velocity": 51,
                "duration": 1.2090909090909179,
                "tempo": 120.0
            },
            {
                "start_time": 143.0681818181818,
                "end_time": 144.77954545454546,
                "pitch": 76,
                "velocity": 51,
                "duration": 1.711363636363643,
                "tempo": 120.0
            },
            {
                "start_time": 144.67954545454543,
                "end_time": 144.77954545454546,
                "pitch": 76,
                "velocity": 51,
                "duration": 0.10000000000002274,
                "tempo": 120.0
            },
            {
                "start_time": 143.2681818181818,
                "end_time": 144.88181818181818,
                "pitch": 74,
                "velocity": 51,
                "duration": 1.613636363636374,
                "tempo": 120.0
            },
            {
                "start_time": 144.77954545454546,
                "end_time": 144.88181818181818,
                "pitch": 74,
                "velocity": 51,
                "duration": 0.10227272727271952,
                "tempo": 120.0
            },
            {
                "start_time": 144.67954545454543,
                "end_time": 146.48863636363635,
                "pitch": 72,
                "velocity": 51,
                "duration": 1.8090909090909122,
                "tempo": 120.0
            },
            {
                "start_time": 144.88181818181818,
                "end_time": 146.48863636363635,
                "pitch": 72,
                "velocity": 51,
                "duration": 1.60681818181817,
                "tempo": 120.0
            },
            {
                "start_time": 128.76363636363635,
                "end_time": 146.69545454545454,
                "pitch": 60,
                "velocity": 51,
                "duration": 17.931818181818187,
                "tempo": 120.0
            },
            {
                "start_time": 146.69545454545454,
                "end_time": 146.9,
                "pitch": 64,
                "velocity": 51,
                "duration": 0.20454545454546746,
                "tempo": 120.0
            },
            {
                "start_time": 146.9,
                "end_time": 147.10227272727272,
                "pitch": 64,
                "velocity": 51,
                "duration": 0.20227272727271384,
                "tempo": 120.0
            },
            {
                "start_time": 147.10227272727272,
                "end_time": 147.3022727272727,
                "pitch": 65,
                "velocity": 51,
                "duration": 0.19999999999998863,
                "tempo": 120.0
            },
            {
                "start_time": 147.3022727272727,
                "end_time": 147.50454545454545,
                "pitch": 64,
                "velocity": 51,
                "duration": 0.20227272727274226,
                "tempo": 120.0
            },
            {
                "start_time": 147.70681818181816,
                "end_time": 148.31136363636364,
                "pitch": 65,
                "velocity": 51,
                "duration": 0.6045454545454731,
                "tempo": 120.0
            },
            {
                "start_time": 148.31363636363636,
                "end_time": 148.5181818181818,
                "pitch": 64,
                "velocity": 51,
                "duration": 0.20454545454543904,
                "tempo": 120.0
            },
            {
                "start_time": 148.5181818181818,
                "end_time": 148.7159090909091,
                "pitch": 64,
                "velocity": 51,
                "duration": 0.19772727272729185,
                "tempo": 120.0
            },
            {
                "start_time": 148.7159090909091,
                "end_time": 148.91136363636363,
                "pitch": 65,
                "velocity": 51,
                "duration": 0.19545454545453822,
                "tempo": 120.0
            },
            {
                "start_time": 141.66136363636363,
                "end_time": 148.91136363636363,
                "pitch": 77,
                "velocity": 51,
                "duration": 7.25,
                "tempo": 120.0
            },
            {
                "start_time": 148.91136363636363,
                "end_time": 149.11363636363635,
                "pitch": 67,
                "velocity": 51,
                "duration": 0.20227272727271384,
                "tempo": 120.0
            },
            {
                "start_time": 142.66590909090908,
                "end_time": 149.31363636363636,
                "pitch": 0,
                "velocity": 51,
                "duration": 6.6477272727272805,
                "tempo": 120.0
            },
            {
                "start_time": 149.31363636363636,
                "end_time": 149.92272727272726,
                "pitch": 64,
                "velocity": 51,
                "duration": 0.6090909090908951,
                "tempo": 120.0
            },
            {
                "start_time": 149.92272727272726,
                "end_time": 150.12954545454545,
                "pitch": 64,
                "velocity": 51,
                "duration": 0.20681818181819267,
                "tempo": 120.0
            },
            {
                "start_time": 150.12954545454545,
                "end_time": 150.325,
                "pitch": 64,
                "velocity": 51,
                "duration": 0.19545454545453822,
                "tempo": 120.0
            },
            {
                "start_time": 150.325,
                "end_time": 150.52045454545453,
                "pitch": 65,
                "velocity": 51,
                "duration": 0.19545454545453822,
                "tempo": 120.0
            },
            {
                "start_time": 148.91136363636363,
                "end_time": 150.52272727272725,
                "pitch": 77,
                "velocity": 51,
                "duration": 1.6113636363636203,
                "tempo": 120.0
            },
            {
                "start_time": 130.775,
                "end_time": 150.72272727272727,
                "pitch": 69,
                "velocity": 51,
                "duration": 19.947727272727263,
                "tempo": 120.0
            },
            {
                "start_time": 150.52272727272725,
                "end_time": 150.72272727272727,
                "pitch": 69,
                "velocity": 51,
                "duration": 0.20000000000001705,
                "tempo": 120.0
            },
            {
                "start_time": 124.94318181818181,
                "end_time": 150.92499999999998,
                "pitch": 30,
                "velocity": 51,
                "duration": 25.98181818181817,
                "tempo": 120.0
            },
            {
                "start_time": 150.92499999999998,
                "end_time": 151.12727272727273,
                "pitch": 64,
                "velocity": 51,
                "duration": 0.20227272727274226,
                "tempo": 120.0
            },
            {
                "start_time": 146.69545454545454,
                "end_time": 151.3272727272727,
                "pitch": 60,
                "velocity": 51,
                "duration": 4.631818181818176,
                "tempo": 120.0
            },
            {
                "start_time": 151.12727272727273,
                "end_time": 151.3272727272727,
                "pitch": 60,
                "velocity": 51,
                "duration": 0.19999999999998863,
                "tempo": 120.0
            },
            {
                "start_time": 129.97045454545454,
                "end_time": 151.5340909090909,
                "pitch": 62,
                "velocity": 51,
                "duration": 21.563636363636363,
                "tempo": 120.0
            },
            {
                "start_time": 151.3272727272727,
                "end_time": 151.5340909090909,
                "pitch": 62,
                "velocity": 51,
                "duration": 0.20681818181819267,
                "tempo": 120.0
            },
            {
                "start_time": 151.12727272727273,
                "end_time": 152.13181818181818,
                "pitch": 64,
                "velocity": 51,
                "duration": 1.0045454545454504,
                "tempo": 120.0
            },
            {
                "start_time": 151.5340909090909,
                "end_time": 152.13181818181818,
                "pitch": 64,
                "velocity": 51,
                "duration": 0.5977272727272691,
                "tempo": 120.0
            },
            {
                "start_time": 151.5340909090909,
                "end_time": 152.2340909090909,
                "pitch": 62,
                "velocity": 51,
                "duration": 0.6999999999999886,
                "tempo": 120.0
            },
            {
                "start_time": 152.13181818181818,
                "end_time": 152.2340909090909,
                "pitch": 62,
                "velocity": 51,
                "duration": 0.10227272727271952,
                "tempo": 120.0
            },
            {
                "start_time": 152.13181818181818,
                "end_time": 152.33636363636364,
                "pitch": 64,
                "velocity": 51,
                "duration": 0.20454545454546746,
                "tempo": 120.0
            },
            {
                "start_time": 152.2340909090909,
                "end_time": 152.33636363636364,
                "pitch": 64,
                "velocity": 51,
                "duration": 0.10227272727274794,
                "tempo": 120.0
            },
            {
                "start_time": 152.2340909090909,
                "end_time": 152.73863636363635,
                "pitch": 62,
                "velocity": 51,
                "duration": 0.5045454545454504,
                "tempo": 120.0
            },
            {
                "start_time": 152.33636363636364,
                "end_time": 152.73863636363635,
                "pitch": 62,
                "velocity": 51,
                "duration": 0.40227272727270247,
                "tempo": 120.0
            },
            {
                "start_time": 152.73863636363635,
                "end_time": 152.74090909090907,
                "pitch": 62,
                "velocity": 51,
                "duration": 0.0022727272727252057,
                "tempo": 120.0
            },
            {
                "start_time": 151.3272727272727,
                "end_time": 152.93636363636364,
                "pitch": 60,
                "velocity": 51,
                "duration": 1.6090909090909236,
                "tempo": 120.0
            },
            {
                "start_time": 152.74090909090907,
                "end_time": 152.93636363636364,
                "pitch": 60,
                "velocity": 51,
                "duration": 0.19545454545456664,
                "tempo": 120.0
            },
            {
                "start_time": 152.93636363636364,
                "end_time": 153.14090909090908,
                "pitch": 62,
                "velocity": 51,
                "duration": 0.20454545454543904,
                "tempo": 120.0
            },
            {
                "start_time": 152.93636363636364,
                "end_time": 153.94545454545454,
                "pitch": 60,
                "velocity": 51,
                "duration": 1.0090909090909008,
                "tempo": 120.0
            },
            {
                "start_time": 153.14090909090908,
                "end_time": 153.94545454545454,
                "pitch": 60,
                "velocity": 51,
                "duration": 0.8045454545454618,
                "tempo": 120.0
            },
            {
                "start_time": 152.33636363636364,
                "end_time": 154.15,
                "pitch": 64,
                "velocity": 51,
                "duration": 1.8136363636363626,
                "tempo": 120.0
            },
            {
                "start_time": 128.36136363636362,
                "end_time": 154.35,
                "pitch": 57,
                "velocity": 51,
                "duration": 25.988636363636374,
                "tempo": 120.0
            },
            {
                "start_time": 154.15,
                "end_time": 154.35,
                "pitch": 57,
                "velocity": 51,
                "duration": 0.19999999999998863,
                "tempo": 120.0
            },
            {
                "start_time": 128.56136363636364,
                "end_time": 154.5522727272727,
                "pitch": 43,
                "velocity": 51,
                "duration": 25.99090909090907,
                "tempo": 120.0
            },
            {
                "start_time": 154.35227272727272,
                "end_time": 154.5522727272727,
                "pitch": 59,
                "velocity": 51,
                "duration": 0.19999999999998863,
                "tempo": 120.0
            },
            {
                "start_time": 154.5522727272727,
                "end_time": 154.75227272727273,
                "pitch": 60,
                "velocity": 51,
                "duration": 0.20000000000001705,
                "tempo": 120.0
            },
            {
                "start_time": 153.14090909090908,
                "end_time": 155.15681818181818,
                "pitch": 62,
                "velocity": 51,
                "duration": 2.015909090909105,
                "tempo": 120.0
            },
            {
                "start_time": 154.75227272727273,
                "end_time": 155.15681818181818,
                "pitch": 62,
                "velocity": 51,
                "duration": 0.4045454545454561,
                "tempo": 120.0
            },
            {
                "start_time": 154.15,
                "end_time": 155.35681818181817,
                "pitch": 64,
                "velocity": 51,
                "duration": 1.2068181818181642,
                "tempo": 120.0
            },
            {
                "start_time": 155.15681818181818,
                "end_time": 155.35681818181817,
                "pitch": 64,
                "velocity": 51,
                "duration": 0.19999999999998863,
                "tempo": 120.0
            },
            {
                "start_time": 155.15681818181818,
                "end_time": 155.5590909090909,
                "pitch": 62,
                "velocity": 51,
                "duration": 0.4022727272727309,
                "tempo": 120.0
            },
            {
                "start_time": 155.35681818181817,
                "end_time": 155.5590909090909,
                "pitch": 62,
                "velocity": 51,
                "duration": 0.20227272727274226,
                "tempo": 120.0
            },
            {
                "start_time": 155.76136363636363,
                "end_time": 155.96363636363637,
                "pitch": 62,
                "velocity": 51,
                "duration": 0.20227272727274226,
                "tempo": 120.0
            },
            {
                "start_time": 155.35681818181817,
                "end_time": 156.16363636363636,
                "pitch": 64,
                "velocity": 51,
                "duration": 0.806818181818187,
                "tempo": 120.0
            },
            {
                "start_time": 155.96363636363637,
                "end_time": 156.16363636363636,
                "pitch": 64,
                "velocity": 51,
                "duration": 0.19999999999998863,
                "tempo": 120.0
            },
            {
                "start_time": 156.16363636363636,
                "end_time": 156.36363636363635,
                "pitch": 64,
                "velocity": 51,
                "duration": 0.19999999999998863,
                "tempo": 120.0
            },
            {
                "start_time": 130.38181818181818,
                "end_time": 156.36363636363635,
                "pitch": 78,
                "velocity": 51,
                "duration": 25.98181818181817,
                "tempo": 120.0
            },
            {
                "start_time": 156.36363636363635,
                "end_time": 156.76590909090908,
                "pitch": 69,
                "velocity": 51,
                "duration": 0.4022727272727309,
                "tempo": 120.0
            },
            {
                "start_time": 134.00681818181818,
                "end_time": 157.17045454545453,
                "pitch": 55,
                "velocity": 51,
                "duration": 23.163636363636357,
                "tempo": 120.0
            },
            {
                "start_time": 135.01136363636363,
                "end_time": 157.17045454545453,
                "pitch": 71,
                "velocity": 51,
                "duration": 22.159090909090907,
                "tempo": 120.0
            },
            {
                "start_time": 156.76590909090908,
                "end_time": 157.17045454545453,
                "pitch": 71,
                "velocity": 51,
                "duration": 0.4045454545454561,
                "tempo": 120.0
            },
            {
                "start_time": 157.17045454545453,
                "end_time": 157.37045454545455,
                "pitch": 72,
                "velocity": 51,
                "duration": 0.20000000000001705,
                "tempo": 120.0
            },
            {
                "start_time": 144.88181818181818,
                "end_time": 157.57272727272726,
                "pitch": 74,
                "velocity": 51,
                "duration": 12.690909090909088,
                "tempo": 120.0
            },
            {
                "start_time": 157.37045454545455,
                "end_time": 157.57272727272726,
                "pitch": 74,
                "velocity": 51,
                "duration": 0.20227272727271384,
                "tempo": 120.0
            },
            {
                "start_time": 150.52272727272725,
                "end_time": 157.775,
                "pitch": 77,
                "velocity": 51,
                "duration": 7.252272727272754,
                "tempo": 120.0
            },
            {
                "start_time": 157.775,
                "end_time": 158.18636363636364,
                "pitch": 71,
                "velocity": 51,
                "duration": 0.4113636363636317,
                "tempo": 120.0
            },
            {
                "start_time": 157.17045454545453,
                "end_time": 158.38181818181818,
                "pitch": 55,
                "velocity": 51,
                "duration": 1.211363636363643,
                "tempo": 120.0
            },
            {
                "start_time": 158.18636363636364,
                "end_time": 158.38181818181818,
                "pitch": 71,
                "velocity": 51,
                "duration": 0.19545454545453822,
                "tempo": 120.0
            },
            {
                "start_time": 157.37045454545455,
                "end_time": 158.5772727272727,
                "pitch": 72,
                "velocity": 51,
                "duration": 1.2068181818181642,
                "tempo": 120.0
            },
            {
                "start_time": 158.38181818181818,
                "end_time": 158.5772727272727,
                "pitch": 72,
                "velocity": 51,
                "duration": 0.19545454545453822,
                "tempo": 120.0
            },
            {
                "start_time": 158.57954545454544,
                "end_time": 158.7840909090909,
                "pitch": 74,
                "velocity": 51,
                "duration": 0.20454545454546746,
                "tempo": 120.0
            },
            {
                "start_time": 158.98863636363635,
                "end_time": 159.1909090909091,
                "pitch": 74,
                "velocity": 51,
                "duration": 0.20227272727274226,
                "tempo": 120.0
            },
            {
                "start_time": 144.77954545454546,
                "end_time": 159.39090909090908,
                "pitch": 76,
                "velocity": 51,
                "duration": 14.61136363636362,
                "tempo": 120.0
            },
            {
                "start_time": 159.1909090909091,
                "end_time": 159.39090909090908,
                "pitch": 76,
                "velocity": 51,
                "duration": 0.19999999999998863,
                "tempo": 120.0
            },
            {
                "start_time": 159.1909090909091,
                "end_time": 159.5909090909091,
                "pitch": 74,
                "velocity": 51,
                "duration": 0.4000000000000057,
                "tempo": 120.0
            },
            {
                "start_time": 159.39090909090908,
                "end_time": 159.5909090909091,
                "pitch": 74,
                "velocity": 51,
                "duration": 0.20000000000001705,
                "tempo": 120.0
            },
            {
                "start_time": 158.57954545454544,
                "end_time": 159.7931818181818,
                "pitch": 72,
                "velocity": 51,
                "duration": 1.2136363636363683,
                "tempo": 120.0
            },
            {
                "start_time": 159.59318181818182,
                "end_time": 159.7931818181818,
                "pitch": 72,
                "velocity": 51,
                "duration": 0.19999999999998863,
                "tempo": 120.0
            },
            {
                "start_time": 159.39090909090908,
                "end_time": 159.7931818181818,
                "pitch": 76,
                "velocity": 51,
                "duration": 0.4022727272727309,
                "tempo": 120.0
            },
            {
                "start_time": 158.38181818181818,
                "end_time": 159.99545454545455,
                "pitch": 55,
                "velocity": 51,
                "duration": 1.613636363636374,
                "tempo": 120.0
            },
            {
                "start_time": 159.7931818181818,
                "end_time": 159.99545454545455,
                "pitch": 71,
                "velocity": 51,
                "duration": 0.20227272727274226,
                "tempo": 120.0
            },
            {
                "start_time": 159.59318181818182,
                "end_time": 160.19545454545454,
                "pitch": 74,
                "velocity": 51,
                "duration": 0.6022727272727195,
                "tempo": 120.0
            },
            {
                "start_time": 159.99545454545455,
                "end_time": 160.19545454545454,
                "pitch": 74,
                "velocity": 51,
                "duration": 0.19999999999998863,
                "tempo": 120.0
            },
            {
                "start_time": 160.19772727272726,
                "end_time": 160.3931818181818,
                "pitch": 72,
                "velocity": 51,
                "duration": 0.19545454545453822,
                "tempo": 120.0
            },
            {
                "start_time": 159.7931818181818,
                "end_time": 160.58863636363637,
                "pitch": 76,
                "velocity": 51,
                "duration": 0.795454545454561,
                "tempo": 120.0
            },
            {
                "start_time": 160.58863636363637,
                "end_time": 161.0,
                "pitch": 71,
                "velocity": 51,
                "duration": 0.4113636363636317,
                "tempo": 120.0
            },
            {
                "start_time": 161.0,
                "end_time": 161.2,
                "pitch": 67,
                "velocity": 51,
                "duration": 0.19999999999998863,
                "tempo": 120.0
            },
            {
                "start_time": 149.31363636363636,
                "end_time": 161.2022727272727,
                "pitch": 0,
                "velocity": 51,
                "duration": 11.888636363636351,
                "tempo": 120.0
            },
            {
                "start_time": 161.2022727272727,
                "end_time": 161.40227272727273,
                "pitch": 72,
                "velocity": 51,
                "duration": 0.20000000000001705,
                "tempo": 120.0
            },
            {
                "start_time": 160.58863636363637,
                "end_time": 161.40227272727273,
                "pitch": 76,
                "velocity": 51,
                "duration": 0.8136363636363626,
                "tempo": 120.0
            },
            {
                "start_time": 135.625,
                "end_time": 161.60227272727272,
                "pitch": 50,
                "velocity": 51,
                "duration": 25.97727272727272,
                "tempo": 120.0
            },
            {
                "start_time": 161.40227272727273,
                "end_time": 161.60227272727272,
                "pitch": 70,
                "velocity": 51,
                "duration": 0.19999999999998863,
                "tempo": 120.0
            },
            {
                "start_time": 160.19772727272726,
                "end_time": 161.80454545454543,
                "pitch": 74,
                "velocity": 51,
                "duration": 1.60681818181817,
                "tempo": 120.0
            },
            {
                "start_time": 161.60227272727272,
                "end_time": 161.80454545454543,
                "pitch": 74,
                "velocity": 51,
                "duration": 0.20227272727271384,
                "tempo": 120.0
            },
            {
                "start_time": 161.80454545454543,
                "end_time": 162.00681818181818,
                "pitch": 72,
                "velocity": 51,
                "duration": 0.20227272727274226,
                "tempo": 120.0
            },
            {
                "start_time": 161.80454545454543,
                "end_time": 162.81363636363636,
                "pitch": 74,
                "velocity": 51,
                "duration": 1.0090909090909292,
                "tempo": 120.0
            },
            {
                "start_time": 162.20681818181816,
                "end_time": 162.81363636363636,
                "pitch": 74,
                "velocity": 51,
                "duration": 0.6068181818181984,
                "tempo": 120.0
            },
            {
                "start_time": 161.40227272727273,
                "end_time": 163.01363636363635,
                "pitch": 76,
                "velocity": 51,
                "duration": 1.6113636363636203,
                "tempo": 120.0
            },
            {
                "start_time": 162.81363636363636,
                "end_time": 163.01363636363635,
                "pitch": 76,
                "velocity": 51,
                "duration": 0.19999999999998863,
                "tempo": 120.0
            },
            {
                "start_time": 162.81363636363636,
                "end_time": 163.21363636363637,
                "pitch": 74,
                "velocity": 51,
                "duration": 0.4000000000000057,
                "tempo": 120.0
            },
            {
                "start_time": 163.01363636363635,
                "end_time": 163.21363636363637,
                "pitch": 74,
                "velocity": 51,
                "duration": 0.20000000000001705,
                "tempo": 120.0
            },
            {
                "start_time": 140.65454545454546,
                "end_time": 163.2159090909091,
                "pitch": 89,
                "velocity": 51,
                "duration": 22.561363636363637,
                "tempo": 120.0
            },
            {
                "start_time": 163.21363636363637,
                "end_time": 163.2159090909091,
                "pitch": 89,
                "velocity": 51,
                "duration": 0.0022727272727252057,
                "tempo": 120.0
            },
            {
                "start_time": 163.2159090909091,
                "end_time": 163.41363636363636,
                "pitch": 81,
                "velocity": 51,
                "duration": 0.19772727272726343,
                "tempo": 120.0
            },
            {
                "start_time": 163.41590909090908,
                "end_time": 163.61590909090907,
                "pitch": 81,
                "velocity": 51,
                "duration": 0.19999999999998863,
                "tempo": 120.0
            },
            {
                "start_time": 161.2022727272727,
                "end_time": 163.8181818181818,
                "pitch": 0,
                "velocity": 51,
                "duration": 2.615909090909099,
                "tempo": 120.0
            },
            {
                "start_time": 157.775,
                "end_time": 164.22045454545454,
                "pitch": 77,
                "velocity": 51,
                "duration": 6.445454545454538,
                "tempo": 120.0
            },
            {
                "start_time": 163.8181818181818,
                "end_time": 164.22045454545454,
                "pitch": 77,
                "velocity": 51,
                "duration": 0.4022727272727309,
                "tempo": 120.0
            },
            {
                "start_time": 142.2681818181818,
                "end_time": 164.22045454545454,
                "pitch": 90,
                "velocity": 51,
                "duration": 21.952272727272742,
                "tempo": 120.0
            },
            {
                "start_time": 163.8181818181818,
                "end_time": 164.42272727272726,
                "pitch": 0,
                "velocity": 51,
                "duration": 0.6045454545454447,
                "tempo": 120.0
            },
            {
                "start_time": 164.22045454545454,
                "end_time": 164.42272727272726,
                "pitch": 79,
                "velocity": 51,
                "duration": 0.20227272727271384,
                "tempo": 120.0
            },
            {
                "start_time": 164.42272727272726,
                "end_time": 165.02727272727273,
                "pitch": 77,
                "velocity": 51,
                "duration": 0.6045454545454731,
                "tempo": 120.0
            },
            {
                "start_time": 164.22045454545454,
                "end_time": 165.02727272727273,
                "pitch": 90,
                "velocity": 51,
                "duration": 0.806818181818187,
                "tempo": 120.0
            },
            {
                "start_time": 164.42272727272726,
                "end_time": 165.12727272727273,
                "pitch": 0,
                "velocity": 51,
                "duration": 0.7045454545454675,
                "tempo": 120.0
            },
            {
                "start_time": 165.02727272727273,
                "end_time": 165.12727272727273,
                "pitch": 79,
                "velocity": 51,
                "duration": 0.09999999999999432,
                "tempo": 120.0
            },
            {
                "start_time": 165.12727272727273,
                "end_time": 165.22727272727272,
                "pitch": 77,
                "velocity": 51,
                "duration": 0.09999999999999432,
                "tempo": 120.0
            },
            {
                "start_time": 163.01363636363635,
                "end_time": 165.62954545454545,
                "pitch": 76,
                "velocity": 51,
                "duration": 2.615909090909099,
                "tempo": 120.0
            },
            {
                "start_time": 165.22727272727272,
                "end_time": 165.62954545454545,
                "pitch": 77,
                "velocity": 51,
                "duration": 0.4022727272727309,
                "tempo": 120.0
            },
            {
                "start_time": 162.20681818181816,
                "end_time": 165.83181818181816,
                "pitch": 72,
                "velocity": 51,
                "duration": 3.625,
                "tempo": 120.0
            },
            {
                "start_time": 165.62954545454545,
                "end_time": 165.83181818181816,
                "pitch": 72,
                "velocity": 51,
                "duration": 0.20227272727271384,
                "tempo": 120.0
            },
            {
                "start_time": 165.83181818181816,
                "end_time": 166.0340909090909,
                "pitch": 74,
                "velocity": 51,
                "duration": 0.20227272727274226,
                "tempo": 120.0
            },
            {
                "start_time": 165.62954545454545,
                "end_time": 166.2340909090909,
                "pitch": 76,
                "velocity": 51,
                "duration": 0.6045454545454447,
                "tempo": 120.0
            },
            {
                "start_time": 166.0340909090909,
                "end_time": 166.2340909090909,
                "pitch": 76,
                "velocity": 51,
                "duration": 0.19999999999998863,
                "tempo": 120.0
            },
            {
                "start_time": 166.2340909090909,
                "end_time": 166.43636363636364,
                "pitch": 76,
                "velocity": 51,
                "duration": 0.20227272727274226,
                "tempo": 120.0
            },
            {
                "start_time": 166.43636363636364,
                "end_time": 166.63863636363635,
                "pitch": 77,
                "velocity": 51,
                "duration": 0.20227272727271384,
                "tempo": 120.0
            },
            {
                "start_time": 166.63863636363635,
                "end_time": 166.83863636363637,
                "pitch": 81,
                "velocity": 51,
                "duration": 0.20000000000001705,
                "tempo": 120.0
            },
            {
                "start_time": 167.04090909090908,
                "end_time": 167.42499999999998,
                "pitch": 81,
                "velocity": 51,
                "duration": 0.3840909090909008,
                "tempo": 120.0
            },
            {
                "start_time": 165.12727272727273,
                "end_time": 167.4431818181818,
                "pitch": 0,
                "velocity": 51,
                "duration": 2.315909090909088,
                "tempo": 120.0
            },
            {
                "start_time": 167.4431818181818,
                "end_time": 167.64772727272725,
                "pitch": 77,
                "velocity": 51,
                "duration": 0.20454545454543904,
                "tempo": 120.0
            },
            {
                "start_time": 166.0340909090909,
                "end_time": 167.85227272727272,
                "pitch": 74,
                "velocity": 51,
                "duration": 1.818181818181813,
                "tempo": 120.0
            },
            {
                "start_time": 167.64772727272725,
                "end_time": 167.85227272727272,
                "pitch": 74,
                "velocity": 51,
                "duration": 0.20454545454546746,
                "tempo": 120.0
            },
            {
                "start_time": 167.85227272727272,
                "end_time": 168.04999999999998,
                "pitch": 76,
                "velocity": 51,
                "duration": 0.19772727272726343,
                "tempo": 120.0
            },
            {
                "start_time": 168.04999999999998,
                "end_time": 168.24545454545455,
                "pitch": 76,
                "velocity": 51,
                "duration": 0.19545454545456664,
                "tempo": 120.0
            },
            {
                "start_time": 165.02727272727273,
                "end_time": 168.24545454545455,
                "pitch": 90,
                "velocity": 51,
                "duration": 3.2181818181818187,
                "tempo": 120.0
            },
            {
                "start_time": 168.24545454545455,
                "end_time": 168.45,
                "pitch": 79,
                "velocity": 51,
                "duration": 0.20454545454543904,
                "tempo": 120.0
            },
            {
                "start_time": 167.4431818181818,
                "end_time": 168.65681818181818,
                "pitch": 0,
                "velocity": 51,
                "duration": 1.2136363636363683,
                "tempo": 120.0
            },
            {
                "start_time": 167.85227272727272,
                "end_time": 168.8590909090909,
                "pitch": 74,
                "velocity": 51,
                "duration": 1.0068181818181756,
                "tempo": 120.0
            },
            {
                "start_time": 168.65681818181818,
                "end_time": 168.8590909090909,
                "pitch": 74,
                "velocity": 51,
                "duration": 0.20227272727271384,
                "tempo": 120.0
            },
            {
                "start_time": 168.8590909090909,
                "end_time": 169.0590909090909,
                "pitch": 76,
                "velocity": 51,
                "duration": 0.20000000000001705,
                "tempo": 120.0
            },
            {
                "start_time": 165.83181818181816,
                "end_time": 169.15681818181818,
                "pitch": 72,
                "velocity": 51,
                "duration": 3.325000000000017,
                "tempo": 120.0
            },
            {
                "start_time": 169.06136363636364,
                "end_time": 169.15681818181818,
                "pitch": 72,
                "velocity": 51,
                "duration": 0.0954545454545439,
                "tempo": 120.0
            },
            {
                "start_time": 168.8590909090909,
                "end_time": 169.25681818181818,
                "pitch": 74,
                "velocity": 51,
                "duration": 0.3977272727272805,
                "tempo": 120.0
            },
            {
                "start_time": 169.15681818181818,
                "end_time": 169.25681818181818,
                "pitch": 74,
                "velocity": 51,
                "duration": 0.09999999999999432,
                "tempo": 120.0
            },
            {
                "start_time": 169.15681818181818,
                "end_time": 170.46363636363637,
                "pitch": 72,
                "velocity": 51,
                "duration": 1.306818181818187,
                "tempo": 120.0
            },
            {
                "start_time": 169.25681818181818,
                "end_time": 170.46363636363637,
                "pitch": 72,
                "velocity": 51,
                "duration": 1.2068181818181927,
                "tempo": 120.0
            },
            {
                "start_time": 169.06136363636364,
                "end_time": 170.76136363636363,
                "pitch": 76,
                "velocity": 51,
                "duration": 1.6999999999999886,
                "tempo": 120.0
            },
            {
                "start_time": 170.6590909090909,
                "end_time": 170.76136363636363,
                "pitch": 76,
                "velocity": 51,
                "duration": 0.10227272727271952,
                "tempo": 120.0
            },
            {
                "start_time": 169.25681818181818,
                "end_time": 170.86363636363635,
                "pitch": 74,
                "velocity": 51,
                "duration": 1.60681818181817,
                "tempo": 120.0
            },
            {
                "start_time": 170.76136363636363,
                "end_time": 170.86363636363635,
                "pitch": 74,
                "velocity": 51,
                "duration": 0.10227272727271952,
                "tempo": 120.0
            },
            {
                "start_time": 170.6590909090909,
                "end_time": 172.27954545454546,
                "pitch": 72,
                "velocity": 51,
                "duration": 1.6204545454545496,
                "tempo": 120.0
            },
            {
                "start_time": 170.86590909090907,
                "end_time": 172.27954545454546,
                "pitch": 72,
                "velocity": 51,
                "duration": 1.4136363636363853,
                "tempo": 120.0
            }
        ],
        "Oboe": [
            {
                "start_time": 65.9590909090909,
                "end_time": 66.36136363636363,
                "pitch": 65,
                "velocity": 127,
                "duration": 0.4022727272727309,
                "tempo": 120.0
            },
            {
                "start_time": 66.36136363636363,
                "end_time": 66.55681818181817,
                "pitch": 65,
                "velocity": 127,
                "duration": 0.19545454545453822,
                "tempo": 120.0
            },
            {
                "start_time": 66.55909090909091,
                "end_time": 66.75454545454545,
                "pitch": 64,
                "velocity": 127,
                "duration": 0.19545454545453822,
                "tempo": 120.0
            },
            {
                "start_time": 66.95454545454545,
                "end_time": 67.15454545454546,
                "pitch": 65,
                "velocity": 127,
                "duration": 0.20000000000000284,
                "tempo": 120.0
            },
            {
                "start_time": 67.36136363636363,
                "end_time": 67.81590909090909,
                "pitch": 67,
                "velocity": 127,
                "duration": 0.45454545454545325,
                "tempo": 120.0
            },
            {
                "start_time": 67.81590909090909,
                "end_time": 67.95,
                "pitch": 67,
                "velocity": 127,
                "duration": 0.13409090909091503,
                "tempo": 120.0
            },
            {
                "start_time": 67.81590909090909,
                "end_time": 67.95,
                "pitch": 79,
                "velocity": 127,
                "duration": 0.13409090909091503,
                "tempo": 120.0
            },
            {
                "start_time": 67.95,
                "end_time": 67.9659090909091,
                "pitch": 67,
                "velocity": 127,
                "duration": 0.01590909090909065,
                "tempo": 120.0
            },
            {
                "start_time": 68.35909090909091,
                "end_time": 68.56363636363636,
                "pitch": 65,
                "velocity": 127,
                "duration": 0.20454545454545325,
                "tempo": 120.0
            },
            {
                "start_time": 68.77045454545454,
                "end_time": 68.97272727272727,
                "pitch": 64,
                "velocity": 127,
                "duration": 0.20227272727272805,
                "tempo": 120.0
            },
            {
                "start_time": 69.175,
                "end_time": 69.97727272727272,
                "pitch": 65,
                "velocity": 127,
                "duration": 0.8022727272727224,
                "tempo": 120.0
            },
            {
                "start_time": 69.97954545454544,
                "end_time": 70.17954545454545,
                "pitch": 62,
                "velocity": 127,
                "duration": 0.20000000000000284,
                "tempo": 120.0
            },
            {
                "start_time": 69.97954545454544,
                "end_time": 70.38181818181818,
                "pitch": 64,
                "velocity": 127,
                "duration": 0.4022727272727309,
                "tempo": 120.0
            },
            {
                "start_time": 70.17954545454545,
                "end_time": 70.38181818181818,
                "pitch": 64,
                "velocity": 127,
                "duration": 0.20227272727272805,
                "tempo": 120.0
            },
            {
                "start_time": 70.17954545454545,
                "end_time": 70.58181818181818,
                "pitch": 62,
                "velocity": 127,
                "duration": 0.4022727272727309,
                "tempo": 120.0
            },
            {
                "start_time": 70.38181818181818,
                "end_time": 70.58181818181818,
                "pitch": 62,
                "velocity": 127,
                "duration": 0.20000000000000284,
                "tempo": 120.0
            },
            {
                "start_time": 65.9590909090909,
                "end_time": 71.58863636363635,
                "pitch": 60,
                "velocity": 127,
                "duration": 5.62954545454545,
                "tempo": 120.0
            },
            {
                "start_time": 70.58181818181818,
                "end_time": 71.58863636363635,
                "pitch": 60,
                "velocity": 127,
                "duration": 1.0068181818181756,
                "tempo": 120.0
            },
            {
                "start_time": 70.58181818181818,
                "end_time": 71.98863636363636,
                "pitch": 62,
                "velocity": 127,
                "duration": 1.4068181818181813,
                "tempo": 120.0
            },
            {
                "start_time": 71.78863636363636,
                "end_time": 71.98863636363636,
                "pitch": 62,
                "velocity": 127,
                "duration": 0.20000000000000284,
                "tempo": 120.0
            },
            {
                "start_time": 70.38181818181818,
                "end_time": 72.19090909090909,
                "pitch": 64,
                "velocity": 127,
                "duration": 1.8090909090909122,
                "tempo": 120.0
            },
            {
                "start_time": 71.98863636363636,
                "end_time": 72.19090909090909,
                "pitch": 64,
                "velocity": 127,
                "duration": 0.20227272727272805,
                "tempo": 120.0
            },
            {
                "start_time": 67.36136363636363,
                "end_time": 72.19090909090909,
                "pitch": 78,
                "velocity": 127,
                "duration": 4.829545454545453,
                "tempo": 120.0
            },
            {
                "start_time": 72.19090909090909,
                "end_time": 72.39318181818182,
                "pitch": 67,
                "velocity": 127,
                "duration": 0.20227272727272805,
                "tempo": 120.0
            },
            {
                "start_time": 72.39318181818182,
                "end_time": 72.59772727272727,
                "pitch": 67,
                "velocity": 127,
                "duration": 0.20454545454545325,
                "tempo": 120.0
            },
            {
                "start_time": 72.59772727272727,
                "end_time": 72.80227272727272,
                "pitch": 69,
                "velocity": 127,
                "duration": 0.20454545454545325,
                "tempo": 120.0
            },
            {
                "start_time": 72.80454545454545,
                "end_time": 73.0,
                "pitch": 68,
                "velocity": 127,
                "duration": 0.19545454545455243,
                "tempo": 120.0
            },
            {
                "start_time": 73.0,
                "end_time": 73.19545454545454,
                "pitch": 69,
                "velocity": 127,
                "duration": 0.19545454545453822,
                "tempo": 120.0
            },
            {
                "start_time": 73.19545454545454,
                "end_time": 73.39772727272727,
                "pitch": 68,
                "velocity": 127,
                "duration": 0.20227272727272805,
                "tempo": 120.0
            },
            {
                "start_time": 73.39772727272727,
                "end_time": 73.6,
                "pitch": 69,
                "velocity": 127,
                "duration": 0.20227272727272805,
                "tempo": 120.0
            },
            {
                "start_time": 73.6,
                "end_time": 73.8,
                "pitch": 69,
                "velocity": 127,
                "duration": 0.20000000000000284,
                "tempo": 120.0
            },
            {
                "start_time": 73.8,
                "end_time": 74.0,
                "pitch": 68,
                "velocity": 127,
                "duration": 0.20000000000000284,
                "tempo": 120.0
            },
            {
                "start_time": 74.20681818181818,
                "end_time": 74.41136363636363,
                "pitch": 69,
                "velocity": 127,
                "duration": 0.20454545454545325,
                "tempo": 120.0
            },
            {
                "start_time": 74.41136363636363,
                "end_time": 74.60681818181818,
                "pitch": 69,
                "velocity": 127,
                "duration": 0.19545454545455243,
                "tempo": 120.0
            },
            {
                "start_time": 74.60681818181818,
                "end_time": 75.0090909090909,
                "pitch": 68,
                "velocity": 127,
                "duration": 0.4022727272727167,
                "tempo": 120.0
            },
            {
                "start_time": 75.0090909090909,
                "end_time": 75.21363636363635,
                "pitch": 69,
                "velocity": 127,
                "duration": 0.20454545454545325,
                "tempo": 120.0
            },
            {
                "start_time": 75.21363636363635,
                "end_time": 75.41136363636363,
                "pitch": 72,
                "velocity": 127,
                "duration": 0.19772727272727764,
                "tempo": 120.0
            },
            {
                "start_time": 75.41136363636363,
                "end_time": 75.60681818181818,
                "pitch": 74,
                "velocity": 127,
                "duration": 0.19545454545455243,
                "tempo": 120.0
            },
            {
                "start_time": 75.41136363636363,
                "end_time": 75.80681818181817,
                "pitch": 72,
                "velocity": 127,
                "duration": 0.39545454545454106,
                "tempo": 120.0
            },
            {
                "start_time": 75.60909090909091,
                "end_time": 75.80681818181817,
                "pitch": 72,
                "velocity": 127,
                "duration": 0.19772727272726343,
                "tempo": 120.0
            },
            {
                "start_time": 76.0090909090909,
                "end_time": 76.21363636363635,
                "pitch": 72,
                "velocity": 127,
                "duration": 0.20454545454545325,
                "tempo": 120.0
            },
            {
                "start_time": 76.42045454545455,
                "end_time": 76.62045454545454,
                "pitch": 72,
                "velocity": 127,
                "duration": 0.19999999999998863,
                "tempo": 120.0
            },
            {
                "start_time": 76.62045454545454,
                "end_time": 76.82272727272726,
                "pitch": 72,
                "velocity": 127,
                "duration": 0.20227272727272805,
                "tempo": 120.0
            },
            {
                "start_time": 75.60909090909091,
                "end_time": 77.01818181818182,
                "pitch": 74,
                "velocity": 127,
                "duration": 1.4090909090909065,
                "tempo": 120.0
            },
            {
                "start_time": 76.82272727272726,
                "end_time": 77.01818181818182,
                "pitch": 74,
                "velocity": 127,
                "duration": 0.19545454545455243,
                "tempo": 120.0
            },
            {
                "start_time": 77.02045454545454,
                "end_time": 78.8340909090909,
                "pitch": 76,
                "velocity": 127,
                "duration": 1.8136363636363626,
                "tempo": 120.0
            },
            {
                "start_time": 78.8340909090909,
                "end_time": 79.43409090909091,
                "pitch": 76,
                "velocity": 127,
                "duration": 0.6000000000000085,
                "tempo": 120.0
            },
            {
                "start_time": 76.82272727272726,
                "end_time": 80.04090909090908,
                "pitch": 72,
                "velocity": 127,
                "duration": 3.2181818181818187,
                "tempo": 120.0
            },
            {
                "start_time": 79.43409090909091,
                "end_time": 80.04090909090908,
                "pitch": 72,
                "velocity": 127,
                "duration": 0.6068181818181699,
                "tempo": 120.0
            },
            {
                "start_time": 79.43409090909091,
                "end_time": 81.23636363636363,
                "pitch": 77,
                "velocity": 127,
                "duration": 1.8022727272727224,
                "tempo": 120.0
            },
            {
                "start_time": 80.04090909090908,
                "end_time": 81.23636363636363,
                "pitch": 77,
                "velocity": 127,
                "duration": 1.1954545454545524,
                "tempo": 120.0
            },
            {
                "start_time": 81.23636363636363,
                "end_time": 81.44318181818181,
                "pitch": 77,
                "velocity": 127,
                "duration": 0.20681818181817846,
                "tempo": 120.0
            },
            {
                "start_time": 81.44318181818181,
                "end_time": 81.64772727272727,
                "pitch": 76,
                "velocity": 127,
                "duration": 0.20454545454545325,
                "tempo": 120.0
            },
            {
                "start_time": 81.64772727272727,
                "end_time": 81.64999999999999,
                "pitch": 90,
                "velocity": 127,
                "duration": 0.0022727272727252057,
                "tempo": 120.0
            },
            {
                "start_time": 67.95,
                "end_time": 81.85,
                "pitch": 79,
                "velocity": 127,
                "duration": 13.899999999999991,
                "tempo": 120.0
            },
            {
                "start_time": 81.64999999999999,
                "end_time": 81.85,
                "pitch": 79,
                "velocity": 127,
                "duration": 0.20000000000000284,
                "tempo": 120.0
            },
            {
                "start_time": 81.85,
                "end_time": 82.05227272727272,
                "pitch": 79,
                "velocity": 127,
                "duration": 0.20227272727272805,
                "tempo": 120.0
            },
            {
                "start_time": 82.05227272727272,
                "end_time": 82.25227272727273,
                "pitch": 76,
                "velocity": 127,
                "duration": 0.20000000000000284,
                "tempo": 120.0
            },
            {
                "start_time": 82.25227272727273,
                "end_time": 82.45227272727273,
                "pitch": 76,
                "velocity": 127,
                "duration": 0.20000000000000284,
                "tempo": 120.0
            },
            {
                "start_time": 82.45227272727273,
                "end_time": 82.65454545454546,
                "pitch": 77,
                "velocity": 127,
                "duration": 0.20227272727272805,
                "tempo": 120.0
            },
            {
                "start_time": 82.65454545454546,
                "end_time": 82.85681818181818,
                "pitch": 76,
                "velocity": 127,
                "duration": 0.20227272727272805,
                "tempo": 120.0
            },
            {
                "start_time": 82.85681818181818,
                "end_time": 83.05681818181817,
                "pitch": 79,
                "velocity": 127,
                "duration": 0.19999999999998863,
                "tempo": 120.0
            },
            {
                "start_time": 80.04090909090908,
                "end_time": 83.2590909090909,
                "pitch": 72,
                "velocity": 127,
                "duration": 3.2181818181818187,
                "tempo": 120.0
            },
            {
                "start_time": 77.02045454545454,
                "end_time": 83.4590909090909,
                "pitch": 74,
                "velocity": 127,
                "duration": 6.438636363636363,
                "tempo": 120.0
            },
            {
                "start_time": 83.2590909090909,
                "end_time": 83.4590909090909,
                "pitch": 74,
                "velocity": 127,
                "duration": 0.20000000000000284,
                "tempo": 120.0
            },
            {
                "start_time": 83.2590909090909,
                "end_time": 84.475,
                "pitch": 72,
                "velocity": 127,
                "duration": 1.2159090909090935,
                "tempo": 120.0
            },
            {
                "start_time": 83.4590909090909,
                "end_time": 84.475,
                "pitch": 72,
                "velocity": 127,
                "duration": 1.0159090909090907,
                "tempo": 120.0
            },
            {
                "start_time": 75.21363636363635,
                "end_time": 84.87727272727273,
                "pitch": 56,
                "velocity": 127,
                "duration": 9.663636363636371,
                "tempo": 120.0
            },
            {
                "start_time": 84.67727272727272,
                "end_time": 84.87727272727273,
                "pitch": 71,
                "velocity": 127,
                "duration": 0.20000000000000284,
                "tempo": 120.0
            },
            {
                "start_time": 84.87727272727273,
                "end_time": 85.075,
                "pitch": 72,
                "velocity": 127,
                "duration": 0.19772727272727764,
                "tempo": 120.0
            },
            {
                "start_time": 83.4590909090909,
                "end_time": 85.27045454545454,
                "pitch": 74,
                "velocity": 127,
                "duration": 1.8113636363636374,
                "tempo": 120.0
            },
            {
                "start_time": 85.075,
                "end_time": 85.27045454545454,
                "pitch": 74,
                "velocity": 127,
                "duration": 0.19545454545453822,
                "tempo": 120.0
            },
            {
                "start_time": 85.27045454545454,
                "end_time": 85.68181818181817,
                "pitch": 69,
                "velocity": 127,
                "duration": 0.4113636363636317,
                "tempo": 120.0
            },
            {
                "start_time": 85.68181818181817,
                "end_time": 86.01590909090909,
                "pitch": 69,
                "velocity": 127,
                "duration": 0.3340909090909179,
                "tempo": 120.0
            },
            {
                "start_time": 84.87727272727273,
                "end_time": 86.08181818181818,
                "pitch": 56,
                "velocity": 127,
                "duration": 1.2045454545454533,
                "tempo": 120.0
            },
            {
                "start_time": 86.01590909090909,
                "end_time": 86.08181818181818,
                "pitch": 71,
                "velocity": 127,
                "duration": 0.06590909090908781,
                "tempo": 120.0
            },
            {
                "start_time": 85.075,
                "end_time": 86.48636363636363,
                "pitch": 72,
                "velocity": 127,
                "duration": 1.4113636363636317,
                "tempo": 120.0
            },
            {
                "start_time": 86.08181818181818,
                "end_time": 86.48636363636363,
                "pitch": 72,
                "velocity": 127,
                "duration": 0.4045454545454561,
                "tempo": 120.0
            },
            {
                "start_time": 85.27045454545454,
                "end_time": 86.69090909090909,
                "pitch": 77,
                "velocity": 127,
                "duration": 1.4204545454545467,
                "tempo": 120.0
            },
            {
                "start_time": 86.48636363636363,
                "end_time": 86.69090909090909,
                "pitch": 77,
                "velocity": 127,
                "duration": 0.20454545454545325,
                "tempo": 120.0
            },
            {
                "start_time": 86.69090909090909,
                "end_time": 87.3,
                "pitch": 77,
                "velocity": 127,
                "duration": 0.6090909090909093,
                "tempo": 120.0
            },
            {
                "start_time": 84.67727272727272,
                "end_time": 87.70454545454545,
                "pitch": 76,
                "velocity": 127,
                "duration": 3.027272727272731,
                "tempo": 120.0
            },
            {
                "start_time": 87.3,
                "end_time": 87.70454545454545,
                "pitch": 76,
                "velocity": 127,
                "duration": 0.4045454545454561,
                "tempo": 120.0
            },
            {
                "start_time": 82.85681818181818,
                "end_time": 87.70454545454545,
                "pitch": 90,
                "velocity": 127,
                "duration": 4.847727272727269,
                "tempo": 120.0
            },
            {
                "start_time": 87.70454545454545,
                "end_time": 88.09545454545454,
                "pitch": 79,
                "velocity": 127,
                "duration": 0.39090909090909065,
                "tempo": 120.0
            },
            {
                "start_time": 88.09545454545454,
                "end_time": 88.43181818181817,
                "pitch": 79,
                "velocity": 127,
                "duration": 0.33636363636362887,
                "tempo": 120.0
            },
            {
                "start_time": 88.43181818181817,
                "end_time": 88.5,
                "pitch": 81,
                "velocity": 127,
                "duration": 0.06818181818182723,
                "tempo": 120.0
            },
            {
                "start_time": 88.5,
                "end_time": 88.90227272727272,
                "pitch": 81,
                "velocity": 127,
                "duration": 0.4022727272727167,
                "tempo": 120.0
            },
            {
                "start_time": 88.90227272727272,
                "end_time": 89.23636363636363,
                "pitch": 79,
                "velocity": 127,
                "duration": 0.3340909090909179,
                "tempo": 120.0
            },
            {
                "start_time": 89.23636363636363,
                "end_time": 89.30227272727272,
                "pitch": 81,
                "velocity": 127,
                "duration": 0.06590909090908781,
                "tempo": 120.0
            },
            {
                "start_time": 89.30454545454545,
                "end_time": 89.63863636363637,
                "pitch": 81,
                "velocity": 127,
                "duration": 0.3340909090909179,
                "tempo": 120.0
            },
            {
                "start_time": 89.63863636363637,
                "end_time": 89.70681818181818,
                "pitch": 83,
                "velocity": 127,
                "duration": 0.06818181818181301,
                "tempo": 120.0
            },
            {
                "start_time": 89.70681818181818,
                "end_time": 89.90681818181818,
                "pitch": 84,
                "velocity": 127,
                "duration": 0.20000000000000284,
                "tempo": 120.0
            },
            {
                "start_time": 89.90681818181818,
                "end_time": 90.31136363636364,
                "pitch": 83,
                "velocity": 127,
                "duration": 0.4045454545454561,
                "tempo": 120.0
            },
            {
                "start_time": 89.70681818181818,
                "end_time": 90.51818181818182,
                "pitch": 68,
                "velocity": 127,
                "duration": 0.8113636363636374,
                "tempo": 120.0
            },
            {
                "start_time": 90.31363636363636,
                "end_time": 90.51818181818182,
                "pitch": 83,
                "velocity": 127,
                "duration": 0.20454545454545325,
                "tempo": 120.0
            },
            {
                "start_time": 90.51818181818182,
                "end_time": 90.71818181818182,
                "pitch": 84,
                "velocity": 127,
                "duration": 0.20000000000000284,
                "tempo": 120.0
            },
            {
                "start_time": 90.71818181818182,
                "end_time": 91.12045454545454,
                "pitch": 86,
                "velocity": 127,
                "duration": 0.4022727272727167,
                "tempo": 120.0
            },
            {
                "start_time": 91.12045454545454,
                "end_time": 91.32272727272726,
                "pitch": 86,
                "velocity": 127,
                "duration": 0.20227272727272805,
                "tempo": 120.0
            },
            {
                "start_time": 89.90681818181818,
                "end_time": 91.52272727272727,
                "pitch": 88,
                "velocity": 127,
                "duration": 1.615909090909085,
                "tempo": 120.0
            },
            {
                "start_time": 91.32272727272726,
                "end_time": 91.52272727272727,
                "pitch": 88,
                "velocity": 127,
                "duration": 0.20000000000000284,
                "tempo": 120.0
            },
            {
                "start_time": 91.52499999999999,
                "end_time": 91.725,
                "pitch": 91,
                "velocity": 127,
                "duration": 0.20000000000000284,
                "tempo": 120.0
            },
            {
                "start_time": 71.78863636363636,
                "end_time": 172.27954545454546,
                "pitch": 60,
                "velocity": 127,
                "duration": 100.4909090909091,
                "tempo": 120.0
            },
            {
                "start_time": 172.27954545454546,
                "end_time": 172.67954545454543,
                "pitch": 65,
                "velocity": 127,
                "duration": 0.39999999999997726,
                "tempo": 120.0
            },
            {
                "start_time": 172.6818181818182,
                "end_time": 172.87727272727273,
                "pitch": 65,
                "velocity": 127,
                "duration": 0.19545454545453822,
                "tempo": 120.0
            },
            {
                "start_time": 172.87727272727273,
                "end_time": 173.07272727272726,
                "pitch": 64,
                "velocity": 127,
                "duration": 0.19545454545453822,
                "tempo": 120.0
            },
            {
                "start_time": 173.27954545454546,
                "end_time": 173.4840909090909,
                "pitch": 65,
                "velocity": 127,
                "duration": 0.20454545454543904,
                "tempo": 120.0
            },
            {
                "start_time": 72.19090909090909,
                "end_time": 173.6840909090909,
                "pitch": 78,
                "velocity": 127,
                "duration": 101.49318181818182,
                "tempo": 120.0
            },
            {
                "start_time": 173.6840909090909,
                "end_time": 174.13636363636363,
                "pitch": 67,
                "velocity": 127,
                "duration": 0.45227272727271384,
                "tempo": 120.0
            },
            {
                "start_time": 174.13636363636363,
                "end_time": 174.27045454545453,
                "pitch": 67,
                "velocity": 127,
                "duration": 0.13409090909090082,
                "tempo": 120.0
            },
            {
                "start_time": 174.13636363636363,
                "end_time": 174.27045454545453,
                "pitch": 79,
                "velocity": 127,
                "duration": 0.13409090909090082,
                "tempo": 120.0
            },
            {
                "start_time": 174.27045454545453,
                "end_time": 174.28863636363636,
                "pitch": 67,
                "velocity": 127,
                "duration": 0.018181818181830067,
                "tempo": 120.0
            },
            {
                "start_time": 174.6818181818182,
                "end_time": 174.88636363636363,
                "pitch": 65,
                "velocity": 127,
                "duration": 0.20454545454543904,
                "tempo": 120.0
            },
            {
                "start_time": 175.09318181818182,
                "end_time": 175.2931818181818,
                "pitch": 64,
                "velocity": 127,
                "duration": 0.19999999999998863,
                "tempo": 120.0
            },
            {
                "start_time": 175.49545454545455,
                "end_time": 176.29999999999998,
                "pitch": 65,
                "velocity": 127,
                "duration": 0.8045454545454334,
                "tempo": 120.0
            },
            {
                "start_time": 71.98863636363636,
                "end_time": 176.50454545454545,
                "pitch": 62,
                "velocity": 127,
                "duration": 104.51590909090909,
                "tempo": 120.0
            },
            {
                "start_time": 176.29999999999998,
                "end_time": 176.50454545454545,
                "pitch": 62,
                "velocity": 127,
                "duration": 0.20454545454546746,
                "tempo": 120.0
            },
            {
                "start_time": 176.29999999999998,
                "end_time": 176.71136363636361,
                "pitch": 64,
                "velocity": 127,
                "duration": 0.4113636363636317,
                "tempo": 120.0
            },
            {
                "start_time": 176.50454545454545,
                "end_time": 176.71136363636361,
                "pitch": 64,
                "velocity": 127,
                "duration": 0.20681818181816425,
                "tempo": 120.0
            },
            {
                "start_time": 176.50454545454545,
                "end_time": 176.90681818181818,
                "pitch": 62,
                "velocity": 127,
                "duration": 0.4022727272727309,
                "tempo": 120.0
            },
            {
                "start_time": 176.71136363636361,
                "end_time": 176.90681818181818,
                "pitch": 62,
                "velocity": 127,
                "duration": 0.19545454545456664,
                "tempo": 120.0
            },
            {
                "start_time": 172.27954545454546,
                "end_time": 177.9181818181818,
                "pitch": 60,
                "velocity": 127,
                "duration": 5.638636363636351,
                "tempo": 120.0
            },
            {
                "start_time": 176.90681818181818,
                "end_time": 177.9181818181818,
                "pitch": 60,
                "velocity": 127,
                "duration": 1.011363636363626,
                "tempo": 120.0
            },
            {
                "start_time": 176.90681818181818,
                "end_time": 178.32045454545454,
                "pitch": 62,
                "velocity": 127,
                "duration": 1.413636363636357,
                "tempo": 120.0
            },
            {
                "start_time": 178.12045454545455,
                "end_time": 178.32045454545454,
                "pitch": 62,
                "velocity": 127,
                "duration": 0.19999999999998863,
                "tempo": 120.0
            },
            {
                "start_time": 176.71136363636361,
                "end_time": 178.5181818181818,
                "pitch": 64,
                "velocity": 127,
                "duration": 1.806818181818187,
                "tempo": 120.0
            },
            {
                "start_time": 178.32045454545454,
                "end_time": 178.5181818181818,
                "pitch": 64,
                "velocity": 127,
                "duration": 0.19772727272726343,
                "tempo": 120.0
            },
            {
                "start_time": 173.6840909090909,
                "end_time": 178.5181818181818,
                "pitch": 78,
                "velocity": 127,
                "duration": 4.8340909090908895,
                "tempo": 120.0
            },
            {
                "start_time": 178.5181818181818,
                "end_time": 178.71363636363637,
                "pitch": 67,
                "velocity": 127,
                "duration": 0.19545454545456664,
                "tempo": 120.0
            },
            {
                "start_time": 178.71363636363637,
                "end_time": 178.9181818181818,
                "pitch": 67,
                "velocity": 127,
                "duration": 0.20454545454543904,
                "tempo": 120.0
            },
            {
                "start_time": 178.92045454545453,
                "end_time": 179.125,
                "pitch": 69,
                "velocity": 127,
                "duration": 0.20454545454546746,
                "tempo": 120.0
            },
            {
                "start_time": 90.51818181818182,
                "end_time": 179.32045454545454,
                "pitch": 68,
                "velocity": 127,
                "duration": 88.80227272727272,
                "tempo": 120.0
            },
            {
                "start_time": 179.125,
                "end_time": 179.32045454545454,
                "pitch": 68,
                "velocity": 127,
                "duration": 0.19545454545453822,
                "tempo": 120.0
            },
            {
                "start_time": 179.32045454545454,
                "end_time": 179.5181818181818,
                "pitch": 69,
                "velocity": 127,
                "duration": 0.19772727272726343,
                "tempo": 120.0
            },
            {
                "start_time": 179.5181818181818,
                "end_time": 179.71818181818182,
                "pitch": 68,
                "velocity": 127,
                "duration": 0.20000000000001705,
                "tempo": 120.0
            },
            {
                "start_time": 179.71818181818182,
                "end_time": 179.9181818181818,
                "pitch": 69,
                "velocity": 127,
                "duration": 0.19999999999998863,
                "tempo": 120.0
            }
        ],
        "Acoustic Grand Piano": [
            {
                "start_time": 65.96136363636363,
                "end_time": 66.16136363636363,
                "pitch": 53,
                "velocity": 40,
                "duration": 0.20000000000000284,
                "tempo": 120.0
            },
            {
                "start_time": 66.16136363636363,
                "end_time": 66.36136363636363,
                "pitch": 53,
                "velocity": 40,
                "duration": 0.20000000000000284,
                "tempo": 120.0
            },
            {
                "start_time": 67.56590909090909,
                "end_time": 67.76818181818182,
                "pitch": 53,
                "velocity": 40,
                "duration": 0.20227272727272805,
                "tempo": 120.0
            },
            {
                "start_time": 67.76818181818182,
                "end_time": 67.96818181818182,
                "pitch": 53,
                "velocity": 40,
                "duration": 0.20000000000000284,
                "tempo": 120.0
            },
            {
                "start_time": 65.96136363636363,
                "end_time": 69.375,
                "pitch": 48,
                "velocity": 40,
                "duration": 3.413636363636371,
                "tempo": 120.0
            },
            {
                "start_time": 69.175,
                "end_time": 69.375,
                "pitch": 48,
                "velocity": 40,
                "duration": 0.20000000000000284,
                "tempo": 120.0
            },
            {
                "start_time": 69.37727272727273,
                "end_time": 69.57727272727273,
                "pitch": 48,
                "velocity": 40,
                "duration": 0.20000000000000284,
                "tempo": 120.0
            },
            {
                "start_time": 69.57727272727273,
                "end_time": 69.77727272727273,
                "pitch": 52,
                "velocity": 40,
                "duration": 0.20000000000000284,
                "tempo": 120.0
            },
            {
                "start_time": 69.77954545454546,
                "end_time": 69.97954545454544,
                "pitch": 55,
                "velocity": 40,
                "duration": 0.19999999999998863,
                "tempo": 120.0
            },
            {
                "start_time": 69.97954545454544,
                "end_time": 70.17954545454545,
                "pitch": 58,
                "velocity": 40,
                "duration": 0.20000000000000284,
                "tempo": 120.0
            },
            {
                "start_time": 70.17954545454545,
                "end_time": 70.18181818181817,
                "pitch": 38,
                "velocity": 40,
                "duration": 0.0022727272727252057,
                "tempo": 120.0
            },
            {
                "start_time": 70.18181818181817,
                "end_time": 70.78181818181818,
                "pitch": 60,
                "velocity": 40,
                "duration": 0.6000000000000085,
                "tempo": 120.0
            },
            {
                "start_time": 69.57727272727273,
                "end_time": 70.98409090909091,
                "pitch": 48,
                "velocity": 40,
                "duration": 1.4068181818181813,
                "tempo": 120.0
            },
            {
                "start_time": 70.78181818181818,
                "end_time": 70.98409090909091,
                "pitch": 48,
                "velocity": 40,
                "duration": 0.20227272727272805,
                "tempo": 120.0
            },
            {
                "start_time": 70.98409090909091,
                "end_time": 71.18636363636364,
                "pitch": 48,
                "velocity": 40,
                "duration": 0.20227272727272805,
                "tempo": 120.0
            },
            {
                "start_time": 71.18636363636364,
                "end_time": 71.38636363636363,
                "pitch": 52,
                "velocity": 40,
                "duration": 0.19999999999998863,
                "tempo": 120.0
            },
            {
                "start_time": 69.77954545454546,
                "end_time": 71.38636363636363,
                "pitch": 66,
                "velocity": 40,
                "duration": 1.60681818181817,
                "tempo": 120.0
            },
            {
                "start_time": 69.97954545454544,
                "end_time": 71.58863636363635,
                "pitch": 55,
                "velocity": 40,
                "duration": 1.6090909090909093,
                "tempo": 120.0
            },
            {
                "start_time": 71.38636363636363,
                "end_time": 71.58863636363635,
                "pitch": 55,
                "velocity": 40,
                "duration": 0.20227272727272805,
                "tempo": 120.0
            },
            {
                "start_time": 71.58863636363635,
                "end_time": 71.78863636363636,
                "pitch": 58,
                "velocity": 40,
                "duration": 0.20000000000000284,
                "tempo": 120.0
            },
            {
                "start_time": 71.18636363636364,
                "end_time": 72.39318181818182,
                "pitch": 48,
                "velocity": 40,
                "duration": 1.2068181818181785,
                "tempo": 120.0
            },
            {
                "start_time": 71.78863636363636,
                "end_time": 72.39318181818182,
                "pitch": 60,
                "velocity": 40,
                "duration": 0.6045454545454589,
                "tempo": 120.0
            },
            {
                "start_time": 69.175,
                "end_time": 72.59772727272727,
                "pitch": 53,
                "velocity": 40,
                "duration": 3.422727272727272,
                "tempo": 120.0
            },
            {
                "start_time": 72.39318181818182,
                "end_time": 72.59772727272727,
                "pitch": 53,
                "velocity": 40,
                "duration": 0.20454545454545325,
                "tempo": 120.0
            },
            {
                "start_time": 72.59772727272727,
                "end_time": 72.80454545454545,
                "pitch": 53,
                "velocity": 40,
                "duration": 0.20681818181817846,
                "tempo": 120.0
            },
            {
                "start_time": 74.0,
                "end_time": 74.20681818181818,
                "pitch": 53,
                "velocity": 40,
                "duration": 0.20681818181817846,
                "tempo": 120.0
            },
            {
                "start_time": 74.20681818181818,
                "end_time": 74.41136363636363,
                "pitch": 53,
                "velocity": 40,
                "duration": 0.20454545454545325,
                "tempo": 120.0
            },
            {
                "start_time": 72.39318181818182,
                "end_time": 75.80909090909091,
                "pitch": 48,
                "velocity": 40,
                "duration": 3.4159090909090963,
                "tempo": 120.0
            },
            {
                "start_time": 75.60909090909091,
                "end_time": 75.80909090909091,
                "pitch": 48,
                "velocity": 40,
                "duration": 0.20000000000000284,
                "tempo": 120.0
            },
            {
                "start_time": 75.80909090909091,
                "end_time": 76.0090909090909,
                "pitch": 48,
                "velocity": 40,
                "duration": 0.19999999999998863,
                "tempo": 120.0
            },
            {
                "start_time": 76.0090909090909,
                "end_time": 76.21363636363635,
                "pitch": 52,
                "velocity": 40,
                "duration": 0.20454545454545325,
                "tempo": 120.0
            },
            {
                "start_time": 76.21363636363635,
                "end_time": 76.42045454545455,
                "pitch": 52,
                "velocity": 40,
                "duration": 0.20681818181819267,
                "tempo": 120.0
            },
            {
                "start_time": 76.42045454545455,
                "end_time": 76.62272727272727,
                "pitch": 52,
                "velocity": 40,
                "duration": 0.20227272727272805,
                "tempo": 120.0
            },
            {
                "start_time": 75.60909090909091,
                "end_time": 76.82272727272726,
                "pitch": 53,
                "velocity": 40,
                "duration": 1.213636363636354,
                "tempo": 120.0
            },
            {
                "start_time": 76.62272727272727,
                "end_time": 76.82272727272726,
                "pitch": 53,
                "velocity": 40,
                "duration": 0.19999999999998863,
                "tempo": 120.0
            },
            {
                "start_time": 76.82272727272726,
                "end_time": 77.02045454545454,
                "pitch": 53,
                "velocity": 40,
                "duration": 0.19772727272727764,
                "tempo": 120.0
            },
            {
                "start_time": 71.38636363636363,
                "end_time": 77.02045454545454,
                "pitch": 66,
                "velocity": 40,
                "duration": 5.634090909090915,
                "tempo": 120.0
            },
            {
                "start_time": 71.58863636363635,
                "end_time": 77.41818181818181,
                "pitch": 55,
                "velocity": 40,
                "duration": 5.829545454545453,
                "tempo": 120.0
            },
            {
                "start_time": 77.02045454545454,
                "end_time": 77.41818181818181,
                "pitch": 55,
                "velocity": 40,
                "duration": 0.39772727272726627,
                "tempo": 120.0
            },
            {
                "start_time": 77.41818181818181,
                "end_time": 77.61818181818181,
                "pitch": 55,
                "velocity": 40,
                "duration": 0.20000000000000284,
                "tempo": 120.0
            },
            {
                "start_time": 77.825,
                "end_time": 78.02954545454546,
                "pitch": 60,
                "velocity": 40,
                "duration": 0.20454545454545325,
                "tempo": 120.0
            },
            {
                "start_time": 78.03181818181818,
                "end_time": 78.23181818181818,
                "pitch": 62,
                "velocity": 40,
                "duration": 0.20000000000000284,
                "tempo": 120.0
            },
            {
                "start_time": 78.23181818181818,
                "end_time": 78.43181818181817,
                "pitch": 62,
                "velocity": 40,
                "duration": 0.19999999999998863,
                "tempo": 120.0
            },
            {
                "start_time": 78.43181818181817,
                "end_time": 78.63181818181818,
                "pitch": 62,
                "velocity": 40,
                "duration": 0.20000000000000284,
                "tempo": 120.0
            },
            {
                "start_time": 78.6340909090909,
                "end_time": 78.8340909090909,
                "pitch": 63,
                "velocity": 40,
                "duration": 0.20000000000000284,
                "tempo": 120.0
            },
            {
                "start_time": 78.83636363636363,
                "end_time": 79.03636363636363,
                "pitch": 52,
                "velocity": 40,
                "duration": 0.20000000000000284,
                "tempo": 120.0
            },
            {
                "start_time": 79.03636363636363,
                "end_time": 79.23636363636363,
                "pitch": 53,
                "velocity": 40,
                "duration": 0.20000000000000284,
                "tempo": 120.0
            },
            {
                "start_time": 80.44318181818181,
                "end_time": 80.64318181818182,
                "pitch": 53,
                "velocity": 40,
                "duration": 0.20000000000000284,
                "tempo": 120.0
            },
            {
                "start_time": 80.64318181818182,
                "end_time": 80.84545454545454,
                "pitch": 53,
                "velocity": 40,
                "duration": 0.20227272727272805,
                "tempo": 120.0
            },
            {
                "start_time": 76.0090909090909,
                "end_time": 82.25227272727273,
                "pitch": 48,
                "velocity": 40,
                "duration": 6.243181818181824,
                "tempo": 120.0
            },
            {
                "start_time": 82.05227272727272,
                "end_time": 82.25227272727273,
                "pitch": 48,
                "velocity": 40,
                "duration": 0.20000000000000284,
                "tempo": 120.0
            },
            {
                "start_time": 82.25227272727273,
                "end_time": 82.45227272727273,
                "pitch": 48,
                "velocity": 40,
                "duration": 0.20000000000000284,
                "tempo": 120.0
            },
            {
                "start_time": 82.45454545454545,
                "end_time": 82.65454545454546,
                "pitch": 52,
                "velocity": 40,
                "duration": 0.20000000000000284,
                "tempo": 120.0
            },
            {
                "start_time": 77.02045454545454,
                "end_time": 82.65454545454546,
                "pitch": 66,
                "velocity": 40,
                "duration": 5.634090909090915,
                "tempo": 120.0
            },
            {
                "start_time": 82.65454545454546,
                "end_time": 82.85681818181818,
                "pitch": 55,
                "velocity": 40,
                "duration": 0.20227272727272805,
                "tempo": 120.0
            },
            {
                "start_time": 71.78863636363636,
                "end_time": 83.0590909090909,
                "pitch": 38,
                "velocity": 40,
                "duration": 11.270454545454541,
                "tempo": 120.0
            },
            {
                "start_time": 82.85681818181818,
                "end_time": 83.0590909090909,
                "pitch": 58,
                "velocity": 40,
                "duration": 0.20227272727271384,
                "tempo": 120.0
            },
            {
                "start_time": 78.03181818181818,
                "end_time": 83.6590909090909,
                "pitch": 60,
                "velocity": 40,
                "duration": 5.627272727272725,
                "tempo": 120.0
            },
            {
                "start_time": 83.0590909090909,
                "end_time": 83.6590909090909,
                "pitch": 60,
                "velocity": 40,
                "duration": 0.6000000000000085,
                "tempo": 120.0
            },
            {
                "start_time": 82.45454545454545,
                "end_time": 83.86590909090908,
                "pitch": 48,
                "velocity": 40,
                "duration": 1.4113636363636317,
                "tempo": 120.0
            },
            {
                "start_time": 83.66136363636363,
                "end_time": 83.86590909090908,
                "pitch": 48,
                "velocity": 40,
                "duration": 0.20454545454545325,
                "tempo": 120.0
            },
            {
                "start_time": 83.86590909090908,
                "end_time": 84.07045454545454,
                "pitch": 48,
                "velocity": 40,
                "duration": 0.20454545454545325,
                "tempo": 120.0
            },
            {
                "start_time": 84.07272727272726,
                "end_time": 84.27272727272727,
                "pitch": 52,
                "velocity": 40,
                "duration": 0.20000000000000284,
                "tempo": 120.0
            },
            {
                "start_time": 82.65454545454546,
                "end_time": 84.27272727272727,
                "pitch": 66,
                "velocity": 40,
                "duration": 1.6181818181818102,
                "tempo": 120.0
            },
            {
                "start_time": 82.85681818181818,
                "end_time": 84.475,
                "pitch": 55,
                "velocity": 40,
                "duration": 1.6181818181818102,
                "tempo": 120.0
            },
            {
                "start_time": 84.27272727272727,
                "end_time": 84.475,
                "pitch": 55,
                "velocity": 40,
                "duration": 0.20227272727272805,
                "tempo": 120.0
            },
            {
                "start_time": 83.0590909090909,
                "end_time": 84.67727272727272,
                "pitch": 38,
                "velocity": 40,
                "duration": 1.6181818181818244,
                "tempo": 120.0
            },
            {
                "start_time": 84.475,
                "end_time": 84.67727272727272,
                "pitch": 58,
                "velocity": 40,
                "duration": 0.20227272727272805,
                "tempo": 120.0
            },
            {
                "start_time": 84.67727272727272,
                "end_time": 85.27045454545454,
                "pitch": 60,
                "velocity": 40,
                "duration": 0.5931818181818187,
                "tempo": 120.0
            },
            {
                "start_time": 84.07272727272726,
                "end_time": 85.4590909090909,
                "pitch": 48,
                "velocity": 40,
                "duration": 1.3863636363636402,
                "tempo": 120.0
            },
            {
                "start_time": 85.27272727272727,
                "end_time": 85.4590909090909,
                "pitch": 48,
                "velocity": 32,
                "duration": 0.1863636363636374,
                "tempo": 120.0
            },
            {
                "start_time": 85.47727272727272,
                "end_time": 85.56136363636364,
                "pitch": 48,
                "velocity": 32,
                "duration": 0.08409090909091788,
                "tempo": 120.0
            },
            {
                "start_time": 85.57954545454545,
                "end_time": 85.66363636363636,
                "pitch": 48,
                "velocity": 32,
                "duration": 0.08409090909090366,
                "tempo": 120.0
            },
            {
                "start_time": 85.68181818181817,
                "end_time": 85.86590909090908,
                "pitch": 48,
                "velocity": 32,
                "duration": 0.1840909090909122,
                "tempo": 120.0
            },
            {
                "start_time": 85.88181818181818,
                "end_time": 85.9659090909091,
                "pitch": 48,
                "velocity": 32,
                "duration": 0.08409090909091788,
                "tempo": 120.0
            },
            {
                "start_time": 85.98181818181818,
                "end_time": 86.06590909090909,
                "pitch": 48,
                "velocity": 32,
                "duration": 0.08409090909090366,
                "tempo": 120.0
            },
            {
                "start_time": 86.0840909090909,
                "end_time": 86.26590909090909,
                "pitch": 48,
                "velocity": 32,
                "duration": 0.18181818181818699,
                "tempo": 120.0
            },
            {
                "start_time": 86.2840909090909,
                "end_time": 86.36818181818181,
                "pitch": 48,
                "velocity": 32,
                "duration": 0.08409090909090366,
                "tempo": 120.0
            },
            {
                "start_time": 86.3840909090909,
                "end_time": 86.46818181818182,
                "pitch": 48,
                "velocity": 32,
                "duration": 0.08409090909091788,
                "tempo": 120.0
            },
            {
                "start_time": 86.48636363636363,
                "end_time": 86.67272727272727,
                "pitch": 48,
                "velocity": 32,
                "duration": 0.1863636363636374,
                "tempo": 120.0
            },
            {
                "start_time": 86.69090909090909,
                "end_time": 86.77727272727272,
                "pitch": 48,
                "velocity": 32,
                "duration": 0.08636363636362887,
                "tempo": 120.0
            },
            {
                "start_time": 86.79318181818181,
                "end_time": 86.87954545454545,
                "pitch": 48,
                "velocity": 32,
                "duration": 0.08636363636364308,
                "tempo": 120.0
            },
            {
                "start_time": 86.89772727272727,
                "end_time": 87.08181818181818,
                "pitch": 48,
                "velocity": 32,
                "duration": 0.1840909090909122,
                "tempo": 120.0
            },
            {
                "start_time": 87.1,
                "end_time": 87.18181818181817,
                "pitch": 48,
                "velocity": 32,
                "duration": 0.08181818181817846,
                "tempo": 120.0
            },
            {
                "start_time": 87.2,
                "end_time": 87.2840909090909,
                "pitch": 48,
                "velocity": 32,
                "duration": 0.08409090909090366,
                "tempo": 120.0
            },
            {
                "start_time": 87.30227272727272,
                "end_time": 87.48409090909091,
                "pitch": 48,
                "velocity": 32,
                "duration": 0.18181818181818699,
                "tempo": 120.0
            },
            {
                "start_time": 87.50227272727273,
                "end_time": 87.58636363636363,
                "pitch": 48,
                "velocity": 32,
                "duration": 0.08409090909090366,
                "tempo": 120.0
            },
            {
                "start_time": 87.60227272727272,
                "end_time": 87.68636363636364,
                "pitch": 48,
                "velocity": 32,
                "duration": 0.08409090909091788,
                "tempo": 120.0
            },
            {
                "start_time": 87.70454545454545,
                "end_time": 87.8840909090909,
                "pitch": 48,
                "velocity": 32,
                "duration": 0.17954545454544757,
                "tempo": 120.0
            },
            {
                "start_time": 87.89999999999999,
                "end_time": 87.98181818181818,
                "pitch": 48,
                "velocity": 32,
                "duration": 0.08181818181819267,
                "tempo": 120.0
            },
            {
                "start_time": 87.99772727272727,
                "end_time": 88.07954545454545,
                "pitch": 48,
                "velocity": 32,
                "duration": 0.08181818181817846,
                "tempo": 120.0
            },
            {
                "start_time": 88.09772727272727,
                "end_time": 88.27954545454546,
                "pitch": 48,
                "velocity": 32,
                "duration": 0.18181818181818699,
                "tempo": 120.0
            },
            {
                "start_time": 88.29772727272727,
                "end_time": 88.38181818181818,
                "pitch": 48,
                "velocity": 32,
                "duration": 0.08409090909090366,
                "tempo": 120.0
            },
            {
                "start_time": 88.39999999999999,
                "end_time": 88.48181818181818,
                "pitch": 48,
                "velocity": 32,
                "duration": 0.08181818181819267,
                "tempo": 120.0
            },
            {
                "start_time": 88.5,
                "end_time": 88.6840909090909,
                "pitch": 50,
                "velocity": 32,
                "duration": 0.18409090909089798,
                "tempo": 120.0
            },
            {
                "start_time": 88.70227272727273,
                "end_time": 88.7840909090909,
                "pitch": 50,
                "velocity": 32,
                "duration": 0.08181818181817846,
                "tempo": 120.0
            },
            {
                "start_time": 88.80227272727272,
                "end_time": 88.88636363636363,
                "pitch": 50,
                "velocity": 32,
                "duration": 0.08409090909090366,
                "tempo": 120.0
            },
            {
                "start_time": 88.90454545454546,
                "end_time": 89.08636363636363,
                "pitch": 50,
                "velocity": 32,
                "duration": 0.18181818181817277,
                "tempo": 120.0
            },
            {
                "start_time": 89.10227272727272,
                "end_time": 89.18636363636364,
                "pitch": 50,
                "velocity": 32,
                "duration": 0.08409090909091788,
                "tempo": 120.0
            },
            {
                "start_time": 89.20227272727273,
                "end_time": 89.28636363636363,
                "pitch": 50,
                "velocity": 32,
                "duration": 0.08409090909090366,
                "tempo": 120.0
            },
            {
                "start_time": 89.30454545454545,
                "end_time": 89.48863636363636,
                "pitch": 50,
                "velocity": 32,
                "duration": 0.1840909090909122,
                "tempo": 120.0
            },
            {
                "start_time": 89.50454545454545,
                "end_time": 89.58863636363635,
                "pitch": 50,
                "velocity": 32,
                "duration": 0.08409090909090366,
                "tempo": 120.0
            },
            {
                "start_time": 89.60454545454544,
                "end_time": 89.68863636363636,
                "pitch": 50,
                "velocity": 32,
                "duration": 0.08409090909091788,
                "tempo": 120.0
            },
            {
                "start_time": 89.70681818181818,
                "end_time": 89.88863636363637,
                "pitch": 50,
                "velocity": 32,
                "duration": 0.18181818181818699,
                "tempo": 120.0
            },
            {
                "start_time": 89.90681818181818,
                "end_time": 89.98863636363636,
                "pitch": 50,
                "velocity": 32,
                "duration": 0.08181818181817846,
                "tempo": 120.0
            },
            {
                "start_time": 90.00681818181818,
                "end_time": 90.0909090909091,
                "pitch": 50,
                "velocity": 32,
                "duration": 0.08409090909091788,
                "tempo": 120.0
            },
            {
                "start_time": 90.10681818181818,
                "end_time": 90.29545454545455,
                "pitch": 50,
                "velocity": 32,
                "duration": 0.1886363636363626,
                "tempo": 120.0
            },
            {
                "start_time": 90.31363636363636,
                "end_time": 90.39772727272727,
                "pitch": 50,
                "velocity": 32,
                "duration": 0.08409090909090366,
                "tempo": 120.0
            },
            {
                "start_time": 90.41590909090908,
                "end_time": 90.5,
                "pitch": 50,
                "velocity": 32,
                "duration": 0.08409090909091788,
                "tempo": 120.0
            },
            {
                "start_time": 90.51818181818182,
                "end_time": 90.70227272727273,
                "pitch": 50,
                "velocity": 32,
                "duration": 0.1840909090909122,
                "tempo": 120.0
            },
            {
                "start_time": 90.72045454545454,
                "end_time": 90.80227272727272,
                "pitch": 50,
                "velocity": 32,
                "duration": 0.08181818181817846,
                "tempo": 120.0
            },
            {
                "start_time": 90.81818181818181,
                "end_time": 90.90227272727272,
                "pitch": 50,
                "velocity": 32,
                "duration": 0.08409090909090366,
                "tempo": 120.0
            },
            {
                "start_time": 88.5,
                "end_time": 172.27954545454546,
                "pitch": 48,
                "velocity": 32,
                "duration": 83.77954545454546,
                "tempo": 120.0
            },
            {
                "start_time": 82.05227272727272,
                "end_time": 172.47954545454544,
                "pitch": 53,
                "velocity": 40,
                "duration": 90.42727272727272,
                "tempo": 120.0
            },
            {
                "start_time": 172.27954545454546,
                "end_time": 172.47954545454544,
                "pitch": 53,
                "velocity": 40,
                "duration": 0.19999999999998863,
                "tempo": 120.0
            },
            {
                "start_time": 172.47954545454544,
                "end_time": 172.6818181818182,
                "pitch": 53,
                "velocity": 40,
                "duration": 0.20227272727274226,
                "tempo": 120.0
            },
            {
                "start_time": 173.88636363636363,
                "end_time": 174.08636363636361,
                "pitch": 53,
                "velocity": 40,
                "duration": 0.19999999999998863,
                "tempo": 120.0
            },
            {
                "start_time": 174.08636363636361,
                "end_time": 174.28863636363636,
                "pitch": 53,
                "velocity": 40,
                "duration": 0.20227272727274226,
                "tempo": 120.0
            },
            {
                "start_time": 172.27954545454546,
                "end_time": 175.69545454545454,
                "pitch": 48,
                "velocity": 40,
                "duration": 3.415909090909082,
                "tempo": 120.0
            },
            {
                "start_time": 175.49772727272727,
                "end_time": 175.69545454545454,
                "pitch": 48,
                "velocity": 40,
                "duration": 0.19772727272726343,
                "tempo": 120.0
            },
            {
                "start_time": 175.69545454545454,
                "end_time": 175.89545454545453,
                "pitch": 48,
                "velocity": 40,
                "duration": 0.19999999999998863,
                "tempo": 120.0
            },
            {
                "start_time": 175.89772727272725,
                "end_time": 176.09772727272727,
                "pitch": 52,
                "velocity": 40,
                "duration": 0.20000000000001705,
                "tempo": 120.0
            },
            {
                "start_time": 84.27272727272727,
                "end_time": 176.09772727272727,
                "pitch": 66,
                "velocity": 40,
                "duration": 91.825,
                "tempo": 120.0
            },
            {
                "start_time": 84.475,
                "end_time": 176.29999999999998,
                "pitch": 55,
                "velocity": 40,
                "duration": 91.82499999999999,
                "tempo": 120.0
            },
            {
                "start_time": 176.09772727272727,
                "end_time": 176.29999999999998,
                "pitch": 55,
                "velocity": 40,
                "duration": 0.20227272727271384,
                "tempo": 120.0
            },
            {
                "start_time": 176.29999999999998,
                "end_time": 176.50454545454545,
                "pitch": 58,
                "velocity": 40,
                "duration": 0.20454545454546746,
                "tempo": 120.0
            },
            {
                "start_time": 84.67727272727272,
                "end_time": 176.50681818181818,
                "pitch": 38,
                "velocity": 40,
                "duration": 91.82954545454545,
                "tempo": 120.0
            },
            {
                "start_time": 176.50681818181818,
                "end_time": 177.10454545454544,
                "pitch": 60,
                "velocity": 40,
                "duration": 0.5977272727272691,
                "tempo": 120.0
            },
            {
                "start_time": 175.89772727272725,
                "end_time": 177.3090909090909,
                "pitch": 48,
                "velocity": 40,
                "duration": 1.4113636363636601,
                "tempo": 120.0
            },
            {
                "start_time": 177.10454545454544,
                "end_time": 177.3090909090909,
                "pitch": 48,
                "velocity": 40,
                "duration": 0.20454545454546746,
                "tempo": 120.0
            },
            {
                "start_time": 177.3090909090909,
                "end_time": 177.51590909090908,
                "pitch": 48,
                "velocity": 40,
                "duration": 0.20681818181816425,
                "tempo": 120.0
            },
            {
                "start_time": 177.51590909090908,
                "end_time": 177.7159090909091,
                "pitch": 52,
                "velocity": 40,
                "duration": 0.20000000000001705,
                "tempo": 120.0
            },
            {
                "start_time": 176.09772727272727,
                "end_time": 177.7159090909091,
                "pitch": 66,
                "velocity": 40,
                "duration": 1.6181818181818244,
                "tempo": 120.0
            },
            {
                "start_time": 176.29999999999998,
                "end_time": 177.9181818181818,
                "pitch": 55,
                "velocity": 40,
                "duration": 1.6181818181818244,
                "tempo": 120.0
            },
            {
                "start_time": 177.7159090909091,
                "end_time": 177.9181818181818,
                "pitch": 55,
                "velocity": 40,
                "duration": 0.20227272727271384,
                "tempo": 120.0
            },
            {
                "start_time": 176.50681818181818,
                "end_time": 178.12045454545455,
                "pitch": 38,
                "velocity": 40,
                "duration": 1.613636363636374,
                "tempo": 120.0
            },
            {
                "start_time": 177.9181818181818,
                "end_time": 178.12045454545455,
                "pitch": 58,
                "velocity": 40,
                "duration": 0.20227272727274226,
                "tempo": 120.0
            },
            {
                "start_time": 178.12045454545455,
                "end_time": 178.71363636363637,
                "pitch": 60,
                "velocity": 40,
                "duration": 0.5931818181818187,
                "tempo": 120.0
            },
            {
                "start_time": 177.51590909090908,
                "end_time": 178.7159090909091,
                "pitch": 48,
                "velocity": 40,
                "duration": 1.200000000000017,
                "tempo": 120.0
            },
            {
                "start_time": 175.49772727272727,
                "end_time": 178.92045454545453,
                "pitch": 53,
                "velocity": 40,
                "duration": 3.4227272727272577,
                "tempo": 120.0
            },
            {
                "start_time": 178.7159090909091,
                "end_time": 178.92045454545453,
                "pitch": 53,
                "velocity": 40,
                "duration": 0.20454545454543904,
                "tempo": 120.0
            },
            {
                "start_time": 178.92045454545453,
                "end_time": 179.125,
                "pitch": 53,
                "velocity": 40,
                "duration": 0.20454545454546746,
                "tempo": 120.0
            }
        ],
        "Violin": [
            {
                "start_time": 91.12272727272727,
                "end_time": 91.33863636363635,
                "pitch": 67,
                "velocity": 127,
                "duration": 0.21590909090907928,
                "tempo": 120.0
            },
            {
                "start_time": 91.33863636363635,
                "end_time": 91.45681818181818,
                "pitch": 65,
                "velocity": 127,
                "duration": 0.11818181818182438,
                "tempo": 120.0
            },
            {
                "start_time": 91.45681818181818,
                "end_time": 91.55681818181817,
                "pitch": 63,
                "velocity": 127,
                "duration": 0.09999999999999432,
                "tempo": 120.0
            },
            {
                "start_time": 91.55681818181817,
                "end_time": 91.64090909090909,
                "pitch": 61,
                "velocity": 127,
                "duration": 0.08409090909091788,
                "tempo": 120.0
            },
            {
                "start_time": 91.64090909090909,
                "end_time": 91.7090909090909,
                "pitch": 58,
                "velocity": 127,
                "duration": 0.06818181818181301,
                "tempo": 120.0
            }
        ],
        "Acoustic Guitar (nylon)": [
            {
                "start_time": 0.00909090909090909,
                "end_time": 0.06818181818181818,
                "pitch": 67,
                "velocity": 80,
                "duration": 0.05909090909090908,
                "tempo": 120.0
            },
            {
                "start_time": 0.10454545454545454,
                "end_time": 0.16818181818181818,
                "pitch": 67,
                "velocity": 80,
                "duration": 0.06363636363636364,
                "tempo": 120.0
            },
            {
                "start_time": 0.3045454545454545,
                "end_time": 0.3704545454545454,
                "pitch": 67,
                "velocity": 80,
                "duration": 0.06590909090909092,
                "tempo": 120.0
            },
            {
                "start_time": 0.5045454545454545,
                "end_time": 0.5681818181818181,
                "pitch": 67,
                "velocity": 80,
                "duration": 0.0636363636363636,
                "tempo": 120.0
            },
            {
                "start_time": 0.7,
                "end_time": 0.7636363636363636,
                "pitch": 67,
                "velocity": 80,
                "duration": 0.0636363636363636,
                "tempo": 120.0
            },
            {
                "start_time": 1.0045454545454544,
                "end_time": 1.0704545454545453,
                "pitch": 65,
                "velocity": 80,
                "duration": 0.06590909090909092,
                "tempo": 120.0
            },
            {
                "start_time": 1.209090909090909,
                "end_time": 1.2727272727272727,
                "pitch": 67,
                "velocity": 80,
                "duration": 0.06363636363636371,
                "tempo": 120.0
            }
        ],
        "Vibraphone": [
            {
                "start_time": 62.94318181818181,
                "end_time": 63.13863636363636,
                "pitch": 88,
                "velocity": 51,
                "duration": 0.19545454545454533,
                "tempo": 120.0
            },
            {
                "start_time": 63.14090909090909,
                "end_time": 63.340909090909086,
                "pitch": 84,
                "velocity": 51,
                "duration": 0.19999999999999574,
                "tempo": 120.0
            },
            {
                "start_time": 63.14090909090909,
                "end_time": 63.340909090909086,
                "pitch": 88,
                "velocity": 51,
                "duration": 0.19999999999999574,
                "tempo": 120.0
            },
            {
                "start_time": 63.340909090909086,
                "end_time": 63.538636363636364,
                "pitch": 83,
                "velocity": 51,
                "duration": 0.19772727272727764,
                "tempo": 120.0
            },
            {
                "start_time": 63.54090909090909,
                "end_time": 63.94090909090909,
                "pitch": 79,
                "velocity": 51,
                "duration": 0.3999999999999986,
                "tempo": 120.0
            },
            {
                "start_time": 64.14090909090909,
                "end_time": 64.3409090909091,
                "pitch": 72,
                "velocity": 51,
                "duration": 0.20000000000000284,
                "tempo": 120.0
            },
            {
                "start_time": 64.14090909090909,
                "end_time": 64.34318181818182,
                "pitch": 76,
                "velocity": 51,
                "duration": 0.20227272727272805,
                "tempo": 120.0
            },
            {
                "start_time": 64.34318181818182,
                "end_time": 64.54318181818182,
                "pitch": 71,
                "velocity": 51,
                "duration": 0.20000000000000284,
                "tempo": 120.0
            },
            {
                "start_time": 64.54318181818182,
                "end_time": 64.74545454545454,
                "pitch": 72,
                "velocity": 51,
                "duration": 0.20227272727271384,
                "tempo": 120.0
            },
            {
                "start_time": 64.34318181818182,
                "end_time": 64.94545454545454,
                "pitch": 76,
                "velocity": 51,
                "duration": 0.6022727272727195,
                "tempo": 120.0
            },
            {
                "start_time": 64.74545454545454,
                "end_time": 64.94545454545454,
                "pitch": 76,
                "velocity": 51,
                "duration": 0.20000000000000284,
                "tempo": 120.0
            },
            {
                "start_time": 64.94545454545454,
                "end_time": 65.14545454545454,
                "pitch": 79,
                "velocity": 51,
                "duration": 0.20000000000000284,
                "tempo": 120.0
            },
            {
                "start_time": 65.34772727272727,
                "end_time": 65.54772727272727,
                "pitch": 77,
                "velocity": 51,
                "duration": 0.20000000000000284,
                "tempo": 120.0
            },
            {
                "start_time": 65.54772727272727,
                "end_time": 65.75454545454545,
                "pitch": 74,
                "velocity": 51,
                "duration": 0.20681818181817846,
                "tempo": 120.0
            },
            {
                "start_time": 64.74545454545454,
                "end_time": 65.96136363636363,
                "pitch": 72,
                "velocity": 51,
                "duration": 1.2159090909090935,
                "tempo": 120.0
            },
            {
                "start_time": 65.75454545454545,
                "end_time": 65.96136363636363,
                "pitch": 72,
                "velocity": 51,
                "duration": 0.20681818181817846,
                "tempo": 120.0
            },
            {
                "start_time": 65.75454545454545,
                "end_time": 108.12954545454545,
                "pitch": 74,
                "velocity": 51,
                "duration": 42.375,
                "tempo": 120.0
            },
            {
                "start_time": 108.02954545454546,
                "end_time": 108.12954545454545,
                "pitch": 74,
                "velocity": 51,
                "duration": 0.09999999999999432,
                "tempo": 120.0
            },
            {
                "start_time": 65.54772727272727,
                "end_time": 108.12954545454545,
                "pitch": 76,
                "velocity": 51,
                "duration": 42.58181818181818,
                "tempo": 120.0
            },
            {
                "start_time": 108.12954545454545,
                "end_time": 108.22954545454544,
                "pitch": 72,
                "velocity": 51,
                "duration": 0.09999999999999432,
                "tempo": 120.0
            },
            {
                "start_time": 108.12954545454545,
                "end_time": 108.32954545454545,
                "pitch": 76,
                "velocity": 51,
                "duration": 0.20000000000000284,
                "tempo": 120.0
            },
            {
                "start_time": 108.23181818181817,
                "end_time": 108.32954545454545,
                "pitch": 76,
                "velocity": 51,
                "duration": 0.09772727272728332,
                "tempo": 120.0
            },
            {
                "start_time": 108.32954545454545,
                "end_time": 108.42954545454545,
                "pitch": 76,
                "velocity": 51,
                "duration": 0.09999999999999432,
                "tempo": 120.0
            },
            {
                "start_time": 108.23181818181817,
                "end_time": 108.53181818181818,
                "pitch": 72,
                "velocity": 51,
                "duration": 0.30000000000001137,
                "tempo": 120.0
            },
            {
                "start_time": 108.43181818181817,
                "end_time": 108.53181818181818,
                "pitch": 72,
                "velocity": 51,
                "duration": 0.10000000000000853,
                "tempo": 120.0
            },
            {
                "start_time": 108.43181818181817,
                "end_time": 108.63181818181818,
                "pitch": 76,
                "velocity": 51,
                "duration": 0.20000000000000284,
                "tempo": 120.0
            },
            {
                "start_time": 108.53181818181818,
                "end_time": 108.63181818181818,
                "pitch": 76,
                "velocity": 51,
                "duration": 0.09999999999999432,
                "tempo": 120.0
            },
            {
                "start_time": 108.6340909090909,
                "end_time": 108.73409090909091,
                "pitch": 76,
                "velocity": 51,
                "duration": 0.10000000000000853,
                "tempo": 120.0
            },
            {
                "start_time": 108.73409090909091,
                "end_time": 108.73636363636363,
                "pitch": 76,
                "velocity": 51,
                "duration": 0.0022727272727252057,
                "tempo": 120.0
            },
            {
                "start_time": 108.53181818181818,
                "end_time": 108.83863636363635,
                "pitch": 72,
                "velocity": 51,
                "duration": 0.3068181818181728,
                "tempo": 120.0
            },
            {
                "start_time": 108.73636363636363,
                "end_time": 108.83863636363635,
                "pitch": 72,
                "velocity": 51,
                "duration": 0.10227272727271952,
                "tempo": 120.0
            },
            {
                "start_time": 63.340909090909086,
                "end_time": 108.83863636363635,
                "pitch": 88,
                "velocity": 51,
                "duration": 45.49772727272727,
                "tempo": 120.0
            },
            {
                "start_time": 108.83863636363635,
                "end_time": 108.94090909090909,
                "pitch": 79,
                "velocity": 51,
                "duration": 0.10227272727273373,
                "tempo": 120.0
            },
            {
                "start_time": 109.04545454545455,
                "end_time": 109.14545454545454,
                "pitch": 79,
                "velocity": 51,
                "duration": 0.09999999999999432,
                "tempo": 120.0
            },
            {
                "start_time": 109.14545454545454,
                "end_time": 109.24772727272726,
                "pitch": 79,
                "velocity": 51,
                "duration": 0.10227272727271952,
                "tempo": 120.0
            },
            {
                "start_time": 109.04545454545455,
                "end_time": 109.34772727272727,
                "pitch": 89,
                "velocity": 51,
                "duration": 0.30227272727272236,
                "tempo": 120.0
            },
            {
                "start_time": 109.34772727272727,
                "end_time": 109.44772727272726,
                "pitch": 79,
                "velocity": 51,
                "duration": 0.09999999999999432,
                "tempo": 120.0
            },
            {
                "start_time": 109.44772727272726,
                "end_time": 109.54772727272727,
                "pitch": 79,
                "velocity": 51,
                "duration": 0.10000000000000853,
                "tempo": 120.0
            },
            {
                "start_time": 109.64999999999999,
                "end_time": 109.74772727272726,
                "pitch": 77,
                "velocity": 51,
                "duration": 0.09772727272726911,
                "tempo": 120.0
            },
            {
                "start_time": 109.74772727272726,
                "end_time": 109.85,
                "pitch": 72,
                "velocity": 51,
                "duration": 0.10227272727273373,
                "tempo": 120.0
            },
            {
                "start_time": 109.74772727272726,
                "end_time": 109.94999999999999,
                "pitch": 77,
                "velocity": 51,
                "duration": 0.20227272727272805,
                "tempo": 120.0
            },
            {
                "start_time": 109.85,
                "end_time": 109.94999999999999,
                "pitch": 77,
                "velocity": 51,
                "duration": 0.09999999999999432,
                "tempo": 120.0
            },
            {
                "start_time": 109.94999999999999,
                "end_time": 110.05454545454545,
                "pitch": 77,
                "velocity": 51,
                "duration": 0.10454545454545894,
                "tempo": 120.0
            },
            {
                "start_time": 109.85,
                "end_time": 110.15681818181818,
                "pitch": 72,
                "velocity": 51,
                "duration": 0.306818181818187,
                "tempo": 120.0
            },
            {
                "start_time": 110.05454545454545,
                "end_time": 110.15681818181818,
                "pitch": 72,
                "velocity": 51,
                "duration": 0.10227272727273373,
                "tempo": 120.0
            },
            {
                "start_time": 110.05454545454545,
                "end_time": 110.2590909090909,
                "pitch": 77,
                "velocity": 51,
                "duration": 0.20454545454545325,
                "tempo": 120.0
            },
            {
                "start_time": 110.15681818181818,
                "end_time": 110.2590909090909,
                "pitch": 77,
                "velocity": 51,
                "duration": 0.10227272727271952,
                "tempo": 120.0
            },
            {
                "start_time": 110.2590909090909,
                "end_time": 110.35681818181817,
                "pitch": 77,
                "velocity": 51,
                "duration": 0.09772727272726911,
                "tempo": 120.0
            },
            {
                "start_time": 110.15681818181818,
                "end_time": 110.45681818181818,
                "pitch": 72,
                "velocity": 51,
                "duration": 0.29999999999999716,
                "tempo": 120.0
            },
            {
                "start_time": 110.35681818181817,
                "end_time": 110.45681818181818,
                "pitch": 72,
                "velocity": 51,
                "duration": 0.10000000000000853,
                "tempo": 120.0
            },
            {
                "start_time": 108.83863636363635,
                "end_time": 110.45681818181818,
                "pitch": 88,
                "velocity": 51,
                "duration": 1.6181818181818244,
                "tempo": 120.0
            },
            {
                "start_time": 110.45681818181818,
                "end_time": 110.55454545454545,
                "pitch": 79,
                "velocity": 51,
                "duration": 0.09772727272726911,
                "tempo": 120.0
            },
            {
                "start_time": 109.34772727272727,
                "end_time": 110.65227272727272,
                "pitch": 89,
                "velocity": 51,
                "duration": 1.3045454545454476,
                "tempo": 120.0
            },
            {
                "start_time": 110.65227272727272,
                "end_time": 110.75454545454545,
                "pitch": 79,
                "velocity": 51,
                "duration": 0.10227272727273373,
                "tempo": 120.0
            },
            {
                "start_time": 110.75454545454545,
                "end_time": 110.85909090909091,
                "pitch": 79,
                "velocity": 51,
                "duration": 0.10454545454545894,
                "tempo": 120.0
            },
            {
                "start_time": 110.65227272727272,
                "end_time": 110.96136363636363,
                "pitch": 89,
                "velocity": 51,
                "duration": 0.3090909090909122,
                "tempo": 120.0
            },
            {
                "start_time": 110.96136363636363,
                "end_time": 111.06363636363636,
                "pitch": 79,
                "velocity": 51,
                "duration": 0.10227272727273373,
                "tempo": 120.0
            },
            {
                "start_time": 111.06363636363636,
                "end_time": 111.16136363636363,
                "pitch": 79,
                "velocity": 51,
                "duration": 0.09772727272726911,
                "tempo": 120.0
            },
            {
                "start_time": 109.64999999999999,
                "end_time": 111.26136363636363,
                "pitch": 74,
                "velocity": 51,
                "duration": 1.6113636363636346,
                "tempo": 120.0
            },
            {
                "start_time": 111.26136363636363,
                "end_time": 111.35909090909091,
                "pitch": 76,
                "velocity": 51,
                "duration": 0.09772727272728332,
                "tempo": 120.0
            },
            {
                "start_time": 111.35909090909091,
                "end_time": 111.45681818181818,
                "pitch": 72,
                "velocity": 51,
                "duration": 0.09772727272726911,
                "tempo": 120.0
            },
            {
                "start_time": 111.35909090909091,
                "end_time": 111.55454545454545,
                "pitch": 76,
                "velocity": 51,
                "duration": 0.19545454545453822,
                "tempo": 120.0
            },
            {
                "start_time": 111.45681818181818,
                "end_time": 111.55454545454545,
                "pitch": 76,
                "velocity": 51,
                "duration": 0.09772727272726911,
                "tempo": 120.0
            },
            {
                "start_time": 111.55454545454545,
                "end_time": 111.65454545454546,
                "pitch": 76,
                "velocity": 51,
                "duration": 0.10000000000000853,
                "tempo": 120.0
            },
            {
                "start_time": 111.45681818181818,
                "end_time": 111.75454545454545,
                "pitch": 72,
                "velocity": 51,
                "duration": 0.29772727272727195,
                "tempo": 120.0
            },
            {
                "start_time": 111.65681818181818,
                "end_time": 111.75454545454545,
                "pitch": 72,
                "velocity": 51,
                "duration": 0.09772727272726911,
                "tempo": 120.0
            },
            {
                "start_time": 111.65681818181818,
                "end_time": 111.85681818181817,
                "pitch": 76,
                "velocity": 51,
                "duration": 0.19999999999998863,
                "tempo": 120.0
            },
            {
                "start_time": 111.75681818181818,
                "end_time": 111.85681818181817,
                "pitch": 76,
                "velocity": 51,
                "duration": 0.09999999999999432,
                "tempo": 120.0
            },
            {
                "start_time": 111.85681818181817,
                "end_time": 111.9590909090909,
                "pitch": 76,
                "velocity": 51,
                "duration": 0.10227272727273373,
                "tempo": 120.0
            },
            {
                "start_time": 111.75681818181818,
                "end_time": 112.06363636363636,
                "pitch": 72,
                "velocity": 51,
                "duration": 0.306818181818187,
                "tempo": 120.0
            },
            {
                "start_time": 111.9590909090909,
                "end_time": 112.06363636363636,
                "pitch": 72,
                "velocity": 51,
                "duration": 0.10454545454545894,
                "tempo": 120.0
            },
            {
                "start_time": 110.45681818181818,
                "end_time": 112.06363636363636,
                "pitch": 88,
                "velocity": 51,
                "duration": 1.6068181818181841,
                "tempo": 120.0
            },
            {
                "start_time": 112.06363636363636,
                "end_time": 112.16363636363636,
                "pitch": 79,
                "velocity": 51,
                "duration": 0.09999999999999432,
                "tempo": 120.0
            },
            {
                "start_time": 110.96136363636363,
                "end_time": 112.26818181818182,
                "pitch": 89,
                "velocity": 51,
                "duration": 1.306818181818187,
                "tempo": 120.0
            },
            {
                "start_time": 112.26818181818182,
                "end_time": 112.36818181818181,
                "pitch": 79,
                "velocity": 51,
                "duration": 0.09999999999999432,
                "tempo": 120.0
            },
            {
                "start_time": 112.36818181818181,
                "end_time": 112.46818181818182,
                "pitch": 79,
                "velocity": 51,
                "duration": 0.10000000000000853,
                "tempo": 120.0
            },
            {
                "start_time": 112.26818181818182,
                "end_time": 112.56818181818181,
                "pitch": 89,
                "velocity": 51,
                "duration": 0.29999999999999716,
                "tempo": 120.0
            },
            {
                "start_time": 112.56818181818181,
                "end_time": 112.66818181818181,
                "pitch": 79,
                "velocity": 51,
                "duration": 0.09999999999999432,
                "tempo": 120.0
            },
            {
                "start_time": 112.66818181818181,
                "end_time": 112.76590909090909,
                "pitch": 79,
                "velocity": 51,
                "duration": 0.09772727272728332,
                "tempo": 120.0
            },
            {
                "start_time": 111.26136363636363,
                "end_time": 112.86590909090908,
                "pitch": 74,
                "velocity": 51,
                "duration": 1.604545454545459,
                "tempo": 120.0
            },
            {
                "start_time": 110.35681818181817,
                "end_time": 112.96136363636363,
                "pitch": 77,
                "velocity": 51,
                "duration": 2.604545454545459,
                "tempo": 120.0
            },
            {
                "start_time": 112.86590909090908,
                "end_time": 112.96136363636363,
                "pitch": 77,
                "velocity": 51,
                "duration": 0.0954545454545439,
                "tempo": 120.0
            },
            {
                "start_time": 112.96363636363635,
                "end_time": 113.06136363636364,
                "pitch": 72,
                "velocity": 51,
                "duration": 0.09772727272728332,
                "tempo": 120.0
            },
            {
                "start_time": 112.96363636363635,
                "end_time": 113.16136363636363,
                "pitch": 77,
                "velocity": 51,
                "duration": 0.19772727272727764,
                "tempo": 120.0
            },
            {
                "start_time": 113.06136363636364,
                "end_time": 113.16136363636363,
                "pitch": 77,
                "velocity": 51,
                "duration": 0.09999999999999432,
                "tempo": 120.0
            },
            {
                "start_time": 113.16136363636363,
                "end_time": 113.26363636363635,
                "pitch": 77,
                "velocity": 51,
                "duration": 0.10227272727271952,
                "tempo": 120.0
            },
            {
                "start_time": 113.06136363636364,
                "end_time": 113.36363636363636,
                "pitch": 72,
                "velocity": 51,
                "duration": 0.30227272727272236,
                "tempo": 120.0
            },
            {
                "start_time": 113.26363636363635,
                "end_time": 113.36363636363636,
                "pitch": 72,
                "velocity": 51,
                "duration": 0.10000000000000853,
                "tempo": 120.0
            },
            {
                "start_time": 113.26363636363635,
                "end_time": 113.46363636363635,
                "pitch": 77,
                "velocity": 51,
                "duration": 0.20000000000000284,
                "tempo": 120.0
            },
            {
                "start_time": 113.36363636363636,
                "end_time": 113.46363636363635,
                "pitch": 77,
                "velocity": 51,
                "duration": 0.09999999999999432,
                "tempo": 120.0
            },
            {
                "start_time": 113.46363636363635,
                "end_time": 113.56363636363636,
                "pitch": 77,
                "velocity": 51,
                "duration": 0.10000000000000853,
                "tempo": 120.0
            },
            {
                "start_time": 113.36363636363636,
                "end_time": 113.66590909090908,
                "pitch": 72,
                "velocity": 51,
                "duration": 0.30227272727272236,
                "tempo": 120.0
            },
            {
                "start_time": 113.56363636363636,
                "end_time": 113.66590909090908,
                "pitch": 72,
                "velocity": 51,
                "duration": 0.10227272727271952,
                "tempo": 120.0
            },
            {
                "start_time": 112.06363636363636,
                "end_time": 113.66590909090908,
                "pitch": 88,
                "velocity": 51,
                "duration": 1.6022727272727195,
                "tempo": 120.0
            },
            {
                "start_time": 113.66590909090908,
                "end_time": 113.76590909090909,
                "pitch": 79,
                "velocity": 51,
                "duration": 0.10000000000000853,
                "tempo": 120.0
            },
            {
                "start_time": 112.56818181818181,
                "end_time": 113.86590909090908,
                "pitch": 89,
                "velocity": 51,
                "duration": 1.297727272727272,
                "tempo": 120.0
            },
            {
                "start_time": 113.86590909090908,
                "end_time": 113.96590909090908,
                "pitch": 79,
                "velocity": 51,
                "duration": 0.09999999999999432,
                "tempo": 120.0
            },
            {
                "start_time": 113.96590909090908,
                "end_time": 114.06818181818181,
                "pitch": 79,
                "velocity": 51,
                "duration": 0.10227272727273373,
                "tempo": 120.0
            },
            {
                "start_time": 113.86590909090908,
                "end_time": 114.16818181818181,
                "pitch": 89,
                "velocity": 51,
                "duration": 0.30227272727272236,
                "tempo": 120.0
            },
            {
                "start_time": 114.16818181818181,
                "end_time": 114.27045454545454,
                "pitch": 79,
                "velocity": 51,
                "duration": 0.10227272727273373,
                "tempo": 120.0
            },
            {
                "start_time": 114.27045454545454,
                "end_time": 114.36818181818181,
                "pitch": 79,
                "velocity": 51,
                "duration": 0.09772727272726911,
                "tempo": 120.0
            },
            {
                "start_time": 112.86590909090908,
                "end_time": 114.47045454545454,
                "pitch": 74,
                "velocity": 51,
                "duration": 1.604545454545459,
                "tempo": 120.0
            },
            {
                "start_time": 111.9590909090909,
                "end_time": 114.57045454545454,
                "pitch": 76,
                "velocity": 51,
                "duration": 2.6113636363636346,
                "tempo": 120.0
            },
            {
                "start_time": 114.47045454545454,
                "end_time": 114.57045454545454,
                "pitch": 76,
                "velocity": 51,
                "duration": 0.09999999999999432,
                "tempo": 120.0
            },
            {
                "start_time": 114.57045454545454,
                "end_time": 114.67272727272727,
                "pitch": 72,
                "velocity": 51,
                "duration": 0.10227272727273373,
                "tempo": 120.0
            },
            {
                "start_time": 114.57045454545454,
                "end_time": 114.77045454545454,
                "pitch": 76,
                "velocity": 51,
                "duration": 0.20000000000000284,
                "tempo": 120.0
            },
            {
                "start_time": 114.67272727272727,
                "end_time": 114.77045454545454,
                "pitch": 76,
                "velocity": 51,
                "duration": 0.09772727272726911,
                "tempo": 120.0
            },
            {
                "start_time": 114.77045454545454,
                "end_time": 114.87045454545454,
                "pitch": 76,
                "velocity": 51,
                "duration": 0.09999999999999432,
                "tempo": 120.0
            },
            {
                "start_time": 114.67272727272727,
                "end_time": 114.97045454545454,
                "pitch": 72,
                "velocity": 51,
                "duration": 0.29772727272727195,
                "tempo": 120.0
            },
            {
                "start_time": 114.87045454545454,
                "end_time": 114.97045454545454,
                "pitch": 72,
                "velocity": 51,
                "duration": 0.10000000000000853,
                "tempo": 120.0
            },
            {
                "start_time": 114.87045454545454,
                "end_time": 115.07272727272726,
                "pitch": 76,
                "velocity": 51,
                "duration": 0.20227272727272805,
                "tempo": 120.0
            },
            {
                "start_time": 114.97045454545454,
                "end_time": 115.07272727272726,
                "pitch": 76,
                "velocity": 51,
                "duration": 0.10227272727271952,
                "tempo": 120.0
            },
            {
                "start_time": 115.07272727272726,
                "end_time": 115.175,
                "pitch": 76,
                "velocity": 51,
                "duration": 0.10227272727273373,
                "tempo": 120.0
            },
            {
                "start_time": 114.97045454545454,
                "end_time": 115.27727272727272,
                "pitch": 72,
                "velocity": 51,
                "duration": 0.3068181818181728,
                "tempo": 120.0
            },
            {
                "start_time": 115.175,
                "end_time": 115.27727272727272,
                "pitch": 72,
                "velocity": 51,
                "duration": 0.10227272727271952,
                "tempo": 120.0
            },
            {
                "start_time": 113.66590909090908,
                "end_time": 115.27954545454544,
                "pitch": 88,
                "velocity": 51,
                "duration": 1.6136363636363598,
                "tempo": 120.0
            },
            {
                "start_time": 115.27954545454544,
                "end_time": 115.37954545454545,
                "pitch": 79,
                "velocity": 51,
                "duration": 0.10000000000000853,
                "tempo": 120.0
            },
            {
                "start_time": 114.16818181818181,
                "end_time": 115.48409090909091,
                "pitch": 89,
                "velocity": 51,
                "duration": 1.315909090909102,
                "tempo": 120.0
            },
            {
                "start_time": 115.48409090909091,
                "end_time": 115.57954545454545,
                "pitch": 79,
                "velocity": 51,
                "duration": 0.0954545454545439,
                "tempo": 120.0
            },
            {
                "start_time": 115.58181818181818,
                "end_time": 115.67954545454545,
                "pitch": 79,
                "velocity": 51,
                "duration": 0.09772727272726911,
                "tempo": 120.0
            },
            {
                "start_time": 115.48409090909091,
                "end_time": 115.77727272727272,
                "pitch": 89,
                "velocity": 51,
                "duration": 0.29318181818180733,
                "tempo": 120.0
            },
            {
                "start_time": 115.77727272727272,
                "end_time": 115.87727272727273,
                "pitch": 79,
                "velocity": 51,
                "duration": 0.10000000000000853,
                "tempo": 120.0
            },
            {
                "start_time": 115.87727272727273,
                "end_time": 115.97727272727272,
                "pitch": 79,
                "velocity": 51,
                "duration": 0.09999999999999432,
                "tempo": 120.0
            },
            {
                "start_time": 114.47045454545454,
                "end_time": 116.08181818181818,
                "pitch": 74,
                "velocity": 51,
                "duration": 1.6113636363636346,
                "tempo": 120.0
            },
            {
                "start_time": 113.56363636363636,
                "end_time": 116.1840909090909,
                "pitch": 77,
                "velocity": 51,
                "duration": 2.6204545454545354,
                "tempo": 120.0
            },
            {
                "start_time": 116.08181818181818,
                "end_time": 116.1840909090909,
                "pitch": 77,
                "velocity": 51,
                "duration": 0.10227272727271952,
                "tempo": 120.0
            },
            {
                "start_time": 116.1840909090909,
                "end_time": 116.28863636363636,
                "pitch": 72,
                "velocity": 51,
                "duration": 0.10454545454545894,
                "tempo": 120.0
            },
            {
                "start_time": 116.1840909090909,
                "end_time": 116.38636363636363,
                "pitch": 77,
                "velocity": 51,
                "duration": 0.20227272727272805,
                "tempo": 120.0
            },
            {
                "start_time": 116.28863636363636,
                "end_time": 116.38636363636363,
                "pitch": 77,
                "velocity": 51,
                "duration": 0.09772727272726911,
                "tempo": 120.0
            },
            {
                "start_time": 116.38863636363635,
                "end_time": 116.48863636363636,
                "pitch": 77,
                "velocity": 51,
                "duration": 0.10000000000000853,
                "tempo": 120.0
            },
            {
                "start_time": 116.28863636363636,
                "end_time": 116.58636363636363,
                "pitch": 72,
                "velocity": 51,
                "duration": 0.29772727272727195,
                "tempo": 120.0
            },
            {
                "start_time": 116.48863636363636,
                "end_time": 116.58636363636363,
                "pitch": 72,
                "velocity": 51,
                "duration": 0.09772727272726911,
                "tempo": 120.0
            },
            {
                "start_time": 116.48863636363636,
                "end_time": 116.68636363636364,
                "pitch": 77,
                "velocity": 51,
                "duration": 0.19772727272727764,
                "tempo": 120.0
            },
            {
                "start_time": 116.58863636363635,
                "end_time": 116.68636363636364,
                "pitch": 77,
                "velocity": 51,
                "duration": 0.09772727272728332,
                "tempo": 120.0
            },
            {
                "start_time": 116.68863636363636,
                "end_time": 116.78863636363636,
                "pitch": 77,
                "velocity": 51,
                "duration": 0.09999999999999432,
                "tempo": 120.0
            },
            {
                "start_time": 116.58863636363635,
                "end_time": 116.89090909090909,
                "pitch": 72,
                "velocity": 51,
                "duration": 0.3022727272727366,
                "tempo": 120.0
            },
            {
                "start_time": 116.78863636363636,
                "end_time": 116.89090909090909,
                "pitch": 72,
                "velocity": 51,
                "duration": 0.10227272727273373,
                "tempo": 120.0
            },
            {
                "start_time": 115.27954545454544,
                "end_time": 116.89090909090909,
                "pitch": 88,
                "velocity": 51,
                "duration": 1.6113636363636488,
                "tempo": 120.0
            },
            {
                "start_time": 116.89090909090909,
                "end_time": 116.99090909090908,
                "pitch": 79,
                "velocity": 51,
                "duration": 0.09999999999999432,
                "tempo": 120.0
            },
            {
                "start_time": 115.77727272727272,
                "end_time": 117.09090909090908,
                "pitch": 89,
                "velocity": 51,
                "duration": 1.3136363636363626,
                "tempo": 120.0
            },
            {
                "start_time": 117.09090909090908,
                "end_time": 117.19318181818181,
                "pitch": 79,
                "velocity": 51,
                "duration": 0.10227272727273373,
                "tempo": 120.0
            },
            {
                "start_time": 117.19318181818181,
                "end_time": 117.29772727272727,
                "pitch": 79,
                "velocity": 51,
                "duration": 0.10454545454545894,
                "tempo": 120.0
            },
            {
                "start_time": 117.09090909090908,
                "end_time": 117.39999999999999,
                "pitch": 89,
                "velocity": 51,
                "duration": 0.3090909090909122,
                "tempo": 120.0
            },
            {
                "start_time": 117.39999999999999,
                "end_time": 117.50227272727273,
                "pitch": 79,
                "velocity": 51,
                "duration": 0.10227272727273373,
                "tempo": 120.0
            },
            {
                "start_time": 117.50454545454545,
                "end_time": 117.6,
                "pitch": 79,
                "velocity": 51,
                "duration": 0.0954545454545439,
                "tempo": 120.0
            },
            {
                "start_time": 116.08181818181818,
                "end_time": 117.69999999999999,
                "pitch": 74,
                "velocity": 51,
                "duration": 1.6181818181818102,
                "tempo": 120.0
            },
            {
                "start_time": 115.175,
                "end_time": 117.79772727272727,
                "pitch": 76,
                "velocity": 51,
                "duration": 2.622727272727275,
                "tempo": 120.0
            },
            {
                "start_time": 117.69999999999999,
                "end_time": 117.79772727272727,
                "pitch": 76,
                "velocity": 51,
                "duration": 0.09772727272728332,
                "tempo": 120.0
            },
            {
                "start_time": 117.79772727272727,
                "end_time": 117.89545454545454,
                "pitch": 72,
                "velocity": 51,
                "duration": 0.09772727272726911,
                "tempo": 120.0
            },
            {
                "start_time": 117.79772727272727,
                "end_time": 117.99545454545454,
                "pitch": 76,
                "velocity": 51,
                "duration": 0.19772727272726343,
                "tempo": 120.0
            },
            {
                "start_time": 117.89545454545454,
                "end_time": 117.99545454545454,
                "pitch": 76,
                "velocity": 51,
                "duration": 0.09999999999999432,
                "tempo": 120.0
            },
            {
                "start_time": 117.99545454545454,
                "end_time": 118.09545454545454,
                "pitch": 76,
                "velocity": 51,
                "duration": 0.10000000000000853,
                "tempo": 120.0
            },
            {
                "start_time": 117.89545454545454,
                "end_time": 118.19545454545454,
                "pitch": 72,
                "velocity": 51,
                "duration": 0.29999999999999716,
                "tempo": 120.0
            },
            {
                "start_time": 118.09545454545454,
                "end_time": 118.19545454545454,
                "pitch": 72,
                "velocity": 51,
                "duration": 0.09999999999999432,
                "tempo": 120.0
            },
            {
                "start_time": 118.09545454545454,
                "end_time": 118.29772727272727,
                "pitch": 76,
                "velocity": 51,
                "duration": 0.20227272727272805,
                "tempo": 120.0
            },
            {
                "start_time": 118.19772727272726,
                "end_time": 118.29772727272727,
                "pitch": 76,
                "velocity": 51,
                "duration": 0.10000000000000853,
                "tempo": 120.0
            },
            {
                "start_time": 118.29772727272727,
                "end_time": 118.39772727272727,
                "pitch": 76,
                "velocity": 51,
                "duration": 0.09999999999999432,
                "tempo": 120.0
            },
            {
                "start_time": 118.19772727272726,
                "end_time": 118.5,
                "pitch": 72,
                "velocity": 51,
                "duration": 0.3022727272727366,
                "tempo": 120.0
            },
            {
                "start_time": 118.39772727272727,
                "end_time": 118.5,
                "pitch": 72,
                "velocity": 51,
                "duration": 0.10227272727273373,
                "tempo": 120.0
            },
            {
                "start_time": 116.89090909090909,
                "end_time": 118.5,
                "pitch": 88,
                "velocity": 51,
                "duration": 1.6090909090909093,
                "tempo": 120.0
            },
            {
                "start_time": 118.5,
                "end_time": 118.59772727272727,
                "pitch": 79,
                "velocity": 51,
                "duration": 0.09772727272726911,
                "tempo": 120.0
            },
            {
                "start_time": 117.39999999999999,
                "end_time": 118.69999999999999,
                "pitch": 89,
                "velocity": 51,
                "duration": 1.2999999999999972,
                "tempo": 120.0
            },
            {
                "start_time": 118.69999999999999,
                "end_time": 118.8,
                "pitch": 79,
                "velocity": 51,
                "duration": 0.10000000000000853,
                "tempo": 120.0
            },
            {
                "start_time": 118.8,
                "end_time": 118.90454545454544,
                "pitch": 79,
                "velocity": 51,
                "duration": 0.10454545454544473,
                "tempo": 120.0
            },
            {
                "start_time": 118.69999999999999,
                "end_time": 119.00681818181818,
                "pitch": 89,
                "velocity": 51,
                "duration": 0.306818181818187,
                "tempo": 120.0
            },
            {
                "start_time": 119.00681818181818,
                "end_time": 119.11136363636363,
                "pitch": 79,
                "velocity": 51,
                "duration": 0.10454545454545894,
                "tempo": 120.0
            },
            {
                "start_time": 119.11136363636363,
                "end_time": 119.2090909090909,
                "pitch": 79,
                "velocity": 51,
                "duration": 0.09772727272726911,
                "tempo": 120.0
            },
            {
                "start_time": 116.78863636363636,
                "end_time": 119.30681818181817,
                "pitch": 77,
                "velocity": 51,
                "duration": 2.518181818181816,
                "tempo": 120.0
            },
            {
                "start_time": 119.30681818181817,
                "end_time": 119.40454545454544,
                "pitch": 67,
                "velocity": 51,
                "duration": 0.09772727272726911,
                "tempo": 120.0
            },
            {
                "start_time": 119.40454545454544,
                "end_time": 119.50454545454545,
                "pitch": 67,
                "velocity": 51,
                "duration": 0.10000000000000853,
                "tempo": 120.0
            },
            {
                "start_time": 62.94318181818181,
                "end_time": 119.60227272727272,
                "pitch": 69,
                "velocity": 51,
                "duration": 56.65909090909091,
                "tempo": 120.0
            },
            {
                "start_time": 119.50454545454545,
                "end_time": 119.60227272727272,
                "pitch": 69,
                "velocity": 51,
                "duration": 0.09772727272726911,
                "tempo": 120.0
            },
            {
                "start_time": 119.60454545454544,
                "end_time": 119.70454545454545,
                "pitch": 67,
                "velocity": 51,
                "duration": 0.10000000000000853,
                "tempo": 120.0
            },
            {
                "start_time": 119.70454545454545,
                "end_time": 119.80454545454545,
                "pitch": 67,
                "velocity": 51,
                "duration": 0.09999999999999432,
                "tempo": 120.0
            },
            {
                "start_time": 119.80454545454545,
                "end_time": 119.90454545454544,
                "pitch": 69,
                "velocity": 51,
                "duration": 0.09999999999999432,
                "tempo": 120.0
            },
            {
                "start_time": 64.54318181818182,
                "end_time": 119.90681818181818,
                "pitch": 56,
                "velocity": 51,
                "duration": 55.36363636363636,
                "tempo": 120.0
            },
            {
                "start_time": 119.90681818181818,
                "end_time": 120.00681818181818,
                "pitch": 72,
                "velocity": 51,
                "duration": 0.09999999999999432,
                "tempo": 120.0
            },
            {
                "start_time": 118.39772727272727,
                "end_time": 120.00681818181818,
                "pitch": 76,
                "velocity": 51,
                "duration": 1.6090909090909093,
                "tempo": 120.0
            },
            {
                "start_time": 120.00681818181818,
                "end_time": 120.10909090909091,
                "pitch": 69,
                "velocity": 51,
                "duration": 0.10227272727273373,
                "tempo": 120.0
            },
            {
                "start_time": 119.90681818181818,
                "end_time": 120.2090909090909,
                "pitch": 56,
                "velocity": 51,
                "duration": 0.30227272727272236,
                "tempo": 120.0
            },
            {
                "start_time": 120.10909090909091,
                "end_time": 120.2090909090909,
                "pitch": 69,
                "velocity": 51,
                "duration": 0.09999999999999432,
                "tempo": 120.0
            },
            {
                "start_time": 120.2090909090909,
                "end_time": 120.3090909090909,
                "pitch": 72,
                "velocity": 51,
                "duration": 0.09999999999999432,
                "tempo": 120.0
            },
            {
                "start_time": 117.69999999999999,
                "end_time": 120.4090909090909,
                "pitch": 74,
                "velocity": 51,
                "duration": 2.709090909090918,
                "tempo": 120.0
            },
            {
                "start_time": 120.3090909090909,
                "end_time": 120.4090909090909,
                "pitch": 74,
                "velocity": 51,
                "duration": 0.10000000000000853,
                "tempo": 120.0
            },
            {
                "start_time": 119.30681818181817,
                "end_time": 120.4090909090909,
                "pitch": 77,
                "velocity": 51,
                "duration": 1.1022727272727337,
                "tempo": 120.0
            },
            {
                "start_time": 120.2090909090909,
                "end_time": 120.51136363636363,
                "pitch": 56,
                "velocity": 51,
                "duration": 0.30227272727272236,
                "tempo": 120.0
            },
            {
                "start_time": 119.60454545454544,
                "end_time": 120.51136363636363,
                "pitch": 71,
                "velocity": 51,
                "duration": 0.9068181818181813,
                "tempo": 120.0
            },
            {
                "start_time": 120.4090909090909,
                "end_time": 120.51136363636363,
                "pitch": 71,
                "velocity": 51,
                "duration": 0.10227272727271952,
                "tempo": 120.0
            },
            {
                "start_time": 120.3090909090909,
                "end_time": 120.60909090909091,
                "pitch": 72,
                "velocity": 51,
                "duration": 0.30000000000001137,
                "tempo": 120.0
            },
            {
                "start_time": 120.51136363636363,
                "end_time": 120.60909090909091,
                "pitch": 72,
                "velocity": 51,
                "duration": 0.09772727272728332,
                "tempo": 120.0
            },
            {
                "start_time": 120.60909090909091,
                "end_time": 120.71136363636363,
                "pitch": 74,
                "velocity": 51,
                "duration": 0.10227272727271952,
                "tempo": 120.0
            },
            {
                "start_time": 118.5,
                "end_time": 169.4522727272727,
                "pitch": 88,
                "velocity": 51,
                "duration": 50.952272727272714,
                "tempo": 120.0
            },
            {
                "start_time": 169.25681818181818,
                "end_time": 169.4522727272727,
                "pitch": 88,
                "velocity": 51,
                "duration": 0.19545454545453822,
                "tempo": 120.0
            },
            {
                "start_time": 169.4522727272727,
                "end_time": 169.6590909090909,
                "pitch": 84,
                "velocity": 51,
                "duration": 0.20681818181819267,
                "tempo": 120.0
            },
            {
                "start_time": 169.4522727272727,
                "end_time": 169.6590909090909,
                "pitch": 88,
                "velocity": 51,
                "duration": 0.20681818181819267,
                "tempo": 120.0
            },
            {
                "start_time": 63.54090909090909,
                "end_time": 169.86363636363635,
                "pitch": 83,
                "velocity": 51,
                "duration": 106.32272727272726,
                "tempo": 120.0
            },
            {
                "start_time": 169.6590909090909,
                "end_time": 169.86363636363635,
                "pitch": 83,
                "velocity": 51,
                "duration": 0.20454545454543904,
                "tempo": 120.0
            },
            {
                "start_time": 169.86363636363635,
                "end_time": 170.2681818181818,
                "pitch": 79,
                "velocity": 51,
                "duration": 0.4045454545454561,
                "tempo": 120.0
            },
            {
                "start_time": 120.00681818181818,
                "end_time": 170.46363636363637,
                "pitch": 76,
                "velocity": 51,
                "duration": 50.45681818181819,
                "tempo": 120.0
            },
            {
                "start_time": 120.60909090909091,
                "end_time": 170.66136363636363,
                "pitch": 72,
                "velocity": 51,
                "duration": 50.05227272727272,
                "tempo": 120.0
            },
            {
                "start_time": 170.46363636363637,
                "end_time": 170.66136363636363,
                "pitch": 72,
                "velocity": 51,
                "duration": 0.19772727272726343,
                "tempo": 120.0
            },
            {
                "start_time": 170.46363636363637,
                "end_time": 170.66136363636363,
                "pitch": 76,
                "velocity": 51,
                "duration": 0.19772727272726343,
                "tempo": 120.0
            },
            {
                "start_time": 120.51136363636363,
                "end_time": 170.86590909090907,
                "pitch": 56,
                "velocity": 51,
                "duration": 50.354545454545445,
                "tempo": 120.0
            },
            {
                "start_time": 170.66136363636363,
                "end_time": 170.86590909090907,
                "pitch": 71,
                "velocity": 51,
                "duration": 0.20454545454543904,
                "tempo": 120.0
            },
            {
                "start_time": 170.86590909090907,
                "end_time": 171.07045454545454,
                "pitch": 72,
                "velocity": 51,
                "duration": 0.20454545454546746,
                "tempo": 120.0
            },
            {
                "start_time": 170.66136363636363,
                "end_time": 171.27272727272725,
                "pitch": 76,
                "velocity": 51,
                "duration": 0.6113636363636203,
                "tempo": 120.0
            },
            {
                "start_time": 171.07272727272726,
                "end_time": 171.27272727272725,
                "pitch": 76,
                "velocity": 51,
                "duration": 0.19999999999998863,
                "tempo": 120.0
            },
            {
                "start_time": 64.94545454545454,
                "end_time": 171.27272727272725,
                "pitch": 90,
                "velocity": 51,
                "duration": 106.32727272727271,
                "tempo": 120.0
            },
            {
                "start_time": 171.27272727272725,
                "end_time": 171.475,
                "pitch": 79,
                "velocity": 51,
                "duration": 0.20227272727274226,
                "tempo": 120.0
            },
            {
                "start_time": 120.4090909090909,
                "end_time": 171.875,
                "pitch": 77,
                "velocity": 51,
                "duration": 51.46590909090909,
                "tempo": 120.0
            },
            {
                "start_time": 171.67499999999998,
                "end_time": 171.875,
                "pitch": 77,
                "velocity": 51,
                "duration": 0.20000000000001705,
                "tempo": 120.0
            },
            {
                "start_time": 171.875,
                "end_time": 172.0772727272727,
                "pitch": 74,
                "velocity": 51,
                "duration": 0.20227272727271384,
                "tempo": 120.0
            },
            {
                "start_time": 171.07272727272726,
                "end_time": 172.28181818181818,
                "pitch": 72,
                "velocity": 51,
                "duration": 1.2090909090909179,
                "tempo": 120.0
            },
            {
                "start_time": 172.0772727272727,
                "end_time": 172.28181818181818,
                "pitch": 72,
                "velocity": 51,
                "duration": 0.20454545454546746,
                "tempo": 120.0
            }
        ],
        "Church Organ": [
            {
                "start_time": 14.49090909090909,
                "end_time": 15.134090909090908,
                "pitch": 55,
                "velocity": 51,
                "duration": 0.6431818181818176,
                "tempo": 120.0
            },
            {
                "start_time": 15.134090909090908,
                "end_time": 15.184090909090909,
                "pitch": 55,
                "velocity": 51,
                "duration": 0.05000000000000071,
                "tempo": 120.0
            },
            {
                "start_time": 15.134090909090908,
                "end_time": 15.268181818181818,
                "pitch": 0,
                "velocity": 51,
                "duration": 0.1340909090909097,
                "tempo": 120.0
            },
            {
                "start_time": 15.184090909090909,
                "end_time": 15.268181818181818,
                "pitch": 55,
                "velocity": 51,
                "duration": 0.084090909090909,
                "tempo": 120.0
            },
            {
                "start_time": 15.268181818181818,
                "end_time": 15.318181818181817,
                "pitch": 55,
                "velocity": 51,
                "duration": 0.049999999999998934,
                "tempo": 120.0
            },
            {
                "start_time": 15.184090909090909,
                "end_time": 15.318181818181817,
                "pitch": 67,
                "velocity": 51,
                "duration": 0.13409090909090793,
                "tempo": 120.0
            },
            {
                "start_time": 15.268181818181818,
                "end_time": 15.402272727272727,
                "pitch": 0,
                "velocity": 51,
                "duration": 0.1340909090909097,
                "tempo": 120.0
            },
            {
                "start_time": 15.318181818181817,
                "end_time": 15.402272727272727,
                "pitch": 55,
                "velocity": 51,
                "duration": 0.08409090909091077,
                "tempo": 120.0
            },
            {
                "start_time": 15.402272727272727,
                "end_time": 15.452272727272726,
                "pitch": 55,
                "velocity": 51,
                "duration": 0.049999999999998934,
                "tempo": 120.0
            },
            {
                "start_time": 15.318181818181817,
                "end_time": 15.452272727272726,
                "pitch": 67,
                "velocity": 51,
                "duration": 0.1340909090909097,
                "tempo": 120.0
            },
            {
                "start_time": 15.402272727272727,
                "end_time": 15.536363636363635,
                "pitch": 0,
                "velocity": 51,
                "duration": 0.13409090909090793,
                "tempo": 120.0
            },
            {
                "start_time": 15.452272727272726,
                "end_time": 15.536363636363635,
                "pitch": 55,
                "velocity": 51,
                "duration": 0.084090909090909,
                "tempo": 120.0
            },
            {
                "start_time": 15.536363636363635,
                "end_time": 15.586363636363636,
                "pitch": 55,
                "velocity": 51,
                "duration": 0.05000000000000071,
                "tempo": 120.0
            },
            {
                "start_time": 15.452272727272726,
                "end_time": 15.586363636363636,
                "pitch": 67,
                "velocity": 51,
                "duration": 0.1340909090909097,
                "tempo": 120.0
            },
            {
                "start_time": 15.536363636363635,
                "end_time": 15.670454545454545,
                "pitch": 0,
                "velocity": 51,
                "duration": 0.1340909090909097,
                "tempo": 120.0
            },
            {
                "start_time": 15.586363636363636,
                "end_time": 15.670454545454545,
                "pitch": 55,
                "velocity": 51,
                "duration": 0.084090909090909,
                "tempo": 120.0
            },
            {
                "start_time": 15.670454545454545,
                "end_time": 15.720454545454544,
                "pitch": 55,
                "velocity": 51,
                "duration": 0.049999999999998934,
                "tempo": 120.0
            },
            {
                "start_time": 15.586363636363636,
                "end_time": 15.720454545454544,
                "pitch": 67,
                "velocity": 51,
                "duration": 0.13409090909090793,
                "tempo": 120.0
            },
            {
                "start_time": 15.670454545454545,
                "end_time": 15.804545454545453,
                "pitch": 0,
                "velocity": 51,
                "duration": 0.13409090909090793,
                "tempo": 120.0
            },
            {
                "start_time": 15.720454545454544,
                "end_time": 15.804545454545453,
                "pitch": 55,
                "velocity": 51,
                "duration": 0.084090909090909,
                "tempo": 120.0
            },
            {
                "start_time": 15.804545454545453,
                "end_time": 15.85681818181818,
                "pitch": 55,
                "velocity": 51,
                "duration": 0.05227272727272769,
                "tempo": 120.0
            },
            {
                "start_time": 15.720454545454544,
                "end_time": 15.85681818181818,
                "pitch": 67,
                "velocity": 51,
                "duration": 0.1363636363636367,
                "tempo": 120.0
            },
            {
                "start_time": 15.804545454545453,
                "end_time": 15.938636363636363,
                "pitch": 0,
                "velocity": 51,
                "duration": 0.1340909090909097,
                "tempo": 120.0
            },
            {
                "start_time": 15.85681818181818,
                "end_time": 15.938636363636363,
                "pitch": 55,
                "velocity": 51,
                "duration": 0.08181818181818201,
                "tempo": 120.0
            },
            {
                "start_time": 15.938636363636363,
                "end_time": 15.99090909090909,
                "pitch": 55,
                "velocity": 51,
                "duration": 0.05227272727272769,
                "tempo": 120.0
            },
            {
                "start_time": 15.85681818181818,
                "end_time": 15.99090909090909,
                "pitch": 67,
                "velocity": 51,
                "duration": 0.1340909090909097,
                "tempo": 120.0
            },
            {
                "start_time": 15.938636363636363,
                "end_time": 16.075,
                "pitch": 0,
                "velocity": 51,
                "duration": 0.1363636363636367,
                "tempo": 120.0
            },
            {
                "start_time": 15.99090909090909,
                "end_time": 16.075,
                "pitch": 55,
                "velocity": 51,
                "duration": 0.084090909090909,
                "tempo": 120.0
            },
            {
                "start_time": 16.075,
                "end_time": 16.10909090909091,
                "pitch": 55,
                "velocity": 51,
                "duration": 0.03409090909091006,
                "tempo": 120.0
            },
            {
                "start_time": 15.99090909090909,
                "end_time": 16.10909090909091,
                "pitch": 67,
                "velocity": 51,
                "duration": 0.11818181818181905,
                "tempo": 120.0
            },
            {
                "start_time": 16.075,
                "end_time": 16.745454545454546,
                "pitch": 0,
                "velocity": 51,
                "duration": 0.6704545454545467,
                "tempo": 120.0
            },
            {
                "start_time": 16.10909090909091,
                "end_time": 16.745454545454546,
                "pitch": 55,
                "velocity": 51,
                "duration": 0.6363636363636367,
                "tempo": 120.0
            },
            {
                "start_time": 16.745454545454546,
                "end_time": 16.795454545454543,
                "pitch": 55,
                "velocity": 51,
                "duration": 0.04999999999999716,
                "tempo": 120.0
            },
            {
                "start_time": 16.10909090909091,
                "end_time": 16.795454545454543,
                "pitch": 67,
                "velocity": 51,
                "duration": 0.6863636363636338,
                "tempo": 120.0
            },
            {
                "start_time": 16.745454545454546,
                "end_time": 16.877272727272725,
                "pitch": 0,
                "velocity": 51,
                "duration": 0.13181818181817917,
                "tempo": 120.0
            },
            {
                "start_time": 16.795454545454543,
                "end_time": 16.877272727272725,
                "pitch": 55,
                "velocity": 51,
                "duration": 0.08181818181818201,
                "tempo": 120.0
            },
            {
                "start_time": 16.877272727272725,
                "end_time": 16.927272727272726,
                "pitch": 55,
                "velocity": 51,
                "duration": 0.05000000000000071,
                "tempo": 120.0
            },
            {
                "start_time": 16.795454545454543,
                "end_time": 16.927272727272726,
                "pitch": 67,
                "velocity": 51,
                "duration": 0.13181818181818272,
                "tempo": 120.0
            },
            {
                "start_time": 16.877272727272725,
                "end_time": 17.011363636363637,
                "pitch": 0,
                "velocity": 51,
                "duration": 0.13409090909091148,
                "tempo": 120.0
            },
            {
                "start_time": 16.927272727272726,
                "end_time": 17.011363636363637,
                "pitch": 55,
                "velocity": 51,
                "duration": 0.08409090909091077,
                "tempo": 120.0
            },
            {
                "start_time": 17.011363636363637,
                "end_time": 17.061363636363634,
                "pitch": 55,
                "velocity": 51,
                "duration": 0.04999999999999716,
                "tempo": 120.0
            },
            {
                "start_time": 16.927272727272726,
                "end_time": 17.061363636363634,
                "pitch": 67,
                "velocity": 51,
                "duration": 0.13409090909090793,
                "tempo": 120.0
            },
            {
                "start_time": 17.011363636363637,
                "end_time": 17.145454545454545,
                "pitch": 0,
                "velocity": 51,
                "duration": 0.13409090909090793,
                "tempo": 120.0
            },
            {
                "start_time": 17.061363636363634,
                "end_time": 17.145454545454545,
                "pitch": 55,
                "velocity": 51,
                "duration": 0.08409090909091077,
                "tempo": 120.0
            },
            {
                "start_time": 17.145454545454545,
                "end_time": 17.195454545454545,
                "pitch": 55,
                "velocity": 51,
                "duration": 0.05000000000000071,
                "tempo": 120.0
            },
            {
                "start_time": 17.061363636363634,
                "end_time": 17.195454545454545,
                "pitch": 67,
                "velocity": 51,
                "duration": 0.13409090909091148,
                "tempo": 120.0
            },
            {
                "start_time": 17.145454545454545,
                "end_time": 17.279545454545453,
                "pitch": 0,
                "velocity": 51,
                "duration": 0.13409090909090793,
                "tempo": 120.0
            },
            {
                "start_time": 17.195454545454545,
                "end_time": 17.279545454545453,
                "pitch": 55,
                "velocity": 51,
                "duration": 0.08409090909090722,
                "tempo": 120.0
            },
            {
                "start_time": 17.279545454545453,
                "end_time": 17.329545454545453,
                "pitch": 55,
                "velocity": 51,
                "duration": 0.05000000000000071,
                "tempo": 120.0
            },
            {
                "start_time": 17.195454545454545,
                "end_time": 17.329545454545453,
                "pitch": 67,
                "velocity": 51,
                "duration": 0.13409090909090793,
                "tempo": 120.0
            },
            {
                "start_time": 17.279545454545453,
                "end_time": 17.413636363636364,
                "pitch": 0,
                "velocity": 51,
                "duration": 0.13409090909091148,
                "tempo": 120.0
            },
            {
                "start_time": 17.329545454545453,
                "end_time": 17.413636363636364,
                "pitch": 55,
                "velocity": 51,
                "duration": 0.08409090909091077,
                "tempo": 120.0
            },
            {
                "start_time": 17.413636363636364,
                "end_time": 17.46363636363636,
                "pitch": 55,
                "velocity": 51,
                "duration": 0.04999999999999716,
                "tempo": 120.0
            },
            {
                "start_time": 17.329545454545453,
                "end_time": 17.46363636363636,
                "pitch": 67,
                "velocity": 51,
                "duration": 0.13409090909090793,
                "tempo": 120.0
            },
            {
                "start_time": 17.413636363636364,
                "end_time": 17.547727272727272,
                "pitch": 0,
                "velocity": 51,
                "duration": 0.13409090909090793,
                "tempo": 120.0
            },
            {
                "start_time": 17.46363636363636,
                "end_time": 17.547727272727272,
                "pitch": 55,
                "velocity": 51,
                "duration": 0.08409090909091077,
                "tempo": 120.0
            },
            {
                "start_time": 17.547727272727272,
                "end_time": 17.597727272727273,
                "pitch": 55,
                "velocity": 51,
                "duration": 0.05000000000000071,
                "tempo": 120.0
            },
            {
                "start_time": 17.46363636363636,
                "end_time": 17.597727272727273,
                "pitch": 67,
                "velocity": 51,
                "duration": 0.13409090909091148,
                "tempo": 120.0
            },
            {
                "start_time": 17.547727272727272,
                "end_time": 17.68181818181818,
                "pitch": 0,
                "velocity": 51,
                "duration": 0.13409090909090793,
                "tempo": 120.0
            },
            {
                "start_time": 17.597727272727273,
                "end_time": 17.68181818181818,
                "pitch": 55,
                "velocity": 51,
                "duration": 0.08409090909090722,
                "tempo": 120.0
            },
            {
                "start_time": 17.68181818181818,
                "end_time": 17.71590909090909,
                "pitch": 55,
                "velocity": 51,
                "duration": 0.03409090909091006,
                "tempo": 120.0
            },
            {
                "start_time": 17.597727272727273,
                "end_time": 17.71818181818182,
                "pitch": 67,
                "velocity": 51,
                "duration": 0.12045454545454604,
                "tempo": 120.0
            },
            {
                "start_time": 17.71818181818182,
                "end_time": 19.32272727272727,
                "pitch": 57,
                "velocity": 51,
                "duration": 1.6045454545454518,
                "tempo": 120.0
            },
            {
                "start_time": 19.32272727272727,
                "end_time": 20.94090909090909,
                "pitch": 57,
                "velocity": 51,
                "duration": 1.6181818181818208,
                "tempo": 120.0
            },
            {
                "start_time": 20.94090909090909,
                "end_time": 22.545454545454543,
                "pitch": 57,
                "velocity": 51,
                "duration": 1.6045454545454518,
                "tempo": 120.0
            },
            {
                "start_time": 22.545454545454543,
                "end_time": 24.152272727272727,
                "pitch": 59,
                "velocity": 51,
                "duration": 1.6068181818181841,
                "tempo": 120.0
            },
            {
                "start_time": 24.154545454545453,
                "end_time": 25.75681818181818,
                "pitch": 60,
                "velocity": 51,
                "duration": 1.6022727272727266,
                "tempo": 120.0
            },
            {
                "start_time": 25.75681818181818,
                "end_time": 27.377272727272725,
                "pitch": 62,
                "velocity": 51,
                "duration": 1.620454545454546,
                "tempo": 120.0
            },
            {
                "start_time": 17.68181818181818,
                "end_time": 28.004545454545454,
                "pitch": 0,
                "velocity": 51,
                "duration": 10.322727272727274,
                "tempo": 120.0
            },
            {
                "start_time": 27.377272727272725,
                "end_time": 28.004545454545454,
                "pitch": 55,
                "velocity": 51,
                "duration": 0.6272727272727288,
                "tempo": 120.0
            },
            {
                "start_time": 28.004545454545454,
                "end_time": 28.054545454545455,
                "pitch": 55,
                "velocity": 51,
                "duration": 0.05000000000000071,
                "tempo": 120.0
            },
            {
                "start_time": 17.71818181818182,
                "end_time": 28.054545454545455,
                "pitch": 67,
                "velocity": 51,
                "duration": 10.336363636363636,
                "tempo": 120.0
            },
            {
                "start_time": 28.054545454545455,
                "end_time": 28.134090909090908,
                "pitch": 55,
                "velocity": 51,
                "duration": 0.07954545454545325,
                "tempo": 120.0
            },
            {
                "start_time": 28.004545454545454,
                "end_time": 28.136363636363637,
                "pitch": 0,
                "velocity": 51,
                "duration": 0.13181818181818272,
                "tempo": 120.0
            },
            {
                "start_time": 28.134090909090908,
                "end_time": 28.136363636363637,
                "pitch": 0,
                "velocity": 51,
                "duration": 0.0022727272727287584,
                "tempo": 120.0
            },
            {
                "start_time": 28.136363636363637,
                "end_time": 28.18409090909091,
                "pitch": 55,
                "velocity": 51,
                "duration": 0.04772727272727195,
                "tempo": 120.0
            },
            {
                "start_time": 28.054545454545455,
                "end_time": 28.18409090909091,
                "pitch": 67,
                "velocity": 51,
                "duration": 0.12954545454545396,
                "tempo": 120.0
            },
            {
                "start_time": 28.18409090909091,
                "end_time": 28.270454545454545,
                "pitch": 55,
                "velocity": 51,
                "duration": 0.08636363636363598,
                "tempo": 120.0
            },
            {
                "start_time": 28.270454545454545,
                "end_time": 28.32272727272727,
                "pitch": 55,
                "velocity": 51,
                "duration": 0.052272727272725916,
                "tempo": 120.0
            },
            {
                "start_time": 28.18409090909091,
                "end_time": 28.32272727272727,
                "pitch": 67,
                "velocity": 51,
                "duration": 0.1386363636363619,
                "tempo": 120.0
            },
            {
                "start_time": 28.270454545454545,
                "end_time": 28.40681818181818,
                "pitch": 0,
                "velocity": 51,
                "duration": 0.1363636363636367,
                "tempo": 120.0
            },
            {
                "start_time": 28.32272727272727,
                "end_time": 28.40681818181818,
                "pitch": 55,
                "velocity": 51,
                "duration": 0.08409090909091077,
                "tempo": 120.0
            },
            {
                "start_time": 28.40681818181818,
                "end_time": 28.459090909090907,
                "pitch": 55,
                "velocity": 51,
                "duration": 0.052272727272725916,
                "tempo": 120.0
            },
            {
                "start_time": 28.32272727272727,
                "end_time": 28.459090909090907,
                "pitch": 67,
                "velocity": 51,
                "duration": 0.1363636363636367,
                "tempo": 120.0
            },
            {
                "start_time": 28.40681818181818,
                "end_time": 28.545454545454543,
                "pitch": 0,
                "velocity": 51,
                "duration": 0.1386363636363619,
                "tempo": 120.0
            },
            {
                "start_time": 28.459090909090907,
                "end_time": 28.545454545454543,
                "pitch": 55,
                "velocity": 51,
                "duration": 0.08636363636363598,
                "tempo": 120.0
            },
            {
                "start_time": 28.545454545454543,
                "end_time": 28.595454545454544,
                "pitch": 55,
                "velocity": 51,
                "duration": 0.05000000000000071,
                "tempo": 120.0
            },
            {
                "start_time": 28.459090909090907,
                "end_time": 28.595454545454544,
                "pitch": 67,
                "velocity": 51,
                "duration": 0.1363636363636367,
                "tempo": 120.0
            },
            {
                "start_time": 28.545454545454543,
                "end_time": 28.679545454545455,
                "pitch": 0,
                "velocity": 51,
                "duration": 0.13409090909091148,
                "tempo": 120.0
            },
            {
                "start_time": 28.595454545454544,
                "end_time": 28.679545454545455,
                "pitch": 55,
                "velocity": 51,
                "duration": 0.08409090909091077,
                "tempo": 120.0
            },
            {
                "start_time": 28.679545454545455,
                "end_time": 28.729545454545452,
                "pitch": 55,
                "velocity": 51,
                "duration": 0.04999999999999716,
                "tempo": 120.0
            },
            {
                "start_time": 28.595454545454544,
                "end_time": 28.729545454545452,
                "pitch": 67,
                "velocity": 51,
                "duration": 0.13409090909090793,
                "tempo": 120.0
            },
            {
                "start_time": 28.679545454545455,
                "end_time": 28.813636363636363,
                "pitch": 0,
                "velocity": 51,
                "duration": 0.13409090909090793,
                "tempo": 120.0
            },
            {
                "start_time": 28.729545454545452,
                "end_time": 28.813636363636363,
                "pitch": 55,
                "velocity": 51,
                "duration": 0.08409090909091077,
                "tempo": 120.0
            },
            {
                "start_time": 28.813636363636363,
                "end_time": 28.863636363636363,
                "pitch": 55,
                "velocity": 51,
                "duration": 0.05000000000000071,
                "tempo": 120.0
            },
            {
                "start_time": 28.729545454545452,
                "end_time": 28.863636363636363,
                "pitch": 67,
                "velocity": 51,
                "duration": 0.13409090909091148,
                "tempo": 120.0
            },
            {
                "start_time": 28.813636363636363,
                "end_time": 28.945454545454545,
                "pitch": 0,
                "velocity": 51,
                "duration": 0.13181818181818272,
                "tempo": 120.0
            },
            {
                "start_time": 28.863636363636363,
                "end_time": 28.945454545454545,
                "pitch": 55,
                "velocity": 51,
                "duration": 0.08181818181818201,
                "tempo": 120.0
            },
            {
                "start_time": 28.945454545454545,
                "end_time": 28.98181818181818,
                "pitch": 55,
                "velocity": 51,
                "duration": 0.036363636363635266,
                "tempo": 120.0
            },
            {
                "start_time": 28.863636363636363,
                "end_time": 28.98181818181818,
                "pitch": 67,
                "velocity": 51,
                "duration": 0.11818181818181728,
                "tempo": 120.0
            },
            {
                "start_time": 28.945454545454545,
                "end_time": 29.61590909090909,
                "pitch": 0,
                "velocity": 51,
                "duration": 0.6704545454545432,
                "tempo": 120.0
            },
            {
                "start_time": 28.98181818181818,
                "end_time": 29.61590909090909,
                "pitch": 55,
                "velocity": 51,
                "duration": 0.6340909090909079,
                "tempo": 120.0
            },
            {
                "start_time": 29.61590909090909,
                "end_time": 29.66590909090909,
                "pitch": 55,
                "velocity": 51,
                "duration": 0.05000000000000071,
                "tempo": 120.0
            },
            {
                "start_time": 28.98181818181818,
                "end_time": 29.66590909090909,
                "pitch": 67,
                "velocity": 51,
                "duration": 0.6840909090909086,
                "tempo": 120.0
            },
            {
                "start_time": 29.61590909090909,
                "end_time": 29.75,
                "pitch": 0,
                "velocity": 51,
                "duration": 0.13409090909091148,
                "tempo": 120.0
            },
            {
                "start_time": 29.66590909090909,
                "end_time": 29.75,
                "pitch": 55,
                "velocity": 51,
                "duration": 0.08409090909091077,
                "tempo": 120.0
            },
            {
                "start_time": 29.75,
                "end_time": 29.799999999999997,
                "pitch": 55,
                "velocity": 51,
                "duration": 0.04999999999999716,
                "tempo": 120.0
            },
            {
                "start_time": 29.66590909090909,
                "end_time": 29.799999999999997,
                "pitch": 67,
                "velocity": 51,
                "duration": 0.13409090909090793,
                "tempo": 120.0
            },
            {
                "start_time": 29.75,
                "end_time": 29.884090909090908,
                "pitch": 0,
                "velocity": 51,
                "duration": 0.13409090909090793,
                "tempo": 120.0
            },
            {
                "start_time": 29.799999999999997,
                "end_time": 29.884090909090908,
                "pitch": 55,
                "velocity": 51,
                "duration": 0.08409090909091077,
                "tempo": 120.0
            },
            {
                "start_time": 29.884090909090908,
                "end_time": 29.93409090909091,
                "pitch": 55,
                "velocity": 51,
                "duration": 0.05000000000000071,
                "tempo": 120.0
            },
            {
                "start_time": 29.799999999999997,
                "end_time": 29.93409090909091,
                "pitch": 67,
                "velocity": 51,
                "duration": 0.13409090909091148,
                "tempo": 120.0
            },
            {
                "start_time": 29.884090909090908,
                "end_time": 30.018181818181816,
                "pitch": 0,
                "velocity": 51,
                "duration": 0.13409090909090793,
                "tempo": 120.0
            },
            {
                "start_time": 29.93409090909091,
                "end_time": 30.018181818181816,
                "pitch": 55,
                "velocity": 51,
                "duration": 0.08409090909090722,
                "tempo": 120.0
            },
            {
                "start_time": 30.018181818181816,
                "end_time": 30.068181818181817,
                "pitch": 55,
                "velocity": 51,
                "duration": 0.05000000000000071,
                "tempo": 120.0
            },
            {
                "start_time": 29.93409090909091,
                "end_time": 30.068181818181817,
                "pitch": 67,
                "velocity": 51,
                "duration": 0.13409090909090793,
                "tempo": 120.0
            },
            {
                "start_time": 30.018181818181816,
                "end_time": 30.15,
                "pitch": 0,
                "velocity": 51,
                "duration": 0.13181818181818272,
                "tempo": 120.0
            },
            {
                "start_time": 30.068181818181817,
                "end_time": 30.15,
                "pitch": 55,
                "velocity": 51,
                "duration": 0.08181818181818201,
                "tempo": 120.0
            },
            {
                "start_time": 30.15,
                "end_time": 30.2,
                "pitch": 55,
                "velocity": 51,
                "duration": 0.05000000000000071,
                "tempo": 120.0
            },
            {
                "start_time": 30.068181818181817,
                "end_time": 30.2,
                "pitch": 67,
                "velocity": 51,
                "duration": 0.13181818181818272,
                "tempo": 120.0
            },
            {
                "start_time": 30.15,
                "end_time": 30.284090909090907,
                "pitch": 0,
                "velocity": 51,
                "duration": 0.13409090909090793,
                "tempo": 120.0
            },
            {
                "start_time": 30.2,
                "end_time": 30.284090909090907,
                "pitch": 55,
                "velocity": 51,
                "duration": 0.08409090909090722,
                "tempo": 120.0
            },
            {
                "start_time": 30.284090909090907,
                "end_time": 30.336363636363636,
                "pitch": 55,
                "velocity": 51,
                "duration": 0.05227272727272947,
                "tempo": 120.0
            },
            {
                "start_time": 30.2,
                "end_time": 30.336363636363636,
                "pitch": 67,
                "velocity": 51,
                "duration": 0.1363636363636367,
                "tempo": 120.0
            },
            {
                "start_time": 30.284090909090907,
                "end_time": 30.420454545454543,
                "pitch": 0,
                "velocity": 51,
                "duration": 0.1363636363636367,
                "tempo": 120.0
            },
            {
                "start_time": 30.336363636363636,
                "end_time": 30.420454545454543,
                "pitch": 55,
                "velocity": 51,
                "duration": 0.08409090909090722,
                "tempo": 120.0
            },
            {
                "start_time": 30.420454545454543,
                "end_time": 30.470454545454544,
                "pitch": 55,
                "velocity": 51,
                "duration": 0.05000000000000071,
                "tempo": 120.0
            },
            {
                "start_time": 30.336363636363636,
                "end_time": 30.470454545454544,
                "pitch": 67,
                "velocity": 51,
                "duration": 0.13409090909090793,
                "tempo": 120.0
            },
            {
                "start_time": 30.420454545454543,
                "end_time": 30.554545454545455,
                "pitch": 0,
                "velocity": 51,
                "duration": 0.13409090909091148,
                "tempo": 120.0
            },
            {
                "start_time": 30.470454545454544,
                "end_time": 30.554545454545455,
                "pitch": 55,
                "velocity": 51,
                "duration": 0.08409090909091077,
                "tempo": 120.0
            },
            {
                "start_time": 30.554545454545455,
                "end_time": 30.58863636363636,
                "pitch": 55,
                "velocity": 51,
                "duration": 0.03409090909090651,
                "tempo": 120.0
            },
            {
                "start_time": 30.470454545454544,
                "end_time": 30.58863636363636,
                "pitch": 67,
                "velocity": 51,
                "duration": 0.11818181818181728,
                "tempo": 120.0
            },
            {
                "start_time": 22.545454545454543,
                "end_time": 32.19318181818182,
                "pitch": 57,
                "velocity": 51,
                "duration": 9.647727272727277,
                "tempo": 120.0
            },
            {
                "start_time": 30.58863636363636,
                "end_time": 32.19318181818182,
                "pitch": 57,
                "velocity": 51,
                "duration": 1.604545454545459,
                "tempo": 120.0
            },
            {
                "start_time": 32.195454545454545,
                "end_time": 33.8,
                "pitch": 57,
                "velocity": 51,
                "duration": 1.6045454545454518,
                "tempo": 120.0
            },
            {
                "start_time": 33.8,
                "end_time": 35.40681818181818,
                "pitch": 57,
                "velocity": 51,
                "duration": 1.6068181818181841,
                "tempo": 120.0
            },
            {
                "start_time": 25.75681818181818,
                "end_time": 37.02272727272727,
                "pitch": 59,
                "velocity": 51,
                "duration": 11.265909090909094,
                "tempo": 120.0
            },
            {
                "start_time": 35.40681818181818,
                "end_time": 37.02272727272727,
                "pitch": 59,
                "velocity": 51,
                "duration": 1.615909090909092,
                "tempo": 120.0
            },
            {
                "start_time": 30.554545454545455,
                "end_time": 37.654545454545456,
                "pitch": 0,
                "velocity": 51,
                "duration": 7.100000000000001,
                "tempo": 120.0
            },
            {
                "start_time": 37.02272727272727,
                "end_time": 37.654545454545456,
                "pitch": 55,
                "velocity": 51,
                "duration": 0.6318181818181827,
                "tempo": 120.0
            },
            {
                "start_time": 37.654545454545456,
                "end_time": 37.70454545454545,
                "pitch": 55,
                "velocity": 51,
                "duration": 0.04999999999999716,
                "tempo": 120.0
            },
            {
                "start_time": 30.58863636363636,
                "end_time": 37.70454545454545,
                "pitch": 67,
                "velocity": 51,
                "duration": 7.115909090909092,
                "tempo": 120.0
            },
            {
                "start_time": 37.654545454545456,
                "end_time": 37.788636363636364,
                "pitch": 0,
                "velocity": 51,
                "duration": 0.13409090909090793,
                "tempo": 120.0
            },
            {
                "start_time": 37.70454545454545,
                "end_time": 37.788636363636364,
                "pitch": 55,
                "velocity": 51,
                "duration": 0.08409090909091077,
                "tempo": 120.0
            },
            {
                "start_time": 37.788636363636364,
                "end_time": 37.83863636363636,
                "pitch": 55,
                "velocity": 51,
                "duration": 0.04999999999999716,
                "tempo": 120.0
            },
            {
                "start_time": 37.70454545454545,
                "end_time": 37.83863636363636,
                "pitch": 67,
                "velocity": 51,
                "duration": 0.13409090909090793,
                "tempo": 120.0
            },
            {
                "start_time": 37.788636363636364,
                "end_time": 37.92272727272727,
                "pitch": 0,
                "velocity": 51,
                "duration": 0.13409090909090793,
                "tempo": 120.0
            },
            {
                "start_time": 37.83863636363636,
                "end_time": 37.92272727272727,
                "pitch": 55,
                "velocity": 51,
                "duration": 0.08409090909091077,
                "tempo": 120.0
            },
            {
                "start_time": 37.92272727272727,
                "end_time": 37.97272727272727,
                "pitch": 55,
                "velocity": 51,
                "duration": 0.04999999999999716,
                "tempo": 120.0
            },
            {
                "start_time": 37.83863636363636,
                "end_time": 37.97272727272727,
                "pitch": 67,
                "velocity": 51,
                "duration": 0.13409090909090793,
                "tempo": 120.0
            },
            {
                "start_time": 37.92272727272727,
                "end_time": 38.054545454545455,
                "pitch": 0,
                "velocity": 51,
                "duration": 0.13181818181818272,
                "tempo": 120.0
            },
            {
                "start_time": 37.97272727272727,
                "end_time": 38.054545454545455,
                "pitch": 55,
                "velocity": 51,
                "duration": 0.08181818181818556,
                "tempo": 120.0
            },
            {
                "start_time": 38.054545454545455,
                "end_time": 38.10454545454545,
                "pitch": 55,
                "velocity": 51,
                "duration": 0.04999999999999716,
                "tempo": 120.0
            },
            {
                "start_time": 37.97272727272727,
                "end_time": 38.10454545454545,
                "pitch": 67,
                "velocity": 51,
                "duration": 0.13181818181818272,
                "tempo": 120.0
            },
            {
                "start_time": 38.054545454545455,
                "end_time": 38.18863636363636,
                "pitch": 0,
                "velocity": 51,
                "duration": 0.13409090909090793,
                "tempo": 120.0
            },
            {
                "start_time": 38.10454545454545,
                "end_time": 38.18863636363636,
                "pitch": 55,
                "velocity": 51,
                "duration": 0.08409090909091077,
                "tempo": 120.0
            },
            {
                "start_time": 38.18863636363636,
                "end_time": 38.23863636363636,
                "pitch": 55,
                "velocity": 51,
                "duration": 0.04999999999999716,
                "tempo": 120.0
            },
            {
                "start_time": 38.10454545454545,
                "end_time": 38.23863636363636,
                "pitch": 67,
                "velocity": 51,
                "duration": 0.13409090909090793,
                "tempo": 120.0
            },
            {
                "start_time": 38.18863636363636,
                "end_time": 38.32272727272727,
                "pitch": 0,
                "velocity": 51,
                "duration": 0.13409090909090793,
                "tempo": 120.0
            },
            {
                "start_time": 38.23863636363636,
                "end_time": 38.32272727272727,
                "pitch": 55,
                "velocity": 51,
                "duration": 0.08409090909091077,
                "tempo": 120.0
            },
            {
                "start_time": 38.32272727272727,
                "end_time": 38.37272727272727,
                "pitch": 55,
                "velocity": 51,
                "duration": 0.04999999999999716,
                "tempo": 120.0
            },
            {
                "start_time": 38.23863636363636,
                "end_time": 38.37272727272727,
                "pitch": 67,
                "velocity": 51,
                "duration": 0.13409090909090793,
                "tempo": 120.0
            },
            {
                "start_time": 38.32272727272727,
                "end_time": 38.45681818181818,
                "pitch": 0,
                "velocity": 51,
                "duration": 0.13409090909090793,
                "tempo": 120.0
            },
            {
                "start_time": 38.37272727272727,
                "end_time": 38.45681818181818,
                "pitch": 55,
                "velocity": 51,
                "duration": 0.08409090909091077,
                "tempo": 120.0
            },
            {
                "start_time": 38.45681818181818,
                "end_time": 38.50681818181818,
                "pitch": 55,
                "velocity": 51,
                "duration": 0.05000000000000426,
                "tempo": 120.0
            },
            {
                "start_time": 38.37272727272727,
                "end_time": 38.50681818181818,
                "pitch": 67,
                "velocity": 51,
                "duration": 0.13409090909091503,
                "tempo": 120.0
            },
            {
                "start_time": 38.45681818181818,
                "end_time": 38.590909090909086,
                "pitch": 0,
                "velocity": 51,
                "duration": 0.13409090909090793,
                "tempo": 120.0
            },
            {
                "start_time": 38.50681818181818,
                "end_time": 38.590909090909086,
                "pitch": 55,
                "velocity": 51,
                "duration": 0.08409090909090366,
                "tempo": 120.0
            },
            {
                "start_time": 38.590909090909086,
                "end_time": 38.627272727272725,
                "pitch": 55,
                "velocity": 51,
                "duration": 0.03636363636363882,
                "tempo": 120.0
            },
            {
                "start_time": 38.50681818181818,
                "end_time": 38.627272727272725,
                "pitch": 67,
                "velocity": 51,
                "duration": 0.12045454545454248,
                "tempo": 120.0
            },
            {
                "start_time": 38.590909090909086,
                "end_time": 39.25909090909091,
                "pitch": 0,
                "velocity": 51,
                "duration": 0.6681818181818215,
                "tempo": 120.0
            },
            {
                "start_time": 38.627272727272725,
                "end_time": 39.25909090909091,
                "pitch": 55,
                "velocity": 51,
                "duration": 0.6318181818181827,
                "tempo": 120.0
            },
            {
                "start_time": 39.25909090909091,
                "end_time": 39.309090909090905,
                "pitch": 55,
                "velocity": 51,
                "duration": 0.04999999999999716,
                "tempo": 120.0
            },
            {
                "start_time": 38.627272727272725,
                "end_time": 39.309090909090905,
                "pitch": 67,
                "velocity": 51,
                "duration": 0.6818181818181799,
                "tempo": 120.0
            },
            {
                "start_time": 39.25909090909091,
                "end_time": 39.393181818181816,
                "pitch": 0,
                "velocity": 51,
                "duration": 0.13409090909090793,
                "tempo": 120.0
            },
            {
                "start_time": 39.309090909090905,
                "end_time": 39.393181818181816,
                "pitch": 55,
                "velocity": 51,
                "duration": 0.08409090909091077,
                "tempo": 120.0
            },
            {
                "start_time": 39.393181818181816,
                "end_time": 39.44318181818181,
                "pitch": 55,
                "velocity": 51,
                "duration": 0.04999999999999716,
                "tempo": 120.0
            },
            {
                "start_time": 39.309090909090905,
                "end_time": 39.44318181818181,
                "pitch": 67,
                "velocity": 51,
                "duration": 0.13409090909090793,
                "tempo": 120.0
            },
            {
                "start_time": 39.393181818181816,
                "end_time": 39.527272727272724,
                "pitch": 0,
                "velocity": 51,
                "duration": 0.13409090909090793,
                "tempo": 120.0
            },
            {
                "start_time": 39.44318181818181,
                "end_time": 39.527272727272724,
                "pitch": 55,
                "velocity": 51,
                "duration": 0.08409090909091077,
                "tempo": 120.0
            },
            {
                "start_time": 39.527272727272724,
                "end_time": 39.57727272727273,
                "pitch": 55,
                "velocity": 51,
                "duration": 0.05000000000000426,
                "tempo": 120.0
            },
            {
                "start_time": 39.44318181818181,
                "end_time": 39.57727272727273,
                "pitch": 67,
                "velocity": 51,
                "duration": 0.13409090909091503,
                "tempo": 120.0
            },
            {
                "start_time": 39.527272727272724,
                "end_time": 39.66136363636363,
                "pitch": 0,
                "velocity": 51,
                "duration": 0.13409090909090793,
                "tempo": 120.0
            },
            {
                "start_time": 39.57727272727273,
                "end_time": 39.66136363636363,
                "pitch": 55,
                "velocity": 51,
                "duration": 0.08409090909090366,
                "tempo": 120.0
            },
            {
                "start_time": 39.66136363636363,
                "end_time": 39.711363636363636,
                "pitch": 55,
                "velocity": 51,
                "duration": 0.05000000000000426,
                "tempo": 120.0
            },
            {
                "start_time": 39.57727272727273,
                "end_time": 39.711363636363636,
                "pitch": 67,
                "velocity": 51,
                "duration": 0.13409090909090793,
                "tempo": 120.0
            },
            {
                "start_time": 39.66136363636363,
                "end_time": 39.793181818181814,
                "pitch": 0,
                "velocity": 51,
                "duration": 0.13181818181818272,
                "tempo": 120.0
            },
            {
                "start_time": 39.711363636363636,
                "end_time": 39.793181818181814,
                "pitch": 55,
                "velocity": 51,
                "duration": 0.08181818181817846,
                "tempo": 120.0
            },
            {
                "start_time": 39.793181818181814,
                "end_time": 39.84318181818182,
                "pitch": 55,
                "velocity": 51,
                "duration": 0.05000000000000426,
                "tempo": 120.0
            },
            {
                "start_time": 39.711363636363636,
                "end_time": 39.84318181818182,
                "pitch": 67,
                "velocity": 51,
                "duration": 0.13181818181818272,
                "tempo": 120.0
            },
            {
                "start_time": 39.793181818181814,
                "end_time": 39.92727272727272,
                "pitch": 0,
                "velocity": 51,
                "duration": 0.13409090909090793,
                "tempo": 120.0
            },
            {
                "start_time": 39.84318181818182,
                "end_time": 39.92727272727272,
                "pitch": 55,
                "velocity": 51,
                "duration": 0.08409090909090366,
                "tempo": 120.0
            },
            {
                "start_time": 39.92727272727272,
                "end_time": 39.97727272727273,
                "pitch": 55,
                "velocity": 51,
                "duration": 0.05000000000000426,
                "tempo": 120.0
            },
            {
                "start_time": 39.84318181818182,
                "end_time": 39.97727272727273,
                "pitch": 67,
                "velocity": 51,
                "duration": 0.13409090909090793,
                "tempo": 120.0
            },
            {
                "start_time": 39.92727272727272,
                "end_time": 40.06136363636364,
                "pitch": 0,
                "velocity": 51,
                "duration": 0.13409090909091503,
                "tempo": 120.0
            },
            {
                "start_time": 39.97727272727273,
                "end_time": 40.06136363636364,
                "pitch": 55,
                "velocity": 51,
                "duration": 0.08409090909091077,
                "tempo": 120.0
            },
            {
                "start_time": 40.06136363636364,
                "end_time": 40.111363636363635,
                "pitch": 55,
                "velocity": 51,
                "duration": 0.04999999999999716,
                "tempo": 120.0
            },
            {
                "start_time": 39.97727272727273,
                "end_time": 40.111363636363635,
                "pitch": 67,
                "velocity": 51,
                "duration": 0.13409090909090793,
                "tempo": 120.0
            },
            {
                "start_time": 40.06136363636364,
                "end_time": 40.195454545454545,
                "pitch": 0,
                "velocity": 51,
                "duration": 0.13409090909090793,
                "tempo": 120.0
            },
            {
                "start_time": 40.111363636363635,
                "end_time": 40.195454545454545,
                "pitch": 55,
                "velocity": 51,
                "duration": 0.08409090909091077,
                "tempo": 120.0
            },
            {
                "start_time": 40.195454545454545,
                "end_time": 40.22954545454545,
                "pitch": 55,
                "velocity": 51,
                "duration": 0.03409090909090651,
                "tempo": 120.0
            },
            {
                "start_time": 40.111363636363635,
                "end_time": 40.91590909090909,
                "pitch": 67,
                "velocity": 51,
                "duration": 0.8045454545454547,
                "tempo": 120.0
            },
            {
                "start_time": 40.22954545454545,
                "end_time": 40.91590909090909,
                "pitch": 67,
                "velocity": 51,
                "duration": 0.6863636363636374,
                "tempo": 120.0
            },
            {
                "start_time": 40.22954545454545,
                "end_time": 40.91590909090909,
                "pitch": 79,
                "velocity": 51,
                "duration": 0.6863636363636374,
                "tempo": 120.0
            },
            {
                "start_time": 40.91590909090909,
                "end_time": 41.04772727272727,
                "pitch": 67,
                "velocity": 51,
                "duration": 0.13181818181818272,
                "tempo": 120.0
            },
            {
                "start_time": 40.91590909090909,
                "end_time": 41.04772727272727,
                "pitch": 79,
                "velocity": 51,
                "duration": 0.13181818181818272,
                "tempo": 120.0
            },
            {
                "start_time": 41.04772727272727,
                "end_time": 41.18181818181818,
                "pitch": 67,
                "velocity": 51,
                "duration": 0.13409090909090793,
                "tempo": 120.0
            },
            {
                "start_time": 41.04772727272727,
                "end_time": 41.18181818181818,
                "pitch": 79,
                "velocity": 51,
                "duration": 0.13409090909090793,
                "tempo": 120.0
            },
            {
                "start_time": 41.18181818181818,
                "end_time": 41.31590909090909,
                "pitch": 67,
                "velocity": 51,
                "duration": 0.13409090909090793,
                "tempo": 120.0
            },
            {
                "start_time": 41.18181818181818,
                "end_time": 41.31590909090909,
                "pitch": 79,
                "velocity": 51,
                "duration": 0.13409090909090793,
                "tempo": 120.0
            },
            {
                "start_time": 41.31590909090909,
                "end_time": 41.44772727272727,
                "pitch": 67,
                "velocity": 51,
                "duration": 0.13181818181818272,
                "tempo": 120.0
            },
            {
                "start_time": 41.31590909090909,
                "end_time": 41.44772727272727,
                "pitch": 79,
                "velocity": 51,
                "duration": 0.13181818181818272,
                "tempo": 120.0
            },
            {
                "start_time": 41.44772727272727,
                "end_time": 41.586363636363636,
                "pitch": 67,
                "velocity": 51,
                "duration": 0.13863636363636545,
                "tempo": 120.0
            },
            {
                "start_time": 41.44772727272727,
                "end_time": 41.586363636363636,
                "pitch": 79,
                "velocity": 51,
                "duration": 0.13863636363636545,
                "tempo": 120.0
            },
            {
                "start_time": 41.586363636363636,
                "end_time": 41.72272727272727,
                "pitch": 67,
                "velocity": 51,
                "duration": 0.13636363636363313,
                "tempo": 120.0
            },
            {
                "start_time": 41.586363636363636,
                "end_time": 41.72272727272727,
                "pitch": 79,
                "velocity": 51,
                "duration": 0.13636363636363313,
                "tempo": 120.0
            },
            {
                "start_time": 41.72272727272727,
                "end_time": 41.845454545454544,
                "pitch": 67,
                "velocity": 51,
                "duration": 0.1227272727272748,
                "tempo": 120.0
            },
            {
                "start_time": 41.72272727272727,
                "end_time": 41.845454545454544,
                "pitch": 79,
                "velocity": 51,
                "duration": 0.1227272727272748,
                "tempo": 120.0
            },
            {
                "start_time": 41.845454545454544,
                "end_time": 42.53409090909091,
                "pitch": 67,
                "velocity": 51,
                "duration": 0.6886363636363626,
                "tempo": 120.0
            },
            {
                "start_time": 41.845454545454544,
                "end_time": 42.53409090909091,
                "pitch": 79,
                "velocity": 51,
                "duration": 0.6886363636363626,
                "tempo": 120.0
            },
            {
                "start_time": 42.53409090909091,
                "end_time": 42.663636363636364,
                "pitch": 67,
                "velocity": 51,
                "duration": 0.12954545454545752,
                "tempo": 120.0
            },
            {
                "start_time": 42.53409090909091,
                "end_time": 42.663636363636364,
                "pitch": 79,
                "velocity": 51,
                "duration": 0.12954545454545752,
                "tempo": 120.0
            },
            {
                "start_time": 42.663636363636364,
                "end_time": 42.79772727272727,
                "pitch": 67,
                "velocity": 51,
                "duration": 0.13409090909090793,
                "tempo": 120.0
            },
            {
                "start_time": 42.663636363636364,
                "end_time": 42.79772727272727,
                "pitch": 79,
                "velocity": 51,
                "duration": 0.13409090909090793,
                "tempo": 120.0
            },
            {
                "start_time": 42.79772727272727,
                "end_time": 42.93181818181818,
                "pitch": 67,
                "velocity": 51,
                "duration": 0.13409090909090793,
                "tempo": 120.0
            },
            {
                "start_time": 42.79772727272727,
                "end_time": 42.93181818181818,
                "pitch": 79,
                "velocity": 51,
                "duration": 0.13409090909090793,
                "tempo": 120.0
            },
            {
                "start_time": 42.93181818181818,
                "end_time": 43.06590909090909,
                "pitch": 67,
                "velocity": 51,
                "duration": 0.13409090909090793,
                "tempo": 120.0
            },
            {
                "start_time": 42.93181818181818,
                "end_time": 43.06590909090909,
                "pitch": 79,
                "velocity": 51,
                "duration": 0.13409090909090793,
                "tempo": 120.0
            },
            {
                "start_time": 43.06590909090909,
                "end_time": 43.19772727272727,
                "pitch": 67,
                "velocity": 51,
                "duration": 0.13181818181818272,
                "tempo": 120.0
            },
            {
                "start_time": 43.06590909090909,
                "end_time": 43.19772727272727,
                "pitch": 79,
                "velocity": 51,
                "duration": 0.13181818181818272,
                "tempo": 120.0
            },
            {
                "start_time": 43.19772727272727,
                "end_time": 43.33181818181818,
                "pitch": 67,
                "velocity": 51,
                "duration": 0.13409090909090793,
                "tempo": 120.0
            },
            {
                "start_time": 43.19772727272727,
                "end_time": 43.33181818181818,
                "pitch": 79,
                "velocity": 51,
                "duration": 0.13409090909090793,
                "tempo": 120.0
            },
            {
                "start_time": 43.33181818181818,
                "end_time": 43.449999999999996,
                "pitch": 67,
                "velocity": 51,
                "duration": 0.11818181818181728,
                "tempo": 120.0
            },
            {
                "start_time": 43.33181818181818,
                "end_time": 43.449999999999996,
                "pitch": 79,
                "velocity": 51,
                "duration": 0.11818181818181728,
                "tempo": 120.0
            },
            {
                "start_time": 43.449999999999996,
                "end_time": 45.054545454545455,
                "pitch": 69,
                "velocity": 51,
                "duration": 1.604545454545459,
                "tempo": 120.0
            },
            {
                "start_time": 45.054545454545455,
                "end_time": 46.66136363636363,
                "pitch": 69,
                "velocity": 51,
                "duration": 1.606818181818177,
                "tempo": 120.0
            },
            {
                "start_time": 46.66136363636363,
                "end_time": 48.27954545454545,
                "pitch": 69,
                "velocity": 51,
                "duration": 1.6181818181818173,
                "tempo": 120.0
            },
            {
                "start_time": 48.27954545454545,
                "end_time": 49.88409090909091,
                "pitch": 71,
                "velocity": 51,
                "duration": 1.604545454545459,
                "tempo": 120.0
            },
            {
                "start_time": 49.88409090909091,
                "end_time": 51.48863636363636,
                "pitch": 72,
                "velocity": 51,
                "duration": 1.6045454545454518,
                "tempo": 120.0
            },
            {
                "start_time": 51.48863636363636,
                "end_time": 53.090909090909086,
                "pitch": 74,
                "velocity": 51,
                "duration": 1.6022727272727266,
                "tempo": 120.0
            },
            {
                "start_time": 53.293181818181814,
                "end_time": 53.49318181818182,
                "pitch": 74,
                "velocity": 51,
                "duration": 0.20000000000000284,
                "tempo": 120.0
            },
            {
                "start_time": 53.49545454545454,
                "end_time": 53.695454545454545,
                "pitch": 74,
                "velocity": 51,
                "duration": 0.20000000000000284,
                "tempo": 120.0
            },
            {
                "start_time": 53.695454545454545,
                "end_time": 53.89545454545454,
                "pitch": 77,
                "velocity": 51,
                "duration": 0.19999999999999574,
                "tempo": 120.0
            },
            {
                "start_time": 53.89545454545454,
                "end_time": 54.095454545454544,
                "pitch": 77,
                "velocity": 51,
                "duration": 0.20000000000000284,
                "tempo": 120.0
            },
            {
                "start_time": 53.49545454545454,
                "end_time": 54.29545454545454,
                "pitch": 76,
                "velocity": 51,
                "duration": 0.7999999999999972,
                "tempo": 120.0
            },
            {
                "start_time": 53.695454545454545,
                "end_time": 54.695454545454545,
                "pitch": 74,
                "velocity": 51,
                "duration": 1.0,
                "tempo": 120.0
            },
            {
                "start_time": 54.29545454545454,
                "end_time": 54.695454545454545,
                "pitch": 74,
                "velocity": 51,
                "duration": 0.4000000000000057,
                "tempo": 120.0
            },
            {
                "start_time": 51.48863636363636,
                "end_time": 54.902272727272724,
                "pitch": 71,
                "velocity": 51,
                "duration": 3.413636363636364,
                "tempo": 120.0
            },
            {
                "start_time": 54.695454545454545,
                "end_time": 54.902272727272724,
                "pitch": 71,
                "velocity": 51,
                "duration": 0.20681818181817846,
                "tempo": 120.0
            },
            {
                "start_time": 54.29545454545454,
                "end_time": 55.10681818181818,
                "pitch": 76,
                "velocity": 51,
                "duration": 0.8113636363636374,
                "tempo": 120.0
            },
            {
                "start_time": 54.902272727272724,
                "end_time": 55.10681818181818,
                "pitch": 76,
                "velocity": 51,
                "duration": 0.20454545454545325,
                "tempo": 120.0
            },
            {
                "start_time": 55.10681818181818,
                "end_time": 55.304545454545455,
                "pitch": 74,
                "velocity": 51,
                "duration": 0.19772727272727764,
                "tempo": 120.0
            },
            {
                "start_time": 54.695454545454545,
                "end_time": 55.5,
                "pitch": 77,
                "velocity": 51,
                "duration": 0.8045454545454547,
                "tempo": 120.0
            },
            {
                "start_time": 55.304545454545455,
                "end_time": 55.5,
                "pitch": 77,
                "velocity": 51,
                "duration": 0.19545454545454533,
                "tempo": 120.0
            },
            {
                "start_time": 55.5,
                "end_time": 55.699999999999996,
                "pitch": 77,
                "velocity": 51,
                "duration": 0.19999999999999574,
                "tempo": 120.0
            },
            {
                "start_time": 55.10681818181818,
                "end_time": 56.51363636363636,
                "pitch": 76,
                "velocity": 51,
                "duration": 1.4068181818181813,
                "tempo": 120.0
            },
            {
                "start_time": 55.9,
                "end_time": 56.51363636363636,
                "pitch": 76,
                "velocity": 51,
                "duration": 0.6136363636363598,
                "tempo": 120.0
            },
            {
                "start_time": 43.449999999999996,
                "end_time": 56.715909090909086,
                "pitch": 79,
                "velocity": 51,
                "duration": 13.26590909090909,
                "tempo": 120.0
            },
            {
                "start_time": 56.51363636363636,
                "end_time": 56.715909090909086,
                "pitch": 79,
                "velocity": 51,
                "duration": 0.20227272727272805,
                "tempo": 120.0
            },
            {
                "start_time": 56.91136363636363,
                "end_time": 57.10681818181818,
                "pitch": 84,
                "velocity": 51,
                "duration": 0.19545454545454533,
                "tempo": 120.0
            },
            {
                "start_time": 57.10681818181818,
                "end_time": 57.31363636363636,
                "pitch": 83,
                "velocity": 51,
                "duration": 0.20681818181818556,
                "tempo": 120.0
            },
            {
                "start_time": 57.518181818181816,
                "end_time": 57.91136363636363,
                "pitch": 83,
                "velocity": 51,
                "duration": 0.39318181818181586,
                "tempo": 120.0
            },
            {
                "start_time": 57.91136363636363,
                "end_time": 58.115909090909085,
                "pitch": 81,
                "velocity": 51,
                "duration": 0.20454545454545325,
                "tempo": 120.0
            },
            {
                "start_time": 58.115909090909085,
                "end_time": 58.715909090909086,
                "pitch": 83,
                "velocity": 51,
                "duration": 0.6000000000000014,
                "tempo": 120.0
            },
            {
                "start_time": 58.715909090909086,
                "end_time": 58.81590909090909,
                "pitch": 81,
                "velocity": 51,
                "duration": 0.10000000000000142,
                "tempo": 120.0
            },
            {
                "start_time": 58.81590909090909,
                "end_time": 58.92045454545454,
                "pitch": 83,
                "velocity": 51,
                "duration": 0.10454545454545183,
                "tempo": 120.0
            },
            {
                "start_time": 58.92045454545454,
                "end_time": 59.32727272727272,
                "pitch": 81,
                "velocity": 51,
                "duration": 0.4068181818181813,
                "tempo": 120.0
            },
            {
                "start_time": 27.377272727272725,
                "end_time": 60.52954545454545,
                "pitch": 64,
                "velocity": 51,
                "duration": 33.152272727272724,
                "tempo": 120.0
            },
            {
                "start_time": 59.527272727272724,
                "end_time": 60.52954545454545,
                "pitch": 64,
                "velocity": 51,
                "duration": 1.0022727272727252,
                "tempo": 120.0
            },
            {
                "start_time": 60.52954545454545,
                "end_time": 60.73181818181818,
                "pitch": 64,
                "velocity": 51,
                "duration": 0.20227272727272805,
                "tempo": 120.0
            },
            {
                "start_time": 60.73181818181818,
                "end_time": 60.93181818181818,
                "pitch": 67,
                "velocity": 51,
                "duration": 0.20000000000000284,
                "tempo": 120.0
            },
            {
                "start_time": 49.88409090909091,
                "end_time": 61.543181818181814,
                "pitch": 55,
                "velocity": 51,
                "duration": 11.659090909090907,
                "tempo": 120.0
            },
            {
                "start_time": 61.131818181818176,
                "end_time": 61.543181818181814,
                "pitch": 55,
                "velocity": 51,
                "duration": 0.4113636363636388,
                "tempo": 120.0
            },
            {
                "start_time": 61.543181818181814,
                "end_time": 61.93636363636363,
                "pitch": 55,
                "velocity": 51,
                "duration": 0.39318181818181586,
                "tempo": 120.0
            },
            {
                "start_time": 35.40681818181818,
                "end_time": 61.93636363636363,
                "pitch": 57,
                "velocity": 51,
                "duration": 26.52954545454545,
                "tempo": 120.0
            },
            {
                "start_time": 37.02272727272727,
                "end_time": 62.336363636363636,
                "pitch": 59,
                "velocity": 51,
                "duration": 25.313636363636363,
                "tempo": 120.0
            },
            {
                "start_time": 61.93636363636363,
                "end_time": 62.336363636363636,
                "pitch": 59,
                "velocity": 51,
                "duration": 0.4000000000000057,
                "tempo": 120.0
            },
            {
                "start_time": 62.336363636363636,
                "end_time": 62.74772727272727,
                "pitch": 59,
                "velocity": 51,
                "duration": 0.4113636363636317,
                "tempo": 120.0
            },
            {
                "start_time": 14.49090909090909,
                "end_time": 120.71363636363635,
                "pitch": 65,
                "velocity": 51,
                "duration": 106.22272727272727,
                "tempo": 120.0
            },
            {
                "start_time": 40.195454545454545,
                "end_time": 121.34545454545454,
                "pitch": 0,
                "velocity": 51,
                "duration": 81.15,
                "tempo": 120.0
            },
            {
                "start_time": 120.71363636363635,
                "end_time": 121.34545454545454,
                "pitch": 55,
                "velocity": 51,
                "duration": 0.6318181818181898,
                "tempo": 120.0
            },
            {
                "start_time": 121.34545454545454,
                "end_time": 121.39545454545454,
                "pitch": 55,
                "velocity": 51,
                "duration": 0.04999999999999716,
                "tempo": 120.0
            },
            {
                "start_time": 121.34545454545454,
                "end_time": 121.47954545454544,
                "pitch": 0,
                "velocity": 51,
                "duration": 0.13409090909090082,
                "tempo": 120.0
            },
            {
                "start_time": 121.39545454545454,
                "end_time": 121.47954545454544,
                "pitch": 55,
                "velocity": 51,
                "duration": 0.08409090909090366,
                "tempo": 120.0
            },
            {
                "start_time": 121.47954545454544,
                "end_time": 121.52954545454544,
                "pitch": 55,
                "velocity": 51,
                "duration": 0.04999999999999716,
                "tempo": 120.0
            },
            {
                "start_time": 121.39545454545454,
                "end_time": 121.52954545454544,
                "pitch": 67,
                "velocity": 51,
                "duration": 0.13409090909090082,
                "tempo": 120.0
            },
            {
                "start_time": 121.47954545454544,
                "end_time": 121.61363636363636,
                "pitch": 0,
                "velocity": 51,
                "duration": 0.13409090909091503,
                "tempo": 120.0
            },
            {
                "start_time": 121.52954545454544,
                "end_time": 121.61363636363636,
                "pitch": 55,
                "velocity": 51,
                "duration": 0.08409090909091788,
                "tempo": 120.0
            },
            {
                "start_time": 121.61363636363636,
                "end_time": 121.66363636363636,
                "pitch": 55,
                "velocity": 51,
                "duration": 0.04999999999999716,
                "tempo": 120.0
            },
            {
                "start_time": 121.52954545454544,
                "end_time": 121.66363636363636,
                "pitch": 67,
                "velocity": 51,
                "duration": 0.13409090909091503,
                "tempo": 120.0
            },
            {
                "start_time": 121.61363636363636,
                "end_time": 121.74772727272726,
                "pitch": 0,
                "velocity": 51,
                "duration": 0.13409090909090082,
                "tempo": 120.0
            },
            {
                "start_time": 121.66363636363636,
                "end_time": 121.74772727272726,
                "pitch": 55,
                "velocity": 51,
                "duration": 0.08409090909090366,
                "tempo": 120.0
            },
            {
                "start_time": 121.74772727272726,
                "end_time": 121.79772727272727,
                "pitch": 55,
                "velocity": 51,
                "duration": 0.05000000000001137,
                "tempo": 120.0
            },
            {
                "start_time": 121.66363636363636,
                "end_time": 121.79772727272727,
                "pitch": 67,
                "velocity": 51,
                "duration": 0.13409090909091503,
                "tempo": 120.0
            },
            {
                "start_time": 121.74772727272726,
                "end_time": 121.88181818181818,
                "pitch": 0,
                "velocity": 51,
                "duration": 0.13409090909091503,
                "tempo": 120.0
            },
            {
                "start_time": 121.79772727272727,
                "end_time": 121.88181818181818,
                "pitch": 55,
                "velocity": 51,
                "duration": 0.08409090909090366,
                "tempo": 120.0
            },
            {
                "start_time": 121.88181818181818,
                "end_time": 121.93181818181817,
                "pitch": 55,
                "velocity": 51,
                "duration": 0.04999999999999716,
                "tempo": 120.0
            },
            {
                "start_time": 121.79772727272727,
                "end_time": 121.93181818181817,
                "pitch": 67,
                "velocity": 51,
                "duration": 0.13409090909090082,
                "tempo": 120.0
            },
            {
                "start_time": 121.88181818181818,
                "end_time": 122.01590909090909,
                "pitch": 0,
                "velocity": 51,
                "duration": 0.13409090909091503,
                "tempo": 120.0
            },
            {
                "start_time": 121.93181818181817,
                "end_time": 122.01590909090909,
                "pitch": 55,
                "velocity": 51,
                "duration": 0.08409090909091788,
                "tempo": 120.0
            },
            {
                "start_time": 122.01590909090909,
                "end_time": 122.06818181818181,
                "pitch": 55,
                "velocity": 51,
                "duration": 0.052272727272722364,
                "tempo": 120.0
            },
            {
                "start_time": 121.93181818181817,
                "end_time": 122.06818181818181,
                "pitch": 67,
                "velocity": 51,
                "duration": 0.13636363636364024,
                "tempo": 120.0
            },
            {
                "start_time": 122.01590909090909,
                "end_time": 122.14999999999999,
                "pitch": 0,
                "velocity": 51,
                "duration": 0.13409090909090082,
                "tempo": 120.0
            },
            {
                "start_time": 122.06818181818181,
                "end_time": 122.14999999999999,
                "pitch": 55,
                "velocity": 51,
                "duration": 0.08181818181817846,
                "tempo": 120.0
            },
            {
                "start_time": 122.14999999999999,
                "end_time": 122.20227272727273,
                "pitch": 55,
                "velocity": 51,
                "duration": 0.052272727272736574,
                "tempo": 120.0
            },
            {
                "start_time": 122.06818181818181,
                "end_time": 122.20227272727273,
                "pitch": 67,
                "velocity": 51,
                "duration": 0.13409090909091503,
                "tempo": 120.0
            },
            {
                "start_time": 122.14999999999999,
                "end_time": 122.28636363636363,
                "pitch": 0,
                "velocity": 51,
                "duration": 0.13636363636364024,
                "tempo": 120.0
            },
            {
                "start_time": 122.20227272727273,
                "end_time": 122.28636363636363,
                "pitch": 55,
                "velocity": 51,
                "duration": 0.08409090909090366,
                "tempo": 120.0
            },
            {
                "start_time": 122.28636363636363,
                "end_time": 122.32045454545454,
                "pitch": 55,
                "velocity": 51,
                "duration": 0.03409090909090651,
                "tempo": 120.0
            },
            {
                "start_time": 122.20227272727273,
                "end_time": 122.32045454545454,
                "pitch": 67,
                "velocity": 51,
                "duration": 0.11818181818181017,
                "tempo": 120.0
            },
            {
                "start_time": 122.28636363636363,
                "end_time": 122.9590909090909,
                "pitch": 0,
                "velocity": 51,
                "duration": 0.672727272727272,
                "tempo": 120.0
            },
            {
                "start_time": 122.32045454545454,
                "end_time": 122.9590909090909,
                "pitch": 55,
                "velocity": 51,
                "duration": 0.6386363636363654,
                "tempo": 120.0
            },
            {
                "start_time": 122.9590909090909,
                "end_time": 123.0090909090909,
                "pitch": 55,
                "velocity": 51,
                "duration": 0.04999999999999716,
                "tempo": 120.0
            },
            {
                "start_time": 122.32045454545454,
                "end_time": 123.0090909090909,
                "pitch": 67,
                "velocity": 51,
                "duration": 0.6886363636363626,
                "tempo": 120.0
            },
            {
                "start_time": 122.9590909090909,
                "end_time": 123.09090909090908,
                "pitch": 0,
                "velocity": 51,
                "duration": 0.13181818181817562,
                "tempo": 120.0
            },
            {
                "start_time": 123.0090909090909,
                "end_time": 123.09090909090908,
                "pitch": 55,
                "velocity": 51,
                "duration": 0.08181818181817846,
                "tempo": 120.0
            },
            {
                "start_time": 123.09090909090908,
                "end_time": 123.13863636363635,
                "pitch": 55,
                "velocity": 51,
                "duration": 0.04772727272727195,
                "tempo": 120.0
            },
            {
                "start_time": 123.0090909090909,
                "end_time": 123.13863636363635,
                "pitch": 67,
                "velocity": 51,
                "duration": 0.1295454545454504,
                "tempo": 120.0
            },
            {
                "start_time": 123.09090909090908,
                "end_time": 123.22272727272727,
                "pitch": 0,
                "velocity": 51,
                "duration": 0.13181818181818983,
                "tempo": 120.0
            },
            {
                "start_time": 123.13863636363635,
                "end_time": 123.22272727272727,
                "pitch": 55,
                "velocity": 51,
                "duration": 0.08409090909091788,
                "tempo": 120.0
            },
            {
                "start_time": 123.22272727272727,
                "end_time": 123.27272727272727,
                "pitch": 55,
                "velocity": 51,
                "duration": 0.04999999999999716,
                "tempo": 120.0
            },
            {
                "start_time": 123.13863636363635,
                "end_time": 123.27272727272727,
                "pitch": 67,
                "velocity": 51,
                "duration": 0.13409090909091503,
                "tempo": 120.0
            },
            {
                "start_time": 123.22272727272727,
                "end_time": 123.35681818181817,
                "pitch": 0,
                "velocity": 51,
                "duration": 0.13409090909090082,
                "tempo": 120.0
            },
            {
                "start_time": 123.27272727272727,
                "end_time": 123.35681818181817,
                "pitch": 55,
                "velocity": 51,
                "duration": 0.08409090909090366,
                "tempo": 120.0
            },
            {
                "start_time": 123.35681818181817,
                "end_time": 123.40681818181818,
                "pitch": 55,
                "velocity": 51,
                "duration": 0.05000000000001137,
                "tempo": 120.0
            },
            {
                "start_time": 123.27272727272727,
                "end_time": 123.40681818181818,
                "pitch": 67,
                "velocity": 51,
                "duration": 0.13409090909091503,
                "tempo": 120.0
            },
            {
                "start_time": 123.35681818181817,
                "end_time": 123.49090909090908,
                "pitch": 0,
                "velocity": 51,
                "duration": 0.13409090909091503,
                "tempo": 120.0
            },
            {
                "start_time": 123.40681818181818,
                "end_time": 123.49090909090908,
                "pitch": 55,
                "velocity": 51,
                "duration": 0.08409090909090366,
                "tempo": 120.0
            },
            {
                "start_time": 123.49090909090908,
                "end_time": 123.54090909090908,
                "pitch": 55,
                "velocity": 51,
                "duration": 0.04999999999999716,
                "tempo": 120.0
            },
            {
                "start_time": 123.40681818181818,
                "end_time": 123.54090909090908,
                "pitch": 67,
                "velocity": 51,
                "duration": 0.13409090909090082,
                "tempo": 120.0
            },
            {
                "start_time": 123.49090909090908,
                "end_time": 123.625,
                "pitch": 0,
                "velocity": 51,
                "duration": 0.13409090909091503,
                "tempo": 120.0
            },
            {
                "start_time": 123.54090909090908,
                "end_time": 123.625,
                "pitch": 55,
                "velocity": 51,
                "duration": 0.08409090909091788,
                "tempo": 120.0
            },
            {
                "start_time": 123.625,
                "end_time": 123.675,
                "pitch": 55,
                "velocity": 51,
                "duration": 0.04999999999999716,
                "tempo": 120.0
            },
            {
                "start_time": 123.54090909090908,
                "end_time": 123.675,
                "pitch": 67,
                "velocity": 51,
                "duration": 0.13409090909091503,
                "tempo": 120.0
            },
            {
                "start_time": 123.625,
                "end_time": 123.7590909090909,
                "pitch": 0,
                "velocity": 51,
                "duration": 0.13409090909090082,
                "tempo": 120.0
            },
            {
                "start_time": 123.675,
                "end_time": 123.7590909090909,
                "pitch": 55,
                "velocity": 51,
                "duration": 0.08409090909090366,
                "tempo": 120.0
            },
            {
                "start_time": 123.7590909090909,
                "end_time": 123.8090909090909,
                "pitch": 55,
                "velocity": 51,
                "duration": 0.04999999999999716,
                "tempo": 120.0
            },
            {
                "start_time": 123.675,
                "end_time": 123.8090909090909,
                "pitch": 67,
                "velocity": 51,
                "duration": 0.13409090909090082,
                "tempo": 120.0
            },
            {
                "start_time": 123.7590909090909,
                "end_time": 123.89318181818182,
                "pitch": 0,
                "velocity": 51,
                "duration": 0.13409090909091503,
                "tempo": 120.0
            },
            {
                "start_time": 123.8090909090909,
                "end_time": 123.89318181818182,
                "pitch": 55,
                "velocity": 51,
                "duration": 0.08409090909091788,
                "tempo": 120.0
            },
            {
                "start_time": 123.89318181818182,
                "end_time": 123.92954545454545,
                "pitch": 55,
                "velocity": 51,
                "duration": 0.03636363636363171,
                "tempo": 120.0
            },
            {
                "start_time": 123.8090909090909,
                "end_time": 123.92954545454545,
                "pitch": 67,
                "velocity": 51,
                "duration": 0.12045454545454959,
                "tempo": 120.0
            },
            {
                "start_time": 61.93636363636363,
                "end_time": 125.54772727272727,
                "pitch": 57,
                "velocity": 51,
                "duration": 63.61136363636364,
                "tempo": 120.0
            },
            {
                "start_time": 123.92954545454545,
                "end_time": 125.54772727272727,
                "pitch": 57,
                "velocity": 51,
                "duration": 1.6181818181818244,
                "tempo": 120.0
            },
            {
                "start_time": 125.54772727272727,
                "end_time": 127.15681818181818,
                "pitch": 57,
                "velocity": 51,
                "duration": 1.6090909090909093,
                "tempo": 120.0
            },
            {
                "start_time": 127.15681818181818,
                "end_time": 128.76590909090908,
                "pitch": 57,
                "velocity": 51,
                "duration": 1.6090909090908951,
                "tempo": 120.0
            },
            {
                "start_time": 24.154545454545453,
                "end_time": 130.3840909090909,
                "pitch": 43,
                "velocity": 51,
                "duration": 106.22954545454544,
                "tempo": 120.0
            },
            {
                "start_time": 128.76590909090908,
                "end_time": 130.3840909090909,
                "pitch": 59,
                "velocity": 51,
                "duration": 1.6181818181818244,
                "tempo": 120.0
            },
            {
                "start_time": 130.3840909090909,
                "end_time": 131.98181818181817,
                "pitch": 60,
                "velocity": 51,
                "duration": 1.597727272727269,
                "tempo": 120.0
            },
            {
                "start_time": 131.98181818181817,
                "end_time": 133.60454545454544,
                "pitch": 62,
                "velocity": 51,
                "duration": 1.6227272727272748,
                "tempo": 120.0
            },
            {
                "start_time": 61.131818181818176,
                "end_time": 133.60454545454544,
                "pitch": 64,
                "velocity": 51,
                "duration": 72.47272727272727,
                "tempo": 120.0
            },
            {
                "start_time": 123.89318181818182,
                "end_time": 134.23863636363635,
                "pitch": 0,
                "velocity": 51,
                "duration": 10.34545454545453,
                "tempo": 120.0
            },
            {
                "start_time": 133.60454545454544,
                "end_time": 134.23863636363635,
                "pitch": 55,
                "velocity": 51,
                "duration": 0.6340909090909008,
                "tempo": 120.0
            },
            {
                "start_time": 134.23863636363635,
                "end_time": 134.28863636363636,
                "pitch": 55,
                "velocity": 51,
                "duration": 0.05000000000001137,
                "tempo": 120.0
            },
            {
                "start_time": 123.92954545454545,
                "end_time": 134.28863636363636,
                "pitch": 67,
                "velocity": 51,
                "duration": 10.35909090909091,
                "tempo": 120.0
            },
            {
                "start_time": 134.23863636363635,
                "end_time": 134.37272727272727,
                "pitch": 0,
                "velocity": 51,
                "duration": 0.13409090909092924,
                "tempo": 120.0
            },
            {
                "start_time": 134.28863636363636,
                "end_time": 134.37272727272727,
                "pitch": 55,
                "velocity": 51,
                "duration": 0.08409090909091788,
                "tempo": 120.0
            },
            {
                "start_time": 134.37272727272727,
                "end_time": 134.42272727272726,
                "pitch": 55,
                "velocity": 51,
                "duration": 0.04999999999998295,
                "tempo": 120.0
            },
            {
                "start_time": 134.28863636363636,
                "end_time": 134.42272727272726,
                "pitch": 67,
                "velocity": 51,
                "duration": 0.13409090909090082,
                "tempo": 120.0
            },
            {
                "start_time": 134.37272727272727,
                "end_time": 134.50681818181818,
                "pitch": 0,
                "velocity": 51,
                "duration": 0.13409090909090082,
                "tempo": 120.0
            },
            {
                "start_time": 134.42272727272726,
                "end_time": 134.50681818181818,
                "pitch": 55,
                "velocity": 51,
                "duration": 0.08409090909091788,
                "tempo": 120.0
            },
            {
                "start_time": 134.50681818181818,
                "end_time": 134.5568181818182,
                "pitch": 55,
                "velocity": 51,
                "duration": 0.05000000000001137,
                "tempo": 120.0
            },
            {
                "start_time": 134.42272727272726,
                "end_time": 134.5568181818182,
                "pitch": 67,
                "velocity": 51,
                "duration": 0.13409090909092924,
                "tempo": 120.0
            },
            {
                "start_time": 134.50681818181818,
                "end_time": 134.64090909090908,
                "pitch": 0,
                "velocity": 51,
                "duration": 0.13409090909090082,
                "tempo": 120.0
            },
            {
                "start_time": 134.5568181818182,
                "end_time": 134.64090909090908,
                "pitch": 55,
                "velocity": 51,
                "duration": 0.08409090909088945,
                "tempo": 120.0
            },
            {
                "start_time": 134.64090909090908,
                "end_time": 134.6909090909091,
                "pitch": 55,
                "velocity": 51,
                "duration": 0.05000000000001137,
                "tempo": 120.0
            },
            {
                "start_time": 134.5568181818182,
                "end_time": 134.6909090909091,
                "pitch": 67,
                "velocity": 51,
                "duration": 0.13409090909090082,
                "tempo": 120.0
            },
            {
                "start_time": 134.64090909090908,
                "end_time": 134.775,
                "pitch": 0,
                "velocity": 51,
                "duration": 0.13409090909092924,
                "tempo": 120.0
            },
            {
                "start_time": 134.6909090909091,
                "end_time": 134.775,
                "pitch": 55,
                "velocity": 51,
                "duration": 0.08409090909091788,
                "tempo": 120.0
            },
            {
                "start_time": 134.775,
                "end_time": 134.825,
                "pitch": 55,
                "velocity": 51,
                "duration": 0.04999999999998295,
                "tempo": 120.0
            },
            {
                "start_time": 134.6909090909091,
                "end_time": 134.8272727272727,
                "pitch": 67,
                "velocity": 51,
                "duration": 0.13636363636362603,
                "tempo": 120.0
            },
            {
                "start_time": 134.825,
                "end_time": 134.8272727272727,
                "pitch": 67,
                "velocity": 51,
                "duration": 0.0022727272727252057,
                "tempo": 120.0
            },
            {
                "start_time": 134.775,
                "end_time": 134.9090909090909,
                "pitch": 0,
                "velocity": 51,
                "duration": 0.13409090909090082,
                "tempo": 120.0
            },
            {
                "start_time": 134.8272727272727,
                "end_time": 134.9090909090909,
                "pitch": 55,
                "velocity": 51,
                "duration": 0.08181818181819267,
                "tempo": 120.0
            },
            {
                "start_time": 134.9090909090909,
                "end_time": 134.96136363636364,
                "pitch": 55,
                "velocity": 51,
                "duration": 0.052272727272736574,
                "tempo": 120.0
            },
            {
                "start_time": 134.9090909090909,
                "end_time": 135.04545454545453,
                "pitch": 0,
                "velocity": 51,
                "duration": 0.13636363636362603,
                "tempo": 120.0
            },
            {
                "start_time": 134.96136363636364,
                "end_time": 135.04545454545453,
                "pitch": 55,
                "velocity": 51,
                "duration": 0.08409090909088945,
                "tempo": 120.0
            },
            {
                "start_time": 135.04545454545453,
                "end_time": 135.09545454545454,
                "pitch": 55,
                "velocity": 51,
                "duration": 0.05000000000001137,
                "tempo": 120.0
            },
            {
                "start_time": 134.96136363636364,
                "end_time": 135.09545454545454,
                "pitch": 67,
                "velocity": 51,
                "duration": 0.13409090909090082,
                "tempo": 120.0
            },
            {
                "start_time": 135.04545454545453,
                "end_time": 135.17954545454546,
                "pitch": 0,
                "velocity": 51,
                "duration": 0.13409090909092924,
                "tempo": 120.0
            },
            {
                "start_time": 135.09545454545454,
                "end_time": 135.17954545454546,
                "pitch": 55,
                "velocity": 51,
                "duration": 0.08409090909091788,
                "tempo": 120.0
            },
            {
                "start_time": 135.17954545454546,
                "end_time": 135.21363636363637,
                "pitch": 55,
                "velocity": 51,
                "duration": 0.03409090909090651,
                "tempo": 120.0
            },
            {
                "start_time": 135.09545454545454,
                "end_time": 135.21363636363637,
                "pitch": 67,
                "velocity": 51,
                "duration": 0.11818181818182438,
                "tempo": 120.0
            },
            {
                "start_time": 135.17954545454546,
                "end_time": 135.85227272727272,
                "pitch": 0,
                "velocity": 51,
                "duration": 0.6727272727272577,
                "tempo": 120.0
            },
            {
                "start_time": 135.21363636363637,
                "end_time": 135.85227272727272,
                "pitch": 55,
                "velocity": 51,
                "duration": 0.6386363636363512,
                "tempo": 120.0
            },
            {
                "start_time": 135.85227272727272,
                "end_time": 135.90227272727273,
                "pitch": 55,
                "velocity": 51,
                "duration": 0.05000000000001137,
                "tempo": 120.0
            },
            {
                "start_time": 135.21363636363637,
                "end_time": 135.90227272727273,
                "pitch": 67,
                "velocity": 51,
                "duration": 0.6886363636363626,
                "tempo": 120.0
            },
            {
                "start_time": 135.85227272727272,
                "end_time": 135.9840909090909,
                "pitch": 0,
                "velocity": 51,
                "duration": 0.13181818181817562,
                "tempo": 120.0
            },
            {
                "start_time": 135.90227272727273,
                "end_time": 135.9840909090909,
                "pitch": 55,
                "velocity": 51,
                "duration": 0.08181818181816425,
                "tempo": 120.0
            },
            {
                "start_time": 135.9840909090909,
                "end_time": 136.0340909090909,
                "pitch": 55,
                "velocity": 51,
                "duration": 0.05000000000001137,
                "tempo": 120.0
            },
            {
                "start_time": 135.90227272727273,
                "end_time": 136.0340909090909,
                "pitch": 67,
                "velocity": 51,
                "duration": 0.13181818181817562,
                "tempo": 120.0
            },
            {
                "start_time": 135.9840909090909,
                "end_time": 136.11590909090907,
                "pitch": 0,
                "velocity": 51,
                "duration": 0.13181818181817562,
                "tempo": 120.0
            },
            {
                "start_time": 136.0340909090909,
                "end_time": 136.11590909090907,
                "pitch": 55,
                "velocity": 51,
                "duration": 0.08181818181816425,
                "tempo": 120.0
            },
            {
                "start_time": 136.11590909090907,
                "end_time": 136.16590909090908,
                "pitch": 55,
                "velocity": 51,
                "duration": 0.05000000000001137,
                "tempo": 120.0
            },
            {
                "start_time": 136.0340909090909,
                "end_time": 136.1681818181818,
                "pitch": 67,
                "velocity": 51,
                "duration": 0.13409090909090082,
                "tempo": 120.0
            },
            {
                "start_time": 136.16590909090908,
                "end_time": 136.1681818181818,
                "pitch": 67,
                "velocity": 51,
                "duration": 0.0022727272727252057,
                "tempo": 120.0
            },
            {
                "start_time": 136.11590909090907,
                "end_time": 136.25,
                "pitch": 0,
                "velocity": 51,
                "duration": 0.13409090909092924,
                "tempo": 120.0
            },
            {
                "start_time": 136.1681818181818,
                "end_time": 136.25,
                "pitch": 55,
                "velocity": 51,
                "duration": 0.08181818181819267,
                "tempo": 120.0
            },
            {
                "start_time": 136.25,
                "end_time": 136.29999999999998,
                "pitch": 55,
                "velocity": 51,
                "duration": 0.04999999999998295,
                "tempo": 120.0
            },
            {
                "start_time": 136.25,
                "end_time": 136.3840909090909,
                "pitch": 0,
                "velocity": 51,
                "duration": 0.13409090909090082,
                "tempo": 120.0
            },
            {
                "start_time": 136.29999999999998,
                "end_time": 136.3840909090909,
                "pitch": 55,
                "velocity": 51,
                "duration": 0.08409090909091788,
                "tempo": 120.0
            },
            {
                "start_time": 136.3840909090909,
                "end_time": 136.4340909090909,
                "pitch": 55,
                "velocity": 51,
                "duration": 0.05000000000001137,
                "tempo": 120.0
            },
            {
                "start_time": 136.29999999999998,
                "end_time": 136.4340909090909,
                "pitch": 67,
                "velocity": 51,
                "duration": 0.13409090909092924,
                "tempo": 120.0
            },
            {
                "start_time": 136.3840909090909,
                "end_time": 136.5181818181818,
                "pitch": 0,
                "velocity": 51,
                "duration": 0.13409090909090082,
                "tempo": 120.0
            },
            {
                "start_time": 136.4340909090909,
                "end_time": 136.5181818181818,
                "pitch": 55,
                "velocity": 51,
                "duration": 0.08409090909088945,
                "tempo": 120.0
            },
            {
                "start_time": 136.5181818181818,
                "end_time": 136.5681818181818,
                "pitch": 55,
                "velocity": 51,
                "duration": 0.05000000000001137,
                "tempo": 120.0
            },
            {
                "start_time": 136.4340909090909,
                "end_time": 136.5681818181818,
                "pitch": 67,
                "velocity": 51,
                "duration": 0.13409090909090082,
                "tempo": 120.0
            },
            {
                "start_time": 136.5181818181818,
                "end_time": 136.65227272727273,
                "pitch": 0,
                "velocity": 51,
                "duration": 0.13409090909092924,
                "tempo": 120.0
            },
            {
                "start_time": 136.5681818181818,
                "end_time": 136.65227272727273,
                "pitch": 55,
                "velocity": 51,
                "duration": 0.08409090909091788,
                "tempo": 120.0
            },
            {
                "start_time": 136.65227272727273,
                "end_time": 136.7022727272727,
                "pitch": 55,
                "velocity": 51,
                "duration": 0.04999999999998295,
                "tempo": 120.0
            },
            {
                "start_time": 136.5681818181818,
                "end_time": 136.7022727272727,
                "pitch": 67,
                "velocity": 51,
                "duration": 0.13409090909090082,
                "tempo": 120.0
            },
            {
                "start_time": 136.65227272727273,
                "end_time": 136.78636363636363,
                "pitch": 0,
                "velocity": 51,
                "duration": 0.13409090909090082,
                "tempo": 120.0
            },
            {
                "start_time": 136.7022727272727,
                "end_time": 136.78636363636363,
                "pitch": 55,
                "velocity": 51,
                "duration": 0.08409090909091788,
                "tempo": 120.0
            },
            {
                "start_time": 136.78636363636363,
                "end_time": 136.82272727272726,
                "pitch": 55,
                "velocity": 51,
                "duration": 0.03636363636363171,
                "tempo": 120.0
            },
            {
                "start_time": 136.7022727272727,
                "end_time": 136.82272727272726,
                "pitch": 67,
                "velocity": 51,
                "duration": 0.12045454545454959,
                "tempo": 120.0
            },
            {
                "start_time": 128.76590909090908,
                "end_time": 138.42954545454546,
                "pitch": 57,
                "velocity": 51,
                "duration": 9.663636363636385,
                "tempo": 120.0
            },
            {
                "start_time": 136.82272727272726,
                "end_time": 138.42954545454546,
                "pitch": 57,
                "velocity": 51,
                "duration": 1.6068181818181984,
                "tempo": 120.0
            },
            {
                "start_time": 138.42954545454546,
                "end_time": 140.0522727272727,
                "pitch": 57,
                "velocity": 51,
                "duration": 1.6227272727272464,
                "tempo": 120.0
            },
            {
                "start_time": 140.0522727272727,
                "end_time": 141.66136363636363,
                "pitch": 57,
                "velocity": 51,
                "duration": 1.6090909090909236,
                "tempo": 120.0
            },
            {
                "start_time": 131.98181818181817,
                "end_time": 143.2681818181818,
                "pitch": 59,
                "velocity": 51,
                "duration": 11.286363636363632,
                "tempo": 120.0
            },
            {
                "start_time": 141.66136363636363,
                "end_time": 143.2681818181818,
                "pitch": 59,
                "velocity": 51,
                "duration": 1.60681818181817,
                "tempo": 120.0
            },
            {
                "start_time": 136.78636363636363,
                "end_time": 143.90681818181818,
                "pitch": 0,
                "velocity": 51,
                "duration": 7.12045454545455,
                "tempo": 120.0
            },
            {
                "start_time": 143.27045454545453,
                "end_time": 143.90681818181818,
                "pitch": 55,
                "velocity": 51,
                "duration": 0.6363636363636545,
                "tempo": 120.0
            },
            {
                "start_time": 143.90681818181818,
                "end_time": 143.95681818181816,
                "pitch": 55,
                "velocity": 51,
                "duration": 0.04999999999998295,
                "tempo": 120.0
            },
            {
                "start_time": 136.82272727272726,
                "end_time": 143.95681818181816,
                "pitch": 67,
                "velocity": 51,
                "duration": 7.134090909090901,
                "tempo": 120.0
            },
            {
                "start_time": 143.90681818181818,
                "end_time": 144.04090909090908,
                "pitch": 0,
                "velocity": 51,
                "duration": 0.13409090909090082,
                "tempo": 120.0
            },
            {
                "start_time": 143.95681818181816,
                "end_time": 144.04090909090908,
                "pitch": 55,
                "velocity": 51,
                "duration": 0.08409090909091788,
                "tempo": 120.0
            },
            {
                "start_time": 144.04090909090908,
                "end_time": 144.0909090909091,
                "pitch": 55,
                "velocity": 51,
                "duration": 0.05000000000001137,
                "tempo": 120.0
            },
            {
                "start_time": 143.95681818181816,
                "end_time": 144.0909090909091,
                "pitch": 67,
                "velocity": 51,
                "duration": 0.13409090909092924,
                "tempo": 120.0
            },
            {
                "start_time": 144.04090909090908,
                "end_time": 144.17499999999998,
                "pitch": 0,
                "velocity": 51,
                "duration": 0.13409090909090082,
                "tempo": 120.0
            },
            {
                "start_time": 144.0909090909091,
                "end_time": 144.17499999999998,
                "pitch": 55,
                "velocity": 51,
                "duration": 0.08409090909088945,
                "tempo": 120.0
            },
            {
                "start_time": 144.17499999999998,
                "end_time": 144.225,
                "pitch": 55,
                "velocity": 51,
                "duration": 0.05000000000001137,
                "tempo": 120.0
            },
            {
                "start_time": 144.0909090909091,
                "end_time": 144.225,
                "pitch": 67,
                "velocity": 51,
                "duration": 0.13409090909090082,
                "tempo": 120.0
            },
            {
                "start_time": 144.17499999999998,
                "end_time": 144.3090909090909,
                "pitch": 0,
                "velocity": 51,
                "duration": 0.13409090909092924,
                "tempo": 120.0
            },
            {
                "start_time": 144.225,
                "end_time": 144.3090909090909,
                "pitch": 55,
                "velocity": 51,
                "duration": 0.08409090909091788,
                "tempo": 120.0
            },
            {
                "start_time": 144.3090909090909,
                "end_time": 144.3590909090909,
                "pitch": 55,
                "velocity": 51,
                "duration": 0.04999999999998295,
                "tempo": 120.0
            },
            {
                "start_time": 144.225,
                "end_time": 144.3590909090909,
                "pitch": 67,
                "velocity": 51,
                "duration": 0.13409090909090082,
                "tempo": 120.0
            },
            {
                "start_time": 144.3090909090909,
                "end_time": 144.4431818181818,
                "pitch": 0,
                "velocity": 51,
                "duration": 0.13409090909090082,
                "tempo": 120.0
            },
            {
                "start_time": 144.3590909090909,
                "end_time": 144.4431818181818,
                "pitch": 55,
                "velocity": 51,
                "duration": 0.08409090909091788,
                "tempo": 120.0
            },
            {
                "start_time": 144.4431818181818,
                "end_time": 144.49318181818182,
                "pitch": 55,
                "velocity": 51,
                "duration": 0.05000000000001137,
                "tempo": 120.0
            },
            {
                "start_time": 144.3590909090909,
                "end_time": 144.49318181818182,
                "pitch": 67,
                "velocity": 51,
                "duration": 0.13409090909092924,
                "tempo": 120.0
            },
            {
                "start_time": 144.4431818181818,
                "end_time": 144.5772727272727,
                "pitch": 0,
                "velocity": 51,
                "duration": 0.13409090909090082,
                "tempo": 120.0
            },
            {
                "start_time": 144.49318181818182,
                "end_time": 144.5772727272727,
                "pitch": 55,
                "velocity": 51,
                "duration": 0.08409090909088945,
                "tempo": 120.0
            },
            {
                "start_time": 144.5772727272727,
                "end_time": 144.62954545454545,
                "pitch": 55,
                "velocity": 51,
                "duration": 0.052272727272736574,
                "tempo": 120.0
            },
            {
                "start_time": 144.49318181818182,
                "end_time": 144.62954545454545,
                "pitch": 67,
                "velocity": 51,
                "duration": 0.13636363636362603,
                "tempo": 120.0
            },
            {
                "start_time": 144.5772727272727,
                "end_time": 144.71136363636364,
                "pitch": 0,
                "velocity": 51,
                "duration": 0.13409090909092924,
                "tempo": 120.0
            },
            {
                "start_time": 144.62954545454545,
                "end_time": 144.71136363636364,
                "pitch": 55,
                "velocity": 51,
                "duration": 0.08181818181819267,
                "tempo": 120.0
            },
            {
                "start_time": 144.71136363636364,
                "end_time": 144.76363636363635,
                "pitch": 55,
                "velocity": 51,
                "duration": 0.05227272727270815,
                "tempo": 120.0
            },
            {
                "start_time": 144.62954545454545,
                "end_time": 144.76363636363635,
                "pitch": 67,
                "velocity": 51,
                "duration": 0.13409090909090082,
                "tempo": 120.0
            },
            {
                "start_time": 144.71136363636364,
                "end_time": 144.84772727272727,
                "pitch": 0,
                "velocity": 51,
                "duration": 0.13636363636362603,
                "tempo": 120.0
            },
            {
                "start_time": 144.76363636363635,
                "end_time": 144.84772727272727,
                "pitch": 55,
                "velocity": 51,
                "duration": 0.08409090909091788,
                "tempo": 120.0
            },
            {
                "start_time": 144.84772727272727,
                "end_time": 144.88181818181818,
                "pitch": 55,
                "velocity": 51,
                "duration": 0.03409090909090651,
                "tempo": 120.0
            },
            {
                "start_time": 144.76363636363635,
                "end_time": 144.88181818181818,
                "pitch": 67,
                "velocity": 51,
                "duration": 0.11818181818182438,
                "tempo": 120.0
            },
            {
                "start_time": 144.84772727272727,
                "end_time": 145.52045454545453,
                "pitch": 0,
                "velocity": 51,
                "duration": 0.6727272727272577,
                "tempo": 120.0
            },
            {
                "start_time": 144.88181818181818,
                "end_time": 145.52045454545453,
                "pitch": 55,
                "velocity": 51,
                "duration": 0.6386363636363512,
                "tempo": 120.0
            },
            {
                "start_time": 145.52045454545453,
                "end_time": 145.57272727272726,
                "pitch": 55,
                "velocity": 51,
                "duration": 0.052272727272736574,
                "tempo": 120.0
            },
            {
                "start_time": 144.88181818181818,
                "end_time": 145.57272727272726,
                "pitch": 67,
                "velocity": 51,
                "duration": 0.6909090909090878,
                "tempo": 120.0
            },
            {
                "start_time": 145.57272727272726,
                "end_time": 145.65681818181818,
                "pitch": 55,
                "velocity": 51,
                "duration": 0.08409090909091788,
                "tempo": 120.0
            },
            {
                "start_time": 145.52045454545453,
                "end_time": 145.6590909090909,
                "pitch": 0,
                "velocity": 51,
                "duration": 0.13863636363637966,
                "tempo": 120.0
            },
            {
                "start_time": 145.65681818181818,
                "end_time": 145.6590909090909,
                "pitch": 0,
                "velocity": 51,
                "duration": 0.0022727272727252057,
                "tempo": 120.0
            },
            {
                "start_time": 145.6590909090909,
                "end_time": 145.7090909090909,
                "pitch": 55,
                "velocity": 51,
                "duration": 0.04999999999998295,
                "tempo": 120.0
            },
            {
                "start_time": 145.57272727272726,
                "end_time": 145.7090909090909,
                "pitch": 67,
                "velocity": 51,
                "duration": 0.13636363636362603,
                "tempo": 120.0
            },
            {
                "start_time": 145.7090909090909,
                "end_time": 145.79090909090908,
                "pitch": 55,
                "velocity": 51,
                "duration": 0.08181818181819267,
                "tempo": 120.0
            },
            {
                "start_time": 145.79090909090908,
                "end_time": 145.83863636363637,
                "pitch": 55,
                "velocity": 51,
                "duration": 0.04772727272728616,
                "tempo": 120.0
            },
            {
                "start_time": 145.7090909090909,
                "end_time": 145.83863636363637,
                "pitch": 67,
                "velocity": 51,
                "duration": 0.12954545454547883,
                "tempo": 120.0
            },
            {
                "start_time": 145.79090909090908,
                "end_time": 145.92045454545453,
                "pitch": 0,
                "velocity": 51,
                "duration": 0.1295454545454504,
                "tempo": 120.0
            },
            {
                "start_time": 145.83863636363637,
                "end_time": 145.92045454545453,
                "pitch": 55,
                "velocity": 51,
                "duration": 0.08181818181816425,
                "tempo": 120.0
            },
            {
                "start_time": 145.92045454545453,
                "end_time": 145.97045454545454,
                "pitch": 55,
                "velocity": 51,
                "duration": 0.05000000000001137,
                "tempo": 120.0
            },
            {
                "start_time": 145.83863636363637,
                "end_time": 145.97045454545454,
                "pitch": 67,
                "velocity": 51,
                "duration": 0.13181818181817562,
                "tempo": 120.0
            },
            {
                "start_time": 145.92045454545453,
                "end_time": 146.0522727272727,
                "pitch": 0,
                "velocity": 51,
                "duration": 0.13181818181817562,
                "tempo": 120.0
            },
            {
                "start_time": 145.97045454545454,
                "end_time": 146.0522727272727,
                "pitch": 55,
                "velocity": 51,
                "duration": 0.08181818181816425,
                "tempo": 120.0
            },
            {
                "start_time": 146.0522727272727,
                "end_time": 146.10227272727272,
                "pitch": 55,
                "velocity": 51,
                "duration": 0.05000000000001137,
                "tempo": 120.0
            },
            {
                "start_time": 145.97045454545454,
                "end_time": 146.10227272727272,
                "pitch": 67,
                "velocity": 51,
                "duration": 0.13181818181817562,
                "tempo": 120.0
            },
            {
                "start_time": 146.0522727272727,
                "end_time": 146.18636363636364,
                "pitch": 0,
                "velocity": 51,
                "duration": 0.13409090909092924,
                "tempo": 120.0
            },
            {
                "start_time": 146.10227272727272,
                "end_time": 146.18636363636364,
                "pitch": 55,
                "velocity": 51,
                "duration": 0.08409090909091788,
                "tempo": 120.0
            },
            {
                "start_time": 146.18636363636364,
                "end_time": 146.23636363636362,
                "pitch": 55,
                "velocity": 51,
                "duration": 0.04999999999998295,
                "tempo": 120.0
            },
            {
                "start_time": 146.10227272727272,
                "end_time": 146.23636363636362,
                "pitch": 67,
                "velocity": 51,
                "duration": 0.13409090909090082,
                "tempo": 120.0
            },
            {
                "start_time": 146.18636363636364,
                "end_time": 146.32045454545454,
                "pitch": 0,
                "velocity": 51,
                "duration": 0.13409090909090082,
                "tempo": 120.0
            },
            {
                "start_time": 146.23636363636362,
                "end_time": 146.32045454545454,
                "pitch": 55,
                "velocity": 51,
                "duration": 0.08409090909091788,
                "tempo": 120.0
            },
            {
                "start_time": 146.32045454545454,
                "end_time": 146.37045454545455,
                "pitch": 55,
                "velocity": 51,
                "duration": 0.05000000000001137,
                "tempo": 120.0
            },
            {
                "start_time": 146.23636363636362,
                "end_time": 146.37045454545455,
                "pitch": 67,
                "velocity": 51,
                "duration": 0.13409090909092924,
                "tempo": 120.0
            },
            {
                "start_time": 146.32045454545454,
                "end_time": 146.45454545454544,
                "pitch": 0,
                "velocity": 51,
                "duration": 0.13409090909090082,
                "tempo": 120.0
            },
            {
                "start_time": 146.37045454545455,
                "end_time": 146.45454545454544,
                "pitch": 55,
                "velocity": 51,
                "duration": 0.08409090909088945,
                "tempo": 120.0
            },
            {
                "start_time": 146.45454545454544,
                "end_time": 146.48863636363635,
                "pitch": 55,
                "velocity": 51,
                "duration": 0.03409090909090651,
                "tempo": 120.0
            },
            {
                "start_time": 146.37045454545455,
                "end_time": 147.1840909090909,
                "pitch": 67,
                "velocity": 51,
                "duration": 0.8136363636363626,
                "tempo": 120.0
            },
            {
                "start_time": 146.49090909090907,
                "end_time": 147.1840909090909,
                "pitch": 67,
                "velocity": 51,
                "duration": 0.6931818181818414,
                "tempo": 120.0
            },
            {
                "start_time": 146.49090909090907,
                "end_time": 147.1840909090909,
                "pitch": 79,
                "velocity": 51,
                "duration": 0.6931818181818414,
                "tempo": 120.0
            },
            {
                "start_time": 147.1840909090909,
                "end_time": 147.32045454545454,
                "pitch": 67,
                "velocity": 51,
                "duration": 0.13636363636362603,
                "tempo": 120.0
            },
            {
                "start_time": 147.1840909090909,
                "end_time": 147.32045454545454,
                "pitch": 79,
                "velocity": 51,
                "duration": 0.13636363636362603,
                "tempo": 120.0
            },
            {
                "start_time": 147.32045454545454,
                "end_time": 147.45454545454544,
                "pitch": 67,
                "velocity": 51,
                "duration": 0.13409090909090082,
                "tempo": 120.0
            },
            {
                "start_time": 147.32045454545454,
                "end_time": 147.45454545454544,
                "pitch": 79,
                "velocity": 51,
                "duration": 0.13409090909090082,
                "tempo": 120.0
            },
            {
                "start_time": 147.45454545454544,
                "end_time": 147.58863636363637,
                "pitch": 67,
                "velocity": 51,
                "duration": 0.13409090909092924,
                "tempo": 120.0
            },
            {
                "start_time": 147.45454545454544,
                "end_time": 147.58863636363637,
                "pitch": 79,
                "velocity": 51,
                "duration": 0.13409090909092924,
                "tempo": 120.0
            },
            {
                "start_time": 147.58863636363637,
                "end_time": 147.72272727272727,
                "pitch": 67,
                "velocity": 51,
                "duration": 0.13409090909090082,
                "tempo": 120.0
            },
            {
                "start_time": 147.58863636363637,
                "end_time": 147.72272727272727,
                "pitch": 79,
                "velocity": 51,
                "duration": 0.13409090909090082,
                "tempo": 120.0
            },
            {
                "start_time": 147.72272727272727,
                "end_time": 147.85681818181817,
                "pitch": 67,
                "velocity": 51,
                "duration": 0.13409090909090082,
                "tempo": 120.0
            },
            {
                "start_time": 147.72272727272727,
                "end_time": 147.85681818181817,
                "pitch": 79,
                "velocity": 51,
                "duration": 0.13409090909090082,
                "tempo": 120.0
            },
            {
                "start_time": 147.85681818181817,
                "end_time": 147.99090909090907,
                "pitch": 67,
                "velocity": 51,
                "duration": 0.13409090909090082,
                "tempo": 120.0
            },
            {
                "start_time": 147.85681818181817,
                "end_time": 147.99090909090907,
                "pitch": 79,
                "velocity": 51,
                "duration": 0.13409090909090082,
                "tempo": 120.0
            },
            {
                "start_time": 147.99090909090907,
                "end_time": 148.10681818181817,
                "pitch": 67,
                "velocity": 51,
                "duration": 0.11590909090909918,
                "tempo": 120.0
            },
            {
                "start_time": 147.99090909090907,
                "end_time": 148.1090909090909,
                "pitch": 79,
                "velocity": 51,
                "duration": 0.11818181818182438,
                "tempo": 120.0
            },
            {
                "start_time": 148.1090909090909,
                "end_time": 148.79545454545453,
                "pitch": 67,
                "velocity": 51,
                "duration": 0.6863636363636374,
                "tempo": 120.0
            },
            {
                "start_time": 148.1090909090909,
                "end_time": 148.79545454545453,
                "pitch": 79,
                "velocity": 51,
                "duration": 0.6863636363636374,
                "tempo": 120.0
            },
            {
                "start_time": 148.79545454545453,
                "end_time": 148.9272727272727,
                "pitch": 67,
                "velocity": 51,
                "duration": 0.13181818181817562,
                "tempo": 120.0
            },
            {
                "start_time": 148.79545454545453,
                "end_time": 148.9272727272727,
                "pitch": 79,
                "velocity": 51,
                "duration": 0.13181818181817562,
                "tempo": 120.0
            },
            {
                "start_time": 148.9272727272727,
                "end_time": 149.06136363636364,
                "pitch": 67,
                "velocity": 51,
                "duration": 0.13409090909092924,
                "tempo": 120.0
            },
            {
                "start_time": 148.9272727272727,
                "end_time": 149.06136363636364,
                "pitch": 79,
                "velocity": 51,
                "duration": 0.13409090909092924,
                "tempo": 120.0
            },
            {
                "start_time": 149.06136363636364,
                "end_time": 149.19545454545454,
                "pitch": 67,
                "velocity": 51,
                "duration": 0.13409090909090082,
                "tempo": 120.0
            },
            {
                "start_time": 149.06136363636364,
                "end_time": 149.19545454545454,
                "pitch": 79,
                "velocity": 51,
                "duration": 0.13409090909090082,
                "tempo": 120.0
            },
            {
                "start_time": 149.19545454545454,
                "end_time": 149.32954545454544,
                "pitch": 67,
                "velocity": 51,
                "duration": 0.13409090909090082,
                "tempo": 120.0
            },
            {
                "start_time": 149.19545454545454,
                "end_time": 149.32954545454544,
                "pitch": 79,
                "velocity": 51,
                "duration": 0.13409090909090082,
                "tempo": 120.0
            },
            {
                "start_time": 149.32954545454544,
                "end_time": 149.4659090909091,
                "pitch": 67,
                "velocity": 51,
                "duration": 0.13636363636365445,
                "tempo": 120.0
            },
            {
                "start_time": 149.32954545454544,
                "end_time": 149.4659090909091,
                "pitch": 79,
                "velocity": 51,
                "duration": 0.13636363636365445,
                "tempo": 120.0
            },
            {
                "start_time": 149.4659090909091,
                "end_time": 149.6,
                "pitch": 67,
                "velocity": 51,
                "duration": 0.13409090909090082,
                "tempo": 120.0
            },
            {
                "start_time": 149.4659090909091,
                "end_time": 149.6,
                "pitch": 79,
                "velocity": 51,
                "duration": 0.13409090909090082,
                "tempo": 120.0
            },
            {
                "start_time": 149.6,
                "end_time": 149.71818181818182,
                "pitch": 67,
                "velocity": 51,
                "duration": 0.11818181818182438,
                "tempo": 120.0
            },
            {
                "start_time": 149.6,
                "end_time": 149.71818181818182,
                "pitch": 79,
                "velocity": 51,
                "duration": 0.11818181818182438,
                "tempo": 120.0
            },
            {
                "start_time": 48.27954545454545,
                "end_time": 151.32954545454544,
                "pitch": 69,
                "velocity": 51,
                "duration": 103.04999999999998,
                "tempo": 120.0
            },
            {
                "start_time": 149.71818181818182,
                "end_time": 151.32954545454544,
                "pitch": 69,
                "velocity": 51,
                "duration": 1.6113636363636203,
                "tempo": 120.0
            },
            {
                "start_time": 151.32954545454544,
                "end_time": 152.93636363636364,
                "pitch": 69,
                "velocity": 51,
                "duration": 1.6068181818181984,
                "tempo": 120.0
            },
            {
                "start_time": 152.93636363636364,
                "end_time": 154.5522727272727,
                "pitch": 69,
                "velocity": 51,
                "duration": 1.6159090909090708,
                "tempo": 120.0
            },
            {
                "start_time": 154.5522727272727,
                "end_time": 156.16590909090908,
                "pitch": 71,
                "velocity": 51,
                "duration": 1.613636363636374,
                "tempo": 120.0
            },
            {
                "start_time": 156.16590909090908,
                "end_time": 157.775,
                "pitch": 72,
                "velocity": 51,
                "duration": 1.6090909090909236,
                "tempo": 120.0
            },
            {
                "start_time": 55.304545454545455,
                "end_time": 159.39090909090908,
                "pitch": 74,
                "velocity": 51,
                "duration": 104.08636363636361,
                "tempo": 120.0
            },
            {
                "start_time": 157.775,
                "end_time": 159.39090909090908,
                "pitch": 74,
                "velocity": 51,
                "duration": 1.6159090909090708,
                "tempo": 120.0
            },
            {
                "start_time": 159.59318181818182,
                "end_time": 159.79545454545453,
                "pitch": 74,
                "velocity": 51,
                "duration": 0.20227272727271384,
                "tempo": 120.0
            },
            {
                "start_time": 159.79545454545453,
                "end_time": 159.99545454545455,
                "pitch": 74,
                "velocity": 51,
                "duration": 0.20000000000001705,
                "tempo": 120.0
            },
            {
                "start_time": 159.99772727272727,
                "end_time": 160.19772727272726,
                "pitch": 77,
                "velocity": 51,
                "duration": 0.19999999999998863,
                "tempo": 120.0
            },
            {
                "start_time": 160.19772727272726,
                "end_time": 160.3931818181818,
                "pitch": 77,
                "velocity": 51,
                "duration": 0.19545454545453822,
                "tempo": 120.0
            },
            {
                "start_time": 159.79545454545453,
                "end_time": 160.5909090909091,
                "pitch": 76,
                "velocity": 51,
                "duration": 0.795454545454561,
                "tempo": 120.0
            },
            {
                "start_time": 159.99772727272727,
                "end_time": 161.00227272727273,
                "pitch": 74,
                "velocity": 51,
                "duration": 1.0045454545454504,
                "tempo": 120.0
            },
            {
                "start_time": 160.5909090909091,
                "end_time": 161.00227272727273,
                "pitch": 74,
                "velocity": 51,
                "duration": 0.4113636363636317,
                "tempo": 120.0
            },
            {
                "start_time": 54.902272727272724,
                "end_time": 161.2022727272727,
                "pitch": 56,
                "velocity": 51,
                "duration": 106.29999999999998,
                "tempo": 120.0
            },
            {
                "start_time": 157.775,
                "end_time": 161.2022727272727,
                "pitch": 71,
                "velocity": 51,
                "duration": 3.427272727272708,
                "tempo": 120.0
            },
            {
                "start_time": 161.00227272727273,
                "end_time": 161.2022727272727,
                "pitch": 71,
                "velocity": 51,
                "duration": 0.19999999999998863,
                "tempo": 120.0
            },
            {
                "start_time": 160.5909090909091,
                "end_time": 161.40227272727273,
                "pitch": 76,
                "velocity": 51,
                "duration": 0.8113636363636374,
                "tempo": 120.0
            },
            {
                "start_time": 161.2022727272727,
                "end_time": 161.40227272727273,
                "pitch": 76,
                "velocity": 51,
                "duration": 0.20000000000001705,
                "tempo": 120.0
            },
            {
                "start_time": 161.40227272727273,
                "end_time": 161.60454545454544,
                "pitch": 74,
                "velocity": 51,
                "duration": 0.20227272727271384,
                "tempo": 120.0
            },
            {
                "start_time": 161.00227272727273,
                "end_time": 161.80454545454543,
                "pitch": 77,
                "velocity": 51,
                "duration": 0.8022727272727082,
                "tempo": 120.0
            },
            {
                "start_time": 161.60454545454544,
                "end_time": 161.80454545454543,
                "pitch": 77,
                "velocity": 51,
                "duration": 0.19999999999998863,
                "tempo": 120.0
            },
            {
                "start_time": 161.80454545454543,
                "end_time": 162.00681818181818,
                "pitch": 77,
                "velocity": 51,
                "duration": 0.20227272727274226,
                "tempo": 120.0
            },
            {
                "start_time": 161.40227272727273,
                "end_time": 162.81363636363636,
                "pitch": 76,
                "velocity": 51,
                "duration": 1.4113636363636317,
                "tempo": 120.0
            },
            {
                "start_time": 162.2090909090909,
                "end_time": 162.81363636363636,
                "pitch": 76,
                "velocity": 51,
                "duration": 0.6045454545454731,
                "tempo": 120.0
            },
            {
                "start_time": 56.51363636363636,
                "end_time": 162.81363636363636,
                "pitch": 90,
                "velocity": 51,
                "duration": 106.30000000000001,
                "tempo": 120.0
            },
            {
                "start_time": 149.71818181818182,
                "end_time": 163.01590909090908,
                "pitch": 79,
                "velocity": 51,
                "duration": 13.297727272727258,
                "tempo": 120.0
            },
            {
                "start_time": 162.81363636363636,
                "end_time": 163.01590909090908,
                "pitch": 79,
                "velocity": 51,
                "duration": 0.20227272727271384,
                "tempo": 120.0
            },
            {
                "start_time": 56.91136363636363,
                "end_time": 163.2159090909091,
                "pitch": 89,
                "velocity": 51,
                "duration": 106.30454545454546,
                "tempo": 120.0
            },
            {
                "start_time": 163.2159090909091,
                "end_time": 163.41590909090908,
                "pitch": 84,
                "velocity": 51,
                "duration": 0.19999999999998863,
                "tempo": 120.0
            },
            {
                "start_time": 57.10681818181818,
                "end_time": 163.41590909090908,
                "pitch": 88,
                "velocity": 51,
                "duration": 106.30909090909091,
                "tempo": 120.0
            },
            {
                "start_time": 163.41590909090908,
                "end_time": 163.61818181818182,
                "pitch": 83,
                "velocity": 51,
                "duration": 0.20227272727274226,
                "tempo": 120.0
            },
            {
                "start_time": 163.8181818181818,
                "end_time": 164.22272727272727,
                "pitch": 83,
                "velocity": 51,
                "duration": 0.4045454545454561,
                "tempo": 120.0
            },
            {
                "start_time": 164.22272727272727,
                "end_time": 164.42272727272726,
                "pitch": 81,
                "velocity": 51,
                "duration": 0.19999999999998863,
                "tempo": 120.0
            },
            {
                "start_time": 164.42272727272726,
                "end_time": 165.02954545454546,
                "pitch": 83,
                "velocity": 51,
                "duration": 0.6068181818181984,
                "tempo": 120.0
            },
            {
                "start_time": 165.02954545454546,
                "end_time": 165.12727272727273,
                "pitch": 81,
                "velocity": 51,
                "duration": 0.09772727272726911,
                "tempo": 120.0
            },
            {
                "start_time": 165.12727272727273,
                "end_time": 165.22727272727272,
                "pitch": 83,
                "velocity": 51,
                "duration": 0.09999999999999432,
                "tempo": 120.0
            },
            {
                "start_time": 165.22954545454544,
                "end_time": 165.63181818181818,
                "pitch": 81,
                "velocity": 51,
                "duration": 0.4022727272727309,
                "tempo": 120.0
            },
            {
                "start_time": 133.60454545454544,
                "end_time": 166.8409090909091,
                "pitch": 64,
                "velocity": 51,
                "duration": 33.23636363636365,
                "tempo": 120.0
            },
            {
                "start_time": 165.8340909090909,
                "end_time": 166.8409090909091,
                "pitch": 64,
                "velocity": 51,
                "duration": 1.006818181818204,
                "tempo": 120.0
            },
            {
                "start_time": 166.8409090909091,
                "end_time": 167.04090909090908,
                "pitch": 64,
                "velocity": 51,
                "duration": 0.19999999999998863,
                "tempo": 120.0
            },
            {
                "start_time": 60.73181818181818,
                "end_time": 167.0431818181818,
                "pitch": 78,
                "velocity": 51,
                "duration": 106.31136363636364,
                "tempo": 120.0
            },
            {
                "start_time": 167.0431818181818,
                "end_time": 167.2431818181818,
                "pitch": 67,
                "velocity": 51,
                "duration": 0.19999999999998863,
                "tempo": 120.0
            },
            {
                "start_time": 156.16590909090908,
                "end_time": 167.85454545454544,
                "pitch": 55,
                "velocity": 51,
                "duration": 11.688636363636363,
                "tempo": 120.0
            },
            {
                "start_time": 167.4431818181818,
                "end_time": 167.85454545454544,
                "pitch": 55,
                "velocity": 51,
                "duration": 0.4113636363636317,
                "tempo": 120.0
            },
            {
                "start_time": 167.85454545454544,
                "end_time": 168.24545454545455,
                "pitch": 55,
                "velocity": 51,
                "duration": 0.39090909090910486,
                "tempo": 120.0
            },
            {
                "start_time": 141.66136363636363,
                "end_time": 168.24772727272727,
                "pitch": 57,
                "velocity": 51,
                "duration": 26.586363636363643,
                "tempo": 120.0
            },
            {
                "start_time": 143.27045454545453,
                "end_time": 168.65681818181818,
                "pitch": 59,
                "velocity": 51,
                "duration": 25.386363636363654,
                "tempo": 120.0
            },
            {
                "start_time": 168.24772727272727,
                "end_time": 168.65681818181818,
                "pitch": 59,
                "velocity": 51,
                "duration": 0.4090909090909065,
                "tempo": 120.0
            },
            {
                "start_time": 168.6590909090909,
                "end_time": 169.06136363636364,
                "pitch": 59,
                "velocity": 51,
                "duration": 0.4022727272727309,
                "tempo": 120.0
            }
        ],
        "Flute": [
            {
                "start_time": 91.72954545454544,
                "end_time": 92.53181818181818,
                "pitch": 69,
                "velocity": 51,
                "duration": 0.8022727272727366,
                "tempo": 120.0
            },
            {
                "start_time": 91.72954545454544,
                "end_time": 93.34545454545454,
                "pitch": 71,
                "velocity": 51,
                "duration": 1.6159090909090992,
                "tempo": 120.0
            },
            {
                "start_time": 92.53181818181818,
                "end_time": 93.34545454545454,
                "pitch": 71,
                "velocity": 51,
                "duration": 0.8136363636363626,
                "tempo": 120.0
            },
            {
                "start_time": 93.34545454545454,
                "end_time": 94.02727272727272,
                "pitch": 67,
                "velocity": 51,
                "duration": 0.6818181818181728,
                "tempo": 120.0
            },
            {
                "start_time": 94.02727272727272,
                "end_time": 94.15454545454546,
                "pitch": 67,
                "velocity": 51,
                "duration": 0.12727272727273942,
                "tempo": 120.0
            },
            {
                "start_time": 94.02727272727272,
                "end_time": 94.15454545454546,
                "pitch": 79,
                "velocity": 51,
                "duration": 0.12727272727273942,
                "tempo": 120.0
            },
            {
                "start_time": 94.15454545454546,
                "end_time": 94.29090909090908,
                "pitch": 67,
                "velocity": 51,
                "duration": 0.13636363636362603,
                "tempo": 120.0
            },
            {
                "start_time": 94.15454545454546,
                "end_time": 94.29090909090908,
                "pitch": 79,
                "velocity": 51,
                "duration": 0.13636363636362603,
                "tempo": 120.0
            },
            {
                "start_time": 94.29090909090908,
                "end_time": 94.42954545454545,
                "pitch": 67,
                "velocity": 51,
                "duration": 0.13863636363636545,
                "tempo": 120.0
            },
            {
                "start_time": 94.29090909090908,
                "end_time": 94.42954545454545,
                "pitch": 79,
                "velocity": 51,
                "duration": 0.13863636363636545,
                "tempo": 120.0
            },
            {
                "start_time": 94.42954545454545,
                "end_time": 94.56590909090909,
                "pitch": 67,
                "velocity": 51,
                "duration": 0.13636363636364024,
                "tempo": 120.0
            },
            {
                "start_time": 94.42954545454545,
                "end_time": 94.56590909090909,
                "pitch": 79,
                "velocity": 51,
                "duration": 0.13636363636364024,
                "tempo": 120.0
            },
            {
                "start_time": 94.56590909090909,
                "end_time": 94.69999999999999,
                "pitch": 67,
                "velocity": 51,
                "duration": 0.13409090909090082,
                "tempo": 120.0
            },
            {
                "start_time": 94.56590909090909,
                "end_time": 94.69999999999999,
                "pitch": 79,
                "velocity": 51,
                "duration": 0.13409090909090082,
                "tempo": 120.0
            },
            {
                "start_time": 94.69999999999999,
                "end_time": 94.8340909090909,
                "pitch": 67,
                "velocity": 51,
                "duration": 0.13409090909091503,
                "tempo": 120.0
            },
            {
                "start_time": 94.69999999999999,
                "end_time": 94.8340909090909,
                "pitch": 79,
                "velocity": 51,
                "duration": 0.13409090909091503,
                "tempo": 120.0
            },
            {
                "start_time": 94.8340909090909,
                "end_time": 94.95454545454545,
                "pitch": 67,
                "velocity": 51,
                "duration": 0.12045454545454959,
                "tempo": 120.0
            },
            {
                "start_time": 94.8340909090909,
                "end_time": 94.95454545454545,
                "pitch": 79,
                "velocity": 51,
                "duration": 0.12045454545454959,
                "tempo": 120.0
            },
            {
                "start_time": 92.53181818181818,
                "end_time": 95.75681818181818,
                "pitch": 69,
                "velocity": 51,
                "duration": 3.2249999999999943,
                "tempo": 120.0
            },
            {
                "start_time": 94.95454545454545,
                "end_time": 95.75681818181818,
                "pitch": 69,
                "velocity": 51,
                "duration": 0.8022727272727224,
                "tempo": 120.0
            },
            {
                "start_time": 95.75681818181818,
                "end_time": 95.7590909090909,
                "pitch": 69,
                "velocity": 51,
                "duration": 0.0022727272727252057,
                "tempo": 120.0
            },
            {
                "start_time": 93.34545454545454,
                "end_time": 96.56136363636364,
                "pitch": 71,
                "velocity": 51,
                "duration": 3.2159090909090935,
                "tempo": 120.0
            },
            {
                "start_time": 95.7590909090909,
                "end_time": 96.56136363636364,
                "pitch": 71,
                "velocity": 51,
                "duration": 0.8022727272727366,
                "tempo": 120.0
            },
            {
                "start_time": 96.56136363636364,
                "end_time": 97.24318181818181,
                "pitch": 67,
                "velocity": 51,
                "duration": 0.6818181818181728,
                "tempo": 120.0
            },
            {
                "start_time": 94.95454545454545,
                "end_time": 97.24318181818181,
                "pitch": 79,
                "velocity": 51,
                "duration": 2.288636363636357,
                "tempo": 120.0
            },
            {
                "start_time": 97.24318181818181,
                "end_time": 97.38181818181818,
                "pitch": 67,
                "velocity": 51,
                "duration": 0.13863636363636545,
                "tempo": 120.0
            },
            {
                "start_time": 97.24318181818181,
                "end_time": 97.38181818181818,
                "pitch": 79,
                "velocity": 51,
                "duration": 0.13863636363636545,
                "tempo": 120.0
            },
            {
                "start_time": 97.38181818181818,
                "end_time": 97.51363636363637,
                "pitch": 67,
                "velocity": 51,
                "duration": 0.13181818181818983,
                "tempo": 120.0
            },
            {
                "start_time": 97.38181818181818,
                "end_time": 97.51363636363637,
                "pitch": 79,
                "velocity": 51,
                "duration": 0.13181818181818983,
                "tempo": 120.0
            },
            {
                "start_time": 97.51363636363637,
                "end_time": 97.64772727272727,
                "pitch": 67,
                "velocity": 51,
                "duration": 0.13409090909090082,
                "tempo": 120.0
            },
            {
                "start_time": 97.51363636363637,
                "end_time": 97.64772727272727,
                "pitch": 79,
                "velocity": 51,
                "duration": 0.13409090909090082,
                "tempo": 120.0
            },
            {
                "start_time": 97.64772727272727,
                "end_time": 97.78181818181818,
                "pitch": 67,
                "velocity": 51,
                "duration": 0.13409090909091503,
                "tempo": 120.0
            },
            {
                "start_time": 97.64772727272727,
                "end_time": 97.78181818181818,
                "pitch": 79,
                "velocity": 51,
                "duration": 0.13409090909091503,
                "tempo": 120.0
            },
            {
                "start_time": 97.78181818181818,
                "end_time": 97.91590909090908,
                "pitch": 67,
                "velocity": 51,
                "duration": 0.13409090909090082,
                "tempo": 120.0
            },
            {
                "start_time": 97.78181818181818,
                "end_time": 97.91590909090908,
                "pitch": 79,
                "velocity": 51,
                "duration": 0.13409090909090082,
                "tempo": 120.0
            },
            {
                "start_time": 97.91590909090908,
                "end_time": 98.05,
                "pitch": 67,
                "velocity": 51,
                "duration": 0.13409090909091503,
                "tempo": 120.0
            },
            {
                "start_time": 97.91590909090908,
                "end_time": 98.05,
                "pitch": 79,
                "velocity": 51,
                "duration": 0.13409090909091503,
                "tempo": 120.0
            },
            {
                "start_time": 98.05,
                "end_time": 98.17045454545455,
                "pitch": 67,
                "velocity": 51,
                "duration": 0.12045454545454959,
                "tempo": 120.0
            },
            {
                "start_time": 98.05,
                "end_time": 98.17045454545455,
                "pitch": 79,
                "velocity": 51,
                "duration": 0.12045454545454959,
                "tempo": 120.0
            },
            {
                "start_time": 98.17045454545455,
                "end_time": 98.375,
                "pitch": 69,
                "velocity": 51,
                "duration": 0.20454545454545325,
                "tempo": 120.0
            },
            {
                "start_time": 98.375,
                "end_time": 98.57954545454545,
                "pitch": 69,
                "velocity": 51,
                "duration": 0.20454545454545325,
                "tempo": 120.0
            },
            {
                "start_time": 98.58181818181818,
                "end_time": 98.78181818181818,
                "pitch": 69,
                "velocity": 51,
                "duration": 0.20000000000000284,
                "tempo": 120.0
            },
            {
                "start_time": 98.78181818181818,
                "end_time": 99.1840909090909,
                "pitch": 68,
                "velocity": 51,
                "duration": 0.4022727272727167,
                "tempo": 120.0
            },
            {
                "start_time": 99.1840909090909,
                "end_time": 99.3840909090909,
                "pitch": 69,
                "velocity": 51,
                "duration": 0.20000000000000284,
                "tempo": 120.0
            },
            {
                "start_time": 99.3840909090909,
                "end_time": 99.58181818181818,
                "pitch": 72,
                "velocity": 51,
                "duration": 0.19772727272727764,
                "tempo": 120.0
            },
            {
                "start_time": 99.58181818181818,
                "end_time": 99.77727272727272,
                "pitch": 74,
                "velocity": 51,
                "duration": 0.19545454545453822,
                "tempo": 120.0
            },
            {
                "start_time": 99.77727272727272,
                "end_time": 100.37954545454545,
                "pitch": 76,
                "velocity": 51,
                "duration": 0.6022727272727337,
                "tempo": 120.0
            },
            {
                "start_time": 98.17045454545455,
                "end_time": 101.07272727272726,
                "pitch": 79,
                "velocity": 51,
                "duration": 2.9022727272727167,
                "tempo": 120.0
            },
            {
                "start_time": 100.38181818181818,
                "end_time": 101.07272727272726,
                "pitch": 79,
                "velocity": 51,
                "duration": 0.6909090909090878,
                "tempo": 120.0
            },
            {
                "start_time": 101.07272727272726,
                "end_time": 101.20454545454545,
                "pitch": 79,
                "velocity": 51,
                "duration": 0.13181818181818983,
                "tempo": 120.0
            },
            {
                "start_time": 101.07272727272726,
                "end_time": 101.20454545454545,
                "pitch": 91,
                "velocity": 51,
                "duration": 0.13181818181818983,
                "tempo": 120.0
            },
            {
                "start_time": 101.20454545454545,
                "end_time": 101.3340909090909,
                "pitch": 79,
                "velocity": 51,
                "duration": 0.1295454545454504,
                "tempo": 120.0
            },
            {
                "start_time": 101.20454545454545,
                "end_time": 101.3340909090909,
                "pitch": 91,
                "velocity": 51,
                "duration": 0.1295454545454504,
                "tempo": 120.0
            },
            {
                "start_time": 101.3340909090909,
                "end_time": 101.38636363636363,
                "pitch": 79,
                "velocity": 51,
                "duration": 0.052272727272722364,
                "tempo": 120.0
            },
            {
                "start_time": 101.38636363636363,
                "end_time": 101.78636363636363,
                "pitch": 79,
                "velocity": 51,
                "duration": 0.4000000000000057,
                "tempo": 120.0
            },
            {
                "start_time": 101.78636363636363,
                "end_time": 102.19772727272726,
                "pitch": 81,
                "velocity": 51,
                "duration": 0.4113636363636317,
                "tempo": 120.0
            },
            {
                "start_time": 102.19772727272726,
                "end_time": 102.6,
                "pitch": 84,
                "velocity": 51,
                "duration": 0.4022727272727309,
                "tempo": 120.0
            },
            {
                "start_time": 102.6,
                "end_time": 102.80227272727272,
                "pitch": 86,
                "velocity": 51,
                "duration": 0.20227272727272805,
                "tempo": 120.0
            },
            {
                "start_time": 102.80227272727272,
                "end_time": 103.40454545454546,
                "pitch": 81,
                "velocity": 51,
                "duration": 0.6022727272727337,
                "tempo": 120.0
            },
            {
                "start_time": 102.19772727272726,
                "end_time": 103.80681818181817,
                "pitch": 68,
                "velocity": 51,
                "duration": 1.6090909090909093,
                "tempo": 120.0
            },
            {
                "start_time": 103.40454545454546,
                "end_time": 103.80681818181817,
                "pitch": 81,
                "velocity": 51,
                "duration": 0.4022727272727167,
                "tempo": 120.0
            },
            {
                "start_time": 102.6,
                "end_time": 104.2090909090909,
                "pitch": 84,
                "velocity": 51,
                "duration": 1.6090909090909093,
                "tempo": 120.0
            },
            {
                "start_time": 103.80681818181817,
                "end_time": 104.2090909090909,
                "pitch": 84,
                "velocity": 51,
                "duration": 0.4022727272727309,
                "tempo": 120.0
            },
            {
                "start_time": 104.2090909090909,
                "end_time": 104.4090909090909,
                "pitch": 86,
                "velocity": 51,
                "duration": 0.20000000000000284,
                "tempo": 120.0
            },
            {
                "start_time": 102.80227272727272,
                "end_time": 104.41136363636363,
                "pitch": 89,
                "velocity": 51,
                "duration": 1.6090909090909093,
                "tempo": 120.0
            },
            {
                "start_time": 104.4090909090909,
                "end_time": 104.41136363636363,
                "pitch": 89,
                "velocity": 51,
                "duration": 0.0022727272727252057,
                "tempo": 120.0
            },
            {
                "start_time": 104.41136363636363,
                "end_time": 105.01363636363637,
                "pitch": 81,
                "velocity": 51,
                "duration": 0.6022727272727337,
                "tempo": 120.0
            },
            {
                "start_time": 103.80681818181817,
                "end_time": 105.425,
                "pitch": 68,
                "velocity": 51,
                "duration": 1.6181818181818244,
                "tempo": 120.0
            },
            {
                "start_time": 105.01363636363637,
                "end_time": 105.425,
                "pitch": 81,
                "velocity": 51,
                "duration": 0.4113636363636317,
                "tempo": 120.0
            },
            {
                "start_time": 104.2090909090909,
                "end_time": 105.82727272727273,
                "pitch": 84,
                "velocity": 51,
                "duration": 1.6181818181818244,
                "tempo": 120.0
            },
            {
                "start_time": 105.425,
                "end_time": 105.82727272727273,
                "pitch": 84,
                "velocity": 51,
                "duration": 0.4022727272727309,
                "tempo": 120.0
            },
            {
                "start_time": 105.82727272727273,
                "end_time": 106.02272727272727,
                "pitch": 86,
                "velocity": 51,
                "duration": 0.19545454545453822,
                "tempo": 120.0
            },
            {
                "start_time": 106.02272727272727,
                "end_time": 106.62272727272726,
                "pitch": 81,
                "velocity": 51,
                "duration": 0.5999999999999943,
                "tempo": 120.0
            },
            {
                "start_time": 105.425,
                "end_time": 107.02499999999999,
                "pitch": 68,
                "velocity": 51,
                "duration": 1.5999999999999943,
                "tempo": 120.0
            },
            {
                "start_time": 106.62272727272726,
                "end_time": 107.02499999999999,
                "pitch": 81,
                "velocity": 51,
                "duration": 0.4022727272727309,
                "tempo": 120.0
            },
            {
                "start_time": 105.82727272727273,
                "end_time": 107.43636363636364,
                "pitch": 84,
                "velocity": 51,
                "duration": 1.6090909090909093,
                "tempo": 120.0
            },
            {
                "start_time": 107.02499999999999,
                "end_time": 107.43636363636364,
                "pitch": 84,
                "velocity": 51,
                "duration": 0.4113636363636459,
                "tempo": 120.0
            },
            {
                "start_time": 107.43863636363636,
                "end_time": 107.83181818181818,
                "pitch": 86,
                "velocity": 51,
                "duration": 0.39318181818181586,
                "tempo": 120.0
            }
        ],
        "French Horn": [
            {
                "start_time": 2.2136363636363634,
                "end_time": 2.3136363636363635,
                "pitch": 60,
                "velocity": 64,
                "duration": 0.10000000000000009,
                "tempo": 120.0
            },
            {
                "start_time": 2.3136363636363635,
                "end_time": 2.4136363636363636,
                "pitch": 62,
                "velocity": 64,
                "duration": 0.10000000000000009,
                "tempo": 120.0
            },
            {
                "start_time": 2.415909090909091,
                "end_time": 3.218181818181818,
                "pitch": 64,
                "velocity": 64,
                "duration": 0.8022727272727268,
                "tempo": 120.0
            },
            {
                "start_time": 3.2204545454545452,
                "end_time": 3.620454545454545,
                "pitch": 52,
                "velocity": 64,
                "duration": 0.3999999999999999,
                "tempo": 120.0
            },
            {
                "start_time": 3.620454545454545,
                "end_time": 4.029545454545454,
                "pitch": 57,
                "velocity": 64,
                "duration": 0.40909090909090917,
                "tempo": 120.0
            },
            {
                "start_time": 2.3136363636363635,
                "end_time": 4.422727272727273,
                "pitch": 60,
                "velocity": 64,
                "duration": 2.1090909090909093,
                "tempo": 120.0
            },
            {
                "start_time": 4.029545454545454,
                "end_time": 4.422727272727273,
                "pitch": 60,
                "velocity": 64,
                "duration": 0.3931818181818185,
                "tempo": 120.0
            },
            {
                "start_time": 4.422727272727273,
                "end_time": 4.836363636363636,
                "pitch": 67,
                "velocity": 64,
                "duration": 0.41363636363636314,
                "tempo": 120.0
            },
            {
                "start_time": 5.434090909090909,
                "end_time": 5.531818181818181,
                "pitch": 60,
                "velocity": 64,
                "duration": 0.09772727272727266,
                "tempo": 120.0
            },
            {
                "start_time": 2.415909090909091,
                "end_time": 5.629545454545454,
                "pitch": 62,
                "velocity": 64,
                "duration": 3.213636363636363,
                "tempo": 120.0
            },
            {
                "start_time": 5.531818181818181,
                "end_time": 5.629545454545454,
                "pitch": 62,
                "velocity": 64,
                "duration": 0.09772727272727266,
                "tempo": 120.0
            },
            {
                "start_time": 5.434090909090909,
                "end_time": 6.040909090909091,
                "pitch": 64,
                "velocity": 64,
                "duration": 0.6068181818181824,
                "tempo": 120.0
            },
            {
                "start_time": 5.629545454545454,
                "end_time": 6.040909090909091,
                "pitch": 64,
                "velocity": 64,
                "duration": 0.41136363636363704,
                "tempo": 120.0
            },
            {
                "start_time": 3.620454545454545,
                "end_time": 6.040909090909091,
                "pitch": 66,
                "velocity": 64,
                "duration": 2.420454545454546,
                "tempo": 120.0
            },
            {
                "start_time": 6.040909090909091,
                "end_time": 6.452272727272727,
                "pitch": 59,
                "velocity": 64,
                "duration": 0.41136363636363615,
                "tempo": 120.0
            },
            {
                "start_time": 6.454545454545454,
                "end_time": 7.247727272727272,
                "pitch": 57,
                "velocity": 64,
                "duration": 0.793181818181818,
                "tempo": 120.0
            },
            {
                "start_time": 6.454545454545454,
                "end_time": 8.054545454545455,
                "pitch": 59,
                "velocity": 64,
                "duration": 1.6000000000000005,
                "tempo": 120.0
            },
            {
                "start_time": 7.25,
                "end_time": 8.054545454545455,
                "pitch": 59,
                "velocity": 64,
                "duration": 0.8045454545454547,
                "tempo": 120.0
            },
            {
                "start_time": 5.531818181818181,
                "end_time": 8.754545454545454,
                "pitch": 60,
                "velocity": 64,
                "duration": 3.2227272727272727,
                "tempo": 120.0
            },
            {
                "start_time": 8.654545454545454,
                "end_time": 8.754545454545454,
                "pitch": 60,
                "velocity": 64,
                "duration": 0.09999999999999964,
                "tempo": 120.0
            },
            {
                "start_time": 5.629545454545454,
                "end_time": 8.85681818181818,
                "pitch": 62,
                "velocity": 64,
                "duration": 3.2272727272727266,
                "tempo": 120.0
            },
            {
                "start_time": 8.754545454545454,
                "end_time": 8.85681818181818,
                "pitch": 62,
                "velocity": 64,
                "duration": 0.10227272727272663,
                "tempo": 120.0
            },
            {
                "start_time": 8.85681818181818,
                "end_time": 9.661363636363635,
                "pitch": 64,
                "velocity": 64,
                "duration": 0.8045454545454547,
                "tempo": 120.0
            },
            {
                "start_time": 9.661363636363635,
                "end_time": 10.061363636363636,
                "pitch": 52,
                "velocity": 64,
                "duration": 0.40000000000000036,
                "tempo": 120.0
            },
            {
                "start_time": 6.040909090909091,
                "end_time": 10.061363636363636,
                "pitch": 66,
                "velocity": 64,
                "duration": 4.020454545454545,
                "tempo": 120.0
            },
            {
                "start_time": 4.029545454545454,
                "end_time": 10.472727272727273,
                "pitch": 31,
                "velocity": 64,
                "duration": 6.443181818181818,
                "tempo": 120.0
            },
            {
                "start_time": 7.25,
                "end_time": 10.472727272727273,
                "pitch": 57,
                "velocity": 64,
                "duration": 3.2227272727272727,
                "tempo": 120.0
            },
            {
                "start_time": 10.061363636363636,
                "end_time": 10.472727272727273,
                "pitch": 57,
                "velocity": 64,
                "duration": 0.41136363636363704,
                "tempo": 120.0
            },
            {
                "start_time": 8.754545454545454,
                "end_time": 10.86590909090909,
                "pitch": 60,
                "velocity": 64,
                "duration": 2.1113636363636363,
                "tempo": 120.0
            },
            {
                "start_time": 10.472727272727273,
                "end_time": 10.86590909090909,
                "pitch": 60,
                "velocity": 64,
                "duration": 0.39318181818181763,
                "tempo": 120.0
            },
            {
                "start_time": 4.422727272727273,
                "end_time": 10.86590909090909,
                "pitch": 76,
                "velocity": 64,
                "duration": 6.4431818181818175,
                "tempo": 120.0
            },
            {
                "start_time": 10.86590909090909,
                "end_time": 11.277272727272727,
                "pitch": 67,
                "velocity": 64,
                "duration": 0.41136363636363704,
                "tempo": 120.0
            },
            {
                "start_time": 11.879545454545454,
                "end_time": 11.98181818181818,
                "pitch": 60,
                "velocity": 64,
                "duration": 0.10227272727272663,
                "tempo": 120.0
            },
            {
                "start_time": 8.85681818181818,
                "end_time": 12.081818181818182,
                "pitch": 62,
                "velocity": 64,
                "duration": 3.2250000000000014,
                "tempo": 120.0
            },
            {
                "start_time": 11.98181818181818,
                "end_time": 12.081818181818182,
                "pitch": 62,
                "velocity": 64,
                "duration": 0.10000000000000142,
                "tempo": 120.0
            },
            {
                "start_time": 11.879545454545454,
                "end_time": 12.48409090909091,
                "pitch": 64,
                "velocity": 64,
                "duration": 0.6045454545454554,
                "tempo": 120.0
            },
            {
                "start_time": 12.081818181818182,
                "end_time": 12.48409090909091,
                "pitch": 64,
                "velocity": 64,
                "duration": 0.40227272727272734,
                "tempo": 120.0
            },
            {
                "start_time": 10.061363636363636,
                "end_time": 12.48409090909091,
                "pitch": 66,
                "velocity": 64,
                "duration": 2.4227272727272737,
                "tempo": 120.0
            },
            {
                "start_time": 12.48409090909091,
                "end_time": 12.886363636363635,
                "pitch": 59,
                "velocity": 64,
                "duration": 0.40227272727272556,
                "tempo": 120.0
            },
            {
                "start_time": 12.888636363636364,
                "end_time": 13.49090909090909,
                "pitch": 53,
                "velocity": 64,
                "duration": 0.6022727272727266,
                "tempo": 120.0
            },
            {
                "start_time": 11.98181818181818,
                "end_time": 13.59090909090909,
                "pitch": 60,
                "velocity": 64,
                "duration": 1.6090909090909093,
                "tempo": 120.0
            },
            {
                "start_time": 13.49090909090909,
                "end_time": 13.59090909090909,
                "pitch": 60,
                "velocity": 64,
                "duration": 0.09999999999999964,
                "tempo": 120.0
            },
            {
                "start_time": 12.081818181818182,
                "end_time": 13.693181818181818,
                "pitch": 62,
                "velocity": 64,
                "duration": 1.6113636363636363,
                "tempo": 120.0
            },
            {
                "start_time": 13.593181818181817,
                "end_time": 13.693181818181818,
                "pitch": 62,
                "velocity": 64,
                "duration": 0.10000000000000142,
                "tempo": 120.0
            },
            {
                "start_time": 13.49090909090909,
                "end_time": 13.693181818181818,
                "pitch": 65,
                "velocity": 64,
                "duration": 0.20227272727272805,
                "tempo": 120.0
            },
            {
                "start_time": 13.693181818181818,
                "end_time": 14.49090909090909,
                "pitch": 59,
                "velocity": 64,
                "duration": 0.797727272727272,
                "tempo": 120.0
            },
            {
                "start_time": 8.654545454545454,
                "end_time": 14.693181818181818,
                "pitch": 45,
                "velocity": 64,
                "duration": 6.038636363636364,
                "tempo": 120.0
            },
            {
                "start_time": 13.593181818181817,
                "end_time": 16.311363636363634,
                "pitch": 60,
                "velocity": 64,
                "duration": 2.718181818181817,
                "tempo": 120.0
            },
            {
                "start_time": 14.693181818181818,
                "end_time": 16.311363636363634,
                "pitch": 60,
                "velocity": 40,
                "duration": 1.6181818181818155,
                "tempo": 120.0
            },
            {
                "start_time": 16.311363636363634,
                "end_time": 17.922727272727272,
                "pitch": 58,
                "velocity": 40,
                "duration": 1.611363636363638,
                "tempo": 120.0
            },
            {
                "start_time": 17.922727272727272,
                "end_time": 20.329545454545453,
                "pitch": 58,
                "velocity": 40,
                "duration": 2.4068181818181813,
                "tempo": 120.0
            },
            {
                "start_time": 20.329545454545453,
                "end_time": 20.738636363636363,
                "pitch": 57,
                "velocity": 40,
                "duration": 0.40909090909091006,
                "tempo": 120.0
            },
            {
                "start_time": 20.738636363636363,
                "end_time": 21.138636363636362,
                "pitch": 53,
                "velocity": 40,
                "duration": 0.3999999999999986,
                "tempo": 120.0
            },
            {
                "start_time": 21.14090909090909,
                "end_time": 22.745454545454546,
                "pitch": 50,
                "velocity": 40,
                "duration": 1.6045454545454554,
                "tempo": 120.0
            },
            {
                "start_time": 22.745454545454546,
                "end_time": 24.352272727272727,
                "pitch": 52,
                "velocity": 40,
                "duration": 1.6068181818181806,
                "tempo": 120.0
            },
            {
                "start_time": 24.352272727272727,
                "end_time": 25.959090909090907,
                "pitch": 52,
                "velocity": 40,
                "duration": 1.6068181818181806,
                "tempo": 120.0
            },
            {
                "start_time": 12.48409090909091,
                "end_time": 25.959090909090907,
                "pitch": 66,
                "velocity": 64,
                "duration": 13.474999999999998,
                "tempo": 120.0
            },
            {
                "start_time": 20.738636363636363,
                "end_time": 26.595454545454544,
                "pitch": 0,
                "velocity": 40,
                "duration": 5.856818181818181,
                "tempo": 120.0
            },
            {
                "start_time": 25.959090909090907,
                "end_time": 26.595454545454544,
                "pitch": 55,
                "velocity": 40,
                "duration": 0.6363636363636367,
                "tempo": 120.0
            },
            {
                "start_time": 26.595454545454544,
                "end_time": 26.645454545454545,
                "pitch": 55,
                "velocity": 40,
                "duration": 0.05000000000000071,
                "tempo": 120.0
            },
            {
                "start_time": 26.595454545454544,
                "end_time": 26.73181818181818,
                "pitch": 0,
                "velocity": 40,
                "duration": 0.1363636363636367,
                "tempo": 120.0
            },
            {
                "start_time": 26.645454545454545,
                "end_time": 26.73181818181818,
                "pitch": 55,
                "velocity": 40,
                "duration": 0.08636363636363598,
                "tempo": 120.0
            },
            {
                "start_time": 26.73181818181818,
                "end_time": 26.768181818181816,
                "pitch": 55,
                "velocity": 40,
                "duration": 0.036363636363635266,
                "tempo": 120.0
            },
            {
                "start_time": 26.974999999999998,
                "end_time": 27.174999999999997,
                "pitch": 55,
                "velocity": 40,
                "duration": 0.1999999999999993,
                "tempo": 120.0
            },
            {
                "start_time": 27.174999999999997,
                "end_time": 27.377272727272725,
                "pitch": 55,
                "velocity": 40,
                "duration": 0.20227272727272805,
                "tempo": 120.0
            },
            {
                "start_time": 27.377272727272725,
                "end_time": 27.577272727272724,
                "pitch": 57,
                "velocity": 40,
                "duration": 0.1999999999999993,
                "tempo": 120.0
            },
            {
                "start_time": 16.311363636363634,
                "end_time": 29.18409090909091,
                "pitch": 64,
                "velocity": 40,
                "duration": 12.872727272727275,
                "tempo": 120.0
            },
            {
                "start_time": 29.18409090909091,
                "end_time": 30.78863636363636,
                "pitch": 58,
                "velocity": 40,
                "duration": 1.6045454545454518,
                "tempo": 120.0
            },
            {
                "start_time": 30.78863636363636,
                "end_time": 33.19772727272727,
                "pitch": 58,
                "velocity": 40,
                "duration": 2.40909090909091,
                "tempo": 120.0
            },
            {
                "start_time": 33.19772727272727,
                "end_time": 33.59772727272727,
                "pitch": 57,
                "velocity": 40,
                "duration": 0.3999999999999986,
                "tempo": 120.0
            },
            {
                "start_time": 26.73181818181818,
                "end_time": 33.6,
                "pitch": 0,
                "velocity": 40,
                "duration": 6.868181818181821,
                "tempo": 120.0
            },
            {
                "start_time": 21.14090909090909,
                "end_time": 34.00454545454545,
                "pitch": 53,
                "velocity": 40,
                "duration": 12.86363636363636,
                "tempo": 120.0
            },
            {
                "start_time": 33.6,
                "end_time": 34.00454545454545,
                "pitch": 53,
                "velocity": 40,
                "duration": 0.404545454545449,
                "tempo": 120.0
            },
            {
                "start_time": 22.745454545454546,
                "end_time": 34.60227272727273,
                "pitch": 50,
                "velocity": 40,
                "duration": 11.85681818181818,
                "tempo": 120.0
            },
            {
                "start_time": 34.00454545454545,
                "end_time": 34.60227272727273,
                "pitch": 50,
                "velocity": 40,
                "duration": 0.5977272727272762,
                "tempo": 120.0
            },
            {
                "start_time": 13.693181818181818,
                "end_time": 34.60227272727273,
                "pitch": 65,
                "velocity": 64,
                "duration": 20.909090909090907,
                "tempo": 120.0
            },
            {
                "start_time": 34.60227272727273,
                "end_time": 34.809090909090905,
                "pitch": 57,
                "velocity": 40,
                "duration": 0.20681818181817846,
                "tempo": 120.0
            },
            {
                "start_time": 33.6,
                "end_time": 35.40909090909091,
                "pitch": 0,
                "velocity": 40,
                "duration": 1.809090909090905,
                "tempo": 120.0
            },
            {
                "start_time": 35.013636363636365,
                "end_time": 35.40909090909091,
                "pitch": 57,
                "velocity": 40,
                "duration": 0.39545454545454106,
                "tempo": 120.0
            },
            {
                "start_time": 34.00454545454545,
                "end_time": 35.611363636363635,
                "pitch": 53,
                "velocity": 40,
                "duration": 1.6068181818181841,
                "tempo": 120.0
            },
            {
                "start_time": 35.40909090909091,
                "end_time": 35.611363636363635,
                "pitch": 53,
                "velocity": 40,
                "duration": 0.20227272727272805,
                "tempo": 120.0
            },
            {
                "start_time": 25.959090909090907,
                "end_time": 35.611363636363635,
                "pitch": 66,
                "velocity": 40,
                "duration": 9.652272727272727,
                "tempo": 120.0
            },
            {
                "start_time": 35.40909090909091,
                "end_time": 36.24318181818182,
                "pitch": 0,
                "velocity": 40,
                "duration": 0.8340909090909108,
                "tempo": 120.0
            },
            {
                "start_time": 35.611363636363635,
                "end_time": 36.24318181818182,
                "pitch": 55,
                "velocity": 40,
                "duration": 0.6318181818181827,
                "tempo": 120.0
            },
            {
                "start_time": 36.24318181818182,
                "end_time": 36.293181818181814,
                "pitch": 55,
                "velocity": 40,
                "duration": 0.04999999999999716,
                "tempo": 120.0
            },
            {
                "start_time": 26.645454545454545,
                "end_time": 36.293181818181814,
                "pitch": 67,
                "velocity": 40,
                "duration": 9.64772727272727,
                "tempo": 120.0
            },
            {
                "start_time": 36.293181818181814,
                "end_time": 36.375,
                "pitch": 55,
                "velocity": 40,
                "duration": 0.08181818181818556,
                "tempo": 120.0
            },
            {
                "start_time": 36.24318181818182,
                "end_time": 36.377272727272725,
                "pitch": 0,
                "velocity": 40,
                "duration": 0.13409090909090793,
                "tempo": 120.0
            },
            {
                "start_time": 36.375,
                "end_time": 36.377272727272725,
                "pitch": 0,
                "velocity": 40,
                "duration": 0.0022727272727252057,
                "tempo": 120.0
            },
            {
                "start_time": 36.377272727272725,
                "end_time": 36.425,
                "pitch": 55,
                "velocity": 40,
                "duration": 0.04772727272727195,
                "tempo": 120.0
            },
            {
                "start_time": 36.293181818181814,
                "end_time": 36.425,
                "pitch": 67,
                "velocity": 40,
                "duration": 0.13181818181818272,
                "tempo": 120.0
            },
            {
                "start_time": 36.425,
                "end_time": 36.50909090909091,
                "pitch": 55,
                "velocity": 40,
                "duration": 0.08409090909091077,
                "tempo": 120.0
            },
            {
                "start_time": 36.50909090909091,
                "end_time": 36.559090909090905,
                "pitch": 55,
                "velocity": 40,
                "duration": 0.04999999999999716,
                "tempo": 120.0
            },
            {
                "start_time": 36.425,
                "end_time": 36.559090909090905,
                "pitch": 67,
                "velocity": 40,
                "duration": 0.13409090909090793,
                "tempo": 120.0
            },
            {
                "start_time": 36.50909090909091,
                "end_time": 36.643181818181816,
                "pitch": 0,
                "velocity": 40,
                "duration": 0.13409090909090793,
                "tempo": 120.0
            },
            {
                "start_time": 36.559090909090905,
                "end_time": 36.643181818181816,
                "pitch": 55,
                "velocity": 40,
                "duration": 0.08409090909091077,
                "tempo": 120.0
            },
            {
                "start_time": 36.643181818181816,
                "end_time": 36.695454545454545,
                "pitch": 55,
                "velocity": 40,
                "duration": 0.05227272727272947,
                "tempo": 120.0
            },
            {
                "start_time": 36.559090909090905,
                "end_time": 36.695454545454545,
                "pitch": 67,
                "velocity": 40,
                "duration": 0.13636363636364024,
                "tempo": 120.0
            },
            {
                "start_time": 36.643181818181816,
                "end_time": 36.78181818181818,
                "pitch": 0,
                "velocity": 40,
                "duration": 0.13863636363636545,
                "tempo": 120.0
            },
            {
                "start_time": 36.695454545454545,
                "end_time": 36.78181818181818,
                "pitch": 55,
                "velocity": 40,
                "duration": 0.08636363636363598,
                "tempo": 120.0
            },
            {
                "start_time": 36.78181818181818,
                "end_time": 36.83181818181818,
                "pitch": 55,
                "velocity": 40,
                "duration": 0.04999999999999716,
                "tempo": 120.0
            },
            {
                "start_time": 36.695454545454545,
                "end_time": 36.83181818181818,
                "pitch": 67,
                "velocity": 40,
                "duration": 0.13636363636363313,
                "tempo": 120.0
            },
            {
                "start_time": 36.78181818181818,
                "end_time": 36.92045454545455,
                "pitch": 0,
                "velocity": 40,
                "duration": 0.13863636363636545,
                "tempo": 120.0
            },
            {
                "start_time": 36.83181818181818,
                "end_time": 36.92045454545455,
                "pitch": 55,
                "velocity": 40,
                "duration": 0.08863636363636829,
                "tempo": 120.0
            },
            {
                "start_time": 36.92045454545455,
                "end_time": 36.970454545454544,
                "pitch": 55,
                "velocity": 40,
                "duration": 0.04999999999999716,
                "tempo": 120.0
            },
            {
                "start_time": 36.83181818181818,
                "end_time": 36.970454545454544,
                "pitch": 67,
                "velocity": 40,
                "duration": 0.13863636363636545,
                "tempo": 120.0
            },
            {
                "start_time": 36.92045454545455,
                "end_time": 37.054545454545455,
                "pitch": 0,
                "velocity": 40,
                "duration": 0.13409090909090793,
                "tempo": 120.0
            },
            {
                "start_time": 36.970454545454544,
                "end_time": 37.054545454545455,
                "pitch": 55,
                "velocity": 40,
                "duration": 0.08409090909091077,
                "tempo": 120.0
            },
            {
                "start_time": 37.054545454545455,
                "end_time": 37.10454545454545,
                "pitch": 55,
                "velocity": 40,
                "duration": 0.04999999999999716,
                "tempo": 120.0
            },
            {
                "start_time": 36.970454545454544,
                "end_time": 37.10454545454545,
                "pitch": 67,
                "velocity": 40,
                "duration": 0.13409090909090793,
                "tempo": 120.0
            },
            {
                "start_time": 37.054545454545455,
                "end_time": 37.18636363636364,
                "pitch": 0,
                "velocity": 40,
                "duration": 0.13181818181818272,
                "tempo": 120.0
            },
            {
                "start_time": 37.10454545454545,
                "end_time": 37.18636363636364,
                "pitch": 55,
                "velocity": 40,
                "duration": 0.08181818181818556,
                "tempo": 120.0
            },
            {
                "start_time": 37.18636363636364,
                "end_time": 37.220454545454544,
                "pitch": 55,
                "velocity": 40,
                "duration": 0.03409090909090651,
                "tempo": 120.0
            },
            {
                "start_time": 37.220454545454544,
                "end_time": 38.824999999999996,
                "pitch": 48,
                "velocity": 40,
                "duration": 1.6045454545454518,
                "tempo": 120.0
            },
            {
                "start_time": 38.82727272727273,
                "end_time": 40.434090909090905,
                "pitch": 47,
                "velocity": 40,
                "duration": 1.606818181818177,
                "tempo": 120.0
            },
            {
                "start_time": 40.434090909090905,
                "end_time": 42.05,
                "pitch": 59,
                "velocity": 40,
                "duration": 1.615909090909092,
                "tempo": 120.0
            },
            {
                "start_time": 29.18409090909091,
                "end_time": 42.05,
                "pitch": 64,
                "velocity": 40,
                "duration": 12.865909090909089,
                "tempo": 120.0
            },
            {
                "start_time": 42.05,
                "end_time": 43.652272727272724,
                "pitch": 58,
                "velocity": 40,
                "duration": 1.6022727272727266,
                "tempo": 120.0
            },
            {
                "start_time": 43.652272727272724,
                "end_time": 46.059090909090905,
                "pitch": 58,
                "velocity": 40,
                "duration": 2.4068181818181813,
                "tempo": 120.0
            },
            {
                "start_time": 46.059090909090905,
                "end_time": 46.459090909090904,
                "pitch": 57,
                "velocity": 40,
                "duration": 0.3999999999999986,
                "tempo": 120.0
            },
            {
                "start_time": 37.18636363636364,
                "end_time": 46.461363636363636,
                "pitch": 0,
                "velocity": 40,
                "duration": 9.274999999999999,
                "tempo": 120.0
            },
            {
                "start_time": 46.461363636363636,
                "end_time": 46.86590909090909,
                "pitch": 53,
                "velocity": 40,
                "duration": 0.4045454545454561,
                "tempo": 120.0
            },
            {
                "start_time": 46.86590909090909,
                "end_time": 48.474999999999994,
                "pitch": 50,
                "velocity": 40,
                "duration": 1.6090909090909022,
                "tempo": 120.0
            },
            {
                "start_time": 48.474999999999994,
                "end_time": 50.084090909090904,
                "pitch": 52,
                "velocity": 40,
                "duration": 1.6090909090909093,
                "tempo": 120.0
            },
            {
                "start_time": 50.084090909090904,
                "end_time": 51.68863636363636,
                "pitch": 52,
                "velocity": 40,
                "duration": 1.604545454545459,
                "tempo": 120.0
            },
            {
                "start_time": 35.611363636363635,
                "end_time": 51.68863636363636,
                "pitch": 66,
                "velocity": 40,
                "duration": 16.077272727272728,
                "tempo": 120.0
            },
            {
                "start_time": 46.461363636363636,
                "end_time": 52.32272727272727,
                "pitch": 0,
                "velocity": 40,
                "duration": 5.8613636363636346,
                "tempo": 120.0
            },
            {
                "start_time": 37.220454545454544,
                "end_time": 52.32272727272727,
                "pitch": 55,
                "velocity": 40,
                "duration": 15.102272727272727,
                "tempo": 120.0
            },
            {
                "start_time": 51.68863636363636,
                "end_time": 52.32272727272727,
                "pitch": 55,
                "velocity": 40,
                "duration": 0.6340909090909079,
                "tempo": 120.0
            },
            {
                "start_time": 52.32272727272727,
                "end_time": 52.37272727272727,
                "pitch": 55,
                "velocity": 40,
                "duration": 0.04999999999999716,
                "tempo": 120.0
            },
            {
                "start_time": 37.10454545454545,
                "end_time": 52.37272727272727,
                "pitch": 67,
                "velocity": 40,
                "duration": 15.268181818181816,
                "tempo": 120.0
            },
            {
                "start_time": 52.32272727272727,
                "end_time": 52.45681818181818,
                "pitch": 0,
                "velocity": 40,
                "duration": 0.13409090909090793,
                "tempo": 120.0
            },
            {
                "start_time": 52.37272727272727,
                "end_time": 52.45681818181818,
                "pitch": 55,
                "velocity": 40,
                "duration": 0.08409090909091077,
                "tempo": 120.0
            },
            {
                "start_time": 52.45681818181818,
                "end_time": 52.490909090909085,
                "pitch": 55,
                "velocity": 40,
                "duration": 0.03409090909090651,
                "tempo": 120.0
            },
            {
                "start_time": 52.69090909090909,
                "end_time": 52.89090909090909,
                "pitch": 55,
                "velocity": 40,
                "duration": 0.20000000000000284,
                "tempo": 120.0
            },
            {
                "start_time": 52.89090909090909,
                "end_time": 53.09318181818182,
                "pitch": 55,
                "velocity": 40,
                "duration": 0.20227272727272805,
                "tempo": 120.0
            },
            {
                "start_time": 53.09318181818182,
                "end_time": 53.293181818181814,
                "pitch": 57,
                "velocity": 40,
                "duration": 0.19999999999999574,
                "tempo": 120.0
            },
            {
                "start_time": 42.05,
                "end_time": 54.902272727272724,
                "pitch": 64,
                "velocity": 40,
                "duration": 12.852272727272727,
                "tempo": 120.0
            },
            {
                "start_time": 54.902272727272724,
                "end_time": 56.51363636363636,
                "pitch": 58,
                "velocity": 40,
                "duration": 1.6113636363636346,
                "tempo": 120.0
            },
            {
                "start_time": 56.51363636363636,
                "end_time": 58.92045454545454,
                "pitch": 58,
                "velocity": 40,
                "duration": 2.4068181818181813,
                "tempo": 120.0
            },
            {
                "start_time": 52.45681818181818,
                "end_time": 59.32727272727272,
                "pitch": 0,
                "velocity": 40,
                "duration": 6.8704545454545425,
                "tempo": 120.0
            },
            {
                "start_time": 58.92045454545454,
                "end_time": 59.32727272727272,
                "pitch": 57,
                "velocity": 40,
                "duration": 0.4068181818181813,
                "tempo": 120.0
            },
            {
                "start_time": 46.86590909090909,
                "end_time": 59.72727272727273,
                "pitch": 53,
                "velocity": 40,
                "duration": 12.861363636363635,
                "tempo": 120.0
            },
            {
                "start_time": 59.32727272727272,
                "end_time": 59.72727272727273,
                "pitch": 53,
                "velocity": 40,
                "duration": 0.4000000000000057,
                "tempo": 120.0
            },
            {
                "start_time": 48.474999999999994,
                "end_time": 60.32727272727272,
                "pitch": 50,
                "velocity": 40,
                "duration": 11.852272727272727,
                "tempo": 120.0
            },
            {
                "start_time": 59.72727272727273,
                "end_time": 60.32727272727272,
                "pitch": 50,
                "velocity": 40,
                "duration": 0.5999999999999943,
                "tempo": 120.0
            },
            {
                "start_time": 34.60227272727273,
                "end_time": 60.32954545454545,
                "pitch": 65,
                "velocity": 40,
                "duration": 25.727272727272727,
                "tempo": 120.0
            },
            {
                "start_time": 60.32954545454545,
                "end_time": 60.53181818181818,
                "pitch": 57,
                "velocity": 40,
                "duration": 0.20227272727272805,
                "tempo": 120.0
            },
            {
                "start_time": 59.32727272727272,
                "end_time": 61.13409090909091,
                "pitch": 0,
                "velocity": 40,
                "duration": 1.806818181818187,
                "tempo": 120.0
            },
            {
                "start_time": 60.73181818181818,
                "end_time": 61.13409090909091,
                "pitch": 57,
                "velocity": 40,
                "duration": 0.4022727272727309,
                "tempo": 120.0
            },
            {
                "start_time": 59.72727272727273,
                "end_time": 61.336363636363636,
                "pitch": 53,
                "velocity": 40,
                "duration": 1.6090909090909093,
                "tempo": 120.0
            },
            {
                "start_time": 61.13409090909091,
                "end_time": 61.336363636363636,
                "pitch": 53,
                "velocity": 40,
                "duration": 0.20227272727272805,
                "tempo": 120.0
            },
            {
                "start_time": 51.68863636363636,
                "end_time": 61.336363636363636,
                "pitch": 66,
                "velocity": 40,
                "duration": 9.647727272727273,
                "tempo": 120.0
            },
            {
                "start_time": 61.13409090909091,
                "end_time": 61.96818181818182,
                "pitch": 0,
                "velocity": 40,
                "duration": 0.8340909090909108,
                "tempo": 120.0
            },
            {
                "start_time": 61.336363636363636,
                "end_time": 61.96818181818182,
                "pitch": 55,
                "velocity": 40,
                "duration": 0.6318181818181827,
                "tempo": 120.0
            },
            {
                "start_time": 61.96818181818182,
                "end_time": 62.018181818181816,
                "pitch": 55,
                "velocity": 40,
                "duration": 0.04999999999999716,
                "tempo": 120.0
            },
            {
                "start_time": 52.37272727272727,
                "end_time": 62.018181818181816,
                "pitch": 67,
                "velocity": 40,
                "duration": 9.645454545454548,
                "tempo": 120.0
            },
            {
                "start_time": 61.96818181818182,
                "end_time": 62.10227272727273,
                "pitch": 0,
                "velocity": 40,
                "duration": 0.13409090909090793,
                "tempo": 120.0
            },
            {
                "start_time": 62.018181818181816,
                "end_time": 62.10227272727273,
                "pitch": 55,
                "velocity": 40,
                "duration": 0.08409090909091077,
                "tempo": 120.0
            },
            {
                "start_time": 62.10227272727273,
                "end_time": 62.152272727272724,
                "pitch": 55,
                "velocity": 40,
                "duration": 0.04999999999999716,
                "tempo": 120.0
            },
            {
                "start_time": 62.018181818181816,
                "end_time": 62.152272727272724,
                "pitch": 67,
                "velocity": 40,
                "duration": 0.13409090909090793,
                "tempo": 120.0
            },
            {
                "start_time": 62.10227272727273,
                "end_time": 62.23409090909091,
                "pitch": 0,
                "velocity": 40,
                "duration": 0.13181818181818272,
                "tempo": 120.0
            },
            {
                "start_time": 62.152272727272724,
                "end_time": 62.23409090909091,
                "pitch": 55,
                "velocity": 40,
                "duration": 0.08181818181818556,
                "tempo": 120.0
            },
            {
                "start_time": 62.23409090909091,
                "end_time": 62.28409090909091,
                "pitch": 55,
                "velocity": 40,
                "duration": 0.04999999999999716,
                "tempo": 120.0
            },
            {
                "start_time": 62.152272727272724,
                "end_time": 62.28409090909091,
                "pitch": 67,
                "velocity": 40,
                "duration": 0.13181818181818272,
                "tempo": 120.0
            },
            {
                "start_time": 62.23409090909091,
                "end_time": 62.36818181818182,
                "pitch": 0,
                "velocity": 40,
                "duration": 0.13409090909090793,
                "tempo": 120.0
            },
            {
                "start_time": 62.28409090909091,
                "end_time": 62.36818181818182,
                "pitch": 55,
                "velocity": 40,
                "duration": 0.08409090909091077,
                "tempo": 120.0
            },
            {
                "start_time": 62.36818181818182,
                "end_time": 62.42045454545454,
                "pitch": 55,
                "velocity": 40,
                "duration": 0.052272727272722364,
                "tempo": 120.0
            },
            {
                "start_time": 62.28409090909091,
                "end_time": 62.42045454545454,
                "pitch": 67,
                "velocity": 40,
                "duration": 0.13636363636363313,
                "tempo": 120.0
            },
            {
                "start_time": 62.36818181818182,
                "end_time": 62.506818181818176,
                "pitch": 0,
                "velocity": 40,
                "duration": 0.13863636363635834,
                "tempo": 120.0
            },
            {
                "start_time": 62.42045454545454,
                "end_time": 62.506818181818176,
                "pitch": 55,
                "velocity": 40,
                "duration": 0.08636363636363598,
                "tempo": 120.0
            },
            {
                "start_time": 62.506818181818176,
                "end_time": 62.55681818181818,
                "pitch": 55,
                "velocity": 40,
                "duration": 0.05000000000000426,
                "tempo": 120.0
            },
            {
                "start_time": 62.42045454545454,
                "end_time": 62.55681818181818,
                "pitch": 67,
                "velocity": 40,
                "duration": 0.13636363636364024,
                "tempo": 120.0
            },
            {
                "start_time": 62.506818181818176,
                "end_time": 62.643181818181816,
                "pitch": 0,
                "velocity": 40,
                "duration": 0.13636363636364024,
                "tempo": 120.0
            },
            {
                "start_time": 62.55681818181818,
                "end_time": 62.643181818181816,
                "pitch": 55,
                "velocity": 40,
                "duration": 0.08636363636363598,
                "tempo": 120.0
            },
            {
                "start_time": 62.643181818181816,
                "end_time": 62.695454545454545,
                "pitch": 55,
                "velocity": 40,
                "duration": 0.05227272727272947,
                "tempo": 120.0
            },
            {
                "start_time": 62.55681818181818,
                "end_time": 62.695454545454545,
                "pitch": 67,
                "velocity": 40,
                "duration": 0.13863636363636545,
                "tempo": 120.0
            },
            {
                "start_time": 62.643181818181816,
                "end_time": 62.77954545454545,
                "pitch": 0,
                "velocity": 40,
                "duration": 0.13636363636363313,
                "tempo": 120.0
            },
            {
                "start_time": 62.695454545454545,
                "end_time": 62.77954545454545,
                "pitch": 55,
                "velocity": 40,
                "duration": 0.08409090909090366,
                "tempo": 120.0
            },
            {
                "start_time": 62.77954545454545,
                "end_time": 62.82727272727272,
                "pitch": 55,
                "velocity": 40,
                "duration": 0.04772727272727195,
                "tempo": 120.0
            },
            {
                "start_time": 62.695454545454545,
                "end_time": 62.82727272727272,
                "pitch": 67,
                "velocity": 40,
                "duration": 0.13181818181817562,
                "tempo": 120.0
            },
            {
                "start_time": 62.77954545454545,
                "end_time": 62.90909090909091,
                "pitch": 0,
                "velocity": 40,
                "duration": 0.12954545454545752,
                "tempo": 120.0
            },
            {
                "start_time": 62.82727272727272,
                "end_time": 62.90909090909091,
                "pitch": 55,
                "velocity": 40,
                "duration": 0.08181818181818556,
                "tempo": 120.0
            },
            {
                "start_time": 62.90909090909091,
                "end_time": 62.94318181818181,
                "pitch": 55,
                "velocity": 40,
                "duration": 0.03409090909090651,
                "tempo": 120.0
            },
            {
                "start_time": 62.945454545454545,
                "end_time": 64.54318181818182,
                "pitch": 48,
                "velocity": 40,
                "duration": 1.5977272727272762,
                "tempo": 120.0
            },
            {
                "start_time": 64.54318181818182,
                "end_time": 66.16136363636363,
                "pitch": 47,
                "velocity": 40,
                "duration": 1.6181818181818102,
                "tempo": 120.0
            },
            {
                "start_time": 54.902272727272724,
                "end_time": 66.75681818181818,
                "pitch": 64,
                "velocity": 40,
                "duration": 11.854545454545452,
                "tempo": 120.0
            },
            {
                "start_time": 66.75681818181818,
                "end_time": 66.95681818181818,
                "pitch": 56,
                "velocity": 40,
                "duration": 0.20000000000000284,
                "tempo": 120.0
            },
            {
                "start_time": 10.472727272727273,
                "end_time": 67.15681818181818,
                "pitch": 31,
                "velocity": 64,
                "duration": 56.68409090909091,
                "tempo": 120.0
            },
            {
                "start_time": 66.95681818181818,
                "end_time": 67.15681818181818,
                "pitch": 56,
                "velocity": 40,
                "duration": 0.20000000000000284,
                "tempo": 120.0
            },
            {
                "start_time": 67.15681818181818,
                "end_time": 67.76818181818182,
                "pitch": 60,
                "velocity": 40,
                "duration": 0.6113636363636346,
                "tempo": 120.0
            },
            {
                "start_time": 66.75681818181818,
                "end_time": 68.36136363636363,
                "pitch": 64,
                "velocity": 40,
                "duration": 1.604545454545459,
                "tempo": 120.0
            },
            {
                "start_time": 68.36136363636363,
                "end_time": 68.56590909090909,
                "pitch": 56,
                "velocity": 40,
                "duration": 0.20454545454545325,
                "tempo": 120.0
            },
            {
                "start_time": 67.15681818181818,
                "end_time": 68.77272727272727,
                "pitch": 31,
                "velocity": 40,
                "duration": 1.615909090909085,
                "tempo": 120.0
            },
            {
                "start_time": 68.56590909090909,
                "end_time": 68.77272727272727,
                "pitch": 56,
                "velocity": 40,
                "duration": 0.20681818181817846,
                "tempo": 120.0
            },
            {
                "start_time": 68.77272727272727,
                "end_time": 69.37727272727273,
                "pitch": 60,
                "velocity": 40,
                "duration": 0.6045454545454589,
                "tempo": 120.0
            },
            {
                "start_time": 68.36136363636363,
                "end_time": 73.19772727272726,
                "pitch": 64,
                "velocity": 40,
                "duration": 4.836363636363629,
                "tempo": 120.0
            },
            {
                "start_time": 73.19772727272726,
                "end_time": 73.39999999999999,
                "pitch": 56,
                "velocity": 40,
                "duration": 0.20227272727272805,
                "tempo": 120.0
            },
            {
                "start_time": 68.77272727272727,
                "end_time": 73.6,
                "pitch": 31,
                "velocity": 40,
                "duration": 4.827272727272728,
                "tempo": 120.0
            },
            {
                "start_time": 73.39999999999999,
                "end_time": 73.6,
                "pitch": 56,
                "velocity": 40,
                "duration": 0.20000000000000284,
                "tempo": 120.0
            },
            {
                "start_time": 73.6,
                "end_time": 74.2090909090909,
                "pitch": 60,
                "velocity": 40,
                "duration": 0.6090909090909093,
                "tempo": 120.0
            },
            {
                "start_time": 73.19772727272726,
                "end_time": 74.80454545454545,
                "pitch": 64,
                "velocity": 40,
                "duration": 1.6068181818181841,
                "tempo": 120.0
            },
            {
                "start_time": 74.80454545454545,
                "end_time": 75.01136363636363,
                "pitch": 56,
                "velocity": 40,
                "duration": 0.20681818181817846,
                "tempo": 120.0
            },
            {
                "start_time": 73.6,
                "end_time": 75.2159090909091,
                "pitch": 31,
                "velocity": 40,
                "duration": 1.6159090909090992,
                "tempo": 120.0
            },
            {
                "start_time": 75.01136363636363,
                "end_time": 75.2159090909091,
                "pitch": 56,
                "velocity": 40,
                "duration": 0.20454545454546746,
                "tempo": 120.0
            },
            {
                "start_time": 75.2159090909091,
                "end_time": 75.81136363636364,
                "pitch": 60,
                "velocity": 40,
                "duration": 0.5954545454545439,
                "tempo": 120.0
            },
            {
                "start_time": 74.80454545454545,
                "end_time": 79.63181818181818,
                "pitch": 64,
                "velocity": 40,
                "duration": 4.827272727272728,
                "tempo": 120.0
            },
            {
                "start_time": 79.63181818181818,
                "end_time": 79.83636363636363,
                "pitch": 56,
                "velocity": 40,
                "duration": 0.20454545454545325,
                "tempo": 120.0
            },
            {
                "start_time": 75.2159090909091,
                "end_time": 80.04318181818181,
                "pitch": 31,
                "velocity": 40,
                "duration": 4.827272727272714,
                "tempo": 120.0
            },
            {
                "start_time": 79.83636363636363,
                "end_time": 80.04318181818181,
                "pitch": 56,
                "velocity": 40,
                "duration": 0.20681818181817846,
                "tempo": 120.0
            },
            {
                "start_time": 80.04318181818181,
                "end_time": 80.64545454545454,
                "pitch": 60,
                "velocity": 40,
                "duration": 0.6022727272727337,
                "tempo": 120.0
            },
            {
                "start_time": 79.63181818181818,
                "end_time": 81.23863636363636,
                "pitch": 64,
                "velocity": 40,
                "duration": 1.6068181818181841,
                "tempo": 120.0
            },
            {
                "start_time": 81.23863636363636,
                "end_time": 81.44545454545454,
                "pitch": 56,
                "velocity": 40,
                "duration": 0.20681818181817846,
                "tempo": 120.0
            },
            {
                "start_time": 80.04318181818181,
                "end_time": 81.64999999999999,
                "pitch": 31,
                "velocity": 40,
                "duration": 1.6068181818181841,
                "tempo": 120.0
            },
            {
                "start_time": 81.44545454545454,
                "end_time": 81.64999999999999,
                "pitch": 56,
                "velocity": 40,
                "duration": 0.20454545454545325,
                "tempo": 120.0
            },
            {
                "start_time": 81.64999999999999,
                "end_time": 82.25454545454545,
                "pitch": 60,
                "velocity": 40,
                "duration": 0.6045454545454589,
                "tempo": 120.0
            },
            {
                "start_time": 85.47727272727272,
                "end_time": 88.70227272727273,
                "pitch": 53,
                "velocity": 40,
                "duration": 3.2250000000000085,
                "tempo": 120.0
            },
            {
                "start_time": 61.336363636363636,
                "end_time": 88.70227272727273,
                "pitch": 66,
                "velocity": 40,
                "duration": 27.365909090909092,
                "tempo": 120.0
            },
            {
                "start_time": 62.945454545454545,
                "end_time": 89.10454545454544,
                "pitch": 55,
                "velocity": 40,
                "duration": 26.1590909090909,
                "tempo": 120.0
            },
            {
                "start_time": 88.70227272727273,
                "end_time": 89.10454545454544,
                "pitch": 55,
                "velocity": 40,
                "duration": 0.4022727272727167,
                "tempo": 120.0
            },
            {
                "start_time": 89.10454545454544,
                "end_time": 89.50681818181818,
                "pitch": 55,
                "velocity": 40,
                "duration": 0.4022727272727309,
                "tempo": 120.0
            },
            {
                "start_time": 89.50681818181818,
                "end_time": 89.9090909090909,
                "pitch": 59,
                "velocity": 40,
                "duration": 0.4022727272727309,
                "tempo": 120.0
            },
            {
                "start_time": 89.9090909090909,
                "end_time": 90.10909090909091,
                "pitch": 60,
                "velocity": 40,
                "duration": 0.20000000000000284,
                "tempo": 120.0
            },
            {
                "start_time": 81.23863636363636,
                "end_time": 90.10909090909091,
                "pitch": 64,
                "velocity": 40,
                "duration": 8.87045454545455,
                "tempo": 120.0
            },
            {
                "start_time": 90.10909090909091,
                "end_time": 90.52045454545454,
                "pitch": 59,
                "velocity": 40,
                "duration": 0.4113636363636317,
                "tempo": 120.0
            },
            {
                "start_time": 89.9090909090909,
                "end_time": 90.72045454545454,
                "pitch": 44,
                "velocity": 40,
                "duration": 0.8113636363636374,
                "tempo": 120.0
            },
            {
                "start_time": 90.52045454545454,
                "end_time": 90.72045454545454,
                "pitch": 59,
                "velocity": 40,
                "duration": 0.20000000000000284,
                "tempo": 120.0
            },
            {
                "start_time": 90.72045454545454,
                "end_time": 90.92045454545455,
                "pitch": 60,
                "velocity": 40,
                "duration": 0.20000000000000284,
                "tempo": 120.0
            },
            {
                "start_time": 90.92045454545455,
                "end_time": 91.92272727272727,
                "pitch": 62,
                "velocity": 40,
                "duration": 1.0022727272727252,
                "tempo": 120.0
            },
            {
                "start_time": 91.92272727272727,
                "end_time": 92.73636363636363,
                "pitch": 53,
                "velocity": 51,
                "duration": 0.8136363636363626,
                "tempo": 120.0
            },
            {
                "start_time": 88.70227272727273,
                "end_time": 92.73636363636363,
                "pitch": 66,
                "velocity": 40,
                "duration": 4.0340909090909065,
                "tempo": 120.0
            },
            {
                "start_time": 62.90909090909091,
                "end_time": 93.37727272727273,
                "pitch": 0,
                "velocity": 40,
                "duration": 30.46818181818182,
                "tempo": 120.0
            },
            {
                "start_time": 92.73636363636363,
                "end_time": 93.37727272727273,
                "pitch": 55,
                "velocity": 51,
                "duration": 0.6409090909090907,
                "tempo": 120.0
            },
            {
                "start_time": 93.37727272727273,
                "end_time": 93.42954545454545,
                "pitch": 55,
                "velocity": 51,
                "duration": 0.052272727272722364,
                "tempo": 120.0
            },
            {
                "start_time": 62.82727272727272,
                "end_time": 93.42954545454545,
                "pitch": 67,
                "velocity": 40,
                "duration": 30.602272727272727,
                "tempo": 120.0
            },
            {
                "start_time": 93.37727272727273,
                "end_time": 93.51590909090909,
                "pitch": 0,
                "velocity": 51,
                "duration": 0.13863636363636545,
                "tempo": 120.0
            },
            {
                "start_time": 93.42954545454545,
                "end_time": 93.51590909090909,
                "pitch": 55,
                "velocity": 51,
                "duration": 0.08636363636364308,
                "tempo": 120.0
            },
            {
                "start_time": 93.51590909090909,
                "end_time": 93.55,
                "pitch": 55,
                "velocity": 51,
                "duration": 0.03409090909090651,
                "tempo": 120.0
            },
            {
                "start_time": 93.55,
                "end_time": 94.14090909090909,
                "pitch": 52,
                "velocity": 51,
                "duration": 0.5909090909090935,
                "tempo": 120.0
            },
            {
                "start_time": 92.73636363636363,
                "end_time": 94.14090909090909,
                "pitch": 66,
                "velocity": 51,
                "duration": 1.404545454545456,
                "tempo": 120.0
            },
            {
                "start_time": 93.55,
                "end_time": 94.34545454545454,
                "pitch": 55,
                "velocity": 51,
                "duration": 0.7954545454545467,
                "tempo": 120.0
            },
            {
                "start_time": 94.14090909090909,
                "end_time": 94.34545454545454,
                "pitch": 55,
                "velocity": 51,
                "duration": 0.20454545454545325,
                "tempo": 120.0
            },
            {
                "start_time": 90.92045454545455,
                "end_time": 94.55,
                "pitch": 60,
                "velocity": 40,
                "duration": 3.6295454545454504,
                "tempo": 120.0
            },
            {
                "start_time": 94.55,
                "end_time": 94.75227272727273,
                "pitch": 62,
                "velocity": 51,
                "duration": 0.20227272727272805,
                "tempo": 120.0
            },
            {
                "start_time": 90.10909090909091,
                "end_time": 94.95454545454545,
                "pitch": 64,
                "velocity": 40,
                "duration": 4.845454545454544,
                "tempo": 120.0
            },
            {
                "start_time": 94.75227272727273,
                "end_time": 94.95454545454545,
                "pitch": 64,
                "velocity": 51,
                "duration": 0.20227272727272805,
                "tempo": 120.0
            },
            {
                "start_time": 93.42954545454545,
                "end_time": 95.15454545454546,
                "pitch": 67,
                "velocity": 51,
                "duration": 1.7250000000000085,
                "tempo": 120.0
            },
            {
                "start_time": 94.95681818181818,
                "end_time": 95.15454545454546,
                "pitch": 67,
                "velocity": 51,
                "duration": 0.19772727272727764,
                "tempo": 120.0
            },
            {
                "start_time": 93.51590909090909,
                "end_time": 95.15681818181818,
                "pitch": 0,
                "velocity": 51,
                "duration": 1.6409090909090907,
                "tempo": 120.0
            },
            {
                "start_time": 95.15454545454546,
                "end_time": 95.15681818181818,
                "pitch": 0,
                "velocity": 51,
                "duration": 0.0022727272727252057,
                "tempo": 120.0
            },
            {
                "start_time": 95.15681818181818,
                "end_time": 95.9590909090909,
                "pitch": 53,
                "velocity": 51,
                "duration": 0.8022727272727224,
                "tempo": 120.0
            },
            {
                "start_time": 94.14090909090909,
                "end_time": 95.9590909090909,
                "pitch": 66,
                "velocity": 51,
                "duration": 1.818181818181813,
                "tempo": 120.0
            },
            {
                "start_time": 95.9590909090909,
                "end_time": 96.59318181818182,
                "pitch": 55,
                "velocity": 51,
                "duration": 0.634090909090915,
                "tempo": 120.0
            },
            {
                "start_time": 96.59318181818182,
                "end_time": 96.64090909090909,
                "pitch": 55,
                "velocity": 51,
                "duration": 0.04772727272727195,
                "tempo": 120.0
            },
            {
                "start_time": 96.59318181818182,
                "end_time": 96.72272727272727,
                "pitch": 0,
                "velocity": 51,
                "duration": 0.1295454545454504,
                "tempo": 120.0
            },
            {
                "start_time": 96.64090909090909,
                "end_time": 96.72272727272727,
                "pitch": 55,
                "velocity": 51,
                "duration": 0.08181818181817846,
                "tempo": 120.0
            },
            {
                "start_time": 96.72272727272727,
                "end_time": 96.75681818181818,
                "pitch": 55,
                "velocity": 51,
                "duration": 0.03409090909090651,
                "tempo": 120.0
            },
            {
                "start_time": 96.75681818181818,
                "end_time": 96.7590909090909,
                "pitch": 55,
                "velocity": 51,
                "duration": 0.0022727272727252057,
                "tempo": 120.0
            },
            {
                "start_time": 96.7590909090909,
                "end_time": 97.36590909090908,
                "pitch": 52,
                "velocity": 51,
                "duration": 0.6068181818181841,
                "tempo": 120.0
            },
            {
                "start_time": 97.36590909090908,
                "end_time": 97.76590909090909,
                "pitch": 64,
                "velocity": 51,
                "duration": 0.4000000000000057,
                "tempo": 120.0
            },
            {
                "start_time": 94.55,
                "end_time": 98.17045454545455,
                "pitch": 60,
                "velocity": 51,
                "duration": 3.6204545454545496,
                "tempo": 120.0
            },
            {
                "start_time": 97.76590909090909,
                "end_time": 98.17045454545455,
                "pitch": 60,
                "velocity": 51,
                "duration": 0.4045454545454561,
                "tempo": 120.0
            },
            {
                "start_time": 97.76590909090909,
                "end_time": 98.17045454545455,
                "pitch": 64,
                "velocity": 51,
                "duration": 0.4045454545454561,
                "tempo": 120.0
            },
            {
                "start_time": 96.72272727272727,
                "end_time": 98.375,
                "pitch": 0,
                "velocity": 51,
                "duration": 1.652272727272731,
                "tempo": 120.0
            },
            {
                "start_time": 98.17045454545455,
                "end_time": 98.375,
                "pitch": 55,
                "velocity": 51,
                "duration": 0.20454545454545325,
                "tempo": 120.0
            },
            {
                "start_time": 98.375,
                "end_time": 99.1840909090909,
                "pitch": 53,
                "velocity": 51,
                "duration": 0.809090909090898,
                "tempo": 120.0
            },
            {
                "start_time": 95.9590909090909,
                "end_time": 99.1840909090909,
                "pitch": 66,
                "velocity": 51,
                "duration": 3.2249999999999943,
                "tempo": 120.0
            },
            {
                "start_time": 98.375,
                "end_time": 99.8090909090909,
                "pitch": 0,
                "velocity": 51,
                "duration": 1.434090909090898,
                "tempo": 120.0
            },
            {
                "start_time": 99.1840909090909,
                "end_time": 99.8090909090909,
                "pitch": 55,
                "velocity": 51,
                "duration": 0.625,
                "tempo": 120.0
            },
            {
                "start_time": 99.8090909090909,
                "end_time": 99.85909090909091,
                "pitch": 55,
                "velocity": 51,
                "duration": 0.05000000000001137,
                "tempo": 120.0
            },
            {
                "start_time": 96.64090909090909,
                "end_time": 99.85909090909091,
                "pitch": 67,
                "velocity": 51,
                "duration": 3.2181818181818187,
                "tempo": 120.0
            },
            {
                "start_time": 99.8090909090909,
                "end_time": 99.94318181818181,
                "pitch": 0,
                "velocity": 51,
                "duration": 0.13409090909091503,
                "tempo": 120.0
            },
            {
                "start_time": 99.85909090909091,
                "end_time": 99.94318181818181,
                "pitch": 55,
                "velocity": 51,
                "duration": 0.08409090909090366,
                "tempo": 120.0
            },
            {
                "start_time": 99.94318181818181,
                "end_time": 99.97954545454544,
                "pitch": 55,
                "velocity": 51,
                "duration": 0.03636363636363171,
                "tempo": 120.0
            },
            {
                "start_time": 99.97954545454544,
                "end_time": 100.38181818181818,
                "pitch": 52,
                "velocity": 51,
                "duration": 0.4022727272727309,
                "tempo": 120.0
            },
            {
                "start_time": 98.17045454545455,
                "end_time": 100.38181818181818,
                "pitch": 64,
                "velocity": 51,
                "duration": 2.211363636363629,
                "tempo": 120.0
            },
            {
                "start_time": 100.38181818181818,
                "end_time": 100.57954545454545,
                "pitch": 60,
                "velocity": 51,
                "duration": 0.19772727272727764,
                "tempo": 120.0
            },
            {
                "start_time": 100.38181818181818,
                "end_time": 100.58181818181818,
                "pitch": 64,
                "velocity": 51,
                "duration": 0.20000000000000284,
                "tempo": 120.0
            },
            {
                "start_time": 100.58181818181818,
                "end_time": 100.99318181818181,
                "pitch": 59,
                "velocity": 51,
                "duration": 0.4113636363636317,
                "tempo": 120.0
            },
            {
                "start_time": 99.94318181818181,
                "end_time": 101.38636363636363,
                "pitch": 0,
                "velocity": 51,
                "duration": 1.443181818181813,
                "tempo": 120.0
            },
            {
                "start_time": 99.97954545454544,
                "end_time": 101.38636363636363,
                "pitch": 55,
                "velocity": 51,
                "duration": 1.4068181818181813,
                "tempo": 120.0
            },
            {
                "start_time": 100.99318181818181,
                "end_time": 101.38636363636363,
                "pitch": 55,
                "velocity": 51,
                "duration": 0.39318181818181586,
                "tempo": 120.0
            },
            {
                "start_time": 101.38636363636363,
                "end_time": 101.5840909090909,
                "pitch": 52,
                "velocity": 51,
                "duration": 0.19772727272727764,
                "tempo": 120.0
            },
            {
                "start_time": 91.92272727272727,
                "end_time": 101.98863636363636,
                "pitch": 50,
                "velocity": 51,
                "duration": 10.065909090909088,
                "tempo": 120.0
            },
            {
                "start_time": 101.5840909090909,
                "end_time": 101.98863636363636,
                "pitch": 50,
                "velocity": 51,
                "duration": 0.4045454545454561,
                "tempo": 120.0
            },
            {
                "start_time": 101.98863636363636,
                "end_time": 101.99090909090908,
                "pitch": 50,
                "velocity": 51,
                "duration": 0.0022727272727252057,
                "tempo": 120.0
            },
            {
                "start_time": 101.5840909090909,
                "end_time": 102.39772727272727,
                "pitch": 52,
                "velocity": 51,
                "duration": 0.8136363636363626,
                "tempo": 120.0
            },
            {
                "start_time": 101.99090909090908,
                "end_time": 102.39772727272727,
                "pitch": 52,
                "velocity": 51,
                "duration": 0.4068181818181813,
                "tempo": 120.0
            },
            {
                "start_time": 102.39772727272727,
                "end_time": 102.80454545454545,
                "pitch": 52,
                "velocity": 51,
                "duration": 0.4068181818181813,
                "tempo": 120.0
            },
            {
                "start_time": 99.1840909090909,
                "end_time": 102.80454545454545,
                "pitch": 66,
                "velocity": 51,
                "duration": 3.6204545454545496,
                "tempo": 120.0
            },
            {
                "start_time": 101.38636363636363,
                "end_time": 103.00227272727273,
                "pitch": 0,
                "velocity": 51,
                "duration": 1.6159090909090992,
                "tempo": 120.0
            },
            {
                "start_time": 102.80454545454545,
                "end_time": 103.00227272727273,
                "pitch": 55,
                "velocity": 51,
                "duration": 0.19772727272727764,
                "tempo": 120.0
            },
            {
                "start_time": 103.00227272727273,
                "end_time": 103.60454545454544,
                "pitch": 50,
                "velocity": 51,
                "duration": 0.6022727272727195,
                "tempo": 120.0
            },
            {
                "start_time": 103.60454545454544,
                "end_time": 104.00681818181818,
                "pitch": 50,
                "velocity": 51,
                "duration": 0.4022727272727309,
                "tempo": 120.0
            },
            {
                "start_time": 104.00681818181818,
                "end_time": 104.41136363636363,
                "pitch": 52,
                "velocity": 51,
                "duration": 0.4045454545454561,
                "tempo": 120.0
            },
            {
                "start_time": 102.80454545454545,
                "end_time": 104.41136363636363,
                "pitch": 66,
                "velocity": 51,
                "duration": 1.6068181818181841,
                "tempo": 120.0
            },
            {
                "start_time": 103.00227272727273,
                "end_time": 104.61136363636363,
                "pitch": 0,
                "velocity": 51,
                "duration": 1.6090909090909093,
                "tempo": 120.0
            },
            {
                "start_time": 104.41136363636363,
                "end_time": 104.61136363636363,
                "pitch": 55,
                "velocity": 51,
                "duration": 0.20000000000000284,
                "tempo": 120.0
            },
            {
                "start_time": 104.61136363636363,
                "end_time": 105.21818181818182,
                "pitch": 50,
                "velocity": 51,
                "duration": 0.6068181818181841,
                "tempo": 120.0
            },
            {
                "start_time": 105.21818181818182,
                "end_time": 105.625,
                "pitch": 50,
                "velocity": 51,
                "duration": 0.4068181818181813,
                "tempo": 120.0
            },
            {
                "start_time": 105.625,
                "end_time": 106.02499999999999,
                "pitch": 52,
                "velocity": 51,
                "duration": 0.3999999999999915,
                "tempo": 120.0
            },
            {
                "start_time": 104.41136363636363,
                "end_time": 106.02499999999999,
                "pitch": 66,
                "velocity": 51,
                "duration": 1.6136363636363598,
                "tempo": 120.0
            },
            {
                "start_time": 104.61136363636363,
                "end_time": 106.21818181818182,
                "pitch": 0,
                "velocity": 51,
                "duration": 1.6068181818181841,
                "tempo": 120.0
            },
            {
                "start_time": 106.02499999999999,
                "end_time": 106.21818181818182,
                "pitch": 55,
                "velocity": 51,
                "duration": 0.19318181818182723,
                "tempo": 120.0
            },
            {
                "start_time": 106.21818181818182,
                "end_time": 106.82272727272726,
                "pitch": 50,
                "velocity": 51,
                "duration": 0.6045454545454447,
                "tempo": 120.0
            },
            {
                "start_time": 106.82272727272726,
                "end_time": 107.22954545454544,
                "pitch": 50,
                "velocity": 51,
                "duration": 0.4068181818181813,
                "tempo": 120.0
            },
            {
                "start_time": 107.22954545454544,
                "end_time": 107.63181818181818,
                "pitch": 52,
                "velocity": 51,
                "duration": 0.4022727272727309,
                "tempo": 120.0
            },
            {
                "start_time": 106.02499999999999,
                "end_time": 107.63181818181818,
                "pitch": 66,
                "velocity": 51,
                "duration": 1.6068181818181841,
                "tempo": 120.0
            },
            {
                "start_time": 107.63181818181818,
                "end_time": 107.8340909090909,
                "pitch": 55,
                "velocity": 51,
                "duration": 0.20227272727272805,
                "tempo": 120.0
            },
            {
                "start_time": 99.85909090909091,
                "end_time": 108.43181818181817,
                "pitch": 67,
                "velocity": 51,
                "duration": 8.572727272727263,
                "tempo": 120.0
            },
            {
                "start_time": 108.43181818181817,
                "end_time": 108.53181818181818,
                "pitch": 60,
                "velocity": 64,
                "duration": 0.10000000000000853,
                "tempo": 120.0
            },
            {
                "start_time": 94.75227272727273,
                "end_time": 108.6340909090909,
                "pitch": 62,
                "velocity": 51,
                "duration": 13.881818181818176,
                "tempo": 120.0
            },
            {
                "start_time": 108.53181818181818,
                "end_time": 108.6340909090909,
                "pitch": 62,
                "velocity": 64,
                "duration": 0.10227272727271952,
                "tempo": 120.0
            },
            {
                "start_time": 100.58181818181818,
                "end_time": 109.44999999999999,
                "pitch": 64,
                "velocity": 51,
                "duration": 8.86818181818181,
                "tempo": 120.0
            },
            {
                "start_time": 108.6340909090909,
                "end_time": 109.44999999999999,
                "pitch": 64,
                "velocity": 64,
                "duration": 0.8159090909090878,
                "tempo": 120.0
            },
            {
                "start_time": 109.44999999999999,
                "end_time": 109.85,
                "pitch": 52,
                "velocity": 64,
                "duration": 0.4000000000000057,
                "tempo": 120.0
            },
            {
                "start_time": 107.63181818181818,
                "end_time": 109.85,
                "pitch": 66,
                "velocity": 51,
                "duration": 2.2181818181818187,
                "tempo": 120.0
            },
            {
                "start_time": 89.50681818181818,
                "end_time": 110.2590909090909,
                "pitch": 57,
                "velocity": 40,
                "duration": 20.752272727272725,
                "tempo": 120.0
            },
            {
                "start_time": 109.85,
                "end_time": 110.2590909090909,
                "pitch": 57,
                "velocity": 64,
                "duration": 0.4090909090909065,
                "tempo": 120.0
            },
            {
                "start_time": 81.64999999999999,
                "end_time": 110.26136363636363,
                "pitch": 31,
                "velocity": 40,
                "duration": 28.611363636363635,
                "tempo": 120.0
            },
            {
                "start_time": 108.53181818181818,
                "end_time": 110.65454545454546,
                "pitch": 60,
                "velocity": 64,
                "duration": 2.122727272727275,
                "tempo": 120.0
            },
            {
                "start_time": 110.26136363636363,
                "end_time": 110.65454545454546,
                "pitch": 60,
                "velocity": 64,
                "duration": 0.39318181818183007,
                "tempo": 120.0
            },
            {
                "start_time": 10.86590909090909,
                "end_time": 110.65454545454546,
                "pitch": 76,
                "velocity": 64,
                "duration": 99.78863636363637,
                "tempo": 120.0
            },
            {
                "start_time": 108.43181818181817,
                "end_time": 111.06590909090909,
                "pitch": 67,
                "velocity": 64,
                "duration": 2.634090909090915,
                "tempo": 120.0
            },
            {
                "start_time": 110.65454545454546,
                "end_time": 111.06590909090909,
                "pitch": 67,
                "velocity": 64,
                "duration": 0.4113636363636317,
                "tempo": 120.0
            },
            {
                "start_time": 111.65681818181818,
                "end_time": 111.75681818181818,
                "pitch": 60,
                "velocity": 64,
                "duration": 0.09999999999999432,
                "tempo": 120.0
            },
            {
                "start_time": 108.6340909090909,
                "end_time": 111.85681818181817,
                "pitch": 62,
                "velocity": 64,
                "duration": 3.222727272727269,
                "tempo": 120.0
            },
            {
                "start_time": 111.75681818181818,
                "end_time": 111.85681818181817,
                "pitch": 62,
                "velocity": 64,
                "duration": 0.09999999999999432,
                "tempo": 120.0
            },
            {
                "start_time": 111.65681818181818,
                "end_time": 112.26818181818182,
                "pitch": 64,
                "velocity": 64,
                "duration": 0.6113636363636346,
                "tempo": 120.0
            },
            {
                "start_time": 111.85681818181817,
                "end_time": 112.26818181818182,
                "pitch": 64,
                "velocity": 64,
                "duration": 0.4113636363636459,
                "tempo": 120.0
            },
            {
                "start_time": 109.85,
                "end_time": 112.27045454545454,
                "pitch": 66,
                "velocity": 64,
                "duration": 2.4204545454545467,
                "tempo": 120.0
            },
            {
                "start_time": 100.99318181818181,
                "end_time": 112.67045454545455,
                "pitch": 59,
                "velocity": 51,
                "duration": 11.677272727272737,
                "tempo": 120.0
            },
            {
                "start_time": 112.27045454545454,
                "end_time": 112.67045454545455,
                "pitch": 59,
                "velocity": 64,
                "duration": 0.4000000000000057,
                "tempo": 120.0
            },
            {
                "start_time": 112.67045454545455,
                "end_time": 113.46590909090908,
                "pitch": 57,
                "velocity": 64,
                "duration": 0.7954545454545325,
                "tempo": 120.0
            },
            {
                "start_time": 112.67045454545455,
                "end_time": 114.27045454545454,
                "pitch": 59,
                "velocity": 64,
                "duration": 1.5999999999999943,
                "tempo": 120.0
            },
            {
                "start_time": 113.46590909090908,
                "end_time": 114.27045454545454,
                "pitch": 59,
                "velocity": 64,
                "duration": 0.8045454545454618,
                "tempo": 120.0
            },
            {
                "start_time": 14.693181818181818,
                "end_time": 114.87272727272726,
                "pitch": 45,
                "velocity": 40,
                "duration": 100.17954545454545,
                "tempo": 120.0
            },
            {
                "start_time": 111.75681818181818,
                "end_time": 114.97272727272727,
                "pitch": 60,
                "velocity": 64,
                "duration": 3.2159090909090935,
                "tempo": 120.0
            },
            {
                "start_time": 114.87272727272726,
                "end_time": 114.97272727272727,
                "pitch": 60,
                "velocity": 64,
                "duration": 0.10000000000000853,
                "tempo": 120.0
            },
            {
                "start_time": 111.85681818181817,
                "end_time": 115.07272727272726,
                "pitch": 62,
                "velocity": 64,
                "duration": 3.2159090909090935,
                "tempo": 120.0
            },
            {
                "start_time": 114.97272727272727,
                "end_time": 115.07272727272726,
                "pitch": 62,
                "velocity": 64,
                "duration": 0.09999999999999432,
                "tempo": 120.0
            },
            {
                "start_time": 115.07272727272726,
                "end_time": 115.87727272727273,
                "pitch": 64,
                "velocity": 64,
                "duration": 0.8045454545454618,
                "tempo": 120.0
            },
            {
                "start_time": 115.87727272727273,
                "end_time": 116.28863636363636,
                "pitch": 52,
                "velocity": 64,
                "duration": 0.4113636363636317,
                "tempo": 120.0
            },
            {
                "start_time": 112.27045454545454,
                "end_time": 116.28863636363636,
                "pitch": 66,
                "velocity": 64,
                "duration": 4.018181818181816,
                "tempo": 120.0
            },
            {
                "start_time": 110.26136363636363,
                "end_time": 116.68863636363636,
                "pitch": 31,
                "velocity": 64,
                "duration": 6.427272727272737,
                "tempo": 120.0
            },
            {
                "start_time": 113.46590909090908,
                "end_time": 116.68863636363636,
                "pitch": 57,
                "velocity": 64,
                "duration": 3.2227272727272833,
                "tempo": 120.0
            },
            {
                "start_time": 116.28863636363636,
                "end_time": 116.68863636363636,
                "pitch": 57,
                "velocity": 64,
                "duration": 0.4000000000000057,
                "tempo": 120.0
            },
            {
                "start_time": 114.97272727272727,
                "end_time": 117.09318181818182,
                "pitch": 60,
                "velocity": 64,
                "duration": 2.1204545454545496,
                "tempo": 120.0
            },
            {
                "start_time": 116.68863636363636,
                "end_time": 117.09318181818182,
                "pitch": 60,
                "velocity": 64,
                "duration": 0.4045454545454561,
                "tempo": 120.0
            },
            {
                "start_time": 110.65454545454546,
                "end_time": 117.09318181818182,
                "pitch": 76,
                "velocity": 64,
                "duration": 6.438636363636363,
                "tempo": 120.0
            },
            {
                "start_time": 117.09318181818182,
                "end_time": 117.50454545454545,
                "pitch": 67,
                "velocity": 64,
                "duration": 0.4113636363636317,
                "tempo": 120.0
            },
            {
                "start_time": 118.09772727272727,
                "end_time": 118.19772727272726,
                "pitch": 60,
                "velocity": 64,
                "duration": 0.09999999999999432,
                "tempo": 120.0
            },
            {
                "start_time": 115.07272727272726,
                "end_time": 118.3,
                "pitch": 62,
                "velocity": 64,
                "duration": 3.2272727272727337,
                "tempo": 120.0
            },
            {
                "start_time": 118.19772727272726,
                "end_time": 118.3,
                "pitch": 62,
                "velocity": 64,
                "duration": 0.10227272727273373,
                "tempo": 120.0
            },
            {
                "start_time": 118.09772727272727,
                "end_time": 118.69999999999999,
                "pitch": 64,
                "velocity": 64,
                "duration": 0.6022727272727195,
                "tempo": 120.0
            },
            {
                "start_time": 118.3,
                "end_time": 118.69999999999999,
                "pitch": 64,
                "velocity": 64,
                "duration": 0.3999999999999915,
                "tempo": 120.0
            },
            {
                "start_time": 116.28863636363636,
                "end_time": 118.69999999999999,
                "pitch": 66,
                "velocity": 64,
                "duration": 2.4113636363636317,
                "tempo": 120.0
            },
            {
                "start_time": 12.888636363636364,
                "end_time": 119.11136363636363,
                "pitch": 32,
                "velocity": 64,
                "duration": 106.22272727272727,
                "tempo": 120.0
            },
            {
                "start_time": 118.69999999999999,
                "end_time": 119.11136363636363,
                "pitch": 59,
                "velocity": 64,
                "duration": 0.4113636363636459,
                "tempo": 120.0
            },
            {
                "start_time": 119.11136363636363,
                "end_time": 119.70681818181818,
                "pitch": 53,
                "velocity": 64,
                "duration": 0.5954545454545439,
                "tempo": 120.0
            },
            {
                "start_time": 60.32954545454545,
                "end_time": 119.70681818181818,
                "pitch": 65,
                "velocity": 40,
                "duration": 59.377272727272725,
                "tempo": 120.0
            },
            {
                "start_time": 118.19772727272726,
                "end_time": 119.80681818181817,
                "pitch": 60,
                "velocity": 64,
                "duration": 1.6090909090909093,
                "tempo": 120.0
            },
            {
                "start_time": 119.70681818181818,
                "end_time": 119.80681818181817,
                "pitch": 60,
                "velocity": 64,
                "duration": 0.09999999999999432,
                "tempo": 120.0
            },
            {
                "start_time": 118.3,
                "end_time": 119.90681818181818,
                "pitch": 62,
                "velocity": 64,
                "duration": 1.6068181818181841,
                "tempo": 120.0
            },
            {
                "start_time": 119.80681818181817,
                "end_time": 119.90681818181818,
                "pitch": 62,
                "velocity": 64,
                "duration": 0.10000000000000853,
                "tempo": 120.0
            },
            {
                "start_time": 119.70681818181818,
                "end_time": 119.90681818181818,
                "pitch": 65,
                "velocity": 64,
                "duration": 0.20000000000000284,
                "tempo": 120.0
            },
            {
                "start_time": 119.90681818181818,
                "end_time": 120.71363636363635,
                "pitch": 59,
                "velocity": 64,
                "duration": 0.8068181818181728,
                "tempo": 120.0
            },
            {
                "start_time": 114.87272727272726,
                "end_time": 120.91136363636363,
                "pitch": 45,
                "velocity": 64,
                "duration": 6.038636363636371,
                "tempo": 120.0
            },
            {
                "start_time": 119.80681818181817,
                "end_time": 122.52499999999999,
                "pitch": 60,
                "velocity": 64,
                "duration": 2.7181818181818187,
                "tempo": 120.0
            },
            {
                "start_time": 120.91136363636363,
                "end_time": 122.52499999999999,
                "pitch": 60,
                "velocity": 40,
                "duration": 1.6136363636363598,
                "tempo": 120.0
            },
            {
                "start_time": 122.52727272727272,
                "end_time": 124.1340909090909,
                "pitch": 58,
                "velocity": 40,
                "duration": 1.6068181818181841,
                "tempo": 120.0
            },
            {
                "start_time": 124.1340909090909,
                "end_time": 126.55227272727272,
                "pitch": 58,
                "velocity": 40,
                "duration": 2.4181818181818215,
                "tempo": 120.0
            },
            {
                "start_time": 106.21818181818182,
                "end_time": 126.95681818181818,
                "pitch": 0,
                "velocity": 51,
                "duration": 20.73863636363636,
                "tempo": 120.0
            },
            {
                "start_time": 126.55227272727272,
                "end_time": 126.95681818181818,
                "pitch": 57,
                "velocity": 40,
                "duration": 0.4045454545454561,
                "tempo": 120.0
            },
            {
                "start_time": 126.95681818181818,
                "end_time": 127.35681818181817,
                "pitch": 53,
                "velocity": 40,
                "duration": 0.3999999999999915,
                "tempo": 120.0
            },
            {
                "start_time": 127.35681818181817,
                "end_time": 128.96818181818182,
                "pitch": 50,
                "velocity": 40,
                "duration": 1.6113636363636488,
                "tempo": 120.0
            },
            {
                "start_time": 128.96818181818182,
                "end_time": 130.5772727272727,
                "pitch": 52,
                "velocity": 40,
                "duration": 1.6090909090908951,
                "tempo": 120.0
            },
            {
                "start_time": 130.57954545454544,
                "end_time": 132.18863636363636,
                "pitch": 52,
                "velocity": 40,
                "duration": 1.6090909090909236,
                "tempo": 120.0
            },
            {
                "start_time": 118.69999999999999,
                "end_time": 132.18863636363636,
                "pitch": 66,
                "velocity": 64,
                "duration": 13.488636363636374,
                "tempo": 120.0
            },
            {
                "start_time": 126.95681818181818,
                "end_time": 132.82954545454544,
                "pitch": 0,
                "velocity": 40,
                "duration": 5.872727272727261,
                "tempo": 120.0
            },
            {
                "start_time": 132.18863636363636,
                "end_time": 132.82954545454544,
                "pitch": 55,
                "velocity": 40,
                "duration": 0.6409090909090764,
                "tempo": 120.0
            },
            {
                "start_time": 132.82954545454544,
                "end_time": 132.87954545454545,
                "pitch": 55,
                "velocity": 40,
                "duration": 0.05000000000001137,
                "tempo": 120.0
            },
            {
                "start_time": 132.82954545454544,
                "end_time": 132.96363636363637,
                "pitch": 0,
                "velocity": 40,
                "duration": 0.13409090909092924,
                "tempo": 120.0
            },
            {
                "start_time": 132.87954545454545,
                "end_time": 132.96363636363637,
                "pitch": 55,
                "velocity": 40,
                "duration": 0.08409090909091788,
                "tempo": 120.0
            },
            {
                "start_time": 132.96363636363637,
                "end_time": 133.0,
                "pitch": 55,
                "velocity": 40,
                "duration": 0.03636363636363171,
                "tempo": 120.0
            },
            {
                "start_time": 133.2022727272727,
                "end_time": 133.40227272727273,
                "pitch": 55,
                "velocity": 40,
                "duration": 0.20000000000001705,
                "tempo": 120.0
            },
            {
                "start_time": 133.40454545454546,
                "end_time": 133.60681818181817,
                "pitch": 55,
                "velocity": 40,
                "duration": 0.20227272727271384,
                "tempo": 120.0
            },
            {
                "start_time": 133.60681818181817,
                "end_time": 133.80454545454546,
                "pitch": 57,
                "velocity": 40,
                "duration": 0.19772727272729185,
                "tempo": 120.0
            },
            {
                "start_time": 122.52727272727272,
                "end_time": 135.42045454545453,
                "pitch": 64,
                "velocity": 40,
                "duration": 12.893181818181816,
                "tempo": 120.0
            },
            {
                "start_time": 135.42045454545453,
                "end_time": 137.02727272727273,
                "pitch": 58,
                "velocity": 40,
                "duration": 1.6068181818181984,
                "tempo": 120.0
            },
            {
                "start_time": 137.02727272727273,
                "end_time": 139.4409090909091,
                "pitch": 58,
                "velocity": 40,
                "duration": 2.413636363636357,
                "tempo": 120.0
            },
            {
                "start_time": 132.96363636363637,
                "end_time": 139.85,
                "pitch": 0,
                "velocity": 40,
                "duration": 6.886363636363626,
                "tempo": 120.0
            },
            {
                "start_time": 139.4409090909091,
                "end_time": 139.85,
                "pitch": 57,
                "velocity": 40,
                "duration": 0.4090909090909065,
                "tempo": 120.0
            },
            {
                "start_time": 127.35681818181817,
                "end_time": 140.25227272727273,
                "pitch": 53,
                "velocity": 40,
                "duration": 12.895454545454555,
                "tempo": 120.0
            },
            {
                "start_time": 139.85,
                "end_time": 140.25227272727273,
                "pitch": 53,
                "velocity": 40,
                "duration": 0.4022727272727309,
                "tempo": 120.0
            },
            {
                "start_time": 128.96818181818182,
                "end_time": 140.85681818181817,
                "pitch": 50,
                "velocity": 40,
                "duration": 11.888636363636351,
                "tempo": 120.0
            },
            {
                "start_time": 140.25227272727273,
                "end_time": 140.85681818181817,
                "pitch": 50,
                "velocity": 40,
                "duration": 0.6045454545454447,
                "tempo": 120.0
            },
            {
                "start_time": 119.90681818181818,
                "end_time": 140.85681818181817,
                "pitch": 65,
                "velocity": 64,
                "duration": 20.94999999999999,
                "tempo": 120.0
            },
            {
                "start_time": 140.85681818181817,
                "end_time": 141.0590909090909,
                "pitch": 57,
                "velocity": 40,
                "duration": 0.20227272727274226,
                "tempo": 120.0
            },
            {
                "start_time": 139.85,
                "end_time": 141.66363636363636,
                "pitch": 0,
                "velocity": 40,
                "duration": 1.8136363636363626,
                "tempo": 120.0
            },
            {
                "start_time": 141.25681818181818,
                "end_time": 141.66363636363636,
                "pitch": 57,
                "velocity": 40,
                "duration": 0.4068181818181813,
                "tempo": 120.0
            },
            {
                "start_time": 140.25227272727273,
                "end_time": 141.86590909090907,
                "pitch": 53,
                "velocity": 40,
                "duration": 1.6136363636363455,
                "tempo": 120.0
            },
            {
                "start_time": 141.66363636363636,
                "end_time": 141.86590909090907,
                "pitch": 53,
                "velocity": 40,
                "duration": 0.20227272727271384,
                "tempo": 120.0
            },
            {
                "start_time": 132.18863636363636,
                "end_time": 141.86590909090907,
                "pitch": 66,
                "velocity": 40,
                "duration": 9.677272727272708,
                "tempo": 120.0
            },
            {
                "start_time": 141.66363636363636,
                "end_time": 142.49772727272727,
                "pitch": 0,
                "velocity": 40,
                "duration": 0.8340909090909179,
                "tempo": 120.0
            },
            {
                "start_time": 141.86590909090907,
                "end_time": 142.49772727272727,
                "pitch": 55,
                "velocity": 40,
                "duration": 0.631818181818204,
                "tempo": 120.0
            },
            {
                "start_time": 142.49772727272727,
                "end_time": 142.54772727272726,
                "pitch": 55,
                "velocity": 40,
                "duration": 0.04999999999998295,
                "tempo": 120.0
            },
            {
                "start_time": 132.87954545454545,
                "end_time": 142.54772727272726,
                "pitch": 67,
                "velocity": 40,
                "duration": 9.668181818181807,
                "tempo": 120.0
            },
            {
                "start_time": 142.49772727272727,
                "end_time": 142.63181818181818,
                "pitch": 0,
                "velocity": 40,
                "duration": 0.13409090909090082,
                "tempo": 120.0
            },
            {
                "start_time": 142.54772727272726,
                "end_time": 142.63181818181818,
                "pitch": 55,
                "velocity": 40,
                "duration": 0.08409090909091788,
                "tempo": 120.0
            },
            {
                "start_time": 142.63181818181818,
                "end_time": 142.6818181818182,
                "pitch": 55,
                "velocity": 40,
                "duration": 0.05000000000001137,
                "tempo": 120.0
            },
            {
                "start_time": 142.54772727272726,
                "end_time": 142.6818181818182,
                "pitch": 67,
                "velocity": 40,
                "duration": 0.13409090909092924,
                "tempo": 120.0
            },
            {
                "start_time": 142.63181818181818,
                "end_time": 142.76590909090908,
                "pitch": 0,
                "velocity": 40,
                "duration": 0.13409090909090082,
                "tempo": 120.0
            },
            {
                "start_time": 142.6818181818182,
                "end_time": 142.76590909090908,
                "pitch": 55,
                "velocity": 40,
                "duration": 0.08409090909088945,
                "tempo": 120.0
            },
            {
                "start_time": 142.76590909090908,
                "end_time": 142.8159090909091,
                "pitch": 55,
                "velocity": 40,
                "duration": 0.05000000000001137,
                "tempo": 120.0
            },
            {
                "start_time": 142.6818181818182,
                "end_time": 142.8181818181818,
                "pitch": 67,
                "velocity": 40,
                "duration": 0.13636363636362603,
                "tempo": 120.0
            },
            {
                "start_time": 142.8159090909091,
                "end_time": 142.8181818181818,
                "pitch": 67,
                "velocity": 40,
                "duration": 0.0022727272727252057,
                "tempo": 120.0
            },
            {
                "start_time": 142.76590909090908,
                "end_time": 142.9,
                "pitch": 0,
                "velocity": 40,
                "duration": 0.13409090909092924,
                "tempo": 120.0
            },
            {
                "start_time": 142.8181818181818,
                "end_time": 142.9,
                "pitch": 55,
                "velocity": 40,
                "duration": 0.08181818181819267,
                "tempo": 120.0
            },
            {
                "start_time": 142.9,
                "end_time": 142.95,
                "pitch": 55,
                "velocity": 40,
                "duration": 0.04999999999998295,
                "tempo": 120.0
            },
            {
                "start_time": 142.9,
                "end_time": 143.0340909090909,
                "pitch": 0,
                "velocity": 40,
                "duration": 0.13409090909090082,
                "tempo": 120.0
            },
            {
                "start_time": 142.95,
                "end_time": 143.0340909090909,
                "pitch": 55,
                "velocity": 40,
                "duration": 0.08409090909091788,
                "tempo": 120.0
            },
            {
                "start_time": 143.0340909090909,
                "end_time": 143.0840909090909,
                "pitch": 55,
                "velocity": 40,
                "duration": 0.04999999999998295,
                "tempo": 120.0
            },
            {
                "start_time": 142.95,
                "end_time": 143.0840909090909,
                "pitch": 67,
                "velocity": 40,
                "duration": 0.13409090909090082,
                "tempo": 120.0
            },
            {
                "start_time": 143.0840909090909,
                "end_time": 143.1681818181818,
                "pitch": 55,
                "velocity": 40,
                "duration": 0.08409090909091788,
                "tempo": 120.0
            },
            {
                "start_time": 143.0340909090909,
                "end_time": 143.17045454545453,
                "pitch": 0,
                "velocity": 40,
                "duration": 0.13636363636362603,
                "tempo": 120.0
            },
            {
                "start_time": 143.1681818181818,
                "end_time": 143.17045454545453,
                "pitch": 0,
                "velocity": 40,
                "duration": 0.0022727272727252057,
                "tempo": 120.0
            },
            {
                "start_time": 143.17045454545453,
                "end_time": 143.21818181818182,
                "pitch": 55,
                "velocity": 40,
                "duration": 0.04772727272728616,
                "tempo": 120.0
            },
            {
                "start_time": 143.0840909090909,
                "end_time": 143.21818181818182,
                "pitch": 67,
                "velocity": 40,
                "duration": 0.13409090909092924,
                "tempo": 120.0
            },
            {
                "start_time": 143.21818181818182,
                "end_time": 143.29999999999998,
                "pitch": 55,
                "velocity": 40,
                "duration": 0.08181818181816425,
                "tempo": 120.0
            },
            {
                "start_time": 143.29999999999998,
                "end_time": 143.35227272727272,
                "pitch": 55,
                "velocity": 40,
                "duration": 0.052272727272736574,
                "tempo": 120.0
            },
            {
                "start_time": 143.21818181818182,
                "end_time": 143.35227272727272,
                "pitch": 67,
                "velocity": 40,
                "duration": 0.13409090909090082,
                "tempo": 120.0
            },
            {
                "start_time": 143.29999999999998,
                "end_time": 143.43636363636364,
                "pitch": 0,
                "velocity": 40,
                "duration": 0.13636363636365445,
                "tempo": 120.0
            },
            {
                "start_time": 143.35227272727272,
                "end_time": 143.43636363636364,
                "pitch": 55,
                "velocity": 40,
                "duration": 0.08409090909091788,
                "tempo": 120.0
            },
            {
                "start_time": 143.43636363636364,
                "end_time": 143.47045454545454,
                "pitch": 55,
                "velocity": 40,
                "duration": 0.03409090909090651,
                "tempo": 120.0
            },
            {
                "start_time": 85.47727272727272,
                "end_time": 145.08181818181816,
                "pitch": 48,
                "velocity": 40,
                "duration": 59.604545454545445,
                "tempo": 120.0
            },
            {
                "start_time": 143.47045454545454,
                "end_time": 145.08181818181816,
                "pitch": 48,
                "velocity": 40,
                "duration": 1.6113636363636203,
                "tempo": 120.0
            },
            {
                "start_time": 145.08181818181816,
                "end_time": 146.69545454545454,
                "pitch": 47,
                "velocity": 40,
                "duration": 1.613636363636374,
                "tempo": 120.0
            },
            {
                "start_time": 146.69545454545454,
                "end_time": 148.31363636363636,
                "pitch": 59,
                "velocity": 40,
                "duration": 1.6181818181818244,
                "tempo": 120.0
            },
            {
                "start_time": 135.42045454545453,
                "end_time": 148.31363636363636,
                "pitch": 64,
                "velocity": 40,
                "duration": 12.89318181818183,
                "tempo": 120.0
            },
            {
                "start_time": 148.31363636363636,
                "end_time": 149.92499999999998,
                "pitch": 58,
                "velocity": 40,
                "duration": 1.6113636363636203,
                "tempo": 120.0
            },
            {
                "start_time": 149.92499999999998,
                "end_time": 152.33863636363637,
                "pitch": 58,
                "velocity": 40,
                "duration": 2.4136363636363853,
                "tempo": 120.0
            },
            {
                "start_time": 143.43636363636364,
                "end_time": 152.74090909090907,
                "pitch": 0,
                "velocity": 40,
                "duration": 9.304545454545433,
                "tempo": 120.0
            },
            {
                "start_time": 152.33863636363637,
                "end_time": 152.74090909090907,
                "pitch": 57,
                "velocity": 40,
                "duration": 0.40227272727270247,
                "tempo": 120.0
            },
            {
                "start_time": 152.74090909090907,
                "end_time": 153.14090909090908,
                "pitch": 53,
                "velocity": 40,
                "duration": 0.4000000000000057,
                "tempo": 120.0
            },
            {
                "start_time": 153.14090909090908,
                "end_time": 154.75227272727273,
                "pitch": 50,
                "velocity": 40,
                "duration": 1.6113636363636488,
                "tempo": 120.0
            },
            {
                "start_time": 154.75454545454545,
                "end_time": 156.36590909090907,
                "pitch": 52,
                "velocity": 40,
                "duration": 1.6113636363636203,
                "tempo": 120.0
            },
            {
                "start_time": 156.36590909090907,
                "end_time": 157.97954545454544,
                "pitch": 52,
                "velocity": 40,
                "duration": 1.613636363636374,
                "tempo": 120.0
            },
            {
                "start_time": 141.86590909090907,
                "end_time": 157.97954545454544,
                "pitch": 66,
                "velocity": 40,
                "duration": 16.113636363636374,
                "tempo": 120.0
            },
            {
                "start_time": 152.74090909090907,
                "end_time": 158.61136363636362,
                "pitch": 0,
                "velocity": 40,
                "duration": 5.87045454545455,
                "tempo": 120.0
            },
            {
                "start_time": 143.47045454545454,
                "end_time": 158.61136363636362,
                "pitch": 55,
                "velocity": 40,
                "duration": 15.140909090909076,
                "tempo": 120.0
            },
            {
                "start_time": 157.97954545454544,
                "end_time": 158.61136363636362,
                "pitch": 55,
                "velocity": 40,
                "duration": 0.6318181818181756,
                "tempo": 120.0
            },
            {
                "start_time": 158.61136363636362,
                "end_time": 158.66363636363636,
                "pitch": 55,
                "velocity": 40,
                "duration": 0.052272727272736574,
                "tempo": 120.0
            },
            {
                "start_time": 143.35227272727272,
                "end_time": 158.66363636363636,
                "pitch": 67,
                "velocity": 40,
                "duration": 15.311363636363637,
                "tempo": 120.0
            },
            {
                "start_time": 158.61136363636362,
                "end_time": 158.75,
                "pitch": 0,
                "velocity": 40,
                "duration": 0.13863636363637966,
                "tempo": 120.0
            },
            {
                "start_time": 158.66363636363636,
                "end_time": 158.75,
                "pitch": 55,
                "velocity": 40,
                "duration": 0.08636363636364308,
                "tempo": 120.0
            },
            {
                "start_time": 158.75,
                "end_time": 158.7840909090909,
                "pitch": 55,
                "velocity": 40,
                "duration": 0.03409090909090651,
                "tempo": 120.0
            },
            {
                "start_time": 158.99090909090907,
                "end_time": 159.1909090909091,
                "pitch": 55,
                "velocity": 40,
                "duration": 0.20000000000001705,
                "tempo": 120.0
            },
            {
                "start_time": 159.1909090909091,
                "end_time": 159.3931818181818,
                "pitch": 55,
                "velocity": 40,
                "duration": 0.20227272727271384,
                "tempo": 120.0
            },
            {
                "start_time": 159.3931818181818,
                "end_time": 159.59318181818182,
                "pitch": 57,
                "velocity": 40,
                "duration": 0.20000000000001705,
                "tempo": 120.0
            },
            {
                "start_time": 148.31363636363636,
                "end_time": 161.2022727272727,
                "pitch": 64,
                "velocity": 40,
                "duration": 12.888636363636351,
                "tempo": 120.0
            },
            {
                "start_time": 161.2022727272727,
                "end_time": 162.81363636363636,
                "pitch": 58,
                "velocity": 40,
                "duration": 1.6113636363636488,
                "tempo": 120.0
            },
            {
                "start_time": 162.81363636363636,
                "end_time": 165.22954545454544,
                "pitch": 58,
                "velocity": 40,
                "duration": 2.415909090909082,
                "tempo": 120.0
            },
            {
                "start_time": 158.75,
                "end_time": 165.63181818181818,
                "pitch": 0,
                "velocity": 40,
                "duration": 6.881818181818176,
                "tempo": 120.0
            },
            {
                "start_time": 165.22954545454544,
                "end_time": 165.63181818181818,
                "pitch": 57,
                "velocity": 40,
                "duration": 0.4022727272727309,
                "tempo": 120.0
            },
            {
                "start_time": 153.14090909090908,
                "end_time": 166.0340909090909,
                "pitch": 53,
                "velocity": 40,
                "duration": 12.89318181818183,
                "tempo": 120.0
            },
            {
                "start_time": 165.63181818181818,
                "end_time": 166.0340909090909,
                "pitch": 53,
                "velocity": 40,
                "duration": 0.4022727272727309,
                "tempo": 120.0
            },
            {
                "start_time": 154.75454545454545,
                "end_time": 166.63863636363635,
                "pitch": 50,
                "velocity": 40,
                "duration": 11.8840909090909,
                "tempo": 120.0
            },
            {
                "start_time": 166.0340909090909,
                "end_time": 166.63863636363635,
                "pitch": 50,
                "velocity": 40,
                "duration": 0.6045454545454447,
                "tempo": 120.0
            },
            {
                "start_time": 140.85681818181817,
                "end_time": 166.63863636363635,
                "pitch": 65,
                "velocity": 40,
                "duration": 25.78181818181818,
                "tempo": 120.0
            },
            {
                "start_time": 166.63863636363635,
                "end_time": 166.8409090909091,
                "pitch": 57,
                "velocity": 40,
                "duration": 0.20227272727274226,
                "tempo": 120.0
            },
            {
                "start_time": 167.0431818181818,
                "end_time": 167.4431818181818,
                "pitch": 57,
                "velocity": 40,
                "duration": 0.4000000000000057,
                "tempo": 120.0
            },
            {
                "start_time": 165.63181818181818,
                "end_time": 167.44545454545454,
                "pitch": 0,
                "velocity": 40,
                "duration": 1.8136363636363626,
                "tempo": 120.0
            },
            {
                "start_time": 166.0340909090909,
                "end_time": 167.64772727272725,
                "pitch": 53,
                "velocity": 40,
                "duration": 1.6136363636363455,
                "tempo": 120.0
            },
            {
                "start_time": 167.44545454545454,
                "end_time": 167.64772727272725,
                "pitch": 53,
                "velocity": 40,
                "duration": 0.20227272727271384,
                "tempo": 120.0
            },
            {
                "start_time": 157.97954545454544,
                "end_time": 167.64772727272725,
                "pitch": 66,
                "velocity": 40,
                "duration": 9.668181818181807,
                "tempo": 120.0
            },
            {
                "start_time": 167.44545454545454,
                "end_time": 168.27954545454546,
                "pitch": 0,
                "velocity": 40,
                "duration": 0.8340909090909179,
                "tempo": 120.0
            },
            {
                "start_time": 167.64772727272725,
                "end_time": 168.27954545454546,
                "pitch": 55,
                "velocity": 40,
                "duration": 0.631818181818204,
                "tempo": 120.0
            },
            {
                "start_time": 168.27954545454546,
                "end_time": 168.32954545454544,
                "pitch": 55,
                "velocity": 40,
                "duration": 0.04999999999998295,
                "tempo": 120.0
            },
            {
                "start_time": 158.66363636363636,
                "end_time": 168.32954545454544,
                "pitch": 67,
                "velocity": 40,
                "duration": 9.665909090909082,
                "tempo": 120.0
            },
            {
                "start_time": 168.27954545454546,
                "end_time": 168.41590909090908,
                "pitch": 0,
                "velocity": 40,
                "duration": 0.13636363636362603,
                "tempo": 120.0
            },
            {
                "start_time": 168.32954545454544,
                "end_time": 168.41590909090908,
                "pitch": 55,
                "velocity": 40,
                "duration": 0.08636363636364308,
                "tempo": 120.0
            },
            {
                "start_time": 168.41590909090908,
                "end_time": 168.46818181818182,
                "pitch": 55,
                "velocity": 40,
                "duration": 0.052272727272736574,
                "tempo": 120.0
            },
            {
                "start_time": 168.32954545454544,
                "end_time": 168.46818181818182,
                "pitch": 67,
                "velocity": 40,
                "duration": 0.13863636363637966,
                "tempo": 120.0
            },
            {
                "start_time": 168.41590909090908,
                "end_time": 168.5522727272727,
                "pitch": 0,
                "velocity": 40,
                "duration": 0.13636363636362603,
                "tempo": 120.0
            },
            {
                "start_time": 168.46818181818182,
                "end_time": 168.5522727272727,
                "pitch": 55,
                "velocity": 40,
                "duration": 0.08409090909088945,
                "tempo": 120.0
            },
            {
                "start_time": 168.5522727272727,
                "end_time": 168.60454545454544,
                "pitch": 55,
                "velocity": 40,
                "duration": 0.052272727272736574,
                "tempo": 120.0
            },
            {
                "start_time": 168.46818181818182,
                "end_time": 168.60454545454544,
                "pitch": 67,
                "velocity": 40,
                "duration": 0.13636363636362603,
                "tempo": 120.0
            },
            {
                "start_time": 168.5522727272727,
                "end_time": 168.6909090909091,
                "pitch": 0,
                "velocity": 40,
                "duration": 0.13863636363637966,
                "tempo": 120.0
            },
            {
                "start_time": 168.60454545454544,
                "end_time": 168.6909090909091,
                "pitch": 55,
                "velocity": 40,
                "duration": 0.08636363636364308,
                "tempo": 120.0
            },
            {
                "start_time": 168.6909090909091,
                "end_time": 168.74090909090907,
                "pitch": 55,
                "velocity": 40,
                "duration": 0.04999999999998295,
                "tempo": 120.0
            },
            {
                "start_time": 168.60454545454544,
                "end_time": 168.74090909090907,
                "pitch": 67,
                "velocity": 40,
                "duration": 0.13636363636362603,
                "tempo": 120.0
            },
            {
                "start_time": 168.6909090909091,
                "end_time": 168.825,
                "pitch": 0,
                "velocity": 40,
                "duration": 0.13409090909090082,
                "tempo": 120.0
            },
            {
                "start_time": 168.74090909090907,
                "end_time": 168.825,
                "pitch": 55,
                "velocity": 40,
                "duration": 0.08409090909091788,
                "tempo": 120.0
            },
            {
                "start_time": 168.825,
                "end_time": 168.875,
                "pitch": 55,
                "velocity": 40,
                "duration": 0.05000000000001137,
                "tempo": 120.0
            },
            {
                "start_time": 168.74090909090907,
                "end_time": 168.875,
                "pitch": 67,
                "velocity": 40,
                "duration": 0.13409090909092924,
                "tempo": 120.0
            },
            {
                "start_time": 168.825,
                "end_time": 168.9590909090909,
                "pitch": 0,
                "velocity": 40,
                "duration": 0.13409090909090082,
                "tempo": 120.0
            },
            {
                "start_time": 168.875,
                "end_time": 168.9590909090909,
                "pitch": 55,
                "velocity": 40,
                "duration": 0.08409090909088945,
                "tempo": 120.0
            },
            {
                "start_time": 168.9590909090909,
                "end_time": 169.0090909090909,
                "pitch": 55,
                "velocity": 40,
                "duration": 0.05000000000001137,
                "tempo": 120.0
            },
            {
                "start_time": 168.875,
                "end_time": 169.0090909090909,
                "pitch": 67,
                "velocity": 40,
                "duration": 0.13409090909090082,
                "tempo": 120.0
            },
            {
                "start_time": 168.9590909090909,
                "end_time": 169.09318181818182,
                "pitch": 0,
                "velocity": 40,
                "duration": 0.13409090909092924,
                "tempo": 120.0
            },
            {
                "start_time": 169.0090909090909,
                "end_time": 169.09318181818182,
                "pitch": 55,
                "velocity": 40,
                "duration": 0.08409090909091788,
                "tempo": 120.0
            },
            {
                "start_time": 169.09318181818182,
                "end_time": 169.14090909090908,
                "pitch": 55,
                "velocity": 40,
                "duration": 0.04772727272725774,
                "tempo": 120.0
            },
            {
                "start_time": 169.0090909090909,
                "end_time": 169.14090909090908,
                "pitch": 67,
                "velocity": 40,
                "duration": 0.13181818181817562,
                "tempo": 120.0
            },
            {
                "start_time": 169.09318181818182,
                "end_time": 169.22272727272727,
                "pitch": 0,
                "velocity": 40,
                "duration": 0.1295454545454504,
                "tempo": 120.0
            },
            {
                "start_time": 169.14090909090908,
                "end_time": 169.22272727272727,
                "pitch": 55,
                "velocity": 40,
                "duration": 0.08181818181819267,
                "tempo": 120.0
            },
            {
                "start_time": 169.22272727272727,
                "end_time": 169.25681818181818,
                "pitch": 55,
                "velocity": 40,
                "duration": 0.03409090909090651,
                "tempo": 120.0
            },
            {
                "start_time": 169.25681818181818,
                "end_time": 169.2590909090909,
                "pitch": 55,
                "velocity": 40,
                "duration": 0.0022727272727252057,
                "tempo": 120.0
            },
            {
                "start_time": 169.2590909090909,
                "end_time": 170.86590909090907,
                "pitch": 48,
                "velocity": 40,
                "duration": 1.60681818181817,
                "tempo": 120.0
            },
            {
                "start_time": 170.8681818181818,
                "end_time": 172.48181818181817,
                "pitch": 47,
                "velocity": 40,
                "duration": 1.613636363636374,
                "tempo": 120.0
            },
            {
                "start_time": 161.2022727272727,
                "end_time": 173.075,
                "pitch": 64,
                "velocity": 40,
                "duration": 11.872727272727275,
                "tempo": 120.0
            },
            {
                "start_time": 173.075,
                "end_time": 173.27954545454546,
                "pitch": 56,
                "velocity": 40,
                "duration": 0.20454545454546746,
                "tempo": 120.0
            },
            {
                "start_time": 116.68863636363636,
                "end_time": 173.48636363636362,
                "pitch": 31,
                "velocity": 64,
                "duration": 56.79772727272726,
                "tempo": 120.0
            },
            {
                "start_time": 173.27954545454546,
                "end_time": 173.48636363636362,
                "pitch": 56,
                "velocity": 40,
                "duration": 0.20681818181816425,
                "tempo": 120.0
            },
            {
                "start_time": 173.48636363636362,
                "end_time": 174.08863636363637,
                "pitch": 60,
                "velocity": 40,
                "duration": 0.6022727272727479,
                "tempo": 120.0
            },
            {
                "start_time": 173.075,
                "end_time": 174.6818181818182,
                "pitch": 64,
                "velocity": 40,
                "duration": 1.6068181818181984,
                "tempo": 120.0
            },
            {
                "start_time": 174.6818181818182,
                "end_time": 174.88863636363635,
                "pitch": 56,
                "velocity": 40,
                "duration": 0.20681818181816425,
                "tempo": 120.0
            },
            {
                "start_time": 173.48636363636362,
                "end_time": 175.09318181818182,
                "pitch": 31,
                "velocity": 40,
                "duration": 1.6068181818181984,
                "tempo": 120.0
            },
            {
                "start_time": 174.88863636363635,
                "end_time": 175.09318181818182,
                "pitch": 56,
                "velocity": 40,
                "duration": 0.20454545454546746,
                "tempo": 120.0
            },
            {
                "start_time": 175.09318181818182,
                "end_time": 175.69772727272726,
                "pitch": 60,
                "velocity": 40,
                "duration": 0.6045454545454447,
                "tempo": 120.0
            },
            {
                "start_time": 174.6818181818182,
                "end_time": 179.5181818181818,
                "pitch": 64,
                "velocity": 40,
                "duration": 4.836363636363615,
                "tempo": 120.0
            },
            {
                "start_time": 179.5181818181818,
                "end_time": 179.71818181818182,
                "pitch": 56,
                "velocity": 40,
                "duration": 0.20000000000001705,
                "tempo": 120.0
            },
            {
                "start_time": 179.72045454545454,
                "end_time": 179.9181818181818,
                "pitch": 56,
                "velocity": 40,
                "duration": 0.19772727272726343,
                "tempo": 120.0
            },
            {
                "start_time": 175.09318181818182,
                "end_time": 179.92045454545453,
                "pitch": 31,
                "velocity": 40,
                "duration": 4.827272727272714,
                "tempo": 120.0
            }
        ]
    }
}