{
    "track_id": "18 Ending",
    "mood": "happy",
    "instruments": {
        "Acoustic Grand Piano": [
            {
                "start_time": 33.70909090909091,
                "end_time": 33.820454545454545,
                "pitch": 74,
                "velocity": 64,
                "duration": 0.11136363636363455,
                "tempo": 120.0
            },
            {
                "start_time": 33.820454545454545,
                "end_time": 33.91590909090909,
                "pitch": 70,
                "velocity": 64,
                "duration": 0.0954545454545439,
                "tempo": 120.0
            },
            {
                "start_time": 33.918181818181814,
                "end_time": 34.03181818181818,
                "pitch": 70,
                "velocity": 64,
                "duration": 0.11363636363636687,
                "tempo": 120.0
            },
            {
                "start_time": 34.03181818181818,
                "end_time": 34.14545454545454,
                "pitch": 74,
                "velocity": 64,
                "duration": 0.11363636363635976,
                "tempo": 120.0
            },
            {
                "start_time": 34.14545454545454,
                "end_time": 34.25909090909091,
                "pitch": 70,
                "velocity": 64,
                "duration": 0.11363636363636687,
                "tempo": 120.0
            },
            {
                "start_time": 34.25909090909091,
                "end_time": 34.37272727272727,
                "pitch": 70,
                "velocity": 64,
                "duration": 0.11363636363635976,
                "tempo": 120.0
            },
            {
                "start_time": 34.37272727272727,
                "end_time": 34.48863636363636,
                "pitch": 74,
                "velocity": 64,
                "duration": 0.11590909090909207,
                "tempo": 120.0
            },
            {
                "start_time": 34.48863636363636,
                "end_time": 34.60681818181818,
                "pitch": 70,
                "velocity": 64,
                "duration": 0.11818181818181728,
                "tempo": 120.0
            },
            {
                "start_time": 34.60681818181818,
                "end_time": 34.72272727272727,
                "pitch": 70,
                "velocity": 64,
                "duration": 0.11590909090909207,
                "tempo": 120.0
            },
            {
                "start_time": 34.725,
                "end_time": 34.836363636363636,
                "pitch": 74,
                "velocity": 64,
                "duration": 0.11136363636363455,
                "tempo": 120.0
            },
            {
                "start_time": 34.836363636363636,
                "end_time": 34.934090909090905,
                "pitch": 70,
                "velocity": 64,
                "duration": 0.09772727272726911,
                "tempo": 120.0
            },
            {
                "start_time": 34.934090909090905,
                "end_time": 35.05,
                "pitch": 70,
                "velocity": 64,
                "duration": 0.11590909090909207,
                "tempo": 120.0
            },
            {
                "start_time": 35.05,
                "end_time": 35.16136363636363,
                "pitch": 74,
                "velocity": 64,
                "duration": 0.11136363636363455,
                "tempo": 120.0
            },
            {
                "start_time": 35.16136363636363,
                "end_time": 35.275,
                "pitch": 70,
                "velocity": 64,
                "duration": 0.11363636363636687,
                "tempo": 120.0
            },
            {
                "start_time": 35.275,
                "end_time": 35.39090909090909,
                "pitch": 70,
                "velocity": 64,
                "duration": 0.11590909090909207,
                "tempo": 120.0
            },
            {
                "start_time": 35.39090909090909,
                "end_time": 35.50681818181818,
                "pitch": 74,
                "velocity": 64,
                "duration": 0.11590909090909207,
                "tempo": 120.0
            },
            {
                "start_time": 35.50681818181818,
                "end_time": 35.62272727272727,
                "pitch": 70,
                "velocity": 64,
                "duration": 0.11590909090908497,
                "tempo": 120.0
            },
            {
                "start_time": 35.62272727272727,
                "end_time": 35.74090909090909,
                "pitch": 70,
                "velocity": 64,
                "duration": 0.11818181818182438,
                "tempo": 120.0
            },
            {
                "start_time": 35.74090909090909,
                "end_time": 35.85681818181818,
                "pitch": 74,
                "velocity": 64,
                "duration": 0.11590909090908497,
                "tempo": 120.0
            },
            {
                "start_time": 35.85681818181818,
                "end_time": 35.975,
                "pitch": 70,
                "velocity": 64,
                "duration": 0.11818181818182438,
                "tempo": 120.0
            },
            {
                "start_time": 35.975,
                "end_time": 36.074999999999996,
                "pitch": 70,
                "velocity": 64,
                "duration": 0.09999999999999432,
                "tempo": 120.0
            },
            {
                "start_time": 36.07727272727273,
                "end_time": 36.18863636363636,
                "pitch": 74,
                "velocity": 64,
                "duration": 0.11136363636363455,
                "tempo": 120.0
            },
            {
                "start_time": 36.18863636363636,
                "end_time": 36.30227272727272,
                "pitch": 70,
                "velocity": 64,
                "duration": 0.11363636363635976,
                "tempo": 120.0
            },
            {
                "start_time": 36.30227272727272,
                "end_time": 36.418181818181814,
                "pitch": 70,
                "velocity": 64,
                "duration": 0.11590909090909207,
                "tempo": 120.0
            },
            {
                "start_time": 36.418181818181814,
                "end_time": 36.5,
                "pitch": 88,
                "velocity": 64,
                "duration": 0.08181818181818556,
                "tempo": 120.0
            },
            {
                "start_time": 36.5,
                "end_time": 36.58409090909091,
                "pitch": 83,
                "velocity": 64,
                "duration": 0.08409090909091077,
                "tempo": 120.0
            },
            {
                "start_time": 36.58409090909091,
                "end_time": 36.684090909090905,
                "pitch": 79,
                "velocity": 64,
                "duration": 0.09999999999999432,
                "tempo": 120.0
            },
            {
                "start_time": 36.684090909090905,
                "end_time": 36.768181818181816,
                "pitch": 83,
                "velocity": 64,
                "duration": 0.08409090909091077,
                "tempo": 120.0
            },
            {
                "start_time": 36.768181818181816,
                "end_time": 36.85,
                "pitch": 79,
                "velocity": 64,
                "duration": 0.08181818181818556,
                "tempo": 120.0
            },
            {
                "start_time": 36.85227272727273,
                "end_time": 36.93636363636364,
                "pitch": 76,
                "velocity": 64,
                "duration": 0.08409090909091077,
                "tempo": 120.0
            },
            {
                "start_time": 36.93636363636364,
                "end_time": 37.018181818181816,
                "pitch": 79,
                "velocity": 64,
                "duration": 0.08181818181817846,
                "tempo": 120.0
            },
            {
                "start_time": 37.018181818181816,
                "end_time": 37.12045454545454,
                "pitch": 76,
                "velocity": 64,
                "duration": 0.10227272727272663,
                "tempo": 120.0
            },
            {
                "start_time": 37.12045454545454,
                "end_time": 37.199999999999996,
                "pitch": 71,
                "velocity": 64,
                "duration": 0.07954545454545325,
                "tempo": 120.0
            },
            {
                "start_time": 37.199999999999996,
                "end_time": 37.28181818181818,
                "pitch": 76,
                "velocity": 64,
                "duration": 0.08181818181818556,
                "tempo": 120.0
            },
            {
                "start_time": 37.28181818181818,
                "end_time": 37.361363636363635,
                "pitch": 71,
                "velocity": 64,
                "duration": 0.07954545454545325,
                "tempo": 120.0
            },
            {
                "start_time": 37.361363636363635,
                "end_time": 37.445454545454545,
                "pitch": 67,
                "velocity": 64,
                "duration": 0.08409090909091077,
                "tempo": 120.0
            },
            {
                "start_time": 37.445454545454545,
                "end_time": 37.525,
                "pitch": 71,
                "velocity": 64,
                "duration": 0.07954545454545325,
                "tempo": 120.0
            },
            {
                "start_time": 37.525,
                "end_time": 37.62272727272727,
                "pitch": 67,
                "velocity": 64,
                "duration": 0.09772727272726911,
                "tempo": 120.0
            },
            {
                "start_time": 37.62272727272727,
                "end_time": 37.70454545454545,
                "pitch": 64,
                "velocity": 64,
                "duration": 0.08181818181818556,
                "tempo": 120.0
            },
            {
                "start_time": 37.70454545454545,
                "end_time": 37.78636363636363,
                "pitch": 67,
                "velocity": 64,
                "duration": 0.08181818181817846,
                "tempo": 120.0
            },
            {
                "start_time": 37.78636363636363,
                "end_time": 37.86818181818182,
                "pitch": 64,
                "velocity": 64,
                "duration": 0.08181818181818556,
                "tempo": 120.0
            },
            {
                "start_time": 37.86818181818182,
                "end_time": 37.95227272727273,
                "pitch": 59,
                "velocity": 64,
                "duration": 0.08409090909091077,
                "tempo": 120.0
            },
            {
                "start_time": 37.95227272727273,
                "end_time": 38.03636363636363,
                "pitch": 64,
                "velocity": 64,
                "duration": 0.08409090909090366,
                "tempo": 120.0
            },
            {
                "start_time": 38.03636363636363,
                "end_time": 38.13636363636363,
                "pitch": 59,
                "velocity": 64,
                "duration": 0.10000000000000142,
                "tempo": 120.0
            },
            {
                "start_time": 38.13636363636363,
                "end_time": 38.220454545454544,
                "pitch": 55,
                "velocity": 64,
                "duration": 0.08409090909091077,
                "tempo": 120.0
            },
            {
                "start_time": 38.220454545454544,
                "end_time": 38.304545454545455,
                "pitch": 59,
                "velocity": 64,
                "duration": 0.08409090909091077,
                "tempo": 120.0
            },
            {
                "start_time": 38.304545454545455,
                "end_time": 38.38636363636363,
                "pitch": 55,
                "velocity": 64,
                "duration": 0.08181818181817846,
                "tempo": 120.0
            },
            {
                "start_time": 38.38636363636363,
                "end_time": 38.47272727272727,
                "pitch": 52,
                "velocity": 64,
                "duration": 0.08636363636363598,
                "tempo": 120.0
            },
            {
                "start_time": 38.47272727272727,
                "end_time": 38.55227272727272,
                "pitch": 55,
                "velocity": 64,
                "duration": 0.07954545454545325,
                "tempo": 120.0
            },
            {
                "start_time": 38.55227272727272,
                "end_time": 38.65,
                "pitch": 52,
                "velocity": 64,
                "duration": 0.09772727272727622,
                "tempo": 120.0
            },
            {
                "start_time": 38.65,
                "end_time": 38.72954545454545,
                "pitch": 47,
                "velocity": 64,
                "duration": 0.07954545454545325,
                "tempo": 120.0
            },
            {
                "start_time": 38.73181818181818,
                "end_time": 38.81363636363636,
                "pitch": 52,
                "velocity": 64,
                "duration": 0.08181818181818556,
                "tempo": 120.0
            },
            {
                "start_time": 38.81363636363636,
                "end_time": 38.89545454545454,
                "pitch": 47,
                "velocity": 64,
                "duration": 0.08181818181817846,
                "tempo": 120.0
            },
            {
                "start_time": 38.89545454545454,
                "end_time": 38.97954545454545,
                "pitch": 43,
                "velocity": 64,
                "duration": 0.08409090909091077,
                "tempo": 120.0
            },
            {
                "start_time": 38.97954545454545,
                "end_time": 39.06363636363636,
                "pitch": 47,
                "velocity": 64,
                "duration": 0.08409090909091077,
                "tempo": 120.0
            },
            {
                "start_time": 39.06363636363636,
                "end_time": 39.16590909090909,
                "pitch": 43,
                "velocity": 64,
                "duration": 0.10227272727272663,
                "tempo": 120.0
            },
            {
                "start_time": 39.16590909090909,
                "end_time": 39.33181818181818,
                "pitch": 81,
                "velocity": 64,
                "duration": 0.16590909090908923,
                "tempo": 120.0
            },
            {
                "start_time": 39.33181818181818,
                "end_time": 39.413636363636364,
                "pitch": 81,
                "velocity": 64,
                "duration": 0.08181818181818556,
                "tempo": 120.0
            },
            {
                "start_time": 39.413636363636364,
                "end_time": 39.49772727272727,
                "pitch": 83,
                "velocity": 64,
                "duration": 0.08409090909090366,
                "tempo": 120.0
            },
            {
                "start_time": 39.49772727272727,
                "end_time": 39.67272727272727,
                "pitch": 84,
                "velocity": 64,
                "duration": 0.17500000000000426,
                "tempo": 120.0
            },
            {
                "start_time": 39.67272727272727,
                "end_time": 39.82954545454545,
                "pitch": 77,
                "velocity": 64,
                "duration": 0.1568181818181813,
                "tempo": 120.0
            },
            {
                "start_time": 39.83181818181818,
                "end_time": 39.913636363636364,
                "pitch": 77,
                "velocity": 64,
                "duration": 0.08181818181818556,
                "tempo": 120.0
            },
            {
                "start_time": 39.913636363636364,
                "end_time": 39.99772727272727,
                "pitch": 79,
                "velocity": 64,
                "duration": 0.08409090909090366,
                "tempo": 120.0
            },
            {
                "start_time": 39.99772727272727,
                "end_time": 40.18181818181818,
                "pitch": 81,
                "velocity": 64,
                "duration": 0.1840909090909122,
                "tempo": 120.0
            },
            {
                "start_time": 40.18181818181818,
                "end_time": 40.34772727272727,
                "pitch": 74,
                "velocity": 64,
                "duration": 0.16590909090908923,
                "tempo": 120.0
            },
            {
                "start_time": 40.34772727272727,
                "end_time": 40.43181818181818,
                "pitch": 74,
                "velocity": 64,
                "duration": 0.08409090909091077,
                "tempo": 120.0
            },
            {
                "start_time": 40.43181818181818,
                "end_time": 40.518181818181816,
                "pitch": 76,
                "velocity": 64,
                "duration": 0.08636363636363598,
                "tempo": 120.0
            },
            {
                "start_time": 40.518181818181816,
                "end_time": 40.695454545454545,
                "pitch": 77,
                "velocity": 64,
                "duration": 0.17727272727272947,
                "tempo": 120.0
            },
            {
                "start_time": 40.695454545454545,
                "end_time": 40.85681818181818,
                "pitch": 69,
                "velocity": 64,
                "duration": 0.1613636363636317,
                "tempo": 120.0
            },
            {
                "start_time": 40.85681818181818,
                "end_time": 40.94090909090909,
                "pitch": 69,
                "velocity": 64,
                "duration": 0.08409090909091077,
                "tempo": 120.0
            },
            {
                "start_time": 40.94090909090909,
                "end_time": 41.025,
                "pitch": 71,
                "velocity": 64,
                "duration": 0.08409090909091077,
                "tempo": 120.0
            },
            {
                "start_time": 41.025,
                "end_time": 41.209090909090904,
                "pitch": 72,
                "velocity": 64,
                "duration": 0.18409090909090509,
                "tempo": 120.0
            },
            {
                "start_time": 41.209090909090904,
                "end_time": 41.375,
                "pitch": 65,
                "velocity": 64,
                "duration": 0.16590909090909634,
                "tempo": 120.0
            },
            {
                "start_time": 41.375,
                "end_time": 41.459090909090904,
                "pitch": 65,
                "velocity": 64,
                "duration": 0.08409090909090366,
                "tempo": 120.0
            },
            {
                "start_time": 41.459090909090904,
                "end_time": 41.543181818181814,
                "pitch": 67,
                "velocity": 64,
                "duration": 0.08409090909091077,
                "tempo": 120.0
            },
            {
                "start_time": 41.543181818181814,
                "end_time": 41.715909090909086,
                "pitch": 69,
                "velocity": 64,
                "duration": 0.17272727272727195,
                "tempo": 120.0
            },
            {
                "start_time": 41.715909090909086,
                "end_time": 41.877272727272725,
                "pitch": 60,
                "velocity": 64,
                "duration": 0.16136363636363882,
                "tempo": 120.0
            },
            {
                "start_time": 41.877272727272725,
                "end_time": 41.95681818181818,
                "pitch": 62,
                "velocity": 64,
                "duration": 0.07954545454545325,
                "tempo": 120.0
            },
            {
                "start_time": 41.959090909090904,
                "end_time": 42.059090909090905,
                "pitch": 67,
                "velocity": 64,
                "duration": 0.10000000000000142,
                "tempo": 120.0
            },
            {
                "start_time": 42.059090909090905,
                "end_time": 42.14090909090909,
                "pitch": 71,
                "velocity": 64,
                "duration": 0.08181818181818556,
                "tempo": 120.0
            },
            {
                "start_time": 42.14090909090909,
                "end_time": 42.22727272727273,
                "pitch": 67,
                "velocity": 64,
                "duration": 0.08636363636363598,
                "tempo": 120.0
            },
            {
                "start_time": 42.22727272727273,
                "end_time": 42.309090909090905,
                "pitch": 71,
                "velocity": 64,
                "duration": 0.08181818181817846,
                "tempo": 120.0
            },
            {
                "start_time": 42.309090909090905,
                "end_time": 42.393181818181816,
                "pitch": 74,
                "velocity": 64,
                "duration": 0.08409090909091077,
                "tempo": 120.0
            },
            {
                "start_time": 42.393181818181816,
                "end_time": 42.47727272727273,
                "pitch": 71,
                "velocity": 64,
                "duration": 0.08409090909091077,
                "tempo": 120.0
            },
            {
                "start_time": 42.47727272727273,
                "end_time": 42.57727272727273,
                "pitch": 74,
                "velocity": 64,
                "duration": 0.10000000000000142,
                "tempo": 120.0
            },
            {
                "start_time": 42.57727272727273,
                "end_time": 42.65909090909091,
                "pitch": 79,
                "velocity": 64,
                "duration": 0.08181818181817846,
                "tempo": 120.0
            },
            {
                "start_time": 42.66136363636363,
                "end_time": 42.74545454545454,
                "pitch": 74,
                "velocity": 64,
                "duration": 0.08409090909091077,
                "tempo": 120.0
            },
            {
                "start_time": 42.74545454545454,
                "end_time": 42.82727272727273,
                "pitch": 79,
                "velocity": 64,
                "duration": 0.08181818181818556,
                "tempo": 120.0
            },
            {
                "start_time": 42.82727272727273,
                "end_time": 42.91136363636363,
                "pitch": 83,
                "velocity": 64,
                "duration": 0.08409090909090366,
                "tempo": 120.0
            },
            {
                "start_time": 42.91136363636363,
                "end_time": 42.99318181818182,
                "pitch": 79,
                "velocity": 64,
                "duration": 0.08181818181818556,
                "tempo": 120.0
            },
            {
                "start_time": 42.99318181818182,
                "end_time": 43.090909090909086,
                "pitch": 83,
                "velocity": 64,
                "duration": 0.09772727272726911,
                "tempo": 120.0
            },
            {
                "start_time": 43.090909090909086,
                "end_time": 43.17045454545455,
                "pitch": 86,
                "velocity": 64,
                "duration": 0.07954545454546036,
                "tempo": 120.0
            },
            {
                "start_time": 43.17045454545455,
                "end_time": 43.25454545454545,
                "pitch": 83,
                "velocity": 64,
                "duration": 0.08409090909090366,
                "tempo": 120.0
            },
            {
                "start_time": 43.25454545454545,
                "end_time": 43.336363636363636,
                "pitch": 86,
                "velocity": 64,
                "duration": 0.08181818181818556,
                "tempo": 120.0
            },
            {
                "start_time": 43.336363636363636,
                "end_time": 43.42045454545455,
                "pitch": 91,
                "velocity": 64,
                "duration": 0.08409090909091077,
                "tempo": 120.0
            },
            {
                "start_time": 43.42045454545455,
                "end_time": 43.502272727272725,
                "pitch": 86,
                "velocity": 64,
                "duration": 0.08181818181817846,
                "tempo": 120.0
            },
            {
                "start_time": 43.50454545454545,
                "end_time": 43.60454545454545,
                "pitch": 91,
                "velocity": 64,
                "duration": 0.10000000000000142,
                "tempo": 120.0
            },
            {
                "start_time": 43.60454545454545,
                "end_time": 43.68636363636364,
                "pitch": 95,
                "velocity": 64,
                "duration": 0.08181818181818556,
                "tempo": 120.0
            },
            {
                "start_time": 43.68636363636364,
                "end_time": 43.77045454545454,
                "pitch": 91,
                "velocity": 64,
                "duration": 0.08409090909090366,
                "tempo": 120.0
            },
            {
                "start_time": 43.77272727272727,
                "end_time": 43.85454545454545,
                "pitch": 95,
                "velocity": 64,
                "duration": 0.08181818181817846,
                "tempo": 120.0
            },
            {
                "start_time": 43.85454545454545,
                "end_time": 43.93863636363636,
                "pitch": 98,
                "velocity": 64,
                "duration": 0.08409090909091077,
                "tempo": 120.0
            },
            {
                "start_time": 43.93863636363636,
                "end_time": 44.018181818181816,
                "pitch": 95,
                "velocity": 64,
                "duration": 0.07954545454545325,
                "tempo": 120.0
            },
            {
                "start_time": 44.018181818181816,
                "end_time": 44.11363636363636,
                "pitch": 98,
                "velocity": 64,
                "duration": 0.0954545454545439,
                "tempo": 120.0
            },
            {
                "start_time": 44.11363636363636,
                "end_time": 44.19090909090909,
                "pitch": 103,
                "velocity": 64,
                "duration": 0.07727272727272805,
                "tempo": 120.0
            },
            {
                "start_time": 44.19090909090909,
                "end_time": 44.27045454545454,
                "pitch": 98,
                "velocity": 64,
                "duration": 0.07954545454545325,
                "tempo": 120.0
            },
            {
                "start_time": 44.27045454545454,
                "end_time": 44.35454545454545,
                "pitch": 103,
                "velocity": 64,
                "duration": 0.08409090909091077,
                "tempo": 120.0
            },
            {
                "start_time": 44.35454545454545,
                "end_time": 44.43863636363636,
                "pitch": 107,
                "velocity": 64,
                "duration": 0.08409090909091077,
                "tempo": 120.0
            },
            {
                "start_time": 44.43863636363636,
                "end_time": 44.538636363636364,
                "pitch": 103,
                "velocity": 64,
                "duration": 0.10000000000000142,
                "tempo": 120.0
            },
            {
                "start_time": 44.538636363636364,
                "end_time": 44.625,
                "pitch": 107,
                "velocity": 64,
                "duration": 0.08636363636363598,
                "tempo": 120.0
            }
        ],
        "Flute": [
            {
                "start_time": 0.004545454545454545,
                "end_time": 2.5704545454545453,
                "pitch": 62,
                "velocity": 51,
                "duration": 2.565909090909091,
                "tempo": 120.0
            },
            {
                "start_time": 2.5704545454545453,
                "end_time": 2.7636363636363637,
                "pitch": 60,
                "velocity": 51,
                "duration": 0.19318181818181834,
                "tempo": 120.0
            },
            {
                "start_time": 2.7636363636363637,
                "end_time": 2.959090909090909,
                "pitch": 59,
                "velocity": 51,
                "duration": 0.19545454545454533,
                "tempo": 120.0
            },
            {
                "start_time": 2.959090909090909,
                "end_time": 3.1590909090909087,
                "pitch": 60,
                "velocity": 51,
                "duration": 0.19999999999999973,
                "tempo": 120.0
            },
            {
                "start_time": 3.1590909090909087,
                "end_time": 3.359090909090909,
                "pitch": 59,
                "velocity": 51,
                "duration": 0.20000000000000018,
                "tempo": 120.0
            },
            {
                "start_time": 3.359090909090909,
                "end_time": 3.7227272727272727,
                "pitch": 55,
                "velocity": 51,
                "duration": 0.36363636363636376,
                "tempo": 120.0
            },
            {
                "start_time": 3.7227272727272727,
                "end_time": 5.595454545454545,
                "pitch": 62,
                "velocity": 51,
                "duration": 1.8727272727272721,
                "tempo": 120.0
            },
            {
                "start_time": 5.595454545454545,
                "end_time": 5.786363636363636,
                "pitch": 60,
                "velocity": 51,
                "duration": 0.19090909090909136,
                "tempo": 120.0
            },
            {
                "start_time": 5.786363636363636,
                "end_time": 5.959090909090909,
                "pitch": 59,
                "velocity": 51,
                "duration": 0.17272727272727284,
                "tempo": 120.0
            },
            {
                "start_time": 5.959090909090909,
                "end_time": 8.595454545454546,
                "pitch": 58,
                "velocity": 51,
                "duration": 2.6363636363636367,
                "tempo": 120.0
            },
            {
                "start_time": 8.595454545454546,
                "end_time": 8.772727272727272,
                "pitch": 60,
                "velocity": 51,
                "duration": 0.17727272727272592,
                "tempo": 120.0
            },
            {
                "start_time": 8.772727272727272,
                "end_time": 8.952272727272726,
                "pitch": 58,
                "velocity": 51,
                "duration": 0.17954545454545467,
                "tempo": 120.0
            },
            {
                "start_time": 8.952272727272726,
                "end_time": 10.459090909090909,
                "pitch": 57,
                "velocity": 51,
                "duration": 1.5068181818181827,
                "tempo": 120.0
            },
            {
                "start_time": 10.459090909090909,
                "end_time": 11.829545454545453,
                "pitch": 54,
                "velocity": 51,
                "duration": 1.3704545454545443,
                "tempo": 120.0
            }
        ],
        "Trumpet": [
            {
                "start_time": 33.70681818181818,
                "end_time": 35.04772727272727,
                "pitch": 50,
                "velocity": 64,
                "duration": 1.3409090909090935,
                "tempo": 120.0
            },
            {
                "start_time": 35.04772727272727,
                "end_time": 36.41590909090909,
                "pitch": 50,
                "velocity": 64,
                "duration": 1.3681818181818173,
                "tempo": 120.0
            },
            {
                "start_time": 36.418181818181814,
                "end_time": 37.78636363636363,
                "pitch": 52,
                "velocity": 64,
                "duration": 1.3681818181818173,
                "tempo": 120.0
            },
            {
                "start_time": 37.78636363636363,
                "end_time": 39.163636363636364,
                "pitch": 52,
                "velocity": 64,
                "duration": 1.3772727272727323,
                "tempo": 120.0
            },
            {
                "start_time": 39.163636363636364,
                "end_time": 40.51590909090909,
                "pitch": 53,
                "velocity": 64,
                "duration": 1.3522727272727266,
                "tempo": 120.0
            },
            {
                "start_time": 40.51590909090909,
                "end_time": 41.875,
                "pitch": 53,
                "velocity": 64,
                "duration": 1.3590909090909093,
                "tempo": 120.0
            },
            {
                "start_time": 41.875,
                "end_time": 43.252272727272725,
                "pitch": 55,
                "velocity": 64,
                "duration": 1.3772727272727252,
                "tempo": 120.0
            },
            {
                "start_time": 43.252272727272725,
                "end_time": 44.62272727272727,
                "pitch": 55,
                "velocity": 64,
                "duration": 1.3704545454545425,
                "tempo": 120.0
            }
        ],
        "Electric Piano 1": [
            {
                "start_time": 11.829545454545453,
                "end_time": 12.006818181818181,
                "pitch": 43,
                "velocity": 80,
                "duration": 0.1772727272727277,
                "tempo": 120.0
            },
            {
                "start_time": 12.006818181818181,
                "end_time": 12.170454545454545,
                "pitch": 38,
                "velocity": 80,
                "duration": 0.16363636363636402,
                "tempo": 120.0
            },
            {
                "start_time": 12.170454545454545,
                "end_time": 12.354545454545454,
                "pitch": 55,
                "velocity": 80,
                "duration": 0.18409090909090864,
                "tempo": 120.0
            },
            {
                "start_time": 12.354545454545454,
                "end_time": 12.520454545454545,
                "pitch": 43,
                "velocity": 80,
                "duration": 0.165909090909091,
                "tempo": 120.0
            },
            {
                "start_time": 12.520454545454545,
                "end_time": 12.688636363636363,
                "pitch": 38,
                "velocity": 80,
                "duration": 0.168181818181818,
                "tempo": 120.0
            },
            {
                "start_time": 12.688636363636363,
                "end_time": 12.872727272727271,
                "pitch": 55,
                "velocity": 80,
                "duration": 0.18409090909090864,
                "tempo": 120.0
            },
            {
                "start_time": 12.872727272727271,
                "end_time": 13.038636363636362,
                "pitch": 43,
                "velocity": 80,
                "duration": 0.165909090909091,
                "tempo": 120.0
            },
            {
                "start_time": 13.040909090909091,
                "end_time": 13.206818181818182,
                "pitch": 38,
                "velocity": 80,
                "duration": 0.165909090909091,
                "tempo": 120.0
            },
            {
                "start_time": 13.206818181818182,
                "end_time": 13.386363636363635,
                "pitch": 43,
                "velocity": 80,
                "duration": 0.1795454545454529,
                "tempo": 120.0
            },
            {
                "start_time": 13.386363636363635,
                "end_time": 13.547727272727272,
                "pitch": 38,
                "velocity": 80,
                "duration": 0.16136363636363704,
                "tempo": 120.0
            },
            {
                "start_time": 13.547727272727272,
                "end_time": 13.71590909090909,
                "pitch": 55,
                "velocity": 80,
                "duration": 0.168181818181818,
                "tempo": 120.0
            },
            {
                "start_time": 13.71590909090909,
                "end_time": 13.899999999999999,
                "pitch": 43,
                "velocity": 80,
                "duration": 0.18409090909090864,
                "tempo": 120.0
            },
            {
                "start_time": 13.899999999999999,
                "end_time": 14.061363636363636,
                "pitch": 38,
                "velocity": 80,
                "duration": 0.16136363636363704,
                "tempo": 120.0
            },
            {
                "start_time": 14.061363636363636,
                "end_time": 14.225,
                "pitch": 55,
                "velocity": 80,
                "duration": 0.16363636363636402,
                "tempo": 120.0
            },
            {
                "start_time": 14.225,
                "end_time": 14.402272727272727,
                "pitch": 43,
                "velocity": 80,
                "duration": 0.1772727272727277,
                "tempo": 120.0
            },
            {
                "start_time": 14.402272727272727,
                "end_time": 14.56590909090909,
                "pitch": 38,
                "velocity": 80,
                "duration": 0.16363636363636225,
                "tempo": 120.0
            },
            {
                "start_time": 14.56590909090909,
                "end_time": 14.73181818181818,
                "pitch": 41,
                "velocity": 80,
                "duration": 0.165909090909091,
                "tempo": 120.0
            },
            {
                "start_time": 14.734090909090908,
                "end_time": 14.915909090909091,
                "pitch": 36,
                "velocity": 80,
                "duration": 0.18181818181818343,
                "tempo": 120.0
            },
            {
                "start_time": 14.915909090909091,
                "end_time": 15.084090909090909,
                "pitch": 53,
                "velocity": 80,
                "duration": 0.168181818181818,
                "tempo": 120.0
            },
            {
                "start_time": 15.084090909090909,
                "end_time": 15.252272727272727,
                "pitch": 41,
                "velocity": 80,
                "duration": 0.168181818181818,
                "tempo": 120.0
            },
            {
                "start_time": 15.252272727272727,
                "end_time": 15.429545454545455,
                "pitch": 36,
                "velocity": 80,
                "duration": 0.1772727272727277,
                "tempo": 120.0
            },
            {
                "start_time": 15.429545454545455,
                "end_time": 15.593181818181817,
                "pitch": 53,
                "velocity": 80,
                "duration": 0.16363636363636225,
                "tempo": 120.0
            },
            {
                "start_time": 15.593181818181817,
                "end_time": 15.754545454545454,
                "pitch": 41,
                "velocity": 80,
                "duration": 0.16136363636363704,
                "tempo": 120.0
            },
            {
                "start_time": 15.754545454545454,
                "end_time": 15.934090909090909,
                "pitch": 36,
                "velocity": 80,
                "duration": 0.17954545454545467,
                "tempo": 120.0
            },
            {
                "start_time": 15.934090909090909,
                "end_time": 16.10681818181818,
                "pitch": 41,
                "velocity": 80,
                "duration": 0.17272727272727195,
                "tempo": 120.0
            },
            {
                "start_time": 16.10681818181818,
                "end_time": 16.277272727272727,
                "pitch": 36,
                "velocity": 80,
                "duration": 0.17045454545454675,
                "tempo": 120.0
            },
            {
                "start_time": 16.279545454545453,
                "end_time": 16.452272727272728,
                "pitch": 53,
                "velocity": 80,
                "duration": 0.1727272727272755,
                "tempo": 120.0
            },
            {
                "start_time": 16.452272727272728,
                "end_time": 16.60909090909091,
                "pitch": 41,
                "velocity": 80,
                "duration": 0.1568181818181813,
                "tempo": 120.0
            },
            {
                "start_time": 16.611363636363635,
                "end_time": 16.777272727272727,
                "pitch": 36,
                "velocity": 80,
                "duration": 0.16590909090909278,
                "tempo": 120.0
            },
            {
                "start_time": 16.777272727272727,
                "end_time": 16.961363636363636,
                "pitch": 53,
                "velocity": 80,
                "duration": 0.18409090909090864,
                "tempo": 120.0
            },
            {
                "start_time": 16.961363636363636,
                "end_time": 17.129545454545454,
                "pitch": 41,
                "velocity": 80,
                "duration": 0.168181818181818,
                "tempo": 120.0
            },
            {
                "start_time": 17.129545454545454,
                "end_time": 17.311363636363634,
                "pitch": 36,
                "velocity": 80,
                "duration": 0.18181818181817988,
                "tempo": 120.0
            },
            {
                "start_time": 17.313636363636363,
                "end_time": 17.474999999999998,
                "pitch": 41,
                "velocity": 80,
                "duration": 0.16136363636363527,
                "tempo": 120.0
            },
            {
                "start_time": 17.474999999999998,
                "end_time": 17.636363636363637,
                "pitch": 36,
                "velocity": 80,
                "duration": 0.16136363636363882,
                "tempo": 120.0
            },
            {
                "start_time": 17.638636363636362,
                "end_time": 17.820454545454545,
                "pitch": 53,
                "velocity": 80,
                "duration": 0.18181818181818343,
                "tempo": 120.0
            },
            {
                "start_time": 17.820454545454545,
                "end_time": 17.988636363636363,
                "pitch": 41,
                "velocity": 80,
                "duration": 0.168181818181818,
                "tempo": 120.0
            },
            {
                "start_time": 17.988636363636363,
                "end_time": 18.15681818181818,
                "pitch": 36,
                "velocity": 80,
                "duration": 0.168181818181818,
                "tempo": 120.0
            },
            {
                "start_time": 18.15681818181818,
                "end_time": 18.33863636363636,
                "pitch": 53,
                "velocity": 80,
                "duration": 0.18181818181817988,
                "tempo": 120.0
            },
            {
                "start_time": 18.34090909090909,
                "end_time": 18.502272727272725,
                "pitch": 41,
                "velocity": 80,
                "duration": 0.16136363636363527,
                "tempo": 120.0
            },
            {
                "start_time": 18.502272727272725,
                "end_time": 18.663636363636364,
                "pitch": 36,
                "velocity": 80,
                "duration": 0.16136363636363882,
                "tempo": 120.0
            },
            {
                "start_time": 18.66590909090909,
                "end_time": 18.84318181818182,
                "pitch": 41,
                "velocity": 80,
                "duration": 0.17727272727272947,
                "tempo": 120.0
            },
            {
                "start_time": 18.84318181818182,
                "end_time": 19.00681818181818,
                "pitch": 36,
                "velocity": 80,
                "duration": 0.16363636363636047,
                "tempo": 120.0
            },
            {
                "start_time": 19.00681818181818,
                "end_time": 19.172727272727272,
                "pitch": 53,
                "velocity": 80,
                "duration": 0.16590909090909278,
                "tempo": 120.0
            },
            {
                "start_time": 19.172727272727272,
                "end_time": 19.35681818181818,
                "pitch": 41,
                "velocity": 80,
                "duration": 0.18409090909090864,
                "tempo": 120.0
            },
            {
                "start_time": 19.35681818181818,
                "end_time": 19.525,
                "pitch": 36,
                "velocity": 80,
                "duration": 0.168181818181818,
                "tempo": 120.0
            },
            {
                "start_time": 19.525,
                "end_time": 19.69090909090909,
                "pitch": 53,
                "velocity": 80,
                "duration": 0.16590909090909278,
                "tempo": 120.0
            },
            {
                "start_time": 19.69090909090909,
                "end_time": 19.86590909090909,
                "pitch": 41,
                "velocity": 80,
                "duration": 0.17499999999999716,
                "tempo": 120.0
            },
            {
                "start_time": 19.86590909090909,
                "end_time": 20.022727272727273,
                "pitch": 36,
                "velocity": 80,
                "duration": 0.15681818181818485,
                "tempo": 120.0
            },
            {
                "start_time": 20.022727272727273,
                "end_time": 20.195454545454545,
                "pitch": 43,
                "velocity": 80,
                "duration": 0.17272727272727195,
                "tempo": 120.0
            },
            {
                "start_time": 20.195454545454545,
                "end_time": 20.384090909090908,
                "pitch": 38,
                "velocity": 80,
                "duration": 0.1886363636363626,
                "tempo": 120.0
            },
            {
                "start_time": 20.384090909090908,
                "end_time": 20.552272727272726,
                "pitch": 55,
                "velocity": 80,
                "duration": 0.168181818181818,
                "tempo": 120.0
            },
            {
                "start_time": 20.552272727272726,
                "end_time": 20.71818181818182,
                "pitch": 43,
                "velocity": 80,
                "duration": 0.16590909090909278,
                "tempo": 120.0
            },
            {
                "start_time": 20.720454545454544,
                "end_time": 20.893181818181816,
                "pitch": 38,
                "velocity": 80,
                "duration": 0.17272727272727195,
                "tempo": 120.0
            },
            {
                "start_time": 20.893181818181816,
                "end_time": 21.05,
                "pitch": 55,
                "velocity": 80,
                "duration": 0.15681818181818485,
                "tempo": 120.0
            },
            {
                "start_time": 21.052272727272726,
                "end_time": 21.21818181818182,
                "pitch": 43,
                "velocity": 80,
                "duration": 0.16590909090909278,
                "tempo": 120.0
            },
            {
                "start_time": 21.21818181818182,
                "end_time": 21.402272727272727,
                "pitch": 38,
                "velocity": 80,
                "duration": 0.18409090909090864,
                "tempo": 120.0
            },
            {
                "start_time": 21.402272727272727,
                "end_time": 21.570454545454545,
                "pitch": 43,
                "velocity": 80,
                "duration": 0.168181818181818,
                "tempo": 120.0
            },
            {
                "start_time": 21.570454545454545,
                "end_time": 21.736363636363635,
                "pitch": 38,
                "velocity": 80,
                "duration": 0.16590909090908923,
                "tempo": 120.0
            },
            {
                "start_time": 21.736363636363635,
                "end_time": 21.91590909090909,
                "pitch": 55,
                "velocity": 80,
                "duration": 0.17954545454545467,
                "tempo": 120.0
            },
            {
                "start_time": 21.91590909090909,
                "end_time": 22.077272727272724,
                "pitch": 43,
                "velocity": 80,
                "duration": 0.16136363636363527,
                "tempo": 120.0
            },
            {
                "start_time": 22.079545454545453,
                "end_time": 22.261363636363637,
                "pitch": 38,
                "velocity": 80,
                "duration": 0.18181818181818343,
                "tempo": 120.0
            },
            {
                "start_time": 22.261363636363637,
                "end_time": 22.429545454545455,
                "pitch": 55,
                "velocity": 80,
                "duration": 0.168181818181818,
                "tempo": 120.0
            },
            {
                "start_time": 22.429545454545455,
                "end_time": 22.59090909090909,
                "pitch": 43,
                "velocity": 80,
                "duration": 0.16136363636363527,
                "tempo": 120.0
            },
            {
                "start_time": 22.59090909090909,
                "end_time": 22.770454545454545,
                "pitch": 38,
                "velocity": 80,
                "duration": 0.17954545454545467,
                "tempo": 120.0
            },
            {
                "start_time": 22.770454545454545,
                "end_time": 22.938636363636363,
                "pitch": 43,
                "velocity": 80,
                "duration": 0.168181818181818,
                "tempo": 120.0
            },
            {
                "start_time": 22.938636363636363,
                "end_time": 23.104545454545452,
                "pitch": 38,
                "velocity": 80,
                "duration": 0.16590909090908923,
                "tempo": 120.0
            },
            {
                "start_time": 23.104545454545452,
                "end_time": 23.284090909090907,
                "pitch": 55,
                "velocity": 80,
                "duration": 0.17954545454545467,
                "tempo": 120.0
            },
            {
                "start_time": 23.284090909090907,
                "end_time": 23.445454545454545,
                "pitch": 43,
                "velocity": 80,
                "duration": 0.16136363636363882,
                "tempo": 120.0
            },
            {
                "start_time": 23.44772727272727,
                "end_time": 23.613636363636363,
                "pitch": 38,
                "velocity": 80,
                "duration": 0.16590909090909278,
                "tempo": 120.0
            },
            {
                "start_time": 23.613636363636363,
                "end_time": 23.797727272727272,
                "pitch": 55,
                "velocity": 80,
                "duration": 0.18409090909090864,
                "tempo": 120.0
            },
            {
                "start_time": 23.797727272727272,
                "end_time": 23.96590909090909,
                "pitch": 43,
                "velocity": 80,
                "duration": 0.168181818181818,
                "tempo": 120.0
            },
            {
                "start_time": 23.96590909090909,
                "end_time": 24.13181818181818,
                "pitch": 38,
                "velocity": 80,
                "duration": 0.16590909090908923,
                "tempo": 120.0
            },
            {
                "start_time": 24.13181818181818,
                "end_time": 24.311363636363634,
                "pitch": 43,
                "velocity": 80,
                "duration": 0.17954545454545467,
                "tempo": 120.0
            },
            {
                "start_time": 24.311363636363634,
                "end_time": 24.472727272727273,
                "pitch": 38,
                "velocity": 80,
                "duration": 0.16136363636363882,
                "tempo": 120.0
            },
            {
                "start_time": 24.472727272727273,
                "end_time": 24.64090909090909,
                "pitch": 55,
                "velocity": 80,
                "duration": 0.168181818181818,
                "tempo": 120.0
            },
            {
                "start_time": 24.64090909090909,
                "end_time": 24.825,
                "pitch": 43,
                "velocity": 80,
                "duration": 0.18409090909090864,
                "tempo": 120.0
            },
            {
                "start_time": 24.825,
                "end_time": 24.986363636363635,
                "pitch": 38,
                "velocity": 80,
                "duration": 0.16136363636363527,
                "tempo": 120.0
            },
            {
                "start_time": 24.986363636363635,
                "end_time": 25.15,
                "pitch": 55,
                "velocity": 80,
                "duration": 0.16363636363636402,
                "tempo": 120.0
            },
            {
                "start_time": 25.15,
                "end_time": 25.327272727272724,
                "pitch": 43,
                "velocity": 80,
                "duration": 0.17727272727272592,
                "tempo": 120.0
            },
            {
                "start_time": 25.329545454545453,
                "end_time": 25.49090909090909,
                "pitch": 38,
                "velocity": 80,
                "duration": 0.16136363636363527,
                "tempo": 120.0
            },
            {
                "start_time": 25.49090909090909,
                "end_time": 25.659090909090907,
                "pitch": 41,
                "velocity": 80,
                "duration": 0.168181818181818,
                "tempo": 120.0
            },
            {
                "start_time": 25.659090909090907,
                "end_time": 25.84318181818182,
                "pitch": 36,
                "velocity": 80,
                "duration": 0.1840909090909122,
                "tempo": 120.0
            },
            {
                "start_time": 25.84318181818182,
                "end_time": 26.009090909090908,
                "pitch": 53,
                "velocity": 80,
                "duration": 0.16590909090908923,
                "tempo": 120.0
            },
            {
                "start_time": 26.009090909090908,
                "end_time": 26.177272727272726,
                "pitch": 41,
                "velocity": 80,
                "duration": 0.168181818181818,
                "tempo": 120.0
            },
            {
                "start_time": 26.177272727272726,
                "end_time": 26.354545454545452,
                "pitch": 36,
                "velocity": 80,
                "duration": 0.17727272727272592,
                "tempo": 120.0
            },
            {
                "start_time": 26.35681818181818,
                "end_time": 26.518181818181816,
                "pitch": 53,
                "velocity": 80,
                "duration": 0.16136363636363527,
                "tempo": 120.0
            },
            {
                "start_time": 26.518181818181816,
                "end_time": 26.679545454545455,
                "pitch": 41,
                "velocity": 80,
                "duration": 0.16136363636363882,
                "tempo": 120.0
            },
            {
                "start_time": 26.68181818181818,
                "end_time": 26.85909090909091,
                "pitch": 36,
                "velocity": 80,
                "duration": 0.17727272727272947,
                "tempo": 120.0
            },
            {
                "start_time": 26.85909090909091,
                "end_time": 27.027272727272727,
                "pitch": 41,
                "velocity": 80,
                "duration": 0.168181818181818,
                "tempo": 120.0
            },
            {
                "start_time": 27.027272727272727,
                "end_time": 27.211363636363636,
                "pitch": 36,
                "velocity": 80,
                "duration": 0.18409090909090864,
                "tempo": 120.0
            },
            {
                "start_time": 27.211363636363636,
                "end_time": 27.38181818181818,
                "pitch": 53,
                "velocity": 80,
                "duration": 0.1704545454545432,
                "tempo": 120.0
            },
            {
                "start_time": 27.384090909090908,
                "end_time": 27.554545454545455,
                "pitch": 41,
                "velocity": 80,
                "duration": 0.17045454545454675,
                "tempo": 120.0
            },
            {
                "start_time": 27.554545454545455,
                "end_time": 27.729545454545452,
                "pitch": 36,
                "velocity": 80,
                "duration": 0.17499999999999716,
                "tempo": 120.0
            },
            {
                "start_time": 27.729545454545452,
                "end_time": 27.886363636363637,
                "pitch": 53,
                "velocity": 80,
                "duration": 0.15681818181818485,
                "tempo": 120.0
            },
            {
                "start_time": 27.886363636363637,
                "end_time": 28.054545454545455,
                "pitch": 41,
                "velocity": 80,
                "duration": 0.168181818181818,
                "tempo": 120.0
            },
            {
                "start_time": 28.054545454545455,
                "end_time": 28.238636363636363,
                "pitch": 36,
                "velocity": 80,
                "duration": 0.18409090909090864,
                "tempo": 120.0
            },
            {
                "start_time": 28.238636363636363,
                "end_time": 28.404545454545453,
                "pitch": 41,
                "velocity": 80,
                "duration": 0.16590909090908923,
                "tempo": 120.0
            },
            {
                "start_time": 28.40681818181818,
                "end_time": 28.57272727272727,
                "pitch": 36,
                "velocity": 80,
                "duration": 0.16590909090908923,
                "tempo": 120.0
            },
            {
                "start_time": 28.57272727272727,
                "end_time": 28.752272727272725,
                "pitch": 53,
                "velocity": 80,
                "duration": 0.17954545454545467,
                "tempo": 120.0
            },
            {
                "start_time": 28.752272727272725,
                "end_time": 28.91363636363636,
                "pitch": 41,
                "velocity": 80,
                "duration": 0.16136363636363527,
                "tempo": 120.0
            },
            {
                "start_time": 28.91363636363636,
                "end_time": 29.081818181818182,
                "pitch": 36,
                "velocity": 80,
                "duration": 0.16818181818182154,
                "tempo": 120.0
            },
            {
                "start_time": 29.081818181818182,
                "end_time": 29.26590909090909,
                "pitch": 53,
                "velocity": 80,
                "duration": 0.18409090909090864,
                "tempo": 120.0
            },
            {
                "start_time": 29.26590909090909,
                "end_time": 29.427272727272726,
                "pitch": 41,
                "velocity": 80,
                "duration": 0.16136363636363527,
                "tempo": 120.0
            },
            {
                "start_time": 29.427272727272726,
                "end_time": 29.59090909090909,
                "pitch": 36,
                "velocity": 80,
                "duration": 0.16363636363636402,
                "tempo": 120.0
            },
            {
                "start_time": 29.59090909090909,
                "end_time": 29.768181818181816,
                "pitch": 41,
                "velocity": 80,
                "duration": 0.17727272727272592,
                "tempo": 120.0
            },
            {
                "start_time": 29.768181818181816,
                "end_time": 29.93181818181818,
                "pitch": 36,
                "velocity": 80,
                "duration": 0.16363636363636402,
                "tempo": 120.0
            },
            {
                "start_time": 29.93181818181818,
                "end_time": 30.097727272727273,
                "pitch": 53,
                "velocity": 80,
                "duration": 0.16590909090909278,
                "tempo": 120.0
            },
            {
                "start_time": 30.097727272727273,
                "end_time": 30.28181818181818,
                "pitch": 41,
                "velocity": 80,
                "duration": 0.18409090909090864,
                "tempo": 120.0
            },
            {
                "start_time": 30.28181818181818,
                "end_time": 30.45,
                "pitch": 36,
                "velocity": 80,
                "duration": 0.168181818181818,
                "tempo": 120.0
            },
            {
                "start_time": 30.45,
                "end_time": 30.61590909090909,
                "pitch": 53,
                "velocity": 80,
                "duration": 0.16590909090908923,
                "tempo": 120.0
            },
            {
                "start_time": 30.618181818181817,
                "end_time": 30.79090909090909,
                "pitch": 41,
                "velocity": 80,
                "duration": 0.17272727272727195,
                "tempo": 120.0
            },
            {
                "start_time": 30.79090909090909,
                "end_time": 30.95,
                "pitch": 36,
                "velocity": 80,
                "duration": 0.15909090909091006,
                "tempo": 120.0
            },
            {
                "start_time": 30.95,
                "end_time": 31.11590909090909,
                "pitch": 43,
                "velocity": 80,
                "duration": 0.16590909090908923,
                "tempo": 120.0
            },
            {
                "start_time": 31.11590909090909,
                "end_time": 31.299999999999997,
                "pitch": 38,
                "velocity": 80,
                "duration": 0.18409090909090864,
                "tempo": 120.0
            },
            {
                "start_time": 31.299999999999997,
                "end_time": 31.468181818181815,
                "pitch": 55,
                "velocity": 80,
                "duration": 0.168181818181818,
                "tempo": 120.0
            },
            {
                "start_time": 31.468181818181815,
                "end_time": 31.634090909090908,
                "pitch": 43,
                "velocity": 80,
                "duration": 0.16590909090909278,
                "tempo": 120.0
            },
            {
                "start_time": 31.634090909090908,
                "end_time": 31.813636363636363,
                "pitch": 38,
                "velocity": 80,
                "duration": 0.17954545454545467,
                "tempo": 120.0
            },
            {
                "start_time": 31.813636363636363,
                "end_time": 31.974999999999998,
                "pitch": 55,
                "velocity": 80,
                "duration": 0.16136363636363527,
                "tempo": 120.0
            },
            {
                "start_time": 31.977272727272727,
                "end_time": 32.15909090909091,
                "pitch": 43,
                "velocity": 80,
                "duration": 0.18181818181817988,
                "tempo": 120.0
            },
            {
                "start_time": 32.15909090909091,
                "end_time": 32.32727272727273,
                "pitch": 38,
                "velocity": 80,
                "duration": 0.16818181818182154,
                "tempo": 120.0
            },
            {
                "start_time": 32.32727272727273,
                "end_time": 32.49545454545454,
                "pitch": 43,
                "velocity": 80,
                "duration": 0.16818181818181444,
                "tempo": 120.0
            },
            {
                "start_time": 32.49545454545454,
                "end_time": 32.679545454545455,
                "pitch": 38,
                "velocity": 80,
                "duration": 0.1840909090909122,
                "tempo": 120.0
            },
            {
                "start_time": 32.679545454545455,
                "end_time": 32.845454545454544,
                "pitch": 55,
                "velocity": 80,
                "duration": 0.16590909090908923,
                "tempo": 120.0
            },
            {
                "start_time": 32.845454545454544,
                "end_time": 33.013636363636365,
                "pitch": 43,
                "velocity": 80,
                "duration": 0.16818181818182154,
                "tempo": 120.0
            },
            {
                "start_time": 33.013636363636365,
                "end_time": 33.18636363636364,
                "pitch": 38,
                "velocity": 80,
                "duration": 0.17272727272727195,
                "tempo": 120.0
            },
            {
                "start_time": 33.18636363636364,
                "end_time": 33.345454545454544,
                "pitch": 55,
                "velocity": 80,
                "duration": 0.1590909090909065,
                "tempo": 120.0
            },
            {
                "start_time": 33.345454545454544,
                "end_time": 33.51590909090909,
                "pitch": 43,
                "velocity": 80,
                "duration": 0.17045454545454675,
                "tempo": 120.0
            },
            {
                "start_time": 33.51590909090909,
                "end_time": 33.70681818181818,
                "pitch": 38,
                "velocity": 80,
                "duration": 0.1909090909090878,
                "tempo": 120.0
            }
        ],
        "Lead 2 (sawtooth)": [
            {
                "start_time": 11.829545454545453,
                "end_time": 14.56590909090909,
                "pitch": 62,
                "velocity": 80,
                "duration": 2.7363636363636363,
                "tempo": 120.0
            },
            {
                "start_time": 14.56590909090909,
                "end_time": 15.084090909090909,
                "pitch": 67,
                "velocity": 80,
                "duration": 0.5181818181818194,
                "tempo": 120.0
            },
            {
                "start_time": 15.084090909090909,
                "end_time": 15.593181818181817,
                "pitch": 65,
                "velocity": 80,
                "duration": 0.5090909090909079,
                "tempo": 120.0
            },
            {
                "start_time": 15.593181818181817,
                "end_time": 15.934090909090909,
                "pitch": 64,
                "velocity": 80,
                "duration": 0.3409090909090917,
                "tempo": 120.0
            },
            {
                "start_time": 15.934090909090909,
                "end_time": 17.313636363636363,
                "pitch": 65,
                "velocity": 80,
                "duration": 1.379545454545454,
                "tempo": 120.0
            },
            {
                "start_time": 17.313636363636363,
                "end_time": 17.82272727272727,
                "pitch": 67,
                "velocity": 80,
                "duration": 0.5090909090909079,
                "tempo": 120.0
            },
            {
                "start_time": 17.82272727272727,
                "end_time": 18.34090909090909,
                "pitch": 65,
                "velocity": 80,
                "duration": 0.5181818181818194,
                "tempo": 120.0
            },
            {
                "start_time": 18.34090909090909,
                "end_time": 18.66590909090909,
                "pitch": 64,
                "velocity": 80,
                "duration": 0.3249999999999993,
                "tempo": 120.0
            },
            {
                "start_time": 18.66590909090909,
                "end_time": 19.69090909090909,
                "pitch": 65,
                "velocity": 80,
                "duration": 1.0250000000000021,
                "tempo": 120.0
            },
            {
                "start_time": 19.693181818181817,
                "end_time": 20.022727272727273,
                "pitch": 67,
                "velocity": 80,
                "duration": 0.3295454545454568,
                "tempo": 120.0
            },
            {
                "start_time": 20.025,
                "end_time": 21.402272727272727,
                "pitch": 62,
                "velocity": 80,
                "duration": 1.3772727272727288,
                "tempo": 120.0
            },
            {
                "start_time": 21.402272727272727,
                "end_time": 21.486363636363635,
                "pitch": 107,
                "velocity": 80,
                "duration": 0.08409090909090722,
                "tempo": 120.0
            },
            {
                "start_time": 21.486363636363635,
                "end_time": 21.570454545454545,
                "pitch": 106,
                "velocity": 80,
                "duration": 0.08409090909091077,
                "tempo": 120.0
            },
            {
                "start_time": 21.570454545454545,
                "end_time": 21.652272727272727,
                "pitch": 105,
                "velocity": 80,
                "duration": 0.08181818181818201,
                "tempo": 120.0
            },
            {
                "start_time": 21.652272727272727,
                "end_time": 21.736363636363635,
                "pitch": 104,
                "velocity": 80,
                "duration": 0.08409090909090722,
                "tempo": 120.0
            },
            {
                "start_time": 21.738636363636363,
                "end_time": 21.834090909090907,
                "pitch": 103,
                "velocity": 80,
                "duration": 0.0954545454545439,
                "tempo": 120.0
            },
            {
                "start_time": 21.834090909090907,
                "end_time": 21.91590909090909,
                "pitch": 102,
                "velocity": 80,
                "duration": 0.08181818181818201,
                "tempo": 120.0
            },
            {
                "start_time": 21.91590909090909,
                "end_time": 21.995454545454546,
                "pitch": 101,
                "velocity": 80,
                "duration": 0.0795454545454568,
                "tempo": 120.0
            },
            {
                "start_time": 21.99772727272727,
                "end_time": 22.079545454545453,
                "pitch": 100,
                "velocity": 80,
                "duration": 0.08181818181818201,
                "tempo": 120.0
            },
            {
                "start_time": 22.079545454545453,
                "end_time": 22.161363636363635,
                "pitch": 99,
                "velocity": 80,
                "duration": 0.08181818181818201,
                "tempo": 120.0
            },
            {
                "start_time": 22.161363636363635,
                "end_time": 22.263636363636362,
                "pitch": 98,
                "velocity": 80,
                "duration": 0.10227272727272663,
                "tempo": 120.0
            },
            {
                "start_time": 22.263636363636362,
                "end_time": 22.345454545454544,
                "pitch": 97,
                "velocity": 80,
                "duration": 0.08181818181818201,
                "tempo": 120.0
            },
            {
                "start_time": 22.345454545454544,
                "end_time": 22.429545454545455,
                "pitch": 96,
                "velocity": 80,
                "duration": 0.08409090909091077,
                "tempo": 120.0
            },
            {
                "start_time": 22.429545454545455,
                "end_time": 22.509090909090908,
                "pitch": 95,
                "velocity": 80,
                "duration": 0.07954545454545325,
                "tempo": 120.0
            },
            {
                "start_time": 22.509090909090908,
                "end_time": 22.59318181818182,
                "pitch": 94,
                "velocity": 80,
                "duration": 0.08409090909091077,
                "tempo": 120.0
            },
            {
                "start_time": 22.59318181818182,
                "end_time": 22.672727272727272,
                "pitch": 93,
                "velocity": 80,
                "duration": 0.07954545454545325,
                "tempo": 120.0
            },
            {
                "start_time": 22.672727272727272,
                "end_time": 22.770454545454545,
                "pitch": 92,
                "velocity": 80,
                "duration": 0.09772727272727266,
                "tempo": 120.0
            },
            {
                "start_time": 22.770454545454545,
                "end_time": 25.49090909090909,
                "pitch": 62,
                "velocity": 80,
                "duration": 2.720454545454544,
                "tempo": 120.0
            },
            {
                "start_time": 25.49090909090909,
                "end_time": 26.009090909090908,
                "pitch": 67,
                "velocity": 80,
                "duration": 0.5181818181818194,
                "tempo": 120.0
            },
            {
                "start_time": 26.009090909090908,
                "end_time": 26.518181818181816,
                "pitch": 65,
                "velocity": 80,
                "duration": 0.5090909090909079,
                "tempo": 120.0
            },
            {
                "start_time": 26.518181818181816,
                "end_time": 26.85909090909091,
                "pitch": 64,
                "velocity": 80,
                "duration": 0.3409090909090935,
                "tempo": 120.0
            },
            {
                "start_time": 26.85909090909091,
                "end_time": 28.238636363636363,
                "pitch": 65,
                "velocity": 80,
                "duration": 1.379545454545454,
                "tempo": 120.0
            },
            {
                "start_time": 28.238636363636363,
                "end_time": 28.752272727272725,
                "pitch": 67,
                "velocity": 80,
                "duration": 0.5136363636363619,
                "tempo": 120.0
            },
            {
                "start_time": 28.752272727272725,
                "end_time": 29.26590909090909,
                "pitch": 65,
                "velocity": 80,
                "duration": 0.5136363636363654,
                "tempo": 120.0
            },
            {
                "start_time": 29.26590909090909,
                "end_time": 29.59090909090909,
                "pitch": 64,
                "velocity": 80,
                "duration": 0.3249999999999993,
                "tempo": 120.0
            },
            {
                "start_time": 29.59090909090909,
                "end_time": 30.618181818181817,
                "pitch": 65,
                "velocity": 80,
                "duration": 1.0272727272727273,
                "tempo": 120.0
            },
            {
                "start_time": 30.618181818181817,
                "end_time": 30.95,
                "pitch": 67,
                "velocity": 80,
                "duration": 0.331818181818182,
                "tempo": 120.0
            },
            {
                "start_time": 30.95,
                "end_time": 33.70681818181818,
                "pitch": 62,
                "velocity": 80,
                "duration": 2.756818181818179,
                "tempo": 120.0
            }
        ],
        "Oboe": [
            {
                "start_time": 0.0022727272727272726,
                "end_time": 2.5704545454545453,
                "pitch": 43,
                "velocity": 51,
                "duration": 2.568181818181818,
                "tempo": 120.0
            },
            {
                "start_time": 2.5704545454545453,
                "end_time": 2.7636363636363637,
                "pitch": 43,
                "velocity": 51,
                "duration": 0.19318181818181834,
                "tempo": 120.0
            },
            {
                "start_time": 2.7636363636363637,
                "end_time": 2.959090909090909,
                "pitch": 42,
                "velocity": 51,
                "duration": 0.19545454545454533,
                "tempo": 120.0
            },
            {
                "start_time": 2.959090909090909,
                "end_time": 5.595454545454545,
                "pitch": 41,
                "velocity": 51,
                "duration": 2.636363636363636,
                "tempo": 120.0
            },
            {
                "start_time": 5.595454545454545,
                "end_time": 5.784090909090909,
                "pitch": 41,
                "velocity": 51,
                "duration": 0.18863636363636438,
                "tempo": 120.0
            },
            {
                "start_time": 5.786363636363636,
                "end_time": 5.959090909090909,
                "pitch": 40,
                "velocity": 51,
                "duration": 0.17272727272727284,
                "tempo": 120.0
            },
            {
                "start_time": 5.959090909090909,
                "end_time": 8.952272727272726,
                "pitch": 39,
                "velocity": 51,
                "duration": 2.9931818181818173,
                "tempo": 120.0
            },
            {
                "start_time": 8.952272727272726,
                "end_time": 10.272727272727272,
                "pitch": 38,
                "velocity": 51,
                "duration": 1.3204545454545453,
                "tempo": 120.0
            },
            {
                "start_time": 10.272727272727272,
                "end_time": 10.459090909090909,
                "pitch": 33,
                "velocity": 51,
                "duration": 0.1863636363636374,
                "tempo": 120.0
            },
            {
                "start_time": 10.459090909090909,
                "end_time": 11.829545454545453,
                "pitch": 30,
                "velocity": 51,
                "duration": 1.3704545454545443,
                "tempo": 120.0
            }
        ],
        "Acoustic Guitar (nylon)": [
            {
                "start_time": 44.62045454545454,
                "end_time": 47.586363636363636,
                "pitch": 43,
                "velocity": 101,
                "duration": 2.9659090909090935,
                "tempo": 120.0
            },
            {
                "start_time": 47.58863636363636,
                "end_time": 50.599999999999994,
                "pitch": 41,
                "velocity": 101,
                "duration": 3.011363636363633,
                "tempo": 120.0
            },
            {
                "start_time": 50.599999999999994,
                "end_time": 52.08863636363636,
                "pitch": 39,
                "velocity": 101,
                "duration": 1.4886363636363669,
                "tempo": 120.0
            },
            {
                "start_time": 52.08863636363636,
                "end_time": 52.94090909090909,
                "pitch": 41,
                "velocity": 101,
                "duration": 0.8522727272727266,
                "tempo": 120.0
            },
            {
                "start_time": 52.94090909090909,
                "end_time": 53.9,
                "pitch": 41,
                "velocity": 101,
                "duration": 0.9590909090909108,
                "tempo": 120.0
            },
            {
                "start_time": 53.9,
                "end_time": 59.13636363636363,
                "pitch": 43,
                "velocity": 101,
                "duration": 5.2363636363636346,
                "tempo": 120.0
            }
        ]
    }
}