{
    "track_id": "19 Valua_s Feast",
    "mood": "happy",
    "instruments": {
        "Lead 2 (sawtooth)": [
            {
                "start_time": 40.574999999999996,
                "end_time": 41.293181818181814,
                "pitch": 60,
                "velocity": 51,
                "duration": 0.7181818181818187,
                "tempo": 120.0
            },
            {
                "start_time": 41.293181818181814,
                "end_time": 42.01136363636363,
                "pitch": 61,
                "velocity": 51,
                "duration": 0.7181818181818187,
                "tempo": 120.0
            },
            {
                "start_time": 42.01136363636363,
                "end_time": 42.709090909090904,
                "pitch": 62,
                "velocity": 51,
                "duration": 0.6977272727272705,
                "tempo": 120.0
            },
            {
                "start_time": 42.709090909090904,
                "end_time": 43.42727272727272,
                "pitch": 64,
                "velocity": 51,
                "duration": 0.7181818181818187,
                "tempo": 120.0
            }
        ],
        "Oboe": [
            {
                "start_time": 0.013636363636363636,
                "end_time": 0.07727272727272727,
                "pitch": 53,
                "velocity": 64,
                "duration": 0.06363636363636363,
                "tempo": 120.0
            },
            {
                "start_time": 0.07727272727272727,
                "end_time": 0.12727272727272726,
                "pitch": 57,
                "velocity": 64,
                "duration": 0.04999999999999999,
                "tempo": 120.0
            },
            {
                "start_time": 0.12727272727272726,
                "end_time": 1.440909090909091,
                "pitch": 53,
                "velocity": 64,
                "duration": 1.3136363636363637,
                "tempo": 120.0
            },
            {
                "start_time": 1.440909090909091,
                "end_time": 1.4886363636363635,
                "pitch": 65,
                "velocity": 64,
                "duration": 0.04772727272727262,
                "tempo": 120.0
            },
            {
                "start_time": 1.4886363636363635,
                "end_time": 1.5545454545454545,
                "pitch": 69,
                "velocity": 64,
                "duration": 0.06590909090909092,
                "tempo": 120.0
            },
            {
                "start_time": 1.5545454545454545,
                "end_time": 1.75,
                "pitch": 65,
                "velocity": 64,
                "duration": 0.19545454545454555,
                "tempo": 120.0
            },
            {
                "start_time": 1.75,
                "end_time": 1.7999999999999998,
                "pitch": 63,
                "velocity": 64,
                "duration": 0.04999999999999982,
                "tempo": 120.0
            },
            {
                "start_time": 1.7999999999999998,
                "end_time": 2.1159090909090907,
                "pitch": 60,
                "velocity": 64,
                "duration": 0.3159090909090909,
                "tempo": 120.0
            },
            {
                "start_time": 2.1159090909090907,
                "end_time": 2.165909090909091,
                "pitch": 63,
                "velocity": 64,
                "duration": 0.050000000000000266,
                "tempo": 120.0
            },
            {
                "start_time": 2.165909090909091,
                "end_time": 2.3295454545454546,
                "pitch": 65,
                "velocity": 64,
                "duration": 0.16363636363636358,
                "tempo": 120.0
            },
            {
                "start_time": 3.9295454545454542,
                "end_time": 4.286363636363636,
                "pitch": 64,
                "velocity": 40,
                "duration": 0.3568181818181819,
                "tempo": 120.0
            },
            {
                "start_time": 4.286363636363636,
                "end_time": 4.6477272727272725,
                "pitch": 65,
                "velocity": 40,
                "duration": 0.36136363636363633,
                "tempo": 120.0
            },
            {
                "start_time": 4.6477272727272725,
                "end_time": 4.7749999999999995,
                "pitch": 67,
                "velocity": 40,
                "duration": 0.12727272727272698,
                "tempo": 120.0
            },
            {
                "start_time": 4.7749999999999995,
                "end_time": 4.9386363636363635,
                "pitch": 67,
                "velocity": 40,
                "duration": 0.16363636363636402,
                "tempo": 120.0
            },
            {
                "start_time": 4.7749999999999995,
                "end_time": 4.9386363636363635,
                "pitch": 79,
                "velocity": 40,
                "duration": 0.16363636363636402,
                "tempo": 120.0
            },
            {
                "start_time": 4.9386363636363635,
                "end_time": 4.988636363636363,
                "pitch": 67,
                "velocity": 40,
                "duration": 0.04999999999999982,
                "tempo": 120.0
            },
            {
                "start_time": 4.988636363636363,
                "end_time": 5.347727272727273,
                "pitch": 65,
                "velocity": 40,
                "duration": 0.35909090909090935,
                "tempo": 120.0
            },
            {
                "start_time": 5.347727272727273,
                "end_time": 5.706818181818181,
                "pitch": 60,
                "velocity": 32,
                "duration": 0.35909090909090846,
                "tempo": 120.0
            },
            {
                "start_time": 6.7727272727272725,
                "end_time": 7.131818181818182,
                "pitch": 64,
                "velocity": 40,
                "duration": 0.35909090909090935,
                "tempo": 120.0
            },
            {
                "start_time": 7.134090909090909,
                "end_time": 7.475,
                "pitch": 65,
                "velocity": 40,
                "duration": 0.34090909090909083,
                "tempo": 120.0
            },
            {
                "start_time": 7.475,
                "end_time": 7.602272727272727,
                "pitch": 67,
                "velocity": 40,
                "duration": 0.12727272727272698,
                "tempo": 120.0
            },
            {
                "start_time": 4.9386363636363635,
                "end_time": 7.602272727272727,
                "pitch": 79,
                "velocity": 40,
                "duration": 2.663636363636363,
                "tempo": 120.0
            },
            {
                "start_time": 7.602272727272727,
                "end_time": 7.781818181818181,
                "pitch": 67,
                "velocity": 40,
                "duration": 0.17954545454545467,
                "tempo": 120.0
            },
            {
                "start_time": 7.602272727272727,
                "end_time": 7.781818181818181,
                "pitch": 79,
                "velocity": 40,
                "duration": 0.17954545454545467,
                "tempo": 120.0
            },
            {
                "start_time": 7.781818181818181,
                "end_time": 7.831818181818181,
                "pitch": 67,
                "velocity": 40,
                "duration": 0.04999999999999982,
                "tempo": 120.0
            },
            {
                "start_time": 7.831818181818181,
                "end_time": 7.881818181818182,
                "pitch": 67,
                "velocity": 40,
                "duration": 0.05000000000000071,
                "tempo": 120.0
            },
            {
                "start_time": 7.881818181818182,
                "end_time": 8.088636363636363,
                "pitch": 69,
                "velocity": 40,
                "duration": 0.20681818181818112,
                "tempo": 120.0
            },
            {
                "start_time": 8.088636363636363,
                "end_time": 8.122727272727273,
                "pitch": 72,
                "velocity": 40,
                "duration": 0.03409090909091006,
                "tempo": 120.0
            },
            {
                "start_time": 8.122727272727273,
                "end_time": 8.156818181818181,
                "pitch": 71,
                "velocity": 40,
                "duration": 0.034090909090908283,
                "tempo": 120.0
            },
            {
                "start_time": 8.088636363636363,
                "end_time": 8.156818181818181,
                "pitch": 76,
                "velocity": 40,
                "duration": 0.06818181818181834,
                "tempo": 120.0
            },
            {
                "start_time": 8.156818181818181,
                "end_time": 8.370454545454544,
                "pitch": 73,
                "velocity": 40,
                "duration": 0.21363636363636296,
                "tempo": 120.0
            },
            {
                "start_time": 8.156818181818181,
                "end_time": 8.549999999999999,
                "pitch": 76,
                "velocity": 40,
                "duration": 0.39318181818181763,
                "tempo": 120.0
            },
            {
                "start_time": 8.370454545454544,
                "end_time": 8.549999999999999,
                "pitch": 76,
                "velocity": 40,
                "duration": 0.17954545454545467,
                "tempo": 120.0
            },
            {
                "start_time": 9.620454545454544,
                "end_time": 9.972727272727273,
                "pitch": 64,
                "velocity": 40,
                "duration": 0.3522727272727284,
                "tempo": 120.0
            },
            {
                "start_time": 9.972727272727273,
                "end_time": 10.329545454545453,
                "pitch": 65,
                "velocity": 40,
                "duration": 0.3568181818181806,
                "tempo": 120.0
            },
            {
                "start_time": 10.329545454545453,
                "end_time": 10.445454545454545,
                "pitch": 67,
                "velocity": 40,
                "duration": 0.11590909090909207,
                "tempo": 120.0
            },
            {
                "start_time": 7.781818181818181,
                "end_time": 10.445454545454545,
                "pitch": 79,
                "velocity": 40,
                "duration": 2.663636363636364,
                "tempo": 120.0
            },
            {
                "start_time": 10.445454545454545,
                "end_time": 10.629545454545454,
                "pitch": 67,
                "velocity": 40,
                "duration": 0.18409090909090864,
                "tempo": 120.0
            },
            {
                "start_time": 10.445454545454545,
                "end_time": 10.629545454545454,
                "pitch": 79,
                "velocity": 40,
                "duration": 0.18409090909090864,
                "tempo": 120.0
            },
            {
                "start_time": 10.629545454545454,
                "end_time": 10.681818181818182,
                "pitch": 67,
                "velocity": 40,
                "duration": 0.05227272727272769,
                "tempo": 120.0
            },
            {
                "start_time": 10.681818181818182,
                "end_time": 11.038636363636362,
                "pitch": 65,
                "velocity": 40,
                "duration": 0.3568181818181806,
                "tempo": 120.0
            },
            {
                "start_time": 11.038636363636362,
                "end_time": 11.399999999999999,
                "pitch": 60,
                "velocity": 32,
                "duration": 0.36136363636363633,
                "tempo": 120.0
            },
            {
                "start_time": 12.459090909090909,
                "end_time": 12.818181818181818,
                "pitch": 64,
                "velocity": 40,
                "duration": 0.35909090909090935,
                "tempo": 120.0
            },
            {
                "start_time": 12.818181818181818,
                "end_time": 13.168181818181818,
                "pitch": 65,
                "velocity": 40,
                "duration": 0.34999999999999964,
                "tempo": 120.0
            },
            {
                "start_time": 13.170454545454545,
                "end_time": 13.302272727272726,
                "pitch": 67,
                "velocity": 40,
                "duration": 0.13181818181818095,
                "tempo": 120.0
            },
            {
                "start_time": 10.629545454545454,
                "end_time": 13.302272727272726,
                "pitch": 79,
                "velocity": 40,
                "duration": 2.672727272727272,
                "tempo": 120.0
            },
            {
                "start_time": 13.302272727272726,
                "end_time": 13.486363636363636,
                "pitch": 67,
                "velocity": 40,
                "duration": 0.18409090909091042,
                "tempo": 120.0
            },
            {
                "start_time": 13.302272727272726,
                "end_time": 13.486363636363636,
                "pitch": 79,
                "velocity": 40,
                "duration": 0.18409090909091042,
                "tempo": 120.0
            },
            {
                "start_time": 13.486363636363636,
                "end_time": 13.538636363636362,
                "pitch": 67,
                "velocity": 40,
                "duration": 0.052272727272725916,
                "tempo": 120.0
            },
            {
                "start_time": 13.538636363636362,
                "end_time": 13.586363636363636,
                "pitch": 67,
                "velocity": 40,
                "duration": 0.04772727272727373,
                "tempo": 120.0
            },
            {
                "start_time": 13.586363636363636,
                "end_time": 13.788636363636362,
                "pitch": 69,
                "velocity": 40,
                "duration": 0.20227272727272627,
                "tempo": 120.0
            },
            {
                "start_time": 8.122727272727273,
                "end_time": 13.820454545454545,
                "pitch": 56,
                "velocity": 40,
                "duration": 5.697727272727272,
                "tempo": 120.0
            },
            {
                "start_time": 13.788636363636362,
                "end_time": 13.820454545454545,
                "pitch": 72,
                "velocity": 40,
                "duration": 0.03181818181818308,
                "tempo": 120.0
            },
            {
                "start_time": 13.820454545454545,
                "end_time": 13.854545454545454,
                "pitch": 71,
                "velocity": 40,
                "duration": 0.034090909090908283,
                "tempo": 120.0
            },
            {
                "start_time": 13.788636363636362,
                "end_time": 13.854545454545454,
                "pitch": 76,
                "velocity": 40,
                "duration": 0.06590909090909136,
                "tempo": 120.0
            },
            {
                "start_time": 13.854545454545454,
                "end_time": 14.072727272727272,
                "pitch": 73,
                "velocity": 40,
                "duration": 0.2181818181818187,
                "tempo": 120.0
            },
            {
                "start_time": 13.854545454545454,
                "end_time": 14.259090909090908,
                "pitch": 76,
                "velocity": 40,
                "duration": 0.4045454545454543,
                "tempo": 120.0
            },
            {
                "start_time": 14.072727272727272,
                "end_time": 14.259090909090908,
                "pitch": 76,
                "velocity": 40,
                "duration": 0.18636363636363562,
                "tempo": 120.0
            },
            {
                "start_time": 15.309090909090909,
                "end_time": 15.670454545454545,
                "pitch": 64,
                "velocity": 40,
                "duration": 0.36136363636363633,
                "tempo": 120.0
            },
            {
                "start_time": 15.670454545454545,
                "end_time": 16.027272727272727,
                "pitch": 65,
                "velocity": 40,
                "duration": 0.35681818181818237,
                "tempo": 120.0
            },
            {
                "start_time": 16.027272727272727,
                "end_time": 16.145454545454545,
                "pitch": 67,
                "velocity": 40,
                "duration": 0.11818181818181728,
                "tempo": 120.0
            },
            {
                "start_time": 13.486363636363636,
                "end_time": 16.145454545454545,
                "pitch": 79,
                "velocity": 40,
                "duration": 2.6590909090909083,
                "tempo": 120.0
            },
            {
                "start_time": 16.145454545454545,
                "end_time": 16.334090909090907,
                "pitch": 67,
                "velocity": 40,
                "duration": 0.1886363636363626,
                "tempo": 120.0
            },
            {
                "start_time": 16.145454545454545,
                "end_time": 16.334090909090907,
                "pitch": 79,
                "velocity": 40,
                "duration": 0.1886363636363626,
                "tempo": 120.0
            },
            {
                "start_time": 16.334090909090907,
                "end_time": 16.388636363636362,
                "pitch": 67,
                "velocity": 40,
                "duration": 0.054545454545454675,
                "tempo": 120.0
            },
            {
                "start_time": 16.388636363636362,
                "end_time": 16.745454545454546,
                "pitch": 65,
                "velocity": 40,
                "duration": 0.35681818181818414,
                "tempo": 120.0
            },
            {
                "start_time": 16.745454545454546,
                "end_time": 17.104545454545455,
                "pitch": 60,
                "velocity": 32,
                "duration": 0.35909090909090935,
                "tempo": 120.0
            },
            {
                "start_time": 18.15681818181818,
                "end_time": 18.513636363636362,
                "pitch": 64,
                "velocity": 40,
                "duration": 0.3568181818181806,
                "tempo": 120.0
            },
            {
                "start_time": 18.51590909090909,
                "end_time": 18.875,
                "pitch": 65,
                "velocity": 40,
                "duration": 0.35909090909090935,
                "tempo": 120.0
            },
            {
                "start_time": 18.875,
                "end_time": 19.004545454545454,
                "pitch": 67,
                "velocity": 40,
                "duration": 0.12954545454545396,
                "tempo": 120.0
            },
            {
                "start_time": 16.334090909090907,
                "end_time": 19.004545454545454,
                "pitch": 79,
                "velocity": 40,
                "duration": 2.6704545454545467,
                "tempo": 120.0
            },
            {
                "start_time": 19.004545454545454,
                "end_time": 19.16590909090909,
                "pitch": 67,
                "velocity": 40,
                "duration": 0.16136363636363527,
                "tempo": 120.0
            },
            {
                "start_time": 19.004545454545454,
                "end_time": 19.16590909090909,
                "pitch": 79,
                "velocity": 40,
                "duration": 0.16136363636363527,
                "tempo": 120.0
            },
            {
                "start_time": 19.16590909090909,
                "end_time": 19.23181818181818,
                "pitch": 67,
                "velocity": 40,
                "duration": 0.06590909090909136,
                "tempo": 120.0
            },
            {
                "start_time": 19.23409090909091,
                "end_time": 19.28181818181818,
                "pitch": 67,
                "velocity": 40,
                "duration": 0.04772727272727195,
                "tempo": 120.0
            },
            {
                "start_time": 19.28181818181818,
                "end_time": 19.488636363636363,
                "pitch": 69,
                "velocity": 40,
                "duration": 0.206818181818182,
                "tempo": 120.0
            },
            {
                "start_time": 13.820454545454545,
                "end_time": 19.522727272727273,
                "pitch": 56,
                "velocity": 40,
                "duration": 5.702272727272728,
                "tempo": 120.0
            },
            {
                "start_time": 19.488636363636363,
                "end_time": 19.522727272727273,
                "pitch": 72,
                "velocity": 40,
                "duration": 0.03409090909091006,
                "tempo": 120.0
            },
            {
                "start_time": 19.522727272727273,
                "end_time": 19.55681818181818,
                "pitch": 71,
                "velocity": 40,
                "duration": 0.03409090909090651,
                "tempo": 120.0
            },
            {
                "start_time": 19.488636363636363,
                "end_time": 19.55681818181818,
                "pitch": 76,
                "velocity": 40,
                "duration": 0.06818181818181657,
                "tempo": 120.0
            },
            {
                "start_time": 19.55681818181818,
                "end_time": 19.772727272727273,
                "pitch": 73,
                "velocity": 40,
                "duration": 0.2159090909090935,
                "tempo": 120.0
            },
            {
                "start_time": 19.55681818181818,
                "end_time": 19.93409090909091,
                "pitch": 76,
                "velocity": 40,
                "duration": 0.37727272727272876,
                "tempo": 120.0
            },
            {
                "start_time": 19.772727272727273,
                "end_time": 19.93409090909091,
                "pitch": 76,
                "velocity": 40,
                "duration": 0.16136363636363527,
                "tempo": 120.0
            },
            {
                "start_time": 21.013636363636362,
                "end_time": 21.363636363636363,
                "pitch": 64,
                "velocity": 40,
                "duration": 0.3500000000000014,
                "tempo": 120.0
            },
            {
                "start_time": 21.36590909090909,
                "end_time": 21.722727272727273,
                "pitch": 65,
                "velocity": 40,
                "duration": 0.35681818181818414,
                "tempo": 120.0
            },
            {
                "start_time": 21.722727272727273,
                "end_time": 21.84090909090909,
                "pitch": 67,
                "velocity": 40,
                "duration": 0.11818181818181728,
                "tempo": 120.0
            },
            {
                "start_time": 19.16590909090909,
                "end_time": 21.84090909090909,
                "pitch": 79,
                "velocity": 40,
                "duration": 2.6750000000000007,
                "tempo": 120.0
            },
            {
                "start_time": 21.84090909090909,
                "end_time": 22.029545454545453,
                "pitch": 67,
                "velocity": 40,
                "duration": 0.1886363636363626,
                "tempo": 120.0
            },
            {
                "start_time": 21.84090909090909,
                "end_time": 22.029545454545453,
                "pitch": 79,
                "velocity": 40,
                "duration": 0.1886363636363626,
                "tempo": 120.0
            },
            {
                "start_time": 22.029545454545453,
                "end_time": 22.081818181818182,
                "pitch": 67,
                "velocity": 40,
                "duration": 0.05227272727272947,
                "tempo": 120.0
            },
            {
                "start_time": 22.084090909090907,
                "end_time": 22.424999999999997,
                "pitch": 65,
                "velocity": 40,
                "duration": 0.34090909090908994,
                "tempo": 120.0
            },
            {
                "start_time": 22.424999999999997,
                "end_time": 22.78181818181818,
                "pitch": 60,
                "velocity": 32,
                "duration": 0.35681818181818414,
                "tempo": 120.0
            },
            {
                "start_time": 23.852272727272727,
                "end_time": 24.220454545454544,
                "pitch": 64,
                "velocity": 40,
                "duration": 0.3681818181818173,
                "tempo": 120.0
            },
            {
                "start_time": 24.220454545454544,
                "end_time": 24.57272727272727,
                "pitch": 65,
                "velocity": 40,
                "duration": 0.3522727272727266,
                "tempo": 120.0
            },
            {
                "start_time": 24.57272727272727,
                "end_time": 24.7,
                "pitch": 67,
                "velocity": 40,
                "duration": 0.12727272727272876,
                "tempo": 120.0
            },
            {
                "start_time": 22.029545454545453,
                "end_time": 24.7,
                "pitch": 79,
                "velocity": 40,
                "duration": 2.6704545454545467,
                "tempo": 120.0
            },
            {
                "start_time": 24.7,
                "end_time": 24.863636363636363,
                "pitch": 67,
                "velocity": 40,
                "duration": 0.16363636363636402,
                "tempo": 120.0
            },
            {
                "start_time": 24.7,
                "end_time": 24.863636363636363,
                "pitch": 79,
                "velocity": 40,
                "duration": 0.16363636363636402,
                "tempo": 120.0
            },
            {
                "start_time": 24.863636363636363,
                "end_time": 24.913636363636364,
                "pitch": 67,
                "velocity": 40,
                "duration": 0.05000000000000071,
                "tempo": 120.0
            },
            {
                "start_time": 24.913636363636364,
                "end_time": 24.977272727272727,
                "pitch": 67,
                "velocity": 40,
                "duration": 0.0636363636363626,
                "tempo": 120.0
            },
            {
                "start_time": 24.977272727272727,
                "end_time": 25.15681818181818,
                "pitch": 69,
                "velocity": 40,
                "duration": 0.17954545454545467,
                "tempo": 120.0
            },
            {
                "start_time": 19.522727272727273,
                "end_time": 25.204545454545453,
                "pitch": 56,
                "velocity": 40,
                "duration": 5.68181818181818,
                "tempo": 120.0
            },
            {
                "start_time": 25.15681818181818,
                "end_time": 25.204545454545453,
                "pitch": 72,
                "velocity": 40,
                "duration": 0.04772727272727195,
                "tempo": 120.0
            },
            {
                "start_time": 25.204545454545453,
                "end_time": 25.238636363636363,
                "pitch": 71,
                "velocity": 40,
                "duration": 0.03409090909091006,
                "tempo": 120.0
            },
            {
                "start_time": 25.15681818181818,
                "end_time": 25.238636363636363,
                "pitch": 76,
                "velocity": 40,
                "duration": 0.08181818181818201,
                "tempo": 120.0
            },
            {
                "start_time": 25.238636363636363,
                "end_time": 25.459090909090907,
                "pitch": 73,
                "velocity": 40,
                "duration": 0.2204545454545439,
                "tempo": 120.0
            },
            {
                "start_time": 25.238636363636363,
                "end_time": 25.63181818181818,
                "pitch": 76,
                "velocity": 40,
                "duration": 0.39318181818181586,
                "tempo": 120.0
            },
            {
                "start_time": 25.459090909090907,
                "end_time": 25.63181818181818,
                "pitch": 76,
                "velocity": 40,
                "duration": 0.17272727272727195,
                "tempo": 120.0
            },
            {
                "start_time": 25.63181818181818,
                "end_time": 25.711363636363636,
                "pitch": 67,
                "velocity": 51,
                "duration": 0.0795454545454568,
                "tempo": 120.0
            },
            {
                "start_time": 25.80909090909091,
                "end_time": 25.875,
                "pitch": 69,
                "velocity": 51,
                "duration": 0.06590909090909136,
                "tempo": 120.0
            },
            {
                "start_time": 25.988636363636363,
                "end_time": 26.05681818181818,
                "pitch": 68,
                "velocity": 51,
                "duration": 0.06818181818181657,
                "tempo": 120.0
            },
            {
                "start_time": 26.159090909090907,
                "end_time": 26.245454545454542,
                "pitch": 70,
                "velocity": 51,
                "duration": 0.08636363636363598,
                "tempo": 120.0
            },
            {
                "start_time": 26.349999999999998,
                "end_time": 26.413636363636364,
                "pitch": 69,
                "velocity": 51,
                "duration": 0.06363636363636616,
                "tempo": 120.0
            },
            {
                "start_time": 26.527272727272727,
                "end_time": 26.593181818181815,
                "pitch": 71,
                "velocity": 51,
                "duration": 0.06590909090908781,
                "tempo": 120.0
            },
            {
                "start_time": 26.706818181818182,
                "end_time": 26.775,
                "pitch": 70,
                "velocity": 51,
                "duration": 0.06818181818181657,
                "tempo": 120.0
            },
            {
                "start_time": 26.879545454545454,
                "end_time": 26.96363636363636,
                "pitch": 72,
                "velocity": 51,
                "duration": 0.08409090909090722,
                "tempo": 120.0
            },
            {
                "start_time": 27.068181818181817,
                "end_time": 27.13181818181818,
                "pitch": 71,
                "velocity": 51,
                "duration": 0.0636363636363626,
                "tempo": 120.0
            },
            {
                "start_time": 27.24772727272727,
                "end_time": 27.311363636363634,
                "pitch": 73,
                "velocity": 51,
                "duration": 0.0636363636363626,
                "tempo": 120.0
            },
            {
                "start_time": 27.409090909090907,
                "end_time": 27.488636363636363,
                "pitch": 72,
                "velocity": 51,
                "duration": 0.0795454545454568,
                "tempo": 120.0
            },
            {
                "start_time": 27.58863636363636,
                "end_time": 27.652272727272727,
                "pitch": 74,
                "velocity": 51,
                "duration": 0.06363636363636616,
                "tempo": 120.0
            },
            {
                "start_time": 27.768181818181816,
                "end_time": 27.834090909090907,
                "pitch": 73,
                "velocity": 51,
                "duration": 0.06590909090909136,
                "tempo": 120.0
            },
            {
                "start_time": 27.956818181818182,
                "end_time": 28.02272727272727,
                "pitch": 75,
                "velocity": 51,
                "duration": 0.06590909090908781,
                "tempo": 120.0
            },
            {
                "start_time": 28.127272727272725,
                "end_time": 28.206818181818182,
                "pitch": 74,
                "velocity": 51,
                "duration": 0.0795454545454568,
                "tempo": 120.0
            },
            {
                "start_time": 28.30681818181818,
                "end_time": 28.370454545454542,
                "pitch": 76,
                "velocity": 51,
                "duration": 0.0636363636363626,
                "tempo": 120.0
            },
            {
                "start_time": 44.840909090909086,
                "end_time": 44.90681818181818,
                "pitch": 77,
                "velocity": 40,
                "duration": 0.06590909090909491,
                "tempo": 120.0
            },
            {
                "start_time": 44.90681818181818,
                "end_time": 44.95681818181818,
                "pitch": 81,
                "velocity": 40,
                "duration": 0.04999999999999716,
                "tempo": 120.0
            },
            {
                "start_time": 44.95681818181818,
                "end_time": 45.17272727272727,
                "pitch": 77,
                "velocity": 40,
                "duration": 0.2159090909090935,
                "tempo": 120.0
            },
            {
                "start_time": 45.17272727272727,
                "end_time": 45.20681818181818,
                "pitch": 75,
                "velocity": 40,
                "duration": 0.03409090909090651,
                "tempo": 120.0
            },
            {
                "start_time": 45.20681818181818,
                "end_time": 45.51590909090909,
                "pitch": 72,
                "velocity": 40,
                "duration": 0.3090909090909122,
                "tempo": 120.0
            },
            {
                "start_time": 45.51590909090909,
                "end_time": 45.56590909090909,
                "pitch": 75,
                "velocity": 40,
                "duration": 0.04999999999999716,
                "tempo": 120.0
            },
            {
                "start_time": 45.56590909090909,
                "end_time": 45.73181818181818,
                "pitch": 77,
                "velocity": 40,
                "duration": 0.16590909090908923,
                "tempo": 120.0
            },
            {
                "start_time": 0.07727272727272727,
                "end_time": 46.31818181818181,
                "pitch": 19,
                "velocity": 64,
                "duration": 46.240909090909085,
                "tempo": 120.0
            },
            {
                "start_time": 46.27045454545454,
                "end_time": 46.31818181818181,
                "pitch": 53,
                "velocity": 64,
                "duration": 0.04772727272727195,
                "tempo": 120.0
            },
            {
                "start_time": 46.31818181818181,
                "end_time": 46.38636363636363,
                "pitch": 57,
                "velocity": 64,
                "duration": 0.06818181818182012,
                "tempo": 120.0
            },
            {
                "start_time": 0.12727272727272726,
                "end_time": 46.38636363636363,
                "pitch": 66,
                "velocity": 64,
                "duration": 46.25909090909091,
                "tempo": 120.0
            },
            {
                "start_time": 46.38636363636363,
                "end_time": 47.69090909090909,
                "pitch": 53,
                "velocity": 64,
                "duration": 1.3045454545454547,
                "tempo": 120.0
            },
            {
                "start_time": 1.4886363636363635,
                "end_time": 47.73863636363636,
                "pitch": 31,
                "velocity": 64,
                "duration": 46.24999999999999,
                "tempo": 120.0
            },
            {
                "start_time": 47.69090909090909,
                "end_time": 47.73863636363636,
                "pitch": 65,
                "velocity": 64,
                "duration": 0.04772727272727195,
                "tempo": 120.0
            },
            {
                "start_time": 47.73863636363636,
                "end_time": 47.79090909090909,
                "pitch": 69,
                "velocity": 64,
                "duration": 0.05227272727272947,
                "tempo": 120.0
            },
            {
                "start_time": 1.5545454545454545,
                "end_time": 47.79090909090909,
                "pitch": 78,
                "velocity": 64,
                "duration": 46.236363636363635,
                "tempo": 120.0
            },
            {
                "start_time": 47.79090909090909,
                "end_time": 48.01363636363636,
                "pitch": 65,
                "velocity": 64,
                "duration": 0.2227272727272691,
                "tempo": 120.0
            },
            {
                "start_time": 48.01363636363636,
                "end_time": 48.05,
                "pitch": 63,
                "velocity": 64,
                "duration": 0.03636363636363882,
                "tempo": 120.0
            },
            {
                "start_time": 48.05,
                "end_time": 48.37272727272727,
                "pitch": 60,
                "velocity": 64,
                "duration": 0.32272727272727053,
                "tempo": 120.0
            },
            {
                "start_time": 48.37272727272727,
                "end_time": 48.42272727272727,
                "pitch": 63,
                "velocity": 64,
                "duration": 0.05000000000000426,
                "tempo": 120.0
            },
            {
                "start_time": 48.42272727272727,
                "end_time": 48.57954545454545,
                "pitch": 65,
                "velocity": 64,
                "duration": 0.1568181818181813,
                "tempo": 120.0
            },
            {
                "start_time": 50.18863636363636,
                "end_time": 50.538636363636364,
                "pitch": 64,
                "velocity": 40,
                "duration": 0.3500000000000014,
                "tempo": 120.0
            },
            {
                "start_time": 50.54090909090909,
                "end_time": 50.89772727272727,
                "pitch": 65,
                "velocity": 40,
                "duration": 0.35681818181818414,
                "tempo": 120.0
            },
            {
                "start_time": 50.89772727272727,
                "end_time": 51.01590909090909,
                "pitch": 67,
                "velocity": 40,
                "duration": 0.11818181818181728,
                "tempo": 120.0
            },
            {
                "start_time": 24.863636363636363,
                "end_time": 51.01590909090909,
                "pitch": 79,
                "velocity": 40,
                "duration": 26.152272727272727,
                "tempo": 120.0
            },
            {
                "start_time": 51.01590909090909,
                "end_time": 51.20454545454545,
                "pitch": 67,
                "velocity": 40,
                "duration": 0.1886363636363626,
                "tempo": 120.0
            },
            {
                "start_time": 51.01590909090909,
                "end_time": 51.20454545454545,
                "pitch": 79,
                "velocity": 40,
                "duration": 0.1886363636363626,
                "tempo": 120.0
            },
            {
                "start_time": 51.20454545454545,
                "end_time": 51.25681818181818,
                "pitch": 67,
                "velocity": 40,
                "duration": 0.05227272727272947,
                "tempo": 120.0
            },
            {
                "start_time": 51.25909090909091,
                "end_time": 51.615909090909085,
                "pitch": 65,
                "velocity": 40,
                "duration": 0.35681818181817704,
                "tempo": 120.0
            },
            {
                "start_time": 51.615909090909085,
                "end_time": 51.974999999999994,
                "pitch": 60,
                "velocity": 32,
                "duration": 0.35909090909090935,
                "tempo": 120.0
            },
            {
                "start_time": 53.03636363636363,
                "end_time": 53.393181818181816,
                "pitch": 64,
                "velocity": 40,
                "duration": 0.35681818181818414,
                "tempo": 120.0
            },
            {
                "start_time": 53.393181818181816,
                "end_time": 53.74545454545454,
                "pitch": 65,
                "velocity": 40,
                "duration": 0.3522727272727266,
                "tempo": 120.0
            },
            {
                "start_time": 53.74545454545454,
                "end_time": 53.877272727272725,
                "pitch": 67,
                "velocity": 40,
                "duration": 0.13181818181818272,
                "tempo": 120.0
            },
            {
                "start_time": 51.20454545454545,
                "end_time": 53.877272727272725,
                "pitch": 79,
                "velocity": 40,
                "duration": 2.672727272727272,
                "tempo": 120.0
            },
            {
                "start_time": 53.877272727272725,
                "end_time": 54.04545454545454,
                "pitch": 67,
                "velocity": 40,
                "duration": 0.16818181818181444,
                "tempo": 120.0
            },
            {
                "start_time": 53.877272727272725,
                "end_time": 54.04545454545454,
                "pitch": 79,
                "velocity": 40,
                "duration": 0.16818181818181444,
                "tempo": 120.0
            },
            {
                "start_time": 54.04545454545454,
                "end_time": 54.11363636363636,
                "pitch": 67,
                "velocity": 40,
                "duration": 0.06818181818182012,
                "tempo": 120.0
            },
            {
                "start_time": 54.11363636363636,
                "end_time": 54.16136363636363,
                "pitch": 67,
                "velocity": 40,
                "duration": 0.04772727272727195,
                "tempo": 120.0
            },
            {
                "start_time": 54.16136363636363,
                "end_time": 54.36363636363636,
                "pitch": 69,
                "velocity": 40,
                "duration": 0.20227272727272805,
                "tempo": 120.0
            },
            {
                "start_time": 25.204545454545453,
                "end_time": 54.39772727272727,
                "pitch": 56,
                "velocity": 40,
                "duration": 29.19318181818182,
                "tempo": 120.0
            },
            {
                "start_time": 54.36363636363636,
                "end_time": 54.39772727272727,
                "pitch": 72,
                "velocity": 40,
                "duration": 0.03409090909091361,
                "tempo": 120.0
            },
            {
                "start_time": 54.39772727272727,
                "end_time": 54.429545454545455,
                "pitch": 71,
                "velocity": 40,
                "duration": 0.0318181818181813,
                "tempo": 120.0
            },
            {
                "start_time": 54.36363636363636,
                "end_time": 54.429545454545455,
                "pitch": 76,
                "velocity": 40,
                "duration": 0.06590909090909491,
                "tempo": 120.0
            },
            {
                "start_time": 54.429545454545455,
                "end_time": 54.643181818181816,
                "pitch": 73,
                "velocity": 40,
                "duration": 0.21363636363636118,
                "tempo": 120.0
            },
            {
                "start_time": 54.429545454545455,
                "end_time": 54.80681818181818,
                "pitch": 76,
                "velocity": 40,
                "duration": 0.3772727272727252,
                "tempo": 120.0
            },
            {
                "start_time": 54.643181818181816,
                "end_time": 54.80681818181818,
                "pitch": 76,
                "velocity": 40,
                "duration": 0.16363636363636402,
                "tempo": 120.0
            },
            {
                "start_time": 55.88409090909091,
                "end_time": 56.24318181818182,
                "pitch": 64,
                "velocity": 40,
                "duration": 0.35909090909090935,
                "tempo": 120.0
            },
            {
                "start_time": 56.24318181818182,
                "end_time": 56.599999999999994,
                "pitch": 65,
                "velocity": 40,
                "duration": 0.35681818181817704,
                "tempo": 120.0
            },
            {
                "start_time": 56.60227272727273,
                "end_time": 56.71818181818182,
                "pitch": 67,
                "velocity": 40,
                "duration": 0.11590909090909207,
                "tempo": 120.0
            },
            {
                "start_time": 54.04545454545454,
                "end_time": 56.71818181818182,
                "pitch": 79,
                "velocity": 40,
                "duration": 2.672727272727279,
                "tempo": 120.0
            },
            {
                "start_time": 56.71818181818182,
                "end_time": 56.90909090909091,
                "pitch": 67,
                "velocity": 40,
                "duration": 0.1909090909090878,
                "tempo": 120.0
            },
            {
                "start_time": 56.71818181818182,
                "end_time": 56.90909090909091,
                "pitch": 79,
                "velocity": 40,
                "duration": 0.1909090909090878,
                "tempo": 120.0
            },
            {
                "start_time": 56.90909090909091,
                "end_time": 56.961363636363636,
                "pitch": 67,
                "velocity": 40,
                "duration": 0.05227272727272947,
                "tempo": 120.0
            },
            {
                "start_time": 56.961363636363636,
                "end_time": 57.293181818181814,
                "pitch": 65,
                "velocity": 40,
                "duration": 0.33181818181817846,
                "tempo": 120.0
            },
            {
                "start_time": 57.293181818181814,
                "end_time": 57.66136363636363,
                "pitch": 60,
                "velocity": 32,
                "duration": 0.3681818181818173,
                "tempo": 120.0
            },
            {
                "start_time": 58.73409090909091,
                "end_time": 59.090909090909086,
                "pitch": 64,
                "velocity": 40,
                "duration": 0.35681818181817704,
                "tempo": 120.0
            },
            {
                "start_time": 59.090909090909086,
                "end_time": 59.449999999999996,
                "pitch": 65,
                "velocity": 40,
                "duration": 0.35909090909090935,
                "tempo": 120.0
            },
            {
                "start_time": 59.45227272727272,
                "end_time": 59.57954545454545,
                "pitch": 67,
                "velocity": 40,
                "duration": 0.1272727272727323,
                "tempo": 120.0
            },
            {
                "start_time": 56.90909090909091,
                "end_time": 59.57954545454545,
                "pitch": 79,
                "velocity": 40,
                "duration": 2.6704545454545467,
                "tempo": 120.0
            },
            {
                "start_time": 59.57954545454545,
                "end_time": 59.74318181818182,
                "pitch": 67,
                "velocity": 40,
                "duration": 0.16363636363636402,
                "tempo": 120.0
            },
            {
                "start_time": 59.57954545454545,
                "end_time": 59.74318181818182,
                "pitch": 79,
                "velocity": 40,
                "duration": 0.16363636363636402,
                "tempo": 120.0
            },
            {
                "start_time": 59.74318181818182,
                "end_time": 59.793181818181814,
                "pitch": 67,
                "velocity": 40,
                "duration": 0.04999999999999716,
                "tempo": 120.0
            },
            {
                "start_time": 59.793181818181814,
                "end_time": 59.85681818181818,
                "pitch": 67,
                "velocity": 40,
                "duration": 0.0636363636363626,
                "tempo": 120.0
            },
            {
                "start_time": 59.85681818181818,
                "end_time": 60.03409090909091,
                "pitch": 69,
                "velocity": 40,
                "duration": 0.17727272727272947,
                "tempo": 120.0
            },
            {
                "start_time": 54.39772727272727,
                "end_time": 60.084090909090904,
                "pitch": 56,
                "velocity": 40,
                "duration": 5.68636363636363,
                "tempo": 120.0
            },
            {
                "start_time": 60.03409090909091,
                "end_time": 60.084090909090904,
                "pitch": 72,
                "velocity": 40,
                "duration": 0.04999999999999716,
                "tempo": 120.0
            },
            {
                "start_time": 60.084090909090904,
                "end_time": 60.115909090909085,
                "pitch": 71,
                "velocity": 40,
                "duration": 0.0318181818181813,
                "tempo": 120.0
            },
            {
                "start_time": 60.03409090909091,
                "end_time": 60.115909090909085,
                "pitch": 76,
                "velocity": 40,
                "duration": 0.08181818181817846,
                "tempo": 120.0
            },
            {
                "start_time": 60.115909090909085,
                "end_time": 60.33863636363636,
                "pitch": 73,
                "velocity": 40,
                "duration": 0.22272727272727622,
                "tempo": 120.0
            },
            {
                "start_time": 60.115909090909085,
                "end_time": 60.50909090909091,
                "pitch": 76,
                "velocity": 40,
                "duration": 0.39318181818182296,
                "tempo": 120.0
            },
            {
                "start_time": 60.33863636363636,
                "end_time": 60.50909090909091,
                "pitch": 76,
                "velocity": 40,
                "duration": 0.17045454545454675,
                "tempo": 120.0
            }
        ],
        "French Horn": [
            {
                "start_time": 0.013636363636363636,
                "end_time": 0.11136363636363636,
                "pitch": 60,
                "velocity": 51,
                "duration": 0.09772727272727272,
                "tempo": 120.0
            },
            {
                "start_time": 0.11136363636363636,
                "end_time": 0.19318181818181818,
                "pitch": 60,
                "velocity": 20,
                "duration": 0.08181818181818182,
                "tempo": 120.0
            },
            {
                "start_time": 0.19318181818181818,
                "end_time": 0.28863636363636364,
                "pitch": 60,
                "velocity": 51,
                "duration": 0.09545454545454546,
                "tempo": 120.0
            },
            {
                "start_time": 0.2909090909090909,
                "end_time": 0.3704545454545454,
                "pitch": 60,
                "velocity": 20,
                "duration": 0.07954545454545453,
                "tempo": 120.0
            },
            {
                "start_time": 0.3727272727272727,
                "end_time": 0.45454545454545453,
                "pitch": 60,
                "velocity": 51,
                "duration": 0.08181818181818185,
                "tempo": 120.0
            },
            {
                "start_time": 0.45454545454545453,
                "end_time": 0.5545454545454546,
                "pitch": 60,
                "velocity": 20,
                "duration": 0.10000000000000003,
                "tempo": 120.0
            },
            {
                "start_time": 0.5568181818181818,
                "end_time": 0.6386363636363636,
                "pitch": 60,
                "velocity": 51,
                "duration": 0.08181818181818179,
                "tempo": 120.0
            },
            {
                "start_time": 0.6386363636363636,
                "end_time": 0.7227272727272727,
                "pitch": 60,
                "velocity": 20,
                "duration": 0.0840909090909091,
                "tempo": 120.0
            },
            {
                "start_time": 0.7227272727272727,
                "end_time": 0.8204545454545454,
                "pitch": 60,
                "velocity": 51,
                "duration": 0.09772727272727277,
                "tempo": 120.0
            },
            {
                "start_time": 0.8204545454545454,
                "end_time": 0.9022727272727272,
                "pitch": 60,
                "velocity": 20,
                "duration": 0.08181818181818179,
                "tempo": 120.0
            },
            {
                "start_time": 0.9022727272727272,
                "end_time": 0.9818181818181818,
                "pitch": 60,
                "velocity": 51,
                "duration": 0.07954545454545459,
                "tempo": 120.0
            },
            {
                "start_time": 0.984090909090909,
                "end_time": 1.0818181818181818,
                "pitch": 60,
                "velocity": 20,
                "duration": 0.09772727272727277,
                "tempo": 120.0
            },
            {
                "start_time": 1.0818181818181818,
                "end_time": 1.1659090909090908,
                "pitch": 60,
                "velocity": 51,
                "duration": 0.084090909090909,
                "tempo": 120.0
            },
            {
                "start_time": 1.1659090909090908,
                "end_time": 1.2522727272727272,
                "pitch": 60,
                "velocity": 20,
                "duration": 0.08636363636363642,
                "tempo": 120.0
            },
            {
                "start_time": 1.2522727272727272,
                "end_time": 1.3545454545454545,
                "pitch": 60,
                "velocity": 51,
                "duration": 0.10227272727272729,
                "tempo": 120.0
            },
            {
                "start_time": 1.3545454545454545,
                "end_time": 1.440909090909091,
                "pitch": 60,
                "velocity": 20,
                "duration": 0.08636363636363642,
                "tempo": 120.0
            },
            {
                "start_time": 1.440909090909091,
                "end_time": 1.5386363636363636,
                "pitch": 60,
                "velocity": 51,
                "duration": 0.09772727272727266,
                "tempo": 120.0
            },
            {
                "start_time": 1.5386363636363636,
                "end_time": 1.6204545454545454,
                "pitch": 60,
                "velocity": 20,
                "duration": 0.08181818181818179,
                "tempo": 120.0
            },
            {
                "start_time": 1.6204545454545454,
                "end_time": 1.7,
                "pitch": 60,
                "velocity": 51,
                "duration": 0.07954545454545459,
                "tempo": 120.0
            },
            {
                "start_time": 1.7022727272727272,
                "end_time": 1.7999999999999998,
                "pitch": 60,
                "velocity": 20,
                "duration": 0.09772727272727266,
                "tempo": 120.0
            },
            {
                "start_time": 1.7999999999999998,
                "end_time": 1.8818181818181818,
                "pitch": 60,
                "velocity": 51,
                "duration": 0.08181818181818201,
                "tempo": 120.0
            },
            {
                "start_time": 1.8818181818181818,
                "end_time": 1.9659090909090908,
                "pitch": 60,
                "velocity": 20,
                "duration": 0.084090909090909,
                "tempo": 120.0
            },
            {
                "start_time": 1.9659090909090908,
                "end_time": 2.065909090909091,
                "pitch": 60,
                "velocity": 51,
                "duration": 0.10000000000000009,
                "tempo": 120.0
            },
            {
                "start_time": 2.068181818181818,
                "end_time": 2.15,
                "pitch": 60,
                "velocity": 20,
                "duration": 0.08181818181818201,
                "tempo": 120.0
            },
            {
                "start_time": 2.15,
                "end_time": 2.231818181818182,
                "pitch": 60,
                "velocity": 51,
                "duration": 0.08181818181818201,
                "tempo": 120.0
            },
            {
                "start_time": 2.231818181818182,
                "end_time": 2.3295454545454546,
                "pitch": 60,
                "velocity": 20,
                "duration": 0.09772727272727266,
                "tempo": 120.0
            },
            {
                "start_time": 2.870454545454545,
                "end_time": 2.9499999999999997,
                "pitch": 60,
                "velocity": 51,
                "duration": 0.07954545454545459,
                "tempo": 120.0
            },
            {
                "start_time": 2.9499999999999997,
                "end_time": 3.0477272727272724,
                "pitch": 60,
                "velocity": 20,
                "duration": 0.09772727272727266,
                "tempo": 120.0
            },
            {
                "start_time": 3.0477272727272724,
                "end_time": 3.1295454545454544,
                "pitch": 60,
                "velocity": 51,
                "duration": 0.08181818181818201,
                "tempo": 120.0
            },
            {
                "start_time": 3.1295454545454544,
                "end_time": 3.2113636363636364,
                "pitch": 60,
                "velocity": 20,
                "duration": 0.08181818181818201,
                "tempo": 120.0
            },
            {
                "start_time": 3.2113636363636364,
                "end_time": 3.3068181818181817,
                "pitch": 60,
                "velocity": 51,
                "duration": 0.09545454545454524,
                "tempo": 120.0
            },
            {
                "start_time": 3.309090909090909,
                "end_time": 3.3886363636363637,
                "pitch": 60,
                "velocity": 20,
                "duration": 0.07954545454545459,
                "tempo": 120.0
            },
            {
                "start_time": 3.3886363636363637,
                "end_time": 3.4704545454545452,
                "pitch": 60,
                "velocity": 51,
                "duration": 0.08181818181818157,
                "tempo": 120.0
            },
            {
                "start_time": 3.4704545454545452,
                "end_time": 3.568181818181818,
                "pitch": 60,
                "velocity": 20,
                "duration": 0.09772727272727266,
                "tempo": 120.0
            },
            {
                "start_time": 3.568181818181818,
                "end_time": 3.6545454545454543,
                "pitch": 60,
                "velocity": 51,
                "duration": 0.08636363636363642,
                "tempo": 120.0
            },
            {
                "start_time": 3.6545454545454543,
                "end_time": 3.7386363636363633,
                "pitch": 60,
                "velocity": 20,
                "duration": 0.084090909090909,
                "tempo": 120.0
            },
            {
                "start_time": 3.7409090909090907,
                "end_time": 3.843181818181818,
                "pitch": 60,
                "velocity": 51,
                "duration": 0.10227272727272707,
                "tempo": 120.0
            },
            {
                "start_time": 3.843181818181818,
                "end_time": 3.9295454545454542,
                "pitch": 60,
                "velocity": 20,
                "duration": 0.08636363636363642,
                "tempo": 120.0
            },
            {
                "start_time": 3.9295454545454542,
                "end_time": 4.0249999999999995,
                "pitch": 60,
                "velocity": 51,
                "duration": 0.09545454545454524,
                "tempo": 120.0
            },
            {
                "start_time": 4.0249999999999995,
                "end_time": 4.1068181818181815,
                "pitch": 60,
                "velocity": 20,
                "duration": 0.08181818181818201,
                "tempo": 120.0
            },
            {
                "start_time": 4.1068181818181815,
                "end_time": 4.1886363636363635,
                "pitch": 60,
                "velocity": 51,
                "duration": 0.08181818181818201,
                "tempo": 120.0
            },
            {
                "start_time": 4.1886363636363635,
                "end_time": 4.286363636363636,
                "pitch": 60,
                "velocity": 20,
                "duration": 0.09772727272727266,
                "tempo": 120.0
            },
            {
                "start_time": 4.286363636363636,
                "end_time": 4.370454545454545,
                "pitch": 60,
                "velocity": 51,
                "duration": 0.084090909090909,
                "tempo": 120.0
            },
            {
                "start_time": 4.372727272727272,
                "end_time": 4.456818181818182,
                "pitch": 60,
                "velocity": 20,
                "duration": 0.08409090909090988,
                "tempo": 120.0
            },
            {
                "start_time": 4.459090909090909,
                "end_time": 4.5613636363636365,
                "pitch": 60,
                "velocity": 51,
                "duration": 0.10227272727272751,
                "tempo": 120.0
            },
            {
                "start_time": 4.5613636363636365,
                "end_time": 4.6454545454545455,
                "pitch": 60,
                "velocity": 20,
                "duration": 0.084090909090909,
                "tempo": 120.0
            },
            {
                "start_time": 4.6477272727272725,
                "end_time": 4.727272727272727,
                "pitch": 60,
                "velocity": 51,
                "duration": 0.07954545454545414,
                "tempo": 120.0
            },
            {
                "start_time": 4.727272727272727,
                "end_time": 4.825,
                "pitch": 60,
                "velocity": 20,
                "duration": 0.09772727272727355,
                "tempo": 120.0
            },
            {
                "start_time": 4.825,
                "end_time": 4.906818181818181,
                "pitch": 60,
                "velocity": 51,
                "duration": 0.08181818181818112,
                "tempo": 120.0
            },
            {
                "start_time": 4.906818181818181,
                "end_time": 4.988636363636363,
                "pitch": 60,
                "velocity": 20,
                "duration": 0.08181818181818201,
                "tempo": 120.0
            },
            {
                "start_time": 4.988636363636363,
                "end_time": 5.086363636363636,
                "pitch": 60,
                "velocity": 51,
                "duration": 0.09772727272727266,
                "tempo": 120.0
            },
            {
                "start_time": 5.086363636363636,
                "end_time": 5.165909090909091,
                "pitch": 60,
                "velocity": 20,
                "duration": 0.07954545454545503,
                "tempo": 120.0
            },
            {
                "start_time": 5.168181818181818,
                "end_time": 5.263636363636364,
                "pitch": 60,
                "velocity": 51,
                "duration": 0.09545454545454568,
                "tempo": 120.0
            },
            {
                "start_time": 5.263636363636364,
                "end_time": 5.345454545454545,
                "pitch": 60,
                "velocity": 20,
                "duration": 0.08181818181818112,
                "tempo": 120.0
            },
            {
                "start_time": 5.345454545454545,
                "end_time": 5.431818181818182,
                "pitch": 60,
                "velocity": 51,
                "duration": 0.08636363636363686,
                "tempo": 120.0
            },
            {
                "start_time": 5.431818181818182,
                "end_time": 5.534090909090909,
                "pitch": 60,
                "velocity": 20,
                "duration": 0.10227272727272751,
                "tempo": 120.0
            },
            {
                "start_time": 5.534090909090909,
                "end_time": 5.620454545454545,
                "pitch": 60,
                "velocity": 51,
                "duration": 0.08636363636363598,
                "tempo": 120.0
            },
            {
                "start_time": 5.620454545454545,
                "end_time": 5.706818181818181,
                "pitch": 60,
                "velocity": 20,
                "duration": 0.08636363636363598,
                "tempo": 120.0
            },
            {
                "start_time": 5.706818181818181,
                "end_time": 5.8,
                "pitch": 60,
                "velocity": 51,
                "duration": 0.0931818181818187,
                "tempo": 120.0
            },
            {
                "start_time": 5.8,
                "end_time": 5.879545454545454,
                "pitch": 60,
                "velocity": 20,
                "duration": 0.07954545454545414,
                "tempo": 120.0
            },
            {
                "start_time": 5.879545454545454,
                "end_time": 5.959090909090909,
                "pitch": 60,
                "velocity": 51,
                "duration": 0.07954545454545503,
                "tempo": 120.0
            },
            {
                "start_time": 5.959090909090909,
                "end_time": 6.054545454545455,
                "pitch": 60,
                "velocity": 20,
                "duration": 0.09545454545454568,
                "tempo": 120.0
            },
            {
                "start_time": 6.054545454545455,
                "end_time": 6.138636363636364,
                "pitch": 60,
                "velocity": 51,
                "duration": 0.084090909090909,
                "tempo": 120.0
            },
            {
                "start_time": 6.138636363636364,
                "end_time": 6.225,
                "pitch": 60,
                "velocity": 20,
                "duration": 0.08636363636363598,
                "tempo": 120.0
            },
            {
                "start_time": 6.225,
                "end_time": 6.327272727272727,
                "pitch": 60,
                "velocity": 51,
                "duration": 0.10227272727272751,
                "tempo": 120.0
            },
            {
                "start_time": 6.327272727272727,
                "end_time": 6.413636363636363,
                "pitch": 60,
                "velocity": 20,
                "duration": 0.08636363636363598,
                "tempo": 120.0
            },
            {
                "start_time": 6.413636363636363,
                "end_time": 6.511363636363636,
                "pitch": 60,
                "velocity": 51,
                "duration": 0.09772727272727266,
                "tempo": 120.0
            },
            {
                "start_time": 6.511363636363636,
                "end_time": 6.593181818181818,
                "pitch": 60,
                "velocity": 20,
                "duration": 0.08181818181818201,
                "tempo": 120.0
            },
            {
                "start_time": 6.593181818181818,
                "end_time": 6.672727272727273,
                "pitch": 60,
                "velocity": 51,
                "duration": 0.07954545454545503,
                "tempo": 120.0
            },
            {
                "start_time": 6.675,
                "end_time": 6.7704545454545455,
                "pitch": 60,
                "velocity": 20,
                "duration": 0.09545454545454568,
                "tempo": 120.0
            },
            {
                "start_time": 6.7727272727272725,
                "end_time": 6.8568181818181815,
                "pitch": 60,
                "velocity": 51,
                "duration": 0.084090909090909,
                "tempo": 120.0
            },
            {
                "start_time": 6.8568181818181815,
                "end_time": 6.9431818181818175,
                "pitch": 60,
                "velocity": 20,
                "duration": 0.08636363636363598,
                "tempo": 120.0
            },
            {
                "start_time": 6.9431818181818175,
                "end_time": 7.045454545454545,
                "pitch": 60,
                "velocity": 51,
                "duration": 0.10227272727272751,
                "tempo": 120.0
            },
            {
                "start_time": 7.045454545454545,
                "end_time": 7.131818181818182,
                "pitch": 60,
                "velocity": 20,
                "duration": 0.08636363636363686,
                "tempo": 120.0
            },
            {
                "start_time": 7.131818181818182,
                "end_time": 7.213636363636363,
                "pitch": 60,
                "velocity": 51,
                "duration": 0.08181818181818112,
                "tempo": 120.0
            },
            {
                "start_time": 7.213636363636363,
                "end_time": 7.311363636363636,
                "pitch": 60,
                "velocity": 20,
                "duration": 0.09772727272727266,
                "tempo": 120.0
            },
            {
                "start_time": 7.311363636363636,
                "end_time": 7.390909090909091,
                "pitch": 60,
                "velocity": 51,
                "duration": 0.07954545454545503,
                "tempo": 120.0
            },
            {
                "start_time": 7.393181818181818,
                "end_time": 7.472727272727273,
                "pitch": 60,
                "velocity": 20,
                "duration": 0.07954545454545503,
                "tempo": 120.0
            },
            {
                "start_time": 7.475,
                "end_time": 7.570454545454545,
                "pitch": 60,
                "velocity": 51,
                "duration": 0.09545454545454568,
                "tempo": 120.0
            },
            {
                "start_time": 7.570454545454545,
                "end_time": 7.652272727272727,
                "pitch": 60,
                "velocity": 20,
                "duration": 0.08181818181818201,
                "tempo": 120.0
            },
            {
                "start_time": 7.652272727272727,
                "end_time": 7.75,
                "pitch": 60,
                "velocity": 51,
                "duration": 0.09772727272727266,
                "tempo": 120.0
            },
            {
                "start_time": 7.75,
                "end_time": 7.831818181818181,
                "pitch": 60,
                "velocity": 20,
                "duration": 0.08181818181818112,
                "tempo": 120.0
            },
            {
                "start_time": 7.831818181818181,
                "end_time": 7.91590909090909,
                "pitch": 60,
                "velocity": 51,
                "duration": 0.084090909090909,
                "tempo": 120.0
            },
            {
                "start_time": 7.91590909090909,
                "end_time": 8.020454545454545,
                "pitch": 60,
                "velocity": 20,
                "duration": 0.1045454545454545,
                "tempo": 120.0
            },
            {
                "start_time": 8.020454545454545,
                "end_time": 8.104545454545454,
                "pitch": 60,
                "velocity": 51,
                "duration": 0.084090909090909,
                "tempo": 120.0
            },
            {
                "start_time": 8.10681818181818,
                "end_time": 8.190909090909091,
                "pitch": 60,
                "velocity": 20,
                "duration": 0.08409090909091077,
                "tempo": 120.0
            },
            {
                "start_time": 8.190909090909091,
                "end_time": 8.288636363636364,
                "pitch": 60,
                "velocity": 51,
                "duration": 0.09772727272727266,
                "tempo": 120.0
            },
            {
                "start_time": 8.288636363636364,
                "end_time": 8.370454545454544,
                "pitch": 60,
                "velocity": 20,
                "duration": 0.08181818181818024,
                "tempo": 120.0
            },
            {
                "start_time": 8.370454545454544,
                "end_time": 8.452272727272726,
                "pitch": 60,
                "velocity": 51,
                "duration": 0.08181818181818201,
                "tempo": 120.0
            },
            {
                "start_time": 8.452272727272726,
                "end_time": 8.549999999999999,
                "pitch": 60,
                "velocity": 20,
                "duration": 0.09772727272727266,
                "tempo": 120.0
            },
            {
                "start_time": 8.549999999999999,
                "end_time": 8.634090909090908,
                "pitch": 60,
                "velocity": 51,
                "duration": 0.084090909090909,
                "tempo": 120.0
            },
            {
                "start_time": 8.634090909090908,
                "end_time": 8.720454545454546,
                "pitch": 60,
                "velocity": 20,
                "duration": 0.08636363636363775,
                "tempo": 120.0
            },
            {
                "start_time": 8.720454545454546,
                "end_time": 8.822727272727272,
                "pitch": 60,
                "velocity": 51,
                "duration": 0.10227272727272663,
                "tempo": 120.0
            },
            {
                "start_time": 8.822727272727272,
                "end_time": 8.909090909090908,
                "pitch": 60,
                "velocity": 20,
                "duration": 0.08636363636363598,
                "tempo": 120.0
            },
            {
                "start_time": 8.909090909090908,
                "end_time": 9.006818181818181,
                "pitch": 60,
                "velocity": 51,
                "duration": 0.09772727272727266,
                "tempo": 120.0
            },
            {
                "start_time": 9.006818181818181,
                "end_time": 9.088636363636363,
                "pitch": 60,
                "velocity": 20,
                "duration": 0.08181818181818201,
                "tempo": 120.0
            },
            {
                "start_time": 9.088636363636363,
                "end_time": 9.170454545454545,
                "pitch": 60,
                "velocity": 51,
                "duration": 0.08181818181818201,
                "tempo": 120.0
            },
            {
                "start_time": 9.170454545454545,
                "end_time": 9.268181818181818,
                "pitch": 60,
                "velocity": 20,
                "duration": 0.09772727272727266,
                "tempo": 120.0
            },
            {
                "start_time": 9.268181818181818,
                "end_time": 9.35,
                "pitch": 60,
                "velocity": 51,
                "duration": 0.08181818181818201,
                "tempo": 120.0
            },
            {
                "start_time": 9.352272727272727,
                "end_time": 9.434090909090909,
                "pitch": 60,
                "velocity": 20,
                "duration": 0.08181818181818201,
                "tempo": 120.0
            },
            {
                "start_time": 9.436363636363636,
                "end_time": 9.536363636363635,
                "pitch": 60,
                "velocity": 51,
                "duration": 0.09999999999999964,
                "tempo": 120.0
            },
            {
                "start_time": 9.536363636363635,
                "end_time": 9.620454545454544,
                "pitch": 60,
                "velocity": 20,
                "duration": 0.084090909090909,
                "tempo": 120.0
            },
            {
                "start_time": 9.620454545454544,
                "end_time": 9.702272727272726,
                "pitch": 60,
                "velocity": 51,
                "duration": 0.08181818181818201,
                "tempo": 120.0
            },
            {
                "start_time": 9.702272727272726,
                "end_time": 9.804545454545455,
                "pitch": 60,
                "velocity": 20,
                "duration": 0.1022727272727284,
                "tempo": 120.0
            },
            {
                "start_time": 9.804545454545455,
                "end_time": 9.886363636363637,
                "pitch": 60,
                "velocity": 51,
                "duration": 0.08181818181818201,
                "tempo": 120.0
            },
            {
                "start_time": 9.886363636363637,
                "end_time": 9.970454545454546,
                "pitch": 60,
                "velocity": 20,
                "duration": 0.084090909090909,
                "tempo": 120.0
            },
            {
                "start_time": 9.972727272727273,
                "end_time": 10.068181818181818,
                "pitch": 60,
                "velocity": 51,
                "duration": 0.09545454545454568,
                "tempo": 120.0
            },
            {
                "start_time": 10.068181818181818,
                "end_time": 10.15,
                "pitch": 60,
                "velocity": 20,
                "duration": 0.08181818181818201,
                "tempo": 120.0
            },
            {
                "start_time": 10.15,
                "end_time": 10.247727272727273,
                "pitch": 60,
                "velocity": 51,
                "duration": 0.09772727272727266,
                "tempo": 120.0
            },
            {
                "start_time": 10.247727272727273,
                "end_time": 10.329545454545453,
                "pitch": 60,
                "velocity": 20,
                "duration": 0.08181818181818024,
                "tempo": 120.0
            },
            {
                "start_time": 10.329545454545453,
                "end_time": 10.413636363636362,
                "pitch": 60,
                "velocity": 51,
                "duration": 0.084090909090909,
                "tempo": 120.0
            },
            {
                "start_time": 10.413636363636362,
                "end_time": 10.513636363636364,
                "pitch": 60,
                "velocity": 20,
                "duration": 0.10000000000000142,
                "tempo": 120.0
            },
            {
                "start_time": 10.513636363636364,
                "end_time": 10.597727272727273,
                "pitch": 60,
                "velocity": 51,
                "duration": 0.084090909090909,
                "tempo": 120.0
            },
            {
                "start_time": 10.597727272727273,
                "end_time": 10.681818181818182,
                "pitch": 60,
                "velocity": 20,
                "duration": 0.084090909090909,
                "tempo": 120.0
            },
            {
                "start_time": 10.681818181818182,
                "end_time": 10.777272727272727,
                "pitch": 60,
                "velocity": 51,
                "duration": 0.09545454545454568,
                "tempo": 120.0
            },
            {
                "start_time": 10.779545454545454,
                "end_time": 10.85909090909091,
                "pitch": 60,
                "velocity": 20,
                "duration": 0.07954545454545503,
                "tempo": 120.0
            },
            {
                "start_time": 10.85909090909091,
                "end_time": 10.94090909090909,
                "pitch": 60,
                "velocity": 51,
                "duration": 0.08181818181818024,
                "tempo": 120.0
            },
            {
                "start_time": 10.94090909090909,
                "end_time": 11.038636363636362,
                "pitch": 60,
                "velocity": 20,
                "duration": 0.09772727272727266,
                "tempo": 120.0
            },
            {
                "start_time": 11.038636363636362,
                "end_time": 11.125,
                "pitch": 60,
                "velocity": 51,
                "duration": 0.08636363636363775,
                "tempo": 120.0
            },
            {
                "start_time": 11.125,
                "end_time": 11.209090909090909,
                "pitch": 60,
                "velocity": 20,
                "duration": 0.084090909090909,
                "tempo": 120.0
            },
            {
                "start_time": 11.211363636363636,
                "end_time": 11.313636363636363,
                "pitch": 60,
                "velocity": 51,
                "duration": 0.10227272727272663,
                "tempo": 120.0
            },
            {
                "start_time": 11.313636363636363,
                "end_time": 11.399999999999999,
                "pitch": 60,
                "velocity": 20,
                "duration": 0.08636363636363598,
                "tempo": 120.0
            },
            {
                "start_time": 11.399999999999999,
                "end_time": 11.495454545454544,
                "pitch": 60,
                "velocity": 51,
                "duration": 0.09545454545454568,
                "tempo": 120.0
            },
            {
                "start_time": 11.497727272727273,
                "end_time": 11.577272727272726,
                "pitch": 60,
                "velocity": 20,
                "duration": 0.07954545454545325,
                "tempo": 120.0
            },
            {
                "start_time": 11.577272727272726,
                "end_time": 11.659090909090908,
                "pitch": 60,
                "velocity": 51,
                "duration": 0.08181818181818201,
                "tempo": 120.0
            },
            {
                "start_time": 11.659090909090908,
                "end_time": 11.756818181818181,
                "pitch": 60,
                "velocity": 20,
                "duration": 0.09772727272727266,
                "tempo": 120.0
            },
            {
                "start_time": 11.756818181818181,
                "end_time": 11.84090909090909,
                "pitch": 60,
                "velocity": 51,
                "duration": 0.084090909090909,
                "tempo": 120.0
            },
            {
                "start_time": 11.843181818181817,
                "end_time": 11.927272727272726,
                "pitch": 60,
                "velocity": 20,
                "duration": 0.084090909090909,
                "tempo": 120.0
            },
            {
                "start_time": 11.929545454545455,
                "end_time": 12.031818181818181,
                "pitch": 60,
                "velocity": 51,
                "duration": 0.10227272727272663,
                "tempo": 120.0
            },
            {
                "start_time": 12.031818181818181,
                "end_time": 12.11590909090909,
                "pitch": 60,
                "velocity": 20,
                "duration": 0.084090909090909,
                "tempo": 120.0
            },
            {
                "start_time": 12.118181818181817,
                "end_time": 12.197727272727272,
                "pitch": 60,
                "velocity": 51,
                "duration": 0.07954545454545503,
                "tempo": 120.0
            },
            {
                "start_time": 12.197727272727272,
                "end_time": 12.295454545454545,
                "pitch": 60,
                "velocity": 20,
                "duration": 0.09772727272727266,
                "tempo": 120.0
            },
            {
                "start_time": 12.295454545454545,
                "end_time": 12.377272727272727,
                "pitch": 60,
                "velocity": 51,
                "duration": 0.08181818181818201,
                "tempo": 120.0
            },
            {
                "start_time": 12.377272727272727,
                "end_time": 12.459090909090909,
                "pitch": 60,
                "velocity": 20,
                "duration": 0.08181818181818201,
                "tempo": 120.0
            },
            {
                "start_time": 12.459090909090909,
                "end_time": 12.556818181818182,
                "pitch": 60,
                "velocity": 51,
                "duration": 0.09772727272727266,
                "tempo": 120.0
            },
            {
                "start_time": 12.556818181818182,
                "end_time": 12.636363636363635,
                "pitch": 60,
                "velocity": 20,
                "duration": 0.07954545454545325,
                "tempo": 120.0
            },
            {
                "start_time": 12.638636363636364,
                "end_time": 12.73409090909091,
                "pitch": 60,
                "velocity": 51,
                "duration": 0.09545454545454568,
                "tempo": 120.0
            },
            {
                "start_time": 12.73409090909091,
                "end_time": 12.81590909090909,
                "pitch": 60,
                "velocity": 20,
                "duration": 0.08181818181818024,
                "tempo": 120.0
            },
            {
                "start_time": 12.81590909090909,
                "end_time": 12.899999999999999,
                "pitch": 60,
                "velocity": 51,
                "duration": 0.084090909090909,
                "tempo": 120.0
            },
            {
                "start_time": 12.899999999999999,
                "end_time": 13.0,
                "pitch": 60,
                "velocity": 20,
                "duration": 0.10000000000000142,
                "tempo": 120.0
            },
            {
                "start_time": 13.002272727272727,
                "end_time": 13.084090909090909,
                "pitch": 60,
                "velocity": 51,
                "duration": 0.08181818181818201,
                "tempo": 120.0
            },
            {
                "start_time": 13.084090909090909,
                "end_time": 13.168181818181818,
                "pitch": 60,
                "velocity": 20,
                "duration": 0.084090909090909,
                "tempo": 120.0
            },
            {
                "start_time": 13.168181818181818,
                "end_time": 13.268181818181818,
                "pitch": 60,
                "velocity": 51,
                "duration": 0.09999999999999964,
                "tempo": 120.0
            },
            {
                "start_time": 13.268181818181818,
                "end_time": 13.352272727272727,
                "pitch": 60,
                "velocity": 20,
                "duration": 0.084090909090909,
                "tempo": 120.0
            },
            {
                "start_time": 13.352272727272727,
                "end_time": 13.436363636363636,
                "pitch": 60,
                "velocity": 51,
                "duration": 0.084090909090909,
                "tempo": 120.0
            },
            {
                "start_time": 13.436363636363636,
                "end_time": 13.536363636363635,
                "pitch": 60,
                "velocity": 20,
                "duration": 0.09999999999999964,
                "tempo": 120.0
            },
            {
                "start_time": 13.536363636363635,
                "end_time": 13.620454545454544,
                "pitch": 60,
                "velocity": 51,
                "duration": 0.084090909090909,
                "tempo": 120.0
            },
            {
                "start_time": 13.620454545454544,
                "end_time": 13.704545454545453,
                "pitch": 60,
                "velocity": 20,
                "duration": 0.084090909090909,
                "tempo": 120.0
            },
            {
                "start_time": 13.704545454545453,
                "end_time": 13.804545454545455,
                "pitch": 60,
                "velocity": 51,
                "duration": 0.10000000000000142,
                "tempo": 120.0
            },
            {
                "start_time": 13.804545454545455,
                "end_time": 13.888636363636364,
                "pitch": 60,
                "velocity": 20,
                "duration": 0.084090909090909,
                "tempo": 120.0
            },
            {
                "start_time": 13.888636363636364,
                "end_time": 13.988636363636363,
                "pitch": 60,
                "velocity": 51,
                "duration": 0.09999999999999964,
                "tempo": 120.0
            },
            {
                "start_time": 13.988636363636363,
                "end_time": 14.072727272727272,
                "pitch": 60,
                "velocity": 20,
                "duration": 0.084090909090909,
                "tempo": 120.0
            },
            {
                "start_time": 14.072727272727272,
                "end_time": 14.156818181818181,
                "pitch": 60,
                "velocity": 51,
                "duration": 0.084090909090909,
                "tempo": 120.0
            },
            {
                "start_time": 14.156818181818181,
                "end_time": 14.256818181818181,
                "pitch": 60,
                "velocity": 20,
                "duration": 0.09999999999999964,
                "tempo": 120.0
            },
            {
                "start_time": 46.27045454545454,
                "end_time": 46.37045454545454,
                "pitch": 60,
                "velocity": 51,
                "duration": 0.10000000000000142,
                "tempo": 120.0
            },
            {
                "start_time": 46.37045454545454,
                "end_time": 46.45454545454545,
                "pitch": 60,
                "velocity": 20,
                "duration": 0.08409090909091077,
                "tempo": 120.0
            },
            {
                "start_time": 46.45454545454545,
                "end_time": 46.53636363636363,
                "pitch": 60,
                "velocity": 51,
                "duration": 0.08181818181817846,
                "tempo": 120.0
            },
            {
                "start_time": 46.53636363636363,
                "end_time": 46.63863636363636,
                "pitch": 60,
                "velocity": 20,
                "duration": 0.10227272727272663,
                "tempo": 120.0
            },
            {
                "start_time": 46.63863636363636,
                "end_time": 46.720454545454544,
                "pitch": 60,
                "velocity": 51,
                "duration": 0.08181818181818556,
                "tempo": 120.0
            },
            {
                "start_time": 46.72272727272727,
                "end_time": 46.804545454545455,
                "pitch": 60,
                "velocity": 20,
                "duration": 0.08181818181818556,
                "tempo": 120.0
            },
            {
                "start_time": 46.80681818181818,
                "end_time": 46.90454545454545,
                "pitch": 60,
                "velocity": 51,
                "duration": 0.09772727272726911,
                "tempo": 120.0
            },
            {
                "start_time": 46.90681818181818,
                "end_time": 46.98863636363636,
                "pitch": 60,
                "velocity": 20,
                "duration": 0.08181818181817846,
                "tempo": 120.0
            },
            {
                "start_time": 46.99090909090909,
                "end_time": 47.070454545454545,
                "pitch": 60,
                "velocity": 51,
                "duration": 0.07954545454545325,
                "tempo": 120.0
            },
            {
                "start_time": 47.070454545454545,
                "end_time": 47.168181818181814,
                "pitch": 60,
                "velocity": 20,
                "duration": 0.09772727272726911,
                "tempo": 120.0
            },
            {
                "start_time": 47.168181818181814,
                "end_time": 47.25,
                "pitch": 60,
                "velocity": 51,
                "duration": 0.08181818181818556,
                "tempo": 120.0
            },
            {
                "start_time": 47.25,
                "end_time": 47.33181818181818,
                "pitch": 60,
                "velocity": 20,
                "duration": 0.08181818181817846,
                "tempo": 120.0
            },
            {
                "start_time": 47.33181818181818,
                "end_time": 47.42727272727272,
                "pitch": 60,
                "velocity": 51,
                "duration": 0.0954545454545439,
                "tempo": 120.0
            },
            {
                "start_time": 47.429545454545455,
                "end_time": 47.50909090909091,
                "pitch": 60,
                "velocity": 20,
                "duration": 0.07954545454545325,
                "tempo": 120.0
            },
            {
                "start_time": 47.51136363636363,
                "end_time": 47.60681818181818,
                "pitch": 60,
                "velocity": 51,
                "duration": 0.0954545454545439,
                "tempo": 120.0
            },
            {
                "start_time": 47.60681818181818,
                "end_time": 47.68863636363636,
                "pitch": 60,
                "velocity": 20,
                "duration": 0.08181818181818556,
                "tempo": 120.0
            },
            {
                "start_time": 47.68863636363636,
                "end_time": 47.775,
                "pitch": 60,
                "velocity": 51,
                "duration": 0.08636363636363598,
                "tempo": 120.0
            },
            {
                "start_time": 47.775,
                "end_time": 47.877272727272725,
                "pitch": 60,
                "velocity": 20,
                "duration": 0.10227272727272663,
                "tempo": 120.0
            },
            {
                "start_time": 47.877272727272725,
                "end_time": 47.96363636363636,
                "pitch": 60,
                "velocity": 51,
                "duration": 0.08636363636363598,
                "tempo": 120.0
            },
            {
                "start_time": 47.96363636363636,
                "end_time": 48.05,
                "pitch": 60,
                "velocity": 20,
                "duration": 0.08636363636363598,
                "tempo": 120.0
            },
            {
                "start_time": 48.05,
                "end_time": 48.14545454545454,
                "pitch": 60,
                "velocity": 51,
                "duration": 0.0954545454545439,
                "tempo": 120.0
            },
            {
                "start_time": 48.14772727272727,
                "end_time": 48.22727272727273,
                "pitch": 60,
                "velocity": 20,
                "duration": 0.07954545454545325,
                "tempo": 120.0
            },
            {
                "start_time": 48.22954545454545,
                "end_time": 48.309090909090905,
                "pitch": 60,
                "velocity": 51,
                "duration": 0.07954545454545325,
                "tempo": 120.0
            },
            {
                "start_time": 48.309090909090905,
                "end_time": 48.40681818181818,
                "pitch": 60,
                "velocity": 20,
                "duration": 0.09772727272727622,
                "tempo": 120.0
            },
            {
                "start_time": 48.40681818181818,
                "end_time": 48.49318181818182,
                "pitch": 60,
                "velocity": 51,
                "duration": 0.08636363636363598,
                "tempo": 120.0
            },
            {
                "start_time": 48.49318181818182,
                "end_time": 48.57727272727273,
                "pitch": 60,
                "velocity": 20,
                "duration": 0.08409090909091077,
                "tempo": 120.0
            },
            {
                "start_time": 49.13636363636363,
                "end_time": 49.215909090909086,
                "pitch": 60,
                "velocity": 51,
                "duration": 0.07954545454545325,
                "tempo": 120.0
            },
            {
                "start_time": 49.21818181818182,
                "end_time": 49.29772727272727,
                "pitch": 60,
                "velocity": 20,
                "duration": 0.07954545454545325,
                "tempo": 120.0
            },
            {
                "start_time": 49.3,
                "end_time": 49.39545454545454,
                "pitch": 60,
                "velocity": 51,
                "duration": 0.0954545454545439,
                "tempo": 120.0
            },
            {
                "start_time": 49.39545454545454,
                "end_time": 49.47727272727273,
                "pitch": 60,
                "velocity": 20,
                "duration": 0.08181818181818556,
                "tempo": 120.0
            },
            {
                "start_time": 49.47727272727273,
                "end_time": 49.56136363636364,
                "pitch": 60,
                "velocity": 51,
                "duration": 0.08409090909091077,
                "tempo": 120.0
            },
            {
                "start_time": 49.56136363636364,
                "end_time": 49.66136363636363,
                "pitch": 60,
                "velocity": 20,
                "duration": 0.09999999999999432,
                "tempo": 120.0
            },
            {
                "start_time": 49.66136363636363,
                "end_time": 49.74545454545454,
                "pitch": 60,
                "velocity": 51,
                "duration": 0.08409090909091077,
                "tempo": 120.0
            },
            {
                "start_time": 49.74545454545454,
                "end_time": 49.82954545454545,
                "pitch": 60,
                "velocity": 20,
                "duration": 0.08409090909091077,
                "tempo": 120.0
            },
            {
                "start_time": 49.82954545454545,
                "end_time": 49.92727272727272,
                "pitch": 60,
                "velocity": 51,
                "duration": 0.09772727272726911,
                "tempo": 120.0
            },
            {
                "start_time": 49.92727272727272,
                "end_time": 50.00681818181818,
                "pitch": 60,
                "velocity": 20,
                "duration": 0.07954545454546036,
                "tempo": 120.0
            },
            {
                "start_time": 50.00909090909091,
                "end_time": 50.10454545454545,
                "pitch": 60,
                "velocity": 51,
                "duration": 0.0954545454545439,
                "tempo": 120.0
            },
            {
                "start_time": 50.10454545454545,
                "end_time": 50.18636363636364,
                "pitch": 60,
                "velocity": 20,
                "duration": 0.08181818181818556,
                "tempo": 120.0
            },
            {
                "start_time": 50.18636363636364,
                "end_time": 50.27045454545454,
                "pitch": 60,
                "velocity": 51,
                "duration": 0.08409090909090366,
                "tempo": 120.0
            },
            {
                "start_time": 50.27045454545454,
                "end_time": 50.37045454545454,
                "pitch": 60,
                "velocity": 20,
                "duration": 0.10000000000000142,
                "tempo": 120.0
            },
            {
                "start_time": 50.37272727272727,
                "end_time": 50.45454545454545,
                "pitch": 60,
                "velocity": 51,
                "duration": 0.08181818181818556,
                "tempo": 120.0
            },
            {
                "start_time": 50.45454545454545,
                "end_time": 50.538636363636364,
                "pitch": 60,
                "velocity": 20,
                "duration": 0.08409090909091077,
                "tempo": 120.0
            },
            {
                "start_time": 50.538636363636364,
                "end_time": 50.63636363636363,
                "pitch": 60,
                "velocity": 51,
                "duration": 0.09772727272726911,
                "tempo": 120.0
            },
            {
                "start_time": 50.63636363636363,
                "end_time": 50.71818181818182,
                "pitch": 60,
                "velocity": 20,
                "duration": 0.08181818181818556,
                "tempo": 120.0
            },
            {
                "start_time": 50.71818181818182,
                "end_time": 50.79772727272727,
                "pitch": 60,
                "velocity": 51,
                "duration": 0.07954545454545325,
                "tempo": 120.0
            },
            {
                "start_time": 50.79772727272727,
                "end_time": 50.89545454545454,
                "pitch": 60,
                "velocity": 20,
                "duration": 0.09772727272726911,
                "tempo": 120.0
            },
            {
                "start_time": 50.89772727272727,
                "end_time": 50.98181818181818,
                "pitch": 60,
                "velocity": 51,
                "duration": 0.08409090909090366,
                "tempo": 120.0
            },
            {
                "start_time": 50.98181818181818,
                "end_time": 51.06818181818181,
                "pitch": 60,
                "velocity": 20,
                "duration": 0.08636363636363598,
                "tempo": 120.0
            },
            {
                "start_time": 51.06818181818181,
                "end_time": 51.17045454545454,
                "pitch": 60,
                "velocity": 51,
                "duration": 0.10227272727272663,
                "tempo": 120.0
            },
            {
                "start_time": 51.17045454545454,
                "end_time": 51.25681818181818,
                "pitch": 60,
                "velocity": 20,
                "duration": 0.08636363636364308,
                "tempo": 120.0
            },
            {
                "start_time": 51.25681818181818,
                "end_time": 51.35454545454545,
                "pitch": 60,
                "velocity": 51,
                "duration": 0.09772727272726911,
                "tempo": 120.0
            },
            {
                "start_time": 51.35454545454545,
                "end_time": 51.43636363636364,
                "pitch": 60,
                "velocity": 20,
                "duration": 0.08181818181818556,
                "tempo": 120.0
            },
            {
                "start_time": 51.43636363636364,
                "end_time": 51.51590909090909,
                "pitch": 60,
                "velocity": 51,
                "duration": 0.07954545454545325,
                "tempo": 120.0
            },
            {
                "start_time": 51.51590909090909,
                "end_time": 51.61363636363636,
                "pitch": 60,
                "velocity": 20,
                "duration": 0.09772727272726911,
                "tempo": 120.0
            },
            {
                "start_time": 51.615909090909085,
                "end_time": 51.699999999999996,
                "pitch": 60,
                "velocity": 51,
                "duration": 0.08409090909091077,
                "tempo": 120.0
            },
            {
                "start_time": 51.699999999999996,
                "end_time": 51.78636363636363,
                "pitch": 60,
                "velocity": 20,
                "duration": 0.08636363636363598,
                "tempo": 120.0
            },
            {
                "start_time": 51.78636363636363,
                "end_time": 51.88863636363636,
                "pitch": 60,
                "velocity": 51,
                "duration": 0.10227272727272663,
                "tempo": 120.0
            },
            {
                "start_time": 51.88863636363636,
                "end_time": 51.974999999999994,
                "pitch": 60,
                "velocity": 20,
                "duration": 0.08636363636363598,
                "tempo": 120.0
            },
            {
                "start_time": 51.974999999999994,
                "end_time": 52.05681818181818,
                "pitch": 60,
                "velocity": 51,
                "duration": 0.08181818181818556,
                "tempo": 120.0
            },
            {
                "start_time": 52.05681818181818,
                "end_time": 52.15454545454545,
                "pitch": 60,
                "velocity": 20,
                "duration": 0.09772727272726911,
                "tempo": 120.0
            },
            {
                "start_time": 52.15454545454545,
                "end_time": 52.23409090909091,
                "pitch": 60,
                "velocity": 51,
                "duration": 0.07954545454546036,
                "tempo": 120.0
            },
            {
                "start_time": 52.23409090909091,
                "end_time": 52.31590909090909,
                "pitch": 60,
                "velocity": 20,
                "duration": 0.08181818181817846,
                "tempo": 120.0
            },
            {
                "start_time": 52.31590909090909,
                "end_time": 52.413636363636364,
                "pitch": 60,
                "velocity": 51,
                "duration": 0.09772727272727622,
                "tempo": 120.0
            },
            {
                "start_time": 52.413636363636364,
                "end_time": 52.49545454545454,
                "pitch": 60,
                "velocity": 20,
                "duration": 0.08181818181817846,
                "tempo": 120.0
            },
            {
                "start_time": 52.49545454545454,
                "end_time": 52.59318181818182,
                "pitch": 60,
                "velocity": 51,
                "duration": 0.09772727272727622,
                "tempo": 120.0
            },
            {
                "start_time": 52.59318181818182,
                "end_time": 52.675,
                "pitch": 60,
                "velocity": 20,
                "duration": 0.08181818181817846,
                "tempo": 120.0
            },
            {
                "start_time": 52.675,
                "end_time": 52.75909090909091,
                "pitch": 60,
                "velocity": 51,
                "duration": 0.08409090909091077,
                "tempo": 120.0
            },
            {
                "start_time": 52.75909090909091,
                "end_time": 52.86363636363636,
                "pitch": 60,
                "velocity": 20,
                "duration": 0.10454545454545183,
                "tempo": 120.0
            },
            {
                "start_time": 52.86363636363636,
                "end_time": 52.94772727272727,
                "pitch": 60,
                "velocity": 51,
                "duration": 0.08409090909091077,
                "tempo": 120.0
            },
            {
                "start_time": 52.94772727272727,
                "end_time": 53.03409090909091,
                "pitch": 60,
                "velocity": 20,
                "duration": 0.08636363636363598,
                "tempo": 120.0
            },
            {
                "start_time": 53.03409090909091,
                "end_time": 53.13181818181818,
                "pitch": 60,
                "velocity": 51,
                "duration": 0.09772727272727622,
                "tempo": 120.0
            },
            {
                "start_time": 53.13181818181818,
                "end_time": 53.21363636363636,
                "pitch": 60,
                "velocity": 20,
                "duration": 0.08181818181817846,
                "tempo": 120.0
            },
            {
                "start_time": 53.21363636363636,
                "end_time": 53.29545454545454,
                "pitch": 60,
                "velocity": 51,
                "duration": 0.08181818181817846,
                "tempo": 120.0
            },
            {
                "start_time": 53.29545454545454,
                "end_time": 53.393181818181816,
                "pitch": 60,
                "velocity": 20,
                "duration": 0.09772727272727622,
                "tempo": 120.0
            },
            {
                "start_time": 53.393181818181816,
                "end_time": 53.474999999999994,
                "pitch": 60,
                "velocity": 51,
                "duration": 0.08181818181817846,
                "tempo": 120.0
            },
            {
                "start_time": 53.47727272727273,
                "end_time": 53.559090909090905,
                "pitch": 60,
                "velocity": 20,
                "duration": 0.08181818181817846,
                "tempo": 120.0
            },
            {
                "start_time": 53.56136363636363,
                "end_time": 53.65909090909091,
                "pitch": 60,
                "velocity": 51,
                "duration": 0.09772727272727622,
                "tempo": 120.0
            },
            {
                "start_time": 53.66136363636363,
                "end_time": 53.74318181818182,
                "pitch": 60,
                "velocity": 20,
                "duration": 0.08181818181818556,
                "tempo": 120.0
            },
            {
                "start_time": 53.74545454545454,
                "end_time": 53.845454545454544,
                "pitch": 60,
                "velocity": 51,
                "duration": 0.10000000000000142,
                "tempo": 120.0
            },
            {
                "start_time": 53.845454545454544,
                "end_time": 53.929545454545455,
                "pitch": 60,
                "velocity": 20,
                "duration": 0.08409090909091077,
                "tempo": 120.0
            },
            {
                "start_time": 53.929545454545455,
                "end_time": 54.01136363636363,
                "pitch": 60,
                "velocity": 51,
                "duration": 0.08181818181817846,
                "tempo": 120.0
            },
            {
                "start_time": 54.01136363636363,
                "end_time": 54.11363636363636,
                "pitch": 60,
                "velocity": 20,
                "duration": 0.10227272727272663,
                "tempo": 120.0
            },
            {
                "start_time": 54.11363636363636,
                "end_time": 54.195454545454545,
                "pitch": 60,
                "velocity": 51,
                "duration": 0.08181818181818556,
                "tempo": 120.0
            },
            {
                "start_time": 54.19772727272727,
                "end_time": 54.27954545454545,
                "pitch": 60,
                "velocity": 20,
                "duration": 0.08181818181817846,
                "tempo": 120.0
            },
            {
                "start_time": 54.28181818181818,
                "end_time": 54.37954545454545,
                "pitch": 60,
                "velocity": 51,
                "duration": 0.09772727272726911,
                "tempo": 120.0
            },
            {
                "start_time": 54.38181818181818,
                "end_time": 54.46363636363636,
                "pitch": 60,
                "velocity": 20,
                "duration": 0.08181818181817846,
                "tempo": 120.0
            },
            {
                "start_time": 54.465909090909086,
                "end_time": 54.54545454545454,
                "pitch": 60,
                "velocity": 51,
                "duration": 0.07954545454545325,
                "tempo": 120.0
            },
            {
                "start_time": 54.54545454545454,
                "end_time": 54.643181818181816,
                "pitch": 60,
                "velocity": 20,
                "duration": 0.09772727272727622,
                "tempo": 120.0
            },
            {
                "start_time": 54.643181818181816,
                "end_time": 54.724999999999994,
                "pitch": 60,
                "velocity": 51,
                "duration": 0.08181818181817846,
                "tempo": 120.0
            },
            {
                "start_time": 54.724999999999994,
                "end_time": 54.80681818181818,
                "pitch": 60,
                "velocity": 20,
                "duration": 0.08181818181818556,
                "tempo": 120.0
            },
            {
                "start_time": 54.80681818181818,
                "end_time": 54.902272727272724,
                "pitch": 60,
                "velocity": 51,
                "duration": 0.0954545454545439,
                "tempo": 120.0
            },
            {
                "start_time": 54.90454545454545,
                "end_time": 54.98409090909091,
                "pitch": 60,
                "velocity": 20,
                "duration": 0.07954545454546036,
                "tempo": 120.0
            },
            {
                "start_time": 54.986363636363635,
                "end_time": 55.08181818181818,
                "pitch": 60,
                "velocity": 51,
                "duration": 0.0954545454545439,
                "tempo": 120.0
            },
            {
                "start_time": 55.08181818181818,
                "end_time": 55.163636363636364,
                "pitch": 60,
                "velocity": 20,
                "duration": 0.08181818181818556,
                "tempo": 120.0
            },
            {
                "start_time": 55.163636363636364,
                "end_time": 55.25,
                "pitch": 60,
                "velocity": 51,
                "duration": 0.08636363636363598,
                "tempo": 120.0
            },
            {
                "start_time": 55.25,
                "end_time": 55.35227272727273,
                "pitch": 60,
                "velocity": 20,
                "duration": 0.10227272727272663,
                "tempo": 120.0
            },
            {
                "start_time": 55.35227272727273,
                "end_time": 55.43863636363636,
                "pitch": 60,
                "velocity": 51,
                "duration": 0.08636363636363598,
                "tempo": 120.0
            },
            {
                "start_time": 55.43863636363636,
                "end_time": 55.525,
                "pitch": 60,
                "velocity": 20,
                "duration": 0.08636363636363598,
                "tempo": 120.0
            },
            {
                "start_time": 55.525,
                "end_time": 55.62045454545454,
                "pitch": 60,
                "velocity": 51,
                "duration": 0.0954545454545439,
                "tempo": 120.0
            },
            {
                "start_time": 55.62272727272727,
                "end_time": 55.70227272727273,
                "pitch": 60,
                "velocity": 20,
                "duration": 0.07954545454546036,
                "tempo": 120.0
            },
            {
                "start_time": 55.70454545454545,
                "end_time": 55.78409090909091,
                "pitch": 60,
                "velocity": 51,
                "duration": 0.07954545454545325,
                "tempo": 120.0
            },
            {
                "start_time": 55.78409090909091,
                "end_time": 55.881818181818176,
                "pitch": 60,
                "velocity": 20,
                "duration": 0.09772727272726911,
                "tempo": 120.0
            },
            {
                "start_time": 55.881818181818176,
                "end_time": 55.96818181818182,
                "pitch": 60,
                "velocity": 51,
                "duration": 0.08636363636364308,
                "tempo": 120.0
            },
            {
                "start_time": 55.96818181818182,
                "end_time": 56.05227272727272,
                "pitch": 60,
                "velocity": 20,
                "duration": 0.08409090909090366,
                "tempo": 120.0
            },
            {
                "start_time": 56.054545454545455,
                "end_time": 56.15681818181818,
                "pitch": 60,
                "velocity": 51,
                "duration": 0.10227272727272663,
                "tempo": 120.0
            },
            {
                "start_time": 56.15681818181818,
                "end_time": 56.24318181818182,
                "pitch": 60,
                "velocity": 20,
                "duration": 0.08636363636363598,
                "tempo": 120.0
            },
            {
                "start_time": 56.24318181818182,
                "end_time": 56.33863636363636,
                "pitch": 60,
                "velocity": 51,
                "duration": 0.0954545454545439,
                "tempo": 120.0
            },
            {
                "start_time": 56.340909090909086,
                "end_time": 56.42045454545454,
                "pitch": 60,
                "velocity": 20,
                "duration": 0.07954545454545325,
                "tempo": 120.0
            },
            {
                "start_time": 56.42272727272727,
                "end_time": 56.502272727272725,
                "pitch": 60,
                "velocity": 51,
                "duration": 0.07954545454545325,
                "tempo": 120.0
            },
            {
                "start_time": 56.502272727272725,
                "end_time": 56.599999999999994,
                "pitch": 60,
                "velocity": 20,
                "duration": 0.09772727272726911,
                "tempo": 120.0
            },
            {
                "start_time": 56.599999999999994,
                "end_time": 56.68636363636363,
                "pitch": 60,
                "velocity": 51,
                "duration": 0.08636363636363598,
                "tempo": 120.0
            },
            {
                "start_time": 56.68636363636363,
                "end_time": 56.77045454545454,
                "pitch": 60,
                "velocity": 20,
                "duration": 0.08409090909091077,
                "tempo": 120.0
            },
            {
                "start_time": 56.77272727272727,
                "end_time": 56.875,
                "pitch": 60,
                "velocity": 51,
                "duration": 0.10227272727272663,
                "tempo": 120.0
            },
            {
                "start_time": 56.875,
                "end_time": 56.959090909090904,
                "pitch": 60,
                "velocity": 20,
                "duration": 0.08409090909090366,
                "tempo": 120.0
            },
            {
                "start_time": 56.961363636363636,
                "end_time": 57.038636363636364,
                "pitch": 60,
                "velocity": 51,
                "duration": 0.07727272727272805,
                "tempo": 120.0
            },
            {
                "start_time": 57.038636363636364,
                "end_time": 57.13409090909091,
                "pitch": 60,
                "velocity": 20,
                "duration": 0.0954545454545439,
                "tempo": 120.0
            },
            {
                "start_time": 57.13409090909091,
                "end_time": 57.211363636363636,
                "pitch": 60,
                "velocity": 51,
                "duration": 0.07727272727272805,
                "tempo": 120.0
            },
            {
                "start_time": 57.21363636363636,
                "end_time": 57.29090909090909,
                "pitch": 60,
                "velocity": 20,
                "duration": 0.07727272727272805,
                "tempo": 120.0
            },
            {
                "start_time": 57.293181818181814,
                "end_time": 57.39090909090909,
                "pitch": 60,
                "velocity": 51,
                "duration": 0.09772727272727622,
                "tempo": 120.0
            },
            {
                "start_time": 57.39090909090909,
                "end_time": 57.474999999999994,
                "pitch": 60,
                "velocity": 20,
                "duration": 0.08409090909090366,
                "tempo": 120.0
            },
            {
                "start_time": 57.474999999999994,
                "end_time": 57.574999999999996,
                "pitch": 60,
                "velocity": 51,
                "duration": 0.10000000000000142,
                "tempo": 120.0
            },
            {
                "start_time": 57.57727272727272,
                "end_time": 57.65909090909091,
                "pitch": 60,
                "velocity": 20,
                "duration": 0.08181818181818556,
                "tempo": 120.0
            },
            {
                "start_time": 57.66136363636363,
                "end_time": 57.74318181818182,
                "pitch": 60,
                "velocity": 51,
                "duration": 0.08181818181818556,
                "tempo": 120.0
            },
            {
                "start_time": 57.74318181818182,
                "end_time": 57.84318181818182,
                "pitch": 60,
                "velocity": 20,
                "duration": 0.10000000000000142,
                "tempo": 120.0
            },
            {
                "start_time": 57.845454545454544,
                "end_time": 57.92727272727272,
                "pitch": 60,
                "velocity": 51,
                "duration": 0.08181818181817846,
                "tempo": 120.0
            },
            {
                "start_time": 57.92727272727272,
                "end_time": 58.01136363636363,
                "pitch": 60,
                "velocity": 20,
                "duration": 0.08409090909091077,
                "tempo": 120.0
            },
            {
                "start_time": 58.01136363636363,
                "end_time": 58.111363636363635,
                "pitch": 60,
                "velocity": 51,
                "duration": 0.10000000000000142,
                "tempo": 120.0
            },
            {
                "start_time": 58.111363636363635,
                "end_time": 58.195454545454545,
                "pitch": 60,
                "velocity": 20,
                "duration": 0.08409090909091077,
                "tempo": 120.0
            },
            {
                "start_time": 58.195454545454545,
                "end_time": 58.27954545454545,
                "pitch": 60,
                "velocity": 51,
                "duration": 0.08409090909090366,
                "tempo": 120.0
            },
            {
                "start_time": 58.27954545454545,
                "end_time": 58.37954545454545,
                "pitch": 60,
                "velocity": 20,
                "duration": 0.10000000000000142,
                "tempo": 120.0
            },
            {
                "start_time": 58.381818181818176,
                "end_time": 58.46363636363636,
                "pitch": 60,
                "velocity": 51,
                "duration": 0.08181818181818556,
                "tempo": 120.0
            },
            {
                "start_time": 58.46363636363636,
                "end_time": 58.54772727272727,
                "pitch": 60,
                "velocity": 20,
                "duration": 0.08409090909091077,
                "tempo": 120.0
            },
            {
                "start_time": 58.54772727272727,
                "end_time": 58.64772727272727,
                "pitch": 60,
                "velocity": 51,
                "duration": 0.10000000000000142,
                "tempo": 120.0
            },
            {
                "start_time": 58.64772727272727,
                "end_time": 58.73181818181818,
                "pitch": 60,
                "velocity": 20,
                "duration": 0.08409090909090366,
                "tempo": 120.0
            },
            {
                "start_time": 58.73181818181818,
                "end_time": 58.82954545454545,
                "pitch": 60,
                "velocity": 51,
                "duration": 0.09772727272727622,
                "tempo": 120.0
            },
            {
                "start_time": 58.82954545454545,
                "end_time": 58.91136363636363,
                "pitch": 60,
                "velocity": 20,
                "duration": 0.08181818181817846,
                "tempo": 120.0
            },
            {
                "start_time": 58.91136363636363,
                "end_time": 58.990909090909085,
                "pitch": 60,
                "velocity": 51,
                "duration": 0.07954545454545325,
                "tempo": 120.0
            },
            {
                "start_time": 58.99318181818182,
                "end_time": 59.08863636363636,
                "pitch": 60,
                "velocity": 20,
                "duration": 0.0954545454545439,
                "tempo": 120.0
            },
            {
                "start_time": 59.090909090909086,
                "end_time": 59.175,
                "pitch": 60,
                "velocity": 51,
                "duration": 0.08409090909091077,
                "tempo": 120.0
            },
            {
                "start_time": 59.175,
                "end_time": 59.26136363636363,
                "pitch": 60,
                "velocity": 20,
                "duration": 0.08636363636363598,
                "tempo": 120.0
            },
            {
                "start_time": 59.26136363636363,
                "end_time": 59.36363636363636,
                "pitch": 60,
                "velocity": 51,
                "duration": 0.10227272727272663,
                "tempo": 120.0
            },
            {
                "start_time": 59.36363636363636,
                "end_time": 59.449999999999996,
                "pitch": 60,
                "velocity": 20,
                "duration": 0.08636363636363598,
                "tempo": 120.0
            },
            {
                "start_time": 59.449999999999996,
                "end_time": 59.53181818181818,
                "pitch": 60,
                "velocity": 51,
                "duration": 0.08181818181818556,
                "tempo": 120.0
            },
            {
                "start_time": 59.53181818181818,
                "end_time": 59.62954545454545,
                "pitch": 60,
                "velocity": 20,
                "duration": 0.09772727272726911,
                "tempo": 120.0
            },
            {
                "start_time": 59.62954545454545,
                "end_time": 59.709090909090904,
                "pitch": 60,
                "velocity": 51,
                "duration": 0.07954545454545325,
                "tempo": 120.0
            },
            {
                "start_time": 59.711363636363636,
                "end_time": 59.79090909090909,
                "pitch": 60,
                "velocity": 20,
                "duration": 0.07954545454545325,
                "tempo": 120.0
            },
            {
                "start_time": 59.793181818181814,
                "end_time": 59.88863636363636,
                "pitch": 60,
                "velocity": 51,
                "duration": 0.0954545454545439,
                "tempo": 120.0
            },
            {
                "start_time": 59.88863636363636,
                "end_time": 59.970454545454544,
                "pitch": 60,
                "velocity": 20,
                "duration": 0.08181818181818556,
                "tempo": 120.0
            },
            {
                "start_time": 59.970454545454544,
                "end_time": 60.06818181818181,
                "pitch": 60,
                "velocity": 51,
                "duration": 0.09772727272726911,
                "tempo": 120.0
            },
            {
                "start_time": 60.06818181818181,
                "end_time": 60.15,
                "pitch": 60,
                "velocity": 20,
                "duration": 0.08181818181818556,
                "tempo": 120.0
            },
            {
                "start_time": 60.15,
                "end_time": 60.23409090909091,
                "pitch": 60,
                "velocity": 51,
                "duration": 0.08409090909091077,
                "tempo": 120.0
            },
            {
                "start_time": 60.23409090909091,
                "end_time": 60.33863636363636,
                "pitch": 60,
                "velocity": 20,
                "duration": 0.10454545454545183,
                "tempo": 120.0
            },
            {
                "start_time": 60.33863636363636,
                "end_time": 60.42272727272727,
                "pitch": 60,
                "velocity": 51,
                "duration": 0.08409090909091077,
                "tempo": 120.0
            },
            {
                "start_time": 60.42272727272727,
                "end_time": 60.50909090909091,
                "pitch": 60,
                "velocity": 20,
                "duration": 0.08636363636363598,
                "tempo": 120.0
            }
        ],
        "Synth Bass 1": [
            {
                "start_time": 14.256818181818181,
                "end_time": 14.788636363636362,
                "pitch": 65,
                "velocity": 64,
                "duration": 0.5318181818181813,
                "tempo": 120.0
            },
            {
                "start_time": 14.788636363636362,
                "end_time": 14.899999999999999,
                "pitch": 67,
                "velocity": 64,
                "duration": 0.11136363636363633,
                "tempo": 120.0
            },
            {
                "start_time": 14.899999999999999,
                "end_time": 14.95,
                "pitch": 67,
                "velocity": 64,
                "duration": 0.05000000000000071,
                "tempo": 120.0
            },
            {
                "start_time": 14.95,
                "end_time": 15.129545454545454,
                "pitch": 69,
                "velocity": 64,
                "duration": 0.17954545454545467,
                "tempo": 120.0
            },
            {
                "start_time": 15.129545454545454,
                "end_time": 15.227272727272727,
                "pitch": 70,
                "velocity": 64,
                "duration": 0.09772727272727266,
                "tempo": 120.0
            },
            {
                "start_time": 15.227272727272727,
                "end_time": 15.309090909090909,
                "pitch": 69,
                "velocity": 64,
                "duration": 0.08181818181818201,
                "tempo": 120.0
            },
            {
                "start_time": 15.309090909090909,
                "end_time": 15.427272727272726,
                "pitch": 67,
                "velocity": 64,
                "duration": 0.11818181818181728,
                "tempo": 120.0
            },
            {
                "start_time": 14.899999999999999,
                "end_time": 15.427272727272726,
                "pitch": 79,
                "velocity": 64,
                "duration": 0.5272727272727273,
                "tempo": 120.0
            },
            {
                "start_time": 15.427272727272726,
                "end_time": 15.497727272727271,
                "pitch": 67,
                "velocity": 64,
                "duration": 0.07045454545454533,
                "tempo": 120.0
            },
            {
                "start_time": 15.497727272727271,
                "end_time": 15.668181818181818,
                "pitch": 65,
                "velocity": 64,
                "duration": 0.17045454545454675,
                "tempo": 120.0
            },
            {
                "start_time": 15.668181818181818,
                "end_time": 15.7,
                "pitch": 71,
                "velocity": 64,
                "duration": 0.0318181818181813,
                "tempo": 120.0
            },
            {
                "start_time": 15.7,
                "end_time": 16.027272727272727,
                "pitch": 72,
                "velocity": 64,
                "duration": 0.32727272727272805,
                "tempo": 120.0
            },
            {
                "start_time": 16.027272727272727,
                "end_time": 16.05909090909091,
                "pitch": 71,
                "velocity": 64,
                "duration": 0.0318181818181813,
                "tempo": 120.0
            },
            {
                "start_time": 16.05909090909091,
                "end_time": 16.386363636363637,
                "pitch": 72,
                "velocity": 64,
                "duration": 0.32727272727272805,
                "tempo": 120.0
            },
            {
                "start_time": 16.386363636363637,
                "end_time": 16.418181818181818,
                "pitch": 71,
                "velocity": 64,
                "duration": 0.0318181818181813,
                "tempo": 120.0
            },
            {
                "start_time": 16.418181818181818,
                "end_time": 16.745454545454546,
                "pitch": 72,
                "velocity": 64,
                "duration": 0.32727272727272805,
                "tempo": 120.0
            },
            {
                "start_time": 16.745454545454546,
                "end_time": 16.829545454545453,
                "pitch": 67,
                "velocity": 64,
                "duration": 0.08409090909090722,
                "tempo": 120.0
            },
            {
                "start_time": 16.829545454545453,
                "end_time": 16.91590909090909,
                "pitch": 65,
                "velocity": 64,
                "duration": 0.08636363636363598,
                "tempo": 120.0
            },
            {
                "start_time": 16.91590909090909,
                "end_time": 17.018181818181816,
                "pitch": 64,
                "velocity": 64,
                "duration": 0.10227272727272663,
                "tempo": 120.0
            },
            {
                "start_time": 17.018181818181816,
                "end_time": 17.104545454545455,
                "pitch": 62,
                "velocity": 64,
                "duration": 0.08636363636363953,
                "tempo": 120.0
            },
            {
                "start_time": 17.104545454545455,
                "end_time": 17.18409090909091,
                "pitch": 72,
                "velocity": 64,
                "duration": 0.07954545454545325,
                "tempo": 120.0
            },
            {
                "start_time": 17.18409090909091,
                "end_time": 17.277272727272727,
                "pitch": 74,
                "velocity": 64,
                "duration": 0.0931818181818187,
                "tempo": 120.0
            },
            {
                "start_time": 17.277272727272727,
                "end_time": 17.35681818181818,
                "pitch": 76,
                "velocity": 64,
                "duration": 0.07954545454545325,
                "tempo": 120.0
            },
            {
                "start_time": 17.35681818181818,
                "end_time": 17.436363636363634,
                "pitch": 77,
                "velocity": 64,
                "duration": 0.07954545454545325,
                "tempo": 120.0
            },
            {
                "start_time": 15.427272727272726,
                "end_time": 17.536363636363635,
                "pitch": 79,
                "velocity": 64,
                "duration": 2.1090909090909093,
                "tempo": 120.0
            },
            {
                "start_time": 17.436363636363634,
                "end_time": 17.536363636363635,
                "pitch": 79,
                "velocity": 64,
                "duration": 0.10000000000000142,
                "tempo": 120.0
            },
            {
                "start_time": 17.536363636363635,
                "end_time": 17.620454545454546,
                "pitch": 77,
                "velocity": 64,
                "duration": 0.08409090909091077,
                "tempo": 120.0
            },
            {
                "start_time": 17.620454545454546,
                "end_time": 17.720454545454544,
                "pitch": 76,
                "velocity": 64,
                "duration": 0.09999999999999787,
                "tempo": 120.0
            },
            {
                "start_time": 17.720454545454544,
                "end_time": 17.804545454545455,
                "pitch": 74,
                "velocity": 64,
                "duration": 0.08409090909091077,
                "tempo": 120.0
            },
            {
                "start_time": 17.804545454545455,
                "end_time": 17.888636363636362,
                "pitch": 72,
                "velocity": 64,
                "duration": 0.08409090909090722,
                "tempo": 120.0
            },
            {
                "start_time": 17.888636363636362,
                "end_time": 17.988636363636363,
                "pitch": 74,
                "velocity": 64,
                "duration": 0.10000000000000142,
                "tempo": 120.0
            },
            {
                "start_time": 17.988636363636363,
                "end_time": 18.07272727272727,
                "pitch": 76,
                "velocity": 64,
                "duration": 0.08409090909090722,
                "tempo": 120.0
            },
            {
                "start_time": 18.07272727272727,
                "end_time": 18.15681818181818,
                "pitch": 77,
                "velocity": 64,
                "duration": 0.08409090909091077,
                "tempo": 120.0
            },
            {
                "start_time": 18.15681818181818,
                "end_time": 18.252272727272725,
                "pitch": 79,
                "velocity": 64,
                "duration": 0.0954545454545439,
                "tempo": 120.0
            },
            {
                "start_time": 18.254545454545454,
                "end_time": 18.334090909090907,
                "pitch": 77,
                "velocity": 64,
                "duration": 0.07954545454545325,
                "tempo": 120.0
            },
            {
                "start_time": 18.334090909090907,
                "end_time": 18.41590909090909,
                "pitch": 76,
                "velocity": 64,
                "duration": 0.08181818181818201,
                "tempo": 120.0
            },
            {
                "start_time": 18.41590909090909,
                "end_time": 18.513636363636362,
                "pitch": 74,
                "velocity": 64,
                "duration": 0.09772727272727266,
                "tempo": 120.0
            },
            {
                "start_time": 18.513636363636362,
                "end_time": 18.599999999999998,
                "pitch": 72,
                "velocity": 51,
                "duration": 0.08636363636363598,
                "tempo": 120.0
            },
            {
                "start_time": 18.599999999999998,
                "end_time": 18.68409090909091,
                "pitch": 72,
                "velocity": 25,
                "duration": 0.08409090909091077,
                "tempo": 120.0
            },
            {
                "start_time": 18.686363636363634,
                "end_time": 18.788636363636364,
                "pitch": 72,
                "velocity": 51,
                "duration": 0.10227272727273018,
                "tempo": 120.0
            },
            {
                "start_time": 18.788636363636364,
                "end_time": 18.875,
                "pitch": 72,
                "velocity": 25,
                "duration": 0.08636363636363598,
                "tempo": 120.0
            },
            {
                "start_time": 18.875,
                "end_time": 18.970454545454544,
                "pitch": 72,
                "velocity": 51,
                "duration": 0.0954545454545439,
                "tempo": 120.0
            },
            {
                "start_time": 18.972727272727273,
                "end_time": 19.052272727272726,
                "pitch": 72,
                "velocity": 25,
                "duration": 0.07954545454545325,
                "tempo": 120.0
            },
            {
                "start_time": 19.052272727272726,
                "end_time": 19.134090909090908,
                "pitch": 72,
                "velocity": 51,
                "duration": 0.08181818181818201,
                "tempo": 120.0
            },
            {
                "start_time": 19.134090909090908,
                "end_time": 19.23181818181818,
                "pitch": 72,
                "velocity": 25,
                "duration": 0.09772727272727266,
                "tempo": 120.0
            },
            {
                "start_time": 19.23181818181818,
                "end_time": 19.318181818181817,
                "pitch": 72,
                "velocity": 51,
                "duration": 0.08636363636363598,
                "tempo": 120.0
            },
            {
                "start_time": 19.318181818181817,
                "end_time": 19.402272727272727,
                "pitch": 72,
                "velocity": 25,
                "duration": 0.08409090909091077,
                "tempo": 120.0
            },
            {
                "start_time": 19.404545454545453,
                "end_time": 19.50681818181818,
                "pitch": 72,
                "velocity": 51,
                "duration": 0.10227272727272663,
                "tempo": 120.0
            },
            {
                "start_time": 19.50681818181818,
                "end_time": 19.59318181818182,
                "pitch": 72,
                "velocity": 25,
                "duration": 0.08636363636363953,
                "tempo": 120.0
            },
            {
                "start_time": 19.59318181818182,
                "end_time": 19.672727272727272,
                "pitch": 72,
                "velocity": 51,
                "duration": 0.07954545454545325,
                "tempo": 120.0
            },
            {
                "start_time": 19.672727272727272,
                "end_time": 19.770454545454545,
                "pitch": 72,
                "velocity": 25,
                "duration": 0.09772727272727266,
                "tempo": 120.0
            },
            {
                "start_time": 19.770454545454545,
                "end_time": 19.852272727272727,
                "pitch": 72,
                "velocity": 51,
                "duration": 0.08181818181818201,
                "tempo": 120.0
            },
            {
                "start_time": 19.852272727272727,
                "end_time": 19.93409090909091,
                "pitch": 72,
                "velocity": 25,
                "duration": 0.08181818181818201,
                "tempo": 120.0
            },
            {
                "start_time": 19.93409090909091,
                "end_time": 20.474999999999998,
                "pitch": 65,
                "velocity": 64,
                "duration": 0.5409090909090892,
                "tempo": 120.0
            },
            {
                "start_time": 20.477272727272727,
                "end_time": 20.59318181818182,
                "pitch": 67,
                "velocity": 64,
                "duration": 0.11590909090909207,
                "tempo": 120.0
            },
            {
                "start_time": 20.59318181818182,
                "end_time": 20.643181818181816,
                "pitch": 67,
                "velocity": 64,
                "duration": 0.04999999999999716,
                "tempo": 120.0
            },
            {
                "start_time": 20.643181818181816,
                "end_time": 20.827272727272724,
                "pitch": 69,
                "velocity": 64,
                "duration": 0.18409090909090864,
                "tempo": 120.0
            },
            {
                "start_time": 20.827272727272724,
                "end_time": 20.911363636363635,
                "pitch": 70,
                "velocity": 64,
                "duration": 0.08409090909091077,
                "tempo": 120.0
            },
            {
                "start_time": 20.911363636363635,
                "end_time": 21.011363636363637,
                "pitch": 69,
                "velocity": 64,
                "duration": 0.10000000000000142,
                "tempo": 120.0
            },
            {
                "start_time": 21.011363636363637,
                "end_time": 21.129545454545454,
                "pitch": 67,
                "velocity": 64,
                "duration": 0.11818181818181728,
                "tempo": 120.0
            },
            {
                "start_time": 20.59318181818182,
                "end_time": 21.129545454545454,
                "pitch": 79,
                "velocity": 64,
                "duration": 0.5363636363636353,
                "tempo": 120.0
            },
            {
                "start_time": 21.129545454545454,
                "end_time": 21.179545454545455,
                "pitch": 67,
                "velocity": 64,
                "duration": 0.05000000000000071,
                "tempo": 120.0
            },
            {
                "start_time": 21.179545454545455,
                "end_time": 21.363636363636363,
                "pitch": 65,
                "velocity": 64,
                "duration": 0.18409090909090864,
                "tempo": 120.0
            },
            {
                "start_time": 21.363636363636363,
                "end_time": 21.395454545454545,
                "pitch": 71,
                "velocity": 64,
                "duration": 0.0318181818181813,
                "tempo": 120.0
            },
            {
                "start_time": 21.395454545454545,
                "end_time": 21.720454545454544,
                "pitch": 72,
                "velocity": 64,
                "duration": 0.3249999999999993,
                "tempo": 120.0
            },
            {
                "start_time": 21.722727272727273,
                "end_time": 21.754545454545454,
                "pitch": 71,
                "velocity": 64,
                "duration": 0.0318181818181813,
                "tempo": 120.0
            },
            {
                "start_time": 21.754545454545454,
                "end_time": 22.081818181818182,
                "pitch": 72,
                "velocity": 64,
                "duration": 0.32727272727272805,
                "tempo": 120.0
            },
            {
                "start_time": 22.081818181818182,
                "end_time": 22.113636363636363,
                "pitch": 71,
                "velocity": 64,
                "duration": 0.0318181818181813,
                "tempo": 120.0
            },
            {
                "start_time": 22.113636363636363,
                "end_time": 22.261363636363637,
                "pitch": 72,
                "velocity": 64,
                "duration": 0.14772727272727337,
                "tempo": 120.0
            }
        ],
        "Electric Piano 1": [
            {
                "start_time": 0.01818181818181818,
                "end_time": 0.07954545454545454,
                "pitch": 65,
                "velocity": 64,
                "duration": 0.06136363636363636,
                "tempo": 120.0
            },
            {
                "start_time": 0.07954545454545454,
                "end_time": 1.4431818181818181,
                "pitch": 69,
                "velocity": 64,
                "duration": 1.3636363636363635,
                "tempo": 120.0
            },
            {
                "start_time": 1.4431818181818181,
                "end_time": 1.4909090909090907,
                "pitch": 65,
                "velocity": 64,
                "duration": 0.04772727272727262,
                "tempo": 120.0
            },
            {
                "start_time": 1.4909090909090907,
                "end_time": 1.734090909090909,
                "pitch": 69,
                "velocity": 64,
                "duration": 0.24318181818181817,
                "tempo": 120.0
            },
            {
                "start_time": 1.734090909090909,
                "end_time": 1.75,
                "pitch": 67,
                "velocity": 64,
                "duration": 0.015909090909091095,
                "tempo": 120.0
            },
            {
                "start_time": 1.75,
                "end_time": 2.118181818181818,
                "pitch": 66,
                "velocity": 64,
                "duration": 0.36818181818181817,
                "tempo": 120.0
            },
            {
                "start_time": 2.118181818181818,
                "end_time": 2.3295454545454546,
                "pitch": 68,
                "velocity": 64,
                "duration": 0.21136363636363642,
                "tempo": 120.0
            },
            {
                "start_time": 2.6295454545454544,
                "end_time": 2.7136363636363634,
                "pitch": 65,
                "velocity": 51,
                "duration": 0.084090909090909,
                "tempo": 120.0
            },
            {
                "start_time": 2.7136363636363634,
                "end_time": 2.7477272727272726,
                "pitch": 67,
                "velocity": 51,
                "duration": 0.03409090909090917,
                "tempo": 120.0
            },
            {
                "start_time": 2.7477272727272726,
                "end_time": 2.818181818181818,
                "pitch": 67,
                "velocity": 51,
                "duration": 0.07045454545454533,
                "tempo": 120.0
            },
            {
                "start_time": 2.818181818181818,
                "end_time": 2.9818181818181815,
                "pitch": 69,
                "velocity": 51,
                "duration": 0.16363636363636358,
                "tempo": 120.0
            },
            {
                "start_time": 2.984090909090909,
                "end_time": 3.05,
                "pitch": 71,
                "velocity": 64,
                "duration": 0.06590909090909092,
                "tempo": 120.0
            },
            {
                "start_time": 3.05,
                "end_time": 3.0795454545454546,
                "pitch": 72,
                "velocity": 64,
                "duration": 0.029545454545454763,
                "tempo": 120.0
            },
            {
                "start_time": 3.0795454545454546,
                "end_time": 3.161363636363636,
                "pitch": 72,
                "velocity": 32,
                "duration": 0.08181818181818157,
                "tempo": 120.0
            },
            {
                "start_time": 3.161363636363636,
                "end_time": 3.243181818181818,
                "pitch": 69,
                "velocity": 51,
                "duration": 0.08181818181818201,
                "tempo": 120.0
            },
            {
                "start_time": 3.243181818181818,
                "end_time": 3.340909090909091,
                "pitch": 69,
                "velocity": 32,
                "duration": 0.09772727272727266,
                "tempo": 120.0
            },
            {
                "start_time": 3.340909090909091,
                "end_time": 3.4227272727272724,
                "pitch": 69,
                "velocity": 64,
                "duration": 0.08181818181818157,
                "tempo": 120.0
            },
            {
                "start_time": 3.4227272727272724,
                "end_time": 3.518181818181818,
                "pitch": 70,
                "velocity": 32,
                "duration": 0.09545454545454568,
                "tempo": 120.0
            },
            {
                "start_time": 3.5204545454545455,
                "end_time": 3.602272727272727,
                "pitch": 67,
                "velocity": 64,
                "duration": 0.08181818181818157,
                "tempo": 120.0
            },
            {
                "start_time": 3.602272727272727,
                "end_time": 3.6886363636363635,
                "pitch": 67,
                "velocity": 32,
                "duration": 0.08636363636363642,
                "tempo": 120.0
            },
            {
                "start_time": 3.6886363636363635,
                "end_time": 3.7909090909090906,
                "pitch": 68,
                "velocity": 64,
                "duration": 0.10227272727272707,
                "tempo": 120.0
            },
            {
                "start_time": 3.7909090909090906,
                "end_time": 3.877272727272727,
                "pitch": 69,
                "velocity": 32,
                "duration": 0.08636363636363642,
                "tempo": 120.0
            },
            {
                "start_time": 3.877272727272727,
                "end_time": 3.961363636363636,
                "pitch": 65,
                "velocity": 51,
                "duration": 0.084090909090909,
                "tempo": 120.0
            },
            {
                "start_time": 3.961363636363636,
                "end_time": 4.059090909090909,
                "pitch": 65,
                "velocity": 32,
                "duration": 0.09772727272727266,
                "tempo": 120.0
            },
            {
                "start_time": 4.059090909090909,
                "end_time": 4.138636363636364,
                "pitch": 65,
                "velocity": 51,
                "duration": 0.07954545454545503,
                "tempo": 120.0
            },
            {
                "start_time": 4.138636363636364,
                "end_time": 4.172727272727273,
                "pitch": 67,
                "velocity": 51,
                "duration": 0.03409090909090917,
                "tempo": 120.0
            },
            {
                "start_time": 2.7477272727272726,
                "end_time": 4.172727272727273,
                "pitch": 79,
                "velocity": 51,
                "duration": 1.4250000000000003,
                "tempo": 120.0
            },
            {
                "start_time": 4.172727272727273,
                "end_time": 4.220454545454546,
                "pitch": 67,
                "velocity": 51,
                "duration": 0.04772727272727284,
                "tempo": 120.0
            },
            {
                "start_time": 1.75,
                "end_time": 4.220454545454546,
                "pitch": 78,
                "velocity": 64,
                "duration": 2.4704545454545457,
                "tempo": 120.0
            },
            {
                "start_time": 4.220454545454546,
                "end_time": 4.406818181818181,
                "pitch": 65,
                "velocity": 51,
                "duration": 0.18636363636363562,
                "tempo": 120.0
            },
            {
                "start_time": 4.406818181818181,
                "end_time": 4.49090909090909,
                "pitch": 64,
                "velocity": 64,
                "duration": 0.084090909090909,
                "tempo": 120.0
            },
            {
                "start_time": 4.493181818181818,
                "end_time": 4.595454545454545,
                "pitch": 65,
                "velocity": 32,
                "duration": 0.10227272727272663,
                "tempo": 120.0
            },
            {
                "start_time": 4.595454545454545,
                "end_time": 4.679545454545455,
                "pitch": 60,
                "velocity": 51,
                "duration": 0.08409090909090988,
                "tempo": 120.0
            },
            {
                "start_time": 4.679545454545455,
                "end_time": 4.777272727272727,
                "pitch": 60,
                "velocity": 32,
                "duration": 0.09772727272727266,
                "tempo": 120.0
            },
            {
                "start_time": 4.777272727272727,
                "end_time": 5.568181818181818,
                "pitch": 60,
                "velocity": 51,
                "duration": 0.790909090909091,
                "tempo": 120.0
            },
            {
                "start_time": 5.568181818181818,
                "end_time": 5.736363636363636,
                "pitch": 58,
                "velocity": 51,
                "duration": 0.168181818181818,
                "tempo": 120.0
            },
            {
                "start_time": 5.736363636363636,
                "end_time": 5.784090909090909,
                "pitch": 55,
                "velocity": 51,
                "duration": 0.04772727272727284,
                "tempo": 120.0
            },
            {
                "start_time": 5.784090909090909,
                "end_time": 5.831818181818181,
                "pitch": 55,
                "velocity": 51,
                "duration": 0.04772727272727195,
                "tempo": 120.0
            },
            {
                "start_time": 5.831818181818181,
                "end_time": 5.911363636363636,
                "pitch": 0,
                "velocity": 51,
                "duration": 0.07954545454545503,
                "tempo": 120.0
            },
            {
                "start_time": 5.831818181818181,
                "end_time": 5.911363636363636,
                "pitch": 53,
                "velocity": 51,
                "duration": 0.07954545454545503,
                "tempo": 120.0
            },
            {
                "start_time": 5.831818181818181,
                "end_time": 5.9431818181818175,
                "pitch": 55,
                "velocity": 51,
                "duration": 0.11136363636363633,
                "tempo": 120.0
            },
            {
                "start_time": 5.911363636363636,
                "end_time": 5.9431818181818175,
                "pitch": 55,
                "velocity": 51,
                "duration": 0.0318181818181813,
                "tempo": 120.0
            },
            {
                "start_time": 5.784090909090909,
                "end_time": 5.9431818181818175,
                "pitch": 67,
                "velocity": 51,
                "duration": 0.15909090909090828,
                "tempo": 120.0
            },
            {
                "start_time": 5.911363636363636,
                "end_time": 6.004545454545454,
                "pitch": 0,
                "velocity": 51,
                "duration": 0.09318181818181781,
                "tempo": 120.0
            },
            {
                "start_time": 5.9431818181818175,
                "end_time": 6.004545454545454,
                "pitch": 55,
                "velocity": 51,
                "duration": 0.06136363636363651,
                "tempo": 120.0
            },
            {
                "start_time": 6.004545454545454,
                "end_time": 6.0204545454545455,
                "pitch": 55,
                "velocity": 51,
                "duration": 0.01590909090909154,
                "tempo": 120.0
            },
            {
                "start_time": 6.0204545454545455,
                "end_time": 6.172727272727273,
                "pitch": 57,
                "velocity": 51,
                "duration": 0.15227272727272734,
                "tempo": 120.0
            },
            {
                "start_time": 5.568181818181818,
                "end_time": 6.277272727272727,
                "pitch": 39,
                "velocity": 51,
                "duration": 0.709090909090909,
                "tempo": 120.0
            },
            {
                "start_time": 6.172727272727273,
                "end_time": 6.277272727272727,
                "pitch": 60,
                "velocity": 51,
                "duration": 0.1045454545454545,
                "tempo": 120.0
            },
            {
                "start_time": 6.277272727272727,
                "end_time": 6.445454545454545,
                "pitch": 58,
                "velocity": 51,
                "duration": 0.168181818181818,
                "tempo": 120.0
            },
            {
                "start_time": 6.445454545454545,
                "end_time": 6.477272727272727,
                "pitch": 55,
                "velocity": 51,
                "duration": 0.0318181818181813,
                "tempo": 120.0
            },
            {
                "start_time": 5.9431818181818175,
                "end_time": 6.4795454545454545,
                "pitch": 67,
                "velocity": 51,
                "duration": 0.536363636363637,
                "tempo": 120.0
            },
            {
                "start_time": 6.477272727272727,
                "end_time": 6.4795454545454545,
                "pitch": 67,
                "velocity": 51,
                "duration": 0.0022727272727278702,
                "tempo": 120.0
            },
            {
                "start_time": 6.004545454545454,
                "end_time": 6.543181818181818,
                "pitch": 0,
                "velocity": 51,
                "duration": 0.538636363636364,
                "tempo": 120.0
            },
            {
                "start_time": 6.4795454545454545,
                "end_time": 6.543181818181818,
                "pitch": 55,
                "velocity": 51,
                "duration": 0.06363636363636349,
                "tempo": 120.0
            },
            {
                "start_time": 5.831818181818181,
                "end_time": 6.656818181818181,
                "pitch": 66,
                "velocity": 51,
                "duration": 0.8250000000000002,
                "tempo": 120.0
            },
            {
                "start_time": 6.543181818181818,
                "end_time": 6.656818181818181,
                "pitch": 66,
                "velocity": 51,
                "duration": 0.11363636363636331,
                "tempo": 120.0
            },
            {
                "start_time": 4.172727272727273,
                "end_time": 6.656818181818181,
                "pitch": 79,
                "velocity": 51,
                "duration": 2.4840909090909085,
                "tempo": 120.0
            },
            {
                "start_time": 6.656818181818181,
                "end_time": 6.706818181818181,
                "pitch": 67,
                "velocity": 51,
                "duration": 0.04999999999999982,
                "tempo": 120.0
            },
            {
                "start_time": 6.706818181818181,
                "end_time": 6.890909090909091,
                "pitch": 69,
                "velocity": 51,
                "duration": 0.18409090909090953,
                "tempo": 120.0
            },
            {
                "start_time": 3.05,
                "end_time": 6.890909090909091,
                "pitch": 76,
                "velocity": 64,
                "duration": 3.840909090909091,
                "tempo": 120.0
            },
            {
                "start_time": 6.890909090909091,
                "end_time": 6.977272727272727,
                "pitch": 72,
                "velocity": 51,
                "duration": 0.08636363636363598,
                "tempo": 120.0
            },
            {
                "start_time": 6.977272727272727,
                "end_time": 7.163636363636363,
                "pitch": 70,
                "velocity": 51,
                "duration": 0.1863636363636365,
                "tempo": 120.0
            },
            {
                "start_time": 7.163636363636363,
                "end_time": 7.195454545454545,
                "pitch": 67,
                "velocity": 51,
                "duration": 0.03181818181818219,
                "tempo": 120.0
            },
            {
                "start_time": 6.656818181818181,
                "end_time": 7.197727272727272,
                "pitch": 79,
                "velocity": 51,
                "duration": 0.540909090909091,
                "tempo": 120.0
            },
            {
                "start_time": 7.195454545454545,
                "end_time": 7.197727272727272,
                "pitch": 79,
                "velocity": 51,
                "duration": 0.002272727272726982,
                "tempo": 120.0
            },
            {
                "start_time": 7.197727272727272,
                "end_time": 7.295454545454545,
                "pitch": 67,
                "velocity": 51,
                "duration": 0.09772727272727266,
                "tempo": 120.0
            },
            {
                "start_time": 7.295454545454545,
                "end_time": 7.425,
                "pitch": 69,
                "velocity": 51,
                "duration": 0.12954545454545485,
                "tempo": 120.0
            },
            {
                "start_time": 7.425,
                "end_time": 7.5227272727272725,
                "pitch": 65,
                "velocity": 64,
                "duration": 0.09772727272727266,
                "tempo": 120.0
            },
            {
                "start_time": 7.5227272727272725,
                "end_time": 7.602272727272727,
                "pitch": 65,
                "velocity": 32,
                "duration": 0.07954545454545414,
                "tempo": 120.0
            },
            {
                "start_time": 7.6045454545454545,
                "end_time": 7.715909090909091,
                "pitch": 66,
                "velocity": 64,
                "duration": 0.11136363636363633,
                "tempo": 120.0
            },
            {
                "start_time": 7.715909090909091,
                "end_time": 7.781818181818181,
                "pitch": 67,
                "velocity": 64,
                "duration": 0.06590909090909047,
                "tempo": 120.0
            },
            {
                "start_time": 6.172727272727273,
                "end_time": 7.86590909090909,
                "pitch": 64,
                "velocity": 51,
                "duration": 1.6931818181818175,
                "tempo": 120.0
            },
            {
                "start_time": 7.781818181818181,
                "end_time": 7.86590909090909,
                "pitch": 64,
                "velocity": 64,
                "duration": 0.084090909090909,
                "tempo": 120.0
            },
            {
                "start_time": 7.86590909090909,
                "end_time": 7.949999999999999,
                "pitch": 64,
                "velocity": 32,
                "duration": 0.084090909090909,
                "tempo": 120.0
            },
            {
                "start_time": 7.952272727272727,
                "end_time": 8.138636363636364,
                "pitch": 64,
                "velocity": 64,
                "duration": 0.1863636363636365,
                "tempo": 120.0
            },
            {
                "start_time": 8.14090909090909,
                "end_time": 8.225,
                "pitch": 60,
                "velocity": 64,
                "duration": 0.084090909090909,
                "tempo": 120.0
            },
            {
                "start_time": 8.225,
                "end_time": 8.320454545454545,
                "pitch": 60,
                "velocity": 32,
                "duration": 0.09545454545454568,
                "tempo": 120.0
            },
            {
                "start_time": 8.322727272727272,
                "end_time": 8.402272727272727,
                "pitch": 65,
                "velocity": 51,
                "duration": 0.07954545454545503,
                "tempo": 120.0
            },
            {
                "start_time": 8.402272727272727,
                "end_time": 8.436363636363636,
                "pitch": 67,
                "velocity": 51,
                "duration": 0.034090909090908283,
                "tempo": 120.0
            },
            {
                "start_time": 7.715909090909091,
                "end_time": 8.436363636363636,
                "pitch": 79,
                "velocity": 64,
                "duration": 0.7204545454545448,
                "tempo": 120.0
            },
            {
                "start_time": 8.436363636363636,
                "end_time": 8.5,
                "pitch": 67,
                "velocity": 51,
                "duration": 0.06363636363636438,
                "tempo": 120.0
            },
            {
                "start_time": 8.5,
                "end_time": 8.668181818181818,
                "pitch": 69,
                "velocity": 51,
                "duration": 0.168181818181818,
                "tempo": 120.0
            },
            {
                "start_time": 8.670454545454545,
                "end_time": 8.722727272727273,
                "pitch": 71,
                "velocity": 64,
                "duration": 0.05227272727272769,
                "tempo": 120.0
            },
            {
                "start_time": 6.890909090909091,
                "end_time": 8.722727272727273,
                "pitch": 76,
                "velocity": 51,
                "duration": 1.831818181818182,
                "tempo": 120.0
            },
            {
                "start_time": 8.722727272727273,
                "end_time": 8.772727272727272,
                "pitch": 72,
                "velocity": 64,
                "duration": 0.049999999999998934,
                "tempo": 120.0
            },
            {
                "start_time": 8.772727272727272,
                "end_time": 8.85681818181818,
                "pitch": 72,
                "velocity": 32,
                "duration": 0.084090909090909,
                "tempo": 120.0
            },
            {
                "start_time": 8.85909090909091,
                "end_time": 8.940909090909091,
                "pitch": 69,
                "velocity": 51,
                "duration": 0.08181818181818201,
                "tempo": 120.0
            },
            {
                "start_time": 8.943181818181818,
                "end_time": 9.038636363636364,
                "pitch": 69,
                "velocity": 32,
                "duration": 0.09545454545454568,
                "tempo": 120.0
            },
            {
                "start_time": 9.040909090909091,
                "end_time": 9.120454545454544,
                "pitch": 69,
                "velocity": 64,
                "duration": 0.07954545454545325,
                "tempo": 120.0
            },
            {
                "start_time": 9.120454545454544,
                "end_time": 9.202272727272726,
                "pitch": 70,
                "velocity": 32,
                "duration": 0.08181818181818201,
                "tempo": 120.0
            },
            {
                "start_time": 9.202272727272726,
                "end_time": 9.299999999999999,
                "pitch": 67,
                "velocity": 51,
                "duration": 0.09772727272727266,
                "tempo": 120.0
            },
            {
                "start_time": 9.302272727272728,
                "end_time": 9.384090909090908,
                "pitch": 67,
                "velocity": 32,
                "duration": 0.08181818181818024,
                "tempo": 120.0
            },
            {
                "start_time": 9.384090909090908,
                "end_time": 9.468181818181817,
                "pitch": 68,
                "velocity": 64,
                "duration": 0.084090909090909,
                "tempo": 120.0
            },
            {
                "start_time": 9.468181818181817,
                "end_time": 9.568181818181818,
                "pitch": 69,
                "velocity": 32,
                "duration": 0.10000000000000142,
                "tempo": 120.0
            },
            {
                "start_time": 9.568181818181818,
                "end_time": 9.652272727272727,
                "pitch": 65,
                "velocity": 51,
                "duration": 0.084090909090909,
                "tempo": 120.0
            },
            {
                "start_time": 9.652272727272727,
                "end_time": 9.752272727272727,
                "pitch": 65,
                "velocity": 32,
                "duration": 0.09999999999999964,
                "tempo": 120.0
            },
            {
                "start_time": 9.754545454545454,
                "end_time": 9.836363636363636,
                "pitch": 65,
                "velocity": 51,
                "duration": 0.08181818181818201,
                "tempo": 120.0
            },
            {
                "start_time": 9.836363636363636,
                "end_time": 9.870454545454544,
                "pitch": 67,
                "velocity": 51,
                "duration": 0.034090909090908283,
                "tempo": 120.0
            },
            {
                "start_time": 8.436363636363636,
                "end_time": 9.870454545454544,
                "pitch": 79,
                "velocity": 51,
                "duration": 1.4340909090909086,
                "tempo": 120.0
            },
            {
                "start_time": 9.870454545454544,
                "end_time": 9.920454545454545,
                "pitch": 67,
                "velocity": 51,
                "duration": 0.05000000000000071,
                "tempo": 120.0
            },
            {
                "start_time": 4.220454545454546,
                "end_time": 9.920454545454545,
                "pitch": 78,
                "velocity": 51,
                "duration": 5.699999999999999,
                "tempo": 120.0
            },
            {
                "start_time": 9.920454545454545,
                "end_time": 10.102272727272727,
                "pitch": 65,
                "velocity": 51,
                "duration": 0.18181818181818166,
                "tempo": 120.0
            },
            {
                "start_time": 10.102272727272727,
                "end_time": 10.181818181818182,
                "pitch": 64,
                "velocity": 64,
                "duration": 0.07954545454545503,
                "tempo": 120.0
            },
            {
                "start_time": 10.181818181818182,
                "end_time": 10.279545454545454,
                "pitch": 65,
                "velocity": 25,
                "duration": 0.09772727272727266,
                "tempo": 120.0
            },
            {
                "start_time": 10.279545454545454,
                "end_time": 10.361363636363636,
                "pitch": 72,
                "velocity": 51,
                "duration": 0.08181818181818201,
                "tempo": 120.0
            },
            {
                "start_time": 10.363636363636363,
                "end_time": 10.445454545454545,
                "pitch": 72,
                "velocity": 32,
                "duration": 0.08181818181818201,
                "tempo": 120.0
            },
            {
                "start_time": 10.445454545454545,
                "end_time": 10.988636363636363,
                "pitch": 72,
                "velocity": 51,
                "duration": 0.543181818181818,
                "tempo": 120.0
            },
            {
                "start_time": 10.99090909090909,
                "end_time": 11.040909090909091,
                "pitch": 72,
                "velocity": 64,
                "duration": 0.05000000000000071,
                "tempo": 120.0
            },
            {
                "start_time": 11.040909090909091,
                "end_time": 11.072727272727272,
                "pitch": 72,
                "velocity": 32,
                "duration": 0.0318181818181813,
                "tempo": 120.0
            },
            {
                "start_time": 11.072727272727272,
                "end_time": 11.125,
                "pitch": 72,
                "velocity": 64,
                "duration": 0.05227272727272769,
                "tempo": 120.0
            },
            {
                "start_time": 11.125,
                "end_time": 11.159090909090908,
                "pitch": 72,
                "velocity": 32,
                "duration": 0.034090909090908283,
                "tempo": 120.0
            },
            {
                "start_time": 11.159090909090908,
                "end_time": 11.261363636363637,
                "pitch": 74,
                "velocity": 64,
                "duration": 0.1022727272727284,
                "tempo": 120.0
            },
            {
                "start_time": 11.261363636363637,
                "end_time": 11.347727272727273,
                "pitch": 74,
                "velocity": 32,
                "duration": 0.08636363636363598,
                "tempo": 120.0
            },
            {
                "start_time": 11.347727272727273,
                "end_time": 11.431818181818182,
                "pitch": 71,
                "velocity": 64,
                "duration": 0.084090909090909,
                "tempo": 120.0
            },
            {
                "start_time": 11.431818181818182,
                "end_time": 11.529545454545454,
                "pitch": 71,
                "velocity": 32,
                "duration": 0.09772727272727266,
                "tempo": 120.0
            },
            {
                "start_time": 11.529545454545454,
                "end_time": 11.60909090909091,
                "pitch": 72,
                "velocity": 64,
                "duration": 0.07954545454545503,
                "tempo": 120.0
            },
            {
                "start_time": 11.611363636363636,
                "end_time": 11.69090909090909,
                "pitch": 72,
                "velocity": 32,
                "duration": 0.07954545454545325,
                "tempo": 120.0
            },
            {
                "start_time": 11.69090909090909,
                "end_time": 11.759090909090908,
                "pitch": 72,
                "velocity": 51,
                "duration": 0.06818181818181834,
                "tempo": 120.0
            },
            {
                "start_time": 11.759090909090908,
                "end_time": 11.790909090909091,
                "pitch": 72,
                "velocity": 32,
                "duration": 0.03181818181818308,
                "tempo": 120.0
            },
            {
                "start_time": 11.790909090909091,
                "end_time": 11.843181818181817,
                "pitch": 72,
                "velocity": 51,
                "duration": 0.052272727272725916,
                "tempo": 120.0
            },
            {
                "start_time": 11.843181818181817,
                "end_time": 11.877272727272727,
                "pitch": 72,
                "velocity": 32,
                "duration": 0.03409090909091006,
                "tempo": 120.0
            },
            {
                "start_time": 11.877272727272727,
                "end_time": 11.961363636363636,
                "pitch": 74,
                "velocity": 51,
                "duration": 0.084090909090909,
                "tempo": 120.0
            },
            {
                "start_time": 11.963636363636363,
                "end_time": 12.06590909090909,
                "pitch": 74,
                "velocity": 32,
                "duration": 0.10227272727272663,
                "tempo": 120.0
            },
            {
                "start_time": 12.06590909090909,
                "end_time": 12.149999999999999,
                "pitch": 71,
                "velocity": 51,
                "duration": 0.084090909090909,
                "tempo": 120.0
            },
            {
                "start_time": 12.149999999999999,
                "end_time": 12.247727272727273,
                "pitch": 71,
                "velocity": 32,
                "duration": 0.09772727272727444,
                "tempo": 120.0
            },
            {
                "start_time": 12.247727272727273,
                "end_time": 12.327272727272726,
                "pitch": 72,
                "velocity": 51,
                "duration": 0.07954545454545325,
                "tempo": 120.0
            },
            {
                "start_time": 12.329545454545453,
                "end_time": 12.409090909090908,
                "pitch": 72,
                "velocity": 32,
                "duration": 0.07954545454545503,
                "tempo": 120.0
            },
            {
                "start_time": 12.409090909090908,
                "end_time": 12.461363636363636,
                "pitch": 72,
                "velocity": 51,
                "duration": 0.05227272727272769,
                "tempo": 120.0
            },
            {
                "start_time": 12.461363636363636,
                "end_time": 12.506818181818181,
                "pitch": 72,
                "velocity": 32,
                "duration": 0.04545454545454497,
                "tempo": 120.0
            },
            {
                "start_time": 12.506818181818181,
                "end_time": 12.556818181818182,
                "pitch": 72,
                "velocity": 51,
                "duration": 0.05000000000000071,
                "tempo": 120.0
            },
            {
                "start_time": 12.556818181818182,
                "end_time": 12.588636363636363,
                "pitch": 72,
                "velocity": 32,
                "duration": 0.0318181818181813,
                "tempo": 120.0
            },
            {
                "start_time": 12.588636363636363,
                "end_time": 12.670454545454545,
                "pitch": 74,
                "velocity": 51,
                "duration": 0.08181818181818201,
                "tempo": 120.0
            },
            {
                "start_time": 12.670454545454545,
                "end_time": 12.768181818181818,
                "pitch": 74,
                "velocity": 32,
                "duration": 0.09772727272727266,
                "tempo": 120.0
            },
            {
                "start_time": 12.768181818181818,
                "end_time": 12.85,
                "pitch": 71,
                "velocity": 51,
                "duration": 0.08181818181818201,
                "tempo": 120.0
            },
            {
                "start_time": 12.85,
                "end_time": 12.934090909090909,
                "pitch": 71,
                "velocity": 32,
                "duration": 0.084090909090909,
                "tempo": 120.0
            },
            {
                "start_time": 12.934090909090909,
                "end_time": 13.034090909090908,
                "pitch": 72,
                "velocity": 51,
                "duration": 0.09999999999999964,
                "tempo": 120.0
            },
            {
                "start_time": 13.034090909090908,
                "end_time": 13.118181818181817,
                "pitch": 72,
                "velocity": 32,
                "duration": 0.084090909090909,
                "tempo": 120.0
            },
            {
                "start_time": 13.118181818181817,
                "end_time": 13.202272727272726,
                "pitch": 71,
                "velocity": 51,
                "duration": 0.084090909090909,
                "tempo": 120.0
            },
            {
                "start_time": 13.202272727272726,
                "end_time": 13.302272727272726,
                "pitch": 71,
                "velocity": 16,
                "duration": 0.09999999999999964,
                "tempo": 120.0
            },
            {
                "start_time": 13.302272727272726,
                "end_time": 13.386363636363635,
                "pitch": 72,
                "velocity": 40,
                "duration": 0.084090909090909,
                "tempo": 120.0
            },
            {
                "start_time": 13.386363636363635,
                "end_time": 13.486363636363636,
                "pitch": 72,
                "velocity": 16,
                "duration": 0.10000000000000142,
                "tempo": 120.0
            },
            {
                "start_time": 13.486363636363636,
                "end_time": 13.570454545454545,
                "pitch": 71,
                "velocity": 64,
                "duration": 0.084090909090909,
                "tempo": 120.0
            },
            {
                "start_time": 13.570454545454545,
                "end_time": 13.654545454545454,
                "pitch": 71,
                "velocity": 20,
                "duration": 0.084090909090909,
                "tempo": 120.0
            },
            {
                "start_time": 13.654545454545454,
                "end_time": 13.754545454545454,
                "pitch": 72,
                "velocity": 51,
                "duration": 0.09999999999999964,
                "tempo": 120.0
            },
            {
                "start_time": 13.754545454545454,
                "end_time": 13.838636363636363,
                "pitch": 72,
                "velocity": 20,
                "duration": 0.084090909090909,
                "tempo": 120.0
            },
            {
                "start_time": 13.838636363636363,
                "end_time": 13.922727272727272,
                "pitch": 71,
                "velocity": 80,
                "duration": 0.084090909090909,
                "tempo": 120.0
            },
            {
                "start_time": 13.922727272727272,
                "end_time": 14.022727272727272,
                "pitch": 71,
                "velocity": 25,
                "duration": 0.09999999999999964,
                "tempo": 120.0
            },
            {
                "start_time": 14.022727272727272,
                "end_time": 14.10681818181818,
                "pitch": 72,
                "velocity": 64,
                "duration": 0.084090909090909,
                "tempo": 120.0
            },
            {
                "start_time": 14.10681818181818,
                "end_time": 14.19090909090909,
                "pitch": 72,
                "velocity": 25,
                "duration": 0.084090909090909,
                "tempo": 120.0
            },
            {
                "start_time": 14.19090909090909,
                "end_time": 14.290909090909091,
                "pitch": 72,
                "velocity": 64,
                "duration": 0.10000000000000142,
                "tempo": 120.0
            },
            {
                "start_time": 14.290909090909091,
                "end_time": 14.375,
                "pitch": 72,
                "velocity": 25,
                "duration": 0.084090909090909,
                "tempo": 120.0
            },
            {
                "start_time": 14.375,
                "end_time": 14.424999999999999,
                "pitch": 71,
                "velocity": 64,
                "duration": 0.049999999999998934,
                "tempo": 120.0
            },
            {
                "start_time": 8.722727272727273,
                "end_time": 14.424999999999999,
                "pitch": 76,
                "velocity": 64,
                "duration": 5.702272727272726,
                "tempo": 120.0
            },
            {
                "start_time": 14.424999999999999,
                "end_time": 14.459090909090909,
                "pitch": 72,
                "velocity": 64,
                "duration": 0.03409090909091006,
                "tempo": 120.0
            },
            {
                "start_time": 14.459090909090909,
                "end_time": 14.559090909090909,
                "pitch": 72,
                "velocity": 32,
                "duration": 0.09999999999999964,
                "tempo": 120.0
            },
            {
                "start_time": 14.559090909090909,
                "end_time": 14.64090909090909,
                "pitch": 69,
                "velocity": 51,
                "duration": 0.08181818181818201,
                "tempo": 120.0
            },
            {
                "start_time": 14.64090909090909,
                "end_time": 14.738636363636363,
                "pitch": 69,
                "velocity": 32,
                "duration": 0.09772727272727266,
                "tempo": 120.0
            },
            {
                "start_time": 14.738636363636363,
                "end_time": 14.820454545454545,
                "pitch": 69,
                "velocity": 64,
                "duration": 0.08181818181818201,
                "tempo": 120.0
            },
            {
                "start_time": 14.820454545454545,
                "end_time": 14.902272727272727,
                "pitch": 70,
                "velocity": 32,
                "duration": 0.08181818181818201,
                "tempo": 120.0
            },
            {
                "start_time": 14.902272727272727,
                "end_time": 15.0,
                "pitch": 67,
                "velocity": 64,
                "duration": 0.09772727272727266,
                "tempo": 120.0
            },
            {
                "start_time": 15.0,
                "end_time": 15.079545454545453,
                "pitch": 67,
                "velocity": 32,
                "duration": 0.07954545454545325,
                "tempo": 120.0
            },
            {
                "start_time": 15.08181818181818,
                "end_time": 15.161363636363635,
                "pitch": 68,
                "velocity": 64,
                "duration": 0.07954545454545503,
                "tempo": 120.0
            },
            {
                "start_time": 15.161363636363635,
                "end_time": 15.259090909090908,
                "pitch": 69,
                "velocity": 32,
                "duration": 0.09772727272727266,
                "tempo": 120.0
            },
            {
                "start_time": 15.259090909090908,
                "end_time": 15.343181818181817,
                "pitch": 65,
                "velocity": 51,
                "duration": 0.084090909090909,
                "tempo": 120.0
            },
            {
                "start_time": 15.343181818181817,
                "end_time": 15.427272727272726,
                "pitch": 65,
                "velocity": 32,
                "duration": 0.084090909090909,
                "tempo": 120.0
            },
            {
                "start_time": 15.429545454545455,
                "end_time": 15.531818181818181,
                "pitch": 65,
                "velocity": 51,
                "duration": 0.10227272727272663,
                "tempo": 120.0
            },
            {
                "start_time": 15.531818181818181,
                "end_time": 15.56590909090909,
                "pitch": 67,
                "velocity": 51,
                "duration": 0.034090909090908283,
                "tempo": 120.0
            },
            {
                "start_time": 9.870454545454544,
                "end_time": 15.56590909090909,
                "pitch": 79,
                "velocity": 51,
                "duration": 5.695454545454545,
                "tempo": 120.0
            },
            {
                "start_time": 15.56590909090909,
                "end_time": 15.61590909090909,
                "pitch": 67,
                "velocity": 51,
                "duration": 0.05000000000000071,
                "tempo": 120.0
            },
            {
                "start_time": 9.920454545454545,
                "end_time": 15.61590909090909,
                "pitch": 78,
                "velocity": 51,
                "duration": 5.695454545454545,
                "tempo": 120.0
            },
            {
                "start_time": 15.61590909090909,
                "end_time": 15.797727272727272,
                "pitch": 65,
                "velocity": 51,
                "duration": 0.18181818181818166,
                "tempo": 120.0
            },
            {
                "start_time": 15.799999999999999,
                "end_time": 15.879545454545454,
                "pitch": 64,
                "velocity": 64,
                "duration": 0.07954545454545503,
                "tempo": 120.0
            },
            {
                "start_time": 15.879545454545454,
                "end_time": 15.977272727272727,
                "pitch": 65,
                "velocity": 32,
                "duration": 0.09772727272727266,
                "tempo": 120.0
            },
            {
                "start_time": 15.977272727272727,
                "end_time": 16.061363636363634,
                "pitch": 60,
                "velocity": 51,
                "duration": 0.08409090909090722,
                "tempo": 120.0
            },
            {
                "start_time": 16.061363636363634,
                "end_time": 16.145454545454545,
                "pitch": 60,
                "velocity": 32,
                "duration": 0.08409090909091077,
                "tempo": 120.0
            },
            {
                "start_time": 6.277272727272727,
                "end_time": 16.95,
                "pitch": 39,
                "velocity": 51,
                "duration": 10.672727272727272,
                "tempo": 120.0
            },
            {
                "start_time": 16.145454545454545,
                "end_time": 16.95,
                "pitch": 60,
                "velocity": 51,
                "duration": 0.8045454545454547,
                "tempo": 120.0
            },
            {
                "start_time": 16.95,
                "end_time": 17.136363636363637,
                "pitch": 58,
                "velocity": 51,
                "duration": 0.1863636363636374,
                "tempo": 120.0
            },
            {
                "start_time": 6.543181818181818,
                "end_time": 17.168181818181818,
                "pitch": 55,
                "velocity": 51,
                "duration": 10.625,
                "tempo": 120.0
            },
            {
                "start_time": 17.136363636363637,
                "end_time": 17.168181818181818,
                "pitch": 55,
                "velocity": 51,
                "duration": 0.0318181818181813,
                "tempo": 120.0
            },
            {
                "start_time": 6.543181818181818,
                "end_time": 17.229545454545455,
                "pitch": 0,
                "velocity": 51,
                "duration": 10.686363636363637,
                "tempo": 120.0
            },
            {
                "start_time": 17.168181818181818,
                "end_time": 17.229545454545455,
                "pitch": 55,
                "velocity": 51,
                "duration": 0.0613636363636374,
                "tempo": 120.0
            },
            {
                "start_time": 17.229545454545455,
                "end_time": 17.30909090909091,
                "pitch": 0,
                "velocity": 51,
                "duration": 0.07954545454545325,
                "tempo": 120.0
            },
            {
                "start_time": 17.229545454545455,
                "end_time": 17.30909090909091,
                "pitch": 53,
                "velocity": 51,
                "duration": 0.07954545454545325,
                "tempo": 120.0
            },
            {
                "start_time": 17.229545454545455,
                "end_time": 17.34090909090909,
                "pitch": 55,
                "velocity": 51,
                "duration": 0.11136363636363455,
                "tempo": 120.0
            },
            {
                "start_time": 17.30909090909091,
                "end_time": 17.34090909090909,
                "pitch": 55,
                "velocity": 51,
                "duration": 0.0318181818181813,
                "tempo": 120.0
            },
            {
                "start_time": 17.168181818181818,
                "end_time": 17.34090909090909,
                "pitch": 67,
                "velocity": 51,
                "duration": 0.17272727272727195,
                "tempo": 120.0
            },
            {
                "start_time": 17.30909090909091,
                "end_time": 17.388636363636362,
                "pitch": 0,
                "velocity": 51,
                "duration": 0.07954545454545325,
                "tempo": 120.0
            },
            {
                "start_time": 17.34090909090909,
                "end_time": 17.388636363636362,
                "pitch": 55,
                "velocity": 51,
                "duration": 0.04772727272727195,
                "tempo": 120.0
            },
            {
                "start_time": 17.388636363636362,
                "end_time": 17.404545454545453,
                "pitch": 55,
                "velocity": 51,
                "duration": 0.01590909090909065,
                "tempo": 120.0
            },
            {
                "start_time": 17.404545454545453,
                "end_time": 17.570454545454545,
                "pitch": 57,
                "velocity": 51,
                "duration": 0.16590909090909278,
                "tempo": 120.0
            },
            {
                "start_time": 16.95,
                "end_time": 17.652272727272727,
                "pitch": 39,
                "velocity": 51,
                "duration": 0.702272727272728,
                "tempo": 120.0
            },
            {
                "start_time": 17.570454545454545,
                "end_time": 17.652272727272727,
                "pitch": 60,
                "velocity": 51,
                "duration": 0.08181818181818201,
                "tempo": 120.0
            },
            {
                "start_time": 17.652272727272727,
                "end_time": 17.83863636363636,
                "pitch": 58,
                "velocity": 51,
                "duration": 0.18636363636363384,
                "tempo": 120.0
            },
            {
                "start_time": 17.83863636363636,
                "end_time": 17.870454545454546,
                "pitch": 55,
                "velocity": 51,
                "duration": 0.031818181818184854,
                "tempo": 120.0
            },
            {
                "start_time": 17.34090909090909,
                "end_time": 17.870454545454546,
                "pitch": 67,
                "velocity": 51,
                "duration": 0.5295454545454561,
                "tempo": 120.0
            },
            {
                "start_time": 17.388636363636362,
                "end_time": 17.920454545454543,
                "pitch": 0,
                "velocity": 51,
                "duration": 0.5318181818181813,
                "tempo": 120.0
            },
            {
                "start_time": 17.870454545454546,
                "end_time": 17.920454545454543,
                "pitch": 55,
                "velocity": 51,
                "duration": 0.04999999999999716,
                "tempo": 120.0
            },
            {
                "start_time": 17.229545454545455,
                "end_time": 18.054545454545455,
                "pitch": 66,
                "velocity": 51,
                "duration": 0.8249999999999993,
                "tempo": 120.0
            },
            {
                "start_time": 17.920454545454543,
                "end_time": 18.054545454545455,
                "pitch": 66,
                "velocity": 51,
                "duration": 0.13409090909091148,
                "tempo": 120.0
            },
            {
                "start_time": 15.56590909090909,
                "end_time": 18.054545454545455,
                "pitch": 79,
                "velocity": 51,
                "duration": 2.488636363636365,
                "tempo": 120.0
            },
            {
                "start_time": 17.870454545454546,
                "end_time": 18.104545454545455,
                "pitch": 67,
                "velocity": 51,
                "duration": 0.23409090909090935,
                "tempo": 120.0
            },
            {
                "start_time": 18.054545454545455,
                "end_time": 18.104545454545455,
                "pitch": 67,
                "velocity": 51,
                "duration": 0.05000000000000071,
                "tempo": 120.0
            },
            {
                "start_time": 18.104545454545455,
                "end_time": 18.286363636363635,
                "pitch": 69,
                "velocity": 51,
                "duration": 0.18181818181817988,
                "tempo": 120.0
            },
            {
                "start_time": 14.424999999999999,
                "end_time": 18.286363636363635,
                "pitch": 76,
                "velocity": 64,
                "duration": 3.8613636363636363,
                "tempo": 120.0
            },
            {
                "start_time": 6.977272727272727,
                "end_time": 18.368181818181817,
                "pitch": 51,
                "velocity": 51,
                "duration": 11.39090909090909,
                "tempo": 120.0
            },
            {
                "start_time": 18.286363636363635,
                "end_time": 18.368181818181817,
                "pitch": 72,
                "velocity": 51,
                "duration": 0.08181818181818201,
                "tempo": 120.0
            },
            {
                "start_time": 18.368181818181817,
                "end_time": 18.547727272727272,
                "pitch": 70,
                "velocity": 51,
                "duration": 0.17954545454545467,
                "tempo": 120.0
            },
            {
                "start_time": 18.547727272727272,
                "end_time": 18.581818181818182,
                "pitch": 67,
                "velocity": 51,
                "duration": 0.03409090909091006,
                "tempo": 120.0
            },
            {
                "start_time": 18.054545454545455,
                "end_time": 18.581818181818182,
                "pitch": 79,
                "velocity": 51,
                "duration": 0.5272727272727273,
                "tempo": 120.0
            },
            {
                "start_time": 18.581818181818182,
                "end_time": 18.668181818181818,
                "pitch": 67,
                "velocity": 51,
                "duration": 0.08636363636363598,
                "tempo": 120.0
            },
            {
                "start_time": 18.668181818181818,
                "end_time": 18.82272727272727,
                "pitch": 69,
                "velocity": 51,
                "duration": 0.15454545454545254,
                "tempo": 120.0
            },
            {
                "start_time": 18.82272727272727,
                "end_time": 18.90681818181818,
                "pitch": 65,
                "velocity": 64,
                "duration": 0.08409090909091077,
                "tempo": 120.0
            },
            {
                "start_time": 18.90681818181818,
                "end_time": 19.004545454545454,
                "pitch": 65,
                "velocity": 32,
                "duration": 0.09772727272727266,
                "tempo": 120.0
            },
            {
                "start_time": 19.004545454545454,
                "end_time": 19.118181818181817,
                "pitch": 66,
                "velocity": 64,
                "duration": 0.11363636363636331,
                "tempo": 120.0
            },
            {
                "start_time": 18.581818181818182,
                "end_time": 19.118181818181817,
                "pitch": 79,
                "velocity": 51,
                "duration": 0.5363636363636353,
                "tempo": 120.0
            },
            {
                "start_time": 19.118181818181817,
                "end_time": 19.16590909090909,
                "pitch": 67,
                "velocity": 64,
                "duration": 0.04772727272727195,
                "tempo": 120.0
            },
            {
                "start_time": 17.570454545454545,
                "end_time": 19.26590909090909,
                "pitch": 64,
                "velocity": 51,
                "duration": 1.6954545454545453,
                "tempo": 120.0
            },
            {
                "start_time": 19.168181818181818,
                "end_time": 19.26590909090909,
                "pitch": 64,
                "velocity": 64,
                "duration": 0.09772727272727266,
                "tempo": 120.0
            },
            {
                "start_time": 19.26590909090909,
                "end_time": 19.352272727272727,
                "pitch": 64,
                "velocity": 32,
                "duration": 0.08636363636363598,
                "tempo": 120.0
            },
            {
                "start_time": 19.352272727272727,
                "end_time": 19.54090909090909,
                "pitch": 64,
                "velocity": 64,
                "duration": 0.1886363636363626,
                "tempo": 120.0
            },
            {
                "start_time": 19.54090909090909,
                "end_time": 19.625,
                "pitch": 60,
                "velocity": 64,
                "duration": 0.08409090909091077,
                "tempo": 120.0
            },
            {
                "start_time": 19.625,
                "end_time": 19.722727272727273,
                "pitch": 60,
                "velocity": 32,
                "duration": 0.09772727272727266,
                "tempo": 120.0
            },
            {
                "start_time": 19.722727272727273,
                "end_time": 19.804545454545455,
                "pitch": 65,
                "velocity": 51,
                "duration": 0.08181818181818201,
                "tempo": 120.0
            },
            {
                "start_time": 19.804545454545455,
                "end_time": 19.836363636363636,
                "pitch": 67,
                "velocity": 51,
                "duration": 0.0318181818181813,
                "tempo": 120.0
            },
            {
                "start_time": 19.118181818181817,
                "end_time": 19.836363636363636,
                "pitch": 79,
                "velocity": 64,
                "duration": 0.7181818181818187,
                "tempo": 120.0
            },
            {
                "start_time": 19.836363636363636,
                "end_time": 19.884090909090908,
                "pitch": 67,
                "velocity": 51,
                "duration": 0.04772727272727195,
                "tempo": 120.0
            },
            {
                "start_time": 19.884090909090908,
                "end_time": 20.063636363636363,
                "pitch": 69,
                "velocity": 51,
                "duration": 0.17954545454545467,
                "tempo": 120.0
            },
            {
                "start_time": 20.063636363636363,
                "end_time": 20.113636363636363,
                "pitch": 71,
                "velocity": 64,
                "duration": 0.05000000000000071,
                "tempo": 120.0
            },
            {
                "start_time": 18.286363636363635,
                "end_time": 20.113636363636363,
                "pitch": 76,
                "velocity": 51,
                "duration": 1.827272727272728,
                "tempo": 120.0
            },
            {
                "start_time": 20.113636363636363,
                "end_time": 20.145454545454545,
                "pitch": 72,
                "velocity": 64,
                "duration": 0.0318181818181813,
                "tempo": 120.0
            },
            {
                "start_time": 20.145454545454545,
                "end_time": 20.243181818181817,
                "pitch": 72,
                "velocity": 32,
                "duration": 0.09772727272727266,
                "tempo": 120.0
            },
            {
                "start_time": 20.243181818181817,
                "end_time": 20.325,
                "pitch": 69,
                "velocity": 51,
                "duration": 0.08181818181818201,
                "tempo": 120.0
            },
            {
                "start_time": 20.325,
                "end_time": 20.409090909090907,
                "pitch": 69,
                "velocity": 32,
                "duration": 0.08409090909090722,
                "tempo": 120.0
            },
            {
                "start_time": 20.409090909090907,
                "end_time": 20.509090909090908,
                "pitch": 69,
                "velocity": 64,
                "duration": 0.10000000000000142,
                "tempo": 120.0
            },
            {
                "start_time": 20.509090909090908,
                "end_time": 20.59318181818182,
                "pitch": 70,
                "velocity": 32,
                "duration": 0.08409090909091077,
                "tempo": 120.0
            },
            {
                "start_time": 20.59318181818182,
                "end_time": 20.677272727272726,
                "pitch": 67,
                "velocity": 51,
                "duration": 0.08409090909090722,
                "tempo": 120.0
            },
            {
                "start_time": 20.677272727272726,
                "end_time": 20.777272727272727,
                "pitch": 67,
                "velocity": 32,
                "duration": 0.10000000000000142,
                "tempo": 120.0
            },
            {
                "start_time": 20.777272727272727,
                "end_time": 20.861363636363635,
                "pitch": 68,
                "velocity": 64,
                "duration": 0.08409090909090722,
                "tempo": 120.0
            },
            {
                "start_time": 20.861363636363635,
                "end_time": 20.961363636363636,
                "pitch": 69,
                "velocity": 32,
                "duration": 0.10000000000000142,
                "tempo": 120.0
            },
            {
                "start_time": 20.961363636363636,
                "end_time": 21.045454545454543,
                "pitch": 65,
                "velocity": 51,
                "duration": 0.08409090909090722,
                "tempo": 120.0
            },
            {
                "start_time": 21.045454545454543,
                "end_time": 21.129545454545454,
                "pitch": 65,
                "velocity": 32,
                "duration": 0.08409090909091077,
                "tempo": 120.0
            },
            {
                "start_time": 21.129545454545454,
                "end_time": 21.229545454545452,
                "pitch": 65,
                "velocity": 51,
                "duration": 0.09999999999999787,
                "tempo": 120.0
            },
            {
                "start_time": 21.229545454545452,
                "end_time": 21.263636363636362,
                "pitch": 67,
                "velocity": 51,
                "duration": 0.03409090909091006,
                "tempo": 120.0
            },
            {
                "start_time": 19.836363636363636,
                "end_time": 21.263636363636362,
                "pitch": 79,
                "velocity": 51,
                "duration": 1.427272727272726,
                "tempo": 120.0
            },
            {
                "start_time": 21.263636363636362,
                "end_time": 21.313636363636363,
                "pitch": 67,
                "velocity": 51,
                "duration": 0.05000000000000071,
                "tempo": 120.0
            },
            {
                "start_time": 15.61590909090909,
                "end_time": 21.313636363636363,
                "pitch": 78,
                "velocity": 51,
                "duration": 5.697727272727272,
                "tempo": 120.0
            },
            {
                "start_time": 21.313636363636363,
                "end_time": 21.493181818181817,
                "pitch": 65,
                "velocity": 51,
                "duration": 0.17954545454545467,
                "tempo": 120.0
            },
            {
                "start_time": 21.493181818181817,
                "end_time": 21.575,
                "pitch": 64,
                "velocity": 64,
                "duration": 0.08181818181818201,
                "tempo": 120.0
            },
            {
                "start_time": 21.575,
                "end_time": 21.65681818181818,
                "pitch": 65,
                "velocity": 25,
                "duration": 0.08181818181818201,
                "tempo": 120.0
            },
            {
                "start_time": 21.65681818181818,
                "end_time": 21.75681818181818,
                "pitch": 72,
                "velocity": 51,
                "duration": 0.09999999999999787,
                "tempo": 120.0
            },
            {
                "start_time": 21.75681818181818,
                "end_time": 21.84090909090909,
                "pitch": 72,
                "velocity": 32,
                "duration": 0.08409090909091077,
                "tempo": 120.0
            },
            {
                "start_time": 21.84090909090909,
                "end_time": 22.375,
                "pitch": 72,
                "velocity": 51,
                "duration": 0.5340909090909101,
                "tempo": 120.0
            },
            {
                "start_time": 22.375,
                "end_time": 22.424999999999997,
                "pitch": 72,
                "velocity": 64,
                "duration": 0.04999999999999716,
                "tempo": 120.0
            },
            {
                "start_time": 22.424999999999997,
                "end_time": 22.472727272727273,
                "pitch": 72,
                "velocity": 32,
                "duration": 0.047727272727275505,
                "tempo": 120.0
            },
            {
                "start_time": 22.472727272727273,
                "end_time": 22.522727272727273,
                "pitch": 72,
                "velocity": 64,
                "duration": 0.05000000000000071,
                "tempo": 120.0
            },
            {
                "start_time": 22.522727272727273,
                "end_time": 22.552272727272726,
                "pitch": 72,
                "velocity": 32,
                "duration": 0.029545454545452543,
                "tempo": 120.0
            },
            {
                "start_time": 22.554545454545455,
                "end_time": 22.634090909090908,
                "pitch": 74,
                "velocity": 64,
                "duration": 0.07954545454545325,
                "tempo": 120.0
            },
            {
                "start_time": 22.634090909090908,
                "end_time": 22.73181818181818,
                "pitch": 74,
                "velocity": 32,
                "duration": 0.09772727272727266,
                "tempo": 120.0
            },
            {
                "start_time": 22.73181818181818,
                "end_time": 22.81590909090909,
                "pitch": 71,
                "velocity": 64,
                "duration": 0.08409090909091077,
                "tempo": 120.0
            },
            {
                "start_time": 22.81590909090909,
                "end_time": 22.9,
                "pitch": 71,
                "velocity": 32,
                "duration": 0.08409090909090722,
                "tempo": 120.0
            },
            {
                "start_time": 22.902272727272727,
                "end_time": 23.004545454545454,
                "pitch": 72,
                "velocity": 64,
                "duration": 0.10227272727272663,
                "tempo": 120.0
            },
            {
                "start_time": 23.004545454545454,
                "end_time": 23.08863636363636,
                "pitch": 72,
                "velocity": 32,
                "duration": 0.08409090909090722,
                "tempo": 120.0
            },
            {
                "start_time": 23.09090909090909,
                "end_time": 23.143181818181816,
                "pitch": 72,
                "velocity": 51,
                "duration": 0.052272727272725916,
                "tempo": 120.0
            },
            {
                "start_time": 23.143181818181816,
                "end_time": 23.172727272727272,
                "pitch": 72,
                "velocity": 32,
                "duration": 0.029545454545456096,
                "tempo": 120.0
            },
            {
                "start_time": 23.174999999999997,
                "end_time": 23.24090909090909,
                "pitch": 72,
                "velocity": 51,
                "duration": 0.06590909090909136,
                "tempo": 120.0
            },
            {
                "start_time": 23.24090909090909,
                "end_time": 23.270454545454545,
                "pitch": 72,
                "velocity": 32,
                "duration": 0.029545454545456096,
                "tempo": 120.0
            },
            {
                "start_time": 23.272727272727273,
                "end_time": 23.352272727272727,
                "pitch": 74,
                "velocity": 51,
                "duration": 0.07954545454545325,
                "tempo": 120.0
            },
            {
                "start_time": 23.352272727272727,
                "end_time": 23.45,
                "pitch": 74,
                "velocity": 32,
                "duration": 0.09772727272727266,
                "tempo": 120.0
            },
            {
                "start_time": 23.45,
                "end_time": 23.53181818181818,
                "pitch": 71,
                "velocity": 51,
                "duration": 0.08181818181818201,
                "tempo": 120.0
            },
            {
                "start_time": 23.534090909090907,
                "end_time": 23.61590909090909,
                "pitch": 71,
                "velocity": 32,
                "duration": 0.08181818181818201,
                "tempo": 120.0
            },
            {
                "start_time": 23.61590909090909,
                "end_time": 23.71590909090909,
                "pitch": 72,
                "velocity": 51,
                "duration": 0.10000000000000142,
                "tempo": 120.0
            },
            {
                "start_time": 23.71818181818182,
                "end_time": 23.799999999999997,
                "pitch": 72,
                "velocity": 32,
                "duration": 0.08181818181817846,
                "tempo": 120.0
            },
            {
                "start_time": 23.802272727272726,
                "end_time": 23.854545454545452,
                "pitch": 72,
                "velocity": 51,
                "duration": 0.052272727272725916,
                "tempo": 120.0
            },
            {
                "start_time": 23.854545454545452,
                "end_time": 23.884090909090908,
                "pitch": 72,
                "velocity": 32,
                "duration": 0.029545454545456096,
                "tempo": 120.0
            },
            {
                "start_time": 23.884090909090908,
                "end_time": 23.952272727272724,
                "pitch": 72,
                "velocity": 51,
                "duration": 0.06818181818181657,
                "tempo": 120.0
            },
            {
                "start_time": 23.952272727272724,
                "end_time": 23.98409090909091,
                "pitch": 72,
                "velocity": 32,
                "duration": 0.031818181818184854,
                "tempo": 120.0
            },
            {
                "start_time": 23.986363636363635,
                "end_time": 24.068181818181817,
                "pitch": 74,
                "velocity": 51,
                "duration": 0.08181818181818201,
                "tempo": 120.0
            },
            {
                "start_time": 24.068181818181817,
                "end_time": 24.152272727272727,
                "pitch": 74,
                "velocity": 32,
                "duration": 0.08409090909091077,
                "tempo": 120.0
            },
            {
                "start_time": 24.152272727272727,
                "end_time": 24.252272727272725,
                "pitch": 71,
                "velocity": 51,
                "duration": 0.09999999999999787,
                "tempo": 120.0
            },
            {
                "start_time": 24.252272727272725,
                "end_time": 24.336363636363636,
                "pitch": 71,
                "velocity": 32,
                "duration": 0.08409090909091077,
                "tempo": 120.0
            },
            {
                "start_time": 24.336363636363636,
                "end_time": 24.420454545454543,
                "pitch": 72,
                "velocity": 51,
                "duration": 0.08409090909090722,
                "tempo": 120.0
            },
            {
                "start_time": 24.420454545454543,
                "end_time": 24.520454545454545,
                "pitch": 72,
                "velocity": 32,
                "duration": 0.10000000000000142,
                "tempo": 120.0
            },
            {
                "start_time": 24.520454545454545,
                "end_time": 24.604545454545452,
                "pitch": 71,
                "velocity": 51,
                "duration": 0.08409090909090722,
                "tempo": 120.0
            },
            {
                "start_time": 24.604545454545452,
                "end_time": 24.702272727272724,
                "pitch": 71,
                "velocity": 16,
                "duration": 0.09772727272727266,
                "tempo": 120.0
            },
            {
                "start_time": 24.702272727272724,
                "end_time": 24.78181818181818,
                "pitch": 72,
                "velocity": 40,
                "duration": 0.0795454545454568,
                "tempo": 120.0
            },
            {
                "start_time": 24.78181818181818,
                "end_time": 24.863636363636363,
                "pitch": 72,
                "velocity": 16,
                "duration": 0.08181818181818201,
                "tempo": 120.0
            },
            {
                "start_time": 24.863636363636363,
                "end_time": 24.961363636363636,
                "pitch": 71,
                "velocity": 64,
                "duration": 0.09772727272727266,
                "tempo": 120.0
            },
            {
                "start_time": 24.961363636363636,
                "end_time": 25.043181818181818,
                "pitch": 71,
                "velocity": 20,
                "duration": 0.08181818181818201,
                "tempo": 120.0
            },
            {
                "start_time": 25.043181818181818,
                "end_time": 25.125,
                "pitch": 72,
                "velocity": 51,
                "duration": 0.08181818181818201,
                "tempo": 120.0
            },
            {
                "start_time": 25.125,
                "end_time": 25.222727272727273,
                "pitch": 72,
                "velocity": 20,
                "duration": 0.09772727272727266,
                "tempo": 120.0
            },
            {
                "start_time": 25.222727272727273,
                "end_time": 25.304545454545455,
                "pitch": 71,
                "velocity": 80,
                "duration": 0.08181818181818201,
                "tempo": 120.0
            },
            {
                "start_time": 25.304545454545455,
                "end_time": 25.39090909090909,
                "pitch": 71,
                "velocity": 25,
                "duration": 0.08636363636363598,
                "tempo": 120.0
            },
            {
                "start_time": 25.39090909090909,
                "end_time": 25.493181818181817,
                "pitch": 72,
                "velocity": 64,
                "duration": 0.10227272727272663,
                "tempo": 120.0
            },
            {
                "start_time": 25.493181818181817,
                "end_time": 25.579545454545453,
                "pitch": 72,
                "velocity": 25,
                "duration": 0.08636363636363598,
                "tempo": 120.0
            },
            {
                "start_time": 25.579545454545453,
                "end_time": 25.663636363636364,
                "pitch": 72,
                "velocity": 64,
                "duration": 0.08409090909091077,
                "tempo": 120.0
            },
            {
                "start_time": 25.663636363636364,
                "end_time": 25.761363636363637,
                "pitch": 72,
                "velocity": 25,
                "duration": 0.09772727272727266,
                "tempo": 120.0
            },
            {
                "start_time": 25.761363636363637,
                "end_time": 25.84318181818182,
                "pitch": 72,
                "velocity": 64,
                "duration": 0.08181818181818201,
                "tempo": 120.0
            },
            {
                "start_time": 25.84318181818182,
                "end_time": 25.94090909090909,
                "pitch": 72,
                "velocity": 32,
                "duration": 0.09772727272727266,
                "tempo": 120.0
            },
            {
                "start_time": 26.479545454545452,
                "end_time": 26.561363636363634,
                "pitch": 70,
                "velocity": 64,
                "duration": 0.08181818181818201,
                "tempo": 120.0
            },
            {
                "start_time": 26.561363636363634,
                "end_time": 26.64090909090909,
                "pitch": 70,
                "velocity": 32,
                "duration": 0.0795454545454568,
                "tempo": 120.0
            },
            {
                "start_time": 27.01590909090909,
                "end_time": 27.099999999999998,
                "pitch": 69,
                "velocity": 64,
                "duration": 0.08409090909090722,
                "tempo": 120.0
            },
            {
                "start_time": 27.099999999999998,
                "end_time": 27.19772727272727,
                "pitch": 69,
                "velocity": 32,
                "duration": 0.09772727272727266,
                "tempo": 120.0
            },
            {
                "start_time": 27.19772727272727,
                "end_time": 27.279545454545453,
                "pitch": 72,
                "velocity": 64,
                "duration": 0.08181818181818201,
                "tempo": 120.0
            },
            {
                "start_time": 27.279545454545453,
                "end_time": 27.35909090909091,
                "pitch": 72,
                "velocity": 32,
                "duration": 0.0795454545454568,
                "tempo": 120.0
            },
            {
                "start_time": 27.361363636363635,
                "end_time": 27.456818181818182,
                "pitch": 69,
                "velocity": 64,
                "duration": 0.09545454545454746,
                "tempo": 120.0
            },
            {
                "start_time": 27.456818181818182,
                "end_time": 27.538636363636364,
                "pitch": 69,
                "velocity": 32,
                "duration": 0.08181818181818201,
                "tempo": 120.0
            },
            {
                "start_time": 27.538636363636364,
                "end_time": 27.620454545454542,
                "pitch": 72,
                "velocity": 64,
                "duration": 0.08181818181817846,
                "tempo": 120.0
            },
            {
                "start_time": 27.620454545454542,
                "end_time": 27.718181818181815,
                "pitch": 72,
                "velocity": 32,
                "duration": 0.09772727272727266,
                "tempo": 120.0
            },
            {
                "start_time": 27.718181818181815,
                "end_time": 27.799999999999997,
                "pitch": 69,
                "velocity": 64,
                "duration": 0.08181818181818201,
                "tempo": 120.0
            },
            {
                "start_time": 27.799999999999997,
                "end_time": 27.886363636363637,
                "pitch": 69,
                "velocity": 32,
                "duration": 0.08636363636363953,
                "tempo": 120.0
            },
            {
                "start_time": 27.886363636363637,
                "end_time": 27.988636363636363,
                "pitch": 72,
                "velocity": 64,
                "duration": 0.10227272727272663,
                "tempo": 120.0
            },
            {
                "start_time": 27.988636363636363,
                "end_time": 28.075,
                "pitch": 72,
                "velocity": 32,
                "duration": 0.08636363636363598,
                "tempo": 120.0
            },
            {
                "start_time": 28.075,
                "end_time": 28.129545454545454,
                "pitch": 65,
                "velocity": 64,
                "duration": 0.054545454545454675,
                "tempo": 120.0
            },
            {
                "start_time": 28.129545454545454,
                "end_time": 28.159090909090907,
                "pitch": 65,
                "velocity": 32,
                "duration": 0.029545454545452543,
                "tempo": 120.0
            },
            {
                "start_time": 28.159090909090907,
                "end_time": 28.224999999999998,
                "pitch": 65,
                "velocity": 64,
                "duration": 0.06590909090909136,
                "tempo": 120.0
            },
            {
                "start_time": 28.227272727272727,
                "end_time": 28.25681818181818,
                "pitch": 65,
                "velocity": 32,
                "duration": 0.029545454545452543,
                "tempo": 120.0
            },
            {
                "start_time": 28.25681818181818,
                "end_time": 28.33863636363636,
                "pitch": 65,
                "velocity": 64,
                "duration": 0.08181818181818201,
                "tempo": 120.0
            },
            {
                "start_time": 28.33863636363636,
                "end_time": 28.436363636363634,
                "pitch": 65,
                "velocity": 32,
                "duration": 0.09772727272727266,
                "tempo": 120.0
            },
            {
                "start_time": 28.436363636363634,
                "end_time": 28.518181818181816,
                "pitch": 65,
                "velocity": 64,
                "duration": 0.08181818181818201,
                "tempo": 120.0
            },
            {
                "start_time": 28.518181818181816,
                "end_time": 28.602272727272727,
                "pitch": 65,
                "velocity": 32,
                "duration": 0.08409090909091077,
                "tempo": 120.0
            },
            {
                "start_time": 28.602272727272727,
                "end_time": 28.702272727272724,
                "pitch": 65,
                "velocity": 51,
                "duration": 0.09999999999999787,
                "tempo": 120.0
            },
            {
                "start_time": 28.702272727272724,
                "end_time": 28.736363636363635,
                "pitch": 67,
                "velocity": 51,
                "duration": 0.03409090909091006,
                "tempo": 120.0
            },
            {
                "start_time": 21.263636363636362,
                "end_time": 28.736363636363635,
                "pitch": 79,
                "velocity": 51,
                "duration": 7.472727272727273,
                "tempo": 120.0
            },
            {
                "start_time": 28.736363636363635,
                "end_time": 28.786363636363635,
                "pitch": 67,
                "velocity": 51,
                "duration": 0.05000000000000071,
                "tempo": 120.0
            },
            {
                "start_time": 28.786363636363635,
                "end_time": 28.96590909090909,
                "pitch": 69,
                "velocity": 51,
                "duration": 0.17954545454545467,
                "tempo": 120.0
            },
            {
                "start_time": 20.113636363636363,
                "end_time": 28.96590909090909,
                "pitch": 76,
                "velocity": 64,
                "duration": 8.852272727272727,
                "tempo": 120.0
            },
            {
                "start_time": 18.368181818181817,
                "end_time": 29.047727272727272,
                "pitch": 51,
                "velocity": 51,
                "duration": 10.679545454545455,
                "tempo": 120.0
            },
            {
                "start_time": 28.96590909090909,
                "end_time": 29.047727272727272,
                "pitch": 72,
                "velocity": 51,
                "duration": 0.08181818181818201,
                "tempo": 120.0
            },
            {
                "start_time": 29.047727272727272,
                "end_time": 29.229545454545452,
                "pitch": 70,
                "velocity": 51,
                "duration": 0.18181818181817988,
                "tempo": 120.0
            },
            {
                "start_time": 29.229545454545452,
                "end_time": 29.263636363636362,
                "pitch": 67,
                "velocity": 51,
                "duration": 0.03409090909091006,
                "tempo": 120.0
            },
            {
                "start_time": 28.736363636363635,
                "end_time": 29.263636363636362,
                "pitch": 79,
                "velocity": 51,
                "duration": 0.5272727272727273,
                "tempo": 120.0
            },
            {
                "start_time": 29.263636363636362,
                "end_time": 29.313636363636363,
                "pitch": 67,
                "velocity": 51,
                "duration": 0.05000000000000071,
                "tempo": 120.0
            },
            {
                "start_time": 29.313636363636363,
                "end_time": 29.452272727272724,
                "pitch": 69,
                "velocity": 51,
                "duration": 0.1386363636363619,
                "tempo": 120.0
            },
            {
                "start_time": 29.263636363636362,
                "end_time": 29.452272727272724,
                "pitch": 79,
                "velocity": 51,
                "duration": 0.1886363636363626,
                "tempo": 120.0
            },
            {
                "start_time": 29.452272727272724,
                "end_time": 29.502272727272725,
                "pitch": 67,
                "velocity": 51,
                "duration": 0.05000000000000071,
                "tempo": 120.0
            },
            {
                "start_time": 21.313636363636363,
                "end_time": 29.502272727272725,
                "pitch": 78,
                "velocity": 51,
                "duration": 8.188636363636363,
                "tempo": 120.0
            },
            {
                "start_time": 0.07954545454545454,
                "end_time": 29.586363636363636,
                "pitch": 31,
                "velocity": 64,
                "duration": 29.506818181818183,
                "tempo": 120.0
            },
            {
                "start_time": 29.502272727272725,
                "end_time": 29.586363636363636,
                "pitch": 65,
                "velocity": 51,
                "duration": 0.08409090909091077,
                "tempo": 120.0
            },
            {
                "start_time": 29.586363636363636,
                "end_time": 29.76590909090909,
                "pitch": 69,
                "velocity": 51,
                "duration": 0.17954545454545467,
                "tempo": 120.0
            },
            {
                "start_time": 29.502272727272725,
                "end_time": 29.76590909090909,
                "pitch": 78,
                "velocity": 51,
                "duration": 0.26363636363636545,
                "tempo": 120.0
            },
            {
                "start_time": 29.76590909090909,
                "end_time": 29.847727272727273,
                "pitch": 65,
                "velocity": 51,
                "duration": 0.08181818181818201,
                "tempo": 120.0
            },
            {
                "start_time": 29.847727272727273,
                "end_time": 29.977272727272727,
                "pitch": 62,
                "velocity": 51,
                "duration": 0.12954545454545396,
                "tempo": 120.0
            },
            {
                "start_time": 29.586363636363636,
                "end_time": 30.027272727272727,
                "pitch": 31,
                "velocity": 51,
                "duration": 0.44090909090909136,
                "tempo": 120.0
            },
            {
                "start_time": 29.977272727272727,
                "end_time": 30.027272727272727,
                "pitch": 60,
                "velocity": 51,
                "duration": 0.05000000000000071,
                "tempo": 120.0
            },
            {
                "start_time": 30.027272727272727,
                "end_time": 30.14090909090909,
                "pitch": 69,
                "velocity": 51,
                "duration": 0.11363636363636331,
                "tempo": 120.0
            },
            {
                "start_time": 29.452272727272724,
                "end_time": 30.14090909090909,
                "pitch": 79,
                "velocity": 51,
                "duration": 0.6886363636363662,
                "tempo": 120.0
            },
            {
                "start_time": 30.14090909090909,
                "end_time": 30.204545454545453,
                "pitch": 67,
                "velocity": 51,
                "duration": 0.0636363636363626,
                "tempo": 120.0
            },
            {
                "start_time": 29.76590909090909,
                "end_time": 30.204545454545453,
                "pitch": 78,
                "velocity": 51,
                "duration": 0.4386363636363626,
                "tempo": 120.0
            },
            {
                "start_time": 30.027272727272727,
                "end_time": 30.28863636363636,
                "pitch": 31,
                "velocity": 51,
                "duration": 0.26136363636363313,
                "tempo": 120.0
            },
            {
                "start_time": 30.204545454545453,
                "end_time": 30.28863636363636,
                "pitch": 65,
                "velocity": 51,
                "duration": 0.08409090909090722,
                "tempo": 120.0
            },
            {
                "start_time": 30.28863636363636,
                "end_time": 30.477272727272727,
                "pitch": 69,
                "velocity": 51,
                "duration": 0.18863636363636616,
                "tempo": 120.0
            },
            {
                "start_time": 30.204545454545453,
                "end_time": 30.477272727272727,
                "pitch": 78,
                "velocity": 51,
                "duration": 0.2727272727272734,
                "tempo": 120.0
            },
            {
                "start_time": 30.477272727272727,
                "end_time": 30.563636363636363,
                "pitch": 65,
                "velocity": 51,
                "duration": 0.08636363636363598,
                "tempo": 120.0
            },
            {
                "start_time": 30.563636363636363,
                "end_time": 30.695454545454545,
                "pitch": 62,
                "velocity": 51,
                "duration": 0.13181818181818272,
                "tempo": 120.0
            },
            {
                "start_time": 30.695454545454545,
                "end_time": 30.745454545454542,
                "pitch": 60,
                "velocity": 51,
                "duration": 0.04999999999999716,
                "tempo": 120.0
            },
            {
                "start_time": 30.745454545454542,
                "end_time": 31.09090909090909,
                "pitch": 61,
                "velocity": 64,
                "duration": 0.34545454545454746,
                "tempo": 120.0
            },
            {
                "start_time": 31.093181818181815,
                "end_time": 31.195454545454545,
                "pitch": 60,
                "velocity": 64,
                "duration": 0.10227272727273018,
                "tempo": 120.0
            },
            {
                "start_time": 31.195454545454545,
                "end_time": 31.279545454545453,
                "pitch": 60,
                "velocity": 32,
                "duration": 0.08409090909090722,
                "tempo": 120.0
            },
            {
                "start_time": 31.28181818181818,
                "end_time": 31.36590909090909,
                "pitch": 60,
                "velocity": 64,
                "duration": 0.08409090909090722,
                "tempo": 120.0
            },
            {
                "start_time": 31.36590909090909,
                "end_time": 31.461363636363636,
                "pitch": 60,
                "velocity": 32,
                "duration": 0.09545454545454746,
                "tempo": 120.0
            },
            {
                "start_time": 31.46363636363636,
                "end_time": 31.80681818181818,
                "pitch": 61,
                "velocity": 64,
                "duration": 0.3431818181818187,
                "tempo": 120.0
            },
            {
                "start_time": 31.80909090909091,
                "end_time": 31.89090909090909,
                "pitch": 60,
                "velocity": 64,
                "duration": 0.08181818181818201,
                "tempo": 120.0
            },
            {
                "start_time": 31.89090909090909,
                "end_time": 31.99090909090909,
                "pitch": 60,
                "velocity": 32,
                "duration": 0.09999999999999787,
                "tempo": 120.0
            },
            {
                "start_time": 31.993181818181817,
                "end_time": 32.074999999999996,
                "pitch": 60,
                "velocity": 64,
                "duration": 0.08181818181817846,
                "tempo": 120.0
            },
            {
                "start_time": 32.074999999999996,
                "end_time": 32.17272727272727,
                "pitch": 60,
                "velocity": 32,
                "duration": 0.09772727272727622,
                "tempo": 120.0
            },
            {
                "start_time": 32.17272727272727,
                "end_time": 32.513636363636365,
                "pitch": 61,
                "velocity": 64,
                "duration": 0.3409090909090935,
                "tempo": 120.0
            },
            {
                "start_time": 32.513636363636365,
                "end_time": 32.595454545454544,
                "pitch": 60,
                "velocity": 64,
                "duration": 0.08181818181817846,
                "tempo": 120.0
            },
            {
                "start_time": 32.595454545454544,
                "end_time": 32.69318181818182,
                "pitch": 60,
                "velocity": 32,
                "duration": 0.09772727272727622,
                "tempo": 120.0
            },
            {
                "start_time": 32.69318181818182,
                "end_time": 32.775,
                "pitch": 60,
                "velocity": 64,
                "duration": 0.08181818181817846,
                "tempo": 120.0
            },
            {
                "start_time": 32.775,
                "end_time": 32.861363636363635,
                "pitch": 60,
                "velocity": 32,
                "duration": 0.08636363636363598,
                "tempo": 120.0
            },
            {
                "start_time": 32.861363636363635,
                "end_time": 32.96363636363636,
                "pitch": 53,
                "velocity": 64,
                "duration": 0.10227272727272663,
                "tempo": 120.0
            },
            {
                "start_time": 32.965909090909086,
                "end_time": 33.05,
                "pitch": 53,
                "velocity": 32,
                "duration": 0.08409090909091077,
                "tempo": 120.0
            },
            {
                "start_time": 17.920454545454543,
                "end_time": 33.31363636363636,
                "pitch": 0,
                "velocity": 51,
                "duration": 15.39318181818182,
                "tempo": 120.0
            },
            {
                "start_time": 33.23181818181818,
                "end_time": 33.31363636363636,
                "pitch": 53,
                "velocity": 51,
                "duration": 0.08181818181818556,
                "tempo": 120.0
            },
            {
                "start_time": 17.920454545454543,
                "end_time": 33.345454545454544,
                "pitch": 55,
                "velocity": 51,
                "duration": 15.425,
                "tempo": 120.0
            },
            {
                "start_time": 33.31363636363636,
                "end_time": 33.345454545454544,
                "pitch": 55,
                "velocity": 51,
                "duration": 0.0318181818181813,
                "tempo": 120.0
            },
            {
                "start_time": 33.31363636363636,
                "end_time": 33.41136363636363,
                "pitch": 0,
                "velocity": 51,
                "duration": 0.09772727272726911,
                "tempo": 120.0
            },
            {
                "start_time": 33.345454545454544,
                "end_time": 33.41136363636363,
                "pitch": 55,
                "velocity": 51,
                "duration": 0.06590909090908781,
                "tempo": 120.0
            },
            {
                "start_time": 33.41136363636363,
                "end_time": 33.42727272727272,
                "pitch": 55,
                "velocity": 51,
                "duration": 0.01590909090909065,
                "tempo": 120.0
            },
            {
                "start_time": 33.42727272727272,
                "end_time": 33.57954545454545,
                "pitch": 57,
                "velocity": 51,
                "duration": 0.1522727272727309,
                "tempo": 120.0
            },
            {
                "start_time": 33.57954545454545,
                "end_time": 33.68181818181818,
                "pitch": 72,
                "velocity": 64,
                "duration": 0.10227272727272663,
                "tempo": 120.0
            },
            {
                "start_time": 33.68181818181818,
                "end_time": 33.768181818181816,
                "pitch": 72,
                "velocity": 32,
                "duration": 0.08636363636363598,
                "tempo": 120.0
            },
            {
                "start_time": 34.29772727272727,
                "end_time": 34.38409090909091,
                "pitch": 70,
                "velocity": 64,
                "duration": 0.08636363636363598,
                "tempo": 120.0
            },
            {
                "start_time": 34.38409090909091,
                "end_time": 34.486363636363635,
                "pitch": 70,
                "velocity": 32,
                "duration": 0.10227272727272663,
                "tempo": 120.0
            },
            {
                "start_time": 34.83181818181818,
                "end_time": 34.92727272727272,
                "pitch": 69,
                "velocity": 64,
                "duration": 0.0954545454545439,
                "tempo": 120.0
            },
            {
                "start_time": 34.929545454545455,
                "end_time": 35.00909090909091,
                "pitch": 69,
                "velocity": 32,
                "duration": 0.07954545454545325,
                "tempo": 120.0
            },
            {
                "start_time": 33.345454545454544,
                "end_time": 35.090909090909086,
                "pitch": 67,
                "velocity": 51,
                "duration": 1.7454545454545425,
                "tempo": 120.0
            },
            {
                "start_time": 35.00909090909091,
                "end_time": 35.090909090909086,
                "pitch": 67,
                "velocity": 64,
                "duration": 0.08181818181817846,
                "tempo": 120.0
            },
            {
                "start_time": 35.090909090909086,
                "end_time": 35.18863636363636,
                "pitch": 67,
                "velocity": 32,
                "duration": 0.09772727272727622,
                "tempo": 120.0
            },
            {
                "start_time": 35.18863636363636,
                "end_time": 35.27045454545454,
                "pitch": 65,
                "velocity": 64,
                "duration": 0.08181818181817846,
                "tempo": 120.0
            },
            {
                "start_time": 35.27045454545454,
                "end_time": 35.35454545454545,
                "pitch": 65,
                "velocity": 32,
                "duration": 0.08409090909091077,
                "tempo": 120.0
            },
            {
                "start_time": 35.35454545454545,
                "end_time": 35.45454545454545,
                "pitch": 67,
                "velocity": 64,
                "duration": 0.10000000000000142,
                "tempo": 120.0
            },
            {
                "start_time": 35.45454545454545,
                "end_time": 35.538636363636364,
                "pitch": 67,
                "velocity": 32,
                "duration": 0.08409090909091077,
                "tempo": 120.0
            },
            {
                "start_time": 35.538636363636364,
                "end_time": 35.62045454545454,
                "pitch": 69,
                "velocity": 64,
                "duration": 0.08181818181817846,
                "tempo": 120.0
            },
            {
                "start_time": 35.62272727272727,
                "end_time": 35.71818181818182,
                "pitch": 69,
                "velocity": 32,
                "duration": 0.09545454545455101,
                "tempo": 120.0
            },
            {
                "start_time": 35.720454545454544,
                "end_time": 35.8,
                "pitch": 72,
                "velocity": 64,
                "duration": 0.07954545454545325,
                "tempo": 120.0
            },
            {
                "start_time": 35.8,
                "end_time": 35.89772727272727,
                "pitch": 72,
                "velocity": 32,
                "duration": 0.09772727272727622,
                "tempo": 120.0
            },
            {
                "start_time": 35.89772727272727,
                "end_time": 35.949999999999996,
                "pitch": 72,
                "velocity": 64,
                "duration": 0.052272727272722364,
                "tempo": 120.0
            },
            {
                "start_time": 35.949999999999996,
                "end_time": 35.98181818181818,
                "pitch": 72,
                "velocity": 32,
                "duration": 0.0318181818181813,
                "tempo": 120.0
            },
            {
                "start_time": 35.98181818181818,
                "end_time": 36.03409090909091,
                "pitch": 72,
                "velocity": 64,
                "duration": 0.05227272727272947,
                "tempo": 120.0
            },
            {
                "start_time": 36.03409090909091,
                "end_time": 36.06590909090909,
                "pitch": 72,
                "velocity": 32,
                "duration": 0.0318181818181813,
                "tempo": 120.0
            },
            {
                "start_time": 36.06818181818181,
                "end_time": 36.17045454545455,
                "pitch": 72,
                "velocity": 64,
                "duration": 0.10227272727273373,
                "tempo": 120.0
            },
            {
                "start_time": 36.17045454545455,
                "end_time": 36.25454545454545,
                "pitch": 72,
                "velocity": 32,
                "duration": 0.08409090909090366,
                "tempo": 120.0
            },
            {
                "start_time": 36.25681818181818,
                "end_time": 36.33863636363636,
                "pitch": 72,
                "velocity": 64,
                "duration": 0.08181818181817846,
                "tempo": 120.0
            },
            {
                "start_time": 36.340909090909086,
                "end_time": 36.43636363636364,
                "pitch": 72,
                "velocity": 32,
                "duration": 0.09545454545455101,
                "tempo": 120.0
            },
            {
                "start_time": 36.43863636363636,
                "end_time": 36.518181818181816,
                "pitch": 72,
                "velocity": 64,
                "duration": 0.07954545454545325,
                "tempo": 120.0
            },
            {
                "start_time": 36.518181818181816,
                "end_time": 36.6,
                "pitch": 72,
                "velocity": 32,
                "duration": 0.08181818181818556,
                "tempo": 120.0
            },
            {
                "start_time": 36.6,
                "end_time": 36.699999999999996,
                "pitch": 84,
                "velocity": 64,
                "duration": 0.09999999999999432,
                "tempo": 120.0
            },
            {
                "start_time": 36.699999999999996,
                "end_time": 36.78409090909091,
                "pitch": 84,
                "velocity": 32,
                "duration": 0.08409090909091077,
                "tempo": 120.0
            },
            {
                "start_time": 36.78636363636363,
                "end_time": 36.87045454545454,
                "pitch": 82,
                "velocity": 64,
                "duration": 0.08409090909091077,
                "tempo": 120.0
            },
            {
                "start_time": 36.87045454545454,
                "end_time": 36.97272727272727,
                "pitch": 82,
                "velocity": 32,
                "duration": 0.10227272727272663,
                "tempo": 120.0
            },
            {
                "start_time": 36.975,
                "end_time": 37.05681818181818,
                "pitch": 81,
                "velocity": 64,
                "duration": 0.08181818181817846,
                "tempo": 120.0
            },
            {
                "start_time": 37.059090909090905,
                "end_time": 37.154545454545456,
                "pitch": 81,
                "velocity": 32,
                "duration": 0.09545454545455101,
                "tempo": 120.0
            },
            {
                "start_time": 30.14090909090909,
                "end_time": 37.236363636363635,
                "pitch": 79,
                "velocity": 51,
                "duration": 7.095454545454544,
                "tempo": 120.0
            },
            {
                "start_time": 37.154545454545456,
                "end_time": 37.236363636363635,
                "pitch": 79,
                "velocity": 64,
                "duration": 0.08181818181817846,
                "tempo": 120.0
            },
            {
                "start_time": 37.236363636363635,
                "end_time": 37.31818181818181,
                "pitch": 79,
                "velocity": 32,
                "duration": 0.08181818181817846,
                "tempo": 120.0
            },
            {
                "start_time": 37.31818181818181,
                "end_time": 37.41590909090909,
                "pitch": 77,
                "velocity": 64,
                "duration": 0.09772727272727622,
                "tempo": 120.0
            },
            {
                "start_time": 37.41590909090909,
                "end_time": 37.49772727272727,
                "pitch": 77,
                "velocity": 32,
                "duration": 0.08181818181817846,
                "tempo": 120.0
            },
            {
                "start_time": 28.96590909090909,
                "end_time": 37.57727272727273,
                "pitch": 76,
                "velocity": 51,
                "duration": 8.611363636363638,
                "tempo": 120.0
            },
            {
                "start_time": 37.49772727272727,
                "end_time": 37.57727272727273,
                "pitch": 76,
                "velocity": 64,
                "duration": 0.07954545454546036,
                "tempo": 120.0
            },
            {
                "start_time": 37.57954545454545,
                "end_time": 37.675,
                "pitch": 76,
                "velocity": 32,
                "duration": 0.0954545454545439,
                "tempo": 120.0
            },
            {
                "start_time": 37.675,
                "end_time": 37.75909090909091,
                "pitch": 74,
                "velocity": 64,
                "duration": 0.08409090909091077,
                "tempo": 120.0
            },
            {
                "start_time": 37.75909090909091,
                "end_time": 37.845454545454544,
                "pitch": 74,
                "velocity": 32,
                "duration": 0.08636363636363598,
                "tempo": 120.0
            },
            {
                "start_time": 37.845454545454544,
                "end_time": 37.94772727272727,
                "pitch": 72,
                "velocity": 64,
                "duration": 0.10227272727272663,
                "tempo": 120.0
            },
            {
                "start_time": 37.94772727272727,
                "end_time": 38.03409090909091,
                "pitch": 72,
                "velocity": 32,
                "duration": 0.08636363636363598,
                "tempo": 120.0
            },
            {
                "start_time": 38.03409090909091,
                "end_time": 38.11818181818182,
                "pitch": 72,
                "velocity": 64,
                "duration": 0.08409090909091077,
                "tempo": 120.0
            },
            {
                "start_time": 38.11818181818182,
                "end_time": 38.215909090909086,
                "pitch": 72,
                "velocity": 32,
                "duration": 0.09772727272726911,
                "tempo": 120.0
            },
            {
                "start_time": 38.215909090909086,
                "end_time": 38.29545454545455,
                "pitch": 70,
                "velocity": 64,
                "duration": 0.07954545454546036,
                "tempo": 120.0
            },
            {
                "start_time": 38.29772727272727,
                "end_time": 38.393181818181816,
                "pitch": 70,
                "velocity": 32,
                "duration": 0.0954545454545439,
                "tempo": 120.0
            },
            {
                "start_time": 38.393181818181816,
                "end_time": 38.47727272727273,
                "pitch": 69,
                "velocity": 64,
                "duration": 0.08409090909091077,
                "tempo": 120.0
            },
            {
                "start_time": 38.47727272727273,
                "end_time": 38.56136363636364,
                "pitch": 69,
                "velocity": 32,
                "duration": 0.08409090909091077,
                "tempo": 120.0
            },
            {
                "start_time": 38.56363636363636,
                "end_time": 38.66590909090909,
                "pitch": 67,
                "velocity": 64,
                "duration": 0.10227272727272663,
                "tempo": 120.0
            },
            {
                "start_time": 38.66590909090909,
                "end_time": 38.752272727272725,
                "pitch": 67,
                "velocity": 32,
                "duration": 0.08636363636363598,
                "tempo": 120.0
            },
            {
                "start_time": 38.752272727272725,
                "end_time": 38.836363636363636,
                "pitch": 65,
                "velocity": 64,
                "duration": 0.08409090909091077,
                "tempo": 120.0
            },
            {
                "start_time": 38.836363636363636,
                "end_time": 38.934090909090905,
                "pitch": 65,
                "velocity": 32,
                "duration": 0.09772727272726911,
                "tempo": 120.0
            },
            {
                "start_time": 38.934090909090905,
                "end_time": 39.01363636363636,
                "pitch": 64,
                "velocity": 64,
                "duration": 0.07954545454545325,
                "tempo": 120.0
            },
            {
                "start_time": 39.01590909090909,
                "end_time": 39.095454545454544,
                "pitch": 64,
                "velocity": 32,
                "duration": 0.07954545454545325,
                "tempo": 120.0
            },
            {
                "start_time": 39.095454545454544,
                "end_time": 39.195454545454545,
                "pitch": 62,
                "velocity": 64,
                "duration": 0.10000000000000142,
                "tempo": 120.0
            },
            {
                "start_time": 39.195454545454545,
                "end_time": 39.277272727272724,
                "pitch": 62,
                "velocity": 32,
                "duration": 0.08181818181817846,
                "tempo": 120.0
            },
            {
                "start_time": 39.279545454545456,
                "end_time": 39.361363636363635,
                "pitch": 60,
                "velocity": 64,
                "duration": 0.08181818181817846,
                "tempo": 120.0
            },
            {
                "start_time": 39.36363636363636,
                "end_time": 39.461363636363636,
                "pitch": 60,
                "velocity": 32,
                "duration": 0.09772727272727622,
                "tempo": 120.0
            },
            {
                "start_time": 39.46363636363636,
                "end_time": 39.54545454545455,
                "pitch": 60,
                "velocity": 64,
                "duration": 0.08181818181818556,
                "tempo": 120.0
            },
            {
                "start_time": 39.54545454545455,
                "end_time": 39.643181818181816,
                "pitch": 60,
                "velocity": 32,
                "duration": 0.09772727272726911,
                "tempo": 120.0
            },
            {
                "start_time": 39.643181818181816,
                "end_time": 39.725,
                "pitch": 58,
                "velocity": 64,
                "duration": 0.08181818181818556,
                "tempo": 120.0
            },
            {
                "start_time": 39.725,
                "end_time": 39.804545454545455,
                "pitch": 58,
                "velocity": 32,
                "duration": 0.07954545454545325,
                "tempo": 120.0
            },
            {
                "start_time": 39.80681818181818,
                "end_time": 39.904545454545456,
                "pitch": 57,
                "velocity": 64,
                "duration": 0.09772727272727622,
                "tempo": 120.0
            },
            {
                "start_time": 39.904545454545456,
                "end_time": 39.98863636363636,
                "pitch": 57,
                "velocity": 32,
                "duration": 0.08409090909090366,
                "tempo": 120.0
            },
            {
                "start_time": 39.98863636363636,
                "end_time": 40.07272727272727,
                "pitch": 55,
                "velocity": 64,
                "duration": 0.08409090909091077,
                "tempo": 120.0
            },
            {
                "start_time": 40.07272727272727,
                "end_time": 40.17272727272727,
                "pitch": 55,
                "velocity": 32,
                "duration": 0.10000000000000142,
                "tempo": 120.0
            },
            {
                "start_time": 40.17272727272727,
                "end_time": 40.25681818181818,
                "pitch": 53,
                "velocity": 64,
                "duration": 0.08409090909091077,
                "tempo": 120.0
            },
            {
                "start_time": 40.25681818181818,
                "end_time": 40.33863636363636,
                "pitch": 53,
                "velocity": 32,
                "duration": 0.08181818181817846,
                "tempo": 120.0
            },
            {
                "start_time": 40.340909090909086,
                "end_time": 40.44090909090909,
                "pitch": 52,
                "velocity": 64,
                "duration": 0.10000000000000142,
                "tempo": 120.0
            },
            {
                "start_time": 40.44090909090909,
                "end_time": 40.525,
                "pitch": 52,
                "velocity": 32,
                "duration": 0.08409090909091077,
                "tempo": 120.0
            },
            {
                "start_time": 40.525,
                "end_time": 40.60681818181818,
                "pitch": 50,
                "velocity": 64,
                "duration": 0.08181818181817846,
                "tempo": 120.0
            },
            {
                "start_time": 40.60681818181818,
                "end_time": 40.70454545454545,
                "pitch": 50,
                "velocity": 32,
                "duration": 0.09772727272727622,
                "tempo": 120.0
            },
            {
                "start_time": 40.70454545454545,
                "end_time": 40.752272727272725,
                "pitch": 47,
                "velocity": 51,
                "duration": 0.04772727272727195,
                "tempo": 120.0
            },
            {
                "start_time": 40.752272727272725,
                "end_time": 40.75454545454545,
                "pitch": 52,
                "velocity": 51,
                "duration": 0.0022727272727252057,
                "tempo": 120.0
            },
            {
                "start_time": 1.4909090909090907,
                "end_time": 40.80227272727272,
                "pitch": 32,
                "velocity": 64,
                "duration": 39.31136363636363,
                "tempo": 120.0
            },
            {
                "start_time": 40.75454545454545,
                "end_time": 40.80227272727272,
                "pitch": 48,
                "velocity": 51,
                "duration": 0.04772727272727195,
                "tempo": 120.0
            },
            {
                "start_time": 40.80227272727272,
                "end_time": 40.85,
                "pitch": 47,
                "velocity": 51,
                "duration": 0.04772727272727906,
                "tempo": 120.0
            },
            {
                "start_time": 40.80227272727272,
                "end_time": 40.91590909090909,
                "pitch": 32,
                "velocity": 51,
                "duration": 0.11363636363636687,
                "tempo": 120.0
            },
            {
                "start_time": 40.85,
                "end_time": 40.91590909090909,
                "pitch": 48,
                "velocity": 51,
                "duration": 0.06590909090908781,
                "tempo": 120.0
            },
            {
                "start_time": 40.91590909090909,
                "end_time": 40.965909090909086,
                "pitch": 47,
                "velocity": 51,
                "duration": 0.04999999999999716,
                "tempo": 120.0
            },
            {
                "start_time": 40.85,
                "end_time": 40.965909090909086,
                "pitch": 52,
                "velocity": 51,
                "duration": 0.11590909090908497,
                "tempo": 120.0
            },
            {
                "start_time": 40.91590909090909,
                "end_time": 41.018181818181816,
                "pitch": 32,
                "velocity": 51,
                "duration": 0.10227272727272663,
                "tempo": 120.0
            },
            {
                "start_time": 40.965909090909086,
                "end_time": 41.018181818181816,
                "pitch": 48,
                "velocity": 51,
                "duration": 0.05227272727272947,
                "tempo": 120.0
            },
            {
                "start_time": 41.018181818181816,
                "end_time": 41.06818181818181,
                "pitch": 47,
                "velocity": 51,
                "duration": 0.04999999999999716,
                "tempo": 120.0
            },
            {
                "start_time": 40.965909090909086,
                "end_time": 41.06818181818181,
                "pitch": 52,
                "velocity": 51,
                "duration": 0.10227272727272663,
                "tempo": 120.0
            },
            {
                "start_time": 41.018181818181816,
                "end_time": 41.13863636363636,
                "pitch": 32,
                "velocity": 51,
                "duration": 0.12045454545454248,
                "tempo": 120.0
            },
            {
                "start_time": 41.06818181818181,
                "end_time": 41.13863636363636,
                "pitch": 48,
                "velocity": 51,
                "duration": 0.07045454545454533,
                "tempo": 120.0
            },
            {
                "start_time": 41.13863636363636,
                "end_time": 41.18863636363636,
                "pitch": 47,
                "velocity": 51,
                "duration": 0.05000000000000426,
                "tempo": 120.0
            },
            {
                "start_time": 41.06818181818181,
                "end_time": 41.18863636363636,
                "pitch": 52,
                "velocity": 51,
                "duration": 0.12045454545454959,
                "tempo": 120.0
            },
            {
                "start_time": 41.13863636363636,
                "end_time": 41.24090909090909,
                "pitch": 32,
                "velocity": 51,
                "duration": 0.10227272727273373,
                "tempo": 120.0
            },
            {
                "start_time": 41.18863636363636,
                "end_time": 41.24090909090909,
                "pitch": 48,
                "velocity": 51,
                "duration": 0.05227272727272947,
                "tempo": 120.0
            },
            {
                "start_time": 41.24090909090909,
                "end_time": 41.29545454545455,
                "pitch": 47,
                "velocity": 51,
                "duration": 0.054545454545454675,
                "tempo": 120.0
            },
            {
                "start_time": 41.18863636363636,
                "end_time": 41.29545454545455,
                "pitch": 52,
                "velocity": 51,
                "duration": 0.10681818181818414,
                "tempo": 120.0
            },
            {
                "start_time": 41.24090909090909,
                "end_time": 41.340909090909086,
                "pitch": 32,
                "velocity": 51,
                "duration": 0.09999999999999432,
                "tempo": 120.0
            },
            {
                "start_time": 41.29545454545455,
                "end_time": 41.340909090909086,
                "pitch": 48,
                "velocity": 51,
                "duration": 0.04545454545453964,
                "tempo": 120.0
            },
            {
                "start_time": 41.340909090909086,
                "end_time": 41.42272727272727,
                "pitch": 47,
                "velocity": 51,
                "duration": 0.08181818181818556,
                "tempo": 120.0
            },
            {
                "start_time": 41.42272727272727,
                "end_time": 42.14090909090909,
                "pitch": 48,
                "velocity": 51,
                "duration": 0.7181818181818187,
                "tempo": 120.0
            },
            {
                "start_time": 42.14090909090909,
                "end_time": 42.82954545454545,
                "pitch": 49,
                "velocity": 51,
                "duration": 0.6886363636363626,
                "tempo": 120.0
            },
            {
                "start_time": 29.047727272727272,
                "end_time": 43.54545454545455,
                "pitch": 51,
                "velocity": 51,
                "duration": 14.497727272727275,
                "tempo": 120.0
            },
            {
                "start_time": 42.82954545454545,
                "end_time": 43.54545454545455,
                "pitch": 51,
                "velocity": 51,
                "duration": 0.7159090909090935,
                "tempo": 120.0
            },
            {
                "start_time": 43.54545454545455,
                "end_time": 43.64545454545454,
                "pitch": 65,
                "velocity": 64,
                "duration": 0.09999999999999432,
                "tempo": 120.0
            },
            {
                "start_time": 43.64545454545454,
                "end_time": 43.72954545454545,
                "pitch": 65,
                "velocity": 32,
                "duration": 0.08409090909091077,
                "tempo": 120.0
            },
            {
                "start_time": 43.78181818181818,
                "end_time": 43.89545454545454,
                "pitch": 60,
                "velocity": 101,
                "duration": 0.11363636363635976,
                "tempo": 120.0
            },
            {
                "start_time": 43.89545454545454,
                "end_time": 44.00909090909091,
                "pitch": 65,
                "velocity": 101,
                "duration": 0.11363636363636687,
                "tempo": 120.0
            },
            {
                "start_time": 44.00909090909091,
                "end_time": 44.13863636363636,
                "pitch": 69,
                "velocity": 101,
                "duration": 0.1295454545454504,
                "tempo": 120.0
            },
            {
                "start_time": 44.14090909090909,
                "end_time": 44.224999999999994,
                "pitch": 72,
                "velocity": 101,
                "duration": 0.08409090909090366,
                "tempo": 120.0
            },
            {
                "start_time": 44.224999999999994,
                "end_time": 44.309090909090905,
                "pitch": 72,
                "velocity": 40,
                "duration": 0.08409090909091077,
                "tempo": 120.0
            },
            {
                "start_time": 44.413636363636364,
                "end_time": 44.5,
                "pitch": 69,
                "velocity": 101,
                "duration": 0.08636363636363598,
                "tempo": 120.0
            },
            {
                "start_time": 44.5,
                "end_time": 44.840909090909086,
                "pitch": 72,
                "velocity": 101,
                "duration": 0.3409090909090864,
                "tempo": 120.0
            },
            {
                "start_time": 44.97272727272727,
                "end_time": 45.05681818181818,
                "pitch": 48,
                "velocity": 64,
                "duration": 0.08409090909091077,
                "tempo": 120.0
            },
            {
                "start_time": 45.05681818181818,
                "end_time": 45.15681818181818,
                "pitch": 48,
                "velocity": 32,
                "duration": 0.10000000000000142,
                "tempo": 120.0
            },
            {
                "start_time": 45.24090909090909,
                "end_time": 45.288636363636364,
                "pitch": 60,
                "velocity": 51,
                "duration": 0.04772727272727195,
                "tempo": 120.0
            },
            {
                "start_time": 45.288636363636364,
                "end_time": 45.33863636363636,
                "pitch": 62,
                "velocity": 51,
                "duration": 0.04999999999999716,
                "tempo": 120.0
            },
            {
                "start_time": 45.33863636363636,
                "end_time": 45.418181818181814,
                "pitch": 65,
                "velocity": 51,
                "duration": 0.07954545454545325,
                "tempo": 120.0
            },
            {
                "start_time": 45.42045454545455,
                "end_time": 45.56590909090909,
                "pitch": 65,
                "velocity": 32,
                "duration": 0.14545454545454106,
                "tempo": 120.0
            },
            {
                "start_time": 45.56590909090909,
                "end_time": 45.61590909090909,
                "pitch": 84,
                "velocity": 32,
                "duration": 0.05000000000000426,
                "tempo": 120.0
            },
            {
                "start_time": 45.61590909090909,
                "end_time": 45.65,
                "pitch": 86,
                "velocity": 32,
                "duration": 0.03409090909090651,
                "tempo": 120.0
            },
            {
                "start_time": 45.65,
                "end_time": 45.68181818181818,
                "pitch": 88,
                "velocity": 32,
                "duration": 0.0318181818181813,
                "tempo": 120.0
            },
            {
                "start_time": 45.684090909090905,
                "end_time": 46.27272727272727,
                "pitch": 89,
                "velocity": 32,
                "duration": 0.5886363636363683,
                "tempo": 120.0
            },
            {
                "start_time": 30.28863636363636,
                "end_time": 46.320454545454545,
                "pitch": 31,
                "velocity": 51,
                "duration": 16.031818181818185,
                "tempo": 120.0
            },
            {
                "start_time": 46.275,
                "end_time": 46.320454545454545,
                "pitch": 65,
                "velocity": 64,
                "duration": 0.045454545454546746,
                "tempo": 120.0
            },
            {
                "start_time": 46.320454545454545,
                "end_time": 47.69090909090909,
                "pitch": 69,
                "velocity": 64,
                "duration": 1.3704545454545425,
                "tempo": 120.0
            },
            {
                "start_time": 41.340909090909086,
                "end_time": 47.74090909090909,
                "pitch": 32,
                "velocity": 51,
                "duration": 6.400000000000006,
                "tempo": 120.0
            },
            {
                "start_time": 47.69090909090909,
                "end_time": 47.74090909090909,
                "pitch": 65,
                "velocity": 64,
                "duration": 0.05000000000000426,
                "tempo": 120.0
            },
            {
                "start_time": 47.74090909090909,
                "end_time": 47.99772727272727,
                "pitch": 69,
                "velocity": 64,
                "duration": 0.2568181818181756,
                "tempo": 120.0
            },
            {
                "start_time": 47.99772727272727,
                "end_time": 48.01590909090909,
                "pitch": 67,
                "velocity": 64,
                "duration": 0.018181818181822962,
                "tempo": 120.0
            },
            {
                "start_time": 30.477272727272727,
                "end_time": 48.01590909090909,
                "pitch": 78,
                "velocity": 51,
                "duration": 17.538636363636364,
                "tempo": 120.0
            },
            {
                "start_time": 48.01590909090909,
                "end_time": 48.375,
                "pitch": 66,
                "velocity": 64,
                "duration": 0.35909090909090935,
                "tempo": 120.0
            },
            {
                "start_time": 48.375,
                "end_time": 48.57954545454545,
                "pitch": 68,
                "velocity": 64,
                "duration": 0.20454545454545325,
                "tempo": 120.0
            },
            {
                "start_time": 48.902272727272724,
                "end_time": 48.98409090909091,
                "pitch": 65,
                "velocity": 51,
                "duration": 0.08181818181818556,
                "tempo": 120.0
            },
            {
                "start_time": 48.98409090909091,
                "end_time": 49.018181818181816,
                "pitch": 67,
                "velocity": 51,
                "duration": 0.03409090909090651,
                "tempo": 120.0
            },
            {
                "start_time": 49.018181818181816,
                "end_time": 49.06818181818181,
                "pitch": 67,
                "velocity": 51,
                "duration": 0.04999999999999716,
                "tempo": 120.0
            },
            {
                "start_time": 49.06818181818181,
                "end_time": 49.25,
                "pitch": 69,
                "velocity": 51,
                "duration": 0.18181818181818699,
                "tempo": 120.0
            },
            {
                "start_time": 49.25,
                "end_time": 49.3,
                "pitch": 71,
                "velocity": 64,
                "duration": 0.04999999999999716,
                "tempo": 120.0
            },
            {
                "start_time": 49.3,
                "end_time": 49.33181818181818,
                "pitch": 72,
                "velocity": 64,
                "duration": 0.0318181818181813,
                "tempo": 120.0
            },
            {
                "start_time": 49.33181818181818,
                "end_time": 49.42727272727272,
                "pitch": 72,
                "velocity": 32,
                "duration": 0.0954545454545439,
                "tempo": 120.0
            },
            {
                "start_time": 49.429545454545455,
                "end_time": 49.51136363636363,
                "pitch": 69,
                "velocity": 51,
                "duration": 0.08181818181817846,
                "tempo": 120.0
            },
            {
                "start_time": 49.51136363636363,
                "end_time": 49.611363636363635,
                "pitch": 69,
                "velocity": 32,
                "duration": 0.10000000000000142,
                "tempo": 120.0
            },
            {
                "start_time": 49.611363636363635,
                "end_time": 49.695454545454545,
                "pitch": 69,
                "velocity": 64,
                "duration": 0.08409090909091077,
                "tempo": 120.0
            },
            {
                "start_time": 49.695454545454545,
                "end_time": 49.77954545454545,
                "pitch": 70,
                "velocity": 32,
                "duration": 0.08409090909090366,
                "tempo": 120.0
            },
            {
                "start_time": 49.77954545454545,
                "end_time": 49.877272727272725,
                "pitch": 67,
                "velocity": 64,
                "duration": 0.09772727272727622,
                "tempo": 120.0
            },
            {
                "start_time": 49.877272727272725,
                "end_time": 49.959090909090904,
                "pitch": 67,
                "velocity": 32,
                "duration": 0.08181818181817846,
                "tempo": 120.0
            },
            {
                "start_time": 49.959090909090904,
                "end_time": 50.04090909090909,
                "pitch": 68,
                "velocity": 64,
                "duration": 0.08181818181818556,
                "tempo": 120.0
            },
            {
                "start_time": 50.04090909090909,
                "end_time": 50.13863636363636,
                "pitch": 69,
                "velocity": 32,
                "duration": 0.09772727272726911,
                "tempo": 120.0
            },
            {
                "start_time": 50.13863636363636,
                "end_time": 50.220454545454544,
                "pitch": 65,
                "velocity": 51,
                "duration": 0.08181818181818556,
                "tempo": 120.0
            },
            {
                "start_time": 50.220454545454544,
                "end_time": 50.304545454545455,
                "pitch": 65,
                "velocity": 32,
                "duration": 0.08409090909091077,
                "tempo": 120.0
            },
            {
                "start_time": 50.304545454545455,
                "end_time": 50.40454545454545,
                "pitch": 65,
                "velocity": 51,
                "duration": 0.09999999999999432,
                "tempo": 120.0
            },
            {
                "start_time": 50.40454545454545,
                "end_time": 50.43863636363636,
                "pitch": 67,
                "velocity": 51,
                "duration": 0.03409090909091361,
                "tempo": 120.0
            },
            {
                "start_time": 49.018181818181816,
                "end_time": 50.43863636363636,
                "pitch": 79,
                "velocity": 51,
                "duration": 1.4204545454545467,
                "tempo": 120.0
            },
            {
                "start_time": 50.43863636363636,
                "end_time": 50.48863636363636,
                "pitch": 67,
                "velocity": 51,
                "duration": 0.04999999999999716,
                "tempo": 120.0
            },
            {
                "start_time": 48.01590909090909,
                "end_time": 50.48863636363636,
                "pitch": 78,
                "velocity": 64,
                "duration": 2.472727272727269,
                "tempo": 120.0
            },
            {
                "start_time": 50.48863636363636,
                "end_time": 50.668181818181814,
                "pitch": 65,
                "velocity": 51,
                "duration": 0.17954545454545467,
                "tempo": 120.0
            },
            {
                "start_time": 50.668181818181814,
                "end_time": 50.75,
                "pitch": 64,
                "velocity": 64,
                "duration": 0.08181818181818556,
                "tempo": 120.0
            },
            {
                "start_time": 50.75,
                "end_time": 50.84772727272727,
                "pitch": 65,
                "velocity": 32,
                "duration": 0.09772727272726911,
                "tempo": 120.0
            },
            {
                "start_time": 50.84772727272727,
                "end_time": 50.929545454545455,
                "pitch": 60,
                "velocity": 51,
                "duration": 0.08181818181818556,
                "tempo": 120.0
            },
            {
                "start_time": 50.93181818181818,
                "end_time": 51.01590909090909,
                "pitch": 60,
                "velocity": 32,
                "duration": 0.08409090909091077,
                "tempo": 120.0
            },
            {
                "start_time": 17.652272727272727,
                "end_time": 51.820454545454545,
                "pitch": 39,
                "velocity": 51,
                "duration": 34.16818181818182,
                "tempo": 120.0
            },
            {
                "start_time": 51.01590909090909,
                "end_time": 51.820454545454545,
                "pitch": 60,
                "velocity": 51,
                "duration": 0.8045454545454547,
                "tempo": 120.0
            },
            {
                "start_time": 51.820454545454545,
                "end_time": 52.00681818181818,
                "pitch": 58,
                "velocity": 51,
                "duration": 0.1863636363636374,
                "tempo": 120.0
            },
            {
                "start_time": 52.00681818181818,
                "end_time": 52.038636363636364,
                "pitch": 55,
                "velocity": 51,
                "duration": 0.0318181818181813,
                "tempo": 120.0
            },
            {
                "start_time": 33.41136363636363,
                "end_time": 52.10454545454545,
                "pitch": 0,
                "velocity": 51,
                "duration": 18.69318181818182,
                "tempo": 120.0
            },
            {
                "start_time": 52.038636363636364,
                "end_time": 52.10454545454545,
                "pitch": 55,
                "velocity": 51,
                "duration": 0.06590909090908781,
                "tempo": 120.0
            },
            {
                "start_time": 52.10454545454545,
                "end_time": 52.18636363636363,
                "pitch": 0,
                "velocity": 51,
                "duration": 0.08181818181817846,
                "tempo": 120.0
            },
            {
                "start_time": 52.10454545454545,
                "end_time": 52.18636363636363,
                "pitch": 53,
                "velocity": 51,
                "duration": 0.08181818181817846,
                "tempo": 120.0
            },
            {
                "start_time": 52.10454545454545,
                "end_time": 52.21818181818182,
                "pitch": 55,
                "velocity": 51,
                "duration": 0.11363636363636687,
                "tempo": 120.0
            },
            {
                "start_time": 52.18636363636363,
                "end_time": 52.21818181818182,
                "pitch": 55,
                "velocity": 51,
                "duration": 0.03181818181818841,
                "tempo": 120.0
            },
            {
                "start_time": 52.038636363636364,
                "end_time": 52.21818181818182,
                "pitch": 67,
                "velocity": 51,
                "duration": 0.17954545454545467,
                "tempo": 120.0
            },
            {
                "start_time": 52.18636363636363,
                "end_time": 52.268181818181816,
                "pitch": 0,
                "velocity": 51,
                "duration": 0.08181818181818556,
                "tempo": 120.0
            },
            {
                "start_time": 52.21818181818182,
                "end_time": 52.268181818181816,
                "pitch": 55,
                "velocity": 51,
                "duration": 0.04999999999999716,
                "tempo": 120.0
            },
            {
                "start_time": 52.268181818181816,
                "end_time": 52.28409090909091,
                "pitch": 55,
                "velocity": 51,
                "duration": 0.01590909090909065,
                "tempo": 120.0
            },
            {
                "start_time": 52.28409090909091,
                "end_time": 52.445454545454545,
                "pitch": 57,
                "velocity": 51,
                "duration": 0.16136363636363882,
                "tempo": 120.0
            },
            {
                "start_time": 51.820454545454545,
                "end_time": 52.527272727272724,
                "pitch": 39,
                "velocity": 51,
                "duration": 0.7068181818181785,
                "tempo": 120.0
            },
            {
                "start_time": 52.445454545454545,
                "end_time": 52.527272727272724,
                "pitch": 60,
                "velocity": 51,
                "duration": 0.08181818181817846,
                "tempo": 120.0
            },
            {
                "start_time": 52.527272727272724,
                "end_time": 52.709090909090904,
                "pitch": 58,
                "velocity": 51,
                "duration": 0.18181818181817988,
                "tempo": 120.0
            },
            {
                "start_time": 52.709090909090904,
                "end_time": 52.74318181818182,
                "pitch": 55,
                "velocity": 51,
                "duration": 0.03409090909091361,
                "tempo": 120.0
            },
            {
                "start_time": 52.21818181818182,
                "end_time": 52.74318181818182,
                "pitch": 67,
                "velocity": 51,
                "duration": 0.5249999999999986,
                "tempo": 120.0
            },
            {
                "start_time": 52.268181818181816,
                "end_time": 52.793181818181814,
                "pitch": 0,
                "velocity": 51,
                "duration": 0.5249999999999986,
                "tempo": 120.0
            },
            {
                "start_time": 52.74318181818182,
                "end_time": 52.793181818181814,
                "pitch": 55,
                "velocity": 51,
                "duration": 0.04999999999999716,
                "tempo": 120.0
            },
            {
                "start_time": 52.10454545454545,
                "end_time": 52.93181818181818,
                "pitch": 66,
                "velocity": 51,
                "duration": 0.827272727272728,
                "tempo": 120.0
            },
            {
                "start_time": 52.793181818181814,
                "end_time": 52.93181818181818,
                "pitch": 66,
                "velocity": 51,
                "duration": 0.13863636363636545,
                "tempo": 120.0
            },
            {
                "start_time": 50.43863636363636,
                "end_time": 52.93181818181818,
                "pitch": 79,
                "velocity": 51,
                "duration": 2.4931818181818173,
                "tempo": 120.0
            },
            {
                "start_time": 52.74318181818182,
                "end_time": 52.98181818181818,
                "pitch": 67,
                "velocity": 51,
                "duration": 0.23863636363635976,
                "tempo": 120.0
            },
            {
                "start_time": 52.93181818181818,
                "end_time": 52.98181818181818,
                "pitch": 67,
                "velocity": 51,
                "duration": 0.04999999999999716,
                "tempo": 120.0
            },
            {
                "start_time": 52.98181818181818,
                "end_time": 53.163636363636364,
                "pitch": 69,
                "velocity": 51,
                "duration": 0.18181818181818699,
                "tempo": 120.0
            },
            {
                "start_time": 49.3,
                "end_time": 53.163636363636364,
                "pitch": 76,
                "velocity": 64,
                "duration": 3.863636363636367,
                "tempo": 120.0
            },
            {
                "start_time": 53.163636363636364,
                "end_time": 53.24545454545454,
                "pitch": 72,
                "velocity": 51,
                "duration": 0.08181818181817846,
                "tempo": 120.0
            },
            {
                "start_time": 53.24545454545454,
                "end_time": 53.425,
                "pitch": 70,
                "velocity": 51,
                "duration": 0.17954545454545467,
                "tempo": 120.0
            },
            {
                "start_time": 53.425,
                "end_time": 53.459090909090904,
                "pitch": 67,
                "velocity": 51,
                "duration": 0.03409090909090651,
                "tempo": 120.0
            },
            {
                "start_time": 52.93181818181818,
                "end_time": 53.459090909090904,
                "pitch": 79,
                "velocity": 51,
                "duration": 0.5272727272727238,
                "tempo": 120.0
            },
            {
                "start_time": 53.459090909090904,
                "end_time": 53.543181818181814,
                "pitch": 67,
                "velocity": 51,
                "duration": 0.08409090909091077,
                "tempo": 120.0
            },
            {
                "start_time": 53.543181818181814,
                "end_time": 53.69318181818181,
                "pitch": 69,
                "velocity": 51,
                "duration": 0.14999999999999858,
                "tempo": 120.0
            },
            {
                "start_time": 53.69318181818181,
                "end_time": 53.777272727272724,
                "pitch": 65,
                "velocity": 64,
                "duration": 0.08409090909091077,
                "tempo": 120.0
            },
            {
                "start_time": 53.777272727272724,
                "end_time": 53.877272727272725,
                "pitch": 65,
                "velocity": 32,
                "duration": 0.10000000000000142,
                "tempo": 120.0
            },
            {
                "start_time": 53.87954545454545,
                "end_time": 53.99545454545454,
                "pitch": 66,
                "velocity": 64,
                "duration": 0.11590909090909207,
                "tempo": 120.0
            },
            {
                "start_time": 53.459090909090904,
                "end_time": 53.99545454545454,
                "pitch": 79,
                "velocity": 51,
                "duration": 0.5363636363636388,
                "tempo": 120.0
            },
            {
                "start_time": 53.99545454545454,
                "end_time": 54.04545454545454,
                "pitch": 67,
                "velocity": 64,
                "duration": 0.04999999999999716,
                "tempo": 120.0
            },
            {
                "start_time": 52.445454545454545,
                "end_time": 54.14545454545454,
                "pitch": 64,
                "velocity": 51,
                "duration": 1.6999999999999957,
                "tempo": 120.0
            },
            {
                "start_time": 54.04545454545454,
                "end_time": 54.14545454545454,
                "pitch": 64,
                "velocity": 64,
                "duration": 0.10000000000000142,
                "tempo": 120.0
            },
            {
                "start_time": 54.14772727272727,
                "end_time": 54.22954545454545,
                "pitch": 64,
                "velocity": 32,
                "duration": 0.08181818181817846,
                "tempo": 120.0
            },
            {
                "start_time": 54.22954545454545,
                "end_time": 54.413636363636364,
                "pitch": 64,
                "velocity": 64,
                "duration": 0.1840909090909122,
                "tempo": 120.0
            },
            {
                "start_time": 54.413636363636364,
                "end_time": 54.49772727272727,
                "pitch": 60,
                "velocity": 64,
                "duration": 0.08409090909090366,
                "tempo": 120.0
            },
            {
                "start_time": 54.49772727272727,
                "end_time": 54.595454545454544,
                "pitch": 60,
                "velocity": 32,
                "duration": 0.09772727272727622,
                "tempo": 120.0
            },
            {
                "start_time": 54.595454545454544,
                "end_time": 54.675,
                "pitch": 65,
                "velocity": 51,
                "duration": 0.07954545454545325,
                "tempo": 120.0
            },
            {
                "start_time": 54.675,
                "end_time": 54.709090909090904,
                "pitch": 67,
                "velocity": 51,
                "duration": 0.03409090909090651,
                "tempo": 120.0
            },
            {
                "start_time": 53.99545454545454,
                "end_time": 54.709090909090904,
                "pitch": 79,
                "velocity": 64,
                "duration": 0.7136363636363612,
                "tempo": 120.0
            },
            {
                "start_time": 54.709090909090904,
                "end_time": 54.756818181818176,
                "pitch": 67,
                "velocity": 51,
                "duration": 0.04772727272727195,
                "tempo": 120.0
            },
            {
                "start_time": 54.756818181818176,
                "end_time": 54.93636363636363,
                "pitch": 69,
                "velocity": 51,
                "duration": 0.17954545454545467,
                "tempo": 120.0
            },
            {
                "start_time": 54.93636363636363,
                "end_time": 54.986363636363635,
                "pitch": 71,
                "velocity": 64,
                "duration": 0.05000000000000426,
                "tempo": 120.0
            },
            {
                "start_time": 53.163636363636364,
                "end_time": 54.986363636363635,
                "pitch": 76,
                "velocity": 51,
                "duration": 1.8227272727272705,
                "tempo": 120.0
            },
            {
                "start_time": 54.986363636363635,
                "end_time": 55.018181818181816,
                "pitch": 72,
                "velocity": 64,
                "duration": 0.0318181818181813,
                "tempo": 120.0
            },
            {
                "start_time": 55.018181818181816,
                "end_time": 55.11363636363636,
                "pitch": 72,
                "velocity": 32,
                "duration": 0.0954545454545439,
                "tempo": 120.0
            },
            {
                "start_time": 55.115909090909085,
                "end_time": 55.19772727272727,
                "pitch": 69,
                "velocity": 51,
                "duration": 0.08181818181818556,
                "tempo": 120.0
            },
            {
                "start_time": 55.19772727272727,
                "end_time": 55.28409090909091,
                "pitch": 69,
                "velocity": 32,
                "duration": 0.08636363636363598,
                "tempo": 120.0
            },
            {
                "start_time": 55.28409090909091,
                "end_time": 55.38636363636363,
                "pitch": 69,
                "velocity": 64,
                "duration": 0.10227272727272663,
                "tempo": 120.0
            },
            {
                "start_time": 55.38636363636363,
                "end_time": 55.47272727272727,
                "pitch": 70,
                "velocity": 32,
                "duration": 0.08636363636363598,
                "tempo": 120.0
            },
            {
                "start_time": 55.47272727272727,
                "end_time": 55.55681818181818,
                "pitch": 67,
                "velocity": 51,
                "duration": 0.08409090909091077,
                "tempo": 120.0
            },
            {
                "start_time": 55.55681818181818,
                "end_time": 55.65454545454545,
                "pitch": 67,
                "velocity": 32,
                "duration": 0.09772727272726911,
                "tempo": 120.0
            },
            {
                "start_time": 55.65454545454545,
                "end_time": 55.736363636363635,
                "pitch": 68,
                "velocity": 64,
                "duration": 0.08181818181818556,
                "tempo": 120.0
            },
            {
                "start_time": 55.736363636363635,
                "end_time": 55.83181818181818,
                "pitch": 69,
                "velocity": 32,
                "duration": 0.0954545454545439,
                "tempo": 120.0
            },
            {
                "start_time": 55.834090909090904,
                "end_time": 55.91590909090909,
                "pitch": 65,
                "velocity": 51,
                "duration": 0.08181818181818556,
                "tempo": 120.0
            },
            {
                "start_time": 55.91590909090909,
                "end_time": 56.002272727272725,
                "pitch": 65,
                "velocity": 32,
                "duration": 0.08636363636363598,
                "tempo": 120.0
            },
            {
                "start_time": 56.002272727272725,
                "end_time": 56.10454545454545,
                "pitch": 65,
                "velocity": 51,
                "duration": 0.10227272727272663,
                "tempo": 120.0
            },
            {
                "start_time": 56.10454545454545,
                "end_time": 56.13863636363636,
                "pitch": 67,
                "velocity": 51,
                "duration": 0.03409090909090651,
                "tempo": 120.0
            },
            {
                "start_time": 54.709090909090904,
                "end_time": 56.13863636363636,
                "pitch": 79,
                "velocity": 51,
                "duration": 1.4295454545454547,
                "tempo": 120.0
            },
            {
                "start_time": 56.13863636363636,
                "end_time": 56.19090909090909,
                "pitch": 67,
                "velocity": 51,
                "duration": 0.05227272727272947,
                "tempo": 120.0
            },
            {
                "start_time": 50.48863636363636,
                "end_time": 56.19090909090909,
                "pitch": 78,
                "velocity": 51,
                "duration": 5.702272727272728,
                "tempo": 120.0
            },
            {
                "start_time": 56.19090909090909,
                "end_time": 56.37272727272727,
                "pitch": 65,
                "velocity": 51,
                "duration": 0.18181818181817988,
                "tempo": 120.0
            },
            {
                "start_time": 56.37272727272727,
                "end_time": 56.45454545454545,
                "pitch": 64,
                "velocity": 64,
                "duration": 0.08181818181818556,
                "tempo": 120.0
            },
            {
                "start_time": 56.45454545454545,
                "end_time": 56.53409090909091,
                "pitch": 65,
                "velocity": 25,
                "duration": 0.07954545454545325,
                "tempo": 120.0
            },
            {
                "start_time": 56.53409090909091,
                "end_time": 56.63409090909091,
                "pitch": 72,
                "velocity": 51,
                "duration": 0.10000000000000142,
                "tempo": 120.0
            },
            {
                "start_time": 56.63409090909091,
                "end_time": 56.720454545454544,
                "pitch": 72,
                "velocity": 32,
                "duration": 0.08636363636363598,
                "tempo": 120.0
            },
            {
                "start_time": 56.720454545454544,
                "end_time": 57.24318181818182,
                "pitch": 72,
                "velocity": 51,
                "duration": 0.5227272727272734,
                "tempo": 120.0
            },
            {
                "start_time": 57.24545454545454,
                "end_time": 57.293181818181814,
                "pitch": 72,
                "velocity": 64,
                "duration": 0.04772727272727195,
                "tempo": 120.0
            },
            {
                "start_time": 57.29545454545454,
                "end_time": 57.340909090909086,
                "pitch": 72,
                "velocity": 32,
                "duration": 0.045454545454546746,
                "tempo": 120.0
            },
            {
                "start_time": 57.340909090909086,
                "end_time": 57.393181818181816,
                "pitch": 72,
                "velocity": 64,
                "duration": 0.05227272727272947,
                "tempo": 120.0
            },
            {
                "start_time": 57.393181818181816,
                "end_time": 57.425,
                "pitch": 72,
                "velocity": 32,
                "duration": 0.0318181818181813,
                "tempo": 120.0
            },
            {
                "start_time": 57.425,
                "end_time": 57.50909090909091,
                "pitch": 74,
                "velocity": 64,
                "duration": 0.08409090909091077,
                "tempo": 120.0
            },
            {
                "start_time": 57.50909090909091,
                "end_time": 57.60909090909091,
                "pitch": 74,
                "velocity": 32,
                "duration": 0.10000000000000142,
                "tempo": 120.0
            },
            {
                "start_time": 57.60909090909091,
                "end_time": 57.69318181818181,
                "pitch": 71,
                "velocity": 64,
                "duration": 0.08409090909090366,
                "tempo": 120.0
            },
            {
                "start_time": 57.69318181818181,
                "end_time": 57.777272727272724,
                "pitch": 71,
                "velocity": 32,
                "duration": 0.08409090909091077,
                "tempo": 120.0
            },
            {
                "start_time": 57.777272727272724,
                "end_time": 57.877272727272725,
                "pitch": 72,
                "velocity": 64,
                "duration": 0.10000000000000142,
                "tempo": 120.0
            },
            {
                "start_time": 57.877272727272725,
                "end_time": 57.961363636363636,
                "pitch": 72,
                "velocity": 32,
                "duration": 0.08409090909091077,
                "tempo": 120.0
            },
            {
                "start_time": 57.961363636363636,
                "end_time": 58.01363636363636,
                "pitch": 72,
                "velocity": 51,
                "duration": 0.052272727272722364,
                "tempo": 120.0
            },
            {
                "start_time": 58.01363636363636,
                "end_time": 58.04545454545454,
                "pitch": 72,
                "velocity": 32,
                "duration": 0.0318181818181813,
                "tempo": 120.0
            },
            {
                "start_time": 58.04545454545454,
                "end_time": 58.11363636363636,
                "pitch": 72,
                "velocity": 51,
                "duration": 0.06818181818182012,
                "tempo": 120.0
            },
            {
                "start_time": 58.11363636363636,
                "end_time": 58.14545454545454,
                "pitch": 72,
                "velocity": 32,
                "duration": 0.0318181818181813,
                "tempo": 120.0
            },
            {
                "start_time": 58.14545454545454,
                "end_time": 58.22954545454545,
                "pitch": 74,
                "velocity": 51,
                "duration": 0.08409090909091077,
                "tempo": 120.0
            },
            {
                "start_time": 58.22954545454545,
                "end_time": 58.32954545454545,
                "pitch": 74,
                "velocity": 32,
                "duration": 0.10000000000000142,
                "tempo": 120.0
            },
            {
                "start_time": 58.32954545454545,
                "end_time": 58.413636363636364,
                "pitch": 71,
                "velocity": 51,
                "duration": 0.08409090909091077,
                "tempo": 120.0
            },
            {
                "start_time": 58.413636363636364,
                "end_time": 58.49772727272727,
                "pitch": 71,
                "velocity": 32,
                "duration": 0.08409090909090366,
                "tempo": 120.0
            },
            {
                "start_time": 58.49772727272727,
                "end_time": 58.59772727272727,
                "pitch": 72,
                "velocity": 51,
                "duration": 0.10000000000000142,
                "tempo": 120.0
            },
            {
                "start_time": 58.59772727272727,
                "end_time": 58.68181818181818,
                "pitch": 72,
                "velocity": 32,
                "duration": 0.08409090909091077,
                "tempo": 120.0
            },
            {
                "start_time": 58.68181818181818,
                "end_time": 58.73409090909091,
                "pitch": 72,
                "velocity": 51,
                "duration": 0.05227272727272947,
                "tempo": 120.0
            },
            {
                "start_time": 58.73409090909091,
                "end_time": 58.76363636363636,
                "pitch": 72,
                "velocity": 32,
                "duration": 0.02954545454544899,
                "tempo": 120.0
            },
            {
                "start_time": 58.76363636363636,
                "end_time": 58.83181818181818,
                "pitch": 72,
                "velocity": 51,
                "duration": 0.06818181818182012,
                "tempo": 120.0
            },
            {
                "start_time": 58.83181818181818,
                "end_time": 58.861363636363635,
                "pitch": 72,
                "velocity": 32,
                "duration": 0.029545454545456096,
                "tempo": 120.0
            },
            {
                "start_time": 58.861363636363635,
                "end_time": 58.94318181818181,
                "pitch": 74,
                "velocity": 51,
                "duration": 0.08181818181817846,
                "tempo": 120.0
            },
            {
                "start_time": 58.94318181818181,
                "end_time": 59.025,
                "pitch": 74,
                "velocity": 32,
                "duration": 0.08181818181818556,
                "tempo": 120.0
            },
            {
                "start_time": 59.025,
                "end_time": 59.12272727272727,
                "pitch": 71,
                "velocity": 51,
                "duration": 0.09772727272726911,
                "tempo": 120.0
            },
            {
                "start_time": 59.125,
                "end_time": 59.209090909090904,
                "pitch": 71,
                "velocity": 32,
                "duration": 0.08409090909090366,
                "tempo": 120.0
            },
            {
                "start_time": 59.209090909090904,
                "end_time": 59.29545454545454,
                "pitch": 72,
                "velocity": 51,
                "duration": 0.08636363636363598,
                "tempo": 120.0
            },
            {
                "start_time": 59.29545454545454,
                "end_time": 59.39772727272727,
                "pitch": 72,
                "velocity": 32,
                "duration": 0.10227272727273373,
                "tempo": 120.0
            },
            {
                "start_time": 59.39772727272727,
                "end_time": 59.48181818181818,
                "pitch": 71,
                "velocity": 51,
                "duration": 0.08409090909090366,
                "tempo": 120.0
            },
            {
                "start_time": 59.48181818181818,
                "end_time": 59.57954545454545,
                "pitch": 71,
                "velocity": 16,
                "duration": 0.09772727272727622,
                "tempo": 120.0
            },
            {
                "start_time": 59.57954545454545,
                "end_time": 59.66136363636363,
                "pitch": 72,
                "velocity": 40,
                "duration": 0.08181818181817846,
                "tempo": 120.0
            },
            {
                "start_time": 59.66136363636363,
                "end_time": 59.74318181818182,
                "pitch": 72,
                "velocity": 16,
                "duration": 0.08181818181818556,
                "tempo": 120.0
            },
            {
                "start_time": 59.74318181818182,
                "end_time": 59.840909090909086,
                "pitch": 71,
                "velocity": 64,
                "duration": 0.09772727272726911,
                "tempo": 120.0
            },
            {
                "start_time": 59.840909090909086,
                "end_time": 59.92045454545454,
                "pitch": 71,
                "velocity": 20,
                "duration": 0.07954545454545325,
                "tempo": 120.0
            },
            {
                "start_time": 59.92272727272727,
                "end_time": 60.002272727272725,
                "pitch": 72,
                "velocity": 51,
                "duration": 0.07954545454545325,
                "tempo": 120.0
            },
            {
                "start_time": 60.002272727272725,
                "end_time": 60.099999999999994,
                "pitch": 72,
                "velocity": 20,
                "duration": 0.09772727272726911,
                "tempo": 120.0
            },
            {
                "start_time": 60.099999999999994,
                "end_time": 60.184090909090905,
                "pitch": 71,
                "velocity": 80,
                "duration": 0.08409090909091077,
                "tempo": 120.0
            },
            {
                "start_time": 60.184090909090905,
                "end_time": 60.268181818181816,
                "pitch": 71,
                "velocity": 25,
                "duration": 0.08409090909091077,
                "tempo": 120.0
            },
            {
                "start_time": 60.27045454545454,
                "end_time": 60.37272727272727,
                "pitch": 72,
                "velocity": 64,
                "duration": 0.10227272727272663,
                "tempo": 120.0
            },
            {
                "start_time": 60.37272727272727,
                "end_time": 60.45681818181818,
                "pitch": 72,
                "velocity": 25,
                "duration": 0.08409090909091077,
                "tempo": 120.0
            },
            {
                "start_time": 60.459090909090904,
                "end_time": 60.50909090909091,
                "pitch": 72,
                "velocity": 64,
                "duration": 0.05000000000000426,
                "tempo": 120.0
            }
        ],
        "Flute": [
            {
                "start_time": 28.486363636363635,
                "end_time": 29.113636363636363,
                "pitch": 76,
                "velocity": 40,
                "duration": 0.6272727272727288,
                "tempo": 120.0
            },
            {
                "start_time": 29.195454545454545,
                "end_time": 29.829545454545453,
                "pitch": 88,
                "velocity": 40,
                "duration": 0.6340909090909079,
                "tempo": 120.0
            },
            {
                "start_time": 29.89772727272727,
                "end_time": 30.545454545454543,
                "pitch": 76,
                "velocity": 40,
                "duration": 0.6477272727272734,
                "tempo": 120.0
            },
            {
                "start_time": 30.61590909090909,
                "end_time": 31.263636363636362,
                "pitch": 88,
                "velocity": 40,
                "duration": 0.6477272727272734,
                "tempo": 120.0
            },
            {
                "start_time": 31.334090909090907,
                "end_time": 31.974999999999998,
                "pitch": 76,
                "velocity": 40,
                "duration": 0.6409090909090907,
                "tempo": 120.0
            },
            {
                "start_time": 32.043181818181814,
                "end_time": 32.675,
                "pitch": 88,
                "velocity": 40,
                "duration": 0.6318181818181827,
                "tempo": 120.0
            },
            {
                "start_time": 32.74318181818182,
                "end_time": 33.377272727272725,
                "pitch": 88,
                "velocity": 40,
                "duration": 0.6340909090909079,
                "tempo": 120.0
            },
            {
                "start_time": 36.309090909090905,
                "end_time": 36.95681818181818,
                "pitch": 76,
                "velocity": 40,
                "duration": 0.6477272727272734,
                "tempo": 120.0
            },
            {
                "start_time": 37.025,
                "end_time": 37.65909090909091,
                "pitch": 88,
                "velocity": 40,
                "duration": 0.6340909090909079,
                "tempo": 120.0
            },
            {
                "start_time": 37.725,
                "end_time": 38.361363636363635,
                "pitch": 76,
                "velocity": 40,
                "duration": 0.6363636363636331,
                "tempo": 120.0
            },
            {
                "start_time": 38.44318181818181,
                "end_time": 39.07954545454545,
                "pitch": 88,
                "velocity": 40,
                "duration": 0.6363636363636402,
                "tempo": 120.0
            },
            {
                "start_time": 39.16136363636363,
                "end_time": 39.22727272727273,
                "pitch": 79,
                "velocity": 40,
                "duration": 0.06590909090909491,
                "tempo": 120.0
            },
            {
                "start_time": 39.22727272727273,
                "end_time": 39.26136363636363,
                "pitch": 81,
                "velocity": 40,
                "duration": 0.03409090909090651,
                "tempo": 120.0
            },
            {
                "start_time": 39.26136363636363,
                "end_time": 39.277272727272724,
                "pitch": 79,
                "velocity": 40,
                "duration": 0.01590909090909065,
                "tempo": 120.0
            },
            {
                "start_time": 39.277272727272724,
                "end_time": 39.31136363636364,
                "pitch": 79,
                "velocity": 40,
                "duration": 0.03409090909091361,
                "tempo": 120.0
            },
            {
                "start_time": 39.31136363636364,
                "end_time": 39.49545454545454,
                "pitch": 81,
                "velocity": 40,
                "duration": 0.18409090909090509,
                "tempo": 120.0
            },
            {
                "start_time": 39.277272727272724,
                "end_time": 39.49545454545454,
                "pitch": 91,
                "velocity": 40,
                "duration": 0.2181818181818187,
                "tempo": 120.0
            },
            {
                "start_time": 39.49545454545454,
                "end_time": 39.527272727272724,
                "pitch": 79,
                "velocity": 40,
                "duration": 0.0318181818181813,
                "tempo": 120.0
            },
            {
                "start_time": 39.31136363636364,
                "end_time": 39.643181818181816,
                "pitch": 43,
                "velocity": 40,
                "duration": 0.33181818181817846,
                "tempo": 120.0
            },
            {
                "start_time": 39.527272727272724,
                "end_time": 39.643181818181816,
                "pitch": 81,
                "velocity": 40,
                "duration": 0.11590909090909207,
                "tempo": 120.0
            },
            {
                "start_time": 39.49545454545454,
                "end_time": 39.643181818181816,
                "pitch": 91,
                "velocity": 40,
                "duration": 0.14772727272727337,
                "tempo": 120.0
            },
            {
                "start_time": 39.643181818181816,
                "end_time": 39.804545454545455,
                "pitch": 81,
                "velocity": 40,
                "duration": 0.16136363636363882,
                "tempo": 120.0
            },
            {
                "start_time": 39.643181818181816,
                "end_time": 39.804545454545455,
                "pitch": 91,
                "velocity": 40,
                "duration": 0.16136363636363882,
                "tempo": 120.0
            },
            {
                "start_time": 39.643181818181816,
                "end_time": 39.836363636363636,
                "pitch": 43,
                "velocity": 40,
                "duration": 0.19318181818182012,
                "tempo": 120.0
            },
            {
                "start_time": 39.643181818181816,
                "end_time": 39.836363636363636,
                "pitch": 79,
                "velocity": 40,
                "duration": 0.19318181818182012,
                "tempo": 120.0
            },
            {
                "start_time": 39.804545454545455,
                "end_time": 39.836363636363636,
                "pitch": 79,
                "velocity": 40,
                "duration": 0.0318181818181813,
                "tempo": 120.0
            },
            {
                "start_time": 39.836363636363636,
                "end_time": 40.02045454545454,
                "pitch": 81,
                "velocity": 40,
                "duration": 0.18409090909090509,
                "tempo": 120.0
            },
            {
                "start_time": 39.804545454545455,
                "end_time": 40.02045454545454,
                "pitch": 91,
                "velocity": 40,
                "duration": 0.2159090909090864,
                "tempo": 120.0
            },
            {
                "start_time": 40.02045454545454,
                "end_time": 40.054545454545455,
                "pitch": 79,
                "velocity": 40,
                "duration": 0.03409090909091361,
                "tempo": 120.0
            },
            {
                "start_time": 40.054545454545455,
                "end_time": 40.17045454545455,
                "pitch": 81,
                "velocity": 40,
                "duration": 0.11590909090909207,
                "tempo": 120.0
            },
            {
                "start_time": 40.02045454545454,
                "end_time": 40.17045454545455,
                "pitch": 91,
                "velocity": 40,
                "duration": 0.15000000000000568,
                "tempo": 120.0
            },
            {
                "start_time": 39.836363636363636,
                "end_time": 40.17272727272727,
                "pitch": 43,
                "velocity": 40,
                "duration": 0.336363636363636,
                "tempo": 120.0
            },
            {
                "start_time": 40.17045454545455,
                "end_time": 40.17272727272727,
                "pitch": 79,
                "velocity": 40,
                "duration": 0.0022727272727252057,
                "tempo": 120.0
            },
            {
                "start_time": 40.17272727272727,
                "end_time": 40.33863636363636,
                "pitch": 81,
                "velocity": 40,
                "duration": 0.16590909090908923,
                "tempo": 120.0
            },
            {
                "start_time": 40.17045454545455,
                "end_time": 40.33863636363636,
                "pitch": 91,
                "velocity": 40,
                "duration": 0.16818181818181444,
                "tempo": 120.0
            },
            {
                "start_time": 40.17272727272727,
                "end_time": 40.38863636363636,
                "pitch": 43,
                "velocity": 40,
                "duration": 0.2159090909090864,
                "tempo": 120.0
            },
            {
                "start_time": 40.33863636363636,
                "end_time": 40.38863636363636,
                "pitch": 79,
                "velocity": 40,
                "duration": 0.04999999999999716,
                "tempo": 120.0
            },
            {
                "start_time": 40.38863636363636,
                "end_time": 40.55681818181818,
                "pitch": 81,
                "velocity": 40,
                "duration": 0.16818181818182154,
                "tempo": 120.0
            },
            {
                "start_time": 40.33863636363636,
                "end_time": 40.55681818181818,
                "pitch": 91,
                "velocity": 40,
                "duration": 0.2181818181818187,
                "tempo": 120.0
            },
            {
                "start_time": 40.55681818181818,
                "end_time": 40.574999999999996,
                "pitch": 79,
                "velocity": 40,
                "duration": 0.018181818181815856,
                "tempo": 120.0
            },
            {
                "start_time": 43.429545454545455,
                "end_time": 44.05681818181818,
                "pitch": 76,
                "velocity": 40,
                "duration": 0.6272727272727252,
                "tempo": 120.0
            },
            {
                "start_time": 44.13863636363636,
                "end_time": 44.775,
                "pitch": 88,
                "velocity": 40,
                "duration": 0.6363636363636402,
                "tempo": 120.0
            },
            {
                "start_time": 44.83863636363636,
                "end_time": 45.20681818181818,
                "pitch": 76,
                "velocity": 40,
                "duration": 0.3681818181818173,
                "tempo": 120.0
            },
            {
                "start_time": 45.20681818181818,
                "end_time": 45.54772727272727,
                "pitch": 88,
                "velocity": 40,
                "duration": 0.3409090909090935,
                "tempo": 120.0
            },
            {
                "start_time": 45.54772727272727,
                "end_time": 45.91590909090909,
                "pitch": 100,
                "velocity": 40,
                "duration": 0.3681818181818173,
                "tempo": 120.0
            }
        ],
        "Trumpet": [
            {
                "start_time": 0.01818181818181818,
                "end_time": 0.1590909090909091,
                "pitch": 41,
                "velocity": 80,
                "duration": 0.1409090909090909,
                "tempo": 120.0
            },
            {
                "start_time": 0.3727272727272727,
                "end_time": 0.5045454545454545,
                "pitch": 36,
                "velocity": 80,
                "duration": 0.13181818181818183,
                "tempo": 120.0
            },
            {
                "start_time": 0.725,
                "end_time": 0.8681818181818182,
                "pitch": 41,
                "velocity": 80,
                "duration": 0.1431818181818182,
                "tempo": 120.0
            },
            {
                "start_time": 1.0818181818181818,
                "end_time": 1.218181818181818,
                "pitch": 36,
                "velocity": 80,
                "duration": 0.13636363636363624,
                "tempo": 120.0
            },
            {
                "start_time": 1.4431818181818181,
                "end_time": 1.5863636363636362,
                "pitch": 41,
                "velocity": 80,
                "duration": 0.14318181818181808,
                "tempo": 120.0
            },
            {
                "start_time": 1.8022727272727272,
                "end_time": 1.9318181818181817,
                "pitch": 36,
                "velocity": 80,
                "duration": 0.1295454545454544,
                "tempo": 120.0
            },
            {
                "start_time": 2.1522727272727273,
                "end_time": 2.2977272727272724,
                "pitch": 41,
                "velocity": 80,
                "duration": 0.14545454545454506,
                "tempo": 120.0
            },
            {
                "start_time": 2.8727272727272726,
                "end_time": 2.9977272727272726,
                "pitch": 41,
                "velocity": 80,
                "duration": 0.125,
                "tempo": 120.0
            },
            {
                "start_time": 3.2113636363636364,
                "end_time": 3.3568181818181815,
                "pitch": 36,
                "velocity": 80,
                "duration": 0.14545454545454506,
                "tempo": 120.0
            },
            {
                "start_time": 3.5704545454545453,
                "end_time": 3.7045454545454546,
                "pitch": 41,
                "velocity": 80,
                "duration": 0.13409090909090926,
                "tempo": 120.0
            },
            {
                "start_time": 3.9318181818181817,
                "end_time": 4.075,
                "pitch": 36,
                "velocity": 80,
                "duration": 0.14318181818181852,
                "tempo": 120.0
            },
            {
                "start_time": 4.288636363636363,
                "end_time": 4.422727272727273,
                "pitch": 41,
                "velocity": 80,
                "duration": 0.1340909090909097,
                "tempo": 120.0
            },
            {
                "start_time": 4.6499999999999995,
                "end_time": 4.793181818181818,
                "pitch": 36,
                "velocity": 80,
                "duration": 0.14318181818181852,
                "tempo": 120.0
            },
            {
                "start_time": 4.99090909090909,
                "end_time": 5.134090909090909,
                "pitch": 41,
                "velocity": 80,
                "duration": 0.14318181818181852,
                "tempo": 120.0
            },
            {
                "start_time": 5.347727272727273,
                "end_time": 5.4818181818181815,
                "pitch": 36,
                "velocity": 80,
                "duration": 0.13409090909090882,
                "tempo": 120.0
            },
            {
                "start_time": 5.706818181818181,
                "end_time": 5.847727272727273,
                "pitch": 41,
                "velocity": 80,
                "duration": 0.14090909090909154,
                "tempo": 120.0
            },
            {
                "start_time": 6.054545454545455,
                "end_time": 6.1909090909090905,
                "pitch": 36,
                "velocity": 80,
                "duration": 0.1363636363636358,
                "tempo": 120.0
            },
            {
                "start_time": 6.415909090909091,
                "end_time": 6.559090909090909,
                "pitch": 41,
                "velocity": 80,
                "duration": 0.14318181818181763,
                "tempo": 120.0
            },
            {
                "start_time": 6.7727272727272725,
                "end_time": 6.909090909090909,
                "pitch": 36,
                "velocity": 80,
                "duration": 0.1363636363636367,
                "tempo": 120.0
            },
            {
                "start_time": 7.134090909090909,
                "end_time": 7.277272727272727,
                "pitch": 41,
                "velocity": 80,
                "duration": 0.14318181818181852,
                "tempo": 120.0
            },
            {
                "start_time": 7.475,
                "end_time": 7.620454545454545,
                "pitch": 36,
                "velocity": 80,
                "duration": 0.1454545454545455,
                "tempo": 120.0
            },
            {
                "start_time": 7.834090909090909,
                "end_time": 7.8999999999999995,
                "pitch": 36,
                "velocity": 80,
                "duration": 0.06590909090909047,
                "tempo": 120.0
            },
            {
                "start_time": 8.022727272727272,
                "end_time": 8.088636363636363,
                "pitch": 38,
                "velocity": 80,
                "duration": 0.06590909090909136,
                "tempo": 120.0
            },
            {
                "start_time": 8.193181818181818,
                "end_time": 8.272727272727272,
                "pitch": 40,
                "velocity": 80,
                "duration": 0.07954545454545325,
                "tempo": 120.0
            },
            {
                "start_time": 8.372727272727273,
                "end_time": 8.436363636363636,
                "pitch": 43,
                "velocity": 80,
                "duration": 0.0636363636363626,
                "tempo": 120.0
            },
            {
                "start_time": 8.552272727272728,
                "end_time": 8.686363636363636,
                "pitch": 41,
                "velocity": 80,
                "duration": 0.13409090909090793,
                "tempo": 120.0
            },
            {
                "start_time": 8.911363636363635,
                "end_time": 9.056818181818182,
                "pitch": 36,
                "velocity": 80,
                "duration": 0.1454545454545464,
                "tempo": 120.0
            },
            {
                "start_time": 9.270454545454545,
                "end_time": 9.402272727272727,
                "pitch": 41,
                "velocity": 80,
                "duration": 0.13181818181818272,
                "tempo": 120.0
            },
            {
                "start_time": 9.622727272727273,
                "end_time": 9.770454545454545,
                "pitch": 36,
                "velocity": 80,
                "duration": 0.1477272727272716,
                "tempo": 120.0
            },
            {
                "start_time": 9.975,
                "end_time": 10.118181818181817,
                "pitch": 41,
                "velocity": 80,
                "duration": 0.14318181818181763,
                "tempo": 120.0
            },
            {
                "start_time": 10.331818181818182,
                "end_time": 10.463636363636363,
                "pitch": 36,
                "velocity": 80,
                "duration": 0.13181818181818095,
                "tempo": 120.0
            },
            {
                "start_time": 10.684090909090909,
                "end_time": 10.827272727272726,
                "pitch": 41,
                "velocity": 80,
                "duration": 0.14318181818181763,
                "tempo": 120.0
            },
            {
                "start_time": 11.040909090909091,
                "end_time": 11.174999999999999,
                "pitch": 36,
                "velocity": 80,
                "duration": 0.13409090909090793,
                "tempo": 120.0
            },
            {
                "start_time": 11.399999999999999,
                "end_time": 11.545454545454545,
                "pitch": 41,
                "velocity": 80,
                "duration": 0.1454545454545464,
                "tempo": 120.0
            },
            {
                "start_time": 11.759090909090908,
                "end_time": 11.893181818181818,
                "pitch": 36,
                "velocity": 80,
                "duration": 0.1340909090909097,
                "tempo": 120.0
            },
            {
                "start_time": 12.118181818181817,
                "end_time": 12.263636363636364,
                "pitch": 41,
                "velocity": 80,
                "duration": 0.1454545454545464,
                "tempo": 120.0
            },
            {
                "start_time": 12.461363636363636,
                "end_time": 12.604545454545454,
                "pitch": 36,
                "velocity": 80,
                "duration": 0.14318181818181763,
                "tempo": 120.0
            },
            {
                "start_time": 12.818181818181818,
                "end_time": 12.95,
                "pitch": 41,
                "velocity": 80,
                "duration": 0.13181818181818095,
                "tempo": 120.0
            },
            {
                "start_time": 13.170454545454545,
                "end_time": 13.318181818181818,
                "pitch": 36,
                "velocity": 80,
                "duration": 0.14772727272727337,
                "tempo": 120.0
            },
            {
                "start_time": 13.538636363636362,
                "end_time": 13.604545454545454,
                "pitch": 36,
                "velocity": 80,
                "duration": 0.06590909090909136,
                "tempo": 120.0
            },
            {
                "start_time": 13.706818181818182,
                "end_time": 13.788636363636362,
                "pitch": 38,
                "velocity": 80,
                "duration": 0.08181818181818024,
                "tempo": 120.0
            },
            {
                "start_time": 13.89090909090909,
                "end_time": 13.954545454545453,
                "pitch": 40,
                "velocity": 80,
                "duration": 0.0636363636363626,
                "tempo": 120.0
            },
            {
                "start_time": 14.075,
                "end_time": 14.14090909090909,
                "pitch": 43,
                "velocity": 80,
                "duration": 0.06590909090909136,
                "tempo": 120.0
            },
            {
                "start_time": 14.261363636363635,
                "end_time": 14.609090909090908,
                "pitch": 41,
                "velocity": 80,
                "duration": 0.34772727272727266,
                "tempo": 120.0
            },
            {
                "start_time": 14.790909090909091,
                "end_time": 14.852272727272727,
                "pitch": 40,
                "velocity": 80,
                "duration": 0.06136363636363562,
                "tempo": 120.0
            },
            {
                "start_time": 14.952272727272726,
                "end_time": 15.131818181818181,
                "pitch": 36,
                "velocity": 80,
                "duration": 0.17954545454545467,
                "tempo": 120.0
            },
            {
                "start_time": 15.131818181818181,
                "end_time": 15.311363636363636,
                "pitch": 38,
                "velocity": 80,
                "duration": 0.17954545454545467,
                "tempo": 120.0
            },
            {
                "start_time": 15.311363636363636,
                "end_time": 15.377272727272727,
                "pitch": 43,
                "velocity": 80,
                "duration": 0.06590909090909136,
                "tempo": 120.0
            },
            {
                "start_time": 15.497727272727271,
                "end_time": 15.56590909090909,
                "pitch": 40,
                "velocity": 80,
                "duration": 0.06818181818181834,
                "tempo": 120.0
            },
            {
                "start_time": 15.670454545454545,
                "end_time": 15.813636363636363,
                "pitch": 41,
                "velocity": 80,
                "duration": 0.14318181818181763,
                "tempo": 120.0
            },
            {
                "start_time": 16.56590909090909,
                "end_time": 16.74772727272727,
                "pitch": 36,
                "velocity": 80,
                "duration": 0.18181818181817988,
                "tempo": 120.0
            },
            {
                "start_time": 16.74772727272727,
                "end_time": 16.795454545454543,
                "pitch": 38,
                "velocity": 80,
                "duration": 0.04772727272727195,
                "tempo": 120.0
            },
            {
                "start_time": 16.918181818181818,
                "end_time": 16.98409090909091,
                "pitch": 40,
                "velocity": 80,
                "duration": 0.06590909090909136,
                "tempo": 120.0
            },
            {
                "start_time": 17.10681818181818,
                "end_time": 17.436363636363634,
                "pitch": 41,
                "velocity": 80,
                "duration": 0.32954545454545325,
                "tempo": 120.0
            },
            {
                "start_time": 17.620454545454546,
                "end_time": 17.686363636363634,
                "pitch": 40,
                "velocity": 80,
                "duration": 0.06590909090908781,
                "tempo": 120.0
            },
            {
                "start_time": 17.80681818181818,
                "end_time": 17.988636363636363,
                "pitch": 36,
                "velocity": 80,
                "duration": 0.18181818181818343,
                "tempo": 120.0
            },
            {
                "start_time": 17.988636363636363,
                "end_time": 18.15681818181818,
                "pitch": 38,
                "velocity": 80,
                "duration": 0.168181818181818,
                "tempo": 120.0
            },
            {
                "start_time": 18.159090909090907,
                "end_time": 18.236363636363635,
                "pitch": 43,
                "velocity": 80,
                "duration": 0.07727272727272805,
                "tempo": 120.0
            },
            {
                "start_time": 18.336363636363636,
                "end_time": 18.4,
                "pitch": 40,
                "velocity": 80,
                "duration": 0.0636363636363626,
                "tempo": 120.0
            },
            {
                "start_time": 18.51590909090909,
                "end_time": 18.65,
                "pitch": 41,
                "velocity": 80,
                "duration": 0.13409090909090793,
                "tempo": 120.0
            },
            {
                "start_time": 18.877272727272725,
                "end_time": 19.020454545454545,
                "pitch": 36,
                "velocity": 80,
                "duration": 0.1431818181818194,
                "tempo": 120.0
            },
            {
                "start_time": 19.404545454545453,
                "end_time": 19.488636363636363,
                "pitch": 36,
                "velocity": 80,
                "duration": 0.08409090909091077,
                "tempo": 120.0
            },
            {
                "start_time": 19.772727272727273,
                "end_time": 19.836363636363636,
                "pitch": 36,
                "velocity": 80,
                "duration": 0.0636363636363626,
                "tempo": 120.0
            },
            {
                "start_time": 19.936363636363634,
                "end_time": 20.079545454545453,
                "pitch": 41,
                "velocity": 80,
                "duration": 0.1431818181818194,
                "tempo": 120.0
            },
            {
                "start_time": 20.293181818181818,
                "end_time": 20.425,
                "pitch": 41,
                "velocity": 80,
                "duration": 0.13181818181818272,
                "tempo": 120.0
            },
            {
                "start_time": 20.645454545454545,
                "end_time": 20.793181818181818,
                "pitch": 36,
                "velocity": 80,
                "duration": 0.14772727272727337,
                "tempo": 120.0
            },
            {
                "start_time": 21.013636363636362,
                "end_time": 21.145454545454545,
                "pitch": 36,
                "velocity": 80,
                "duration": 0.13181818181818272,
                "tempo": 120.0
            },
            {
                "start_time": 21.36590909090909,
                "end_time": 21.509090909090908,
                "pitch": 41,
                "velocity": 80,
                "duration": 0.1431818181818194,
                "tempo": 120.0
            },
            {
                "start_time": 21.724999999999998,
                "end_time": 21.85909090909091,
                "pitch": 36,
                "velocity": 80,
                "duration": 0.13409090909091148,
                "tempo": 120.0
            },
            {
                "start_time": 22.084090909090907,
                "end_time": 22.227272727272727,
                "pitch": 41,
                "velocity": 80,
                "duration": 0.1431818181818194,
                "tempo": 120.0
            },
            {
                "start_time": 22.427272727272726,
                "end_time": 22.570454545454545,
                "pitch": 36,
                "velocity": 80,
                "duration": 0.1431818181818194,
                "tempo": 120.0
            },
            {
                "start_time": 22.784090909090907,
                "end_time": 22.918181818181818,
                "pitch": 41,
                "velocity": 80,
                "duration": 0.13409090909091148,
                "tempo": 120.0
            },
            {
                "start_time": 23.143181818181816,
                "end_time": 23.288636363636364,
                "pitch": 36,
                "velocity": 80,
                "duration": 0.14545454545454817,
                "tempo": 120.0
            },
            {
                "start_time": 23.502272727272725,
                "end_time": 23.634090909090908,
                "pitch": 41,
                "velocity": 80,
                "duration": 0.13181818181818272,
                "tempo": 120.0
            },
            {
                "start_time": 23.854545454545452,
                "end_time": 24.002272727272725,
                "pitch": 36,
                "velocity": 80,
                "duration": 0.14772727272727337,
                "tempo": 120.0
            },
            {
                "start_time": 24.222727272727273,
                "end_time": 24.354545454545452,
                "pitch": 41,
                "velocity": 80,
                "duration": 0.13181818181817917,
                "tempo": 120.0
            },
            {
                "start_time": 24.57272727272727,
                "end_time": 24.71818181818182,
                "pitch": 36,
                "velocity": 80,
                "duration": 0.14545454545454817,
                "tempo": 120.0
            },
            {
                "start_time": 24.91590909090909,
                "end_time": 25.05909090909091,
                "pitch": 41,
                "velocity": 80,
                "duration": 0.1431818181818194,
                "tempo": 120.0
            },
            {
                "start_time": 25.27272727272727,
                "end_time": 25.409090909090907,
                "pitch": 41,
                "velocity": 80,
                "duration": 0.1363636363636367,
                "tempo": 120.0
            },
            {
                "start_time": 25.634090909090908,
                "end_time": 25.711363636363636,
                "pitch": 41,
                "velocity": 80,
                "duration": 0.07727272727272805,
                "tempo": 120.0
            },
            {
                "start_time": 26.352272727272727,
                "end_time": 26.413636363636364,
                "pitch": 36,
                "velocity": 80,
                "duration": 0.0613636363636374,
                "tempo": 120.0
            },
            {
                "start_time": 26.88181818181818,
                "end_time": 26.96363636363636,
                "pitch": 36,
                "velocity": 80,
                "duration": 0.08181818181818201,
                "tempo": 120.0
            },
            {
                "start_time": 27.070454545454545,
                "end_time": 27.13181818181818,
                "pitch": 41,
                "velocity": 80,
                "duration": 0.061363636363633844,
                "tempo": 120.0
            },
            {
                "start_time": 27.24772727272727,
                "end_time": 27.311363636363634,
                "pitch": 36,
                "velocity": 80,
                "duration": 0.0636363636363626,
                "tempo": 120.0
            },
            {
                "start_time": 27.411363636363635,
                "end_time": 27.49090909090909,
                "pitch": 41,
                "velocity": 80,
                "duration": 0.07954545454545325,
                "tempo": 120.0
            },
            {
                "start_time": 27.59090909090909,
                "end_time": 27.652272727272727,
                "pitch": 36,
                "velocity": 80,
                "duration": 0.0613636363636374,
                "tempo": 120.0
            },
            {
                "start_time": 27.768181818181816,
                "end_time": 27.834090909090907,
                "pitch": 41,
                "velocity": 80,
                "duration": 0.06590909090909136,
                "tempo": 120.0
            },
            {
                "start_time": 28.129545454545454,
                "end_time": 28.209090909090907,
                "pitch": 41,
                "velocity": 80,
                "duration": 0.07954545454545325,
                "tempo": 120.0
            },
            {
                "start_time": 28.488636363636363,
                "end_time": 28.618181818181817,
                "pitch": 41,
                "velocity": 80,
                "duration": 0.12954545454545396,
                "tempo": 120.0
            },
            {
                "start_time": 28.83863636363636,
                "end_time": 28.98181818181818,
                "pitch": 36,
                "velocity": 80,
                "duration": 0.1431818181818194,
                "tempo": 120.0
            },
            {
                "start_time": 29.195454545454545,
                "end_time": 29.331818181818182,
                "pitch": 41,
                "velocity": 80,
                "duration": 0.1363636363636367,
                "tempo": 120.0
            },
            {
                "start_time": 29.55681818181818,
                "end_time": 29.7,
                "pitch": 36,
                "velocity": 80,
                "duration": 0.1431818181818194,
                "tempo": 120.0
            },
            {
                "start_time": 29.89772727272727,
                "end_time": 30.043181818181818,
                "pitch": 41,
                "velocity": 80,
                "duration": 0.14545454545454817,
                "tempo": 120.0
            },
            {
                "start_time": 30.254545454545454,
                "end_time": 30.39090909090909,
                "pitch": 36,
                "velocity": 80,
                "duration": 0.1363636363636367,
                "tempo": 120.0
            },
            {
                "start_time": 30.618181818181817,
                "end_time": 30.761363636363633,
                "pitch": 37,
                "velocity": 80,
                "duration": 0.14318181818181586,
                "tempo": 120.0
            },
            {
                "start_time": 30.974999999999998,
                "end_time": 31.10909090909091,
                "pitch": 36,
                "velocity": 80,
                "duration": 0.13409090909091148,
                "tempo": 120.0
            },
            {
                "start_time": 31.336363636363636,
                "end_time": 31.479545454545452,
                "pitch": 37,
                "velocity": 80,
                "duration": 0.14318181818181586,
                "tempo": 120.0
            },
            {
                "start_time": 31.693181818181817,
                "end_time": 31.825,
                "pitch": 36,
                "velocity": 80,
                "duration": 0.13181818181818272,
                "tempo": 120.0
            },
            {
                "start_time": 32.04545454545455,
                "end_time": 32.18863636363636,
                "pitch": 37,
                "velocity": 80,
                "duration": 0.14318181818181586,
                "tempo": 120.0
            },
            {
                "start_time": 32.38636363636363,
                "end_time": 32.529545454545456,
                "pitch": 36,
                "velocity": 80,
                "duration": 0.14318181818182296,
                "tempo": 120.0
            },
            {
                "start_time": 32.74545454545454,
                "end_time": 32.87954545454545,
                "pitch": 41,
                "velocity": 80,
                "duration": 0.13409090909090793,
                "tempo": 120.0
            },
            {
                "start_time": 33.46363636363636,
                "end_time": 33.595454545454544,
                "pitch": 41,
                "velocity": 80,
                "duration": 0.13181818181818272,
                "tempo": 120.0
            },
            {
                "start_time": 33.820454545454545,
                "end_time": 33.965909090909086,
                "pitch": 36,
                "velocity": 80,
                "duration": 0.14545454545454106,
                "tempo": 120.0
            },
            {
                "start_time": 34.179545454545455,
                "end_time": 34.31363636363636,
                "pitch": 41,
                "velocity": 80,
                "duration": 0.13409090909090793,
                "tempo": 120.0
            },
            {
                "start_time": 34.538636363636364,
                "end_time": 34.684090909090905,
                "pitch": 36,
                "velocity": 80,
                "duration": 0.14545454545454106,
                "tempo": 120.0
            },
            {
                "start_time": 34.88181818181818,
                "end_time": 35.025,
                "pitch": 41,
                "velocity": 80,
                "duration": 0.14318181818181586,
                "tempo": 120.0
            },
            {
                "start_time": 35.24090909090909,
                "end_time": 35.37045454545454,
                "pitch": 36,
                "velocity": 80,
                "duration": 0.1295454545454504,
                "tempo": 120.0
            },
            {
                "start_time": 35.590909090909086,
                "end_time": 35.736363636363635,
                "pitch": 41,
                "velocity": 80,
                "duration": 0.14545454545454817,
                "tempo": 120.0
            },
            {
                "start_time": 35.949999999999996,
                "end_time": 36.08409090909091,
                "pitch": 36,
                "velocity": 80,
                "duration": 0.13409090909091503,
                "tempo": 120.0
            },
            {
                "start_time": 36.31136363636364,
                "end_time": 36.45454545454545,
                "pitch": 36,
                "velocity": 80,
                "duration": 0.14318181818181586,
                "tempo": 120.0
            },
            {
                "start_time": 37.027272727272724,
                "end_time": 37.17272727272727,
                "pitch": 36,
                "velocity": 80,
                "duration": 0.14545454545454817,
                "tempo": 120.0
            },
            {
                "start_time": 37.72727272727273,
                "end_time": 37.861363636363635,
                "pitch": 36,
                "velocity": 80,
                "duration": 0.13409090909090793,
                "tempo": 120.0
            },
            {
                "start_time": 38.445454545454545,
                "end_time": 38.57954545454545,
                "pitch": 36,
                "velocity": 80,
                "duration": 0.13409090909090793,
                "tempo": 120.0
            },
            {
                "start_time": 39.163636363636364,
                "end_time": 39.29545454545455,
                "pitch": 36,
                "velocity": 80,
                "duration": 0.13181818181818272,
                "tempo": 120.0
            },
            {
                "start_time": 39.85681818181818,
                "end_time": 40.00454545454545,
                "pitch": 36,
                "velocity": 80,
                "duration": 0.14772727272727337,
                "tempo": 120.0
            },
            {
                "start_time": 40.57727272727273,
                "end_time": 41.29545454545455,
                "pitch": 36,
                "velocity": 80,
                "duration": 0.7181818181818187,
                "tempo": 120.0
            },
            {
                "start_time": 41.29545454545455,
                "end_time": 42.01363636363636,
                "pitch": 37,
                "velocity": 80,
                "duration": 0.7181818181818116,
                "tempo": 120.0
            },
            {
                "start_time": 42.01363636363636,
                "end_time": 42.71363636363636,
                "pitch": 38,
                "velocity": 80,
                "duration": 0.7000000000000028,
                "tempo": 120.0
            },
            {
                "start_time": 42.71363636363636,
                "end_time": 43.43181818181818,
                "pitch": 40,
                "velocity": 80,
                "duration": 0.7181818181818187,
                "tempo": 120.0
            },
            {
                "start_time": 43.43181818181818,
                "end_time": 43.56136363636364,
                "pitch": 41,
                "velocity": 80,
                "duration": 0.12954545454545752,
                "tempo": 120.0
            },
            {
                "start_time": 44.14090909090909,
                "end_time": 44.275,
                "pitch": 36,
                "velocity": 80,
                "duration": 0.13409090909090793,
                "tempo": 120.0
            },
            {
                "start_time": 44.84318181818182,
                "end_time": 44.98863636363636,
                "pitch": 41,
                "velocity": 80,
                "duration": 0.14545454545454106,
                "tempo": 120.0
            },
            {
                "start_time": 45.918181818181814,
                "end_time": 46.05227272727272,
                "pitch": 29,
                "velocity": 80,
                "duration": 0.13409090909090793,
                "tempo": 120.0
            },
            {
                "start_time": 46.275,
                "end_time": 46.42045454545455,
                "pitch": 41,
                "velocity": 80,
                "duration": 0.14545454545454817,
                "tempo": 120.0
            },
            {
                "start_time": 46.63863636363636,
                "end_time": 46.77045454545454,
                "pitch": 36,
                "velocity": 80,
                "duration": 0.13181818181818272,
                "tempo": 120.0
            },
            {
                "start_time": 46.99090909090909,
                "end_time": 47.13636363636363,
                "pitch": 41,
                "velocity": 80,
                "duration": 0.14545454545454106,
                "tempo": 120.0
            },
            {
                "start_time": 47.33181818181818,
                "end_time": 47.47727272727273,
                "pitch": 36,
                "velocity": 80,
                "duration": 0.14545454545454817,
                "tempo": 120.0
            },
            {
                "start_time": 47.69318181818181,
                "end_time": 47.824999999999996,
                "pitch": 41,
                "velocity": 80,
                "duration": 0.13181818181818272,
                "tempo": 120.0
            },
            {
                "start_time": 48.05227272727272,
                "end_time": 48.195454545454545,
                "pitch": 36,
                "velocity": 80,
                "duration": 0.14318181818182296,
                "tempo": 120.0
            },
            {
                "start_time": 48.40909090909091,
                "end_time": 48.543181818181814,
                "pitch": 41,
                "velocity": 80,
                "duration": 0.13409090909090793,
                "tempo": 120.0
            },
            {
                "start_time": 49.13863636363636,
                "end_time": 49.26590909090909,
                "pitch": 41,
                "velocity": 80,
                "duration": 0.1272727272727323,
                "tempo": 120.0
            },
            {
                "start_time": 49.47954545454545,
                "end_time": 49.627272727272725,
                "pitch": 36,
                "velocity": 80,
                "duration": 0.14772727272727337,
                "tempo": 120.0
            },
            {
                "start_time": 49.83181818181818,
                "end_time": 49.974999999999994,
                "pitch": 41,
                "velocity": 80,
                "duration": 0.14318181818181586,
                "tempo": 120.0
            },
            {
                "start_time": 50.19090909090909,
                "end_time": 50.320454545454545,
                "pitch": 36,
                "velocity": 80,
                "duration": 0.12954545454545752,
                "tempo": 120.0
            },
            {
                "start_time": 50.54090909090909,
                "end_time": 50.684090909090905,
                "pitch": 41,
                "velocity": 80,
                "duration": 0.14318181818181586,
                "tempo": 120.0
            },
            {
                "start_time": 50.9,
                "end_time": 51.03409090909091,
                "pitch": 36,
                "velocity": 80,
                "duration": 0.13409090909090793,
                "tempo": 120.0
            },
            {
                "start_time": 51.25909090909091,
                "end_time": 51.402272727272724,
                "pitch": 41,
                "velocity": 80,
                "duration": 0.14318181818181586,
                "tempo": 120.0
            },
            {
                "start_time": 51.615909090909085,
                "end_time": 51.752272727272725,
                "pitch": 36,
                "velocity": 80,
                "duration": 0.13636363636364024,
                "tempo": 120.0
            },
            {
                "start_time": 51.97727272727273,
                "end_time": 52.12045454545454,
                "pitch": 41,
                "velocity": 80,
                "duration": 0.14318181818181586,
                "tempo": 120.0
            },
            {
                "start_time": 52.31818181818181,
                "end_time": 52.46363636363636,
                "pitch": 36,
                "velocity": 80,
                "duration": 0.14545454545454817,
                "tempo": 120.0
            },
            {
                "start_time": 52.67727272727272,
                "end_time": 52.81136363636363,
                "pitch": 41,
                "velocity": 80,
                "duration": 0.13409090909090793,
                "tempo": 120.0
            },
            {
                "start_time": 53.03636363636363,
                "end_time": 53.18181818181818,
                "pitch": 36,
                "velocity": 80,
                "duration": 0.14545454545454817,
                "tempo": 120.0
            },
            {
                "start_time": 53.39545454545454,
                "end_time": 53.527272727272724,
                "pitch": 41,
                "velocity": 80,
                "duration": 0.13181818181818272,
                "tempo": 120.0
            },
            {
                "start_time": 53.74772727272727,
                "end_time": 53.89545454545454,
                "pitch": 36,
                "velocity": 80,
                "duration": 0.14772727272727337,
                "tempo": 120.0
            },
            {
                "start_time": 54.115909090909085,
                "end_time": 54.179545454545455,
                "pitch": 36,
                "velocity": 80,
                "duration": 0.06363636363636971,
                "tempo": 120.0
            },
            {
                "start_time": 54.28181818181818,
                "end_time": 54.36363636363636,
                "pitch": 38,
                "velocity": 80,
                "duration": 0.08181818181817846,
                "tempo": 120.0
            },
            {
                "start_time": 54.465909090909086,
                "end_time": 54.52954545454545,
                "pitch": 40,
                "velocity": 80,
                "duration": 0.0636363636363626,
                "tempo": 120.0
            },
            {
                "start_time": 54.64545454545454,
                "end_time": 54.709090909090904,
                "pitch": 43,
                "velocity": 80,
                "duration": 0.0636363636363626,
                "tempo": 120.0
            },
            {
                "start_time": 54.809090909090905,
                "end_time": 54.95227272727273,
                "pitch": 41,
                "velocity": 80,
                "duration": 0.14318181818182296,
                "tempo": 120.0
            },
            {
                "start_time": 55.16590909090909,
                "end_time": 55.3,
                "pitch": 36,
                "velocity": 80,
                "duration": 0.13409090909090793,
                "tempo": 120.0
            },
            {
                "start_time": 55.527272727272724,
                "end_time": 55.67045454545454,
                "pitch": 41,
                "velocity": 80,
                "duration": 0.14318181818181586,
                "tempo": 120.0
            },
            {
                "start_time": 55.88409090909091,
                "end_time": 56.018181818181816,
                "pitch": 36,
                "velocity": 80,
                "duration": 0.13409090909090793,
                "tempo": 120.0
            },
            {
                "start_time": 56.24545454545454,
                "end_time": 56.38863636363636,
                "pitch": 41,
                "velocity": 80,
                "duration": 0.14318181818181586,
                "tempo": 120.0
            },
            {
                "start_time": 56.60227272727273,
                "end_time": 56.736363636363635,
                "pitch": 36,
                "velocity": 80,
                "duration": 0.13409090909090793,
                "tempo": 120.0
            },
            {
                "start_time": 56.961363636363636,
                "end_time": 57.10227272727273,
                "pitch": 41,
                "velocity": 80,
                "duration": 0.14090909090909065,
                "tempo": 120.0
            },
            {
                "start_time": 57.29545454545454,
                "end_time": 57.44090909090909,
                "pitch": 36,
                "velocity": 80,
                "duration": 0.14545454545454817,
                "tempo": 120.0
            },
            {
                "start_time": 57.66136363636363,
                "end_time": 57.793181818181814,
                "pitch": 41,
                "velocity": 80,
                "duration": 0.13181818181818272,
                "tempo": 120.0
            },
            {
                "start_time": 58.01363636363636,
                "end_time": 58.16136363636363,
                "pitch": 36,
                "velocity": 80,
                "duration": 0.14772727272727337,
                "tempo": 120.0
            },
            {
                "start_time": 58.381818181818176,
                "end_time": 58.51363636363636,
                "pitch": 41,
                "velocity": 80,
                "duration": 0.13181818181818272,
                "tempo": 120.0
            },
            {
                "start_time": 58.736363636363635,
                "end_time": 58.877272727272725,
                "pitch": 36,
                "velocity": 80,
                "duration": 0.14090909090909065,
                "tempo": 120.0
            },
            {
                "start_time": 59.09318181818182,
                "end_time": 59.22727272727273,
                "pitch": 41,
                "velocity": 80,
                "duration": 0.13409090909090793,
                "tempo": 120.0
            },
            {
                "start_time": 59.45227272727272,
                "end_time": 59.595454545454544,
                "pitch": 36,
                "velocity": 80,
                "duration": 0.14318181818182296,
                "tempo": 120.0
            },
            {
                "start_time": 59.79545454545454,
                "end_time": 59.87272727272727,
                "pitch": 36,
                "velocity": 80,
                "duration": 0.07727272727272805,
                "tempo": 120.0
            },
            {
                "start_time": 59.97272727272727,
                "end_time": 60.03636363636363,
                "pitch": 38,
                "velocity": 80,
                "duration": 0.0636363636363626,
                "tempo": 120.0
            },
            {
                "start_time": 60.152272727272724,
                "end_time": 60.21818181818182,
                "pitch": 40,
                "velocity": 80,
                "duration": 0.06590909090909491,
                "tempo": 120.0
            },
            {
                "start_time": 60.340909090909086,
                "end_time": 60.40681818181818,
                "pitch": 43,
                "velocity": 80,
                "duration": 0.06590909090909491,
                "tempo": 120.0
            }
        ]
    }
}