{
    "track_id": "22 Ranking",
    "mood": "happy",
    "instruments": {
        "Electric Piano 1": [
            {
                "start_time": 1.3772727272727272,
                "end_time": 1.5409090909090908,
                "pitch": 54,
                "velocity": 80,
                "duration": 0.16363636363636358,
                "tempo": 120.0
            },
            {
                "start_time": 1.5431818181818182,
                "end_time": 1.709090909090909,
                "pitch": 54,
                "velocity": 80,
                "duration": 0.16590909090909078,
                "tempo": 120.0
            },
            {
                "start_time": 1.7113636363636362,
                "end_time": 1.8772727272727272,
                "pitch": 49,
                "velocity": 80,
                "duration": 0.165909090909091,
                "tempo": 120.0
            },
            {
                "start_time": 1.8772727272727272,
                "end_time": 2.0454545454545454,
                "pitch": 50,
                "velocity": 80,
                "duration": 0.1681818181818182,
                "tempo": 120.0
            },
            {
                "start_time": 2.2136363636363634,
                "end_time": 2.3795454545454544,
                "pitch": 52,
                "velocity": 80,
                "duration": 0.165909090909091,
                "tempo": 120.0
            },
            {
                "start_time": 2.5545454545454542,
                "end_time": 2.725,
                "pitch": 50,
                "velocity": 80,
                "duration": 0.17045454545454586,
                "tempo": 120.0
            },
            {
                "start_time": 2.727272727272727,
                "end_time": 2.893181818181818,
                "pitch": 54,
                "velocity": 80,
                "duration": 0.165909090909091,
                "tempo": 120.0
            },
            {
                "start_time": 2.893181818181818,
                "end_time": 3.059090909090909,
                "pitch": 52,
                "velocity": 80,
                "duration": 0.165909090909091,
                "tempo": 120.0
            },
            {
                "start_time": 3.061363636363636,
                "end_time": 3.2318181818181815,
                "pitch": 50,
                "velocity": 80,
                "duration": 0.17045454545454541,
                "tempo": 120.0
            },
            {
                "start_time": 3.234090909090909,
                "end_time": 3.7409090909090907,
                "pitch": 49,
                "velocity": 80,
                "duration": 0.5068181818181818,
                "tempo": 120.0
            },
            {
                "start_time": 4.077272727272727,
                "end_time": 4.247727272727272,
                "pitch": 54,
                "velocity": 80,
                "duration": 0.17045454545454497,
                "tempo": 120.0
            },
            {
                "start_time": 4.25,
                "end_time": 4.420454545454545,
                "pitch": 54,
                "velocity": 80,
                "duration": 0.17045454545454497,
                "tempo": 120.0
            },
            {
                "start_time": 4.422727272727273,
                "end_time": 4.588636363636364,
                "pitch": 49,
                "velocity": 80,
                "duration": 0.165909090909091,
                "tempo": 120.0
            },
            {
                "start_time": 4.588636363636364,
                "end_time": 4.754545454545454,
                "pitch": 50,
                "velocity": 80,
                "duration": 0.16590909090909012,
                "tempo": 120.0
            },
            {
                "start_time": 4.925,
                "end_time": 5.090909090909091,
                "pitch": 52,
                "velocity": 80,
                "duration": 0.165909090909091,
                "tempo": 120.0
            },
            {
                "start_time": 5.263636363636364,
                "end_time": 5.4363636363636365,
                "pitch": 50,
                "velocity": 80,
                "duration": 0.17272727272727284,
                "tempo": 120.0
            },
            {
                "start_time": 5.4386363636363635,
                "end_time": 5.602272727272727,
                "pitch": 54,
                "velocity": 80,
                "duration": 0.16363636363636314,
                "tempo": 120.0
            },
            {
                "start_time": 5.6045454545454545,
                "end_time": 5.7704545454545455,
                "pitch": 52,
                "velocity": 80,
                "duration": 0.165909090909091,
                "tempo": 120.0
            },
            {
                "start_time": 5.7727272727272725,
                "end_time": 5.9431818181818175,
                "pitch": 50,
                "velocity": 80,
                "duration": 0.17045454545454497,
                "tempo": 120.0
            },
            {
                "start_time": 5.945454545454545,
                "end_time": 6.449999999999999,
                "pitch": 49,
                "velocity": 80,
                "duration": 0.504545454545454,
                "tempo": 120.0
            },
            {
                "start_time": 6.788636363636363,
                "end_time": 6.959090909090909,
                "pitch": 59,
                "velocity": 80,
                "duration": 0.17045454545454586,
                "tempo": 120.0
            },
            {
                "start_time": 6.959090909090909,
                "end_time": 7.131818181818182,
                "pitch": 59,
                "velocity": 80,
                "duration": 0.17272727272727284,
                "tempo": 120.0
            },
            {
                "start_time": 7.131818181818182,
                "end_time": 7.297727272727272,
                "pitch": 54,
                "velocity": 80,
                "duration": 0.16590909090909012,
                "tempo": 120.0
            },
            {
                "start_time": 7.3,
                "end_time": 7.465909090909091,
                "pitch": 56,
                "velocity": 80,
                "duration": 0.165909090909091,
                "tempo": 120.0
            },
            {
                "start_time": 7.640909090909091,
                "end_time": 7.811363636363636,
                "pitch": 57,
                "velocity": 80,
                "duration": 0.17045454545454497,
                "tempo": 120.0
            },
            {
                "start_time": 7.9795454545454545,
                "end_time": 8.147727272727272,
                "pitch": 56,
                "velocity": 80,
                "duration": 0.1681818181818171,
                "tempo": 120.0
            },
            {
                "start_time": 8.147727272727272,
                "end_time": 8.313636363636363,
                "pitch": 59,
                "velocity": 80,
                "duration": 0.165909090909091,
                "tempo": 120.0
            },
            {
                "start_time": 8.315909090909091,
                "end_time": 8.48181818181818,
                "pitch": 57,
                "velocity": 80,
                "duration": 0.16590909090908923,
                "tempo": 120.0
            },
            {
                "start_time": 8.48409090909091,
                "end_time": 8.654545454545454,
                "pitch": 56,
                "velocity": 80,
                "duration": 0.17045454545454497,
                "tempo": 120.0
            },
            {
                "start_time": 8.654545454545454,
                "end_time": 9.161363636363635,
                "pitch": 54,
                "velocity": 80,
                "duration": 0.506818181818181,
                "tempo": 120.0
            },
            {
                "start_time": 9.509090909090908,
                "end_time": 9.674999999999999,
                "pitch": 59,
                "velocity": 80,
                "duration": 0.165909090909091,
                "tempo": 120.0
            },
            {
                "start_time": 9.674999999999999,
                "end_time": 9.843181818181817,
                "pitch": 59,
                "velocity": 80,
                "duration": 0.168181818181818,
                "tempo": 120.0
            },
            {
                "start_time": 9.843181818181817,
                "end_time": 10.009090909090908,
                "pitch": 54,
                "velocity": 80,
                "duration": 0.165909090909091,
                "tempo": 120.0
            },
            {
                "start_time": 10.011363636363637,
                "end_time": 10.177272727272726,
                "pitch": 56,
                "velocity": 80,
                "duration": 0.16590909090908923,
                "tempo": 120.0
            },
            {
                "start_time": 10.345454545454546,
                "end_time": 10.513636363636364,
                "pitch": 57,
                "velocity": 80,
                "duration": 0.168181818181818,
                "tempo": 120.0
            },
            {
                "start_time": 10.686363636363636,
                "end_time": 10.85909090909091,
                "pitch": 56,
                "velocity": 80,
                "duration": 0.17272727272727373,
                "tempo": 120.0
            },
            {
                "start_time": 10.85909090909091,
                "end_time": 11.029545454545454,
                "pitch": 54,
                "velocity": 80,
                "duration": 0.17045454545454497,
                "tempo": 120.0
            },
            {
                "start_time": 11.031818181818181,
                "end_time": 11.202272727272726,
                "pitch": 66,
                "velocity": 80,
                "duration": 0.17045454545454497,
                "tempo": 120.0
            },
            {
                "start_time": 11.370454545454544,
                "end_time": 11.538636363636362,
                "pitch": 64,
                "velocity": 80,
                "duration": 0.168181818181818,
                "tempo": 120.0
            },
            {
                "start_time": 11.706818181818182,
                "end_time": 11.872727272727273,
                "pitch": 62,
                "velocity": 80,
                "duration": 0.165909090909091,
                "tempo": 120.0
            },
            {
                "start_time": 12.043181818181818,
                "end_time": 12.209090909090909,
                "pitch": 61,
                "velocity": 80,
                "duration": 0.165909090909091,
                "tempo": 120.0
            },
            {
                "start_time": 12.211363636363636,
                "end_time": 12.381818181818181,
                "pitch": 54,
                "velocity": 80,
                "duration": 0.17045454545454497,
                "tempo": 120.0
            },
            {
                "start_time": 12.381818181818181,
                "end_time": 12.554545454545455,
                "pitch": 54,
                "velocity": 80,
                "duration": 0.17272727272727373,
                "tempo": 120.0
            },
            {
                "start_time": 12.554545454545455,
                "end_time": 12.720454545454546,
                "pitch": 49,
                "velocity": 80,
                "duration": 0.165909090909091,
                "tempo": 120.0
            },
            {
                "start_time": 12.722727272727273,
                "end_time": 12.888636363636364,
                "pitch": 50,
                "velocity": 80,
                "duration": 0.165909090909091,
                "tempo": 120.0
            },
            {
                "start_time": 13.056818181818182,
                "end_time": 13.225,
                "pitch": 52,
                "velocity": 80,
                "duration": 0.168181818181818,
                "tempo": 120.0
            },
            {
                "start_time": 13.397727272727272,
                "end_time": 13.570454545454545,
                "pitch": 50,
                "velocity": 80,
                "duration": 0.17272727272727373,
                "tempo": 120.0
            },
            {
                "start_time": 13.570454545454545,
                "end_time": 13.736363636363636,
                "pitch": 54,
                "velocity": 80,
                "duration": 0.165909090909091,
                "tempo": 120.0
            },
            {
                "start_time": 13.738636363636363,
                "end_time": 13.904545454545454,
                "pitch": 52,
                "velocity": 80,
                "duration": 0.165909090909091,
                "tempo": 120.0
            },
            {
                "start_time": 13.904545454545454,
                "end_time": 14.077272727272726,
                "pitch": 50,
                "velocity": 80,
                "duration": 0.17272727272727195,
                "tempo": 120.0
            },
            {
                "start_time": 14.077272727272726,
                "end_time": 14.584090909090909,
                "pitch": 49,
                "velocity": 80,
                "duration": 0.5068181818181827,
                "tempo": 120.0
            },
            {
                "start_time": 14.922727272727272,
                "end_time": 15.09090909090909,
                "pitch": 54,
                "velocity": 80,
                "duration": 0.168181818181818,
                "tempo": 120.0
            },
            {
                "start_time": 15.093181818181817,
                "end_time": 15.263636363636364,
                "pitch": 54,
                "velocity": 80,
                "duration": 0.17045454545454675,
                "tempo": 120.0
            },
            {
                "start_time": 15.26590909090909,
                "end_time": 15.431818181818182,
                "pitch": 49,
                "velocity": 80,
                "duration": 0.165909090909091,
                "tempo": 120.0
            },
            {
                "start_time": 15.434090909090909,
                "end_time": 15.6,
                "pitch": 50,
                "velocity": 80,
                "duration": 0.165909090909091,
                "tempo": 120.0
            },
            {
                "start_time": 15.768181818181818,
                "end_time": 15.934090909090909,
                "pitch": 52,
                "velocity": 80,
                "duration": 0.165909090909091,
                "tempo": 120.0
            },
            {
                "start_time": 16.10909090909091,
                "end_time": 16.279545454545453,
                "pitch": 50,
                "velocity": 80,
                "duration": 0.1704545454545432,
                "tempo": 120.0
            },
            {
                "start_time": 16.28181818181818,
                "end_time": 16.44772727272727,
                "pitch": 54,
                "velocity": 80,
                "duration": 0.16590909090908923,
                "tempo": 120.0
            },
            {
                "start_time": 16.44772727272727,
                "end_time": 16.61590909090909,
                "pitch": 52,
                "velocity": 80,
                "duration": 0.168181818181818,
                "tempo": 120.0
            },
            {
                "start_time": 16.61590909090909,
                "end_time": 16.786363636363635,
                "pitch": 50,
                "velocity": 80,
                "duration": 0.17045454545454675,
                "tempo": 120.0
            },
            {
                "start_time": 16.788636363636364,
                "end_time": 17.295454545454543,
                "pitch": 49,
                "velocity": 80,
                "duration": 0.5068181818181792,
                "tempo": 120.0
            },
            {
                "start_time": 17.631818181818183,
                "end_time": 17.802272727272726,
                "pitch": 59,
                "velocity": 80,
                "duration": 0.1704545454545432,
                "tempo": 120.0
            },
            {
                "start_time": 17.804545454545455,
                "end_time": 17.974999999999998,
                "pitch": 59,
                "velocity": 80,
                "duration": 0.1704545454545432,
                "tempo": 120.0
            },
            {
                "start_time": 17.977272727272727,
                "end_time": 18.143181818181816,
                "pitch": 54,
                "velocity": 80,
                "duration": 0.16590909090908923,
                "tempo": 120.0
            },
            {
                "start_time": 18.145454545454545,
                "end_time": 18.311363636363634,
                "pitch": 56,
                "velocity": 80,
                "duration": 0.16590909090908923,
                "tempo": 120.0
            },
            {
                "start_time": 18.48409090909091,
                "end_time": 18.654545454545453,
                "pitch": 57,
                "velocity": 80,
                "duration": 0.1704545454545432,
                "tempo": 120.0
            },
            {
                "start_time": 18.825,
                "end_time": 18.99090909090909,
                "pitch": 56,
                "velocity": 80,
                "duration": 0.16590909090908923,
                "tempo": 120.0
            },
            {
                "start_time": 18.993181818181817,
                "end_time": 19.159090909090907,
                "pitch": 59,
                "velocity": 80,
                "duration": 0.16590909090908923,
                "tempo": 120.0
            },
            {
                "start_time": 19.159090909090907,
                "end_time": 19.327272727272728,
                "pitch": 57,
                "velocity": 80,
                "duration": 0.16818181818182154,
                "tempo": 120.0
            },
            {
                "start_time": 19.327272727272728,
                "end_time": 19.49772727272727,
                "pitch": 56,
                "velocity": 80,
                "duration": 0.1704545454545432,
                "tempo": 120.0
            },
            {
                "start_time": 19.5,
                "end_time": 20.00681818181818,
                "pitch": 54,
                "velocity": 80,
                "duration": 0.5068181818181792,
                "tempo": 120.0
            },
            {
                "start_time": 20.352272727272727,
                "end_time": 20.518181818181816,
                "pitch": 59,
                "velocity": 80,
                "duration": 0.16590909090908923,
                "tempo": 120.0
            },
            {
                "start_time": 20.520454545454545,
                "end_time": 20.686363636363634,
                "pitch": 59,
                "velocity": 80,
                "duration": 0.16590909090908923,
                "tempo": 120.0
            },
            {
                "start_time": 20.688636363636363,
                "end_time": 20.854545454545452,
                "pitch": 54,
                "velocity": 80,
                "duration": 0.16590909090908923,
                "tempo": 120.0
            },
            {
                "start_time": 20.854545454545452,
                "end_time": 21.022727272727273,
                "pitch": 56,
                "velocity": 80,
                "duration": 0.16818181818182154,
                "tempo": 120.0
            },
            {
                "start_time": 21.195454545454545,
                "end_time": 21.36590909090909,
                "pitch": 57,
                "velocity": 80,
                "duration": 0.1704545454545432,
                "tempo": 120.0
            },
            {
                "start_time": 21.536363636363635,
                "end_time": 21.702272727272724,
                "pitch": 56,
                "velocity": 80,
                "duration": 0.16590909090908923,
                "tempo": 120.0
            },
            {
                "start_time": 21.704545454545453,
                "end_time": 21.87272727272727,
                "pitch": 54,
                "velocity": 80,
                "duration": 0.168181818181818,
                "tempo": 120.0
            },
            {
                "start_time": 21.875,
                "end_time": 22.045454545454543,
                "pitch": 66,
                "velocity": 80,
                "duration": 0.1704545454545432,
                "tempo": 120.0
            },
            {
                "start_time": 22.21590909090909,
                "end_time": 22.38181818181818,
                "pitch": 64,
                "velocity": 80,
                "duration": 0.16590909090908923,
                "tempo": 120.0
            },
            {
                "start_time": 22.549999999999997,
                "end_time": 22.71818181818182,
                "pitch": 62,
                "velocity": 80,
                "duration": 0.16818181818182154,
                "tempo": 120.0
            },
            {
                "start_time": 22.89090909090909,
                "end_time": 23.061363636363634,
                "pitch": 61,
                "velocity": 80,
                "duration": 0.1704545454545432,
                "tempo": 120.0
            },
            {
                "start_time": 23.23181818181818,
                "end_time": 23.313636363636363,
                "pitch": 62,
                "velocity": 80,
                "duration": 0.08181818181818201,
                "tempo": 120.0
            },
            {
                "start_time": 23.4,
                "end_time": 23.48181818181818,
                "pitch": 62,
                "velocity": 80,
                "duration": 0.08181818181818201,
                "tempo": 120.0
            },
            {
                "start_time": 23.48181818181818,
                "end_time": 23.56590909090909,
                "pitch": 64,
                "velocity": 80,
                "duration": 0.08409090909091077,
                "tempo": 120.0
            },
            {
                "start_time": 23.56590909090909,
                "end_time": 23.73181818181818,
                "pitch": 62,
                "velocity": 80,
                "duration": 0.16590909090908923,
                "tempo": 120.0
            },
            {
                "start_time": 23.73409090909091,
                "end_time": 23.81590909090909,
                "pitch": 61,
                "velocity": 80,
                "duration": 0.08181818181818201,
                "tempo": 120.0
            },
            {
                "start_time": 23.902272727272727,
                "end_time": 23.98409090909091,
                "pitch": 61,
                "velocity": 80,
                "duration": 0.08181818181818201,
                "tempo": 120.0
            },
            {
                "start_time": 23.986363636363635,
                "end_time": 24.068181818181817,
                "pitch": 62,
                "velocity": 80,
                "duration": 0.08181818181818201,
                "tempo": 120.0
            },
            {
                "start_time": 24.070454545454545,
                "end_time": 24.154545454545453,
                "pitch": 61,
                "velocity": 80,
                "duration": 0.08409090909090722,
                "tempo": 120.0
            },
            {
                "start_time": 24.15681818181818,
                "end_time": 24.413636363636364,
                "pitch": 57,
                "velocity": 80,
                "duration": 0.2568181818181827,
                "tempo": 120.0
            },
            {
                "start_time": 24.581818181818182,
                "end_time": 24.663636363636364,
                "pitch": 61,
                "velocity": 80,
                "duration": 0.08181818181818201,
                "tempo": 120.0
            },
            {
                "start_time": 24.75,
                "end_time": 24.834090909090907,
                "pitch": 61,
                "velocity": 80,
                "duration": 0.08409090909090722,
                "tempo": 120.0
            },
            {
                "start_time": 24.836363636363636,
                "end_time": 24.920454545454543,
                "pitch": 62,
                "velocity": 80,
                "duration": 0.08409090909090722,
                "tempo": 120.0
            },
            {
                "start_time": 24.922727272727272,
                "end_time": 25.09318181818182,
                "pitch": 61,
                "velocity": 80,
                "duration": 0.17045454545454675,
                "tempo": 120.0
            },
            {
                "start_time": 25.095454545454544,
                "end_time": 25.177272727272726,
                "pitch": 62,
                "velocity": 80,
                "duration": 0.08181818181818201,
                "tempo": 120.0
            },
            {
                "start_time": 25.261363636363637,
                "end_time": 25.34318181818182,
                "pitch": 62,
                "velocity": 80,
                "duration": 0.08181818181818201,
                "tempo": 120.0
            },
            {
                "start_time": 25.345454545454544,
                "end_time": 25.427272727272726,
                "pitch": 64,
                "velocity": 80,
                "duration": 0.08181818181818201,
                "tempo": 120.0
            },
            {
                "start_time": 25.429545454545455,
                "end_time": 25.513636363636362,
                "pitch": 62,
                "velocity": 80,
                "duration": 0.08409090909090722,
                "tempo": 120.0
            },
            {
                "start_time": 25.51590909090909,
                "end_time": 25.599999999999998,
                "pitch": 61,
                "velocity": 80,
                "duration": 0.08409090909090722,
                "tempo": 120.0
            },
            {
                "start_time": 25.602272727272727,
                "end_time": 25.686363636363634,
                "pitch": 59,
                "velocity": 80,
                "duration": 0.08409090909090722,
                "tempo": 120.0
            },
            {
                "start_time": 25.688636363636363,
                "end_time": 25.77272727272727,
                "pitch": 57,
                "velocity": 80,
                "duration": 0.08409090909090722,
                "tempo": 120.0
            },
            {
                "start_time": 25.94090909090909,
                "end_time": 26.025,
                "pitch": 62,
                "velocity": 80,
                "duration": 0.08409090909090722,
                "tempo": 120.0
            },
            {
                "start_time": 26.10909090909091,
                "end_time": 26.19090909090909,
                "pitch": 62,
                "velocity": 80,
                "duration": 0.08181818181818201,
                "tempo": 120.0
            },
            {
                "start_time": 26.193181818181817,
                "end_time": 26.275,
                "pitch": 64,
                "velocity": 80,
                "duration": 0.08181818181818201,
                "tempo": 120.0
            },
            {
                "start_time": 26.277272727272727,
                "end_time": 26.443181818181817,
                "pitch": 62,
                "velocity": 80,
                "duration": 0.16590909090908923,
                "tempo": 120.0
            },
            {
                "start_time": 26.445454545454545,
                "end_time": 26.529545454545453,
                "pitch": 61,
                "velocity": 80,
                "duration": 0.08409090909090722,
                "tempo": 120.0
            },
            {
                "start_time": 26.618181818181817,
                "end_time": 26.702272727272724,
                "pitch": 61,
                "velocity": 80,
                "duration": 0.08409090909090722,
                "tempo": 120.0
            },
            {
                "start_time": 26.704545454545453,
                "end_time": 26.788636363636364,
                "pitch": 62,
                "velocity": 80,
                "duration": 0.08409090909091077,
                "tempo": 120.0
            },
            {
                "start_time": 26.79090909090909,
                "end_time": 26.87272727272727,
                "pitch": 61,
                "velocity": 80,
                "duration": 0.08181818181818201,
                "tempo": 120.0
            },
            {
                "start_time": 26.875,
                "end_time": 27.125,
                "pitch": 57,
                "velocity": 80,
                "duration": 0.25,
                "tempo": 120.0
            },
            {
                "start_time": 27.293181818181818,
                "end_time": 27.375,
                "pitch": 61,
                "velocity": 80,
                "duration": 0.08181818181818201,
                "tempo": 120.0
            },
            {
                "start_time": 27.461363636363636,
                "end_time": 27.545454545454543,
                "pitch": 61,
                "velocity": 80,
                "duration": 0.08409090909090722,
                "tempo": 120.0
            },
            {
                "start_time": 27.547727272727272,
                "end_time": 27.63181818181818,
                "pitch": 62,
                "velocity": 80,
                "duration": 0.08409090909090722,
                "tempo": 120.0
            },
            {
                "start_time": 27.63181818181818,
                "end_time": 27.804545454545455,
                "pitch": 61,
                "velocity": 80,
                "duration": 0.1727272727272755,
                "tempo": 120.0
            },
            {
                "start_time": 27.804545454545455,
                "end_time": 28.138636363636362,
                "pitch": 57,
                "velocity": 80,
                "duration": 0.3340909090909072,
                "tempo": 120.0
            },
            {
                "start_time": 28.14090909090909,
                "end_time": 28.48409090909091,
                "pitch": 59,
                "velocity": 80,
                "duration": 0.3431818181818187,
                "tempo": 120.0
            },
            {
                "start_time": 28.652272727272727,
                "end_time": 28.736363636363635,
                "pitch": 62,
                "velocity": 80,
                "duration": 0.08409090909090722,
                "tempo": 120.0
            },
            {
                "start_time": 28.820454545454545,
                "end_time": 28.902272727272727,
                "pitch": 62,
                "velocity": 80,
                "duration": 0.08181818181818201,
                "tempo": 120.0
            },
            {
                "start_time": 28.904545454545453,
                "end_time": 28.986363636363635,
                "pitch": 64,
                "velocity": 80,
                "duration": 0.08181818181818201,
                "tempo": 120.0
            },
            {
                "start_time": 28.988636363636363,
                "end_time": 29.154545454545453,
                "pitch": 62,
                "velocity": 80,
                "duration": 0.16590909090908923,
                "tempo": 120.0
            },
            {
                "start_time": 29.15681818181818,
                "end_time": 29.24090909090909,
                "pitch": 61,
                "velocity": 80,
                "duration": 0.08409090909090722,
                "tempo": 120.0
            },
            {
                "start_time": 29.327272727272724,
                "end_time": 29.41363636363636,
                "pitch": 61,
                "velocity": 80,
                "duration": 0.08636363636363598,
                "tempo": 120.0
            },
            {
                "start_time": 29.41363636363636,
                "end_time": 29.5,
                "pitch": 62,
                "velocity": 80,
                "duration": 0.08636363636363953,
                "tempo": 120.0
            },
            {
                "start_time": 29.5,
                "end_time": 29.584090909090907,
                "pitch": 61,
                "velocity": 80,
                "duration": 0.08409090909090722,
                "tempo": 120.0
            },
            {
                "start_time": 29.584090909090907,
                "end_time": 29.836363636363636,
                "pitch": 57,
                "velocity": 80,
                "duration": 0.25227272727272876,
                "tempo": 120.0
            },
            {
                "start_time": 30.004545454545454,
                "end_time": 30.086363636363636,
                "pitch": 61,
                "velocity": 80,
                "duration": 0.08181818181818201,
                "tempo": 120.0
            },
            {
                "start_time": 30.172727272727272,
                "end_time": 30.25681818181818,
                "pitch": 61,
                "velocity": 80,
                "duration": 0.08409090909090722,
                "tempo": 120.0
            },
            {
                "start_time": 30.25681818181818,
                "end_time": 30.343181818181815,
                "pitch": 62,
                "velocity": 80,
                "duration": 0.08636363636363598,
                "tempo": 120.0
            },
            {
                "start_time": 30.343181818181815,
                "end_time": 30.51590909090909,
                "pitch": 61,
                "velocity": 80,
                "duration": 0.1727272727272755,
                "tempo": 120.0
            },
            {
                "start_time": 30.51590909090909,
                "end_time": 30.597727272727273,
                "pitch": 62,
                "velocity": 80,
                "duration": 0.08181818181818201,
                "tempo": 120.0
            },
            {
                "start_time": 30.68409090909091,
                "end_time": 30.76590909090909,
                "pitch": 62,
                "velocity": 80,
                "duration": 0.08181818181818201,
                "tempo": 120.0
            },
            {
                "start_time": 30.768181818181816,
                "end_time": 30.849999999999998,
                "pitch": 64,
                "velocity": 80,
                "duration": 0.08181818181818201,
                "tempo": 120.0
            },
            {
                "start_time": 30.852272727272727,
                "end_time": 30.936363636363634,
                "pitch": 62,
                "velocity": 80,
                "duration": 0.08409090909090722,
                "tempo": 120.0
            },
            {
                "start_time": 30.938636363636363,
                "end_time": 31.02272727272727,
                "pitch": 61,
                "velocity": 80,
                "duration": 0.08409090909090722,
                "tempo": 120.0
            },
            {
                "start_time": 31.025,
                "end_time": 31.10909090909091,
                "pitch": 59,
                "velocity": 80,
                "duration": 0.08409090909091077,
                "tempo": 120.0
            },
            {
                "start_time": 31.10909090909091,
                "end_time": 31.195454545454545,
                "pitch": 57,
                "velocity": 80,
                "duration": 0.08636363636363598,
                "tempo": 120.0
            },
            {
                "start_time": 31.363636363636363,
                "end_time": 31.445454545454545,
                "pitch": 62,
                "velocity": 80,
                "duration": 0.08181818181818201,
                "tempo": 120.0
            },
            {
                "start_time": 31.53181818181818,
                "end_time": 31.613636363636363,
                "pitch": 62,
                "velocity": 80,
                "duration": 0.08181818181818201,
                "tempo": 120.0
            },
            {
                "start_time": 31.61590909090909,
                "end_time": 31.69772727272727,
                "pitch": 64,
                "velocity": 80,
                "duration": 0.08181818181818201,
                "tempo": 120.0
            },
            {
                "start_time": 31.7,
                "end_time": 31.86590909090909,
                "pitch": 62,
                "velocity": 80,
                "duration": 0.16590909090908923,
                "tempo": 120.0
            },
            {
                "start_time": 31.868181818181817,
                "end_time": 31.952272727272724,
                "pitch": 61,
                "velocity": 80,
                "duration": 0.08409090909090722,
                "tempo": 120.0
            },
            {
                "start_time": 32.038636363636364,
                "end_time": 32.125,
                "pitch": 61,
                "velocity": 80,
                "duration": 0.08636363636363598,
                "tempo": 120.0
            },
            {
                "start_time": 32.125,
                "end_time": 32.211363636363636,
                "pitch": 62,
                "velocity": 80,
                "duration": 0.08636363636363598,
                "tempo": 120.0
            },
            {
                "start_time": 32.211363636363636,
                "end_time": 32.293181818181814,
                "pitch": 61,
                "velocity": 80,
                "duration": 0.08181818181817846,
                "tempo": 120.0
            },
            {
                "start_time": 32.29545454545455,
                "end_time": 32.377272727272725,
                "pitch": 62,
                "velocity": 80,
                "duration": 0.08181818181817846,
                "tempo": 120.0
            },
            {
                "start_time": 32.37954545454545,
                "end_time": 32.54545454545455,
                "pitch": 57,
                "velocity": 80,
                "duration": 0.16590909090909634,
                "tempo": 120.0
            },
            {
                "start_time": 32.54772727272727,
                "end_time": 33.04772727272727,
                "pitch": 59,
                "velocity": 80,
                "duration": 0.5,
                "tempo": 120.0
            },
            {
                "start_time": 33.913636363636364,
                "end_time": 33.92272727272727,
                "pitch": 54,
                "velocity": 80,
                "duration": 0.009090909090907928,
                "tempo": 120.0
            }
        ],
        "Acoustic Bass": [
            {
                "start_time": 1.3818181818181818,
                "end_time": 1.7113636363636362,
                "pitch": 35,
                "velocity": 80,
                "duration": 0.32954545454545436,
                "tempo": 120.0
            },
            {
                "start_time": 1.7136363636363636,
                "end_time": 1.8795454545454544,
                "pitch": 47,
                "velocity": 80,
                "duration": 0.16590909090909078,
                "tempo": 120.0
            },
            {
                "start_time": 1.8818181818181818,
                "end_time": 2.215909090909091,
                "pitch": 35,
                "velocity": 80,
                "duration": 0.334090909090909,
                "tempo": 120.0
            },
            {
                "start_time": 2.215909090909091,
                "end_time": 2.5545454545454542,
                "pitch": 45,
                "velocity": 80,
                "duration": 0.3386363636363634,
                "tempo": 120.0
            },
            {
                "start_time": 2.5568181818181817,
                "end_time": 2.727272727272727,
                "pitch": 44,
                "velocity": 80,
                "duration": 0.17045454545454541,
                "tempo": 120.0
            },
            {
                "start_time": 2.7295454545454545,
                "end_time": 2.8954545454545455,
                "pitch": 35,
                "velocity": 80,
                "duration": 0.165909090909091,
                "tempo": 120.0
            },
            {
                "start_time": 2.8954545454545455,
                "end_time": 3.2363636363636363,
                "pitch": 47,
                "velocity": 80,
                "duration": 0.34090909090909083,
                "tempo": 120.0
            },
            {
                "start_time": 3.2363636363636363,
                "end_time": 3.5749999999999997,
                "pitch": 35,
                "velocity": 80,
                "duration": 0.3386363636363634,
                "tempo": 120.0
            },
            {
                "start_time": 3.5749999999999997,
                "end_time": 3.7409090909090907,
                "pitch": 45,
                "velocity": 80,
                "duration": 0.165909090909091,
                "tempo": 120.0
            },
            {
                "start_time": 3.7409090909090907,
                "end_time": 3.9068181818181817,
                "pitch": 44,
                "velocity": 80,
                "duration": 0.165909090909091,
                "tempo": 120.0
            },
            {
                "start_time": 3.9090909090909087,
                "end_time": 4.079545454545454,
                "pitch": 42,
                "velocity": 80,
                "duration": 0.17045454545454541,
                "tempo": 120.0
            },
            {
                "start_time": 4.079545454545454,
                "end_time": 4.422727272727273,
                "pitch": 35,
                "velocity": 80,
                "duration": 0.3431818181818187,
                "tempo": 120.0
            },
            {
                "start_time": 4.425,
                "end_time": 4.590909090909091,
                "pitch": 47,
                "velocity": 80,
                "duration": 0.165909090909091,
                "tempo": 120.0
            },
            {
                "start_time": 4.590909090909091,
                "end_time": 4.927272727272727,
                "pitch": 35,
                "velocity": 80,
                "duration": 0.336363636363636,
                "tempo": 120.0
            },
            {
                "start_time": 4.927272727272727,
                "end_time": 5.265909090909091,
                "pitch": 45,
                "velocity": 80,
                "duration": 0.33863636363636385,
                "tempo": 120.0
            },
            {
                "start_time": 5.268181818181818,
                "end_time": 5.4386363636363635,
                "pitch": 44,
                "velocity": 80,
                "duration": 0.17045454545454586,
                "tempo": 120.0
            },
            {
                "start_time": 5.4409090909090905,
                "end_time": 5.6068181818181815,
                "pitch": 35,
                "velocity": 80,
                "duration": 0.165909090909091,
                "tempo": 120.0
            },
            {
                "start_time": 5.6068181818181815,
                "end_time": 5.945454545454545,
                "pitch": 47,
                "velocity": 80,
                "duration": 0.33863636363636385,
                "tempo": 120.0
            },
            {
                "start_time": 5.947727272727272,
                "end_time": 6.286363636363636,
                "pitch": 35,
                "velocity": 80,
                "duration": 0.33863636363636385,
                "tempo": 120.0
            },
            {
                "start_time": 6.286363636363636,
                "end_time": 6.452272727272727,
                "pitch": 45,
                "velocity": 80,
                "duration": 0.165909090909091,
                "tempo": 120.0
            },
            {
                "start_time": 6.452272727272727,
                "end_time": 6.618181818181818,
                "pitch": 44,
                "velocity": 80,
                "duration": 0.165909090909091,
                "tempo": 120.0
            },
            {
                "start_time": 6.620454545454545,
                "end_time": 6.790909090909091,
                "pitch": 42,
                "velocity": 80,
                "duration": 0.17045454545454586,
                "tempo": 120.0
            },
            {
                "start_time": 6.790909090909091,
                "end_time": 7.134090909090909,
                "pitch": 40,
                "velocity": 80,
                "duration": 0.3431818181818178,
                "tempo": 120.0
            },
            {
                "start_time": 7.136363636363636,
                "end_time": 7.302272727272727,
                "pitch": 52,
                "velocity": 80,
                "duration": 0.165909090909091,
                "tempo": 120.0
            },
            {
                "start_time": 7.302272727272727,
                "end_time": 7.640909090909091,
                "pitch": 40,
                "velocity": 80,
                "duration": 0.33863636363636385,
                "tempo": 120.0
            },
            {
                "start_time": 7.643181818181818,
                "end_time": 7.9818181818181815,
                "pitch": 50,
                "velocity": 80,
                "duration": 0.33863636363636385,
                "tempo": 120.0
            },
            {
                "start_time": 7.9818181818181815,
                "end_time": 8.15,
                "pitch": 49,
                "velocity": 80,
                "duration": 0.16818181818181888,
                "tempo": 120.0
            },
            {
                "start_time": 8.152272727272727,
                "end_time": 8.318181818181818,
                "pitch": 40,
                "velocity": 80,
                "duration": 0.165909090909091,
                "tempo": 120.0
            },
            {
                "start_time": 8.318181818181818,
                "end_time": 8.656818181818181,
                "pitch": 52,
                "velocity": 80,
                "duration": 0.33863636363636296,
                "tempo": 120.0
            },
            {
                "start_time": 8.659090909090908,
                "end_time": 8.997727272727273,
                "pitch": 40,
                "velocity": 80,
                "duration": 0.33863636363636473,
                "tempo": 120.0
            },
            {
                "start_time": 8.997727272727273,
                "end_time": 9.163636363636364,
                "pitch": 38,
                "velocity": 80,
                "duration": 0.165909090909091,
                "tempo": 120.0
            },
            {
                "start_time": 9.163636363636364,
                "end_time": 9.334090909090909,
                "pitch": 37,
                "velocity": 80,
                "duration": 0.17045454545454497,
                "tempo": 120.0
            },
            {
                "start_time": 9.334090909090909,
                "end_time": 9.511363636363637,
                "pitch": 35,
                "velocity": 80,
                "duration": 0.1772727272727277,
                "tempo": 120.0
            },
            {
                "start_time": 9.511363636363637,
                "end_time": 9.845454545454546,
                "pitch": 28,
                "velocity": 80,
                "duration": 0.334090909090909,
                "tempo": 120.0
            },
            {
                "start_time": 9.845454545454546,
                "end_time": 10.013636363636364,
                "pitch": 40,
                "velocity": 80,
                "duration": 0.168181818181818,
                "tempo": 120.0
            },
            {
                "start_time": 10.013636363636364,
                "end_time": 10.347727272727273,
                "pitch": 28,
                "velocity": 80,
                "duration": 0.334090909090909,
                "tempo": 120.0
            },
            {
                "start_time": 10.35,
                "end_time": 10.688636363636363,
                "pitch": 38,
                "velocity": 80,
                "duration": 0.33863636363636296,
                "tempo": 120.0
            },
            {
                "start_time": 10.688636363636363,
                "end_time": 10.861363636363636,
                "pitch": 37,
                "velocity": 80,
                "duration": 0.17272727272727373,
                "tempo": 120.0
            },
            {
                "start_time": 10.863636363636363,
                "end_time": 11.034090909090908,
                "pitch": 28,
                "velocity": 80,
                "duration": 0.17045454545454497,
                "tempo": 120.0
            },
            {
                "start_time": 11.034090909090908,
                "end_time": 11.202272727272726,
                "pitch": 40,
                "velocity": 80,
                "duration": 0.168181818181818,
                "tempo": 120.0
            },
            {
                "start_time": 11.204545454545453,
                "end_time": 11.372727272727273,
                "pitch": 30,
                "velocity": 80,
                "duration": 0.16818181818181976,
                "tempo": 120.0
            },
            {
                "start_time": 11.375,
                "end_time": 11.538636363636362,
                "pitch": 42,
                "velocity": 80,
                "duration": 0.16363636363636225,
                "tempo": 120.0
            },
            {
                "start_time": 11.538636363636362,
                "end_time": 11.709090909090909,
                "pitch": 31,
                "velocity": 80,
                "duration": 0.17045454545454675,
                "tempo": 120.0
            },
            {
                "start_time": 11.709090909090909,
                "end_time": 11.875,
                "pitch": 43,
                "velocity": 80,
                "duration": 0.165909090909091,
                "tempo": 120.0
            },
            {
                "start_time": 11.875,
                "end_time": 12.043181818181818,
                "pitch": 32,
                "velocity": 80,
                "duration": 0.168181818181818,
                "tempo": 120.0
            },
            {
                "start_time": 12.045454545454545,
                "end_time": 12.21590909090909,
                "pitch": 45,
                "velocity": 80,
                "duration": 0.17045454545454497,
                "tempo": 120.0
            },
            {
                "start_time": 12.21590909090909,
                "end_time": 12.556818181818182,
                "pitch": 35,
                "velocity": 80,
                "duration": 0.3409090909090917,
                "tempo": 120.0
            },
            {
                "start_time": 12.556818181818182,
                "end_time": 12.725,
                "pitch": 47,
                "velocity": 80,
                "duration": 0.168181818181818,
                "tempo": 120.0
            },
            {
                "start_time": 12.725,
                "end_time": 13.059090909090909,
                "pitch": 35,
                "velocity": 80,
                "duration": 0.334090909090909,
                "tempo": 120.0
            },
            {
                "start_time": 13.061363636363636,
                "end_time": 13.399999999999999,
                "pitch": 45,
                "velocity": 80,
                "duration": 0.33863636363636296,
                "tempo": 120.0
            },
            {
                "start_time": 13.399999999999999,
                "end_time": 13.572727272727272,
                "pitch": 44,
                "velocity": 80,
                "duration": 0.17272727272727373,
                "tempo": 120.0
            },
            {
                "start_time": 13.572727272727272,
                "end_time": 13.738636363636363,
                "pitch": 35,
                "velocity": 80,
                "duration": 0.165909090909091,
                "tempo": 120.0
            },
            {
                "start_time": 13.74090909090909,
                "end_time": 14.079545454545453,
                "pitch": 47,
                "velocity": 80,
                "duration": 0.33863636363636296,
                "tempo": 120.0
            },
            {
                "start_time": 14.079545454545453,
                "end_time": 14.418181818181818,
                "pitch": 35,
                "velocity": 80,
                "duration": 0.33863636363636473,
                "tempo": 120.0
            },
            {
                "start_time": 14.420454545454545,
                "end_time": 14.584090909090909,
                "pitch": 45,
                "velocity": 80,
                "duration": 0.16363636363636402,
                "tempo": 120.0
            },
            {
                "start_time": 14.586363636363636,
                "end_time": 14.752272727272727,
                "pitch": 44,
                "velocity": 80,
                "duration": 0.165909090909091,
                "tempo": 120.0
            },
            {
                "start_time": 14.752272727272727,
                "end_time": 14.922727272727272,
                "pitch": 42,
                "velocity": 80,
                "duration": 0.17045454545454497,
                "tempo": 120.0
            },
            {
                "start_time": 14.924999999999999,
                "end_time": 15.268181818181818,
                "pitch": 35,
                "velocity": 80,
                "duration": 0.3431818181818187,
                "tempo": 120.0
            },
            {
                "start_time": 15.268181818181818,
                "end_time": 15.434090909090909,
                "pitch": 47,
                "velocity": 80,
                "duration": 0.165909090909091,
                "tempo": 120.0
            },
            {
                "start_time": 15.436363636363636,
                "end_time": 15.770454545454545,
                "pitch": 35,
                "velocity": 80,
                "duration": 0.334090909090909,
                "tempo": 120.0
            },
            {
                "start_time": 15.770454545454545,
                "end_time": 16.111363636363635,
                "pitch": 45,
                "velocity": 80,
                "duration": 0.34090909090908994,
                "tempo": 120.0
            },
            {
                "start_time": 16.111363636363635,
                "end_time": 16.28409090909091,
                "pitch": 44,
                "velocity": 80,
                "duration": 0.1727272727272755,
                "tempo": 120.0
            },
            {
                "start_time": 16.28409090909091,
                "end_time": 16.45,
                "pitch": 35,
                "velocity": 80,
                "duration": 0.16590909090908923,
                "tempo": 120.0
            },
            {
                "start_time": 16.452272727272728,
                "end_time": 16.79090909090909,
                "pitch": 47,
                "velocity": 80,
                "duration": 0.3386363636363612,
                "tempo": 120.0
            },
            {
                "start_time": 16.79090909090909,
                "end_time": 17.129545454545454,
                "pitch": 35,
                "velocity": 80,
                "duration": 0.33863636363636473,
                "tempo": 120.0
            },
            {
                "start_time": 17.131818181818183,
                "end_time": 17.295454545454543,
                "pitch": 45,
                "velocity": 80,
                "duration": 0.16363636363636047,
                "tempo": 120.0
            },
            {
                "start_time": 17.297727272727272,
                "end_time": 17.46363636363636,
                "pitch": 44,
                "velocity": 80,
                "duration": 0.16590909090908923,
                "tempo": 120.0
            },
            {
                "start_time": 17.46363636363636,
                "end_time": 17.634090909090908,
                "pitch": 42,
                "velocity": 80,
                "duration": 0.17045454545454675,
                "tempo": 120.0
            },
            {
                "start_time": 17.636363636363637,
                "end_time": 17.979545454545455,
                "pitch": 40,
                "velocity": 80,
                "duration": 0.3431818181818187,
                "tempo": 120.0
            },
            {
                "start_time": 17.979545454545455,
                "end_time": 18.145454545454545,
                "pitch": 52,
                "velocity": 80,
                "duration": 0.16590909090908923,
                "tempo": 120.0
            },
            {
                "start_time": 18.147727272727273,
                "end_time": 18.486363636363635,
                "pitch": 40,
                "velocity": 80,
                "duration": 0.3386363636363612,
                "tempo": 120.0
            },
            {
                "start_time": 18.486363636363635,
                "end_time": 18.827272727272728,
                "pitch": 50,
                "velocity": 80,
                "duration": 0.3409090909090935,
                "tempo": 120.0
            },
            {
                "start_time": 18.827272727272728,
                "end_time": 18.995454545454546,
                "pitch": 49,
                "velocity": 80,
                "duration": 0.168181818181818,
                "tempo": 120.0
            },
            {
                "start_time": 18.995454545454546,
                "end_time": 19.161363636363635,
                "pitch": 40,
                "velocity": 80,
                "duration": 0.16590909090908923,
                "tempo": 120.0
            },
            {
                "start_time": 19.161363636363635,
                "end_time": 19.502272727272725,
                "pitch": 52,
                "velocity": 80,
                "duration": 0.34090909090908994,
                "tempo": 120.0
            },
            {
                "start_time": 19.502272727272725,
                "end_time": 19.84090909090909,
                "pitch": 40,
                "velocity": 80,
                "duration": 0.33863636363636473,
                "tempo": 120.0
            },
            {
                "start_time": 19.84090909090909,
                "end_time": 20.00681818181818,
                "pitch": 38,
                "velocity": 80,
                "duration": 0.16590909090908923,
                "tempo": 120.0
            },
            {
                "start_time": 20.00681818181818,
                "end_time": 20.179545454545455,
                "pitch": 37,
                "velocity": 80,
                "duration": 0.1727272727272755,
                "tempo": 120.0
            },
            {
                "start_time": 20.179545454545455,
                "end_time": 20.354545454545452,
                "pitch": 35,
                "velocity": 80,
                "duration": 0.17499999999999716,
                "tempo": 120.0
            },
            {
                "start_time": 20.35681818181818,
                "end_time": 20.688636363636363,
                "pitch": 28,
                "velocity": 80,
                "duration": 0.331818181818182,
                "tempo": 120.0
            },
            {
                "start_time": 20.69090909090909,
                "end_time": 20.85681818181818,
                "pitch": 40,
                "velocity": 80,
                "duration": 0.16590909090908923,
                "tempo": 120.0
            },
            {
                "start_time": 20.85909090909091,
                "end_time": 21.19772727272727,
                "pitch": 28,
                "velocity": 80,
                "duration": 0.3386363636363612,
                "tempo": 120.0
            },
            {
                "start_time": 21.19772727272727,
                "end_time": 21.536363636363635,
                "pitch": 38,
                "velocity": 80,
                "duration": 0.33863636363636473,
                "tempo": 120.0
            },
            {
                "start_time": 21.538636363636364,
                "end_time": 21.704545454545453,
                "pitch": 37,
                "velocity": 80,
                "duration": 0.16590909090908923,
                "tempo": 120.0
            },
            {
                "start_time": 21.706818181818182,
                "end_time": 21.877272727272725,
                "pitch": 28,
                "velocity": 80,
                "duration": 0.1704545454545432,
                "tempo": 120.0
            },
            {
                "start_time": 21.877272727272725,
                "end_time": 22.047727272727272,
                "pitch": 40,
                "velocity": 80,
                "duration": 0.17045454545454675,
                "tempo": 120.0
            },
            {
                "start_time": 22.047727272727272,
                "end_time": 22.21818181818182,
                "pitch": 30,
                "velocity": 80,
                "duration": 0.17045454545454675,
                "tempo": 120.0
            },
            {
                "start_time": 22.21818181818182,
                "end_time": 22.38181818181818,
                "pitch": 42,
                "velocity": 80,
                "duration": 0.16363636363636047,
                "tempo": 120.0
            },
            {
                "start_time": 22.384090909090908,
                "end_time": 22.552272727272726,
                "pitch": 31,
                "velocity": 80,
                "duration": 0.168181818181818,
                "tempo": 120.0
            },
            {
                "start_time": 22.554545454545455,
                "end_time": 22.71818181818182,
                "pitch": 43,
                "velocity": 80,
                "duration": 0.16363636363636402,
                "tempo": 120.0
            },
            {
                "start_time": 22.71818181818182,
                "end_time": 22.893181818181816,
                "pitch": 32,
                "velocity": 80,
                "duration": 0.17499999999999716,
                "tempo": 120.0
            },
            {
                "start_time": 22.893181818181816,
                "end_time": 23.06590909090909,
                "pitch": 45,
                "velocity": 80,
                "duration": 0.1727272727272755,
                "tempo": 120.0
            },
            {
                "start_time": 23.06590909090909,
                "end_time": 23.23409090909091,
                "pitch": 47,
                "velocity": 80,
                "duration": 0.168181818181818,
                "tempo": 120.0
            },
            {
                "start_time": 23.23409090909091,
                "end_time": 23.4,
                "pitch": 47,
                "velocity": 80,
                "duration": 0.16590909090908923,
                "tempo": 120.0
            },
            {
                "start_time": 23.402272727272727,
                "end_time": 23.568181818181817,
                "pitch": 47,
                "velocity": 80,
                "duration": 0.16590909090908923,
                "tempo": 120.0
            },
            {
                "start_time": 23.568181818181817,
                "end_time": 23.736363636363635,
                "pitch": 47,
                "velocity": 80,
                "duration": 0.168181818181818,
                "tempo": 120.0
            },
            {
                "start_time": 23.736363636363635,
                "end_time": 23.904545454545453,
                "pitch": 45,
                "velocity": 80,
                "duration": 0.168181818181818,
                "tempo": 120.0
            },
            {
                "start_time": 23.904545454545453,
                "end_time": 24.07272727272727,
                "pitch": 45,
                "velocity": 80,
                "duration": 0.168181818181818,
                "tempo": 120.0
            },
            {
                "start_time": 24.07272727272727,
                "end_time": 24.243181818181817,
                "pitch": 45,
                "velocity": 80,
                "duration": 0.17045454545454675,
                "tempo": 120.0
            },
            {
                "start_time": 24.243181818181817,
                "end_time": 24.41590909090909,
                "pitch": 45,
                "velocity": 80,
                "duration": 0.17272727272727195,
                "tempo": 120.0
            },
            {
                "start_time": 24.41590909090909,
                "end_time": 24.584090909090907,
                "pitch": 45,
                "velocity": 80,
                "duration": 0.168181818181818,
                "tempo": 120.0
            },
            {
                "start_time": 24.584090909090907,
                "end_time": 24.752272727272725,
                "pitch": 45,
                "velocity": 80,
                "duration": 0.168181818181818,
                "tempo": 120.0
            },
            {
                "start_time": 24.752272727272725,
                "end_time": 24.924999999999997,
                "pitch": 45,
                "velocity": 80,
                "duration": 0.17272727272727195,
                "tempo": 120.0
            },
            {
                "start_time": 24.924999999999997,
                "end_time": 25.095454545454544,
                "pitch": 45,
                "velocity": 80,
                "duration": 0.17045454545454675,
                "tempo": 120.0
            },
            {
                "start_time": 25.097727272727273,
                "end_time": 25.263636363636362,
                "pitch": 43,
                "velocity": 80,
                "duration": 0.16590909090908923,
                "tempo": 120.0
            },
            {
                "start_time": 25.263636363636362,
                "end_time": 25.43181818181818,
                "pitch": 43,
                "velocity": 80,
                "duration": 0.168181818181818,
                "tempo": 120.0
            },
            {
                "start_time": 25.43181818181818,
                "end_time": 25.604545454545452,
                "pitch": 43,
                "velocity": 80,
                "duration": 0.17272727272727195,
                "tempo": 120.0
            },
            {
                "start_time": 25.604545454545452,
                "end_time": 25.775,
                "pitch": 43,
                "velocity": 80,
                "duration": 0.17045454545454675,
                "tempo": 120.0
            },
            {
                "start_time": 25.777272727272727,
                "end_time": 25.943181818181817,
                "pitch": 47,
                "velocity": 80,
                "duration": 0.16590909090908923,
                "tempo": 120.0
            },
            {
                "start_time": 25.945454545454545,
                "end_time": 26.111363636363635,
                "pitch": 47,
                "velocity": 80,
                "duration": 0.16590909090908923,
                "tempo": 120.0
            },
            {
                "start_time": 26.113636363636363,
                "end_time": 26.279545454545453,
                "pitch": 47,
                "velocity": 80,
                "duration": 0.16590909090908923,
                "tempo": 120.0
            },
            {
                "start_time": 26.279545454545453,
                "end_time": 26.44772727272727,
                "pitch": 47,
                "velocity": 80,
                "duration": 0.168181818181818,
                "tempo": 120.0
            },
            {
                "start_time": 26.44772727272727,
                "end_time": 26.620454545454542,
                "pitch": 45,
                "velocity": 80,
                "duration": 0.17272727272727195,
                "tempo": 120.0
            },
            {
                "start_time": 26.620454545454542,
                "end_time": 26.79090909090909,
                "pitch": 45,
                "velocity": 80,
                "duration": 0.17045454545454675,
                "tempo": 120.0
            },
            {
                "start_time": 26.793181818181818,
                "end_time": 26.959090909090907,
                "pitch": 45,
                "velocity": 80,
                "duration": 0.16590909090908923,
                "tempo": 120.0
            },
            {
                "start_time": 26.959090909090907,
                "end_time": 27.127272727272725,
                "pitch": 45,
                "velocity": 80,
                "duration": 0.168181818181818,
                "tempo": 120.0
            },
            {
                "start_time": 27.127272727272725,
                "end_time": 27.295454545454543,
                "pitch": 45,
                "velocity": 80,
                "duration": 0.168181818181818,
                "tempo": 120.0
            },
            {
                "start_time": 27.295454545454543,
                "end_time": 27.46363636363636,
                "pitch": 45,
                "velocity": 80,
                "duration": 0.168181818181818,
                "tempo": 120.0
            },
            {
                "start_time": 27.46363636363636,
                "end_time": 27.634090909090908,
                "pitch": 45,
                "velocity": 80,
                "duration": 0.17045454545454675,
                "tempo": 120.0
            },
            {
                "start_time": 27.636363636363637,
                "end_time": 27.80681818181818,
                "pitch": 45,
                "velocity": 80,
                "duration": 0.1704545454545432,
                "tempo": 120.0
            },
            {
                "start_time": 27.80909090909091,
                "end_time": 27.974999999999998,
                "pitch": 38,
                "velocity": 80,
                "duration": 0.16590909090908923,
                "tempo": 120.0
            },
            {
                "start_time": 27.974999999999998,
                "end_time": 28.143181818181816,
                "pitch": 38,
                "velocity": 80,
                "duration": 0.168181818181818,
                "tempo": 120.0
            },
            {
                "start_time": 28.143181818181816,
                "end_time": 28.313636363636363,
                "pitch": 40,
                "velocity": 80,
                "duration": 0.17045454545454675,
                "tempo": 120.0
            },
            {
                "start_time": 28.313636363636363,
                "end_time": 28.486363636363635,
                "pitch": 40,
                "velocity": 80,
                "duration": 0.17272727272727195,
                "tempo": 120.0
            },
            {
                "start_time": 28.488636363636363,
                "end_time": 28.654545454545453,
                "pitch": 47,
                "velocity": 80,
                "duration": 0.16590909090908923,
                "tempo": 120.0
            },
            {
                "start_time": 28.65681818181818,
                "end_time": 28.82272727272727,
                "pitch": 47,
                "velocity": 80,
                "duration": 0.16590909090908923,
                "tempo": 120.0
            },
            {
                "start_time": 28.82272727272727,
                "end_time": 28.99090909090909,
                "pitch": 47,
                "velocity": 80,
                "duration": 0.168181818181818,
                "tempo": 120.0
            },
            {
                "start_time": 28.99090909090909,
                "end_time": 29.159090909090907,
                "pitch": 47,
                "velocity": 80,
                "duration": 0.168181818181818,
                "tempo": 120.0
            },
            {
                "start_time": 29.159090909090907,
                "end_time": 29.329545454545453,
                "pitch": 45,
                "velocity": 80,
                "duration": 0.17045454545454675,
                "tempo": 120.0
            },
            {
                "start_time": 29.331818181818182,
                "end_time": 29.502272727272725,
                "pitch": 45,
                "velocity": 80,
                "duration": 0.1704545454545432,
                "tempo": 120.0
            },
            {
                "start_time": 29.504545454545454,
                "end_time": 29.670454545454543,
                "pitch": 45,
                "velocity": 80,
                "duration": 0.16590909090908923,
                "tempo": 120.0
            },
            {
                "start_time": 29.670454545454543,
                "end_time": 29.83863636363636,
                "pitch": 45,
                "velocity": 80,
                "duration": 0.168181818181818,
                "tempo": 120.0
            },
            {
                "start_time": 29.83863636363636,
                "end_time": 30.00681818181818,
                "pitch": 45,
                "velocity": 80,
                "duration": 0.168181818181818,
                "tempo": 120.0
            },
            {
                "start_time": 30.00681818181818,
                "end_time": 30.172727272727272,
                "pitch": 45,
                "velocity": 80,
                "duration": 0.16590909090909278,
                "tempo": 120.0
            },
            {
                "start_time": 30.174999999999997,
                "end_time": 30.345454545454544,
                "pitch": 45,
                "velocity": 80,
                "duration": 0.17045454545454675,
                "tempo": 120.0
            },
            {
                "start_time": 30.347727272727273,
                "end_time": 30.518181818181816,
                "pitch": 45,
                "velocity": 80,
                "duration": 0.1704545454545432,
                "tempo": 120.0
            },
            {
                "start_time": 30.518181818181816,
                "end_time": 30.686363636363634,
                "pitch": 43,
                "velocity": 80,
                "duration": 0.168181818181818,
                "tempo": 120.0
            },
            {
                "start_time": 30.686363636363634,
                "end_time": 30.854545454545452,
                "pitch": 43,
                "velocity": 80,
                "duration": 0.168181818181818,
                "tempo": 120.0
            },
            {
                "start_time": 30.854545454545452,
                "end_time": 31.025,
                "pitch": 43,
                "velocity": 80,
                "duration": 0.17045454545454675,
                "tempo": 120.0
            },
            {
                "start_time": 31.027272727272727,
                "end_time": 31.19772727272727,
                "pitch": 43,
                "velocity": 80,
                "duration": 0.1704545454545432,
                "tempo": 120.0
            },
            {
                "start_time": 31.19772727272727,
                "end_time": 31.36590909090909,
                "pitch": 47,
                "velocity": 80,
                "duration": 0.168181818181818,
                "tempo": 120.0
            },
            {
                "start_time": 31.36590909090909,
                "end_time": 31.534090909090907,
                "pitch": 47,
                "velocity": 80,
                "duration": 0.168181818181818,
                "tempo": 120.0
            },
            {
                "start_time": 31.534090909090907,
                "end_time": 31.702272727272724,
                "pitch": 47,
                "velocity": 80,
                "duration": 0.168181818181818,
                "tempo": 120.0
            },
            {
                "start_time": 31.702272727272724,
                "end_time": 31.868181818181817,
                "pitch": 47,
                "velocity": 80,
                "duration": 0.16590909090909278,
                "tempo": 120.0
            },
            {
                "start_time": 31.870454545454542,
                "end_time": 32.04090909090909,
                "pitch": 45,
                "velocity": 80,
                "duration": 0.17045454545454675,
                "tempo": 120.0
            },
            {
                "start_time": 32.043181818181814,
                "end_time": 32.21363636363636,
                "pitch": 45,
                "velocity": 80,
                "duration": 0.17045454545454675,
                "tempo": 120.0
            },
            {
                "start_time": 32.215909090909086,
                "end_time": 32.38181818181818,
                "pitch": 45,
                "velocity": 80,
                "duration": 0.16590909090909634,
                "tempo": 120.0
            },
            {
                "start_time": 32.38181818181818,
                "end_time": 32.55,
                "pitch": 45,
                "velocity": 80,
                "duration": 0.16818181818181444,
                "tempo": 120.0
            },
            {
                "start_time": 32.55,
                "end_time": 33.05,
                "pitch": 40,
                "velocity": 80,
                "duration": 0.5,
                "tempo": 120.0
            },
            {
                "start_time": 33.918181818181814,
                "end_time": 33.92272727272727,
                "pitch": 35,
                "velocity": 80,
                "duration": 0.004545454545457517,
                "tempo": 120.0
            }
        ]
    }
}