{
    "track_id": "22 Staff Roll",
    "mood": "happy",
    "instruments": {
        "Electric Piano 1": [
            {
                "start_time": 3.436363636363636,
                "end_time": 3.8454545454545452,
                "pitch": 72,
                "velocity": 101,
                "duration": 0.40909090909090917,
                "tempo": 120.0
            },
            {
                "start_time": 3.8454545454545452,
                "end_time": 4.1454545454545455,
                "pitch": 76,
                "velocity": 101,
                "duration": 0.30000000000000027,
                "tempo": 120.0
            },
            {
                "start_time": 4.1454545454545455,
                "end_time": 4.245454545454545,
                "pitch": 79,
                "velocity": 101,
                "duration": 0.09999999999999964,
                "tempo": 120.0
            },
            {
                "start_time": 4.245454545454545,
                "end_time": 4.85,
                "pitch": 84,
                "velocity": 101,
                "duration": 0.6045454545454545,
                "tempo": 120.0
            },
            {
                "start_time": 4.85,
                "end_time": 4.95,
                "pitch": 88,
                "velocity": 101,
                "duration": 0.10000000000000053,
                "tempo": 120.0
            },
            {
                "start_time": 4.95,
                "end_time": 5.05,
                "pitch": 86,
                "velocity": 101,
                "duration": 0.09999999999999964,
                "tempo": 120.0
            },
            {
                "start_time": 5.05,
                "end_time": 5.1499999999999995,
                "pitch": 84,
                "velocity": 101,
                "duration": 0.09999999999999964,
                "tempo": 120.0
            },
            {
                "start_time": 5.252272727272727,
                "end_time": 5.35,
                "pitch": 83,
                "velocity": 101,
                "duration": 0.09772727272727266,
                "tempo": 120.0
            },
            {
                "start_time": 5.452272727272727,
                "end_time": 5.552272727272727,
                "pitch": 81,
                "velocity": 101,
                "duration": 0.09999999999999964,
                "tempo": 120.0
            },
            {
                "start_time": 5.652272727272727,
                "end_time": 5.752272727272727,
                "pitch": 83,
                "velocity": 101,
                "duration": 0.09999999999999964,
                "tempo": 120.0
            },
            {
                "start_time": 5.8545454545454545,
                "end_time": 5.970454545454545,
                "pitch": 79,
                "velocity": 101,
                "duration": 0.1159090909090903,
                "tempo": 120.0
            },
            {
                "start_time": 5.970454545454545,
                "end_time": 6.138636363636364,
                "pitch": 79,
                "velocity": 101,
                "duration": 0.16818181818181888,
                "tempo": 120.0
            },
            {
                "start_time": 5.970454545454545,
                "end_time": 6.138636363636364,
                "pitch": 91,
                "velocity": 101,
                "duration": 0.16818181818181888,
                "tempo": 120.0
            },
            {
                "start_time": 6.138636363636364,
                "end_time": 6.306818181818182,
                "pitch": 79,
                "velocity": 101,
                "duration": 0.168181818181818,
                "tempo": 120.0
            },
            {
                "start_time": 6.138636363636364,
                "end_time": 6.306818181818182,
                "pitch": 91,
                "velocity": 101,
                "duration": 0.168181818181818,
                "tempo": 120.0
            },
            {
                "start_time": 6.306818181818182,
                "end_time": 6.459090909090909,
                "pitch": 79,
                "velocity": 101,
                "duration": 0.15227272727272734,
                "tempo": 120.0
            },
            {
                "start_time": 6.459090909090909,
                "end_time": 6.559090909090909,
                "pitch": 79,
                "velocity": 101,
                "duration": 0.09999999999999964,
                "tempo": 120.0
            },
            {
                "start_time": 6.559090909090909,
                "end_time": 6.659090909090909,
                "pitch": 79,
                "velocity": 101,
                "duration": 0.10000000000000053,
                "tempo": 120.0
            },
            {
                "start_time": 6.661363636363636,
                "end_time": 6.759090909090909,
                "pitch": 86,
                "velocity": 101,
                "duration": 0.09772727272727266,
                "tempo": 120.0
            },
            {
                "start_time": 6.8590909090909085,
                "end_time": 6.959090909090909,
                "pitch": 79,
                "velocity": 101,
                "duration": 0.10000000000000053,
                "tempo": 120.0
            },
            {
                "start_time": 6.959090909090909,
                "end_time": 7.061363636363636,
                "pitch": 79,
                "velocity": 101,
                "duration": 0.10227272727272663,
                "tempo": 120.0
            },
            {
                "start_time": 7.061363636363636,
                "end_time": 7.177272727272727,
                "pitch": 79,
                "velocity": 101,
                "duration": 0.11590909090909118,
                "tempo": 120.0
            },
            {
                "start_time": 6.306818181818182,
                "end_time": 7.177272727272727,
                "pitch": 91,
                "velocity": 101,
                "duration": 0.8704545454545451,
                "tempo": 120.0
            },
            {
                "start_time": 7.177272727272727,
                "end_time": 7.345454545454545,
                "pitch": 79,
                "velocity": 101,
                "duration": 0.168181818181818,
                "tempo": 120.0
            },
            {
                "start_time": 7.177272727272727,
                "end_time": 7.345454545454545,
                "pitch": 91,
                "velocity": 101,
                "duration": 0.168181818181818,
                "tempo": 120.0
            },
            {
                "start_time": 7.345454545454545,
                "end_time": 7.463636363636363,
                "pitch": 79,
                "velocity": 101,
                "duration": 0.11818181818181817,
                "tempo": 120.0
            },
            {
                "start_time": 7.463636363636363,
                "end_time": 7.5659090909090905,
                "pitch": 86,
                "velocity": 101,
                "duration": 0.10227272727272751,
                "tempo": 120.0
            },
            {
                "start_time": 7.668181818181818,
                "end_time": 7.7727272727272725,
                "pitch": 79,
                "velocity": 101,
                "duration": 0.1045454545454545,
                "tempo": 120.0
            },
            {
                "start_time": 7.7727272727272725,
                "end_time": 7.875,
                "pitch": 79,
                "velocity": 101,
                "duration": 0.10227272727272751,
                "tempo": 120.0
            },
            {
                "start_time": 7.875,
                "end_time": 7.988636363636363,
                "pitch": 79,
                "velocity": 101,
                "duration": 0.11363636363636331,
                "tempo": 120.0
            },
            {
                "start_time": 7.345454545454545,
                "end_time": 7.988636363636363,
                "pitch": 91,
                "velocity": 101,
                "duration": 0.6431818181818185,
                "tempo": 120.0
            },
            {
                "start_time": 7.988636363636363,
                "end_time": 8.152272727272727,
                "pitch": 79,
                "velocity": 101,
                "duration": 0.16363636363636402,
                "tempo": 120.0
            },
            {
                "start_time": 7.988636363636363,
                "end_time": 8.152272727272727,
                "pitch": 91,
                "velocity": 101,
                "duration": 0.16363636363636402,
                "tempo": 120.0
            },
            {
                "start_time": 8.152272727272727,
                "end_time": 8.268181818181818,
                "pitch": 79,
                "velocity": 101,
                "duration": 0.1159090909090903,
                "tempo": 120.0
            },
            {
                "start_time": 8.268181818181818,
                "end_time": 8.368181818181817,
                "pitch": 86,
                "velocity": 101,
                "duration": 0.09999999999999964,
                "tempo": 120.0
            },
            {
                "start_time": 8.472727272727273,
                "end_time": 8.575,
                "pitch": 86,
                "velocity": 101,
                "duration": 0.10227272727272663,
                "tempo": 120.0
            },
            {
                "start_time": 8.575,
                "end_time": 8.677272727272728,
                "pitch": 86,
                "velocity": 101,
                "duration": 0.1022727272727284,
                "tempo": 120.0
            },
            {
                "start_time": 8.679545454545455,
                "end_time": 8.775,
                "pitch": 86,
                "velocity": 101,
                "duration": 0.09545454545454568,
                "tempo": 120.0
            },
            {
                "start_time": 8.875,
                "end_time": 8.972727272727273,
                "pitch": 86,
                "velocity": 101,
                "duration": 0.09772727272727266,
                "tempo": 120.0
            },
            {
                "start_time": 9.072727272727272,
                "end_time": 9.472727272727273,
                "pitch": 87,
                "velocity": 101,
                "duration": 0.40000000000000036,
                "tempo": 120.0
            },
            {
                "start_time": 9.472727272727273,
                "end_time": 9.538636363636364,
                "pitch": 86,
                "velocity": 101,
                "duration": 0.06590909090909136,
                "tempo": 120.0
            },
            {
                "start_time": 9.884090909090908,
                "end_time": 10.275,
                "pitch": 72,
                "velocity": 101,
                "duration": 0.3909090909090924,
                "tempo": 120.0
            },
            {
                "start_time": 10.275,
                "end_time": 10.584090909090909,
                "pitch": 76,
                "velocity": 101,
                "duration": 0.30909090909090864,
                "tempo": 120.0
            },
            {
                "start_time": 10.584090909090909,
                "end_time": 10.686363636363636,
                "pitch": 79,
                "velocity": 101,
                "duration": 0.10227272727272663,
                "tempo": 120.0
            },
            {
                "start_time": 10.686363636363636,
                "end_time": 11.290909090909091,
                "pitch": 84,
                "velocity": 101,
                "duration": 0.6045454545454554,
                "tempo": 120.0
            },
            {
                "start_time": 11.290909090909091,
                "end_time": 11.39090909090909,
                "pitch": 88,
                "velocity": 101,
                "duration": 0.09999999999999964,
                "tempo": 120.0
            },
            {
                "start_time": 11.39090909090909,
                "end_time": 11.49090909090909,
                "pitch": 86,
                "velocity": 101,
                "duration": 0.09999999999999964,
                "tempo": 120.0
            },
            {
                "start_time": 11.49090909090909,
                "end_time": 11.59090909090909,
                "pitch": 84,
                "velocity": 101,
                "duration": 0.09999999999999964,
                "tempo": 120.0
            },
            {
                "start_time": 11.693181818181818,
                "end_time": 11.790909090909091,
                "pitch": 83,
                "velocity": 101,
                "duration": 0.09772727272727266,
                "tempo": 120.0
            },
            {
                "start_time": 11.893181818181818,
                "end_time": 11.993181818181817,
                "pitch": 84,
                "velocity": 101,
                "duration": 0.09999999999999964,
                "tempo": 120.0
            },
            {
                "start_time": 12.095454545454546,
                "end_time": 12.195454545454545,
                "pitch": 86,
                "velocity": 101,
                "duration": 0.09999999999999964,
                "tempo": 120.0
            },
            {
                "start_time": 12.297727272727272,
                "end_time": 12.902272727272727,
                "pitch": 88,
                "velocity": 101,
                "duration": 0.6045454545454554,
                "tempo": 120.0
            },
            {
                "start_time": 12.902272727272727,
                "end_time": 13.002272727272727,
                "pitch": 88,
                "velocity": 101,
                "duration": 0.09999999999999964,
                "tempo": 120.0
            },
            {
                "start_time": 13.002272727272727,
                "end_time": 13.102272727272727,
                "pitch": 88,
                "velocity": 101,
                "duration": 0.09999999999999964,
                "tempo": 120.0
            },
            {
                "start_time": 13.104545454545454,
                "end_time": 13.202272727272726,
                "pitch": 89,
                "velocity": 101,
                "duration": 0.09772727272727266,
                "tempo": 120.0
            },
            {
                "start_time": 13.304545454545455,
                "end_time": 13.402272727272727,
                "pitch": 81,
                "velocity": 101,
                "duration": 0.09772727272727266,
                "tempo": 120.0
            },
            {
                "start_time": 13.404545454545454,
                "end_time": 13.504545454545454,
                "pitch": 81,
                "velocity": 101,
                "duration": 0.09999999999999964,
                "tempo": 120.0
            },
            {
                "start_time": 13.504545454545454,
                "end_time": 13.906818181818181,
                "pitch": 81,
                "velocity": 101,
                "duration": 0.40227272727272734,
                "tempo": 120.0
            },
            {
                "start_time": 13.906818181818181,
                "end_time": 14.009090909090908,
                "pitch": 89,
                "velocity": 101,
                "duration": 0.10227272727272663,
                "tempo": 120.0
            },
            {
                "start_time": 14.113636363636363,
                "end_time": 14.21590909090909,
                "pitch": 81,
                "velocity": 101,
                "duration": 0.10227272727272663,
                "tempo": 120.0
            },
            {
                "start_time": 14.21590909090909,
                "end_time": 14.318181818181818,
                "pitch": 81,
                "velocity": 101,
                "duration": 0.1022727272727284,
                "tempo": 120.0
            },
            {
                "start_time": 14.318181818181818,
                "end_time": 14.711363636363636,
                "pitch": 81,
                "velocity": 101,
                "duration": 0.39318181818181763,
                "tempo": 120.0
            },
            {
                "start_time": 14.711363636363636,
                "end_time": 14.811363636363636,
                "pitch": 89,
                "velocity": 101,
                "duration": 0.09999999999999964,
                "tempo": 120.0
            },
            {
                "start_time": 14.915909090909091,
                "end_time": 15.018181818181818,
                "pitch": 89,
                "velocity": 101,
                "duration": 0.10227272727272663,
                "tempo": 120.0
            },
            {
                "start_time": 15.018181818181818,
                "end_time": 15.122727272727271,
                "pitch": 89,
                "velocity": 101,
                "duration": 0.10454545454545361,
                "tempo": 120.0
            },
            {
                "start_time": 15.122727272727271,
                "end_time": 15.218181818181817,
                "pitch": 89,
                "velocity": 101,
                "duration": 0.09545454545454568,
                "tempo": 120.0
            },
            {
                "start_time": 15.318181818181817,
                "end_time": 15.415909090909091,
                "pitch": 89,
                "velocity": 101,
                "duration": 0.09772727272727444,
                "tempo": 120.0
            },
            {
                "start_time": 15.51590909090909,
                "end_time": 15.71590909090909,
                "pitch": 90,
                "velocity": 101,
                "duration": 0.1999999999999993,
                "tempo": 120.0
            },
            {
                "start_time": 15.71590909090909,
                "end_time": 15.76590909090909,
                "pitch": 81,
                "velocity": 101,
                "duration": 0.05000000000000071,
                "tempo": 120.0
            },
            {
                "start_time": 15.918181818181818,
                "end_time": 15.968181818181817,
                "pitch": 81,
                "velocity": 101,
                "duration": 0.049999999999998934,
                "tempo": 120.0
            },
            {
                "start_time": 16.120454545454546,
                "end_time": 16.168181818181818,
                "pitch": 81,
                "velocity": 101,
                "duration": 0.04772727272727195,
                "tempo": 120.0
            },
            {
                "start_time": 45.27272727272727,
                "end_time": 45.470454545454544,
                "pitch": 72,
                "velocity": 101,
                "duration": 0.19772727272727053,
                "tempo": 120.0
            },
            {
                "start_time": 45.67272727272727,
                "end_time": 45.820454545454545,
                "pitch": 76,
                "velocity": 101,
                "duration": 0.14772727272727337,
                "tempo": 120.0
            },
            {
                "start_time": 45.97272727272727,
                "end_time": 46.02045454545454,
                "pitch": 79,
                "velocity": 101,
                "duration": 0.04772727272727195,
                "tempo": 120.0
            },
            {
                "start_time": 46.07272727272727,
                "end_time": 46.37272727272727,
                "pitch": 84,
                "velocity": 101,
                "duration": 0.29999999999999716,
                "tempo": 120.0
            },
            {
                "start_time": 46.67727272727272,
                "end_time": 46.724999999999994,
                "pitch": 88,
                "velocity": 101,
                "duration": 0.04772727272727195,
                "tempo": 120.0
            },
            {
                "start_time": 46.775,
                "end_time": 46.824999999999996,
                "pitch": 86,
                "velocity": 101,
                "duration": 0.04999999999999716,
                "tempo": 120.0
            },
            {
                "start_time": 46.877272727272725,
                "end_time": 46.925,
                "pitch": 84,
                "velocity": 101,
                "duration": 0.04772727272727195,
                "tempo": 120.0
            },
            {
                "start_time": 47.07727272727273,
                "end_time": 47.125,
                "pitch": 83,
                "velocity": 101,
                "duration": 0.04772727272727195,
                "tempo": 120.0
            },
            {
                "start_time": 47.277272727272724,
                "end_time": 47.324999999999996,
                "pitch": 81,
                "velocity": 101,
                "duration": 0.04772727272727195,
                "tempo": 120.0
            },
            {
                "start_time": 47.47727272727273,
                "end_time": 47.525,
                "pitch": 83,
                "velocity": 101,
                "duration": 0.04772727272727195,
                "tempo": 120.0
            },
            {
                "start_time": 47.67727272727272,
                "end_time": 47.793181818181814,
                "pitch": 79,
                "velocity": 101,
                "duration": 0.11590909090909207,
                "tempo": 120.0
            },
            {
                "start_time": 8.152272727272727,
                "end_time": 47.793181818181814,
                "pitch": 91,
                "velocity": 101,
                "duration": 39.64090909090909,
                "tempo": 120.0
            },
            {
                "start_time": 47.793181818181814,
                "end_time": 47.959090909090904,
                "pitch": 79,
                "velocity": 101,
                "duration": 0.16590909090908923,
                "tempo": 120.0
            },
            {
                "start_time": 47.793181818181814,
                "end_time": 47.959090909090904,
                "pitch": 91,
                "velocity": 101,
                "duration": 0.16590909090908923,
                "tempo": 120.0
            },
            {
                "start_time": 47.959090909090904,
                "end_time": 47.97727272727273,
                "pitch": 79,
                "velocity": 101,
                "duration": 0.018181818181822962,
                "tempo": 120.0
            },
            {
                "start_time": 48.27954545454545,
                "end_time": 48.32954545454545,
                "pitch": 79,
                "velocity": 101,
                "duration": 0.05000000000000426,
                "tempo": 120.0
            },
            {
                "start_time": 48.37954545454545,
                "end_time": 48.429545454545455,
                "pitch": 79,
                "velocity": 101,
                "duration": 0.05000000000000426,
                "tempo": 120.0
            },
            {
                "start_time": 48.48181818181818,
                "end_time": 48.53181818181818,
                "pitch": 86,
                "velocity": 101,
                "duration": 0.05000000000000426,
                "tempo": 120.0
            },
            {
                "start_time": 48.68636363636364,
                "end_time": 48.736363636363635,
                "pitch": 79,
                "velocity": 101,
                "duration": 0.04999999999999716,
                "tempo": 120.0
            },
            {
                "start_time": 48.788636363636364,
                "end_time": 48.83863636363636,
                "pitch": 79,
                "velocity": 101,
                "duration": 0.04999999999999716,
                "tempo": 120.0
            },
            {
                "start_time": 48.893181818181816,
                "end_time": 49.00681818181818,
                "pitch": 79,
                "velocity": 101,
                "duration": 0.11363636363636687,
                "tempo": 120.0
            },
            {
                "start_time": 47.959090909090904,
                "end_time": 49.00681818181818,
                "pitch": 91,
                "velocity": 101,
                "duration": 1.047727272727279,
                "tempo": 120.0
            },
            {
                "start_time": 49.00681818181818,
                "end_time": 49.090909090909086,
                "pitch": 79,
                "velocity": 101,
                "duration": 0.08409090909090366,
                "tempo": 120.0
            },
            {
                "start_time": 49.293181818181814,
                "end_time": 49.34318181818182,
                "pitch": 86,
                "velocity": 101,
                "duration": 0.05000000000000426,
                "tempo": 120.0
            },
            {
                "start_time": 49.49545454545454,
                "end_time": 49.543181818181814,
                "pitch": 79,
                "velocity": 101,
                "duration": 0.04772727272727195,
                "tempo": 120.0
            },
            {
                "start_time": 49.595454545454544,
                "end_time": 49.64545454545454,
                "pitch": 79,
                "velocity": 101,
                "duration": 0.04999999999999716,
                "tempo": 120.0
            },
            {
                "start_time": 49.695454545454545,
                "end_time": 49.81136363636364,
                "pitch": 79,
                "velocity": 101,
                "duration": 0.11590909090909207,
                "tempo": 120.0
            },
            {
                "start_time": 49.00681818181818,
                "end_time": 49.81136363636364,
                "pitch": 91,
                "velocity": 101,
                "duration": 0.8045454545454547,
                "tempo": 120.0
            },
            {
                "start_time": 49.81136363636364,
                "end_time": 49.89545454545454,
                "pitch": 79,
                "velocity": 101,
                "duration": 0.08409090909090366,
                "tempo": 120.0
            },
            {
                "start_time": 50.09772727272727,
                "end_time": 50.14545454545454,
                "pitch": 86,
                "velocity": 101,
                "duration": 0.04772727272727195,
                "tempo": 120.0
            },
            {
                "start_time": 50.29772727272727,
                "end_time": 50.345454545454544,
                "pitch": 86,
                "velocity": 101,
                "duration": 0.04772727272727195,
                "tempo": 120.0
            },
            {
                "start_time": 50.39772727272727,
                "end_time": 50.445454545454545,
                "pitch": 86,
                "velocity": 101,
                "duration": 0.04772727272727195,
                "tempo": 120.0
            },
            {
                "start_time": 50.49772727272727,
                "end_time": 50.54545454545454,
                "pitch": 86,
                "velocity": 101,
                "duration": 0.04772727272727195,
                "tempo": 120.0
            },
            {
                "start_time": 50.69772727272727,
                "end_time": 50.74545454545454,
                "pitch": 86,
                "velocity": 101,
                "duration": 0.04772727272727195,
                "tempo": 120.0
            },
            {
                "start_time": 50.89772727272727,
                "end_time": 51.09772727272727,
                "pitch": 87,
                "velocity": 101,
                "duration": 0.19999999999999574,
                "tempo": 120.0
            },
            {
                "start_time": 51.29772727272727,
                "end_time": 51.33181818181818,
                "pitch": 86,
                "velocity": 101,
                "duration": 0.03409090909090651,
                "tempo": 120.0
            },
            {
                "start_time": 51.70227272727273,
                "end_time": 51.9,
                "pitch": 72,
                "velocity": 101,
                "duration": 0.19772727272727053,
                "tempo": 120.0
            },
            {
                "start_time": 52.10227272727273,
                "end_time": 52.25,
                "pitch": 76,
                "velocity": 101,
                "duration": 0.14772727272727337,
                "tempo": 120.0
            },
            {
                "start_time": 52.402272727272724,
                "end_time": 52.45227272727273,
                "pitch": 79,
                "velocity": 101,
                "duration": 0.05000000000000426,
                "tempo": 120.0
            },
            {
                "start_time": 52.502272727272725,
                "end_time": 52.80227272727272,
                "pitch": 84,
                "velocity": 101,
                "duration": 0.29999999999999716,
                "tempo": 120.0
            },
            {
                "start_time": 53.10454545454545,
                "end_time": 53.152272727272724,
                "pitch": 88,
                "velocity": 101,
                "duration": 0.04772727272727195,
                "tempo": 120.0
            },
            {
                "start_time": 53.20227272727273,
                "end_time": 53.252272727272725,
                "pitch": 86,
                "velocity": 101,
                "duration": 0.04999999999999716,
                "tempo": 120.0
            },
            {
                "start_time": 53.304545454545455,
                "end_time": 53.35227272727273,
                "pitch": 84,
                "velocity": 101,
                "duration": 0.04772727272727195,
                "tempo": 120.0
            },
            {
                "start_time": 53.50454545454545,
                "end_time": 53.554545454545455,
                "pitch": 83,
                "velocity": 101,
                "duration": 0.05000000000000426,
                "tempo": 120.0
            },
            {
                "start_time": 53.70681818181818,
                "end_time": 53.75454545454545,
                "pitch": 84,
                "velocity": 101,
                "duration": 0.04772727272727195,
                "tempo": 120.0
            },
            {
                "start_time": 53.90681818181818,
                "end_time": 53.95681818181818,
                "pitch": 86,
                "velocity": 101,
                "duration": 0.04999999999999716,
                "tempo": 120.0
            },
            {
                "start_time": 54.10681818181818,
                "end_time": 54.40681818181818,
                "pitch": 88,
                "velocity": 101,
                "duration": 0.30000000000000426,
                "tempo": 120.0
            },
            {
                "start_time": 54.709090909090904,
                "end_time": 54.756818181818176,
                "pitch": 88,
                "velocity": 101,
                "duration": 0.04772727272727195,
                "tempo": 120.0
            },
            {
                "start_time": 54.809090909090905,
                "end_time": 54.85681818181818,
                "pitch": 88,
                "velocity": 101,
                "duration": 0.04772727272727195,
                "tempo": 120.0
            },
            {
                "start_time": 54.90909090909091,
                "end_time": 54.95681818181818,
                "pitch": 89,
                "velocity": 101,
                "duration": 0.04772727272727195,
                "tempo": 120.0
            },
            {
                "start_time": 55.10909090909091,
                "end_time": 55.15681818181818,
                "pitch": 81,
                "velocity": 101,
                "duration": 0.04772727272727195,
                "tempo": 120.0
            },
            {
                "start_time": 55.209090909090904,
                "end_time": 55.256818181818176,
                "pitch": 81,
                "velocity": 101,
                "duration": 0.04772727272727195,
                "tempo": 120.0
            },
            {
                "start_time": 55.309090909090905,
                "end_time": 55.50909090909091,
                "pitch": 81,
                "velocity": 101,
                "duration": 0.20000000000000284,
                "tempo": 120.0
            },
            {
                "start_time": 55.71363636363636,
                "end_time": 55.76136363636363,
                "pitch": 89,
                "velocity": 101,
                "duration": 0.04772727272727195,
                "tempo": 120.0
            },
            {
                "start_time": 55.918181818181814,
                "end_time": 55.96818181818182,
                "pitch": 81,
                "velocity": 101,
                "duration": 0.05000000000000426,
                "tempo": 120.0
            },
            {
                "start_time": 56.02045454545454,
                "end_time": 56.070454545454545,
                "pitch": 81,
                "velocity": 101,
                "duration": 0.05000000000000426,
                "tempo": 120.0
            },
            {
                "start_time": 56.12272727272727,
                "end_time": 56.32272727272727,
                "pitch": 81,
                "velocity": 101,
                "duration": 0.20000000000000284,
                "tempo": 120.0
            },
            {
                "start_time": 56.525,
                "end_time": 56.57272727272727,
                "pitch": 89,
                "velocity": 101,
                "duration": 0.04772727272727195,
                "tempo": 120.0
            },
            {
                "start_time": 56.724999999999994,
                "end_time": 56.77272727272727,
                "pitch": 89,
                "velocity": 101,
                "duration": 0.04772727272727906,
                "tempo": 120.0
            },
            {
                "start_time": 56.824999999999996,
                "end_time": 56.87272727272727,
                "pitch": 89,
                "velocity": 101,
                "duration": 0.04772727272727195,
                "tempo": 120.0
            },
            {
                "start_time": 56.925,
                "end_time": 56.97272727272727,
                "pitch": 89,
                "velocity": 101,
                "duration": 0.04772727272727195,
                "tempo": 120.0
            },
            {
                "start_time": 57.125,
                "end_time": 57.175,
                "pitch": 89,
                "velocity": 101,
                "duration": 0.04999999999999716,
                "tempo": 120.0
            },
            {
                "start_time": 57.32727272727272,
                "end_time": 57.42727272727272,
                "pitch": 90,
                "velocity": 101,
                "duration": 0.10000000000000142,
                "tempo": 120.0
            }
        ],
        "Acoustic Grand Piano": [
            {
                "start_time": 3.434090909090909,
                "end_time": 3.8454545454545452,
                "pitch": 60,
                "velocity": 51,
                "duration": 0.41136363636363615,
                "tempo": 120.0
            },
            {
                "start_time": 3.8454545454545452,
                "end_time": 4.1454545454545455,
                "pitch": 64,
                "velocity": 51,
                "duration": 0.30000000000000027,
                "tempo": 120.0
            },
            {
                "start_time": 4.1454545454545455,
                "end_time": 4.245454545454545,
                "pitch": 67,
                "velocity": 51,
                "duration": 0.09999999999999964,
                "tempo": 120.0
            },
            {
                "start_time": 4.245454545454545,
                "end_time": 4.847727272727273,
                "pitch": 72,
                "velocity": 51,
                "duration": 0.6022727272727275,
                "tempo": 120.0
            },
            {
                "start_time": 4.85,
                "end_time": 4.947727272727272,
                "pitch": 76,
                "velocity": 51,
                "duration": 0.09772727272727266,
                "tempo": 120.0
            },
            {
                "start_time": 4.95,
                "end_time": 5.047727272727273,
                "pitch": 74,
                "velocity": 51,
                "duration": 0.09772727272727266,
                "tempo": 120.0
            },
            {
                "start_time": 5.05,
                "end_time": 5.1499999999999995,
                "pitch": 72,
                "velocity": 51,
                "duration": 0.09999999999999964,
                "tempo": 120.0
            },
            {
                "start_time": 5.25,
                "end_time": 5.35,
                "pitch": 71,
                "velocity": 51,
                "duration": 0.09999999999999964,
                "tempo": 120.0
            },
            {
                "start_time": 5.452272727272727,
                "end_time": 5.552272727272727,
                "pitch": 69,
                "velocity": 51,
                "duration": 0.09999999999999964,
                "tempo": 120.0
            },
            {
                "start_time": 5.652272727272727,
                "end_time": 5.752272727272727,
                "pitch": 71,
                "velocity": 51,
                "duration": 0.09999999999999964,
                "tempo": 120.0
            },
            {
                "start_time": 5.852272727272727,
                "end_time": 5.970454545454545,
                "pitch": 67,
                "velocity": 51,
                "duration": 0.11818181818181817,
                "tempo": 120.0
            },
            {
                "start_time": 5.970454545454545,
                "end_time": 6.138636363636364,
                "pitch": 67,
                "velocity": 51,
                "duration": 0.16818181818181888,
                "tempo": 120.0
            },
            {
                "start_time": 5.970454545454545,
                "end_time": 6.138636363636364,
                "pitch": 79,
                "velocity": 51,
                "duration": 0.16818181818181888,
                "tempo": 120.0
            },
            {
                "start_time": 6.138636363636364,
                "end_time": 6.306818181818182,
                "pitch": 67,
                "velocity": 51,
                "duration": 0.168181818181818,
                "tempo": 120.0
            },
            {
                "start_time": 6.138636363636364,
                "end_time": 6.306818181818182,
                "pitch": 79,
                "velocity": 51,
                "duration": 0.168181818181818,
                "tempo": 120.0
            },
            {
                "start_time": 6.306818181818182,
                "end_time": 6.456818181818181,
                "pitch": 67,
                "velocity": 51,
                "duration": 0.14999999999999947,
                "tempo": 120.0
            },
            {
                "start_time": 6.456818181818181,
                "end_time": 6.559090909090909,
                "pitch": 67,
                "velocity": 51,
                "duration": 0.10227272727272751,
                "tempo": 120.0
            },
            {
                "start_time": 6.559090909090909,
                "end_time": 6.659090909090909,
                "pitch": 67,
                "velocity": 51,
                "duration": 0.10000000000000053,
                "tempo": 120.0
            },
            {
                "start_time": 6.659090909090909,
                "end_time": 6.759090909090909,
                "pitch": 74,
                "velocity": 51,
                "duration": 0.09999999999999964,
                "tempo": 120.0
            },
            {
                "start_time": 6.8590909090909085,
                "end_time": 6.959090909090909,
                "pitch": 67,
                "velocity": 51,
                "duration": 0.10000000000000053,
                "tempo": 120.0
            },
            {
                "start_time": 6.959090909090909,
                "end_time": 7.059090909090909,
                "pitch": 67,
                "velocity": 51,
                "duration": 0.09999999999999964,
                "tempo": 120.0
            },
            {
                "start_time": 7.059090909090909,
                "end_time": 7.177272727272727,
                "pitch": 67,
                "velocity": 51,
                "duration": 0.11818181818181817,
                "tempo": 120.0
            },
            {
                "start_time": 6.306818181818182,
                "end_time": 7.177272727272727,
                "pitch": 79,
                "velocity": 51,
                "duration": 0.8704545454545451,
                "tempo": 120.0
            },
            {
                "start_time": 7.177272727272727,
                "end_time": 7.345454545454545,
                "pitch": 67,
                "velocity": 51,
                "duration": 0.168181818181818,
                "tempo": 120.0
            },
            {
                "start_time": 7.177272727272727,
                "end_time": 7.345454545454545,
                "pitch": 79,
                "velocity": 51,
                "duration": 0.168181818181818,
                "tempo": 120.0
            },
            {
                "start_time": 7.345454545454545,
                "end_time": 7.463636363636363,
                "pitch": 67,
                "velocity": 51,
                "duration": 0.11818181818181817,
                "tempo": 120.0
            },
            {
                "start_time": 7.463636363636363,
                "end_time": 7.5659090909090905,
                "pitch": 74,
                "velocity": 51,
                "duration": 0.10227272727272751,
                "tempo": 120.0
            },
            {
                "start_time": 7.668181818181818,
                "end_time": 7.7704545454545455,
                "pitch": 67,
                "velocity": 51,
                "duration": 0.10227272727272751,
                "tempo": 120.0
            },
            {
                "start_time": 7.7704545454545455,
                "end_time": 7.875,
                "pitch": 67,
                "velocity": 51,
                "duration": 0.1045454545454545,
                "tempo": 120.0
            },
            {
                "start_time": 7.875,
                "end_time": 7.988636363636363,
                "pitch": 67,
                "velocity": 51,
                "duration": 0.11363636363636331,
                "tempo": 120.0
            },
            {
                "start_time": 7.345454545454545,
                "end_time": 7.988636363636363,
                "pitch": 79,
                "velocity": 51,
                "duration": 0.6431818181818185,
                "tempo": 120.0
            },
            {
                "start_time": 7.988636363636363,
                "end_time": 8.152272727272727,
                "pitch": 67,
                "velocity": 51,
                "duration": 0.16363636363636402,
                "tempo": 120.0
            },
            {
                "start_time": 7.988636363636363,
                "end_time": 8.152272727272727,
                "pitch": 79,
                "velocity": 51,
                "duration": 0.16363636363636402,
                "tempo": 120.0
            },
            {
                "start_time": 8.152272727272727,
                "end_time": 8.26590909090909,
                "pitch": 67,
                "velocity": 51,
                "duration": 0.11363636363636331,
                "tempo": 120.0
            },
            {
                "start_time": 8.268181818181818,
                "end_time": 8.368181818181817,
                "pitch": 74,
                "velocity": 51,
                "duration": 0.09999999999999964,
                "tempo": 120.0
            },
            {
                "start_time": 8.472727272727273,
                "end_time": 8.575,
                "pitch": 74,
                "velocity": 51,
                "duration": 0.10227272727272663,
                "tempo": 120.0
            },
            {
                "start_time": 8.575,
                "end_time": 8.677272727272728,
                "pitch": 74,
                "velocity": 51,
                "duration": 0.1022727272727284,
                "tempo": 120.0
            },
            {
                "start_time": 8.677272727272728,
                "end_time": 8.775,
                "pitch": 74,
                "velocity": 51,
                "duration": 0.09772727272727266,
                "tempo": 120.0
            },
            {
                "start_time": 8.875,
                "end_time": 8.972727272727273,
                "pitch": 74,
                "velocity": 51,
                "duration": 0.09772727272727266,
                "tempo": 120.0
            },
            {
                "start_time": 9.070454545454545,
                "end_time": 9.470454545454546,
                "pitch": 75,
                "velocity": 51,
                "duration": 0.40000000000000036,
                "tempo": 120.0
            },
            {
                "start_time": 9.470454545454546,
                "end_time": 9.538636363636364,
                "pitch": 74,
                "velocity": 51,
                "duration": 0.06818181818181834,
                "tempo": 120.0
            },
            {
                "start_time": 9.884090909090908,
                "end_time": 10.275,
                "pitch": 60,
                "velocity": 51,
                "duration": 0.3909090909090924,
                "tempo": 120.0
            },
            {
                "start_time": 10.275,
                "end_time": 10.584090909090909,
                "pitch": 64,
                "velocity": 51,
                "duration": 0.30909090909090864,
                "tempo": 120.0
            },
            {
                "start_time": 10.584090909090909,
                "end_time": 10.686363636363636,
                "pitch": 67,
                "velocity": 51,
                "duration": 0.10227272727272663,
                "tempo": 120.0
            },
            {
                "start_time": 10.686363636363636,
                "end_time": 11.288636363636362,
                "pitch": 72,
                "velocity": 51,
                "duration": 0.6022727272727266,
                "tempo": 120.0
            },
            {
                "start_time": 11.290909090909091,
                "end_time": 11.388636363636364,
                "pitch": 76,
                "velocity": 51,
                "duration": 0.09772727272727266,
                "tempo": 120.0
            },
            {
                "start_time": 11.39090909090909,
                "end_time": 11.488636363636363,
                "pitch": 74,
                "velocity": 51,
                "duration": 0.09772727272727266,
                "tempo": 120.0
            },
            {
                "start_time": 11.49090909090909,
                "end_time": 11.59090909090909,
                "pitch": 72,
                "velocity": 51,
                "duration": 0.09999999999999964,
                "tempo": 120.0
            },
            {
                "start_time": 11.69090909090909,
                "end_time": 11.790909090909091,
                "pitch": 71,
                "velocity": 51,
                "duration": 0.10000000000000142,
                "tempo": 120.0
            },
            {
                "start_time": 11.893181818181818,
                "end_time": 11.993181818181817,
                "pitch": 72,
                "velocity": 51,
                "duration": 0.09999999999999964,
                "tempo": 120.0
            },
            {
                "start_time": 12.095454545454546,
                "end_time": 12.195454545454545,
                "pitch": 74,
                "velocity": 51,
                "duration": 0.09999999999999964,
                "tempo": 120.0
            },
            {
                "start_time": 12.295454545454545,
                "end_time": 12.899999999999999,
                "pitch": 76,
                "velocity": 51,
                "duration": 0.6045454545454536,
                "tempo": 120.0
            },
            {
                "start_time": 12.902272727272727,
                "end_time": 13.002272727272727,
                "pitch": 76,
                "velocity": 51,
                "duration": 0.09999999999999964,
                "tempo": 120.0
            },
            {
                "start_time": 13.002272727272727,
                "end_time": 13.102272727272727,
                "pitch": 76,
                "velocity": 51,
                "duration": 0.09999999999999964,
                "tempo": 120.0
            },
            {
                "start_time": 13.102272727272727,
                "end_time": 13.202272727272726,
                "pitch": 77,
                "velocity": 51,
                "duration": 0.09999999999999964,
                "tempo": 120.0
            },
            {
                "start_time": 13.302272727272726,
                "end_time": 13.402272727272727,
                "pitch": 69,
                "velocity": 51,
                "duration": 0.10000000000000142,
                "tempo": 120.0
            },
            {
                "start_time": 13.402272727272727,
                "end_time": 13.502272727272727,
                "pitch": 69,
                "velocity": 51,
                "duration": 0.09999999999999964,
                "tempo": 120.0
            },
            {
                "start_time": 13.504545454545454,
                "end_time": 13.906818181818181,
                "pitch": 69,
                "velocity": 51,
                "duration": 0.40227272727272734,
                "tempo": 120.0
            },
            {
                "start_time": 13.906818181818181,
                "end_time": 14.009090909090908,
                "pitch": 77,
                "velocity": 51,
                "duration": 0.10227272727272663,
                "tempo": 120.0
            },
            {
                "start_time": 14.111363636363636,
                "end_time": 14.213636363636363,
                "pitch": 69,
                "velocity": 51,
                "duration": 0.10227272727272663,
                "tempo": 120.0
            },
            {
                "start_time": 14.213636363636363,
                "end_time": 14.318181818181818,
                "pitch": 69,
                "velocity": 51,
                "duration": 0.10454545454545539,
                "tempo": 120.0
            },
            {
                "start_time": 14.318181818181818,
                "end_time": 14.711363636363636,
                "pitch": 69,
                "velocity": 51,
                "duration": 0.39318181818181763,
                "tempo": 120.0
            },
            {
                "start_time": 14.711363636363636,
                "end_time": 14.811363636363636,
                "pitch": 77,
                "velocity": 51,
                "duration": 0.09999999999999964,
                "tempo": 120.0
            },
            {
                "start_time": 14.915909090909091,
                "end_time": 15.018181818181818,
                "pitch": 77,
                "velocity": 51,
                "duration": 0.10227272727272663,
                "tempo": 120.0
            },
            {
                "start_time": 15.018181818181818,
                "end_time": 15.120454545454544,
                "pitch": 77,
                "velocity": 51,
                "duration": 0.10227272727272663,
                "tempo": 120.0
            },
            {
                "start_time": 15.120454545454544,
                "end_time": 15.218181818181817,
                "pitch": 77,
                "velocity": 51,
                "duration": 0.09772727272727266,
                "tempo": 120.0
            },
            {
                "start_time": 15.318181818181817,
                "end_time": 15.415909090909091,
                "pitch": 77,
                "velocity": 51,
                "duration": 0.09772727272727444,
                "tempo": 120.0
            },
            {
                "start_time": 15.513636363636364,
                "end_time": 15.71590909090909,
                "pitch": 78,
                "velocity": 51,
                "duration": 0.20227272727272627,
                "tempo": 120.0
            },
            {
                "start_time": 15.71590909090909,
                "end_time": 15.799999999999999,
                "pitch": 69,
                "velocity": 51,
                "duration": 0.084090909090909,
                "tempo": 120.0
            },
            {
                "start_time": 15.918181818181818,
                "end_time": 16.0,
                "pitch": 69,
                "velocity": 51,
                "duration": 0.08181818181818201,
                "tempo": 120.0
            },
            {
                "start_time": 16.118181818181817,
                "end_time": 16.202272727272728,
                "pitch": 69,
                "velocity": 51,
                "duration": 0.08409090909091077,
                "tempo": 120.0
            },
            {
                "start_time": 16.32272727272727,
                "end_time": 16.922727272727272,
                "pitch": 72,
                "velocity": 51,
                "duration": 0.6000000000000014,
                "tempo": 120.0
            },
            {
                "start_time": 16.922727272727272,
                "end_time": 17.125,
                "pitch": 72,
                "velocity": 51,
                "duration": 0.20227272727272805,
                "tempo": 120.0
            },
            {
                "start_time": 17.125,
                "end_time": 17.727272727272727,
                "pitch": 71,
                "velocity": 51,
                "duration": 0.6022727272727266,
                "tempo": 120.0
            },
            {
                "start_time": 17.727272727272727,
                "end_time": 17.927272727272726,
                "pitch": 71,
                "velocity": 51,
                "duration": 0.1999999999999993,
                "tempo": 120.0
            },
            {
                "start_time": 17.927272727272726,
                "end_time": 18.529545454545453,
                "pitch": 69,
                "velocity": 51,
                "duration": 0.6022727272727266,
                "tempo": 120.0
            },
            {
                "start_time": 18.529545454545453,
                "end_time": 18.729545454545455,
                "pitch": 69,
                "velocity": 51,
                "duration": 0.20000000000000284,
                "tempo": 120.0
            },
            {
                "start_time": 18.729545454545455,
                "end_time": 19.14090909090909,
                "pitch": 71,
                "velocity": 51,
                "duration": 0.41136363636363527,
                "tempo": 120.0
            },
            {
                "start_time": 19.14090909090909,
                "end_time": 19.543181818181818,
                "pitch": 72,
                "velocity": 51,
                "duration": 0.40227272727272734,
                "tempo": 120.0
            },
            {
                "start_time": 19.543181818181818,
                "end_time": 19.65681818181818,
                "pitch": 67,
                "velocity": 51,
                "duration": 0.11363636363636331,
                "tempo": 120.0
            },
            {
                "start_time": 8.152272727272727,
                "end_time": 19.65681818181818,
                "pitch": 79,
                "velocity": 51,
                "duration": 11.504545454545454,
                "tempo": 120.0
            },
            {
                "start_time": 19.65681818181818,
                "end_time": 19.820454545454545,
                "pitch": 67,
                "velocity": 51,
                "duration": 0.16363636363636402,
                "tempo": 120.0
            },
            {
                "start_time": 19.65681818181818,
                "end_time": 19.820454545454545,
                "pitch": 79,
                "velocity": 51,
                "duration": 0.16363636363636402,
                "tempo": 120.0
            },
            {
                "start_time": 19.820454545454545,
                "end_time": 19.986363636363635,
                "pitch": 67,
                "velocity": 51,
                "duration": 0.16590909090908923,
                "tempo": 120.0
            },
            {
                "start_time": 19.820454545454545,
                "end_time": 19.986363636363635,
                "pitch": 79,
                "velocity": 51,
                "duration": 0.16590909090908923,
                "tempo": 120.0
            },
            {
                "start_time": 19.986363636363635,
                "end_time": 20.152272727272727,
                "pitch": 67,
                "velocity": 51,
                "duration": 0.16590909090909278,
                "tempo": 120.0
            },
            {
                "start_time": 19.986363636363635,
                "end_time": 20.152272727272727,
                "pitch": 79,
                "velocity": 51,
                "duration": 0.16590909090909278,
                "tempo": 120.0
            },
            {
                "start_time": 20.152272727272727,
                "end_time": 20.320454545454545,
                "pitch": 67,
                "velocity": 51,
                "duration": 0.168181818181818,
                "tempo": 120.0
            },
            {
                "start_time": 20.152272727272727,
                "end_time": 20.320454545454545,
                "pitch": 79,
                "velocity": 51,
                "duration": 0.168181818181818,
                "tempo": 120.0
            },
            {
                "start_time": 20.320454545454545,
                "end_time": 20.486363636363635,
                "pitch": 67,
                "velocity": 51,
                "duration": 0.16590909090908923,
                "tempo": 120.0
            },
            {
                "start_time": 20.320454545454545,
                "end_time": 20.486363636363635,
                "pitch": 79,
                "velocity": 51,
                "duration": 0.16590909090908923,
                "tempo": 120.0
            },
            {
                "start_time": 20.486363636363635,
                "end_time": 20.652272727272727,
                "pitch": 67,
                "velocity": 51,
                "duration": 0.16590909090909278,
                "tempo": 120.0
            },
            {
                "start_time": 20.486363636363635,
                "end_time": 20.652272727272727,
                "pitch": 79,
                "velocity": 51,
                "duration": 0.16590909090909278,
                "tempo": 120.0
            },
            {
                "start_time": 20.652272727272727,
                "end_time": 20.736363636363635,
                "pitch": 67,
                "velocity": 51,
                "duration": 0.08409090909090722,
                "tempo": 120.0
            },
            {
                "start_time": 20.738636363636363,
                "end_time": 21.147727272727273,
                "pitch": 74,
                "velocity": 51,
                "duration": 0.40909090909091006,
                "tempo": 120.0
            },
            {
                "start_time": 21.15,
                "end_time": 21.552272727272726,
                "pitch": 74,
                "velocity": 51,
                "duration": 0.40227272727272734,
                "tempo": 120.0
            },
            {
                "start_time": 21.552272727272726,
                "end_time": 21.752272727272725,
                "pitch": 71,
                "velocity": 51,
                "duration": 0.1999999999999993,
                "tempo": 120.0
            },
            {
                "start_time": 21.752272727272725,
                "end_time": 21.868181818181817,
                "pitch": 67,
                "velocity": 51,
                "duration": 0.11590909090909207,
                "tempo": 120.0
            },
            {
                "start_time": 20.652272727272727,
                "end_time": 21.868181818181817,
                "pitch": 79,
                "velocity": 51,
                "duration": 1.21590909090909,
                "tempo": 120.0
            },
            {
                "start_time": 21.868181818181817,
                "end_time": 22.036363636363635,
                "pitch": 67,
                "velocity": 51,
                "duration": 0.168181818181818,
                "tempo": 120.0
            },
            {
                "start_time": 21.868181818181817,
                "end_time": 22.036363636363635,
                "pitch": 79,
                "velocity": 51,
                "duration": 0.168181818181818,
                "tempo": 120.0
            },
            {
                "start_time": 22.036363636363635,
                "end_time": 22.154545454545453,
                "pitch": 67,
                "velocity": 51,
                "duration": 0.11818181818181728,
                "tempo": 120.0
            },
            {
                "start_time": 22.154545454545453,
                "end_time": 22.270454545454545,
                "pitch": 67,
                "velocity": 51,
                "duration": 0.11590909090909207,
                "tempo": 120.0
            },
            {
                "start_time": 22.036363636363635,
                "end_time": 22.270454545454545,
                "pitch": 79,
                "velocity": 51,
                "duration": 0.23409090909090935,
                "tempo": 120.0
            },
            {
                "start_time": 22.270454545454545,
                "end_time": 22.35681818181818,
                "pitch": 67,
                "velocity": 51,
                "duration": 0.08636363636363598,
                "tempo": 120.0
            },
            {
                "start_time": 22.35681818181818,
                "end_time": 22.472727272727273,
                "pitch": 67,
                "velocity": 51,
                "duration": 0.11590909090909207,
                "tempo": 120.0
            },
            {
                "start_time": 22.270454545454545,
                "end_time": 22.472727272727273,
                "pitch": 79,
                "velocity": 51,
                "duration": 0.20227272727272805,
                "tempo": 120.0
            },
            {
                "start_time": 22.472727272727273,
                "end_time": 22.55681818181818,
                "pitch": 67,
                "velocity": 51,
                "duration": 0.08409090909090722,
                "tempo": 120.0
            },
            {
                "start_time": 22.55681818181818,
                "end_time": 22.672727272727272,
                "pitch": 67,
                "velocity": 51,
                "duration": 0.11590909090909207,
                "tempo": 120.0
            },
            {
                "start_time": 22.472727272727273,
                "end_time": 22.672727272727272,
                "pitch": 79,
                "velocity": 51,
                "duration": 0.1999999999999993,
                "tempo": 120.0
            },
            {
                "start_time": 22.672727272727272,
                "end_time": 22.75681818181818,
                "pitch": 67,
                "velocity": 51,
                "duration": 0.08409090909090722,
                "tempo": 120.0
            },
            {
                "start_time": 22.75681818181818,
                "end_time": 23.15681818181818,
                "pitch": 76,
                "velocity": 51,
                "duration": 0.40000000000000213,
                "tempo": 120.0
            },
            {
                "start_time": 23.15681818181818,
                "end_time": 23.35909090909091,
                "pitch": 74,
                "velocity": 51,
                "duration": 0.20227272727272805,
                "tempo": 120.0
            },
            {
                "start_time": 23.35909090909091,
                "end_time": 23.759090909090908,
                "pitch": 72,
                "velocity": 51,
                "duration": 0.3999999999999986,
                "tempo": 120.0
            },
            {
                "start_time": 23.761363636363637,
                "end_time": 23.961363636363636,
                "pitch": 72,
                "velocity": 51,
                "duration": 0.1999999999999993,
                "tempo": 120.0
            },
            {
                "start_time": 23.961363636363636,
                "end_time": 24.161363636363635,
                "pitch": 72,
                "velocity": 51,
                "duration": 0.1999999999999993,
                "tempo": 120.0
            },
            {
                "start_time": 24.161363636363635,
                "end_time": 24.363636363636363,
                "pitch": 72,
                "velocity": 51,
                "duration": 0.20227272727272805,
                "tempo": 120.0
            },
            {
                "start_time": 24.363636363636363,
                "end_time": 24.563636363636363,
                "pitch": 71,
                "velocity": 51,
                "duration": 0.1999999999999993,
                "tempo": 120.0
            },
            {
                "start_time": 24.563636363636363,
                "end_time": 24.763636363636362,
                "pitch": 72,
                "velocity": 51,
                "duration": 0.1999999999999993,
                "tempo": 120.0
            },
            {
                "start_time": 24.763636363636362,
                "end_time": 24.96363636363636,
                "pitch": 71,
                "velocity": 51,
                "duration": 0.1999999999999993,
                "tempo": 120.0
            },
            {
                "start_time": 24.96590909090909,
                "end_time": 25.36590909090909,
                "pitch": 69,
                "velocity": 51,
                "duration": 0.3999999999999986,
                "tempo": 120.0
            },
            {
                "start_time": 25.36590909090909,
                "end_time": 25.568181818181817,
                "pitch": 69,
                "velocity": 51,
                "duration": 0.20227272727272805,
                "tempo": 120.0
            },
            {
                "start_time": 25.568181818181817,
                "end_time": 25.77272727272727,
                "pitch": 69,
                "velocity": 51,
                "duration": 0.20454545454545325,
                "tempo": 120.0
            },
            {
                "start_time": 25.77272727272727,
                "end_time": 25.979545454545452,
                "pitch": 69,
                "velocity": 51,
                "duration": 0.206818181818182,
                "tempo": 120.0
            },
            {
                "start_time": 25.979545454545452,
                "end_time": 26.179545454545455,
                "pitch": 74,
                "velocity": 51,
                "duration": 0.20000000000000284,
                "tempo": 120.0
            },
            {
                "start_time": 26.179545454545455,
                "end_time": 26.279545454545453,
                "pitch": 67,
                "velocity": 51,
                "duration": 0.09999999999999787,
                "tempo": 120.0
            },
            {
                "start_time": 26.279545454545453,
                "end_time": 26.379545454545454,
                "pitch": 67,
                "velocity": 51,
                "duration": 0.10000000000000142,
                "tempo": 120.0
            },
            {
                "start_time": 26.379545454545454,
                "end_time": 26.49772727272727,
                "pitch": 67,
                "velocity": 51,
                "duration": 0.11818181818181728,
                "tempo": 120.0
            },
            {
                "start_time": 22.672727272727272,
                "end_time": 26.49772727272727,
                "pitch": 79,
                "velocity": 51,
                "duration": 3.8249999999999993,
                "tempo": 120.0
            },
            {
                "start_time": 26.49772727272727,
                "end_time": 26.663636363636364,
                "pitch": 67,
                "velocity": 51,
                "duration": 0.16590909090909278,
                "tempo": 120.0
            },
            {
                "start_time": 26.49772727272727,
                "end_time": 26.66590909090909,
                "pitch": 79,
                "velocity": 51,
                "duration": 0.168181818181818,
                "tempo": 120.0
            },
            {
                "start_time": 26.663636363636364,
                "end_time": 26.66590909090909,
                "pitch": 79,
                "velocity": 51,
                "duration": 0.0022727272727252057,
                "tempo": 120.0
            },
            {
                "start_time": 26.66590909090909,
                "end_time": 26.784090909090907,
                "pitch": 67,
                "velocity": 51,
                "duration": 0.11818181818181728,
                "tempo": 120.0
            },
            {
                "start_time": 26.784090909090907,
                "end_time": 26.988636363636363,
                "pitch": 74,
                "velocity": 51,
                "duration": 0.2045454545454568,
                "tempo": 120.0
            },
            {
                "start_time": 26.988636363636363,
                "end_time": 27.09090909090909,
                "pitch": 67,
                "velocity": 51,
                "duration": 0.10227272727272663,
                "tempo": 120.0
            },
            {
                "start_time": 27.09090909090909,
                "end_time": 27.195454545454545,
                "pitch": 67,
                "velocity": 51,
                "duration": 0.10454545454545539,
                "tempo": 120.0
            },
            {
                "start_time": 27.195454545454545,
                "end_time": 27.30909090909091,
                "pitch": 67,
                "velocity": 51,
                "duration": 0.11363636363636331,
                "tempo": 120.0
            },
            {
                "start_time": 27.30909090909091,
                "end_time": 27.472727272727273,
                "pitch": 67,
                "velocity": 51,
                "duration": 0.16363636363636402,
                "tempo": 120.0
            },
            {
                "start_time": 27.30909090909091,
                "end_time": 27.472727272727273,
                "pitch": 79,
                "velocity": 51,
                "duration": 0.16363636363636402,
                "tempo": 120.0
            },
            {
                "start_time": 27.472727272727273,
                "end_time": 27.586363636363636,
                "pitch": 67,
                "velocity": 51,
                "duration": 0.11363636363636331,
                "tempo": 120.0
            },
            {
                "start_time": 27.58863636363636,
                "end_time": 27.688636363636363,
                "pitch": 67,
                "velocity": 51,
                "duration": 0.10000000000000142,
                "tempo": 120.0
            },
            {
                "start_time": 27.793181818181818,
                "end_time": 27.895454545454545,
                "pitch": 67,
                "velocity": 51,
                "duration": 0.10227272727272663,
                "tempo": 120.0
            },
            {
                "start_time": 27.99772727272727,
                "end_time": 28.095454545454544,
                "pitch": 69,
                "velocity": 51,
                "duration": 0.09772727272727266,
                "tempo": 120.0
            },
            {
                "start_time": 28.195454545454545,
                "end_time": 28.293181818181818,
                "pitch": 71,
                "velocity": 51,
                "duration": 0.09772727272727266,
                "tempo": 120.0
            },
            {
                "start_time": 28.39090909090909,
                "end_time": 28.49090909090909,
                "pitch": 72,
                "velocity": 51,
                "duration": 0.09999999999999787,
                "tempo": 120.0
            },
            {
                "start_time": 28.593181818181815,
                "end_time": 28.693181818181817,
                "pitch": 67,
                "velocity": 51,
                "duration": 0.10000000000000142,
                "tempo": 120.0
            },
            {
                "start_time": 28.795454545454543,
                "end_time": 28.893181818181816,
                "pitch": 72,
                "velocity": 51,
                "duration": 0.09772727272727266,
                "tempo": 120.0
            }
        ],
        "Acoustic Guitar (nylon)": [
            {
                "start_time": 29.195454545454545,
                "end_time": 29.243181818181817,
                "pitch": 71,
                "velocity": 80,
                "duration": 0.04772727272727195,
                "tempo": 120.0
            },
            {
                "start_time": 29.243181818181817,
                "end_time": 29.293181818181818,
                "pitch": 72,
                "velocity": 80,
                "duration": 0.05000000000000071,
                "tempo": 120.0
            },
            {
                "start_time": 29.293181818181818,
                "end_time": 29.343181818181815,
                "pitch": 71,
                "velocity": 80,
                "duration": 0.04999999999999716,
                "tempo": 120.0
            },
            {
                "start_time": 29.243181818181817,
                "end_time": 29.343181818181815,
                "pitch": 76,
                "velocity": 80,
                "duration": 0.09999999999999787,
                "tempo": 120.0
            },
            {
                "start_time": 29.293181818181818,
                "end_time": 29.393181818181816,
                "pitch": 56,
                "velocity": 80,
                "duration": 0.09999999999999787,
                "tempo": 120.0
            },
            {
                "start_time": 29.343181818181815,
                "end_time": 29.393181818181816,
                "pitch": 72,
                "velocity": 80,
                "duration": 0.05000000000000071,
                "tempo": 120.0
            },
            {
                "start_time": 29.393181818181816,
                "end_time": 29.443181818181817,
                "pitch": 71,
                "velocity": 80,
                "duration": 0.05000000000000071,
                "tempo": 120.0
            },
            {
                "start_time": 29.343181818181815,
                "end_time": 29.443181818181817,
                "pitch": 76,
                "velocity": 80,
                "duration": 0.10000000000000142,
                "tempo": 120.0
            },
            {
                "start_time": 29.393181818181816,
                "end_time": 29.495454545454542,
                "pitch": 56,
                "velocity": 80,
                "duration": 0.10227272727272663,
                "tempo": 120.0
            },
            {
                "start_time": 29.443181818181817,
                "end_time": 29.495454545454542,
                "pitch": 72,
                "velocity": 80,
                "duration": 0.052272727272725916,
                "tempo": 120.0
            },
            {
                "start_time": 29.495454545454542,
                "end_time": 29.545454545454543,
                "pitch": 71,
                "velocity": 80,
                "duration": 0.05000000000000071,
                "tempo": 120.0
            },
            {
                "start_time": 29.443181818181817,
                "end_time": 29.545454545454543,
                "pitch": 76,
                "velocity": 80,
                "duration": 0.10227272727272663,
                "tempo": 120.0
            },
            {
                "start_time": 29.495454545454542,
                "end_time": 29.595454545454544,
                "pitch": 56,
                "velocity": 80,
                "duration": 0.10000000000000142,
                "tempo": 120.0
            },
            {
                "start_time": 29.545454545454543,
                "end_time": 29.595454545454544,
                "pitch": 72,
                "velocity": 80,
                "duration": 0.05000000000000071,
                "tempo": 120.0
            },
            {
                "start_time": 29.595454545454544,
                "end_time": 29.645454545454545,
                "pitch": 71,
                "velocity": 80,
                "duration": 0.05000000000000071,
                "tempo": 120.0
            },
            {
                "start_time": 29.545454545454543,
                "end_time": 29.645454545454545,
                "pitch": 76,
                "velocity": 80,
                "duration": 0.10000000000000142,
                "tempo": 120.0
            },
            {
                "start_time": 29.595454545454544,
                "end_time": 29.69772727272727,
                "pitch": 56,
                "velocity": 80,
                "duration": 0.10227272727272663,
                "tempo": 120.0
            },
            {
                "start_time": 29.645454545454545,
                "end_time": 29.69772727272727,
                "pitch": 72,
                "velocity": 80,
                "duration": 0.052272727272725916,
                "tempo": 120.0
            },
            {
                "start_time": 29.69772727272727,
                "end_time": 29.74772727272727,
                "pitch": 71,
                "velocity": 80,
                "duration": 0.05000000000000071,
                "tempo": 120.0
            },
            {
                "start_time": 29.645454545454545,
                "end_time": 29.74772727272727,
                "pitch": 76,
                "velocity": 80,
                "duration": 0.10227272727272663,
                "tempo": 120.0
            },
            {
                "start_time": 29.69772727272727,
                "end_time": 29.799999999999997,
                "pitch": 56,
                "velocity": 80,
                "duration": 0.10227272727272663,
                "tempo": 120.0
            },
            {
                "start_time": 29.74772727272727,
                "end_time": 29.799999999999997,
                "pitch": 72,
                "velocity": 80,
                "duration": 0.052272727272725916,
                "tempo": 120.0
            },
            {
                "start_time": 29.799999999999997,
                "end_time": 29.852272727272727,
                "pitch": 71,
                "velocity": 80,
                "duration": 0.05227272727272947,
                "tempo": 120.0
            },
            {
                "start_time": 29.74772727272727,
                "end_time": 29.852272727272727,
                "pitch": 76,
                "velocity": 80,
                "duration": 0.10454545454545539,
                "tempo": 120.0
            },
            {
                "start_time": 29.799999999999997,
                "end_time": 29.902272727272727,
                "pitch": 56,
                "velocity": 80,
                "duration": 0.10227272727273018,
                "tempo": 120.0
            },
            {
                "start_time": 29.852272727272727,
                "end_time": 29.902272727272727,
                "pitch": 72,
                "velocity": 80,
                "duration": 0.05000000000000071,
                "tempo": 120.0
            },
            {
                "start_time": 29.902272727272727,
                "end_time": 29.954545454545453,
                "pitch": 71,
                "velocity": 80,
                "duration": 0.052272727272725916,
                "tempo": 120.0
            },
            {
                "start_time": 29.852272727272727,
                "end_time": 29.954545454545453,
                "pitch": 76,
                "velocity": 80,
                "duration": 0.10227272727272663,
                "tempo": 120.0
            },
            {
                "start_time": 29.954545454545453,
                "end_time": 30.00681818181818,
                "pitch": 72,
                "velocity": 80,
                "duration": 0.052272727272725916,
                "tempo": 120.0
            },
            {
                "start_time": 30.00681818181818,
                "end_time": 30.05681818181818,
                "pitch": 71,
                "velocity": 80,
                "duration": 0.05000000000000071,
                "tempo": 120.0
            },
            {
                "start_time": 29.954545454545453,
                "end_time": 30.05681818181818,
                "pitch": 76,
                "velocity": 80,
                "duration": 0.10227272727272663,
                "tempo": 120.0
            },
            {
                "start_time": 29.902272727272727,
                "end_time": 30.10681818181818,
                "pitch": 56,
                "velocity": 80,
                "duration": 0.20454545454545325,
                "tempo": 120.0
            },
            {
                "start_time": 30.05681818181818,
                "end_time": 30.10681818181818,
                "pitch": 72,
                "velocity": 80,
                "duration": 0.05000000000000071,
                "tempo": 120.0
            },
            {
                "start_time": 30.10681818181818,
                "end_time": 30.15681818181818,
                "pitch": 71,
                "velocity": 80,
                "duration": 0.05000000000000071,
                "tempo": 120.0
            },
            {
                "start_time": 30.05681818181818,
                "end_time": 30.15681818181818,
                "pitch": 76,
                "velocity": 80,
                "duration": 0.10000000000000142,
                "tempo": 120.0
            },
            {
                "start_time": 30.10681818181818,
                "end_time": 30.209090909090907,
                "pitch": 56,
                "velocity": 80,
                "duration": 0.10227272727272663,
                "tempo": 120.0
            },
            {
                "start_time": 30.15681818181818,
                "end_time": 30.209090909090907,
                "pitch": 72,
                "velocity": 80,
                "duration": 0.052272727272725916,
                "tempo": 120.0
            },
            {
                "start_time": 30.209090909090907,
                "end_time": 30.25681818181818,
                "pitch": 71,
                "velocity": 80,
                "duration": 0.04772727272727195,
                "tempo": 120.0
            },
            {
                "start_time": 30.15681818181818,
                "end_time": 30.25681818181818,
                "pitch": 76,
                "velocity": 80,
                "duration": 0.09999999999999787,
                "tempo": 120.0
            },
            {
                "start_time": 30.209090909090907,
                "end_time": 30.30909090909091,
                "pitch": 56,
                "velocity": 80,
                "duration": 0.10000000000000142,
                "tempo": 120.0
            },
            {
                "start_time": 30.25681818181818,
                "end_time": 30.30909090909091,
                "pitch": 72,
                "velocity": 80,
                "duration": 0.05227272727272947,
                "tempo": 120.0
            },
            {
                "start_time": 30.30909090909091,
                "end_time": 30.35909090909091,
                "pitch": 71,
                "velocity": 80,
                "duration": 0.05000000000000071,
                "tempo": 120.0
            },
            {
                "start_time": 30.25681818181818,
                "end_time": 30.35909090909091,
                "pitch": 76,
                "velocity": 80,
                "duration": 0.10227272727273018,
                "tempo": 120.0
            },
            {
                "start_time": 30.30909090909091,
                "end_time": 30.409090909090907,
                "pitch": 56,
                "velocity": 80,
                "duration": 0.09999999999999787,
                "tempo": 120.0
            },
            {
                "start_time": 30.35909090909091,
                "end_time": 30.409090909090907,
                "pitch": 72,
                "velocity": 80,
                "duration": 0.04999999999999716,
                "tempo": 120.0
            },
            {
                "start_time": 30.409090909090907,
                "end_time": 30.459090909090907,
                "pitch": 71,
                "velocity": 80,
                "duration": 0.05000000000000071,
                "tempo": 120.0
            },
            {
                "start_time": 30.35909090909091,
                "end_time": 30.459090909090907,
                "pitch": 76,
                "velocity": 80,
                "duration": 0.09999999999999787,
                "tempo": 120.0
            },
            {
                "start_time": 30.409090909090907,
                "end_time": 30.50681818181818,
                "pitch": 56,
                "velocity": 80,
                "duration": 0.09772727272727266,
                "tempo": 120.0
            },
            {
                "start_time": 30.459090909090907,
                "end_time": 30.50681818181818,
                "pitch": 72,
                "velocity": 80,
                "duration": 0.04772727272727195,
                "tempo": 120.0
            },
            {
                "start_time": 30.50681818181818,
                "end_time": 30.55681818181818,
                "pitch": 71,
                "velocity": 80,
                "duration": 0.05000000000000071,
                "tempo": 120.0
            },
            {
                "start_time": 30.459090909090907,
                "end_time": 30.55681818181818,
                "pitch": 76,
                "velocity": 80,
                "duration": 0.09772727272727266,
                "tempo": 120.0
            },
            {
                "start_time": 30.50681818181818,
                "end_time": 30.60681818181818,
                "pitch": 56,
                "velocity": 80,
                "duration": 0.10000000000000142,
                "tempo": 120.0
            },
            {
                "start_time": 30.55681818181818,
                "end_time": 30.60681818181818,
                "pitch": 72,
                "velocity": 80,
                "duration": 0.05000000000000071,
                "tempo": 120.0
            },
            {
                "start_time": 30.60681818181818,
                "end_time": 30.654545454545453,
                "pitch": 71,
                "velocity": 80,
                "duration": 0.04772727272727195,
                "tempo": 120.0
            },
            {
                "start_time": 30.55681818181818,
                "end_time": 30.654545454545453,
                "pitch": 76,
                "velocity": 80,
                "duration": 0.09772727272727266,
                "tempo": 120.0
            },
            {
                "start_time": 30.60681818181818,
                "end_time": 30.704545454545453,
                "pitch": 56,
                "velocity": 80,
                "duration": 0.09772727272727266,
                "tempo": 120.0
            },
            {
                "start_time": 30.654545454545453,
                "end_time": 30.704545454545453,
                "pitch": 72,
                "velocity": 80,
                "duration": 0.05000000000000071,
                "tempo": 120.0
            },
            {
                "start_time": 30.704545454545453,
                "end_time": 30.752272727272725,
                "pitch": 71,
                "velocity": 80,
                "duration": 0.04772727272727195,
                "tempo": 120.0
            },
            {
                "start_time": 30.654545454545453,
                "end_time": 30.752272727272725,
                "pitch": 76,
                "velocity": 80,
                "duration": 0.09772727272727266,
                "tempo": 120.0
            },
            {
                "start_time": 30.752272727272725,
                "end_time": 30.802272727272726,
                "pitch": 72,
                "velocity": 80,
                "duration": 0.05000000000000071,
                "tempo": 120.0
            },
            {
                "start_time": 30.802272727272726,
                "end_time": 30.852272727272727,
                "pitch": 71,
                "velocity": 80,
                "duration": 0.05000000000000071,
                "tempo": 120.0
            },
            {
                "start_time": 30.752272727272725,
                "end_time": 30.852272727272727,
                "pitch": 76,
                "velocity": 80,
                "duration": 0.10000000000000142,
                "tempo": 120.0
            },
            {
                "start_time": 30.704545454545453,
                "end_time": 30.902272727272727,
                "pitch": 56,
                "velocity": 80,
                "duration": 0.19772727272727408,
                "tempo": 120.0
            },
            {
                "start_time": 30.852272727272727,
                "end_time": 30.902272727272727,
                "pitch": 72,
                "velocity": 80,
                "duration": 0.05000000000000071,
                "tempo": 120.0
            },
            {
                "start_time": 30.902272727272727,
                "end_time": 30.952272727272724,
                "pitch": 71,
                "velocity": 80,
                "duration": 0.04999999999999716,
                "tempo": 120.0
            },
            {
                "start_time": 30.852272727272727,
                "end_time": 30.952272727272724,
                "pitch": 76,
                "velocity": 80,
                "duration": 0.09999999999999787,
                "tempo": 120.0
            },
            {
                "start_time": 30.902272727272727,
                "end_time": 31.002272727272725,
                "pitch": 56,
                "velocity": 80,
                "duration": 0.09999999999999787,
                "tempo": 120.0
            },
            {
                "start_time": 30.952272727272724,
                "end_time": 31.002272727272725,
                "pitch": 72,
                "velocity": 80,
                "duration": 0.05000000000000071,
                "tempo": 120.0
            },
            {
                "start_time": 31.002272727272725,
                "end_time": 31.052272727272726,
                "pitch": 71,
                "velocity": 80,
                "duration": 0.05000000000000071,
                "tempo": 120.0
            },
            {
                "start_time": 30.952272727272724,
                "end_time": 31.052272727272726,
                "pitch": 76,
                "velocity": 80,
                "duration": 0.10000000000000142,
                "tempo": 120.0
            },
            {
                "start_time": 31.002272727272725,
                "end_time": 31.102272727272727,
                "pitch": 56,
                "velocity": 80,
                "duration": 0.10000000000000142,
                "tempo": 120.0
            },
            {
                "start_time": 31.052272727272726,
                "end_time": 31.102272727272727,
                "pitch": 72,
                "velocity": 80,
                "duration": 0.05000000000000071,
                "tempo": 120.0
            },
            {
                "start_time": 31.102272727272727,
                "end_time": 31.152272727272727,
                "pitch": 71,
                "velocity": 80,
                "duration": 0.05000000000000071,
                "tempo": 120.0
            },
            {
                "start_time": 31.052272727272726,
                "end_time": 31.152272727272727,
                "pitch": 76,
                "velocity": 80,
                "duration": 0.10000000000000142,
                "tempo": 120.0
            },
            {
                "start_time": 31.102272727272727,
                "end_time": 31.202272727272724,
                "pitch": 56,
                "velocity": 80,
                "duration": 0.09999999999999787,
                "tempo": 120.0
            },
            {
                "start_time": 31.152272727272727,
                "end_time": 31.202272727272724,
                "pitch": 72,
                "velocity": 80,
                "duration": 0.04999999999999716,
                "tempo": 120.0
            },
            {
                "start_time": 31.202272727272724,
                "end_time": 31.252272727272725,
                "pitch": 71,
                "velocity": 80,
                "duration": 0.05000000000000071,
                "tempo": 120.0
            },
            {
                "start_time": 31.152272727272727,
                "end_time": 31.254545454545454,
                "pitch": 76,
                "velocity": 80,
                "duration": 0.10227272727272663,
                "tempo": 120.0
            },
            {
                "start_time": 31.252272727272725,
                "end_time": 31.254545454545454,
                "pitch": 76,
                "velocity": 80,
                "duration": 0.0022727272727287584,
                "tempo": 120.0
            },
            {
                "start_time": 31.202272727272724,
                "end_time": 31.304545454545455,
                "pitch": 56,
                "velocity": 80,
                "duration": 0.10227272727273018,
                "tempo": 120.0
            },
            {
                "start_time": 31.254545454545454,
                "end_time": 31.304545454545455,
                "pitch": 72,
                "velocity": 80,
                "duration": 0.05000000000000071,
                "tempo": 120.0
            },
            {
                "start_time": 31.304545454545455,
                "end_time": 31.35681818181818,
                "pitch": 71,
                "velocity": 80,
                "duration": 0.052272727272725916,
                "tempo": 120.0
            },
            {
                "start_time": 31.304545454545455,
                "end_time": 31.40681818181818,
                "pitch": 56,
                "velocity": 80,
                "duration": 0.10227272727272663,
                "tempo": 120.0
            },
            {
                "start_time": 31.35681818181818,
                "end_time": 31.40681818181818,
                "pitch": 72,
                "velocity": 80,
                "duration": 0.05000000000000071,
                "tempo": 120.0
            },
            {
                "start_time": 31.40681818181818,
                "end_time": 31.459090909090907,
                "pitch": 71,
                "velocity": 80,
                "duration": 0.052272727272725916,
                "tempo": 120.0
            },
            {
                "start_time": 31.35681818181818,
                "end_time": 31.459090909090907,
                "pitch": 76,
                "velocity": 80,
                "duration": 0.10227272727272663,
                "tempo": 120.0
            },
            {
                "start_time": 31.40681818181818,
                "end_time": 31.511363636363633,
                "pitch": 56,
                "velocity": 80,
                "duration": 0.10454545454545183,
                "tempo": 120.0
            },
            {
                "start_time": 31.459090909090907,
                "end_time": 31.511363636363633,
                "pitch": 72,
                "velocity": 80,
                "duration": 0.052272727272725916,
                "tempo": 120.0
            },
            {
                "start_time": 31.511363636363633,
                "end_time": 31.561363636363634,
                "pitch": 71,
                "velocity": 80,
                "duration": 0.05000000000000071,
                "tempo": 120.0
            },
            {
                "start_time": 31.459090909090907,
                "end_time": 31.561363636363634,
                "pitch": 76,
                "velocity": 80,
                "duration": 0.10227272727272663,
                "tempo": 120.0
            },
            {
                "start_time": 31.561363636363634,
                "end_time": 31.613636363636363,
                "pitch": 72,
                "velocity": 80,
                "duration": 0.05227272727272947,
                "tempo": 120.0
            },
            {
                "start_time": 31.61590909090909,
                "end_time": 31.66363636363636,
                "pitch": 71,
                "velocity": 80,
                "duration": 0.04772727272727195,
                "tempo": 120.0
            },
            {
                "start_time": 31.561363636363634,
                "end_time": 31.66363636363636,
                "pitch": 76,
                "velocity": 80,
                "duration": 0.10227272727272663,
                "tempo": 120.0
            },
            {
                "start_time": 31.511363636363633,
                "end_time": 31.71363636363636,
                "pitch": 56,
                "velocity": 80,
                "duration": 0.20227272727272805,
                "tempo": 120.0
            },
            {
                "start_time": 31.66363636363636,
                "end_time": 31.71363636363636,
                "pitch": 72,
                "velocity": 80,
                "duration": 0.05000000000000071,
                "tempo": 120.0
            },
            {
                "start_time": 31.71363636363636,
                "end_time": 31.763636363636362,
                "pitch": 71,
                "velocity": 80,
                "duration": 0.05000000000000071,
                "tempo": 120.0
            },
            {
                "start_time": 31.66363636363636,
                "end_time": 31.763636363636362,
                "pitch": 76,
                "velocity": 80,
                "duration": 0.10000000000000142,
                "tempo": 120.0
            },
            {
                "start_time": 31.71363636363636,
                "end_time": 31.813636363636363,
                "pitch": 56,
                "velocity": 80,
                "duration": 0.10000000000000142,
                "tempo": 120.0
            },
            {
                "start_time": 31.763636363636362,
                "end_time": 31.813636363636363,
                "pitch": 72,
                "velocity": 80,
                "duration": 0.05000000000000071,
                "tempo": 120.0
            },
            {
                "start_time": 31.813636363636363,
                "end_time": 31.863636363636363,
                "pitch": 71,
                "velocity": 80,
                "duration": 0.05000000000000071,
                "tempo": 120.0
            },
            {
                "start_time": 31.763636363636362,
                "end_time": 31.863636363636363,
                "pitch": 76,
                "velocity": 80,
                "duration": 0.10000000000000142,
                "tempo": 120.0
            },
            {
                "start_time": 31.813636363636363,
                "end_time": 31.91363636363636,
                "pitch": 56,
                "velocity": 80,
                "duration": 0.09999999999999787,
                "tempo": 120.0
            },
            {
                "start_time": 31.863636363636363,
                "end_time": 31.91363636363636,
                "pitch": 72,
                "velocity": 80,
                "duration": 0.04999999999999716,
                "tempo": 120.0
            },
            {
                "start_time": 31.91363636363636,
                "end_time": 31.96363636363636,
                "pitch": 71,
                "velocity": 80,
                "duration": 0.05000000000000071,
                "tempo": 120.0
            },
            {
                "start_time": 31.863636363636363,
                "end_time": 31.96363636363636,
                "pitch": 76,
                "velocity": 80,
                "duration": 0.09999999999999787,
                "tempo": 120.0
            },
            {
                "start_time": 31.91363636363636,
                "end_time": 32.01590909090909,
                "pitch": 56,
                "velocity": 80,
                "duration": 0.10227272727273018,
                "tempo": 120.0
            },
            {
                "start_time": 31.96363636363636,
                "end_time": 32.01590909090909,
                "pitch": 72,
                "velocity": 80,
                "duration": 0.05227272727272947,
                "tempo": 120.0
            },
            {
                "start_time": 32.01590909090909,
                "end_time": 32.06363636363636,
                "pitch": 71,
                "velocity": 80,
                "duration": 0.04772727272727195,
                "tempo": 120.0
            },
            {
                "start_time": 31.96363636363636,
                "end_time": 32.06363636363636,
                "pitch": 76,
                "velocity": 80,
                "duration": 0.10000000000000142,
                "tempo": 120.0
            },
            {
                "start_time": 32.01590909090909,
                "end_time": 32.111363636363635,
                "pitch": 56,
                "velocity": 80,
                "duration": 0.0954545454545439,
                "tempo": 120.0
            },
            {
                "start_time": 32.06363636363636,
                "end_time": 32.111363636363635,
                "pitch": 72,
                "velocity": 80,
                "duration": 0.04772727272727195,
                "tempo": 120.0
            },
            {
                "start_time": 32.111363636363635,
                "end_time": 32.16136363636363,
                "pitch": 71,
                "velocity": 80,
                "duration": 0.04999999999999716,
                "tempo": 120.0
            },
            {
                "start_time": 32.06363636363636,
                "end_time": 32.16136363636363,
                "pitch": 76,
                "velocity": 80,
                "duration": 0.09772727272726911,
                "tempo": 120.0
            },
            {
                "start_time": 32.111363636363635,
                "end_time": 32.211363636363636,
                "pitch": 56,
                "velocity": 80,
                "duration": 0.10000000000000142,
                "tempo": 120.0
            },
            {
                "start_time": 32.16136363636363,
                "end_time": 32.211363636363636,
                "pitch": 72,
                "velocity": 80,
                "duration": 0.05000000000000426,
                "tempo": 120.0
            },
            {
                "start_time": 32.211363636363636,
                "end_time": 32.25909090909091,
                "pitch": 71,
                "velocity": 80,
                "duration": 0.04772727272727195,
                "tempo": 120.0
            },
            {
                "start_time": 32.16136363636363,
                "end_time": 32.25909090909091,
                "pitch": 76,
                "velocity": 80,
                "duration": 0.09772727272727622,
                "tempo": 120.0
            },
            {
                "start_time": 32.211363636363636,
                "end_time": 32.309090909090905,
                "pitch": 56,
                "velocity": 80,
                "duration": 0.09772727272726911,
                "tempo": 120.0
            },
            {
                "start_time": 32.25909090909091,
                "end_time": 32.309090909090905,
                "pitch": 72,
                "velocity": 80,
                "duration": 0.04999999999999716,
                "tempo": 120.0
            },
            {
                "start_time": 32.309090909090905,
                "end_time": 32.35681818181818,
                "pitch": 71,
                "velocity": 80,
                "duration": 0.04772727272727195,
                "tempo": 120.0
            },
            {
                "start_time": 32.25909090909091,
                "end_time": 32.35681818181818,
                "pitch": 76,
                "velocity": 80,
                "duration": 0.09772727272726911,
                "tempo": 120.0
            },
            {
                "start_time": 32.35681818181818,
                "end_time": 32.40681818181818,
                "pitch": 72,
                "velocity": 80,
                "duration": 0.05000000000000426,
                "tempo": 120.0
            },
            {
                "start_time": 32.40909090909091,
                "end_time": 32.45681818181818,
                "pitch": 71,
                "velocity": 80,
                "duration": 0.04772727272727195,
                "tempo": 120.0
            },
            {
                "start_time": 32.35681818181818,
                "end_time": 32.45681818181818,
                "pitch": 76,
                "velocity": 80,
                "duration": 0.10000000000000142,
                "tempo": 120.0
            },
            {
                "start_time": 32.309090909090905,
                "end_time": 32.50681818181818,
                "pitch": 56,
                "velocity": 80,
                "duration": 0.19772727272727764,
                "tempo": 120.0
            },
            {
                "start_time": 32.45681818181818,
                "end_time": 32.50681818181818,
                "pitch": 72,
                "velocity": 80,
                "duration": 0.05000000000000426,
                "tempo": 120.0
            },
            {
                "start_time": 32.50681818181818,
                "end_time": 32.55681818181818,
                "pitch": 71,
                "velocity": 80,
                "duration": 0.04999999999999716,
                "tempo": 120.0
            },
            {
                "start_time": 32.45681818181818,
                "end_time": 32.55681818181818,
                "pitch": 76,
                "velocity": 80,
                "duration": 0.10000000000000142,
                "tempo": 120.0
            },
            {
                "start_time": 32.50681818181818,
                "end_time": 32.60681818181818,
                "pitch": 56,
                "velocity": 80,
                "duration": 0.09999999999999432,
                "tempo": 120.0
            },
            {
                "start_time": 32.55681818181818,
                "end_time": 32.60681818181818,
                "pitch": 72,
                "velocity": 80,
                "duration": 0.04999999999999716,
                "tempo": 120.0
            },
            {
                "start_time": 32.60681818181818,
                "end_time": 32.65681818181818,
                "pitch": 71,
                "velocity": 80,
                "duration": 0.05000000000000426,
                "tempo": 120.0
            },
            {
                "start_time": 32.55681818181818,
                "end_time": 32.65681818181818,
                "pitch": 76,
                "velocity": 80,
                "duration": 0.10000000000000142,
                "tempo": 120.0
            },
            {
                "start_time": 32.60681818181818,
                "end_time": 32.70681818181818,
                "pitch": 56,
                "velocity": 80,
                "duration": 0.10000000000000142,
                "tempo": 120.0
            },
            {
                "start_time": 32.65681818181818,
                "end_time": 32.70681818181818,
                "pitch": 72,
                "velocity": 80,
                "duration": 0.04999999999999716,
                "tempo": 120.0
            },
            {
                "start_time": 32.70681818181818,
                "end_time": 32.75681818181818,
                "pitch": 71,
                "velocity": 80,
                "duration": 0.05000000000000426,
                "tempo": 120.0
            },
            {
                "start_time": 32.65681818181818,
                "end_time": 32.75681818181818,
                "pitch": 76,
                "velocity": 80,
                "duration": 0.10000000000000142,
                "tempo": 120.0
            },
            {
                "start_time": 32.70681818181818,
                "end_time": 32.809090909090905,
                "pitch": 56,
                "velocity": 80,
                "duration": 0.10227272727272663,
                "tempo": 120.0
            },
            {
                "start_time": 32.75681818181818,
                "end_time": 32.809090909090905,
                "pitch": 72,
                "velocity": 80,
                "duration": 0.052272727272722364,
                "tempo": 120.0
            },
            {
                "start_time": 32.809090909090905,
                "end_time": 32.85909090909091,
                "pitch": 71,
                "velocity": 80,
                "duration": 0.05000000000000426,
                "tempo": 120.0
            },
            {
                "start_time": 32.75681818181818,
                "end_time": 32.85909090909091,
                "pitch": 76,
                "velocity": 80,
                "duration": 0.10227272727272663,
                "tempo": 120.0
            },
            {
                "start_time": 32.809090909090905,
                "end_time": 32.90909090909091,
                "pitch": 56,
                "velocity": 80,
                "duration": 0.10000000000000142,
                "tempo": 120.0
            },
            {
                "start_time": 32.85909090909091,
                "end_time": 32.90909090909091,
                "pitch": 72,
                "velocity": 80,
                "duration": 0.04999999999999716,
                "tempo": 120.0
            },
            {
                "start_time": 32.90909090909091,
                "end_time": 32.961363636363636,
                "pitch": 71,
                "velocity": 80,
                "duration": 0.05227272727272947,
                "tempo": 120.0
            },
            {
                "start_time": 32.85909090909091,
                "end_time": 32.961363636363636,
                "pitch": 76,
                "velocity": 80,
                "duration": 0.10227272727272663,
                "tempo": 120.0
            },
            {
                "start_time": 32.90909090909091,
                "end_time": 33.013636363636365,
                "pitch": 56,
                "velocity": 80,
                "duration": 0.10454545454545894,
                "tempo": 120.0
            },
            {
                "start_time": 32.961363636363636,
                "end_time": 33.013636363636365,
                "pitch": 72,
                "velocity": 80,
                "duration": 0.05227272727272947,
                "tempo": 120.0
            },
            {
                "start_time": 33.013636363636365,
                "end_time": 33.06363636363636,
                "pitch": 71,
                "velocity": 80,
                "duration": 0.04999999999999716,
                "tempo": 120.0
            },
            {
                "start_time": 32.961363636363636,
                "end_time": 33.06363636363636,
                "pitch": 76,
                "velocity": 80,
                "duration": 0.10227272727272663,
                "tempo": 120.0
            },
            {
                "start_time": 33.013636363636365,
                "end_time": 33.11590909090909,
                "pitch": 56,
                "velocity": 80,
                "duration": 0.10227272727272663,
                "tempo": 120.0
            },
            {
                "start_time": 33.06363636363636,
                "end_time": 33.11590909090909,
                "pitch": 72,
                "velocity": 80,
                "duration": 0.05227272727272947,
                "tempo": 120.0
            },
            {
                "start_time": 33.11590909090909,
                "end_time": 33.168181818181814,
                "pitch": 71,
                "velocity": 80,
                "duration": 0.052272727272722364,
                "tempo": 120.0
            },
            {
                "start_time": 33.06363636363636,
                "end_time": 33.168181818181814,
                "pitch": 76,
                "velocity": 80,
                "duration": 0.10454545454545183,
                "tempo": 120.0
            },
            {
                "start_time": 33.168181818181814,
                "end_time": 33.21818181818182,
                "pitch": 72,
                "velocity": 80,
                "duration": 0.05000000000000426,
                "tempo": 120.0
            },
            {
                "start_time": 33.220454545454544,
                "end_time": 34.02272727272727,
                "pitch": 69,
                "velocity": 80,
                "duration": 0.8022727272727295,
                "tempo": 120.0
            },
            {
                "start_time": 34.02272727272727,
                "end_time": 34.12272727272727,
                "pitch": 66,
                "velocity": 80,
                "duration": 0.09999999999999432,
                "tempo": 120.0
            },
            {
                "start_time": 34.12272727272727,
                "end_time": 34.22272727272727,
                "pitch": 66,
                "velocity": 80,
                "duration": 0.10000000000000142,
                "tempo": 120.0
            },
            {
                "start_time": 34.12272727272727,
                "end_time": 34.22272727272727,
                "pitch": 78,
                "velocity": 80,
                "duration": 0.10000000000000142,
                "tempo": 120.0
            },
            {
                "start_time": 34.22272727272727,
                "end_time": 34.30681818181818,
                "pitch": 66,
                "velocity": 80,
                "duration": 0.08409090909091077,
                "tempo": 120.0
            },
            {
                "start_time": 34.30681818181818,
                "end_time": 34.42272727272727,
                "pitch": 67,
                "velocity": 80,
                "duration": 0.11590909090909207,
                "tempo": 120.0
            },
            {
                "start_time": 34.425,
                "end_time": 34.82727272727273,
                "pitch": 64,
                "velocity": 80,
                "duration": 0.4022727272727309,
                "tempo": 120.0
            },
            {
                "start_time": 34.82727272727273,
                "end_time": 35.22727272727273,
                "pitch": 61,
                "velocity": 80,
                "duration": 0.3999999999999986,
                "tempo": 120.0
            },
            {
                "start_time": 35.22727272727273,
                "end_time": 35.34318181818182,
                "pitch": 55,
                "velocity": 80,
                "duration": 0.11590909090909207,
                "tempo": 120.0
            },
            {
                "start_time": 35.34318181818182,
                "end_time": 35.377272727272725,
                "pitch": 55,
                "velocity": 80,
                "duration": 0.03409090909090651,
                "tempo": 120.0
            },
            {
                "start_time": 33.11590909090909,
                "end_time": 35.543181818181814,
                "pitch": 56,
                "velocity": 80,
                "duration": 2.4272727272727224,
                "tempo": 120.0
            },
            {
                "start_time": 35.377272727272725,
                "end_time": 35.543181818181814,
                "pitch": 56,
                "velocity": 80,
                "duration": 0.16590909090908923,
                "tempo": 120.0
            },
            {
                "start_time": 35.34318181818182,
                "end_time": 35.543181818181814,
                "pitch": 67,
                "velocity": 80,
                "duration": 0.19999999999999574,
                "tempo": 120.0
            },
            {
                "start_time": 35.543181818181814,
                "end_time": 35.56136363636364,
                "pitch": 55,
                "velocity": 80,
                "duration": 0.018181818181822962,
                "tempo": 120.0
            },
            {
                "start_time": 35.56136363636364,
                "end_time": 35.627272727272725,
                "pitch": 55,
                "velocity": 80,
                "duration": 0.06590909090908781,
                "tempo": 120.0
            },
            {
                "start_time": 35.62954545454545,
                "end_time": 36.43863636363636,
                "pitch": 73,
                "velocity": 80,
                "duration": 0.8090909090909122,
                "tempo": 120.0
            },
            {
                "start_time": 36.44090909090909,
                "end_time": 37.23409090909091,
                "pitch": 73,
                "velocity": 80,
                "duration": 0.7931818181818215,
                "tempo": 120.0
            },
            {
                "start_time": 37.23409090909091,
                "end_time": 38.04545454545455,
                "pitch": 73,
                "velocity": 80,
                "duration": 0.8113636363636374,
                "tempo": 120.0
            },
            {
                "start_time": 38.04545454545455,
                "end_time": 38.095454545454544,
                "pitch": 71,
                "velocity": 80,
                "duration": 0.04999999999999716,
                "tempo": 120.0
            },
            {
                "start_time": 33.168181818181814,
                "end_time": 38.095454545454544,
                "pitch": 76,
                "velocity": 80,
                "duration": 4.9272727272727295,
                "tempo": 120.0
            },
            {
                "start_time": 38.095454545454544,
                "end_time": 38.14545454545454,
                "pitch": 72,
                "velocity": 80,
                "duration": 0.04999999999999716,
                "tempo": 120.0
            },
            {
                "start_time": 38.14545454545454,
                "end_time": 38.195454545454545,
                "pitch": 71,
                "velocity": 80,
                "duration": 0.05000000000000426,
                "tempo": 120.0
            },
            {
                "start_time": 38.095454545454544,
                "end_time": 38.195454545454545,
                "pitch": 76,
                "velocity": 80,
                "duration": 0.10000000000000142,
                "tempo": 120.0
            },
            {
                "start_time": 38.14545454545454,
                "end_time": 38.24545454545454,
                "pitch": 56,
                "velocity": 80,
                "duration": 0.10000000000000142,
                "tempo": 120.0
            },
            {
                "start_time": 38.195454545454545,
                "end_time": 38.24545454545454,
                "pitch": 72,
                "velocity": 80,
                "duration": 0.04999999999999716,
                "tempo": 120.0
            },
            {
                "start_time": 38.24545454545454,
                "end_time": 38.29545454545455,
                "pitch": 71,
                "velocity": 80,
                "duration": 0.05000000000000426,
                "tempo": 120.0
            },
            {
                "start_time": 38.195454545454545,
                "end_time": 38.29545454545455,
                "pitch": 76,
                "velocity": 80,
                "duration": 0.10000000000000142,
                "tempo": 120.0
            },
            {
                "start_time": 38.24545454545454,
                "end_time": 38.34772727272727,
                "pitch": 56,
                "velocity": 80,
                "duration": 0.10227272727272663,
                "tempo": 120.0
            },
            {
                "start_time": 38.29545454545455,
                "end_time": 38.34772727272727,
                "pitch": 72,
                "velocity": 80,
                "duration": 0.052272727272722364,
                "tempo": 120.0
            },
            {
                "start_time": 38.34772727272727,
                "end_time": 38.39772727272727,
                "pitch": 71,
                "velocity": 80,
                "duration": 0.05000000000000426,
                "tempo": 120.0
            },
            {
                "start_time": 38.29545454545455,
                "end_time": 38.39772727272727,
                "pitch": 76,
                "velocity": 80,
                "duration": 0.10227272727272663,
                "tempo": 120.0
            },
            {
                "start_time": 38.34772727272727,
                "end_time": 38.44772727272727,
                "pitch": 56,
                "velocity": 80,
                "duration": 0.10000000000000142,
                "tempo": 120.0
            },
            {
                "start_time": 38.39772727272727,
                "end_time": 38.44772727272727,
                "pitch": 72,
                "velocity": 80,
                "duration": 0.04999999999999716,
                "tempo": 120.0
            },
            {
                "start_time": 38.44772727272727,
                "end_time": 38.49772727272727,
                "pitch": 71,
                "velocity": 80,
                "duration": 0.04999999999999716,
                "tempo": 120.0
            },
            {
                "start_time": 38.39772727272727,
                "end_time": 38.49772727272727,
                "pitch": 76,
                "velocity": 80,
                "duration": 0.09999999999999432,
                "tempo": 120.0
            },
            {
                "start_time": 38.44772727272727,
                "end_time": 38.54545454545455,
                "pitch": 56,
                "velocity": 80,
                "duration": 0.09772727272727622,
                "tempo": 120.0
            },
            {
                "start_time": 38.49772727272727,
                "end_time": 38.54545454545455,
                "pitch": 72,
                "velocity": 80,
                "duration": 0.04772727272727906,
                "tempo": 120.0
            },
            {
                "start_time": 38.54545454545455,
                "end_time": 38.595454545454544,
                "pitch": 71,
                "velocity": 80,
                "duration": 0.04999999999999716,
                "tempo": 120.0
            },
            {
                "start_time": 38.49772727272727,
                "end_time": 38.595454545454544,
                "pitch": 76,
                "velocity": 80,
                "duration": 0.09772727272727622,
                "tempo": 120.0
            },
            {
                "start_time": 38.54545454545455,
                "end_time": 38.643181818181816,
                "pitch": 56,
                "velocity": 80,
                "duration": 0.09772727272726911,
                "tempo": 120.0
            },
            {
                "start_time": 38.595454545454544,
                "end_time": 38.643181818181816,
                "pitch": 72,
                "velocity": 80,
                "duration": 0.04772727272727195,
                "tempo": 120.0
            },
            {
                "start_time": 38.643181818181816,
                "end_time": 38.69318181818181,
                "pitch": 71,
                "velocity": 80,
                "duration": 0.04999999999999716,
                "tempo": 120.0
            },
            {
                "start_time": 38.595454545454544,
                "end_time": 38.69318181818181,
                "pitch": 76,
                "velocity": 80,
                "duration": 0.09772727272726911,
                "tempo": 120.0
            },
            {
                "start_time": 38.643181818181816,
                "end_time": 38.74318181818182,
                "pitch": 56,
                "velocity": 80,
                "duration": 0.10000000000000142,
                "tempo": 120.0
            },
            {
                "start_time": 38.69318181818181,
                "end_time": 38.74318181818182,
                "pitch": 72,
                "velocity": 80,
                "duration": 0.05000000000000426,
                "tempo": 120.0
            },
            {
                "start_time": 38.74318181818182,
                "end_time": 38.79090909090909,
                "pitch": 71,
                "velocity": 80,
                "duration": 0.04772727272727195,
                "tempo": 120.0
            },
            {
                "start_time": 38.69318181818181,
                "end_time": 38.79090909090909,
                "pitch": 76,
                "velocity": 80,
                "duration": 0.09772727272727622,
                "tempo": 120.0
            },
            {
                "start_time": 38.79090909090909,
                "end_time": 38.840909090909086,
                "pitch": 72,
                "velocity": 80,
                "duration": 0.04999999999999716,
                "tempo": 120.0
            },
            {
                "start_time": 38.840909090909086,
                "end_time": 38.89090909090909,
                "pitch": 77,
                "velocity": 64,
                "duration": 0.05000000000000426,
                "tempo": 120.0
            },
            {
                "start_time": 38.94090909090909,
                "end_time": 38.99090909090909,
                "pitch": 72,
                "velocity": 64,
                "duration": 0.05000000000000426,
                "tempo": 120.0
            },
            {
                "start_time": 39.04090909090909,
                "end_time": 39.090909090909086,
                "pitch": 74,
                "velocity": 64,
                "duration": 0.04999999999999716,
                "tempo": 120.0
            },
            {
                "start_time": 39.14090909090909,
                "end_time": 39.19090909090909,
                "pitch": 70,
                "velocity": 64,
                "duration": 0.04999999999999716,
                "tempo": 120.0
            },
            {
                "start_time": 39.24090909090909,
                "end_time": 39.29090909090909,
                "pitch": 72,
                "velocity": 64,
                "duration": 0.04999999999999716,
                "tempo": 120.0
            },
            {
                "start_time": 39.340909090909086,
                "end_time": 39.39090909090909,
                "pitch": 81,
                "velocity": 64,
                "duration": 0.05000000000000426,
                "tempo": 120.0
            },
            {
                "start_time": 39.44090909090909,
                "end_time": 39.49090909090909,
                "pitch": 82,
                "velocity": 64,
                "duration": 0.05000000000000426,
                "tempo": 120.0
            },
            {
                "start_time": 34.30681818181818,
                "end_time": 39.590909090909086,
                "pitch": 79,
                "velocity": 80,
                "duration": 5.2840909090909065,
                "tempo": 120.0
            },
            {
                "start_time": 39.54090909090909,
                "end_time": 39.590909090909086,
                "pitch": 79,
                "velocity": 64,
                "duration": 0.04999999999999716,
                "tempo": 120.0
            },
            {
                "start_time": 39.643181818181816,
                "end_time": 39.69090909090909,
                "pitch": 77,
                "velocity": 64,
                "duration": 0.04772727272727195,
                "tempo": 120.0
            },
            {
                "start_time": 39.74090909090909,
                "end_time": 39.79090909090909,
                "pitch": 72,
                "velocity": 64,
                "duration": 0.04999999999999716,
                "tempo": 120.0
            },
            {
                "start_time": 39.84318181818182,
                "end_time": 39.89090909090909,
                "pitch": 74,
                "velocity": 64,
                "duration": 0.04772727272727195,
                "tempo": 120.0
            },
            {
                "start_time": 39.94318181818181,
                "end_time": 39.99090909090909,
                "pitch": 70,
                "velocity": 64,
                "duration": 0.04772727272727906,
                "tempo": 120.0
            },
            {
                "start_time": 40.043181818181814,
                "end_time": 40.09318181818182,
                "pitch": 72,
                "velocity": 64,
                "duration": 0.05000000000000426,
                "tempo": 120.0
            },
            {
                "start_time": 40.14545454545454,
                "end_time": 40.195454545454545,
                "pitch": 81,
                "velocity": 64,
                "duration": 0.05000000000000426,
                "tempo": 120.0
            },
            {
                "start_time": 40.24772727272727,
                "end_time": 40.29772727272727,
                "pitch": 82,
                "velocity": 64,
                "duration": 0.05000000000000426,
                "tempo": 120.0
            },
            {
                "start_time": 40.35,
                "end_time": 40.402272727272724,
                "pitch": 79,
                "velocity": 64,
                "duration": 0.052272727272722364,
                "tempo": 120.0
            },
            {
                "start_time": 40.45454545454545,
                "end_time": 40.502272727272725,
                "pitch": 77,
                "velocity": 64,
                "duration": 0.04772727272727195,
                "tempo": 120.0
            },
            {
                "start_time": 40.55227272727272,
                "end_time": 40.6,
                "pitch": 72,
                "velocity": 64,
                "duration": 0.04772727272727906,
                "tempo": 120.0
            },
            {
                "start_time": 40.65,
                "end_time": 40.69772727272727,
                "pitch": 74,
                "velocity": 64,
                "duration": 0.04772727272727195,
                "tempo": 120.0
            },
            {
                "start_time": 40.74772727272727,
                "end_time": 40.79545454545455,
                "pitch": 70,
                "velocity": 64,
                "duration": 0.04772727272727906,
                "tempo": 120.0
            },
            {
                "start_time": 40.845454545454544,
                "end_time": 40.89772727272727,
                "pitch": 72,
                "velocity": 64,
                "duration": 0.05227272727272947,
                "tempo": 120.0
            },
            {
                "start_time": 40.94772727272727,
                "end_time": 41.0,
                "pitch": 81,
                "velocity": 64,
                "duration": 0.05227272727272947,
                "tempo": 120.0
            },
            {
                "start_time": 41.05227272727272,
                "end_time": 41.10227272727273,
                "pitch": 82,
                "velocity": 64,
                "duration": 0.05000000000000426,
                "tempo": 120.0
            },
            {
                "start_time": 41.154545454545456,
                "end_time": 41.20454545454545,
                "pitch": 79,
                "velocity": 64,
                "duration": 0.04999999999999716,
                "tempo": 120.0
            },
            {
                "start_time": 41.25681818181818,
                "end_time": 41.45681818181818,
                "pitch": 77,
                "velocity": 64,
                "duration": 0.19999999999999574,
                "tempo": 120.0
            },
            {
                "start_time": 41.65681818181818,
                "end_time": 41.85681818181818,
                "pitch": 65,
                "velocity": 64,
                "duration": 0.19999999999999574,
                "tempo": 120.0
            }
        ],
        "Vibraphone": [
            {
                "start_time": 16.32272727272727,
                "end_time": 16.520454545454545,
                "pitch": 84,
                "velocity": 80,
                "duration": 0.19772727272727408,
                "tempo": 120.0
            },
            {
                "start_time": 16.922727272727272,
                "end_time": 17.125,
                "pitch": 84,
                "velocity": 80,
                "duration": 0.20227272727272805,
                "tempo": 120.0
            },
            {
                "start_time": 17.125,
                "end_time": 17.325,
                "pitch": 83,
                "velocity": 80,
                "duration": 0.1999999999999993,
                "tempo": 120.0
            },
            {
                "start_time": 17.727272727272727,
                "end_time": 17.929545454545455,
                "pitch": 83,
                "velocity": 80,
                "duration": 0.20227272727272805,
                "tempo": 120.0
            },
            {
                "start_time": 17.929545454545455,
                "end_time": 18.127272727272725,
                "pitch": 81,
                "velocity": 80,
                "duration": 0.19772727272727053,
                "tempo": 120.0
            },
            {
                "start_time": 18.529545454545453,
                "end_time": 18.729545454545455,
                "pitch": 81,
                "velocity": 80,
                "duration": 0.20000000000000284,
                "tempo": 120.0
            },
            {
                "start_time": 18.729545454545455,
                "end_time": 18.93409090909091,
                "pitch": 83,
                "velocity": 80,
                "duration": 0.20454545454545325,
                "tempo": 120.0
            },
            {
                "start_time": 19.14090909090909,
                "end_time": 19.34090909090909,
                "pitch": 84,
                "velocity": 80,
                "duration": 0.1999999999999993,
                "tempo": 120.0
            },
            {
                "start_time": 19.545454545454543,
                "end_time": 19.69090909090909,
                "pitch": 79,
                "velocity": 80,
                "duration": 0.14545454545454817,
                "tempo": 120.0
            },
            {
                "start_time": 19.545454545454543,
                "end_time": 19.69090909090909,
                "pitch": 79,
                "velocity": 80,
                "duration": 0.14545454545454817,
                "tempo": 120.0
            },
            {
                "start_time": 19.545454545454543,
                "end_time": 19.69090909090909,
                "pitch": 91,
                "velocity": 80,
                "duration": 0.14545454545454817,
                "tempo": 120.0
            },
            {
                "start_time": 19.69090909090909,
                "end_time": 19.738636363636363,
                "pitch": 79,
                "velocity": 80,
                "duration": 0.04772727272727195,
                "tempo": 120.0
            },
            {
                "start_time": 20.738636363636363,
                "end_time": 20.943181818181817,
                "pitch": 86,
                "velocity": 80,
                "duration": 0.20454545454545325,
                "tempo": 120.0
            },
            {
                "start_time": 21.15,
                "end_time": 21.349999999999998,
                "pitch": 86,
                "velocity": 80,
                "duration": 0.1999999999999993,
                "tempo": 120.0
            },
            {
                "start_time": 21.552272727272726,
                "end_time": 21.752272727272725,
                "pitch": 83,
                "velocity": 80,
                "duration": 0.1999999999999993,
                "tempo": 120.0
            },
            {
                "start_time": 21.752272727272725,
                "end_time": 21.868181818181817,
                "pitch": 79,
                "velocity": 80,
                "duration": 0.11590909090909207,
                "tempo": 120.0
            },
            {
                "start_time": 19.69090909090909,
                "end_time": 21.868181818181817,
                "pitch": 91,
                "velocity": 80,
                "duration": 2.177272727272726,
                "tempo": 120.0
            },
            {
                "start_time": 21.868181818181817,
                "end_time": 21.952272727272724,
                "pitch": 79,
                "velocity": 80,
                "duration": 0.08409090909090722,
                "tempo": 120.0
            },
            {
                "start_time": 22.154545454545453,
                "end_time": 22.204545454545453,
                "pitch": 79,
                "velocity": 80,
                "duration": 0.05000000000000071,
                "tempo": 120.0
            },
            {
                "start_time": 21.868181818181817,
                "end_time": 22.204545454545453,
                "pitch": 91,
                "velocity": 80,
                "duration": 0.336363636363636,
                "tempo": 120.0
            },
            {
                "start_time": 22.204545454545453,
                "end_time": 22.35681818181818,
                "pitch": 79,
                "velocity": 80,
                "duration": 0.15227272727272734,
                "tempo": 120.0
            },
            {
                "start_time": 22.35681818181818,
                "end_time": 22.37272727272727,
                "pitch": 79,
                "velocity": 80,
                "duration": 0.01590909090909065,
                "tempo": 120.0
            },
            {
                "start_time": 22.204545454545453,
                "end_time": 22.37272727272727,
                "pitch": 91,
                "velocity": 80,
                "duration": 0.168181818181818,
                "tempo": 120.0
            },
            {
                "start_time": 22.37272727272727,
                "end_time": 22.538636363636364,
                "pitch": 79,
                "velocity": 80,
                "duration": 0.16590909090909278,
                "tempo": 120.0
            },
            {
                "start_time": 22.37272727272727,
                "end_time": 22.538636363636364,
                "pitch": 91,
                "velocity": 80,
                "duration": 0.16590909090909278,
                "tempo": 120.0
            },
            {
                "start_time": 22.538636363636364,
                "end_time": 22.55681818181818,
                "pitch": 79,
                "velocity": 80,
                "duration": 0.018181818181815856,
                "tempo": 120.0
            },
            {
                "start_time": 22.538636363636364,
                "end_time": 22.55681818181818,
                "pitch": 91,
                "velocity": 80,
                "duration": 0.018181818181815856,
                "tempo": 120.0
            },
            {
                "start_time": 22.55681818181818,
                "end_time": 22.704545454545453,
                "pitch": 79,
                "velocity": 80,
                "duration": 0.14772727272727337,
                "tempo": 120.0
            },
            {
                "start_time": 22.55681818181818,
                "end_time": 22.704545454545453,
                "pitch": 79,
                "velocity": 80,
                "duration": 0.14772727272727337,
                "tempo": 120.0
            },
            {
                "start_time": 22.55681818181818,
                "end_time": 22.704545454545453,
                "pitch": 91,
                "velocity": 80,
                "duration": 0.14772727272727337,
                "tempo": 120.0
            },
            {
                "start_time": 22.704545454545453,
                "end_time": 22.75681818181818,
                "pitch": 79,
                "velocity": 80,
                "duration": 0.052272727272725916,
                "tempo": 120.0
            },
            {
                "start_time": 22.75681818181818,
                "end_time": 23.15681818181818,
                "pitch": 88,
                "velocity": 80,
                "duration": 0.40000000000000213,
                "tempo": 120.0
            },
            {
                "start_time": 23.159090909090907,
                "end_time": 23.24090909090909,
                "pitch": 86,
                "velocity": 80,
                "duration": 0.08181818181818201,
                "tempo": 120.0
            },
            {
                "start_time": 23.35909090909091,
                "end_time": 23.761363636363637,
                "pitch": 84,
                "velocity": 80,
                "duration": 0.40227272727272734,
                "tempo": 120.0
            },
            {
                "start_time": 23.761363636363637,
                "end_time": 23.961363636363636,
                "pitch": 84,
                "velocity": 80,
                "duration": 0.1999999999999993,
                "tempo": 120.0
            },
            {
                "start_time": 23.961363636363636,
                "end_time": 24.163636363636364,
                "pitch": 84,
                "velocity": 80,
                "duration": 0.20227272727272805,
                "tempo": 120.0
            },
            {
                "start_time": 24.163636363636364,
                "end_time": 24.363636363636363,
                "pitch": 84,
                "velocity": 80,
                "duration": 0.1999999999999993,
                "tempo": 120.0
            },
            {
                "start_time": 24.36590909090909,
                "end_time": 24.563636363636363,
                "pitch": 83,
                "velocity": 80,
                "duration": 0.19772727272727408,
                "tempo": 120.0
            },
            {
                "start_time": 24.56590909090909,
                "end_time": 24.76590909090909,
                "pitch": 84,
                "velocity": 80,
                "duration": 0.1999999999999993,
                "tempo": 120.0
            },
            {
                "start_time": 24.76590909090909,
                "end_time": 24.847727272727273,
                "pitch": 83,
                "velocity": 80,
                "duration": 0.08181818181818201,
                "tempo": 120.0
            },
            {
                "start_time": 24.96590909090909,
                "end_time": 25.36590909090909,
                "pitch": 81,
                "velocity": 80,
                "duration": 0.3999999999999986,
                "tempo": 120.0
            },
            {
                "start_time": 25.368181818181817,
                "end_time": 25.568181818181817,
                "pitch": 81,
                "velocity": 80,
                "duration": 0.1999999999999993,
                "tempo": 120.0
            },
            {
                "start_time": 25.568181818181817,
                "end_time": 25.775,
                "pitch": 81,
                "velocity": 80,
                "duration": 0.206818181818182,
                "tempo": 120.0
            },
            {
                "start_time": 25.775,
                "end_time": 25.979545454545452,
                "pitch": 81,
                "velocity": 80,
                "duration": 0.20454545454545325,
                "tempo": 120.0
            },
            {
                "start_time": 25.98181818181818,
                "end_time": 26.079545454545453,
                "pitch": 86,
                "velocity": 80,
                "duration": 0.09772727272727266,
                "tempo": 120.0
            },
            {
                "start_time": 26.18181818181818,
                "end_time": 26.229545454545452,
                "pitch": 79,
                "velocity": 80,
                "duration": 0.04772727272727195,
                "tempo": 120.0
            },
            {
                "start_time": 22.704545454545453,
                "end_time": 26.229545454545452,
                "pitch": 91,
                "velocity": 80,
                "duration": 3.5249999999999986,
                "tempo": 120.0
            },
            {
                "start_time": 26.229545454545452,
                "end_time": 26.279545454545453,
                "pitch": 79,
                "velocity": 80,
                "duration": 0.05000000000000071,
                "tempo": 120.0
            },
            {
                "start_time": 26.28181818181818,
                "end_time": 26.38181818181818,
                "pitch": 79,
                "velocity": 80,
                "duration": 0.09999999999999787,
                "tempo": 120.0
            },
            {
                "start_time": 26.38181818181818,
                "end_time": 26.395454545454545,
                "pitch": 79,
                "velocity": 80,
                "duration": 0.013636363636365445,
                "tempo": 120.0
            },
            {
                "start_time": 26.229545454545452,
                "end_time": 26.395454545454545,
                "pitch": 91,
                "velocity": 80,
                "duration": 0.16590909090909278,
                "tempo": 120.0
            },
            {
                "start_time": 26.395454545454545,
                "end_time": 26.563636363636363,
                "pitch": 79,
                "velocity": 80,
                "duration": 0.168181818181818,
                "tempo": 120.0
            },
            {
                "start_time": 26.395454545454545,
                "end_time": 26.563636363636363,
                "pitch": 91,
                "velocity": 80,
                "duration": 0.168181818181818,
                "tempo": 120.0
            },
            {
                "start_time": 26.563636363636363,
                "end_time": 26.73181818181818,
                "pitch": 79,
                "velocity": 80,
                "duration": 0.168181818181818,
                "tempo": 120.0
            },
            {
                "start_time": 26.563636363636363,
                "end_time": 26.73181818181818,
                "pitch": 91,
                "velocity": 80,
                "duration": 0.168181818181818,
                "tempo": 120.0
            },
            {
                "start_time": 26.73181818181818,
                "end_time": 26.784090909090907,
                "pitch": 79,
                "velocity": 80,
                "duration": 0.052272727272725916,
                "tempo": 120.0
            },
            {
                "start_time": 26.784090909090907,
                "end_time": 26.886363636363637,
                "pitch": 86,
                "velocity": 80,
                "duration": 0.10227272727273018,
                "tempo": 120.0
            },
            {
                "start_time": 26.99090909090909,
                "end_time": 27.07272727272727,
                "pitch": 79,
                "velocity": 80,
                "duration": 0.08181818181818201,
                "tempo": 120.0
            },
            {
                "start_time": 26.73181818181818,
                "end_time": 27.07272727272727,
                "pitch": 91,
                "velocity": 80,
                "duration": 0.34090909090908994,
                "tempo": 120.0
            },
            {
                "start_time": 27.07272727272727,
                "end_time": 27.093181818181815,
                "pitch": 79,
                "velocity": 80,
                "duration": 0.020454545454544615,
                "tempo": 120.0
            },
            {
                "start_time": 27.07272727272727,
                "end_time": 27.093181818181815,
                "pitch": 91,
                "velocity": 80,
                "duration": 0.020454545454544615,
                "tempo": 120.0
            },
            {
                "start_time": 27.093181818181815,
                "end_time": 27.195454545454545,
                "pitch": 79,
                "velocity": 80,
                "duration": 0.10227272727273018,
                "tempo": 120.0
            },
            {
                "start_time": 27.093181818181815,
                "end_time": 27.195454545454545,
                "pitch": 79,
                "velocity": 80,
                "duration": 0.10227272727273018,
                "tempo": 120.0
            },
            {
                "start_time": 27.195454545454545,
                "end_time": 27.243181818181817,
                "pitch": 79,
                "velocity": 80,
                "duration": 0.04772727272727195,
                "tempo": 120.0
            },
            {
                "start_time": 27.093181818181815,
                "end_time": 27.243181818181817,
                "pitch": 91,
                "velocity": 80,
                "duration": 0.15000000000000213,
                "tempo": 120.0
            },
            {
                "start_time": 27.243181818181817,
                "end_time": 27.40681818181818,
                "pitch": 79,
                "velocity": 80,
                "duration": 0.16363636363636402,
                "tempo": 120.0
            },
            {
                "start_time": 27.243181818181817,
                "end_time": 27.40681818181818,
                "pitch": 91,
                "velocity": 80,
                "duration": 0.16363636363636402,
                "tempo": 120.0
            },
            {
                "start_time": 27.40681818181818,
                "end_time": 27.570454545454545,
                "pitch": 79,
                "velocity": 80,
                "duration": 0.16363636363636402,
                "tempo": 120.0
            },
            {
                "start_time": 27.40681818181818,
                "end_time": 27.570454545454545,
                "pitch": 91,
                "velocity": 80,
                "duration": 0.16363636363636402,
                "tempo": 120.0
            },
            {
                "start_time": 27.570454545454545,
                "end_time": 27.58863636363636,
                "pitch": 79,
                "velocity": 80,
                "duration": 0.018181818181815856,
                "tempo": 120.0
            },
            {
                "start_time": 27.570454545454545,
                "end_time": 27.58863636363636,
                "pitch": 91,
                "velocity": 80,
                "duration": 0.018181818181815856,
                "tempo": 120.0
            },
            {
                "start_time": 27.58863636363636,
                "end_time": 27.688636363636363,
                "pitch": 79,
                "velocity": 80,
                "duration": 0.10000000000000142,
                "tempo": 120.0
            },
            {
                "start_time": 27.58863636363636,
                "end_time": 27.688636363636363,
                "pitch": 79,
                "velocity": 80,
                "duration": 0.10000000000000142,
                "tempo": 120.0
            },
            {
                "start_time": 27.793181818181818,
                "end_time": 27.895454545454545,
                "pitch": 79,
                "velocity": 80,
                "duration": 0.10227272727272663,
                "tempo": 120.0
            },
            {
                "start_time": 28.0,
                "end_time": 28.095454545454544,
                "pitch": 81,
                "velocity": 80,
                "duration": 0.0954545454545439,
                "tempo": 120.0
            },
            {
                "start_time": 28.195454545454545,
                "end_time": 28.293181818181818,
                "pitch": 83,
                "velocity": 80,
                "duration": 0.09772727272727266,
                "tempo": 120.0
            },
            {
                "start_time": 28.39090909090909,
                "end_time": 28.49090909090909,
                "pitch": 84,
                "velocity": 80,
                "duration": 0.09999999999999787,
                "tempo": 120.0
            },
            {
                "start_time": 27.58863636363636,
                "end_time": 28.593181818181815,
                "pitch": 91,
                "velocity": 80,
                "duration": 1.004545454545454,
                "tempo": 120.0
            },
            {
                "start_time": 28.593181818181815,
                "end_time": 28.693181818181817,
                "pitch": 79,
                "velocity": 80,
                "duration": 0.10000000000000142,
                "tempo": 120.0
            },
            {
                "start_time": 28.593181818181815,
                "end_time": 28.693181818181817,
                "pitch": 79,
                "velocity": 80,
                "duration": 0.10000000000000142,
                "tempo": 120.0
            },
            {
                "start_time": 28.795454545454543,
                "end_time": 28.893181818181816,
                "pitch": 84,
                "velocity": 80,
                "duration": 0.09772727272727266,
                "tempo": 120.0
            },
            {
                "start_time": 29.195454545454545,
                "end_time": 30.804545454545455,
                "pitch": 96,
                "velocity": 51,
                "duration": 1.6090909090909093,
                "tempo": 120.0
            },
            {
                "start_time": 32.40909090909091,
                "end_time": 34.025,
                "pitch": 96,
                "velocity": 51,
                "duration": 1.615909090909092,
                "tempo": 120.0
            },
            {
                "start_time": 35.62954545454545,
                "end_time": 37.23409090909091,
                "pitch": 98,
                "velocity": 51,
                "duration": 1.604545454545459,
                "tempo": 120.0
            },
            {
                "start_time": 38.84318181818182,
                "end_time": 40.45454545454545,
                "pitch": 96,
                "velocity": 51,
                "duration": 1.6113636363636346,
                "tempo": 120.0
            }
        ],
        "Trumpet": [
            {
                "start_time": 2.6295454545454544,
                "end_time": 2.7318181818181815,
                "pitch": 48,
                "velocity": 80,
                "duration": 0.10227272727272707,
                "tempo": 120.0
            },
            {
                "start_time": 2.834090909090909,
                "end_time": 2.936363636363636,
                "pitch": 45,
                "velocity": 80,
                "duration": 0.10227272727272707,
                "tempo": 120.0
            },
            {
                "start_time": 3.0409090909090906,
                "end_time": 3.1386363636363637,
                "pitch": 43,
                "velocity": 80,
                "duration": 0.0977272727272731,
                "tempo": 120.0
            },
            {
                "start_time": 3.2363636363636363,
                "end_time": 3.334090909090909,
                "pitch": 40,
                "velocity": 80,
                "duration": 0.09772727272727266,
                "tempo": 120.0
            },
            {
                "start_time": 3.436363636363636,
                "end_time": 3.6386363636363637,
                "pitch": 48,
                "velocity": 80,
                "duration": 0.2022727272727276,
                "tempo": 120.0
            },
            {
                "start_time": 3.8477272727272727,
                "end_time": 3.961363636363636,
                "pitch": 43,
                "velocity": 80,
                "duration": 0.11363636363636331,
                "tempo": 120.0
            },
            {
                "start_time": 3.961363636363636,
                "end_time": 4.011363636363636,
                "pitch": 43,
                "velocity": 80,
                "duration": 0.04999999999999982,
                "tempo": 120.0
            },
            {
                "start_time": 4.011363636363636,
                "end_time": 4.045454545454545,
                "pitch": 43,
                "velocity": 80,
                "duration": 0.03409090909090917,
                "tempo": 120.0
            },
            {
                "start_time": 4.247727272727272,
                "end_time": 4.445454545454545,
                "pitch": 45,
                "velocity": 80,
                "duration": 0.1977272727272732,
                "tempo": 120.0
            },
            {
                "start_time": 4.6477272727272725,
                "end_time": 4.85,
                "pitch": 47,
                "velocity": 80,
                "duration": 0.20227272727272716,
                "tempo": 120.0
            },
            {
                "start_time": 5.05,
                "end_time": 5.252272727272727,
                "pitch": 48,
                "velocity": 80,
                "duration": 0.20227272727272716,
                "tempo": 120.0
            },
            {
                "start_time": 5.454545454545454,
                "end_time": 5.468181818181818,
                "pitch": 43,
                "velocity": 80,
                "duration": 0.013636363636363669,
                "tempo": 120.0
            },
            {
                "start_time": 3.961363636363636,
                "end_time": 5.468181818181818,
                "pitch": 55,
                "velocity": 80,
                "duration": 1.5068181818181818,
                "tempo": 120.0
            },
            {
                "start_time": 4.011363636363636,
                "end_time": 5.518181818181818,
                "pitch": 0,
                "velocity": 80,
                "duration": 1.5068181818181818,
                "tempo": 120.0
            },
            {
                "start_time": 5.468181818181818,
                "end_time": 5.518181818181818,
                "pitch": 43,
                "velocity": 80,
                "duration": 0.04999999999999982,
                "tempo": 120.0
            },
            {
                "start_time": 5.518181818181818,
                "end_time": 5.634090909090909,
                "pitch": 43,
                "velocity": 80,
                "duration": 0.11590909090909118,
                "tempo": 120.0
            },
            {
                "start_time": 5.468181818181818,
                "end_time": 5.636363636363636,
                "pitch": 55,
                "velocity": 80,
                "duration": 0.168181818181818,
                "tempo": 120.0
            },
            {
                "start_time": 5.634090909090909,
                "end_time": 5.636363636363636,
                "pitch": 55,
                "velocity": 80,
                "duration": 0.002272727272726982,
                "tempo": 120.0
            },
            {
                "start_time": 5.636363636363636,
                "end_time": 5.654545454545454,
                "pitch": 43,
                "velocity": 80,
                "duration": 0.01818181818181852,
                "tempo": 120.0
            },
            {
                "start_time": 5.8545454545454545,
                "end_time": 6.054545454545455,
                "pitch": 45,
                "velocity": 80,
                "duration": 0.20000000000000018,
                "tempo": 120.0
            },
            {
                "start_time": 6.256818181818182,
                "end_time": 6.459090909090909,
                "pitch": 47,
                "velocity": 80,
                "duration": 0.20227272727272716,
                "tempo": 120.0
            },
            {
                "start_time": 6.661363636363636,
                "end_time": 6.861363636363636,
                "pitch": 54,
                "velocity": 80,
                "duration": 0.20000000000000018,
                "tempo": 120.0
            },
            {
                "start_time": 7.061363636363636,
                "end_time": 7.261363636363636,
                "pitch": 48,
                "velocity": 80,
                "duration": 0.20000000000000018,
                "tempo": 120.0
            },
            {
                "start_time": 7.465909090909091,
                "end_time": 7.670454545454545,
                "pitch": 54,
                "velocity": 80,
                "duration": 0.20454545454545414,
                "tempo": 120.0
            },
            {
                "start_time": 7.875,
                "end_time": 8.070454545454545,
                "pitch": 48,
                "velocity": 80,
                "duration": 0.19545454545454533,
                "tempo": 120.0
            },
            {
                "start_time": 8.268181818181818,
                "end_time": 8.472727272727273,
                "pitch": 54,
                "velocity": 80,
                "duration": 0.20454545454545503,
                "tempo": 120.0
            },
            {
                "start_time": 8.472727272727273,
                "end_time": 8.556818181818182,
                "pitch": 53,
                "velocity": 80,
                "duration": 0.084090909090909,
                "tempo": 120.0
            },
            {
                "start_time": 8.679545454545455,
                "end_time": 8.759090909090908,
                "pitch": 52,
                "velocity": 80,
                "duration": 0.07954545454545325,
                "tempo": 120.0
            },
            {
                "start_time": 8.875,
                "end_time": 8.954545454545453,
                "pitch": 51,
                "velocity": 80,
                "duration": 0.07954545454545325,
                "tempo": 120.0
            },
            {
                "start_time": 9.072727272727272,
                "end_time": 9.270454545454545,
                "pitch": 50,
                "velocity": 80,
                "duration": 0.1977272727272723,
                "tempo": 120.0
            },
            {
                "start_time": 9.270454545454545,
                "end_time": 9.354545454545454,
                "pitch": 51,
                "velocity": 80,
                "duration": 0.084090909090909,
                "tempo": 120.0
            },
            {
                "start_time": 9.472727272727273,
                "end_time": 9.556818181818182,
                "pitch": 52,
                "velocity": 80,
                "duration": 0.084090909090909,
                "tempo": 120.0
            },
            {
                "start_time": 9.677272727272726,
                "end_time": 9.761363636363637,
                "pitch": 53,
                "velocity": 80,
                "duration": 0.08409090909091077,
                "tempo": 120.0
            },
            {
                "start_time": 9.884090909090908,
                "end_time": 10.077272727272726,
                "pitch": 48,
                "velocity": 80,
                "duration": 0.19318181818181834,
                "tempo": 120.0
            },
            {
                "start_time": 10.277272727272727,
                "end_time": 10.325,
                "pitch": 43,
                "velocity": 80,
                "duration": 0.04772727272727195,
                "tempo": 120.0
            },
            {
                "start_time": 5.518181818181818,
                "end_time": 10.377272727272727,
                "pitch": 0,
                "velocity": 80,
                "duration": 4.859090909090909,
                "tempo": 120.0
            },
            {
                "start_time": 10.325,
                "end_time": 10.377272727272727,
                "pitch": 43,
                "velocity": 80,
                "duration": 0.05227272727272769,
                "tempo": 120.0
            },
            {
                "start_time": 10.377272727272727,
                "end_time": 10.479545454545454,
                "pitch": 43,
                "velocity": 80,
                "duration": 0.10227272727272663,
                "tempo": 120.0
            },
            {
                "start_time": 10.688636363636363,
                "end_time": 10.886363636363637,
                "pitch": 45,
                "velocity": 80,
                "duration": 0.19772727272727408,
                "tempo": 120.0
            },
            {
                "start_time": 11.088636363636363,
                "end_time": 11.290909090909091,
                "pitch": 47,
                "velocity": 80,
                "duration": 0.20227272727272805,
                "tempo": 120.0
            },
            {
                "start_time": 11.49090909090909,
                "end_time": 11.693181818181818,
                "pitch": 48,
                "velocity": 80,
                "duration": 0.20227272727272805,
                "tempo": 120.0
            },
            {
                "start_time": 11.895454545454545,
                "end_time": 12.009090909090908,
                "pitch": 43,
                "velocity": 80,
                "duration": 0.11363636363636331,
                "tempo": 120.0
            },
            {
                "start_time": 10.325,
                "end_time": 12.009090909090908,
                "pitch": 55,
                "velocity": 80,
                "duration": 1.6840909090909086,
                "tempo": 120.0
            },
            {
                "start_time": 10.377272727272727,
                "end_time": 12.061363636363636,
                "pitch": 0,
                "velocity": 80,
                "duration": 1.6840909090909086,
                "tempo": 120.0
            },
            {
                "start_time": 12.009090909090908,
                "end_time": 12.061363636363636,
                "pitch": 43,
                "velocity": 80,
                "duration": 0.05227272727272769,
                "tempo": 120.0
            },
            {
                "start_time": 12.061363636363636,
                "end_time": 12.095454545454546,
                "pitch": 43,
                "velocity": 80,
                "duration": 0.03409090909091006,
                "tempo": 120.0
            },
            {
                "start_time": 12.297727272727272,
                "end_time": 12.497727272727271,
                "pitch": 45,
                "velocity": 80,
                "duration": 0.1999999999999993,
                "tempo": 120.0
            },
            {
                "start_time": 12.7,
                "end_time": 12.902272727272727,
                "pitch": 47,
                "velocity": 80,
                "duration": 0.20227272727272805,
                "tempo": 120.0
            },
            {
                "start_time": 13.104545454545454,
                "end_time": 13.304545454545455,
                "pitch": 54,
                "velocity": 80,
                "duration": 0.20000000000000107,
                "tempo": 120.0
            },
            {
                "start_time": 13.504545454545454,
                "end_time": 13.704545454545453,
                "pitch": 48,
                "velocity": 80,
                "duration": 0.1999999999999993,
                "tempo": 120.0
            },
            {
                "start_time": 13.909090909090908,
                "end_time": 14.113636363636363,
                "pitch": 54,
                "velocity": 80,
                "duration": 0.20454545454545503,
                "tempo": 120.0
            },
            {
                "start_time": 14.318181818181818,
                "end_time": 14.513636363636364,
                "pitch": 48,
                "velocity": 80,
                "duration": 0.19545454545454533,
                "tempo": 120.0
            },
            {
                "start_time": 14.713636363636363,
                "end_time": 14.915909090909091,
                "pitch": 54,
                "velocity": 80,
                "duration": 0.20227272727272805,
                "tempo": 120.0
            },
            {
                "start_time": 14.918181818181818,
                "end_time": 15.0,
                "pitch": 53,
                "velocity": 80,
                "duration": 0.08181818181818201,
                "tempo": 120.0
            },
            {
                "start_time": 15.122727272727271,
                "end_time": 15.202272727272726,
                "pitch": 52,
                "velocity": 80,
                "duration": 0.07954545454545503,
                "tempo": 120.0
            },
            {
                "start_time": 15.318181818181817,
                "end_time": 15.399999999999999,
                "pitch": 51,
                "velocity": 80,
                "duration": 0.08181818181818201,
                "tempo": 120.0
            },
            {
                "start_time": 15.51590909090909,
                "end_time": 15.71590909090909,
                "pitch": 50,
                "velocity": 80,
                "duration": 0.1999999999999993,
                "tempo": 120.0
            },
            {
                "start_time": 15.718181818181817,
                "end_time": 15.799999999999999,
                "pitch": 51,
                "velocity": 80,
                "duration": 0.08181818181818201,
                "tempo": 120.0
            },
            {
                "start_time": 15.918181818181818,
                "end_time": 16.0,
                "pitch": 52,
                "velocity": 80,
                "duration": 0.08181818181818201,
                "tempo": 120.0
            },
            {
                "start_time": 16.120454545454546,
                "end_time": 16.202272727272728,
                "pitch": 53,
                "velocity": 80,
                "duration": 0.08181818181818201,
                "tempo": 120.0
            },
            {
                "start_time": 16.32272727272727,
                "end_time": 16.520454545454545,
                "pitch": 36,
                "velocity": 80,
                "duration": 0.19772727272727408,
                "tempo": 120.0
            },
            {
                "start_time": 12.061363636363636,
                "end_time": 16.736363636363635,
                "pitch": 0,
                "velocity": 80,
                "duration": 4.674999999999999,
                "tempo": 120.0
            },
            {
                "start_time": 16.720454545454544,
                "end_time": 16.736363636363635,
                "pitch": 31,
                "velocity": 80,
                "duration": 0.01590909090909065,
                "tempo": 120.0
            },
            {
                "start_time": 16.720454545454544,
                "end_time": 16.736363636363635,
                "pitch": 31,
                "velocity": 80,
                "duration": 0.01590909090909065,
                "tempo": 120.0
            },
            {
                "start_time": 16.736363636363635,
                "end_time": 16.888636363636362,
                "pitch": 31,
                "velocity": 80,
                "duration": 0.15227272727272734,
                "tempo": 120.0
            },
            {
                "start_time": 16.720454545454544,
                "end_time": 16.888636363636362,
                "pitch": 43,
                "velocity": 80,
                "duration": 0.168181818181818,
                "tempo": 120.0
            },
            {
                "start_time": 16.736363636363635,
                "end_time": 16.904545454545453,
                "pitch": 0,
                "velocity": 80,
                "duration": 0.168181818181818,
                "tempo": 120.0
            },
            {
                "start_time": 16.888636363636362,
                "end_time": 16.904545454545453,
                "pitch": 31,
                "velocity": 80,
                "duration": 0.01590909090909065,
                "tempo": 120.0
            },
            {
                "start_time": 16.904545454545453,
                "end_time": 16.925,
                "pitch": 31,
                "velocity": 80,
                "duration": 0.020454545454548168,
                "tempo": 120.0
            },
            {
                "start_time": 17.125,
                "end_time": 17.325,
                "pitch": 36,
                "velocity": 80,
                "duration": 0.1999999999999993,
                "tempo": 120.0
            },
            {
                "start_time": 17.525,
                "end_time": 17.55909090909091,
                "pitch": 31,
                "velocity": 80,
                "duration": 0.03409090909091006,
                "tempo": 120.0
            },
            {
                "start_time": 16.888636363636362,
                "end_time": 17.55909090909091,
                "pitch": 43,
                "velocity": 80,
                "duration": 0.6704545454545467,
                "tempo": 120.0
            },
            {
                "start_time": 16.904545454545453,
                "end_time": 17.575,
                "pitch": 0,
                "velocity": 80,
                "duration": 0.6704545454545467,
                "tempo": 120.0
            },
            {
                "start_time": 17.55909090909091,
                "end_time": 17.575,
                "pitch": 31,
                "velocity": 80,
                "duration": 0.01590909090909065,
                "tempo": 120.0
            },
            {
                "start_time": 17.575,
                "end_time": 17.625,
                "pitch": 31,
                "velocity": 80,
                "duration": 0.05000000000000071,
                "tempo": 120.0
            },
            {
                "start_time": 17.55909090909091,
                "end_time": 17.727272727272727,
                "pitch": 43,
                "velocity": 80,
                "duration": 0.168181818181818,
                "tempo": 120.0
            },
            {
                "start_time": 17.575,
                "end_time": 17.743181818181817,
                "pitch": 0,
                "velocity": 80,
                "duration": 0.168181818181818,
                "tempo": 120.0
            },
            {
                "start_time": 17.727272727272727,
                "end_time": 17.743181818181817,
                "pitch": 31,
                "velocity": 80,
                "duration": 0.01590909090909065,
                "tempo": 120.0
            },
            {
                "start_time": 17.727272727272727,
                "end_time": 17.743181818181817,
                "pitch": 31,
                "velocity": 80,
                "duration": 0.01590909090909065,
                "tempo": 120.0
            },
            {
                "start_time": 17.743181818181817,
                "end_time": 17.827272727272728,
                "pitch": 31,
                "velocity": 80,
                "duration": 0.08409090909091077,
                "tempo": 120.0
            },
            {
                "start_time": 17.929545454545455,
                "end_time": 18.127272727272725,
                "pitch": 36,
                "velocity": 80,
                "duration": 0.19772727272727053,
                "tempo": 120.0
            },
            {
                "start_time": 18.329545454545453,
                "end_time": 18.395454545454545,
                "pitch": 31,
                "velocity": 80,
                "duration": 0.06590909090909136,
                "tempo": 120.0
            },
            {
                "start_time": 17.727272727272727,
                "end_time": 18.395454545454545,
                "pitch": 43,
                "velocity": 80,
                "duration": 0.668181818181818,
                "tempo": 120.0
            },
            {
                "start_time": 17.743181818181817,
                "end_time": 18.411363636363635,
                "pitch": 0,
                "velocity": 80,
                "duration": 0.668181818181818,
                "tempo": 120.0
            },
            {
                "start_time": 18.395454545454545,
                "end_time": 18.411363636363635,
                "pitch": 31,
                "velocity": 80,
                "duration": 0.01590909090909065,
                "tempo": 120.0
            },
            {
                "start_time": 18.411363636363635,
                "end_time": 18.529545454545453,
                "pitch": 31,
                "velocity": 80,
                "duration": 0.11818181818181728,
                "tempo": 120.0
            },
            {
                "start_time": 18.73181818181818,
                "end_time": 18.831818181818182,
                "pitch": 36,
                "velocity": 80,
                "duration": 0.10000000000000142,
                "tempo": 120.0
            },
            {
                "start_time": 18.93409090909091,
                "end_time": 19.036363636363635,
                "pitch": 31,
                "velocity": 80,
                "duration": 0.10227272727272663,
                "tempo": 120.0
            },
            {
                "start_time": 19.14090909090909,
                "end_time": 19.24090909090909,
                "pitch": 36,
                "velocity": 80,
                "duration": 0.09999999999999787,
                "tempo": 120.0
            },
            {
                "start_time": 19.34318181818182,
                "end_time": 19.443181818181817,
                "pitch": 37,
                "velocity": 80,
                "duration": 0.09999999999999787,
                "tempo": 120.0
            },
            {
                "start_time": 19.545454545454543,
                "end_time": 19.738636363636363,
                "pitch": 38,
                "velocity": 80,
                "duration": 0.19318181818182012,
                "tempo": 120.0
            },
            {
                "start_time": 19.936363636363634,
                "end_time": 20.070454545454545,
                "pitch": 31,
                "velocity": 80,
                "duration": 0.13409090909091148,
                "tempo": 120.0
            },
            {
                "start_time": 18.395454545454545,
                "end_time": 20.070454545454545,
                "pitch": 43,
                "velocity": 80,
                "duration": 1.6750000000000007,
                "tempo": 120.0
            },
            {
                "start_time": 18.411363636363635,
                "end_time": 20.086363636363636,
                "pitch": 0,
                "velocity": 80,
                "duration": 1.6750000000000007,
                "tempo": 120.0
            },
            {
                "start_time": 20.070454545454545,
                "end_time": 20.086363636363636,
                "pitch": 31,
                "velocity": 80,
                "duration": 0.01590909090909065,
                "tempo": 120.0
            },
            {
                "start_time": 20.086363636363636,
                "end_time": 20.136363636363637,
                "pitch": 31,
                "velocity": 80,
                "duration": 0.05000000000000071,
                "tempo": 120.0
            },
            {
                "start_time": 20.336363636363636,
                "end_time": 20.536363636363635,
                "pitch": 38,
                "velocity": 80,
                "duration": 0.1999999999999993,
                "tempo": 120.0
            },
            {
                "start_time": 20.070454545454545,
                "end_time": 20.738636363636363,
                "pitch": 43,
                "velocity": 80,
                "duration": 0.668181818181818,
                "tempo": 120.0
            },
            {
                "start_time": 20.086363636363636,
                "end_time": 20.754545454545454,
                "pitch": 0,
                "velocity": 80,
                "duration": 0.668181818181818,
                "tempo": 120.0
            },
            {
                "start_time": 20.738636363636363,
                "end_time": 20.754545454545454,
                "pitch": 31,
                "velocity": 80,
                "duration": 0.01590909090909065,
                "tempo": 120.0
            },
            {
                "start_time": 20.738636363636363,
                "end_time": 20.754545454545454,
                "pitch": 31,
                "velocity": 80,
                "duration": 0.01590909090909065,
                "tempo": 120.0
            },
            {
                "start_time": 20.754545454545454,
                "end_time": 20.909090909090907,
                "pitch": 31,
                "velocity": 80,
                "duration": 0.15454545454545254,
                "tempo": 120.0
            },
            {
                "start_time": 20.738636363636363,
                "end_time": 20.909090909090907,
                "pitch": 43,
                "velocity": 80,
                "duration": 0.1704545454545432,
                "tempo": 120.0
            },
            {
                "start_time": 20.754545454545454,
                "end_time": 20.925,
                "pitch": 0,
                "velocity": 80,
                "duration": 0.17045454545454675,
                "tempo": 120.0
            },
            {
                "start_time": 20.909090909090907,
                "end_time": 20.925,
                "pitch": 31,
                "velocity": 80,
                "duration": 0.015909090909094203,
                "tempo": 120.0
            },
            {
                "start_time": 20.925,
                "end_time": 20.943181818181817,
                "pitch": 31,
                "velocity": 80,
                "duration": 0.018181818181815856,
                "tempo": 120.0
            },
            {
                "start_time": 21.15,
                "end_time": 21.349999999999998,
                "pitch": 38,
                "velocity": 80,
                "duration": 0.1999999999999993,
                "tempo": 120.0
            },
            {
                "start_time": 21.554545454545455,
                "end_time": 21.584090909090907,
                "pitch": 31,
                "velocity": 80,
                "duration": 0.029545454545452543,
                "tempo": 120.0
            },
            {
                "start_time": 20.909090909090907,
                "end_time": 21.584090909090907,
                "pitch": 43,
                "velocity": 80,
                "duration": 0.6750000000000007,
                "tempo": 120.0
            },
            {
                "start_time": 20.925,
                "end_time": 21.602272727272727,
                "pitch": 0,
                "velocity": 80,
                "duration": 0.6772727272727259,
                "tempo": 120.0
            },
            {
                "start_time": 21.584090909090907,
                "end_time": 21.602272727272727,
                "pitch": 31,
                "velocity": 80,
                "duration": 0.01818181818181941,
                "tempo": 120.0
            },
            {
                "start_time": 21.602272727272727,
                "end_time": 21.754545454545454,
                "pitch": 31,
                "velocity": 80,
                "duration": 0.15227272727272734,
                "tempo": 120.0
            },
            {
                "start_time": 21.584090909090907,
                "end_time": 21.754545454545454,
                "pitch": 43,
                "velocity": 80,
                "duration": 0.17045454545454675,
                "tempo": 120.0
            },
            {
                "start_time": 21.952272727272724,
                "end_time": 22.052272727272726,
                "pitch": 38,
                "velocity": 80,
                "duration": 0.10000000000000142,
                "tempo": 120.0
            },
            {
                "start_time": 22.15681818181818,
                "end_time": 22.254545454545454,
                "pitch": 38,
                "velocity": 80,
                "duration": 0.09772727272727266,
                "tempo": 120.0
            },
            {
                "start_time": 22.35681818181818,
                "end_time": 22.454545454545453,
                "pitch": 40,
                "velocity": 80,
                "duration": 0.09772727272727266,
                "tempo": 120.0
            },
            {
                "start_time": 22.55681818181818,
                "end_time": 22.65681818181818,
                "pitch": 38,
                "velocity": 80,
                "duration": 0.10000000000000142,
                "tempo": 120.0
            },
            {
                "start_time": 22.759090909090908,
                "end_time": 22.956818181818182,
                "pitch": 36,
                "velocity": 80,
                "duration": 0.19772727272727408,
                "tempo": 120.0
            },
            {
                "start_time": 21.754545454545454,
                "end_time": 23.25681818181818,
                "pitch": 31,
                "velocity": 80,
                "duration": 1.5022727272727252,
                "tempo": 120.0
            },
            {
                "start_time": 23.159090909090907,
                "end_time": 23.25681818181818,
                "pitch": 31,
                "velocity": 80,
                "duration": 0.09772727272727266,
                "tempo": 120.0
            },
            {
                "start_time": 21.754545454545454,
                "end_time": 23.25681818181818,
                "pitch": 43,
                "velocity": 80,
                "duration": 1.5022727272727252,
                "tempo": 120.0
            },
            {
                "start_time": 23.35909090909091,
                "end_time": 23.55909090909091,
                "pitch": 36,
                "velocity": 80,
                "duration": 0.1999999999999993,
                "tempo": 120.0
            },
            {
                "start_time": 23.761363636363637,
                "end_time": 23.85909090909091,
                "pitch": 36,
                "velocity": 80,
                "duration": 0.09772727272727266,
                "tempo": 120.0
            },
            {
                "start_time": 23.961363636363636,
                "end_time": 24.163636363636364,
                "pitch": 36,
                "velocity": 80,
                "duration": 0.20227272727272805,
                "tempo": 120.0
            },
            {
                "start_time": 24.163636363636364,
                "end_time": 24.36590909090909,
                "pitch": 35,
                "velocity": 80,
                "duration": 0.2022727272727245,
                "tempo": 120.0
            },
            {
                "start_time": 24.36590909090909,
                "end_time": 24.56590909090909,
                "pitch": 33,
                "velocity": 80,
                "duration": 0.20000000000000284,
                "tempo": 120.0
            },
            {
                "start_time": 24.76590909090909,
                "end_time": 24.863636363636363,
                "pitch": 28,
                "velocity": 80,
                "duration": 0.09772727272727266,
                "tempo": 120.0
            },
            {
                "start_time": 24.96590909090909,
                "end_time": 25.163636363636364,
                "pitch": 33,
                "velocity": 80,
                "duration": 0.19772727272727408,
                "tempo": 120.0
            },
            {
                "start_time": 25.368181818181817,
                "end_time": 25.46590909090909,
                "pitch": 33,
                "velocity": 80,
                "duration": 0.09772727272727266,
                "tempo": 120.0
            },
            {
                "start_time": 25.570454545454545,
                "end_time": 25.775,
                "pitch": 35,
                "velocity": 80,
                "duration": 0.20454545454545325,
                "tempo": 120.0
            },
            {
                "start_time": 25.775,
                "end_time": 25.98181818181818,
                "pitch": 36,
                "velocity": 80,
                "duration": 0.206818181818182,
                "tempo": 120.0
            },
            {
                "start_time": 25.98181818181818,
                "end_time": 26.079545454545453,
                "pitch": 38,
                "velocity": 80,
                "duration": 0.09772727272727266,
                "tempo": 120.0
            },
            {
                "start_time": 23.25681818181818,
                "end_time": 26.28181818181818,
                "pitch": 31,
                "velocity": 80,
                "duration": 3.025000000000002,
                "tempo": 120.0
            },
            {
                "start_time": 26.18181818181818,
                "end_time": 26.28181818181818,
                "pitch": 31,
                "velocity": 80,
                "duration": 0.10000000000000142,
                "tempo": 120.0
            },
            {
                "start_time": 23.25681818181818,
                "end_time": 26.28181818181818,
                "pitch": 43,
                "velocity": 80,
                "duration": 3.025000000000002,
                "tempo": 120.0
            },
            {
                "start_time": 21.602272727272727,
                "end_time": 26.295454545454543,
                "pitch": 0,
                "velocity": 80,
                "duration": 4.693181818181817,
                "tempo": 120.0
            },
            {
                "start_time": 26.28181818181818,
                "end_time": 26.295454545454543,
                "pitch": 31,
                "velocity": 80,
                "duration": 0.013636363636361892,
                "tempo": 120.0
            },
            {
                "start_time": 26.28181818181818,
                "end_time": 26.295454545454543,
                "pitch": 31,
                "velocity": 80,
                "duration": 0.013636363636361892,
                "tempo": 120.0
            },
            {
                "start_time": 26.28181818181818,
                "end_time": 26.295454545454543,
                "pitch": 31,
                "velocity": 80,
                "duration": 0.013636363636361892,
                "tempo": 120.0
            },
            {
                "start_time": 26.295454545454543,
                "end_time": 26.38181818181818,
                "pitch": 31,
                "velocity": 80,
                "duration": 0.08636363636363598,
                "tempo": 120.0
            },
            {
                "start_time": 26.38181818181818,
                "end_time": 26.44772727272727,
                "pitch": 31,
                "velocity": 80,
                "duration": 0.06590909090909136,
                "tempo": 120.0
            },
            {
                "start_time": 26.28181818181818,
                "end_time": 26.44772727272727,
                "pitch": 43,
                "velocity": 80,
                "duration": 0.16590909090908923,
                "tempo": 120.0
            },
            {
                "start_time": 26.28181818181818,
                "end_time": 26.44772727272727,
                "pitch": 43,
                "velocity": 80,
                "duration": 0.16590909090908923,
                "tempo": 120.0
            },
            {
                "start_time": 26.295454545454543,
                "end_time": 26.46363636363636,
                "pitch": 0,
                "velocity": 80,
                "duration": 0.168181818181818,
                "tempo": 120.0
            },
            {
                "start_time": 26.44772727272727,
                "end_time": 26.46363636363636,
                "pitch": 31,
                "velocity": 80,
                "duration": 0.01590909090909065,
                "tempo": 120.0
            },
            {
                "start_time": 26.46363636363636,
                "end_time": 26.613636363636363,
                "pitch": 31,
                "velocity": 80,
                "duration": 0.15000000000000213,
                "tempo": 120.0
            },
            {
                "start_time": 26.44772727272727,
                "end_time": 26.613636363636363,
                "pitch": 43,
                "velocity": 80,
                "duration": 0.16590909090909278,
                "tempo": 120.0
            },
            {
                "start_time": 26.46363636363636,
                "end_time": 26.63181818181818,
                "pitch": 0,
                "velocity": 80,
                "duration": 0.168181818181818,
                "tempo": 120.0
            },
            {
                "start_time": 26.613636363636363,
                "end_time": 26.63181818181818,
                "pitch": 31,
                "velocity": 80,
                "duration": 0.018181818181815856,
                "tempo": 120.0
            },
            {
                "start_time": 26.63181818181818,
                "end_time": 26.784090909090907,
                "pitch": 31,
                "velocity": 80,
                "duration": 0.15227272727272734,
                "tempo": 120.0
            },
            {
                "start_time": 26.613636363636363,
                "end_time": 26.784090909090907,
                "pitch": 43,
                "velocity": 80,
                "duration": 0.1704545454545432,
                "tempo": 120.0
            },
            {
                "start_time": 26.784090909090907,
                "end_time": 26.786363636363635,
                "pitch": 43,
                "velocity": 80,
                "duration": 0.0022727272727287584,
                "tempo": 120.0
            },
            {
                "start_time": 12.009090909090908,
                "end_time": 26.786363636363635,
                "pitch": 55,
                "velocity": 80,
                "duration": 14.777272727272727,
                "tempo": 120.0
            },
            {
                "start_time": 26.63181818181818,
                "end_time": 26.799999999999997,
                "pitch": 0,
                "velocity": 80,
                "duration": 0.168181818181818,
                "tempo": 120.0
            },
            {
                "start_time": 26.786363636363635,
                "end_time": 26.799999999999997,
                "pitch": 43,
                "velocity": 80,
                "duration": 0.013636363636361892,
                "tempo": 120.0
            },
            {
                "start_time": 26.786363636363635,
                "end_time": 26.799999999999997,
                "pitch": 43,
                "velocity": 80,
                "duration": 0.013636363636361892,
                "tempo": 120.0
            },
            {
                "start_time": 26.799999999999997,
                "end_time": 26.886363636363637,
                "pitch": 43,
                "velocity": 80,
                "duration": 0.08636363636363953,
                "tempo": 120.0
            },
            {
                "start_time": 26.784090909090907,
                "end_time": 27.093181818181815,
                "pitch": 31,
                "velocity": 80,
                "duration": 0.30909090909090864,
                "tempo": 120.0
            },
            {
                "start_time": 26.99090909090909,
                "end_time": 27.093181818181815,
                "pitch": 31,
                "velocity": 80,
                "duration": 0.10227272727272663,
                "tempo": 120.0
            },
            {
                "start_time": 27.093181818181815,
                "end_time": 27.125,
                "pitch": 31,
                "velocity": 80,
                "duration": 0.031818181818184854,
                "tempo": 120.0
            },
            {
                "start_time": 26.799999999999997,
                "end_time": 27.143181818181816,
                "pitch": 0,
                "velocity": 80,
                "duration": 0.3431818181818187,
                "tempo": 120.0
            },
            {
                "start_time": 27.125,
                "end_time": 27.143181818181816,
                "pitch": 31,
                "velocity": 80,
                "duration": 0.018181818181815856,
                "tempo": 120.0
            },
            {
                "start_time": 27.143181818181816,
                "end_time": 27.195454545454545,
                "pitch": 31,
                "velocity": 80,
                "duration": 0.05227272727272947,
                "tempo": 120.0
            },
            {
                "start_time": 27.195454545454545,
                "end_time": 27.293181818181818,
                "pitch": 31,
                "velocity": 80,
                "duration": 0.09772727272727266,
                "tempo": 120.0
            },
            {
                "start_time": 27.125,
                "end_time": 27.293181818181818,
                "pitch": 43,
                "velocity": 80,
                "duration": 0.168181818181818,
                "tempo": 120.0
            },
            {
                "start_time": 27.143181818181816,
                "end_time": 27.30909090909091,
                "pitch": 0,
                "velocity": 80,
                "duration": 0.16590909090909278,
                "tempo": 120.0
            },
            {
                "start_time": 27.293181818181818,
                "end_time": 27.30909090909091,
                "pitch": 31,
                "velocity": 80,
                "duration": 0.01590909090909065,
                "tempo": 120.0
            },
            {
                "start_time": 27.30909090909091,
                "end_time": 27.456818181818182,
                "pitch": 31,
                "velocity": 80,
                "duration": 0.14772727272727337,
                "tempo": 120.0
            },
            {
                "start_time": 27.293181818181818,
                "end_time": 27.456818181818182,
                "pitch": 43,
                "velocity": 80,
                "duration": 0.16363636363636402,
                "tempo": 120.0
            },
            {
                "start_time": 27.30909090909091,
                "end_time": 27.472727272727273,
                "pitch": 0,
                "velocity": 80,
                "duration": 0.16363636363636402,
                "tempo": 120.0
            },
            {
                "start_time": 27.456818181818182,
                "end_time": 27.472727272727273,
                "pitch": 31,
                "velocity": 80,
                "duration": 0.01590909090909065,
                "tempo": 120.0
            },
            {
                "start_time": 27.472727272727273,
                "end_time": 27.58863636363636,
                "pitch": 31,
                "velocity": 80,
                "duration": 0.11590909090908852,
                "tempo": 120.0
            },
            {
                "start_time": 27.58863636363636,
                "end_time": 27.620454545454542,
                "pitch": 31,
                "velocity": 80,
                "duration": 0.0318181818181813,
                "tempo": 120.0
            },
            {
                "start_time": 27.456818181818182,
                "end_time": 27.620454545454542,
                "pitch": 43,
                "velocity": 80,
                "duration": 0.16363636363636047,
                "tempo": 120.0
            },
            {
                "start_time": 27.472727272727273,
                "end_time": 27.638636363636362,
                "pitch": 0,
                "velocity": 80,
                "duration": 0.16590909090908923,
                "tempo": 120.0
            },
            {
                "start_time": 27.620454545454542,
                "end_time": 27.638636363636362,
                "pitch": 31,
                "velocity": 80,
                "duration": 0.01818181818181941,
                "tempo": 120.0
            },
            {
                "start_time": 27.638636363636362,
                "end_time": 27.672727272727272,
                "pitch": 31,
                "velocity": 80,
                "duration": 0.03409090909091006,
                "tempo": 120.0
            },
            {
                "start_time": 27.620454545454542,
                "end_time": 27.793181818181818,
                "pitch": 43,
                "velocity": 80,
                "duration": 0.1727272727272755,
                "tempo": 120.0
            },
            {
                "start_time": 27.638636363636362,
                "end_time": 27.80909090909091,
                "pitch": 0,
                "velocity": 80,
                "duration": 0.17045454545454675,
                "tempo": 120.0
            },
            {
                "start_time": 27.793181818181818,
                "end_time": 27.80909090909091,
                "pitch": 31,
                "velocity": 80,
                "duration": 0.01590909090909065,
                "tempo": 120.0
            },
            {
                "start_time": 27.793181818181818,
                "end_time": 27.80909090909091,
                "pitch": 31,
                "velocity": 80,
                "duration": 0.01590909090909065,
                "tempo": 120.0
            },
            {
                "start_time": 27.80909090909091,
                "end_time": 27.877272727272725,
                "pitch": 31,
                "velocity": 80,
                "duration": 0.06818181818181657,
                "tempo": 120.0
            },
            {
                "start_time": 28.0,
                "end_time": 28.079545454545453,
                "pitch": 33,
                "velocity": 80,
                "duration": 0.07954545454545325,
                "tempo": 120.0
            },
            {
                "start_time": 28.195454545454545,
                "end_time": 28.275,
                "pitch": 35,
                "velocity": 80,
                "duration": 0.07954545454545325,
                "tempo": 120.0
            },
            {
                "start_time": 28.393181818181816,
                "end_time": 28.474999999999998,
                "pitch": 36,
                "velocity": 80,
                "duration": 0.08181818181818201,
                "tempo": 120.0
            },
            {
                "start_time": 28.593181818181815,
                "end_time": 28.625,
                "pitch": 31,
                "velocity": 80,
                "duration": 0.031818181818184854,
                "tempo": 120.0
            },
            {
                "start_time": 27.793181818181818,
                "end_time": 28.625,
                "pitch": 43,
                "velocity": 80,
                "duration": 0.831818181818182,
                "tempo": 120.0
            },
            {
                "start_time": 27.80909090909091,
                "end_time": 28.643181818181816,
                "pitch": 0,
                "velocity": 80,
                "duration": 0.8340909090909072,
                "tempo": 120.0
            },
            {
                "start_time": 28.625,
                "end_time": 28.643181818181816,
                "pitch": 31,
                "velocity": 80,
                "duration": 0.018181818181815856,
                "tempo": 120.0
            },
            {
                "start_time": 28.643181818181816,
                "end_time": 28.674999999999997,
                "pitch": 31,
                "velocity": 80,
                "duration": 0.0318181818181813,
                "tempo": 120.0
            },
            {
                "start_time": 28.795454545454543,
                "end_time": 29.19772727272727,
                "pitch": 36,
                "velocity": 80,
                "duration": 0.40227272727272734,
                "tempo": 120.0
            },
            {
                "start_time": 29.19772727272727,
                "end_time": 29.445454545454545,
                "pitch": 36,
                "velocity": 80,
                "duration": 0.2477272727272748,
                "tempo": 120.0
            },
            {
                "start_time": 29.595454545454544,
                "end_time": 29.852272727272727,
                "pitch": 33,
                "velocity": 80,
                "duration": 0.2568181818181827,
                "tempo": 120.0
            },
            {
                "start_time": 30.00681818181818,
                "end_time": 30.259090909090908,
                "pitch": 29,
                "velocity": 80,
                "duration": 0.25227272727272876,
                "tempo": 120.0
            },
            {
                "start_time": 30.411363636363635,
                "end_time": 30.654545454545453,
                "pitch": 29,
                "velocity": 80,
                "duration": 0.24318181818181728,
                "tempo": 120.0
            },
            {
                "start_time": 30.804545454545455,
                "end_time": 31.052272727272726,
                "pitch": 36,
                "velocity": 80,
                "duration": 0.24772727272727124,
                "tempo": 120.0
            },
            {
                "start_time": 31.202272727272724,
                "end_time": 31.459090909090907,
                "pitch": 33,
                "velocity": 80,
                "duration": 0.2568181818181827,
                "tempo": 120.0
            },
            {
                "start_time": 31.61590909090909,
                "end_time": 31.863636363636363,
                "pitch": 29,
                "velocity": 80,
                "duration": 0.2477272727272748,
                "tempo": 120.0
            },
            {
                "start_time": 32.01590909090909,
                "end_time": 32.25909090909091,
                "pitch": 35,
                "velocity": 80,
                "duration": 0.24318181818181728,
                "tempo": 120.0
            },
            {
                "start_time": 32.40909090909091,
                "end_time": 32.65681818181818,
                "pitch": 36,
                "velocity": 80,
                "duration": 0.2477272727272748,
                "tempo": 120.0
            },
            {
                "start_time": 32.809090909090905,
                "end_time": 33.06590909090909,
                "pitch": 33,
                "velocity": 80,
                "duration": 0.2568181818181827,
                "tempo": 120.0
            },
            {
                "start_time": 33.220454545454544,
                "end_time": 33.46363636363636,
                "pitch": 34,
                "velocity": 80,
                "duration": 0.24318181818181728,
                "tempo": 120.0
            },
            {
                "start_time": 33.61363636363636,
                "end_time": 33.86818181818182,
                "pitch": 30,
                "velocity": 80,
                "duration": 0.2545454545454575,
                "tempo": 120.0
            },
            {
                "start_time": 34.025,
                "end_time": 34.138636363636365,
                "pitch": 31,
                "velocity": 80,
                "duration": 0.11363636363636687,
                "tempo": 120.0
            },
            {
                "start_time": 28.625,
                "end_time": 34.138636363636365,
                "pitch": 43,
                "velocity": 80,
                "duration": 5.5136363636363654,
                "tempo": 120.0
            },
            {
                "start_time": 28.643181818181816,
                "end_time": 34.18863636363636,
                "pitch": 0,
                "velocity": 80,
                "duration": 5.545454545454547,
                "tempo": 120.0
            },
            {
                "start_time": 34.138636363636365,
                "end_time": 34.18863636363636,
                "pitch": 31,
                "velocity": 80,
                "duration": 0.04999999999999716,
                "tempo": 120.0
            },
            {
                "start_time": 34.18863636363636,
                "end_time": 34.27272727272727,
                "pitch": 31,
                "velocity": 80,
                "duration": 0.08409090909091077,
                "tempo": 120.0
            },
            {
                "start_time": 34.425,
                "end_time": 34.675,
                "pitch": 28,
                "velocity": 80,
                "duration": 0.25,
                "tempo": 120.0
            },
            {
                "start_time": 34.82727272727273,
                "end_time": 35.07727272727273,
                "pitch": 29,
                "velocity": 80,
                "duration": 0.25,
                "tempo": 120.0
            },
            {
                "start_time": 35.22954545454545,
                "end_time": 35.47727272727273,
                "pitch": 24,
                "velocity": 80,
                "duration": 0.2477272727272748,
                "tempo": 120.0
            },
            {
                "start_time": 35.62954545454545,
                "end_time": 35.877272727272725,
                "pitch": 38,
                "velocity": 80,
                "duration": 0.2477272727272748,
                "tempo": 120.0
            },
            {
                "start_time": 36.029545454545456,
                "end_time": 36.28409090909091,
                "pitch": 35,
                "velocity": 80,
                "duration": 0.2545454545454504,
                "tempo": 120.0
            },
            {
                "start_time": 36.44090909090909,
                "end_time": 36.48863636363636,
                "pitch": 31,
                "velocity": 80,
                "duration": 0.04772727272727195,
                "tempo": 120.0
            },
            {
                "start_time": 34.138636363636365,
                "end_time": 36.48863636363636,
                "pitch": 43,
                "velocity": 80,
                "duration": 2.3499999999999943,
                "tempo": 120.0
            },
            {
                "start_time": 34.18863636363636,
                "end_time": 36.54090909090909,
                "pitch": 0,
                "velocity": 80,
                "duration": 2.3522727272727266,
                "tempo": 120.0
            },
            {
                "start_time": 36.48863636363636,
                "end_time": 36.54090909090909,
                "pitch": 31,
                "velocity": 80,
                "duration": 0.05227272727272947,
                "tempo": 120.0
            },
            {
                "start_time": 36.54090909090909,
                "end_time": 36.65681818181818,
                "pitch": 31,
                "velocity": 80,
                "duration": 0.11590909090909207,
                "tempo": 120.0
            },
            {
                "start_time": 36.48863636363636,
                "end_time": 36.65681818181818,
                "pitch": 43,
                "velocity": 80,
                "duration": 0.16818181818182154,
                "tempo": 120.0
            },
            {
                "start_time": 36.65681818181818,
                "end_time": 36.69090909090909,
                "pitch": 31,
                "velocity": 80,
                "duration": 0.03409090909090651,
                "tempo": 120.0
            },
            {
                "start_time": 36.840909090909086,
                "end_time": 37.086363636363636,
                "pitch": 35,
                "velocity": 80,
                "duration": 0.2454545454545496,
                "tempo": 120.0
            },
            {
                "start_time": 37.23409090909091,
                "end_time": 37.48409090909091,
                "pitch": 35,
                "velocity": 80,
                "duration": 0.25,
                "tempo": 120.0
            },
            {
                "start_time": 37.63409090909091,
                "end_time": 37.89090909090909,
                "pitch": 34,
                "velocity": 80,
                "duration": 0.2568181818181827,
                "tempo": 120.0
            },
            {
                "start_time": 38.04545454545455,
                "end_time": 38.29772727272727,
                "pitch": 33,
                "velocity": 80,
                "duration": 0.2522727272727252,
                "tempo": 120.0
            },
            {
                "start_time": 38.449999999999996,
                "end_time": 38.69318181818181,
                "pitch": 29,
                "velocity": 80,
                "duration": 0.24318181818181728,
                "tempo": 120.0
            },
            {
                "start_time": 38.84318181818182,
                "end_time": 39.090909090909086,
                "pitch": 29,
                "velocity": 80,
                "duration": 0.2477272727272677,
                "tempo": 120.0
            },
            {
                "start_time": 39.24090909090909,
                "end_time": 39.49090909090909,
                "pitch": 24,
                "velocity": 80,
                "duration": 0.25,
                "tempo": 120.0
            },
            {
                "start_time": 39.643181818181816,
                "end_time": 39.89090909090909,
                "pitch": 29,
                "velocity": 80,
                "duration": 0.2477272727272748,
                "tempo": 120.0
            },
            {
                "start_time": 40.043181818181814,
                "end_time": 40.3,
                "pitch": 24,
                "velocity": 80,
                "duration": 0.2568181818181827,
                "tempo": 120.0
            },
            {
                "start_time": 40.45454545454545,
                "end_time": 40.69772727272727,
                "pitch": 28,
                "velocity": 80,
                "duration": 0.24318181818181728,
                "tempo": 120.0
            },
            {
                "start_time": 40.84772727272727,
                "end_time": 41.10227272727273,
                "pitch": 24,
                "velocity": 80,
                "duration": 0.2545454545454575,
                "tempo": 120.0
            },
            {
                "start_time": 41.25909090909091,
                "end_time": 41.50681818181818,
                "pitch": 29,
                "velocity": 80,
                "duration": 0.2477272727272748,
                "tempo": 120.0
            },
            {
                "start_time": 41.65909090909091,
                "end_time": 41.90909090909091,
                "pitch": 29,
                "velocity": 80,
                "duration": 0.25,
                "tempo": 120.0
            },
            {
                "start_time": 44.470454545454544,
                "end_time": 44.570454545454545,
                "pitch": 48,
                "velocity": 80,
                "duration": 0.10000000000000142,
                "tempo": 120.0
            },
            {
                "start_time": 44.67045454545455,
                "end_time": 44.77045454545454,
                "pitch": 45,
                "velocity": 80,
                "duration": 0.09999999999999432,
                "tempo": 120.0
            },
            {
                "start_time": 36.65681818181818,
                "end_time": 44.970454545454544,
                "pitch": 43,
                "velocity": 80,
                "duration": 8.313636363636363,
                "tempo": 120.0
            },
            {
                "start_time": 44.87045454545454,
                "end_time": 44.970454545454544,
                "pitch": 43,
                "velocity": 80,
                "duration": 0.10000000000000142,
                "tempo": 120.0
            },
            {
                "start_time": 45.070454545454545,
                "end_time": 45.17045454545455,
                "pitch": 40,
                "velocity": 80,
                "duration": 0.10000000000000142,
                "tempo": 120.0
            },
            {
                "start_time": 45.275,
                "end_time": 45.470454545454544,
                "pitch": 48,
                "velocity": 80,
                "duration": 0.19545454545454533,
                "tempo": 120.0
            },
            {
                "start_time": 45.67272727272727,
                "end_time": 45.788636363636364,
                "pitch": 43,
                "velocity": 80,
                "duration": 0.11590909090909207,
                "tempo": 120.0
            },
            {
                "start_time": 26.786363636363635,
                "end_time": 45.788636363636364,
                "pitch": 55,
                "velocity": 80,
                "duration": 19.00227272727273,
                "tempo": 120.0
            },
            {
                "start_time": 36.54090909090909,
                "end_time": 45.83863636363636,
                "pitch": 0,
                "velocity": 80,
                "duration": 9.297727272727272,
                "tempo": 120.0
            },
            {
                "start_time": 45.788636363636364,
                "end_time": 45.83863636363636,
                "pitch": 43,
                "velocity": 80,
                "duration": 0.04999999999999716,
                "tempo": 120.0
            },
            {
                "start_time": 45.83863636363636,
                "end_time": 45.87045454545454,
                "pitch": 43,
                "velocity": 80,
                "duration": 0.0318181818181813,
                "tempo": 120.0
            },
            {
                "start_time": 46.07272727272727,
                "end_time": 46.27272727272727,
                "pitch": 45,
                "velocity": 80,
                "duration": 0.20000000000000284,
                "tempo": 120.0
            },
            {
                "start_time": 46.474999999999994,
                "end_time": 46.67727272727272,
                "pitch": 47,
                "velocity": 80,
                "duration": 0.20227272727272805,
                "tempo": 120.0
            },
            {
                "start_time": 46.877272727272725,
                "end_time": 47.07727272727273,
                "pitch": 48,
                "velocity": 80,
                "duration": 0.20000000000000284,
                "tempo": 120.0
            },
            {
                "start_time": 47.277272727272724,
                "end_time": 47.293181818181814,
                "pitch": 43,
                "velocity": 80,
                "duration": 0.01590909090909065,
                "tempo": 120.0
            },
            {
                "start_time": 45.788636363636364,
                "end_time": 47.293181818181814,
                "pitch": 55,
                "velocity": 80,
                "duration": 1.5045454545454504,
                "tempo": 120.0
            },
            {
                "start_time": 45.83863636363636,
                "end_time": 47.34318181818182,
                "pitch": 0,
                "velocity": 80,
                "duration": 1.5045454545454575,
                "tempo": 120.0
            },
            {
                "start_time": 47.293181818181814,
                "end_time": 47.34318181818182,
                "pitch": 43,
                "velocity": 80,
                "duration": 0.05000000000000426,
                "tempo": 120.0
            },
            {
                "start_time": 47.34318181818182,
                "end_time": 47.459090909090904,
                "pitch": 43,
                "velocity": 80,
                "duration": 0.11590909090908497,
                "tempo": 120.0
            },
            {
                "start_time": 47.293181818181814,
                "end_time": 47.459090909090904,
                "pitch": 55,
                "velocity": 80,
                "duration": 0.16590909090908923,
                "tempo": 120.0
            },
            {
                "start_time": 47.459090909090904,
                "end_time": 47.47727272727273,
                "pitch": 43,
                "velocity": 80,
                "duration": 0.018181818181822962,
                "tempo": 120.0
            },
            {
                "start_time": 47.67727272727272,
                "end_time": 47.877272727272725,
                "pitch": 45,
                "velocity": 80,
                "duration": 0.20000000000000284,
                "tempo": 120.0
            },
            {
                "start_time": 48.07727272727273,
                "end_time": 48.27954545454545,
                "pitch": 47,
                "velocity": 80,
                "duration": 0.20227272727272094,
                "tempo": 120.0
            },
            {
                "start_time": 48.48181818181818,
                "end_time": 48.68636363636364,
                "pitch": 54,
                "velocity": 80,
                "duration": 0.20454545454546036,
                "tempo": 120.0
            },
            {
                "start_time": 48.893181818181816,
                "end_time": 49.090909090909086,
                "pitch": 48,
                "velocity": 80,
                "duration": 0.19772727272727053,
                "tempo": 120.0
            },
            {
                "start_time": 49.293181818181814,
                "end_time": 49.49545454545454,
                "pitch": 54,
                "velocity": 80,
                "duration": 0.20227272727272805,
                "tempo": 120.0
            },
            {
                "start_time": 49.69772727272727,
                "end_time": 49.89545454545454,
                "pitch": 48,
                "velocity": 80,
                "duration": 0.19772727272727053,
                "tempo": 120.0
            },
            {
                "start_time": 50.09772727272727,
                "end_time": 50.29772727272727,
                "pitch": 54,
                "velocity": 80,
                "duration": 0.20000000000000284,
                "tempo": 120.0
            },
            {
                "start_time": 50.29772727272727,
                "end_time": 50.37954545454545,
                "pitch": 53,
                "velocity": 80,
                "duration": 0.08181818181817846,
                "tempo": 120.0
            },
            {
                "start_time": 50.49772727272727,
                "end_time": 50.57954545454545,
                "pitch": 52,
                "velocity": 80,
                "duration": 0.08181818181818556,
                "tempo": 120.0
            },
            {
                "start_time": 50.69772727272727,
                "end_time": 50.77954545454545,
                "pitch": 51,
                "velocity": 80,
                "duration": 0.08181818181817846,
                "tempo": 120.0
            },
            {
                "start_time": 50.9,
                "end_time": 51.09772727272727,
                "pitch": 50,
                "velocity": 80,
                "duration": 0.19772727272727053,
                "tempo": 120.0
            },
            {
                "start_time": 51.09772727272727,
                "end_time": 51.179545454545455,
                "pitch": 51,
                "velocity": 80,
                "duration": 0.08181818181818556,
                "tempo": 120.0
            },
            {
                "start_time": 51.3,
                "end_time": 51.38181818181818,
                "pitch": 52,
                "velocity": 80,
                "duration": 0.08181818181818556,
                "tempo": 120.0
            },
            {
                "start_time": 51.5,
                "end_time": 51.58181818181818,
                "pitch": 53,
                "velocity": 80,
                "duration": 0.08181818181817846,
                "tempo": 120.0
            },
            {
                "start_time": 51.70227272727273,
                "end_time": 51.9,
                "pitch": 48,
                "velocity": 80,
                "duration": 0.19772727272727053,
                "tempo": 120.0
            },
            {
                "start_time": 52.10227272727273,
                "end_time": 52.15,
                "pitch": 43,
                "velocity": 80,
                "duration": 0.04772727272727195,
                "tempo": 120.0
            },
            {
                "start_time": 47.459090909090904,
                "end_time": 52.15,
                "pitch": 55,
                "velocity": 80,
                "duration": 4.690909090909095,
                "tempo": 120.0
            },
            {
                "start_time": 47.34318181818182,
                "end_time": 52.199999999999996,
                "pitch": 0,
                "velocity": 80,
                "duration": 4.856818181818177,
                "tempo": 120.0
            },
            {
                "start_time": 52.15,
                "end_time": 52.199999999999996,
                "pitch": 43,
                "velocity": 80,
                "duration": 0.04999999999999716,
                "tempo": 120.0
            },
            {
                "start_time": 52.199999999999996,
                "end_time": 52.3,
                "pitch": 43,
                "velocity": 80,
                "duration": 0.10000000000000142,
                "tempo": 120.0
            },
            {
                "start_time": 52.50454545454545,
                "end_time": 52.70227272727273,
                "pitch": 45,
                "velocity": 80,
                "duration": 0.19772727272727764,
                "tempo": 120.0
            },
            {
                "start_time": 52.902272727272724,
                "end_time": 53.10454545454545,
                "pitch": 47,
                "velocity": 80,
                "duration": 0.20227272727272805,
                "tempo": 120.0
            },
            {
                "start_time": 53.304545454545455,
                "end_time": 53.50454545454545,
                "pitch": 48,
                "velocity": 80,
                "duration": 0.19999999999999574,
                "tempo": 120.0
            },
            {
                "start_time": 53.70681818181818,
                "end_time": 53.82272727272727,
                "pitch": 43,
                "velocity": 80,
                "duration": 0.11590909090909207,
                "tempo": 120.0
            },
            {
                "start_time": 52.15,
                "end_time": 53.82272727272727,
                "pitch": 55,
                "velocity": 80,
                "duration": 1.672727272727272,
                "tempo": 120.0
            },
            {
                "start_time": 52.199999999999996,
                "end_time": 53.87272727272727,
                "pitch": 0,
                "velocity": 80,
                "duration": 1.672727272727272,
                "tempo": 120.0
            },
            {
                "start_time": 53.82272727272727,
                "end_time": 53.87272727272727,
                "pitch": 43,
                "velocity": 80,
                "duration": 0.04999999999999716,
                "tempo": 120.0
            },
            {
                "start_time": 53.87272727272727,
                "end_time": 53.90681818181818,
                "pitch": 43,
                "velocity": 80,
                "duration": 0.03409090909091361,
                "tempo": 120.0
            },
            {
                "start_time": 54.10909090909091,
                "end_time": 54.30681818181818,
                "pitch": 45,
                "velocity": 80,
                "duration": 0.19772727272727053,
                "tempo": 120.0
            },
            {
                "start_time": 54.50681818181818,
                "end_time": 54.709090909090904,
                "pitch": 47,
                "velocity": 80,
                "duration": 0.20227272727272094,
                "tempo": 120.0
            },
            {
                "start_time": 54.90909090909091,
                "end_time": 55.10909090909091,
                "pitch": 54,
                "velocity": 80,
                "duration": 0.20000000000000284,
                "tempo": 120.0
            },
            {
                "start_time": 55.309090909090905,
                "end_time": 55.50909090909091,
                "pitch": 48,
                "velocity": 80,
                "duration": 0.20000000000000284,
                "tempo": 120.0
            },
            {
                "start_time": 55.71363636363636,
                "end_time": 55.918181818181814,
                "pitch": 54,
                "velocity": 80,
                "duration": 0.20454545454545325,
                "tempo": 120.0
            },
            {
                "start_time": 56.125,
                "end_time": 56.32272727272727,
                "pitch": 48,
                "velocity": 80,
                "duration": 0.19772727272727053,
                "tempo": 120.0
            },
            {
                "start_time": 56.525,
                "end_time": 56.724999999999994,
                "pitch": 54,
                "velocity": 80,
                "duration": 0.19999999999999574,
                "tempo": 120.0
            },
            {
                "start_time": 56.724999999999994,
                "end_time": 56.80681818181818,
                "pitch": 53,
                "velocity": 80,
                "duration": 0.08181818181818556,
                "tempo": 120.0
            },
            {
                "start_time": 56.925,
                "end_time": 57.006818181818176,
                "pitch": 52,
                "velocity": 80,
                "duration": 0.08181818181817846,
                "tempo": 120.0
            },
            {
                "start_time": 57.127272727272725,
                "end_time": 57.209090909090904,
                "pitch": 51,
                "velocity": 80,
                "duration": 0.08181818181817846,
                "tempo": 120.0
            },
            {
                "start_time": 57.32954545454545,
                "end_time": 57.527272727272724,
                "pitch": 50,
                "velocity": 80,
                "duration": 0.19772727272727053,
                "tempo": 120.0
            }
        ],
        "Acoustic Bass": [
            {
                "start_time": 2.6295454545454544,
                "end_time": 2.7318181818181815,
                "pitch": 36,
                "velocity": 80,
                "duration": 0.10227272727272707,
                "tempo": 120.0
            },
            {
                "start_time": 2.834090909090909,
                "end_time": 2.936363636363636,
                "pitch": 33,
                "velocity": 80,
                "duration": 0.10227272727272707,
                "tempo": 120.0
            },
            {
                "start_time": 3.0409090909090906,
                "end_time": 3.1386363636363637,
                "pitch": 31,
                "velocity": 80,
                "duration": 0.0977272727272731,
                "tempo": 120.0
            },
            {
                "start_time": 3.2363636363636363,
                "end_time": 3.334090909090909,
                "pitch": 28,
                "velocity": 80,
                "duration": 0.09772727272727266,
                "tempo": 120.0
            },
            {
                "start_time": 3.436363636363636,
                "end_time": 3.6386363636363637,
                "pitch": 36,
                "velocity": 80,
                "duration": 0.2022727272727276,
                "tempo": 120.0
            },
            {
                "start_time": 3.8477272727272727,
                "end_time": 4.045454545454545,
                "pitch": 31,
                "velocity": 80,
                "duration": 0.1977272727272723,
                "tempo": 120.0
            },
            {
                "start_time": 4.247727272727272,
                "end_time": 4.445454545454545,
                "pitch": 33,
                "velocity": 80,
                "duration": 0.1977272727272732,
                "tempo": 120.0
            },
            {
                "start_time": 4.6499999999999995,
                "end_time": 4.85,
                "pitch": 35,
                "velocity": 80,
                "duration": 0.20000000000000018,
                "tempo": 120.0
            },
            {
                "start_time": 5.052272727272727,
                "end_time": 5.252272727272727,
                "pitch": 36,
                "velocity": 80,
                "duration": 0.20000000000000018,
                "tempo": 120.0
            },
            {
                "start_time": 5.454545454545454,
                "end_time": 5.654545454545454,
                "pitch": 31,
                "velocity": 80,
                "duration": 0.20000000000000018,
                "tempo": 120.0
            },
            {
                "start_time": 5.8545454545454545,
                "end_time": 6.054545454545455,
                "pitch": 33,
                "velocity": 80,
                "duration": 0.20000000000000018,
                "tempo": 120.0
            },
            {
                "start_time": 6.256818181818182,
                "end_time": 6.459090909090909,
                "pitch": 35,
                "velocity": 80,
                "duration": 0.20227272727272716,
                "tempo": 120.0
            },
            {
                "start_time": 6.661363636363636,
                "end_time": 6.861363636363636,
                "pitch": 42,
                "velocity": 80,
                "duration": 0.20000000000000018,
                "tempo": 120.0
            },
            {
                "start_time": 7.061363636363636,
                "end_time": 7.261363636363636,
                "pitch": 36,
                "velocity": 80,
                "duration": 0.20000000000000018,
                "tempo": 120.0
            },
            {
                "start_time": 7.465909090909091,
                "end_time": 7.670454545454545,
                "pitch": 42,
                "velocity": 80,
                "duration": 0.20454545454545414,
                "tempo": 120.0
            },
            {
                "start_time": 7.877272727272727,
                "end_time": 8.070454545454545,
                "pitch": 36,
                "velocity": 80,
                "duration": 0.19318181818181834,
                "tempo": 120.0
            },
            {
                "start_time": 8.270454545454545,
                "end_time": 8.472727272727273,
                "pitch": 42,
                "velocity": 80,
                "duration": 0.20227272727272805,
                "tempo": 120.0
            },
            {
                "start_time": 8.475,
                "end_time": 8.556818181818182,
                "pitch": 41,
                "velocity": 80,
                "duration": 0.08181818181818201,
                "tempo": 120.0
            },
            {
                "start_time": 8.679545454545455,
                "end_time": 8.759090909090908,
                "pitch": 40,
                "velocity": 80,
                "duration": 0.07954545454545325,
                "tempo": 120.0
            },
            {
                "start_time": 8.875,
                "end_time": 8.954545454545453,
                "pitch": 39,
                "velocity": 80,
                "duration": 0.07954545454545325,
                "tempo": 120.0
            },
            {
                "start_time": 9.072727272727272,
                "end_time": 9.270454545454545,
                "pitch": 38,
                "velocity": 80,
                "duration": 0.1977272727272723,
                "tempo": 120.0
            },
            {
                "start_time": 9.270454545454545,
                "end_time": 9.354545454545454,
                "pitch": 39,
                "velocity": 80,
                "duration": 0.084090909090909,
                "tempo": 120.0
            },
            {
                "start_time": 9.472727272727273,
                "end_time": 9.556818181818182,
                "pitch": 40,
                "velocity": 80,
                "duration": 0.084090909090909,
                "tempo": 120.0
            },
            {
                "start_time": 9.677272727272726,
                "end_time": 9.761363636363637,
                "pitch": 41,
                "velocity": 80,
                "duration": 0.08409090909091077,
                "tempo": 120.0
            },
            {
                "start_time": 9.886363636363637,
                "end_time": 10.077272727272726,
                "pitch": 36,
                "velocity": 80,
                "duration": 0.19090909090908958,
                "tempo": 120.0
            },
            {
                "start_time": 10.277272727272727,
                "end_time": 10.479545454545454,
                "pitch": 31,
                "velocity": 80,
                "duration": 0.20227272727272627,
                "tempo": 120.0
            },
            {
                "start_time": 10.688636363636363,
                "end_time": 10.886363636363637,
                "pitch": 33,
                "velocity": 80,
                "duration": 0.19772727272727408,
                "tempo": 120.0
            },
            {
                "start_time": 11.09090909090909,
                "end_time": 11.290909090909091,
                "pitch": 35,
                "velocity": 80,
                "duration": 0.20000000000000107,
                "tempo": 120.0
            },
            {
                "start_time": 11.49090909090909,
                "end_time": 11.693181818181818,
                "pitch": 36,
                "velocity": 80,
                "duration": 0.20227272727272805,
                "tempo": 120.0
            },
            {
                "start_time": 11.895454545454545,
                "end_time": 12.095454545454546,
                "pitch": 31,
                "velocity": 80,
                "duration": 0.20000000000000107,
                "tempo": 120.0
            },
            {
                "start_time": 12.297727272727272,
                "end_time": 12.497727272727271,
                "pitch": 33,
                "velocity": 80,
                "duration": 0.1999999999999993,
                "tempo": 120.0
            },
            {
                "start_time": 12.7,
                "end_time": 12.902272727272727,
                "pitch": 35,
                "velocity": 80,
                "duration": 0.20227272727272805,
                "tempo": 120.0
            },
            {
                "start_time": 13.104545454545454,
                "end_time": 13.304545454545455,
                "pitch": 42,
                "velocity": 80,
                "duration": 0.20000000000000107,
                "tempo": 120.0
            },
            {
                "start_time": 13.504545454545454,
                "end_time": 13.704545454545453,
                "pitch": 36,
                "velocity": 80,
                "duration": 0.1999999999999993,
                "tempo": 120.0
            },
            {
                "start_time": 13.909090909090908,
                "end_time": 14.113636363636363,
                "pitch": 42,
                "velocity": 80,
                "duration": 0.20454545454545503,
                "tempo": 120.0
            },
            {
                "start_time": 14.320454545454545,
                "end_time": 14.513636363636364,
                "pitch": 36,
                "velocity": 80,
                "duration": 0.19318181818181834,
                "tempo": 120.0
            },
            {
                "start_time": 14.713636363636363,
                "end_time": 14.918181818181818,
                "pitch": 42,
                "velocity": 80,
                "duration": 0.20454545454545503,
                "tempo": 120.0
            },
            {
                "start_time": 14.918181818181818,
                "end_time": 15.0,
                "pitch": 41,
                "velocity": 80,
                "duration": 0.08181818181818201,
                "tempo": 120.0
            },
            {
                "start_time": 15.122727272727271,
                "end_time": 15.202272727272726,
                "pitch": 40,
                "velocity": 80,
                "duration": 0.07954545454545503,
                "tempo": 120.0
            },
            {
                "start_time": 15.320454545454545,
                "end_time": 15.399999999999999,
                "pitch": 39,
                "velocity": 80,
                "duration": 0.07954545454545325,
                "tempo": 120.0
            },
            {
                "start_time": 15.51590909090909,
                "end_time": 15.718181818181817,
                "pitch": 38,
                "velocity": 80,
                "duration": 0.20227272727272627,
                "tempo": 120.0
            },
            {
                "start_time": 15.718181818181817,
                "end_time": 15.799999999999999,
                "pitch": 39,
                "velocity": 80,
                "duration": 0.08181818181818201,
                "tempo": 120.0
            },
            {
                "start_time": 15.918181818181818,
                "end_time": 16.0,
                "pitch": 40,
                "velocity": 80,
                "duration": 0.08181818181818201,
                "tempo": 120.0
            },
            {
                "start_time": 16.120454545454546,
                "end_time": 16.202272727272728,
                "pitch": 41,
                "velocity": 80,
                "duration": 0.08181818181818201,
                "tempo": 120.0
            },
            {
                "start_time": 16.325,
                "end_time": 16.520454545454545,
                "pitch": 36,
                "velocity": 80,
                "duration": 0.19545454545454533,
                "tempo": 120.0
            },
            {
                "start_time": 16.722727272727273,
                "end_time": 16.925,
                "pitch": 31,
                "velocity": 80,
                "duration": 0.20227272727272805,
                "tempo": 120.0
            },
            {
                "start_time": 17.127272727272725,
                "end_time": 17.325,
                "pitch": 36,
                "velocity": 80,
                "duration": 0.19772727272727408,
                "tempo": 120.0
            },
            {
                "start_time": 17.525,
                "end_time": 17.625,
                "pitch": 31,
                "velocity": 80,
                "duration": 0.10000000000000142,
                "tempo": 120.0
            },
            {
                "start_time": 17.729545454545455,
                "end_time": 17.827272727272728,
                "pitch": 31,
                "velocity": 80,
                "duration": 0.09772727272727266,
                "tempo": 120.0
            },
            {
                "start_time": 17.929545454545455,
                "end_time": 18.127272727272725,
                "pitch": 36,
                "velocity": 80,
                "duration": 0.19772727272727053,
                "tempo": 120.0
            },
            {
                "start_time": 18.329545454545453,
                "end_time": 18.529545454545453,
                "pitch": 31,
                "velocity": 80,
                "duration": 0.1999999999999993,
                "tempo": 120.0
            },
            {
                "start_time": 18.73181818181818,
                "end_time": 18.831818181818182,
                "pitch": 36,
                "velocity": 80,
                "duration": 0.10000000000000142,
                "tempo": 120.0
            },
            {
                "start_time": 18.936363636363634,
                "end_time": 19.036363636363635,
                "pitch": 31,
                "velocity": 80,
                "duration": 0.10000000000000142,
                "tempo": 120.0
            },
            {
                "start_time": 19.143181818181816,
                "end_time": 19.24090909090909,
                "pitch": 36,
                "velocity": 80,
                "duration": 0.09772727272727266,
                "tempo": 120.0
            },
            {
                "start_time": 19.34318181818182,
                "end_time": 19.443181818181817,
                "pitch": 37,
                "velocity": 80,
                "duration": 0.09999999999999787,
                "tempo": 120.0
            },
            {
                "start_time": 19.545454545454543,
                "end_time": 19.738636363636363,
                "pitch": 38,
                "velocity": 80,
                "duration": 0.19318181818182012,
                "tempo": 120.0
            },
            {
                "start_time": 19.936363636363634,
                "end_time": 20.136363636363637,
                "pitch": 31,
                "velocity": 80,
                "duration": 0.20000000000000284,
                "tempo": 120.0
            },
            {
                "start_time": 20.33863636363636,
                "end_time": 20.536363636363635,
                "pitch": 38,
                "velocity": 80,
                "duration": 0.19772727272727408,
                "tempo": 120.0
            },
            {
                "start_time": 20.738636363636363,
                "end_time": 20.943181818181817,
                "pitch": 31,
                "velocity": 80,
                "duration": 0.20454545454545325,
                "tempo": 120.0
            },
            {
                "start_time": 21.15,
                "end_time": 21.349999999999998,
                "pitch": 38,
                "velocity": 80,
                "duration": 0.1999999999999993,
                "tempo": 120.0
            },
            {
                "start_time": 21.554545454545455,
                "end_time": 21.754545454545454,
                "pitch": 31,
                "velocity": 80,
                "duration": 0.1999999999999993,
                "tempo": 120.0
            },
            {
                "start_time": 21.954545454545453,
                "end_time": 22.052272727272726,
                "pitch": 38,
                "velocity": 80,
                "duration": 0.09772727272727266,
                "tempo": 120.0
            },
            {
                "start_time": 22.15681818181818,
                "end_time": 22.254545454545454,
                "pitch": 38,
                "velocity": 80,
                "duration": 0.09772727272727266,
                "tempo": 120.0
            },
            {
                "start_time": 22.35681818181818,
                "end_time": 22.454545454545453,
                "pitch": 40,
                "velocity": 80,
                "duration": 0.09772727272727266,
                "tempo": 120.0
            },
            {
                "start_time": 22.55909090909091,
                "end_time": 22.65681818181818,
                "pitch": 38,
                "velocity": 80,
                "duration": 0.09772727272727266,
                "tempo": 120.0
            },
            {
                "start_time": 22.759090909090908,
                "end_time": 22.956818181818182,
                "pitch": 36,
                "velocity": 80,
                "duration": 0.19772727272727408,
                "tempo": 120.0
            },
            {
                "start_time": 23.159090909090907,
                "end_time": 23.25681818181818,
                "pitch": 31,
                "velocity": 80,
                "duration": 0.09772727272727266,
                "tempo": 120.0
            },
            {
                "start_time": 23.361363636363635,
                "end_time": 23.55909090909091,
                "pitch": 36,
                "velocity": 80,
                "duration": 0.19772727272727408,
                "tempo": 120.0
            },
            {
                "start_time": 23.763636363636362,
                "end_time": 23.85909090909091,
                "pitch": 36,
                "velocity": 80,
                "duration": 0.09545454545454746,
                "tempo": 120.0
            },
            {
                "start_time": 23.96363636363636,
                "end_time": 24.163636363636364,
                "pitch": 36,
                "velocity": 80,
                "duration": 0.20000000000000284,
                "tempo": 120.0
            },
            {
                "start_time": 24.163636363636364,
                "end_time": 24.36590909090909,
                "pitch": 35,
                "velocity": 80,
                "duration": 0.2022727272727245,
                "tempo": 120.0
            },
            {
                "start_time": 24.36590909090909,
                "end_time": 24.56590909090909,
                "pitch": 33,
                "velocity": 80,
                "duration": 0.20000000000000284,
                "tempo": 120.0
            },
            {
                "start_time": 24.76590909090909,
                "end_time": 24.863636363636363,
                "pitch": 28,
                "velocity": 80,
                "duration": 0.09772727272727266,
                "tempo": 120.0
            },
            {
                "start_time": 24.96590909090909,
                "end_time": 25.163636363636364,
                "pitch": 33,
                "velocity": 80,
                "duration": 0.19772727272727408,
                "tempo": 120.0
            },
            {
                "start_time": 25.368181818181817,
                "end_time": 25.46590909090909,
                "pitch": 33,
                "velocity": 80,
                "duration": 0.09772727272727266,
                "tempo": 120.0
            },
            {
                "start_time": 25.570454545454545,
                "end_time": 25.775,
                "pitch": 35,
                "velocity": 80,
                "duration": 0.20454545454545325,
                "tempo": 120.0
            },
            {
                "start_time": 25.775,
                "end_time": 25.98181818181818,
                "pitch": 36,
                "velocity": 80,
                "duration": 0.206818181818182,
                "tempo": 120.0
            },
            {
                "start_time": 25.98181818181818,
                "end_time": 26.079545454545453,
                "pitch": 38,
                "velocity": 80,
                "duration": 0.09772727272727266,
                "tempo": 120.0
            },
            {
                "start_time": 26.18181818181818,
                "end_time": 26.28181818181818,
                "pitch": 31,
                "velocity": 80,
                "duration": 0.10000000000000142,
                "tempo": 120.0
            },
            {
                "start_time": 26.28181818181818,
                "end_time": 26.38181818181818,
                "pitch": 31,
                "velocity": 80,
                "duration": 0.09999999999999787,
                "tempo": 120.0
            },
            {
                "start_time": 26.38181818181818,
                "end_time": 26.786363636363635,
                "pitch": 31,
                "velocity": 80,
                "duration": 0.4045454545454561,
                "tempo": 120.0
            },
            {
                "start_time": 26.786363636363635,
                "end_time": 26.886363636363637,
                "pitch": 43,
                "velocity": 80,
                "duration": 0.10000000000000142,
                "tempo": 120.0
            },
            {
                "start_time": 26.99090909090909,
                "end_time": 27.093181818181815,
                "pitch": 31,
                "velocity": 80,
                "duration": 0.10227272727272663,
                "tempo": 120.0
            },
            {
                "start_time": 27.093181818181815,
                "end_time": 27.19772727272727,
                "pitch": 31,
                "velocity": 80,
                "duration": 0.10454545454545539,
                "tempo": 120.0
            },
            {
                "start_time": 27.19772727272727,
                "end_time": 27.59090909090909,
                "pitch": 31,
                "velocity": 80,
                "duration": 0.3931818181818194,
                "tempo": 120.0
            },
            {
                "start_time": 27.59090909090909,
                "end_time": 27.672727272727272,
                "pitch": 31,
                "velocity": 80,
                "duration": 0.08181818181818201,
                "tempo": 120.0
            },
            {
                "start_time": 27.795454545454543,
                "end_time": 27.877272727272725,
                "pitch": 31,
                "velocity": 80,
                "duration": 0.08181818181818201,
                "tempo": 120.0
            },
            {
                "start_time": 28.0,
                "end_time": 28.079545454545453,
                "pitch": 33,
                "velocity": 80,
                "duration": 0.07954545454545325,
                "tempo": 120.0
            },
            {
                "start_time": 28.195454545454545,
                "end_time": 28.275,
                "pitch": 35,
                "velocity": 80,
                "duration": 0.07954545454545325,
                "tempo": 120.0
            },
            {
                "start_time": 28.393181818181816,
                "end_time": 28.474999999999998,
                "pitch": 36,
                "velocity": 80,
                "duration": 0.08181818181818201,
                "tempo": 120.0
            },
            {
                "start_time": 28.595454545454544,
                "end_time": 28.674999999999997,
                "pitch": 31,
                "velocity": 80,
                "duration": 0.07954545454545325,
                "tempo": 120.0
            },
            {
                "start_time": 28.795454545454543,
                "end_time": 29.19772727272727,
                "pitch": 36,
                "velocity": 80,
                "duration": 0.40227272727272734,
                "tempo": 120.0
            },
            {
                "start_time": 29.19772727272727,
                "end_time": 29.445454545454545,
                "pitch": 48,
                "velocity": 80,
                "duration": 0.2477272727272748,
                "tempo": 120.0
            },
            {
                "start_time": 29.595454545454544,
                "end_time": 29.852272727272727,
                "pitch": 45,
                "velocity": 80,
                "duration": 0.2568181818181827,
                "tempo": 120.0
            },
            {
                "start_time": 30.009090909090908,
                "end_time": 30.259090909090908,
                "pitch": 41,
                "velocity": 80,
                "duration": 0.25,
                "tempo": 120.0
            },
            {
                "start_time": 30.411363636363635,
                "end_time": 30.654545454545453,
                "pitch": 41,
                "velocity": 80,
                "duration": 0.24318181818181728,
                "tempo": 120.0
            },
            {
                "start_time": 30.804545454545455,
                "end_time": 31.052272727272726,
                "pitch": 48,
                "velocity": 80,
                "duration": 0.24772727272727124,
                "tempo": 120.0
            },
            {
                "start_time": 31.204545454545453,
                "end_time": 31.459090909090907,
                "pitch": 45,
                "velocity": 80,
                "duration": 0.25454545454545396,
                "tempo": 120.0
            },
            {
                "start_time": 31.61590909090909,
                "end_time": 31.863636363636363,
                "pitch": 41,
                "velocity": 80,
                "duration": 0.2477272727272748,
                "tempo": 120.0
            },
            {
                "start_time": 32.01590909090909,
                "end_time": 32.25909090909091,
                "pitch": 47,
                "velocity": 80,
                "duration": 0.24318181818181728,
                "tempo": 120.0
            },
            {
                "start_time": 32.40909090909091,
                "end_time": 32.65681818181818,
                "pitch": 48,
                "velocity": 80,
                "duration": 0.2477272727272748,
                "tempo": 120.0
            },
            {
                "start_time": 32.809090909090905,
                "end_time": 33.06590909090909,
                "pitch": 45,
                "velocity": 80,
                "duration": 0.2568181818181827,
                "tempo": 120.0
            },
            {
                "start_time": 33.220454545454544,
                "end_time": 33.46363636363636,
                "pitch": 46,
                "velocity": 80,
                "duration": 0.24318181818181728,
                "tempo": 120.0
            },
            {
                "start_time": 33.61363636363636,
                "end_time": 33.86818181818182,
                "pitch": 42,
                "velocity": 80,
                "duration": 0.2545454545454575,
                "tempo": 120.0
            },
            {
                "start_time": 34.025,
                "end_time": 34.27272727272727,
                "pitch": 43,
                "velocity": 80,
                "duration": 0.2477272727272748,
                "tempo": 120.0
            },
            {
                "start_time": 34.425,
                "end_time": 34.675,
                "pitch": 40,
                "velocity": 80,
                "duration": 0.25,
                "tempo": 120.0
            },
            {
                "start_time": 34.82954545454545,
                "end_time": 35.07727272727273,
                "pitch": 41,
                "velocity": 80,
                "duration": 0.2477272727272748,
                "tempo": 120.0
            },
            {
                "start_time": 35.22954545454545,
                "end_time": 35.47727272727273,
                "pitch": 36,
                "velocity": 80,
                "duration": 0.2477272727272748,
                "tempo": 120.0
            },
            {
                "start_time": 35.62954545454545,
                "end_time": 35.877272727272725,
                "pitch": 50,
                "velocity": 80,
                "duration": 0.2477272727272748,
                "tempo": 120.0
            },
            {
                "start_time": 36.029545454545456,
                "end_time": 36.28409090909091,
                "pitch": 47,
                "velocity": 80,
                "duration": 0.2545454545454504,
                "tempo": 120.0
            },
            {
                "start_time": 36.44090909090909,
                "end_time": 36.69090909090909,
                "pitch": 43,
                "velocity": 80,
                "duration": 0.25,
                "tempo": 120.0
            },
            {
                "start_time": 36.840909090909086,
                "end_time": 37.086363636363636,
                "pitch": 47,
                "velocity": 80,
                "duration": 0.2454545454545496,
                "tempo": 120.0
            },
            {
                "start_time": 37.23409090909091,
                "end_time": 37.48409090909091,
                "pitch": 47,
                "velocity": 80,
                "duration": 0.25,
                "tempo": 120.0
            },
            {
                "start_time": 37.63409090909091,
                "end_time": 37.89090909090909,
                "pitch": 46,
                "velocity": 80,
                "duration": 0.2568181818181827,
                "tempo": 120.0
            },
            {
                "start_time": 38.04772727272727,
                "end_time": 38.29772727272727,
                "pitch": 45,
                "velocity": 80,
                "duration": 0.25,
                "tempo": 120.0
            },
            {
                "start_time": 38.449999999999996,
                "end_time": 38.69318181818181,
                "pitch": 41,
                "velocity": 80,
                "duration": 0.24318181818181728,
                "tempo": 120.0
            },
            {
                "start_time": 38.84318181818182,
                "end_time": 39.090909090909086,
                "pitch": 41,
                "velocity": 80,
                "duration": 0.2477272727272677,
                "tempo": 120.0
            },
            {
                "start_time": 39.24318181818182,
                "end_time": 39.49090909090909,
                "pitch": 36,
                "velocity": 80,
                "duration": 0.2477272727272748,
                "tempo": 120.0
            },
            {
                "start_time": 39.643181818181816,
                "end_time": 39.89090909090909,
                "pitch": 41,
                "velocity": 80,
                "duration": 0.2477272727272748,
                "tempo": 120.0
            },
            {
                "start_time": 40.043181818181814,
                "end_time": 40.3,
                "pitch": 36,
                "velocity": 80,
                "duration": 0.2568181818181827,
                "tempo": 120.0
            },
            {
                "start_time": 40.45454545454545,
                "end_time": 40.69772727272727,
                "pitch": 40,
                "velocity": 80,
                "duration": 0.24318181818181728,
                "tempo": 120.0
            },
            {
                "start_time": 40.84772727272727,
                "end_time": 41.10227272727273,
                "pitch": 36,
                "velocity": 80,
                "duration": 0.2545454545454575,
                "tempo": 120.0
            },
            {
                "start_time": 41.25909090909091,
                "end_time": 41.50681818181818,
                "pitch": 41,
                "velocity": 80,
                "duration": 0.2477272727272748,
                "tempo": 120.0
            },
            {
                "start_time": 41.65909090909091,
                "end_time": 41.90909090909091,
                "pitch": 41,
                "velocity": 80,
                "duration": 0.25,
                "tempo": 120.0
            },
            {
                "start_time": 42.059090909090905,
                "end_time": 42.19318181818181,
                "pitch": 36,
                "velocity": 80,
                "duration": 0.13409090909090793,
                "tempo": 120.0
            },
            {
                "start_time": 42.25909090909091,
                "end_time": 42.32727272727273,
                "pitch": 36,
                "velocity": 80,
                "duration": 0.06818181818182012,
                "tempo": 120.0
            },
            {
                "start_time": 42.361363636363635,
                "end_time": 42.42727272727272,
                "pitch": 36,
                "velocity": 80,
                "duration": 0.06590909090908781,
                "tempo": 120.0
            },
            {
                "start_time": 42.461363636363636,
                "end_time": 42.595454545454544,
                "pitch": 31,
                "velocity": 80,
                "duration": 0.13409090909090793,
                "tempo": 120.0
            },
            {
                "start_time": 42.66136363636363,
                "end_time": 42.79545454545455,
                "pitch": 33,
                "velocity": 80,
                "duration": 0.13409090909091503,
                "tempo": 120.0
            },
            {
                "start_time": 42.86363636363636,
                "end_time": 42.99772727272727,
                "pitch": 36,
                "velocity": 80,
                "duration": 0.13409090909090793,
                "tempo": 120.0
            },
            {
                "start_time": 43.06818181818181,
                "end_time": 43.13636363636363,
                "pitch": 36,
                "velocity": 80,
                "duration": 0.06818181818182012,
                "tempo": 120.0
            },
            {
                "start_time": 43.17045454545455,
                "end_time": 43.23863636363636,
                "pitch": 36,
                "velocity": 80,
                "duration": 0.06818181818181301,
                "tempo": 120.0
            },
            {
                "start_time": 43.27272727272727,
                "end_time": 43.40454545454545,
                "pitch": 31,
                "velocity": 80,
                "duration": 0.13181818181817562,
                "tempo": 120.0
            },
            {
                "start_time": 43.470454545454544,
                "end_time": 43.6,
                "pitch": 33,
                "velocity": 80,
                "duration": 0.12954545454545752,
                "tempo": 120.0
            },
            {
                "start_time": 43.66590909090909,
                "end_time": 43.80227272727272,
                "pitch": 36,
                "velocity": 80,
                "duration": 0.13636363636363313,
                "tempo": 120.0
            },
            {
                "start_time": 43.87045454545454,
                "end_time": 43.93863636363636,
                "pitch": 36,
                "velocity": 80,
                "duration": 0.06818181818182012,
                "tempo": 120.0
            },
            {
                "start_time": 43.974999999999994,
                "end_time": 44.043181818181814,
                "pitch": 36,
                "velocity": 80,
                "duration": 0.06818181818182012,
                "tempo": 120.0
            },
            {
                "start_time": 44.07727272727273,
                "end_time": 44.20681818181818,
                "pitch": 31,
                "velocity": 80,
                "duration": 0.1295454545454504,
                "tempo": 120.0
            },
            {
                "start_time": 44.27272727272727,
                "end_time": 44.40454545454545,
                "pitch": 33,
                "velocity": 80,
                "duration": 0.13181818181817562,
                "tempo": 120.0
            },
            {
                "start_time": 44.470454545454544,
                "end_time": 44.570454545454545,
                "pitch": 36,
                "velocity": 80,
                "duration": 0.10000000000000142,
                "tempo": 120.0
            },
            {
                "start_time": 44.67045454545455,
                "end_time": 44.77045454545454,
                "pitch": 33,
                "velocity": 80,
                "duration": 0.09999999999999432,
                "tempo": 120.0
            },
            {
                "start_time": 44.87045454545454,
                "end_time": 44.970454545454544,
                "pitch": 31,
                "velocity": 80,
                "duration": 0.10000000000000142,
                "tempo": 120.0
            },
            {
                "start_time": 45.070454545454545,
                "end_time": 45.17045454545455,
                "pitch": 28,
                "velocity": 80,
                "duration": 0.10000000000000142,
                "tempo": 120.0
            },
            {
                "start_time": 45.275,
                "end_time": 45.470454545454544,
                "pitch": 36,
                "velocity": 80,
                "duration": 0.19545454545454533,
                "tempo": 120.0
            },
            {
                "start_time": 45.67272727272727,
                "end_time": 45.87045454545454,
                "pitch": 31,
                "velocity": 80,
                "duration": 0.19772727272727053,
                "tempo": 120.0
            },
            {
                "start_time": 46.074999999999996,
                "end_time": 46.27272727272727,
                "pitch": 33,
                "velocity": 80,
                "duration": 0.19772727272727764,
                "tempo": 120.0
            },
            {
                "start_time": 46.474999999999994,
                "end_time": 46.67727272727272,
                "pitch": 35,
                "velocity": 80,
                "duration": 0.20227272727272805,
                "tempo": 120.0
            },
            {
                "start_time": 46.877272727272725,
                "end_time": 47.07727272727273,
                "pitch": 36,
                "velocity": 80,
                "duration": 0.20000000000000284,
                "tempo": 120.0
            },
            {
                "start_time": 47.277272727272724,
                "end_time": 47.47727272727273,
                "pitch": 31,
                "velocity": 80,
                "duration": 0.20000000000000284,
                "tempo": 120.0
            },
            {
                "start_time": 47.679545454545455,
                "end_time": 47.877272727272725,
                "pitch": 33,
                "velocity": 80,
                "duration": 0.19772727272727053,
                "tempo": 120.0
            },
            {
                "start_time": 48.07727272727273,
                "end_time": 48.27954545454545,
                "pitch": 35,
                "velocity": 80,
                "duration": 0.20227272727272094,
                "tempo": 120.0
            },
            {
                "start_time": 48.48181818181818,
                "end_time": 48.68636363636364,
                "pitch": 42,
                "velocity": 80,
                "duration": 0.20454545454546036,
                "tempo": 120.0
            },
            {
                "start_time": 48.893181818181816,
                "end_time": 49.090909090909086,
                "pitch": 36,
                "velocity": 80,
                "duration": 0.19772727272727053,
                "tempo": 120.0
            },
            {
                "start_time": 49.29545454545454,
                "end_time": 49.49545454545454,
                "pitch": 42,
                "velocity": 80,
                "duration": 0.20000000000000284,
                "tempo": 120.0
            },
            {
                "start_time": 49.69772727272727,
                "end_time": 49.89545454545454,
                "pitch": 36,
                "velocity": 80,
                "duration": 0.19772727272727053,
                "tempo": 120.0
            },
            {
                "start_time": 50.09772727272727,
                "end_time": 50.29772727272727,
                "pitch": 42,
                "velocity": 80,
                "duration": 0.20000000000000284,
                "tempo": 120.0
            },
            {
                "start_time": 50.29772727272727,
                "end_time": 50.37954545454545,
                "pitch": 41,
                "velocity": 80,
                "duration": 0.08181818181817846,
                "tempo": 120.0
            },
            {
                "start_time": 50.49772727272727,
                "end_time": 50.57954545454545,
                "pitch": 40,
                "velocity": 80,
                "duration": 0.08181818181818556,
                "tempo": 120.0
            },
            {
                "start_time": 50.69772727272727,
                "end_time": 50.77954545454545,
                "pitch": 39,
                "velocity": 80,
                "duration": 0.08181818181817846,
                "tempo": 120.0
            },
            {
                "start_time": 50.9,
                "end_time": 51.09772727272727,
                "pitch": 38,
                "velocity": 80,
                "duration": 0.19772727272727053,
                "tempo": 120.0
            },
            {
                "start_time": 51.09772727272727,
                "end_time": 51.179545454545455,
                "pitch": 39,
                "velocity": 80,
                "duration": 0.08181818181818556,
                "tempo": 120.0
            },
            {
                "start_time": 51.3,
                "end_time": 51.38181818181818,
                "pitch": 40,
                "velocity": 80,
                "duration": 0.08181818181818556,
                "tempo": 120.0
            },
            {
                "start_time": 51.5,
                "end_time": 51.584090909090904,
                "pitch": 41,
                "velocity": 80,
                "duration": 0.08409090909090366,
                "tempo": 120.0
            },
            {
                "start_time": 51.70454545454545,
                "end_time": 51.9,
                "pitch": 36,
                "velocity": 80,
                "duration": 0.19545454545454533,
                "tempo": 120.0
            },
            {
                "start_time": 52.10454545454545,
                "end_time": 52.30227272727272,
                "pitch": 31,
                "velocity": 80,
                "duration": 0.19772727272727053,
                "tempo": 120.0
            },
            {
                "start_time": 52.50454545454545,
                "end_time": 52.70227272727273,
                "pitch": 33,
                "velocity": 80,
                "duration": 0.19772727272727764,
                "tempo": 120.0
            },
            {
                "start_time": 52.902272727272724,
                "end_time": 53.10454545454545,
                "pitch": 35,
                "velocity": 80,
                "duration": 0.20227272727272805,
                "tempo": 120.0
            },
            {
                "start_time": 53.304545454545455,
                "end_time": 53.50454545454545,
                "pitch": 36,
                "velocity": 80,
                "duration": 0.19999999999999574,
                "tempo": 120.0
            },
            {
                "start_time": 53.709090909090904,
                "end_time": 53.90681818181818,
                "pitch": 31,
                "velocity": 80,
                "duration": 0.19772727272727764,
                "tempo": 120.0
            },
            {
                "start_time": 54.10909090909091,
                "end_time": 54.30681818181818,
                "pitch": 33,
                "velocity": 80,
                "duration": 0.19772727272727053,
                "tempo": 120.0
            },
            {
                "start_time": 54.50681818181818,
                "end_time": 54.709090909090904,
                "pitch": 35,
                "velocity": 80,
                "duration": 0.20227272727272094,
                "tempo": 120.0
            },
            {
                "start_time": 54.90909090909091,
                "end_time": 55.10909090909091,
                "pitch": 42,
                "velocity": 80,
                "duration": 0.20000000000000284,
                "tempo": 120.0
            },
            {
                "start_time": 55.309090909090905,
                "end_time": 55.50909090909091,
                "pitch": 36,
                "velocity": 80,
                "duration": 0.20000000000000284,
                "tempo": 120.0
            },
            {
                "start_time": 55.71363636363636,
                "end_time": 55.918181818181814,
                "pitch": 42,
                "velocity": 80,
                "duration": 0.20454545454545325,
                "tempo": 120.0
            },
            {
                "start_time": 56.125,
                "end_time": 56.32272727272727,
                "pitch": 36,
                "velocity": 80,
                "duration": 0.19772727272727053,
                "tempo": 120.0
            },
            {
                "start_time": 56.527272727272724,
                "end_time": 56.724999999999994,
                "pitch": 42,
                "velocity": 80,
                "duration": 0.19772727272727053,
                "tempo": 120.0
            },
            {
                "start_time": 56.724999999999994,
                "end_time": 56.80681818181818,
                "pitch": 41,
                "velocity": 80,
                "duration": 0.08181818181818556,
                "tempo": 120.0
            },
            {
                "start_time": 56.925,
                "end_time": 57.006818181818176,
                "pitch": 40,
                "velocity": 80,
                "duration": 0.08181818181817846,
                "tempo": 120.0
            },
            {
                "start_time": 57.127272727272725,
                "end_time": 57.209090909090904,
                "pitch": 39,
                "velocity": 80,
                "duration": 0.08181818181817846,
                "tempo": 120.0
            },
            {
                "start_time": 57.32954545454545,
                "end_time": 57.527272727272724,
                "pitch": 38,
                "velocity": 80,
                "duration": 0.19772727272727053,
                "tempo": 120.0
            }
        ]
    }
}