{
    "track_id": "23 Event",
    "mood": "happy",
    "instruments": {
        "Electric Piano 1": [
            {
                "start_time": 0.509090909090909,
                "end_time": 0.6181818181818182,
                "pitch": 72,
                "velocity": 80,
                "duration": 0.10909090909090913,
                "tempo": 120.0
            },
            {
                "start_time": 0.7977272727272727,
                "end_time": 1.0477272727272726,
                "pitch": 72,
                "velocity": 80,
                "duration": 0.2499999999999999,
                "tempo": 120.0
            },
            {
                "start_time": 1.45,
                "end_time": 1.7045454545454544,
                "pitch": 72,
                "velocity": 80,
                "duration": 0.2545454545454544,
                "tempo": 120.0
            },
            {
                "start_time": 2.109090909090909,
                "end_time": 2.290909090909091,
                "pitch": 74,
                "velocity": 80,
                "duration": 0.1818181818181821,
                "tempo": 120.0
            },
            {
                "start_time": 3.6477272727272725,
                "end_time": 6.915909090909091,
                "pitch": 76,
                "velocity": 80,
                "duration": 3.2681818181818185,
                "tempo": 120.0
            }
        ],
        "Clarinet": [
            {
                "start_time": 0.509090909090909,
                "end_time": 0.5545454545454546,
                "pitch": 79,
                "velocity": 40,
                "duration": 0.045454545454545525,
                "tempo": 120.0
            },
            {
                "start_time": 0.5545454545454546,
                "end_time": 0.6045454545454545,
                "pitch": 81,
                "velocity": 40,
                "duration": 0.04999999999999993,
                "tempo": 120.0
            },
            {
                "start_time": 0.6045454545454545,
                "end_time": 0.6522727272727272,
                "pitch": 79,
                "velocity": 40,
                "duration": 0.04772727272727273,
                "tempo": 120.0
            },
            {
                "start_time": 0.6522727272727272,
                "end_time": 0.7,
                "pitch": 81,
                "velocity": 40,
                "duration": 0.04772727272727273,
                "tempo": 120.0
            },
            {
                "start_time": 0.7,
                "end_time": 0.7477272727272727,
                "pitch": 79,
                "velocity": 40,
                "duration": 0.04772727272727273,
                "tempo": 120.0
            },
            {
                "start_time": 0.7477272727272727,
                "end_time": 0.7977272727272727,
                "pitch": 81,
                "velocity": 40,
                "duration": 0.050000000000000044,
                "tempo": 120.0
            },
            {
                "start_time": 0.7977272727272727,
                "end_time": 0.9022727272727272,
                "pitch": 79,
                "velocity": 40,
                "duration": 0.1045454545454545,
                "tempo": 120.0
            },
            {
                "start_time": 0.9022727272727272,
                "end_time": 1.0113636363636362,
                "pitch": 81,
                "velocity": 40,
                "duration": 0.10909090909090902,
                "tempo": 120.0
            },
            {
                "start_time": 1.0113636363636362,
                "end_time": 1.1204545454545454,
                "pitch": 79,
                "velocity": 40,
                "duration": 0.10909090909090913,
                "tempo": 120.0
            },
            {
                "start_time": 1.1204545454545454,
                "end_time": 1.2318181818181817,
                "pitch": 81,
                "velocity": 40,
                "duration": 0.11136363636363633,
                "tempo": 120.0
            },
            {
                "start_time": 1.2318181818181817,
                "end_time": 1.3409090909090908,
                "pitch": 79,
                "velocity": 40,
                "duration": 0.10909090909090913,
                "tempo": 120.0
            },
            {
                "start_time": 1.3409090909090908,
                "end_time": 1.4522727272727272,
                "pitch": 81,
                "velocity": 40,
                "duration": 0.11136363636363633,
                "tempo": 120.0
            },
            {
                "start_time": 1.4522727272727272,
                "end_time": 1.559090909090909,
                "pitch": 79,
                "velocity": 40,
                "duration": 0.10681818181818192,
                "tempo": 120.0
            },
            {
                "start_time": 1.5613636363636363,
                "end_time": 1.6704545454545454,
                "pitch": 81,
                "velocity": 40,
                "duration": 0.10909090909090913,
                "tempo": 120.0
            },
            {
                "start_time": 1.6704545454545454,
                "end_time": 1.7795454545454545,
                "pitch": 79,
                "velocity": 40,
                "duration": 0.10909090909090913,
                "tempo": 120.0
            },
            {
                "start_time": 1.7795454545454545,
                "end_time": 1.8886363636363634,
                "pitch": 81,
                "velocity": 40,
                "duration": 0.1090909090909089,
                "tempo": 120.0
            },
            {
                "start_time": 1.8909090909090909,
                "end_time": 1.9977272727272726,
                "pitch": 79,
                "velocity": 40,
                "duration": 0.1068181818181817,
                "tempo": 120.0
            },
            {
                "start_time": 2.0,
                "end_time": 2.109090909090909,
                "pitch": 81,
                "velocity": 40,
                "duration": 0.1090909090909089,
                "tempo": 120.0
            },
            {
                "start_time": 2.1113636363636363,
                "end_time": 2.2181818181818183,
                "pitch": 79,
                "velocity": 40,
                "duration": 0.10681818181818192,
                "tempo": 120.0
            },
            {
                "start_time": 2.2181818181818183,
                "end_time": 2.327272727272727,
                "pitch": 81,
                "velocity": 40,
                "duration": 0.1090909090909089,
                "tempo": 120.0
            },
            {
                "start_time": 2.3295454545454546,
                "end_time": 2.436363636363636,
                "pitch": 79,
                "velocity": 40,
                "duration": 0.10681818181818148,
                "tempo": 120.0
            },
            {
                "start_time": 2.4386363636363635,
                "end_time": 2.5477272727272724,
                "pitch": 81,
                "velocity": 40,
                "duration": 0.1090909090909089,
                "tempo": 120.0
            },
            {
                "start_time": 2.5477272727272724,
                "end_time": 2.6568181818181817,
                "pitch": 79,
                "velocity": 40,
                "duration": 0.10909090909090935,
                "tempo": 120.0
            },
            {
                "start_time": 2.6568181818181817,
                "end_time": 2.768181818181818,
                "pitch": 81,
                "velocity": 40,
                "duration": 0.11136363636363633,
                "tempo": 120.0
            },
            {
                "start_time": 3.6477272727272725,
                "end_time": 3.752272727272727,
                "pitch": 84,
                "velocity": 40,
                "duration": 0.1045454545454545,
                "tempo": 120.0
            },
            {
                "start_time": 3.752272727272727,
                "end_time": 3.8636363636363633,
                "pitch": 86,
                "velocity": 40,
                "duration": 0.11136363636363633,
                "tempo": 120.0
            },
            {
                "start_time": 3.8636363636363633,
                "end_time": 3.9727272727272727,
                "pitch": 84,
                "velocity": 40,
                "duration": 0.10909090909090935,
                "tempo": 120.0
            },
            {
                "start_time": 3.9727272727272727,
                "end_time": 4.081818181818182,
                "pitch": 86,
                "velocity": 40,
                "duration": 0.10909090909090935,
                "tempo": 120.0
            },
            {
                "start_time": 4.081818181818182,
                "end_time": 4.1909090909090905,
                "pitch": 84,
                "velocity": 40,
                "duration": 0.10909090909090846,
                "tempo": 120.0
            },
            {
                "start_time": 4.1909090909090905,
                "end_time": 4.3,
                "pitch": 86,
                "velocity": 40,
                "duration": 0.10909090909090935,
                "tempo": 120.0
            },
            {
                "start_time": 4.302272727272727,
                "end_time": 4.411363636363636,
                "pitch": 84,
                "velocity": 40,
                "duration": 0.10909090909090935,
                "tempo": 120.0
            },
            {
                "start_time": 4.411363636363636,
                "end_time": 4.5204545454545455,
                "pitch": 86,
                "velocity": 40,
                "duration": 0.10909090909090935,
                "tempo": 120.0
            },
            {
                "start_time": 4.5204545454545455,
                "end_time": 4.625,
                "pitch": 84,
                "velocity": 40,
                "duration": 0.1045454545454545,
                "tempo": 120.0
            },
            {
                "start_time": 4.625,
                "end_time": 4.722727272727273,
                "pitch": 84,
                "velocity": 40,
                "duration": 0.09772727272727266,
                "tempo": 120.0
            },
            {
                "start_time": 4.725,
                "end_time": 4.822727272727272,
                "pitch": 86,
                "velocity": 40,
                "duration": 0.09772727272727266,
                "tempo": 120.0
            },
            {
                "start_time": 4.822727272727272,
                "end_time": 4.922727272727273,
                "pitch": 84,
                "velocity": 40,
                "duration": 0.10000000000000053,
                "tempo": 120.0
            },
            {
                "start_time": 4.922727272727273,
                "end_time": 5.0204545454545455,
                "pitch": 86,
                "velocity": 40,
                "duration": 0.09772727272727266,
                "tempo": 120.0
            },
            {
                "start_time": 5.0227272727272725,
                "end_time": 5.120454545454545,
                "pitch": 84,
                "velocity": 40,
                "duration": 0.09772727272727266,
                "tempo": 120.0
            },
            {
                "start_time": 5.120454545454545,
                "end_time": 5.220454545454545,
                "pitch": 86,
                "velocity": 40,
                "duration": 0.09999999999999964,
                "tempo": 120.0
            },
            {
                "start_time": 5.220454545454545,
                "end_time": 5.318181818181818,
                "pitch": 84,
                "velocity": 40,
                "duration": 0.09772727272727355,
                "tempo": 120.0
            },
            {
                "start_time": 5.320454545454545,
                "end_time": 5.418181818181818,
                "pitch": 86,
                "velocity": 40,
                "duration": 0.09772727272727266,
                "tempo": 120.0
            },
            {
                "start_time": 5.418181818181818,
                "end_time": 5.515909090909091,
                "pitch": 84,
                "velocity": 40,
                "duration": 0.09772727272727266,
                "tempo": 120.0
            },
            {
                "start_time": 5.518181818181818,
                "end_time": 5.61590909090909,
                "pitch": 84,
                "velocity": 40,
                "duration": 0.09772727272727266,
                "tempo": 120.0
            },
            {
                "start_time": 5.61590909090909,
                "end_time": 5.715909090909091,
                "pitch": 86,
                "velocity": 40,
                "duration": 0.10000000000000053,
                "tempo": 120.0
            },
            {
                "start_time": 5.715909090909091,
                "end_time": 5.8136363636363635,
                "pitch": 84,
                "velocity": 40,
                "duration": 0.09772727272727266,
                "tempo": 120.0
            },
            {
                "start_time": 5.8159090909090905,
                "end_time": 5.913636363636363,
                "pitch": 86,
                "velocity": 40,
                "duration": 0.09772727272727266,
                "tempo": 120.0
            },
            {
                "start_time": 5.913636363636363,
                "end_time": 6.013636363636364,
                "pitch": 84,
                "velocity": 40,
                "duration": 0.10000000000000053,
                "tempo": 120.0
            },
            {
                "start_time": 6.013636363636364,
                "end_time": 6.111363636363636,
                "pitch": 86,
                "velocity": 40,
                "duration": 0.09772727272727266,
                "tempo": 120.0
            },
            {
                "start_time": 6.113636363636363,
                "end_time": 6.211363636363636,
                "pitch": 84,
                "velocity": 40,
                "duration": 0.09772727272727266,
                "tempo": 120.0
            },
            {
                "start_time": 6.211363636363636,
                "end_time": 6.311363636363636,
                "pitch": 86,
                "velocity": 40,
                "duration": 0.09999999999999964,
                "tempo": 120.0
            },
            {
                "start_time": 6.311363636363636,
                "end_time": 6.411363636363636,
                "pitch": 84,
                "velocity": 40,
                "duration": 0.10000000000000053,
                "tempo": 120.0
            },
            {
                "start_time": 6.413636363636363,
                "end_time": 6.513636363636364,
                "pitch": 84,
                "velocity": 40,
                "duration": 0.10000000000000053,
                "tempo": 120.0
            },
            {
                "start_time": 6.513636363636364,
                "end_time": 6.613636363636363,
                "pitch": 86,
                "velocity": 40,
                "duration": 0.09999999999999964,
                "tempo": 120.0
            },
            {
                "start_time": 6.613636363636363,
                "end_time": 6.713636363636363,
                "pitch": 84,
                "velocity": 40,
                "duration": 0.09999999999999964,
                "tempo": 120.0
            },
            {
                "start_time": 6.713636363636363,
                "end_time": 6.8136363636363635,
                "pitch": 86,
                "velocity": 40,
                "duration": 0.10000000000000053,
                "tempo": 120.0
            },
            {
                "start_time": 6.8159090909090905,
                "end_time": 6.915909090909091,
                "pitch": 84,
                "velocity": 40,
                "duration": 0.10000000000000053,
                "tempo": 120.0
            },
            {
                "start_time": 6.915909090909091,
                "end_time": 7.015909090909091,
                "pitch": 86,
                "velocity": 40,
                "duration": 0.09999999999999964,
                "tempo": 120.0
            },
            {
                "start_time": 7.015909090909091,
                "end_time": 7.11590909090909,
                "pitch": 84,
                "velocity": 40,
                "duration": 0.09999999999999964,
                "tempo": 120.0
            },
            {
                "start_time": 7.11590909090909,
                "end_time": 7.215909090909091,
                "pitch": 86,
                "velocity": 40,
                "duration": 0.10000000000000053,
                "tempo": 120.0
            },
            {
                "start_time": 7.215909090909091,
                "end_time": 7.3159090909090905,
                "pitch": 84,
                "velocity": 40,
                "duration": 0.09999999999999964,
                "tempo": 120.0
            }
        ],
        "Oboe": [
            {
                "start_time": 0.509090909090909,
                "end_time": 0.6204545454545454,
                "pitch": 84,
                "velocity": 40,
                "duration": 0.11136363636363633,
                "tempo": 120.0
            },
            {
                "start_time": 0.7977272727272727,
                "end_time": 1.0477272727272726,
                "pitch": 84,
                "velocity": 40,
                "duration": 0.2499999999999999,
                "tempo": 120.0
            },
            {
                "start_time": 1.4545454545454546,
                "end_time": 1.7068181818181818,
                "pitch": 84,
                "velocity": 40,
                "duration": 0.2522727272727272,
                "tempo": 120.0
            },
            {
                "start_time": 2.1113636363636363,
                "end_time": 2.290909090909091,
                "pitch": 86,
                "velocity": 40,
                "duration": 0.17954545454545467,
                "tempo": 120.0
            },
            {
                "start_time": 3.65,
                "end_time": 6.915909090909091,
                "pitch": 88,
                "velocity": 40,
                "duration": 3.265909090909091,
                "tempo": 120.0
            }
        ],
        "Trumpet": [
            {
                "start_time": 0.5113636363636364,
                "end_time": 0.6363636363636364,
                "pitch": 43,
                "velocity": 80,
                "duration": 0.125,
                "tempo": 120.0
            },
            {
                "start_time": 0.7,
                "end_time": 0.7636363636363636,
                "pitch": 43,
                "velocity": 80,
                "duration": 0.0636363636363636,
                "tempo": 120.0
            },
            {
                "start_time": 0.7977272727272727,
                "end_time": 1.0863636363636364,
                "pitch": 42,
                "velocity": 80,
                "duration": 0.2886363636363637,
                "tempo": 120.0
            },
            {
                "start_time": 1.2340909090909091,
                "end_time": 1.3772727272727272,
                "pitch": 42,
                "velocity": 80,
                "duration": 0.14318181818181808,
                "tempo": 120.0
            },
            {
                "start_time": 1.4545454545454546,
                "end_time": 1.7431818181818182,
                "pitch": 41,
                "velocity": 80,
                "duration": 0.2886363636363636,
                "tempo": 120.0
            },
            {
                "start_time": 1.8909090909090909,
                "end_time": 2.034090909090909,
                "pitch": 41,
                "velocity": 80,
                "duration": 0.1431818181818183,
                "tempo": 120.0
            },
            {
                "start_time": 2.1136363636363633,
                "end_time": 2.4022727272727273,
                "pitch": 39,
                "velocity": 80,
                "duration": 0.288636363636364,
                "tempo": 120.0
            },
            {
                "start_time": 2.55,
                "end_time": 2.693181818181818,
                "pitch": 38,
                "velocity": 80,
                "duration": 0.14318181818181808,
                "tempo": 120.0
            },
            {
                "start_time": 2.7704545454545455,
                "end_time": 3.059090909090909,
                "pitch": 36,
                "velocity": 80,
                "duration": 0.2886363636363636,
                "tempo": 120.0
            },
            {
                "start_time": 3.652272727272727,
                "end_time": 6.918181818181818,
                "pitch": 36,
                "velocity": 80,
                "duration": 3.265909090909091,
                "tempo": 120.0
            }
        ]
    }
}