{
    "track_id": "42 GET_Item",
    "mood": "happy",
    "instruments": {
        "Electric Piano 1": [
            {
                "start_time": 0.015909090909090907,
                "end_time": 0.6886363636363636,
                "pitch": 65,
                "velocity": 64,
                "duration": 0.6727272727272727,
                "tempo": 120.0
            },
            {
                "start_time": 0.6909090909090909,
                "end_time": 1.3704545454545454,
                "pitch": 65,
                "velocity": 64,
                "duration": 0.6795454545454545,
                "tempo": 120.0
            },
            {
                "start_time": 1.3704545454545454,
                "end_time": 2.043181818181818,
                "pitch": 69,
                "velocity": 64,
                "duration": 0.6727272727272726,
                "tempo": 120.0
            },
            {
                "start_time": 2.043181818181818,
                "end_time": 2.3863636363636362,
                "pitch": 69,
                "velocity": 64,
                "duration": 0.34318181818181825,
                "tempo": 120.0
            },
            {
                "start_time": 2.3886363636363637,
                "end_time": 2.5545454545454542,
                "pitch": 69,
                "velocity": 64,
                "duration": 0.16590909090909056,
                "tempo": 120.0
            },
            {
                "start_time": 2.5545454545454542,
                "end_time": 2.7227272727272727,
                "pitch": 70,
                "velocity": 64,
                "duration": 0.16818181818181843,
                "tempo": 120.0
            },
            {
                "start_time": 2.725,
                "end_time": 2.8954545454545455,
                "pitch": 72,
                "velocity": 64,
                "duration": 0.17045454545454541,
                "tempo": 120.0
            },
            {
                "start_time": 2.8977272727272725,
                "end_time": 3.0704545454545453,
                "pitch": 72,
                "velocity": 25,
                "duration": 0.17272727272727284,
                "tempo": 120.0
            },
            {
                "start_time": 3.0704545454545453,
                "end_time": 3.243181818181818,
                "pitch": 69,
                "velocity": 51,
                "duration": 0.17272727272727284,
                "tempo": 120.0
            },
            {
                "start_time": 3.243181818181818,
                "end_time": 3.418181818181818,
                "pitch": 69,
                "velocity": 25,
                "duration": 0.17499999999999982,
                "tempo": 120.0
            },
            {
                "start_time": 3.418181818181818,
                "end_time": 3.584090909090909,
                "pitch": 69,
                "velocity": 51,
                "duration": 0.165909090909091,
                "tempo": 120.0
            },
            {
                "start_time": 3.584090909090909,
                "end_time": 3.75,
                "pitch": 69,
                "velocity": 25,
                "duration": 0.165909090909091,
                "tempo": 120.0
            },
            {
                "start_time": 3.752272727272727,
                "end_time": 3.9159090909090906,
                "pitch": 65,
                "velocity": 51,
                "duration": 0.16363636363636358,
                "tempo": 120.0
            },
            {
                "start_time": 3.9159090909090906,
                "end_time": 4.084090909090909,
                "pitch": 65,
                "velocity": 25,
                "duration": 0.16818181818181843,
                "tempo": 120.0
            },
            {
                "start_time": 4.084090909090909,
                "end_time": 4.6477272727272725,
                "pitch": 60,
                "velocity": 51,
                "duration": 0.5636363636363635,
                "tempo": 120.0
            },
            {
                "start_time": 4.6499999999999995,
                "end_time": 5.206818181818181,
                "pitch": 60,
                "velocity": 40,
                "duration": 0.5568181818181817,
                "tempo": 120.0
            },
            {
                "start_time": 5.209090909090909,
                "end_time": 5.777272727272727,
                "pitch": 60,
                "velocity": 32,
                "duration": 0.5681818181818183,
                "tempo": 120.0
            }
        ],
        "Vibraphone": [
            {
                "start_time": 0.2409090909090909,
                "end_time": 0.28863636363636364,
                "pitch": 95,
                "velocity": 40,
                "duration": 0.04772727272727273,
                "tempo": 120.0
            },
            {
                "start_time": 0.2909090909090909,
                "end_time": 0.3568181818181818,
                "pitch": 93,
                "velocity": 40,
                "duration": 0.06590909090909092,
                "tempo": 120.0
            },
            {
                "start_time": 0.35909090909090907,
                "end_time": 0.40454545454545454,
                "pitch": 91,
                "velocity": 40,
                "duration": 0.04545454545454547,
                "tempo": 120.0
            },
            {
                "start_time": 0.40454545454545454,
                "end_time": 0.45454545454545453,
                "pitch": 89,
                "velocity": 40,
                "duration": 0.04999999999999999,
                "tempo": 120.0
            },
            {
                "start_time": 0.4568181818181818,
                "end_time": 0.5227272727272727,
                "pitch": 88,
                "velocity": 40,
                "duration": 0.06590909090909092,
                "tempo": 120.0
            },
            {
                "start_time": 0.5227272727272727,
                "end_time": 0.5704545454545454,
                "pitch": 86,
                "velocity": 40,
                "duration": 0.04772727272727273,
                "tempo": 120.0
            },
            {
                "start_time": 0.5727272727272728,
                "end_time": 0.6204545454545454,
                "pitch": 84,
                "velocity": 40,
                "duration": 0.04772727272727262,
                "tempo": 120.0
            },
            {
                "start_time": 0.6227272727272727,
                "end_time": 0.6909090909090909,
                "pitch": 83,
                "velocity": 40,
                "duration": 0.06818181818181823,
                "tempo": 120.0
            },
            {
                "start_time": 0.6909090909090909,
                "end_time": 0.7386363636363636,
                "pitch": 93,
                "velocity": 40,
                "duration": 0.04772727272727273,
                "tempo": 120.0
            },
            {
                "start_time": 0.7386363636363636,
                "end_time": 0.8068181818181818,
                "pitch": 91,
                "velocity": 40,
                "duration": 0.06818181818181812,
                "tempo": 120.0
            },
            {
                "start_time": 0.8068181818181818,
                "end_time": 0.8568181818181818,
                "pitch": 89,
                "velocity": 40,
                "duration": 0.050000000000000044,
                "tempo": 120.0
            },
            {
                "start_time": 0.859090909090909,
                "end_time": 0.9090909090909091,
                "pitch": 88,
                "velocity": 40,
                "duration": 0.050000000000000044,
                "tempo": 120.0
            },
            {
                "start_time": 0.9090909090909091,
                "end_time": 0.975,
                "pitch": 86,
                "velocity": 40,
                "duration": 0.06590909090909092,
                "tempo": 120.0
            },
            {
                "start_time": 0.9772727272727272,
                "end_time": 1.0318181818181817,
                "pitch": 84,
                "velocity": 40,
                "duration": 0.054545454545454564,
                "tempo": 120.0
            },
            {
                "start_time": 1.0318181818181817,
                "end_time": 1.0772727272727272,
                "pitch": 83,
                "velocity": 40,
                "duration": 0.045454545454545414,
                "tempo": 120.0
            },
            {
                "start_time": 1.0795454545454546,
                "end_time": 1.1454545454545455,
                "pitch": 81,
                "velocity": 40,
                "duration": 0.06590909090909092,
                "tempo": 120.0
            },
            {
                "start_time": 1.1477272727272727,
                "end_time": 1.1977272727272728,
                "pitch": 91,
                "velocity": 40,
                "duration": 0.050000000000000044,
                "tempo": 120.0
            },
            {
                "start_time": 1.1977272727272728,
                "end_time": 1.2477272727272726,
                "pitch": 89,
                "velocity": 40,
                "duration": 0.04999999999999982,
                "tempo": 120.0
            },
            {
                "start_time": 1.2477272727272726,
                "end_time": 1.315909090909091,
                "pitch": 88,
                "velocity": 40,
                "duration": 0.06818181818181834,
                "tempo": 120.0
            },
            {
                "start_time": 1.315909090909091,
                "end_time": 1.3727272727272726,
                "pitch": 86,
                "velocity": 40,
                "duration": 0.05681818181818166,
                "tempo": 120.0
            },
            {
                "start_time": 1.3727272727272726,
                "end_time": 1.4181818181818182,
                "pitch": 84,
                "velocity": 40,
                "duration": 0.045454545454545636,
                "tempo": 120.0
            },
            {
                "start_time": 1.4181818181818182,
                "end_time": 1.4840909090909091,
                "pitch": 83,
                "velocity": 40,
                "duration": 0.06590909090909092,
                "tempo": 120.0
            },
            {
                "start_time": 1.4863636363636363,
                "end_time": 1.534090909090909,
                "pitch": 81,
                "velocity": 40,
                "duration": 0.04772727272727262,
                "tempo": 120.0
            },
            {
                "start_time": 1.534090909090909,
                "end_time": 1.6022727272727273,
                "pitch": 79,
                "velocity": 40,
                "duration": 0.06818181818181834,
                "tempo": 120.0
            },
            {
                "start_time": 1.6022727272727273,
                "end_time": 1.6522727272727271,
                "pitch": 89,
                "velocity": 40,
                "duration": 0.04999999999999982,
                "tempo": 120.0
            },
            {
                "start_time": 1.6522727272727271,
                "end_time": 1.7045454545454544,
                "pitch": 88,
                "velocity": 40,
                "duration": 0.05227272727272725,
                "tempo": 120.0
            },
            {
                "start_time": 1.7045454545454544,
                "end_time": 1.7704545454545453,
                "pitch": 86,
                "velocity": 40,
                "duration": 0.06590909090909092,
                "tempo": 120.0
            },
            {
                "start_time": 1.7704545454545453,
                "end_time": 1.8204545454545453,
                "pitch": 84,
                "velocity": 40,
                "duration": 0.050000000000000044,
                "tempo": 120.0
            },
            {
                "start_time": 1.8204545454545453,
                "end_time": 1.8704545454545454,
                "pitch": 83,
                "velocity": 40,
                "duration": 0.050000000000000044,
                "tempo": 120.0
            },
            {
                "start_time": 1.8704545454545454,
                "end_time": 1.9386363636363635,
                "pitch": 81,
                "velocity": 40,
                "duration": 0.06818181818181812,
                "tempo": 120.0
            },
            {
                "start_time": 1.9386363636363635,
                "end_time": 1.9886363636363635,
                "pitch": 79,
                "velocity": 40,
                "duration": 0.050000000000000044,
                "tempo": 120.0
            },
            {
                "start_time": 1.9886363636363635,
                "end_time": 2.0454545454545454,
                "pitch": 77,
                "velocity": 40,
                "duration": 0.05681818181818188,
                "tempo": 120.0
            },
            {
                "start_time": 2.0454545454545454,
                "end_time": 2.1045454545454545,
                "pitch": 89,
                "velocity": 40,
                "duration": 0.05909090909090908,
                "tempo": 120.0
            },
            {
                "start_time": 2.1045454545454545,
                "end_time": 2.1545454545454543,
                "pitch": 88,
                "velocity": 40,
                "duration": 0.04999999999999982,
                "tempo": 120.0
            },
            {
                "start_time": 2.1568181818181817,
                "end_time": 2.2045454545454546,
                "pitch": 86,
                "velocity": 40,
                "duration": 0.04772727272727284,
                "tempo": 120.0
            },
            {
                "start_time": 2.2045454545454546,
                "end_time": 2.2704545454545455,
                "pitch": 84,
                "velocity": 40,
                "duration": 0.06590909090909092,
                "tempo": 120.0
            },
            {
                "start_time": 2.2727272727272725,
                "end_time": 2.3204545454545453,
                "pitch": 83,
                "velocity": 40,
                "duration": 0.04772727272727284,
                "tempo": 120.0
            },
            {
                "start_time": 2.3227272727272728,
                "end_time": 2.3886363636363637,
                "pitch": 81,
                "velocity": 40,
                "duration": 0.06590909090909092,
                "tempo": 120.0
            },
            {
                "start_time": 2.3886363636363637,
                "end_time": 2.436363636363636,
                "pitch": 79,
                "velocity": 40,
                "duration": 0.047727272727272396,
                "tempo": 120.0
            },
            {
                "start_time": 2.4386363636363635,
                "end_time": 2.4863636363636363,
                "pitch": 77,
                "velocity": 40,
                "duration": 0.04772727272727284,
                "tempo": 120.0
            },
            {
                "start_time": 2.4886363636363633,
                "end_time": 2.5545454545454542,
                "pitch": 79,
                "velocity": 40,
                "duration": 0.06590909090909092,
                "tempo": 120.0
            },
            {
                "start_time": 2.5568181818181817,
                "end_time": 2.602272727272727,
                "pitch": 81,
                "velocity": 40,
                "duration": 0.045454545454545414,
                "tempo": 120.0
            },
            {
                "start_time": 2.6045454545454545,
                "end_time": 2.6522727272727273,
                "pitch": 83,
                "velocity": 40,
                "duration": 0.04772727272727284,
                "tempo": 120.0
            },
            {
                "start_time": 2.6522727272727273,
                "end_time": 2.725,
                "pitch": 84,
                "velocity": 40,
                "duration": 0.07272727272727275,
                "tempo": 120.0
            },
            {
                "start_time": 2.727272727272727,
                "end_time": 2.7704545454545455,
                "pitch": 86,
                "velocity": 40,
                "duration": 0.04318181818181843,
                "tempo": 120.0
            },
            {
                "start_time": 2.7727272727272725,
                "end_time": 2.8249999999999997,
                "pitch": 88,
                "velocity": 40,
                "duration": 0.05227272727272725,
                "tempo": 120.0
            },
            {
                "start_time": 2.8249999999999997,
                "end_time": 2.8977272727272725,
                "pitch": 89,
                "velocity": 40,
                "duration": 0.07272727272727275,
                "tempo": 120.0
            },
            {
                "start_time": 2.8977272727272725,
                "end_time": 2.9454545454545453,
                "pitch": 91,
                "velocity": 40,
                "duration": 0.04772727272727284,
                "tempo": 120.0
            },
            {
                "start_time": 2.9454545454545453,
                "end_time": 2.9977272727272726,
                "pitch": 81,
                "velocity": 40,
                "duration": 0.05227272727272725,
                "tempo": 120.0
            },
            {
                "start_time": 2.9977272727272726,
                "end_time": 3.0727272727272728,
                "pitch": 83,
                "velocity": 40,
                "duration": 0.07500000000000018,
                "tempo": 120.0
            },
            {
                "start_time": 3.0727272727272728,
                "end_time": 3.118181818181818,
                "pitch": 84,
                "velocity": 40,
                "duration": 0.045454545454545414,
                "tempo": 120.0
            },
            {
                "start_time": 3.120454545454545,
                "end_time": 3.1886363636363635,
                "pitch": 86,
                "velocity": 40,
                "duration": 0.06818181818181834,
                "tempo": 120.0
            },
            {
                "start_time": 3.1886363636363635,
                "end_time": 3.245454545454545,
                "pitch": 88,
                "velocity": 40,
                "duration": 0.05681818181818166,
                "tempo": 120.0
            },
            {
                "start_time": 3.245454545454545,
                "end_time": 3.293181818181818,
                "pitch": 89,
                "velocity": 40,
                "duration": 0.04772727272727284,
                "tempo": 120.0
            },
            {
                "start_time": 3.293181818181818,
                "end_time": 3.3613636363636363,
                "pitch": 91,
                "velocity": 40,
                "duration": 0.06818181818181834,
                "tempo": 120.0
            },
            {
                "start_time": 3.3636363636363633,
                "end_time": 3.4204545454545454,
                "pitch": 93,
                "velocity": 40,
                "duration": 0.0568181818181821,
                "tempo": 120.0
            },
            {
                "start_time": 3.4204545454545454,
                "end_time": 3.4636363636363634,
                "pitch": 83,
                "velocity": 40,
                "duration": 0.04318181818181799,
                "tempo": 120.0
            },
            {
                "start_time": 3.4636363636363634,
                "end_time": 3.5295454545454543,
                "pitch": 84,
                "velocity": 40,
                "duration": 0.06590909090909092,
                "tempo": 120.0
            },
            {
                "start_time": 3.5295454545454543,
                "end_time": 3.586363636363636,
                "pitch": 86,
                "velocity": 40,
                "duration": 0.05681818181818166,
                "tempo": 120.0
            },
            {
                "start_time": 3.586363636363636,
                "end_time": 3.6295454545454544,
                "pitch": 88,
                "velocity": 40,
                "duration": 0.04318181818181843,
                "tempo": 120.0
            },
            {
                "start_time": 3.6295454545454544,
                "end_time": 3.6954545454545453,
                "pitch": 89,
                "velocity": 40,
                "duration": 0.06590909090909092,
                "tempo": 120.0
            },
            {
                "start_time": 3.6977272727272728,
                "end_time": 3.752272727272727,
                "pitch": 91,
                "velocity": 40,
                "duration": 0.05454545454545423,
                "tempo": 120.0
            },
            {
                "start_time": 3.7545454545454544,
                "end_time": 3.7954545454545454,
                "pitch": 93,
                "velocity": 40,
                "duration": 0.040909090909091006,
                "tempo": 120.0
            },
            {
                "start_time": 3.7954545454545454,
                "end_time": 3.8636363636363633,
                "pitch": 95,
                "velocity": 40,
                "duration": 0.0681818181818179,
                "tempo": 120.0
            },
            {
                "start_time": 3.8636363636363633,
                "end_time": 3.918181818181818,
                "pitch": 84,
                "velocity": 40,
                "duration": 0.054545454545454675,
                "tempo": 120.0
            },
            {
                "start_time": 3.918181818181818,
                "end_time": 3.9795454545454545,
                "pitch": 86,
                "velocity": 40,
                "duration": 0.06136363636363651,
                "tempo": 120.0
            },
            {
                "start_time": 3.9795454545454545,
                "end_time": 4.029545454545454,
                "pitch": 88,
                "velocity": 40,
                "duration": 0.04999999999999982,
                "tempo": 120.0
            },
            {
                "start_time": 4.029545454545454,
                "end_time": 4.086363636363636,
                "pitch": 89,
                "velocity": 40,
                "duration": 0.05681818181818166,
                "tempo": 120.0
            },
            {
                "start_time": 4.088636363636364,
                "end_time": 4.1454545454545455,
                "pitch": 91,
                "velocity": 40,
                "duration": 0.05681818181818166,
                "tempo": 120.0
            },
            {
                "start_time": 4.1454545454545455,
                "end_time": 4.195454545454545,
                "pitch": 93,
                "velocity": 40,
                "duration": 0.04999999999999982,
                "tempo": 120.0
            },
            {
                "start_time": 4.197727272727272,
                "end_time": 4.245454545454545,
                "pitch": 95,
                "velocity": 40,
                "duration": 0.04772727272727284,
                "tempo": 120.0
            },
            {
                "start_time": 4.247727272727272,
                "end_time": 4.3136363636363635,
                "pitch": 100,
                "velocity": 40,
                "duration": 0.06590909090909136,
                "tempo": 120.0
            },
            {
                "start_time": 4.3136363636363635,
                "end_time": 4.363636363636363,
                "pitch": 101,
                "velocity": 40,
                "duration": 0.04999999999999982,
                "tempo": 120.0
            },
            {
                "start_time": 4.363636363636363,
                "end_time": 4.413636363636363,
                "pitch": 100,
                "velocity": 40,
                "duration": 0.04999999999999982,
                "tempo": 120.0
            },
            {
                "start_time": 4.413636363636363,
                "end_time": 4.4818181818181815,
                "pitch": 101,
                "velocity": 40,
                "duration": 0.06818181818181834,
                "tempo": 120.0
            },
            {
                "start_time": 4.4818181818181815,
                "end_time": 4.531818181818181,
                "pitch": 100,
                "velocity": 40,
                "duration": 0.04999999999999982,
                "tempo": 120.0
            },
            {
                "start_time": 4.531818181818181,
                "end_time": 4.6,
                "pitch": 101,
                "velocity": 40,
                "duration": 0.06818181818181834,
                "tempo": 120.0
            },
            {
                "start_time": 4.6,
                "end_time": 4.652272727272727,
                "pitch": 100,
                "velocity": 32,
                "duration": 0.05227272727272769,
                "tempo": 120.0
            },
            {
                "start_time": 4.652272727272727,
                "end_time": 4.7,
                "pitch": 101,
                "velocity": 32,
                "duration": 0.04772727272727284,
                "tempo": 120.0
            },
            {
                "start_time": 4.7,
                "end_time": 4.765909090909091,
                "pitch": 100,
                "velocity": 32,
                "duration": 0.06590909090909047,
                "tempo": 120.0
            },
            {
                "start_time": 4.768181818181818,
                "end_time": 4.818181818181818,
                "pitch": 101,
                "velocity": 32,
                "duration": 0.05000000000000071,
                "tempo": 120.0
            },
            {
                "start_time": 4.818181818181818,
                "end_time": 4.868181818181818,
                "pitch": 100,
                "velocity": 32,
                "duration": 0.04999999999999982,
                "tempo": 120.0
            },
            {
                "start_time": 4.870454545454545,
                "end_time": 4.9363636363636365,
                "pitch": 101,
                "velocity": 32,
                "duration": 0.06590909090909136,
                "tempo": 120.0
            },
            {
                "start_time": 4.9363636363636365,
                "end_time": 4.986363636363636,
                "pitch": 100,
                "velocity": 25,
                "duration": 0.04999999999999982,
                "tempo": 120.0
            },
            {
                "start_time": 4.988636363636363,
                "end_time": 5.038636363636363,
                "pitch": 101,
                "velocity": 25,
                "duration": 0.04999999999999982,
                "tempo": 120.0
            },
            {
                "start_time": 5.038636363636363,
                "end_time": 5.1090909090909085,
                "pitch": 100,
                "velocity": 25,
                "duration": 0.07045454545454533,
                "tempo": 120.0
            },
            {
                "start_time": 5.111363636363636,
                "end_time": 5.156818181818181,
                "pitch": 101,
                "velocity": 25,
                "duration": 0.04545454545454497,
                "tempo": 120.0
            },
            {
                "start_time": 5.159090909090909,
                "end_time": 5.211363636363636,
                "pitch": 100,
                "velocity": 25,
                "duration": 0.052272727272726804,
                "tempo": 120.0
            },
            {
                "start_time": 5.211363636363636,
                "end_time": 5.279545454545454,
                "pitch": 101,
                "velocity": 25,
                "duration": 0.06818181818181834,
                "tempo": 120.0
            },
            {
                "start_time": 5.279545454545454,
                "end_time": 5.327272727272727,
                "pitch": 100,
                "velocity": 20,
                "duration": 0.04772727272727284,
                "tempo": 120.0
            },
            {
                "start_time": 5.327272727272727,
                "end_time": 5.3954545454545455,
                "pitch": 101,
                "velocity": 20,
                "duration": 0.06818181818181834,
                "tempo": 120.0
            },
            {
                "start_time": 5.3954545454545455,
                "end_time": 5.45,
                "pitch": 100,
                "velocity": 20,
                "duration": 0.054545454545454675,
                "tempo": 120.0
            },
            {
                "start_time": 5.45,
                "end_time": 5.495454545454545,
                "pitch": 101,
                "velocity": 20,
                "duration": 0.04545454545454497,
                "tempo": 120.0
            },
            {
                "start_time": 5.495454545454545,
                "end_time": 5.5613636363636365,
                "pitch": 100,
                "velocity": 20,
                "duration": 0.06590909090909136,
                "tempo": 120.0
            },
            {
                "start_time": 5.5613636363636365,
                "end_time": 5.613636363636363,
                "pitch": 101,
                "velocity": 20,
                "duration": 0.052272727272726804,
                "tempo": 120.0
            },
            {
                "start_time": 5.61590909090909,
                "end_time": 5.661363636363636,
                "pitch": 100,
                "velocity": 16,
                "duration": 0.04545454545454586,
                "tempo": 120.0
            },
            {
                "start_time": 5.661363636363636,
                "end_time": 5.727272727272727,
                "pitch": 101,
                "velocity": 16,
                "duration": 0.06590909090909047,
                "tempo": 120.0
            },
            {
                "start_time": 5.727272727272727,
                "end_time": 5.779545454545454,
                "pitch": 100,
                "velocity": 16,
                "duration": 0.05227272727272769,
                "tempo": 120.0
            },
            {
                "start_time": 5.779545454545454,
                "end_time": 5.824999999999999,
                "pitch": 101,
                "velocity": 16,
                "duration": 0.04545454545454497,
                "tempo": 120.0
            },
            {
                "start_time": 5.824999999999999,
                "end_time": 5.890909090909091,
                "pitch": 100,
                "velocity": 16,
                "duration": 0.06590909090909136,
                "tempo": 120.0
            },
            {
                "start_time": 5.893181818181818,
                "end_time": 5.9409090909090905,
                "pitch": 101,
                "velocity": 16,
                "duration": 0.04772727272727284,
                "tempo": 120.0
            }
        ],
        "Trumpet": [
            {
                "start_time": 0.01818181818181818,
                "end_time": 1.0295454545454545,
                "pitch": 41,
                "velocity": 80,
                "duration": 1.0113636363636365,
                "tempo": 120.0
            },
            {
                "start_time": 1.0318181818181817,
                "end_time": 1.3727272727272726,
                "pitch": 41,
                "velocity": 80,
                "duration": 0.34090909090909083,
                "tempo": 120.0
            },
            {
                "start_time": 1.3727272727272726,
                "end_time": 2.043181818181818,
                "pitch": 36,
                "velocity": 80,
                "duration": 0.6704545454545454,
                "tempo": 120.0
            },
            {
                "start_time": 2.0454545454545454,
                "end_time": 2.725,
                "pitch": 40,
                "velocity": 80,
                "duration": 0.6795454545454547,
                "tempo": 120.0
            },
            {
                "start_time": 2.725,
                "end_time": 3.4204545454545454,
                "pitch": 41,
                "velocity": 80,
                "duration": 0.6954545454545453,
                "tempo": 120.0
            },
            {
                "start_time": 3.4204545454545454,
                "end_time": 3.584090909090909,
                "pitch": 41,
                "velocity": 80,
                "duration": 0.16363636363636358,
                "tempo": 120.0
            },
            {
                "start_time": 3.586363636363636,
                "end_time": 3.752272727272727,
                "pitch": 41,
                "velocity": 32,
                "duration": 0.165909090909091,
                "tempo": 120.0
            },
            {
                "start_time": 3.752272727272727,
                "end_time": 3.9159090909090906,
                "pitch": 36,
                "velocity": 80,
                "duration": 0.16363636363636358,
                "tempo": 120.0
            },
            {
                "start_time": 3.918181818181818,
                "end_time": 4.086363636363636,
                "pitch": 36,
                "velocity": 32,
                "duration": 0.168181818181818,
                "tempo": 120.0
            },
            {
                "start_time": 4.086363636363636,
                "end_time": 5.779545454545454,
                "pitch": 41,
                "velocity": 80,
                "duration": 1.6931818181818183,
                "tempo": 120.0
            }
        ]
    }
}