{
    "track_id": "After Burner (FM) - 01 - Maximum Power",
    "mood": "happy",
    "instruments": {
        "Acoustic Bass": [
            {
                "start_time": 1.977272727272727,
                "end_time": 2.327272727272727,
                "pitch": 28,
                "velocity": 64,
                "duration": 0.3500000000000001,
                "tempo": 120.0
            },
            {
                "start_time": 2.377272727272727,
                "end_time": 2.7318181818181815,
                "pitch": 35,
                "velocity": 64,
                "duration": 0.3545454545454545,
                "tempo": 120.0
            },
            {
                "start_time": 2.784090909090909,
                "end_time": 3.0045454545454544,
                "pitch": 40,
                "velocity": 64,
                "duration": 0.22045454545454524,
                "tempo": 120.0
            },
            {
                "start_time": 3.0545454545454542,
                "end_time": 3.4045454545454543,
                "pitch": 28,
                "velocity": 64,
                "duration": 0.3500000000000001,
                "tempo": 120.0
            },
            {
                "start_time": 3.4568181818181816,
                "end_time": 3.8068181818181817,
                "pitch": 35,
                "velocity": 64,
                "duration": 0.3500000000000001,
                "tempo": 120.0
            },
            {
                "start_time": 3.8568181818181815,
                "end_time": 4.072727272727272,
                "pitch": 40,
                "velocity": 64,
                "duration": 0.21590909090909083,
                "tempo": 120.0
            },
            {
                "start_time": 4.122727272727272,
                "end_time": 4.475,
                "pitch": 28,
                "velocity": 64,
                "duration": 0.3522727272727275,
                "tempo": 120.0
            },
            {
                "start_time": 4.5249999999999995,
                "end_time": 4.879545454545454,
                "pitch": 36,
                "velocity": 64,
                "duration": 0.3545454545454545,
                "tempo": 120.0
            },
            {
                "start_time": 4.929545454545455,
                "end_time": 5.152272727272727,
                "pitch": 40,
                "velocity": 64,
                "duration": 0.22272727272727266,
                "tempo": 120.0
            },
            {
                "start_time": 5.202272727272727,
                "end_time": 5.552272727272727,
                "pitch": 28,
                "velocity": 64,
                "duration": 0.34999999999999964,
                "tempo": 120.0
            },
            {
                "start_time": 5.602272727272727,
                "end_time": 5.956818181818181,
                "pitch": 36,
                "velocity": 64,
                "duration": 0.3545454545454545,
                "tempo": 120.0
            },
            {
                "start_time": 6.009090909090909,
                "end_time": 6.2295454545454545,
                "pitch": 40,
                "velocity": 64,
                "duration": 0.22045454545454568,
                "tempo": 120.0
            },
            {
                "start_time": 6.279545454545454,
                "end_time": 6.631818181818182,
                "pitch": 28,
                "velocity": 64,
                "duration": 0.3522727272727275,
                "tempo": 120.0
            },
            {
                "start_time": 6.681818181818182,
                "end_time": 7.036363636363636,
                "pitch": 37,
                "velocity": 64,
                "duration": 0.3545454545454545,
                "tempo": 120.0
            },
            {
                "start_time": 7.086363636363636,
                "end_time": 7.306818181818182,
                "pitch": 40,
                "velocity": 64,
                "duration": 0.22045454545454568,
                "tempo": 120.0
            },
            {
                "start_time": 7.3590909090909085,
                "end_time": 7.702272727272727,
                "pitch": 28,
                "velocity": 64,
                "duration": 0.3431818181818187,
                "tempo": 120.0
            },
            {
                "start_time": 7.752272727272727,
                "end_time": 8.104545454545454,
                "pitch": 37,
                "velocity": 64,
                "duration": 0.3522727272727266,
                "tempo": 120.0
            },
            {
                "start_time": 8.156818181818181,
                "end_time": 8.377272727272727,
                "pitch": 40,
                "velocity": 64,
                "duration": 0.22045454545454568,
                "tempo": 120.0
            },
            {
                "start_time": 8.427272727272728,
                "end_time": 8.777272727272727,
                "pitch": 28,
                "velocity": 64,
                "duration": 0.34999999999999964,
                "tempo": 120.0
            },
            {
                "start_time": 8.827272727272726,
                "end_time": 9.184090909090909,
                "pitch": 36,
                "velocity": 64,
                "duration": 0.35681818181818237,
                "tempo": 120.0
            },
            {
                "start_time": 9.23409090909091,
                "end_time": 9.454545454545453,
                "pitch": 40,
                "velocity": 64,
                "duration": 0.2204545454545439,
                "tempo": 120.0
            },
            {
                "start_time": 9.506818181818181,
                "end_time": 9.85681818181818,
                "pitch": 28,
                "velocity": 64,
                "duration": 0.34999999999999964,
                "tempo": 120.0
            },
            {
                "start_time": 9.906818181818181,
                "end_time": 10.261363636363637,
                "pitch": 36,
                "velocity": 64,
                "duration": 0.3545454545454554,
                "tempo": 120.0
            },
            {
                "start_time": 10.311363636363636,
                "end_time": 10.534090909090908,
                "pitch": 40,
                "velocity": 64,
                "duration": 0.22272727272727266,
                "tempo": 120.0
            },
            {
                "start_time": 10.584090909090909,
                "end_time": 10.927272727272726,
                "pitch": 28,
                "velocity": 64,
                "duration": 0.3431818181818169,
                "tempo": 120.0
            },
            {
                "start_time": 10.977272727272727,
                "end_time": 11.329545454545453,
                "pitch": 35,
                "velocity": 64,
                "duration": 0.3522727272727266,
                "tempo": 120.0
            },
            {
                "start_time": 11.381818181818181,
                "end_time": 11.602272727272727,
                "pitch": 40,
                "velocity": 64,
                "duration": 0.22045454545454568,
                "tempo": 120.0
            },
            {
                "start_time": 11.652272727272727,
                "end_time": 12.004545454545454,
                "pitch": 28,
                "velocity": 64,
                "duration": 0.3522727272727266,
                "tempo": 120.0
            },
            {
                "start_time": 12.054545454545455,
                "end_time": 12.409090909090908,
                "pitch": 35,
                "velocity": 64,
                "duration": 0.3545454545454536,
                "tempo": 120.0
            },
            {
                "start_time": 12.459090909090909,
                "end_time": 12.679545454545455,
                "pitch": 40,
                "velocity": 64,
                "duration": 0.22045454545454568,
                "tempo": 120.0
            },
            {
                "start_time": 12.73181818181818,
                "end_time": 13.081818181818182,
                "pitch": 28,
                "velocity": 64,
                "duration": 0.3500000000000014,
                "tempo": 120.0
            },
            {
                "start_time": 13.131818181818181,
                "end_time": 13.486363636363636,
                "pitch": 36,
                "velocity": 64,
                "duration": 0.3545454545454554,
                "tempo": 120.0
            },
            {
                "start_time": 13.538636363636362,
                "end_time": 13.759090909090908,
                "pitch": 40,
                "velocity": 64,
                "duration": 0.22045454545454568,
                "tempo": 120.0
            },
            {
                "start_time": 13.809090909090909,
                "end_time": 14.154545454545454,
                "pitch": 28,
                "velocity": 64,
                "duration": 0.3454545454545457,
                "tempo": 120.0
            },
            {
                "start_time": 14.202272727272726,
                "end_time": 14.554545454545455,
                "pitch": 36,
                "velocity": 64,
                "duration": 0.3522727272727284,
                "tempo": 120.0
            },
            {
                "start_time": 14.60681818181818,
                "end_time": 14.827272727272726,
                "pitch": 40,
                "velocity": 64,
                "duration": 0.22045454545454568,
                "tempo": 120.0
            },
            {
                "start_time": 14.877272727272727,
                "end_time": 15.229545454545454,
                "pitch": 28,
                "velocity": 64,
                "duration": 0.3522727272727266,
                "tempo": 120.0
            },
            {
                "start_time": 15.279545454545454,
                "end_time": 15.634090909090908,
                "pitch": 37,
                "velocity": 64,
                "duration": 0.3545454545454536,
                "tempo": 120.0
            },
            {
                "start_time": 15.684090909090909,
                "end_time": 15.906818181818181,
                "pitch": 40,
                "velocity": 64,
                "duration": 0.22272727272727266,
                "tempo": 120.0
            },
            {
                "start_time": 15.95681818181818,
                "end_time": 16.30681818181818,
                "pitch": 28,
                "velocity": 64,
                "duration": 0.34999999999999964,
                "tempo": 120.0
            },
            {
                "start_time": 16.35681818181818,
                "end_time": 16.709090909090907,
                "pitch": 37,
                "velocity": 64,
                "duration": 0.3522727272727266,
                "tempo": 120.0
            },
            {
                "start_time": 16.759090909090908,
                "end_time": 16.974999999999998,
                "pitch": 40,
                "velocity": 64,
                "duration": 0.21590909090908994,
                "tempo": 120.0
            },
            {
                "start_time": 17.025,
                "end_time": 17.375,
                "pitch": 28,
                "velocity": 64,
                "duration": 0.3500000000000014,
                "tempo": 120.0
            },
            {
                "start_time": 17.427272727272726,
                "end_time": 17.78181818181818,
                "pitch": 36,
                "velocity": 64,
                "duration": 0.3545454545454554,
                "tempo": 120.0
            },
            {
                "start_time": 17.831818181818182,
                "end_time": 18.052272727272726,
                "pitch": 40,
                "velocity": 64,
                "duration": 0.2204545454545439,
                "tempo": 120.0
            },
            {
                "start_time": 18.104545454545455,
                "end_time": 18.454545454545453,
                "pitch": 28,
                "velocity": 64,
                "duration": 0.34999999999999787,
                "tempo": 120.0
            },
            {
                "start_time": 18.504545454545454,
                "end_time": 18.85909090909091,
                "pitch": 36,
                "velocity": 64,
                "duration": 0.3545454545454554,
                "tempo": 120.0
            },
            {
                "start_time": 18.911363636363635,
                "end_time": 19.13181818181818,
                "pitch": 40,
                "velocity": 64,
                "duration": 0.2204545454545439,
                "tempo": 120.0
            },
            {
                "start_time": 19.18181818181818,
                "end_time": 19.53181818181818,
                "pitch": 28,
                "velocity": 64,
                "duration": 0.3500000000000014,
                "tempo": 120.0
            },
            {
                "start_time": 19.581818181818182,
                "end_time": 19.938636363636363,
                "pitch": 35,
                "velocity": 64,
                "duration": 0.3568181818181806,
                "tempo": 120.0
            },
            {
                "start_time": 19.988636363636363,
                "end_time": 20.209090909090907,
                "pitch": 40,
                "velocity": 64,
                "duration": 0.2204545454545439,
                "tempo": 120.0
            },
            {
                "start_time": 20.259090909090908,
                "end_time": 20.604545454545452,
                "pitch": 28,
                "velocity": 64,
                "duration": 0.3454545454545439,
                "tempo": 120.0
            },
            {
                "start_time": 20.654545454545453,
                "end_time": 21.00681818181818,
                "pitch": 35,
                "velocity": 64,
                "duration": 0.3522727272727266,
                "tempo": 120.0
            },
            {
                "start_time": 21.05681818181818,
                "end_time": 21.277272727272727,
                "pitch": 40,
                "velocity": 64,
                "duration": 0.22045454545454746,
                "tempo": 120.0
            },
            {
                "start_time": 21.329545454545453,
                "end_time": 21.679545454545455,
                "pitch": 28,
                "velocity": 64,
                "duration": 0.3500000000000014,
                "tempo": 120.0
            },
            {
                "start_time": 21.729545454545452,
                "end_time": 22.084090909090907,
                "pitch": 36,
                "velocity": 64,
                "duration": 0.3545454545454554,
                "tempo": 120.0
            },
            {
                "start_time": 22.136363636363637,
                "end_time": 22.35681818181818,
                "pitch": 40,
                "velocity": 64,
                "duration": 0.2204545454545439,
                "tempo": 120.0
            },
            {
                "start_time": 22.40681818181818,
                "end_time": 22.759090909090908,
                "pitch": 28,
                "velocity": 64,
                "duration": 0.3522727272727266,
                "tempo": 120.0
            },
            {
                "start_time": 22.80909090909091,
                "end_time": 23.159090909090907,
                "pitch": 36,
                "velocity": 64,
                "duration": 0.34999999999999787,
                "tempo": 120.0
            },
            {
                "start_time": 23.209090909090907,
                "end_time": 23.424999999999997,
                "pitch": 40,
                "velocity": 64,
                "duration": 0.21590909090908994,
                "tempo": 120.0
            },
            {
                "start_time": 23.477272727272727,
                "end_time": 23.827272727272724,
                "pitch": 28,
                "velocity": 64,
                "duration": 0.34999999999999787,
                "tempo": 120.0
            },
            {
                "start_time": 23.877272727272725,
                "end_time": 24.23181818181818,
                "pitch": 37,
                "velocity": 64,
                "duration": 0.3545454545454554,
                "tempo": 120.0
            },
            {
                "start_time": 24.28181818181818,
                "end_time": 24.504545454545454,
                "pitch": 40,
                "velocity": 64,
                "duration": 0.22272727272727266,
                "tempo": 120.0
            },
            {
                "start_time": 24.554545454545455,
                "end_time": 24.904545454545453,
                "pitch": 28,
                "velocity": 64,
                "duration": 0.34999999999999787,
                "tempo": 120.0
            },
            {
                "start_time": 24.954545454545453,
                "end_time": 25.30909090909091,
                "pitch": 37,
                "velocity": 64,
                "duration": 0.3545454545454554,
                "tempo": 120.0
            },
            {
                "start_time": 25.361363636363635,
                "end_time": 25.581818181818182,
                "pitch": 40,
                "velocity": 64,
                "duration": 0.22045454545454746,
                "tempo": 120.0
            },
            {
                "start_time": 25.63181818181818,
                "end_time": 25.98409090909091,
                "pitch": 28,
                "velocity": 64,
                "duration": 0.3522727272727302,
                "tempo": 120.0
            },
            {
                "start_time": 26.034090909090907,
                "end_time": 26.388636363636362,
                "pitch": 36,
                "velocity": 64,
                "duration": 0.3545454545454554,
                "tempo": 120.0
            },
            {
                "start_time": 26.438636363636363,
                "end_time": 26.661363636363635,
                "pitch": 40,
                "velocity": 64,
                "duration": 0.22272727272727266,
                "tempo": 120.0
            },
            {
                "start_time": 26.711363636363636,
                "end_time": 27.054545454545455,
                "pitch": 28,
                "velocity": 64,
                "duration": 0.3431818181818187,
                "tempo": 120.0
            },
            {
                "start_time": 27.104545454545452,
                "end_time": 27.456818181818182,
                "pitch": 36,
                "velocity": 64,
                "duration": 0.3522727272727302,
                "tempo": 120.0
            },
            {
                "start_time": 27.509090909090908,
                "end_time": 27.729545454545452,
                "pitch": 40,
                "velocity": 64,
                "duration": 0.2204545454545439,
                "tempo": 120.0
            },
            {
                "start_time": 27.779545454545453,
                "end_time": 28.129545454545454,
                "pitch": 28,
                "velocity": 64,
                "duration": 0.3500000000000014,
                "tempo": 120.0
            }
        ],
        "Clarinet": [
            {
                "start_time": 0.18863636363636363,
                "end_time": 0.23863636363636362,
                "pitch": 60,
                "velocity": 40,
                "duration": 0.04999999999999999,
                "tempo": 120.0
            },
            {
                "start_time": 0.23863636363636362,
                "end_time": 0.2636363636363636,
                "pitch": 56,
                "velocity": 40,
                "duration": 0.024999999999999994,
                "tempo": 120.0
            },
            {
                "start_time": 0.2636363636363636,
                "end_time": 0.28863636363636364,
                "pitch": 54,
                "velocity": 40,
                "duration": 0.025000000000000022,
                "tempo": 120.0
            },
            {
                "start_time": 0.3909090909090909,
                "end_time": 0.4568181818181818,
                "pitch": 60,
                "velocity": 40,
                "duration": 0.06590909090909092,
                "tempo": 120.0
            },
            {
                "start_time": 0.4568181818181818,
                "end_time": 0.4886363636363636,
                "pitch": 56,
                "velocity": 40,
                "duration": 0.0318181818181818,
                "tempo": 120.0
            },
            {
                "start_time": 0.4886363636363636,
                "end_time": 0.5204545454545454,
                "pitch": 54,
                "velocity": 40,
                "duration": 0.0318181818181818,
                "tempo": 120.0
            },
            {
                "start_time": 0.65,
                "end_time": 0.7136363636363636,
                "pitch": 60,
                "velocity": 40,
                "duration": 0.0636363636363636,
                "tempo": 120.0
            },
            {
                "start_time": 0.7136363636363636,
                "end_time": 0.7454545454545454,
                "pitch": 56,
                "velocity": 40,
                "duration": 0.031818181818181746,
                "tempo": 120.0
            },
            {
                "start_time": 0.7454545454545454,
                "end_time": 0.7795454545454545,
                "pitch": 54,
                "velocity": 40,
                "duration": 0.03409090909090917,
                "tempo": 120.0
            },
            {
                "start_time": 0.9068181818181817,
                "end_time": 0.975,
                "pitch": 60,
                "velocity": 40,
                "duration": 0.06818181818181823,
                "tempo": 120.0
            },
            {
                "start_time": 0.975,
                "end_time": 1.009090909090909,
                "pitch": 56,
                "velocity": 40,
                "duration": 0.03409090909090906,
                "tempo": 120.0
            },
            {
                "start_time": 1.009090909090909,
                "end_time": 1.0409090909090908,
                "pitch": 54,
                "velocity": 40,
                "duration": 0.031818181818181746,
                "tempo": 120.0
            }
        ],
        "Church Organ": [
            {
                "start_time": 1.909090909090909,
                "end_time": 2.127272727272727,
                "pitch": 52,
                "velocity": 20,
                "duration": 0.21818181818181803,
                "tempo": 120.0
            },
            {
                "start_time": 2.1772727272727272,
                "end_time": 2.2613636363636362,
                "pitch": 52,
                "velocity": 20,
                "duration": 0.084090909090909,
                "tempo": 120.0
            },
            {
                "start_time": 2.311363636363636,
                "end_time": 2.3613636363636363,
                "pitch": 52,
                "velocity": 20,
                "duration": 0.050000000000000266,
                "tempo": 120.0
            },
            {
                "start_time": 2.3613636363636363,
                "end_time": 2.393181818181818,
                "pitch": 52,
                "velocity": 20,
                "duration": 0.031818181818181746,
                "tempo": 120.0
            },
            {
                "start_time": 2.443181818181818,
                "end_time": 2.5272727272727273,
                "pitch": 52,
                "velocity": 20,
                "duration": 0.08409090909090944,
                "tempo": 120.0
            },
            {
                "start_time": 2.5795454545454546,
                "end_time": 3.0727272727272728,
                "pitch": 59,
                "velocity": 20,
                "duration": 0.49318181818181817,
                "tempo": 120.0
            },
            {
                "start_time": 3.1227272727272726,
                "end_time": 3.2045454545454546,
                "pitch": 52,
                "velocity": 20,
                "duration": 0.08181818181818201,
                "tempo": 120.0
            },
            {
                "start_time": 3.2545454545454544,
                "end_time": 3.3386363636363634,
                "pitch": 52,
                "velocity": 20,
                "duration": 0.084090909090909,
                "tempo": 120.0
            },
            {
                "start_time": 3.3886363636363637,
                "end_time": 3.4727272727272727,
                "pitch": 52,
                "velocity": 20,
                "duration": 0.084090909090909,
                "tempo": 120.0
            },
            {
                "start_time": 3.5227272727272725,
                "end_time": 3.6068181818181815,
                "pitch": 59,
                "velocity": 20,
                "duration": 0.084090909090909,
                "tempo": 120.0
            },
            {
                "start_time": 3.6568181818181817,
                "end_time": 3.7386363636363633,
                "pitch": 52,
                "velocity": 20,
                "duration": 0.08181818181818157,
                "tempo": 120.0
            },
            {
                "start_time": 3.7886363636363636,
                "end_time": 4.006818181818182,
                "pitch": 59,
                "velocity": 20,
                "duration": 0.21818181818181825,
                "tempo": 120.0
            },
            {
                "start_time": 4.056818181818182,
                "end_time": 4.2749999999999995,
                "pitch": 52,
                "velocity": 20,
                "duration": 0.2181818181818178,
                "tempo": 120.0
            },
            {
                "start_time": 4.325,
                "end_time": 4.406818181818181,
                "pitch": 52,
                "velocity": 20,
                "duration": 0.08181818181818112,
                "tempo": 120.0
            },
            {
                "start_time": 4.456818181818182,
                "end_time": 4.540909090909091,
                "pitch": 52,
                "velocity": 20,
                "duration": 0.084090909090909,
                "tempo": 120.0
            },
            {
                "start_time": 4.590909090909091,
                "end_time": 4.675,
                "pitch": 52,
                "velocity": 20,
                "duration": 0.084090909090909,
                "tempo": 120.0
            },
            {
                "start_time": 4.727272727272727,
                "end_time": 5.218181818181818,
                "pitch": 60,
                "velocity": 20,
                "duration": 0.4909090909090912,
                "tempo": 120.0
            },
            {
                "start_time": 5.268181818181818,
                "end_time": 5.352272727272727,
                "pitch": 52,
                "velocity": 20,
                "duration": 0.084090909090909,
                "tempo": 120.0
            },
            {
                "start_time": 5.402272727272727,
                "end_time": 5.486363636363636,
                "pitch": 52,
                "velocity": 20,
                "duration": 0.084090909090909,
                "tempo": 120.0
            },
            {
                "start_time": 5.536363636363636,
                "end_time": 5.620454545454545,
                "pitch": 52,
                "velocity": 20,
                "duration": 0.084090909090909,
                "tempo": 120.0
            },
            {
                "start_time": 5.670454545454545,
                "end_time": 5.754545454545454,
                "pitch": 60,
                "velocity": 20,
                "duration": 0.084090909090909,
                "tempo": 120.0
            },
            {
                "start_time": 5.804545454545455,
                "end_time": 5.888636363636364,
                "pitch": 52,
                "velocity": 20,
                "duration": 0.084090909090909,
                "tempo": 120.0
            },
            {
                "start_time": 5.9409090909090905,
                "end_time": 6.161363636363636,
                "pitch": 60,
                "velocity": 20,
                "duration": 0.22045454545454568,
                "tempo": 120.0
            },
            {
                "start_time": 6.213636363636363,
                "end_time": 6.429545454545455,
                "pitch": 52,
                "velocity": 20,
                "duration": 0.21590909090909172,
                "tempo": 120.0
            },
            {
                "start_time": 6.4818181818181815,
                "end_time": 6.5636363636363635,
                "pitch": 52,
                "velocity": 20,
                "duration": 0.08181818181818201,
                "tempo": 120.0
            },
            {
                "start_time": 6.613636363636363,
                "end_time": 6.697727272727272,
                "pitch": 52,
                "velocity": 20,
                "duration": 0.084090909090909,
                "tempo": 120.0
            },
            {
                "start_time": 6.747727272727272,
                "end_time": 6.831818181818181,
                "pitch": 52,
                "velocity": 20,
                "duration": 0.084090909090909,
                "tempo": 120.0
            },
            {
                "start_time": 6.881818181818182,
                "end_time": 7.375,
                "pitch": 61,
                "velocity": 20,
                "duration": 0.49318181818181817,
                "tempo": 120.0
            },
            {
                "start_time": 7.422727272727272,
                "end_time": 7.506818181818182,
                "pitch": 52,
                "velocity": 20,
                "duration": 0.08409090909090988,
                "tempo": 120.0
            },
            {
                "start_time": 7.554545454545454,
                "end_time": 7.636363636363636,
                "pitch": 52,
                "velocity": 20,
                "duration": 0.08181818181818201,
                "tempo": 120.0
            },
            {
                "start_time": 7.686363636363636,
                "end_time": 7.768181818181818,
                "pitch": 52,
                "velocity": 20,
                "duration": 0.08181818181818201,
                "tempo": 120.0
            },
            {
                "start_time": 7.8181818181818175,
                "end_time": 7.8999999999999995,
                "pitch": 61,
                "velocity": 20,
                "duration": 0.08181818181818201,
                "tempo": 120.0
            },
            {
                "start_time": 7.952272727272727,
                "end_time": 8.036363636363635,
                "pitch": 52,
                "velocity": 20,
                "duration": 0.0840909090909081,
                "tempo": 120.0
            },
            {
                "start_time": 8.088636363636363,
                "end_time": 8.309090909090909,
                "pitch": 61,
                "velocity": 20,
                "duration": 0.22045454545454568,
                "tempo": 120.0
            },
            {
                "start_time": 8.35909090909091,
                "end_time": 8.577272727272726,
                "pitch": 52,
                "velocity": 20,
                "duration": 0.21818181818181692,
                "tempo": 120.0
            },
            {
                "start_time": 8.627272727272727,
                "end_time": 8.711363636363636,
                "pitch": 52,
                "velocity": 20,
                "duration": 0.084090909090909,
                "tempo": 120.0
            },
            {
                "start_time": 8.761363636363637,
                "end_time": 8.845454545454546,
                "pitch": 52,
                "velocity": 20,
                "duration": 0.084090909090909,
                "tempo": 120.0
            },
            {
                "start_time": 8.895454545454545,
                "end_time": 8.979545454545454,
                "pitch": 52,
                "velocity": 20,
                "duration": 0.084090909090909,
                "tempo": 120.0
            },
            {
                "start_time": 9.029545454545454,
                "end_time": 9.522727272727272,
                "pitch": 60,
                "velocity": 20,
                "duration": 0.4931818181818173,
                "tempo": 120.0
            },
            {
                "start_time": 9.572727272727272,
                "end_time": 9.656818181818181,
                "pitch": 52,
                "velocity": 20,
                "duration": 0.084090909090909,
                "tempo": 120.0
            },
            {
                "start_time": 9.706818181818182,
                "end_time": 9.788636363636364,
                "pitch": 52,
                "velocity": 20,
                "duration": 0.08181818181818201,
                "tempo": 120.0
            },
            {
                "start_time": 9.838636363636363,
                "end_time": 9.922727272727272,
                "pitch": 52,
                "velocity": 20,
                "duration": 0.084090909090909,
                "tempo": 120.0
            },
            {
                "start_time": 9.972727272727273,
                "end_time": 10.056818181818182,
                "pitch": 60,
                "velocity": 20,
                "duration": 0.084090909090909,
                "tempo": 120.0
            },
            {
                "start_time": 10.10909090909091,
                "end_time": 10.193181818181818,
                "pitch": 52,
                "velocity": 20,
                "duration": 0.084090909090909,
                "tempo": 120.0
            },
            {
                "start_time": 10.243181818181817,
                "end_time": 10.46590909090909,
                "pitch": 60,
                "velocity": 20,
                "duration": 0.22272727272727266,
                "tempo": 120.0
            },
            {
                "start_time": 10.51590909090909,
                "end_time": 10.73181818181818,
                "pitch": 52,
                "velocity": 20,
                "duration": 0.21590909090908994,
                "tempo": 120.0
            },
            {
                "start_time": 10.779545454545454,
                "end_time": 10.863636363636363,
                "pitch": 52,
                "velocity": 20,
                "duration": 0.084090909090909,
                "tempo": 120.0
            },
            {
                "start_time": 10.911363636363635,
                "end_time": 10.993181818181817,
                "pitch": 52,
                "velocity": 20,
                "duration": 0.08181818181818201,
                "tempo": 120.0
            },
            {
                "start_time": 11.043181818181818,
                "end_time": 11.127272727272727,
                "pitch": 52,
                "velocity": 20,
                "duration": 0.084090909090909,
                "tempo": 120.0
            },
            {
                "start_time": 11.177272727272726,
                "end_time": 11.670454545454545,
                "pitch": 59,
                "velocity": 20,
                "duration": 0.49318181818181905,
                "tempo": 120.0
            },
            {
                "start_time": 11.720454545454546,
                "end_time": 11.802272727272726,
                "pitch": 52,
                "velocity": 20,
                "duration": 0.08181818181818024,
                "tempo": 120.0
            },
            {
                "start_time": 11.852272727272727,
                "end_time": 11.936363636363636,
                "pitch": 52,
                "velocity": 20,
                "duration": 0.084090909090909,
                "tempo": 120.0
            },
            {
                "start_time": 11.986363636363636,
                "end_time": 12.070454545454545,
                "pitch": 52,
                "velocity": 20,
                "duration": 0.084090909090909,
                "tempo": 120.0
            },
            {
                "start_time": 12.120454545454544,
                "end_time": 12.204545454545453,
                "pitch": 59,
                "velocity": 20,
                "duration": 0.084090909090909,
                "tempo": 120.0
            },
            {
                "start_time": 12.254545454545454,
                "end_time": 12.34090909090909,
                "pitch": 52,
                "velocity": 20,
                "duration": 0.08636363636363598,
                "tempo": 120.0
            },
            {
                "start_time": 12.39090909090909,
                "end_time": 12.611363636363636,
                "pitch": 59,
                "velocity": 20,
                "duration": 0.22045454545454568,
                "tempo": 120.0
            },
            {
                "start_time": 12.663636363636362,
                "end_time": 12.881818181818181,
                "pitch": 52,
                "velocity": 20,
                "duration": 0.2181818181818187,
                "tempo": 120.0
            },
            {
                "start_time": 12.931818181818182,
                "end_time": 13.01590909090909,
                "pitch": 52,
                "velocity": 20,
                "duration": 0.084090909090909,
                "tempo": 120.0
            },
            {
                "start_time": 13.06590909090909,
                "end_time": 13.147727272727272,
                "pitch": 52,
                "velocity": 20,
                "duration": 0.08181818181818201,
                "tempo": 120.0
            },
            {
                "start_time": 13.197727272727272,
                "end_time": 13.281818181818181,
                "pitch": 52,
                "velocity": 20,
                "duration": 0.084090909090909,
                "tempo": 120.0
            },
            {
                "start_time": 13.334090909090909,
                "end_time": 13.825,
                "pitch": 60,
                "velocity": 20,
                "duration": 0.4909090909090903,
                "tempo": 120.0
            },
            {
                "start_time": 13.875,
                "end_time": 13.956818181818182,
                "pitch": 52,
                "velocity": 20,
                "duration": 0.08181818181818201,
                "tempo": 120.0
            },
            {
                "start_time": 14.006818181818181,
                "end_time": 14.088636363636363,
                "pitch": 52,
                "velocity": 20,
                "duration": 0.08181818181818201,
                "tempo": 120.0
            },
            {
                "start_time": 14.136363636363635,
                "end_time": 14.218181818181817,
                "pitch": 52,
                "velocity": 20,
                "duration": 0.08181818181818201,
                "tempo": 120.0
            },
            {
                "start_time": 14.268181818181818,
                "end_time": 14.352272727272727,
                "pitch": 60,
                "velocity": 20,
                "duration": 0.084090909090909,
                "tempo": 120.0
            },
            {
                "start_time": 14.402272727272727,
                "end_time": 14.488636363636363,
                "pitch": 52,
                "velocity": 20,
                "duration": 0.08636363636363598,
                "tempo": 120.0
            },
            {
                "start_time": 14.538636363636362,
                "end_time": 14.759090909090908,
                "pitch": 60,
                "velocity": 20,
                "duration": 0.22045454545454568,
                "tempo": 120.0
            },
            {
                "start_time": 14.811363636363636,
                "end_time": 15.029545454545454,
                "pitch": 52,
                "velocity": 20,
                "duration": 0.2181818181818187,
                "tempo": 120.0
            },
            {
                "start_time": 15.079545454545453,
                "end_time": 15.161363636363635,
                "pitch": 52,
                "velocity": 20,
                "duration": 0.08181818181818201,
                "tempo": 120.0
            },
            {
                "start_time": 15.211363636363636,
                "end_time": 15.295454545454545,
                "pitch": 52,
                "velocity": 20,
                "duration": 0.084090909090909,
                "tempo": 120.0
            },
            {
                "start_time": 15.345454545454544,
                "end_time": 15.429545454545455,
                "pitch": 52,
                "velocity": 20,
                "duration": 0.08409090909091077,
                "tempo": 120.0
            },
            {
                "start_time": 15.48181818181818,
                "end_time": 15.972727272727273,
                "pitch": 61,
                "velocity": 20,
                "duration": 0.49090909090909207,
                "tempo": 120.0
            },
            {
                "start_time": 16.022727272727273,
                "end_time": 16.10681818181818,
                "pitch": 52,
                "velocity": 20,
                "duration": 0.08409090909090722,
                "tempo": 120.0
            },
            {
                "start_time": 16.15681818181818,
                "end_time": 16.24090909090909,
                "pitch": 52,
                "velocity": 20,
                "duration": 0.08409090909090722,
                "tempo": 120.0
            },
            {
                "start_time": 16.29090909090909,
                "end_time": 16.375,
                "pitch": 52,
                "velocity": 20,
                "duration": 0.08409090909091077,
                "tempo": 120.0
            },
            {
                "start_time": 16.425,
                "end_time": 16.506818181818183,
                "pitch": 61,
                "velocity": 20,
                "duration": 0.08181818181818201,
                "tempo": 120.0
            },
            {
                "start_time": 16.55681818181818,
                "end_time": 16.64090909090909,
                "pitch": 52,
                "velocity": 20,
                "duration": 0.08409090909091077,
                "tempo": 120.0
            },
            {
                "start_time": 16.69090909090909,
                "end_time": 16.909090909090907,
                "pitch": 61,
                "velocity": 20,
                "duration": 0.21818181818181515,
                "tempo": 120.0
            },
            {
                "start_time": 16.959090909090907,
                "end_time": 17.175,
                "pitch": 52,
                "velocity": 20,
                "duration": 0.2159090909090935,
                "tempo": 120.0
            },
            {
                "start_time": 17.224999999999998,
                "end_time": 17.30909090909091,
                "pitch": 52,
                "velocity": 20,
                "duration": 0.08409090909091077,
                "tempo": 120.0
            },
            {
                "start_time": 17.35909090909091,
                "end_time": 17.443181818181817,
                "pitch": 52,
                "velocity": 20,
                "duration": 0.08409090909090722,
                "tempo": 120.0
            },
            {
                "start_time": 17.493181818181817,
                "end_time": 17.577272727272728,
                "pitch": 52,
                "velocity": 20,
                "duration": 0.08409090909091077,
                "tempo": 120.0
            },
            {
                "start_time": 17.627272727272725,
                "end_time": 18.120454545454546,
                "pitch": 60,
                "velocity": 20,
                "duration": 0.49318181818182083,
                "tempo": 120.0
            },
            {
                "start_time": 18.170454545454543,
                "end_time": 18.254545454545454,
                "pitch": 52,
                "velocity": 20,
                "duration": 0.08409090909091077,
                "tempo": 120.0
            },
            {
                "start_time": 18.304545454545455,
                "end_time": 18.388636363636362,
                "pitch": 52,
                "velocity": 20,
                "duration": 0.08409090909090722,
                "tempo": 120.0
            },
            {
                "start_time": 18.438636363636363,
                "end_time": 18.520454545454545,
                "pitch": 52,
                "velocity": 20,
                "duration": 0.08181818181818201,
                "tempo": 120.0
            },
            {
                "start_time": 18.570454545454545,
                "end_time": 18.654545454545453,
                "pitch": 60,
                "velocity": 20,
                "duration": 0.08409090909090722,
                "tempo": 120.0
            },
            {
                "start_time": 18.706818181818182,
                "end_time": 18.79090909090909,
                "pitch": 52,
                "velocity": 20,
                "duration": 0.08409090909090722,
                "tempo": 120.0
            },
            {
                "start_time": 18.84318181818182,
                "end_time": 19.063636363636363,
                "pitch": 60,
                "velocity": 20,
                "duration": 0.2204545454545439,
                "tempo": 120.0
            },
            {
                "start_time": 19.113636363636363,
                "end_time": 19.331818181818182,
                "pitch": 52,
                "velocity": 20,
                "duration": 0.2181818181818187,
                "tempo": 120.0
            },
            {
                "start_time": 19.38181818181818,
                "end_time": 19.46590909090909,
                "pitch": 52,
                "velocity": 20,
                "duration": 0.08409090909091077,
                "tempo": 120.0
            },
            {
                "start_time": 19.51590909090909,
                "end_time": 19.599999999999998,
                "pitch": 52,
                "velocity": 20,
                "duration": 0.08409090909090722,
                "tempo": 120.0
            },
            {
                "start_time": 19.65,
                "end_time": 19.73409090909091,
                "pitch": 52,
                "velocity": 20,
                "duration": 0.08409090909091077,
                "tempo": 120.0
            },
            {
                "start_time": 19.784090909090907,
                "end_time": 20.277272727272727,
                "pitch": 59,
                "velocity": 20,
                "duration": 0.49318181818182083,
                "tempo": 120.0
            },
            {
                "start_time": 20.325,
                "end_time": 20.40681818181818,
                "pitch": 52,
                "velocity": 20,
                "duration": 0.08181818181818201,
                "tempo": 120.0
            },
            {
                "start_time": 20.456818181818182,
                "end_time": 20.538636363636364,
                "pitch": 52,
                "velocity": 20,
                "duration": 0.08181818181818201,
                "tempo": 120.0
            },
            {
                "start_time": 20.58863636363636,
                "end_time": 20.670454545454543,
                "pitch": 52,
                "velocity": 20,
                "duration": 0.08181818181818201,
                "tempo": 120.0
            },
            {
                "start_time": 20.71818181818182,
                "end_time": 20.802272727272726,
                "pitch": 59,
                "velocity": 20,
                "duration": 0.08409090909090722,
                "tempo": 120.0
            },
            {
                "start_time": 20.852272727272727,
                "end_time": 20.938636363636363,
                "pitch": 52,
                "velocity": 20,
                "duration": 0.08636363636363598,
                "tempo": 120.0
            },
            {
                "start_time": 20.988636363636363,
                "end_time": 21.211363636363636,
                "pitch": 59,
                "velocity": 20,
                "duration": 0.22272727272727266,
                "tempo": 120.0
            },
            {
                "start_time": 21.261363636363637,
                "end_time": 21.479545454545452,
                "pitch": 52,
                "velocity": 20,
                "duration": 0.21818181818181515,
                "tempo": 120.0
            },
            {
                "start_time": 21.529545454545453,
                "end_time": 21.613636363636363,
                "pitch": 52,
                "velocity": 20,
                "duration": 0.08409090909091077,
                "tempo": 120.0
            },
            {
                "start_time": 21.663636363636364,
                "end_time": 21.745454545454546,
                "pitch": 52,
                "velocity": 20,
                "duration": 0.08181818181818201,
                "tempo": 120.0
            },
            {
                "start_time": 21.797727272727272,
                "end_time": 21.879545454545454,
                "pitch": 52,
                "velocity": 20,
                "duration": 0.08181818181818201,
                "tempo": 120.0
            },
            {
                "start_time": 21.93181818181818,
                "end_time": 22.424999999999997,
                "pitch": 60,
                "velocity": 20,
                "duration": 0.4931818181818173,
                "tempo": 120.0
            },
            {
                "start_time": 22.474999999999998,
                "end_time": 22.55681818181818,
                "pitch": 52,
                "velocity": 20,
                "duration": 0.08181818181818201,
                "tempo": 120.0
            },
            {
                "start_time": 22.60681818181818,
                "end_time": 22.69090909090909,
                "pitch": 52,
                "velocity": 20,
                "duration": 0.08409090909091077,
                "tempo": 120.0
            },
            {
                "start_time": 22.74090909090909,
                "end_time": 22.825,
                "pitch": 52,
                "velocity": 20,
                "duration": 0.08409090909091077,
                "tempo": 120.0
            },
            {
                "start_time": 22.875,
                "end_time": 22.959090909090907,
                "pitch": 60,
                "velocity": 20,
                "duration": 0.08409090909090722,
                "tempo": 120.0
            },
            {
                "start_time": 23.009090909090908,
                "end_time": 23.09318181818182,
                "pitch": 52,
                "velocity": 20,
                "duration": 0.08409090909091077,
                "tempo": 120.0
            },
            {
                "start_time": 23.143181818181816,
                "end_time": 23.35909090909091,
                "pitch": 60,
                "velocity": 20,
                "duration": 0.2159090909090935,
                "tempo": 120.0
            },
            {
                "start_time": 23.409090909090907,
                "end_time": 23.627272727272725,
                "pitch": 52,
                "velocity": 20,
                "duration": 0.2181818181818187,
                "tempo": 120.0
            },
            {
                "start_time": 23.677272727272726,
                "end_time": 23.759090909090908,
                "pitch": 52,
                "velocity": 20,
                "duration": 0.08181818181818201,
                "tempo": 120.0
            },
            {
                "start_time": 23.80909090909091,
                "end_time": 23.893181818181816,
                "pitch": 52,
                "velocity": 20,
                "duration": 0.08409090909090722,
                "tempo": 120.0
            },
            {
                "start_time": 23.943181818181817,
                "end_time": 24.027272727272727,
                "pitch": 52,
                "velocity": 20,
                "duration": 0.08409090909091077,
                "tempo": 120.0
            },
            {
                "start_time": 24.079545454545453,
                "end_time": 24.570454545454545,
                "pitch": 61,
                "velocity": 20,
                "duration": 0.49090909090909207,
                "tempo": 120.0
            },
            {
                "start_time": 24.620454545454542,
                "end_time": 24.704545454545453,
                "pitch": 52,
                "velocity": 20,
                "duration": 0.08409090909091077,
                "tempo": 120.0
            },
            {
                "start_time": 24.754545454545454,
                "end_time": 24.83863636363636,
                "pitch": 52,
                "velocity": 20,
                "duration": 0.08409090909090722,
                "tempo": 120.0
            },
            {
                "start_time": 24.888636363636362,
                "end_time": 24.972727272727273,
                "pitch": 52,
                "velocity": 20,
                "duration": 0.08409090909091077,
                "tempo": 120.0
            },
            {
                "start_time": 25.02272727272727,
                "end_time": 25.10681818181818,
                "pitch": 61,
                "velocity": 20,
                "duration": 0.08409090909091077,
                "tempo": 120.0
            },
            {
                "start_time": 25.15681818181818,
                "end_time": 25.243181818181817,
                "pitch": 52,
                "velocity": 20,
                "duration": 0.08636363636363598,
                "tempo": 120.0
            },
            {
                "start_time": 25.293181818181818,
                "end_time": 25.513636363636362,
                "pitch": 61,
                "velocity": 20,
                "duration": 0.2204545454545439,
                "tempo": 120.0
            },
            {
                "start_time": 25.56590909090909,
                "end_time": 25.784090909090907,
                "pitch": 52,
                "velocity": 20,
                "duration": 0.21818181818181515,
                "tempo": 120.0
            },
            {
                "start_time": 25.834090909090907,
                "end_time": 25.91590909090909,
                "pitch": 52,
                "velocity": 20,
                "duration": 0.08181818181818201,
                "tempo": 120.0
            },
            {
                "start_time": 25.96590909090909,
                "end_time": 26.049999999999997,
                "pitch": 52,
                "velocity": 20,
                "duration": 0.08409090909090722,
                "tempo": 120.0
            },
            {
                "start_time": 26.099999999999998,
                "end_time": 26.18409090909091,
                "pitch": 52,
                "velocity": 20,
                "duration": 0.08409090909091077,
                "tempo": 120.0
            },
            {
                "start_time": 26.236363636363635,
                "end_time": 26.727272727272727,
                "pitch": 60,
                "velocity": 20,
                "duration": 0.49090909090909207,
                "tempo": 120.0
            },
            {
                "start_time": 26.777272727272727,
                "end_time": 26.85909090909091,
                "pitch": 52,
                "velocity": 20,
                "duration": 0.08181818181818201,
                "tempo": 120.0
            },
            {
                "start_time": 26.90681818181818,
                "end_time": 26.988636363636363,
                "pitch": 52,
                "velocity": 20,
                "duration": 0.08181818181818201,
                "tempo": 120.0
            },
            {
                "start_time": 27.038636363636364,
                "end_time": 27.120454545454542,
                "pitch": 52,
                "velocity": 20,
                "duration": 0.08181818181817846,
                "tempo": 120.0
            },
            {
                "start_time": 27.170454545454543,
                "end_time": 27.252272727272725,
                "pitch": 60,
                "velocity": 20,
                "duration": 0.08181818181818201,
                "tempo": 120.0
            },
            {
                "start_time": 27.304545454545455,
                "end_time": 27.388636363636362,
                "pitch": 52,
                "velocity": 20,
                "duration": 0.08409090909090722,
                "tempo": 120.0
            },
            {
                "start_time": 27.440909090909088,
                "end_time": 27.661363636363635,
                "pitch": 60,
                "velocity": 20,
                "duration": 0.22045454545454746,
                "tempo": 120.0
            },
            {
                "start_time": 27.711363636363636,
                "end_time": 27.929545454545455,
                "pitch": 52,
                "velocity": 20,
                "duration": 0.2181818181818187,
                "tempo": 120.0
            },
            {
                "start_time": 27.979545454545452,
                "end_time": 28.063636363636363,
                "pitch": 52,
                "velocity": 20,
                "duration": 0.08409090909091077,
                "tempo": 120.0
            },
            {
                "start_time": 28.113636363636363,
                "end_time": 28.163636363636364,
                "pitch": 52,
                "velocity": 20,
                "duration": 0.05000000000000071,
                "tempo": 120.0
            }
        ]
    }
}