{
    "track_id": "After Burner (FM) - 03 - After Burner",
    "mood": "happy",
    "instruments": {
        "Vibraphone": [
            {
                "start_time": 8.73181818181818,
                "end_time": 8.815909090909091,
                "pitch": 71,
                "velocity": 80,
                "duration": 0.08409090909091077,
                "tempo": 120.0
            },
            {
                "start_time": 8.868181818181817,
                "end_time": 8.952272727272726,
                "pitch": 73,
                "velocity": 80,
                "duration": 0.084090909090909,
                "tempo": 120.0
            },
            {
                "start_time": 9.004545454545454,
                "end_time": 9.088636363636363,
                "pitch": 61,
                "velocity": 80,
                "duration": 0.084090909090909,
                "tempo": 120.0
            },
            {
                "start_time": 9.138636363636364,
                "end_time": 9.222727272727273,
                "pitch": 68,
                "velocity": 80,
                "duration": 0.084090909090909,
                "tempo": 120.0
            },
            {
                "start_time": 9.272727272727272,
                "end_time": 9.35681818181818,
                "pitch": 71,
                "velocity": 80,
                "duration": 0.084090909090909,
                "tempo": 120.0
            },
            {
                "start_time": 9.406818181818181,
                "end_time": 9.49090909090909,
                "pitch": 61,
                "velocity": 80,
                "duration": 0.084090909090909,
                "tempo": 120.0
            },
            {
                "start_time": 9.540909090909091,
                "end_time": 9.622727272727273,
                "pitch": 66,
                "velocity": 80,
                "duration": 0.08181818181818201,
                "tempo": 120.0
            },
            {
                "start_time": 9.674999999999999,
                "end_time": 9.759090909090908,
                "pitch": 68,
                "velocity": 80,
                "duration": 0.084090909090909,
                "tempo": 120.0
            },
            {
                "start_time": 9.809090909090909,
                "end_time": 9.895454545454545,
                "pitch": 61,
                "velocity": 80,
                "duration": 0.08636363636363598,
                "tempo": 120.0
            },
            {
                "start_time": 9.945454545454545,
                "end_time": 10.031818181818181,
                "pitch": 64,
                "velocity": 80,
                "duration": 0.08636363636363598,
                "tempo": 120.0
            },
            {
                "start_time": 10.081818181818182,
                "end_time": 10.165909090909091,
                "pitch": 66,
                "velocity": 80,
                "duration": 0.084090909090909,
                "tempo": 120.0
            },
            {
                "start_time": 10.218181818181817,
                "end_time": 10.972727272727273,
                "pitch": 71,
                "velocity": 80,
                "duration": 0.7545454545454557,
                "tempo": 120.0
            },
            {
                "start_time": 11.024999999999999,
                "end_time": 11.10909090909091,
                "pitch": 73,
                "velocity": 80,
                "duration": 0.08409090909091077,
                "tempo": 120.0
            },
            {
                "start_time": 11.161363636363635,
                "end_time": 11.245454545454544,
                "pitch": 61,
                "velocity": 80,
                "duration": 0.084090909090909,
                "tempo": 120.0
            },
            {
                "start_time": 11.295454545454545,
                "end_time": 11.379545454545454,
                "pitch": 68,
                "velocity": 80,
                "duration": 0.084090909090909,
                "tempo": 120.0
            },
            {
                "start_time": 11.429545454545455,
                "end_time": 11.513636363636364,
                "pitch": 71,
                "velocity": 80,
                "duration": 0.084090909090909,
                "tempo": 120.0
            },
            {
                "start_time": 11.563636363636363,
                "end_time": 11.647727272727272,
                "pitch": 61,
                "velocity": 80,
                "duration": 0.084090909090909,
                "tempo": 120.0
            },
            {
                "start_time": 11.697727272727272,
                "end_time": 11.779545454545454,
                "pitch": 66,
                "velocity": 80,
                "duration": 0.08181818181818201,
                "tempo": 120.0
            },
            {
                "start_time": 11.829545454545453,
                "end_time": 11.913636363636362,
                "pitch": 68,
                "velocity": 80,
                "duration": 0.084090909090909,
                "tempo": 120.0
            },
            {
                "start_time": 11.963636363636363,
                "end_time": 12.047727272727272,
                "pitch": 61,
                "velocity": 80,
                "duration": 0.084090909090909,
                "tempo": 120.0
            },
            {
                "start_time": 12.097727272727273,
                "end_time": 12.181818181818182,
                "pitch": 64,
                "velocity": 80,
                "duration": 0.084090909090909,
                "tempo": 120.0
            },
            {
                "start_time": 12.23181818181818,
                "end_time": 12.313636363636363,
                "pitch": 66,
                "velocity": 80,
                "duration": 0.08181818181818201,
                "tempo": 120.0
            },
            {
                "start_time": 12.36590909090909,
                "end_time": 13.120454545454544,
                "pitch": 73,
                "velocity": 80,
                "duration": 0.754545454545454,
                "tempo": 120.0
            },
            {
                "start_time": 13.170454545454545,
                "end_time": 13.256818181818181,
                "pitch": 71,
                "velocity": 80,
                "duration": 0.08636363636363598,
                "tempo": 120.0
            },
            {
                "start_time": 13.306818181818182,
                "end_time": 13.393181818181818,
                "pitch": 59,
                "velocity": 80,
                "duration": 0.08636363636363598,
                "tempo": 120.0
            },
            {
                "start_time": 13.443181818181818,
                "end_time": 13.527272727272727,
                "pitch": 68,
                "velocity": 80,
                "duration": 0.084090909090909,
                "tempo": 120.0
            },
            {
                "start_time": 13.577272727272726,
                "end_time": 13.661363636363635,
                "pitch": 70,
                "velocity": 80,
                "duration": 0.084090909090909,
                "tempo": 120.0
            },
            {
                "start_time": 13.711363636363636,
                "end_time": 13.793181818181818,
                "pitch": 59,
                "velocity": 80,
                "duration": 0.08181818181818201,
                "tempo": 120.0
            },
            {
                "start_time": 13.843181818181817,
                "end_time": 13.927272727272726,
                "pitch": 66,
                "velocity": 80,
                "duration": 0.084090909090909,
                "tempo": 120.0
            },
            {
                "start_time": 13.977272727272727,
                "end_time": 14.061363636363636,
                "pitch": 68,
                "velocity": 80,
                "duration": 0.084090909090909,
                "tempo": 120.0
            },
            {
                "start_time": 14.111363636363636,
                "end_time": 14.195454545454545,
                "pitch": 59,
                "velocity": 80,
                "duration": 0.084090909090909,
                "tempo": 120.0
            },
            {
                "start_time": 14.245454545454544,
                "end_time": 14.327272727272726,
                "pitch": 65,
                "velocity": 80,
                "duration": 0.08181818181818201,
                "tempo": 120.0
            },
            {
                "start_time": 14.377272727272727,
                "end_time": 14.461363636363636,
                "pitch": 66,
                "velocity": 80,
                "duration": 0.084090909090909,
                "tempo": 120.0
            },
            {
                "start_time": 14.511363636363635,
                "end_time": 15.272727272727272,
                "pitch": 69,
                "velocity": 80,
                "duration": 0.7613636363636367,
                "tempo": 120.0
            },
            {
                "start_time": 15.322727272727272,
                "end_time": 15.406818181818181,
                "pitch": 71,
                "velocity": 80,
                "duration": 0.084090909090909,
                "tempo": 120.0
            },
            {
                "start_time": 15.45681818181818,
                "end_time": 15.540909090909091,
                "pitch": 59,
                "velocity": 80,
                "duration": 0.08409090909091077,
                "tempo": 120.0
            },
            {
                "start_time": 15.59090909090909,
                "end_time": 15.672727272727272,
                "pitch": 68,
                "velocity": 80,
                "duration": 0.08181818181818201,
                "tempo": 120.0
            },
            {
                "start_time": 15.722727272727273,
                "end_time": 15.806818181818182,
                "pitch": 70,
                "velocity": 80,
                "duration": 0.084090909090909,
                "tempo": 120.0
            },
            {
                "start_time": 15.85681818181818,
                "end_time": 15.94090909090909,
                "pitch": 59,
                "velocity": 80,
                "duration": 0.084090909090909,
                "tempo": 120.0
            },
            {
                "start_time": 15.99090909090909,
                "end_time": 16.075,
                "pitch": 66,
                "velocity": 80,
                "duration": 0.084090909090909,
                "tempo": 120.0
            },
            {
                "start_time": 16.125,
                "end_time": 16.209090909090907,
                "pitch": 68,
                "velocity": 80,
                "duration": 0.08409090909090722,
                "tempo": 120.0
            },
            {
                "start_time": 16.261363636363637,
                "end_time": 16.345454545454544,
                "pitch": 59,
                "velocity": 80,
                "duration": 0.08409090909090722,
                "tempo": 120.0
            },
            {
                "start_time": 16.397727272727273,
                "end_time": 16.48181818181818,
                "pitch": 65,
                "velocity": 80,
                "duration": 0.08409090909090722,
                "tempo": 120.0
            },
            {
                "start_time": 16.53181818181818,
                "end_time": 16.618181818181817,
                "pitch": 66,
                "velocity": 80,
                "duration": 0.08636363636363598,
                "tempo": 120.0
            },
            {
                "start_time": 16.668181818181818,
                "end_time": 17.425,
                "pitch": 71,
                "velocity": 80,
                "duration": 0.7568181818181827,
                "tempo": 120.0
            },
            {
                "start_time": 17.474999999999998,
                "end_time": 17.55909090909091,
                "pitch": 73,
                "velocity": 80,
                "duration": 0.08409090909091077,
                "tempo": 120.0
            },
            {
                "start_time": 17.611363636363635,
                "end_time": 17.695454545454545,
                "pitch": 61,
                "velocity": 80,
                "duration": 0.08409090909091077,
                "tempo": 120.0
            },
            {
                "start_time": 17.74772727272727,
                "end_time": 17.829545454545453,
                "pitch": 68,
                "velocity": 80,
                "duration": 0.08181818181818201,
                "tempo": 120.0
            },
            {
                "start_time": 17.879545454545454,
                "end_time": 17.96363636363636,
                "pitch": 71,
                "velocity": 80,
                "duration": 0.08409090909090722,
                "tempo": 120.0
            },
            {
                "start_time": 18.013636363636362,
                "end_time": 18.097727272727273,
                "pitch": 61,
                "velocity": 80,
                "duration": 0.08409090909091077,
                "tempo": 120.0
            },
            {
                "start_time": 18.147727272727273,
                "end_time": 18.23181818181818,
                "pitch": 66,
                "velocity": 80,
                "duration": 0.08409090909090722,
                "tempo": 120.0
            },
            {
                "start_time": 18.28181818181818,
                "end_time": 18.36590909090909,
                "pitch": 68,
                "velocity": 80,
                "duration": 0.08409090909090722,
                "tempo": 120.0
            },
            {
                "start_time": 18.41590909090909,
                "end_time": 18.49772727272727,
                "pitch": 61,
                "velocity": 80,
                "duration": 0.08181818181818201,
                "tempo": 120.0
            },
            {
                "start_time": 18.547727272727272,
                "end_time": 18.63181818181818,
                "pitch": 64,
                "velocity": 80,
                "duration": 0.08409090909090722,
                "tempo": 120.0
            },
            {
                "start_time": 18.68181818181818,
                "end_time": 18.76590909090909,
                "pitch": 66,
                "velocity": 80,
                "duration": 0.08409090909091077,
                "tempo": 120.0
            },
            {
                "start_time": 18.81590909090909,
                "end_time": 19.570454545454545,
                "pitch": 71,
                "velocity": 80,
                "duration": 0.754545454545454,
                "tempo": 120.0
            },
            {
                "start_time": 19.62272727272727,
                "end_time": 19.706818181818182,
                "pitch": 73,
                "velocity": 80,
                "duration": 0.08409090909091077,
                "tempo": 120.0
            },
            {
                "start_time": 19.759090909090908,
                "end_time": 19.84318181818182,
                "pitch": 61,
                "velocity": 80,
                "duration": 0.08409090909091077,
                "tempo": 120.0
            },
            {
                "start_time": 19.893181818181816,
                "end_time": 19.977272727272727,
                "pitch": 68,
                "velocity": 80,
                "duration": 0.08409090909091077,
                "tempo": 120.0
            },
            {
                "start_time": 20.027272727272727,
                "end_time": 20.111363636363635,
                "pitch": 71,
                "velocity": 80,
                "duration": 0.08409090909090722,
                "tempo": 120.0
            },
            {
                "start_time": 20.161363636363635,
                "end_time": 20.245454545454546,
                "pitch": 61,
                "velocity": 80,
                "duration": 0.08409090909091077,
                "tempo": 120.0
            },
            {
                "start_time": 20.295454545454543,
                "end_time": 20.377272727272725,
                "pitch": 66,
                "velocity": 80,
                "duration": 0.08181818181818201,
                "tempo": 120.0
            },
            {
                "start_time": 20.427272727272726,
                "end_time": 20.511363636363637,
                "pitch": 68,
                "velocity": 80,
                "duration": 0.08409090909091077,
                "tempo": 120.0
            },
            {
                "start_time": 20.561363636363634,
                "end_time": 20.645454545454545,
                "pitch": 61,
                "velocity": 80,
                "duration": 0.08409090909091077,
                "tempo": 120.0
            },
            {
                "start_time": 20.695454545454545,
                "end_time": 20.779545454545453,
                "pitch": 64,
                "velocity": 80,
                "duration": 0.08409090909090722,
                "tempo": 120.0
            },
            {
                "start_time": 20.829545454545453,
                "end_time": 20.913636363636364,
                "pitch": 66,
                "velocity": 80,
                "duration": 0.08409090909091077,
                "tempo": 120.0
            },
            {
                "start_time": 20.96363636363636,
                "end_time": 21.722727272727273,
                "pitch": 73,
                "velocity": 80,
                "duration": 0.7590909090909115,
                "tempo": 120.0
            },
            {
                "start_time": 21.775,
                "end_time": 21.85681818181818,
                "pitch": 71,
                "velocity": 80,
                "duration": 0.08181818181818201,
                "tempo": 120.0
            },
            {
                "start_time": 21.90681818181818,
                "end_time": 21.99090909090909,
                "pitch": 59,
                "velocity": 80,
                "duration": 0.08409090909090722,
                "tempo": 120.0
            },
            {
                "start_time": 22.04090909090909,
                "end_time": 22.125,
                "pitch": 68,
                "velocity": 80,
                "duration": 0.08409090909091077,
                "tempo": 120.0
            },
            {
                "start_time": 22.174999999999997,
                "end_time": 22.259090909090908,
                "pitch": 70,
                "velocity": 80,
                "duration": 0.08409090909091077,
                "tempo": 120.0
            },
            {
                "start_time": 22.30909090909091,
                "end_time": 22.39090909090909,
                "pitch": 59,
                "velocity": 80,
                "duration": 0.08181818181818201,
                "tempo": 120.0
            },
            {
                "start_time": 22.44090909090909,
                "end_time": 22.525,
                "pitch": 66,
                "velocity": 80,
                "duration": 0.08409090909090722,
                "tempo": 120.0
            },
            {
                "start_time": 22.575,
                "end_time": 22.661363636363635,
                "pitch": 68,
                "velocity": 80,
                "duration": 0.08636363636363598,
                "tempo": 120.0
            },
            {
                "start_time": 22.711363636363636,
                "end_time": 22.797727272727272,
                "pitch": 59,
                "velocity": 80,
                "duration": 0.08636363636363598,
                "tempo": 120.0
            },
            {
                "start_time": 22.847727272727273,
                "end_time": 22.93181818181818,
                "pitch": 65,
                "velocity": 80,
                "duration": 0.08409090909090722,
                "tempo": 120.0
            },
            {
                "start_time": 22.98409090909091,
                "end_time": 23.068181818181817,
                "pitch": 66,
                "velocity": 80,
                "duration": 0.08409090909090722,
                "tempo": 120.0
            },
            {
                "start_time": 23.120454545454546,
                "end_time": 23.875,
                "pitch": 69,
                "velocity": 80,
                "duration": 0.754545454545454,
                "tempo": 120.0
            },
            {
                "start_time": 23.924999999999997,
                "end_time": 24.011363636363637,
                "pitch": 71,
                "velocity": 80,
                "duration": 0.08636363636363953,
                "tempo": 120.0
            },
            {
                "start_time": 24.061363636363634,
                "end_time": 24.14772727272727,
                "pitch": 59,
                "velocity": 80,
                "duration": 0.08636363636363598,
                "tempo": 120.0
            },
            {
                "start_time": 24.19772727272727,
                "end_time": 24.28181818181818,
                "pitch": 68,
                "velocity": 80,
                "duration": 0.08409090909091077,
                "tempo": 120.0
            },
            {
                "start_time": 24.331818181818182,
                "end_time": 24.41590909090909,
                "pitch": 70,
                "velocity": 80,
                "duration": 0.08409090909090722,
                "tempo": 120.0
            },
            {
                "start_time": 24.46590909090909,
                "end_time": 24.547727272727272,
                "pitch": 59,
                "velocity": 80,
                "duration": 0.08181818181818201,
                "tempo": 120.0
            },
            {
                "start_time": 24.597727272727273,
                "end_time": 24.68181818181818,
                "pitch": 66,
                "velocity": 80,
                "duration": 0.08409090909090722,
                "tempo": 120.0
            },
            {
                "start_time": 24.73181818181818,
                "end_time": 24.81590909090909,
                "pitch": 68,
                "velocity": 80,
                "duration": 0.08409090909091077,
                "tempo": 120.0
            },
            {
                "start_time": 24.86590909090909,
                "end_time": 24.95,
                "pitch": 59,
                "velocity": 80,
                "duration": 0.08409090909091077,
                "tempo": 120.0
            },
            {
                "start_time": 25.0,
                "end_time": 25.081818181818182,
                "pitch": 65,
                "velocity": 80,
                "duration": 0.08181818181818201,
                "tempo": 120.0
            },
            {
                "start_time": 25.13181818181818,
                "end_time": 25.21590909090909,
                "pitch": 66,
                "velocity": 80,
                "duration": 0.08409090909091077,
                "tempo": 120.0
            }
        ],
        "Lead 2 (sawtooth)": [
            {
                "start_time": 10.218181818181817,
                "end_time": 10.368181818181817,
                "pitch": 66,
                "velocity": 80,
                "duration": 0.15000000000000036,
                "tempo": 120.0
            },
            {
                "start_time": 10.418181818181818,
                "end_time": 10.568181818181818,
                "pitch": 66,
                "velocity": 80,
                "duration": 0.15000000000000036,
                "tempo": 120.0
            },
            {
                "start_time": 10.618181818181817,
                "end_time": 10.836363636363636,
                "pitch": 68,
                "velocity": 80,
                "duration": 0.2181818181818187,
                "tempo": 120.0
            },
            {
                "start_time": 12.36590909090909,
                "end_time": 12.51590909090909,
                "pitch": 68,
                "velocity": 80,
                "duration": 0.15000000000000036,
                "tempo": 120.0
            },
            {
                "start_time": 12.56590909090909,
                "end_time": 12.71590909090909,
                "pitch": 68,
                "velocity": 80,
                "duration": 0.15000000000000036,
                "tempo": 120.0
            },
            {
                "start_time": 12.76590909090909,
                "end_time": 12.984090909090908,
                "pitch": 66,
                "velocity": 80,
                "duration": 0.21818181818181692,
                "tempo": 120.0
            },
            {
                "start_time": 14.511363636363635,
                "end_time": 14.665909090909091,
                "pitch": 64,
                "velocity": 80,
                "duration": 0.1545454545454561,
                "tempo": 120.0
            },
            {
                "start_time": 14.71590909090909,
                "end_time": 14.868181818181817,
                "pitch": 64,
                "velocity": 80,
                "duration": 0.15227272727272734,
                "tempo": 120.0
            },
            {
                "start_time": 14.920454545454545,
                "end_time": 15.138636363636364,
                "pitch": 66,
                "velocity": 80,
                "duration": 0.2181818181818187,
                "tempo": 120.0
            },
            {
                "start_time": 16.668181818181818,
                "end_time": 16.818181818181817,
                "pitch": 66,
                "velocity": 80,
                "duration": 0.14999999999999858,
                "tempo": 120.0
            },
            {
                "start_time": 16.868181818181817,
                "end_time": 17.018181818181816,
                "pitch": 66,
                "velocity": 80,
                "duration": 0.14999999999999858,
                "tempo": 120.0
            },
            {
                "start_time": 17.070454545454545,
                "end_time": 17.288636363636364,
                "pitch": 68,
                "velocity": 80,
                "duration": 0.2181818181818187,
                "tempo": 120.0
            },
            {
                "start_time": 18.81590909090909,
                "end_time": 18.96590909090909,
                "pitch": 66,
                "velocity": 80,
                "duration": 0.14999999999999858,
                "tempo": 120.0
            },
            {
                "start_time": 19.01590909090909,
                "end_time": 19.16590909090909,
                "pitch": 66,
                "velocity": 80,
                "duration": 0.14999999999999858,
                "tempo": 120.0
            },
            {
                "start_time": 19.21590909090909,
                "end_time": 19.436363636363634,
                "pitch": 68,
                "velocity": 80,
                "duration": 0.2204545454545439,
                "tempo": 120.0
            },
            {
                "start_time": 20.96363636363636,
                "end_time": 21.11590909090909,
                "pitch": 68,
                "velocity": 80,
                "duration": 0.15227272727272734,
                "tempo": 120.0
            },
            {
                "start_time": 21.16590909090909,
                "end_time": 21.320454545454545,
                "pitch": 68,
                "velocity": 80,
                "duration": 0.1545454545454561,
                "tempo": 120.0
            },
            {
                "start_time": 21.370454545454546,
                "end_time": 21.59090909090909,
                "pitch": 66,
                "velocity": 80,
                "duration": 0.2204545454545439,
                "tempo": 120.0
            },
            {
                "start_time": 23.120454545454546,
                "end_time": 23.270454545454545,
                "pitch": 64,
                "velocity": 80,
                "duration": 0.14999999999999858,
                "tempo": 120.0
            },
            {
                "start_time": 23.320454545454545,
                "end_time": 23.470454545454544,
                "pitch": 64,
                "velocity": 80,
                "duration": 0.14999999999999858,
                "tempo": 120.0
            },
            {
                "start_time": 23.520454545454545,
                "end_time": 23.738636363636363,
                "pitch": 66,
                "velocity": 80,
                "duration": 0.2181818181818187,
                "tempo": 120.0
            },
            {
                "start_time": 25.26590909090909,
                "end_time": 25.41590909090909,
                "pitch": 66,
                "velocity": 80,
                "duration": 0.14999999999999858,
                "tempo": 120.0
            },
            {
                "start_time": 25.46590909090909,
                "end_time": 25.618181818181817,
                "pitch": 66,
                "velocity": 80,
                "duration": 0.15227272727272734,
                "tempo": 120.0
            }
        ],
        "Harpsichord": [
            {
                "start_time": 8.595454545454546,
                "end_time": 8.815909090909091,
                "pitch": 64,
                "velocity": 51,
                "duration": 0.22045454545454568,
                "tempo": 120.0
            },
            {
                "start_time": 10.218181818181817,
                "end_time": 10.368181818181817,
                "pitch": 63,
                "velocity": 51,
                "duration": 0.15000000000000036,
                "tempo": 120.0
            },
            {
                "start_time": 10.418181818181818,
                "end_time": 10.568181818181818,
                "pitch": 63,
                "velocity": 51,
                "duration": 0.15000000000000036,
                "tempo": 120.0
            },
            {
                "start_time": 10.618181818181817,
                "end_time": 10.836363636363636,
                "pitch": 64,
                "velocity": 51,
                "duration": 0.2181818181818187,
                "tempo": 120.0
            },
            {
                "start_time": 12.36590909090909,
                "end_time": 12.51590909090909,
                "pitch": 64,
                "velocity": 51,
                "duration": 0.15000000000000036,
                "tempo": 120.0
            },
            {
                "start_time": 12.56590909090909,
                "end_time": 12.71590909090909,
                "pitch": 64,
                "velocity": 51,
                "duration": 0.15000000000000036,
                "tempo": 120.0
            },
            {
                "start_time": 12.76590909090909,
                "end_time": 12.984090909090908,
                "pitch": 63,
                "velocity": 51,
                "duration": 0.21818181818181692,
                "tempo": 120.0
            },
            {
                "start_time": 14.511363636363635,
                "end_time": 14.665909090909091,
                "pitch": 61,
                "velocity": 51,
                "duration": 0.1545454545454561,
                "tempo": 120.0
            },
            {
                "start_time": 14.71590909090909,
                "end_time": 14.868181818181817,
                "pitch": 61,
                "velocity": 51,
                "duration": 0.15227272727272734,
                "tempo": 120.0
            },
            {
                "start_time": 14.920454545454545,
                "end_time": 15.138636363636364,
                "pitch": 63,
                "velocity": 51,
                "duration": 0.2181818181818187,
                "tempo": 120.0
            },
            {
                "start_time": 16.668181818181818,
                "end_time": 16.818181818181817,
                "pitch": 63,
                "velocity": 51,
                "duration": 0.14999999999999858,
                "tempo": 120.0
            },
            {
                "start_time": 16.868181818181817,
                "end_time": 17.018181818181816,
                "pitch": 63,
                "velocity": 51,
                "duration": 0.14999999999999858,
                "tempo": 120.0
            },
            {
                "start_time": 17.070454545454545,
                "end_time": 17.288636363636364,
                "pitch": 64,
                "velocity": 51,
                "duration": 0.2181818181818187,
                "tempo": 120.0
            },
            {
                "start_time": 18.81590909090909,
                "end_time": 18.96590909090909,
                "pitch": 63,
                "velocity": 51,
                "duration": 0.14999999999999858,
                "tempo": 120.0
            },
            {
                "start_time": 19.01590909090909,
                "end_time": 19.16590909090909,
                "pitch": 63,
                "velocity": 51,
                "duration": 0.14999999999999858,
                "tempo": 120.0
            },
            {
                "start_time": 19.21590909090909,
                "end_time": 19.436363636363634,
                "pitch": 64,
                "velocity": 51,
                "duration": 0.2204545454545439,
                "tempo": 120.0
            },
            {
                "start_time": 20.96363636363636,
                "end_time": 21.11590909090909,
                "pitch": 64,
                "velocity": 51,
                "duration": 0.15227272727272734,
                "tempo": 120.0
            },
            {
                "start_time": 21.16590909090909,
                "end_time": 21.320454545454545,
                "pitch": 64,
                "velocity": 51,
                "duration": 0.1545454545454561,
                "tempo": 120.0
            },
            {
                "start_time": 21.370454545454546,
                "end_time": 21.59090909090909,
                "pitch": 63,
                "velocity": 51,
                "duration": 0.2204545454545439,
                "tempo": 120.0
            },
            {
                "start_time": 23.120454545454546,
                "end_time": 23.270454545454545,
                "pitch": 61,
                "velocity": 51,
                "duration": 0.14999999999999858,
                "tempo": 120.0
            },
            {
                "start_time": 23.320454545454545,
                "end_time": 23.470454545454544,
                "pitch": 61,
                "velocity": 51,
                "duration": 0.14999999999999858,
                "tempo": 120.0
            },
            {
                "start_time": 23.520454545454545,
                "end_time": 23.738636363636363,
                "pitch": 63,
                "velocity": 51,
                "duration": 0.2181818181818187,
                "tempo": 120.0
            },
            {
                "start_time": 25.26590909090909,
                "end_time": 25.41590909090909,
                "pitch": 63,
                "velocity": 51,
                "duration": 0.14999999999999858,
                "tempo": 120.0
            },
            {
                "start_time": 25.46590909090909,
                "end_time": 25.618181818181817,
                "pitch": 63,
                "velocity": 51,
                "duration": 0.15227272727272734,
                "tempo": 120.0
            },
            {
                "start_time": 25.802272727272726,
                "end_time": 25.886363636363637,
                "pitch": 56,
                "velocity": 51,
                "duration": 0.08409090909091077,
                "tempo": 120.0
            },
            {
                "start_time": 26.611363636363635,
                "end_time": 26.695454545454545,
                "pitch": 56,
                "velocity": 32,
                "duration": 0.08409090909091077,
                "tempo": 120.0
            },
            {
                "start_time": 26.745454545454542,
                "end_time": 26.829545454545453,
                "pitch": 56,
                "velocity": 32,
                "duration": 0.08409090909091077,
                "tempo": 120.0
            },
            {
                "start_time": 28.18409090909091,
                "end_time": 28.275,
                "pitch": 56,
                "velocity": 32,
                "duration": 0.09090909090908994,
                "tempo": 120.0
            },
            {
                "start_time": 28.62272727272727,
                "end_time": 28.71590909090909,
                "pitch": 56,
                "velocity": 40,
                "duration": 0.0931818181818187,
                "tempo": 120.0
            },
            {
                "start_time": 29.193181818181817,
                "end_time": 29.422727272727272,
                "pitch": 56,
                "velocity": 40,
                "duration": 0.22954545454545539,
                "tempo": 120.0
            },
            {
                "start_time": 29.629545454545454,
                "end_time": 30.02272727272727,
                "pitch": 56,
                "velocity": 51,
                "duration": 0.39318181818181586,
                "tempo": 120.0
            },
            {
                "start_time": 47.611363636363635,
                "end_time": 48.64772727272727,
                "pitch": 68,
                "velocity": 40,
                "duration": 1.0363636363636388,
                "tempo": 120.0
            },
            {
                "start_time": 48.69772727272727,
                "end_time": 49.71818181818182,
                "pitch": 66,
                "velocity": 40,
                "duration": 1.0204545454545482,
                "tempo": 120.0
            },
            {
                "start_time": 49.768181818181816,
                "end_time": 50.79545454545454,
                "pitch": 68,
                "velocity": 40,
                "duration": 1.0272727272727238,
                "tempo": 120.0
            },
            {
                "start_time": 50.845454545454544,
                "end_time": 51.320454545454545,
                "pitch": 63,
                "velocity": 40,
                "duration": 0.4750000000000014,
                "tempo": 120.0
            },
            {
                "start_time": 51.37045454545454,
                "end_time": 51.87272727272727,
                "pitch": 64,
                "velocity": 40,
                "duration": 0.5022727272727252,
                "tempo": 120.0
            },
            {
                "start_time": 51.925,
                "end_time": 52.94318181818181,
                "pitch": 68,
                "velocity": 40,
                "duration": 1.0181818181818159,
                "tempo": 120.0
            },
            {
                "start_time": 52.99318181818182,
                "end_time": 54.02045454545454,
                "pitch": 66,
                "velocity": 40,
                "duration": 1.0272727272727238,
                "tempo": 120.0
            },
            {
                "start_time": 54.070454545454545,
                "end_time": 55.224999999999994,
                "pitch": 64,
                "velocity": 40,
                "duration": 1.154545454545449,
                "tempo": 120.0
            },
            {
                "start_time": 55.277272727272724,
                "end_time": 55.902272727272724,
                "pitch": 64,
                "velocity": 40,
                "duration": 0.625,
                "tempo": 120.0
            },
            {
                "start_time": 55.95227272727273,
                "end_time": 56.30681818181818,
                "pitch": 68,
                "velocity": 40,
                "duration": 0.35454545454545183,
                "tempo": 120.0
            },
            {
                "start_time": 58.486363636363635,
                "end_time": 58.67727272727272,
                "pitch": 69,
                "velocity": 40,
                "duration": 0.1909090909090878,
                "tempo": 120.0
            },
            {
                "start_time": 58.95227272727272,
                "end_time": 59.03409090909091,
                "pitch": 69,
                "velocity": 40,
                "duration": 0.08181818181818556,
                "tempo": 120.0
            },
            {
                "start_time": 59.08181818181818,
                "end_time": 59.163636363636364,
                "pitch": 69,
                "velocity": 40,
                "duration": 0.08181818181818556,
                "tempo": 120.0
            },
            {
                "start_time": 59.211363636363636,
                "end_time": 59.42045454545454,
                "pitch": 69,
                "velocity": 40,
                "duration": 0.20909090909090366,
                "tempo": 120.0
            },
            {
                "start_time": 59.470454545454544,
                "end_time": 59.554545454545455,
                "pitch": 69,
                "velocity": 40,
                "duration": 0.08409090909091077,
                "tempo": 120.0
            },
            {
                "start_time": 59.736363636363635,
                "end_time": 59.820454545454545,
                "pitch": 69,
                "velocity": 40,
                "duration": 0.08409090909091077,
                "tempo": 120.0
            },
            {
                "start_time": 60.00454545454545,
                "end_time": 60.08863636363636,
                "pitch": 69,
                "velocity": 40,
                "duration": 0.08409090909091077,
                "tempo": 120.0
            },
            {
                "start_time": 60.13863636363636,
                "end_time": 60.220454545454544,
                "pitch": 71,
                "velocity": 40,
                "duration": 0.08181818181818556,
                "tempo": 120.0
            },
            {
                "start_time": 60.272727272727266,
                "end_time": 60.48863636363636,
                "pitch": 69,
                "velocity": 40,
                "duration": 0.2159090909090935,
                "tempo": 120.0
            },
            {
                "start_time": 60.538636363636364,
                "end_time": 60.625,
                "pitch": 68,
                "velocity": 40,
                "duration": 0.08636363636363598,
                "tempo": 120.0
            },
            {
                "start_time": 60.94772727272727,
                "end_time": 61.03181818181818,
                "pitch": 68,
                "velocity": 40,
                "duration": 0.08409090909091077,
                "tempo": 120.0
            },
            {
                "start_time": 61.08181818181818,
                "end_time": 61.16590909090909,
                "pitch": 68,
                "velocity": 40,
                "duration": 0.08409090909091077,
                "tempo": 120.0
            },
            {
                "start_time": 61.215909090909086,
                "end_time": 61.434090909090905,
                "pitch": 68,
                "velocity": 40,
                "duration": 0.2181818181818187,
                "tempo": 120.0
            },
            {
                "start_time": 61.48409090909091,
                "end_time": 61.56818181818181,
                "pitch": 68,
                "velocity": 40,
                "duration": 0.08409090909090366,
                "tempo": 120.0
            },
            {
                "start_time": 61.61818181818182,
                "end_time": 61.699999999999996,
                "pitch": 68,
                "velocity": 40,
                "duration": 0.08181818181817846,
                "tempo": 120.0
            },
            {
                "start_time": 61.88409090909091,
                "end_time": 62.10227272727273,
                "pitch": 68,
                "velocity": 40,
                "duration": 0.2181818181818187,
                "tempo": 120.0
            },
            {
                "start_time": 62.152272727272724,
                "end_time": 62.37272727272727,
                "pitch": 66,
                "velocity": 40,
                "duration": 0.2204545454545439,
                "tempo": 120.0
            },
            {
                "start_time": 62.42272727272727,
                "end_time": 62.64545454545454,
                "pitch": 68,
                "velocity": 40,
                "duration": 0.2227272727272691,
                "tempo": 120.0
            },
            {
                "start_time": 62.695454545454545,
                "end_time": 62.913636363636364,
                "pitch": 69,
                "velocity": 40,
                "duration": 0.2181818181818187,
                "tempo": 120.0
            },
            {
                "start_time": 63.22954545454545,
                "end_time": 63.31363636363636,
                "pitch": 69,
                "velocity": 40,
                "duration": 0.08409090909091077,
                "tempo": 120.0
            },
            {
                "start_time": 63.36363636363636,
                "end_time": 63.44772727272727,
                "pitch": 69,
                "velocity": 40,
                "duration": 0.08409090909091077,
                "tempo": 120.0
            },
            {
                "start_time": 63.49772727272727,
                "end_time": 63.71363636363636,
                "pitch": 69,
                "velocity": 40,
                "duration": 0.2159090909090935,
                "tempo": 120.0
            },
            {
                "start_time": 63.76363636363636,
                "end_time": 63.849999999999994,
                "pitch": 69,
                "velocity": 40,
                "duration": 0.08636363636363598,
                "tempo": 120.0
            },
            {
                "start_time": 64.03636363636363,
                "end_time": 64.12045454545454,
                "pitch": 69,
                "velocity": 40,
                "duration": 0.08409090909090366,
                "tempo": 120.0
            },
            {
                "start_time": 64.30909090909091,
                "end_time": 64.39090909090909,
                "pitch": 69,
                "velocity": 40,
                "duration": 0.08181818181817846,
                "tempo": 120.0
            },
            {
                "start_time": 64.44090909090909,
                "end_time": 64.52499999999999,
                "pitch": 71,
                "velocity": 40,
                "duration": 0.08409090909090366,
                "tempo": 120.0
            },
            {
                "start_time": 64.575,
                "end_time": 64.79318181818182,
                "pitch": 69,
                "velocity": 40,
                "duration": 0.2181818181818187,
                "tempo": 120.0
            },
            {
                "start_time": 64.84318181818182,
                "end_time": 64.925,
                "pitch": 68,
                "velocity": 40,
                "duration": 0.08181818181817846,
                "tempo": 120.0
            },
            {
                "start_time": 65.24318181818181,
                "end_time": 65.32727272727273,
                "pitch": 68,
                "velocity": 40,
                "duration": 0.08409090909091788,
                "tempo": 120.0
            },
            {
                "start_time": 65.37727272727273,
                "end_time": 65.46136363636363,
                "pitch": 68,
                "velocity": 40,
                "duration": 0.08409090909090366,
                "tempo": 120.0
            },
            {
                "start_time": 65.51363636363637,
                "end_time": 65.73409090909091,
                "pitch": 68,
                "velocity": 40,
                "duration": 0.2204545454545439,
                "tempo": 120.0
            },
            {
                "start_time": 65.7840909090909,
                "end_time": 65.87045454545454,
                "pitch": 68,
                "velocity": 40,
                "duration": 0.08636363636362887,
                "tempo": 120.0
            },
            {
                "start_time": 65.92045454545455,
                "end_time": 66.00454545454545,
                "pitch": 68,
                "velocity": 40,
                "duration": 0.08409090909090366,
                "tempo": 120.0
            },
            {
                "start_time": 66.18863636363636,
                "end_time": 66.40454545454546,
                "pitch": 68,
                "velocity": 40,
                "duration": 0.2159090909090935,
                "tempo": 120.0
            },
            {
                "start_time": 66.45454545454545,
                "end_time": 66.67272727272727,
                "pitch": 66,
                "velocity": 40,
                "duration": 0.2181818181818187,
                "tempo": 120.0
            },
            {
                "start_time": 66.72272727272727,
                "end_time": 66.93863636363636,
                "pitch": 68,
                "velocity": 40,
                "duration": 0.2159090909090935,
                "tempo": 120.0
            },
            {
                "start_time": 66.99090909090908,
                "end_time": 68.01818181818182,
                "pitch": 68,
                "velocity": 40,
                "duration": 1.027272727272731,
                "tempo": 120.0
            },
            {
                "start_time": 68.06818181818181,
                "end_time": 69.09545454545454,
                "pitch": 66,
                "velocity": 40,
                "duration": 1.027272727272731,
                "tempo": 120.0
            },
            {
                "start_time": 69.14545454545454,
                "end_time": 69.22954545454544,
                "pitch": 63,
                "velocity": 40,
                "duration": 0.08409090909090366,
                "tempo": 120.0
            },
            {
                "start_time": 69.27954545454546,
                "end_time": 70.29772727272727,
                "pitch": 63,
                "velocity": 40,
                "duration": 1.0181818181818159,
                "tempo": 120.0
            },
            {
                "start_time": 70.34772727272727,
                "end_time": 70.97045454545454,
                "pitch": 63,
                "velocity": 40,
                "duration": 0.6227272727272748,
                "tempo": 120.0
            },
            {
                "start_time": 71.02272727272727,
                "end_time": 71.24318181818181,
                "pitch": 66,
                "velocity": 40,
                "duration": 0.2204545454545439,
                "tempo": 120.0
            },
            {
                "start_time": 71.29318181818182,
                "end_time": 72.32045454545454,
                "pitch": 68,
                "velocity": 40,
                "duration": 1.0272727272727167,
                "tempo": 120.0
            },
            {
                "start_time": 72.37272727272727,
                "end_time": 73.39090909090909,
                "pitch": 66,
                "velocity": 40,
                "duration": 1.0181818181818159,
                "tempo": 120.0
            },
            {
                "start_time": 73.44090909090909,
                "end_time": 74.52045454545454,
                "pitch": 61,
                "velocity": 40,
                "duration": 1.0795454545454533,
                "tempo": 120.0
            }
        ],
        "Electric Guitar (clean)": [
            {
                "start_time": 8.868181818181817,
                "end_time": 8.952272727272726,
                "pitch": 37,
                "velocity": 51,
                "duration": 0.084090909090909,
                "tempo": 120.0
            },
            {
                "start_time": 9.004545454545454,
                "end_time": 9.088636363636363,
                "pitch": 37,
                "velocity": 51,
                "duration": 0.084090909090909,
                "tempo": 120.0
            },
            {
                "start_time": 9.138636363636364,
                "end_time": 9.222727272727273,
                "pitch": 37,
                "velocity": 51,
                "duration": 0.084090909090909,
                "tempo": 120.0
            },
            {
                "start_time": 9.272727272727272,
                "end_time": 9.35681818181818,
                "pitch": 37,
                "velocity": 51,
                "duration": 0.084090909090909,
                "tempo": 120.0
            },
            {
                "start_time": 9.406818181818181,
                "end_time": 9.49090909090909,
                "pitch": 37,
                "velocity": 51,
                "duration": 0.084090909090909,
                "tempo": 120.0
            },
            {
                "start_time": 9.540909090909091,
                "end_time": 9.622727272727273,
                "pitch": 37,
                "velocity": 51,
                "duration": 0.08181818181818201,
                "tempo": 120.0
            },
            {
                "start_time": 9.674999999999999,
                "end_time": 9.759090909090908,
                "pitch": 37,
                "velocity": 51,
                "duration": 0.084090909090909,
                "tempo": 120.0
            },
            {
                "start_time": 9.809090909090909,
                "end_time": 9.895454545454545,
                "pitch": 37,
                "velocity": 51,
                "duration": 0.08636363636363598,
                "tempo": 120.0
            },
            {
                "start_time": 9.945454545454545,
                "end_time": 10.031818181818181,
                "pitch": 37,
                "velocity": 51,
                "duration": 0.08636363636363598,
                "tempo": 120.0
            },
            {
                "start_time": 10.081818181818182,
                "end_time": 10.165909090909091,
                "pitch": 37,
                "velocity": 51,
                "duration": 0.084090909090909,
                "tempo": 120.0
            },
            {
                "start_time": 10.218181818181817,
                "end_time": 10.972727272727273,
                "pitch": 66,
                "velocity": 51,
                "duration": 0.7545454545454557,
                "tempo": 120.0
            },
            {
                "start_time": 11.024999999999999,
                "end_time": 11.10909090909091,
                "pitch": 37,
                "velocity": 51,
                "duration": 0.08409090909091077,
                "tempo": 120.0
            },
            {
                "start_time": 11.161363636363635,
                "end_time": 11.245454545454544,
                "pitch": 37,
                "velocity": 51,
                "duration": 0.084090909090909,
                "tempo": 120.0
            },
            {
                "start_time": 11.295454545454545,
                "end_time": 11.379545454545454,
                "pitch": 37,
                "velocity": 51,
                "duration": 0.084090909090909,
                "tempo": 120.0
            },
            {
                "start_time": 11.429545454545455,
                "end_time": 11.513636363636364,
                "pitch": 37,
                "velocity": 51,
                "duration": 0.084090909090909,
                "tempo": 120.0
            },
            {
                "start_time": 11.563636363636363,
                "end_time": 11.647727272727272,
                "pitch": 37,
                "velocity": 51,
                "duration": 0.084090909090909,
                "tempo": 120.0
            },
            {
                "start_time": 11.697727272727272,
                "end_time": 11.779545454545454,
                "pitch": 37,
                "velocity": 51,
                "duration": 0.08181818181818201,
                "tempo": 120.0
            },
            {
                "start_time": 11.829545454545453,
                "end_time": 11.913636363636362,
                "pitch": 37,
                "velocity": 51,
                "duration": 0.084090909090909,
                "tempo": 120.0
            },
            {
                "start_time": 11.963636363636363,
                "end_time": 12.047727272727272,
                "pitch": 37,
                "velocity": 51,
                "duration": 0.084090909090909,
                "tempo": 120.0
            },
            {
                "start_time": 12.097727272727273,
                "end_time": 12.181818181818182,
                "pitch": 37,
                "velocity": 51,
                "duration": 0.084090909090909,
                "tempo": 120.0
            },
            {
                "start_time": 12.23181818181818,
                "end_time": 12.313636363636363,
                "pitch": 37,
                "velocity": 51,
                "duration": 0.08181818181818201,
                "tempo": 120.0
            },
            {
                "start_time": 12.36590909090909,
                "end_time": 13.120454545454544,
                "pitch": 68,
                "velocity": 51,
                "duration": 0.754545454545454,
                "tempo": 120.0
            },
            {
                "start_time": 13.170454545454545,
                "end_time": 13.256818181818181,
                "pitch": 35,
                "velocity": 51,
                "duration": 0.08636363636363598,
                "tempo": 120.0
            },
            {
                "start_time": 13.306818181818182,
                "end_time": 13.393181818181818,
                "pitch": 35,
                "velocity": 51,
                "duration": 0.08636363636363598,
                "tempo": 120.0
            },
            {
                "start_time": 13.443181818181818,
                "end_time": 13.527272727272727,
                "pitch": 35,
                "velocity": 51,
                "duration": 0.084090909090909,
                "tempo": 120.0
            },
            {
                "start_time": 13.577272727272726,
                "end_time": 13.661363636363635,
                "pitch": 35,
                "velocity": 51,
                "duration": 0.084090909090909,
                "tempo": 120.0
            },
            {
                "start_time": 13.711363636363636,
                "end_time": 13.793181818181818,
                "pitch": 35,
                "velocity": 51,
                "duration": 0.08181818181818201,
                "tempo": 120.0
            },
            {
                "start_time": 13.843181818181817,
                "end_time": 13.927272727272726,
                "pitch": 35,
                "velocity": 51,
                "duration": 0.084090909090909,
                "tempo": 120.0
            },
            {
                "start_time": 13.977272727272727,
                "end_time": 14.061363636363636,
                "pitch": 35,
                "velocity": 51,
                "duration": 0.084090909090909,
                "tempo": 120.0
            },
            {
                "start_time": 14.111363636363636,
                "end_time": 14.195454545454545,
                "pitch": 35,
                "velocity": 51,
                "duration": 0.084090909090909,
                "tempo": 120.0
            },
            {
                "start_time": 14.245454545454544,
                "end_time": 14.327272727272726,
                "pitch": 35,
                "velocity": 51,
                "duration": 0.08181818181818201,
                "tempo": 120.0
            },
            {
                "start_time": 14.377272727272727,
                "end_time": 14.461363636363636,
                "pitch": 35,
                "velocity": 51,
                "duration": 0.084090909090909,
                "tempo": 120.0
            },
            {
                "start_time": 14.511363636363635,
                "end_time": 15.272727272727272,
                "pitch": 64,
                "velocity": 51,
                "duration": 0.7613636363636367,
                "tempo": 120.0
            },
            {
                "start_time": 15.322727272727272,
                "end_time": 15.406818181818181,
                "pitch": 35,
                "velocity": 51,
                "duration": 0.084090909090909,
                "tempo": 120.0
            },
            {
                "start_time": 15.45681818181818,
                "end_time": 15.540909090909091,
                "pitch": 35,
                "velocity": 51,
                "duration": 0.08409090909091077,
                "tempo": 120.0
            },
            {
                "start_time": 15.59090909090909,
                "end_time": 15.672727272727272,
                "pitch": 35,
                "velocity": 51,
                "duration": 0.08181818181818201,
                "tempo": 120.0
            },
            {
                "start_time": 15.722727272727273,
                "end_time": 15.806818181818182,
                "pitch": 35,
                "velocity": 51,
                "duration": 0.084090909090909,
                "tempo": 120.0
            },
            {
                "start_time": 15.85681818181818,
                "end_time": 15.94090909090909,
                "pitch": 35,
                "velocity": 51,
                "duration": 0.084090909090909,
                "tempo": 120.0
            },
            {
                "start_time": 15.99090909090909,
                "end_time": 16.075,
                "pitch": 35,
                "velocity": 51,
                "duration": 0.084090909090909,
                "tempo": 120.0
            },
            {
                "start_time": 16.125,
                "end_time": 16.209090909090907,
                "pitch": 35,
                "velocity": 51,
                "duration": 0.08409090909090722,
                "tempo": 120.0
            },
            {
                "start_time": 16.261363636363637,
                "end_time": 16.345454545454544,
                "pitch": 35,
                "velocity": 51,
                "duration": 0.08409090909090722,
                "tempo": 120.0
            },
            {
                "start_time": 16.397727272727273,
                "end_time": 16.48181818181818,
                "pitch": 35,
                "velocity": 51,
                "duration": 0.08409090909090722,
                "tempo": 120.0
            },
            {
                "start_time": 16.53181818181818,
                "end_time": 16.618181818181817,
                "pitch": 35,
                "velocity": 51,
                "duration": 0.08636363636363598,
                "tempo": 120.0
            },
            {
                "start_time": 16.668181818181818,
                "end_time": 17.425,
                "pitch": 66,
                "velocity": 51,
                "duration": 0.7568181818181827,
                "tempo": 120.0
            },
            {
                "start_time": 17.474999999999998,
                "end_time": 17.55909090909091,
                "pitch": 37,
                "velocity": 51,
                "duration": 0.08409090909091077,
                "tempo": 120.0
            },
            {
                "start_time": 17.611363636363635,
                "end_time": 17.695454545454545,
                "pitch": 37,
                "velocity": 51,
                "duration": 0.08409090909091077,
                "tempo": 120.0
            },
            {
                "start_time": 17.74772727272727,
                "end_time": 17.829545454545453,
                "pitch": 37,
                "velocity": 51,
                "duration": 0.08181818181818201,
                "tempo": 120.0
            },
            {
                "start_time": 17.879545454545454,
                "end_time": 17.96363636363636,
                "pitch": 37,
                "velocity": 51,
                "duration": 0.08409090909090722,
                "tempo": 120.0
            },
            {
                "start_time": 18.013636363636362,
                "end_time": 18.097727272727273,
                "pitch": 37,
                "velocity": 51,
                "duration": 0.08409090909091077,
                "tempo": 120.0
            },
            {
                "start_time": 18.147727272727273,
                "end_time": 18.23181818181818,
                "pitch": 37,
                "velocity": 51,
                "duration": 0.08409090909090722,
                "tempo": 120.0
            },
            {
                "start_time": 18.28181818181818,
                "end_time": 18.36590909090909,
                "pitch": 37,
                "velocity": 51,
                "duration": 0.08409090909090722,
                "tempo": 120.0
            },
            {
                "start_time": 18.41590909090909,
                "end_time": 18.49772727272727,
                "pitch": 37,
                "velocity": 51,
                "duration": 0.08181818181818201,
                "tempo": 120.0
            },
            {
                "start_time": 18.547727272727272,
                "end_time": 18.63181818181818,
                "pitch": 37,
                "velocity": 51,
                "duration": 0.08409090909090722,
                "tempo": 120.0
            },
            {
                "start_time": 18.68181818181818,
                "end_time": 18.76590909090909,
                "pitch": 37,
                "velocity": 51,
                "duration": 0.08409090909091077,
                "tempo": 120.0
            },
            {
                "start_time": 18.81590909090909,
                "end_time": 19.570454545454545,
                "pitch": 66,
                "velocity": 51,
                "duration": 0.754545454545454,
                "tempo": 120.0
            },
            {
                "start_time": 19.62272727272727,
                "end_time": 19.706818181818182,
                "pitch": 37,
                "velocity": 51,
                "duration": 0.08409090909091077,
                "tempo": 120.0
            },
            {
                "start_time": 19.759090909090908,
                "end_time": 19.84318181818182,
                "pitch": 37,
                "velocity": 51,
                "duration": 0.08409090909091077,
                "tempo": 120.0
            },
            {
                "start_time": 19.893181818181816,
                "end_time": 19.977272727272727,
                "pitch": 37,
                "velocity": 51,
                "duration": 0.08409090909091077,
                "tempo": 120.0
            },
            {
                "start_time": 20.027272727272727,
                "end_time": 20.111363636363635,
                "pitch": 37,
                "velocity": 51,
                "duration": 0.08409090909090722,
                "tempo": 120.0
            },
            {
                "start_time": 20.161363636363635,
                "end_time": 20.245454545454546,
                "pitch": 37,
                "velocity": 51,
                "duration": 0.08409090909091077,
                "tempo": 120.0
            },
            {
                "start_time": 20.295454545454543,
                "end_time": 20.377272727272725,
                "pitch": 37,
                "velocity": 51,
                "duration": 0.08181818181818201,
                "tempo": 120.0
            },
            {
                "start_time": 20.427272727272726,
                "end_time": 20.511363636363637,
                "pitch": 37,
                "velocity": 51,
                "duration": 0.08409090909091077,
                "tempo": 120.0
            },
            {
                "start_time": 20.561363636363634,
                "end_time": 20.645454545454545,
                "pitch": 37,
                "velocity": 51,
                "duration": 0.08409090909091077,
                "tempo": 120.0
            },
            {
                "start_time": 20.695454545454545,
                "end_time": 20.779545454545453,
                "pitch": 37,
                "velocity": 51,
                "duration": 0.08409090909090722,
                "tempo": 120.0
            },
            {
                "start_time": 20.829545454545453,
                "end_time": 20.913636363636364,
                "pitch": 37,
                "velocity": 51,
                "duration": 0.08409090909091077,
                "tempo": 120.0
            },
            {
                "start_time": 20.96363636363636,
                "end_time": 21.722727272727273,
                "pitch": 68,
                "velocity": 51,
                "duration": 0.7590909090909115,
                "tempo": 120.0
            },
            {
                "start_time": 21.775,
                "end_time": 21.85681818181818,
                "pitch": 35,
                "velocity": 51,
                "duration": 0.08181818181818201,
                "tempo": 120.0
            },
            {
                "start_time": 21.90681818181818,
                "end_time": 21.99090909090909,
                "pitch": 35,
                "velocity": 51,
                "duration": 0.08409090909090722,
                "tempo": 120.0
            },
            {
                "start_time": 22.04090909090909,
                "end_time": 22.125,
                "pitch": 35,
                "velocity": 51,
                "duration": 0.08409090909091077,
                "tempo": 120.0
            },
            {
                "start_time": 22.174999999999997,
                "end_time": 22.259090909090908,
                "pitch": 35,
                "velocity": 51,
                "duration": 0.08409090909091077,
                "tempo": 120.0
            },
            {
                "start_time": 22.30909090909091,
                "end_time": 22.39090909090909,
                "pitch": 35,
                "velocity": 51,
                "duration": 0.08181818181818201,
                "tempo": 120.0
            },
            {
                "start_time": 22.44090909090909,
                "end_time": 22.525,
                "pitch": 35,
                "velocity": 51,
                "duration": 0.08409090909090722,
                "tempo": 120.0
            },
            {
                "start_time": 22.575,
                "end_time": 22.661363636363635,
                "pitch": 35,
                "velocity": 51,
                "duration": 0.08636363636363598,
                "tempo": 120.0
            },
            {
                "start_time": 22.711363636363636,
                "end_time": 22.797727272727272,
                "pitch": 35,
                "velocity": 51,
                "duration": 0.08636363636363598,
                "tempo": 120.0
            },
            {
                "start_time": 22.847727272727273,
                "end_time": 22.93181818181818,
                "pitch": 35,
                "velocity": 51,
                "duration": 0.08409090909090722,
                "tempo": 120.0
            },
            {
                "start_time": 22.98409090909091,
                "end_time": 23.068181818181817,
                "pitch": 35,
                "velocity": 51,
                "duration": 0.08409090909090722,
                "tempo": 120.0
            },
            {
                "start_time": 23.120454545454546,
                "end_time": 23.875,
                "pitch": 64,
                "velocity": 51,
                "duration": 0.754545454545454,
                "tempo": 120.0
            },
            {
                "start_time": 23.924999999999997,
                "end_time": 24.011363636363637,
                "pitch": 35,
                "velocity": 51,
                "duration": 0.08636363636363953,
                "tempo": 120.0
            },
            {
                "start_time": 24.061363636363634,
                "end_time": 24.14772727272727,
                "pitch": 35,
                "velocity": 51,
                "duration": 0.08636363636363598,
                "tempo": 120.0
            },
            {
                "start_time": 24.19772727272727,
                "end_time": 24.28181818181818,
                "pitch": 35,
                "velocity": 51,
                "duration": 0.08409090909091077,
                "tempo": 120.0
            },
            {
                "start_time": 24.331818181818182,
                "end_time": 24.41590909090909,
                "pitch": 35,
                "velocity": 51,
                "duration": 0.08409090909090722,
                "tempo": 120.0
            },
            {
                "start_time": 24.46590909090909,
                "end_time": 24.547727272727272,
                "pitch": 35,
                "velocity": 51,
                "duration": 0.08181818181818201,
                "tempo": 120.0
            },
            {
                "start_time": 24.597727272727273,
                "end_time": 24.68181818181818,
                "pitch": 35,
                "velocity": 51,
                "duration": 0.08409090909090722,
                "tempo": 120.0
            },
            {
                "start_time": 24.73181818181818,
                "end_time": 24.81590909090909,
                "pitch": 35,
                "velocity": 51,
                "duration": 0.08409090909091077,
                "tempo": 120.0
            },
            {
                "start_time": 24.86590909090909,
                "end_time": 24.95,
                "pitch": 35,
                "velocity": 51,
                "duration": 0.08409090909091077,
                "tempo": 120.0
            },
            {
                "start_time": 25.0,
                "end_time": 25.081818181818182,
                "pitch": 35,
                "velocity": 51,
                "duration": 0.08181818181818201,
                "tempo": 120.0
            },
            {
                "start_time": 25.13181818181818,
                "end_time": 25.21590909090909,
                "pitch": 35,
                "velocity": 51,
                "duration": 0.08409090909091077,
                "tempo": 120.0
            }
        ],
        "Clarinet": [
            {
                "start_time": 3.5045454545454544,
                "end_time": 3.5727272727272728,
                "pitch": 60,
                "velocity": 51,
                "duration": 0.06818181818181834,
                "tempo": 120.0
            },
            {
                "start_time": 3.5727272727272728,
                "end_time": 3.6068181818181815,
                "pitch": 56,
                "velocity": 51,
                "duration": 0.03409090909090873,
                "tempo": 120.0
            },
            {
                "start_time": 3.6068181818181815,
                "end_time": 3.6409090909090907,
                "pitch": 54,
                "velocity": 51,
                "duration": 0.03409090909090917,
                "tempo": 120.0
            },
            {
                "start_time": 3.6409090909090907,
                "end_time": 3.709090909090909,
                "pitch": 60,
                "velocity": 51,
                "duration": 0.06818181818181834,
                "tempo": 120.0
            },
            {
                "start_time": 3.709090909090909,
                "end_time": 3.7409090909090907,
                "pitch": 56,
                "velocity": 51,
                "duration": 0.031818181818181746,
                "tempo": 120.0
            },
            {
                "start_time": 3.7409090909090907,
                "end_time": 3.775,
                "pitch": 54,
                "velocity": 51,
                "duration": 0.03409090909090917,
                "tempo": 120.0
            },
            {
                "start_time": 3.911363636363636,
                "end_time": 4.047727272727273,
                "pitch": 57,
                "velocity": 51,
                "duration": 0.1363636363636367,
                "tempo": 120.0
            },
            {
                "start_time": 7.934090909090909,
                "end_time": 8.070454545454545,
                "pitch": 60,
                "velocity": 51,
                "duration": 0.1363636363636367,
                "tempo": 120.0
            },
            {
                "start_time": 8.202272727272726,
                "end_time": 8.331818181818182,
                "pitch": 57,
                "velocity": 51,
                "duration": 0.12954545454545574,
                "tempo": 120.0
            }
        ],
        "Acoustic Bass": [
            {
                "start_time": 30.527272727272727,
                "end_time": 30.620454545454542,
                "pitch": 64,
                "velocity": 40,
                "duration": 0.09318181818181515,
                "tempo": 120.0
            },
            {
                "start_time": 30.672727272727272,
                "end_time": 30.75681818181818,
                "pitch": 49,
                "velocity": 40,
                "duration": 0.08409090909090722,
                "tempo": 120.0
            },
            {
                "start_time": 30.80681818181818,
                "end_time": 30.89090909090909,
                "pitch": 49,
                "velocity": 40,
                "duration": 0.08409090909091077,
                "tempo": 120.0
            },
            {
                "start_time": 30.940909090909088,
                "end_time": 31.025,
                "pitch": 49,
                "velocity": 40,
                "duration": 0.08409090909091077,
                "tempo": 120.0
            },
            {
                "start_time": 31.075,
                "end_time": 31.15681818181818,
                "pitch": 49,
                "velocity": 40,
                "duration": 0.08181818181818201,
                "tempo": 120.0
            },
            {
                "start_time": 31.209090909090907,
                "end_time": 31.293181818181818,
                "pitch": 49,
                "velocity": 40,
                "duration": 0.08409090909091077,
                "tempo": 120.0
            },
            {
                "start_time": 31.343181818181815,
                "end_time": 31.429545454545455,
                "pitch": 64,
                "velocity": 40,
                "duration": 0.08636363636363953,
                "tempo": 120.0
            },
            {
                "start_time": 31.479545454545452,
                "end_time": 31.565909090909088,
                "pitch": 49,
                "velocity": 40,
                "duration": 0.08636363636363598,
                "tempo": 120.0
            },
            {
                "start_time": 31.61590909090909,
                "end_time": 31.702272727272724,
                "pitch": 49,
                "velocity": 40,
                "duration": 0.08636363636363598,
                "tempo": 120.0
            },
            {
                "start_time": 31.752272727272725,
                "end_time": 31.836363636363636,
                "pitch": 49,
                "velocity": 40,
                "duration": 0.08409090909091077,
                "tempo": 120.0
            },
            {
                "start_time": 31.886363636363633,
                "end_time": 31.968181818181815,
                "pitch": 64,
                "velocity": 40,
                "duration": 0.08181818181818201,
                "tempo": 120.0
            },
            {
                "start_time": 32.018181818181816,
                "end_time": 32.10227272727273,
                "pitch": 49,
                "velocity": 40,
                "duration": 0.08409090909091077,
                "tempo": 120.0
            },
            {
                "start_time": 32.152272727272724,
                "end_time": 32.236363636363635,
                "pitch": 49,
                "velocity": 40,
                "duration": 0.08409090909091077,
                "tempo": 120.0
            },
            {
                "start_time": 32.28636363636363,
                "end_time": 32.37045454545454,
                "pitch": 49,
                "velocity": 40,
                "duration": 0.08409090909091077,
                "tempo": 120.0
            },
            {
                "start_time": 32.42045454545455,
                "end_time": 32.50454545454545,
                "pitch": 49,
                "velocity": 40,
                "duration": 0.08409090909090366,
                "tempo": 120.0
            },
            {
                "start_time": 32.554545454545455,
                "end_time": 32.63636363636363,
                "pitch": 66,
                "velocity": 40,
                "duration": 0.08181818181817846,
                "tempo": 120.0
            },
            {
                "start_time": 32.68636363636364,
                "end_time": 32.77045454545454,
                "pitch": 66,
                "velocity": 40,
                "duration": 0.08409090909090366,
                "tempo": 120.0
            },
            {
                "start_time": 32.820454545454545,
                "end_time": 32.90681818181818,
                "pitch": 50,
                "velocity": 40,
                "duration": 0.08636363636363598,
                "tempo": 120.0
            },
            {
                "start_time": 32.95681818181818,
                "end_time": 33.04090909090909,
                "pitch": 50,
                "velocity": 40,
                "duration": 0.08409090909091077,
                "tempo": 120.0
            },
            {
                "start_time": 33.09318181818182,
                "end_time": 33.17727272727272,
                "pitch": 50,
                "velocity": 40,
                "duration": 0.08409090909090366,
                "tempo": 120.0
            },
            {
                "start_time": 33.22954545454545,
                "end_time": 33.31363636363636,
                "pitch": 50,
                "velocity": 40,
                "duration": 0.08409090909091077,
                "tempo": 120.0
            },
            {
                "start_time": 33.36363636363636,
                "end_time": 33.44772727272727,
                "pitch": 50,
                "velocity": 40,
                "duration": 0.08409090909091077,
                "tempo": 120.0
            },
            {
                "start_time": 33.49772727272727,
                "end_time": 33.58181818181818,
                "pitch": 66,
                "velocity": 40,
                "duration": 0.08409090909091077,
                "tempo": 120.0
            },
            {
                "start_time": 33.63181818181818,
                "end_time": 33.715909090909086,
                "pitch": 50,
                "velocity": 40,
                "duration": 0.08409090909090366,
                "tempo": 120.0
            },
            {
                "start_time": 33.76590909090909,
                "end_time": 33.85,
                "pitch": 50,
                "velocity": 40,
                "duration": 0.08409090909091077,
                "tempo": 120.0
            },
            {
                "start_time": 33.9,
                "end_time": 33.98181818181818,
                "pitch": 50,
                "velocity": 40,
                "duration": 0.08181818181817846,
                "tempo": 120.0
            },
            {
                "start_time": 34.03181818181818,
                "end_time": 34.11590909090909,
                "pitch": 66,
                "velocity": 40,
                "duration": 0.08409090909091077,
                "tempo": 120.0
            },
            {
                "start_time": 34.16590909090909,
                "end_time": 34.25,
                "pitch": 50,
                "velocity": 40,
                "duration": 0.08409090909091077,
                "tempo": 120.0
            },
            {
                "start_time": 34.3,
                "end_time": 34.38409090909091,
                "pitch": 50,
                "velocity": 40,
                "duration": 0.08409090909091077,
                "tempo": 120.0
            },
            {
                "start_time": 34.434090909090905,
                "end_time": 34.518181818181816,
                "pitch": 50,
                "velocity": 40,
                "duration": 0.08409090909091077,
                "tempo": 120.0
            },
            {
                "start_time": 34.570454545454545,
                "end_time": 34.654545454545456,
                "pitch": 50,
                "velocity": 40,
                "duration": 0.08409090909091077,
                "tempo": 120.0
            },
            {
                "start_time": 34.70454545454545,
                "end_time": 34.79090909090909,
                "pitch": 63,
                "velocity": 40,
                "duration": 0.08636363636363598,
                "tempo": 120.0
            },
            {
                "start_time": 34.840909090909086,
                "end_time": 34.92727272727272,
                "pitch": 63,
                "velocity": 40,
                "duration": 0.08636363636363598,
                "tempo": 120.0
            },
            {
                "start_time": 34.97727272727273,
                "end_time": 35.06136363636364,
                "pitch": 47,
                "velocity": 40,
                "duration": 0.08409090909091077,
                "tempo": 120.0
            },
            {
                "start_time": 35.111363636363635,
                "end_time": 35.195454545454545,
                "pitch": 47,
                "velocity": 40,
                "duration": 0.08409090909091077,
                "tempo": 120.0
            },
            {
                "start_time": 35.24545454545454,
                "end_time": 35.32727272727273,
                "pitch": 47,
                "velocity": 40,
                "duration": 0.08181818181818556,
                "tempo": 120.0
            },
            {
                "start_time": 35.377272727272725,
                "end_time": 35.461363636363636,
                "pitch": 47,
                "velocity": 40,
                "duration": 0.08409090909091077,
                "tempo": 120.0
            },
            {
                "start_time": 35.51136363636363,
                "end_time": 35.595454545454544,
                "pitch": 47,
                "velocity": 40,
                "duration": 0.08409090909091077,
                "tempo": 120.0
            },
            {
                "start_time": 35.64545454545454,
                "end_time": 35.72954545454545,
                "pitch": 63,
                "velocity": 40,
                "duration": 0.08409090909091077,
                "tempo": 120.0
            },
            {
                "start_time": 35.779545454545456,
                "end_time": 35.861363636363635,
                "pitch": 47,
                "velocity": 40,
                "duration": 0.08181818181817846,
                "tempo": 120.0
            },
            {
                "start_time": 35.913636363636364,
                "end_time": 35.99545454545454,
                "pitch": 47,
                "velocity": 40,
                "duration": 0.08181818181817846,
                "tempo": 120.0
            },
            {
                "start_time": 36.04545454545455,
                "end_time": 36.13181818181818,
                "pitch": 47,
                "velocity": 40,
                "duration": 0.08636363636363598,
                "tempo": 120.0
            },
            {
                "start_time": 36.18181818181818,
                "end_time": 36.268181818181816,
                "pitch": 63,
                "velocity": 40,
                "duration": 0.08636363636363598,
                "tempo": 120.0
            },
            {
                "start_time": 36.31818181818181,
                "end_time": 36.402272727272724,
                "pitch": 47,
                "velocity": 40,
                "duration": 0.08409090909091077,
                "tempo": 120.0
            },
            {
                "start_time": 36.45454545454545,
                "end_time": 36.538636363636364,
                "pitch": 47,
                "velocity": 40,
                "duration": 0.08409090909091077,
                "tempo": 120.0
            },
            {
                "start_time": 36.590909090909086,
                "end_time": 36.67272727272727,
                "pitch": 47,
                "velocity": 40,
                "duration": 0.08181818181818556,
                "tempo": 120.0
            },
            {
                "start_time": 36.72272727272727,
                "end_time": 36.80681818181818,
                "pitch": 47,
                "velocity": 40,
                "duration": 0.08409090909091077,
                "tempo": 120.0
            },
            {
                "start_time": 36.85681818181818,
                "end_time": 36.94090909090909,
                "pitch": 61,
                "velocity": 40,
                "duration": 0.08409090909091077,
                "tempo": 120.0
            },
            {
                "start_time": 36.99090909090909,
                "end_time": 37.074999999999996,
                "pitch": 61,
                "velocity": 40,
                "duration": 0.08409090909090366,
                "tempo": 120.0
            },
            {
                "start_time": 37.125,
                "end_time": 37.20909090909091,
                "pitch": 45,
                "velocity": 40,
                "duration": 0.08409090909091077,
                "tempo": 120.0
            },
            {
                "start_time": 37.25909090909091,
                "end_time": 37.340909090909086,
                "pitch": 45,
                "velocity": 40,
                "duration": 0.08181818181817846,
                "tempo": 120.0
            },
            {
                "start_time": 37.39090909090909,
                "end_time": 37.475,
                "pitch": 45,
                "velocity": 40,
                "duration": 0.08409090909091077,
                "tempo": 120.0
            },
            {
                "start_time": 37.525,
                "end_time": 37.60909090909091,
                "pitch": 45,
                "velocity": 40,
                "duration": 0.08409090909091077,
                "tempo": 120.0
            },
            {
                "start_time": 37.65909090909091,
                "end_time": 37.74318181818182,
                "pitch": 45,
                "velocity": 40,
                "duration": 0.08409090909091077,
                "tempo": 120.0
            },
            {
                "start_time": 37.79545454545455,
                "end_time": 38.01590909090909,
                "pitch": 44,
                "velocity": 40,
                "duration": 0.2204545454545439,
                "tempo": 120.0
            },
            {
                "start_time": 38.06818181818181,
                "end_time": 38.152272727272724,
                "pitch": 44,
                "velocity": 40,
                "duration": 0.08409090909091077,
                "tempo": 120.0
            },
            {
                "start_time": 38.20227272727273,
                "end_time": 38.28636363636363,
                "pitch": 45,
                "velocity": 40,
                "duration": 0.08409090909090366,
                "tempo": 120.0
            },
            {
                "start_time": 38.336363636363636,
                "end_time": 38.42045454545455,
                "pitch": 47,
                "velocity": 40,
                "duration": 0.08409090909091077,
                "tempo": 120.0
            },
            {
                "start_time": 38.470454545454544,
                "end_time": 38.554545454545455,
                "pitch": 54,
                "velocity": 40,
                "duration": 0.08409090909091077,
                "tempo": 120.0
            },
            {
                "start_time": 38.60454545454545,
                "end_time": 38.68636363636364,
                "pitch": 52,
                "velocity": 40,
                "duration": 0.08181818181818556,
                "tempo": 120.0
            },
            {
                "start_time": 38.736363636363635,
                "end_time": 38.820454545454545,
                "pitch": 51,
                "velocity": 40,
                "duration": 0.08409090909091077,
                "tempo": 120.0
            },
            {
                "start_time": 38.87045454545454,
                "end_time": 38.95454545454545,
                "pitch": 47,
                "velocity": 40,
                "duration": 0.08409090909091077,
                "tempo": 120.0
            },
            {
                "start_time": 39.00454545454545,
                "end_time": 39.08863636363636,
                "pitch": 64,
                "velocity": 40,
                "duration": 0.08409090909091077,
                "tempo": 120.0
            },
            {
                "start_time": 39.13863636363636,
                "end_time": 39.220454545454544,
                "pitch": 64,
                "velocity": 40,
                "duration": 0.08181818181818556,
                "tempo": 120.0
            },
            {
                "start_time": 39.27272727272727,
                "end_time": 39.35681818181818,
                "pitch": 49,
                "velocity": 40,
                "duration": 0.08409090909090366,
                "tempo": 120.0
            },
            {
                "start_time": 39.40681818181818,
                "end_time": 39.49318181818182,
                "pitch": 49,
                "velocity": 40,
                "duration": 0.08636363636363598,
                "tempo": 120.0
            },
            {
                "start_time": 39.543181818181814,
                "end_time": 39.62954545454545,
                "pitch": 49,
                "velocity": 40,
                "duration": 0.08636363636363598,
                "tempo": 120.0
            },
            {
                "start_time": 39.679545454545455,
                "end_time": 39.76363636363636,
                "pitch": 49,
                "velocity": 40,
                "duration": 0.08409090909090366,
                "tempo": 120.0
            },
            {
                "start_time": 39.81590909090909,
                "end_time": 39.9,
                "pitch": 49,
                "velocity": 40,
                "duration": 0.08409090909091077,
                "tempo": 120.0
            },
            {
                "start_time": 39.949999999999996,
                "end_time": 40.03181818181818,
                "pitch": 64,
                "velocity": 40,
                "duration": 0.08181818181818556,
                "tempo": 120.0
            },
            {
                "start_time": 40.08181818181818,
                "end_time": 40.16590909090909,
                "pitch": 49,
                "velocity": 40,
                "duration": 0.08409090909091077,
                "tempo": 120.0
            },
            {
                "start_time": 40.215909090909086,
                "end_time": 40.3,
                "pitch": 49,
                "velocity": 40,
                "duration": 0.08409090909091077,
                "tempo": 120.0
            },
            {
                "start_time": 40.35,
                "end_time": 40.434090909090905,
                "pitch": 49,
                "velocity": 40,
                "duration": 0.08409090909090366,
                "tempo": 120.0
            },
            {
                "start_time": 40.48409090909091,
                "end_time": 40.56590909090909,
                "pitch": 64,
                "velocity": 40,
                "duration": 0.08181818181817846,
                "tempo": 120.0
            },
            {
                "start_time": 40.61818181818182,
                "end_time": 40.699999999999996,
                "pitch": 49,
                "velocity": 40,
                "duration": 0.08181818181817846,
                "tempo": 120.0
            },
            {
                "start_time": 40.75,
                "end_time": 40.834090909090904,
                "pitch": 49,
                "velocity": 40,
                "duration": 0.08409090909090366,
                "tempo": 120.0
            },
            {
                "start_time": 40.88409090909091,
                "end_time": 40.970454545454544,
                "pitch": 49,
                "velocity": 40,
                "duration": 0.08636363636363598,
                "tempo": 120.0
            },
            {
                "start_time": 41.02045454545454,
                "end_time": 41.10454545454545,
                "pitch": 49,
                "velocity": 40,
                "duration": 0.08409090909091077,
                "tempo": 120.0
            },
            {
                "start_time": 41.15681818181818,
                "end_time": 41.24090909090909,
                "pitch": 66,
                "velocity": 40,
                "duration": 0.08409090909091077,
                "tempo": 120.0
            },
            {
                "start_time": 41.293181818181814,
                "end_time": 41.377272727272725,
                "pitch": 66,
                "velocity": 40,
                "duration": 0.08409090909091077,
                "tempo": 120.0
            },
            {
                "start_time": 41.42727272727272,
                "end_time": 41.51136363636363,
                "pitch": 50,
                "velocity": 40,
                "duration": 0.08409090909091077,
                "tempo": 120.0
            },
            {
                "start_time": 41.56136363636364,
                "end_time": 41.64545454545454,
                "pitch": 50,
                "velocity": 40,
                "duration": 0.08409090909090366,
                "tempo": 120.0
            },
            {
                "start_time": 41.695454545454545,
                "end_time": 41.77954545454545,
                "pitch": 50,
                "velocity": 40,
                "duration": 0.08409090909090366,
                "tempo": 120.0
            },
            {
                "start_time": 41.82954545454545,
                "end_time": 41.913636363636364,
                "pitch": 50,
                "velocity": 40,
                "duration": 0.08409090909091077,
                "tempo": 120.0
            },
            {
                "start_time": 41.96363636363636,
                "end_time": 42.04545454545455,
                "pitch": 50,
                "velocity": 40,
                "duration": 0.08181818181818556,
                "tempo": 120.0
            },
            {
                "start_time": 42.095454545454544,
                "end_time": 42.179545454545455,
                "pitch": 66,
                "velocity": 40,
                "duration": 0.08409090909091077,
                "tempo": 120.0
            },
            {
                "start_time": 42.22954545454545,
                "end_time": 42.31363636363636,
                "pitch": 50,
                "velocity": 40,
                "duration": 0.08409090909091077,
                "tempo": 120.0
            },
            {
                "start_time": 42.36363636363636,
                "end_time": 42.44772727272727,
                "pitch": 50,
                "velocity": 40,
                "duration": 0.08409090909091077,
                "tempo": 120.0
            },
            {
                "start_time": 42.49772727272727,
                "end_time": 42.58181818181818,
                "pitch": 50,
                "velocity": 40,
                "duration": 0.08409090909091077,
                "tempo": 120.0
            },
            {
                "start_time": 42.63409090909091,
                "end_time": 42.71818181818182,
                "pitch": 66,
                "velocity": 40,
                "duration": 0.08409090909091077,
                "tempo": 120.0
            },
            {
                "start_time": 42.768181818181816,
                "end_time": 42.85454545454545,
                "pitch": 50,
                "velocity": 40,
                "duration": 0.08636363636363598,
                "tempo": 120.0
            },
            {
                "start_time": 42.90454545454545,
                "end_time": 42.99090909090909,
                "pitch": 50,
                "velocity": 40,
                "duration": 0.08636363636364308,
                "tempo": 120.0
            },
            {
                "start_time": 43.04090909090909,
                "end_time": 43.125,
                "pitch": 50,
                "velocity": 40,
                "duration": 0.08409090909091077,
                "tempo": 120.0
            },
            {
                "start_time": 43.175,
                "end_time": 43.25909090909091,
                "pitch": 50,
                "velocity": 40,
                "duration": 0.08409090909091077,
                "tempo": 120.0
            },
            {
                "start_time": 43.309090909090905,
                "end_time": 43.39090909090909,
                "pitch": 63,
                "velocity": 40,
                "duration": 0.08181818181818556,
                "tempo": 120.0
            },
            {
                "start_time": 43.44090909090909,
                "end_time": 43.525,
                "pitch": 63,
                "velocity": 40,
                "duration": 0.08409090909091077,
                "tempo": 120.0
            },
            {
                "start_time": 43.574999999999996,
                "end_time": 43.65909090909091,
                "pitch": 47,
                "velocity": 40,
                "duration": 0.08409090909091077,
                "tempo": 120.0
            },
            {
                "start_time": 43.709090909090904,
                "end_time": 43.793181818181814,
                "pitch": 47,
                "velocity": 40,
                "duration": 0.08409090909091077,
                "tempo": 120.0
            },
            {
                "start_time": 43.84318181818182,
                "end_time": 43.925,
                "pitch": 47,
                "velocity": 40,
                "duration": 0.08181818181817846,
                "tempo": 120.0
            },
            {
                "start_time": 43.974999999999994,
                "end_time": 44.059090909090905,
                "pitch": 47,
                "velocity": 40,
                "duration": 0.08409090909091077,
                "tempo": 120.0
            },
            {
                "start_time": 44.10909090909091,
                "end_time": 44.195454545454545,
                "pitch": 47,
                "velocity": 40,
                "duration": 0.08636363636363598,
                "tempo": 120.0
            },
            {
                "start_time": 44.24545454545454,
                "end_time": 44.33181818181818,
                "pitch": 63,
                "velocity": 40,
                "duration": 0.08636363636363598,
                "tempo": 120.0
            },
            {
                "start_time": 44.38181818181818,
                "end_time": 44.465909090909086,
                "pitch": 47,
                "velocity": 40,
                "duration": 0.08409090909090366,
                "tempo": 120.0
            },
            {
                "start_time": 44.518181818181816,
                "end_time": 44.60227272727273,
                "pitch": 47,
                "velocity": 40,
                "duration": 0.08409090909091077,
                "tempo": 120.0
            },
            {
                "start_time": 44.65454545454545,
                "end_time": 44.736363636363635,
                "pitch": 47,
                "velocity": 40,
                "duration": 0.08181818181818556,
                "tempo": 120.0
            },
            {
                "start_time": 44.78636363636363,
                "end_time": 44.87045454545454,
                "pitch": 63,
                "velocity": 40,
                "duration": 0.08409090909091077,
                "tempo": 120.0
            },
            {
                "start_time": 44.92045454545455,
                "end_time": 45.00454545454545,
                "pitch": 47,
                "velocity": 40,
                "duration": 0.08409090909090366,
                "tempo": 120.0
            },
            {
                "start_time": 45.054545454545455,
                "end_time": 45.13863636363636,
                "pitch": 47,
                "velocity": 40,
                "duration": 0.08409090909090366,
                "tempo": 120.0
            },
            {
                "start_time": 45.18863636363636,
                "end_time": 45.27045454545454,
                "pitch": 47,
                "velocity": 40,
                "duration": 0.08181818181817846,
                "tempo": 120.0
            },
            {
                "start_time": 45.32272727272727,
                "end_time": 45.40454545454545,
                "pitch": 47,
                "velocity": 40,
                "duration": 0.08181818181817846,
                "tempo": 120.0
            },
            {
                "start_time": 45.45454545454545,
                "end_time": 45.538636363636364,
                "pitch": 61,
                "velocity": 40,
                "duration": 0.08409090909091077,
                "tempo": 120.0
            },
            {
                "start_time": 45.58863636363636,
                "end_time": 45.67272727272727,
                "pitch": 61,
                "velocity": 40,
                "duration": 0.08409090909091077,
                "tempo": 120.0
            },
            {
                "start_time": 45.72272727272727,
                "end_time": 45.81136363636364,
                "pitch": 45,
                "velocity": 40,
                "duration": 0.08863636363636829,
                "tempo": 120.0
            },
            {
                "start_time": 45.86590909090909,
                "end_time": 45.95681818181818,
                "pitch": 45,
                "velocity": 40,
                "duration": 0.09090909090908639,
                "tempo": 120.0
            },
            {
                "start_time": 46.01363636363636,
                "end_time": 46.10454545454545,
                "pitch": 45,
                "velocity": 40,
                "duration": 0.09090909090909349,
                "tempo": 120.0
            },
            {
                "start_time": 46.15909090909091,
                "end_time": 46.25,
                "pitch": 45,
                "velocity": 40,
                "duration": 0.09090909090909349,
                "tempo": 120.0
            },
            {
                "start_time": 46.30681818181818,
                "end_time": 46.39772727272727,
                "pitch": 45,
                "velocity": 40,
                "duration": 0.09090909090909349,
                "tempo": 120.0
            },
            {
                "start_time": 46.45454545454545,
                "end_time": 46.70454545454545,
                "pitch": 44,
                "velocity": 40,
                "duration": 0.25,
                "tempo": 120.0
            },
            {
                "start_time": 46.76136363636363,
                "end_time": 46.85909090909091,
                "pitch": 44,
                "velocity": 40,
                "duration": 0.09772727272727622,
                "tempo": 120.0
            },
            {
                "start_time": 46.91590909090909,
                "end_time": 47.01136363636363,
                "pitch": 45,
                "velocity": 40,
                "duration": 0.0954545454545439,
                "tempo": 120.0
            },
            {
                "start_time": 47.06818181818181,
                "end_time": 47.152272727272724,
                "pitch": 47,
                "velocity": 40,
                "duration": 0.08409090909091077,
                "tempo": 120.0
            },
            {
                "start_time": 47.20227272727273,
                "end_time": 47.288636363636364,
                "pitch": 54,
                "velocity": 40,
                "duration": 0.08636363636363598,
                "tempo": 120.0
            },
            {
                "start_time": 47.33863636363636,
                "end_time": 47.425,
                "pitch": 52,
                "velocity": 40,
                "duration": 0.08636363636363598,
                "tempo": 120.0
            },
            {
                "start_time": 47.474999999999994,
                "end_time": 47.56136363636364,
                "pitch": 51,
                "velocity": 40,
                "duration": 0.08636363636364308,
                "tempo": 120.0
            },
            {
                "start_time": 47.611363636363635,
                "end_time": 48.64772727272727,
                "pitch": 57,
                "velocity": 40,
                "duration": 1.0363636363636388,
                "tempo": 120.0
            }
        ]
    }
}