{
    "track_id": "After Burner (FM) - 04 - Super Stripe",
    "mood": "happy",
    "instruments": {
        "Electric Guitar (clean)": [
            {
                "start_time": 1.7409090909090907,
                "end_time": 1.8272727272727272,
                "pitch": 36,
                "velocity": 40,
                "duration": 0.08636363636363642,
                "tempo": 120.0
            },
            {
                "start_time": 1.8454545454545455,
                "end_time": 2.0727272727272728,
                "pitch": 36,
                "velocity": 40,
                "duration": 0.2272727272727273,
                "tempo": 120.0
            },
            {
                "start_time": 2.0886363636363634,
                "end_time": 2.1772727272727272,
                "pitch": 36,
                "velocity": 40,
                "duration": 0.08863636363636385,
                "tempo": 120.0
            },
            {
                "start_time": 2.193181818181818,
                "end_time": 2.411363636363636,
                "pitch": 36,
                "velocity": 40,
                "duration": 0.21818181818181825,
                "tempo": 120.0
            },
            {
                "start_time": 2.4272727272727272,
                "end_time": 2.5113636363636362,
                "pitch": 46,
                "velocity": 40,
                "duration": 0.084090909090909,
                "tempo": 120.0
            },
            {
                "start_time": 2.5272727272727273,
                "end_time": 2.6113636363636363,
                "pitch": 48,
                "velocity": 40,
                "duration": 0.084090909090909,
                "tempo": 120.0
            },
            {
                "start_time": 2.627272727272727,
                "end_time": 2.745454545454545,
                "pitch": 36,
                "velocity": 40,
                "duration": 0.11818181818181817,
                "tempo": 120.0
            },
            {
                "start_time": 2.7613636363636362,
                "end_time": 2.9454545454545453,
                "pitch": 36,
                "velocity": 40,
                "duration": 0.18409090909090908,
                "tempo": 120.0
            },
            {
                "start_time": 2.9636363636363634,
                "end_time": 3.0795454545454546,
                "pitch": 36,
                "velocity": 40,
                "duration": 0.11590909090909118,
                "tempo": 120.0
            },
            {
                "start_time": 3.0977272727272727,
                "end_time": 3.2886363636363636,
                "pitch": 36,
                "velocity": 40,
                "duration": 0.19090909090909092,
                "tempo": 120.0
            },
            {
                "start_time": 3.3068181818181817,
                "end_time": 3.4295454545454542,
                "pitch": 48,
                "velocity": 40,
                "duration": 0.12272727272727257,
                "tempo": 120.0
            },
            {
                "start_time": 3.4477272727272728,
                "end_time": 3.5340909090909087,
                "pitch": 50,
                "velocity": 40,
                "duration": 0.08636363636363598,
                "tempo": 120.0
            },
            {
                "start_time": 3.5522727272727272,
                "end_time": 3.634090909090909,
                "pitch": 36,
                "velocity": 40,
                "duration": 0.08181818181818157,
                "tempo": 120.0
            },
            {
                "start_time": 3.652272727272727,
                "end_time": 3.868181818181818,
                "pitch": 36,
                "velocity": 40,
                "duration": 0.21590909090909127,
                "tempo": 120.0
            },
            {
                "start_time": 3.8863636363636362,
                "end_time": 3.968181818181818,
                "pitch": 36,
                "velocity": 40,
                "duration": 0.08181818181818157,
                "tempo": 120.0
            },
            {
                "start_time": 3.9863636363636363,
                "end_time": 4.197727272727272,
                "pitch": 36,
                "velocity": 40,
                "duration": 0.21136363636363598,
                "tempo": 120.0
            },
            {
                "start_time": 4.213636363636364,
                "end_time": 4.295454545454545,
                "pitch": 46,
                "velocity": 40,
                "duration": 0.08181818181818112,
                "tempo": 120.0
            },
            {
                "start_time": 4.3136363636363635,
                "end_time": 4.427272727272727,
                "pitch": 48,
                "velocity": 40,
                "duration": 0.11363636363636331,
                "tempo": 120.0
            },
            {
                "start_time": 4.445454545454545,
                "end_time": 4.531818181818181,
                "pitch": 36,
                "velocity": 40,
                "duration": 0.08636363636363598,
                "tempo": 120.0
            },
            {
                "start_time": 4.55,
                "end_time": 4.636363636363636,
                "pitch": 53,
                "velocity": 40,
                "duration": 0.08636363636363598,
                "tempo": 120.0
            },
            {
                "start_time": 4.654545454545454,
                "end_time": 4.777272727272727,
                "pitch": 51,
                "velocity": 40,
                "duration": 0.12272727272727302,
                "tempo": 120.0
            },
            {
                "start_time": 4.795454545454545,
                "end_time": 4.881818181818182,
                "pitch": 49,
                "velocity": 40,
                "duration": 0.08636363636363686,
                "tempo": 120.0
            },
            {
                "start_time": 4.8977272727272725,
                "end_time": 4.9818181818181815,
                "pitch": 51,
                "velocity": 40,
                "duration": 0.084090909090909,
                "tempo": 120.0
            },
            {
                "start_time": 5.0,
                "end_time": 5.11590909090909,
                "pitch": 50,
                "velocity": 40,
                "duration": 0.1159090909090903,
                "tempo": 120.0
            },
            {
                "start_time": 5.131818181818182,
                "end_time": 5.215909090909091,
                "pitch": 48,
                "velocity": 40,
                "duration": 0.084090909090909,
                "tempo": 120.0
            },
            {
                "start_time": 5.2340909090909085,
                "end_time": 5.3159090909090905,
                "pitch": 46,
                "velocity": 40,
                "duration": 0.08181818181818201,
                "tempo": 120.0
            },
            {
                "start_time": 5.334090909090909,
                "end_time": 5.447727272727272,
                "pitch": 36,
                "velocity": 40,
                "duration": 0.11363636363636331,
                "tempo": 120.0
            },
            {
                "start_time": 5.463636363636363,
                "end_time": 5.643181818181818,
                "pitch": 36,
                "velocity": 40,
                "duration": 0.17954545454545467,
                "tempo": 120.0
            },
            {
                "start_time": 5.659090909090909,
                "end_time": 5.7749999999999995,
                "pitch": 36,
                "velocity": 40,
                "duration": 0.1159090909090903,
                "tempo": 120.0
            },
            {
                "start_time": 5.793181818181818,
                "end_time": 5.988636363636363,
                "pitch": 36,
                "velocity": 40,
                "duration": 0.19545454545454533,
                "tempo": 120.0
            },
            {
                "start_time": 6.006818181818182,
                "end_time": 6.131818181818182,
                "pitch": 46,
                "velocity": 40,
                "duration": 0.125,
                "tempo": 120.0
            },
            {
                "start_time": 6.1499999999999995,
                "end_time": 6.238636363636363,
                "pitch": 48,
                "velocity": 40,
                "duration": 0.08863636363636385,
                "tempo": 120.0
            },
            {
                "start_time": 6.256818181818182,
                "end_time": 6.338636363636363,
                "pitch": 36,
                "velocity": 40,
                "duration": 0.08181818181818112,
                "tempo": 120.0
            },
            {
                "start_time": 6.3545454545454545,
                "end_time": 6.5659090909090905,
                "pitch": 36,
                "velocity": 40,
                "duration": 0.21136363636363598,
                "tempo": 120.0
            },
            {
                "start_time": 6.584090909090909,
                "end_time": 6.665909090909091,
                "pitch": 36,
                "velocity": 40,
                "duration": 0.08181818181818201,
                "tempo": 120.0
            },
            {
                "start_time": 6.681818181818182,
                "end_time": 6.8977272727272725,
                "pitch": 36,
                "velocity": 40,
                "duration": 0.21590909090909083,
                "tempo": 120.0
            },
            {
                "start_time": 6.915909090909091,
                "end_time": 7.0,
                "pitch": 46,
                "velocity": 40,
                "duration": 0.084090909090909,
                "tempo": 120.0
            },
            {
                "start_time": 7.015909090909091,
                "end_time": 7.131818181818182,
                "pitch": 48,
                "velocity": 40,
                "duration": 0.11590909090909118,
                "tempo": 120.0
            },
            {
                "start_time": 7.1499999999999995,
                "end_time": 7.238636363636363,
                "pitch": 36,
                "velocity": 40,
                "duration": 0.08863636363636385,
                "tempo": 120.0
            },
            {
                "start_time": 7.254545454545454,
                "end_time": 7.4818181818181815,
                "pitch": 36,
                "velocity": 40,
                "duration": 0.22727272727272751,
                "tempo": 120.0
            },
            {
                "start_time": 7.5,
                "end_time": 7.586363636363636,
                "pitch": 36,
                "velocity": 40,
                "duration": 0.08636363636363598,
                "tempo": 120.0
            },
            {
                "start_time": 7.6045454545454545,
                "end_time": 7.6886363636363635,
                "pitch": 36,
                "velocity": 40,
                "duration": 0.084090909090909,
                "tempo": 120.0
            },
            {
                "start_time": 7.704545454545454,
                "end_time": 7.822727272727272,
                "pitch": 36,
                "velocity": 40,
                "duration": 0.11818181818181817,
                "tempo": 120.0
            },
            {
                "start_time": 7.838636363636363,
                "end_time": 7.922727272727272,
                "pitch": 46,
                "velocity": 40,
                "duration": 0.084090909090909,
                "tempo": 120.0
            },
            {
                "start_time": 7.9386363636363635,
                "end_time": 8.022727272727272,
                "pitch": 48,
                "velocity": 40,
                "duration": 0.0840909090909081,
                "tempo": 120.0
            },
            {
                "start_time": 8.038636363636364,
                "end_time": 8.156818181818181,
                "pitch": 36,
                "velocity": 40,
                "duration": 0.11818181818181728,
                "tempo": 120.0
            },
            {
                "start_time": 8.172727272727272,
                "end_time": 8.256818181818181,
                "pitch": 46,
                "velocity": 40,
                "duration": 0.084090909090909,
                "tempo": 120.0
            },
            {
                "start_time": 8.272727272727272,
                "end_time": 8.35681818181818,
                "pitch": 43,
                "velocity": 40,
                "duration": 0.084090909090909,
                "tempo": 120.0
            },
            {
                "start_time": 8.372727272727273,
                "end_time": 8.49090909090909,
                "pitch": 46,
                "velocity": 40,
                "duration": 0.11818181818181728,
                "tempo": 120.0
            },
            {
                "start_time": 8.506818181818181,
                "end_time": 8.595454545454546,
                "pitch": 43,
                "velocity": 40,
                "duration": 0.08863636363636473,
                "tempo": 120.0
            },
            {
                "start_time": 8.611363636363636,
                "end_time": 8.7,
                "pitch": 41,
                "velocity": 40,
                "duration": 0.08863636363636296,
                "tempo": 120.0
            },
            {
                "start_time": 8.718181818181817,
                "end_time": 8.838636363636363,
                "pitch": 43,
                "velocity": 40,
                "duration": 0.12045454545454604,
                "tempo": 120.0
            },
            {
                "start_time": 8.85681818181818,
                "end_time": 8.945454545454545,
                "pitch": 41,
                "velocity": 40,
                "duration": 0.08863636363636473,
                "tempo": 120.0
            },
            {
                "start_time": 8.961363636363636,
                "end_time": 9.043181818181818,
                "pitch": 36,
                "velocity": 40,
                "duration": 0.08181818181818201,
                "tempo": 120.0
            },
            {
                "start_time": 9.059090909090909,
                "end_time": 9.272727272727272,
                "pitch": 36,
                "velocity": 40,
                "duration": 0.21363636363636296,
                "tempo": 120.0
            },
            {
                "start_time": 9.288636363636364,
                "end_time": 9.370454545454544,
                "pitch": 36,
                "velocity": 40,
                "duration": 0.08181818181818024,
                "tempo": 120.0
            },
            {
                "start_time": 9.386363636363637,
                "end_time": 9.6,
                "pitch": 36,
                "velocity": 40,
                "duration": 0.21363636363636296,
                "tempo": 120.0
            },
            {
                "start_time": 9.61590909090909,
                "end_time": 9.697727272727272,
                "pitch": 46,
                "velocity": 40,
                "duration": 0.08181818181818201,
                "tempo": 120.0
            },
            {
                "start_time": 9.713636363636363,
                "end_time": 9.827272727272726,
                "pitch": 48,
                "velocity": 40,
                "duration": 0.11363636363636331,
                "tempo": 120.0
            },
            {
                "start_time": 9.845454545454546,
                "end_time": 9.934090909090909,
                "pitch": 36,
                "velocity": 40,
                "duration": 0.08863636363636296,
                "tempo": 120.0
            },
            {
                "start_time": 9.95,
                "end_time": 10.177272727272726,
                "pitch": 36,
                "velocity": 40,
                "duration": 0.22727272727272663,
                "tempo": 120.0
            },
            {
                "start_time": 10.195454545454545,
                "end_time": 10.284090909090908,
                "pitch": 36,
                "velocity": 40,
                "duration": 0.08863636363636296,
                "tempo": 120.0
            },
            {
                "start_time": 10.299999999999999,
                "end_time": 10.51590909090909,
                "pitch": 36,
                "velocity": 40,
                "duration": 0.21590909090909172,
                "tempo": 120.0
            },
            {
                "start_time": 10.534090909090908,
                "end_time": 10.618181818181817,
                "pitch": 48,
                "velocity": 40,
                "duration": 0.084090909090909,
                "tempo": 120.0
            },
            {
                "start_time": 10.634090909090908,
                "end_time": 10.718181818181817,
                "pitch": 50,
                "velocity": 40,
                "duration": 0.084090909090909,
                "tempo": 120.0
            },
            {
                "start_time": 10.73409090909091,
                "end_time": 10.852272727272727,
                "pitch": 36,
                "velocity": 40,
                "duration": 0.11818181818181728,
                "tempo": 120.0
            },
            {
                "start_time": 10.868181818181817,
                "end_time": 11.052272727272726,
                "pitch": 36,
                "velocity": 40,
                "duration": 0.18409090909090864,
                "tempo": 120.0
            },
            {
                "start_time": 11.068181818181818,
                "end_time": 11.186363636363636,
                "pitch": 36,
                "velocity": 40,
                "duration": 0.11818181818181728,
                "tempo": 120.0
            },
            {
                "start_time": 11.202272727272726,
                "end_time": 11.395454545454545,
                "pitch": 36,
                "velocity": 40,
                "duration": 0.19318181818181834,
                "tempo": 120.0
            },
            {
                "start_time": 11.413636363636362,
                "end_time": 11.536363636363635,
                "pitch": 46,
                "velocity": 40,
                "duration": 0.12272727272727302,
                "tempo": 120.0
            },
            {
                "start_time": 11.552272727272726,
                "end_time": 11.64090909090909,
                "pitch": 48,
                "velocity": 40,
                "duration": 0.08863636363636473,
                "tempo": 120.0
            },
            {
                "start_time": 11.656818181818181,
                "end_time": 11.74090909090909,
                "pitch": 36,
                "velocity": 40,
                "duration": 0.084090909090909,
                "tempo": 120.0
            },
            {
                "start_time": 11.756818181818181,
                "end_time": 11.875,
                "pitch": 53,
                "velocity": 40,
                "duration": 0.11818181818181905,
                "tempo": 120.0
            },
            {
                "start_time": 11.89090909090909,
                "end_time": 11.975,
                "pitch": 51,
                "velocity": 40,
                "duration": 0.084090909090909,
                "tempo": 120.0
            },
            {
                "start_time": 11.99090909090909,
                "end_time": 12.075,
                "pitch": 49,
                "velocity": 40,
                "duration": 0.084090909090909,
                "tempo": 120.0
            },
            {
                "start_time": 12.09090909090909,
                "end_time": 12.206818181818182,
                "pitch": 51,
                "velocity": 40,
                "duration": 0.11590909090909207,
                "tempo": 120.0
            },
            {
                "start_time": 12.222727272727273,
                "end_time": 12.304545454545455,
                "pitch": 50,
                "velocity": 40,
                "duration": 0.08181818181818201,
                "tempo": 120.0
            },
            {
                "start_time": 12.320454545454545,
                "end_time": 12.402272727272727,
                "pitch": 48,
                "velocity": 40,
                "duration": 0.08181818181818201,
                "tempo": 120.0
            },
            {
                "start_time": 12.418181818181818,
                "end_time": 12.534090909090908,
                "pitch": 46,
                "velocity": 40,
                "duration": 0.1159090909090903,
                "tempo": 120.0
            },
            {
                "start_time": 12.549999999999999,
                "end_time": 12.638636363636364,
                "pitch": 36,
                "velocity": 40,
                "duration": 0.08863636363636473,
                "tempo": 120.0
            },
            {
                "start_time": 12.656818181818181,
                "end_time": 12.884090909090908,
                "pitch": 36,
                "velocity": 40,
                "duration": 0.22727272727272663,
                "tempo": 120.0
            },
            {
                "start_time": 12.899999999999999,
                "end_time": 12.988636363636363,
                "pitch": 36,
                "velocity": 40,
                "duration": 0.08863636363636473,
                "tempo": 120.0
            },
            {
                "start_time": 13.004545454545454,
                "end_time": 13.222727272727273,
                "pitch": 36,
                "velocity": 40,
                "duration": 0.2181818181818187,
                "tempo": 120.0
            },
            {
                "start_time": 13.238636363636363,
                "end_time": 13.322727272727272,
                "pitch": 46,
                "velocity": 40,
                "duration": 0.084090909090909,
                "tempo": 120.0
            },
            {
                "start_time": 13.338636363636363,
                "end_time": 13.422727272727272,
                "pitch": 48,
                "velocity": 40,
                "duration": 0.084090909090909,
                "tempo": 120.0
            },
            {
                "start_time": 13.438636363636363,
                "end_time": 13.556818181818182,
                "pitch": 36,
                "velocity": 40,
                "duration": 0.11818181818181905,
                "tempo": 120.0
            },
            {
                "start_time": 13.572727272727272,
                "end_time": 13.756818181818181,
                "pitch": 36,
                "velocity": 40,
                "duration": 0.18409090909090864,
                "tempo": 120.0
            },
            {
                "start_time": 13.772727272727272,
                "end_time": 13.89090909090909,
                "pitch": 36,
                "velocity": 40,
                "duration": 0.11818181818181905,
                "tempo": 120.0
            },
            {
                "start_time": 13.909090909090908,
                "end_time": 14.1,
                "pitch": 36,
                "velocity": 40,
                "duration": 0.19090909090909136,
                "tempo": 120.0
            },
            {
                "start_time": 14.118181818181817,
                "end_time": 14.24090909090909,
                "pitch": 46,
                "velocity": 40,
                "duration": 0.12272727272727302,
                "tempo": 120.0
            },
            {
                "start_time": 14.256818181818181,
                "end_time": 14.345454545454544,
                "pitch": 48,
                "velocity": 40,
                "duration": 0.08863636363636296,
                "tempo": 120.0
            },
            {
                "start_time": 14.361363636363636,
                "end_time": 14.443181818181818,
                "pitch": 36,
                "velocity": 40,
                "duration": 0.08181818181818201,
                "tempo": 120.0
            },
            {
                "start_time": 14.459090909090909,
                "end_time": 14.672727272727272,
                "pitch": 36,
                "velocity": 40,
                "duration": 0.21363636363636296,
                "tempo": 120.0
            },
            {
                "start_time": 14.688636363636363,
                "end_time": 14.770454545454545,
                "pitch": 36,
                "velocity": 40,
                "duration": 0.08181818181818201,
                "tempo": 120.0
            },
            {
                "start_time": 14.786363636363635,
                "end_time": 15.004545454545454,
                "pitch": 36,
                "velocity": 40,
                "duration": 0.2181818181818187,
                "tempo": 120.0
            },
            {
                "start_time": 15.020454545454545,
                "end_time": 15.104545454545454,
                "pitch": 46,
                "velocity": 40,
                "duration": 0.084090909090909,
                "tempo": 120.0
            },
            {
                "start_time": 15.120454545454544,
                "end_time": 15.238636363636363,
                "pitch": 48,
                "velocity": 40,
                "duration": 0.11818181818181905,
                "tempo": 120.0
            },
            {
                "start_time": 15.256818181818181,
                "end_time": 15.343181818181817,
                "pitch": 36,
                "velocity": 40,
                "duration": 0.08636363636363598,
                "tempo": 120.0
            },
            {
                "start_time": 15.361363636363636,
                "end_time": 15.588636363636363,
                "pitch": 36,
                "velocity": 40,
                "duration": 0.22727272727272663,
                "tempo": 120.0
            },
            {
                "start_time": 15.604545454545454,
                "end_time": 15.69090909090909,
                "pitch": 36,
                "velocity": 40,
                "duration": 0.08636363636363598,
                "tempo": 120.0
            },
            {
                "start_time": 15.70681818181818,
                "end_time": 15.915909090909091,
                "pitch": 36,
                "velocity": 40,
                "duration": 0.20909090909091077,
                "tempo": 120.0
            },
            {
                "start_time": 15.931818181818182,
                "end_time": 16.011363636363637,
                "pitch": 46,
                "velocity": 40,
                "duration": 0.07954545454545503,
                "tempo": 120.0
            },
            {
                "start_time": 16.027272727272727,
                "end_time": 16.10681818181818,
                "pitch": 48,
                "velocity": 40,
                "duration": 0.07954545454545325,
                "tempo": 120.0
            },
            {
                "start_time": 16.125,
                "end_time": 16.24772727272727,
                "pitch": 36,
                "velocity": 40,
                "duration": 0.12272727272727124,
                "tempo": 120.0
            },
            {
                "start_time": 16.263636363636362,
                "end_time": 16.456818181818182,
                "pitch": 36,
                "velocity": 40,
                "duration": 0.19318181818182012,
                "tempo": 120.0
            },
            {
                "start_time": 16.474999999999998,
                "end_time": 16.595454545454544,
                "pitch": 36,
                "velocity": 40,
                "duration": 0.12045454545454604,
                "tempo": 120.0
            },
            {
                "start_time": 16.613636363636363,
                "end_time": 16.80681818181818,
                "pitch": 36,
                "velocity": 40,
                "duration": 0.19318181818181657,
                "tempo": 120.0
            },
            {
                "start_time": 16.82272727272727,
                "end_time": 16.945454545454545,
                "pitch": 46,
                "velocity": 40,
                "duration": 0.1227272727272748,
                "tempo": 120.0
            },
            {
                "start_time": 16.96363636363636,
                "end_time": 17.05,
                "pitch": 48,
                "velocity": 40,
                "duration": 0.08636363636363953,
                "tempo": 120.0
            },
            {
                "start_time": 17.068181818181817,
                "end_time": 17.15,
                "pitch": 36,
                "velocity": 40,
                "duration": 0.08181818181818201,
                "tempo": 120.0
            },
            {
                "start_time": 17.16590909090909,
                "end_time": 17.377272727272725,
                "pitch": 36,
                "velocity": 40,
                "duration": 0.21136363636363598,
                "tempo": 120.0
            },
            {
                "start_time": 17.395454545454545,
                "end_time": 17.477272727272727,
                "pitch": 36,
                "velocity": 40,
                "duration": 0.08181818181818201,
                "tempo": 120.0
            },
            {
                "start_time": 17.493181818181817,
                "end_time": 17.704545454545453,
                "pitch": 36,
                "velocity": 40,
                "duration": 0.21136363636363598,
                "tempo": 120.0
            },
            {
                "start_time": 17.722727272727273,
                "end_time": 17.804545454545455,
                "pitch": 46,
                "velocity": 40,
                "duration": 0.08181818181818201,
                "tempo": 120.0
            },
            {
                "start_time": 17.820454545454545,
                "end_time": 17.93409090909091,
                "pitch": 48,
                "velocity": 40,
                "duration": 0.11363636363636331,
                "tempo": 120.0
            },
            {
                "start_time": 17.952272727272728,
                "end_time": 18.038636363636364,
                "pitch": 36,
                "velocity": 40,
                "duration": 0.08636363636363598,
                "tempo": 120.0
            },
            {
                "start_time": 18.05681818181818,
                "end_time": 18.284090909090907,
                "pitch": 36,
                "velocity": 40,
                "duration": 0.22727272727272663,
                "tempo": 120.0
            },
            {
                "start_time": 18.302272727272726,
                "end_time": 18.388636363636362,
                "pitch": 36,
                "velocity": 40,
                "duration": 0.08636363636363598,
                "tempo": 120.0
            },
            {
                "start_time": 18.40681818181818,
                "end_time": 18.62272727272727,
                "pitch": 36,
                "velocity": 40,
                "duration": 0.21590909090908994,
                "tempo": 120.0
            },
            {
                "start_time": 18.64090909090909,
                "end_time": 18.722727272727273,
                "pitch": 46,
                "velocity": 40,
                "duration": 0.08181818181818201,
                "tempo": 120.0
            },
            {
                "start_time": 18.74090909090909,
                "end_time": 18.825,
                "pitch": 48,
                "velocity": 40,
                "duration": 0.08409090909091077,
                "tempo": 120.0
            },
            {
                "start_time": 18.84090909090909,
                "end_time": 18.956818181818182,
                "pitch": 36,
                "velocity": 40,
                "duration": 0.11590909090909207,
                "tempo": 120.0
            },
            {
                "start_time": 18.974999999999998,
                "end_time": 19.05909090909091,
                "pitch": 53,
                "velocity": 40,
                "duration": 0.08409090909091077,
                "tempo": 120.0
            },
            {
                "start_time": 19.075,
                "end_time": 19.159090909090907,
                "pitch": 36,
                "velocity": 40,
                "duration": 0.08409090909090722,
                "tempo": 120.0
            },
            {
                "start_time": 19.175,
                "end_time": 19.29090909090909,
                "pitch": 36,
                "velocity": 40,
                "duration": 0.11590909090908852,
                "tempo": 120.0
            },
            {
                "start_time": 19.30909090909091,
                "end_time": 19.397727272727273,
                "pitch": 51,
                "velocity": 40,
                "duration": 0.08863636363636473,
                "tempo": 120.0
            },
            {
                "start_time": 19.413636363636364,
                "end_time": 19.502272727272725,
                "pitch": 36,
                "velocity": 40,
                "duration": 0.08863636363636118,
                "tempo": 120.0
            },
            {
                "start_time": 19.520454545454545,
                "end_time": 19.64090909090909,
                "pitch": 36,
                "velocity": 40,
                "duration": 0.12045454545454604,
                "tempo": 120.0
            },
            {
                "start_time": 19.659090909090907,
                "end_time": 19.745454545454546,
                "pitch": 50,
                "velocity": 40,
                "duration": 0.08636363636363953,
                "tempo": 120.0
            },
            {
                "start_time": 19.763636363636362,
                "end_time": 19.845454545454544,
                "pitch": 41,
                "velocity": 40,
                "duration": 0.08181818181818201,
                "tempo": 120.0
            },
            {
                "start_time": 19.861363636363635,
                "end_time": 20.07272727272727,
                "pitch": 41,
                "velocity": 40,
                "duration": 0.21136363636363598,
                "tempo": 120.0
            },
            {
                "start_time": 20.09090909090909,
                "end_time": 20.172727272727272,
                "pitch": 41,
                "velocity": 40,
                "duration": 0.08181818181818201,
                "tempo": 120.0
            },
            {
                "start_time": 20.188636363636363,
                "end_time": 20.404545454545453,
                "pitch": 41,
                "velocity": 40,
                "duration": 0.21590909090908994,
                "tempo": 120.0
            },
            {
                "start_time": 20.422727272727272,
                "end_time": 20.50681818181818,
                "pitch": 51,
                "velocity": 40,
                "duration": 0.08409090909090722,
                "tempo": 120.0
            },
            {
                "start_time": 20.522727272727273,
                "end_time": 20.638636363636362,
                "pitch": 53,
                "velocity": 40,
                "duration": 0.11590909090908852,
                "tempo": 120.0
            },
            {
                "start_time": 20.65681818181818,
                "end_time": 20.745454545454546,
                "pitch": 41,
                "velocity": 40,
                "duration": 0.08863636363636473,
                "tempo": 120.0
            },
            {
                "start_time": 20.761363636363637,
                "end_time": 20.988636363636363,
                "pitch": 41,
                "velocity": 40,
                "duration": 0.22727272727272663,
                "tempo": 120.0
            },
            {
                "start_time": 21.00681818181818,
                "end_time": 21.095454545454544,
                "pitch": 41,
                "velocity": 40,
                "duration": 0.08863636363636473,
                "tempo": 120.0
            },
            {
                "start_time": 21.111363636363635,
                "end_time": 21.329545454545453,
                "pitch": 41,
                "velocity": 40,
                "duration": 0.2181818181818187,
                "tempo": 120.0
            },
            {
                "start_time": 21.345454545454544,
                "end_time": 21.429545454545455,
                "pitch": 51,
                "velocity": 40,
                "duration": 0.08409090909091077,
                "tempo": 120.0
            },
            {
                "start_time": 21.445454545454545,
                "end_time": 21.529545454545453,
                "pitch": 53,
                "velocity": 40,
                "duration": 0.08409090909090722,
                "tempo": 120.0
            },
            {
                "start_time": 21.545454545454543,
                "end_time": 21.663636363636364,
                "pitch": 41,
                "velocity": 40,
                "duration": 0.11818181818182083,
                "tempo": 120.0
            },
            {
                "start_time": 21.679545454545455,
                "end_time": 21.863636363636363,
                "pitch": 41,
                "velocity": 40,
                "duration": 0.18409090909090864,
                "tempo": 120.0
            },
            {
                "start_time": 21.879545454545454,
                "end_time": 21.99772727272727,
                "pitch": 41,
                "velocity": 40,
                "duration": 0.11818181818181728,
                "tempo": 120.0
            },
            {
                "start_time": 22.013636363636362,
                "end_time": 22.102272727272727,
                "pitch": 41,
                "velocity": 40,
                "duration": 0.08863636363636473,
                "tempo": 120.0
            },
            {
                "start_time": 22.120454545454546,
                "end_time": 22.206818181818182,
                "pitch": 51,
                "velocity": 40,
                "duration": 0.08636363636363598,
                "tempo": 120.0
            },
            {
                "start_time": 22.224999999999998,
                "end_time": 22.347727272727273,
                "pitch": 41,
                "velocity": 40,
                "duration": 0.1227272727272748,
                "tempo": 120.0
            },
            {
                "start_time": 22.363636363636363,
                "end_time": 22.452272727272724,
                "pitch": 53,
                "velocity": 40,
                "duration": 0.08863636363636118,
                "tempo": 120.0
            },
            {
                "start_time": 22.46818181818182,
                "end_time": 22.549999999999997,
                "pitch": 41,
                "velocity": 40,
                "duration": 0.08181818181817846,
                "tempo": 120.0
            },
            {
                "start_time": 22.56590909090909,
                "end_time": 22.679545454545455,
                "pitch": 41,
                "velocity": 40,
                "duration": 0.11363636363636331,
                "tempo": 120.0
            },
            {
                "start_time": 22.69772727272727,
                "end_time": 22.779545454545453,
                "pitch": 53,
                "velocity": 40,
                "duration": 0.08181818181818201,
                "tempo": 120.0
            },
            {
                "start_time": 22.795454545454543,
                "end_time": 22.877272727272725,
                "pitch": 41,
                "velocity": 40,
                "duration": 0.08181818181818201,
                "tempo": 120.0
            },
            {
                "start_time": 22.893181818181816,
                "end_time": 23.011363636363637,
                "pitch": 41,
                "velocity": 40,
                "duration": 0.11818181818182083,
                "tempo": 120.0
            },
            {
                "start_time": 23.027272727272727,
                "end_time": 23.111363636363635,
                "pitch": 51,
                "velocity": 40,
                "duration": 0.08409090909090722,
                "tempo": 120.0
            },
            {
                "start_time": 23.127272727272725,
                "end_time": 23.211363636363636,
                "pitch": 53,
                "velocity": 40,
                "duration": 0.08409090909091077,
                "tempo": 120.0
            },
            {
                "start_time": 23.227272727272727,
                "end_time": 23.345454545454544,
                "pitch": 53,
                "velocity": 40,
                "duration": 0.11818181818181728,
                "tempo": 120.0
            },
            {
                "start_time": 23.361363636363635,
                "end_time": 23.45,
                "pitch": 36,
                "velocity": 40,
                "duration": 0.08863636363636473,
                "tempo": 120.0
            },
            {
                "start_time": 23.46818181818182,
                "end_time": 23.695454545454545,
                "pitch": 36,
                "velocity": 40,
                "duration": 0.22727272727272663,
                "tempo": 120.0
            },
            {
                "start_time": 23.711363636363636,
                "end_time": 23.799999999999997,
                "pitch": 36,
                "velocity": 40,
                "duration": 0.08863636363636118,
                "tempo": 120.0
            },
            {
                "start_time": 23.81590909090909,
                "end_time": 24.034090909090907,
                "pitch": 36,
                "velocity": 40,
                "duration": 0.21818181818181515,
                "tempo": 120.0
            },
            {
                "start_time": 24.049999999999997,
                "end_time": 24.134090909090908,
                "pitch": 46,
                "velocity": 40,
                "duration": 0.08409090909091077,
                "tempo": 120.0
            },
            {
                "start_time": 24.15,
                "end_time": 24.23409090909091,
                "pitch": 48,
                "velocity": 40,
                "duration": 0.08409090909091077,
                "tempo": 120.0
            },
            {
                "start_time": 24.25,
                "end_time": 24.36590909090909,
                "pitch": 36,
                "velocity": 40,
                "duration": 0.11590909090908852,
                "tempo": 120.0
            },
            {
                "start_time": 24.38181818181818,
                "end_time": 24.561363636363634,
                "pitch": 36,
                "velocity": 40,
                "duration": 0.17954545454545467,
                "tempo": 120.0
            },
            {
                "start_time": 24.577272727272724,
                "end_time": 24.693181818181817,
                "pitch": 36,
                "velocity": 40,
                "duration": 0.11590909090909207,
                "tempo": 120.0
            },
            {
                "start_time": 24.709090909090907,
                "end_time": 24.90681818181818,
                "pitch": 36,
                "velocity": 40,
                "duration": 0.19772727272727408,
                "tempo": 120.0
            },
            {
                "start_time": 24.924999999999997,
                "end_time": 25.049999999999997,
                "pitch": 46,
                "velocity": 40,
                "duration": 0.125,
                "tempo": 120.0
            },
            {
                "start_time": 25.068181818181817,
                "end_time": 25.15681818181818,
                "pitch": 48,
                "velocity": 40,
                "duration": 0.08863636363636473,
                "tempo": 120.0
            },
            {
                "start_time": 25.172727272727272,
                "end_time": 25.254545454545454,
                "pitch": 36,
                "velocity": 40,
                "duration": 0.08181818181818201,
                "tempo": 120.0
            },
            {
                "start_time": 25.27272727272727,
                "end_time": 25.48409090909091,
                "pitch": 36,
                "velocity": 40,
                "duration": 0.21136363636363953,
                "tempo": 120.0
            },
            {
                "start_time": 25.5,
                "end_time": 25.581818181818182,
                "pitch": 36,
                "velocity": 40,
                "duration": 0.08181818181818201,
                "tempo": 120.0
            },
            {
                "start_time": 25.597727272727273,
                "end_time": 25.811363636363634,
                "pitch": 36,
                "velocity": 40,
                "duration": 0.21363636363636118,
                "tempo": 120.0
            },
            {
                "start_time": 25.827272727272724,
                "end_time": 25.909090909090907,
                "pitch": 46,
                "velocity": 40,
                "duration": 0.08181818181818201,
                "tempo": 120.0
            },
            {
                "start_time": 25.924999999999997,
                "end_time": 26.04090909090909,
                "pitch": 48,
                "velocity": 40,
                "duration": 0.11590909090909207,
                "tempo": 120.0
            },
            {
                "start_time": 26.05909090909091,
                "end_time": 26.145454545454545,
                "pitch": 36,
                "velocity": 40,
                "duration": 0.08636363636363598,
                "tempo": 120.0
            },
            {
                "start_time": 26.163636363636364,
                "end_time": 26.25,
                "pitch": 53,
                "velocity": 40,
                "duration": 0.08636363636363598,
                "tempo": 120.0
            },
            {
                "start_time": 26.268181818181816,
                "end_time": 26.39090909090909,
                "pitch": 36,
                "velocity": 40,
                "duration": 0.1227272727272748,
                "tempo": 120.0
            },
            {
                "start_time": 26.409090909090907,
                "end_time": 26.495454545454542,
                "pitch": 36,
                "velocity": 40,
                "duration": 0.08636363636363598,
                "tempo": 120.0
            },
            {
                "start_time": 26.511363636363637,
                "end_time": 26.595454545454544,
                "pitch": 51,
                "velocity": 40,
                "duration": 0.08409090909090722,
                "tempo": 120.0
            },
            {
                "start_time": 26.611363636363635,
                "end_time": 26.729545454545452,
                "pitch": 36,
                "velocity": 40,
                "duration": 0.11818181818181728,
                "tempo": 120.0
            },
            {
                "start_time": 26.745454545454542,
                "end_time": 26.829545454545453,
                "pitch": 36,
                "velocity": 40,
                "duration": 0.08409090909091077,
                "tempo": 120.0
            },
            {
                "start_time": 26.845454545454544,
                "end_time": 26.929545454545455,
                "pitch": 50,
                "velocity": 40,
                "duration": 0.08409090909091077,
                "tempo": 120.0
            },
            {
                "start_time": 26.94772727272727,
                "end_time": 27.063636363636363,
                "pitch": 41,
                "velocity": 40,
                "duration": 0.11590909090909207,
                "tempo": 120.0
            },
            {
                "start_time": 27.079545454545453,
                "end_time": 27.263636363636362,
                "pitch": 41,
                "velocity": 40,
                "duration": 0.18409090909090864,
                "tempo": 120.0
            },
            {
                "start_time": 27.28181818181818,
                "end_time": 27.39772727272727,
                "pitch": 41,
                "velocity": 40,
                "duration": 0.11590909090908852,
                "tempo": 120.0
            },
            {
                "start_time": 27.41590909090909,
                "end_time": 27.60681818181818,
                "pitch": 41,
                "velocity": 40,
                "duration": 0.19090909090909136,
                "tempo": 120.0
            },
            {
                "start_time": 27.625,
                "end_time": 27.74772727272727,
                "pitch": 51,
                "velocity": 40,
                "duration": 0.12272727272727124,
                "tempo": 120.0
            },
            {
                "start_time": 27.76590909090909,
                "end_time": 27.852272727272727,
                "pitch": 53,
                "velocity": 40,
                "duration": 0.08636363636363598,
                "tempo": 120.0
            },
            {
                "start_time": 27.870454545454542,
                "end_time": 27.952272727272724,
                "pitch": 41,
                "velocity": 40,
                "duration": 0.08181818181818201,
                "tempo": 120.0
            },
            {
                "start_time": 27.970454545454544,
                "end_time": 28.186363636363634,
                "pitch": 41,
                "velocity": 40,
                "duration": 0.21590909090908994,
                "tempo": 120.0
            },
            {
                "start_time": 28.204545454545453,
                "end_time": 28.288636363636364,
                "pitch": 41,
                "velocity": 40,
                "duration": 0.08409090909091077,
                "tempo": 120.0
            },
            {
                "start_time": 28.304545454545455,
                "end_time": 28.51590909090909,
                "pitch": 41,
                "velocity": 40,
                "duration": 0.21136363636363598,
                "tempo": 120.0
            },
            {
                "start_time": 28.53181818181818,
                "end_time": 28.613636363636363,
                "pitch": 51,
                "velocity": 40,
                "duration": 0.08181818181818201,
                "tempo": 120.0
            },
            {
                "start_time": 28.63181818181818,
                "end_time": 28.745454545454542,
                "pitch": 53,
                "velocity": 40,
                "duration": 0.11363636363636331,
                "tempo": 120.0
            },
            {
                "start_time": 28.763636363636362,
                "end_time": 28.849999999999998,
                "pitch": 41,
                "velocity": 40,
                "duration": 0.08636363636363598,
                "tempo": 120.0
            },
            {
                "start_time": 28.868181818181817,
                "end_time": 29.095454545454544,
                "pitch": 41,
                "velocity": 40,
                "duration": 0.22727272727272663,
                "tempo": 120.0
            },
            {
                "start_time": 29.113636363636363,
                "end_time": 29.2,
                "pitch": 41,
                "velocity": 40,
                "duration": 0.08636363636363598,
                "tempo": 120.0
            },
            {
                "start_time": 29.218181818181815,
                "end_time": 29.299999999999997,
                "pitch": 41,
                "velocity": 40,
                "duration": 0.08181818181818201,
                "tempo": 120.0
            },
            {
                "start_time": 29.318181818181817,
                "end_time": 29.43409090909091,
                "pitch": 51,
                "velocity": 40,
                "duration": 0.11590909090909207,
                "tempo": 120.0
            },
            {
                "start_time": 29.452272727272724,
                "end_time": 29.534090909090907,
                "pitch": 41,
                "velocity": 40,
                "duration": 0.08181818181818201,
                "tempo": 120.0
            },
            {
                "start_time": 29.552272727272726,
                "end_time": 29.634090909090908,
                "pitch": 53,
                "velocity": 40,
                "duration": 0.08181818181818201,
                "tempo": 120.0
            },
            {
                "start_time": 29.652272727272727,
                "end_time": 29.76590909090909,
                "pitch": 41,
                "velocity": 40,
                "duration": 0.11363636363636331,
                "tempo": 120.0
            },
            {
                "start_time": 29.78181818181818,
                "end_time": 29.863636363636363,
                "pitch": 41,
                "velocity": 40,
                "duration": 0.08181818181818201,
                "tempo": 120.0
            },
            {
                "start_time": 29.879545454545454,
                "end_time": 29.961363636363636,
                "pitch": 53,
                "velocity": 40,
                "duration": 0.08181818181818201,
                "tempo": 120.0
            },
            {
                "start_time": 29.979545454545452,
                "end_time": 30.093181818181815,
                "pitch": 41,
                "velocity": 40,
                "duration": 0.11363636363636331,
                "tempo": 120.0
            },
            {
                "start_time": 30.111363636363635,
                "end_time": 30.2,
                "pitch": 41,
                "velocity": 40,
                "duration": 0.08863636363636473,
                "tempo": 120.0
            },
            {
                "start_time": 30.218181818181815,
                "end_time": 30.30681818181818,
                "pitch": 51,
                "velocity": 40,
                "duration": 0.08863636363636473,
                "tempo": 120.0
            },
            {
                "start_time": 30.325,
                "end_time": 30.45,
                "pitch": 53,
                "velocity": 40,
                "duration": 0.125,
                "tempo": 120.0
            },
            {
                "start_time": 30.468181818181815,
                "end_time": 30.55909090909091,
                "pitch": 53,
                "velocity": 40,
                "duration": 0.09090909090909349,
                "tempo": 120.0
            },
            {
                "start_time": 30.575,
                "end_time": 30.659090909090907,
                "pitch": 36,
                "velocity": 40,
                "duration": 0.08409090909090722,
                "tempo": 120.0
            },
            {
                "start_time": 30.674999999999997,
                "end_time": 30.893181818181816,
                "pitch": 36,
                "velocity": 40,
                "duration": 0.2181818181818187,
                "tempo": 120.0
            },
            {
                "start_time": 30.909090909090907,
                "end_time": 30.993181818181817,
                "pitch": 36,
                "velocity": 40,
                "duration": 0.08409090909091077,
                "tempo": 120.0
            },
            {
                "start_time": 31.009090909090908,
                "end_time": 31.222727272727273,
                "pitch": 36,
                "velocity": 40,
                "duration": 0.21363636363636473,
                "tempo": 120.0
            },
            {
                "start_time": 31.238636363636363,
                "end_time": 31.320454545454545,
                "pitch": 46,
                "velocity": 40,
                "duration": 0.08181818181818201,
                "tempo": 120.0
            },
            {
                "start_time": 31.336363636363636,
                "end_time": 31.452272727272724,
                "pitch": 48,
                "velocity": 40,
                "duration": 0.11590909090908852,
                "tempo": 120.0
            },
            {
                "start_time": 31.468181818181815,
                "end_time": 31.55681818181818,
                "pitch": 36,
                "velocity": 40,
                "duration": 0.08863636363636473,
                "tempo": 120.0
            },
            {
                "start_time": 31.575,
                "end_time": 31.802272727272726,
                "pitch": 36,
                "velocity": 40,
                "duration": 0.22727272727272663,
                "tempo": 120.0
            },
            {
                "start_time": 31.818181818181817,
                "end_time": 31.90681818181818,
                "pitch": 36,
                "velocity": 40,
                "duration": 0.08863636363636473,
                "tempo": 120.0
            },
            {
                "start_time": 31.922727272727272,
                "end_time": 32.14090909090909,
                "pitch": 36,
                "velocity": 40,
                "duration": 0.2181818181818187,
                "tempo": 120.0
            },
            {
                "start_time": 32.15681818181818,
                "end_time": 32.24090909090909,
                "pitch": 46,
                "velocity": 40,
                "duration": 0.08409090909091077,
                "tempo": 120.0
            },
            {
                "start_time": 32.25681818181818,
                "end_time": 32.340909090909086,
                "pitch": 48,
                "velocity": 40,
                "duration": 0.08409090909090366,
                "tempo": 120.0
            },
            {
                "start_time": 32.35681818181818,
                "end_time": 32.47272727272727,
                "pitch": 36,
                "velocity": 40,
                "duration": 0.11590909090909207,
                "tempo": 120.0
            },
            {
                "start_time": 32.48863636363636,
                "end_time": 32.668181818181814,
                "pitch": 36,
                "velocity": 40,
                "duration": 0.17954545454545467,
                "tempo": 120.0
            },
            {
                "start_time": 32.684090909090905,
                "end_time": 32.8,
                "pitch": 36,
                "velocity": 40,
                "duration": 0.11590909090909207,
                "tempo": 120.0
            },
            {
                "start_time": 32.81590909090909,
                "end_time": 33.013636363636365,
                "pitch": 36,
                "velocity": 40,
                "duration": 0.19772727272727764,
                "tempo": 120.0
            },
            {
                "start_time": 33.03181818181818,
                "end_time": 33.15681818181818,
                "pitch": 46,
                "velocity": 40,
                "duration": 0.125,
                "tempo": 120.0
            },
            {
                "start_time": 33.175,
                "end_time": 33.263636363636365,
                "pitch": 48,
                "velocity": 40,
                "duration": 0.08863636363636829,
                "tempo": 120.0
            },
            {
                "start_time": 33.279545454545456,
                "end_time": 33.361363636363635,
                "pitch": 36,
                "velocity": 40,
                "duration": 0.08181818181817846,
                "tempo": 120.0
            },
            {
                "start_time": 33.37954545454545,
                "end_time": 33.49318181818182,
                "pitch": 53,
                "velocity": 40,
                "duration": 0.11363636363636687,
                "tempo": 120.0
            },
            {
                "start_time": 33.50909090909091,
                "end_time": 33.590909090909086,
                "pitch": 36,
                "velocity": 40,
                "duration": 0.08181818181817846,
                "tempo": 120.0
            },
            {
                "start_time": 33.60681818181818,
                "end_time": 33.68863636363636,
                "pitch": 36,
                "velocity": 40,
                "duration": 0.08181818181818556,
                "tempo": 120.0
            },
            {
                "start_time": 33.70681818181818,
                "end_time": 33.82272727272727,
                "pitch": 51,
                "velocity": 40,
                "duration": 0.11590909090909207,
                "tempo": 120.0
            },
            {
                "start_time": 33.83863636363636,
                "end_time": 33.92272727272727,
                "pitch": 36,
                "velocity": 40,
                "duration": 0.08409090909091077,
                "tempo": 120.0
            },
            {
                "start_time": 33.93863636363636,
                "end_time": 34.02272727272727,
                "pitch": 36,
                "velocity": 40,
                "duration": 0.08409090909091077,
                "tempo": 120.0
            },
            {
                "start_time": 34.04090909090909,
                "end_time": 34.15681818181818,
                "pitch": 50,
                "velocity": 40,
                "duration": 0.11590909090909207,
                "tempo": 120.0
            },
            {
                "start_time": 34.175,
                "end_time": 34.25909090909091,
                "pitch": 41,
                "velocity": 40,
                "duration": 0.08409090909091077,
                "tempo": 120.0
            },
            {
                "start_time": 34.277272727272724,
                "end_time": 34.5,
                "pitch": 41,
                "velocity": 40,
                "duration": 0.22272727272727622,
                "tempo": 120.0
            },
            {
                "start_time": 34.51590909090909,
                "end_time": 34.60227272727273,
                "pitch": 41,
                "velocity": 40,
                "duration": 0.08636363636363598,
                "tempo": 120.0
            },
            {
                "start_time": 34.61818181818182,
                "end_time": 34.836363636363636,
                "pitch": 41,
                "velocity": 40,
                "duration": 0.2181818181818187,
                "tempo": 120.0
            },
            {
                "start_time": 34.85227272727273,
                "end_time": 34.93636363636364,
                "pitch": 51,
                "velocity": 40,
                "duration": 0.08409090909091077,
                "tempo": 120.0
            },
            {
                "start_time": 34.95227272727273,
                "end_time": 35.03636363636363,
                "pitch": 53,
                "velocity": 40,
                "duration": 0.08409090909090366,
                "tempo": 120.0
            },
            {
                "start_time": 35.05227272727272,
                "end_time": 35.17045454545455,
                "pitch": 41,
                "velocity": 40,
                "duration": 0.11818181818182438,
                "tempo": 120.0
            },
            {
                "start_time": 35.18636363636364,
                "end_time": 35.37045454545454,
                "pitch": 41,
                "velocity": 40,
                "duration": 0.18409090909090509,
                "tempo": 120.0
            },
            {
                "start_time": 35.38636363636363,
                "end_time": 35.50454545454545,
                "pitch": 41,
                "velocity": 40,
                "duration": 0.11818181818181728,
                "tempo": 120.0
            },
            {
                "start_time": 35.52272727272727,
                "end_time": 35.71363636363636,
                "pitch": 41,
                "velocity": 40,
                "duration": 0.1909090909090878,
                "tempo": 120.0
            },
            {
                "start_time": 35.73181818181818,
                "end_time": 35.85454545454545,
                "pitch": 51,
                "velocity": 40,
                "duration": 0.1227272727272748,
                "tempo": 120.0
            },
            {
                "start_time": 35.87045454545454,
                "end_time": 35.95909090909091,
                "pitch": 53,
                "velocity": 40,
                "duration": 0.08863636363636829,
                "tempo": 120.0
            },
            {
                "start_time": 35.975,
                "end_time": 36.059090909090905,
                "pitch": 41,
                "velocity": 40,
                "duration": 0.08409090909090366,
                "tempo": 120.0
            },
            {
                "start_time": 36.074999999999996,
                "end_time": 36.293181818181814,
                "pitch": 41,
                "velocity": 40,
                "duration": 0.2181818181818187,
                "tempo": 120.0
            },
            {
                "start_time": 36.309090909090905,
                "end_time": 36.393181818181816,
                "pitch": 41,
                "velocity": 40,
                "duration": 0.08409090909091077,
                "tempo": 120.0
            },
            {
                "start_time": 36.40909090909091,
                "end_time": 36.525,
                "pitch": 41,
                "velocity": 40,
                "duration": 0.11590909090909207,
                "tempo": 120.0
            },
            {
                "start_time": 36.54090909090909,
                "end_time": 36.62272727272727,
                "pitch": 51,
                "velocity": 40,
                "duration": 0.08181818181817846,
                "tempo": 120.0
            },
            {
                "start_time": 36.63863636363636,
                "end_time": 36.720454545454544,
                "pitch": 41,
                "velocity": 40,
                "duration": 0.08181818181818556,
                "tempo": 120.0
            },
            {
                "start_time": 36.736363636363635,
                "end_time": 36.85227272727273,
                "pitch": 53,
                "velocity": 40,
                "duration": 0.11590909090909207,
                "tempo": 120.0
            },
            {
                "start_time": 36.87045454545454,
                "end_time": 36.95681818181818,
                "pitch": 41,
                "velocity": 40,
                "duration": 0.08636363636363598,
                "tempo": 120.0
            },
            {
                "start_time": 36.975,
                "end_time": 37.06136363636364,
                "pitch": 41,
                "velocity": 40,
                "duration": 0.08636363636363598,
                "tempo": 120.0
            },
            {
                "start_time": 37.07954545454545,
                "end_time": 37.20227272727273,
                "pitch": 53,
                "velocity": 40,
                "duration": 0.1227272727272748,
                "tempo": 120.0
            },
            {
                "start_time": 37.21818181818182,
                "end_time": 37.30681818181818,
                "pitch": 41,
                "velocity": 40,
                "duration": 0.08863636363636118,
                "tempo": 120.0
            },
            {
                "start_time": 37.32272727272727,
                "end_time": 37.40681818181818,
                "pitch": 41,
                "velocity": 40,
                "duration": 0.08409090909091077,
                "tempo": 120.0
            },
            {
                "start_time": 37.42272727272727,
                "end_time": 37.54090909090909,
                "pitch": 51,
                "velocity": 40,
                "duration": 0.11818181818181728,
                "tempo": 120.0
            },
            {
                "start_time": 37.55681818181818,
                "end_time": 37.64090909090909,
                "pitch": 53,
                "velocity": 40,
                "duration": 0.08409090909091077,
                "tempo": 120.0
            },
            {
                "start_time": 37.65681818181818,
                "end_time": 37.74090909090909,
                "pitch": 53,
                "velocity": 40,
                "duration": 0.08409090909091077,
                "tempo": 120.0
            },
            {
                "start_time": 37.75909090909091,
                "end_time": 37.875,
                "pitch": 36,
                "velocity": 40,
                "duration": 0.11590909090909207,
                "tempo": 120.0
            },
            {
                "start_time": 37.89090909090909,
                "end_time": 38.074999999999996,
                "pitch": 36,
                "velocity": 40,
                "duration": 0.18409090909090509,
                "tempo": 120.0
            },
            {
                "start_time": 38.09318181818182,
                "end_time": 38.20909090909091,
                "pitch": 36,
                "velocity": 40,
                "duration": 0.11590909090909207,
                "tempo": 120.0
            },
            {
                "start_time": 38.22727272727273,
                "end_time": 38.418181818181814,
                "pitch": 36,
                "velocity": 40,
                "duration": 0.1909090909090878,
                "tempo": 120.0
            },
            {
                "start_time": 38.43636363636364,
                "end_time": 38.559090909090905,
                "pitch": 46,
                "velocity": 40,
                "duration": 0.12272727272726769,
                "tempo": 120.0
            },
            {
                "start_time": 38.57727272727273,
                "end_time": 38.663636363636364,
                "pitch": 48,
                "velocity": 40,
                "duration": 0.08636363636363598,
                "tempo": 120.0
            },
            {
                "start_time": 38.68181818181818,
                "end_time": 38.76363636363636,
                "pitch": 36,
                "velocity": 40,
                "duration": 0.08181818181817846,
                "tempo": 120.0
            },
            {
                "start_time": 38.78181818181818,
                "end_time": 38.99772727272727,
                "pitch": 36,
                "velocity": 40,
                "duration": 0.2159090909090864,
                "tempo": 120.0
            },
            {
                "start_time": 39.01590909090909,
                "end_time": 39.09772727272727,
                "pitch": 36,
                "velocity": 40,
                "duration": 0.08181818181817846,
                "tempo": 120.0
            },
            {
                "start_time": 39.11590909090909,
                "end_time": 39.32727272727273,
                "pitch": 36,
                "velocity": 40,
                "duration": 0.21136363636363598,
                "tempo": 120.0
            },
            {
                "start_time": 39.34318181818182,
                "end_time": 39.425,
                "pitch": 46,
                "velocity": 40,
                "duration": 0.08181818181817846,
                "tempo": 120.0
            },
            {
                "start_time": 39.44318181818181,
                "end_time": 39.55681818181818,
                "pitch": 48,
                "velocity": 40,
                "duration": 0.11363636363636687,
                "tempo": 120.0
            },
            {
                "start_time": 39.574999999999996,
                "end_time": 39.66136363636363,
                "pitch": 36,
                "velocity": 40,
                "duration": 0.08636363636363598,
                "tempo": 120.0
            },
            {
                "start_time": 39.679545454545455,
                "end_time": 39.90681818181818,
                "pitch": 36,
                "velocity": 40,
                "duration": 0.22727272727272663,
                "tempo": 120.0
            },
            {
                "start_time": 39.925,
                "end_time": 40.01136363636363,
                "pitch": 36,
                "velocity": 40,
                "duration": 0.08636363636363598,
                "tempo": 120.0
            },
            {
                "start_time": 40.029545454545456,
                "end_time": 40.24545454545454,
                "pitch": 36,
                "velocity": 40,
                "duration": 0.2159090909090864,
                "tempo": 120.0
            },
            {
                "start_time": 40.26363636363636,
                "end_time": 40.345454545454544,
                "pitch": 46,
                "velocity": 40,
                "duration": 0.08181818181818556,
                "tempo": 120.0
            },
            {
                "start_time": 40.36363636363636,
                "end_time": 40.445454545454545,
                "pitch": 48,
                "velocity": 40,
                "duration": 0.08181818181818556,
                "tempo": 120.0
            },
            {
                "start_time": 40.46363636363636,
                "end_time": 40.57727272727273,
                "pitch": 36,
                "velocity": 40,
                "duration": 0.11363636363636687,
                "tempo": 120.0
            },
            {
                "start_time": 40.59318181818182,
                "end_time": 40.675,
                "pitch": 53,
                "velocity": 40,
                "duration": 0.08181818181817846,
                "tempo": 120.0
            },
            {
                "start_time": 40.69090909090909,
                "end_time": 40.77272727272727,
                "pitch": 36,
                "velocity": 40,
                "duration": 0.08181818181818556,
                "tempo": 120.0
            },
            {
                "start_time": 40.79090909090909,
                "end_time": 40.904545454545456,
                "pitch": 36,
                "velocity": 40,
                "duration": 0.11363636363636687,
                "tempo": 120.0
            },
            {
                "start_time": 40.92272727272727,
                "end_time": 41.01136363636363,
                "pitch": 51,
                "velocity": 40,
                "duration": 0.08863636363636118,
                "tempo": 120.0
            },
            {
                "start_time": 41.029545454545456,
                "end_time": 41.11818181818182,
                "pitch": 36,
                "velocity": 40,
                "duration": 0.08863636363636118,
                "tempo": 120.0
            },
            {
                "start_time": 41.13636363636363,
                "end_time": 41.26136363636363,
                "pitch": 36,
                "velocity": 40,
                "duration": 0.125,
                "tempo": 120.0
            },
            {
                "start_time": 41.27954545454545,
                "end_time": 41.36818181818182,
                "pitch": 50,
                "velocity": 40,
                "duration": 0.08863636363636829,
                "tempo": 120.0
            },
            {
                "start_time": 41.38636363636363,
                "end_time": 41.46818181818182,
                "pitch": 41,
                "velocity": 40,
                "duration": 0.08181818181818556,
                "tempo": 120.0
            },
            {
                "start_time": 41.48409090909091,
                "end_time": 41.695454545454545,
                "pitch": 41,
                "velocity": 40,
                "duration": 0.21136363636363598,
                "tempo": 120.0
            },
            {
                "start_time": 41.71363636363636,
                "end_time": 41.79545454545455,
                "pitch": 41,
                "velocity": 40,
                "duration": 0.08181818181818556,
                "tempo": 120.0
            },
            {
                "start_time": 41.81136363636364,
                "end_time": 42.02272727272727,
                "pitch": 41,
                "velocity": 40,
                "duration": 0.21136363636363598,
                "tempo": 120.0
            },
            {
                "start_time": 42.04090909090909,
                "end_time": 42.12272727272727,
                "pitch": 51,
                "velocity": 40,
                "duration": 0.08181818181817846,
                "tempo": 120.0
            },
            {
                "start_time": 42.13863636363636,
                "end_time": 42.252272727272725,
                "pitch": 53,
                "velocity": 40,
                "duration": 0.11363636363636687,
                "tempo": 120.0
            },
            {
                "start_time": 42.27045454545454,
                "end_time": 42.35681818181818,
                "pitch": 41,
                "velocity": 40,
                "duration": 0.08636363636363598,
                "tempo": 120.0
            },
            {
                "start_time": 42.375,
                "end_time": 42.60227272727273,
                "pitch": 41,
                "velocity": 40,
                "duration": 0.22727272727272663,
                "tempo": 120.0
            },
            {
                "start_time": 42.62045454545454,
                "end_time": 42.70681818181818,
                "pitch": 41,
                "velocity": 40,
                "duration": 0.08636363636363598,
                "tempo": 120.0
            },
            {
                "start_time": 42.725,
                "end_time": 42.94090909090909,
                "pitch": 41,
                "velocity": 40,
                "duration": 0.2159090909090864,
                "tempo": 120.0
            },
            {
                "start_time": 42.959090909090904,
                "end_time": 43.04090909090909,
                "pitch": 51,
                "velocity": 40,
                "duration": 0.08181818181818556,
                "tempo": 120.0
            },
            {
                "start_time": 43.059090909090905,
                "end_time": 43.143181818181816,
                "pitch": 53,
                "velocity": 40,
                "duration": 0.08409090909091077,
                "tempo": 120.0
            },
            {
                "start_time": 43.15909090909091,
                "end_time": 43.275,
                "pitch": 41,
                "velocity": 40,
                "duration": 0.11590909090909207,
                "tempo": 120.0
            },
            {
                "start_time": 43.293181818181814,
                "end_time": 43.47727272727273,
                "pitch": 41,
                "velocity": 40,
                "duration": 0.1840909090909122,
                "tempo": 120.0
            },
            {
                "start_time": 43.49318181818182,
                "end_time": 43.611363636363635,
                "pitch": 41,
                "velocity": 40,
                "duration": 0.11818181818181728,
                "tempo": 120.0
            },
            {
                "start_time": 43.627272727272725,
                "end_time": 43.715909090909086,
                "pitch": 41,
                "velocity": 40,
                "duration": 0.08863636363636118,
                "tempo": 120.0
            },
            {
                "start_time": 43.73181818181818,
                "end_time": 43.820454545454545,
                "pitch": 51,
                "velocity": 40,
                "duration": 0.08863636363636829,
                "tempo": 120.0
            },
            {
                "start_time": 43.83863636363636,
                "end_time": 43.959090909090904,
                "pitch": 41,
                "velocity": 40,
                "duration": 0.12045454545454248,
                "tempo": 120.0
            },
            {
                "start_time": 43.97727272727273,
                "end_time": 44.06590909090909,
                "pitch": 53,
                "velocity": 40,
                "duration": 0.08863636363636118,
                "tempo": 120.0
            },
            {
                "start_time": 44.08181818181818,
                "end_time": 44.16590909090909,
                "pitch": 41,
                "velocity": 40,
                "duration": 0.08409090909091077,
                "tempo": 120.0
            },
            {
                "start_time": 44.18181818181818,
                "end_time": 44.3,
                "pitch": 41,
                "velocity": 40,
                "duration": 0.11818181818181728,
                "tempo": 120.0
            },
            {
                "start_time": 44.31590909090909,
                "end_time": 44.4,
                "pitch": 53,
                "velocity": 40,
                "duration": 0.08409090909091077,
                "tempo": 120.0
            },
            {
                "start_time": 44.41590909090909,
                "end_time": 44.5,
                "pitch": 41,
                "velocity": 40,
                "duration": 0.08409090909091077,
                "tempo": 120.0
            },
            {
                "start_time": 44.51590909090909,
                "end_time": 44.63181818181818,
                "pitch": 41,
                "velocity": 40,
                "duration": 0.11590909090909207,
                "tempo": 120.0
            },
            {
                "start_time": 44.64772727272727,
                "end_time": 44.72954545454545,
                "pitch": 51,
                "velocity": 40,
                "duration": 0.08181818181817846,
                "tempo": 120.0
            },
            {
                "start_time": 44.74545454545454,
                "end_time": 44.82727272727273,
                "pitch": 53,
                "velocity": 40,
                "duration": 0.08181818181818556,
                "tempo": 120.0
            },
            {
                "start_time": 44.84318181818182,
                "end_time": 44.959090909090904,
                "pitch": 53,
                "velocity": 40,
                "duration": 0.11590909090908497,
                "tempo": 120.0
            },
            {
                "start_time": 44.974999999999994,
                "end_time": 45.06363636363636,
                "pitch": 42,
                "velocity": 40,
                "duration": 0.08863636363636829,
                "tempo": 120.0
            },
            {
                "start_time": 45.07954545454545,
                "end_time": 45.168181818181814,
                "pitch": 42,
                "velocity": 40,
                "duration": 0.08863636363636118,
                "tempo": 120.0
            },
            {
                "start_time": 45.18636363636364,
                "end_time": 45.30681818181818,
                "pitch": 54,
                "velocity": 40,
                "duration": 0.12045454545454248,
                "tempo": 120.0
            },
            {
                "start_time": 45.324999999999996,
                "end_time": 45.413636363636364,
                "pitch": 42,
                "velocity": 40,
                "duration": 0.08863636363636829,
                "tempo": 120.0
            },
            {
                "start_time": 45.429545454545455,
                "end_time": 45.51363636363636,
                "pitch": 54,
                "velocity": 40,
                "duration": 0.08409090909090366,
                "tempo": 120.0
            },
            {
                "start_time": 45.52954545454545,
                "end_time": 45.64772727272727,
                "pitch": 42,
                "velocity": 40,
                "duration": 0.11818181818182438,
                "tempo": 120.0
            },
            {
                "start_time": 45.663636363636364,
                "end_time": 45.74772727272727,
                "pitch": 42,
                "velocity": 40,
                "duration": 0.08409090909090366,
                "tempo": 120.0
            },
            {
                "start_time": 45.76363636363636,
                "end_time": 45.84772727272727,
                "pitch": 42,
                "velocity": 40,
                "duration": 0.08409090909091077,
                "tempo": 120.0
            },
            {
                "start_time": 45.86363636363636,
                "end_time": 45.98181818181818,
                "pitch": 54,
                "velocity": 40,
                "duration": 0.11818181818181728,
                "tempo": 120.0
            },
            {
                "start_time": 45.99772727272727,
                "end_time": 46.08181818181818,
                "pitch": 42,
                "velocity": 40,
                "duration": 0.08409090909091077,
                "tempo": 120.0
            },
            {
                "start_time": 46.09772727272727,
                "end_time": 46.18181818181818,
                "pitch": 54,
                "velocity": 40,
                "duration": 0.08409090909091077,
                "tempo": 120.0
            },
            {
                "start_time": 46.19772727272727,
                "end_time": 46.31590909090909,
                "pitch": 42,
                "velocity": 40,
                "duration": 0.11818181818181728,
                "tempo": 120.0
            },
            {
                "start_time": 46.33181818181818,
                "end_time": 46.42045454545455,
                "pitch": 54,
                "velocity": 40,
                "duration": 0.08863636363636829,
                "tempo": 120.0
            },
            {
                "start_time": 46.43863636363636,
                "end_time": 46.525,
                "pitch": 42,
                "velocity": 40,
                "duration": 0.08636363636363598,
                "tempo": 120.0
            },
            {
                "start_time": 46.543181818181814,
                "end_time": 46.66590909090909,
                "pitch": 42,
                "velocity": 40,
                "duration": 0.1227272727272748,
                "tempo": 120.0
            },
            {
                "start_time": 46.68181818181818,
                "end_time": 46.77045454545454,
                "pitch": 54,
                "velocity": 40,
                "duration": 0.08863636363636118,
                "tempo": 120.0
            },
            {
                "start_time": 46.78636363636363,
                "end_time": 46.86818181818182,
                "pitch": 41,
                "velocity": 40,
                "duration": 0.08181818181818556,
                "tempo": 120.0
            },
            {
                "start_time": 46.88409090909091,
                "end_time": 46.99772727272727,
                "pitch": 41,
                "velocity": 40,
                "duration": 0.11363636363635976,
                "tempo": 120.0
            },
            {
                "start_time": 47.01590909090909,
                "end_time": 47.09772727272727,
                "pitch": 53,
                "velocity": 40,
                "duration": 0.08181818181817846,
                "tempo": 120.0
            },
            {
                "start_time": 47.11363636363636,
                "end_time": 47.195454545454545,
                "pitch": 41,
                "velocity": 40,
                "duration": 0.08181818181818556,
                "tempo": 120.0
            },
            {
                "start_time": 47.211363636363636,
                "end_time": 47.32954545454545,
                "pitch": 53,
                "velocity": 40,
                "duration": 0.11818181818181728,
                "tempo": 120.0
            },
            {
                "start_time": 47.345454545454544,
                "end_time": 47.429545454545455,
                "pitch": 41,
                "velocity": 40,
                "duration": 0.08409090909091077,
                "tempo": 120.0
            },
            {
                "start_time": 47.445454545454545,
                "end_time": 47.52954545454545,
                "pitch": 41,
                "velocity": 40,
                "duration": 0.08409090909090366,
                "tempo": 120.0
            },
            {
                "start_time": 47.54545454545454,
                "end_time": 47.768181818181816,
                "pitch": 53,
                "velocity": 40,
                "duration": 0.22272727272727622,
                "tempo": 120.0
            },
            {
                "start_time": 47.78636363636363,
                "end_time": 47.87272727272727,
                "pitch": 41,
                "velocity": 40,
                "duration": 0.08636363636363598,
                "tempo": 120.0
            },
            {
                "start_time": 47.89090909090909,
                "end_time": 48.01363636363636,
                "pitch": 53,
                "velocity": 40,
                "duration": 0.12272727272726769,
                "tempo": 120.0
            },
            {
                "start_time": 48.02954545454545,
                "end_time": 48.11818181818182,
                "pitch": 41,
                "velocity": 40,
                "duration": 0.08863636363636829,
                "tempo": 120.0
            },
            {
                "start_time": 48.13409090909091,
                "end_time": 48.21818181818182,
                "pitch": 53,
                "velocity": 40,
                "duration": 0.08409090909091077,
                "tempo": 120.0
            },
            {
                "start_time": 48.23409090909091,
                "end_time": 48.35227272727273,
                "pitch": 54,
                "velocity": 40,
                "duration": 0.11818181818181728,
                "tempo": 120.0
            },
            {
                "start_time": 48.36818181818182,
                "end_time": 48.45227272727273,
                "pitch": 56,
                "velocity": 40,
                "duration": 0.08409090909091077,
                "tempo": 120.0
            },
            {
                "start_time": 48.46818181818182,
                "end_time": 48.55227272727272,
                "pitch": 36,
                "velocity": 40,
                "duration": 0.08409090909090366,
                "tempo": 120.0
            },
            {
                "start_time": 48.70227272727273,
                "end_time": 48.78636363636363,
                "pitch": 36,
                "velocity": 40,
                "duration": 0.08409090909090366,
                "tempo": 120.0
            },
            {
                "start_time": 48.80227272727272,
                "end_time": 48.88636363636363,
                "pitch": 48,
                "velocity": 40,
                "duration": 0.08409090909091077,
                "tempo": 120.0
            },
            {
                "start_time": 48.90454545454545,
                "end_time": 49.02045454545454,
                "pitch": 36,
                "velocity": 40,
                "duration": 0.11590909090909207,
                "tempo": 120.0
            },
            {
                "start_time": 49.038636363636364,
                "end_time": 49.125,
                "pitch": 48,
                "velocity": 40,
                "duration": 0.08636363636363598,
                "tempo": 120.0
            },
            {
                "start_time": 49.143181818181816,
                "end_time": 49.22954545454545,
                "pitch": 36,
                "velocity": 40,
                "duration": 0.08636363636363598,
                "tempo": 120.0
            },
            {
                "start_time": 49.24772727272727,
                "end_time": 49.37045454545454,
                "pitch": 36,
                "velocity": 40,
                "duration": 0.1227272727272748,
                "tempo": 120.0
            },
            {
                "start_time": 49.38636363636363,
                "end_time": 49.57272727272727,
                "pitch": 48,
                "velocity": 40,
                "duration": 0.1863636363636374,
                "tempo": 120.0
            },
            {
                "start_time": 49.58863636363636,
                "end_time": 49.70454545454545,
                "pitch": 36,
                "velocity": 40,
                "duration": 0.11590909090909207,
                "tempo": 120.0
            },
            {
                "start_time": 49.720454545454544,
                "end_time": 49.80227272727272,
                "pitch": 46,
                "velocity": 40,
                "duration": 0.08181818181817846,
                "tempo": 120.0
            },
            {
                "start_time": 49.81818181818181,
                "end_time": 49.9,
                "pitch": 36,
                "velocity": 40,
                "duration": 0.08181818181818556,
                "tempo": 120.0
            },
            {
                "start_time": 49.91590909090909,
                "end_time": 50.03181818181818,
                "pitch": 47,
                "velocity": 40,
                "duration": 0.11590909090909207,
                "tempo": 120.0
            },
            {
                "start_time": 50.04772727272727,
                "end_time": 50.12954545454545,
                "pitch": 48,
                "velocity": 40,
                "duration": 0.08181818181817846,
                "tempo": 120.0
            },
            {
                "start_time": 50.14545454545454,
                "end_time": 50.22727272727273,
                "pitch": 36,
                "velocity": 40,
                "duration": 0.08181818181818556,
                "tempo": 120.0
            },
            {
                "start_time": 50.24318181818182,
                "end_time": 50.35909090909091,
                "pitch": 48,
                "velocity": 40,
                "duration": 0.11590909090909207,
                "tempo": 120.0
            },
            {
                "start_time": 50.48181818181818,
                "end_time": 50.56818181818181,
                "pitch": 36,
                "velocity": 40,
                "duration": 0.08636363636363598,
                "tempo": 120.0
            },
            {
                "start_time": 50.586363636363636,
                "end_time": 50.709090909090904,
                "pitch": 48,
                "velocity": 40,
                "duration": 0.12272727272726769,
                "tempo": 120.0
            },
            {
                "start_time": 50.724999999999994,
                "end_time": 50.81363636363636,
                "pitch": 36,
                "velocity": 40,
                "duration": 0.08863636363636829,
                "tempo": 120.0
            },
            {
                "start_time": 50.82954545454545,
                "end_time": 50.913636363636364,
                "pitch": 46,
                "velocity": 40,
                "duration": 0.08409090909091077,
                "tempo": 120.0
            },
            {
                "start_time": 50.929545454545455,
                "end_time": 51.04772727272727,
                "pitch": 36,
                "velocity": 40,
                "duration": 0.11818181818181728,
                "tempo": 120.0
            },
            {
                "start_time": 51.06363636363636,
                "end_time": 51.14772727272727,
                "pitch": 36,
                "velocity": 40,
                "duration": 0.08409090909091077,
                "tempo": 120.0
            },
            {
                "start_time": 51.163636363636364,
                "end_time": 51.24772727272727,
                "pitch": 45,
                "velocity": 40,
                "duration": 0.08409090909090366,
                "tempo": 120.0
            },
            {
                "start_time": 51.26363636363636,
                "end_time": 51.38181818181818,
                "pitch": 36,
                "velocity": 40,
                "duration": 0.11818181818182438,
                "tempo": 120.0
            },
            {
                "start_time": 51.39772727272727,
                "end_time": 51.48181818181818,
                "pitch": 36,
                "velocity": 40,
                "duration": 0.08409090909090366,
                "tempo": 120.0
            },
            {
                "start_time": 51.49772727272727,
                "end_time": 51.58181818181818,
                "pitch": 46,
                "velocity": 40,
                "duration": 0.08409090909091077,
                "tempo": 120.0
            },
            {
                "start_time": 51.59772727272727,
                "end_time": 51.715909090909086,
                "pitch": 36,
                "velocity": 40,
                "duration": 0.11818181818181728,
                "tempo": 120.0
            },
            {
                "start_time": 51.73409090909091,
                "end_time": 51.820454545454545,
                "pitch": 48,
                "velocity": 40,
                "duration": 0.08636363636363598,
                "tempo": 120.0
            },
            {
                "start_time": 51.83863636363636,
                "end_time": 51.925,
                "pitch": 36,
                "velocity": 40,
                "duration": 0.08636363636363598,
                "tempo": 120.0
            },
            {
                "start_time": 51.94318181818181,
                "end_time": 52.06590909090909,
                "pitch": 51,
                "velocity": 40,
                "duration": 0.1227272727272748,
                "tempo": 120.0
            },
            {
                "start_time": 52.084090909090904,
                "end_time": 52.17045454545454,
                "pitch": 50,
                "velocity": 40,
                "duration": 0.08636363636363598,
                "tempo": 120.0
            },
            {
                "start_time": 52.18636363636363,
                "end_time": 52.268181818181816,
                "pitch": 42,
                "velocity": 40,
                "duration": 0.08181818181818556,
                "tempo": 120.0
            },
            {
                "start_time": 52.28409090909091,
                "end_time": 52.4,
                "pitch": 42,
                "velocity": 40,
                "duration": 0.11590909090909207,
                "tempo": 120.0
            },
            {
                "start_time": 52.41590909090909,
                "end_time": 52.49772727272727,
                "pitch": 54,
                "velocity": 40,
                "duration": 0.08181818181817846,
                "tempo": 120.0
            },
            {
                "start_time": 52.51363636363636,
                "end_time": 52.595454545454544,
                "pitch": 42,
                "velocity": 40,
                "duration": 0.08181818181818556,
                "tempo": 120.0
            },
            {
                "start_time": 52.611363636363635,
                "end_time": 52.72954545454545,
                "pitch": 54,
                "velocity": 40,
                "duration": 0.11818181818181728,
                "tempo": 120.0
            },
            {
                "start_time": 52.74545454545454,
                "end_time": 52.82954545454545,
                "pitch": 42,
                "velocity": 40,
                "duration": 0.08409090909091077,
                "tempo": 120.0
            },
            {
                "start_time": 52.845454545454544,
                "end_time": 52.929545454545455,
                "pitch": 42,
                "velocity": 40,
                "duration": 0.08409090909091077,
                "tempo": 120.0
            },
            {
                "start_time": 52.945454545454545,
                "end_time": 53.06363636363636,
                "pitch": 42,
                "velocity": 40,
                "duration": 0.11818181818181728,
                "tempo": 120.0
            },
            {
                "start_time": 53.08181818181818,
                "end_time": 53.168181818181814,
                "pitch": 54,
                "velocity": 40,
                "duration": 0.08636363636363598,
                "tempo": 120.0
            },
            {
                "start_time": 53.18636363636363,
                "end_time": 53.27272727272727,
                "pitch": 42,
                "velocity": 40,
                "duration": 0.08636363636364308,
                "tempo": 120.0
            },
            {
                "start_time": 53.29090909090909,
                "end_time": 53.413636363636364,
                "pitch": 54,
                "velocity": 40,
                "duration": 0.1227272727272748,
                "tempo": 120.0
            },
            {
                "start_time": 53.43181818181818,
                "end_time": 53.518181818181816,
                "pitch": 42,
                "velocity": 40,
                "duration": 0.08636363636363598,
                "tempo": 120.0
            },
            {
                "start_time": 53.53409090909091,
                "end_time": 53.61818181818182,
                "pitch": 54,
                "velocity": 40,
                "duration": 0.08409090909091077,
                "tempo": 120.0
            },
            {
                "start_time": 53.63636363636363,
                "end_time": 53.752272727272725,
                "pitch": 42,
                "velocity": 40,
                "duration": 0.11590909090909207,
                "tempo": 120.0
            },
            {
                "start_time": 53.768181818181816,
                "end_time": 53.85227272727273,
                "pitch": 42,
                "velocity": 40,
                "duration": 0.08409090909091077,
                "tempo": 120.0
            },
            {
                "start_time": 53.87045454545454,
                "end_time": 53.95227272727273,
                "pitch": 54,
                "velocity": 40,
                "duration": 0.08181818181818556,
                "tempo": 120.0
            },
            {
                "start_time": 53.96818181818182,
                "end_time": 54.084090909090904,
                "pitch": 41,
                "velocity": 40,
                "duration": 0.11590909090908497,
                "tempo": 120.0
            },
            {
                "start_time": 54.099999999999994,
                "end_time": 54.18181818181818,
                "pitch": 41,
                "velocity": 40,
                "duration": 0.08181818181818556,
                "tempo": 120.0
            },
            {
                "start_time": 54.19772727272727,
                "end_time": 54.27954545454545,
                "pitch": 53,
                "velocity": 40,
                "duration": 0.08181818181817846,
                "tempo": 120.0
            },
            {
                "start_time": 54.29545454545454,
                "end_time": 54.41136363636363,
                "pitch": 41,
                "velocity": 40,
                "duration": 0.11590909090909207,
                "tempo": 120.0
            },
            {
                "start_time": 54.429545454545455,
                "end_time": 54.51590909090909,
                "pitch": 53,
                "velocity": 40,
                "duration": 0.08636363636363598,
                "tempo": 120.0
            },
            {
                "start_time": 54.53409090909091,
                "end_time": 54.62045454545454,
                "pitch": 41,
                "velocity": 40,
                "duration": 0.08636363636363598,
                "tempo": 120.0
            },
            {
                "start_time": 54.63863636363636,
                "end_time": 54.76136363636363,
                "pitch": 41,
                "velocity": 40,
                "duration": 0.1227272727272748,
                "tempo": 120.0
            },
            {
                "start_time": 54.77954545454545,
                "end_time": 54.965909090909086,
                "pitch": 53,
                "velocity": 40,
                "duration": 0.1863636363636374,
                "tempo": 120.0
            },
            {
                "start_time": 54.98181818181818,
                "end_time": 55.099999999999994,
                "pitch": 41,
                "velocity": 40,
                "duration": 0.11818181818181728,
                "tempo": 120.0
            },
            {
                "start_time": 55.115909090909085,
                "end_time": 55.199999999999996,
                "pitch": 53,
                "velocity": 40,
                "duration": 0.08409090909091077,
                "tempo": 120.0
            },
            {
                "start_time": 55.215909090909086,
                "end_time": 55.3,
                "pitch": 41,
                "velocity": 40,
                "duration": 0.08409090909091077,
                "tempo": 120.0
            },
            {
                "start_time": 55.31818181818181,
                "end_time": 55.434090909090905,
                "pitch": 53,
                "velocity": 40,
                "duration": 0.11590909090909207,
                "tempo": 120.0
            },
            {
                "start_time": 55.449999999999996,
                "end_time": 55.53409090909091,
                "pitch": 54,
                "velocity": 40,
                "duration": 0.08409090909091077,
                "tempo": 120.0
            },
            {
                "start_time": 55.55227272727272,
                "end_time": 55.63409090909091,
                "pitch": 56,
                "velocity": 40,
                "duration": 0.08181818181818556,
                "tempo": 120.0
            },
            {
                "start_time": 55.652272727272724,
                "end_time": 55.768181818181816,
                "pitch": 36,
                "velocity": 40,
                "duration": 0.11590909090909207,
                "tempo": 120.0
            },
            {
                "start_time": 55.89090909090909,
                "end_time": 55.97727272727273,
                "pitch": 36,
                "velocity": 40,
                "duration": 0.08636363636363598,
                "tempo": 120.0
            },
            {
                "start_time": 55.99545454545454,
                "end_time": 56.11818181818182,
                "pitch": 48,
                "velocity": 40,
                "duration": 0.1227272727272748,
                "tempo": 120.0
            },
            {
                "start_time": 56.13636363636363,
                "end_time": 56.22272727272727,
                "pitch": 36,
                "velocity": 40,
                "duration": 0.08636363636363598,
                "tempo": 120.0
            },
            {
                "start_time": 56.240909090909085,
                "end_time": 56.32272727272727,
                "pitch": 48,
                "velocity": 40,
                "duration": 0.08181818181818556,
                "tempo": 120.0
            },
            {
                "start_time": 56.340909090909086,
                "end_time": 56.45681818181818,
                "pitch": 36,
                "velocity": 40,
                "duration": 0.11590909090909207,
                "tempo": 120.0
            },
            {
                "start_time": 56.474999999999994,
                "end_time": 56.55681818181818,
                "pitch": 36,
                "velocity": 40,
                "duration": 0.08181818181818556,
                "tempo": 120.0
            },
            {
                "start_time": 56.574999999999996,
                "end_time": 56.788636363636364,
                "pitch": 48,
                "velocity": 40,
                "duration": 0.2136363636363683,
                "tempo": 120.0
            },
            {
                "start_time": 56.804545454545455,
                "end_time": 56.88636363636363,
                "pitch": 36,
                "velocity": 40,
                "duration": 0.08181818181817846,
                "tempo": 120.0
            },
            {
                "start_time": 56.902272727272724,
                "end_time": 56.98409090909091,
                "pitch": 46,
                "velocity": 40,
                "duration": 0.08181818181818556,
                "tempo": 120.0
            },
            {
                "start_time": 57.002272727272725,
                "end_time": 57.115909090909085,
                "pitch": 36,
                "velocity": 40,
                "duration": 0.11363636363635976,
                "tempo": 120.0
            },
            {
                "start_time": 57.13409090909091,
                "end_time": 57.220454545454544,
                "pitch": 47,
                "velocity": 40,
                "duration": 0.08636363636363598,
                "tempo": 120.0
            },
            {
                "start_time": 57.23863636363636,
                "end_time": 57.324999999999996,
                "pitch": 48,
                "velocity": 40,
                "duration": 0.08636363636363598,
                "tempo": 120.0
            },
            {
                "start_time": 57.34318181818182,
                "end_time": 57.465909090909086,
                "pitch": 36,
                "velocity": 40,
                "duration": 0.12272727272726769,
                "tempo": 120.0
            },
            {
                "start_time": 57.48409090909091,
                "end_time": 57.570454545454545,
                "pitch": 48,
                "velocity": 40,
                "duration": 0.08636363636363598,
                "tempo": 120.0
            },
            {
                "start_time": 57.684090909090905,
                "end_time": 57.8,
                "pitch": 36,
                "velocity": 40,
                "duration": 0.11590909090909207,
                "tempo": 120.0
            },
            {
                "start_time": 57.81590909090909,
                "end_time": 57.89772727272727,
                "pitch": 48,
                "velocity": 40,
                "duration": 0.08181818181818556,
                "tempo": 120.0
            },
            {
                "start_time": 57.913636363636364,
                "end_time": 57.99545454545454,
                "pitch": 36,
                "velocity": 40,
                "duration": 0.08181818181817846,
                "tempo": 120.0
            },
            {
                "start_time": 58.01136363636363,
                "end_time": 58.12954545454545,
                "pitch": 46,
                "velocity": 40,
                "duration": 0.11818181818181728,
                "tempo": 120.0
            },
            {
                "start_time": 58.14545454545454,
                "end_time": 58.22954545454545,
                "pitch": 36,
                "velocity": 40,
                "duration": 0.08409090909091077,
                "tempo": 120.0
            },
            {
                "start_time": 58.24545454545454,
                "end_time": 58.32954545454545,
                "pitch": 36,
                "velocity": 40,
                "duration": 0.08409090909091077,
                "tempo": 120.0
            },
            {
                "start_time": 58.34772727272727,
                "end_time": 58.46363636363636,
                "pitch": 45,
                "velocity": 40,
                "duration": 0.11590909090909207,
                "tempo": 120.0
            },
            {
                "start_time": 58.48181818181818,
                "end_time": 58.56818181818181,
                "pitch": 36,
                "velocity": 40,
                "duration": 0.08636363636363598,
                "tempo": 120.0
            },
            {
                "start_time": 58.586363636363636,
                "end_time": 58.67272727272727,
                "pitch": 36,
                "velocity": 40,
                "duration": 0.08636363636363598,
                "tempo": 120.0
            },
            {
                "start_time": 58.69090909090909,
                "end_time": 58.81363636363636,
                "pitch": 46,
                "velocity": 40,
                "duration": 0.1227272727272748,
                "tempo": 120.0
            },
            {
                "start_time": 58.83181818181818,
                "end_time": 58.918181818181814,
                "pitch": 36,
                "velocity": 40,
                "duration": 0.08636363636363598,
                "tempo": 120.0
            },
            {
                "start_time": 58.93636363636363,
                "end_time": 59.02045454545454,
                "pitch": 48,
                "velocity": 40,
                "duration": 0.08409090909091077,
                "tempo": 120.0
            },
            {
                "start_time": 59.038636363636364,
                "end_time": 59.15909090909091,
                "pitch": 36,
                "velocity": 40,
                "duration": 0.12045454545454248,
                "tempo": 120.0
            },
            {
                "start_time": 59.175,
                "end_time": 59.26136363636363,
                "pitch": 51,
                "velocity": 40,
                "duration": 0.08636363636363598,
                "tempo": 120.0
            },
            {
                "start_time": 59.277272727272724,
                "end_time": 59.36363636363636,
                "pitch": 50,
                "velocity": 40,
                "duration": 0.08636363636363598,
                "tempo": 120.0
            },
            {
                "start_time": 59.37954545454545,
                "end_time": 59.49545454545454,
                "pitch": 36,
                "velocity": 40,
                "duration": 0.11590909090909207,
                "tempo": 120.0
            },
            {
                "start_time": 59.51136363636363,
                "end_time": 59.69090909090909,
                "pitch": 36,
                "velocity": 40,
                "duration": 0.17954545454545467,
                "tempo": 120.0
            },
            {
                "start_time": 59.70681818181818,
                "end_time": 59.820454545454545,
                "pitch": 36,
                "velocity": 40,
                "duration": 0.11363636363636687,
                "tempo": 120.0
            },
            {
                "start_time": 59.83863636363636,
                "end_time": 60.03181818181818,
                "pitch": 36,
                "velocity": 40,
                "duration": 0.19318181818182012,
                "tempo": 120.0
            },
            {
                "start_time": 60.04772727272727,
                "end_time": 60.17045454545454,
                "pitch": 46,
                "velocity": 40,
                "duration": 0.12272727272726769,
                "tempo": 120.0
            },
            {
                "start_time": 60.18863636363636,
                "end_time": 60.275,
                "pitch": 48,
                "velocity": 40,
                "duration": 0.08636363636363598,
                "tempo": 120.0
            },
            {
                "start_time": 60.293181818181814,
                "end_time": 60.377272727272725,
                "pitch": 36,
                "velocity": 40,
                "duration": 0.08409090909091077,
                "tempo": 120.0
            },
            {
                "start_time": 60.393181818181816,
                "end_time": 60.611363636363635,
                "pitch": 36,
                "velocity": 40,
                "duration": 0.2181818181818187,
                "tempo": 120.0
            },
            {
                "start_time": 60.627272727272725,
                "end_time": 60.711363636363636,
                "pitch": 36,
                "velocity": 40,
                "duration": 0.08409090909091077,
                "tempo": 120.0
            },
            {
                "start_time": 60.72727272727273,
                "end_time": 60.94090909090909,
                "pitch": 36,
                "velocity": 40,
                "duration": 0.21363636363636118,
                "tempo": 120.0
            },
            {
                "start_time": 60.95681818181818,
                "end_time": 61.038636363636364,
                "pitch": 46,
                "velocity": 40,
                "duration": 0.08181818181818556,
                "tempo": 120.0
            },
            {
                "start_time": 61.054545454545455,
                "end_time": 61.168181818181814,
                "pitch": 48,
                "velocity": 40,
                "duration": 0.11363636363635976,
                "tempo": 120.0
            },
            {
                "start_time": 61.18636363636363,
                "end_time": 61.275,
                "pitch": 36,
                "velocity": 40,
                "duration": 0.08863636363636829,
                "tempo": 120.0
            },
            {
                "start_time": 61.29090909090909,
                "end_time": 61.518181818181816,
                "pitch": 36,
                "velocity": 40,
                "duration": 0.22727272727272663,
                "tempo": 120.0
            },
            {
                "start_time": 61.53636363636363,
                "end_time": 61.62272727272727,
                "pitch": 36,
                "velocity": 40,
                "duration": 0.08636363636363598,
                "tempo": 120.0
            },
            {
                "start_time": 61.64090909090909,
                "end_time": 61.85681818181818,
                "pitch": 36,
                "velocity": 40,
                "duration": 0.2159090909090864,
                "tempo": 120.0
            },
            {
                "start_time": 61.875,
                "end_time": 61.959090909090904,
                "pitch": 46,
                "velocity": 40,
                "duration": 0.08409090909090366,
                "tempo": 120.0
            },
            {
                "start_time": 61.974999999999994,
                "end_time": 62.059090909090905,
                "pitch": 48,
                "velocity": 40,
                "duration": 0.08409090909091077,
                "tempo": 120.0
            },
            {
                "start_time": 62.074999999999996,
                "end_time": 62.19318181818181,
                "pitch": 36,
                "velocity": 40,
                "duration": 0.11818181818181728,
                "tempo": 120.0
            },
            {
                "start_time": 62.209090909090904,
                "end_time": 62.293181818181814,
                "pitch": 53,
                "velocity": 40,
                "duration": 0.08409090909091077,
                "tempo": 120.0
            },
            {
                "start_time": 62.309090909090905,
                "end_time": 62.393181818181816,
                "pitch": 36,
                "velocity": 40,
                "duration": 0.08409090909091077,
                "tempo": 120.0
            },
            {
                "start_time": 62.40909090909091,
                "end_time": 62.527272727272724,
                "pitch": 36,
                "velocity": 40,
                "duration": 0.11818181818181728,
                "tempo": 120.0
            },
            {
                "start_time": 62.543181818181814,
                "end_time": 62.631818181818176,
                "pitch": 51,
                "velocity": 40,
                "duration": 0.08863636363636118,
                "tempo": 120.0
            },
            {
                "start_time": 62.647727272727266,
                "end_time": 62.736363636363635,
                "pitch": 36,
                "velocity": 40,
                "duration": 0.08863636363636829,
                "tempo": 120.0
            },
            {
                "start_time": 62.75454545454545,
                "end_time": 62.875,
                "pitch": 36,
                "velocity": 40,
                "duration": 0.12045454545454959,
                "tempo": 120.0
            },
            {
                "start_time": 62.893181818181816,
                "end_time": 62.98181818181818,
                "pitch": 50,
                "velocity": 40,
                "duration": 0.08863636363636118,
                "tempo": 120.0
            },
            {
                "start_time": 62.99772727272727,
                "end_time": 63.07954545454545,
                "pitch": 41,
                "velocity": 40,
                "duration": 0.08181818181818556,
                "tempo": 120.0
            },
            {
                "start_time": 63.095454545454544,
                "end_time": 63.309090909090905,
                "pitch": 41,
                "velocity": 40,
                "duration": 0.21363636363636118,
                "tempo": 120.0
            },
            {
                "start_time": 63.324999999999996,
                "end_time": 63.40681818181818,
                "pitch": 41,
                "velocity": 40,
                "duration": 0.08181818181818556,
                "tempo": 120.0
            },
            {
                "start_time": 63.42272727272727,
                "end_time": 63.64090909090909,
                "pitch": 41,
                "velocity": 40,
                "duration": 0.2181818181818187,
                "tempo": 120.0
            },
            {
                "start_time": 63.65681818181818,
                "end_time": 63.740909090909085,
                "pitch": 51,
                "velocity": 40,
                "duration": 0.08409090909090366,
                "tempo": 120.0
            },
            {
                "start_time": 63.756818181818176,
                "end_time": 63.875,
                "pitch": 53,
                "velocity": 40,
                "duration": 0.11818181818182438,
                "tempo": 120.0
            },
            {
                "start_time": 63.89090909090909,
                "end_time": 63.97954545454545,
                "pitch": 41,
                "velocity": 40,
                "duration": 0.08863636363636118,
                "tempo": 120.0
            },
            {
                "start_time": 63.99545454545454,
                "end_time": 64.22272727272727,
                "pitch": 41,
                "velocity": 40,
                "duration": 0.22727272727272663,
                "tempo": 120.0
            },
            {
                "start_time": 64.24090909090908,
                "end_time": 64.32954545454545,
                "pitch": 41,
                "velocity": 40,
                "duration": 0.08863636363636829,
                "tempo": 120.0
            },
            {
                "start_time": 64.34545454545454,
                "end_time": 64.56363636363636,
                "pitch": 41,
                "velocity": 40,
                "duration": 0.2181818181818187,
                "tempo": 120.0
            },
            {
                "start_time": 64.57954545454545,
                "end_time": 64.66363636363636,
                "pitch": 51,
                "velocity": 40,
                "duration": 0.08409090909090366,
                "tempo": 120.0
            },
            {
                "start_time": 64.67954545454545,
                "end_time": 64.76363636363637,
                "pitch": 53,
                "velocity": 40,
                "duration": 0.08409090909091788,
                "tempo": 120.0
            },
            {
                "start_time": 64.77954545454546,
                "end_time": 64.89772727272727,
                "pitch": 41,
                "velocity": 40,
                "duration": 0.11818181818181017,
                "tempo": 120.0
            },
            {
                "start_time": 64.91363636363636,
                "end_time": 65.09772727272727,
                "pitch": 41,
                "velocity": 40,
                "duration": 0.1840909090909122,
                "tempo": 120.0
            },
            {
                "start_time": 65.11363636363636,
                "end_time": 65.23181818181818,
                "pitch": 41,
                "velocity": 40,
                "duration": 0.11818181818182438,
                "tempo": 120.0
            },
            {
                "start_time": 65.24772727272727,
                "end_time": 65.33636363636363,
                "pitch": 41,
                "velocity": 40,
                "duration": 0.08863636363635408,
                "tempo": 120.0
            },
            {
                "start_time": 65.35454545454544,
                "end_time": 65.44090909090909,
                "pitch": 51,
                "velocity": 40,
                "duration": 0.08636363636364308,
                "tempo": 120.0
            },
            {
                "start_time": 65.4590909090909,
                "end_time": 65.58181818181818,
                "pitch": 41,
                "velocity": 40,
                "duration": 0.1227272727272748,
                "tempo": 120.0
            },
            {
                "start_time": 65.59772727272727,
                "end_time": 65.68636363636364,
                "pitch": 53,
                "velocity": 40,
                "duration": 0.08863636363636829,
                "tempo": 120.0
            },
            {
                "start_time": 65.70227272727273,
                "end_time": 65.7840909090909,
                "pitch": 41,
                "velocity": 40,
                "duration": 0.08181818181817846,
                "tempo": 120.0
            },
            {
                "start_time": 65.8,
                "end_time": 65.91590909090908,
                "pitch": 41,
                "velocity": 40,
                "duration": 0.11590909090908497,
                "tempo": 120.0
            },
            {
                "start_time": 65.93181818181817,
                "end_time": 66.01363636363637,
                "pitch": 53,
                "velocity": 40,
                "duration": 0.08181818181819267,
                "tempo": 120.0
            },
            {
                "start_time": 66.02954545454546,
                "end_time": 66.11136363636363,
                "pitch": 41,
                "velocity": 40,
                "duration": 0.08181818181817846,
                "tempo": 120.0
            },
            {
                "start_time": 66.12727272727273,
                "end_time": 66.24318181818181,
                "pitch": 41,
                "velocity": 40,
                "duration": 0.11590909090908497,
                "tempo": 120.0
            },
            {
                "start_time": 66.2590909090909,
                "end_time": 66.3409090909091,
                "pitch": 51,
                "velocity": 40,
                "duration": 0.08181818181819267,
                "tempo": 120.0
            },
            {
                "start_time": 66.35681818181818,
                "end_time": 66.43863636363636,
                "pitch": 53,
                "velocity": 40,
                "duration": 0.08181818181817846,
                "tempo": 120.0
            },
            {
                "start_time": 66.45454545454545,
                "end_time": 66.57045454545454,
                "pitch": 53,
                "velocity": 40,
                "duration": 0.11590909090908497,
                "tempo": 120.0
            },
            {
                "start_time": 66.58636363636363,
                "end_time": 66.675,
                "pitch": 36,
                "velocity": 40,
                "duration": 0.08863636363636829,
                "tempo": 120.0
            },
            {
                "start_time": 66.69318181818181,
                "end_time": 66.92045454545455,
                "pitch": 36,
                "velocity": 40,
                "duration": 0.22727272727273373,
                "tempo": 120.0
            },
            {
                "start_time": 66.93636363636364,
                "end_time": 67.02499999999999,
                "pitch": 36,
                "velocity": 40,
                "duration": 0.08863636363635408,
                "tempo": 120.0
            },
            {
                "start_time": 67.04090909090908,
                "end_time": 67.2590909090909,
                "pitch": 36,
                "velocity": 40,
                "duration": 0.2181818181818187,
                "tempo": 120.0
            },
            {
                "start_time": 67.27499999999999,
                "end_time": 67.35909090909091,
                "pitch": 46,
                "velocity": 40,
                "duration": 0.08409090909091788,
                "tempo": 120.0
            },
            {
                "start_time": 67.375,
                "end_time": 67.4590909090909,
                "pitch": 48,
                "velocity": 40,
                "duration": 0.08409090909090366,
                "tempo": 120.0
            },
            {
                "start_time": 67.475,
                "end_time": 67.59318181818182,
                "pitch": 36,
                "velocity": 40,
                "duration": 0.11818181818182438,
                "tempo": 120.0
            },
            {
                "start_time": 67.60909090909091,
                "end_time": 67.79318181818182,
                "pitch": 36,
                "velocity": 40,
                "duration": 0.1840909090909122,
                "tempo": 120.0
            },
            {
                "start_time": 67.80909090909091,
                "end_time": 67.92727272727272,
                "pitch": 36,
                "velocity": 40,
                "duration": 0.11818181818181017,
                "tempo": 120.0
            },
            {
                "start_time": 67.94545454545454,
                "end_time": 68.13636363636363,
                "pitch": 36,
                "velocity": 40,
                "duration": 0.1909090909090878,
                "tempo": 120.0
            },
            {
                "start_time": 68.15454545454546,
                "end_time": 68.27727272727273,
                "pitch": 46,
                "velocity": 40,
                "duration": 0.1227272727272748,
                "tempo": 120.0
            },
            {
                "start_time": 68.29318181818182,
                "end_time": 68.38181818181818,
                "pitch": 48,
                "velocity": 40,
                "duration": 0.08863636363635408,
                "tempo": 120.0
            },
            {
                "start_time": 68.39772727272727,
                "end_time": 68.48181818181818,
                "pitch": 36,
                "velocity": 40,
                "duration": 0.08409090909091788,
                "tempo": 120.0
            },
            {
                "start_time": 68.5,
                "end_time": 68.7159090909091,
                "pitch": 36,
                "velocity": 40,
                "duration": 0.2159090909090935,
                "tempo": 120.0
            },
            {
                "start_time": 68.73181818181818,
                "end_time": 68.81590909090909,
                "pitch": 36,
                "velocity": 40,
                "duration": 0.08409090909090366,
                "tempo": 120.0
            },
            {
                "start_time": 68.83181818181818,
                "end_time": 69.04545454545455,
                "pitch": 36,
                "velocity": 40,
                "duration": 0.2136363636363683,
                "tempo": 120.0
            },
            {
                "start_time": 69.06136363636364,
                "end_time": 69.14318181818182,
                "pitch": 46,
                "velocity": 40,
                "duration": 0.08181818181817846,
                "tempo": 120.0
            },
            {
                "start_time": 69.1590909090909,
                "end_time": 69.27499999999999,
                "pitch": 48,
                "velocity": 40,
                "duration": 0.11590909090908497,
                "tempo": 120.0
            },
            {
                "start_time": 69.29318181818182,
                "end_time": 69.37954545454545,
                "pitch": 36,
                "velocity": 40,
                "duration": 0.08636363636362887,
                "tempo": 120.0
            },
            {
                "start_time": 69.39772727272727,
                "end_time": 69.48409090909091,
                "pitch": 53,
                "velocity": 40,
                "duration": 0.08636363636364308,
                "tempo": 120.0
            },
            {
                "start_time": 69.50227272727273,
                "end_time": 69.625,
                "pitch": 36,
                "velocity": 40,
                "duration": 0.1227272727272748,
                "tempo": 120.0
            },
            {
                "start_time": 69.64090909090909,
                "end_time": 69.72954545454544,
                "pitch": 36,
                "velocity": 40,
                "duration": 0.08863636363635408,
                "tempo": 120.0
            },
            {
                "start_time": 69.74545454545454,
                "end_time": 69.82954545454545,
                "pitch": 51,
                "velocity": 40,
                "duration": 0.08409090909091788,
                "tempo": 120.0
            },
            {
                "start_time": 69.84545454545454,
                "end_time": 69.96363636363635,
                "pitch": 36,
                "velocity": 40,
                "duration": 0.11818181818181017,
                "tempo": 120.0
            },
            {
                "start_time": 69.97954545454544,
                "end_time": 70.06363636363636,
                "pitch": 36,
                "velocity": 40,
                "duration": 0.08409090909091788,
                "tempo": 120.0
            },
            {
                "start_time": 70.07954545454545,
                "end_time": 70.16363636363636,
                "pitch": 50,
                "velocity": 40,
                "duration": 0.08409090909090366,
                "tempo": 120.0
            },
            {
                "start_time": 70.17954545454545,
                "end_time": 70.29545454545455,
                "pitch": 41,
                "velocity": 40,
                "duration": 0.11590909090909918,
                "tempo": 120.0
            },
            {
                "start_time": 70.31136363636364,
                "end_time": 70.49090909090908,
                "pitch": 41,
                "velocity": 40,
                "duration": 0.17954545454544757,
                "tempo": 120.0
            },
            {
                "start_time": 70.50681818181818,
                "end_time": 70.62272727272727,
                "pitch": 41,
                "velocity": 40,
                "duration": 0.11590909090909918,
                "tempo": 120.0
            },
            {
                "start_time": 70.63863636363637,
                "end_time": 70.83636363636363,
                "pitch": 41,
                "velocity": 40,
                "duration": 0.19772727272726343,
                "tempo": 120.0
            },
            {
                "start_time": 70.85454545454544,
                "end_time": 70.97954545454544,
                "pitch": 51,
                "velocity": 40,
                "duration": 0.125,
                "tempo": 120.0
            },
            {
                "start_time": 70.99772727272727,
                "end_time": 71.08636363636363,
                "pitch": 53,
                "velocity": 40,
                "duration": 0.08863636363635408,
                "tempo": 120.0
            },
            {
                "start_time": 71.10454545454544,
                "end_time": 71.18409090909091,
                "pitch": 41,
                "velocity": 40,
                "duration": 0.07954545454546746,
                "tempo": 120.0
            },
            {
                "start_time": 71.20227272727273,
                "end_time": 71.41363636363636,
                "pitch": 41,
                "velocity": 40,
                "duration": 0.21136363636362887,
                "tempo": 120.0
            },
            {
                "start_time": 71.42954545454545,
                "end_time": 71.51136363636363,
                "pitch": 41,
                "velocity": 40,
                "duration": 0.08181818181817846,
                "tempo": 120.0
            },
            {
                "start_time": 71.52954545454546,
                "end_time": 71.74545454545454,
                "pitch": 41,
                "velocity": 40,
                "duration": 0.21590909090907928,
                "tempo": 120.0
            },
            {
                "start_time": 71.76363636363637,
                "end_time": 71.84545454545454,
                "pitch": 51,
                "velocity": 40,
                "duration": 0.08181818181817846,
                "tempo": 120.0
            },
            {
                "start_time": 71.86363636363636,
                "end_time": 71.97954545454544,
                "pitch": 53,
                "velocity": 40,
                "duration": 0.11590909090908497,
                "tempo": 120.0
            },
            {
                "start_time": 71.99772727272727,
                "end_time": 72.0840909090909,
                "pitch": 41,
                "velocity": 40,
                "duration": 0.08636363636362887,
                "tempo": 120.0
            },
            {
                "start_time": 72.10227272727272,
                "end_time": 72.32954545454545,
                "pitch": 41,
                "velocity": 40,
                "duration": 0.22727272727273373,
                "tempo": 120.0
            },
            {
                "start_time": 72.34772727272727,
                "end_time": 72.43409090909091,
                "pitch": 41,
                "velocity": 40,
                "duration": 0.08636363636364308,
                "tempo": 120.0
            },
            {
                "start_time": 72.45,
                "end_time": 72.53181818181818,
                "pitch": 41,
                "velocity": 40,
                "duration": 0.08181818181817846,
                "tempo": 120.0
            },
            {
                "start_time": 72.55,
                "end_time": 72.66363636363636,
                "pitch": 51,
                "velocity": 40,
                "duration": 0.11363636363635976,
                "tempo": 120.0
            },
            {
                "start_time": 72.67954545454545,
                "end_time": 72.76136363636363,
                "pitch": 41,
                "velocity": 40,
                "duration": 0.08181818181817846,
                "tempo": 120.0
            },
            {
                "start_time": 72.77727272727272,
                "end_time": 72.85909090909091,
                "pitch": 53,
                "velocity": 40,
                "duration": 0.08181818181819267,
                "tempo": 120.0
            },
            {
                "start_time": 72.87727272727273,
                "end_time": 72.99318181818181,
                "pitch": 41,
                "velocity": 40,
                "duration": 0.11590909090908497,
                "tempo": 120.0
            },
            {
                "start_time": 73.0090909090909,
                "end_time": 73.09318181818182,
                "pitch": 41,
                "velocity": 40,
                "duration": 0.08409090909091788,
                "tempo": 120.0
            },
            {
                "start_time": 73.11136363636363,
                "end_time": 73.19318181818181,
                "pitch": 53,
                "velocity": 40,
                "duration": 0.08181818181817846,
                "tempo": 120.0
            },
            {
                "start_time": 73.21136363636363,
                "end_time": 73.32727272727273,
                "pitch": 41,
                "velocity": 40,
                "duration": 0.11590909090909918,
                "tempo": 120.0
            },
            {
                "start_time": 73.34545454545454,
                "end_time": 73.43181818181817,
                "pitch": 41,
                "velocity": 40,
                "duration": 0.08636363636362887,
                "tempo": 120.0
            },
            {
                "start_time": 73.45,
                "end_time": 73.53863636363636,
                "pitch": 51,
                "velocity": 40,
                "duration": 0.08863636363635408,
                "tempo": 120.0
            },
            {
                "start_time": 73.55454545454545,
                "end_time": 73.67727272727272,
                "pitch": 53,
                "velocity": 40,
                "duration": 0.1227272727272748,
                "tempo": 120.0
            },
            {
                "start_time": 73.69545454545454,
                "end_time": 73.78181818181818,
                "pitch": 53,
                "velocity": 40,
                "duration": 0.08636363636364308,
                "tempo": 120.0
            },
            {
                "start_time": 73.8,
                "end_time": 73.88181818181818,
                "pitch": 36,
                "velocity": 40,
                "duration": 0.08181818181817846,
                "tempo": 120.0
            },
            {
                "start_time": 73.89999999999999,
                "end_time": 74.11590909090908,
                "pitch": 36,
                "velocity": 40,
                "duration": 0.2159090909090935,
                "tempo": 120.0
            },
            {
                "start_time": 74.1340909090909,
                "end_time": 74.21818181818182,
                "pitch": 36,
                "velocity": 40,
                "duration": 0.08409090909091788,
                "tempo": 120.0
            },
            {
                "start_time": 74.23409090909091,
                "end_time": 74.45227272727273,
                "pitch": 36,
                "velocity": 40,
                "duration": 0.2181818181818187,
                "tempo": 120.0
            },
            {
                "start_time": 74.46818181818182,
                "end_time": 74.55227272727272,
                "pitch": 46,
                "velocity": 40,
                "duration": 0.08409090909090366,
                "tempo": 120.0
            },
            {
                "start_time": 74.56818181818181,
                "end_time": 74.68636363636364,
                "pitch": 48,
                "velocity": 40,
                "duration": 0.11818181818182438,
                "tempo": 120.0
            },
            {
                "start_time": 74.70227272727273,
                "end_time": 74.78863636363636,
                "pitch": 36,
                "velocity": 40,
                "duration": 0.08636363636362887,
                "tempo": 120.0
            },
            {
                "start_time": 74.80454545454545,
                "end_time": 75.02727272727272,
                "pitch": 36,
                "velocity": 40,
                "duration": 0.2227272727272691,
                "tempo": 120.0
            },
            {
                "start_time": 75.04318181818182,
                "end_time": 75.12954545454545,
                "pitch": 36,
                "velocity": 40,
                "duration": 0.08636363636362887,
                "tempo": 120.0
            },
            {
                "start_time": 75.14772727272727,
                "end_time": 75.36818181818181,
                "pitch": 36,
                "velocity": 40,
                "duration": 0.2204545454545439,
                "tempo": 120.0
            },
            {
                "start_time": 75.38636363636363,
                "end_time": 75.47272727272727,
                "pitch": 46,
                "velocity": 40,
                "duration": 0.08636363636364308,
                "tempo": 120.0
            },
            {
                "start_time": 75.48863636363636,
                "end_time": 75.575,
                "pitch": 48,
                "velocity": 40,
                "duration": 0.08636363636364308,
                "tempo": 120.0
            },
            {
                "start_time": 75.5909090909091,
                "end_time": 75.70454545454545,
                "pitch": 36,
                "velocity": 40,
                "duration": 0.11363636363635976,
                "tempo": 120.0
            },
            {
                "start_time": 75.72272727272727,
                "end_time": 75.90227272727272,
                "pitch": 36,
                "velocity": 40,
                "duration": 0.17954545454544757,
                "tempo": 120.0
            },
            {
                "start_time": 75.91818181818182,
                "end_time": 76.03181818181818,
                "pitch": 36,
                "velocity": 40,
                "duration": 0.11363636363635976,
                "tempo": 120.0
            },
            {
                "start_time": 76.05,
                "end_time": 76.24318181818181,
                "pitch": 36,
                "velocity": 40,
                "duration": 0.19318181818181301,
                "tempo": 120.0
            },
            {
                "start_time": 76.2590909090909,
                "end_time": 76.38181818181818,
                "pitch": 46,
                "velocity": 40,
                "duration": 0.1227272727272748,
                "tempo": 120.0
            },
            {
                "start_time": 76.39999999999999,
                "end_time": 76.48636363636363,
                "pitch": 48,
                "velocity": 40,
                "duration": 0.08636363636364308,
                "tempo": 120.0
            },
            {
                "start_time": 76.50454545454545,
                "end_time": 76.58863636363635,
                "pitch": 36,
                "velocity": 40,
                "duration": 0.08409090909090366,
                "tempo": 120.0
            },
            {
                "start_time": 76.60454545454544,
                "end_time": 76.72045454545454,
                "pitch": 53,
                "velocity": 40,
                "duration": 0.11590909090909918,
                "tempo": 120.0
            },
            {
                "start_time": 76.73863636363636,
                "end_time": 76.82272727272726,
                "pitch": 36,
                "velocity": 40,
                "duration": 0.08409090909090366,
                "tempo": 120.0
            },
            {
                "start_time": 76.83863636363635,
                "end_time": 76.92272727272727,
                "pitch": 36,
                "velocity": 40,
                "duration": 0.08409090909091788,
                "tempo": 120.0
            },
            {
                "start_time": 76.93863636363636,
                "end_time": 77.05454545454545,
                "pitch": 51,
                "velocity": 40,
                "duration": 0.11590909090908497,
                "tempo": 120.0
            },
            {
                "start_time": 77.07272727272726,
                "end_time": 77.15681818181818,
                "pitch": 36,
                "velocity": 40,
                "duration": 0.08409090909091788,
                "tempo": 120.0
            },
            {
                "start_time": 77.17272727272727,
                "end_time": 77.25681818181818,
                "pitch": 36,
                "velocity": 40,
                "duration": 0.08409090909090366,
                "tempo": 120.0
            },
            {
                "start_time": 77.27272727272727,
                "end_time": 77.39090909090909,
                "pitch": 50,
                "velocity": 40,
                "duration": 0.11818181818182438,
                "tempo": 120.0
            },
            {
                "start_time": 77.40681818181818,
                "end_time": 77.49318181818181,
                "pitch": 41,
                "velocity": 40,
                "duration": 0.08636363636362887,
                "tempo": 120.0
            },
            {
                "start_time": 77.5090909090909,
                "end_time": 77.73181818181818,
                "pitch": 41,
                "velocity": 40,
                "duration": 0.22272727272728332,
                "tempo": 120.0
            },
            {
                "start_time": 77.75,
                "end_time": 77.8340909090909,
                "pitch": 41,
                "velocity": 40,
                "duration": 0.08409090909090366,
                "tempo": 120.0
            },
            {
                "start_time": 77.85227272727272,
                "end_time": 78.06818181818181,
                "pitch": 41,
                "velocity": 40,
                "duration": 0.2159090909090935,
                "tempo": 120.0
            },
            {
                "start_time": 78.0840909090909,
                "end_time": 78.16818181818181,
                "pitch": 51,
                "velocity": 40,
                "duration": 0.08409090909090366,
                "tempo": 120.0
            },
            {
                "start_time": 78.18636363636364,
                "end_time": 78.26818181818182,
                "pitch": 53,
                "velocity": 40,
                "duration": 0.08181818181817846,
                "tempo": 120.0
            },
            {
                "start_time": 78.28636363636363,
                "end_time": 78.39999999999999,
                "pitch": 41,
                "velocity": 40,
                "duration": 0.11363636363635976,
                "tempo": 120.0
            },
            {
                "start_time": 78.41590909090908,
                "end_time": 78.59545454545454,
                "pitch": 41,
                "velocity": 40,
                "duration": 0.17954545454546178,
                "tempo": 120.0
            },
            {
                "start_time": 78.61136363636363,
                "end_time": 78.72727272727272,
                "pitch": 41,
                "velocity": 40,
                "duration": 0.11590909090908497,
                "tempo": 120.0
            },
            {
                "start_time": 78.74545454545454,
                "end_time": 78.94090909090909,
                "pitch": 41,
                "velocity": 40,
                "duration": 0.19545454545455243,
                "tempo": 120.0
            },
            {
                "start_time": 78.9590909090909,
                "end_time": 79.0840909090909,
                "pitch": 51,
                "velocity": 40,
                "duration": 0.125,
                "tempo": 120.0
            },
            {
                "start_time": 79.10227272727272,
                "end_time": 79.19090909090909,
                "pitch": 53,
                "velocity": 40,
                "duration": 0.08863636363636829,
                "tempo": 120.0
            },
            {
                "start_time": 79.2090909090909,
                "end_time": 79.29090909090908,
                "pitch": 41,
                "velocity": 40,
                "duration": 0.08181818181817846,
                "tempo": 120.0
            },
            {
                "start_time": 79.30681818181817,
                "end_time": 79.51818181818182,
                "pitch": 41,
                "velocity": 40,
                "duration": 0.21136363636364308,
                "tempo": 120.0
            },
            {
                "start_time": 79.53636363636363,
                "end_time": 79.61818181818181,
                "pitch": 41,
                "velocity": 40,
                "duration": 0.08181818181817846,
                "tempo": 120.0
            },
            {
                "start_time": 79.6340909090909,
                "end_time": 79.75,
                "pitch": 41,
                "velocity": 40,
                "duration": 0.11590909090909918,
                "tempo": 120.0
            },
            {
                "start_time": 79.76818181818182,
                "end_time": 79.85,
                "pitch": 51,
                "velocity": 40,
                "duration": 0.08181818181817846,
                "tempo": 120.0
            },
            {
                "start_time": 79.86818181818181,
                "end_time": 79.95227272727273,
                "pitch": 41,
                "velocity": 40,
                "duration": 0.08409090909091788,
                "tempo": 120.0
            },
            {
                "start_time": 79.96818181818182,
                "end_time": 80.0840909090909,
                "pitch": 53,
                "velocity": 40,
                "duration": 0.11590909090908497,
                "tempo": 120.0
            },
            {
                "start_time": 80.10227272727272,
                "end_time": 80.19090909090909,
                "pitch": 41,
                "velocity": 40,
                "duration": 0.08863636363636829,
                "tempo": 120.0
            },
            {
                "start_time": 80.20681818181818,
                "end_time": 80.29545454545455,
                "pitch": 41,
                "velocity": 40,
                "duration": 0.08863636363636829,
                "tempo": 120.0
            },
            {
                "start_time": 80.31136363636364,
                "end_time": 80.43409090909091,
                "pitch": 53,
                "velocity": 40,
                "duration": 0.1227272727272748,
                "tempo": 120.0
            },
            {
                "start_time": 80.45227272727273,
                "end_time": 80.53863636363636,
                "pitch": 41,
                "velocity": 40,
                "duration": 0.08636363636362887,
                "tempo": 120.0
            },
            {
                "start_time": 80.55681818181817,
                "end_time": 80.64090909090909,
                "pitch": 41,
                "velocity": 40,
                "duration": 0.08409090909091788,
                "tempo": 120.0
            },
            {
                "start_time": 80.65681818181818,
                "end_time": 80.77499999999999,
                "pitch": 51,
                "velocity": 40,
                "duration": 0.11818181818181017,
                "tempo": 120.0
            },
            {
                "start_time": 80.79090909090908,
                "end_time": 80.875,
                "pitch": 53,
                "velocity": 40,
                "duration": 0.08409090909091788,
                "tempo": 120.0
            },
            {
                "start_time": 80.89090909090909,
                "end_time": 80.975,
                "pitch": 53,
                "velocity": 40,
                "duration": 0.08409090909090366,
                "tempo": 120.0
            },
            {
                "start_time": 80.99090909090908,
                "end_time": 81.10909090909091,
                "pitch": 36,
                "velocity": 40,
                "duration": 0.11818181818182438,
                "tempo": 120.0
            },
            {
                "start_time": 81.125,
                "end_time": 81.30909090909091,
                "pitch": 36,
                "velocity": 40,
                "duration": 0.1840909090909122,
                "tempo": 120.0
            },
            {
                "start_time": 81.325,
                "end_time": 81.44318181818181,
                "pitch": 36,
                "velocity": 40,
                "duration": 0.11818181818181017,
                "tempo": 120.0
            },
            {
                "start_time": 81.4590909090909,
                "end_time": 81.65227272727272,
                "pitch": 36,
                "velocity": 40,
                "duration": 0.19318181818181301,
                "tempo": 120.0
            },
            {
                "start_time": 81.67045454545455,
                "end_time": 81.79090909090908,
                "pitch": 46,
                "velocity": 40,
                "duration": 0.12045454545453538,
                "tempo": 120.0
            },
            {
                "start_time": 81.80909090909091,
                "end_time": 81.89772727272727,
                "pitch": 48,
                "velocity": 40,
                "duration": 0.08863636363635408,
                "tempo": 120.0
            },
            {
                "start_time": 81.91363636363636,
                "end_time": 81.99545454545454,
                "pitch": 36,
                "velocity": 40,
                "duration": 0.08181818181817846,
                "tempo": 120.0
            },
            {
                "start_time": 82.01136363636363,
                "end_time": 82.225,
                "pitch": 36,
                "velocity": 40,
                "duration": 0.2136363636363683,
                "tempo": 120.0
            },
            {
                "start_time": 82.24090909090908,
                "end_time": 82.32272727272726,
                "pitch": 36,
                "velocity": 40,
                "duration": 0.08181818181817846,
                "tempo": 120.0
            },
            {
                "start_time": 82.33863636363635,
                "end_time": 82.55227272727272,
                "pitch": 36,
                "velocity": 40,
                "duration": 0.2136363636363683,
                "tempo": 120.0
            },
            {
                "start_time": 82.56818181818181,
                "end_time": 82.64999999999999,
                "pitch": 46,
                "velocity": 40,
                "duration": 0.08181818181817846,
                "tempo": 120.0
            },
            {
                "start_time": 82.66590909090908,
                "end_time": 82.78181818181818,
                "pitch": 48,
                "velocity": 40,
                "duration": 0.11590909090909918,
                "tempo": 120.0
            },
            {
                "start_time": 82.79772727272727,
                "end_time": 82.88636363636363,
                "pitch": 36,
                "velocity": 40,
                "duration": 0.08863636363635408,
                "tempo": 120.0
            },
            {
                "start_time": 82.90227272727272,
                "end_time": 83.12954545454545,
                "pitch": 36,
                "velocity": 40,
                "duration": 0.22727272727273373,
                "tempo": 120.0
            },
            {
                "start_time": 83.14772727272727,
                "end_time": 83.23636363636363,
                "pitch": 36,
                "velocity": 40,
                "duration": 0.08863636363636829,
                "tempo": 120.0
            },
            {
                "start_time": 83.25227272727273,
                "end_time": 83.47045454545454,
                "pitch": 36,
                "velocity": 40,
                "duration": 0.2181818181818187,
                "tempo": 120.0
            },
            {
                "start_time": 83.48636363636363,
                "end_time": 83.57045454545454,
                "pitch": 46,
                "velocity": 40,
                "duration": 0.08409090909090366,
                "tempo": 120.0
            },
            {
                "start_time": 83.58636363636363,
                "end_time": 83.67045454545455,
                "pitch": 48,
                "velocity": 40,
                "duration": 0.08409090909091788,
                "tempo": 120.0
            },
            {
                "start_time": 83.68636363636364,
                "end_time": 83.80681818181817,
                "pitch": 36,
                "velocity": 40,
                "duration": 0.12045454545453538,
                "tempo": 120.0
            },
            {
                "start_time": 83.82272727272726,
                "end_time": 83.9090909090909,
                "pitch": 53,
                "velocity": 40,
                "duration": 0.08636363636364308,
                "tempo": 120.0
            },
            {
                "start_time": 83.925,
                "end_time": 84.01136363636363,
                "pitch": 36,
                "velocity": 40,
                "duration": 0.08636363636362887,
                "tempo": 120.0
            },
            {
                "start_time": 84.02954545454546,
                "end_time": 84.14772727272727,
                "pitch": 36,
                "velocity": 40,
                "duration": 0.11818181818181017,
                "tempo": 120.0
            },
            {
                "start_time": 84.16590909090908,
                "end_time": 84.25,
                "pitch": 51,
                "velocity": 40,
                "duration": 0.08409090909091788,
                "tempo": 120.0
            },
            {
                "start_time": 84.26818181818182,
                "end_time": 84.35227272727272,
                "pitch": 36,
                "velocity": 40,
                "duration": 0.08409090909090366,
                "tempo": 120.0
            },
            {
                "start_time": 84.37045454545454,
                "end_time": 84.49090909090908,
                "pitch": 36,
                "velocity": 40,
                "duration": 0.12045454545454959,
                "tempo": 120.0
            },
            {
                "start_time": 84.50681818181818,
                "end_time": 84.59318181818182,
                "pitch": 50,
                "velocity": 40,
                "duration": 0.08636363636364308,
                "tempo": 120.0
            },
            {
                "start_time": 84.60909090909091,
                "end_time": 84.69318181818181,
                "pitch": 41,
                "velocity": 40,
                "duration": 0.08409090909090366,
                "tempo": 120.0
            },
            {
                "start_time": 84.7090909090909,
                "end_time": 84.92727272727272,
                "pitch": 41,
                "velocity": 40,
                "duration": 0.2181818181818187,
                "tempo": 120.0
            },
            {
                "start_time": 84.94318181818181,
                "end_time": 85.02727272727272,
                "pitch": 41,
                "velocity": 40,
                "duration": 0.08409090909090366,
                "tempo": 120.0
            },
            {
                "start_time": 85.04318181818181,
                "end_time": 85.25681818181818,
                "pitch": 41,
                "velocity": 40,
                "duration": 0.2136363636363683,
                "tempo": 120.0
            },
            {
                "start_time": 85.27272727272727,
                "end_time": 85.35454545454544,
                "pitch": 51,
                "velocity": 40,
                "duration": 0.08181818181817846,
                "tempo": 120.0
            },
            {
                "start_time": 85.37045454545454,
                "end_time": 85.48636363636363,
                "pitch": 53,
                "velocity": 40,
                "duration": 0.11590909090909918,
                "tempo": 120.0
            },
            {
                "start_time": 85.50227272727273,
                "end_time": 85.5909090909091,
                "pitch": 41,
                "velocity": 40,
                "duration": 0.08863636363636829,
                "tempo": 120.0
            },
            {
                "start_time": 85.60681818181818,
                "end_time": 85.8340909090909,
                "pitch": 41,
                "velocity": 40,
                "duration": 0.22727272727271952,
                "tempo": 120.0
            },
            {
                "start_time": 85.85227272727272,
                "end_time": 85.94090909090909,
                "pitch": 41,
                "velocity": 40,
                "duration": 0.08863636363636829,
                "tempo": 120.0
            },
            {
                "start_time": 85.95681818181818,
                "end_time": 86.175,
                "pitch": 41,
                "velocity": 40,
                "duration": 0.2181818181818187,
                "tempo": 120.0
            },
            {
                "start_time": 86.19090909090909,
                "end_time": 86.27499999999999,
                "pitch": 51,
                "velocity": 40,
                "duration": 0.08409090909090366,
                "tempo": 120.0
            },
            {
                "start_time": 86.29090909090908,
                "end_time": 86.375,
                "pitch": 53,
                "velocity": 40,
                "duration": 0.08409090909091788,
                "tempo": 120.0
            },
            {
                "start_time": 86.39090909090909,
                "end_time": 86.50454545454545,
                "pitch": 41,
                "velocity": 40,
                "duration": 0.11363636363635976,
                "tempo": 120.0
            },
            {
                "start_time": 86.52272727272727,
                "end_time": 86.70227272727273,
                "pitch": 41,
                "velocity": 40,
                "duration": 0.17954545454546178,
                "tempo": 120.0
            },
            {
                "start_time": 86.71818181818182,
                "end_time": 86.83181818181818,
                "pitch": 41,
                "velocity": 40,
                "duration": 0.11363636363635976,
                "tempo": 120.0
            },
            {
                "start_time": 86.85,
                "end_time": 86.94090909090909,
                "pitch": 41,
                "velocity": 40,
                "duration": 0.09090909090909349,
                "tempo": 120.0
            },
            {
                "start_time": 86.95681818181818,
                "end_time": 87.04772727272727,
                "pitch": 51,
                "velocity": 40,
                "duration": 0.09090909090909349,
                "tempo": 120.0
            },
            {
                "start_time": 87.06590909090909,
                "end_time": 87.19090909090909,
                "pitch": 41,
                "velocity": 40,
                "duration": 0.125,
                "tempo": 120.0
            },
            {
                "start_time": 87.2090909090909,
                "end_time": 87.29772727272727,
                "pitch": 53,
                "velocity": 40,
                "duration": 0.08863636363636829,
                "tempo": 120.0
            },
            {
                "start_time": 87.31363636363636,
                "end_time": 87.39545454545454,
                "pitch": 41,
                "velocity": 40,
                "duration": 0.08181818181817846,
                "tempo": 120.0
            },
            {
                "start_time": 87.41136363636363,
                "end_time": 87.52727272727272,
                "pitch": 41,
                "velocity": 40,
                "duration": 0.11590909090908497,
                "tempo": 120.0
            },
            {
                "start_time": 87.54318181818181,
                "end_time": 87.625,
                "pitch": 53,
                "velocity": 40,
                "duration": 0.08181818181819267,
                "tempo": 120.0
            },
            {
                "start_time": 87.64090909090909,
                "end_time": 87.72272727272727,
                "pitch": 41,
                "velocity": 40,
                "duration": 0.08181818181817846,
                "tempo": 120.0
            },
            {
                "start_time": 87.73863636363636,
                "end_time": 87.85454545454544,
                "pitch": 41,
                "velocity": 40,
                "duration": 0.11590909090908497,
                "tempo": 120.0
            },
            {
                "start_time": 87.87045454545454,
                "end_time": 87.95227272727273,
                "pitch": 51,
                "velocity": 40,
                "duration": 0.08181818181819267,
                "tempo": 120.0
            },
            {
                "start_time": 87.96818181818182,
                "end_time": 88.05,
                "pitch": 53,
                "velocity": 40,
                "duration": 0.08181818181817846,
                "tempo": 120.0
            },
            {
                "start_time": 88.06590909090909,
                "end_time": 88.18181818181817,
                "pitch": 53,
                "velocity": 40,
                "duration": 0.11590909090908497,
                "tempo": 120.0
            },
            {
                "start_time": 88.19772727272726,
                "end_time": 88.28863636363636,
                "pitch": 42,
                "velocity": 40,
                "duration": 0.09090909090909349,
                "tempo": 120.0
            },
            {
                "start_time": 88.30681818181817,
                "end_time": 88.39545454545454,
                "pitch": 42,
                "velocity": 40,
                "duration": 0.08863636363636829,
                "tempo": 120.0
            },
            {
                "start_time": 88.41363636363636,
                "end_time": 88.53863636363636,
                "pitch": 54,
                "velocity": 40,
                "duration": 0.125,
                "tempo": 120.0
            },
            {
                "start_time": 88.55681818181817,
                "end_time": 88.64545454545454,
                "pitch": 42,
                "velocity": 40,
                "duration": 0.08863636363636829,
                "tempo": 120.0
            },
            {
                "start_time": 88.66363636363636,
                "end_time": 88.74772727272727,
                "pitch": 54,
                "velocity": 40,
                "duration": 0.08409090909091788,
                "tempo": 120.0
            },
            {
                "start_time": 88.76363636363637,
                "end_time": 88.88181818181818,
                "pitch": 42,
                "velocity": 40,
                "duration": 0.11818181818181017,
                "tempo": 120.0
            },
            {
                "start_time": 88.89772727272727,
                "end_time": 88.98181818181818,
                "pitch": 42,
                "velocity": 40,
                "duration": 0.08409090909091788,
                "tempo": 120.0
            },
            {
                "start_time": 88.99772727272727,
                "end_time": 89.08181818181818,
                "pitch": 42,
                "velocity": 40,
                "duration": 0.08409090909090366,
                "tempo": 120.0
            },
            {
                "start_time": 89.09772727272727,
                "end_time": 89.2159090909091,
                "pitch": 54,
                "velocity": 40,
                "duration": 0.11818181818182438,
                "tempo": 120.0
            },
            {
                "start_time": 89.23181818181818,
                "end_time": 89.31590909090909,
                "pitch": 42,
                "velocity": 40,
                "duration": 0.08409090909090366,
                "tempo": 120.0
            },
            {
                "start_time": 89.33181818181818,
                "end_time": 89.41590909090908,
                "pitch": 54,
                "velocity": 40,
                "duration": 0.08409090909090366,
                "tempo": 120.0
            },
            {
                "start_time": 89.43181818181817,
                "end_time": 89.55,
                "pitch": 42,
                "velocity": 40,
                "duration": 0.11818181818182438,
                "tempo": 120.0
            },
            {
                "start_time": 89.56590909090909,
                "end_time": 89.65227272727272,
                "pitch": 54,
                "velocity": 40,
                "duration": 0.08636363636362887,
                "tempo": 120.0
            },
            {
                "start_time": 89.66818181818181,
                "end_time": 89.75454545454545,
                "pitch": 42,
                "velocity": 40,
                "duration": 0.08636363636364308,
                "tempo": 120.0
            },
            {
                "start_time": 89.77272727272727,
                "end_time": 89.89090909090909,
                "pitch": 42,
                "velocity": 40,
                "duration": 0.11818181818182438,
                "tempo": 120.0
            },
            {
                "start_time": 89.9090909090909,
                "end_time": 89.99318181818181,
                "pitch": 54,
                "velocity": 40,
                "duration": 0.08409090909090366,
                "tempo": 120.0
            },
            {
                "start_time": 90.0090909090909,
                "end_time": 90.0909090909091,
                "pitch": 41,
                "velocity": 40,
                "duration": 0.08181818181819267,
                "tempo": 120.0
            },
            {
                "start_time": 90.10909090909091,
                "end_time": 90.22272727272727,
                "pitch": 41,
                "velocity": 40,
                "duration": 0.11363636363635976,
                "tempo": 120.0
            },
            {
                "start_time": 90.23863636363636,
                "end_time": 90.32045454545454,
                "pitch": 53,
                "velocity": 40,
                "duration": 0.08181818181817846,
                "tempo": 120.0
            },
            {
                "start_time": 90.33636363636363,
                "end_time": 90.41818181818181,
                "pitch": 41,
                "velocity": 40,
                "duration": 0.08181818181817846,
                "tempo": 120.0
            },
            {
                "start_time": 90.43636363636364,
                "end_time": 90.55227272727272,
                "pitch": 53,
                "velocity": 40,
                "duration": 0.11590909090908497,
                "tempo": 120.0
            },
            {
                "start_time": 90.56818181818181,
                "end_time": 90.65227272727272,
                "pitch": 41,
                "velocity": 40,
                "duration": 0.08409090909090366,
                "tempo": 120.0
            },
            {
                "start_time": 90.67045454545455,
                "end_time": 90.75227272727273,
                "pitch": 41,
                "velocity": 40,
                "duration": 0.08181818181817846,
                "tempo": 120.0
            },
            {
                "start_time": 90.77045454545454,
                "end_time": 90.99090909090908,
                "pitch": 53,
                "velocity": 40,
                "duration": 0.2204545454545439,
                "tempo": 120.0
            },
            {
                "start_time": 91.0090909090909,
                "end_time": 91.09772727272727,
                "pitch": 41,
                "velocity": 40,
                "duration": 0.08863636363636829,
                "tempo": 120.0
            },
            {
                "start_time": 91.11363636363636,
                "end_time": 91.23636363636363,
                "pitch": 53,
                "velocity": 40,
                "duration": 0.1227272727272748,
                "tempo": 120.0
            },
            {
                "start_time": 91.25454545454545,
                "end_time": 91.3409090909091,
                "pitch": 41,
                "velocity": 40,
                "duration": 0.08636363636364308,
                "tempo": 120.0
            },
            {
                "start_time": 91.35909090909091,
                "end_time": 91.44090909090909,
                "pitch": 53,
                "velocity": 40,
                "duration": 0.08181818181817846,
                "tempo": 120.0
            },
            {
                "start_time": 91.4590909090909,
                "end_time": 91.57499999999999,
                "pitch": 54,
                "velocity": 40,
                "duration": 0.11590909090908497,
                "tempo": 120.0
            },
            {
                "start_time": 91.59318181818182,
                "end_time": 91.675,
                "pitch": 56,
                "velocity": 40,
                "duration": 0.08181818181817846,
                "tempo": 120.0
            },
            {
                "start_time": 91.69318181818181,
                "end_time": 91.77727272727272,
                "pitch": 36,
                "velocity": 40,
                "duration": 0.08409090909090366,
                "tempo": 120.0
            },
            {
                "start_time": 91.92727272727272,
                "end_time": 92.01136363636363,
                "pitch": 36,
                "velocity": 40,
                "duration": 0.08409090909090366,
                "tempo": 120.0
            },
            {
                "start_time": 92.02727272727272,
                "end_time": 92.11136363636363,
                "pitch": 48,
                "velocity": 40,
                "duration": 0.08409090909091788,
                "tempo": 120.0
            },
            {
                "start_time": 92.12727272727273,
                "end_time": 92.24318181818181,
                "pitch": 36,
                "velocity": 40,
                "duration": 0.11590909090908497,
                "tempo": 120.0
            },
            {
                "start_time": 92.26136363636363,
                "end_time": 92.35,
                "pitch": 48,
                "velocity": 40,
                "duration": 0.08863636363636829,
                "tempo": 120.0
            },
            {
                "start_time": 92.36590909090908,
                "end_time": 92.45454545454545,
                "pitch": 36,
                "velocity": 40,
                "duration": 0.08863636363636829,
                "tempo": 120.0
            },
            {
                "start_time": 92.47272727272727,
                "end_time": 92.59318181818182,
                "pitch": 36,
                "velocity": 40,
                "duration": 0.12045454545454959,
                "tempo": 120.0
            },
            {
                "start_time": 92.61136363636363,
                "end_time": 92.8,
                "pitch": 48,
                "velocity": 40,
                "duration": 0.1886363636363626,
                "tempo": 120.0
            },
            {
                "start_time": 92.81590909090909,
                "end_time": 92.9340909090909,
                "pitch": 36,
                "velocity": 40,
                "duration": 0.11818181818181017,
                "tempo": 120.0
            },
            {
                "start_time": 92.94999999999999,
                "end_time": 93.0340909090909,
                "pitch": 46,
                "velocity": 40,
                "duration": 0.08409090909091788,
                "tempo": 120.0
            },
            {
                "start_time": 93.05,
                "end_time": 93.1340909090909,
                "pitch": 36,
                "velocity": 40,
                "duration": 0.08409090909090366,
                "tempo": 120.0
            },
            {
                "start_time": 93.14999999999999,
                "end_time": 93.26363636363637,
                "pitch": 47,
                "velocity": 40,
                "duration": 0.11363636363637397,
                "tempo": 120.0
            },
            {
                "start_time": 93.28181818181818,
                "end_time": 93.36363636363636,
                "pitch": 48,
                "velocity": 40,
                "duration": 0.08181818181817846,
                "tempo": 120.0
            },
            {
                "start_time": 93.37954545454545,
                "end_time": 93.46136363636363,
                "pitch": 36,
                "velocity": 40,
                "duration": 0.08181818181817846,
                "tempo": 120.0
            },
            {
                "start_time": 93.47727272727272,
                "end_time": 93.59090909090908,
                "pitch": 48,
                "velocity": 40,
                "duration": 0.11363636363635976,
                "tempo": 120.0
            },
            {
                "start_time": 93.71363636363635,
                "end_time": 93.80227272727272,
                "pitch": 36,
                "velocity": 40,
                "duration": 0.08863636363636829,
                "tempo": 120.0
            },
            {
                "start_time": 93.82045454545454,
                "end_time": 93.94090909090909,
                "pitch": 48,
                "velocity": 40,
                "duration": 0.12045454545454959,
                "tempo": 120.0
            },
            {
                "start_time": 93.9590909090909,
                "end_time": 94.04772727272727,
                "pitch": 36,
                "velocity": 40,
                "duration": 0.08863636363636829,
                "tempo": 120.0
            },
            {
                "start_time": 94.06363636363636,
                "end_time": 94.14772727272727,
                "pitch": 46,
                "velocity": 40,
                "duration": 0.08409090909090366,
                "tempo": 120.0
            },
            {
                "start_time": 94.16363636363636,
                "end_time": 94.28181818181818,
                "pitch": 36,
                "velocity": 40,
                "duration": 0.11818181818182438,
                "tempo": 120.0
            },
            {
                "start_time": 94.29772727272727,
                "end_time": 94.38181818181818,
                "pitch": 36,
                "velocity": 40,
                "duration": 0.08409090909090366,
                "tempo": 120.0
            },
            {
                "start_time": 94.39772727272727,
                "end_time": 94.48181818181818,
                "pitch": 45,
                "velocity": 40,
                "duration": 0.08409090909091788,
                "tempo": 120.0
            },
            {
                "start_time": 94.49772727272727,
                "end_time": 94.61590909090908,
                "pitch": 36,
                "velocity": 40,
                "duration": 0.11818181818181017,
                "tempo": 120.0
            },
            {
                "start_time": 94.63181818181818,
                "end_time": 94.71590909090908,
                "pitch": 36,
                "velocity": 40,
                "duration": 0.08409090909090366,
                "tempo": 120.0
            },
            {
                "start_time": 94.73181818181818,
                "end_time": 94.81590909090909,
                "pitch": 46,
                "velocity": 40,
                "duration": 0.08409090909090366,
                "tempo": 120.0
            },
            {
                "start_time": 94.83181818181818,
                "end_time": 94.94999999999999,
                "pitch": 36,
                "velocity": 40,
                "duration": 0.11818181818181017,
                "tempo": 120.0
            },
            {
                "start_time": 94.96590909090908,
                "end_time": 95.05454545454545,
                "pitch": 48,
                "velocity": 40,
                "duration": 0.08863636363636829,
                "tempo": 120.0
            },
            {
                "start_time": 95.07272727272726,
                "end_time": 95.1590909090909,
                "pitch": 36,
                "velocity": 40,
                "duration": 0.08636363636364308,
                "tempo": 120.0
            },
            {
                "start_time": 95.17727272727272,
                "end_time": 95.3,
                "pitch": 51,
                "velocity": 40,
                "duration": 0.1227272727272748,
                "tempo": 120.0
            },
            {
                "start_time": 95.31590909090909,
                "end_time": 95.40454545454546,
                "pitch": 50,
                "velocity": 40,
                "duration": 0.08863636363636829,
                "tempo": 120.0
            },
            {
                "start_time": 95.42045454545455,
                "end_time": 95.50227272727273,
                "pitch": 42,
                "velocity": 40,
                "duration": 0.08181818181817846,
                "tempo": 120.0
            },
            {
                "start_time": 95.51818181818182,
                "end_time": 95.63181818181818,
                "pitch": 42,
                "velocity": 40,
                "duration": 0.11363636363635976,
                "tempo": 120.0
            },
            {
                "start_time": 95.64999999999999,
                "end_time": 95.73181818181818,
                "pitch": 54,
                "velocity": 40,
                "duration": 0.08181818181819267,
                "tempo": 120.0
            },
            {
                "start_time": 95.74772727272727,
                "end_time": 95.82954545454545,
                "pitch": 42,
                "velocity": 40,
                "duration": 0.08181818181817846,
                "tempo": 120.0
            },
            {
                "start_time": 95.84545454545454,
                "end_time": 95.96363636363635,
                "pitch": 54,
                "velocity": 40,
                "duration": 0.11818181818181017,
                "tempo": 120.0
            },
            {
                "start_time": 95.97954545454544,
                "end_time": 96.06363636363636,
                "pitch": 42,
                "velocity": 40,
                "duration": 0.08409090909091788,
                "tempo": 120.0
            },
            {
                "start_time": 96.07954545454545,
                "end_time": 96.16363636363636,
                "pitch": 42,
                "velocity": 40,
                "duration": 0.08409090909090366,
                "tempo": 120.0
            },
            {
                "start_time": 96.17954545454545,
                "end_time": 96.29772727272727,
                "pitch": 42,
                "velocity": 40,
                "duration": 0.11818181818182438,
                "tempo": 120.0
            },
            {
                "start_time": 96.31363636363636,
                "end_time": 96.40227272727272,
                "pitch": 54,
                "velocity": 40,
                "duration": 0.08863636363635408,
                "tempo": 120.0
            },
            {
                "start_time": 96.42045454545455,
                "end_time": 96.50681818181818,
                "pitch": 42,
                "velocity": 40,
                "duration": 0.08636363636362887,
                "tempo": 120.0
            },
            {
                "start_time": 96.52499999999999,
                "end_time": 96.64772727272727,
                "pitch": 54,
                "velocity": 40,
                "duration": 0.1227272727272748,
                "tempo": 120.0
            },
            {
                "start_time": 96.66363636363636,
                "end_time": 96.75227272727273,
                "pitch": 42,
                "velocity": 40,
                "duration": 0.08863636363636829,
                "tempo": 120.0
            },
            {
                "start_time": 96.76818181818182,
                "end_time": 96.85,
                "pitch": 54,
                "velocity": 40,
                "duration": 0.08181818181817846,
                "tempo": 120.0
            },
            {
                "start_time": 96.86590909090908,
                "end_time": 96.97954545454544,
                "pitch": 42,
                "velocity": 40,
                "duration": 0.11363636363635976,
                "tempo": 120.0
            },
            {
                "start_time": 96.99772727272727,
                "end_time": 97.07954545454545,
                "pitch": 42,
                "velocity": 40,
                "duration": 0.08181818181817846,
                "tempo": 120.0
            },
            {
                "start_time": 97.09545454545454,
                "end_time": 97.17727272727272,
                "pitch": 54,
                "velocity": 40,
                "duration": 0.08181818181817846,
                "tempo": 120.0
            },
            {
                "start_time": 97.19318181818181,
                "end_time": 97.30681818181817,
                "pitch": 41,
                "velocity": 40,
                "duration": 0.11363636363635976,
                "tempo": 120.0
            },
            {
                "start_time": 97.32272727272726,
                "end_time": 97.40454545454546,
                "pitch": 41,
                "velocity": 40,
                "duration": 0.08181818181819267,
                "tempo": 120.0
            },
            {
                "start_time": 97.42272727272727,
                "end_time": 97.50454545454545,
                "pitch": 53,
                "velocity": 40,
                "duration": 0.08181818181817846,
                "tempo": 120.0
            },
            {
                "start_time": 97.52045454545454,
                "end_time": 97.6340909090909,
                "pitch": 41,
                "velocity": 40,
                "duration": 0.11363636363635976,
                "tempo": 120.0
            },
            {
                "start_time": 97.65227272727272,
                "end_time": 97.74318181818181,
                "pitch": 53,
                "velocity": 40,
                "duration": 0.09090909090909349,
                "tempo": 120.0
            },
            {
                "start_time": 97.7590909090909,
                "end_time": 97.85,
                "pitch": 41,
                "velocity": 40,
                "duration": 0.09090909090909349,
                "tempo": 120.0
            },
            {
                "start_time": 97.86818181818181,
                "end_time": 97.99318181818181,
                "pitch": 41,
                "velocity": 40,
                "duration": 0.125,
                "tempo": 120.0
            },
            {
                "start_time": 98.01136363636363,
                "end_time": 98.19999999999999,
                "pitch": 53,
                "velocity": 40,
                "duration": 0.1886363636363626,
                "tempo": 120.0
            },
            {
                "start_time": 98.21818181818182,
                "end_time": 98.3340909090909,
                "pitch": 41,
                "velocity": 40,
                "duration": 0.11590909090908497,
                "tempo": 120.0
            },
            {
                "start_time": 98.35,
                "end_time": 98.4340909090909,
                "pitch": 53,
                "velocity": 40,
                "duration": 0.08409090909090366,
                "tempo": 120.0
            },
            {
                "start_time": 98.45227272727273,
                "end_time": 98.5340909090909,
                "pitch": 41,
                "velocity": 40,
                "duration": 0.08181818181817846,
                "tempo": 120.0
            },
            {
                "start_time": 98.55227272727272,
                "end_time": 98.66818181818181,
                "pitch": 53,
                "velocity": 40,
                "duration": 0.11590909090908497,
                "tempo": 120.0
            },
            {
                "start_time": 98.68636363636364,
                "end_time": 98.76818181818182,
                "pitch": 54,
                "velocity": 40,
                "duration": 0.08181818181817846,
                "tempo": 120.0
            },
            {
                "start_time": 98.78636363636363,
                "end_time": 98.86818181818181,
                "pitch": 56,
                "velocity": 40,
                "duration": 0.08181818181817846,
                "tempo": 120.0
            },
            {
                "start_time": 98.88636363636363,
                "end_time": 99.00227272727273,
                "pitch": 36,
                "velocity": 40,
                "duration": 0.11590909090909918,
                "tempo": 120.0
            },
            {
                "start_time": 99.125,
                "end_time": 99.21363636363635,
                "pitch": 36,
                "velocity": 40,
                "duration": 0.08863636363635408,
                "tempo": 120.0
            },
            {
                "start_time": 99.22954545454544,
                "end_time": 99.35227272727272,
                "pitch": 48,
                "velocity": 40,
                "duration": 0.1227272727272748,
                "tempo": 120.0
            },
            {
                "start_time": 99.37045454545454,
                "end_time": 99.45681818181818,
                "pitch": 36,
                "velocity": 40,
                "duration": 0.08636363636364308,
                "tempo": 120.0
            },
            {
                "start_time": 99.47272727272727,
                "end_time": 99.55454545454545,
                "pitch": 48,
                "velocity": 40,
                "duration": 0.08181818181817846,
                "tempo": 120.0
            },
            {
                "start_time": 99.57272727272726,
                "end_time": 99.68636363636364,
                "pitch": 36,
                "velocity": 40,
                "duration": 0.11363636363637397,
                "tempo": 120.0
            },
            {
                "start_time": 99.70227272727273,
                "end_time": 99.7840909090909,
                "pitch": 36,
                "velocity": 40,
                "duration": 0.08181818181817846,
                "tempo": 120.0
            },
            {
                "start_time": 99.8,
                "end_time": 100.01590909090909,
                "pitch": 48,
                "velocity": 40,
                "duration": 0.2159090909090935,
                "tempo": 120.0
            },
            {
                "start_time": 100.0340909090909,
                "end_time": 100.11590909090908,
                "pitch": 36,
                "velocity": 40,
                "duration": 0.08181818181817846,
                "tempo": 120.0
            },
            {
                "start_time": 100.1340909090909,
                "end_time": 100.21590909090908,
                "pitch": 46,
                "velocity": 40,
                "duration": 0.08181818181817846,
                "tempo": 120.0
            },
            {
                "start_time": 100.23409090909091,
                "end_time": 100.35,
                "pitch": 36,
                "velocity": 40,
                "duration": 0.11590909090908497,
                "tempo": 120.0
            },
            {
                "start_time": 100.36818181818181,
                "end_time": 100.45454545454545,
                "pitch": 47,
                "velocity": 40,
                "duration": 0.08636363636364308,
                "tempo": 120.0
            },
            {
                "start_time": 100.47272727272727,
                "end_time": 100.56136363636364,
                "pitch": 48,
                "velocity": 40,
                "duration": 0.08863636363636829,
                "tempo": 120.0
            },
            {
                "start_time": 100.57727272727273,
                "end_time": 100.69999999999999,
                "pitch": 36,
                "velocity": 40,
                "duration": 0.12272727272726058,
                "tempo": 120.0
            },
            {
                "start_time": 100.71818181818182,
                "end_time": 100.80454545454545,
                "pitch": 48,
                "velocity": 40,
                "duration": 0.08636363636362887,
                "tempo": 120.0
            },
            {
                "start_time": 100.92045454545455,
                "end_time": 101.0340909090909,
                "pitch": 36,
                "velocity": 40,
                "duration": 0.11363636363635976,
                "tempo": 120.0
            },
            {
                "start_time": 101.05,
                "end_time": 101.13181818181818,
                "pitch": 48,
                "velocity": 40,
                "duration": 0.08181818181817846,
                "tempo": 120.0
            },
            {
                "start_time": 101.14772727272727,
                "end_time": 101.22954545454544,
                "pitch": 36,
                "velocity": 40,
                "duration": 0.08181818181817846,
                "tempo": 120.0
            },
            {
                "start_time": 101.24772727272727,
                "end_time": 101.36363636363636,
                "pitch": 46,
                "velocity": 40,
                "duration": 0.11590909090908497,
                "tempo": 120.0
            },
            {
                "start_time": 101.37954545454545,
                "end_time": 101.46363636363635,
                "pitch": 36,
                "velocity": 40,
                "duration": 0.08409090909090366,
                "tempo": 120.0
            },
            {
                "start_time": 101.48181818181817,
                "end_time": 101.56363636363636,
                "pitch": 36,
                "velocity": 40,
                "duration": 0.08181818181819267,
                "tempo": 120.0
            },
            {
                "start_time": 101.58181818181818,
                "end_time": 101.69772727272726,
                "pitch": 45,
                "velocity": 40,
                "duration": 0.11590909090908497,
                "tempo": 120.0
            },
            {
                "start_time": 101.71590909090908,
                "end_time": 101.80227272727272,
                "pitch": 36,
                "velocity": 40,
                "duration": 0.08636363636364308,
                "tempo": 120.0
            },
            {
                "start_time": 101.82045454545454,
                "end_time": 101.9090909090909,
                "pitch": 36,
                "velocity": 40,
                "duration": 0.08863636363636829,
                "tempo": 120.0
            },
            {
                "start_time": 101.925,
                "end_time": 102.04772727272727,
                "pitch": 46,
                "velocity": 40,
                "duration": 0.1227272727272748,
                "tempo": 120.0
            },
            {
                "start_time": 102.06590909090909,
                "end_time": 102.15227272727272,
                "pitch": 36,
                "velocity": 40,
                "duration": 0.08636363636362887,
                "tempo": 120.0
            },
            {
                "start_time": 102.17045454545455,
                "end_time": 102.25227272727273,
                "pitch": 48,
                "velocity": 40,
                "duration": 0.08181818181817846,
                "tempo": 120.0
            },
            {
                "start_time": 102.27045454545454,
                "end_time": 102.38636363636363,
                "pitch": 36,
                "velocity": 40,
                "duration": 0.11590909090908497,
                "tempo": 120.0
            },
            {
                "start_time": 102.40454545454546,
                "end_time": 102.48636363636363,
                "pitch": 51,
                "velocity": 40,
                "duration": 0.08181818181817846,
                "tempo": 120.0
            },
            {
                "start_time": 102.50454545454545,
                "end_time": 102.58863636363635,
                "pitch": 50,
                "velocity": 40,
                "duration": 0.08409090909090366,
                "tempo": 120.0
            },
            {
                "start_time": 102.60454545454544,
                "end_time": 102.72045454545454,
                "pitch": 36,
                "velocity": 40,
                "duration": 0.11590909090909918,
                "tempo": 120.0
            },
            {
                "start_time": 102.73863636363636,
                "end_time": 102.92272727272727,
                "pitch": 36,
                "velocity": 40,
                "duration": 0.1840909090909122,
                "tempo": 120.0
            },
            {
                "start_time": 102.93863636363636,
                "end_time": 103.05454545454545,
                "pitch": 36,
                "velocity": 40,
                "duration": 0.11590909090908497,
                "tempo": 120.0
            },
            {
                "start_time": 103.07272727272726,
                "end_time": 103.26590909090909,
                "pitch": 36,
                "velocity": 40,
                "duration": 0.19318181818182723,
                "tempo": 120.0
            },
            {
                "start_time": 103.28181818181818,
                "end_time": 103.40454545454546,
                "pitch": 46,
                "velocity": 40,
                "duration": 0.1227272727272748,
                "tempo": 120.0
            }
        ],
        "Lead 2 (sawtooth)": [
            {
                "start_time": 16.474999999999998,
                "end_time": 18.62272727272727,
                "pitch": 70,
                "velocity": 80,
                "duration": 2.1477272727272734,
                "tempo": 120.0
            },
            {
                "start_time": 18.64090909090909,
                "end_time": 18.825,
                "pitch": 69,
                "velocity": 80,
                "duration": 0.18409090909090864,
                "tempo": 120.0
            },
            {
                "start_time": 18.84090909090909,
                "end_time": 19.05909090909091,
                "pitch": 70,
                "velocity": 80,
                "duration": 0.2181818181818187,
                "tempo": 120.0
            },
            {
                "start_time": 19.075,
                "end_time": 19.29090909090909,
                "pitch": 69,
                "velocity": 80,
                "duration": 0.21590909090908994,
                "tempo": 120.0
            },
            {
                "start_time": 19.30909090909091,
                "end_time": 19.397727272727273,
                "pitch": 70,
                "velocity": 80,
                "duration": 0.08863636363636473,
                "tempo": 120.0
            },
            {
                "start_time": 19.413636363636364,
                "end_time": 19.64090909090909,
                "pitch": 72,
                "velocity": 80,
                "duration": 0.22727272727272663,
                "tempo": 120.0
            },
            {
                "start_time": 19.659090909090907,
                "end_time": 19.845454545454544,
                "pitch": 70,
                "velocity": 80,
                "duration": 0.1863636363636374,
                "tempo": 120.0
            },
            {
                "start_time": 19.861363636363635,
                "end_time": 19.974999999999998,
                "pitch": 69,
                "velocity": 80,
                "duration": 0.11363636363636331,
                "tempo": 120.0
            },
            {
                "start_time": 19.99090909090909,
                "end_time": 21.429545454545455,
                "pitch": 63,
                "velocity": 80,
                "duration": 1.4386363636363662,
                "tempo": 120.0
            },
            {
                "start_time": 21.445454545454545,
                "end_time": 21.529545454545453,
                "pitch": 62,
                "velocity": 80,
                "duration": 0.08409090909090722,
                "tempo": 120.0
            },
            {
                "start_time": 21.545454545454543,
                "end_time": 21.663636363636364,
                "pitch": 63,
                "velocity": 80,
                "duration": 0.11818181818182083,
                "tempo": 120.0
            },
            {
                "start_time": 21.679545454545455,
                "end_time": 21.763636363636362,
                "pitch": 62,
                "velocity": 80,
                "duration": 0.08409090909090722,
                "tempo": 120.0
            },
            {
                "start_time": 21.779545454545453,
                "end_time": 23.345454545454544,
                "pitch": 58,
                "velocity": 80,
                "duration": 1.5659090909090914,
                "tempo": 120.0
            },
            {
                "start_time": 23.361363636363635,
                "end_time": 23.695454545454545,
                "pitch": 72,
                "velocity": 80,
                "duration": 0.33409090909091077,
                "tempo": 120.0
            },
            {
                "start_time": 23.711363636363636,
                "end_time": 25.811363636363634,
                "pitch": 70,
                "velocity": 80,
                "duration": 2.099999999999998,
                "tempo": 120.0
            },
            {
                "start_time": 25.827272727272724,
                "end_time": 26.04090909090909,
                "pitch": 69,
                "velocity": 80,
                "duration": 0.21363636363636473,
                "tempo": 120.0
            },
            {
                "start_time": 26.05909090909091,
                "end_time": 26.25,
                "pitch": 70,
                "velocity": 80,
                "duration": 0.19090909090909136,
                "tempo": 120.0
            },
            {
                "start_time": 26.268181818181816,
                "end_time": 26.495454545454542,
                "pitch": 69,
                "velocity": 80,
                "duration": 0.22727272727272663,
                "tempo": 120.0
            },
            {
                "start_time": 26.511363636363637,
                "end_time": 26.595454545454544,
                "pitch": 70,
                "velocity": 80,
                "duration": 0.08409090909090722,
                "tempo": 120.0
            },
            {
                "start_time": 26.611363636363635,
                "end_time": 26.729545454545452,
                "pitch": 72,
                "velocity": 80,
                "duration": 0.11818181818181728,
                "tempo": 120.0
            },
            {
                "start_time": 26.845454545454544,
                "end_time": 28.745454545454542,
                "pitch": 77,
                "velocity": 80,
                "duration": 1.8999999999999986,
                "tempo": 120.0
            },
            {
                "start_time": 30.575,
                "end_time": 30.893181818181816,
                "pitch": 72,
                "velocity": 80,
                "duration": 0.31818181818181657,
                "tempo": 120.0
            },
            {
                "start_time": 30.909090909090907,
                "end_time": 33.013636363636365,
                "pitch": 70,
                "velocity": 80,
                "duration": 2.104545454545459,
                "tempo": 120.0
            },
            {
                "start_time": 33.03181818181818,
                "end_time": 33.263636363636365,
                "pitch": 69,
                "velocity": 80,
                "duration": 0.23181818181818414,
                "tempo": 120.0
            },
            {
                "start_time": 33.279545454545456,
                "end_time": 33.49318181818182,
                "pitch": 70,
                "velocity": 80,
                "duration": 0.21363636363636118,
                "tempo": 120.0
            },
            {
                "start_time": 33.50909090909091,
                "end_time": 33.68863636363636,
                "pitch": 69,
                "velocity": 80,
                "duration": 0.17954545454545467,
                "tempo": 120.0
            },
            {
                "start_time": 33.70681818181818,
                "end_time": 33.82272727272727,
                "pitch": 70,
                "velocity": 80,
                "duration": 0.11590909090909207,
                "tempo": 120.0
            },
            {
                "start_time": 33.83863636363636,
                "end_time": 34.02272727272727,
                "pitch": 72,
                "velocity": 80,
                "duration": 0.1840909090909122,
                "tempo": 120.0
            },
            {
                "start_time": 34.04090909090909,
                "end_time": 34.25909090909091,
                "pitch": 70,
                "velocity": 80,
                "duration": 0.2181818181818187,
                "tempo": 120.0
            },
            {
                "start_time": 34.277272727272724,
                "end_time": 34.361363636363635,
                "pitch": 69,
                "velocity": 80,
                "duration": 0.08409090909091077,
                "tempo": 120.0
            },
            {
                "start_time": 34.37954545454545,
                "end_time": 35.85454545454545,
                "pitch": 63,
                "velocity": 80,
                "duration": 1.4750000000000014,
                "tempo": 120.0
            },
            {
                "start_time": 35.87045454545454,
                "end_time": 35.95909090909091,
                "pitch": 62,
                "velocity": 80,
                "duration": 0.08863636363636829,
                "tempo": 120.0
            },
            {
                "start_time": 35.975,
                "end_time": 36.059090909090905,
                "pitch": 63,
                "velocity": 80,
                "duration": 0.08409090909090366,
                "tempo": 120.0
            },
            {
                "start_time": 36.074999999999996,
                "end_time": 36.19318181818181,
                "pitch": 62,
                "velocity": 80,
                "duration": 0.11818181818181728,
                "tempo": 120.0
            },
            {
                "start_time": 36.20909090909091,
                "end_time": 37.74090909090909,
                "pitch": 58,
                "velocity": 80,
                "duration": 1.5318181818181813,
                "tempo": 120.0
            },
            {
                "start_time": 37.75909090909091,
                "end_time": 38.074999999999996,
                "pitch": 72,
                "velocity": 80,
                "duration": 0.3159090909090878,
                "tempo": 120.0
            },
            {
                "start_time": 38.09318181818182,
                "end_time": 40.24545454545454,
                "pitch": 70,
                "velocity": 80,
                "duration": 2.152272727272724,
                "tempo": 120.0
            },
            {
                "start_time": 40.26363636363636,
                "end_time": 40.445454545454545,
                "pitch": 69,
                "velocity": 80,
                "duration": 0.18181818181818699,
                "tempo": 120.0
            },
            {
                "start_time": 40.46363636363636,
                "end_time": 40.675,
                "pitch": 70,
                "velocity": 80,
                "duration": 0.21136363636363598,
                "tempo": 120.0
            },
            {
                "start_time": 40.69090909090909,
                "end_time": 40.904545454545456,
                "pitch": 69,
                "velocity": 80,
                "duration": 0.2136363636363683,
                "tempo": 120.0
            },
            {
                "start_time": 40.92272727272727,
                "end_time": 41.01136363636363,
                "pitch": 70,
                "velocity": 80,
                "duration": 0.08863636363636118,
                "tempo": 120.0
            },
            {
                "start_time": 41.029545454545456,
                "end_time": 41.11818181818182,
                "pitch": 72,
                "velocity": 80,
                "duration": 0.08863636363636118,
                "tempo": 120.0
            },
            {
                "start_time": 41.27954545454545,
                "end_time": 43.143181818181816,
                "pitch": 77,
                "velocity": 80,
                "duration": 1.8636363636363669,
                "tempo": 120.0
            },
            {
                "start_time": 44.974999999999994,
                "end_time": 59.69090909090909,
                "pitch": 73,
                "velocity": 80,
                "duration": 14.715909090909093,
                "tempo": 120.0
            },
            {
                "start_time": 59.70681818181818,
                "end_time": 61.85681818181818,
                "pitch": 70,
                "velocity": 80,
                "duration": 2.1499999999999986,
                "tempo": 120.0
            },
            {
                "start_time": 61.875,
                "end_time": 62.059090909090905,
                "pitch": 69,
                "velocity": 80,
                "duration": 0.18409090909090509,
                "tempo": 120.0
            },
            {
                "start_time": 62.074999999999996,
                "end_time": 62.293181818181814,
                "pitch": 70,
                "velocity": 80,
                "duration": 0.2181818181818187,
                "tempo": 120.0
            },
            {
                "start_time": 62.309090909090905,
                "end_time": 62.527272727272724,
                "pitch": 69,
                "velocity": 80,
                "duration": 0.2181818181818187,
                "tempo": 120.0
            },
            {
                "start_time": 62.543181818181814,
                "end_time": 62.631818181818176,
                "pitch": 70,
                "velocity": 80,
                "duration": 0.08863636363636118,
                "tempo": 120.0
            },
            {
                "start_time": 62.647727272727266,
                "end_time": 62.875,
                "pitch": 72,
                "velocity": 80,
                "duration": 0.22727272727273373,
                "tempo": 120.0
            },
            {
                "start_time": 62.893181818181816,
                "end_time": 63.07954545454545,
                "pitch": 70,
                "velocity": 80,
                "duration": 0.1863636363636374,
                "tempo": 120.0
            },
            {
                "start_time": 63.095454545454544,
                "end_time": 63.209090909090904,
                "pitch": 69,
                "velocity": 80,
                "duration": 0.11363636363635976,
                "tempo": 120.0
            },
            {
                "start_time": 63.22727272727273,
                "end_time": 64.66363636363636,
                "pitch": 63,
                "velocity": 80,
                "duration": 1.4363636363636303,
                "tempo": 120.0
            },
            {
                "start_time": 64.67954545454545,
                "end_time": 64.76363636363637,
                "pitch": 62,
                "velocity": 80,
                "duration": 0.08409090909091788,
                "tempo": 120.0
            },
            {
                "start_time": 64.77954545454546,
                "end_time": 64.89772727272727,
                "pitch": 63,
                "velocity": 80,
                "duration": 0.11818181818181017,
                "tempo": 120.0
            },
            {
                "start_time": 64.91363636363636,
                "end_time": 64.99772727272727,
                "pitch": 62,
                "velocity": 80,
                "duration": 0.08409090909091788,
                "tempo": 120.0
            },
            {
                "start_time": 65.01363636363637,
                "end_time": 66.57045454545454,
                "pitch": 58,
                "velocity": 80,
                "duration": 1.5568181818181728,
                "tempo": 120.0
            },
            {
                "start_time": 66.58636363636363,
                "end_time": 66.92045454545455,
                "pitch": 72,
                "velocity": 80,
                "duration": 0.3340909090909179,
                "tempo": 120.0
            },
            {
                "start_time": 66.93636363636364,
                "end_time": 69.04545454545455,
                "pitch": 70,
                "velocity": 80,
                "duration": 2.1090909090909093,
                "tempo": 120.0
            },
            {
                "start_time": 69.06136363636364,
                "end_time": 69.27499999999999,
                "pitch": 69,
                "velocity": 80,
                "duration": 0.21363636363635408,
                "tempo": 120.0
            },
            {
                "start_time": 69.29318181818182,
                "end_time": 69.48409090909091,
                "pitch": 70,
                "velocity": 80,
                "duration": 0.1909090909090878,
                "tempo": 120.0
            },
            {
                "start_time": 69.50227272727273,
                "end_time": 69.72954545454544,
                "pitch": 69,
                "velocity": 80,
                "duration": 0.22727272727271952,
                "tempo": 120.0
            },
            {
                "start_time": 69.74545454545454,
                "end_time": 69.82954545454545,
                "pitch": 70,
                "velocity": 80,
                "duration": 0.08409090909091788,
                "tempo": 120.0
            },
            {
                "start_time": 69.84545454545454,
                "end_time": 69.96363636363635,
                "pitch": 72,
                "velocity": 80,
                "duration": 0.11818181818181017,
                "tempo": 120.0
            },
            {
                "start_time": 70.07954545454545,
                "end_time": 71.97954545454544,
                "pitch": 77,
                "velocity": 80,
                "duration": 1.8999999999999915,
                "tempo": 120.0
            },
            {
                "start_time": 73.8,
                "end_time": 74.11590909090908,
                "pitch": 72,
                "velocity": 80,
                "duration": 0.3159090909090878,
                "tempo": 120.0
            },
            {
                "start_time": 74.1340909090909,
                "end_time": 76.24318181818181,
                "pitch": 70,
                "velocity": 80,
                "duration": 2.1090909090909093,
                "tempo": 120.0
            },
            {
                "start_time": 76.2590909090909,
                "end_time": 76.48636363636363,
                "pitch": 69,
                "velocity": 80,
                "duration": 0.22727272727273373,
                "tempo": 120.0
            },
            {
                "start_time": 76.50454545454545,
                "end_time": 76.72045454545454,
                "pitch": 70,
                "velocity": 80,
                "duration": 0.2159090909090935,
                "tempo": 120.0
            },
            {
                "start_time": 76.73863636363636,
                "end_time": 76.92272727272727,
                "pitch": 69,
                "velocity": 80,
                "duration": 0.1840909090909122,
                "tempo": 120.0
            },
            {
                "start_time": 76.93863636363636,
                "end_time": 77.05454545454545,
                "pitch": 70,
                "velocity": 80,
                "duration": 0.11590909090908497,
                "tempo": 120.0
            },
            {
                "start_time": 77.07272727272726,
                "end_time": 77.25681818181818,
                "pitch": 72,
                "velocity": 80,
                "duration": 0.1840909090909122,
                "tempo": 120.0
            },
            {
                "start_time": 77.27272727272727,
                "end_time": 77.49318181818181,
                "pitch": 70,
                "velocity": 80,
                "duration": 0.2204545454545439,
                "tempo": 120.0
            },
            {
                "start_time": 77.5090909090909,
                "end_time": 77.59545454545454,
                "pitch": 69,
                "velocity": 80,
                "duration": 0.08636363636364308,
                "tempo": 120.0
            },
            {
                "start_time": 77.61136363636363,
                "end_time": 79.0840909090909,
                "pitch": 63,
                "velocity": 80,
                "duration": 1.472727272727269,
                "tempo": 120.0
            },
            {
                "start_time": 79.10227272727272,
                "end_time": 79.19090909090909,
                "pitch": 62,
                "velocity": 80,
                "duration": 0.08863636363636829,
                "tempo": 120.0
            },
            {
                "start_time": 79.2090909090909,
                "end_time": 79.29090909090908,
                "pitch": 63,
                "velocity": 80,
                "duration": 0.08181818181817846,
                "tempo": 120.0
            },
            {
                "start_time": 79.30681818181817,
                "end_time": 79.42045454545455,
                "pitch": 62,
                "velocity": 80,
                "duration": 0.11363636363637397,
                "tempo": 120.0
            },
            {
                "start_time": 79.43636363636364,
                "end_time": 80.975,
                "pitch": 58,
                "velocity": 80,
                "duration": 1.538636363636357,
                "tempo": 120.0
            },
            {
                "start_time": 80.99090909090908,
                "end_time": 81.30909090909091,
                "pitch": 72,
                "velocity": 80,
                "duration": 0.3181818181818272,
                "tempo": 120.0
            },
            {
                "start_time": 81.325,
                "end_time": 83.47045454545454,
                "pitch": 70,
                "velocity": 80,
                "duration": 2.145454545454541,
                "tempo": 120.0
            },
            {
                "start_time": 83.48636363636363,
                "end_time": 83.67045454545455,
                "pitch": 69,
                "velocity": 80,
                "duration": 0.1840909090909122,
                "tempo": 120.0
            },
            {
                "start_time": 83.68636363636364,
                "end_time": 83.9090909090909,
                "pitch": 70,
                "velocity": 80,
                "duration": 0.2227272727272691,
                "tempo": 120.0
            },
            {
                "start_time": 83.925,
                "end_time": 84.14772727272727,
                "pitch": 69,
                "velocity": 80,
                "duration": 0.2227272727272691,
                "tempo": 120.0
            },
            {
                "start_time": 84.16590909090908,
                "end_time": 84.25,
                "pitch": 70,
                "velocity": 80,
                "duration": 0.08409090909091788,
                "tempo": 120.0
            },
            {
                "start_time": 84.26818181818182,
                "end_time": 84.35227272727272,
                "pitch": 72,
                "velocity": 80,
                "duration": 0.08409090909090366,
                "tempo": 120.0
            },
            {
                "start_time": 84.50681818181818,
                "end_time": 86.375,
                "pitch": 77,
                "velocity": 80,
                "duration": 1.8681818181818244,
                "tempo": 120.0
            }
        ],
        "Harpsichord": [
            {
                "start_time": 46.543181818181814,
                "end_time": 46.66590909090909,
                "pitch": 72,
                "velocity": 80,
                "duration": 0.1227272727272748,
                "tempo": 120.0
            },
            {
                "start_time": 46.68181818181818,
                "end_time": 46.77045454545454,
                "pitch": 70,
                "velocity": 80,
                "duration": 0.08863636363636118,
                "tempo": 120.0
            },
            {
                "start_time": 46.78636363636363,
                "end_time": 47.87272727272727,
                "pitch": 72,
                "velocity": 80,
                "duration": 1.086363636363636,
                "tempo": 120.0
            },
            {
                "start_time": 47.89090909090909,
                "end_time": 48.35227272727273,
                "pitch": 73,
                "velocity": 80,
                "duration": 0.461363636363636,
                "tempo": 120.0
            },
            {
                "start_time": 48.36818181818182,
                "end_time": 48.55227272727272,
                "pitch": 75,
                "velocity": 80,
                "duration": 0.18409090909090509,
                "tempo": 120.0
            },
            {
                "start_time": 48.56818181818181,
                "end_time": 48.68636363636364,
                "pitch": 73,
                "velocity": 80,
                "duration": 0.11818181818182438,
                "tempo": 120.0
            },
            {
                "start_time": 48.70227272727273,
                "end_time": 48.78636363636363,
                "pitch": 72,
                "velocity": 80,
                "duration": 0.08409090909090366,
                "tempo": 120.0
            },
            {
                "start_time": 48.80227272727272,
                "end_time": 50.35909090909091,
                "pitch": 70,
                "velocity": 80,
                "duration": 1.556818181818187,
                "tempo": 120.0
            },
            {
                "start_time": 52.18636363636363,
                "end_time": 53.518181818181816,
                "pitch": 73,
                "velocity": 80,
                "duration": 1.3318181818181856,
                "tempo": 120.0
            },
            {
                "start_time": 53.768181818181816,
                "end_time": 53.85227272727273,
                "pitch": 72,
                "velocity": 80,
                "duration": 0.08409090909091077,
                "tempo": 120.0
            },
            {
                "start_time": 53.87045454545454,
                "end_time": 53.95227272727273,
                "pitch": 70,
                "velocity": 80,
                "duration": 0.08181818181818556,
                "tempo": 120.0
            },
            {
                "start_time": 53.96818181818182,
                "end_time": 55.3,
                "pitch": 75,
                "velocity": 80,
                "duration": 1.3318181818181785,
                "tempo": 120.0
            },
            {
                "start_time": 55.31818181818181,
                "end_time": 55.53409090909091,
                "pitch": 77,
                "velocity": 80,
                "duration": 0.2159090909090935,
                "tempo": 120.0
            },
            {
                "start_time": 55.55227272727272,
                "end_time": 55.768181818181816,
                "pitch": 80,
                "velocity": 80,
                "duration": 0.2159090909090935,
                "tempo": 120.0
            },
            {
                "start_time": 55.78636363636363,
                "end_time": 57.570454545454545,
                "pitch": 82,
                "velocity": 80,
                "duration": 1.7840909090909136,
                "tempo": 120.0
            },
            {
                "start_time": 59.37954545454545,
                "end_time": 89.75454545454545,
                "pitch": 72,
                "velocity": 80,
                "duration": 30.375,
                "tempo": 120.0
            },
            {
                "start_time": 89.77272727272727,
                "end_time": 89.89090909090909,
                "pitch": 72,
                "velocity": 80,
                "duration": 0.11818181818182438,
                "tempo": 120.0
            },
            {
                "start_time": 89.9090909090909,
                "end_time": 89.99318181818181,
                "pitch": 70,
                "velocity": 80,
                "duration": 0.08409090909090366,
                "tempo": 120.0
            },
            {
                "start_time": 90.0090909090909,
                "end_time": 91.09772727272727,
                "pitch": 72,
                "velocity": 80,
                "duration": 1.0886363636363683,
                "tempo": 120.0
            },
            {
                "start_time": 91.11363636363636,
                "end_time": 91.57499999999999,
                "pitch": 73,
                "velocity": 80,
                "duration": 0.46136363636362887,
                "tempo": 120.0
            },
            {
                "start_time": 91.59318181818182,
                "end_time": 91.77727272727272,
                "pitch": 75,
                "velocity": 80,
                "duration": 0.18409090909089798,
                "tempo": 120.0
            },
            {
                "start_time": 91.79318181818181,
                "end_time": 91.9090909090909,
                "pitch": 73,
                "velocity": 80,
                "duration": 0.11590909090909918,
                "tempo": 120.0
            },
            {
                "start_time": 91.92727272727272,
                "end_time": 92.01136363636363,
                "pitch": 72,
                "velocity": 80,
                "duration": 0.08409090909090366,
                "tempo": 120.0
            },
            {
                "start_time": 92.02727272727272,
                "end_time": 93.59090909090908,
                "pitch": 70,
                "velocity": 80,
                "duration": 1.5636363636363626,
                "tempo": 120.0
            },
            {
                "start_time": 95.42045454545455,
                "end_time": 96.75227272727273,
                "pitch": 73,
                "velocity": 80,
                "duration": 1.3318181818181785,
                "tempo": 120.0
            },
            {
                "start_time": 96.99772727272727,
                "end_time": 97.07954545454545,
                "pitch": 72,
                "velocity": 80,
                "duration": 0.08181818181817846,
                "tempo": 120.0
            },
            {
                "start_time": 97.09545454545454,
                "end_time": 97.17727272727272,
                "pitch": 70,
                "velocity": 80,
                "duration": 0.08181818181817846,
                "tempo": 120.0
            },
            {
                "start_time": 97.19318181818181,
                "end_time": 98.5340909090909,
                "pitch": 75,
                "velocity": 80,
                "duration": 1.3409090909090935,
                "tempo": 120.0
            },
            {
                "start_time": 98.55227272727272,
                "end_time": 98.76818181818182,
                "pitch": 77,
                "velocity": 80,
                "duration": 0.2159090909090935,
                "tempo": 120.0
            },
            {
                "start_time": 98.78636363636363,
                "end_time": 99.00227272727273,
                "pitch": 80,
                "velocity": 80,
                "duration": 0.2159090909090935,
                "tempo": 120.0
            },
            {
                "start_time": 99.02045454545454,
                "end_time": 100.80454545454545,
                "pitch": 82,
                "velocity": 80,
                "duration": 1.7840909090909065,
                "tempo": 120.0
            }
        ]
    }
}