{
    "track_id": "After Burner (FM) - 02 - Final Take Off",
    "mood": "happy",
    "instruments": {
        "Electric Guitar (clean)": [
            {
                "start_time": 0.0,
                "end_time": 0.09999999999999999,
                "pitch": 40,
                "velocity": 40,
                "duration": 0.09999999999999999,
                "tempo": 120.0
            },
            {
                "start_time": 0.1159090909090909,
                "end_time": 0.19999999999999998,
                "pitch": 42,
                "velocity": 40,
                "duration": 0.08409090909090908,
                "tempo": 120.0
            },
            {
                "start_time": 0.2159090909090909,
                "end_time": 0.28409090909090906,
                "pitch": 45,
                "velocity": 40,
                "duration": 0.06818181818181815,
                "tempo": 120.0
            },
            {
                "start_time": 0.3159090909090909,
                "end_time": 0.39999999999999997,
                "pitch": 47,
                "velocity": 40,
                "duration": 0.08409090909090905,
                "tempo": 120.0
            },
            {
                "start_time": 0.4159090909090909,
                "end_time": 0.5,
                "pitch": 45,
                "velocity": 40,
                "duration": 0.0840909090909091,
                "tempo": 120.0
            },
            {
                "start_time": 0.5181818181818182,
                "end_time": 0.5840909090909091,
                "pitch": 42,
                "velocity": 40,
                "duration": 0.06590909090909092,
                "tempo": 120.0
            },
            {
                "start_time": 0.6022727272727273,
                "end_time": 0.7863636363636364,
                "pitch": 33,
                "velocity": 40,
                "duration": 0.18409090909090908,
                "tempo": 120.0
            },
            {
                "start_time": 0.8022727272727272,
                "end_time": 1.0022727272727272,
                "pitch": 33,
                "velocity": 40,
                "duration": 0.19999999999999996,
                "tempo": 120.0
            },
            {
                "start_time": 1.0204545454545455,
                "end_time": 1.2022727272727272,
                "pitch": 33,
                "velocity": 40,
                "duration": 0.18181818181818166,
                "tempo": 120.0
            },
            {
                "start_time": 1.2204545454545455,
                "end_time": 1.3045454545454545,
                "pitch": 45,
                "velocity": 40,
                "duration": 0.084090909090909,
                "tempo": 120.0
            },
            {
                "start_time": 1.3227272727272728,
                "end_time": 1.5113636363636362,
                "pitch": 33,
                "velocity": 40,
                "duration": 0.1886363636363635,
                "tempo": 120.0
            },
            {
                "start_time": 1.5272727272727271,
                "end_time": 1.6136363636363635,
                "pitch": 33,
                "velocity": 40,
                "duration": 0.08636363636363642,
                "tempo": 120.0
            },
            {
                "start_time": 1.6295454545454544,
                "end_time": 2.2113636363636364,
                "pitch": 33,
                "velocity": 40,
                "duration": 0.581818181818182,
                "tempo": 120.0
            },
            {
                "start_time": 2.227272727272727,
                "end_time": 2.3136363636363635,
                "pitch": 43,
                "velocity": 40,
                "duration": 0.08636363636363642,
                "tempo": 120.0
            },
            {
                "start_time": 2.3295454545454546,
                "end_time": 2.5159090909090907,
                "pitch": 45,
                "velocity": 40,
                "duration": 0.18636363636363606,
                "tempo": 120.0
            },
            {
                "start_time": 2.534090909090909,
                "end_time": 2.6159090909090907,
                "pitch": 45,
                "velocity": 40,
                "duration": 0.08181818181818157,
                "tempo": 120.0
            },
            {
                "start_time": 2.634090909090909,
                "end_time": 2.815909090909091,
                "pitch": 33,
                "velocity": 40,
                "duration": 0.1818181818181821,
                "tempo": 120.0
            },
            {
                "start_time": 2.834090909090909,
                "end_time": 2.9159090909090906,
                "pitch": 45,
                "velocity": 40,
                "duration": 0.08181818181818157,
                "tempo": 120.0
            },
            {
                "start_time": 2.934090909090909,
                "end_time": 3.1159090909090907,
                "pitch": 33,
                "velocity": 40,
                "duration": 0.18181818181818166,
                "tempo": 120.0
            },
            {
                "start_time": 3.134090909090909,
                "end_time": 3.215909090909091,
                "pitch": 33,
                "velocity": 40,
                "duration": 0.08181818181818201,
                "tempo": 120.0
            },
            {
                "start_time": 3.234090909090909,
                "end_time": 3.518181818181818,
                "pitch": 33,
                "velocity": 40,
                "duration": 0.28409090909090917,
                "tempo": 120.0
            },
            {
                "start_time": 3.5340909090909087,
                "end_time": 3.818181818181818,
                "pitch": 33,
                "velocity": 40,
                "duration": 0.28409090909090917,
                "tempo": 120.0
            },
            {
                "start_time": 3.836363636363636,
                "end_time": 3.918181818181818,
                "pitch": 40,
                "velocity": 40,
                "duration": 0.08181818181818201,
                "tempo": 120.0
            },
            {
                "start_time": 3.936363636363636,
                "end_time": 4.018181818181818,
                "pitch": 42,
                "velocity": 40,
                "duration": 0.08181818181818157,
                "tempo": 120.0
            },
            {
                "start_time": 4.036363636363636,
                "end_time": 4.225,
                "pitch": 33,
                "velocity": 40,
                "duration": 0.1886363636363635,
                "tempo": 120.0
            },
            {
                "start_time": 4.24090909090909,
                "end_time": 4.429545454545455,
                "pitch": 33,
                "velocity": 40,
                "duration": 0.18863636363636438,
                "tempo": 120.0
            },
            {
                "start_time": 4.445454545454545,
                "end_time": 4.5249999999999995,
                "pitch": 45,
                "velocity": 40,
                "duration": 0.07954545454545414,
                "tempo": 120.0
            },
            {
                "start_time": 4.540909090909091,
                "end_time": 4.715909090909091,
                "pitch": 33,
                "velocity": 40,
                "duration": 0.17499999999999982,
                "tempo": 120.0
            },
            {
                "start_time": 4.7318181818181815,
                "end_time": 4.8113636363636365,
                "pitch": 33,
                "velocity": 40,
                "duration": 0.07954545454545503,
                "tempo": 120.0
            },
            {
                "start_time": 4.827272727272727,
                "end_time": 5.113636363636363,
                "pitch": 33,
                "velocity": 40,
                "duration": 0.28636363636363615,
                "tempo": 120.0
            },
            {
                "start_time": 5.129545454545454,
                "end_time": 5.415909090909091,
                "pitch": 45,
                "velocity": 40,
                "duration": 0.28636363636363704,
                "tempo": 120.0
            },
            {
                "start_time": 5.431818181818182,
                "end_time": 5.515909090909091,
                "pitch": 43,
                "velocity": 40,
                "duration": 0.084090909090909,
                "tempo": 120.0
            },
            {
                "start_time": 5.534090909090909,
                "end_time": 5.715909090909091,
                "pitch": 45,
                "velocity": 40,
                "duration": 0.18181818181818166,
                "tempo": 120.0
            },
            {
                "start_time": 5.7340909090909085,
                "end_time": 5.8159090909090905,
                "pitch": 45,
                "velocity": 40,
                "duration": 0.08181818181818201,
                "tempo": 120.0
            },
            {
                "start_time": 5.834090909090909,
                "end_time": 6.015909090909091,
                "pitch": 33,
                "velocity": 40,
                "duration": 0.18181818181818166,
                "tempo": 120.0
            },
            {
                "start_time": 6.034090909090909,
                "end_time": 6.120454545454545,
                "pitch": 45,
                "velocity": 40,
                "duration": 0.08636363636363598,
                "tempo": 120.0
            },
            {
                "start_time": 6.136363636363636,
                "end_time": 6.324999999999999,
                "pitch": 33,
                "velocity": 40,
                "duration": 0.1886363636363635,
                "tempo": 120.0
            },
            {
                "start_time": 6.343181818181818,
                "end_time": 6.427272727272727,
                "pitch": 33,
                "velocity": 40,
                "duration": 0.084090909090909,
                "tempo": 120.0
            },
            {
                "start_time": 6.445454545454545,
                "end_time": 6.529545454545454,
                "pitch": 40,
                "velocity": 40,
                "duration": 0.084090909090909,
                "tempo": 120.0
            },
            {
                "start_time": 6.545454545454545,
                "end_time": 6.629545454545454,
                "pitch": 42,
                "velocity": 40,
                "duration": 0.084090909090909,
                "tempo": 120.0
            },
            {
                "start_time": 6.6454545454545455,
                "end_time": 6.7295454545454545,
                "pitch": 45,
                "velocity": 40,
                "duration": 0.084090909090909,
                "tempo": 120.0
            },
            {
                "start_time": 6.747727272727272,
                "end_time": 6.829545454545454,
                "pitch": 47,
                "velocity": 40,
                "duration": 0.08181818181818201,
                "tempo": 120.0
            },
            {
                "start_time": 6.847727272727273,
                "end_time": 6.929545454545454,
                "pitch": 45,
                "velocity": 40,
                "duration": 0.08181818181818112,
                "tempo": 120.0
            },
            {
                "start_time": 6.947727272727272,
                "end_time": 7.029545454545454,
                "pitch": 42,
                "velocity": 40,
                "duration": 0.08181818181818201,
                "tempo": 120.0
            },
            {
                "start_time": 7.047727272727272,
                "end_time": 7.2295454545454545,
                "pitch": 40,
                "velocity": 40,
                "duration": 0.18181818181818254,
                "tempo": 120.0
            },
            {
                "start_time": 7.247727272727272,
                "end_time": 7.436363636363636,
                "pitch": 33,
                "velocity": 40,
                "duration": 0.1886363636363635,
                "tempo": 120.0
            },
            {
                "start_time": 7.452272727272727,
                "end_time": 7.640909090909091,
                "pitch": 33,
                "velocity": 40,
                "duration": 0.1886363636363635,
                "tempo": 120.0
            },
            {
                "start_time": 7.656818181818181,
                "end_time": 7.738636363636363,
                "pitch": 45,
                "velocity": 40,
                "duration": 0.08181818181818201,
                "tempo": 120.0
            },
            {
                "start_time": 7.754545454545454,
                "end_time": 7.936363636363636,
                "pitch": 33,
                "velocity": 40,
                "duration": 0.18181818181818166,
                "tempo": 120.0
            },
            {
                "start_time": 7.952272727272727,
                "end_time": 8.034090909090908,
                "pitch": 33,
                "velocity": 40,
                "duration": 0.08181818181818112,
                "tempo": 120.0
            },
            {
                "start_time": 8.049999999999999,
                "end_time": 8.636363636363637,
                "pitch": 33,
                "velocity": 40,
                "duration": 0.5863636363636378,
                "tempo": 120.0
            },
            {
                "start_time": 8.654545454545454,
                "end_time": 8.738636363636363,
                "pitch": 43,
                "velocity": 40,
                "duration": 0.084090909090909,
                "tempo": 120.0
            },
            {
                "start_time": 8.754545454545454,
                "end_time": 8.936363636363636,
                "pitch": 45,
                "velocity": 40,
                "duration": 0.18181818181818166,
                "tempo": 120.0
            },
            {
                "start_time": 8.952272727272726,
                "end_time": 9.034090909090908,
                "pitch": 45,
                "velocity": 40,
                "duration": 0.08181818181818201,
                "tempo": 120.0
            },
            {
                "start_time": 9.049999999999999,
                "end_time": 9.229545454545454,
                "pitch": 33,
                "velocity": 40,
                "duration": 0.17954545454545467,
                "tempo": 120.0
            },
            {
                "start_time": 9.247727272727273,
                "end_time": 9.334090909090909,
                "pitch": 45,
                "velocity": 40,
                "duration": 0.08636363636363598,
                "tempo": 120.0
            },
            {
                "start_time": 9.35,
                "end_time": 9.538636363636364,
                "pitch": 33,
                "velocity": 40,
                "duration": 0.18863636363636438,
                "tempo": 120.0
            },
            {
                "start_time": 9.556818181818182,
                "end_time": 9.64090909090909,
                "pitch": 33,
                "velocity": 40,
                "duration": 0.084090909090909,
                "tempo": 120.0
            },
            {
                "start_time": 9.659090909090908,
                "end_time": 9.743181818181817,
                "pitch": 49,
                "velocity": 40,
                "duration": 0.084090909090909,
                "tempo": 120.0
            },
            {
                "start_time": 9.759090909090908,
                "end_time": 9.843181818181817,
                "pitch": 50,
                "velocity": 40,
                "duration": 0.084090909090909,
                "tempo": 120.0
            },
            {
                "start_time": 9.85909090909091,
                "end_time": 10.043181818181818,
                "pitch": 52,
                "velocity": 40,
                "duration": 0.18409090909090864,
                "tempo": 120.0
            },
            {
                "start_time": 10.061363636363636,
                "end_time": 10.143181818181818,
                "pitch": 50,
                "velocity": 40,
                "duration": 0.08181818181818201,
                "tempo": 120.0
            },
            {
                "start_time": 10.159090909090908,
                "end_time": 10.24090909090909,
                "pitch": 49,
                "velocity": 40,
                "duration": 0.08181818181818201,
                "tempo": 120.0
            },
            {
                "start_time": 10.256818181818181,
                "end_time": 10.436363636363636,
                "pitch": 45,
                "velocity": 40,
                "duration": 0.17954545454545467,
                "tempo": 120.0
            },
            {
                "start_time": 10.452272727272726,
                "end_time": 10.647727272727272,
                "pitch": 33,
                "velocity": 40,
                "duration": 0.19545454545454533,
                "tempo": 120.0
            },
            {
                "start_time": 10.663636363636362,
                "end_time": 10.85681818181818,
                "pitch": 33,
                "velocity": 40,
                "duration": 0.19318181818181834,
                "tempo": 120.0
            },
            {
                "start_time": 10.872727272727273,
                "end_time": 10.952272727272726,
                "pitch": 45,
                "velocity": 40,
                "duration": 0.07954545454545325,
                "tempo": 120.0
            },
            {
                "start_time": 10.968181818181817,
                "end_time": 11.143181818181818,
                "pitch": 33,
                "velocity": 40,
                "duration": 0.1750000000000007,
                "tempo": 120.0
            },
            {
                "start_time": 11.159090909090908,
                "end_time": 11.238636363636363,
                "pitch": 33,
                "velocity": 40,
                "duration": 0.07954545454545503,
                "tempo": 120.0
            },
            {
                "start_time": 11.256818181818181,
                "end_time": 11.843181818181817,
                "pitch": 45,
                "velocity": 40,
                "duration": 0.586363636363636,
                "tempo": 120.0
            },
            {
                "start_time": 11.861363636363636,
                "end_time": 11.945454545454545,
                "pitch": 43,
                "velocity": 40,
                "duration": 0.084090909090909,
                "tempo": 120.0
            },
            {
                "start_time": 11.961363636363636,
                "end_time": 12.045454545454545,
                "pitch": 45,
                "velocity": 40,
                "duration": 0.084090909090909,
                "tempo": 120.0
            },
            {
                "start_time": 12.061363636363636,
                "end_time": 12.352272727272727,
                "pitch": 33,
                "velocity": 40,
                "duration": 0.290909090909091,
                "tempo": 120.0
            },
            {
                "start_time": 12.370454545454544,
                "end_time": 12.456818181818182,
                "pitch": 33,
                "velocity": 40,
                "duration": 0.08636363636363775,
                "tempo": 120.0
            },
            {
                "start_time": 12.472727272727273,
                "end_time": 12.656818181818181,
                "pitch": 42,
                "velocity": 40,
                "duration": 0.18409090909090864,
                "tempo": 120.0
            },
            {
                "start_time": 12.674999999999999,
                "end_time": 12.85909090909091,
                "pitch": 42,
                "velocity": 40,
                "duration": 0.18409090909091042,
                "tempo": 120.0
            },
            {
                "start_time": 12.875,
                "end_time": 13.059090909090909,
                "pitch": 43,
                "velocity": 40,
                "duration": 0.18409090909090864,
                "tempo": 120.0
            },
            {
                "start_time": 13.077272727272726,
                "end_time": 13.261363636363635,
                "pitch": 43,
                "velocity": 40,
                "duration": 0.18409090909090864,
                "tempo": 120.0
            },
            {
                "start_time": 13.277272727272727,
                "end_time": 13.461363636363636,
                "pitch": 32,
                "velocity": 40,
                "duration": 0.18409090909090864,
                "tempo": 120.0
            },
            {
                "start_time": 13.477272727272727,
                "end_time": 13.661363636363635,
                "pitch": 44,
                "velocity": 40,
                "duration": 0.18409090909090864,
                "tempo": 120.0
            },
            {
                "start_time": 13.677272727272726,
                "end_time": 13.86590909090909,
                "pitch": 33,
                "velocity": 40,
                "duration": 0.18863636363636438,
                "tempo": 120.0
            },
            {
                "start_time": 13.884090909090908,
                "end_time": 14.070454545454545,
                "pitch": 33,
                "velocity": 40,
                "duration": 0.1863636363636374,
                "tempo": 120.0
            },
            {
                "start_time": 14.086363636363636,
                "end_time": 14.165909090909091,
                "pitch": 45,
                "velocity": 40,
                "duration": 0.07954545454545503,
                "tempo": 120.0
            },
            {
                "start_time": 14.181818181818182,
                "end_time": 14.35681818181818,
                "pitch": 33,
                "velocity": 40,
                "duration": 0.17499999999999893,
                "tempo": 120.0
            },
            {
                "start_time": 14.375,
                "end_time": 14.454545454545453,
                "pitch": 33,
                "velocity": 40,
                "duration": 0.07954545454545325,
                "tempo": 120.0
            },
            {
                "start_time": 14.470454545454544,
                "end_time": 15.06590909090909,
                "pitch": 33,
                "velocity": 40,
                "duration": 0.5954545454545457,
                "tempo": 120.0
            },
            {
                "start_time": 15.08181818181818,
                "end_time": 15.165909090909091,
                "pitch": 43,
                "velocity": 40,
                "duration": 0.08409090909091077,
                "tempo": 120.0
            },
            {
                "start_time": 15.184090909090909,
                "end_time": 15.36590909090909,
                "pitch": 45,
                "velocity": 40,
                "duration": 0.18181818181818166,
                "tempo": 120.0
            },
            {
                "start_time": 15.381818181818181,
                "end_time": 15.463636363636363,
                "pitch": 45,
                "velocity": 40,
                "duration": 0.08181818181818201,
                "tempo": 120.0
            },
            {
                "start_time": 15.479545454545454,
                "end_time": 15.659090909090908,
                "pitch": 33,
                "velocity": 40,
                "duration": 0.17954545454545467,
                "tempo": 120.0
            },
            {
                "start_time": 15.677272727272726,
                "end_time": 15.761363636363635,
                "pitch": 45,
                "velocity": 40,
                "duration": 0.084090909090909,
                "tempo": 120.0
            },
            {
                "start_time": 15.779545454545454,
                "end_time": 15.968181818181817,
                "pitch": 33,
                "velocity": 40,
                "duration": 0.1886363636363626,
                "tempo": 120.0
            },
            {
                "start_time": 15.984090909090908,
                "end_time": 16.070454545454545,
                "pitch": 33,
                "velocity": 40,
                "duration": 0.08636363636363775,
                "tempo": 120.0
            },
            {
                "start_time": 16.086363636363636,
                "end_time": 16.37272727272727,
                "pitch": 33,
                "velocity": 40,
                "duration": 0.28636363636363527,
                "tempo": 120.0
            },
            {
                "start_time": 16.388636363636362,
                "end_time": 16.668181818181818,
                "pitch": 33,
                "velocity": 40,
                "duration": 0.2795454545454561,
                "tempo": 120.0
            },
            {
                "start_time": 16.68409090909091,
                "end_time": 16.76590909090909,
                "pitch": 40,
                "velocity": 40,
                "duration": 0.08181818181818201,
                "tempo": 120.0
            },
            {
                "start_time": 16.78181818181818,
                "end_time": 16.863636363636363,
                "pitch": 42,
                "velocity": 40,
                "duration": 0.08181818181818201,
                "tempo": 120.0
            },
            {
                "start_time": 16.881818181818183,
                "end_time": 17.075,
                "pitch": 33,
                "velocity": 40,
                "duration": 0.19318181818181657,
                "tempo": 120.0
            },
            {
                "start_time": 17.09318181818182,
                "end_time": 17.286363636363635,
                "pitch": 33,
                "velocity": 40,
                "duration": 0.19318181818181657,
                "tempo": 120.0
            },
            {
                "start_time": 17.302272727272726,
                "end_time": 17.381818181818183,
                "pitch": 45,
                "velocity": 40,
                "duration": 0.0795454545454568,
                "tempo": 120.0
            },
            {
                "start_time": 17.397727272727273,
                "end_time": 17.57272727272727,
                "pitch": 33,
                "velocity": 40,
                "duration": 0.17499999999999716,
                "tempo": 120.0
            },
            {
                "start_time": 17.58863636363636,
                "end_time": 17.668181818181818,
                "pitch": 33,
                "velocity": 40,
                "duration": 0.0795454545454568,
                "tempo": 120.0
            },
            {
                "start_time": 17.68409090909091,
                "end_time": 17.96818181818182,
                "pitch": 45,
                "velocity": 40,
                "duration": 0.28409090909091006,
                "tempo": 120.0
            },
            {
                "start_time": 17.98409090909091,
                "end_time": 18.268181818181816,
                "pitch": 45,
                "velocity": 40,
                "duration": 0.2840909090909065,
                "tempo": 120.0
            },
            {
                "start_time": 18.284090909090907,
                "end_time": 18.368181818181817,
                "pitch": 43,
                "velocity": 40,
                "duration": 0.08409090909091077,
                "tempo": 120.0
            },
            {
                "start_time": 18.384090909090908,
                "end_time": 18.570454545454545,
                "pitch": 43,
                "velocity": 40,
                "duration": 0.1863636363636374,
                "tempo": 120.0
            },
            {
                "start_time": 18.58863636363636,
                "end_time": 18.672727272727272,
                "pitch": 45,
                "velocity": 40,
                "duration": 0.08409090909091077,
                "tempo": 120.0
            },
            {
                "start_time": 18.69090909090909,
                "end_time": 18.879545454545454,
                "pitch": 33,
                "velocity": 40,
                "duration": 0.1886363636363626,
                "tempo": 120.0
            },
            {
                "start_time": 18.895454545454545,
                "end_time": 18.979545454545455,
                "pitch": 45,
                "velocity": 40,
                "duration": 0.08409090909091077,
                "tempo": 120.0
            },
            {
                "start_time": 18.995454545454546,
                "end_time": 19.18181818181818,
                "pitch": 33,
                "velocity": 40,
                "duration": 0.18636363636363384,
                "tempo": 120.0
            },
            {
                "start_time": 19.19772727272727,
                "end_time": 19.28181818181818,
                "pitch": 33,
                "velocity": 40,
                "duration": 0.08409090909091077,
                "tempo": 120.0
            },
            {
                "start_time": 19.297727272727272,
                "end_time": 19.38181818181818,
                "pitch": 40,
                "velocity": 40,
                "duration": 0.08409090909090722,
                "tempo": 120.0
            },
            {
                "start_time": 19.397727272727273,
                "end_time": 19.48181818181818,
                "pitch": 42,
                "velocity": 40,
                "duration": 0.08409090909090722,
                "tempo": 120.0
            },
            {
                "start_time": 19.49772727272727,
                "end_time": 19.581818181818182,
                "pitch": 45,
                "velocity": 40,
                "duration": 0.08409090909091077,
                "tempo": 120.0
            },
            {
                "start_time": 19.597727272727273,
                "end_time": 19.68181818181818,
                "pitch": 47,
                "velocity": 40,
                "duration": 0.08409090909090722,
                "tempo": 120.0
            },
            {
                "start_time": 19.69772727272727,
                "end_time": 19.78181818181818,
                "pitch": 45,
                "velocity": 40,
                "duration": 0.08409090909091077,
                "tempo": 120.0
            },
            {
                "start_time": 19.8,
                "end_time": 19.88181818181818,
                "pitch": 42,
                "velocity": 40,
                "duration": 0.08181818181817846,
                "tempo": 120.0
            },
            {
                "start_time": 19.9,
                "end_time": 20.084090909090907,
                "pitch": 40,
                "velocity": 40,
                "duration": 0.18409090909090864,
                "tempo": 120.0
            },
            {
                "start_time": 20.102272727272727,
                "end_time": 20.288636363636364,
                "pitch": 33,
                "velocity": 40,
                "duration": 0.1863636363636374,
                "tempo": 120.0
            },
            {
                "start_time": 20.30681818181818,
                "end_time": 20.493181818181817,
                "pitch": 33,
                "velocity": 40,
                "duration": 0.1863636363636374,
                "tempo": 120.0
            },
            {
                "start_time": 20.509090909090908,
                "end_time": 20.59090909090909,
                "pitch": 45,
                "velocity": 40,
                "duration": 0.08181818181818201,
                "tempo": 120.0
            },
            {
                "start_time": 20.60681818181818,
                "end_time": 20.78181818181818,
                "pitch": 33,
                "velocity": 40,
                "duration": 0.1750000000000007,
                "tempo": 120.0
            },
            {
                "start_time": 20.797727272727272,
                "end_time": 20.877272727272725,
                "pitch": 33,
                "velocity": 40,
                "duration": 0.07954545454545325,
                "tempo": 120.0
            },
            {
                "start_time": 20.893181818181816,
                "end_time": 21.486363636363635,
                "pitch": 45,
                "velocity": 40,
                "duration": 0.5931818181818187,
                "tempo": 120.0
            },
            {
                "start_time": 21.504545454545454,
                "end_time": 21.586363636363636,
                "pitch": 43,
                "velocity": 40,
                "duration": 0.08181818181818201,
                "tempo": 120.0
            },
            {
                "start_time": 21.604545454545452,
                "end_time": 21.788636363636364,
                "pitch": 45,
                "velocity": 40,
                "duration": 0.1840909090909122,
                "tempo": 120.0
            },
            {
                "start_time": 21.804545454545455,
                "end_time": 21.888636363636362,
                "pitch": 45,
                "velocity": 40,
                "duration": 0.08409090909090722,
                "tempo": 120.0
            },
            {
                "start_time": 21.904545454545453,
                "end_time": 22.09090909090909,
                "pitch": 33,
                "velocity": 40,
                "duration": 0.1863636363636374,
                "tempo": 120.0
            },
            {
                "start_time": 22.10681818181818,
                "end_time": 22.19090909090909,
                "pitch": 45,
                "velocity": 40,
                "duration": 0.08409090909091077,
                "tempo": 120.0
            },
            {
                "start_time": 22.206818181818182,
                "end_time": 22.39090909090909,
                "pitch": 33,
                "velocity": 40,
                "duration": 0.18409090909090864,
                "tempo": 120.0
            },
            {
                "start_time": 22.40681818181818,
                "end_time": 22.49090909090909,
                "pitch": 33,
                "velocity": 40,
                "duration": 0.08409090909090722,
                "tempo": 120.0
            },
            {
                "start_time": 22.50681818181818,
                "end_time": 22.59090909090909,
                "pitch": 49,
                "velocity": 40,
                "duration": 0.08409090909091077,
                "tempo": 120.0
            },
            {
                "start_time": 22.60681818181818,
                "end_time": 22.69090909090909,
                "pitch": 50,
                "velocity": 40,
                "duration": 0.08409090909091077,
                "tempo": 120.0
            },
            {
                "start_time": 22.706818181818182,
                "end_time": 22.89090909090909,
                "pitch": 52,
                "velocity": 40,
                "duration": 0.18409090909090864,
                "tempo": 120.0
            },
            {
                "start_time": 22.90681818181818,
                "end_time": 22.988636363636363,
                "pitch": 50,
                "velocity": 40,
                "duration": 0.08181818181818201,
                "tempo": 120.0
            },
            {
                "start_time": 23.004545454545454,
                "end_time": 23.086363636363636,
                "pitch": 49,
                "velocity": 40,
                "duration": 0.08181818181818201,
                "tempo": 120.0
            },
            {
                "start_time": 23.102272727272727,
                "end_time": 23.28181818181818,
                "pitch": 45,
                "velocity": 40,
                "duration": 0.17954545454545467,
                "tempo": 120.0
            },
            {
                "start_time": 23.299999999999997,
                "end_time": 23.493181818181817,
                "pitch": 33,
                "velocity": 40,
                "duration": 0.19318181818182012,
                "tempo": 120.0
            },
            {
                "start_time": 23.509090909090908,
                "end_time": 23.704545454545453,
                "pitch": 33,
                "velocity": 40,
                "duration": 0.19545454545454533,
                "tempo": 120.0
            },
            {
                "start_time": 23.720454545454544,
                "end_time": 23.802272727272726,
                "pitch": 45,
                "velocity": 40,
                "duration": 0.08181818181818201,
                "tempo": 120.0
            },
            {
                "start_time": 23.818181818181817,
                "end_time": 23.99772727272727,
                "pitch": 33,
                "velocity": 40,
                "duration": 0.17954545454545467,
                "tempo": 120.0
            },
            {
                "start_time": 24.013636363636362,
                "end_time": 24.095454545454544,
                "pitch": 33,
                "velocity": 40,
                "duration": 0.08181818181818201,
                "tempo": 120.0
            },
            {
                "start_time": 24.113636363636363,
                "end_time": 24.69090909090909,
                "pitch": 45,
                "velocity": 40,
                "duration": 0.577272727272728,
                "tempo": 120.0
            },
            {
                "start_time": 24.709090909090907,
                "end_time": 24.79090909090909,
                "pitch": 43,
                "velocity": 40,
                "duration": 0.08181818181818201,
                "tempo": 120.0
            },
            {
                "start_time": 24.80681818181818,
                "end_time": 24.888636363636362,
                "pitch": 45,
                "velocity": 40,
                "duration": 0.08181818181818201,
                "tempo": 120.0
            },
            {
                "start_time": 24.904545454545453,
                "end_time": 25.195454545454545,
                "pitch": 33,
                "velocity": 40,
                "duration": 0.2909090909090928,
                "tempo": 120.0
            },
            {
                "start_time": 25.21363636363636,
                "end_time": 25.299999999999997,
                "pitch": 33,
                "velocity": 40,
                "duration": 0.08636363636363598,
                "tempo": 120.0
            },
            {
                "start_time": 25.31590909090909,
                "end_time": 25.504545454545454,
                "pitch": 42,
                "velocity": 40,
                "duration": 0.1886363636363626,
                "tempo": 120.0
            },
            {
                "start_time": 25.520454545454545,
                "end_time": 25.709090909090907,
                "pitch": 42,
                "velocity": 40,
                "duration": 0.1886363636363626,
                "tempo": 120.0
            },
            {
                "start_time": 25.727272727272727,
                "end_time": 25.90681818181818,
                "pitch": 43,
                "velocity": 40,
                "duration": 0.17954545454545467,
                "tempo": 120.0
            },
            {
                "start_time": 25.922727272727272,
                "end_time": 26.102272727272727,
                "pitch": 43,
                "velocity": 40,
                "duration": 0.17954545454545467,
                "tempo": 120.0
            },
            {
                "start_time": 26.118181818181817,
                "end_time": 26.302272727272726,
                "pitch": 32,
                "velocity": 40,
                "duration": 0.18409090909090864,
                "tempo": 120.0
            },
            {
                "start_time": 26.318181818181817,
                "end_time": 26.502272727272725,
                "pitch": 44,
                "velocity": 40,
                "duration": 0.18409090909090864,
                "tempo": 120.0
            },
            {
                "start_time": 26.518181818181816,
                "end_time": 26.702272727272724,
                "pitch": 33,
                "velocity": 40,
                "duration": 0.18409090909090864,
                "tempo": 120.0
            },
            {
                "start_time": 26.718181818181815,
                "end_time": 26.902272727272727,
                "pitch": 33,
                "velocity": 40,
                "duration": 0.1840909090909122,
                "tempo": 120.0
            },
            {
                "start_time": 26.918181818181818,
                "end_time": 27.002272727272725,
                "pitch": 45,
                "velocity": 40,
                "duration": 0.08409090909090722,
                "tempo": 120.0
            },
            {
                "start_time": 27.020454545454545,
                "end_time": 27.204545454545453,
                "pitch": 33,
                "velocity": 40,
                "duration": 0.18409090909090864,
                "tempo": 120.0
            },
            {
                "start_time": 27.220454545454544,
                "end_time": 27.304545454545455,
                "pitch": 33,
                "velocity": 40,
                "duration": 0.08409090909091077,
                "tempo": 120.0
            },
            {
                "start_time": 27.320454545454545,
                "end_time": 27.597727272727273,
                "pitch": 33,
                "velocity": 40,
                "duration": 0.27727272727272734,
                "tempo": 120.0
            },
            {
                "start_time": 27.61590909090909,
                "end_time": 27.902272727272727,
                "pitch": 33,
                "velocity": 40,
                "duration": 0.2863636363636388,
                "tempo": 120.0
            },
            {
                "start_time": 27.918181818181818,
                "end_time": 28.004545454545454,
                "pitch": 43,
                "velocity": 40,
                "duration": 0.08636363636363598,
                "tempo": 120.0
            },
            {
                "start_time": 28.02272727272727,
                "end_time": 28.10681818181818,
                "pitch": 45,
                "velocity": 40,
                "duration": 0.08409090909091077,
                "tempo": 120.0
            },
            {
                "start_time": 28.125,
                "end_time": 28.30681818181818,
                "pitch": 43,
                "velocity": 40,
                "duration": 0.18181818181817988,
                "tempo": 120.0
            },
            {
                "start_time": 28.325,
                "end_time": 28.50681818181818,
                "pitch": 43,
                "velocity": 40,
                "duration": 0.18181818181817988,
                "tempo": 120.0
            },
            {
                "start_time": 28.525,
                "end_time": 28.60681818181818,
                "pitch": 43,
                "velocity": 40,
                "duration": 0.08181818181818201,
                "tempo": 120.0
            },
            {
                "start_time": 28.625,
                "end_time": 28.80681818181818,
                "pitch": 43,
                "velocity": 40,
                "duration": 0.18181818181817988,
                "tempo": 120.0
            },
            {
                "start_time": 28.825,
                "end_time": 28.90681818181818,
                "pitch": 43,
                "velocity": 40,
                "duration": 0.08181818181818201,
                "tempo": 120.0
            },
            {
                "start_time": 28.924999999999997,
                "end_time": 29.711363636363636,
                "pitch": 43,
                "velocity": 40,
                "duration": 0.7863636363636388,
                "tempo": 120.0
            },
            {
                "start_time": 29.727272727272727,
                "end_time": 29.911363636363635,
                "pitch": 35,
                "velocity": 40,
                "duration": 0.18409090909090864,
                "tempo": 120.0
            },
            {
                "start_time": 29.927272727272726,
                "end_time": 30.113636363636363,
                "pitch": 35,
                "velocity": 40,
                "duration": 0.1863636363636374,
                "tempo": 120.0
            },
            {
                "start_time": 30.129545454545454,
                "end_time": 30.21363636363636,
                "pitch": 47,
                "velocity": 40,
                "duration": 0.08409090909090722,
                "tempo": 120.0
            },
            {
                "start_time": 30.229545454545452,
                "end_time": 30.41363636363636,
                "pitch": 35,
                "velocity": 40,
                "duration": 0.18409090909090864,
                "tempo": 120.0
            },
            {
                "start_time": 30.429545454545455,
                "end_time": 30.513636363636362,
                "pitch": 35,
                "velocity": 40,
                "duration": 0.08409090909090722,
                "tempo": 120.0
            },
            {
                "start_time": 30.529545454545453,
                "end_time": 30.813636363636363,
                "pitch": 35,
                "velocity": 40,
                "duration": 0.28409090909091006,
                "tempo": 120.0
            },
            {
                "start_time": 30.829545454545453,
                "end_time": 31.113636363636363,
                "pitch": 35,
                "velocity": 40,
                "duration": 0.28409090909091006,
                "tempo": 120.0
            },
            {
                "start_time": 31.13181818181818,
                "end_time": 31.51590909090909,
                "pitch": 38,
                "velocity": 40,
                "duration": 0.3840909090909115,
                "tempo": 120.0
            },
            {
                "start_time": 31.53181818181818,
                "end_time": 31.71590909090909,
                "pitch": 50,
                "velocity": 40,
                "duration": 0.18409090909090864,
                "tempo": 120.0
            },
            {
                "start_time": 31.73181818181818,
                "end_time": 31.91590909090909,
                "pitch": 38,
                "velocity": 40,
                "duration": 0.18409090909090864,
                "tempo": 120.0
            },
            {
                "start_time": 31.93409090909091,
                "end_time": 32.31818181818182,
                "pitch": 40,
                "velocity": 40,
                "duration": 0.3840909090909115,
                "tempo": 120.0
            },
            {
                "start_time": 32.33409090909091,
                "end_time": 32.518181818181816,
                "pitch": 52,
                "velocity": 40,
                "duration": 0.18409090909090509,
                "tempo": 120.0
            },
            {
                "start_time": 32.53409090909091,
                "end_time": 32.61818181818182,
                "pitch": 50,
                "velocity": 40,
                "duration": 0.08409090909091077,
                "tempo": 120.0
            },
            {
                "start_time": 32.63409090909091,
                "end_time": 32.918181818181814,
                "pitch": 52,
                "velocity": 40,
                "duration": 0.2840909090909065,
                "tempo": 120.0
            },
            {
                "start_time": 32.934090909090905,
                "end_time": 33.11818181818182,
                "pitch": 33,
                "velocity": 40,
                "duration": 0.1840909090909122,
                "tempo": 120.0
            },
            {
                "start_time": 33.13409090909091,
                "end_time": 33.31818181818181,
                "pitch": 33,
                "velocity": 40,
                "duration": 0.18409090909090509,
                "tempo": 120.0
            },
            {
                "start_time": 33.33409090909091,
                "end_time": 33.418181818181814,
                "pitch": 45,
                "velocity": 40,
                "duration": 0.08409090909090366,
                "tempo": 120.0
            },
            {
                "start_time": 33.43636363636364,
                "end_time": 33.62045454545454,
                "pitch": 33,
                "velocity": 40,
                "duration": 0.18409090909090509,
                "tempo": 120.0
            },
            {
                "start_time": 33.63636363636363,
                "end_time": 33.720454545454544,
                "pitch": 33,
                "velocity": 40,
                "duration": 0.08409090909091077,
                "tempo": 120.0
            },
            {
                "start_time": 33.73863636363636,
                "end_time": 34.02045454545454,
                "pitch": 33,
                "velocity": 40,
                "duration": 0.2818181818181813,
                "tempo": 120.0
            },
            {
                "start_time": 34.038636363636364,
                "end_time": 34.320454545454545,
                "pitch": 33,
                "velocity": 40,
                "duration": 0.2818181818181813,
                "tempo": 120.0
            },
            {
                "start_time": 34.33863636363636,
                "end_time": 34.42045454545455,
                "pitch": 43,
                "velocity": 40,
                "duration": 0.08181818181818556,
                "tempo": 120.0
            },
            {
                "start_time": 34.43863636363636,
                "end_time": 34.52045454545454,
                "pitch": 45,
                "velocity": 40,
                "duration": 0.08181818181817846,
                "tempo": 120.0
            },
            {
                "start_time": 34.538636363636364,
                "end_time": 34.720454545454544,
                "pitch": 43,
                "velocity": 40,
                "duration": 0.18181818181817988,
                "tempo": 120.0
            },
            {
                "start_time": 34.73863636363636,
                "end_time": 34.92045454545455,
                "pitch": 43,
                "velocity": 40,
                "duration": 0.18181818181818699,
                "tempo": 120.0
            },
            {
                "start_time": 34.93863636363636,
                "end_time": 35.02045454545454,
                "pitch": 43,
                "velocity": 40,
                "duration": 0.08181818181817846,
                "tempo": 120.0
            },
            {
                "start_time": 35.038636363636364,
                "end_time": 35.220454545454544,
                "pitch": 43,
                "velocity": 40,
                "duration": 0.18181818181817988,
                "tempo": 120.0
            },
            {
                "start_time": 35.23863636363636,
                "end_time": 35.320454545454545,
                "pitch": 43,
                "velocity": 40,
                "duration": 0.08181818181818556,
                "tempo": 120.0
            },
            {
                "start_time": 35.33863636363636,
                "end_time": 36.12272727272727,
                "pitch": 43,
                "velocity": 40,
                "duration": 0.7840909090909065,
                "tempo": 120.0
            },
            {
                "start_time": 36.14090909090909,
                "end_time": 36.32272727272727,
                "pitch": 35,
                "velocity": 40,
                "duration": 0.18181818181817988,
                "tempo": 120.0
            },
            {
                "start_time": 36.340909090909086,
                "end_time": 36.52272727272727,
                "pitch": 35,
                "velocity": 40,
                "duration": 0.18181818181818699,
                "tempo": 120.0
            },
            {
                "start_time": 36.54090909090909,
                "end_time": 36.62272727272727,
                "pitch": 47,
                "velocity": 40,
                "duration": 0.08181818181817846,
                "tempo": 120.0
            },
            {
                "start_time": 36.64090909090909,
                "end_time": 36.82272727272727,
                "pitch": 35,
                "velocity": 40,
                "duration": 0.18181818181817988,
                "tempo": 120.0
            },
            {
                "start_time": 36.840909090909086,
                "end_time": 36.92272727272727,
                "pitch": 35,
                "velocity": 40,
                "duration": 0.08181818181818556,
                "tempo": 120.0
            },
            {
                "start_time": 36.94090909090909,
                "end_time": 37.22272727272727,
                "pitch": 35,
                "velocity": 40,
                "duration": 0.2818181818181813,
                "tempo": 120.0
            },
            {
                "start_time": 37.24090909090909,
                "end_time": 37.525,
                "pitch": 35,
                "velocity": 40,
                "duration": 0.2840909090909065,
                "tempo": 120.0
            },
            {
                "start_time": 37.54090909090909,
                "end_time": 37.92727272727272,
                "pitch": 38,
                "velocity": 40,
                "duration": 0.38636363636363313,
                "tempo": 120.0
            },
            {
                "start_time": 37.94318181818181,
                "end_time": 38.127272727272725,
                "pitch": 50,
                "velocity": 40,
                "duration": 0.1840909090909122,
                "tempo": 120.0
            },
            {
                "start_time": 38.143181818181816,
                "end_time": 38.33181818181818,
                "pitch": 38,
                "velocity": 40,
                "duration": 0.1886363636363626,
                "tempo": 120.0
            },
            {
                "start_time": 38.34772727272727,
                "end_time": 38.72727272727273,
                "pitch": 40,
                "velocity": 40,
                "duration": 0.3795454545454575,
                "tempo": 120.0
            },
            {
                "start_time": 38.74318181818182,
                "end_time": 38.918181818181814,
                "pitch": 52,
                "velocity": 40,
                "duration": 0.17499999999999716,
                "tempo": 120.0
            },
            {
                "start_time": 38.93636363636364,
                "end_time": 39.02045454545454,
                "pitch": 50,
                "velocity": 40,
                "duration": 0.08409090909090366,
                "tempo": 120.0
            },
            {
                "start_time": 39.038636363636364,
                "end_time": 39.32954545454545,
                "pitch": 52,
                "velocity": 40,
                "duration": 0.29090909090908923,
                "tempo": 120.0
            },
            {
                "start_time": 39.345454545454544,
                "end_time": 39.93181818181818,
                "pitch": 43,
                "velocity": 40,
                "duration": 0.586363636363636,
                "tempo": 120.0
            },
            {
                "start_time": 39.94772727272727,
                "end_time": 40.13181818181818,
                "pitch": 43,
                "velocity": 40,
                "duration": 0.1840909090909122,
                "tempo": 120.0
            },
            {
                "start_time": 40.14772727272727,
                "end_time": 40.33181818181818,
                "pitch": 43,
                "velocity": 40,
                "duration": 0.18409090909090509,
                "tempo": 120.0
            },
            {
                "start_time": 40.34772727272727,
                "end_time": 40.73181818181818,
                "pitch": 43,
                "velocity": 40,
                "duration": 0.38409090909090793,
                "tempo": 120.0
            },
            {
                "start_time": 40.74772727272727,
                "end_time": 41.13181818181818,
                "pitch": 38,
                "velocity": 40,
                "duration": 0.38409090909091503,
                "tempo": 120.0
            },
            {
                "start_time": 41.14772727272727,
                "end_time": 41.53409090909091,
                "pitch": 50,
                "velocity": 40,
                "duration": 0.38636363636363313,
                "tempo": 120.0
            },
            {
                "start_time": 41.55,
                "end_time": 41.73409090909091,
                "pitch": 38,
                "velocity": 40,
                "duration": 0.1840909090909122,
                "tempo": 120.0
            },
            {
                "start_time": 41.752272727272725,
                "end_time": 41.934090909090905,
                "pitch": 52,
                "velocity": 40,
                "duration": 0.18181818181817988,
                "tempo": 120.0
            },
            {
                "start_time": 41.95227272727273,
                "end_time": 42.334090909090904,
                "pitch": 54,
                "velocity": 40,
                "duration": 0.3818181818181756,
                "tempo": 120.0
            },
            {
                "start_time": 42.35227272727273,
                "end_time": 42.74090909090909,
                "pitch": 33,
                "velocity": 40,
                "duration": 0.38863636363636545,
                "tempo": 120.0
            },
            {
                "start_time": 42.75681818181818,
                "end_time": 42.945454545454545,
                "pitch": 33,
                "velocity": 40,
                "duration": 0.1886363636363626,
                "tempo": 120.0
            },
            {
                "start_time": 42.961363636363636,
                "end_time": 43.14090909090909,
                "pitch": 33,
                "velocity": 40,
                "duration": 0.17954545454545467,
                "tempo": 120.0
            },
            {
                "start_time": 43.15681818181818,
                "end_time": 43.33863636363636,
                "pitch": 33,
                "velocity": 40,
                "duration": 0.18181818181817988,
                "tempo": 120.0
            },
            {
                "start_time": 43.35454545454545,
                "end_time": 43.538636363636364,
                "pitch": 33,
                "velocity": 40,
                "duration": 0.1840909090909122,
                "tempo": 120.0
            },
            {
                "start_time": 43.55681818181818,
                "end_time": 43.74090909090909,
                "pitch": 33,
                "velocity": 40,
                "duration": 0.1840909090909122,
                "tempo": 120.0
            },
            {
                "start_time": 43.75681818181818,
                "end_time": 43.94090909090909,
                "pitch": 33,
                "velocity": 40,
                "duration": 0.18409090909090509,
                "tempo": 120.0
            },
            {
                "start_time": 43.95681818181818,
                "end_time": 44.14090909090909,
                "pitch": 33,
                "velocity": 40,
                "duration": 0.1840909090909122,
                "tempo": 120.0
            },
            {
                "start_time": 44.15681818181818,
                "end_time": 44.340909090909086,
                "pitch": 33,
                "velocity": 40,
                "duration": 0.18409090909090509,
                "tempo": 120.0
            },
            {
                "start_time": 44.35681818181818,
                "end_time": 44.54090909090909,
                "pitch": 33,
                "velocity": 40,
                "duration": 0.1840909090909122,
                "tempo": 120.0
            },
            {
                "start_time": 44.55681818181818,
                "end_time": 44.74090909090909,
                "pitch": 33,
                "velocity": 40,
                "duration": 0.1840909090909122,
                "tempo": 120.0
            },
            {
                "start_time": 44.75681818181818,
                "end_time": 44.94090909090909,
                "pitch": 33,
                "velocity": 40,
                "duration": 0.18409090909090509,
                "tempo": 120.0
            },
            {
                "start_time": 44.95681818181818,
                "end_time": 45.13636363636363,
                "pitch": 42,
                "velocity": 40,
                "duration": 0.17954545454545467,
                "tempo": 120.0
            },
            {
                "start_time": 45.152272727272724,
                "end_time": 45.33181818181818,
                "pitch": 43,
                "velocity": 40,
                "duration": 0.17954545454545467,
                "tempo": 120.0
            },
            {
                "start_time": 45.349999999999994,
                "end_time": 45.543181818181814,
                "pitch": 42,
                "velocity": 40,
                "duration": 0.19318181818182012,
                "tempo": 120.0
            },
            {
                "start_time": 45.56136363636364,
                "end_time": 45.75454545454545,
                "pitch": 38,
                "velocity": 40,
                "duration": 0.19318181818181301,
                "tempo": 120.0
            },
            {
                "start_time": 45.77045454545454,
                "end_time": 46.345454545454544,
                "pitch": 43,
                "velocity": 40,
                "duration": 0.5750000000000028,
                "tempo": 120.0
            },
            {
                "start_time": 46.36363636363636,
                "end_time": 46.54545454545455,
                "pitch": 43,
                "velocity": 40,
                "duration": 0.18181818181818699,
                "tempo": 120.0
            },
            {
                "start_time": 46.56363636363636,
                "end_time": 46.74545454545454,
                "pitch": 43,
                "velocity": 40,
                "duration": 0.18181818181817988,
                "tempo": 120.0
            },
            {
                "start_time": 46.76363636363636,
                "end_time": 47.14545454545454,
                "pitch": 43,
                "velocity": 40,
                "duration": 0.3818181818181827,
                "tempo": 120.0
            },
            {
                "start_time": 47.163636363636364,
                "end_time": 47.54772727272727,
                "pitch": 38,
                "velocity": 40,
                "duration": 0.38409090909090793,
                "tempo": 120.0
            },
            {
                "start_time": 47.56363636363636,
                "end_time": 47.949999999999996,
                "pitch": 50,
                "velocity": 40,
                "duration": 0.38636363636363313,
                "tempo": 120.0
            },
            {
                "start_time": 47.965909090909086,
                "end_time": 48.15,
                "pitch": 38,
                "velocity": 40,
                "duration": 0.1840909090909122,
                "tempo": 120.0
            },
            {
                "start_time": 48.16590909090909,
                "end_time": 48.349999999999994,
                "pitch": 52,
                "velocity": 40,
                "duration": 0.18409090909090509,
                "tempo": 120.0
            },
            {
                "start_time": 48.36590909090909,
                "end_time": 48.75,
                "pitch": 54,
                "velocity": 40,
                "duration": 0.38409090909090793,
                "tempo": 120.0
            },
            {
                "start_time": 48.76590909090909,
                "end_time": 49.15,
                "pitch": 33,
                "velocity": 40,
                "duration": 0.38409090909090793,
                "tempo": 120.0
            },
            {
                "start_time": 49.16590909090909,
                "end_time": 49.349999999999994,
                "pitch": 33,
                "velocity": 40,
                "duration": 0.18409090909090509,
                "tempo": 120.0
            },
            {
                "start_time": 49.365909090909085,
                "end_time": 49.55,
                "pitch": 33,
                "velocity": 40,
                "duration": 0.1840909090909122,
                "tempo": 120.0
            },
            {
                "start_time": 49.56818181818181,
                "end_time": 49.752272727272725,
                "pitch": 33,
                "velocity": 40,
                "duration": 0.1840909090909122,
                "tempo": 120.0
            },
            {
                "start_time": 49.768181818181816,
                "end_time": 49.95227272727273,
                "pitch": 33,
                "velocity": 40,
                "duration": 0.1840909090909122,
                "tempo": 120.0
            },
            {
                "start_time": 49.96818181818182,
                "end_time": 50.152272727272724,
                "pitch": 33,
                "velocity": 40,
                "duration": 0.18409090909090509,
                "tempo": 120.0
            },
            {
                "start_time": 50.168181818181814,
                "end_time": 50.35227272727273,
                "pitch": 33,
                "velocity": 40,
                "duration": 0.1840909090909122,
                "tempo": 120.0
            },
            {
                "start_time": 50.36818181818182,
                "end_time": 50.55227272727272,
                "pitch": 33,
                "velocity": 40,
                "duration": 0.18409090909090509,
                "tempo": 120.0
            },
            {
                "start_time": 50.56818181818181,
                "end_time": 50.752272727272725,
                "pitch": 33,
                "velocity": 40,
                "duration": 0.1840909090909122,
                "tempo": 120.0
            },
            {
                "start_time": 50.768181818181816,
                "end_time": 50.95227272727273,
                "pitch": 33,
                "velocity": 40,
                "duration": 0.1840909090909122,
                "tempo": 120.0
            },
            {
                "start_time": 50.96818181818182,
                "end_time": 51.152272727272724,
                "pitch": 33,
                "velocity": 40,
                "duration": 0.18409090909090509,
                "tempo": 120.0
            },
            {
                "start_time": 51.168181818181814,
                "end_time": 51.35227272727273,
                "pitch": 33,
                "velocity": 40,
                "duration": 0.1840909090909122,
                "tempo": 120.0
            },
            {
                "start_time": 51.36818181818182,
                "end_time": 51.55227272727272,
                "pitch": 33,
                "velocity": 40,
                "duration": 0.18409090909090509,
                "tempo": 120.0
            },
            {
                "start_time": 51.570454545454545,
                "end_time": 51.75454545454545,
                "pitch": 33,
                "velocity": 40,
                "duration": 0.18409090909090509,
                "tempo": 120.0
            },
            {
                "start_time": 51.77045454545454,
                "end_time": 51.95454545454545,
                "pitch": 33,
                "velocity": 40,
                "duration": 0.1840909090909122,
                "tempo": 120.0
            },
            {
                "start_time": 51.970454545454544,
                "end_time": 52.15454545454545,
                "pitch": 33,
                "velocity": 40,
                "duration": 0.18409090909090509,
                "tempo": 120.0
            },
            {
                "start_time": 52.17045454545454,
                "end_time": 52.35454545454545,
                "pitch": 33,
                "velocity": 40,
                "duration": 0.1840909090909122,
                "tempo": 120.0
            },
            {
                "start_time": 52.37045454545454,
                "end_time": 52.554545454545455,
                "pitch": 45,
                "velocity": 40,
                "duration": 0.1840909090909122,
                "tempo": 120.0
            },
            {
                "start_time": 52.570454545454545,
                "end_time": 52.75454545454545,
                "pitch": 33,
                "velocity": 40,
                "duration": 0.18409090909090509,
                "tempo": 120.0
            },
            {
                "start_time": 52.77045454545454,
                "end_time": 52.95454545454545,
                "pitch": 33,
                "velocity": 40,
                "duration": 0.1840909090909122,
                "tempo": 120.0
            },
            {
                "start_time": 52.970454545454544,
                "end_time": 53.054545454545455,
                "pitch": 33,
                "velocity": 40,
                "duration": 0.08409090909091077,
                "tempo": 120.0
            },
            {
                "start_time": 53.070454545454545,
                "end_time": 53.15454545454545,
                "pitch": 33,
                "velocity": 40,
                "duration": 0.08409090909090366,
                "tempo": 120.0
            },
            {
                "start_time": 53.17045454545454,
                "end_time": 53.25454545454545,
                "pitch": 33,
                "velocity": 40,
                "duration": 0.08409090909091077,
                "tempo": 120.0
            },
            {
                "start_time": 53.27045454545454,
                "end_time": 53.35454545454545,
                "pitch": 33,
                "velocity": 40,
                "duration": 0.08409090909091077,
                "tempo": 120.0
            },
            {
                "start_time": 53.37045454545454,
                "end_time": 53.554545454545455,
                "pitch": 33,
                "velocity": 40,
                "duration": 0.1840909090909122,
                "tempo": 120.0
            },
            {
                "start_time": 53.57272727272727,
                "end_time": 53.75681818181818,
                "pitch": 33,
                "velocity": 40,
                "duration": 0.1840909090909122,
                "tempo": 120.0
            },
            {
                "start_time": 53.77272727272727,
                "end_time": 54.55681818181818,
                "pitch": 33,
                "velocity": 40,
                "duration": 0.7840909090909065,
                "tempo": 120.0
            },
            {
                "start_time": 54.57272727272727,
                "end_time": 54.95681818181818,
                "pitch": 43,
                "velocity": 40,
                "duration": 0.38409090909090793,
                "tempo": 120.0
            },
            {
                "start_time": 54.97272727272727,
                "end_time": 55.35681818181818,
                "pitch": 42,
                "velocity": 40,
                "duration": 0.38409090909090793,
                "tempo": 120.0
            },
            {
                "start_time": 55.37272727272727,
                "end_time": 55.559090909090905,
                "pitch": 33,
                "velocity": 40,
                "duration": 0.1863636363636374,
                "tempo": 120.0
            },
            {
                "start_time": 55.574999999999996,
                "end_time": 55.75909090909091,
                "pitch": 45,
                "velocity": 40,
                "duration": 0.1840909090909122,
                "tempo": 120.0
            },
            {
                "start_time": 55.777272727272724,
                "end_time": 55.959090909090904,
                "pitch": 33,
                "velocity": 40,
                "duration": 0.18181818181817988,
                "tempo": 120.0
            },
            {
                "start_time": 55.97727272727273,
                "end_time": 56.15909090909091,
                "pitch": 45,
                "velocity": 40,
                "duration": 0.18181818181817988,
                "tempo": 120.0
            },
            {
                "start_time": 56.17727272727272,
                "end_time": 56.35909090909091,
                "pitch": 33,
                "velocity": 40,
                "duration": 0.18181818181818699,
                "tempo": 120.0
            },
            {
                "start_time": 56.377272727272725,
                "end_time": 56.559090909090905,
                "pitch": 45,
                "velocity": 40,
                "duration": 0.18181818181817988,
                "tempo": 120.0
            },
            {
                "start_time": 56.57727272727273,
                "end_time": 56.75909090909091,
                "pitch": 33,
                "velocity": 40,
                "duration": 0.18181818181817988,
                "tempo": 120.0
            },
            {
                "start_time": 56.777272727272724,
                "end_time": 57.15909090909091,
                "pitch": 33,
                "velocity": 40,
                "duration": 0.3818181818181827,
                "tempo": 120.0
            },
            {
                "start_time": 57.17727272727272,
                "end_time": 57.35909090909091,
                "pitch": 33,
                "velocity": 40,
                "duration": 0.18181818181818699,
                "tempo": 120.0
            },
            {
                "start_time": 57.377272727272725,
                "end_time": 57.56136363636363,
                "pitch": 42,
                "velocity": 40,
                "duration": 0.18409090909090509,
                "tempo": 120.0
            },
            {
                "start_time": 57.57727272727272,
                "end_time": 57.76136363636363,
                "pitch": 42,
                "velocity": 40,
                "duration": 0.1840909090909122,
                "tempo": 120.0
            },
            {
                "start_time": 57.77954545454545,
                "end_time": 57.961363636363636,
                "pitch": 43,
                "velocity": 40,
                "duration": 0.18181818181818699,
                "tempo": 120.0
            },
            {
                "start_time": 57.97954545454545,
                "end_time": 58.16136363636363,
                "pitch": 43,
                "velocity": 40,
                "duration": 0.18181818181817988,
                "tempo": 120.0
            },
            {
                "start_time": 58.179545454545455,
                "end_time": 58.361363636363635,
                "pitch": 43,
                "velocity": 40,
                "duration": 0.18181818181817988,
                "tempo": 120.0
            },
            {
                "start_time": 58.37954545454545,
                "end_time": 58.56136363636363,
                "pitch": 42,
                "velocity": 40,
                "duration": 0.18181818181817988,
                "tempo": 120.0
            },
            {
                "start_time": 58.57954545454545,
                "end_time": 58.76136363636363,
                "pitch": 33,
                "velocity": 40,
                "duration": 0.18181818181817988,
                "tempo": 120.0
            },
            {
                "start_time": 58.77954545454545,
                "end_time": 58.961363636363636,
                "pitch": 45,
                "velocity": 40,
                "duration": 0.18181818181818699,
                "tempo": 120.0
            },
            {
                "start_time": 58.97954545454545,
                "end_time": 59.16136363636363,
                "pitch": 33,
                "velocity": 40,
                "duration": 0.18181818181817988,
                "tempo": 120.0
            },
            {
                "start_time": 59.179545454545455,
                "end_time": 59.361363636363635,
                "pitch": 45,
                "velocity": 40,
                "duration": 0.18181818181817988,
                "tempo": 120.0
            },
            {
                "start_time": 59.37954545454545,
                "end_time": 59.56363636363636,
                "pitch": 33,
                "velocity": 40,
                "duration": 0.1840909090909122,
                "tempo": 120.0
            },
            {
                "start_time": 59.57954545454545,
                "end_time": 59.76590909090909,
                "pitch": 45,
                "velocity": 40,
                "duration": 0.1863636363636374,
                "tempo": 120.0
            },
            {
                "start_time": 59.78181818181818,
                "end_time": 59.965909090909086,
                "pitch": 33,
                "velocity": 40,
                "duration": 0.18409090909090509,
                "tempo": 120.0
            },
            {
                "start_time": 59.98181818181818,
                "end_time": 60.365909090909085,
                "pitch": 33,
                "velocity": 40,
                "duration": 0.38409090909090793,
                "tempo": 120.0
            },
            {
                "start_time": 60.381818181818176,
                "end_time": 60.56590909090909,
                "pitch": 45,
                "velocity": 40,
                "duration": 0.1840909090909122,
                "tempo": 120.0
            },
            {
                "start_time": 60.58181818181818,
                "end_time": 60.76590909090909,
                "pitch": 42,
                "velocity": 40,
                "duration": 0.1840909090909122,
                "tempo": 120.0
            },
            {
                "start_time": 60.78181818181818,
                "end_time": 60.965909090909086,
                "pitch": 42,
                "velocity": 40,
                "duration": 0.18409090909090509,
                "tempo": 120.0
            },
            {
                "start_time": 60.98181818181818,
                "end_time": 61.16590909090909,
                "pitch": 43,
                "velocity": 40,
                "duration": 0.1840909090909122,
                "tempo": 120.0
            },
            {
                "start_time": 61.18181818181818,
                "end_time": 61.365909090909085,
                "pitch": 43,
                "velocity": 40,
                "duration": 0.18409090909090509,
                "tempo": 120.0
            },
            {
                "start_time": 61.381818181818176,
                "end_time": 61.56590909090909,
                "pitch": 42,
                "velocity": 40,
                "duration": 0.1840909090909122,
                "tempo": 120.0
            },
            {
                "start_time": 61.584090909090904,
                "end_time": 61.768181818181816,
                "pitch": 42,
                "velocity": 40,
                "duration": 0.1840909090909122,
                "tempo": 120.0
            },
            {
                "start_time": 61.78409090909091,
                "end_time": 61.96818181818182,
                "pitch": 33,
                "velocity": 40,
                "duration": 0.1840909090909122,
                "tempo": 120.0
            },
            {
                "start_time": 61.98409090909091,
                "end_time": 62.168181818181814,
                "pitch": 45,
                "velocity": 40,
                "duration": 0.18409090909090509,
                "tempo": 120.0
            },
            {
                "start_time": 62.184090909090905,
                "end_time": 62.36818181818182,
                "pitch": 33,
                "velocity": 40,
                "duration": 0.1840909090909122,
                "tempo": 120.0
            },
            {
                "start_time": 62.38409090909091,
                "end_time": 62.56818181818181,
                "pitch": 45,
                "velocity": 40,
                "duration": 0.18409090909090509,
                "tempo": 120.0
            },
            {
                "start_time": 62.584090909090904,
                "end_time": 62.768181818181816,
                "pitch": 33,
                "velocity": 40,
                "duration": 0.1840909090909122,
                "tempo": 120.0
            },
            {
                "start_time": 62.78409090909091,
                "end_time": 62.96818181818181,
                "pitch": 45,
                "velocity": 40,
                "duration": 0.18409090909090509,
                "tempo": 120.0
            },
            {
                "start_time": 62.98409090909091,
                "end_time": 63.168181818181814,
                "pitch": 33,
                "velocity": 40,
                "duration": 0.18409090909090509,
                "tempo": 120.0
            },
            {
                "start_time": 63.184090909090905,
                "end_time": 63.56818181818181,
                "pitch": 33,
                "velocity": 40,
                "duration": 0.38409090909090793,
                "tempo": 120.0
            },
            {
                "start_time": 63.586363636363636,
                "end_time": 63.77045454545454,
                "pitch": 45,
                "velocity": 40,
                "duration": 0.18409090909090509,
                "tempo": 120.0
            },
            {
                "start_time": 63.78636363636363,
                "end_time": 63.970454545454544,
                "pitch": 42,
                "velocity": 40,
                "duration": 0.1840909090909122,
                "tempo": 120.0
            },
            {
                "start_time": 63.986363636363635,
                "end_time": 64.17045454545455,
                "pitch": 42,
                "velocity": 40,
                "duration": 0.1840909090909122,
                "tempo": 120.0
            },
            {
                "start_time": 64.18636363636364,
                "end_time": 64.37045454545454,
                "pitch": 43,
                "velocity": 40,
                "duration": 0.18409090909089798,
                "tempo": 120.0
            },
            {
                "start_time": 64.38636363636364,
                "end_time": 64.57045454545454,
                "pitch": 43,
                "velocity": 40,
                "duration": 0.18409090909089798,
                "tempo": 120.0
            },
            {
                "start_time": 64.58636363636363,
                "end_time": 64.77272727272727,
                "pitch": 42,
                "velocity": 40,
                "duration": 0.1863636363636374,
                "tempo": 120.0
            },
            {
                "start_time": 64.78863636363636,
                "end_time": 64.97272727272727,
                "pitch": 42,
                "velocity": 40,
                "duration": 0.1840909090909122,
                "tempo": 120.0
            },
            {
                "start_time": 64.98863636363636,
                "end_time": 65.17272727272727,
                "pitch": 33,
                "velocity": 40,
                "duration": 0.1840909090909122,
                "tempo": 120.0
            },
            {
                "start_time": 65.18863636363636,
                "end_time": 65.37272727272727,
                "pitch": 45,
                "velocity": 40,
                "duration": 0.1840909090909122,
                "tempo": 120.0
            },
            {
                "start_time": 65.39090909090909,
                "end_time": 65.575,
                "pitch": 33,
                "velocity": 40,
                "duration": 0.1840909090909122,
                "tempo": 120.0
            },
            {
                "start_time": 65.5909090909091,
                "end_time": 65.77499999999999,
                "pitch": 45,
                "velocity": 40,
                "duration": 0.18409090909089798,
                "tempo": 120.0
            },
            {
                "start_time": 65.79318181818182,
                "end_time": 65.975,
                "pitch": 33,
                "velocity": 40,
                "duration": 0.18181818181817277,
                "tempo": 120.0
            },
            {
                "start_time": 65.99318181818181,
                "end_time": 66.175,
                "pitch": 45,
                "velocity": 40,
                "duration": 0.18181818181818699,
                "tempo": 120.0
            },
            {
                "start_time": 66.19318181818181,
                "end_time": 66.37727272727273,
                "pitch": 33,
                "velocity": 40,
                "duration": 0.1840909090909122,
                "tempo": 120.0
            },
            {
                "start_time": 66.39318181818182,
                "end_time": 66.77954545454546,
                "pitch": 33,
                "velocity": 40,
                "duration": 0.38636363636364024,
                "tempo": 120.0
            },
            {
                "start_time": 66.79772727272727,
                "end_time": 66.98181818181818,
                "pitch": 45,
                "velocity": 40,
                "duration": 0.1840909090909122,
                "tempo": 120.0
            },
            {
                "start_time": 66.99772727272727,
                "end_time": 67.18181818181817,
                "pitch": 42,
                "velocity": 40,
                "duration": 0.18409090909089798,
                "tempo": 120.0
            },
            {
                "start_time": 67.19772727272726,
                "end_time": 67.38181818181818,
                "pitch": 42,
                "velocity": 40,
                "duration": 0.1840909090909122,
                "tempo": 120.0
            },
            {
                "start_time": 67.39772727272727,
                "end_time": 67.58181818181818,
                "pitch": 43,
                "velocity": 40,
                "duration": 0.1840909090909122,
                "tempo": 120.0
            },
            {
                "start_time": 67.6,
                "end_time": 67.7840909090909,
                "pitch": 43,
                "velocity": 40,
                "duration": 0.1840909090909122,
                "tempo": 120.0
            },
            {
                "start_time": 67.8,
                "end_time": 67.98409090909091,
                "pitch": 42,
                "velocity": 40,
                "duration": 0.1840909090909122,
                "tempo": 120.0
            },
            {
                "start_time": 68.0,
                "end_time": 68.18409090909091,
                "pitch": 42,
                "velocity": 40,
                "duration": 0.1840909090909122,
                "tempo": 120.0
            },
            {
                "start_time": 68.2,
                "end_time": 68.3840909090909,
                "pitch": 41,
                "velocity": 40,
                "duration": 0.18409090909089798,
                "tempo": 120.0
            },
            {
                "start_time": 68.40227272727273,
                "end_time": 68.58636363636363,
                "pitch": 41,
                "velocity": 40,
                "duration": 0.18409090909089798,
                "tempo": 120.0
            },
            {
                "start_time": 68.60227272727272,
                "end_time": 68.78863636363636,
                "pitch": 41,
                "velocity": 40,
                "duration": 0.1863636363636374,
                "tempo": 120.0
            },
            {
                "start_time": 68.80454545454545,
                "end_time": 69.18863636363636,
                "pitch": 43,
                "velocity": 40,
                "duration": 0.38409090909091503,
                "tempo": 120.0
            },
            {
                "start_time": 69.20681818181818,
                "end_time": 69.5909090909091,
                "pitch": 43,
                "velocity": 40,
                "duration": 0.38409090909091503,
                "tempo": 120.0
            },
            {
                "start_time": 69.60681818181818,
                "end_time": 69.79090909090908,
                "pitch": 43,
                "velocity": 40,
                "duration": 0.18409090909089798,
                "tempo": 120.0
            },
            {
                "start_time": 69.80909090909091,
                "end_time": 69.99090909090908,
                "pitch": 43,
                "velocity": 40,
                "duration": 0.18181818181817277,
                "tempo": 120.0
            },
            {
                "start_time": 70.0090909090909,
                "end_time": 70.19090909090909,
                "pitch": 36,
                "velocity": 40,
                "duration": 0.18181818181818699,
                "tempo": 120.0
            },
            {
                "start_time": 70.2090909090909,
                "end_time": 70.39318181818182,
                "pitch": 35,
                "velocity": 40,
                "duration": 0.1840909090909122,
                "tempo": 120.0
            },
            {
                "start_time": 70.4090909090909,
                "end_time": 70.79545454545455,
                "pitch": 33,
                "velocity": 40,
                "duration": 0.38636363636364024,
                "tempo": 120.0
            },
            {
                "start_time": 70.81363636363636,
                "end_time": 70.99772727272727,
                "pitch": 45,
                "velocity": 40,
                "duration": 0.1840909090909122,
                "tempo": 120.0
            },
            {
                "start_time": 71.01363636363637,
                "end_time": 71.19772727272726,
                "pitch": 43,
                "velocity": 40,
                "duration": 0.18409090909089798,
                "tempo": 120.0
            },
            {
                "start_time": 71.21363636363635,
                "end_time": 71.39772727272727,
                "pitch": 40,
                "velocity": 40,
                "duration": 0.1840909090909122,
                "tempo": 120.0
            },
            {
                "start_time": 71.41363636363636,
                "end_time": 71.59772727272727,
                "pitch": 41,
                "velocity": 40,
                "duration": 0.1840909090909122,
                "tempo": 120.0
            },
            {
                "start_time": 71.61590909090908,
                "end_time": 71.8,
                "pitch": 41,
                "velocity": 40,
                "duration": 0.1840909090909122,
                "tempo": 120.0
            },
            {
                "start_time": 71.81590909090909,
                "end_time": 72.0,
                "pitch": 41,
                "velocity": 40,
                "duration": 0.1840909090909122,
                "tempo": 120.0
            },
            {
                "start_time": 72.01590909090909,
                "end_time": 72.40227272727272,
                "pitch": 43,
                "velocity": 40,
                "duration": 0.38636363636362603,
                "tempo": 120.0
            },
            {
                "start_time": 72.41818181818182,
                "end_time": 72.60227272727272,
                "pitch": 43,
                "velocity": 40,
                "duration": 0.18409090909089798,
                "tempo": 120.0
            },
            {
                "start_time": 72.62045454545454,
                "end_time": 72.80454545454545,
                "pitch": 36,
                "velocity": 40,
                "duration": 0.1840909090909122,
                "tempo": 120.0
            },
            {
                "start_time": 72.82045454545454,
                "end_time": 73.20454545454545,
                "pitch": 33,
                "velocity": 40,
                "duration": 0.38409090909091503,
                "tempo": 120.0
            },
            {
                "start_time": 73.22272727272727,
                "end_time": 73.40454545454546,
                "pitch": 33,
                "velocity": 40,
                "duration": 0.18181818181818699,
                "tempo": 120.0
            },
            {
                "start_time": 73.42272727272727,
                "end_time": 73.50681818181818,
                "pitch": 43,
                "velocity": 40,
                "duration": 0.08409090909090366,
                "tempo": 120.0
            },
            {
                "start_time": 73.52272727272727,
                "end_time": 73.80909090909091,
                "pitch": 45,
                "velocity": 40,
                "duration": 0.2863636363636459,
                "tempo": 120.0
            },
            {
                "start_time": 73.825,
                "end_time": 74.0090909090909,
                "pitch": 48,
                "velocity": 40,
                "duration": 0.18409090909089798,
                "tempo": 120.0
            },
            {
                "start_time": 74.02499999999999,
                "end_time": 74.2090909090909,
                "pitch": 47,
                "velocity": 40,
                "duration": 0.1840909090909122,
                "tempo": 120.0
            },
            {
                "start_time": 74.225,
                "end_time": 74.61136363636363,
                "pitch": 43,
                "velocity": 40,
                "duration": 0.38636363636364024,
                "tempo": 120.0
            },
            {
                "start_time": 74.62727272727273,
                "end_time": 74.81136363636364,
                "pitch": 41,
                "velocity": 40,
                "duration": 0.1840909090909122,
                "tempo": 120.0
            },
            {
                "start_time": 74.82954545454545,
                "end_time": 75.01363636363637,
                "pitch": 41,
                "velocity": 40,
                "duration": 0.1840909090909122,
                "tempo": 120.0
            },
            {
                "start_time": 75.02954545454546,
                "end_time": 75.21363636363635,
                "pitch": 41,
                "velocity": 40,
                "duration": 0.18409090909089798,
                "tempo": 120.0
            },
            {
                "start_time": 75.22954545454544,
                "end_time": 75.61363636363636,
                "pitch": 43,
                "velocity": 40,
                "duration": 0.38409090909091503,
                "tempo": 120.0
            },
            {
                "start_time": 75.63181818181818,
                "end_time": 75.81590909090909,
                "pitch": 43,
                "velocity": 40,
                "duration": 0.1840909090909122,
                "tempo": 120.0
            },
            {
                "start_time": 75.83181818181818,
                "end_time": 76.01590909090909,
                "pitch": 43,
                "velocity": 40,
                "duration": 0.1840909090909122,
                "tempo": 120.0
            },
            {
                "start_time": 76.03181818181818,
                "end_time": 76.2159090909091,
                "pitch": 43,
                "velocity": 40,
                "duration": 0.1840909090909122,
                "tempo": 120.0
            },
            {
                "start_time": 76.23181818181818,
                "end_time": 76.41818181818182,
                "pitch": 43,
                "velocity": 40,
                "duration": 0.1863636363636374,
                "tempo": 120.0
            },
            {
                "start_time": 76.43409090909091,
                "end_time": 76.61818181818181,
                "pitch": 36,
                "velocity": 40,
                "duration": 0.18409090909089798,
                "tempo": 120.0
            },
            {
                "start_time": 76.63636363636363,
                "end_time": 76.82045454545454,
                "pitch": 35,
                "velocity": 40,
                "duration": 0.1840909090909122,
                "tempo": 120.0
            },
            {
                "start_time": 76.83636363636363,
                "end_time": 77.22045454545454,
                "pitch": 33,
                "velocity": 40,
                "duration": 0.38409090909091503,
                "tempo": 120.0
            },
            {
                "start_time": 77.23863636363636,
                "end_time": 77.42045454545455,
                "pitch": 45,
                "velocity": 40,
                "duration": 0.18181818181818699,
                "tempo": 120.0
            },
            {
                "start_time": 77.43863636363636,
                "end_time": 77.62272727272727,
                "pitch": 43,
                "velocity": 40,
                "duration": 0.1840909090909122,
                "tempo": 120.0
            },
            {
                "start_time": 77.63863636363637,
                "end_time": 77.825,
                "pitch": 40,
                "velocity": 40,
                "duration": 0.1863636363636374,
                "tempo": 120.0
            },
            {
                "start_time": 77.8409090909091,
                "end_time": 78.02499999999999,
                "pitch": 41,
                "velocity": 40,
                "duration": 0.18409090909089798,
                "tempo": 120.0
            },
            {
                "start_time": 78.04090909090908,
                "end_time": 78.225,
                "pitch": 41,
                "velocity": 40,
                "duration": 0.1840909090909122,
                "tempo": 120.0
            },
            {
                "start_time": 78.24090909090908,
                "end_time": 78.425,
                "pitch": 41,
                "velocity": 40,
                "duration": 0.1840909090909122,
                "tempo": 120.0
            },
            {
                "start_time": 78.44318181818181,
                "end_time": 78.83181818181818,
                "pitch": 43,
                "velocity": 40,
                "duration": 0.38863636363636545,
                "tempo": 120.0
            },
            {
                "start_time": 78.85,
                "end_time": 79.03863636363636,
                "pitch": 43,
                "velocity": 40,
                "duration": 0.1886363636363626,
                "tempo": 120.0
            },
            {
                "start_time": 79.05454545454545,
                "end_time": 79.23409090909091,
                "pitch": 36,
                "velocity": 40,
                "duration": 0.17954545454546178,
                "tempo": 120.0
            },
            {
                "start_time": 79.25,
                "end_time": 79.63181818181818,
                "pitch": 33,
                "velocity": 40,
                "duration": 0.3818181818181756,
                "tempo": 120.0
            },
            {
                "start_time": 79.64772727272727,
                "end_time": 79.83181818181818,
                "pitch": 33,
                "velocity": 40,
                "duration": 0.1840909090909122,
                "tempo": 120.0
            },
            {
                "start_time": 79.85,
                "end_time": 79.93181818181817,
                "pitch": 43,
                "velocity": 40,
                "duration": 0.08181818181817846,
                "tempo": 120.0
            },
            {
                "start_time": 79.95,
                "end_time": 80.03181818181818,
                "pitch": 45,
                "velocity": 40,
                "duration": 0.08181818181817846,
                "tempo": 120.0
            },
            {
                "start_time": 80.05,
                "end_time": 80.23181818181818,
                "pitch": 33,
                "velocity": 40,
                "duration": 0.18181818181818699,
                "tempo": 120.0
            },
            {
                "start_time": 80.24772727272727,
                "end_time": 80.42727272727272,
                "pitch": 33,
                "velocity": 40,
                "duration": 0.17954545454544757,
                "tempo": 120.0
            },
            {
                "start_time": 80.44545454545454,
                "end_time": 80.625,
                "pitch": 33,
                "velocity": 40,
                "duration": 0.17954545454546178,
                "tempo": 120.0
            },
            {
                "start_time": 80.64090909090909,
                "end_time": 81.03636363636363,
                "pitch": 43,
                "velocity": 40,
                "duration": 0.39545454545454106,
                "tempo": 120.0
            },
            {
                "start_time": 81.05227272727272,
                "end_time": 81.23636363636363,
                "pitch": 41,
                "velocity": 40,
                "duration": 0.1840909090909122,
                "tempo": 120.0
            },
            {
                "start_time": 81.25227272727273,
                "end_time": 81.43636363636364,
                "pitch": 41,
                "velocity": 40,
                "duration": 0.1840909090909122,
                "tempo": 120.0
            },
            {
                "start_time": 81.45227272727273,
                "end_time": 81.63636363636363,
                "pitch": 41,
                "velocity": 40,
                "duration": 0.18409090909089798,
                "tempo": 120.0
            },
            {
                "start_time": 81.65454545454546,
                "end_time": 82.03863636363636,
                "pitch": 43,
                "velocity": 40,
                "duration": 0.3840909090909008,
                "tempo": 120.0
            },
            {
                "start_time": 82.05454545454545,
                "end_time": 82.43863636363636,
                "pitch": 43,
                "velocity": 40,
                "duration": 0.38409090909091503,
                "tempo": 120.0
            },
            {
                "start_time": 82.45681818181818,
                "end_time": 82.64090909090909,
                "pitch": 43,
                "velocity": 40,
                "duration": 0.1840909090909122,
                "tempo": 120.0
            },
            {
                "start_time": 82.65681818181818,
                "end_time": 82.8409090909091,
                "pitch": 43,
                "velocity": 40,
                "duration": 0.1840909090909122,
                "tempo": 120.0
            },
            {
                "start_time": 82.85909090909091,
                "end_time": 83.04318181818181,
                "pitch": 36,
                "velocity": 40,
                "duration": 0.18409090909089798,
                "tempo": 120.0
            },
            {
                "start_time": 83.0590909090909,
                "end_time": 83.24318181818181,
                "pitch": 35,
                "velocity": 40,
                "duration": 0.1840909090909122,
                "tempo": 120.0
            },
            {
                "start_time": 83.2590909090909,
                "end_time": 83.64545454545454,
                "pitch": 33,
                "velocity": 40,
                "duration": 0.38636363636364024,
                "tempo": 120.0
            },
            {
                "start_time": 83.66136363636363,
                "end_time": 83.84545454545454,
                "pitch": 45,
                "velocity": 40,
                "duration": 0.1840909090909122,
                "tempo": 120.0
            },
            {
                "start_time": 83.86363636363636,
                "end_time": 84.04545454545455,
                "pitch": 43,
                "velocity": 40,
                "duration": 0.18181818181818699,
                "tempo": 120.0
            },
            {
                "start_time": 84.06363636363636,
                "end_time": 84.24545454545454,
                "pitch": 40,
                "velocity": 40,
                "duration": 0.18181818181817277,
                "tempo": 120.0
            }
        ],
        "Trumpet": [
            {
                "start_time": 0.6022727272727273,
                "end_time": 0.7863636363636364,
                "pitch": 69,
                "velocity": 51,
                "duration": 0.18409090909090908,
                "tempo": 120.0
            },
            {
                "start_time": 0.8022727272727272,
                "end_time": 2.2113636363636364,
                "pitch": 69,
                "velocity": 51,
                "duration": 1.4090909090909092,
                "tempo": 120.0
            },
            {
                "start_time": 2.227272727272727,
                "end_time": 3.818181818181818,
                "pitch": 71,
                "velocity": 51,
                "duration": 1.5909090909090908,
                "tempo": 120.0
            },
            {
                "start_time": 3.836363636363636,
                "end_time": 5.415909090909091,
                "pitch": 73,
                "velocity": 51,
                "duration": 1.579545454545455,
                "tempo": 120.0
            },
            {
                "start_time": 5.431818181818182,
                "end_time": 5.515909090909091,
                "pitch": 73,
                "velocity": 51,
                "duration": 0.084090909090909,
                "tempo": 120.0
            },
            {
                "start_time": 5.534090909090909,
                "end_time": 5.61590909090909,
                "pitch": 74,
                "velocity": 51,
                "duration": 0.08181818181818112,
                "tempo": 120.0
            },
            {
                "start_time": 5.634090909090909,
                "end_time": 5.8159090909090905,
                "pitch": 73,
                "velocity": 51,
                "duration": 0.18181818181818166,
                "tempo": 120.0
            },
            {
                "start_time": 5.834090909090909,
                "end_time": 6.222727272727273,
                "pitch": 69,
                "velocity": 51,
                "duration": 0.38863636363636367,
                "tempo": 120.0
            },
            {
                "start_time": 6.238636363636363,
                "end_time": 7.029545454545454,
                "pitch": 64,
                "velocity": 51,
                "duration": 0.790909090909091,
                "tempo": 120.0
            },
            {
                "start_time": 7.047727272727272,
                "end_time": 8.636363636363637,
                "pitch": 69,
                "velocity": 51,
                "duration": 1.5886363636363647,
                "tempo": 120.0
            },
            {
                "start_time": 8.654545454545454,
                "end_time": 10.24090909090909,
                "pitch": 71,
                "velocity": 51,
                "duration": 1.586363636363636,
                "tempo": 120.0
            },
            {
                "start_time": 10.256818181818181,
                "end_time": 12.045454545454545,
                "pitch": 73,
                "velocity": 51,
                "duration": 1.788636363636364,
                "tempo": 120.0
            },
            {
                "start_time": 12.875,
                "end_time": 15.06590909090909,
                "pitch": 63,
                "velocity": 51,
                "duration": 2.1909090909090896,
                "tempo": 120.0
            },
            {
                "start_time": 15.08181818181818,
                "end_time": 16.668181818181818,
                "pitch": 71,
                "velocity": 51,
                "duration": 1.5863636363636378,
                "tempo": 120.0
            },
            {
                "start_time": 16.68409090909091,
                "end_time": 18.268181818181816,
                "pitch": 73,
                "velocity": 51,
                "duration": 1.5840909090909072,
                "tempo": 120.0
            },
            {
                "start_time": 18.284090909090907,
                "end_time": 18.368181818181817,
                "pitch": 73,
                "velocity": 51,
                "duration": 0.08409090909091077,
                "tempo": 120.0
            },
            {
                "start_time": 18.384090909090908,
                "end_time": 18.46818181818182,
                "pitch": 74,
                "velocity": 51,
                "duration": 0.08409090909091077,
                "tempo": 120.0
            },
            {
                "start_time": 18.48409090909091,
                "end_time": 18.672727272727272,
                "pitch": 73,
                "velocity": 51,
                "duration": 0.1886363636363626,
                "tempo": 120.0
            },
            {
                "start_time": 18.69090909090909,
                "end_time": 19.079545454545453,
                "pitch": 69,
                "velocity": 51,
                "duration": 0.3886363636363619,
                "tempo": 120.0
            },
            {
                "start_time": 19.097727272727273,
                "end_time": 19.88181818181818,
                "pitch": 64,
                "velocity": 51,
                "duration": 0.7840909090909065,
                "tempo": 120.0
            },
            {
                "start_time": 19.9,
                "end_time": 21.486363636363635,
                "pitch": 69,
                "velocity": 51,
                "duration": 1.586363636363636,
                "tempo": 120.0
            },
            {
                "start_time": 21.504545454545454,
                "end_time": 23.086363636363636,
                "pitch": 71,
                "velocity": 51,
                "duration": 1.581818181818182,
                "tempo": 120.0
            },
            {
                "start_time": 23.102272727272727,
                "end_time": 24.888636363636362,
                "pitch": 73,
                "velocity": 51,
                "duration": 1.7863636363636353,
                "tempo": 120.0
            }
        ],
        "Clarinet": [
            {
                "start_time": 38.45227272727273,
                "end_time": 38.52045454545454,
                "pitch": 63,
                "velocity": 51,
                "duration": 0.06818181818181301,
                "tempo": 120.0
            },
            {
                "start_time": 38.52045454545454,
                "end_time": 38.55227272727272,
                "pitch": 60,
                "velocity": 51,
                "duration": 0.0318181818181813,
                "tempo": 120.0
            },
            {
                "start_time": 38.74318181818182,
                "end_time": 38.80681818181818,
                "pitch": 60,
                "velocity": 51,
                "duration": 0.0636363636363626,
                "tempo": 120.0
            },
            {
                "start_time": 38.80681818181818,
                "end_time": 38.83863636363636,
                "pitch": 56,
                "velocity": 51,
                "duration": 0.0318181818181813,
                "tempo": 120.0
            },
            {
                "start_time": 38.83863636363636,
                "end_time": 38.902272727272724,
                "pitch": 54,
                "velocity": 51,
                "duration": 0.0636363636363626,
                "tempo": 120.0
            },
            {
                "start_time": 38.902272727272724,
                "end_time": 38.93636363636364,
                "pitch": 51,
                "velocity": 51,
                "duration": 0.03409090909091361,
                "tempo": 120.0
            },
            {
                "start_time": 38.93636363636364,
                "end_time": 39.14090909090909,
                "pitch": 57,
                "velocity": 51,
                "duration": 0.20454545454545325,
                "tempo": 120.0
            },
            {
                "start_time": 39.14090909090909,
                "end_time": 50.80227272727272,
                "pitch": 62,
                "velocity": 51,
                "duration": 11.661363636363632,
                "tempo": 120.0
            },
            {
                "start_time": 50.80227272727272,
                "end_time": 50.834090909090904,
                "pitch": 58,
                "velocity": 51,
                "duration": 0.0318181818181813,
                "tempo": 120.0
            },
            {
                "start_time": 50.834090909090904,
                "end_time": 50.86818181818182,
                "pitch": 56,
                "velocity": 51,
                "duration": 0.03409090909091361,
                "tempo": 120.0
            },
            {
                "start_time": 50.86818181818182,
                "end_time": 50.934090909090905,
                "pitch": 54,
                "velocity": 51,
                "duration": 0.06590909090908781,
                "tempo": 120.0
            },
            {
                "start_time": 50.934090909090905,
                "end_time": 50.96818181818182,
                "pitch": 51,
                "velocity": 51,
                "duration": 0.03409090909091361,
                "tempo": 120.0
            },
            {
                "start_time": 50.96818181818182,
                "end_time": 51.03409090909091,
                "pitch": 60,
                "velocity": 51,
                "duration": 0.06590909090908781,
                "tempo": 120.0
            },
            {
                "start_time": 51.03409090909091,
                "end_time": 51.06818181818181,
                "pitch": 56,
                "velocity": 51,
                "duration": 0.03409090909090651,
                "tempo": 120.0
            },
            {
                "start_time": 51.06818181818181,
                "end_time": 51.13409090909091,
                "pitch": 54,
                "velocity": 51,
                "duration": 0.06590909090909491,
                "tempo": 120.0
            },
            {
                "start_time": 51.13409090909091,
                "end_time": 51.168181818181814,
                "pitch": 51,
                "velocity": 51,
                "duration": 0.03409090909090651,
                "tempo": 120.0
            },
            {
                "start_time": 51.168181818181814,
                "end_time": 51.23409090909091,
                "pitch": 60,
                "velocity": 51,
                "duration": 0.06590909090909491,
                "tempo": 120.0
            },
            {
                "start_time": 51.23409090909091,
                "end_time": 51.268181818181816,
                "pitch": 56,
                "velocity": 51,
                "duration": 0.03409090909090651,
                "tempo": 120.0
            },
            {
                "start_time": 51.268181818181816,
                "end_time": 51.334090909090904,
                "pitch": 54,
                "velocity": 51,
                "duration": 0.06590909090908781,
                "tempo": 120.0
            },
            {
                "start_time": 51.334090909090904,
                "end_time": 51.36818181818182,
                "pitch": 51,
                "velocity": 51,
                "duration": 0.03409090909091361,
                "tempo": 120.0
            },
            {
                "start_time": 51.36818181818182,
                "end_time": 51.43636363636364,
                "pitch": 60,
                "velocity": 51,
                "duration": 0.06818181818182012,
                "tempo": 120.0
            },
            {
                "start_time": 51.43636363636364,
                "end_time": 51.46818181818182,
                "pitch": 56,
                "velocity": 51,
                "duration": 0.0318181818181813,
                "tempo": 120.0
            },
            {
                "start_time": 51.46818181818182,
                "end_time": 51.53636363636363,
                "pitch": 54,
                "velocity": 51,
                "duration": 0.06818181818181301,
                "tempo": 120.0
            },
            {
                "start_time": 51.53636363636363,
                "end_time": 51.570454545454545,
                "pitch": 51,
                "velocity": 51,
                "duration": 0.03409090909091361,
                "tempo": 120.0
            },
            {
                "start_time": 51.570454545454545,
                "end_time": 51.63636363636363,
                "pitch": 60,
                "velocity": 51,
                "duration": 0.06590909090908781,
                "tempo": 120.0
            },
            {
                "start_time": 51.63636363636363,
                "end_time": 51.67045454545454,
                "pitch": 56,
                "velocity": 51,
                "duration": 0.03409090909090651,
                "tempo": 120.0
            },
            {
                "start_time": 51.67045454545454,
                "end_time": 51.73863636363636,
                "pitch": 54,
                "velocity": 51,
                "duration": 0.06818181818182012,
                "tempo": 120.0
            },
            {
                "start_time": 51.73863636363636,
                "end_time": 51.77045454545454,
                "pitch": 51,
                "velocity": 51,
                "duration": 0.0318181818181813,
                "tempo": 120.0
            },
            {
                "start_time": 51.77045454545454,
                "end_time": 51.83863636363636,
                "pitch": 60,
                "velocity": 51,
                "duration": 0.06818181818182012,
                "tempo": 120.0
            },
            {
                "start_time": 51.83863636363636,
                "end_time": 51.87045454545454,
                "pitch": 56,
                "velocity": 51,
                "duration": 0.0318181818181813,
                "tempo": 120.0
            },
            {
                "start_time": 51.87045454545454,
                "end_time": 51.93863636363636,
                "pitch": 54,
                "velocity": 51,
                "duration": 0.06818181818182012,
                "tempo": 120.0
            },
            {
                "start_time": 51.93863636363636,
                "end_time": 51.970454545454544,
                "pitch": 51,
                "velocity": 51,
                "duration": 0.0318181818181813,
                "tempo": 120.0
            },
            {
                "start_time": 51.970454545454544,
                "end_time": 52.038636363636364,
                "pitch": 60,
                "velocity": 51,
                "duration": 0.06818181818182012,
                "tempo": 120.0
            },
            {
                "start_time": 52.038636363636364,
                "end_time": 52.070454545454545,
                "pitch": 56,
                "velocity": 51,
                "duration": 0.0318181818181813,
                "tempo": 120.0
            },
            {
                "start_time": 52.070454545454545,
                "end_time": 52.13863636363636,
                "pitch": 54,
                "velocity": 51,
                "duration": 0.06818181818181301,
                "tempo": 120.0
            },
            {
                "start_time": 52.13863636363636,
                "end_time": 52.17045454545454,
                "pitch": 51,
                "velocity": 51,
                "duration": 0.0318181818181813,
                "tempo": 120.0
            },
            {
                "start_time": 52.17045454545454,
                "end_time": 53.00454545454545,
                "pitch": 33,
                "velocity": 51,
                "duration": 0.8340909090909108,
                "tempo": 120.0
            },
            {
                "start_time": 53.00454545454545,
                "end_time": 53.070454545454545,
                "pitch": 62,
                "velocity": 51,
                "duration": 0.06590909090909491,
                "tempo": 120.0
            },
            {
                "start_time": 53.070454545454545,
                "end_time": 53.10454545454545,
                "pitch": 58,
                "velocity": 51,
                "duration": 0.03409090909090651,
                "tempo": 120.0
            },
            {
                "start_time": 53.10454545454545,
                "end_time": 53.17045454545454,
                "pitch": 63,
                "velocity": 51,
                "duration": 0.06590909090908781,
                "tempo": 120.0
            },
            {
                "start_time": 53.17045454545454,
                "end_time": 53.304545454545455,
                "pitch": 60,
                "velocity": 51,
                "duration": 0.13409090909091503,
                "tempo": 120.0
            },
            {
                "start_time": 53.304545454545455,
                "end_time": 53.33863636363636,
                "pitch": 56,
                "velocity": 51,
                "duration": 0.03409090909090651,
                "tempo": 120.0
            },
            {
                "start_time": 53.33863636363636,
                "end_time": 53.37045454545454,
                "pitch": 54,
                "velocity": 51,
                "duration": 0.0318181818181813,
                "tempo": 120.0
            },
            {
                "start_time": 53.37045454545454,
                "end_time": 53.43863636363636,
                "pitch": 60,
                "velocity": 51,
                "duration": 0.06818181818182012,
                "tempo": 120.0
            },
            {
                "start_time": 53.43863636363636,
                "end_time": 53.47272727272727,
                "pitch": 56,
                "velocity": 51,
                "duration": 0.03409090909090651,
                "tempo": 120.0
            },
            {
                "start_time": 53.47272727272727,
                "end_time": 53.50454545454545,
                "pitch": 54,
                "velocity": 51,
                "duration": 0.0318181818181813,
                "tempo": 120.0
            },
            {
                "start_time": 53.50454545454545,
                "end_time": 53.77272727272727,
                "pitch": 57,
                "velocity": 51,
                "duration": 0.26818181818182296,
                "tempo": 120.0
            },
            {
                "start_time": 53.77272727272727,
                "end_time": 54.00681818181818,
                "pitch": 45,
                "velocity": 51,
                "duration": 0.23409090909090935,
                "tempo": 120.0
            },
            {
                "start_time": 54.00681818181818,
                "end_time": 54.07272727272727,
                "pitch": 62,
                "velocity": 51,
                "duration": 0.06590909090908781,
                "tempo": 120.0
            },
            {
                "start_time": 54.07272727272727,
                "end_time": 54.17272727272727,
                "pitch": 57,
                "velocity": 51,
                "duration": 0.10000000000000142,
                "tempo": 120.0
            },
            {
                "start_time": 54.17272727272727,
                "end_time": 54.240909090909085,
                "pitch": 60,
                "velocity": 51,
                "duration": 0.06818181818181301,
                "tempo": 120.0
            },
            {
                "start_time": 54.240909090909085,
                "end_time": 54.27272727272727,
                "pitch": 56,
                "velocity": 51,
                "duration": 0.03181818181818841,
                "tempo": 120.0
            },
            {
                "start_time": 54.27272727272727,
                "end_time": 54.340909090909086,
                "pitch": 54,
                "velocity": 51,
                "duration": 0.06818181818181301,
                "tempo": 120.0
            },
            {
                "start_time": 54.340909090909086,
                "end_time": 54.37272727272727,
                "pitch": 51,
                "velocity": 51,
                "duration": 0.0318181818181813,
                "tempo": 120.0
            }
        ],
        "Lead 2 (sawtooth)": [
            {
                "start_time": 26.318181818181817,
                "end_time": 27.902272727272727,
                "pitch": 57,
                "velocity": 51,
                "duration": 1.5840909090909108,
                "tempo": 120.0
            },
            {
                "start_time": 27.918181818181818,
                "end_time": 29.511363636363637,
                "pitch": 55,
                "velocity": 51,
                "duration": 1.5931818181818187,
                "tempo": 120.0
            },
            {
                "start_time": 29.527272727272727,
                "end_time": 31.113636363636363,
                "pitch": 54,
                "velocity": 51,
                "duration": 1.586363636363636,
                "tempo": 120.0
            },
            {
                "start_time": 31.13181818181818,
                "end_time": 31.91590909090909,
                "pitch": 54,
                "velocity": 51,
                "duration": 0.7840909090909101,
                "tempo": 120.0
            },
            {
                "start_time": 31.93409090909091,
                "end_time": 32.71818181818182,
                "pitch": 56,
                "velocity": 51,
                "duration": 0.7840909090909101,
                "tempo": 120.0
            },
            {
                "start_time": 32.73409090909091,
                "end_time": 33.92045454545455,
                "pitch": 57,
                "velocity": 51,
                "duration": 1.1863636363636374,
                "tempo": 120.0
            },
            {
                "start_time": 33.93863636363636,
                "end_time": 34.320454545454545,
                "pitch": 64,
                "velocity": 51,
                "duration": 0.3818181818181827,
                "tempo": 120.0
            },
            {
                "start_time": 34.33863636363636,
                "end_time": 35.92272727272727,
                "pitch": 55,
                "velocity": 51,
                "duration": 1.5840909090909108,
                "tempo": 120.0
            },
            {
                "start_time": 35.94090909090909,
                "end_time": 37.525,
                "pitch": 54,
                "velocity": 51,
                "duration": 1.5840909090909108,
                "tempo": 120.0
            },
            {
                "start_time": 37.54090909090909,
                "end_time": 38.33181818181818,
                "pitch": 54,
                "velocity": 51,
                "duration": 0.7909090909090892,
                "tempo": 120.0
            },
            {
                "start_time": 38.34772727272727,
                "end_time": 39.125,
                "pitch": 56,
                "velocity": 51,
                "duration": 0.7772727272727309,
                "tempo": 120.0
            },
            {
                "start_time": 39.14090909090909,
                "end_time": 40.13181818181818,
                "pitch": 59,
                "velocity": 51,
                "duration": 0.9909090909090921,
                "tempo": 120.0
            },
            {
                "start_time": 40.14772727272727,
                "end_time": 40.73181818181818,
                "pitch": 59,
                "velocity": 51,
                "duration": 0.5840909090909037,
                "tempo": 120.0
            },
            {
                "start_time": 40.74772727272727,
                "end_time": 42.334090909090904,
                "pitch": 54,
                "velocity": 51,
                "duration": 1.586363636363636,
                "tempo": 120.0
            },
            {
                "start_time": 42.35227272727273,
                "end_time": 42.74090909090909,
                "pitch": 54,
                "velocity": 51,
                "duration": 0.38863636363636545,
                "tempo": 120.0
            },
            {
                "start_time": 42.75681818181818,
                "end_time": 42.945454545454545,
                "pitch": 52,
                "velocity": 51,
                "duration": 0.1886363636363626,
                "tempo": 120.0
            },
            {
                "start_time": 42.961363636363636,
                "end_time": 44.14090909090909,
                "pitch": 52,
                "velocity": 51,
                "duration": 1.1795454545454547,
                "tempo": 120.0
            },
            {
                "start_time": 45.56136363636364,
                "end_time": 47.14545454545454,
                "pitch": 59,
                "velocity": 51,
                "duration": 1.5840909090909037,
                "tempo": 120.0
            },
            {
                "start_time": 47.163636363636364,
                "end_time": 48.75,
                "pitch": 54,
                "velocity": 51,
                "duration": 1.586363636363636,
                "tempo": 120.0
            },
            {
                "start_time": 48.76590909090909,
                "end_time": 49.15,
                "pitch": 54,
                "velocity": 51,
                "duration": 0.38409090909090793,
                "tempo": 120.0
            },
            {
                "start_time": 49.16590909090909,
                "end_time": 49.349999999999994,
                "pitch": 52,
                "velocity": 51,
                "duration": 0.18409090909090509,
                "tempo": 120.0
            },
            {
                "start_time": 49.365909090909085,
                "end_time": 50.55227272727272,
                "pitch": 52,
                "velocity": 51,
                "duration": 1.1863636363636374,
                "tempo": 120.0
            },
            {
                "start_time": 52.17045454545454,
                "end_time": 52.35454545454545,
                "pitch": 33,
                "velocity": 51,
                "duration": 0.1840909090909122,
                "tempo": 120.0
            },
            {
                "start_time": 52.37045454545454,
                "end_time": 52.45454545454545,
                "pitch": 33,
                "velocity": 51,
                "duration": 0.08409090909091077,
                "tempo": 120.0
            },
            {
                "start_time": 52.470454545454544,
                "end_time": 52.554545454545455,
                "pitch": 45,
                "velocity": 51,
                "duration": 0.08409090909091077,
                "tempo": 120.0
            },
            {
                "start_time": 52.570454545454545,
                "end_time": 52.75454545454545,
                "pitch": 33,
                "velocity": 51,
                "duration": 0.18409090909090509,
                "tempo": 120.0
            },
            {
                "start_time": 52.77045454545454,
                "end_time": 52.85454545454545,
                "pitch": 33,
                "velocity": 51,
                "duration": 0.08409090909091077,
                "tempo": 120.0
            },
            {
                "start_time": 52.87045454545454,
                "end_time": 52.95454545454545,
                "pitch": 45,
                "velocity": 51,
                "duration": 0.08409090909091077,
                "tempo": 120.0
            },
            {
                "start_time": 52.970454545454544,
                "end_time": 53.15454545454545,
                "pitch": 33,
                "velocity": 51,
                "duration": 0.18409090909090509,
                "tempo": 120.0
            },
            {
                "start_time": 53.17045454545454,
                "end_time": 53.25454545454545,
                "pitch": 33,
                "velocity": 51,
                "duration": 0.08409090909091077,
                "tempo": 120.0
            },
            {
                "start_time": 53.27045454545454,
                "end_time": 53.35454545454545,
                "pitch": 45,
                "velocity": 51,
                "duration": 0.08409090909091077,
                "tempo": 120.0
            },
            {
                "start_time": 53.37045454545454,
                "end_time": 53.554545454545455,
                "pitch": 33,
                "velocity": 51,
                "duration": 0.1840909090909122,
                "tempo": 120.0
            },
            {
                "start_time": 53.57272727272727,
                "end_time": 53.65681818181818,
                "pitch": 33,
                "velocity": 51,
                "duration": 0.08409090909091077,
                "tempo": 120.0
            },
            {
                "start_time": 53.67272727272727,
                "end_time": 53.75681818181818,
                "pitch": 45,
                "velocity": 51,
                "duration": 0.08409090909091077,
                "tempo": 120.0
            },
            {
                "start_time": 53.77272727272727,
                "end_time": 53.85681818181818,
                "pitch": 33,
                "velocity": 51,
                "duration": 0.08409090909090366,
                "tempo": 120.0
            },
            {
                "start_time": 54.57272727272727,
                "end_time": 54.95681818181818,
                "pitch": 59,
                "velocity": 51,
                "duration": 0.38409090909090793,
                "tempo": 120.0
            },
            {
                "start_time": 54.97272727272727,
                "end_time": 55.35681818181818,
                "pitch": 57,
                "velocity": 51,
                "duration": 0.38409090909090793,
                "tempo": 120.0
            },
            {
                "start_time": 55.37272727272727,
                "end_time": 55.559090909090905,
                "pitch": 33,
                "velocity": 51,
                "duration": 0.1863636363636374,
                "tempo": 120.0
            },
            {
                "start_time": 55.574999999999996,
                "end_time": 55.65909090909091,
                "pitch": 33,
                "velocity": 51,
                "duration": 0.08409090909091077,
                "tempo": 120.0
            },
            {
                "start_time": 55.675,
                "end_time": 55.75909090909091,
                "pitch": 45,
                "velocity": 51,
                "duration": 0.08409090909091077,
                "tempo": 120.0
            },
            {
                "start_time": 55.777272727272724,
                "end_time": 55.959090909090904,
                "pitch": 33,
                "velocity": 51,
                "duration": 0.18181818181817988,
                "tempo": 120.0
            },
            {
                "start_time": 55.97727272727273,
                "end_time": 56.059090909090905,
                "pitch": 33,
                "velocity": 51,
                "duration": 0.08181818181817846,
                "tempo": 120.0
            },
            {
                "start_time": 56.07727272727273,
                "end_time": 56.15909090909091,
                "pitch": 45,
                "velocity": 51,
                "duration": 0.08181818181817846,
                "tempo": 120.0
            },
            {
                "start_time": 56.17727272727272,
                "end_time": 56.35909090909091,
                "pitch": 33,
                "velocity": 51,
                "duration": 0.18181818181818699,
                "tempo": 120.0
            },
            {
                "start_time": 56.377272727272725,
                "end_time": 56.459090909090904,
                "pitch": 33,
                "velocity": 51,
                "duration": 0.08181818181817846,
                "tempo": 120.0
            },
            {
                "start_time": 56.47727272727273,
                "end_time": 56.559090909090905,
                "pitch": 45,
                "velocity": 51,
                "duration": 0.08181818181817846,
                "tempo": 120.0
            },
            {
                "start_time": 56.57727272727273,
                "end_time": 56.75909090909091,
                "pitch": 33,
                "velocity": 51,
                "duration": 0.18181818181817988,
                "tempo": 120.0
            },
            {
                "start_time": 56.777272727272724,
                "end_time": 56.85909090909091,
                "pitch": 33,
                "velocity": 51,
                "duration": 0.08181818181818556,
                "tempo": 120.0
            },
            {
                "start_time": 56.877272727272725,
                "end_time": 56.959090909090904,
                "pitch": 45,
                "velocity": 51,
                "duration": 0.08181818181817846,
                "tempo": 120.0
            },
            {
                "start_time": 56.97727272727273,
                "end_time": 57.15909090909091,
                "pitch": 33,
                "velocity": 51,
                "duration": 0.18181818181817988,
                "tempo": 120.0
            },
            {
                "start_time": 57.17727272727272,
                "end_time": 57.25909090909091,
                "pitch": 33,
                "velocity": 51,
                "duration": 0.08181818181818556,
                "tempo": 120.0
            },
            {
                "start_time": 57.277272727272724,
                "end_time": 57.35909090909091,
                "pitch": 45,
                "velocity": 51,
                "duration": 0.08181818181818556,
                "tempo": 120.0
            },
            {
                "start_time": 57.377272727272725,
                "end_time": 57.56136363636363,
                "pitch": 33,
                "velocity": 51,
                "duration": 0.18409090909090509,
                "tempo": 120.0
            },
            {
                "start_time": 57.57727272727272,
                "end_time": 57.66136363636363,
                "pitch": 33,
                "velocity": 51,
                "duration": 0.08409090909091077,
                "tempo": 120.0
            },
            {
                "start_time": 57.679545454545455,
                "end_time": 57.76136363636363,
                "pitch": 45,
                "velocity": 51,
                "duration": 0.08181818181817846,
                "tempo": 120.0
            },
            {
                "start_time": 57.77954545454545,
                "end_time": 58.16136363636363,
                "pitch": 59,
                "velocity": 51,
                "duration": 0.3818181818181827,
                "tempo": 120.0
            },
            {
                "start_time": 58.179545454545455,
                "end_time": 58.56136363636363,
                "pitch": 57,
                "velocity": 51,
                "duration": 0.3818181818181756,
                "tempo": 120.0
            },
            {
                "start_time": 58.57954545454545,
                "end_time": 58.76136363636363,
                "pitch": 33,
                "velocity": 51,
                "duration": 0.18181818181817988,
                "tempo": 120.0
            },
            {
                "start_time": 58.77954545454545,
                "end_time": 58.861363636363635,
                "pitch": 33,
                "velocity": 51,
                "duration": 0.08181818181818556,
                "tempo": 120.0
            },
            {
                "start_time": 58.87954545454545,
                "end_time": 58.961363636363636,
                "pitch": 45,
                "velocity": 51,
                "duration": 0.08181818181818556,
                "tempo": 120.0
            },
            {
                "start_time": 58.97954545454545,
                "end_time": 59.16136363636363,
                "pitch": 33,
                "velocity": 51,
                "duration": 0.18181818181817988,
                "tempo": 120.0
            },
            {
                "start_time": 59.179545454545455,
                "end_time": 59.26136363636363,
                "pitch": 33,
                "velocity": 51,
                "duration": 0.08181818181817846,
                "tempo": 120.0
            },
            {
                "start_time": 59.27954545454545,
                "end_time": 59.361363636363635,
                "pitch": 45,
                "velocity": 51,
                "duration": 0.08181818181818556,
                "tempo": 120.0
            },
            {
                "start_time": 59.37954545454545,
                "end_time": 59.56363636363636,
                "pitch": 33,
                "velocity": 51,
                "duration": 0.1840909090909122,
                "tempo": 120.0
            },
            {
                "start_time": 59.57954545454545,
                "end_time": 59.663636363636364,
                "pitch": 33,
                "velocity": 51,
                "duration": 0.08409090909091077,
                "tempo": 120.0
            },
            {
                "start_time": 59.68181818181818,
                "end_time": 59.76590909090909,
                "pitch": 45,
                "velocity": 51,
                "duration": 0.08409090909091077,
                "tempo": 120.0
            },
            {
                "start_time": 59.78181818181818,
                "end_time": 59.965909090909086,
                "pitch": 33,
                "velocity": 51,
                "duration": 0.18409090909090509,
                "tempo": 120.0
            },
            {
                "start_time": 59.98181818181818,
                "end_time": 60.06590909090909,
                "pitch": 33,
                "velocity": 51,
                "duration": 0.08409090909091077,
                "tempo": 120.0
            },
            {
                "start_time": 60.08181818181818,
                "end_time": 60.16590909090909,
                "pitch": 45,
                "velocity": 51,
                "duration": 0.08409090909091077,
                "tempo": 120.0
            },
            {
                "start_time": 60.18181818181818,
                "end_time": 60.365909090909085,
                "pitch": 33,
                "velocity": 51,
                "duration": 0.18409090909090509,
                "tempo": 120.0
            },
            {
                "start_time": 60.381818181818176,
                "end_time": 60.465909090909086,
                "pitch": 33,
                "velocity": 51,
                "duration": 0.08409090909091077,
                "tempo": 120.0
            },
            {
                "start_time": 60.48181818181818,
                "end_time": 60.56590909090909,
                "pitch": 45,
                "velocity": 51,
                "duration": 0.08409090909091077,
                "tempo": 120.0
            },
            {
                "start_time": 60.58181818181818,
                "end_time": 60.76590909090909,
                "pitch": 33,
                "velocity": 51,
                "duration": 0.1840909090909122,
                "tempo": 120.0
            },
            {
                "start_time": 60.78181818181818,
                "end_time": 60.865909090909085,
                "pitch": 33,
                "velocity": 51,
                "duration": 0.08409090909090366,
                "tempo": 120.0
            },
            {
                "start_time": 60.881818181818176,
                "end_time": 60.965909090909086,
                "pitch": 45,
                "velocity": 51,
                "duration": 0.08409090909091077,
                "tempo": 120.0
            },
            {
                "start_time": 60.98181818181818,
                "end_time": 61.365909090909085,
                "pitch": 59,
                "velocity": 51,
                "duration": 0.38409090909090793,
                "tempo": 120.0
            },
            {
                "start_time": 61.381818181818176,
                "end_time": 61.768181818181816,
                "pitch": 57,
                "velocity": 51,
                "duration": 0.38636363636364024,
                "tempo": 120.0
            },
            {
                "start_time": 61.78409090909091,
                "end_time": 61.96818181818182,
                "pitch": 33,
                "velocity": 51,
                "duration": 0.1840909090909122,
                "tempo": 120.0
            },
            {
                "start_time": 61.98409090909091,
                "end_time": 62.06818181818181,
                "pitch": 33,
                "velocity": 51,
                "duration": 0.08409090909090366,
                "tempo": 120.0
            },
            {
                "start_time": 62.084090909090904,
                "end_time": 62.168181818181814,
                "pitch": 45,
                "velocity": 51,
                "duration": 0.08409090909091077,
                "tempo": 120.0
            },
            {
                "start_time": 62.184090909090905,
                "end_time": 62.36818181818182,
                "pitch": 33,
                "velocity": 51,
                "duration": 0.1840909090909122,
                "tempo": 120.0
            },
            {
                "start_time": 62.38409090909091,
                "end_time": 62.46818181818182,
                "pitch": 33,
                "velocity": 51,
                "duration": 0.08409090909091077,
                "tempo": 120.0
            },
            {
                "start_time": 62.48409090909091,
                "end_time": 62.56818181818181,
                "pitch": 45,
                "velocity": 51,
                "duration": 0.08409090909090366,
                "tempo": 120.0
            },
            {
                "start_time": 62.584090909090904,
                "end_time": 62.768181818181816,
                "pitch": 33,
                "velocity": 51,
                "duration": 0.1840909090909122,
                "tempo": 120.0
            },
            {
                "start_time": 62.78409090909091,
                "end_time": 62.86818181818182,
                "pitch": 33,
                "velocity": 51,
                "duration": 0.08409090909091077,
                "tempo": 120.0
            },
            {
                "start_time": 62.88409090909091,
                "end_time": 62.96818181818181,
                "pitch": 45,
                "velocity": 51,
                "duration": 0.08409090909090366,
                "tempo": 120.0
            },
            {
                "start_time": 62.98409090909091,
                "end_time": 63.168181818181814,
                "pitch": 33,
                "velocity": 51,
                "duration": 0.18409090909090509,
                "tempo": 120.0
            },
            {
                "start_time": 63.184090909090905,
                "end_time": 63.268181818181816,
                "pitch": 33,
                "velocity": 51,
                "duration": 0.08409090909091077,
                "tempo": 120.0
            },
            {
                "start_time": 63.28409090909091,
                "end_time": 63.36818181818182,
                "pitch": 45,
                "velocity": 51,
                "duration": 0.08409090909091077,
                "tempo": 120.0
            },
            {
                "start_time": 63.38409090909091,
                "end_time": 63.56818181818181,
                "pitch": 33,
                "velocity": 51,
                "duration": 0.18409090909090509,
                "tempo": 120.0
            },
            {
                "start_time": 63.586363636363636,
                "end_time": 63.67045454545454,
                "pitch": 33,
                "velocity": 51,
                "duration": 0.08409090909090366,
                "tempo": 120.0
            },
            {
                "start_time": 63.68636363636363,
                "end_time": 63.77045454545454,
                "pitch": 45,
                "velocity": 51,
                "duration": 0.08409090909091077,
                "tempo": 120.0
            },
            {
                "start_time": 63.78636363636363,
                "end_time": 63.970454545454544,
                "pitch": 33,
                "velocity": 51,
                "duration": 0.1840909090909122,
                "tempo": 120.0
            },
            {
                "start_time": 63.986363636363635,
                "end_time": 64.07045454545454,
                "pitch": 33,
                "velocity": 51,
                "duration": 0.08409090909090366,
                "tempo": 120.0
            },
            {
                "start_time": 64.08636363636363,
                "end_time": 64.17045454545455,
                "pitch": 45,
                "velocity": 51,
                "duration": 0.08409090909091788,
                "tempo": 120.0
            },
            {
                "start_time": 64.18636363636364,
                "end_time": 64.57045454545454,
                "pitch": 59,
                "velocity": 51,
                "duration": 0.3840909090909008,
                "tempo": 120.0
            },
            {
                "start_time": 64.58636363636363,
                "end_time": 64.97272727272727,
                "pitch": 57,
                "velocity": 51,
                "duration": 0.38636363636364024,
                "tempo": 120.0
            },
            {
                "start_time": 64.98863636363636,
                "end_time": 65.17272727272727,
                "pitch": 33,
                "velocity": 51,
                "duration": 0.1840909090909122,
                "tempo": 120.0
            },
            {
                "start_time": 65.18863636363636,
                "end_time": 65.27272727272727,
                "pitch": 33,
                "velocity": 51,
                "duration": 0.08409090909090366,
                "tempo": 120.0
            },
            {
                "start_time": 65.28863636363636,
                "end_time": 65.37272727272727,
                "pitch": 45,
                "velocity": 51,
                "duration": 0.08409090909091788,
                "tempo": 120.0
            },
            {
                "start_time": 65.39090909090909,
                "end_time": 65.575,
                "pitch": 33,
                "velocity": 51,
                "duration": 0.1840909090909122,
                "tempo": 120.0
            },
            {
                "start_time": 65.5909090909091,
                "end_time": 65.675,
                "pitch": 33,
                "velocity": 51,
                "duration": 0.08409090909090366,
                "tempo": 120.0
            },
            {
                "start_time": 65.69090909090909,
                "end_time": 65.77499999999999,
                "pitch": 45,
                "velocity": 51,
                "duration": 0.08409090909090366,
                "tempo": 120.0
            },
            {
                "start_time": 65.79318181818182,
                "end_time": 65.975,
                "pitch": 33,
                "velocity": 51,
                "duration": 0.18181818181817277,
                "tempo": 120.0
            },
            {
                "start_time": 65.99318181818181,
                "end_time": 66.075,
                "pitch": 33,
                "velocity": 51,
                "duration": 0.08181818181819267,
                "tempo": 120.0
            },
            {
                "start_time": 66.09318181818182,
                "end_time": 66.175,
                "pitch": 45,
                "velocity": 51,
                "duration": 0.08181818181817846,
                "tempo": 120.0
            },
            {
                "start_time": 66.19318181818181,
                "end_time": 66.37727272727273,
                "pitch": 33,
                "velocity": 51,
                "duration": 0.1840909090909122,
                "tempo": 120.0
            },
            {
                "start_time": 66.39318181818182,
                "end_time": 66.47727272727272,
                "pitch": 33,
                "velocity": 51,
                "duration": 0.08409090909090366,
                "tempo": 120.0
            },
            {
                "start_time": 66.49545454545454,
                "end_time": 66.57954545454545,
                "pitch": 45,
                "velocity": 51,
                "duration": 0.08409090909091788,
                "tempo": 120.0
            },
            {
                "start_time": 66.59545454545454,
                "end_time": 66.77954545454546,
                "pitch": 33,
                "velocity": 51,
                "duration": 0.1840909090909122,
                "tempo": 120.0
            },
            {
                "start_time": 66.79772727272727,
                "end_time": 66.87954545454545,
                "pitch": 33,
                "velocity": 51,
                "duration": 0.08181818181817846,
                "tempo": 120.0
            },
            {
                "start_time": 66.89772727272727,
                "end_time": 66.98181818181818,
                "pitch": 45,
                "velocity": 51,
                "duration": 0.08409090909091788,
                "tempo": 120.0
            },
            {
                "start_time": 66.99772727272727,
                "end_time": 67.18181818181817,
                "pitch": 33,
                "velocity": 51,
                "duration": 0.18409090909089798,
                "tempo": 120.0
            },
            {
                "start_time": 67.19772727272726,
                "end_time": 67.28181818181818,
                "pitch": 33,
                "velocity": 51,
                "duration": 0.08409090909091788,
                "tempo": 120.0
            },
            {
                "start_time": 67.29772727272727,
                "end_time": 67.38181818181818,
                "pitch": 45,
                "velocity": 51,
                "duration": 0.08409090909090366,
                "tempo": 120.0
            },
            {
                "start_time": 67.39772727272727,
                "end_time": 67.7840909090909,
                "pitch": 59,
                "velocity": 51,
                "duration": 0.38636363636364024,
                "tempo": 120.0
            },
            {
                "start_time": 67.8,
                "end_time": 68.18409090909091,
                "pitch": 57,
                "velocity": 51,
                "duration": 0.38409090909091503,
                "tempo": 120.0
            },
            {
                "start_time": 68.2,
                "end_time": 68.78863636363636,
                "pitch": 60,
                "velocity": 51,
                "duration": 0.5886363636363541,
                "tempo": 120.0
            },
            {
                "start_time": 68.80454545454545,
                "end_time": 69.79090909090908,
                "pitch": 59,
                "velocity": 51,
                "duration": 0.9863636363636346,
                "tempo": 120.0
            },
            {
                "start_time": 69.80909090909091,
                "end_time": 70.39318181818182,
                "pitch": 59,
                "velocity": 51,
                "duration": 0.5840909090909037,
                "tempo": 120.0
            },
            {
                "start_time": 70.4090909090909,
                "end_time": 71.39772727272727,
                "pitch": 60,
                "velocity": 51,
                "duration": 0.9886363636363598,
                "tempo": 120.0
            },
            {
                "start_time": 71.41363636363636,
                "end_time": 72.0,
                "pitch": 60,
                "velocity": 51,
                "duration": 0.5863636363636431,
                "tempo": 120.0
            },
            {
                "start_time": 72.01590909090909,
                "end_time": 72.80454545454545,
                "pitch": 59,
                "velocity": 51,
                "duration": 0.7886363636363569,
                "tempo": 120.0
            },
            {
                "start_time": 72.82045454545454,
                "end_time": 74.61136363636363,
                "pitch": 60,
                "velocity": 51,
                "duration": 1.7909090909090963,
                "tempo": 120.0
            },
            {
                "start_time": 74.62727272727273,
                "end_time": 75.21363636363635,
                "pitch": 60,
                "velocity": 51,
                "duration": 0.5863636363636289,
                "tempo": 120.0
            },
            {
                "start_time": 75.22954545454544,
                "end_time": 76.2159090909091,
                "pitch": 59,
                "velocity": 51,
                "duration": 0.9863636363636488,
                "tempo": 120.0
            },
            {
                "start_time": 76.23181818181818,
                "end_time": 76.82045454545454,
                "pitch": 59,
                "velocity": 51,
                "duration": 0.5886363636363541,
                "tempo": 120.0
            },
            {
                "start_time": 76.83636363636363,
                "end_time": 77.825,
                "pitch": 60,
                "velocity": 51,
                "duration": 0.988636363636374,
                "tempo": 120.0
            },
            {
                "start_time": 77.8409090909091,
                "end_time": 78.425,
                "pitch": 60,
                "velocity": 51,
                "duration": 0.5840909090909037,
                "tempo": 120.0
            },
            {
                "start_time": 78.44318181818181,
                "end_time": 79.23409090909091,
                "pitch": 59,
                "velocity": 51,
                "duration": 0.7909090909090963,
                "tempo": 120.0
            },
            {
                "start_time": 79.25,
                "end_time": 81.03636363636363,
                "pitch": 60,
                "velocity": 51,
                "duration": 1.7863636363636317,
                "tempo": 120.0
            },
            {
                "start_time": 81.05227272727272,
                "end_time": 81.63636363636363,
                "pitch": 57,
                "velocity": 51,
                "duration": 0.5840909090909037,
                "tempo": 120.0
            },
            {
                "start_time": 81.65454545454546,
                "end_time": 82.64090909090909,
                "pitch": 55,
                "velocity": 51,
                "duration": 0.9863636363636346,
                "tempo": 120.0
            }
        ],
        "Harpsichord": [
            {
                "start_time": 0.6863636363636363,
                "end_time": 0.7863636363636364,
                "pitch": 65,
                "velocity": 32,
                "duration": 0.10000000000000009,
                "tempo": 120.0
            },
            {
                "start_time": 0.7863636363636364,
                "end_time": 0.8704545454545454,
                "pitch": 65,
                "velocity": 32,
                "duration": 0.084090909090909,
                "tempo": 120.0
            },
            {
                "start_time": 0.8863636363636364,
                "end_time": 2.2795454545454543,
                "pitch": 65,
                "velocity": 32,
                "duration": 1.393181818181818,
                "tempo": 120.0
            },
            {
                "start_time": 2.2954545454545454,
                "end_time": 3.8863636363636362,
                "pitch": 67,
                "velocity": 32,
                "duration": 1.5909090909090908,
                "tempo": 120.0
            },
            {
                "start_time": 3.902272727272727,
                "end_time": 5.4818181818181815,
                "pitch": 69,
                "velocity": 32,
                "duration": 1.5795454545454546,
                "tempo": 120.0
            },
            {
                "start_time": 5.5,
                "end_time": 5.584090909090909,
                "pitch": 73,
                "velocity": 32,
                "duration": 0.084090909090909,
                "tempo": 120.0
            },
            {
                "start_time": 5.6,
                "end_time": 5.684090909090909,
                "pitch": 74,
                "velocity": 32,
                "duration": 0.084090909090909,
                "tempo": 120.0
            },
            {
                "start_time": 5.699999999999999,
                "end_time": 5.884090909090909,
                "pitch": 73,
                "velocity": 32,
                "duration": 0.18409090909090953,
                "tempo": 120.0
            },
            {
                "start_time": 5.8999999999999995,
                "end_time": 6.290909090909091,
                "pitch": 69,
                "velocity": 32,
                "duration": 0.39090909090909154,
                "tempo": 120.0
            },
            {
                "start_time": 6.309090909090909,
                "end_time": 7.097727272727273,
                "pitch": 64,
                "velocity": 32,
                "duration": 0.788636363636364,
                "tempo": 120.0
            },
            {
                "start_time": 7.113636363636363,
                "end_time": 8.704545454545453,
                "pitch": 65,
                "velocity": 32,
                "duration": 1.59090909090909,
                "tempo": 120.0
            },
            {
                "start_time": 8.720454545454546,
                "end_time": 10.304545454545455,
                "pitch": 67,
                "velocity": 32,
                "duration": 1.584090909090909,
                "tempo": 120.0
            },
            {
                "start_time": 10.322727272727272,
                "end_time": 12.113636363636363,
                "pitch": 69,
                "velocity": 32,
                "duration": 1.790909090909091,
                "tempo": 120.0
            },
            {
                "start_time": 13.545454545454545,
                "end_time": 15.131818181818181,
                "pitch": 65,
                "velocity": 32,
                "duration": 1.586363636363636,
                "tempo": 120.0
            },
            {
                "start_time": 15.149999999999999,
                "end_time": 16.73409090909091,
                "pitch": 67,
                "velocity": 32,
                "duration": 1.5840909090909108,
                "tempo": 120.0
            },
            {
                "start_time": 16.75,
                "end_time": 18.334090909090907,
                "pitch": 69,
                "velocity": 32,
                "duration": 1.5840909090909072,
                "tempo": 120.0
            },
            {
                "start_time": 18.352272727272727,
                "end_time": 18.43409090909091,
                "pitch": 73,
                "velocity": 32,
                "duration": 0.08181818181818201,
                "tempo": 120.0
            },
            {
                "start_time": 18.452272727272728,
                "end_time": 18.536363636363635,
                "pitch": 74,
                "velocity": 32,
                "duration": 0.08409090909090722,
                "tempo": 120.0
            },
            {
                "start_time": 18.554545454545455,
                "end_time": 18.74090909090909,
                "pitch": 73,
                "velocity": 32,
                "duration": 0.18636363636363384,
                "tempo": 120.0
            },
            {
                "start_time": 18.759090909090908,
                "end_time": 19.147727272727273,
                "pitch": 69,
                "velocity": 32,
                "duration": 0.38863636363636545,
                "tempo": 120.0
            },
            {
                "start_time": 19.163636363636364,
                "end_time": 19.95,
                "pitch": 64,
                "velocity": 32,
                "duration": 0.7863636363636353,
                "tempo": 120.0
            },
            {
                "start_time": 19.96590909090909,
                "end_time": 21.554545454545455,
                "pitch": 65,
                "velocity": 32,
                "duration": 1.5886363636363647,
                "tempo": 120.0
            },
            {
                "start_time": 21.570454545454545,
                "end_time": 23.152272727272727,
                "pitch": 67,
                "velocity": 32,
                "duration": 1.581818181818182,
                "tempo": 120.0
            },
            {
                "start_time": 23.168181818181818,
                "end_time": 24.75681818181818,
                "pitch": 69,
                "velocity": 32,
                "duration": 1.5886363636363612,
                "tempo": 120.0
            },
            {
                "start_time": 26.386363636363637,
                "end_time": 27.565909090909088,
                "pitch": 61,
                "velocity": 32,
                "duration": 1.1795454545454511,
                "tempo": 120.0
            },
            {
                "start_time": 27.581818181818182,
                "end_time": 27.76590909090909,
                "pitch": 62,
                "velocity": 32,
                "duration": 0.18409090909090864,
                "tempo": 120.0
            },
            {
                "start_time": 27.78181818181818,
                "end_time": 27.970454545454544,
                "pitch": 64,
                "velocity": 32,
                "duration": 0.1886363636363626,
                "tempo": 120.0
            },
            {
                "start_time": 27.988636363636363,
                "end_time": 29.174999999999997,
                "pitch": 61,
                "velocity": 32,
                "duration": 1.1863636363636338,
                "tempo": 120.0
            },
            {
                "start_time": 29.193181818181817,
                "end_time": 29.377272727272725,
                "pitch": 62,
                "velocity": 32,
                "duration": 0.18409090909090864,
                "tempo": 120.0
            },
            {
                "start_time": 29.393181818181816,
                "end_time": 29.577272727272724,
                "pitch": 64,
                "velocity": 32,
                "duration": 0.18409090909090864,
                "tempo": 120.0
            },
            {
                "start_time": 29.593181818181815,
                "end_time": 30.379545454545454,
                "pitch": 64,
                "velocity": 32,
                "duration": 0.7863636363636388,
                "tempo": 120.0
            },
            {
                "start_time": 30.395454545454545,
                "end_time": 30.979545454545452,
                "pitch": 62,
                "velocity": 32,
                "duration": 0.5840909090909072,
                "tempo": 120.0
            },
            {
                "start_time": 30.99772727272727,
                "end_time": 31.18181818181818,
                "pitch": 57,
                "velocity": 32,
                "duration": 0.18409090909090864,
                "tempo": 120.0
            },
            {
                "start_time": 31.19772727272727,
                "end_time": 31.78181818181818,
                "pitch": 62,
                "velocity": 32,
                "duration": 0.5840909090909108,
                "tempo": 120.0
            },
            {
                "start_time": 31.799999999999997,
                "end_time": 31.984090909090906,
                "pitch": 61,
                "velocity": 32,
                "duration": 0.18409090909090864,
                "tempo": 120.0
            },
            {
                "start_time": 32.0,
                "end_time": 32.38409090909091,
                "pitch": 57,
                "velocity": 32,
                "duration": 0.38409090909090793,
                "tempo": 120.0
            },
            {
                "start_time": 32.402272727272724,
                "end_time": 32.78409090909091,
                "pitch": 59,
                "velocity": 32,
                "duration": 0.3818181818181827,
                "tempo": 120.0
            },
            {
                "start_time": 32.80227272727272,
                "end_time": 33.98863636363636,
                "pitch": 61,
                "velocity": 32,
                "duration": 1.1863636363636374,
                "tempo": 120.0
            },
            {
                "start_time": 34.00454545454545,
                "end_time": 34.18863636363636,
                "pitch": 62,
                "velocity": 32,
                "duration": 0.1840909090909122,
                "tempo": 120.0
            },
            {
                "start_time": 34.20454545454545,
                "end_time": 34.388636363636365,
                "pitch": 64,
                "velocity": 32,
                "duration": 0.1840909090909122,
                "tempo": 120.0
            },
            {
                "start_time": 34.404545454545456,
                "end_time": 35.58863636363636,
                "pitch": 61,
                "velocity": 32,
                "duration": 1.184090909090905,
                "tempo": 120.0
            },
            {
                "start_time": 35.60681818181818,
                "end_time": 35.79090909090909,
                "pitch": 62,
                "velocity": 32,
                "duration": 0.1840909090909122,
                "tempo": 120.0
            },
            {
                "start_time": 35.80681818181818,
                "end_time": 35.99090909090909,
                "pitch": 64,
                "velocity": 32,
                "duration": 0.1840909090909122,
                "tempo": 120.0
            },
            {
                "start_time": 36.00681818181818,
                "end_time": 36.590909090909086,
                "pitch": 64,
                "velocity": 32,
                "duration": 0.5840909090909037,
                "tempo": 120.0
            },
            {
                "start_time": 36.60681818181818,
                "end_time": 36.79090909090909,
                "pitch": 62,
                "velocity": 32,
                "duration": 0.1840909090909122,
                "tempo": 120.0
            },
            {
                "start_time": 36.80681818181818,
                "end_time": 37.39090909090909,
                "pitch": 69,
                "velocity": 32,
                "duration": 0.5840909090909108,
                "tempo": 120.0
            },
            {
                "start_time": 37.40681818181818,
                "end_time": 37.59318181818182,
                "pitch": 68,
                "velocity": 32,
                "duration": 0.1863636363636374,
                "tempo": 120.0
            },
            {
                "start_time": 37.60909090909091,
                "end_time": 37.99318181818182,
                "pitch": 69,
                "velocity": 32,
                "duration": 0.38409090909090793,
                "tempo": 120.0
            },
            {
                "start_time": 38.00909090909091,
                "end_time": 38.4,
                "pitch": 68,
                "velocity": 32,
                "duration": 0.39090909090909065,
                "tempo": 120.0
            },
            {
                "start_time": 38.418181818181814,
                "end_time": 38.79090909090909,
                "pitch": 66,
                "velocity": 32,
                "duration": 0.3727272727272748,
                "tempo": 120.0
            },
            {
                "start_time": 38.80681818181818,
                "end_time": 39.19318181818181,
                "pitch": 68,
                "velocity": 32,
                "duration": 0.38636363636363313,
                "tempo": 120.0
            },
            {
                "start_time": 39.209090909090904,
                "end_time": 40.99772727272727,
                "pitch": 69,
                "velocity": 32,
                "duration": 1.788636363636364,
                "tempo": 120.0
            },
            {
                "start_time": 41.81818181818181,
                "end_time": 42.20227272727273,
                "pitch": 71,
                "velocity": 32,
                "duration": 0.38409090909091503,
                "tempo": 120.0
            },
            {
                "start_time": 42.21818181818182,
                "end_time": 42.402272727272724,
                "pitch": 73,
                "velocity": 32,
                "duration": 0.18409090909090509,
                "tempo": 120.0
            },
            {
                "start_time": 42.418181818181814,
                "end_time": 42.809090909090905,
                "pitch": 71,
                "velocity": 32,
                "duration": 0.39090909090909065,
                "tempo": 120.0
            },
            {
                "start_time": 42.824999999999996,
                "end_time": 43.01136363636363,
                "pitch": 69,
                "velocity": 32,
                "duration": 0.1863636363636374,
                "tempo": 120.0
            },
            {
                "start_time": 45.21818181818182,
                "end_time": 45.402272727272724,
                "pitch": 61,
                "velocity": 32,
                "duration": 0.18409090909090509,
                "tempo": 120.0
            },
            {
                "start_time": 45.42045454545455,
                "end_time": 45.61363636363636,
                "pitch": 64,
                "velocity": 32,
                "duration": 0.19318181818181301,
                "tempo": 120.0
            },
            {
                "start_time": 45.63181818181818,
                "end_time": 46.81363636363636,
                "pitch": 69,
                "velocity": 32,
                "duration": 1.1818181818181799,
                "tempo": 120.0
            },
            {
                "start_time": 46.82954545454545,
                "end_time": 47.01363636363636,
                "pitch": 61,
                "velocity": 32,
                "duration": 0.18409090909090509,
                "tempo": 120.0
            },
            {
                "start_time": 47.02954545454545,
                "end_time": 47.21363636363636,
                "pitch": 64,
                "velocity": 32,
                "duration": 0.1840909090909122,
                "tempo": 120.0
            },
            {
                "start_time": 47.22954545454545,
                "end_time": 48.215909090909086,
                "pitch": 69,
                "velocity": 32,
                "duration": 0.9863636363636346,
                "tempo": 120.0
            },
            {
                "start_time": 48.23181818181818,
                "end_time": 48.61590909090909,
                "pitch": 71,
                "velocity": 32,
                "duration": 0.38409090909091503,
                "tempo": 120.0
            },
            {
                "start_time": 48.63181818181818,
                "end_time": 48.81590909090909,
                "pitch": 73,
                "velocity": 32,
                "duration": 0.18409090909090509,
                "tempo": 120.0
            },
            {
                "start_time": 48.83181818181818,
                "end_time": 49.215909090909086,
                "pitch": 71,
                "velocity": 32,
                "duration": 0.38409090909090793,
                "tempo": 120.0
            },
            {
                "start_time": 49.23181818181818,
                "end_time": 49.41590909090909,
                "pitch": 69,
                "velocity": 32,
                "duration": 0.1840909090909122,
                "tempo": 120.0
            },
            {
                "start_time": 54.04090909090909,
                "end_time": 54.22272727272727,
                "pitch": 67,
                "velocity": 32,
                "duration": 0.18181818181817988,
                "tempo": 120.0
            },
            {
                "start_time": 54.240909090909085,
                "end_time": 54.42272727272727,
                "pitch": 67,
                "velocity": 32,
                "duration": 0.18181818181818699,
                "tempo": 120.0
            },
            {
                "start_time": 54.44090909090909,
                "end_time": 54.62272727272727,
                "pitch": 67,
                "velocity": 32,
                "duration": 0.18181818181817988,
                "tempo": 120.0
            },
            {
                "start_time": 54.64090909090909,
                "end_time": 54.92272727272727,
                "pitch": 67,
                "velocity": 32,
                "duration": 0.2818181818181813,
                "tempo": 120.0
            },
            {
                "start_time": 54.94090909090909,
                "end_time": 55.22272727272727,
                "pitch": 66,
                "velocity": 32,
                "duration": 0.2818181818181813,
                "tempo": 120.0
            },
            {
                "start_time": 55.240909090909085,
                "end_time": 57.22727272727273,
                "pitch": 64,
                "velocity": 32,
                "duration": 1.9863636363636417,
                "tempo": 120.0
            },
            {
                "start_time": 57.24318181818182,
                "end_time": 57.42727272727272,
                "pitch": 67,
                "velocity": 32,
                "duration": 0.18409090909090509,
                "tempo": 120.0
            },
            {
                "start_time": 57.44318181818181,
                "end_time": 57.627272727272725,
                "pitch": 67,
                "velocity": 32,
                "duration": 0.1840909090909122,
                "tempo": 120.0
            },
            {
                "start_time": 57.64545454545454,
                "end_time": 57.82954545454545,
                "pitch": 67,
                "velocity": 32,
                "duration": 0.1840909090909122,
                "tempo": 120.0
            },
            {
                "start_time": 57.845454545454544,
                "end_time": 58.12954545454545,
                "pitch": 67,
                "velocity": 32,
                "duration": 0.2840909090909065,
                "tempo": 120.0
            },
            {
                "start_time": 58.14545454545454,
                "end_time": 58.429545454545455,
                "pitch": 66,
                "velocity": 32,
                "duration": 0.2840909090909136,
                "tempo": 120.0
            },
            {
                "start_time": 58.445454545454545,
                "end_time": 60.43181818181818,
                "pitch": 69,
                "velocity": 32,
                "duration": 1.9863636363636346,
                "tempo": 120.0
            },
            {
                "start_time": 60.44772727272727,
                "end_time": 60.631818181818176,
                "pitch": 67,
                "velocity": 32,
                "duration": 0.18409090909090509,
                "tempo": 120.0
            },
            {
                "start_time": 60.647727272727266,
                "end_time": 60.83181818181818,
                "pitch": 67,
                "velocity": 32,
                "duration": 0.1840909090909122,
                "tempo": 120.0
            },
            {
                "start_time": 60.84772727272727,
                "end_time": 61.03181818181818,
                "pitch": 67,
                "velocity": 32,
                "duration": 0.1840909090909122,
                "tempo": 120.0
            },
            {
                "start_time": 61.04772727272727,
                "end_time": 61.33181818181818,
                "pitch": 67,
                "velocity": 32,
                "duration": 0.2840909090909065,
                "tempo": 120.0
            },
            {
                "start_time": 61.34772727272727,
                "end_time": 61.63409090909091,
                "pitch": 66,
                "velocity": 32,
                "duration": 0.2863636363636388,
                "tempo": 120.0
            },
            {
                "start_time": 61.65,
                "end_time": 63.63636363636363,
                "pitch": 64,
                "velocity": 32,
                "duration": 1.9863636363636346,
                "tempo": 120.0
            },
            {
                "start_time": 63.652272727272724,
                "end_time": 64.03636363636363,
                "pitch": 62,
                "velocity": 32,
                "duration": 0.38409090909090793,
                "tempo": 120.0
            },
            {
                "start_time": 64.05454545454545,
                "end_time": 64.23636363636363,
                "pitch": 61,
                "velocity": 32,
                "duration": 0.18181818181818699,
                "tempo": 120.0
            },
            {
                "start_time": 64.25454545454545,
                "end_time": 64.63863636363637,
                "pitch": 62,
                "velocity": 32,
                "duration": 0.38409090909091503,
                "tempo": 120.0
            },
            {
                "start_time": 64.65454545454546,
                "end_time": 64.83863636363635,
                "pitch": 64,
                "velocity": 32,
                "duration": 0.18409090909089798,
                "tempo": 120.0
            },
            {
                "start_time": 64.85454545454544,
                "end_time": 65.23863636363636,
                "pitch": 61,
                "velocity": 32,
                "duration": 0.38409090909091503,
                "tempo": 120.0
            },
            {
                "start_time": 65.25681818181818,
                "end_time": 66.64545454545454,
                "pitch": 57,
                "velocity": 32,
                "duration": 1.3886363636363654,
                "tempo": 120.0
            },
            {
                "start_time": 67.66590909090908,
                "end_time": 67.85,
                "pitch": 59,
                "velocity": 32,
                "duration": 0.1840909090909122,
                "tempo": 120.0
            },
            {
                "start_time": 67.86818181818181,
                "end_time": 68.05,
                "pitch": 60,
                "velocity": 32,
                "duration": 0.18181818181818699,
                "tempo": 120.0
            },
            {
                "start_time": 68.06818181818181,
                "end_time": 68.25,
                "pitch": 57,
                "velocity": 32,
                "duration": 0.18181818181818699,
                "tempo": 120.0
            },
            {
                "start_time": 68.26818181818182,
                "end_time": 68.85454545454544,
                "pitch": 64,
                "velocity": 32,
                "duration": 0.5863636363636289,
                "tempo": 120.0
            },
            {
                "start_time": 68.87272727272727,
                "end_time": 69.65681818181818,
                "pitch": 62,
                "velocity": 32,
                "duration": 0.7840909090909065,
                "tempo": 120.0
            },
            {
                "start_time": 69.675,
                "end_time": 69.85909090909091,
                "pitch": 55,
                "velocity": 32,
                "duration": 0.1840909090909122,
                "tempo": 120.0
            },
            {
                "start_time": 69.875,
                "end_time": 70.05909090909091,
                "pitch": 55,
                "velocity": 32,
                "duration": 0.1840909090909122,
                "tempo": 120.0
            },
            {
                "start_time": 70.075,
                "end_time": 70.2590909090909,
                "pitch": 60,
                "velocity": 32,
                "duration": 0.18409090909089798,
                "tempo": 120.0
            },
            {
                "start_time": 70.27499999999999,
                "end_time": 70.46136363636363,
                "pitch": 59,
                "velocity": 32,
                "duration": 0.1863636363636374,
                "tempo": 120.0
            },
            {
                "start_time": 70.47727272727272,
                "end_time": 71.26363636363637,
                "pitch": 57,
                "velocity": 32,
                "duration": 0.7863636363636459,
                "tempo": 120.0
            },
            {
                "start_time": 71.27954545454546,
                "end_time": 71.36363636363636,
                "pitch": 55,
                "velocity": 32,
                "duration": 0.08409090909090366,
                "tempo": 120.0
            },
            {
                "start_time": 71.37954545454545,
                "end_time": 71.46363636363635,
                "pitch": 53,
                "velocity": 32,
                "duration": 0.08409090909090366,
                "tempo": 120.0
            },
            {
                "start_time": 71.48181818181818,
                "end_time": 72.06590909090909,
                "pitch": 52,
                "velocity": 32,
                "duration": 0.5840909090909037,
                "tempo": 120.0
            },
            {
                "start_time": 72.0840909090909,
                "end_time": 72.46818181818182,
                "pitch": 50,
                "velocity": 32,
                "duration": 0.38409090909091503,
                "tempo": 120.0
            },
            {
                "start_time": 72.48409090909091,
                "end_time": 72.67045454545455,
                "pitch": 52,
                "velocity": 32,
                "duration": 0.1863636363636374,
                "tempo": 120.0
            },
            {
                "start_time": 72.68636363636364,
                "end_time": 72.87045454545454,
                "pitch": 55,
                "velocity": 32,
                "duration": 0.18409090909089798,
                "tempo": 120.0
            },
            {
                "start_time": 72.88863636363637,
                "end_time": 74.075,
                "pitch": 57,
                "velocity": 32,
                "duration": 1.1863636363636374,
                "tempo": 120.0
            },
            {
                "start_time": 74.0909090909091,
                "end_time": 74.27499999999999,
                "pitch": 59,
                "velocity": 32,
                "duration": 0.18409090909089798,
                "tempo": 120.0
            },
            {
                "start_time": 74.29090909090908,
                "end_time": 74.47727272727272,
                "pitch": 60,
                "velocity": 32,
                "duration": 0.1863636363636374,
                "tempo": 120.0
            },
            {
                "start_time": 74.49318181818181,
                "end_time": 74.67727272727272,
                "pitch": 57,
                "velocity": 32,
                "duration": 0.1840909090909122,
                "tempo": 120.0
            },
            {
                "start_time": 74.69545454545454,
                "end_time": 75.07954545454545,
                "pitch": 62,
                "velocity": 32,
                "duration": 0.38409090909091503,
                "tempo": 120.0
            },
            {
                "start_time": 75.09772727272727,
                "end_time": 75.27954545454546,
                "pitch": 57,
                "velocity": 32,
                "duration": 0.18181818181818699,
                "tempo": 120.0
            },
            {
                "start_time": 75.29772727272727,
                "end_time": 75.68181818181817,
                "pitch": 64,
                "velocity": 32,
                "duration": 0.3840909090909008,
                "tempo": 120.0
            },
            {
                "start_time": 75.69772727272726,
                "end_time": 76.08181818181818,
                "pitch": 57,
                "velocity": 32,
                "duration": 0.38409090909091503,
                "tempo": 120.0
            },
            {
                "start_time": 76.1,
                "end_time": 76.2840909090909,
                "pitch": 65,
                "velocity": 32,
                "duration": 0.1840909090909122,
                "tempo": 120.0
            },
            {
                "start_time": 76.3,
                "end_time": 76.48409090909091,
                "pitch": 67,
                "velocity": 32,
                "duration": 0.1840909090909122,
                "tempo": 120.0
            },
            {
                "start_time": 76.50227272727273,
                "end_time": 76.68636363636364,
                "pitch": 64,
                "velocity": 32,
                "duration": 0.1840909090909122,
                "tempo": 120.0
            },
            {
                "start_time": 76.70227272727273,
                "end_time": 76.88636363636363,
                "pitch": 64,
                "velocity": 32,
                "duration": 0.18409090909089798,
                "tempo": 120.0
            },
            {
                "start_time": 76.90454545454546,
                "end_time": 77.28863636363636,
                "pitch": 69,
                "velocity": 32,
                "duration": 0.3840909090909008,
                "tempo": 120.0
            },
            {
                "start_time": 77.30454545454545,
                "end_time": 77.48863636363636,
                "pitch": 71,
                "velocity": 32,
                "duration": 0.1840909090909122,
                "tempo": 120.0
            },
            {
                "start_time": 77.50454545454545,
                "end_time": 77.69090909090909,
                "pitch": 72,
                "velocity": 32,
                "duration": 0.1863636363636374,
                "tempo": 120.0
            },
            {
                "start_time": 77.70681818181818,
                "end_time": 78.0909090909091,
                "pitch": 69,
                "velocity": 32,
                "duration": 0.38409090909091503,
                "tempo": 120.0
            },
            {
                "start_time": 78.10681818181818,
                "end_time": 78.29090909090908,
                "pitch": 69,
                "velocity": 32,
                "duration": 0.18409090909089798,
                "tempo": 120.0
            },
            {
                "start_time": 78.30909090909091,
                "end_time": 78.69545454545454,
                "pitch": 76,
                "velocity": 32,
                "duration": 0.38636363636362603,
                "tempo": 120.0
            },
            {
                "start_time": 78.71136363636363,
                "end_time": 79.10227272727272,
                "pitch": 74,
                "velocity": 32,
                "duration": 0.39090909090909065,
                "tempo": 120.0
            },
            {
                "start_time": 79.11818181818181,
                "end_time": 79.3,
                "pitch": 72,
                "velocity": 32,
                "duration": 0.18181818181818699,
                "tempo": 120.0
            },
            {
                "start_time": 79.31590909090909,
                "end_time": 81.10227272727272,
                "pitch": 69,
                "velocity": 32,
                "duration": 1.7863636363636317,
                "tempo": 120.0
            },
            {
                "start_time": 81.11818181818181,
                "end_time": 81.70454545454545,
                "pitch": 76,
                "velocity": 32,
                "duration": 0.5863636363636431,
                "tempo": 120.0
            },
            {
                "start_time": 81.72045454545454,
                "end_time": 83.91363636363636,
                "pitch": 74,
                "velocity": 32,
                "duration": 2.193181818181813,
                "tempo": 120.0
            }
        ]
    }
}