{
    "track_id": "After Burner (FM) - 06 - City 202",
    "mood": "happy",
    "instruments": {
        "Violin": [
            {
                "start_time": 0.013636363636363636,
                "end_time": 0.049999999999999996,
                "pitch": 68,
                "velocity": 40,
                "duration": 0.03636363636363636,
                "tempo": 120.0
            },
            {
                "start_time": 0.9954545454545454,
                "end_time": 1.2113636363636362,
                "pitch": 52,
                "velocity": 40,
                "duration": 0.21590909090909083,
                "tempo": 120.0
            },
            {
                "start_time": 1.2636363636363637,
                "end_time": 1.3477272727272727,
                "pitch": 52,
                "velocity": 40,
                "duration": 0.084090909090909,
                "tempo": 120.0
            },
            {
                "start_time": 1.3977272727272727,
                "end_time": 1.4840909090909091,
                "pitch": 47,
                "velocity": 40,
                "duration": 0.08636363636363642,
                "tempo": 120.0
            },
            {
                "start_time": 1.534090909090909,
                "end_time": 1.6204545454545454,
                "pitch": 49,
                "velocity": 40,
                "duration": 0.08636363636363642,
                "tempo": 120.0
            },
            {
                "start_time": 1.6704545454545454,
                "end_time": 1.7568181818181818,
                "pitch": 50,
                "velocity": 40,
                "duration": 0.08636363636363642,
                "tempo": 120.0
            },
            {
                "start_time": 1.9431818181818181,
                "end_time": 2.0272727272727273,
                "pitch": 49,
                "velocity": 40,
                "duration": 0.08409090909090922,
                "tempo": 120.0
            },
            {
                "start_time": 2.2136363636363634,
                "end_time": 2.3,
                "pitch": 52,
                "velocity": 40,
                "duration": 0.08636363636363642,
                "tempo": 120.0
            },
            {
                "start_time": 2.618181818181818,
                "end_time": 2.702272727272727,
                "pitch": 49,
                "velocity": 40,
                "duration": 0.084090909090909,
                "tempo": 120.0
            },
            {
                "start_time": 2.752272727272727,
                "end_time": 2.834090909090909,
                "pitch": 50,
                "velocity": 40,
                "duration": 0.08181818181818201,
                "tempo": 120.0
            },
            {
                "start_time": 2.884090909090909,
                "end_time": 2.9681818181818183,
                "pitch": 55,
                "velocity": 40,
                "duration": 0.08409090909090944,
                "tempo": 120.0
            },
            {
                "start_time": 3.018181818181818,
                "end_time": 3.102272727272727,
                "pitch": 56,
                "velocity": 40,
                "duration": 0.084090909090909,
                "tempo": 120.0
            },
            {
                "start_time": 3.1522727272727273,
                "end_time": 3.368181818181818,
                "pitch": 52,
                "velocity": 40,
                "duration": 0.21590909090909083,
                "tempo": 120.0
            },
            {
                "start_time": 3.4204545454545454,
                "end_time": 3.5045454545454544,
                "pitch": 52,
                "velocity": 40,
                "duration": 0.084090909090909,
                "tempo": 120.0
            },
            {
                "start_time": 3.5545454545454542,
                "end_time": 3.6409090909090907,
                "pitch": 47,
                "velocity": 40,
                "duration": 0.08636363636363642,
                "tempo": 120.0
            },
            {
                "start_time": 3.690909090909091,
                "end_time": 3.777272727272727,
                "pitch": 49,
                "velocity": 40,
                "duration": 0.08636363636363598,
                "tempo": 120.0
            },
            {
                "start_time": 3.827272727272727,
                "end_time": 3.911363636363636,
                "pitch": 50,
                "velocity": 40,
                "duration": 0.084090909090909,
                "tempo": 120.0
            },
            {
                "start_time": 3.9636363636363634,
                "end_time": 4.047727272727273,
                "pitch": 49,
                "velocity": 40,
                "duration": 0.08409090909090944,
                "tempo": 120.0
            },
            {
                "start_time": 4.2295454545454545,
                "end_time": 5.152272727272727,
                "pitch": 50,
                "velocity": 40,
                "duration": 0.9227272727272728,
                "tempo": 120.0
            },
            {
                "start_time": 5.336363636363636,
                "end_time": 5.552272727272727,
                "pitch": 52,
                "velocity": 40,
                "duration": 0.21590909090909083,
                "tempo": 120.0
            },
            {
                "start_time": 5.602272727272727,
                "end_time": 5.6886363636363635,
                "pitch": 52,
                "velocity": 40,
                "duration": 0.08636363636363686,
                "tempo": 120.0
            },
            {
                "start_time": 5.738636363636363,
                "end_time": 5.822727272727272,
                "pitch": 47,
                "velocity": 40,
                "duration": 0.084090909090909,
                "tempo": 120.0
            },
            {
                "start_time": 5.875,
                "end_time": 5.959090909090909,
                "pitch": 49,
                "velocity": 40,
                "duration": 0.084090909090909,
                "tempo": 120.0
            },
            {
                "start_time": 6.011363636363636,
                "end_time": 6.095454545454545,
                "pitch": 50,
                "velocity": 40,
                "duration": 0.084090909090909,
                "tempo": 120.0
            },
            {
                "start_time": 6.279545454545454,
                "end_time": 6.363636363636363,
                "pitch": 49,
                "velocity": 40,
                "duration": 0.084090909090909,
                "tempo": 120.0
            },
            {
                "start_time": 6.547727272727273,
                "end_time": 6.631818181818182,
                "pitch": 52,
                "velocity": 40,
                "duration": 0.084090909090909,
                "tempo": 120.0
            },
            {
                "start_time": 6.947727272727272,
                "end_time": 7.031818181818181,
                "pitch": 49,
                "velocity": 40,
                "duration": 0.084090909090909,
                "tempo": 120.0
            },
            {
                "start_time": 7.081818181818181,
                "end_time": 7.16590909090909,
                "pitch": 50,
                "velocity": 40,
                "duration": 0.084090909090909,
                "tempo": 120.0
            },
            {
                "start_time": 7.215909090909091,
                "end_time": 7.3,
                "pitch": 55,
                "velocity": 40,
                "duration": 0.084090909090909,
                "tempo": 120.0
            },
            {
                "start_time": 7.352272727272727,
                "end_time": 7.436363636363636,
                "pitch": 56,
                "velocity": 40,
                "duration": 0.084090909090909,
                "tempo": 120.0
            },
            {
                "start_time": 7.486363636363636,
                "end_time": 7.709090909090909,
                "pitch": 52,
                "velocity": 40,
                "duration": 0.22272727272727266,
                "tempo": 120.0
            },
            {
                "start_time": 7.759090909090909,
                "end_time": 7.843181818181818,
                "pitch": 52,
                "velocity": 40,
                "duration": 0.084090909090909,
                "tempo": 120.0
            },
            {
                "start_time": 7.893181818181818,
                "end_time": 7.977272727272727,
                "pitch": 47,
                "velocity": 40,
                "duration": 0.084090909090909,
                "tempo": 120.0
            },
            {
                "start_time": 8.027272727272727,
                "end_time": 8.10909090909091,
                "pitch": 49,
                "velocity": 40,
                "duration": 0.08181818181818201,
                "tempo": 120.0
            },
            {
                "start_time": 8.159090909090908,
                "end_time": 8.243181818181817,
                "pitch": 50,
                "velocity": 40,
                "duration": 0.084090909090909,
                "tempo": 120.0
            },
            {
                "start_time": 8.293181818181818,
                "end_time": 8.377272727272727,
                "pitch": 49,
                "velocity": 40,
                "duration": 0.084090909090909,
                "tempo": 120.0
            },
            {
                "start_time": 8.561363636363636,
                "end_time": 9.447727272727272,
                "pitch": 50,
                "velocity": 40,
                "duration": 0.8863636363636367,
                "tempo": 120.0
            },
            {
                "start_time": 9.634090909090908,
                "end_time": 9.854545454545454,
                "pitch": 57,
                "velocity": 40,
                "duration": 0.22045454545454568,
                "tempo": 120.0
            },
            {
                "start_time": 9.906818181818181,
                "end_time": 9.99090909090909,
                "pitch": 45,
                "velocity": 40,
                "duration": 0.084090909090909,
                "tempo": 120.0
            },
            {
                "start_time": 10.040909090909091,
                "end_time": 10.122727272727273,
                "pitch": 40,
                "velocity": 40,
                "duration": 0.08181818181818201,
                "tempo": 120.0
            },
            {
                "start_time": 10.172727272727272,
                "end_time": 10.256818181818181,
                "pitch": 42,
                "velocity": 40,
                "duration": 0.084090909090909,
                "tempo": 120.0
            },
            {
                "start_time": 10.306818181818182,
                "end_time": 10.39090909090909,
                "pitch": 43,
                "velocity": 40,
                "duration": 0.084090909090909,
                "tempo": 120.0
            },
            {
                "start_time": 10.577272727272726,
                "end_time": 10.661363636363635,
                "pitch": 42,
                "velocity": 40,
                "duration": 0.084090909090909,
                "tempo": 120.0
            },
            {
                "start_time": 10.847727272727273,
                "end_time": 10.934090909090909,
                "pitch": 45,
                "velocity": 40,
                "duration": 0.08636363636363598,
                "tempo": 120.0
            },
            {
                "start_time": 11.252272727272727,
                "end_time": 11.336363636363636,
                "pitch": 42,
                "velocity": 40,
                "duration": 0.084090909090909,
                "tempo": 120.0
            },
            {
                "start_time": 11.386363636363637,
                "end_time": 11.468181818181817,
                "pitch": 43,
                "velocity": 40,
                "duration": 0.08181818181818024,
                "tempo": 120.0
            },
            {
                "start_time": 11.518181818181818,
                "end_time": 11.602272727272727,
                "pitch": 48,
                "velocity": 40,
                "duration": 0.084090909090909,
                "tempo": 120.0
            },
            {
                "start_time": 11.652272727272727,
                "end_time": 11.736363636363636,
                "pitch": 49,
                "velocity": 40,
                "duration": 0.084090909090909,
                "tempo": 120.0
            },
            {
                "start_time": 11.786363636363635,
                "end_time": 12.002272727272727,
                "pitch": 45,
                "velocity": 40,
                "duration": 0.21590909090909172,
                "tempo": 120.0
            },
            {
                "start_time": 12.054545454545455,
                "end_time": 12.138636363636364,
                "pitch": 45,
                "velocity": 40,
                "duration": 0.084090909090909,
                "tempo": 120.0
            },
            {
                "start_time": 12.188636363636363,
                "end_time": 12.274999999999999,
                "pitch": 40,
                "velocity": 40,
                "duration": 0.08636363636363598,
                "tempo": 120.0
            },
            {
                "start_time": 12.325,
                "end_time": 12.411363636363635,
                "pitch": 42,
                "velocity": 40,
                "duration": 0.08636363636363598,
                "tempo": 120.0
            },
            {
                "start_time": 12.461363636363636,
                "end_time": 12.545454545454545,
                "pitch": 43,
                "velocity": 40,
                "duration": 0.084090909090909,
                "tempo": 120.0
            },
            {
                "start_time": 12.597727272727273,
                "end_time": 12.681818181818182,
                "pitch": 42,
                "velocity": 40,
                "duration": 0.084090909090909,
                "tempo": 120.0
            },
            {
                "start_time": 12.863636363636363,
                "end_time": 13.752272727272727,
                "pitch": 43,
                "velocity": 40,
                "duration": 0.8886363636363637,
                "tempo": 120.0
            },
            {
                "start_time": 13.938636363636363,
                "end_time": 14.159090909090908,
                "pitch": 52,
                "velocity": 40,
                "duration": 0.22045454545454568,
                "tempo": 120.0
            },
            {
                "start_time": 14.209090909090909,
                "end_time": 14.293181818181818,
                "pitch": 52,
                "velocity": 40,
                "duration": 0.084090909090909,
                "tempo": 120.0
            },
            {
                "start_time": 14.343181818181817,
                "end_time": 14.427272727272726,
                "pitch": 47,
                "velocity": 40,
                "duration": 0.084090909090909,
                "tempo": 120.0
            },
            {
                "start_time": 14.477272727272727,
                "end_time": 14.561363636363636,
                "pitch": 49,
                "velocity": 40,
                "duration": 0.084090909090909,
                "tempo": 120.0
            },
            {
                "start_time": 14.611363636363636,
                "end_time": 14.695454545454545,
                "pitch": 50,
                "velocity": 40,
                "duration": 0.084090909090909,
                "tempo": 120.0
            },
            {
                "start_time": 14.877272727272727,
                "end_time": 14.961363636363636,
                "pitch": 49,
                "velocity": 40,
                "duration": 0.084090909090909,
                "tempo": 120.0
            },
            {
                "start_time": 15.145454545454545,
                "end_time": 15.229545454545454,
                "pitch": 52,
                "velocity": 40,
                "duration": 0.084090909090909,
                "tempo": 120.0
            },
            {
                "start_time": 15.545454545454545,
                "end_time": 15.629545454545454,
                "pitch": 49,
                "velocity": 40,
                "duration": 0.084090909090909,
                "tempo": 120.0
            },
            {
                "start_time": 15.679545454545453,
                "end_time": 15.763636363636364,
                "pitch": 50,
                "velocity": 40,
                "duration": 0.08409090909091077,
                "tempo": 120.0
            },
            {
                "start_time": 15.813636363636363,
                "end_time": 15.897727272727272,
                "pitch": 55,
                "velocity": 40,
                "duration": 0.084090909090909,
                "tempo": 120.0
            },
            {
                "start_time": 15.95,
                "end_time": 16.03409090909091,
                "pitch": 56,
                "velocity": 40,
                "duration": 0.08409090909091077,
                "tempo": 120.0
            },
            {
                "start_time": 16.086363636363636,
                "end_time": 16.30681818181818,
                "pitch": 52,
                "velocity": 40,
                "duration": 0.2204545454545439,
                "tempo": 120.0
            },
            {
                "start_time": 16.35681818181818,
                "end_time": 16.44090909090909,
                "pitch": 52,
                "velocity": 40,
                "duration": 0.08409090909091077,
                "tempo": 120.0
            },
            {
                "start_time": 16.49090909090909,
                "end_time": 16.575,
                "pitch": 47,
                "velocity": 40,
                "duration": 0.08409090909091077,
                "tempo": 120.0
            },
            {
                "start_time": 16.625,
                "end_time": 16.706818181818182,
                "pitch": 49,
                "velocity": 40,
                "duration": 0.08181818181818201,
                "tempo": 120.0
            },
            {
                "start_time": 16.756818181818183,
                "end_time": 16.84090909090909,
                "pitch": 50,
                "velocity": 40,
                "duration": 0.08409090909090722,
                "tempo": 120.0
            },
            {
                "start_time": 16.89090909090909,
                "end_time": 16.977272727272727,
                "pitch": 49,
                "velocity": 40,
                "duration": 0.08636363636363598,
                "tempo": 120.0
            },
            {
                "start_time": 17.163636363636364,
                "end_time": 18.047727272727272,
                "pitch": 50,
                "velocity": 40,
                "duration": 0.8840909090909079,
                "tempo": 120.0
            }
        ],
        "Electric Guitar (clean)": [
            {
                "start_time": 0.8613636363636363,
                "end_time": 1.0795454545454546,
                "pitch": 40,
                "velocity": 40,
                "duration": 0.21818181818181825,
                "tempo": 120.0
            },
            {
                "start_time": 1.1295454545454544,
                "end_time": 1.2113636363636362,
                "pitch": 40,
                "velocity": 40,
                "duration": 0.08181818181818179,
                "tempo": 120.0
            },
            {
                "start_time": 1.2636363636363637,
                "end_time": 1.3477272727272727,
                "pitch": 40,
                "velocity": 40,
                "duration": 0.084090909090909,
                "tempo": 120.0
            },
            {
                "start_time": 1.534090909090909,
                "end_time": 1.6204545454545454,
                "pitch": 40,
                "velocity": 40,
                "duration": 0.08636363636363642,
                "tempo": 120.0
            },
            {
                "start_time": 1.6704545454545454,
                "end_time": 1.7568181818181818,
                "pitch": 40,
                "velocity": 40,
                "duration": 0.08636363636363642,
                "tempo": 120.0
            },
            {
                "start_time": 1.8068181818181817,
                "end_time": 1.8909090909090909,
                "pitch": 40,
                "velocity": 40,
                "duration": 0.08409090909090922,
                "tempo": 120.0
            },
            {
                "start_time": 1.9431818181818181,
                "end_time": 2.1636363636363636,
                "pitch": 40,
                "velocity": 40,
                "duration": 0.22045454545454546,
                "tempo": 120.0
            },
            {
                "start_time": 2.2136363636363634,
                "end_time": 2.3,
                "pitch": 52,
                "velocity": 40,
                "duration": 0.08636363636363642,
                "tempo": 120.0
            },
            {
                "start_time": 2.484090909090909,
                "end_time": 2.568181818181818,
                "pitch": 40,
                "velocity": 40,
                "duration": 0.084090909090909,
                "tempo": 120.0
            },
            {
                "start_time": 2.618181818181818,
                "end_time": 2.702272727272727,
                "pitch": 50,
                "velocity": 40,
                "duration": 0.084090909090909,
                "tempo": 120.0
            },
            {
                "start_time": 2.752272727272727,
                "end_time": 2.834090909090909,
                "pitch": 49,
                "velocity": 40,
                "duration": 0.08181818181818201,
                "tempo": 120.0
            },
            {
                "start_time": 2.884090909090909,
                "end_time": 2.9681818181818183,
                "pitch": 47,
                "velocity": 40,
                "duration": 0.08409090909090944,
                "tempo": 120.0
            },
            {
                "start_time": 3.018181818181818,
                "end_time": 3.2363636363636363,
                "pitch": 40,
                "velocity": 40,
                "duration": 0.21818181818181825,
                "tempo": 120.0
            },
            {
                "start_time": 3.286363636363636,
                "end_time": 3.368181818181818,
                "pitch": 40,
                "velocity": 40,
                "duration": 0.08181818181818201,
                "tempo": 120.0
            },
            {
                "start_time": 3.4204545454545454,
                "end_time": 3.5045454545454544,
                "pitch": 40,
                "velocity": 40,
                "duration": 0.084090909090909,
                "tempo": 120.0
            },
            {
                "start_time": 3.690909090909091,
                "end_time": 3.777272727272727,
                "pitch": 40,
                "velocity": 40,
                "duration": 0.08636363636363598,
                "tempo": 120.0
            },
            {
                "start_time": 3.827272727272727,
                "end_time": 3.911363636363636,
                "pitch": 40,
                "velocity": 40,
                "duration": 0.084090909090909,
                "tempo": 120.0
            },
            {
                "start_time": 3.9636363636363634,
                "end_time": 4.047727272727273,
                "pitch": 40,
                "velocity": 40,
                "duration": 0.08409090909090944,
                "tempo": 120.0
            },
            {
                "start_time": 4.097727272727273,
                "end_time": 4.3136363636363635,
                "pitch": 40,
                "velocity": 40,
                "duration": 0.21590909090909083,
                "tempo": 120.0
            },
            {
                "start_time": 4.381818181818182,
                "end_time": 4.463636363636364,
                "pitch": 40,
                "velocity": 40,
                "duration": 0.08181818181818201,
                "tempo": 120.0
            },
            {
                "start_time": 4.515909090909091,
                "end_time": 4.602272727272727,
                "pitch": 40,
                "velocity": 40,
                "duration": 0.08636363636363598,
                "tempo": 120.0
            },
            {
                "start_time": 4.809090909090909,
                "end_time": 4.877272727272727,
                "pitch": 50,
                "velocity": 40,
                "duration": 0.06818181818181834,
                "tempo": 120.0
            },
            {
                "start_time": 4.929545454545455,
                "end_time": 5.015909090909091,
                "pitch": 49,
                "velocity": 40,
                "duration": 0.08636363636363598,
                "tempo": 120.0
            },
            {
                "start_time": 5.068181818181818,
                "end_time": 5.152272727272727,
                "pitch": 47,
                "velocity": 40,
                "duration": 0.084090909090909,
                "tempo": 120.0
            },
            {
                "start_time": 5.202272727272727,
                "end_time": 5.418181818181818,
                "pitch": 40,
                "velocity": 40,
                "duration": 0.21590909090909083,
                "tempo": 120.0
            },
            {
                "start_time": 5.468181818181818,
                "end_time": 5.552272727272727,
                "pitch": 40,
                "velocity": 40,
                "duration": 0.084090909090909,
                "tempo": 120.0
            },
            {
                "start_time": 5.602272727272727,
                "end_time": 5.6886363636363635,
                "pitch": 40,
                "velocity": 40,
                "duration": 0.08636363636363686,
                "tempo": 120.0
            },
            {
                "start_time": 5.875,
                "end_time": 5.959090909090909,
                "pitch": 40,
                "velocity": 40,
                "duration": 0.084090909090909,
                "tempo": 120.0
            },
            {
                "start_time": 6.011363636363636,
                "end_time": 6.095454545454545,
                "pitch": 40,
                "velocity": 40,
                "duration": 0.084090909090909,
                "tempo": 120.0
            },
            {
                "start_time": 6.1454545454545455,
                "end_time": 6.2295454545454545,
                "pitch": 40,
                "velocity": 40,
                "duration": 0.084090909090909,
                "tempo": 120.0
            },
            {
                "start_time": 6.279545454545454,
                "end_time": 6.497727272727272,
                "pitch": 40,
                "velocity": 40,
                "duration": 0.2181818181818178,
                "tempo": 120.0
            },
            {
                "start_time": 6.547727272727273,
                "end_time": 6.631818181818182,
                "pitch": 52,
                "velocity": 40,
                "duration": 0.084090909090909,
                "tempo": 120.0
            },
            {
                "start_time": 6.8136363636363635,
                "end_time": 6.8977272727272725,
                "pitch": 40,
                "velocity": 40,
                "duration": 0.084090909090909,
                "tempo": 120.0
            },
            {
                "start_time": 6.947727272727272,
                "end_time": 7.031818181818181,
                "pitch": 50,
                "velocity": 40,
                "duration": 0.084090909090909,
                "tempo": 120.0
            },
            {
                "start_time": 7.081818181818181,
                "end_time": 7.16590909090909,
                "pitch": 49,
                "velocity": 40,
                "duration": 0.084090909090909,
                "tempo": 120.0
            },
            {
                "start_time": 7.215909090909091,
                "end_time": 7.3,
                "pitch": 47,
                "velocity": 40,
                "duration": 0.084090909090909,
                "tempo": 120.0
            },
            {
                "start_time": 7.352272727272727,
                "end_time": 7.572727272727272,
                "pitch": 40,
                "velocity": 40,
                "duration": 0.22045454545454568,
                "tempo": 120.0
            },
            {
                "start_time": 7.622727272727272,
                "end_time": 7.709090909090909,
                "pitch": 40,
                "velocity": 40,
                "duration": 0.08636363636363686,
                "tempo": 120.0
            },
            {
                "start_time": 7.759090909090909,
                "end_time": 7.843181818181818,
                "pitch": 40,
                "velocity": 40,
                "duration": 0.084090909090909,
                "tempo": 120.0
            },
            {
                "start_time": 8.027272727272727,
                "end_time": 8.10909090909091,
                "pitch": 40,
                "velocity": 40,
                "duration": 0.08181818181818201,
                "tempo": 120.0
            },
            {
                "start_time": 8.159090909090908,
                "end_time": 8.243181818181817,
                "pitch": 40,
                "velocity": 40,
                "duration": 0.084090909090909,
                "tempo": 120.0
            },
            {
                "start_time": 8.293181818181818,
                "end_time": 8.377272727272727,
                "pitch": 40,
                "velocity": 40,
                "duration": 0.084090909090909,
                "tempo": 120.0
            },
            {
                "start_time": 8.427272727272728,
                "end_time": 8.643181818181818,
                "pitch": 40,
                "velocity": 40,
                "duration": 0.21590909090908994,
                "tempo": 120.0
            },
            {
                "start_time": 8.695454545454545,
                "end_time": 8.777272727272727,
                "pitch": 40,
                "velocity": 40,
                "duration": 0.08181818181818201,
                "tempo": 120.0
            },
            {
                "start_time": 8.827272727272726,
                "end_time": 8.911363636363635,
                "pitch": 42,
                "velocity": 40,
                "duration": 0.084090909090909,
                "tempo": 120.0
            },
            {
                "start_time": 8.961363636363636,
                "end_time": 9.045454545454545,
                "pitch": 42,
                "velocity": 40,
                "duration": 0.084090909090909,
                "tempo": 120.0
            },
            {
                "start_time": 9.095454545454546,
                "end_time": 9.179545454545455,
                "pitch": 43,
                "velocity": 40,
                "duration": 0.084090909090909,
                "tempo": 120.0
            },
            {
                "start_time": 9.229545454545454,
                "end_time": 9.311363636363636,
                "pitch": 43,
                "velocity": 40,
                "duration": 0.08181818181818201,
                "tempo": 120.0
            },
            {
                "start_time": 9.363636363636363,
                "end_time": 9.447727272727272,
                "pitch": 44,
                "velocity": 40,
                "duration": 0.084090909090909,
                "tempo": 120.0
            },
            {
                "start_time": 9.497727272727273,
                "end_time": 9.720454545454546,
                "pitch": 57,
                "velocity": 40,
                "duration": 0.22272727272727266,
                "tempo": 120.0
            },
            {
                "start_time": 9.770454545454545,
                "end_time": 9.854545454545454,
                "pitch": 57,
                "velocity": 40,
                "duration": 0.084090909090909,
                "tempo": 120.0
            },
            {
                "start_time": 9.906818181818181,
                "end_time": 9.99090909090909,
                "pitch": 45,
                "velocity": 40,
                "duration": 0.084090909090909,
                "tempo": 120.0
            },
            {
                "start_time": 10.172727272727272,
                "end_time": 10.256818181818181,
                "pitch": 57,
                "velocity": 40,
                "duration": 0.084090909090909,
                "tempo": 120.0
            },
            {
                "start_time": 10.306818181818182,
                "end_time": 10.39090909090909,
                "pitch": 45,
                "velocity": 40,
                "duration": 0.084090909090909,
                "tempo": 120.0
            },
            {
                "start_time": 10.44090909090909,
                "end_time": 10.525,
                "pitch": 45,
                "velocity": 40,
                "duration": 0.08409090909091077,
                "tempo": 120.0
            },
            {
                "start_time": 10.577272727272726,
                "end_time": 10.797727272727272,
                "pitch": 45,
                "velocity": 40,
                "duration": 0.22045454545454568,
                "tempo": 120.0
            },
            {
                "start_time": 10.847727272727273,
                "end_time": 10.934090909090909,
                "pitch": 57,
                "velocity": 40,
                "duration": 0.08636363636363598,
                "tempo": 120.0
            },
            {
                "start_time": 11.118181818181817,
                "end_time": 11.202272727272726,
                "pitch": 45,
                "velocity": 40,
                "duration": 0.084090909090909,
                "tempo": 120.0
            },
            {
                "start_time": 11.252272727272727,
                "end_time": 11.336363636363636,
                "pitch": 55,
                "velocity": 40,
                "duration": 0.084090909090909,
                "tempo": 120.0
            },
            {
                "start_time": 11.386363636363637,
                "end_time": 11.468181818181817,
                "pitch": 54,
                "velocity": 40,
                "duration": 0.08181818181818024,
                "tempo": 120.0
            },
            {
                "start_time": 11.518181818181818,
                "end_time": 11.602272727272727,
                "pitch": 52,
                "velocity": 40,
                "duration": 0.084090909090909,
                "tempo": 120.0
            },
            {
                "start_time": 11.652272727272727,
                "end_time": 11.870454545454544,
                "pitch": 45,
                "velocity": 40,
                "duration": 0.21818181818181692,
                "tempo": 120.0
            },
            {
                "start_time": 11.920454545454545,
                "end_time": 12.002272727272727,
                "pitch": 57,
                "velocity": 40,
                "duration": 0.08181818181818201,
                "tempo": 120.0
            },
            {
                "start_time": 12.054545454545455,
                "end_time": 12.138636363636364,
                "pitch": 45,
                "velocity": 40,
                "duration": 0.084090909090909,
                "tempo": 120.0
            },
            {
                "start_time": 12.325,
                "end_time": 12.411363636363635,
                "pitch": 57,
                "velocity": 40,
                "duration": 0.08636363636363598,
                "tempo": 120.0
            },
            {
                "start_time": 12.461363636363636,
                "end_time": 12.545454545454545,
                "pitch": 45,
                "velocity": 40,
                "duration": 0.084090909090909,
                "tempo": 120.0
            },
            {
                "start_time": 12.597727272727273,
                "end_time": 12.681818181818182,
                "pitch": 45,
                "velocity": 40,
                "duration": 0.084090909090909,
                "tempo": 120.0
            },
            {
                "start_time": 12.73181818181818,
                "end_time": 12.947727272727272,
                "pitch": 45,
                "velocity": 40,
                "duration": 0.21590909090909172,
                "tempo": 120.0
            },
            {
                "start_time": 12.997727272727271,
                "end_time": 13.081818181818182,
                "pitch": 44,
                "velocity": 40,
                "duration": 0.08409090909091077,
                "tempo": 120.0
            },
            {
                "start_time": 13.131818181818181,
                "end_time": 13.21590909090909,
                "pitch": 45,
                "velocity": 40,
                "duration": 0.084090909090909,
                "tempo": 120.0
            },
            {
                "start_time": 13.399999999999999,
                "end_time": 13.48181818181818,
                "pitch": 55,
                "velocity": 40,
                "duration": 0.08181818181818201,
                "tempo": 120.0
            },
            {
                "start_time": 13.531818181818181,
                "end_time": 13.61590909090909,
                "pitch": 54,
                "velocity": 40,
                "duration": 0.084090909090909,
                "tempo": 120.0
            },
            {
                "start_time": 13.665909090909091,
                "end_time": 13.752272727272727,
                "pitch": 52,
                "velocity": 40,
                "duration": 0.08636363636363598,
                "tempo": 120.0
            },
            {
                "start_time": 13.802272727272726,
                "end_time": 14.022727272727272,
                "pitch": 40,
                "velocity": 40,
                "duration": 0.22045454545454568,
                "tempo": 120.0
            },
            {
                "start_time": 14.075,
                "end_time": 14.159090909090908,
                "pitch": 40,
                "velocity": 40,
                "duration": 0.084090909090909,
                "tempo": 120.0
            },
            {
                "start_time": 14.209090909090909,
                "end_time": 14.293181818181818,
                "pitch": 40,
                "velocity": 40,
                "duration": 0.084090909090909,
                "tempo": 120.0
            },
            {
                "start_time": 14.477272727272727,
                "end_time": 14.561363636363636,
                "pitch": 40,
                "velocity": 40,
                "duration": 0.084090909090909,
                "tempo": 120.0
            },
            {
                "start_time": 14.611363636363636,
                "end_time": 14.695454545454545,
                "pitch": 40,
                "velocity": 40,
                "duration": 0.084090909090909,
                "tempo": 120.0
            },
            {
                "start_time": 14.745454545454544,
                "end_time": 14.827272727272726,
                "pitch": 40,
                "velocity": 40,
                "duration": 0.08181818181818201,
                "tempo": 120.0
            },
            {
                "start_time": 14.877272727272727,
                "end_time": 15.095454545454544,
                "pitch": 40,
                "velocity": 40,
                "duration": 0.21818181818181692,
                "tempo": 120.0
            },
            {
                "start_time": 15.145454545454545,
                "end_time": 15.229545454545454,
                "pitch": 52,
                "velocity": 40,
                "duration": 0.084090909090909,
                "tempo": 120.0
            },
            {
                "start_time": 15.411363636363635,
                "end_time": 15.495454545454544,
                "pitch": 40,
                "velocity": 40,
                "duration": 0.084090909090909,
                "tempo": 120.0
            },
            {
                "start_time": 15.545454545454545,
                "end_time": 15.629545454545454,
                "pitch": 50,
                "velocity": 40,
                "duration": 0.084090909090909,
                "tempo": 120.0
            },
            {
                "start_time": 15.679545454545453,
                "end_time": 15.763636363636364,
                "pitch": 49,
                "velocity": 40,
                "duration": 0.08409090909091077,
                "tempo": 120.0
            },
            {
                "start_time": 15.813636363636363,
                "end_time": 15.897727272727272,
                "pitch": 47,
                "velocity": 40,
                "duration": 0.084090909090909,
                "tempo": 120.0
            },
            {
                "start_time": 15.95,
                "end_time": 16.170454545454543,
                "pitch": 40,
                "velocity": 40,
                "duration": 0.2204545454545439,
                "tempo": 120.0
            },
            {
                "start_time": 16.220454545454544,
                "end_time": 16.30681818181818,
                "pitch": 40,
                "velocity": 40,
                "duration": 0.08636363636363598,
                "tempo": 120.0
            },
            {
                "start_time": 16.35681818181818,
                "end_time": 16.44090909090909,
                "pitch": 40,
                "velocity": 40,
                "duration": 0.08409090909091077,
                "tempo": 120.0
            },
            {
                "start_time": 16.625,
                "end_time": 16.706818181818182,
                "pitch": 40,
                "velocity": 40,
                "duration": 0.08181818181818201,
                "tempo": 120.0
            },
            {
                "start_time": 16.756818181818183,
                "end_time": 16.84090909090909,
                "pitch": 40,
                "velocity": 40,
                "duration": 0.08409090909090722,
                "tempo": 120.0
            },
            {
                "start_time": 16.89090909090909,
                "end_time": 16.977272727272727,
                "pitch": 40,
                "velocity": 40,
                "duration": 0.08636363636363598,
                "tempo": 120.0
            },
            {
                "start_time": 17.027272727272727,
                "end_time": 17.24772727272727,
                "pitch": 40,
                "velocity": 40,
                "duration": 0.2204545454545439,
                "tempo": 120.0
            },
            {
                "start_time": 17.3,
                "end_time": 17.384090909090908,
                "pitch": 40,
                "velocity": 40,
                "duration": 0.08409090909090722,
                "tempo": 120.0
            },
            {
                "start_time": 17.43409090909091,
                "end_time": 17.51590909090909,
                "pitch": 42,
                "velocity": 40,
                "duration": 0.08181818181818201,
                "tempo": 120.0
            },
            {
                "start_time": 17.56590909090909,
                "end_time": 17.647727272727273,
                "pitch": 42,
                "velocity": 40,
                "duration": 0.08181818181818201,
                "tempo": 120.0
            },
            {
                "start_time": 17.69772727272727,
                "end_time": 17.779545454545453,
                "pitch": 43,
                "velocity": 40,
                "duration": 0.08181818181818201,
                "tempo": 120.0
            },
            {
                "start_time": 17.829545454545453,
                "end_time": 17.911363636363635,
                "pitch": 43,
                "velocity": 40,
                "duration": 0.08181818181818201,
                "tempo": 120.0
            },
            {
                "start_time": 17.961363636363636,
                "end_time": 18.047727272727272,
                "pitch": 42,
                "velocity": 40,
                "duration": 0.08636363636363598,
                "tempo": 120.0
            }
        ]
    }
}