{
    "track_id": "Alex Kidd - The Lost Stars (FM) - 06 - Water World",
    "mood": "happy",
    "instruments": {
        "Clarinet": [
            {
                "start_time": 0.6568181818181817,
                "end_time": 0.7772727272727272,
                "pitch": 73,
                "velocity": 64,
                "duration": 0.12045454545454548,
                "tempo": 120.0
            },
            {
                "start_time": 0.7931818181818181,
                "end_time": 0.9113636363636363,
                "pitch": 75,
                "velocity": 64,
                "duration": 0.11818181818181817,
                "tempo": 120.0
            },
            {
                "start_time": 1.0613636363636363,
                "end_time": 1.1772727272727272,
                "pitch": 78,
                "velocity": 64,
                "duration": 0.11590909090909096,
                "tempo": 120.0
            },
            {
                "start_time": 1.4613636363636362,
                "end_time": 1.5772727272727272,
                "pitch": 78,
                "velocity": 64,
                "duration": 0.11590909090909096,
                "tempo": 120.0
            },
            {
                "start_time": 3.2068181818181816,
                "end_time": 3.3249999999999997,
                "pitch": 73,
                "velocity": 64,
                "duration": 0.11818181818181817,
                "tempo": 120.0
            },
            {
                "start_time": 3.6068181818181815,
                "end_time": 3.7227272727272727,
                "pitch": 73,
                "velocity": 64,
                "duration": 0.11590909090909118,
                "tempo": 120.0
            },
            {
                "start_time": 3.868181818181818,
                "end_time": 3.984090909090909,
                "pitch": 73,
                "velocity": 64,
                "duration": 0.11590909090909074,
                "tempo": 120.0
            },
            {
                "start_time": 4.0,
                "end_time": 4.11590909090909,
                "pitch": 75,
                "velocity": 64,
                "duration": 0.1159090909090903,
                "tempo": 120.0
            },
            {
                "start_time": 4.265909090909091,
                "end_time": 4.384090909090909,
                "pitch": 78,
                "velocity": 64,
                "duration": 0.11818181818181817,
                "tempo": 120.0
            },
            {
                "start_time": 4.675,
                "end_time": 4.793181818181818,
                "pitch": 78,
                "velocity": 64,
                "duration": 0.11818181818181817,
                "tempo": 120.0
            },
            {
                "start_time": 5.079545454545454,
                "end_time": 5.129545454545454,
                "pitch": 80,
                "velocity": 64,
                "duration": 0.04999999999999982,
                "tempo": 120.0
            },
            {
                "start_time": 5.1454545454545455,
                "end_time": 5.197727272727272,
                "pitch": 81,
                "velocity": 64,
                "duration": 0.052272727272726804,
                "tempo": 120.0
            },
            {
                "start_time": 5.213636363636363,
                "end_time": 5.331818181818181,
                "pitch": 80,
                "velocity": 64,
                "duration": 0.11818181818181817,
                "tempo": 120.0
            },
            {
                "start_time": 5.4818181818181815,
                "end_time": 5.6,
                "pitch": 78,
                "velocity": 64,
                "duration": 0.11818181818181817,
                "tempo": 120.0
            },
            {
                "start_time": 6.418181818181818,
                "end_time": 6.536363636363636,
                "pitch": 73,
                "velocity": 64,
                "duration": 0.11818181818181817,
                "tempo": 120.0
            },
            {
                "start_time": 7.079545454545454,
                "end_time": 7.195454545454545,
                "pitch": 73,
                "velocity": 64,
                "duration": 0.11590909090909118,
                "tempo": 120.0
            },
            {
                "start_time": 7.211363636363636,
                "end_time": 7.327272727272727,
                "pitch": 75,
                "velocity": 64,
                "duration": 0.11590909090909118,
                "tempo": 120.0
            },
            {
                "start_time": 7.477272727272727,
                "end_time": 7.595454545454545,
                "pitch": 78,
                "velocity": 64,
                "duration": 0.11818181818181817,
                "tempo": 120.0
            },
            {
                "start_time": 7.879545454545454,
                "end_time": 7.997727272727272,
                "pitch": 78,
                "velocity": 64,
                "duration": 0.11818181818181817,
                "tempo": 120.0
            },
            {
                "start_time": 9.622727272727273,
                "end_time": 9.74090909090909,
                "pitch": 73,
                "velocity": 64,
                "duration": 0.11818181818181728,
                "tempo": 120.0
            },
            {
                "start_time": 10.031818181818181,
                "end_time": 10.147727272727272,
                "pitch": 73,
                "velocity": 64,
                "duration": 0.1159090909090903,
                "tempo": 120.0
            },
            {
                "start_time": 10.293181818181818,
                "end_time": 10.409090909090908,
                "pitch": 73,
                "velocity": 64,
                "duration": 0.1159090909090903,
                "tempo": 120.0
            },
            {
                "start_time": 10.424999999999999,
                "end_time": 10.543181818181818,
                "pitch": 75,
                "velocity": 64,
                "duration": 0.11818181818181905,
                "tempo": 120.0
            },
            {
                "start_time": 10.693181818181818,
                "end_time": 10.811363636363636,
                "pitch": 78,
                "velocity": 64,
                "duration": 0.11818181818181728,
                "tempo": 120.0
            },
            {
                "start_time": 11.102272727272727,
                "end_time": 11.220454545454546,
                "pitch": 78,
                "velocity": 64,
                "duration": 0.11818181818181905,
                "tempo": 120.0
            },
            {
                "start_time": 11.506818181818181,
                "end_time": 11.556818181818182,
                "pitch": 80,
                "velocity": 64,
                "duration": 0.05000000000000071,
                "tempo": 120.0
            },
            {
                "start_time": 11.575,
                "end_time": 11.69090909090909,
                "pitch": 81,
                "velocity": 64,
                "duration": 0.1159090909090903,
                "tempo": 120.0
            },
            {
                "start_time": 11.774999999999999,
                "end_time": 11.893181818181818,
                "pitch": 80,
                "velocity": 64,
                "duration": 0.11818181818181905,
                "tempo": 120.0
            },
            {
                "start_time": 12.043181818181818,
                "end_time": 12.159090909090908,
                "pitch": 78,
                "velocity": 64,
                "duration": 0.1159090909090903,
                "tempo": 120.0
            },
            {
                "start_time": 12.847727272727273,
                "end_time": 12.963636363636363,
                "pitch": 79,
                "velocity": 64,
                "duration": 0.1159090909090903,
                "tempo": 120.0
            },
            {
                "start_time": 13.247727272727271,
                "end_time": 13.363636363636363,
                "pitch": 80,
                "velocity": 64,
                "duration": 0.11590909090909207,
                "tempo": 120.0
            },
            {
                "start_time": 13.649999999999999,
                "end_time": 13.763636363636364,
                "pitch": 79,
                "velocity": 64,
                "duration": 0.11363636363636509,
                "tempo": 120.0
            },
            {
                "start_time": 14.040909090909091,
                "end_time": 14.161363636363635,
                "pitch": 80,
                "velocity": 64,
                "duration": 0.12045454545454426,
                "tempo": 120.0
            },
            {
                "start_time": 14.713636363636363,
                "end_time": 14.827272727272726,
                "pitch": 79,
                "velocity": 64,
                "duration": 0.11363636363636331,
                "tempo": 120.0
            },
            {
                "start_time": 15.111363636363636,
                "end_time": 15.227272727272727,
                "pitch": 80,
                "velocity": 64,
                "duration": 0.1159090909090903,
                "tempo": 120.0
            },
            {
                "start_time": 15.245454545454544,
                "end_time": 15.361363636363636,
                "pitch": 83,
                "velocity": 64,
                "duration": 0.11590909090909207,
                "tempo": 120.0
            },
            {
                "start_time": 15.513636363636364,
                "end_time": 15.629545454545454,
                "pitch": 83,
                "velocity": 64,
                "duration": 0.1159090909090903,
                "tempo": 120.0
            },
            {
                "start_time": 15.647727272727272,
                "end_time": 15.76590909090909,
                "pitch": 80,
                "velocity": 64,
                "duration": 0.11818181818181905,
                "tempo": 120.0
            },
            {
                "start_time": 15.920454545454545,
                "end_time": 16.04090909090909,
                "pitch": 79,
                "velocity": 64,
                "duration": 0.12045454545454426,
                "tempo": 120.0
            },
            {
                "start_time": 16.05909090909091,
                "end_time": 16.175,
                "pitch": 81,
                "velocity": 64,
                "duration": 0.11590909090909207,
                "tempo": 120.0
            },
            {
                "start_time": 16.461363636363636,
                "end_time": 16.577272727272728,
                "pitch": 82,
                "velocity": 64,
                "duration": 0.11590909090909207,
                "tempo": 120.0
            },
            {
                "start_time": 16.863636363636363,
                "end_time": 16.977272727272727,
                "pitch": 81,
                "velocity": 64,
                "duration": 0.11363636363636331,
                "tempo": 120.0
            },
            {
                "start_time": 17.254545454545454,
                "end_time": 17.375,
                "pitch": 82,
                "velocity": 64,
                "duration": 0.12045454545454604,
                "tempo": 120.0
            },
            {
                "start_time": 17.927272727272726,
                "end_time": 18.04090909090909,
                "pitch": 81,
                "velocity": 64,
                "duration": 0.11363636363636331,
                "tempo": 120.0
            },
            {
                "start_time": 18.327272727272728,
                "end_time": 18.443181818181817,
                "pitch": 82,
                "velocity": 64,
                "duration": 0.11590909090908852,
                "tempo": 120.0
            },
            {
                "start_time": 18.461363636363636,
                "end_time": 18.577272727272728,
                "pitch": 85,
                "velocity": 64,
                "duration": 0.11590909090909207,
                "tempo": 120.0
            },
            {
                "start_time": 18.727272727272727,
                "end_time": 18.84318181818182,
                "pitch": 85,
                "velocity": 64,
                "duration": 0.11590909090909207,
                "tempo": 120.0
            },
            {
                "start_time": 18.861363636363635,
                "end_time": 18.979545454545455,
                "pitch": 82,
                "velocity": 64,
                "duration": 0.11818181818182083,
                "tempo": 120.0
            },
            {
                "start_time": 19.134090909090908,
                "end_time": 19.254545454545454,
                "pitch": 81,
                "velocity": 64,
                "duration": 0.12045454545454604,
                "tempo": 120.0
            },
            {
                "start_time": 19.272727272727273,
                "end_time": 19.39090909090909,
                "pitch": 79,
                "velocity": 64,
                "duration": 0.11818181818181728,
                "tempo": 120.0
            },
            {
                "start_time": 19.68181818181818,
                "end_time": 19.797727272727272,
                "pitch": 80,
                "velocity": 64,
                "duration": 0.11590909090909207,
                "tempo": 120.0
            },
            {
                "start_time": 20.075,
                "end_time": 20.188636363636363,
                "pitch": 79,
                "velocity": 64,
                "duration": 0.11363636363636331,
                "tempo": 120.0
            },
            {
                "start_time": 20.46818181818182,
                "end_time": 20.586363636363636,
                "pitch": 80,
                "velocity": 64,
                "duration": 0.11818181818181728,
                "tempo": 120.0
            },
            {
                "start_time": 21.138636363636362,
                "end_time": 21.254545454545454,
                "pitch": 87,
                "velocity": 64,
                "duration": 0.11590909090909207,
                "tempo": 120.0
            },
            {
                "start_time": 21.402272727272727,
                "end_time": 21.520454545454545,
                "pitch": 85,
                "velocity": 64,
                "duration": 0.11818181818181728,
                "tempo": 120.0
            },
            {
                "start_time": 21.670454545454543,
                "end_time": 21.786363636363635,
                "pitch": 83,
                "velocity": 64,
                "duration": 0.11590909090909207,
                "tempo": 120.0
            },
            {
                "start_time": 21.936363636363634,
                "end_time": 22.052272727272726,
                "pitch": 82,
                "velocity": 64,
                "duration": 0.11590909090909207,
                "tempo": 120.0
            },
            {
                "start_time": 22.206818181818182,
                "end_time": 22.327272727272724,
                "pitch": 80,
                "velocity": 64,
                "duration": 0.12045454545454248,
                "tempo": 120.0
            },
            {
                "start_time": 22.48181818181818,
                "end_time": 22.599999999999998,
                "pitch": 81,
                "velocity": 64,
                "duration": 0.11818181818181728,
                "tempo": 120.0
            },
            {
                "start_time": 22.89090909090909,
                "end_time": 23.00681818181818,
                "pitch": 82,
                "velocity": 64,
                "duration": 0.11590909090908852,
                "tempo": 120.0
            },
            {
                "start_time": 23.284090909090907,
                "end_time": 23.39772727272727,
                "pitch": 81,
                "velocity": 64,
                "duration": 0.11363636363636331,
                "tempo": 120.0
            },
            {
                "start_time": 23.677272727272726,
                "end_time": 23.795454545454543,
                "pitch": 82,
                "velocity": 64,
                "duration": 0.11818181818181728,
                "tempo": 120.0
            },
            {
                "start_time": 24.086363636363636,
                "end_time": 24.202272727272724,
                "pitch": 85,
                "velocity": 64,
                "duration": 0.11590909090908852,
                "tempo": 120.0
            },
            {
                "start_time": 24.21818181818182,
                "end_time": 24.331818181818182,
                "pitch": 85,
                "velocity": 64,
                "duration": 0.11363636363636331,
                "tempo": 120.0
            },
            {
                "start_time": 24.347727272727273,
                "end_time": 24.46363636363636,
                "pitch": 85,
                "velocity": 64,
                "duration": 0.11590909090908852,
                "tempo": 120.0
            },
            {
                "start_time": 24.479545454545452,
                "end_time": 24.595454545454544,
                "pitch": 85,
                "velocity": 64,
                "duration": 0.11590909090909207,
                "tempo": 120.0
            },
            {
                "start_time": 24.611363636363635,
                "end_time": 24.729545454545452,
                "pitch": 85,
                "velocity": 64,
                "duration": 0.11818181818181728,
                "tempo": 120.0
            },
            {
                "start_time": 24.745454545454542,
                "end_time": 24.861363636363635,
                "pitch": 85,
                "velocity": 64,
                "duration": 0.11590909090909207,
                "tempo": 120.0
            },
            {
                "start_time": 24.879545454545454,
                "end_time": 24.995454545454542,
                "pitch": 89,
                "velocity": 64,
                "duration": 0.11590909090908852,
                "tempo": 120.0
            },
            {
                "start_time": 25.14772727272727,
                "end_time": 25.26590909090909,
                "pitch": 92,
                "velocity": 64,
                "duration": 0.11818181818182083,
                "tempo": 120.0
            },
            {
                "start_time": 25.693181818181817,
                "end_time": 25.811363636363634,
                "pitch": 79,
                "velocity": 64,
                "duration": 0.11818181818181728,
                "tempo": 120.0
            },
            {
                "start_time": 26.104545454545452,
                "end_time": 26.218181818181815,
                "pitch": 80,
                "velocity": 64,
                "duration": 0.11363636363636331,
                "tempo": 120.0
            },
            {
                "start_time": 26.495454545454542,
                "end_time": 26.611363636363635,
                "pitch": 79,
                "velocity": 64,
                "duration": 0.11590909090909207,
                "tempo": 120.0
            },
            {
                "start_time": 26.888636363636362,
                "end_time": 27.00681818181818,
                "pitch": 80,
                "velocity": 64,
                "duration": 0.11818181818181728,
                "tempo": 120.0
            },
            {
                "start_time": 27.55909090909091,
                "end_time": 27.674999999999997,
                "pitch": 79,
                "velocity": 64,
                "duration": 0.11590909090908852,
                "tempo": 120.0
            },
            {
                "start_time": 27.956818181818182,
                "end_time": 28.075,
                "pitch": 80,
                "velocity": 64,
                "duration": 0.11818181818181728,
                "tempo": 120.0
            },
            {
                "start_time": 28.09090909090909,
                "end_time": 28.209090909090907,
                "pitch": 83,
                "velocity": 64,
                "duration": 0.11818181818181728,
                "tempo": 120.0
            },
            {
                "start_time": 28.35909090909091,
                "end_time": 28.477272727272727,
                "pitch": 83,
                "velocity": 64,
                "duration": 0.11818181818181728,
                "tempo": 120.0
            },
            {
                "start_time": 28.493181818181817,
                "end_time": 28.613636363636363,
                "pitch": 80,
                "velocity": 64,
                "duration": 0.12045454545454604,
                "tempo": 120.0
            },
            {
                "start_time": 28.768181818181816,
                "end_time": 28.886363636363637,
                "pitch": 79,
                "velocity": 64,
                "duration": 0.11818181818182083,
                "tempo": 120.0
            },
            {
                "start_time": 28.904545454545453,
                "end_time": 29.025,
                "pitch": 81,
                "velocity": 64,
                "duration": 0.12045454545454604,
                "tempo": 120.0
            },
            {
                "start_time": 29.315909090909088,
                "end_time": 29.429545454545455,
                "pitch": 82,
                "velocity": 64,
                "duration": 0.11363636363636687,
                "tempo": 120.0
            },
            {
                "start_time": 29.706818181818182,
                "end_time": 29.82272727272727,
                "pitch": 81,
                "velocity": 64,
                "duration": 0.11590909090908852,
                "tempo": 120.0
            },
            {
                "start_time": 30.099999999999998,
                "end_time": 30.220454545454544,
                "pitch": 82,
                "velocity": 64,
                "duration": 0.12045454545454604,
                "tempo": 120.0
            },
            {
                "start_time": 30.77272727272727,
                "end_time": 30.886363636363633,
                "pitch": 81,
                "velocity": 64,
                "duration": 0.11363636363636331,
                "tempo": 120.0
            },
            {
                "start_time": 31.170454545454543,
                "end_time": 31.28863636363636,
                "pitch": 82,
                "velocity": 64,
                "duration": 0.11818181818181728,
                "tempo": 120.0
            },
            {
                "start_time": 31.304545454545455,
                "end_time": 31.422727272727272,
                "pitch": 85,
                "velocity": 64,
                "duration": 0.11818181818181728,
                "tempo": 120.0
            },
            {
                "start_time": 31.57272727272727,
                "end_time": 31.688636363636363,
                "pitch": 85,
                "velocity": 64,
                "duration": 0.11590909090909207,
                "tempo": 120.0
            },
            {
                "start_time": 31.704545454545453,
                "end_time": 31.825,
                "pitch": 82,
                "velocity": 64,
                "duration": 0.12045454545454604,
                "tempo": 120.0
            },
            {
                "start_time": 31.979545454545452,
                "end_time": 32.1,
                "pitch": 81,
                "velocity": 64,
                "duration": 0.12045454545454959,
                "tempo": 120.0
            },
            {
                "start_time": 32.11590909090909,
                "end_time": 32.236363636363635,
                "pitch": 79,
                "velocity": 64,
                "duration": 0.12045454545454248,
                "tempo": 120.0
            },
            {
                "start_time": 32.527272727272724,
                "end_time": 32.64090909090909,
                "pitch": 80,
                "velocity": 64,
                "duration": 0.11363636363636687,
                "tempo": 120.0
            },
            {
                "start_time": 32.92045454545455,
                "end_time": 33.03409090909091,
                "pitch": 79,
                "velocity": 64,
                "duration": 0.11363636363635976,
                "tempo": 120.0
            },
            {
                "start_time": 33.31136363636364,
                "end_time": 33.43181818181818,
                "pitch": 80,
                "velocity": 64,
                "duration": 0.12045454545454248,
                "tempo": 120.0
            },
            {
                "start_time": 33.98409090909091,
                "end_time": 34.09772727272727,
                "pitch": 87,
                "velocity": 64,
                "duration": 0.11363636363635976,
                "tempo": 120.0
            },
            {
                "start_time": 34.24772727272727,
                "end_time": 34.36363636363636,
                "pitch": 85,
                "velocity": 64,
                "duration": 0.11590909090909207,
                "tempo": 120.0
            },
            {
                "start_time": 34.513636363636365,
                "end_time": 34.63181818181818,
                "pitch": 83,
                "velocity": 64,
                "duration": 0.11818181818181728,
                "tempo": 120.0
            },
            {
                "start_time": 34.78409090909091,
                "end_time": 34.9,
                "pitch": 82,
                "velocity": 64,
                "duration": 0.11590909090909207,
                "tempo": 120.0
            },
            {
                "start_time": 35.054545454545455,
                "end_time": 35.175,
                "pitch": 80,
                "velocity": 64,
                "duration": 0.12045454545454248,
                "tempo": 120.0
            },
            {
                "start_time": 35.32727272727273,
                "end_time": 35.44772727272727,
                "pitch": 78,
                "velocity": 64,
                "duration": 0.12045454545454248,
                "tempo": 120.0
            },
            {
                "start_time": 35.73863636363636,
                "end_time": 35.85454545454545,
                "pitch": 78,
                "velocity": 64,
                "duration": 0.11590909090909207,
                "tempo": 120.0
            },
            {
                "start_time": 36.0,
                "end_time": 36.018181818181816,
                "pitch": 79,
                "velocity": 64,
                "duration": 0.018181818181815856,
                "tempo": 120.0
            },
            {
                "start_time": 36.03409090909091,
                "end_time": 36.11590909090909,
                "pitch": 80,
                "velocity": 64,
                "duration": 0.08181818181818556,
                "tempo": 120.0
            },
            {
                "start_time": 36.13181818181818,
                "end_time": 36.377272727272725,
                "pitch": 81,
                "velocity": 64,
                "duration": 0.24545454545454248,
                "tempo": 120.0
            },
            {
                "start_time": 36.393181818181816,
                "end_time": 36.50681818181818,
                "pitch": 80,
                "velocity": 64,
                "duration": 0.11363636363636687,
                "tempo": 120.0
            },
            {
                "start_time": 36.793181818181814,
                "end_time": 36.90909090909091,
                "pitch": 78,
                "velocity": 64,
                "duration": 0.11590909090909207,
                "tempo": 120.0
            },
            {
                "start_time": 38.527272727272724,
                "end_time": 38.64772727272727,
                "pitch": 73,
                "velocity": 64,
                "duration": 0.12045454545454959,
                "tempo": 120.0
            },
            {
                "start_time": 39.20227272727273,
                "end_time": 39.31363636363636,
                "pitch": 73,
                "velocity": 64,
                "duration": 0.11136363636363455,
                "tempo": 120.0
            },
            {
                "start_time": 39.32954545454545,
                "end_time": 39.44772727272727,
                "pitch": 75,
                "velocity": 64,
                "duration": 0.11818181818181728,
                "tempo": 120.0
            },
            {
                "start_time": 39.59772727272727,
                "end_time": 39.71363636363636,
                "pitch": 78,
                "velocity": 64,
                "duration": 0.11590909090909207,
                "tempo": 120.0
            },
            {
                "start_time": 39.99772727272727,
                "end_time": 40.11363636363636,
                "pitch": 78,
                "velocity": 64,
                "duration": 0.11590909090909207,
                "tempo": 120.0
            },
            {
                "start_time": 41.73181818181818,
                "end_time": 41.85454545454545,
                "pitch": 73,
                "velocity": 64,
                "duration": 0.1227272727272748,
                "tempo": 120.0
            },
            {
                "start_time": 42.15454545454545,
                "end_time": 42.26590909090909,
                "pitch": 73,
                "velocity": 64,
                "duration": 0.11136363636364166,
                "tempo": 120.0
            },
            {
                "start_time": 42.40909090909091,
                "end_time": 42.52045454545454,
                "pitch": 73,
                "velocity": 64,
                "duration": 0.11136363636363455,
                "tempo": 120.0
            },
            {
                "start_time": 42.53636363636363,
                "end_time": 42.65454545454545,
                "pitch": 75,
                "velocity": 64,
                "duration": 0.11818181818181728,
                "tempo": 120.0
            },
            {
                "start_time": 42.804545454545455,
                "end_time": 42.92272727272727,
                "pitch": 78,
                "velocity": 64,
                "duration": 0.11818181818181728,
                "tempo": 120.0
            },
            {
                "start_time": 43.21363636363636,
                "end_time": 43.33181818181818,
                "pitch": 78,
                "velocity": 64,
                "duration": 0.11818181818181728,
                "tempo": 120.0
            },
            {
                "start_time": 43.62272727272727,
                "end_time": 43.675,
                "pitch": 80,
                "velocity": 64,
                "duration": 0.05227272727272947,
                "tempo": 120.0
            },
            {
                "start_time": 43.69318181818181,
                "end_time": 43.74318181818182,
                "pitch": 81,
                "velocity": 64,
                "duration": 0.05000000000000426,
                "tempo": 120.0
            },
            {
                "start_time": 43.76136363636363,
                "end_time": 43.875,
                "pitch": 80,
                "velocity": 64,
                "duration": 0.11363636363636687,
                "tempo": 120.0
            },
            {
                "start_time": 44.02272727272727,
                "end_time": 44.13636363636363,
                "pitch": 78,
                "velocity": 64,
                "duration": 0.11363636363635976,
                "tempo": 120.0
            },
            {
                "start_time": 44.95681818181818,
                "end_time": 45.074999999999996,
                "pitch": 73,
                "velocity": 64,
                "duration": 0.11818181818181728,
                "tempo": 120.0
            },
            {
                "start_time": 45.62045454545454,
                "end_time": 45.73181818181818,
                "pitch": 73,
                "velocity": 64,
                "duration": 0.11136363636363455,
                "tempo": 120.0
            },
            {
                "start_time": 45.75,
                "end_time": 45.86590909090909,
                "pitch": 75,
                "velocity": 64,
                "duration": 0.11590909090909207,
                "tempo": 120.0
            },
            {
                "start_time": 46.01590909090909,
                "end_time": 46.13181818181818,
                "pitch": 78,
                "velocity": 64,
                "duration": 0.11590909090909207,
                "tempo": 120.0
            },
            {
                "start_time": 46.42272727272727,
                "end_time": 46.543181818181814,
                "pitch": 78,
                "velocity": 64,
                "duration": 0.12045454545454248,
                "tempo": 120.0
            },
            {
                "start_time": 48.152272727272724,
                "end_time": 48.275,
                "pitch": 73,
                "velocity": 64,
                "duration": 0.1227272727272748,
                "tempo": 120.0
            },
            {
                "start_time": 48.57272727272727,
                "end_time": 48.684090909090905,
                "pitch": 73,
                "velocity": 64,
                "duration": 0.11136363636363455,
                "tempo": 120.0
            },
            {
                "start_time": 48.82727272727273,
                "end_time": 48.93863636363636,
                "pitch": 73,
                "velocity": 64,
                "duration": 0.11136363636363455,
                "tempo": 120.0
            },
            {
                "start_time": 48.95454545454545,
                "end_time": 49.07272727272727,
                "pitch": 75,
                "velocity": 64,
                "duration": 0.11818181818181728,
                "tempo": 120.0
            },
            {
                "start_time": 49.22272727272727,
                "end_time": 49.33863636363636,
                "pitch": 78,
                "velocity": 64,
                "duration": 0.11590909090909207,
                "tempo": 120.0
            },
            {
                "start_time": 49.62272727272727,
                "end_time": 49.73863636363636,
                "pitch": 78,
                "velocity": 64,
                "duration": 0.11590909090909207,
                "tempo": 120.0
            },
            {
                "start_time": 50.03636363636363,
                "end_time": 50.08863636363636,
                "pitch": 80,
                "velocity": 64,
                "duration": 0.05227272727272947,
                "tempo": 120.0
            },
            {
                "start_time": 50.10681818181818,
                "end_time": 50.22727272727273,
                "pitch": 81,
                "velocity": 64,
                "duration": 0.12045454545454959,
                "tempo": 120.0
            },
            {
                "start_time": 50.309090909090905,
                "end_time": 50.42272727272727,
                "pitch": 80,
                "velocity": 64,
                "duration": 0.11363636363636687,
                "tempo": 120.0
            },
            {
                "start_time": 50.570454545454545,
                "end_time": 50.684090909090905,
                "pitch": 78,
                "velocity": 64,
                "duration": 0.11363636363635976,
                "tempo": 120.0
            },
            {
                "start_time": 51.37272727272727,
                "end_time": 51.49318181818182,
                "pitch": 79,
                "velocity": 64,
                "duration": 0.12045454545454959,
                "tempo": 120.0
            },
            {
                "start_time": 51.78409090909091,
                "end_time": 51.89772727272727,
                "pitch": 80,
                "velocity": 64,
                "duration": 0.11363636363636687,
                "tempo": 120.0
            },
            {
                "start_time": 52.175,
                "end_time": 52.29090909090909,
                "pitch": 79,
                "velocity": 64,
                "duration": 0.11590909090909207,
                "tempo": 120.0
            },
            {
                "start_time": 52.56818181818181,
                "end_time": 52.68863636363636,
                "pitch": 80,
                "velocity": 64,
                "duration": 0.12045454545454959,
                "tempo": 120.0
            },
            {
                "start_time": 53.240909090909085,
                "end_time": 53.35454545454545,
                "pitch": 79,
                "velocity": 64,
                "duration": 0.11363636363636687,
                "tempo": 120.0
            },
            {
                "start_time": 53.63636363636363,
                "end_time": 53.75454545454545,
                "pitch": 80,
                "velocity": 64,
                "duration": 0.11818181818181728,
                "tempo": 120.0
            },
            {
                "start_time": 53.77045454545454,
                "end_time": 53.88636363636363,
                "pitch": 83,
                "velocity": 64,
                "duration": 0.11590909090909207,
                "tempo": 120.0
            },
            {
                "start_time": 54.03636363636363,
                "end_time": 54.15454545454545,
                "pitch": 83,
                "velocity": 64,
                "duration": 0.11818181818181728,
                "tempo": 120.0
            },
            {
                "start_time": 54.17045454545454,
                "end_time": 54.29090909090909,
                "pitch": 80,
                "velocity": 64,
                "duration": 0.12045454545454959,
                "tempo": 120.0
            },
            {
                "start_time": 54.445454545454545,
                "end_time": 54.56363636363636,
                "pitch": 79,
                "velocity": 64,
                "duration": 0.11818181818181728,
                "tempo": 120.0
            },
            {
                "start_time": 54.58181818181818,
                "end_time": 54.69772727272727,
                "pitch": 81,
                "velocity": 64,
                "duration": 0.11590909090909207,
                "tempo": 120.0
            },
            {
                "start_time": 54.98181818181818,
                "end_time": 55.09772727272727,
                "pitch": 82,
                "velocity": 64,
                "duration": 0.11590909090909207,
                "tempo": 120.0
            },
            {
                "start_time": 55.381818181818176,
                "end_time": 55.49545454545454,
                "pitch": 81,
                "velocity": 64,
                "duration": 0.11363636363636687,
                "tempo": 120.0
            },
            {
                "start_time": 55.77272727272727,
                "end_time": 55.893181818181816,
                "pitch": 82,
                "velocity": 64,
                "duration": 0.12045454545454248,
                "tempo": 120.0
            },
            {
                "start_time": 56.445454545454545,
                "end_time": 56.559090909090905,
                "pitch": 81,
                "velocity": 64,
                "duration": 0.11363636363635976,
                "tempo": 120.0
            },
            {
                "start_time": 56.845454545454544,
                "end_time": 56.961363636363636,
                "pitch": 82,
                "velocity": 64,
                "duration": 0.11590909090909207,
                "tempo": 120.0
            },
            {
                "start_time": 56.97954545454545,
                "end_time": 57.095454545454544,
                "pitch": 85,
                "velocity": 64,
                "duration": 0.11590909090909207,
                "tempo": 120.0
            },
            {
                "start_time": 57.24545454545454,
                "end_time": 57.36363636363636,
                "pitch": 85,
                "velocity": 64,
                "duration": 0.11818181818181728,
                "tempo": 120.0
            },
            {
                "start_time": 57.37954545454545,
                "end_time": 57.5,
                "pitch": 82,
                "velocity": 64,
                "duration": 0.12045454545454959,
                "tempo": 120.0
            },
            {
                "start_time": 57.652272727272724,
                "end_time": 57.77272727272727,
                "pitch": 81,
                "velocity": 64,
                "duration": 0.12045454545454959,
                "tempo": 120.0
            },
            {
                "start_time": 57.79090909090909,
                "end_time": 57.90909090909091,
                "pitch": 79,
                "velocity": 64,
                "duration": 0.11818181818181728,
                "tempo": 120.0
            },
            {
                "start_time": 58.199999999999996,
                "end_time": 58.31590909090909,
                "pitch": 80,
                "velocity": 64,
                "duration": 0.11590909090909207,
                "tempo": 120.0
            },
            {
                "start_time": 58.59318181818182,
                "end_time": 58.70681818181818,
                "pitch": 79,
                "velocity": 64,
                "duration": 0.11363636363635976,
                "tempo": 120.0
            },
            {
                "start_time": 58.986363636363635,
                "end_time": 59.10454545454545,
                "pitch": 80,
                "velocity": 64,
                "duration": 0.11818181818181728,
                "tempo": 120.0
            },
            {
                "start_time": 59.65681818181818,
                "end_time": 59.77272727272727,
                "pitch": 87,
                "velocity": 64,
                "duration": 0.11590909090909207,
                "tempo": 120.0
            },
            {
                "start_time": 59.92272727272727,
                "end_time": 60.038636363636364,
                "pitch": 85,
                "velocity": 64,
                "duration": 0.11590909090909207,
                "tempo": 120.0
            },
            {
                "start_time": 60.18863636363636,
                "end_time": 60.304545454545455,
                "pitch": 83,
                "velocity": 64,
                "duration": 0.11590909090909207,
                "tempo": 120.0
            },
            {
                "start_time": 60.45454545454545,
                "end_time": 60.57272727272727,
                "pitch": 82,
                "velocity": 64,
                "duration": 0.11818181818181728,
                "tempo": 120.0
            },
            {
                "start_time": 60.724999999999994,
                "end_time": 60.845454545454544,
                "pitch": 80,
                "velocity": 64,
                "duration": 0.12045454545454959,
                "tempo": 120.0
            },
            {
                "start_time": 61.0,
                "end_time": 61.11818181818182,
                "pitch": 81,
                "velocity": 64,
                "duration": 0.11818181818181728,
                "tempo": 120.0
            },
            {
                "start_time": 61.40909090909091,
                "end_time": 61.525,
                "pitch": 82,
                "velocity": 64,
                "duration": 0.11590909090909207,
                "tempo": 120.0
            },
            {
                "start_time": 61.80227272727272,
                "end_time": 61.91590909090909,
                "pitch": 81,
                "velocity": 64,
                "duration": 0.11363636363636687,
                "tempo": 120.0
            },
            {
                "start_time": 62.195454545454545,
                "end_time": 62.31363636363636,
                "pitch": 82,
                "velocity": 64,
                "duration": 0.11818181818181728,
                "tempo": 120.0
            },
            {
                "start_time": 62.60454545454545,
                "end_time": 62.720454545454544,
                "pitch": 85,
                "velocity": 64,
                "duration": 0.11590909090909207,
                "tempo": 120.0
            },
            {
                "start_time": 62.736363636363635,
                "end_time": 62.849999999999994,
                "pitch": 85,
                "velocity": 64,
                "duration": 0.11363636363635976,
                "tempo": 120.0
            },
            {
                "start_time": 62.865909090909085,
                "end_time": 62.98181818181818,
                "pitch": 85,
                "velocity": 64,
                "duration": 0.11590909090909207,
                "tempo": 120.0
            },
            {
                "start_time": 62.99772727272727,
                "end_time": 63.11363636363636,
                "pitch": 85,
                "velocity": 64,
                "duration": 0.11590909090909207,
                "tempo": 120.0
            },
            {
                "start_time": 63.131818181818176,
                "end_time": 63.24772727272727,
                "pitch": 85,
                "velocity": 64,
                "duration": 0.11590909090909207,
                "tempo": 120.0
            },
            {
                "start_time": 63.26363636363636,
                "end_time": 63.381818181818176,
                "pitch": 85,
                "velocity": 64,
                "duration": 0.11818181818181728,
                "tempo": 120.0
            },
            {
                "start_time": 63.397727272727266,
                "end_time": 63.51363636363636,
                "pitch": 89,
                "velocity": 64,
                "duration": 0.11590909090909207,
                "tempo": 120.0
            },
            {
                "start_time": 63.663636363636364,
                "end_time": 63.78181818181818,
                "pitch": 92,
                "velocity": 64,
                "duration": 0.11818181818181728,
                "tempo": 120.0
            },
            {
                "start_time": 64.2090909090909,
                "end_time": 64.32727272727273,
                "pitch": 79,
                "velocity": 64,
                "duration": 0.11818181818182438,
                "tempo": 120.0
            },
            {
                "start_time": 64.61818181818181,
                "end_time": 64.73409090909091,
                "pitch": 80,
                "velocity": 64,
                "duration": 0.11590909090909918,
                "tempo": 120.0
            },
            {
                "start_time": 65.01136363636364,
                "end_time": 65.125,
                "pitch": 79,
                "velocity": 64,
                "duration": 0.11363636363635976,
                "tempo": 120.0
            },
            {
                "start_time": 65.40454545454546,
                "end_time": 65.52272727272727,
                "pitch": 80,
                "velocity": 64,
                "duration": 0.11818181818181017,
                "tempo": 120.0
            },
            {
                "start_time": 66.075,
                "end_time": 66.19090909090909,
                "pitch": 79,
                "velocity": 64,
                "duration": 0.11590909090908497,
                "tempo": 120.0
            },
            {
                "start_time": 66.475,
                "end_time": 66.59318181818182,
                "pitch": 80,
                "velocity": 64,
                "duration": 0.11818181818182438,
                "tempo": 120.0
            },
            {
                "start_time": 66.60909090909091,
                "end_time": 66.725,
                "pitch": 83,
                "velocity": 64,
                "duration": 0.11590909090908497,
                "tempo": 120.0
            },
            {
                "start_time": 66.875,
                "end_time": 66.99318181818181,
                "pitch": 83,
                "velocity": 64,
                "duration": 0.11818181818181017,
                "tempo": 120.0
            },
            {
                "start_time": 67.0090909090909,
                "end_time": 67.12954545454545,
                "pitch": 80,
                "velocity": 64,
                "duration": 0.12045454545454959,
                "tempo": 120.0
            },
            {
                "start_time": 67.28181818181818,
                "end_time": 67.40227272727273,
                "pitch": 79,
                "velocity": 64,
                "duration": 0.12045454545454959,
                "tempo": 120.0
            },
            {
                "start_time": 67.42045454545455,
                "end_time": 67.53863636363636,
                "pitch": 81,
                "velocity": 64,
                "duration": 0.11818181818181017,
                "tempo": 120.0
            },
            {
                "start_time": 67.83181818181818,
                "end_time": 67.94545454545454,
                "pitch": 82,
                "velocity": 64,
                "duration": 0.11363636363635976,
                "tempo": 120.0
            },
            {
                "start_time": 68.22272727272727,
                "end_time": 68.33863636363635,
                "pitch": 81,
                "velocity": 64,
                "duration": 0.11590909090908497,
                "tempo": 120.0
            },
            {
                "start_time": 68.61590909090908,
                "end_time": 68.73409090909091,
                "pitch": 82,
                "velocity": 64,
                "duration": 0.11818181818182438,
                "tempo": 120.0
            },
            {
                "start_time": 69.28636363636363,
                "end_time": 69.40227272727273,
                "pitch": 81,
                "velocity": 64,
                "duration": 0.11590909090909918,
                "tempo": 120.0
            },
            {
                "start_time": 69.68636363636364,
                "end_time": 69.80454545454545,
                "pitch": 82,
                "velocity": 64,
                "duration": 0.11818181818181017,
                "tempo": 120.0
            },
            {
                "start_time": 69.82045454545454,
                "end_time": 69.93863636363636,
                "pitch": 85,
                "velocity": 64,
                "duration": 0.11818181818182438,
                "tempo": 120.0
            },
            {
                "start_time": 70.08863636363635,
                "end_time": 70.20454545454545,
                "pitch": 85,
                "velocity": 64,
                "duration": 0.11590909090909918,
                "tempo": 120.0
            },
            {
                "start_time": 70.22045454545454,
                "end_time": 70.3409090909091,
                "pitch": 82,
                "velocity": 64,
                "duration": 0.12045454545454959,
                "tempo": 120.0
            },
            {
                "start_time": 70.49545454545454,
                "end_time": 70.61363636363636,
                "pitch": 81,
                "velocity": 64,
                "duration": 0.11818181818182438,
                "tempo": 120.0
            },
            {
                "start_time": 70.63181818181818,
                "end_time": 70.75227272727273,
                "pitch": 79,
                "velocity": 64,
                "duration": 0.12045454545454959,
                "tempo": 120.0
            },
            {
                "start_time": 71.04318181818182,
                "end_time": 71.15681818181818,
                "pitch": 80,
                "velocity": 64,
                "duration": 0.11363636363635976,
                "tempo": 120.0
            },
            {
                "start_time": 71.43409090909091,
                "end_time": 71.55,
                "pitch": 79,
                "velocity": 64,
                "duration": 0.11590909090908497,
                "tempo": 120.0
            },
            {
                "start_time": 71.82727272727273,
                "end_time": 71.94772727272726,
                "pitch": 80,
                "velocity": 64,
                "duration": 0.12045454545453538,
                "tempo": 120.0
            },
            {
                "start_time": 72.5,
                "end_time": 72.61363636363636,
                "pitch": 87,
                "velocity": 64,
                "duration": 0.11363636363635976,
                "tempo": 120.0
            },
            {
                "start_time": 72.76363636363637,
                "end_time": 72.87954545454545,
                "pitch": 85,
                "velocity": 64,
                "duration": 0.11590909090908497,
                "tempo": 120.0
            },
            {
                "start_time": 73.02954545454546,
                "end_time": 73.14772727272727,
                "pitch": 83,
                "velocity": 64,
                "duration": 0.11818181818181017,
                "tempo": 120.0
            },
            {
                "start_time": 73.29772727272727,
                "end_time": 73.41590909090908,
                "pitch": 82,
                "velocity": 64,
                "duration": 0.11818181818181017,
                "tempo": 120.0
            },
            {
                "start_time": 73.57045454545454,
                "end_time": 73.68863636363636,
                "pitch": 80,
                "velocity": 64,
                "duration": 0.11818181818182438,
                "tempo": 120.0
            },
            {
                "start_time": 73.84318181818182,
                "end_time": 73.96363636363635,
                "pitch": 78,
                "velocity": 64,
                "duration": 0.12045454545453538,
                "tempo": 120.0
            },
            {
                "start_time": 74.25454545454545,
                "end_time": 74.36818181818181,
                "pitch": 78,
                "velocity": 64,
                "duration": 0.11363636363635976,
                "tempo": 120.0
            },
            {
                "start_time": 74.51590909090909,
                "end_time": 74.56590909090909,
                "pitch": 79,
                "velocity": 64,
                "duration": 0.04999999999999716,
                "tempo": 120.0
            },
            {
                "start_time": 74.58181818181818,
                "end_time": 74.62954545454545,
                "pitch": 80,
                "velocity": 64,
                "duration": 0.04772727272727195,
                "tempo": 120.0
            },
            {
                "start_time": 74.64772727272727,
                "end_time": 74.76136363636363,
                "pitch": 81,
                "velocity": 64,
                "duration": 0.11363636363635976,
                "tempo": 120.0
            },
            {
                "start_time": 74.9090909090909,
                "end_time": 75.02272727272727,
                "pitch": 80,
                "velocity": 64,
                "duration": 0.11363636363635976,
                "tempo": 120.0
            },
            {
                "start_time": 75.30681818181817,
                "end_time": 75.425,
                "pitch": 78,
                "velocity": 64,
                "duration": 0.11818181818182438,
                "tempo": 120.0
            },
            {
                "start_time": 76.25454545454545,
                "end_time": 76.37045454545454,
                "pitch": 90,
                "velocity": 64,
                "duration": 0.11590909090908497,
                "tempo": 120.0
            },
            {
                "start_time": 77.06818181818181,
                "end_time": 77.08636363636363,
                "pitch": 73,
                "velocity": 64,
                "duration": 0.018181818181815856,
                "tempo": 120.0
            }
        ],
        "Acoustic Bass": [
            {
                "start_time": 0.3840909090909091,
                "end_time": 0.6409090909090909,
                "pitch": 46,
                "velocity": 32,
                "duration": 0.2568181818181818,
                "tempo": 120.0
            },
            {
                "start_time": 0.6568181818181817,
                "end_time": 0.7772727272727272,
                "pitch": 49,
                "velocity": 32,
                "duration": 0.12045454545454548,
                "tempo": 120.0
            },
            {
                "start_time": 0.7931818181818181,
                "end_time": 1.1772727272727272,
                "pitch": 47,
                "velocity": 32,
                "duration": 0.38409090909090915,
                "tempo": 120.0
            },
            {
                "start_time": 1.1931818181818181,
                "end_time": 1.4431818181818181,
                "pitch": 51,
                "velocity": 32,
                "duration": 0.25,
                "tempo": 120.0
            },
            {
                "start_time": 1.4613636363636362,
                "end_time": 1.5772727272727272,
                "pitch": 54,
                "velocity": 32,
                "duration": 0.11590909090909096,
                "tempo": 120.0
            },
            {
                "start_time": 1.8636363636363635,
                "end_time": 1.9795454545454545,
                "pitch": 49,
                "velocity": 32,
                "duration": 0.11590909090909096,
                "tempo": 120.0
            },
            {
                "start_time": 1.9977272727272726,
                "end_time": 2.2477272727272726,
                "pitch": 53,
                "velocity": 32,
                "duration": 0.25,
                "tempo": 120.0
            },
            {
                "start_time": 2.2636363636363637,
                "end_time": 2.3795454545454544,
                "pitch": 56,
                "velocity": 32,
                "duration": 0.11590909090909074,
                "tempo": 120.0
            },
            {
                "start_time": 2.3977272727272725,
                "end_time": 2.6477272727272725,
                "pitch": 54,
                "velocity": 32,
                "duration": 0.25,
                "tempo": 120.0
            },
            {
                "start_time": 2.6636363636363636,
                "end_time": 2.7795454545454543,
                "pitch": 54,
                "velocity": 32,
                "duration": 0.11590909090909074,
                "tempo": 120.0
            },
            {
                "start_time": 2.7977272727272724,
                "end_time": 3.0545454545454542,
                "pitch": 58,
                "velocity": 32,
                "duration": 0.25681818181818183,
                "tempo": 120.0
            },
            {
                "start_time": 3.0704545454545453,
                "end_time": 3.190909090909091,
                "pitch": 61,
                "velocity": 32,
                "duration": 0.12045454545454559,
                "tempo": 120.0
            },
            {
                "start_time": 3.2068181818181816,
                "end_time": 3.590909090909091,
                "pitch": 42,
                "velocity": 32,
                "duration": 0.38409090909090926,
                "tempo": 120.0
            },
            {
                "start_time": 3.6068181818181815,
                "end_time": 3.852272727272727,
                "pitch": 46,
                "velocity": 32,
                "duration": 0.2454545454545456,
                "tempo": 120.0
            },
            {
                "start_time": 3.868181818181818,
                "end_time": 3.984090909090909,
                "pitch": 49,
                "velocity": 32,
                "duration": 0.11590909090909074,
                "tempo": 120.0
            },
            {
                "start_time": 4.0,
                "end_time": 4.384090909090909,
                "pitch": 47,
                "velocity": 32,
                "duration": 0.3840909090909088,
                "tempo": 120.0
            },
            {
                "start_time": 4.3999999999999995,
                "end_time": 4.656818181818181,
                "pitch": 51,
                "velocity": 32,
                "duration": 0.25681818181818183,
                "tempo": 120.0
            },
            {
                "start_time": 4.675,
                "end_time": 4.793181818181818,
                "pitch": 54,
                "velocity": 32,
                "duration": 0.11818181818181817,
                "tempo": 120.0
            },
            {
                "start_time": 4.8113636363636365,
                "end_time": 5.0636363636363635,
                "pitch": 49,
                "velocity": 32,
                "duration": 0.252272727272727,
                "tempo": 120.0
            },
            {
                "start_time": 5.079545454545454,
                "end_time": 5.197727272727272,
                "pitch": 53,
                "velocity": 32,
                "duration": 0.11818181818181817,
                "tempo": 120.0
            },
            {
                "start_time": 5.213636363636363,
                "end_time": 5.465909090909091,
                "pitch": 56,
                "velocity": 32,
                "duration": 0.25227272727272787,
                "tempo": 120.0
            },
            {
                "start_time": 5.4818181818181815,
                "end_time": 5.861363636363636,
                "pitch": 54,
                "velocity": 32,
                "duration": 0.37954545454545485,
                "tempo": 120.0
            },
            {
                "start_time": 5.877272727272727,
                "end_time": 5.993181818181818,
                "pitch": 57,
                "velocity": 32,
                "duration": 0.11590909090909118,
                "tempo": 120.0
            },
            {
                "start_time": 6.009090909090909,
                "end_time": 6.265909090909091,
                "pitch": 56,
                "velocity": 32,
                "duration": 0.25681818181818183,
                "tempo": 120.0
            },
            {
                "start_time": 6.281818181818181,
                "end_time": 6.402272727272727,
                "pitch": 54,
                "velocity": 32,
                "duration": 0.12045454545454604,
                "tempo": 120.0
            },
            {
                "start_time": 6.418181818181818,
                "end_time": 6.802272727272727,
                "pitch": 42,
                "velocity": 32,
                "duration": 0.3840909090909088,
                "tempo": 120.0
            },
            {
                "start_time": 6.8181818181818175,
                "end_time": 7.0636363636363635,
                "pitch": 46,
                "velocity": 32,
                "duration": 0.24545454545454604,
                "tempo": 120.0
            },
            {
                "start_time": 7.079545454545454,
                "end_time": 7.195454545454545,
                "pitch": 49,
                "velocity": 32,
                "duration": 0.11590909090909118,
                "tempo": 120.0
            },
            {
                "start_time": 7.211363636363636,
                "end_time": 7.595454545454545,
                "pitch": 47,
                "velocity": 32,
                "duration": 0.3840909090909088,
                "tempo": 120.0
            },
            {
                "start_time": 7.611363636363636,
                "end_time": 7.863636363636363,
                "pitch": 51,
                "velocity": 32,
                "duration": 0.252272727272727,
                "tempo": 120.0
            },
            {
                "start_time": 7.879545454545454,
                "end_time": 7.997727272727272,
                "pitch": 54,
                "velocity": 32,
                "duration": 0.11818181818181817,
                "tempo": 120.0
            },
            {
                "start_time": 8.281818181818181,
                "end_time": 8.4,
                "pitch": 49,
                "velocity": 32,
                "duration": 0.11818181818181905,
                "tempo": 120.0
            },
            {
                "start_time": 8.415909090909091,
                "end_time": 8.668181818181818,
                "pitch": 53,
                "velocity": 32,
                "duration": 0.252272727272727,
                "tempo": 120.0
            },
            {
                "start_time": 8.686363636363636,
                "end_time": 8.802272727272728,
                "pitch": 56,
                "velocity": 32,
                "duration": 0.11590909090909207,
                "tempo": 120.0
            },
            {
                "start_time": 8.820454545454545,
                "end_time": 9.070454545454545,
                "pitch": 54,
                "velocity": 32,
                "duration": 0.25,
                "tempo": 120.0
            },
            {
                "start_time": 9.086363636363636,
                "end_time": 9.202272727272726,
                "pitch": 54,
                "velocity": 32,
                "duration": 0.1159090909090903,
                "tempo": 120.0
            },
            {
                "start_time": 9.220454545454546,
                "end_time": 9.470454545454546,
                "pitch": 58,
                "velocity": 32,
                "duration": 0.25,
                "tempo": 120.0
            },
            {
                "start_time": 9.488636363636363,
                "end_time": 9.604545454545454,
                "pitch": 61,
                "velocity": 32,
                "duration": 0.1159090909090903,
                "tempo": 120.0
            },
            {
                "start_time": 9.622727272727273,
                "end_time": 10.01590909090909,
                "pitch": 42,
                "velocity": 32,
                "duration": 0.39318181818181763,
                "tempo": 120.0
            },
            {
                "start_time": 10.031818181818181,
                "end_time": 10.277272727272727,
                "pitch": 46,
                "velocity": 32,
                "duration": 0.24545454545454604,
                "tempo": 120.0
            },
            {
                "start_time": 10.293181818181818,
                "end_time": 10.409090909090908,
                "pitch": 49,
                "velocity": 32,
                "duration": 0.1159090909090903,
                "tempo": 120.0
            },
            {
                "start_time": 10.424999999999999,
                "end_time": 10.811363636363636,
                "pitch": 47,
                "velocity": 32,
                "duration": 0.3863636363636367,
                "tempo": 120.0
            },
            {
                "start_time": 10.827272727272726,
                "end_time": 11.084090909090909,
                "pitch": 51,
                "velocity": 32,
                "duration": 0.2568181818181827,
                "tempo": 120.0
            },
            {
                "start_time": 11.102272727272727,
                "end_time": 11.220454545454546,
                "pitch": 54,
                "velocity": 32,
                "duration": 0.11818181818181905,
                "tempo": 120.0
            },
            {
                "start_time": 11.238636363636363,
                "end_time": 11.49090909090909,
                "pitch": 49,
                "velocity": 32,
                "duration": 0.252272727272727,
                "tempo": 120.0
            },
            {
                "start_time": 11.506818181818181,
                "end_time": 11.625,
                "pitch": 53,
                "velocity": 32,
                "duration": 0.11818181818181905,
                "tempo": 120.0
            },
            {
                "start_time": 11.64090909090909,
                "end_time": 11.893181818181818,
                "pitch": 56,
                "velocity": 32,
                "duration": 0.252272727272727,
                "tempo": 120.0
            },
            {
                "start_time": 11.909090909090908,
                "end_time": 12.288636363636362,
                "pitch": 54,
                "velocity": 32,
                "duration": 0.37954545454545396,
                "tempo": 120.0
            },
            {
                "start_time": 12.304545454545455,
                "end_time": 12.420454545454545,
                "pitch": 57,
                "velocity": 32,
                "duration": 0.1159090909090903,
                "tempo": 120.0
            },
            {
                "start_time": 12.436363636363636,
                "end_time": 12.693181818181818,
                "pitch": 56,
                "velocity": 32,
                "duration": 0.2568181818181827,
                "tempo": 120.0
            },
            {
                "start_time": 12.709090909090909,
                "end_time": 12.829545454545453,
                "pitch": 54,
                "velocity": 32,
                "duration": 0.12045454545454426,
                "tempo": 120.0
            },
            {
                "start_time": 12.847727272727273,
                "end_time": 13.229545454545454,
                "pitch": 49,
                "velocity": 32,
                "duration": 0.38181818181818095,
                "tempo": 120.0
            },
            {
                "start_time": 13.247727272727271,
                "end_time": 13.631818181818181,
                "pitch": 49,
                "velocity": 32,
                "duration": 0.3840909090909097,
                "tempo": 120.0
            },
            {
                "start_time": 13.649999999999999,
                "end_time": 13.895454545454545,
                "pitch": 53,
                "velocity": 32,
                "duration": 0.24545454545454604,
                "tempo": 120.0
            },
            {
                "start_time": 13.911363636363635,
                "end_time": 14.024999999999999,
                "pitch": 49,
                "velocity": 32,
                "duration": 0.11363636363636331,
                "tempo": 120.0
            },
            {
                "start_time": 14.31590909090909,
                "end_time": 14.436363636363636,
                "pitch": 56,
                "velocity": 32,
                "duration": 0.12045454545454604,
                "tempo": 120.0
            },
            {
                "start_time": 15.111363636363636,
                "end_time": 15.227272727272727,
                "pitch": 53,
                "velocity": 32,
                "duration": 0.1159090909090903,
                "tempo": 120.0
            },
            {
                "start_time": 15.245454545454544,
                "end_time": 15.629545454545454,
                "pitch": 54,
                "velocity": 32,
                "duration": 0.3840909090909097,
                "tempo": 120.0
            },
            {
                "start_time": 15.647727272727272,
                "end_time": 15.904545454545454,
                "pitch": 56,
                "velocity": 32,
                "duration": 0.2568181818181827,
                "tempo": 120.0
            },
            {
                "start_time": 15.920454545454545,
                "end_time": 16.04090909090909,
                "pitch": 54,
                "velocity": 32,
                "duration": 0.12045454545454426,
                "tempo": 120.0
            },
            {
                "start_time": 16.05909090909091,
                "end_time": 16.443181818181817,
                "pitch": 54,
                "velocity": 32,
                "duration": 0.38409090909090793,
                "tempo": 120.0
            },
            {
                "start_time": 16.461363636363636,
                "end_time": 16.847727272727273,
                "pitch": 54,
                "velocity": 32,
                "duration": 0.3863636363636367,
                "tempo": 120.0
            },
            {
                "start_time": 16.863636363636363,
                "end_time": 17.10909090909091,
                "pitch": 58,
                "velocity": 32,
                "duration": 0.24545454545454604,
                "tempo": 120.0
            },
            {
                "start_time": 17.125,
                "end_time": 17.238636363636363,
                "pitch": 54,
                "velocity": 32,
                "duration": 0.11363636363636331,
                "tempo": 120.0
            },
            {
                "start_time": 17.529545454545453,
                "end_time": 17.65,
                "pitch": 61,
                "velocity": 32,
                "duration": 0.12045454545454604,
                "tempo": 120.0
            },
            {
                "start_time": 18.327272727272728,
                "end_time": 18.443181818181817,
                "pitch": 62,
                "velocity": 32,
                "duration": 0.11590909090908852,
                "tempo": 120.0
            },
            {
                "start_time": 18.461363636363636,
                "end_time": 18.711363636363636,
                "pitch": 61,
                "velocity": 32,
                "duration": 0.25,
                "tempo": 120.0
            },
            {
                "start_time": 18.727272727272727,
                "end_time": 18.84318181818182,
                "pitch": 59,
                "velocity": 32,
                "duration": 0.11590909090909207,
                "tempo": 120.0
            },
            {
                "start_time": 18.861363636363635,
                "end_time": 19.118181818181817,
                "pitch": 58,
                "velocity": 32,
                "duration": 0.2568181818181827,
                "tempo": 120.0
            },
            {
                "start_time": 19.134090909090908,
                "end_time": 19.254545454545454,
                "pitch": 56,
                "velocity": 32,
                "duration": 0.12045454545454604,
                "tempo": 120.0
            },
            {
                "start_time": 19.272727272727273,
                "end_time": 19.66590909090909,
                "pitch": 49,
                "velocity": 32,
                "duration": 0.39318181818181586,
                "tempo": 120.0
            },
            {
                "start_time": 19.68181818181818,
                "end_time": 20.05909090909091,
                "pitch": 49,
                "velocity": 32,
                "duration": 0.37727272727272876,
                "tempo": 120.0
            },
            {
                "start_time": 20.075,
                "end_time": 20.320454545454545,
                "pitch": 53,
                "velocity": 32,
                "duration": 0.24545454545454604,
                "tempo": 120.0
            },
            {
                "start_time": 20.336363636363636,
                "end_time": 20.45,
                "pitch": 49,
                "velocity": 32,
                "duration": 0.11363636363636331,
                "tempo": 120.0
            },
            {
                "start_time": 20.74090909090909,
                "end_time": 20.861363636363635,
                "pitch": 56,
                "velocity": 32,
                "duration": 0.12045454545454604,
                "tempo": 120.0
            },
            {
                "start_time": 21.536363636363635,
                "end_time": 21.652272727272727,
                "pitch": 53,
                "velocity": 32,
                "duration": 0.11590909090909207,
                "tempo": 120.0
            },
            {
                "start_time": 21.670454545454543,
                "end_time": 22.052272727272726,
                "pitch": 54,
                "velocity": 32,
                "duration": 0.3818181818181827,
                "tempo": 120.0
            },
            {
                "start_time": 22.070454545454545,
                "end_time": 22.327272727272724,
                "pitch": 56,
                "velocity": 32,
                "duration": 0.25681818181817917,
                "tempo": 120.0
            },
            {
                "start_time": 22.34318181818182,
                "end_time": 22.46363636363636,
                "pitch": 54,
                "velocity": 32,
                "duration": 0.12045454545454248,
                "tempo": 120.0
            },
            {
                "start_time": 22.48181818181818,
                "end_time": 22.875,
                "pitch": 54,
                "velocity": 32,
                "duration": 0.3931818181818194,
                "tempo": 120.0
            },
            {
                "start_time": 22.89090909090909,
                "end_time": 23.268181818181816,
                "pitch": 54,
                "velocity": 32,
                "duration": 0.3772727272727252,
                "tempo": 120.0
            },
            {
                "start_time": 23.284090909090907,
                "end_time": 23.529545454545453,
                "pitch": 58,
                "velocity": 32,
                "duration": 0.24545454545454604,
                "tempo": 120.0
            },
            {
                "start_time": 23.545454545454543,
                "end_time": 23.659090909090907,
                "pitch": 54,
                "velocity": 32,
                "duration": 0.11363636363636331,
                "tempo": 120.0
            },
            {
                "start_time": 23.95,
                "end_time": 24.070454545454545,
                "pitch": 61,
                "velocity": 32,
                "duration": 0.12045454545454604,
                "tempo": 120.0
            },
            {
                "start_time": 24.745454545454542,
                "end_time": 24.861363636363635,
                "pitch": 62,
                "velocity": 32,
                "duration": 0.11590909090909207,
                "tempo": 120.0
            },
            {
                "start_time": 24.879545454545454,
                "end_time": 25.13181818181818,
                "pitch": 61,
                "velocity": 32,
                "duration": 0.2522727272727252,
                "tempo": 120.0
            },
            {
                "start_time": 25.14772727272727,
                "end_time": 25.26590909090909,
                "pitch": 59,
                "velocity": 32,
                "duration": 0.11818181818182083,
                "tempo": 120.0
            },
            {
                "start_time": 25.28181818181818,
                "end_time": 25.538636363636364,
                "pitch": 58,
                "velocity": 32,
                "duration": 0.2568181818181827,
                "tempo": 120.0
            },
            {
                "start_time": 25.554545454545455,
                "end_time": 25.674999999999997,
                "pitch": 56,
                "velocity": 32,
                "duration": 0.12045454545454248,
                "tempo": 120.0
            },
            {
                "start_time": 25.693181818181817,
                "end_time": 26.086363636363636,
                "pitch": 49,
                "velocity": 32,
                "duration": 0.3931818181818194,
                "tempo": 120.0
            },
            {
                "start_time": 26.104545454545452,
                "end_time": 26.479545454545452,
                "pitch": 49,
                "velocity": 32,
                "duration": 0.375,
                "tempo": 120.0
            },
            {
                "start_time": 26.495454545454542,
                "end_time": 26.74090909090909,
                "pitch": 53,
                "velocity": 32,
                "duration": 0.24545454545454604,
                "tempo": 120.0
            },
            {
                "start_time": 26.75681818181818,
                "end_time": 26.87272727272727,
                "pitch": 49,
                "velocity": 32,
                "duration": 0.11590909090909207,
                "tempo": 120.0
            },
            {
                "start_time": 27.161363636363635,
                "end_time": 27.28181818181818,
                "pitch": 56,
                "velocity": 32,
                "duration": 0.12045454545454604,
                "tempo": 120.0
            },
            {
                "start_time": 27.956818181818182,
                "end_time": 28.075,
                "pitch": 53,
                "velocity": 32,
                "duration": 0.11818181818181728,
                "tempo": 120.0
            },
            {
                "start_time": 28.09090909090909,
                "end_time": 28.477272727272727,
                "pitch": 54,
                "velocity": 32,
                "duration": 0.3863636363636367,
                "tempo": 120.0
            },
            {
                "start_time": 28.493181818181817,
                "end_time": 28.75,
                "pitch": 56,
                "velocity": 32,
                "duration": 0.2568181818181827,
                "tempo": 120.0
            },
            {
                "start_time": 28.768181818181816,
                "end_time": 28.886363636363637,
                "pitch": 54,
                "velocity": 32,
                "duration": 0.11818181818182083,
                "tempo": 120.0
            },
            {
                "start_time": 28.904545454545453,
                "end_time": 29.297727272727272,
                "pitch": 54,
                "velocity": 32,
                "duration": 0.3931818181818194,
                "tempo": 120.0
            },
            {
                "start_time": 29.315909090909088,
                "end_time": 29.690909090909088,
                "pitch": 54,
                "velocity": 32,
                "duration": 0.375,
                "tempo": 120.0
            },
            {
                "start_time": 29.706818181818182,
                "end_time": 29.952272727272724,
                "pitch": 58,
                "velocity": 32,
                "duration": 0.24545454545454248,
                "tempo": 120.0
            },
            {
                "start_time": 29.968181818181815,
                "end_time": 30.084090909090907,
                "pitch": 54,
                "velocity": 32,
                "duration": 0.11590909090909207,
                "tempo": 120.0
            },
            {
                "start_time": 30.37272727272727,
                "end_time": 30.493181818181817,
                "pitch": 61,
                "velocity": 32,
                "duration": 0.12045454545454604,
                "tempo": 120.0
            },
            {
                "start_time": 31.170454545454543,
                "end_time": 31.28863636363636,
                "pitch": 62,
                "velocity": 32,
                "duration": 0.11818181818181728,
                "tempo": 120.0
            },
            {
                "start_time": 31.304545454545455,
                "end_time": 31.554545454545455,
                "pitch": 61,
                "velocity": 32,
                "duration": 0.25,
                "tempo": 120.0
            },
            {
                "start_time": 31.57272727272727,
                "end_time": 31.688636363636363,
                "pitch": 59,
                "velocity": 32,
                "duration": 0.11590909090909207,
                "tempo": 120.0
            },
            {
                "start_time": 31.704545454545453,
                "end_time": 31.961363636363636,
                "pitch": 58,
                "velocity": 32,
                "duration": 0.2568181818181827,
                "tempo": 120.0
            },
            {
                "start_time": 31.979545454545452,
                "end_time": 32.1,
                "pitch": 56,
                "velocity": 32,
                "duration": 0.12045454545454959,
                "tempo": 120.0
            },
            {
                "start_time": 32.11590909090909,
                "end_time": 32.50909090909091,
                "pitch": 49,
                "velocity": 32,
                "duration": 0.39318181818181586,
                "tempo": 120.0
            },
            {
                "start_time": 32.527272727272724,
                "end_time": 32.902272727272724,
                "pitch": 49,
                "velocity": 32,
                "duration": 0.375,
                "tempo": 120.0
            },
            {
                "start_time": 32.92045454545455,
                "end_time": 33.163636363636364,
                "pitch": 53,
                "velocity": 32,
                "duration": 0.24318181818181728,
                "tempo": 120.0
            },
            {
                "start_time": 33.18181818181818,
                "end_time": 33.29545454545455,
                "pitch": 49,
                "velocity": 32,
                "duration": 0.11363636363636687,
                "tempo": 120.0
            },
            {
                "start_time": 33.586363636363636,
                "end_time": 33.70454545454545,
                "pitch": 56,
                "velocity": 32,
                "duration": 0.11818181818181728,
                "tempo": 120.0
            },
            {
                "start_time": 34.38181818181818,
                "end_time": 34.49772727272727,
                "pitch": 53,
                "velocity": 32,
                "duration": 0.11590909090908497,
                "tempo": 120.0
            },
            {
                "start_time": 34.513636363636365,
                "end_time": 34.9,
                "pitch": 54,
                "velocity": 32,
                "duration": 0.38636363636363313,
                "tempo": 120.0
            },
            {
                "start_time": 34.918181818181814,
                "end_time": 35.175,
                "pitch": 56,
                "velocity": 32,
                "duration": 0.2568181818181827,
                "tempo": 120.0
            },
            {
                "start_time": 35.19090909090909,
                "end_time": 35.31136363636364,
                "pitch": 54,
                "velocity": 32,
                "duration": 0.12045454545454959,
                "tempo": 120.0
            },
            {
                "start_time": 35.32727272727273,
                "end_time": 35.72272727272727,
                "pitch": 54,
                "velocity": 32,
                "duration": 0.39545454545454106,
                "tempo": 120.0
            },
            {
                "start_time": 35.73863636363636,
                "end_time": 35.98409090909091,
                "pitch": 54,
                "velocity": 32,
                "duration": 0.2454545454545496,
                "tempo": 120.0
            },
            {
                "start_time": 36.0,
                "end_time": 36.018181818181816,
                "pitch": 55,
                "velocity": 32,
                "duration": 0.018181818181815856,
                "tempo": 120.0
            },
            {
                "start_time": 36.03409090909091,
                "end_time": 36.11590909090909,
                "pitch": 56,
                "velocity": 32,
                "duration": 0.08181818181818556,
                "tempo": 120.0
            },
            {
                "start_time": 36.13181818181818,
                "end_time": 36.377272727272725,
                "pitch": 57,
                "velocity": 32,
                "duration": 0.24545454545454248,
                "tempo": 120.0
            },
            {
                "start_time": 36.393181818181816,
                "end_time": 36.50681818181818,
                "pitch": 56,
                "velocity": 32,
                "duration": 0.11363636363636687,
                "tempo": 120.0
            },
            {
                "start_time": 36.793181818181814,
                "end_time": 36.90909090909091,
                "pitch": 54,
                "velocity": 32,
                "duration": 0.11590909090909207,
                "tempo": 120.0
            },
            {
                "start_time": 37.72727272727273,
                "end_time": 38.50909090909091,
                "pitch": 49,
                "velocity": 32,
                "duration": 0.7818181818181813,
                "tempo": 120.0
            },
            {
                "start_time": 38.527272727272724,
                "end_time": 38.929545454545455,
                "pitch": 42,
                "velocity": 32,
                "duration": 0.4022727272727309,
                "tempo": 120.0
            },
            {
                "start_time": 38.94772727272727,
                "end_time": 39.18636363636364,
                "pitch": 46,
                "velocity": 32,
                "duration": 0.23863636363636687,
                "tempo": 120.0
            },
            {
                "start_time": 39.20227272727273,
                "end_time": 39.31363636363636,
                "pitch": 49,
                "velocity": 32,
                "duration": 0.11136363636363455,
                "tempo": 120.0
            },
            {
                "start_time": 39.32954545454545,
                "end_time": 39.71363636363636,
                "pitch": 47,
                "velocity": 32,
                "duration": 0.38409090909090793,
                "tempo": 120.0
            },
            {
                "start_time": 39.72954545454545,
                "end_time": 39.97954545454545,
                "pitch": 51,
                "velocity": 32,
                "duration": 0.25,
                "tempo": 120.0
            },
            {
                "start_time": 39.99772727272727,
                "end_time": 40.11363636363636,
                "pitch": 54,
                "velocity": 32,
                "duration": 0.11590909090909207,
                "tempo": 120.0
            },
            {
                "start_time": 40.39772727272727,
                "end_time": 40.51363636363636,
                "pitch": 49,
                "velocity": 32,
                "duration": 0.11590909090908497,
                "tempo": 120.0
            },
            {
                "start_time": 40.529545454545456,
                "end_time": 40.78181818181818,
                "pitch": 53,
                "velocity": 32,
                "duration": 0.2522727272727252,
                "tempo": 120.0
            },
            {
                "start_time": 40.79772727272727,
                "end_time": 40.91590909090909,
                "pitch": 56,
                "velocity": 32,
                "duration": 0.11818181818181728,
                "tempo": 120.0
            },
            {
                "start_time": 40.93181818181818,
                "end_time": 41.18181818181818,
                "pitch": 54,
                "velocity": 32,
                "duration": 0.25,
                "tempo": 120.0
            },
            {
                "start_time": 41.199999999999996,
                "end_time": 41.31590909090909,
                "pitch": 54,
                "velocity": 32,
                "duration": 0.11590909090909207,
                "tempo": 120.0
            },
            {
                "start_time": 41.33181818181818,
                "end_time": 41.58181818181818,
                "pitch": 58,
                "velocity": 32,
                "duration": 0.25,
                "tempo": 120.0
            },
            {
                "start_time": 41.6,
                "end_time": 41.715909090909086,
                "pitch": 61,
                "velocity": 32,
                "duration": 0.11590909090908497,
                "tempo": 120.0
            },
            {
                "start_time": 41.73181818181818,
                "end_time": 42.13636363636363,
                "pitch": 42,
                "velocity": 32,
                "duration": 0.4045454545454561,
                "tempo": 120.0
            },
            {
                "start_time": 42.15454545454545,
                "end_time": 42.393181818181816,
                "pitch": 46,
                "velocity": 32,
                "duration": 0.23863636363636687,
                "tempo": 120.0
            },
            {
                "start_time": 42.40909090909091,
                "end_time": 42.52045454545454,
                "pitch": 49,
                "velocity": 32,
                "duration": 0.11136363636363455,
                "tempo": 120.0
            },
            {
                "start_time": 42.53636363636363,
                "end_time": 42.92272727272727,
                "pitch": 47,
                "velocity": 32,
                "duration": 0.38636363636364024,
                "tempo": 120.0
            },
            {
                "start_time": 42.93863636363636,
                "end_time": 43.195454545454545,
                "pitch": 51,
                "velocity": 32,
                "duration": 0.2568181818181827,
                "tempo": 120.0
            },
            {
                "start_time": 43.21363636363636,
                "end_time": 43.33181818181818,
                "pitch": 54,
                "velocity": 32,
                "duration": 0.11818181818181728,
                "tempo": 120.0
            },
            {
                "start_time": 43.35,
                "end_time": 43.60681818181818,
                "pitch": 49,
                "velocity": 32,
                "duration": 0.2568181818181756,
                "tempo": 120.0
            },
            {
                "start_time": 43.62272727272727,
                "end_time": 43.74318181818182,
                "pitch": 53,
                "velocity": 32,
                "duration": 0.12045454545454959,
                "tempo": 120.0
            },
            {
                "start_time": 43.76136363636363,
                "end_time": 44.00681818181818,
                "pitch": 56,
                "velocity": 32,
                "duration": 0.2454545454545496,
                "tempo": 120.0
            },
            {
                "start_time": 44.02272727272727,
                "end_time": 44.39772727272727,
                "pitch": 54,
                "velocity": 32,
                "duration": 0.375,
                "tempo": 120.0
            },
            {
                "start_time": 44.413636363636364,
                "end_time": 44.52954545454545,
                "pitch": 57,
                "velocity": 32,
                "duration": 0.11590909090908497,
                "tempo": 120.0
            },
            {
                "start_time": 44.54545454545455,
                "end_time": 44.80227272727272,
                "pitch": 56,
                "velocity": 32,
                "duration": 0.2568181818181756,
                "tempo": 120.0
            },
            {
                "start_time": 44.81818181818181,
                "end_time": 44.93863636363636,
                "pitch": 54,
                "velocity": 32,
                "duration": 0.12045454545454959,
                "tempo": 120.0
            },
            {
                "start_time": 44.95681818181818,
                "end_time": 45.349999999999994,
                "pitch": 42,
                "velocity": 32,
                "duration": 0.39318181818181586,
                "tempo": 120.0
            },
            {
                "start_time": 45.36590909090909,
                "end_time": 45.60454545454545,
                "pitch": 46,
                "velocity": 32,
                "duration": 0.23863636363635976,
                "tempo": 120.0
            },
            {
                "start_time": 45.62045454545454,
                "end_time": 45.73181818181818,
                "pitch": 49,
                "velocity": 32,
                "duration": 0.11136363636363455,
                "tempo": 120.0
            },
            {
                "start_time": 45.75,
                "end_time": 46.13181818181818,
                "pitch": 47,
                "velocity": 32,
                "duration": 0.3818181818181827,
                "tempo": 120.0
            },
            {
                "start_time": 46.15,
                "end_time": 46.40454545454545,
                "pitch": 51,
                "velocity": 32,
                "duration": 0.2545454545454504,
                "tempo": 120.0
            },
            {
                "start_time": 46.42272727272727,
                "end_time": 46.543181818181814,
                "pitch": 54,
                "velocity": 32,
                "duration": 0.12045454545454248,
                "tempo": 120.0
            },
            {
                "start_time": 46.820454545454545,
                "end_time": 46.93636363636364,
                "pitch": 49,
                "velocity": 32,
                "duration": 0.11590909090909207,
                "tempo": 120.0
            },
            {
                "start_time": 46.95227272727273,
                "end_time": 47.20227272727273,
                "pitch": 53,
                "velocity": 32,
                "duration": 0.25,
                "tempo": 120.0
            },
            {
                "start_time": 47.21818181818182,
                "end_time": 47.334090909090904,
                "pitch": 56,
                "velocity": 32,
                "duration": 0.11590909090908497,
                "tempo": 120.0
            },
            {
                "start_time": 47.35227272727273,
                "end_time": 47.60227272727273,
                "pitch": 54,
                "velocity": 32,
                "duration": 0.25,
                "tempo": 120.0
            },
            {
                "start_time": 47.61818181818182,
                "end_time": 47.73409090909091,
                "pitch": 54,
                "velocity": 32,
                "duration": 0.11590909090909207,
                "tempo": 120.0
            },
            {
                "start_time": 47.752272727272725,
                "end_time": 48.002272727272725,
                "pitch": 58,
                "velocity": 32,
                "duration": 0.25,
                "tempo": 120.0
            },
            {
                "start_time": 48.018181818181816,
                "end_time": 48.13409090909091,
                "pitch": 61,
                "velocity": 32,
                "duration": 0.11590909090909207,
                "tempo": 120.0
            },
            {
                "start_time": 48.152272727272724,
                "end_time": 48.55681818181818,
                "pitch": 42,
                "velocity": 32,
                "duration": 0.4045454545454561,
                "tempo": 120.0
            },
            {
                "start_time": 48.57272727272727,
                "end_time": 48.81136363636364,
                "pitch": 46,
                "velocity": 32,
                "duration": 0.23863636363636687,
                "tempo": 120.0
            },
            {
                "start_time": 48.82727272727273,
                "end_time": 48.93863636363636,
                "pitch": 49,
                "velocity": 32,
                "duration": 0.11136363636363455,
                "tempo": 120.0
            },
            {
                "start_time": 48.95454545454545,
                "end_time": 49.33863636363636,
                "pitch": 47,
                "velocity": 32,
                "duration": 0.38409090909090793,
                "tempo": 120.0
            },
            {
                "start_time": 49.35454545454545,
                "end_time": 49.60454545454545,
                "pitch": 51,
                "velocity": 32,
                "duration": 0.25,
                "tempo": 120.0
            },
            {
                "start_time": 49.62272727272727,
                "end_time": 49.73863636363636,
                "pitch": 54,
                "velocity": 32,
                "duration": 0.11590909090909207,
                "tempo": 120.0
            },
            {
                "start_time": 49.75454545454545,
                "end_time": 50.018181818181816,
                "pitch": 49,
                "velocity": 32,
                "duration": 0.26363636363636545,
                "tempo": 120.0
            },
            {
                "start_time": 50.03636363636363,
                "end_time": 50.15909090909091,
                "pitch": 53,
                "velocity": 32,
                "duration": 0.1227272727272748,
                "tempo": 120.0
            },
            {
                "start_time": 50.17727272727272,
                "end_time": 50.42272727272727,
                "pitch": 56,
                "velocity": 32,
                "duration": 0.2454545454545496,
                "tempo": 120.0
            },
            {
                "start_time": 50.43863636363636,
                "end_time": 50.81363636363636,
                "pitch": 54,
                "velocity": 32,
                "duration": 0.375,
                "tempo": 120.0
            },
            {
                "start_time": 50.83181818181818,
                "end_time": 50.945454545454545,
                "pitch": 57,
                "velocity": 32,
                "duration": 0.11363636363636687,
                "tempo": 120.0
            },
            {
                "start_time": 50.961363636363636,
                "end_time": 51.21818181818182,
                "pitch": 56,
                "velocity": 32,
                "duration": 0.2568181818181827,
                "tempo": 120.0
            },
            {
                "start_time": 51.236363636363635,
                "end_time": 51.35454545454545,
                "pitch": 54,
                "velocity": 32,
                "duration": 0.11818181818181728,
                "tempo": 120.0
            },
            {
                "start_time": 51.37272727272727,
                "end_time": 51.76590909090909,
                "pitch": 49,
                "velocity": 32,
                "duration": 0.39318181818182296,
                "tempo": 120.0
            },
            {
                "start_time": 51.78409090909091,
                "end_time": 52.15909090909091,
                "pitch": 49,
                "velocity": 32,
                "duration": 0.375,
                "tempo": 120.0
            },
            {
                "start_time": 52.175,
                "end_time": 52.42045454545454,
                "pitch": 53,
                "velocity": 32,
                "duration": 0.24545454545454248,
                "tempo": 120.0
            },
            {
                "start_time": 52.43636363636363,
                "end_time": 52.55227272727272,
                "pitch": 49,
                "velocity": 32,
                "duration": 0.11590909090909207,
                "tempo": 120.0
            },
            {
                "start_time": 52.840909090909086,
                "end_time": 52.961363636363636,
                "pitch": 56,
                "velocity": 32,
                "duration": 0.12045454545454959,
                "tempo": 120.0
            },
            {
                "start_time": 53.63636363636363,
                "end_time": 53.75454545454545,
                "pitch": 53,
                "velocity": 32,
                "duration": 0.11818181818181728,
                "tempo": 120.0
            },
            {
                "start_time": 53.77045454545454,
                "end_time": 54.15454545454545,
                "pitch": 54,
                "velocity": 32,
                "duration": 0.38409090909090793,
                "tempo": 120.0
            },
            {
                "start_time": 54.17045454545454,
                "end_time": 54.42727272727272,
                "pitch": 56,
                "velocity": 32,
                "duration": 0.2568181818181827,
                "tempo": 120.0
            },
            {
                "start_time": 54.445454545454545,
                "end_time": 54.56363636363636,
                "pitch": 54,
                "velocity": 32,
                "duration": 0.11818181818181728,
                "tempo": 120.0
            },
            {
                "start_time": 54.58181818181818,
                "end_time": 54.965909090909086,
                "pitch": 54,
                "velocity": 32,
                "duration": 0.38409090909090793,
                "tempo": 120.0
            },
            {
                "start_time": 54.98181818181818,
                "end_time": 55.365909090909085,
                "pitch": 54,
                "velocity": 32,
                "duration": 0.38409090909090793,
                "tempo": 120.0
            },
            {
                "start_time": 55.381818181818176,
                "end_time": 55.627272727272725,
                "pitch": 58,
                "velocity": 32,
                "duration": 0.2454545454545496,
                "tempo": 120.0
            },
            {
                "start_time": 55.643181818181816,
                "end_time": 55.756818181818176,
                "pitch": 54,
                "velocity": 32,
                "duration": 0.11363636363635976,
                "tempo": 120.0
            },
            {
                "start_time": 56.04772727272727,
                "end_time": 56.168181818181814,
                "pitch": 61,
                "velocity": 32,
                "duration": 0.12045454545454248,
                "tempo": 120.0
            },
            {
                "start_time": 56.845454545454544,
                "end_time": 56.961363636363636,
                "pitch": 62,
                "velocity": 32,
                "duration": 0.11590909090909207,
                "tempo": 120.0
            },
            {
                "start_time": 56.97954545454545,
                "end_time": 57.22954545454545,
                "pitch": 61,
                "velocity": 32,
                "duration": 0.25,
                "tempo": 120.0
            },
            {
                "start_time": 57.24545454545454,
                "end_time": 57.36363636363636,
                "pitch": 59,
                "velocity": 32,
                "duration": 0.11818181818181728,
                "tempo": 120.0
            },
            {
                "start_time": 57.37954545454545,
                "end_time": 57.63636363636363,
                "pitch": 58,
                "velocity": 32,
                "duration": 0.2568181818181827,
                "tempo": 120.0
            },
            {
                "start_time": 57.652272727272724,
                "end_time": 57.77272727272727,
                "pitch": 56,
                "velocity": 32,
                "duration": 0.12045454545454959,
                "tempo": 120.0
            },
            {
                "start_time": 57.79090909090909,
                "end_time": 58.184090909090905,
                "pitch": 49,
                "velocity": 32,
                "duration": 0.39318181818181586,
                "tempo": 120.0
            },
            {
                "start_time": 58.199999999999996,
                "end_time": 58.57727272727272,
                "pitch": 49,
                "velocity": 32,
                "duration": 0.3772727272727252,
                "tempo": 120.0
            },
            {
                "start_time": 58.59318181818182,
                "end_time": 58.83863636363636,
                "pitch": 53,
                "velocity": 32,
                "duration": 0.24545454545454248,
                "tempo": 120.0
            },
            {
                "start_time": 58.85454545454545,
                "end_time": 58.96818181818182,
                "pitch": 49,
                "velocity": 32,
                "duration": 0.11363636363636687,
                "tempo": 120.0
            },
            {
                "start_time": 59.25909090909091,
                "end_time": 59.37954545454545,
                "pitch": 56,
                "velocity": 32,
                "duration": 0.12045454545454248,
                "tempo": 120.0
            },
            {
                "start_time": 60.054545454545455,
                "end_time": 60.17272727272727,
                "pitch": 53,
                "velocity": 32,
                "duration": 0.11818181818181728,
                "tempo": 120.0
            },
            {
                "start_time": 60.18863636363636,
                "end_time": 60.57272727272727,
                "pitch": 54,
                "velocity": 32,
                "duration": 0.38409090909090793,
                "tempo": 120.0
            },
            {
                "start_time": 60.58863636363636,
                "end_time": 60.845454545454544,
                "pitch": 56,
                "velocity": 32,
                "duration": 0.2568181818181827,
                "tempo": 120.0
            },
            {
                "start_time": 60.861363636363635,
                "end_time": 60.98181818181818,
                "pitch": 54,
                "velocity": 32,
                "duration": 0.12045454545454248,
                "tempo": 120.0
            },
            {
                "start_time": 61.0,
                "end_time": 61.393181818181816,
                "pitch": 54,
                "velocity": 32,
                "duration": 0.39318181818181586,
                "tempo": 120.0
            },
            {
                "start_time": 61.40909090909091,
                "end_time": 61.78636363636363,
                "pitch": 54,
                "velocity": 32,
                "duration": 0.3772727272727252,
                "tempo": 120.0
            },
            {
                "start_time": 61.80227272727272,
                "end_time": 62.04772727272727,
                "pitch": 58,
                "velocity": 32,
                "duration": 0.2454545454545496,
                "tempo": 120.0
            },
            {
                "start_time": 62.06363636363636,
                "end_time": 62.17727272727272,
                "pitch": 54,
                "velocity": 32,
                "duration": 0.11363636363635976,
                "tempo": 120.0
            },
            {
                "start_time": 62.46818181818182,
                "end_time": 62.58863636363636,
                "pitch": 61,
                "velocity": 32,
                "duration": 0.12045454545454248,
                "tempo": 120.0
            },
            {
                "start_time": 63.26363636363636,
                "end_time": 63.381818181818176,
                "pitch": 62,
                "velocity": 32,
                "duration": 0.11818181818181728,
                "tempo": 120.0
            },
            {
                "start_time": 63.397727272727266,
                "end_time": 63.647727272727266,
                "pitch": 61,
                "velocity": 32,
                "duration": 0.25,
                "tempo": 120.0
            },
            {
                "start_time": 63.663636363636364,
                "end_time": 63.78181818181818,
                "pitch": 59,
                "velocity": 32,
                "duration": 0.11818181818181728,
                "tempo": 120.0
            },
            {
                "start_time": 63.79772727272727,
                "end_time": 64.05454545454545,
                "pitch": 58,
                "velocity": 32,
                "duration": 0.2568181818181756,
                "tempo": 120.0
            },
            {
                "start_time": 64.07045454545454,
                "end_time": 64.19090909090909,
                "pitch": 56,
                "velocity": 32,
                "duration": 0.12045454545454959,
                "tempo": 120.0
            },
            {
                "start_time": 64.2090909090909,
                "end_time": 64.60227272727272,
                "pitch": 49,
                "velocity": 32,
                "duration": 0.39318181818181586,
                "tempo": 120.0
            },
            {
                "start_time": 64.61818181818181,
                "end_time": 64.99545454545454,
                "pitch": 49,
                "velocity": 32,
                "duration": 0.3772727272727252,
                "tempo": 120.0
            },
            {
                "start_time": 65.01136363636364,
                "end_time": 65.25681818181818,
                "pitch": 53,
                "velocity": 32,
                "duration": 0.24545454545453538,
                "tempo": 120.0
            },
            {
                "start_time": 65.27272727272727,
                "end_time": 65.38636363636364,
                "pitch": 49,
                "velocity": 32,
                "duration": 0.11363636363637397,
                "tempo": 120.0
            },
            {
                "start_time": 65.67727272727272,
                "end_time": 65.79772727272727,
                "pitch": 56,
                "velocity": 32,
                "duration": 0.12045454545454959,
                "tempo": 120.0
            },
            {
                "start_time": 66.475,
                "end_time": 66.59318181818182,
                "pitch": 53,
                "velocity": 32,
                "duration": 0.11818181818182438,
                "tempo": 120.0
            },
            {
                "start_time": 66.60909090909091,
                "end_time": 66.99318181818181,
                "pitch": 54,
                "velocity": 32,
                "duration": 0.3840909090909008,
                "tempo": 120.0
            },
            {
                "start_time": 67.0090909090909,
                "end_time": 67.26590909090909,
                "pitch": 56,
                "velocity": 32,
                "duration": 0.25681818181818983,
                "tempo": 120.0
            },
            {
                "start_time": 67.28181818181818,
                "end_time": 67.40227272727273,
                "pitch": 54,
                "velocity": 32,
                "duration": 0.12045454545454959,
                "tempo": 120.0
            },
            {
                "start_time": 67.42045454545455,
                "end_time": 67.81363636363636,
                "pitch": 54,
                "velocity": 32,
                "duration": 0.39318181818181586,
                "tempo": 120.0
            },
            {
                "start_time": 67.83181818181818,
                "end_time": 68.20681818181818,
                "pitch": 54,
                "velocity": 32,
                "duration": 0.375,
                "tempo": 120.0
            },
            {
                "start_time": 68.22272727272727,
                "end_time": 68.46818181818182,
                "pitch": 58,
                "velocity": 32,
                "duration": 0.2454545454545496,
                "tempo": 120.0
            },
            {
                "start_time": 68.48409090909091,
                "end_time": 68.6,
                "pitch": 54,
                "velocity": 32,
                "duration": 0.11590909090908497,
                "tempo": 120.0
            },
            {
                "start_time": 68.88863636363637,
                "end_time": 69.0090909090909,
                "pitch": 61,
                "velocity": 32,
                "duration": 0.12045454545453538,
                "tempo": 120.0
            },
            {
                "start_time": 69.68636363636364,
                "end_time": 69.80454545454545,
                "pitch": 62,
                "velocity": 32,
                "duration": 0.11818181818181017,
                "tempo": 120.0
            },
            {
                "start_time": 69.82045454545454,
                "end_time": 70.07045454545454,
                "pitch": 61,
                "velocity": 32,
                "duration": 0.25,
                "tempo": 120.0
            },
            {
                "start_time": 70.08863636363635,
                "end_time": 70.20454545454545,
                "pitch": 59,
                "velocity": 32,
                "duration": 0.11590909090909918,
                "tempo": 120.0
            },
            {
                "start_time": 70.22045454545454,
                "end_time": 70.47727272727272,
                "pitch": 58,
                "velocity": 32,
                "duration": 0.2568181818181756,
                "tempo": 120.0
            },
            {
                "start_time": 70.49545454545454,
                "end_time": 70.61363636363636,
                "pitch": 56,
                "velocity": 32,
                "duration": 0.11818181818182438,
                "tempo": 120.0
            },
            {
                "start_time": 70.63181818181818,
                "end_time": 71.02499999999999,
                "pitch": 49,
                "velocity": 32,
                "duration": 0.39318181818181586,
                "tempo": 120.0
            },
            {
                "start_time": 71.04318181818182,
                "end_time": 71.41818181818182,
                "pitch": 49,
                "velocity": 32,
                "duration": 0.375,
                "tempo": 120.0
            },
            {
                "start_time": 71.43409090909091,
                "end_time": 71.67954545454545,
                "pitch": 53,
                "velocity": 32,
                "duration": 0.24545454545453538,
                "tempo": 120.0
            },
            {
                "start_time": 71.69545454545454,
                "end_time": 71.81136363636364,
                "pitch": 49,
                "velocity": 32,
                "duration": 0.11590909090909918,
                "tempo": 120.0
            },
            {
                "start_time": 72.1,
                "end_time": 72.22045454545454,
                "pitch": 56,
                "velocity": 32,
                "duration": 0.12045454545454959,
                "tempo": 120.0
            },
            {
                "start_time": 72.89772727272727,
                "end_time": 73.01363636363637,
                "pitch": 53,
                "velocity": 32,
                "duration": 0.11590909090909918,
                "tempo": 120.0
            },
            {
                "start_time": 73.02954545454546,
                "end_time": 73.41590909090908,
                "pitch": 54,
                "velocity": 32,
                "duration": 0.38636363636362603,
                "tempo": 120.0
            },
            {
                "start_time": 73.43181818181817,
                "end_time": 73.68863636363636,
                "pitch": 56,
                "velocity": 32,
                "duration": 0.25681818181818983,
                "tempo": 120.0
            },
            {
                "start_time": 73.70681818181818,
                "end_time": 73.82727272727273,
                "pitch": 54,
                "velocity": 32,
                "duration": 0.12045454545454959,
                "tempo": 120.0
            },
            {
                "start_time": 73.84318181818182,
                "end_time": 74.23636363636363,
                "pitch": 54,
                "velocity": 32,
                "duration": 0.39318181818181586,
                "tempo": 120.0
            },
            {
                "start_time": 74.25454545454545,
                "end_time": 74.5,
                "pitch": 54,
                "velocity": 32,
                "duration": 0.2454545454545496,
                "tempo": 120.0
            },
            {
                "start_time": 74.51590909090909,
                "end_time": 74.53181818181818,
                "pitch": 55,
                "velocity": 32,
                "duration": 0.01590909090909065,
                "tempo": 120.0
            },
            {
                "start_time": 74.55,
                "end_time": 74.62954545454545,
                "pitch": 56,
                "velocity": 32,
                "duration": 0.07954545454545325,
                "tempo": 120.0
            },
            {
                "start_time": 74.64772727272727,
                "end_time": 74.89090909090909,
                "pitch": 57,
                "velocity": 32,
                "duration": 0.24318181818182438,
                "tempo": 120.0
            },
            {
                "start_time": 74.9090909090909,
                "end_time": 75.02272727272727,
                "pitch": 56,
                "velocity": 32,
                "duration": 0.11363636363635976,
                "tempo": 120.0
            },
            {
                "start_time": 75.30681818181817,
                "end_time": 75.425,
                "pitch": 54,
                "velocity": 32,
                "duration": 0.11818181818182438,
                "tempo": 120.0
            },
            {
                "start_time": 76.25454545454545,
                "end_time": 76.5,
                "pitch": 66,
                "velocity": 32,
                "duration": 0.2454545454545496,
                "tempo": 120.0
            },
            {
                "start_time": 76.51590909090909,
                "end_time": 76.63181818181818,
                "pitch": 37,
                "velocity": 32,
                "duration": 0.11590909090908497,
                "tempo": 120.0
            },
            {
                "start_time": 76.64772727272727,
                "end_time": 76.9090909090909,
                "pitch": 39,
                "velocity": 32,
                "duration": 0.26136363636364024,
                "tempo": 120.0
            },
            {
                "start_time": 76.92727272727272,
                "end_time": 77.05,
                "pitch": 41,
                "velocity": 32,
                "duration": 0.1227272727272748,
                "tempo": 120.0
            },
            {
                "start_time": 77.06818181818181,
                "end_time": 77.08636363636363,
                "pitch": 42,
                "velocity": 32,
                "duration": 0.018181818181815856,
                "tempo": 120.0
            }
        ],
        "Church Organ": [
            {
                "start_time": 0.3840909090909091,
                "end_time": 0.7772727272727272,
                "pitch": 73,
                "velocity": 32,
                "duration": 0.39318181818181813,
                "tempo": 120.0
            },
            {
                "start_time": 1.1931818181818181,
                "end_time": 1.4431818181818181,
                "pitch": 75,
                "velocity": 32,
                "duration": 0.25,
                "tempo": 120.0
            },
            {
                "start_time": 1.4613636363636362,
                "end_time": 1.5772727272727272,
                "pitch": 75,
                "velocity": 32,
                "duration": 0.11590909090909096,
                "tempo": 120.0
            },
            {
                "start_time": 1.9977272727272726,
                "end_time": 2.3795454545454544,
                "pitch": 73,
                "velocity": 32,
                "duration": 0.38181818181818183,
                "tempo": 120.0
            },
            {
                "start_time": 2.7977272727272724,
                "end_time": 3.0545454545454542,
                "pitch": 73,
                "velocity": 32,
                "duration": 0.25681818181818183,
                "tempo": 120.0
            },
            {
                "start_time": 3.0704545454545453,
                "end_time": 3.190909090909091,
                "pitch": 73,
                "velocity": 32,
                "duration": 0.12045454545454559,
                "tempo": 120.0
            },
            {
                "start_time": 3.6068181818181815,
                "end_time": 3.984090909090909,
                "pitch": 73,
                "velocity": 32,
                "duration": 0.3772727272727274,
                "tempo": 120.0
            },
            {
                "start_time": 4.3999999999999995,
                "end_time": 4.656818181818181,
                "pitch": 75,
                "velocity": 32,
                "duration": 0.25681818181818183,
                "tempo": 120.0
            },
            {
                "start_time": 4.675,
                "end_time": 4.793181818181818,
                "pitch": 75,
                "velocity": 32,
                "duration": 0.11818181818181817,
                "tempo": 120.0
            },
            {
                "start_time": 5.079545454545454,
                "end_time": 5.197727272727272,
                "pitch": 77,
                "velocity": 32,
                "duration": 0.11818181818181817,
                "tempo": 120.0
            },
            {
                "start_time": 5.4818181818181815,
                "end_time": 5.993181818181818,
                "pitch": 73,
                "velocity": 32,
                "duration": 0.5113636363636367,
                "tempo": 120.0
            },
            {
                "start_time": 6.8181818181818175,
                "end_time": 7.195454545454545,
                "pitch": 73,
                "velocity": 32,
                "duration": 0.37727272727272787,
                "tempo": 120.0
            },
            {
                "start_time": 7.611363636363636,
                "end_time": 7.863636363636363,
                "pitch": 75,
                "velocity": 32,
                "duration": 0.252272727272727,
                "tempo": 120.0
            },
            {
                "start_time": 7.879545454545454,
                "end_time": 7.997727272727272,
                "pitch": 75,
                "velocity": 32,
                "duration": 0.11818181818181817,
                "tempo": 120.0
            },
            {
                "start_time": 8.415909090909091,
                "end_time": 8.802272727272728,
                "pitch": 73,
                "velocity": 32,
                "duration": 0.3863636363636367,
                "tempo": 120.0
            },
            {
                "start_time": 9.220454545454546,
                "end_time": 9.470454545454546,
                "pitch": 73,
                "velocity": 32,
                "duration": 0.25,
                "tempo": 120.0
            },
            {
                "start_time": 9.488636363636363,
                "end_time": 9.604545454545454,
                "pitch": 73,
                "velocity": 32,
                "duration": 0.1159090909090903,
                "tempo": 120.0
            },
            {
                "start_time": 10.031818181818181,
                "end_time": 10.409090909090908,
                "pitch": 73,
                "velocity": 32,
                "duration": 0.377272727272727,
                "tempo": 120.0
            },
            {
                "start_time": 10.827272727272726,
                "end_time": 11.084090909090909,
                "pitch": 75,
                "velocity": 32,
                "duration": 0.2568181818181827,
                "tempo": 120.0
            },
            {
                "start_time": 11.102272727272727,
                "end_time": 11.220454545454546,
                "pitch": 75,
                "velocity": 32,
                "duration": 0.11818181818181905,
                "tempo": 120.0
            },
            {
                "start_time": 11.506818181818181,
                "end_time": 11.625,
                "pitch": 77,
                "velocity": 32,
                "duration": 0.11818181818181905,
                "tempo": 120.0
            },
            {
                "start_time": 11.909090909090908,
                "end_time": 12.420454545454545,
                "pitch": 73,
                "velocity": 32,
                "duration": 0.5113636363636367,
                "tempo": 120.0
            },
            {
                "start_time": 13.247727272727271,
                "end_time": 13.631818181818181,
                "pitch": 73,
                "velocity": 32,
                "duration": 0.3840909090909097,
                "tempo": 120.0
            },
            {
                "start_time": 13.911363636363635,
                "end_time": 14.024999999999999,
                "pitch": 73,
                "velocity": 32,
                "duration": 0.11363636363636331,
                "tempo": 120.0
            },
            {
                "start_time": 14.31590909090909,
                "end_time": 14.436363636363636,
                "pitch": 73,
                "velocity": 32,
                "duration": 0.12045454545454604,
                "tempo": 120.0
            },
            {
                "start_time": 15.111363636363636,
                "end_time": 15.227272727272727,
                "pitch": 73,
                "velocity": 32,
                "duration": 0.1159090909090903,
                "tempo": 120.0
            },
            {
                "start_time": 15.245454545454544,
                "end_time": 15.495454545454544,
                "pitch": 73,
                "velocity": 32,
                "duration": 0.25,
                "tempo": 120.0
            },
            {
                "start_time": 15.513636363636364,
                "end_time": 16.04090909090909,
                "pitch": 73,
                "velocity": 32,
                "duration": 0.5272727272727256,
                "tempo": 120.0
            },
            {
                "start_time": 16.461363636363636,
                "end_time": 16.847727272727273,
                "pitch": 73,
                "velocity": 32,
                "duration": 0.3863636363636367,
                "tempo": 120.0
            },
            {
                "start_time": 17.125,
                "end_time": 17.238636363636363,
                "pitch": 73,
                "velocity": 32,
                "duration": 0.11363636363636331,
                "tempo": 120.0
            },
            {
                "start_time": 17.529545454545453,
                "end_time": 17.65,
                "pitch": 73,
                "velocity": 32,
                "duration": 0.12045454545454604,
                "tempo": 120.0
            },
            {
                "start_time": 18.327272727272728,
                "end_time": 18.443181818181817,
                "pitch": 75,
                "velocity": 32,
                "duration": 0.11590909090908852,
                "tempo": 120.0
            },
            {
                "start_time": 18.727272727272727,
                "end_time": 18.84318181818182,
                "pitch": 75,
                "velocity": 32,
                "duration": 0.11590909090909207,
                "tempo": 120.0
            },
            {
                "start_time": 18.861363636363635,
                "end_time": 19.254545454545454,
                "pitch": 73,
                "velocity": 32,
                "duration": 0.3931818181818194,
                "tempo": 120.0
            },
            {
                "start_time": 19.68181818181818,
                "end_time": 20.05909090909091,
                "pitch": 73,
                "velocity": 32,
                "duration": 0.37727272727272876,
                "tempo": 120.0
            },
            {
                "start_time": 20.336363636363636,
                "end_time": 20.45,
                "pitch": 73,
                "velocity": 32,
                "duration": 0.11363636363636331,
                "tempo": 120.0
            },
            {
                "start_time": 20.74090909090909,
                "end_time": 20.861363636363635,
                "pitch": 73,
                "velocity": 32,
                "duration": 0.12045454545454604,
                "tempo": 120.0
            },
            {
                "start_time": 21.536363636363635,
                "end_time": 21.652272727272727,
                "pitch": 73,
                "velocity": 32,
                "duration": 0.11590909090909207,
                "tempo": 120.0
            },
            {
                "start_time": 21.670454545454543,
                "end_time": 21.920454545454543,
                "pitch": 73,
                "velocity": 32,
                "duration": 0.25,
                "tempo": 120.0
            },
            {
                "start_time": 21.936363636363634,
                "end_time": 22.46363636363636,
                "pitch": 73,
                "velocity": 32,
                "duration": 0.5272727272727273,
                "tempo": 120.0
            },
            {
                "start_time": 22.89090909090909,
                "end_time": 23.268181818181816,
                "pitch": 73,
                "velocity": 32,
                "duration": 0.3772727272727252,
                "tempo": 120.0
            },
            {
                "start_time": 23.545454545454543,
                "end_time": 23.659090909090907,
                "pitch": 73,
                "velocity": 32,
                "duration": 0.11363636363636331,
                "tempo": 120.0
            },
            {
                "start_time": 23.95,
                "end_time": 24.070454545454545,
                "pitch": 73,
                "velocity": 32,
                "duration": 0.12045454545454604,
                "tempo": 120.0
            },
            {
                "start_time": 24.745454545454542,
                "end_time": 24.861363636363635,
                "pitch": 75,
                "velocity": 32,
                "duration": 0.11590909090909207,
                "tempo": 120.0
            },
            {
                "start_time": 25.14772727272727,
                "end_time": 25.26590909090909,
                "pitch": 75,
                "velocity": 32,
                "duration": 0.11818181818182083,
                "tempo": 120.0
            },
            {
                "start_time": 25.28181818181818,
                "end_time": 25.674999999999997,
                "pitch": 73,
                "velocity": 32,
                "duration": 0.39318181818181586,
                "tempo": 120.0
            },
            {
                "start_time": 26.104545454545452,
                "end_time": 26.479545454545452,
                "pitch": 73,
                "velocity": 32,
                "duration": 0.375,
                "tempo": 120.0
            },
            {
                "start_time": 26.75681818181818,
                "end_time": 26.87272727272727,
                "pitch": 73,
                "velocity": 32,
                "duration": 0.11590909090909207,
                "tempo": 120.0
            },
            {
                "start_time": 27.161363636363635,
                "end_time": 27.28181818181818,
                "pitch": 73,
                "velocity": 32,
                "duration": 0.12045454545454604,
                "tempo": 120.0
            },
            {
                "start_time": 27.956818181818182,
                "end_time": 28.075,
                "pitch": 73,
                "velocity": 32,
                "duration": 0.11818181818181728,
                "tempo": 120.0
            },
            {
                "start_time": 28.09090909090909,
                "end_time": 28.343181818181815,
                "pitch": 73,
                "velocity": 32,
                "duration": 0.2522727272727252,
                "tempo": 120.0
            },
            {
                "start_time": 28.35909090909091,
                "end_time": 28.886363636363637,
                "pitch": 73,
                "velocity": 32,
                "duration": 0.5272727272727273,
                "tempo": 120.0
            },
            {
                "start_time": 29.315909090909088,
                "end_time": 29.690909090909088,
                "pitch": 73,
                "velocity": 32,
                "duration": 0.375,
                "tempo": 120.0
            },
            {
                "start_time": 29.968181818181815,
                "end_time": 30.084090909090907,
                "pitch": 73,
                "velocity": 32,
                "duration": 0.11590909090909207,
                "tempo": 120.0
            },
            {
                "start_time": 30.37272727272727,
                "end_time": 30.493181818181817,
                "pitch": 73,
                "velocity": 32,
                "duration": 0.12045454545454604,
                "tempo": 120.0
            },
            {
                "start_time": 31.170454545454543,
                "end_time": 31.28863636363636,
                "pitch": 75,
                "velocity": 32,
                "duration": 0.11818181818181728,
                "tempo": 120.0
            },
            {
                "start_time": 31.57272727272727,
                "end_time": 31.688636363636363,
                "pitch": 75,
                "velocity": 32,
                "duration": 0.11590909090909207,
                "tempo": 120.0
            },
            {
                "start_time": 31.704545454545453,
                "end_time": 32.1,
                "pitch": 73,
                "velocity": 32,
                "duration": 0.39545454545454817,
                "tempo": 120.0
            },
            {
                "start_time": 32.527272727272724,
                "end_time": 32.902272727272724,
                "pitch": 73,
                "velocity": 32,
                "duration": 0.375,
                "tempo": 120.0
            },
            {
                "start_time": 33.18181818181818,
                "end_time": 33.29545454545455,
                "pitch": 73,
                "velocity": 32,
                "duration": 0.11363636363636687,
                "tempo": 120.0
            },
            {
                "start_time": 33.586363636363636,
                "end_time": 33.70454545454545,
                "pitch": 73,
                "velocity": 32,
                "duration": 0.11818181818181728,
                "tempo": 120.0
            },
            {
                "start_time": 34.38181818181818,
                "end_time": 34.49772727272727,
                "pitch": 73,
                "velocity": 32,
                "duration": 0.11590909090908497,
                "tempo": 120.0
            },
            {
                "start_time": 34.513636363636365,
                "end_time": 34.76590909090909,
                "pitch": 73,
                "velocity": 32,
                "duration": 0.2522727272727252,
                "tempo": 120.0
            },
            {
                "start_time": 34.78409090909091,
                "end_time": 35.31136363636364,
                "pitch": 73,
                "velocity": 32,
                "duration": 0.5272727272727309,
                "tempo": 120.0
            },
            {
                "start_time": 35.32727272727273,
                "end_time": 35.72272727272727,
                "pitch": 73,
                "velocity": 32,
                "duration": 0.39545454545454106,
                "tempo": 120.0
            },
            {
                "start_time": 35.73863636363636,
                "end_time": 36.11590909090909,
                "pitch": 73,
                "velocity": 32,
                "duration": 0.3772727272727323,
                "tempo": 120.0
            },
            {
                "start_time": 36.13181818181818,
                "end_time": 36.377272727272725,
                "pitch": 75,
                "velocity": 32,
                "duration": 0.24545454545454248,
                "tempo": 120.0
            },
            {
                "start_time": 36.393181818181816,
                "end_time": 36.50681818181818,
                "pitch": 75,
                "velocity": 32,
                "duration": 0.11363636363636687,
                "tempo": 120.0
            },
            {
                "start_time": 36.793181818181814,
                "end_time": 36.90909090909091,
                "pitch": 70,
                "velocity": 32,
                "duration": 0.11590909090909207,
                "tempo": 120.0
            },
            {
                "start_time": 37.72727272727273,
                "end_time": 38.50909090909091,
                "pitch": 73,
                "velocity": 32,
                "duration": 0.7818181818181813,
                "tempo": 120.0
            },
            {
                "start_time": 38.94772727272727,
                "end_time": 39.31363636363636,
                "pitch": 73,
                "velocity": 32,
                "duration": 0.36590909090909207,
                "tempo": 120.0
            },
            {
                "start_time": 39.72954545454545,
                "end_time": 39.97954545454545,
                "pitch": 75,
                "velocity": 32,
                "duration": 0.25,
                "tempo": 120.0
            },
            {
                "start_time": 39.99772727272727,
                "end_time": 40.11363636363636,
                "pitch": 75,
                "velocity": 32,
                "duration": 0.11590909090909207,
                "tempo": 120.0
            },
            {
                "start_time": 40.529545454545456,
                "end_time": 40.91590909090909,
                "pitch": 73,
                "velocity": 32,
                "duration": 0.38636363636363313,
                "tempo": 120.0
            },
            {
                "start_time": 41.33181818181818,
                "end_time": 41.58181818181818,
                "pitch": 73,
                "velocity": 32,
                "duration": 0.25,
                "tempo": 120.0
            },
            {
                "start_time": 41.6,
                "end_time": 41.715909090909086,
                "pitch": 73,
                "velocity": 32,
                "duration": 0.11590909090908497,
                "tempo": 120.0
            },
            {
                "start_time": 42.15454545454545,
                "end_time": 42.52045454545454,
                "pitch": 73,
                "velocity": 32,
                "duration": 0.36590909090909207,
                "tempo": 120.0
            },
            {
                "start_time": 42.93863636363636,
                "end_time": 43.195454545454545,
                "pitch": 75,
                "velocity": 32,
                "duration": 0.2568181818181827,
                "tempo": 120.0
            },
            {
                "start_time": 43.21363636363636,
                "end_time": 43.33181818181818,
                "pitch": 75,
                "velocity": 32,
                "duration": 0.11818181818181728,
                "tempo": 120.0
            },
            {
                "start_time": 43.62272727272727,
                "end_time": 43.74318181818182,
                "pitch": 77,
                "velocity": 32,
                "duration": 0.12045454545454959,
                "tempo": 120.0
            },
            {
                "start_time": 44.02272727272727,
                "end_time": 44.52954545454545,
                "pitch": 73,
                "velocity": 32,
                "duration": 0.5068181818181756,
                "tempo": 120.0
            },
            {
                "start_time": 45.36590909090909,
                "end_time": 45.73181818181818,
                "pitch": 73,
                "velocity": 32,
                "duration": 0.36590909090908497,
                "tempo": 120.0
            },
            {
                "start_time": 46.15,
                "end_time": 46.40454545454545,
                "pitch": 75,
                "velocity": 32,
                "duration": 0.2545454545454504,
                "tempo": 120.0
            },
            {
                "start_time": 46.42272727272727,
                "end_time": 46.543181818181814,
                "pitch": 75,
                "velocity": 32,
                "duration": 0.12045454545454248,
                "tempo": 120.0
            },
            {
                "start_time": 46.95227272727273,
                "end_time": 47.334090909090904,
                "pitch": 73,
                "velocity": 32,
                "duration": 0.3818181818181756,
                "tempo": 120.0
            },
            {
                "start_time": 47.752272727272725,
                "end_time": 48.002272727272725,
                "pitch": 73,
                "velocity": 32,
                "duration": 0.25,
                "tempo": 120.0
            },
            {
                "start_time": 48.018181818181816,
                "end_time": 48.13409090909091,
                "pitch": 73,
                "velocity": 32,
                "duration": 0.11590909090909207,
                "tempo": 120.0
            },
            {
                "start_time": 48.57272727272727,
                "end_time": 48.93863636363636,
                "pitch": 73,
                "velocity": 32,
                "duration": 0.36590909090909207,
                "tempo": 120.0
            },
            {
                "start_time": 49.35454545454545,
                "end_time": 49.60454545454545,
                "pitch": 75,
                "velocity": 32,
                "duration": 0.25,
                "tempo": 120.0
            },
            {
                "start_time": 49.62272727272727,
                "end_time": 49.73863636363636,
                "pitch": 75,
                "velocity": 32,
                "duration": 0.11590909090909207,
                "tempo": 120.0
            },
            {
                "start_time": 50.03636363636363,
                "end_time": 50.15909090909091,
                "pitch": 77,
                "velocity": 32,
                "duration": 0.1227272727272748,
                "tempo": 120.0
            },
            {
                "start_time": 50.43863636363636,
                "end_time": 50.945454545454545,
                "pitch": 73,
                "velocity": 32,
                "duration": 0.5068181818181827,
                "tempo": 120.0
            },
            {
                "start_time": 51.78409090909091,
                "end_time": 52.15909090909091,
                "pitch": 73,
                "velocity": 32,
                "duration": 0.375,
                "tempo": 120.0
            },
            {
                "start_time": 52.43636363636363,
                "end_time": 52.55227272727272,
                "pitch": 73,
                "velocity": 32,
                "duration": 0.11590909090909207,
                "tempo": 120.0
            },
            {
                "start_time": 52.840909090909086,
                "end_time": 52.961363636363636,
                "pitch": 73,
                "velocity": 32,
                "duration": 0.12045454545454959,
                "tempo": 120.0
            },
            {
                "start_time": 53.63636363636363,
                "end_time": 53.75454545454545,
                "pitch": 73,
                "velocity": 32,
                "duration": 0.11818181818181728,
                "tempo": 120.0
            },
            {
                "start_time": 53.77045454545454,
                "end_time": 54.02045454545454,
                "pitch": 73,
                "velocity": 32,
                "duration": 0.25,
                "tempo": 120.0
            },
            {
                "start_time": 54.03636363636363,
                "end_time": 54.56363636363636,
                "pitch": 73,
                "velocity": 32,
                "duration": 0.5272727272727309,
                "tempo": 120.0
            },
            {
                "start_time": 54.98181818181818,
                "end_time": 55.365909090909085,
                "pitch": 73,
                "velocity": 32,
                "duration": 0.38409090909090793,
                "tempo": 120.0
            },
            {
                "start_time": 55.643181818181816,
                "end_time": 55.756818181818176,
                "pitch": 73,
                "velocity": 32,
                "duration": 0.11363636363635976,
                "tempo": 120.0
            },
            {
                "start_time": 56.04772727272727,
                "end_time": 56.168181818181814,
                "pitch": 73,
                "velocity": 32,
                "duration": 0.12045454545454248,
                "tempo": 120.0
            },
            {
                "start_time": 56.845454545454544,
                "end_time": 56.961363636363636,
                "pitch": 75,
                "velocity": 32,
                "duration": 0.11590909090909207,
                "tempo": 120.0
            },
            {
                "start_time": 57.24545454545454,
                "end_time": 57.36363636363636,
                "pitch": 75,
                "velocity": 32,
                "duration": 0.11818181818181728,
                "tempo": 120.0
            },
            {
                "start_time": 57.37954545454545,
                "end_time": 57.77272727272727,
                "pitch": 73,
                "velocity": 32,
                "duration": 0.39318181818182296,
                "tempo": 120.0
            },
            {
                "start_time": 58.199999999999996,
                "end_time": 58.57727272727272,
                "pitch": 73,
                "velocity": 32,
                "duration": 0.3772727272727252,
                "tempo": 120.0
            },
            {
                "start_time": 58.85454545454545,
                "end_time": 58.96818181818182,
                "pitch": 73,
                "velocity": 32,
                "duration": 0.11363636363636687,
                "tempo": 120.0
            },
            {
                "start_time": 59.25909090909091,
                "end_time": 59.37954545454545,
                "pitch": 73,
                "velocity": 32,
                "duration": 0.12045454545454248,
                "tempo": 120.0
            },
            {
                "start_time": 60.054545454545455,
                "end_time": 60.17272727272727,
                "pitch": 73,
                "velocity": 32,
                "duration": 0.11818181818181728,
                "tempo": 120.0
            },
            {
                "start_time": 60.18863636363636,
                "end_time": 60.43863636363636,
                "pitch": 73,
                "velocity": 32,
                "duration": 0.25,
                "tempo": 120.0
            },
            {
                "start_time": 60.45454545454545,
                "end_time": 60.98181818181818,
                "pitch": 73,
                "velocity": 32,
                "duration": 0.5272727272727238,
                "tempo": 120.0
            },
            {
                "start_time": 61.40909090909091,
                "end_time": 61.78636363636363,
                "pitch": 73,
                "velocity": 32,
                "duration": 0.3772727272727252,
                "tempo": 120.0
            },
            {
                "start_time": 62.06363636363636,
                "end_time": 62.17727272727272,
                "pitch": 73,
                "velocity": 32,
                "duration": 0.11363636363635976,
                "tempo": 120.0
            },
            {
                "start_time": 62.46818181818182,
                "end_time": 62.58863636363636,
                "pitch": 73,
                "velocity": 32,
                "duration": 0.12045454545454248,
                "tempo": 120.0
            },
            {
                "start_time": 63.26363636363636,
                "end_time": 63.381818181818176,
                "pitch": 75,
                "velocity": 32,
                "duration": 0.11818181818181728,
                "tempo": 120.0
            },
            {
                "start_time": 63.663636363636364,
                "end_time": 63.78181818181818,
                "pitch": 75,
                "velocity": 32,
                "duration": 0.11818181818181728,
                "tempo": 120.0
            },
            {
                "start_time": 63.79772727272727,
                "end_time": 64.19090909090909,
                "pitch": 73,
                "velocity": 32,
                "duration": 0.39318181818181586,
                "tempo": 120.0
            },
            {
                "start_time": 64.61818181818181,
                "end_time": 64.99545454545454,
                "pitch": 73,
                "velocity": 32,
                "duration": 0.3772727272727252,
                "tempo": 120.0
            },
            {
                "start_time": 65.27272727272727,
                "end_time": 65.38636363636364,
                "pitch": 73,
                "velocity": 32,
                "duration": 0.11363636363637397,
                "tempo": 120.0
            },
            {
                "start_time": 65.67727272727272,
                "end_time": 65.79772727272727,
                "pitch": 73,
                "velocity": 32,
                "duration": 0.12045454545454959,
                "tempo": 120.0
            },
            {
                "start_time": 66.475,
                "end_time": 66.59318181818182,
                "pitch": 73,
                "velocity": 32,
                "duration": 0.11818181818182438,
                "tempo": 120.0
            },
            {
                "start_time": 66.60909090909091,
                "end_time": 66.85909090909091,
                "pitch": 73,
                "velocity": 32,
                "duration": 0.25,
                "tempo": 120.0
            },
            {
                "start_time": 66.875,
                "end_time": 67.40227272727273,
                "pitch": 73,
                "velocity": 32,
                "duration": 0.5272727272727309,
                "tempo": 120.0
            },
            {
                "start_time": 67.83181818181818,
                "end_time": 68.20681818181818,
                "pitch": 73,
                "velocity": 32,
                "duration": 0.375,
                "tempo": 120.0
            },
            {
                "start_time": 68.48409090909091,
                "end_time": 68.6,
                "pitch": 73,
                "velocity": 32,
                "duration": 0.11590909090908497,
                "tempo": 120.0
            },
            {
                "start_time": 68.88863636363637,
                "end_time": 69.0090909090909,
                "pitch": 73,
                "velocity": 32,
                "duration": 0.12045454545453538,
                "tempo": 120.0
            },
            {
                "start_time": 69.68636363636364,
                "end_time": 69.80454545454545,
                "pitch": 75,
                "velocity": 32,
                "duration": 0.11818181818181017,
                "tempo": 120.0
            },
            {
                "start_time": 70.08863636363635,
                "end_time": 70.20454545454545,
                "pitch": 75,
                "velocity": 32,
                "duration": 0.11590909090909918,
                "tempo": 120.0
            },
            {
                "start_time": 70.22045454545454,
                "end_time": 70.61363636363636,
                "pitch": 73,
                "velocity": 32,
                "duration": 0.39318181818181586,
                "tempo": 120.0
            },
            {
                "start_time": 71.04318181818182,
                "end_time": 71.41818181818182,
                "pitch": 73,
                "velocity": 32,
                "duration": 0.375,
                "tempo": 120.0
            },
            {
                "start_time": 71.69545454545454,
                "end_time": 71.81136363636364,
                "pitch": 73,
                "velocity": 32,
                "duration": 0.11590909090909918,
                "tempo": 120.0
            },
            {
                "start_time": 72.1,
                "end_time": 72.22045454545454,
                "pitch": 73,
                "velocity": 32,
                "duration": 0.12045454545454959,
                "tempo": 120.0
            },
            {
                "start_time": 72.89772727272727,
                "end_time": 73.01363636363637,
                "pitch": 73,
                "velocity": 32,
                "duration": 0.11590909090909918,
                "tempo": 120.0
            },
            {
                "start_time": 73.02954545454546,
                "end_time": 73.28181818181818,
                "pitch": 73,
                "velocity": 32,
                "duration": 0.2522727272727252,
                "tempo": 120.0
            },
            {
                "start_time": 73.29772727272727,
                "end_time": 73.82727272727273,
                "pitch": 73,
                "velocity": 32,
                "duration": 0.5295454545454561,
                "tempo": 120.0
            },
            {
                "start_time": 73.84318181818182,
                "end_time": 74.23636363636363,
                "pitch": 73,
                "velocity": 32,
                "duration": 0.39318181818181586,
                "tempo": 120.0
            },
            {
                "start_time": 74.25454545454545,
                "end_time": 74.62954545454545,
                "pitch": 73,
                "velocity": 32,
                "duration": 0.375,
                "tempo": 120.0
            },
            {
                "start_time": 74.64772727272727,
                "end_time": 74.89090909090909,
                "pitch": 75,
                "velocity": 32,
                "duration": 0.24318181818182438,
                "tempo": 120.0
            },
            {
                "start_time": 74.9090909090909,
                "end_time": 75.02272727272727,
                "pitch": 75,
                "velocity": 32,
                "duration": 0.11363636363635976,
                "tempo": 120.0
            },
            {
                "start_time": 75.30681818181817,
                "end_time": 75.425,
                "pitch": 70,
                "velocity": 32,
                "duration": 0.11818181818182438,
                "tempo": 120.0
            },
            {
                "start_time": 76.25454545454545,
                "end_time": 76.5,
                "pitch": 78,
                "velocity": 32,
                "duration": 0.2454545454545496,
                "tempo": 120.0
            }
        ]
    }
}