{
    "track_id": "Alex Kidd - The Lost Stars (FM) - 08 - Ending",
    "mood": "happy",
    "instruments": {
        "Trumpet": [
            {
                "start_time": 1.159090909090909,
                "end_time": 1.409090909090909,
                "pitch": 84,
                "velocity": 80,
                "duration": 0.25,
                "tempo": 120.0
            },
            {
                "start_time": 1.4272727272727272,
                "end_time": 2.759090909090909,
                "pitch": 86,
                "velocity": 80,
                "duration": 1.3318181818181816,
                "tempo": 120.0
            },
            {
                "start_time": 2.7772727272727273,
                "end_time": 3.0272727272727273,
                "pitch": 89,
                "velocity": 80,
                "duration": 0.25,
                "tempo": 120.0
            },
            {
                "start_time": 3.043181818181818,
                "end_time": 4.3545454545454545,
                "pitch": 88,
                "velocity": 80,
                "duration": 1.3113636363636365,
                "tempo": 120.0
            },
            {
                "start_time": 4.372727272727272,
                "end_time": 4.627272727272727,
                "pitch": 84,
                "velocity": 80,
                "duration": 0.25454545454545485,
                "tempo": 120.0
            },
            {
                "start_time": 4.6454545454545455,
                "end_time": 5.961363636363636,
                "pitch": 86,
                "velocity": 80,
                "duration": 1.3159090909090905,
                "tempo": 120.0
            },
            {
                "start_time": 6.388636363636364,
                "end_time": 7.5659090909090905,
                "pitch": 88,
                "velocity": 80,
                "duration": 1.1772727272727268,
                "tempo": 120.0
            },
            {
                "start_time": 7.584090909090909,
                "end_time": 7.840909090909091,
                "pitch": 84,
                "velocity": 80,
                "duration": 0.25681818181818183,
                "tempo": 120.0
            },
            {
                "start_time": 7.8568181818181815,
                "end_time": 8.779545454545454,
                "pitch": 86,
                "velocity": 80,
                "duration": 0.9227272727272728,
                "tempo": 120.0
            },
            {
                "start_time": 8.795454545454545,
                "end_time": 9.052272727272728,
                "pitch": 89,
                "velocity": 80,
                "duration": 0.2568181818181827,
                "tempo": 120.0
            },
            {
                "start_time": 9.070454545454545,
                "end_time": 9.322727272727272,
                "pitch": 89,
                "velocity": 80,
                "duration": 0.252272727272727,
                "tempo": 120.0
            },
            {
                "start_time": 9.338636363636363,
                "end_time": 9.584090909090909,
                "pitch": 89,
                "velocity": 80,
                "duration": 0.24545454545454604,
                "tempo": 120.0
            },
            {
                "start_time": 9.6,
                "end_time": 10.779545454545454,
                "pitch": 88,
                "velocity": 80,
                "duration": 1.1795454545454547,
                "tempo": 120.0
            },
            {
                "start_time": 10.795454545454545,
                "end_time": 11.052272727272726,
                "pitch": 84,
                "velocity": 80,
                "duration": 0.25681818181818095,
                "tempo": 120.0
            },
            {
                "start_time": 11.068181818181818,
                "end_time": 12.384090909090908,
                "pitch": 86,
                "velocity": 80,
                "duration": 1.3159090909090896,
                "tempo": 120.0
            },
            {
                "start_time": 12.811363636363636,
                "end_time": 13.859090909090908,
                "pitch": 87,
                "velocity": 80,
                "duration": 1.047727272727272,
                "tempo": 120.0
            },
            {
                "start_time": 13.875,
                "end_time": 13.99090909090909,
                "pitch": 89,
                "velocity": 80,
                "duration": 0.1159090909090903,
                "tempo": 120.0
            },
            {
                "start_time": 14.006818181818181,
                "end_time": 14.263636363636364,
                "pitch": 91,
                "velocity": 80,
                "duration": 0.2568181818181827,
                "tempo": 120.0
            },
            {
                "start_time": 14.279545454545454,
                "end_time": 14.793181818181818,
                "pitch": 89,
                "velocity": 80,
                "duration": 0.5136363636363637,
                "tempo": 120.0
            },
            {
                "start_time": 14.809090909090909,
                "end_time": 15.202272727272726,
                "pitch": 86,
                "velocity": 80,
                "duration": 0.39318181818181763,
                "tempo": 120.0
            },
            {
                "start_time": 15.220454545454544,
                "end_time": 15.477272727272727,
                "pitch": 84,
                "velocity": 80,
                "duration": 0.2568181818181827,
                "tempo": 120.0
            },
            {
                "start_time": 15.493181818181817,
                "end_time": 15.875,
                "pitch": 82,
                "velocity": 80,
                "duration": 0.3818181818181827,
                "tempo": 120.0
            },
            {
                "start_time": 15.893181818181818,
                "end_time": 16.80909090909091,
                "pitch": 87,
                "velocity": 80,
                "duration": 0.915909090909091,
                "tempo": 120.0
            },
            {
                "start_time": 16.825,
                "end_time": 17.081818181818182,
                "pitch": 87,
                "velocity": 80,
                "duration": 0.2568181818181827,
                "tempo": 120.0
            },
            {
                "start_time": 17.097727272727273,
                "end_time": 17.21818181818182,
                "pitch": 89,
                "velocity": 80,
                "duration": 0.12045454545454604,
                "tempo": 120.0
            },
            {
                "start_time": 17.236363636363635,
                "end_time": 17.48181818181818,
                "pitch": 91,
                "velocity": 80,
                "duration": 0.24545454545454604,
                "tempo": 120.0
            },
            {
                "start_time": 17.49772727272727,
                "end_time": 18.825,
                "pitch": 89,
                "velocity": 80,
                "duration": 1.327272727272728,
                "tempo": 120.0
            },
            {
                "start_time": 19.23409090909091,
                "end_time": 20.28181818181818,
                "pitch": 87,
                "velocity": 80,
                "duration": 1.047727272727272,
                "tempo": 120.0
            },
            {
                "start_time": 20.297727272727272,
                "end_time": 20.413636363636364,
                "pitch": 89,
                "velocity": 80,
                "duration": 0.11590909090909207,
                "tempo": 120.0
            },
            {
                "start_time": 20.429545454545455,
                "end_time": 20.686363636363634,
                "pitch": 91,
                "velocity": 80,
                "duration": 0.25681818181817917,
                "tempo": 120.0
            },
            {
                "start_time": 20.702272727272724,
                "end_time": 21.21590909090909,
                "pitch": 89,
                "velocity": 80,
                "duration": 0.5136363636363654,
                "tempo": 120.0
            },
            {
                "start_time": 21.23181818181818,
                "end_time": 21.625,
                "pitch": 86,
                "velocity": 80,
                "duration": 0.3931818181818194,
                "tempo": 120.0
            },
            {
                "start_time": 21.643181818181816,
                "end_time": 21.9,
                "pitch": 84,
                "velocity": 80,
                "duration": 0.2568181818181827,
                "tempo": 120.0
            },
            {
                "start_time": 21.91590909090909,
                "end_time": 22.299999999999997,
                "pitch": 82,
                "velocity": 80,
                "duration": 0.38409090909090793,
                "tempo": 120.0
            },
            {
                "start_time": 22.31590909090909,
                "end_time": 24.034090909090907,
                "pitch": 88,
                "velocity": 80,
                "duration": 1.7181818181818151,
                "tempo": 120.0
            }
        ],
        "Acoustic Bass": [
            {
                "start_time": 0.11363636363636363,
                "end_time": 0.22954545454545452,
                "pitch": 79,
                "velocity": 51,
                "duration": 0.11590909090909089,
                "tempo": 120.0
            },
            {
                "start_time": 0.24545454545454545,
                "end_time": 0.35909090909090907,
                "pitch": 79,
                "velocity": 51,
                "duration": 0.11363636363636362,
                "tempo": 120.0
            },
            {
                "start_time": 0.375,
                "end_time": 0.4909090909090909,
                "pitch": 79,
                "velocity": 51,
                "duration": 0.1159090909090909,
                "tempo": 120.0
            },
            {
                "start_time": 0.5068181818181818,
                "end_time": 0.6204545454545454,
                "pitch": 79,
                "velocity": 51,
                "duration": 0.11363636363636354,
                "tempo": 120.0
            },
            {
                "start_time": 0.6363636363636364,
                "end_time": 0.7522727272727272,
                "pitch": 79,
                "velocity": 51,
                "duration": 0.11590909090909085,
                "tempo": 120.0
            },
            {
                "start_time": 0.7681818181818182,
                "end_time": 0.8818181818181817,
                "pitch": 79,
                "velocity": 51,
                "duration": 0.11363636363636354,
                "tempo": 120.0
            },
            {
                "start_time": 0.8977272727272727,
                "end_time": 1.0136363636363637,
                "pitch": 79,
                "velocity": 51,
                "duration": 0.11590909090909096,
                "tempo": 120.0
            },
            {
                "start_time": 1.0295454545454545,
                "end_time": 1.143181818181818,
                "pitch": 79,
                "velocity": 51,
                "duration": 0.11363636363636354,
                "tempo": 120.0
            },
            {
                "start_time": 1.159090909090909,
                "end_time": 1.2772727272727271,
                "pitch": 79,
                "velocity": 51,
                "duration": 0.11818181818181817,
                "tempo": 120.0
            },
            {
                "start_time": 1.2931818181818182,
                "end_time": 1.409090909090909,
                "pitch": 79,
                "velocity": 51,
                "duration": 0.11590909090909074,
                "tempo": 120.0
            },
            {
                "start_time": 1.4272727272727272,
                "end_time": 1.5431818181818182,
                "pitch": 79,
                "velocity": 51,
                "duration": 0.11590909090909096,
                "tempo": 120.0
            },
            {
                "start_time": 1.559090909090909,
                "end_time": 1.6772727272727272,
                "pitch": 77,
                "velocity": 51,
                "duration": 0.11818181818181817,
                "tempo": 120.0
            },
            {
                "start_time": 1.6954545454545453,
                "end_time": 1.8113636363636363,
                "pitch": 77,
                "velocity": 51,
                "duration": 0.11590909090909096,
                "tempo": 120.0
            },
            {
                "start_time": 1.8295454545454544,
                "end_time": 1.9454545454545453,
                "pitch": 77,
                "velocity": 51,
                "duration": 0.11590909090909096,
                "tempo": 120.0
            },
            {
                "start_time": 1.9636363636363636,
                "end_time": 2.0818181818181816,
                "pitch": 77,
                "velocity": 51,
                "duration": 0.11818181818181794,
                "tempo": 120.0
            },
            {
                "start_time": 2.1,
                "end_time": 2.2204545454545452,
                "pitch": 77,
                "velocity": 51,
                "duration": 0.12045454545454515,
                "tempo": 120.0
            },
            {
                "start_time": 2.2363636363636363,
                "end_time": 2.356818181818182,
                "pitch": 77,
                "velocity": 51,
                "duration": 0.12045454545454559,
                "tempo": 120.0
            },
            {
                "start_time": 2.3727272727272726,
                "end_time": 2.4909090909090907,
                "pitch": 77,
                "velocity": 51,
                "duration": 0.11818181818181817,
                "tempo": 120.0
            },
            {
                "start_time": 2.509090909090909,
                "end_time": 2.625,
                "pitch": 77,
                "velocity": 51,
                "duration": 0.11590909090909118,
                "tempo": 120.0
            },
            {
                "start_time": 2.643181818181818,
                "end_time": 2.759090909090909,
                "pitch": 77,
                "velocity": 51,
                "duration": 0.11590909090909074,
                "tempo": 120.0
            },
            {
                "start_time": 2.7772727272727273,
                "end_time": 2.893181818181818,
                "pitch": 77,
                "velocity": 51,
                "duration": 0.11590909090909074,
                "tempo": 120.0
            },
            {
                "start_time": 2.909090909090909,
                "end_time": 3.0272727272727273,
                "pitch": 77,
                "velocity": 51,
                "duration": 0.11818181818181817,
                "tempo": 120.0
            },
            {
                "start_time": 3.043181818181818,
                "end_time": 3.1590909090909087,
                "pitch": 77,
                "velocity": 51,
                "duration": 0.11590909090909074,
                "tempo": 120.0
            },
            {
                "start_time": 3.1772727272727272,
                "end_time": 3.2954545454545454,
                "pitch": 79,
                "velocity": 51,
                "duration": 0.11818181818181817,
                "tempo": 120.0
            },
            {
                "start_time": 3.3136363636363635,
                "end_time": 3.434090909090909,
                "pitch": 79,
                "velocity": 51,
                "duration": 0.12045454545454559,
                "tempo": 120.0
            },
            {
                "start_time": 3.4499999999999997,
                "end_time": 3.5704545454545453,
                "pitch": 79,
                "velocity": 51,
                "duration": 0.12045454545454559,
                "tempo": 120.0
            },
            {
                "start_time": 3.586363636363636,
                "end_time": 3.702272727272727,
                "pitch": 79,
                "velocity": 51,
                "duration": 0.11590909090909118,
                "tempo": 120.0
            },
            {
                "start_time": 3.718181818181818,
                "end_time": 3.8318181818181816,
                "pitch": 79,
                "velocity": 51,
                "duration": 0.11363636363636376,
                "tempo": 120.0
            },
            {
                "start_time": 3.8477272727272727,
                "end_time": 3.9636363636363634,
                "pitch": 79,
                "velocity": 51,
                "duration": 0.11590909090909074,
                "tempo": 120.0
            },
            {
                "start_time": 3.9795454545454545,
                "end_time": 4.093181818181818,
                "pitch": 79,
                "velocity": 51,
                "duration": 0.11363636363636331,
                "tempo": 120.0
            },
            {
                "start_time": 4.111363636363636,
                "end_time": 4.225,
                "pitch": 79,
                "velocity": 51,
                "duration": 0.11363636363636331,
                "tempo": 120.0
            },
            {
                "start_time": 4.24090909090909,
                "end_time": 4.3545454545454545,
                "pitch": 79,
                "velocity": 51,
                "duration": 0.1136363636363642,
                "tempo": 120.0
            },
            {
                "start_time": 4.372727272727272,
                "end_time": 4.49090909090909,
                "pitch": 79,
                "velocity": 51,
                "duration": 0.11818181818181817,
                "tempo": 120.0
            },
            {
                "start_time": 4.509090909090909,
                "end_time": 4.627272727272727,
                "pitch": 79,
                "velocity": 51,
                "duration": 0.11818181818181817,
                "tempo": 120.0
            },
            {
                "start_time": 4.6454545454545455,
                "end_time": 4.765909090909091,
                "pitch": 79,
                "velocity": 51,
                "duration": 0.12045454545454515,
                "tempo": 120.0
            },
            {
                "start_time": 4.781818181818181,
                "end_time": 4.8954545454545455,
                "pitch": 77,
                "velocity": 51,
                "duration": 0.1136363636363642,
                "tempo": 120.0
            },
            {
                "start_time": 4.913636363636363,
                "end_time": 5.027272727272727,
                "pitch": 77,
                "velocity": 51,
                "duration": 0.1136363636363642,
                "tempo": 120.0
            },
            {
                "start_time": 5.043181818181818,
                "end_time": 5.159090909090909,
                "pitch": 77,
                "velocity": 51,
                "duration": 0.11590909090909118,
                "tempo": 120.0
            },
            {
                "start_time": 5.175,
                "end_time": 5.293181818181818,
                "pitch": 77,
                "velocity": 51,
                "duration": 0.11818181818181817,
                "tempo": 120.0
            },
            {
                "start_time": 5.3113636363636365,
                "end_time": 5.431818181818182,
                "pitch": 77,
                "velocity": 51,
                "duration": 0.12045454545454515,
                "tempo": 120.0
            },
            {
                "start_time": 5.447727272727272,
                "end_time": 5.568181818181818,
                "pitch": 77,
                "velocity": 51,
                "duration": 0.12045454545454604,
                "tempo": 120.0
            },
            {
                "start_time": 5.584090909090909,
                "end_time": 5.699999999999999,
                "pitch": 77,
                "velocity": 51,
                "duration": 0.1159090909090903,
                "tempo": 120.0
            },
            {
                "start_time": 5.715909090909091,
                "end_time": 5.829545454545454,
                "pitch": 77,
                "velocity": 51,
                "duration": 0.11363636363636331,
                "tempo": 120.0
            },
            {
                "start_time": 5.845454545454545,
                "end_time": 5.961363636363636,
                "pitch": 77,
                "velocity": 51,
                "duration": 0.11590909090909118,
                "tempo": 120.0
            },
            {
                "start_time": 5.977272727272727,
                "end_time": 6.095454545454545,
                "pitch": 77,
                "velocity": 51,
                "duration": 0.11818181818181817,
                "tempo": 120.0
            },
            {
                "start_time": 6.113636363636363,
                "end_time": 6.2340909090909085,
                "pitch": 77,
                "velocity": 51,
                "duration": 0.12045454545454515,
                "tempo": 120.0
            },
            {
                "start_time": 6.25,
                "end_time": 6.370454545454545,
                "pitch": 77,
                "velocity": 51,
                "duration": 0.12045454545454515,
                "tempo": 120.0
            },
            {
                "start_time": 6.404545454545454,
                "end_time": 6.506818181818182,
                "pitch": 79,
                "velocity": 51,
                "duration": 0.10227272727272751,
                "tempo": 120.0
            },
            {
                "start_time": 6.5249999999999995,
                "end_time": 6.6454545454545455,
                "pitch": 79,
                "velocity": 51,
                "duration": 0.12045454545454604,
                "tempo": 120.0
            },
            {
                "start_time": 6.661363636363636,
                "end_time": 6.781818181818181,
                "pitch": 79,
                "velocity": 51,
                "duration": 0.12045454545454515,
                "tempo": 120.0
            },
            {
                "start_time": 6.797727272727273,
                "end_time": 6.913636363636363,
                "pitch": 79,
                "velocity": 51,
                "duration": 0.1159090909090903,
                "tempo": 120.0
            },
            {
                "start_time": 6.929545454545454,
                "end_time": 7.043181818181818,
                "pitch": 79,
                "velocity": 51,
                "duration": 0.1136363636363642,
                "tempo": 120.0
            },
            {
                "start_time": 7.061363636363636,
                "end_time": 7.175,
                "pitch": 79,
                "velocity": 51,
                "duration": 0.1136363636363642,
                "tempo": 120.0
            },
            {
                "start_time": 7.1909090909090905,
                "end_time": 7.304545454545454,
                "pitch": 79,
                "velocity": 51,
                "duration": 0.11363636363636331,
                "tempo": 120.0
            },
            {
                "start_time": 7.322727272727272,
                "end_time": 7.436363636363636,
                "pitch": 79,
                "velocity": 51,
                "duration": 0.11363636363636331,
                "tempo": 120.0
            },
            {
                "start_time": 7.452272727272727,
                "end_time": 7.5659090909090905,
                "pitch": 79,
                "velocity": 51,
                "duration": 0.11363636363636331,
                "tempo": 120.0
            },
            {
                "start_time": 7.584090909090909,
                "end_time": 7.702272727272727,
                "pitch": 79,
                "velocity": 51,
                "duration": 0.11818181818181817,
                "tempo": 120.0
            },
            {
                "start_time": 7.720454545454545,
                "end_time": 7.840909090909091,
                "pitch": 79,
                "velocity": 51,
                "duration": 0.12045454545454604,
                "tempo": 120.0
            },
            {
                "start_time": 7.8568181818181815,
                "end_time": 7.977272727272727,
                "pitch": 79,
                "velocity": 51,
                "duration": 0.12045454545454515,
                "tempo": 120.0
            },
            {
                "start_time": 7.993181818181818,
                "end_time": 8.10909090909091,
                "pitch": 77,
                "velocity": 51,
                "duration": 0.11590909090909118,
                "tempo": 120.0
            },
            {
                "start_time": 8.125,
                "end_time": 8.238636363636363,
                "pitch": 77,
                "velocity": 51,
                "duration": 0.11363636363636331,
                "tempo": 120.0
            },
            {
                "start_time": 8.254545454545454,
                "end_time": 8.370454545454544,
                "pitch": 77,
                "velocity": 51,
                "duration": 0.1159090909090903,
                "tempo": 120.0
            },
            {
                "start_time": 8.386363636363637,
                "end_time": 8.504545454545454,
                "pitch": 77,
                "velocity": 51,
                "duration": 0.11818181818181728,
                "tempo": 120.0
            },
            {
                "start_time": 8.522727272727272,
                "end_time": 8.643181818181818,
                "pitch": 77,
                "velocity": 51,
                "duration": 0.12045454545454604,
                "tempo": 120.0
            },
            {
                "start_time": 8.659090909090908,
                "end_time": 8.779545454545454,
                "pitch": 77,
                "velocity": 51,
                "duration": 0.12045454545454604,
                "tempo": 120.0
            },
            {
                "start_time": 8.795454545454545,
                "end_time": 8.915909090909091,
                "pitch": 77,
                "velocity": 51,
                "duration": 0.12045454545454604,
                "tempo": 120.0
            },
            {
                "start_time": 8.934090909090909,
                "end_time": 9.052272727272728,
                "pitch": 77,
                "velocity": 51,
                "duration": 0.11818181818181905,
                "tempo": 120.0
            },
            {
                "start_time": 9.070454545454545,
                "end_time": 9.19090909090909,
                "pitch": 77,
                "velocity": 51,
                "duration": 0.12045454545454426,
                "tempo": 120.0
            },
            {
                "start_time": 9.206818181818182,
                "end_time": 9.322727272727272,
                "pitch": 77,
                "velocity": 51,
                "duration": 0.1159090909090903,
                "tempo": 120.0
            },
            {
                "start_time": 9.338636363636363,
                "end_time": 9.452272727272726,
                "pitch": 77,
                "velocity": 51,
                "duration": 0.11363636363636331,
                "tempo": 120.0
            },
            {
                "start_time": 9.468181818181817,
                "end_time": 9.584090909090909,
                "pitch": 77,
                "velocity": 51,
                "duration": 0.11590909090909207,
                "tempo": 120.0
            },
            {
                "start_time": 9.61590909090909,
                "end_time": 9.718181818181817,
                "pitch": 79,
                "velocity": 51,
                "duration": 0.10227272727272663,
                "tempo": 120.0
            },
            {
                "start_time": 9.736363636363636,
                "end_time": 9.85681818181818,
                "pitch": 79,
                "velocity": 51,
                "duration": 0.12045454545454426,
                "tempo": 120.0
            },
            {
                "start_time": 9.872727272727273,
                "end_time": 9.993181818181817,
                "pitch": 79,
                "velocity": 51,
                "duration": 0.12045454545454426,
                "tempo": 120.0
            },
            {
                "start_time": 10.009090909090908,
                "end_time": 10.125,
                "pitch": 79,
                "velocity": 51,
                "duration": 0.11590909090909207,
                "tempo": 120.0
            },
            {
                "start_time": 10.14090909090909,
                "end_time": 10.254545454545454,
                "pitch": 79,
                "velocity": 51,
                "duration": 0.11363636363636331,
                "tempo": 120.0
            },
            {
                "start_time": 10.272727272727272,
                "end_time": 10.386363636363637,
                "pitch": 79,
                "velocity": 51,
                "duration": 0.11363636363636509,
                "tempo": 120.0
            },
            {
                "start_time": 10.402272727272727,
                "end_time": 10.51590909090909,
                "pitch": 79,
                "velocity": 51,
                "duration": 0.11363636363636331,
                "tempo": 120.0
            },
            {
                "start_time": 10.534090909090908,
                "end_time": 10.647727272727272,
                "pitch": 79,
                "velocity": 51,
                "duration": 0.11363636363636331,
                "tempo": 120.0
            },
            {
                "start_time": 10.663636363636362,
                "end_time": 10.779545454545454,
                "pitch": 79,
                "velocity": 51,
                "duration": 0.11590909090909207,
                "tempo": 120.0
            },
            {
                "start_time": 10.795454545454545,
                "end_time": 10.913636363636362,
                "pitch": 79,
                "velocity": 51,
                "duration": 0.11818181818181728,
                "tempo": 120.0
            },
            {
                "start_time": 10.931818181818182,
                "end_time": 11.052272727272726,
                "pitch": 79,
                "velocity": 51,
                "duration": 0.12045454545454426,
                "tempo": 120.0
            },
            {
                "start_time": 11.068181818181818,
                "end_time": 11.188636363636363,
                "pitch": 79,
                "velocity": 51,
                "duration": 0.12045454545454426,
                "tempo": 120.0
            },
            {
                "start_time": 11.204545454545453,
                "end_time": 11.320454545454545,
                "pitch": 77,
                "velocity": 51,
                "duration": 0.11590909090909207,
                "tempo": 120.0
            },
            {
                "start_time": 11.336363636363636,
                "end_time": 11.45,
                "pitch": 77,
                "velocity": 51,
                "duration": 0.11363636363636331,
                "tempo": 120.0
            },
            {
                "start_time": 11.46590909090909,
                "end_time": 11.581818181818182,
                "pitch": 77,
                "velocity": 51,
                "duration": 0.11590909090909207,
                "tempo": 120.0
            },
            {
                "start_time": 11.597727272727273,
                "end_time": 11.71590909090909,
                "pitch": 77,
                "velocity": 51,
                "duration": 0.11818181818181728,
                "tempo": 120.0
            },
            {
                "start_time": 11.73409090909091,
                "end_time": 11.854545454545454,
                "pitch": 77,
                "velocity": 51,
                "duration": 0.12045454545454426,
                "tempo": 120.0
            },
            {
                "start_time": 11.870454545454544,
                "end_time": 11.99090909090909,
                "pitch": 77,
                "velocity": 51,
                "duration": 0.12045454545454604,
                "tempo": 120.0
            },
            {
                "start_time": 12.006818181818181,
                "end_time": 12.122727272727273,
                "pitch": 77,
                "velocity": 51,
                "duration": 0.11590909090909207,
                "tempo": 120.0
            },
            {
                "start_time": 12.138636363636364,
                "end_time": 12.252272727272727,
                "pitch": 77,
                "velocity": 51,
                "duration": 0.11363636363636331,
                "tempo": 120.0
            },
            {
                "start_time": 12.270454545454545,
                "end_time": 12.384090909090908,
                "pitch": 77,
                "velocity": 51,
                "duration": 0.11363636363636331,
                "tempo": 120.0
            },
            {
                "start_time": 12.399999999999999,
                "end_time": 12.520454545454545,
                "pitch": 77,
                "velocity": 51,
                "duration": 0.12045454545454604,
                "tempo": 120.0
            },
            {
                "start_time": 12.536363636363635,
                "end_time": 12.656818181818181,
                "pitch": 77,
                "velocity": 51,
                "duration": 0.12045454545454604,
                "tempo": 120.0
            },
            {
                "start_time": 12.672727272727272,
                "end_time": 12.793181818181818,
                "pitch": 77,
                "velocity": 51,
                "duration": 0.12045454545454604,
                "tempo": 120.0
            },
            {
                "start_time": 12.827272727272726,
                "end_time": 12.929545454545455,
                "pitch": 80,
                "velocity": 51,
                "duration": 0.1022727272727284,
                "tempo": 120.0
            },
            {
                "start_time": 12.947727272727272,
                "end_time": 13.068181818181818,
                "pitch": 80,
                "velocity": 51,
                "duration": 0.12045454545454604,
                "tempo": 120.0
            },
            {
                "start_time": 13.084090909090909,
                "end_time": 13.204545454545453,
                "pitch": 80,
                "velocity": 51,
                "duration": 0.12045454545454426,
                "tempo": 120.0
            },
            {
                "start_time": 13.222727272727273,
                "end_time": 13.336363636363636,
                "pitch": 80,
                "velocity": 51,
                "duration": 0.11363636363636331,
                "tempo": 120.0
            },
            {
                "start_time": 13.352272727272727,
                "end_time": 13.468181818181817,
                "pitch": 80,
                "velocity": 51,
                "duration": 0.1159090909090903,
                "tempo": 120.0
            },
            {
                "start_time": 13.484090909090908,
                "end_time": 13.597727272727273,
                "pitch": 80,
                "velocity": 51,
                "duration": 0.11363636363636509,
                "tempo": 120.0
            },
            {
                "start_time": 13.613636363636363,
                "end_time": 13.729545454545454,
                "pitch": 80,
                "velocity": 51,
                "duration": 0.1159090909090903,
                "tempo": 120.0
            },
            {
                "start_time": 13.745454545454544,
                "end_time": 13.859090909090908,
                "pitch": 80,
                "velocity": 51,
                "duration": 0.11363636363636331,
                "tempo": 120.0
            },
            {
                "start_time": 13.875,
                "end_time": 13.99090909090909,
                "pitch": 80,
                "velocity": 51,
                "duration": 0.1159090909090903,
                "tempo": 120.0
            },
            {
                "start_time": 14.006818181818181,
                "end_time": 14.125,
                "pitch": 80,
                "velocity": 51,
                "duration": 0.11818181818181905,
                "tempo": 120.0
            },
            {
                "start_time": 14.143181818181818,
                "end_time": 14.263636363636364,
                "pitch": 80,
                "velocity": 51,
                "duration": 0.12045454545454604,
                "tempo": 120.0
            },
            {
                "start_time": 14.279545454545454,
                "end_time": 14.399999999999999,
                "pitch": 80,
                "velocity": 51,
                "duration": 0.12045454545454426,
                "tempo": 120.0
            },
            {
                "start_time": 14.415909090909091,
                "end_time": 14.531818181818181,
                "pitch": 77,
                "velocity": 51,
                "duration": 0.1159090909090903,
                "tempo": 120.0
            },
            {
                "start_time": 14.547727272727272,
                "end_time": 14.661363636363635,
                "pitch": 77,
                "velocity": 51,
                "duration": 0.11363636363636331,
                "tempo": 120.0
            },
            {
                "start_time": 14.677272727272726,
                "end_time": 14.793181818181818,
                "pitch": 77,
                "velocity": 51,
                "duration": 0.11590909090909207,
                "tempo": 120.0
            },
            {
                "start_time": 14.809090909090909,
                "end_time": 14.929545454545455,
                "pitch": 77,
                "velocity": 51,
                "duration": 0.12045454545454604,
                "tempo": 120.0
            },
            {
                "start_time": 14.945454545454545,
                "end_time": 15.06590909090909,
                "pitch": 77,
                "velocity": 51,
                "duration": 0.12045454545454426,
                "tempo": 120.0
            },
            {
                "start_time": 15.08181818181818,
                "end_time": 15.202272727272726,
                "pitch": 77,
                "velocity": 51,
                "duration": 0.12045454545454604,
                "tempo": 120.0
            },
            {
                "start_time": 15.220454545454544,
                "end_time": 15.338636363636363,
                "pitch": 77,
                "velocity": 51,
                "duration": 0.11818181818181905,
                "tempo": 120.0
            },
            {
                "start_time": 15.35681818181818,
                "end_time": 15.477272727272727,
                "pitch": 77,
                "velocity": 51,
                "duration": 0.12045454545454604,
                "tempo": 120.0
            },
            {
                "start_time": 15.493181818181817,
                "end_time": 15.613636363636363,
                "pitch": 77,
                "velocity": 51,
                "duration": 0.12045454545454604,
                "tempo": 120.0
            },
            {
                "start_time": 15.629545454545454,
                "end_time": 15.745454545454544,
                "pitch": 77,
                "velocity": 51,
                "duration": 0.1159090909090903,
                "tempo": 120.0
            },
            {
                "start_time": 15.761363636363635,
                "end_time": 15.875,
                "pitch": 77,
                "velocity": 51,
                "duration": 0.11363636363636509,
                "tempo": 120.0
            },
            {
                "start_time": 15.893181818181818,
                "end_time": 16.006818181818183,
                "pitch": 77,
                "velocity": 51,
                "duration": 0.11363636363636509,
                "tempo": 120.0
            },
            {
                "start_time": 16.022727272727273,
                "end_time": 16.143181818181816,
                "pitch": 80,
                "velocity": 51,
                "duration": 0.12045454545454248,
                "tempo": 120.0
            },
            {
                "start_time": 16.15909090909091,
                "end_time": 16.279545454545453,
                "pitch": 80,
                "velocity": 51,
                "duration": 0.12045454545454248,
                "tempo": 120.0
            },
            {
                "start_time": 16.295454545454543,
                "end_time": 16.41590909090909,
                "pitch": 80,
                "velocity": 51,
                "duration": 0.12045454545454604,
                "tempo": 120.0
            },
            {
                "start_time": 16.43409090909091,
                "end_time": 16.547727272727272,
                "pitch": 80,
                "velocity": 51,
                "duration": 0.11363636363636331,
                "tempo": 120.0
            },
            {
                "start_time": 16.563636363636363,
                "end_time": 16.679545454545455,
                "pitch": 80,
                "velocity": 51,
                "duration": 0.11590909090909207,
                "tempo": 120.0
            },
            {
                "start_time": 16.695454545454545,
                "end_time": 16.80909090909091,
                "pitch": 80,
                "velocity": 51,
                "duration": 0.11363636363636331,
                "tempo": 120.0
            },
            {
                "start_time": 16.825,
                "end_time": 16.945454545454545,
                "pitch": 80,
                "velocity": 51,
                "duration": 0.12045454545454604,
                "tempo": 120.0
            },
            {
                "start_time": 16.961363636363636,
                "end_time": 17.081818181818182,
                "pitch": 80,
                "velocity": 51,
                "duration": 0.12045454545454604,
                "tempo": 120.0
            },
            {
                "start_time": 17.097727272727273,
                "end_time": 17.21818181818182,
                "pitch": 80,
                "velocity": 51,
                "duration": 0.12045454545454604,
                "tempo": 120.0
            },
            {
                "start_time": 17.236363636363635,
                "end_time": 17.349999999999998,
                "pitch": 80,
                "velocity": 51,
                "duration": 0.11363636363636331,
                "tempo": 120.0
            },
            {
                "start_time": 17.36590909090909,
                "end_time": 17.48181818181818,
                "pitch": 80,
                "velocity": 51,
                "duration": 0.11590909090909207,
                "tempo": 120.0
            },
            {
                "start_time": 17.49772727272727,
                "end_time": 17.611363636363635,
                "pitch": 80,
                "velocity": 51,
                "duration": 0.11363636363636331,
                "tempo": 120.0
            },
            {
                "start_time": 17.627272727272725,
                "end_time": 17.743181818181817,
                "pitch": 77,
                "velocity": 51,
                "duration": 0.11590909090909207,
                "tempo": 120.0
            },
            {
                "start_time": 17.759090909090908,
                "end_time": 17.87272727272727,
                "pitch": 77,
                "velocity": 51,
                "duration": 0.11363636363636331,
                "tempo": 120.0
            },
            {
                "start_time": 17.888636363636362,
                "end_time": 18.004545454545454,
                "pitch": 77,
                "velocity": 51,
                "duration": 0.11590909090909207,
                "tempo": 120.0
            },
            {
                "start_time": 18.020454545454545,
                "end_time": 18.14090909090909,
                "pitch": 77,
                "velocity": 51,
                "duration": 0.12045454545454604,
                "tempo": 120.0
            },
            {
                "start_time": 18.15681818181818,
                "end_time": 18.277272727272727,
                "pitch": 77,
                "velocity": 51,
                "duration": 0.12045454545454604,
                "tempo": 120.0
            },
            {
                "start_time": 18.293181818181818,
                "end_time": 18.413636363636364,
                "pitch": 77,
                "velocity": 51,
                "duration": 0.12045454545454604,
                "tempo": 120.0
            },
            {
                "start_time": 18.43181818181818,
                "end_time": 18.55,
                "pitch": 77,
                "velocity": 51,
                "duration": 0.11818181818182083,
                "tempo": 120.0
            },
            {
                "start_time": 18.568181818181817,
                "end_time": 18.688636363636363,
                "pitch": 77,
                "velocity": 51,
                "duration": 0.12045454545454604,
                "tempo": 120.0
            },
            {
                "start_time": 18.704545454545453,
                "end_time": 18.825,
                "pitch": 77,
                "velocity": 51,
                "duration": 0.12045454545454604,
                "tempo": 120.0
            },
            {
                "start_time": 18.84318181818182,
                "end_time": 18.956818181818182,
                "pitch": 77,
                "velocity": 51,
                "duration": 0.11363636363636331,
                "tempo": 120.0
            },
            {
                "start_time": 18.972727272727273,
                "end_time": 19.086363636363636,
                "pitch": 77,
                "velocity": 51,
                "duration": 0.11363636363636331,
                "tempo": 120.0
            },
            {
                "start_time": 19.104545454545455,
                "end_time": 19.21818181818182,
                "pitch": 77,
                "velocity": 51,
                "duration": 0.11363636363636331,
                "tempo": 120.0
            },
            {
                "start_time": 19.25,
                "end_time": 19.354545454545452,
                "pitch": 80,
                "velocity": 51,
                "duration": 0.10454545454545183,
                "tempo": 120.0
            },
            {
                "start_time": 19.370454545454546,
                "end_time": 19.49090909090909,
                "pitch": 80,
                "velocity": 51,
                "duration": 0.12045454545454248,
                "tempo": 120.0
            },
            {
                "start_time": 19.50681818181818,
                "end_time": 19.627272727272725,
                "pitch": 80,
                "velocity": 51,
                "duration": 0.12045454545454604,
                "tempo": 120.0
            },
            {
                "start_time": 19.645454545454545,
                "end_time": 19.759090909090908,
                "pitch": 80,
                "velocity": 51,
                "duration": 0.11363636363636331,
                "tempo": 120.0
            },
            {
                "start_time": 19.775,
                "end_time": 19.89090909090909,
                "pitch": 80,
                "velocity": 51,
                "duration": 0.11590909090909207,
                "tempo": 120.0
            },
            {
                "start_time": 19.90681818181818,
                "end_time": 20.020454545454545,
                "pitch": 80,
                "velocity": 51,
                "duration": 0.11363636363636331,
                "tempo": 120.0
            },
            {
                "start_time": 20.036363636363635,
                "end_time": 20.152272727272727,
                "pitch": 80,
                "velocity": 51,
                "duration": 0.11590909090909207,
                "tempo": 120.0
            },
            {
                "start_time": 20.168181818181818,
                "end_time": 20.28181818181818,
                "pitch": 80,
                "velocity": 51,
                "duration": 0.11363636363636331,
                "tempo": 120.0
            },
            {
                "start_time": 20.297727272727272,
                "end_time": 20.413636363636364,
                "pitch": 80,
                "velocity": 51,
                "duration": 0.11590909090909207,
                "tempo": 120.0
            },
            {
                "start_time": 20.429545454545455,
                "end_time": 20.55,
                "pitch": 80,
                "velocity": 51,
                "duration": 0.12045454545454604,
                "tempo": 120.0
            },
            {
                "start_time": 20.56590909090909,
                "end_time": 20.686363636363634,
                "pitch": 80,
                "velocity": 51,
                "duration": 0.12045454545454248,
                "tempo": 120.0
            },
            {
                "start_time": 20.702272727272724,
                "end_time": 20.82272727272727,
                "pitch": 80,
                "velocity": 51,
                "duration": 0.12045454545454604,
                "tempo": 120.0
            },
            {
                "start_time": 20.84090909090909,
                "end_time": 20.954545454545453,
                "pitch": 77,
                "velocity": 51,
                "duration": 0.11363636363636331,
                "tempo": 120.0
            },
            {
                "start_time": 20.970454545454544,
                "end_time": 21.084090909090907,
                "pitch": 77,
                "velocity": 51,
                "duration": 0.11363636363636331,
                "tempo": 120.0
            },
            {
                "start_time": 21.102272727272727,
                "end_time": 21.21590909090909,
                "pitch": 77,
                "velocity": 51,
                "duration": 0.11363636363636331,
                "tempo": 120.0
            },
            {
                "start_time": 21.23181818181818,
                "end_time": 21.352272727272727,
                "pitch": 77,
                "velocity": 51,
                "duration": 0.12045454545454604,
                "tempo": 120.0
            },
            {
                "start_time": 21.368181818181817,
                "end_time": 21.488636363636363,
                "pitch": 77,
                "velocity": 51,
                "duration": 0.12045454545454604,
                "tempo": 120.0
            },
            {
                "start_time": 21.504545454545454,
                "end_time": 21.625,
                "pitch": 77,
                "velocity": 51,
                "duration": 0.12045454545454604,
                "tempo": 120.0
            },
            {
                "start_time": 21.643181818181816,
                "end_time": 21.761363636363637,
                "pitch": 77,
                "velocity": 51,
                "duration": 0.11818181818182083,
                "tempo": 120.0
            },
            {
                "start_time": 21.779545454545453,
                "end_time": 21.9,
                "pitch": 77,
                "velocity": 51,
                "duration": 0.12045454545454604,
                "tempo": 120.0
            },
            {
                "start_time": 21.91590909090909,
                "end_time": 22.036363636363635,
                "pitch": 77,
                "velocity": 51,
                "duration": 0.12045454545454604,
                "tempo": 120.0
            },
            {
                "start_time": 22.054545454545455,
                "end_time": 22.168181818181818,
                "pitch": 77,
                "velocity": 51,
                "duration": 0.11363636363636331,
                "tempo": 120.0
            },
            {
                "start_time": 22.18409090909091,
                "end_time": 22.299999999999997,
                "pitch": 77,
                "velocity": 51,
                "duration": 0.11590909090908852,
                "tempo": 120.0
            },
            {
                "start_time": 22.31590909090909,
                "end_time": 22.429545454545455,
                "pitch": 77,
                "velocity": 51,
                "duration": 0.11363636363636331,
                "tempo": 120.0
            },
            {
                "start_time": 22.461363636363636,
                "end_time": 22.56590909090909,
                "pitch": 67,
                "velocity": 51,
                "duration": 0.10454545454545539,
                "tempo": 120.0
            },
            {
                "start_time": 22.581818181818182,
                "end_time": 22.702272727272724,
                "pitch": 67,
                "velocity": 51,
                "duration": 0.12045454545454248,
                "tempo": 120.0
            },
            {
                "start_time": 22.71818181818182,
                "end_time": 22.83863636363636,
                "pitch": 67,
                "velocity": 51,
                "duration": 0.12045454545454248,
                "tempo": 120.0
            },
            {
                "start_time": 22.85681818181818,
                "end_time": 22.970454545454544,
                "pitch": 67,
                "velocity": 51,
                "duration": 0.11363636363636331,
                "tempo": 120.0
            },
            {
                "start_time": 22.986363636363635,
                "end_time": 23.102272727272727,
                "pitch": 67,
                "velocity": 51,
                "duration": 0.11590909090909207,
                "tempo": 120.0
            },
            {
                "start_time": 23.118181818181817,
                "end_time": 23.23181818181818,
                "pitch": 67,
                "velocity": 51,
                "duration": 0.11363636363636331,
                "tempo": 120.0
            },
            {
                "start_time": 23.24772727272727,
                "end_time": 23.363636363636363,
                "pitch": 67,
                "velocity": 51,
                "duration": 0.11590909090909207,
                "tempo": 120.0
            },
            {
                "start_time": 23.379545454545454,
                "end_time": 23.493181818181817,
                "pitch": 67,
                "velocity": 51,
                "duration": 0.11363636363636331,
                "tempo": 120.0
            },
            {
                "start_time": 23.509090909090908,
                "end_time": 23.625,
                "pitch": 67,
                "velocity": 51,
                "duration": 0.11590909090909207,
                "tempo": 120.0
            },
            {
                "start_time": 23.64090909090909,
                "end_time": 23.761363636363637,
                "pitch": 67,
                "velocity": 51,
                "duration": 0.12045454545454604,
                "tempo": 120.0
            },
            {
                "start_time": 23.777272727272727,
                "end_time": 23.89772727272727,
                "pitch": 67,
                "velocity": 51,
                "duration": 0.12045454545454248,
                "tempo": 120.0
            },
            {
                "start_time": 23.913636363636364,
                "end_time": 24.034090909090907,
                "pitch": 67,
                "velocity": 51,
                "duration": 0.12045454545454248,
                "tempo": 120.0
            },
            {
                "start_time": 24.052272727272726,
                "end_time": 24.170454545454543,
                "pitch": 84,
                "velocity": 51,
                "duration": 0.11818181818181728,
                "tempo": 120.0
            },
            {
                "start_time": 24.188636363636363,
                "end_time": 24.30909090909091,
                "pitch": 84,
                "velocity": 51,
                "duration": 0.12045454545454604,
                "tempo": 120.0
            },
            {
                "start_time": 24.325,
                "end_time": 24.445454545454545,
                "pitch": 84,
                "velocity": 51,
                "duration": 0.12045454545454604,
                "tempo": 120.0
            },
            {
                "start_time": 24.461363636363636,
                "end_time": 24.57272727272727,
                "pitch": 84,
                "velocity": 51,
                "duration": 0.11136363636363455,
                "tempo": 120.0
            },
            {
                "start_time": 24.58863636363636,
                "end_time": 24.7,
                "pitch": 84,
                "velocity": 51,
                "duration": 0.11136363636363811,
                "tempo": 120.0
            },
            {
                "start_time": 24.71590909090909,
                "end_time": 24.829545454545453,
                "pitch": 84,
                "velocity": 51,
                "duration": 0.11363636363636331,
                "tempo": 120.0
            },
            {
                "start_time": 24.845454545454544,
                "end_time": 24.961363636363636,
                "pitch": 84,
                "velocity": 51,
                "duration": 0.11590909090909207,
                "tempo": 120.0
            }
        ]
    }
}