{
    "track_id": "Alex Kidd - The Lost Stars (FM) - 03 - Toy World _ Monster World",
    "mood": "happy",
    "instruments": {
        "Clarinet": [
            {
                "start_time": 50.543181818181814,
                "end_time": 50.57727272727273,
                "pitch": 60,
                "velocity": 51,
                "duration": 0.03409090909091361,
                "tempo": 120.0
            },
            {
                "start_time": 50.57727272727273,
                "end_time": 50.59318181818182,
                "pitch": 56,
                "velocity": 51,
                "duration": 0.01590909090909065,
                "tempo": 120.0
            },
            {
                "start_time": 50.59318181818182,
                "end_time": 50.625,
                "pitch": 54,
                "velocity": 51,
                "duration": 0.0318181818181813,
                "tempo": 120.0
            },
            {
                "start_time": 50.625,
                "end_time": 50.65909090909091,
                "pitch": 51,
                "velocity": 51,
                "duration": 0.03409090909090651,
                "tempo": 120.0
            },
            {
                "start_time": 50.65909090909091,
                "end_time": 50.69090909090909,
                "pitch": 48,
                "velocity": 51,
                "duration": 0.0318181818181813,
                "tempo": 120.0
            },
            {
                "start_time": 50.69090909090909,
                "end_time": 50.70681818181818,
                "pitch": 44,
                "velocity": 51,
                "duration": 0.01590909090909065,
                "tempo": 120.0
            },
            {
                "start_time": 50.70681818181818,
                "end_time": 50.740909090909085,
                "pitch": 42,
                "velocity": 51,
                "duration": 0.03409090909090651,
                "tempo": 120.0
            },
            {
                "start_time": 50.740909090909085,
                "end_time": 50.77272727272727,
                "pitch": 39,
                "velocity": 51,
                "duration": 0.03181818181818841,
                "tempo": 120.0
            },
            {
                "start_time": 50.77272727272727,
                "end_time": 50.804545454545455,
                "pitch": 36,
                "velocity": 51,
                "duration": 0.0318181818181813,
                "tempo": 120.0
            },
            {
                "start_time": 50.804545454545455,
                "end_time": 50.82272727272727,
                "pitch": 32,
                "velocity": 51,
                "duration": 0.018181818181815856,
                "tempo": 120.0
            },
            {
                "start_time": 50.82272727272727,
                "end_time": 50.85454545454545,
                "pitch": 30,
                "velocity": 51,
                "duration": 0.0318181818181813,
                "tempo": 120.0
            },
            {
                "start_time": 50.85454545454545,
                "end_time": 50.88636363636363,
                "pitch": 27,
                "velocity": 51,
                "duration": 0.0318181818181813,
                "tempo": 120.0
            },
            {
                "start_time": 50.88636363636363,
                "end_time": 50.92045454545454,
                "pitch": 24,
                "velocity": 51,
                "duration": 0.03409090909090651,
                "tempo": 120.0
            },
            {
                "start_time": 50.92045454545454,
                "end_time": 50.93636363636364,
                "pitch": 20,
                "velocity": 51,
                "duration": 0.015909090909097756,
                "tempo": 120.0
            },
            {
                "start_time": 50.93636363636364,
                "end_time": 51.002272727272725,
                "pitch": 57,
                "velocity": 51,
                "duration": 0.06590909090908781,
                "tempo": 120.0
            },
            {
                "start_time": 51.002272727272725,
                "end_time": 51.10227272727273,
                "pitch": 55,
                "velocity": 51,
                "duration": 0.10000000000000142,
                "tempo": 120.0
            },
            {
                "start_time": 51.10227272727273,
                "end_time": 51.18636363636364,
                "pitch": 52,
                "velocity": 51,
                "duration": 0.08409090909091077,
                "tempo": 120.0
            },
            {
                "start_time": 51.18636363636364,
                "end_time": 51.20227272727273,
                "pitch": 50,
                "velocity": 51,
                "duration": 0.01590909090909065,
                "tempo": 120.0
            },
            {
                "start_time": 51.20227272727273,
                "end_time": 51.268181818181816,
                "pitch": 57,
                "velocity": 51,
                "duration": 0.06590909090908781,
                "tempo": 120.0
            },
            {
                "start_time": 51.268181818181816,
                "end_time": 51.336363636363636,
                "pitch": 55,
                "velocity": 51,
                "duration": 0.06818181818182012,
                "tempo": 120.0
            }
        ],
        "Acoustic Bass": [
            {
                "start_time": 0.015909090909090907,
                "end_time": 0.3931818181818182,
                "pitch": 36,
                "velocity": 32,
                "duration": 0.37727272727272726,
                "tempo": 120.0
            },
            {
                "start_time": 0.40909090909090906,
                "end_time": 0.7840909090909091,
                "pitch": 40,
                "velocity": 32,
                "duration": 0.375,
                "tempo": 120.0
            },
            {
                "start_time": 0.7999999999999999,
                "end_time": 1.1772727272727272,
                "pitch": 43,
                "velocity": 32,
                "duration": 0.3772727272727273,
                "tempo": 120.0
            },
            {
                "start_time": 1.1931818181818181,
                "end_time": 1.45,
                "pitch": 40,
                "velocity": 32,
                "duration": 0.25681818181818183,
                "tempo": 120.0
            },
            {
                "start_time": 1.468181818181818,
                "end_time": 1.5886363636363636,
                "pitch": 43,
                "velocity": 32,
                "duration": 0.12045454545454559,
                "tempo": 120.0
            },
            {
                "start_time": 1.6045454545454545,
                "end_time": 1.8613636363636363,
                "pitch": 40,
                "velocity": 32,
                "duration": 0.25681818181818183,
                "tempo": 120.0
            },
            {
                "start_time": 1.8795454545454544,
                "end_time": 1.9977272727272726,
                "pitch": 40,
                "velocity": 32,
                "duration": 0.11818181818181817,
                "tempo": 120.0
            },
            {
                "start_time": 2.0136363636363637,
                "end_time": 2.3909090909090907,
                "pitch": 44,
                "velocity": 32,
                "duration": 0.377272727272727,
                "tempo": 120.0
            },
            {
                "start_time": 2.4068181818181817,
                "end_time": 2.784090909090909,
                "pitch": 47,
                "velocity": 32,
                "duration": 0.3772727272727274,
                "tempo": 120.0
            },
            {
                "start_time": 2.8,
                "end_time": 3.193181818181818,
                "pitch": 44,
                "velocity": 32,
                "duration": 0.3931818181818181,
                "tempo": 120.0
            },
            {
                "start_time": 3.209090909090909,
                "end_time": 3.586363636363636,
                "pitch": 45,
                "velocity": 32,
                "duration": 0.377272727272727,
                "tempo": 120.0
            },
            {
                "start_time": 3.602272727272727,
                "end_time": 3.995454545454545,
                "pitch": 40,
                "velocity": 32,
                "duration": 0.3931818181818181,
                "tempo": 120.0
            },
            {
                "start_time": 4.011363636363636,
                "end_time": 4.388636363636364,
                "pitch": 36,
                "velocity": 32,
                "duration": 0.37727272727272787,
                "tempo": 120.0
            },
            {
                "start_time": 4.404545454545454,
                "end_time": 4.661363636363636,
                "pitch": 40,
                "velocity": 32,
                "duration": 0.25681818181818183,
                "tempo": 120.0
            },
            {
                "start_time": 4.679545454545455,
                "end_time": 5.068181818181818,
                "pitch": 41,
                "velocity": 32,
                "duration": 0.38863636363636367,
                "tempo": 120.0
            },
            {
                "start_time": 5.084090909090909,
                "end_time": 5.202272727272727,
                "pitch": 41,
                "velocity": 32,
                "duration": 0.11818181818181817,
                "tempo": 120.0
            },
            {
                "start_time": 5.218181818181818,
                "end_time": 5.6045454545454545,
                "pitch": 45,
                "velocity": 32,
                "duration": 0.3863636363636367,
                "tempo": 120.0
            },
            {
                "start_time": 5.620454545454545,
                "end_time": 5.997727272727272,
                "pitch": 48,
                "velocity": 32,
                "duration": 0.377272727272727,
                "tempo": 120.0
            },
            {
                "start_time": 6.013636363636364,
                "end_time": 6.2704545454545455,
                "pitch": 45,
                "velocity": 32,
                "duration": 0.25681818181818183,
                "tempo": 120.0
            },
            {
                "start_time": 6.422727272727273,
                "end_time": 6.668181818181818,
                "pitch": 48,
                "velocity": 32,
                "duration": 0.24545454545454515,
                "tempo": 120.0
            },
            {
                "start_time": 6.684090909090909,
                "end_time": 6.8,
                "pitch": 52,
                "velocity": 32,
                "duration": 0.11590909090909118,
                "tempo": 120.0
            },
            {
                "start_time": 7.090909090909091,
                "end_time": 7.470454545454545,
                "pitch": 43,
                "velocity": 32,
                "duration": 0.37954545454545396,
                "tempo": 120.0
            },
            {
                "start_time": 7.486363636363636,
                "end_time": 7.602272727272727,
                "pitch": 43,
                "velocity": 32,
                "duration": 0.1159090909090903,
                "tempo": 120.0
            },
            {
                "start_time": 7.618181818181818,
                "end_time": 7.875,
                "pitch": 40,
                "velocity": 32,
                "duration": 0.25681818181818183,
                "tempo": 120.0
            },
            {
                "start_time": 7.893181818181818,
                "end_time": 8.013636363636364,
                "pitch": 43,
                "velocity": 32,
                "duration": 0.12045454545454604,
                "tempo": 120.0
            },
            {
                "start_time": 8.297727272727272,
                "end_time": 8.415909090909091,
                "pitch": 45,
                "velocity": 32,
                "duration": 0.11818181818181905,
                "tempo": 120.0
            },
            {
                "start_time": 8.431818181818182,
                "end_time": 8.818181818181818,
                "pitch": 49,
                "velocity": 32,
                "duration": 0.3863636363636367,
                "tempo": 120.0
            },
            {
                "start_time": 8.834090909090909,
                "end_time": 9.079545454545453,
                "pitch": 52,
                "velocity": 32,
                "duration": 0.24545454545454426,
                "tempo": 120.0
            },
            {
                "start_time": 9.095454545454546,
                "end_time": 9.347727272727273,
                "pitch": 49,
                "velocity": 32,
                "duration": 0.252272727272727,
                "tempo": 120.0
            },
            {
                "start_time": 9.363636363636363,
                "end_time": 9.620454545454544,
                "pitch": 45,
                "velocity": 32,
                "duration": 0.25681818181818095,
                "tempo": 120.0
            },
            {
                "start_time": 9.638636363636364,
                "end_time": 10.022727272727272,
                "pitch": 50,
                "velocity": 32,
                "duration": 0.38409090909090793,
                "tempo": 120.0
            },
            {
                "start_time": 10.040909090909091,
                "end_time": 10.424999999999999,
                "pitch": 45,
                "velocity": 32,
                "duration": 0.38409090909090793,
                "tempo": 120.0
            },
            {
                "start_time": 10.443181818181818,
                "end_time": 10.818181818181818,
                "pitch": 41,
                "velocity": 32,
                "duration": 0.375,
                "tempo": 120.0
            },
            {
                "start_time": 10.836363636363636,
                "end_time": 11.093181818181817,
                "pitch": 45,
                "velocity": 32,
                "duration": 0.25681818181818095,
                "tempo": 120.0
            },
            {
                "start_time": 11.10909090909091,
                "end_time": 11.497727272727273,
                "pitch": 43,
                "velocity": 32,
                "duration": 0.38863636363636367,
                "tempo": 120.0
            },
            {
                "start_time": 11.513636363636364,
                "end_time": 11.631818181818181,
                "pitch": 43,
                "velocity": 32,
                "duration": 0.11818181818181728,
                "tempo": 120.0
            },
            {
                "start_time": 11.647727272727272,
                "end_time": 12.034090909090908,
                "pitch": 47,
                "velocity": 32,
                "duration": 0.3863636363636367,
                "tempo": 120.0
            },
            {
                "start_time": 12.049999999999999,
                "end_time": 12.163636363636362,
                "pitch": 50,
                "velocity": 32,
                "duration": 0.11363636363636331,
                "tempo": 120.0
            },
            {
                "start_time": 12.181818181818182,
                "end_time": 12.295454545454545,
                "pitch": 48,
                "velocity": 32,
                "duration": 0.11363636363636331,
                "tempo": 120.0
            },
            {
                "start_time": 12.311363636363636,
                "end_time": 12.427272727272726,
                "pitch": 45,
                "velocity": 32,
                "duration": 0.1159090909090903,
                "tempo": 120.0
            },
            {
                "start_time": 12.443181818181818,
                "end_time": 12.829545454545453,
                "pitch": 43,
                "velocity": 32,
                "duration": 0.3863636363636349,
                "tempo": 120.0
            },
            {
                "start_time": 12.847727272727273,
                "end_time": 13.24090909090909,
                "pitch": 36,
                "velocity": 32,
                "duration": 0.39318181818181763,
                "tempo": 120.0
            },
            {
                "start_time": 13.256818181818181,
                "end_time": 13.643181818181818,
                "pitch": 40,
                "velocity": 32,
                "duration": 0.3863636363636367,
                "tempo": 120.0
            },
            {
                "start_time": 13.659090909090908,
                "end_time": 14.034090909090908,
                "pitch": 43,
                "velocity": 32,
                "duration": 0.375,
                "tempo": 120.0
            },
            {
                "start_time": 14.052272727272726,
                "end_time": 14.309090909090909,
                "pitch": 40,
                "velocity": 32,
                "duration": 0.2568181818181827,
                "tempo": 120.0
            },
            {
                "start_time": 14.327272727272726,
                "end_time": 14.445454545454545,
                "pitch": 43,
                "velocity": 32,
                "duration": 0.11818181818181905,
                "tempo": 120.0
            },
            {
                "start_time": 14.463636363636363,
                "end_time": 14.720454545454544,
                "pitch": 40,
                "velocity": 32,
                "duration": 0.25681818181818095,
                "tempo": 120.0
            },
            {
                "start_time": 14.736363636363636,
                "end_time": 14.85681818181818,
                "pitch": 40,
                "velocity": 32,
                "duration": 0.12045454545454426,
                "tempo": 120.0
            },
            {
                "start_time": 14.872727272727271,
                "end_time": 15.247727272727271,
                "pitch": 44,
                "velocity": 32,
                "duration": 0.375,
                "tempo": 120.0
            },
            {
                "start_time": 15.26590909090909,
                "end_time": 15.64090909090909,
                "pitch": 47,
                "velocity": 32,
                "duration": 0.375,
                "tempo": 120.0
            },
            {
                "start_time": 15.659090909090908,
                "end_time": 16.052272727272726,
                "pitch": 44,
                "velocity": 32,
                "duration": 0.39318181818181763,
                "tempo": 120.0
            },
            {
                "start_time": 16.068181818181817,
                "end_time": 16.443181818181817,
                "pitch": 45,
                "velocity": 32,
                "duration": 0.375,
                "tempo": 120.0
            },
            {
                "start_time": 16.461363636363636,
                "end_time": 16.854545454545455,
                "pitch": 40,
                "velocity": 32,
                "duration": 0.3931818181818194,
                "tempo": 120.0
            },
            {
                "start_time": 16.870454545454546,
                "end_time": 17.24772727272727,
                "pitch": 36,
                "velocity": 32,
                "duration": 0.3772727272727252,
                "tempo": 120.0
            },
            {
                "start_time": 17.263636363636362,
                "end_time": 17.520454545454545,
                "pitch": 40,
                "velocity": 32,
                "duration": 0.2568181818181827,
                "tempo": 120.0
            },
            {
                "start_time": 17.538636363636364,
                "end_time": 17.925,
                "pitch": 41,
                "velocity": 32,
                "duration": 0.3863636363636367,
                "tempo": 120.0
            },
            {
                "start_time": 17.94090909090909,
                "end_time": 18.05681818181818,
                "pitch": 41,
                "velocity": 32,
                "duration": 0.11590909090908852,
                "tempo": 120.0
            },
            {
                "start_time": 18.075,
                "end_time": 18.456818181818182,
                "pitch": 45,
                "velocity": 32,
                "duration": 0.3818181818181827,
                "tempo": 120.0
            },
            {
                "start_time": 18.472727272727273,
                "end_time": 18.849999999999998,
                "pitch": 48,
                "velocity": 32,
                "duration": 0.3772727272727252,
                "tempo": 120.0
            },
            {
                "start_time": 18.86590909090909,
                "end_time": 19.12272727272727,
                "pitch": 45,
                "velocity": 32,
                "duration": 0.2568181818181827,
                "tempo": 120.0
            },
            {
                "start_time": 19.275,
                "end_time": 19.652272727272727,
                "pitch": 36,
                "velocity": 32,
                "duration": 0.37727272727272876,
                "tempo": 120.0
            },
            {
                "start_time": 19.670454545454543,
                "end_time": 20.061363636363634,
                "pitch": 40,
                "velocity": 32,
                "duration": 0.39090909090909065,
                "tempo": 120.0
            },
            {
                "start_time": 20.079545454545453,
                "end_time": 20.454545454545453,
                "pitch": 43,
                "velocity": 32,
                "duration": 0.375,
                "tempo": 120.0
            },
            {
                "start_time": 20.472727272727273,
                "end_time": 20.729545454545452,
                "pitch": 40,
                "velocity": 32,
                "duration": 0.25681818181817917,
                "tempo": 120.0
            },
            {
                "start_time": 20.745454545454546,
                "end_time": 21.13181818181818,
                "pitch": 43,
                "velocity": 32,
                "duration": 0.38636363636363313,
                "tempo": 120.0
            },
            {
                "start_time": 21.15,
                "end_time": 21.26590909090909,
                "pitch": 43,
                "velocity": 32,
                "duration": 0.11590909090909207,
                "tempo": 120.0
            },
            {
                "start_time": 21.28181818181818,
                "end_time": 21.668181818181818,
                "pitch": 47,
                "velocity": 32,
                "duration": 0.3863636363636367,
                "tempo": 120.0
            },
            {
                "start_time": 21.68409090909091,
                "end_time": 22.061363636363634,
                "pitch": 50,
                "velocity": 32,
                "duration": 0.3772727272727252,
                "tempo": 120.0
            },
            {
                "start_time": 22.077272727272724,
                "end_time": 22.46363636363636,
                "pitch": 47,
                "velocity": 32,
                "duration": 0.3863636363636367,
                "tempo": 120.0
            },
            {
                "start_time": 22.479545454545452,
                "end_time": 22.863636363636363,
                "pitch": 36,
                "velocity": 32,
                "duration": 0.3840909090909115,
                "tempo": 120.0
            },
            {
                "start_time": 22.879545454545454,
                "end_time": 23.136363636363637,
                "pitch": 40,
                "velocity": 32,
                "duration": 0.2568181818181827,
                "tempo": 120.0
            },
            {
                "start_time": 23.154545454545453,
                "end_time": 23.272727272727273,
                "pitch": 43,
                "velocity": 32,
                "duration": 0.11818181818182083,
                "tempo": 120.0
            },
            {
                "start_time": 23.288636363636364,
                "end_time": 23.534090909090907,
                "pitch": 41,
                "velocity": 32,
                "duration": 0.24545454545454248,
                "tempo": 120.0
            },
            {
                "start_time": 23.549999999999997,
                "end_time": 23.66590909090909,
                "pitch": 45,
                "velocity": 32,
                "duration": 0.11590909090909207,
                "tempo": 120.0
            },
            {
                "start_time": 23.68409090909091,
                "end_time": 23.94090909090909,
                "pitch": 48,
                "velocity": 32,
                "duration": 0.2568181818181827,
                "tempo": 120.0
            },
            {
                "start_time": 23.956818181818182,
                "end_time": 24.075,
                "pitch": 36,
                "velocity": 32,
                "duration": 0.11818181818181728,
                "tempo": 120.0
            },
            {
                "start_time": 24.759090909090908,
                "end_time": 24.879545454545454,
                "pitch": 36,
                "velocity": 32,
                "duration": 0.12045454545454604,
                "tempo": 120.0
            },
            {
                "start_time": 24.89772727272727,
                "end_time": 25.29090909090909,
                "pitch": 38,
                "velocity": 32,
                "duration": 0.3931818181818194,
                "tempo": 120.0
            },
            {
                "start_time": 25.30681818181818,
                "end_time": 25.68181818181818,
                "pitch": 40,
                "velocity": 32,
                "duration": 0.375,
                "tempo": 120.0
            },
            {
                "start_time": 25.7,
                "end_time": 25.956818181818182,
                "pitch": 41,
                "velocity": 32,
                "duration": 0.2568181818181827,
                "tempo": 120.0
            },
            {
                "start_time": 26.370454545454542,
                "end_time": 26.48409090909091,
                "pitch": 41,
                "velocity": 32,
                "duration": 0.11363636363636687,
                "tempo": 120.0
            },
            {
                "start_time": 26.502272727272725,
                "end_time": 26.745454545454542,
                "pitch": 45,
                "velocity": 32,
                "duration": 0.24318181818181728,
                "tempo": 120.0
            },
            {
                "start_time": 26.763636363636362,
                "end_time": 26.877272727272725,
                "pitch": 48,
                "velocity": 32,
                "duration": 0.11363636363636331,
                "tempo": 120.0
            },
            {
                "start_time": 27.168181818181818,
                "end_time": 27.549999999999997,
                "pitch": 51,
                "velocity": 32,
                "duration": 0.38181818181817917,
                "tempo": 120.0
            },
            {
                "start_time": 27.565909090909088,
                "end_time": 27.679545454545455,
                "pitch": 51,
                "velocity": 32,
                "duration": 0.11363636363636687,
                "tempo": 120.0
            },
            {
                "start_time": 27.69772727272727,
                "end_time": 28.079545454545453,
                "pitch": 50,
                "velocity": 32,
                "duration": 0.3818181818181827,
                "tempo": 120.0
            },
            {
                "start_time": 28.097727272727273,
                "end_time": 28.48409090909091,
                "pitch": 48,
                "velocity": 32,
                "duration": 0.3863636363636367,
                "tempo": 120.0
            },
            {
                "start_time": 28.5,
                "end_time": 28.75681818181818,
                "pitch": 45,
                "velocity": 32,
                "duration": 0.25681818181817917,
                "tempo": 120.0
            },
            {
                "start_time": 28.775,
                "end_time": 28.893181818181816,
                "pitch": 48,
                "velocity": 32,
                "duration": 0.11818181818181728,
                "tempo": 120.0
            },
            {
                "start_time": 28.909090909090907,
                "end_time": 29.154545454545453,
                "pitch": 36,
                "velocity": 32,
                "duration": 0.24545454545454604,
                "tempo": 120.0
            },
            {
                "start_time": 29.577272727272724,
                "end_time": 29.695454545454545,
                "pitch": 36,
                "velocity": 32,
                "duration": 0.11818181818182083,
                "tempo": 120.0
            },
            {
                "start_time": 29.711363636363636,
                "end_time": 29.956818181818182,
                "pitch": 40,
                "velocity": 32,
                "duration": 0.24545454545454604,
                "tempo": 120.0
            },
            {
                "start_time": 29.972727272727273,
                "end_time": 30.08863636363636,
                "pitch": 43,
                "velocity": 32,
                "duration": 0.11590909090908852,
                "tempo": 120.0
            },
            {
                "start_time": 30.379545454545454,
                "end_time": 30.768181818181816,
                "pitch": 46,
                "velocity": 32,
                "duration": 0.3886363636363619,
                "tempo": 120.0
            },
            {
                "start_time": 30.784090909090907,
                "end_time": 30.902272727272727,
                "pitch": 46,
                "velocity": 32,
                "duration": 0.11818181818182083,
                "tempo": 120.0
            },
            {
                "start_time": 30.918181818181818,
                "end_time": 31.293181818181818,
                "pitch": 45,
                "velocity": 32,
                "duration": 0.375,
                "tempo": 120.0
            },
            {
                "start_time": 31.311363636363634,
                "end_time": 31.693181818181817,
                "pitch": 43,
                "velocity": 32,
                "duration": 0.3818181818181827,
                "tempo": 120.0
            },
            {
                "start_time": 31.711363636363636,
                "end_time": 31.968181818181815,
                "pitch": 40,
                "velocity": 32,
                "duration": 0.25681818181817917,
                "tempo": 120.0
            },
            {
                "start_time": 31.984090909090906,
                "end_time": 32.10454545454545,
                "pitch": 43,
                "velocity": 32,
                "duration": 0.12045454545454604,
                "tempo": 120.0
            },
            {
                "start_time": 32.12045454545454,
                "end_time": 32.36590909090909,
                "pitch": 41,
                "velocity": 32,
                "duration": 0.2454545454545496,
                "tempo": 120.0
            },
            {
                "start_time": 32.788636363636364,
                "end_time": 32.90681818181818,
                "pitch": 41,
                "velocity": 32,
                "duration": 0.11818181818181728,
                "tempo": 120.0
            },
            {
                "start_time": 32.92272727272727,
                "end_time": 33.168181818181814,
                "pitch": 45,
                "velocity": 32,
                "duration": 0.24545454545454248,
                "tempo": 120.0
            },
            {
                "start_time": 33.184090909090905,
                "end_time": 33.3,
                "pitch": 48,
                "velocity": 32,
                "duration": 0.11590909090909207,
                "tempo": 120.0
            },
            {
                "start_time": 33.590909090909086,
                "end_time": 33.970454545454544,
                "pitch": 51,
                "velocity": 32,
                "duration": 0.3795454545454575,
                "tempo": 120.0
            },
            {
                "start_time": 33.986363636363635,
                "end_time": 34.10227272727273,
                "pitch": 53,
                "velocity": 32,
                "duration": 0.11590909090909207,
                "tempo": 120.0
            },
            {
                "start_time": 34.11818181818182,
                "end_time": 34.502272727272725,
                "pitch": 50,
                "velocity": 32,
                "duration": 0.38409090909090793,
                "tempo": 120.0
            },
            {
                "start_time": 34.518181818181816,
                "end_time": 34.904545454545456,
                "pitch": 48,
                "velocity": 32,
                "duration": 0.38636363636364024,
                "tempo": 120.0
            },
            {
                "start_time": 34.92272727272727,
                "end_time": 35.179545454545455,
                "pitch": 45,
                "velocity": 32,
                "duration": 0.2568181818181827,
                "tempo": 120.0
            },
            {
                "start_time": 35.195454545454545,
                "end_time": 35.31590909090909,
                "pitch": 48,
                "velocity": 32,
                "duration": 0.12045454545454248,
                "tempo": 120.0
            },
            {
                "start_time": 35.33181818181818,
                "end_time": 35.449999999999996,
                "pitch": 43,
                "velocity": 32,
                "duration": 0.11818181818181728,
                "tempo": 120.0
            },
            {
                "start_time": 35.465909090909086,
                "end_time": 35.58181818181818,
                "pitch": 43,
                "velocity": 32,
                "duration": 0.11590909090909207,
                "tempo": 120.0
            },
            {
                "start_time": 35.6,
                "end_time": 35.715909090909086,
                "pitch": 43,
                "velocity": 32,
                "duration": 0.11590909090908497,
                "tempo": 120.0
            },
            {
                "start_time": 35.73181818181818,
                "end_time": 35.85,
                "pitch": 43,
                "velocity": 32,
                "duration": 0.11818181818182438,
                "tempo": 120.0
            },
            {
                "start_time": 35.86590909090909,
                "end_time": 35.98409090909091,
                "pitch": 43,
                "velocity": 32,
                "duration": 0.11818181818181728,
                "tempo": 120.0
            },
            {
                "start_time": 36.0,
                "end_time": 36.11818181818182,
                "pitch": 43,
                "velocity": 32,
                "duration": 0.11818181818181728,
                "tempo": 120.0
            },
            {
                "start_time": 36.13409090909091,
                "end_time": 36.252272727272725,
                "pitch": 47,
                "velocity": 32,
                "duration": 0.11818181818181728,
                "tempo": 120.0
            },
            {
                "start_time": 36.268181818181816,
                "end_time": 36.38409090909091,
                "pitch": 47,
                "velocity": 32,
                "duration": 0.11590909090909207,
                "tempo": 120.0
            },
            {
                "start_time": 36.402272727272724,
                "end_time": 36.518181818181816,
                "pitch": 47,
                "velocity": 32,
                "duration": 0.11590909090909207,
                "tempo": 120.0
            },
            {
                "start_time": 36.53409090909091,
                "end_time": 36.652272727272724,
                "pitch": 47,
                "velocity": 32,
                "duration": 0.11818181818181728,
                "tempo": 120.0
            },
            {
                "start_time": 36.668181818181814,
                "end_time": 36.78409090909091,
                "pitch": 47,
                "velocity": 32,
                "duration": 0.11590909090909207,
                "tempo": 120.0
            },
            {
                "start_time": 36.80227272727272,
                "end_time": 36.918181818181814,
                "pitch": 47,
                "velocity": 32,
                "duration": 0.11590909090909207,
                "tempo": 120.0
            },
            {
                "start_time": 36.934090909090905,
                "end_time": 37.184090909090905,
                "pitch": 55,
                "velocity": 32,
                "duration": 0.25,
                "tempo": 120.0
            },
            {
                "start_time": 37.33409090909091,
                "end_time": 38.793181818181814,
                "pitch": 63,
                "velocity": 32,
                "duration": 1.4590909090909037,
                "tempo": 120.0
            },
            {
                "start_time": 39.209090909090904,
                "end_time": 39.324999999999996,
                "pitch": 41,
                "velocity": 32,
                "duration": 0.11590909090909207,
                "tempo": 120.0
            },
            {
                "start_time": 39.340909090909086,
                "end_time": 39.586363636363636,
                "pitch": 45,
                "velocity": 32,
                "duration": 0.2454545454545496,
                "tempo": 120.0
            },
            {
                "start_time": 39.60227272727273,
                "end_time": 39.71818181818182,
                "pitch": 48,
                "velocity": 32,
                "duration": 0.11590909090909207,
                "tempo": 120.0
            },
            {
                "start_time": 40.00909090909091,
                "end_time": 40.38863636363636,
                "pitch": 51,
                "velocity": 32,
                "duration": 0.3795454545454504,
                "tempo": 120.0
            },
            {
                "start_time": 40.404545454545456,
                "end_time": 40.52045454545454,
                "pitch": 51,
                "velocity": 32,
                "duration": 0.11590909090908497,
                "tempo": 120.0
            },
            {
                "start_time": 40.53636363636363,
                "end_time": 40.92272727272727,
                "pitch": 50,
                "velocity": 32,
                "duration": 0.38636363636364024,
                "tempo": 120.0
            },
            {
                "start_time": 40.93863636363636,
                "end_time": 41.32272727272727,
                "pitch": 48,
                "velocity": 32,
                "duration": 0.38409090909090793,
                "tempo": 120.0
            },
            {
                "start_time": 41.33863636363636,
                "end_time": 41.58863636363636,
                "pitch": 45,
                "velocity": 32,
                "duration": 0.25,
                "tempo": 120.0
            },
            {
                "start_time": 41.60454545454545,
                "end_time": 41.72272727272727,
                "pitch": 48,
                "velocity": 32,
                "duration": 0.11818181818181728,
                "tempo": 120.0
            },
            {
                "start_time": 41.73863636363636,
                "end_time": 41.98863636363636,
                "pitch": 36,
                "velocity": 32,
                "duration": 0.25,
                "tempo": 120.0
            },
            {
                "start_time": 42.40454545454545,
                "end_time": 42.52272727272727,
                "pitch": 36,
                "velocity": 32,
                "duration": 0.11818181818182438,
                "tempo": 120.0
            },
            {
                "start_time": 42.538636363636364,
                "end_time": 42.79090909090909,
                "pitch": 40,
                "velocity": 32,
                "duration": 0.2522727272727252,
                "tempo": 120.0
            },
            {
                "start_time": 42.80681818181818,
                "end_time": 42.925,
                "pitch": 43,
                "velocity": 32,
                "duration": 0.11818181818181728,
                "tempo": 120.0
            },
            {
                "start_time": 43.215909090909086,
                "end_time": 43.59772727272727,
                "pitch": 46,
                "velocity": 32,
                "duration": 0.3818181818181827,
                "tempo": 120.0
            },
            {
                "start_time": 43.61363636363636,
                "end_time": 43.72727272727273,
                "pitch": 46,
                "velocity": 32,
                "duration": 0.11363636363636687,
                "tempo": 120.0
            },
            {
                "start_time": 43.74545454545454,
                "end_time": 44.127272727272725,
                "pitch": 45,
                "velocity": 32,
                "duration": 0.3818181818181827,
                "tempo": 120.0
            },
            {
                "start_time": 44.14545454545454,
                "end_time": 44.527272727272724,
                "pitch": 43,
                "velocity": 32,
                "duration": 0.3818181818181827,
                "tempo": 120.0
            },
            {
                "start_time": 44.54545454545455,
                "end_time": 44.79545454545455,
                "pitch": 40,
                "velocity": 32,
                "duration": 0.25,
                "tempo": 120.0
            },
            {
                "start_time": 44.81363636363636,
                "end_time": 44.929545454545455,
                "pitch": 43,
                "velocity": 32,
                "duration": 0.11590909090909207,
                "tempo": 120.0
            },
            {
                "start_time": 44.94772727272727,
                "end_time": 45.19772727272727,
                "pitch": 41,
                "velocity": 32,
                "duration": 0.25,
                "tempo": 120.0
            },
            {
                "start_time": 45.62272727272727,
                "end_time": 45.74090909090909,
                "pitch": 41,
                "velocity": 32,
                "duration": 0.11818181818182438,
                "tempo": 120.0
            },
            {
                "start_time": 45.75681818181818,
                "end_time": 46.002272727272725,
                "pitch": 45,
                "velocity": 32,
                "duration": 0.24545454545454248,
                "tempo": 120.0
            },
            {
                "start_time": 46.018181818181816,
                "end_time": 46.13409090909091,
                "pitch": 48,
                "velocity": 32,
                "duration": 0.11590909090909207,
                "tempo": 120.0
            },
            {
                "start_time": 46.425,
                "end_time": 46.804545454545455,
                "pitch": 51,
                "velocity": 32,
                "duration": 0.3795454545454575,
                "tempo": 120.0
            },
            {
                "start_time": 46.820454545454545,
                "end_time": 46.93636363636364,
                "pitch": 53,
                "velocity": 32,
                "duration": 0.11590909090909207,
                "tempo": 120.0
            },
            {
                "start_time": 46.95227272727273,
                "end_time": 47.336363636363636,
                "pitch": 50,
                "velocity": 32,
                "duration": 0.38409090909090793,
                "tempo": 120.0
            },
            {
                "start_time": 47.35227272727273,
                "end_time": 47.736363636363635,
                "pitch": 48,
                "velocity": 32,
                "duration": 0.38409090909090793,
                "tempo": 120.0
            },
            {
                "start_time": 47.752272727272725,
                "end_time": 48.002272727272725,
                "pitch": 45,
                "velocity": 32,
                "duration": 0.25,
                "tempo": 120.0
            },
            {
                "start_time": 48.02045454545454,
                "end_time": 48.13636363636363,
                "pitch": 48,
                "velocity": 32,
                "duration": 0.11590909090909207,
                "tempo": 120.0
            },
            {
                "start_time": 48.15454545454545,
                "end_time": 48.27272727272727,
                "pitch": 43,
                "velocity": 32,
                "duration": 0.11818181818182438,
                "tempo": 120.0
            },
            {
                "start_time": 48.29090909090909,
                "end_time": 48.41136363636363,
                "pitch": 43,
                "velocity": 32,
                "duration": 0.12045454545454248,
                "tempo": 120.0
            },
            {
                "start_time": 48.42727272727272,
                "end_time": 48.54772727272727,
                "pitch": 43,
                "velocity": 32,
                "duration": 0.12045454545454959,
                "tempo": 120.0
            },
            {
                "start_time": 48.56363636363636,
                "end_time": 48.679545454545455,
                "pitch": 43,
                "velocity": 32,
                "duration": 0.11590909090909207,
                "tempo": 120.0
            },
            {
                "start_time": 48.69772727272727,
                "end_time": 48.81363636363636,
                "pitch": 43,
                "velocity": 32,
                "duration": 0.11590909090909207,
                "tempo": 120.0
            },
            {
                "start_time": 48.82954545454545,
                "end_time": 48.94772727272727,
                "pitch": 43,
                "velocity": 32,
                "duration": 0.11818181818181728,
                "tempo": 120.0
            },
            {
                "start_time": 48.96363636363636,
                "end_time": 49.07954545454545,
                "pitch": 47,
                "velocity": 32,
                "duration": 0.11590909090909207,
                "tempo": 120.0
            },
            {
                "start_time": 49.09772727272727,
                "end_time": 49.21363636363636,
                "pitch": 47,
                "velocity": 32,
                "duration": 0.11590909090909207,
                "tempo": 120.0
            },
            {
                "start_time": 49.22954545454545,
                "end_time": 49.34772727272727,
                "pitch": 47,
                "velocity": 32,
                "duration": 0.11818181818181728,
                "tempo": 120.0
            },
            {
                "start_time": 49.36363636363636,
                "end_time": 49.47954545454545,
                "pitch": 47,
                "velocity": 32,
                "duration": 0.11590909090909207,
                "tempo": 120.0
            },
            {
                "start_time": 49.49772727272727,
                "end_time": 49.61363636363636,
                "pitch": 47,
                "velocity": 32,
                "duration": 0.11590909090909207,
                "tempo": 120.0
            },
            {
                "start_time": 49.62954545454545,
                "end_time": 49.74772727272727,
                "pitch": 47,
                "velocity": 32,
                "duration": 0.11818181818181728,
                "tempo": 120.0
            },
            {
                "start_time": 49.76363636363636,
                "end_time": 50.01590909090909,
                "pitch": 55,
                "velocity": 32,
                "duration": 0.2522727272727323,
                "tempo": 120.0
            },
            {
                "start_time": 50.83863636363636,
                "end_time": 51.35227272727273,
                "pitch": 55,
                "velocity": 32,
                "duration": 0.5136363636363654,
                "tempo": 120.0
            }
        ],
        "Church Organ": [
            {
                "start_time": 0.375,
                "end_time": 0.7522727272727272,
                "pitch": 64,
                "velocity": 40,
                "duration": 0.3772727272727272,
                "tempo": 120.0
            },
            {
                "start_time": 1.0295454545454545,
                "end_time": 1.143181818181818,
                "pitch": 64,
                "velocity": 40,
                "duration": 0.11363636363636354,
                "tempo": 120.0
            },
            {
                "start_time": 1.159090909090909,
                "end_time": 1.5545454545454545,
                "pitch": 60,
                "velocity": 40,
                "duration": 0.3954545454545455,
                "tempo": 120.0
            },
            {
                "start_time": 1.5704545454545453,
                "end_time": 1.9636363636363636,
                "pitch": 59,
                "velocity": 40,
                "duration": 0.3931818181818183,
                "tempo": 120.0
            },
            {
                "start_time": 1.9818181818181817,
                "end_time": 2.356818181818182,
                "pitch": 59,
                "velocity": 40,
                "duration": 0.3750000000000002,
                "tempo": 120.0
            },
            {
                "start_time": 2.375,
                "end_time": 2.75,
                "pitch": 64,
                "velocity": 40,
                "duration": 0.375,
                "tempo": 120.0
            },
            {
                "start_time": 2.7659090909090907,
                "end_time": 3.1590909090909087,
                "pitch": 64,
                "velocity": 40,
                "duration": 0.3931818181818181,
                "tempo": 120.0
            },
            {
                "start_time": 3.1772727272727272,
                "end_time": 4.225,
                "pitch": 64,
                "velocity": 40,
                "duration": 1.0477272727272724,
                "tempo": 120.0
            },
            {
                "start_time": 4.24090909090909,
                "end_time": 4.3545454545454545,
                "pitch": 64,
                "velocity": 40,
                "duration": 0.1136363636363642,
                "tempo": 120.0
            },
            {
                "start_time": 4.372727272727272,
                "end_time": 4.627272727272727,
                "pitch": 64,
                "velocity": 40,
                "duration": 0.25454545454545485,
                "tempo": 120.0
            },
            {
                "start_time": 4.6454545454545455,
                "end_time": 5.963636363636363,
                "pitch": 60,
                "velocity": 40,
                "duration": 1.3181818181818175,
                "tempo": 120.0
            },
            {
                "start_time": 5.9795454545454545,
                "end_time": 6.236363636363636,
                "pitch": 65,
                "velocity": 40,
                "duration": 0.25681818181818183,
                "tempo": 120.0
            },
            {
                "start_time": 6.390909090909091,
                "end_time": 6.636363636363636,
                "pitch": 64,
                "velocity": 40,
                "duration": 0.24545454545454515,
                "tempo": 120.0
            },
            {
                "start_time": 6.652272727272727,
                "end_time": 6.765909090909091,
                "pitch": 64,
                "velocity": 40,
                "duration": 0.11363636363636331,
                "tempo": 120.0
            },
            {
                "start_time": 7.584090909090909,
                "end_time": 7.840909090909091,
                "pitch": 64,
                "velocity": 40,
                "duration": 0.25681818181818183,
                "tempo": 120.0
            },
            {
                "start_time": 8.668181818181818,
                "end_time": 8.784090909090908,
                "pitch": 64,
                "velocity": 40,
                "duration": 0.1159090909090903,
                "tempo": 120.0
            },
            {
                "start_time": 8.802272727272728,
                "end_time": 9.045454545454545,
                "pitch": 64,
                "velocity": 40,
                "duration": 0.24318181818181728,
                "tempo": 120.0
            },
            {
                "start_time": 9.063636363636363,
                "end_time": 9.313636363636363,
                "pitch": 64,
                "velocity": 40,
                "duration": 0.25,
                "tempo": 120.0
            },
            {
                "start_time": 9.329545454545453,
                "end_time": 9.586363636363636,
                "pitch": 64,
                "velocity": 40,
                "duration": 0.2568181818181827,
                "tempo": 120.0
            },
            {
                "start_time": 9.604545454545454,
                "end_time": 10.654545454545454,
                "pitch": 65,
                "velocity": 40,
                "duration": 1.0500000000000007,
                "tempo": 120.0
            },
            {
                "start_time": 10.670454545454545,
                "end_time": 10.786363636363635,
                "pitch": 69,
                "velocity": 40,
                "duration": 0.1159090909090903,
                "tempo": 120.0
            },
            {
                "start_time": 11.211363636363636,
                "end_time": 12.0,
                "pitch": 67,
                "velocity": 40,
                "duration": 0.788636363636364,
                "tempo": 120.0
            },
            {
                "start_time": 12.018181818181818,
                "end_time": 12.393181818181818,
                "pitch": 67,
                "velocity": 40,
                "duration": 0.375,
                "tempo": 120.0
            },
            {
                "start_time": 12.409090909090908,
                "end_time": 12.795454545454545,
                "pitch": 67,
                "velocity": 40,
                "duration": 0.3863636363636367,
                "tempo": 120.0
            },
            {
                "start_time": 13.222727272727273,
                "end_time": 13.609090909090908,
                "pitch": 64,
                "velocity": 40,
                "duration": 0.3863636363636349,
                "tempo": 120.0
            },
            {
                "start_time": 13.888636363636364,
                "end_time": 14.002272727272727,
                "pitch": 64,
                "velocity": 40,
                "duration": 0.11363636363636331,
                "tempo": 120.0
            },
            {
                "start_time": 14.018181818181818,
                "end_time": 14.411363636363635,
                "pitch": 60,
                "velocity": 40,
                "duration": 0.39318181818181763,
                "tempo": 120.0
            },
            {
                "start_time": 14.429545454545455,
                "end_time": 14.822727272727272,
                "pitch": 59,
                "velocity": 40,
                "duration": 0.39318181818181763,
                "tempo": 120.0
            },
            {
                "start_time": 14.84090909090909,
                "end_time": 15.21590909090909,
                "pitch": 59,
                "velocity": 40,
                "duration": 0.375,
                "tempo": 120.0
            },
            {
                "start_time": 15.23181818181818,
                "end_time": 15.609090909090908,
                "pitch": 64,
                "velocity": 40,
                "duration": 0.377272727272727,
                "tempo": 120.0
            },
            {
                "start_time": 15.625,
                "end_time": 16.018181818181816,
                "pitch": 64,
                "velocity": 40,
                "duration": 0.39318181818181586,
                "tempo": 120.0
            },
            {
                "start_time": 16.03409090909091,
                "end_time": 17.081818181818182,
                "pitch": 64,
                "velocity": 40,
                "duration": 1.047727272727272,
                "tempo": 120.0
            },
            {
                "start_time": 17.099999999999998,
                "end_time": 17.21363636363636,
                "pitch": 64,
                "velocity": 40,
                "duration": 0.11363636363636331,
                "tempo": 120.0
            },
            {
                "start_time": 17.229545454545455,
                "end_time": 17.486363636363635,
                "pitch": 64,
                "velocity": 40,
                "duration": 0.25681818181817917,
                "tempo": 120.0
            },
            {
                "start_time": 17.504545454545454,
                "end_time": 18.81590909090909,
                "pitch": 60,
                "velocity": 40,
                "duration": 1.3113636363636374,
                "tempo": 120.0
            },
            {
                "start_time": 18.831818181818182,
                "end_time": 19.08863636363636,
                "pitch": 65,
                "velocity": 40,
                "duration": 0.25681818181817917,
                "tempo": 120.0
            },
            {
                "start_time": 19.243181818181817,
                "end_time": 19.89090909090909,
                "pitch": 64,
                "velocity": 40,
                "duration": 0.6477272727272734,
                "tempo": 120.0
            },
            {
                "start_time": 19.909090909090907,
                "end_time": 20.029545454545453,
                "pitch": 64,
                "velocity": 40,
                "duration": 0.12045454545454604,
                "tempo": 120.0
            },
            {
                "start_time": 20.045454545454543,
                "end_time": 20.29090909090909,
                "pitch": 64,
                "velocity": 40,
                "duration": 0.24545454545454604,
                "tempo": 120.0
            },
            {
                "start_time": 20.30681818181818,
                "end_time": 20.831818181818182,
                "pitch": 64,
                "velocity": 40,
                "duration": 0.5250000000000021,
                "tempo": 120.0
            },
            {
                "start_time": 20.847727272727273,
                "end_time": 21.5,
                "pitch": 62,
                "velocity": 40,
                "duration": 0.6522727272727273,
                "tempo": 120.0
            },
            {
                "start_time": 21.518181818181816,
                "end_time": 21.634090909090908,
                "pitch": 62,
                "velocity": 40,
                "duration": 0.11590909090909207,
                "tempo": 120.0
            },
            {
                "start_time": 21.652272727272727,
                "end_time": 21.895454545454545,
                "pitch": 62,
                "velocity": 40,
                "duration": 0.24318181818181728,
                "tempo": 120.0
            },
            {
                "start_time": 21.913636363636364,
                "end_time": 22.429545454545455,
                "pitch": 62,
                "velocity": 40,
                "duration": 0.5159090909090907,
                "tempo": 120.0
            },
            {
                "start_time": 22.445454545454545,
                "end_time": 22.829545454545453,
                "pitch": 64,
                "velocity": 40,
                "duration": 0.38409090909090793,
                "tempo": 120.0
            },
            {
                "start_time": 22.845454545454544,
                "end_time": 23.24090909090909,
                "pitch": 64,
                "velocity": 40,
                "duration": 0.3954545454545446,
                "tempo": 120.0
            },
            {
                "start_time": 23.25681818181818,
                "end_time": 23.502272727272725,
                "pitch": 65,
                "velocity": 40,
                "duration": 0.24545454545454604,
                "tempo": 120.0
            },
            {
                "start_time": 23.518181818181816,
                "end_time": 23.63181818181818,
                "pitch": 65,
                "velocity": 40,
                "duration": 0.11363636363636331,
                "tempo": 120.0
            },
            {
                "start_time": 23.922727272727272,
                "end_time": 24.043181818181818,
                "pitch": 64,
                "velocity": 40,
                "duration": 0.12045454545454604,
                "tempo": 120.0
            },
            {
                "start_time": 24.861363636363635,
                "end_time": 25.118181818181817,
                "pitch": 64,
                "velocity": 40,
                "duration": 0.2568181818181827,
                "tempo": 120.0
            },
            {
                "start_time": 25.136363636363637,
                "end_time": 25.65,
                "pitch": 64,
                "velocity": 40,
                "duration": 0.5136363636363619,
                "tempo": 120.0
            },
            {
                "start_time": 25.68181818181818,
                "end_time": 27.254545454545454,
                "pitch": 65,
                "velocity": 40,
                "duration": 1.572727272727274,
                "tempo": 120.0
            },
            {
                "start_time": 27.53181818181818,
                "end_time": 27.64772727272727,
                "pitch": 65,
                "velocity": 40,
                "duration": 0.11590909090908852,
                "tempo": 120.0
            },
            {
                "start_time": 27.929545454545455,
                "end_time": 28.047727272727272,
                "pitch": 65,
                "velocity": 40,
                "duration": 0.11818181818181728,
                "tempo": 120.0
            },
            {
                "start_time": 28.063636363636363,
                "end_time": 28.45,
                "pitch": 65,
                "velocity": 40,
                "duration": 0.3863636363636367,
                "tempo": 120.0
            },
            {
                "start_time": 28.46590909090909,
                "end_time": 28.85909090909091,
                "pitch": 65,
                "velocity": 40,
                "duration": 0.3931818181818194,
                "tempo": 120.0
            },
            {
                "start_time": 28.877272727272725,
                "end_time": 30.46590909090909,
                "pitch": 64,
                "velocity": 40,
                "duration": 1.5886363636363647,
                "tempo": 120.0
            },
            {
                "start_time": 30.75,
                "end_time": 30.868181818181817,
                "pitch": 64,
                "velocity": 40,
                "duration": 0.11818181818181728,
                "tempo": 120.0
            },
            {
                "start_time": 31.145454545454545,
                "end_time": 31.261363636363633,
                "pitch": 64,
                "velocity": 40,
                "duration": 0.11590909090908852,
                "tempo": 120.0
            },
            {
                "start_time": 31.277272727272727,
                "end_time": 31.661363636363635,
                "pitch": 64,
                "velocity": 40,
                "duration": 0.38409090909090793,
                "tempo": 120.0
            },
            {
                "start_time": 31.677272727272726,
                "end_time": 32.070454545454545,
                "pitch": 64,
                "velocity": 40,
                "duration": 0.3931818181818194,
                "tempo": 120.0
            },
            {
                "start_time": 32.08863636363636,
                "end_time": 33.675,
                "pitch": 65,
                "velocity": 40,
                "duration": 1.586363636363636,
                "tempo": 120.0
            },
            {
                "start_time": 33.95454545454545,
                "end_time": 34.06818181818181,
                "pitch": 65,
                "velocity": 40,
                "duration": 0.11363636363635976,
                "tempo": 120.0
            },
            {
                "start_time": 34.35227272727273,
                "end_time": 34.46818181818182,
                "pitch": 65,
                "velocity": 40,
                "duration": 0.11590909090909207,
                "tempo": 120.0
            },
            {
                "start_time": 34.486363636363635,
                "end_time": 34.87045454545454,
                "pitch": 65,
                "velocity": 40,
                "duration": 0.38409090909090793,
                "tempo": 120.0
            },
            {
                "start_time": 34.888636363636365,
                "end_time": 35.28181818181818,
                "pitch": 65,
                "velocity": 40,
                "duration": 0.39318181818181586,
                "tempo": 120.0
            },
            {
                "start_time": 35.29772727272727,
                "end_time": 35.41590909090909,
                "pitch": 67,
                "velocity": 40,
                "duration": 0.11818181818181728,
                "tempo": 120.0
            },
            {
                "start_time": 35.43181818181818,
                "end_time": 35.55,
                "pitch": 67,
                "velocity": 40,
                "duration": 0.11818181818181728,
                "tempo": 120.0
            },
            {
                "start_time": 35.56590909090909,
                "end_time": 35.68181818181818,
                "pitch": 67,
                "velocity": 40,
                "duration": 0.11590909090909207,
                "tempo": 120.0
            },
            {
                "start_time": 35.699999999999996,
                "end_time": 35.81590909090909,
                "pitch": 67,
                "velocity": 40,
                "duration": 0.11590909090909207,
                "tempo": 120.0
            },
            {
                "start_time": 35.83409090909091,
                "end_time": 35.949999999999996,
                "pitch": 67,
                "velocity": 40,
                "duration": 0.11590909090908497,
                "tempo": 120.0
            },
            {
                "start_time": 35.96818181818182,
                "end_time": 36.08409090909091,
                "pitch": 67,
                "velocity": 40,
                "duration": 0.11590909090909207,
                "tempo": 120.0
            },
            {
                "start_time": 36.10227272727273,
                "end_time": 36.21818181818182,
                "pitch": 67,
                "velocity": 40,
                "duration": 0.11590909090909207,
                "tempo": 120.0
            },
            {
                "start_time": 36.23409090909091,
                "end_time": 36.35227272727273,
                "pitch": 67,
                "velocity": 40,
                "duration": 0.11818181818181728,
                "tempo": 120.0
            },
            {
                "start_time": 36.36818181818182,
                "end_time": 36.48409090909091,
                "pitch": 67,
                "velocity": 40,
                "duration": 0.11590909090909207,
                "tempo": 120.0
            },
            {
                "start_time": 36.502272727272725,
                "end_time": 36.61818181818182,
                "pitch": 67,
                "velocity": 40,
                "duration": 0.11590909090909207,
                "tempo": 120.0
            },
            {
                "start_time": 36.63409090909091,
                "end_time": 36.752272727272725,
                "pitch": 67,
                "velocity": 40,
                "duration": 0.11818181818181728,
                "tempo": 120.0
            },
            {
                "start_time": 36.768181818181816,
                "end_time": 36.88409090909091,
                "pitch": 67,
                "velocity": 40,
                "duration": 0.11590909090909207,
                "tempo": 120.0
            },
            {
                "start_time": 36.902272727272724,
                "end_time": 37.018181818181816,
                "pitch": 67,
                "velocity": 40,
                "duration": 0.11590909090909207,
                "tempo": 120.0
            },
            {
                "start_time": 37.03409090909091,
                "end_time": 37.152272727272724,
                "pitch": 67,
                "velocity": 40,
                "duration": 0.11818181818181728,
                "tempo": 120.0
            },
            {
                "start_time": 37.168181818181814,
                "end_time": 37.28409090909091,
                "pitch": 67,
                "velocity": 40,
                "duration": 0.11590909090909207,
                "tempo": 120.0
            },
            {
                "start_time": 37.30227272727272,
                "end_time": 37.41590909090909,
                "pitch": 67,
                "velocity": 40,
                "duration": 0.11363636363636687,
                "tempo": 120.0
            },
            {
                "start_time": 37.43181818181818,
                "end_time": 37.54772727272727,
                "pitch": 67,
                "velocity": 40,
                "duration": 0.11590909090909207,
                "tempo": 120.0
            },
            {
                "start_time": 37.56363636363636,
                "end_time": 37.67727272727272,
                "pitch": 67,
                "velocity": 40,
                "duration": 0.11363636363635976,
                "tempo": 120.0
            },
            {
                "start_time": 37.69318181818181,
                "end_time": 37.94318181818181,
                "pitch": 67,
                "velocity": 40,
                "duration": 0.25,
                "tempo": 120.0
            },
            {
                "start_time": 37.961363636363636,
                "end_time": 38.34318181818182,
                "pitch": 67,
                "velocity": 40,
                "duration": 0.3818181818181827,
                "tempo": 120.0
            },
            {
                "start_time": 38.361363636363635,
                "end_time": 38.47727272727273,
                "pitch": 67,
                "velocity": 40,
                "duration": 0.11590909090909207,
                "tempo": 120.0
            },
            {
                "start_time": 38.51136363636363,
                "end_time": 40.09318181818182,
                "pitch": 65,
                "velocity": 40,
                "duration": 1.5818181818181856,
                "tempo": 120.0
            },
            {
                "start_time": 40.37272727272727,
                "end_time": 40.486363636363635,
                "pitch": 65,
                "velocity": 40,
                "duration": 0.11363636363636687,
                "tempo": 120.0
            },
            {
                "start_time": 40.77045454545454,
                "end_time": 40.88863636363636,
                "pitch": 65,
                "velocity": 40,
                "duration": 0.11818181818181728,
                "tempo": 120.0
            },
            {
                "start_time": 40.904545454545456,
                "end_time": 41.288636363636364,
                "pitch": 65,
                "velocity": 40,
                "duration": 0.38409090909090793,
                "tempo": 120.0
            },
            {
                "start_time": 41.304545454545455,
                "end_time": 41.68863636363636,
                "pitch": 65,
                "velocity": 40,
                "duration": 0.38409090909090793,
                "tempo": 120.0
            },
            {
                "start_time": 41.70454545454545,
                "end_time": 43.30227272727272,
                "pitch": 64,
                "velocity": 40,
                "duration": 1.597727272727269,
                "tempo": 120.0
            },
            {
                "start_time": 43.57954545454545,
                "end_time": 43.695454545454545,
                "pitch": 64,
                "velocity": 40,
                "duration": 0.11590909090909207,
                "tempo": 120.0
            },
            {
                "start_time": 43.97727272727273,
                "end_time": 44.095454545454544,
                "pitch": 64,
                "velocity": 40,
                "duration": 0.11818181818181728,
                "tempo": 120.0
            },
            {
                "start_time": 44.111363636363635,
                "end_time": 44.49545454545454,
                "pitch": 64,
                "velocity": 40,
                "duration": 0.38409090909090793,
                "tempo": 120.0
            },
            {
                "start_time": 44.51136363636363,
                "end_time": 44.89772727272727,
                "pitch": 64,
                "velocity": 40,
                "duration": 0.38636363636364024,
                "tempo": 120.0
            },
            {
                "start_time": 44.913636363636364,
                "end_time": 46.50909090909091,
                "pitch": 65,
                "velocity": 40,
                "duration": 1.595454545454544,
                "tempo": 120.0
            },
            {
                "start_time": 46.788636363636364,
                "end_time": 46.902272727272724,
                "pitch": 65,
                "velocity": 40,
                "duration": 0.11363636363635976,
                "tempo": 120.0
            },
            {
                "start_time": 47.18636363636364,
                "end_time": 47.30227272727272,
                "pitch": 65,
                "velocity": 40,
                "duration": 0.11590909090908497,
                "tempo": 120.0
            },
            {
                "start_time": 47.320454545454545,
                "end_time": 47.70227272727273,
                "pitch": 65,
                "velocity": 40,
                "duration": 0.3818181818181827,
                "tempo": 120.0
            },
            {
                "start_time": 47.720454545454544,
                "end_time": 48.10227272727273,
                "pitch": 65,
                "velocity": 40,
                "duration": 0.3818181818181827,
                "tempo": 120.0
            },
            {
                "start_time": 48.12045454545454,
                "end_time": 48.23863636363636,
                "pitch": 67,
                "velocity": 40,
                "duration": 0.11818181818181728,
                "tempo": 120.0
            },
            {
                "start_time": 48.25681818181818,
                "end_time": 48.375,
                "pitch": 67,
                "velocity": 40,
                "duration": 0.11818181818181728,
                "tempo": 120.0
            },
            {
                "start_time": 48.393181818181816,
                "end_time": 48.51363636363636,
                "pitch": 67,
                "velocity": 40,
                "duration": 0.12045454545454248,
                "tempo": 120.0
            },
            {
                "start_time": 48.52954545454545,
                "end_time": 48.64772727272727,
                "pitch": 67,
                "velocity": 40,
                "duration": 0.11818181818182438,
                "tempo": 120.0
            },
            {
                "start_time": 48.663636363636364,
                "end_time": 48.77954545454545,
                "pitch": 67,
                "velocity": 40,
                "duration": 0.11590909090908497,
                "tempo": 120.0
            },
            {
                "start_time": 48.79772727272727,
                "end_time": 48.913636363636364,
                "pitch": 67,
                "velocity": 40,
                "duration": 0.11590909090909207,
                "tempo": 120.0
            },
            {
                "start_time": 48.929545454545455,
                "end_time": 49.04772727272727,
                "pitch": 67,
                "velocity": 40,
                "duration": 0.11818181818181728,
                "tempo": 120.0
            },
            {
                "start_time": 49.06363636363636,
                "end_time": 49.179545454545455,
                "pitch": 67,
                "velocity": 40,
                "duration": 0.11590909090909207,
                "tempo": 120.0
            },
            {
                "start_time": 49.19772727272727,
                "end_time": 49.31363636363636,
                "pitch": 67,
                "velocity": 40,
                "duration": 0.11590909090909207,
                "tempo": 120.0
            },
            {
                "start_time": 49.32954545454545,
                "end_time": 49.44772727272727,
                "pitch": 67,
                "velocity": 40,
                "duration": 0.11818181818181728,
                "tempo": 120.0
            },
            {
                "start_time": 49.46363636363636,
                "end_time": 49.57954545454545,
                "pitch": 67,
                "velocity": 40,
                "duration": 0.11590909090909207,
                "tempo": 120.0
            },
            {
                "start_time": 49.59772727272727,
                "end_time": 49.71363636363636,
                "pitch": 67,
                "velocity": 40,
                "duration": 0.11590909090909207,
                "tempo": 120.0
            },
            {
                "start_time": 49.72954545454545,
                "end_time": 49.98181818181818,
                "pitch": 67,
                "velocity": 40,
                "duration": 0.2522727272727252,
                "tempo": 120.0
            },
            {
                "start_time": 50.804545454545455,
                "end_time": 51.31818181818181,
                "pitch": 67,
                "velocity": 40,
                "duration": 0.5136363636363583,
                "tempo": 120.0
            }
        ]
    }
}