{
    "track_id": "Alex Kidd - The Lost Stars (FM) - 04 - Machine World _ Giant_s Body",
    "mood": "happy",
    "instruments": {
        "Vibraphone": [
            {
                "start_time": 0.25,
                "end_time": 0.3659090909090909,
                "pitch": 79,
                "velocity": 64,
                "duration": 0.1159090909090909,
                "tempo": 120.0
            },
            {
                "start_time": 0.3840909090909091,
                "end_time": 0.634090909090909,
                "pitch": 78,
                "velocity": 64,
                "duration": 0.24999999999999994,
                "tempo": 120.0
            },
            {
                "start_time": 0.65,
                "end_time": 0.7659090909090909,
                "pitch": 76,
                "velocity": 64,
                "duration": 0.11590909090909085,
                "tempo": 120.0
            },
            {
                "start_time": 1.05,
                "end_time": 1.434090909090909,
                "pitch": 71,
                "velocity": 64,
                "duration": 0.38409090909090904,
                "tempo": 120.0
            },
            {
                "start_time": 1.45,
                "end_time": 1.565909090909091,
                "pitch": 76,
                "velocity": 64,
                "duration": 0.11590909090909096,
                "tempo": 120.0
            },
            {
                "start_time": 1.584090909090909,
                "end_time": 1.8409090909090908,
                "pitch": 80,
                "velocity": 64,
                "duration": 0.25681818181818183,
                "tempo": 120.0
            },
            {
                "start_time": 1.8568181818181817,
                "end_time": 1.977272727272727,
                "pitch": 79,
                "velocity": 64,
                "duration": 0.12045454545454537,
                "tempo": 120.0
            },
            {
                "start_time": 1.9931818181818182,
                "end_time": 2.2386363636363633,
                "pitch": 78,
                "velocity": 64,
                "duration": 0.24545454545454515,
                "tempo": 120.0
            },
            {
                "start_time": 2.2545454545454544,
                "end_time": 2.370454545454545,
                "pitch": 76,
                "velocity": 64,
                "duration": 0.11590909090909074,
                "tempo": 120.0
            },
            {
                "start_time": 2.6522727272727273,
                "end_time": 3.043181818181818,
                "pitch": 72,
                "velocity": 64,
                "duration": 0.39090909090909065,
                "tempo": 120.0
            },
            {
                "start_time": 3.059090909090909,
                "end_time": 3.1795454545454542,
                "pitch": 76,
                "velocity": 64,
                "duration": 0.12045454545454515,
                "tempo": 120.0
            },
            {
                "start_time": 3.1977272727272728,
                "end_time": 3.440909090909091,
                "pitch": 80,
                "velocity": 64,
                "duration": 0.24318181818181817,
                "tempo": 120.0
            },
            {
                "start_time": 3.459090909090909,
                "end_time": 3.5727272727272728,
                "pitch": 79,
                "velocity": 64,
                "duration": 0.11363636363636376,
                "tempo": 120.0
            },
            {
                "start_time": 3.5886363636363634,
                "end_time": 3.8386363636363634,
                "pitch": 78,
                "velocity": 64,
                "duration": 0.25,
                "tempo": 120.0
            },
            {
                "start_time": 3.8568181818181815,
                "end_time": 3.9727272727272727,
                "pitch": 76,
                "velocity": 64,
                "duration": 0.11590909090909118,
                "tempo": 120.0
            },
            {
                "start_time": 3.9886363636363633,
                "end_time": 4.238636363636363,
                "pitch": 73,
                "velocity": 64,
                "duration": 0.25,
                "tempo": 120.0
            },
            {
                "start_time": 4.256818181818182,
                "end_time": 4.372727272727272,
                "pitch": 76,
                "velocity": 64,
                "duration": 0.1159090909090903,
                "tempo": 120.0
            },
            {
                "start_time": 4.388636363636364,
                "end_time": 4.6454545454545455,
                "pitch": 78,
                "velocity": 64,
                "duration": 0.25681818181818183,
                "tempo": 120.0
            },
            {
                "start_time": 4.663636363636363,
                "end_time": 4.713636363636364,
                "pitch": 79,
                "velocity": 64,
                "duration": 0.05000000000000071,
                "tempo": 120.0
            },
            {
                "start_time": 4.7318181818181815,
                "end_time": 5.977272727272727,
                "pitch": 80,
                "velocity": 64,
                "duration": 1.2454545454545451,
                "tempo": 120.0
            },
            {
                "start_time": 5.995454545454545,
                "end_time": 6.388636363636364,
                "pitch": 78,
                "velocity": 64,
                "duration": 0.3931818181818185,
                "tempo": 120.0
            },
            {
                "start_time": 6.404545454545454,
                "end_time": 7.047727272727272,
                "pitch": 73,
                "velocity": 64,
                "duration": 0.6431818181818176,
                "tempo": 120.0
            },
            {
                "start_time": 7.0659090909090905,
                "end_time": 7.584090909090909,
                "pitch": 76,
                "velocity": 64,
                "duration": 0.5181818181818185,
                "tempo": 120.0
            },
            {
                "start_time": 7.6,
                "end_time": 7.986363636363636,
                "pitch": 73,
                "velocity": 64,
                "duration": 0.3863636363636367,
                "tempo": 120.0
            },
            {
                "start_time": 8.002272727272727,
                "end_time": 8.052272727272728,
                "pitch": 78,
                "velocity": 64,
                "duration": 0.05000000000000071,
                "tempo": 120.0
            },
            {
                "start_time": 8.070454545454545,
                "end_time": 8.388636363636364,
                "pitch": 79,
                "velocity": 64,
                "duration": 0.31818181818181834,
                "tempo": 120.0
            },
            {
                "start_time": 8.404545454545454,
                "end_time": 8.790909090909091,
                "pitch": 78,
                "velocity": 64,
                "duration": 0.3863636363636367,
                "tempo": 120.0
            },
            {
                "start_time": 8.806818181818182,
                "end_time": 9.19090909090909,
                "pitch": 76,
                "velocity": 64,
                "duration": 0.38409090909090793,
                "tempo": 120.0
            },
            {
                "start_time": 9.206818181818182,
                "end_time": 9.463636363636363,
                "pitch": 73,
                "velocity": 64,
                "duration": 0.25681818181818095,
                "tempo": 120.0
            },
            {
                "start_time": 9.48181818181818,
                "end_time": 9.602272727272727,
                "pitch": 76,
                "velocity": 64,
                "duration": 0.12045454545454604,
                "tempo": 120.0
            },
            {
                "start_time": 9.618181818181817,
                "end_time": 9.863636363636363,
                "pitch": 71,
                "velocity": 64,
                "duration": 0.24545454545454604,
                "tempo": 120.0
            },
            {
                "start_time": 9.879545454545454,
                "end_time": 10.261363636363637,
                "pitch": 71,
                "velocity": 64,
                "duration": 0.3818181818181827,
                "tempo": 120.0
            },
            {
                "start_time": 10.279545454545454,
                "end_time": 10.397727272727272,
                "pitch": 71,
                "velocity": 64,
                "duration": 0.11818181818181728,
                "tempo": 120.0
            },
            {
                "start_time": 10.413636363636362,
                "end_time": 10.665909090909091,
                "pitch": 73,
                "velocity": 64,
                "duration": 0.25227272727272876,
                "tempo": 120.0
            },
            {
                "start_time": 10.681818181818182,
                "end_time": 11.06590909090909,
                "pitch": 73,
                "velocity": 64,
                "duration": 0.38409090909090793,
                "tempo": 120.0
            },
            {
                "start_time": 11.081818181818182,
                "end_time": 11.2,
                "pitch": 73,
                "velocity": 64,
                "duration": 0.11818181818181728,
                "tempo": 120.0
            },
            {
                "start_time": 11.21590909090909,
                "end_time": 11.468181818181817,
                "pitch": 75,
                "velocity": 64,
                "duration": 0.252272727272727,
                "tempo": 120.0
            },
            {
                "start_time": 11.48409090909091,
                "end_time": 11.875,
                "pitch": 75,
                "velocity": 64,
                "duration": 0.39090909090909065,
                "tempo": 120.0
            },
            {
                "start_time": 11.893181818181818,
                "end_time": 12.013636363636364,
                "pitch": 75,
                "velocity": 64,
                "duration": 0.12045454545454604,
                "tempo": 120.0
            },
            {
                "start_time": 12.029545454545454,
                "end_time": 12.404545454545454,
                "pitch": 76,
                "velocity": 64,
                "duration": 0.375,
                "tempo": 120.0
            },
            {
                "start_time": 12.422727272727272,
                "end_time": 12.81590909090909,
                "pitch": 78,
                "velocity": 64,
                "duration": 0.39318181818181763,
                "tempo": 120.0
            },
            {
                "start_time": 12.831818181818182,
                "end_time": 13.081818181818182,
                "pitch": 80,
                "velocity": 64,
                "duration": 0.25,
                "tempo": 120.0
            },
            {
                "start_time": 13.1,
                "end_time": 13.21590909090909,
                "pitch": 79,
                "velocity": 64,
                "duration": 0.1159090909090903,
                "tempo": 120.0
            },
            {
                "start_time": 13.23181818181818,
                "end_time": 13.477272727272727,
                "pitch": 78,
                "velocity": 64,
                "duration": 0.24545454545454604,
                "tempo": 120.0
            },
            {
                "start_time": 13.493181818181817,
                "end_time": 13.609090909090908,
                "pitch": 76,
                "velocity": 64,
                "duration": 0.1159090909090903,
                "tempo": 120.0
            },
            {
                "start_time": 13.893181818181818,
                "end_time": 14.279545454545454,
                "pitch": 71,
                "velocity": 64,
                "duration": 0.3863636363636367,
                "tempo": 120.0
            },
            {
                "start_time": 14.295454545454545,
                "end_time": 14.413636363636362,
                "pitch": 76,
                "velocity": 64,
                "duration": 0.11818181818181728,
                "tempo": 120.0
            },
            {
                "start_time": 14.429545454545455,
                "end_time": 14.686363636363636,
                "pitch": 80,
                "velocity": 64,
                "duration": 0.25681818181818095,
                "tempo": 120.0
            },
            {
                "start_time": 14.704545454545453,
                "end_time": 14.822727272727272,
                "pitch": 79,
                "velocity": 64,
                "duration": 0.11818181818181905,
                "tempo": 120.0
            },
            {
                "start_time": 14.84090909090909,
                "end_time": 15.086363636363636,
                "pitch": 78,
                "velocity": 64,
                "duration": 0.24545454545454604,
                "tempo": 120.0
            },
            {
                "start_time": 15.102272727272727,
                "end_time": 15.21590909090909,
                "pitch": 76,
                "velocity": 64,
                "duration": 0.11363636363636331,
                "tempo": 120.0
            },
            {
                "start_time": 15.502272727272727,
                "end_time": 15.893181818181818,
                "pitch": 72,
                "velocity": 64,
                "duration": 0.39090909090909065,
                "tempo": 120.0
            },
            {
                "start_time": 15.909090909090908,
                "end_time": 16.029545454545453,
                "pitch": 76,
                "velocity": 64,
                "duration": 0.12045454545454426,
                "tempo": 120.0
            },
            {
                "start_time": 16.045454545454543,
                "end_time": 16.29090909090909,
                "pitch": 80,
                "velocity": 64,
                "duration": 0.24545454545454604,
                "tempo": 120.0
            },
            {
                "start_time": 16.30681818181818,
                "end_time": 16.422727272727272,
                "pitch": 79,
                "velocity": 64,
                "duration": 0.11590909090909207,
                "tempo": 120.0
            },
            {
                "start_time": 16.438636363636363,
                "end_time": 16.688636363636363,
                "pitch": 78,
                "velocity": 64,
                "duration": 0.25,
                "tempo": 120.0
            },
            {
                "start_time": 16.704545454545453,
                "end_time": 16.82272727272727,
                "pitch": 76,
                "velocity": 64,
                "duration": 0.11818181818181728,
                "tempo": 120.0
            },
            {
                "start_time": 16.83863636363636,
                "end_time": 17.09090909090909,
                "pitch": 73,
                "velocity": 64,
                "duration": 0.25227272727272876,
                "tempo": 120.0
            },
            {
                "start_time": 17.10681818181818,
                "end_time": 17.224999999999998,
                "pitch": 76,
                "velocity": 64,
                "duration": 0.11818181818181728,
                "tempo": 120.0
            },
            {
                "start_time": 17.24090909090909,
                "end_time": 17.49772727272727,
                "pitch": 78,
                "velocity": 64,
                "duration": 0.2568181818181827,
                "tempo": 120.0
            },
            {
                "start_time": 17.51590909090909,
                "end_time": 17.56590909090909,
                "pitch": 79,
                "velocity": 64,
                "duration": 0.05000000000000071,
                "tempo": 120.0
            },
            {
                "start_time": 17.584090909090907,
                "end_time": 18.829545454545453,
                "pitch": 80,
                "velocity": 64,
                "duration": 1.245454545454546,
                "tempo": 120.0
            },
            {
                "start_time": 18.847727272727273,
                "end_time": 19.24090909090909,
                "pitch": 78,
                "velocity": 64,
                "duration": 0.39318181818181586,
                "tempo": 120.0
            },
            {
                "start_time": 19.25681818181818,
                "end_time": 19.904545454545453,
                "pitch": 73,
                "velocity": 64,
                "duration": 0.6477272727272734,
                "tempo": 120.0
            },
            {
                "start_time": 19.922727272727272,
                "end_time": 20.438636363636363,
                "pitch": 76,
                "velocity": 64,
                "duration": 0.5159090909090907,
                "tempo": 120.0
            },
            {
                "start_time": 20.454545454545453,
                "end_time": 20.849999999999998,
                "pitch": 73,
                "velocity": 64,
                "duration": 0.3954545454545446,
                "tempo": 120.0
            },
            {
                "start_time": 20.86590909090909,
                "end_time": 20.91590909090909,
                "pitch": 78,
                "velocity": 64,
                "duration": 0.05000000000000071,
                "tempo": 120.0
            },
            {
                "start_time": 20.93181818181818,
                "end_time": 21.24090909090909,
                "pitch": 79,
                "velocity": 64,
                "duration": 0.30909090909090864,
                "tempo": 120.0
            },
            {
                "start_time": 21.259090909090908,
                "end_time": 21.64090909090909,
                "pitch": 78,
                "velocity": 64,
                "duration": 0.3818181818181827,
                "tempo": 120.0
            },
            {
                "start_time": 21.659090909090907,
                "end_time": 21.909090909090907,
                "pitch": 76,
                "velocity": 64,
                "duration": 0.25,
                "tempo": 120.0
            },
            {
                "start_time": 21.925,
                "end_time": 22.04090909090909,
                "pitch": 73,
                "velocity": 64,
                "duration": 0.11590909090908852,
                "tempo": 120.0
            },
            {
                "start_time": 22.05909090909091,
                "end_time": 22.30909090909091,
                "pitch": 76,
                "velocity": 64,
                "duration": 0.25,
                "tempo": 120.0
            },
            {
                "start_time": 22.327272727272724,
                "end_time": 22.443181818181817,
                "pitch": 78,
                "velocity": 64,
                "duration": 0.11590909090909207,
                "tempo": 120.0
            },
            {
                "start_time": 22.727272727272727,
                "end_time": 22.84318181818182,
                "pitch": 83,
                "velocity": 64,
                "duration": 0.11590909090909207,
                "tempo": 120.0
            },
            {
                "start_time": 22.861363636363635,
                "end_time": 23.111363636363635,
                "pitch": 85,
                "velocity": 64,
                "duration": 0.25,
                "tempo": 120.0
            },
            {
                "start_time": 23.263636363636362,
                "end_time": 23.513636363636362,
                "pitch": 80,
                "velocity": 64,
                "duration": 0.25,
                "tempo": 120.0
            },
            {
                "start_time": 23.529545454545453,
                "end_time": 23.64772727272727,
                "pitch": 83,
                "velocity": 64,
                "duration": 0.11818181818181728,
                "tempo": 120.0
            },
            {
                "start_time": 23.936363636363634,
                "end_time": 24.05681818181818,
                "pitch": 78,
                "velocity": 64,
                "duration": 0.12045454545454604,
                "tempo": 120.0
            },
            {
                "start_time": 24.075,
                "end_time": 24.318181818181817,
                "pitch": 79,
                "velocity": 64,
                "duration": 0.24318181818181728,
                "tempo": 120.0
            },
            {
                "start_time": 24.336363636363636,
                "end_time": 24.45,
                "pitch": 80,
                "velocity": 64,
                "duration": 0.11363636363636331,
                "tempo": 120.0
            },
            {
                "start_time": 24.46590909090909,
                "end_time": 24.722727272727273,
                "pitch": 79,
                "velocity": 64,
                "duration": 0.2568181818181827,
                "tempo": 120.0
            },
            {
                "start_time": 24.74090909090909,
                "end_time": 25.252272727272725,
                "pitch": 76,
                "velocity": 64,
                "duration": 0.5113636363636367,
                "tempo": 120.0
            },
            {
                "start_time": 25.679545454545455,
                "end_time": 25.924999999999997,
                "pitch": 75,
                "velocity": 64,
                "duration": 0.24545454545454248,
                "tempo": 120.0
            },
            {
                "start_time": 26.070454545454545,
                "end_time": 26.327272727272724,
                "pitch": 80,
                "velocity": 64,
                "duration": 0.25681818181817917,
                "tempo": 120.0
            },
            {
                "start_time": 26.48181818181818,
                "end_time": 26.727272727272727,
                "pitch": 75,
                "velocity": 64,
                "duration": 0.24545454545454604,
                "tempo": 120.0
            },
            {
                "start_time": 26.875,
                "end_time": 27.125,
                "pitch": 80,
                "velocity": 64,
                "duration": 0.25,
                "tempo": 120.0
            },
            {
                "start_time": 27.277272727272727,
                "end_time": 27.527272727272727,
                "pitch": 75,
                "velocity": 64,
                "duration": 0.25,
                "tempo": 120.0
            },
            {
                "start_time": 27.543181818181818,
                "end_time": 27.661363636363635,
                "pitch": 80,
                "velocity": 64,
                "duration": 0.11818181818181728,
                "tempo": 120.0
            },
            {
                "start_time": 27.943181818181817,
                "end_time": 28.329545454545453,
                "pitch": 75,
                "velocity": 64,
                "duration": 0.3863636363636367,
                "tempo": 120.0
            },
            {
                "start_time": 28.345454545454544,
                "end_time": 28.46363636363636,
                "pitch": 75,
                "velocity": 64,
                "duration": 0.11818181818181728,
                "tempo": 120.0
            },
            {
                "start_time": 28.479545454545452,
                "end_time": 28.736363636363635,
                "pitch": 76,
                "velocity": 64,
                "duration": 0.2568181818181827,
                "tempo": 120.0
            },
            {
                "start_time": 28.754545454545454,
                "end_time": 28.87272727272727,
                "pitch": 78,
                "velocity": 64,
                "duration": 0.11818181818181728,
                "tempo": 120.0
            },
            {
                "start_time": 28.89090909090909,
                "end_time": 29.136363636363637,
                "pitch": 76,
                "velocity": 64,
                "duration": 0.24545454545454604,
                "tempo": 120.0
            },
            {
                "start_time": 29.28181818181818,
                "end_time": 29.53181818181818,
                "pitch": 75,
                "velocity": 64,
                "duration": 0.25,
                "tempo": 120.0
            },
            {
                "start_time": 29.68181818181818,
                "end_time": 29.93181818181818,
                "pitch": 76,
                "velocity": 64,
                "duration": 0.25,
                "tempo": 120.0
            },
            {
                "start_time": 30.081818181818182,
                "end_time": 30.334090909090907,
                "pitch": 78,
                "velocity": 64,
                "duration": 0.2522727272727252,
                "tempo": 120.0
            },
            {
                "start_time": 30.48409090909091,
                "end_time": 30.534090909090907,
                "pitch": 79,
                "velocity": 64,
                "duration": 0.04999999999999716,
                "tempo": 120.0
            },
            {
                "start_time": 30.552272727272726,
                "end_time": 30.73409090909091,
                "pitch": 80,
                "velocity": 64,
                "duration": 0.18181818181818343,
                "tempo": 120.0
            },
            {
                "start_time": 30.752272727272725,
                "end_time": 30.868181818181817,
                "pitch": 76,
                "velocity": 64,
                "duration": 0.11590909090909207,
                "tempo": 120.0
            },
            {
                "start_time": 31.154545454545453,
                "end_time": 31.670454545454543,
                "pitch": 73,
                "velocity": 64,
                "duration": 0.5159090909090907,
                "tempo": 120.0
            },
            {
                "start_time": 32.08863636363636,
                "end_time": 32.345454545454544,
                "pitch": 75,
                "velocity": 64,
                "duration": 0.2568181818181827,
                "tempo": 120.0
            },
            {
                "start_time": 32.49772727272727,
                "end_time": 32.75,
                "pitch": 80,
                "velocity": 64,
                "duration": 0.2522727272727323,
                "tempo": 120.0
            },
            {
                "start_time": 32.902272727272724,
                "end_time": 33.14545454545454,
                "pitch": 75,
                "velocity": 64,
                "duration": 0.24318181818181728,
                "tempo": 120.0
            },
            {
                "start_time": 33.293181818181814,
                "end_time": 33.543181818181814,
                "pitch": 80,
                "velocity": 64,
                "duration": 0.25,
                "tempo": 120.0
            },
            {
                "start_time": 33.69318181818181,
                "end_time": 33.94318181818181,
                "pitch": 75,
                "velocity": 64,
                "duration": 0.25,
                "tempo": 120.0
            },
            {
                "start_time": 33.961363636363636,
                "end_time": 34.07727272727273,
                "pitch": 80,
                "velocity": 64,
                "duration": 0.11590909090909207,
                "tempo": 120.0
            },
            {
                "start_time": 34.361363636363635,
                "end_time": 34.47727272727273,
                "pitch": 83,
                "velocity": 64,
                "duration": 0.11590909090909207,
                "tempo": 120.0
            },
            {
                "start_time": 34.76136363636363,
                "end_time": 34.87954545454545,
                "pitch": 85,
                "velocity": 64,
                "duration": 0.11818181818181728,
                "tempo": 120.0
            },
            {
                "start_time": 34.89545454545454,
                "end_time": 35.152272727272724,
                "pitch": 87,
                "velocity": 64,
                "duration": 0.2568181818181827,
                "tempo": 120.0
            },
            {
                "start_time": 35.30681818181818,
                "end_time": 36.35454545454545,
                "pitch": 85,
                "velocity": 64,
                "duration": 1.047727272727272,
                "tempo": 120.0
            },
            {
                "start_time": 36.37045454545454,
                "end_time": 36.486363636363635,
                "pitch": 83,
                "velocity": 64,
                "duration": 0.11590909090909207,
                "tempo": 120.0
            },
            {
                "start_time": 36.502272727272725,
                "end_time": 36.75454545454545,
                "pitch": 85,
                "velocity": 64,
                "duration": 0.2522727272727252,
                "tempo": 120.0
            },
            {
                "start_time": 36.77045454545454,
                "end_time": 36.88863636363636,
                "pitch": 80,
                "velocity": 64,
                "duration": 0.11818181818181728,
                "tempo": 120.0
            },
            {
                "start_time": 37.17045454545455,
                "end_time": 37.288636363636364,
                "pitch": 80,
                "velocity": 64,
                "duration": 0.11818181818181728,
                "tempo": 120.0
            },
            {
                "start_time": 37.570454545454545,
                "end_time": 37.68863636363636,
                "pitch": 83,
                "velocity": 64,
                "duration": 0.11818181818181728,
                "tempo": 120.0
            },
            {
                "start_time": 37.70454545454545,
                "end_time": 37.95454545454545,
                "pitch": 85,
                "velocity": 64,
                "duration": 0.25,
                "tempo": 120.0
            },
            {
                "start_time": 37.970454545454544,
                "end_time": 38.08863636363636,
                "pitch": 83,
                "velocity": 64,
                "duration": 0.11818181818181728,
                "tempo": 120.0
            },
            {
                "start_time": 38.10454545454545,
                "end_time": 38.48863636363636,
                "pitch": 80,
                "velocity": 64,
                "duration": 0.38409090909090793,
                "tempo": 120.0
            },
            {
                "start_time": 38.50454545454545,
                "end_time": 39.16590909090909,
                "pitch": 78,
                "velocity": 64,
                "duration": 0.6613636363636388,
                "tempo": 120.0
            },
            {
                "start_time": 39.18181818181818,
                "end_time": 39.69090909090909,
                "pitch": 76,
                "velocity": 64,
                "duration": 0.5090909090909079,
                "tempo": 120.0
            },
            {
                "start_time": 39.70681818181818,
                "end_time": 39.96363636363636,
                "pitch": 73,
                "velocity": 64,
                "duration": 0.2568181818181827,
                "tempo": 120.0
            },
            {
                "start_time": 39.98181818181818,
                "end_time": 40.1,
                "pitch": 76,
                "velocity": 64,
                "duration": 0.11818181818182438,
                "tempo": 120.0
            },
            {
                "start_time": 40.11818181818182,
                "end_time": 40.36363636363636,
                "pitch": 71,
                "velocity": 64,
                "duration": 0.24545454545454248,
                "tempo": 120.0
            },
            {
                "start_time": 40.51136363636363,
                "end_time": 40.76590909090909,
                "pitch": 73,
                "velocity": 64,
                "duration": 0.2545454545454575,
                "tempo": 120.0
            },
            {
                "start_time": 40.92045454545455,
                "end_time": 41.16590909090909,
                "pitch": 76,
                "velocity": 64,
                "duration": 0.24545454545454248,
                "tempo": 120.0
            },
            {
                "start_time": 41.31363636363636,
                "end_time": 41.56363636363636,
                "pitch": 78,
                "velocity": 64,
                "duration": 0.25,
                "tempo": 120.0
            },
            {
                "start_time": 41.679545454545455,
                "end_time": 41.72954545454545,
                "pitch": 79,
                "velocity": 64,
                "duration": 0.04999999999999716,
                "tempo": 120.0
            },
            {
                "start_time": 41.74772727272727,
                "end_time": 41.970454545454544,
                "pitch": 79,
                "velocity": 64,
                "duration": 0.22272727272727622,
                "tempo": 120.0
            },
            {
                "start_time": 41.986363636363635,
                "end_time": 42.24090909090909,
                "pitch": 79,
                "velocity": 64,
                "duration": 0.2545454545454575,
                "tempo": 120.0
            },
            {
                "start_time": 42.25681818181818,
                "end_time": 42.50681818181818,
                "pitch": 79,
                "velocity": 64,
                "duration": 0.25,
                "tempo": 120.0
            },
            {
                "start_time": 42.525,
                "end_time": 42.775,
                "pitch": 79,
                "velocity": 64,
                "duration": 0.25,
                "tempo": 120.0
            },
            {
                "start_time": 42.79090909090909,
                "end_time": 43.04090909090909,
                "pitch": 79,
                "velocity": 64,
                "duration": 0.25,
                "tempo": 120.0
            },
            {
                "start_time": 43.19090909090909,
                "end_time": 43.30681818181818,
                "pitch": 78,
                "velocity": 64,
                "duration": 0.11590909090909207,
                "tempo": 120.0
            },
            {
                "start_time": 43.32272727272727,
                "end_time": 44.902272727272724,
                "pitch": 76,
                "velocity": 64,
                "duration": 1.5795454545454533,
                "tempo": 120.0
            },
            {
                "start_time": 45.71818181818182,
                "end_time": 46.51136363636363,
                "pitch": 83,
                "velocity": 64,
                "duration": 0.7931818181818144,
                "tempo": 120.0
            },
            {
                "start_time": 46.52954545454545,
                "end_time": 46.54545454545455,
                "pitch": 80,
                "velocity": 64,
                "duration": 0.015909090909097756,
                "tempo": 120.0
            }
        ],
        "Acoustic Bass": [
            {
                "start_time": 0.3840909090909091,
                "end_time": 0.7659090909090909,
                "pitch": 44,
                "velocity": 40,
                "duration": 0.3818181818181818,
                "tempo": 120.0
            },
            {
                "start_time": 0.7840909090909091,
                "end_time": 1.1659090909090908,
                "pitch": 47,
                "velocity": 40,
                "duration": 0.3818181818181817,
                "tempo": 120.0
            },
            {
                "start_time": 1.184090909090909,
                "end_time": 1.434090909090909,
                "pitch": 44,
                "velocity": 40,
                "duration": 0.25,
                "tempo": 120.0
            },
            {
                "start_time": 1.45,
                "end_time": 1.8409090909090908,
                "pitch": 40,
                "velocity": 40,
                "duration": 0.3909090909090909,
                "tempo": 120.0
            },
            {
                "start_time": 1.8568181818181817,
                "end_time": 1.977272727272727,
                "pitch": 40,
                "velocity": 40,
                "duration": 0.12045454545454537,
                "tempo": 120.0
            },
            {
                "start_time": 1.9931818181818182,
                "end_time": 2.370454545454545,
                "pitch": 44,
                "velocity": 40,
                "duration": 0.377272727272727,
                "tempo": 120.0
            },
            {
                "start_time": 2.3863636363636362,
                "end_time": 2.7704545454545455,
                "pitch": 48,
                "velocity": 40,
                "duration": 0.38409090909090926,
                "tempo": 120.0
            },
            {
                "start_time": 2.786363636363636,
                "end_time": 3.1795454545454542,
                "pitch": 44,
                "velocity": 40,
                "duration": 0.3931818181818181,
                "tempo": 120.0
            },
            {
                "start_time": 3.1977272727272728,
                "end_time": 3.5727272727272728,
                "pitch": 40,
                "velocity": 40,
                "duration": 0.375,
                "tempo": 120.0
            },
            {
                "start_time": 3.5886363636363634,
                "end_time": 3.9727272727272727,
                "pitch": 44,
                "velocity": 40,
                "duration": 0.38409090909090926,
                "tempo": 120.0
            },
            {
                "start_time": 3.9886363636363633,
                "end_time": 4.372727272727272,
                "pitch": 49,
                "velocity": 40,
                "duration": 0.3840909090909088,
                "tempo": 120.0
            },
            {
                "start_time": 4.388636363636364,
                "end_time": 4.6454545454545455,
                "pitch": 44,
                "velocity": 40,
                "duration": 0.25681818181818183,
                "tempo": 120.0
            },
            {
                "start_time": 4.663636363636363,
                "end_time": 5.045454545454545,
                "pitch": 52,
                "velocity": 40,
                "duration": 0.38181818181818183,
                "tempo": 120.0
            },
            {
                "start_time": 5.0613636363636365,
                "end_time": 5.175,
                "pitch": 52,
                "velocity": 40,
                "duration": 0.11363636363636331,
                "tempo": 120.0
            },
            {
                "start_time": 5.1909090909090905,
                "end_time": 5.586363636363636,
                "pitch": 49,
                "velocity": 40,
                "duration": 0.3954545454545455,
                "tempo": 120.0
            },
            {
                "start_time": 5.602272727272727,
                "end_time": 5.977272727272727,
                "pitch": 44,
                "velocity": 40,
                "duration": 0.375,
                "tempo": 120.0
            },
            {
                "start_time": 5.995454545454545,
                "end_time": 6.388636363636364,
                "pitch": 40,
                "velocity": 40,
                "duration": 0.3931818181818185,
                "tempo": 120.0
            },
            {
                "start_time": 6.404545454545454,
                "end_time": 6.781818181818181,
                "pitch": 45,
                "velocity": 40,
                "duration": 0.377272727272727,
                "tempo": 120.0
            },
            {
                "start_time": 6.797727272727273,
                "end_time": 7.184090909090909,
                "pitch": 49,
                "velocity": 40,
                "duration": 0.3863636363636358,
                "tempo": 120.0
            },
            {
                "start_time": 7.199999999999999,
                "end_time": 7.584090909090909,
                "pitch": 52,
                "velocity": 40,
                "duration": 0.3840909090909097,
                "tempo": 120.0
            },
            {
                "start_time": 7.6,
                "end_time": 7.852272727272727,
                "pitch": 49,
                "velocity": 40,
                "duration": 0.252272727272727,
                "tempo": 120.0
            },
            {
                "start_time": 7.868181818181818,
                "end_time": 8.254545454545454,
                "pitch": 46,
                "velocity": 40,
                "duration": 0.3863636363636358,
                "tempo": 120.0
            },
            {
                "start_time": 8.270454545454545,
                "end_time": 8.388636363636364,
                "pitch": 46,
                "velocity": 40,
                "duration": 0.11818181818181905,
                "tempo": 120.0
            },
            {
                "start_time": 8.404545454545454,
                "end_time": 8.790909090909091,
                "pitch": 49,
                "velocity": 40,
                "duration": 0.3863636363636367,
                "tempo": 120.0
            },
            {
                "start_time": 8.806818181818182,
                "end_time": 9.19090909090909,
                "pitch": 54,
                "velocity": 40,
                "duration": 0.38409090909090793,
                "tempo": 120.0
            },
            {
                "start_time": 9.206818181818182,
                "end_time": 9.602272727272727,
                "pitch": 52,
                "velocity": 40,
                "duration": 0.3954545454545446,
                "tempo": 120.0
            },
            {
                "start_time": 9.618181818181817,
                "end_time": 9.863636363636363,
                "pitch": 51,
                "velocity": 40,
                "duration": 0.24545454545454604,
                "tempo": 120.0
            },
            {
                "start_time": 9.879545454545454,
                "end_time": 9.995454545454544,
                "pitch": 51,
                "velocity": 40,
                "duration": 0.1159090909090903,
                "tempo": 120.0
            },
            {
                "start_time": 10.011363636363637,
                "end_time": 10.397727272727272,
                "pitch": 49,
                "velocity": 40,
                "duration": 0.3863636363636349,
                "tempo": 120.0
            },
            {
                "start_time": 10.413636363636362,
                "end_time": 10.799999999999999,
                "pitch": 47,
                "velocity": 40,
                "duration": 0.3863636363636367,
                "tempo": 120.0
            },
            {
                "start_time": 10.81590909090909,
                "end_time": 11.2,
                "pitch": 45,
                "velocity": 40,
                "duration": 0.3840909090909097,
                "tempo": 120.0
            },
            {
                "start_time": 11.21590909090909,
                "end_time": 11.602272727272727,
                "pitch": 44,
                "velocity": 40,
                "duration": 0.3863636363636367,
                "tempo": 120.0
            },
            {
                "start_time": 11.618181818181817,
                "end_time": 12.013636363636364,
                "pitch": 42,
                "velocity": 40,
                "duration": 0.3954545454545464,
                "tempo": 120.0
            },
            {
                "start_time": 12.029545454545454,
                "end_time": 12.404545454545454,
                "pitch": 40,
                "velocity": 40,
                "duration": 0.375,
                "tempo": 120.0
            },
            {
                "start_time": 12.422727272727272,
                "end_time": 12.81590909090909,
                "pitch": 39,
                "velocity": 40,
                "duration": 0.39318181818181763,
                "tempo": 120.0
            },
            {
                "start_time": 12.831818181818182,
                "end_time": 13.21590909090909,
                "pitch": 40,
                "velocity": 40,
                "duration": 0.38409090909090793,
                "tempo": 120.0
            },
            {
                "start_time": 13.23181818181818,
                "end_time": 13.609090909090908,
                "pitch": 44,
                "velocity": 40,
                "duration": 0.377272727272727,
                "tempo": 120.0
            },
            {
                "start_time": 13.625,
                "end_time": 14.011363636363635,
                "pitch": 47,
                "velocity": 40,
                "duration": 0.3863636363636349,
                "tempo": 120.0
            },
            {
                "start_time": 14.027272727272727,
                "end_time": 14.279545454545454,
                "pitch": 44,
                "velocity": 40,
                "duration": 0.252272727272727,
                "tempo": 120.0
            },
            {
                "start_time": 14.295454545454545,
                "end_time": 14.686363636363636,
                "pitch": 40,
                "velocity": 40,
                "duration": 0.39090909090909065,
                "tempo": 120.0
            },
            {
                "start_time": 14.704545454545453,
                "end_time": 14.822727272727272,
                "pitch": 40,
                "velocity": 40,
                "duration": 0.11818181818181905,
                "tempo": 120.0
            },
            {
                "start_time": 14.84090909090909,
                "end_time": 15.21590909090909,
                "pitch": 44,
                "velocity": 40,
                "duration": 0.375,
                "tempo": 120.0
            },
            {
                "start_time": 15.23181818181818,
                "end_time": 15.618181818181817,
                "pitch": 48,
                "velocity": 40,
                "duration": 0.3863636363636367,
                "tempo": 120.0
            },
            {
                "start_time": 15.636363636363635,
                "end_time": 16.029545454545453,
                "pitch": 44,
                "velocity": 40,
                "duration": 0.39318181818181763,
                "tempo": 120.0
            },
            {
                "start_time": 16.045454545454543,
                "end_time": 16.422727272727272,
                "pitch": 40,
                "velocity": 40,
                "duration": 0.37727272727272876,
                "tempo": 120.0
            },
            {
                "start_time": 16.438636363636363,
                "end_time": 16.82272727272727,
                "pitch": 44,
                "velocity": 40,
                "duration": 0.38409090909090793,
                "tempo": 120.0
            },
            {
                "start_time": 16.83863636363636,
                "end_time": 17.224999999999998,
                "pitch": 49,
                "velocity": 40,
                "duration": 0.3863636363636367,
                "tempo": 120.0
            },
            {
                "start_time": 17.24090909090909,
                "end_time": 17.49772727272727,
                "pitch": 44,
                "velocity": 40,
                "duration": 0.2568181818181827,
                "tempo": 120.0
            },
            {
                "start_time": 17.51590909090909,
                "end_time": 17.897727272727273,
                "pitch": 52,
                "velocity": 40,
                "duration": 0.3818181818181827,
                "tempo": 120.0
            },
            {
                "start_time": 17.913636363636364,
                "end_time": 18.027272727272727,
                "pitch": 52,
                "velocity": 40,
                "duration": 0.11363636363636331,
                "tempo": 120.0
            },
            {
                "start_time": 18.043181818181818,
                "end_time": 18.429545454545455,
                "pitch": 49,
                "velocity": 40,
                "duration": 0.3863636363636367,
                "tempo": 120.0
            },
            {
                "start_time": 18.44772727272727,
                "end_time": 18.829545454545453,
                "pitch": 44,
                "velocity": 40,
                "duration": 0.3818181818181827,
                "tempo": 120.0
            },
            {
                "start_time": 18.847727272727273,
                "end_time": 19.24090909090909,
                "pitch": 40,
                "velocity": 40,
                "duration": 0.39318181818181586,
                "tempo": 120.0
            },
            {
                "start_time": 19.25681818181818,
                "end_time": 19.643181818181816,
                "pitch": 45,
                "velocity": 40,
                "duration": 0.3863636363636367,
                "tempo": 120.0
            },
            {
                "start_time": 19.661363636363635,
                "end_time": 20.036363636363635,
                "pitch": 49,
                "velocity": 40,
                "duration": 0.375,
                "tempo": 120.0
            },
            {
                "start_time": 20.052272727272726,
                "end_time": 20.438636363636363,
                "pitch": 52,
                "velocity": 40,
                "duration": 0.3863636363636367,
                "tempo": 120.0
            },
            {
                "start_time": 20.454545454545453,
                "end_time": 20.711363636363636,
                "pitch": 49,
                "velocity": 40,
                "duration": 0.2568181818181827,
                "tempo": 120.0
            },
            {
                "start_time": 20.729545454545452,
                "end_time": 21.111363636363635,
                "pitch": 46,
                "velocity": 40,
                "duration": 0.3818181818181827,
                "tempo": 120.0
            },
            {
                "start_time": 21.127272727272725,
                "end_time": 21.24090909090909,
                "pitch": 47,
                "velocity": 40,
                "duration": 0.11363636363636331,
                "tempo": 120.0
            },
            {
                "start_time": 21.259090909090908,
                "end_time": 21.64090909090909,
                "pitch": 51,
                "velocity": 40,
                "duration": 0.3818181818181827,
                "tempo": 120.0
            },
            {
                "start_time": 21.659090909090907,
                "end_time": 22.04090909090909,
                "pitch": 54,
                "velocity": 40,
                "duration": 0.3818181818181827,
                "tempo": 120.0
            },
            {
                "start_time": 22.05909090909091,
                "end_time": 22.443181818181817,
                "pitch": 51,
                "velocity": 40,
                "duration": 0.38409090909090793,
                "tempo": 120.0
            },
            {
                "start_time": 22.461363636363636,
                "end_time": 22.84318181818182,
                "pitch": 52,
                "velocity": 40,
                "duration": 0.3818181818181827,
                "tempo": 120.0
            },
            {
                "start_time": 22.861363636363635,
                "end_time": 23.24772727272727,
                "pitch": 47,
                "velocity": 40,
                "duration": 0.3863636363636367,
                "tempo": 120.0
            },
            {
                "start_time": 23.263636363636362,
                "end_time": 23.513636363636362,
                "pitch": 44,
                "velocity": 40,
                "duration": 0.25,
                "tempo": 120.0
            },
            {
                "start_time": 23.529545454545453,
                "end_time": 23.64772727272727,
                "pitch": 47,
                "velocity": 40,
                "duration": 0.11818181818181728,
                "tempo": 120.0
            },
            {
                "start_time": 23.663636363636364,
                "end_time": 23.920454545454543,
                "pitch": 44,
                "velocity": 40,
                "duration": 0.25681818181817917,
                "tempo": 120.0
            },
            {
                "start_time": 23.936363636363634,
                "end_time": 24.318181818181817,
                "pitch": 40,
                "velocity": 40,
                "duration": 0.3818181818181827,
                "tempo": 120.0
            },
            {
                "start_time": 24.336363636363636,
                "end_time": 24.85909090909091,
                "pitch": 40,
                "velocity": 40,
                "duration": 0.5227272727272734,
                "tempo": 120.0
            },
            {
                "start_time": 24.877272727272725,
                "end_time": 25.252272727272725,
                "pitch": 42,
                "velocity": 40,
                "duration": 0.375,
                "tempo": 120.0
            },
            {
                "start_time": 25.268181818181816,
                "end_time": 25.661363636363635,
                "pitch": 43,
                "velocity": 40,
                "duration": 0.3931818181818194,
                "tempo": 120.0
            },
            {
                "start_time": 25.679545454545455,
                "end_time": 26.054545454545455,
                "pitch": 44,
                "velocity": 40,
                "duration": 0.375,
                "tempo": 120.0
            },
            {
                "start_time": 26.070454545454545,
                "end_time": 26.46590909090909,
                "pitch": 44,
                "velocity": 40,
                "duration": 0.3954545454545446,
                "tempo": 120.0
            },
            {
                "start_time": 26.48181818181818,
                "end_time": 26.85681818181818,
                "pitch": 48,
                "velocity": 40,
                "duration": 0.375,
                "tempo": 120.0
            },
            {
                "start_time": 26.875,
                "end_time": 27.259090909090908,
                "pitch": 48,
                "velocity": 40,
                "duration": 0.38409090909090793,
                "tempo": 120.0
            },
            {
                "start_time": 27.277272727272727,
                "end_time": 27.661363636363635,
                "pitch": 51,
                "velocity": 40,
                "duration": 0.38409090909090793,
                "tempo": 120.0
            },
            {
                "start_time": 27.677272727272726,
                "end_time": 28.061363636363634,
                "pitch": 51,
                "velocity": 40,
                "duration": 0.38409090909090793,
                "tempo": 120.0
            },
            {
                "start_time": 28.077272727272724,
                "end_time": 28.329545454545453,
                "pitch": 48,
                "velocity": 40,
                "duration": 0.25227272727272876,
                "tempo": 120.0
            },
            {
                "start_time": 28.345454545454544,
                "end_time": 28.46363636363636,
                "pitch": 56,
                "velocity": 40,
                "duration": 0.11818181818181728,
                "tempo": 120.0
            },
            {
                "start_time": 28.479545454545452,
                "end_time": 28.736363636363635,
                "pitch": 51,
                "velocity": 40,
                "duration": 0.2568181818181827,
                "tempo": 120.0
            },
            {
                "start_time": 28.754545454545454,
                "end_time": 28.87272727272727,
                "pitch": 48,
                "velocity": 40,
                "duration": 0.11818181818181728,
                "tempo": 120.0
            },
            {
                "start_time": 28.89090909090909,
                "end_time": 29.26590909090909,
                "pitch": 49,
                "velocity": 40,
                "duration": 0.375,
                "tempo": 120.0
            },
            {
                "start_time": 29.28181818181818,
                "end_time": 29.66590909090909,
                "pitch": 49,
                "velocity": 40,
                "duration": 0.38409090909090793,
                "tempo": 120.0
            },
            {
                "start_time": 29.68181818181818,
                "end_time": 30.065909090909088,
                "pitch": 44,
                "velocity": 40,
                "duration": 0.38409090909090793,
                "tempo": 120.0
            },
            {
                "start_time": 30.081818181818182,
                "end_time": 30.468181818181815,
                "pitch": 44,
                "velocity": 40,
                "duration": 0.38636363636363313,
                "tempo": 120.0
            },
            {
                "start_time": 30.48409090909091,
                "end_time": 30.73409090909091,
                "pitch": 40,
                "velocity": 40,
                "duration": 0.25,
                "tempo": 120.0
            },
            {
                "start_time": 30.752272727272725,
                "end_time": 30.868181818181817,
                "pitch": 44,
                "velocity": 40,
                "duration": 0.11590909090909207,
                "tempo": 120.0
            },
            {
                "start_time": 30.886363636363633,
                "end_time": 31.136363636363633,
                "pitch": 40,
                "velocity": 40,
                "duration": 0.25,
                "tempo": 120.0
            },
            {
                "start_time": 31.28863636363636,
                "end_time": 32.070454545454545,
                "pitch": 37,
                "velocity": 40,
                "duration": 0.7818181818181849,
                "tempo": 120.0
            },
            {
                "start_time": 32.08863636363636,
                "end_time": 32.48181818181818,
                "pitch": 44,
                "velocity": 40,
                "duration": 0.39318181818181586,
                "tempo": 120.0
            },
            {
                "start_time": 32.49772727272727,
                "end_time": 32.88409090909091,
                "pitch": 44,
                "velocity": 40,
                "duration": 0.38636363636364024,
                "tempo": 120.0
            },
            {
                "start_time": 32.902272727272724,
                "end_time": 33.277272727272724,
                "pitch": 48,
                "velocity": 40,
                "duration": 0.375,
                "tempo": 120.0
            },
            {
                "start_time": 33.293181818181814,
                "end_time": 33.67727272727272,
                "pitch": 48,
                "velocity": 40,
                "duration": 0.38409090909090793,
                "tempo": 120.0
            },
            {
                "start_time": 33.69318181818181,
                "end_time": 34.07727272727273,
                "pitch": 51,
                "velocity": 40,
                "duration": 0.38409090909091503,
                "tempo": 120.0
            },
            {
                "start_time": 34.09318181818182,
                "end_time": 34.47727272727273,
                "pitch": 51,
                "velocity": 40,
                "duration": 0.38409090909090793,
                "tempo": 120.0
            },
            {
                "start_time": 34.49318181818182,
                "end_time": 34.74545454545454,
                "pitch": 48,
                "velocity": 40,
                "duration": 0.2522727272727252,
                "tempo": 120.0
            },
            {
                "start_time": 34.76136363636363,
                "end_time": 34.87954545454545,
                "pitch": 56,
                "velocity": 40,
                "duration": 0.11818181818181728,
                "tempo": 120.0
            },
            {
                "start_time": 34.89545454545454,
                "end_time": 35.152272727272724,
                "pitch": 51,
                "velocity": 40,
                "duration": 0.2568181818181827,
                "tempo": 120.0
            },
            {
                "start_time": 35.17045454545455,
                "end_time": 35.29090909090909,
                "pitch": 48,
                "velocity": 40,
                "duration": 0.12045454545454248,
                "tempo": 120.0
            },
            {
                "start_time": 35.30681818181818,
                "end_time": 35.68181818181818,
                "pitch": 49,
                "velocity": 40,
                "duration": 0.375,
                "tempo": 120.0
            },
            {
                "start_time": 35.699999999999996,
                "end_time": 36.09318181818182,
                "pitch": 49,
                "velocity": 40,
                "duration": 0.39318181818182296,
                "tempo": 120.0
            },
            {
                "start_time": 36.10909090909091,
                "end_time": 36.486363636363635,
                "pitch": 44,
                "velocity": 40,
                "duration": 0.3772727272727252,
                "tempo": 120.0
            },
            {
                "start_time": 36.502272727272725,
                "end_time": 36.88863636363636,
                "pitch": 44,
                "velocity": 40,
                "duration": 0.38636363636363313,
                "tempo": 120.0
            },
            {
                "start_time": 36.904545454545456,
                "end_time": 37.288636363636364,
                "pitch": 40,
                "velocity": 40,
                "duration": 0.38409090909090793,
                "tempo": 120.0
            },
            {
                "start_time": 37.304545454545455,
                "end_time": 37.68863636363636,
                "pitch": 40,
                "velocity": 40,
                "duration": 0.38409090909090793,
                "tempo": 120.0
            },
            {
                "start_time": 37.70454545454545,
                "end_time": 38.08863636363636,
                "pitch": 44,
                "velocity": 40,
                "duration": 0.38409090909090793,
                "tempo": 120.0
            },
            {
                "start_time": 38.10454545454545,
                "end_time": 38.48863636363636,
                "pitch": 44,
                "velocity": 40,
                "duration": 0.38409090909090793,
                "tempo": 120.0
            },
            {
                "start_time": 38.50454545454545,
                "end_time": 38.89772727272727,
                "pitch": 45,
                "velocity": 40,
                "duration": 0.39318181818182296,
                "tempo": 120.0
            },
            {
                "start_time": 38.91590909090909,
                "end_time": 39.29772727272727,
                "pitch": 45,
                "velocity": 40,
                "duration": 0.3818181818181827,
                "tempo": 120.0
            },
            {
                "start_time": 39.31590909090909,
                "end_time": 39.69090909090909,
                "pitch": 49,
                "velocity": 40,
                "duration": 0.375,
                "tempo": 120.0
            },
            {
                "start_time": 39.70681818181818,
                "end_time": 40.1,
                "pitch": 52,
                "velocity": 40,
                "duration": 0.39318181818182296,
                "tempo": 120.0
            },
            {
                "start_time": 40.11818181818182,
                "end_time": 40.49318181818182,
                "pitch": 47,
                "velocity": 40,
                "duration": 0.375,
                "tempo": 120.0
            },
            {
                "start_time": 40.51136363636363,
                "end_time": 40.904545454545456,
                "pitch": 47,
                "velocity": 40,
                "duration": 0.39318181818182296,
                "tempo": 120.0
            },
            {
                "start_time": 40.92045454545455,
                "end_time": 41.29545454545455,
                "pitch": 51,
                "velocity": 40,
                "duration": 0.375,
                "tempo": 120.0
            },
            {
                "start_time": 41.31363636363636,
                "end_time": 41.695454545454545,
                "pitch": 54,
                "velocity": 40,
                "duration": 0.3818181818181827,
                "tempo": 120.0
            },
            {
                "start_time": 41.71363636363636,
                "end_time": 41.970454545454544,
                "pitch": 55,
                "velocity": 40,
                "duration": 0.2568181818181827,
                "tempo": 120.0
            },
            {
                "start_time": 41.986363636363635,
                "end_time": 42.24090909090909,
                "pitch": 55,
                "velocity": 40,
                "duration": 0.2545454545454575,
                "tempo": 120.0
            },
            {
                "start_time": 42.25681818181818,
                "end_time": 42.50681818181818,
                "pitch": 55,
                "velocity": 40,
                "duration": 0.25,
                "tempo": 120.0
            },
            {
                "start_time": 42.525,
                "end_time": 42.775,
                "pitch": 55,
                "velocity": 40,
                "duration": 0.25,
                "tempo": 120.0
            },
            {
                "start_time": 42.79090909090909,
                "end_time": 43.04090909090909,
                "pitch": 55,
                "velocity": 40,
                "duration": 0.25,
                "tempo": 120.0
            },
            {
                "start_time": 43.19090909090909,
                "end_time": 43.30681818181818,
                "pitch": 54,
                "velocity": 40,
                "duration": 0.11590909090909207,
                "tempo": 120.0
            },
            {
                "start_time": 43.32272727272727,
                "end_time": 44.902272727272724,
                "pitch": 52,
                "velocity": 40,
                "duration": 1.5795454545454533,
                "tempo": 120.0
            },
            {
                "start_time": 45.71818181818182,
                "end_time": 45.96818181818182,
                "pitch": 47,
                "velocity": 40,
                "duration": 0.25,
                "tempo": 120.0
            },
            {
                "start_time": 45.986363636363635,
                "end_time": 46.10227272727273,
                "pitch": 47,
                "velocity": 40,
                "duration": 0.11590909090909207,
                "tempo": 120.0
            },
            {
                "start_time": 46.11818181818182,
                "end_time": 46.375,
                "pitch": 49,
                "velocity": 40,
                "duration": 0.2568181818181827,
                "tempo": 120.0
            },
            {
                "start_time": 46.393181818181816,
                "end_time": 46.51136363636363,
                "pitch": 51,
                "velocity": 40,
                "duration": 0.11818181818181728,
                "tempo": 120.0
            },
            {
                "start_time": 46.52954545454545,
                "end_time": 46.54545454545455,
                "pitch": 40,
                "velocity": 40,
                "duration": 0.015909090909097756,
                "tempo": 120.0
            }
        ],
        "Acoustic Grand Piano": [
            {
                "start_time": 1.05,
                "end_time": 1.565909090909091,
                "pitch": 71,
                "velocity": 40,
                "duration": 0.5159090909090909,
                "tempo": 120.0
            },
            {
                "start_time": 1.584090909090909,
                "end_time": 1.8409090909090908,
                "pitch": 72,
                "velocity": 40,
                "duration": 0.25681818181818183,
                "tempo": 120.0
            },
            {
                "start_time": 2.6522727272727273,
                "end_time": 3.1795454545454542,
                "pitch": 72,
                "velocity": 40,
                "duration": 0.5272727272727269,
                "tempo": 120.0
            },
            {
                "start_time": 3.1977272727272728,
                "end_time": 3.440909090909091,
                "pitch": 73,
                "velocity": 40,
                "duration": 0.24318181818181817,
                "tempo": 120.0
            },
            {
                "start_time": 4.256818181818182,
                "end_time": 4.372727272727272,
                "pitch": 73,
                "velocity": 40,
                "duration": 0.1159090909090903,
                "tempo": 120.0
            },
            {
                "start_time": 4.663636363636363,
                "end_time": 5.586363636363636,
                "pitch": 73,
                "velocity": 40,
                "duration": 0.9227272727272728,
                "tempo": 120.0
            },
            {
                "start_time": 5.602272727272727,
                "end_time": 5.977272727272727,
                "pitch": 73,
                "velocity": 40,
                "duration": 0.375,
                "tempo": 120.0
            },
            {
                "start_time": 5.995454545454545,
                "end_time": 6.388636363636364,
                "pitch": 71,
                "velocity": 40,
                "duration": 0.3931818181818185,
                "tempo": 120.0
            },
            {
                "start_time": 6.404545454545454,
                "end_time": 7.047727272727272,
                "pitch": 69,
                "velocity": 40,
                "duration": 0.6431818181818176,
                "tempo": 120.0
            },
            {
                "start_time": 7.0659090909090905,
                "end_time": 7.986363636363636,
                "pitch": 69,
                "velocity": 40,
                "duration": 0.9204545454545459,
                "tempo": 120.0
            },
            {
                "start_time": 8.002272727272727,
                "end_time": 8.656818181818181,
                "pitch": 70,
                "velocity": 40,
                "duration": 0.6545454545454543,
                "tempo": 120.0
            },
            {
                "start_time": 8.672727272727272,
                "end_time": 9.602272727272727,
                "pitch": 70,
                "velocity": 40,
                "duration": 0.9295454545454547,
                "tempo": 120.0
            },
            {
                "start_time": 9.618181818181817,
                "end_time": 10.261363636363637,
                "pitch": 71,
                "velocity": 40,
                "duration": 0.6431818181818194,
                "tempo": 120.0
            },
            {
                "start_time": 10.279545454545454,
                "end_time": 11.2,
                "pitch": 71,
                "velocity": 40,
                "duration": 0.920454545454545,
                "tempo": 120.0
            },
            {
                "start_time": 11.21590909090909,
                "end_time": 12.013636363636364,
                "pitch": 71,
                "velocity": 40,
                "duration": 0.7977272727272737,
                "tempo": 120.0
            },
            {
                "start_time": 12.029545454545454,
                "end_time": 12.274999999999999,
                "pitch": 71,
                "velocity": 40,
                "duration": 0.24545454545454426,
                "tempo": 120.0
            },
            {
                "start_time": 12.290909090909091,
                "end_time": 12.404545454545454,
                "pitch": 71,
                "velocity": 40,
                "duration": 0.11363636363636331,
                "tempo": 120.0
            },
            {
                "start_time": 12.85,
                "end_time": 13.081818181818182,
                "pitch": 71,
                "velocity": 40,
                "duration": 0.23181818181818237,
                "tempo": 120.0
            },
            {
                "start_time": 13.893181818181818,
                "end_time": 14.413636363636362,
                "pitch": 71,
                "velocity": 40,
                "duration": 0.5204545454545446,
                "tempo": 120.0
            },
            {
                "start_time": 14.429545454545455,
                "end_time": 14.686363636363636,
                "pitch": 72,
                "velocity": 40,
                "duration": 0.25681818181818095,
                "tempo": 120.0
            },
            {
                "start_time": 15.502272727272727,
                "end_time": 16.029545454545453,
                "pitch": 72,
                "velocity": 40,
                "duration": 0.5272727272727256,
                "tempo": 120.0
            },
            {
                "start_time": 16.045454545454543,
                "end_time": 16.29090909090909,
                "pitch": 73,
                "velocity": 40,
                "duration": 0.24545454545454604,
                "tempo": 120.0
            },
            {
                "start_time": 17.10681818181818,
                "end_time": 17.224999999999998,
                "pitch": 73,
                "velocity": 40,
                "duration": 0.11818181818181728,
                "tempo": 120.0
            },
            {
                "start_time": 17.51590909090909,
                "end_time": 18.429545454545455,
                "pitch": 73,
                "velocity": 40,
                "duration": 0.913636363636364,
                "tempo": 120.0
            },
            {
                "start_time": 18.44772727272727,
                "end_time": 18.829545454545453,
                "pitch": 73,
                "velocity": 40,
                "duration": 0.3818181818181827,
                "tempo": 120.0
            },
            {
                "start_time": 18.847727272727273,
                "end_time": 19.24090909090909,
                "pitch": 71,
                "velocity": 40,
                "duration": 0.39318181818181586,
                "tempo": 120.0
            },
            {
                "start_time": 19.25681818181818,
                "end_time": 19.904545454545453,
                "pitch": 69,
                "velocity": 40,
                "duration": 0.6477272727272734,
                "tempo": 120.0
            },
            {
                "start_time": 19.922727272727272,
                "end_time": 20.849999999999998,
                "pitch": 69,
                "velocity": 40,
                "duration": 0.9272727272727259,
                "tempo": 120.0
            },
            {
                "start_time": 20.86590909090909,
                "end_time": 21.111363636363635,
                "pitch": 70,
                "velocity": 40,
                "duration": 0.24545454545454604,
                "tempo": 120.0
            },
            {
                "start_time": 21.127272727272725,
                "end_time": 21.24090909090909,
                "pitch": 70,
                "velocity": 40,
                "duration": 0.11363636363636331,
                "tempo": 120.0
            },
            {
                "start_time": 21.525,
                "end_time": 22.443181818181817,
                "pitch": 71,
                "velocity": 40,
                "duration": 0.918181818181818,
                "tempo": 120.0
            },
            {
                "start_time": 22.461363636363636,
                "end_time": 22.84318181818182,
                "pitch": 71,
                "velocity": 40,
                "duration": 0.3818181818181827,
                "tempo": 120.0
            },
            {
                "start_time": 22.861363636363635,
                "end_time": 23.24772727272727,
                "pitch": 71,
                "velocity": 40,
                "duration": 0.3863636363636367,
                "tempo": 120.0
            },
            {
                "start_time": 23.263636363636362,
                "end_time": 23.513636363636362,
                "pitch": 73,
                "velocity": 40,
                "duration": 0.25,
                "tempo": 120.0
            },
            {
                "start_time": 23.529545454545453,
                "end_time": 23.64772727272727,
                "pitch": 73,
                "velocity": 40,
                "duration": 0.11818181818181728,
                "tempo": 120.0
            },
            {
                "start_time": 23.936363636363634,
                "end_time": 24.85909090909091,
                "pitch": 71,
                "velocity": 40,
                "duration": 0.9227272727272755,
                "tempo": 120.0
            },
            {
                "start_time": 25.138636363636362,
                "end_time": 25.252272727272725,
                "pitch": 88,
                "velocity": 40,
                "duration": 0.11363636363636331,
                "tempo": 120.0
            },
            {
                "start_time": 25.679545454545455,
                "end_time": 26.054545454545455,
                "pitch": 72,
                "velocity": 40,
                "duration": 0.375,
                "tempo": 120.0
            },
            {
                "start_time": 26.070454545454545,
                "end_time": 26.46590909090909,
                "pitch": 72,
                "velocity": 40,
                "duration": 0.3954545454545446,
                "tempo": 120.0
            },
            {
                "start_time": 26.875,
                "end_time": 27.259090909090908,
                "pitch": 72,
                "velocity": 40,
                "duration": 0.38409090909090793,
                "tempo": 120.0
            },
            {
                "start_time": 27.677272727272726,
                "end_time": 28.061363636363634,
                "pitch": 72,
                "velocity": 40,
                "duration": 0.38409090909090793,
                "tempo": 120.0
            },
            {
                "start_time": 28.479545454545452,
                "end_time": 28.736363636363635,
                "pitch": 72,
                "velocity": 40,
                "duration": 0.2568181818181827,
                "tempo": 120.0
            },
            {
                "start_time": 28.754545454545454,
                "end_time": 28.87272727272727,
                "pitch": 72,
                "velocity": 40,
                "duration": 0.11818181818181728,
                "tempo": 120.0
            },
            {
                "start_time": 28.89090909090909,
                "end_time": 29.26590909090909,
                "pitch": 73,
                "velocity": 40,
                "duration": 0.375,
                "tempo": 120.0
            },
            {
                "start_time": 29.28181818181818,
                "end_time": 29.66590909090909,
                "pitch": 73,
                "velocity": 40,
                "duration": 0.38409090909090793,
                "tempo": 120.0
            },
            {
                "start_time": 30.081818181818182,
                "end_time": 30.468181818181815,
                "pitch": 73,
                "velocity": 40,
                "duration": 0.38636363636363313,
                "tempo": 120.0
            },
            {
                "start_time": 30.886363636363633,
                "end_time": 31.270454545454545,
                "pitch": 73,
                "velocity": 40,
                "duration": 0.3840909090909115,
                "tempo": 120.0
            },
            {
                "start_time": 31.688636363636363,
                "end_time": 31.938636363636363,
                "pitch": 73,
                "velocity": 40,
                "duration": 0.25,
                "tempo": 120.0
            },
            {
                "start_time": 31.954545454545453,
                "end_time": 32.070454545454545,
                "pitch": 73,
                "velocity": 40,
                "duration": 0.11590909090909207,
                "tempo": 120.0
            },
            {
                "start_time": 32.10454545454545,
                "end_time": 32.48181818181818,
                "pitch": 72,
                "velocity": 40,
                "duration": 0.3772727272727252,
                "tempo": 120.0
            },
            {
                "start_time": 32.49772727272727,
                "end_time": 32.88409090909091,
                "pitch": 72,
                "velocity": 40,
                "duration": 0.38636363636364024,
                "tempo": 120.0
            },
            {
                "start_time": 33.293181818181814,
                "end_time": 33.67727272727272,
                "pitch": 72,
                "velocity": 40,
                "duration": 0.38409090909090793,
                "tempo": 120.0
            },
            {
                "start_time": 34.09318181818182,
                "end_time": 34.47727272727273,
                "pitch": 72,
                "velocity": 40,
                "duration": 0.38409090909090793,
                "tempo": 120.0
            },
            {
                "start_time": 34.89545454545454,
                "end_time": 35.152272727272724,
                "pitch": 72,
                "velocity": 40,
                "duration": 0.2568181818181827,
                "tempo": 120.0
            },
            {
                "start_time": 35.17045454545455,
                "end_time": 35.29090909090909,
                "pitch": 72,
                "velocity": 40,
                "duration": 0.12045454545454248,
                "tempo": 120.0
            },
            {
                "start_time": 35.30681818181818,
                "end_time": 35.68181818181818,
                "pitch": 73,
                "velocity": 40,
                "duration": 0.375,
                "tempo": 120.0
            },
            {
                "start_time": 35.699999999999996,
                "end_time": 36.09318181818182,
                "pitch": 73,
                "velocity": 40,
                "duration": 0.39318181818182296,
                "tempo": 120.0
            },
            {
                "start_time": 36.502272727272725,
                "end_time": 36.88863636363636,
                "pitch": 73,
                "velocity": 40,
                "duration": 0.38636363636363313,
                "tempo": 120.0
            },
            {
                "start_time": 37.304545454545455,
                "end_time": 37.68863636363636,
                "pitch": 73,
                "velocity": 40,
                "duration": 0.38409090909090793,
                "tempo": 120.0
            },
            {
                "start_time": 38.10454545454545,
                "end_time": 38.35454545454545,
                "pitch": 73,
                "velocity": 40,
                "duration": 0.25,
                "tempo": 120.0
            },
            {
                "start_time": 38.37045454545454,
                "end_time": 38.48863636363636,
                "pitch": 73,
                "velocity": 40,
                "duration": 0.11818181818181728,
                "tempo": 120.0
            },
            {
                "start_time": 38.50454545454545,
                "end_time": 38.89772727272727,
                "pitch": 73,
                "velocity": 40,
                "duration": 0.39318181818182296,
                "tempo": 120.0
            },
            {
                "start_time": 38.91590909090909,
                "end_time": 39.29772727272727,
                "pitch": 73,
                "velocity": 40,
                "duration": 0.3818181818181827,
                "tempo": 120.0
            },
            {
                "start_time": 39.57727272727273,
                "end_time": 40.1,
                "pitch": 73,
                "velocity": 40,
                "duration": 0.5227272727272734,
                "tempo": 120.0
            },
            {
                "start_time": 40.11818181818182,
                "end_time": 40.49318181818182,
                "pitch": 71,
                "velocity": 40,
                "duration": 0.375,
                "tempo": 120.0
            },
            {
                "start_time": 40.51136363636363,
                "end_time": 40.904545454545456,
                "pitch": 71,
                "velocity": 40,
                "duration": 0.39318181818182296,
                "tempo": 120.0
            },
            {
                "start_time": 41.18181818181818,
                "end_time": 41.695454545454545,
                "pitch": 71,
                "velocity": 40,
                "duration": 0.5136363636363654,
                "tempo": 120.0
            },
            {
                "start_time": 41.71363636363636,
                "end_time": 41.970454545454544,
                "pitch": 73,
                "velocity": 40,
                "duration": 0.2568181818181827,
                "tempo": 120.0
            },
            {
                "start_time": 41.986363636363635,
                "end_time": 42.24090909090909,
                "pitch": 73,
                "velocity": 40,
                "duration": 0.2545454545454575,
                "tempo": 120.0
            },
            {
                "start_time": 42.25681818181818,
                "end_time": 42.50681818181818,
                "pitch": 73,
                "velocity": 40,
                "duration": 0.25,
                "tempo": 120.0
            },
            {
                "start_time": 42.525,
                "end_time": 42.775,
                "pitch": 73,
                "velocity": 40,
                "duration": 0.25,
                "tempo": 120.0
            },
            {
                "start_time": 42.79090909090909,
                "end_time": 43.04090909090909,
                "pitch": 73,
                "velocity": 40,
                "duration": 0.25,
                "tempo": 120.0
            },
            {
                "start_time": 43.32272727272727,
                "end_time": 44.902272727272724,
                "pitch": 71,
                "velocity": 40,
                "duration": 1.5795454545454533,
                "tempo": 120.0
            },
            {
                "start_time": 45.71818181818182,
                "end_time": 46.51136363636363,
                "pitch": 71,
                "velocity": 40,
                "duration": 0.7931818181818144,
                "tempo": 120.0
            }
        ],
        "Clarinet": [
            {
                "start_time": 28.479545454545452,
                "end_time": 28.547727272727272,
                "pitch": 57,
                "velocity": 51,
                "duration": 0.06818181818182012,
                "tempo": 120.0
            },
            {
                "start_time": 28.547727272727272,
                "end_time": 28.65,
                "pitch": 55,
                "velocity": 51,
                "duration": 0.10227272727272663,
                "tempo": 120.0
            },
            {
                "start_time": 28.65,
                "end_time": 28.736363636363635,
                "pitch": 52,
                "velocity": 51,
                "duration": 0.08636363636363598,
                "tempo": 120.0
            },
            {
                "start_time": 28.736363636363635,
                "end_time": 28.754545454545454,
                "pitch": 50,
                "velocity": 51,
                "duration": 0.01818181818181941,
                "tempo": 120.0
            },
            {
                "start_time": 28.754545454545454,
                "end_time": 28.78863636363636,
                "pitch": 60,
                "velocity": 51,
                "duration": 0.03409090909090651,
                "tempo": 120.0
            },
            {
                "start_time": 28.78863636363636,
                "end_time": 28.804545454545455,
                "pitch": 56,
                "velocity": 51,
                "duration": 0.015909090909094203,
                "tempo": 120.0
            },
            {
                "start_time": 28.804545454545455,
                "end_time": 28.83863636363636,
                "pitch": 54,
                "velocity": 51,
                "duration": 0.03409090909090651,
                "tempo": 120.0
            },
            {
                "start_time": 28.83863636363636,
                "end_time": 28.87272727272727,
                "pitch": 51,
                "velocity": 51,
                "duration": 0.03409090909091006,
                "tempo": 120.0
            },
            {
                "start_time": 28.87272727272727,
                "end_time": 28.89090909090909,
                "pitch": 48,
                "velocity": 51,
                "duration": 0.01818181818181941,
                "tempo": 120.0
            },
            {
                "start_time": 30.081818181818182,
                "end_time": 30.11590909090909,
                "pitch": 60,
                "velocity": 51,
                "duration": 0.03409090909090651,
                "tempo": 120.0
            },
            {
                "start_time": 30.11590909090909,
                "end_time": 30.13181818181818,
                "pitch": 56,
                "velocity": 51,
                "duration": 0.01590909090909065,
                "tempo": 120.0
            },
            {
                "start_time": 30.13181818181818,
                "end_time": 30.16590909090909,
                "pitch": 54,
                "velocity": 51,
                "duration": 0.03409090909091006,
                "tempo": 120.0
            },
            {
                "start_time": 30.16590909090909,
                "end_time": 30.2,
                "pitch": 51,
                "velocity": 51,
                "duration": 0.03409090909091006,
                "tempo": 120.0
            },
            {
                "start_time": 30.2,
                "end_time": 30.23409090909091,
                "pitch": 48,
                "velocity": 51,
                "duration": 0.03409090909091006,
                "tempo": 120.0
            },
            {
                "start_time": 30.23409090909091,
                "end_time": 30.25,
                "pitch": 44,
                "velocity": 51,
                "duration": 0.01590909090909065,
                "tempo": 120.0
            },
            {
                "start_time": 30.25,
                "end_time": 30.284090909090907,
                "pitch": 42,
                "velocity": 51,
                "duration": 0.03409090909090651,
                "tempo": 120.0
            },
            {
                "start_time": 30.284090909090907,
                "end_time": 30.318181818181817,
                "pitch": 39,
                "velocity": 51,
                "duration": 0.03409090909091006,
                "tempo": 120.0
            },
            {
                "start_time": 30.318181818181817,
                "end_time": 30.349999999999998,
                "pitch": 36,
                "velocity": 51,
                "duration": 0.0318181818181813,
                "tempo": 120.0
            },
            {
                "start_time": 30.349999999999998,
                "end_time": 30.384090909090908,
                "pitch": 60,
                "velocity": 51,
                "duration": 0.03409090909091006,
                "tempo": 120.0
            },
            {
                "start_time": 30.384090909090908,
                "end_time": 30.402272727272727,
                "pitch": 56,
                "velocity": 51,
                "duration": 0.01818181818181941,
                "tempo": 120.0
            },
            {
                "start_time": 30.402272727272727,
                "end_time": 30.43409090909091,
                "pitch": 54,
                "velocity": 51,
                "duration": 0.0318181818181813,
                "tempo": 120.0
            },
            {
                "start_time": 30.43409090909091,
                "end_time": 30.468181818181815,
                "pitch": 51,
                "velocity": 51,
                "duration": 0.03409090909090651,
                "tempo": 120.0
            },
            {
                "start_time": 30.468181818181815,
                "end_time": 30.48409090909091,
                "pitch": 48,
                "velocity": 51,
                "duration": 0.015909090909094203,
                "tempo": 120.0
            },
            {
                "start_time": 31.688636363636363,
                "end_time": 31.720454545454544,
                "pitch": 60,
                "velocity": 51,
                "duration": 0.0318181818181813,
                "tempo": 120.0
            },
            {
                "start_time": 31.720454545454544,
                "end_time": 31.738636363636363,
                "pitch": 56,
                "velocity": 51,
                "duration": 0.01818181818181941,
                "tempo": 120.0
            },
            {
                "start_time": 31.738636363636363,
                "end_time": 31.770454545454545,
                "pitch": 54,
                "velocity": 51,
                "duration": 0.0318181818181813,
                "tempo": 120.0
            },
            {
                "start_time": 31.770454545454545,
                "end_time": 31.804545454545455,
                "pitch": 51,
                "velocity": 51,
                "duration": 0.03409090909091006,
                "tempo": 120.0
            },
            {
                "start_time": 31.804545454545455,
                "end_time": 31.820454545454545,
                "pitch": 48,
                "velocity": 51,
                "duration": 0.01590909090909065,
                "tempo": 120.0
            },
            {
                "start_time": 31.820454545454545,
                "end_time": 31.854545454545452,
                "pitch": 60,
                "velocity": 51,
                "duration": 0.03409090909090651,
                "tempo": 120.0
            },
            {
                "start_time": 31.854545454545452,
                "end_time": 31.870454545454542,
                "pitch": 56,
                "velocity": 51,
                "duration": 0.01590909090909065,
                "tempo": 120.0
            },
            {
                "start_time": 31.870454545454542,
                "end_time": 31.904545454545453,
                "pitch": 54,
                "velocity": 51,
                "duration": 0.03409090909091006,
                "tempo": 120.0
            },
            {
                "start_time": 31.904545454545453,
                "end_time": 31.938636363636363,
                "pitch": 51,
                "velocity": 51,
                "duration": 0.03409090909091006,
                "tempo": 120.0
            },
            {
                "start_time": 31.938636363636363,
                "end_time": 31.954545454545453,
                "pitch": 48,
                "velocity": 51,
                "duration": 0.01590909090909065,
                "tempo": 120.0
            },
            {
                "start_time": 31.954545454545453,
                "end_time": 32.02045454545454,
                "pitch": 57,
                "velocity": 51,
                "duration": 0.06590909090908781,
                "tempo": 120.0
            },
            {
                "start_time": 32.02045454545454,
                "end_time": 32.08863636363636,
                "pitch": 55,
                "velocity": 51,
                "duration": 0.06818181818182012,
                "tempo": 120.0
            },
            {
                "start_time": 32.08863636363636,
                "end_time": 33.31136363636364,
                "pitch": 80,
                "velocity": 51,
                "duration": 1.2227272727272762,
                "tempo": 120.0
            },
            {
                "start_time": 33.31136363636364,
                "end_time": 33.32727272727273,
                "pitch": 58,
                "velocity": 51,
                "duration": 0.01590909090909065,
                "tempo": 120.0
            },
            {
                "start_time": 33.32727272727273,
                "end_time": 33.34318181818182,
                "pitch": 56,
                "velocity": 51,
                "duration": 0.01590909090909065,
                "tempo": 120.0
            },
            {
                "start_time": 33.34318181818182,
                "end_time": 33.377272727272725,
                "pitch": 54,
                "velocity": 51,
                "duration": 0.03409090909090651,
                "tempo": 120.0
            },
            {
                "start_time": 33.377272727272725,
                "end_time": 33.41136363636363,
                "pitch": 51,
                "velocity": 51,
                "duration": 0.03409090909090651,
                "tempo": 120.0
            },
            {
                "start_time": 33.41136363636363,
                "end_time": 33.44318181818181,
                "pitch": 48,
                "velocity": 51,
                "duration": 0.0318181818181813,
                "tempo": 120.0
            },
            {
                "start_time": 33.44318181818181,
                "end_time": 33.461363636363636,
                "pitch": 44,
                "velocity": 51,
                "duration": 0.018181818181822962,
                "tempo": 120.0
            },
            {
                "start_time": 33.461363636363636,
                "end_time": 33.49318181818182,
                "pitch": 42,
                "velocity": 51,
                "duration": 0.0318181818181813,
                "tempo": 120.0
            },
            {
                "start_time": 33.49318181818182,
                "end_time": 33.527272727272724,
                "pitch": 39,
                "velocity": 51,
                "duration": 0.03409090909090651,
                "tempo": 120.0
            },
            {
                "start_time": 33.527272727272724,
                "end_time": 33.56136363636364,
                "pitch": 36,
                "velocity": 51,
                "duration": 0.03409090909091361,
                "tempo": 120.0
            },
            {
                "start_time": 33.56136363636364,
                "end_time": 33.59318181818182,
                "pitch": 60,
                "velocity": 51,
                "duration": 0.0318181818181813,
                "tempo": 120.0
            },
            {
                "start_time": 33.59318181818182,
                "end_time": 33.611363636363635,
                "pitch": 56,
                "velocity": 51,
                "duration": 0.018181818181815856,
                "tempo": 120.0
            },
            {
                "start_time": 33.611363636363635,
                "end_time": 33.643181818181816,
                "pitch": 54,
                "velocity": 51,
                "duration": 0.0318181818181813,
                "tempo": 120.0
            },
            {
                "start_time": 33.643181818181816,
                "end_time": 33.67727272727272,
                "pitch": 51,
                "velocity": 51,
                "duration": 0.03409090909090651,
                "tempo": 120.0
            },
            {
                "start_time": 33.67727272727272,
                "end_time": 33.69318181818181,
                "pitch": 48,
                "velocity": 51,
                "duration": 0.01590909090909065,
                "tempo": 120.0
            },
            {
                "start_time": 34.89545454545454,
                "end_time": 34.96363636363636,
                "pitch": 57,
                "velocity": 51,
                "duration": 0.06818181818182012,
                "tempo": 120.0
            },
            {
                "start_time": 34.96363636363636,
                "end_time": 35.06818181818181,
                "pitch": 55,
                "velocity": 51,
                "duration": 0.10454545454545183,
                "tempo": 120.0
            },
            {
                "start_time": 35.06818181818181,
                "end_time": 35.152272727272724,
                "pitch": 52,
                "velocity": 51,
                "duration": 0.08409090909091077,
                "tempo": 120.0
            },
            {
                "start_time": 35.152272727272724,
                "end_time": 35.17045454545455,
                "pitch": 50,
                "velocity": 51,
                "duration": 0.018181818181822962,
                "tempo": 120.0
            },
            {
                "start_time": 35.17045454545455,
                "end_time": 35.20454545454545,
                "pitch": 60,
                "velocity": 51,
                "duration": 0.03409090909090651,
                "tempo": 120.0
            },
            {
                "start_time": 35.20454545454545,
                "end_time": 35.220454545454544,
                "pitch": 56,
                "velocity": 51,
                "duration": 0.01590909090909065,
                "tempo": 120.0
            },
            {
                "start_time": 35.220454545454544,
                "end_time": 35.25681818181818,
                "pitch": 54,
                "velocity": 51,
                "duration": 0.03636363636363882,
                "tempo": 120.0
            },
            {
                "start_time": 35.25681818181818,
                "end_time": 35.29090909090909,
                "pitch": 51,
                "velocity": 51,
                "duration": 0.03409090909090651,
                "tempo": 120.0
            },
            {
                "start_time": 35.29090909090909,
                "end_time": 35.30681818181818,
                "pitch": 48,
                "velocity": 51,
                "duration": 0.01590909090909065,
                "tempo": 120.0
            },
            {
                "start_time": 36.502272727272725,
                "end_time": 36.53636363636363,
                "pitch": 60,
                "velocity": 51,
                "duration": 0.03409090909090651,
                "tempo": 120.0
            },
            {
                "start_time": 36.53636363636363,
                "end_time": 36.55227272727272,
                "pitch": 56,
                "velocity": 51,
                "duration": 0.01590909090909065,
                "tempo": 120.0
            },
            {
                "start_time": 36.55227272727272,
                "end_time": 36.586363636363636,
                "pitch": 54,
                "velocity": 51,
                "duration": 0.03409090909091361,
                "tempo": 120.0
            },
            {
                "start_time": 36.586363636363636,
                "end_time": 36.62045454545454,
                "pitch": 51,
                "velocity": 51,
                "duration": 0.03409090909090651,
                "tempo": 120.0
            },
            {
                "start_time": 36.62045454545454,
                "end_time": 36.652272727272724,
                "pitch": 48,
                "velocity": 51,
                "duration": 0.0318181818181813,
                "tempo": 120.0
            },
            {
                "start_time": 36.652272727272724,
                "end_time": 36.67045454545455,
                "pitch": 44,
                "velocity": 51,
                "duration": 0.018181818181822962,
                "tempo": 120.0
            },
            {
                "start_time": 36.67045454545455,
                "end_time": 36.70227272727273,
                "pitch": 42,
                "velocity": 51,
                "duration": 0.0318181818181813,
                "tempo": 120.0
            },
            {
                "start_time": 36.70227272727273,
                "end_time": 36.736363636363635,
                "pitch": 39,
                "velocity": 51,
                "duration": 0.03409090909090651,
                "tempo": 120.0
            },
            {
                "start_time": 36.736363636363635,
                "end_time": 36.77045454545454,
                "pitch": 36,
                "velocity": 51,
                "duration": 0.03409090909090651,
                "tempo": 120.0
            },
            {
                "start_time": 36.77045454545454,
                "end_time": 36.804545454545455,
                "pitch": 60,
                "velocity": 51,
                "duration": 0.03409090909091361,
                "tempo": 120.0
            },
            {
                "start_time": 36.804545454545455,
                "end_time": 36.820454545454545,
                "pitch": 56,
                "velocity": 51,
                "duration": 0.01590909090909065,
                "tempo": 120.0
            },
            {
                "start_time": 36.820454545454545,
                "end_time": 36.85454545454545,
                "pitch": 54,
                "velocity": 51,
                "duration": 0.03409090909090651,
                "tempo": 120.0
            },
            {
                "start_time": 36.85454545454545,
                "end_time": 36.88863636363636,
                "pitch": 51,
                "velocity": 51,
                "duration": 0.03409090909090651,
                "tempo": 120.0
            },
            {
                "start_time": 36.88863636363636,
                "end_time": 36.904545454545456,
                "pitch": 48,
                "velocity": 51,
                "duration": 0.015909090909097756,
                "tempo": 120.0
            },
            {
                "start_time": 38.10454545454545,
                "end_time": 38.13863636363636,
                "pitch": 60,
                "velocity": 51,
                "duration": 0.03409090909090651,
                "tempo": 120.0
            },
            {
                "start_time": 38.13863636363636,
                "end_time": 38.154545454545456,
                "pitch": 56,
                "velocity": 51,
                "duration": 0.015909090909097756,
                "tempo": 120.0
            },
            {
                "start_time": 38.154545454545456,
                "end_time": 38.18863636363636,
                "pitch": 54,
                "velocity": 51,
                "duration": 0.03409090909090651,
                "tempo": 120.0
            },
            {
                "start_time": 38.18863636363636,
                "end_time": 38.220454545454544,
                "pitch": 51,
                "velocity": 51,
                "duration": 0.0318181818181813,
                "tempo": 120.0
            },
            {
                "start_time": 38.220454545454544,
                "end_time": 38.23863636363636,
                "pitch": 48,
                "velocity": 51,
                "duration": 0.018181818181815856,
                "tempo": 120.0
            },
            {
                "start_time": 38.23863636363636,
                "end_time": 38.27045454545454,
                "pitch": 60,
                "velocity": 51,
                "duration": 0.0318181818181813,
                "tempo": 120.0
            },
            {
                "start_time": 38.27045454545454,
                "end_time": 38.288636363636364,
                "pitch": 56,
                "velocity": 51,
                "duration": 0.018181818181822962,
                "tempo": 120.0
            },
            {
                "start_time": 38.288636363636364,
                "end_time": 38.320454545454545,
                "pitch": 54,
                "velocity": 51,
                "duration": 0.0318181818181813,
                "tempo": 120.0
            },
            {
                "start_time": 38.320454545454545,
                "end_time": 38.35454545454545,
                "pitch": 51,
                "velocity": 51,
                "duration": 0.03409090909090651,
                "tempo": 120.0
            },
            {
                "start_time": 38.35454545454545,
                "end_time": 38.37045454545454,
                "pitch": 48,
                "velocity": 51,
                "duration": 0.01590909090909065,
                "tempo": 120.0
            },
            {
                "start_time": 38.37045454545454,
                "end_time": 38.43863636363636,
                "pitch": 57,
                "velocity": 51,
                "duration": 0.06818181818182012,
                "tempo": 120.0
            },
            {
                "start_time": 38.43863636363636,
                "end_time": 38.50454545454545,
                "pitch": 55,
                "velocity": 51,
                "duration": 0.06590909090908781,
                "tempo": 120.0
            },
            {
                "start_time": 38.50454545454545,
                "end_time": 43.340909090909086,
                "pitch": 81,
                "velocity": 51,
                "duration": 4.836363636363636,
                "tempo": 120.0
            },
            {
                "start_time": 43.340909090909086,
                "end_time": 43.37272727272727,
                "pitch": 62,
                "velocity": 51,
                "duration": 0.0318181818181813,
                "tempo": 120.0
            },
            {
                "start_time": 43.37272727272727,
                "end_time": 43.40454545454545,
                "pitch": 58,
                "velocity": 51,
                "duration": 0.0318181818181813,
                "tempo": 120.0
            },
            {
                "start_time": 43.40454545454545,
                "end_time": 43.43863636363636,
                "pitch": 54,
                "velocity": 51,
                "duration": 0.03409090909091361,
                "tempo": 120.0
            },
            {
                "start_time": 43.43863636363636,
                "end_time": 43.45454545454545,
                "pitch": 52,
                "velocity": 51,
                "duration": 0.01590909090909065,
                "tempo": 120.0
            },
            {
                "start_time": 43.715909090909086,
                "end_time": 43.75,
                "pitch": 60,
                "velocity": 51,
                "duration": 0.03409090909091361,
                "tempo": 120.0
            },
            {
                "start_time": 43.75,
                "end_time": 43.76590909090909,
                "pitch": 56,
                "velocity": 51,
                "duration": 0.01590909090909065,
                "tempo": 120.0
            },
            {
                "start_time": 43.76590909090909,
                "end_time": 43.8,
                "pitch": 54,
                "velocity": 51,
                "duration": 0.03409090909090651,
                "tempo": 120.0
            },
            {
                "start_time": 43.8,
                "end_time": 43.83181818181818,
                "pitch": 51,
                "velocity": 51,
                "duration": 0.0318181818181813,
                "tempo": 120.0
            },
            {
                "start_time": 43.83181818181818,
                "end_time": 43.85,
                "pitch": 48,
                "velocity": 51,
                "duration": 0.018181818181822962,
                "tempo": 120.0
            },
            {
                "start_time": 44.11590909090909,
                "end_time": 44.18181818181818,
                "pitch": 57,
                "velocity": 51,
                "duration": 0.06590909090908781,
                "tempo": 120.0
            },
            {
                "start_time": 44.18181818181818,
                "end_time": 44.25,
                "pitch": 55,
                "velocity": 51,
                "duration": 0.06818181818182012,
                "tempo": 120.0
            },
            {
                "start_time": 44.918181818181814,
                "end_time": 44.95227272727273,
                "pitch": 63,
                "velocity": 51,
                "duration": 0.03409090909091361,
                "tempo": 120.0
            },
            {
                "start_time": 44.95227272727273,
                "end_time": 44.986363636363635,
                "pitch": 60,
                "velocity": 51,
                "duration": 0.03409090909090651,
                "tempo": 120.0
            },
            {
                "start_time": 44.986363636363635,
                "end_time": 45.002272727272725,
                "pitch": 56,
                "velocity": 51,
                "duration": 0.01590909090909065,
                "tempo": 120.0
            },
            {
                "start_time": 45.002272727272725,
                "end_time": 45.03636363636363,
                "pitch": 54,
                "velocity": 51,
                "duration": 0.03409090909090651,
                "tempo": 120.0
            },
            {
                "start_time": 45.03636363636363,
                "end_time": 45.05227272727272,
                "pitch": 52,
                "velocity": 51,
                "duration": 0.01590909090909065,
                "tempo": 120.0
            },
            {
                "start_time": 45.05227272727272,
                "end_time": 45.086363636363636,
                "pitch": 63,
                "velocity": 51,
                "duration": 0.03409090909091361,
                "tempo": 120.0
            },
            {
                "start_time": 45.086363636363636,
                "end_time": 45.11818181818182,
                "pitch": 60,
                "velocity": 51,
                "duration": 0.0318181818181813,
                "tempo": 120.0
            },
            {
                "start_time": 45.11818181818182,
                "end_time": 45.13636363636363,
                "pitch": 56,
                "velocity": 51,
                "duration": 0.018181818181815856,
                "tempo": 120.0
            },
            {
                "start_time": 45.13636363636363,
                "end_time": 45.168181818181814,
                "pitch": 54,
                "velocity": 51,
                "duration": 0.0318181818181813,
                "tempo": 120.0
            },
            {
                "start_time": 45.168181818181814,
                "end_time": 45.18636363636364,
                "pitch": 52,
                "velocity": 51,
                "duration": 0.018181818181822962,
                "tempo": 120.0
            },
            {
                "start_time": 45.18636363636364,
                "end_time": 45.21818181818182,
                "pitch": 60,
                "velocity": 51,
                "duration": 0.0318181818181813,
                "tempo": 120.0
            },
            {
                "start_time": 45.21818181818182,
                "end_time": 45.236363636363635,
                "pitch": 56,
                "velocity": 51,
                "duration": 0.018181818181815856,
                "tempo": 120.0
            },
            {
                "start_time": 45.236363636363635,
                "end_time": 45.268181818181816,
                "pitch": 54,
                "velocity": 51,
                "duration": 0.0318181818181813,
                "tempo": 120.0
            },
            {
                "start_time": 45.268181818181816,
                "end_time": 45.30227272727272,
                "pitch": 51,
                "velocity": 51,
                "duration": 0.03409090909090651,
                "tempo": 120.0
            },
            {
                "start_time": 45.30227272727272,
                "end_time": 45.31818181818181,
                "pitch": 48,
                "velocity": 51,
                "duration": 0.01590909090909065,
                "tempo": 120.0
            },
            {
                "start_time": 45.31818181818181,
                "end_time": 45.35227272727273,
                "pitch": 60,
                "velocity": 51,
                "duration": 0.03409090909091361,
                "tempo": 120.0
            },
            {
                "start_time": 45.35227272727273,
                "end_time": 45.36818181818182,
                "pitch": 56,
                "velocity": 51,
                "duration": 0.01590909090909065,
                "tempo": 120.0
            },
            {
                "start_time": 45.36818181818182,
                "end_time": 45.402272727272724,
                "pitch": 54,
                "velocity": 51,
                "duration": 0.03409090909090651,
                "tempo": 120.0
            },
            {
                "start_time": 45.402272727272724,
                "end_time": 45.43636363636364,
                "pitch": 51,
                "velocity": 51,
                "duration": 0.03409090909091361,
                "tempo": 120.0
            },
            {
                "start_time": 45.43636363636364,
                "end_time": 45.45227272727273,
                "pitch": 48,
                "velocity": 51,
                "duration": 0.01590909090909065,
                "tempo": 120.0
            },
            {
                "start_time": 45.45227272727273,
                "end_time": 45.518181818181816,
                "pitch": 57,
                "velocity": 51,
                "duration": 0.06590909090908781,
                "tempo": 120.0
            },
            {
                "start_time": 45.518181818181816,
                "end_time": 45.586363636363636,
                "pitch": 55,
                "velocity": 51,
                "duration": 0.06818181818182012,
                "tempo": 120.0
            },
            {
                "start_time": 45.586363636363636,
                "end_time": 45.652272727272724,
                "pitch": 57,
                "velocity": 51,
                "duration": 0.06590909090908781,
                "tempo": 120.0
            },
            {
                "start_time": 45.652272727272724,
                "end_time": 45.71818181818182,
                "pitch": 55,
                "velocity": 51,
                "duration": 0.06590909090909491,
                "tempo": 120.0
            },
            {
                "start_time": 46.11818181818182,
                "end_time": 46.18636363636364,
                "pitch": 57,
                "velocity": 51,
                "duration": 0.06818181818182012,
                "tempo": 120.0
            },
            {
                "start_time": 46.18636363636364,
                "end_time": 46.29090909090909,
                "pitch": 55,
                "velocity": 51,
                "duration": 0.10454545454545183,
                "tempo": 120.0
            },
            {
                "start_time": 46.29090909090909,
                "end_time": 46.375,
                "pitch": 52,
                "velocity": 51,
                "duration": 0.08409090909091077,
                "tempo": 120.0
            },
            {
                "start_time": 46.375,
                "end_time": 46.393181818181816,
                "pitch": 50,
                "velocity": 51,
                "duration": 0.018181818181815856,
                "tempo": 120.0
            },
            {
                "start_time": 46.393181818181816,
                "end_time": 46.461363636363636,
                "pitch": 57,
                "velocity": 51,
                "duration": 0.06818181818182012,
                "tempo": 120.0
            },
            {
                "start_time": 46.461363636363636,
                "end_time": 46.52954545454545,
                "pitch": 55,
                "velocity": 51,
                "duration": 0.06818181818181301,
                "tempo": 120.0
            }
        ]
    }
}