{
    "track_id": "Alex Kidd - The Lost Stars (FM) - 05 - World of Make Believe _ The Shrine of Jiggarat",
    "mood": "happy",
    "instruments": {
        "Clarinet": [
            {
                "start_time": 0.3840909090909091,
                "end_time": 0.6295454545454545,
                "pitch": 73,
                "velocity": 64,
                "duration": 0.24545454545454543,
                "tempo": 120.0
            },
            {
                "start_time": 0.6454545454545454,
                "end_time": 0.759090909090909,
                "pitch": 74,
                "velocity": 64,
                "duration": 0.11363636363636365,
                "tempo": 120.0
            },
            {
                "start_time": 0.7749999999999999,
                "end_time": 1.0204545454545455,
                "pitch": 75,
                "velocity": 64,
                "duration": 0.2454545454545456,
                "tempo": 120.0
            },
            {
                "start_time": 1.0363636363636364,
                "end_time": 1.1522727272727271,
                "pitch": 83,
                "velocity": 64,
                "duration": 0.11590909090909074,
                "tempo": 120.0
            },
            {
                "start_time": 1.434090909090909,
                "end_time": 1.5522727272727272,
                "pitch": 83,
                "velocity": 64,
                "duration": 0.11818181818181817,
                "tempo": 120.0
            },
            {
                "start_time": 1.5681818181818181,
                "end_time": 1.8204545454545453,
                "pitch": 81,
                "velocity": 64,
                "duration": 0.2522727272727272,
                "tempo": 120.0
            },
            {
                "start_time": 1.8363636363636362,
                "end_time": 1.9545454545454544,
                "pitch": 80,
                "velocity": 64,
                "duration": 0.11818181818181817,
                "tempo": 120.0
            },
            {
                "start_time": 1.9704545454545455,
                "end_time": 2.227272727272727,
                "pitch": 78,
                "velocity": 64,
                "duration": 0.2568181818181816,
                "tempo": 120.0
            },
            {
                "start_time": 2.245454545454545,
                "end_time": 2.756818181818182,
                "pitch": 75,
                "velocity": 64,
                "duration": 0.5113636363636367,
                "tempo": 120.0
            },
            {
                "start_time": 3.0477272727272724,
                "end_time": 3.1659090909090906,
                "pitch": 74,
                "velocity": 64,
                "duration": 0.11818181818181817,
                "tempo": 120.0
            },
            {
                "start_time": 3.184090909090909,
                "end_time": 3.4295454545454542,
                "pitch": 75,
                "velocity": 64,
                "duration": 0.24545454545454515,
                "tempo": 120.0
            },
            {
                "start_time": 3.4454545454545453,
                "end_time": 3.559090909090909,
                "pitch": 74,
                "velocity": 64,
                "duration": 0.11363636363636376,
                "tempo": 120.0
            },
            {
                "start_time": 3.5749999999999997,
                "end_time": 3.8249999999999997,
                "pitch": 75,
                "velocity": 64,
                "duration": 0.25,
                "tempo": 120.0
            },
            {
                "start_time": 3.843181818181818,
                "end_time": 3.959090909090909,
                "pitch": 74,
                "velocity": 64,
                "duration": 0.11590909090909118,
                "tempo": 120.0
            },
            {
                "start_time": 3.9749999999999996,
                "end_time": 4.225,
                "pitch": 75,
                "velocity": 64,
                "duration": 0.25,
                "tempo": 120.0
            },
            {
                "start_time": 4.243181818181818,
                "end_time": 4.3590909090909085,
                "pitch": 74,
                "velocity": 64,
                "duration": 0.1159090909090903,
                "tempo": 120.0
            },
            {
                "start_time": 4.375,
                "end_time": 4.625,
                "pitch": 75,
                "velocity": 64,
                "duration": 0.25,
                "tempo": 120.0
            },
            {
                "start_time": 4.643181818181818,
                "end_time": 4.759090909090909,
                "pitch": 74,
                "velocity": 64,
                "duration": 0.11590909090909118,
                "tempo": 120.0
            },
            {
                "start_time": 4.7749999999999995,
                "end_time": 4.827272727272727,
                "pitch": 77,
                "velocity": 64,
                "duration": 0.05227272727272769,
                "tempo": 120.0
            },
            {
                "start_time": 4.843181818181818,
                "end_time": 5.027272727272727,
                "pitch": 78,
                "velocity": 64,
                "duration": 0.18409090909090953,
                "tempo": 120.0
            },
            {
                "start_time": 5.045454545454545,
                "end_time": 5.161363636363636,
                "pitch": 75,
                "velocity": 64,
                "duration": 0.11590909090909118,
                "tempo": 120.0
            },
            {
                "start_time": 5.179545454545455,
                "end_time": 5.4363636363636365,
                "pitch": 74,
                "velocity": 64,
                "duration": 0.25681818181818183,
                "tempo": 120.0
            },
            {
                "start_time": 5.452272727272727,
                "end_time": 5.965909090909091,
                "pitch": 73,
                "velocity": 64,
                "duration": 0.5136363636363637,
                "tempo": 120.0
            },
            {
                "start_time": 6.654545454545454,
                "end_time": 6.768181818181818,
                "pitch": 76,
                "velocity": 64,
                "duration": 0.11363636363636331,
                "tempo": 120.0
            },
            {
                "start_time": 6.784090909090909,
                "end_time": 7.040909090909091,
                "pitch": 78,
                "velocity": 64,
                "duration": 0.25681818181818183,
                "tempo": 120.0
            },
            {
                "start_time": 7.056818181818182,
                "end_time": 7.177272727272727,
                "pitch": 79,
                "velocity": 64,
                "duration": 0.12045454545454515,
                "tempo": 120.0
            },
            {
                "start_time": 7.195454545454545,
                "end_time": 7.4409090909090905,
                "pitch": 80,
                "velocity": 64,
                "duration": 0.24545454545454515,
                "tempo": 120.0
            },
            {
                "start_time": 7.456818181818181,
                "end_time": 7.570454545454545,
                "pitch": 83,
                "velocity": 64,
                "duration": 0.1136363636363642,
                "tempo": 120.0
            },
            {
                "start_time": 7.997727272727272,
                "end_time": 8.243181818181817,
                "pitch": 86,
                "velocity": 64,
                "duration": 0.24545454545454515,
                "tempo": 120.0
            },
            {
                "start_time": 8.259090909090908,
                "end_time": 8.509090909090908,
                "pitch": 85,
                "velocity": 64,
                "duration": 0.25,
                "tempo": 120.0
            },
            {
                "start_time": 8.527272727272727,
                "end_time": 8.784090909090908,
                "pitch": 83,
                "velocity": 64,
                "duration": 0.25681818181818095,
                "tempo": 120.0
            },
            {
                "start_time": 8.799999999999999,
                "end_time": 9.045454545454545,
                "pitch": 86,
                "velocity": 64,
                "duration": 0.24545454545454604,
                "tempo": 120.0
            },
            {
                "start_time": 9.061363636363636,
                "end_time": 9.311363636363636,
                "pitch": 85,
                "velocity": 64,
                "duration": 0.25,
                "tempo": 120.0
            },
            {
                "start_time": 9.329545454545453,
                "end_time": 9.586363636363636,
                "pitch": 83,
                "velocity": 64,
                "duration": 0.2568181818181827,
                "tempo": 120.0
            },
            {
                "start_time": 9.602272727272727,
                "end_time": 9.652272727272727,
                "pitch": 89,
                "velocity": 64,
                "duration": 0.05000000000000071,
                "tempo": 120.0
            },
            {
                "start_time": 9.668181818181818,
                "end_time": 9.847727272727273,
                "pitch": 90,
                "velocity": 64,
                "duration": 0.17954545454545467,
                "tempo": 120.0
            },
            {
                "start_time": 9.863636363636363,
                "end_time": 9.979545454545454,
                "pitch": 89,
                "velocity": 64,
                "duration": 0.1159090909090903,
                "tempo": 120.0
            },
            {
                "start_time": 9.995454545454544,
                "end_time": 10.252272727272727,
                "pitch": 88,
                "velocity": 64,
                "duration": 0.2568181818181827,
                "tempo": 120.0
            },
            {
                "start_time": 10.268181818181818,
                "end_time": 11.19090909090909,
                "pitch": 83,
                "velocity": 64,
                "duration": 0.922727272727272,
                "tempo": 120.0
            },
            {
                "start_time": 13.209090909090909,
                "end_time": 13.46590909090909,
                "pitch": 73,
                "velocity": 64,
                "duration": 0.25681818181818095,
                "tempo": 120.0
            },
            {
                "start_time": 13.48181818181818,
                "end_time": 13.602272727272727,
                "pitch": 74,
                "velocity": 64,
                "duration": 0.12045454545454604,
                "tempo": 120.0
            },
            {
                "start_time": 13.618181818181817,
                "end_time": 13.863636363636363,
                "pitch": 75,
                "velocity": 64,
                "duration": 0.24545454545454604,
                "tempo": 120.0
            },
            {
                "start_time": 13.879545454545454,
                "end_time": 13.995454545454544,
                "pitch": 83,
                "velocity": 64,
                "duration": 0.1159090909090903,
                "tempo": 120.0
            },
            {
                "start_time": 14.284090909090908,
                "end_time": 14.404545454545454,
                "pitch": 83,
                "velocity": 64,
                "duration": 0.12045454545454604,
                "tempo": 120.0
            },
            {
                "start_time": 14.420454545454545,
                "end_time": 14.665909090909091,
                "pitch": 81,
                "velocity": 64,
                "duration": 0.24545454545454604,
                "tempo": 120.0
            },
            {
                "start_time": 14.684090909090909,
                "end_time": 14.797727272727272,
                "pitch": 80,
                "velocity": 64,
                "duration": 0.11363636363636331,
                "tempo": 120.0
            },
            {
                "start_time": 14.813636363636363,
                "end_time": 15.070454545454545,
                "pitch": 78,
                "velocity": 64,
                "duration": 0.2568181818181827,
                "tempo": 120.0
            },
            {
                "start_time": 15.086363636363636,
                "end_time": 15.6,
                "pitch": 75,
                "velocity": 64,
                "duration": 0.5136363636363637,
                "tempo": 120.0
            },
            {
                "start_time": 15.89090909090909,
                "end_time": 16.009090909090908,
                "pitch": 74,
                "velocity": 64,
                "duration": 0.11818181818181728,
                "tempo": 120.0
            },
            {
                "start_time": 16.027272727272727,
                "end_time": 16.272727272727273,
                "pitch": 75,
                "velocity": 64,
                "duration": 0.24545454545454604,
                "tempo": 120.0
            },
            {
                "start_time": 16.288636363636364,
                "end_time": 16.402272727272727,
                "pitch": 74,
                "velocity": 64,
                "duration": 0.11363636363636331,
                "tempo": 120.0
            },
            {
                "start_time": 16.418181818181818,
                "end_time": 16.675,
                "pitch": 75,
                "velocity": 64,
                "duration": 0.2568181818181827,
                "tempo": 120.0
            },
            {
                "start_time": 16.693181818181817,
                "end_time": 16.813636363636363,
                "pitch": 74,
                "velocity": 64,
                "duration": 0.12045454545454604,
                "tempo": 120.0
            },
            {
                "start_time": 16.829545454545453,
                "end_time": 17.075,
                "pitch": 75,
                "velocity": 64,
                "duration": 0.24545454545454604,
                "tempo": 120.0
            },
            {
                "start_time": 17.09090909090909,
                "end_time": 17.204545454545453,
                "pitch": 74,
                "velocity": 64,
                "duration": 0.11363636363636331,
                "tempo": 120.0
            },
            {
                "start_time": 17.222727272727273,
                "end_time": 17.472727272727273,
                "pitch": 75,
                "velocity": 64,
                "duration": 0.25,
                "tempo": 120.0
            },
            {
                "start_time": 17.488636363636363,
                "end_time": 17.604545454545455,
                "pitch": 74,
                "velocity": 64,
                "duration": 0.11590909090909207,
                "tempo": 120.0
            },
            {
                "start_time": 17.62272727272727,
                "end_time": 17.672727272727272,
                "pitch": 77,
                "velocity": 64,
                "duration": 0.05000000000000071,
                "tempo": 120.0
            },
            {
                "start_time": 17.688636363636363,
                "end_time": 17.87272727272727,
                "pitch": 78,
                "velocity": 64,
                "duration": 0.18409090909090864,
                "tempo": 120.0
            },
            {
                "start_time": 17.888636363636362,
                "end_time": 18.004545454545454,
                "pitch": 75,
                "velocity": 64,
                "duration": 0.11590909090909207,
                "tempo": 120.0
            },
            {
                "start_time": 18.022727272727273,
                "end_time": 18.272727272727273,
                "pitch": 74,
                "velocity": 64,
                "duration": 0.25,
                "tempo": 120.0
            },
            {
                "start_time": 18.29090909090909,
                "end_time": 18.80681818181818,
                "pitch": 73,
                "velocity": 64,
                "duration": 0.5159090909090907,
                "tempo": 120.0
            },
            {
                "start_time": 19.495454545454546,
                "end_time": 19.611363636363635,
                "pitch": 76,
                "velocity": 64,
                "duration": 0.11590909090908852,
                "tempo": 120.0
            },
            {
                "start_time": 19.627272727272725,
                "end_time": 19.884090909090908,
                "pitch": 78,
                "velocity": 64,
                "duration": 0.2568181818181827,
                "tempo": 120.0
            },
            {
                "start_time": 19.9,
                "end_time": 20.020454545454545,
                "pitch": 79,
                "velocity": 64,
                "duration": 0.12045454545454604,
                "tempo": 120.0
            },
            {
                "start_time": 20.038636363636364,
                "end_time": 20.28181818181818,
                "pitch": 80,
                "velocity": 64,
                "duration": 0.24318181818181728,
                "tempo": 120.0
            },
            {
                "start_time": 20.3,
                "end_time": 20.413636363636364,
                "pitch": 83,
                "velocity": 64,
                "duration": 0.11363636363636331,
                "tempo": 120.0
            },
            {
                "start_time": 20.84090909090909,
                "end_time": 21.086363636363636,
                "pitch": 86,
                "velocity": 64,
                "duration": 0.24545454545454604,
                "tempo": 120.0
            },
            {
                "start_time": 21.102272727272727,
                "end_time": 21.352272727272727,
                "pitch": 85,
                "velocity": 64,
                "duration": 0.25,
                "tempo": 120.0
            },
            {
                "start_time": 21.368181818181817,
                "end_time": 21.625,
                "pitch": 83,
                "velocity": 64,
                "duration": 0.2568181818181827,
                "tempo": 120.0
            },
            {
                "start_time": 21.643181818181816,
                "end_time": 21.888636363636362,
                "pitch": 86,
                "velocity": 64,
                "duration": 0.24545454545454604,
                "tempo": 120.0
            },
            {
                "start_time": 21.904545454545453,
                "end_time": 22.154545454545453,
                "pitch": 85,
                "velocity": 64,
                "duration": 0.25,
                "tempo": 120.0
            },
            {
                "start_time": 22.172727272727272,
                "end_time": 22.429545454545455,
                "pitch": 83,
                "velocity": 64,
                "duration": 0.2568181818181827,
                "tempo": 120.0
            },
            {
                "start_time": 22.445454545454545,
                "end_time": 22.495454545454546,
                "pitch": 89,
                "velocity": 64,
                "duration": 0.05000000000000071,
                "tempo": 120.0
            },
            {
                "start_time": 22.511363636363637,
                "end_time": 22.69090909090909,
                "pitch": 90,
                "velocity": 64,
                "duration": 0.17954545454545467,
                "tempo": 120.0
            },
            {
                "start_time": 22.706818181818182,
                "end_time": 22.820454545454545,
                "pitch": 89,
                "velocity": 64,
                "duration": 0.11363636363636331,
                "tempo": 120.0
            },
            {
                "start_time": 22.83863636363636,
                "end_time": 23.09318181818182,
                "pitch": 88,
                "velocity": 64,
                "duration": 0.2545454545454575,
                "tempo": 120.0
            },
            {
                "start_time": 23.111363636363635,
                "end_time": 24.034090909090907,
                "pitch": 83,
                "velocity": 64,
                "duration": 0.922727272727272,
                "tempo": 120.0
            },
            {
                "start_time": 24.052272727272726,
                "end_time": 24.084090909090907,
                "pitch": 63,
                "velocity": 64,
                "duration": 0.0318181818181813,
                "tempo": 120.0
            },
            {
                "start_time": 24.084090909090907,
                "end_time": 24.118181818181817,
                "pitch": 60,
                "velocity": 64,
                "duration": 0.03409090909091006,
                "tempo": 120.0
            },
            {
                "start_time": 24.118181818181817,
                "end_time": 24.134090909090908,
                "pitch": 56,
                "velocity": 64,
                "duration": 0.01590909090909065,
                "tempo": 120.0
            },
            {
                "start_time": 24.134090909090908,
                "end_time": 24.168181818181818,
                "pitch": 54,
                "velocity": 64,
                "duration": 0.03409090909091006,
                "tempo": 120.0
            },
            {
                "start_time": 24.168181818181818,
                "end_time": 24.202272727272724,
                "pitch": 52,
                "velocity": 64,
                "duration": 0.03409090909090651,
                "tempo": 120.0
            },
            {
                "start_time": 24.202272727272724,
                "end_time": 24.23409090909091,
                "pitch": 49,
                "velocity": 64,
                "duration": 0.031818181818184854,
                "tempo": 120.0
            },
            {
                "start_time": 24.23409090909091,
                "end_time": 24.268181818181816,
                "pitch": 46,
                "velocity": 64,
                "duration": 0.03409090909090651,
                "tempo": 120.0
            },
            {
                "start_time": 24.268181818181816,
                "end_time": 24.302272727272726,
                "pitch": 42,
                "velocity": 64,
                "duration": 0.03409090909091006,
                "tempo": 120.0
            },
            {
                "start_time": 24.302272727272726,
                "end_time": 24.334090909090907,
                "pitch": 40,
                "velocity": 64,
                "duration": 0.0318181818181813,
                "tempo": 120.0
            },
            {
                "start_time": 24.334090909090907,
                "end_time": 24.368181818181817,
                "pitch": 37,
                "velocity": 64,
                "duration": 0.03409090909091006,
                "tempo": 120.0
            },
            {
                "start_time": 24.368181818181817,
                "end_time": 24.384090909090908,
                "pitch": 33,
                "velocity": 64,
                "duration": 0.01590909090909065,
                "tempo": 120.0
            },
            {
                "start_time": 24.384090909090908,
                "end_time": 24.402272727272727,
                "pitch": 31,
                "velocity": 64,
                "duration": 0.01818181818181941,
                "tempo": 120.0
            },
            {
                "start_time": 24.402272727272727,
                "end_time": 24.43409090909091,
                "pitch": 30,
                "velocity": 64,
                "duration": 0.0318181818181813,
                "tempo": 120.0
            },
            {
                "start_time": 24.43409090909091,
                "end_time": 24.452272727272724,
                "pitch": 27,
                "velocity": 64,
                "duration": 0.018181818181815856,
                "tempo": 120.0
            },
            {
                "start_time": 24.452272727272724,
                "end_time": 24.48409090909091,
                "pitch": 60,
                "velocity": 64,
                "duration": 0.031818181818184854,
                "tempo": 120.0
            },
            {
                "start_time": 24.48409090909091,
                "end_time": 24.5,
                "pitch": 56,
                "velocity": 64,
                "duration": 0.01590909090909065,
                "tempo": 120.0
            },
            {
                "start_time": 24.5,
                "end_time": 24.53181818181818,
                "pitch": 54,
                "velocity": 64,
                "duration": 0.0318181818181813,
                "tempo": 120.0
            },
            {
                "start_time": 24.53181818181818,
                "end_time": 24.56590909090909,
                "pitch": 51,
                "velocity": 64,
                "duration": 0.03409090909091006,
                "tempo": 120.0
            },
            {
                "start_time": 24.56590909090909,
                "end_time": 24.597727272727273,
                "pitch": 48,
                "velocity": 64,
                "duration": 0.0318181818181813,
                "tempo": 120.0
            },
            {
                "start_time": 24.597727272727273,
                "end_time": 24.613636363636363,
                "pitch": 44,
                "velocity": 64,
                "duration": 0.01590909090909065,
                "tempo": 120.0
            },
            {
                "start_time": 24.613636363636363,
                "end_time": 24.64772727272727,
                "pitch": 42,
                "velocity": 64,
                "duration": 0.03409090909090651,
                "tempo": 120.0
            },
            {
                "start_time": 24.64772727272727,
                "end_time": 24.679545454545455,
                "pitch": 39,
                "velocity": 64,
                "duration": 0.031818181818184854,
                "tempo": 120.0
            },
            {
                "start_time": 24.679545454545455,
                "end_time": 24.71363636363636,
                "pitch": 36,
                "velocity": 64,
                "duration": 0.03409090909090651,
                "tempo": 120.0
            },
            {
                "start_time": 24.84318181818182,
                "end_time": 24.911363636363635,
                "pitch": 57,
                "velocity": 51,
                "duration": 0.06818181818181657,
                "tempo": 120.0
            },
            {
                "start_time": 24.911363636363635,
                "end_time": 25.011363636363637,
                "pitch": 55,
                "velocity": 51,
                "duration": 0.10000000000000142,
                "tempo": 120.0
            },
            {
                "start_time": 25.011363636363637,
                "end_time": 25.095454545454544,
                "pitch": 52,
                "velocity": 51,
                "duration": 0.08409090909090722,
                "tempo": 120.0
            },
            {
                "start_time": 25.095454545454544,
                "end_time": 25.111363636363635,
                "pitch": 50,
                "velocity": 51,
                "duration": 0.01590909090909065,
                "tempo": 120.0
            },
            {
                "start_time": 26.05681818181818,
                "end_time": 26.7,
                "pitch": 80,
                "velocity": 64,
                "duration": 0.6431818181818194,
                "tempo": 120.0
            },
            {
                "start_time": 26.71590909090909,
                "end_time": 27.099999999999998,
                "pitch": 84,
                "velocity": 64,
                "duration": 0.38409090909090793,
                "tempo": 120.0
            },
            {
                "start_time": 27.118181818181817,
                "end_time": 27.23409090909091,
                "pitch": 80,
                "velocity": 64,
                "duration": 0.11590909090909207,
                "tempo": 120.0
            },
            {
                "start_time": 27.252272727272725,
                "end_time": 27.502272727272725,
                "pitch": 87,
                "velocity": 64,
                "duration": 0.25,
                "tempo": 120.0
            },
            {
                "start_time": 27.518181818181816,
                "end_time": 27.634090909090908,
                "pitch": 87,
                "velocity": 64,
                "duration": 0.11590909090909207,
                "tempo": 120.0
            },
            {
                "start_time": 27.652272727272727,
                "end_time": 28.045454545454543,
                "pitch": 84,
                "velocity": 64,
                "duration": 0.39318181818181586,
                "tempo": 120.0
            },
            {
                "start_time": 28.061363636363634,
                "end_time": 28.445454545454545,
                "pitch": 80,
                "velocity": 64,
                "duration": 0.3840909090909115,
                "tempo": 120.0
            },
            {
                "start_time": 28.46363636363636,
                "end_time": 28.847727272727273,
                "pitch": 84,
                "velocity": 64,
                "duration": 0.3840909090909115,
                "tempo": 120.0
            },
            {
                "start_time": 28.86590909090909,
                "end_time": 29.24090909090909,
                "pitch": 85,
                "velocity": 64,
                "duration": 0.375,
                "tempo": 120.0
            },
            {
                "start_time": 29.25681818181818,
                "end_time": 29.65,
                "pitch": 85,
                "velocity": 64,
                "duration": 0.3931818181818194,
                "tempo": 120.0
            },
            {
                "start_time": 29.668181818181818,
                "end_time": 29.91363636363636,
                "pitch": 85,
                "velocity": 64,
                "duration": 0.24545454545454248,
                "tempo": 120.0
            },
            {
                "start_time": 29.929545454545455,
                "end_time": 30.043181818181818,
                "pitch": 85,
                "velocity": 64,
                "duration": 0.11363636363636331,
                "tempo": 120.0
            },
            {
                "start_time": 30.05909090909091,
                "end_time": 30.315909090909088,
                "pitch": 87,
                "velocity": 64,
                "duration": 0.25681818181817917,
                "tempo": 120.0
            },
            {
                "start_time": 30.334090909090907,
                "end_time": 31.24772727272727,
                "pitch": 85,
                "velocity": 64,
                "duration": 0.913636363636364,
                "tempo": 120.0
            },
            {
                "start_time": 32.46818181818182,
                "end_time": 32.720454545454544,
                "pitch": 80,
                "velocity": 64,
                "duration": 0.2522727272727252,
                "tempo": 120.0
            },
            {
                "start_time": 32.736363636363635,
                "end_time": 32.85454545454545,
                "pitch": 80,
                "velocity": 64,
                "duration": 0.11818181818181728,
                "tempo": 120.0
            },
            {
                "start_time": 33.138636363636365,
                "end_time": 33.25454545454545,
                "pitch": 83,
                "velocity": 64,
                "duration": 0.11590909090908497,
                "tempo": 120.0
            },
            {
                "start_time": 33.54545454545455,
                "end_time": 33.663636363636364,
                "pitch": 80,
                "velocity": 64,
                "duration": 0.11818181818181728,
                "tempo": 120.0
            },
            {
                "start_time": 33.68181818181818,
                "end_time": 33.73181818181818,
                "pitch": 85,
                "velocity": 64,
                "duration": 0.04999999999999716,
                "tempo": 120.0
            },
            {
                "start_time": 33.75,
                "end_time": 34.06818181818181,
                "pitch": 86,
                "velocity": 64,
                "duration": 0.318181818181813,
                "tempo": 120.0
            },
            {
                "start_time": 34.08409090909091,
                "end_time": 34.46818181818182,
                "pitch": 85,
                "velocity": 64,
                "duration": 0.38409090909090793,
                "tempo": 120.0
            },
            {
                "start_time": 34.48409090909091,
                "end_time": 34.86818181818182,
                "pitch": 83,
                "velocity": 64,
                "duration": 0.38409090909090793,
                "tempo": 120.0
            },
            {
                "start_time": 34.88409090909091,
                "end_time": 35.268181818181816,
                "pitch": 80,
                "velocity": 64,
                "duration": 0.38409090909090793,
                "tempo": 120.0
            },
            {
                "start_time": 35.28409090909091,
                "end_time": 36.32727272727273,
                "pitch": 78,
                "velocity": 64,
                "duration": 1.0431818181818215,
                "tempo": 120.0
            },
            {
                "start_time": 36.34318181818182,
                "end_time": 36.45909090909091,
                "pitch": 78,
                "velocity": 64,
                "duration": 0.11590909090909207,
                "tempo": 120.0
            },
            {
                "start_time": 36.47727272727273,
                "end_time": 36.73409090909091,
                "pitch": 92,
                "velocity": 64,
                "duration": 0.2568181818181827,
                "tempo": 120.0
            },
            {
                "start_time": 36.75,
                "end_time": 38.06363636363636,
                "pitch": 90,
                "velocity": 64,
                "duration": 1.3136363636363626,
                "tempo": 120.0
            },
            {
                "start_time": 38.07954545454545,
                "end_time": 38.11363636363636,
                "pitch": 63,
                "velocity": 64,
                "duration": 0.03409090909090651,
                "tempo": 120.0
            },
            {
                "start_time": 38.11363636363636,
                "end_time": 38.14545454545454,
                "pitch": 60,
                "velocity": 64,
                "duration": 0.0318181818181813,
                "tempo": 120.0
            },
            {
                "start_time": 38.14545454545454,
                "end_time": 38.163636363636364,
                "pitch": 56,
                "velocity": 64,
                "duration": 0.018181818181822962,
                "tempo": 120.0
            },
            {
                "start_time": 38.163636363636364,
                "end_time": 38.195454545454545,
                "pitch": 54,
                "velocity": 64,
                "duration": 0.0318181818181813,
                "tempo": 120.0
            },
            {
                "start_time": 38.195454545454545,
                "end_time": 38.21363636363636,
                "pitch": 52,
                "velocity": 64,
                "duration": 0.018181818181815856,
                "tempo": 120.0
            },
            {
                "start_time": 38.21363636363636,
                "end_time": 38.24545454545454,
                "pitch": 60,
                "velocity": 64,
                "duration": 0.0318181818181813,
                "tempo": 120.0
            },
            {
                "start_time": 38.24545454545454,
                "end_time": 38.26363636363636,
                "pitch": 56,
                "velocity": 64,
                "duration": 0.018181818181815856,
                "tempo": 120.0
            },
            {
                "start_time": 38.26363636363636,
                "end_time": 38.29545454545455,
                "pitch": 54,
                "velocity": 64,
                "duration": 0.03181818181818841,
                "tempo": 120.0
            },
            {
                "start_time": 38.29545454545455,
                "end_time": 38.32954545454545,
                "pitch": 51,
                "velocity": 64,
                "duration": 0.03409090909090651,
                "tempo": 120.0
            },
            {
                "start_time": 38.32954545454545,
                "end_time": 38.345454545454544,
                "pitch": 48,
                "velocity": 64,
                "duration": 0.01590909090909065,
                "tempo": 120.0
            },
            {
                "start_time": 38.345454545454544,
                "end_time": 38.413636363636364,
                "pitch": 57,
                "velocity": 64,
                "duration": 0.06818181818182012,
                "tempo": 120.0
            },
            {
                "start_time": 38.413636363636364,
                "end_time": 38.47954545454545,
                "pitch": 55,
                "velocity": 64,
                "duration": 0.06590909090908781,
                "tempo": 120.0
            },
            {
                "start_time": 38.89090909090909,
                "end_time": 39.53181818181818,
                "pitch": 80,
                "velocity": 64,
                "duration": 0.6409090909090907,
                "tempo": 120.0
            },
            {
                "start_time": 39.55,
                "end_time": 39.93181818181818,
                "pitch": 84,
                "velocity": 64,
                "duration": 0.3818181818181827,
                "tempo": 120.0
            },
            {
                "start_time": 39.949999999999996,
                "end_time": 40.06590909090909,
                "pitch": 80,
                "velocity": 64,
                "duration": 0.11590909090909207,
                "tempo": 120.0
            },
            {
                "start_time": 40.08181818181818,
                "end_time": 40.33181818181818,
                "pitch": 87,
                "velocity": 64,
                "duration": 0.25,
                "tempo": 120.0
            },
            {
                "start_time": 40.35,
                "end_time": 40.465909090909086,
                "pitch": 87,
                "velocity": 64,
                "duration": 0.11590909090908497,
                "tempo": 120.0
            },
            {
                "start_time": 40.48181818181818,
                "end_time": 40.875,
                "pitch": 84,
                "velocity": 64,
                "duration": 0.39318181818182296,
                "tempo": 120.0
            },
            {
                "start_time": 40.893181818181816,
                "end_time": 41.277272727272724,
                "pitch": 80,
                "velocity": 64,
                "duration": 0.38409090909090793,
                "tempo": 120.0
            },
            {
                "start_time": 41.293181818181814,
                "end_time": 41.67727272727272,
                "pitch": 84,
                "velocity": 64,
                "duration": 0.38409090909090793,
                "tempo": 120.0
            },
            {
                "start_time": 41.69318181818181,
                "end_time": 42.06818181818181,
                "pitch": 85,
                "velocity": 64,
                "duration": 0.375,
                "tempo": 120.0
            },
            {
                "start_time": 42.086363636363636,
                "end_time": 42.47954545454545,
                "pitch": 85,
                "velocity": 64,
                "duration": 0.39318181818181586,
                "tempo": 120.0
            },
            {
                "start_time": 42.49545454545454,
                "end_time": 42.74090909090909,
                "pitch": 85,
                "velocity": 64,
                "duration": 0.2454545454545496,
                "tempo": 120.0
            },
            {
                "start_time": 42.75681818181818,
                "end_time": 42.87272727272727,
                "pitch": 85,
                "velocity": 64,
                "duration": 0.11590909090908497,
                "tempo": 120.0
            },
            {
                "start_time": 42.88863636363636,
                "end_time": 43.14545454545454,
                "pitch": 87,
                "velocity": 64,
                "duration": 0.2568181818181827,
                "tempo": 120.0
            },
            {
                "start_time": 43.16136363636363,
                "end_time": 44.074999999999996,
                "pitch": 85,
                "velocity": 64,
                "duration": 0.913636363636364,
                "tempo": 120.0
            },
            {
                "start_time": 45.293181818181814,
                "end_time": 45.543181818181814,
                "pitch": 80,
                "velocity": 64,
                "duration": 0.25,
                "tempo": 120.0
            },
            {
                "start_time": 45.56136363636364,
                "end_time": 45.67727272727272,
                "pitch": 80,
                "velocity": 64,
                "duration": 0.11590909090908497,
                "tempo": 120.0
            },
            {
                "start_time": 45.961363636363636,
                "end_time": 46.07727272727273,
                "pitch": 83,
                "velocity": 64,
                "duration": 0.11590909090909207,
                "tempo": 120.0
            },
            {
                "start_time": 46.36818181818182,
                "end_time": 46.486363636363635,
                "pitch": 80,
                "velocity": 64,
                "duration": 0.11818181818181728,
                "tempo": 120.0
            },
            {
                "start_time": 46.50454545454545,
                "end_time": 46.554545454545455,
                "pitch": 85,
                "velocity": 64,
                "duration": 0.05000000000000426,
                "tempo": 120.0
            },
            {
                "start_time": 46.570454545454545,
                "end_time": 46.88863636363636,
                "pitch": 86,
                "velocity": 64,
                "duration": 0.318181818181813,
                "tempo": 120.0
            },
            {
                "start_time": 46.90454545454545,
                "end_time": 47.288636363636364,
                "pitch": 85,
                "velocity": 64,
                "duration": 0.38409090909091503,
                "tempo": 120.0
            },
            {
                "start_time": 47.304545454545455,
                "end_time": 47.68863636363636,
                "pitch": 83,
                "velocity": 64,
                "duration": 0.38409090909090793,
                "tempo": 120.0
            },
            {
                "start_time": 47.70454545454545,
                "end_time": 48.090909090909086,
                "pitch": 80,
                "velocity": 64,
                "duration": 0.38636363636363313,
                "tempo": 120.0
            },
            {
                "start_time": 48.10681818181818,
                "end_time": 49.152272727272724,
                "pitch": 78,
                "velocity": 64,
                "duration": 1.0454545454545467,
                "tempo": 120.0
            },
            {
                "start_time": 49.168181818181814,
                "end_time": 49.28636363636363,
                "pitch": 78,
                "velocity": 64,
                "duration": 0.11818181818181728,
                "tempo": 120.0
            },
            {
                "start_time": 49.30227272727272,
                "end_time": 49.55227272727272,
                "pitch": 92,
                "velocity": 64,
                "duration": 0.25,
                "tempo": 120.0
            },
            {
                "start_time": 49.56818181818181,
                "end_time": 49.95227272727273,
                "pitch": 90,
                "velocity": 64,
                "duration": 0.38409090909091503,
                "tempo": 120.0
            },
            {
                "start_time": 50.10227272727273,
                "end_time": 50.35227272727273,
                "pitch": 88,
                "velocity": 64,
                "duration": 0.25,
                "tempo": 120.0
            },
            {
                "start_time": 50.502272727272725,
                "end_time": 50.75454545454545,
                "pitch": 87,
                "velocity": 64,
                "duration": 0.2522727272727252,
                "tempo": 120.0
            },
            {
                "start_time": 50.90454545454545,
                "end_time": 51.15454545454545,
                "pitch": 85,
                "velocity": 64,
                "duration": 0.25,
                "tempo": 120.0
            }
        ],
        "Acoustic Bass": [
            {
                "start_time": 0.015909090909090907,
                "end_time": 0.2659090909090909,
                "pitch": 35,
                "velocity": 32,
                "duration": 0.24999999999999997,
                "tempo": 120.0
            },
            {
                "start_time": 0.28409090909090906,
                "end_time": 0.39999999999999997,
                "pitch": 47,
                "velocity": 32,
                "duration": 0.1159090909090909,
                "tempo": 120.0
            },
            {
                "start_time": 0.4159090909090909,
                "end_time": 0.6613636363636364,
                "pitch": 35,
                "velocity": 32,
                "duration": 0.24545454545454548,
                "tempo": 120.0
            },
            {
                "start_time": 0.6772727272727272,
                "end_time": 0.7909090909090909,
                "pitch": 47,
                "velocity": 32,
                "duration": 0.11363636363636365,
                "tempo": 120.0
            },
            {
                "start_time": 0.8090909090909091,
                "end_time": 1.0522727272727272,
                "pitch": 35,
                "velocity": 32,
                "duration": 0.24318181818181817,
                "tempo": 120.0
            },
            {
                "start_time": 1.0704545454545453,
                "end_time": 1.184090909090909,
                "pitch": 47,
                "velocity": 32,
                "duration": 0.11363636363636376,
                "tempo": 120.0
            },
            {
                "start_time": 1.2022727272727272,
                "end_time": 1.4522727272727272,
                "pitch": 35,
                "velocity": 32,
                "duration": 0.25,
                "tempo": 120.0
            },
            {
                "start_time": 1.468181818181818,
                "end_time": 1.584090909090909,
                "pitch": 47,
                "velocity": 32,
                "duration": 0.11590909090909096,
                "tempo": 120.0
            },
            {
                "start_time": 1.6022727272727273,
                "end_time": 1.8522727272727273,
                "pitch": 35,
                "velocity": 32,
                "duration": 0.25,
                "tempo": 120.0
            },
            {
                "start_time": 1.8704545454545454,
                "end_time": 1.9886363636363635,
                "pitch": 47,
                "velocity": 32,
                "duration": 0.11818181818181817,
                "tempo": 120.0
            },
            {
                "start_time": 2.0045454545454544,
                "end_time": 2.2613636363636362,
                "pitch": 35,
                "velocity": 32,
                "duration": 0.25681818181818183,
                "tempo": 120.0
            },
            {
                "start_time": 2.2795454545454543,
                "end_time": 2.3977272727272725,
                "pitch": 47,
                "velocity": 32,
                "duration": 0.11818181818181817,
                "tempo": 120.0
            },
            {
                "start_time": 2.4136363636363636,
                "end_time": 2.659090909090909,
                "pitch": 35,
                "velocity": 32,
                "duration": 0.2454545454545456,
                "tempo": 120.0
            },
            {
                "start_time": 2.675,
                "end_time": 2.7909090909090906,
                "pitch": 47,
                "velocity": 32,
                "duration": 0.11590909090909074,
                "tempo": 120.0
            },
            {
                "start_time": 2.8068181818181817,
                "end_time": 3.0636363636363635,
                "pitch": 36,
                "velocity": 32,
                "duration": 0.25681818181818183,
                "tempo": 120.0
            },
            {
                "start_time": 3.0818181818181816,
                "end_time": 3.1999999999999997,
                "pitch": 48,
                "velocity": 32,
                "duration": 0.11818181818181817,
                "tempo": 120.0
            },
            {
                "start_time": 3.215909090909091,
                "end_time": 3.461363636363636,
                "pitch": 37,
                "velocity": 32,
                "duration": 0.24545454545454515,
                "tempo": 120.0
            },
            {
                "start_time": 3.477272727272727,
                "end_time": 3.593181818181818,
                "pitch": 49,
                "velocity": 32,
                "duration": 0.11590909090909074,
                "tempo": 120.0
            },
            {
                "start_time": 3.609090909090909,
                "end_time": 3.859090909090909,
                "pitch": 37,
                "velocity": 32,
                "duration": 0.25,
                "tempo": 120.0
            },
            {
                "start_time": 3.875,
                "end_time": 3.993181818181818,
                "pitch": 49,
                "velocity": 32,
                "duration": 0.11818181818181817,
                "tempo": 120.0
            },
            {
                "start_time": 4.009090909090909,
                "end_time": 4.259090909090909,
                "pitch": 37,
                "velocity": 32,
                "duration": 0.25,
                "tempo": 120.0
            },
            {
                "start_time": 4.2749999999999995,
                "end_time": 4.393181818181818,
                "pitch": 49,
                "velocity": 32,
                "duration": 0.11818181818181817,
                "tempo": 120.0
            },
            {
                "start_time": 4.409090909090909,
                "end_time": 4.659090909090909,
                "pitch": 37,
                "velocity": 32,
                "duration": 0.25,
                "tempo": 120.0
            },
            {
                "start_time": 4.675,
                "end_time": 4.793181818181818,
                "pitch": 49,
                "velocity": 32,
                "duration": 0.11818181818181817,
                "tempo": 120.0
            },
            {
                "start_time": 4.809090909090909,
                "end_time": 5.0613636363636365,
                "pitch": 37,
                "velocity": 32,
                "duration": 0.25227272727272787,
                "tempo": 120.0
            },
            {
                "start_time": 5.077272727272727,
                "end_time": 5.195454545454545,
                "pitch": 49,
                "velocity": 32,
                "duration": 0.11818181818181817,
                "tempo": 120.0
            },
            {
                "start_time": 5.213636363636363,
                "end_time": 5.470454545454545,
                "pitch": 37,
                "velocity": 32,
                "duration": 0.25681818181818183,
                "tempo": 120.0
            },
            {
                "start_time": 5.486363636363636,
                "end_time": 5.6068181818181815,
                "pitch": 49,
                "velocity": 32,
                "duration": 0.12045454545454515,
                "tempo": 120.0
            },
            {
                "start_time": 5.622727272727272,
                "end_time": 5.868181818181818,
                "pitch": 37,
                "velocity": 32,
                "duration": 0.24545454545454604,
                "tempo": 120.0
            },
            {
                "start_time": 5.884090909090909,
                "end_time": 5.997727272727272,
                "pitch": 49,
                "velocity": 32,
                "duration": 0.11363636363636331,
                "tempo": 120.0
            },
            {
                "start_time": 6.015909090909091,
                "end_time": 6.2727272727272725,
                "pitch": 39,
                "velocity": 32,
                "duration": 0.25681818181818183,
                "tempo": 120.0
            },
            {
                "start_time": 6.288636363636363,
                "end_time": 6.409090909090909,
                "pitch": 51,
                "velocity": 32,
                "duration": 0.12045454545454604,
                "tempo": 120.0
            },
            {
                "start_time": 6.425,
                "end_time": 6.670454545454545,
                "pitch": 40,
                "velocity": 32,
                "duration": 0.24545454545454515,
                "tempo": 120.0
            },
            {
                "start_time": 6.686363636363636,
                "end_time": 6.8,
                "pitch": 52,
                "velocity": 32,
                "duration": 0.1136363636363642,
                "tempo": 120.0
            },
            {
                "start_time": 6.8181818181818175,
                "end_time": 7.074999999999999,
                "pitch": 40,
                "velocity": 32,
                "duration": 0.25681818181818183,
                "tempo": 120.0
            },
            {
                "start_time": 7.093181818181818,
                "end_time": 7.211363636363636,
                "pitch": 52,
                "velocity": 32,
                "duration": 0.11818181818181817,
                "tempo": 120.0
            },
            {
                "start_time": 7.227272727272727,
                "end_time": 7.472727272727273,
                "pitch": 40,
                "velocity": 32,
                "duration": 0.24545454545454604,
                "tempo": 120.0
            },
            {
                "start_time": 7.488636363636363,
                "end_time": 7.6045454545454545,
                "pitch": 52,
                "velocity": 32,
                "duration": 0.11590909090909118,
                "tempo": 120.0
            },
            {
                "start_time": 7.620454545454545,
                "end_time": 7.877272727272727,
                "pitch": 40,
                "velocity": 32,
                "duration": 0.25681818181818183,
                "tempo": 120.0
            },
            {
                "start_time": 7.8954545454545455,
                "end_time": 8.013636363636364,
                "pitch": 52,
                "velocity": 32,
                "duration": 0.11818181818181817,
                "tempo": 120.0
            },
            {
                "start_time": 8.029545454545454,
                "end_time": 8.275,
                "pitch": 40,
                "velocity": 32,
                "duration": 0.24545454545454604,
                "tempo": 120.0
            },
            {
                "start_time": 8.290909090909091,
                "end_time": 8.406818181818181,
                "pitch": 52,
                "velocity": 32,
                "duration": 0.1159090909090903,
                "tempo": 120.0
            },
            {
                "start_time": 8.422727272727272,
                "end_time": 8.679545454545455,
                "pitch": 40,
                "velocity": 32,
                "duration": 0.2568181818181827,
                "tempo": 120.0
            },
            {
                "start_time": 8.697727272727272,
                "end_time": 8.815909090909091,
                "pitch": 52,
                "velocity": 32,
                "duration": 0.11818181818181905,
                "tempo": 120.0
            },
            {
                "start_time": 8.831818181818182,
                "end_time": 9.077272727272726,
                "pitch": 40,
                "velocity": 32,
                "duration": 0.24545454545454426,
                "tempo": 120.0
            },
            {
                "start_time": 9.093181818181817,
                "end_time": 9.209090909090909,
                "pitch": 52,
                "velocity": 32,
                "duration": 0.11590909090909207,
                "tempo": 120.0
            },
            {
                "start_time": 9.225,
                "end_time": 9.48409090909091,
                "pitch": 40,
                "velocity": 32,
                "duration": 0.2590909090909097,
                "tempo": 120.0
            },
            {
                "start_time": 9.5,
                "end_time": 9.618181818181817,
                "pitch": 52,
                "velocity": 32,
                "duration": 0.11818181818181728,
                "tempo": 120.0
            },
            {
                "start_time": 9.636363636363637,
                "end_time": 9.879545454545454,
                "pitch": 35,
                "velocity": 32,
                "duration": 0.24318181818181728,
                "tempo": 120.0
            },
            {
                "start_time": 9.897727272727272,
                "end_time": 10.011363636363637,
                "pitch": 47,
                "velocity": 32,
                "duration": 0.11363636363636509,
                "tempo": 120.0
            },
            {
                "start_time": 10.029545454545454,
                "end_time": 10.286363636363635,
                "pitch": 35,
                "velocity": 32,
                "duration": 0.25681818181818095,
                "tempo": 120.0
            },
            {
                "start_time": 10.302272727272726,
                "end_time": 10.422727272727272,
                "pitch": 47,
                "velocity": 32,
                "duration": 0.12045454545454604,
                "tempo": 120.0
            },
            {
                "start_time": 10.438636363636363,
                "end_time": 10.684090909090909,
                "pitch": 35,
                "velocity": 32,
                "duration": 0.24545454545454604,
                "tempo": 120.0
            },
            {
                "start_time": 10.7,
                "end_time": 10.813636363636363,
                "pitch": 47,
                "velocity": 32,
                "duration": 0.11363636363636331,
                "tempo": 120.0
            },
            {
                "start_time": 10.831818181818182,
                "end_time": 11.088636363636363,
                "pitch": 35,
                "velocity": 32,
                "duration": 0.25681818181818095,
                "tempo": 120.0
            },
            {
                "start_time": 11.104545454545454,
                "end_time": 11.225,
                "pitch": 47,
                "velocity": 32,
                "duration": 0.12045454545454604,
                "tempo": 120.0
            },
            {
                "start_time": 11.24090909090909,
                "end_time": 11.486363636363636,
                "pitch": 35,
                "velocity": 32,
                "duration": 0.24545454545454604,
                "tempo": 120.0
            },
            {
                "start_time": 11.502272727272727,
                "end_time": 11.61590909090909,
                "pitch": 47,
                "velocity": 32,
                "duration": 0.11363636363636331,
                "tempo": 120.0
            },
            {
                "start_time": 11.634090909090908,
                "end_time": 11.886363636363635,
                "pitch": 32,
                "velocity": 32,
                "duration": 0.252272727272727,
                "tempo": 120.0
            },
            {
                "start_time": 11.902272727272727,
                "end_time": 12.020454545454545,
                "pitch": 44,
                "velocity": 32,
                "duration": 0.11818181818181728,
                "tempo": 120.0
            },
            {
                "start_time": 12.036363636363635,
                "end_time": 12.288636363636362,
                "pitch": 33,
                "velocity": 32,
                "duration": 0.252272727272727,
                "tempo": 120.0
            },
            {
                "start_time": 12.304545454545455,
                "end_time": 12.422727272727272,
                "pitch": 45,
                "velocity": 32,
                "duration": 0.11818181818181728,
                "tempo": 120.0
            },
            {
                "start_time": 12.438636363636363,
                "end_time": 12.695454545454545,
                "pitch": 34,
                "velocity": 32,
                "duration": 0.2568181818181827,
                "tempo": 120.0
            },
            {
                "start_time": 12.713636363636363,
                "end_time": 12.831818181818182,
                "pitch": 46,
                "velocity": 32,
                "duration": 0.11818181818181905,
                "tempo": 120.0
            },
            {
                "start_time": 12.85,
                "end_time": 13.093181818181817,
                "pitch": 35,
                "velocity": 32,
                "duration": 0.24318181818181728,
                "tempo": 120.0
            },
            {
                "start_time": 13.111363636363636,
                "end_time": 13.225,
                "pitch": 47,
                "velocity": 32,
                "duration": 0.11363636363636331,
                "tempo": 120.0
            },
            {
                "start_time": 13.243181818181817,
                "end_time": 13.5,
                "pitch": 35,
                "velocity": 32,
                "duration": 0.2568181818181827,
                "tempo": 120.0
            },
            {
                "start_time": 13.51590909090909,
                "end_time": 13.636363636363635,
                "pitch": 47,
                "velocity": 32,
                "duration": 0.12045454545454426,
                "tempo": 120.0
            },
            {
                "start_time": 13.652272727272727,
                "end_time": 13.897727272727272,
                "pitch": 35,
                "velocity": 32,
                "duration": 0.24545454545454426,
                "tempo": 120.0
            },
            {
                "start_time": 13.913636363636362,
                "end_time": 14.027272727272727,
                "pitch": 47,
                "velocity": 32,
                "duration": 0.11363636363636509,
                "tempo": 120.0
            },
            {
                "start_time": 14.045454545454545,
                "end_time": 14.302272727272726,
                "pitch": 35,
                "velocity": 32,
                "duration": 0.25681818181818095,
                "tempo": 120.0
            },
            {
                "start_time": 14.318181818181818,
                "end_time": 14.438636363636363,
                "pitch": 47,
                "velocity": 32,
                "duration": 0.12045454545454426,
                "tempo": 120.0
            },
            {
                "start_time": 14.454545454545453,
                "end_time": 14.7,
                "pitch": 35,
                "velocity": 32,
                "duration": 0.24545454545454604,
                "tempo": 120.0
            },
            {
                "start_time": 14.71590909090909,
                "end_time": 14.829545454545453,
                "pitch": 47,
                "velocity": 32,
                "duration": 0.11363636363636331,
                "tempo": 120.0
            },
            {
                "start_time": 14.847727272727273,
                "end_time": 15.104545454545454,
                "pitch": 35,
                "velocity": 32,
                "duration": 0.25681818181818095,
                "tempo": 120.0
            },
            {
                "start_time": 15.122727272727271,
                "end_time": 15.24090909090909,
                "pitch": 47,
                "velocity": 32,
                "duration": 0.11818181818181905,
                "tempo": 120.0
            },
            {
                "start_time": 15.256818181818181,
                "end_time": 15.502272727272727,
                "pitch": 35,
                "velocity": 32,
                "duration": 0.24545454545454604,
                "tempo": 120.0
            },
            {
                "start_time": 15.518181818181818,
                "end_time": 15.634090909090908,
                "pitch": 47,
                "velocity": 32,
                "duration": 0.1159090909090903,
                "tempo": 120.0
            },
            {
                "start_time": 15.649999999999999,
                "end_time": 15.906818181818181,
                "pitch": 36,
                "velocity": 32,
                "duration": 0.2568181818181827,
                "tempo": 120.0
            },
            {
                "start_time": 15.924999999999999,
                "end_time": 16.043181818181818,
                "pitch": 48,
                "velocity": 32,
                "duration": 0.11818181818181905,
                "tempo": 120.0
            },
            {
                "start_time": 16.05909090909091,
                "end_time": 16.304545454545455,
                "pitch": 37,
                "velocity": 32,
                "duration": 0.24545454545454604,
                "tempo": 120.0
            },
            {
                "start_time": 16.320454545454545,
                "end_time": 16.436363636363634,
                "pitch": 49,
                "velocity": 32,
                "duration": 0.11590909090908852,
                "tempo": 120.0
            },
            {
                "start_time": 16.452272727272728,
                "end_time": 16.709090909090907,
                "pitch": 37,
                "velocity": 32,
                "duration": 0.25681818181817917,
                "tempo": 120.0
            },
            {
                "start_time": 16.727272727272727,
                "end_time": 16.845454545454544,
                "pitch": 49,
                "velocity": 32,
                "duration": 0.11818181818181728,
                "tempo": 120.0
            },
            {
                "start_time": 16.861363636363635,
                "end_time": 17.10681818181818,
                "pitch": 37,
                "velocity": 32,
                "duration": 0.24545454545454604,
                "tempo": 120.0
            },
            {
                "start_time": 17.12272727272727,
                "end_time": 17.238636363636363,
                "pitch": 49,
                "velocity": 32,
                "duration": 0.11590909090909207,
                "tempo": 120.0
            },
            {
                "start_time": 17.254545454545454,
                "end_time": 17.504545454545454,
                "pitch": 37,
                "velocity": 32,
                "duration": 0.25,
                "tempo": 120.0
            },
            {
                "start_time": 17.522727272727273,
                "end_time": 17.638636363636362,
                "pitch": 49,
                "velocity": 32,
                "duration": 0.11590909090908852,
                "tempo": 120.0
            },
            {
                "start_time": 17.654545454545453,
                "end_time": 17.904545454545453,
                "pitch": 37,
                "velocity": 32,
                "duration": 0.25,
                "tempo": 120.0
            },
            {
                "start_time": 17.922727272727272,
                "end_time": 18.038636363636364,
                "pitch": 49,
                "velocity": 32,
                "duration": 0.11590909090909207,
                "tempo": 120.0
            },
            {
                "start_time": 18.054545454545455,
                "end_time": 18.30681818181818,
                "pitch": 37,
                "velocity": 32,
                "duration": 0.2522727272727252,
                "tempo": 120.0
            },
            {
                "start_time": 18.32272727272727,
                "end_time": 18.44090909090909,
                "pitch": 49,
                "velocity": 32,
                "duration": 0.11818181818182083,
                "tempo": 120.0
            },
            {
                "start_time": 18.456818181818182,
                "end_time": 18.706818181818182,
                "pitch": 37,
                "velocity": 32,
                "duration": 0.25,
                "tempo": 120.0
            },
            {
                "start_time": 18.724999999999998,
                "end_time": 18.84090909090909,
                "pitch": 49,
                "velocity": 32,
                "duration": 0.11590909090909207,
                "tempo": 120.0
            },
            {
                "start_time": 18.85909090909091,
                "end_time": 19.11590909090909,
                "pitch": 39,
                "velocity": 32,
                "duration": 0.25681818181817917,
                "tempo": 120.0
            },
            {
                "start_time": 19.13181818181818,
                "end_time": 19.252272727272725,
                "pitch": 51,
                "velocity": 32,
                "duration": 0.12045454545454604,
                "tempo": 120.0
            },
            {
                "start_time": 19.268181818181816,
                "end_time": 19.513636363636362,
                "pitch": 40,
                "velocity": 32,
                "duration": 0.24545454545454604,
                "tempo": 120.0
            },
            {
                "start_time": 19.529545454545453,
                "end_time": 19.643181818181816,
                "pitch": 52,
                "velocity": 32,
                "duration": 0.11363636363636331,
                "tempo": 120.0
            },
            {
                "start_time": 19.661363636363635,
                "end_time": 19.918181818181818,
                "pitch": 40,
                "velocity": 32,
                "duration": 0.2568181818181827,
                "tempo": 120.0
            },
            {
                "start_time": 19.93409090909091,
                "end_time": 20.054545454545455,
                "pitch": 52,
                "velocity": 32,
                "duration": 0.12045454545454604,
                "tempo": 120.0
            },
            {
                "start_time": 20.070454545454545,
                "end_time": 20.31590909090909,
                "pitch": 40,
                "velocity": 32,
                "duration": 0.24545454545454604,
                "tempo": 120.0
            },
            {
                "start_time": 20.331818181818182,
                "end_time": 20.44772727272727,
                "pitch": 52,
                "velocity": 32,
                "duration": 0.11590909090908852,
                "tempo": 120.0
            },
            {
                "start_time": 20.46363636363636,
                "end_time": 20.720454545454544,
                "pitch": 40,
                "velocity": 32,
                "duration": 0.2568181818181827,
                "tempo": 120.0
            },
            {
                "start_time": 20.738636363636363,
                "end_time": 20.85681818181818,
                "pitch": 52,
                "velocity": 32,
                "duration": 0.11818181818181728,
                "tempo": 120.0
            },
            {
                "start_time": 20.87272727272727,
                "end_time": 21.118181818181817,
                "pitch": 40,
                "velocity": 32,
                "duration": 0.24545454545454604,
                "tempo": 120.0
            },
            {
                "start_time": 21.134090909090908,
                "end_time": 21.25,
                "pitch": 52,
                "velocity": 32,
                "duration": 0.11590909090909207,
                "tempo": 120.0
            },
            {
                "start_time": 21.26590909090909,
                "end_time": 21.522727272727273,
                "pitch": 40,
                "velocity": 32,
                "duration": 0.2568181818181827,
                "tempo": 120.0
            },
            {
                "start_time": 21.54090909090909,
                "end_time": 21.659090909090907,
                "pitch": 52,
                "velocity": 32,
                "duration": 0.11818181818181728,
                "tempo": 120.0
            },
            {
                "start_time": 21.675,
                "end_time": 21.920454545454543,
                "pitch": 40,
                "velocity": 32,
                "duration": 0.24545454545454248,
                "tempo": 120.0
            },
            {
                "start_time": 21.936363636363634,
                "end_time": 22.052272727272726,
                "pitch": 52,
                "velocity": 32,
                "duration": 0.11590909090909207,
                "tempo": 120.0
            },
            {
                "start_time": 22.068181818181817,
                "end_time": 22.325,
                "pitch": 40,
                "velocity": 32,
                "duration": 0.2568181818181827,
                "tempo": 120.0
            },
            {
                "start_time": 22.34318181818182,
                "end_time": 22.461363636363636,
                "pitch": 52,
                "velocity": 32,
                "duration": 0.11818181818181728,
                "tempo": 120.0
            },
            {
                "start_time": 22.477272727272727,
                "end_time": 22.722727272727273,
                "pitch": 35,
                "velocity": 32,
                "duration": 0.24545454545454604,
                "tempo": 120.0
            },
            {
                "start_time": 22.738636363636363,
                "end_time": 22.854545454545452,
                "pitch": 47,
                "velocity": 32,
                "duration": 0.11590909090908852,
                "tempo": 120.0
            },
            {
                "start_time": 22.87272727272727,
                "end_time": 23.129545454545454,
                "pitch": 35,
                "velocity": 32,
                "duration": 0.2568181818181827,
                "tempo": 120.0
            },
            {
                "start_time": 23.145454545454545,
                "end_time": 23.26590909090909,
                "pitch": 47,
                "velocity": 32,
                "duration": 0.12045454545454604,
                "tempo": 120.0
            },
            {
                "start_time": 23.28181818181818,
                "end_time": 23.534090909090907,
                "pitch": 35,
                "velocity": 32,
                "duration": 0.2522727272727252,
                "tempo": 120.0
            },
            {
                "start_time": 23.549999999999997,
                "end_time": 23.668181818181818,
                "pitch": 47,
                "velocity": 32,
                "duration": 0.11818181818182083,
                "tempo": 120.0
            },
            {
                "start_time": 23.68409090909091,
                "end_time": 23.93409090909091,
                "pitch": 35,
                "velocity": 32,
                "duration": 0.25,
                "tempo": 120.0
            },
            {
                "start_time": 23.952272727272724,
                "end_time": 24.068181818181817,
                "pitch": 47,
                "velocity": 32,
                "duration": 0.11590909090909207,
                "tempo": 120.0
            },
            {
                "start_time": 24.084090909090907,
                "end_time": 24.334090909090907,
                "pitch": 35,
                "velocity": 32,
                "duration": 0.25,
                "tempo": 120.0
            },
            {
                "start_time": 24.48409090909091,
                "end_time": 24.729545454545452,
                "pitch": 35,
                "velocity": 32,
                "duration": 0.24545454545454248,
                "tempo": 120.0
            },
            {
                "start_time": 24.745454545454542,
                "end_time": 24.85909090909091,
                "pitch": 47,
                "velocity": 32,
                "duration": 0.11363636363636687,
                "tempo": 120.0
            },
            {
                "start_time": 24.877272727272725,
                "end_time": 25.129545454545454,
                "pitch": 34,
                "velocity": 32,
                "duration": 0.25227272727272876,
                "tempo": 120.0
            },
            {
                "start_time": 25.145454545454545,
                "end_time": 25.263636363636362,
                "pitch": 46,
                "velocity": 32,
                "duration": 0.11818181818181728,
                "tempo": 120.0
            },
            {
                "start_time": 25.279545454545453,
                "end_time": 25.529545454545453,
                "pitch": 33,
                "velocity": 32,
                "duration": 0.25,
                "tempo": 120.0
            },
            {
                "start_time": 25.545454545454543,
                "end_time": 25.663636363636364,
                "pitch": 45,
                "velocity": 32,
                "duration": 0.11818181818182083,
                "tempo": 120.0
            },
            {
                "start_time": 25.679545454545455,
                "end_time": 25.936363636363634,
                "pitch": 32,
                "velocity": 32,
                "duration": 0.25681818181817917,
                "tempo": 120.0
            },
            {
                "start_time": 25.954545454545453,
                "end_time": 26.07272727272727,
                "pitch": 44,
                "velocity": 32,
                "duration": 0.11818181818181728,
                "tempo": 120.0
            },
            {
                "start_time": 26.08863636363636,
                "end_time": 26.334090909090907,
                "pitch": 32,
                "velocity": 32,
                "duration": 0.24545454545454604,
                "tempo": 120.0
            },
            {
                "start_time": 26.349999999999998,
                "end_time": 26.46590909090909,
                "pitch": 44,
                "velocity": 32,
                "duration": 0.11590909090909207,
                "tempo": 120.0
            },
            {
                "start_time": 26.48181818181818,
                "end_time": 26.73181818181818,
                "pitch": 32,
                "velocity": 32,
                "duration": 0.25,
                "tempo": 120.0
            },
            {
                "start_time": 26.75,
                "end_time": 26.86590909090909,
                "pitch": 44,
                "velocity": 32,
                "duration": 0.11590909090908852,
                "tempo": 120.0
            },
            {
                "start_time": 26.88181818181818,
                "end_time": 27.134090909090908,
                "pitch": 32,
                "velocity": 32,
                "duration": 0.25227272727272876,
                "tempo": 120.0
            },
            {
                "start_time": 27.15,
                "end_time": 27.268181818181816,
                "pitch": 44,
                "velocity": 32,
                "duration": 0.11818181818181728,
                "tempo": 120.0
            },
            {
                "start_time": 27.284090909090907,
                "end_time": 27.534090909090907,
                "pitch": 32,
                "velocity": 32,
                "duration": 0.25,
                "tempo": 120.0
            },
            {
                "start_time": 27.552272727272726,
                "end_time": 27.668181818181818,
                "pitch": 44,
                "velocity": 32,
                "duration": 0.11590909090909207,
                "tempo": 120.0
            },
            {
                "start_time": 27.686363636363634,
                "end_time": 27.943181818181817,
                "pitch": 32,
                "velocity": 32,
                "duration": 0.2568181818181827,
                "tempo": 120.0
            },
            {
                "start_time": 27.959090909090907,
                "end_time": 28.079545454545453,
                "pitch": 44,
                "velocity": 32,
                "duration": 0.12045454545454604,
                "tempo": 120.0
            },
            {
                "start_time": 28.095454545454544,
                "end_time": 28.345454545454544,
                "pitch": 32,
                "velocity": 32,
                "duration": 0.25,
                "tempo": 120.0
            },
            {
                "start_time": 28.363636363636363,
                "end_time": 28.479545454545452,
                "pitch": 44,
                "velocity": 32,
                "duration": 0.11590909090908852,
                "tempo": 120.0
            },
            {
                "start_time": 28.495454545454542,
                "end_time": 28.74772727272727,
                "pitch": 32,
                "velocity": 32,
                "duration": 0.25227272727272876,
                "tempo": 120.0
            },
            {
                "start_time": 28.763636363636362,
                "end_time": 28.88181818181818,
                "pitch": 44,
                "velocity": 32,
                "duration": 0.11818181818181728,
                "tempo": 120.0
            },
            {
                "start_time": 28.89772727272727,
                "end_time": 29.143181818181816,
                "pitch": 25,
                "velocity": 32,
                "duration": 0.24545454545454604,
                "tempo": 120.0
            },
            {
                "start_time": 29.159090909090907,
                "end_time": 29.275,
                "pitch": 37,
                "velocity": 32,
                "duration": 0.11590909090909207,
                "tempo": 120.0
            },
            {
                "start_time": 29.29090909090909,
                "end_time": 29.547727272727272,
                "pitch": 25,
                "velocity": 32,
                "duration": 0.2568181818181827,
                "tempo": 120.0
            },
            {
                "start_time": 29.565909090909088,
                "end_time": 29.68409090909091,
                "pitch": 37,
                "velocity": 32,
                "duration": 0.11818181818182083,
                "tempo": 120.0
            },
            {
                "start_time": 29.7,
                "end_time": 29.945454545454545,
                "pitch": 25,
                "velocity": 32,
                "duration": 0.24545454545454604,
                "tempo": 120.0
            },
            {
                "start_time": 29.961363636363636,
                "end_time": 30.077272727272724,
                "pitch": 37,
                "velocity": 32,
                "duration": 0.11590909090908852,
                "tempo": 120.0
            },
            {
                "start_time": 30.093181818181815,
                "end_time": 30.349999999999998,
                "pitch": 25,
                "velocity": 32,
                "duration": 0.2568181818181827,
                "tempo": 120.0
            },
            {
                "start_time": 30.368181818181817,
                "end_time": 30.486363636363635,
                "pitch": 37,
                "velocity": 32,
                "duration": 0.11818181818181728,
                "tempo": 120.0
            },
            {
                "start_time": 30.502272727272725,
                "end_time": 30.74772727272727,
                "pitch": 25,
                "velocity": 32,
                "duration": 0.24545454545454604,
                "tempo": 120.0
            },
            {
                "start_time": 30.763636363636362,
                "end_time": 30.879545454545454,
                "pitch": 37,
                "velocity": 32,
                "duration": 0.11590909090909207,
                "tempo": 120.0
            },
            {
                "start_time": 30.895454545454545,
                "end_time": 31.14772727272727,
                "pitch": 25,
                "velocity": 32,
                "duration": 0.2522727272727252,
                "tempo": 120.0
            },
            {
                "start_time": 31.16363636363636,
                "end_time": 31.28181818181818,
                "pitch": 37,
                "velocity": 32,
                "duration": 0.11818181818182083,
                "tempo": 120.0
            },
            {
                "start_time": 31.297727272727272,
                "end_time": 31.547727272727272,
                "pitch": 25,
                "velocity": 32,
                "duration": 0.25,
                "tempo": 120.0
            },
            {
                "start_time": 31.565909090909088,
                "end_time": 31.68181818181818,
                "pitch": 37,
                "velocity": 32,
                "duration": 0.11590909090909207,
                "tempo": 120.0
            },
            {
                "start_time": 31.7,
                "end_time": 31.956818181818182,
                "pitch": 27,
                "velocity": 32,
                "duration": 0.2568181818181827,
                "tempo": 120.0
            },
            {
                "start_time": 31.972727272727273,
                "end_time": 32.09318181818182,
                "pitch": 39,
                "velocity": 32,
                "duration": 0.12045454545454604,
                "tempo": 120.0
            },
            {
                "start_time": 32.10909090909091,
                "end_time": 32.35454545454545,
                "pitch": 28,
                "velocity": 32,
                "duration": 0.24545454545454248,
                "tempo": 120.0
            },
            {
                "start_time": 32.37045454545454,
                "end_time": 32.48409090909091,
                "pitch": 40,
                "velocity": 32,
                "duration": 0.11363636363636687,
                "tempo": 120.0
            },
            {
                "start_time": 32.502272727272725,
                "end_time": 32.75454545454545,
                "pitch": 28,
                "velocity": 32,
                "duration": 0.2522727272727252,
                "tempo": 120.0
            },
            {
                "start_time": 32.77045454545454,
                "end_time": 32.888636363636365,
                "pitch": 40,
                "velocity": 32,
                "duration": 0.11818181818182438,
                "tempo": 120.0
            },
            {
                "start_time": 32.904545454545456,
                "end_time": 33.154545454545456,
                "pitch": 28,
                "velocity": 32,
                "duration": 0.25,
                "tempo": 120.0
            },
            {
                "start_time": 33.17045454545455,
                "end_time": 33.288636363636364,
                "pitch": 40,
                "velocity": 32,
                "duration": 0.11818181818181728,
                "tempo": 120.0
            },
            {
                "start_time": 33.304545454545455,
                "end_time": 33.56136363636364,
                "pitch": 28,
                "velocity": 32,
                "duration": 0.2568181818181827,
                "tempo": 120.0
            },
            {
                "start_time": 33.57954545454545,
                "end_time": 33.69772727272727,
                "pitch": 40,
                "velocity": 32,
                "duration": 0.11818181818181728,
                "tempo": 120.0
            },
            {
                "start_time": 33.715909090909086,
                "end_time": 33.965909090909086,
                "pitch": 28,
                "velocity": 32,
                "duration": 0.25,
                "tempo": 120.0
            },
            {
                "start_time": 33.98409090909091,
                "end_time": 34.10227272727273,
                "pitch": 40,
                "velocity": 32,
                "duration": 0.11818181818181728,
                "tempo": 120.0
            },
            {
                "start_time": 34.11818181818182,
                "end_time": 34.36818181818182,
                "pitch": 28,
                "velocity": 32,
                "duration": 0.25,
                "tempo": 120.0
            },
            {
                "start_time": 34.38409090909091,
                "end_time": 34.502272727272725,
                "pitch": 40,
                "velocity": 32,
                "duration": 0.11818181818181728,
                "tempo": 120.0
            },
            {
                "start_time": 34.518181818181816,
                "end_time": 34.768181818181816,
                "pitch": 28,
                "velocity": 32,
                "duration": 0.25,
                "tempo": 120.0
            },
            {
                "start_time": 34.78409090909091,
                "end_time": 34.902272727272724,
                "pitch": 40,
                "velocity": 32,
                "duration": 0.11818181818181728,
                "tempo": 120.0
            },
            {
                "start_time": 34.918181818181814,
                "end_time": 35.168181818181814,
                "pitch": 29,
                "velocity": 32,
                "duration": 0.25,
                "tempo": 120.0
            },
            {
                "start_time": 35.184090909090905,
                "end_time": 35.3,
                "pitch": 41,
                "velocity": 32,
                "duration": 0.11590909090909207,
                "tempo": 120.0
            },
            {
                "start_time": 35.31818181818181,
                "end_time": 35.56136363636364,
                "pitch": 30,
                "velocity": 32,
                "duration": 0.24318181818182438,
                "tempo": 120.0
            },
            {
                "start_time": 35.57954545454545,
                "end_time": 35.69318181818181,
                "pitch": 42,
                "velocity": 32,
                "duration": 0.11363636363635976,
                "tempo": 120.0
            },
            {
                "start_time": 35.70909090909091,
                "end_time": 35.95909090909091,
                "pitch": 30,
                "velocity": 32,
                "duration": 0.25,
                "tempo": 120.0
            },
            {
                "start_time": 35.97727272727273,
                "end_time": 36.09318181818182,
                "pitch": 42,
                "velocity": 32,
                "duration": 0.11590909090909207,
                "tempo": 120.0
            },
            {
                "start_time": 36.10909090909091,
                "end_time": 36.35909090909091,
                "pitch": 30,
                "velocity": 32,
                "duration": 0.25,
                "tempo": 120.0
            },
            {
                "start_time": 36.377272727272725,
                "end_time": 36.49318181818182,
                "pitch": 42,
                "velocity": 32,
                "duration": 0.11590909090909207,
                "tempo": 120.0
            },
            {
                "start_time": 36.51136363636363,
                "end_time": 36.768181818181816,
                "pitch": 30,
                "velocity": 32,
                "duration": 0.2568181818181827,
                "tempo": 120.0
            },
            {
                "start_time": 36.78409090909091,
                "end_time": 36.904545454545456,
                "pitch": 42,
                "velocity": 32,
                "duration": 0.12045454545454959,
                "tempo": 120.0
            },
            {
                "start_time": 36.92045454545455,
                "end_time": 37.03409090909091,
                "pitch": 30,
                "velocity": 32,
                "duration": 0.11363636363635976,
                "tempo": 120.0
            },
            {
                "start_time": 37.05,
                "end_time": 37.16590909090909,
                "pitch": 42,
                "velocity": 32,
                "duration": 0.11590909090909207,
                "tempo": 120.0
            },
            {
                "start_time": 37.18181818181818,
                "end_time": 37.29545454545455,
                "pitch": 42,
                "velocity": 32,
                "duration": 0.11363636363636687,
                "tempo": 120.0
            },
            {
                "start_time": 37.31363636363636,
                "end_time": 37.429545454545455,
                "pitch": 30,
                "velocity": 32,
                "duration": 0.11590909090909207,
                "tempo": 120.0
            },
            {
                "start_time": 37.445454545454545,
                "end_time": 37.56363636363636,
                "pitch": 42,
                "velocity": 32,
                "duration": 0.11818181818181728,
                "tempo": 120.0
            },
            {
                "start_time": 37.57954545454545,
                "end_time": 37.695454545454545,
                "pitch": 42,
                "velocity": 32,
                "duration": 0.11590909090909207,
                "tempo": 120.0
            },
            {
                "start_time": 37.71363636363636,
                "end_time": 37.82954545454545,
                "pitch": 30,
                "velocity": 32,
                "duration": 0.11590909090909207,
                "tempo": 120.0
            },
            {
                "start_time": 37.845454545454544,
                "end_time": 37.96363636363636,
                "pitch": 42,
                "velocity": 32,
                "duration": 0.11818181818181728,
                "tempo": 120.0
            },
            {
                "start_time": 37.97954545454545,
                "end_time": 38.095454545454544,
                "pitch": 42,
                "velocity": 32,
                "duration": 0.11590909090909207,
                "tempo": 120.0
            },
            {
                "start_time": 38.11363636363636,
                "end_time": 38.22954545454545,
                "pitch": 31,
                "velocity": 32,
                "duration": 0.11590909090909207,
                "tempo": 120.0
            },
            {
                "start_time": 38.24545454545454,
                "end_time": 38.36363636363636,
                "pitch": 43,
                "velocity": 32,
                "duration": 0.11818181818181728,
                "tempo": 120.0
            },
            {
                "start_time": 38.37954545454545,
                "end_time": 38.49545454545454,
                "pitch": 43,
                "velocity": 32,
                "duration": 0.11590909090909207,
                "tempo": 120.0
            },
            {
                "start_time": 38.51363636363636,
                "end_time": 38.77045454545454,
                "pitch": 32,
                "velocity": 32,
                "duration": 0.2568181818181827,
                "tempo": 120.0
            },
            {
                "start_time": 38.788636363636364,
                "end_time": 38.90681818181818,
                "pitch": 44,
                "velocity": 32,
                "duration": 0.11818181818181728,
                "tempo": 120.0
            },
            {
                "start_time": 38.92272727272727,
                "end_time": 39.168181818181814,
                "pitch": 32,
                "velocity": 32,
                "duration": 0.24545454545454248,
                "tempo": 120.0
            },
            {
                "start_time": 39.184090909090905,
                "end_time": 39.3,
                "pitch": 44,
                "velocity": 32,
                "duration": 0.11590909090909207,
                "tempo": 120.0
            },
            {
                "start_time": 39.31590909090909,
                "end_time": 39.56590909090909,
                "pitch": 32,
                "velocity": 32,
                "duration": 0.25,
                "tempo": 120.0
            },
            {
                "start_time": 39.58181818181818,
                "end_time": 39.699999999999996,
                "pitch": 44,
                "velocity": 32,
                "duration": 0.11818181818181728,
                "tempo": 120.0
            },
            {
                "start_time": 39.715909090909086,
                "end_time": 39.965909090909086,
                "pitch": 32,
                "velocity": 32,
                "duration": 0.25,
                "tempo": 120.0
            },
            {
                "start_time": 39.98181818181818,
                "end_time": 40.1,
                "pitch": 44,
                "velocity": 32,
                "duration": 0.11818181818182438,
                "tempo": 120.0
            },
            {
                "start_time": 40.11590909090909,
                "end_time": 40.36590909090909,
                "pitch": 32,
                "velocity": 32,
                "duration": 0.25,
                "tempo": 120.0
            },
            {
                "start_time": 40.38181818181818,
                "end_time": 40.5,
                "pitch": 44,
                "velocity": 32,
                "duration": 0.11818181818181728,
                "tempo": 120.0
            },
            {
                "start_time": 40.51590909090909,
                "end_time": 40.77272727272727,
                "pitch": 32,
                "velocity": 32,
                "duration": 0.2568181818181827,
                "tempo": 120.0
            },
            {
                "start_time": 40.79090909090909,
                "end_time": 40.90909090909091,
                "pitch": 44,
                "velocity": 32,
                "duration": 0.11818181818181728,
                "tempo": 120.0
            },
            {
                "start_time": 40.92727272727272,
                "end_time": 41.17727272727272,
                "pitch": 32,
                "velocity": 32,
                "duration": 0.25,
                "tempo": 120.0
            },
            {
                "start_time": 41.19318181818181,
                "end_time": 41.309090909090905,
                "pitch": 44,
                "velocity": 32,
                "duration": 0.11590909090909207,
                "tempo": 120.0
            },
            {
                "start_time": 41.32727272727273,
                "end_time": 41.57727272727273,
                "pitch": 32,
                "velocity": 32,
                "duration": 0.25,
                "tempo": 120.0
            },
            {
                "start_time": 41.59318181818182,
                "end_time": 41.709090909090904,
                "pitch": 44,
                "velocity": 32,
                "duration": 0.11590909090908497,
                "tempo": 120.0
            },
            {
                "start_time": 41.725,
                "end_time": 41.970454545454544,
                "pitch": 25,
                "velocity": 32,
                "duration": 0.24545454545454248,
                "tempo": 120.0
            },
            {
                "start_time": 41.986363636363635,
                "end_time": 42.10227272727273,
                "pitch": 37,
                "velocity": 32,
                "duration": 0.11590909090909207,
                "tempo": 120.0
            },
            {
                "start_time": 42.12045454545454,
                "end_time": 42.377272727272725,
                "pitch": 25,
                "velocity": 32,
                "duration": 0.2568181818181827,
                "tempo": 120.0
            },
            {
                "start_time": 42.393181818181816,
                "end_time": 42.51136363636363,
                "pitch": 37,
                "velocity": 32,
                "duration": 0.11818181818181728,
                "tempo": 120.0
            },
            {
                "start_time": 42.52954545454545,
                "end_time": 42.77272727272727,
                "pitch": 25,
                "velocity": 32,
                "duration": 0.24318181818182438,
                "tempo": 120.0
            },
            {
                "start_time": 42.79090909090909,
                "end_time": 42.90454545454545,
                "pitch": 37,
                "velocity": 32,
                "duration": 0.11363636363635976,
                "tempo": 120.0
            },
            {
                "start_time": 42.92272727272727,
                "end_time": 43.179545454545455,
                "pitch": 25,
                "velocity": 32,
                "duration": 0.2568181818181827,
                "tempo": 120.0
            },
            {
                "start_time": 43.195454545454545,
                "end_time": 43.31590909090909,
                "pitch": 37,
                "velocity": 32,
                "duration": 0.12045454545454248,
                "tempo": 120.0
            },
            {
                "start_time": 43.33181818181818,
                "end_time": 43.57727272727273,
                "pitch": 25,
                "velocity": 32,
                "duration": 0.2454545454545496,
                "tempo": 120.0
            },
            {
                "start_time": 43.59318181818182,
                "end_time": 43.70681818181818,
                "pitch": 37,
                "velocity": 32,
                "duration": 0.11363636363635976,
                "tempo": 120.0
            },
            {
                "start_time": 43.725,
                "end_time": 43.974999999999994,
                "pitch": 25,
                "velocity": 32,
                "duration": 0.2499999999999929,
                "tempo": 120.0
            },
            {
                "start_time": 43.99090909090909,
                "end_time": 44.10681818181818,
                "pitch": 37,
                "velocity": 32,
                "duration": 0.11590909090908497,
                "tempo": 120.0
            },
            {
                "start_time": 44.125,
                "end_time": 44.375,
                "pitch": 25,
                "velocity": 32,
                "duration": 0.25,
                "tempo": 120.0
            },
            {
                "start_time": 44.39090909090909,
                "end_time": 44.50681818181818,
                "pitch": 37,
                "velocity": 32,
                "duration": 0.11590909090909207,
                "tempo": 120.0
            },
            {
                "start_time": 44.525,
                "end_time": 44.78181818181818,
                "pitch": 27,
                "velocity": 32,
                "duration": 0.2568181818181827,
                "tempo": 120.0
            },
            {
                "start_time": 44.79772727272727,
                "end_time": 44.918181818181814,
                "pitch": 39,
                "velocity": 32,
                "duration": 0.12045454545454248,
                "tempo": 120.0
            },
            {
                "start_time": 44.934090909090905,
                "end_time": 45.179545454545455,
                "pitch": 28,
                "velocity": 32,
                "duration": 0.2454545454545496,
                "tempo": 120.0
            },
            {
                "start_time": 45.195454545454545,
                "end_time": 45.31136363636364,
                "pitch": 40,
                "velocity": 32,
                "duration": 0.11590909090909207,
                "tempo": 120.0
            },
            {
                "start_time": 45.32727272727273,
                "end_time": 45.57727272727273,
                "pitch": 28,
                "velocity": 32,
                "duration": 0.25,
                "tempo": 120.0
            },
            {
                "start_time": 45.59318181818182,
                "end_time": 45.711363636363636,
                "pitch": 40,
                "velocity": 32,
                "duration": 0.11818181818181728,
                "tempo": 120.0
            },
            {
                "start_time": 45.72727272727273,
                "end_time": 45.97727272727273,
                "pitch": 28,
                "velocity": 32,
                "duration": 0.25,
                "tempo": 120.0
            },
            {
                "start_time": 45.99318181818182,
                "end_time": 46.111363636363635,
                "pitch": 40,
                "velocity": 32,
                "duration": 0.11818181818181728,
                "tempo": 120.0
            },
            {
                "start_time": 46.127272727272725,
                "end_time": 46.38409090909091,
                "pitch": 28,
                "velocity": 32,
                "duration": 0.2568181818181827,
                "tempo": 120.0
            },
            {
                "start_time": 46.402272727272724,
                "end_time": 46.52045454545454,
                "pitch": 40,
                "velocity": 32,
                "duration": 0.11818181818181728,
                "tempo": 120.0
            },
            {
                "start_time": 46.538636363636364,
                "end_time": 46.788636363636364,
                "pitch": 28,
                "velocity": 32,
                "duration": 0.25,
                "tempo": 120.0
            },
            {
                "start_time": 46.804545454545455,
                "end_time": 46.92045454545454,
                "pitch": 40,
                "velocity": 32,
                "duration": 0.11590909090908497,
                "tempo": 120.0
            },
            {
                "start_time": 46.93863636363636,
                "end_time": 47.18863636363636,
                "pitch": 28,
                "velocity": 32,
                "duration": 0.25,
                "tempo": 120.0
            },
            {
                "start_time": 47.20454545454545,
                "end_time": 47.320454545454545,
                "pitch": 40,
                "velocity": 32,
                "duration": 0.11590909090909207,
                "tempo": 120.0
            },
            {
                "start_time": 47.33863636363636,
                "end_time": 47.58863636363636,
                "pitch": 28,
                "velocity": 32,
                "duration": 0.25,
                "tempo": 120.0
            },
            {
                "start_time": 47.60454545454545,
                "end_time": 47.720454545454544,
                "pitch": 40,
                "velocity": 32,
                "duration": 0.11590909090909207,
                "tempo": 120.0
            },
            {
                "start_time": 47.73863636363636,
                "end_time": 47.98863636363636,
                "pitch": 29,
                "velocity": 32,
                "duration": 0.25,
                "tempo": 120.0
            },
            {
                "start_time": 48.00681818181818,
                "end_time": 48.12272727272727,
                "pitch": 41,
                "velocity": 32,
                "duration": 0.11590909090908497,
                "tempo": 120.0
            },
            {
                "start_time": 48.14090909090909,
                "end_time": 48.38409090909091,
                "pitch": 30,
                "velocity": 32,
                "duration": 0.24318181818181728,
                "tempo": 120.0
            },
            {
                "start_time": 48.402272727272724,
                "end_time": 48.51590909090909,
                "pitch": 42,
                "velocity": 32,
                "duration": 0.11363636363636687,
                "tempo": 120.0
            },
            {
                "start_time": 48.53181818181818,
                "end_time": 48.78409090909091,
                "pitch": 30,
                "velocity": 32,
                "duration": 0.2522727272727252,
                "tempo": 120.0
            },
            {
                "start_time": 48.80227272727272,
                "end_time": 48.918181818181814,
                "pitch": 42,
                "velocity": 32,
                "duration": 0.11590909090909207,
                "tempo": 120.0
            },
            {
                "start_time": 48.93636363636364,
                "end_time": 49.18636363636364,
                "pitch": 30,
                "velocity": 32,
                "duration": 0.25,
                "tempo": 120.0
            },
            {
                "start_time": 49.20227272727273,
                "end_time": 49.31818181818181,
                "pitch": 42,
                "velocity": 32,
                "duration": 0.11590909090908497,
                "tempo": 120.0
            },
            {
                "start_time": 49.336363636363636,
                "end_time": 49.586363636363636,
                "pitch": 30,
                "velocity": 32,
                "duration": 0.25,
                "tempo": 120.0
            },
            {
                "start_time": 49.60227272727273,
                "end_time": 49.71818181818182,
                "pitch": 42,
                "velocity": 32,
                "duration": 0.11590909090909207,
                "tempo": 120.0
            },
            {
                "start_time": 49.736363636363635,
                "end_time": 49.986363636363635,
                "pitch": 30,
                "velocity": 32,
                "duration": 0.25,
                "tempo": 120.0
            },
            {
                "start_time": 50.13636363636363,
                "end_time": 50.38636363636363,
                "pitch": 30,
                "velocity": 32,
                "duration": 0.25,
                "tempo": 120.0
            },
            {
                "start_time": 50.53636363636363,
                "end_time": 50.78636363636363,
                "pitch": 32,
                "velocity": 32,
                "duration": 0.25,
                "tempo": 120.0
            },
            {
                "start_time": 50.93863636363636,
                "end_time": 51.18863636363636,
                "pitch": 34,
                "velocity": 32,
                "duration": 0.25,
                "tempo": 120.0
            }
        ],
        "Acoustic Grand Piano": [
            {
                "start_time": 0.25,
                "end_time": 0.3659090909090909,
                "pitch": 75,
                "velocity": 32,
                "duration": 0.1159090909090909,
                "tempo": 120.0
            },
            {
                "start_time": 0.6454545454545454,
                "end_time": 0.759090909090909,
                "pitch": 75,
                "velocity": 32,
                "duration": 0.11363636363636365,
                "tempo": 120.0
            },
            {
                "start_time": 1.0363636363636364,
                "end_time": 1.1522727272727271,
                "pitch": 75,
                "velocity": 32,
                "duration": 0.11590909090909074,
                "tempo": 120.0
            },
            {
                "start_time": 1.434090909090909,
                "end_time": 1.5522727272727272,
                "pitch": 75,
                "velocity": 32,
                "duration": 0.11818181818181817,
                "tempo": 120.0
            },
            {
                "start_time": 1.8363636363636362,
                "end_time": 1.9545454545454544,
                "pitch": 75,
                "velocity": 32,
                "duration": 0.11818181818181817,
                "tempo": 120.0
            },
            {
                "start_time": 2.245454545454545,
                "end_time": 2.3636363636363633,
                "pitch": 75,
                "velocity": 32,
                "duration": 0.11818181818181817,
                "tempo": 120.0
            },
            {
                "start_time": 2.643181818181818,
                "end_time": 2.756818181818182,
                "pitch": 75,
                "velocity": 32,
                "duration": 0.11363636363636376,
                "tempo": 120.0
            },
            {
                "start_time": 3.0477272727272724,
                "end_time": 3.1659090909090906,
                "pitch": 75,
                "velocity": 32,
                "duration": 0.11818181818181817,
                "tempo": 120.0
            },
            {
                "start_time": 3.4454545454545453,
                "end_time": 3.559090909090909,
                "pitch": 73,
                "velocity": 32,
                "duration": 0.11363636363636376,
                "tempo": 120.0
            },
            {
                "start_time": 3.843181818181818,
                "end_time": 3.959090909090909,
                "pitch": 73,
                "velocity": 32,
                "duration": 0.11590909090909118,
                "tempo": 120.0
            },
            {
                "start_time": 4.243181818181818,
                "end_time": 4.3590909090909085,
                "pitch": 73,
                "velocity": 32,
                "duration": 0.1159090909090903,
                "tempo": 120.0
            },
            {
                "start_time": 4.643181818181818,
                "end_time": 4.759090909090909,
                "pitch": 73,
                "velocity": 32,
                "duration": 0.11590909090909118,
                "tempo": 120.0
            },
            {
                "start_time": 5.045454545454545,
                "end_time": 5.161363636363636,
                "pitch": 73,
                "velocity": 32,
                "duration": 0.11590909090909118,
                "tempo": 120.0
            },
            {
                "start_time": 5.452272727272727,
                "end_time": 5.572727272727272,
                "pitch": 73,
                "velocity": 32,
                "duration": 0.12045454545454515,
                "tempo": 120.0
            },
            {
                "start_time": 5.85,
                "end_time": 5.965909090909091,
                "pitch": 73,
                "velocity": 32,
                "duration": 0.11590909090909118,
                "tempo": 120.0
            },
            {
                "start_time": 6.254545454545454,
                "end_time": 6.375,
                "pitch": 73,
                "velocity": 32,
                "duration": 0.12045454545454604,
                "tempo": 120.0
            },
            {
                "start_time": 6.654545454545454,
                "end_time": 6.768181818181818,
                "pitch": 71,
                "velocity": 32,
                "duration": 0.11363636363636331,
                "tempo": 120.0
            },
            {
                "start_time": 7.056818181818182,
                "end_time": 7.177272727272727,
                "pitch": 71,
                "velocity": 32,
                "duration": 0.12045454545454515,
                "tempo": 120.0
            },
            {
                "start_time": 7.456818181818181,
                "end_time": 7.570454545454545,
                "pitch": 71,
                "velocity": 32,
                "duration": 0.1136363636363642,
                "tempo": 120.0
            },
            {
                "start_time": 7.861363636363636,
                "end_time": 7.9795454545454545,
                "pitch": 71,
                "velocity": 32,
                "duration": 0.11818181818181817,
                "tempo": 120.0
            },
            {
                "start_time": 8.259090909090908,
                "end_time": 8.372727272727273,
                "pitch": 71,
                "velocity": 32,
                "duration": 0.11363636363636509,
                "tempo": 120.0
            },
            {
                "start_time": 8.663636363636364,
                "end_time": 8.784090909090908,
                "pitch": 71,
                "velocity": 32,
                "duration": 0.12045454545454426,
                "tempo": 120.0
            },
            {
                "start_time": 9.061363636363636,
                "end_time": 9.174999999999999,
                "pitch": 71,
                "velocity": 32,
                "duration": 0.11363636363636331,
                "tempo": 120.0
            },
            {
                "start_time": 9.46590909090909,
                "end_time": 9.586363636363636,
                "pitch": 71,
                "velocity": 32,
                "duration": 0.12045454545454604,
                "tempo": 120.0
            },
            {
                "start_time": 9.863636363636363,
                "end_time": 9.979545454545454,
                "pitch": 71,
                "velocity": 32,
                "duration": 0.1159090909090903,
                "tempo": 120.0
            },
            {
                "start_time": 10.268181818181818,
                "end_time": 10.388636363636364,
                "pitch": 71,
                "velocity": 32,
                "duration": 0.12045454545454604,
                "tempo": 120.0
            },
            {
                "start_time": 10.665909090909091,
                "end_time": 10.781818181818181,
                "pitch": 71,
                "velocity": 32,
                "duration": 0.1159090909090903,
                "tempo": 120.0
            },
            {
                "start_time": 11.070454545454545,
                "end_time": 11.19090909090909,
                "pitch": 71,
                "velocity": 32,
                "duration": 0.12045454545454426,
                "tempo": 120.0
            },
            {
                "start_time": 11.470454545454546,
                "end_time": 11.584090909090909,
                "pitch": 71,
                "velocity": 32,
                "duration": 0.11363636363636331,
                "tempo": 120.0
            },
            {
                "start_time": 11.868181818181817,
                "end_time": 11.986363636363636,
                "pitch": 71,
                "velocity": 32,
                "duration": 0.11818181818181905,
                "tempo": 120.0
            },
            {
                "start_time": 12.270454545454545,
                "end_time": 12.388636363636364,
                "pitch": 71,
                "velocity": 32,
                "duration": 0.11818181818181905,
                "tempo": 120.0
            },
            {
                "start_time": 12.679545454545455,
                "end_time": 12.799999999999999,
                "pitch": 71,
                "velocity": 32,
                "duration": 0.12045454545454426,
                "tempo": 120.0
            },
            {
                "start_time": 13.077272727272726,
                "end_time": 13.193181818181818,
                "pitch": 75,
                "velocity": 32,
                "duration": 0.11590909090909207,
                "tempo": 120.0
            },
            {
                "start_time": 13.48181818181818,
                "end_time": 13.602272727272727,
                "pitch": 75,
                "velocity": 32,
                "duration": 0.12045454545454604,
                "tempo": 120.0
            },
            {
                "start_time": 13.879545454545454,
                "end_time": 13.995454545454544,
                "pitch": 75,
                "velocity": 32,
                "duration": 0.1159090909090903,
                "tempo": 120.0
            },
            {
                "start_time": 14.284090909090908,
                "end_time": 14.404545454545454,
                "pitch": 75,
                "velocity": 32,
                "duration": 0.12045454545454604,
                "tempo": 120.0
            },
            {
                "start_time": 14.684090909090909,
                "end_time": 14.797727272727272,
                "pitch": 75,
                "velocity": 32,
                "duration": 0.11363636363636331,
                "tempo": 120.0
            },
            {
                "start_time": 15.086363636363636,
                "end_time": 15.20681818181818,
                "pitch": 75,
                "velocity": 32,
                "duration": 0.12045454545454426,
                "tempo": 120.0
            },
            {
                "start_time": 15.486363636363636,
                "end_time": 15.6,
                "pitch": 75,
                "velocity": 32,
                "duration": 0.11363636363636331,
                "tempo": 120.0
            },
            {
                "start_time": 15.89090909090909,
                "end_time": 16.009090909090908,
                "pitch": 75,
                "velocity": 32,
                "duration": 0.11818181818181728,
                "tempo": 120.0
            },
            {
                "start_time": 16.288636363636364,
                "end_time": 16.402272727272727,
                "pitch": 73,
                "velocity": 32,
                "duration": 0.11363636363636331,
                "tempo": 120.0
            },
            {
                "start_time": 16.693181818181817,
                "end_time": 16.813636363636363,
                "pitch": 73,
                "velocity": 32,
                "duration": 0.12045454545454604,
                "tempo": 120.0
            },
            {
                "start_time": 17.09090909090909,
                "end_time": 17.204545454545453,
                "pitch": 73,
                "velocity": 32,
                "duration": 0.11363636363636331,
                "tempo": 120.0
            },
            {
                "start_time": 17.488636363636363,
                "end_time": 17.604545454545455,
                "pitch": 73,
                "velocity": 32,
                "duration": 0.11590909090909207,
                "tempo": 120.0
            },
            {
                "start_time": 17.888636363636362,
                "end_time": 18.004545454545454,
                "pitch": 73,
                "velocity": 32,
                "duration": 0.11590909090909207,
                "tempo": 120.0
            },
            {
                "start_time": 18.29090909090909,
                "end_time": 18.40681818181818,
                "pitch": 73,
                "velocity": 32,
                "duration": 0.11590909090909207,
                "tempo": 120.0
            },
            {
                "start_time": 18.69090909090909,
                "end_time": 18.80681818181818,
                "pitch": 73,
                "velocity": 32,
                "duration": 0.11590909090908852,
                "tempo": 120.0
            },
            {
                "start_time": 19.097727272727273,
                "end_time": 19.21818181818182,
                "pitch": 73,
                "velocity": 32,
                "duration": 0.12045454545454604,
                "tempo": 120.0
            },
            {
                "start_time": 19.495454545454546,
                "end_time": 19.611363636363635,
                "pitch": 71,
                "velocity": 32,
                "duration": 0.11590909090908852,
                "tempo": 120.0
            },
            {
                "start_time": 19.9,
                "end_time": 20.020454545454545,
                "pitch": 71,
                "velocity": 32,
                "duration": 0.12045454545454604,
                "tempo": 120.0
            },
            {
                "start_time": 20.3,
                "end_time": 20.413636363636364,
                "pitch": 71,
                "velocity": 32,
                "duration": 0.11363636363636331,
                "tempo": 120.0
            },
            {
                "start_time": 20.704545454545453,
                "end_time": 20.82272727272727,
                "pitch": 71,
                "velocity": 32,
                "duration": 0.11818181818181728,
                "tempo": 120.0
            },
            {
                "start_time": 21.102272727272727,
                "end_time": 21.21590909090909,
                "pitch": 71,
                "velocity": 32,
                "duration": 0.11363636363636331,
                "tempo": 120.0
            },
            {
                "start_time": 21.50681818181818,
                "end_time": 21.625,
                "pitch": 71,
                "velocity": 32,
                "duration": 0.11818181818182083,
                "tempo": 120.0
            },
            {
                "start_time": 21.904545454545453,
                "end_time": 22.018181818181816,
                "pitch": 71,
                "velocity": 32,
                "duration": 0.11363636363636331,
                "tempo": 120.0
            },
            {
                "start_time": 22.30909090909091,
                "end_time": 22.429545454545455,
                "pitch": 71,
                "velocity": 32,
                "duration": 0.12045454545454604,
                "tempo": 120.0
            },
            {
                "start_time": 22.706818181818182,
                "end_time": 22.820454545454545,
                "pitch": 71,
                "velocity": 32,
                "duration": 0.11363636363636331,
                "tempo": 120.0
            },
            {
                "start_time": 23.111363636363635,
                "end_time": 23.23181818181818,
                "pitch": 71,
                "velocity": 32,
                "duration": 0.12045454545454604,
                "tempo": 120.0
            },
            {
                "start_time": 23.51590909090909,
                "end_time": 23.634090909090908,
                "pitch": 71,
                "velocity": 32,
                "duration": 0.11818181818181728,
                "tempo": 120.0
            },
            {
                "start_time": 23.918181818181818,
                "end_time": 24.034090909090907,
                "pitch": 71,
                "velocity": 32,
                "duration": 0.11590909090908852,
                "tempo": 120.0
            },
            {
                "start_time": 24.068181818181817,
                "end_time": 24.302272727272726,
                "pitch": 71,
                "velocity": 32,
                "duration": 0.23409090909090935,
                "tempo": 120.0
            },
            {
                "start_time": 24.452272727272724,
                "end_time": 24.827272727272724,
                "pitch": 71,
                "velocity": 32,
                "duration": 0.375,
                "tempo": 120.0
            },
            {
                "start_time": 24.84318181818182,
                "end_time": 25.229545454545452,
                "pitch": 70,
                "velocity": 32,
                "duration": 0.38636363636363313,
                "tempo": 120.0
            },
            {
                "start_time": 25.245454545454542,
                "end_time": 25.629545454545454,
                "pitch": 69,
                "velocity": 32,
                "duration": 0.3840909090909115,
                "tempo": 120.0
            },
            {
                "start_time": 26.05681818181818,
                "end_time": 26.43181818181818,
                "pitch": 70,
                "velocity": 32,
                "duration": 0.375,
                "tempo": 120.0
            },
            {
                "start_time": 26.849999999999998,
                "end_time": 27.23409090909091,
                "pitch": 70,
                "velocity": 32,
                "duration": 0.3840909090909115,
                "tempo": 120.0
            },
            {
                "start_time": 27.652272727272727,
                "end_time": 28.045454545454543,
                "pitch": 70,
                "velocity": 32,
                "duration": 0.39318181818181586,
                "tempo": 120.0
            },
            {
                "start_time": 28.061363636363634,
                "end_time": 28.445454545454545,
                "pitch": 70,
                "velocity": 32,
                "duration": 0.3840909090909115,
                "tempo": 120.0
            },
            {
                "start_time": 28.46363636363636,
                "end_time": 28.847727272727273,
                "pitch": 70,
                "velocity": 32,
                "duration": 0.3840909090909115,
                "tempo": 120.0
            },
            {
                "start_time": 29.25681818181818,
                "end_time": 29.65,
                "pitch": 68,
                "velocity": 32,
                "duration": 0.3931818181818194,
                "tempo": 120.0
            },
            {
                "start_time": 30.05909090909091,
                "end_time": 30.454545454545453,
                "pitch": 68,
                "velocity": 32,
                "duration": 0.3954545454545446,
                "tempo": 120.0
            },
            {
                "start_time": 30.863636363636363,
                "end_time": 31.24772727272727,
                "pitch": 68,
                "velocity": 32,
                "duration": 0.38409090909090793,
                "tempo": 120.0
            },
            {
                "start_time": 31.26590909090909,
                "end_time": 31.64772727272727,
                "pitch": 68,
                "velocity": 32,
                "duration": 0.38181818181817917,
                "tempo": 120.0
            },
            {
                "start_time": 31.66590909090909,
                "end_time": 32.059090909090905,
                "pitch": 68,
                "velocity": 32,
                "duration": 0.39318181818181586,
                "tempo": 120.0
            },
            {
                "start_time": 32.46818181818182,
                "end_time": 32.85454545454545,
                "pitch": 68,
                "velocity": 32,
                "duration": 0.38636363636363313,
                "tempo": 120.0
            },
            {
                "start_time": 33.27045454545454,
                "end_time": 33.663636363636364,
                "pitch": 68,
                "velocity": 32,
                "duration": 0.39318181818182296,
                "tempo": 120.0
            },
            {
                "start_time": 34.08409090909091,
                "end_time": 34.46818181818182,
                "pitch": 68,
                "velocity": 32,
                "duration": 0.38409090909090793,
                "tempo": 120.0
            },
            {
                "start_time": 34.48409090909091,
                "end_time": 34.86818181818182,
                "pitch": 68,
                "velocity": 32,
                "duration": 0.38409090909090793,
                "tempo": 120.0
            },
            {
                "start_time": 34.88409090909091,
                "end_time": 35.268181818181816,
                "pitch": 68,
                "velocity": 32,
                "duration": 0.38409090909090793,
                "tempo": 120.0
            },
            {
                "start_time": 35.67727272727272,
                "end_time": 36.059090909090905,
                "pitch": 70,
                "velocity": 32,
                "duration": 0.3818181818181827,
                "tempo": 120.0
            },
            {
                "start_time": 36.47727272727273,
                "end_time": 36.87045454545454,
                "pitch": 70,
                "velocity": 32,
                "duration": 0.39318181818181586,
                "tempo": 120.0
            },
            {
                "start_time": 37.279545454545456,
                "end_time": 37.663636363636364,
                "pitch": 70,
                "velocity": 32,
                "duration": 0.38409090909090793,
                "tempo": 120.0
            },
            {
                "start_time": 38.07954545454545,
                "end_time": 38.46363636363636,
                "pitch": 70,
                "velocity": 32,
                "duration": 0.38409090909090793,
                "tempo": 120.0
            },
            {
                "start_time": 38.89090909090909,
                "end_time": 39.26590909090909,
                "pitch": 70,
                "velocity": 32,
                "duration": 0.375,
                "tempo": 120.0
            },
            {
                "start_time": 39.68181818181818,
                "end_time": 40.06590909090909,
                "pitch": 70,
                "velocity": 32,
                "duration": 0.38409090909090793,
                "tempo": 120.0
            },
            {
                "start_time": 40.48181818181818,
                "end_time": 40.875,
                "pitch": 70,
                "velocity": 32,
                "duration": 0.39318181818182296,
                "tempo": 120.0
            },
            {
                "start_time": 40.893181818181816,
                "end_time": 41.277272727272724,
                "pitch": 70,
                "velocity": 32,
                "duration": 0.38409090909090793,
                "tempo": 120.0
            },
            {
                "start_time": 41.293181818181814,
                "end_time": 41.67727272727272,
                "pitch": 70,
                "velocity": 32,
                "duration": 0.38409090909090793,
                "tempo": 120.0
            },
            {
                "start_time": 42.086363636363636,
                "end_time": 42.47954545454545,
                "pitch": 68,
                "velocity": 32,
                "duration": 0.39318181818181586,
                "tempo": 120.0
            },
            {
                "start_time": 42.88863636363636,
                "end_time": 43.28181818181818,
                "pitch": 68,
                "velocity": 32,
                "duration": 0.39318181818182296,
                "tempo": 120.0
            },
            {
                "start_time": 43.69090909090909,
                "end_time": 44.074999999999996,
                "pitch": 68,
                "velocity": 32,
                "duration": 0.38409090909090793,
                "tempo": 120.0
            },
            {
                "start_time": 44.090909090909086,
                "end_time": 44.474999999999994,
                "pitch": 68,
                "velocity": 32,
                "duration": 0.38409090909090793,
                "tempo": 120.0
            },
            {
                "start_time": 44.49090909090909,
                "end_time": 44.88409090909091,
                "pitch": 68,
                "velocity": 32,
                "duration": 0.39318181818181586,
                "tempo": 120.0
            },
            {
                "start_time": 45.293181818181814,
                "end_time": 45.67727272727272,
                "pitch": 68,
                "velocity": 32,
                "duration": 0.38409090909090793,
                "tempo": 120.0
            },
            {
                "start_time": 46.09318181818182,
                "end_time": 46.486363636363635,
                "pitch": 68,
                "velocity": 32,
                "duration": 0.39318181818181586,
                "tempo": 120.0
            },
            {
                "start_time": 46.90454545454545,
                "end_time": 47.288636363636364,
                "pitch": 68,
                "velocity": 32,
                "duration": 0.38409090909091503,
                "tempo": 120.0
            },
            {
                "start_time": 47.304545454545455,
                "end_time": 47.68863636363636,
                "pitch": 68,
                "velocity": 32,
                "duration": 0.38409090909090793,
                "tempo": 120.0
            },
            {
                "start_time": 47.70454545454545,
                "end_time": 48.090909090909086,
                "pitch": 68,
                "velocity": 32,
                "duration": 0.38636363636363313,
                "tempo": 120.0
            },
            {
                "start_time": 48.5,
                "end_time": 48.88636363636363,
                "pitch": 70,
                "velocity": 32,
                "duration": 0.38636363636363313,
                "tempo": 120.0
            },
            {
                "start_time": 49.30227272727272,
                "end_time": 49.55227272727272,
                "pitch": 70,
                "velocity": 32,
                "duration": 0.25,
                "tempo": 120.0
            },
            {
                "start_time": 49.56818181818181,
                "end_time": 51.288636363636364,
                "pitch": 73,
                "velocity": 32,
                "duration": 1.720454545454551,
                "tempo": 120.0
            }
        ]
    }
}