{
    "track_id": "Altered Beast (FM) - 05 - Ending",
    "mood": "happy",
    "instruments": {
        "Acoustic Grand Piano": [
            {
                "start_time": 65.99090909090908,
                "end_time": 66.175,
                "pitch": 69,
                "velocity": 40,
                "duration": 0.1840909090909122,
                "tempo": 120.0
            },
            {
                "start_time": 66.19090909090909,
                "end_time": 66.375,
                "pitch": 69,
                "velocity": 40,
                "duration": 0.1840909090909122,
                "tempo": 120.0
            },
            {
                "start_time": 66.39090909090909,
                "end_time": 66.575,
                "pitch": 69,
                "velocity": 40,
                "duration": 0.1840909090909122,
                "tempo": 120.0
            },
            {
                "start_time": 66.78863636363636,
                "end_time": 67.17272727272727,
                "pitch": 69,
                "velocity": 40,
                "duration": 0.38409090909091503,
                "tempo": 120.0
            },
            {
                "start_time": 67.18863636363636,
                "end_time": 67.77045454545454,
                "pitch": 69,
                "velocity": 40,
                "duration": 0.5818181818181785,
                "tempo": 120.0
            },
            {
                "start_time": 67.78636363636363,
                "end_time": 67.97045454545454,
                "pitch": 69,
                "velocity": 40,
                "duration": 0.1840909090909122,
                "tempo": 120.0
            },
            {
                "start_time": 67.98636363636363,
                "end_time": 68.17045454545455,
                "pitch": 69,
                "velocity": 40,
                "duration": 0.1840909090909122,
                "tempo": 120.0
            },
            {
                "start_time": 68.18636363636364,
                "end_time": 68.57272727272726,
                "pitch": 69,
                "velocity": 40,
                "duration": 0.38636363636362603,
                "tempo": 120.0
            },
            {
                "start_time": 68.58863636363635,
                "end_time": 68.97272727272727,
                "pitch": 69,
                "velocity": 40,
                "duration": 0.38409090909091503,
                "tempo": 120.0
            },
            {
                "start_time": 69.19090909090909,
                "end_time": 69.375,
                "pitch": 71,
                "velocity": 40,
                "duration": 0.1840909090909122,
                "tempo": 120.0
            },
            {
                "start_time": 69.39090909090909,
                "end_time": 69.57727272727273,
                "pitch": 71,
                "velocity": 40,
                "duration": 0.1863636363636374,
                "tempo": 120.0
            },
            {
                "start_time": 69.59318181818182,
                "end_time": 69.77727272727273,
                "pitch": 71,
                "velocity": 40,
                "duration": 0.1840909090909122,
                "tempo": 120.0
            },
            {
                "start_time": 69.79545454545455,
                "end_time": 69.97727272727272,
                "pitch": 71,
                "velocity": 40,
                "duration": 0.18181818181817277,
                "tempo": 120.0
            },
            {
                "start_time": 69.99545454545454,
                "end_time": 70.17727272727272,
                "pitch": 71,
                "velocity": 40,
                "duration": 0.18181818181818699,
                "tempo": 120.0
            },
            {
                "start_time": 70.59772727272727,
                "end_time": 71.18181818181817,
                "pitch": 66,
                "velocity": 40,
                "duration": 0.5840909090909037,
                "tempo": 120.0
            },
            {
                "start_time": 71.19772727272726,
                "end_time": 71.3840909090909,
                "pitch": 66,
                "velocity": 40,
                "duration": 0.1863636363636374,
                "tempo": 120.0
            },
            {
                "start_time": 71.39999999999999,
                "end_time": 71.78636363636363,
                "pitch": 66,
                "velocity": 40,
                "duration": 0.38636363636364024,
                "tempo": 120.0
            },
            {
                "start_time": 71.80227272727272,
                "end_time": 72.19545454545454,
                "pitch": 66,
                "velocity": 40,
                "duration": 0.39318181818181586,
                "tempo": 120.0
            },
            {
                "start_time": 72.21363636363635,
                "end_time": 72.58863636363635,
                "pitch": 71,
                "velocity": 40,
                "duration": 0.375,
                "tempo": 120.0
            },
            {
                "start_time": 72.60454545454544,
                "end_time": 72.78863636363636,
                "pitch": 71,
                "velocity": 40,
                "duration": 0.1840909090909122,
                "tempo": 120.0
            },
            {
                "start_time": 72.80454545454545,
                "end_time": 73.39090909090909,
                "pitch": 71,
                "velocity": 40,
                "duration": 0.5863636363636431,
                "tempo": 120.0
            },
            {
                "start_time": 73.4090909090909,
                "end_time": 73.59318181818182,
                "pitch": 62,
                "velocity": 40,
                "duration": 0.1840909090909122,
                "tempo": 120.0
            },
            {
                "start_time": 73.60909090909091,
                "end_time": 73.79318181818182,
                "pitch": 62,
                "velocity": 40,
                "duration": 0.1840909090909122,
                "tempo": 120.0
            },
            {
                "start_time": 73.81136363636364,
                "end_time": 73.99318181818181,
                "pitch": 64,
                "velocity": 40,
                "duration": 0.18181818181817277,
                "tempo": 120.0
            },
            {
                "start_time": 74.01136363636363,
                "end_time": 74.19318181818181,
                "pitch": 64,
                "velocity": 40,
                "duration": 0.18181818181818699,
                "tempo": 120.0
            },
            {
                "start_time": 74.21136363636363,
                "end_time": 74.39999999999999,
                "pitch": 64,
                "velocity": 40,
                "duration": 0.1886363636363626,
                "tempo": 120.0
            },
            {
                "start_time": 74.41590909090908,
                "end_time": 74.80227272727272,
                "pitch": 64,
                "velocity": 40,
                "duration": 0.38636363636364024,
                "tempo": 120.0
            },
            {
                "start_time": 74.81818181818181,
                "end_time": 74.99772727272727,
                "pitch": 64,
                "velocity": 40,
                "duration": 0.17954545454546178,
                "tempo": 120.0
            },
            {
                "start_time": 75.01363636363637,
                "end_time": 75.20227272727273,
                "pitch": 64,
                "velocity": 40,
                "duration": 0.1886363636363626,
                "tempo": 120.0
            },
            {
                "start_time": 75.21818181818182,
                "end_time": 75.40681818181818,
                "pitch": 64,
                "velocity": 40,
                "duration": 0.1886363636363626,
                "tempo": 120.0
            },
            {
                "start_time": 75.425,
                "end_time": 75.60454545454544,
                "pitch": 64,
                "velocity": 40,
                "duration": 0.17954545454544757,
                "tempo": 120.0
            },
            {
                "start_time": 75.62045454545454,
                "end_time": 75.8,
                "pitch": 64,
                "velocity": 40,
                "duration": 0.17954545454546178,
                "tempo": 120.0
            },
            {
                "start_time": 75.81590909090909,
                "end_time": 76.00454545454545,
                "pitch": 64,
                "velocity": 40,
                "duration": 0.1886363636363626,
                "tempo": 120.0
            },
            {
                "start_time": 76.02045454545454,
                "end_time": 76.60227272727272,
                "pitch": 64,
                "velocity": 40,
                "duration": 0.5818181818181785,
                "tempo": 120.0
            },
            {
                "start_time": 76.61818181818181,
                "end_time": 76.80227272727272,
                "pitch": 64,
                "velocity": 40,
                "duration": 0.1840909090909122,
                "tempo": 120.0
            },
            {
                "start_time": 76.81818181818181,
                "end_time": 77.00227272727273,
                "pitch": 64,
                "velocity": 40,
                "duration": 0.1840909090909122,
                "tempo": 120.0
            },
            {
                "start_time": 77.22045454545454,
                "end_time": 77.60681818181818,
                "pitch": 64,
                "velocity": 40,
                "duration": 0.38636363636364024,
                "tempo": 120.0
            },
            {
                "start_time": 77.62272727272727,
                "end_time": 77.80681818181817,
                "pitch": 64,
                "velocity": 40,
                "duration": 0.18409090909089798,
                "tempo": 120.0
            },
            {
                "start_time": 77.825,
                "end_time": 78.00681818181818,
                "pitch": 69,
                "velocity": 40,
                "duration": 0.18181818181817277,
                "tempo": 120.0
            },
            {
                "start_time": 78.02499999999999,
                "end_time": 78.20681818181818,
                "pitch": 71,
                "velocity": 40,
                "duration": 0.18181818181818699,
                "tempo": 120.0
            },
            {
                "start_time": 78.225,
                "end_time": 78.41363636363636,
                "pitch": 73,
                "velocity": 40,
                "duration": 0.1886363636363626,
                "tempo": 120.0
            },
            {
                "start_time": 78.42954545454545,
                "end_time": 78.61818181818181,
                "pitch": 74,
                "velocity": 40,
                "duration": 0.1886363636363626,
                "tempo": 120.0
            }
        ],
        "French Horn": [
            {
                "start_time": 0.7863636363636364,
                "end_time": 0.9704545454545455,
                "pitch": 62,
                "velocity": 40,
                "duration": 0.18409090909090908,
                "tempo": 120.0
            },
            {
                "start_time": 1.1863636363636363,
                "end_time": 1.3704545454545454,
                "pitch": 62,
                "velocity": 40,
                "duration": 0.18409090909090908,
                "tempo": 120.0
            },
            {
                "start_time": 1.5863636363636362,
                "end_time": 2.1772727272727272,
                "pitch": 62,
                "velocity": 40,
                "duration": 0.590909090909091,
                "tempo": 120.0
            },
            {
                "start_time": 2.193181818181818,
                "end_time": 3.175,
                "pitch": 61,
                "velocity": 40,
                "duration": 0.9818181818181819,
                "tempo": 120.0
            },
            {
                "start_time": 3.190909090909091,
                "end_time": 3.7818181818181817,
                "pitch": 59,
                "velocity": 40,
                "duration": 0.5909090909090908,
                "tempo": 120.0
            },
            {
                "start_time": 3.8,
                "end_time": 4.781818181818181,
                "pitch": 61,
                "velocity": 40,
                "duration": 0.9818181818181815,
                "tempo": 120.0
            },
            {
                "start_time": 4.797727272727273,
                "end_time": 5.184090909090909,
                "pitch": 59,
                "velocity": 40,
                "duration": 0.3863636363636358,
                "tempo": 120.0
            },
            {
                "start_time": 5.2,
                "end_time": 5.584090909090909,
                "pitch": 61,
                "velocity": 40,
                "duration": 0.3840909090909088,
                "tempo": 120.0
            },
            {
                "start_time": 5.6,
                "end_time": 5.986363636363636,
                "pitch": 64,
                "velocity": 40,
                "duration": 0.3863636363636367,
                "tempo": 120.0
            },
            {
                "start_time": 6.002272727272727,
                "end_time": 6.3954545454545455,
                "pitch": 67,
                "velocity": 40,
                "duration": 0.3931818181818185,
                "tempo": 120.0
            },
            {
                "start_time": 6.413636363636363,
                "end_time": 6.788636363636363,
                "pitch": 62,
                "velocity": 40,
                "duration": 0.375,
                "tempo": 120.0
            },
            {
                "start_time": 6.804545454545454,
                "end_time": 7.199999999999999,
                "pitch": 62,
                "velocity": 40,
                "duration": 0.3954545454545455,
                "tempo": 120.0
            },
            {
                "start_time": 7.215909090909091,
                "end_time": 7.590909090909091,
                "pitch": 62,
                "velocity": 40,
                "duration": 0.375,
                "tempo": 120.0
            },
            {
                "start_time": 7.6090909090909085,
                "end_time": 7.993181818181818,
                "pitch": 64,
                "velocity": 40,
                "duration": 0.3840909090909097,
                "tempo": 120.0
            },
            {
                "start_time": 104.72727272727272,
                "end_time": 104.8090909090909,
                "pitch": 50,
                "velocity": 40,
                "duration": 0.08181818181817846,
                "tempo": 120.0
            },
            {
                "start_time": 104.82727272727273,
                "end_time": 104.90681818181818,
                "pitch": 52,
                "velocity": 40,
                "duration": 0.07954545454545325,
                "tempo": 120.0
            },
            {
                "start_time": 105.02272727272727,
                "end_time": 105.10454545454544,
                "pitch": 54,
                "velocity": 40,
                "duration": 0.08181818181817846,
                "tempo": 120.0
            },
            {
                "start_time": 105.12045454545454,
                "end_time": 105.20454545454545,
                "pitch": 57,
                "velocity": 40,
                "duration": 0.08409090909091788,
                "tempo": 120.0
            },
            {
                "start_time": 105.32272727272726,
                "end_time": 105.71136363636363,
                "pitch": 55,
                "velocity": 40,
                "duration": 0.38863636363636545,
                "tempo": 120.0
            },
            {
                "start_time": 105.72954545454544,
                "end_time": 105.91590909090908,
                "pitch": 54,
                "velocity": 40,
                "duration": 0.1863636363636374,
                "tempo": 120.0
            },
            {
                "start_time": 105.9340909090909,
                "end_time": 106.21136363636363,
                "pitch": 64,
                "velocity": 40,
                "duration": 0.2772727272727309,
                "tempo": 120.0
            },
            {
                "start_time": 106.22727272727272,
                "end_time": 106.3090909090909,
                "pitch": 64,
                "velocity": 40,
                "duration": 0.08181818181817846,
                "tempo": 120.0
            },
            {
                "start_time": 106.53181818181818,
                "end_time": 106.61590909090908,
                "pitch": 67,
                "velocity": 40,
                "duration": 0.08409090909090366,
                "tempo": 120.0
            },
            {
                "start_time": 106.6340909090909,
                "end_time": 106.72045454545454,
                "pitch": 67,
                "velocity": 40,
                "duration": 0.08636363636364308,
                "tempo": 120.0
            },
            {
                "start_time": 107.32954545454545,
                "end_time": 107.41363636363636,
                "pitch": 67,
                "velocity": 40,
                "duration": 0.08409090909090366,
                "tempo": 120.0
            },
            {
                "start_time": 107.73181818181817,
                "end_time": 107.81590909090909,
                "pitch": 57,
                "velocity": 40,
                "duration": 0.08409090909091788,
                "tempo": 120.0
            },
            {
                "start_time": 107.8340909090909,
                "end_time": 107.91818181818181,
                "pitch": 55,
                "velocity": 40,
                "duration": 0.08409090909090366,
                "tempo": 120.0
            },
            {
                "start_time": 107.9340909090909,
                "end_time": 108.02045454545454,
                "pitch": 57,
                "velocity": 40,
                "duration": 0.08636363636364308,
                "tempo": 120.0
            },
            {
                "start_time": 108.13863636363637,
                "end_time": 108.225,
                "pitch": 54,
                "velocity": 40,
                "duration": 0.08636363636362887,
                "tempo": 120.0
            },
            {
                "start_time": 108.34545454545454,
                "end_time": 108.62272727272726,
                "pitch": 55,
                "velocity": 40,
                "duration": 0.2772727272727167,
                "tempo": 120.0
            },
            {
                "start_time": 108.63863636363637,
                "end_time": 108.925,
                "pitch": 54,
                "velocity": 40,
                "duration": 0.2863636363636317,
                "tempo": 120.0
            },
            {
                "start_time": 108.94090909090909,
                "end_time": 109.12954545454545,
                "pitch": 52,
                "velocity": 40,
                "duration": 0.1886363636363626,
                "tempo": 120.0
            },
            {
                "start_time": 109.34318181818182,
                "end_time": 109.425,
                "pitch": 57,
                "velocity": 40,
                "duration": 0.08181818181817846,
                "tempo": 120.0
            },
            {
                "start_time": 109.44090909090909,
                "end_time": 109.52272727272727,
                "pitch": 55,
                "velocity": 40,
                "duration": 0.08181818181817846,
                "tempo": 120.0
            },
            {
                "start_time": 109.53863636363636,
                "end_time": 109.625,
                "pitch": 57,
                "velocity": 40,
                "duration": 0.08636363636364308,
                "tempo": 120.0
            },
            {
                "start_time": 109.74545454545454,
                "end_time": 109.82954545454545,
                "pitch": 54,
                "velocity": 40,
                "duration": 0.08409090909091788,
                "tempo": 120.0
            },
            {
                "start_time": 109.94999999999999,
                "end_time": 110.22727272727272,
                "pitch": 55,
                "velocity": 40,
                "duration": 0.2772727272727309,
                "tempo": 120.0
            },
            {
                "start_time": 110.24318181818181,
                "end_time": 110.52954545454546,
                "pitch": 57,
                "velocity": 40,
                "duration": 0.2863636363636459,
                "tempo": 120.0
            },
            {
                "start_time": 110.54772727272727,
                "end_time": 110.73636363636363,
                "pitch": 59,
                "velocity": 40,
                "duration": 0.1886363636363626,
                "tempo": 120.0
            },
            {
                "start_time": 110.94772727272726,
                "end_time": 111.02954545454546,
                "pitch": 57,
                "velocity": 40,
                "duration": 0.08181818181819267,
                "tempo": 120.0
            },
            {
                "start_time": 111.04772727272727,
                "end_time": 111.12954545454545,
                "pitch": 55,
                "velocity": 40,
                "duration": 0.08181818181817846,
                "tempo": 120.0
            },
            {
                "start_time": 111.14545454545454,
                "end_time": 111.22954545454544,
                "pitch": 57,
                "velocity": 40,
                "duration": 0.08409090909090366,
                "tempo": 120.0
            },
            {
                "start_time": 111.35,
                "end_time": 111.43636363636364,
                "pitch": 59,
                "velocity": 40,
                "duration": 0.08636363636364308,
                "tempo": 120.0
            },
            {
                "start_time": 111.55454545454545,
                "end_time": 111.8340909090909,
                "pitch": 55,
                "velocity": 40,
                "duration": 0.2795454545454561,
                "tempo": 120.0
            },
            {
                "start_time": 111.85,
                "end_time": 112.13636363636363,
                "pitch": 54,
                "velocity": 40,
                "duration": 0.2863636363636317,
                "tempo": 120.0
            },
            {
                "start_time": 112.15227272727272,
                "end_time": 112.34090909090908,
                "pitch": 52,
                "velocity": 40,
                "duration": 0.1886363636363626,
                "tempo": 120.0
            },
            {
                "start_time": 112.55454545454545,
                "end_time": 112.63636363636363,
                "pitch": 64,
                "velocity": 40,
                "duration": 0.08181818181817846,
                "tempo": 120.0
            },
            {
                "start_time": 112.65227272727272,
                "end_time": 112.73409090909091,
                "pitch": 64,
                "velocity": 40,
                "duration": 0.08181818181819267,
                "tempo": 120.0
            },
            {
                "start_time": 112.95454545454545,
                "end_time": 113.04090909090908,
                "pitch": 67,
                "velocity": 40,
                "duration": 0.08636363636362887,
                "tempo": 120.0
            },
            {
                "start_time": 113.0590909090909,
                "end_time": 113.14318181818182,
                "pitch": 67,
                "velocity": 40,
                "duration": 0.08409090909091788,
                "tempo": 120.0
            },
            {
                "start_time": 113.35681818181817,
                "end_time": 113.43863636363636,
                "pitch": 69,
                "velocity": 40,
                "duration": 0.08181818181819267,
                "tempo": 120.0
            },
            {
                "start_time": 113.45454545454545,
                "end_time": 113.53636363636363,
                "pitch": 69,
                "velocity": 40,
                "duration": 0.08181818181817846,
                "tempo": 120.0
            },
            {
                "start_time": 114.1590909090909,
                "end_time": 114.24090909090908,
                "pitch": 67,
                "velocity": 40,
                "duration": 0.08181818181817846,
                "tempo": 120.0
            },
            {
                "start_time": 114.25681818181818,
                "end_time": 114.33863636363635,
                "pitch": 67,
                "velocity": 40,
                "duration": 0.08181818181817846,
                "tempo": 120.0
            },
            {
                "start_time": 114.35454545454544,
                "end_time": 114.44090909090909,
                "pitch": 60,
                "velocity": 40,
                "duration": 0.08636363636364308,
                "tempo": 120.0
            },
            {
                "start_time": 114.45681818181818,
                "end_time": 114.54318181818181,
                "pitch": 59,
                "velocity": 40,
                "duration": 0.08636363636362887,
                "tempo": 120.0
            },
            {
                "start_time": 114.56136363636364,
                "end_time": 114.64545454545454,
                "pitch": 55,
                "velocity": 40,
                "duration": 0.08409090909090366,
                "tempo": 120.0
            },
            {
                "start_time": 114.66363636363636,
                "end_time": 114.75,
                "pitch": 57,
                "velocity": 40,
                "duration": 0.08636363636364308,
                "tempo": 120.0
            },
            {
                "start_time": 114.96136363636363,
                "end_time": 115.14090909090909,
                "pitch": 60,
                "velocity": 40,
                "duration": 0.17954545454546178,
                "tempo": 120.0
            },
            {
                "start_time": 115.1590909090909,
                "end_time": 115.24090909090908,
                "pitch": 60,
                "velocity": 40,
                "duration": 0.08181818181817846,
                "tempo": 120.0
            },
            {
                "start_time": 115.2590909090909,
                "end_time": 115.34318181818182,
                "pitch": 59,
                "velocity": 40,
                "duration": 0.08409090909091788,
                "tempo": 120.0
            },
            {
                "start_time": 115.35909090909091,
                "end_time": 115.44318181818181,
                "pitch": 67,
                "velocity": 40,
                "duration": 0.08409090909090366,
                "tempo": 120.0
            },
            {
                "start_time": 115.4590909090909,
                "end_time": 115.54318181818181,
                "pitch": 57,
                "velocity": 40,
                "duration": 0.08409090909090366,
                "tempo": 120.0
            },
            {
                "start_time": 115.56136363636364,
                "end_time": 115.84545454545454,
                "pitch": 50,
                "velocity": 40,
                "duration": 0.2840909090909065,
                "tempo": 120.0
            },
            {
                "start_time": 115.86363636363636,
                "end_time": 116.15227272727272,
                "pitch": 52,
                "velocity": 40,
                "duration": 0.2886363636363569,
                "tempo": 120.0
            },
            {
                "start_time": 116.16818181818181,
                "end_time": 116.35681818181817,
                "pitch": 54,
                "velocity": 40,
                "duration": 0.1886363636363626,
                "tempo": 120.0
            },
            {
                "start_time": 116.375,
                "end_time": 116.65227272727272,
                "pitch": 55,
                "velocity": 40,
                "duration": 0.2772727272727167,
                "tempo": 120.0
            },
            {
                "start_time": 116.66818181818181,
                "end_time": 116.75,
                "pitch": 54,
                "velocity": 40,
                "duration": 0.08181818181819267,
                "tempo": 120.0
            },
            {
                "start_time": 116.97045454545454,
                "end_time": 117.05681818181817,
                "pitch": 66,
                "velocity": 40,
                "duration": 0.08636363636362887,
                "tempo": 120.0
            },
            {
                "start_time": 117.07499999999999,
                "end_time": 117.1590909090909,
                "pitch": 66,
                "velocity": 40,
                "duration": 0.08409090909091788,
                "tempo": 120.0
            }
        ],
        "Clarinet": [
            {
                "start_time": 17.85909090909091,
                "end_time": 18.043181818181818,
                "pitch": 72,
                "velocity": 40,
                "duration": 0.18409090909090864,
                "tempo": 120.0
            },
            {
                "start_time": 18.05909090909091,
                "end_time": 18.24772727272727,
                "pitch": 72,
                "velocity": 40,
                "duration": 0.1886363636363626,
                "tempo": 120.0
            },
            {
                "start_time": 18.26590909090909,
                "end_time": 18.454545454545453,
                "pitch": 72,
                "velocity": 40,
                "duration": 0.1886363636363626,
                "tempo": 120.0
            },
            {
                "start_time": 18.470454545454544,
                "end_time": 18.65,
                "pitch": 72,
                "velocity": 40,
                "duration": 0.17954545454545467,
                "tempo": 120.0
            },
            {
                "start_time": 18.66590909090909,
                "end_time": 18.845454545454544,
                "pitch": 72,
                "velocity": 40,
                "duration": 0.17954545454545467,
                "tempo": 120.0
            },
            {
                "start_time": 18.863636363636363,
                "end_time": 19.05,
                "pitch": 72,
                "velocity": 40,
                "duration": 0.1863636363636374,
                "tempo": 120.0
            },
            {
                "start_time": 19.068181818181817,
                "end_time": 20.861363636363635,
                "pitch": 74,
                "velocity": 40,
                "duration": 1.793181818181818,
                "tempo": 120.0
            },
            {
                "start_time": 30.7,
                "end_time": 30.884090909090908,
                "pitch": 72,
                "velocity": 40,
                "duration": 0.18409090909090864,
                "tempo": 120.0
            },
            {
                "start_time": 30.9,
                "end_time": 31.08863636363636,
                "pitch": 72,
                "velocity": 40,
                "duration": 0.1886363636363626,
                "tempo": 120.0
            },
            {
                "start_time": 31.10681818181818,
                "end_time": 31.295454545454543,
                "pitch": 72,
                "velocity": 40,
                "duration": 0.1886363636363626,
                "tempo": 120.0
            },
            {
                "start_time": 31.311363636363634,
                "end_time": 31.49090909090909,
                "pitch": 72,
                "velocity": 40,
                "duration": 0.17954545454545467,
                "tempo": 120.0
            },
            {
                "start_time": 31.50681818181818,
                "end_time": 31.686363636363634,
                "pitch": 72,
                "velocity": 40,
                "duration": 0.17954545454545467,
                "tempo": 120.0
            },
            {
                "start_time": 31.704545454545453,
                "end_time": 31.89090909090909,
                "pitch": 72,
                "velocity": 40,
                "duration": 0.1863636363636374,
                "tempo": 120.0
            },
            {
                "start_time": 31.909090909090907,
                "end_time": 33.70227272727273,
                "pitch": 74,
                "velocity": 40,
                "duration": 1.7931818181818215,
                "tempo": 120.0
            },
            {
                "start_time": 34.12272727272727,
                "end_time": 34.30227272727272,
                "pitch": 74,
                "velocity": 40,
                "duration": 0.17954545454545467,
                "tempo": 120.0
            },
            {
                "start_time": 34.31818181818181,
                "end_time": 34.49772727272727,
                "pitch": 74,
                "velocity": 40,
                "duration": 0.17954545454545467,
                "tempo": 120.0
            },
            {
                "start_time": 34.51590909090909,
                "end_time": 34.9,
                "pitch": 74,
                "velocity": 40,
                "duration": 0.38409090909090793,
                "tempo": 120.0
            },
            {
                "start_time": 34.918181818181814,
                "end_time": 35.3,
                "pitch": 74,
                "velocity": 40,
                "duration": 0.3818181818181827,
                "tempo": 120.0
            },
            {
                "start_time": 35.31818181818181,
                "end_time": 35.699999999999996,
                "pitch": 74,
                "velocity": 40,
                "duration": 0.3818181818181827,
                "tempo": 120.0
            },
            {
                "start_time": 35.71818181818182,
                "end_time": 36.1,
                "pitch": 74,
                "velocity": 40,
                "duration": 0.3818181818181827,
                "tempo": 120.0
            },
            {
                "start_time": 36.11818181818182,
                "end_time": 36.5,
                "pitch": 71,
                "velocity": 40,
                "duration": 0.3818181818181827,
                "tempo": 120.0
            },
            {
                "start_time": 36.518181818181816,
                "end_time": 36.70227272727273,
                "pitch": 74,
                "velocity": 40,
                "duration": 0.1840909090909122,
                "tempo": 120.0
            },
            {
                "start_time": 36.71818181818182,
                "end_time": 37.70454545454545,
                "pitch": 67,
                "velocity": 40,
                "duration": 0.9863636363636346,
                "tempo": 120.0
            },
            {
                "start_time": 37.720454545454544,
                "end_time": 37.904545454545456,
                "pitch": 71,
                "velocity": 40,
                "duration": 0.1840909090909122,
                "tempo": 120.0
            },
            {
                "start_time": 37.92045454545455,
                "end_time": 38.10454545454545,
                "pitch": 71,
                "velocity": 40,
                "duration": 0.18409090909090509,
                "tempo": 120.0
            },
            {
                "start_time": 38.12045454545454,
                "end_time": 38.304545454545455,
                "pitch": 69,
                "velocity": 40,
                "duration": 0.1840909090909122,
                "tempo": 120.0
            },
            {
                "start_time": 38.320454545454545,
                "end_time": 38.50454545454545,
                "pitch": 71,
                "velocity": 40,
                "duration": 0.18409090909090509,
                "tempo": 120.0
            },
            {
                "start_time": 38.92272727272727,
                "end_time": 39.10681818181818,
                "pitch": 66,
                "velocity": 40,
                "duration": 0.18409090909090509,
                "tempo": 120.0
            },
            {
                "start_time": 39.32272727272727,
                "end_time": 39.50681818181818,
                "pitch": 66,
                "velocity": 40,
                "duration": 0.1840909090909122,
                "tempo": 120.0
            },
            {
                "start_time": 39.72272727272727,
                "end_time": 39.90681818181818,
                "pitch": 69,
                "velocity": 40,
                "duration": 0.1840909090909122,
                "tempo": 120.0
            },
            {
                "start_time": 39.92272727272727,
                "end_time": 40.10681818181818,
                "pitch": 71,
                "velocity": 40,
                "duration": 0.18409090909090509,
                "tempo": 120.0
            },
            {
                "start_time": 40.52272727272727,
                "end_time": 40.90909090909091,
                "pitch": 74,
                "velocity": 40,
                "duration": 0.38636363636363313,
                "tempo": 120.0
            },
            {
                "start_time": 40.925,
                "end_time": 41.309090909090905,
                "pitch": 74,
                "velocity": 40,
                "duration": 0.38409090909090793,
                "tempo": 120.0
            },
            {
                "start_time": 41.324999999999996,
                "end_time": 41.50909090909091,
                "pitch": 74,
                "velocity": 40,
                "duration": 0.1840909090909122,
                "tempo": 120.0
            },
            {
                "start_time": 41.525,
                "end_time": 42.10909090909091,
                "pitch": 71,
                "velocity": 40,
                "duration": 0.5840909090909108,
                "tempo": 120.0
            },
            {
                "start_time": 42.125,
                "end_time": 42.50909090909091,
                "pitch": 74,
                "velocity": 40,
                "duration": 0.38409090909090793,
                "tempo": 120.0
            },
            {
                "start_time": 42.525,
                "end_time": 42.91136363636363,
                "pitch": 71,
                "velocity": 40,
                "duration": 0.38636363636363313,
                "tempo": 120.0
            },
            {
                "start_time": 42.92727272727272,
                "end_time": 43.111363636363635,
                "pitch": 71,
                "velocity": 40,
                "duration": 0.1840909090909122,
                "tempo": 120.0
            },
            {
                "start_time": 43.127272727272725,
                "end_time": 44.913636363636364,
                "pitch": 67,
                "velocity": 40,
                "duration": 1.7863636363636388,
                "tempo": 120.0
            },
            {
                "start_time": 45.33181818181818,
                "end_time": 45.51363636363636,
                "pitch": 66,
                "velocity": 40,
                "duration": 0.18181818181817988,
                "tempo": 120.0
            },
            {
                "start_time": 45.73181818181818,
                "end_time": 45.913636363636364,
                "pitch": 66,
                "velocity": 40,
                "duration": 0.18181818181818699,
                "tempo": 120.0
            },
            {
                "start_time": 46.13181818181818,
                "end_time": 46.31818181818181,
                "pitch": 74,
                "velocity": 40,
                "duration": 0.1863636363636303,
                "tempo": 120.0
            },
            {
                "start_time": 46.336363636363636,
                "end_time": 46.525,
                "pitch": 74,
                "velocity": 40,
                "duration": 0.1886363636363626,
                "tempo": 120.0
            },
            {
                "start_time": 59.36818181818182,
                "end_time": 59.75,
                "pitch": 76,
                "velocity": 40,
                "duration": 0.3818181818181827,
                "tempo": 120.0
            },
            {
                "start_time": 59.768181818181816,
                "end_time": 59.85227272727273,
                "pitch": 76,
                "velocity": 40,
                "duration": 0.08409090909091077,
                "tempo": 120.0
            },
            {
                "start_time": 59.96818181818182,
                "end_time": 60.349999999999994,
                "pitch": 76,
                "velocity": 40,
                "duration": 0.3818181818181756,
                "tempo": 120.0
            },
            {
                "start_time": 60.365909090909085,
                "end_time": 60.54545454545454,
                "pitch": 76,
                "velocity": 40,
                "duration": 0.17954545454545467,
                "tempo": 120.0
            },
            {
                "start_time": 60.56136363636363,
                "end_time": 60.75,
                "pitch": 73,
                "velocity": 40,
                "duration": 0.1886363636363697,
                "tempo": 120.0
            },
            {
                "start_time": 60.768181818181816,
                "end_time": 60.95454545454545,
                "pitch": 69,
                "velocity": 40,
                "duration": 0.1863636363636374,
                "tempo": 120.0
            },
            {
                "start_time": 60.97272727272727,
                "end_time": 61.34772727272727,
                "pitch": 76,
                "velocity": 40,
                "duration": 0.375,
                "tempo": 120.0
            },
            {
                "start_time": 61.36363636363636,
                "end_time": 61.449999999999996,
                "pitch": 76,
                "velocity": 40,
                "duration": 0.08636363636363598,
                "tempo": 120.0
            },
            {
                "start_time": 61.570454545454545,
                "end_time": 61.95454545454545,
                "pitch": 76,
                "velocity": 40,
                "duration": 0.38409090909090793,
                "tempo": 120.0
            },
            {
                "start_time": 61.970454545454544,
                "end_time": 62.15,
                "pitch": 76,
                "velocity": 40,
                "duration": 0.17954545454545467,
                "tempo": 120.0
            },
            {
                "start_time": 62.168181818181814,
                "end_time": 62.35454545454545,
                "pitch": 76,
                "velocity": 40,
                "duration": 0.1863636363636374,
                "tempo": 120.0
            },
            {
                "start_time": 62.37272727272727,
                "end_time": 62.56136363636363,
                "pitch": 76,
                "velocity": 40,
                "duration": 0.1886363636363626,
                "tempo": 120.0
            },
            {
                "start_time": 62.57727272727272,
                "end_time": 62.95454545454545,
                "pitch": 74,
                "velocity": 40,
                "duration": 0.3772727272727323,
                "tempo": 120.0
            },
            {
                "start_time": 62.970454545454544,
                "end_time": 63.054545454545455,
                "pitch": 74,
                "velocity": 40,
                "duration": 0.08409090909091077,
                "tempo": 120.0
            },
            {
                "start_time": 63.175,
                "end_time": 63.559090909090905,
                "pitch": 74,
                "velocity": 40,
                "duration": 0.38409090909090793,
                "tempo": 120.0
            },
            {
                "start_time": 63.57727272727272,
                "end_time": 63.756818181818176,
                "pitch": 74,
                "velocity": 40,
                "duration": 0.17954545454545467,
                "tempo": 120.0
            },
            {
                "start_time": 63.772727272727266,
                "end_time": 63.961363636363636,
                "pitch": 74,
                "velocity": 40,
                "duration": 0.1886363636363697,
                "tempo": 120.0
            },
            {
                "start_time": 63.97727272727273,
                "end_time": 64.16590909090908,
                "pitch": 73,
                "velocity": 40,
                "duration": 0.1886363636363555,
                "tempo": 120.0
            },
            {
                "start_time": 64.18409090909091,
                "end_time": 64.46136363636363,
                "pitch": 74,
                "velocity": 40,
                "duration": 0.2772727272727167,
                "tempo": 120.0
            },
            {
                "start_time": 64.47727272727272,
                "end_time": 64.7590909090909,
                "pitch": 74,
                "velocity": 40,
                "duration": 0.2818181818181813,
                "tempo": 120.0
            },
            {
                "start_time": 64.77499999999999,
                "end_time": 65.77272727272727,
                "pitch": 78,
                "velocity": 40,
                "duration": 0.9977272727272748,
                "tempo": 120.0
            },
            {
                "start_time": 88.4659090909091,
                "end_time": 88.64545454545454,
                "pitch": 72,
                "velocity": 40,
                "duration": 0.17954545454544757,
                "tempo": 120.0
            },
            {
                "start_time": 88.66363636363636,
                "end_time": 88.85,
                "pitch": 72,
                "velocity": 40,
                "duration": 0.1863636363636374,
                "tempo": 120.0
            },
            {
                "start_time": 88.86818181818181,
                "end_time": 89.05681818181817,
                "pitch": 72,
                "velocity": 40,
                "duration": 0.1886363636363626,
                "tempo": 120.0
            },
            {
                "start_time": 89.07272727272726,
                "end_time": 89.25227272727273,
                "pitch": 72,
                "velocity": 40,
                "duration": 0.17954545454546178,
                "tempo": 120.0
            },
            {
                "start_time": 89.27045454545454,
                "end_time": 89.44999999999999,
                "pitch": 72,
                "velocity": 40,
                "duration": 0.17954545454544757,
                "tempo": 120.0
            },
            {
                "start_time": 89.4659090909091,
                "end_time": 89.65454545454546,
                "pitch": 72,
                "velocity": 40,
                "duration": 0.1886363636363626,
                "tempo": 120.0
            },
            {
                "start_time": 89.67045454545455,
                "end_time": 91.46363636363635,
                "pitch": 74,
                "velocity": 40,
                "duration": 1.7931818181818073,
                "tempo": 120.0
            },
            {
                "start_time": 91.68181818181817,
                "end_time": 91.86590909090908,
                "pitch": 78,
                "velocity": 40,
                "duration": 0.1840909090909122,
                "tempo": 120.0
            },
            {
                "start_time": 91.88181818181818,
                "end_time": 92.06136363636364,
                "pitch": 78,
                "velocity": 40,
                "duration": 0.17954545454546178,
                "tempo": 120.0
            },
            {
                "start_time": 92.07727272727273,
                "end_time": 92.25681818181818,
                "pitch": 78,
                "velocity": 40,
                "duration": 0.17954545454544757,
                "tempo": 120.0
            },
            {
                "start_time": 92.27499999999999,
                "end_time": 92.5590909090909,
                "pitch": 78,
                "velocity": 40,
                "duration": 0.2840909090909065,
                "tempo": 120.0
            },
            {
                "start_time": 92.57499999999999,
                "end_time": 92.6590909090909,
                "pitch": 78,
                "velocity": 40,
                "duration": 0.08409090909091788,
                "tempo": 120.0
            },
            {
                "start_time": 92.67727272727272,
                "end_time": 92.76136363636363,
                "pitch": 79,
                "velocity": 40,
                "duration": 0.08409090909090366,
                "tempo": 120.0
            },
            {
                "start_time": 92.77954545454546,
                "end_time": 92.86590909090908,
                "pitch": 81,
                "velocity": 40,
                "duration": 0.08636363636362887,
                "tempo": 120.0
            },
            {
                "start_time": 92.88181818181818,
                "end_time": 92.96818181818182,
                "pitch": 79,
                "velocity": 40,
                "duration": 0.08636363636364308,
                "tempo": 120.0
            },
            {
                "start_time": 92.98409090909091,
                "end_time": 93.07045454545454,
                "pitch": 78,
                "velocity": 40,
                "duration": 0.08636363636362887,
                "tempo": 120.0
            },
            {
                "start_time": 93.08636363636363,
                "end_time": 93.66363636363636,
                "pitch": 81,
                "velocity": 40,
                "duration": 0.577272727272728,
                "tempo": 120.0
            },
            {
                "start_time": 93.68181818181817,
                "end_time": 93.86590909090908,
                "pitch": 79,
                "velocity": 40,
                "duration": 0.1840909090909122,
                "tempo": 120.0
            },
            {
                "start_time": 93.88181818181818,
                "end_time": 94.26590909090909,
                "pitch": 78,
                "velocity": 40,
                "duration": 0.38409090909091503,
                "tempo": 120.0
            },
            {
                "start_time": 94.28181818181818,
                "end_time": 94.675,
                "pitch": 76,
                "velocity": 40,
                "duration": 0.39318181818181586,
                "tempo": 120.0
            },
            {
                "start_time": 94.88863636363637,
                "end_time": 95.06818181818181,
                "pitch": 74,
                "velocity": 40,
                "duration": 0.17954545454544757,
                "tempo": 120.0
            },
            {
                "start_time": 95.0840909090909,
                "end_time": 95.27272727272727,
                "pitch": 74,
                "velocity": 40,
                "duration": 0.1886363636363626,
                "tempo": 120.0
            },
            {
                "start_time": 95.29090909090908,
                "end_time": 95.47954545454544,
                "pitch": 74,
                "velocity": 40,
                "duration": 0.1886363636363626,
                "tempo": 120.0
            },
            {
                "start_time": 95.49545454545454,
                "end_time": 95.77272727272727,
                "pitch": 74,
                "velocity": 40,
                "duration": 0.2772727272727309,
                "tempo": 120.0
            },
            {
                "start_time": 95.78863636363636,
                "end_time": 95.87045454545454,
                "pitch": 74,
                "velocity": 40,
                "duration": 0.08181818181817846,
                "tempo": 120.0
            },
            {
                "start_time": 95.88863636363637,
                "end_time": 95.97272727272727,
                "pitch": 79,
                "velocity": 40,
                "duration": 0.08409090909090366,
                "tempo": 120.0
            },
            {
                "start_time": 95.99090909090908,
                "end_time": 96.07499999999999,
                "pitch": 78,
                "velocity": 40,
                "duration": 0.08409090909090366,
                "tempo": 120.0
            },
            {
                "start_time": 96.09318181818182,
                "end_time": 96.17954545454545,
                "pitch": 76,
                "velocity": 40,
                "duration": 0.08636363636362887,
                "tempo": 120.0
            },
            {
                "start_time": 96.19545454545454,
                "end_time": 96.28181818181818,
                "pitch": 74,
                "velocity": 40,
                "duration": 0.08636363636364308,
                "tempo": 120.0
            },
            {
                "start_time": 96.29772727272727,
                "end_time": 96.87272727272727,
                "pitch": 78,
                "velocity": 40,
                "duration": 0.5750000000000028,
                "tempo": 120.0
            },
            {
                "start_time": 96.89090909090909,
                "end_time": 97.07272727272726,
                "pitch": 79,
                "velocity": 40,
                "duration": 0.18181818181817277,
                "tempo": 120.0
            },
            {
                "start_time": 97.09090909090908,
                "end_time": 97.47727272727272,
                "pitch": 76,
                "velocity": 40,
                "duration": 0.38636363636364024,
                "tempo": 120.0
            },
            {
                "start_time": 97.49318181818181,
                "end_time": 97.88636363636363,
                "pitch": 74,
                "velocity": 40,
                "duration": 0.39318181818181586,
                "tempo": 120.0
            },
            {
                "start_time": 97.90454545454546,
                "end_time": 97.98636363636363,
                "pitch": 79,
                "velocity": 40,
                "duration": 0.08181818181817846,
                "tempo": 120.0
            },
            {
                "start_time": 98.00227272727273,
                "end_time": 98.0840909090909,
                "pitch": 78,
                "velocity": 40,
                "duration": 0.08181818181817846,
                "tempo": 120.0
            },
            {
                "start_time": 98.1,
                "end_time": 98.18181818181817,
                "pitch": 76,
                "velocity": 40,
                "duration": 0.08181818181817846,
                "tempo": 120.0
            },
            {
                "start_time": 98.19772727272726,
                "end_time": 98.27954545454546,
                "pitch": 78,
                "velocity": 40,
                "duration": 0.08181818181819267,
                "tempo": 120.0
            },
            {
                "start_time": 98.29545454545455,
                "end_time": 98.38181818181818,
                "pitch": 81,
                "velocity": 40,
                "duration": 0.08636363636362887,
                "tempo": 120.0
            },
            {
                "start_time": 98.39772727272727,
                "end_time": 98.48409090909091,
                "pitch": 78,
                "velocity": 40,
                "duration": 0.08636363636364308,
                "tempo": 120.0
            },
            {
                "start_time": 98.5,
                "end_time": 98.58636363636363,
                "pitch": 76,
                "velocity": 40,
                "duration": 0.08636363636362887,
                "tempo": 120.0
            },
            {
                "start_time": 98.60454545454544,
                "end_time": 98.68863636363636,
                "pitch": 78,
                "velocity": 40,
                "duration": 0.08409090909091788,
                "tempo": 120.0
            },
            {
                "start_time": 98.70681818181818,
                "end_time": 98.78863636363636,
                "pitch": 79,
                "velocity": 40,
                "duration": 0.08181818181817846,
                "tempo": 120.0
            },
            {
                "start_time": 98.80454545454545,
                "end_time": 98.88636363636363,
                "pitch": 78,
                "velocity": 40,
                "duration": 0.08181818181817846,
                "tempo": 120.0
            },
            {
                "start_time": 98.90227272727272,
                "end_time": 98.98409090909091,
                "pitch": 76,
                "velocity": 40,
                "duration": 0.08181818181819267,
                "tempo": 120.0
            },
            {
                "start_time": 99.0,
                "end_time": 99.08181818181818,
                "pitch": 78,
                "velocity": 40,
                "duration": 0.08181818181817846,
                "tempo": 120.0
            },
            {
                "start_time": 99.09772727272727,
                "end_time": 99.28636363636363,
                "pitch": 79,
                "velocity": 40,
                "duration": 0.1886363636363626,
                "tempo": 120.0
            },
            {
                "start_time": 99.30454545454545,
                "end_time": 99.49318181818181,
                "pitch": 81,
                "velocity": 40,
                "duration": 0.1886363636363626,
                "tempo": 120.0
            },
            {
                "start_time": 99.5090909090909,
                "end_time": 99.59090909090908,
                "pitch": 81,
                "velocity": 40,
                "duration": 0.08181818181817846,
                "tempo": 120.0
            },
            {
                "start_time": 99.60681818181817,
                "end_time": 99.68863636363636,
                "pitch": 79,
                "velocity": 40,
                "duration": 0.08181818181819267,
                "tempo": 120.0
            },
            {
                "start_time": 99.70454545454545,
                "end_time": 99.78636363636363,
                "pitch": 78,
                "velocity": 40,
                "duration": 0.08181818181817846,
                "tempo": 120.0
            },
            {
                "start_time": 99.80227272727272,
                "end_time": 99.8840909090909,
                "pitch": 79,
                "velocity": 40,
                "duration": 0.08181818181817846,
                "tempo": 120.0
            },
            {
                "start_time": 99.90227272727272,
                "end_time": 99.98636363636363,
                "pitch": 81,
                "velocity": 40,
                "duration": 0.08409090909091788,
                "tempo": 120.0
            },
            {
                "start_time": 100.00454545454545,
                "end_time": 100.08863636363635,
                "pitch": 79,
                "velocity": 40,
                "duration": 0.08409090909090366,
                "tempo": 120.0
            },
            {
                "start_time": 100.10681818181817,
                "end_time": 100.19090909090909,
                "pitch": 78,
                "velocity": 40,
                "duration": 0.08409090909091788,
                "tempo": 120.0
            },
            {
                "start_time": 100.2090909090909,
                "end_time": 100.29545454545455,
                "pitch": 79,
                "velocity": 40,
                "duration": 0.08636363636364308,
                "tempo": 120.0
            },
            {
                "start_time": 100.31136363636364,
                "end_time": 100.39318181818182,
                "pitch": 81,
                "velocity": 40,
                "duration": 0.08181818181817846,
                "tempo": 120.0
            },
            {
                "start_time": 100.4090909090909,
                "end_time": 100.49090909090908,
                "pitch": 79,
                "velocity": 40,
                "duration": 0.08181818181817846,
                "tempo": 120.0
            },
            {
                "start_time": 100.50681818181818,
                "end_time": 100.58863636363635,
                "pitch": 78,
                "velocity": 40,
                "duration": 0.08181818181817846,
                "tempo": 120.0
            },
            {
                "start_time": 100.60681818181817,
                "end_time": 100.68636363636364,
                "pitch": 79,
                "velocity": 40,
                "duration": 0.07954545454546746,
                "tempo": 120.0
            },
            {
                "start_time": 100.70454545454545,
                "end_time": 100.89090909090909,
                "pitch": 81,
                "velocity": 40,
                "duration": 0.1863636363636374,
                "tempo": 120.0
            },
            {
                "start_time": 100.9090909090909,
                "end_time": 101.09772727272727,
                "pitch": 83,
                "velocity": 40,
                "duration": 0.1886363636363626,
                "tempo": 120.0
            },
            {
                "start_time": 101.31136363636364,
                "end_time": 101.49090909090908,
                "pitch": 81,
                "velocity": 40,
                "duration": 0.17954545454544757,
                "tempo": 120.0
            },
            {
                "start_time": 101.50681818181818,
                "end_time": 101.69545454545454,
                "pitch": 79,
                "velocity": 40,
                "duration": 0.1886363636363626,
                "tempo": 120.0
            },
            {
                "start_time": 101.71136363636363,
                "end_time": 101.89999999999999,
                "pitch": 78,
                "velocity": 40,
                "duration": 0.1886363636363626,
                "tempo": 120.0
            },
            {
                "start_time": 101.91590909090908,
                "end_time": 102.09772727272727,
                "pitch": 79,
                "velocity": 40,
                "duration": 0.18181818181818699,
                "tempo": 120.0
            },
            {
                "start_time": 102.11363636363636,
                "end_time": 102.29318181818181,
                "pitch": 78,
                "velocity": 40,
                "duration": 0.17954545454544757,
                "tempo": 120.0
            },
            {
                "start_time": 102.3090909090909,
                "end_time": 102.49318181818181,
                "pitch": 79,
                "velocity": 40,
                "duration": 0.1840909090909122,
                "tempo": 120.0
            },
            {
                "start_time": 102.51136363636363,
                "end_time": 104.31136363636364,
                "pitch": 81,
                "velocity": 40,
                "duration": 1.8000000000000114,
                "tempo": 120.0
            },
            {
                "start_time": 127.01136363636363,
                "end_time": 127.19090909090909,
                "pitch": 72,
                "velocity": 40,
                "duration": 0.17954545454546178,
                "tempo": 120.0
            },
            {
                "start_time": 127.20681818181818,
                "end_time": 127.39545454545454,
                "pitch": 72,
                "velocity": 40,
                "duration": 0.1886363636363626,
                "tempo": 120.0
            },
            {
                "start_time": 127.41363636363636,
                "end_time": 127.6,
                "pitch": 72,
                "velocity": 40,
                "duration": 0.1863636363636374,
                "tempo": 120.0
            },
            {
                "start_time": 127.61818181818181,
                "end_time": 127.79772727272727,
                "pitch": 72,
                "velocity": 40,
                "duration": 0.17954545454546178,
                "tempo": 120.0
            },
            {
                "start_time": 127.81363636363636,
                "end_time": 127.99318181818181,
                "pitch": 72,
                "velocity": 40,
                "duration": 0.17954545454544757,
                "tempo": 120.0
            },
            {
                "start_time": 128.0090909090909,
                "end_time": 128.19772727272726,
                "pitch": 72,
                "velocity": 40,
                "duration": 0.1886363636363626,
                "tempo": 120.0
            },
            {
                "start_time": 128.2159090909091,
                "end_time": 130.0090909090909,
                "pitch": 74,
                "velocity": 40,
                "duration": 1.7931818181818073,
                "tempo": 120.0
            },
            {
                "start_time": 139.86818181818182,
                "end_time": 140.04772727272726,
                "pitch": 72,
                "velocity": 40,
                "duration": 0.17954545454543336,
                "tempo": 120.0
            },
            {
                "start_time": 140.06363636363636,
                "end_time": 140.25227272727273,
                "pitch": 72,
                "velocity": 40,
                "duration": 0.1886363636363626,
                "tempo": 120.0
            },
            {
                "start_time": 140.27045454545453,
                "end_time": 140.45681818181816,
                "pitch": 72,
                "velocity": 40,
                "duration": 0.1863636363636374,
                "tempo": 120.0
            },
            {
                "start_time": 140.475,
                "end_time": 140.65454545454546,
                "pitch": 72,
                "velocity": 40,
                "duration": 0.17954545454546178,
                "tempo": 120.0
            },
            {
                "start_time": 140.67045454545453,
                "end_time": 140.85,
                "pitch": 72,
                "velocity": 40,
                "duration": 0.17954545454546178,
                "tempo": 120.0
            },
            {
                "start_time": 140.86818181818182,
                "end_time": 141.05454545454546,
                "pitch": 72,
                "velocity": 40,
                "duration": 0.1863636363636374,
                "tempo": 120.0
            },
            {
                "start_time": 141.07272727272726,
                "end_time": 142.86818181818182,
                "pitch": 74,
                "velocity": 40,
                "duration": 1.795454545454561,
                "tempo": 120.0
            }
        ],
        "Acoustic Bass": [
            {
                "start_time": 0.7863636363636364,
                "end_time": 0.9704545454545455,
                "pitch": 33,
                "velocity": 40,
                "duration": 0.18409090909090908,
                "tempo": 120.0
            },
            {
                "start_time": 0.9863636363636363,
                "end_time": 1.1704545454545454,
                "pitch": 38,
                "velocity": 40,
                "duration": 0.18409090909090908,
                "tempo": 120.0
            },
            {
                "start_time": 1.1863636363636363,
                "end_time": 1.3704545454545454,
                "pitch": 31,
                "velocity": 40,
                "duration": 0.18409090909090908,
                "tempo": 120.0
            },
            {
                "start_time": 1.3863636363636362,
                "end_time": 1.5704545454545453,
                "pitch": 38,
                "velocity": 40,
                "duration": 0.18409090909090908,
                "tempo": 120.0
            },
            {
                "start_time": 1.5863636363636362,
                "end_time": 1.7704545454545453,
                "pitch": 38,
                "velocity": 40,
                "duration": 0.18409090909090908,
                "tempo": 120.0
            },
            {
                "start_time": 1.7886363636363636,
                "end_time": 1.9727272727272727,
                "pitch": 38,
                "velocity": 40,
                "duration": 0.18409090909090908,
                "tempo": 120.0
            },
            {
                "start_time": 1.9886363636363635,
                "end_time": 2.1772727272727272,
                "pitch": 38,
                "velocity": 40,
                "duration": 0.1886363636363637,
                "tempo": 120.0
            },
            {
                "start_time": 2.193181818181818,
                "end_time": 2.381818181818182,
                "pitch": 33,
                "velocity": 40,
                "duration": 0.18863636363636394,
                "tempo": 120.0
            },
            {
                "start_time": 2.4,
                "end_time": 2.9749999999999996,
                "pitch": 33,
                "velocity": 40,
                "duration": 0.5749999999999997,
                "tempo": 120.0
            },
            {
                "start_time": 2.9909090909090907,
                "end_time": 3.175,
                "pitch": 33,
                "velocity": 40,
                "duration": 0.18409090909090908,
                "tempo": 120.0
            },
            {
                "start_time": 3.190909090909091,
                "end_time": 3.377272727272727,
                "pitch": 31,
                "velocity": 40,
                "duration": 0.18636363636363606,
                "tempo": 120.0
            },
            {
                "start_time": 3.393181818181818,
                "end_time": 3.577272727272727,
                "pitch": 31,
                "velocity": 40,
                "duration": 0.18409090909090908,
                "tempo": 120.0
            },
            {
                "start_time": 3.5954545454545452,
                "end_time": 3.7818181818181817,
                "pitch": 31,
                "velocity": 40,
                "duration": 0.1863636363636365,
                "tempo": 120.0
            },
            {
                "start_time": 3.8,
                "end_time": 3.9886363636363633,
                "pitch": 33,
                "velocity": 40,
                "duration": 0.1886363636363635,
                "tempo": 120.0
            },
            {
                "start_time": 4.004545454545454,
                "end_time": 4.581818181818182,
                "pitch": 33,
                "velocity": 40,
                "duration": 0.577272727272728,
                "tempo": 120.0
            },
            {
                "start_time": 4.597727272727273,
                "end_time": 4.781818181818181,
                "pitch": 33,
                "velocity": 40,
                "duration": 0.18409090909090864,
                "tempo": 120.0
            },
            {
                "start_time": 4.797727272727273,
                "end_time": 5.184090909090909,
                "pitch": 31,
                "velocity": 40,
                "duration": 0.3863636363636358,
                "tempo": 120.0
            },
            {
                "start_time": 5.2,
                "end_time": 5.584090909090909,
                "pitch": 33,
                "velocity": 40,
                "duration": 0.3840909090909088,
                "tempo": 120.0
            },
            {
                "start_time": 5.6,
                "end_time": 5.986363636363636,
                "pitch": 36,
                "velocity": 40,
                "duration": 0.3863636363636367,
                "tempo": 120.0
            },
            {
                "start_time": 6.002272727272727,
                "end_time": 6.3954545454545455,
                "pitch": 31,
                "velocity": 40,
                "duration": 0.3931818181818185,
                "tempo": 120.0
            },
            {
                "start_time": 6.413636363636363,
                "end_time": 6.788636363636363,
                "pitch": 38,
                "velocity": 40,
                "duration": 0.375,
                "tempo": 120.0
            },
            {
                "start_time": 6.804545454545454,
                "end_time": 7.199999999999999,
                "pitch": 38,
                "velocity": 40,
                "duration": 0.3954545454545455,
                "tempo": 120.0
            },
            {
                "start_time": 7.215909090909091,
                "end_time": 7.590909090909091,
                "pitch": 31,
                "velocity": 40,
                "duration": 0.375,
                "tempo": 120.0
            },
            {
                "start_time": 7.6090909090909085,
                "end_time": 7.993181818181818,
                "pitch": 33,
                "velocity": 40,
                "duration": 0.3840909090909097,
                "tempo": 120.0
            },
            {
                "start_time": 8.011363636363637,
                "end_time": 8.195454545454545,
                "pitch": 38,
                "velocity": 40,
                "duration": 0.18409090909090864,
                "tempo": 120.0
            },
            {
                "start_time": 8.211363636363636,
                "end_time": 8.397727272727272,
                "pitch": 38,
                "velocity": 40,
                "duration": 0.18636363636363562,
                "tempo": 120.0
            },
            {
                "start_time": 8.413636363636364,
                "end_time": 8.602272727272727,
                "pitch": 38,
                "velocity": 40,
                "duration": 0.1886363636363626,
                "tempo": 120.0
            },
            {
                "start_time": 8.618181818181817,
                "end_time": 9.004545454545454,
                "pitch": 38,
                "velocity": 40,
                "duration": 0.3863636363636367,
                "tempo": 120.0
            },
            {
                "start_time": 9.020454545454545,
                "end_time": 9.2,
                "pitch": 38,
                "velocity": 40,
                "duration": 0.17954545454545467,
                "tempo": 120.0
            },
            {
                "start_time": 9.21590909090909,
                "end_time": 9.402272727272727,
                "pitch": 38,
                "velocity": 40,
                "duration": 0.1863636363636374,
                "tempo": 120.0
            },
            {
                "start_time": 9.418181818181818,
                "end_time": 9.602272727272727,
                "pitch": 38,
                "velocity": 40,
                "duration": 0.18409090909090864,
                "tempo": 120.0
            },
            {
                "start_time": 9.618181818181817,
                "end_time": 10.206818181818182,
                "pitch": 35,
                "velocity": 40,
                "duration": 0.5886363636363647,
                "tempo": 120.0
            },
            {
                "start_time": 10.222727272727273,
                "end_time": 10.406818181818181,
                "pitch": 35,
                "velocity": 40,
                "duration": 0.18409090909090864,
                "tempo": 120.0
            },
            {
                "start_time": 10.424999999999999,
                "end_time": 10.811363636363636,
                "pitch": 35,
                "velocity": 40,
                "duration": 0.3863636363636367,
                "tempo": 120.0
            },
            {
                "start_time": 10.827272727272726,
                "end_time": 11.211363636363636,
                "pitch": 37,
                "velocity": 40,
                "duration": 0.3840909090909097,
                "tempo": 120.0
            },
            {
                "start_time": 11.227272727272727,
                "end_time": 11.411363636363635,
                "pitch": 35,
                "velocity": 40,
                "duration": 0.18409090909090864,
                "tempo": 120.0
            },
            {
                "start_time": 11.429545454545455,
                "end_time": 11.613636363636363,
                "pitch": 35,
                "velocity": 40,
                "duration": 0.18409090909090864,
                "tempo": 120.0
            },
            {
                "start_time": 11.629545454545454,
                "end_time": 11.813636363636363,
                "pitch": 35,
                "velocity": 40,
                "duration": 0.18409090909090864,
                "tempo": 120.0
            },
            {
                "start_time": 11.831818181818182,
                "end_time": 12.218181818181817,
                "pitch": 35,
                "velocity": 40,
                "duration": 0.3863636363636349,
                "tempo": 120.0
            },
            {
                "start_time": 12.23409090909091,
                "end_time": 12.418181818181818,
                "pitch": 35,
                "velocity": 40,
                "duration": 0.18409090909090864,
                "tempo": 120.0
            },
            {
                "start_time": 12.436363636363636,
                "end_time": 12.620454545454544,
                "pitch": 35,
                "velocity": 40,
                "duration": 0.18409090909090864,
                "tempo": 120.0
            },
            {
                "start_time": 12.636363636363635,
                "end_time": 12.820454545454545,
                "pitch": 35,
                "velocity": 40,
                "duration": 0.18409090909091042,
                "tempo": 120.0
            },
            {
                "start_time": 12.838636363636363,
                "end_time": 13.422727272727272,
                "pitch": 35,
                "velocity": 40,
                "duration": 0.584090909090909,
                "tempo": 120.0
            },
            {
                "start_time": 13.438636363636363,
                "end_time": 13.625,
                "pitch": 35,
                "velocity": 40,
                "duration": 0.1863636363636374,
                "tempo": 120.0
            },
            {
                "start_time": 13.64090909090909,
                "end_time": 14.027272727272727,
                "pitch": 37,
                "velocity": 40,
                "duration": 0.3863636363636367,
                "tempo": 120.0
            },
            {
                "start_time": 14.043181818181818,
                "end_time": 14.429545454545455,
                "pitch": 38,
                "velocity": 40,
                "duration": 0.3863636363636367,
                "tempo": 120.0
            },
            {
                "start_time": 14.445454545454545,
                "end_time": 14.631818181818181,
                "pitch": 31,
                "velocity": 40,
                "duration": 0.18636363636363562,
                "tempo": 120.0
            },
            {
                "start_time": 14.647727272727272,
                "end_time": 14.83181818181818,
                "pitch": 31,
                "velocity": 40,
                "duration": 0.18409090909090864,
                "tempo": 120.0
            },
            {
                "start_time": 14.847727272727273,
                "end_time": 15.031818181818181,
                "pitch": 31,
                "velocity": 40,
                "duration": 0.18409090909090864,
                "tempo": 120.0
            },
            {
                "start_time": 15.047727272727272,
                "end_time": 15.434090909090909,
                "pitch": 31,
                "velocity": 40,
                "duration": 0.3863636363636367,
                "tempo": 120.0
            },
            {
                "start_time": 15.45,
                "end_time": 15.634090909090908,
                "pitch": 31,
                "velocity": 40,
                "duration": 0.18409090909090864,
                "tempo": 120.0
            },
            {
                "start_time": 15.652272727272727,
                "end_time": 15.836363636363636,
                "pitch": 31,
                "velocity": 40,
                "duration": 0.18409090909090864,
                "tempo": 120.0
            },
            {
                "start_time": 15.852272727272727,
                "end_time": 16.036363636363635,
                "pitch": 31,
                "velocity": 40,
                "duration": 0.18409090909090864,
                "tempo": 120.0
            },
            {
                "start_time": 16.054545454545455,
                "end_time": 16.238636363636363,
                "pitch": 33,
                "velocity": 40,
                "duration": 0.18409090909090864,
                "tempo": 120.0
            },
            {
                "start_time": 16.254545454545454,
                "end_time": 16.44090909090909,
                "pitch": 33,
                "velocity": 40,
                "duration": 0.1863636363636374,
                "tempo": 120.0
            },
            {
                "start_time": 16.456818181818182,
                "end_time": 16.645454545454545,
                "pitch": 33,
                "velocity": 40,
                "duration": 0.1886363636363626,
                "tempo": 120.0
            },
            {
                "start_time": 16.661363636363635,
                "end_time": 17.047727272727272,
                "pitch": 33,
                "velocity": 40,
                "duration": 0.3863636363636367,
                "tempo": 120.0
            },
            {
                "start_time": 17.063636363636363,
                "end_time": 17.243181818181817,
                "pitch": 33,
                "velocity": 40,
                "duration": 0.17954545454545467,
                "tempo": 120.0
            },
            {
                "start_time": 17.259090909090908,
                "end_time": 17.443181818181817,
                "pitch": 33,
                "velocity": 40,
                "duration": 0.18409090909090864,
                "tempo": 120.0
            },
            {
                "start_time": 17.459090909090907,
                "end_time": 17.643181818181816,
                "pitch": 35,
                "velocity": 40,
                "duration": 0.18409090909090864,
                "tempo": 120.0
            },
            {
                "start_time": 17.659090909090907,
                "end_time": 17.84318181818182,
                "pitch": 36,
                "velocity": 40,
                "duration": 0.1840909090909122,
                "tempo": 120.0
            },
            {
                "start_time": 17.85909090909091,
                "end_time": 18.043181818181818,
                "pitch": 36,
                "velocity": 40,
                "duration": 0.18409090909090864,
                "tempo": 120.0
            },
            {
                "start_time": 18.05909090909091,
                "end_time": 18.24772727272727,
                "pitch": 36,
                "velocity": 40,
                "duration": 0.1886363636363626,
                "tempo": 120.0
            },
            {
                "start_time": 18.26590909090909,
                "end_time": 18.65,
                "pitch": 36,
                "velocity": 40,
                "duration": 0.38409090909090793,
                "tempo": 120.0
            },
            {
                "start_time": 18.66590909090909,
                "end_time": 18.845454545454544,
                "pitch": 36,
                "velocity": 40,
                "duration": 0.17954545454545467,
                "tempo": 120.0
            },
            {
                "start_time": 18.863636363636363,
                "end_time": 19.05,
                "pitch": 35,
                "velocity": 40,
                "duration": 0.1863636363636374,
                "tempo": 120.0
            },
            {
                "start_time": 19.068181818181817,
                "end_time": 19.25681818181818,
                "pitch": 36,
                "velocity": 40,
                "duration": 0.1886363636363626,
                "tempo": 120.0
            },
            {
                "start_time": 19.46818181818182,
                "end_time": 19.647727272727273,
                "pitch": 38,
                "velocity": 40,
                "duration": 0.17954545454545467,
                "tempo": 120.0
            },
            {
                "start_time": 19.86590909090909,
                "end_time": 20.047727272727272,
                "pitch": 37,
                "velocity": 40,
                "duration": 0.18181818181818343,
                "tempo": 120.0
            },
            {
                "start_time": 20.06590909090909,
                "end_time": 20.25,
                "pitch": 38,
                "velocity": 40,
                "duration": 0.18409090909090864,
                "tempo": 120.0
            },
            {
                "start_time": 20.26590909090909,
                "end_time": 20.452272727272728,
                "pitch": 40,
                "velocity": 40,
                "duration": 0.1863636363636374,
                "tempo": 120.0
            },
            {
                "start_time": 20.46818181818182,
                "end_time": 20.65681818181818,
                "pitch": 42,
                "velocity": 40,
                "duration": 0.1886363636363626,
                "tempo": 120.0
            },
            {
                "start_time": 20.672727272727272,
                "end_time": 20.861363636363635,
                "pitch": 42,
                "velocity": 40,
                "duration": 0.1886363636363626,
                "tempo": 120.0
            },
            {
                "start_time": 20.879545454545454,
                "end_time": 21.061363636363634,
                "pitch": 38,
                "velocity": 40,
                "duration": 0.18181818181817988,
                "tempo": 120.0
            },
            {
                "start_time": 21.079545454545453,
                "end_time": 21.261363636363637,
                "pitch": 38,
                "velocity": 40,
                "duration": 0.18181818181818343,
                "tempo": 120.0
            },
            {
                "start_time": 21.279545454545453,
                "end_time": 21.46363636363636,
                "pitch": 38,
                "velocity": 40,
                "duration": 0.18409090909090864,
                "tempo": 120.0
            },
            {
                "start_time": 21.479545454545452,
                "end_time": 21.861363636363635,
                "pitch": 38,
                "velocity": 40,
                "duration": 0.3818181818181827,
                "tempo": 120.0
            },
            {
                "start_time": 21.877272727272725,
                "end_time": 22.05681818181818,
                "pitch": 38,
                "velocity": 40,
                "duration": 0.17954545454545467,
                "tempo": 120.0
            },
            {
                "start_time": 22.07272727272727,
                "end_time": 22.261363636363637,
                "pitch": 38,
                "velocity": 40,
                "duration": 0.18863636363636616,
                "tempo": 120.0
            },
            {
                "start_time": 22.279545454545453,
                "end_time": 22.46818181818182,
                "pitch": 38,
                "velocity": 40,
                "duration": 0.18863636363636616,
                "tempo": 120.0
            },
            {
                "start_time": 22.48409090909091,
                "end_time": 23.061363636363634,
                "pitch": 35,
                "velocity": 40,
                "duration": 0.5772727272727245,
                "tempo": 120.0
            },
            {
                "start_time": 23.077272727272724,
                "end_time": 23.261363636363637,
                "pitch": 35,
                "velocity": 40,
                "duration": 0.1840909090909122,
                "tempo": 120.0
            },
            {
                "start_time": 23.279545454545453,
                "end_time": 23.661363636363635,
                "pitch": 35,
                "velocity": 40,
                "duration": 0.3818181818181827,
                "tempo": 120.0
            },
            {
                "start_time": 23.679545454545455,
                "end_time": 24.061363636363634,
                "pitch": 37,
                "velocity": 40,
                "duration": 0.38181818181817917,
                "tempo": 120.0
            },
            {
                "start_time": 24.079545454545453,
                "end_time": 24.263636363636362,
                "pitch": 35,
                "velocity": 40,
                "duration": 0.18409090909090864,
                "tempo": 120.0
            },
            {
                "start_time": 24.279545454545453,
                "end_time": 24.46590909090909,
                "pitch": 35,
                "velocity": 40,
                "duration": 0.1863636363636374,
                "tempo": 120.0
            },
            {
                "start_time": 24.48181818181818,
                "end_time": 24.66590909090909,
                "pitch": 35,
                "velocity": 40,
                "duration": 0.18409090909090864,
                "tempo": 120.0
            },
            {
                "start_time": 24.68181818181818,
                "end_time": 25.06590909090909,
                "pitch": 35,
                "velocity": 40,
                "duration": 0.3840909090909115,
                "tempo": 120.0
            },
            {
                "start_time": 25.084090909090907,
                "end_time": 25.268181818181816,
                "pitch": 35,
                "velocity": 40,
                "duration": 0.18409090909090864,
                "tempo": 120.0
            },
            {
                "start_time": 25.284090909090907,
                "end_time": 25.472727272727273,
                "pitch": 35,
                "velocity": 40,
                "duration": 0.18863636363636616,
                "tempo": 120.0
            },
            {
                "start_time": 25.49090909090909,
                "end_time": 25.677272727272726,
                "pitch": 35,
                "velocity": 40,
                "duration": 0.1863636363636374,
                "tempo": 120.0
            },
            {
                "start_time": 25.695454545454545,
                "end_time": 26.275,
                "pitch": 35,
                "velocity": 40,
                "duration": 0.5795454545454533,
                "tempo": 120.0
            },
            {
                "start_time": 26.293181818181818,
                "end_time": 26.48181818181818,
                "pitch": 35,
                "velocity": 40,
                "duration": 0.1886363636363626,
                "tempo": 120.0
            },
            {
                "start_time": 26.49772727272727,
                "end_time": 26.87272727272727,
                "pitch": 37,
                "velocity": 40,
                "duration": 0.375,
                "tempo": 120.0
            },
            {
                "start_time": 26.89090909090909,
                "end_time": 27.275,
                "pitch": 38,
                "velocity": 40,
                "duration": 0.38409090909090793,
                "tempo": 120.0
            },
            {
                "start_time": 27.293181818181818,
                "end_time": 27.474999999999998,
                "pitch": 31,
                "velocity": 40,
                "duration": 0.18181818181817988,
                "tempo": 120.0
            },
            {
                "start_time": 27.493181818181817,
                "end_time": 27.674999999999997,
                "pitch": 31,
                "velocity": 40,
                "duration": 0.18181818181817988,
                "tempo": 120.0
            },
            {
                "start_time": 27.693181818181817,
                "end_time": 27.875,
                "pitch": 31,
                "velocity": 40,
                "duration": 0.18181818181818343,
                "tempo": 120.0
            },
            {
                "start_time": 27.893181818181816,
                "end_time": 28.277272727272727,
                "pitch": 31,
                "velocity": 40,
                "duration": 0.3840909090909115,
                "tempo": 120.0
            },
            {
                "start_time": 28.293181818181818,
                "end_time": 28.479545454545452,
                "pitch": 31,
                "velocity": 40,
                "duration": 0.18636363636363384,
                "tempo": 120.0
            },
            {
                "start_time": 28.495454545454542,
                "end_time": 28.68409090909091,
                "pitch": 31,
                "velocity": 40,
                "duration": 0.18863636363636616,
                "tempo": 120.0
            },
            {
                "start_time": 28.7,
                "end_time": 28.888636363636362,
                "pitch": 31,
                "velocity": 40,
                "duration": 0.1886363636363626,
                "tempo": 120.0
            },
            {
                "start_time": 28.90681818181818,
                "end_time": 29.086363636363636,
                "pitch": 33,
                "velocity": 40,
                "duration": 0.17954545454545467,
                "tempo": 120.0
            },
            {
                "start_time": 29.102272727272727,
                "end_time": 29.28181818181818,
                "pitch": 33,
                "velocity": 40,
                "duration": 0.17954545454545467,
                "tempo": 120.0
            },
            {
                "start_time": 29.297727272727272,
                "end_time": 29.48181818181818,
                "pitch": 33,
                "velocity": 40,
                "duration": 0.18409090909090864,
                "tempo": 120.0
            },
            {
                "start_time": 29.49772727272727,
                "end_time": 29.88181818181818,
                "pitch": 33,
                "velocity": 40,
                "duration": 0.38409090909090793,
                "tempo": 120.0
            },
            {
                "start_time": 29.89772727272727,
                "end_time": 30.081818181818182,
                "pitch": 33,
                "velocity": 40,
                "duration": 0.1840909090909122,
                "tempo": 120.0
            },
            {
                "start_time": 30.097727272727273,
                "end_time": 30.28181818181818,
                "pitch": 33,
                "velocity": 40,
                "duration": 0.18409090909090864,
                "tempo": 120.0
            },
            {
                "start_time": 30.299999999999997,
                "end_time": 30.48409090909091,
                "pitch": 35,
                "velocity": 40,
                "duration": 0.1840909090909122,
                "tempo": 120.0
            },
            {
                "start_time": 30.5,
                "end_time": 30.68409090909091,
                "pitch": 36,
                "velocity": 40,
                "duration": 0.18409090909090864,
                "tempo": 120.0
            },
            {
                "start_time": 30.7,
                "end_time": 30.884090909090908,
                "pitch": 36,
                "velocity": 40,
                "duration": 0.18409090909090864,
                "tempo": 120.0
            },
            {
                "start_time": 30.9,
                "end_time": 31.08863636363636,
                "pitch": 36,
                "velocity": 40,
                "duration": 0.1886363636363626,
                "tempo": 120.0
            },
            {
                "start_time": 31.10681818181818,
                "end_time": 31.49090909090909,
                "pitch": 36,
                "velocity": 40,
                "duration": 0.38409090909090793,
                "tempo": 120.0
            },
            {
                "start_time": 31.50681818181818,
                "end_time": 31.686363636363634,
                "pitch": 36,
                "velocity": 40,
                "duration": 0.17954545454545467,
                "tempo": 120.0
            },
            {
                "start_time": 31.704545454545453,
                "end_time": 31.89090909090909,
                "pitch": 35,
                "velocity": 40,
                "duration": 0.1863636363636374,
                "tempo": 120.0
            },
            {
                "start_time": 31.909090909090907,
                "end_time": 32.09772727272727,
                "pitch": 36,
                "velocity": 40,
                "duration": 0.1886363636363626,
                "tempo": 120.0
            },
            {
                "start_time": 32.31136363636364,
                "end_time": 32.49090909090909,
                "pitch": 38,
                "velocity": 40,
                "duration": 0.17954545454545467,
                "tempo": 120.0
            },
            {
                "start_time": 32.70681818181818,
                "end_time": 32.893181818181816,
                "pitch": 37,
                "velocity": 40,
                "duration": 0.1863636363636374,
                "tempo": 120.0
            },
            {
                "start_time": 32.90909090909091,
                "end_time": 33.09318181818182,
                "pitch": 38,
                "velocity": 40,
                "duration": 0.1840909090909122,
                "tempo": 120.0
            },
            {
                "start_time": 33.10909090909091,
                "end_time": 33.293181818181814,
                "pitch": 40,
                "velocity": 40,
                "duration": 0.18409090909090509,
                "tempo": 120.0
            },
            {
                "start_time": 33.309090909090905,
                "end_time": 33.49772727272727,
                "pitch": 42,
                "velocity": 40,
                "duration": 0.1886363636363626,
                "tempo": 120.0
            },
            {
                "start_time": 33.513636363636365,
                "end_time": 33.70227272727273,
                "pitch": 42,
                "velocity": 40,
                "duration": 0.1886363636363626,
                "tempo": 120.0
            },
            {
                "start_time": 33.720454545454544,
                "end_time": 33.904545454545456,
                "pitch": 26,
                "velocity": 40,
                "duration": 0.1840909090909122,
                "tempo": 120.0
            },
            {
                "start_time": 33.92045454545455,
                "end_time": 34.10681818181818,
                "pitch": 38,
                "velocity": 40,
                "duration": 0.1863636363636303,
                "tempo": 120.0
            },
            {
                "start_time": 34.12272727272727,
                "end_time": 34.30227272727272,
                "pitch": 26,
                "velocity": 40,
                "duration": 0.17954545454545467,
                "tempo": 120.0
            },
            {
                "start_time": 34.31818181818181,
                "end_time": 34.49772727272727,
                "pitch": 38,
                "velocity": 40,
                "duration": 0.17954545454545467,
                "tempo": 120.0
            },
            {
                "start_time": 34.51590909090909,
                "end_time": 34.699999999999996,
                "pitch": 37,
                "velocity": 40,
                "duration": 0.18409090909090509,
                "tempo": 120.0
            },
            {
                "start_time": 34.918181818181814,
                "end_time": 35.1,
                "pitch": 35,
                "velocity": 40,
                "duration": 0.18181818181818699,
                "tempo": 120.0
            },
            {
                "start_time": 35.31818181818181,
                "end_time": 35.5,
                "pitch": 31,
                "velocity": 40,
                "duration": 0.18181818181818699,
                "tempo": 120.0
            },
            {
                "start_time": 35.518181818181816,
                "end_time": 35.699999999999996,
                "pitch": 31,
                "velocity": 40,
                "duration": 0.18181818181817988,
                "tempo": 120.0
            },
            {
                "start_time": 35.71818181818182,
                "end_time": 35.9,
                "pitch": 31,
                "velocity": 40,
                "duration": 0.18181818181817988,
                "tempo": 120.0
            },
            {
                "start_time": 36.11818181818182,
                "end_time": 36.3,
                "pitch": 31,
                "velocity": 40,
                "duration": 0.18181818181817988,
                "tempo": 120.0
            },
            {
                "start_time": 36.518181818181816,
                "end_time": 36.70227272727273,
                "pitch": 33,
                "velocity": 40,
                "duration": 0.1840909090909122,
                "tempo": 120.0
            },
            {
                "start_time": 36.71818181818182,
                "end_time": 36.904545454545456,
                "pitch": 35,
                "velocity": 40,
                "duration": 0.1863636363636374,
                "tempo": 120.0
            },
            {
                "start_time": 36.92045454545455,
                "end_time": 37.10454545454545,
                "pitch": 31,
                "velocity": 40,
                "duration": 0.18409090909090509,
                "tempo": 120.0
            },
            {
                "start_time": 37.12045454545454,
                "end_time": 37.304545454545455,
                "pitch": 31,
                "velocity": 40,
                "duration": 0.1840909090909122,
                "tempo": 120.0
            },
            {
                "start_time": 37.320454545454545,
                "end_time": 37.50454545454545,
                "pitch": 31,
                "velocity": 40,
                "duration": 0.18409090909090509,
                "tempo": 120.0
            },
            {
                "start_time": 37.720454545454544,
                "end_time": 37.904545454545456,
                "pitch": 31,
                "velocity": 40,
                "duration": 0.1840909090909122,
                "tempo": 120.0
            },
            {
                "start_time": 38.12045454545454,
                "end_time": 38.304545454545455,
                "pitch": 33,
                "velocity": 40,
                "duration": 0.1840909090909122,
                "tempo": 120.0
            },
            {
                "start_time": 38.320454545454545,
                "end_time": 38.50454545454545,
                "pitch": 35,
                "velocity": 40,
                "duration": 0.18409090909090509,
                "tempo": 120.0
            },
            {
                "start_time": 38.52045454545454,
                "end_time": 38.70454545454545,
                "pitch": 33,
                "velocity": 40,
                "duration": 0.1840909090909122,
                "tempo": 120.0
            },
            {
                "start_time": 38.72272727272727,
                "end_time": 38.90681818181818,
                "pitch": 33,
                "velocity": 40,
                "duration": 0.1840909090909122,
                "tempo": 120.0
            },
            {
                "start_time": 38.92272727272727,
                "end_time": 39.10681818181818,
                "pitch": 35,
                "velocity": 40,
                "duration": 0.18409090909090509,
                "tempo": 120.0
            },
            {
                "start_time": 39.32272727272727,
                "end_time": 39.50681818181818,
                "pitch": 35,
                "velocity": 40,
                "duration": 0.1840909090909122,
                "tempo": 120.0
            },
            {
                "start_time": 39.52272727272727,
                "end_time": 39.70681818181818,
                "pitch": 37,
                "velocity": 40,
                "duration": 0.18409090909090509,
                "tempo": 120.0
            },
            {
                "start_time": 39.72272727272727,
                "end_time": 39.90681818181818,
                "pitch": 38,
                "velocity": 40,
                "duration": 0.1840909090909122,
                "tempo": 120.0
            },
            {
                "start_time": 39.92272727272727,
                "end_time": 40.10681818181818,
                "pitch": 40,
                "velocity": 40,
                "duration": 0.18409090909090509,
                "tempo": 120.0
            },
            {
                "start_time": 40.12272727272727,
                "end_time": 40.30681818181818,
                "pitch": 26,
                "velocity": 40,
                "duration": 0.1840909090909122,
                "tempo": 120.0
            },
            {
                "start_time": 40.32272727272727,
                "end_time": 40.50681818181818,
                "pitch": 38,
                "velocity": 40,
                "duration": 0.1840909090909122,
                "tempo": 120.0
            },
            {
                "start_time": 40.52272727272727,
                "end_time": 40.70681818181818,
                "pitch": 26,
                "velocity": 40,
                "duration": 0.18409090909090509,
                "tempo": 120.0
            },
            {
                "start_time": 40.725,
                "end_time": 40.90909090909091,
                "pitch": 38,
                "velocity": 40,
                "duration": 0.18409090909090509,
                "tempo": 120.0
            },
            {
                "start_time": 40.925,
                "end_time": 41.10909090909091,
                "pitch": 37,
                "velocity": 40,
                "duration": 0.1840909090909122,
                "tempo": 120.0
            },
            {
                "start_time": 41.324999999999996,
                "end_time": 41.50909090909091,
                "pitch": 35,
                "velocity": 40,
                "duration": 0.1840909090909122,
                "tempo": 120.0
            },
            {
                "start_time": 41.725,
                "end_time": 41.90909090909091,
                "pitch": 31,
                "velocity": 40,
                "duration": 0.18409090909090509,
                "tempo": 120.0
            },
            {
                "start_time": 41.925,
                "end_time": 42.10909090909091,
                "pitch": 31,
                "velocity": 40,
                "duration": 0.1840909090909122,
                "tempo": 120.0
            },
            {
                "start_time": 42.125,
                "end_time": 42.309090909090905,
                "pitch": 31,
                "velocity": 40,
                "duration": 0.18409090909090509,
                "tempo": 120.0
            },
            {
                "start_time": 42.525,
                "end_time": 42.709090909090904,
                "pitch": 31,
                "velocity": 40,
                "duration": 0.18409090909090509,
                "tempo": 120.0
            },
            {
                "start_time": 42.92727272727272,
                "end_time": 43.111363636363635,
                "pitch": 33,
                "velocity": 40,
                "duration": 0.1840909090909122,
                "tempo": 120.0
            },
            {
                "start_time": 43.127272727272725,
                "end_time": 43.31136363636364,
                "pitch": 35,
                "velocity": 40,
                "duration": 0.1840909090909122,
                "tempo": 120.0
            },
            {
                "start_time": 43.32727272727273,
                "end_time": 43.51136363636363,
                "pitch": 31,
                "velocity": 40,
                "duration": 0.18409090909090509,
                "tempo": 120.0
            },
            {
                "start_time": 43.527272727272724,
                "end_time": 43.711363636363636,
                "pitch": 31,
                "velocity": 40,
                "duration": 0.1840909090909122,
                "tempo": 120.0
            },
            {
                "start_time": 43.72727272727273,
                "end_time": 43.91136363636363,
                "pitch": 31,
                "velocity": 40,
                "duration": 0.18409090909090509,
                "tempo": 120.0
            },
            {
                "start_time": 44.127272727272725,
                "end_time": 44.31136363636364,
                "pitch": 31,
                "velocity": 40,
                "duration": 0.1840909090909122,
                "tempo": 120.0
            },
            {
                "start_time": 44.527272727272724,
                "end_time": 44.71363636363636,
                "pitch": 33,
                "velocity": 40,
                "duration": 0.1863636363636374,
                "tempo": 120.0
            },
            {
                "start_time": 44.72954545454545,
                "end_time": 44.913636363636364,
                "pitch": 35,
                "velocity": 40,
                "duration": 0.1840909090909122,
                "tempo": 120.0
            },
            {
                "start_time": 44.93181818181818,
                "end_time": 45.11363636363636,
                "pitch": 33,
                "velocity": 40,
                "duration": 0.18181818181817988,
                "tempo": 120.0
            },
            {
                "start_time": 45.13181818181818,
                "end_time": 45.31363636363636,
                "pitch": 33,
                "velocity": 40,
                "duration": 0.18181818181817988,
                "tempo": 120.0
            },
            {
                "start_time": 45.33181818181818,
                "end_time": 45.51363636363636,
                "pitch": 35,
                "velocity": 40,
                "duration": 0.18181818181817988,
                "tempo": 120.0
            },
            {
                "start_time": 45.73181818181818,
                "end_time": 45.913636363636364,
                "pitch": 35,
                "velocity": 40,
                "duration": 0.18181818181818699,
                "tempo": 120.0
            },
            {
                "start_time": 45.93181818181818,
                "end_time": 46.11363636363636,
                "pitch": 37,
                "velocity": 40,
                "duration": 0.18181818181817988,
                "tempo": 120.0
            },
            {
                "start_time": 46.13181818181818,
                "end_time": 46.31818181818181,
                "pitch": 38,
                "velocity": 40,
                "duration": 0.1863636363636303,
                "tempo": 120.0
            },
            {
                "start_time": 46.336363636363636,
                "end_time": 46.525,
                "pitch": 40,
                "velocity": 40,
                "duration": 0.1886363636363626,
                "tempo": 120.0
            },
            {
                "start_time": 46.54090909090909,
                "end_time": 46.925,
                "pitch": 38,
                "velocity": 40,
                "duration": 0.38409090909090793,
                "tempo": 120.0
            },
            {
                "start_time": 46.94090909090909,
                "end_time": 47.125,
                "pitch": 38,
                "velocity": 40,
                "duration": 0.1840909090909122,
                "tempo": 120.0
            },
            {
                "start_time": 47.14090909090909,
                "end_time": 47.324999999999996,
                "pitch": 38,
                "velocity": 40,
                "duration": 0.18409090909090509,
                "tempo": 120.0
            },
            {
                "start_time": 47.538636363636364,
                "end_time": 47.71818181818182,
                "pitch": 38,
                "velocity": 40,
                "duration": 0.17954545454545467,
                "tempo": 120.0
            },
            {
                "start_time": 47.73409090909091,
                "end_time": 47.918181818181814,
                "pitch": 38,
                "velocity": 40,
                "duration": 0.18409090909090509,
                "tempo": 120.0
            },
            {
                "start_time": 47.934090909090905,
                "end_time": 48.11818181818182,
                "pitch": 38,
                "velocity": 40,
                "duration": 0.1840909090909122,
                "tempo": 120.0
            },
            {
                "start_time": 48.13409090909091,
                "end_time": 48.31818181818181,
                "pitch": 38,
                "velocity": 40,
                "duration": 0.18409090909090509,
                "tempo": 120.0
            },
            {
                "start_time": 48.334090909090904,
                "end_time": 48.71818181818182,
                "pitch": 38,
                "velocity": 40,
                "duration": 0.38409090909091503,
                "tempo": 120.0
            },
            {
                "start_time": 48.736363636363635,
                "end_time": 49.320454545454545,
                "pitch": 38,
                "velocity": 40,
                "duration": 0.5840909090909108,
                "tempo": 120.0
            },
            {
                "start_time": 49.336363636363636,
                "end_time": 49.52045454545454,
                "pitch": 40,
                "velocity": 40,
                "duration": 0.18409090909090509,
                "tempo": 120.0
            },
            {
                "start_time": 49.53636363636363,
                "end_time": 49.720454545454544,
                "pitch": 42,
                "velocity": 40,
                "duration": 0.1840909090909122,
                "tempo": 120.0
            },
            {
                "start_time": 49.736363636363635,
                "end_time": 50.12045454545454,
                "pitch": 43,
                "velocity": 40,
                "duration": 0.38409090909090793,
                "tempo": 120.0
            },
            {
                "start_time": 50.13636363636363,
                "end_time": 50.320454545454545,
                "pitch": 43,
                "velocity": 40,
                "duration": 0.1840909090909122,
                "tempo": 120.0
            },
            {
                "start_time": 50.336363636363636,
                "end_time": 50.52045454545454,
                "pitch": 43,
                "velocity": 40,
                "duration": 0.18409090909090509,
                "tempo": 120.0
            },
            {
                "start_time": 50.53636363636363,
                "end_time": 50.720454545454544,
                "pitch": 40,
                "velocity": 40,
                "duration": 0.1840909090909122,
                "tempo": 120.0
            },
            {
                "start_time": 50.73863636363636,
                "end_time": 50.92272727272727,
                "pitch": 38,
                "velocity": 40,
                "duration": 0.1840909090909122,
                "tempo": 120.0
            },
            {
                "start_time": 50.93863636363636,
                "end_time": 51.12272727272727,
                "pitch": 40,
                "velocity": 40,
                "duration": 0.18409090909090509,
                "tempo": 120.0
            },
            {
                "start_time": 51.13863636363636,
                "end_time": 51.32272727272727,
                "pitch": 43,
                "velocity": 40,
                "duration": 0.1840909090909122,
                "tempo": 120.0
            },
            {
                "start_time": 51.33863636363636,
                "end_time": 51.52272727272727,
                "pitch": 43,
                "velocity": 40,
                "duration": 0.1840909090909122,
                "tempo": 120.0
            },
            {
                "start_time": 51.538636363636364,
                "end_time": 51.92272727272727,
                "pitch": 43,
                "velocity": 40,
                "duration": 0.38409090909090793,
                "tempo": 120.0
            },
            {
                "start_time": 51.93863636363636,
                "end_time": 52.52272727272727,
                "pitch": 43,
                "velocity": 40,
                "duration": 0.5840909090909108,
                "tempo": 120.0
            },
            {
                "start_time": 52.538636363636364,
                "end_time": 52.72727272727273,
                "pitch": 40,
                "velocity": 40,
                "duration": 0.1886363636363626,
                "tempo": 120.0
            },
            {
                "start_time": 52.74545454545454,
                "end_time": 52.934090909090905,
                "pitch": 38,
                "velocity": 40,
                "duration": 0.1886363636363626,
                "tempo": 120.0
            },
            {
                "start_time": 52.949999999999996,
                "end_time": 53.334090909090904,
                "pitch": 38,
                "velocity": 40,
                "duration": 0.38409090909090793,
                "tempo": 120.0
            },
            {
                "start_time": 53.349999999999994,
                "end_time": 53.52954545454545,
                "pitch": 38,
                "velocity": 40,
                "duration": 0.17954545454545467,
                "tempo": 120.0
            },
            {
                "start_time": 53.54545454545454,
                "end_time": 53.72727272727273,
                "pitch": 38,
                "velocity": 40,
                "duration": 0.18181818181818699,
                "tempo": 120.0
            },
            {
                "start_time": 53.74318181818182,
                "end_time": 53.925,
                "pitch": 37,
                "velocity": 40,
                "duration": 0.18181818181817988,
                "tempo": 120.0
            },
            {
                "start_time": 53.94318181818181,
                "end_time": 54.324999999999996,
                "pitch": 35,
                "velocity": 40,
                "duration": 0.3818181818181827,
                "tempo": 120.0
            },
            {
                "start_time": 54.34318181818182,
                "end_time": 54.525,
                "pitch": 33,
                "velocity": 40,
                "duration": 0.18181818181817988,
                "tempo": 120.0
            },
            {
                "start_time": 54.543181818181814,
                "end_time": 55.12954545454545,
                "pitch": 33,
                "velocity": 40,
                "duration": 0.586363636363636,
                "tempo": 120.0
            },
            {
                "start_time": 55.14545454545454,
                "end_time": 55.32954545454545,
                "pitch": 33,
                "velocity": 40,
                "duration": 0.1840909090909122,
                "tempo": 120.0
            },
            {
                "start_time": 55.345454545454544,
                "end_time": 55.52954545454545,
                "pitch": 33,
                "velocity": 40,
                "duration": 0.18409090909090509,
                "tempo": 120.0
            },
            {
                "start_time": 55.54545454545454,
                "end_time": 55.72954545454545,
                "pitch": 33,
                "velocity": 40,
                "duration": 0.1840909090909122,
                "tempo": 120.0
            },
            {
                "start_time": 55.74545454545454,
                "end_time": 55.934090909090905,
                "pitch": 33,
                "velocity": 40,
                "duration": 0.1886363636363626,
                "tempo": 120.0
            },
            {
                "start_time": 55.949999999999996,
                "end_time": 56.13863636363636,
                "pitch": 33,
                "velocity": 40,
                "duration": 0.1886363636363626,
                "tempo": 120.0
            },
            {
                "start_time": 56.15681818181818,
                "end_time": 56.336363636363636,
                "pitch": 33,
                "velocity": 40,
                "duration": 0.17954545454545467,
                "tempo": 120.0
            },
            {
                "start_time": 56.35227272727273,
                "end_time": 56.53181818181818,
                "pitch": 33,
                "velocity": 40,
                "duration": 0.17954545454545467,
                "tempo": 120.0
            },
            {
                "start_time": 56.54772727272727,
                "end_time": 56.73181818181818,
                "pitch": 33,
                "velocity": 40,
                "duration": 0.18409090909090509,
                "tempo": 120.0
            },
            {
                "start_time": 56.75,
                "end_time": 56.934090909090905,
                "pitch": 33,
                "velocity": 40,
                "duration": 0.18409090909090509,
                "tempo": 120.0
            },
            {
                "start_time": 56.949999999999996,
                "end_time": 57.13409090909091,
                "pitch": 33,
                "velocity": 40,
                "duration": 0.1840909090909122,
                "tempo": 120.0
            },
            {
                "start_time": 57.15,
                "end_time": 57.334090909090904,
                "pitch": 33,
                "velocity": 40,
                "duration": 0.18409090909090509,
                "tempo": 120.0
            },
            {
                "start_time": 57.349999999999994,
                "end_time": 57.538636363636364,
                "pitch": 31,
                "velocity": 40,
                "duration": 0.1886363636363697,
                "tempo": 120.0
            },
            {
                "start_time": 57.55681818181818,
                "end_time": 57.74545454545454,
                "pitch": 30,
                "velocity": 40,
                "duration": 0.1886363636363626,
                "tempo": 120.0
            },
            {
                "start_time": 57.76136363636363,
                "end_time": 57.94090909090909,
                "pitch": 43,
                "velocity": 40,
                "duration": 0.17954545454545467,
                "tempo": 120.0
            },
            {
                "start_time": 57.95681818181818,
                "end_time": 58.336363636363636,
                "pitch": 43,
                "velocity": 40,
                "duration": 0.3795454545454575,
                "tempo": 120.0
            },
            {
                "start_time": 58.35454545454545,
                "end_time": 58.93863636363636,
                "pitch": 43,
                "velocity": 40,
                "duration": 0.5840909090909108,
                "tempo": 120.0
            },
            {
                "start_time": 58.95681818181818,
                "end_time": 59.14545454545454,
                "pitch": 40,
                "velocity": 40,
                "duration": 0.1886363636363626,
                "tempo": 120.0
            },
            {
                "start_time": 59.16136363636363,
                "end_time": 59.349999999999994,
                "pitch": 38,
                "velocity": 40,
                "duration": 0.1886363636363626,
                "tempo": 120.0
            },
            {
                "start_time": 59.36818181818182,
                "end_time": 59.55,
                "pitch": 40,
                "velocity": 40,
                "duration": 0.18181818181817988,
                "tempo": 120.0
            },
            {
                "start_time": 59.56818181818181,
                "end_time": 59.95227272727272,
                "pitch": 40,
                "velocity": 40,
                "duration": 0.38409090909090793,
                "tempo": 120.0
            },
            {
                "start_time": 59.96818181818182,
                "end_time": 60.152272727272724,
                "pitch": 40,
                "velocity": 40,
                "duration": 0.18409090909090509,
                "tempo": 120.0
            },
            {
                "start_time": 60.17045454545454,
                "end_time": 60.349999999999994,
                "pitch": 33,
                "velocity": 40,
                "duration": 0.17954545454545467,
                "tempo": 120.0
            },
            {
                "start_time": 60.365909090909085,
                "end_time": 60.75,
                "pitch": 33,
                "velocity": 40,
                "duration": 0.38409090909091503,
                "tempo": 120.0
            },
            {
                "start_time": 60.768181818181816,
                "end_time": 60.95454545454545,
                "pitch": 33,
                "velocity": 40,
                "duration": 0.1863636363636374,
                "tempo": 120.0
            },
            {
                "start_time": 60.97272727272727,
                "end_time": 61.152272727272724,
                "pitch": 33,
                "velocity": 40,
                "duration": 0.17954545454545467,
                "tempo": 120.0
            },
            {
                "start_time": 61.168181818181814,
                "end_time": 61.34772727272727,
                "pitch": 33,
                "velocity": 40,
                "duration": 0.17954545454545467,
                "tempo": 120.0
            },
            {
                "start_time": 61.36363636363636,
                "end_time": 61.55227272727272,
                "pitch": 33,
                "velocity": 40,
                "duration": 0.1886363636363626,
                "tempo": 120.0
            },
            {
                "start_time": 61.570454545454545,
                "end_time": 61.75909090909091,
                "pitch": 33,
                "velocity": 40,
                "duration": 0.1886363636363626,
                "tempo": 120.0
            },
            {
                "start_time": 61.775,
                "end_time": 61.95454545454545,
                "pitch": 33,
                "velocity": 40,
                "duration": 0.17954545454545467,
                "tempo": 120.0
            },
            {
                "start_time": 61.970454545454544,
                "end_time": 62.15,
                "pitch": 33,
                "velocity": 40,
                "duration": 0.17954545454545467,
                "tempo": 120.0
            },
            {
                "start_time": 62.168181818181814,
                "end_time": 62.35454545454545,
                "pitch": 40,
                "velocity": 40,
                "duration": 0.1863636363636374,
                "tempo": 120.0
            },
            {
                "start_time": 62.37272727272727,
                "end_time": 62.56136363636363,
                "pitch": 38,
                "velocity": 40,
                "duration": 0.1886363636363626,
                "tempo": 120.0
            },
            {
                "start_time": 62.57727272727272,
                "end_time": 62.756818181818176,
                "pitch": 43,
                "velocity": 40,
                "duration": 0.17954545454545467,
                "tempo": 120.0
            },
            {
                "start_time": 62.775,
                "end_time": 63.15909090909091,
                "pitch": 43,
                "velocity": 40,
                "duration": 0.38409090909090793,
                "tempo": 120.0
            },
            {
                "start_time": 63.175,
                "end_time": 63.36363636363636,
                "pitch": 42,
                "velocity": 40,
                "duration": 0.1886363636363626,
                "tempo": 120.0
            },
            {
                "start_time": 63.37954545454545,
                "end_time": 63.559090909090905,
                "pitch": 38,
                "velocity": 40,
                "duration": 0.17954545454545467,
                "tempo": 120.0
            },
            {
                "start_time": 63.57727272727272,
                "end_time": 63.756818181818176,
                "pitch": 38,
                "velocity": 40,
                "duration": 0.17954545454545467,
                "tempo": 120.0
            },
            {
                "start_time": 63.772727272727266,
                "end_time": 63.961363636363636,
                "pitch": 38,
                "velocity": 40,
                "duration": 0.1886363636363697,
                "tempo": 120.0
            },
            {
                "start_time": 63.97727272727273,
                "end_time": 64.16590909090908,
                "pitch": 38,
                "velocity": 40,
                "duration": 0.1886363636363555,
                "tempo": 120.0
            },
            {
                "start_time": 64.18409090909091,
                "end_time": 64.36363636363636,
                "pitch": 38,
                "velocity": 40,
                "duration": 0.17954545454544757,
                "tempo": 120.0
            },
            {
                "start_time": 64.37954545454545,
                "end_time": 64.7590909090909,
                "pitch": 38,
                "velocity": 40,
                "duration": 0.3795454545454504,
                "tempo": 120.0
            },
            {
                "start_time": 64.77499999999999,
                "end_time": 64.9590909090909,
                "pitch": 38,
                "velocity": 40,
                "duration": 0.1840909090909122,
                "tempo": 120.0
            },
            {
                "start_time": 64.975,
                "end_time": 65.1590909090909,
                "pitch": 38,
                "velocity": 40,
                "duration": 0.1840909090909122,
                "tempo": 120.0
            },
            {
                "start_time": 65.17727272727272,
                "end_time": 65.36136363636363,
                "pitch": 37,
                "velocity": 40,
                "duration": 0.1840909090909122,
                "tempo": 120.0
            },
            {
                "start_time": 65.37727272727273,
                "end_time": 65.56590909090909,
                "pitch": 35,
                "velocity": 40,
                "duration": 0.1886363636363626,
                "tempo": 120.0
            },
            {
                "start_time": 65.5840909090909,
                "end_time": 65.77272727272727,
                "pitch": 33,
                "velocity": 40,
                "duration": 0.1886363636363626,
                "tempo": 120.0
            },
            {
                "start_time": 65.78863636363636,
                "end_time": 65.97272727272727,
                "pitch": 38,
                "velocity": 40,
                "duration": 0.1840909090909122,
                "tempo": 120.0
            },
            {
                "start_time": 65.99090909090908,
                "end_time": 66.175,
                "pitch": 38,
                "velocity": 40,
                "duration": 0.1840909090909122,
                "tempo": 120.0
            },
            {
                "start_time": 66.19090909090909,
                "end_time": 66.375,
                "pitch": 38,
                "velocity": 40,
                "duration": 0.1840909090909122,
                "tempo": 120.0
            },
            {
                "start_time": 66.39090909090909,
                "end_time": 66.77045454545454,
                "pitch": 38,
                "velocity": 40,
                "duration": 0.3795454545454504,
                "tempo": 120.0
            },
            {
                "start_time": 66.78863636363636,
                "end_time": 66.96818181818182,
                "pitch": 38,
                "velocity": 40,
                "duration": 0.17954545454546178,
                "tempo": 120.0
            },
            {
                "start_time": 66.98409090909091,
                "end_time": 67.17272727272727,
                "pitch": 38,
                "velocity": 40,
                "duration": 0.1886363636363626,
                "tempo": 120.0
            },
            {
                "start_time": 67.18863636363636,
                "end_time": 67.37727272727273,
                "pitch": 38,
                "velocity": 40,
                "duration": 0.1886363636363626,
                "tempo": 120.0
            },
            {
                "start_time": 67.39318181818182,
                "end_time": 67.97045454545454,
                "pitch": 35,
                "velocity": 40,
                "duration": 0.577272727272728,
                "tempo": 120.0
            },
            {
                "start_time": 67.98636363636363,
                "end_time": 68.17045454545455,
                "pitch": 35,
                "velocity": 40,
                "duration": 0.1840909090909122,
                "tempo": 120.0
            },
            {
                "start_time": 68.18636363636364,
                "end_time": 68.57272727272726,
                "pitch": 35,
                "velocity": 40,
                "duration": 0.38636363636362603,
                "tempo": 120.0
            },
            {
                "start_time": 68.58863636363635,
                "end_time": 68.97272727272727,
                "pitch": 37,
                "velocity": 40,
                "duration": 0.38409090909091503,
                "tempo": 120.0
            },
            {
                "start_time": 68.98863636363636,
                "end_time": 69.17272727272727,
                "pitch": 35,
                "velocity": 40,
                "duration": 0.1840909090909122,
                "tempo": 120.0
            },
            {
                "start_time": 69.19090909090909,
                "end_time": 69.375,
                "pitch": 35,
                "velocity": 40,
                "duration": 0.1840909090909122,
                "tempo": 120.0
            },
            {
                "start_time": 69.39090909090909,
                "end_time": 69.57727272727273,
                "pitch": 35,
                "velocity": 40,
                "duration": 0.1863636363636374,
                "tempo": 120.0
            },
            {
                "start_time": 69.59318181818182,
                "end_time": 69.97727272727272,
                "pitch": 35,
                "velocity": 40,
                "duration": 0.3840909090909008,
                "tempo": 120.0
            },
            {
                "start_time": 69.99545454545454,
                "end_time": 70.17727272727272,
                "pitch": 35,
                "velocity": 40,
                "duration": 0.18181818181818699,
                "tempo": 120.0
            },
            {
                "start_time": 70.19545454545454,
                "end_time": 70.37954545454545,
                "pitch": 35,
                "velocity": 40,
                "duration": 0.1840909090909122,
                "tempo": 120.0
            },
            {
                "start_time": 70.39545454545454,
                "end_time": 70.57954545454545,
                "pitch": 35,
                "velocity": 40,
                "duration": 0.1840909090909122,
                "tempo": 120.0
            },
            {
                "start_time": 70.59772727272727,
                "end_time": 71.18181818181817,
                "pitch": 35,
                "velocity": 40,
                "duration": 0.5840909090909037,
                "tempo": 120.0
            },
            {
                "start_time": 71.19772727272726,
                "end_time": 71.3840909090909,
                "pitch": 35,
                "velocity": 40,
                "duration": 0.1863636363636374,
                "tempo": 120.0
            },
            {
                "start_time": 71.39999999999999,
                "end_time": 71.78636363636363,
                "pitch": 37,
                "velocity": 40,
                "duration": 0.38636363636364024,
                "tempo": 120.0
            },
            {
                "start_time": 71.80227272727272,
                "end_time": 72.19545454545454,
                "pitch": 38,
                "velocity": 40,
                "duration": 0.39318181818181586,
                "tempo": 120.0
            },
            {
                "start_time": 72.21363636363635,
                "end_time": 72.39318181818182,
                "pitch": 31,
                "velocity": 40,
                "duration": 0.17954545454546178,
                "tempo": 120.0
            },
            {
                "start_time": 72.4090909090909,
                "end_time": 72.58863636363635,
                "pitch": 31,
                "velocity": 40,
                "duration": 0.17954545454544757,
                "tempo": 120.0
            },
            {
                "start_time": 72.60454545454544,
                "end_time": 72.78863636363636,
                "pitch": 31,
                "velocity": 40,
                "duration": 0.1840909090909122,
                "tempo": 120.0
            },
            {
                "start_time": 72.80454545454545,
                "end_time": 73.19090909090909,
                "pitch": 31,
                "velocity": 40,
                "duration": 0.38636363636364024,
                "tempo": 120.0
            },
            {
                "start_time": 73.20681818181818,
                "end_time": 73.39090909090909,
                "pitch": 31,
                "velocity": 40,
                "duration": 0.1840909090909122,
                "tempo": 120.0
            },
            {
                "start_time": 73.4090909090909,
                "end_time": 73.59318181818182,
                "pitch": 31,
                "velocity": 40,
                "duration": 0.1840909090909122,
                "tempo": 120.0
            },
            {
                "start_time": 73.60909090909091,
                "end_time": 73.79318181818182,
                "pitch": 31,
                "velocity": 40,
                "duration": 0.1840909090909122,
                "tempo": 120.0
            },
            {
                "start_time": 73.81136363636364,
                "end_time": 73.99318181818181,
                "pitch": 33,
                "velocity": 40,
                "duration": 0.18181818181817277,
                "tempo": 120.0
            },
            {
                "start_time": 74.01136363636363,
                "end_time": 74.19318181818181,
                "pitch": 33,
                "velocity": 40,
                "duration": 0.18181818181818699,
                "tempo": 120.0
            },
            {
                "start_time": 74.21136363636363,
                "end_time": 74.39999999999999,
                "pitch": 33,
                "velocity": 40,
                "duration": 0.1886363636363626,
                "tempo": 120.0
            },
            {
                "start_time": 74.41590909090908,
                "end_time": 74.80227272727272,
                "pitch": 33,
                "velocity": 40,
                "duration": 0.38636363636364024,
                "tempo": 120.0
            },
            {
                "start_time": 74.81818181818181,
                "end_time": 74.99772727272727,
                "pitch": 33,
                "velocity": 40,
                "duration": 0.17954545454546178,
                "tempo": 120.0
            },
            {
                "start_time": 75.01363636363637,
                "end_time": 75.20227272727273,
                "pitch": 33,
                "velocity": 40,
                "duration": 0.1886363636363626,
                "tempo": 120.0
            },
            {
                "start_time": 75.21818181818182,
                "end_time": 75.40681818181818,
                "pitch": 35,
                "velocity": 40,
                "duration": 0.1886363636363626,
                "tempo": 120.0
            },
            {
                "start_time": 75.425,
                "end_time": 75.60454545454544,
                "pitch": 36,
                "velocity": 40,
                "duration": 0.17954545454544757,
                "tempo": 120.0
            },
            {
                "start_time": 75.62045454545454,
                "end_time": 75.8,
                "pitch": 36,
                "velocity": 40,
                "duration": 0.17954545454546178,
                "tempo": 120.0
            },
            {
                "start_time": 75.81590909090909,
                "end_time": 76.00454545454545,
                "pitch": 36,
                "velocity": 40,
                "duration": 0.1886363636363626,
                "tempo": 120.0
            },
            {
                "start_time": 76.02045454545454,
                "end_time": 76.40681818181818,
                "pitch": 36,
                "velocity": 40,
                "duration": 0.38636363636364024,
                "tempo": 120.0
            },
            {
                "start_time": 76.42272727272727,
                "end_time": 76.60227272727272,
                "pitch": 36,
                "velocity": 40,
                "duration": 0.17954545454544757,
                "tempo": 120.0
            },
            {
                "start_time": 76.61818181818181,
                "end_time": 76.80227272727272,
                "pitch": 35,
                "velocity": 40,
                "duration": 0.1840909090909122,
                "tempo": 120.0
            },
            {
                "start_time": 76.81818181818181,
                "end_time": 77.00227272727273,
                "pitch": 36,
                "velocity": 40,
                "duration": 0.1840909090909122,
                "tempo": 120.0
            },
            {
                "start_time": 77.22045454545454,
                "end_time": 77.40454545454546,
                "pitch": 38,
                "velocity": 40,
                "duration": 0.1840909090909122,
                "tempo": 120.0
            },
            {
                "start_time": 77.62272727272727,
                "end_time": 77.80681818181817,
                "pitch": 37,
                "velocity": 40,
                "duration": 0.18409090909089798,
                "tempo": 120.0
            },
            {
                "start_time": 77.825,
                "end_time": 78.00681818181818,
                "pitch": 38,
                "velocity": 40,
                "duration": 0.18181818181817277,
                "tempo": 120.0
            },
            {
                "start_time": 78.02499999999999,
                "end_time": 78.20681818181818,
                "pitch": 40,
                "velocity": 40,
                "duration": 0.18181818181818699,
                "tempo": 120.0
            },
            {
                "start_time": 78.225,
                "end_time": 78.41363636363636,
                "pitch": 42,
                "velocity": 40,
                "duration": 0.1886363636363626,
                "tempo": 120.0
            },
            {
                "start_time": 78.42954545454545,
                "end_time": 78.61818181818181,
                "pitch": 42,
                "velocity": 40,
                "duration": 0.1886363636363626,
                "tempo": 120.0
            },
            {
                "start_time": 78.6340909090909,
                "end_time": 78.82045454545454,
                "pitch": 38,
                "velocity": 40,
                "duration": 0.1863636363636374,
                "tempo": 120.0
            },
            {
                "start_time": 78.83636363636363,
                "end_time": 79.02045454545454,
                "pitch": 38,
                "velocity": 40,
                "duration": 0.1840909090909122,
                "tempo": 120.0
            },
            {
                "start_time": 79.03863636363636,
                "end_time": 79.22272727272727,
                "pitch": 38,
                "velocity": 40,
                "duration": 0.1840909090909122,
                "tempo": 120.0
            },
            {
                "start_time": 79.23863636363636,
                "end_time": 79.62045454545454,
                "pitch": 38,
                "velocity": 40,
                "duration": 0.3818181818181756,
                "tempo": 120.0
            },
            {
                "start_time": 79.63636363636363,
                "end_time": 79.81590909090909,
                "pitch": 38,
                "velocity": 40,
                "duration": 0.17954545454546178,
                "tempo": 120.0
            },
            {
                "start_time": 79.83181818181818,
                "end_time": 80.01590909090909,
                "pitch": 38,
                "velocity": 40,
                "duration": 0.1840909090909122,
                "tempo": 120.0
            },
            {
                "start_time": 80.03181818181818,
                "end_time": 80.2159090909091,
                "pitch": 38,
                "velocity": 40,
                "duration": 0.1840909090909122,
                "tempo": 120.0
            },
            {
                "start_time": 80.23181818181818,
                "end_time": 80.81818181818181,
                "pitch": 35,
                "velocity": 40,
                "duration": 0.5863636363636289,
                "tempo": 120.0
            },
            {
                "start_time": 80.83636363636363,
                "end_time": 81.01818181818182,
                "pitch": 35,
                "velocity": 40,
                "duration": 0.18181818181818699,
                "tempo": 120.0
            },
            {
                "start_time": 81.03636363636363,
                "end_time": 81.42045454545455,
                "pitch": 35,
                "velocity": 40,
                "duration": 0.38409090909091503,
                "tempo": 120.0
            },
            {
                "start_time": 81.43863636363636,
                "end_time": 81.83181818181818,
                "pitch": 37,
                "velocity": 40,
                "duration": 0.39318181818181586,
                "tempo": 120.0
            },
            {
                "start_time": 81.85,
                "end_time": 82.02954545454546,
                "pitch": 35,
                "velocity": 40,
                "duration": 0.17954545454546178,
                "tempo": 120.0
            },
            {
                "start_time": 82.04545454545455,
                "end_time": 82.225,
                "pitch": 35,
                "velocity": 40,
                "duration": 0.17954545454544757,
                "tempo": 120.0
            },
            {
                "start_time": 82.24090909090908,
                "end_time": 82.425,
                "pitch": 35,
                "velocity": 40,
                "duration": 0.1840909090909122,
                "tempo": 120.0
            },
            {
                "start_time": 82.44318181818181,
                "end_time": 82.82727272727273,
                "pitch": 35,
                "velocity": 40,
                "duration": 0.38409090909091503,
                "tempo": 120.0
            },
            {
                "start_time": 82.84318181818182,
                "end_time": 83.02727272727272,
                "pitch": 35,
                "velocity": 40,
                "duration": 0.18409090909089798,
                "tempo": 120.0
            },
            {
                "start_time": 83.04318181818181,
                "end_time": 83.23181818181818,
                "pitch": 35,
                "velocity": 40,
                "duration": 0.1886363636363768,
                "tempo": 120.0
            },
            {
                "start_time": 83.25,
                "end_time": 83.43636363636364,
                "pitch": 35,
                "velocity": 40,
                "duration": 0.1863636363636374,
                "tempo": 120.0
            },
            {
                "start_time": 83.45454545454545,
                "end_time": 84.02954545454546,
                "pitch": 35,
                "velocity": 40,
                "duration": 0.5750000000000028,
                "tempo": 120.0
            },
            {
                "start_time": 84.04772727272727,
                "end_time": 84.22954545454544,
                "pitch": 35,
                "velocity": 40,
                "duration": 0.18181818181817277,
                "tempo": 120.0
            },
            {
                "start_time": 84.24772727272727,
                "end_time": 84.63181818181818,
                "pitch": 37,
                "velocity": 40,
                "duration": 0.3840909090909008,
                "tempo": 120.0
            },
            {
                "start_time": 84.64999999999999,
                "end_time": 85.03181818181818,
                "pitch": 38,
                "velocity": 40,
                "duration": 0.38181818181818983,
                "tempo": 120.0
            },
            {
                "start_time": 85.05,
                "end_time": 85.23409090909091,
                "pitch": 31,
                "velocity": 40,
                "duration": 0.1840909090909122,
                "tempo": 120.0
            },
            {
                "start_time": 85.25,
                "end_time": 85.43636363636364,
                "pitch": 31,
                "velocity": 40,
                "duration": 0.1863636363636374,
                "tempo": 120.0
            },
            {
                "start_time": 85.45227272727273,
                "end_time": 85.63636363636363,
                "pitch": 31,
                "velocity": 40,
                "duration": 0.18409090909089798,
                "tempo": 120.0
            },
            {
                "start_time": 85.65227272727272,
                "end_time": 86.03863636363636,
                "pitch": 31,
                "velocity": 40,
                "duration": 0.38636363636364024,
                "tempo": 120.0
            },
            {
                "start_time": 86.05454545454545,
                "end_time": 86.23863636363636,
                "pitch": 31,
                "velocity": 40,
                "duration": 0.1840909090909122,
                "tempo": 120.0
            },
            {
                "start_time": 86.25454545454545,
                "end_time": 86.44318181818181,
                "pitch": 31,
                "velocity": 40,
                "duration": 0.1886363636363626,
                "tempo": 120.0
            },
            {
                "start_time": 86.4590909090909,
                "end_time": 86.64772727272727,
                "pitch": 31,
                "velocity": 40,
                "duration": 0.1886363636363626,
                "tempo": 120.0
            },
            {
                "start_time": 86.66590909090908,
                "end_time": 86.84545454545454,
                "pitch": 33,
                "velocity": 40,
                "duration": 0.17954545454546178,
                "tempo": 120.0
            },
            {
                "start_time": 86.86136363636363,
                "end_time": 87.04090909090908,
                "pitch": 33,
                "velocity": 40,
                "duration": 0.17954545454544757,
                "tempo": 120.0
            },
            {
                "start_time": 87.05681818181817,
                "end_time": 87.24545454545454,
                "pitch": 33,
                "velocity": 40,
                "duration": 0.1886363636363626,
                "tempo": 120.0
            },
            {
                "start_time": 87.26363636363637,
                "end_time": 87.64772727272727,
                "pitch": 33,
                "velocity": 40,
                "duration": 0.3840909090909008,
                "tempo": 120.0
            },
            {
                "start_time": 87.66363636363636,
                "end_time": 87.84318181818182,
                "pitch": 33,
                "velocity": 40,
                "duration": 0.17954545454546178,
                "tempo": 120.0
            },
            {
                "start_time": 87.85909090909091,
                "end_time": 88.04772727272727,
                "pitch": 33,
                "velocity": 40,
                "duration": 0.1886363636363626,
                "tempo": 120.0
            },
            {
                "start_time": 88.06590909090909,
                "end_time": 88.25454545454545,
                "pitch": 35,
                "velocity": 40,
                "duration": 0.1886363636363626,
                "tempo": 120.0
            },
            {
                "start_time": 88.27045454545454,
                "end_time": 88.44999999999999,
                "pitch": 36,
                "velocity": 40,
                "duration": 0.17954545454544757,
                "tempo": 120.0
            },
            {
                "start_time": 88.4659090909091,
                "end_time": 88.64545454545454,
                "pitch": 36,
                "velocity": 40,
                "duration": 0.17954545454544757,
                "tempo": 120.0
            },
            {
                "start_time": 88.66363636363636,
                "end_time": 88.85,
                "pitch": 36,
                "velocity": 40,
                "duration": 0.1863636363636374,
                "tempo": 120.0
            },
            {
                "start_time": 88.86818181818181,
                "end_time": 89.25227272727273,
                "pitch": 36,
                "velocity": 40,
                "duration": 0.38409090909091503,
                "tempo": 120.0
            },
            {
                "start_time": 89.27045454545454,
                "end_time": 89.44999999999999,
                "pitch": 36,
                "velocity": 40,
                "duration": 0.17954545454544757,
                "tempo": 120.0
            },
            {
                "start_time": 89.4659090909091,
                "end_time": 89.65454545454546,
                "pitch": 35,
                "velocity": 40,
                "duration": 0.1886363636363626,
                "tempo": 120.0
            },
            {
                "start_time": 89.67045454545455,
                "end_time": 89.85909090909091,
                "pitch": 36,
                "velocity": 40,
                "duration": 0.1886363636363626,
                "tempo": 120.0
            },
            {
                "start_time": 90.07272727272726,
                "end_time": 90.25227272727273,
                "pitch": 38,
                "velocity": 40,
                "duration": 0.17954545454546178,
                "tempo": 120.0
            },
            {
                "start_time": 90.47045454545454,
                "end_time": 90.65454545454546,
                "pitch": 37,
                "velocity": 40,
                "duration": 0.1840909090909122,
                "tempo": 120.0
            },
            {
                "start_time": 90.67045454545455,
                "end_time": 90.85454545454544,
                "pitch": 38,
                "velocity": 40,
                "duration": 0.18409090909089798,
                "tempo": 120.0
            },
            {
                "start_time": 90.87045454545454,
                "end_time": 91.05454545454545,
                "pitch": 40,
                "velocity": 40,
                "duration": 0.1840909090909122,
                "tempo": 120.0
            },
            {
                "start_time": 91.07045454545454,
                "end_time": 91.2590909090909,
                "pitch": 42,
                "velocity": 40,
                "duration": 0.1886363636363626,
                "tempo": 120.0
            },
            {
                "start_time": 91.27499999999999,
                "end_time": 91.46363636363635,
                "pitch": 42,
                "velocity": 40,
                "duration": 0.1886363636363626,
                "tempo": 120.0
            },
            {
                "start_time": 91.48181818181818,
                "end_time": 91.66590909090908,
                "pitch": 38,
                "velocity": 40,
                "duration": 0.18409090909089798,
                "tempo": 120.0
            },
            {
                "start_time": 91.68181818181817,
                "end_time": 91.86590909090908,
                "pitch": 38,
                "velocity": 40,
                "duration": 0.1840909090909122,
                "tempo": 120.0
            },
            {
                "start_time": 91.88181818181818,
                "end_time": 92.06136363636364,
                "pitch": 38,
                "velocity": 40,
                "duration": 0.17954545454546178,
                "tempo": 120.0
            },
            {
                "start_time": 92.07727272727273,
                "end_time": 92.4590909090909,
                "pitch": 38,
                "velocity": 40,
                "duration": 0.3818181818181756,
                "tempo": 120.0
            },
            {
                "start_time": 92.475,
                "end_time": 92.6590909090909,
                "pitch": 38,
                "velocity": 40,
                "duration": 0.1840909090909122,
                "tempo": 120.0
            },
            {
                "start_time": 92.67727272727272,
                "end_time": 92.86590909090908,
                "pitch": 38,
                "velocity": 40,
                "duration": 0.1886363636363626,
                "tempo": 120.0
            },
            {
                "start_time": 92.88181818181818,
                "end_time": 93.07045454545454,
                "pitch": 38,
                "velocity": 40,
                "duration": 0.1886363636363626,
                "tempo": 120.0
            },
            {
                "start_time": 93.08636363636363,
                "end_time": 93.66363636363636,
                "pitch": 35,
                "velocity": 40,
                "duration": 0.577272727272728,
                "tempo": 120.0
            },
            {
                "start_time": 93.68181818181817,
                "end_time": 93.86590909090908,
                "pitch": 35,
                "velocity": 40,
                "duration": 0.1840909090909122,
                "tempo": 120.0
            },
            {
                "start_time": 93.88181818181818,
                "end_time": 94.26590909090909,
                "pitch": 35,
                "velocity": 40,
                "duration": 0.38409090909091503,
                "tempo": 120.0
            },
            {
                "start_time": 94.28181818181818,
                "end_time": 94.675,
                "pitch": 37,
                "velocity": 40,
                "duration": 0.39318181818181586,
                "tempo": 120.0
            },
            {
                "start_time": 94.69318181818181,
                "end_time": 94.87272727272727,
                "pitch": 35,
                "velocity": 40,
                "duration": 0.17954545454546178,
                "tempo": 120.0
            },
            {
                "start_time": 94.88863636363637,
                "end_time": 95.06818181818181,
                "pitch": 35,
                "velocity": 40,
                "duration": 0.17954545454544757,
                "tempo": 120.0
            },
            {
                "start_time": 95.0840909090909,
                "end_time": 95.27272727272727,
                "pitch": 35,
                "velocity": 40,
                "duration": 0.1886363636363626,
                "tempo": 120.0
            },
            {
                "start_time": 95.29090909090908,
                "end_time": 95.675,
                "pitch": 35,
                "velocity": 40,
                "duration": 0.38409090909091503,
                "tempo": 120.0
            },
            {
                "start_time": 95.69090909090909,
                "end_time": 95.87045454545454,
                "pitch": 35,
                "velocity": 40,
                "duration": 0.17954545454544757,
                "tempo": 120.0
            },
            {
                "start_time": 95.88863636363637,
                "end_time": 96.07499999999999,
                "pitch": 35,
                "velocity": 40,
                "duration": 0.1863636363636232,
                "tempo": 120.0
            },
            {
                "start_time": 96.09318181818182,
                "end_time": 96.28181818181818,
                "pitch": 35,
                "velocity": 40,
                "duration": 0.1886363636363626,
                "tempo": 120.0
            },
            {
                "start_time": 96.29772727272727,
                "end_time": 96.87272727272727,
                "pitch": 35,
                "velocity": 40,
                "duration": 0.5750000000000028,
                "tempo": 120.0
            },
            {
                "start_time": 96.89090909090909,
                "end_time": 97.07272727272726,
                "pitch": 35,
                "velocity": 40,
                "duration": 0.18181818181817277,
                "tempo": 120.0
            },
            {
                "start_time": 97.09090909090908,
                "end_time": 97.47727272727272,
                "pitch": 37,
                "velocity": 40,
                "duration": 0.38636363636364024,
                "tempo": 120.0
            },
            {
                "start_time": 97.49318181818181,
                "end_time": 97.88636363636363,
                "pitch": 38,
                "velocity": 40,
                "duration": 0.39318181818181586,
                "tempo": 120.0
            },
            {
                "start_time": 97.90454545454546,
                "end_time": 98.0840909090909,
                "pitch": 31,
                "velocity": 40,
                "duration": 0.17954545454544757,
                "tempo": 120.0
            },
            {
                "start_time": 98.1,
                "end_time": 98.27954545454546,
                "pitch": 31,
                "velocity": 40,
                "duration": 0.17954545454546178,
                "tempo": 120.0
            },
            {
                "start_time": 98.29545454545455,
                "end_time": 98.48409090909091,
                "pitch": 31,
                "velocity": 40,
                "duration": 0.1886363636363626,
                "tempo": 120.0
            },
            {
                "start_time": 98.5,
                "end_time": 98.88636363636363,
                "pitch": 31,
                "velocity": 40,
                "duration": 0.38636363636362603,
                "tempo": 120.0
            },
            {
                "start_time": 98.90227272727272,
                "end_time": 99.08181818181818,
                "pitch": 31,
                "velocity": 40,
                "duration": 0.17954545454546178,
                "tempo": 120.0
            },
            {
                "start_time": 99.09772727272727,
                "end_time": 99.28636363636363,
                "pitch": 31,
                "velocity": 40,
                "duration": 0.1886363636363626,
                "tempo": 120.0
            },
            {
                "start_time": 99.30454545454545,
                "end_time": 99.49318181818181,
                "pitch": 31,
                "velocity": 40,
                "duration": 0.1886363636363626,
                "tempo": 120.0
            },
            {
                "start_time": 99.5090909090909,
                "end_time": 99.68863636363636,
                "pitch": 33,
                "velocity": 40,
                "duration": 0.17954545454546178,
                "tempo": 120.0
            },
            {
                "start_time": 99.70454545454545,
                "end_time": 99.8840909090909,
                "pitch": 33,
                "velocity": 40,
                "duration": 0.17954545454544757,
                "tempo": 120.0
            },
            {
                "start_time": 99.90227272727272,
                "end_time": 100.08863636363635,
                "pitch": 33,
                "velocity": 40,
                "duration": 0.1863636363636374,
                "tempo": 120.0
            },
            {
                "start_time": 100.10681818181817,
                "end_time": 100.49090909090908,
                "pitch": 33,
                "velocity": 40,
                "duration": 0.38409090909091503,
                "tempo": 120.0
            },
            {
                "start_time": 100.50681818181818,
                "end_time": 100.68636363636364,
                "pitch": 33,
                "velocity": 40,
                "duration": 0.17954545454546178,
                "tempo": 120.0
            },
            {
                "start_time": 100.70454545454545,
                "end_time": 100.89090909090909,
                "pitch": 33,
                "velocity": 40,
                "duration": 0.1863636363636374,
                "tempo": 120.0
            },
            {
                "start_time": 100.9090909090909,
                "end_time": 101.09772727272727,
                "pitch": 35,
                "velocity": 40,
                "duration": 0.1886363636363626,
                "tempo": 120.0
            },
            {
                "start_time": 101.11363636363636,
                "end_time": 101.29318181818181,
                "pitch": 36,
                "velocity": 40,
                "duration": 0.17954545454544757,
                "tempo": 120.0
            },
            {
                "start_time": 101.31136363636364,
                "end_time": 101.49090909090908,
                "pitch": 36,
                "velocity": 40,
                "duration": 0.17954545454544757,
                "tempo": 120.0
            },
            {
                "start_time": 101.50681818181818,
                "end_time": 101.69545454545454,
                "pitch": 36,
                "velocity": 40,
                "duration": 0.1886363636363626,
                "tempo": 120.0
            },
            {
                "start_time": 101.71136363636363,
                "end_time": 102.09772727272727,
                "pitch": 36,
                "velocity": 40,
                "duration": 0.38636363636364024,
                "tempo": 120.0
            },
            {
                "start_time": 102.11363636363636,
                "end_time": 102.29318181818181,
                "pitch": 36,
                "velocity": 40,
                "duration": 0.17954545454544757,
                "tempo": 120.0
            },
            {
                "start_time": 102.3090909090909,
                "end_time": 102.49318181818181,
                "pitch": 35,
                "velocity": 40,
                "duration": 0.1840909090909122,
                "tempo": 120.0
            },
            {
                "start_time": 102.51136363636363,
                "end_time": 102.69545454545454,
                "pitch": 36,
                "velocity": 40,
                "duration": 0.1840909090909122,
                "tempo": 120.0
            },
            {
                "start_time": 102.91136363636363,
                "end_time": 103.09545454545454,
                "pitch": 38,
                "velocity": 40,
                "duration": 0.1840909090909122,
                "tempo": 120.0
            },
            {
                "start_time": 103.31363636363636,
                "end_time": 103.49772727272727,
                "pitch": 37,
                "velocity": 40,
                "duration": 0.1840909090909122,
                "tempo": 120.0
            },
            {
                "start_time": 103.51363636363637,
                "end_time": 103.69999999999999,
                "pitch": 38,
                "velocity": 40,
                "duration": 0.1863636363636232,
                "tempo": 120.0
            },
            {
                "start_time": 103.71590909090908,
                "end_time": 103.89999999999999,
                "pitch": 40,
                "velocity": 40,
                "duration": 0.1840909090909122,
                "tempo": 120.0
            },
            {
                "start_time": 103.91818181818181,
                "end_time": 104.10454545454544,
                "pitch": 42,
                "velocity": 40,
                "duration": 0.1863636363636374,
                "tempo": 120.0
            },
            {
                "start_time": 104.12272727272726,
                "end_time": 104.31136363636364,
                "pitch": 42,
                "velocity": 40,
                "duration": 0.1886363636363768,
                "tempo": 120.0
            },
            {
                "start_time": 104.32727272727273,
                "end_time": 104.51136363636363,
                "pitch": 38,
                "velocity": 40,
                "duration": 0.18409090909089798,
                "tempo": 120.0
            },
            {
                "start_time": 104.52727272727272,
                "end_time": 104.61136363636363,
                "pitch": 38,
                "velocity": 40,
                "duration": 0.08409090909091788,
                "tempo": 120.0
            },
            {
                "start_time": 104.62727272727273,
                "end_time": 104.71136363636363,
                "pitch": 38,
                "velocity": 40,
                "duration": 0.08409090909090366,
                "tempo": 120.0
            },
            {
                "start_time": 104.72727272727272,
                "end_time": 104.90681818181818,
                "pitch": 38,
                "velocity": 40,
                "duration": 0.17954545454546178,
                "tempo": 120.0
            },
            {
                "start_time": 104.925,
                "end_time": 105.00681818181818,
                "pitch": 38,
                "velocity": 40,
                "duration": 0.08181818181817846,
                "tempo": 120.0
            },
            {
                "start_time": 105.02272727272727,
                "end_time": 105.10454545454544,
                "pitch": 38,
                "velocity": 40,
                "duration": 0.08181818181817846,
                "tempo": 120.0
            },
            {
                "start_time": 105.12045454545454,
                "end_time": 105.30454545454545,
                "pitch": 38,
                "velocity": 40,
                "duration": 0.1840909090909122,
                "tempo": 120.0
            },
            {
                "start_time": 105.32272727272726,
                "end_time": 105.40454545454546,
                "pitch": 38,
                "velocity": 40,
                "duration": 0.08181818181819267,
                "tempo": 120.0
            },
            {
                "start_time": 105.42272727272727,
                "end_time": 105.50681818181818,
                "pitch": 38,
                "velocity": 40,
                "duration": 0.08409090909090366,
                "tempo": 120.0
            },
            {
                "start_time": 105.52272727272727,
                "end_time": 105.71136363636363,
                "pitch": 38,
                "velocity": 40,
                "duration": 0.1886363636363626,
                "tempo": 120.0
            },
            {
                "start_time": 105.72954545454544,
                "end_time": 105.81363636363636,
                "pitch": 38,
                "velocity": 40,
                "duration": 0.08409090909091788,
                "tempo": 120.0
            },
            {
                "start_time": 105.83181818181818,
                "end_time": 105.91590909090908,
                "pitch": 38,
                "velocity": 40,
                "duration": 0.08409090909090366,
                "tempo": 120.0
            },
            {
                "start_time": 105.9340909090909,
                "end_time": 106.11363636363636,
                "pitch": 38,
                "velocity": 40,
                "duration": 0.17954545454546178,
                "tempo": 120.0
            },
            {
                "start_time": 106.12954545454545,
                "end_time": 106.3090909090909,
                "pitch": 38,
                "velocity": 40,
                "duration": 0.17954545454544757,
                "tempo": 120.0
            },
            {
                "start_time": 106.32499999999999,
                "end_time": 106.51363636363637,
                "pitch": 38,
                "velocity": 40,
                "duration": 0.1886363636363768,
                "tempo": 120.0
            },
            {
                "start_time": 106.53181818181818,
                "end_time": 106.72045454545454,
                "pitch": 38,
                "velocity": 40,
                "duration": 0.1886363636363626,
                "tempo": 120.0
            },
            {
                "start_time": 106.73636363636363,
                "end_time": 106.91590909090908,
                "pitch": 38,
                "velocity": 40,
                "duration": 0.17954545454544757,
                "tempo": 120.0
            },
            {
                "start_time": 106.93181818181817,
                "end_time": 107.11136363636363,
                "pitch": 38,
                "velocity": 40,
                "duration": 0.17954545454546178,
                "tempo": 120.0
            },
            {
                "start_time": 107.12954545454545,
                "end_time": 107.31363636363636,
                "pitch": 38,
                "velocity": 40,
                "duration": 0.1840909090909122,
                "tempo": 120.0
            },
            {
                "start_time": 107.32954545454545,
                "end_time": 107.51363636363637,
                "pitch": 38,
                "velocity": 40,
                "duration": 0.1840909090909122,
                "tempo": 120.0
            },
            {
                "start_time": 107.53181818181818,
                "end_time": 107.71590909090908,
                "pitch": 31,
                "velocity": 40,
                "duration": 0.18409090909089798,
                "tempo": 120.0
            },
            {
                "start_time": 107.73181818181817,
                "end_time": 107.81590909090909,
                "pitch": 31,
                "velocity": 40,
                "duration": 0.08409090909091788,
                "tempo": 120.0
            },
            {
                "start_time": 107.8340909090909,
                "end_time": 107.91818181818181,
                "pitch": 31,
                "velocity": 40,
                "duration": 0.08409090909090366,
                "tempo": 120.0
            },
            {
                "start_time": 107.9340909090909,
                "end_time": 108.12272727272726,
                "pitch": 31,
                "velocity": 40,
                "duration": 0.1886363636363626,
                "tempo": 120.0
            },
            {
                "start_time": 108.13863636363637,
                "end_time": 108.225,
                "pitch": 31,
                "velocity": 40,
                "duration": 0.08636363636362887,
                "tempo": 120.0
            },
            {
                "start_time": 108.24318181818181,
                "end_time": 108.32727272727273,
                "pitch": 31,
                "velocity": 40,
                "duration": 0.08409090909091788,
                "tempo": 120.0
            },
            {
                "start_time": 108.34545454545454,
                "end_time": 108.52499999999999,
                "pitch": 31,
                "velocity": 40,
                "duration": 0.17954545454544757,
                "tempo": 120.0
            },
            {
                "start_time": 108.54090909090908,
                "end_time": 108.62272727272726,
                "pitch": 31,
                "velocity": 40,
                "duration": 0.08181818181817846,
                "tempo": 120.0
            },
            {
                "start_time": 108.63863636363637,
                "end_time": 108.72045454545454,
                "pitch": 31,
                "velocity": 40,
                "duration": 0.08181818181817846,
                "tempo": 120.0
            },
            {
                "start_time": 108.73636363636363,
                "end_time": 108.925,
                "pitch": 31,
                "velocity": 40,
                "duration": 0.1886363636363626,
                "tempo": 120.0
            },
            {
                "start_time": 108.94090909090909,
                "end_time": 109.02727272727272,
                "pitch": 31,
                "velocity": 40,
                "duration": 0.08636363636362887,
                "tempo": 120.0
            },
            {
                "start_time": 109.04545454545455,
                "end_time": 109.12954545454545,
                "pitch": 31,
                "velocity": 40,
                "duration": 0.08409090909090366,
                "tempo": 120.0
            },
            {
                "start_time": 109.14772727272727,
                "end_time": 109.32727272727273,
                "pitch": 31,
                "velocity": 40,
                "duration": 0.17954545454546178,
                "tempo": 120.0
            },
            {
                "start_time": 109.34318181818182,
                "end_time": 109.52272727272727,
                "pitch": 31,
                "velocity": 40,
                "duration": 0.17954545454544757,
                "tempo": 120.0
            },
            {
                "start_time": 109.53863636363636,
                "end_time": 109.72727272727272,
                "pitch": 31,
                "velocity": 40,
                "duration": 0.1886363636363626,
                "tempo": 120.0
            },
            {
                "start_time": 109.74545454545454,
                "end_time": 109.9340909090909,
                "pitch": 31,
                "velocity": 40,
                "duration": 0.1886363636363626,
                "tempo": 120.0
            },
            {
                "start_time": 109.94999999999999,
                "end_time": 110.12954545454545,
                "pitch": 31,
                "velocity": 40,
                "duration": 0.17954545454546178,
                "tempo": 120.0
            },
            {
                "start_time": 110.14545454545454,
                "end_time": 110.32499999999999,
                "pitch": 31,
                "velocity": 40,
                "duration": 0.17954545454544757,
                "tempo": 120.0
            },
            {
                "start_time": 110.34318181818182,
                "end_time": 110.52954545454546,
                "pitch": 31,
                "velocity": 40,
                "duration": 0.1863636363636374,
                "tempo": 120.0
            },
            {
                "start_time": 110.54772727272727,
                "end_time": 110.73636363636363,
                "pitch": 31,
                "velocity": 40,
                "duration": 0.1886363636363626,
                "tempo": 120.0
            },
            {
                "start_time": 110.75227272727273,
                "end_time": 110.93181818181817,
                "pitch": 35,
                "velocity": 40,
                "duration": 0.17954545454544757,
                "tempo": 120.0
            },
            {
                "start_time": 110.94772727272726,
                "end_time": 111.02954545454546,
                "pitch": 35,
                "velocity": 40,
                "duration": 0.08181818181819267,
                "tempo": 120.0
            },
            {
                "start_time": 111.04772727272727,
                "end_time": 111.12954545454545,
                "pitch": 35,
                "velocity": 40,
                "duration": 0.08181818181817846,
                "tempo": 120.0
            },
            {
                "start_time": 111.14545454545454,
                "end_time": 111.33181818181818,
                "pitch": 35,
                "velocity": 40,
                "duration": 0.1863636363636374,
                "tempo": 120.0
            },
            {
                "start_time": 111.35,
                "end_time": 111.43636363636364,
                "pitch": 35,
                "velocity": 40,
                "duration": 0.08636363636364308,
                "tempo": 120.0
            },
            {
                "start_time": 111.45227272727273,
                "end_time": 111.53863636363636,
                "pitch": 35,
                "velocity": 40,
                "duration": 0.08636363636362887,
                "tempo": 120.0
            },
            {
                "start_time": 111.55454545454545,
                "end_time": 111.73409090909091,
                "pitch": 35,
                "velocity": 40,
                "duration": 0.17954545454546178,
                "tempo": 120.0
            },
            {
                "start_time": 111.75227272727273,
                "end_time": 111.8340909090909,
                "pitch": 35,
                "velocity": 40,
                "duration": 0.08181818181817846,
                "tempo": 120.0
            },
            {
                "start_time": 111.85,
                "end_time": 111.93181818181817,
                "pitch": 35,
                "velocity": 40,
                "duration": 0.08181818181817846,
                "tempo": 120.0
            },
            {
                "start_time": 111.94772727272726,
                "end_time": 112.13636363636363,
                "pitch": 35,
                "velocity": 40,
                "duration": 0.1886363636363626,
                "tempo": 120.0
            },
            {
                "start_time": 112.15227272727272,
                "end_time": 112.23863636363636,
                "pitch": 35,
                "velocity": 40,
                "duration": 0.08636363636364308,
                "tempo": 120.0
            },
            {
                "start_time": 112.25454545454545,
                "end_time": 112.34090909090908,
                "pitch": 35,
                "velocity": 40,
                "duration": 0.08636363636362887,
                "tempo": 120.0
            },
            {
                "start_time": 112.35681818181817,
                "end_time": 112.53863636363636,
                "pitch": 35,
                "velocity": 40,
                "duration": 0.18181818181818699,
                "tempo": 120.0
            },
            {
                "start_time": 112.55454545454545,
                "end_time": 112.73409090909091,
                "pitch": 35,
                "velocity": 40,
                "duration": 0.17954545454546178,
                "tempo": 120.0
            },
            {
                "start_time": 112.75,
                "end_time": 112.93863636363636,
                "pitch": 35,
                "velocity": 40,
                "duration": 0.1886363636363626,
                "tempo": 120.0
            },
            {
                "start_time": 112.95454545454545,
                "end_time": 113.14318181818182,
                "pitch": 35,
                "velocity": 40,
                "duration": 0.1886363636363626,
                "tempo": 120.0
            },
            {
                "start_time": 113.16136363636363,
                "end_time": 113.34090909090908,
                "pitch": 35,
                "velocity": 40,
                "duration": 0.17954545454544757,
                "tempo": 120.0
            },
            {
                "start_time": 113.35681818181817,
                "end_time": 113.53636363636363,
                "pitch": 35,
                "velocity": 40,
                "duration": 0.17954545454546178,
                "tempo": 120.0
            },
            {
                "start_time": 113.55227272727272,
                "end_time": 113.74090909090908,
                "pitch": 35,
                "velocity": 40,
                "duration": 0.1886363636363626,
                "tempo": 120.0
            },
            {
                "start_time": 113.75681818181818,
                "end_time": 113.94545454545454,
                "pitch": 35,
                "velocity": 40,
                "duration": 0.1886363636363626,
                "tempo": 120.0
            },
            {
                "start_time": 113.96363636363635,
                "end_time": 114.14318181818182,
                "pitch": 36,
                "velocity": 40,
                "duration": 0.17954545454546178,
                "tempo": 120.0
            },
            {
                "start_time": 114.1590909090909,
                "end_time": 114.24090909090908,
                "pitch": 36,
                "velocity": 40,
                "duration": 0.08181818181817846,
                "tempo": 120.0
            },
            {
                "start_time": 114.25681818181818,
                "end_time": 114.33863636363635,
                "pitch": 36,
                "velocity": 40,
                "duration": 0.08181818181817846,
                "tempo": 120.0
            },
            {
                "start_time": 114.35454545454544,
                "end_time": 114.54318181818181,
                "pitch": 36,
                "velocity": 40,
                "duration": 0.1886363636363626,
                "tempo": 120.0
            },
            {
                "start_time": 114.56136363636364,
                "end_time": 114.64545454545454,
                "pitch": 36,
                "velocity": 40,
                "duration": 0.08409090909090366,
                "tempo": 120.0
            },
            {
                "start_time": 114.66363636363636,
                "end_time": 114.75,
                "pitch": 36,
                "velocity": 40,
                "duration": 0.08636363636364308,
                "tempo": 120.0
            },
            {
                "start_time": 114.76590909090909,
                "end_time": 114.94545454545454,
                "pitch": 36,
                "velocity": 40,
                "duration": 0.17954545454544757,
                "tempo": 120.0
            },
            {
                "start_time": 114.96136363636363,
                "end_time": 115.04318181818181,
                "pitch": 36,
                "velocity": 40,
                "duration": 0.08181818181817846,
                "tempo": 120.0
            },
            {
                "start_time": 115.0590909090909,
                "end_time": 115.14090909090909,
                "pitch": 36,
                "velocity": 40,
                "duration": 0.08181818181819267,
                "tempo": 120.0
            },
            {
                "start_time": 115.1590909090909,
                "end_time": 115.34318181818182,
                "pitch": 36,
                "velocity": 40,
                "duration": 0.1840909090909122,
                "tempo": 120.0
            },
            {
                "start_time": 115.35909090909091,
                "end_time": 115.44318181818181,
                "pitch": 36,
                "velocity": 40,
                "duration": 0.08409090909090366,
                "tempo": 120.0
            },
            {
                "start_time": 115.4590909090909,
                "end_time": 115.54318181818181,
                "pitch": 36,
                "velocity": 40,
                "duration": 0.08409090909090366,
                "tempo": 120.0
            },
            {
                "start_time": 115.56136363636364,
                "end_time": 115.74545454545454,
                "pitch": 38,
                "velocity": 40,
                "duration": 0.18409090909089798,
                "tempo": 120.0
            },
            {
                "start_time": 115.76136363636363,
                "end_time": 115.94772727272726,
                "pitch": 38,
                "velocity": 40,
                "duration": 0.1863636363636374,
                "tempo": 120.0
            },
            {
                "start_time": 115.96363636363635,
                "end_time": 116.15227272727272,
                "pitch": 38,
                "velocity": 40,
                "duration": 0.1886363636363626,
                "tempo": 120.0
            },
            {
                "start_time": 116.16818181818181,
                "end_time": 116.35681818181817,
                "pitch": 38,
                "velocity": 40,
                "duration": 0.1886363636363626,
                "tempo": 120.0
            },
            {
                "start_time": 116.375,
                "end_time": 116.55454545454545,
                "pitch": 38,
                "velocity": 40,
                "duration": 0.17954545454544757,
                "tempo": 120.0
            },
            {
                "start_time": 116.57045454545454,
                "end_time": 116.75,
                "pitch": 38,
                "velocity": 40,
                "duration": 0.17954545454546178,
                "tempo": 120.0
            },
            {
                "start_time": 116.76590909090909,
                "end_time": 116.95454545454545,
                "pitch": 38,
                "velocity": 40,
                "duration": 0.1886363636363626,
                "tempo": 120.0
            },
            {
                "start_time": 116.97045454545454,
                "end_time": 117.05681818181817,
                "pitch": 38,
                "velocity": 40,
                "duration": 0.08636363636362887,
                "tempo": 120.0
            },
            {
                "start_time": 117.07499999999999,
                "end_time": 117.1590909090909,
                "pitch": 38,
                "velocity": 40,
                "duration": 0.08409090909091788,
                "tempo": 120.0
            },
            {
                "start_time": 117.17727272727272,
                "end_time": 117.36136363636363,
                "pitch": 38,
                "velocity": 40,
                "duration": 0.1840909090909122,
                "tempo": 120.0
            },
            {
                "start_time": 117.37954545454545,
                "end_time": 117.56363636363636,
                "pitch": 38,
                "velocity": 40,
                "duration": 0.1840909090909122,
                "tempo": 120.0
            },
            {
                "start_time": 117.57954545454545,
                "end_time": 117.76363636363635,
                "pitch": 38,
                "velocity": 40,
                "duration": 0.18409090909089798,
                "tempo": 120.0
            },
            {
                "start_time": 117.77954545454544,
                "end_time": 118.1590909090909,
                "pitch": 38,
                "velocity": 40,
                "duration": 0.3795454545454646,
                "tempo": 120.0
            },
            {
                "start_time": 118.175,
                "end_time": 118.35454545454544,
                "pitch": 38,
                "velocity": 40,
                "duration": 0.17954545454544757,
                "tempo": 120.0
            },
            {
                "start_time": 118.37272727272726,
                "end_time": 118.5590909090909,
                "pitch": 38,
                "velocity": 40,
                "duration": 0.1863636363636374,
                "tempo": 120.0
            },
            {
                "start_time": 118.57727272727273,
                "end_time": 118.76590909090909,
                "pitch": 38,
                "velocity": 40,
                "duration": 0.1886363636363626,
                "tempo": 120.0
            },
            {
                "start_time": 118.78181818181818,
                "end_time": 119.35909090909091,
                "pitch": 35,
                "velocity": 40,
                "duration": 0.577272727272728,
                "tempo": 120.0
            },
            {
                "start_time": 119.375,
                "end_time": 119.56136363636364,
                "pitch": 35,
                "velocity": 40,
                "duration": 0.1863636363636374,
                "tempo": 120.0
            },
            {
                "start_time": 119.57727272727273,
                "end_time": 119.96363636363635,
                "pitch": 35,
                "velocity": 40,
                "duration": 0.38636363636362603,
                "tempo": 120.0
            },
            {
                "start_time": 119.97954545454544,
                "end_time": 120.36363636363636,
                "pitch": 37,
                "velocity": 40,
                "duration": 0.38409090909091503,
                "tempo": 120.0
            },
            {
                "start_time": 120.37954545454545,
                "end_time": 120.56363636363636,
                "pitch": 35,
                "velocity": 40,
                "duration": 0.1840909090909122,
                "tempo": 120.0
            },
            {
                "start_time": 120.58181818181818,
                "end_time": 120.76590909090909,
                "pitch": 35,
                "velocity": 40,
                "duration": 0.1840909090909122,
                "tempo": 120.0
            },
            {
                "start_time": 120.78181818181818,
                "end_time": 120.96590909090908,
                "pitch": 35,
                "velocity": 40,
                "duration": 0.18409090909089798,
                "tempo": 120.0
            },
            {
                "start_time": 120.98181818181817,
                "end_time": 121.36818181818181,
                "pitch": 35,
                "velocity": 40,
                "duration": 0.38636363636364024,
                "tempo": 120.0
            },
            {
                "start_time": 121.3840909090909,
                "end_time": 121.56818181818181,
                "pitch": 35,
                "velocity": 40,
                "duration": 0.1840909090909122,
                "tempo": 120.0
            },
            {
                "start_time": 121.58636363636363,
                "end_time": 121.77272727272727,
                "pitch": 35,
                "velocity": 40,
                "duration": 0.1863636363636374,
                "tempo": 120.0
            },
            {
                "start_time": 121.79090909090908,
                "end_time": 121.97954545454544,
                "pitch": 35,
                "velocity": 40,
                "duration": 0.1886363636363626,
                "tempo": 120.0
            },
            {
                "start_time": 121.99545454545454,
                "end_time": 122.57727272727273,
                "pitch": 35,
                "velocity": 40,
                "duration": 0.5818181818181927,
                "tempo": 120.0
            },
            {
                "start_time": 122.59318181818182,
                "end_time": 122.78181818181818,
                "pitch": 35,
                "velocity": 40,
                "duration": 0.1886363636363626,
                "tempo": 120.0
            },
            {
                "start_time": 122.79772727272727,
                "end_time": 123.175,
                "pitch": 37,
                "velocity": 40,
                "duration": 0.3772727272727252,
                "tempo": 120.0
            },
            {
                "start_time": 123.19090909090909,
                "end_time": 123.57727272727273,
                "pitch": 38,
                "velocity": 40,
                "duration": 0.38636363636364024,
                "tempo": 120.0
            },
            {
                "start_time": 123.59318181818182,
                "end_time": 123.77727272727272,
                "pitch": 31,
                "velocity": 40,
                "duration": 0.18409090909089798,
                "tempo": 120.0
            },
            {
                "start_time": 123.79545454545453,
                "end_time": 123.97954545454544,
                "pitch": 31,
                "velocity": 40,
                "duration": 0.1840909090909122,
                "tempo": 120.0
            },
            {
                "start_time": 123.99545454545454,
                "end_time": 124.1840909090909,
                "pitch": 31,
                "velocity": 40,
                "duration": 0.1886363636363626,
                "tempo": 120.0
            },
            {
                "start_time": 124.20227272727273,
                "end_time": 124.58636363636363,
                "pitch": 31,
                "velocity": 40,
                "duration": 0.3840909090909008,
                "tempo": 120.0
            },
            {
                "start_time": 124.60227272727272,
                "end_time": 124.78181818181818,
                "pitch": 31,
                "velocity": 40,
                "duration": 0.17954545454546178,
                "tempo": 120.0
            },
            {
                "start_time": 124.8,
                "end_time": 124.98181818181817,
                "pitch": 31,
                "velocity": 40,
                "duration": 0.18181818181817277,
                "tempo": 120.0
            },
            {
                "start_time": 125.0,
                "end_time": 125.18181818181817,
                "pitch": 31,
                "velocity": 40,
                "duration": 0.18181818181817277,
                "tempo": 120.0
            },
            {
                "start_time": 125.19999999999999,
                "end_time": 125.3840909090909,
                "pitch": 33,
                "velocity": 40,
                "duration": 0.1840909090909122,
                "tempo": 120.0
            },
            {
                "start_time": 125.39999999999999,
                "end_time": 125.5840909090909,
                "pitch": 33,
                "velocity": 40,
                "duration": 0.1840909090909122,
                "tempo": 120.0
            },
            {
                "start_time": 125.60227272727272,
                "end_time": 125.78636363636363,
                "pitch": 33,
                "velocity": 40,
                "duration": 0.1840909090909122,
                "tempo": 120.0
            },
            {
                "start_time": 125.80227272727272,
                "end_time": 126.18863636363636,
                "pitch": 33,
                "velocity": 40,
                "duration": 0.38636363636364024,
                "tempo": 120.0
            },
            {
                "start_time": 126.20454545454545,
                "end_time": 126.38863636363635,
                "pitch": 33,
                "velocity": 40,
                "duration": 0.18409090909089798,
                "tempo": 120.0
            },
            {
                "start_time": 126.40454545454544,
                "end_time": 126.59318181818182,
                "pitch": 33,
                "velocity": 40,
                "duration": 0.1886363636363768,
                "tempo": 120.0
            },
            {
                "start_time": 126.60909090909091,
                "end_time": 126.79772727272727,
                "pitch": 35,
                "velocity": 40,
                "duration": 0.1886363636363626,
                "tempo": 120.0
            },
            {
                "start_time": 126.81590909090909,
                "end_time": 126.99545454545454,
                "pitch": 36,
                "velocity": 40,
                "duration": 0.17954545454544757,
                "tempo": 120.0
            },
            {
                "start_time": 127.01136363636363,
                "end_time": 127.19090909090909,
                "pitch": 36,
                "velocity": 40,
                "duration": 0.17954545454546178,
                "tempo": 120.0
            },
            {
                "start_time": 127.20681818181818,
                "end_time": 127.39545454545454,
                "pitch": 36,
                "velocity": 40,
                "duration": 0.1886363636363626,
                "tempo": 120.0
            },
            {
                "start_time": 127.41363636363636,
                "end_time": 127.79772727272727,
                "pitch": 36,
                "velocity": 40,
                "duration": 0.38409090909091503,
                "tempo": 120.0
            },
            {
                "start_time": 127.81363636363636,
                "end_time": 127.99318181818181,
                "pitch": 36,
                "velocity": 40,
                "duration": 0.17954545454544757,
                "tempo": 120.0
            },
            {
                "start_time": 128.0090909090909,
                "end_time": 128.19772727272726,
                "pitch": 35,
                "velocity": 40,
                "duration": 0.1886363636363626,
                "tempo": 120.0
            },
            {
                "start_time": 128.2159090909091,
                "end_time": 128.40454545454546,
                "pitch": 36,
                "velocity": 40,
                "duration": 0.1886363636363626,
                "tempo": 120.0
            },
            {
                "start_time": 128.61590909090907,
                "end_time": 128.79545454545453,
                "pitch": 38,
                "velocity": 40,
                "duration": 0.17954545454546178,
                "tempo": 120.0
            },
            {
                "start_time": 129.01363636363635,
                "end_time": 129.19545454545454,
                "pitch": 37,
                "velocity": 40,
                "duration": 0.18181818181818699,
                "tempo": 120.0
            },
            {
                "start_time": 129.21363636363637,
                "end_time": 129.39772727272728,
                "pitch": 38,
                "velocity": 40,
                "duration": 0.1840909090909122,
                "tempo": 120.0
            },
            {
                "start_time": 129.41363636363636,
                "end_time": 129.59772727272727,
                "pitch": 40,
                "velocity": 40,
                "duration": 0.1840909090909122,
                "tempo": 120.0
            },
            {
                "start_time": 129.61590909090907,
                "end_time": 129.80454545454546,
                "pitch": 42,
                "velocity": 40,
                "duration": 0.18863636363639102,
                "tempo": 120.0
            },
            {
                "start_time": 129.82045454545454,
                "end_time": 130.0090909090909,
                "pitch": 42,
                "velocity": 40,
                "duration": 0.1886363636363626,
                "tempo": 120.0
            },
            {
                "start_time": 130.02727272727273,
                "end_time": 130.21136363636364,
                "pitch": 38,
                "velocity": 40,
                "duration": 0.1840909090909122,
                "tempo": 120.0
            },
            {
                "start_time": 130.22727272727272,
                "end_time": 130.41136363636363,
                "pitch": 38,
                "velocity": 40,
                "duration": 0.1840909090909122,
                "tempo": 120.0
            },
            {
                "start_time": 130.42954545454546,
                "end_time": 130.6090909090909,
                "pitch": 38,
                "velocity": 40,
                "duration": 0.17954545454543336,
                "tempo": 120.0
            },
            {
                "start_time": 130.625,
                "end_time": 131.00681818181818,
                "pitch": 38,
                "velocity": 40,
                "duration": 0.3818181818181756,
                "tempo": 120.0
            },
            {
                "start_time": 131.02272727272728,
                "end_time": 131.20681818181816,
                "pitch": 38,
                "velocity": 40,
                "duration": 0.18409090909088377,
                "tempo": 120.0
            },
            {
                "start_time": 131.225,
                "end_time": 131.4090909090909,
                "pitch": 38,
                "velocity": 40,
                "duration": 0.1840909090909122,
                "tempo": 120.0
            },
            {
                "start_time": 131.42499999999998,
                "end_time": 131.6090909090909,
                "pitch": 38,
                "velocity": 40,
                "duration": 0.1840909090909122,
                "tempo": 120.0
            },
            {
                "start_time": 131.62727272727273,
                "end_time": 132.21363636363637,
                "pitch": 35,
                "velocity": 40,
                "duration": 0.5863636363636431,
                "tempo": 120.0
            },
            {
                "start_time": 132.22954545454544,
                "end_time": 132.41590909090908,
                "pitch": 35,
                "velocity": 40,
                "duration": 0.1863636363636374,
                "tempo": 120.0
            },
            {
                "start_time": 132.4318181818182,
                "end_time": 132.8159090909091,
                "pitch": 35,
                "velocity": 40,
                "duration": 0.3840909090909008,
                "tempo": 120.0
            },
            {
                "start_time": 132.83181818181816,
                "end_time": 133.21818181818182,
                "pitch": 37,
                "velocity": 40,
                "duration": 0.38636363636365445,
                "tempo": 120.0
            },
            {
                "start_time": 133.2340909090909,
                "end_time": 133.4181818181818,
                "pitch": 35,
                "velocity": 40,
                "duration": 0.1840909090909122,
                "tempo": 120.0
            },
            {
                "start_time": 133.43636363636364,
                "end_time": 133.62045454545455,
                "pitch": 35,
                "velocity": 40,
                "duration": 0.1840909090909122,
                "tempo": 120.0
            },
            {
                "start_time": 133.63636363636363,
                "end_time": 133.825,
                "pitch": 35,
                "velocity": 40,
                "duration": 0.1886363636363626,
                "tempo": 120.0
            },
            {
                "start_time": 133.84318181818182,
                "end_time": 134.22727272727272,
                "pitch": 35,
                "velocity": 40,
                "duration": 0.3840909090909008,
                "tempo": 120.0
            },
            {
                "start_time": 134.24318181818182,
                "end_time": 134.42272727272726,
                "pitch": 35,
                "velocity": 40,
                "duration": 0.17954545454543336,
                "tempo": 120.0
            },
            {
                "start_time": 134.4409090909091,
                "end_time": 134.62727272727273,
                "pitch": 35,
                "velocity": 40,
                "duration": 0.1863636363636374,
                "tempo": 120.0
            },
            {
                "start_time": 134.64545454545453,
                "end_time": 134.8340909090909,
                "pitch": 35,
                "velocity": 40,
                "duration": 0.1886363636363626,
                "tempo": 120.0
            },
            {
                "start_time": 134.85,
                "end_time": 135.4272727272727,
                "pitch": 35,
                "velocity": 40,
                "duration": 0.5772727272727138,
                "tempo": 120.0
            },
            {
                "start_time": 135.4431818181818,
                "end_time": 135.62954545454545,
                "pitch": 35,
                "velocity": 40,
                "duration": 0.1863636363636374,
                "tempo": 120.0
            },
            {
                "start_time": 135.64545454545453,
                "end_time": 136.03181818181818,
                "pitch": 37,
                "velocity": 40,
                "duration": 0.38636363636365445,
                "tempo": 120.0
            },
            {
                "start_time": 136.04772727272726,
                "end_time": 136.4340909090909,
                "pitch": 38,
                "velocity": 40,
                "duration": 0.38636363636365445,
                "tempo": 120.0
            },
            {
                "start_time": 136.45,
                "end_time": 136.6340909090909,
                "pitch": 31,
                "velocity": 40,
                "duration": 0.1840909090909122,
                "tempo": 120.0
            },
            {
                "start_time": 136.65,
                "end_time": 136.8340909090909,
                "pitch": 31,
                "velocity": 40,
                "duration": 0.18409090909088377,
                "tempo": 120.0
            },
            {
                "start_time": 136.85,
                "end_time": 137.03636363636363,
                "pitch": 31,
                "velocity": 40,
                "duration": 0.1863636363636374,
                "tempo": 120.0
            },
            {
                "start_time": 137.0522727272727,
                "end_time": 137.43863636363636,
                "pitch": 31,
                "velocity": 40,
                "duration": 0.38636363636365445,
                "tempo": 120.0
            },
            {
                "start_time": 137.45454545454544,
                "end_time": 137.63863636363635,
                "pitch": 31,
                "velocity": 40,
                "duration": 0.1840909090909122,
                "tempo": 120.0
            },
            {
                "start_time": 137.65681818181818,
                "end_time": 137.84545454545454,
                "pitch": 31,
                "velocity": 40,
                "duration": 0.1886363636363626,
                "tempo": 120.0
            },
            {
                "start_time": 137.86136363636362,
                "end_time": 138.04999999999998,
                "pitch": 31,
                "velocity": 40,
                "duration": 0.1886363636363626,
                "tempo": 120.0
            },
            {
                "start_time": 138.0659090909091,
                "end_time": 138.24772727272727,
                "pitch": 33,
                "velocity": 40,
                "duration": 0.18181818181818699,
                "tempo": 120.0
            },
            {
                "start_time": 138.26363636363635,
                "end_time": 138.4431818181818,
                "pitch": 33,
                "velocity": 40,
                "duration": 0.17954545454546178,
                "tempo": 120.0
            },
            {
                "start_time": 138.4590909090909,
                "end_time": 138.64772727272725,
                "pitch": 33,
                "velocity": 40,
                "duration": 0.1886363636363626,
                "tempo": 120.0
            },
            {
                "start_time": 138.66363636363636,
                "end_time": 139.04999999999998,
                "pitch": 33,
                "velocity": 40,
                "duration": 0.38636363636362603,
                "tempo": 120.0
            },
            {
                "start_time": 139.0659090909091,
                "end_time": 139.24545454545455,
                "pitch": 33,
                "velocity": 40,
                "duration": 0.17954545454546178,
                "tempo": 120.0
            },
            {
                "start_time": 139.26136363636363,
                "end_time": 139.45,
                "pitch": 33,
                "velocity": 40,
                "duration": 0.1886363636363626,
                "tempo": 120.0
            },
            {
                "start_time": 139.4659090909091,
                "end_time": 139.65454545454546,
                "pitch": 35,
                "velocity": 40,
                "duration": 0.1886363636363626,
                "tempo": 120.0
            },
            {
                "start_time": 139.67272727272726,
                "end_time": 139.85227272727272,
                "pitch": 36,
                "velocity": 40,
                "duration": 0.17954545454546178,
                "tempo": 120.0
            },
            {
                "start_time": 139.86818181818182,
                "end_time": 140.04772727272726,
                "pitch": 36,
                "velocity": 40,
                "duration": 0.17954545454543336,
                "tempo": 120.0
            },
            {
                "start_time": 140.06363636363636,
                "end_time": 140.25227272727273,
                "pitch": 36,
                "velocity": 40,
                "duration": 0.1886363636363626,
                "tempo": 120.0
            },
            {
                "start_time": 140.27045454545453,
                "end_time": 140.65454545454546,
                "pitch": 36,
                "velocity": 40,
                "duration": 0.38409090909092924,
                "tempo": 120.0
            },
            {
                "start_time": 140.67045454545453,
                "end_time": 140.85,
                "pitch": 36,
                "velocity": 40,
                "duration": 0.17954545454546178,
                "tempo": 120.0
            },
            {
                "start_time": 140.86818181818182,
                "end_time": 141.05454545454546,
                "pitch": 35,
                "velocity": 40,
                "duration": 0.1863636363636374,
                "tempo": 120.0
            },
            {
                "start_time": 141.07272727272726,
                "end_time": 141.26136363636363,
                "pitch": 36,
                "velocity": 40,
                "duration": 0.1886363636363626,
                "tempo": 120.0
            },
            {
                "start_time": 141.47272727272727,
                "end_time": 141.65227272727273,
                "pitch": 38,
                "velocity": 40,
                "duration": 0.17954545454546178,
                "tempo": 120.0
            },
            {
                "start_time": 141.87045454545455,
                "end_time": 142.0568181818182,
                "pitch": 37,
                "velocity": 40,
                "duration": 0.1863636363636374,
                "tempo": 120.0
            },
            {
                "start_time": 142.07272727272726,
                "end_time": 142.25681818181818,
                "pitch": 38,
                "velocity": 40,
                "duration": 0.1840909090909122,
                "tempo": 120.0
            },
            {
                "start_time": 142.27272727272725,
                "end_time": 142.4590909090909,
                "pitch": 40,
                "velocity": 40,
                "duration": 0.1863636363636374,
                "tempo": 120.0
            },
            {
                "start_time": 142.475,
                "end_time": 142.66363636363636,
                "pitch": 42,
                "velocity": 40,
                "duration": 0.1886363636363626,
                "tempo": 120.0
            },
            {
                "start_time": 142.67954545454546,
                "end_time": 142.86818181818182,
                "pitch": 42,
                "velocity": 40,
                "duration": 0.1886363636363626,
                "tempo": 120.0
            }
        ]
    }
}