{
    "track_id": "Altered Beast (FM) - 01 - Werewolf _ Gold Werewolf",
    "mood": "happy",
    "instruments": {
        "Church Organ": [
            {
                "start_time": 0.0,
                "end_time": 0.28409090909090906,
                "pitch": 60,
                "velocity": 64,
                "duration": 0.28409090909090906,
                "tempo": 120.0
            },
            {
                "start_time": 0.29772727272727273,
                "end_time": 0.3818181818181818,
                "pitch": 60,
                "velocity": 64,
                "duration": 0.08409090909090905,
                "tempo": 120.0
            },
            {
                "start_time": 0.39999999999999997,
                "end_time": 1.0795454545454546,
                "pitch": 67,
                "velocity": 64,
                "duration": 0.6795454545454547,
                "tempo": 120.0
            },
            {
                "start_time": 1.0977272727272727,
                "end_time": 1.309090909090909,
                "pitch": 65,
                "velocity": 64,
                "duration": 0.21136363636363642,
                "tempo": 120.0
            },
            {
                "start_time": 1.3272727272727272,
                "end_time": 1.5431818181818182,
                "pitch": 67,
                "velocity": 64,
                "duration": 0.21590909090909105,
                "tempo": 120.0
            },
            {
                "start_time": 1.5613636363636363,
                "end_time": 1.7795454545454545,
                "pitch": 72,
                "velocity": 64,
                "duration": 0.21818181818181825,
                "tempo": 120.0
            },
            {
                "start_time": 1.7954545454545454,
                "end_time": 3.4090909090909087,
                "pitch": 70,
                "velocity": 64,
                "duration": 1.6136363636363633,
                "tempo": 120.0
            },
            {
                "start_time": 3.4272727272727272,
                "end_time": 3.643181818181818,
                "pitch": 65,
                "velocity": 64,
                "duration": 0.21590909090909083,
                "tempo": 120.0
            },
            {
                "start_time": 3.661363636363636,
                "end_time": 7.3954545454545455,
                "pitch": 67,
                "velocity": 64,
                "duration": 3.7340909090909093,
                "tempo": 120.0
            },
            {
                "start_time": 7.852272727272727,
                "end_time": 8.188636363636363,
                "pitch": 48,
                "velocity": 64,
                "duration": 0.336363636363636,
                "tempo": 120.0
            },
            {
                "start_time": 8.204545454545455,
                "end_time": 8.304545454545455,
                "pitch": 48,
                "velocity": 64,
                "duration": 0.09999999999999964,
                "tempo": 120.0
            },
            {
                "start_time": 8.322727272727272,
                "end_time": 9.01590909090909,
                "pitch": 55,
                "velocity": 64,
                "duration": 0.6931818181818183,
                "tempo": 120.0
            },
            {
                "start_time": 9.031818181818181,
                "end_time": 9.243181818181817,
                "pitch": 60,
                "velocity": 64,
                "duration": 0.21136363636363598,
                "tempo": 120.0
            },
            {
                "start_time": 9.261363636363637,
                "end_time": 10.395454545454545,
                "pitch": 67,
                "velocity": 64,
                "duration": 1.134090909090908,
                "tempo": 120.0
            },
            {
                "start_time": 10.411363636363635,
                "end_time": 10.618181818181817,
                "pitch": 65,
                "velocity": 64,
                "duration": 0.206818181818182,
                "tempo": 120.0
            },
            {
                "start_time": 10.636363636363637,
                "end_time": 10.85909090909091,
                "pitch": 67,
                "velocity": 64,
                "duration": 0.22272727272727266,
                "tempo": 120.0
            },
            {
                "start_time": 10.875,
                "end_time": 11.097727272727273,
                "pitch": 72,
                "velocity": 64,
                "duration": 0.22272727272727266,
                "tempo": 120.0
            },
            {
                "start_time": 11.11590909090909,
                "end_time": 12.036363636363635,
                "pitch": 70,
                "velocity": 64,
                "duration": 0.920454545454545,
                "tempo": 120.0
            },
            {
                "start_time": 12.052272727272726,
                "end_time": 12.722727272727273,
                "pitch": 68,
                "velocity": 64,
                "duration": 0.6704545454545467,
                "tempo": 120.0
            },
            {
                "start_time": 12.74090909090909,
                "end_time": 12.963636363636363,
                "pitch": 65,
                "velocity": 64,
                "duration": 0.22272727272727266,
                "tempo": 120.0
            },
            {
                "start_time": 12.98181818181818,
                "end_time": 14.84090909090909,
                "pitch": 67,
                "velocity": 64,
                "duration": 1.8590909090909093,
                "tempo": 120.0
            },
            {
                "start_time": 14.85681818181818,
                "end_time": 15.98181818181818,
                "pitch": 75,
                "velocity": 64,
                "duration": 1.125,
                "tempo": 120.0
            },
            {
                "start_time": 15.997727272727271,
                "end_time": 16.206818181818182,
                "pitch": 74,
                "velocity": 64,
                "duration": 0.20909090909091077,
                "tempo": 120.0
            },
            {
                "start_time": 16.222727272727273,
                "end_time": 16.44090909090909,
                "pitch": 75,
                "velocity": 64,
                "duration": 0.2181818181818187,
                "tempo": 120.0
            },
            {
                "start_time": 16.456818181818182,
                "end_time": 16.675,
                "pitch": 79,
                "velocity": 64,
                "duration": 0.2181818181818187,
                "tempo": 120.0
            },
            {
                "start_time": 16.69090909090909,
                "end_time": 17.377272727272725,
                "pitch": 77,
                "velocity": 64,
                "duration": 0.6863636363636338,
                "tempo": 120.0
            },
            {
                "start_time": 17.393181818181816,
                "end_time": 18.068181818181817,
                "pitch": 74,
                "velocity": 64,
                "duration": 0.6750000000000007,
                "tempo": 120.0
            },
            {
                "start_time": 18.084090909090907,
                "end_time": 18.536363636363635,
                "pitch": 70,
                "velocity": 64,
                "duration": 0.45227272727272805,
                "tempo": 120.0
            },
            {
                "start_time": 18.554545454545455,
                "end_time": 19.711363636363636,
                "pitch": 75,
                "velocity": 64,
                "duration": 1.1568181818181813,
                "tempo": 120.0
            },
            {
                "start_time": 19.727272727272727,
                "end_time": 19.93409090909091,
                "pitch": 74,
                "velocity": 64,
                "duration": 0.206818181818182,
                "tempo": 120.0
            },
            {
                "start_time": 19.95,
                "end_time": 20.163636363636364,
                "pitch": 72,
                "velocity": 64,
                "duration": 0.21363636363636473,
                "tempo": 120.0
            },
            {
                "start_time": 20.179545454545455,
                "end_time": 20.393181818181816,
                "pitch": 70,
                "velocity": 64,
                "duration": 0.21363636363636118,
                "tempo": 120.0
            },
            {
                "start_time": 20.409090909090907,
                "end_time": 22.279545454545453,
                "pitch": 72,
                "velocity": 64,
                "duration": 1.870454545454546,
                "tempo": 120.0
            },
            {
                "start_time": 22.297727272727272,
                "end_time": 22.738636363636363,
                "pitch": 67,
                "velocity": 64,
                "duration": 0.44090909090909136,
                "tempo": 120.0
            },
            {
                "start_time": 22.754545454545454,
                "end_time": 23.436363636363634,
                "pitch": 68,
                "velocity": 64,
                "duration": 0.6818181818181799,
                "tempo": 120.0
            },
            {
                "start_time": 23.452272727272724,
                "end_time": 23.66590909090909,
                "pitch": 67,
                "velocity": 64,
                "duration": 0.21363636363636473,
                "tempo": 120.0
            },
            {
                "start_time": 23.68181818181818,
                "end_time": 23.9,
                "pitch": 65,
                "velocity": 64,
                "duration": 0.2181818181818187,
                "tempo": 120.0
            },
            {
                "start_time": 23.91590909090909,
                "end_time": 24.363636363636363,
                "pitch": 63,
                "velocity": 64,
                "duration": 0.4477272727272741,
                "tempo": 120.0
            },
            {
                "start_time": 24.379545454545454,
                "end_time": 26.0,
                "pitch": 67,
                "velocity": 64,
                "duration": 1.620454545454546,
                "tempo": 120.0
            },
            {
                "start_time": 26.01590909090909,
                "end_time": 26.456818181818182,
                "pitch": 65,
                "velocity": 64,
                "duration": 0.44090909090909136,
                "tempo": 120.0
            },
            {
                "start_time": 26.474999999999998,
                "end_time": 27.15681818181818,
                "pitch": 67,
                "velocity": 64,
                "duration": 0.6818181818181834,
                "tempo": 120.0
            },
            {
                "start_time": 27.172727272727272,
                "end_time": 27.384090909090908,
                "pitch": 65,
                "velocity": 64,
                "duration": 0.21136363636363598,
                "tempo": 120.0
            },
            {
                "start_time": 27.402272727272727,
                "end_time": 27.618181818181817,
                "pitch": 63,
                "velocity": 64,
                "duration": 0.21590909090908994,
                "tempo": 120.0
            },
            {
                "start_time": 27.636363636363637,
                "end_time": 28.08863636363636,
                "pitch": 62,
                "velocity": 64,
                "duration": 0.4522727272727245,
                "tempo": 120.0
            },
            {
                "start_time": 28.104545454545452,
                "end_time": 29.718181818181815,
                "pitch": 65,
                "velocity": 64,
                "duration": 1.6136363636363633,
                "tempo": 120.0
            },
            {
                "start_time": 29.736363636363635,
                "end_time": 30.177272727272726,
                "pitch": 67,
                "velocity": 64,
                "duration": 0.44090909090909136,
                "tempo": 120.0
            },
            {
                "start_time": 30.193181818181817,
                "end_time": 30.879545454545454,
                "pitch": 58,
                "velocity": 64,
                "duration": 0.6863636363636374,
                "tempo": 120.0
            },
            {
                "start_time": 30.89772727272727,
                "end_time": 31.11590909090909,
                "pitch": 60,
                "velocity": 64,
                "duration": 0.2181818181818187,
                "tempo": 120.0
            },
            {
                "start_time": 31.13181818181818,
                "end_time": 31.584090909090907,
                "pitch": 62,
                "velocity": 64,
                "duration": 0.45227272727272805,
                "tempo": 120.0
            },
            {
                "start_time": 31.599999999999998,
                "end_time": 32.043181818181814,
                "pitch": 65,
                "velocity": 64,
                "duration": 0.44318181818181657,
                "tempo": 120.0
            },
            {
                "start_time": 32.059090909090905,
                "end_time": 32.74090909090909,
                "pitch": 56,
                "velocity": 64,
                "duration": 0.681818181818187,
                "tempo": 120.0
            },
            {
                "start_time": 32.75681818181818,
                "end_time": 32.970454545454544,
                "pitch": 58,
                "velocity": 64,
                "duration": 0.21363636363636118,
                "tempo": 120.0
            },
            {
                "start_time": 32.986363636363635,
                "end_time": 33.43863636363636,
                "pitch": 60,
                "velocity": 64,
                "duration": 0.45227272727272805,
                "tempo": 120.0
            },
            {
                "start_time": 33.45454545454545,
                "end_time": 33.90681818181818,
                "pitch": 58,
                "velocity": 64,
                "duration": 0.45227272727272805,
                "tempo": 120.0
            },
            {
                "start_time": 33.925,
                "end_time": 34.60681818181818,
                "pitch": 50,
                "velocity": 64,
                "duration": 0.6818181818181799,
                "tempo": 120.0
            },
            {
                "start_time": 34.62272727272727,
                "end_time": 34.83409090909091,
                "pitch": 51,
                "velocity": 64,
                "duration": 0.21136363636364308,
                "tempo": 120.0
            },
            {
                "start_time": 34.85227272727273,
                "end_time": 35.304545454545455,
                "pitch": 53,
                "velocity": 64,
                "duration": 0.45227272727272805,
                "tempo": 120.0
            },
            {
                "start_time": 35.320454545454545,
                "end_time": 37.168181818181814,
                "pitch": 55,
                "velocity": 64,
                "duration": 1.847727272727269,
                "tempo": 120.0
            },
            {
                "start_time": 37.18636363636364,
                "end_time": 37.861363636363635,
                "pitch": 56,
                "velocity": 64,
                "duration": 0.6749999999999972,
                "tempo": 120.0
            },
            {
                "start_time": 37.877272727272725,
                "end_time": 38.554545454545455,
                "pitch": 60,
                "velocity": 64,
                "duration": 0.6772727272727295,
                "tempo": 120.0
            },
            {
                "start_time": 38.570454545454545,
                "end_time": 39.03409090909091,
                "pitch": 63,
                "velocity": 64,
                "duration": 0.4636363636363612,
                "tempo": 120.0
            },
            {
                "start_time": 39.05,
                "end_time": 39.72727272727273,
                "pitch": 62,
                "velocity": 64,
                "duration": 0.6772727272727295,
                "tempo": 120.0
            },
            {
                "start_time": 39.74318181818182,
                "end_time": 39.961363636363636,
                "pitch": 60,
                "velocity": 64,
                "duration": 0.2181818181818187,
                "tempo": 120.0
            },
            {
                "start_time": 39.97727272727273,
                "end_time": 40.19090909090909,
                "pitch": 58,
                "velocity": 64,
                "duration": 0.21363636363636118,
                "tempo": 120.0
            },
            {
                "start_time": 40.20681818181818,
                "end_time": 40.42045454545455,
                "pitch": 57,
                "velocity": 64,
                "duration": 0.2136363636363683,
                "tempo": 120.0
            },
            {
                "start_time": 40.43636363636364,
                "end_time": 40.654545454545456,
                "pitch": 58,
                "velocity": 64,
                "duration": 0.2181818181818187,
                "tempo": 120.0
            },
            {
                "start_time": 40.67045454545455,
                "end_time": 40.88863636363636,
                "pitch": 55,
                "velocity": 64,
                "duration": 0.2181818181818116,
                "tempo": 120.0
            },
            {
                "start_time": 40.904545454545456,
                "end_time": 41.58181818181818,
                "pitch": 68,
                "velocity": 64,
                "duration": 0.6772727272727224,
                "tempo": 120.0
            },
            {
                "start_time": 41.59772727272727,
                "end_time": 42.28409090909091,
                "pitch": 72,
                "velocity": 64,
                "duration": 0.6863636363636374,
                "tempo": 120.0
            },
            {
                "start_time": 42.30227272727272,
                "end_time": 42.75454545454545,
                "pitch": 75,
                "velocity": 64,
                "duration": 0.45227272727272805,
                "tempo": 120.0
            },
            {
                "start_time": 42.77045454545454,
                "end_time": 44.60681818181818,
                "pitch": 74,
                "velocity": 64,
                "duration": 1.836363636363636,
                "tempo": 120.0
            },
            {
                "start_time": 44.625,
                "end_time": 45.31136363636364,
                "pitch": 56,
                "velocity": 64,
                "duration": 0.6863636363636374,
                "tempo": 120.0
            },
            {
                "start_time": 45.32727272727273,
                "end_time": 46.00454545454545,
                "pitch": 60,
                "velocity": 64,
                "duration": 0.6772727272727224,
                "tempo": 120.0
            },
            {
                "start_time": 46.02045454545454,
                "end_time": 46.47272727272727,
                "pitch": 63,
                "velocity": 64,
                "duration": 0.45227272727272805,
                "tempo": 120.0
            },
            {
                "start_time": 46.48863636363636,
                "end_time": 47.16590909090909,
                "pitch": 62,
                "velocity": 64,
                "duration": 0.6772727272727295,
                "tempo": 120.0
            },
            {
                "start_time": 47.18181818181818,
                "end_time": 47.4,
                "pitch": 60,
                "velocity": 64,
                "duration": 0.2181818181818187,
                "tempo": 120.0
            },
            {
                "start_time": 47.41590909090909,
                "end_time": 47.63409090909091,
                "pitch": 58,
                "velocity": 64,
                "duration": 0.2181818181818187,
                "tempo": 120.0
            },
            {
                "start_time": 47.652272727272724,
                "end_time": 47.86818181818182,
                "pitch": 57,
                "velocity": 64,
                "duration": 0.2159090909090935,
                "tempo": 120.0
            },
            {
                "start_time": 47.88636363636363,
                "end_time": 48.10454545454545,
                "pitch": 58,
                "velocity": 64,
                "duration": 0.2181818181818187,
                "tempo": 120.0
            },
            {
                "start_time": 48.12045454545454,
                "end_time": 48.33863636363636,
                "pitch": 55,
                "velocity": 64,
                "duration": 0.2181818181818187,
                "tempo": 120.0
            },
            {
                "start_time": 48.35454545454545,
                "end_time": 49.03181818181818,
                "pitch": 68,
                "velocity": 64,
                "duration": 0.6772727272727295,
                "tempo": 120.0
            },
            {
                "start_time": 49.04772727272727,
                "end_time": 49.72272727272727,
                "pitch": 72,
                "velocity": 64,
                "duration": 0.6749999999999972,
                "tempo": 120.0
            },
            {
                "start_time": 49.740909090909085,
                "end_time": 50.19318181818181,
                "pitch": 75,
                "velocity": 64,
                "duration": 0.45227272727272805,
                "tempo": 120.0
            },
            {
                "start_time": 50.209090909090904,
                "end_time": 52.05681818181818,
                "pitch": 79,
                "velocity": 64,
                "duration": 1.8477272727272762,
                "tempo": 120.0
            },
            {
                "start_time": 52.074999999999996,
                "end_time": 52.28636363636363,
                "pitch": 55,
                "velocity": 64,
                "duration": 0.21136363636363598,
                "tempo": 120.0
            },
            {
                "start_time": 52.30227272727272,
                "end_time": 52.51590909090909,
                "pitch": 53,
                "velocity": 64,
                "duration": 0.2136363636363683,
                "tempo": 120.0
            },
            {
                "start_time": 52.53181818181818,
                "end_time": 52.75,
                "pitch": 55,
                "velocity": 64,
                "duration": 0.2181818181818187,
                "tempo": 120.0
            },
            {
                "start_time": 52.76590909090909,
                "end_time": 53.21818181818182,
                "pitch": 48,
                "velocity": 64,
                "duration": 0.45227272727272805,
                "tempo": 120.0
            },
            {
                "start_time": 53.236363636363635,
                "end_time": 53.45454545454545,
                "pitch": 50,
                "velocity": 64,
                "duration": 0.2181818181818187,
                "tempo": 120.0
            },
            {
                "start_time": 53.470454545454544,
                "end_time": 53.68863636363636,
                "pitch": 51,
                "velocity": 64,
                "duration": 0.2181818181818187,
                "tempo": 120.0
            },
            {
                "start_time": 53.70454545454545,
                "end_time": 53.92272727272727,
                "pitch": 53,
                "velocity": 64,
                "duration": 0.2181818181818187,
                "tempo": 120.0
            },
            {
                "start_time": 53.93863636363636,
                "end_time": 54.152272727272724,
                "pitch": 53,
                "velocity": 64,
                "duration": 0.21363636363636118,
                "tempo": 120.0
            },
            {
                "start_time": 54.168181818181814,
                "end_time": 54.38181818181818,
                "pitch": 51,
                "velocity": 64,
                "duration": 0.2136363636363683,
                "tempo": 120.0
            },
            {
                "start_time": 54.39772727272727,
                "end_time": 54.615909090909085,
                "pitch": 53,
                "velocity": 64,
                "duration": 0.2181818181818116,
                "tempo": 120.0
            },
            {
                "start_time": 54.631818181818176,
                "end_time": 55.07954545454545,
                "pitch": 46,
                "velocity": 64,
                "duration": 0.44772727272727764,
                "tempo": 120.0
            },
            {
                "start_time": 55.095454545454544,
                "end_time": 55.309090909090905,
                "pitch": 48,
                "velocity": 64,
                "duration": 0.21363636363636118,
                "tempo": 120.0
            },
            {
                "start_time": 55.324999999999996,
                "end_time": 55.543181818181814,
                "pitch": 50,
                "velocity": 64,
                "duration": 0.2181818181818187,
                "tempo": 120.0
            },
            {
                "start_time": 55.559090909090905,
                "end_time": 55.777272727272724,
                "pitch": 51,
                "velocity": 64,
                "duration": 0.2181818181818187,
                "tempo": 120.0
            },
            {
                "start_time": 55.793181818181814,
                "end_time": 56.01136363636363,
                "pitch": 55,
                "velocity": 64,
                "duration": 0.2181818181818187,
                "tempo": 120.0
            },
            {
                "start_time": 56.027272727272724,
                "end_time": 56.24545454545454,
                "pitch": 53,
                "velocity": 64,
                "duration": 0.2181818181818187,
                "tempo": 120.0
            },
            {
                "start_time": 56.26363636363636,
                "end_time": 56.47954545454545,
                "pitch": 55,
                "velocity": 64,
                "duration": 0.2159090909090935,
                "tempo": 120.0
            },
            {
                "start_time": 56.49772727272727,
                "end_time": 56.945454545454545,
                "pitch": 48,
                "velocity": 64,
                "duration": 0.44772727272727764,
                "tempo": 120.0
            },
            {
                "start_time": 56.961363636363636,
                "end_time": 57.17272727272727,
                "pitch": 50,
                "velocity": 64,
                "duration": 0.21136363636363598,
                "tempo": 120.0
            },
            {
                "start_time": 57.19090909090909,
                "end_time": 57.40681818181818,
                "pitch": 51,
                "velocity": 64,
                "duration": 0.2159090909090935,
                "tempo": 120.0
            },
            {
                "start_time": 57.425,
                "end_time": 57.643181818181816,
                "pitch": 53,
                "velocity": 64,
                "duration": 0.2181818181818187,
                "tempo": 120.0
            },
            {
                "start_time": 57.65909090909091,
                "end_time": 57.87045454545454,
                "pitch": 53,
                "velocity": 64,
                "duration": 0.21136363636363598,
                "tempo": 120.0
            },
            {
                "start_time": 57.88863636363636,
                "end_time": 58.099999999999994,
                "pitch": 51,
                "velocity": 64,
                "duration": 0.21136363636363598,
                "tempo": 120.0
            },
            {
                "start_time": 58.11818181818182,
                "end_time": 58.334090909090904,
                "pitch": 53,
                "velocity": 64,
                "duration": 0.2159090909090864,
                "tempo": 120.0
            },
            {
                "start_time": 58.35227272727273,
                "end_time": 58.804545454545455,
                "pitch": 46,
                "velocity": 64,
                "duration": 0.45227272727272805,
                "tempo": 120.0
            },
            {
                "start_time": 58.820454545454545,
                "end_time": 59.038636363636364,
                "pitch": 48,
                "velocity": 64,
                "duration": 0.2181818181818187,
                "tempo": 120.0
            },
            {
                "start_time": 59.054545454545455,
                "end_time": 59.27272727272727,
                "pitch": 50,
                "velocity": 64,
                "duration": 0.2181818181818187,
                "tempo": 120.0
            },
            {
                "start_time": 59.288636363636364,
                "end_time": 59.506818181818176,
                "pitch": 51,
                "velocity": 64,
                "duration": 0.2181818181818116,
                "tempo": 120.0
            },
            {
                "start_time": 59.525,
                "end_time": 59.736363636363635,
                "pitch": 55,
                "velocity": 64,
                "duration": 0.21136363636363598,
                "tempo": 120.0
            },
            {
                "start_time": 59.752272727272725,
                "end_time": 59.965909090909086,
                "pitch": 53,
                "velocity": 64,
                "duration": 0.21363636363636118,
                "tempo": 120.0
            },
            {
                "start_time": 59.98181818181818,
                "end_time": 60.199999999999996,
                "pitch": 55,
                "velocity": 64,
                "duration": 0.2181818181818187,
                "tempo": 120.0
            },
            {
                "start_time": 60.215909090909086,
                "end_time": 60.663636363636364,
                "pitch": 60,
                "velocity": 64,
                "duration": 0.44772727272727764,
                "tempo": 120.0
            },
            {
                "start_time": 60.679545454545455,
                "end_time": 60.893181818181816,
                "pitch": 58,
                "velocity": 64,
                "duration": 0.21363636363636118,
                "tempo": 120.0
            },
            {
                "start_time": 60.90909090909091,
                "end_time": 61.127272727272725,
                "pitch": 56,
                "velocity": 64,
                "duration": 0.2181818181818187,
                "tempo": 120.0
            },
            {
                "start_time": 61.143181818181816,
                "end_time": 61.361363636363635,
                "pitch": 55,
                "velocity": 64,
                "duration": 0.2181818181818187,
                "tempo": 120.0
            },
            {
                "start_time": 61.37954545454545,
                "end_time": 61.595454545454544,
                "pitch": 53,
                "velocity": 64,
                "duration": 0.2159090909090935,
                "tempo": 120.0
            },
            {
                "start_time": 61.61363636363636,
                "end_time": 61.83181818181818,
                "pitch": 51,
                "velocity": 64,
                "duration": 0.2181818181818187,
                "tempo": 120.0
            },
            {
                "start_time": 61.84772727272727,
                "end_time": 62.06590909090909,
                "pitch": 53,
                "velocity": 64,
                "duration": 0.2181818181818187,
                "tempo": 120.0
            },
            {
                "start_time": 62.08181818181818,
                "end_time": 62.52954545454545,
                "pitch": 55,
                "velocity": 64,
                "duration": 0.44772727272727053,
                "tempo": 120.0
            },
            {
                "start_time": 62.54545454545454,
                "end_time": 62.75909090909091,
                "pitch": 50,
                "velocity": 64,
                "duration": 0.2136363636363683,
                "tempo": 120.0
            },
            {
                "start_time": 62.775,
                "end_time": 62.99318181818182,
                "pitch": 48,
                "velocity": 64,
                "duration": 0.2181818181818187,
                "tempo": 120.0
            },
            {
                "start_time": 63.00909090909091,
                "end_time": 63.22727272727273,
                "pitch": 46,
                "velocity": 64,
                "duration": 0.2181818181818187,
                "tempo": 120.0
            },
            {
                "start_time": 63.24318181818182,
                "end_time": 64.85681818181818,
                "pitch": 48,
                "velocity": 64,
                "duration": 1.6136363636363669,
                "tempo": 120.0
            },
            {
                "start_time": 64.875,
                "end_time": 66.97045454545454,
                "pitch": 60,
                "velocity": 64,
                "duration": 2.095454545454544,
                "tempo": 120.0
            },
            {
                "start_time": 66.97045454545454,
                "end_time": 67.18409090909091,
                "pitch": 55,
                "velocity": 64,
                "duration": 0.2136363636363683,
                "tempo": 120.0
            },
            {
                "start_time": 67.2,
                "end_time": 67.41136363636363,
                "pitch": 53,
                "velocity": 64,
                "duration": 0.21136363636362887,
                "tempo": 120.0
            },
            {
                "start_time": 67.42954545454545,
                "end_time": 67.64545454545454,
                "pitch": 55,
                "velocity": 64,
                "duration": 0.2159090909090935,
                "tempo": 120.0
            },
            {
                "start_time": 67.66363636363636,
                "end_time": 68.10909090909091,
                "pitch": 48,
                "velocity": 64,
                "duration": 0.44545454545455243,
                "tempo": 120.0
            },
            {
                "start_time": 68.12727272727273,
                "end_time": 68.33863636363635,
                "pitch": 50,
                "velocity": 64,
                "duration": 0.21136363636362887,
                "tempo": 120.0
            },
            {
                "start_time": 68.35454545454544,
                "end_time": 68.57272727272726,
                "pitch": 51,
                "velocity": 64,
                "duration": 0.2181818181818187,
                "tempo": 120.0
            },
            {
                "start_time": 68.5909090909091,
                "end_time": 68.80681818181817,
                "pitch": 53,
                "velocity": 64,
                "duration": 0.21590909090907928,
                "tempo": 120.0
            },
            {
                "start_time": 68.825,
                "end_time": 69.03636363636363,
                "pitch": 53,
                "velocity": 64,
                "duration": 0.21136363636362887,
                "tempo": 120.0
            },
            {
                "start_time": 69.05454545454545,
                "end_time": 69.26590909090909,
                "pitch": 51,
                "velocity": 64,
                "duration": 0.21136363636364308,
                "tempo": 120.0
            },
            {
                "start_time": 69.28181818181818,
                "end_time": 69.5,
                "pitch": 53,
                "velocity": 64,
                "duration": 0.2181818181818187,
                "tempo": 120.0
            },
            {
                "start_time": 69.51818181818182,
                "end_time": 69.97045454545454,
                "pitch": 46,
                "velocity": 64,
                "duration": 0.45227272727272805,
                "tempo": 120.0
            },
            {
                "start_time": 69.98636363636363,
                "end_time": 70.20454545454545,
                "pitch": 48,
                "velocity": 64,
                "duration": 0.2181818181818187,
                "tempo": 120.0
            },
            {
                "start_time": 70.22045454545454,
                "end_time": 70.43863636363636,
                "pitch": 50,
                "velocity": 64,
                "duration": 0.2181818181818187,
                "tempo": 120.0
            },
            {
                "start_time": 70.45454545454545,
                "end_time": 70.67272727272727,
                "pitch": 51,
                "velocity": 64,
                "duration": 0.2181818181818187,
                "tempo": 120.0
            },
            {
                "start_time": 70.68863636363636,
                "end_time": 70.90227272727273,
                "pitch": 55,
                "velocity": 64,
                "duration": 0.2136363636363683,
                "tempo": 120.0
            },
            {
                "start_time": 70.91818181818182,
                "end_time": 71.13181818181818,
                "pitch": 53,
                "velocity": 64,
                "duration": 0.21363636363635408,
                "tempo": 120.0
            },
            {
                "start_time": 71.14772727272727,
                "end_time": 71.36590909090908,
                "pitch": 55,
                "velocity": 64,
                "duration": 0.2181818181818187,
                "tempo": 120.0
            },
            {
                "start_time": 71.38181818181818,
                "end_time": 71.82954545454545,
                "pitch": 48,
                "velocity": 64,
                "duration": 0.44772727272727764,
                "tempo": 120.0
            },
            {
                "start_time": 71.84545454545454,
                "end_time": 72.05909090909091,
                "pitch": 50,
                "velocity": 64,
                "duration": 0.2136363636363683,
                "tempo": 120.0
            },
            {
                "start_time": 72.075,
                "end_time": 72.29318181818182,
                "pitch": 51,
                "velocity": 64,
                "duration": 0.2181818181818187,
                "tempo": 120.0
            },
            {
                "start_time": 72.30909090909091,
                "end_time": 72.52727272727272,
                "pitch": 53,
                "velocity": 64,
                "duration": 0.2181818181818045,
                "tempo": 120.0
            },
            {
                "start_time": 72.54318181818182,
                "end_time": 72.76136363636363,
                "pitch": 53,
                "velocity": 64,
                "duration": 0.2181818181818045,
                "tempo": 120.0
            },
            {
                "start_time": 72.77954545454546,
                "end_time": 72.99545454545454,
                "pitch": 51,
                "velocity": 64,
                "duration": 0.21590909090907928,
                "tempo": 120.0
            },
            {
                "start_time": 73.01363636363637,
                "end_time": 73.23181818181818,
                "pitch": 53,
                "velocity": 64,
                "duration": 0.2181818181818187,
                "tempo": 120.0
            },
            {
                "start_time": 73.24772727272727,
                "end_time": 73.69545454545454,
                "pitch": 46,
                "velocity": 64,
                "duration": 0.4477272727272634,
                "tempo": 120.0
            },
            {
                "start_time": 73.71136363636363,
                "end_time": 73.92272727272727,
                "pitch": 48,
                "velocity": 64,
                "duration": 0.21136363636364308,
                "tempo": 120.0
            },
            {
                "start_time": 73.94090909090909,
                "end_time": 74.1590909090909,
                "pitch": 50,
                "velocity": 64,
                "duration": 0.2181818181818187,
                "tempo": 120.0
            },
            {
                "start_time": 74.175,
                "end_time": 74.39318181818182,
                "pitch": 51,
                "velocity": 64,
                "duration": 0.2181818181818187,
                "tempo": 120.0
            },
            {
                "start_time": 74.4090909090909,
                "end_time": 74.62727272727273,
                "pitch": 55,
                "velocity": 64,
                "duration": 0.2181818181818187,
                "tempo": 120.0
            },
            {
                "start_time": 74.64318181818182,
                "end_time": 74.86136363636363,
                "pitch": 53,
                "velocity": 64,
                "duration": 0.2181818181818187,
                "tempo": 120.0
            },
            {
                "start_time": 74.87727272727273,
                "end_time": 75.0909090909091,
                "pitch": 55,
                "velocity": 64,
                "duration": 0.2136363636363683,
                "tempo": 120.0
            },
            {
                "start_time": 75.10681818181818,
                "end_time": 75.55454545454545,
                "pitch": 60,
                "velocity": 64,
                "duration": 0.4477272727272634,
                "tempo": 120.0
            },
            {
                "start_time": 75.57045454545454,
                "end_time": 75.78863636363636,
                "pitch": 58,
                "velocity": 64,
                "duration": 0.2181818181818187,
                "tempo": 120.0
            },
            {
                "start_time": 75.80454545454545,
                "end_time": 76.02272727272727,
                "pitch": 56,
                "velocity": 64,
                "duration": 0.2181818181818187,
                "tempo": 120.0
            },
            {
                "start_time": 76.04090909090908,
                "end_time": 76.25681818181818,
                "pitch": 55,
                "velocity": 64,
                "duration": 0.2159090909090935,
                "tempo": 120.0
            },
            {
                "start_time": 76.27499999999999,
                "end_time": 76.48636363636363,
                "pitch": 53,
                "velocity": 64,
                "duration": 0.21136363636364308,
                "tempo": 120.0
            },
            {
                "start_time": 76.50454545454545,
                "end_time": 76.7159090909091,
                "pitch": 51,
                "velocity": 64,
                "duration": 0.21136363636364308,
                "tempo": 120.0
            },
            {
                "start_time": 76.73181818181818,
                "end_time": 76.95,
                "pitch": 53,
                "velocity": 64,
                "duration": 0.2181818181818187,
                "tempo": 120.0
            },
            {
                "start_time": 76.96818181818182,
                "end_time": 77.41363636363636,
                "pitch": 55,
                "velocity": 64,
                "duration": 0.4454545454545382,
                "tempo": 120.0
            },
            {
                "start_time": 77.42954545454545,
                "end_time": 77.64318181818182,
                "pitch": 50,
                "velocity": 64,
                "duration": 0.2136363636363683,
                "tempo": 120.0
            },
            {
                "start_time": 77.6590909090909,
                "end_time": 77.87727272727273,
                "pitch": 48,
                "velocity": 64,
                "duration": 0.2181818181818187,
                "tempo": 120.0
            },
            {
                "start_time": 77.89318181818182,
                "end_time": 78.11136363636363,
                "pitch": 46,
                "velocity": 64,
                "duration": 0.2181818181818187,
                "tempo": 120.0
            },
            {
                "start_time": 78.12954545454545,
                "end_time": 79.74318181818181,
                "pitch": 48,
                "velocity": 64,
                "duration": 1.6136363636363598,
                "tempo": 120.0
            },
            {
                "start_time": 79.7590909090909,
                "end_time": 81.85909090909091,
                "pitch": 60,
                "velocity": 64,
                "duration": 2.1000000000000085,
                "tempo": 120.0
            },
            {
                "start_time": 81.85909090909091,
                "end_time": 82.07272727272726,
                "pitch": 53,
                "velocity": 64,
                "duration": 0.21363636363635408,
                "tempo": 120.0
            },
            {
                "start_time": 82.08863636363635,
                "end_time": 82.3,
                "pitch": 51,
                "velocity": 64,
                "duration": 0.21136363636364308,
                "tempo": 120.0
            },
            {
                "start_time": 82.31818181818181,
                "end_time": 82.5340909090909,
                "pitch": 53,
                "velocity": 64,
                "duration": 0.2159090909090935,
                "tempo": 120.0
            },
            {
                "start_time": 82.55227272727272,
                "end_time": 82.77045454545454,
                "pitch": 51,
                "velocity": 64,
                "duration": 0.2181818181818187,
                "tempo": 120.0
            },
            {
                "start_time": 82.78636363636363,
                "end_time": 82.99772727272727,
                "pitch": 50,
                "velocity": 64,
                "duration": 0.21136363636364308,
                "tempo": 120.0
            },
            {
                "start_time": 83.01590909090909,
                "end_time": 83.22727272727272,
                "pitch": 51,
                "velocity": 64,
                "duration": 0.21136363636362887,
                "tempo": 120.0
            },
            {
                "start_time": 83.24545454545454,
                "end_time": 83.46136363636363,
                "pitch": 50,
                "velocity": 64,
                "duration": 0.2159090909090935,
                "tempo": 120.0
            },
            {
                "start_time": 83.47954545454544,
                "end_time": 83.69772727272726,
                "pitch": 51,
                "velocity": 64,
                "duration": 0.2181818181818187,
                "tempo": 120.0
            },
            {
                "start_time": 83.71363636363635,
                "end_time": 83.93181818181817,
                "pitch": 55,
                "velocity": 64,
                "duration": 0.2181818181818187,
                "tempo": 120.0
            },
            {
                "start_time": 83.94772727272726,
                "end_time": 84.16590909090908,
                "pitch": 53,
                "velocity": 64,
                "duration": 0.2181818181818187,
                "tempo": 120.0
            },
            {
                "start_time": 84.18181818181817,
                "end_time": 84.39999999999999,
                "pitch": 55,
                "velocity": 64,
                "duration": 0.2181818181818187,
                "tempo": 120.0
            },
            {
                "start_time": 84.41590909090908,
                "end_time": 84.6340909090909,
                "pitch": 53,
                "velocity": 64,
                "duration": 0.2181818181818187,
                "tempo": 120.0
            },
            {
                "start_time": 84.65227272727272,
                "end_time": 84.86363636363636,
                "pitch": 51,
                "velocity": 64,
                "duration": 0.21136363636364308,
                "tempo": 120.0
            },
            {
                "start_time": 84.87954545454545,
                "end_time": 85.09318181818182,
                "pitch": 53,
                "velocity": 64,
                "duration": 0.2136363636363683,
                "tempo": 120.0
            },
            {
                "start_time": 85.10909090909091,
                "end_time": 85.32727272727273,
                "pitch": 51,
                "velocity": 64,
                "duration": 0.2181818181818187,
                "tempo": 120.0
            },
            {
                "start_time": 85.34318181818182,
                "end_time": 85.56136363636364,
                "pitch": 53,
                "velocity": 64,
                "duration": 0.2181818181818187,
                "tempo": 120.0
            },
            {
                "start_time": 85.57954545454545,
                "end_time": 85.79090909090908,
                "pitch": 56,
                "velocity": 64,
                "duration": 0.21136363636362887,
                "tempo": 120.0
            },
            {
                "start_time": 85.80681818181817,
                "end_time": 86.02045454545454,
                "pitch": 55,
                "velocity": 64,
                "duration": 0.2136363636363683,
                "tempo": 120.0
            },
            {
                "start_time": 86.03636363636363,
                "end_time": 86.25454545454545,
                "pitch": 56,
                "velocity": 64,
                "duration": 0.2181818181818187,
                "tempo": 120.0
            },
            {
                "start_time": 86.27045454545454,
                "end_time": 86.48863636363636,
                "pitch": 55,
                "velocity": 64,
                "duration": 0.2181818181818187,
                "tempo": 120.0
            },
            {
                "start_time": 86.50681818181818,
                "end_time": 86.72272727272727,
                "pitch": 53,
                "velocity": 64,
                "duration": 0.2159090909090935,
                "tempo": 120.0
            },
            {
                "start_time": 86.74090909090908,
                "end_time": 86.9590909090909,
                "pitch": 55,
                "velocity": 64,
                "duration": 0.2181818181818187,
                "tempo": 120.0
            },
            {
                "start_time": 86.975,
                "end_time": 87.19318181818181,
                "pitch": 53,
                "velocity": 64,
                "duration": 0.2181818181818187,
                "tempo": 120.0
            },
            {
                "start_time": 87.2090909090909,
                "end_time": 87.42727272727272,
                "pitch": 55,
                "velocity": 64,
                "duration": 0.2181818181818187,
                "tempo": 120.0
            },
            {
                "start_time": 87.44318181818181,
                "end_time": 87.65681818181818,
                "pitch": 58,
                "velocity": 64,
                "duration": 0.2136363636363683,
                "tempo": 120.0
            },
            {
                "start_time": 87.67272727272727,
                "end_time": 87.88636363636363,
                "pitch": 56,
                "velocity": 64,
                "duration": 0.21363636363635408,
                "tempo": 120.0
            },
            {
                "start_time": 87.90227272727272,
                "end_time": 88.12045454545454,
                "pitch": 58,
                "velocity": 64,
                "duration": 0.2181818181818187,
                "tempo": 120.0
            },
            {
                "start_time": 88.13636363636363,
                "end_time": 88.35454545454544,
                "pitch": 56,
                "velocity": 64,
                "duration": 0.2181818181818187,
                "tempo": 120.0
            },
            {
                "start_time": 88.37045454545454,
                "end_time": 88.5840909090909,
                "pitch": 55,
                "velocity": 64,
                "duration": 0.2136363636363683,
                "tempo": 120.0
            },
            {
                "start_time": 88.6,
                "end_time": 88.81363636363636,
                "pitch": 56,
                "velocity": 64,
                "duration": 0.2136363636363683,
                "tempo": 120.0
            },
            {
                "start_time": 88.82954545454545,
                "end_time": 89.05227272727272,
                "pitch": 55,
                "velocity": 64,
                "duration": 0.2227272727272691,
                "tempo": 120.0
            },
            {
                "start_time": 89.06818181818181,
                "end_time": 89.29090909090908,
                "pitch": 56,
                "velocity": 64,
                "duration": 0.2227272727272691,
                "tempo": 120.0
            },
            {
                "start_time": 89.3090909090909,
                "end_time": 89.52272727272727,
                "pitch": 53,
                "velocity": 64,
                "duration": 0.2136363636363683,
                "tempo": 120.0
            },
            {
                "start_time": 89.53863636363636,
                "end_time": 89.75,
                "pitch": 51,
                "velocity": 64,
                "duration": 0.21136363636364308,
                "tempo": 120.0
            },
            {
                "start_time": 89.76818181818182,
                "end_time": 89.98409090909091,
                "pitch": 53,
                "velocity": 64,
                "duration": 0.2159090909090935,
                "tempo": 120.0
            },
            {
                "start_time": 90.00227272727273,
                "end_time": 90.22045454545454,
                "pitch": 51,
                "velocity": 64,
                "duration": 0.2181818181818187,
                "tempo": 120.0
            },
            {
                "start_time": 90.23636363636363,
                "end_time": 90.44772727272726,
                "pitch": 50,
                "velocity": 64,
                "duration": 0.21136363636362887,
                "tempo": 120.0
            },
            {
                "start_time": 90.4659090909091,
                "end_time": 90.67727272727272,
                "pitch": 51,
                "velocity": 64,
                "duration": 0.21136363636362887,
                "tempo": 120.0
            },
            {
                "start_time": 90.69318181818181,
                "end_time": 90.91136363636363,
                "pitch": 50,
                "velocity": 64,
                "duration": 0.2181818181818187,
                "tempo": 120.0
            },
            {
                "start_time": 90.92954545454545,
                "end_time": 91.14545454545454,
                "pitch": 51,
                "velocity": 64,
                "duration": 0.2159090909090935,
                "tempo": 120.0
            },
            {
                "start_time": 91.16363636363636,
                "end_time": 91.375,
                "pitch": 55,
                "velocity": 64,
                "duration": 0.21136363636364308,
                "tempo": 120.0
            },
            {
                "start_time": 91.39318181818182,
                "end_time": 91.60454545454544,
                "pitch": 53,
                "velocity": 64,
                "duration": 0.21136363636362887,
                "tempo": 120.0
            },
            {
                "start_time": 91.62045454545454,
                "end_time": 91.83863636363635,
                "pitch": 55,
                "velocity": 64,
                "duration": 0.2181818181818187,
                "tempo": 120.0
            },
            {
                "start_time": 91.85681818181818,
                "end_time": 92.07272727272726,
                "pitch": 53,
                "velocity": 64,
                "duration": 0.21590909090907928,
                "tempo": 120.0
            },
            {
                "start_time": 92.0909090909091,
                "end_time": 92.3090909090909,
                "pitch": 51,
                "velocity": 64,
                "duration": 0.2181818181818045,
                "tempo": 120.0
            },
            {
                "start_time": 92.32499999999999,
                "end_time": 92.54318181818181,
                "pitch": 53,
                "velocity": 64,
                "duration": 0.2181818181818187,
                "tempo": 120.0
            },
            {
                "start_time": 92.5590909090909,
                "end_time": 92.77727272727272,
                "pitch": 51,
                "velocity": 64,
                "duration": 0.2181818181818187,
                "tempo": 120.0
            },
            {
                "start_time": 92.79318181818181,
                "end_time": 93.01136363636363,
                "pitch": 53,
                "velocity": 64,
                "duration": 0.2181818181818187,
                "tempo": 120.0
            },
            {
                "start_time": 93.02727272727272,
                "end_time": 93.24090909090908,
                "pitch": 56,
                "velocity": 64,
                "duration": 0.2136363636363683,
                "tempo": 120.0
            },
            {
                "start_time": 93.25681818181818,
                "end_time": 93.47045454545454,
                "pitch": 55,
                "velocity": 64,
                "duration": 0.2136363636363683,
                "tempo": 120.0
            },
            {
                "start_time": 93.48636363636363,
                "end_time": 93.70454545454545,
                "pitch": 56,
                "velocity": 64,
                "duration": 0.2181818181818187,
                "tempo": 120.0
            },
            {
                "start_time": 93.72045454545454,
                "end_time": 93.93863636363636,
                "pitch": 55,
                "velocity": 64,
                "duration": 0.2181818181818187,
                "tempo": 120.0
            },
            {
                "start_time": 93.95454545454545,
                "end_time": 94.16818181818181,
                "pitch": 53,
                "velocity": 64,
                "duration": 0.21363636363635408,
                "tempo": 120.0
            },
            {
                "start_time": 94.1840909090909,
                "end_time": 94.39772727272727,
                "pitch": 55,
                "velocity": 64,
                "duration": 0.2136363636363683,
                "tempo": 120.0
            },
            {
                "start_time": 94.41363636363636,
                "end_time": 94.63181818181818,
                "pitch": 53,
                "velocity": 64,
                "duration": 0.2181818181818187,
                "tempo": 120.0
            },
            {
                "start_time": 94.64772727272727,
                "end_time": 94.86590909090908,
                "pitch": 55,
                "velocity": 64,
                "duration": 0.2181818181818187,
                "tempo": 120.0
            },
            {
                "start_time": 94.88181818181818,
                "end_time": 95.1,
                "pitch": 58,
                "velocity": 64,
                "duration": 0.2181818181818187,
                "tempo": 120.0
            },
            {
                "start_time": 95.11818181818181,
                "end_time": 95.3340909090909,
                "pitch": 56,
                "velocity": 64,
                "duration": 0.2159090909090935,
                "tempo": 120.0
            },
            {
                "start_time": 95.35227272727272,
                "end_time": 95.57045454545454,
                "pitch": 58,
                "velocity": 64,
                "duration": 0.2181818181818187,
                "tempo": 120.0
            },
            {
                "start_time": 95.58636363636363,
                "end_time": 95.80454545454545,
                "pitch": 56,
                "velocity": 64,
                "duration": 0.2181818181818187,
                "tempo": 120.0
            },
            {
                "start_time": 95.82045454545454,
                "end_time": 96.0340909090909,
                "pitch": 63,
                "velocity": 64,
                "duration": 0.2136363636363683,
                "tempo": 120.0
            },
            {
                "start_time": 96.05,
                "end_time": 96.26363636363637,
                "pitch": 62,
                "velocity": 64,
                "duration": 0.2136363636363683,
                "tempo": 120.0
            },
            {
                "start_time": 96.27954545454546,
                "end_time": 96.50227272727273,
                "pitch": 60,
                "velocity": 64,
                "duration": 0.2227272727272691,
                "tempo": 120.0
            },
            {
                "start_time": 96.51818181818182,
                "end_time": 96.74090909090908,
                "pitch": 55,
                "velocity": 64,
                "duration": 0.2227272727272691,
                "tempo": 120.0
            },
            {
                "start_time": 96.7590909090909,
                "end_time": 96.97272727272727,
                "pitch": 55,
                "velocity": 64,
                "duration": 0.2136363636363683,
                "tempo": 120.0
            },
            {
                "start_time": 96.98863636363636,
                "end_time": 97.19999999999999,
                "pitch": 53,
                "velocity": 64,
                "duration": 0.21136363636362887,
                "tempo": 120.0
            },
            {
                "start_time": 97.21818181818182,
                "end_time": 97.42954545454545,
                "pitch": 55,
                "velocity": 64,
                "duration": 0.21136363636362887,
                "tempo": 120.0
            },
            {
                "start_time": 97.44545454545454,
                "end_time": 97.89318181818182,
                "pitch": 48,
                "velocity": 64,
                "duration": 0.44772727272727764,
                "tempo": 120.0
            },
            {
                "start_time": 97.9090909090909,
                "end_time": 98.12727272727273,
                "pitch": 50,
                "velocity": 64,
                "duration": 0.2181818181818187,
                "tempo": 120.0
            },
            {
                "start_time": 98.14545454545454,
                "end_time": 98.36136363636363,
                "pitch": 51,
                "velocity": 64,
                "duration": 0.2159090909090935,
                "tempo": 120.0
            },
            {
                "start_time": 98.37954545454545,
                "end_time": 98.59772727272727,
                "pitch": 53,
                "velocity": 64,
                "duration": 0.2181818181818187,
                "tempo": 120.0
            },
            {
                "start_time": 98.61363636363636,
                "end_time": 98.82499999999999,
                "pitch": 53,
                "velocity": 64,
                "duration": 0.21136363636362887,
                "tempo": 120.0
            },
            {
                "start_time": 98.84318181818182,
                "end_time": 99.05454545454545,
                "pitch": 51,
                "velocity": 64,
                "duration": 0.21136363636362887,
                "tempo": 120.0
            },
            {
                "start_time": 99.07045454545454,
                "end_time": 99.28863636363636,
                "pitch": 53,
                "velocity": 64,
                "duration": 0.2181818181818187,
                "tempo": 120.0
            },
            {
                "start_time": 99.30681818181817,
                "end_time": 99.75227272727273,
                "pitch": 46,
                "velocity": 64,
                "duration": 0.44545454545455243,
                "tempo": 120.0
            },
            {
                "start_time": 99.77045454545454,
                "end_time": 99.98181818181817,
                "pitch": 48,
                "velocity": 64,
                "duration": 0.21136363636362887,
                "tempo": 120.0
            },
            {
                "start_time": 99.99772727272727,
                "end_time": 100.21590909090908,
                "pitch": 50,
                "velocity": 64,
                "duration": 0.2181818181818045,
                "tempo": 120.0
            },
            {
                "start_time": 100.23409090909091,
                "end_time": 100.44999999999999,
                "pitch": 51,
                "velocity": 64,
                "duration": 0.21590909090907928,
                "tempo": 120.0
            },
            {
                "start_time": 100.46818181818182,
                "end_time": 100.68636363636364,
                "pitch": 55,
                "velocity": 64,
                "duration": 0.2181818181818187,
                "tempo": 120.0
            },
            {
                "start_time": 100.70227272727273,
                "end_time": 100.92045454545455,
                "pitch": 53,
                "velocity": 64,
                "duration": 0.2181818181818187,
                "tempo": 120.0
            },
            {
                "start_time": 100.93636363636364,
                "end_time": 101.15454545454546,
                "pitch": 55,
                "velocity": 64,
                "duration": 0.2181818181818187,
                "tempo": 120.0
            },
            {
                "start_time": 101.17045454545455,
                "end_time": 101.61818181818181,
                "pitch": 48,
                "velocity": 64,
                "duration": 0.4477272727272634,
                "tempo": 120.0
            },
            {
                "start_time": 101.6340909090909,
                "end_time": 101.84772727272727,
                "pitch": 50,
                "velocity": 64,
                "duration": 0.2136363636363683,
                "tempo": 120.0
            },
            {
                "start_time": 101.86363636363636,
                "end_time": 102.08181818181818,
                "pitch": 51,
                "velocity": 64,
                "duration": 0.2181818181818187,
                "tempo": 120.0
            },
            {
                "start_time": 102.09772727272727,
                "end_time": 102.31590909090909,
                "pitch": 53,
                "velocity": 64,
                "duration": 0.2181818181818187,
                "tempo": 120.0
            },
            {
                "start_time": 102.33181818181818,
                "end_time": 102.54545454545455,
                "pitch": 53,
                "velocity": 64,
                "duration": 0.2136363636363683,
                "tempo": 120.0
            },
            {
                "start_time": 102.56136363636364,
                "end_time": 102.77499999999999,
                "pitch": 51,
                "velocity": 64,
                "duration": 0.21363636363635408,
                "tempo": 120.0
            },
            {
                "start_time": 102.79090909090908,
                "end_time": 103.0090909090909,
                "pitch": 53,
                "velocity": 64,
                "duration": 0.2181818181818187,
                "tempo": 120.0
            },
            {
                "start_time": 103.02499999999999,
                "end_time": 103.47727272727272,
                "pitch": 46,
                "velocity": 64,
                "duration": 0.45227272727272805,
                "tempo": 120.0
            },
            {
                "start_time": 103.49545454545454,
                "end_time": 103.71136363636363,
                "pitch": 48,
                "velocity": 64,
                "duration": 0.2159090909090935,
                "tempo": 120.0
            },
            {
                "start_time": 103.72954545454544,
                "end_time": 103.94772727272726,
                "pitch": 50,
                "velocity": 64,
                "duration": 0.2181818181818187,
                "tempo": 120.0
            },
            {
                "start_time": 103.96363636363635,
                "end_time": 104.18181818181817,
                "pitch": 51,
                "velocity": 64,
                "duration": 0.2181818181818187,
                "tempo": 120.0
            },
            {
                "start_time": 104.19772727272726,
                "end_time": 104.41136363636363,
                "pitch": 55,
                "velocity": 64,
                "duration": 0.2136363636363683,
                "tempo": 120.0
            },
            {
                "start_time": 104.42727272727272,
                "end_time": 104.64090909090909,
                "pitch": 53,
                "velocity": 64,
                "duration": 0.2136363636363683,
                "tempo": 120.0
            },
            {
                "start_time": 104.65681818181818,
                "end_time": 104.875,
                "pitch": 55,
                "velocity": 64,
                "duration": 0.2181818181818187,
                "tempo": 120.0
            },
            {
                "start_time": 104.89090909090909,
                "end_time": 105.33863636363635,
                "pitch": 60,
                "velocity": 64,
                "duration": 0.4477272727272634,
                "tempo": 120.0
            },
            {
                "start_time": 105.35454545454544,
                "end_time": 105.56590909090909,
                "pitch": 58,
                "velocity": 64,
                "duration": 0.21136363636364308,
                "tempo": 120.0
            },
            {
                "start_time": 105.5840909090909,
                "end_time": 105.8,
                "pitch": 56,
                "velocity": 64,
                "duration": 0.2159090909090935,
                "tempo": 120.0
            },
            {
                "start_time": 105.81818181818181,
                "end_time": 106.03636363636363,
                "pitch": 55,
                "velocity": 64,
                "duration": 0.2181818181818187,
                "tempo": 120.0
            },
            {
                "start_time": 106.05227272727272,
                "end_time": 106.27045454545454,
                "pitch": 53,
                "velocity": 64,
                "duration": 0.2181818181818187,
                "tempo": 120.0
            },
            {
                "start_time": 106.28636363636363,
                "end_time": 106.50454545454545,
                "pitch": 51,
                "velocity": 64,
                "duration": 0.2181818181818187,
                "tempo": 120.0
            },
            {
                "start_time": 106.52045454545454,
                "end_time": 106.73863636363636,
                "pitch": 53,
                "velocity": 64,
                "duration": 0.2181818181818187,
                "tempo": 120.0
            },
            {
                "start_time": 106.75681818181818,
                "end_time": 107.20227272727273,
                "pitch": 55,
                "velocity": 64,
                "duration": 0.44545454545455243,
                "tempo": 120.0
            },
            {
                "start_time": 107.22045454545454,
                "end_time": 107.43181818181817,
                "pitch": 50,
                "velocity": 64,
                "duration": 0.21136363636362887,
                "tempo": 120.0
            },
            {
                "start_time": 107.44772727272726,
                "end_time": 107.66590909090908,
                "pitch": 48,
                "velocity": 64,
                "duration": 0.2181818181818187,
                "tempo": 120.0
            },
            {
                "start_time": 107.6840909090909,
                "end_time": 107.89999999999999,
                "pitch": 46,
                "velocity": 64,
                "duration": 0.2159090909090935,
                "tempo": 120.0
            },
            {
                "start_time": 107.91818181818181,
                "end_time": 109.53181818181818,
                "pitch": 48,
                "velocity": 64,
                "duration": 1.613636363636374,
                "tempo": 120.0
            },
            {
                "start_time": 109.54772727272727,
                "end_time": 111.64772727272727,
                "pitch": 60,
                "velocity": 64,
                "duration": 2.0999999999999943,
                "tempo": 120.0
            },
            {
                "start_time": 112.10681818181817,
                "end_time": 112.4340909090909,
                "pitch": 48,
                "velocity": 64,
                "duration": 0.32727272727272805,
                "tempo": 120.0
            },
            {
                "start_time": 112.44999999999999,
                "end_time": 112.54772727272727,
                "pitch": 48,
                "velocity": 64,
                "duration": 0.09772727272728332,
                "tempo": 120.0
            },
            {
                "start_time": 112.56363636363636,
                "end_time": 113.25227272727273,
                "pitch": 55,
                "velocity": 64,
                "duration": 0.6886363636363626,
                "tempo": 120.0
            },
            {
                "start_time": 113.26818181818182,
                "end_time": 113.48636363636363,
                "pitch": 60,
                "velocity": 64,
                "duration": 0.2181818181818187,
                "tempo": 120.0
            },
            {
                "start_time": 113.50227272727273,
                "end_time": 114.64772727272727,
                "pitch": 67,
                "velocity": 64,
                "duration": 1.145454545454541,
                "tempo": 120.0
            },
            {
                "start_time": 114.66363636363636,
                "end_time": 114.88181818181818,
                "pitch": 65,
                "velocity": 64,
                "duration": 0.2181818181818187,
                "tempo": 120.0
            },
            {
                "start_time": 114.89772727272727,
                "end_time": 115.11590909090908,
                "pitch": 67,
                "velocity": 64,
                "duration": 0.2181818181818187,
                "tempo": 120.0
            },
            {
                "start_time": 115.1340909090909,
                "end_time": 115.35,
                "pitch": 72,
                "velocity": 64,
                "duration": 0.2159090909090935,
                "tempo": 120.0
            },
            {
                "start_time": 115.36818181818181,
                "end_time": 116.27727272727272,
                "pitch": 70,
                "velocity": 64,
                "duration": 0.9090909090909065,
                "tempo": 120.0
            },
            {
                "start_time": 116.29545454545455,
                "end_time": 116.97045454545454,
                "pitch": 68,
                "velocity": 64,
                "duration": 0.6749999999999972,
                "tempo": 120.0
            },
            {
                "start_time": 116.98636363636363,
                "end_time": 117.20454545454545,
                "pitch": 65,
                "velocity": 64,
                "duration": 0.2181818181818187,
                "tempo": 120.0
            },
            {
                "start_time": 117.22272727272727,
                "end_time": 119.08181818181818,
                "pitch": 67,
                "velocity": 64,
                "duration": 1.8590909090909093,
                "tempo": 120.0
            },
            {
                "start_time": 119.09772727272727,
                "end_time": 120.23181818181817,
                "pitch": 75,
                "velocity": 64,
                "duration": 1.1340909090909008,
                "tempo": 120.0
            },
            {
                "start_time": 120.25,
                "end_time": 120.46590909090908,
                "pitch": 74,
                "velocity": 64,
                "duration": 0.21590909090907928,
                "tempo": 120.0
            },
            {
                "start_time": 120.48409090909091,
                "end_time": 120.70227272727273,
                "pitch": 75,
                "velocity": 64,
                "duration": 0.2181818181818187,
                "tempo": 120.0
            },
            {
                "start_time": 120.71818181818182,
                "end_time": 120.93636363636364,
                "pitch": 79,
                "velocity": 64,
                "duration": 0.2181818181818187,
                "tempo": 120.0
            },
            {
                "start_time": 120.95227272727273,
                "end_time": 121.62954545454545,
                "pitch": 77,
                "velocity": 64,
                "duration": 0.6772727272727224,
                "tempo": 120.0
            },
            {
                "start_time": 121.64545454545454,
                "end_time": 122.32045454545454,
                "pitch": 74,
                "velocity": 64,
                "duration": 0.6749999999999972,
                "tempo": 120.0
            },
            {
                "start_time": 122.33863636363635,
                "end_time": 122.79090909090908,
                "pitch": 70,
                "velocity": 64,
                "duration": 0.45227272727272805,
                "tempo": 120.0
            },
            {
                "start_time": 122.80681818181817,
                "end_time": 123.95681818181818,
                "pitch": 75,
                "velocity": 64,
                "duration": 1.1500000000000057,
                "tempo": 120.0
            },
            {
                "start_time": 123.975,
                "end_time": 124.18636363636364,
                "pitch": 74,
                "velocity": 64,
                "duration": 0.21136363636364308,
                "tempo": 120.0
            },
            {
                "start_time": 124.20227272727273,
                "end_time": 124.42045454545453,
                "pitch": 72,
                "velocity": 64,
                "duration": 0.2181818181818045,
                "tempo": 120.0
            },
            {
                "start_time": 124.43863636363636,
                "end_time": 124.65454545454544,
                "pitch": 70,
                "velocity": 64,
                "duration": 0.21590909090907928,
                "tempo": 120.0
            },
            {
                "start_time": 124.67272727272727,
                "end_time": 126.52045454545454,
                "pitch": 72,
                "velocity": 64,
                "duration": 1.847727272727269,
                "tempo": 120.0
            }
        ],
        "Flute": [
            {
                "start_time": 4.129545454545454,
                "end_time": 4.281818181818181,
                "pitch": 60,
                "velocity": 40,
                "duration": 0.15227272727272734,
                "tempo": 120.0
            },
            {
                "start_time": 4.3,
                "end_time": 4.4363636363636365,
                "pitch": 60,
                "velocity": 40,
                "duration": 0.1363636363636367,
                "tempo": 120.0
            },
            {
                "start_time": 4.452272727272727,
                "end_time": 4.588636363636364,
                "pitch": 60,
                "velocity": 40,
                "duration": 0.1363636363636367,
                "tempo": 120.0
            },
            {
                "start_time": 4.6068181818181815,
                "end_time": 4.818181818181818,
                "pitch": 60,
                "velocity": 40,
                "duration": 0.21136363636363686,
                "tempo": 120.0
            },
            {
                "start_time": 5.0636363636363635,
                "end_time": 5.284090909090909,
                "pitch": 60,
                "velocity": 40,
                "duration": 0.22045454545454568,
                "tempo": 120.0
            },
            {
                "start_time": 5.540909090909091,
                "end_time": 5.752272727272727,
                "pitch": 60,
                "velocity": 40,
                "duration": 0.21136363636363598,
                "tempo": 120.0
            },
            {
                "start_time": 5.997727272727272,
                "end_time": 6.1499999999999995,
                "pitch": 60,
                "velocity": 40,
                "duration": 0.15227272727272734,
                "tempo": 120.0
            },
            {
                "start_time": 6.165909090909091,
                "end_time": 6.3,
                "pitch": 60,
                "velocity": 40,
                "duration": 0.13409090909090882,
                "tempo": 120.0
            },
            {
                "start_time": 6.3159090909090905,
                "end_time": 6.449999999999999,
                "pitch": 60,
                "velocity": 40,
                "duration": 0.13409090909090882,
                "tempo": 120.0
            },
            {
                "start_time": 6.465909090909091,
                "end_time": 6.675,
                "pitch": 60,
                "velocity": 40,
                "duration": 0.209090909090909,
                "tempo": 120.0
            },
            {
                "start_time": 6.915909090909091,
                "end_time": 7.138636363636364,
                "pitch": 60,
                "velocity": 40,
                "duration": 0.22272727272727266,
                "tempo": 120.0
            },
            {
                "start_time": 7.3954545454545455,
                "end_time": 7.6068181818181815,
                "pitch": 60,
                "velocity": 40,
                "duration": 0.21136363636363598,
                "tempo": 120.0
            },
            {
                "start_time": 7.852272727272727,
                "end_time": 8.004545454545454,
                "pitch": 60,
                "velocity": 40,
                "duration": 0.15227272727272734,
                "tempo": 120.0
            },
            {
                "start_time": 8.020454545454545,
                "end_time": 8.154545454545454,
                "pitch": 60,
                "velocity": 40,
                "duration": 0.1340909090909097,
                "tempo": 120.0
            },
            {
                "start_time": 8.170454545454545,
                "end_time": 8.304545454545455,
                "pitch": 60,
                "velocity": 40,
                "duration": 0.1340909090909097,
                "tempo": 120.0
            },
            {
                "start_time": 8.322727272727272,
                "end_time": 8.545454545454545,
                "pitch": 60,
                "velocity": 40,
                "duration": 0.22272727272727266,
                "tempo": 120.0
            },
            {
                "start_time": 8.802272727272728,
                "end_time": 9.01590909090909,
                "pitch": 60,
                "velocity": 40,
                "duration": 0.21363636363636296,
                "tempo": 120.0
            },
            {
                "start_time": 9.261363636363637,
                "end_time": 9.477272727272727,
                "pitch": 60,
                "velocity": 40,
                "duration": 0.21590909090908994,
                "tempo": 120.0
            },
            {
                "start_time": 9.729545454545454,
                "end_time": 9.877272727272727,
                "pitch": 60,
                "velocity": 40,
                "duration": 0.14772727272727337,
                "tempo": 120.0
            },
            {
                "start_time": 9.893181818181818,
                "end_time": 10.025,
                "pitch": 60,
                "velocity": 40,
                "duration": 0.13181818181818272,
                "tempo": 120.0
            },
            {
                "start_time": 10.040909090909091,
                "end_time": 10.170454545454545,
                "pitch": 60,
                "velocity": 40,
                "duration": 0.12954545454545396,
                "tempo": 120.0
            },
            {
                "start_time": 10.186363636363636,
                "end_time": 10.395454545454545,
                "pitch": 60,
                "velocity": 40,
                "duration": 0.209090909090909,
                "tempo": 120.0
            },
            {
                "start_time": 10.636363636363637,
                "end_time": 10.85909090909091,
                "pitch": 60,
                "velocity": 40,
                "duration": 0.22272727272727266,
                "tempo": 120.0
            },
            {
                "start_time": 11.11590909090909,
                "end_time": 11.327272727272726,
                "pitch": 58,
                "velocity": 40,
                "duration": 0.21136363636363598,
                "tempo": 120.0
            },
            {
                "start_time": 11.572727272727272,
                "end_time": 11.727272727272727,
                "pitch": 58,
                "velocity": 40,
                "duration": 0.15454545454545432,
                "tempo": 120.0
            },
            {
                "start_time": 11.745454545454544,
                "end_time": 11.881818181818181,
                "pitch": 58,
                "velocity": 40,
                "duration": 0.1363636363636367,
                "tempo": 120.0
            },
            {
                "start_time": 11.899999999999999,
                "end_time": 12.036363636363635,
                "pitch": 58,
                "velocity": 40,
                "duration": 0.1363636363636367,
                "tempo": 120.0
            },
            {
                "start_time": 12.052272727272726,
                "end_time": 12.261363636363635,
                "pitch": 58,
                "velocity": 40,
                "duration": 0.209090909090909,
                "tempo": 120.0
            },
            {
                "start_time": 12.5,
                "end_time": 12.722727272727273,
                "pitch": 58,
                "velocity": 40,
                "duration": 0.22272727272727266,
                "tempo": 120.0
            },
            {
                "start_time": 12.98181818181818,
                "end_time": 13.204545454545453,
                "pitch": 55,
                "velocity": 40,
                "duration": 0.22272727272727266,
                "tempo": 120.0
            },
            {
                "start_time": 13.461363636363636,
                "end_time": 13.609090909090908,
                "pitch": 55,
                "velocity": 40,
                "duration": 0.1477272727272716,
                "tempo": 120.0
            },
            {
                "start_time": 13.625,
                "end_time": 13.756818181818181,
                "pitch": 55,
                "velocity": 40,
                "duration": 0.13181818181818095,
                "tempo": 120.0
            },
            {
                "start_time": 13.772727272727272,
                "end_time": 13.904545454545454,
                "pitch": 55,
                "velocity": 40,
                "duration": 0.13181818181818272,
                "tempo": 120.0
            },
            {
                "start_time": 13.920454545454545,
                "end_time": 14.136363636363635,
                "pitch": 55,
                "velocity": 40,
                "duration": 0.21590909090908994,
                "tempo": 120.0
            },
            {
                "start_time": 14.388636363636364,
                "end_time": 14.60681818181818,
                "pitch": 55,
                "velocity": 40,
                "duration": 0.21818181818181692,
                "tempo": 120.0
            },
            {
                "start_time": 14.85681818181818,
                "end_time": 15.075,
                "pitch": 60,
                "velocity": 40,
                "duration": 0.2181818181818187,
                "tempo": 120.0
            },
            {
                "start_time": 15.327272727272726,
                "end_time": 15.470454545454544,
                "pitch": 60,
                "velocity": 40,
                "duration": 0.14318181818181763,
                "tempo": 120.0
            },
            {
                "start_time": 15.486363636363636,
                "end_time": 15.613636363636363,
                "pitch": 60,
                "velocity": 40,
                "duration": 0.12727272727272698,
                "tempo": 120.0
            },
            {
                "start_time": 15.631818181818181,
                "end_time": 15.759090909090908,
                "pitch": 60,
                "velocity": 40,
                "duration": 0.12727272727272698,
                "tempo": 120.0
            },
            {
                "start_time": 15.774999999999999,
                "end_time": 15.98181818181818,
                "pitch": 60,
                "velocity": 40,
                "duration": 0.206818181818182,
                "tempo": 120.0
            },
            {
                "start_time": 16.222727272727273,
                "end_time": 16.44090909090909,
                "pitch": 60,
                "velocity": 40,
                "duration": 0.2181818181818187,
                "tempo": 120.0
            },
            {
                "start_time": 16.69090909090909,
                "end_time": 16.904545454545453,
                "pitch": 58,
                "velocity": 40,
                "duration": 0.21363636363636118,
                "tempo": 120.0
            },
            {
                "start_time": 17.15,
                "end_time": 17.30681818181818,
                "pitch": 58,
                "velocity": 40,
                "duration": 0.1568181818181813,
                "tempo": 120.0
            },
            {
                "start_time": 17.325,
                "end_time": 17.46363636363636,
                "pitch": 58,
                "velocity": 40,
                "duration": 0.1386363636363619,
                "tempo": 120.0
            },
            {
                "start_time": 17.48181818181818,
                "end_time": 17.620454545454546,
                "pitch": 58,
                "velocity": 40,
                "duration": 0.13863636363636545,
                "tempo": 120.0
            },
            {
                "start_time": 17.636363636363637,
                "end_time": 17.845454545454544,
                "pitch": 58,
                "velocity": 40,
                "duration": 0.20909090909090722,
                "tempo": 120.0
            },
            {
                "start_time": 18.084090909090907,
                "end_time": 18.302272727272726,
                "pitch": 58,
                "velocity": 40,
                "duration": 0.2181818181818187,
                "tempo": 120.0
            },
            {
                "start_time": 18.554545454545455,
                "end_time": 18.772727272727273,
                "pitch": 60,
                "velocity": 40,
                "duration": 0.2181818181818187,
                "tempo": 120.0
            },
            {
                "start_time": 19.022727272727273,
                "end_time": 19.177272727272726,
                "pitch": 60,
                "velocity": 40,
                "duration": 0.15454545454545254,
                "tempo": 120.0
            },
            {
                "start_time": 19.195454545454545,
                "end_time": 19.331818181818182,
                "pitch": 60,
                "velocity": 40,
                "duration": 0.1363636363636367,
                "tempo": 120.0
            },
            {
                "start_time": 19.349999999999998,
                "end_time": 19.486363636363635,
                "pitch": 60,
                "velocity": 40,
                "duration": 0.1363636363636367,
                "tempo": 120.0
            },
            {
                "start_time": 19.502272727272725,
                "end_time": 19.711363636363636,
                "pitch": 58,
                "velocity": 40,
                "duration": 0.20909090909091077,
                "tempo": 120.0
            },
            {
                "start_time": 19.95,
                "end_time": 20.163636363636364,
                "pitch": 56,
                "velocity": 40,
                "duration": 0.21363636363636473,
                "tempo": 120.0
            },
            {
                "start_time": 20.409090909090907,
                "end_time": 20.63181818181818,
                "pitch": 55,
                "velocity": 40,
                "duration": 0.22272727272727266,
                "tempo": 120.0
            },
            {
                "start_time": 20.888636363636362,
                "end_time": 21.04090909090909,
                "pitch": 55,
                "velocity": 40,
                "duration": 0.15227272727272734,
                "tempo": 120.0
            },
            {
                "start_time": 21.05681818181818,
                "end_time": 21.19090909090909,
                "pitch": 55,
                "velocity": 40,
                "duration": 0.13409090909091148,
                "tempo": 120.0
            },
            {
                "start_time": 21.206818181818182,
                "end_time": 21.34090909090909,
                "pitch": 55,
                "velocity": 40,
                "duration": 0.13409090909090793,
                "tempo": 120.0
            },
            {
                "start_time": 21.35909090909091,
                "end_time": 21.509090909090908,
                "pitch": 55,
                "velocity": 40,
                "duration": 0.14999999999999858,
                "tempo": 120.0
            },
            {
                "start_time": 21.525,
                "end_time": 21.659090909090907,
                "pitch": 55,
                "velocity": 40,
                "duration": 0.13409090909090793,
                "tempo": 120.0
            },
            {
                "start_time": 21.677272727272726,
                "end_time": 21.811363636363634,
                "pitch": 55,
                "velocity": 40,
                "duration": 0.13409090909090793,
                "tempo": 120.0
            },
            {
                "start_time": 21.827272727272724,
                "end_time": 21.977272727272727,
                "pitch": 55,
                "velocity": 40,
                "duration": 0.15000000000000213,
                "tempo": 120.0
            },
            {
                "start_time": 21.995454545454546,
                "end_time": 22.129545454545454,
                "pitch": 55,
                "velocity": 40,
                "duration": 0.13409090909090793,
                "tempo": 120.0
            },
            {
                "start_time": 22.145454545454545,
                "end_time": 22.279545454545453,
                "pitch": 55,
                "velocity": 40,
                "duration": 0.13409090909090793,
                "tempo": 120.0
            },
            {
                "start_time": 22.297727272727272,
                "end_time": 22.395454545454545,
                "pitch": 55,
                "velocity": 40,
                "duration": 0.09772727272727266,
                "tempo": 120.0
            },
            {
                "start_time": 22.525,
                "end_time": 22.625,
                "pitch": 55,
                "velocity": 40,
                "duration": 0.10000000000000142,
                "tempo": 120.0
            },
            {
                "start_time": 22.754545454545454,
                "end_time": 22.854545454545452,
                "pitch": 55,
                "velocity": 40,
                "duration": 0.09999999999999787,
                "tempo": 120.0
            },
            {
                "start_time": 22.988636363636363,
                "end_time": 23.09090909090909,
                "pitch": 55,
                "velocity": 40,
                "duration": 0.10227272727272663,
                "tempo": 120.0
            },
            {
                "start_time": 23.222727272727273,
                "end_time": 23.32272727272727,
                "pitch": 55,
                "velocity": 40,
                "duration": 0.09999999999999787,
                "tempo": 120.0
            },
            {
                "start_time": 23.452272727272724,
                "end_time": 23.549999999999997,
                "pitch": 55,
                "velocity": 40,
                "duration": 0.09772727272727266,
                "tempo": 120.0
            },
            {
                "start_time": 23.68181818181818,
                "end_time": 23.78181818181818,
                "pitch": 55,
                "velocity": 40,
                "duration": 0.10000000000000142,
                "tempo": 120.0
            },
            {
                "start_time": 23.91590909090909,
                "end_time": 24.01590909090909,
                "pitch": 55,
                "velocity": 40,
                "duration": 0.10000000000000142,
                "tempo": 120.0
            },
            {
                "start_time": 24.15,
                "end_time": 24.25,
                "pitch": 55,
                "velocity": 40,
                "duration": 0.10000000000000142,
                "tempo": 120.0
            },
            {
                "start_time": 24.379545454545454,
                "end_time": 24.477272727272727,
                "pitch": 55,
                "velocity": 40,
                "duration": 0.09772727272727266,
                "tempo": 120.0
            },
            {
                "start_time": 24.60909090909091,
                "end_time": 24.709090909090907,
                "pitch": 55,
                "velocity": 40,
                "duration": 0.09999999999999787,
                "tempo": 120.0
            },
            {
                "start_time": 24.84318181818182,
                "end_time": 24.943181818181817,
                "pitch": 55,
                "velocity": 40,
                "duration": 0.09999999999999787,
                "tempo": 120.0
            },
            {
                "start_time": 25.077272727272724,
                "end_time": 25.179545454545455,
                "pitch": 55,
                "velocity": 40,
                "duration": 0.10227272727273018,
                "tempo": 120.0
            },
            {
                "start_time": 25.313636363636363,
                "end_time": 25.413636363636364,
                "pitch": 55,
                "velocity": 40,
                "duration": 0.10000000000000142,
                "tempo": 120.0
            },
            {
                "start_time": 25.547727272727272,
                "end_time": 25.64772727272727,
                "pitch": 55,
                "velocity": 40,
                "duration": 0.09999999999999787,
                "tempo": 120.0
            },
            {
                "start_time": 25.78181818181818,
                "end_time": 25.88181818181818,
                "pitch": 55,
                "velocity": 40,
                "duration": 0.09999999999999787,
                "tempo": 120.0
            },
            {
                "start_time": 26.01590909090909,
                "end_time": 26.113636363636363,
                "pitch": 53,
                "velocity": 40,
                "duration": 0.09772727272727266,
                "tempo": 120.0
            },
            {
                "start_time": 26.245454545454542,
                "end_time": 26.343181818181815,
                "pitch": 53,
                "velocity": 40,
                "duration": 0.09772727272727266,
                "tempo": 120.0
            },
            {
                "start_time": 26.474999999999998,
                "end_time": 26.575,
                "pitch": 53,
                "velocity": 40,
                "duration": 0.10000000000000142,
                "tempo": 120.0
            },
            {
                "start_time": 26.709090909090907,
                "end_time": 26.80909090909091,
                "pitch": 53,
                "velocity": 40,
                "duration": 0.10000000000000142,
                "tempo": 120.0
            },
            {
                "start_time": 26.943181818181817,
                "end_time": 27.04090909090909,
                "pitch": 53,
                "velocity": 40,
                "duration": 0.09772727272727266,
                "tempo": 120.0
            },
            {
                "start_time": 27.172727272727272,
                "end_time": 27.270454545454545,
                "pitch": 53,
                "velocity": 40,
                "duration": 0.09772727272727266,
                "tempo": 120.0
            },
            {
                "start_time": 27.402272727272727,
                "end_time": 27.502272727272725,
                "pitch": 53,
                "velocity": 40,
                "duration": 0.09999999999999787,
                "tempo": 120.0
            },
            {
                "start_time": 27.636363636363637,
                "end_time": 27.736363636363635,
                "pitch": 53,
                "velocity": 40,
                "duration": 0.09999999999999787,
                "tempo": 120.0
            },
            {
                "start_time": 27.870454545454542,
                "end_time": 27.970454545454544,
                "pitch": 53,
                "velocity": 40,
                "duration": 0.10000000000000142,
                "tempo": 120.0
            },
            {
                "start_time": 28.104545454545452,
                "end_time": 28.204545454545453,
                "pitch": 53,
                "velocity": 40,
                "duration": 0.10000000000000142,
                "tempo": 120.0
            },
            {
                "start_time": 28.33863636363636,
                "end_time": 28.440909090909088,
                "pitch": 53,
                "velocity": 40,
                "duration": 0.10227272727272663,
                "tempo": 120.0
            },
            {
                "start_time": 28.575,
                "end_time": 28.674999999999997,
                "pitch": 53,
                "velocity": 40,
                "duration": 0.09999999999999787,
                "tempo": 120.0
            },
            {
                "start_time": 28.80909090909091,
                "end_time": 28.90681818181818,
                "pitch": 53,
                "velocity": 40,
                "duration": 0.09772727272727266,
                "tempo": 120.0
            },
            {
                "start_time": 29.036363636363635,
                "end_time": 29.136363636363637,
                "pitch": 53,
                "velocity": 40,
                "duration": 0.10000000000000142,
                "tempo": 120.0
            },
            {
                "start_time": 29.26590909090909,
                "end_time": 29.368181818181817,
                "pitch": 53,
                "velocity": 40,
                "duration": 0.10227272727272663,
                "tempo": 120.0
            },
            {
                "start_time": 29.5,
                "end_time": 29.602272727272727,
                "pitch": 53,
                "velocity": 40,
                "duration": 0.10227272727272663,
                "tempo": 120.0
            },
            {
                "start_time": 29.736363636363635,
                "end_time": 29.834090909090907,
                "pitch": 55,
                "velocity": 40,
                "duration": 0.09772727272727266,
                "tempo": 120.0
            },
            {
                "start_time": 29.96363636363636,
                "end_time": 30.063636363636363,
                "pitch": 55,
                "velocity": 40,
                "duration": 0.10000000000000142,
                "tempo": 120.0
            },
            {
                "start_time": 30.193181818181817,
                "end_time": 30.293181818181818,
                "pitch": 55,
                "velocity": 40,
                "duration": 0.10000000000000142,
                "tempo": 120.0
            },
            {
                "start_time": 30.427272727272726,
                "end_time": 30.529545454545453,
                "pitch": 55,
                "velocity": 40,
                "duration": 0.10227272727272663,
                "tempo": 120.0
            },
            {
                "start_time": 30.66363636363636,
                "end_time": 30.763636363636362,
                "pitch": 55,
                "velocity": 40,
                "duration": 0.10000000000000142,
                "tempo": 120.0
            },
            {
                "start_time": 30.89772727272727,
                "end_time": 30.99772727272727,
                "pitch": 55,
                "velocity": 40,
                "duration": 0.10000000000000142,
                "tempo": 120.0
            },
            {
                "start_time": 31.13181818181818,
                "end_time": 31.23181818181818,
                "pitch": 55,
                "velocity": 40,
                "duration": 0.10000000000000142,
                "tempo": 120.0
            },
            {
                "start_time": 31.36590909090909,
                "end_time": 31.46590909090909,
                "pitch": 55,
                "velocity": 40,
                "duration": 0.10000000000000142,
                "tempo": 120.0
            },
            {
                "start_time": 31.599999999999998,
                "end_time": 31.7,
                "pitch": 53,
                "velocity": 40,
                "duration": 0.10000000000000142,
                "tempo": 120.0
            },
            {
                "start_time": 31.829545454545453,
                "end_time": 31.927272727272726,
                "pitch": 53,
                "velocity": 40,
                "duration": 0.09772727272727266,
                "tempo": 120.0
            },
            {
                "start_time": 32.059090909090905,
                "end_time": 32.15909090909091,
                "pitch": 53,
                "velocity": 40,
                "duration": 0.10000000000000142,
                "tempo": 120.0
            },
            {
                "start_time": 32.293181818181814,
                "end_time": 32.393181818181816,
                "pitch": 53,
                "velocity": 40,
                "duration": 0.10000000000000142,
                "tempo": 120.0
            },
            {
                "start_time": 32.527272727272724,
                "end_time": 32.625,
                "pitch": 53,
                "velocity": 40,
                "duration": 0.09772727272727622,
                "tempo": 120.0
            },
            {
                "start_time": 32.75681818181818,
                "end_time": 32.85454545454545,
                "pitch": 53,
                "velocity": 40,
                "duration": 0.09772727272726911,
                "tempo": 120.0
            },
            {
                "start_time": 32.986363636363635,
                "end_time": 33.086363636363636,
                "pitch": 53,
                "velocity": 40,
                "duration": 0.10000000000000142,
                "tempo": 120.0
            },
            {
                "start_time": 33.220454545454544,
                "end_time": 33.320454545454545,
                "pitch": 53,
                "velocity": 40,
                "duration": 0.10000000000000142,
                "tempo": 120.0
            },
            {
                "start_time": 33.45454545454545,
                "end_time": 33.554545454545455,
                "pitch": 55,
                "velocity": 40,
                "duration": 0.10000000000000142,
                "tempo": 120.0
            },
            {
                "start_time": 33.68863636363636,
                "end_time": 33.79090909090909,
                "pitch": 55,
                "velocity": 40,
                "duration": 0.10227272727272663,
                "tempo": 120.0
            },
            {
                "start_time": 33.925,
                "end_time": 34.025,
                "pitch": 55,
                "velocity": 40,
                "duration": 0.10000000000000142,
                "tempo": 120.0
            },
            {
                "start_time": 34.15909090909091,
                "end_time": 34.25909090909091,
                "pitch": 55,
                "velocity": 40,
                "duration": 0.10000000000000142,
                "tempo": 120.0
            },
            {
                "start_time": 34.393181818181816,
                "end_time": 34.49090909090909,
                "pitch": 55,
                "velocity": 40,
                "duration": 0.09772727272727622,
                "tempo": 120.0
            },
            {
                "start_time": 34.62272727272727,
                "end_time": 34.720454545454544,
                "pitch": 55,
                "velocity": 40,
                "duration": 0.09772727272727622,
                "tempo": 120.0
            },
            {
                "start_time": 34.85227272727273,
                "end_time": 34.95227272727273,
                "pitch": 55,
                "velocity": 40,
                "duration": 0.10000000000000142,
                "tempo": 120.0
            },
            {
                "start_time": 35.086363636363636,
                "end_time": 35.18636363636364,
                "pitch": 55,
                "velocity": 40,
                "duration": 0.10000000000000142,
                "tempo": 120.0
            },
            {
                "start_time": 35.320454545454545,
                "end_time": 35.418181818181814,
                "pitch": 60,
                "velocity": 40,
                "duration": 0.09772727272726911,
                "tempo": 120.0
            },
            {
                "start_time": 35.55,
                "end_time": 35.64772727272727,
                "pitch": 60,
                "velocity": 40,
                "duration": 0.09772727272727622,
                "tempo": 120.0
            },
            {
                "start_time": 35.777272727272724,
                "end_time": 35.87954545454545,
                "pitch": 60,
                "velocity": 40,
                "duration": 0.10227272727272663,
                "tempo": 120.0
            },
            {
                "start_time": 36.01363636363636,
                "end_time": 36.11363636363636,
                "pitch": 60,
                "velocity": 40,
                "duration": 0.10000000000000142,
                "tempo": 120.0
            },
            {
                "start_time": 36.24772727272727,
                "end_time": 36.34772727272727,
                "pitch": 60,
                "velocity": 40,
                "duration": 0.10000000000000142,
                "tempo": 120.0
            },
            {
                "start_time": 36.48181818181818,
                "end_time": 36.58181818181818,
                "pitch": 60,
                "velocity": 40,
                "duration": 0.10000000000000142,
                "tempo": 120.0
            },
            {
                "start_time": 36.715909090909086,
                "end_time": 36.81590909090909,
                "pitch": 60,
                "velocity": 40,
                "duration": 0.10000000000000142,
                "tempo": 120.0
            },
            {
                "start_time": 36.949999999999996,
                "end_time": 37.05227272727272,
                "pitch": 60,
                "velocity": 40,
                "duration": 0.10227272727272663,
                "tempo": 120.0
            },
            {
                "start_time": 37.18636363636364,
                "end_time": 37.28409090909091,
                "pitch": 56,
                "velocity": 40,
                "duration": 0.09772727272726911,
                "tempo": 120.0
            },
            {
                "start_time": 37.413636363636364,
                "end_time": 37.51363636363636,
                "pitch": 56,
                "velocity": 40,
                "duration": 0.09999999999999432,
                "tempo": 120.0
            },
            {
                "start_time": 37.643181818181816,
                "end_time": 37.74318181818182,
                "pitch": 56,
                "velocity": 40,
                "duration": 0.10000000000000142,
                "tempo": 120.0
            },
            {
                "start_time": 37.877272727272725,
                "end_time": 37.97954545454545,
                "pitch": 56,
                "velocity": 40,
                "duration": 0.10227272727272663,
                "tempo": 120.0
            },
            {
                "start_time": 38.111363636363635,
                "end_time": 38.211363636363636,
                "pitch": 56,
                "velocity": 40,
                "duration": 0.10000000000000142,
                "tempo": 120.0
            },
            {
                "start_time": 38.340909090909086,
                "end_time": 38.43863636363636,
                "pitch": 56,
                "velocity": 40,
                "duration": 0.09772727272727622,
                "tempo": 120.0
            },
            {
                "start_time": 38.570454545454545,
                "end_time": 38.67272727272727,
                "pitch": 56,
                "velocity": 40,
                "duration": 0.10227272727272663,
                "tempo": 120.0
            },
            {
                "start_time": 38.81136363636364,
                "end_time": 38.913636363636364,
                "pitch": 56,
                "velocity": 40,
                "duration": 0.10227272727272663,
                "tempo": 120.0
            },
            {
                "start_time": 39.05,
                "end_time": 39.15,
                "pitch": 55,
                "velocity": 40,
                "duration": 0.10000000000000142,
                "tempo": 120.0
            },
            {
                "start_time": 39.279545454545456,
                "end_time": 39.377272727272725,
                "pitch": 55,
                "velocity": 40,
                "duration": 0.09772727272726911,
                "tempo": 120.0
            },
            {
                "start_time": 39.50909090909091,
                "end_time": 39.60909090909091,
                "pitch": 55,
                "velocity": 40,
                "duration": 0.10000000000000142,
                "tempo": 120.0
            },
            {
                "start_time": 39.74318181818182,
                "end_time": 39.84318181818182,
                "pitch": 55,
                "velocity": 40,
                "duration": 0.10000000000000142,
                "tempo": 120.0
            },
            {
                "start_time": 39.97727272727273,
                "end_time": 40.074999999999996,
                "pitch": 55,
                "velocity": 40,
                "duration": 0.09772727272726911,
                "tempo": 120.0
            },
            {
                "start_time": 40.20681818181818,
                "end_time": 40.304545454545455,
                "pitch": 55,
                "velocity": 40,
                "duration": 0.09772727272727622,
                "tempo": 120.0
            },
            {
                "start_time": 40.43636363636364,
                "end_time": 40.53636363636363,
                "pitch": 55,
                "velocity": 40,
                "duration": 0.09999999999999432,
                "tempo": 120.0
            },
            {
                "start_time": 40.67045454545455,
                "end_time": 40.77045454545454,
                "pitch": 55,
                "velocity": 40,
                "duration": 0.09999999999999432,
                "tempo": 120.0
            },
            {
                "start_time": 40.904545454545456,
                "end_time": 41.002272727272725,
                "pitch": 53,
                "velocity": 40,
                "duration": 0.09772727272726911,
                "tempo": 120.0
            },
            {
                "start_time": 41.13409090909091,
                "end_time": 41.23181818181818,
                "pitch": 53,
                "velocity": 40,
                "duration": 0.09772727272726911,
                "tempo": 120.0
            },
            {
                "start_time": 41.36363636363636,
                "end_time": 41.46363636363636,
                "pitch": 53,
                "velocity": 40,
                "duration": 0.10000000000000142,
                "tempo": 120.0
            },
            {
                "start_time": 41.59772727272727,
                "end_time": 41.69772727272727,
                "pitch": 53,
                "velocity": 40,
                "duration": 0.10000000000000142,
                "tempo": 120.0
            },
            {
                "start_time": 41.83181818181818,
                "end_time": 41.93181818181818,
                "pitch": 53,
                "velocity": 40,
                "duration": 0.10000000000000142,
                "tempo": 120.0
            },
            {
                "start_time": 42.06590909090909,
                "end_time": 42.168181818181814,
                "pitch": 53,
                "velocity": 40,
                "duration": 0.10227272727272663,
                "tempo": 120.0
            },
            {
                "start_time": 42.30227272727272,
                "end_time": 42.402272727272724,
                "pitch": 53,
                "velocity": 40,
                "duration": 0.10000000000000142,
                "tempo": 120.0
            },
            {
                "start_time": 42.53636363636363,
                "end_time": 42.63636363636363,
                "pitch": 53,
                "velocity": 40,
                "duration": 0.10000000000000142,
                "tempo": 120.0
            },
            {
                "start_time": 42.77045454545454,
                "end_time": 42.86818181818182,
                "pitch": 55,
                "velocity": 40,
                "duration": 0.09772727272727622,
                "tempo": 120.0
            },
            {
                "start_time": 43.0,
                "end_time": 43.09772727272727,
                "pitch": 55,
                "velocity": 40,
                "duration": 0.09772727272726911,
                "tempo": 120.0
            },
            {
                "start_time": 43.22727272727273,
                "end_time": 43.32954545454545,
                "pitch": 55,
                "velocity": 40,
                "duration": 0.10227272727272663,
                "tempo": 120.0
            },
            {
                "start_time": 43.46363636363636,
                "end_time": 43.56363636363636,
                "pitch": 55,
                "velocity": 40,
                "duration": 0.10000000000000142,
                "tempo": 120.0
            },
            {
                "start_time": 43.69772727272727,
                "end_time": 43.79545454545455,
                "pitch": 55,
                "velocity": 40,
                "duration": 0.09772727272727622,
                "tempo": 120.0
            },
            {
                "start_time": 43.92727272727272,
                "end_time": 44.025,
                "pitch": 55,
                "velocity": 40,
                "duration": 0.09772727272727622,
                "tempo": 120.0
            },
            {
                "start_time": 44.15454545454545,
                "end_time": 44.25681818181818,
                "pitch": 55,
                "velocity": 40,
                "duration": 0.10227272727273373,
                "tempo": 120.0
            },
            {
                "start_time": 44.39090909090909,
                "end_time": 44.49090909090909,
                "pitch": 55,
                "velocity": 40,
                "duration": 0.10000000000000142,
                "tempo": 120.0
            },
            {
                "start_time": 44.625,
                "end_time": 44.724999999999994,
                "pitch": 56,
                "velocity": 40,
                "duration": 0.09999999999999432,
                "tempo": 120.0
            },
            {
                "start_time": 44.85909090909091,
                "end_time": 44.959090909090904,
                "pitch": 56,
                "velocity": 40,
                "duration": 0.09999999999999432,
                "tempo": 120.0
            },
            {
                "start_time": 45.09318181818182,
                "end_time": 45.19318181818181,
                "pitch": 56,
                "velocity": 40,
                "duration": 0.09999999999999432,
                "tempo": 120.0
            },
            {
                "start_time": 45.32727272727273,
                "end_time": 45.429545454545455,
                "pitch": 56,
                "velocity": 40,
                "duration": 0.10227272727272663,
                "tempo": 120.0
            },
            {
                "start_time": 45.56136363636364,
                "end_time": 45.66136363636363,
                "pitch": 56,
                "velocity": 40,
                "duration": 0.09999999999999432,
                "tempo": 120.0
            },
            {
                "start_time": 45.79090909090909,
                "end_time": 45.88863636363636,
                "pitch": 56,
                "velocity": 40,
                "duration": 0.09772727272726911,
                "tempo": 120.0
            },
            {
                "start_time": 46.02045454545454,
                "end_time": 46.12045454545454,
                "pitch": 56,
                "velocity": 40,
                "duration": 0.10000000000000142,
                "tempo": 120.0
            },
            {
                "start_time": 46.25454545454545,
                "end_time": 46.35454545454545,
                "pitch": 56,
                "velocity": 40,
                "duration": 0.10000000000000142,
                "tempo": 120.0
            },
            {
                "start_time": 46.48863636363636,
                "end_time": 46.58863636363636,
                "pitch": 55,
                "velocity": 40,
                "duration": 0.10000000000000142,
                "tempo": 120.0
            },
            {
                "start_time": 46.71818181818182,
                "end_time": 46.81590909090909,
                "pitch": 55,
                "velocity": 40,
                "duration": 0.09772727272726911,
                "tempo": 120.0
            },
            {
                "start_time": 46.94772727272727,
                "end_time": 47.04772727272727,
                "pitch": 55,
                "velocity": 40,
                "duration": 0.10000000000000142,
                "tempo": 120.0
            },
            {
                "start_time": 47.18181818181818,
                "end_time": 47.28181818181818,
                "pitch": 55,
                "velocity": 40,
                "duration": 0.10000000000000142,
                "tempo": 120.0
            },
            {
                "start_time": 47.41590909090909,
                "end_time": 47.518181818181816,
                "pitch": 55,
                "velocity": 40,
                "duration": 0.10227272727272663,
                "tempo": 120.0
            },
            {
                "start_time": 47.652272727272724,
                "end_time": 47.752272727272725,
                "pitch": 55,
                "velocity": 40,
                "duration": 0.10000000000000142,
                "tempo": 120.0
            },
            {
                "start_time": 47.88636363636363,
                "end_time": 47.986363636363635,
                "pitch": 55,
                "velocity": 40,
                "duration": 0.10000000000000142,
                "tempo": 120.0
            },
            {
                "start_time": 48.12045454545454,
                "end_time": 48.220454545454544,
                "pitch": 55,
                "velocity": 40,
                "duration": 0.10000000000000142,
                "tempo": 120.0
            },
            {
                "start_time": 48.35454545454545,
                "end_time": 48.45227272727273,
                "pitch": 53,
                "velocity": 40,
                "duration": 0.09772727272727622,
                "tempo": 120.0
            },
            {
                "start_time": 48.584090909090904,
                "end_time": 48.68181818181818,
                "pitch": 53,
                "velocity": 40,
                "duration": 0.09772727272727622,
                "tempo": 120.0
            },
            {
                "start_time": 48.81363636363636,
                "end_time": 48.913636363636364,
                "pitch": 53,
                "velocity": 40,
                "duration": 0.10000000000000142,
                "tempo": 120.0
            },
            {
                "start_time": 49.04772727272727,
                "end_time": 49.14772727272727,
                "pitch": 53,
                "velocity": 40,
                "duration": 0.10000000000000142,
                "tempo": 120.0
            },
            {
                "start_time": 49.28181818181818,
                "end_time": 49.37954545454545,
                "pitch": 53,
                "velocity": 40,
                "duration": 0.09772727272726911,
                "tempo": 120.0
            },
            {
                "start_time": 49.51136363636363,
                "end_time": 49.60909090909091,
                "pitch": 53,
                "velocity": 40,
                "duration": 0.09772727272727622,
                "tempo": 120.0
            },
            {
                "start_time": 49.740909090909085,
                "end_time": 49.840909090909086,
                "pitch": 53,
                "velocity": 40,
                "duration": 0.10000000000000142,
                "tempo": 120.0
            },
            {
                "start_time": 49.974999999999994,
                "end_time": 50.074999999999996,
                "pitch": 53,
                "velocity": 40,
                "duration": 0.10000000000000142,
                "tempo": 120.0
            },
            {
                "start_time": 50.209090909090904,
                "end_time": 50.309090909090905,
                "pitch": 55,
                "velocity": 40,
                "duration": 0.10000000000000142,
                "tempo": 120.0
            },
            {
                "start_time": 50.44318181818181,
                "end_time": 50.543181818181814,
                "pitch": 55,
                "velocity": 40,
                "duration": 0.10000000000000142,
                "tempo": 120.0
            },
            {
                "start_time": 50.67727272727272,
                "end_time": 50.77954545454545,
                "pitch": 55,
                "velocity": 40,
                "duration": 0.10227272727272663,
                "tempo": 120.0
            },
            {
                "start_time": 50.913636363636364,
                "end_time": 51.01363636363636,
                "pitch": 55,
                "velocity": 40,
                "duration": 0.09999999999999432,
                "tempo": 120.0
            },
            {
                "start_time": 51.14772727272727,
                "end_time": 51.24545454545454,
                "pitch": 55,
                "velocity": 40,
                "duration": 0.09772727272726911,
                "tempo": 120.0
            },
            {
                "start_time": 51.377272727272725,
                "end_time": 51.474999999999994,
                "pitch": 55,
                "velocity": 40,
                "duration": 0.09772727272726911,
                "tempo": 120.0
            },
            {
                "start_time": 51.60454545454545,
                "end_time": 51.70681818181818,
                "pitch": 55,
                "velocity": 40,
                "duration": 0.10227272727272663,
                "tempo": 120.0
            },
            {
                "start_time": 51.840909090909086,
                "end_time": 51.94090909090909,
                "pitch": 55,
                "velocity": 40,
                "duration": 0.10000000000000142,
                "tempo": 120.0
            },
            {
                "start_time": 52.074999999999996,
                "end_time": 52.17272727272727,
                "pitch": 56,
                "velocity": 40,
                "duration": 0.09772727272727622,
                "tempo": 120.0
            },
            {
                "start_time": 52.30227272727272,
                "end_time": 52.402272727272724,
                "pitch": 56,
                "velocity": 40,
                "duration": 0.10000000000000142,
                "tempo": 120.0
            },
            {
                "start_time": 52.53181818181818,
                "end_time": 52.63181818181818,
                "pitch": 56,
                "velocity": 40,
                "duration": 0.10000000000000142,
                "tempo": 120.0
            },
            {
                "start_time": 52.76590909090909,
                "end_time": 52.86818181818182,
                "pitch": 56,
                "velocity": 40,
                "duration": 0.10227272727272663,
                "tempo": 120.0
            },
            {
                "start_time": 53.002272727272725,
                "end_time": 53.10227272727273,
                "pitch": 56,
                "velocity": 40,
                "duration": 0.10000000000000142,
                "tempo": 120.0
            },
            {
                "start_time": 53.236363636363635,
                "end_time": 53.336363636363636,
                "pitch": 56,
                "velocity": 40,
                "duration": 0.10000000000000142,
                "tempo": 120.0
            },
            {
                "start_time": 53.470454545454544,
                "end_time": 53.570454545454545,
                "pitch": 56,
                "velocity": 40,
                "duration": 0.10000000000000142,
                "tempo": 120.0
            },
            {
                "start_time": 53.70454545454545,
                "end_time": 53.804545454545455,
                "pitch": 56,
                "velocity": 40,
                "duration": 0.10000000000000142,
                "tempo": 120.0
            },
            {
                "start_time": 53.93863636363636,
                "end_time": 54.038636363636364,
                "pitch": 55,
                "velocity": 40,
                "duration": 0.10000000000000142,
                "tempo": 120.0
            },
            {
                "start_time": 54.168181818181814,
                "end_time": 54.26590909090909,
                "pitch": 55,
                "velocity": 40,
                "duration": 0.09772727272727622,
                "tempo": 120.0
            },
            {
                "start_time": 54.39772727272727,
                "end_time": 54.49772727272727,
                "pitch": 55,
                "velocity": 40,
                "duration": 0.09999999999999432,
                "tempo": 120.0
            },
            {
                "start_time": 54.631818181818176,
                "end_time": 54.73181818181818,
                "pitch": 55,
                "velocity": 40,
                "duration": 0.10000000000000142,
                "tempo": 120.0
            },
            {
                "start_time": 54.865909090909085,
                "end_time": 54.96363636363636,
                "pitch": 55,
                "velocity": 40,
                "duration": 0.09772727272727622,
                "tempo": 120.0
            },
            {
                "start_time": 55.095454545454544,
                "end_time": 55.19318181818181,
                "pitch": 55,
                "velocity": 40,
                "duration": 0.09772727272726911,
                "tempo": 120.0
            },
            {
                "start_time": 55.324999999999996,
                "end_time": 55.425,
                "pitch": 55,
                "velocity": 40,
                "duration": 0.10000000000000142,
                "tempo": 120.0
            },
            {
                "start_time": 55.559090909090905,
                "end_time": 55.65909090909091,
                "pitch": 55,
                "velocity": 40,
                "duration": 0.10000000000000142,
                "tempo": 120.0
            },
            {
                "start_time": 55.793181818181814,
                "end_time": 55.893181818181816,
                "pitch": 56,
                "velocity": 40,
                "duration": 0.10000000000000142,
                "tempo": 120.0
            },
            {
                "start_time": 56.027272727272724,
                "end_time": 56.12954545454545,
                "pitch": 56,
                "velocity": 40,
                "duration": 0.10227272727272663,
                "tempo": 120.0
            },
            {
                "start_time": 56.26363636363636,
                "end_time": 56.36363636363636,
                "pitch": 56,
                "velocity": 40,
                "duration": 0.10000000000000142,
                "tempo": 120.0
            },
            {
                "start_time": 56.49772727272727,
                "end_time": 56.59772727272727,
                "pitch": 56,
                "velocity": 40,
                "duration": 0.10000000000000142,
                "tempo": 120.0
            },
            {
                "start_time": 56.73181818181818,
                "end_time": 56.82954545454545,
                "pitch": 56,
                "velocity": 40,
                "duration": 0.09772727272727622,
                "tempo": 120.0
            },
            {
                "start_time": 56.961363636363636,
                "end_time": 57.059090909090905,
                "pitch": 56,
                "velocity": 40,
                "duration": 0.09772727272726911,
                "tempo": 120.0
            },
            {
                "start_time": 57.19090909090909,
                "end_time": 57.29090909090909,
                "pitch": 56,
                "velocity": 40,
                "duration": 0.10000000000000142,
                "tempo": 120.0
            },
            {
                "start_time": 57.425,
                "end_time": 57.525,
                "pitch": 56,
                "velocity": 40,
                "duration": 0.10000000000000142,
                "tempo": 120.0
            },
            {
                "start_time": 57.65909090909091,
                "end_time": 57.756818181818176,
                "pitch": 55,
                "velocity": 40,
                "duration": 0.09772727272726911,
                "tempo": 120.0
            },
            {
                "start_time": 57.88863636363636,
                "end_time": 57.986363636363635,
                "pitch": 55,
                "velocity": 40,
                "duration": 0.09772727272727622,
                "tempo": 120.0
            },
            {
                "start_time": 58.11818181818182,
                "end_time": 58.21818181818182,
                "pitch": 55,
                "velocity": 40,
                "duration": 0.10000000000000142,
                "tempo": 120.0
            },
            {
                "start_time": 58.35227272727273,
                "end_time": 58.45227272727272,
                "pitch": 55,
                "velocity": 40,
                "duration": 0.09999999999999432,
                "tempo": 120.0
            },
            {
                "start_time": 58.586363636363636,
                "end_time": 58.68636363636363,
                "pitch": 55,
                "velocity": 40,
                "duration": 0.09999999999999432,
                "tempo": 120.0
            },
            {
                "start_time": 58.820454545454545,
                "end_time": 58.92045454545454,
                "pitch": 55,
                "velocity": 40,
                "duration": 0.09999999999999432,
                "tempo": 120.0
            },
            {
                "start_time": 59.054545454545455,
                "end_time": 59.15454545454545,
                "pitch": 55,
                "velocity": 40,
                "duration": 0.09999999999999432,
                "tempo": 120.0
            },
            {
                "start_time": 59.288636363636364,
                "end_time": 59.39090909090909,
                "pitch": 55,
                "velocity": 40,
                "duration": 0.10227272727272663,
                "tempo": 120.0
            },
            {
                "start_time": 59.525,
                "end_time": 59.62272727272727,
                "pitch": 56,
                "velocity": 40,
                "duration": 0.09772727272726911,
                "tempo": 120.0
            },
            {
                "start_time": 59.752272727272725,
                "end_time": 59.85227272727273,
                "pitch": 56,
                "velocity": 40,
                "duration": 0.10000000000000142,
                "tempo": 120.0
            },
            {
                "start_time": 59.98181818181818,
                "end_time": 60.08181818181818,
                "pitch": 56,
                "velocity": 40,
                "duration": 0.10000000000000142,
                "tempo": 120.0
            },
            {
                "start_time": 60.215909090909086,
                "end_time": 60.31818181818181,
                "pitch": 56,
                "velocity": 40,
                "duration": 0.10227272727272663,
                "tempo": 120.0
            },
            {
                "start_time": 60.45227272727272,
                "end_time": 60.55,
                "pitch": 56,
                "velocity": 40,
                "duration": 0.09772727272727622,
                "tempo": 120.0
            },
            {
                "start_time": 60.679545454545455,
                "end_time": 60.77954545454545,
                "pitch": 56,
                "velocity": 40,
                "duration": 0.09999999999999432,
                "tempo": 120.0
            },
            {
                "start_time": 60.90909090909091,
                "end_time": 61.00909090909091,
                "pitch": 56,
                "velocity": 40,
                "duration": 0.10000000000000142,
                "tempo": 120.0
            },
            {
                "start_time": 61.143181818181816,
                "end_time": 61.24545454545454,
                "pitch": 56,
                "velocity": 40,
                "duration": 0.10227272727272663,
                "tempo": 120.0
            },
            {
                "start_time": 61.37954545454545,
                "end_time": 61.47954545454545,
                "pitch": 55,
                "velocity": 40,
                "duration": 0.10000000000000142,
                "tempo": 120.0
            },
            {
                "start_time": 61.61363636363636,
                "end_time": 61.71363636363636,
                "pitch": 55,
                "velocity": 40,
                "duration": 0.10000000000000142,
                "tempo": 120.0
            },
            {
                "start_time": 61.84772727272727,
                "end_time": 61.94772727272727,
                "pitch": 55,
                "velocity": 40,
                "duration": 0.10000000000000142,
                "tempo": 120.0
            },
            {
                "start_time": 62.08181818181818,
                "end_time": 62.18181818181818,
                "pitch": 55,
                "velocity": 40,
                "duration": 0.10000000000000142,
                "tempo": 120.0
            },
            {
                "start_time": 62.31590909090909,
                "end_time": 62.413636363636364,
                "pitch": 55,
                "velocity": 40,
                "duration": 0.09772727272727622,
                "tempo": 120.0
            },
            {
                "start_time": 62.54545454545454,
                "end_time": 62.643181818181816,
                "pitch": 55,
                "velocity": 40,
                "duration": 0.09772727272727622,
                "tempo": 120.0
            },
            {
                "start_time": 62.775,
                "end_time": 62.875,
                "pitch": 55,
                "velocity": 40,
                "duration": 0.10000000000000142,
                "tempo": 120.0
            },
            {
                "start_time": 63.00909090909091,
                "end_time": 63.10909090909091,
                "pitch": 55,
                "velocity": 40,
                "duration": 0.10000000000000142,
                "tempo": 120.0
            },
            {
                "start_time": 63.24318181818182,
                "end_time": 63.340909090909086,
                "pitch": 60,
                "velocity": 40,
                "duration": 0.09772727272726911,
                "tempo": 120.0
            },
            {
                "start_time": 63.47272727272727,
                "end_time": 63.570454545454545,
                "pitch": 60,
                "velocity": 40,
                "duration": 0.09772727272727622,
                "tempo": 120.0
            },
            {
                "start_time": 63.70227272727272,
                "end_time": 63.80227272727272,
                "pitch": 60,
                "velocity": 40,
                "duration": 0.10000000000000142,
                "tempo": 120.0
            },
            {
                "start_time": 63.93636363636363,
                "end_time": 64.03636363636363,
                "pitch": 60,
                "velocity": 40,
                "duration": 0.10000000000000142,
                "tempo": 120.0
            },
            {
                "start_time": 64.17045454545455,
                "end_time": 64.27045454545454,
                "pitch": 60,
                "velocity": 40,
                "duration": 0.09999999999999432,
                "tempo": 120.0
            },
            {
                "start_time": 64.40454545454546,
                "end_time": 64.50681818181818,
                "pitch": 60,
                "velocity": 40,
                "duration": 0.10227272727271952,
                "tempo": 120.0
            },
            {
                "start_time": 64.64090909090909,
                "end_time": 64.74090909090908,
                "pitch": 60,
                "velocity": 40,
                "duration": 0.09999999999999432,
                "tempo": 120.0
            },
            {
                "start_time": 64.875,
                "end_time": 64.975,
                "pitch": 60,
                "velocity": 40,
                "duration": 0.09999999999999432,
                "tempo": 120.0
            },
            {
                "start_time": 65.10909090909091,
                "end_time": 65.20681818181818,
                "pitch": 60,
                "velocity": 40,
                "duration": 0.09772727272726911,
                "tempo": 120.0
            },
            {
                "start_time": 65.33863636363635,
                "end_time": 65.43636363636364,
                "pitch": 60,
                "velocity": 40,
                "duration": 0.09772727272728332,
                "tempo": 120.0
            },
            {
                "start_time": 65.56590909090909,
                "end_time": 65.66818181818182,
                "pitch": 60,
                "velocity": 40,
                "duration": 0.10227272727273373,
                "tempo": 120.0
            },
            {
                "start_time": 65.80227272727272,
                "end_time": 65.90227272727273,
                "pitch": 60,
                "velocity": 40,
                "duration": 0.10000000000000853,
                "tempo": 120.0
            },
            {
                "start_time": 66.03636363636363,
                "end_time": 66.1340909090909,
                "pitch": 60,
                "velocity": 40,
                "duration": 0.09772727272726911,
                "tempo": 120.0
            },
            {
                "start_time": 66.26590909090909,
                "end_time": 66.36363636363636,
                "pitch": 60,
                "velocity": 40,
                "duration": 0.09772727272726911,
                "tempo": 120.0
            },
            {
                "start_time": 66.49318181818181,
                "end_time": 66.59545454545454,
                "pitch": 60,
                "velocity": 40,
                "duration": 0.10227272727273373,
                "tempo": 120.0
            },
            {
                "start_time": 66.73181818181818,
                "end_time": 66.8340909090909,
                "pitch": 60,
                "velocity": 40,
                "duration": 0.10227272727271952,
                "tempo": 120.0
            },
            {
                "start_time": 66.97045454545454,
                "end_time": 67.06818181818181,
                "pitch": 56,
                "velocity": 40,
                "duration": 0.09772727272726911,
                "tempo": 120.0
            },
            {
                "start_time": 67.2,
                "end_time": 67.29772727272727,
                "pitch": 56,
                "velocity": 40,
                "duration": 0.09772727272726911,
                "tempo": 120.0
            },
            {
                "start_time": 67.42954545454545,
                "end_time": 67.52954545454546,
                "pitch": 56,
                "velocity": 40,
                "duration": 0.10000000000000853,
                "tempo": 120.0
            },
            {
                "start_time": 67.66363636363636,
                "end_time": 67.76363636363637,
                "pitch": 56,
                "velocity": 40,
                "duration": 0.10000000000000853,
                "tempo": 120.0
            },
            {
                "start_time": 67.89772727272727,
                "end_time": 67.99545454545454,
                "pitch": 56,
                "velocity": 40,
                "duration": 0.09772727272726911,
                "tempo": 120.0
            },
            {
                "start_time": 68.12727272727273,
                "end_time": 68.225,
                "pitch": 56,
                "velocity": 40,
                "duration": 0.09772727272726911,
                "tempo": 120.0
            },
            {
                "start_time": 68.35454545454544,
                "end_time": 68.45681818181818,
                "pitch": 56,
                "velocity": 40,
                "duration": 0.10227272727273373,
                "tempo": 120.0
            },
            {
                "start_time": 68.5909090909091,
                "end_time": 68.69090909090909,
                "pitch": 56,
                "velocity": 40,
                "duration": 0.09999999999999432,
                "tempo": 120.0
            },
            {
                "start_time": 68.825,
                "end_time": 68.92272727272727,
                "pitch": 55,
                "velocity": 40,
                "duration": 0.09772727272726911,
                "tempo": 120.0
            },
            {
                "start_time": 69.05454545454545,
                "end_time": 69.15227272727273,
                "pitch": 55,
                "velocity": 40,
                "duration": 0.09772727272728332,
                "tempo": 120.0
            },
            {
                "start_time": 69.28181818181818,
                "end_time": 69.3840909090909,
                "pitch": 55,
                "velocity": 40,
                "duration": 0.10227272727271952,
                "tempo": 120.0
            },
            {
                "start_time": 69.51818181818182,
                "end_time": 69.61818181818181,
                "pitch": 55,
                "velocity": 40,
                "duration": 0.09999999999999432,
                "tempo": 120.0
            },
            {
                "start_time": 69.75227272727273,
                "end_time": 69.85227272727272,
                "pitch": 55,
                "velocity": 40,
                "duration": 0.09999999999999432,
                "tempo": 120.0
            },
            {
                "start_time": 69.98636363636363,
                "end_time": 70.08636363636363,
                "pitch": 55,
                "velocity": 40,
                "duration": 0.09999999999999432,
                "tempo": 120.0
            },
            {
                "start_time": 70.22045454545454,
                "end_time": 70.32045454545454,
                "pitch": 55,
                "velocity": 40,
                "duration": 0.09999999999999432,
                "tempo": 120.0
            },
            {
                "start_time": 70.45454545454545,
                "end_time": 70.55681818181817,
                "pitch": 55,
                "velocity": 40,
                "duration": 0.10227272727271952,
                "tempo": 120.0
            },
            {
                "start_time": 70.68863636363636,
                "end_time": 70.78863636363636,
                "pitch": 56,
                "velocity": 40,
                "duration": 0.09999999999999432,
                "tempo": 120.0
            },
            {
                "start_time": 70.91818181818182,
                "end_time": 71.01590909090909,
                "pitch": 56,
                "velocity": 40,
                "duration": 0.09772727272726911,
                "tempo": 120.0
            },
            {
                "start_time": 71.14772727272727,
                "end_time": 71.24772727272727,
                "pitch": 56,
                "velocity": 40,
                "duration": 0.10000000000000853,
                "tempo": 120.0
            },
            {
                "start_time": 71.38181818181818,
                "end_time": 71.48181818181818,
                "pitch": 56,
                "velocity": 40,
                "duration": 0.10000000000000853,
                "tempo": 120.0
            },
            {
                "start_time": 71.61590909090908,
                "end_time": 71.7159090909091,
                "pitch": 56,
                "velocity": 40,
                "duration": 0.10000000000000853,
                "tempo": 120.0
            },
            {
                "start_time": 71.84545454545454,
                "end_time": 71.94318181818181,
                "pitch": 56,
                "velocity": 40,
                "duration": 0.09772727272726911,
                "tempo": 120.0
            },
            {
                "start_time": 72.075,
                "end_time": 72.175,
                "pitch": 56,
                "velocity": 40,
                "duration": 0.09999999999999432,
                "tempo": 120.0
            },
            {
                "start_time": 72.30909090909091,
                "end_time": 72.4090909090909,
                "pitch": 56,
                "velocity": 40,
                "duration": 0.09999999999999432,
                "tempo": 120.0
            },
            {
                "start_time": 72.54318181818182,
                "end_time": 72.64545454545454,
                "pitch": 55,
                "velocity": 40,
                "duration": 0.10227272727271952,
                "tempo": 120.0
            },
            {
                "start_time": 72.77954545454546,
                "end_time": 72.87954545454545,
                "pitch": 55,
                "velocity": 40,
                "duration": 0.09999999999999432,
                "tempo": 120.0
            },
            {
                "start_time": 73.01363636363637,
                "end_time": 73.11363636363636,
                "pitch": 55,
                "velocity": 40,
                "duration": 0.09999999999999432,
                "tempo": 120.0
            },
            {
                "start_time": 73.24772727272727,
                "end_time": 73.34772727272727,
                "pitch": 55,
                "velocity": 40,
                "duration": 0.09999999999999432,
                "tempo": 120.0
            },
            {
                "start_time": 73.48181818181818,
                "end_time": 73.57954545454545,
                "pitch": 55,
                "velocity": 40,
                "duration": 0.09772727272726911,
                "tempo": 120.0
            },
            {
                "start_time": 73.71136363636363,
                "end_time": 73.80909090909091,
                "pitch": 55,
                "velocity": 40,
                "duration": 0.09772727272728332,
                "tempo": 120.0
            },
            {
                "start_time": 73.94090909090909,
                "end_time": 74.04090909090908,
                "pitch": 55,
                "velocity": 40,
                "duration": 0.09999999999999432,
                "tempo": 120.0
            },
            {
                "start_time": 74.175,
                "end_time": 74.27499999999999,
                "pitch": 55,
                "velocity": 40,
                "duration": 0.09999999999999432,
                "tempo": 120.0
            },
            {
                "start_time": 74.4090909090909,
                "end_time": 74.5090909090909,
                "pitch": 56,
                "velocity": 40,
                "duration": 0.09999999999999432,
                "tempo": 120.0
            },
            {
                "start_time": 74.64318181818182,
                "end_time": 74.74318181818181,
                "pitch": 56,
                "velocity": 40,
                "duration": 0.09999999999999432,
                "tempo": 120.0
            },
            {
                "start_time": 74.87727272727273,
                "end_time": 74.97727272727272,
                "pitch": 56,
                "velocity": 40,
                "duration": 0.09999999999999432,
                "tempo": 120.0
            },
            {
                "start_time": 75.10681818181818,
                "end_time": 75.20454545454545,
                "pitch": 56,
                "velocity": 40,
                "duration": 0.09772727272726911,
                "tempo": 120.0
            },
            {
                "start_time": 75.33636363636363,
                "end_time": 75.43636363636364,
                "pitch": 56,
                "velocity": 40,
                "duration": 0.10000000000000853,
                "tempo": 120.0
            },
            {
                "start_time": 75.57045454545454,
                "end_time": 75.67045454545455,
                "pitch": 56,
                "velocity": 40,
                "duration": 0.10000000000000853,
                "tempo": 120.0
            },
            {
                "start_time": 75.80454545454545,
                "end_time": 75.90681818181818,
                "pitch": 56,
                "velocity": 40,
                "duration": 0.10227272727273373,
                "tempo": 120.0
            },
            {
                "start_time": 76.04090909090908,
                "end_time": 76.14090909090909,
                "pitch": 56,
                "velocity": 40,
                "duration": 0.10000000000000853,
                "tempo": 120.0
            },
            {
                "start_time": 76.27499999999999,
                "end_time": 76.37272727272727,
                "pitch": 55,
                "velocity": 40,
                "duration": 0.09772727272728332,
                "tempo": 120.0
            },
            {
                "start_time": 76.50454545454545,
                "end_time": 76.60227272727272,
                "pitch": 55,
                "velocity": 40,
                "duration": 0.09772727272726911,
                "tempo": 120.0
            },
            {
                "start_time": 76.73181818181818,
                "end_time": 76.8340909090909,
                "pitch": 55,
                "velocity": 40,
                "duration": 0.10227272727271952,
                "tempo": 120.0
            },
            {
                "start_time": 76.96818181818182,
                "end_time": 77.06818181818181,
                "pitch": 55,
                "velocity": 40,
                "duration": 0.09999999999999432,
                "tempo": 120.0
            },
            {
                "start_time": 77.20227272727273,
                "end_time": 77.3,
                "pitch": 55,
                "velocity": 40,
                "duration": 0.09772727272726911,
                "tempo": 120.0
            },
            {
                "start_time": 77.42954545454545,
                "end_time": 77.52954545454546,
                "pitch": 55,
                "velocity": 40,
                "duration": 0.10000000000000853,
                "tempo": 120.0
            },
            {
                "start_time": 77.6590909090909,
                "end_time": 77.7590909090909,
                "pitch": 55,
                "velocity": 40,
                "duration": 0.09999999999999432,
                "tempo": 120.0
            },
            {
                "start_time": 77.89318181818182,
                "end_time": 77.99545454545454,
                "pitch": 55,
                "velocity": 40,
                "duration": 0.10227272727271952,
                "tempo": 120.0
            },
            {
                "start_time": 78.12954545454545,
                "end_time": 78.22954545454544,
                "pitch": 60,
                "velocity": 40,
                "duration": 0.09999999999999432,
                "tempo": 120.0
            },
            {
                "start_time": 78.36363636363636,
                "end_time": 78.46363636363635,
                "pitch": 60,
                "velocity": 40,
                "duration": 0.09999999999999432,
                "tempo": 120.0
            },
            {
                "start_time": 78.59772727272727,
                "end_time": 78.69772727272726,
                "pitch": 60,
                "velocity": 40,
                "duration": 0.09999999999999432,
                "tempo": 120.0
            },
            {
                "start_time": 78.83181818181818,
                "end_time": 78.93181818181817,
                "pitch": 60,
                "velocity": 40,
                "duration": 0.09999999999999432,
                "tempo": 120.0
            },
            {
                "start_time": 79.06590909090909,
                "end_time": 79.16590909090908,
                "pitch": 60,
                "velocity": 40,
                "duration": 0.09999999999999432,
                "tempo": 120.0
            },
            {
                "start_time": 79.29545454545455,
                "end_time": 79.39318181818182,
                "pitch": 60,
                "velocity": 40,
                "duration": 0.09772727272726911,
                "tempo": 120.0
            },
            {
                "start_time": 79.52499999999999,
                "end_time": 79.625,
                "pitch": 60,
                "velocity": 40,
                "duration": 0.10000000000000853,
                "tempo": 120.0
            },
            {
                "start_time": 79.7590909090909,
                "end_time": 79.85909090909091,
                "pitch": 60,
                "velocity": 40,
                "duration": 0.10000000000000853,
                "tempo": 120.0
            },
            {
                "start_time": 79.99318181818181,
                "end_time": 80.0909090909091,
                "pitch": 60,
                "velocity": 40,
                "duration": 0.09772727272728332,
                "tempo": 120.0
            },
            {
                "start_time": 80.22272727272727,
                "end_time": 80.32045454545454,
                "pitch": 60,
                "velocity": 40,
                "duration": 0.09772727272726911,
                "tempo": 120.0
            },
            {
                "start_time": 80.45227272727273,
                "end_time": 80.55227272727272,
                "pitch": 60,
                "velocity": 40,
                "duration": 0.09999999999999432,
                "tempo": 120.0
            },
            {
                "start_time": 80.68636363636364,
                "end_time": 80.78636363636363,
                "pitch": 60,
                "velocity": 40,
                "duration": 0.09999999999999432,
                "tempo": 120.0
            },
            {
                "start_time": 80.92045454545455,
                "end_time": 81.02045454545454,
                "pitch": 60,
                "velocity": 40,
                "duration": 0.09999999999999432,
                "tempo": 120.0
            },
            {
                "start_time": 81.15454545454546,
                "end_time": 81.25681818181818,
                "pitch": 60,
                "velocity": 40,
                "duration": 0.10227272727271952,
                "tempo": 120.0
            },
            {
                "start_time": 81.39090909090909,
                "end_time": 81.49090909090908,
                "pitch": 60,
                "velocity": 40,
                "duration": 0.09999999999999432,
                "tempo": 120.0
            },
            {
                "start_time": 81.625,
                "end_time": 81.725,
                "pitch": 60,
                "velocity": 40,
                "duration": 0.09999999999999432,
                "tempo": 120.0
            },
            {
                "start_time": 81.85909090909091,
                "end_time": 81.95681818181818,
                "pitch": 55,
                "velocity": 40,
                "duration": 0.09772727272726911,
                "tempo": 120.0
            },
            {
                "start_time": 82.08863636363635,
                "end_time": 82.18636363636364,
                "pitch": 55,
                "velocity": 40,
                "duration": 0.09772727272728332,
                "tempo": 120.0
            },
            {
                "start_time": 82.31818181818181,
                "end_time": 82.41818181818181,
                "pitch": 55,
                "velocity": 40,
                "duration": 0.09999999999999432,
                "tempo": 120.0
            },
            {
                "start_time": 82.55227272727272,
                "end_time": 82.65227272727272,
                "pitch": 55,
                "velocity": 40,
                "duration": 0.09999999999999432,
                "tempo": 120.0
            },
            {
                "start_time": 82.78636363636363,
                "end_time": 82.8840909090909,
                "pitch": 55,
                "velocity": 40,
                "duration": 0.09772727272726911,
                "tempo": 120.0
            },
            {
                "start_time": 83.01590909090909,
                "end_time": 83.11363636363636,
                "pitch": 55,
                "velocity": 40,
                "duration": 0.09772727272726911,
                "tempo": 120.0
            },
            {
                "start_time": 83.24545454545454,
                "end_time": 83.34545454545454,
                "pitch": 55,
                "velocity": 40,
                "duration": 0.10000000000000853,
                "tempo": 120.0
            },
            {
                "start_time": 83.47954545454544,
                "end_time": 83.57954545454545,
                "pitch": 55,
                "velocity": 40,
                "duration": 0.10000000000000853,
                "tempo": 120.0
            },
            {
                "start_time": 83.71363636363635,
                "end_time": 83.81363636363636,
                "pitch": 56,
                "velocity": 40,
                "duration": 0.10000000000000853,
                "tempo": 120.0
            },
            {
                "start_time": 83.94772727272726,
                "end_time": 84.04772727272727,
                "pitch": 56,
                "velocity": 40,
                "duration": 0.10000000000000853,
                "tempo": 120.0
            },
            {
                "start_time": 84.18181818181817,
                "end_time": 84.28181818181818,
                "pitch": 56,
                "velocity": 40,
                "duration": 0.10000000000000853,
                "tempo": 120.0
            },
            {
                "start_time": 84.41590909090908,
                "end_time": 84.51818181818182,
                "pitch": 56,
                "velocity": 40,
                "duration": 0.10227272727273373,
                "tempo": 120.0
            },
            {
                "start_time": 84.65227272727272,
                "end_time": 84.75,
                "pitch": 56,
                "velocity": 40,
                "duration": 0.09772727272728332,
                "tempo": 120.0
            },
            {
                "start_time": 84.87954545454545,
                "end_time": 84.97954545454544,
                "pitch": 56,
                "velocity": 40,
                "duration": 0.09999999999999432,
                "tempo": 120.0
            },
            {
                "start_time": 85.10909090909091,
                "end_time": 85.2090909090909,
                "pitch": 56,
                "velocity": 40,
                "duration": 0.09999999999999432,
                "tempo": 120.0
            },
            {
                "start_time": 85.34318181818182,
                "end_time": 85.44545454545454,
                "pitch": 56,
                "velocity": 40,
                "duration": 0.10227272727271952,
                "tempo": 120.0
            },
            {
                "start_time": 85.57954545454545,
                "end_time": 85.67727272727272,
                "pitch": 58,
                "velocity": 40,
                "duration": 0.09772727272726911,
                "tempo": 120.0
            },
            {
                "start_time": 85.80681818181817,
                "end_time": 85.90681818181818,
                "pitch": 58,
                "velocity": 40,
                "duration": 0.10000000000000853,
                "tempo": 120.0
            },
            {
                "start_time": 86.03636363636363,
                "end_time": 86.13636363636363,
                "pitch": 58,
                "velocity": 40,
                "duration": 0.09999999999999432,
                "tempo": 120.0
            },
            {
                "start_time": 86.27045454545454,
                "end_time": 86.37272727272727,
                "pitch": 58,
                "velocity": 40,
                "duration": 0.10227272727273373,
                "tempo": 120.0
            },
            {
                "start_time": 86.50681818181818,
                "end_time": 86.60681818181818,
                "pitch": 58,
                "velocity": 40,
                "duration": 0.10000000000000853,
                "tempo": 120.0
            },
            {
                "start_time": 86.74090909090908,
                "end_time": 86.8409090909091,
                "pitch": 58,
                "velocity": 40,
                "duration": 0.10000000000000853,
                "tempo": 120.0
            },
            {
                "start_time": 86.975,
                "end_time": 87.075,
                "pitch": 58,
                "velocity": 40,
                "duration": 0.10000000000000853,
                "tempo": 120.0
            },
            {
                "start_time": 87.2090909090909,
                "end_time": 87.3090909090909,
                "pitch": 58,
                "velocity": 40,
                "duration": 0.09999999999999432,
                "tempo": 120.0
            },
            {
                "start_time": 87.44318181818181,
                "end_time": 87.54090909090908,
                "pitch": 60,
                "velocity": 40,
                "duration": 0.09772727272726911,
                "tempo": 120.0
            },
            {
                "start_time": 87.67272727272727,
                "end_time": 87.77045454545454,
                "pitch": 60,
                "velocity": 40,
                "duration": 0.09772727272726911,
                "tempo": 120.0
            },
            {
                "start_time": 87.90227272727272,
                "end_time": 88.00227272727273,
                "pitch": 60,
                "velocity": 40,
                "duration": 0.10000000000000853,
                "tempo": 120.0
            },
            {
                "start_time": 88.13636363636363,
                "end_time": 88.23636363636363,
                "pitch": 60,
                "velocity": 40,
                "duration": 0.10000000000000853,
                "tempo": 120.0
            },
            {
                "start_time": 88.37045454545454,
                "end_time": 88.46818181818182,
                "pitch": 60,
                "velocity": 40,
                "duration": 0.09772727272728332,
                "tempo": 120.0
            },
            {
                "start_time": 88.6,
                "end_time": 88.69772727272726,
                "pitch": 60,
                "velocity": 40,
                "duration": 0.09772727272726911,
                "tempo": 120.0
            },
            {
                "start_time": 88.82954545454545,
                "end_time": 88.93181818181817,
                "pitch": 60,
                "velocity": 40,
                "duration": 0.10227272727271952,
                "tempo": 120.0
            },
            {
                "start_time": 89.06818181818181,
                "end_time": 89.17272727272727,
                "pitch": 60,
                "velocity": 40,
                "duration": 0.10454545454545894,
                "tempo": 120.0
            },
            {
                "start_time": 89.3090909090909,
                "end_time": 89.40681818181818,
                "pitch": 55,
                "velocity": 40,
                "duration": 0.09772727272728332,
                "tempo": 120.0
            },
            {
                "start_time": 89.53863636363636,
                "end_time": 89.63636363636363,
                "pitch": 55,
                "velocity": 40,
                "duration": 0.09772727272726911,
                "tempo": 120.0
            },
            {
                "start_time": 89.76818181818182,
                "end_time": 89.86818181818181,
                "pitch": 55,
                "velocity": 40,
                "duration": 0.09999999999999432,
                "tempo": 120.0
            },
            {
                "start_time": 90.00227272727273,
                "end_time": 90.10227272727272,
                "pitch": 55,
                "velocity": 40,
                "duration": 0.09999999999999432,
                "tempo": 120.0
            },
            {
                "start_time": 90.23636363636363,
                "end_time": 90.3340909090909,
                "pitch": 55,
                "velocity": 40,
                "duration": 0.09772727272726911,
                "tempo": 120.0
            },
            {
                "start_time": 90.4659090909091,
                "end_time": 90.56363636363636,
                "pitch": 55,
                "velocity": 40,
                "duration": 0.09772727272726911,
                "tempo": 120.0
            },
            {
                "start_time": 90.69318181818181,
                "end_time": 90.79545454545455,
                "pitch": 55,
                "velocity": 40,
                "duration": 0.10227272727273373,
                "tempo": 120.0
            },
            {
                "start_time": 90.92954545454545,
                "end_time": 91.02954545454546,
                "pitch": 55,
                "velocity": 40,
                "duration": 0.10000000000000853,
                "tempo": 120.0
            },
            {
                "start_time": 91.16363636363636,
                "end_time": 91.26136363636363,
                "pitch": 56,
                "velocity": 40,
                "duration": 0.09772727272726911,
                "tempo": 120.0
            },
            {
                "start_time": 91.39318181818182,
                "end_time": 91.49090909090908,
                "pitch": 56,
                "velocity": 40,
                "duration": 0.09772727272726911,
                "tempo": 120.0
            },
            {
                "start_time": 91.62045454545454,
                "end_time": 91.72272727272727,
                "pitch": 56,
                "velocity": 40,
                "duration": 0.10227272727273373,
                "tempo": 120.0
            },
            {
                "start_time": 91.85681818181818,
                "end_time": 91.95681818181818,
                "pitch": 56,
                "velocity": 40,
                "duration": 0.09999999999999432,
                "tempo": 120.0
            },
            {
                "start_time": 92.0909090909091,
                "end_time": 92.19090909090909,
                "pitch": 56,
                "velocity": 40,
                "duration": 0.09999999999999432,
                "tempo": 120.0
            },
            {
                "start_time": 92.32499999999999,
                "end_time": 92.425,
                "pitch": 56,
                "velocity": 40,
                "duration": 0.10000000000000853,
                "tempo": 120.0
            },
            {
                "start_time": 92.5590909090909,
                "end_time": 92.6590909090909,
                "pitch": 56,
                "velocity": 40,
                "duration": 0.10000000000000853,
                "tempo": 120.0
            },
            {
                "start_time": 92.79318181818181,
                "end_time": 92.89545454545454,
                "pitch": 56,
                "velocity": 40,
                "duration": 0.10227272727273373,
                "tempo": 120.0
            },
            {
                "start_time": 93.02727272727272,
                "end_time": 93.12727272727273,
                "pitch": 58,
                "velocity": 40,
                "duration": 0.10000000000000853,
                "tempo": 120.0
            },
            {
                "start_time": 93.25681818181818,
                "end_time": 93.35681818181818,
                "pitch": 58,
                "velocity": 40,
                "duration": 0.10000000000000853,
                "tempo": 120.0
            },
            {
                "start_time": 93.48636363636363,
                "end_time": 93.58636363636363,
                "pitch": 58,
                "velocity": 40,
                "duration": 0.09999999999999432,
                "tempo": 120.0
            },
            {
                "start_time": 93.72045454545454,
                "end_time": 93.82272727272726,
                "pitch": 58,
                "velocity": 40,
                "duration": 0.10227272727271952,
                "tempo": 120.0
            },
            {
                "start_time": 93.95454545454545,
                "end_time": 94.05454545454545,
                "pitch": 58,
                "velocity": 40,
                "duration": 0.09999999999999432,
                "tempo": 120.0
            },
            {
                "start_time": 94.1840909090909,
                "end_time": 94.28181818181818,
                "pitch": 58,
                "velocity": 40,
                "duration": 0.09772727272728332,
                "tempo": 120.0
            },
            {
                "start_time": 94.41363636363636,
                "end_time": 94.51363636363637,
                "pitch": 58,
                "velocity": 40,
                "duration": 0.10000000000000853,
                "tempo": 120.0
            },
            {
                "start_time": 94.64772727272727,
                "end_time": 94.74772727272727,
                "pitch": 58,
                "velocity": 40,
                "duration": 0.10000000000000853,
                "tempo": 120.0
            },
            {
                "start_time": 94.88181818181818,
                "end_time": 94.98409090909091,
                "pitch": 60,
                "velocity": 40,
                "duration": 0.10227272727273373,
                "tempo": 120.0
            },
            {
                "start_time": 95.11818181818181,
                "end_time": 95.21818181818182,
                "pitch": 60,
                "velocity": 40,
                "duration": 0.10000000000000853,
                "tempo": 120.0
            },
            {
                "start_time": 95.35227272727272,
                "end_time": 95.45227272727273,
                "pitch": 60,
                "velocity": 40,
                "duration": 0.10000000000000853,
                "tempo": 120.0
            },
            {
                "start_time": 95.58636363636363,
                "end_time": 95.68636363636364,
                "pitch": 60,
                "velocity": 40,
                "duration": 0.10000000000000853,
                "tempo": 120.0
            },
            {
                "start_time": 95.82045454545454,
                "end_time": 95.91818181818181,
                "pitch": 60,
                "velocity": 40,
                "duration": 0.09772727272726911,
                "tempo": 120.0
            },
            {
                "start_time": 96.05,
                "end_time": 96.14772727272727,
                "pitch": 60,
                "velocity": 40,
                "duration": 0.09772727272726911,
                "tempo": 120.0
            },
            {
                "start_time": 96.27954545454546,
                "end_time": 96.38181818181818,
                "pitch": 60,
                "velocity": 40,
                "duration": 0.10227272727271952,
                "tempo": 120.0
            },
            {
                "start_time": 96.51818181818182,
                "end_time": 96.62045454545454,
                "pitch": 60,
                "velocity": 40,
                "duration": 0.10227272727271952,
                "tempo": 120.0
            },
            {
                "start_time": 96.7590909090909,
                "end_time": 96.85681818181818,
                "pitch": 56,
                "velocity": 40,
                "duration": 0.09772727272728332,
                "tempo": 120.0
            },
            {
                "start_time": 96.98863636363636,
                "end_time": 97.08636363636363,
                "pitch": 56,
                "velocity": 40,
                "duration": 0.09772727272726911,
                "tempo": 120.0
            },
            {
                "start_time": 97.21818181818182,
                "end_time": 97.31590909090909,
                "pitch": 56,
                "velocity": 40,
                "duration": 0.09772727272726911,
                "tempo": 120.0
            },
            {
                "start_time": 97.44545454545454,
                "end_time": 97.54545454545455,
                "pitch": 56,
                "velocity": 40,
                "duration": 0.10000000000000853,
                "tempo": 120.0
            },
            {
                "start_time": 97.675,
                "end_time": 97.77499999999999,
                "pitch": 56,
                "velocity": 40,
                "duration": 0.09999999999999432,
                "tempo": 120.0
            },
            {
                "start_time": 97.9090909090909,
                "end_time": 98.01136363636363,
                "pitch": 56,
                "velocity": 40,
                "duration": 0.10227272727271952,
                "tempo": 120.0
            },
            {
                "start_time": 98.14545454545454,
                "end_time": 98.24545454545454,
                "pitch": 56,
                "velocity": 40,
                "duration": 0.09999999999999432,
                "tempo": 120.0
            },
            {
                "start_time": 98.37954545454545,
                "end_time": 98.47954545454544,
                "pitch": 56,
                "velocity": 40,
                "duration": 0.09999999999999432,
                "tempo": 120.0
            },
            {
                "start_time": 98.61363636363636,
                "end_time": 98.71136363636363,
                "pitch": 55,
                "velocity": 40,
                "duration": 0.09772727272726911,
                "tempo": 120.0
            },
            {
                "start_time": 98.84318181818182,
                "end_time": 98.94090909090909,
                "pitch": 55,
                "velocity": 40,
                "duration": 0.09772727272726911,
                "tempo": 120.0
            },
            {
                "start_time": 99.07045454545454,
                "end_time": 99.17272727272727,
                "pitch": 55,
                "velocity": 40,
                "duration": 0.10227272727273373,
                "tempo": 120.0
            },
            {
                "start_time": 99.30681818181817,
                "end_time": 99.40681818181818,
                "pitch": 55,
                "velocity": 40,
                "duration": 0.10000000000000853,
                "tempo": 120.0
            },
            {
                "start_time": 99.54090909090908,
                "end_time": 99.63863636363637,
                "pitch": 55,
                "velocity": 40,
                "duration": 0.09772727272728332,
                "tempo": 120.0
            },
            {
                "start_time": 99.77045454545454,
                "end_time": 99.86818181818181,
                "pitch": 55,
                "velocity": 40,
                "duration": 0.09772727272726911,
                "tempo": 120.0
            },
            {
                "start_time": 99.99772727272727,
                "end_time": 100.1,
                "pitch": 55,
                "velocity": 40,
                "duration": 0.10227272727271952,
                "tempo": 120.0
            },
            {
                "start_time": 100.23409090909091,
                "end_time": 100.3340909090909,
                "pitch": 55,
                "velocity": 40,
                "duration": 0.09999999999999432,
                "tempo": 120.0
            },
            {
                "start_time": 100.46818181818182,
                "end_time": 100.56818181818181,
                "pitch": 56,
                "velocity": 40,
                "duration": 0.09999999999999432,
                "tempo": 120.0
            },
            {
                "start_time": 100.70227272727273,
                "end_time": 100.80227272727272,
                "pitch": 56,
                "velocity": 40,
                "duration": 0.09999999999999432,
                "tempo": 120.0
            },
            {
                "start_time": 100.93636363636364,
                "end_time": 101.03636363636363,
                "pitch": 56,
                "velocity": 40,
                "duration": 0.09999999999999432,
                "tempo": 120.0
            },
            {
                "start_time": 101.17045454545455,
                "end_time": 101.27272727272727,
                "pitch": 56,
                "velocity": 40,
                "duration": 0.10227272727271952,
                "tempo": 120.0
            },
            {
                "start_time": 101.40454545454546,
                "end_time": 101.50454545454545,
                "pitch": 56,
                "velocity": 40,
                "duration": 0.09999999999999432,
                "tempo": 120.0
            },
            {
                "start_time": 101.6340909090909,
                "end_time": 101.73409090909091,
                "pitch": 56,
                "velocity": 40,
                "duration": 0.10000000000000853,
                "tempo": 120.0
            },
            {
                "start_time": 101.86363636363636,
                "end_time": 101.96363636363635,
                "pitch": 56,
                "velocity": 40,
                "duration": 0.09999999999999432,
                "tempo": 120.0
            },
            {
                "start_time": 102.09772727272727,
                "end_time": 102.19999999999999,
                "pitch": 56,
                "velocity": 40,
                "duration": 0.10227272727271952,
                "tempo": 120.0
            },
            {
                "start_time": 102.33181818181818,
                "end_time": 102.43181818181817,
                "pitch": 55,
                "velocity": 40,
                "duration": 0.09999999999999432,
                "tempo": 120.0
            },
            {
                "start_time": 102.56136363636364,
                "end_time": 102.6590909090909,
                "pitch": 55,
                "velocity": 40,
                "duration": 0.09772727272726911,
                "tempo": 120.0
            },
            {
                "start_time": 102.79090909090908,
                "end_time": 102.89090909090909,
                "pitch": 55,
                "velocity": 40,
                "duration": 0.10000000000000853,
                "tempo": 120.0
            },
            {
                "start_time": 103.02499999999999,
                "end_time": 103.125,
                "pitch": 55,
                "velocity": 40,
                "duration": 0.10000000000000853,
                "tempo": 120.0
            },
            {
                "start_time": 103.2590909090909,
                "end_time": 103.36136363636363,
                "pitch": 55,
                "velocity": 40,
                "duration": 0.10227272727273373,
                "tempo": 120.0
            },
            {
                "start_time": 103.49545454545454,
                "end_time": 103.59545454545454,
                "pitch": 55,
                "velocity": 40,
                "duration": 0.10000000000000853,
                "tempo": 120.0
            },
            {
                "start_time": 103.72954545454544,
                "end_time": 103.82954545454545,
                "pitch": 55,
                "velocity": 40,
                "duration": 0.10000000000000853,
                "tempo": 120.0
            },
            {
                "start_time": 103.96363636363635,
                "end_time": 104.06363636363636,
                "pitch": 55,
                "velocity": 40,
                "duration": 0.10000000000000853,
                "tempo": 120.0
            },
            {
                "start_time": 104.19772727272726,
                "end_time": 104.29545454545455,
                "pitch": 56,
                "velocity": 40,
                "duration": 0.09772727272728332,
                "tempo": 120.0
            },
            {
                "start_time": 104.42727272727272,
                "end_time": 104.52499999999999,
                "pitch": 56,
                "velocity": 40,
                "duration": 0.09772727272726911,
                "tempo": 120.0
            },
            {
                "start_time": 104.65681818181818,
                "end_time": 104.75681818181818,
                "pitch": 56,
                "velocity": 40,
                "duration": 0.09999999999999432,
                "tempo": 120.0
            },
            {
                "start_time": 104.89090909090909,
                "end_time": 104.99090909090908,
                "pitch": 56,
                "velocity": 40,
                "duration": 0.09999999999999432,
                "tempo": 120.0
            },
            {
                "start_time": 105.125,
                "end_time": 105.22272727272727,
                "pitch": 56,
                "velocity": 40,
                "duration": 0.09772727272726911,
                "tempo": 120.0
            },
            {
                "start_time": 105.35454545454544,
                "end_time": 105.45227272727273,
                "pitch": 56,
                "velocity": 40,
                "duration": 0.09772727272728332,
                "tempo": 120.0
            },
            {
                "start_time": 105.5840909090909,
                "end_time": 105.6840909090909,
                "pitch": 56,
                "velocity": 40,
                "duration": 0.09999999999999432,
                "tempo": 120.0
            },
            {
                "start_time": 105.81818181818181,
                "end_time": 105.91818181818181,
                "pitch": 56,
                "velocity": 40,
                "duration": 0.09999999999999432,
                "tempo": 120.0
            },
            {
                "start_time": 106.05227272727272,
                "end_time": 106.15227272727272,
                "pitch": 55,
                "velocity": 40,
                "duration": 0.09999999999999432,
                "tempo": 120.0
            },
            {
                "start_time": 106.28636363636363,
                "end_time": 106.38636363636363,
                "pitch": 55,
                "velocity": 40,
                "duration": 0.09999999999999432,
                "tempo": 120.0
            },
            {
                "start_time": 106.52045454545454,
                "end_time": 106.62272727272726,
                "pitch": 55,
                "velocity": 40,
                "duration": 0.10227272727271952,
                "tempo": 120.0
            },
            {
                "start_time": 106.75681818181818,
                "end_time": 106.85681818181817,
                "pitch": 55,
                "velocity": 40,
                "duration": 0.09999999999999432,
                "tempo": 120.0
            },
            {
                "start_time": 106.99090909090908,
                "end_time": 107.08863636363635,
                "pitch": 55,
                "velocity": 40,
                "duration": 0.09772727272726911,
                "tempo": 120.0
            },
            {
                "start_time": 107.22045454545454,
                "end_time": 107.31818181818181,
                "pitch": 55,
                "velocity": 40,
                "duration": 0.09772727272726911,
                "tempo": 120.0
            },
            {
                "start_time": 107.44772727272726,
                "end_time": 107.55,
                "pitch": 55,
                "velocity": 40,
                "duration": 0.10227272727273373,
                "tempo": 120.0
            },
            {
                "start_time": 107.6840909090909,
                "end_time": 107.7840909090909,
                "pitch": 55,
                "velocity": 40,
                "duration": 0.10000000000000853,
                "tempo": 120.0
            },
            {
                "start_time": 107.91818181818181,
                "end_time": 108.01590909090909,
                "pitch": 60,
                "velocity": 40,
                "duration": 0.09772727272728332,
                "tempo": 120.0
            },
            {
                "start_time": 108.14545454545454,
                "end_time": 108.24545454545454,
                "pitch": 60,
                "velocity": 40,
                "duration": 0.09999999999999432,
                "tempo": 120.0
            },
            {
                "start_time": 108.375,
                "end_time": 108.47727272727272,
                "pitch": 60,
                "velocity": 40,
                "duration": 0.10227272727271952,
                "tempo": 120.0
            },
            {
                "start_time": 108.60909090909091,
                "end_time": 108.71136363636363,
                "pitch": 60,
                "velocity": 40,
                "duration": 0.10227272727271952,
                "tempo": 120.0
            },
            {
                "start_time": 108.84545454545454,
                "end_time": 108.94545454545454,
                "pitch": 60,
                "velocity": 40,
                "duration": 0.09999999999999432,
                "tempo": 120.0
            },
            {
                "start_time": 109.07954545454545,
                "end_time": 109.17954545454545,
                "pitch": 60,
                "velocity": 40,
                "duration": 0.09999999999999432,
                "tempo": 120.0
            },
            {
                "start_time": 109.31363636363636,
                "end_time": 109.41363636363636,
                "pitch": 60,
                "velocity": 40,
                "duration": 0.09999999999999432,
                "tempo": 120.0
            },
            {
                "start_time": 109.54772727272727,
                "end_time": 109.64772727272727,
                "pitch": 60,
                "velocity": 40,
                "duration": 0.09999999999999432,
                "tempo": 120.0
            },
            {
                "start_time": 109.78181818181818,
                "end_time": 109.88181818181818,
                "pitch": 60,
                "velocity": 40,
                "duration": 0.09999999999999432,
                "tempo": 120.0
            },
            {
                "start_time": 110.01136363636363,
                "end_time": 110.10909090909091,
                "pitch": 60,
                "velocity": 40,
                "duration": 0.09772727272728332,
                "tempo": 120.0
            },
            {
                "start_time": 110.24090909090908,
                "end_time": 110.34090909090908,
                "pitch": 60,
                "velocity": 40,
                "duration": 0.09999999999999432,
                "tempo": 120.0
            },
            {
                "start_time": 110.475,
                "end_time": 110.57499999999999,
                "pitch": 60,
                "velocity": 40,
                "duration": 0.09999999999999432,
                "tempo": 120.0
            },
            {
                "start_time": 110.7090909090909,
                "end_time": 110.86136363636363,
                "pitch": 60,
                "velocity": 40,
                "duration": 0.1522727272727309,
                "tempo": 120.0
            },
            {
                "start_time": 110.87727272727273,
                "end_time": 111.01136363636363,
                "pitch": 60,
                "velocity": 40,
                "duration": 0.13409090909090082,
                "tempo": 120.0
            },
            {
                "start_time": 111.02727272727272,
                "end_time": 111.16136363636363,
                "pitch": 60,
                "velocity": 40,
                "duration": 0.13409090909091503,
                "tempo": 120.0
            },
            {
                "start_time": 111.17954545454545,
                "end_time": 111.32954545454545,
                "pitch": 60,
                "velocity": 40,
                "duration": 0.15000000000000568,
                "tempo": 120.0
            },
            {
                "start_time": 111.34545454545454,
                "end_time": 111.47954545454544,
                "pitch": 60,
                "velocity": 40,
                "duration": 0.13409090909090082,
                "tempo": 120.0
            },
            {
                "start_time": 111.49772727272726,
                "end_time": 111.63181818181818,
                "pitch": 60,
                "velocity": 40,
                "duration": 0.13409090909091503,
                "tempo": 120.0
            },
            {
                "start_time": 111.64772727272727,
                "end_time": 111.86136363636363,
                "pitch": 60,
                "velocity": 40,
                "duration": 0.2136363636363683,
                "tempo": 120.0
            },
            {
                "start_time": 112.10681818181817,
                "end_time": 112.25454545454545,
                "pitch": 60,
                "velocity": 40,
                "duration": 0.14772727272728048,
                "tempo": 120.0
            },
            {
                "start_time": 112.27045454545454,
                "end_time": 112.39999999999999,
                "pitch": 60,
                "velocity": 40,
                "duration": 0.1295454545454504,
                "tempo": 120.0
            },
            {
                "start_time": 112.41818181818181,
                "end_time": 112.54772727272727,
                "pitch": 60,
                "velocity": 40,
                "duration": 0.12954545454546462,
                "tempo": 120.0
            },
            {
                "start_time": 112.56363636363636,
                "end_time": 112.78181818181818,
                "pitch": 60,
                "velocity": 40,
                "duration": 0.2181818181818187,
                "tempo": 120.0
            },
            {
                "start_time": 113.0340909090909,
                "end_time": 113.25227272727273,
                "pitch": 60,
                "velocity": 40,
                "duration": 0.2181818181818187,
                "tempo": 120.0
            },
            {
                "start_time": 113.50227272727273,
                "end_time": 113.71590909090908,
                "pitch": 60,
                "velocity": 40,
                "duration": 0.21363636363635408,
                "tempo": 120.0
            },
            {
                "start_time": 113.96136363636363,
                "end_time": 114.11136363636363,
                "pitch": 60,
                "velocity": 40,
                "duration": 0.15000000000000568,
                "tempo": 120.0
            },
            {
                "start_time": 114.12727272727273,
                "end_time": 114.26136363636363,
                "pitch": 60,
                "velocity": 40,
                "duration": 0.13409090909090082,
                "tempo": 120.0
            },
            {
                "start_time": 114.27954545454546,
                "end_time": 114.41363636363636,
                "pitch": 60,
                "velocity": 40,
                "duration": 0.13409090909090082,
                "tempo": 120.0
            },
            {
                "start_time": 114.42954545454545,
                "end_time": 114.64772727272727,
                "pitch": 60,
                "velocity": 40,
                "duration": 0.2181818181818187,
                "tempo": 120.0
            },
            {
                "start_time": 114.89772727272727,
                "end_time": 115.11590909090908,
                "pitch": 60,
                "velocity": 40,
                "duration": 0.2181818181818187,
                "tempo": 120.0
            },
            {
                "start_time": 115.36818181818181,
                "end_time": 115.57954545454545,
                "pitch": 58,
                "velocity": 40,
                "duration": 0.21136363636364308,
                "tempo": 120.0
            },
            {
                "start_time": 115.82499999999999,
                "end_time": 115.97727272727272,
                "pitch": 58,
                "velocity": 40,
                "duration": 0.1522727272727309,
                "tempo": 120.0
            },
            {
                "start_time": 115.99318181818181,
                "end_time": 116.12727272727273,
                "pitch": 58,
                "velocity": 40,
                "duration": 0.13409090909091503,
                "tempo": 120.0
            },
            {
                "start_time": 116.14318181818182,
                "end_time": 116.27727272727272,
                "pitch": 58,
                "velocity": 40,
                "duration": 0.13409090909090082,
                "tempo": 120.0
            },
            {
                "start_time": 116.29545454545455,
                "end_time": 116.50681818181818,
                "pitch": 58,
                "velocity": 40,
                "duration": 0.21136363636362887,
                "tempo": 120.0
            },
            {
                "start_time": 116.75227272727273,
                "end_time": 116.97045454545454,
                "pitch": 58,
                "velocity": 40,
                "duration": 0.2181818181818187,
                "tempo": 120.0
            },
            {
                "start_time": 117.22272727272727,
                "end_time": 117.43863636363636,
                "pitch": 55,
                "velocity": 40,
                "duration": 0.2159090909090935,
                "tempo": 120.0
            },
            {
                "start_time": 117.69090909090909,
                "end_time": 117.84090909090908,
                "pitch": 55,
                "velocity": 40,
                "duration": 0.14999999999999147,
                "tempo": 120.0
            },
            {
                "start_time": 117.85909090909091,
                "end_time": 117.99318181818181,
                "pitch": 55,
                "velocity": 40,
                "duration": 0.13409090909090082,
                "tempo": 120.0
            },
            {
                "start_time": 118.0090909090909,
                "end_time": 118.14318181818182,
                "pitch": 55,
                "velocity": 40,
                "duration": 0.13409090909091503,
                "tempo": 120.0
            },
            {
                "start_time": 118.1590909090909,
                "end_time": 118.37272727272726,
                "pitch": 55,
                "velocity": 40,
                "duration": 0.21363636363635408,
                "tempo": 120.0
            },
            {
                "start_time": 118.61818181818181,
                "end_time": 118.84090909090908,
                "pitch": 55,
                "velocity": 40,
                "duration": 0.2227272727272691,
                "tempo": 120.0
            },
            {
                "start_time": 119.09772727272727,
                "end_time": 119.31136363636364,
                "pitch": 60,
                "velocity": 40,
                "duration": 0.2136363636363683,
                "tempo": 120.0
            },
            {
                "start_time": 119.55681818181817,
                "end_time": 119.70454545454545,
                "pitch": 60,
                "velocity": 40,
                "duration": 0.14772727272728048,
                "tempo": 120.0
            },
            {
                "start_time": 119.72045454545454,
                "end_time": 119.85,
                "pitch": 60,
                "velocity": 40,
                "duration": 0.1295454545454504,
                "tempo": 120.0
            },
            {
                "start_time": 119.86818181818181,
                "end_time": 119.99772727272726,
                "pitch": 60,
                "velocity": 40,
                "duration": 0.1295454545454504,
                "tempo": 120.0
            },
            {
                "start_time": 120.01363636363635,
                "end_time": 120.23181818181817,
                "pitch": 60,
                "velocity": 40,
                "duration": 0.2181818181818187,
                "tempo": 120.0
            },
            {
                "start_time": 120.48409090909091,
                "end_time": 120.70227272727273,
                "pitch": 60,
                "velocity": 40,
                "duration": 0.2181818181818187,
                "tempo": 120.0
            },
            {
                "start_time": 120.95227272727273,
                "end_time": 121.16590909090908,
                "pitch": 58,
                "velocity": 40,
                "duration": 0.21363636363635408,
                "tempo": 120.0
            },
            {
                "start_time": 121.41136363636363,
                "end_time": 121.56136363636364,
                "pitch": 58,
                "velocity": 40,
                "duration": 0.15000000000000568,
                "tempo": 120.0
            },
            {
                "start_time": 121.57727272727273,
                "end_time": 121.71136363636363,
                "pitch": 58,
                "velocity": 40,
                "duration": 0.13409090909090082,
                "tempo": 120.0
            },
            {
                "start_time": 121.72954545454544,
                "end_time": 121.86363636363636,
                "pitch": 58,
                "velocity": 40,
                "duration": 0.13409090909091503,
                "tempo": 120.0
            },
            {
                "start_time": 121.87954545454545,
                "end_time": 122.09318181818182,
                "pitch": 58,
                "velocity": 40,
                "duration": 0.2136363636363683,
                "tempo": 120.0
            },
            {
                "start_time": 122.33863636363635,
                "end_time": 122.55454545454545,
                "pitch": 58,
                "velocity": 40,
                "duration": 0.2159090909090935,
                "tempo": 120.0
            },
            {
                "start_time": 122.80681818181817,
                "end_time": 123.02499999999999,
                "pitch": 60,
                "velocity": 40,
                "duration": 0.2181818181818187,
                "tempo": 120.0
            },
            {
                "start_time": 123.27499999999999,
                "end_time": 123.42727272727272,
                "pitch": 60,
                "velocity": 40,
                "duration": 0.1522727272727309,
                "tempo": 120.0
            },
            {
                "start_time": 123.44318181818181,
                "end_time": 123.57727272727273,
                "pitch": 60,
                "velocity": 40,
                "duration": 0.13409090909091503,
                "tempo": 120.0
            },
            {
                "start_time": 123.59318181818182,
                "end_time": 123.72727272727272,
                "pitch": 60,
                "velocity": 40,
                "duration": 0.13409090909090082,
                "tempo": 120.0
            },
            {
                "start_time": 123.74545454545454,
                "end_time": 123.95681818181818,
                "pitch": 58,
                "velocity": 40,
                "duration": 0.21136363636364308,
                "tempo": 120.0
            },
            {
                "start_time": 124.20227272727273,
                "end_time": 124.42045454545453,
                "pitch": 56,
                "velocity": 40,
                "duration": 0.2181818181818045,
                "tempo": 120.0
            },
            {
                "start_time": 124.67272727272727,
                "end_time": 124.8840909090909,
                "pitch": 55,
                "velocity": 40,
                "duration": 0.21136363636362887,
                "tempo": 120.0
            },
            {
                "start_time": 125.12954545454545,
                "end_time": 125.28181818181818,
                "pitch": 55,
                "velocity": 40,
                "duration": 0.1522727272727309,
                "tempo": 120.0
            },
            {
                "start_time": 125.29772727272727,
                "end_time": 125.43181818181817,
                "pitch": 55,
                "velocity": 40,
                "duration": 0.13409090909090082,
                "tempo": 120.0
            },
            {
                "start_time": 125.44772727272726,
                "end_time": 125.58181818181818,
                "pitch": 55,
                "velocity": 40,
                "duration": 0.13409090909091503,
                "tempo": 120.0
            },
            {
                "start_time": 125.6,
                "end_time": 125.75,
                "pitch": 55,
                "velocity": 40,
                "duration": 0.15000000000000568,
                "tempo": 120.0
            },
            {
                "start_time": 125.76590909090909,
                "end_time": 125.89999999999999,
                "pitch": 55,
                "velocity": 40,
                "duration": 0.13409090909090082,
                "tempo": 120.0
            },
            {
                "start_time": 125.91818181818181,
                "end_time": 126.05227272727272,
                "pitch": 55,
                "velocity": 40,
                "duration": 0.13409090909091503,
                "tempo": 120.0
            },
            {
                "start_time": 126.06818181818181,
                "end_time": 126.21818181818182,
                "pitch": 55,
                "velocity": 40,
                "duration": 0.15000000000000568,
                "tempo": 120.0
            },
            {
                "start_time": 126.23636363636363,
                "end_time": 126.37045454545454,
                "pitch": 55,
                "velocity": 40,
                "duration": 0.13409090909090082,
                "tempo": 120.0
            },
            {
                "start_time": 126.38636363636363,
                "end_time": 126.52045454545454,
                "pitch": 55,
                "velocity": 40,
                "duration": 0.13409090909091503,
                "tempo": 120.0
            }
        ],
        "Acoustic Bass": [
            {
                "start_time": 4.129545454545454,
                "end_time": 4.1477272727272725,
                "pitch": 48,
                "velocity": 32,
                "duration": 0.01818181818181852,
                "tempo": 120.0
            },
            {
                "start_time": 4.1477272727272725,
                "end_time": 4.163636363636363,
                "pitch": 52,
                "velocity": 32,
                "duration": 0.01590909090909065,
                "tempo": 120.0
            },
            {
                "start_time": 4.163636363636363,
                "end_time": 4.281818181818181,
                "pitch": 48,
                "velocity": 32,
                "duration": 0.11818181818181817,
                "tempo": 120.0
            },
            {
                "start_time": 4.3,
                "end_time": 4.3159090909090905,
                "pitch": 48,
                "velocity": 32,
                "duration": 0.01590909090909065,
                "tempo": 120.0
            },
            {
                "start_time": 4.3159090909090905,
                "end_time": 4.334090909090909,
                "pitch": 52,
                "velocity": 32,
                "duration": 0.01818181818181852,
                "tempo": 120.0
            },
            {
                "start_time": 4.334090909090909,
                "end_time": 4.4363636363636365,
                "pitch": 48,
                "velocity": 32,
                "duration": 0.10227272727272751,
                "tempo": 120.0
            },
            {
                "start_time": 4.452272727272727,
                "end_time": 4.470454545454546,
                "pitch": 48,
                "velocity": 32,
                "duration": 0.01818181818181852,
                "tempo": 120.0
            },
            {
                "start_time": 4.470454545454546,
                "end_time": 4.486363636363636,
                "pitch": 52,
                "velocity": 32,
                "duration": 0.01590909090909065,
                "tempo": 120.0
            },
            {
                "start_time": 4.486363636363636,
                "end_time": 4.588636363636364,
                "pitch": 48,
                "velocity": 32,
                "duration": 0.10227272727272751,
                "tempo": 120.0
            },
            {
                "start_time": 4.6068181818181815,
                "end_time": 4.622727272727272,
                "pitch": 48,
                "velocity": 32,
                "duration": 0.01590909090909065,
                "tempo": 120.0
            },
            {
                "start_time": 4.622727272727272,
                "end_time": 4.638636363636364,
                "pitch": 52,
                "velocity": 32,
                "duration": 0.01590909090909154,
                "tempo": 120.0
            },
            {
                "start_time": 4.638636363636364,
                "end_time": 4.818181818181818,
                "pitch": 48,
                "velocity": 32,
                "duration": 0.17954545454545467,
                "tempo": 120.0
            },
            {
                "start_time": 5.0636363636363635,
                "end_time": 5.081818181818182,
                "pitch": 48,
                "velocity": 32,
                "duration": 0.01818181818181852,
                "tempo": 120.0
            },
            {
                "start_time": 5.081818181818182,
                "end_time": 5.097727272727273,
                "pitch": 52,
                "velocity": 32,
                "duration": 0.01590909090909065,
                "tempo": 120.0
            },
            {
                "start_time": 5.097727272727273,
                "end_time": 5.284090909090909,
                "pitch": 48,
                "velocity": 32,
                "duration": 0.1863636363636365,
                "tempo": 120.0
            },
            {
                "start_time": 5.540909090909091,
                "end_time": 5.556818181818182,
                "pitch": 48,
                "velocity": 32,
                "duration": 0.01590909090909065,
                "tempo": 120.0
            },
            {
                "start_time": 5.556818181818182,
                "end_time": 5.572727272727272,
                "pitch": 52,
                "velocity": 32,
                "duration": 0.01590909090909065,
                "tempo": 120.0
            },
            {
                "start_time": 5.572727272727272,
                "end_time": 5.752272727272727,
                "pitch": 48,
                "velocity": 32,
                "duration": 0.17954545454545467,
                "tempo": 120.0
            },
            {
                "start_time": 5.997727272727272,
                "end_time": 6.015909090909091,
                "pitch": 48,
                "velocity": 32,
                "duration": 0.01818181818181852,
                "tempo": 120.0
            },
            {
                "start_time": 6.015909090909091,
                "end_time": 6.031818181818181,
                "pitch": 52,
                "velocity": 32,
                "duration": 0.01590909090909065,
                "tempo": 120.0
            },
            {
                "start_time": 6.031818181818181,
                "end_time": 6.1499999999999995,
                "pitch": 48,
                "velocity": 32,
                "duration": 0.11818181818181817,
                "tempo": 120.0
            },
            {
                "start_time": 6.165909090909091,
                "end_time": 6.181818181818182,
                "pitch": 48,
                "velocity": 32,
                "duration": 0.01590909090909065,
                "tempo": 120.0
            },
            {
                "start_time": 6.181818181818182,
                "end_time": 6.199999999999999,
                "pitch": 52,
                "velocity": 32,
                "duration": 0.018181818181817633,
                "tempo": 120.0
            },
            {
                "start_time": 6.199999999999999,
                "end_time": 6.3,
                "pitch": 48,
                "velocity": 32,
                "duration": 0.10000000000000053,
                "tempo": 120.0
            },
            {
                "start_time": 6.3159090909090905,
                "end_time": 6.334090909090909,
                "pitch": 48,
                "velocity": 32,
                "duration": 0.01818181818181852,
                "tempo": 120.0
            },
            {
                "start_time": 6.334090909090909,
                "end_time": 6.35,
                "pitch": 52,
                "velocity": 32,
                "duration": 0.01590909090909065,
                "tempo": 120.0
            },
            {
                "start_time": 6.35,
                "end_time": 6.449999999999999,
                "pitch": 48,
                "velocity": 32,
                "duration": 0.09999999999999964,
                "tempo": 120.0
            },
            {
                "start_time": 6.465909090909091,
                "end_time": 6.4840909090909085,
                "pitch": 48,
                "velocity": 32,
                "duration": 0.018181818181817633,
                "tempo": 120.0
            },
            {
                "start_time": 6.4840909090909085,
                "end_time": 6.5,
                "pitch": 52,
                "velocity": 32,
                "duration": 0.01590909090909154,
                "tempo": 120.0
            },
            {
                "start_time": 6.5,
                "end_time": 6.675,
                "pitch": 48,
                "velocity": 32,
                "duration": 0.17499999999999982,
                "tempo": 120.0
            },
            {
                "start_time": 6.915909090909091,
                "end_time": 6.931818181818182,
                "pitch": 48,
                "velocity": 32,
                "duration": 0.01590909090909065,
                "tempo": 120.0
            },
            {
                "start_time": 6.931818181818182,
                "end_time": 6.949999999999999,
                "pitch": 52,
                "velocity": 32,
                "duration": 0.018181818181817633,
                "tempo": 120.0
            },
            {
                "start_time": 6.949999999999999,
                "end_time": 7.138636363636364,
                "pitch": 48,
                "velocity": 32,
                "duration": 0.18863636363636438,
                "tempo": 120.0
            },
            {
                "start_time": 7.3954545454545455,
                "end_time": 7.411363636363636,
                "pitch": 48,
                "velocity": 32,
                "duration": 0.01590909090909065,
                "tempo": 120.0
            },
            {
                "start_time": 7.411363636363636,
                "end_time": 7.427272727272727,
                "pitch": 52,
                "velocity": 32,
                "duration": 0.01590909090909065,
                "tempo": 120.0
            },
            {
                "start_time": 7.427272727272727,
                "end_time": 7.6068181818181815,
                "pitch": 48,
                "velocity": 32,
                "duration": 0.17954545454545467,
                "tempo": 120.0
            },
            {
                "start_time": 7.852272727272727,
                "end_time": 7.870454545454545,
                "pitch": 48,
                "velocity": 32,
                "duration": 0.01818181818181852,
                "tempo": 120.0
            },
            {
                "start_time": 7.870454545454545,
                "end_time": 7.886363636363636,
                "pitch": 52,
                "velocity": 32,
                "duration": 0.01590909090909065,
                "tempo": 120.0
            },
            {
                "start_time": 7.886363636363636,
                "end_time": 8.004545454545454,
                "pitch": 48,
                "velocity": 32,
                "duration": 0.11818181818181817,
                "tempo": 120.0
            },
            {
                "start_time": 8.020454545454545,
                "end_time": 8.036363636363635,
                "pitch": 48,
                "velocity": 32,
                "duration": 0.01590909090909065,
                "tempo": 120.0
            },
            {
                "start_time": 8.036363636363635,
                "end_time": 8.054545454545455,
                "pitch": 52,
                "velocity": 32,
                "duration": 0.01818181818181941,
                "tempo": 120.0
            },
            {
                "start_time": 8.054545454545455,
                "end_time": 8.154545454545454,
                "pitch": 48,
                "velocity": 32,
                "duration": 0.09999999999999964,
                "tempo": 120.0
            },
            {
                "start_time": 8.170454545454545,
                "end_time": 8.188636363636363,
                "pitch": 48,
                "velocity": 32,
                "duration": 0.018181818181817633,
                "tempo": 120.0
            },
            {
                "start_time": 8.188636363636363,
                "end_time": 8.204545454545455,
                "pitch": 52,
                "velocity": 32,
                "duration": 0.015909090909092427,
                "tempo": 120.0
            },
            {
                "start_time": 8.204545454545455,
                "end_time": 8.304545454545455,
                "pitch": 48,
                "velocity": 32,
                "duration": 0.09999999999999964,
                "tempo": 120.0
            },
            {
                "start_time": 8.322727272727272,
                "end_time": 8.338636363636363,
                "pitch": 48,
                "velocity": 32,
                "duration": 0.01590909090909065,
                "tempo": 120.0
            },
            {
                "start_time": 8.338636363636363,
                "end_time": 8.35681818181818,
                "pitch": 52,
                "velocity": 32,
                "duration": 0.018181818181817633,
                "tempo": 120.0
            },
            {
                "start_time": 8.35681818181818,
                "end_time": 8.545454545454545,
                "pitch": 48,
                "velocity": 32,
                "duration": 0.18863636363636438,
                "tempo": 120.0
            },
            {
                "start_time": 8.802272727272728,
                "end_time": 8.818181818181818,
                "pitch": 48,
                "velocity": 32,
                "duration": 0.01590909090909065,
                "tempo": 120.0
            },
            {
                "start_time": 8.818181818181818,
                "end_time": 8.834090909090909,
                "pitch": 52,
                "velocity": 32,
                "duration": 0.01590909090909065,
                "tempo": 120.0
            },
            {
                "start_time": 8.834090909090909,
                "end_time": 9.01590909090909,
                "pitch": 48,
                "velocity": 32,
                "duration": 0.18181818181818166,
                "tempo": 120.0
            },
            {
                "start_time": 9.261363636363637,
                "end_time": 9.277272727272727,
                "pitch": 48,
                "velocity": 32,
                "duration": 0.01590909090909065,
                "tempo": 120.0
            },
            {
                "start_time": 9.277272727272727,
                "end_time": 9.293181818181818,
                "pitch": 52,
                "velocity": 32,
                "duration": 0.01590909090909065,
                "tempo": 120.0
            },
            {
                "start_time": 9.293181818181818,
                "end_time": 9.477272727272727,
                "pitch": 48,
                "velocity": 32,
                "duration": 0.18409090909090864,
                "tempo": 120.0
            },
            {
                "start_time": 9.729545454545454,
                "end_time": 9.745454545454544,
                "pitch": 48,
                "velocity": 32,
                "duration": 0.01590909090909065,
                "tempo": 120.0
            },
            {
                "start_time": 9.745454545454544,
                "end_time": 9.761363636363637,
                "pitch": 52,
                "velocity": 32,
                "duration": 0.015909090909092427,
                "tempo": 120.0
            },
            {
                "start_time": 9.761363636363637,
                "end_time": 9.877272727272727,
                "pitch": 48,
                "velocity": 32,
                "duration": 0.1159090909090903,
                "tempo": 120.0
            },
            {
                "start_time": 9.893181818181818,
                "end_time": 9.909090909090908,
                "pitch": 48,
                "velocity": 32,
                "duration": 0.01590909090909065,
                "tempo": 120.0
            },
            {
                "start_time": 9.909090909090908,
                "end_time": 9.924999999999999,
                "pitch": 52,
                "velocity": 32,
                "duration": 0.01590909090909065,
                "tempo": 120.0
            },
            {
                "start_time": 9.924999999999999,
                "end_time": 10.025,
                "pitch": 48,
                "velocity": 32,
                "duration": 0.10000000000000142,
                "tempo": 120.0
            },
            {
                "start_time": 10.040909090909091,
                "end_time": 10.056818181818182,
                "pitch": 48,
                "velocity": 32,
                "duration": 0.01590909090909065,
                "tempo": 120.0
            },
            {
                "start_time": 10.056818181818182,
                "end_time": 10.072727272727272,
                "pitch": 52,
                "velocity": 32,
                "duration": 0.01590909090909065,
                "tempo": 120.0
            },
            {
                "start_time": 10.072727272727272,
                "end_time": 10.170454545454545,
                "pitch": 48,
                "velocity": 32,
                "duration": 0.09772727272727266,
                "tempo": 120.0
            },
            {
                "start_time": 10.186363636363636,
                "end_time": 10.202272727272726,
                "pitch": 48,
                "velocity": 32,
                "duration": 0.01590909090909065,
                "tempo": 120.0
            },
            {
                "start_time": 10.202272727272726,
                "end_time": 10.220454545454546,
                "pitch": 52,
                "velocity": 32,
                "duration": 0.01818181818181941,
                "tempo": 120.0
            },
            {
                "start_time": 10.220454545454546,
                "end_time": 10.395454545454545,
                "pitch": 48,
                "velocity": 32,
                "duration": 0.17499999999999893,
                "tempo": 120.0
            },
            {
                "start_time": 10.636363636363637,
                "end_time": 10.652272727272727,
                "pitch": 48,
                "velocity": 32,
                "duration": 0.01590909090909065,
                "tempo": 120.0
            },
            {
                "start_time": 10.652272727272727,
                "end_time": 10.670454545454545,
                "pitch": 52,
                "velocity": 32,
                "duration": 0.018181818181817633,
                "tempo": 120.0
            },
            {
                "start_time": 10.670454545454545,
                "end_time": 10.85909090909091,
                "pitch": 48,
                "velocity": 32,
                "duration": 0.18863636363636438,
                "tempo": 120.0
            },
            {
                "start_time": 11.11590909090909,
                "end_time": 11.131818181818181,
                "pitch": 46,
                "velocity": 32,
                "duration": 0.01590909090909065,
                "tempo": 120.0
            },
            {
                "start_time": 11.131818181818181,
                "end_time": 11.147727272727272,
                "pitch": 50,
                "velocity": 32,
                "duration": 0.01590909090909065,
                "tempo": 120.0
            },
            {
                "start_time": 11.147727272727272,
                "end_time": 11.327272727272726,
                "pitch": 46,
                "velocity": 32,
                "duration": 0.17954545454545467,
                "tempo": 120.0
            },
            {
                "start_time": 11.572727272727272,
                "end_time": 11.59090909090909,
                "pitch": 46,
                "velocity": 32,
                "duration": 0.018181818181817633,
                "tempo": 120.0
            },
            {
                "start_time": 11.59090909090909,
                "end_time": 11.60681818181818,
                "pitch": 50,
                "velocity": 32,
                "duration": 0.01590909090909065,
                "tempo": 120.0
            },
            {
                "start_time": 11.60681818181818,
                "end_time": 11.727272727272727,
                "pitch": 46,
                "velocity": 32,
                "duration": 0.12045454545454604,
                "tempo": 120.0
            },
            {
                "start_time": 11.745454545454544,
                "end_time": 11.761363636363635,
                "pitch": 46,
                "velocity": 32,
                "duration": 0.01590909090909065,
                "tempo": 120.0
            },
            {
                "start_time": 11.761363636363635,
                "end_time": 11.779545454545454,
                "pitch": 50,
                "velocity": 32,
                "duration": 0.01818181818181941,
                "tempo": 120.0
            },
            {
                "start_time": 11.779545454545454,
                "end_time": 11.881818181818181,
                "pitch": 46,
                "velocity": 32,
                "duration": 0.10227272727272663,
                "tempo": 120.0
            },
            {
                "start_time": 11.899999999999999,
                "end_time": 11.915909090909091,
                "pitch": 46,
                "velocity": 32,
                "duration": 0.015909090909092427,
                "tempo": 120.0
            },
            {
                "start_time": 11.915909090909091,
                "end_time": 11.934090909090909,
                "pitch": 50,
                "velocity": 32,
                "duration": 0.018181818181817633,
                "tempo": 120.0
            },
            {
                "start_time": 11.934090909090909,
                "end_time": 12.036363636363635,
                "pitch": 46,
                "velocity": 32,
                "duration": 0.10227272727272663,
                "tempo": 120.0
            },
            {
                "start_time": 12.052272727272726,
                "end_time": 12.068181818181818,
                "pitch": 46,
                "velocity": 32,
                "duration": 0.015909090909092427,
                "tempo": 120.0
            },
            {
                "start_time": 12.068181818181818,
                "end_time": 12.084090909090909,
                "pitch": 50,
                "velocity": 32,
                "duration": 0.01590909090909065,
                "tempo": 120.0
            },
            {
                "start_time": 12.084090909090909,
                "end_time": 12.261363636363635,
                "pitch": 46,
                "velocity": 32,
                "duration": 0.17727272727272592,
                "tempo": 120.0
            },
            {
                "start_time": 12.5,
                "end_time": 12.518181818181818,
                "pitch": 46,
                "velocity": 32,
                "duration": 0.018181818181817633,
                "tempo": 120.0
            },
            {
                "start_time": 12.518181818181818,
                "end_time": 12.534090909090908,
                "pitch": 50,
                "velocity": 32,
                "duration": 0.01590909090909065,
                "tempo": 120.0
            },
            {
                "start_time": 12.534090909090908,
                "end_time": 12.722727272727273,
                "pitch": 46,
                "velocity": 32,
                "duration": 0.18863636363636438,
                "tempo": 120.0
            },
            {
                "start_time": 12.98181818181818,
                "end_time": 12.997727272727271,
                "pitch": 43,
                "velocity": 32,
                "duration": 0.01590909090909065,
                "tempo": 120.0
            },
            {
                "start_time": 12.997727272727271,
                "end_time": 13.01590909090909,
                "pitch": 48,
                "velocity": 32,
                "duration": 0.01818181818181941,
                "tempo": 120.0
            },
            {
                "start_time": 13.01590909090909,
                "end_time": 13.204545454545453,
                "pitch": 43,
                "velocity": 32,
                "duration": 0.1886363636363626,
                "tempo": 120.0
            },
            {
                "start_time": 13.461363636363636,
                "end_time": 13.477272727272727,
                "pitch": 43,
                "velocity": 32,
                "duration": 0.01590909090909065,
                "tempo": 120.0
            },
            {
                "start_time": 13.477272727272727,
                "end_time": 13.495454545454544,
                "pitch": 48,
                "velocity": 32,
                "duration": 0.018181818181817633,
                "tempo": 120.0
            },
            {
                "start_time": 13.495454545454544,
                "end_time": 13.609090909090908,
                "pitch": 43,
                "velocity": 32,
                "duration": 0.11363636363636331,
                "tempo": 120.0
            },
            {
                "start_time": 13.625,
                "end_time": 13.64090909090909,
                "pitch": 43,
                "velocity": 32,
                "duration": 0.01590909090909065,
                "tempo": 120.0
            },
            {
                "start_time": 13.64090909090909,
                "end_time": 13.659090909090908,
                "pitch": 48,
                "velocity": 32,
                "duration": 0.018181818181817633,
                "tempo": 120.0
            },
            {
                "start_time": 13.659090909090908,
                "end_time": 13.756818181818181,
                "pitch": 43,
                "velocity": 32,
                "duration": 0.09772727272727266,
                "tempo": 120.0
            },
            {
                "start_time": 13.772727272727272,
                "end_time": 13.788636363636362,
                "pitch": 43,
                "velocity": 32,
                "duration": 0.01590909090909065,
                "tempo": 120.0
            },
            {
                "start_time": 13.788636363636362,
                "end_time": 13.804545454545455,
                "pitch": 48,
                "velocity": 32,
                "duration": 0.015909090909092427,
                "tempo": 120.0
            },
            {
                "start_time": 13.804545454545455,
                "end_time": 13.904545454545454,
                "pitch": 43,
                "velocity": 32,
                "duration": 0.09999999999999964,
                "tempo": 120.0
            },
            {
                "start_time": 13.920454545454545,
                "end_time": 13.936363636363636,
                "pitch": 43,
                "velocity": 32,
                "duration": 0.01590909090909065,
                "tempo": 120.0
            },
            {
                "start_time": 13.936363636363636,
                "end_time": 13.952272727272726,
                "pitch": 48,
                "velocity": 32,
                "duration": 0.01590909090909065,
                "tempo": 120.0
            },
            {
                "start_time": 13.952272727272726,
                "end_time": 14.070454545454545,
                "pitch": 43,
                "velocity": 32,
                "duration": 0.11818181818181905,
                "tempo": 120.0
            },
            {
                "start_time": 14.086363636363636,
                "end_time": 14.104545454545454,
                "pitch": 43,
                "velocity": 32,
                "duration": 0.018181818181817633,
                "tempo": 120.0
            },
            {
                "start_time": 14.104545454545454,
                "end_time": 14.120454545454544,
                "pitch": 48,
                "velocity": 32,
                "duration": 0.01590909090909065,
                "tempo": 120.0
            },
            {
                "start_time": 14.120454545454544,
                "end_time": 14.220454545454544,
                "pitch": 43,
                "velocity": 32,
                "duration": 0.09999999999999964,
                "tempo": 120.0
            },
            {
                "start_time": 14.238636363636363,
                "end_time": 14.254545454545454,
                "pitch": 43,
                "velocity": 32,
                "duration": 0.01590909090909065,
                "tempo": 120.0
            },
            {
                "start_time": 14.254545454545454,
                "end_time": 14.270454545454545,
                "pitch": 48,
                "velocity": 32,
                "duration": 0.01590909090909065,
                "tempo": 120.0
            },
            {
                "start_time": 14.270454545454545,
                "end_time": 14.372727272727271,
                "pitch": 43,
                "velocity": 32,
                "duration": 0.10227272727272663,
                "tempo": 120.0
            },
            {
                "start_time": 14.388636363636364,
                "end_time": 14.404545454545454,
                "pitch": 43,
                "velocity": 32,
                "duration": 0.01590909090909065,
                "tempo": 120.0
            },
            {
                "start_time": 14.404545454545454,
                "end_time": 14.422727272727272,
                "pitch": 48,
                "velocity": 32,
                "duration": 0.018181818181817633,
                "tempo": 120.0
            },
            {
                "start_time": 14.422727272727272,
                "end_time": 14.538636363636362,
                "pitch": 43,
                "velocity": 32,
                "duration": 0.1159090909090903,
                "tempo": 120.0
            },
            {
                "start_time": 14.556818181818182,
                "end_time": 14.572727272727272,
                "pitch": 43,
                "velocity": 32,
                "duration": 0.01590909090909065,
                "tempo": 120.0
            },
            {
                "start_time": 14.572727272727272,
                "end_time": 14.588636363636363,
                "pitch": 48,
                "velocity": 32,
                "duration": 0.01590909090909065,
                "tempo": 120.0
            },
            {
                "start_time": 14.588636363636363,
                "end_time": 14.69090909090909,
                "pitch": 43,
                "velocity": 32,
                "duration": 0.10227272727272663,
                "tempo": 120.0
            },
            {
                "start_time": 14.70681818181818,
                "end_time": 14.722727272727273,
                "pitch": 43,
                "velocity": 32,
                "duration": 0.015909090909092427,
                "tempo": 120.0
            },
            {
                "start_time": 14.722727272727273,
                "end_time": 14.74090909090909,
                "pitch": 48,
                "velocity": 32,
                "duration": 0.018181818181817633,
                "tempo": 120.0
            },
            {
                "start_time": 14.74090909090909,
                "end_time": 14.84090909090909,
                "pitch": 43,
                "velocity": 32,
                "duration": 0.09999999999999964,
                "tempo": 120.0
            },
            {
                "start_time": 14.85681818181818,
                "end_time": 14.875,
                "pitch": 48,
                "velocity": 32,
                "duration": 0.01818181818181941,
                "tempo": 120.0
            },
            {
                "start_time": 14.875,
                "end_time": 14.89090909090909,
                "pitch": 52,
                "velocity": 32,
                "duration": 0.01590909090909065,
                "tempo": 120.0
            },
            {
                "start_time": 14.89090909090909,
                "end_time": 15.075,
                "pitch": 48,
                "velocity": 32,
                "duration": 0.18409090909090864,
                "tempo": 120.0
            },
            {
                "start_time": 15.327272727272726,
                "end_time": 15.343181818181817,
                "pitch": 48,
                "velocity": 32,
                "duration": 0.01590909090909065,
                "tempo": 120.0
            },
            {
                "start_time": 15.343181818181817,
                "end_time": 15.359090909090908,
                "pitch": 52,
                "velocity": 32,
                "duration": 0.01590909090909065,
                "tempo": 120.0
            },
            {
                "start_time": 15.359090909090908,
                "end_time": 15.470454545454544,
                "pitch": 48,
                "velocity": 32,
                "duration": 0.11136363636363633,
                "tempo": 120.0
            },
            {
                "start_time": 15.486363636363636,
                "end_time": 15.502272727272727,
                "pitch": 48,
                "velocity": 32,
                "duration": 0.01590909090909065,
                "tempo": 120.0
            },
            {
                "start_time": 15.502272727272727,
                "end_time": 15.518181818181818,
                "pitch": 52,
                "velocity": 32,
                "duration": 0.01590909090909065,
                "tempo": 120.0
            },
            {
                "start_time": 15.518181818181818,
                "end_time": 15.613636363636363,
                "pitch": 48,
                "velocity": 32,
                "duration": 0.09545454545454568,
                "tempo": 120.0
            },
            {
                "start_time": 15.631818181818181,
                "end_time": 15.647727272727272,
                "pitch": 48,
                "velocity": 32,
                "duration": 0.01590909090909065,
                "tempo": 120.0
            },
            {
                "start_time": 15.647727272727272,
                "end_time": 15.663636363636362,
                "pitch": 52,
                "velocity": 32,
                "duration": 0.01590909090909065,
                "tempo": 120.0
            },
            {
                "start_time": 15.663636363636362,
                "end_time": 15.759090909090908,
                "pitch": 48,
                "velocity": 32,
                "duration": 0.09545454545454568,
                "tempo": 120.0
            },
            {
                "start_time": 15.774999999999999,
                "end_time": 15.790909090909091,
                "pitch": 48,
                "velocity": 32,
                "duration": 0.015909090909092427,
                "tempo": 120.0
            },
            {
                "start_time": 15.790909090909091,
                "end_time": 15.806818181818182,
                "pitch": 52,
                "velocity": 32,
                "duration": 0.01590909090909065,
                "tempo": 120.0
            },
            {
                "start_time": 15.806818181818182,
                "end_time": 15.98181818181818,
                "pitch": 48,
                "velocity": 32,
                "duration": 0.17499999999999893,
                "tempo": 120.0
            },
            {
                "start_time": 16.222727272727273,
                "end_time": 16.24090909090909,
                "pitch": 48,
                "velocity": 32,
                "duration": 0.018181818181815856,
                "tempo": 120.0
            },
            {
                "start_time": 16.24090909090909,
                "end_time": 16.256818181818183,
                "pitch": 52,
                "velocity": 32,
                "duration": 0.015909090909094203,
                "tempo": 120.0
            },
            {
                "start_time": 16.256818181818183,
                "end_time": 16.44090909090909,
                "pitch": 48,
                "velocity": 32,
                "duration": 0.18409090909090864,
                "tempo": 120.0
            },
            {
                "start_time": 16.69090909090909,
                "end_time": 16.709090909090907,
                "pitch": 46,
                "velocity": 32,
                "duration": 0.018181818181815856,
                "tempo": 120.0
            },
            {
                "start_time": 16.709090909090907,
                "end_time": 16.724999999999998,
                "pitch": 50,
                "velocity": 32,
                "duration": 0.01590909090909065,
                "tempo": 120.0
            },
            {
                "start_time": 16.724999999999998,
                "end_time": 16.904545454545453,
                "pitch": 46,
                "velocity": 32,
                "duration": 0.17954545454545467,
                "tempo": 120.0
            },
            {
                "start_time": 17.15,
                "end_time": 17.168181818181818,
                "pitch": 46,
                "velocity": 32,
                "duration": 0.01818181818181941,
                "tempo": 120.0
            },
            {
                "start_time": 17.168181818181818,
                "end_time": 17.18409090909091,
                "pitch": 50,
                "velocity": 32,
                "duration": 0.01590909090909065,
                "tempo": 120.0
            },
            {
                "start_time": 17.18409090909091,
                "end_time": 17.30681818181818,
                "pitch": 46,
                "velocity": 32,
                "duration": 0.12272727272727124,
                "tempo": 120.0
            },
            {
                "start_time": 17.325,
                "end_time": 17.34090909090909,
                "pitch": 46,
                "velocity": 32,
                "duration": 0.01590909090909065,
                "tempo": 120.0
            },
            {
                "start_time": 17.34090909090909,
                "end_time": 17.35909090909091,
                "pitch": 50,
                "velocity": 32,
                "duration": 0.01818181818181941,
                "tempo": 120.0
            },
            {
                "start_time": 17.35909090909091,
                "end_time": 17.46363636363636,
                "pitch": 46,
                "velocity": 32,
                "duration": 0.10454545454545183,
                "tempo": 120.0
            },
            {
                "start_time": 17.48181818181818,
                "end_time": 17.49772727272727,
                "pitch": 46,
                "velocity": 32,
                "duration": 0.01590909090909065,
                "tempo": 120.0
            },
            {
                "start_time": 17.49772727272727,
                "end_time": 17.51590909090909,
                "pitch": 50,
                "velocity": 32,
                "duration": 0.01818181818181941,
                "tempo": 120.0
            },
            {
                "start_time": 17.51590909090909,
                "end_time": 17.620454545454546,
                "pitch": 46,
                "velocity": 32,
                "duration": 0.10454545454545539,
                "tempo": 120.0
            },
            {
                "start_time": 17.636363636363637,
                "end_time": 17.652272727272727,
                "pitch": 46,
                "velocity": 32,
                "duration": 0.01590909090909065,
                "tempo": 120.0
            },
            {
                "start_time": 17.652272727272727,
                "end_time": 17.668181818181818,
                "pitch": 50,
                "velocity": 32,
                "duration": 0.01590909090909065,
                "tempo": 120.0
            },
            {
                "start_time": 17.668181818181818,
                "end_time": 17.845454545454544,
                "pitch": 46,
                "velocity": 32,
                "duration": 0.17727272727272592,
                "tempo": 120.0
            },
            {
                "start_time": 18.084090909090907,
                "end_time": 18.102272727272727,
                "pitch": 46,
                "velocity": 32,
                "duration": 0.01818181818181941,
                "tempo": 120.0
            },
            {
                "start_time": 18.102272727272727,
                "end_time": 18.118181818181817,
                "pitch": 50,
                "velocity": 32,
                "duration": 0.01590909090909065,
                "tempo": 120.0
            },
            {
                "start_time": 18.118181818181817,
                "end_time": 18.302272727272726,
                "pitch": 46,
                "velocity": 32,
                "duration": 0.18409090909090864,
                "tempo": 120.0
            },
            {
                "start_time": 18.554545454545455,
                "end_time": 18.570454545454545,
                "pitch": 48,
                "velocity": 32,
                "duration": 0.01590909090909065,
                "tempo": 120.0
            },
            {
                "start_time": 18.570454545454545,
                "end_time": 18.58863636363636,
                "pitch": 52,
                "velocity": 32,
                "duration": 0.018181818181815856,
                "tempo": 120.0
            },
            {
                "start_time": 18.58863636363636,
                "end_time": 18.772727272727273,
                "pitch": 48,
                "velocity": 32,
                "duration": 0.1840909090909122,
                "tempo": 120.0
            },
            {
                "start_time": 19.022727272727273,
                "end_time": 19.04090909090909,
                "pitch": 48,
                "velocity": 32,
                "duration": 0.018181818181815856,
                "tempo": 120.0
            },
            {
                "start_time": 19.04090909090909,
                "end_time": 19.05681818181818,
                "pitch": 52,
                "velocity": 32,
                "duration": 0.01590909090909065,
                "tempo": 120.0
            },
            {
                "start_time": 19.05681818181818,
                "end_time": 19.177272727272726,
                "pitch": 48,
                "velocity": 32,
                "duration": 0.12045454545454604,
                "tempo": 120.0
            },
            {
                "start_time": 19.195454545454545,
                "end_time": 19.211363636363636,
                "pitch": 48,
                "velocity": 32,
                "duration": 0.01590909090909065,
                "tempo": 120.0
            },
            {
                "start_time": 19.211363636363636,
                "end_time": 19.229545454545455,
                "pitch": 52,
                "velocity": 32,
                "duration": 0.01818181818181941,
                "tempo": 120.0
            },
            {
                "start_time": 19.229545454545455,
                "end_time": 19.331818181818182,
                "pitch": 48,
                "velocity": 32,
                "duration": 0.10227272727272663,
                "tempo": 120.0
            },
            {
                "start_time": 19.349999999999998,
                "end_time": 19.36590909090909,
                "pitch": 48,
                "velocity": 32,
                "duration": 0.01590909090909065,
                "tempo": 120.0
            },
            {
                "start_time": 19.36590909090909,
                "end_time": 19.384090909090908,
                "pitch": 52,
                "velocity": 32,
                "duration": 0.01818181818181941,
                "tempo": 120.0
            },
            {
                "start_time": 19.384090909090908,
                "end_time": 19.486363636363635,
                "pitch": 48,
                "velocity": 32,
                "duration": 0.10227272727272663,
                "tempo": 120.0
            },
            {
                "start_time": 19.502272727272725,
                "end_time": 19.518181818181816,
                "pitch": 46,
                "velocity": 32,
                "duration": 0.01590909090909065,
                "tempo": 120.0
            },
            {
                "start_time": 19.518181818181816,
                "end_time": 19.534090909090907,
                "pitch": 50,
                "velocity": 32,
                "duration": 0.01590909090909065,
                "tempo": 120.0
            },
            {
                "start_time": 19.534090909090907,
                "end_time": 19.711363636363636,
                "pitch": 46,
                "velocity": 32,
                "duration": 0.17727272727272947,
                "tempo": 120.0
            },
            {
                "start_time": 19.95,
                "end_time": 19.96818181818182,
                "pitch": 44,
                "velocity": 32,
                "duration": 0.01818181818181941,
                "tempo": 120.0
            },
            {
                "start_time": 19.96818181818182,
                "end_time": 19.98409090909091,
                "pitch": 48,
                "velocity": 32,
                "duration": 0.01590909090909065,
                "tempo": 120.0
            },
            {
                "start_time": 19.98409090909091,
                "end_time": 20.163636363636364,
                "pitch": 44,
                "velocity": 32,
                "duration": 0.17954545454545467,
                "tempo": 120.0
            },
            {
                "start_time": 20.409090909090907,
                "end_time": 20.427272727272726,
                "pitch": 48,
                "velocity": 32,
                "duration": 0.01818181818181941,
                "tempo": 120.0
            },
            {
                "start_time": 20.427272727272726,
                "end_time": 20.443181818181817,
                "pitch": 52,
                "velocity": 32,
                "duration": 0.01590909090909065,
                "tempo": 120.0
            },
            {
                "start_time": 20.443181818181817,
                "end_time": 20.63181818181818,
                "pitch": 48,
                "velocity": 32,
                "duration": 0.1886363636363626,
                "tempo": 120.0
            },
            {
                "start_time": 20.888636363636362,
                "end_time": 20.90681818181818,
                "pitch": 48,
                "velocity": 32,
                "duration": 0.01818181818181941,
                "tempo": 120.0
            },
            {
                "start_time": 20.90681818181818,
                "end_time": 20.922727272727272,
                "pitch": 52,
                "velocity": 32,
                "duration": 0.01590909090909065,
                "tempo": 120.0
            },
            {
                "start_time": 20.922727272727272,
                "end_time": 21.04090909090909,
                "pitch": 48,
                "velocity": 32,
                "duration": 0.11818181818181728,
                "tempo": 120.0
            },
            {
                "start_time": 21.05681818181818,
                "end_time": 21.07272727272727,
                "pitch": 48,
                "velocity": 32,
                "duration": 0.01590909090909065,
                "tempo": 120.0
            },
            {
                "start_time": 21.07272727272727,
                "end_time": 21.09090909090909,
                "pitch": 52,
                "velocity": 32,
                "duration": 0.01818181818181941,
                "tempo": 120.0
            },
            {
                "start_time": 21.09090909090909,
                "end_time": 21.19090909090909,
                "pitch": 48,
                "velocity": 32,
                "duration": 0.10000000000000142,
                "tempo": 120.0
            },
            {
                "start_time": 21.206818181818182,
                "end_time": 21.224999999999998,
                "pitch": 48,
                "velocity": 32,
                "duration": 0.018181818181815856,
                "tempo": 120.0
            },
            {
                "start_time": 21.224999999999998,
                "end_time": 21.24090909090909,
                "pitch": 52,
                "velocity": 32,
                "duration": 0.01590909090909065,
                "tempo": 120.0
            },
            {
                "start_time": 21.24090909090909,
                "end_time": 21.34090909090909,
                "pitch": 48,
                "velocity": 32,
                "duration": 0.10000000000000142,
                "tempo": 120.0
            },
            {
                "start_time": 21.35909090909091,
                "end_time": 21.375,
                "pitch": 48,
                "velocity": 32,
                "duration": 0.01590909090909065,
                "tempo": 120.0
            },
            {
                "start_time": 21.375,
                "end_time": 21.393181818181816,
                "pitch": 52,
                "velocity": 32,
                "duration": 0.018181818181815856,
                "tempo": 120.0
            },
            {
                "start_time": 21.393181818181816,
                "end_time": 21.509090909090908,
                "pitch": 48,
                "velocity": 32,
                "duration": 0.11590909090909207,
                "tempo": 120.0
            },
            {
                "start_time": 21.525,
                "end_time": 21.543181818181818,
                "pitch": 48,
                "velocity": 32,
                "duration": 0.01818181818181941,
                "tempo": 120.0
            },
            {
                "start_time": 21.543181818181818,
                "end_time": 21.55909090909091,
                "pitch": 52,
                "velocity": 32,
                "duration": 0.01590909090909065,
                "tempo": 120.0
            },
            {
                "start_time": 21.55909090909091,
                "end_time": 21.659090909090907,
                "pitch": 48,
                "velocity": 32,
                "duration": 0.09999999999999787,
                "tempo": 120.0
            },
            {
                "start_time": 21.677272727272726,
                "end_time": 21.693181818181817,
                "pitch": 48,
                "velocity": 32,
                "duration": 0.01590909090909065,
                "tempo": 120.0
            },
            {
                "start_time": 21.693181818181817,
                "end_time": 21.711363636363636,
                "pitch": 52,
                "velocity": 32,
                "duration": 0.01818181818181941,
                "tempo": 120.0
            },
            {
                "start_time": 21.711363636363636,
                "end_time": 21.811363636363634,
                "pitch": 48,
                "velocity": 32,
                "duration": 0.09999999999999787,
                "tempo": 120.0
            },
            {
                "start_time": 21.827272727272724,
                "end_time": 21.845454545454544,
                "pitch": 48,
                "velocity": 32,
                "duration": 0.01818181818181941,
                "tempo": 120.0
            },
            {
                "start_time": 21.845454545454544,
                "end_time": 21.861363636363635,
                "pitch": 52,
                "velocity": 32,
                "duration": 0.01590909090909065,
                "tempo": 120.0
            },
            {
                "start_time": 21.861363636363635,
                "end_time": 21.977272727272727,
                "pitch": 48,
                "velocity": 32,
                "duration": 0.11590909090909207,
                "tempo": 120.0
            },
            {
                "start_time": 21.995454545454546,
                "end_time": 22.011363636363637,
                "pitch": 48,
                "velocity": 32,
                "duration": 0.01590909090909065,
                "tempo": 120.0
            },
            {
                "start_time": 22.011363636363637,
                "end_time": 22.029545454545453,
                "pitch": 52,
                "velocity": 32,
                "duration": 0.018181818181815856,
                "tempo": 120.0
            },
            {
                "start_time": 22.029545454545453,
                "end_time": 22.129545454545454,
                "pitch": 48,
                "velocity": 32,
                "duration": 0.10000000000000142,
                "tempo": 120.0
            },
            {
                "start_time": 22.145454545454545,
                "end_time": 22.163636363636364,
                "pitch": 48,
                "velocity": 32,
                "duration": 0.01818181818181941,
                "tempo": 120.0
            },
            {
                "start_time": 22.163636363636364,
                "end_time": 22.179545454545455,
                "pitch": 52,
                "velocity": 32,
                "duration": 0.01590909090909065,
                "tempo": 120.0
            },
            {
                "start_time": 22.179545454545455,
                "end_time": 22.279545454545453,
                "pitch": 48,
                "velocity": 32,
                "duration": 0.09999999999999787,
                "tempo": 120.0
            },
            {
                "start_time": 22.297727272727272,
                "end_time": 22.313636363636363,
                "pitch": 43,
                "velocity": 32,
                "duration": 0.01590909090909065,
                "tempo": 120.0
            },
            {
                "start_time": 22.313636363636363,
                "end_time": 22.329545454545453,
                "pitch": 48,
                "velocity": 32,
                "duration": 0.01590909090909065,
                "tempo": 120.0
            },
            {
                "start_time": 22.329545454545453,
                "end_time": 22.509090909090908,
                "pitch": 43,
                "velocity": 32,
                "duration": 0.17954545454545467,
                "tempo": 120.0
            },
            {
                "start_time": 23.222727272727273,
                "end_time": 23.24090909090909,
                "pitch": 55,
                "velocity": 32,
                "duration": 0.018181818181815856,
                "tempo": 120.0
            },
            {
                "start_time": 23.24090909090909,
                "end_time": 23.25681818181818,
                "pitch": 60,
                "velocity": 32,
                "duration": 0.01590909090909065,
                "tempo": 120.0
            },
            {
                "start_time": 23.25681818181818,
                "end_time": 23.436363636363634,
                "pitch": 55,
                "velocity": 32,
                "duration": 0.17954545454545467,
                "tempo": 120.0
            },
            {
                "start_time": 23.452272727272724,
                "end_time": 23.46818181818182,
                "pitch": 43,
                "velocity": 32,
                "duration": 0.015909090909094203,
                "tempo": 120.0
            },
            {
                "start_time": 23.46818181818182,
                "end_time": 23.486363636363635,
                "pitch": 48,
                "velocity": 32,
                "duration": 0.018181818181815856,
                "tempo": 120.0
            },
            {
                "start_time": 23.486363636363635,
                "end_time": 23.66590909090909,
                "pitch": 43,
                "velocity": 32,
                "duration": 0.17954545454545467,
                "tempo": 120.0
            },
            {
                "start_time": 24.15,
                "end_time": 24.168181818181818,
                "pitch": 43,
                "velocity": 32,
                "duration": 0.01818181818181941,
                "tempo": 120.0
            },
            {
                "start_time": 24.168181818181818,
                "end_time": 24.18409090909091,
                "pitch": 48,
                "velocity": 32,
                "duration": 0.01590909090909065,
                "tempo": 120.0
            },
            {
                "start_time": 24.18409090909091,
                "end_time": 24.363636363636363,
                "pitch": 43,
                "velocity": 32,
                "duration": 0.17954545454545467,
                "tempo": 120.0
            },
            {
                "start_time": 25.077272727272724,
                "end_time": 25.095454545454544,
                "pitch": 55,
                "velocity": 32,
                "duration": 0.01818181818181941,
                "tempo": 120.0
            },
            {
                "start_time": 25.095454545454544,
                "end_time": 25.111363636363635,
                "pitch": 60,
                "velocity": 32,
                "duration": 0.01590909090909065,
                "tempo": 120.0
            },
            {
                "start_time": 25.111363636363635,
                "end_time": 25.295454545454543,
                "pitch": 55,
                "velocity": 32,
                "duration": 0.18409090909090864,
                "tempo": 120.0
            },
            {
                "start_time": 25.313636363636363,
                "end_time": 25.329545454545453,
                "pitch": 43,
                "velocity": 32,
                "duration": 0.01590909090909065,
                "tempo": 120.0
            },
            {
                "start_time": 25.329545454545453,
                "end_time": 25.345454545454544,
                "pitch": 48,
                "velocity": 32,
                "duration": 0.01590909090909065,
                "tempo": 120.0
            },
            {
                "start_time": 25.345454545454544,
                "end_time": 25.529545454545453,
                "pitch": 43,
                "velocity": 32,
                "duration": 0.18409090909090864,
                "tempo": 120.0
            },
            {
                "start_time": 26.01590909090909,
                "end_time": 26.03181818181818,
                "pitch": 41,
                "velocity": 32,
                "duration": 0.01590909090909065,
                "tempo": 120.0
            },
            {
                "start_time": 26.03181818181818,
                "end_time": 26.047727272727272,
                "pitch": 2,
                "velocity": 32,
                "duration": 0.01590909090909065,
                "tempo": 120.0
            },
            {
                "start_time": 26.047727272727272,
                "end_time": 26.229545454545452,
                "pitch": 41,
                "velocity": 32,
                "duration": 0.18181818181817988,
                "tempo": 120.0
            },
            {
                "start_time": 26.943181818181817,
                "end_time": 26.959090909090907,
                "pitch": 53,
                "velocity": 32,
                "duration": 0.01590909090909065,
                "tempo": 120.0
            },
            {
                "start_time": 26.959090909090907,
                "end_time": 26.974999999999998,
                "pitch": 15,
                "velocity": 32,
                "duration": 0.01590909090909065,
                "tempo": 120.0
            },
            {
                "start_time": 26.974999999999998,
                "end_time": 27.15681818181818,
                "pitch": 53,
                "velocity": 32,
                "duration": 0.18181818181818343,
                "tempo": 120.0
            },
            {
                "start_time": 27.172727272727272,
                "end_time": 27.188636363636363,
                "pitch": 41,
                "velocity": 32,
                "duration": 0.01590909090909065,
                "tempo": 120.0
            },
            {
                "start_time": 27.188636363636363,
                "end_time": 27.204545454545453,
                "pitch": 2,
                "velocity": 32,
                "duration": 0.01590909090909065,
                "tempo": 120.0
            },
            {
                "start_time": 27.204545454545453,
                "end_time": 27.384090909090908,
                "pitch": 41,
                "velocity": 32,
                "duration": 0.17954545454545467,
                "tempo": 120.0
            },
            {
                "start_time": 27.870454545454542,
                "end_time": 27.886363636363637,
                "pitch": 41,
                "velocity": 32,
                "duration": 0.015909090909094203,
                "tempo": 120.0
            },
            {
                "start_time": 27.886363636363637,
                "end_time": 27.904545454545453,
                "pitch": 2,
                "velocity": 32,
                "duration": 0.018181818181815856,
                "tempo": 120.0
            },
            {
                "start_time": 27.904545454545453,
                "end_time": 28.08863636363636,
                "pitch": 41,
                "velocity": 32,
                "duration": 0.18409090909090864,
                "tempo": 120.0
            },
            {
                "start_time": 28.80909090909091,
                "end_time": 28.825,
                "pitch": 53,
                "velocity": 32,
                "duration": 0.01590909090909065,
                "tempo": 120.0
            },
            {
                "start_time": 28.825,
                "end_time": 28.84090909090909,
                "pitch": 15,
                "velocity": 32,
                "duration": 0.01590909090909065,
                "tempo": 120.0
            },
            {
                "start_time": 28.84090909090909,
                "end_time": 29.020454545454545,
                "pitch": 53,
                "velocity": 32,
                "duration": 0.17954545454545467,
                "tempo": 120.0
            },
            {
                "start_time": 29.036363636363635,
                "end_time": 29.054545454545455,
                "pitch": 41,
                "velocity": 32,
                "duration": 0.01818181818181941,
                "tempo": 120.0
            },
            {
                "start_time": 29.054545454545455,
                "end_time": 29.070454545454545,
                "pitch": 2,
                "velocity": 32,
                "duration": 0.01590909090909065,
                "tempo": 120.0
            },
            {
                "start_time": 29.070454545454545,
                "end_time": 29.25,
                "pitch": 41,
                "velocity": 32,
                "duration": 0.17954545454545467,
                "tempo": 120.0
            },
            {
                "start_time": 29.736363636363635,
                "end_time": 29.752272727272725,
                "pitch": 43,
                "velocity": 32,
                "duration": 0.01590909090909065,
                "tempo": 120.0
            },
            {
                "start_time": 29.752272727272725,
                "end_time": 29.768181818181816,
                "pitch": 48,
                "velocity": 32,
                "duration": 0.01590909090909065,
                "tempo": 120.0
            },
            {
                "start_time": 29.768181818181816,
                "end_time": 29.94772727272727,
                "pitch": 43,
                "velocity": 32,
                "duration": 0.17954545454545467,
                "tempo": 120.0
            },
            {
                "start_time": 30.66363636363636,
                "end_time": 30.679545454545455,
                "pitch": 55,
                "velocity": 32,
                "duration": 0.015909090909094203,
                "tempo": 120.0
            },
            {
                "start_time": 30.679545454545455,
                "end_time": 30.695454545454545,
                "pitch": 60,
                "velocity": 32,
                "duration": 0.01590909090909065,
                "tempo": 120.0
            },
            {
                "start_time": 30.695454545454545,
                "end_time": 30.879545454545454,
                "pitch": 55,
                "velocity": 32,
                "duration": 0.18409090909090864,
                "tempo": 120.0
            },
            {
                "start_time": 30.89772727272727,
                "end_time": 30.91363636363636,
                "pitch": 43,
                "velocity": 32,
                "duration": 0.01590909090909065,
                "tempo": 120.0
            },
            {
                "start_time": 30.91363636363636,
                "end_time": 30.93181818181818,
                "pitch": 48,
                "velocity": 32,
                "duration": 0.01818181818181941,
                "tempo": 120.0
            },
            {
                "start_time": 30.93181818181818,
                "end_time": 31.11590909090909,
                "pitch": 43,
                "velocity": 32,
                "duration": 0.18409090909090864,
                "tempo": 120.0
            },
            {
                "start_time": 31.599999999999998,
                "end_time": 31.618181818181817,
                "pitch": 41,
                "velocity": 32,
                "duration": 0.01818181818181941,
                "tempo": 120.0
            },
            {
                "start_time": 31.618181818181817,
                "end_time": 31.634090909090908,
                "pitch": 2,
                "velocity": 32,
                "duration": 0.01590909090909065,
                "tempo": 120.0
            },
            {
                "start_time": 31.634090909090908,
                "end_time": 31.813636363636363,
                "pitch": 41,
                "velocity": 32,
                "duration": 0.17954545454545467,
                "tempo": 120.0
            },
            {
                "start_time": 32.527272727272724,
                "end_time": 32.543181818181814,
                "pitch": 53,
                "velocity": 32,
                "duration": 0.01590909090909065,
                "tempo": 120.0
            },
            {
                "start_time": 32.543181818181814,
                "end_time": 32.56136363636364,
                "pitch": 15,
                "velocity": 32,
                "duration": 0.018181818181822962,
                "tempo": 120.0
            },
            {
                "start_time": 32.56136363636364,
                "end_time": 32.74090909090909,
                "pitch": 53,
                "velocity": 32,
                "duration": 0.17954545454545467,
                "tempo": 120.0
            },
            {
                "start_time": 32.75681818181818,
                "end_time": 32.77272727272727,
                "pitch": 41,
                "velocity": 32,
                "duration": 0.01590909090909065,
                "tempo": 120.0
            },
            {
                "start_time": 32.77272727272727,
                "end_time": 32.788636363636364,
                "pitch": 2,
                "velocity": 32,
                "duration": 0.01590909090909065,
                "tempo": 120.0
            },
            {
                "start_time": 32.788636363636364,
                "end_time": 32.970454545454544,
                "pitch": 41,
                "velocity": 32,
                "duration": 0.18181818181817988,
                "tempo": 120.0
            },
            {
                "start_time": 33.45454545454545,
                "end_time": 33.47272727272727,
                "pitch": 43,
                "velocity": 32,
                "duration": 0.018181818181815856,
                "tempo": 120.0
            },
            {
                "start_time": 33.47272727272727,
                "end_time": 33.48863636363636,
                "pitch": 48,
                "velocity": 32,
                "duration": 0.01590909090909065,
                "tempo": 120.0
            },
            {
                "start_time": 33.48863636363636,
                "end_time": 33.67272727272727,
                "pitch": 43,
                "velocity": 32,
                "duration": 0.1840909090909122,
                "tempo": 120.0
            },
            {
                "start_time": 34.393181818181816,
                "end_time": 34.40909090909091,
                "pitch": 55,
                "velocity": 32,
                "duration": 0.01590909090909065,
                "tempo": 120.0
            },
            {
                "start_time": 34.40909090909091,
                "end_time": 34.425,
                "pitch": 60,
                "velocity": 32,
                "duration": 0.01590909090909065,
                "tempo": 120.0
            },
            {
                "start_time": 34.425,
                "end_time": 34.60681818181818,
                "pitch": 55,
                "velocity": 32,
                "duration": 0.18181818181817988,
                "tempo": 120.0
            },
            {
                "start_time": 34.62272727272727,
                "end_time": 34.638636363636365,
                "pitch": 43,
                "velocity": 32,
                "duration": 0.015909090909097756,
                "tempo": 120.0
            },
            {
                "start_time": 34.638636363636365,
                "end_time": 34.654545454545456,
                "pitch": 48,
                "velocity": 32,
                "duration": 0.01590909090909065,
                "tempo": 120.0
            },
            {
                "start_time": 34.654545454545456,
                "end_time": 34.83409090909091,
                "pitch": 43,
                "velocity": 32,
                "duration": 0.17954545454545467,
                "tempo": 120.0
            },
            {
                "start_time": 35.320454545454545,
                "end_time": 35.336363636363636,
                "pitch": 48,
                "velocity": 32,
                "duration": 0.01590909090909065,
                "tempo": 120.0
            },
            {
                "start_time": 35.336363636363636,
                "end_time": 35.35227272727273,
                "pitch": 52,
                "velocity": 32,
                "duration": 0.01590909090909065,
                "tempo": 120.0
            },
            {
                "start_time": 35.35227272727273,
                "end_time": 35.53181818181818,
                "pitch": 48,
                "velocity": 32,
                "duration": 0.17954545454545467,
                "tempo": 120.0
            },
            {
                "start_time": 36.24772727272727,
                "end_time": 36.26363636363636,
                "pitch": 60,
                "velocity": 32,
                "duration": 0.01590909090909065,
                "tempo": 120.0
            },
            {
                "start_time": 36.26363636363636,
                "end_time": 36.28181818181818,
                "pitch": 64,
                "velocity": 32,
                "duration": 0.018181818181822962,
                "tempo": 120.0
            },
            {
                "start_time": 36.28181818181818,
                "end_time": 36.465909090909086,
                "pitch": 60,
                "velocity": 32,
                "duration": 0.18409090909090509,
                "tempo": 120.0
            },
            {
                "start_time": 36.48181818181818,
                "end_time": 36.49772727272727,
                "pitch": 48,
                "velocity": 32,
                "duration": 0.01590909090909065,
                "tempo": 120.0
            },
            {
                "start_time": 36.49772727272727,
                "end_time": 36.51590909090909,
                "pitch": 52,
                "velocity": 32,
                "duration": 0.018181818181822962,
                "tempo": 120.0
            },
            {
                "start_time": 36.51590909090909,
                "end_time": 36.699999999999996,
                "pitch": 48,
                "velocity": 32,
                "duration": 0.18409090909090509,
                "tempo": 120.0
            },
            {
                "start_time": 37.18636363636364,
                "end_time": 37.20227272727273,
                "pitch": 44,
                "velocity": 32,
                "duration": 0.01590909090909065,
                "tempo": 120.0
            },
            {
                "start_time": 37.20227272727273,
                "end_time": 37.21818181818182,
                "pitch": 48,
                "velocity": 32,
                "duration": 0.01590909090909065,
                "tempo": 120.0
            },
            {
                "start_time": 37.21818181818182,
                "end_time": 37.39772727272727,
                "pitch": 44,
                "velocity": 32,
                "duration": 0.17954545454545467,
                "tempo": 120.0
            },
            {
                "start_time": 38.111363636363635,
                "end_time": 38.12954545454545,
                "pitch": 56,
                "velocity": 32,
                "duration": 0.018181818181815856,
                "tempo": 120.0
            },
            {
                "start_time": 38.12954545454545,
                "end_time": 38.14545454545454,
                "pitch": 60,
                "velocity": 32,
                "duration": 0.01590909090909065,
                "tempo": 120.0
            },
            {
                "start_time": 38.14545454545454,
                "end_time": 38.324999999999996,
                "pitch": 56,
                "velocity": 32,
                "duration": 0.17954545454545467,
                "tempo": 120.0
            },
            {
                "start_time": 38.340909090909086,
                "end_time": 38.35681818181818,
                "pitch": 44,
                "velocity": 32,
                "duration": 0.01590909090909065,
                "tempo": 120.0
            },
            {
                "start_time": 38.35681818181818,
                "end_time": 38.375,
                "pitch": 48,
                "velocity": 32,
                "duration": 0.018181818181822962,
                "tempo": 120.0
            },
            {
                "start_time": 38.375,
                "end_time": 38.554545454545455,
                "pitch": 44,
                "velocity": 32,
                "duration": 0.17954545454545467,
                "tempo": 120.0
            },
            {
                "start_time": 39.05,
                "end_time": 39.06818181818181,
                "pitch": 43,
                "velocity": 32,
                "duration": 0.018181818181815856,
                "tempo": 120.0
            },
            {
                "start_time": 39.06818181818181,
                "end_time": 39.084090909090904,
                "pitch": 48,
                "velocity": 32,
                "duration": 0.01590909090909065,
                "tempo": 120.0
            },
            {
                "start_time": 39.084090909090904,
                "end_time": 39.26363636363636,
                "pitch": 43,
                "velocity": 32,
                "duration": 0.17954545454545467,
                "tempo": 120.0
            },
            {
                "start_time": 39.97727272727273,
                "end_time": 39.99318181818182,
                "pitch": 55,
                "velocity": 32,
                "duration": 0.01590909090909065,
                "tempo": 120.0
            },
            {
                "start_time": 39.99318181818182,
                "end_time": 40.01136363636363,
                "pitch": 60,
                "velocity": 32,
                "duration": 0.018181818181815856,
                "tempo": 120.0
            },
            {
                "start_time": 40.01136363636363,
                "end_time": 40.19090909090909,
                "pitch": 55,
                "velocity": 32,
                "duration": 0.17954545454545467,
                "tempo": 120.0
            },
            {
                "start_time": 40.20681818181818,
                "end_time": 40.22272727272727,
                "pitch": 43,
                "velocity": 32,
                "duration": 0.01590909090909065,
                "tempo": 120.0
            },
            {
                "start_time": 40.22272727272727,
                "end_time": 40.23863636363636,
                "pitch": 48,
                "velocity": 32,
                "duration": 0.01590909090909065,
                "tempo": 120.0
            },
            {
                "start_time": 40.23863636363636,
                "end_time": 40.42045454545455,
                "pitch": 43,
                "velocity": 32,
                "duration": 0.18181818181818699,
                "tempo": 120.0
            },
            {
                "start_time": 40.904545454545456,
                "end_time": 40.92045454545455,
                "pitch": 41,
                "velocity": 32,
                "duration": 0.01590909090909065,
                "tempo": 120.0
            },
            {
                "start_time": 40.92045454545455,
                "end_time": 40.93863636363636,
                "pitch": 2,
                "velocity": 32,
                "duration": 0.018181818181815856,
                "tempo": 120.0
            },
            {
                "start_time": 40.93863636363636,
                "end_time": 41.11818181818182,
                "pitch": 41,
                "velocity": 32,
                "duration": 0.17954545454545467,
                "tempo": 120.0
            },
            {
                "start_time": 41.83181818181818,
                "end_time": 41.85,
                "pitch": 53,
                "velocity": 32,
                "duration": 0.018181818181822962,
                "tempo": 120.0
            },
            {
                "start_time": 41.85,
                "end_time": 41.86590909090909,
                "pitch": 15,
                "velocity": 32,
                "duration": 0.01590909090909065,
                "tempo": 120.0
            },
            {
                "start_time": 41.86590909090909,
                "end_time": 42.05,
                "pitch": 53,
                "velocity": 32,
                "duration": 0.18409090909090509,
                "tempo": 120.0
            },
            {
                "start_time": 42.06590909090909,
                "end_time": 42.084090909090904,
                "pitch": 41,
                "velocity": 32,
                "duration": 0.018181818181815856,
                "tempo": 120.0
            },
            {
                "start_time": 42.084090909090904,
                "end_time": 42.1,
                "pitch": 2,
                "velocity": 32,
                "duration": 0.015909090909097756,
                "tempo": 120.0
            },
            {
                "start_time": 42.1,
                "end_time": 42.28409090909091,
                "pitch": 41,
                "velocity": 32,
                "duration": 0.18409090909090509,
                "tempo": 120.0
            },
            {
                "start_time": 42.77045454545454,
                "end_time": 42.78636363636363,
                "pitch": 43,
                "velocity": 32,
                "duration": 0.01590909090909065,
                "tempo": 120.0
            },
            {
                "start_time": 42.78636363636363,
                "end_time": 42.80227272727272,
                "pitch": 48,
                "velocity": 32,
                "duration": 0.01590909090909065,
                "tempo": 120.0
            },
            {
                "start_time": 42.80227272727272,
                "end_time": 42.98181818181818,
                "pitch": 43,
                "velocity": 32,
                "duration": 0.17954545454545467,
                "tempo": 120.0
            },
            {
                "start_time": 43.69772727272727,
                "end_time": 43.71363636363636,
                "pitch": 55,
                "velocity": 32,
                "duration": 0.01590909090909065,
                "tempo": 120.0
            },
            {
                "start_time": 43.71363636363636,
                "end_time": 43.72954545454545,
                "pitch": 60,
                "velocity": 32,
                "duration": 0.01590909090909065,
                "tempo": 120.0
            },
            {
                "start_time": 43.72954545454545,
                "end_time": 43.90909090909091,
                "pitch": 55,
                "velocity": 32,
                "duration": 0.17954545454545467,
                "tempo": 120.0
            },
            {
                "start_time": 43.92727272727272,
                "end_time": 43.94318181818181,
                "pitch": 43,
                "velocity": 32,
                "duration": 0.01590909090909065,
                "tempo": 120.0
            },
            {
                "start_time": 43.94318181818181,
                "end_time": 43.959090909090904,
                "pitch": 48,
                "velocity": 32,
                "duration": 0.01590909090909065,
                "tempo": 120.0
            },
            {
                "start_time": 43.959090909090904,
                "end_time": 44.13863636363636,
                "pitch": 43,
                "velocity": 32,
                "duration": 0.17954545454545467,
                "tempo": 120.0
            },
            {
                "start_time": 44.625,
                "end_time": 44.64090909090909,
                "pitch": 44,
                "velocity": 32,
                "duration": 0.01590909090909065,
                "tempo": 120.0
            },
            {
                "start_time": 44.64090909090909,
                "end_time": 44.65909090909091,
                "pitch": 48,
                "velocity": 32,
                "duration": 0.018181818181815856,
                "tempo": 120.0
            },
            {
                "start_time": 44.65909090909091,
                "end_time": 44.84318181818182,
                "pitch": 44,
                "velocity": 32,
                "duration": 0.1840909090909122,
                "tempo": 120.0
            },
            {
                "start_time": 45.56136363636364,
                "end_time": 45.57954545454545,
                "pitch": 56,
                "velocity": 32,
                "duration": 0.018181818181815856,
                "tempo": 120.0
            },
            {
                "start_time": 45.57954545454545,
                "end_time": 45.595454545454544,
                "pitch": 60,
                "velocity": 32,
                "duration": 0.01590909090909065,
                "tempo": 120.0
            },
            {
                "start_time": 45.595454545454544,
                "end_time": 45.775,
                "pitch": 56,
                "velocity": 32,
                "duration": 0.17954545454545467,
                "tempo": 120.0
            },
            {
                "start_time": 45.79090909090909,
                "end_time": 45.80681818181818,
                "pitch": 44,
                "velocity": 32,
                "duration": 0.01590909090909065,
                "tempo": 120.0
            },
            {
                "start_time": 45.80681818181818,
                "end_time": 45.824999999999996,
                "pitch": 48,
                "velocity": 32,
                "duration": 0.018181818181815856,
                "tempo": 120.0
            },
            {
                "start_time": 45.824999999999996,
                "end_time": 46.00454545454545,
                "pitch": 44,
                "velocity": 32,
                "duration": 0.17954545454545467,
                "tempo": 120.0
            },
            {
                "start_time": 46.48863636363636,
                "end_time": 46.50681818181818,
                "pitch": 43,
                "velocity": 32,
                "duration": 0.018181818181822962,
                "tempo": 120.0
            },
            {
                "start_time": 46.50681818181818,
                "end_time": 46.52272727272727,
                "pitch": 48,
                "velocity": 32,
                "duration": 0.01590909090909065,
                "tempo": 120.0
            },
            {
                "start_time": 46.52272727272727,
                "end_time": 46.70227272727273,
                "pitch": 43,
                "velocity": 32,
                "duration": 0.17954545454545467,
                "tempo": 120.0
            },
            {
                "start_time": 47.41590909090909,
                "end_time": 47.434090909090905,
                "pitch": 55,
                "velocity": 32,
                "duration": 0.018181818181815856,
                "tempo": 120.0
            },
            {
                "start_time": 47.434090909090905,
                "end_time": 47.449999999999996,
                "pitch": 60,
                "velocity": 32,
                "duration": 0.01590909090909065,
                "tempo": 120.0
            },
            {
                "start_time": 47.449999999999996,
                "end_time": 47.63409090909091,
                "pitch": 55,
                "velocity": 32,
                "duration": 0.1840909090909122,
                "tempo": 120.0
            },
            {
                "start_time": 47.652272727272724,
                "end_time": 47.668181818181814,
                "pitch": 43,
                "velocity": 32,
                "duration": 0.01590909090909065,
                "tempo": 120.0
            },
            {
                "start_time": 47.668181818181814,
                "end_time": 47.684090909090905,
                "pitch": 48,
                "velocity": 32,
                "duration": 0.01590909090909065,
                "tempo": 120.0
            },
            {
                "start_time": 47.684090909090905,
                "end_time": 47.86818181818182,
                "pitch": 43,
                "velocity": 32,
                "duration": 0.1840909090909122,
                "tempo": 120.0
            },
            {
                "start_time": 48.35454545454545,
                "end_time": 48.37045454545454,
                "pitch": 41,
                "velocity": 32,
                "duration": 0.01590909090909065,
                "tempo": 120.0
            },
            {
                "start_time": 48.37045454545454,
                "end_time": 48.38636363636363,
                "pitch": 2,
                "velocity": 32,
                "duration": 0.01590909090909065,
                "tempo": 120.0
            },
            {
                "start_time": 48.38636363636363,
                "end_time": 48.56818181818181,
                "pitch": 41,
                "velocity": 32,
                "duration": 0.18181818181817988,
                "tempo": 120.0
            },
            {
                "start_time": 49.28181818181818,
                "end_time": 49.29772727272727,
                "pitch": 53,
                "velocity": 32,
                "duration": 0.01590909090909065,
                "tempo": 120.0
            },
            {
                "start_time": 49.29772727272727,
                "end_time": 49.31363636363636,
                "pitch": 15,
                "velocity": 32,
                "duration": 0.01590909090909065,
                "tempo": 120.0
            },
            {
                "start_time": 49.31363636363636,
                "end_time": 49.49545454545454,
                "pitch": 53,
                "velocity": 32,
                "duration": 0.18181818181817988,
                "tempo": 120.0
            },
            {
                "start_time": 49.51136363636363,
                "end_time": 49.527272727272724,
                "pitch": 41,
                "velocity": 32,
                "duration": 0.01590909090909065,
                "tempo": 120.0
            },
            {
                "start_time": 49.527272727272724,
                "end_time": 49.543181818181814,
                "pitch": 2,
                "velocity": 32,
                "duration": 0.01590909090909065,
                "tempo": 120.0
            },
            {
                "start_time": 49.543181818181814,
                "end_time": 49.72272727272727,
                "pitch": 41,
                "velocity": 32,
                "duration": 0.17954545454545467,
                "tempo": 120.0
            },
            {
                "start_time": 50.209090909090904,
                "end_time": 50.224999999999994,
                "pitch": 43,
                "velocity": 32,
                "duration": 0.01590909090909065,
                "tempo": 120.0
            },
            {
                "start_time": 50.224999999999994,
                "end_time": 50.24318181818182,
                "pitch": 48,
                "velocity": 32,
                "duration": 0.018181818181822962,
                "tempo": 120.0
            },
            {
                "start_time": 50.24318181818182,
                "end_time": 50.42727272727272,
                "pitch": 43,
                "velocity": 32,
                "duration": 0.18409090909090509,
                "tempo": 120.0
            },
            {
                "start_time": 51.14772727272727,
                "end_time": 51.163636363636364,
                "pitch": 55,
                "velocity": 32,
                "duration": 0.01590909090909065,
                "tempo": 120.0
            },
            {
                "start_time": 51.163636363636364,
                "end_time": 51.179545454545455,
                "pitch": 60,
                "velocity": 32,
                "duration": 0.01590909090909065,
                "tempo": 120.0
            },
            {
                "start_time": 51.179545454545455,
                "end_time": 51.35909090909091,
                "pitch": 55,
                "velocity": 32,
                "duration": 0.17954545454545467,
                "tempo": 120.0
            },
            {
                "start_time": 51.377272727272725,
                "end_time": 51.393181818181816,
                "pitch": 43,
                "velocity": 32,
                "duration": 0.01590909090909065,
                "tempo": 120.0
            },
            {
                "start_time": 51.393181818181816,
                "end_time": 51.40909090909091,
                "pitch": 48,
                "velocity": 32,
                "duration": 0.01590909090909065,
                "tempo": 120.0
            },
            {
                "start_time": 51.40909090909091,
                "end_time": 51.58863636363636,
                "pitch": 43,
                "velocity": 32,
                "duration": 0.17954545454545467,
                "tempo": 120.0
            },
            {
                "start_time": 52.074999999999996,
                "end_time": 52.090909090909086,
                "pitch": 44,
                "velocity": 32,
                "duration": 0.01590909090909065,
                "tempo": 120.0
            },
            {
                "start_time": 52.090909090909086,
                "end_time": 52.10681818181818,
                "pitch": 48,
                "velocity": 32,
                "duration": 0.01590909090909065,
                "tempo": 120.0
            },
            {
                "start_time": 52.10681818181818,
                "end_time": 52.28636363636363,
                "pitch": 44,
                "velocity": 32,
                "duration": 0.17954545454545467,
                "tempo": 120.0
            },
            {
                "start_time": 53.002272727272725,
                "end_time": 53.018181818181816,
                "pitch": 56,
                "velocity": 32,
                "duration": 0.01590909090909065,
                "tempo": 120.0
            },
            {
                "start_time": 53.018181818181816,
                "end_time": 53.03409090909091,
                "pitch": 60,
                "velocity": 32,
                "duration": 0.01590909090909065,
                "tempo": 120.0
            },
            {
                "start_time": 53.03409090909091,
                "end_time": 53.21818181818182,
                "pitch": 56,
                "velocity": 32,
                "duration": 0.1840909090909122,
                "tempo": 120.0
            },
            {
                "start_time": 53.236363636363635,
                "end_time": 53.252272727272725,
                "pitch": 44,
                "velocity": 32,
                "duration": 0.01590909090909065,
                "tempo": 120.0
            },
            {
                "start_time": 53.252272727272725,
                "end_time": 53.27045454545454,
                "pitch": 48,
                "velocity": 32,
                "duration": 0.018181818181815856,
                "tempo": 120.0
            },
            {
                "start_time": 53.27045454545454,
                "end_time": 53.45454545454545,
                "pitch": 44,
                "velocity": 32,
                "duration": 0.1840909090909122,
                "tempo": 120.0
            },
            {
                "start_time": 53.93863636363636,
                "end_time": 53.95681818181818,
                "pitch": 43,
                "velocity": 32,
                "duration": 0.018181818181815856,
                "tempo": 120.0
            },
            {
                "start_time": 53.95681818181818,
                "end_time": 53.97272727272727,
                "pitch": 48,
                "velocity": 32,
                "duration": 0.01590909090909065,
                "tempo": 120.0
            },
            {
                "start_time": 53.97272727272727,
                "end_time": 54.152272727272724,
                "pitch": 43,
                "velocity": 32,
                "duration": 0.17954545454545467,
                "tempo": 120.0
            },
            {
                "start_time": 54.865909090909085,
                "end_time": 54.881818181818176,
                "pitch": 55,
                "velocity": 32,
                "duration": 0.01590909090909065,
                "tempo": 120.0
            },
            {
                "start_time": 54.881818181818176,
                "end_time": 54.9,
                "pitch": 60,
                "velocity": 32,
                "duration": 0.018181818181822962,
                "tempo": 120.0
            },
            {
                "start_time": 54.9,
                "end_time": 55.07954545454545,
                "pitch": 55,
                "velocity": 32,
                "duration": 0.17954545454545467,
                "tempo": 120.0
            },
            {
                "start_time": 55.095454545454544,
                "end_time": 55.111363636363635,
                "pitch": 43,
                "velocity": 32,
                "duration": 0.01590909090909065,
                "tempo": 120.0
            },
            {
                "start_time": 55.111363636363635,
                "end_time": 55.127272727272725,
                "pitch": 48,
                "velocity": 32,
                "duration": 0.01590909090909065,
                "tempo": 120.0
            },
            {
                "start_time": 55.127272727272725,
                "end_time": 55.309090909090905,
                "pitch": 43,
                "velocity": 32,
                "duration": 0.18181818181817988,
                "tempo": 120.0
            },
            {
                "start_time": 55.793181818181814,
                "end_time": 55.81136363636363,
                "pitch": 44,
                "velocity": 32,
                "duration": 0.018181818181815856,
                "tempo": 120.0
            },
            {
                "start_time": 55.81136363636363,
                "end_time": 55.82727272727273,
                "pitch": 48,
                "velocity": 32,
                "duration": 0.015909090909097756,
                "tempo": 120.0
            },
            {
                "start_time": 55.82727272727273,
                "end_time": 56.01136363636363,
                "pitch": 44,
                "velocity": 32,
                "duration": 0.18409090909090509,
                "tempo": 120.0
            },
            {
                "start_time": 56.73181818181818,
                "end_time": 56.74772727272727,
                "pitch": 56,
                "velocity": 32,
                "duration": 0.01590909090909065,
                "tempo": 120.0
            },
            {
                "start_time": 56.74772727272727,
                "end_time": 56.76363636363636,
                "pitch": 60,
                "velocity": 32,
                "duration": 0.01590909090909065,
                "tempo": 120.0
            },
            {
                "start_time": 56.76363636363636,
                "end_time": 56.945454545454545,
                "pitch": 56,
                "velocity": 32,
                "duration": 0.18181818181818699,
                "tempo": 120.0
            },
            {
                "start_time": 56.961363636363636,
                "end_time": 56.97727272727273,
                "pitch": 44,
                "velocity": 32,
                "duration": 0.01590909090909065,
                "tempo": 120.0
            },
            {
                "start_time": 56.97727272727273,
                "end_time": 56.99318181818182,
                "pitch": 48,
                "velocity": 32,
                "duration": 0.01590909090909065,
                "tempo": 120.0
            },
            {
                "start_time": 56.99318181818182,
                "end_time": 57.17272727272727,
                "pitch": 44,
                "velocity": 32,
                "duration": 0.17954545454545467,
                "tempo": 120.0
            },
            {
                "start_time": 57.65909090909091,
                "end_time": 57.675,
                "pitch": 43,
                "velocity": 32,
                "duration": 0.01590909090909065,
                "tempo": 120.0
            },
            {
                "start_time": 57.675,
                "end_time": 57.69090909090909,
                "pitch": 48,
                "velocity": 32,
                "duration": 0.01590909090909065,
                "tempo": 120.0
            },
            {
                "start_time": 57.69090909090909,
                "end_time": 57.87045454545454,
                "pitch": 43,
                "velocity": 32,
                "duration": 0.17954545454545467,
                "tempo": 120.0
            },
            {
                "start_time": 58.586363636363636,
                "end_time": 58.60227272727273,
                "pitch": 55,
                "velocity": 32,
                "duration": 0.01590909090909065,
                "tempo": 120.0
            },
            {
                "start_time": 58.60227272727273,
                "end_time": 58.62045454545454,
                "pitch": 60,
                "velocity": 32,
                "duration": 0.018181818181815856,
                "tempo": 120.0
            },
            {
                "start_time": 58.62045454545454,
                "end_time": 58.804545454545455,
                "pitch": 55,
                "velocity": 32,
                "duration": 0.1840909090909122,
                "tempo": 120.0
            },
            {
                "start_time": 58.820454545454545,
                "end_time": 58.836363636363636,
                "pitch": 43,
                "velocity": 32,
                "duration": 0.01590909090909065,
                "tempo": 120.0
            },
            {
                "start_time": 58.836363636363636,
                "end_time": 58.85454545454545,
                "pitch": 48,
                "velocity": 32,
                "duration": 0.018181818181815856,
                "tempo": 120.0
            },
            {
                "start_time": 58.85454545454545,
                "end_time": 59.038636363636364,
                "pitch": 43,
                "velocity": 32,
                "duration": 0.1840909090909122,
                "tempo": 120.0
            },
            {
                "start_time": 59.525,
                "end_time": 59.54090909090909,
                "pitch": 44,
                "velocity": 32,
                "duration": 0.01590909090909065,
                "tempo": 120.0
            },
            {
                "start_time": 59.54090909090909,
                "end_time": 59.55681818181818,
                "pitch": 48,
                "velocity": 32,
                "duration": 0.01590909090909065,
                "tempo": 120.0
            },
            {
                "start_time": 59.55681818181818,
                "end_time": 59.736363636363635,
                "pitch": 44,
                "velocity": 32,
                "duration": 0.17954545454545467,
                "tempo": 120.0
            },
            {
                "start_time": 60.45227272727272,
                "end_time": 60.46818181818182,
                "pitch": 56,
                "velocity": 32,
                "duration": 0.015909090909097756,
                "tempo": 120.0
            },
            {
                "start_time": 60.46818181818182,
                "end_time": 60.48409090909091,
                "pitch": 60,
                "velocity": 32,
                "duration": 0.01590909090909065,
                "tempo": 120.0
            },
            {
                "start_time": 60.48409090909091,
                "end_time": 60.663636363636364,
                "pitch": 56,
                "velocity": 32,
                "duration": 0.17954545454545467,
                "tempo": 120.0
            },
            {
                "start_time": 60.679545454545455,
                "end_time": 60.69772727272727,
                "pitch": 44,
                "velocity": 32,
                "duration": 0.018181818181815856,
                "tempo": 120.0
            },
            {
                "start_time": 60.69772727272727,
                "end_time": 60.71363636363636,
                "pitch": 48,
                "velocity": 32,
                "duration": 0.01590909090909065,
                "tempo": 120.0
            },
            {
                "start_time": 60.71363636363636,
                "end_time": 60.893181818181816,
                "pitch": 44,
                "velocity": 32,
                "duration": 0.17954545454545467,
                "tempo": 120.0
            },
            {
                "start_time": 61.37954545454545,
                "end_time": 61.39545454545454,
                "pitch": 43,
                "velocity": 32,
                "duration": 0.01590909090909065,
                "tempo": 120.0
            },
            {
                "start_time": 61.39545454545454,
                "end_time": 61.41136363636363,
                "pitch": 48,
                "velocity": 32,
                "duration": 0.01590909090909065,
                "tempo": 120.0
            },
            {
                "start_time": 61.41136363636363,
                "end_time": 61.595454545454544,
                "pitch": 43,
                "velocity": 32,
                "duration": 0.1840909090909122,
                "tempo": 120.0
            },
            {
                "start_time": 62.31590909090909,
                "end_time": 62.33181818181818,
                "pitch": 55,
                "velocity": 32,
                "duration": 0.01590909090909065,
                "tempo": 120.0
            },
            {
                "start_time": 62.33181818181818,
                "end_time": 62.349999999999994,
                "pitch": 60,
                "velocity": 32,
                "duration": 0.018181818181815856,
                "tempo": 120.0
            },
            {
                "start_time": 62.349999999999994,
                "end_time": 62.52954545454545,
                "pitch": 55,
                "velocity": 32,
                "duration": 0.17954545454545467,
                "tempo": 120.0
            },
            {
                "start_time": 62.54545454545454,
                "end_time": 62.56136363636363,
                "pitch": 43,
                "velocity": 32,
                "duration": 0.01590909090909065,
                "tempo": 120.0
            },
            {
                "start_time": 62.56136363636363,
                "end_time": 62.57727272727272,
                "pitch": 48,
                "velocity": 32,
                "duration": 0.01590909090909065,
                "tempo": 120.0
            },
            {
                "start_time": 62.57727272727272,
                "end_time": 62.75909090909091,
                "pitch": 43,
                "velocity": 32,
                "duration": 0.18181818181818699,
                "tempo": 120.0
            },
            {
                "start_time": 63.24318181818182,
                "end_time": 63.25909090909091,
                "pitch": 48,
                "velocity": 32,
                "duration": 0.01590909090909065,
                "tempo": 120.0
            },
            {
                "start_time": 63.25909090909091,
                "end_time": 63.277272727272724,
                "pitch": 52,
                "velocity": 32,
                "duration": 0.018181818181815856,
                "tempo": 120.0
            },
            {
                "start_time": 63.277272727272724,
                "end_time": 63.45681818181818,
                "pitch": 48,
                "velocity": 32,
                "duration": 0.17954545454545467,
                "tempo": 120.0
            },
            {
                "start_time": 64.17045454545455,
                "end_time": 64.18863636363636,
                "pitch": 60,
                "velocity": 32,
                "duration": 0.018181818181815856,
                "tempo": 120.0
            },
            {
                "start_time": 64.18863636363636,
                "end_time": 64.20454545454545,
                "pitch": 64,
                "velocity": 32,
                "duration": 0.01590909090909065,
                "tempo": 120.0
            },
            {
                "start_time": 64.20454545454545,
                "end_time": 64.38863636363637,
                "pitch": 60,
                "velocity": 32,
                "duration": 0.1840909090909122,
                "tempo": 120.0
            },
            {
                "start_time": 64.40454545454546,
                "end_time": 64.42272727272727,
                "pitch": 48,
                "velocity": 32,
                "duration": 0.018181818181815856,
                "tempo": 120.0
            },
            {
                "start_time": 64.42272727272727,
                "end_time": 64.43863636363636,
                "pitch": 52,
                "velocity": 32,
                "duration": 0.01590909090909065,
                "tempo": 120.0
            },
            {
                "start_time": 64.43863636363636,
                "end_time": 64.62272727272727,
                "pitch": 48,
                "velocity": 32,
                "duration": 0.1840909090909122,
                "tempo": 120.0
            },
            {
                "start_time": 65.10909090909091,
                "end_time": 65.125,
                "pitch": 48,
                "velocity": 32,
                "duration": 0.01590909090909065,
                "tempo": 120.0
            },
            {
                "start_time": 65.125,
                "end_time": 65.14090909090909,
                "pitch": 52,
                "velocity": 32,
                "duration": 0.01590909090909065,
                "tempo": 120.0
            },
            {
                "start_time": 65.14090909090909,
                "end_time": 65.32045454545454,
                "pitch": 48,
                "velocity": 32,
                "duration": 0.17954545454544757,
                "tempo": 120.0
            },
            {
                "start_time": 66.03636363636363,
                "end_time": 66.05227272727272,
                "pitch": 60,
                "velocity": 32,
                "duration": 0.01590909090909065,
                "tempo": 120.0
            },
            {
                "start_time": 66.05227272727272,
                "end_time": 66.06818181818181,
                "pitch": 64,
                "velocity": 32,
                "duration": 0.01590909090909065,
                "tempo": 120.0
            },
            {
                "start_time": 66.06818181818181,
                "end_time": 66.24772727272727,
                "pitch": 60,
                "velocity": 32,
                "duration": 0.17954545454546178,
                "tempo": 120.0
            },
            {
                "start_time": 66.26590909090909,
                "end_time": 66.28181818181818,
                "pitch": 48,
                "velocity": 32,
                "duration": 0.01590909090909065,
                "tempo": 120.0
            },
            {
                "start_time": 66.28181818181818,
                "end_time": 66.29772727272727,
                "pitch": 52,
                "velocity": 32,
                "duration": 0.01590909090909065,
                "tempo": 120.0
            },
            {
                "start_time": 66.29772727272727,
                "end_time": 66.47727272727272,
                "pitch": 48,
                "velocity": 32,
                "duration": 0.17954545454544757,
                "tempo": 120.0
            },
            {
                "start_time": 66.97045454545454,
                "end_time": 66.98636363636363,
                "pitch": 44,
                "velocity": 32,
                "duration": 0.01590909090909065,
                "tempo": 120.0
            },
            {
                "start_time": 66.98636363636363,
                "end_time": 67.00227272727273,
                "pitch": 48,
                "velocity": 32,
                "duration": 0.01590909090909065,
                "tempo": 120.0
            },
            {
                "start_time": 67.00227272727273,
                "end_time": 67.18409090909091,
                "pitch": 44,
                "velocity": 32,
                "duration": 0.18181818181818699,
                "tempo": 120.0
            },
            {
                "start_time": 67.89772727272727,
                "end_time": 67.91363636363636,
                "pitch": 56,
                "velocity": 32,
                "duration": 0.01590909090909065,
                "tempo": 120.0
            },
            {
                "start_time": 67.91363636363636,
                "end_time": 67.92954545454545,
                "pitch": 60,
                "velocity": 32,
                "duration": 0.01590909090909065,
                "tempo": 120.0
            },
            {
                "start_time": 67.92954545454545,
                "end_time": 68.10909090909091,
                "pitch": 56,
                "velocity": 32,
                "duration": 0.17954545454546178,
                "tempo": 120.0
            },
            {
                "start_time": 68.12727272727273,
                "end_time": 68.14318181818182,
                "pitch": 44,
                "velocity": 32,
                "duration": 0.01590909090909065,
                "tempo": 120.0
            },
            {
                "start_time": 68.14318181818182,
                "end_time": 68.1590909090909,
                "pitch": 48,
                "velocity": 32,
                "duration": 0.01590909090909065,
                "tempo": 120.0
            },
            {
                "start_time": 68.1590909090909,
                "end_time": 68.33863636363635,
                "pitch": 44,
                "velocity": 32,
                "duration": 0.17954545454544757,
                "tempo": 120.0
            },
            {
                "start_time": 68.825,
                "end_time": 68.8409090909091,
                "pitch": 43,
                "velocity": 32,
                "duration": 0.01590909090909065,
                "tempo": 120.0
            },
            {
                "start_time": 68.8409090909091,
                "end_time": 68.85681818181818,
                "pitch": 48,
                "velocity": 32,
                "duration": 0.01590909090909065,
                "tempo": 120.0
            },
            {
                "start_time": 68.85681818181818,
                "end_time": 69.03636363636363,
                "pitch": 43,
                "velocity": 32,
                "duration": 0.17954545454544757,
                "tempo": 120.0
            },
            {
                "start_time": 69.75227272727273,
                "end_time": 69.76818181818182,
                "pitch": 55,
                "velocity": 32,
                "duration": 0.01590909090909065,
                "tempo": 120.0
            },
            {
                "start_time": 69.76818181818182,
                "end_time": 69.7840909090909,
                "pitch": 60,
                "velocity": 32,
                "duration": 0.01590909090909065,
                "tempo": 120.0
            },
            {
                "start_time": 69.7840909090909,
                "end_time": 69.97045454545454,
                "pitch": 55,
                "velocity": 32,
                "duration": 0.1863636363636374,
                "tempo": 120.0
            },
            {
                "start_time": 69.98636363636363,
                "end_time": 70.00227272727273,
                "pitch": 43,
                "velocity": 32,
                "duration": 0.01590909090909065,
                "tempo": 120.0
            },
            {
                "start_time": 70.00227272727273,
                "end_time": 70.02045454545454,
                "pitch": 48,
                "velocity": 32,
                "duration": 0.018181818181815856,
                "tempo": 120.0
            },
            {
                "start_time": 70.02045454545454,
                "end_time": 70.20454545454545,
                "pitch": 43,
                "velocity": 32,
                "duration": 0.1840909090909122,
                "tempo": 120.0
            },
            {
                "start_time": 70.68863636363636,
                "end_time": 70.70681818181818,
                "pitch": 44,
                "velocity": 32,
                "duration": 0.018181818181815856,
                "tempo": 120.0
            },
            {
                "start_time": 70.70681818181818,
                "end_time": 70.72272727272727,
                "pitch": 48,
                "velocity": 32,
                "duration": 0.01590909090909065,
                "tempo": 120.0
            },
            {
                "start_time": 70.72272727272727,
                "end_time": 70.90227272727273,
                "pitch": 44,
                "velocity": 32,
                "duration": 0.17954545454546178,
                "tempo": 120.0
            },
            {
                "start_time": 71.61590909090908,
                "end_time": 71.6340909090909,
                "pitch": 56,
                "velocity": 32,
                "duration": 0.018181818181815856,
                "tempo": 120.0
            },
            {
                "start_time": 71.6340909090909,
                "end_time": 71.64999999999999,
                "pitch": 60,
                "velocity": 32,
                "duration": 0.01590909090909065,
                "tempo": 120.0
            },
            {
                "start_time": 71.64999999999999,
                "end_time": 71.82954545454545,
                "pitch": 56,
                "velocity": 32,
                "duration": 0.17954545454546178,
                "tempo": 120.0
            },
            {
                "start_time": 71.84545454545454,
                "end_time": 71.86136363636363,
                "pitch": 44,
                "velocity": 32,
                "duration": 0.01590909090909065,
                "tempo": 120.0
            },
            {
                "start_time": 71.86136363636363,
                "end_time": 71.87954545454545,
                "pitch": 48,
                "velocity": 32,
                "duration": 0.018181818181815856,
                "tempo": 120.0
            },
            {
                "start_time": 71.87954545454545,
                "end_time": 72.05909090909091,
                "pitch": 44,
                "velocity": 32,
                "duration": 0.17954545454546178,
                "tempo": 120.0
            },
            {
                "start_time": 72.54318181818182,
                "end_time": 72.56136363636364,
                "pitch": 43,
                "velocity": 32,
                "duration": 0.018181818181815856,
                "tempo": 120.0
            },
            {
                "start_time": 72.56136363636364,
                "end_time": 72.57727272727273,
                "pitch": 48,
                "velocity": 32,
                "duration": 0.01590909090909065,
                "tempo": 120.0
            },
            {
                "start_time": 72.57727272727273,
                "end_time": 72.76136363636363,
                "pitch": 43,
                "velocity": 32,
                "duration": 0.18409090909089798,
                "tempo": 120.0
            },
            {
                "start_time": 73.48181818181818,
                "end_time": 73.49772727272727,
                "pitch": 55,
                "velocity": 32,
                "duration": 0.01590909090909065,
                "tempo": 120.0
            },
            {
                "start_time": 73.49772727272727,
                "end_time": 73.51363636363637,
                "pitch": 60,
                "velocity": 32,
                "duration": 0.01590909090909065,
                "tempo": 120.0
            },
            {
                "start_time": 73.51363636363637,
                "end_time": 73.69545454545454,
                "pitch": 55,
                "velocity": 32,
                "duration": 0.18181818181817277,
                "tempo": 120.0
            },
            {
                "start_time": 73.71136363636363,
                "end_time": 73.72727272727272,
                "pitch": 43,
                "velocity": 32,
                "duration": 0.01590909090909065,
                "tempo": 120.0
            },
            {
                "start_time": 73.72727272727272,
                "end_time": 73.74318181818181,
                "pitch": 48,
                "velocity": 32,
                "duration": 0.01590909090909065,
                "tempo": 120.0
            },
            {
                "start_time": 73.74318181818181,
                "end_time": 73.92272727272727,
                "pitch": 43,
                "velocity": 32,
                "duration": 0.17954545454546178,
                "tempo": 120.0
            },
            {
                "start_time": 74.4090909090909,
                "end_time": 74.425,
                "pitch": 44,
                "velocity": 32,
                "duration": 0.01590909090909065,
                "tempo": 120.0
            },
            {
                "start_time": 74.425,
                "end_time": 74.44318181818181,
                "pitch": 48,
                "velocity": 32,
                "duration": 0.018181818181815856,
                "tempo": 120.0
            },
            {
                "start_time": 74.44318181818181,
                "end_time": 74.62727272727273,
                "pitch": 44,
                "velocity": 32,
                "duration": 0.1840909090909122,
                "tempo": 120.0
            },
            {
                "start_time": 75.33636363636363,
                "end_time": 75.35227272727272,
                "pitch": 56,
                "velocity": 32,
                "duration": 0.01590909090909065,
                "tempo": 120.0
            },
            {
                "start_time": 75.35227272727272,
                "end_time": 75.37045454545454,
                "pitch": 60,
                "velocity": 32,
                "duration": 0.018181818181815856,
                "tempo": 120.0
            },
            {
                "start_time": 75.37045454545454,
                "end_time": 75.55454545454545,
                "pitch": 56,
                "velocity": 32,
                "duration": 0.1840909090909122,
                "tempo": 120.0
            },
            {
                "start_time": 75.57045454545454,
                "end_time": 75.58863636363635,
                "pitch": 44,
                "velocity": 32,
                "duration": 0.018181818181815856,
                "tempo": 120.0
            },
            {
                "start_time": 75.58863636363635,
                "end_time": 75.60454545454544,
                "pitch": 48,
                "velocity": 32,
                "duration": 0.01590909090909065,
                "tempo": 120.0
            },
            {
                "start_time": 75.60454545454544,
                "end_time": 75.78863636363636,
                "pitch": 44,
                "velocity": 32,
                "duration": 0.1840909090909122,
                "tempo": 120.0
            },
            {
                "start_time": 76.27499999999999,
                "end_time": 76.29090909090908,
                "pitch": 43,
                "velocity": 32,
                "duration": 0.01590909090909065,
                "tempo": 120.0
            },
            {
                "start_time": 76.29090909090908,
                "end_time": 76.30681818181817,
                "pitch": 48,
                "velocity": 32,
                "duration": 0.01590909090909065,
                "tempo": 120.0
            },
            {
                "start_time": 76.30681818181817,
                "end_time": 76.48636363636363,
                "pitch": 43,
                "velocity": 32,
                "duration": 0.17954545454546178,
                "tempo": 120.0
            },
            {
                "start_time": 77.20227272727273,
                "end_time": 77.21818181818182,
                "pitch": 55,
                "velocity": 32,
                "duration": 0.01590909090909065,
                "tempo": 120.0
            },
            {
                "start_time": 77.21818181818182,
                "end_time": 77.23409090909091,
                "pitch": 60,
                "velocity": 32,
                "duration": 0.01590909090909065,
                "tempo": 120.0
            },
            {
                "start_time": 77.23409090909091,
                "end_time": 77.41363636363636,
                "pitch": 55,
                "velocity": 32,
                "duration": 0.17954545454544757,
                "tempo": 120.0
            },
            {
                "start_time": 77.42954545454545,
                "end_time": 77.44772727272726,
                "pitch": 43,
                "velocity": 32,
                "duration": 0.018181818181815856,
                "tempo": 120.0
            },
            {
                "start_time": 77.44772727272726,
                "end_time": 77.46363636363635,
                "pitch": 48,
                "velocity": 32,
                "duration": 0.01590909090909065,
                "tempo": 120.0
            },
            {
                "start_time": 77.46363636363635,
                "end_time": 77.64318181818182,
                "pitch": 43,
                "velocity": 32,
                "duration": 0.17954545454546178,
                "tempo": 120.0
            },
            {
                "start_time": 78.12954545454545,
                "end_time": 78.14545454545454,
                "pitch": 48,
                "velocity": 32,
                "duration": 0.01590909090909065,
                "tempo": 120.0
            },
            {
                "start_time": 78.14545454545454,
                "end_time": 78.16136363636363,
                "pitch": 52,
                "velocity": 32,
                "duration": 0.01590909090909065,
                "tempo": 120.0
            },
            {
                "start_time": 78.16136363636363,
                "end_time": 78.34545454545454,
                "pitch": 48,
                "velocity": 32,
                "duration": 0.1840909090909122,
                "tempo": 120.0
            },
            {
                "start_time": 79.06590909090909,
                "end_time": 79.0840909090909,
                "pitch": 60,
                "velocity": 32,
                "duration": 0.018181818181815856,
                "tempo": 120.0
            },
            {
                "start_time": 79.0840909090909,
                "end_time": 79.1,
                "pitch": 64,
                "velocity": 32,
                "duration": 0.01590909090909065,
                "tempo": 120.0
            },
            {
                "start_time": 79.1,
                "end_time": 79.27954545454546,
                "pitch": 60,
                "velocity": 32,
                "duration": 0.17954545454546178,
                "tempo": 120.0
            },
            {
                "start_time": 79.29545454545455,
                "end_time": 79.31136363636364,
                "pitch": 48,
                "velocity": 32,
                "duration": 0.01590909090909065,
                "tempo": 120.0
            },
            {
                "start_time": 79.31136363636364,
                "end_time": 79.32954545454545,
                "pitch": 52,
                "velocity": 32,
                "duration": 0.018181818181815856,
                "tempo": 120.0
            },
            {
                "start_time": 79.32954545454545,
                "end_time": 79.5090909090909,
                "pitch": 48,
                "velocity": 32,
                "duration": 0.17954545454544757,
                "tempo": 120.0
            },
            {
                "start_time": 79.99318181818181,
                "end_time": 80.0090909090909,
                "pitch": 48,
                "velocity": 32,
                "duration": 0.01590909090909065,
                "tempo": 120.0
            },
            {
                "start_time": 80.0090909090909,
                "end_time": 80.02727272727272,
                "pitch": 52,
                "velocity": 32,
                "duration": 0.018181818181815856,
                "tempo": 120.0
            },
            {
                "start_time": 80.02727272727272,
                "end_time": 80.20681818181818,
                "pitch": 48,
                "velocity": 32,
                "duration": 0.17954545454546178,
                "tempo": 120.0
            },
            {
                "start_time": 80.92045454545455,
                "end_time": 80.93863636363636,
                "pitch": 60,
                "velocity": 32,
                "duration": 0.018181818181815856,
                "tempo": 120.0
            },
            {
                "start_time": 80.93863636363636,
                "end_time": 80.95454545454545,
                "pitch": 64,
                "velocity": 32,
                "duration": 0.01590909090909065,
                "tempo": 120.0
            },
            {
                "start_time": 80.95454545454545,
                "end_time": 81.13863636363637,
                "pitch": 60,
                "velocity": 32,
                "duration": 0.1840909090909122,
                "tempo": 120.0
            },
            {
                "start_time": 81.15454545454546,
                "end_time": 81.17272727272727,
                "pitch": 48,
                "velocity": 32,
                "duration": 0.018181818181815856,
                "tempo": 120.0
            },
            {
                "start_time": 81.17272727272727,
                "end_time": 81.18863636363636,
                "pitch": 52,
                "velocity": 32,
                "duration": 0.01590909090909065,
                "tempo": 120.0
            },
            {
                "start_time": 81.18863636363636,
                "end_time": 81.37272727272727,
                "pitch": 48,
                "velocity": 32,
                "duration": 0.1840909090909122,
                "tempo": 120.0
            },
            {
                "start_time": 81.85909090909091,
                "end_time": 81.875,
                "pitch": 43,
                "velocity": 32,
                "duration": 0.01590909090909065,
                "tempo": 120.0
            },
            {
                "start_time": 81.875,
                "end_time": 81.89090909090909,
                "pitch": 48,
                "velocity": 32,
                "duration": 0.01590909090909065,
                "tempo": 120.0
            },
            {
                "start_time": 81.89090909090909,
                "end_time": 82.07272727272726,
                "pitch": 43,
                "velocity": 32,
                "duration": 0.18181818181817277,
                "tempo": 120.0
            },
            {
                "start_time": 82.78636363636363,
                "end_time": 82.80227272727272,
                "pitch": 55,
                "velocity": 32,
                "duration": 0.01590909090909065,
                "tempo": 120.0
            },
            {
                "start_time": 82.80227272727272,
                "end_time": 82.81818181818181,
                "pitch": 60,
                "velocity": 32,
                "duration": 0.01590909090909065,
                "tempo": 120.0
            },
            {
                "start_time": 82.81818181818181,
                "end_time": 82.99772727272727,
                "pitch": 55,
                "velocity": 32,
                "duration": 0.17954545454546178,
                "tempo": 120.0
            },
            {
                "start_time": 83.01590909090909,
                "end_time": 83.03181818181818,
                "pitch": 43,
                "velocity": 32,
                "duration": 0.01590909090909065,
                "tempo": 120.0
            },
            {
                "start_time": 83.03181818181818,
                "end_time": 83.04772727272727,
                "pitch": 48,
                "velocity": 32,
                "duration": 0.01590909090909065,
                "tempo": 120.0
            },
            {
                "start_time": 83.04772727272727,
                "end_time": 83.22727272727272,
                "pitch": 43,
                "velocity": 32,
                "duration": 0.17954545454544757,
                "tempo": 120.0
            },
            {
                "start_time": 83.71363636363635,
                "end_time": 83.72954545454544,
                "pitch": 44,
                "velocity": 32,
                "duration": 0.01590909090909065,
                "tempo": 120.0
            },
            {
                "start_time": 83.72954545454544,
                "end_time": 83.74772727272727,
                "pitch": 48,
                "velocity": 32,
                "duration": 0.018181818181830067,
                "tempo": 120.0
            },
            {
                "start_time": 83.74772727272727,
                "end_time": 83.93181818181817,
                "pitch": 44,
                "velocity": 32,
                "duration": 0.18409090909089798,
                "tempo": 120.0
            },
            {
                "start_time": 84.65227272727272,
                "end_time": 84.66818181818181,
                "pitch": 56,
                "velocity": 32,
                "duration": 0.01590909090909065,
                "tempo": 120.0
            },
            {
                "start_time": 84.66818181818181,
                "end_time": 84.6840909090909,
                "pitch": 60,
                "velocity": 32,
                "duration": 0.01590909090909065,
                "tempo": 120.0
            },
            {
                "start_time": 84.6840909090909,
                "end_time": 84.86363636363636,
                "pitch": 56,
                "velocity": 32,
                "duration": 0.17954545454546178,
                "tempo": 120.0
            },
            {
                "start_time": 84.87954545454545,
                "end_time": 84.89772727272727,
                "pitch": 44,
                "velocity": 32,
                "duration": 0.018181818181815856,
                "tempo": 120.0
            },
            {
                "start_time": 84.89772727272727,
                "end_time": 84.91363636363636,
                "pitch": 48,
                "velocity": 32,
                "duration": 0.01590909090909065,
                "tempo": 120.0
            },
            {
                "start_time": 84.91363636363636,
                "end_time": 85.09318181818182,
                "pitch": 44,
                "velocity": 32,
                "duration": 0.17954545454546178,
                "tempo": 120.0
            },
            {
                "start_time": 85.57954545454545,
                "end_time": 85.59545454545454,
                "pitch": 46,
                "velocity": 32,
                "duration": 0.01590909090909065,
                "tempo": 120.0
            },
            {
                "start_time": 85.59545454545454,
                "end_time": 85.61136363636363,
                "pitch": 50,
                "velocity": 32,
                "duration": 0.01590909090909065,
                "tempo": 120.0
            },
            {
                "start_time": 85.61136363636363,
                "end_time": 85.79090909090908,
                "pitch": 46,
                "velocity": 32,
                "duration": 0.17954545454544757,
                "tempo": 120.0
            },
            {
                "start_time": 86.50681818181818,
                "end_time": 86.52272727272727,
                "pitch": 58,
                "velocity": 32,
                "duration": 0.01590909090909065,
                "tempo": 120.0
            },
            {
                "start_time": 86.52272727272727,
                "end_time": 86.53863636363636,
                "pitch": 62,
                "velocity": 32,
                "duration": 0.01590909090909065,
                "tempo": 120.0
            },
            {
                "start_time": 86.53863636363636,
                "end_time": 86.72272727272727,
                "pitch": 58,
                "velocity": 32,
                "duration": 0.1840909090909122,
                "tempo": 120.0
            },
            {
                "start_time": 86.74090909090908,
                "end_time": 86.75681818181818,
                "pitch": 46,
                "velocity": 32,
                "duration": 0.01590909090909065,
                "tempo": 120.0
            },
            {
                "start_time": 86.75681818181818,
                "end_time": 86.77272727272727,
                "pitch": 50,
                "velocity": 32,
                "duration": 0.01590909090909065,
                "tempo": 120.0
            },
            {
                "start_time": 86.77272727272727,
                "end_time": 86.9590909090909,
                "pitch": 46,
                "velocity": 32,
                "duration": 0.1863636363636374,
                "tempo": 120.0
            },
            {
                "start_time": 87.44318181818181,
                "end_time": 87.4590909090909,
                "pitch": 48,
                "velocity": 32,
                "duration": 0.01590909090909065,
                "tempo": 120.0
            },
            {
                "start_time": 87.4590909090909,
                "end_time": 87.47727272727272,
                "pitch": 52,
                "velocity": 32,
                "duration": 0.018181818181815856,
                "tempo": 120.0
            },
            {
                "start_time": 87.47727272727272,
                "end_time": 87.65681818181818,
                "pitch": 48,
                "velocity": 32,
                "duration": 0.17954545454546178,
                "tempo": 120.0
            },
            {
                "start_time": 88.37045454545454,
                "end_time": 88.38636363636363,
                "pitch": 60,
                "velocity": 32,
                "duration": 0.01590909090909065,
                "tempo": 120.0
            },
            {
                "start_time": 88.38636363636363,
                "end_time": 88.40454545454546,
                "pitch": 64,
                "velocity": 32,
                "duration": 0.018181818181830067,
                "tempo": 120.0
            },
            {
                "start_time": 88.40454545454546,
                "end_time": 88.5840909090909,
                "pitch": 60,
                "velocity": 32,
                "duration": 0.17954545454544757,
                "tempo": 120.0
            },
            {
                "start_time": 88.6,
                "end_time": 88.61590909090908,
                "pitch": 48,
                "velocity": 32,
                "duration": 0.01590909090909065,
                "tempo": 120.0
            },
            {
                "start_time": 88.61590909090908,
                "end_time": 88.63181818181818,
                "pitch": 52,
                "velocity": 32,
                "duration": 0.01590909090909065,
                "tempo": 120.0
            },
            {
                "start_time": 88.63181818181818,
                "end_time": 88.81363636363636,
                "pitch": 48,
                "velocity": 32,
                "duration": 0.18181818181818699,
                "tempo": 120.0
            },
            {
                "start_time": 89.3090909090909,
                "end_time": 89.32499999999999,
                "pitch": 43,
                "velocity": 32,
                "duration": 0.01590909090909065,
                "tempo": 120.0
            },
            {
                "start_time": 89.32499999999999,
                "end_time": 89.3409090909091,
                "pitch": 48,
                "velocity": 32,
                "duration": 0.01590909090910486,
                "tempo": 120.0
            },
            {
                "start_time": 89.3409090909091,
                "end_time": 89.52272727272727,
                "pitch": 43,
                "velocity": 32,
                "duration": 0.18181818181817277,
                "tempo": 120.0
            },
            {
                "start_time": 90.23636363636363,
                "end_time": 90.25227272727273,
                "pitch": 55,
                "velocity": 32,
                "duration": 0.01590909090909065,
                "tempo": 120.0
            },
            {
                "start_time": 90.25227272727273,
                "end_time": 90.26818181818182,
                "pitch": 60,
                "velocity": 32,
                "duration": 0.01590909090909065,
                "tempo": 120.0
            },
            {
                "start_time": 90.26818181818182,
                "end_time": 90.44772727272726,
                "pitch": 55,
                "velocity": 32,
                "duration": 0.17954545454544757,
                "tempo": 120.0
            },
            {
                "start_time": 90.4659090909091,
                "end_time": 90.48181818181818,
                "pitch": 43,
                "velocity": 32,
                "duration": 0.01590909090909065,
                "tempo": 120.0
            },
            {
                "start_time": 90.48181818181818,
                "end_time": 90.49772727272727,
                "pitch": 48,
                "velocity": 32,
                "duration": 0.01590909090909065,
                "tempo": 120.0
            },
            {
                "start_time": 90.49772727272727,
                "end_time": 90.67727272727272,
                "pitch": 43,
                "velocity": 32,
                "duration": 0.17954545454544757,
                "tempo": 120.0
            },
            {
                "start_time": 91.16363636363636,
                "end_time": 91.17954545454545,
                "pitch": 44,
                "velocity": 32,
                "duration": 0.01590909090909065,
                "tempo": 120.0
            },
            {
                "start_time": 91.17954545454545,
                "end_time": 91.19545454545454,
                "pitch": 48,
                "velocity": 32,
                "duration": 0.01590909090909065,
                "tempo": 120.0
            },
            {
                "start_time": 91.19545454545454,
                "end_time": 91.375,
                "pitch": 44,
                "velocity": 32,
                "duration": 0.17954545454546178,
                "tempo": 120.0
            },
            {
                "start_time": 92.0909090909091,
                "end_time": 92.10681818181818,
                "pitch": 56,
                "velocity": 32,
                "duration": 0.01590909090909065,
                "tempo": 120.0
            },
            {
                "start_time": 92.10681818181818,
                "end_time": 92.125,
                "pitch": 60,
                "velocity": 32,
                "duration": 0.018181818181815856,
                "tempo": 120.0
            },
            {
                "start_time": 92.125,
                "end_time": 92.3090909090909,
                "pitch": 56,
                "velocity": 32,
                "duration": 0.18409090909089798,
                "tempo": 120.0
            },
            {
                "start_time": 92.32499999999999,
                "end_time": 92.3409090909091,
                "pitch": 44,
                "velocity": 32,
                "duration": 0.01590909090910486,
                "tempo": 120.0
            },
            {
                "start_time": 92.3409090909091,
                "end_time": 92.35909090909091,
                "pitch": 48,
                "velocity": 32,
                "duration": 0.018181818181815856,
                "tempo": 120.0
            },
            {
                "start_time": 92.35909090909091,
                "end_time": 92.54318181818181,
                "pitch": 44,
                "velocity": 32,
                "duration": 0.18409090909089798,
                "tempo": 120.0
            },
            {
                "start_time": 93.02727272727272,
                "end_time": 93.04545454545455,
                "pitch": 46,
                "velocity": 32,
                "duration": 0.018181818181830067,
                "tempo": 120.0
            },
            {
                "start_time": 93.04545454545455,
                "end_time": 93.06136363636364,
                "pitch": 50,
                "velocity": 32,
                "duration": 0.01590909090909065,
                "tempo": 120.0
            },
            {
                "start_time": 93.06136363636364,
                "end_time": 93.24090909090908,
                "pitch": 46,
                "velocity": 32,
                "duration": 0.17954545454544757,
                "tempo": 120.0
            },
            {
                "start_time": 93.95454545454545,
                "end_time": 93.97272727272727,
                "pitch": 58,
                "velocity": 32,
                "duration": 0.018181818181815856,
                "tempo": 120.0
            },
            {
                "start_time": 93.97272727272727,
                "end_time": 93.98863636363636,
                "pitch": 62,
                "velocity": 32,
                "duration": 0.01590909090909065,
                "tempo": 120.0
            },
            {
                "start_time": 93.98863636363636,
                "end_time": 94.16818181818181,
                "pitch": 58,
                "velocity": 32,
                "duration": 0.17954545454544757,
                "tempo": 120.0
            },
            {
                "start_time": 94.1840909090909,
                "end_time": 94.19999999999999,
                "pitch": 46,
                "velocity": 32,
                "duration": 0.01590909090909065,
                "tempo": 120.0
            },
            {
                "start_time": 94.19999999999999,
                "end_time": 94.21818181818182,
                "pitch": 50,
                "velocity": 32,
                "duration": 0.018181818181830067,
                "tempo": 120.0
            },
            {
                "start_time": 94.21818181818182,
                "end_time": 94.39772727272727,
                "pitch": 46,
                "velocity": 32,
                "duration": 0.17954545454544757,
                "tempo": 120.0
            },
            {
                "start_time": 94.88181818181818,
                "end_time": 94.89999999999999,
                "pitch": 48,
                "velocity": 32,
                "duration": 0.018181818181815856,
                "tempo": 120.0
            },
            {
                "start_time": 94.89999999999999,
                "end_time": 94.91590909090908,
                "pitch": 52,
                "velocity": 32,
                "duration": 0.01590909090909065,
                "tempo": 120.0
            },
            {
                "start_time": 94.91590909090908,
                "end_time": 95.1,
                "pitch": 48,
                "velocity": 32,
                "duration": 0.1840909090909122,
                "tempo": 120.0
            },
            {
                "start_time": 95.82045454545454,
                "end_time": 95.83636363636363,
                "pitch": 60,
                "velocity": 32,
                "duration": 0.01590909090909065,
                "tempo": 120.0
            },
            {
                "start_time": 95.83636363636363,
                "end_time": 95.85454545454544,
                "pitch": 64,
                "velocity": 32,
                "duration": 0.018181818181815856,
                "tempo": 120.0
            },
            {
                "start_time": 95.85454545454544,
                "end_time": 96.0340909090909,
                "pitch": 60,
                "velocity": 32,
                "duration": 0.17954545454546178,
                "tempo": 120.0
            },
            {
                "start_time": 96.05,
                "end_time": 96.06590909090909,
                "pitch": 48,
                "velocity": 32,
                "duration": 0.01590909090909065,
                "tempo": 120.0
            },
            {
                "start_time": 96.06590909090909,
                "end_time": 96.08181818181818,
                "pitch": 52,
                "velocity": 32,
                "duration": 0.01590909090909065,
                "tempo": 120.0
            },
            {
                "start_time": 96.08181818181818,
                "end_time": 96.26363636363637,
                "pitch": 48,
                "velocity": 32,
                "duration": 0.18181818181818699,
                "tempo": 120.0
            },
            {
                "start_time": 96.7590909090909,
                "end_time": 96.77499999999999,
                "pitch": 44,
                "velocity": 32,
                "duration": 0.01590909090909065,
                "tempo": 120.0
            },
            {
                "start_time": 96.77499999999999,
                "end_time": 96.79090909090908,
                "pitch": 48,
                "velocity": 32,
                "duration": 0.01590909090909065,
                "tempo": 120.0
            },
            {
                "start_time": 96.79090909090908,
                "end_time": 96.97272727272727,
                "pitch": 44,
                "velocity": 32,
                "duration": 0.18181818181818699,
                "tempo": 120.0
            },
            {
                "start_time": 97.675,
                "end_time": 97.69318181818181,
                "pitch": 56,
                "velocity": 32,
                "duration": 0.018181818181815856,
                "tempo": 120.0
            },
            {
                "start_time": 97.69318181818181,
                "end_time": 97.7090909090909,
                "pitch": 60,
                "velocity": 32,
                "duration": 0.01590909090909065,
                "tempo": 120.0
            },
            {
                "start_time": 97.7090909090909,
                "end_time": 97.89318181818182,
                "pitch": 56,
                "velocity": 32,
                "duration": 0.1840909090909122,
                "tempo": 120.0
            },
            {
                "start_time": 97.9090909090909,
                "end_time": 97.92727272727272,
                "pitch": 44,
                "velocity": 32,
                "duration": 0.018181818181815856,
                "tempo": 120.0
            },
            {
                "start_time": 97.92727272727272,
                "end_time": 97.94318181818181,
                "pitch": 48,
                "velocity": 32,
                "duration": 0.01590909090909065,
                "tempo": 120.0
            },
            {
                "start_time": 97.94318181818181,
                "end_time": 98.12727272727273,
                "pitch": 44,
                "velocity": 32,
                "duration": 0.1840909090909122,
                "tempo": 120.0
            },
            {
                "start_time": 98.61363636363636,
                "end_time": 98.62954545454545,
                "pitch": 43,
                "velocity": 32,
                "duration": 0.01590909090909065,
                "tempo": 120.0
            },
            {
                "start_time": 98.62954545454545,
                "end_time": 98.64545454545454,
                "pitch": 48,
                "velocity": 32,
                "duration": 0.01590909090909065,
                "tempo": 120.0
            },
            {
                "start_time": 98.64545454545454,
                "end_time": 98.82499999999999,
                "pitch": 43,
                "velocity": 32,
                "duration": 0.17954545454544757,
                "tempo": 120.0
            },
            {
                "start_time": 99.54090909090908,
                "end_time": 99.55681818181817,
                "pitch": 55,
                "velocity": 32,
                "duration": 0.01590909090909065,
                "tempo": 120.0
            },
            {
                "start_time": 99.55681818181817,
                "end_time": 99.57272727272726,
                "pitch": 60,
                "velocity": 32,
                "duration": 0.01590909090909065,
                "tempo": 120.0
            },
            {
                "start_time": 99.57272727272726,
                "end_time": 99.75227272727273,
                "pitch": 55,
                "velocity": 32,
                "duration": 0.17954545454546178,
                "tempo": 120.0
            },
            {
                "start_time": 99.77045454545454,
                "end_time": 99.78636363636363,
                "pitch": 43,
                "velocity": 32,
                "duration": 0.01590909090909065,
                "tempo": 120.0
            },
            {
                "start_time": 99.78636363636363,
                "end_time": 99.80227272727272,
                "pitch": 48,
                "velocity": 32,
                "duration": 0.01590909090909065,
                "tempo": 120.0
            },
            {
                "start_time": 99.80227272727272,
                "end_time": 99.98181818181817,
                "pitch": 43,
                "velocity": 32,
                "duration": 0.17954545454544757,
                "tempo": 120.0
            },
            {
                "start_time": 100.46818181818182,
                "end_time": 100.48409090909091,
                "pitch": 44,
                "velocity": 32,
                "duration": 0.01590909090909065,
                "tempo": 120.0
            },
            {
                "start_time": 100.48409090909091,
                "end_time": 100.50227272727273,
                "pitch": 48,
                "velocity": 32,
                "duration": 0.018181818181815856,
                "tempo": 120.0
            },
            {
                "start_time": 100.50227272727273,
                "end_time": 100.68636363636364,
                "pitch": 44,
                "velocity": 32,
                "duration": 0.1840909090909122,
                "tempo": 120.0
            },
            {
                "start_time": 101.40454545454546,
                "end_time": 101.42272727272727,
                "pitch": 56,
                "velocity": 32,
                "duration": 0.018181818181815856,
                "tempo": 120.0
            },
            {
                "start_time": 101.42272727272727,
                "end_time": 101.43863636363636,
                "pitch": 60,
                "velocity": 32,
                "duration": 0.01590909090909065,
                "tempo": 120.0
            },
            {
                "start_time": 101.43863636363636,
                "end_time": 101.61818181818181,
                "pitch": 56,
                "velocity": 32,
                "duration": 0.17954545454544757,
                "tempo": 120.0
            },
            {
                "start_time": 101.6340909090909,
                "end_time": 101.65227272727272,
                "pitch": 44,
                "velocity": 32,
                "duration": 0.018181818181815856,
                "tempo": 120.0
            },
            {
                "start_time": 101.65227272727272,
                "end_time": 101.66818181818181,
                "pitch": 48,
                "velocity": 32,
                "duration": 0.01590909090909065,
                "tempo": 120.0
            },
            {
                "start_time": 101.66818181818181,
                "end_time": 101.84772727272727,
                "pitch": 44,
                "velocity": 32,
                "duration": 0.17954545454546178,
                "tempo": 120.0
            },
            {
                "start_time": 102.33181818181818,
                "end_time": 102.35,
                "pitch": 43,
                "velocity": 32,
                "duration": 0.018181818181815856,
                "tempo": 120.0
            },
            {
                "start_time": 102.35,
                "end_time": 102.36590909090908,
                "pitch": 48,
                "velocity": 32,
                "duration": 0.01590909090909065,
                "tempo": 120.0
            },
            {
                "start_time": 102.36590909090908,
                "end_time": 102.54545454545455,
                "pitch": 43,
                "velocity": 32,
                "duration": 0.17954545454546178,
                "tempo": 120.0
            },
            {
                "start_time": 103.2590909090909,
                "end_time": 103.27727272727272,
                "pitch": 55,
                "velocity": 32,
                "duration": 0.018181818181815856,
                "tempo": 120.0
            },
            {
                "start_time": 103.27727272727272,
                "end_time": 103.29318181818181,
                "pitch": 60,
                "velocity": 32,
                "duration": 0.01590909090909065,
                "tempo": 120.0
            },
            {
                "start_time": 103.29318181818181,
                "end_time": 103.47727272727272,
                "pitch": 55,
                "velocity": 32,
                "duration": 0.1840909090909122,
                "tempo": 120.0
            },
            {
                "start_time": 103.49545454545454,
                "end_time": 103.51136363636363,
                "pitch": 43,
                "velocity": 32,
                "duration": 0.01590909090909065,
                "tempo": 120.0
            },
            {
                "start_time": 103.51136363636363,
                "end_time": 103.52727272727272,
                "pitch": 48,
                "velocity": 32,
                "duration": 0.01590909090909065,
                "tempo": 120.0
            },
            {
                "start_time": 103.52727272727272,
                "end_time": 103.71136363636363,
                "pitch": 43,
                "velocity": 32,
                "duration": 0.1840909090909122,
                "tempo": 120.0
            },
            {
                "start_time": 104.19772727272726,
                "end_time": 104.21363636363635,
                "pitch": 44,
                "velocity": 32,
                "duration": 0.01590909090909065,
                "tempo": 120.0
            },
            {
                "start_time": 104.21363636363635,
                "end_time": 104.23181818181817,
                "pitch": 48,
                "velocity": 32,
                "duration": 0.018181818181815856,
                "tempo": 120.0
            },
            {
                "start_time": 104.23181818181817,
                "end_time": 104.41136363636363,
                "pitch": 44,
                "velocity": 32,
                "duration": 0.17954545454546178,
                "tempo": 120.0
            },
            {
                "start_time": 105.125,
                "end_time": 105.14090909090909,
                "pitch": 56,
                "velocity": 32,
                "duration": 0.01590909090909065,
                "tempo": 120.0
            },
            {
                "start_time": 105.14090909090909,
                "end_time": 105.15681818181818,
                "pitch": 60,
                "velocity": 32,
                "duration": 0.01590909090909065,
                "tempo": 120.0
            },
            {
                "start_time": 105.15681818181818,
                "end_time": 105.33863636363635,
                "pitch": 56,
                "velocity": 32,
                "duration": 0.18181818181817277,
                "tempo": 120.0
            },
            {
                "start_time": 105.35454545454544,
                "end_time": 105.37045454545454,
                "pitch": 44,
                "velocity": 32,
                "duration": 0.01590909090909065,
                "tempo": 120.0
            },
            {
                "start_time": 105.37045454545454,
                "end_time": 105.38636363636363,
                "pitch": 48,
                "velocity": 32,
                "duration": 0.01590909090909065,
                "tempo": 120.0
            },
            {
                "start_time": 105.38636363636363,
                "end_time": 105.56590909090909,
                "pitch": 44,
                "velocity": 32,
                "duration": 0.17954545454546178,
                "tempo": 120.0
            },
            {
                "start_time": 106.05227272727272,
                "end_time": 106.06818181818181,
                "pitch": 43,
                "velocity": 32,
                "duration": 0.01590909090909065,
                "tempo": 120.0
            },
            {
                "start_time": 106.06818181818181,
                "end_time": 106.08636363636363,
                "pitch": 48,
                "velocity": 32,
                "duration": 0.018181818181815856,
                "tempo": 120.0
            },
            {
                "start_time": 106.08636363636363,
                "end_time": 106.27045454545454,
                "pitch": 43,
                "velocity": 32,
                "duration": 0.1840909090909122,
                "tempo": 120.0
            },
            {
                "start_time": 106.99090909090908,
                "end_time": 107.00681818181818,
                "pitch": 55,
                "velocity": 32,
                "duration": 0.01590909090909065,
                "tempo": 120.0
            },
            {
                "start_time": 107.00681818181818,
                "end_time": 107.02272727272727,
                "pitch": 60,
                "velocity": 32,
                "duration": 0.01590909090909065,
                "tempo": 120.0
            },
            {
                "start_time": 107.02272727272727,
                "end_time": 107.20227272727273,
                "pitch": 55,
                "velocity": 32,
                "duration": 0.17954545454546178,
                "tempo": 120.0
            },
            {
                "start_time": 107.22045454545454,
                "end_time": 107.23636363636363,
                "pitch": 43,
                "velocity": 32,
                "duration": 0.01590909090909065,
                "tempo": 120.0
            },
            {
                "start_time": 107.23636363636363,
                "end_time": 107.25227272727273,
                "pitch": 48,
                "velocity": 32,
                "duration": 0.01590909090909065,
                "tempo": 120.0
            },
            {
                "start_time": 107.25227272727273,
                "end_time": 107.43181818181817,
                "pitch": 43,
                "velocity": 32,
                "duration": 0.17954545454544757,
                "tempo": 120.0
            },
            {
                "start_time": 107.91818181818181,
                "end_time": 107.9340909090909,
                "pitch": 48,
                "velocity": 32,
                "duration": 0.01590909090909065,
                "tempo": 120.0
            },
            {
                "start_time": 107.9340909090909,
                "end_time": 107.94999999999999,
                "pitch": 52,
                "velocity": 32,
                "duration": 0.01590909090909065,
                "tempo": 120.0
            },
            {
                "start_time": 107.94999999999999,
                "end_time": 108.12954545454545,
                "pitch": 48,
                "velocity": 32,
                "duration": 0.17954545454546178,
                "tempo": 120.0
            },
            {
                "start_time": 108.84545454545454,
                "end_time": 108.86136363636363,
                "pitch": 60,
                "velocity": 32,
                "duration": 0.01590909090909065,
                "tempo": 120.0
            },
            {
                "start_time": 108.86136363636363,
                "end_time": 108.87727272727273,
                "pitch": 64,
                "velocity": 32,
                "duration": 0.01590909090909065,
                "tempo": 120.0
            },
            {
                "start_time": 108.87727272727273,
                "end_time": 109.06136363636364,
                "pitch": 60,
                "velocity": 32,
                "duration": 0.1840909090909122,
                "tempo": 120.0
            },
            {
                "start_time": 109.07954545454545,
                "end_time": 109.09545454545454,
                "pitch": 48,
                "velocity": 32,
                "duration": 0.01590909090909065,
                "tempo": 120.0
            },
            {
                "start_time": 109.09545454545454,
                "end_time": 109.11363636363636,
                "pitch": 52,
                "velocity": 32,
                "duration": 0.018181818181815856,
                "tempo": 120.0
            },
            {
                "start_time": 109.11363636363636,
                "end_time": 109.29772727272727,
                "pitch": 48,
                "velocity": 32,
                "duration": 0.1840909090909122,
                "tempo": 120.0
            },
            {
                "start_time": 109.78181818181818,
                "end_time": 109.8,
                "pitch": 48,
                "velocity": 32,
                "duration": 0.018181818181815856,
                "tempo": 120.0
            },
            {
                "start_time": 109.8,
                "end_time": 109.81590909090909,
                "pitch": 52,
                "velocity": 32,
                "duration": 0.01590909090909065,
                "tempo": 120.0
            },
            {
                "start_time": 109.81590909090909,
                "end_time": 109.99545454545454,
                "pitch": 48,
                "velocity": 32,
                "duration": 0.17954545454544757,
                "tempo": 120.0
            },
            {
                "start_time": 110.7090909090909,
                "end_time": 110.72727272727272,
                "pitch": 48,
                "velocity": 32,
                "duration": 0.018181818181815856,
                "tempo": 120.0
            },
            {
                "start_time": 110.72727272727272,
                "end_time": 110.74318181818181,
                "pitch": 52,
                "velocity": 32,
                "duration": 0.01590909090909065,
                "tempo": 120.0
            },
            {
                "start_time": 110.74318181818181,
                "end_time": 110.86136363636363,
                "pitch": 48,
                "velocity": 32,
                "duration": 0.11818181818182438,
                "tempo": 120.0
            },
            {
                "start_time": 110.87727272727273,
                "end_time": 110.89318181818182,
                "pitch": 48,
                "velocity": 32,
                "duration": 0.01590909090909065,
                "tempo": 120.0
            },
            {
                "start_time": 110.89318181818182,
                "end_time": 110.91136363636363,
                "pitch": 52,
                "velocity": 32,
                "duration": 0.018181818181815856,
                "tempo": 120.0
            },
            {
                "start_time": 110.91136363636363,
                "end_time": 111.01136363636363,
                "pitch": 48,
                "velocity": 32,
                "duration": 0.09999999999999432,
                "tempo": 120.0
            },
            {
                "start_time": 111.02727272727272,
                "end_time": 111.04545454545455,
                "pitch": 48,
                "velocity": 32,
                "duration": 0.018181818181830067,
                "tempo": 120.0
            },
            {
                "start_time": 111.04545454545455,
                "end_time": 111.06136363636364,
                "pitch": 52,
                "velocity": 32,
                "duration": 0.01590909090909065,
                "tempo": 120.0
            },
            {
                "start_time": 111.06136363636364,
                "end_time": 111.16136363636363,
                "pitch": 48,
                "velocity": 32,
                "duration": 0.09999999999999432,
                "tempo": 120.0
            },
            {
                "start_time": 111.17954545454545,
                "end_time": 111.19545454545454,
                "pitch": 48,
                "velocity": 32,
                "duration": 0.01590909090909065,
                "tempo": 120.0
            },
            {
                "start_time": 111.19545454545454,
                "end_time": 111.21136363636363,
                "pitch": 52,
                "velocity": 32,
                "duration": 0.01590909090909065,
                "tempo": 120.0
            },
            {
                "start_time": 111.21136363636363,
                "end_time": 111.32954545454545,
                "pitch": 48,
                "velocity": 32,
                "duration": 0.11818181818182438,
                "tempo": 120.0
            },
            {
                "start_time": 111.34545454545454,
                "end_time": 111.36363636363636,
                "pitch": 48,
                "velocity": 32,
                "duration": 0.018181818181815856,
                "tempo": 120.0
            },
            {
                "start_time": 111.36363636363636,
                "end_time": 111.37954545454545,
                "pitch": 52,
                "velocity": 32,
                "duration": 0.01590909090909065,
                "tempo": 120.0
            },
            {
                "start_time": 111.37954545454545,
                "end_time": 111.47954545454544,
                "pitch": 48,
                "velocity": 32,
                "duration": 0.09999999999999432,
                "tempo": 120.0
            },
            {
                "start_time": 111.49772727272726,
                "end_time": 111.51363636363635,
                "pitch": 48,
                "velocity": 32,
                "duration": 0.01590909090909065,
                "tempo": 120.0
            },
            {
                "start_time": 111.51363636363635,
                "end_time": 111.52954545454546,
                "pitch": 52,
                "velocity": 32,
                "duration": 0.01590909090910486,
                "tempo": 120.0
            },
            {
                "start_time": 111.52954545454546,
                "end_time": 111.63181818181818,
                "pitch": 48,
                "velocity": 32,
                "duration": 0.10227272727271952,
                "tempo": 120.0
            },
            {
                "start_time": 111.64772727272727,
                "end_time": 111.66363636363636,
                "pitch": 48,
                "velocity": 32,
                "duration": 0.01590909090909065,
                "tempo": 120.0
            },
            {
                "start_time": 111.66363636363636,
                "end_time": 111.67954545454545,
                "pitch": 52,
                "velocity": 32,
                "duration": 0.01590909090909065,
                "tempo": 120.0
            },
            {
                "start_time": 111.67954545454545,
                "end_time": 111.86136363636363,
                "pitch": 48,
                "velocity": 32,
                "duration": 0.18181818181818699,
                "tempo": 120.0
            },
            {
                "start_time": 112.10681818181817,
                "end_time": 112.12272727272726,
                "pitch": 48,
                "velocity": 32,
                "duration": 0.01590909090909065,
                "tempo": 120.0
            },
            {
                "start_time": 112.12272727272726,
                "end_time": 112.13863636363635,
                "pitch": 52,
                "velocity": 32,
                "duration": 0.01590909090909065,
                "tempo": 120.0
            },
            {
                "start_time": 112.13863636363635,
                "end_time": 112.25454545454545,
                "pitch": 48,
                "velocity": 32,
                "duration": 0.11590909090909918,
                "tempo": 120.0
            },
            {
                "start_time": 112.27045454545454,
                "end_time": 112.28636363636363,
                "pitch": 48,
                "velocity": 32,
                "duration": 0.01590909090909065,
                "tempo": 120.0
            },
            {
                "start_time": 112.28636363636363,
                "end_time": 112.30227272727272,
                "pitch": 52,
                "velocity": 32,
                "duration": 0.01590909090909065,
                "tempo": 120.0
            },
            {
                "start_time": 112.30227272727272,
                "end_time": 112.39999999999999,
                "pitch": 48,
                "velocity": 32,
                "duration": 0.09772727272726911,
                "tempo": 120.0
            },
            {
                "start_time": 112.41818181818181,
                "end_time": 112.4340909090909,
                "pitch": 48,
                "velocity": 32,
                "duration": 0.01590909090909065,
                "tempo": 120.0
            },
            {
                "start_time": 112.4340909090909,
                "end_time": 112.44999999999999,
                "pitch": 52,
                "velocity": 32,
                "duration": 0.01590909090909065,
                "tempo": 120.0
            },
            {
                "start_time": 112.44999999999999,
                "end_time": 112.54772727272727,
                "pitch": 48,
                "velocity": 32,
                "duration": 0.09772727272728332,
                "tempo": 120.0
            },
            {
                "start_time": 112.56363636363636,
                "end_time": 112.58181818181818,
                "pitch": 48,
                "velocity": 32,
                "duration": 0.018181818181815856,
                "tempo": 120.0
            },
            {
                "start_time": 112.58181818181818,
                "end_time": 112.59772727272727,
                "pitch": 52,
                "velocity": 32,
                "duration": 0.01590909090909065,
                "tempo": 120.0
            },
            {
                "start_time": 112.59772727272727,
                "end_time": 112.78181818181818,
                "pitch": 48,
                "velocity": 32,
                "duration": 0.1840909090909122,
                "tempo": 120.0
            },
            {
                "start_time": 113.0340909090909,
                "end_time": 113.05,
                "pitch": 48,
                "velocity": 32,
                "duration": 0.01590909090909065,
                "tempo": 120.0
            },
            {
                "start_time": 113.05,
                "end_time": 113.06590909090909,
                "pitch": 52,
                "velocity": 32,
                "duration": 0.01590909090909065,
                "tempo": 120.0
            },
            {
                "start_time": 113.06590909090909,
                "end_time": 113.25227272727273,
                "pitch": 48,
                "velocity": 32,
                "duration": 0.1863636363636374,
                "tempo": 120.0
            },
            {
                "start_time": 113.50227272727273,
                "end_time": 113.51818181818182,
                "pitch": 48,
                "velocity": 32,
                "duration": 0.01590909090909065,
                "tempo": 120.0
            },
            {
                "start_time": 113.51818181818182,
                "end_time": 113.5340909090909,
                "pitch": 52,
                "velocity": 32,
                "duration": 0.01590909090909065,
                "tempo": 120.0
            },
            {
                "start_time": 113.5340909090909,
                "end_time": 113.71590909090908,
                "pitch": 48,
                "velocity": 32,
                "duration": 0.18181818181817277,
                "tempo": 120.0
            },
            {
                "start_time": 113.96136363636363,
                "end_time": 113.97727272727272,
                "pitch": 48,
                "velocity": 32,
                "duration": 0.01590909090909065,
                "tempo": 120.0
            },
            {
                "start_time": 113.97727272727272,
                "end_time": 113.99318181818181,
                "pitch": 52,
                "velocity": 32,
                "duration": 0.01590909090909065,
                "tempo": 120.0
            },
            {
                "start_time": 113.99318181818181,
                "end_time": 114.11136363636363,
                "pitch": 48,
                "velocity": 32,
                "duration": 0.11818181818182438,
                "tempo": 120.0
            },
            {
                "start_time": 114.12727272727273,
                "end_time": 114.14545454545454,
                "pitch": 48,
                "velocity": 32,
                "duration": 0.018181818181815856,
                "tempo": 120.0
            },
            {
                "start_time": 114.14545454545454,
                "end_time": 114.16136363636363,
                "pitch": 52,
                "velocity": 32,
                "duration": 0.01590909090909065,
                "tempo": 120.0
            },
            {
                "start_time": 114.16136363636363,
                "end_time": 114.26136363636363,
                "pitch": 48,
                "velocity": 32,
                "duration": 0.09999999999999432,
                "tempo": 120.0
            },
            {
                "start_time": 114.27954545454546,
                "end_time": 114.29545454545455,
                "pitch": 48,
                "velocity": 32,
                "duration": 0.01590909090909065,
                "tempo": 120.0
            },
            {
                "start_time": 114.29545454545455,
                "end_time": 114.31136363636364,
                "pitch": 52,
                "velocity": 32,
                "duration": 0.01590909090909065,
                "tempo": 120.0
            },
            {
                "start_time": 114.31136363636364,
                "end_time": 114.41363636363636,
                "pitch": 48,
                "velocity": 32,
                "duration": 0.10227272727271952,
                "tempo": 120.0
            },
            {
                "start_time": 114.42954545454545,
                "end_time": 114.44545454545454,
                "pitch": 48,
                "velocity": 32,
                "duration": 0.01590909090909065,
                "tempo": 120.0
            },
            {
                "start_time": 114.44545454545454,
                "end_time": 114.46363636363635,
                "pitch": 52,
                "velocity": 32,
                "duration": 0.018181818181815856,
                "tempo": 120.0
            },
            {
                "start_time": 114.46363636363635,
                "end_time": 114.64772727272727,
                "pitch": 48,
                "velocity": 32,
                "duration": 0.1840909090909122,
                "tempo": 120.0
            },
            {
                "start_time": 114.89772727272727,
                "end_time": 114.91590909090908,
                "pitch": 48,
                "velocity": 32,
                "duration": 0.018181818181815856,
                "tempo": 120.0
            },
            {
                "start_time": 114.91590909090908,
                "end_time": 114.93181818181817,
                "pitch": 52,
                "velocity": 32,
                "duration": 0.01590909090909065,
                "tempo": 120.0
            },
            {
                "start_time": 114.93181818181817,
                "end_time": 115.11590909090908,
                "pitch": 48,
                "velocity": 32,
                "duration": 0.1840909090909122,
                "tempo": 120.0
            },
            {
                "start_time": 115.36818181818181,
                "end_time": 115.3840909090909,
                "pitch": 46,
                "velocity": 32,
                "duration": 0.01590909090909065,
                "tempo": 120.0
            },
            {
                "start_time": 115.3840909090909,
                "end_time": 115.39999999999999,
                "pitch": 50,
                "velocity": 32,
                "duration": 0.01590909090909065,
                "tempo": 120.0
            },
            {
                "start_time": 115.39999999999999,
                "end_time": 115.57954545454545,
                "pitch": 46,
                "velocity": 32,
                "duration": 0.17954545454546178,
                "tempo": 120.0
            },
            {
                "start_time": 115.82499999999999,
                "end_time": 115.84318181818182,
                "pitch": 46,
                "velocity": 32,
                "duration": 0.018181818181830067,
                "tempo": 120.0
            },
            {
                "start_time": 115.84318181818182,
                "end_time": 115.85909090909091,
                "pitch": 50,
                "velocity": 32,
                "duration": 0.01590909090909065,
                "tempo": 120.0
            },
            {
                "start_time": 115.85909090909091,
                "end_time": 115.97727272727272,
                "pitch": 46,
                "velocity": 32,
                "duration": 0.11818181818181017,
                "tempo": 120.0
            },
            {
                "start_time": 115.99318181818181,
                "end_time": 116.0090909090909,
                "pitch": 46,
                "velocity": 32,
                "duration": 0.01590909090909065,
                "tempo": 120.0
            },
            {
                "start_time": 116.0090909090909,
                "end_time": 116.02727272727272,
                "pitch": 50,
                "velocity": 32,
                "duration": 0.018181818181815856,
                "tempo": 120.0
            },
            {
                "start_time": 116.02727272727272,
                "end_time": 116.12727272727273,
                "pitch": 46,
                "velocity": 32,
                "duration": 0.10000000000000853,
                "tempo": 120.0
            },
            {
                "start_time": 116.14318181818182,
                "end_time": 116.16136363636363,
                "pitch": 46,
                "velocity": 32,
                "duration": 0.018181818181815856,
                "tempo": 120.0
            },
            {
                "start_time": 116.16136363636363,
                "end_time": 116.17727272727272,
                "pitch": 50,
                "velocity": 32,
                "duration": 0.01590909090909065,
                "tempo": 120.0
            },
            {
                "start_time": 116.17727272727272,
                "end_time": 116.27727272727272,
                "pitch": 46,
                "velocity": 32,
                "duration": 0.09999999999999432,
                "tempo": 120.0
            },
            {
                "start_time": 116.29545454545455,
                "end_time": 116.31136363636364,
                "pitch": 46,
                "velocity": 32,
                "duration": 0.01590909090909065,
                "tempo": 120.0
            },
            {
                "start_time": 116.31136363636364,
                "end_time": 116.32727272727273,
                "pitch": 50,
                "velocity": 32,
                "duration": 0.01590909090909065,
                "tempo": 120.0
            },
            {
                "start_time": 116.32727272727273,
                "end_time": 116.50681818181818,
                "pitch": 46,
                "velocity": 32,
                "duration": 0.17954545454544757,
                "tempo": 120.0
            },
            {
                "start_time": 116.75227272727273,
                "end_time": 116.77045454545454,
                "pitch": 46,
                "velocity": 32,
                "duration": 0.018181818181815856,
                "tempo": 120.0
            },
            {
                "start_time": 116.77045454545454,
                "end_time": 116.78636363636363,
                "pitch": 50,
                "velocity": 32,
                "duration": 0.01590909090909065,
                "tempo": 120.0
            },
            {
                "start_time": 116.78636363636363,
                "end_time": 116.97045454545454,
                "pitch": 46,
                "velocity": 32,
                "duration": 0.1840909090909122,
                "tempo": 120.0
            },
            {
                "start_time": 117.22272727272727,
                "end_time": 117.23863636363636,
                "pitch": 43,
                "velocity": 32,
                "duration": 0.01590909090909065,
                "tempo": 120.0
            },
            {
                "start_time": 117.23863636363636,
                "end_time": 117.25454545454545,
                "pitch": 48,
                "velocity": 32,
                "duration": 0.01590909090909065,
                "tempo": 120.0
            },
            {
                "start_time": 117.25454545454545,
                "end_time": 117.43863636363636,
                "pitch": 43,
                "velocity": 32,
                "duration": 0.1840909090909122,
                "tempo": 120.0
            },
            {
                "start_time": 117.69090909090909,
                "end_time": 117.70681818181818,
                "pitch": 43,
                "velocity": 32,
                "duration": 0.01590909090909065,
                "tempo": 120.0
            },
            {
                "start_time": 117.70681818181818,
                "end_time": 117.725,
                "pitch": 48,
                "velocity": 32,
                "duration": 0.018181818181815856,
                "tempo": 120.0
            },
            {
                "start_time": 117.725,
                "end_time": 117.84090909090908,
                "pitch": 43,
                "velocity": 32,
                "duration": 0.11590909090908497,
                "tempo": 120.0
            },
            {
                "start_time": 117.85909090909091,
                "end_time": 117.875,
                "pitch": 43,
                "velocity": 32,
                "duration": 0.01590909090909065,
                "tempo": 120.0
            },
            {
                "start_time": 117.875,
                "end_time": 117.89090909090909,
                "pitch": 48,
                "velocity": 32,
                "duration": 0.01590909090909065,
                "tempo": 120.0
            },
            {
                "start_time": 117.89090909090909,
                "end_time": 117.99318181818181,
                "pitch": 43,
                "velocity": 32,
                "duration": 0.10227272727271952,
                "tempo": 120.0
            },
            {
                "start_time": 118.0090909090909,
                "end_time": 118.02499999999999,
                "pitch": 43,
                "velocity": 32,
                "duration": 0.01590909090909065,
                "tempo": 120.0
            },
            {
                "start_time": 118.02499999999999,
                "end_time": 118.04318181818181,
                "pitch": 48,
                "velocity": 32,
                "duration": 0.018181818181815856,
                "tempo": 120.0
            },
            {
                "start_time": 118.04318181818181,
                "end_time": 118.14318181818182,
                "pitch": 43,
                "velocity": 32,
                "duration": 0.10000000000000853,
                "tempo": 120.0
            },
            {
                "start_time": 118.1590909090909,
                "end_time": 118.17727272727272,
                "pitch": 43,
                "velocity": 32,
                "duration": 0.018181818181815856,
                "tempo": 120.0
            },
            {
                "start_time": 118.17727272727272,
                "end_time": 118.19318181818181,
                "pitch": 48,
                "velocity": 32,
                "duration": 0.01590909090909065,
                "tempo": 120.0
            },
            {
                "start_time": 118.19318181818181,
                "end_time": 118.30681818181817,
                "pitch": 43,
                "velocity": 32,
                "duration": 0.11363636363635976,
                "tempo": 120.0
            },
            {
                "start_time": 118.32272727272726,
                "end_time": 118.34090909090908,
                "pitch": 43,
                "velocity": 32,
                "duration": 0.018181818181815856,
                "tempo": 120.0
            },
            {
                "start_time": 118.34090909090908,
                "end_time": 118.35681818181817,
                "pitch": 48,
                "velocity": 32,
                "duration": 0.01590909090909065,
                "tempo": 120.0
            },
            {
                "start_time": 118.35681818181817,
                "end_time": 118.45454545454545,
                "pitch": 43,
                "velocity": 32,
                "duration": 0.09772727272728332,
                "tempo": 120.0
            },
            {
                "start_time": 118.47045454545454,
                "end_time": 118.48636363636363,
                "pitch": 43,
                "velocity": 32,
                "duration": 0.01590909090909065,
                "tempo": 120.0
            },
            {
                "start_time": 118.48636363636363,
                "end_time": 118.50454545454545,
                "pitch": 48,
                "velocity": 32,
                "duration": 0.018181818181815856,
                "tempo": 120.0
            },
            {
                "start_time": 118.50454545454545,
                "end_time": 118.60227272727272,
                "pitch": 43,
                "velocity": 32,
                "duration": 0.09772727272726911,
                "tempo": 120.0
            },
            {
                "start_time": 118.61818181818181,
                "end_time": 118.6340909090909,
                "pitch": 43,
                "velocity": 32,
                "duration": 0.01590909090909065,
                "tempo": 120.0
            },
            {
                "start_time": 118.6340909090909,
                "end_time": 118.65227272727272,
                "pitch": 48,
                "velocity": 32,
                "duration": 0.018181818181815856,
                "tempo": 120.0
            },
            {
                "start_time": 118.65227272727272,
                "end_time": 118.77272727272727,
                "pitch": 43,
                "velocity": 32,
                "duration": 0.12045454545454959,
                "tempo": 120.0
            },
            {
                "start_time": 118.78863636363636,
                "end_time": 118.80681818181817,
                "pitch": 43,
                "velocity": 32,
                "duration": 0.018181818181815856,
                "tempo": 120.0
            },
            {
                "start_time": 118.80681818181817,
                "end_time": 118.82272727272726,
                "pitch": 48,
                "velocity": 32,
                "duration": 0.01590909090909065,
                "tempo": 120.0
            },
            {
                "start_time": 118.82272727272726,
                "end_time": 118.92727272727272,
                "pitch": 43,
                "velocity": 32,
                "duration": 0.10454545454545894,
                "tempo": 120.0
            },
            {
                "start_time": 118.94318181818181,
                "end_time": 118.96136363636363,
                "pitch": 43,
                "velocity": 32,
                "duration": 0.018181818181815856,
                "tempo": 120.0
            },
            {
                "start_time": 118.96136363636363,
                "end_time": 118.97727272727272,
                "pitch": 48,
                "velocity": 32,
                "duration": 0.01590909090909065,
                "tempo": 120.0
            },
            {
                "start_time": 118.97727272727272,
                "end_time": 119.08181818181818,
                "pitch": 43,
                "velocity": 32,
                "duration": 0.10454545454545894,
                "tempo": 120.0
            },
            {
                "start_time": 119.09772727272727,
                "end_time": 119.11363636363636,
                "pitch": 48,
                "velocity": 32,
                "duration": 0.01590909090909065,
                "tempo": 120.0
            },
            {
                "start_time": 119.11363636363636,
                "end_time": 119.13181818181818,
                "pitch": 52,
                "velocity": 32,
                "duration": 0.018181818181815856,
                "tempo": 120.0
            },
            {
                "start_time": 119.13181818181818,
                "end_time": 119.31136363636364,
                "pitch": 48,
                "velocity": 32,
                "duration": 0.17954545454546178,
                "tempo": 120.0
            },
            {
                "start_time": 119.55681818181817,
                "end_time": 119.57272727272726,
                "pitch": 48,
                "velocity": 32,
                "duration": 0.01590909090909065,
                "tempo": 120.0
            },
            {
                "start_time": 119.57272727272726,
                "end_time": 119.58863636363635,
                "pitch": 52,
                "velocity": 32,
                "duration": 0.01590909090909065,
                "tempo": 120.0
            },
            {
                "start_time": 119.58863636363635,
                "end_time": 119.70454545454545,
                "pitch": 48,
                "velocity": 32,
                "duration": 0.11590909090909918,
                "tempo": 120.0
            },
            {
                "start_time": 119.72045454545454,
                "end_time": 119.73636363636363,
                "pitch": 48,
                "velocity": 32,
                "duration": 0.01590909090909065,
                "tempo": 120.0
            },
            {
                "start_time": 119.73636363636363,
                "end_time": 119.75227272727273,
                "pitch": 52,
                "velocity": 32,
                "duration": 0.01590909090909065,
                "tempo": 120.0
            },
            {
                "start_time": 119.75227272727273,
                "end_time": 119.85,
                "pitch": 48,
                "velocity": 32,
                "duration": 0.09772727272726911,
                "tempo": 120.0
            },
            {
                "start_time": 119.86818181818181,
                "end_time": 119.8840909090909,
                "pitch": 48,
                "velocity": 32,
                "duration": 0.01590909090909065,
                "tempo": 120.0
            },
            {
                "start_time": 119.8840909090909,
                "end_time": 119.89999999999999,
                "pitch": 52,
                "velocity": 32,
                "duration": 0.01590909090909065,
                "tempo": 120.0
            },
            {
                "start_time": 119.89999999999999,
                "end_time": 119.99772727272726,
                "pitch": 48,
                "velocity": 32,
                "duration": 0.09772727272726911,
                "tempo": 120.0
            },
            {
                "start_time": 120.01363636363635,
                "end_time": 120.03181818181818,
                "pitch": 48,
                "velocity": 32,
                "duration": 0.018181818181830067,
                "tempo": 120.0
            },
            {
                "start_time": 120.03181818181818,
                "end_time": 120.04772727272727,
                "pitch": 52,
                "velocity": 32,
                "duration": 0.01590909090909065,
                "tempo": 120.0
            },
            {
                "start_time": 120.04772727272727,
                "end_time": 120.23181818181817,
                "pitch": 48,
                "velocity": 32,
                "duration": 0.18409090909089798,
                "tempo": 120.0
            },
            {
                "start_time": 120.48409090909091,
                "end_time": 120.5,
                "pitch": 48,
                "velocity": 32,
                "duration": 0.01590909090909065,
                "tempo": 120.0
            },
            {
                "start_time": 120.5,
                "end_time": 120.51818181818182,
                "pitch": 52,
                "velocity": 32,
                "duration": 0.018181818181815856,
                "tempo": 120.0
            },
            {
                "start_time": 120.51818181818182,
                "end_time": 120.70227272727273,
                "pitch": 48,
                "velocity": 32,
                "duration": 0.1840909090909122,
                "tempo": 120.0
            },
            {
                "start_time": 120.95227272727273,
                "end_time": 120.96818181818182,
                "pitch": 46,
                "velocity": 32,
                "duration": 0.01590909090909065,
                "tempo": 120.0
            },
            {
                "start_time": 120.96818181818182,
                "end_time": 120.98636363636363,
                "pitch": 50,
                "velocity": 32,
                "duration": 0.018181818181815856,
                "tempo": 120.0
            },
            {
                "start_time": 120.98636363636363,
                "end_time": 121.16590909090908,
                "pitch": 46,
                "velocity": 32,
                "duration": 0.17954545454544757,
                "tempo": 120.0
            },
            {
                "start_time": 121.41136363636363,
                "end_time": 121.42727272727272,
                "pitch": 46,
                "velocity": 32,
                "duration": 0.01590909090909065,
                "tempo": 120.0
            },
            {
                "start_time": 121.42727272727272,
                "end_time": 121.44318181818181,
                "pitch": 50,
                "velocity": 32,
                "duration": 0.01590909090909065,
                "tempo": 120.0
            },
            {
                "start_time": 121.44318181818181,
                "end_time": 121.56136363636364,
                "pitch": 46,
                "velocity": 32,
                "duration": 0.11818181818182438,
                "tempo": 120.0
            },
            {
                "start_time": 121.57727272727273,
                "end_time": 121.59545454545454,
                "pitch": 46,
                "velocity": 32,
                "duration": 0.018181818181815856,
                "tempo": 120.0
            },
            {
                "start_time": 121.59545454545454,
                "end_time": 121.61136363636363,
                "pitch": 50,
                "velocity": 32,
                "duration": 0.01590909090909065,
                "tempo": 120.0
            },
            {
                "start_time": 121.61136363636363,
                "end_time": 121.71136363636363,
                "pitch": 46,
                "velocity": 32,
                "duration": 0.09999999999999432,
                "tempo": 120.0
            },
            {
                "start_time": 121.72954545454544,
                "end_time": 121.74545454545454,
                "pitch": 46,
                "velocity": 32,
                "duration": 0.01590909090909065,
                "tempo": 120.0
            },
            {
                "start_time": 121.74545454545454,
                "end_time": 121.76136363636363,
                "pitch": 50,
                "velocity": 32,
                "duration": 0.01590909090909065,
                "tempo": 120.0
            },
            {
                "start_time": 121.76136363636363,
                "end_time": 121.86363636363636,
                "pitch": 46,
                "velocity": 32,
                "duration": 0.10227272727273373,
                "tempo": 120.0
            },
            {
                "start_time": 121.87954545454545,
                "end_time": 121.89545454545454,
                "pitch": 46,
                "velocity": 32,
                "duration": 0.01590909090909065,
                "tempo": 120.0
            },
            {
                "start_time": 121.89545454545454,
                "end_time": 121.91136363636363,
                "pitch": 50,
                "velocity": 32,
                "duration": 0.01590909090909065,
                "tempo": 120.0
            },
            {
                "start_time": 121.91136363636363,
                "end_time": 122.09318181818182,
                "pitch": 46,
                "velocity": 32,
                "duration": 0.18181818181818699,
                "tempo": 120.0
            },
            {
                "start_time": 122.33863636363635,
                "end_time": 122.35454545454544,
                "pitch": 46,
                "velocity": 32,
                "duration": 0.01590909090909065,
                "tempo": 120.0
            },
            {
                "start_time": 122.35454545454544,
                "end_time": 122.37045454545454,
                "pitch": 50,
                "velocity": 32,
                "duration": 0.01590909090909065,
                "tempo": 120.0
            },
            {
                "start_time": 122.37045454545454,
                "end_time": 122.55454545454545,
                "pitch": 46,
                "velocity": 32,
                "duration": 0.1840909090909122,
                "tempo": 120.0
            },
            {
                "start_time": 122.80681818181817,
                "end_time": 122.82272727272726,
                "pitch": 48,
                "velocity": 32,
                "duration": 0.01590909090909065,
                "tempo": 120.0
            },
            {
                "start_time": 122.82272727272726,
                "end_time": 122.84090909090908,
                "pitch": 52,
                "velocity": 32,
                "duration": 0.018181818181815856,
                "tempo": 120.0
            },
            {
                "start_time": 122.84090909090908,
                "end_time": 123.02499999999999,
                "pitch": 48,
                "velocity": 32,
                "duration": 0.1840909090909122,
                "tempo": 120.0
            },
            {
                "start_time": 123.27499999999999,
                "end_time": 123.29318181818181,
                "pitch": 48,
                "velocity": 32,
                "duration": 0.018181818181815856,
                "tempo": 120.0
            },
            {
                "start_time": 123.29318181818181,
                "end_time": 123.3090909090909,
                "pitch": 52,
                "velocity": 32,
                "duration": 0.01590909090909065,
                "tempo": 120.0
            },
            {
                "start_time": 123.3090909090909,
                "end_time": 123.42727272727272,
                "pitch": 48,
                "velocity": 32,
                "duration": 0.11818181818182438,
                "tempo": 120.0
            },
            {
                "start_time": 123.44318181818181,
                "end_time": 123.4590909090909,
                "pitch": 48,
                "velocity": 32,
                "duration": 0.01590909090909065,
                "tempo": 120.0
            },
            {
                "start_time": 123.4590909090909,
                "end_time": 123.47727272727272,
                "pitch": 52,
                "velocity": 32,
                "duration": 0.018181818181815856,
                "tempo": 120.0
            },
            {
                "start_time": 123.47727272727272,
                "end_time": 123.57727272727273,
                "pitch": 48,
                "velocity": 32,
                "duration": 0.10000000000000853,
                "tempo": 120.0
            },
            {
                "start_time": 123.59318181818182,
                "end_time": 123.61136363636363,
                "pitch": 48,
                "velocity": 32,
                "duration": 0.018181818181815856,
                "tempo": 120.0
            },
            {
                "start_time": 123.61136363636363,
                "end_time": 123.62727272727273,
                "pitch": 52,
                "velocity": 32,
                "duration": 0.01590909090909065,
                "tempo": 120.0
            },
            {
                "start_time": 123.62727272727273,
                "end_time": 123.72727272727272,
                "pitch": 48,
                "velocity": 32,
                "duration": 0.09999999999999432,
                "tempo": 120.0
            },
            {
                "start_time": 123.74545454545454,
                "end_time": 123.76136363636363,
                "pitch": 46,
                "velocity": 32,
                "duration": 0.01590909090909065,
                "tempo": 120.0
            },
            {
                "start_time": 123.76136363636363,
                "end_time": 123.77727272727272,
                "pitch": 50,
                "velocity": 32,
                "duration": 0.01590909090909065,
                "tempo": 120.0
            },
            {
                "start_time": 123.77727272727272,
                "end_time": 123.95681818181818,
                "pitch": 46,
                "velocity": 32,
                "duration": 0.17954545454546178,
                "tempo": 120.0
            },
            {
                "start_time": 124.20227272727273,
                "end_time": 124.22045454545454,
                "pitch": 44,
                "velocity": 32,
                "duration": 0.018181818181815856,
                "tempo": 120.0
            },
            {
                "start_time": 124.22045454545454,
                "end_time": 124.23636363636363,
                "pitch": 48,
                "velocity": 32,
                "duration": 0.01590909090909065,
                "tempo": 120.0
            },
            {
                "start_time": 124.23636363636363,
                "end_time": 124.42045454545453,
                "pitch": 44,
                "velocity": 32,
                "duration": 0.18409090909089798,
                "tempo": 120.0
            },
            {
                "start_time": 124.67272727272727,
                "end_time": 124.68863636363636,
                "pitch": 48,
                "velocity": 32,
                "duration": 0.01590909090909065,
                "tempo": 120.0
            },
            {
                "start_time": 124.68863636363636,
                "end_time": 124.70454545454545,
                "pitch": 52,
                "velocity": 32,
                "duration": 0.01590909090909065,
                "tempo": 120.0
            },
            {
                "start_time": 124.70454545454545,
                "end_time": 124.8840909090909,
                "pitch": 48,
                "velocity": 32,
                "duration": 0.17954545454544757,
                "tempo": 120.0
            },
            {
                "start_time": 125.12954545454545,
                "end_time": 125.14772727272727,
                "pitch": 48,
                "velocity": 32,
                "duration": 0.018181818181815856,
                "tempo": 120.0
            },
            {
                "start_time": 125.14772727272727,
                "end_time": 125.16363636363636,
                "pitch": 52,
                "velocity": 32,
                "duration": 0.01590909090909065,
                "tempo": 120.0
            },
            {
                "start_time": 125.16363636363636,
                "end_time": 125.28181818181818,
                "pitch": 48,
                "velocity": 32,
                "duration": 0.11818181818182438,
                "tempo": 120.0
            },
            {
                "start_time": 125.29772727272727,
                "end_time": 125.31363636363636,
                "pitch": 48,
                "velocity": 32,
                "duration": 0.01590909090909065,
                "tempo": 120.0
            },
            {
                "start_time": 125.31363636363636,
                "end_time": 125.33181818181818,
                "pitch": 52,
                "velocity": 32,
                "duration": 0.018181818181815856,
                "tempo": 120.0
            },
            {
                "start_time": 125.33181818181818,
                "end_time": 125.43181818181817,
                "pitch": 48,
                "velocity": 32,
                "duration": 0.09999999999999432,
                "tempo": 120.0
            },
            {
                "start_time": 125.44772727272726,
                "end_time": 125.46590909090908,
                "pitch": 48,
                "velocity": 32,
                "duration": 0.018181818181815856,
                "tempo": 120.0
            },
            {
                "start_time": 125.46590909090908,
                "end_time": 125.48181818181817,
                "pitch": 52,
                "velocity": 32,
                "duration": 0.01590909090909065,
                "tempo": 120.0
            },
            {
                "start_time": 125.48181818181817,
                "end_time": 125.58181818181818,
                "pitch": 48,
                "velocity": 32,
                "duration": 0.10000000000000853,
                "tempo": 120.0
            },
            {
                "start_time": 125.6,
                "end_time": 125.61590909090908,
                "pitch": 48,
                "velocity": 32,
                "duration": 0.01590909090909065,
                "tempo": 120.0
            },
            {
                "start_time": 125.61590909090908,
                "end_time": 125.63181818181818,
                "pitch": 52,
                "velocity": 32,
                "duration": 0.01590909090909065,
                "tempo": 120.0
            },
            {
                "start_time": 125.63181818181818,
                "end_time": 125.75,
                "pitch": 48,
                "velocity": 32,
                "duration": 0.11818181818182438,
                "tempo": 120.0
            },
            {
                "start_time": 125.76590909090909,
                "end_time": 125.7840909090909,
                "pitch": 48,
                "velocity": 32,
                "duration": 0.018181818181815856,
                "tempo": 120.0
            },
            {
                "start_time": 125.7840909090909,
                "end_time": 125.8,
                "pitch": 52,
                "velocity": 32,
                "duration": 0.01590909090909065,
                "tempo": 120.0
            },
            {
                "start_time": 125.8,
                "end_time": 125.89999999999999,
                "pitch": 48,
                "velocity": 32,
                "duration": 0.09999999999999432,
                "tempo": 120.0
            },
            {
                "start_time": 125.91818181818181,
                "end_time": 125.9340909090909,
                "pitch": 48,
                "velocity": 32,
                "duration": 0.01590909090909065,
                "tempo": 120.0
            },
            {
                "start_time": 125.9340909090909,
                "end_time": 125.94999999999999,
                "pitch": 52,
                "velocity": 32,
                "duration": 0.01590909090909065,
                "tempo": 120.0
            },
            {
                "start_time": 125.94999999999999,
                "end_time": 126.05227272727272,
                "pitch": 48,
                "velocity": 32,
                "duration": 0.10227272727273373,
                "tempo": 120.0
            },
            {
                "start_time": 126.06818181818181,
                "end_time": 126.0840909090909,
                "pitch": 48,
                "velocity": 32,
                "duration": 0.01590909090909065,
                "tempo": 120.0
            },
            {
                "start_time": 126.0840909090909,
                "end_time": 126.10227272727272,
                "pitch": 52,
                "velocity": 32,
                "duration": 0.018181818181815856,
                "tempo": 120.0
            },
            {
                "start_time": 126.10227272727272,
                "end_time": 126.21818181818182,
                "pitch": 48,
                "velocity": 32,
                "duration": 0.11590909090909918,
                "tempo": 120.0
            },
            {
                "start_time": 126.23636363636363,
                "end_time": 126.25227272727273,
                "pitch": 48,
                "velocity": 32,
                "duration": 0.01590909090909065,
                "tempo": 120.0
            },
            {
                "start_time": 126.25227272727273,
                "end_time": 126.26818181818182,
                "pitch": 52,
                "velocity": 32,
                "duration": 0.01590909090909065,
                "tempo": 120.0
            },
            {
                "start_time": 126.26818181818182,
                "end_time": 126.37045454545454,
                "pitch": 48,
                "velocity": 32,
                "duration": 0.10227272727271952,
                "tempo": 120.0
            },
            {
                "start_time": 126.38636363636363,
                "end_time": 126.40227272727272,
                "pitch": 48,
                "velocity": 32,
                "duration": 0.01590909090909065,
                "tempo": 120.0
            },
            {
                "start_time": 126.40227272727272,
                "end_time": 126.42045454545453,
                "pitch": 52,
                "velocity": 32,
                "duration": 0.018181818181815856,
                "tempo": 120.0
            },
            {
                "start_time": 126.42045454545453,
                "end_time": 126.52045454545454,
                "pitch": 48,
                "velocity": 32,
                "duration": 0.10000000000000853,
                "tempo": 120.0
            }
        ]
    }
}