{
    "track_id": "Altered Beast (FM) - 06 - Game Over",
    "mood": "happy",
    "instruments": {
        "Clarinet": [
            {
                "start_time": 0.0,
                "end_time": 1.5568181818181817,
                "pitch": 76,
                "velocity": 51,
                "duration": 1.5568181818181817,
                "tempo": 120.0
            },
            {
                "start_time": 1.5727272727272728,
                "end_time": 2.161363636363636,
                "pitch": 74,
                "velocity": 51,
                "duration": 0.5886363636363634,
                "tempo": 120.0
            },
            {
                "start_time": 2.1795454545454542,
                "end_time": 2.7613636363636362,
                "pitch": 79,
                "velocity": 51,
                "duration": 0.581818181818182,
                "tempo": 120.0
            },
            {
                "start_time": 2.7795454545454543,
                "end_time": 3.368181818181818,
                "pitch": 77,
                "velocity": 51,
                "duration": 0.5886363636363638,
                "tempo": 120.0
            },
            {
                "start_time": 3.384090909090909,
                "end_time": 3.9749999999999996,
                "pitch": 76,
                "velocity": 51,
                "duration": 0.5909090909090908,
                "tempo": 120.0
            },
            {
                "start_time": 3.9909090909090907,
                "end_time": 4.006818181818182,
                "pitch": 76,
                "velocity": 51,
                "duration": 0.015909090909091095,
                "tempo": 120.0
            },
            {
                "start_time": 4.006818181818182,
                "end_time": 4.0249999999999995,
                "pitch": 74,
                "velocity": 51,
                "duration": 0.018181818181817633,
                "tempo": 120.0
            },
            {
                "start_time": 4.0249999999999995,
                "end_time": 4.040909090909091,
                "pitch": 71,
                "velocity": 51,
                "duration": 0.01590909090909154,
                "tempo": 120.0
            },
            {
                "start_time": 4.040909090909091,
                "end_time": 4.056818181818182,
                "pitch": 68,
                "velocity": 51,
                "duration": 0.01590909090909065,
                "tempo": 120.0
            },
            {
                "start_time": 4.056818181818182,
                "end_time": 4.075,
                "pitch": 66,
                "velocity": 51,
                "duration": 0.01818181818181852,
                "tempo": 120.0
            },
            {
                "start_time": 4.075,
                "end_time": 4.090909090909091,
                "pitch": 63,
                "velocity": 51,
                "duration": 0.01590909090909065,
                "tempo": 120.0
            },
            {
                "start_time": 4.090909090909091,
                "end_time": 4.1068181818181815,
                "pitch": 61,
                "velocity": 51,
                "duration": 0.01590909090909065,
                "tempo": 120.0
            },
            {
                "start_time": 4.1068181818181815,
                "end_time": 4.125,
                "pitch": 58,
                "velocity": 51,
                "duration": 0.01818181818181852,
                "tempo": 120.0
            },
            {
                "start_time": 4.125,
                "end_time": 4.140909090909091,
                "pitch": 55,
                "velocity": 51,
                "duration": 0.01590909090909065,
                "tempo": 120.0
            },
            {
                "start_time": 4.140909090909091,
                "end_time": 4.156818181818181,
                "pitch": 53,
                "velocity": 51,
                "duration": 0.01590909090909065,
                "tempo": 120.0
            },
            {
                "start_time": 4.156818181818181,
                "end_time": 4.175,
                "pitch": 51,
                "velocity": 51,
                "duration": 0.01818181818181852,
                "tempo": 120.0
            },
            {
                "start_time": 4.175,
                "end_time": 4.1909090909090905,
                "pitch": 48,
                "velocity": 51,
                "duration": 0.01590909090909065,
                "tempo": 120.0
            },
            {
                "start_time": 4.1909090909090905,
                "end_time": 4.590909090909091,
                "pitch": 68,
                "velocity": 51,
                "duration": 0.40000000000000036,
                "tempo": 120.0
            },
            {
                "start_time": 4.590909090909091,
                "end_time": 5.179545454545455,
                "pitch": 71,
                "velocity": 51,
                "duration": 0.5886363636363638,
                "tempo": 120.0
            }
        ],
        "Electric Guitar (clean)": [
            {
                "start_time": 0.0,
                "end_time": 0.11136363636363636,
                "pitch": 38,
                "velocity": 32,
                "duration": 0.11136363636363636,
                "tempo": 120.0
            },
            {
                "start_time": 0.12272727272727273,
                "end_time": 0.17727272727272728,
                "pitch": 38,
                "velocity": 32,
                "duration": 0.05454545454545455,
                "tempo": 120.0
            },
            {
                "start_time": 0.18863636363636363,
                "end_time": 0.31136363636363634,
                "pitch": 33,
                "velocity": 32,
                "duration": 0.12272727272727271,
                "tempo": 120.0
            },
            {
                "start_time": 0.3227272727272727,
                "end_time": 0.37727272727272726,
                "pitch": 41,
                "velocity": 32,
                "duration": 0.054545454545454564,
                "tempo": 120.0
            },
            {
                "start_time": 0.5840909090909091,
                "end_time": 0.6659090909090909,
                "pitch": 38,
                "velocity": 32,
                "duration": 0.08181818181818179,
                "tempo": 120.0
            },
            {
                "start_time": 0.6818181818181818,
                "end_time": 0.859090909090909,
                "pitch": 43,
                "velocity": 32,
                "duration": 0.17727272727272725,
                "tempo": 120.0
            },
            {
                "start_time": 0.875,
                "end_time": 0.9568181818181818,
                "pitch": 41,
                "velocity": 32,
                "duration": 0.08181818181818179,
                "tempo": 120.0
            },
            {
                "start_time": 0.9727272727272727,
                "end_time": 1.1568181818181817,
                "pitch": 45,
                "velocity": 32,
                "duration": 0.18409090909090908,
                "tempo": 120.0
            },
            {
                "start_time": 1.1727272727272726,
                "end_time": 1.2568181818181818,
                "pitch": 41,
                "velocity": 32,
                "duration": 0.08409090909090922,
                "tempo": 120.0
            },
            {
                "start_time": 1.2727272727272727,
                "end_time": 1.4568181818181818,
                "pitch": 41,
                "velocity": 32,
                "duration": 0.18409090909090908,
                "tempo": 120.0
            },
            {
                "start_time": 1.4727272727272727,
                "end_time": 1.6568181818181817,
                "pitch": 48,
                "velocity": 32,
                "duration": 0.18409090909090908,
                "tempo": 120.0
            },
            {
                "start_time": 1.775,
                "end_time": 1.859090909090909,
                "pitch": 41,
                "velocity": 32,
                "duration": 0.084090909090909,
                "tempo": 120.0
            },
            {
                "start_time": 1.875,
                "end_time": 1.959090909090909,
                "pitch": 43,
                "velocity": 32,
                "duration": 0.084090909090909,
                "tempo": 120.0
            },
            {
                "start_time": 1.977272727272727,
                "end_time": 2.061363636363636,
                "pitch": 31,
                "velocity": 32,
                "duration": 0.084090909090909,
                "tempo": 120.0
            },
            {
                "start_time": 2.077272727272727,
                "end_time": 2.161363636363636,
                "pitch": 36,
                "velocity": 32,
                "duration": 0.084090909090909,
                "tempo": 120.0
            },
            {
                "start_time": 2.1795454545454542,
                "end_time": 2.3613636363636363,
                "pitch": 38,
                "velocity": 32,
                "duration": 0.1818181818181821,
                "tempo": 120.0
            },
            {
                "start_time": 2.3795454545454544,
                "end_time": 2.4613636363636364,
                "pitch": 38,
                "velocity": 32,
                "duration": 0.08181818181818201,
                "tempo": 120.0
            },
            {
                "start_time": 2.4795454545454545,
                "end_time": 2.661363636363636,
                "pitch": 44,
                "velocity": 32,
                "duration": 0.18181818181818166,
                "tempo": 120.0
            },
            {
                "start_time": 2.6795454545454542,
                "end_time": 2.7613636363636362,
                "pitch": 41,
                "velocity": 32,
                "duration": 0.08181818181818201,
                "tempo": 120.0
            },
            {
                "start_time": 2.9795454545454545,
                "end_time": 3.065909090909091,
                "pitch": 38,
                "velocity": 32,
                "duration": 0.08636363636363642,
                "tempo": 120.0
            },
            {
                "start_time": 3.0818181818181816,
                "end_time": 3.2659090909090907,
                "pitch": 43,
                "velocity": 32,
                "duration": 0.18409090909090908,
                "tempo": 120.0
            },
            {
                "start_time": 3.2840909090909087,
                "end_time": 3.368181818181818,
                "pitch": 41,
                "velocity": 32,
                "duration": 0.08409090909090944,
                "tempo": 120.0
            },
            {
                "start_time": 3.384090909090909,
                "end_time": 3.5704545454545453,
                "pitch": 44,
                "velocity": 32,
                "duration": 0.1863636363636365,
                "tempo": 120.0
            },
            {
                "start_time": 3.586363636363636,
                "end_time": 3.6704545454545454,
                "pitch": 41,
                "velocity": 32,
                "duration": 0.08409090909090944,
                "tempo": 120.0
            },
            {
                "start_time": 3.6886363636363635,
                "end_time": 3.8727272727272726,
                "pitch": 41,
                "velocity": 32,
                "duration": 0.18409090909090908,
                "tempo": 120.0
            },
            {
                "start_time": 3.8886363636363637,
                "end_time": 4.075,
                "pitch": 48,
                "velocity": 32,
                "duration": 0.1863636363636365,
                "tempo": 120.0
            },
            {
                "start_time": 4.1909090909090905,
                "end_time": 4.2749999999999995,
                "pitch": 41,
                "velocity": 32,
                "duration": 0.084090909090909,
                "tempo": 120.0
            },
            {
                "start_time": 4.290909090909091,
                "end_time": 4.475,
                "pitch": 43,
                "velocity": 32,
                "duration": 0.18409090909090864,
                "tempo": 120.0
            },
            {
                "start_time": 4.49090909090909,
                "end_time": 4.575,
                "pitch": 36,
                "velocity": 32,
                "duration": 0.08409090909090988,
                "tempo": 120.0
            }
        ],
        "Acoustic Grand Piano": [
            {
                "start_time": 0.0,
                "end_time": 2.161363636363636,
                "pitch": 57,
                "velocity": 40,
                "duration": 2.161363636363636,
                "tempo": 120.0
            },
            {
                "start_time": 2.1795454545454542,
                "end_time": 4.575,
                "pitch": 56,
                "velocity": 40,
                "duration": 2.395454545454546,
                "tempo": 120.0
            }
        ]
    }
}