{
    "track_id": "BMX Trial - Alex Kidd - 01 - Blackwood Forest _ Cactus Desert",
    "mood": "happy",
    "instruments": {
        "Acoustic Grand Piano": [
            {
                "start_time": 9.85681818181818,
                "end_time": 9.99090909090909,
                "pitch": 82,
                "velocity": 80,
                "duration": 0.1340909090909097,
                "tempo": 120.0
            },
            {
                "start_time": 10.009090909090908,
                "end_time": 10.143181818181818,
                "pitch": 82,
                "velocity": 80,
                "duration": 0.1340909090909097,
                "tempo": 120.0
            },
            {
                "start_time": 10.159090909090908,
                "end_time": 10.445454545454545,
                "pitch": 81,
                "velocity": 80,
                "duration": 0.28636363636363704,
                "tempo": 120.0
            },
            {
                "start_time": 10.463636363636363,
                "end_time": 10.595454545454546,
                "pitch": 82,
                "velocity": 80,
                "duration": 0.13181818181818272,
                "tempo": 120.0
            },
            {
                "start_time": 10.611363636363636,
                "end_time": 10.893181818181818,
                "pitch": 84,
                "velocity": 80,
                "duration": 0.2818181818181813,
                "tempo": 120.0
            },
            {
                "start_time": 10.909090909090908,
                "end_time": 11.040909090909091,
                "pitch": 84,
                "velocity": 80,
                "duration": 0.13181818181818272,
                "tempo": 120.0
            },
            {
                "start_time": 11.056818181818182,
                "end_time": 11.34090909090909,
                "pitch": 82,
                "velocity": 80,
                "duration": 0.2840909090909083,
                "tempo": 120.0
            },
            {
                "start_time": 11.35681818181818,
                "end_time": 11.64090909090909,
                "pitch": 81,
                "velocity": 80,
                "duration": 0.28409090909091006,
                "tempo": 120.0
            },
            {
                "start_time": 11.656818181818181,
                "end_time": 11.793181818181818,
                "pitch": 82,
                "velocity": 80,
                "duration": 0.1363636363636367,
                "tempo": 120.0
            },
            {
                "start_time": 11.809090909090909,
                "end_time": 12.1,
                "pitch": 77,
                "velocity": 80,
                "duration": 0.290909090909091,
                "tempo": 120.0
            },
            {
                "start_time": 12.11590909090909,
                "end_time": 12.252272727272727,
                "pitch": 77,
                "velocity": 80,
                "duration": 0.1363636363636367,
                "tempo": 120.0
            },
            {
                "start_time": 12.270454545454545,
                "end_time": 12.852272727272727,
                "pitch": 77,
                "velocity": 80,
                "duration": 0.581818181818182,
                "tempo": 120.0
            },
            {
                "start_time": 12.870454545454544,
                "end_time": 13.002272727272727,
                "pitch": 79,
                "velocity": 80,
                "duration": 0.13181818181818272,
                "tempo": 120.0
            },
            {
                "start_time": 13.018181818181818,
                "end_time": 13.897727272727272,
                "pitch": 77,
                "velocity": 80,
                "duration": 0.879545454545454,
                "tempo": 120.0
            },
            {
                "start_time": 13.913636363636362,
                "end_time": 14.047727272727272,
                "pitch": 76,
                "velocity": 80,
                "duration": 0.1340909090909097,
                "tempo": 120.0
            },
            {
                "start_time": 14.063636363636363,
                "end_time": 14.2,
                "pitch": 77,
                "velocity": 80,
                "duration": 0.1363636363636367,
                "tempo": 120.0
            },
            {
                "start_time": 14.21590909090909,
                "end_time": 14.352272727272727,
                "pitch": 79,
                "velocity": 80,
                "duration": 0.1363636363636367,
                "tempo": 120.0
            },
            {
                "start_time": 14.674999999999999,
                "end_time": 14.806818181818182,
                "pitch": 84,
                "velocity": 80,
                "duration": 0.13181818181818272,
                "tempo": 120.0
            },
            {
                "start_time": 14.825,
                "end_time": 14.95681818181818,
                "pitch": 84,
                "velocity": 80,
                "duration": 0.13181818181818095,
                "tempo": 120.0
            },
            {
                "start_time": 14.972727272727273,
                "end_time": 15.252272727272727,
                "pitch": 83,
                "velocity": 80,
                "duration": 0.2795454545454543,
                "tempo": 120.0
            },
            {
                "start_time": 15.270454545454545,
                "end_time": 15.404545454545454,
                "pitch": 84,
                "velocity": 80,
                "duration": 0.1340909090909097,
                "tempo": 120.0
            },
            {
                "start_time": 15.422727272727272,
                "end_time": 15.711363636363636,
                "pitch": 87,
                "velocity": 80,
                "duration": 0.288636363636364,
                "tempo": 120.0
            },
            {
                "start_time": 15.729545454545454,
                "end_time": 15.863636363636363,
                "pitch": 87,
                "velocity": 80,
                "duration": 0.1340909090909097,
                "tempo": 120.0
            },
            {
                "start_time": 15.881818181818181,
                "end_time": 16.168181818181818,
                "pitch": 87,
                "velocity": 80,
                "duration": 0.28636363636363704,
                "tempo": 120.0
            },
            {
                "start_time": 16.18409090909091,
                "end_time": 16.320454545454545,
                "pitch": 87,
                "velocity": 80,
                "duration": 0.1363636363636367,
                "tempo": 120.0
            },
            {
                "start_time": 16.336363636363636,
                "end_time": 16.620454545454546,
                "pitch": 86,
                "velocity": 80,
                "duration": 0.28409090909091006,
                "tempo": 120.0
            },
            {
                "start_time": 16.638636363636362,
                "end_time": 16.770454545454545,
                "pitch": 84,
                "velocity": 80,
                "duration": 0.13181818181818272,
                "tempo": 120.0
            },
            {
                "start_time": 17.08863636363636,
                "end_time": 17.368181818181817,
                "pitch": 86,
                "velocity": 80,
                "duration": 0.2795454545454561,
                "tempo": 120.0
            },
            {
                "start_time": 17.384090909090908,
                "end_time": 17.66590909090909,
                "pitch": 86,
                "velocity": 80,
                "duration": 0.2818181818181813,
                "tempo": 120.0
            },
            {
                "start_time": 17.68181818181818,
                "end_time": 17.818181818181817,
                "pitch": 84,
                "velocity": 80,
                "duration": 0.1363636363636367,
                "tempo": 120.0
            },
            {
                "start_time": 17.834090909090907,
                "end_time": 18.125,
                "pitch": 89,
                "velocity": 80,
                "duration": 0.2909090909090928,
                "tempo": 120.0
            },
            {
                "start_time": 18.14090909090909,
                "end_time": 18.277272727272727,
                "pitch": 89,
                "velocity": 80,
                "duration": 0.1363636363636367,
                "tempo": 120.0
            },
            {
                "start_time": 18.293181818181818,
                "end_time": 18.427272727272726,
                "pitch": 89,
                "velocity": 80,
                "duration": 0.13409090909090793,
                "tempo": 120.0
            },
            {
                "start_time": 18.743181818181817,
                "end_time": 18.877272727272725,
                "pitch": 89,
                "velocity": 80,
                "duration": 0.13409090909090793,
                "tempo": 120.0
            },
            {
                "start_time": 18.893181818181816,
                "end_time": 19.029545454545453,
                "pitch": 87,
                "velocity": 80,
                "duration": 0.1363636363636367,
                "tempo": 120.0
            },
            {
                "start_time": 19.045454545454543,
                "end_time": 19.179545454545455,
                "pitch": 86,
                "velocity": 80,
                "duration": 0.13409090909091148,
                "tempo": 120.0
            },
            {
                "start_time": 19.5,
                "end_time": 19.63181818181818,
                "pitch": 82,
                "velocity": 80,
                "duration": 0.13181818181817917,
                "tempo": 120.0
            },
            {
                "start_time": 19.647727272727273,
                "end_time": 19.779545454545453,
                "pitch": 82,
                "velocity": 80,
                "duration": 0.13181818181817917,
                "tempo": 120.0
            },
            {
                "start_time": 19.797727272727272,
                "end_time": 20.077272727272728,
                "pitch": 81,
                "velocity": 80,
                "duration": 0.2795454545454561,
                "tempo": 120.0
            },
            {
                "start_time": 20.09318181818182,
                "end_time": 20.227272727272727,
                "pitch": 82,
                "velocity": 80,
                "duration": 0.13409090909090793,
                "tempo": 120.0
            },
            {
                "start_time": 20.243181818181817,
                "end_time": 20.527272727272727,
                "pitch": 84,
                "velocity": 80,
                "duration": 0.28409090909091006,
                "tempo": 120.0
            },
            {
                "start_time": 20.543181818181818,
                "end_time": 20.677272727272726,
                "pitch": 84,
                "velocity": 80,
                "duration": 0.13409090909090793,
                "tempo": 120.0
            },
            {
                "start_time": 20.693181818181817,
                "end_time": 20.98409090909091,
                "pitch": 82,
                "velocity": 80,
                "duration": 0.2909090909090928,
                "tempo": 120.0
            },
            {
                "start_time": 21.0,
                "end_time": 21.288636363636364,
                "pitch": 81,
                "velocity": 80,
                "duration": 0.288636363636364,
                "tempo": 120.0
            },
            {
                "start_time": 21.30681818181818,
                "end_time": 21.438636363636363,
                "pitch": 82,
                "velocity": 80,
                "duration": 0.13181818181818272,
                "tempo": 120.0
            },
            {
                "start_time": 21.456818181818182,
                "end_time": 21.738636363636363,
                "pitch": 77,
                "velocity": 80,
                "duration": 0.2818181818181813,
                "tempo": 120.0
            },
            {
                "start_time": 21.75681818181818,
                "end_time": 21.888636363636362,
                "pitch": 77,
                "velocity": 80,
                "duration": 0.13181818181818272,
                "tempo": 120.0
            },
            {
                "start_time": 21.90681818181818,
                "end_time": 22.48409090909091,
                "pitch": 77,
                "velocity": 80,
                "duration": 0.577272727272728,
                "tempo": 120.0
            },
            {
                "start_time": 22.5,
                "end_time": 22.634090909090908,
                "pitch": 79,
                "velocity": 80,
                "duration": 0.13409090909090793,
                "tempo": 120.0
            },
            {
                "start_time": 22.652272727272727,
                "end_time": 23.54090909090909,
                "pitch": 77,
                "velocity": 80,
                "duration": 0.8886363636363619,
                "tempo": 120.0
            },
            {
                "start_time": 23.55681818181818,
                "end_time": 23.69090909090909,
                "pitch": 76,
                "velocity": 80,
                "duration": 0.13409090909091148,
                "tempo": 120.0
            },
            {
                "start_time": 23.706818181818182,
                "end_time": 23.84318181818182,
                "pitch": 77,
                "velocity": 80,
                "duration": 0.1363636363636367,
                "tempo": 120.0
            },
            {
                "start_time": 23.85909090909091,
                "end_time": 23.995454545454546,
                "pitch": 79,
                "velocity": 80,
                "duration": 0.1363636363636367,
                "tempo": 120.0
            },
            {
                "start_time": 24.318181818181817,
                "end_time": 24.45,
                "pitch": 84,
                "velocity": 80,
                "duration": 0.13181818181818272,
                "tempo": 120.0
            },
            {
                "start_time": 24.46590909090909,
                "end_time": 24.599999999999998,
                "pitch": 84,
                "velocity": 80,
                "duration": 0.13409090909090793,
                "tempo": 120.0
            },
            {
                "start_time": 24.61590909090909,
                "end_time": 24.895454545454545,
                "pitch": 83,
                "velocity": 80,
                "duration": 0.2795454545454561,
                "tempo": 120.0
            },
            {
                "start_time": 24.913636363636364,
                "end_time": 25.047727272727272,
                "pitch": 84,
                "velocity": 80,
                "duration": 0.13409090909090793,
                "tempo": 120.0
            },
            {
                "start_time": 25.06590909090909,
                "end_time": 25.354545454545452,
                "pitch": 87,
                "velocity": 80,
                "duration": 0.28863636363636047,
                "tempo": 120.0
            },
            {
                "start_time": 25.370454545454542,
                "end_time": 25.50681818181818,
                "pitch": 87,
                "velocity": 80,
                "duration": 0.1363636363636367,
                "tempo": 120.0
            },
            {
                "start_time": 25.525,
                "end_time": 25.80909090909091,
                "pitch": 87,
                "velocity": 80,
                "duration": 0.28409090909091006,
                "tempo": 120.0
            },
            {
                "start_time": 25.825,
                "end_time": 25.959090909090907,
                "pitch": 87,
                "velocity": 80,
                "duration": 0.13409090909090793,
                "tempo": 120.0
            },
            {
                "start_time": 25.974999999999998,
                "end_time": 26.25681818181818,
                "pitch": 86,
                "velocity": 80,
                "duration": 0.2818181818181813,
                "tempo": 120.0
            },
            {
                "start_time": 26.27272727272727,
                "end_time": 26.404545454545453,
                "pitch": 84,
                "velocity": 80,
                "duration": 0.13181818181818272,
                "tempo": 120.0
            },
            {
                "start_time": 26.422727272727272,
                "end_time": 27.611363636363635,
                "pitch": 82,
                "velocity": 80,
                "duration": 1.1886363636363626,
                "tempo": 120.0
            },
            {
                "start_time": 38.804545454545455,
                "end_time": 38.93636363636364,
                "pitch": 82,
                "velocity": 80,
                "duration": 0.13181818181818272,
                "tempo": 120.0
            },
            {
                "start_time": 38.95227272727273,
                "end_time": 39.084090909090904,
                "pitch": 82,
                "velocity": 80,
                "duration": 0.13181818181817562,
                "tempo": 120.0
            },
            {
                "start_time": 39.1,
                "end_time": 39.38181818181818,
                "pitch": 81,
                "velocity": 80,
                "duration": 0.2818181818181813,
                "tempo": 120.0
            },
            {
                "start_time": 39.39772727272727,
                "end_time": 39.53181818181818,
                "pitch": 82,
                "velocity": 80,
                "duration": 0.13409090909090793,
                "tempo": 120.0
            },
            {
                "start_time": 39.55,
                "end_time": 39.836363636363636,
                "pitch": 84,
                "velocity": 80,
                "duration": 0.2863636363636388,
                "tempo": 120.0
            },
            {
                "start_time": 39.85227272727273,
                "end_time": 39.986363636363635,
                "pitch": 84,
                "velocity": 80,
                "duration": 0.13409090909090793,
                "tempo": 120.0
            },
            {
                "start_time": 40.00454545454545,
                "end_time": 40.29090909090909,
                "pitch": 82,
                "velocity": 80,
                "duration": 0.2863636363636388,
                "tempo": 120.0
            },
            {
                "start_time": 40.30681818181818,
                "end_time": 40.59318181818182,
                "pitch": 81,
                "velocity": 80,
                "duration": 0.2863636363636388,
                "tempo": 120.0
            },
            {
                "start_time": 40.60909090909091,
                "end_time": 40.74318181818182,
                "pitch": 82,
                "velocity": 80,
                "duration": 0.13409090909090793,
                "tempo": 120.0
            },
            {
                "start_time": 40.75909090909091,
                "end_time": 41.043181818181814,
                "pitch": 77,
                "velocity": 80,
                "duration": 0.2840909090909065,
                "tempo": 120.0
            },
            {
                "start_time": 41.059090909090905,
                "end_time": 41.19318181818181,
                "pitch": 77,
                "velocity": 80,
                "duration": 0.13409090909090793,
                "tempo": 120.0
            },
            {
                "start_time": 41.209090909090904,
                "end_time": 41.8,
                "pitch": 77,
                "velocity": 80,
                "duration": 0.5909090909090935,
                "tempo": 120.0
            },
            {
                "start_time": 41.81590909090909,
                "end_time": 41.949999999999996,
                "pitch": 79,
                "velocity": 80,
                "duration": 0.13409090909090793,
                "tempo": 120.0
            },
            {
                "start_time": 41.96818181818182,
                "end_time": 42.85909090909091,
                "pitch": 77,
                "velocity": 80,
                "duration": 0.8909090909090907,
                "tempo": 120.0
            },
            {
                "start_time": 42.877272727272725,
                "end_time": 43.01136363636363,
                "pitch": 76,
                "velocity": 80,
                "duration": 0.13409090909090793,
                "tempo": 120.0
            },
            {
                "start_time": 43.027272727272724,
                "end_time": 43.163636363636364,
                "pitch": 77,
                "velocity": 80,
                "duration": 0.13636363636364024,
                "tempo": 120.0
            },
            {
                "start_time": 43.18181818181818,
                "end_time": 43.31818181818181,
                "pitch": 79,
                "velocity": 80,
                "duration": 0.13636363636363313,
                "tempo": 120.0
            },
            {
                "start_time": 43.64090909090909,
                "end_time": 43.77272727272727,
                "pitch": 84,
                "velocity": 80,
                "duration": 0.13181818181818272,
                "tempo": 120.0
            },
            {
                "start_time": 43.788636363636364,
                "end_time": 43.92045454545455,
                "pitch": 84,
                "velocity": 80,
                "duration": 0.13181818181818272,
                "tempo": 120.0
            },
            {
                "start_time": 43.93636363636364,
                "end_time": 44.21818181818182,
                "pitch": 83,
                "velocity": 80,
                "duration": 0.2818181818181813,
                "tempo": 120.0
            },
            {
                "start_time": 44.23409090909091,
                "end_time": 44.36818181818182,
                "pitch": 84,
                "velocity": 80,
                "duration": 0.13409090909090793,
                "tempo": 120.0
            },
            {
                "start_time": 44.38636363636363,
                "end_time": 44.67272727272727,
                "pitch": 87,
                "velocity": 80,
                "duration": 0.2863636363636388,
                "tempo": 120.0
            },
            {
                "start_time": 44.68863636363636,
                "end_time": 44.82272727272727,
                "pitch": 87,
                "velocity": 80,
                "duration": 0.13409090909090793,
                "tempo": 120.0
            },
            {
                "start_time": 44.840909090909086,
                "end_time": 45.127272727272725,
                "pitch": 87,
                "velocity": 80,
                "duration": 0.2863636363636388,
                "tempo": 120.0
            },
            {
                "start_time": 45.143181818181816,
                "end_time": 45.277272727272724,
                "pitch": 87,
                "velocity": 80,
                "duration": 0.13409090909090793,
                "tempo": 120.0
            },
            {
                "start_time": 45.29545454545455,
                "end_time": 45.58181818181818,
                "pitch": 86,
                "velocity": 80,
                "duration": 0.2863636363636317,
                "tempo": 120.0
            },
            {
                "start_time": 45.59772727272727,
                "end_time": 45.73181818181818,
                "pitch": 84,
                "velocity": 80,
                "duration": 0.13409090909090793,
                "tempo": 120.0
            },
            {
                "start_time": 46.05227272727272,
                "end_time": 46.33863636363636,
                "pitch": 86,
                "velocity": 80,
                "duration": 0.2863636363636388,
                "tempo": 120.0
            },
            {
                "start_time": 46.35681818181818,
                "end_time": 46.64090909090909,
                "pitch": 86,
                "velocity": 80,
                "duration": 0.2840909090909136,
                "tempo": 120.0
            },
            {
                "start_time": 46.65909090909091,
                "end_time": 46.79090909090909,
                "pitch": 84,
                "velocity": 80,
                "duration": 0.13181818181818272,
                "tempo": 120.0
            },
            {
                "start_time": 46.809090909090905,
                "end_time": 47.090909090909086,
                "pitch": 89,
                "velocity": 80,
                "duration": 0.2818181818181813,
                "tempo": 120.0
            },
            {
                "start_time": 47.10909090909091,
                "end_time": 47.24090909090909,
                "pitch": 89,
                "velocity": 80,
                "duration": 0.13181818181818272,
                "tempo": 120.0
            },
            {
                "start_time": 47.25909090909091,
                "end_time": 47.393181818181816,
                "pitch": 89,
                "velocity": 80,
                "duration": 0.13409090909090793,
                "tempo": 120.0
            },
            {
                "start_time": 47.71363636363636,
                "end_time": 47.84772727272727,
                "pitch": 89,
                "velocity": 80,
                "duration": 0.13409090909090793,
                "tempo": 120.0
            },
            {
                "start_time": 47.86590909090909,
                "end_time": 48.0,
                "pitch": 87,
                "velocity": 80,
                "duration": 0.13409090909090793,
                "tempo": 120.0
            },
            {
                "start_time": 48.018181818181816,
                "end_time": 48.15454545454545,
                "pitch": 86,
                "velocity": 80,
                "duration": 0.13636363636363313,
                "tempo": 120.0
            },
            {
                "start_time": 48.47727272727273,
                "end_time": 48.60909090909091,
                "pitch": 82,
                "velocity": 80,
                "duration": 0.13181818181818272,
                "tempo": 120.0
            },
            {
                "start_time": 48.625,
                "end_time": 48.75681818181818,
                "pitch": 82,
                "velocity": 80,
                "duration": 0.13181818181818272,
                "tempo": 120.0
            },
            {
                "start_time": 48.775,
                "end_time": 49.054545454545455,
                "pitch": 81,
                "velocity": 80,
                "duration": 0.2795454545454561,
                "tempo": 120.0
            },
            {
                "start_time": 49.070454545454545,
                "end_time": 49.20454545454545,
                "pitch": 82,
                "velocity": 80,
                "duration": 0.13409090909090793,
                "tempo": 120.0
            },
            {
                "start_time": 49.22272727272727,
                "end_time": 49.50909090909091,
                "pitch": 84,
                "velocity": 80,
                "duration": 0.2863636363636388,
                "tempo": 120.0
            },
            {
                "start_time": 49.525,
                "end_time": 49.65909090909091,
                "pitch": 84,
                "velocity": 80,
                "duration": 0.13409090909090793,
                "tempo": 120.0
            },
            {
                "start_time": 49.67727272727272,
                "end_time": 49.965909090909086,
                "pitch": 82,
                "velocity": 80,
                "duration": 0.288636363636364,
                "tempo": 120.0
            },
            {
                "start_time": 49.98409090909091,
                "end_time": 50.27272727272727,
                "pitch": 81,
                "velocity": 80,
                "duration": 0.288636363636364,
                "tempo": 120.0
            },
            {
                "start_time": 50.288636363636364,
                "end_time": 50.42045454545454,
                "pitch": 82,
                "velocity": 80,
                "duration": 0.13181818181817562,
                "tempo": 120.0
            },
            {
                "start_time": 50.43863636363636,
                "end_time": 50.71818181818182,
                "pitch": 77,
                "velocity": 80,
                "duration": 0.2795454545454561,
                "tempo": 120.0
            },
            {
                "start_time": 50.73409090909091,
                "end_time": 50.865909090909085,
                "pitch": 77,
                "velocity": 80,
                "duration": 0.13181818181817562,
                "tempo": 120.0
            },
            {
                "start_time": 50.88409090909091,
                "end_time": 51.47727272727273,
                "pitch": 77,
                "velocity": 80,
                "duration": 0.5931818181818187,
                "tempo": 120.0
            },
            {
                "start_time": 51.49545454545454,
                "end_time": 51.627272727272725,
                "pitch": 79,
                "velocity": 80,
                "duration": 0.13181818181818272,
                "tempo": 120.0
            },
            {
                "start_time": 51.643181818181816,
                "end_time": 52.527272727272724,
                "pitch": 77,
                "velocity": 80,
                "duration": 0.8840909090909079,
                "tempo": 120.0
            },
            {
                "start_time": 52.543181818181814,
                "end_time": 52.679545454545455,
                "pitch": 76,
                "velocity": 80,
                "duration": 0.13636363636364024,
                "tempo": 120.0
            },
            {
                "start_time": 52.695454545454545,
                "end_time": 52.83181818181818,
                "pitch": 77,
                "velocity": 80,
                "duration": 0.13636363636363313,
                "tempo": 120.0
            },
            {
                "start_time": 52.84772727272727,
                "end_time": 52.98409090909091,
                "pitch": 79,
                "velocity": 80,
                "duration": 0.13636363636364024,
                "tempo": 120.0
            },
            {
                "start_time": 53.30681818181818,
                "end_time": 53.43863636363636,
                "pitch": 84,
                "velocity": 80,
                "duration": 0.13181818181818272,
                "tempo": 120.0
            },
            {
                "start_time": 53.45681818181818,
                "end_time": 53.58863636363636,
                "pitch": 84,
                "velocity": 80,
                "duration": 0.13181818181818272,
                "tempo": 120.0
            },
            {
                "start_time": 53.60454545454545,
                "end_time": 53.88409090909091,
                "pitch": 83,
                "velocity": 80,
                "duration": 0.2795454545454561,
                "tempo": 120.0
            },
            {
                "start_time": 53.902272727272724,
                "end_time": 54.03636363636363,
                "pitch": 84,
                "velocity": 80,
                "duration": 0.13409090909090793,
                "tempo": 120.0
            },
            {
                "start_time": 54.054545454545455,
                "end_time": 54.34318181818182,
                "pitch": 87,
                "velocity": 80,
                "duration": 0.288636363636364,
                "tempo": 120.0
            },
            {
                "start_time": 54.361363636363635,
                "end_time": 54.49545454545454,
                "pitch": 87,
                "velocity": 80,
                "duration": 0.13409090909090793,
                "tempo": 120.0
            },
            {
                "start_time": 54.51363636363636,
                "end_time": 54.8,
                "pitch": 87,
                "velocity": 80,
                "duration": 0.2863636363636388,
                "tempo": 120.0
            },
            {
                "start_time": 54.81590909090909,
                "end_time": 54.95227272727273,
                "pitch": 87,
                "velocity": 80,
                "duration": 0.13636363636364024,
                "tempo": 120.0
            },
            {
                "start_time": 54.96818181818182,
                "end_time": 55.252272727272725,
                "pitch": 86,
                "velocity": 80,
                "duration": 0.2840909090909065,
                "tempo": 120.0
            },
            {
                "start_time": 55.268181818181816,
                "end_time": 55.4,
                "pitch": 84,
                "velocity": 80,
                "duration": 0.13181818181818272,
                "tempo": 120.0
            },
            {
                "start_time": 55.41590909090909,
                "end_time": 56.599999999999994,
                "pitch": 82,
                "velocity": 80,
                "duration": 1.184090909090905,
                "tempo": 120.0
            }
        ],
        "Acoustic Bass": [
            {
                "start_time": 0.011363636363636364,
                "end_time": 0.07727272727272727,
                "pitch": 39,
                "velocity": 51,
                "duration": 0.0659090909090909,
                "tempo": 120.0
            },
            {
                "start_time": 0.08863636363636364,
                "end_time": 0.17727272727272728,
                "pitch": 51,
                "velocity": 51,
                "duration": 0.08863636363636364,
                "tempo": 120.0
            },
            {
                "start_time": 0.1909090909090909,
                "end_time": 0.3227272727272727,
                "pitch": 39,
                "velocity": 51,
                "duration": 0.1318181818181818,
                "tempo": 120.0
            },
            {
                "start_time": 0.3409090909090909,
                "end_time": 0.4727272727272727,
                "pitch": 51,
                "velocity": 51,
                "duration": 0.13181818181818183,
                "tempo": 120.0
            },
            {
                "start_time": 0.4909090909090909,
                "end_time": 0.6227272727272727,
                "pitch": 39,
                "velocity": 51,
                "duration": 0.13181818181818178,
                "tempo": 120.0
            },
            {
                "start_time": 0.6409090909090909,
                "end_time": 0.7727272727272727,
                "pitch": 51,
                "velocity": 51,
                "duration": 0.13181818181818183,
                "tempo": 120.0
            },
            {
                "start_time": 0.7909090909090909,
                "end_time": 0.9249999999999999,
                "pitch": 39,
                "velocity": 51,
                "duration": 0.13409090909090904,
                "tempo": 120.0
            },
            {
                "start_time": 0.9431818181818181,
                "end_time": 1.0795454545454546,
                "pitch": 51,
                "velocity": 51,
                "duration": 0.13636363636363646,
                "tempo": 120.0
            },
            {
                "start_time": 1.0954545454545455,
                "end_time": 1.2318181818181817,
                "pitch": 39,
                "velocity": 51,
                "duration": 0.13636363636363624,
                "tempo": 120.0
            },
            {
                "start_time": 1.25,
                "end_time": 1.384090909090909,
                "pitch": 51,
                "velocity": 51,
                "duration": 0.13409090909090904,
                "tempo": 120.0
            },
            {
                "start_time": 1.4022727272727271,
                "end_time": 1.534090909090909,
                "pitch": 39,
                "velocity": 51,
                "duration": 0.13181818181818183,
                "tempo": 120.0
            },
            {
                "start_time": 1.5499999999999998,
                "end_time": 1.6818181818181817,
                "pitch": 51,
                "velocity": 51,
                "duration": 0.13181818181818183,
                "tempo": 120.0
            },
            {
                "start_time": 1.7,
                "end_time": 1.8318181818181818,
                "pitch": 39,
                "velocity": 51,
                "duration": 0.13181818181818183,
                "tempo": 120.0
            },
            {
                "start_time": 1.8477272727272727,
                "end_time": 1.9795454545454545,
                "pitch": 48,
                "velocity": 51,
                "duration": 0.13181818181818183,
                "tempo": 120.0
            },
            {
                "start_time": 1.9954545454545454,
                "end_time": 2.131818181818182,
                "pitch": 50,
                "velocity": 51,
                "duration": 0.13636363636363646,
                "tempo": 120.0
            },
            {
                "start_time": 2.1477272727272725,
                "end_time": 2.2818181818181817,
                "pitch": 51,
                "velocity": 51,
                "duration": 0.13409090909090926,
                "tempo": 120.0
            },
            {
                "start_time": 2.3,
                "end_time": 2.434090909090909,
                "pitch": 41,
                "velocity": 51,
                "duration": 0.13409090909090926,
                "tempo": 120.0
            },
            {
                "start_time": 2.4499999999999997,
                "end_time": 2.5863636363636364,
                "pitch": 53,
                "velocity": 51,
                "duration": 0.1363636363636367,
                "tempo": 120.0
            },
            {
                "start_time": 2.602272727272727,
                "end_time": 2.7386363636363633,
                "pitch": 41,
                "velocity": 51,
                "duration": 0.13636363636363624,
                "tempo": 120.0
            },
            {
                "start_time": 2.7545454545454544,
                "end_time": 2.8909090909090907,
                "pitch": 53,
                "velocity": 51,
                "duration": 0.13636363636363624,
                "tempo": 120.0
            },
            {
                "start_time": 2.909090909090909,
                "end_time": 3.043181818181818,
                "pitch": 41,
                "velocity": 51,
                "duration": 0.13409090909090882,
                "tempo": 120.0
            },
            {
                "start_time": 3.061363636363636,
                "end_time": 3.1977272727272728,
                "pitch": 53,
                "velocity": 51,
                "duration": 0.1363636363636367,
                "tempo": 120.0
            },
            {
                "start_time": 3.2136363636363634,
                "end_time": 3.3454545454545452,
                "pitch": 41,
                "velocity": 51,
                "duration": 0.13181818181818183,
                "tempo": 120.0
            },
            {
                "start_time": 3.3636363636363633,
                "end_time": 3.495454545454545,
                "pitch": 53,
                "velocity": 51,
                "duration": 0.13181818181818183,
                "tempo": 120.0
            },
            {
                "start_time": 3.5113636363636362,
                "end_time": 3.643181818181818,
                "pitch": 41,
                "velocity": 51,
                "duration": 0.13181818181818183,
                "tempo": 120.0
            },
            {
                "start_time": 3.6590909090909087,
                "end_time": 3.7909090909090906,
                "pitch": 53,
                "velocity": 51,
                "duration": 0.13181818181818183,
                "tempo": 120.0
            },
            {
                "start_time": 3.809090909090909,
                "end_time": 3.943181818181818,
                "pitch": 41,
                "velocity": 51,
                "duration": 0.13409090909090882,
                "tempo": 120.0
            },
            {
                "start_time": 3.959090909090909,
                "end_time": 4.095454545454546,
                "pitch": 53,
                "velocity": 51,
                "duration": 0.1363636363636367,
                "tempo": 120.0
            },
            {
                "start_time": 4.111363636363636,
                "end_time": 4.245454545454545,
                "pitch": 41,
                "velocity": 51,
                "duration": 0.13409090909090882,
                "tempo": 120.0
            },
            {
                "start_time": 4.263636363636364,
                "end_time": 4.3977272727272725,
                "pitch": 55,
                "velocity": 51,
                "duration": 0.13409090909090882,
                "tempo": 120.0
            },
            {
                "start_time": 4.413636363636363,
                "end_time": 4.55,
                "pitch": 53,
                "velocity": 51,
                "duration": 0.1363636363636367,
                "tempo": 120.0
            },
            {
                "start_time": 4.5659090909090905,
                "end_time": 4.7,
                "pitch": 51,
                "velocity": 51,
                "duration": 0.1340909090909097,
                "tempo": 120.0
            },
            {
                "start_time": 4.718181818181818,
                "end_time": 4.852272727272727,
                "pitch": 39,
                "velocity": 51,
                "duration": 0.13409090909090882,
                "tempo": 120.0
            },
            {
                "start_time": 4.868181818181818,
                "end_time": 5.004545454545454,
                "pitch": 51,
                "velocity": 51,
                "duration": 0.1363636363636358,
                "tempo": 120.0
            },
            {
                "start_time": 5.0204545454545455,
                "end_time": 5.156818181818181,
                "pitch": 39,
                "velocity": 51,
                "duration": 0.1363636363636358,
                "tempo": 120.0
            },
            {
                "start_time": 5.172727272727273,
                "end_time": 5.309090909090909,
                "pitch": 51,
                "velocity": 51,
                "duration": 0.1363636363636358,
                "tempo": 120.0
            },
            {
                "start_time": 5.327272727272727,
                "end_time": 5.463636363636363,
                "pitch": 39,
                "velocity": 51,
                "duration": 0.1363636363636358,
                "tempo": 120.0
            },
            {
                "start_time": 5.4795454545454545,
                "end_time": 5.61590909090909,
                "pitch": 51,
                "velocity": 51,
                "duration": 0.1363636363636358,
                "tempo": 120.0
            },
            {
                "start_time": 5.631818181818182,
                "end_time": 5.768181818181818,
                "pitch": 39,
                "velocity": 51,
                "duration": 0.1363636363636358,
                "tempo": 120.0
            },
            {
                "start_time": 5.784090909090909,
                "end_time": 5.918181818181818,
                "pitch": 51,
                "velocity": 51,
                "duration": 0.13409090909090882,
                "tempo": 120.0
            },
            {
                "start_time": 5.9363636363636365,
                "end_time": 6.070454545454545,
                "pitch": 39,
                "velocity": 51,
                "duration": 0.13409090909090882,
                "tempo": 120.0
            },
            {
                "start_time": 6.086363636363636,
                "end_time": 6.222727272727273,
                "pitch": 51,
                "velocity": 51,
                "duration": 0.1363636363636367,
                "tempo": 120.0
            },
            {
                "start_time": 6.238636363636363,
                "end_time": 6.370454545454545,
                "pitch": 39,
                "velocity": 51,
                "duration": 0.13181818181818183,
                "tempo": 120.0
            },
            {
                "start_time": 6.386363636363636,
                "end_time": 6.518181818181818,
                "pitch": 51,
                "velocity": 51,
                "duration": 0.13181818181818183,
                "tempo": 120.0
            },
            {
                "start_time": 6.536363636363636,
                "end_time": 6.668181818181818,
                "pitch": 39,
                "velocity": 51,
                "duration": 0.13181818181818183,
                "tempo": 120.0
            },
            {
                "start_time": 6.684090909090909,
                "end_time": 6.8159090909090905,
                "pitch": 48,
                "velocity": 51,
                "duration": 0.13181818181818183,
                "tempo": 120.0
            },
            {
                "start_time": 6.831818181818181,
                "end_time": 6.965909090909091,
                "pitch": 50,
                "velocity": 51,
                "duration": 0.1340909090909097,
                "tempo": 120.0
            },
            {
                "start_time": 6.9818181818181815,
                "end_time": 7.11590909090909,
                "pitch": 51,
                "velocity": 51,
                "duration": 0.13409090909090882,
                "tempo": 120.0
            },
            {
                "start_time": 7.131818181818182,
                "end_time": 7.265909090909091,
                "pitch": 41,
                "velocity": 51,
                "duration": 0.13409090909090882,
                "tempo": 120.0
            },
            {
                "start_time": 7.281818181818181,
                "end_time": 7.3159090909090905,
                "pitch": 41,
                "velocity": 51,
                "duration": 0.03409090909090917,
                "tempo": 120.0
            },
            {
                "start_time": 7.886363636363636,
                "end_time": 8.022727272727272,
                "pitch": 41,
                "velocity": 51,
                "duration": 0.1363636363636358,
                "tempo": 120.0
            },
            {
                "start_time": 8.038636363636364,
                "end_time": 8.072727272727272,
                "pitch": 41,
                "velocity": 51,
                "duration": 0.034090909090908283,
                "tempo": 120.0
            },
            {
                "start_time": 8.65,
                "end_time": 8.931818181818182,
                "pitch": 46,
                "velocity": 51,
                "duration": 0.2818181818181813,
                "tempo": 120.0
            },
            {
                "start_time": 8.947727272727272,
                "end_time": 9.229545454545454,
                "pitch": 46,
                "velocity": 51,
                "duration": 0.2818181818181813,
                "tempo": 120.0
            },
            {
                "start_time": 9.245454545454544,
                "end_time": 9.534090909090908,
                "pitch": 46,
                "velocity": 51,
                "duration": 0.288636363636364,
                "tempo": 120.0
            },
            {
                "start_time": 9.549999999999999,
                "end_time": 9.686363636363636,
                "pitch": 39,
                "velocity": 51,
                "duration": 0.1363636363636367,
                "tempo": 120.0
            },
            {
                "start_time": 9.704545454545453,
                "end_time": 9.84090909090909,
                "pitch": 39,
                "velocity": 51,
                "duration": 0.1363636363636367,
                "tempo": 120.0
            },
            {
                "start_time": 9.85681818181818,
                "end_time": 9.99090909090909,
                "pitch": 51,
                "velocity": 51,
                "duration": 0.1340909090909097,
                "tempo": 120.0
            },
            {
                "start_time": 10.009090909090908,
                "end_time": 10.143181818181818,
                "pitch": 39,
                "velocity": 51,
                "duration": 0.1340909090909097,
                "tempo": 120.0
            },
            {
                "start_time": 10.159090909090908,
                "end_time": 10.295454545454545,
                "pitch": 39,
                "velocity": 51,
                "duration": 0.1363636363636367,
                "tempo": 120.0
            },
            {
                "start_time": 10.311363636363636,
                "end_time": 10.445454545454545,
                "pitch": 51,
                "velocity": 51,
                "duration": 0.1340909090909097,
                "tempo": 120.0
            },
            {
                "start_time": 10.463636363636363,
                "end_time": 10.595454545454546,
                "pitch": 39,
                "velocity": 51,
                "duration": 0.13181818181818272,
                "tempo": 120.0
            },
            {
                "start_time": 10.611363636363636,
                "end_time": 10.743181818181817,
                "pitch": 51,
                "velocity": 51,
                "duration": 0.13181818181818095,
                "tempo": 120.0
            },
            {
                "start_time": 10.759090909090908,
                "end_time": 10.893181818181818,
                "pitch": 39,
                "velocity": 51,
                "duration": 0.1340909090909097,
                "tempo": 120.0
            },
            {
                "start_time": 10.909090909090908,
                "end_time": 11.040909090909091,
                "pitch": 39,
                "velocity": 51,
                "duration": 0.13181818181818272,
                "tempo": 120.0
            },
            {
                "start_time": 11.056818181818182,
                "end_time": 11.19090909090909,
                "pitch": 51,
                "velocity": 51,
                "duration": 0.13409090909090793,
                "tempo": 120.0
            },
            {
                "start_time": 11.206818181818182,
                "end_time": 11.34090909090909,
                "pitch": 39,
                "velocity": 51,
                "duration": 0.13409090909090793,
                "tempo": 120.0
            },
            {
                "start_time": 11.35681818181818,
                "end_time": 11.49090909090909,
                "pitch": 39,
                "velocity": 51,
                "duration": 0.1340909090909097,
                "tempo": 120.0
            },
            {
                "start_time": 11.506818181818181,
                "end_time": 11.64090909090909,
                "pitch": 51,
                "velocity": 51,
                "duration": 0.1340909090909097,
                "tempo": 120.0
            },
            {
                "start_time": 11.656818181818181,
                "end_time": 11.793181818181818,
                "pitch": 39,
                "velocity": 51,
                "duration": 0.1363636363636367,
                "tempo": 120.0
            },
            {
                "start_time": 11.809090909090909,
                "end_time": 11.945454545454545,
                "pitch": 51,
                "velocity": 51,
                "duration": 0.1363636363636367,
                "tempo": 120.0
            },
            {
                "start_time": 11.963636363636363,
                "end_time": 12.1,
                "pitch": 34,
                "velocity": 51,
                "duration": 0.1363636363636367,
                "tempo": 120.0
            },
            {
                "start_time": 12.11590909090909,
                "end_time": 12.252272727272727,
                "pitch": 34,
                "velocity": 51,
                "duration": 0.1363636363636367,
                "tempo": 120.0
            },
            {
                "start_time": 12.270454545454545,
                "end_time": 12.402272727272727,
                "pitch": 46,
                "velocity": 51,
                "duration": 0.13181818181818272,
                "tempo": 120.0
            },
            {
                "start_time": 12.420454545454545,
                "end_time": 12.552272727272726,
                "pitch": 34,
                "velocity": 51,
                "duration": 0.13181818181818095,
                "tempo": 120.0
            },
            {
                "start_time": 12.570454545454545,
                "end_time": 12.702272727272726,
                "pitch": 34,
                "velocity": 51,
                "duration": 0.13181818181818095,
                "tempo": 120.0
            },
            {
                "start_time": 12.720454545454546,
                "end_time": 12.852272727272727,
                "pitch": 46,
                "velocity": 51,
                "duration": 0.13181818181818095,
                "tempo": 120.0
            },
            {
                "start_time": 12.870454545454544,
                "end_time": 13.002272727272727,
                "pitch": 34,
                "velocity": 51,
                "duration": 0.13181818181818272,
                "tempo": 120.0
            },
            {
                "start_time": 13.018181818181818,
                "end_time": 13.149999999999999,
                "pitch": 34,
                "velocity": 51,
                "duration": 0.13181818181818095,
                "tempo": 120.0
            },
            {
                "start_time": 13.165909090909091,
                "end_time": 13.297727272727272,
                "pitch": 34,
                "velocity": 51,
                "duration": 0.13181818181818095,
                "tempo": 120.0
            },
            {
                "start_time": 13.31590909090909,
                "end_time": 13.447727272727272,
                "pitch": 34,
                "velocity": 51,
                "duration": 0.13181818181818272,
                "tempo": 120.0
            },
            {
                "start_time": 13.463636363636363,
                "end_time": 13.597727272727273,
                "pitch": 46,
                "velocity": 51,
                "duration": 0.1340909090909097,
                "tempo": 120.0
            },
            {
                "start_time": 13.613636363636363,
                "end_time": 13.747727272727271,
                "pitch": 34,
                "velocity": 51,
                "duration": 0.13409090909090793,
                "tempo": 120.0
            },
            {
                "start_time": 13.763636363636364,
                "end_time": 13.897727272727272,
                "pitch": 48,
                "velocity": 51,
                "duration": 0.13409090909090793,
                "tempo": 120.0
            },
            {
                "start_time": 13.913636363636362,
                "end_time": 14.047727272727272,
                "pitch": 34,
                "velocity": 51,
                "duration": 0.1340909090909097,
                "tempo": 120.0
            },
            {
                "start_time": 14.063636363636363,
                "end_time": 14.2,
                "pitch": 46,
                "velocity": 51,
                "duration": 0.1363636363636367,
                "tempo": 120.0
            },
            {
                "start_time": 14.21590909090909,
                "end_time": 14.352272727272727,
                "pitch": 34,
                "velocity": 51,
                "duration": 0.1363636363636367,
                "tempo": 120.0
            },
            {
                "start_time": 14.370454545454544,
                "end_time": 14.504545454545454,
                "pitch": 41,
                "velocity": 51,
                "duration": 0.1340909090909097,
                "tempo": 120.0
            },
            {
                "start_time": 14.522727272727272,
                "end_time": 14.659090909090908,
                "pitch": 41,
                "velocity": 51,
                "duration": 0.1363636363636367,
                "tempo": 120.0
            },
            {
                "start_time": 14.674999999999999,
                "end_time": 14.806818181818182,
                "pitch": 53,
                "velocity": 51,
                "duration": 0.13181818181818272,
                "tempo": 120.0
            },
            {
                "start_time": 14.825,
                "end_time": 14.95681818181818,
                "pitch": 41,
                "velocity": 51,
                "duration": 0.13181818181818095,
                "tempo": 120.0
            },
            {
                "start_time": 14.972727272727273,
                "end_time": 15.104545454545454,
                "pitch": 41,
                "velocity": 51,
                "duration": 0.13181818181818095,
                "tempo": 120.0
            },
            {
                "start_time": 15.120454545454544,
                "end_time": 15.252272727272727,
                "pitch": 53,
                "velocity": 51,
                "duration": 0.13181818181818272,
                "tempo": 120.0
            },
            {
                "start_time": 15.270454545454545,
                "end_time": 15.404545454545454,
                "pitch": 41,
                "velocity": 51,
                "duration": 0.1340909090909097,
                "tempo": 120.0
            },
            {
                "start_time": 15.422727272727272,
                "end_time": 15.559090909090909,
                "pitch": 53,
                "velocity": 51,
                "duration": 0.1363636363636367,
                "tempo": 120.0
            },
            {
                "start_time": 15.575,
                "end_time": 15.711363636363636,
                "pitch": 41,
                "velocity": 51,
                "duration": 0.1363636363636367,
                "tempo": 120.0
            },
            {
                "start_time": 15.729545454545454,
                "end_time": 15.863636363636363,
                "pitch": 41,
                "velocity": 51,
                "duration": 0.1340909090909097,
                "tempo": 120.0
            },
            {
                "start_time": 15.881818181818181,
                "end_time": 16.01590909090909,
                "pitch": 53,
                "velocity": 51,
                "duration": 0.1340909090909097,
                "tempo": 120.0
            },
            {
                "start_time": 16.03409090909091,
                "end_time": 16.168181818181818,
                "pitch": 41,
                "velocity": 51,
                "duration": 0.13409090909090793,
                "tempo": 120.0
            },
            {
                "start_time": 16.18409090909091,
                "end_time": 16.320454545454545,
                "pitch": 53,
                "velocity": 51,
                "duration": 0.1363636363636367,
                "tempo": 120.0
            },
            {
                "start_time": 16.336363636363636,
                "end_time": 16.470454545454544,
                "pitch": 41,
                "velocity": 51,
                "duration": 0.13409090909090793,
                "tempo": 120.0
            },
            {
                "start_time": 16.488636363636363,
                "end_time": 16.620454545454546,
                "pitch": 55,
                "velocity": 51,
                "duration": 0.13181818181818272,
                "tempo": 120.0
            },
            {
                "start_time": 16.638636363636362,
                "end_time": 16.770454545454545,
                "pitch": 53,
                "velocity": 51,
                "duration": 0.13181818181818272,
                "tempo": 120.0
            },
            {
                "start_time": 16.788636363636364,
                "end_time": 16.920454545454543,
                "pitch": 38,
                "velocity": 51,
                "duration": 0.13181818181817917,
                "tempo": 120.0
            },
            {
                "start_time": 16.938636363636363,
                "end_time": 17.070454545454545,
                "pitch": 38,
                "velocity": 51,
                "duration": 0.13181818181818272,
                "tempo": 120.0
            },
            {
                "start_time": 17.08863636363636,
                "end_time": 17.220454545454544,
                "pitch": 34,
                "velocity": 51,
                "duration": 0.13181818181818272,
                "tempo": 120.0
            },
            {
                "start_time": 17.236363636363635,
                "end_time": 17.368181818181817,
                "pitch": 34,
                "velocity": 51,
                "duration": 0.13181818181818272,
                "tempo": 120.0
            },
            {
                "start_time": 17.384090909090908,
                "end_time": 17.51590909090909,
                "pitch": 46,
                "velocity": 51,
                "duration": 0.13181818181818272,
                "tempo": 120.0
            },
            {
                "start_time": 17.534090909090907,
                "end_time": 17.66590909090909,
                "pitch": 34,
                "velocity": 51,
                "duration": 0.13181818181818272,
                "tempo": 120.0
            },
            {
                "start_time": 17.68181818181818,
                "end_time": 17.970454545454544,
                "pitch": 46,
                "velocity": 51,
                "duration": 0.288636363636364,
                "tempo": 120.0
            },
            {
                "start_time": 17.988636363636363,
                "end_time": 18.125,
                "pitch": 41,
                "velocity": 51,
                "duration": 0.1363636363636367,
                "tempo": 120.0
            },
            {
                "start_time": 18.14090909090909,
                "end_time": 18.277272727272727,
                "pitch": 41,
                "velocity": 51,
                "duration": 0.1363636363636367,
                "tempo": 120.0
            },
            {
                "start_time": 18.293181818181818,
                "end_time": 18.427272727272726,
                "pitch": 53,
                "velocity": 51,
                "duration": 0.13409090909090793,
                "tempo": 120.0
            },
            {
                "start_time": 18.443181818181817,
                "end_time": 18.577272727272728,
                "pitch": 53,
                "velocity": 51,
                "duration": 0.13409090909091148,
                "tempo": 120.0
            },
            {
                "start_time": 18.59318181818182,
                "end_time": 18.727272727272727,
                "pitch": 56,
                "velocity": 51,
                "duration": 0.13409090909090793,
                "tempo": 120.0
            },
            {
                "start_time": 18.743181818181817,
                "end_time": 18.877272727272725,
                "pitch": 56,
                "velocity": 51,
                "duration": 0.13409090909090793,
                "tempo": 120.0
            },
            {
                "start_time": 18.893181818181816,
                "end_time": 19.029545454545453,
                "pitch": 53,
                "velocity": 51,
                "duration": 0.1363636363636367,
                "tempo": 120.0
            },
            {
                "start_time": 19.045454545454543,
                "end_time": 19.179545454545455,
                "pitch": 53,
                "velocity": 51,
                "duration": 0.13409090909091148,
                "tempo": 120.0
            },
            {
                "start_time": 19.19772727272727,
                "end_time": 19.331818181818182,
                "pitch": 39,
                "velocity": 51,
                "duration": 0.13409090909091148,
                "tempo": 120.0
            },
            {
                "start_time": 19.347727272727273,
                "end_time": 19.48409090909091,
                "pitch": 39,
                "velocity": 51,
                "duration": 0.1363636363636367,
                "tempo": 120.0
            },
            {
                "start_time": 19.5,
                "end_time": 19.63181818181818,
                "pitch": 51,
                "velocity": 51,
                "duration": 0.13181818181817917,
                "tempo": 120.0
            },
            {
                "start_time": 19.647727272727273,
                "end_time": 19.779545454545453,
                "pitch": 39,
                "velocity": 51,
                "duration": 0.13181818181817917,
                "tempo": 120.0
            },
            {
                "start_time": 19.797727272727272,
                "end_time": 19.929545454545455,
                "pitch": 39,
                "velocity": 51,
                "duration": 0.13181818181818272,
                "tempo": 120.0
            },
            {
                "start_time": 19.945454545454545,
                "end_time": 20.077272727272728,
                "pitch": 51,
                "velocity": 51,
                "duration": 0.13181818181818272,
                "tempo": 120.0
            },
            {
                "start_time": 20.09318181818182,
                "end_time": 20.227272727272727,
                "pitch": 39,
                "velocity": 51,
                "duration": 0.13409090909090793,
                "tempo": 120.0
            },
            {
                "start_time": 20.243181818181817,
                "end_time": 20.377272727272725,
                "pitch": 51,
                "velocity": 51,
                "duration": 0.13409090909090793,
                "tempo": 120.0
            },
            {
                "start_time": 20.393181818181816,
                "end_time": 20.527272727272727,
                "pitch": 39,
                "velocity": 51,
                "duration": 0.13409090909091148,
                "tempo": 120.0
            },
            {
                "start_time": 20.543181818181818,
                "end_time": 20.677272727272726,
                "pitch": 39,
                "velocity": 51,
                "duration": 0.13409090909090793,
                "tempo": 120.0
            },
            {
                "start_time": 20.693181818181817,
                "end_time": 20.829545454545453,
                "pitch": 51,
                "velocity": 51,
                "duration": 0.1363636363636367,
                "tempo": 120.0
            },
            {
                "start_time": 20.847727272727273,
                "end_time": 20.98409090909091,
                "pitch": 39,
                "velocity": 51,
                "duration": 0.1363636363636367,
                "tempo": 120.0
            },
            {
                "start_time": 21.0,
                "end_time": 21.136363636363637,
                "pitch": 39,
                "velocity": 51,
                "duration": 0.1363636363636367,
                "tempo": 120.0
            },
            {
                "start_time": 21.152272727272727,
                "end_time": 21.288636363636364,
                "pitch": 51,
                "velocity": 51,
                "duration": 0.1363636363636367,
                "tempo": 120.0
            },
            {
                "start_time": 21.30681818181818,
                "end_time": 21.438636363636363,
                "pitch": 39,
                "velocity": 51,
                "duration": 0.13181818181818272,
                "tempo": 120.0
            },
            {
                "start_time": 21.456818181818182,
                "end_time": 21.58863636363636,
                "pitch": 51,
                "velocity": 51,
                "duration": 0.13181818181817917,
                "tempo": 120.0
            },
            {
                "start_time": 21.60681818181818,
                "end_time": 21.738636363636363,
                "pitch": 34,
                "velocity": 51,
                "duration": 0.13181818181818272,
                "tempo": 120.0
            },
            {
                "start_time": 21.75681818181818,
                "end_time": 21.888636363636362,
                "pitch": 34,
                "velocity": 51,
                "duration": 0.13181818181818272,
                "tempo": 120.0
            },
            {
                "start_time": 21.90681818181818,
                "end_time": 22.038636363636364,
                "pitch": 46,
                "velocity": 51,
                "duration": 0.13181818181818272,
                "tempo": 120.0
            },
            {
                "start_time": 22.054545454545455,
                "end_time": 22.186363636363634,
                "pitch": 34,
                "velocity": 51,
                "duration": 0.13181818181817917,
                "tempo": 120.0
            },
            {
                "start_time": 22.202272727272724,
                "end_time": 22.336363636363636,
                "pitch": 34,
                "velocity": 51,
                "duration": 0.13409090909091148,
                "tempo": 120.0
            },
            {
                "start_time": 22.352272727272727,
                "end_time": 22.48409090909091,
                "pitch": 46,
                "velocity": 51,
                "duration": 0.13181818181818272,
                "tempo": 120.0
            },
            {
                "start_time": 22.5,
                "end_time": 22.634090909090908,
                "pitch": 34,
                "velocity": 51,
                "duration": 0.13409090909090793,
                "tempo": 120.0
            },
            {
                "start_time": 22.652272727272727,
                "end_time": 22.786363636363635,
                "pitch": 34,
                "velocity": 51,
                "duration": 0.13409090909090793,
                "tempo": 120.0
            },
            {
                "start_time": 22.804545454545455,
                "end_time": 22.938636363636363,
                "pitch": 34,
                "velocity": 51,
                "duration": 0.13409090909090793,
                "tempo": 120.0
            },
            {
                "start_time": 22.954545454545453,
                "end_time": 23.08863636363636,
                "pitch": 34,
                "velocity": 51,
                "duration": 0.13409090909090793,
                "tempo": 120.0
            },
            {
                "start_time": 23.10681818181818,
                "end_time": 23.24090909090909,
                "pitch": 46,
                "velocity": 51,
                "duration": 0.13409090909090793,
                "tempo": 120.0
            },
            {
                "start_time": 23.25681818181818,
                "end_time": 23.39090909090909,
                "pitch": 34,
                "velocity": 51,
                "duration": 0.13409090909091148,
                "tempo": 120.0
            },
            {
                "start_time": 23.40681818181818,
                "end_time": 23.54090909090909,
                "pitch": 48,
                "velocity": 51,
                "duration": 0.13409090909090793,
                "tempo": 120.0
            },
            {
                "start_time": 23.55681818181818,
                "end_time": 23.69090909090909,
                "pitch": 34,
                "velocity": 51,
                "duration": 0.13409090909091148,
                "tempo": 120.0
            },
            {
                "start_time": 23.706818181818182,
                "end_time": 23.84318181818182,
                "pitch": 46,
                "velocity": 51,
                "duration": 0.1363636363636367,
                "tempo": 120.0
            },
            {
                "start_time": 23.85909090909091,
                "end_time": 23.995454545454546,
                "pitch": 34,
                "velocity": 51,
                "duration": 0.1363636363636367,
                "tempo": 120.0
            },
            {
                "start_time": 24.011363636363637,
                "end_time": 24.14772727272727,
                "pitch": 41,
                "velocity": 51,
                "duration": 0.13636363636363313,
                "tempo": 120.0
            },
            {
                "start_time": 24.16590909090909,
                "end_time": 24.302272727272726,
                "pitch": 41,
                "velocity": 51,
                "duration": 0.1363636363636367,
                "tempo": 120.0
            },
            {
                "start_time": 24.318181818181817,
                "end_time": 24.45,
                "pitch": 53,
                "velocity": 51,
                "duration": 0.13181818181818272,
                "tempo": 120.0
            },
            {
                "start_time": 24.46590909090909,
                "end_time": 24.599999999999998,
                "pitch": 41,
                "velocity": 51,
                "duration": 0.13409090909090793,
                "tempo": 120.0
            },
            {
                "start_time": 24.61590909090909,
                "end_time": 24.74772727272727,
                "pitch": 41,
                "velocity": 51,
                "duration": 0.13181818181818272,
                "tempo": 120.0
            },
            {
                "start_time": 24.763636363636362,
                "end_time": 24.895454545454545,
                "pitch": 53,
                "velocity": 51,
                "duration": 0.13181818181818272,
                "tempo": 120.0
            },
            {
                "start_time": 24.913636363636364,
                "end_time": 25.047727272727272,
                "pitch": 41,
                "velocity": 51,
                "duration": 0.13409090909090793,
                "tempo": 120.0
            },
            {
                "start_time": 25.06590909090909,
                "end_time": 25.202272727272724,
                "pitch": 53,
                "velocity": 51,
                "duration": 0.13636363636363313,
                "tempo": 120.0
            },
            {
                "start_time": 25.21818181818182,
                "end_time": 25.354545454545452,
                "pitch": 41,
                "velocity": 51,
                "duration": 0.13636363636363313,
                "tempo": 120.0
            },
            {
                "start_time": 25.370454545454542,
                "end_time": 25.50681818181818,
                "pitch": 41,
                "velocity": 51,
                "duration": 0.1363636363636367,
                "tempo": 120.0
            },
            {
                "start_time": 25.525,
                "end_time": 25.659090909090907,
                "pitch": 53,
                "velocity": 51,
                "duration": 0.13409090909090793,
                "tempo": 120.0
            },
            {
                "start_time": 25.674999999999997,
                "end_time": 25.80909090909091,
                "pitch": 41,
                "velocity": 51,
                "duration": 0.13409090909091148,
                "tempo": 120.0
            },
            {
                "start_time": 25.825,
                "end_time": 25.959090909090907,
                "pitch": 55,
                "velocity": 51,
                "duration": 0.13409090909090793,
                "tempo": 120.0
            },
            {
                "start_time": 25.974999999999998,
                "end_time": 26.10909090909091,
                "pitch": 53,
                "velocity": 51,
                "duration": 0.13409090909091148,
                "tempo": 120.0
            },
            {
                "start_time": 26.125,
                "end_time": 26.25681818181818,
                "pitch": 51,
                "velocity": 51,
                "duration": 0.13181818181817917,
                "tempo": 120.0
            },
            {
                "start_time": 26.27272727272727,
                "end_time": 26.404545454545453,
                "pitch": 53,
                "velocity": 51,
                "duration": 0.13181818181818272,
                "tempo": 120.0
            },
            {
                "start_time": 26.422727272727272,
                "end_time": 26.554545454545455,
                "pitch": 39,
                "velocity": 51,
                "duration": 0.13181818181818272,
                "tempo": 120.0
            },
            {
                "start_time": 26.570454545454545,
                "end_time": 26.702272727272724,
                "pitch": 39,
                "velocity": 51,
                "duration": 0.13181818181817917,
                "tempo": 120.0
            },
            {
                "start_time": 26.718181818181815,
                "end_time": 26.854545454545452,
                "pitch": 51,
                "velocity": 51,
                "duration": 0.1363636363636367,
                "tempo": 120.0
            },
            {
                "start_time": 26.870454545454542,
                "end_time": 27.004545454545454,
                "pitch": 39,
                "velocity": 51,
                "duration": 0.13409090909091148,
                "tempo": 120.0
            },
            {
                "start_time": 27.02272727272727,
                "end_time": 27.15681818181818,
                "pitch": 51,
                "velocity": 51,
                "duration": 0.13409090909091148,
                "tempo": 120.0
            },
            {
                "start_time": 27.172727272727272,
                "end_time": 27.30909090909091,
                "pitch": 39,
                "velocity": 51,
                "duration": 0.1363636363636367,
                "tempo": 120.0
            },
            {
                "start_time": 27.325,
                "end_time": 27.459090909090907,
                "pitch": 51,
                "velocity": 51,
                "duration": 0.13409090909090793,
                "tempo": 120.0
            },
            {
                "start_time": 27.477272727272727,
                "end_time": 27.611363636363635,
                "pitch": 39,
                "velocity": 51,
                "duration": 0.13409090909090793,
                "tempo": 120.0
            },
            {
                "start_time": 27.627272727272725,
                "end_time": 27.763636363636362,
                "pitch": 51,
                "velocity": 51,
                "duration": 0.1363636363636367,
                "tempo": 120.0
            },
            {
                "start_time": 28.23181818181818,
                "end_time": 28.513636363636362,
                "pitch": 36,
                "velocity": 51,
                "duration": 0.2818181818181813,
                "tempo": 120.0
            },
            {
                "start_time": 28.53181818181818,
                "end_time": 28.818181818181817,
                "pitch": 38,
                "velocity": 51,
                "duration": 0.28636363636363527,
                "tempo": 120.0
            },
            {
                "start_time": 28.834090909090907,
                "end_time": 28.968181818181815,
                "pitch": 39,
                "velocity": 51,
                "duration": 0.13409090909090793,
                "tempo": 120.0
            },
            {
                "start_time": 28.986363636363635,
                "end_time": 29.120454545454542,
                "pitch": 51,
                "velocity": 51,
                "duration": 0.13409090909090793,
                "tempo": 120.0
            },
            {
                "start_time": 29.136363636363637,
                "end_time": 29.270454545454545,
                "pitch": 39,
                "velocity": 51,
                "duration": 0.13409090909090793,
                "tempo": 120.0
            },
            {
                "start_time": 29.286363636363635,
                "end_time": 29.420454545454543,
                "pitch": 51,
                "velocity": 51,
                "duration": 0.13409090909090793,
                "tempo": 120.0
            },
            {
                "start_time": 29.436363636363634,
                "end_time": 29.570454545454545,
                "pitch": 39,
                "velocity": 51,
                "duration": 0.13409090909091148,
                "tempo": 120.0
            },
            {
                "start_time": 29.586363636363636,
                "end_time": 29.720454545454544,
                "pitch": 51,
                "velocity": 51,
                "duration": 0.13409090909090793,
                "tempo": 120.0
            },
            {
                "start_time": 29.736363636363635,
                "end_time": 29.87272727272727,
                "pitch": 39,
                "velocity": 51,
                "duration": 0.1363636363636367,
                "tempo": 120.0
            },
            {
                "start_time": 29.888636363636362,
                "end_time": 30.02272727272727,
                "pitch": 51,
                "velocity": 51,
                "duration": 0.13409090909090793,
                "tempo": 120.0
            },
            {
                "start_time": 30.04090909090909,
                "end_time": 30.174999999999997,
                "pitch": 39,
                "velocity": 51,
                "duration": 0.13409090909090793,
                "tempo": 120.0
            },
            {
                "start_time": 30.190909090909088,
                "end_time": 30.327272727272724,
                "pitch": 51,
                "velocity": 51,
                "duration": 0.1363636363636367,
                "tempo": 120.0
            },
            {
                "start_time": 30.343181818181815,
                "end_time": 30.477272727272727,
                "pitch": 39,
                "velocity": 51,
                "duration": 0.13409090909091148,
                "tempo": 120.0
            },
            {
                "start_time": 30.495454545454542,
                "end_time": 30.629545454545454,
                "pitch": 51,
                "velocity": 51,
                "duration": 0.13409090909091148,
                "tempo": 120.0
            },
            {
                "start_time": 30.645454545454545,
                "end_time": 30.78181818181818,
                "pitch": 39,
                "velocity": 51,
                "duration": 0.1363636363636367,
                "tempo": 120.0
            },
            {
                "start_time": 30.797727272727272,
                "end_time": 30.93181818181818,
                "pitch": 48,
                "velocity": 51,
                "duration": 0.13409090909090793,
                "tempo": 120.0
            },
            {
                "start_time": 30.95,
                "end_time": 31.081818181818182,
                "pitch": 50,
                "velocity": 51,
                "duration": 0.13181818181818272,
                "tempo": 120.0
            },
            {
                "start_time": 31.099999999999998,
                "end_time": 31.23181818181818,
                "pitch": 51,
                "velocity": 51,
                "duration": 0.13181818181818272,
                "tempo": 120.0
            },
            {
                "start_time": 31.25,
                "end_time": 31.38181818181818,
                "pitch": 41,
                "velocity": 51,
                "duration": 0.13181818181817917,
                "tempo": 120.0
            },
            {
                "start_time": 31.4,
                "end_time": 31.53181818181818,
                "pitch": 53,
                "velocity": 51,
                "duration": 0.13181818181818272,
                "tempo": 120.0
            },
            {
                "start_time": 31.549999999999997,
                "end_time": 31.68409090909091,
                "pitch": 41,
                "velocity": 51,
                "duration": 0.13409090909091148,
                "tempo": 120.0
            },
            {
                "start_time": 31.702272727272724,
                "end_time": 31.83863636363636,
                "pitch": 53,
                "velocity": 51,
                "duration": 0.1363636363636367,
                "tempo": 120.0
            },
            {
                "start_time": 31.854545454545452,
                "end_time": 31.99090909090909,
                "pitch": 41,
                "velocity": 51,
                "duration": 0.1363636363636367,
                "tempo": 120.0
            },
            {
                "start_time": 32.00909090909091,
                "end_time": 32.143181818181816,
                "pitch": 53,
                "velocity": 51,
                "duration": 0.13409090909090793,
                "tempo": 120.0
            },
            {
                "start_time": 32.16136363636363,
                "end_time": 32.29545454545455,
                "pitch": 41,
                "velocity": 51,
                "duration": 0.13409090909091503,
                "tempo": 120.0
            },
            {
                "start_time": 32.31363636363636,
                "end_time": 32.44772727272727,
                "pitch": 53,
                "velocity": 51,
                "duration": 0.13409090909090793,
                "tempo": 120.0
            },
            {
                "start_time": 32.46363636363636,
                "end_time": 32.6,
                "pitch": 41,
                "velocity": 51,
                "duration": 0.13636363636364024,
                "tempo": 120.0
            },
            {
                "start_time": 32.61590909090909,
                "end_time": 32.75,
                "pitch": 53,
                "velocity": 51,
                "duration": 0.13409090909090793,
                "tempo": 120.0
            },
            {
                "start_time": 32.768181818181816,
                "end_time": 32.9,
                "pitch": 41,
                "velocity": 51,
                "duration": 0.13181818181818272,
                "tempo": 120.0
            },
            {
                "start_time": 32.918181818181814,
                "end_time": 33.05,
                "pitch": 53,
                "velocity": 51,
                "duration": 0.13181818181818272,
                "tempo": 120.0
            },
            {
                "start_time": 33.06818181818182,
                "end_time": 33.199999999999996,
                "pitch": 41,
                "velocity": 51,
                "duration": 0.13181818181817562,
                "tempo": 120.0
            },
            {
                "start_time": 33.21818181818182,
                "end_time": 33.35,
                "pitch": 55,
                "velocity": 51,
                "duration": 0.13181818181818272,
                "tempo": 120.0
            },
            {
                "start_time": 33.36818181818182,
                "end_time": 33.5,
                "pitch": 53,
                "velocity": 51,
                "duration": 0.13181818181818272,
                "tempo": 120.0
            },
            {
                "start_time": 33.51590909090909,
                "end_time": 33.64772727272727,
                "pitch": 51,
                "velocity": 51,
                "duration": 0.13181818181818272,
                "tempo": 120.0
            },
            {
                "start_time": 33.663636363636364,
                "end_time": 33.79545454545455,
                "pitch": 39,
                "velocity": 51,
                "duration": 0.13181818181818272,
                "tempo": 120.0
            },
            {
                "start_time": 33.81363636363636,
                "end_time": 33.945454545454545,
                "pitch": 51,
                "velocity": 51,
                "duration": 0.13181818181818272,
                "tempo": 120.0
            },
            {
                "start_time": 33.961363636363636,
                "end_time": 34.09772727272727,
                "pitch": 39,
                "velocity": 51,
                "duration": 0.13636363636363313,
                "tempo": 120.0
            },
            {
                "start_time": 34.11363636363636,
                "end_time": 34.25,
                "pitch": 51,
                "velocity": 51,
                "duration": 0.13636363636364024,
                "tempo": 120.0
            },
            {
                "start_time": 34.268181818181816,
                "end_time": 34.402272727272724,
                "pitch": 39,
                "velocity": 51,
                "duration": 0.13409090909090793,
                "tempo": 120.0
            },
            {
                "start_time": 34.42045454545455,
                "end_time": 34.55681818181818,
                "pitch": 51,
                "velocity": 51,
                "duration": 0.13636363636363313,
                "tempo": 120.0
            },
            {
                "start_time": 34.57272727272727,
                "end_time": 34.70454545454545,
                "pitch": 39,
                "velocity": 51,
                "duration": 0.13181818181818272,
                "tempo": 120.0
            },
            {
                "start_time": 34.72272727272727,
                "end_time": 34.85454545454545,
                "pitch": 51,
                "velocity": 51,
                "duration": 0.13181818181818272,
                "tempo": 120.0
            },
            {
                "start_time": 34.87045454545454,
                "end_time": 35.002272727272725,
                "pitch": 39,
                "velocity": 51,
                "duration": 0.13181818181818272,
                "tempo": 120.0
            },
            {
                "start_time": 35.018181818181816,
                "end_time": 35.15,
                "pitch": 51,
                "velocity": 51,
                "duration": 0.13181818181818272,
                "tempo": 120.0
            },
            {
                "start_time": 35.168181818181814,
                "end_time": 35.30227272727272,
                "pitch": 39,
                "velocity": 51,
                "duration": 0.13409090909090793,
                "tempo": 120.0
            },
            {
                "start_time": 35.320454545454545,
                "end_time": 35.45681818181818,
                "pitch": 51,
                "velocity": 51,
                "duration": 0.13636363636363313,
                "tempo": 120.0
            },
            {
                "start_time": 35.47272727272727,
                "end_time": 35.60909090909091,
                "pitch": 39,
                "velocity": 51,
                "duration": 0.13636363636364024,
                "tempo": 120.0
            },
            {
                "start_time": 35.627272727272725,
                "end_time": 35.76136363636363,
                "pitch": 48,
                "velocity": 51,
                "duration": 0.13409090909090793,
                "tempo": 120.0
            },
            {
                "start_time": 35.779545454545456,
                "end_time": 35.91136363636363,
                "pitch": 50,
                "velocity": 51,
                "duration": 0.13181818181817562,
                "tempo": 120.0
            },
            {
                "start_time": 35.92727272727272,
                "end_time": 36.059090909090905,
                "pitch": 51,
                "velocity": 51,
                "duration": 0.13181818181818272,
                "tempo": 120.0
            },
            {
                "start_time": 36.07727272727273,
                "end_time": 36.20909090909091,
                "pitch": 41,
                "velocity": 51,
                "duration": 0.13181818181818272,
                "tempo": 120.0
            },
            {
                "start_time": 36.225,
                "end_time": 36.35681818181818,
                "pitch": 53,
                "velocity": 51,
                "duration": 0.13181818181817562,
                "tempo": 120.0
            },
            {
                "start_time": 36.37272727272727,
                "end_time": 36.50909090909091,
                "pitch": 41,
                "velocity": 51,
                "duration": 0.13636363636364024,
                "tempo": 120.0
            },
            {
                "start_time": 36.525,
                "end_time": 36.65909090909091,
                "pitch": 53,
                "velocity": 51,
                "duration": 0.13409090909090793,
                "tempo": 120.0
            },
            {
                "start_time": 36.67727272727272,
                "end_time": 36.81136363636364,
                "pitch": 41,
                "velocity": 51,
                "duration": 0.13409090909091503,
                "tempo": 120.0
            },
            {
                "start_time": 36.82727272727273,
                "end_time": 36.96363636363636,
                "pitch": 53,
                "velocity": 51,
                "duration": 0.13636363636363313,
                "tempo": 120.0
            },
            {
                "start_time": 36.97954545454545,
                "end_time": 37.11590909090909,
                "pitch": 41,
                "velocity": 51,
                "duration": 0.13636363636364024,
                "tempo": 120.0
            },
            {
                "start_time": 37.13181818181818,
                "end_time": 37.268181818181816,
                "pitch": 53,
                "velocity": 51,
                "duration": 0.13636363636363313,
                "tempo": 120.0
            },
            {
                "start_time": 37.28636363636363,
                "end_time": 37.42272727272727,
                "pitch": 41,
                "velocity": 51,
                "duration": 0.13636363636364024,
                "tempo": 120.0
            },
            {
                "start_time": 37.43863636363636,
                "end_time": 37.574999999999996,
                "pitch": 53,
                "velocity": 51,
                "duration": 0.13636363636363313,
                "tempo": 120.0
            },
            {
                "start_time": 37.590909090909086,
                "end_time": 37.72727272727273,
                "pitch": 41,
                "velocity": 51,
                "duration": 0.13636363636364024,
                "tempo": 120.0
            },
            {
                "start_time": 37.74318181818182,
                "end_time": 37.877272727272725,
                "pitch": 53,
                "velocity": 51,
                "duration": 0.13409090909090793,
                "tempo": 120.0
            },
            {
                "start_time": 37.89545454545454,
                "end_time": 38.029545454545456,
                "pitch": 41,
                "velocity": 51,
                "duration": 0.13409090909091503,
                "tempo": 120.0
            },
            {
                "start_time": 38.04545454545455,
                "end_time": 38.18181818181818,
                "pitch": 55,
                "velocity": 51,
                "duration": 0.13636363636363313,
                "tempo": 120.0
            },
            {
                "start_time": 38.19772727272727,
                "end_time": 38.33181818181818,
                "pitch": 53,
                "velocity": 51,
                "duration": 0.13409090909090793,
                "tempo": 120.0
            },
            {
                "start_time": 38.35,
                "end_time": 38.48409090909091,
                "pitch": 51,
                "velocity": 51,
                "duration": 0.13409090909090793,
                "tempo": 120.0
            },
            {
                "start_time": 38.5,
                "end_time": 38.63636363636363,
                "pitch": 39,
                "velocity": 51,
                "duration": 0.13636363636363313,
                "tempo": 120.0
            },
            {
                "start_time": 38.652272727272724,
                "end_time": 38.78636363636363,
                "pitch": 39,
                "velocity": 51,
                "duration": 0.13409090909090793,
                "tempo": 120.0
            },
            {
                "start_time": 38.804545454545455,
                "end_time": 38.93636363636364,
                "pitch": 51,
                "velocity": 51,
                "duration": 0.13181818181818272,
                "tempo": 120.0
            },
            {
                "start_time": 38.95227272727273,
                "end_time": 39.084090909090904,
                "pitch": 39,
                "velocity": 51,
                "duration": 0.13181818181817562,
                "tempo": 120.0
            },
            {
                "start_time": 39.1,
                "end_time": 39.23181818181818,
                "pitch": 39,
                "velocity": 51,
                "duration": 0.13181818181817562,
                "tempo": 120.0
            },
            {
                "start_time": 39.25,
                "end_time": 39.38181818181818,
                "pitch": 51,
                "velocity": 51,
                "duration": 0.13181818181818272,
                "tempo": 120.0
            },
            {
                "start_time": 39.39772727272727,
                "end_time": 39.53181818181818,
                "pitch": 39,
                "velocity": 51,
                "duration": 0.13409090909090793,
                "tempo": 120.0
            },
            {
                "start_time": 39.55,
                "end_time": 39.684090909090905,
                "pitch": 51,
                "velocity": 51,
                "duration": 0.13409090909090793,
                "tempo": 120.0
            },
            {
                "start_time": 39.699999999999996,
                "end_time": 39.836363636363636,
                "pitch": 39,
                "velocity": 51,
                "duration": 0.13636363636364024,
                "tempo": 120.0
            },
            {
                "start_time": 39.85227272727273,
                "end_time": 39.986363636363635,
                "pitch": 39,
                "velocity": 51,
                "duration": 0.13409090909090793,
                "tempo": 120.0
            },
            {
                "start_time": 40.00454545454545,
                "end_time": 40.13863636363636,
                "pitch": 51,
                "velocity": 51,
                "duration": 0.13409090909090793,
                "tempo": 120.0
            },
            {
                "start_time": 40.154545454545456,
                "end_time": 40.29090909090909,
                "pitch": 39,
                "velocity": 51,
                "duration": 0.13636363636363313,
                "tempo": 120.0
            },
            {
                "start_time": 40.30681818181818,
                "end_time": 40.44090909090909,
                "pitch": 39,
                "velocity": 51,
                "duration": 0.13409090909090793,
                "tempo": 120.0
            },
            {
                "start_time": 40.459090909090904,
                "end_time": 40.59318181818182,
                "pitch": 51,
                "velocity": 51,
                "duration": 0.13409090909091503,
                "tempo": 120.0
            },
            {
                "start_time": 40.60909090909091,
                "end_time": 40.74318181818182,
                "pitch": 39,
                "velocity": 51,
                "duration": 0.13409090909090793,
                "tempo": 120.0
            },
            {
                "start_time": 40.75909090909091,
                "end_time": 40.893181818181816,
                "pitch": 51,
                "velocity": 51,
                "duration": 0.13409090909090793,
                "tempo": 120.0
            },
            {
                "start_time": 40.90909090909091,
                "end_time": 41.043181818181814,
                "pitch": 34,
                "velocity": 51,
                "duration": 0.13409090909090793,
                "tempo": 120.0
            },
            {
                "start_time": 41.059090909090905,
                "end_time": 41.19318181818181,
                "pitch": 34,
                "velocity": 51,
                "duration": 0.13409090909090793,
                "tempo": 120.0
            },
            {
                "start_time": 41.209090909090904,
                "end_time": 41.345454545454544,
                "pitch": 46,
                "velocity": 51,
                "duration": 0.13636363636364024,
                "tempo": 120.0
            },
            {
                "start_time": 41.361363636363635,
                "end_time": 41.49545454545454,
                "pitch": 34,
                "velocity": 51,
                "duration": 0.13409090909090793,
                "tempo": 120.0
            },
            {
                "start_time": 41.51363636363636,
                "end_time": 41.64772727272727,
                "pitch": 34,
                "velocity": 51,
                "duration": 0.13409090909091503,
                "tempo": 120.0
            },
            {
                "start_time": 41.663636363636364,
                "end_time": 41.8,
                "pitch": 46,
                "velocity": 51,
                "duration": 0.13636363636363313,
                "tempo": 120.0
            },
            {
                "start_time": 41.81590909090909,
                "end_time": 41.949999999999996,
                "pitch": 34,
                "velocity": 51,
                "duration": 0.13409090909090793,
                "tempo": 120.0
            },
            {
                "start_time": 41.96818181818182,
                "end_time": 42.10227272727273,
                "pitch": 34,
                "velocity": 51,
                "duration": 0.13409090909090793,
                "tempo": 120.0
            },
            {
                "start_time": 42.11818181818182,
                "end_time": 42.25454545454545,
                "pitch": 34,
                "velocity": 51,
                "duration": 0.13636363636363313,
                "tempo": 120.0
            },
            {
                "start_time": 42.27045454545454,
                "end_time": 42.40454545454545,
                "pitch": 34,
                "velocity": 51,
                "duration": 0.13409090909090793,
                "tempo": 120.0
            },
            {
                "start_time": 42.42272727272727,
                "end_time": 42.55681818181818,
                "pitch": 46,
                "velocity": 51,
                "duration": 0.13409090909090793,
                "tempo": 120.0
            },
            {
                "start_time": 42.57272727272727,
                "end_time": 42.709090909090904,
                "pitch": 34,
                "velocity": 51,
                "duration": 0.13636363636363313,
                "tempo": 120.0
            },
            {
                "start_time": 42.725,
                "end_time": 42.85909090909091,
                "pitch": 48,
                "velocity": 51,
                "duration": 0.13409090909090793,
                "tempo": 120.0
            },
            {
                "start_time": 42.877272727272725,
                "end_time": 43.01136363636363,
                "pitch": 34,
                "velocity": 51,
                "duration": 0.13409090909090793,
                "tempo": 120.0
            },
            {
                "start_time": 43.027272727272724,
                "end_time": 43.163636363636364,
                "pitch": 46,
                "velocity": 51,
                "duration": 0.13636363636364024,
                "tempo": 120.0
            },
            {
                "start_time": 43.18181818181818,
                "end_time": 43.31818181818181,
                "pitch": 34,
                "velocity": 51,
                "duration": 0.13636363636363313,
                "tempo": 120.0
            },
            {
                "start_time": 43.334090909090904,
                "end_time": 43.470454545454544,
                "pitch": 41,
                "velocity": 51,
                "duration": 0.13636363636364024,
                "tempo": 120.0
            },
            {
                "start_time": 43.486363636363635,
                "end_time": 43.62272727272727,
                "pitch": 41,
                "velocity": 51,
                "duration": 0.13636363636363313,
                "tempo": 120.0
            },
            {
                "start_time": 43.64090909090909,
                "end_time": 43.77272727272727,
                "pitch": 53,
                "velocity": 51,
                "duration": 0.13181818181818272,
                "tempo": 120.0
            },
            {
                "start_time": 43.788636363636364,
                "end_time": 43.92045454545455,
                "pitch": 41,
                "velocity": 51,
                "duration": 0.13181818181818272,
                "tempo": 120.0
            },
            {
                "start_time": 43.93636363636364,
                "end_time": 44.070454545454545,
                "pitch": 41,
                "velocity": 51,
                "duration": 0.13409090909090793,
                "tempo": 120.0
            },
            {
                "start_time": 44.086363636363636,
                "end_time": 44.21818181818182,
                "pitch": 53,
                "velocity": 51,
                "duration": 0.13181818181818272,
                "tempo": 120.0
            },
            {
                "start_time": 44.23409090909091,
                "end_time": 44.36818181818182,
                "pitch": 41,
                "velocity": 51,
                "duration": 0.13409090909090793,
                "tempo": 120.0
            },
            {
                "start_time": 44.38636363636363,
                "end_time": 44.52045454545454,
                "pitch": 53,
                "velocity": 51,
                "duration": 0.13409090909090793,
                "tempo": 120.0
            },
            {
                "start_time": 44.538636363636364,
                "end_time": 44.67272727272727,
                "pitch": 41,
                "velocity": 51,
                "duration": 0.13409090909090793,
                "tempo": 120.0
            },
            {
                "start_time": 44.68863636363636,
                "end_time": 44.82272727272727,
                "pitch": 41,
                "velocity": 51,
                "duration": 0.13409090909090793,
                "tempo": 120.0
            },
            {
                "start_time": 44.840909090909086,
                "end_time": 44.974999999999994,
                "pitch": 53,
                "velocity": 51,
                "duration": 0.13409090909090793,
                "tempo": 120.0
            },
            {
                "start_time": 44.99318181818182,
                "end_time": 45.127272727272725,
                "pitch": 41,
                "velocity": 51,
                "duration": 0.13409090909090793,
                "tempo": 120.0
            },
            {
                "start_time": 45.143181818181816,
                "end_time": 45.277272727272724,
                "pitch": 53,
                "velocity": 51,
                "duration": 0.13409090909090793,
                "tempo": 120.0
            },
            {
                "start_time": 45.29545454545455,
                "end_time": 45.429545454545455,
                "pitch": 41,
                "velocity": 51,
                "duration": 0.13409090909090793,
                "tempo": 120.0
            },
            {
                "start_time": 45.44772727272727,
                "end_time": 45.58181818181818,
                "pitch": 55,
                "velocity": 51,
                "duration": 0.13409090909090793,
                "tempo": 120.0
            },
            {
                "start_time": 45.59772727272727,
                "end_time": 45.73181818181818,
                "pitch": 53,
                "velocity": 51,
                "duration": 0.13409090909090793,
                "tempo": 120.0
            },
            {
                "start_time": 45.75,
                "end_time": 45.88409090909091,
                "pitch": 38,
                "velocity": 51,
                "duration": 0.13409090909090793,
                "tempo": 120.0
            },
            {
                "start_time": 45.902272727272724,
                "end_time": 46.03636363636363,
                "pitch": 38,
                "velocity": 51,
                "duration": 0.13409090909090793,
                "tempo": 120.0
            },
            {
                "start_time": 46.05227272727272,
                "end_time": 46.18636363636364,
                "pitch": 34,
                "velocity": 51,
                "duration": 0.13409090909091503,
                "tempo": 120.0
            },
            {
                "start_time": 46.20454545454545,
                "end_time": 46.33863636363636,
                "pitch": 34,
                "velocity": 51,
                "duration": 0.13409090909090793,
                "tempo": 120.0
            },
            {
                "start_time": 46.35681818181818,
                "end_time": 46.49090909090909,
                "pitch": 46,
                "velocity": 51,
                "duration": 0.13409090909091503,
                "tempo": 120.0
            },
            {
                "start_time": 46.50681818181818,
                "end_time": 46.64090909090909,
                "pitch": 34,
                "velocity": 51,
                "duration": 0.13409090909090793,
                "tempo": 120.0
            },
            {
                "start_time": 46.65909090909091,
                "end_time": 46.94090909090909,
                "pitch": 46,
                "velocity": 51,
                "duration": 0.2818181818181813,
                "tempo": 120.0
            },
            {
                "start_time": 46.959090909090904,
                "end_time": 47.090909090909086,
                "pitch": 41,
                "velocity": 51,
                "duration": 0.13181818181818272,
                "tempo": 120.0
            },
            {
                "start_time": 47.10909090909091,
                "end_time": 47.24090909090909,
                "pitch": 41,
                "velocity": 51,
                "duration": 0.13181818181818272,
                "tempo": 120.0
            },
            {
                "start_time": 47.25909090909091,
                "end_time": 47.393181818181816,
                "pitch": 53,
                "velocity": 51,
                "duration": 0.13409090909090793,
                "tempo": 120.0
            },
            {
                "start_time": 47.41136363636363,
                "end_time": 47.54545454545454,
                "pitch": 53,
                "velocity": 51,
                "duration": 0.13409090909090793,
                "tempo": 120.0
            },
            {
                "start_time": 47.56136363636364,
                "end_time": 47.695454545454545,
                "pitch": 56,
                "velocity": 51,
                "duration": 0.13409090909090793,
                "tempo": 120.0
            },
            {
                "start_time": 47.71363636363636,
                "end_time": 47.84772727272727,
                "pitch": 56,
                "velocity": 51,
                "duration": 0.13409090909090793,
                "tempo": 120.0
            },
            {
                "start_time": 47.86590909090909,
                "end_time": 48.0,
                "pitch": 53,
                "velocity": 51,
                "duration": 0.13409090909090793,
                "tempo": 120.0
            },
            {
                "start_time": 48.018181818181816,
                "end_time": 48.15454545454545,
                "pitch": 53,
                "velocity": 51,
                "duration": 0.13636363636363313,
                "tempo": 120.0
            },
            {
                "start_time": 48.17045454545454,
                "end_time": 48.30681818181818,
                "pitch": 39,
                "velocity": 51,
                "duration": 0.13636363636364024,
                "tempo": 120.0
            },
            {
                "start_time": 48.324999999999996,
                "end_time": 48.459090909090904,
                "pitch": 39,
                "velocity": 51,
                "duration": 0.13409090909090793,
                "tempo": 120.0
            },
            {
                "start_time": 48.47727272727273,
                "end_time": 48.60909090909091,
                "pitch": 51,
                "velocity": 51,
                "duration": 0.13181818181818272,
                "tempo": 120.0
            },
            {
                "start_time": 48.625,
                "end_time": 48.75681818181818,
                "pitch": 39,
                "velocity": 51,
                "duration": 0.13181818181818272,
                "tempo": 120.0
            },
            {
                "start_time": 48.775,
                "end_time": 48.90681818181818,
                "pitch": 39,
                "velocity": 51,
                "duration": 0.13181818181818272,
                "tempo": 120.0
            },
            {
                "start_time": 48.92272727272727,
                "end_time": 49.054545454545455,
                "pitch": 51,
                "velocity": 51,
                "duration": 0.13181818181818272,
                "tempo": 120.0
            },
            {
                "start_time": 49.070454545454545,
                "end_time": 49.20454545454545,
                "pitch": 39,
                "velocity": 51,
                "duration": 0.13409090909090793,
                "tempo": 120.0
            },
            {
                "start_time": 49.22272727272727,
                "end_time": 49.35681818181818,
                "pitch": 51,
                "velocity": 51,
                "duration": 0.13409090909090793,
                "tempo": 120.0
            },
            {
                "start_time": 49.375,
                "end_time": 49.50909090909091,
                "pitch": 39,
                "velocity": 51,
                "duration": 0.13409090909090793,
                "tempo": 120.0
            },
            {
                "start_time": 49.525,
                "end_time": 49.65909090909091,
                "pitch": 39,
                "velocity": 51,
                "duration": 0.13409090909090793,
                "tempo": 120.0
            },
            {
                "start_time": 49.67727272727272,
                "end_time": 49.81363636363636,
                "pitch": 51,
                "velocity": 51,
                "duration": 0.13636363636364024,
                "tempo": 120.0
            },
            {
                "start_time": 49.82954545454545,
                "end_time": 49.965909090909086,
                "pitch": 39,
                "velocity": 51,
                "duration": 0.13636363636363313,
                "tempo": 120.0
            },
            {
                "start_time": 49.98409090909091,
                "end_time": 50.11818181818182,
                "pitch": 39,
                "velocity": 51,
                "duration": 0.13409090909090793,
                "tempo": 120.0
            },
            {
                "start_time": 50.13636363636363,
                "end_time": 50.27272727272727,
                "pitch": 51,
                "velocity": 51,
                "duration": 0.13636363636364024,
                "tempo": 120.0
            },
            {
                "start_time": 50.288636363636364,
                "end_time": 50.42045454545454,
                "pitch": 39,
                "velocity": 51,
                "duration": 0.13181818181817562,
                "tempo": 120.0
            },
            {
                "start_time": 50.43863636363636,
                "end_time": 50.570454545454545,
                "pitch": 51,
                "velocity": 51,
                "duration": 0.13181818181818272,
                "tempo": 120.0
            },
            {
                "start_time": 50.586363636363636,
                "end_time": 50.71818181818182,
                "pitch": 34,
                "velocity": 51,
                "duration": 0.13181818181818272,
                "tempo": 120.0
            },
            {
                "start_time": 50.73409090909091,
                "end_time": 50.865909090909085,
                "pitch": 34,
                "velocity": 51,
                "duration": 0.13181818181817562,
                "tempo": 120.0
            },
            {
                "start_time": 50.88409090909091,
                "end_time": 51.018181818181816,
                "pitch": 46,
                "velocity": 51,
                "duration": 0.13409090909090793,
                "tempo": 120.0
            },
            {
                "start_time": 51.03636363636363,
                "end_time": 51.17272727272727,
                "pitch": 34,
                "velocity": 51,
                "duration": 0.13636363636364024,
                "tempo": 120.0
            },
            {
                "start_time": 51.18863636363636,
                "end_time": 51.324999999999996,
                "pitch": 34,
                "velocity": 51,
                "duration": 0.13636363636363313,
                "tempo": 120.0
            },
            {
                "start_time": 51.34318181818182,
                "end_time": 51.47727272727273,
                "pitch": 46,
                "velocity": 51,
                "duration": 0.13409090909090793,
                "tempo": 120.0
            },
            {
                "start_time": 51.49545454545454,
                "end_time": 51.627272727272725,
                "pitch": 34,
                "velocity": 51,
                "duration": 0.13181818181818272,
                "tempo": 120.0
            },
            {
                "start_time": 51.643181818181816,
                "end_time": 51.775,
                "pitch": 34,
                "velocity": 51,
                "duration": 0.13181818181818272,
                "tempo": 120.0
            },
            {
                "start_time": 51.793181818181814,
                "end_time": 51.925,
                "pitch": 34,
                "velocity": 51,
                "duration": 0.13181818181818272,
                "tempo": 120.0
            },
            {
                "start_time": 51.94090909090909,
                "end_time": 52.07272727272727,
                "pitch": 34,
                "velocity": 51,
                "duration": 0.13181818181818272,
                "tempo": 120.0
            },
            {
                "start_time": 52.08863636363636,
                "end_time": 52.224999999999994,
                "pitch": 46,
                "velocity": 51,
                "duration": 0.13636363636363313,
                "tempo": 120.0
            },
            {
                "start_time": 52.240909090909085,
                "end_time": 52.375,
                "pitch": 34,
                "velocity": 51,
                "duration": 0.13409090909091503,
                "tempo": 120.0
            },
            {
                "start_time": 52.393181818181816,
                "end_time": 52.527272727272724,
                "pitch": 48,
                "velocity": 51,
                "duration": 0.13409090909090793,
                "tempo": 120.0
            },
            {
                "start_time": 52.543181818181814,
                "end_time": 52.679545454545455,
                "pitch": 34,
                "velocity": 51,
                "duration": 0.13636363636364024,
                "tempo": 120.0
            },
            {
                "start_time": 52.695454545454545,
                "end_time": 52.83181818181818,
                "pitch": 46,
                "velocity": 51,
                "duration": 0.13636363636363313,
                "tempo": 120.0
            },
            {
                "start_time": 52.84772727272727,
                "end_time": 52.98409090909091,
                "pitch": 34,
                "velocity": 51,
                "duration": 0.13636363636364024,
                "tempo": 120.0
            },
            {
                "start_time": 53.002272727272725,
                "end_time": 53.13636363636363,
                "pitch": 41,
                "velocity": 51,
                "duration": 0.13409090909090793,
                "tempo": 120.0
            },
            {
                "start_time": 53.15454545454545,
                "end_time": 53.29090909090909,
                "pitch": 41,
                "velocity": 51,
                "duration": 0.13636363636364024,
                "tempo": 120.0
            },
            {
                "start_time": 53.30681818181818,
                "end_time": 53.43863636363636,
                "pitch": 53,
                "velocity": 51,
                "duration": 0.13181818181818272,
                "tempo": 120.0
            },
            {
                "start_time": 53.45681818181818,
                "end_time": 53.58863636363636,
                "pitch": 41,
                "velocity": 51,
                "duration": 0.13181818181818272,
                "tempo": 120.0
            },
            {
                "start_time": 53.60454545454545,
                "end_time": 53.736363636363635,
                "pitch": 41,
                "velocity": 51,
                "duration": 0.13181818181818272,
                "tempo": 120.0
            },
            {
                "start_time": 53.752272727272725,
                "end_time": 53.88409090909091,
                "pitch": 53,
                "velocity": 51,
                "duration": 0.13181818181818272,
                "tempo": 120.0
            },
            {
                "start_time": 53.902272727272724,
                "end_time": 54.03636363636363,
                "pitch": 41,
                "velocity": 51,
                "duration": 0.13409090909090793,
                "tempo": 120.0
            },
            {
                "start_time": 54.054545454545455,
                "end_time": 54.19090909090909,
                "pitch": 53,
                "velocity": 51,
                "duration": 0.13636363636363313,
                "tempo": 120.0
            },
            {
                "start_time": 54.20681818181818,
                "end_time": 54.34318181818182,
                "pitch": 41,
                "velocity": 51,
                "duration": 0.13636363636364024,
                "tempo": 120.0
            },
            {
                "start_time": 54.361363636363635,
                "end_time": 54.49545454545454,
                "pitch": 41,
                "velocity": 51,
                "duration": 0.13409090909090793,
                "tempo": 120.0
            },
            {
                "start_time": 54.51363636363636,
                "end_time": 54.64772727272727,
                "pitch": 53,
                "velocity": 51,
                "duration": 0.13409090909091503,
                "tempo": 120.0
            },
            {
                "start_time": 54.66590909090909,
                "end_time": 54.8,
                "pitch": 41,
                "velocity": 51,
                "duration": 0.13409090909090793,
                "tempo": 120.0
            },
            {
                "start_time": 54.81590909090909,
                "end_time": 54.95227272727273,
                "pitch": 55,
                "velocity": 51,
                "duration": 0.13636363636364024,
                "tempo": 120.0
            },
            {
                "start_time": 54.96818181818182,
                "end_time": 55.10227272727273,
                "pitch": 53,
                "velocity": 51,
                "duration": 0.13409090909090793,
                "tempo": 120.0
            },
            {
                "start_time": 55.12045454545454,
                "end_time": 55.252272727272725,
                "pitch": 51,
                "velocity": 51,
                "duration": 0.13181818181818272,
                "tempo": 120.0
            },
            {
                "start_time": 55.268181818181816,
                "end_time": 55.4,
                "pitch": 53,
                "velocity": 51,
                "duration": 0.13181818181818272,
                "tempo": 120.0
            },
            {
                "start_time": 55.41590909090909,
                "end_time": 55.54772727272727,
                "pitch": 39,
                "velocity": 51,
                "duration": 0.13181818181818272,
                "tempo": 120.0
            },
            {
                "start_time": 55.56590909090909,
                "end_time": 55.69772727272727,
                "pitch": 39,
                "velocity": 51,
                "duration": 0.13181818181818272,
                "tempo": 120.0
            },
            {
                "start_time": 55.71363636363636,
                "end_time": 55.84772727272727,
                "pitch": 51,
                "velocity": 51,
                "duration": 0.13409090909090793,
                "tempo": 120.0
            },
            {
                "start_time": 55.86363636363636,
                "end_time": 55.99772727272727,
                "pitch": 39,
                "velocity": 51,
                "duration": 0.13409090909090793,
                "tempo": 120.0
            },
            {
                "start_time": 56.01363636363636,
                "end_time": 56.14772727272727,
                "pitch": 51,
                "velocity": 51,
                "duration": 0.13409090909091503,
                "tempo": 120.0
            },
            {
                "start_time": 56.163636363636364,
                "end_time": 56.29772727272727,
                "pitch": 39,
                "velocity": 51,
                "duration": 0.13409090909090793,
                "tempo": 120.0
            },
            {
                "start_time": 56.31363636363636,
                "end_time": 56.44772727272727,
                "pitch": 51,
                "velocity": 51,
                "duration": 0.13409090909090793,
                "tempo": 120.0
            },
            {
                "start_time": 56.465909090909086,
                "end_time": 56.599999999999994,
                "pitch": 39,
                "velocity": 51,
                "duration": 0.13409090909090793,
                "tempo": 120.0
            },
            {
                "start_time": 56.615909090909085,
                "end_time": 56.752272727272725,
                "pitch": 39,
                "velocity": 51,
                "duration": 0.13636363636364024,
                "tempo": 120.0
            },
            {
                "start_time": 57.224999999999994,
                "end_time": 57.51590909090909,
                "pitch": 39,
                "velocity": 51,
                "duration": 0.29090909090909634,
                "tempo": 120.0
            },
            {
                "start_time": 57.53181818181818,
                "end_time": 57.81818181818181,
                "pitch": 40,
                "velocity": 51,
                "duration": 0.2863636363636317,
                "tempo": 120.0
            },
            {
                "start_time": 57.834090909090904,
                "end_time": 57.970454545454544,
                "pitch": 53,
                "velocity": 51,
                "duration": 0.13636363636364024,
                "tempo": 120.0
            },
            {
                "start_time": 57.986363636363635,
                "end_time": 58.12045454545454,
                "pitch": 53,
                "velocity": 51,
                "duration": 0.13409090909090793,
                "tempo": 120.0
            },
            {
                "start_time": 58.13863636363636,
                "end_time": 58.27272727272727,
                "pitch": 51,
                "velocity": 51,
                "duration": 0.13409090909091503,
                "tempo": 120.0
            },
            {
                "start_time": 58.288636363636364,
                "end_time": 58.574999999999996,
                "pitch": 48,
                "velocity": 51,
                "duration": 0.2863636363636317,
                "tempo": 120.0
            },
            {
                "start_time": 58.59318181818182,
                "end_time": 58.72727272727273,
                "pitch": 53,
                "velocity": 51,
                "duration": 0.13409090909090793,
                "tempo": 120.0
            },
            {
                "start_time": 58.74318181818182,
                "end_time": 58.87954545454545,
                "pitch": 51,
                "velocity": 51,
                "duration": 0.13636363636363313,
                "tempo": 120.0
            },
            {
                "start_time": 58.89545454545454,
                "end_time": 59.02954545454545,
                "pitch": 48,
                "velocity": 51,
                "duration": 0.13409090909090793,
                "tempo": 120.0
            },
            {
                "start_time": 59.04772727272727,
                "end_time": 59.18181818181818,
                "pitch": 53,
                "velocity": 51,
                "duration": 0.13409090909090793,
                "tempo": 120.0
            },
            {
                "start_time": 59.19772727272727,
                "end_time": 59.334090909090904,
                "pitch": 53,
                "velocity": 51,
                "duration": 0.13636363636363313,
                "tempo": 120.0
            },
            {
                "start_time": 59.349999999999994,
                "end_time": 59.48409090909091,
                "pitch": 51,
                "velocity": 51,
                "duration": 0.13409090909091503,
                "tempo": 120.0
            },
            {
                "start_time": 59.502272727272725,
                "end_time": 59.788636363636364,
                "pitch": 48,
                "velocity": 51,
                "duration": 0.2863636363636388,
                "tempo": 120.0
            },
            {
                "start_time": 59.804545454545455,
                "end_time": 59.93863636363636,
                "pitch": 53,
                "velocity": 51,
                "duration": 0.13409090909090793,
                "tempo": 120.0
            },
            {
                "start_time": 59.95681818181818,
                "end_time": 60.08863636363636,
                "pitch": 51,
                "velocity": 51,
                "duration": 0.13181818181818272,
                "tempo": 120.0
            },
            {
                "start_time": 60.10454545454545,
                "end_time": 60.236363636363635,
                "pitch": 48,
                "velocity": 51,
                "duration": 0.13181818181818272,
                "tempo": 120.0
            },
            {
                "start_time": 60.252272727272725,
                "end_time": 60.38409090909091,
                "pitch": 51,
                "velocity": 51,
                "duration": 0.13181818181818272,
                "tempo": 120.0
            },
            {
                "start_time": 60.402272727272724,
                "end_time": 60.53409090909091,
                "pitch": 51,
                "velocity": 51,
                "duration": 0.13181818181818272,
                "tempo": 120.0
            },
            {
                "start_time": 60.55,
                "end_time": 60.68636363636363,
                "pitch": 50,
                "velocity": 51,
                "duration": 0.13636363636363313,
                "tempo": 120.0
            },
            {
                "start_time": 60.70227272727272,
                "end_time": 60.99318181818182,
                "pitch": 46,
                "velocity": 51,
                "duration": 0.29090909090909634,
                "tempo": 120.0
            },
            {
                "start_time": 61.00909090909091,
                "end_time": 61.14545454545454,
                "pitch": 46,
                "velocity": 51,
                "duration": 0.13636363636363313,
                "tempo": 120.0
            },
            {
                "start_time": 61.16136363636363,
                "end_time": 61.293181818181814,
                "pitch": 50,
                "velocity": 51,
                "duration": 0.13181818181818272,
                "tempo": 120.0
            },
            {
                "start_time": 61.31136363636363,
                "end_time": 61.44318181818181,
                "pitch": 46,
                "velocity": 51,
                "duration": 0.13181818181818272,
                "tempo": 120.0
            },
            {
                "start_time": 61.459090909090904,
                "end_time": 61.590909090909086,
                "pitch": 51,
                "velocity": 51,
                "duration": 0.13181818181818272,
                "tempo": 120.0
            },
            {
                "start_time": 61.60681818181818,
                "end_time": 61.73863636363636,
                "pitch": 51,
                "velocity": 51,
                "duration": 0.13181818181818272,
                "tempo": 120.0
            },
            {
                "start_time": 61.756818181818176,
                "end_time": 61.893181818181816,
                "pitch": 50,
                "velocity": 51,
                "duration": 0.13636363636364024,
                "tempo": 120.0
            },
            {
                "start_time": 61.90909090909091,
                "end_time": 62.19772727272727,
                "pitch": 46,
                "velocity": 51,
                "duration": 0.288636363636364,
                "tempo": 120.0
            },
            {
                "start_time": 62.215909090909086,
                "end_time": 62.35227272727273,
                "pitch": 46,
                "velocity": 51,
                "duration": 0.13636363636364024,
                "tempo": 120.0
            },
            {
                "start_time": 62.36818181818182,
                "end_time": 62.5,
                "pitch": 51,
                "velocity": 51,
                "duration": 0.13181818181818272,
                "tempo": 120.0
            },
            {
                "start_time": 62.51590909090909,
                "end_time": 62.53409090909091,
                "pitch": 53,
                "velocity": 51,
                "duration": 0.018181818181815856,
                "tempo": 120.0
            },
            {
                "start_time": 62.55,
                "end_time": 62.647727272727266,
                "pitch": 53,
                "velocity": 51,
                "duration": 0.09772727272726911,
                "tempo": 120.0
            },
            {
                "start_time": 62.66590909090909,
                "end_time": 62.79772727272727,
                "pitch": 53,
                "velocity": 51,
                "duration": 0.13181818181818272,
                "tempo": 120.0
            },
            {
                "start_time": 62.81363636363636,
                "end_time": 62.945454545454545,
                "pitch": 53,
                "velocity": 51,
                "duration": 0.13181818181818272,
                "tempo": 120.0
            },
            {
                "start_time": 62.961363636363636,
                "end_time": 63.09772727272727,
                "pitch": 51,
                "velocity": 51,
                "duration": 0.13636363636363313,
                "tempo": 120.0
            },
            {
                "start_time": 63.11363636363636,
                "end_time": 63.4,
                "pitch": 48,
                "velocity": 51,
                "duration": 0.2863636363636388,
                "tempo": 120.0
            },
            {
                "start_time": 63.41590909090909,
                "end_time": 63.55227272727272,
                "pitch": 53,
                "velocity": 51,
                "duration": 0.13636363636363313,
                "tempo": 120.0
            },
            {
                "start_time": 63.56818181818181,
                "end_time": 63.70227272727272,
                "pitch": 51,
                "velocity": 51,
                "duration": 0.13409090909090793,
                "tempo": 120.0
            },
            {
                "start_time": 63.720454545454544,
                "end_time": 63.85454545454545,
                "pitch": 48,
                "velocity": 51,
                "duration": 0.13409090909090793,
                "tempo": 120.0
            },
            {
                "start_time": 63.87045454545454,
                "end_time": 64.00681818181818,
                "pitch": 53,
                "velocity": 51,
                "duration": 0.13636363636363313,
                "tempo": 120.0
            },
            {
                "start_time": 64.02272727272727,
                "end_time": 64.15681818181818,
                "pitch": 53,
                "velocity": 51,
                "duration": 0.13409090909091503,
                "tempo": 120.0
            },
            {
                "start_time": 64.175,
                "end_time": 64.31136363636364,
                "pitch": 51,
                "velocity": 51,
                "duration": 0.13636363636364024,
                "tempo": 120.0
            },
            {
                "start_time": 64.32727272727273,
                "end_time": 64.61590909090908,
                "pitch": 48,
                "velocity": 51,
                "duration": 0.2886363636363569,
                "tempo": 120.0
            },
            {
                "start_time": 64.6340909090909,
                "end_time": 64.77045454545454,
                "pitch": 53,
                "velocity": 51,
                "duration": 0.13636363636364024,
                "tempo": 120.0
            },
            {
                "start_time": 64.78636363636363,
                "end_time": 64.91818181818182,
                "pitch": 51,
                "velocity": 51,
                "duration": 0.13181818181818983,
                "tempo": 120.0
            },
            {
                "start_time": 64.93409090909091,
                "end_time": 65.06590909090909,
                "pitch": 48,
                "velocity": 51,
                "duration": 0.13181818181817562,
                "tempo": 120.0
            },
            {
                "start_time": 65.0840909090909,
                "end_time": 65.2159090909091,
                "pitch": 51,
                "velocity": 51,
                "duration": 0.13181818181818983,
                "tempo": 120.0
            },
            {
                "start_time": 65.23181818181818,
                "end_time": 65.36363636363636,
                "pitch": 51,
                "velocity": 51,
                "duration": 0.13181818181817562,
                "tempo": 120.0
            },
            {
                "start_time": 65.37954545454545,
                "end_time": 65.51590909090909,
                "pitch": 50,
                "velocity": 51,
                "duration": 0.13636363636364024,
                "tempo": 120.0
            },
            {
                "start_time": 65.5340909090909,
                "end_time": 65.82272727272726,
                "pitch": 46,
                "velocity": 51,
                "duration": 0.2886363636363569,
                "tempo": 120.0
            },
            {
                "start_time": 65.83863636363635,
                "end_time": 65.975,
                "pitch": 46,
                "velocity": 51,
                "duration": 0.13636363636364024,
                "tempo": 120.0
            },
            {
                "start_time": 65.99318181818181,
                "end_time": 66.125,
                "pitch": 50,
                "velocity": 51,
                "duration": 0.13181818181818983,
                "tempo": 120.0
            },
            {
                "start_time": 66.14090909090909,
                "end_time": 66.27272727272727,
                "pitch": 46,
                "velocity": 51,
                "duration": 0.13181818181817562,
                "tempo": 120.0
            },
            {
                "start_time": 66.28863636363636,
                "end_time": 66.57045454545454,
                "pitch": 46,
                "velocity": 51,
                "duration": 0.2818181818181813,
                "tempo": 120.0
            },
            {
                "start_time": 66.58636363636363,
                "end_time": 66.87045454545454,
                "pitch": 46,
                "velocity": 51,
                "duration": 0.2840909090909065,
                "tempo": 120.0
            },
            {
                "start_time": 66.88636363636363,
                "end_time": 67.17045454545455,
                "pitch": 48,
                "velocity": 51,
                "duration": 0.2840909090909207,
                "tempo": 120.0
            },
            {
                "start_time": 67.18636363636364,
                "end_time": 67.475,
                "pitch": 50,
                "velocity": 51,
                "duration": 0.2886363636363569,
                "tempo": 120.0
            },
            {
                "start_time": 67.49318181818181,
                "end_time": 67.78181818181818,
                "pitch": 48,
                "velocity": 51,
                "duration": 0.28863636363637113,
                "tempo": 120.0
            },
            {
                "start_time": 67.79772727272727,
                "end_time": 68.07954545454545,
                "pitch": 48,
                "velocity": 51,
                "duration": 0.2818181818181813,
                "tempo": 120.0
            },
            {
                "start_time": 68.09545454545454,
                "end_time": 68.22727272727272,
                "pitch": 43,
                "velocity": 51,
                "duration": 0.13181818181817562,
                "tempo": 120.0
            },
            {
                "start_time": 68.24318181818181,
                "end_time": 68.52499999999999,
                "pitch": 48,
                "velocity": 51,
                "duration": 0.2818181818181813,
                "tempo": 120.0
            },
            {
                "start_time": 68.54318181818182,
                "end_time": 68.675,
                "pitch": 48,
                "velocity": 51,
                "duration": 0.13181818181817562,
                "tempo": 120.0
            },
            {
                "start_time": 68.69318181818181,
                "end_time": 68.825,
                "pitch": 46,
                "velocity": 51,
                "duration": 0.13181818181818983,
                "tempo": 120.0
            },
            {
                "start_time": 68.84318181818182,
                "end_time": 68.975,
                "pitch": 46,
                "velocity": 51,
                "duration": 0.13181818181817562,
                "tempo": 120.0
            },
            {
                "start_time": 68.99318181818181,
                "end_time": 69.12727272727273,
                "pitch": 41,
                "velocity": 51,
                "duration": 0.13409090909091503,
                "tempo": 120.0
            },
            {
                "start_time": 69.14318181818182,
                "end_time": 69.42954545454545,
                "pitch": 46,
                "velocity": 51,
                "duration": 0.2863636363636317,
                "tempo": 120.0
            },
            {
                "start_time": 69.44772727272726,
                "end_time": 69.58181818181818,
                "pitch": 46,
                "velocity": 51,
                "duration": 0.13409090909091503,
                "tempo": 120.0
            },
            {
                "start_time": 69.59772727272727,
                "end_time": 69.73181818181818,
                "pitch": 41,
                "velocity": 51,
                "duration": 0.13409090909091503,
                "tempo": 120.0
            },
            {
                "start_time": 69.74772727272727,
                "end_time": 69.88181818181818,
                "pitch": 46,
                "velocity": 51,
                "duration": 0.13409090909090082,
                "tempo": 120.0
            },
            {
                "start_time": 69.89772727272727,
                "end_time": 70.03181818181818,
                "pitch": 44,
                "velocity": 51,
                "duration": 0.13409090909091503,
                "tempo": 120.0
            },
            {
                "start_time": 70.04772727272727,
                "end_time": 70.18181818181817,
                "pitch": 44,
                "velocity": 51,
                "duration": 0.13409090909090082,
                "tempo": 120.0
            },
            {
                "start_time": 70.19772727272726,
                "end_time": 70.33181818181818,
                "pitch": 39,
                "velocity": 51,
                "duration": 0.13409090909091503,
                "tempo": 120.0
            },
            {
                "start_time": 70.34772727272727,
                "end_time": 70.63181818181818,
                "pitch": 44,
                "velocity": 51,
                "duration": 0.2840909090909065,
                "tempo": 120.0
            },
            {
                "start_time": 70.64772727272727,
                "end_time": 70.78181818181818,
                "pitch": 44,
                "velocity": 51,
                "duration": 0.13409090909091503,
                "tempo": 120.0
            },
            {
                "start_time": 70.79772727272727,
                "end_time": 70.93409090909091,
                "pitch": 39,
                "velocity": 51,
                "duration": 0.13636363636364024,
                "tempo": 120.0
            },
            {
                "start_time": 70.95,
                "end_time": 71.0840909090909,
                "pitch": 44,
                "velocity": 51,
                "duration": 0.13409090909090082,
                "tempo": 120.0
            },
            {
                "start_time": 71.10227272727272,
                "end_time": 71.23636363636363,
                "pitch": 46,
                "velocity": 51,
                "duration": 0.13409090909091503,
                "tempo": 120.0
            },
            {
                "start_time": 71.25227272727273,
                "end_time": 71.38863636363637,
                "pitch": 46,
                "velocity": 51,
                "duration": 0.13636363636364024,
                "tempo": 120.0
            },
            {
                "start_time": 71.40454545454546,
                "end_time": 71.53863636363636,
                "pitch": 41,
                "velocity": 51,
                "duration": 0.13409090909090082,
                "tempo": 120.0
            },
            {
                "start_time": 71.55454545454545,
                "end_time": 71.83863636363635,
                "pitch": 46,
                "velocity": 51,
                "duration": 0.2840909090909065,
                "tempo": 120.0
            },
            {
                "start_time": 71.85454545454544,
                "end_time": 71.98863636363636,
                "pitch": 46,
                "velocity": 51,
                "duration": 0.13409090909091503,
                "tempo": 120.0
            },
            {
                "start_time": 72.00454545454545,
                "end_time": 72.29090909090908,
                "pitch": 46,
                "velocity": 51,
                "duration": 0.2863636363636317,
                "tempo": 120.0
            },
            {
                "start_time": 72.30681818181817,
                "end_time": 72.44318181818181,
                "pitch": 48,
                "velocity": 51,
                "duration": 0.13636363636364024,
                "tempo": 120.0
            },
            {
                "start_time": 72.4590909090909,
                "end_time": 72.59318181818182,
                "pitch": 48,
                "velocity": 51,
                "duration": 0.13409090909091503,
                "tempo": 120.0
            },
            {
                "start_time": 72.61136363636363,
                "end_time": 72.74318181818181,
                "pitch": 43,
                "velocity": 51,
                "duration": 0.13181818181817562,
                "tempo": 120.0
            },
            {
                "start_time": 72.76136363636363,
                "end_time": 73.04318181818182,
                "pitch": 48,
                "velocity": 51,
                "duration": 0.2818181818181955,
                "tempo": 120.0
            },
            {
                "start_time": 73.06136363636364,
                "end_time": 73.19318181818181,
                "pitch": 48,
                "velocity": 51,
                "duration": 0.13181818181817562,
                "tempo": 120.0
            },
            {
                "start_time": 73.21136363636363,
                "end_time": 73.34318181818182,
                "pitch": 43,
                "velocity": 51,
                "duration": 0.13181818181818983,
                "tempo": 120.0
            },
            {
                "start_time": 73.36136363636363,
                "end_time": 73.49318181818181,
                "pitch": 48,
                "velocity": 51,
                "duration": 0.13181818181817562,
                "tempo": 120.0
            },
            {
                "start_time": 73.51136363636363,
                "end_time": 73.64318181818182,
                "pitch": 46,
                "velocity": 51,
                "duration": 0.13181818181818983,
                "tempo": 120.0
            },
            {
                "start_time": 73.66136363636363,
                "end_time": 73.79318181818182,
                "pitch": 46,
                "velocity": 51,
                "duration": 0.13181818181818983,
                "tempo": 120.0
            },
            {
                "start_time": 73.81136363636364,
                "end_time": 73.94545454545454,
                "pitch": 41,
                "velocity": 51,
                "duration": 0.13409090909090082,
                "tempo": 120.0
            },
            {
                "start_time": 73.96136363636363,
                "end_time": 74.24772727272727,
                "pitch": 46,
                "velocity": 51,
                "duration": 0.2863636363636459,
                "tempo": 120.0
            },
            {
                "start_time": 74.26590909090909,
                "end_time": 74.39999999999999,
                "pitch": 46,
                "velocity": 51,
                "duration": 0.13409090909090082,
                "tempo": 120.0
            },
            {
                "start_time": 74.41590909090908,
                "end_time": 74.55,
                "pitch": 41,
                "velocity": 51,
                "duration": 0.13409090909091503,
                "tempo": 120.0
            },
            {
                "start_time": 74.56590909090909,
                "end_time": 74.6,
                "pitch": 46,
                "velocity": 51,
                "duration": 0.03409090909090651,
                "tempo": 120.0
            },
            {
                "start_time": 75.01590909090909,
                "end_time": 75.30227272727272,
                "pitch": 44,
                "velocity": 51,
                "duration": 0.2863636363636317,
                "tempo": 120.0
            },
            {
                "start_time": 75.32045454545454,
                "end_time": 75.60681818181818,
                "pitch": 44,
                "velocity": 51,
                "duration": 0.2863636363636459,
                "tempo": 120.0
            },
            {
                "start_time": 75.62272727272727,
                "end_time": 75.90681818181818,
                "pitch": 44,
                "velocity": 51,
                "duration": 0.2840909090909065,
                "tempo": 120.0
            },
            {
                "start_time": 75.92272727272727,
                "end_time": 76.20681818181818,
                "pitch": 53,
                "velocity": 51,
                "duration": 0.2840909090909065,
                "tempo": 120.0
            },
            {
                "start_time": 76.22272727272727,
                "end_time": 76.50681818181818,
                "pitch": 53,
                "velocity": 51,
                "duration": 0.2840909090909065,
                "tempo": 120.0
            },
            {
                "start_time": 76.52272727272727,
                "end_time": 76.80681818181817,
                "pitch": 51,
                "velocity": 51,
                "duration": 0.2840909090909065,
                "tempo": 120.0
            },
            {
                "start_time": 76.82272727272726,
                "end_time": 77.11136363636363,
                "pitch": 53,
                "velocity": 51,
                "duration": 0.28863636363637113,
                "tempo": 120.0
            },
            {
                "start_time": 77.12954545454545,
                "end_time": 77.26590909090909,
                "pitch": 39,
                "velocity": 51,
                "duration": 0.13636363636364024,
                "tempo": 120.0
            },
            {
                "start_time": 77.28181818181818,
                "end_time": 77.41818181818181,
                "pitch": 51,
                "velocity": 51,
                "duration": 0.13636363636362603,
                "tempo": 120.0
            },
            {
                "start_time": 77.43409090909091,
                "end_time": 77.56590909090909,
                "pitch": 39,
                "velocity": 51,
                "duration": 0.13181818181817562,
                "tempo": 120.0
            },
            {
                "start_time": 77.5840909090909,
                "end_time": 77.7159090909091,
                "pitch": 51,
                "velocity": 51,
                "duration": 0.13181818181818983,
                "tempo": 120.0
            }
        ],
        "Trumpet": [
            {
                "start_time": 57.834090909090904,
                "end_time": 58.12045454545454,
                "pitch": 84,
                "velocity": 80,
                "duration": 0.2863636363636388,
                "tempo": 120.0
            },
            {
                "start_time": 58.13863636363636,
                "end_time": 58.27272727272727,
                "pitch": 83,
                "velocity": 80,
                "duration": 0.13409090909091503,
                "tempo": 120.0
            },
            {
                "start_time": 58.288636363636364,
                "end_time": 58.574999999999996,
                "pitch": 82,
                "velocity": 80,
                "duration": 0.2863636363636317,
                "tempo": 120.0
            },
            {
                "start_time": 58.59318181818182,
                "end_time": 58.72727272727273,
                "pitch": 84,
                "velocity": 80,
                "duration": 0.13409090909090793,
                "tempo": 120.0
            },
            {
                "start_time": 58.74318181818182,
                "end_time": 58.87954545454545,
                "pitch": 83,
                "velocity": 80,
                "duration": 0.13636363636363313,
                "tempo": 120.0
            },
            {
                "start_time": 58.89545454545454,
                "end_time": 59.02954545454545,
                "pitch": 82,
                "velocity": 80,
                "duration": 0.13409090909090793,
                "tempo": 120.0
            },
            {
                "start_time": 59.04772727272727,
                "end_time": 59.334090909090904,
                "pitch": 84,
                "velocity": 80,
                "duration": 0.2863636363636317,
                "tempo": 120.0
            },
            {
                "start_time": 59.349999999999994,
                "end_time": 59.48409090909091,
                "pitch": 84,
                "velocity": 80,
                "duration": 0.13409090909091503,
                "tempo": 120.0
            },
            {
                "start_time": 59.502272727272725,
                "end_time": 59.788636363636364,
                "pitch": 82,
                "velocity": 80,
                "duration": 0.2863636363636388,
                "tempo": 120.0
            },
            {
                "start_time": 59.804545454545455,
                "end_time": 59.93863636363636,
                "pitch": 82,
                "velocity": 80,
                "duration": 0.13409090909090793,
                "tempo": 120.0
            },
            {
                "start_time": 59.95681818181818,
                "end_time": 60.08863636363636,
                "pitch": 83,
                "velocity": 80,
                "duration": 0.13181818181818272,
                "tempo": 120.0
            },
            {
                "start_time": 60.10454545454545,
                "end_time": 60.236363636363635,
                "pitch": 84,
                "velocity": 80,
                "duration": 0.13181818181818272,
                "tempo": 120.0
            },
            {
                "start_time": 60.252272727272725,
                "end_time": 60.53409090909091,
                "pitch": 87,
                "velocity": 80,
                "duration": 0.2818181818181813,
                "tempo": 120.0
            },
            {
                "start_time": 60.55,
                "end_time": 60.83863636363636,
                "pitch": 87,
                "velocity": 80,
                "duration": 0.288636363636364,
                "tempo": 120.0
            },
            {
                "start_time": 60.85681818181818,
                "end_time": 61.14545454545454,
                "pitch": 87,
                "velocity": 80,
                "duration": 0.288636363636364,
                "tempo": 120.0
            },
            {
                "start_time": 61.16136363636363,
                "end_time": 61.293181818181814,
                "pitch": 82,
                "velocity": 80,
                "duration": 0.13181818181818272,
                "tempo": 120.0
            },
            {
                "start_time": 61.31136363636363,
                "end_time": 61.590909090909086,
                "pitch": 79,
                "velocity": 80,
                "duration": 0.2795454545454561,
                "tempo": 120.0
            },
            {
                "start_time": 61.60681818181818,
                "end_time": 61.73863636363636,
                "pitch": 79,
                "velocity": 80,
                "duration": 0.13181818181818272,
                "tempo": 120.0
            },
            {
                "start_time": 61.756818181818176,
                "end_time": 62.04545454545454,
                "pitch": 79,
                "velocity": 80,
                "duration": 0.288636363636364,
                "tempo": 120.0
            },
            {
                "start_time": 62.06136363636363,
                "end_time": 62.35227272727273,
                "pitch": 79,
                "velocity": 80,
                "duration": 0.29090909090909634,
                "tempo": 120.0
            },
            {
                "start_time": 62.36818181818182,
                "end_time": 62.647727272727266,
                "pitch": 82,
                "velocity": 80,
                "duration": 0.279545454545449,
                "tempo": 120.0
            },
            {
                "start_time": 62.66590909090909,
                "end_time": 62.945454545454545,
                "pitch": 84,
                "velocity": 80,
                "duration": 0.2795454545454561,
                "tempo": 120.0
            },
            {
                "start_time": 62.961363636363636,
                "end_time": 63.09772727272727,
                "pitch": 83,
                "velocity": 80,
                "duration": 0.13636363636363313,
                "tempo": 120.0
            },
            {
                "start_time": 63.11363636363636,
                "end_time": 63.4,
                "pitch": 82,
                "velocity": 80,
                "duration": 0.2863636363636388,
                "tempo": 120.0
            },
            {
                "start_time": 63.41590909090909,
                "end_time": 63.55227272727272,
                "pitch": 84,
                "velocity": 80,
                "duration": 0.13636363636363313,
                "tempo": 120.0
            },
            {
                "start_time": 63.56818181818181,
                "end_time": 63.70227272727272,
                "pitch": 83,
                "velocity": 80,
                "duration": 0.13409090909090793,
                "tempo": 120.0
            },
            {
                "start_time": 63.720454545454544,
                "end_time": 63.85454545454545,
                "pitch": 82,
                "velocity": 80,
                "duration": 0.13409090909090793,
                "tempo": 120.0
            },
            {
                "start_time": 63.87045454545454,
                "end_time": 64.15681818181818,
                "pitch": 84,
                "velocity": 80,
                "duration": 0.2863636363636388,
                "tempo": 120.0
            },
            {
                "start_time": 64.175,
                "end_time": 64.31136363636364,
                "pitch": 84,
                "velocity": 80,
                "duration": 0.13636363636364024,
                "tempo": 120.0
            },
            {
                "start_time": 64.32727272727273,
                "end_time": 64.61590909090908,
                "pitch": 82,
                "velocity": 80,
                "duration": 0.2886363636363569,
                "tempo": 120.0
            },
            {
                "start_time": 64.6340909090909,
                "end_time": 64.77045454545454,
                "pitch": 82,
                "velocity": 80,
                "duration": 0.13636363636364024,
                "tempo": 120.0
            },
            {
                "start_time": 64.78636363636363,
                "end_time": 64.91818181818182,
                "pitch": 83,
                "velocity": 80,
                "duration": 0.13181818181818983,
                "tempo": 120.0
            },
            {
                "start_time": 64.93409090909091,
                "end_time": 65.06590909090909,
                "pitch": 84,
                "velocity": 80,
                "duration": 0.13181818181817562,
                "tempo": 120.0
            },
            {
                "start_time": 65.0840909090909,
                "end_time": 65.36363636363636,
                "pitch": 87,
                "velocity": 80,
                "duration": 0.2795454545454561,
                "tempo": 120.0
            },
            {
                "start_time": 65.37954545454545,
                "end_time": 65.67045454545455,
                "pitch": 87,
                "velocity": 80,
                "duration": 0.29090909090909634,
                "tempo": 120.0
            },
            {
                "start_time": 65.68636363636364,
                "end_time": 65.975,
                "pitch": 87,
                "velocity": 80,
                "duration": 0.2886363636363569,
                "tempo": 120.0
            },
            {
                "start_time": 65.99318181818181,
                "end_time": 66.125,
                "pitch": 89,
                "velocity": 80,
                "duration": 0.13181818181818983,
                "tempo": 120.0
            },
            {
                "start_time": 66.14090909090909,
                "end_time": 67.02045454545454,
                "pitch": 89,
                "velocity": 80,
                "duration": 0.8795454545454504,
                "tempo": 120.0
            },
            {
                "start_time": 67.03636363636363,
                "end_time": 67.17045454545455,
                "pitch": 89,
                "velocity": 80,
                "duration": 0.13409090909091503,
                "tempo": 120.0
            },
            {
                "start_time": 67.18636363636364,
                "end_time": 67.32272727272726,
                "pitch": 86,
                "velocity": 80,
                "duration": 0.13636363636362603,
                "tempo": 120.0
            },
            {
                "start_time": 67.33863636363635,
                "end_time": 67.475,
                "pitch": 85,
                "velocity": 80,
                "duration": 0.13636363636364024,
                "tempo": 120.0
            }
        ],
        "Vibraphone": [
            {
                "start_time": 67.49318181818181,
                "end_time": 67.78181818181818,
                "pitch": 84,
                "velocity": 80,
                "duration": 0.28863636363637113,
                "tempo": 120.0
            },
            {
                "start_time": 67.79772727272727,
                "end_time": 68.07954545454545,
                "pitch": 84,
                "velocity": 80,
                "duration": 0.2818181818181813,
                "tempo": 120.0
            },
            {
                "start_time": 68.09545454545454,
                "end_time": 68.22727272727272,
                "pitch": 84,
                "velocity": 80,
                "duration": 0.13181818181817562,
                "tempo": 120.0
            },
            {
                "start_time": 68.24318181818181,
                "end_time": 68.52499999999999,
                "pitch": 87,
                "velocity": 80,
                "duration": 0.2818181818181813,
                "tempo": 120.0
            },
            {
                "start_time": 68.54318181818182,
                "end_time": 68.825,
                "pitch": 82,
                "velocity": 80,
                "duration": 0.2818181818181813,
                "tempo": 120.0
            },
            {
                "start_time": 68.84318181818182,
                "end_time": 69.12727272727273,
                "pitch": 82,
                "velocity": 80,
                "duration": 0.2840909090909065,
                "tempo": 120.0
            },
            {
                "start_time": 69.14318181818182,
                "end_time": 69.27954545454546,
                "pitch": 82,
                "velocity": 80,
                "duration": 0.13636363636364024,
                "tempo": 120.0
            },
            {
                "start_time": 69.29545454545455,
                "end_time": 69.58181818181818,
                "pitch": 89,
                "velocity": 80,
                "duration": 0.2863636363636317,
                "tempo": 120.0
            },
            {
                "start_time": 69.59772727272727,
                "end_time": 69.88181818181818,
                "pitch": 87,
                "velocity": 80,
                "duration": 0.2840909090909065,
                "tempo": 120.0
            },
            {
                "start_time": 69.89772727272727,
                "end_time": 70.18181818181817,
                "pitch": 80,
                "velocity": 80,
                "duration": 0.2840909090909065,
                "tempo": 120.0
            },
            {
                "start_time": 70.19772727272726,
                "end_time": 70.48181818181818,
                "pitch": 80,
                "velocity": 80,
                "duration": 0.2840909090909207,
                "tempo": 120.0
            },
            {
                "start_time": 70.49772727272727,
                "end_time": 70.78181818181818,
                "pitch": 84,
                "velocity": 80,
                "duration": 0.2840909090909065,
                "tempo": 120.0
            },
            {
                "start_time": 70.79772727272727,
                "end_time": 70.93409090909091,
                "pitch": 80,
                "velocity": 80,
                "duration": 0.13636363636364024,
                "tempo": 120.0
            },
            {
                "start_time": 70.95,
                "end_time": 71.23636363636363,
                "pitch": 79,
                "velocity": 80,
                "duration": 0.2863636363636317,
                "tempo": 120.0
            },
            {
                "start_time": 71.25227272727273,
                "end_time": 71.38863636363637,
                "pitch": 79,
                "velocity": 80,
                "duration": 0.13636363636364024,
                "tempo": 120.0
            },
            {
                "start_time": 71.40454545454546,
                "end_time": 71.68863636363636,
                "pitch": 79,
                "velocity": 80,
                "duration": 0.2840909090909065,
                "tempo": 120.0
            },
            {
                "start_time": 71.70454545454545,
                "end_time": 71.98863636363636,
                "pitch": 80,
                "velocity": 80,
                "duration": 0.2840909090909065,
                "tempo": 120.0
            },
            {
                "start_time": 72.00454545454545,
                "end_time": 72.29090909090908,
                "pitch": 82,
                "velocity": 80,
                "duration": 0.2863636363636317,
                "tempo": 120.0
            },
            {
                "start_time": 72.30681818181817,
                "end_time": 72.59318181818182,
                "pitch": 84,
                "velocity": 80,
                "duration": 0.2863636363636459,
                "tempo": 120.0
            },
            {
                "start_time": 72.61136363636363,
                "end_time": 72.89318181818182,
                "pitch": 84,
                "velocity": 80,
                "duration": 0.2818181818181813,
                "tempo": 120.0
            },
            {
                "start_time": 72.91136363636363,
                "end_time": 73.19318181818181,
                "pitch": 87,
                "velocity": 80,
                "duration": 0.2818181818181813,
                "tempo": 120.0
            },
            {
                "start_time": 73.21136363636363,
                "end_time": 73.34318181818182,
                "pitch": 84,
                "velocity": 80,
                "duration": 0.13181818181818983,
                "tempo": 120.0
            },
            {
                "start_time": 73.36136363636363,
                "end_time": 73.64318181818182,
                "pitch": 82,
                "velocity": 80,
                "duration": 0.2818181818181813,
                "tempo": 120.0
            },
            {
                "start_time": 73.66136363636363,
                "end_time": 73.79318181818182,
                "pitch": 82,
                "velocity": 80,
                "duration": 0.13181818181818983,
                "tempo": 120.0
            },
            {
                "start_time": 73.81136363636364,
                "end_time": 74.09772727272727,
                "pitch": 82,
                "velocity": 80,
                "duration": 0.2863636363636317,
                "tempo": 120.0
            },
            {
                "start_time": 74.11363636363636,
                "end_time": 74.39999999999999,
                "pitch": 87,
                "velocity": 80,
                "duration": 0.2863636363636317,
                "tempo": 120.0
            },
            {
                "start_time": 74.41590909090908,
                "end_time": 74.7,
                "pitch": 89,
                "velocity": 80,
                "duration": 0.2840909090909207,
                "tempo": 120.0
            },
            {
                "start_time": 74.7159090909091,
                "end_time": 75.35454545454544,
                "pitch": 87,
                "velocity": 80,
                "duration": 0.6386363636363512,
                "tempo": 120.0
            },
            {
                "start_time": 75.92272727272727,
                "end_time": 76.50681818181818,
                "pitch": 86,
                "velocity": 80,
                "duration": 0.5840909090909037,
                "tempo": 120.0
            },
            {
                "start_time": 76.52272727272727,
                "end_time": 76.80681818181817,
                "pitch": 84,
                "velocity": 80,
                "duration": 0.2840909090909065,
                "tempo": 120.0
            },
            {
                "start_time": 76.82272727272726,
                "end_time": 77.11136363636363,
                "pitch": 86,
                "velocity": 80,
                "duration": 0.28863636363637113,
                "tempo": 120.0
            }
        ],
        "Electric Guitar (clean)": [
            {
                "start_time": 0.011363636363636364,
                "end_time": 0.17727272727272728,
                "pitch": 79,
                "velocity": 40,
                "duration": 0.16590909090909092,
                "tempo": 120.0
            },
            {
                "start_time": 0.1909090909090909,
                "end_time": 0.4727272727272727,
                "pitch": 79,
                "velocity": 40,
                "duration": 0.28181818181818186,
                "tempo": 120.0
            },
            {
                "start_time": 0.4909090909090909,
                "end_time": 0.7727272727272727,
                "pitch": 79,
                "velocity": 40,
                "duration": 0.2818181818181818,
                "tempo": 120.0
            },
            {
                "start_time": 0.7909090909090909,
                "end_time": 1.0795454545454546,
                "pitch": 79,
                "velocity": 40,
                "duration": 0.2886363636363637,
                "tempo": 120.0
            },
            {
                "start_time": 1.0954545454545455,
                "end_time": 1.2318181818181817,
                "pitch": 79,
                "velocity": 40,
                "duration": 0.13636363636363624,
                "tempo": 120.0
            },
            {
                "start_time": 1.25,
                "end_time": 1.384090909090909,
                "pitch": 79,
                "velocity": 40,
                "duration": 0.13409090909090904,
                "tempo": 120.0
            },
            {
                "start_time": 1.4022727272727271,
                "end_time": 1.534090909090909,
                "pitch": 79,
                "velocity": 40,
                "duration": 0.13181818181818183,
                "tempo": 120.0
            },
            {
                "start_time": 1.5499999999999998,
                "end_time": 2.2818181818181817,
                "pitch": 79,
                "velocity": 40,
                "duration": 0.7318181818181819,
                "tempo": 120.0
            },
            {
                "start_time": 2.3,
                "end_time": 2.5863636363636364,
                "pitch": 80,
                "velocity": 40,
                "duration": 0.2863636363636366,
                "tempo": 120.0
            },
            {
                "start_time": 2.602272727272727,
                "end_time": 2.8909090909090907,
                "pitch": 80,
                "velocity": 40,
                "duration": 0.2886363636363636,
                "tempo": 120.0
            },
            {
                "start_time": 2.909090909090909,
                "end_time": 3.1977272727272728,
                "pitch": 80,
                "velocity": 40,
                "duration": 0.2886363636363636,
                "tempo": 120.0
            },
            {
                "start_time": 3.2136363636363634,
                "end_time": 3.495454545454545,
                "pitch": 80,
                "velocity": 40,
                "duration": 0.28181818181818175,
                "tempo": 120.0
            },
            {
                "start_time": 3.5113636363636362,
                "end_time": 3.643181818181818,
                "pitch": 82,
                "velocity": 40,
                "duration": 0.13181818181818183,
                "tempo": 120.0
            },
            {
                "start_time": 3.6590909090909087,
                "end_time": 3.7909090909090906,
                "pitch": 80,
                "velocity": 40,
                "duration": 0.13181818181818183,
                "tempo": 120.0
            },
            {
                "start_time": 3.809090909090909,
                "end_time": 3.943181818181818,
                "pitch": 79,
                "velocity": 40,
                "duration": 0.13409090909090882,
                "tempo": 120.0
            },
            {
                "start_time": 3.959090909090909,
                "end_time": 4.7,
                "pitch": 80,
                "velocity": 40,
                "duration": 0.7409090909090912,
                "tempo": 120.0
            },
            {
                "start_time": 4.718181818181818,
                "end_time": 5.004545454545454,
                "pitch": 79,
                "velocity": 40,
                "duration": 0.28636363636363615,
                "tempo": 120.0
            },
            {
                "start_time": 5.0204545454545455,
                "end_time": 5.309090909090909,
                "pitch": 79,
                "velocity": 40,
                "duration": 0.28863636363636314,
                "tempo": 120.0
            },
            {
                "start_time": 5.327272727272727,
                "end_time": 5.61590909090909,
                "pitch": 79,
                "velocity": 40,
                "duration": 0.28863636363636314,
                "tempo": 120.0
            },
            {
                "start_time": 5.631818181818182,
                "end_time": 5.918181818181818,
                "pitch": 79,
                "velocity": 40,
                "duration": 0.28636363636363615,
                "tempo": 120.0
            },
            {
                "start_time": 5.9363636363636365,
                "end_time": 6.070454545454545,
                "pitch": 79,
                "velocity": 40,
                "duration": 0.13409090909090882,
                "tempo": 120.0
            },
            {
                "start_time": 6.086363636363636,
                "end_time": 6.222727272727273,
                "pitch": 79,
                "velocity": 40,
                "duration": 0.1363636363636367,
                "tempo": 120.0
            },
            {
                "start_time": 6.238636363636363,
                "end_time": 6.370454545454545,
                "pitch": 79,
                "velocity": 40,
                "duration": 0.13181818181818183,
                "tempo": 120.0
            },
            {
                "start_time": 6.386363636363636,
                "end_time": 7.11590909090909,
                "pitch": 79,
                "velocity": 40,
                "duration": 0.7295454545454545,
                "tempo": 120.0
            },
            {
                "start_time": 7.131818181818182,
                "end_time": 7.265909090909091,
                "pitch": 80,
                "velocity": 40,
                "duration": 0.13409090909090882,
                "tempo": 120.0
            },
            {
                "start_time": 7.281818181818181,
                "end_time": 7.3159090909090905,
                "pitch": 80,
                "velocity": 40,
                "duration": 0.03409090909090917,
                "tempo": 120.0
            },
            {
                "start_time": 7.886363636363636,
                "end_time": 8.022727272727272,
                "pitch": 80,
                "velocity": 40,
                "duration": 0.1363636363636358,
                "tempo": 120.0
            },
            {
                "start_time": 8.038636363636364,
                "end_time": 8.072727272727272,
                "pitch": 80,
                "velocity": 40,
                "duration": 0.034090909090908283,
                "tempo": 120.0
            },
            {
                "start_time": 8.65,
                "end_time": 8.931818181818182,
                "pitch": 82,
                "velocity": 40,
                "duration": 0.2818181818181813,
                "tempo": 120.0
            },
            {
                "start_time": 8.947727272727272,
                "end_time": 9.229545454545454,
                "pitch": 82,
                "velocity": 40,
                "duration": 0.2818181818181813,
                "tempo": 120.0
            },
            {
                "start_time": 9.245454545454544,
                "end_time": 9.534090909090908,
                "pitch": 82,
                "velocity": 40,
                "duration": 0.288636363636364,
                "tempo": 120.0
            },
            {
                "start_time": 9.549999999999999,
                "end_time": 9.686363636363636,
                "pitch": 79,
                "velocity": 40,
                "duration": 0.1363636363636367,
                "tempo": 120.0
            },
            {
                "start_time": 9.704545454545453,
                "end_time": 9.84090909090909,
                "pitch": 79,
                "velocity": 40,
                "duration": 0.1363636363636367,
                "tempo": 120.0
            },
            {
                "start_time": 9.85681818181818,
                "end_time": 9.99090909090909,
                "pitch": 75,
                "velocity": 40,
                "duration": 0.1340909090909097,
                "tempo": 120.0
            },
            {
                "start_time": 10.009090909090908,
                "end_time": 10.143181818181818,
                "pitch": 75,
                "velocity": 40,
                "duration": 0.1340909090909097,
                "tempo": 120.0
            },
            {
                "start_time": 10.159090909090908,
                "end_time": 10.295454545454545,
                "pitch": 70,
                "velocity": 40,
                "duration": 0.1363636363636367,
                "tempo": 120.0
            },
            {
                "start_time": 10.311363636363636,
                "end_time": 10.445454545454545,
                "pitch": 70,
                "velocity": 40,
                "duration": 0.1340909090909097,
                "tempo": 120.0
            },
            {
                "start_time": 10.463636363636363,
                "end_time": 10.595454545454546,
                "pitch": 75,
                "velocity": 40,
                "duration": 0.13181818181818272,
                "tempo": 120.0
            },
            {
                "start_time": 10.611363636363636,
                "end_time": 10.743181818181817,
                "pitch": 75,
                "velocity": 40,
                "duration": 0.13181818181818095,
                "tempo": 120.0
            },
            {
                "start_time": 10.759090909090908,
                "end_time": 10.893181818181818,
                "pitch": 79,
                "velocity": 40,
                "duration": 0.1340909090909097,
                "tempo": 120.0
            },
            {
                "start_time": 10.909090909090908,
                "end_time": 11.040909090909091,
                "pitch": 79,
                "velocity": 40,
                "duration": 0.13181818181818272,
                "tempo": 120.0
            },
            {
                "start_time": 11.056818181818182,
                "end_time": 11.19090909090909,
                "pitch": 75,
                "velocity": 40,
                "duration": 0.13409090909090793,
                "tempo": 120.0
            },
            {
                "start_time": 11.206818181818182,
                "end_time": 11.34090909090909,
                "pitch": 75,
                "velocity": 40,
                "duration": 0.13409090909090793,
                "tempo": 120.0
            },
            {
                "start_time": 11.35681818181818,
                "end_time": 11.49090909090909,
                "pitch": 70,
                "velocity": 40,
                "duration": 0.1340909090909097,
                "tempo": 120.0
            },
            {
                "start_time": 11.506818181818181,
                "end_time": 11.64090909090909,
                "pitch": 70,
                "velocity": 40,
                "duration": 0.1340909090909097,
                "tempo": 120.0
            },
            {
                "start_time": 11.656818181818181,
                "end_time": 11.793181818181818,
                "pitch": 75,
                "velocity": 40,
                "duration": 0.1363636363636367,
                "tempo": 120.0
            },
            {
                "start_time": 11.809090909090909,
                "end_time": 11.945454545454545,
                "pitch": 75,
                "velocity": 40,
                "duration": 0.1363636363636367,
                "tempo": 120.0
            },
            {
                "start_time": 11.963636363636363,
                "end_time": 12.1,
                "pitch": 77,
                "velocity": 40,
                "duration": 0.1363636363636367,
                "tempo": 120.0
            },
            {
                "start_time": 12.11590909090909,
                "end_time": 12.252272727272727,
                "pitch": 77,
                "velocity": 40,
                "duration": 0.1363636363636367,
                "tempo": 120.0
            },
            {
                "start_time": 12.270454545454545,
                "end_time": 12.402272727272727,
                "pitch": 74,
                "velocity": 40,
                "duration": 0.13181818181818272,
                "tempo": 120.0
            },
            {
                "start_time": 12.420454545454545,
                "end_time": 12.552272727272726,
                "pitch": 74,
                "velocity": 40,
                "duration": 0.13181818181818095,
                "tempo": 120.0
            },
            {
                "start_time": 12.570454545454545,
                "end_time": 12.702272727272726,
                "pitch": 70,
                "velocity": 40,
                "duration": 0.13181818181818095,
                "tempo": 120.0
            },
            {
                "start_time": 12.720454545454546,
                "end_time": 12.852272727272727,
                "pitch": 70,
                "velocity": 40,
                "duration": 0.13181818181818095,
                "tempo": 120.0
            },
            {
                "start_time": 12.870454545454544,
                "end_time": 13.002272727272727,
                "pitch": 74,
                "velocity": 40,
                "duration": 0.13181818181818272,
                "tempo": 120.0
            },
            {
                "start_time": 13.018181818181818,
                "end_time": 13.149999999999999,
                "pitch": 74,
                "velocity": 40,
                "duration": 0.13181818181818095,
                "tempo": 120.0
            },
            {
                "start_time": 13.165909090909091,
                "end_time": 13.297727272727272,
                "pitch": 77,
                "velocity": 40,
                "duration": 0.13181818181818095,
                "tempo": 120.0
            },
            {
                "start_time": 13.31590909090909,
                "end_time": 13.447727272727272,
                "pitch": 77,
                "velocity": 40,
                "duration": 0.13181818181818272,
                "tempo": 120.0
            },
            {
                "start_time": 13.463636363636363,
                "end_time": 13.597727272727273,
                "pitch": 80,
                "velocity": 40,
                "duration": 0.1340909090909097,
                "tempo": 120.0
            },
            {
                "start_time": 13.613636363636363,
                "end_time": 13.747727272727271,
                "pitch": 80,
                "velocity": 40,
                "duration": 0.13409090909090793,
                "tempo": 120.0
            },
            {
                "start_time": 13.763636363636364,
                "end_time": 13.897727272727272,
                "pitch": 79,
                "velocity": 40,
                "duration": 0.13409090909090793,
                "tempo": 120.0
            },
            {
                "start_time": 13.913636363636362,
                "end_time": 14.047727272727272,
                "pitch": 79,
                "velocity": 40,
                "duration": 0.1340909090909097,
                "tempo": 120.0
            },
            {
                "start_time": 14.063636363636363,
                "end_time": 14.2,
                "pitch": 77,
                "velocity": 40,
                "duration": 0.1363636363636367,
                "tempo": 120.0
            },
            {
                "start_time": 14.21590909090909,
                "end_time": 14.352272727272727,
                "pitch": 77,
                "velocity": 40,
                "duration": 0.1363636363636367,
                "tempo": 120.0
            },
            {
                "start_time": 14.370454545454544,
                "end_time": 14.504545454545454,
                "pitch": 77,
                "velocity": 40,
                "duration": 0.1340909090909097,
                "tempo": 120.0
            },
            {
                "start_time": 14.522727272727272,
                "end_time": 14.659090909090908,
                "pitch": 77,
                "velocity": 40,
                "duration": 0.1363636363636367,
                "tempo": 120.0
            },
            {
                "start_time": 14.674999999999999,
                "end_time": 14.806818181818182,
                "pitch": 75,
                "velocity": 40,
                "duration": 0.13181818181818272,
                "tempo": 120.0
            },
            {
                "start_time": 14.825,
                "end_time": 14.95681818181818,
                "pitch": 75,
                "velocity": 40,
                "duration": 0.13181818181818095,
                "tempo": 120.0
            },
            {
                "start_time": 14.972727272727273,
                "end_time": 15.104545454545454,
                "pitch": 74,
                "velocity": 40,
                "duration": 0.13181818181818095,
                "tempo": 120.0
            },
            {
                "start_time": 15.120454545454544,
                "end_time": 15.252272727272727,
                "pitch": 74,
                "velocity": 40,
                "duration": 0.13181818181818272,
                "tempo": 120.0
            },
            {
                "start_time": 15.270454545454545,
                "end_time": 15.404545454545454,
                "pitch": 72,
                "velocity": 40,
                "duration": 0.1340909090909097,
                "tempo": 120.0
            },
            {
                "start_time": 15.422727272727272,
                "end_time": 15.559090909090909,
                "pitch": 72,
                "velocity": 40,
                "duration": 0.1363636363636367,
                "tempo": 120.0
            },
            {
                "start_time": 15.575,
                "end_time": 15.711363636363636,
                "pitch": 77,
                "velocity": 40,
                "duration": 0.1363636363636367,
                "tempo": 120.0
            },
            {
                "start_time": 15.729545454545454,
                "end_time": 15.863636363636363,
                "pitch": 77,
                "velocity": 40,
                "duration": 0.1340909090909097,
                "tempo": 120.0
            },
            {
                "start_time": 15.881818181818181,
                "end_time": 16.01590909090909,
                "pitch": 75,
                "velocity": 40,
                "duration": 0.1340909090909097,
                "tempo": 120.0
            },
            {
                "start_time": 16.03409090909091,
                "end_time": 16.168181818181818,
                "pitch": 75,
                "velocity": 40,
                "duration": 0.13409090909090793,
                "tempo": 120.0
            },
            {
                "start_time": 16.18409090909091,
                "end_time": 16.320454545454545,
                "pitch": 74,
                "velocity": 40,
                "duration": 0.1363636363636367,
                "tempo": 120.0
            },
            {
                "start_time": 16.336363636363636,
                "end_time": 16.470454545454544,
                "pitch": 74,
                "velocity": 40,
                "duration": 0.13409090909090793,
                "tempo": 120.0
            },
            {
                "start_time": 16.488636363636363,
                "end_time": 16.620454545454546,
                "pitch": 72,
                "velocity": 40,
                "duration": 0.13181818181818272,
                "tempo": 120.0
            },
            {
                "start_time": 16.638636363636362,
                "end_time": 16.770454545454545,
                "pitch": 72,
                "velocity": 40,
                "duration": 0.13181818181818272,
                "tempo": 120.0
            },
            {
                "start_time": 16.788636363636364,
                "end_time": 16.920454545454543,
                "pitch": 70,
                "velocity": 40,
                "duration": 0.13181818181817917,
                "tempo": 120.0
            },
            {
                "start_time": 16.938636363636363,
                "end_time": 17.070454545454545,
                "pitch": 70,
                "velocity": 40,
                "duration": 0.13181818181818272,
                "tempo": 120.0
            },
            {
                "start_time": 17.08863636363636,
                "end_time": 17.220454545454544,
                "pitch": 74,
                "velocity": 40,
                "duration": 0.13181818181818272,
                "tempo": 120.0
            },
            {
                "start_time": 17.236363636363635,
                "end_time": 17.368181818181817,
                "pitch": 74,
                "velocity": 40,
                "duration": 0.13181818181818272,
                "tempo": 120.0
            },
            {
                "start_time": 17.384090909090908,
                "end_time": 17.51590909090909,
                "pitch": 77,
                "velocity": 40,
                "duration": 0.13181818181818272,
                "tempo": 120.0
            },
            {
                "start_time": 17.534090909090907,
                "end_time": 17.66590909090909,
                "pitch": 77,
                "velocity": 40,
                "duration": 0.13181818181818272,
                "tempo": 120.0
            },
            {
                "start_time": 17.68181818181818,
                "end_time": 17.818181818181817,
                "pitch": 74,
                "velocity": 40,
                "duration": 0.1363636363636367,
                "tempo": 120.0
            },
            {
                "start_time": 17.834090909090907,
                "end_time": 17.970454545454544,
                "pitch": 77,
                "velocity": 40,
                "duration": 0.1363636363636367,
                "tempo": 120.0
            },
            {
                "start_time": 17.988636363636363,
                "end_time": 18.125,
                "pitch": 72,
                "velocity": 40,
                "duration": 0.1363636363636367,
                "tempo": 120.0
            },
            {
                "start_time": 18.14090909090909,
                "end_time": 18.277272727272727,
                "pitch": 72,
                "velocity": 40,
                "duration": 0.1363636363636367,
                "tempo": 120.0
            },
            {
                "start_time": 18.293181818181818,
                "end_time": 18.427272727272726,
                "pitch": 77,
                "velocity": 40,
                "duration": 0.13409090909090793,
                "tempo": 120.0
            },
            {
                "start_time": 18.443181818181817,
                "end_time": 18.577272727272728,
                "pitch": 77,
                "velocity": 40,
                "duration": 0.13409090909091148,
                "tempo": 120.0
            },
            {
                "start_time": 18.59318181818182,
                "end_time": 18.727272727272727,
                "pitch": 80,
                "velocity": 40,
                "duration": 0.13409090909090793,
                "tempo": 120.0
            },
            {
                "start_time": 18.743181818181817,
                "end_time": 18.877272727272725,
                "pitch": 80,
                "velocity": 40,
                "duration": 0.13409090909090793,
                "tempo": 120.0
            },
            {
                "start_time": 18.893181818181816,
                "end_time": 19.029545454545453,
                "pitch": 79,
                "velocity": 40,
                "duration": 0.1363636363636367,
                "tempo": 120.0
            },
            {
                "start_time": 19.045454545454543,
                "end_time": 19.179545454545455,
                "pitch": 77,
                "velocity": 40,
                "duration": 0.13409090909091148,
                "tempo": 120.0
            },
            {
                "start_time": 19.19772727272727,
                "end_time": 19.331818181818182,
                "pitch": 79,
                "velocity": 40,
                "duration": 0.13409090909091148,
                "tempo": 120.0
            },
            {
                "start_time": 19.347727272727273,
                "end_time": 19.48409090909091,
                "pitch": 79,
                "velocity": 40,
                "duration": 0.1363636363636367,
                "tempo": 120.0
            },
            {
                "start_time": 19.5,
                "end_time": 19.63181818181818,
                "pitch": 75,
                "velocity": 40,
                "duration": 0.13181818181817917,
                "tempo": 120.0
            },
            {
                "start_time": 19.647727272727273,
                "end_time": 19.779545454545453,
                "pitch": 75,
                "velocity": 40,
                "duration": 0.13181818181817917,
                "tempo": 120.0
            },
            {
                "start_time": 19.797727272727272,
                "end_time": 19.929545454545455,
                "pitch": 70,
                "velocity": 40,
                "duration": 0.13181818181818272,
                "tempo": 120.0
            },
            {
                "start_time": 19.945454545454545,
                "end_time": 20.077272727272728,
                "pitch": 70,
                "velocity": 40,
                "duration": 0.13181818181818272,
                "tempo": 120.0
            },
            {
                "start_time": 20.09318181818182,
                "end_time": 20.227272727272727,
                "pitch": 75,
                "velocity": 40,
                "duration": 0.13409090909090793,
                "tempo": 120.0
            },
            {
                "start_time": 20.243181818181817,
                "end_time": 20.377272727272725,
                "pitch": 75,
                "velocity": 40,
                "duration": 0.13409090909090793,
                "tempo": 120.0
            },
            {
                "start_time": 20.393181818181816,
                "end_time": 20.527272727272727,
                "pitch": 79,
                "velocity": 40,
                "duration": 0.13409090909091148,
                "tempo": 120.0
            },
            {
                "start_time": 20.543181818181818,
                "end_time": 20.677272727272726,
                "pitch": 79,
                "velocity": 40,
                "duration": 0.13409090909090793,
                "tempo": 120.0
            },
            {
                "start_time": 20.693181818181817,
                "end_time": 20.829545454545453,
                "pitch": 75,
                "velocity": 40,
                "duration": 0.1363636363636367,
                "tempo": 120.0
            },
            {
                "start_time": 20.847727272727273,
                "end_time": 20.98409090909091,
                "pitch": 75,
                "velocity": 40,
                "duration": 0.1363636363636367,
                "tempo": 120.0
            },
            {
                "start_time": 21.0,
                "end_time": 21.136363636363637,
                "pitch": 70,
                "velocity": 40,
                "duration": 0.1363636363636367,
                "tempo": 120.0
            },
            {
                "start_time": 21.152272727272727,
                "end_time": 21.288636363636364,
                "pitch": 70,
                "velocity": 40,
                "duration": 0.1363636363636367,
                "tempo": 120.0
            },
            {
                "start_time": 21.30681818181818,
                "end_time": 21.438636363636363,
                "pitch": 75,
                "velocity": 40,
                "duration": 0.13181818181818272,
                "tempo": 120.0
            },
            {
                "start_time": 21.456818181818182,
                "end_time": 21.58863636363636,
                "pitch": 75,
                "velocity": 40,
                "duration": 0.13181818181817917,
                "tempo": 120.0
            },
            {
                "start_time": 21.60681818181818,
                "end_time": 21.738636363636363,
                "pitch": 77,
                "velocity": 40,
                "duration": 0.13181818181818272,
                "tempo": 120.0
            },
            {
                "start_time": 21.75681818181818,
                "end_time": 21.888636363636362,
                "pitch": 77,
                "velocity": 40,
                "duration": 0.13181818181818272,
                "tempo": 120.0
            },
            {
                "start_time": 21.90681818181818,
                "end_time": 22.038636363636364,
                "pitch": 74,
                "velocity": 40,
                "duration": 0.13181818181818272,
                "tempo": 120.0
            },
            {
                "start_time": 22.054545454545455,
                "end_time": 22.186363636363634,
                "pitch": 74,
                "velocity": 40,
                "duration": 0.13181818181817917,
                "tempo": 120.0
            },
            {
                "start_time": 22.202272727272724,
                "end_time": 22.336363636363636,
                "pitch": 70,
                "velocity": 40,
                "duration": 0.13409090909091148,
                "tempo": 120.0
            },
            {
                "start_time": 22.352272727272727,
                "end_time": 22.48409090909091,
                "pitch": 70,
                "velocity": 40,
                "duration": 0.13181818181818272,
                "tempo": 120.0
            },
            {
                "start_time": 22.5,
                "end_time": 22.634090909090908,
                "pitch": 74,
                "velocity": 40,
                "duration": 0.13409090909090793,
                "tempo": 120.0
            },
            {
                "start_time": 22.652272727272727,
                "end_time": 22.786363636363635,
                "pitch": 74,
                "velocity": 40,
                "duration": 0.13409090909090793,
                "tempo": 120.0
            },
            {
                "start_time": 22.804545454545455,
                "end_time": 22.938636363636363,
                "pitch": 77,
                "velocity": 40,
                "duration": 0.13409090909090793,
                "tempo": 120.0
            },
            {
                "start_time": 22.954545454545453,
                "end_time": 23.08863636363636,
                "pitch": 77,
                "velocity": 40,
                "duration": 0.13409090909090793,
                "tempo": 120.0
            },
            {
                "start_time": 23.10681818181818,
                "end_time": 23.24090909090909,
                "pitch": 80,
                "velocity": 40,
                "duration": 0.13409090909090793,
                "tempo": 120.0
            },
            {
                "start_time": 23.25681818181818,
                "end_time": 23.39090909090909,
                "pitch": 80,
                "velocity": 40,
                "duration": 0.13409090909091148,
                "tempo": 120.0
            },
            {
                "start_time": 23.40681818181818,
                "end_time": 23.54090909090909,
                "pitch": 79,
                "velocity": 40,
                "duration": 0.13409090909090793,
                "tempo": 120.0
            },
            {
                "start_time": 23.55681818181818,
                "end_time": 23.69090909090909,
                "pitch": 79,
                "velocity": 40,
                "duration": 0.13409090909091148,
                "tempo": 120.0
            },
            {
                "start_time": 23.706818181818182,
                "end_time": 23.84318181818182,
                "pitch": 77,
                "velocity": 40,
                "duration": 0.1363636363636367,
                "tempo": 120.0
            },
            {
                "start_time": 23.85909090909091,
                "end_time": 23.995454545454546,
                "pitch": 77,
                "velocity": 40,
                "duration": 0.1363636363636367,
                "tempo": 120.0
            },
            {
                "start_time": 24.011363636363637,
                "end_time": 24.14772727272727,
                "pitch": 70,
                "velocity": 40,
                "duration": 0.13636363636363313,
                "tempo": 120.0
            },
            {
                "start_time": 24.16590909090909,
                "end_time": 24.302272727272726,
                "pitch": 70,
                "velocity": 40,
                "duration": 0.1363636363636367,
                "tempo": 120.0
            },
            {
                "start_time": 24.318181818181817,
                "end_time": 24.45,
                "pitch": 72,
                "velocity": 40,
                "duration": 0.13181818181818272,
                "tempo": 120.0
            },
            {
                "start_time": 24.46590909090909,
                "end_time": 24.599999999999998,
                "pitch": 72,
                "velocity": 40,
                "duration": 0.13409090909090793,
                "tempo": 120.0
            },
            {
                "start_time": 24.61590909090909,
                "end_time": 24.74772727272727,
                "pitch": 74,
                "velocity": 40,
                "duration": 0.13181818181818272,
                "tempo": 120.0
            },
            {
                "start_time": 24.763636363636362,
                "end_time": 24.895454545454545,
                "pitch": 74,
                "velocity": 40,
                "duration": 0.13181818181818272,
                "tempo": 120.0
            },
            {
                "start_time": 24.913636363636364,
                "end_time": 25.047727272727272,
                "pitch": 75,
                "velocity": 40,
                "duration": 0.13409090909090793,
                "tempo": 120.0
            },
            {
                "start_time": 25.06590909090909,
                "end_time": 25.202272727272724,
                "pitch": 75,
                "velocity": 40,
                "duration": 0.13636363636363313,
                "tempo": 120.0
            },
            {
                "start_time": 25.21818181818182,
                "end_time": 25.354545454545452,
                "pitch": 77,
                "velocity": 40,
                "duration": 0.13636363636363313,
                "tempo": 120.0
            },
            {
                "start_time": 25.370454545454542,
                "end_time": 25.50681818181818,
                "pitch": 77,
                "velocity": 40,
                "duration": 0.1363636363636367,
                "tempo": 120.0
            },
            {
                "start_time": 25.525,
                "end_time": 25.659090909090907,
                "pitch": 75,
                "velocity": 40,
                "duration": 0.13409090909090793,
                "tempo": 120.0
            },
            {
                "start_time": 25.674999999999997,
                "end_time": 25.80909090909091,
                "pitch": 75,
                "velocity": 40,
                "duration": 0.13409090909091148,
                "tempo": 120.0
            },
            {
                "start_time": 25.825,
                "end_time": 25.959090909090907,
                "pitch": 74,
                "velocity": 40,
                "duration": 0.13409090909090793,
                "tempo": 120.0
            },
            {
                "start_time": 25.974999999999998,
                "end_time": 26.10909090909091,
                "pitch": 74,
                "velocity": 40,
                "duration": 0.13409090909091148,
                "tempo": 120.0
            },
            {
                "start_time": 26.125,
                "end_time": 26.25681818181818,
                "pitch": 72,
                "velocity": 40,
                "duration": 0.13181818181817917,
                "tempo": 120.0
            },
            {
                "start_time": 26.27272727272727,
                "end_time": 26.404545454545453,
                "pitch": 72,
                "velocity": 40,
                "duration": 0.13181818181818272,
                "tempo": 120.0
            },
            {
                "start_time": 26.422727272727272,
                "end_time": 26.554545454545455,
                "pitch": 70,
                "velocity": 40,
                "duration": 0.13181818181818272,
                "tempo": 120.0
            },
            {
                "start_time": 26.570454545454545,
                "end_time": 26.702272727272724,
                "pitch": 70,
                "velocity": 40,
                "duration": 0.13181818181817917,
                "tempo": 120.0
            },
            {
                "start_time": 26.718181818181815,
                "end_time": 26.854545454545452,
                "pitch": 74,
                "velocity": 40,
                "duration": 0.1363636363636367,
                "tempo": 120.0
            },
            {
                "start_time": 26.870454545454542,
                "end_time": 27.004545454545454,
                "pitch": 74,
                "velocity": 40,
                "duration": 0.13409090909091148,
                "tempo": 120.0
            },
            {
                "start_time": 27.02272727272727,
                "end_time": 27.15681818181818,
                "pitch": 77,
                "velocity": 40,
                "duration": 0.13409090909091148,
                "tempo": 120.0
            },
            {
                "start_time": 27.172727272727272,
                "end_time": 27.30909090909091,
                "pitch": 77,
                "velocity": 40,
                "duration": 0.1363636363636367,
                "tempo": 120.0
            },
            {
                "start_time": 27.325,
                "end_time": 27.459090909090907,
                "pitch": 74,
                "velocity": 40,
                "duration": 0.13409090909090793,
                "tempo": 120.0
            },
            {
                "start_time": 27.477272727272727,
                "end_time": 27.611363636363635,
                "pitch": 77,
                "velocity": 40,
                "duration": 0.13409090909090793,
                "tempo": 120.0
            },
            {
                "start_time": 27.627272727272725,
                "end_time": 27.661363636363635,
                "pitch": 75,
                "velocity": 40,
                "duration": 0.03409090909091006,
                "tempo": 120.0
            },
            {
                "start_time": 28.23181818181818,
                "end_time": 28.513636363636362,
                "pitch": 72,
                "velocity": 40,
                "duration": 0.2818181818181813,
                "tempo": 120.0
            },
            {
                "start_time": 28.53181818181818,
                "end_time": 28.818181818181817,
                "pitch": 74,
                "velocity": 40,
                "duration": 0.28636363636363527,
                "tempo": 120.0
            },
            {
                "start_time": 28.834090909090907,
                "end_time": 29.120454545454542,
                "pitch": 79,
                "velocity": 40,
                "duration": 0.28636363636363527,
                "tempo": 120.0
            },
            {
                "start_time": 29.136363636363637,
                "end_time": 29.420454545454543,
                "pitch": 79,
                "velocity": 40,
                "duration": 0.2840909090909065,
                "tempo": 120.0
            },
            {
                "start_time": 29.436363636363634,
                "end_time": 29.720454545454544,
                "pitch": 79,
                "velocity": 40,
                "duration": 0.28409090909091006,
                "tempo": 120.0
            },
            {
                "start_time": 29.736363636363635,
                "end_time": 30.02272727272727,
                "pitch": 79,
                "velocity": 40,
                "duration": 0.28636363636363527,
                "tempo": 120.0
            },
            {
                "start_time": 30.04090909090909,
                "end_time": 30.174999999999997,
                "pitch": 79,
                "velocity": 40,
                "duration": 0.13409090909090793,
                "tempo": 120.0
            },
            {
                "start_time": 30.190909090909088,
                "end_time": 30.327272727272724,
                "pitch": 79,
                "velocity": 40,
                "duration": 0.1363636363636367,
                "tempo": 120.0
            },
            {
                "start_time": 30.343181818181815,
                "end_time": 30.477272727272727,
                "pitch": 79,
                "velocity": 40,
                "duration": 0.13409090909091148,
                "tempo": 120.0
            },
            {
                "start_time": 30.495454545454542,
                "end_time": 31.23181818181818,
                "pitch": 79,
                "velocity": 40,
                "duration": 0.7363636363636381,
                "tempo": 120.0
            },
            {
                "start_time": 31.25,
                "end_time": 31.53181818181818,
                "pitch": 80,
                "velocity": 40,
                "duration": 0.2818181818181813,
                "tempo": 120.0
            },
            {
                "start_time": 31.549999999999997,
                "end_time": 31.83863636363636,
                "pitch": 80,
                "velocity": 40,
                "duration": 0.288636363636364,
                "tempo": 120.0
            },
            {
                "start_time": 31.854545454545452,
                "end_time": 32.143181818181816,
                "pitch": 80,
                "velocity": 40,
                "duration": 0.288636363636364,
                "tempo": 120.0
            },
            {
                "start_time": 32.16136363636363,
                "end_time": 32.44772727272727,
                "pitch": 80,
                "velocity": 40,
                "duration": 0.2863636363636388,
                "tempo": 120.0
            },
            {
                "start_time": 32.46363636363636,
                "end_time": 32.6,
                "pitch": 82,
                "velocity": 40,
                "duration": 0.13636363636364024,
                "tempo": 120.0
            },
            {
                "start_time": 32.61590909090909,
                "end_time": 32.75,
                "pitch": 80,
                "velocity": 40,
                "duration": 0.13409090909090793,
                "tempo": 120.0
            },
            {
                "start_time": 32.768181818181816,
                "end_time": 32.9,
                "pitch": 79,
                "velocity": 40,
                "duration": 0.13181818181818272,
                "tempo": 120.0
            },
            {
                "start_time": 32.918181818181814,
                "end_time": 33.64772727272727,
                "pitch": 80,
                "velocity": 40,
                "duration": 0.7295454545454589,
                "tempo": 120.0
            },
            {
                "start_time": 33.663636363636364,
                "end_time": 33.945454545454545,
                "pitch": 79,
                "velocity": 40,
                "duration": 0.2818181818181813,
                "tempo": 120.0
            },
            {
                "start_time": 33.961363636363636,
                "end_time": 34.25,
                "pitch": 79,
                "velocity": 40,
                "duration": 0.288636363636364,
                "tempo": 120.0
            },
            {
                "start_time": 34.268181818181816,
                "end_time": 34.55681818181818,
                "pitch": 79,
                "velocity": 40,
                "duration": 0.288636363636364,
                "tempo": 120.0
            },
            {
                "start_time": 34.57272727272727,
                "end_time": 34.85454545454545,
                "pitch": 79,
                "velocity": 40,
                "duration": 0.2818181818181813,
                "tempo": 120.0
            },
            {
                "start_time": 34.87045454545454,
                "end_time": 35.002272727272725,
                "pitch": 79,
                "velocity": 40,
                "duration": 0.13181818181818272,
                "tempo": 120.0
            },
            {
                "start_time": 35.018181818181816,
                "end_time": 35.15,
                "pitch": 79,
                "velocity": 40,
                "duration": 0.13181818181818272,
                "tempo": 120.0
            },
            {
                "start_time": 35.168181818181814,
                "end_time": 35.30227272727272,
                "pitch": 79,
                "velocity": 40,
                "duration": 0.13409090909090793,
                "tempo": 120.0
            },
            {
                "start_time": 35.320454545454545,
                "end_time": 36.059090909090905,
                "pitch": 79,
                "velocity": 40,
                "duration": 0.7386363636363598,
                "tempo": 120.0
            },
            {
                "start_time": 36.07727272727273,
                "end_time": 36.35681818181818,
                "pitch": 80,
                "velocity": 40,
                "duration": 0.279545454545449,
                "tempo": 120.0
            },
            {
                "start_time": 36.37272727272727,
                "end_time": 36.65909090909091,
                "pitch": 80,
                "velocity": 40,
                "duration": 0.2863636363636388,
                "tempo": 120.0
            },
            {
                "start_time": 36.67727272727272,
                "end_time": 36.96363636363636,
                "pitch": 80,
                "velocity": 40,
                "duration": 0.2863636363636388,
                "tempo": 120.0
            },
            {
                "start_time": 36.97954545454545,
                "end_time": 37.268181818181816,
                "pitch": 80,
                "velocity": 40,
                "duration": 0.288636363636364,
                "tempo": 120.0
            },
            {
                "start_time": 37.28636363636363,
                "end_time": 37.42272727272727,
                "pitch": 82,
                "velocity": 40,
                "duration": 0.13636363636364024,
                "tempo": 120.0
            },
            {
                "start_time": 37.43863636363636,
                "end_time": 37.574999999999996,
                "pitch": 80,
                "velocity": 40,
                "duration": 0.13636363636363313,
                "tempo": 120.0
            },
            {
                "start_time": 37.590909090909086,
                "end_time": 37.72727272727273,
                "pitch": 79,
                "velocity": 40,
                "duration": 0.13636363636364024,
                "tempo": 120.0
            },
            {
                "start_time": 37.74318181818182,
                "end_time": 38.48409090909091,
                "pitch": 80,
                "velocity": 40,
                "duration": 0.7409090909090921,
                "tempo": 120.0
            },
            {
                "start_time": 38.5,
                "end_time": 38.63636363636363,
                "pitch": 79,
                "velocity": 40,
                "duration": 0.13636363636363313,
                "tempo": 120.0
            },
            {
                "start_time": 38.652272727272724,
                "end_time": 38.78636363636363,
                "pitch": 79,
                "velocity": 40,
                "duration": 0.13409090909090793,
                "tempo": 120.0
            },
            {
                "start_time": 38.804545454545455,
                "end_time": 38.93636363636364,
                "pitch": 75,
                "velocity": 40,
                "duration": 0.13181818181818272,
                "tempo": 120.0
            },
            {
                "start_time": 38.95227272727273,
                "end_time": 39.084090909090904,
                "pitch": 75,
                "velocity": 40,
                "duration": 0.13181818181817562,
                "tempo": 120.0
            },
            {
                "start_time": 39.1,
                "end_time": 39.23181818181818,
                "pitch": 70,
                "velocity": 40,
                "duration": 0.13181818181817562,
                "tempo": 120.0
            },
            {
                "start_time": 39.25,
                "end_time": 39.38181818181818,
                "pitch": 70,
                "velocity": 40,
                "duration": 0.13181818181818272,
                "tempo": 120.0
            },
            {
                "start_time": 39.39772727272727,
                "end_time": 39.53181818181818,
                "pitch": 75,
                "velocity": 40,
                "duration": 0.13409090909090793,
                "tempo": 120.0
            },
            {
                "start_time": 39.55,
                "end_time": 39.684090909090905,
                "pitch": 75,
                "velocity": 40,
                "duration": 0.13409090909090793,
                "tempo": 120.0
            },
            {
                "start_time": 39.699999999999996,
                "end_time": 39.836363636363636,
                "pitch": 79,
                "velocity": 40,
                "duration": 0.13636363636364024,
                "tempo": 120.0
            },
            {
                "start_time": 39.85227272727273,
                "end_time": 39.986363636363635,
                "pitch": 79,
                "velocity": 40,
                "duration": 0.13409090909090793,
                "tempo": 120.0
            },
            {
                "start_time": 40.00454545454545,
                "end_time": 40.13863636363636,
                "pitch": 75,
                "velocity": 40,
                "duration": 0.13409090909090793,
                "tempo": 120.0
            },
            {
                "start_time": 40.154545454545456,
                "end_time": 40.29090909090909,
                "pitch": 75,
                "velocity": 40,
                "duration": 0.13636363636363313,
                "tempo": 120.0
            },
            {
                "start_time": 40.30681818181818,
                "end_time": 40.44090909090909,
                "pitch": 70,
                "velocity": 40,
                "duration": 0.13409090909090793,
                "tempo": 120.0
            },
            {
                "start_time": 40.459090909090904,
                "end_time": 40.59318181818182,
                "pitch": 70,
                "velocity": 40,
                "duration": 0.13409090909091503,
                "tempo": 120.0
            },
            {
                "start_time": 40.60909090909091,
                "end_time": 40.74318181818182,
                "pitch": 75,
                "velocity": 40,
                "duration": 0.13409090909090793,
                "tempo": 120.0
            },
            {
                "start_time": 40.75909090909091,
                "end_time": 40.893181818181816,
                "pitch": 75,
                "velocity": 40,
                "duration": 0.13409090909090793,
                "tempo": 120.0
            },
            {
                "start_time": 40.90909090909091,
                "end_time": 41.043181818181814,
                "pitch": 77,
                "velocity": 40,
                "duration": 0.13409090909090793,
                "tempo": 120.0
            },
            {
                "start_time": 41.059090909090905,
                "end_time": 41.19318181818181,
                "pitch": 77,
                "velocity": 40,
                "duration": 0.13409090909090793,
                "tempo": 120.0
            },
            {
                "start_time": 41.209090909090904,
                "end_time": 41.345454545454544,
                "pitch": 74,
                "velocity": 40,
                "duration": 0.13636363636364024,
                "tempo": 120.0
            },
            {
                "start_time": 41.361363636363635,
                "end_time": 41.49545454545454,
                "pitch": 74,
                "velocity": 40,
                "duration": 0.13409090909090793,
                "tempo": 120.0
            },
            {
                "start_time": 41.51363636363636,
                "end_time": 41.64772727272727,
                "pitch": 70,
                "velocity": 40,
                "duration": 0.13409090909091503,
                "tempo": 120.0
            },
            {
                "start_time": 41.663636363636364,
                "end_time": 41.8,
                "pitch": 70,
                "velocity": 40,
                "duration": 0.13636363636363313,
                "tempo": 120.0
            },
            {
                "start_time": 41.81590909090909,
                "end_time": 41.949999999999996,
                "pitch": 74,
                "velocity": 40,
                "duration": 0.13409090909090793,
                "tempo": 120.0
            },
            {
                "start_time": 41.96818181818182,
                "end_time": 42.10227272727273,
                "pitch": 74,
                "velocity": 40,
                "duration": 0.13409090909090793,
                "tempo": 120.0
            },
            {
                "start_time": 42.11818181818182,
                "end_time": 42.25454545454545,
                "pitch": 77,
                "velocity": 40,
                "duration": 0.13636363636363313,
                "tempo": 120.0
            },
            {
                "start_time": 42.27045454545454,
                "end_time": 42.40454545454545,
                "pitch": 77,
                "velocity": 40,
                "duration": 0.13409090909090793,
                "tempo": 120.0
            },
            {
                "start_time": 42.42272727272727,
                "end_time": 42.55681818181818,
                "pitch": 80,
                "velocity": 40,
                "duration": 0.13409090909090793,
                "tempo": 120.0
            },
            {
                "start_time": 42.57272727272727,
                "end_time": 42.709090909090904,
                "pitch": 80,
                "velocity": 40,
                "duration": 0.13636363636363313,
                "tempo": 120.0
            },
            {
                "start_time": 42.725,
                "end_time": 42.85909090909091,
                "pitch": 79,
                "velocity": 40,
                "duration": 0.13409090909090793,
                "tempo": 120.0
            },
            {
                "start_time": 42.877272727272725,
                "end_time": 43.01136363636363,
                "pitch": 79,
                "velocity": 40,
                "duration": 0.13409090909090793,
                "tempo": 120.0
            },
            {
                "start_time": 43.027272727272724,
                "end_time": 43.163636363636364,
                "pitch": 77,
                "velocity": 40,
                "duration": 0.13636363636364024,
                "tempo": 120.0
            },
            {
                "start_time": 43.18181818181818,
                "end_time": 43.31818181818181,
                "pitch": 77,
                "velocity": 40,
                "duration": 0.13636363636363313,
                "tempo": 120.0
            },
            {
                "start_time": 43.334090909090904,
                "end_time": 43.470454545454544,
                "pitch": 77,
                "velocity": 40,
                "duration": 0.13636363636364024,
                "tempo": 120.0
            },
            {
                "start_time": 43.486363636363635,
                "end_time": 43.62272727272727,
                "pitch": 77,
                "velocity": 40,
                "duration": 0.13636363636363313,
                "tempo": 120.0
            },
            {
                "start_time": 43.64090909090909,
                "end_time": 43.77272727272727,
                "pitch": 75,
                "velocity": 40,
                "duration": 0.13181818181818272,
                "tempo": 120.0
            },
            {
                "start_time": 43.788636363636364,
                "end_time": 43.92045454545455,
                "pitch": 75,
                "velocity": 40,
                "duration": 0.13181818181818272,
                "tempo": 120.0
            },
            {
                "start_time": 43.93636363636364,
                "end_time": 44.070454545454545,
                "pitch": 74,
                "velocity": 40,
                "duration": 0.13409090909090793,
                "tempo": 120.0
            },
            {
                "start_time": 44.086363636363636,
                "end_time": 44.21818181818182,
                "pitch": 74,
                "velocity": 40,
                "duration": 0.13181818181818272,
                "tempo": 120.0
            },
            {
                "start_time": 44.23409090909091,
                "end_time": 44.36818181818182,
                "pitch": 72,
                "velocity": 40,
                "duration": 0.13409090909090793,
                "tempo": 120.0
            },
            {
                "start_time": 44.38636363636363,
                "end_time": 44.52045454545454,
                "pitch": 72,
                "velocity": 40,
                "duration": 0.13409090909090793,
                "tempo": 120.0
            },
            {
                "start_time": 44.538636363636364,
                "end_time": 44.67272727272727,
                "pitch": 77,
                "velocity": 40,
                "duration": 0.13409090909090793,
                "tempo": 120.0
            },
            {
                "start_time": 44.68863636363636,
                "end_time": 44.82272727272727,
                "pitch": 77,
                "velocity": 40,
                "duration": 0.13409090909090793,
                "tempo": 120.0
            },
            {
                "start_time": 44.840909090909086,
                "end_time": 44.974999999999994,
                "pitch": 75,
                "velocity": 40,
                "duration": 0.13409090909090793,
                "tempo": 120.0
            },
            {
                "start_time": 44.99318181818182,
                "end_time": 45.127272727272725,
                "pitch": 75,
                "velocity": 40,
                "duration": 0.13409090909090793,
                "tempo": 120.0
            },
            {
                "start_time": 45.143181818181816,
                "end_time": 45.277272727272724,
                "pitch": 74,
                "velocity": 40,
                "duration": 0.13409090909090793,
                "tempo": 120.0
            },
            {
                "start_time": 45.29545454545455,
                "end_time": 45.429545454545455,
                "pitch": 74,
                "velocity": 40,
                "duration": 0.13409090909090793,
                "tempo": 120.0
            },
            {
                "start_time": 45.44772727272727,
                "end_time": 45.58181818181818,
                "pitch": 72,
                "velocity": 40,
                "duration": 0.13409090909090793,
                "tempo": 120.0
            },
            {
                "start_time": 45.59772727272727,
                "end_time": 45.73181818181818,
                "pitch": 72,
                "velocity": 40,
                "duration": 0.13409090909090793,
                "tempo": 120.0
            },
            {
                "start_time": 45.75,
                "end_time": 45.88409090909091,
                "pitch": 70,
                "velocity": 40,
                "duration": 0.13409090909090793,
                "tempo": 120.0
            },
            {
                "start_time": 45.902272727272724,
                "end_time": 46.03636363636363,
                "pitch": 70,
                "velocity": 40,
                "duration": 0.13409090909090793,
                "tempo": 120.0
            },
            {
                "start_time": 46.05227272727272,
                "end_time": 46.18636363636364,
                "pitch": 74,
                "velocity": 40,
                "duration": 0.13409090909091503,
                "tempo": 120.0
            },
            {
                "start_time": 46.20454545454545,
                "end_time": 46.33863636363636,
                "pitch": 74,
                "velocity": 40,
                "duration": 0.13409090909090793,
                "tempo": 120.0
            },
            {
                "start_time": 46.35681818181818,
                "end_time": 46.49090909090909,
                "pitch": 77,
                "velocity": 40,
                "duration": 0.13409090909091503,
                "tempo": 120.0
            },
            {
                "start_time": 46.50681818181818,
                "end_time": 46.64090909090909,
                "pitch": 77,
                "velocity": 40,
                "duration": 0.13409090909090793,
                "tempo": 120.0
            },
            {
                "start_time": 46.65909090909091,
                "end_time": 46.79090909090909,
                "pitch": 74,
                "velocity": 40,
                "duration": 0.13181818181818272,
                "tempo": 120.0
            },
            {
                "start_time": 46.809090909090905,
                "end_time": 46.94090909090909,
                "pitch": 77,
                "velocity": 40,
                "duration": 0.13181818181818272,
                "tempo": 120.0
            },
            {
                "start_time": 46.959090909090904,
                "end_time": 47.090909090909086,
                "pitch": 72,
                "velocity": 40,
                "duration": 0.13181818181818272,
                "tempo": 120.0
            },
            {
                "start_time": 47.10909090909091,
                "end_time": 47.24090909090909,
                "pitch": 72,
                "velocity": 40,
                "duration": 0.13181818181818272,
                "tempo": 120.0
            },
            {
                "start_time": 47.25909090909091,
                "end_time": 47.393181818181816,
                "pitch": 77,
                "velocity": 40,
                "duration": 0.13409090909090793,
                "tempo": 120.0
            },
            {
                "start_time": 47.41136363636363,
                "end_time": 47.54545454545454,
                "pitch": 77,
                "velocity": 40,
                "duration": 0.13409090909090793,
                "tempo": 120.0
            },
            {
                "start_time": 47.56136363636364,
                "end_time": 47.695454545454545,
                "pitch": 80,
                "velocity": 40,
                "duration": 0.13409090909090793,
                "tempo": 120.0
            },
            {
                "start_time": 47.71363636363636,
                "end_time": 47.84772727272727,
                "pitch": 80,
                "velocity": 40,
                "duration": 0.13409090909090793,
                "tempo": 120.0
            },
            {
                "start_time": 47.86590909090909,
                "end_time": 48.0,
                "pitch": 79,
                "velocity": 40,
                "duration": 0.13409090909090793,
                "tempo": 120.0
            },
            {
                "start_time": 48.018181818181816,
                "end_time": 48.15454545454545,
                "pitch": 77,
                "velocity": 40,
                "duration": 0.13636363636363313,
                "tempo": 120.0
            },
            {
                "start_time": 48.17045454545454,
                "end_time": 48.30681818181818,
                "pitch": 79,
                "velocity": 40,
                "duration": 0.13636363636364024,
                "tempo": 120.0
            },
            {
                "start_time": 48.324999999999996,
                "end_time": 48.459090909090904,
                "pitch": 79,
                "velocity": 40,
                "duration": 0.13409090909090793,
                "tempo": 120.0
            },
            {
                "start_time": 48.47727272727273,
                "end_time": 48.60909090909091,
                "pitch": 75,
                "velocity": 40,
                "duration": 0.13181818181818272,
                "tempo": 120.0
            },
            {
                "start_time": 48.625,
                "end_time": 48.75681818181818,
                "pitch": 75,
                "velocity": 40,
                "duration": 0.13181818181818272,
                "tempo": 120.0
            },
            {
                "start_time": 48.775,
                "end_time": 48.90681818181818,
                "pitch": 70,
                "velocity": 40,
                "duration": 0.13181818181818272,
                "tempo": 120.0
            },
            {
                "start_time": 48.92272727272727,
                "end_time": 49.054545454545455,
                "pitch": 70,
                "velocity": 40,
                "duration": 0.13181818181818272,
                "tempo": 120.0
            },
            {
                "start_time": 49.070454545454545,
                "end_time": 49.20454545454545,
                "pitch": 75,
                "velocity": 40,
                "duration": 0.13409090909090793,
                "tempo": 120.0
            },
            {
                "start_time": 49.22272727272727,
                "end_time": 49.35681818181818,
                "pitch": 75,
                "velocity": 40,
                "duration": 0.13409090909090793,
                "tempo": 120.0
            },
            {
                "start_time": 49.375,
                "end_time": 49.50909090909091,
                "pitch": 79,
                "velocity": 40,
                "duration": 0.13409090909090793,
                "tempo": 120.0
            },
            {
                "start_time": 49.525,
                "end_time": 49.65909090909091,
                "pitch": 79,
                "velocity": 40,
                "duration": 0.13409090909090793,
                "tempo": 120.0
            },
            {
                "start_time": 49.67727272727272,
                "end_time": 49.81363636363636,
                "pitch": 75,
                "velocity": 40,
                "duration": 0.13636363636364024,
                "tempo": 120.0
            },
            {
                "start_time": 49.82954545454545,
                "end_time": 49.965909090909086,
                "pitch": 75,
                "velocity": 40,
                "duration": 0.13636363636363313,
                "tempo": 120.0
            },
            {
                "start_time": 49.98409090909091,
                "end_time": 50.11818181818182,
                "pitch": 70,
                "velocity": 40,
                "duration": 0.13409090909090793,
                "tempo": 120.0
            },
            {
                "start_time": 50.13636363636363,
                "end_time": 50.27272727272727,
                "pitch": 70,
                "velocity": 40,
                "duration": 0.13636363636364024,
                "tempo": 120.0
            },
            {
                "start_time": 50.288636363636364,
                "end_time": 50.42045454545454,
                "pitch": 75,
                "velocity": 40,
                "duration": 0.13181818181817562,
                "tempo": 120.0
            },
            {
                "start_time": 50.43863636363636,
                "end_time": 50.570454545454545,
                "pitch": 75,
                "velocity": 40,
                "duration": 0.13181818181818272,
                "tempo": 120.0
            },
            {
                "start_time": 50.586363636363636,
                "end_time": 50.71818181818182,
                "pitch": 77,
                "velocity": 40,
                "duration": 0.13181818181818272,
                "tempo": 120.0
            },
            {
                "start_time": 50.73409090909091,
                "end_time": 50.865909090909085,
                "pitch": 77,
                "velocity": 40,
                "duration": 0.13181818181817562,
                "tempo": 120.0
            },
            {
                "start_time": 50.88409090909091,
                "end_time": 51.018181818181816,
                "pitch": 74,
                "velocity": 40,
                "duration": 0.13409090909090793,
                "tempo": 120.0
            },
            {
                "start_time": 51.03636363636363,
                "end_time": 51.17272727272727,
                "pitch": 74,
                "velocity": 40,
                "duration": 0.13636363636364024,
                "tempo": 120.0
            },
            {
                "start_time": 51.18863636363636,
                "end_time": 51.324999999999996,
                "pitch": 70,
                "velocity": 40,
                "duration": 0.13636363636363313,
                "tempo": 120.0
            },
            {
                "start_time": 51.34318181818182,
                "end_time": 51.47727272727273,
                "pitch": 70,
                "velocity": 40,
                "duration": 0.13409090909090793,
                "tempo": 120.0
            },
            {
                "start_time": 51.49545454545454,
                "end_time": 51.627272727272725,
                "pitch": 74,
                "velocity": 40,
                "duration": 0.13181818181818272,
                "tempo": 120.0
            },
            {
                "start_time": 51.643181818181816,
                "end_time": 51.775,
                "pitch": 74,
                "velocity": 40,
                "duration": 0.13181818181818272,
                "tempo": 120.0
            },
            {
                "start_time": 51.793181818181814,
                "end_time": 51.925,
                "pitch": 77,
                "velocity": 40,
                "duration": 0.13181818181818272,
                "tempo": 120.0
            },
            {
                "start_time": 51.94090909090909,
                "end_time": 52.07272727272727,
                "pitch": 77,
                "velocity": 40,
                "duration": 0.13181818181818272,
                "tempo": 120.0
            },
            {
                "start_time": 52.08863636363636,
                "end_time": 52.224999999999994,
                "pitch": 80,
                "velocity": 40,
                "duration": 0.13636363636363313,
                "tempo": 120.0
            },
            {
                "start_time": 52.240909090909085,
                "end_time": 52.375,
                "pitch": 80,
                "velocity": 40,
                "duration": 0.13409090909091503,
                "tempo": 120.0
            },
            {
                "start_time": 52.393181818181816,
                "end_time": 52.527272727272724,
                "pitch": 79,
                "velocity": 40,
                "duration": 0.13409090909090793,
                "tempo": 120.0
            },
            {
                "start_time": 52.543181818181814,
                "end_time": 52.679545454545455,
                "pitch": 79,
                "velocity": 40,
                "duration": 0.13636363636364024,
                "tempo": 120.0
            },
            {
                "start_time": 52.695454545454545,
                "end_time": 52.83181818181818,
                "pitch": 77,
                "velocity": 40,
                "duration": 0.13636363636363313,
                "tempo": 120.0
            },
            {
                "start_time": 52.84772727272727,
                "end_time": 52.98409090909091,
                "pitch": 77,
                "velocity": 40,
                "duration": 0.13636363636364024,
                "tempo": 120.0
            },
            {
                "start_time": 53.002272727272725,
                "end_time": 53.13636363636363,
                "pitch": 70,
                "velocity": 40,
                "duration": 0.13409090909090793,
                "tempo": 120.0
            },
            {
                "start_time": 53.15454545454545,
                "end_time": 53.29090909090909,
                "pitch": 70,
                "velocity": 40,
                "duration": 0.13636363636364024,
                "tempo": 120.0
            },
            {
                "start_time": 53.30681818181818,
                "end_time": 53.43863636363636,
                "pitch": 72,
                "velocity": 40,
                "duration": 0.13181818181818272,
                "tempo": 120.0
            },
            {
                "start_time": 53.45681818181818,
                "end_time": 53.58863636363636,
                "pitch": 72,
                "velocity": 40,
                "duration": 0.13181818181818272,
                "tempo": 120.0
            },
            {
                "start_time": 53.60454545454545,
                "end_time": 53.736363636363635,
                "pitch": 74,
                "velocity": 40,
                "duration": 0.13181818181818272,
                "tempo": 120.0
            },
            {
                "start_time": 53.752272727272725,
                "end_time": 53.88409090909091,
                "pitch": 74,
                "velocity": 40,
                "duration": 0.13181818181818272,
                "tempo": 120.0
            },
            {
                "start_time": 53.902272727272724,
                "end_time": 54.03636363636363,
                "pitch": 75,
                "velocity": 40,
                "duration": 0.13409090909090793,
                "tempo": 120.0
            },
            {
                "start_time": 54.054545454545455,
                "end_time": 54.19090909090909,
                "pitch": 75,
                "velocity": 40,
                "duration": 0.13636363636363313,
                "tempo": 120.0
            },
            {
                "start_time": 54.20681818181818,
                "end_time": 54.34318181818182,
                "pitch": 77,
                "velocity": 40,
                "duration": 0.13636363636364024,
                "tempo": 120.0
            },
            {
                "start_time": 54.361363636363635,
                "end_time": 54.49545454545454,
                "pitch": 77,
                "velocity": 40,
                "duration": 0.13409090909090793,
                "tempo": 120.0
            },
            {
                "start_time": 54.51363636363636,
                "end_time": 54.64772727272727,
                "pitch": 75,
                "velocity": 40,
                "duration": 0.13409090909091503,
                "tempo": 120.0
            },
            {
                "start_time": 54.66590909090909,
                "end_time": 54.8,
                "pitch": 75,
                "velocity": 40,
                "duration": 0.13409090909090793,
                "tempo": 120.0
            },
            {
                "start_time": 54.81590909090909,
                "end_time": 54.95227272727273,
                "pitch": 74,
                "velocity": 40,
                "duration": 0.13636363636364024,
                "tempo": 120.0
            },
            {
                "start_time": 54.96818181818182,
                "end_time": 55.10227272727273,
                "pitch": 74,
                "velocity": 40,
                "duration": 0.13409090909090793,
                "tempo": 120.0
            },
            {
                "start_time": 55.12045454545454,
                "end_time": 55.252272727272725,
                "pitch": 72,
                "velocity": 40,
                "duration": 0.13181818181818272,
                "tempo": 120.0
            },
            {
                "start_time": 55.268181818181816,
                "end_time": 55.4,
                "pitch": 72,
                "velocity": 40,
                "duration": 0.13181818181818272,
                "tempo": 120.0
            },
            {
                "start_time": 55.41590909090909,
                "end_time": 55.54772727272727,
                "pitch": 70,
                "velocity": 40,
                "duration": 0.13181818181818272,
                "tempo": 120.0
            },
            {
                "start_time": 55.56590909090909,
                "end_time": 55.69772727272727,
                "pitch": 70,
                "velocity": 40,
                "duration": 0.13181818181818272,
                "tempo": 120.0
            },
            {
                "start_time": 55.71363636363636,
                "end_time": 55.84772727272727,
                "pitch": 74,
                "velocity": 40,
                "duration": 0.13409090909090793,
                "tempo": 120.0
            },
            {
                "start_time": 55.86363636363636,
                "end_time": 55.99772727272727,
                "pitch": 74,
                "velocity": 40,
                "duration": 0.13409090909090793,
                "tempo": 120.0
            },
            {
                "start_time": 56.01363636363636,
                "end_time": 56.14772727272727,
                "pitch": 77,
                "velocity": 40,
                "duration": 0.13409090909091503,
                "tempo": 120.0
            },
            {
                "start_time": 56.163636363636364,
                "end_time": 56.29772727272727,
                "pitch": 77,
                "velocity": 40,
                "duration": 0.13409090909090793,
                "tempo": 120.0
            },
            {
                "start_time": 56.31363636363636,
                "end_time": 56.44772727272727,
                "pitch": 74,
                "velocity": 40,
                "duration": 0.13409090909090793,
                "tempo": 120.0
            },
            {
                "start_time": 56.465909090909086,
                "end_time": 56.599999999999994,
                "pitch": 77,
                "velocity": 40,
                "duration": 0.13409090909090793,
                "tempo": 120.0
            },
            {
                "start_time": 56.615909090909085,
                "end_time": 56.65,
                "pitch": 75,
                "velocity": 40,
                "duration": 0.03409090909091361,
                "tempo": 120.0
            },
            {
                "start_time": 57.224999999999994,
                "end_time": 57.51590909090909,
                "pitch": 72,
                "velocity": 40,
                "duration": 0.29090909090909634,
                "tempo": 120.0
            },
            {
                "start_time": 57.53181818181818,
                "end_time": 57.81818181818181,
                "pitch": 74,
                "velocity": 40,
                "duration": 0.2863636363636317,
                "tempo": 120.0
            },
            {
                "start_time": 57.834090909090904,
                "end_time": 58.12045454545454,
                "pitch": 80,
                "velocity": 40,
                "duration": 0.2863636363636388,
                "tempo": 120.0
            },
            {
                "start_time": 58.13863636363636,
                "end_time": 58.27272727272727,
                "pitch": 79,
                "velocity": 40,
                "duration": 0.13409090909091503,
                "tempo": 120.0
            },
            {
                "start_time": 58.288636363636364,
                "end_time": 58.574999999999996,
                "pitch": 77,
                "velocity": 40,
                "duration": 0.2863636363636317,
                "tempo": 120.0
            },
            {
                "start_time": 58.59318181818182,
                "end_time": 58.72727272727273,
                "pitch": 80,
                "velocity": 40,
                "duration": 0.13409090909090793,
                "tempo": 120.0
            },
            {
                "start_time": 58.74318181818182,
                "end_time": 58.87954545454545,
                "pitch": 79,
                "velocity": 40,
                "duration": 0.13636363636363313,
                "tempo": 120.0
            },
            {
                "start_time": 58.89545454545454,
                "end_time": 59.02954545454545,
                "pitch": 77,
                "velocity": 40,
                "duration": 0.13409090909090793,
                "tempo": 120.0
            },
            {
                "start_time": 59.04772727272727,
                "end_time": 59.334090909090904,
                "pitch": 80,
                "velocity": 40,
                "duration": 0.2863636363636317,
                "tempo": 120.0
            },
            {
                "start_time": 59.349999999999994,
                "end_time": 59.48409090909091,
                "pitch": 80,
                "velocity": 40,
                "duration": 0.13409090909091503,
                "tempo": 120.0
            },
            {
                "start_time": 59.502272727272725,
                "end_time": 59.788636363636364,
                "pitch": 77,
                "velocity": 40,
                "duration": 0.2863636363636388,
                "tempo": 120.0
            },
            {
                "start_time": 59.804545454545455,
                "end_time": 59.93863636363636,
                "pitch": 77,
                "velocity": 40,
                "duration": 0.13409090909090793,
                "tempo": 120.0
            },
            {
                "start_time": 59.95681818181818,
                "end_time": 60.08863636363636,
                "pitch": 79,
                "velocity": 40,
                "duration": 0.13181818181818272,
                "tempo": 120.0
            },
            {
                "start_time": 60.10454545454545,
                "end_time": 60.236363636363635,
                "pitch": 80,
                "velocity": 40,
                "duration": 0.13181818181818272,
                "tempo": 120.0
            },
            {
                "start_time": 60.252272727272725,
                "end_time": 60.53409090909091,
                "pitch": 84,
                "velocity": 40,
                "duration": 0.2818181818181813,
                "tempo": 120.0
            },
            {
                "start_time": 60.55,
                "end_time": 60.83863636363636,
                "pitch": 84,
                "velocity": 40,
                "duration": 0.288636363636364,
                "tempo": 120.0
            },
            {
                "start_time": 60.85681818181818,
                "end_time": 61.14545454545454,
                "pitch": 84,
                "velocity": 40,
                "duration": 0.288636363636364,
                "tempo": 120.0
            },
            {
                "start_time": 61.16136363636363,
                "end_time": 61.293181818181814,
                "pitch": 79,
                "velocity": 40,
                "duration": 0.13181818181818272,
                "tempo": 120.0
            },
            {
                "start_time": 61.31136363636363,
                "end_time": 61.590909090909086,
                "pitch": 75,
                "velocity": 40,
                "duration": 0.2795454545454561,
                "tempo": 120.0
            },
            {
                "start_time": 61.60681818181818,
                "end_time": 61.73863636363636,
                "pitch": 75,
                "velocity": 40,
                "duration": 0.13181818181818272,
                "tempo": 120.0
            },
            {
                "start_time": 61.756818181818176,
                "end_time": 62.04545454545454,
                "pitch": 75,
                "velocity": 40,
                "duration": 0.288636363636364,
                "tempo": 120.0
            },
            {
                "start_time": 62.06136363636363,
                "end_time": 62.35227272727273,
                "pitch": 75,
                "velocity": 40,
                "duration": 0.29090909090909634,
                "tempo": 120.0
            },
            {
                "start_time": 62.36818181818182,
                "end_time": 62.647727272727266,
                "pitch": 79,
                "velocity": 40,
                "duration": 0.279545454545449,
                "tempo": 120.0
            },
            {
                "start_time": 62.66590909090909,
                "end_time": 62.945454545454545,
                "pitch": 80,
                "velocity": 40,
                "duration": 0.2795454545454561,
                "tempo": 120.0
            },
            {
                "start_time": 62.961363636363636,
                "end_time": 63.09772727272727,
                "pitch": 79,
                "velocity": 40,
                "duration": 0.13636363636363313,
                "tempo": 120.0
            },
            {
                "start_time": 63.11363636363636,
                "end_time": 63.4,
                "pitch": 77,
                "velocity": 40,
                "duration": 0.2863636363636388,
                "tempo": 120.0
            },
            {
                "start_time": 63.41590909090909,
                "end_time": 63.55227272727272,
                "pitch": 80,
                "velocity": 40,
                "duration": 0.13636363636363313,
                "tempo": 120.0
            },
            {
                "start_time": 63.56818181818181,
                "end_time": 63.70227272727272,
                "pitch": 79,
                "velocity": 40,
                "duration": 0.13409090909090793,
                "tempo": 120.0
            },
            {
                "start_time": 63.720454545454544,
                "end_time": 63.85454545454545,
                "pitch": 77,
                "velocity": 40,
                "duration": 0.13409090909090793,
                "tempo": 120.0
            },
            {
                "start_time": 63.87045454545454,
                "end_time": 64.15681818181818,
                "pitch": 80,
                "velocity": 40,
                "duration": 0.2863636363636388,
                "tempo": 120.0
            },
            {
                "start_time": 64.175,
                "end_time": 64.31136363636364,
                "pitch": 80,
                "velocity": 40,
                "duration": 0.13636363636364024,
                "tempo": 120.0
            },
            {
                "start_time": 64.32727272727273,
                "end_time": 64.61590909090908,
                "pitch": 77,
                "velocity": 40,
                "duration": 0.2886363636363569,
                "tempo": 120.0
            },
            {
                "start_time": 64.6340909090909,
                "end_time": 64.77045454545454,
                "pitch": 77,
                "velocity": 40,
                "duration": 0.13636363636364024,
                "tempo": 120.0
            },
            {
                "start_time": 64.78636363636363,
                "end_time": 64.91818181818182,
                "pitch": 79,
                "velocity": 40,
                "duration": 0.13181818181818983,
                "tempo": 120.0
            },
            {
                "start_time": 64.93409090909091,
                "end_time": 65.06590909090909,
                "pitch": 80,
                "velocity": 40,
                "duration": 0.13181818181817562,
                "tempo": 120.0
            },
            {
                "start_time": 65.0840909090909,
                "end_time": 65.36363636363636,
                "pitch": 84,
                "velocity": 40,
                "duration": 0.2795454545454561,
                "tempo": 120.0
            },
            {
                "start_time": 65.37954545454545,
                "end_time": 65.67045454545455,
                "pitch": 84,
                "velocity": 40,
                "duration": 0.29090909090909634,
                "tempo": 120.0
            },
            {
                "start_time": 65.68636363636364,
                "end_time": 65.975,
                "pitch": 84,
                "velocity": 40,
                "duration": 0.2886363636363569,
                "tempo": 120.0
            },
            {
                "start_time": 65.99318181818181,
                "end_time": 66.125,
                "pitch": 86,
                "velocity": 40,
                "duration": 0.13181818181818983,
                "tempo": 120.0
            },
            {
                "start_time": 66.14090909090909,
                "end_time": 66.42045454545455,
                "pitch": 86,
                "velocity": 40,
                "duration": 0.2795454545454561,
                "tempo": 120.0
            },
            {
                "start_time": 77.43409090909091,
                "end_time": 77.7159090909091,
                "pitch": 79,
                "velocity": 40,
                "duration": 0.2818181818181813,
                "tempo": 120.0
            }
        ],
        "Clarinet": [
            {
                "start_time": 66.43863636363636,
                "end_time": 66.48863636363636,
                "pitch": 74,
                "velocity": 80,
                "duration": 0.04999999999999716,
                "tempo": 120.0
            },
            {
                "start_time": 66.48863636363636,
                "end_time": 66.52045454545454,
                "pitch": 71,
                "velocity": 80,
                "duration": 0.0318181818181813,
                "tempo": 120.0
            },
            {
                "start_time": 66.52045454545454,
                "end_time": 66.57045454545454,
                "pitch": 74,
                "velocity": 80,
                "duration": 0.04999999999999716,
                "tempo": 120.0
            },
            {
                "start_time": 66.57045454545454,
                "end_time": 66.58636363636363,
                "pitch": 71,
                "velocity": 80,
                "duration": 0.01590909090909065,
                "tempo": 120.0
            },
            {
                "start_time": 66.58636363636363,
                "end_time": 66.63636363636363,
                "pitch": 74,
                "velocity": 80,
                "duration": 0.04999999999999716,
                "tempo": 120.0
            },
            {
                "start_time": 66.63636363636363,
                "end_time": 66.67045454545455,
                "pitch": 71,
                "velocity": 80,
                "duration": 0.03409090909092072,
                "tempo": 120.0
            },
            {
                "start_time": 66.67045454545455,
                "end_time": 66.70227272727273,
                "pitch": 69,
                "velocity": 80,
                "duration": 0.0318181818181813,
                "tempo": 120.0
            },
            {
                "start_time": 66.70227272727273,
                "end_time": 66.73636363636363,
                "pitch": 67,
                "velocity": 80,
                "duration": 0.03409090909090651,
                "tempo": 120.0
            },
            {
                "start_time": 66.73636363636363,
                "end_time": 66.78636363636363,
                "pitch": 74,
                "velocity": 80,
                "duration": 0.04999999999999716,
                "tempo": 120.0
            },
            {
                "start_time": 66.78636363636363,
                "end_time": 66.82045454545454,
                "pitch": 71,
                "velocity": 80,
                "duration": 0.03409090909090651,
                "tempo": 120.0
            },
            {
                "start_time": 66.82045454545454,
                "end_time": 66.85227272727272,
                "pitch": 69,
                "velocity": 80,
                "duration": 0.0318181818181813,
                "tempo": 120.0
            },
            {
                "start_time": 66.85227272727272,
                "end_time": 66.88636363636363,
                "pitch": 67,
                "velocity": 80,
                "duration": 0.03409090909090651,
                "tempo": 120.0
            },
            {
                "start_time": 66.88636363636363,
                "end_time": 66.92045454545455,
                "pitch": 69,
                "velocity": 80,
                "duration": 0.03409090909092072,
                "tempo": 120.0
            },
            {
                "start_time": 66.92045454545455,
                "end_time": 66.97045454545454,
                "pitch": 67,
                "velocity": 80,
                "duration": 0.04999999999999716,
                "tempo": 120.0
            },
            {
                "start_time": 66.97045454545454,
                "end_time": 67.02045454545454,
                "pitch": 64,
                "velocity": 80,
                "duration": 0.04999999999999716,
                "tempo": 120.0
            },
            {
                "start_time": 67.02045454545454,
                "end_time": 67.03636363636363,
                "pitch": 62,
                "velocity": 80,
                "duration": 0.01590909090909065,
                "tempo": 120.0
            },
            {
                "start_time": 67.03636363636363,
                "end_time": 67.07045454545454,
                "pitch": 69,
                "velocity": 80,
                "duration": 0.03409090909090651,
                "tempo": 120.0
            },
            {
                "start_time": 67.07045454545454,
                "end_time": 67.12045454545454,
                "pitch": 67,
                "velocity": 80,
                "duration": 0.04999999999999716,
                "tempo": 120.0
            },
            {
                "start_time": 67.12045454545454,
                "end_time": 67.17045454545455,
                "pitch": 64,
                "velocity": 80,
                "duration": 0.05000000000001137,
                "tempo": 120.0
            },
            {
                "start_time": 67.17045454545455,
                "end_time": 67.18636363636364,
                "pitch": 62,
                "velocity": 80,
                "duration": 0.01590909090909065,
                "tempo": 120.0
            },
            {
                "start_time": 67.18636363636364,
                "end_time": 67.49318181818181,
                "pitch": 66,
                "velocity": 80,
                "duration": 0.3068181818181728,
                "tempo": 120.0
            },
            {
                "start_time": 67.49318181818181,
                "end_time": 67.78181818181818,
                "pitch": 80,
                "velocity": 80,
                "duration": 0.28863636363637113,
                "tempo": 120.0
            },
            {
                "start_time": 67.79772727272727,
                "end_time": 68.07954545454545,
                "pitch": 80,
                "velocity": 40,
                "duration": 0.2818181818181813,
                "tempo": 120.0
            },
            {
                "start_time": 68.09545454545454,
                "end_time": 68.22727272727272,
                "pitch": 80,
                "velocity": 40,
                "duration": 0.13181818181817562,
                "tempo": 120.0
            },
            {
                "start_time": 68.24318181818181,
                "end_time": 68.52499999999999,
                "pitch": 84,
                "velocity": 40,
                "duration": 0.2818181818181813,
                "tempo": 120.0
            },
            {
                "start_time": 68.54318181818182,
                "end_time": 68.825,
                "pitch": 79,
                "velocity": 40,
                "duration": 0.2818181818181813,
                "tempo": 120.0
            },
            {
                "start_time": 68.84318181818182,
                "end_time": 69.12727272727273,
                "pitch": 79,
                "velocity": 40,
                "duration": 0.2840909090909065,
                "tempo": 120.0
            },
            {
                "start_time": 69.14318181818182,
                "end_time": 69.27954545454546,
                "pitch": 79,
                "velocity": 40,
                "duration": 0.13636363636364024,
                "tempo": 120.0
            },
            {
                "start_time": 69.29545454545455,
                "end_time": 69.58181818181818,
                "pitch": 86,
                "velocity": 40,
                "duration": 0.2863636363636317,
                "tempo": 120.0
            },
            {
                "start_time": 69.59772727272727,
                "end_time": 69.88181818181818,
                "pitch": 84,
                "velocity": 40,
                "duration": 0.2840909090909065,
                "tempo": 120.0
            },
            {
                "start_time": 69.89772727272727,
                "end_time": 70.18181818181817,
                "pitch": 77,
                "velocity": 40,
                "duration": 0.2840909090909065,
                "tempo": 120.0
            },
            {
                "start_time": 70.19772727272726,
                "end_time": 70.48181818181818,
                "pitch": 77,
                "velocity": 40,
                "duration": 0.2840909090909207,
                "tempo": 120.0
            },
            {
                "start_time": 70.49772727272727,
                "end_time": 70.78181818181818,
                "pitch": 80,
                "velocity": 40,
                "duration": 0.2840909090909065,
                "tempo": 120.0
            },
            {
                "start_time": 70.79772727272727,
                "end_time": 70.93409090909091,
                "pitch": 77,
                "velocity": 40,
                "duration": 0.13636363636364024,
                "tempo": 120.0
            },
            {
                "start_time": 70.95,
                "end_time": 71.23636363636363,
                "pitch": 75,
                "velocity": 40,
                "duration": 0.2863636363636317,
                "tempo": 120.0
            },
            {
                "start_time": 71.25227272727273,
                "end_time": 71.38863636363637,
                "pitch": 75,
                "velocity": 40,
                "duration": 0.13636363636364024,
                "tempo": 120.0
            },
            {
                "start_time": 71.40454545454546,
                "end_time": 71.68863636363636,
                "pitch": 75,
                "velocity": 40,
                "duration": 0.2840909090909065,
                "tempo": 120.0
            },
            {
                "start_time": 71.70454545454545,
                "end_time": 71.98863636363636,
                "pitch": 77,
                "velocity": 40,
                "duration": 0.2840909090909065,
                "tempo": 120.0
            },
            {
                "start_time": 72.00454545454545,
                "end_time": 72.29090909090908,
                "pitch": 79,
                "velocity": 40,
                "duration": 0.2863636363636317,
                "tempo": 120.0
            },
            {
                "start_time": 72.30681818181817,
                "end_time": 72.59318181818182,
                "pitch": 80,
                "velocity": 40,
                "duration": 0.2863636363636459,
                "tempo": 120.0
            },
            {
                "start_time": 72.61136363636363,
                "end_time": 72.89318181818182,
                "pitch": 80,
                "velocity": 40,
                "duration": 0.2818181818181813,
                "tempo": 120.0
            },
            {
                "start_time": 72.91136363636363,
                "end_time": 73.19318181818181,
                "pitch": 84,
                "velocity": 40,
                "duration": 0.2818181818181813,
                "tempo": 120.0
            },
            {
                "start_time": 73.21136363636363,
                "end_time": 73.34318181818182,
                "pitch": 80,
                "velocity": 40,
                "duration": 0.13181818181818983,
                "tempo": 120.0
            },
            {
                "start_time": 73.36136363636363,
                "end_time": 73.64318181818182,
                "pitch": 79,
                "velocity": 40,
                "duration": 0.2818181818181813,
                "tempo": 120.0
            },
            {
                "start_time": 73.66136363636363,
                "end_time": 73.79318181818182,
                "pitch": 79,
                "velocity": 40,
                "duration": 0.13181818181818983,
                "tempo": 120.0
            },
            {
                "start_time": 73.81136363636364,
                "end_time": 74.09772727272727,
                "pitch": 79,
                "velocity": 40,
                "duration": 0.2863636363636317,
                "tempo": 120.0
            },
            {
                "start_time": 74.11363636363636,
                "end_time": 74.39999999999999,
                "pitch": 82,
                "velocity": 40,
                "duration": 0.2863636363636317,
                "tempo": 120.0
            },
            {
                "start_time": 74.41590909090908,
                "end_time": 74.7,
                "pitch": 84,
                "velocity": 40,
                "duration": 0.2840909090909207,
                "tempo": 120.0
            },
            {
                "start_time": 74.7159090909091,
                "end_time": 75.57272727272726,
                "pitch": 82,
                "velocity": 40,
                "duration": 0.8568181818181699,
                "tempo": 120.0
            },
            {
                "start_time": 75.92272727272727,
                "end_time": 75.97272727272727,
                "pitch": 74,
                "velocity": 80,
                "duration": 0.04999999999999716,
                "tempo": 120.0
            },
            {
                "start_time": 75.97272727272727,
                "end_time": 76.00681818181818,
                "pitch": 71,
                "velocity": 80,
                "duration": 0.03409090909090651,
                "tempo": 120.0
            },
            {
                "start_time": 76.00681818181818,
                "end_time": 76.03863636363636,
                "pitch": 69,
                "velocity": 80,
                "duration": 0.0318181818181813,
                "tempo": 120.0
            },
            {
                "start_time": 76.03863636363636,
                "end_time": 76.07272727272726,
                "pitch": 67,
                "velocity": 80,
                "duration": 0.03409090909090651,
                "tempo": 120.0
            },
            {
                "start_time": 76.07272727272726,
                "end_time": 76.10681818181818,
                "pitch": 69,
                "velocity": 80,
                "duration": 0.03409090909092072,
                "tempo": 120.0
            },
            {
                "start_time": 76.10681818181818,
                "end_time": 76.15681818181818,
                "pitch": 67,
                "velocity": 80,
                "duration": 0.04999999999999716,
                "tempo": 120.0
            },
            {
                "start_time": 76.15681818181818,
                "end_time": 76.20681818181818,
                "pitch": 64,
                "velocity": 80,
                "duration": 0.04999999999999716,
                "tempo": 120.0
            },
            {
                "start_time": 76.20681818181818,
                "end_time": 76.22272727272727,
                "pitch": 62,
                "velocity": 80,
                "duration": 0.01590909090909065,
                "tempo": 120.0
            },
            {
                "start_time": 76.22272727272727,
                "end_time": 76.37272727272727,
                "pitch": 66,
                "velocity": 80,
                "duration": 0.15000000000000568,
                "tempo": 120.0
            },
            {
                "start_time": 76.37272727272727,
                "end_time": 76.42272727272727,
                "pitch": 74,
                "velocity": 80,
                "duration": 0.04999999999999716,
                "tempo": 120.0
            },
            {
                "start_time": 76.42272727272727,
                "end_time": 76.45681818181818,
                "pitch": 71,
                "velocity": 80,
                "duration": 0.03409090909090651,
                "tempo": 120.0
            },
            {
                "start_time": 76.45681818181818,
                "end_time": 76.48863636363636,
                "pitch": 69,
                "velocity": 80,
                "duration": 0.0318181818181813,
                "tempo": 120.0
            },
            {
                "start_time": 76.48863636363636,
                "end_time": 76.52272727272727,
                "pitch": 67,
                "velocity": 80,
                "duration": 0.03409090909090651,
                "tempo": 120.0
            },
            {
                "start_time": 76.52272727272727,
                "end_time": 76.55681818181817,
                "pitch": 69,
                "velocity": 80,
                "duration": 0.03409090909090651,
                "tempo": 120.0
            },
            {
                "start_time": 76.55681818181817,
                "end_time": 76.60681818181818,
                "pitch": 67,
                "velocity": 80,
                "duration": 0.05000000000001137,
                "tempo": 120.0
            },
            {
                "start_time": 76.60681818181818,
                "end_time": 76.65681818181818,
                "pitch": 64,
                "velocity": 80,
                "duration": 0.04999999999999716,
                "tempo": 120.0
            },
            {
                "start_time": 76.65681818181818,
                "end_time": 76.67272727272727,
                "pitch": 62,
                "velocity": 80,
                "duration": 0.01590909090909065,
                "tempo": 120.0
            },
            {
                "start_time": 76.67272727272727,
                "end_time": 76.82272727272726,
                "pitch": 66,
                "velocity": 80,
                "duration": 0.14999999999999147,
                "tempo": 120.0
            },
            {
                "start_time": 76.82272727272726,
                "end_time": 76.87272727272727,
                "pitch": 74,
                "velocity": 80,
                "duration": 0.05000000000001137,
                "tempo": 120.0
            },
            {
                "start_time": 76.87272727272727,
                "end_time": 76.90681818181818,
                "pitch": 71,
                "velocity": 80,
                "duration": 0.03409090909090651,
                "tempo": 120.0
            },
            {
                "start_time": 76.90681818181818,
                "end_time": 76.94090909090909,
                "pitch": 69,
                "velocity": 80,
                "duration": 0.03409090909090651,
                "tempo": 120.0
            },
            {
                "start_time": 76.94090909090909,
                "end_time": 76.975,
                "pitch": 67,
                "velocity": 80,
                "duration": 0.03409090909090651,
                "tempo": 120.0
            },
            {
                "start_time": 76.975,
                "end_time": 77.0090909090909,
                "pitch": 69,
                "velocity": 80,
                "duration": 0.03409090909090651,
                "tempo": 120.0
            },
            {
                "start_time": 77.0090909090909,
                "end_time": 77.06136363636364,
                "pitch": 67,
                "velocity": 80,
                "duration": 0.052272727272736574,
                "tempo": 120.0
            },
            {
                "start_time": 77.06136363636364,
                "end_time": 77.11136363636363,
                "pitch": 64,
                "velocity": 80,
                "duration": 0.04999999999999716,
                "tempo": 120.0
            }
        ]
    }
}