{
    "track_id": "BMX Trial - Alex Kidd - 03 - Radaxian",
    "mood": "happy",
    "instruments": {
        "Trumpet": [
            {
                "start_time": 0.011363636363636364,
                "end_time": 0.07727272727272727,
                "pitch": 82,
                "velocity": 51,
                "duration": 0.0659090909090909,
                "tempo": 120.0
            },
            {
                "start_time": 0.08863636363636364,
                "end_time": 0.11136363636363636,
                "pitch": 82,
                "velocity": 51,
                "duration": 0.02272727272727272,
                "tempo": 120.0
            },
            {
                "start_time": 0.6363636363636364,
                "end_time": 0.7681818181818182,
                "pitch": 82,
                "velocity": 51,
                "duration": 0.13181818181818183,
                "tempo": 120.0
            },
            {
                "start_time": 0.7840909090909091,
                "end_time": 0.9204545454545454,
                "pitch": 82,
                "velocity": 51,
                "duration": 0.13636363636363635,
                "tempo": 120.0
            },
            {
                "start_time": 0.9363636363636363,
                "end_time": 1.0727272727272728,
                "pitch": 82,
                "velocity": 51,
                "duration": 0.13636363636363646,
                "tempo": 120.0
            },
            {
                "start_time": 1.0909090909090908,
                "end_time": 1.6772727272727272,
                "pitch": 82,
                "velocity": 51,
                "duration": 0.5863636363636364,
                "tempo": 120.0
            },
            {
                "start_time": 2.2954545454545454,
                "end_time": 2.4318181818181817,
                "pitch": 84,
                "velocity": 51,
                "duration": 0.13636363636363624,
                "tempo": 120.0
            },
            {
                "start_time": 2.4499999999999997,
                "end_time": 2.484090909090909,
                "pitch": 84,
                "velocity": 51,
                "duration": 0.03409090909090917,
                "tempo": 120.0
            },
            {
                "start_time": 3.0477272727272724,
                "end_time": 3.1795454545454542,
                "pitch": 84,
                "velocity": 51,
                "duration": 0.13181818181818183,
                "tempo": 120.0
            },
            {
                "start_time": 3.1954545454545453,
                "end_time": 3.3318181818181816,
                "pitch": 84,
                "velocity": 51,
                "duration": 0.13636363636363624,
                "tempo": 120.0
            },
            {
                "start_time": 3.3499999999999996,
                "end_time": 3.484090909090909,
                "pitch": 84,
                "velocity": 51,
                "duration": 0.13409090909090926,
                "tempo": 120.0
            },
            {
                "start_time": 3.502272727272727,
                "end_time": 4.386363636363636,
                "pitch": 84,
                "velocity": 51,
                "duration": 0.8840909090909088,
                "tempo": 120.0
            },
            {
                "start_time": 4.402272727272727,
                "end_time": 4.6909090909090905,
                "pitch": 86,
                "velocity": 51,
                "duration": 0.28863636363636314,
                "tempo": 120.0
            },
            {
                "start_time": 4.706818181818182,
                "end_time": 4.997727272727272,
                "pitch": 87,
                "velocity": 51,
                "duration": 0.2909090909090901,
                "tempo": 120.0
            },
            {
                "start_time": 5.013636363636364,
                "end_time": 5.0636363636363635,
                "pitch": 87,
                "velocity": 51,
                "duration": 0.04999999999999982,
                "tempo": 120.0
            },
            {
                "start_time": 5.463636363636363,
                "end_time": 5.597727272727273,
                "pitch": 87,
                "velocity": 51,
                "duration": 0.1340909090909097,
                "tempo": 120.0
            },
            {
                "start_time": 5.613636363636363,
                "end_time": 5.8954545454545455,
                "pitch": 87,
                "velocity": 51,
                "duration": 0.2818181818181822,
                "tempo": 120.0
            },
            {
                "start_time": 5.911363636363636,
                "end_time": 6.1909090909090905,
                "pitch": 80,
                "velocity": 51,
                "duration": 0.2795454545454543,
                "tempo": 120.0
            },
            {
                "start_time": 6.209090909090909,
                "end_time": 6.495454545454545,
                "pitch": 80,
                "velocity": 51,
                "duration": 0.28636363636363615,
                "tempo": 120.0
            },
            {
                "start_time": 6.511363636363636,
                "end_time": 6.797727272727273,
                "pitch": 80,
                "velocity": 51,
                "duration": 0.28636363636363704,
                "tempo": 120.0
            },
            {
                "start_time": 6.8136363636363635,
                "end_time": 6.949999999999999,
                "pitch": 80,
                "velocity": 51,
                "duration": 0.1363636363636358,
                "tempo": 120.0
            },
            {
                "start_time": 6.968181818181818,
                "end_time": 8.309090909090909,
                "pitch": 82,
                "velocity": 51,
                "duration": 1.3409090909090908,
                "tempo": 120.0
            },
            {
                "start_time": 9.527272727272727,
                "end_time": 9.659090909090908,
                "pitch": 82,
                "velocity": 51,
                "duration": 0.13181818181818095,
                "tempo": 120.0
            },
            {
                "start_time": 9.677272727272726,
                "end_time": 9.709090909090909,
                "pitch": 82,
                "velocity": 51,
                "duration": 0.03181818181818308,
                "tempo": 120.0
            },
            {
                "start_time": 10.281818181818181,
                "end_time": 10.415909090909091,
                "pitch": 82,
                "velocity": 51,
                "duration": 0.1340909090909097,
                "tempo": 120.0
            },
            {
                "start_time": 10.431818181818182,
                "end_time": 10.568181818181818,
                "pitch": 82,
                "velocity": 51,
                "duration": 0.1363636363636367,
                "tempo": 120.0
            },
            {
                "start_time": 10.586363636363636,
                "end_time": 10.722727272727273,
                "pitch": 82,
                "velocity": 51,
                "duration": 0.1363636363636367,
                "tempo": 120.0
            },
            {
                "start_time": 10.738636363636363,
                "end_time": 11.325,
                "pitch": 82,
                "velocity": 51,
                "duration": 0.586363636363636,
                "tempo": 120.0
            },
            {
                "start_time": 11.945454545454545,
                "end_time": 12.081818181818182,
                "pitch": 84,
                "velocity": 51,
                "duration": 0.1363636363636367,
                "tempo": 120.0
            },
            {
                "start_time": 12.097727272727273,
                "end_time": 12.131818181818181,
                "pitch": 84,
                "velocity": 51,
                "duration": 0.034090909090908283,
                "tempo": 120.0
            },
            {
                "start_time": 12.695454545454545,
                "end_time": 12.827272727272726,
                "pitch": 84,
                "velocity": 51,
                "duration": 0.13181818181818095,
                "tempo": 120.0
            },
            {
                "start_time": 12.845454545454546,
                "end_time": 12.979545454545454,
                "pitch": 84,
                "velocity": 51,
                "duration": 0.13409090909090793,
                "tempo": 120.0
            },
            {
                "start_time": 12.997727272727271,
                "end_time": 13.134090909090908,
                "pitch": 84,
                "velocity": 51,
                "duration": 0.1363636363636367,
                "tempo": 120.0
            },
            {
                "start_time": 13.149999999999999,
                "end_time": 14.034090909090908,
                "pitch": 84,
                "velocity": 51,
                "duration": 0.8840909090909097,
                "tempo": 120.0
            },
            {
                "start_time": 14.049999999999999,
                "end_time": 14.338636363636363,
                "pitch": 86,
                "velocity": 51,
                "duration": 0.288636363636364,
                "tempo": 120.0
            },
            {
                "start_time": 14.35681818181818,
                "end_time": 14.645454545454545,
                "pitch": 87,
                "velocity": 51,
                "duration": 0.288636363636364,
                "tempo": 120.0
            },
            {
                "start_time": 14.663636363636362,
                "end_time": 14.711363636363636,
                "pitch": 87,
                "velocity": 51,
                "duration": 0.04772727272727373,
                "tempo": 120.0
            },
            {
                "start_time": 15.109090909090908,
                "end_time": 15.24090909090909,
                "pitch": 87,
                "velocity": 51,
                "duration": 0.13181818181818272,
                "tempo": 120.0
            },
            {
                "start_time": 15.256818181818181,
                "end_time": 15.545454545454545,
                "pitch": 87,
                "velocity": 51,
                "duration": 0.288636363636364,
                "tempo": 120.0
            },
            {
                "start_time": 15.563636363636363,
                "end_time": 15.852272727272727,
                "pitch": 80,
                "velocity": 51,
                "duration": 0.288636363636364,
                "tempo": 120.0
            },
            {
                "start_time": 15.868181818181817,
                "end_time": 16.15,
                "pitch": 80,
                "velocity": 51,
                "duration": 0.2818181818181813,
                "tempo": 120.0
            },
            {
                "start_time": 16.16590909090909,
                "end_time": 16.445454545454545,
                "pitch": 80,
                "velocity": 51,
                "duration": 0.2795454545454561,
                "tempo": 120.0
            },
            {
                "start_time": 16.46363636363636,
                "end_time": 16.595454545454544,
                "pitch": 80,
                "velocity": 51,
                "duration": 0.13181818181818272,
                "tempo": 120.0
            },
            {
                "start_time": 16.613636363636363,
                "end_time": 17.645454545454545,
                "pitch": 82,
                "velocity": 51,
                "duration": 1.0318181818181813,
                "tempo": 120.0
            },
            {
                "start_time": 17.663636363636364,
                "end_time": 17.952272727272728,
                "pitch": 82,
                "velocity": 51,
                "duration": 0.288636363636364,
                "tempo": 120.0
            },
            {
                "start_time": 17.96818181818182,
                "end_time": 18.104545454545455,
                "pitch": 82,
                "velocity": 51,
                "duration": 0.1363636363636367,
                "tempo": 120.0
            },
            {
                "start_time": 57.81363636363636,
                "end_time": 57.949999999999996,
                "pitch": 82,
                "velocity": 51,
                "duration": 0.13636363636363313,
                "tempo": 120.0
            },
            {
                "start_time": 57.965909090909086,
                "end_time": 58.0,
                "pitch": 82,
                "velocity": 51,
                "duration": 0.03409090909091361,
                "tempo": 120.0
            }
        ],
        "French Horn": [
            {
                "start_time": 19.175,
                "end_time": 19.46363636363636,
                "pitch": 82,
                "velocity": 80,
                "duration": 0.28863636363636047,
                "tempo": 120.0
            },
            {
                "start_time": 19.48181818181818,
                "end_time": 19.761363636363637,
                "pitch": 82,
                "velocity": 80,
                "duration": 0.2795454545454561,
                "tempo": 120.0
            },
            {
                "start_time": 19.777272727272727,
                "end_time": 19.909090909090907,
                "pitch": 82,
                "velocity": 80,
                "duration": 0.13181818181817917,
                "tempo": 120.0
            },
            {
                "start_time": 19.927272727272726,
                "end_time": 20.35909090909091,
                "pitch": 79,
                "velocity": 80,
                "duration": 0.43181818181818343,
                "tempo": 120.0
            },
            {
                "start_time": 20.375,
                "end_time": 20.659090909090907,
                "pitch": 75,
                "velocity": 80,
                "duration": 0.2840909090909065,
                "tempo": 120.0
            },
            {
                "start_time": 20.675,
                "end_time": 20.96363636363636,
                "pitch": 75,
                "velocity": 80,
                "duration": 0.28863636363636047,
                "tempo": 120.0
            },
            {
                "start_time": 20.98181818181818,
                "end_time": 21.11590909090909,
                "pitch": 74,
                "velocity": 80,
                "duration": 0.13409090909090793,
                "tempo": 120.0
            },
            {
                "start_time": 21.134090909090908,
                "end_time": 21.568181818181817,
                "pitch": 75,
                "velocity": 80,
                "duration": 0.43409090909090864,
                "tempo": 120.0
            },
            {
                "start_time": 21.584090909090907,
                "end_time": 22.61590909090909,
                "pitch": 77,
                "velocity": 80,
                "duration": 1.0318181818181813,
                "tempo": 120.0
            },
            {
                "start_time": 22.63181818181818,
                "end_time": 22.768181818181816,
                "pitch": 74,
                "velocity": 80,
                "duration": 0.1363636363636367,
                "tempo": 120.0
            },
            {
                "start_time": 22.784090909090907,
                "end_time": 23.979545454545452,
                "pitch": 70,
                "velocity": 80,
                "duration": 1.1954545454545453,
                "tempo": 120.0
            },
            {
                "start_time": 23.995454545454546,
                "end_time": 24.277272727272727,
                "pitch": 75,
                "velocity": 80,
                "duration": 0.2818181818181813,
                "tempo": 120.0
            },
            {
                "start_time": 24.293181818181818,
                "end_time": 24.579545454545453,
                "pitch": 75,
                "velocity": 80,
                "duration": 0.28636363636363527,
                "tempo": 120.0
            },
            {
                "start_time": 24.595454545454544,
                "end_time": 24.73181818181818,
                "pitch": 75,
                "velocity": 80,
                "duration": 0.1363636363636367,
                "tempo": 120.0
            },
            {
                "start_time": 24.74772727272727,
                "end_time": 25.18181818181818,
                "pitch": 74,
                "velocity": 80,
                "duration": 0.43409090909090864,
                "tempo": 120.0
            },
            {
                "start_time": 25.2,
                "end_time": 25.48181818181818,
                "pitch": 72,
                "velocity": 80,
                "duration": 0.2818181818181813,
                "tempo": 120.0
            },
            {
                "start_time": 25.5,
                "end_time": 25.788636363636364,
                "pitch": 72,
                "velocity": 80,
                "duration": 0.288636363636364,
                "tempo": 120.0
            },
            {
                "start_time": 25.804545454545455,
                "end_time": 25.94090909090909,
                "pitch": 74,
                "velocity": 80,
                "duration": 0.1363636363636367,
                "tempo": 120.0
            },
            {
                "start_time": 25.959090909090907,
                "end_time": 26.39090909090909,
                "pitch": 75,
                "velocity": 80,
                "duration": 0.43181818181818343,
                "tempo": 120.0
            },
            {
                "start_time": 26.409090909090907,
                "end_time": 27.299999999999997,
                "pitch": 77,
                "velocity": 80,
                "duration": 0.8909090909090907,
                "tempo": 120.0
            },
            {
                "start_time": 27.318181818181817,
                "end_time": 27.597727272727273,
                "pitch": 75,
                "velocity": 80,
                "duration": 0.2795454545454561,
                "tempo": 120.0
            },
            {
                "start_time": 27.613636363636363,
                "end_time": 28.361363636363635,
                "pitch": 77,
                "velocity": 80,
                "duration": 0.7477272727272712,
                "tempo": 120.0
            },
            {
                "start_time": 28.813636363636363,
                "end_time": 29.099999999999998,
                "pitch": 82,
                "velocity": 80,
                "duration": 0.28636363636363527,
                "tempo": 120.0
            },
            {
                "start_time": 29.118181818181817,
                "end_time": 29.4,
                "pitch": 82,
                "velocity": 80,
                "duration": 0.2818181818181813,
                "tempo": 120.0
            },
            {
                "start_time": 29.418181818181818,
                "end_time": 29.549999999999997,
                "pitch": 82,
                "velocity": 80,
                "duration": 0.13181818181817917,
                "tempo": 120.0
            },
            {
                "start_time": 29.568181818181817,
                "end_time": 30.004545454545454,
                "pitch": 79,
                "velocity": 80,
                "duration": 0.4363636363636374,
                "tempo": 120.0
            },
            {
                "start_time": 30.020454545454545,
                "end_time": 30.30681818181818,
                "pitch": 75,
                "velocity": 80,
                "duration": 0.28636363636363527,
                "tempo": 120.0
            },
            {
                "start_time": 30.32272727272727,
                "end_time": 30.60909090909091,
                "pitch": 75,
                "velocity": 80,
                "duration": 0.2863636363636388,
                "tempo": 120.0
            },
            {
                "start_time": 30.627272727272725,
                "end_time": 30.761363636363633,
                "pitch": 74,
                "velocity": 80,
                "duration": 0.13409090909090793,
                "tempo": 120.0
            },
            {
                "start_time": 30.777272727272727,
                "end_time": 31.21363636363636,
                "pitch": 75,
                "velocity": 80,
                "duration": 0.43636363636363384,
                "tempo": 120.0
            },
            {
                "start_time": 31.229545454545452,
                "end_time": 32.268181818181816,
                "pitch": 77,
                "velocity": 80,
                "duration": 1.038636363636364,
                "tempo": 120.0
            },
            {
                "start_time": 32.28636363636363,
                "end_time": 32.418181818181814,
                "pitch": 74,
                "velocity": 80,
                "duration": 0.13181818181818272,
                "tempo": 120.0
            },
            {
                "start_time": 32.43636363636364,
                "end_time": 33.627272727272725,
                "pitch": 70,
                "velocity": 80,
                "duration": 1.1909090909090878,
                "tempo": 120.0
            },
            {
                "start_time": 33.64545454545454,
                "end_time": 34.22727272727273,
                "pitch": 72,
                "velocity": 80,
                "duration": 0.5818181818181856,
                "tempo": 120.0
            },
            {
                "start_time": 34.24545454545454,
                "end_time": 34.53181818181818,
                "pitch": 77,
                "velocity": 80,
                "duration": 0.2863636363636388,
                "tempo": 120.0
            },
            {
                "start_time": 34.54772727272727,
                "end_time": 34.83181818181818,
                "pitch": 75,
                "velocity": 80,
                "duration": 0.2840909090909065,
                "tempo": 120.0
            },
            {
                "start_time": 34.84772727272727,
                "end_time": 35.43636363636364,
                "pitch": 74,
                "velocity": 80,
                "duration": 0.5886363636363683,
                "tempo": 120.0
            },
            {
                "start_time": 35.45454545454545,
                "end_time": 35.74318181818182,
                "pitch": 74,
                "velocity": 80,
                "duration": 0.288636363636364,
                "tempo": 120.0
            },
            {
                "start_time": 35.75909090909091,
                "end_time": 36.04090909090909,
                "pitch": 77,
                "velocity": 80,
                "duration": 0.2818181818181813,
                "tempo": 120.0
            },
            {
                "start_time": 36.05681818181818,
                "end_time": 37.24545454545454,
                "pitch": 75,
                "velocity": 80,
                "duration": 1.1886363636363626,
                "tempo": 120.0
            },
            {
                "start_time": 38.03409090909091,
                "end_time": 38.17272727272727,
                "pitch": 75,
                "velocity": 80,
                "duration": 0.13863636363636545,
                "tempo": 120.0
            },
            {
                "start_time": 38.19090909090909,
                "end_time": 38.32272727272727,
                "pitch": 77,
                "velocity": 80,
                "duration": 0.13181818181818272,
                "tempo": 120.0
            },
            {
                "start_time": 38.33863636363636,
                "end_time": 38.470454545454544,
                "pitch": 78,
                "velocity": 80,
                "duration": 0.13181818181818272,
                "tempo": 120.0
            },
            {
                "start_time": 38.48863636363636,
                "end_time": 38.768181818181816,
                "pitch": 82,
                "velocity": 80,
                "duration": 0.2795454545454561,
                "tempo": 120.0
            },
            {
                "start_time": 38.78409090909091,
                "end_time": 39.06590909090909,
                "pitch": 82,
                "velocity": 80,
                "duration": 0.2818181818181813,
                "tempo": 120.0
            },
            {
                "start_time": 39.08181818181818,
                "end_time": 39.21363636363636,
                "pitch": 82,
                "velocity": 80,
                "duration": 0.13181818181818272,
                "tempo": 120.0
            },
            {
                "start_time": 39.22954545454545,
                "end_time": 39.66590909090909,
                "pitch": 79,
                "velocity": 80,
                "duration": 0.4363636363636374,
                "tempo": 120.0
            },
            {
                "start_time": 39.68181818181818,
                "end_time": 39.96818181818182,
                "pitch": 75,
                "velocity": 80,
                "duration": 0.2863636363636388,
                "tempo": 120.0
            },
            {
                "start_time": 39.98409090909091,
                "end_time": 40.27045454545454,
                "pitch": 75,
                "velocity": 80,
                "duration": 0.2863636363636317,
                "tempo": 120.0
            },
            {
                "start_time": 40.288636363636364,
                "end_time": 40.42272727272727,
                "pitch": 74,
                "velocity": 80,
                "duration": 0.13409090909090793,
                "tempo": 120.0
            },
            {
                "start_time": 40.43863636363636,
                "end_time": 40.875,
                "pitch": 75,
                "velocity": 80,
                "duration": 0.4363636363636374,
                "tempo": 120.0
            },
            {
                "start_time": 40.89090909090909,
                "end_time": 41.93181818181818,
                "pitch": 77,
                "velocity": 80,
                "duration": 1.0409090909090892,
                "tempo": 120.0
            },
            {
                "start_time": 41.94772727272727,
                "end_time": 42.084090909090904,
                "pitch": 74,
                "velocity": 80,
                "duration": 0.13636363636363313,
                "tempo": 120.0
            },
            {
                "start_time": 42.1,
                "end_time": 43.29545454545455,
                "pitch": 70,
                "velocity": 80,
                "duration": 1.1954545454545453,
                "tempo": 120.0
            },
            {
                "start_time": 43.31136363636364,
                "end_time": 43.59318181818182,
                "pitch": 75,
                "velocity": 80,
                "duration": 0.2818181818181813,
                "tempo": 120.0
            },
            {
                "start_time": 43.60909090909091,
                "end_time": 43.893181818181816,
                "pitch": 75,
                "velocity": 80,
                "duration": 0.2840909090909065,
                "tempo": 120.0
            },
            {
                "start_time": 43.90909090909091,
                "end_time": 44.043181818181814,
                "pitch": 75,
                "velocity": 80,
                "duration": 0.13409090909090793,
                "tempo": 120.0
            },
            {
                "start_time": 44.059090909090905,
                "end_time": 44.49545454545454,
                "pitch": 74,
                "velocity": 80,
                "duration": 0.4363636363636374,
                "tempo": 120.0
            },
            {
                "start_time": 44.51363636363636,
                "end_time": 44.79772727272727,
                "pitch": 72,
                "velocity": 80,
                "duration": 0.2840909090909136,
                "tempo": 120.0
            },
            {
                "start_time": 44.81590909090909,
                "end_time": 45.10454545454545,
                "pitch": 72,
                "velocity": 80,
                "duration": 0.288636363636364,
                "tempo": 120.0
            },
            {
                "start_time": 45.12272727272727,
                "end_time": 45.25681818181818,
                "pitch": 74,
                "velocity": 80,
                "duration": 0.13409090909091503,
                "tempo": 120.0
            },
            {
                "start_time": 45.275,
                "end_time": 45.709090909090904,
                "pitch": 75,
                "velocity": 80,
                "duration": 0.4340909090909051,
                "tempo": 120.0
            },
            {
                "start_time": 45.724999999999994,
                "end_time": 46.61590909090909,
                "pitch": 77,
                "velocity": 80,
                "duration": 0.8909090909090978,
                "tempo": 120.0
            },
            {
                "start_time": 46.63409090909091,
                "end_time": 46.913636363636364,
                "pitch": 75,
                "velocity": 80,
                "duration": 0.2795454545454561,
                "tempo": 120.0
            },
            {
                "start_time": 46.93181818181818,
                "end_time": 47.68181818181818,
                "pitch": 77,
                "velocity": 80,
                "duration": 0.75,
                "tempo": 120.0
            },
            {
                "start_time": 48.13636363636363,
                "end_time": 48.42272727272727,
                "pitch": 82,
                "velocity": 80,
                "duration": 0.2863636363636388,
                "tempo": 120.0
            },
            {
                "start_time": 48.44090909090909,
                "end_time": 48.724999999999994,
                "pitch": 82,
                "velocity": 80,
                "duration": 0.2840909090909065,
                "tempo": 120.0
            },
            {
                "start_time": 48.74318181818182,
                "end_time": 48.877272727272725,
                "pitch": 82,
                "velocity": 80,
                "duration": 0.13409090909090793,
                "tempo": 120.0
            },
            {
                "start_time": 48.89545454545454,
                "end_time": 49.33181818181818,
                "pitch": 79,
                "velocity": 80,
                "duration": 0.4363636363636374,
                "tempo": 120.0
            },
            {
                "start_time": 49.349999999999994,
                "end_time": 49.63409090909091,
                "pitch": 75,
                "velocity": 80,
                "duration": 0.2840909090909136,
                "tempo": 120.0
            },
            {
                "start_time": 49.652272727272724,
                "end_time": 49.94090909090909,
                "pitch": 75,
                "velocity": 80,
                "duration": 0.288636363636364,
                "tempo": 120.0
            },
            {
                "start_time": 49.959090909090904,
                "end_time": 50.09318181818182,
                "pitch": 74,
                "velocity": 80,
                "duration": 0.13409090909091503,
                "tempo": 120.0
            },
            {
                "start_time": 50.111363636363635,
                "end_time": 50.54545454545454,
                "pitch": 75,
                "velocity": 80,
                "duration": 0.4340909090909051,
                "tempo": 120.0
            },
            {
                "start_time": 50.56136363636364,
                "end_time": 51.599999999999994,
                "pitch": 77,
                "velocity": 80,
                "duration": 1.038636363636357,
                "tempo": 120.0
            },
            {
                "start_time": 51.615909090909085,
                "end_time": 51.75,
                "pitch": 74,
                "velocity": 80,
                "duration": 0.13409090909091503,
                "tempo": 120.0
            },
            {
                "start_time": 51.768181818181816,
                "end_time": 52.96363636363636,
                "pitch": 70,
                "velocity": 80,
                "duration": 1.1954545454545453,
                "tempo": 120.0
            },
            {
                "start_time": 52.97954545454545,
                "end_time": 53.56363636363636,
                "pitch": 72,
                "velocity": 80,
                "duration": 0.5840909090909108,
                "tempo": 120.0
            },
            {
                "start_time": 53.57954545454545,
                "end_time": 53.865909090909085,
                "pitch": 77,
                "velocity": 80,
                "duration": 0.2863636363636317,
                "tempo": 120.0
            },
            {
                "start_time": 53.88181818181818,
                "end_time": 54.168181818181814,
                "pitch": 75,
                "velocity": 80,
                "duration": 0.2863636363636317,
                "tempo": 120.0
            },
            {
                "start_time": 54.18636363636363,
                "end_time": 54.777272727272724,
                "pitch": 74,
                "velocity": 80,
                "duration": 0.5909090909090935,
                "tempo": 120.0
            },
            {
                "start_time": 54.79545454545454,
                "end_time": 55.084090909090904,
                "pitch": 74,
                "velocity": 80,
                "duration": 0.288636363636364,
                "tempo": 120.0
            },
            {
                "start_time": 55.099999999999994,
                "end_time": 55.381818181818176,
                "pitch": 77,
                "velocity": 80,
                "duration": 0.2818181818181813,
                "tempo": 120.0
            },
            {
                "start_time": 55.39772727272727,
                "end_time": 56.58181818181818,
                "pitch": 75,
                "velocity": 80,
                "duration": 1.184090909090905,
                "tempo": 120.0
            },
            {
                "start_time": 57.35454545454545,
                "end_time": 57.490909090909085,
                "pitch": 75,
                "velocity": 80,
                "duration": 0.13636363636363313,
                "tempo": 120.0
            },
            {
                "start_time": 57.506818181818176,
                "end_time": 57.643181818181816,
                "pitch": 77,
                "velocity": 80,
                "duration": 0.13636363636364024,
                "tempo": 120.0
            },
            {
                "start_time": 57.65909090909091,
                "end_time": 57.79545454545454,
                "pitch": 78,
                "velocity": 80,
                "duration": 0.13636363636363313,
                "tempo": 120.0
            }
        ],
        "Acoustic Bass": [
            {
                "start_time": 0.011363636363636364,
                "end_time": 0.07727272727272727,
                "pitch": 51,
                "velocity": 51,
                "duration": 0.0659090909090909,
                "tempo": 120.0
            },
            {
                "start_time": 0.08863636363636364,
                "end_time": 0.11136363636363636,
                "pitch": 51,
                "velocity": 51,
                "duration": 0.02272727272727272,
                "tempo": 120.0
            },
            {
                "start_time": 0.6363636363636364,
                "end_time": 0.7681818181818182,
                "pitch": 46,
                "velocity": 51,
                "duration": 0.13181818181818183,
                "tempo": 120.0
            },
            {
                "start_time": 0.7840909090909091,
                "end_time": 0.9204545454545454,
                "pitch": 51,
                "velocity": 51,
                "duration": 0.13636363636363635,
                "tempo": 120.0
            },
            {
                "start_time": 0.9363636363636363,
                "end_time": 1.0727272727272728,
                "pitch": 46,
                "velocity": 51,
                "duration": 0.13636363636363646,
                "tempo": 120.0
            },
            {
                "start_time": 1.0909090909090908,
                "end_time": 1.825,
                "pitch": 51,
                "velocity": 51,
                "duration": 0.7340909090909091,
                "tempo": 120.0
            },
            {
                "start_time": 1.8409090909090908,
                "end_time": 1.9727272727272727,
                "pitch": 46,
                "velocity": 51,
                "duration": 0.13181818181818183,
                "tempo": 120.0
            },
            {
                "start_time": 1.9909090909090907,
                "end_time": 2.125,
                "pitch": 48,
                "velocity": 51,
                "duration": 0.13409090909090926,
                "tempo": 120.0
            },
            {
                "start_time": 2.143181818181818,
                "end_time": 2.2795454545454543,
                "pitch": 51,
                "velocity": 51,
                "duration": 0.13636363636363624,
                "tempo": 120.0
            },
            {
                "start_time": 2.2954545454545454,
                "end_time": 2.4318181818181817,
                "pitch": 53,
                "velocity": 51,
                "duration": 0.13636363636363624,
                "tempo": 120.0
            },
            {
                "start_time": 2.4499999999999997,
                "end_time": 2.484090909090909,
                "pitch": 53,
                "velocity": 51,
                "duration": 0.03409090909090917,
                "tempo": 120.0
            },
            {
                "start_time": 3.0477272727272724,
                "end_time": 3.1795454545454542,
                "pitch": 53,
                "velocity": 51,
                "duration": 0.13181818181818183,
                "tempo": 120.0
            },
            {
                "start_time": 3.1954545454545453,
                "end_time": 3.3318181818181816,
                "pitch": 48,
                "velocity": 51,
                "duration": 0.13636363636363624,
                "tempo": 120.0
            },
            {
                "start_time": 3.3499999999999996,
                "end_time": 3.484090909090909,
                "pitch": 48,
                "velocity": 51,
                "duration": 0.13409090909090926,
                "tempo": 120.0
            },
            {
                "start_time": 3.502272727272727,
                "end_time": 4.386363636363636,
                "pitch": 53,
                "velocity": 51,
                "duration": 0.8840909090909088,
                "tempo": 120.0
            },
            {
                "start_time": 4.402272727272727,
                "end_time": 4.6909090909090905,
                "pitch": 55,
                "velocity": 51,
                "duration": 0.28863636363636314,
                "tempo": 120.0
            },
            {
                "start_time": 4.706818181818182,
                "end_time": 4.997727272727272,
                "pitch": 56,
                "velocity": 51,
                "duration": 0.2909090909090901,
                "tempo": 120.0
            },
            {
                "start_time": 5.013636363636364,
                "end_time": 5.047727272727273,
                "pitch": 56,
                "velocity": 51,
                "duration": 0.03409090909090917,
                "tempo": 120.0
            },
            {
                "start_time": 5.463636363636363,
                "end_time": 5.597727272727273,
                "pitch": 51,
                "velocity": 51,
                "duration": 0.1340909090909097,
                "tempo": 120.0
            },
            {
                "start_time": 5.613636363636363,
                "end_time": 5.8954545454545455,
                "pitch": 56,
                "velocity": 51,
                "duration": 0.2818181818181822,
                "tempo": 120.0
            },
            {
                "start_time": 5.911363636363636,
                "end_time": 6.1909090909090905,
                "pitch": 59,
                "velocity": 51,
                "duration": 0.2795454545454543,
                "tempo": 120.0
            },
            {
                "start_time": 6.209090909090909,
                "end_time": 6.495454545454545,
                "pitch": 52,
                "velocity": 51,
                "duration": 0.28636363636363615,
                "tempo": 120.0
            },
            {
                "start_time": 6.511363636363636,
                "end_time": 6.797727272727273,
                "pitch": 59,
                "velocity": 51,
                "duration": 0.28636363636363704,
                "tempo": 120.0
            },
            {
                "start_time": 6.8136363636363635,
                "end_time": 6.949999999999999,
                "pitch": 52,
                "velocity": 51,
                "duration": 0.1363636363636358,
                "tempo": 120.0
            },
            {
                "start_time": 6.968181818181818,
                "end_time": 8.004545454545454,
                "pitch": 51,
                "velocity": 51,
                "duration": 1.0363636363636362,
                "tempo": 120.0
            },
            {
                "start_time": 8.020454545454545,
                "end_time": 8.156818181818181,
                "pitch": 46,
                "velocity": 51,
                "duration": 0.1363636363636367,
                "tempo": 120.0
            },
            {
                "start_time": 8.172727272727272,
                "end_time": 8.309090909090909,
                "pitch": 48,
                "velocity": 51,
                "duration": 0.1363636363636367,
                "tempo": 120.0
            },
            {
                "start_time": 8.327272727272726,
                "end_time": 8.461363636363636,
                "pitch": 51,
                "velocity": 51,
                "duration": 0.1340909090909097,
                "tempo": 120.0
            },
            {
                "start_time": 9.077272727272726,
                "end_time": 9.209090909090909,
                "pitch": 46,
                "velocity": 51,
                "duration": 0.13181818181818272,
                "tempo": 120.0
            },
            {
                "start_time": 9.227272727272727,
                "end_time": 9.35909090909091,
                "pitch": 46,
                "velocity": 51,
                "duration": 0.13181818181818272,
                "tempo": 120.0
            },
            {
                "start_time": 9.377272727272727,
                "end_time": 9.509090909090908,
                "pitch": 48,
                "velocity": 51,
                "duration": 0.13181818181818095,
                "tempo": 120.0
            },
            {
                "start_time": 9.527272727272727,
                "end_time": 9.659090909090908,
                "pitch": 51,
                "velocity": 51,
                "duration": 0.13181818181818095,
                "tempo": 120.0
            },
            {
                "start_time": 9.677272727272726,
                "end_time": 9.709090909090909,
                "pitch": 51,
                "velocity": 51,
                "duration": 0.03181818181818308,
                "tempo": 120.0
            },
            {
                "start_time": 10.281818181818181,
                "end_time": 10.415909090909091,
                "pitch": 46,
                "velocity": 51,
                "duration": 0.1340909090909097,
                "tempo": 120.0
            },
            {
                "start_time": 10.431818181818182,
                "end_time": 10.568181818181818,
                "pitch": 51,
                "velocity": 51,
                "duration": 0.1363636363636367,
                "tempo": 120.0
            },
            {
                "start_time": 10.586363636363636,
                "end_time": 10.722727272727273,
                "pitch": 46,
                "velocity": 51,
                "duration": 0.1363636363636367,
                "tempo": 120.0
            },
            {
                "start_time": 10.738636363636363,
                "end_time": 11.472727272727273,
                "pitch": 51,
                "velocity": 51,
                "duration": 0.7340909090909093,
                "tempo": 120.0
            },
            {
                "start_time": 11.49090909090909,
                "end_time": 11.622727272727273,
                "pitch": 46,
                "velocity": 51,
                "duration": 0.13181818181818272,
                "tempo": 120.0
            },
            {
                "start_time": 11.638636363636364,
                "end_time": 11.774999999999999,
                "pitch": 48,
                "velocity": 51,
                "duration": 0.1363636363636349,
                "tempo": 120.0
            },
            {
                "start_time": 11.790909090909091,
                "end_time": 11.927272727272726,
                "pitch": 51,
                "velocity": 51,
                "duration": 0.1363636363636349,
                "tempo": 120.0
            },
            {
                "start_time": 11.945454545454545,
                "end_time": 12.081818181818182,
                "pitch": 53,
                "velocity": 51,
                "duration": 0.1363636363636367,
                "tempo": 120.0
            },
            {
                "start_time": 12.097727272727273,
                "end_time": 12.131818181818181,
                "pitch": 53,
                "velocity": 51,
                "duration": 0.034090909090908283,
                "tempo": 120.0
            },
            {
                "start_time": 12.695454545454545,
                "end_time": 12.827272727272726,
                "pitch": 53,
                "velocity": 51,
                "duration": 0.13181818181818095,
                "tempo": 120.0
            },
            {
                "start_time": 12.845454545454546,
                "end_time": 12.979545454545454,
                "pitch": 48,
                "velocity": 51,
                "duration": 0.13409090909090793,
                "tempo": 120.0
            },
            {
                "start_time": 12.997727272727271,
                "end_time": 13.134090909090908,
                "pitch": 48,
                "velocity": 51,
                "duration": 0.1363636363636367,
                "tempo": 120.0
            },
            {
                "start_time": 13.149999999999999,
                "end_time": 14.034090909090908,
                "pitch": 53,
                "velocity": 51,
                "duration": 0.8840909090909097,
                "tempo": 120.0
            },
            {
                "start_time": 14.049999999999999,
                "end_time": 14.338636363636363,
                "pitch": 55,
                "velocity": 51,
                "duration": 0.288636363636364,
                "tempo": 120.0
            },
            {
                "start_time": 14.35681818181818,
                "end_time": 14.645454545454545,
                "pitch": 56,
                "velocity": 51,
                "duration": 0.288636363636364,
                "tempo": 120.0
            },
            {
                "start_time": 14.663636363636362,
                "end_time": 14.695454545454545,
                "pitch": 56,
                "velocity": 51,
                "duration": 0.03181818181818308,
                "tempo": 120.0
            },
            {
                "start_time": 15.109090909090908,
                "end_time": 15.24090909090909,
                "pitch": 51,
                "velocity": 51,
                "duration": 0.13181818181818272,
                "tempo": 120.0
            },
            {
                "start_time": 15.256818181818181,
                "end_time": 15.545454545454545,
                "pitch": 56,
                "velocity": 51,
                "duration": 0.288636363636364,
                "tempo": 120.0
            },
            {
                "start_time": 15.563636363636363,
                "end_time": 15.852272727272727,
                "pitch": 59,
                "velocity": 51,
                "duration": 0.288636363636364,
                "tempo": 120.0
            },
            {
                "start_time": 15.868181818181817,
                "end_time": 16.15,
                "pitch": 52,
                "velocity": 51,
                "duration": 0.2818181818181813,
                "tempo": 120.0
            },
            {
                "start_time": 16.16590909090909,
                "end_time": 16.445454545454545,
                "pitch": 59,
                "velocity": 51,
                "duration": 0.2795454545454561,
                "tempo": 120.0
            },
            {
                "start_time": 16.46363636363636,
                "end_time": 16.595454545454544,
                "pitch": 52,
                "velocity": 51,
                "duration": 0.13181818181818272,
                "tempo": 120.0
            },
            {
                "start_time": 16.613636363636363,
                "end_time": 17.645454545454545,
                "pitch": 51,
                "velocity": 51,
                "duration": 1.0318181818181813,
                "tempo": 120.0
            },
            {
                "start_time": 17.663636363636364,
                "end_time": 17.797727272727272,
                "pitch": 56,
                "velocity": 51,
                "duration": 0.13409090909090793,
                "tempo": 120.0
            },
            {
                "start_time": 17.81590909090909,
                "end_time": 17.952272727272728,
                "pitch": 53,
                "velocity": 51,
                "duration": 0.1363636363636367,
                "tempo": 120.0
            },
            {
                "start_time": 17.96818181818182,
                "end_time": 18.104545454545455,
                "pitch": 51,
                "velocity": 51,
                "duration": 0.1363636363636367,
                "tempo": 120.0
            },
            {
                "start_time": 18.720454545454544,
                "end_time": 18.852272727272727,
                "pitch": 46,
                "velocity": 51,
                "duration": 0.13181818181818272,
                "tempo": 120.0
            },
            {
                "start_time": 18.868181818181817,
                "end_time": 19.004545454545454,
                "pitch": 48,
                "velocity": 51,
                "duration": 0.1363636363636367,
                "tempo": 120.0
            },
            {
                "start_time": 19.022727272727273,
                "end_time": 19.15681818181818,
                "pitch": 50,
                "velocity": 51,
                "duration": 0.13409090909090793,
                "tempo": 120.0
            },
            {
                "start_time": 19.175,
                "end_time": 19.311363636363634,
                "pitch": 63,
                "velocity": 51,
                "duration": 0.13636363636363313,
                "tempo": 120.0
            },
            {
                "start_time": 19.327272727272728,
                "end_time": 19.613636363636363,
                "pitch": 63,
                "velocity": 51,
                "duration": 0.28636363636363527,
                "tempo": 120.0
            },
            {
                "start_time": 19.629545454545454,
                "end_time": 19.761363636363637,
                "pitch": 58,
                "velocity": 51,
                "duration": 0.13181818181818272,
                "tempo": 120.0
            },
            {
                "start_time": 19.777272727272727,
                "end_time": 19.909090909090907,
                "pitch": 63,
                "velocity": 51,
                "duration": 0.13181818181817917,
                "tempo": 120.0
            },
            {
                "start_time": 19.927272727272726,
                "end_time": 20.05909090909091,
                "pitch": 58,
                "velocity": 51,
                "duration": 0.13181818181818272,
                "tempo": 120.0
            },
            {
                "start_time": 20.075,
                "end_time": 20.209090909090907,
                "pitch": 63,
                "velocity": 51,
                "duration": 0.13409090909090793,
                "tempo": 120.0
            },
            {
                "start_time": 20.224999999999998,
                "end_time": 20.35909090909091,
                "pitch": 62,
                "velocity": 51,
                "duration": 0.13409090909091148,
                "tempo": 120.0
            },
            {
                "start_time": 20.375,
                "end_time": 20.509090909090908,
                "pitch": 63,
                "velocity": 51,
                "duration": 0.13409090909090793,
                "tempo": 120.0
            },
            {
                "start_time": 20.525,
                "end_time": 20.811363636363634,
                "pitch": 63,
                "velocity": 51,
                "duration": 0.28636363636363527,
                "tempo": 120.0
            },
            {
                "start_time": 20.827272727272724,
                "end_time": 20.96363636363636,
                "pitch": 58,
                "velocity": 51,
                "duration": 0.1363636363636367,
                "tempo": 120.0
            },
            {
                "start_time": 20.98181818181818,
                "end_time": 21.11590909090909,
                "pitch": 62,
                "velocity": 51,
                "duration": 0.13409090909090793,
                "tempo": 120.0
            },
            {
                "start_time": 21.134090909090908,
                "end_time": 21.270454545454545,
                "pitch": 63,
                "velocity": 51,
                "duration": 0.1363636363636367,
                "tempo": 120.0
            },
            {
                "start_time": 21.286363636363635,
                "end_time": 21.418181818181818,
                "pitch": 62,
                "velocity": 51,
                "duration": 0.13181818181818272,
                "tempo": 120.0
            },
            {
                "start_time": 21.436363636363634,
                "end_time": 21.568181818181817,
                "pitch": 58,
                "velocity": 51,
                "duration": 0.13181818181818272,
                "tempo": 120.0
            },
            {
                "start_time": 21.584090909090907,
                "end_time": 21.71590909090909,
                "pitch": 58,
                "velocity": 51,
                "duration": 0.13181818181818272,
                "tempo": 120.0
            },
            {
                "start_time": 21.73181818181818,
                "end_time": 22.013636363636362,
                "pitch": 58,
                "velocity": 51,
                "duration": 0.2818181818181813,
                "tempo": 120.0
            },
            {
                "start_time": 22.03181818181818,
                "end_time": 22.163636363636364,
                "pitch": 53,
                "velocity": 51,
                "duration": 0.13181818181818272,
                "tempo": 120.0
            },
            {
                "start_time": 22.18181818181818,
                "end_time": 22.313636363636363,
                "pitch": 58,
                "velocity": 51,
                "duration": 0.13181818181818272,
                "tempo": 120.0
            },
            {
                "start_time": 22.331818181818182,
                "end_time": 22.46363636363636,
                "pitch": 53,
                "velocity": 51,
                "duration": 0.13181818181817917,
                "tempo": 120.0
            },
            {
                "start_time": 22.48181818181818,
                "end_time": 22.61590909090909,
                "pitch": 58,
                "velocity": 51,
                "duration": 0.13409090909090793,
                "tempo": 120.0
            },
            {
                "start_time": 22.63181818181818,
                "end_time": 22.768181818181816,
                "pitch": 60,
                "velocity": 51,
                "duration": 0.1363636363636367,
                "tempo": 120.0
            },
            {
                "start_time": 22.784090909090907,
                "end_time": 22.918181818181818,
                "pitch": 58,
                "velocity": 51,
                "duration": 0.13409090909091148,
                "tempo": 120.0
            },
            {
                "start_time": 22.936363636363634,
                "end_time": 23.222727272727273,
                "pitch": 58,
                "velocity": 51,
                "duration": 0.2863636363636388,
                "tempo": 120.0
            },
            {
                "start_time": 23.24090909090909,
                "end_time": 23.377272727272725,
                "pitch": 53,
                "velocity": 51,
                "duration": 0.1363636363636367,
                "tempo": 120.0
            },
            {
                "start_time": 23.393181818181816,
                "end_time": 23.68181818181818,
                "pitch": 58,
                "velocity": 51,
                "duration": 0.288636363636364,
                "tempo": 120.0
            },
            {
                "start_time": 23.7,
                "end_time": 23.979545454545452,
                "pitch": 58,
                "velocity": 51,
                "duration": 0.27954545454545254,
                "tempo": 120.0
            },
            {
                "start_time": 23.995454545454546,
                "end_time": 24.127272727272725,
                "pitch": 60,
                "velocity": 51,
                "duration": 0.13181818181817917,
                "tempo": 120.0
            },
            {
                "start_time": 24.145454545454545,
                "end_time": 24.427272727272726,
                "pitch": 60,
                "velocity": 51,
                "duration": 0.2818181818181813,
                "tempo": 120.0
            },
            {
                "start_time": 24.445454545454545,
                "end_time": 24.579545454545453,
                "pitch": 55,
                "velocity": 51,
                "duration": 0.13409090909090793,
                "tempo": 120.0
            },
            {
                "start_time": 24.595454545454544,
                "end_time": 24.73181818181818,
                "pitch": 60,
                "velocity": 51,
                "duration": 0.1363636363636367,
                "tempo": 120.0
            },
            {
                "start_time": 24.74772727272727,
                "end_time": 24.88181818181818,
                "pitch": 55,
                "velocity": 51,
                "duration": 0.13409090909090793,
                "tempo": 120.0
            },
            {
                "start_time": 24.9,
                "end_time": 25.03181818181818,
                "pitch": 60,
                "velocity": 51,
                "duration": 0.13181818181818272,
                "tempo": 120.0
            },
            {
                "start_time": 25.049999999999997,
                "end_time": 25.18181818181818,
                "pitch": 58,
                "velocity": 51,
                "duration": 0.13181818181818272,
                "tempo": 120.0
            },
            {
                "start_time": 25.2,
                "end_time": 25.331818181818182,
                "pitch": 60,
                "velocity": 51,
                "duration": 0.13181818181818272,
                "tempo": 120.0
            },
            {
                "start_time": 25.349999999999998,
                "end_time": 25.636363636363637,
                "pitch": 60,
                "velocity": 51,
                "duration": 0.2863636363636388,
                "tempo": 120.0
            },
            {
                "start_time": 25.652272727272727,
                "end_time": 25.788636363636364,
                "pitch": 55,
                "velocity": 51,
                "duration": 0.1363636363636367,
                "tempo": 120.0
            },
            {
                "start_time": 25.804545454545455,
                "end_time": 26.095454545454544,
                "pitch": 60,
                "velocity": 51,
                "duration": 0.29090909090908923,
                "tempo": 120.0
            },
            {
                "start_time": 26.111363636363635,
                "end_time": 26.39090909090909,
                "pitch": 62,
                "velocity": 51,
                "duration": 0.2795454545454561,
                "tempo": 120.0
            },
            {
                "start_time": 26.409090909090907,
                "end_time": 26.54090909090909,
                "pitch": 58,
                "velocity": 51,
                "duration": 0.13181818181818272,
                "tempo": 120.0
            },
            {
                "start_time": 26.55681818181818,
                "end_time": 26.84090909090909,
                "pitch": 58,
                "velocity": 51,
                "duration": 0.28409090909091006,
                "tempo": 120.0
            },
            {
                "start_time": 26.85909090909091,
                "end_time": 26.993181818181817,
                "pitch": 53,
                "velocity": 51,
                "duration": 0.13409090909090793,
                "tempo": 120.0
            },
            {
                "start_time": 27.011363636363637,
                "end_time": 27.299999999999997,
                "pitch": 58,
                "velocity": 51,
                "duration": 0.28863636363636047,
                "tempo": 120.0
            },
            {
                "start_time": 27.318181818181817,
                "end_time": 27.597727272727273,
                "pitch": 58,
                "velocity": 51,
                "duration": 0.2795454545454561,
                "tempo": 120.0
            },
            {
                "start_time": 27.613636363636363,
                "end_time": 27.745454545454542,
                "pitch": 53,
                "velocity": 51,
                "duration": 0.13181818181817917,
                "tempo": 120.0
            },
            {
                "start_time": 27.763636363636362,
                "end_time": 27.895454545454545,
                "pitch": 53,
                "velocity": 51,
                "duration": 0.13181818181818272,
                "tempo": 120.0
            },
            {
                "start_time": 27.911363636363635,
                "end_time": 28.045454545454543,
                "pitch": 55,
                "velocity": 51,
                "duration": 0.13409090909090793,
                "tempo": 120.0
            },
            {
                "start_time": 28.061363636363634,
                "end_time": 28.195454545454545,
                "pitch": 56,
                "velocity": 51,
                "duration": 0.13409090909091148,
                "tempo": 120.0
            },
            {
                "start_time": 28.211363636363636,
                "end_time": 28.345454545454544,
                "pitch": 58,
                "velocity": 51,
                "duration": 0.13409090909090793,
                "tempo": 120.0
            },
            {
                "start_time": 28.361363636363635,
                "end_time": 28.495454545454542,
                "pitch": 55,
                "velocity": 51,
                "duration": 0.13409090909090793,
                "tempo": 120.0
            },
            {
                "start_time": 28.511363636363637,
                "end_time": 28.645454545454545,
                "pitch": 58,
                "velocity": 51,
                "duration": 0.13409090909090793,
                "tempo": 120.0
            },
            {
                "start_time": 28.66363636363636,
                "end_time": 28.797727272727272,
                "pitch": 60,
                "velocity": 51,
                "duration": 0.13409090909091148,
                "tempo": 120.0
            },
            {
                "start_time": 28.813636363636363,
                "end_time": 28.95,
                "pitch": 63,
                "velocity": 51,
                "duration": 0.1363636363636367,
                "tempo": 120.0
            },
            {
                "start_time": 28.96590909090909,
                "end_time": 29.25,
                "pitch": 63,
                "velocity": 51,
                "duration": 0.28409090909091006,
                "tempo": 120.0
            },
            {
                "start_time": 29.268181818181816,
                "end_time": 29.4,
                "pitch": 58,
                "velocity": 51,
                "duration": 0.13181818181818272,
                "tempo": 120.0
            },
            {
                "start_time": 29.418181818181818,
                "end_time": 29.549999999999997,
                "pitch": 63,
                "velocity": 51,
                "duration": 0.13181818181817917,
                "tempo": 120.0
            },
            {
                "start_time": 29.568181818181817,
                "end_time": 29.7,
                "pitch": 58,
                "velocity": 51,
                "duration": 0.13181818181818272,
                "tempo": 120.0
            },
            {
                "start_time": 29.718181818181815,
                "end_time": 29.852272727272727,
                "pitch": 63,
                "velocity": 51,
                "duration": 0.13409090909091148,
                "tempo": 120.0
            },
            {
                "start_time": 29.868181818181817,
                "end_time": 30.004545454545454,
                "pitch": 62,
                "velocity": 51,
                "duration": 0.1363636363636367,
                "tempo": 120.0
            },
            {
                "start_time": 30.020454545454545,
                "end_time": 30.154545454545453,
                "pitch": 63,
                "velocity": 51,
                "duration": 0.13409090909090793,
                "tempo": 120.0
            },
            {
                "start_time": 30.172727272727272,
                "end_time": 30.459090909090907,
                "pitch": 63,
                "velocity": 51,
                "duration": 0.28636363636363527,
                "tempo": 120.0
            },
            {
                "start_time": 30.474999999999998,
                "end_time": 30.60909090909091,
                "pitch": 58,
                "velocity": 51,
                "duration": 0.13409090909091148,
                "tempo": 120.0
            },
            {
                "start_time": 30.627272727272725,
                "end_time": 30.761363636363633,
                "pitch": 62,
                "velocity": 51,
                "duration": 0.13409090909090793,
                "tempo": 120.0
            },
            {
                "start_time": 30.777272727272727,
                "end_time": 30.91363636363636,
                "pitch": 63,
                "velocity": 51,
                "duration": 0.13636363636363313,
                "tempo": 120.0
            },
            {
                "start_time": 30.929545454545455,
                "end_time": 31.063636363636363,
                "pitch": 62,
                "velocity": 51,
                "duration": 0.13409090909090793,
                "tempo": 120.0
            },
            {
                "start_time": 31.079545454545453,
                "end_time": 31.21363636363636,
                "pitch": 58,
                "velocity": 51,
                "duration": 0.13409090909090793,
                "tempo": 120.0
            },
            {
                "start_time": 31.229545454545452,
                "end_time": 31.363636363636363,
                "pitch": 58,
                "velocity": 51,
                "duration": 0.13409090909091148,
                "tempo": 120.0
            },
            {
                "start_time": 31.379545454545454,
                "end_time": 31.66363636363636,
                "pitch": 58,
                "velocity": 51,
                "duration": 0.2840909090909065,
                "tempo": 120.0
            },
            {
                "start_time": 31.68181818181818,
                "end_time": 31.815909090909088,
                "pitch": 53,
                "velocity": 51,
                "duration": 0.13409090909090793,
                "tempo": 120.0
            },
            {
                "start_time": 31.831818181818182,
                "end_time": 31.968181818181815,
                "pitch": 58,
                "velocity": 51,
                "duration": 0.13636363636363313,
                "tempo": 120.0
            },
            {
                "start_time": 31.984090909090906,
                "end_time": 32.11818181818182,
                "pitch": 53,
                "velocity": 51,
                "duration": 0.13409090909091148,
                "tempo": 120.0
            },
            {
                "start_time": 32.13636363636363,
                "end_time": 32.268181818181816,
                "pitch": 58,
                "velocity": 51,
                "duration": 0.13181818181818272,
                "tempo": 120.0
            },
            {
                "start_time": 32.28636363636363,
                "end_time": 32.418181818181814,
                "pitch": 60,
                "velocity": 51,
                "duration": 0.13181818181818272,
                "tempo": 120.0
            },
            {
                "start_time": 32.43636363636364,
                "end_time": 32.56818181818182,
                "pitch": 58,
                "velocity": 51,
                "duration": 0.13181818181818272,
                "tempo": 120.0
            },
            {
                "start_time": 32.586363636363636,
                "end_time": 32.87045454545454,
                "pitch": 58,
                "velocity": 51,
                "duration": 0.2840909090909065,
                "tempo": 120.0
            },
            {
                "start_time": 32.888636363636365,
                "end_time": 33.025,
                "pitch": 53,
                "velocity": 51,
                "duration": 0.13636363636363313,
                "tempo": 120.0
            },
            {
                "start_time": 33.04090909090909,
                "end_time": 33.33181818181818,
                "pitch": 58,
                "velocity": 51,
                "duration": 0.29090909090908923,
                "tempo": 120.0
            },
            {
                "start_time": 33.34772727272727,
                "end_time": 33.627272727272725,
                "pitch": 58,
                "velocity": 51,
                "duration": 0.2795454545454561,
                "tempo": 120.0
            },
            {
                "start_time": 33.64545454545454,
                "end_time": 33.777272727272724,
                "pitch": 60,
                "velocity": 51,
                "duration": 0.13181818181818272,
                "tempo": 120.0
            },
            {
                "start_time": 33.793181818181814,
                "end_time": 34.07727272727273,
                "pitch": 60,
                "velocity": 51,
                "duration": 0.2840909090909136,
                "tempo": 120.0
            },
            {
                "start_time": 34.09318181818182,
                "end_time": 34.22727272727273,
                "pitch": 55,
                "velocity": 51,
                "duration": 0.13409090909090793,
                "tempo": 120.0
            },
            {
                "start_time": 34.24545454545454,
                "end_time": 34.53181818181818,
                "pitch": 60,
                "velocity": 51,
                "duration": 0.2863636363636388,
                "tempo": 120.0
            },
            {
                "start_time": 34.54772727272727,
                "end_time": 34.83181818181818,
                "pitch": 60,
                "velocity": 51,
                "duration": 0.2840909090909065,
                "tempo": 120.0
            },
            {
                "start_time": 34.84772727272727,
                "end_time": 34.98181818181818,
                "pitch": 62,
                "velocity": 51,
                "duration": 0.13409090909090793,
                "tempo": 120.0
            },
            {
                "start_time": 34.99772727272727,
                "end_time": 35.28409090909091,
                "pitch": 58,
                "velocity": 51,
                "duration": 0.2863636363636388,
                "tempo": 120.0
            },
            {
                "start_time": 35.3,
                "end_time": 35.43636363636364,
                "pitch": 53,
                "velocity": 51,
                "duration": 0.13636363636364024,
                "tempo": 120.0
            },
            {
                "start_time": 35.45454545454545,
                "end_time": 35.74318181818182,
                "pitch": 53,
                "velocity": 51,
                "duration": 0.288636363636364,
                "tempo": 120.0
            },
            {
                "start_time": 35.75909090909091,
                "end_time": 36.04090909090909,
                "pitch": 58,
                "velocity": 51,
                "duration": 0.2818181818181813,
                "tempo": 120.0
            },
            {
                "start_time": 36.05681818181818,
                "end_time": 36.336363636363636,
                "pitch": 63,
                "velocity": 51,
                "duration": 0.2795454545454561,
                "tempo": 120.0
            },
            {
                "start_time": 36.35454545454545,
                "end_time": 36.43863636363636,
                "pitch": 63,
                "velocity": 51,
                "duration": 0.08409090909091077,
                "tempo": 120.0
            },
            {
                "start_time": 36.809090909090905,
                "end_time": 37.095454545454544,
                "pitch": 58,
                "velocity": 51,
                "duration": 0.2863636363636388,
                "tempo": 120.0
            },
            {
                "start_time": 37.111363636363635,
                "end_time": 37.24545454545454,
                "pitch": 58,
                "velocity": 51,
                "duration": 0.13409090909090793,
                "tempo": 120.0
            },
            {
                "start_time": 37.26363636363636,
                "end_time": 37.51590909090909,
                "pitch": 63,
                "velocity": 51,
                "duration": 0.2522727272727323,
                "tempo": 120.0
            },
            {
                "start_time": 38.48863636363636,
                "end_time": 38.62045454545454,
                "pitch": 63,
                "velocity": 51,
                "duration": 0.13181818181818272,
                "tempo": 120.0
            },
            {
                "start_time": 38.63636363636363,
                "end_time": 38.91590909090909,
                "pitch": 63,
                "velocity": 51,
                "duration": 0.2795454545454561,
                "tempo": 120.0
            },
            {
                "start_time": 38.934090909090905,
                "end_time": 39.06590909090909,
                "pitch": 58,
                "velocity": 51,
                "duration": 0.13181818181818272,
                "tempo": 120.0
            },
            {
                "start_time": 39.08181818181818,
                "end_time": 39.21363636363636,
                "pitch": 63,
                "velocity": 51,
                "duration": 0.13181818181818272,
                "tempo": 120.0
            },
            {
                "start_time": 39.22954545454545,
                "end_time": 39.36363636363636,
                "pitch": 58,
                "velocity": 51,
                "duration": 0.13409090909090793,
                "tempo": 120.0
            },
            {
                "start_time": 39.37954545454545,
                "end_time": 39.51363636363636,
                "pitch": 63,
                "velocity": 51,
                "duration": 0.13409090909090793,
                "tempo": 120.0
            },
            {
                "start_time": 39.529545454545456,
                "end_time": 39.66590909090909,
                "pitch": 62,
                "velocity": 51,
                "duration": 0.13636363636363313,
                "tempo": 120.0
            },
            {
                "start_time": 39.68181818181818,
                "end_time": 39.81590909090909,
                "pitch": 63,
                "velocity": 51,
                "duration": 0.13409090909090793,
                "tempo": 120.0
            },
            {
                "start_time": 39.834090909090904,
                "end_time": 40.12045454545454,
                "pitch": 63,
                "velocity": 51,
                "duration": 0.2863636363636388,
                "tempo": 120.0
            },
            {
                "start_time": 40.13636363636363,
                "end_time": 40.27045454545454,
                "pitch": 58,
                "velocity": 51,
                "duration": 0.13409090909090793,
                "tempo": 120.0
            },
            {
                "start_time": 40.288636363636364,
                "end_time": 40.42272727272727,
                "pitch": 62,
                "velocity": 51,
                "duration": 0.13409090909090793,
                "tempo": 120.0
            },
            {
                "start_time": 40.43863636363636,
                "end_time": 40.574999999999996,
                "pitch": 63,
                "velocity": 51,
                "duration": 0.13636363636363313,
                "tempo": 120.0
            },
            {
                "start_time": 40.590909090909086,
                "end_time": 40.725,
                "pitch": 62,
                "velocity": 51,
                "duration": 0.13409090909091503,
                "tempo": 120.0
            },
            {
                "start_time": 40.74090909090909,
                "end_time": 40.875,
                "pitch": 58,
                "velocity": 51,
                "duration": 0.13409090909090793,
                "tempo": 120.0
            },
            {
                "start_time": 40.89090909090909,
                "end_time": 41.025,
                "pitch": 58,
                "velocity": 51,
                "duration": 0.13409090909090793,
                "tempo": 120.0
            },
            {
                "start_time": 41.04090909090909,
                "end_time": 41.324999999999996,
                "pitch": 58,
                "velocity": 51,
                "duration": 0.2840909090909065,
                "tempo": 120.0
            },
            {
                "start_time": 41.34318181818182,
                "end_time": 41.47727272727273,
                "pitch": 53,
                "velocity": 51,
                "duration": 0.13409090909090793,
                "tempo": 120.0
            },
            {
                "start_time": 41.49318181818182,
                "end_time": 41.62954545454545,
                "pitch": 58,
                "velocity": 51,
                "duration": 0.13636363636363313,
                "tempo": 120.0
            },
            {
                "start_time": 41.64545454545454,
                "end_time": 41.77954545454545,
                "pitch": 53,
                "velocity": 51,
                "duration": 0.13409090909090793,
                "tempo": 120.0
            },
            {
                "start_time": 41.79772727272727,
                "end_time": 41.93181818181818,
                "pitch": 58,
                "velocity": 51,
                "duration": 0.13409090909090793,
                "tempo": 120.0
            },
            {
                "start_time": 41.94772727272727,
                "end_time": 42.084090909090904,
                "pitch": 60,
                "velocity": 51,
                "duration": 0.13636363636363313,
                "tempo": 120.0
            },
            {
                "start_time": 42.1,
                "end_time": 42.23409090909091,
                "pitch": 58,
                "velocity": 51,
                "duration": 0.13409090909090793,
                "tempo": 120.0
            },
            {
                "start_time": 42.252272727272725,
                "end_time": 42.538636363636364,
                "pitch": 58,
                "velocity": 51,
                "duration": 0.2863636363636388,
                "tempo": 120.0
            },
            {
                "start_time": 42.55681818181818,
                "end_time": 42.69318181818181,
                "pitch": 53,
                "velocity": 51,
                "duration": 0.13636363636363313,
                "tempo": 120.0
            },
            {
                "start_time": 42.709090909090904,
                "end_time": 42.99772727272727,
                "pitch": 58,
                "velocity": 51,
                "duration": 0.288636363636364,
                "tempo": 120.0
            },
            {
                "start_time": 43.01590909090909,
                "end_time": 43.29545454545455,
                "pitch": 58,
                "velocity": 51,
                "duration": 0.2795454545454561,
                "tempo": 120.0
            },
            {
                "start_time": 43.31136363636364,
                "end_time": 43.445454545454545,
                "pitch": 60,
                "velocity": 51,
                "duration": 0.13409090909090793,
                "tempo": 120.0
            },
            {
                "start_time": 43.461363636363636,
                "end_time": 43.74318181818182,
                "pitch": 60,
                "velocity": 51,
                "duration": 0.2818181818181813,
                "tempo": 120.0
            },
            {
                "start_time": 43.75909090909091,
                "end_time": 43.893181818181816,
                "pitch": 55,
                "velocity": 51,
                "duration": 0.13409090909090793,
                "tempo": 120.0
            },
            {
                "start_time": 43.90909090909091,
                "end_time": 44.043181818181814,
                "pitch": 60,
                "velocity": 51,
                "duration": 0.13409090909090793,
                "tempo": 120.0
            },
            {
                "start_time": 44.059090909090905,
                "end_time": 44.19318181818181,
                "pitch": 55,
                "velocity": 51,
                "duration": 0.13409090909090793,
                "tempo": 120.0
            },
            {
                "start_time": 44.209090909090904,
                "end_time": 44.34318181818182,
                "pitch": 60,
                "velocity": 51,
                "duration": 0.13409090909091503,
                "tempo": 120.0
            },
            {
                "start_time": 44.361363636363635,
                "end_time": 44.49545454545454,
                "pitch": 58,
                "velocity": 51,
                "duration": 0.13409090909090793,
                "tempo": 120.0
            },
            {
                "start_time": 44.51363636363636,
                "end_time": 44.64772727272727,
                "pitch": 60,
                "velocity": 51,
                "duration": 0.13409090909091503,
                "tempo": 120.0
            },
            {
                "start_time": 44.663636363636364,
                "end_time": 44.95227272727273,
                "pitch": 60,
                "velocity": 51,
                "duration": 0.288636363636364,
                "tempo": 120.0
            },
            {
                "start_time": 44.96818181818182,
                "end_time": 45.10454545454545,
                "pitch": 55,
                "velocity": 51,
                "duration": 0.13636363636363313,
                "tempo": 120.0
            },
            {
                "start_time": 45.12272727272727,
                "end_time": 45.41136363636363,
                "pitch": 60,
                "velocity": 51,
                "duration": 0.288636363636364,
                "tempo": 120.0
            },
            {
                "start_time": 45.42727272727272,
                "end_time": 45.709090909090904,
                "pitch": 62,
                "velocity": 51,
                "duration": 0.2818181818181813,
                "tempo": 120.0
            },
            {
                "start_time": 45.724999999999994,
                "end_time": 45.85681818181818,
                "pitch": 58,
                "velocity": 51,
                "duration": 0.13181818181818272,
                "tempo": 120.0
            },
            {
                "start_time": 45.87272727272727,
                "end_time": 46.15681818181818,
                "pitch": 58,
                "velocity": 51,
                "duration": 0.2840909090909136,
                "tempo": 120.0
            },
            {
                "start_time": 46.175,
                "end_time": 46.31136363636364,
                "pitch": 53,
                "velocity": 51,
                "duration": 0.13636363636364024,
                "tempo": 120.0
            },
            {
                "start_time": 46.32727272727273,
                "end_time": 46.61590909090909,
                "pitch": 58,
                "velocity": 51,
                "duration": 0.288636363636364,
                "tempo": 120.0
            },
            {
                "start_time": 46.63409090909091,
                "end_time": 46.913636363636364,
                "pitch": 58,
                "velocity": 51,
                "duration": 0.2795454545454561,
                "tempo": 120.0
            },
            {
                "start_time": 46.93181818181818,
                "end_time": 47.06363636363636,
                "pitch": 53,
                "velocity": 51,
                "duration": 0.13181818181818272,
                "tempo": 120.0
            },
            {
                "start_time": 47.07954545454545,
                "end_time": 47.211363636363636,
                "pitch": 53,
                "velocity": 51,
                "duration": 0.13181818181818272,
                "tempo": 120.0
            },
            {
                "start_time": 47.22727272727273,
                "end_time": 47.361363636363635,
                "pitch": 55,
                "velocity": 51,
                "duration": 0.13409090909090793,
                "tempo": 120.0
            },
            {
                "start_time": 47.37954545454545,
                "end_time": 47.51363636363636,
                "pitch": 56,
                "velocity": 51,
                "duration": 0.13409090909090793,
                "tempo": 120.0
            },
            {
                "start_time": 47.53181818181818,
                "end_time": 47.66590909090909,
                "pitch": 58,
                "velocity": 51,
                "duration": 0.13409090909090793,
                "tempo": 120.0
            },
            {
                "start_time": 47.68181818181818,
                "end_time": 47.81590909090909,
                "pitch": 55,
                "velocity": 51,
                "duration": 0.13409090909090793,
                "tempo": 120.0
            },
            {
                "start_time": 47.834090909090904,
                "end_time": 47.96818181818182,
                "pitch": 58,
                "velocity": 51,
                "duration": 0.13409090909091503,
                "tempo": 120.0
            },
            {
                "start_time": 47.986363636363635,
                "end_time": 48.12045454545454,
                "pitch": 60,
                "velocity": 51,
                "duration": 0.13409090909090793,
                "tempo": 120.0
            },
            {
                "start_time": 48.13636363636363,
                "end_time": 48.27045454545454,
                "pitch": 63,
                "velocity": 51,
                "duration": 0.13409090909090793,
                "tempo": 120.0
            },
            {
                "start_time": 48.288636363636364,
                "end_time": 48.574999999999996,
                "pitch": 63,
                "velocity": 51,
                "duration": 0.2863636363636317,
                "tempo": 120.0
            },
            {
                "start_time": 48.590909090909086,
                "end_time": 48.724999999999994,
                "pitch": 58,
                "velocity": 51,
                "duration": 0.13409090909090793,
                "tempo": 120.0
            },
            {
                "start_time": 48.74318181818182,
                "end_time": 48.877272727272725,
                "pitch": 63,
                "velocity": 51,
                "duration": 0.13409090909090793,
                "tempo": 120.0
            },
            {
                "start_time": 48.89545454545454,
                "end_time": 49.02954545454545,
                "pitch": 58,
                "velocity": 51,
                "duration": 0.13409090909090793,
                "tempo": 120.0
            },
            {
                "start_time": 49.04545454545454,
                "end_time": 49.179545454545455,
                "pitch": 63,
                "velocity": 51,
                "duration": 0.13409090909091503,
                "tempo": 120.0
            },
            {
                "start_time": 49.19772727272727,
                "end_time": 49.33181818181818,
                "pitch": 62,
                "velocity": 51,
                "duration": 0.13409090909090793,
                "tempo": 120.0
            },
            {
                "start_time": 49.349999999999994,
                "end_time": 49.48409090909091,
                "pitch": 63,
                "velocity": 51,
                "duration": 0.13409090909091503,
                "tempo": 120.0
            },
            {
                "start_time": 49.5,
                "end_time": 49.788636363636364,
                "pitch": 63,
                "velocity": 51,
                "duration": 0.288636363636364,
                "tempo": 120.0
            },
            {
                "start_time": 49.804545454545455,
                "end_time": 49.94090909090909,
                "pitch": 58,
                "velocity": 51,
                "duration": 0.13636363636363313,
                "tempo": 120.0
            },
            {
                "start_time": 49.959090909090904,
                "end_time": 50.09318181818182,
                "pitch": 62,
                "velocity": 51,
                "duration": 0.13409090909091503,
                "tempo": 120.0
            },
            {
                "start_time": 50.111363636363635,
                "end_time": 50.24772727272727,
                "pitch": 63,
                "velocity": 51,
                "duration": 0.13636363636363313,
                "tempo": 120.0
            },
            {
                "start_time": 50.26363636363636,
                "end_time": 50.39545454545454,
                "pitch": 62,
                "velocity": 51,
                "duration": 0.13181818181818272,
                "tempo": 120.0
            },
            {
                "start_time": 50.413636363636364,
                "end_time": 50.54545454545454,
                "pitch": 58,
                "velocity": 51,
                "duration": 0.13181818181817562,
                "tempo": 120.0
            },
            {
                "start_time": 50.56136363636364,
                "end_time": 50.69318181818181,
                "pitch": 58,
                "velocity": 51,
                "duration": 0.13181818181817562,
                "tempo": 120.0
            },
            {
                "start_time": 50.709090909090904,
                "end_time": 50.99318181818182,
                "pitch": 58,
                "velocity": 51,
                "duration": 0.2840909090909136,
                "tempo": 120.0
            },
            {
                "start_time": 51.00909090909091,
                "end_time": 51.14545454545454,
                "pitch": 53,
                "velocity": 51,
                "duration": 0.13636363636363313,
                "tempo": 120.0
            },
            {
                "start_time": 51.16136363636363,
                "end_time": 51.29545454545454,
                "pitch": 58,
                "velocity": 51,
                "duration": 0.13409090909090793,
                "tempo": 120.0
            },
            {
                "start_time": 51.31363636363636,
                "end_time": 51.44772727272727,
                "pitch": 53,
                "velocity": 51,
                "duration": 0.13409090909090793,
                "tempo": 120.0
            },
            {
                "start_time": 51.46363636363636,
                "end_time": 51.599999999999994,
                "pitch": 58,
                "velocity": 51,
                "duration": 0.13636363636363313,
                "tempo": 120.0
            },
            {
                "start_time": 51.615909090909085,
                "end_time": 51.75,
                "pitch": 60,
                "velocity": 51,
                "duration": 0.13409090909091503,
                "tempo": 120.0
            },
            {
                "start_time": 51.768181818181816,
                "end_time": 51.902272727272724,
                "pitch": 58,
                "velocity": 51,
                "duration": 0.13409090909090793,
                "tempo": 120.0
            },
            {
                "start_time": 51.918181818181814,
                "end_time": 52.20681818181818,
                "pitch": 58,
                "velocity": 51,
                "duration": 0.288636363636364,
                "tempo": 120.0
            },
            {
                "start_time": 52.22272727272727,
                "end_time": 52.35909090909091,
                "pitch": 53,
                "velocity": 51,
                "duration": 0.13636363636364024,
                "tempo": 120.0
            },
            {
                "start_time": 52.377272727272725,
                "end_time": 52.66590909090909,
                "pitch": 58,
                "velocity": 51,
                "duration": 0.288636363636364,
                "tempo": 120.0
            },
            {
                "start_time": 52.68181818181818,
                "end_time": 52.96363636363636,
                "pitch": 58,
                "velocity": 51,
                "duration": 0.2818181818181813,
                "tempo": 120.0
            },
            {
                "start_time": 52.97954545454545,
                "end_time": 53.111363636363635,
                "pitch": 60,
                "velocity": 51,
                "duration": 0.13181818181818272,
                "tempo": 120.0
            },
            {
                "start_time": 53.127272727272725,
                "end_time": 53.41136363636363,
                "pitch": 60,
                "velocity": 51,
                "duration": 0.2840909090909065,
                "tempo": 120.0
            },
            {
                "start_time": 53.42727272727272,
                "end_time": 53.56363636363636,
                "pitch": 55,
                "velocity": 51,
                "duration": 0.13636363636364024,
                "tempo": 120.0
            },
            {
                "start_time": 53.57954545454545,
                "end_time": 53.865909090909085,
                "pitch": 60,
                "velocity": 51,
                "duration": 0.2863636363636317,
                "tempo": 120.0
            },
            {
                "start_time": 53.88181818181818,
                "end_time": 54.168181818181814,
                "pitch": 60,
                "velocity": 51,
                "duration": 0.2863636363636317,
                "tempo": 120.0
            },
            {
                "start_time": 54.18636363636363,
                "end_time": 54.320454545454545,
                "pitch": 62,
                "velocity": 51,
                "duration": 0.13409090909091503,
                "tempo": 120.0
            },
            {
                "start_time": 54.336363636363636,
                "end_time": 54.625,
                "pitch": 58,
                "velocity": 51,
                "duration": 0.288636363636364,
                "tempo": 120.0
            },
            {
                "start_time": 54.64090909090909,
                "end_time": 54.777272727272724,
                "pitch": 53,
                "velocity": 51,
                "duration": 0.13636363636363313,
                "tempo": 120.0
            },
            {
                "start_time": 54.79545454545454,
                "end_time": 55.084090909090904,
                "pitch": 53,
                "velocity": 51,
                "duration": 0.288636363636364,
                "tempo": 120.0
            },
            {
                "start_time": 55.099999999999994,
                "end_time": 55.381818181818176,
                "pitch": 58,
                "velocity": 51,
                "duration": 0.2818181818181813,
                "tempo": 120.0
            },
            {
                "start_time": 55.39772727272727,
                "end_time": 55.67727272727272,
                "pitch": 63,
                "velocity": 51,
                "duration": 0.279545454545449,
                "tempo": 120.0
            },
            {
                "start_time": 55.695454545454545,
                "end_time": 55.777272727272724,
                "pitch": 63,
                "velocity": 51,
                "duration": 0.08181818181817846,
                "tempo": 120.0
            },
            {
                "start_time": 56.14545454545454,
                "end_time": 56.429545454545455,
                "pitch": 58,
                "velocity": 51,
                "duration": 0.2840909090909136,
                "tempo": 120.0
            },
            {
                "start_time": 56.445454545454545,
                "end_time": 56.58181818181818,
                "pitch": 58,
                "velocity": 51,
                "duration": 0.13636363636363313,
                "tempo": 120.0
            },
            {
                "start_time": 56.59772727272727,
                "end_time": 56.849999999999994,
                "pitch": 63,
                "velocity": 51,
                "duration": 0.2522727272727252,
                "tempo": 120.0
            },
            {
                "start_time": 57.81363636363636,
                "end_time": 57.949999999999996,
                "pitch": 51,
                "velocity": 51,
                "duration": 0.13636363636363313,
                "tempo": 120.0
            },
            {
                "start_time": 57.965909090909086,
                "end_time": 58.0,
                "pitch": 51,
                "velocity": 51,
                "duration": 0.03409090909091361,
                "tempo": 120.0
            }
        ],
        "Flute": [
            {
                "start_time": 19.175,
                "end_time": 19.311363636363634,
                "pitch": 87,
                "velocity": 51,
                "duration": 0.13636363636363313,
                "tempo": 120.0
            },
            {
                "start_time": 19.327272727272728,
                "end_time": 19.46363636363636,
                "pitch": 94,
                "velocity": 51,
                "duration": 0.13636363636363313,
                "tempo": 120.0
            },
            {
                "start_time": 19.48181818181818,
                "end_time": 19.613636363636363,
                "pitch": 91,
                "velocity": 51,
                "duration": 0.13181818181818272,
                "tempo": 120.0
            },
            {
                "start_time": 19.629545454545454,
                "end_time": 19.761363636363637,
                "pitch": 87,
                "velocity": 51,
                "duration": 0.13181818181818272,
                "tempo": 120.0
            },
            {
                "start_time": 19.777272727272727,
                "end_time": 19.909090909090907,
                "pitch": 94,
                "velocity": 51,
                "duration": 0.13181818181817917,
                "tempo": 120.0
            },
            {
                "start_time": 19.927272727272726,
                "end_time": 20.05909090909091,
                "pitch": 91,
                "velocity": 51,
                "duration": 0.13181818181818272,
                "tempo": 120.0
            },
            {
                "start_time": 20.075,
                "end_time": 20.209090909090907,
                "pitch": 87,
                "velocity": 51,
                "duration": 0.13409090909090793,
                "tempo": 120.0
            },
            {
                "start_time": 20.224999999999998,
                "end_time": 20.35909090909091,
                "pitch": 94,
                "velocity": 51,
                "duration": 0.13409090909091148,
                "tempo": 120.0
            },
            {
                "start_time": 20.375,
                "end_time": 20.509090909090908,
                "pitch": 91,
                "velocity": 51,
                "duration": 0.13409090909090793,
                "tempo": 120.0
            },
            {
                "start_time": 20.525,
                "end_time": 20.659090909090907,
                "pitch": 87,
                "velocity": 51,
                "duration": 0.13409090909090793,
                "tempo": 120.0
            },
            {
                "start_time": 20.675,
                "end_time": 20.811363636363634,
                "pitch": 94,
                "velocity": 51,
                "duration": 0.13636363636363313,
                "tempo": 120.0
            },
            {
                "start_time": 20.827272727272724,
                "end_time": 21.11590909090909,
                "pitch": 91,
                "velocity": 51,
                "duration": 0.288636363636364,
                "tempo": 120.0
            },
            {
                "start_time": 21.134090909090908,
                "end_time": 21.270454545454545,
                "pitch": 87,
                "velocity": 51,
                "duration": 0.1363636363636367,
                "tempo": 120.0
            },
            {
                "start_time": 21.286363636363635,
                "end_time": 21.418181818181818,
                "pitch": 87,
                "velocity": 51,
                "duration": 0.13181818181818272,
                "tempo": 120.0
            },
            {
                "start_time": 21.88181818181818,
                "end_time": 22.013636363636362,
                "pitch": 82,
                "velocity": 51,
                "duration": 0.13181818181818272,
                "tempo": 120.0
            },
            {
                "start_time": 22.03181818181818,
                "end_time": 22.163636363636364,
                "pitch": 86,
                "velocity": 51,
                "duration": 0.13181818181818272,
                "tempo": 120.0
            },
            {
                "start_time": 22.18181818181818,
                "end_time": 22.46363636363636,
                "pitch": 89,
                "velocity": 51,
                "duration": 0.2818181818181813,
                "tempo": 120.0
            },
            {
                "start_time": 22.48181818181818,
                "end_time": 22.61590909090909,
                "pitch": 89,
                "velocity": 51,
                "duration": 0.13409090909090793,
                "tempo": 120.0
            },
            {
                "start_time": 22.63181818181818,
                "end_time": 22.918181818181818,
                "pitch": 89,
                "velocity": 51,
                "duration": 0.2863636363636388,
                "tempo": 120.0
            },
            {
                "start_time": 22.936363636363634,
                "end_time": 23.070454545454545,
                "pitch": 92,
                "velocity": 51,
                "duration": 0.13409090909091148,
                "tempo": 120.0
            },
            {
                "start_time": 23.086363636363636,
                "end_time": 23.222727272727273,
                "pitch": 89,
                "velocity": 51,
                "duration": 0.1363636363636367,
                "tempo": 120.0
            },
            {
                "start_time": 23.24090909090909,
                "end_time": 23.597727272727273,
                "pitch": 86,
                "velocity": 51,
                "duration": 0.35681818181818414,
                "tempo": 120.0
            },
            {
                "start_time": 24.293181818181818,
                "end_time": 24.579545454545453,
                "pitch": 84,
                "velocity": 51,
                "duration": 0.28636363636363527,
                "tempo": 120.0
            },
            {
                "start_time": 24.595454545454544,
                "end_time": 24.88181818181818,
                "pitch": 87,
                "velocity": 51,
                "duration": 0.28636363636363527,
                "tempo": 120.0
            },
            {
                "start_time": 24.9,
                "end_time": 25.18181818181818,
                "pitch": 91,
                "velocity": 51,
                "duration": 0.2818181818181813,
                "tempo": 120.0
            },
            {
                "start_time": 25.2,
                "end_time": 25.331818181818182,
                "pitch": 91,
                "velocity": 51,
                "duration": 0.13181818181818272,
                "tempo": 120.0
            },
            {
                "start_time": 25.349999999999998,
                "end_time": 25.48181818181818,
                "pitch": 91,
                "velocity": 51,
                "duration": 0.13181818181818272,
                "tempo": 120.0
            },
            {
                "start_time": 25.5,
                "end_time": 25.636363636363637,
                "pitch": 84,
                "velocity": 51,
                "duration": 0.1363636363636367,
                "tempo": 120.0
            },
            {
                "start_time": 25.652272727272727,
                "end_time": 25.94090909090909,
                "pitch": 89,
                "velocity": 51,
                "duration": 0.288636363636364,
                "tempo": 120.0
            },
            {
                "start_time": 25.959090909090907,
                "end_time": 26.095454545454544,
                "pitch": 87,
                "velocity": 51,
                "duration": 0.1363636363636367,
                "tempo": 120.0
            },
            {
                "start_time": 26.111363636363635,
                "end_time": 26.243181818181817,
                "pitch": 86,
                "velocity": 51,
                "duration": 0.13181818181818272,
                "tempo": 120.0
            },
            {
                "start_time": 26.259090909090908,
                "end_time": 26.30909090909091,
                "pitch": 84,
                "velocity": 51,
                "duration": 0.05000000000000071,
                "tempo": 120.0
            },
            {
                "start_time": 26.704545454545453,
                "end_time": 26.84090909090909,
                "pitch": 80,
                "velocity": 51,
                "duration": 0.1363636363636367,
                "tempo": 120.0
            },
            {
                "start_time": 26.85909090909091,
                "end_time": 26.993181818181817,
                "pitch": 84,
                "velocity": 51,
                "duration": 0.13409090909090793,
                "tempo": 120.0
            },
            {
                "start_time": 27.011363636363637,
                "end_time": 27.14772727272727,
                "pitch": 87,
                "velocity": 51,
                "duration": 0.13636363636363313,
                "tempo": 120.0
            },
            {
                "start_time": 27.163636363636364,
                "end_time": 27.299999999999997,
                "pitch": 82,
                "velocity": 51,
                "duration": 0.13636363636363313,
                "tempo": 120.0
            },
            {
                "start_time": 27.318181818181817,
                "end_time": 27.45,
                "pitch": 86,
                "velocity": 51,
                "duration": 0.13181818181818272,
                "tempo": 120.0
            },
            {
                "start_time": 27.46590909090909,
                "end_time": 27.597727272727273,
                "pitch": 89,
                "velocity": 51,
                "duration": 0.13181818181818272,
                "tempo": 120.0
            },
            {
                "start_time": 27.613636363636363,
                "end_time": 27.745454545454542,
                "pitch": 84,
                "velocity": 51,
                "duration": 0.13181818181817917,
                "tempo": 120.0
            },
            {
                "start_time": 27.763636363636362,
                "end_time": 27.895454545454545,
                "pitch": 87,
                "velocity": 51,
                "duration": 0.13181818181818272,
                "tempo": 120.0
            },
            {
                "start_time": 27.911363636363635,
                "end_time": 28.045454545454543,
                "pitch": 91,
                "velocity": 51,
                "duration": 0.13409090909090793,
                "tempo": 120.0
            },
            {
                "start_time": 28.061363636363634,
                "end_time": 28.345454545454544,
                "pitch": 92,
                "velocity": 51,
                "duration": 0.28409090909091006,
                "tempo": 120.0
            },
            {
                "start_time": 28.361363636363635,
                "end_time": 28.495454545454542,
                "pitch": 91,
                "velocity": 51,
                "duration": 0.13409090909090793,
                "tempo": 120.0
            },
            {
                "start_time": 28.511363636363637,
                "end_time": 28.645454545454545,
                "pitch": 89,
                "velocity": 51,
                "duration": 0.13409090909090793,
                "tempo": 120.0
            },
            {
                "start_time": 28.66363636363636,
                "end_time": 28.797727272727272,
                "pitch": 87,
                "velocity": 51,
                "duration": 0.13409090909091148,
                "tempo": 120.0
            },
            {
                "start_time": 28.813636363636363,
                "end_time": 28.95,
                "pitch": 87,
                "velocity": 51,
                "duration": 0.1363636363636367,
                "tempo": 120.0
            },
            {
                "start_time": 28.96590909090909,
                "end_time": 29.099999999999998,
                "pitch": 94,
                "velocity": 51,
                "duration": 0.13409090909090793,
                "tempo": 120.0
            },
            {
                "start_time": 29.118181818181817,
                "end_time": 29.25,
                "pitch": 91,
                "velocity": 51,
                "duration": 0.13181818181818272,
                "tempo": 120.0
            },
            {
                "start_time": 29.268181818181816,
                "end_time": 29.4,
                "pitch": 87,
                "velocity": 51,
                "duration": 0.13181818181818272,
                "tempo": 120.0
            },
            {
                "start_time": 29.418181818181818,
                "end_time": 29.549999999999997,
                "pitch": 94,
                "velocity": 51,
                "duration": 0.13181818181817917,
                "tempo": 120.0
            },
            {
                "start_time": 29.568181818181817,
                "end_time": 29.7,
                "pitch": 91,
                "velocity": 51,
                "duration": 0.13181818181818272,
                "tempo": 120.0
            },
            {
                "start_time": 29.718181818181815,
                "end_time": 29.852272727272727,
                "pitch": 87,
                "velocity": 51,
                "duration": 0.13409090909091148,
                "tempo": 120.0
            },
            {
                "start_time": 29.868181818181817,
                "end_time": 30.004545454545454,
                "pitch": 94,
                "velocity": 51,
                "duration": 0.1363636363636367,
                "tempo": 120.0
            },
            {
                "start_time": 30.020454545454545,
                "end_time": 30.154545454545453,
                "pitch": 91,
                "velocity": 51,
                "duration": 0.13409090909090793,
                "tempo": 120.0
            },
            {
                "start_time": 30.172727272727272,
                "end_time": 30.30681818181818,
                "pitch": 87,
                "velocity": 51,
                "duration": 0.13409090909090793,
                "tempo": 120.0
            },
            {
                "start_time": 30.32272727272727,
                "end_time": 30.459090909090907,
                "pitch": 94,
                "velocity": 51,
                "duration": 0.1363636363636367,
                "tempo": 120.0
            },
            {
                "start_time": 30.474999999999998,
                "end_time": 30.761363636363633,
                "pitch": 91,
                "velocity": 51,
                "duration": 0.28636363636363527,
                "tempo": 120.0
            },
            {
                "start_time": 30.777272727272727,
                "end_time": 30.91363636363636,
                "pitch": 87,
                "velocity": 51,
                "duration": 0.13636363636363313,
                "tempo": 120.0
            },
            {
                "start_time": 30.929545454545455,
                "end_time": 31.063636363636363,
                "pitch": 87,
                "velocity": 51,
                "duration": 0.13409090909090793,
                "tempo": 120.0
            },
            {
                "start_time": 31.529545454545453,
                "end_time": 31.66363636363636,
                "pitch": 82,
                "velocity": 51,
                "duration": 0.13409090909090793,
                "tempo": 120.0
            },
            {
                "start_time": 31.68181818181818,
                "end_time": 31.815909090909088,
                "pitch": 86,
                "velocity": 51,
                "duration": 0.13409090909090793,
                "tempo": 120.0
            },
            {
                "start_time": 31.831818181818182,
                "end_time": 32.11818181818182,
                "pitch": 89,
                "velocity": 51,
                "duration": 0.28636363636363527,
                "tempo": 120.0
            },
            {
                "start_time": 32.13636363636363,
                "end_time": 32.268181818181816,
                "pitch": 89,
                "velocity": 51,
                "duration": 0.13181818181818272,
                "tempo": 120.0
            },
            {
                "start_time": 32.28636363636363,
                "end_time": 32.56818181818182,
                "pitch": 89,
                "velocity": 51,
                "duration": 0.2818181818181884,
                "tempo": 120.0
            },
            {
                "start_time": 32.586363636363636,
                "end_time": 32.71818181818182,
                "pitch": 92,
                "velocity": 51,
                "duration": 0.13181818181818272,
                "tempo": 120.0
            },
            {
                "start_time": 32.736363636363635,
                "end_time": 32.87045454545454,
                "pitch": 89,
                "velocity": 51,
                "duration": 0.13409090909090793,
                "tempo": 120.0
            },
            {
                "start_time": 32.888636363636365,
                "end_time": 33.24545454545454,
                "pitch": 86,
                "velocity": 51,
                "duration": 0.35681818181817704,
                "tempo": 120.0
            },
            {
                "start_time": 33.94090909090909,
                "end_time": 34.22727272727273,
                "pitch": 84,
                "velocity": 51,
                "duration": 0.2863636363636388,
                "tempo": 120.0
            },
            {
                "start_time": 34.24545454545454,
                "end_time": 34.37954545454545,
                "pitch": 87,
                "velocity": 51,
                "duration": 0.13409090909090793,
                "tempo": 120.0
            },
            {
                "start_time": 34.39545454545454,
                "end_time": 34.83181818181818,
                "pitch": 91,
                "velocity": 51,
                "duration": 0.4363636363636374,
                "tempo": 120.0
            },
            {
                "start_time": 34.84772727272727,
                "end_time": 35.13181818181818,
                "pitch": 86,
                "velocity": 51,
                "duration": 0.2840909090909136,
                "tempo": 120.0
            },
            {
                "start_time": 35.14772727272727,
                "end_time": 35.43636363636364,
                "pitch": 86,
                "velocity": 51,
                "duration": 0.288636363636364,
                "tempo": 120.0
            },
            {
                "start_time": 35.45454545454545,
                "end_time": 35.74318181818182,
                "pitch": 89,
                "velocity": 51,
                "duration": 0.288636363636364,
                "tempo": 120.0
            },
            {
                "start_time": 35.75909090909091,
                "end_time": 35.85909090909091,
                "pitch": 94,
                "velocity": 51,
                "duration": 0.10000000000000142,
                "tempo": 120.0
            },
            {
                "start_time": 36.20454545454545,
                "end_time": 36.336363636363636,
                "pitch": 91,
                "velocity": 51,
                "duration": 0.13181818181818272,
                "tempo": 120.0
            },
            {
                "start_time": 36.35454545454545,
                "end_time": 36.64090909090909,
                "pitch": 87,
                "velocity": 51,
                "duration": 0.2863636363636388,
                "tempo": 120.0
            },
            {
                "start_time": 36.65681818181818,
                "end_time": 36.94318181818181,
                "pitch": 91,
                "velocity": 51,
                "duration": 0.2863636363636317,
                "tempo": 120.0
            },
            {
                "start_time": 36.95909090909091,
                "end_time": 37.095454545454544,
                "pitch": 87,
                "velocity": 51,
                "duration": 0.13636363636363313,
                "tempo": 120.0
            },
            {
                "start_time": 37.111363636363635,
                "end_time": 37.24545454545454,
                "pitch": 82,
                "velocity": 51,
                "duration": 0.13409090909090793,
                "tempo": 120.0
            },
            {
                "start_time": 37.26363636363636,
                "end_time": 37.6,
                "pitch": 87,
                "velocity": 51,
                "duration": 0.3363636363636431,
                "tempo": 120.0
            },
            {
                "start_time": 38.48863636363636,
                "end_time": 38.62045454545454,
                "pitch": 87,
                "velocity": 51,
                "duration": 0.13181818181818272,
                "tempo": 120.0
            },
            {
                "start_time": 38.63636363636363,
                "end_time": 38.768181818181816,
                "pitch": 94,
                "velocity": 51,
                "duration": 0.13181818181818272,
                "tempo": 120.0
            },
            {
                "start_time": 38.78409090909091,
                "end_time": 38.91590909090909,
                "pitch": 91,
                "velocity": 51,
                "duration": 0.13181818181818272,
                "tempo": 120.0
            },
            {
                "start_time": 38.934090909090905,
                "end_time": 39.06590909090909,
                "pitch": 87,
                "velocity": 51,
                "duration": 0.13181818181818272,
                "tempo": 120.0
            },
            {
                "start_time": 39.08181818181818,
                "end_time": 39.21363636363636,
                "pitch": 94,
                "velocity": 51,
                "duration": 0.13181818181818272,
                "tempo": 120.0
            },
            {
                "start_time": 39.22954545454545,
                "end_time": 39.36363636363636,
                "pitch": 91,
                "velocity": 51,
                "duration": 0.13409090909090793,
                "tempo": 120.0
            },
            {
                "start_time": 39.37954545454545,
                "end_time": 39.51363636363636,
                "pitch": 87,
                "velocity": 51,
                "duration": 0.13409090909090793,
                "tempo": 120.0
            },
            {
                "start_time": 39.529545454545456,
                "end_time": 39.66590909090909,
                "pitch": 94,
                "velocity": 51,
                "duration": 0.13636363636363313,
                "tempo": 120.0
            },
            {
                "start_time": 39.68181818181818,
                "end_time": 39.81590909090909,
                "pitch": 91,
                "velocity": 51,
                "duration": 0.13409090909090793,
                "tempo": 120.0
            },
            {
                "start_time": 39.834090909090904,
                "end_time": 39.96818181818182,
                "pitch": 87,
                "velocity": 51,
                "duration": 0.13409090909091503,
                "tempo": 120.0
            },
            {
                "start_time": 39.98409090909091,
                "end_time": 40.12045454545454,
                "pitch": 94,
                "velocity": 51,
                "duration": 0.13636363636363313,
                "tempo": 120.0
            },
            {
                "start_time": 40.13636363636363,
                "end_time": 40.42272727272727,
                "pitch": 91,
                "velocity": 51,
                "duration": 0.2863636363636388,
                "tempo": 120.0
            },
            {
                "start_time": 40.43863636363636,
                "end_time": 40.574999999999996,
                "pitch": 87,
                "velocity": 51,
                "duration": 0.13636363636363313,
                "tempo": 120.0
            },
            {
                "start_time": 40.590909090909086,
                "end_time": 40.725,
                "pitch": 87,
                "velocity": 51,
                "duration": 0.13409090909091503,
                "tempo": 120.0
            },
            {
                "start_time": 41.19090909090909,
                "end_time": 41.324999999999996,
                "pitch": 82,
                "velocity": 51,
                "duration": 0.13409090909090793,
                "tempo": 120.0
            },
            {
                "start_time": 41.34318181818182,
                "end_time": 41.47727272727273,
                "pitch": 86,
                "velocity": 51,
                "duration": 0.13409090909090793,
                "tempo": 120.0
            },
            {
                "start_time": 41.49318181818182,
                "end_time": 41.77954545454545,
                "pitch": 89,
                "velocity": 51,
                "duration": 0.2863636363636317,
                "tempo": 120.0
            },
            {
                "start_time": 41.79772727272727,
                "end_time": 41.93181818181818,
                "pitch": 89,
                "velocity": 51,
                "duration": 0.13409090909090793,
                "tempo": 120.0
            },
            {
                "start_time": 41.94772727272727,
                "end_time": 42.23409090909091,
                "pitch": 89,
                "velocity": 51,
                "duration": 0.2863636363636388,
                "tempo": 120.0
            },
            {
                "start_time": 42.252272727272725,
                "end_time": 42.38636363636363,
                "pitch": 92,
                "velocity": 51,
                "duration": 0.13409090909090793,
                "tempo": 120.0
            },
            {
                "start_time": 42.402272727272724,
                "end_time": 42.538636363636364,
                "pitch": 89,
                "velocity": 51,
                "duration": 0.13636363636364024,
                "tempo": 120.0
            },
            {
                "start_time": 42.55681818181818,
                "end_time": 42.913636363636364,
                "pitch": 86,
                "velocity": 51,
                "duration": 0.35681818181818414,
                "tempo": 120.0
            },
            {
                "start_time": 43.60909090909091,
                "end_time": 43.893181818181816,
                "pitch": 84,
                "velocity": 51,
                "duration": 0.2840909090909065,
                "tempo": 120.0
            },
            {
                "start_time": 43.90909090909091,
                "end_time": 44.19318181818181,
                "pitch": 87,
                "velocity": 51,
                "duration": 0.2840909090909065,
                "tempo": 120.0
            },
            {
                "start_time": 44.209090909090904,
                "end_time": 44.49545454545454,
                "pitch": 91,
                "velocity": 51,
                "duration": 0.2863636363636388,
                "tempo": 120.0
            },
            {
                "start_time": 44.51363636363636,
                "end_time": 44.64772727272727,
                "pitch": 91,
                "velocity": 51,
                "duration": 0.13409090909091503,
                "tempo": 120.0
            },
            {
                "start_time": 44.663636363636364,
                "end_time": 44.79772727272727,
                "pitch": 91,
                "velocity": 51,
                "duration": 0.13409090909090793,
                "tempo": 120.0
            },
            {
                "start_time": 44.81590909090909,
                "end_time": 44.95227272727273,
                "pitch": 84,
                "velocity": 51,
                "duration": 0.13636363636364024,
                "tempo": 120.0
            },
            {
                "start_time": 44.96818181818182,
                "end_time": 45.25681818181818,
                "pitch": 89,
                "velocity": 51,
                "duration": 0.288636363636364,
                "tempo": 120.0
            },
            {
                "start_time": 45.275,
                "end_time": 45.41136363636363,
                "pitch": 87,
                "velocity": 51,
                "duration": 0.13636363636363313,
                "tempo": 120.0
            },
            {
                "start_time": 45.42727272727272,
                "end_time": 45.559090909090905,
                "pitch": 86,
                "velocity": 51,
                "duration": 0.13181818181818272,
                "tempo": 120.0
            },
            {
                "start_time": 45.57727272727273,
                "end_time": 45.625,
                "pitch": 84,
                "velocity": 51,
                "duration": 0.04772727272727195,
                "tempo": 120.0
            },
            {
                "start_time": 46.02272727272727,
                "end_time": 46.15681818181818,
                "pitch": 80,
                "velocity": 51,
                "duration": 0.13409090909090793,
                "tempo": 120.0
            },
            {
                "start_time": 46.175,
                "end_time": 46.31136363636364,
                "pitch": 84,
                "velocity": 51,
                "duration": 0.13636363636364024,
                "tempo": 120.0
            },
            {
                "start_time": 46.32727272727273,
                "end_time": 46.46363636363636,
                "pitch": 87,
                "velocity": 51,
                "duration": 0.13636363636363313,
                "tempo": 120.0
            },
            {
                "start_time": 46.48181818181818,
                "end_time": 46.61590909090909,
                "pitch": 82,
                "velocity": 51,
                "duration": 0.13409090909091503,
                "tempo": 120.0
            },
            {
                "start_time": 46.63409090909091,
                "end_time": 46.76590909090909,
                "pitch": 86,
                "velocity": 51,
                "duration": 0.13181818181818272,
                "tempo": 120.0
            },
            {
                "start_time": 46.78181818181818,
                "end_time": 46.913636363636364,
                "pitch": 89,
                "velocity": 51,
                "duration": 0.13181818181818272,
                "tempo": 120.0
            },
            {
                "start_time": 46.93181818181818,
                "end_time": 47.06363636363636,
                "pitch": 84,
                "velocity": 51,
                "duration": 0.13181818181818272,
                "tempo": 120.0
            },
            {
                "start_time": 47.07954545454545,
                "end_time": 47.211363636363636,
                "pitch": 87,
                "velocity": 51,
                "duration": 0.13181818181818272,
                "tempo": 120.0
            },
            {
                "start_time": 47.22727272727273,
                "end_time": 47.361363636363635,
                "pitch": 91,
                "velocity": 51,
                "duration": 0.13409090909090793,
                "tempo": 120.0
            },
            {
                "start_time": 47.37954545454545,
                "end_time": 47.66590909090909,
                "pitch": 92,
                "velocity": 51,
                "duration": 0.2863636363636388,
                "tempo": 120.0
            },
            {
                "start_time": 47.68181818181818,
                "end_time": 47.81590909090909,
                "pitch": 91,
                "velocity": 51,
                "duration": 0.13409090909090793,
                "tempo": 120.0
            },
            {
                "start_time": 47.834090909090904,
                "end_time": 47.96818181818182,
                "pitch": 89,
                "velocity": 51,
                "duration": 0.13409090909091503,
                "tempo": 120.0
            },
            {
                "start_time": 47.986363636363635,
                "end_time": 48.12045454545454,
                "pitch": 87,
                "velocity": 51,
                "duration": 0.13409090909090793,
                "tempo": 120.0
            },
            {
                "start_time": 48.13636363636363,
                "end_time": 48.27045454545454,
                "pitch": 87,
                "velocity": 51,
                "duration": 0.13409090909090793,
                "tempo": 120.0
            },
            {
                "start_time": 48.288636363636364,
                "end_time": 48.42272727272727,
                "pitch": 94,
                "velocity": 51,
                "duration": 0.13409090909090793,
                "tempo": 120.0
            },
            {
                "start_time": 48.44090909090909,
                "end_time": 48.574999999999996,
                "pitch": 91,
                "velocity": 51,
                "duration": 0.13409090909090793,
                "tempo": 120.0
            },
            {
                "start_time": 48.590909090909086,
                "end_time": 48.724999999999994,
                "pitch": 87,
                "velocity": 51,
                "duration": 0.13409090909090793,
                "tempo": 120.0
            },
            {
                "start_time": 48.74318181818182,
                "end_time": 48.877272727272725,
                "pitch": 94,
                "velocity": 51,
                "duration": 0.13409090909090793,
                "tempo": 120.0
            },
            {
                "start_time": 48.89545454545454,
                "end_time": 49.02954545454545,
                "pitch": 91,
                "velocity": 51,
                "duration": 0.13409090909090793,
                "tempo": 120.0
            },
            {
                "start_time": 49.04545454545454,
                "end_time": 49.179545454545455,
                "pitch": 87,
                "velocity": 51,
                "duration": 0.13409090909091503,
                "tempo": 120.0
            },
            {
                "start_time": 49.19772727272727,
                "end_time": 49.33181818181818,
                "pitch": 94,
                "velocity": 51,
                "duration": 0.13409090909090793,
                "tempo": 120.0
            },
            {
                "start_time": 49.349999999999994,
                "end_time": 49.48409090909091,
                "pitch": 91,
                "velocity": 51,
                "duration": 0.13409090909091503,
                "tempo": 120.0
            },
            {
                "start_time": 49.5,
                "end_time": 49.63409090909091,
                "pitch": 87,
                "velocity": 51,
                "duration": 0.13409090909090793,
                "tempo": 120.0
            },
            {
                "start_time": 49.652272727272724,
                "end_time": 49.788636363636364,
                "pitch": 94,
                "velocity": 51,
                "duration": 0.13636363636364024,
                "tempo": 120.0
            },
            {
                "start_time": 49.804545454545455,
                "end_time": 50.09318181818182,
                "pitch": 91,
                "velocity": 51,
                "duration": 0.288636363636364,
                "tempo": 120.0
            },
            {
                "start_time": 50.111363636363635,
                "end_time": 50.24772727272727,
                "pitch": 87,
                "velocity": 51,
                "duration": 0.13636363636363313,
                "tempo": 120.0
            },
            {
                "start_time": 50.26363636363636,
                "end_time": 50.39545454545454,
                "pitch": 87,
                "velocity": 51,
                "duration": 0.13181818181818272,
                "tempo": 120.0
            },
            {
                "start_time": 50.85909090909091,
                "end_time": 50.99318181818182,
                "pitch": 82,
                "velocity": 51,
                "duration": 0.13409090909090793,
                "tempo": 120.0
            },
            {
                "start_time": 51.00909090909091,
                "end_time": 51.14545454545454,
                "pitch": 86,
                "velocity": 51,
                "duration": 0.13636363636363313,
                "tempo": 120.0
            },
            {
                "start_time": 51.16136363636363,
                "end_time": 51.44772727272727,
                "pitch": 89,
                "velocity": 51,
                "duration": 0.2863636363636388,
                "tempo": 120.0
            },
            {
                "start_time": 51.46363636363636,
                "end_time": 51.599999999999994,
                "pitch": 89,
                "velocity": 51,
                "duration": 0.13636363636363313,
                "tempo": 120.0
            },
            {
                "start_time": 51.615909090909085,
                "end_time": 51.902272727272724,
                "pitch": 89,
                "velocity": 51,
                "duration": 0.2863636363636388,
                "tempo": 120.0
            },
            {
                "start_time": 51.918181818181814,
                "end_time": 52.054545454545455,
                "pitch": 92,
                "velocity": 51,
                "duration": 0.13636363636364024,
                "tempo": 120.0
            },
            {
                "start_time": 52.070454545454545,
                "end_time": 52.20681818181818,
                "pitch": 89,
                "velocity": 51,
                "duration": 0.13636363636363313,
                "tempo": 120.0
            },
            {
                "start_time": 52.22272727272727,
                "end_time": 52.57954545454545,
                "pitch": 86,
                "velocity": 51,
                "duration": 0.35681818181818414,
                "tempo": 120.0
            },
            {
                "start_time": 53.277272727272724,
                "end_time": 53.56363636363636,
                "pitch": 84,
                "velocity": 51,
                "duration": 0.2863636363636388,
                "tempo": 120.0
            },
            {
                "start_time": 53.57954545454545,
                "end_time": 53.71363636363636,
                "pitch": 87,
                "velocity": 51,
                "duration": 0.13409090909090793,
                "tempo": 120.0
            },
            {
                "start_time": 53.73181818181818,
                "end_time": 54.168181818181814,
                "pitch": 91,
                "velocity": 51,
                "duration": 0.4363636363636374,
                "tempo": 120.0
            },
            {
                "start_time": 54.18636363636363,
                "end_time": 54.47272727272727,
                "pitch": 86,
                "velocity": 51,
                "duration": 0.2863636363636388,
                "tempo": 120.0
            },
            {
                "start_time": 54.48863636363636,
                "end_time": 54.777272727272724,
                "pitch": 86,
                "velocity": 51,
                "duration": 0.288636363636364,
                "tempo": 120.0
            },
            {
                "start_time": 54.79545454545454,
                "end_time": 55.084090909090904,
                "pitch": 89,
                "velocity": 51,
                "duration": 0.288636363636364,
                "tempo": 120.0
            },
            {
                "start_time": 55.099999999999994,
                "end_time": 55.199999999999996,
                "pitch": 94,
                "velocity": 51,
                "duration": 0.10000000000000142,
                "tempo": 120.0
            },
            {
                "start_time": 55.54545454545454,
                "end_time": 55.67727272727272,
                "pitch": 91,
                "velocity": 51,
                "duration": 0.13181818181818272,
                "tempo": 120.0
            },
            {
                "start_time": 55.695454545454545,
                "end_time": 55.97727272727273,
                "pitch": 87,
                "velocity": 51,
                "duration": 0.2818181818181813,
                "tempo": 120.0
            },
            {
                "start_time": 55.99545454545454,
                "end_time": 56.277272727272724,
                "pitch": 91,
                "velocity": 51,
                "duration": 0.2818181818181813,
                "tempo": 120.0
            },
            {
                "start_time": 56.29545454545454,
                "end_time": 56.429545454545455,
                "pitch": 87,
                "velocity": 51,
                "duration": 0.13409090909091503,
                "tempo": 120.0
            },
            {
                "start_time": 56.445454545454545,
                "end_time": 56.58181818181818,
                "pitch": 82,
                "velocity": 51,
                "duration": 0.13636363636363313,
                "tempo": 120.0
            },
            {
                "start_time": 56.59772727272727,
                "end_time": 56.934090909090905,
                "pitch": 87,
                "velocity": 51,
                "duration": 0.336363636363636,
                "tempo": 120.0
            }
        ]
    }
}