{
    "track_id": "BMX Trial - Alex Kidd - 06 - Jetpack",
    "mood": "happy",
    "instruments": {
        "Oboe": [
            {
                "start_time": 1.4909090909090907,
                "end_time": 1.6227272727272726,
                "pitch": 84,
                "velocity": 25,
                "duration": 0.13181818181818183,
                "tempo": 120.0
            },
            {
                "start_time": 1.6409090909090909,
                "end_time": 1.7727272727272727,
                "pitch": 83,
                "velocity": 25,
                "duration": 0.13181818181818183,
                "tempo": 120.0
            },
            {
                "start_time": 1.7909090909090908,
                "end_time": 1.9227272727272726,
                "pitch": 84,
                "velocity": 25,
                "duration": 0.13181818181818183,
                "tempo": 120.0
            },
            {
                "start_time": 1.940909090909091,
                "end_time": 2.225,
                "pitch": 83,
                "velocity": 25,
                "duration": 0.28409090909090917,
                "tempo": 120.0
            },
            {
                "start_time": 2.243181818181818,
                "end_time": 2.5295454545454543,
                "pitch": 79,
                "velocity": 25,
                "duration": 0.28636363636363615,
                "tempo": 120.0
            },
            {
                "start_time": 2.5454545454545454,
                "end_time": 2.6795454545454542,
                "pitch": 83,
                "velocity": 25,
                "duration": 0.13409090909090882,
                "tempo": 120.0
            },
            {
                "start_time": 2.6977272727272728,
                "end_time": 3.286363636363636,
                "pitch": 84,
                "velocity": 25,
                "duration": 0.5886363636363634,
                "tempo": 120.0
            },
            {
                "start_time": 3.3022727272727272,
                "end_time": 3.586363636363636,
                "pitch": 86,
                "velocity": 25,
                "duration": 0.2840909090909087,
                "tempo": 120.0
            },
            {
                "start_time": 3.602272727272727,
                "end_time": 4.493181818181818,
                "pitch": 87,
                "velocity": 25,
                "duration": 0.8909090909090911,
                "tempo": 120.0
            },
            {
                "start_time": 4.509090909090909,
                "end_time": 4.795454545454545,
                "pitch": 91,
                "velocity": 25,
                "duration": 0.28636363636363615,
                "tempo": 120.0
            },
            {
                "start_time": 4.8113636363636365,
                "end_time": 5.559090909090909,
                "pitch": 89,
                "velocity": 25,
                "duration": 0.7477272727272721,
                "tempo": 120.0
            },
            {
                "start_time": 5.574999999999999,
                "end_time": 5.861363636363636,
                "pitch": 90,
                "velocity": 25,
                "duration": 0.28636363636363704,
                "tempo": 120.0
            },
            {
                "start_time": 5.879545454545454,
                "end_time": 6.013636363636364,
                "pitch": 91,
                "velocity": 25,
                "duration": 0.1340909090909097,
                "tempo": 120.0
            },
            {
                "start_time": 15.961363636363636,
                "end_time": 16.09318181818182,
                "pitch": 84,
                "velocity": 25,
                "duration": 0.13181818181818272,
                "tempo": 120.0
            }
        ],
        "Church Organ": [
            {
                "start_time": 6.331818181818181,
                "end_time": 6.611363636363636,
                "pitch": 95,
                "velocity": 25,
                "duration": 0.2795454545454552,
                "tempo": 120.0
            },
            {
                "start_time": 6.629545454545454,
                "end_time": 6.761363636363636,
                "pitch": 95,
                "velocity": 25,
                "duration": 0.13181818181818183,
                "tempo": 120.0
            },
            {
                "start_time": 6.777272727272727,
                "end_time": 7.209090909090909,
                "pitch": 91,
                "velocity": 25,
                "duration": 0.43181818181818166,
                "tempo": 120.0
            },
            {
                "start_time": 7.227272727272727,
                "end_time": 7.511363636363636,
                "pitch": 86,
                "velocity": 25,
                "duration": 0.28409090909090917,
                "tempo": 120.0
            },
            {
                "start_time": 7.527272727272727,
                "end_time": 7.8136363636363635,
                "pitch": 86,
                "velocity": 25,
                "duration": 0.28636363636363615,
                "tempo": 120.0
            },
            {
                "start_time": 7.831818181818181,
                "end_time": 7.965909090909091,
                "pitch": 91,
                "velocity": 25,
                "duration": 0.1340909090909097,
                "tempo": 120.0
            },
            {
                "start_time": 7.9818181818181815,
                "end_time": 8.415909090909091,
                "pitch": 95,
                "velocity": 25,
                "duration": 0.4340909090909095,
                "tempo": 120.0
            },
            {
                "start_time": 8.73181818181818,
                "end_time": 9.01590909090909,
                "pitch": 93,
                "velocity": 25,
                "duration": 0.28409090909091006,
                "tempo": 120.0
            },
            {
                "start_time": 9.031818181818181,
                "end_time": 9.165909090909091,
                "pitch": 89,
                "velocity": 25,
                "duration": 0.1340909090909097,
                "tempo": 120.0
            },
            {
                "start_time": 9.181818181818182,
                "end_time": 9.61590909090909,
                "pitch": 93,
                "velocity": 25,
                "duration": 0.43409090909090864,
                "tempo": 120.0
            },
            {
                "start_time": 9.631818181818181,
                "end_time": 10.068181818181818,
                "pitch": 95,
                "velocity": 25,
                "duration": 0.4363636363636374,
                "tempo": 120.0
            },
            {
                "start_time": 10.086363636363636,
                "end_time": 10.370454545454544,
                "pitch": 91,
                "velocity": 25,
                "duration": 0.2840909090909083,
                "tempo": 120.0
            },
            {
                "start_time": 10.388636363636364,
                "end_time": 10.522727272727272,
                "pitch": 86,
                "velocity": 25,
                "duration": 0.13409090909090793,
                "tempo": 120.0
            },
            {
                "start_time": 10.538636363636362,
                "end_time": 10.672727272727272,
                "pitch": 91,
                "velocity": 25,
                "duration": 0.1340909090909097,
                "tempo": 120.0
            },
            {
                "start_time": 10.688636363636363,
                "end_time": 10.822727272727272,
                "pitch": 95,
                "velocity": 25,
                "duration": 0.1340909090909097,
                "tempo": 120.0
            },
            {
                "start_time": 11.138636363636364,
                "end_time": 11.422727272727272,
                "pitch": 95,
                "velocity": 25,
                "duration": 0.2840909090909083,
                "tempo": 120.0
            },
            {
                "start_time": 11.438636363636363,
                "end_time": 11.572727272727272,
                "pitch": 95,
                "velocity": 25,
                "duration": 0.1340909090909097,
                "tempo": 120.0
            },
            {
                "start_time": 11.588636363636363,
                "end_time": 12.022727272727272,
                "pitch": 91,
                "velocity": 25,
                "duration": 0.43409090909090864,
                "tempo": 120.0
            },
            {
                "start_time": 12.038636363636362,
                "end_time": 12.322727272727272,
                "pitch": 86,
                "velocity": 25,
                "duration": 0.28409090909091006,
                "tempo": 120.0
            },
            {
                "start_time": 12.338636363636363,
                "end_time": 12.622727272727271,
                "pitch": 86,
                "velocity": 25,
                "duration": 0.2840909090909083,
                "tempo": 120.0
            },
            {
                "start_time": 12.638636363636364,
                "end_time": 12.772727272727272,
                "pitch": 91,
                "velocity": 25,
                "duration": 0.13409090909090793,
                "tempo": 120.0
            },
            {
                "start_time": 12.788636363636362,
                "end_time": 13.225,
                "pitch": 95,
                "velocity": 25,
                "duration": 0.4363636363636374,
                "tempo": 120.0
            },
            {
                "start_time": 13.243181818181817,
                "end_time": 13.377272727272727,
                "pitch": 93,
                "velocity": 25,
                "duration": 0.1340909090909097,
                "tempo": 120.0
            },
            {
                "start_time": 13.395454545454545,
                "end_time": 13.527272727272727,
                "pitch": 93,
                "velocity": 25,
                "duration": 0.13181818181818272,
                "tempo": 120.0
            },
            {
                "start_time": 13.995454545454544,
                "end_time": 14.129545454545454,
                "pitch": 89,
                "velocity": 25,
                "duration": 0.1340909090909097,
                "tempo": 120.0
            },
            {
                "start_time": 14.147727272727272,
                "end_time": 14.436363636363636,
                "pitch": 93,
                "velocity": 25,
                "duration": 0.288636363636364,
                "tempo": 120.0
            },
            {
                "start_time": 14.452272727272726,
                "end_time": 14.738636363636363,
                "pitch": 95,
                "velocity": 25,
                "duration": 0.28636363636363704,
                "tempo": 120.0
            },
            {
                "start_time": 14.756818181818181,
                "end_time": 15.036363636363635,
                "pitch": 95,
                "velocity": 25,
                "duration": 0.2795454545454543,
                "tempo": 120.0
            },
            {
                "start_time": 15.052272727272726,
                "end_time": 15.336363636363636,
                "pitch": 95,
                "velocity": 25,
                "duration": 0.28409090909091006,
                "tempo": 120.0
            },
            {
                "start_time": 15.352272727272727,
                "end_time": 15.488636363636363,
                "pitch": 95,
                "velocity": 25,
                "duration": 0.1363636363636367,
                "tempo": 120.0
            }
        ],
        "Acoustic Bass": [
            {
                "start_time": 0.011363636363636364,
                "end_time": 0.1659090909090909,
                "pitch": 27,
                "velocity": 51,
                "duration": 0.15454545454545454,
                "tempo": 120.0
            },
            {
                "start_time": 0.1659090909090909,
                "end_time": 0.4909090909090909,
                "pitch": 29,
                "velocity": 51,
                "duration": 0.325,
                "tempo": 120.0
            },
            {
                "start_time": 0.4909090909090909,
                "end_time": 0.6727272727272727,
                "pitch": 31,
                "velocity": 51,
                "duration": 0.18181818181818182,
                "tempo": 120.0
            },
            {
                "start_time": 0.6727272727272727,
                "end_time": 0.8727272727272727,
                "pitch": 33,
                "velocity": 51,
                "duration": 0.19999999999999996,
                "tempo": 120.0
            },
            {
                "start_time": 0.8727272727272727,
                "end_time": 1.2227272727272727,
                "pitch": 35,
                "velocity": 51,
                "duration": 0.35,
                "tempo": 120.0
            },
            {
                "start_time": 1.2409090909090907,
                "end_time": 1.3727272727272726,
                "pitch": 48,
                "velocity": 51,
                "duration": 0.13181818181818183,
                "tempo": 120.0
            },
            {
                "start_time": 1.3909090909090909,
                "end_time": 1.5227272727272727,
                "pitch": 36,
                "velocity": 51,
                "duration": 0.13181818181818183,
                "tempo": 120.0
            },
            {
                "start_time": 1.5409090909090908,
                "end_time": 1.6727272727272726,
                "pitch": 48,
                "velocity": 51,
                "duration": 0.13181818181818183,
                "tempo": 120.0
            },
            {
                "start_time": 1.690909090909091,
                "end_time": 1.8227272727272725,
                "pitch": 36,
                "velocity": 51,
                "duration": 0.1318181818181816,
                "tempo": 120.0
            },
            {
                "start_time": 1.8409090909090908,
                "end_time": 1.9727272727272727,
                "pitch": 48,
                "velocity": 51,
                "duration": 0.13181818181818183,
                "tempo": 120.0
            },
            {
                "start_time": 1.9909090909090907,
                "end_time": 2.125,
                "pitch": 36,
                "velocity": 51,
                "duration": 0.13409090909090926,
                "tempo": 120.0
            },
            {
                "start_time": 2.1409090909090907,
                "end_time": 2.2772727272727273,
                "pitch": 48,
                "velocity": 51,
                "duration": 0.1363636363636367,
                "tempo": 120.0
            },
            {
                "start_time": 2.293181818181818,
                "end_time": 2.4272727272727272,
                "pitch": 36,
                "velocity": 51,
                "duration": 0.13409090909090926,
                "tempo": 120.0
            },
            {
                "start_time": 2.4454545454545453,
                "end_time": 2.5795454545454546,
                "pitch": 48,
                "velocity": 51,
                "duration": 0.13409090909090926,
                "tempo": 120.0
            },
            {
                "start_time": 2.5954545454545452,
                "end_time": 2.7318181818181815,
                "pitch": 36,
                "velocity": 51,
                "duration": 0.13636363636363624,
                "tempo": 120.0
            },
            {
                "start_time": 2.7477272727272726,
                "end_time": 2.881818181818182,
                "pitch": 48,
                "velocity": 51,
                "duration": 0.13409090909090926,
                "tempo": 120.0
            },
            {
                "start_time": 2.9,
                "end_time": 3.0340909090909087,
                "pitch": 36,
                "velocity": 51,
                "duration": 0.13409090909090882,
                "tempo": 120.0
            },
            {
                "start_time": 3.05,
                "end_time": 3.186363636363636,
                "pitch": 48,
                "velocity": 51,
                "duration": 0.13636363636363624,
                "tempo": 120.0
            },
            {
                "start_time": 3.202272727272727,
                "end_time": 3.3363636363636364,
                "pitch": 38,
                "velocity": 51,
                "duration": 0.13409090909090926,
                "tempo": 120.0
            },
            {
                "start_time": 3.352272727272727,
                "end_time": 3.4863636363636363,
                "pitch": 50,
                "velocity": 51,
                "duration": 0.13409090909090926,
                "tempo": 120.0
            },
            {
                "start_time": 3.502272727272727,
                "end_time": 3.6363636363636362,
                "pitch": 39,
                "velocity": 51,
                "duration": 0.13409090909090926,
                "tempo": 120.0
            },
            {
                "start_time": 3.652272727272727,
                "end_time": 3.786363636363636,
                "pitch": 51,
                "velocity": 51,
                "duration": 0.13409090909090926,
                "tempo": 120.0
            },
            {
                "start_time": 3.8022727272727272,
                "end_time": 3.936363636363636,
                "pitch": 39,
                "velocity": 51,
                "duration": 0.13409090909090882,
                "tempo": 120.0
            },
            {
                "start_time": 3.954545454545454,
                "end_time": 4.088636363636364,
                "pitch": 51,
                "velocity": 51,
                "duration": 0.1340909090909097,
                "tempo": 120.0
            },
            {
                "start_time": 4.1045454545454545,
                "end_time": 4.24090909090909,
                "pitch": 39,
                "velocity": 51,
                "duration": 0.1363636363636358,
                "tempo": 120.0
            },
            {
                "start_time": 4.256818181818182,
                "end_time": 4.390909090909091,
                "pitch": 51,
                "velocity": 51,
                "duration": 0.13409090909090882,
                "tempo": 120.0
            },
            {
                "start_time": 4.409090909090909,
                "end_time": 4.543181818181818,
                "pitch": 39,
                "velocity": 51,
                "duration": 0.13409090909090882,
                "tempo": 120.0
            },
            {
                "start_time": 4.559090909090909,
                "end_time": 4.695454545454545,
                "pitch": 51,
                "velocity": 51,
                "duration": 0.1363636363636367,
                "tempo": 120.0
            },
            {
                "start_time": 4.711363636363636,
                "end_time": 4.845454545454545,
                "pitch": 39,
                "velocity": 51,
                "duration": 0.13409090909090882,
                "tempo": 120.0
            },
            {
                "start_time": 4.863636363636363,
                "end_time": 4.997727272727272,
                "pitch": 53,
                "velocity": 51,
                "duration": 0.13409090909090882,
                "tempo": 120.0
            },
            {
                "start_time": 5.013636363636364,
                "end_time": 5.1499999999999995,
                "pitch": 39,
                "velocity": 51,
                "duration": 0.1363636363636358,
                "tempo": 120.0
            },
            {
                "start_time": 5.168181818181818,
                "end_time": 5.302272727272727,
                "pitch": 51,
                "velocity": 51,
                "duration": 0.13409090909090882,
                "tempo": 120.0
            },
            {
                "start_time": 5.320454545454545,
                "end_time": 5.456818181818181,
                "pitch": 39,
                "velocity": 51,
                "duration": 0.1363636363636358,
                "tempo": 120.0
            },
            {
                "start_time": 5.472727272727273,
                "end_time": 5.6090909090909085,
                "pitch": 53,
                "velocity": 51,
                "duration": 0.1363636363636358,
                "tempo": 120.0
            },
            {
                "start_time": 5.627272727272727,
                "end_time": 5.761363636363636,
                "pitch": 38,
                "velocity": 51,
                "duration": 0.13409090909090882,
                "tempo": 120.0
            },
            {
                "start_time": 5.777272727272727,
                "end_time": 5.913636363636363,
                "pitch": 27,
                "velocity": 51,
                "duration": 0.1363636363636358,
                "tempo": 120.0
            },
            {
                "start_time": 5.929545454545455,
                "end_time": 6.0636363636363635,
                "pitch": 43,
                "velocity": 51,
                "duration": 0.13409090909090882,
                "tempo": 120.0
            },
            {
                "start_time": 6.081818181818181,
                "end_time": 6.215909090909091,
                "pitch": 55,
                "velocity": 51,
                "duration": 0.1340909090909097,
                "tempo": 120.0
            },
            {
                "start_time": 6.2318181818181815,
                "end_time": 6.363636363636363,
                "pitch": 43,
                "velocity": 51,
                "duration": 0.13181818181818183,
                "tempo": 120.0
            },
            {
                "start_time": 6.381818181818182,
                "end_time": 6.513636363636364,
                "pitch": 53,
                "velocity": 51,
                "duration": 0.13181818181818183,
                "tempo": 120.0
            },
            {
                "start_time": 6.529545454545454,
                "end_time": 6.661363636363636,
                "pitch": 43,
                "velocity": 51,
                "duration": 0.13181818181818183,
                "tempo": 120.0
            },
            {
                "start_time": 6.677272727272727,
                "end_time": 6.809090909090909,
                "pitch": 50,
                "velocity": 51,
                "duration": 0.13181818181818183,
                "tempo": 120.0
            },
            {
                "start_time": 6.827272727272727,
                "end_time": 6.959090909090909,
                "pitch": 43,
                "velocity": 51,
                "duration": 0.13181818181818183,
                "tempo": 120.0
            },
            {
                "start_time": 6.977272727272727,
                "end_time": 7.1090909090909085,
                "pitch": 47,
                "velocity": 51,
                "duration": 0.13181818181818183,
                "tempo": 120.0
            },
            {
                "start_time": 7.127272727272727,
                "end_time": 7.259090909090909,
                "pitch": 43,
                "velocity": 51,
                "duration": 0.13181818181818183,
                "tempo": 120.0
            },
            {
                "start_time": 7.277272727272727,
                "end_time": 7.409090909090909,
                "pitch": 55,
                "velocity": 51,
                "duration": 0.13181818181818183,
                "tempo": 120.0
            },
            {
                "start_time": 7.427272727272727,
                "end_time": 7.561363636363636,
                "pitch": 43,
                "velocity": 51,
                "duration": 0.13409090909090882,
                "tempo": 120.0
            },
            {
                "start_time": 7.577272727272727,
                "end_time": 7.713636363636363,
                "pitch": 53,
                "velocity": 51,
                "duration": 0.1363636363636358,
                "tempo": 120.0
            },
            {
                "start_time": 7.7295454545454545,
                "end_time": 7.863636363636363,
                "pitch": 43,
                "velocity": 51,
                "duration": 0.13409090909090882,
                "tempo": 120.0
            },
            {
                "start_time": 7.881818181818182,
                "end_time": 8.01590909090909,
                "pitch": 55,
                "velocity": 51,
                "duration": 0.13409090909090882,
                "tempo": 120.0
            },
            {
                "start_time": 8.031818181818181,
                "end_time": 8.165909090909091,
                "pitch": 43,
                "velocity": 51,
                "duration": 0.1340909090909097,
                "tempo": 120.0
            },
            {
                "start_time": 8.181818181818182,
                "end_time": 8.315909090909091,
                "pitch": 53,
                "velocity": 51,
                "duration": 0.1340909090909097,
                "tempo": 120.0
            },
            {
                "start_time": 8.331818181818182,
                "end_time": 8.46590909090909,
                "pitch": 41,
                "velocity": 51,
                "duration": 0.13409090909090793,
                "tempo": 120.0
            },
            {
                "start_time": 8.48181818181818,
                "end_time": 8.61590909090909,
                "pitch": 53,
                "velocity": 51,
                "duration": 0.1340909090909097,
                "tempo": 120.0
            },
            {
                "start_time": 8.631818181818181,
                "end_time": 8.76590909090909,
                "pitch": 41,
                "velocity": 51,
                "duration": 0.1340909090909097,
                "tempo": 120.0
            },
            {
                "start_time": 8.781818181818181,
                "end_time": 8.915909090909091,
                "pitch": 50,
                "velocity": 51,
                "duration": 0.1340909090909097,
                "tempo": 120.0
            },
            {
                "start_time": 8.931818181818182,
                "end_time": 9.06590909090909,
                "pitch": 41,
                "velocity": 51,
                "duration": 0.13409090909090793,
                "tempo": 120.0
            },
            {
                "start_time": 9.081818181818182,
                "end_time": 9.21590909090909,
                "pitch": 48,
                "velocity": 51,
                "duration": 0.13409090909090793,
                "tempo": 120.0
            },
            {
                "start_time": 9.23181818181818,
                "end_time": 9.36590909090909,
                "pitch": 41,
                "velocity": 51,
                "duration": 0.1340909090909097,
                "tempo": 120.0
            },
            {
                "start_time": 9.381818181818181,
                "end_time": 9.51590909090909,
                "pitch": 45,
                "velocity": 51,
                "duration": 0.1340909090909097,
                "tempo": 120.0
            },
            {
                "start_time": 9.531818181818181,
                "end_time": 9.665909090909091,
                "pitch": 41,
                "velocity": 51,
                "duration": 0.1340909090909097,
                "tempo": 120.0
            },
            {
                "start_time": 9.681818181818182,
                "end_time": 9.81590909090909,
                "pitch": 53,
                "velocity": 51,
                "duration": 0.13409090909090793,
                "tempo": 120.0
            },
            {
                "start_time": 9.831818181818182,
                "end_time": 9.968181818181817,
                "pitch": 41,
                "velocity": 51,
                "duration": 0.1363636363636349,
                "tempo": 120.0
            },
            {
                "start_time": 9.98409090909091,
                "end_time": 10.118181818181817,
                "pitch": 57,
                "velocity": 51,
                "duration": 0.13409090909090793,
                "tempo": 120.0
            },
            {
                "start_time": 10.136363636363637,
                "end_time": 10.270454545454545,
                "pitch": 41,
                "velocity": 51,
                "duration": 0.13409090909090793,
                "tempo": 120.0
            },
            {
                "start_time": 10.286363636363635,
                "end_time": 10.422727272727272,
                "pitch": 53,
                "velocity": 51,
                "duration": 0.1363636363636367,
                "tempo": 120.0
            },
            {
                "start_time": 10.438636363636363,
                "end_time": 10.572727272727272,
                "pitch": 41,
                "velocity": 51,
                "duration": 0.1340909090909097,
                "tempo": 120.0
            },
            {
                "start_time": 10.588636363636363,
                "end_time": 10.722727272727273,
                "pitch": 57,
                "velocity": 51,
                "duration": 0.1340909090909097,
                "tempo": 120.0
            },
            {
                "start_time": 10.738636363636363,
                "end_time": 10.872727272727273,
                "pitch": 43,
                "velocity": 51,
                "duration": 0.1340909090909097,
                "tempo": 120.0
            },
            {
                "start_time": 10.888636363636364,
                "end_time": 11.022727272727272,
                "pitch": 55,
                "velocity": 51,
                "duration": 0.13409090909090793,
                "tempo": 120.0
            },
            {
                "start_time": 11.038636363636362,
                "end_time": 11.172727272727272,
                "pitch": 43,
                "velocity": 51,
                "duration": 0.1340909090909097,
                "tempo": 120.0
            },
            {
                "start_time": 11.188636363636363,
                "end_time": 11.322727272727272,
                "pitch": 53,
                "velocity": 51,
                "duration": 0.1340909090909097,
                "tempo": 120.0
            },
            {
                "start_time": 11.338636363636363,
                "end_time": 11.472727272727273,
                "pitch": 43,
                "velocity": 51,
                "duration": 0.1340909090909097,
                "tempo": 120.0
            },
            {
                "start_time": 11.488636363636363,
                "end_time": 11.622727272727273,
                "pitch": 50,
                "velocity": 51,
                "duration": 0.1340909090909097,
                "tempo": 120.0
            },
            {
                "start_time": 11.638636363636364,
                "end_time": 11.772727272727272,
                "pitch": 43,
                "velocity": 51,
                "duration": 0.13409090909090793,
                "tempo": 120.0
            },
            {
                "start_time": 11.788636363636362,
                "end_time": 11.922727272727272,
                "pitch": 47,
                "velocity": 51,
                "duration": 0.1340909090909097,
                "tempo": 120.0
            },
            {
                "start_time": 11.938636363636363,
                "end_time": 12.072727272727272,
                "pitch": 43,
                "velocity": 51,
                "duration": 0.1340909090909097,
                "tempo": 120.0
            },
            {
                "start_time": 12.088636363636363,
                "end_time": 12.222727272727273,
                "pitch": 55,
                "velocity": 51,
                "duration": 0.1340909090909097,
                "tempo": 120.0
            },
            {
                "start_time": 12.238636363636363,
                "end_time": 12.372727272727271,
                "pitch": 43,
                "velocity": 51,
                "duration": 0.13409090909090793,
                "tempo": 120.0
            },
            {
                "start_time": 12.388636363636364,
                "end_time": 12.522727272727272,
                "pitch": 53,
                "velocity": 51,
                "duration": 0.13409090909090793,
                "tempo": 120.0
            },
            {
                "start_time": 12.538636363636362,
                "end_time": 12.672727272727272,
                "pitch": 43,
                "velocity": 51,
                "duration": 0.1340909090909097,
                "tempo": 120.0
            },
            {
                "start_time": 12.688636363636363,
                "end_time": 12.822727272727272,
                "pitch": 55,
                "velocity": 51,
                "duration": 0.1340909090909097,
                "tempo": 120.0
            },
            {
                "start_time": 12.838636363636363,
                "end_time": 12.972727272727273,
                "pitch": 43,
                "velocity": 51,
                "duration": 0.1340909090909097,
                "tempo": 120.0
            },
            {
                "start_time": 12.99090909090909,
                "end_time": 13.125,
                "pitch": 53,
                "velocity": 51,
                "duration": 0.1340909090909097,
                "tempo": 120.0
            },
            {
                "start_time": 13.14090909090909,
                "end_time": 13.277272727272727,
                "pitch": 41,
                "velocity": 51,
                "duration": 0.1363636363636367,
                "tempo": 120.0
            },
            {
                "start_time": 13.293181818181818,
                "end_time": 13.327272727272726,
                "pitch": 41,
                "velocity": 51,
                "duration": 0.034090909090908283,
                "tempo": 120.0
            },
            {
                "start_time": 13.895454545454545,
                "end_time": 14.027272727272727,
                "pitch": 41,
                "velocity": 51,
                "duration": 0.13181818181818272,
                "tempo": 120.0
            },
            {
                "start_time": 14.045454545454545,
                "end_time": 14.334090909090909,
                "pitch": 41,
                "velocity": 51,
                "duration": 0.288636363636364,
                "tempo": 120.0
            },
            {
                "start_time": 14.35,
                "end_time": 14.64090909090909,
                "pitch": 43,
                "velocity": 51,
                "duration": 0.290909090909091,
                "tempo": 120.0
            },
            {
                "start_time": 14.656818181818181,
                "end_time": 14.936363636363636,
                "pitch": 43,
                "velocity": 51,
                "duration": 0.2795454545454543,
                "tempo": 120.0
            },
            {
                "start_time": 14.954545454545453,
                "end_time": 15.234090909090908,
                "pitch": 43,
                "velocity": 51,
                "duration": 0.2795454545454543,
                "tempo": 120.0
            },
            {
                "start_time": 15.25,
                "end_time": 15.538636363636362,
                "pitch": 43,
                "velocity": 51,
                "duration": 0.28863636363636225,
                "tempo": 120.0
            },
            {
                "start_time": 15.556818181818182,
                "end_time": 15.693181818181817,
                "pitch": 36,
                "velocity": 51,
                "duration": 0.1363636363636349,
                "tempo": 120.0
            },
            {
                "start_time": 15.709090909090909,
                "end_time": 15.845454545454544,
                "pitch": 48,
                "velocity": 51,
                "duration": 0.1363636363636349,
                "tempo": 120.0
            },
            {
                "start_time": 15.863636363636363,
                "end_time": 15.995454545454544,
                "pitch": 36,
                "velocity": 51,
                "duration": 0.13181818181818095,
                "tempo": 120.0
            },
            {
                "start_time": 16.011363636363637,
                "end_time": 16.111363636363635,
                "pitch": 48,
                "velocity": 51,
                "duration": 0.09999999999999787,
                "tempo": 120.0
            }
        ],
        "Flute": [
            {
                "start_time": 0.05454545454545454,
                "end_time": 0.2727272727272727,
                "pitch": 63,
                "velocity": 51,
                "duration": 0.21818181818181817,
                "tempo": 120.0
            },
            {
                "start_time": 0.2727272727272727,
                "end_time": 0.5727272727272728,
                "pitch": 65,
                "velocity": 51,
                "duration": 0.30000000000000004,
                "tempo": 120.0
            },
            {
                "start_time": 0.5727272727272728,
                "end_time": 0.7568181818181818,
                "pitch": 67,
                "velocity": 51,
                "duration": 0.18409090909090908,
                "tempo": 120.0
            },
            {
                "start_time": 0.7568181818181818,
                "end_time": 0.9568181818181818,
                "pitch": 69,
                "velocity": 51,
                "duration": 0.19999999999999996,
                "tempo": 120.0
            }
        ],
        "Acoustic Grand Piano": [
            {
                "start_time": 0.05454545454545454,
                "end_time": 0.2727272727272727,
                "pitch": 63,
                "velocity": 25,
                "duration": 0.21818181818181817,
                "tempo": 120.0
            },
            {
                "start_time": 0.2727272727272727,
                "end_time": 0.5727272727272728,
                "pitch": 65,
                "velocity": 25,
                "duration": 0.30000000000000004,
                "tempo": 120.0
            },
            {
                "start_time": 0.5727272727272728,
                "end_time": 0.7568181818181818,
                "pitch": 67,
                "velocity": 25,
                "duration": 0.18409090909090908,
                "tempo": 120.0
            },
            {
                "start_time": 0.7568181818181818,
                "end_time": 0.9568181818181818,
                "pitch": 69,
                "velocity": 25,
                "duration": 0.19999999999999996,
                "tempo": 120.0
            }
        ]
    }
}