{
    "track_id": "BMX Trial - Alex Kidd - 02 - South Seas _ Pyramid River",
    "mood": "happy",
    "instruments": {
        "Clarinet": [
            {
                "start_time": 0.011363636363636364,
                "end_time": 0.07727272727272727,
                "pitch": 84,
                "velocity": 101,
                "duration": 0.0659090909090909,
                "tempo": 120.0
            },
            {
                "start_time": 0.3409090909090909,
                "end_time": 0.47727272727272724,
                "pitch": 84,
                "velocity": 101,
                "duration": 0.13636363636363635,
                "tempo": 120.0
            },
            {
                "start_time": 0.49318181818181817,
                "end_time": 0.7795454545454545,
                "pitch": 84,
                "velocity": 101,
                "duration": 0.2863636363636364,
                "tempo": 120.0
            },
            {
                "start_time": 0.7954545454545454,
                "end_time": 1.0795454545454546,
                "pitch": 82,
                "velocity": 101,
                "duration": 0.28409090909090917,
                "tempo": 120.0
            },
            {
                "start_time": 1.0954545454545455,
                "end_time": 1.2295454545454545,
                "pitch": 81,
                "velocity": 101,
                "duration": 0.13409090909090904,
                "tempo": 120.0
            },
            {
                "start_time": 1.5454545454545454,
                "end_time": 1.6795454545454545,
                "pitch": 81,
                "velocity": 101,
                "duration": 0.13409090909090904,
                "tempo": 120.0
            },
            {
                "start_time": 1.6954545454545453,
                "end_time": 1.9795454545454545,
                "pitch": 81,
                "velocity": 101,
                "duration": 0.28409090909090917,
                "tempo": 120.0
            },
            {
                "start_time": 1.9954545454545454,
                "end_time": 2.284090909090909,
                "pitch": 82,
                "velocity": 101,
                "duration": 0.2886363636363638,
                "tempo": 120.0
            },
            {
                "start_time": 2.3022727272727272,
                "end_time": 2.4386363636363635,
                "pitch": 84,
                "velocity": 101,
                "duration": 0.13636363636363624,
                "tempo": 120.0
            },
            {
                "start_time": 2.756818181818182,
                "end_time": 2.8886363636363637,
                "pitch": 84,
                "velocity": 101,
                "duration": 0.13181818181818183,
                "tempo": 120.0
            },
            {
                "start_time": 2.9045454545454543,
                "end_time": 3.186363636363636,
                "pitch": 84,
                "velocity": 101,
                "duration": 0.28181818181818175,
                "tempo": 120.0
            },
            {
                "start_time": 3.202272727272727,
                "end_time": 3.4863636363636363,
                "pitch": 82,
                "velocity": 101,
                "duration": 0.28409090909090917,
                "tempo": 120.0
            },
            {
                "start_time": 3.502272727272727,
                "end_time": 4.390909090909091,
                "pitch": 81,
                "velocity": 101,
                "duration": 0.8886363636363637,
                "tempo": 120.0
            },
            {
                "start_time": 4.409090909090909,
                "end_time": 4.697727272727272,
                "pitch": 81,
                "velocity": 101,
                "duration": 0.28863636363636314,
                "tempo": 120.0
            },
            {
                "start_time": 4.713636363636364,
                "end_time": 4.85,
                "pitch": 84,
                "velocity": 101,
                "duration": 0.1363636363636358,
                "tempo": 120.0
            },
            {
                "start_time": 5.168181818181818,
                "end_time": 5.3,
                "pitch": 84,
                "velocity": 101,
                "duration": 0.13181818181818183,
                "tempo": 120.0
            },
            {
                "start_time": 5.318181818181818,
                "end_time": 5.597727272727273,
                "pitch": 84,
                "velocity": 101,
                "duration": 0.2795454545454543,
                "tempo": 120.0
            },
            {
                "start_time": 5.613636363636363,
                "end_time": 5.8977272727272725,
                "pitch": 82,
                "velocity": 101,
                "duration": 0.28409090909090917,
                "tempo": 120.0
            },
            {
                "start_time": 5.913636363636363,
                "end_time": 6.047727272727273,
                "pitch": 81,
                "velocity": 101,
                "duration": 0.1340909090909097,
                "tempo": 120.0
            },
            {
                "start_time": 6.36590909090909,
                "end_time": 6.5,
                "pitch": 81,
                "velocity": 101,
                "duration": 0.1340909090909097,
                "tempo": 120.0
            },
            {
                "start_time": 6.518181818181818,
                "end_time": 6.804545454545454,
                "pitch": 81,
                "velocity": 101,
                "duration": 0.28636363636363615,
                "tempo": 120.0
            },
            {
                "start_time": 6.820454545454545,
                "end_time": 7.1090909090909085,
                "pitch": 82,
                "velocity": 101,
                "duration": 0.28863636363636314,
                "tempo": 120.0
            },
            {
                "start_time": 7.127272727272727,
                "end_time": 7.263636363636364,
                "pitch": 84,
                "velocity": 101,
                "duration": 0.1363636363636367,
                "tempo": 120.0
            },
            {
                "start_time": 7.581818181818181,
                "end_time": 7.713636363636363,
                "pitch": 84,
                "velocity": 101,
                "duration": 0.13181818181818183,
                "tempo": 120.0
            },
            {
                "start_time": 7.7295454545454545,
                "end_time": 8.009090909090908,
                "pitch": 84,
                "velocity": 101,
                "duration": 0.27954545454545343,
                "tempo": 120.0
            },
            {
                "start_time": 8.027272727272727,
                "end_time": 8.309090909090909,
                "pitch": 89,
                "velocity": 101,
                "duration": 0.2818181818181813,
                "tempo": 120.0
            },
            {
                "start_time": 8.327272727272726,
                "end_time": 9.209090909090909,
                "pitch": 86,
                "velocity": 101,
                "duration": 0.8818181818181827,
                "tempo": 120.0
            },
            {
                "start_time": 9.227272727272727,
                "end_time": 9.51590909090909,
                "pitch": 87,
                "velocity": 101,
                "duration": 0.288636363636364,
                "tempo": 120.0
            },
            {
                "start_time": 9.531818181818181,
                "end_time": 9.668181818181818,
                "pitch": 89,
                "velocity": 101,
                "duration": 0.1363636363636367,
                "tempo": 120.0
            },
            {
                "start_time": 9.986363636363636,
                "end_time": 10.118181818181817,
                "pitch": 89,
                "velocity": 101,
                "duration": 0.13181818181818095,
                "tempo": 120.0
            },
            {
                "start_time": 10.136363636363637,
                "end_time": 10.415909090909091,
                "pitch": 89,
                "velocity": 101,
                "duration": 0.2795454545454543,
                "tempo": 120.0
            },
            {
                "start_time": 10.431818181818182,
                "end_time": 10.71590909090909,
                "pitch": 87,
                "velocity": 101,
                "duration": 0.2840909090909083,
                "tempo": 120.0
            },
            {
                "start_time": 10.73181818181818,
                "end_time": 10.86590909090909,
                "pitch": 86,
                "velocity": 101,
                "duration": 0.1340909090909097,
                "tempo": 120.0
            },
            {
                "start_time": 11.181818181818182,
                "end_time": 11.31590909090909,
                "pitch": 86,
                "velocity": 101,
                "duration": 0.13409090909090793,
                "tempo": 120.0
            },
            {
                "start_time": 11.331818181818182,
                "end_time": 11.61590909090909,
                "pitch": 86,
                "velocity": 101,
                "duration": 0.2840909090909083,
                "tempo": 120.0
            },
            {
                "start_time": 11.631818181818181,
                "end_time": 11.922727272727272,
                "pitch": 87,
                "velocity": 101,
                "duration": 0.290909090909091,
                "tempo": 120.0
            },
            {
                "start_time": 11.938636363636363,
                "end_time": 12.075,
                "pitch": 89,
                "velocity": 101,
                "duration": 0.1363636363636367,
                "tempo": 120.0
            },
            {
                "start_time": 12.393181818181818,
                "end_time": 12.524999999999999,
                "pitch": 89,
                "velocity": 101,
                "duration": 0.13181818181818095,
                "tempo": 120.0
            },
            {
                "start_time": 12.540909090909091,
                "end_time": 12.822727272727272,
                "pitch": 89,
                "velocity": 101,
                "duration": 0.2818181818181813,
                "tempo": 120.0
            },
            {
                "start_time": 12.838636363636363,
                "end_time": 13.125,
                "pitch": 87,
                "velocity": 101,
                "duration": 0.28636363636363704,
                "tempo": 120.0
            },
            {
                "start_time": 13.14090909090909,
                "end_time": 13.877272727272727,
                "pitch": 86,
                "velocity": 101,
                "duration": 0.7363636363636363,
                "tempo": 120.0
            },
            {
                "start_time": 13.895454545454545,
                "end_time": 14.177272727272726,
                "pitch": 86,
                "velocity": 101,
                "duration": 0.2818181818181813,
                "tempo": 120.0
            },
            {
                "start_time": 14.195454545454545,
                "end_time": 14.327272727272726,
                "pitch": 86,
                "velocity": 101,
                "duration": 0.13181818181818095,
                "tempo": 120.0
            },
            {
                "start_time": 14.345454545454544,
                "end_time": 14.477272727272727,
                "pitch": 84,
                "velocity": 101,
                "duration": 0.13181818181818272,
                "tempo": 120.0
            },
            {
                "start_time": 14.795454545454545,
                "end_time": 14.927272727272726,
                "pitch": 84,
                "velocity": 101,
                "duration": 0.13181818181818095,
                "tempo": 120.0
            },
            {
                "start_time": 14.945454545454545,
                "end_time": 15.227272727272727,
                "pitch": 84,
                "velocity": 101,
                "duration": 0.2818181818181813,
                "tempo": 120.0
            },
            {
                "start_time": 15.245454545454544,
                "end_time": 15.527272727272727,
                "pitch": 82,
                "velocity": 101,
                "duration": 0.2818181818181831,
                "tempo": 120.0
            },
            {
                "start_time": 15.545454545454545,
                "end_time": 15.677272727272726,
                "pitch": 81,
                "velocity": 101,
                "duration": 0.13181818181818095,
                "tempo": 120.0
            },
            {
                "start_time": 15.995454545454544,
                "end_time": 16.131818181818183,
                "pitch": 81,
                "velocity": 101,
                "duration": 0.13636363636363846,
                "tempo": 120.0
            },
            {
                "start_time": 16.147727272727273,
                "end_time": 16.43409090909091,
                "pitch": 81,
                "velocity": 101,
                "duration": 0.28636363636363527,
                "tempo": 120.0
            },
            {
                "start_time": 16.45,
                "end_time": 16.74090909090909,
                "pitch": 82,
                "velocity": 101,
                "duration": 0.29090909090908923,
                "tempo": 120.0
            },
            {
                "start_time": 16.756818181818183,
                "end_time": 16.893181818181816,
                "pitch": 84,
                "velocity": 101,
                "duration": 0.13636363636363313,
                "tempo": 120.0
            },
            {
                "start_time": 17.211363636363636,
                "end_time": 17.34318181818182,
                "pitch": 84,
                "velocity": 101,
                "duration": 0.13181818181818272,
                "tempo": 120.0
            },
            {
                "start_time": 17.35909090909091,
                "end_time": 17.64090909090909,
                "pitch": 84,
                "velocity": 101,
                "duration": 0.2818181818181813,
                "tempo": 120.0
            },
            {
                "start_time": 17.65681818181818,
                "end_time": 17.945454545454545,
                "pitch": 82,
                "velocity": 101,
                "duration": 0.288636363636364,
                "tempo": 120.0
            },
            {
                "start_time": 17.96363636363636,
                "end_time": 18.69772727272727,
                "pitch": 81,
                "velocity": 101,
                "duration": 0.7340909090909093,
                "tempo": 120.0
            },
            {
                "start_time": 18.71363636363636,
                "end_time": 18.74772727272727,
                "pitch": 89,
                "velocity": 101,
                "duration": 0.03409090909091006,
                "tempo": 120.0
            },
            {
                "start_time": 38.48181818181818,
                "end_time": 38.61590909090909,
                "pitch": 84,
                "velocity": 101,
                "duration": 0.13409090909091503,
                "tempo": 120.0
            },
            {
                "start_time": 38.934090909090905,
                "end_time": 39.06590909090909,
                "pitch": 84,
                "velocity": 101,
                "duration": 0.13181818181818272,
                "tempo": 120.0
            },
            {
                "start_time": 39.08181818181818,
                "end_time": 39.13181818181818,
                "pitch": 84,
                "velocity": 101,
                "duration": 0.05000000000000426,
                "tempo": 120.0
            }
        ],
        "Trumpet": [
            {
                "start_time": 19.474999999999998,
                "end_time": 19.759090909090908,
                "pitch": 84,
                "velocity": 51,
                "duration": 0.28409090909091006,
                "tempo": 120.0
            },
            {
                "start_time": 19.775,
                "end_time": 20.05909090909091,
                "pitch": 82,
                "velocity": 51,
                "duration": 0.28409090909091006,
                "tempo": 120.0
            },
            {
                "start_time": 20.075,
                "end_time": 20.209090909090907,
                "pitch": 84,
                "velocity": 51,
                "duration": 0.13409090909090793,
                "tempo": 120.0
            },
            {
                "start_time": 20.227272727272727,
                "end_time": 21.111363636363635,
                "pitch": 86,
                "velocity": 51,
                "duration": 0.8840909090909079,
                "tempo": 120.0
            },
            {
                "start_time": 21.127272727272725,
                "end_time": 21.177272727272726,
                "pitch": 86,
                "velocity": 51,
                "duration": 0.05000000000000071,
                "tempo": 120.0
            },
            {
                "start_time": 21.581818181818182,
                "end_time": 21.870454545454546,
                "pitch": 86,
                "velocity": 51,
                "duration": 0.288636363636364,
                "tempo": 120.0
            },
            {
                "start_time": 21.886363636363637,
                "end_time": 22.172727272727272,
                "pitch": 84,
                "velocity": 51,
                "duration": 0.28636363636363527,
                "tempo": 120.0
            },
            {
                "start_time": 22.19090909090909,
                "end_time": 22.477272727272727,
                "pitch": 82,
                "velocity": 51,
                "duration": 0.28636363636363527,
                "tempo": 120.0
            },
            {
                "start_time": 22.493181818181817,
                "end_time": 22.627272727272725,
                "pitch": 84,
                "velocity": 51,
                "duration": 0.13409090909090793,
                "tempo": 120.0
            },
            {
                "start_time": 22.643181818181816,
                "end_time": 23.670454545454543,
                "pitch": 81,
                "velocity": 51,
                "duration": 1.0272727272727273,
                "tempo": 120.0
            },
            {
                "start_time": 23.688636363636363,
                "end_time": 23.977272727272727,
                "pitch": 84,
                "velocity": 51,
                "duration": 0.288636363636364,
                "tempo": 120.0
            },
            {
                "start_time": 23.993181818181817,
                "end_time": 24.28181818181818,
                "pitch": 84,
                "velocity": 51,
                "duration": 0.288636363636364,
                "tempo": 120.0
            },
            {
                "start_time": 24.299999999999997,
                "end_time": 24.584090909090907,
                "pitch": 82,
                "velocity": 51,
                "duration": 0.28409090909091006,
                "tempo": 120.0
            },
            {
                "start_time": 24.599999999999998,
                "end_time": 24.884090909090908,
                "pitch": 81,
                "velocity": 51,
                "duration": 0.28409090909091006,
                "tempo": 120.0
            },
            {
                "start_time": 24.9,
                "end_time": 25.034090909090907,
                "pitch": 82,
                "velocity": 51,
                "duration": 0.13409090909090793,
                "tempo": 120.0
            },
            {
                "start_time": 25.052272727272726,
                "end_time": 26.084090909090907,
                "pitch": 84,
                "velocity": 51,
                "duration": 1.0318181818181813,
                "tempo": 120.0
            },
            {
                "start_time": 26.099999999999998,
                "end_time": 26.384090909090908,
                "pitch": 86,
                "velocity": 51,
                "duration": 0.28409090909091006,
                "tempo": 120.0
            },
            {
                "start_time": 26.4,
                "end_time": 27.295454545454543,
                "pitch": 86,
                "velocity": 51,
                "duration": 0.8954545454545446,
                "tempo": 120.0
            },
            {
                "start_time": 27.311363636363634,
                "end_time": 27.445454545454545,
                "pitch": 87,
                "velocity": 51,
                "duration": 0.13409090909091148,
                "tempo": 120.0
            },
            {
                "start_time": 27.461363636363636,
                "end_time": 27.595454545454544,
                "pitch": 86,
                "velocity": 51,
                "duration": 0.13409090909090793,
                "tempo": 120.0
            }
        ],
        "Acoustic Bass": [
            {
                "start_time": 0.011363636363636364,
                "end_time": 0.07727272727272727,
                "pitch": 41,
                "velocity": 51,
                "duration": 0.0659090909090909,
                "tempo": 120.0
            },
            {
                "start_time": 0.3409090909090909,
                "end_time": 0.47727272727272724,
                "pitch": 41,
                "velocity": 51,
                "duration": 0.13636363636363635,
                "tempo": 120.0
            },
            {
                "start_time": 0.49318181818181817,
                "end_time": 0.6272727272727272,
                "pitch": 41,
                "velocity": 51,
                "duration": 0.13409090909090904,
                "tempo": 120.0
            },
            {
                "start_time": 0.6454545454545454,
                "end_time": 0.9295454545454545,
                "pitch": 39,
                "velocity": 51,
                "duration": 0.28409090909090906,
                "tempo": 120.0
            },
            {
                "start_time": 0.9454545454545454,
                "end_time": 1.0795454545454546,
                "pitch": 36,
                "velocity": 51,
                "duration": 0.13409090909090915,
                "tempo": 120.0
            },
            {
                "start_time": 1.0954545454545455,
                "end_time": 1.3795454545454544,
                "pitch": 41,
                "velocity": 51,
                "duration": 0.28409090909090895,
                "tempo": 120.0
            },
            {
                "start_time": 1.3954545454545453,
                "end_time": 1.6795454545454545,
                "pitch": 39,
                "velocity": 51,
                "duration": 0.28409090909090917,
                "tempo": 120.0
            },
            {
                "start_time": 1.6954545454545453,
                "end_time": 1.9795454545454545,
                "pitch": 36,
                "velocity": 51,
                "duration": 0.28409090909090917,
                "tempo": 120.0
            },
            {
                "start_time": 1.9954545454545454,
                "end_time": 2.284090909090909,
                "pitch": 39,
                "velocity": 51,
                "duration": 0.2886363636363638,
                "tempo": 120.0
            },
            {
                "start_time": 2.3022727272727272,
                "end_time": 2.4386363636363635,
                "pitch": 41,
                "velocity": 51,
                "duration": 0.13636363636363624,
                "tempo": 120.0
            },
            {
                "start_time": 2.756818181818182,
                "end_time": 2.8886363636363637,
                "pitch": 41,
                "velocity": 51,
                "duration": 0.13181818181818183,
                "tempo": 120.0
            },
            {
                "start_time": 2.9045454545454543,
                "end_time": 3.036363636363636,
                "pitch": 41,
                "velocity": 51,
                "duration": 0.13181818181818183,
                "tempo": 120.0
            },
            {
                "start_time": 3.0545454545454542,
                "end_time": 3.3363636363636364,
                "pitch": 39,
                "velocity": 51,
                "duration": 0.2818181818181822,
                "tempo": 120.0
            },
            {
                "start_time": 3.352272727272727,
                "end_time": 3.4863636363636363,
                "pitch": 36,
                "velocity": 51,
                "duration": 0.13409090909090926,
                "tempo": 120.0
            },
            {
                "start_time": 3.502272727272727,
                "end_time": 3.786363636363636,
                "pitch": 41,
                "velocity": 51,
                "duration": 0.28409090909090917,
                "tempo": 120.0
            },
            {
                "start_time": 3.8022727272727272,
                "end_time": 4.088636363636364,
                "pitch": 39,
                "velocity": 51,
                "duration": 0.2863636363636366,
                "tempo": 120.0
            },
            {
                "start_time": 4.1045454545454545,
                "end_time": 4.390909090909091,
                "pitch": 41,
                "velocity": 51,
                "duration": 0.28636363636363615,
                "tempo": 120.0
            },
            {
                "start_time": 4.409090909090909,
                "end_time": 4.697727272727272,
                "pitch": 44,
                "velocity": 51,
                "duration": 0.28863636363636314,
                "tempo": 120.0
            },
            {
                "start_time": 4.713636363636364,
                "end_time": 4.85,
                "pitch": 41,
                "velocity": 51,
                "duration": 0.1363636363636358,
                "tempo": 120.0
            },
            {
                "start_time": 5.168181818181818,
                "end_time": 5.3,
                "pitch": 41,
                "velocity": 51,
                "duration": 0.13181818181818183,
                "tempo": 120.0
            },
            {
                "start_time": 5.318181818181818,
                "end_time": 5.45,
                "pitch": 41,
                "velocity": 51,
                "duration": 0.13181818181818183,
                "tempo": 120.0
            },
            {
                "start_time": 5.465909090909091,
                "end_time": 5.747727272727272,
                "pitch": 39,
                "velocity": 51,
                "duration": 0.2818181818181813,
                "tempo": 120.0
            },
            {
                "start_time": 5.763636363636364,
                "end_time": 5.8977272727272725,
                "pitch": 36,
                "velocity": 51,
                "duration": 0.13409090909090882,
                "tempo": 120.0
            },
            {
                "start_time": 5.913636363636363,
                "end_time": 6.197727272727272,
                "pitch": 41,
                "velocity": 51,
                "duration": 0.28409090909090917,
                "tempo": 120.0
            },
            {
                "start_time": 6.213636363636363,
                "end_time": 6.5,
                "pitch": 39,
                "velocity": 51,
                "duration": 0.28636363636363704,
                "tempo": 120.0
            },
            {
                "start_time": 6.518181818181818,
                "end_time": 6.804545454545454,
                "pitch": 36,
                "velocity": 51,
                "duration": 0.28636363636363615,
                "tempo": 120.0
            },
            {
                "start_time": 6.820454545454545,
                "end_time": 7.1090909090909085,
                "pitch": 39,
                "velocity": 51,
                "duration": 0.28863636363636314,
                "tempo": 120.0
            },
            {
                "start_time": 7.127272727272727,
                "end_time": 7.263636363636364,
                "pitch": 41,
                "velocity": 51,
                "duration": 0.1363636363636367,
                "tempo": 120.0
            },
            {
                "start_time": 7.581818181818181,
                "end_time": 7.713636363636363,
                "pitch": 41,
                "velocity": 51,
                "duration": 0.13181818181818183,
                "tempo": 120.0
            },
            {
                "start_time": 7.7295454545454545,
                "end_time": 8.009090909090908,
                "pitch": 41,
                "velocity": 51,
                "duration": 0.27954545454545343,
                "tempo": 120.0
            },
            {
                "start_time": 8.027272727272727,
                "end_time": 8.309090909090909,
                "pitch": 39,
                "velocity": 51,
                "duration": 0.2818181818181813,
                "tempo": 120.0
            },
            {
                "start_time": 8.327272727272726,
                "end_time": 8.759090909090908,
                "pitch": 41,
                "velocity": 51,
                "duration": 0.43181818181818166,
                "tempo": 120.0
            },
            {
                "start_time": 8.777272727272727,
                "end_time": 9.059090909090909,
                "pitch": 41,
                "velocity": 51,
                "duration": 0.2818181818181813,
                "tempo": 120.0
            },
            {
                "start_time": 9.077272727272726,
                "end_time": 9.209090909090909,
                "pitch": 41,
                "velocity": 51,
                "duration": 0.13181818181818272,
                "tempo": 120.0
            },
            {
                "start_time": 9.227272727272727,
                "end_time": 9.363636363636363,
                "pitch": 43,
                "velocity": 51,
                "duration": 0.1363636363636367,
                "tempo": 120.0
            },
            {
                "start_time": 9.379545454545454,
                "end_time": 9.51590909090909,
                "pitch": 44,
                "velocity": 51,
                "duration": 0.1363636363636367,
                "tempo": 120.0
            },
            {
                "start_time": 9.531818181818181,
                "end_time": 9.668181818181818,
                "pitch": 46,
                "velocity": 51,
                "duration": 0.1363636363636367,
                "tempo": 120.0
            },
            {
                "start_time": 9.986363636363636,
                "end_time": 10.268181818181818,
                "pitch": 46,
                "velocity": 51,
                "duration": 0.2818181818181813,
                "tempo": 120.0
            },
            {
                "start_time": 10.284090909090908,
                "end_time": 10.56590909090909,
                "pitch": 44,
                "velocity": 51,
                "duration": 0.2818181818181813,
                "tempo": 120.0
            },
            {
                "start_time": 10.581818181818182,
                "end_time": 10.71590909090909,
                "pitch": 41,
                "velocity": 51,
                "duration": 0.13409090909090793,
                "tempo": 120.0
            },
            {
                "start_time": 10.73181818181818,
                "end_time": 11.01590909090909,
                "pitch": 46,
                "velocity": 51,
                "duration": 0.28409090909091006,
                "tempo": 120.0
            },
            {
                "start_time": 11.031818181818181,
                "end_time": 11.31590909090909,
                "pitch": 44,
                "velocity": 51,
                "duration": 0.2840909090909083,
                "tempo": 120.0
            },
            {
                "start_time": 11.331818181818182,
                "end_time": 11.61590909090909,
                "pitch": 41,
                "velocity": 51,
                "duration": 0.2840909090909083,
                "tempo": 120.0
            },
            {
                "start_time": 11.631818181818181,
                "end_time": 11.922727272727272,
                "pitch": 44,
                "velocity": 51,
                "duration": 0.290909090909091,
                "tempo": 120.0
            },
            {
                "start_time": 11.938636363636363,
                "end_time": 12.075,
                "pitch": 46,
                "velocity": 51,
                "duration": 0.1363636363636367,
                "tempo": 120.0
            },
            {
                "start_time": 12.393181818181818,
                "end_time": 12.524999999999999,
                "pitch": 46,
                "velocity": 51,
                "duration": 0.13181818181818095,
                "tempo": 120.0
            },
            {
                "start_time": 12.540909090909091,
                "end_time": 12.672727272727272,
                "pitch": 46,
                "velocity": 51,
                "duration": 0.13181818181818095,
                "tempo": 120.0
            },
            {
                "start_time": 12.69090909090909,
                "end_time": 12.972727272727273,
                "pitch": 44,
                "velocity": 51,
                "duration": 0.2818181818181831,
                "tempo": 120.0
            },
            {
                "start_time": 12.99090909090909,
                "end_time": 13.125,
                "pitch": 41,
                "velocity": 51,
                "duration": 0.1340909090909097,
                "tempo": 120.0
            },
            {
                "start_time": 13.14090909090909,
                "end_time": 13.427272727272726,
                "pitch": 46,
                "velocity": 51,
                "duration": 0.28636363636363527,
                "tempo": 120.0
            },
            {
                "start_time": 13.445454545454545,
                "end_time": 13.727272727272727,
                "pitch": 41,
                "velocity": 51,
                "duration": 0.2818181818181813,
                "tempo": 120.0
            },
            {
                "start_time": 13.745454545454544,
                "end_time": 14.027272727272727,
                "pitch": 44,
                "velocity": 51,
                "duration": 0.2818181818181831,
                "tempo": 120.0
            },
            {
                "start_time": 14.045454545454545,
                "end_time": 14.327272727272726,
                "pitch": 46,
                "velocity": 51,
                "duration": 0.2818181818181813,
                "tempo": 120.0
            },
            {
                "start_time": 14.345454545454544,
                "end_time": 14.477272727272727,
                "pitch": 41,
                "velocity": 51,
                "duration": 0.13181818181818272,
                "tempo": 120.0
            },
            {
                "start_time": 14.795454545454545,
                "end_time": 14.927272727272726,
                "pitch": 41,
                "velocity": 51,
                "duration": 0.13181818181818095,
                "tempo": 120.0
            },
            {
                "start_time": 14.945454545454545,
                "end_time": 15.077272727272726,
                "pitch": 41,
                "velocity": 51,
                "duration": 0.13181818181818095,
                "tempo": 120.0
            },
            {
                "start_time": 15.095454545454544,
                "end_time": 15.377272727272727,
                "pitch": 39,
                "velocity": 51,
                "duration": 0.2818181818181831,
                "tempo": 120.0
            },
            {
                "start_time": 15.395454545454545,
                "end_time": 15.527272727272727,
                "pitch": 36,
                "velocity": 51,
                "duration": 0.13181818181818272,
                "tempo": 120.0
            },
            {
                "start_time": 15.545454545454545,
                "end_time": 15.827272727272726,
                "pitch": 41,
                "velocity": 51,
                "duration": 0.2818181818181813,
                "tempo": 120.0
            },
            {
                "start_time": 15.845454545454544,
                "end_time": 16.131818181818183,
                "pitch": 39,
                "velocity": 51,
                "duration": 0.2863636363636388,
                "tempo": 120.0
            },
            {
                "start_time": 16.147727272727273,
                "end_time": 16.43409090909091,
                "pitch": 36,
                "velocity": 51,
                "duration": 0.28636363636363527,
                "tempo": 120.0
            },
            {
                "start_time": 16.45,
                "end_time": 16.74090909090909,
                "pitch": 39,
                "velocity": 51,
                "duration": 0.29090909090908923,
                "tempo": 120.0
            },
            {
                "start_time": 16.756818181818183,
                "end_time": 16.893181818181816,
                "pitch": 41,
                "velocity": 51,
                "duration": 0.13636363636363313,
                "tempo": 120.0
            },
            {
                "start_time": 17.211363636363636,
                "end_time": 17.34318181818182,
                "pitch": 41,
                "velocity": 51,
                "duration": 0.13181818181818272,
                "tempo": 120.0
            },
            {
                "start_time": 17.35909090909091,
                "end_time": 17.493181818181817,
                "pitch": 41,
                "velocity": 51,
                "duration": 0.13409090909090793,
                "tempo": 120.0
            },
            {
                "start_time": 17.509090909090908,
                "end_time": 17.793181818181818,
                "pitch": 39,
                "velocity": 51,
                "duration": 0.28409090909091006,
                "tempo": 120.0
            },
            {
                "start_time": 17.80909090909091,
                "end_time": 17.945454545454545,
                "pitch": 36,
                "velocity": 51,
                "duration": 0.1363636363636367,
                "tempo": 120.0
            },
            {
                "start_time": 17.96363636363636,
                "end_time": 18.252272727272725,
                "pitch": 41,
                "velocity": 51,
                "duration": 0.288636363636364,
                "tempo": 120.0
            },
            {
                "start_time": 18.268181818181816,
                "end_time": 18.55,
                "pitch": 41,
                "velocity": 51,
                "duration": 0.28181818181818485,
                "tempo": 120.0
            },
            {
                "start_time": 18.56590909090909,
                "end_time": 18.69772727272727,
                "pitch": 41,
                "velocity": 51,
                "duration": 0.13181818181817917,
                "tempo": 120.0
            },
            {
                "start_time": 18.71363636363636,
                "end_time": 19.0,
                "pitch": 43,
                "velocity": 51,
                "duration": 0.2863636363636388,
                "tempo": 120.0
            },
            {
                "start_time": 19.01590909090909,
                "end_time": 19.152272727272727,
                "pitch": 44,
                "velocity": 51,
                "duration": 0.1363636363636367,
                "tempo": 120.0
            },
            {
                "start_time": 19.168181818181818,
                "end_time": 19.459090909090907,
                "pitch": 46,
                "velocity": 51,
                "duration": 0.29090909090908923,
                "tempo": 120.0
            },
            {
                "start_time": 19.474999999999998,
                "end_time": 19.759090909090908,
                "pitch": 44,
                "velocity": 51,
                "duration": 0.28409090909091006,
                "tempo": 120.0
            },
            {
                "start_time": 19.775,
                "end_time": 20.05909090909091,
                "pitch": 43,
                "velocity": 51,
                "duration": 0.28409090909091006,
                "tempo": 120.0
            },
            {
                "start_time": 20.075,
                "end_time": 20.209090909090907,
                "pitch": 44,
                "velocity": 51,
                "duration": 0.13409090909090793,
                "tempo": 120.0
            },
            {
                "start_time": 20.227272727272727,
                "end_time": 20.513636363636362,
                "pitch": 46,
                "velocity": 51,
                "duration": 0.28636363636363527,
                "tempo": 120.0
            },
            {
                "start_time": 20.529545454545453,
                "end_time": 20.663636363636364,
                "pitch": 46,
                "velocity": 51,
                "duration": 0.13409090909091148,
                "tempo": 120.0
            },
            {
                "start_time": 20.68181818181818,
                "end_time": 20.961363636363636,
                "pitch": 44,
                "velocity": 51,
                "duration": 0.2795454545454561,
                "tempo": 120.0
            },
            {
                "start_time": 20.977272727272727,
                "end_time": 21.259090909090908,
                "pitch": 43,
                "velocity": 51,
                "duration": 0.2818181818181813,
                "tempo": 120.0
            },
            {
                "start_time": 21.275,
                "end_time": 21.563636363636363,
                "pitch": 41,
                "velocity": 51,
                "duration": 0.288636363636364,
                "tempo": 120.0
            },
            {
                "start_time": 21.581818181818182,
                "end_time": 21.870454545454546,
                "pitch": 46,
                "velocity": 51,
                "duration": 0.288636363636364,
                "tempo": 120.0
            },
            {
                "start_time": 21.886363636363637,
                "end_time": 22.172727272727272,
                "pitch": 44,
                "velocity": 51,
                "duration": 0.28636363636363527,
                "tempo": 120.0
            },
            {
                "start_time": 22.19090909090909,
                "end_time": 22.477272727272727,
                "pitch": 43,
                "velocity": 51,
                "duration": 0.28636363636363527,
                "tempo": 120.0
            },
            {
                "start_time": 22.493181818181817,
                "end_time": 22.627272727272725,
                "pitch": 44,
                "velocity": 51,
                "duration": 0.13409090909090793,
                "tempo": 120.0
            },
            {
                "start_time": 22.643181818181816,
                "end_time": 22.927272727272726,
                "pitch": 41,
                "velocity": 51,
                "duration": 0.28409090909091006,
                "tempo": 120.0
            },
            {
                "start_time": 22.943181818181817,
                "end_time": 23.077272727272724,
                "pitch": 41,
                "velocity": 51,
                "duration": 0.13409090909090793,
                "tempo": 120.0
            },
            {
                "start_time": 23.09318181818182,
                "end_time": 23.375,
                "pitch": 41,
                "velocity": 51,
                "duration": 0.2818181818181813,
                "tempo": 120.0
            },
            {
                "start_time": 23.39090909090909,
                "end_time": 23.670454545454543,
                "pitch": 39,
                "velocity": 51,
                "duration": 0.27954545454545254,
                "tempo": 120.0
            },
            {
                "start_time": 23.688636363636363,
                "end_time": 23.977272727272727,
                "pitch": 41,
                "velocity": 51,
                "duration": 0.288636363636364,
                "tempo": 120.0
            },
            {
                "start_time": 23.993181818181817,
                "end_time": 24.28181818181818,
                "pitch": 41,
                "velocity": 51,
                "duration": 0.288636363636364,
                "tempo": 120.0
            },
            {
                "start_time": 24.299999999999997,
                "end_time": 24.584090909090907,
                "pitch": 39,
                "velocity": 51,
                "duration": 0.28409090909091006,
                "tempo": 120.0
            },
            {
                "start_time": 24.599999999999998,
                "end_time": 24.884090909090908,
                "pitch": 36,
                "velocity": 51,
                "duration": 0.28409090909091006,
                "tempo": 120.0
            },
            {
                "start_time": 24.9,
                "end_time": 25.034090909090907,
                "pitch": 38,
                "velocity": 51,
                "duration": 0.13409090909090793,
                "tempo": 120.0
            },
            {
                "start_time": 25.052272727272726,
                "end_time": 25.336363636363636,
                "pitch": 41,
                "velocity": 51,
                "duration": 0.28409090909091006,
                "tempo": 120.0
            },
            {
                "start_time": 25.354545454545452,
                "end_time": 25.488636363636363,
                "pitch": 41,
                "velocity": 51,
                "duration": 0.13409090909091148,
                "tempo": 120.0
            },
            {
                "start_time": 25.50681818181818,
                "end_time": 25.786363636363635,
                "pitch": 41,
                "velocity": 51,
                "duration": 0.2795454545454561,
                "tempo": 120.0
            },
            {
                "start_time": 25.802272727272726,
                "end_time": 26.084090909090907,
                "pitch": 27,
                "velocity": 51,
                "duration": 0.2818181818181813,
                "tempo": 120.0
            },
            {
                "start_time": 26.099999999999998,
                "end_time": 26.384090909090908,
                "pitch": 41,
                "velocity": 51,
                "duration": 0.28409090909091006,
                "tempo": 120.0
            },
            {
                "start_time": 26.4,
                "end_time": 26.68409090909091,
                "pitch": 43,
                "velocity": 51,
                "duration": 0.28409090909091006,
                "tempo": 120.0
            },
            {
                "start_time": 26.7,
                "end_time": 26.988636363636363,
                "pitch": 43,
                "velocity": 51,
                "duration": 0.288636363636364,
                "tempo": 120.0
            },
            {
                "start_time": 27.00681818181818,
                "end_time": 27.295454545454543,
                "pitch": 43,
                "velocity": 51,
                "duration": 0.288636363636364,
                "tempo": 120.0
            },
            {
                "start_time": 27.311363636363634,
                "end_time": 27.445454545454545,
                "pitch": 44,
                "velocity": 51,
                "duration": 0.13409090909091148,
                "tempo": 120.0
            },
            {
                "start_time": 27.461363636363636,
                "end_time": 27.595454545454544,
                "pitch": 43,
                "velocity": 51,
                "duration": 0.13409090909090793,
                "tempo": 120.0
            },
            {
                "start_time": 27.611363636363635,
                "end_time": 27.895454545454545,
                "pitch": 41,
                "velocity": 51,
                "duration": 0.28409090909091006,
                "tempo": 120.0
            },
            {
                "start_time": 27.911363636363635,
                "end_time": 28.193181818181817,
                "pitch": 41,
                "velocity": 51,
                "duration": 0.2818181818181813,
                "tempo": 120.0
            },
            {
                "start_time": 28.209090909090907,
                "end_time": 28.488636363636363,
                "pitch": 43,
                "velocity": 51,
                "duration": 0.2795454545454561,
                "tempo": 120.0
            },
            {
                "start_time": 28.50681818181818,
                "end_time": 28.795454545454543,
                "pitch": 44,
                "velocity": 51,
                "duration": 0.288636363636364,
                "tempo": 120.0
            },
            {
                "start_time": 28.811363636363634,
                "end_time": 29.099999999999998,
                "pitch": 46,
                "velocity": 51,
                "duration": 0.288636363636364,
                "tempo": 120.0
            },
            {
                "start_time": 29.118181818181817,
                "end_time": 29.404545454545453,
                "pitch": 44,
                "velocity": 51,
                "duration": 0.28636363636363527,
                "tempo": 120.0
            },
            {
                "start_time": 29.420454545454543,
                "end_time": 29.706818181818182,
                "pitch": 43,
                "velocity": 51,
                "duration": 0.2863636363636388,
                "tempo": 120.0
            },
            {
                "start_time": 29.724999999999998,
                "end_time": 29.85909090909091,
                "pitch": 44,
                "velocity": 51,
                "duration": 0.13409090909091148,
                "tempo": 120.0
            },
            {
                "start_time": 29.875,
                "end_time": 30.161363636363635,
                "pitch": 46,
                "velocity": 51,
                "duration": 0.28636363636363527,
                "tempo": 120.0
            },
            {
                "start_time": 30.179545454545455,
                "end_time": 30.313636363636363,
                "pitch": 46,
                "velocity": 51,
                "duration": 0.13409090909090793,
                "tempo": 120.0
            },
            {
                "start_time": 30.329545454545453,
                "end_time": 30.611363636363635,
                "pitch": 44,
                "velocity": 51,
                "duration": 0.2818181818181813,
                "tempo": 120.0
            },
            {
                "start_time": 30.627272727272725,
                "end_time": 30.90681818181818,
                "pitch": 43,
                "velocity": 51,
                "duration": 0.2795454545454561,
                "tempo": 120.0
            },
            {
                "start_time": 30.924999999999997,
                "end_time": 31.206818181818182,
                "pitch": 41,
                "velocity": 51,
                "duration": 0.28181818181818485,
                "tempo": 120.0
            },
            {
                "start_time": 31.224999999999998,
                "end_time": 31.50681818181818,
                "pitch": 46,
                "velocity": 51,
                "duration": 0.2818181818181813,
                "tempo": 120.0
            },
            {
                "start_time": 31.525,
                "end_time": 31.813636363636363,
                "pitch": 44,
                "velocity": 51,
                "duration": 0.288636363636364,
                "tempo": 120.0
            },
            {
                "start_time": 31.829545454545453,
                "end_time": 32.12045454545454,
                "pitch": 43,
                "velocity": 51,
                "duration": 0.29090909090908923,
                "tempo": 120.0
            },
            {
                "start_time": 32.13636363636363,
                "end_time": 32.27045454545454,
                "pitch": 44,
                "velocity": 51,
                "duration": 0.13409090909090793,
                "tempo": 120.0
            },
            {
                "start_time": 32.288636363636364,
                "end_time": 32.574999999999996,
                "pitch": 41,
                "velocity": 51,
                "duration": 0.2863636363636317,
                "tempo": 120.0
            },
            {
                "start_time": 32.590909090909086,
                "end_time": 32.725,
                "pitch": 41,
                "velocity": 51,
                "duration": 0.13409090909091503,
                "tempo": 120.0
            },
            {
                "start_time": 32.74318181818182,
                "end_time": 33.025,
                "pitch": 41,
                "velocity": 51,
                "duration": 0.2818181818181813,
                "tempo": 120.0
            },
            {
                "start_time": 33.043181818181814,
                "end_time": 33.324999999999996,
                "pitch": 39,
                "velocity": 51,
                "duration": 0.2818181818181813,
                "tempo": 120.0
            },
            {
                "start_time": 33.34318181818182,
                "end_time": 33.62954545454545,
                "pitch": 41,
                "velocity": 51,
                "duration": 0.2863636363636317,
                "tempo": 120.0
            },
            {
                "start_time": 33.64545454545454,
                "end_time": 33.93181818181818,
                "pitch": 41,
                "velocity": 51,
                "duration": 0.2863636363636388,
                "tempo": 120.0
            },
            {
                "start_time": 33.94772727272727,
                "end_time": 34.23409090909091,
                "pitch": 39,
                "velocity": 51,
                "duration": 0.2863636363636388,
                "tempo": 120.0
            },
            {
                "start_time": 34.252272727272725,
                "end_time": 34.538636363636364,
                "pitch": 36,
                "velocity": 51,
                "duration": 0.2863636363636388,
                "tempo": 120.0
            },
            {
                "start_time": 34.554545454545455,
                "end_time": 34.68863636363636,
                "pitch": 38,
                "velocity": 51,
                "duration": 0.13409090909090793,
                "tempo": 120.0
            },
            {
                "start_time": 34.70681818181818,
                "end_time": 34.99318181818182,
                "pitch": 41,
                "velocity": 51,
                "duration": 0.2863636363636388,
                "tempo": 120.0
            },
            {
                "start_time": 35.00909090909091,
                "end_time": 35.143181818181816,
                "pitch": 41,
                "velocity": 51,
                "duration": 0.13409090909090793,
                "tempo": 120.0
            },
            {
                "start_time": 35.16136363636363,
                "end_time": 35.44090909090909,
                "pitch": 41,
                "velocity": 51,
                "duration": 0.2795454545454561,
                "tempo": 120.0
            },
            {
                "start_time": 35.45681818181818,
                "end_time": 35.73863636363636,
                "pitch": 27,
                "velocity": 51,
                "duration": 0.2818181818181813,
                "tempo": 120.0
            },
            {
                "start_time": 35.75454545454545,
                "end_time": 36.043181818181814,
                "pitch": 41,
                "velocity": 51,
                "duration": 0.288636363636364,
                "tempo": 120.0
            },
            {
                "start_time": 36.06136363636364,
                "end_time": 36.35,
                "pitch": 43,
                "velocity": 51,
                "duration": 0.288636363636364,
                "tempo": 120.0
            },
            {
                "start_time": 36.36590909090909,
                "end_time": 36.64772727272727,
                "pitch": 43,
                "velocity": 51,
                "duration": 0.2818181818181813,
                "tempo": 120.0
            },
            {
                "start_time": 36.663636363636364,
                "end_time": 36.94318181818181,
                "pitch": 43,
                "velocity": 51,
                "duration": 0.279545454545449,
                "tempo": 120.0
            },
            {
                "start_time": 36.961363636363636,
                "end_time": 37.24772727272727,
                "pitch": 43,
                "velocity": 51,
                "duration": 0.2863636363636317,
                "tempo": 120.0
            },
            {
                "start_time": 37.26363636363636,
                "end_time": 37.55,
                "pitch": 41,
                "velocity": 51,
                "duration": 0.2863636363636388,
                "tempo": 120.0
            },
            {
                "start_time": 37.56590909090909,
                "end_time": 37.85681818181818,
                "pitch": 41,
                "velocity": 51,
                "duration": 0.29090909090908923,
                "tempo": 120.0
            },
            {
                "start_time": 37.87272727272727,
                "end_time": 38.16136363636363,
                "pitch": 43,
                "velocity": 51,
                "duration": 0.288636363636364,
                "tempo": 120.0
            },
            {
                "start_time": 38.179545454545455,
                "end_time": 38.465909090909086,
                "pitch": 43,
                "velocity": 51,
                "duration": 0.2863636363636317,
                "tempo": 120.0
            },
            {
                "start_time": 38.48181818181818,
                "end_time": 38.61590909090909,
                "pitch": 41,
                "velocity": 51,
                "duration": 0.13409090909091503,
                "tempo": 120.0
            },
            {
                "start_time": 38.934090909090905,
                "end_time": 39.06590909090909,
                "pitch": 41,
                "velocity": 51,
                "duration": 0.13181818181818272,
                "tempo": 120.0
            },
            {
                "start_time": 39.08181818181818,
                "end_time": 39.13181818181818,
                "pitch": 41,
                "velocity": 51,
                "duration": 0.05000000000000426,
                "tempo": 120.0
            }
        ]
    }
}