{
    "track_id": "California Games (FM) - 09 - Flying Disk",
    "mood": "happy",
    "instruments": {
        "Acoustic Bass": [
            {
                "start_time": 0.0,
                "end_time": 0.16363636363636364,
                "pitch": 45,
                "velocity": 51,
                "duration": 0.16363636363636364,
                "tempo": 120.0
            },
            {
                "start_time": 0.17727272727272728,
                "end_time": 0.2659090909090909,
                "pitch": 57,
                "velocity": 51,
                "duration": 0.0886363636363636,
                "tempo": 120.0
            },
            {
                "start_time": 0.2818181818181818,
                "end_time": 0.35454545454545455,
                "pitch": 57,
                "velocity": 51,
                "duration": 0.07272727272727275,
                "tempo": 120.0
            },
            {
                "start_time": 0.3727272727272727,
                "end_time": 0.5886363636363636,
                "pitch": 49,
                "velocity": 51,
                "duration": 0.21590909090909094,
                "tempo": 120.0
            },
            {
                "start_time": 0.6068181818181818,
                "end_time": 0.8068181818181818,
                "pitch": 61,
                "velocity": 51,
                "duration": 0.19999999999999996,
                "tempo": 120.0
            },
            {
                "start_time": 0.8227272727272726,
                "end_time": 1.0409090909090908,
                "pitch": 50,
                "velocity": 51,
                "duration": 0.21818181818181814,
                "tempo": 120.0
            },
            {
                "start_time": 1.0568181818181817,
                "end_time": 1.1568181818181817,
                "pitch": 62,
                "velocity": 51,
                "duration": 0.10000000000000009,
                "tempo": 120.0
            },
            {
                "start_time": 1.175,
                "end_time": 1.259090909090909,
                "pitch": 62,
                "velocity": 51,
                "duration": 0.084090909090909,
                "tempo": 120.0
            },
            {
                "start_time": 1.275,
                "end_time": 1.4931818181818182,
                "pitch": 52,
                "velocity": 51,
                "duration": 0.21818181818181825,
                "tempo": 120.0
            },
            {
                "start_time": 1.509090909090909,
                "end_time": 1.709090909090909,
                "pitch": 64,
                "velocity": 51,
                "duration": 0.19999999999999996,
                "tempo": 120.0
            },
            {
                "start_time": 1.7249999999999999,
                "end_time": 1.9545454545454544,
                "pitch": 45,
                "velocity": 51,
                "duration": 0.2295454545454545,
                "tempo": 120.0
            },
            {
                "start_time": 1.9704545454545455,
                "end_time": 2.0749999999999997,
                "pitch": 57,
                "velocity": 51,
                "duration": 0.10454545454545427,
                "tempo": 120.0
            },
            {
                "start_time": 2.0931818181818183,
                "end_time": 2.1818181818181817,
                "pitch": 57,
                "velocity": 51,
                "duration": 0.0886363636363634,
                "tempo": 120.0
            },
            {
                "start_time": 2.1977272727272728,
                "end_time": 2.4045454545454543,
                "pitch": 49,
                "velocity": 51,
                "duration": 0.20681818181818157,
                "tempo": 120.0
            },
            {
                "start_time": 2.4204545454545454,
                "end_time": 2.6136363636363633,
                "pitch": 61,
                "velocity": 51,
                "duration": 0.1931818181818179,
                "tempo": 120.0
            },
            {
                "start_time": 2.6295454545454544,
                "end_time": 2.8477272727272727,
                "pitch": 50,
                "velocity": 51,
                "duration": 0.21818181818181825,
                "tempo": 120.0
            },
            {
                "start_time": 2.8636363636363633,
                "end_time": 2.9636363636363634,
                "pitch": 62,
                "velocity": 51,
                "duration": 0.10000000000000009,
                "tempo": 120.0
            },
            {
                "start_time": 2.9795454545454545,
                "end_time": 3.0636363636363635,
                "pitch": 62,
                "velocity": 51,
                "duration": 0.084090909090909,
                "tempo": 120.0
            },
            {
                "start_time": 3.0818181818181816,
                "end_time": 3.2977272727272724,
                "pitch": 47,
                "velocity": 51,
                "duration": 0.21590909090909083,
                "tempo": 120.0
            },
            {
                "start_time": 3.3136363636363635,
                "end_time": 3.5159090909090907,
                "pitch": 59,
                "velocity": 51,
                "duration": 0.20227272727272716,
                "tempo": 120.0
            },
            {
                "start_time": 3.5318181818181817,
                "end_time": 3.75,
                "pitch": 45,
                "velocity": 51,
                "duration": 0.21818181818181825,
                "tempo": 120.0
            },
            {
                "start_time": 3.7659090909090907,
                "end_time": 3.8659090909090907,
                "pitch": 57,
                "velocity": 51,
                "duration": 0.10000000000000009,
                "tempo": 120.0
            },
            {
                "start_time": 3.881818181818182,
                "end_time": 3.965909090909091,
                "pitch": 57,
                "velocity": 51,
                "duration": 0.084090909090909,
                "tempo": 120.0
            },
            {
                "start_time": 3.984090909090909,
                "end_time": 4.204545454545454,
                "pitch": 49,
                "velocity": 51,
                "duration": 0.22045454545454524,
                "tempo": 120.0
            },
            {
                "start_time": 4.222727272727273,
                "end_time": 4.427272727272727,
                "pitch": 61,
                "velocity": 51,
                "duration": 0.20454545454545414,
                "tempo": 120.0
            },
            {
                "start_time": 4.445454545454545,
                "end_time": 4.668181818181818,
                "pitch": 50,
                "velocity": 51,
                "duration": 0.22272727272727266,
                "tempo": 120.0
            },
            {
                "start_time": 4.684090909090909,
                "end_time": 4.786363636363636,
                "pitch": 62,
                "velocity": 51,
                "duration": 0.10227272727272751,
                "tempo": 120.0
            },
            {
                "start_time": 4.804545454545455,
                "end_time": 4.888636363636364,
                "pitch": 62,
                "velocity": 51,
                "duration": 0.084090909090909,
                "tempo": 120.0
            },
            {
                "start_time": 4.904545454545454,
                "end_time": 5.113636363636363,
                "pitch": 52,
                "velocity": 51,
                "duration": 0.209090909090909,
                "tempo": 120.0
            },
            {
                "start_time": 5.129545454545454,
                "end_time": 5.320454545454545,
                "pitch": 64,
                "velocity": 51,
                "duration": 0.19090909090909136,
                "tempo": 120.0
            },
            {
                "start_time": 5.336363636363636,
                "end_time": 5.5636363636363635,
                "pitch": 45,
                "velocity": 51,
                "duration": 0.22727272727272751,
                "tempo": 120.0
            },
            {
                "start_time": 5.581818181818181,
                "end_time": 5.6863636363636365,
                "pitch": 57,
                "velocity": 51,
                "duration": 0.10454545454545539,
                "tempo": 120.0
            },
            {
                "start_time": 5.704545454545454,
                "end_time": 5.793181818181818,
                "pitch": 57,
                "velocity": 51,
                "duration": 0.08863636363636385,
                "tempo": 120.0
            },
            {
                "start_time": 5.809090909090909,
                "end_time": 6.027272727272727,
                "pitch": 45,
                "velocity": 51,
                "duration": 0.2181818181818187,
                "tempo": 120.0
            },
            {
                "start_time": 6.043181818181818,
                "end_time": 6.243181818181818,
                "pitch": 57,
                "velocity": 51,
                "duration": 0.20000000000000018,
                "tempo": 120.0
            },
            {
                "start_time": 6.261363636363636,
                "end_time": 6.472727272727273,
                "pitch": 45,
                "velocity": 51,
                "duration": 0.21136363636363686,
                "tempo": 120.0
            },
            {
                "start_time": 6.488636363636363,
                "end_time": 6.588636363636363,
                "pitch": 57,
                "velocity": 51,
                "duration": 0.09999999999999964,
                "tempo": 120.0
            },
            {
                "start_time": 6.6045454545454545,
                "end_time": 6.686363636363636,
                "pitch": 57,
                "velocity": 51,
                "duration": 0.08181818181818112,
                "tempo": 120.0
            },
            {
                "start_time": 6.702272727272727,
                "end_time": 6.913636363636363,
                "pitch": 45,
                "velocity": 51,
                "duration": 0.21136363636363598,
                "tempo": 120.0
            },
            {
                "start_time": 6.931818181818182,
                "end_time": 7.127272727272727,
                "pitch": 57,
                "velocity": 51,
                "duration": 0.19545454545454533,
                "tempo": 120.0
            },
            {
                "start_time": 7.143181818181818,
                "end_time": 7.361363636363636,
                "pitch": 45,
                "velocity": 51,
                "duration": 0.2181818181818187,
                "tempo": 120.0
            },
            {
                "start_time": 7.377272727272727,
                "end_time": 7.477272727272727,
                "pitch": 57,
                "velocity": 51,
                "duration": 0.09999999999999964,
                "tempo": 120.0
            },
            {
                "start_time": 7.495454545454545,
                "end_time": 7.577272727272727,
                "pitch": 57,
                "velocity": 51,
                "duration": 0.08181818181818201,
                "tempo": 120.0
            },
            {
                "start_time": 7.595454545454545,
                "end_time": 7.811363636363636,
                "pitch": 49,
                "velocity": 51,
                "duration": 0.21590909090909083,
                "tempo": 120.0
            },
            {
                "start_time": 7.829545454545454,
                "end_time": 8.029545454545454,
                "pitch": 61,
                "velocity": 51,
                "duration": 0.20000000000000018,
                "tempo": 120.0
            },
            {
                "start_time": 8.045454545454545,
                "end_time": 8.263636363636364,
                "pitch": 50,
                "velocity": 51,
                "duration": 0.2181818181818187,
                "tempo": 120.0
            },
            {
                "start_time": 8.279545454545454,
                "end_time": 8.379545454545454,
                "pitch": 62,
                "velocity": 51,
                "duration": 0.09999999999999964,
                "tempo": 120.0
            },
            {
                "start_time": 8.397727272727272,
                "end_time": 8.48181818181818,
                "pitch": 62,
                "velocity": 51,
                "duration": 0.084090909090909,
                "tempo": 120.0
            },
            {
                "start_time": 8.497727272727273,
                "end_time": 8.713636363636363,
                "pitch": 52,
                "velocity": 51,
                "duration": 0.21590909090908994,
                "tempo": 120.0
            },
            {
                "start_time": 8.73181818181818,
                "end_time": 8.931818181818182,
                "pitch": 64,
                "velocity": 51,
                "duration": 0.20000000000000107,
                "tempo": 120.0
            },
            {
                "start_time": 8.947727272727272,
                "end_time": 9.174999999999999,
                "pitch": 45,
                "velocity": 51,
                "duration": 0.22727272727272663,
                "tempo": 120.0
            },
            {
                "start_time": 9.193181818181818,
                "end_time": 9.297727272727272,
                "pitch": 57,
                "velocity": 51,
                "duration": 0.10454545454545361,
                "tempo": 120.0
            },
            {
                "start_time": 9.31590909090909,
                "end_time": 9.404545454545454,
                "pitch": 57,
                "velocity": 51,
                "duration": 0.08863636363636473,
                "tempo": 120.0
            },
            {
                "start_time": 9.420454545454545,
                "end_time": 9.627272727272727,
                "pitch": 49,
                "velocity": 51,
                "duration": 0.206818181818182,
                "tempo": 120.0
            },
            {
                "start_time": 9.643181818181818,
                "end_time": 9.836363636363636,
                "pitch": 61,
                "velocity": 51,
                "duration": 0.19318181818181834,
                "tempo": 120.0
            },
            {
                "start_time": 9.852272727272727,
                "end_time": 10.070454545454545,
                "pitch": 50,
                "velocity": 51,
                "duration": 0.2181818181818187,
                "tempo": 120.0
            },
            {
                "start_time": 10.086363636363636,
                "end_time": 10.186363636363636,
                "pitch": 62,
                "velocity": 51,
                "duration": 0.09999999999999964,
                "tempo": 120.0
            },
            {
                "start_time": 10.202272727272726,
                "end_time": 10.286363636363635,
                "pitch": 62,
                "velocity": 51,
                "duration": 0.084090909090909,
                "tempo": 120.0
            },
            {
                "start_time": 10.302272727272726,
                "end_time": 10.520454545454545,
                "pitch": 47,
                "velocity": 51,
                "duration": 0.2181818181818187,
                "tempo": 120.0
            },
            {
                "start_time": 10.536363636363635,
                "end_time": 10.738636363636363,
                "pitch": 59,
                "velocity": 51,
                "duration": 0.20227272727272805,
                "tempo": 120.0
            },
            {
                "start_time": 10.754545454545454,
                "end_time": 10.977272727272727,
                "pitch": 45,
                "velocity": 51,
                "duration": 0.22272727272727266,
                "tempo": 120.0
            },
            {
                "start_time": 10.993181818181817,
                "end_time": 11.097727272727273,
                "pitch": 57,
                "velocity": 51,
                "duration": 0.10454545454545539,
                "tempo": 120.0
            },
            {
                "start_time": 11.113636363636363,
                "end_time": 11.2,
                "pitch": 57,
                "velocity": 51,
                "duration": 0.08636363636363598,
                "tempo": 120.0
            },
            {
                "start_time": 11.21590909090909,
                "end_time": 11.427272727272726,
                "pitch": 49,
                "velocity": 51,
                "duration": 0.21136363636363598,
                "tempo": 120.0
            },
            {
                "start_time": 11.445454545454545,
                "end_time": 11.64090909090909,
                "pitch": 61,
                "velocity": 51,
                "duration": 0.19545454545454533,
                "tempo": 120.0
            },
            {
                "start_time": 11.656818181818181,
                "end_time": 11.875,
                "pitch": 50,
                "velocity": 51,
                "duration": 0.2181818181818187,
                "tempo": 120.0
            },
            {
                "start_time": 11.89090909090909,
                "end_time": 11.99090909090909,
                "pitch": 62,
                "velocity": 51,
                "duration": 0.09999999999999964,
                "tempo": 120.0
            },
            {
                "start_time": 12.009090909090908,
                "end_time": 12.09090909090909,
                "pitch": 62,
                "velocity": 51,
                "duration": 0.08181818181818201,
                "tempo": 120.0
            },
            {
                "start_time": 12.10909090909091,
                "end_time": 12.325,
                "pitch": 52,
                "velocity": 51,
                "duration": 0.21590909090908994,
                "tempo": 120.0
            },
            {
                "start_time": 12.343181818181817,
                "end_time": 12.543181818181818,
                "pitch": 64,
                "velocity": 51,
                "duration": 0.20000000000000107,
                "tempo": 120.0
            },
            {
                "start_time": 12.559090909090909,
                "end_time": 12.786363636363635,
                "pitch": 45,
                "velocity": 51,
                "duration": 0.22727272727272663,
                "tempo": 120.0
            },
            {
                "start_time": 12.804545454545455,
                "end_time": 12.909090909090908,
                "pitch": 57,
                "velocity": 51,
                "duration": 0.10454545454545361,
                "tempo": 120.0
            },
            {
                "start_time": 12.927272727272726,
                "end_time": 13.013636363636364,
                "pitch": 57,
                "velocity": 51,
                "duration": 0.08636363636363775,
                "tempo": 120.0
            },
            {
                "start_time": 13.031818181818181,
                "end_time": 13.25,
                "pitch": 45,
                "velocity": 51,
                "duration": 0.2181818181818187,
                "tempo": 120.0
            },
            {
                "start_time": 13.26590909090909,
                "end_time": 13.46590909090909,
                "pitch": 57,
                "velocity": 51,
                "duration": 0.1999999999999993,
                "tempo": 120.0
            },
            {
                "start_time": 13.484090909090908,
                "end_time": 13.695454545454545,
                "pitch": 45,
                "velocity": 51,
                "duration": 0.21136363636363775,
                "tempo": 120.0
            },
            {
                "start_time": 13.711363636363636,
                "end_time": 13.811363636363636,
                "pitch": 57,
                "velocity": 51,
                "duration": 0.09999999999999964,
                "tempo": 120.0
            },
            {
                "start_time": 13.827272727272726,
                "end_time": 13.909090909090908,
                "pitch": 57,
                "velocity": 51,
                "duration": 0.08181818181818201,
                "tempo": 120.0
            },
            {
                "start_time": 13.924999999999999,
                "end_time": 14.136363636363635,
                "pitch": 45,
                "velocity": 51,
                "duration": 0.21136363636363598,
                "tempo": 120.0
            },
            {
                "start_time": 14.154545454545454,
                "end_time": 14.35,
                "pitch": 57,
                "velocity": 51,
                "duration": 0.19545454545454533,
                "tempo": 120.0
            },
            {
                "start_time": 14.36590909090909,
                "end_time": 14.584090909090909,
                "pitch": 45,
                "velocity": 51,
                "duration": 0.2181818181818187,
                "tempo": 120.0
            },
            {
                "start_time": 14.6,
                "end_time": 14.7,
                "pitch": 57,
                "velocity": 51,
                "duration": 0.09999999999999964,
                "tempo": 120.0
            },
            {
                "start_time": 14.718181818181817,
                "end_time": 14.799999999999999,
                "pitch": 57,
                "velocity": 51,
                "duration": 0.08181818181818201,
                "tempo": 120.0
            },
            {
                "start_time": 14.818181818181818,
                "end_time": 15.040909090909091,
                "pitch": 49,
                "velocity": 51,
                "duration": 0.22272727272727266,
                "tempo": 120.0
            },
            {
                "start_time": 15.056818181818182,
                "end_time": 15.261363636363635,
                "pitch": 61,
                "velocity": 51,
                "duration": 0.20454545454545325,
                "tempo": 120.0
            },
            {
                "start_time": 15.279545454545454,
                "end_time": 15.502272727272727,
                "pitch": 50,
                "velocity": 51,
                "duration": 0.22272727272727266,
                "tempo": 120.0
            },
            {
                "start_time": 15.518181818181818,
                "end_time": 15.620454545454544,
                "pitch": 62,
                "velocity": 51,
                "duration": 0.10227272727272663,
                "tempo": 120.0
            },
            {
                "start_time": 15.638636363636364,
                "end_time": 15.725,
                "pitch": 62,
                "velocity": 51,
                "duration": 0.08636363636363598,
                "tempo": 120.0
            },
            {
                "start_time": 15.74090909090909,
                "end_time": 15.947727272727272,
                "pitch": 52,
                "velocity": 51,
                "duration": 0.206818181818182,
                "tempo": 120.0
            },
            {
                "start_time": 15.963636363636363,
                "end_time": 16.15681818181818,
                "pitch": 64,
                "velocity": 51,
                "duration": 0.19318181818181834,
                "tempo": 120.0
            },
            {
                "start_time": 16.172727272727272,
                "end_time": 16.4,
                "pitch": 45,
                "velocity": 51,
                "duration": 0.22727272727272663,
                "tempo": 120.0
            },
            {
                "start_time": 16.41590909090909,
                "end_time": 16.520454545454545,
                "pitch": 57,
                "velocity": 51,
                "duration": 0.10454545454545539,
                "tempo": 120.0
            },
            {
                "start_time": 16.538636363636364,
                "end_time": 16.627272727272725,
                "pitch": 57,
                "velocity": 51,
                "duration": 0.08863636363636118,
                "tempo": 120.0
            },
            {
                "start_time": 16.643181818181816,
                "end_time": 16.85681818181818,
                "pitch": 49,
                "velocity": 51,
                "duration": 0.21363636363636473,
                "tempo": 120.0
            },
            {
                "start_time": 16.87272727272727,
                "end_time": 17.068181818181817,
                "pitch": 61,
                "velocity": 51,
                "duration": 0.19545454545454533,
                "tempo": 120.0
            },
            {
                "start_time": 17.084090909090907,
                "end_time": 17.302272727272726,
                "pitch": 50,
                "velocity": 51,
                "duration": 0.2181818181818187,
                "tempo": 120.0
            },
            {
                "start_time": 17.318181818181817,
                "end_time": 17.418181818181818,
                "pitch": 62,
                "velocity": 51,
                "duration": 0.10000000000000142,
                "tempo": 120.0
            },
            {
                "start_time": 17.436363636363634,
                "end_time": 17.520454545454545,
                "pitch": 62,
                "velocity": 51,
                "duration": 0.08409090909091077,
                "tempo": 120.0
            },
            {
                "start_time": 17.536363636363635,
                "end_time": 17.74772727272727,
                "pitch": 47,
                "velocity": 51,
                "duration": 0.21136363636363598,
                "tempo": 120.0
            },
            {
                "start_time": 17.763636363636362,
                "end_time": 17.961363636363636,
                "pitch": 59,
                "velocity": 51,
                "duration": 0.19772727272727408,
                "tempo": 120.0
            },
            {
                "start_time": 17.977272727272727,
                "end_time": 18.195454545454545,
                "pitch": 45,
                "velocity": 51,
                "duration": 0.2181818181818187,
                "tempo": 120.0
            },
            {
                "start_time": 18.211363636363636,
                "end_time": 18.311363636363634,
                "pitch": 57,
                "velocity": 51,
                "duration": 0.09999999999999787,
                "tempo": 120.0
            },
            {
                "start_time": 18.329545454545453,
                "end_time": 18.411363636363635,
                "pitch": 57,
                "velocity": 51,
                "duration": 0.08181818181818201,
                "tempo": 120.0
            },
            {
                "start_time": 18.429545454545455,
                "end_time": 18.65681818181818,
                "pitch": 49,
                "velocity": 51,
                "duration": 0.22727272727272663,
                "tempo": 120.0
            },
            {
                "start_time": 18.672727272727272,
                "end_time": 18.884090909090908,
                "pitch": 61,
                "velocity": 51,
                "duration": 0.21136363636363598,
                "tempo": 120.0
            },
            {
                "start_time": 18.902272727272727,
                "end_time": 19.118181818181817,
                "pitch": 50,
                "velocity": 51,
                "duration": 0.21590909090908994,
                "tempo": 120.0
            },
            {
                "start_time": 19.136363636363637,
                "end_time": 19.236363636363635,
                "pitch": 62,
                "velocity": 51,
                "duration": 0.09999999999999787,
                "tempo": 120.0
            },
            {
                "start_time": 19.252272727272725,
                "end_time": 19.336363636363636,
                "pitch": 62,
                "velocity": 51,
                "duration": 0.08409090909091077,
                "tempo": 120.0
            },
            {
                "start_time": 19.352272727272727,
                "end_time": 19.55909090909091,
                "pitch": 52,
                "velocity": 51,
                "duration": 0.206818181818182,
                "tempo": 120.0
            },
            {
                "start_time": 19.575,
                "end_time": 19.768181818181816,
                "pitch": 64,
                "velocity": 51,
                "duration": 0.19318181818181657,
                "tempo": 120.0
            },
            {
                "start_time": 19.784090909090907,
                "end_time": 20.011363636363637,
                "pitch": 45,
                "velocity": 51,
                "duration": 0.22727272727273018,
                "tempo": 120.0
            },
            {
                "start_time": 20.027272727272727,
                "end_time": 20.134090909090908,
                "pitch": 57,
                "velocity": 51,
                "duration": 0.10681818181818059,
                "tempo": 120.0
            },
            {
                "start_time": 20.15,
                "end_time": 20.238636363636363,
                "pitch": 57,
                "velocity": 51,
                "duration": 0.08863636363636473,
                "tempo": 120.0
            },
            {
                "start_time": 20.254545454545454,
                "end_time": 20.46818181818182,
                "pitch": 45,
                "velocity": 51,
                "duration": 0.21363636363636473,
                "tempo": 120.0
            },
            {
                "start_time": 20.48409090909091,
                "end_time": 20.679545454545455,
                "pitch": 57,
                "velocity": 51,
                "duration": 0.19545454545454533,
                "tempo": 120.0
            },
            {
                "start_time": 20.69772727272727,
                "end_time": 20.913636363636364,
                "pitch": 45,
                "velocity": 51,
                "duration": 0.2159090909090935,
                "tempo": 120.0
            },
            {
                "start_time": 20.93181818181818,
                "end_time": 21.03181818181818,
                "pitch": 57,
                "velocity": 51,
                "duration": 0.10000000000000142,
                "tempo": 120.0
            },
            {
                "start_time": 21.047727272727272,
                "end_time": 21.13181818181818,
                "pitch": 57,
                "velocity": 51,
                "duration": 0.08409090909090722,
                "tempo": 120.0
            },
            {
                "start_time": 21.147727272727273,
                "end_time": 21.370454545454546,
                "pitch": 45,
                "velocity": 51,
                "duration": 0.22272727272727266,
                "tempo": 120.0
            },
            {
                "start_time": 21.386363636363637,
                "end_time": 21.59318181818182,
                "pitch": 57,
                "velocity": 51,
                "duration": 0.206818181818182,
                "tempo": 120.0
            },
            {
                "start_time": 21.60909090909091,
                "end_time": 21.81590909090909,
                "pitch": 45,
                "velocity": 51,
                "duration": 0.206818181818182,
                "tempo": 120.0
            },
            {
                "start_time": 21.831818181818182,
                "end_time": 21.927272727272726,
                "pitch": 57,
                "velocity": 51,
                "duration": 0.0954545454545439,
                "tempo": 120.0
            },
            {
                "start_time": 21.945454545454545,
                "end_time": 22.025,
                "pitch": 57,
                "velocity": 51,
                "duration": 0.07954545454545325,
                "tempo": 120.0
            },
            {
                "start_time": 22.04090909090909,
                "end_time": 22.268181818181816,
                "pitch": 49,
                "velocity": 51,
                "duration": 0.22727272727272663,
                "tempo": 120.0
            }
        ],
        "Vibraphone": [
            {
                "start_time": 0.6068181818181818,
                "end_time": 0.7068181818181818,
                "pitch": 81,
                "velocity": 64,
                "duration": 0.09999999999999998,
                "tempo": 120.0
            },
            {
                "start_time": 0.7227272727272727,
                "end_time": 0.8068181818181818,
                "pitch": 85,
                "velocity": 64,
                "duration": 0.0840909090909091,
                "tempo": 120.0
            },
            {
                "start_time": 0.8227272727272726,
                "end_time": 1.0409090909090908,
                "pitch": 83,
                "velocity": 64,
                "duration": 0.21818181818181814,
                "tempo": 120.0
            },
            {
                "start_time": 1.0568181818181817,
                "end_time": 1.259090909090909,
                "pitch": 81,
                "velocity": 64,
                "duration": 0.20227272727272738,
                "tempo": 120.0
            },
            {
                "start_time": 1.275,
                "end_time": 1.709090909090909,
                "pitch": 78,
                "velocity": 64,
                "duration": 0.4340909090909091,
                "tempo": 120.0
            },
            {
                "start_time": 1.7249999999999999,
                "end_time": 3.5159090909090907,
                "pitch": 76,
                "velocity": 64,
                "duration": 1.7909090909090908,
                "tempo": 120.0
            },
            {
                "start_time": 4.222727272727273,
                "end_time": 4.325,
                "pitch": 81,
                "velocity": 64,
                "duration": 0.10227272727272751,
                "tempo": 120.0
            },
            {
                "start_time": 4.343181818181818,
                "end_time": 4.427272727272727,
                "pitch": 85,
                "velocity": 64,
                "duration": 0.084090909090909,
                "tempo": 120.0
            },
            {
                "start_time": 4.445454545454545,
                "end_time": 4.668181818181818,
                "pitch": 83,
                "velocity": 64,
                "duration": 0.22272727272727266,
                "tempo": 120.0
            },
            {
                "start_time": 4.684090909090909,
                "end_time": 4.888636363636364,
                "pitch": 81,
                "velocity": 64,
                "duration": 0.20454545454545503,
                "tempo": 120.0
            },
            {
                "start_time": 4.904545454545454,
                "end_time": 5.320454545454545,
                "pitch": 78,
                "velocity": 64,
                "duration": 0.415909090909091,
                "tempo": 120.0
            },
            {
                "start_time": 5.336363636363636,
                "end_time": 5.4409090909090905,
                "pitch": 81,
                "velocity": 64,
                "duration": 0.1045454545454545,
                "tempo": 120.0
            },
            {
                "start_time": 5.459090909090909,
                "end_time": 5.5636363636363635,
                "pitch": 83,
                "velocity": 64,
                "duration": 0.1045454545454545,
                "tempo": 120.0
            },
            {
                "start_time": 5.581818181818181,
                "end_time": 5.6863636363636365,
                "pitch": 81,
                "velocity": 64,
                "duration": 0.10454545454545539,
                "tempo": 120.0
            },
            {
                "start_time": 5.704545454545454,
                "end_time": 5.793181818181818,
                "pitch": 83,
                "velocity": 64,
                "duration": 0.08863636363636385,
                "tempo": 120.0
            },
            {
                "start_time": 5.809090909090909,
                "end_time": 5.909090909090909,
                "pitch": 81,
                "velocity": 64,
                "duration": 0.10000000000000053,
                "tempo": 120.0
            },
            {
                "start_time": 5.927272727272727,
                "end_time": 6.027272727272727,
                "pitch": 83,
                "velocity": 64,
                "duration": 0.10000000000000053,
                "tempo": 120.0
            },
            {
                "start_time": 6.043181818181818,
                "end_time": 6.143181818181818,
                "pitch": 81,
                "velocity": 64,
                "duration": 0.09999999999999964,
                "tempo": 120.0
            },
            {
                "start_time": 6.161363636363636,
                "end_time": 6.243181818181818,
                "pitch": 83,
                "velocity": 64,
                "duration": 0.08181818181818201,
                "tempo": 120.0
            },
            {
                "start_time": 6.261363636363636,
                "end_time": 6.3590909090909085,
                "pitch": 81,
                "velocity": 64,
                "duration": 0.09772727272727266,
                "tempo": 120.0
            },
            {
                "start_time": 6.375,
                "end_time": 6.472727272727273,
                "pitch": 83,
                "velocity": 64,
                "duration": 0.09772727272727266,
                "tempo": 120.0
            },
            {
                "start_time": 6.488636363636363,
                "end_time": 6.588636363636363,
                "pitch": 81,
                "velocity": 64,
                "duration": 0.09999999999999964,
                "tempo": 120.0
            },
            {
                "start_time": 6.6045454545454545,
                "end_time": 6.686363636363636,
                "pitch": 83,
                "velocity": 64,
                "duration": 0.08181818181818112,
                "tempo": 120.0
            },
            {
                "start_time": 6.702272727272727,
                "end_time": 7.127272727272727,
                "pitch": 81,
                "velocity": 64,
                "duration": 0.4249999999999998,
                "tempo": 120.0
            },
            {
                "start_time": 7.829545454545454,
                "end_time": 7.929545454545454,
                "pitch": 81,
                "velocity": 64,
                "duration": 0.09999999999999964,
                "tempo": 120.0
            },
            {
                "start_time": 7.945454545454545,
                "end_time": 8.029545454545454,
                "pitch": 85,
                "velocity": 64,
                "duration": 0.084090909090909,
                "tempo": 120.0
            },
            {
                "start_time": 8.045454545454545,
                "end_time": 8.263636363636364,
                "pitch": 83,
                "velocity": 64,
                "duration": 0.2181818181818187,
                "tempo": 120.0
            },
            {
                "start_time": 8.279545454545454,
                "end_time": 8.48181818181818,
                "pitch": 81,
                "velocity": 64,
                "duration": 0.20227272727272627,
                "tempo": 120.0
            },
            {
                "start_time": 8.497727272727273,
                "end_time": 8.931818181818182,
                "pitch": 78,
                "velocity": 64,
                "duration": 0.43409090909090864,
                "tempo": 120.0
            },
            {
                "start_time": 8.947727272727272,
                "end_time": 9.836363636363636,
                "pitch": 76,
                "velocity": 64,
                "duration": 0.8886363636363637,
                "tempo": 120.0
            },
            {
                "start_time": 9.852272727272727,
                "end_time": 9.952272727272726,
                "pitch": 81,
                "velocity": 64,
                "duration": 0.09999999999999964,
                "tempo": 120.0
            },
            {
                "start_time": 9.968181818181817,
                "end_time": 10.070454545454545,
                "pitch": 83,
                "velocity": 64,
                "duration": 0.1022727272727284,
                "tempo": 120.0
            },
            {
                "start_time": 10.086363636363636,
                "end_time": 10.186363636363636,
                "pitch": 81,
                "velocity": 64,
                "duration": 0.09999999999999964,
                "tempo": 120.0
            },
            {
                "start_time": 10.202272727272726,
                "end_time": 10.286363636363635,
                "pitch": 83,
                "velocity": 64,
                "duration": 0.084090909090909,
                "tempo": 120.0
            },
            {
                "start_time": 10.302272727272726,
                "end_time": 10.520454545454545,
                "pitch": 81,
                "velocity": 64,
                "duration": 0.2181818181818187,
                "tempo": 120.0
            },
            {
                "start_time": 10.536363636363635,
                "end_time": 10.738636363636363,
                "pitch": 78,
                "velocity": 64,
                "duration": 0.20227272727272805,
                "tempo": 120.0
            },
            {
                "start_time": 10.754545454545454,
                "end_time": 11.2,
                "pitch": 81,
                "velocity": 64,
                "duration": 0.4454545454545453,
                "tempo": 120.0
            },
            {
                "start_time": 11.445454545454545,
                "end_time": 11.543181818181818,
                "pitch": 81,
                "velocity": 64,
                "duration": 0.09772727272727266,
                "tempo": 120.0
            },
            {
                "start_time": 11.559090909090909,
                "end_time": 11.64090909090909,
                "pitch": 85,
                "velocity": 64,
                "duration": 0.08181818181818201,
                "tempo": 120.0
            },
            {
                "start_time": 11.656818181818181,
                "end_time": 11.875,
                "pitch": 83,
                "velocity": 64,
                "duration": 0.2181818181818187,
                "tempo": 120.0
            },
            {
                "start_time": 11.89090909090909,
                "end_time": 12.09090909090909,
                "pitch": 81,
                "velocity": 64,
                "duration": 0.1999999999999993,
                "tempo": 120.0
            },
            {
                "start_time": 12.10909090909091,
                "end_time": 12.543181818181818,
                "pitch": 78,
                "velocity": 64,
                "duration": 0.43409090909090864,
                "tempo": 120.0
            },
            {
                "start_time": 12.559090909090909,
                "end_time": 12.663636363636362,
                "pitch": 81,
                "velocity": 64,
                "duration": 0.10454545454545361,
                "tempo": 120.0
            },
            {
                "start_time": 12.681818181818182,
                "end_time": 12.786363636363635,
                "pitch": 83,
                "velocity": 64,
                "duration": 0.10454545454545361,
                "tempo": 120.0
            },
            {
                "start_time": 12.804545454545455,
                "end_time": 12.909090909090908,
                "pitch": 81,
                "velocity": 64,
                "duration": 0.10454545454545361,
                "tempo": 120.0
            },
            {
                "start_time": 12.927272727272726,
                "end_time": 13.013636363636364,
                "pitch": 83,
                "velocity": 64,
                "duration": 0.08636363636363775,
                "tempo": 120.0
            },
            {
                "start_time": 13.031818181818181,
                "end_time": 13.25,
                "pitch": 81,
                "velocity": 64,
                "duration": 0.2181818181818187,
                "tempo": 120.0
            },
            {
                "start_time": 13.26590909090909,
                "end_time": 13.46590909090909,
                "pitch": 78,
                "velocity": 64,
                "duration": 0.1999999999999993,
                "tempo": 120.0
            },
            {
                "start_time": 13.484090909090908,
                "end_time": 13.581818181818182,
                "pitch": 81,
                "velocity": 64,
                "duration": 0.09772727272727444,
                "tempo": 120.0
            },
            {
                "start_time": 13.597727272727273,
                "end_time": 13.695454545454545,
                "pitch": 83,
                "velocity": 64,
                "duration": 0.09772727272727266,
                "tempo": 120.0
            },
            {
                "start_time": 13.711363636363636,
                "end_time": 13.811363636363636,
                "pitch": 81,
                "velocity": 64,
                "duration": 0.09999999999999964,
                "tempo": 120.0
            },
            {
                "start_time": 13.827272727272726,
                "end_time": 13.909090909090908,
                "pitch": 83,
                "velocity": 64,
                "duration": 0.08181818181818201,
                "tempo": 120.0
            },
            {
                "start_time": 13.924999999999999,
                "end_time": 14.136363636363635,
                "pitch": 81,
                "velocity": 64,
                "duration": 0.21136363636363598,
                "tempo": 120.0
            },
            {
                "start_time": 14.154545454545454,
                "end_time": 14.35,
                "pitch": 78,
                "velocity": 64,
                "duration": 0.19545454545454533,
                "tempo": 120.0
            },
            {
                "start_time": 15.056818181818182,
                "end_time": 15.159090909090908,
                "pitch": 81,
                "velocity": 64,
                "duration": 0.10227272727272663,
                "tempo": 120.0
            },
            {
                "start_time": 15.177272727272726,
                "end_time": 15.261363636363635,
                "pitch": 85,
                "velocity": 64,
                "duration": 0.084090909090909,
                "tempo": 120.0
            },
            {
                "start_time": 15.279545454545454,
                "end_time": 15.502272727272727,
                "pitch": 83,
                "velocity": 64,
                "duration": 0.22272727272727266,
                "tempo": 120.0
            },
            {
                "start_time": 15.518181818181818,
                "end_time": 15.725,
                "pitch": 81,
                "velocity": 64,
                "duration": 0.206818181818182,
                "tempo": 120.0
            },
            {
                "start_time": 15.74090909090909,
                "end_time": 16.15681818181818,
                "pitch": 78,
                "velocity": 64,
                "duration": 0.415909090909091,
                "tempo": 120.0
            },
            {
                "start_time": 16.172727272727272,
                "end_time": 16.277272727272727,
                "pitch": 81,
                "velocity": 64,
                "duration": 0.10454545454545539,
                "tempo": 120.0
            },
            {
                "start_time": 16.293181818181818,
                "end_time": 16.4,
                "pitch": 83,
                "velocity": 64,
                "duration": 0.10681818181818059,
                "tempo": 120.0
            },
            {
                "start_time": 16.41590909090909,
                "end_time": 16.520454545454545,
                "pitch": 81,
                "velocity": 64,
                "duration": 0.10454545454545539,
                "tempo": 120.0
            },
            {
                "start_time": 16.538636363636364,
                "end_time": 16.627272727272725,
                "pitch": 83,
                "velocity": 64,
                "duration": 0.08863636363636118,
                "tempo": 120.0
            },
            {
                "start_time": 16.643181818181816,
                "end_time": 16.85681818181818,
                "pitch": 81,
                "velocity": 64,
                "duration": 0.21363636363636473,
                "tempo": 120.0
            },
            {
                "start_time": 16.87272727272727,
                "end_time": 17.068181818181817,
                "pitch": 76,
                "velocity": 64,
                "duration": 0.19545454545454533,
                "tempo": 120.0
            },
            {
                "start_time": 17.084090909090907,
                "end_time": 17.186363636363634,
                "pitch": 81,
                "velocity": 64,
                "duration": 0.10227272727272663,
                "tempo": 120.0
            },
            {
                "start_time": 17.202272727272728,
                "end_time": 17.302272727272726,
                "pitch": 83,
                "velocity": 64,
                "duration": 0.09999999999999787,
                "tempo": 120.0
            },
            {
                "start_time": 17.318181818181817,
                "end_time": 17.418181818181818,
                "pitch": 81,
                "velocity": 64,
                "duration": 0.10000000000000142,
                "tempo": 120.0
            },
            {
                "start_time": 17.436363636363634,
                "end_time": 17.520454545454545,
                "pitch": 83,
                "velocity": 64,
                "duration": 0.08409090909091077,
                "tempo": 120.0
            },
            {
                "start_time": 17.536363636363635,
                "end_time": 17.74772727272727,
                "pitch": 81,
                "velocity": 64,
                "duration": 0.21136363636363598,
                "tempo": 120.0
            },
            {
                "start_time": 17.763636363636362,
                "end_time": 17.961363636363636,
                "pitch": 76,
                "velocity": 64,
                "duration": 0.19772727272727408,
                "tempo": 120.0
            },
            {
                "start_time": 17.977272727272727,
                "end_time": 18.411363636363635,
                "pitch": 78,
                "velocity": 64,
                "duration": 0.43409090909090864,
                "tempo": 120.0
            },
            {
                "start_time": 18.672727272727272,
                "end_time": 18.779545454545453,
                "pitch": 81,
                "velocity": 64,
                "duration": 0.10681818181818059,
                "tempo": 120.0
            },
            {
                "start_time": 18.795454545454543,
                "end_time": 18.884090909090908,
                "pitch": 85,
                "velocity": 64,
                "duration": 0.08863636363636473,
                "tempo": 120.0
            },
            {
                "start_time": 18.902272727272727,
                "end_time": 19.118181818181817,
                "pitch": 83,
                "velocity": 64,
                "duration": 0.21590909090908994,
                "tempo": 120.0
            },
            {
                "start_time": 19.136363636363637,
                "end_time": 19.336363636363636,
                "pitch": 81,
                "velocity": 64,
                "duration": 0.1999999999999993,
                "tempo": 120.0
            },
            {
                "start_time": 19.352272727272727,
                "end_time": 19.768181818181816,
                "pitch": 78,
                "velocity": 64,
                "duration": 0.41590909090908923,
                "tempo": 120.0
            },
            {
                "start_time": 19.784090909090907,
                "end_time": 19.888636363636362,
                "pitch": 81,
                "velocity": 64,
                "duration": 0.10454545454545539,
                "tempo": 120.0
            },
            {
                "start_time": 19.90681818181818,
                "end_time": 20.011363636363637,
                "pitch": 83,
                "velocity": 64,
                "duration": 0.10454545454545539,
                "tempo": 120.0
            },
            {
                "start_time": 20.027272727272727,
                "end_time": 20.134090909090908,
                "pitch": 81,
                "velocity": 64,
                "duration": 0.10681818181818059,
                "tempo": 120.0
            },
            {
                "start_time": 20.15,
                "end_time": 20.238636363636363,
                "pitch": 83,
                "velocity": 64,
                "duration": 0.08863636363636473,
                "tempo": 120.0
            },
            {
                "start_time": 20.254545454545454,
                "end_time": 20.354545454545452,
                "pitch": 81,
                "velocity": 64,
                "duration": 0.09999999999999787,
                "tempo": 120.0
            },
            {
                "start_time": 20.370454545454546,
                "end_time": 20.46818181818182,
                "pitch": 83,
                "velocity": 64,
                "duration": 0.09772727272727266,
                "tempo": 120.0
            },
            {
                "start_time": 20.48409090909091,
                "end_time": 20.581818181818182,
                "pitch": 81,
                "velocity": 64,
                "duration": 0.09772727272727266,
                "tempo": 120.0
            },
            {
                "start_time": 20.597727272727273,
                "end_time": 20.679545454545455,
                "pitch": 83,
                "velocity": 64,
                "duration": 0.08181818181818201,
                "tempo": 120.0
            },
            {
                "start_time": 20.69772727272727,
                "end_time": 20.797727272727272,
                "pitch": 81,
                "velocity": 64,
                "duration": 0.10000000000000142,
                "tempo": 120.0
            },
            {
                "start_time": 20.813636363636363,
                "end_time": 20.913636363636364,
                "pitch": 83,
                "velocity": 64,
                "duration": 0.10000000000000142,
                "tempo": 120.0
            },
            {
                "start_time": 20.93181818181818,
                "end_time": 21.03181818181818,
                "pitch": 81,
                "velocity": 64,
                "duration": 0.10000000000000142,
                "tempo": 120.0
            },
            {
                "start_time": 21.047727272727272,
                "end_time": 21.13181818181818,
                "pitch": 83,
                "velocity": 64,
                "duration": 0.08409090909090722,
                "tempo": 120.0
            },
            {
                "start_time": 21.147727272727273,
                "end_time": 21.59318181818182,
                "pitch": 81,
                "velocity": 64,
                "duration": 0.4454545454545453,
                "tempo": 120.0
            }
        ],
        "Clarinet": [
            {
                "start_time": 0.015909090909090907,
                "end_time": 0.029545454545454545,
                "pitch": 81,
                "velocity": 51,
                "duration": 0.013636363636363637,
                "tempo": 120.0
            },
            {
                "start_time": 0.6727272727272727,
                "end_time": 0.7727272727272727,
                "pitch": 81,
                "velocity": 51,
                "duration": 0.09999999999999998,
                "tempo": 120.0
            },
            {
                "start_time": 0.7909090909090909,
                "end_time": 0.8909090909090909,
                "pitch": 85,
                "velocity": 51,
                "duration": 0.09999999999999998,
                "tempo": 120.0
            },
            {
                "start_time": 0.9068181818181817,
                "end_time": 1.1068181818181817,
                "pitch": 83,
                "velocity": 51,
                "duration": 0.19999999999999996,
                "tempo": 120.0
            },
            {
                "start_time": 1.125,
                "end_time": 1.3409090909090908,
                "pitch": 81,
                "velocity": 51,
                "duration": 0.21590909090909083,
                "tempo": 120.0
            },
            {
                "start_time": 1.3590909090909091,
                "end_time": 1.7954545454545454,
                "pitch": 78,
                "velocity": 51,
                "duration": 0.4363636363636363,
                "tempo": 120.0
            },
            {
                "start_time": 1.8136363636363635,
                "end_time": 3.5977272727272727,
                "pitch": 76,
                "velocity": 51,
                "duration": 1.7840909090909092,
                "tempo": 120.0
            },
            {
                "start_time": 4.290909090909091,
                "end_time": 4.393181818181818,
                "pitch": 81,
                "velocity": 51,
                "duration": 0.10227272727272663,
                "tempo": 120.0
            },
            {
                "start_time": 4.411363636363636,
                "end_time": 4.513636363636364,
                "pitch": 85,
                "velocity": 51,
                "duration": 0.10227272727272751,
                "tempo": 120.0
            },
            {
                "start_time": 4.529545454545454,
                "end_time": 4.736363636363636,
                "pitch": 83,
                "velocity": 51,
                "duration": 0.206818181818182,
                "tempo": 120.0
            },
            {
                "start_time": 4.752272727272727,
                "end_time": 4.970454545454545,
                "pitch": 81,
                "velocity": 51,
                "duration": 0.2181818181818178,
                "tempo": 120.0
            },
            {
                "start_time": 4.986363636363636,
                "end_time": 5.406818181818181,
                "pitch": 78,
                "velocity": 51,
                "duration": 0.42045454545454497,
                "tempo": 120.0
            },
            {
                "start_time": 5.425,
                "end_time": 7.211363636363636,
                "pitch": 81,
                "velocity": 51,
                "duration": 1.7863636363636362,
                "tempo": 120.0
            },
            {
                "start_time": 7.8954545454545455,
                "end_time": 7.995454545454545,
                "pitch": 81,
                "velocity": 51,
                "duration": 0.09999999999999964,
                "tempo": 120.0
            },
            {
                "start_time": 8.013636363636364,
                "end_time": 8.113636363636363,
                "pitch": 85,
                "velocity": 51,
                "duration": 0.09999999999999964,
                "tempo": 120.0
            },
            {
                "start_time": 8.129545454545454,
                "end_time": 8.329545454545453,
                "pitch": 83,
                "velocity": 51,
                "duration": 0.1999999999999993,
                "tempo": 120.0
            },
            {
                "start_time": 8.347727272727273,
                "end_time": 8.563636363636363,
                "pitch": 81,
                "velocity": 51,
                "duration": 0.21590909090908994,
                "tempo": 120.0
            },
            {
                "start_time": 8.581818181818182,
                "end_time": 9.018181818181818,
                "pitch": 78,
                "velocity": 51,
                "duration": 0.4363636363636356,
                "tempo": 120.0
            },
            {
                "start_time": 9.036363636363635,
                "end_time": 10.822727272727272,
                "pitch": 76,
                "velocity": 51,
                "duration": 1.786363636363637,
                "tempo": 120.0
            },
            {
                "start_time": 11.509090909090908,
                "end_time": 11.60681818181818,
                "pitch": 81,
                "velocity": 51,
                "duration": 0.09772727272727266,
                "tempo": 120.0
            },
            {
                "start_time": 11.625,
                "end_time": 11.725,
                "pitch": 85,
                "velocity": 51,
                "duration": 0.09999999999999964,
                "tempo": 120.0
            },
            {
                "start_time": 11.74090909090909,
                "end_time": 11.94090909090909,
                "pitch": 83,
                "velocity": 51,
                "duration": 0.1999999999999993,
                "tempo": 120.0
            },
            {
                "start_time": 11.959090909090909,
                "end_time": 12.174999999999999,
                "pitch": 81,
                "velocity": 51,
                "duration": 0.21590909090908994,
                "tempo": 120.0
            },
            {
                "start_time": 12.193181818181818,
                "end_time": 12.629545454545454,
                "pitch": 78,
                "velocity": 51,
                "duration": 0.4363636363636356,
                "tempo": 120.0
            },
            {
                "start_time": 12.647727272727272,
                "end_time": 14.434090909090909,
                "pitch": 81,
                "velocity": 51,
                "duration": 1.786363636363637,
                "tempo": 120.0
            },
            {
                "start_time": 15.125,
                "end_time": 15.227272727272727,
                "pitch": 81,
                "velocity": 51,
                "duration": 0.10227272727272663,
                "tempo": 120.0
            },
            {
                "start_time": 15.245454545454544,
                "end_time": 15.347727272727273,
                "pitch": 85,
                "velocity": 51,
                "duration": 0.1022727272727284,
                "tempo": 120.0
            },
            {
                "start_time": 15.36590909090909,
                "end_time": 15.570454545454545,
                "pitch": 83,
                "velocity": 51,
                "duration": 0.20454545454545503,
                "tempo": 120.0
            },
            {
                "start_time": 15.586363636363636,
                "end_time": 15.804545454545453,
                "pitch": 81,
                "velocity": 51,
                "duration": 0.21818181818181692,
                "tempo": 120.0
            },
            {
                "start_time": 15.820454545454545,
                "end_time": 16.24090909090909,
                "pitch": 78,
                "velocity": 51,
                "duration": 0.4204545454545432,
                "tempo": 120.0
            },
            {
                "start_time": 16.259090909090908,
                "end_time": 18.045454545454543,
                "pitch": 76,
                "velocity": 51,
                "duration": 1.7863636363636353,
                "tempo": 120.0
            },
            {
                "start_time": 18.743181818181817,
                "end_time": 18.847727272727273,
                "pitch": 81,
                "velocity": 51,
                "duration": 0.10454545454545539,
                "tempo": 120.0
            },
            {
                "start_time": 18.86590909090909,
                "end_time": 18.96818181818182,
                "pitch": 85,
                "velocity": 51,
                "duration": 0.10227272727273018,
                "tempo": 120.0
            },
            {
                "start_time": 18.98409090909091,
                "end_time": 19.186363636363634,
                "pitch": 83,
                "velocity": 51,
                "duration": 0.2022727272727245,
                "tempo": 120.0
            },
            {
                "start_time": 19.202272727272728,
                "end_time": 19.41590909090909,
                "pitch": 81,
                "velocity": 51,
                "duration": 0.21363636363636118,
                "tempo": 120.0
            },
            {
                "start_time": 19.43181818181818,
                "end_time": 19.852272727272727,
                "pitch": 78,
                "velocity": 51,
                "duration": 0.42045454545454675,
                "tempo": 120.0
            },
            {
                "start_time": 19.870454545454546,
                "end_time": 21.672727272727272,
                "pitch": 81,
                "velocity": 51,
                "duration": 1.802272727272726,
                "tempo": 120.0
            }
        ]
    }
}