{
    "track_id": "California Games (FM) - 06 - Surfing",
    "mood": "happy",
    "instruments": {
        "Electric Guitar (clean)": [
            {
                "start_time": 0.6409090909090909,
                "end_time": 1.0363636363636364,
                "pitch": 32,
                "velocity": 64,
                "duration": 0.3954545454545455,
                "tempo": 120.0
            },
            {
                "start_time": 1.0545454545454545,
                "end_time": 1.2431818181818182,
                "pitch": 32,
                "velocity": 64,
                "duration": 0.1886363636363637,
                "tempo": 120.0
            },
            {
                "start_time": 1.259090909090909,
                "end_time": 1.4659090909090908,
                "pitch": 32,
                "velocity": 64,
                "duration": 0.2068181818181818,
                "tempo": 120.0
            },
            {
                "start_time": 1.5,
                "end_time": 1.6727272727272726,
                "pitch": 27,
                "velocity": 64,
                "duration": 0.17272727272727262,
                "tempo": 120.0
            },
            {
                "start_time": 1.6886363636363635,
                "end_time": 1.8772727272727272,
                "pitch": 27,
                "velocity": 64,
                "duration": 0.1886363636363637,
                "tempo": 120.0
            },
            {
                "start_time": 1.8954545454545453,
                "end_time": 2.2886363636363636,
                "pitch": 30,
                "velocity": 64,
                "duration": 0.3931818181818183,
                "tempo": 120.0
            },
            {
                "start_time": 2.3045454545454542,
                "end_time": 2.7068181818181816,
                "pitch": 32,
                "velocity": 64,
                "duration": 0.40227272727272734,
                "tempo": 120.0
            },
            {
                "start_time": 2.7227272727272727,
                "end_time": 2.911363636363636,
                "pitch": 32,
                "velocity": 64,
                "duration": 0.1886363636363635,
                "tempo": 120.0
            },
            {
                "start_time": 2.9272727272727272,
                "end_time": 3.134090909090909,
                "pitch": 32,
                "velocity": 64,
                "duration": 0.20681818181818157,
                "tempo": 120.0
            },
            {
                "start_time": 3.1522727272727273,
                "end_time": 3.3363636363636364,
                "pitch": 27,
                "velocity": 64,
                "duration": 0.18409090909090908,
                "tempo": 120.0
            },
            {
                "start_time": 3.368181818181818,
                "end_time": 3.536363636363636,
                "pitch": 27,
                "velocity": 64,
                "duration": 0.168181818181818,
                "tempo": 120.0
            },
            {
                "start_time": 3.5522727272727272,
                "end_time": 3.954545454545454,
                "pitch": 30,
                "velocity": 64,
                "duration": 0.4022727272727269,
                "tempo": 120.0
            },
            {
                "start_time": 3.9863636363636363,
                "end_time": 4.370454545454545,
                "pitch": 32,
                "velocity": 64,
                "duration": 0.3840909090909088,
                "tempo": 120.0
            },
            {
                "start_time": 4.388636363636364,
                "end_time": 4.577272727272727,
                "pitch": 32,
                "velocity": 64,
                "duration": 0.1886363636363635,
                "tempo": 120.0
            },
            {
                "start_time": 4.593181818181818,
                "end_time": 4.8,
                "pitch": 32,
                "velocity": 64,
                "duration": 0.206818181818182,
                "tempo": 120.0
            },
            {
                "start_time": 4.818181818181818,
                "end_time": 5.002272727272727,
                "pitch": 27,
                "velocity": 64,
                "duration": 0.18409090909090864,
                "tempo": 120.0
            },
            {
                "start_time": 5.034090909090909,
                "end_time": 5.218181818181818,
                "pitch": 27,
                "velocity": 64,
                "duration": 0.18409090909090864,
                "tempo": 120.0
            },
            {
                "start_time": 5.2340909090909085,
                "end_time": 5.629545454545454,
                "pitch": 30,
                "velocity": 64,
                "duration": 0.3954545454545455,
                "tempo": 120.0
            },
            {
                "start_time": 5.6477272727272725,
                "end_time": 6.040909090909091,
                "pitch": 32,
                "velocity": 64,
                "duration": 0.3931818181818185,
                "tempo": 120.0
            },
            {
                "start_time": 6.056818181818182,
                "end_time": 6.245454545454545,
                "pitch": 32,
                "velocity": 64,
                "duration": 0.1886363636363635,
                "tempo": 120.0
            },
            {
                "start_time": 6.261363636363636,
                "end_time": 6.468181818181818,
                "pitch": 32,
                "velocity": 64,
                "duration": 0.206818181818182,
                "tempo": 120.0
            },
            {
                "start_time": 6.486363636363636,
                "end_time": 6.675,
                "pitch": 27,
                "velocity": 64,
                "duration": 0.1886363636363635,
                "tempo": 120.0
            },
            {
                "start_time": 6.6909090909090905,
                "end_time": 6.8977272727272725,
                "pitch": 27,
                "velocity": 64,
                "duration": 0.206818181818182,
                "tempo": 120.0
            },
            {
                "start_time": 6.915909090909091,
                "end_time": 7.3,
                "pitch": 30,
                "velocity": 64,
                "duration": 0.3840909090909088,
                "tempo": 120.0
            },
            {
                "start_time": 7.334090909090909,
                "end_time": 7.709090909090909,
                "pitch": 37,
                "velocity": 64,
                "duration": 0.375,
                "tempo": 120.0
            },
            {
                "start_time": 7.743181818181818,
                "end_time": 7.931818181818182,
                "pitch": 37,
                "velocity": 64,
                "duration": 0.1886363636363635,
                "tempo": 120.0
            },
            {
                "start_time": 7.947727272727272,
                "end_time": 8.136363636363637,
                "pitch": 37,
                "velocity": 64,
                "duration": 0.18863636363636438,
                "tempo": 120.0
            },
            {
                "start_time": 8.154545454545454,
                "end_time": 8.343181818181817,
                "pitch": 32,
                "velocity": 64,
                "duration": 0.1886363636363626,
                "tempo": 120.0
            },
            {
                "start_time": 8.361363636363636,
                "end_time": 8.565909090909091,
                "pitch": 32,
                "velocity": 64,
                "duration": 0.20454545454545503,
                "tempo": 120.0
            },
            {
                "start_time": 8.6,
                "end_time": 8.979545454545454,
                "pitch": 35,
                "velocity": 64,
                "duration": 0.37954545454545396,
                "tempo": 120.0
            },
            {
                "start_time": 9.013636363636364,
                "end_time": 9.397727272727272,
                "pitch": 37,
                "velocity": 64,
                "duration": 0.38409090909090793,
                "tempo": 120.0
            },
            {
                "start_time": 9.431818181818182,
                "end_time": 9.611363636363636,
                "pitch": 37,
                "velocity": 64,
                "duration": 0.17954545454545467,
                "tempo": 120.0
            },
            {
                "start_time": 9.627272727272727,
                "end_time": 9.809090909090909,
                "pitch": 37,
                "velocity": 64,
                "duration": 0.18181818181818166,
                "tempo": 120.0
            },
            {
                "start_time": 9.825,
                "end_time": 10.006818181818181,
                "pitch": 32,
                "velocity": 64,
                "duration": 0.18181818181818166,
                "tempo": 120.0
            },
            {
                "start_time": 10.025,
                "end_time": 10.225,
                "pitch": 32,
                "velocity": 64,
                "duration": 0.1999999999999993,
                "tempo": 120.0
            },
            {
                "start_time": 10.259090909090908,
                "end_time": 10.654545454545454,
                "pitch": 35,
                "velocity": 64,
                "duration": 0.3954545454545464,
                "tempo": 120.0
            },
            {
                "start_time": 10.670454545454545,
                "end_time": 11.054545454545455,
                "pitch": 32,
                "velocity": 64,
                "duration": 0.3840909090909097,
                "tempo": 120.0
            },
            {
                "start_time": 11.072727272727272,
                "end_time": 11.272727272727272,
                "pitch": 32,
                "velocity": 64,
                "duration": 0.1999999999999993,
                "tempo": 120.0
            },
            {
                "start_time": 11.288636363636362,
                "end_time": 11.472727272727273,
                "pitch": 32,
                "velocity": 64,
                "duration": 0.18409090909091042,
                "tempo": 120.0
            },
            {
                "start_time": 11.488636363636363,
                "end_time": 11.695454545454545,
                "pitch": 27,
                "velocity": 64,
                "duration": 0.206818181818182,
                "tempo": 120.0
            },
            {
                "start_time": 11.711363636363636,
                "end_time": 11.902272727272727,
                "pitch": 27,
                "velocity": 64,
                "duration": 0.19090909090909136,
                "tempo": 120.0
            },
            {
                "start_time": 11.918181818181818,
                "end_time": 12.320454545454545,
                "pitch": 30,
                "velocity": 64,
                "duration": 0.40227272727272734,
                "tempo": 120.0
            },
            {
                "start_time": 12.336363636363636,
                "end_time": 12.73181818181818,
                "pitch": 32,
                "velocity": 64,
                "duration": 0.3954545454545446,
                "tempo": 120.0
            },
            {
                "start_time": 12.747727272727271,
                "end_time": 12.945454545454545,
                "pitch": 32,
                "velocity": 64,
                "duration": 0.19772727272727408,
                "tempo": 120.0
            },
            {
                "start_time": 12.977272727272727,
                "end_time": 13.143181818181818,
                "pitch": 32,
                "velocity": 64,
                "duration": 0.165909090909091,
                "tempo": 120.0
            },
            {
                "start_time": 13.159090909090908,
                "end_time": 13.363636363636363,
                "pitch": 27,
                "velocity": 64,
                "duration": 0.20454545454545503,
                "tempo": 120.0
            },
            {
                "start_time": 13.381818181818181,
                "end_time": 13.570454545454545,
                "pitch": 27,
                "velocity": 64,
                "duration": 0.18863636363636438,
                "tempo": 120.0
            },
            {
                "start_time": 13.586363636363636,
                "end_time": 13.988636363636363,
                "pitch": 30,
                "velocity": 64,
                "duration": 0.40227272727272734,
                "tempo": 120.0
            },
            {
                "start_time": 14.004545454545454,
                "end_time": 14.415909090909091,
                "pitch": 39,
                "velocity": 64,
                "duration": 0.41136363636363704,
                "tempo": 120.0
            },
            {
                "start_time": 14.434090909090909,
                "end_time": 14.618181818181817,
                "pitch": 39,
                "velocity": 64,
                "duration": 0.18409090909090864,
                "tempo": 120.0
            },
            {
                "start_time": 14.634090909090908,
                "end_time": 14.818181818181818,
                "pitch": 39,
                "velocity": 64,
                "duration": 0.18409090909091042,
                "tempo": 120.0
            },
            {
                "start_time": 14.834090909090909,
                "end_time": 15.031818181818181,
                "pitch": 39,
                "velocity": 64,
                "duration": 0.1977272727272723,
                "tempo": 120.0
            },
            {
                "start_time": 15.047727272727272,
                "end_time": 15.227272727272727,
                "pitch": 39,
                "velocity": 64,
                "duration": 0.17954545454545467,
                "tempo": 120.0
            },
            {
                "start_time": 15.245454545454544,
                "end_time": 15.431818181818182,
                "pitch": 38,
                "velocity": 64,
                "duration": 0.1863636363636374,
                "tempo": 120.0
            },
            {
                "start_time": 15.484090909090908,
                "end_time": 15.656818181818181,
                "pitch": 38,
                "velocity": 64,
                "duration": 0.17272727272727373,
                "tempo": 120.0
            },
            {
                "start_time": 15.672727272727272,
                "end_time": 15.861363636363636,
                "pitch": 37,
                "velocity": 64,
                "duration": 0.18863636363636438,
                "tempo": 120.0
            },
            {
                "start_time": 15.879545454545454,
                "end_time": 16.086363636363636,
                "pitch": 37,
                "velocity": 64,
                "duration": 0.206818181818182,
                "tempo": 120.0
            },
            {
                "start_time": 16.102272727272727,
                "end_time": 16.286363636363635,
                "pitch": 37,
                "velocity": 64,
                "duration": 0.18409090909090864,
                "tempo": 120.0
            },
            {
                "start_time": 16.304545454545455,
                "end_time": 16.486363636363635,
                "pitch": 37,
                "velocity": 64,
                "duration": 0.18181818181817988,
                "tempo": 120.0
            },
            {
                "start_time": 16.71590909090909,
                "end_time": 16.895454545454545,
                "pitch": 37,
                "velocity": 64,
                "duration": 0.17954545454545467,
                "tempo": 120.0
            },
            {
                "start_time": 16.911363636363635,
                "end_time": 17.11590909090909,
                "pitch": 37,
                "velocity": 64,
                "duration": 0.20454545454545325,
                "tempo": 120.0
            },
            {
                "start_time": 17.134090909090908,
                "end_time": 17.32272727272727,
                "pitch": 37,
                "velocity": 64,
                "duration": 0.1886363636363626,
                "tempo": 120.0
            },
            {
                "start_time": 17.35681818181818,
                "end_time": 17.752272727272725,
                "pitch": 32,
                "velocity": 64,
                "duration": 0.3954545454545446,
                "tempo": 120.0
            },
            {
                "start_time": 17.768181818181816,
                "end_time": 17.956818181818182,
                "pitch": 32,
                "velocity": 64,
                "duration": 0.18863636363636616,
                "tempo": 120.0
            },
            {
                "start_time": 17.974999999999998,
                "end_time": 18.18181818181818,
                "pitch": 32,
                "velocity": 64,
                "duration": 0.206818181818182,
                "tempo": 120.0
            },
            {
                "start_time": 18.21590909090909,
                "end_time": 18.38181818181818,
                "pitch": 27,
                "velocity": 64,
                "duration": 0.16590909090908923,
                "tempo": 120.0
            },
            {
                "start_time": 18.4,
                "end_time": 18.584090909090907,
                "pitch": 27,
                "velocity": 64,
                "duration": 0.18409090909090864,
                "tempo": 120.0
            },
            {
                "start_time": 18.599999999999998,
                "end_time": 18.8,
                "pitch": 30,
                "velocity": 64,
                "duration": 0.20000000000000284,
                "tempo": 120.0
            },
            {
                "start_time": 18.81590909090909,
                "end_time": 19.0,
                "pitch": 31,
                "velocity": 64,
                "duration": 0.18409090909090864,
                "tempo": 120.0
            },
            {
                "start_time": 19.034090909090907,
                "end_time": 19.202272727272728,
                "pitch": 32,
                "velocity": 64,
                "duration": 0.16818181818182154,
                "tempo": 120.0
            },
            {
                "start_time": 19.21818181818182,
                "end_time": 19.418181818181818,
                "pitch": 27,
                "velocity": 64,
                "duration": 0.1999999999999993,
                "tempo": 120.0
            },
            {
                "start_time": 19.43409090909091,
                "end_time": 19.62272727272727,
                "pitch": 27,
                "velocity": 64,
                "duration": 0.1886363636363626,
                "tempo": 120.0
            },
            {
                "start_time": 19.64090909090909,
                "end_time": 19.847727272727273,
                "pitch": 27,
                "velocity": 64,
                "duration": 0.206818181818182,
                "tempo": 120.0
            },
            {
                "start_time": 19.88181818181818,
                "end_time": 20.047727272727272,
                "pitch": 27,
                "velocity": 64,
                "duration": 0.16590909090909278,
                "tempo": 120.0
            },
            {
                "start_time": 20.06590909090909,
                "end_time": 20.24772727272727,
                "pitch": 27,
                "velocity": 64,
                "duration": 0.18181818181817988,
                "tempo": 120.0
            },
            {
                "start_time": 20.26590909090909,
                "end_time": 20.461363636363636,
                "pitch": 27,
                "velocity": 64,
                "duration": 0.19545454545454533,
                "tempo": 120.0
            },
            {
                "start_time": 20.477272727272727,
                "end_time": 20.659090909090907,
                "pitch": 27,
                "velocity": 64,
                "duration": 0.18181818181817988,
                "tempo": 120.0
            },
            {
                "start_time": 20.675,
                "end_time": 21.086363636363636,
                "pitch": 32,
                "velocity": 64,
                "duration": 0.41136363636363527,
                "tempo": 120.0
            },
            {
                "start_time": 21.102272727272727,
                "end_time": 21.504545454545454,
                "pitch": 32,
                "velocity": 64,
                "duration": 0.40227272727272734,
                "tempo": 120.0
            },
            {
                "start_time": 21.520454545454545,
                "end_time": 21.91590909090909,
                "pitch": 32,
                "velocity": 64,
                "duration": 0.3954545454545446,
                "tempo": 120.0
            },
            {
                "start_time": 21.95,
                "end_time": 22.345454545454544,
                "pitch": 32,
                "velocity": 64,
                "duration": 0.3954545454545446,
                "tempo": 120.0
            },
            {
                "start_time": 22.363636363636363,
                "end_time": 22.956818181818182,
                "pitch": 39,
                "velocity": 64,
                "duration": 0.5931818181818187,
                "tempo": 120.0
            },
            {
                "start_time": 22.972727272727273,
                "end_time": 23.59090909090909,
                "pitch": 39,
                "velocity": 40,
                "duration": 0.6181818181818173,
                "tempo": 120.0
            },
            {
                "start_time": 23.60681818181818,
                "end_time": 23.993181818181817,
                "pitch": 39,
                "velocity": 40,
                "duration": 0.3863636363636367,
                "tempo": 120.0
            },
            {
                "start_time": 24.025,
                "end_time": 24.409090909090907,
                "pitch": 32,
                "velocity": 64,
                "duration": 0.38409090909090793,
                "tempo": 120.0
            },
            {
                "start_time": 24.427272727272726,
                "end_time": 24.83863636363636,
                "pitch": 32,
                "velocity": 64,
                "duration": 0.41136363636363527,
                "tempo": 120.0
            },
            {
                "start_time": 24.854545454545452,
                "end_time": 25.268181818181816,
                "pitch": 32,
                "velocity": 64,
                "duration": 0.413636363636364,
                "tempo": 120.0
            },
            {
                "start_time": 25.284090909090907,
                "end_time": 25.679545454545455,
                "pitch": 32,
                "velocity": 64,
                "duration": 0.39545454545454817,
                "tempo": 120.0
            },
            {
                "start_time": 25.69772727272727,
                "end_time": 26.304545454545455,
                "pitch": 39,
                "velocity": 64,
                "duration": 0.6068181818181841,
                "tempo": 120.0
            },
            {
                "start_time": 26.32272727272727,
                "end_time": 26.922727272727272,
                "pitch": 39,
                "velocity": 40,
                "duration": 0.6000000000000014,
                "tempo": 120.0
            },
            {
                "start_time": 26.94090909090909,
                "end_time": 27.35909090909091,
                "pitch": 39,
                "velocity": 40,
                "duration": 0.418181818181818,
                "tempo": 120.0
            },
            {
                "start_time": 27.395454545454545,
                "end_time": 27.761363636363637,
                "pitch": 25,
                "velocity": 64,
                "duration": 0.36590909090909207,
                "tempo": 120.0
            },
            {
                "start_time": 27.795454545454543,
                "end_time": 28.179545454545455,
                "pitch": 25,
                "velocity": 64,
                "duration": 0.3840909090909115,
                "tempo": 120.0
            },
            {
                "start_time": 28.19772727272727,
                "end_time": 28.597727272727273,
                "pitch": 25,
                "velocity": 64,
                "duration": 0.40000000000000213,
                "tempo": 120.0
            },
            {
                "start_time": 28.63181818181818,
                "end_time": 29.027272727272727,
                "pitch": 25,
                "velocity": 64,
                "duration": 0.39545454545454817,
                "tempo": 120.0
            },
            {
                "start_time": 29.043181818181818,
                "end_time": 29.64090909090909,
                "pitch": 39,
                "velocity": 64,
                "duration": 0.5977272727272727,
                "tempo": 120.0
            },
            {
                "start_time": 29.65681818181818,
                "end_time": 30.263636363636362,
                "pitch": 39,
                "velocity": 40,
                "duration": 0.6068181818181806,
                "tempo": 120.0
            },
            {
                "start_time": 30.279545454545453,
                "end_time": 30.670454545454543,
                "pitch": 39,
                "velocity": 40,
                "duration": 0.39090909090909065,
                "tempo": 120.0
            },
            {
                "start_time": 30.702272727272724,
                "end_time": 31.10681818181818,
                "pitch": 32,
                "velocity": 64,
                "duration": 0.4045454545454561,
                "tempo": 120.0
            },
            {
                "start_time": 31.125,
                "end_time": 31.520454545454545,
                "pitch": 32,
                "velocity": 64,
                "duration": 0.3954545454545446,
                "tempo": 120.0
            },
            {
                "start_time": 31.536363636363635,
                "end_time": 31.927272727272726,
                "pitch": 32,
                "velocity": 64,
                "duration": 0.39090909090909065,
                "tempo": 120.0
            },
            {
                "start_time": 31.943181818181817,
                "end_time": 32.35454545454545,
                "pitch": 32,
                "velocity": 64,
                "duration": 0.41136363636363527,
                "tempo": 120.0
            },
            {
                "start_time": 32.37272727272727,
                "end_time": 32.98181818181818,
                "pitch": 39,
                "velocity": 64,
                "duration": 0.6090909090909093,
                "tempo": 120.0
            },
            {
                "start_time": 32.99772727272727,
                "end_time": 33.59318181818182,
                "pitch": 39,
                "velocity": 40,
                "duration": 0.595454545454551,
                "tempo": 120.0
            },
            {
                "start_time": 33.60909090909091,
                "end_time": 34.0,
                "pitch": 39,
                "velocity": 40,
                "duration": 0.39090909090909065,
                "tempo": 120.0
            },
            {
                "start_time": 34.03409090909091,
                "end_time": 34.43636363636364,
                "pitch": 27,
                "velocity": 64,
                "duration": 0.4022727272727309,
                "tempo": 120.0
            },
            {
                "start_time": 35.699999999999996,
                "end_time": 36.095454545454544,
                "pitch": 25,
                "velocity": 64,
                "duration": 0.39545454545454817,
                "tempo": 120.0
            },
            {
                "start_time": 37.36590909090909,
                "end_time": 37.77045454545454,
                "pitch": 32,
                "velocity": 64,
                "duration": 0.404545454545449,
                "tempo": 120.0
            },
            {
                "start_time": 39.01590909090909,
                "end_time": 39.43636363636364,
                "pitch": 32,
                "velocity": 64,
                "duration": 0.42045454545454675,
                "tempo": 120.0
            }
        ],
        "Clarinet": [
            {
                "start_time": 0.0,
                "end_time": 0.17954545454545454,
                "pitch": 51,
                "velocity": 51,
                "duration": 0.17954545454545454,
                "tempo": 120.0
            },
            {
                "start_time": 0.19545454545454544,
                "end_time": 0.39999999999999997,
                "pitch": 54,
                "velocity": 51,
                "duration": 0.20454545454545453,
                "tempo": 120.0
            },
            {
                "start_time": 0.41818181818181815,
                "end_time": 0.6068181818181818,
                "pitch": 55,
                "velocity": 51,
                "duration": 0.18863636363636366,
                "tempo": 120.0
            },
            {
                "start_time": 0.6409090909090909,
                "end_time": 1.2431818181818182,
                "pitch": 56,
                "velocity": 51,
                "duration": 0.6022727272727273,
                "tempo": 120.0
            },
            {
                "start_time": 1.2772727272727271,
                "end_time": 1.8772727272727272,
                "pitch": 59,
                "velocity": 51,
                "duration": 0.6000000000000001,
                "tempo": 120.0
            },
            {
                "start_time": 1.9113636363636364,
                "end_time": 2.2886363636363636,
                "pitch": 61,
                "velocity": 51,
                "duration": 0.3772727272727272,
                "tempo": 120.0
            },
            {
                "start_time": 2.3227272727272728,
                "end_time": 2.911363636363636,
                "pitch": 63,
                "velocity": 51,
                "duration": 0.5886363636363634,
                "tempo": 120.0
            },
            {
                "start_time": 2.9454545454545453,
                "end_time": 3.536363636363636,
                "pitch": 61,
                "velocity": 51,
                "duration": 0.5909090909090908,
                "tempo": 120.0
            },
            {
                "start_time": 3.5704545454545453,
                "end_time": 3.954545454545454,
                "pitch": 59,
                "velocity": 51,
                "duration": 0.3840909090909088,
                "tempo": 120.0
            },
            {
                "start_time": 3.9863636363636363,
                "end_time": 4.577272727272727,
                "pitch": 56,
                "velocity": 51,
                "duration": 0.5909090909090908,
                "tempo": 120.0
            },
            {
                "start_time": 4.611363636363636,
                "end_time": 5.218181818181818,
                "pitch": 59,
                "velocity": 51,
                "duration": 0.6068181818181815,
                "tempo": 120.0
            },
            {
                "start_time": 5.252272727272727,
                "end_time": 5.629545454545454,
                "pitch": 63,
                "velocity": 51,
                "duration": 0.377272727272727,
                "tempo": 120.0
            },
            {
                "start_time": 5.663636363636363,
                "end_time": 6.245454545454545,
                "pitch": 66,
                "velocity": 51,
                "duration": 0.581818181818182,
                "tempo": 120.0
            },
            {
                "start_time": 6.279545454545454,
                "end_time": 6.8977272727272725,
                "pitch": 65,
                "velocity": 51,
                "duration": 0.6181818181818182,
                "tempo": 120.0
            },
            {
                "start_time": 6.931818181818182,
                "end_time": 7.3,
                "pitch": 63,
                "velocity": 51,
                "duration": 0.36818181818181817,
                "tempo": 120.0
            },
            {
                "start_time": 7.334090909090909,
                "end_time": 7.931818181818182,
                "pitch": 61,
                "velocity": 51,
                "duration": 0.5977272727272727,
                "tempo": 120.0
            },
            {
                "start_time": 7.965909090909091,
                "end_time": 8.565909090909091,
                "pitch": 64,
                "velocity": 51,
                "duration": 0.6000000000000005,
                "tempo": 120.0
            },
            {
                "start_time": 8.6,
                "end_time": 8.979545454545454,
                "pitch": 66,
                "velocity": 51,
                "duration": 0.37954545454545396,
                "tempo": 120.0
            },
            {
                "start_time": 9.029545454545454,
                "end_time": 9.611363636363636,
                "pitch": 68,
                "velocity": 51,
                "duration": 0.581818181818182,
                "tempo": 120.0
            },
            {
                "start_time": 9.643181818181818,
                "end_time": 10.225,
                "pitch": 66,
                "velocity": 51,
                "duration": 0.581818181818182,
                "tempo": 120.0
            },
            {
                "start_time": 10.259090909090908,
                "end_time": 10.654545454545454,
                "pitch": 64,
                "velocity": 51,
                "duration": 0.3954545454545464,
                "tempo": 120.0
            },
            {
                "start_time": 10.688636363636363,
                "end_time": 11.272727272727272,
                "pitch": 59,
                "velocity": 51,
                "duration": 0.584090909090909,
                "tempo": 120.0
            },
            {
                "start_time": 11.306818181818182,
                "end_time": 11.902272727272727,
                "pitch": 63,
                "velocity": 51,
                "duration": 0.5954545454545457,
                "tempo": 120.0
            },
            {
                "start_time": 11.936363636363636,
                "end_time": 12.320454545454545,
                "pitch": 68,
                "velocity": 51,
                "duration": 0.3840909090909097,
                "tempo": 120.0
            },
            {
                "start_time": 12.352272727272727,
                "end_time": 12.945454545454545,
                "pitch": 68,
                "velocity": 51,
                "duration": 0.5931818181818187,
                "tempo": 120.0
            },
            {
                "start_time": 12.977272727272727,
                "end_time": 13.570454545454545,
                "pitch": 70,
                "velocity": 51,
                "duration": 0.5931818181818187,
                "tempo": 120.0
            },
            {
                "start_time": 13.604545454545454,
                "end_time": 13.988636363636363,
                "pitch": 68,
                "velocity": 51,
                "duration": 0.3840909090909097,
                "tempo": 120.0
            },
            {
                "start_time": 14.022727272727272,
                "end_time": 14.618181818181817,
                "pitch": 67,
                "velocity": 51,
                "duration": 0.5954545454545457,
                "tempo": 120.0
            },
            {
                "start_time": 14.652272727272727,
                "end_time": 15.227272727272727,
                "pitch": 67,
                "velocity": 51,
                "duration": 0.5749999999999993,
                "tempo": 120.0
            },
            {
                "start_time": 15.261363636363635,
                "end_time": 15.656818181818181,
                "pitch": 66,
                "velocity": 51,
                "duration": 0.3954545454545464,
                "tempo": 120.0
            },
            {
                "start_time": 15.69090909090909,
                "end_time": 16.286363636363635,
                "pitch": 64,
                "velocity": 51,
                "duration": 0.5954545454545457,
                "tempo": 120.0
            },
            {
                "start_time": 16.320454545454545,
                "end_time": 16.895454545454545,
                "pitch": 63,
                "velocity": 51,
                "duration": 0.5749999999999993,
                "tempo": 120.0
            },
            {
                "start_time": 16.927272727272726,
                "end_time": 17.32272727272727,
                "pitch": 64,
                "velocity": 51,
                "duration": 0.3954545454545446,
                "tempo": 120.0
            },
            {
                "start_time": 17.35681818181818,
                "end_time": 17.956818181818182,
                "pitch": 56,
                "velocity": 51,
                "duration": 0.6000000000000014,
                "tempo": 120.0
            },
            {
                "start_time": 17.993181818181817,
                "end_time": 18.584090909090907,
                "pitch": 59,
                "velocity": 51,
                "duration": 0.5909090909090899,
                "tempo": 120.0
            },
            {
                "start_time": 18.61590909090909,
                "end_time": 19.0,
                "pitch": 61,
                "velocity": 51,
                "duration": 0.3840909090909115,
                "tempo": 120.0
            },
            {
                "start_time": 19.034090909090907,
                "end_time": 19.62272727272727,
                "pitch": 63,
                "velocity": 51,
                "duration": 0.5886363636363647,
                "tempo": 120.0
            },
            {
                "start_time": 19.65681818181818,
                "end_time": 20.24772727272727,
                "pitch": 67,
                "velocity": 51,
                "duration": 0.5909090909090899,
                "tempo": 120.0
            },
            {
                "start_time": 20.28181818181818,
                "end_time": 20.659090909090907,
                "pitch": 63,
                "velocity": 51,
                "duration": 0.3772727272727252,
                "tempo": 120.0
            },
            {
                "start_time": 20.69090909090909,
                "end_time": 21.086363636363636,
                "pitch": 56,
                "velocity": 51,
                "duration": 0.3954545454545446,
                "tempo": 120.0
            },
            {
                "start_time": 21.120454545454546,
                "end_time": 21.504545454545454,
                "pitch": 56,
                "velocity": 51,
                "duration": 0.38409090909090793,
                "tempo": 120.0
            },
            {
                "start_time": 21.538636363636364,
                "end_time": 21.91590909090909,
                "pitch": 56,
                "velocity": 51,
                "duration": 0.3772727272727252,
                "tempo": 120.0
            },
            {
                "start_time": 21.96818181818182,
                "end_time": 22.345454545454544,
                "pitch": 56,
                "velocity": 51,
                "duration": 0.3772727272727252,
                "tempo": 120.0
            },
            {
                "start_time": 24.025,
                "end_time": 24.409090909090907,
                "pitch": 59,
                "velocity": 51,
                "duration": 0.38409090909090793,
                "tempo": 120.0
            },
            {
                "start_time": 24.443181818181817,
                "end_time": 24.83863636363636,
                "pitch": 59,
                "velocity": 51,
                "duration": 0.3954545454545446,
                "tempo": 120.0
            },
            {
                "start_time": 24.87272727272727,
                "end_time": 25.268181818181816,
                "pitch": 59,
                "velocity": 51,
                "duration": 0.3954545454545446,
                "tempo": 120.0
            },
            {
                "start_time": 25.302272727272726,
                "end_time": 25.679545454545455,
                "pitch": 59,
                "velocity": 51,
                "duration": 0.37727272727272876,
                "tempo": 120.0
            },
            {
                "start_time": 27.395454545454545,
                "end_time": 27.761363636363637,
                "pitch": 64,
                "velocity": 51,
                "duration": 0.36590909090909207,
                "tempo": 120.0
            },
            {
                "start_time": 27.795454545454543,
                "end_time": 28.179545454545455,
                "pitch": 64,
                "velocity": 51,
                "duration": 0.3840909090909115,
                "tempo": 120.0
            },
            {
                "start_time": 28.21363636363636,
                "end_time": 28.597727272727273,
                "pitch": 64,
                "velocity": 51,
                "duration": 0.3840909090909115,
                "tempo": 120.0
            },
            {
                "start_time": 28.63181818181818,
                "end_time": 29.027272727272727,
                "pitch": 64,
                "velocity": 51,
                "duration": 0.39545454545454817,
                "tempo": 120.0
            },
            {
                "start_time": 30.702272727272724,
                "end_time": 31.10681818181818,
                "pitch": 63,
                "velocity": 51,
                "duration": 0.4045454545454561,
                "tempo": 120.0
            },
            {
                "start_time": 31.14090909090909,
                "end_time": 31.520454545454545,
                "pitch": 63,
                "velocity": 51,
                "duration": 0.37954545454545396,
                "tempo": 120.0
            },
            {
                "start_time": 31.554545454545455,
                "end_time": 31.927272727272726,
                "pitch": 63,
                "velocity": 51,
                "duration": 0.37272727272727124,
                "tempo": 120.0
            },
            {
                "start_time": 31.961363636363636,
                "end_time": 32.35454545454545,
                "pitch": 63,
                "velocity": 51,
                "duration": 0.39318181818181586,
                "tempo": 120.0
            },
            {
                "start_time": 34.03409090909091,
                "end_time": 34.43636363636364,
                "pitch": 68,
                "velocity": 51,
                "duration": 0.4022727272727309,
                "tempo": 120.0
            },
            {
                "start_time": 35.699999999999996,
                "end_time": 36.095454545454544,
                "pitch": 63,
                "velocity": 51,
                "duration": 0.39545454545454817,
                "tempo": 120.0
            },
            {
                "start_time": 37.36590909090909,
                "end_time": 37.77045454545454,
                "pitch": 63,
                "velocity": 51,
                "duration": 0.404545454545449,
                "tempo": 120.0
            },
            {
                "start_time": 39.03409090909091,
                "end_time": 39.43636363636364,
                "pitch": 59,
                "velocity": 51,
                "duration": 0.4022727272727309,
                "tempo": 120.0
            },
            {
                "start_time": 40.10681818181818,
                "end_time": 40.29545454545455,
                "pitch": 51,
                "velocity": 51,
                "duration": 0.1886363636363697,
                "tempo": 120.0
            },
            {
                "start_time": 40.31363636363636,
                "end_time": 40.49772727272727,
                "pitch": 54,
                "velocity": 51,
                "duration": 0.18409090909090509,
                "tempo": 120.0
            },
            {
                "start_time": 40.51363636363636,
                "end_time": 40.69772727272727,
                "pitch": 55,
                "velocity": 51,
                "duration": 0.1840909090909122,
                "tempo": 120.0
            }
        ],
        "Lead 2 (sawtooth)": [
            {
                "start_time": 0.04772727272727272,
                "end_time": 0.21136363636363636,
                "pitch": 51,
                "velocity": 51,
                "duration": 0.16363636363636364,
                "tempo": 120.0
            },
            {
                "start_time": 0.24545454545454545,
                "end_time": 0.4340909090909091,
                "pitch": 54,
                "velocity": 51,
                "duration": 0.18863636363636363,
                "tempo": 120.0
            },
            {
                "start_time": 0.47045454545454546,
                "end_time": 0.625,
                "pitch": 55,
                "velocity": 51,
                "duration": 0.15454545454545454,
                "tempo": 120.0
            },
            {
                "start_time": 0.625,
                "end_time": 0.6590909090909091,
                "pitch": 55,
                "velocity": 51,
                "duration": 0.03409090909090906,
                "tempo": 120.0
            },
            {
                "start_time": 0.6749999999999999,
                "end_time": 0.8477272727272727,
                "pitch": 55,
                "velocity": 51,
                "duration": 0.17272727272727273,
                "tempo": 120.0
            },
            {
                "start_time": 0.8818181818181817,
                "end_time": 1.0704545454545453,
                "pitch": 56,
                "velocity": 51,
                "duration": 0.1886363636363636,
                "tempo": 120.0
            },
            {
                "start_time": 1.1045454545454545,
                "end_time": 1.2772727272727271,
                "pitch": 56,
                "velocity": 51,
                "duration": 0.17272727272727262,
                "tempo": 120.0
            },
            {
                "start_time": 1.3113636363636363,
                "end_time": 1.518181818181818,
                "pitch": 56,
                "velocity": 51,
                "duration": 0.2068181818181818,
                "tempo": 120.0
            },
            {
                "start_time": 1.534090909090909,
                "end_time": 1.7068181818181818,
                "pitch": 56,
                "velocity": 51,
                "duration": 0.17272727272727284,
                "tempo": 120.0
            },
            {
                "start_time": 1.7409090909090907,
                "end_time": 1.9113636363636364,
                "pitch": 54,
                "velocity": 51,
                "duration": 0.17045454545454564,
                "tempo": 120.0
            },
            {
                "start_time": 1.9454545454545453,
                "end_time": 2.125,
                "pitch": 51,
                "velocity": 51,
                "duration": 0.17954545454545467,
                "tempo": 120.0
            },
            {
                "start_time": 2.3545454545454545,
                "end_time": 2.5386363636363636,
                "pitch": 68,
                "velocity": 51,
                "duration": 0.18409090909090908,
                "tempo": 120.0
            },
            {
                "start_time": 2.5727272727272728,
                "end_time": 2.7386363636363633,
                "pitch": 56,
                "velocity": 51,
                "duration": 0.16590909090909056,
                "tempo": 120.0
            },
            {
                "start_time": 2.7727272727272725,
                "end_time": 2.9454545454545453,
                "pitch": 56,
                "velocity": 51,
                "duration": 0.17272727272727284,
                "tempo": 120.0
            },
            {
                "start_time": 2.9795454545454545,
                "end_time": 3.186363636363636,
                "pitch": 56,
                "velocity": 51,
                "duration": 0.20681818181818157,
                "tempo": 120.0
            },
            {
                "start_time": 3.202272727272727,
                "end_time": 3.368181818181818,
                "pitch": 56,
                "velocity": 51,
                "duration": 0.165909090909091,
                "tempo": 120.0
            },
            {
                "start_time": 3.402272727272727,
                "end_time": 3.5704545454545453,
                "pitch": 59,
                "velocity": 51,
                "duration": 0.16818181818181843,
                "tempo": 120.0
            },
            {
                "start_time": 3.620454545454545,
                "end_time": 3.786363636363636,
                "pitch": 56,
                "velocity": 51,
                "duration": 0.165909090909091,
                "tempo": 120.0
            },
            {
                "start_time": 4.0204545454545455,
                "end_time": 4.204545454545454,
                "pitch": 54,
                "velocity": 51,
                "duration": 0.18409090909090864,
                "tempo": 120.0
            },
            {
                "start_time": 4.238636363636363,
                "end_time": 4.404545454545454,
                "pitch": 56,
                "velocity": 51,
                "duration": 0.165909090909091,
                "tempo": 120.0
            },
            {
                "start_time": 4.4386363636363635,
                "end_time": 4.611363636363636,
                "pitch": 56,
                "velocity": 51,
                "duration": 0.17272727272727284,
                "tempo": 120.0
            },
            {
                "start_time": 4.6454545454545455,
                "end_time": 4.834090909090909,
                "pitch": 56,
                "velocity": 51,
                "duration": 0.1886363636363635,
                "tempo": 120.0
            },
            {
                "start_time": 4.868181818181818,
                "end_time": 5.052272727272727,
                "pitch": 56,
                "velocity": 51,
                "duration": 0.18409090909090864,
                "tempo": 120.0
            },
            {
                "start_time": 5.068181818181818,
                "end_time": 5.252272727272727,
                "pitch": 54,
                "velocity": 51,
                "duration": 0.18409090909090864,
                "tempo": 120.0
            },
            {
                "start_time": 5.286363636363636,
                "end_time": 5.459090909090909,
                "pitch": 51,
                "velocity": 51,
                "duration": 0.17272727272727284,
                "tempo": 120.0
            },
            {
                "start_time": 5.493181818181818,
                "end_time": 5.663636363636363,
                "pitch": 51,
                "velocity": 51,
                "duration": 0.17045454545454497,
                "tempo": 120.0
            },
            {
                "start_time": 5.697727272727272,
                "end_time": 5.893181818181818,
                "pitch": 54,
                "velocity": 51,
                "duration": 0.19545454545454533,
                "tempo": 120.0
            },
            {
                "start_time": 5.909090909090909,
                "end_time": 6.072727272727272,
                "pitch": 56,
                "velocity": 51,
                "duration": 0.16363636363636314,
                "tempo": 120.0
            },
            {
                "start_time": 6.1068181818181815,
                "end_time": 6.297727272727273,
                "pitch": 56,
                "velocity": 51,
                "duration": 0.19090909090909136,
                "tempo": 120.0
            },
            {
                "start_time": 6.331818181818181,
                "end_time": 6.502272727272727,
                "pitch": 59,
                "velocity": 51,
                "duration": 0.17045454545454586,
                "tempo": 120.0
            },
            {
                "start_time": 6.536363636363636,
                "end_time": 6.725,
                "pitch": 61,
                "velocity": 51,
                "duration": 0.1886363636363635,
                "tempo": 120.0
            },
            {
                "start_time": 6.743181818181818,
                "end_time": 6.931818181818182,
                "pitch": 59,
                "velocity": 51,
                "duration": 0.1886363636363635,
                "tempo": 120.0
            },
            {
                "start_time": 6.965909090909091,
                "end_time": 7.131818181818182,
                "pitch": 56,
                "velocity": 51,
                "duration": 0.165909090909091,
                "tempo": 120.0
            },
            {
                "start_time": 7.16590909090909,
                "end_time": 7.334090909090909,
                "pitch": 54,
                "velocity": 51,
                "duration": 0.16818181818181888,
                "tempo": 120.0
            },
            {
                "start_time": 7.36590909090909,
                "end_time": 7.561363636363636,
                "pitch": 59,
                "velocity": 51,
                "duration": 0.19545454545454533,
                "tempo": 120.0
            },
            {
                "start_time": 7.579545454545454,
                "end_time": 7.743181818181818,
                "pitch": 61,
                "velocity": 51,
                "duration": 0.16363636363636402,
                "tempo": 120.0
            },
            {
                "start_time": 7.777272727272727,
                "end_time": 7.965909090909091,
                "pitch": 61,
                "velocity": 51,
                "duration": 0.1886363636363635,
                "tempo": 120.0
            },
            {
                "start_time": 8.0,
                "end_time": 8.172727272727272,
                "pitch": 61,
                "velocity": 51,
                "duration": 0.17272727272727195,
                "tempo": 120.0
            },
            {
                "start_time": 8.206818181818182,
                "end_time": 8.377272727272727,
                "pitch": 61,
                "velocity": 51,
                "duration": 0.17045454545454497,
                "tempo": 120.0
            },
            {
                "start_time": 8.411363636363635,
                "end_time": 8.6,
                "pitch": 59,
                "velocity": 51,
                "duration": 0.18863636363636438,
                "tempo": 120.0
            },
            {
                "start_time": 8.636363636363637,
                "end_time": 8.806818181818182,
                "pitch": 56,
                "velocity": 51,
                "duration": 0.17045454545454497,
                "tempo": 120.0
            },
            {
                "start_time": 8.84090909090909,
                "end_time": 9.029545454545454,
                "pitch": 54,
                "velocity": 51,
                "duration": 0.18863636363636438,
                "tempo": 120.0
            },
            {
                "start_time": 9.063636363636363,
                "end_time": 9.23181818181818,
                "pitch": 56,
                "velocity": 51,
                "duration": 0.168181818181818,
                "tempo": 120.0
            },
            {
                "start_time": 9.463636363636363,
                "end_time": 9.643181818181818,
                "pitch": 59,
                "velocity": 51,
                "duration": 0.17954545454545467,
                "tempo": 120.0
            },
            {
                "start_time": 9.875,
                "end_time": 10.040909090909091,
                "pitch": 61,
                "velocity": 51,
                "duration": 0.165909090909091,
                "tempo": 120.0
            },
            {
                "start_time": 10.293181818181818,
                "end_time": 10.463636363636363,
                "pitch": 62,
                "velocity": 51,
                "duration": 0.17045454545454497,
                "tempo": 120.0
            },
            {
                "start_time": 10.720454545454546,
                "end_time": 10.888636363636364,
                "pitch": 62,
                "velocity": 51,
                "duration": 0.168181818181818,
                "tempo": 120.0
            },
            {
                "start_time": 10.922727272727272,
                "end_time": 11.104545454545454,
                "pitch": 61,
                "velocity": 51,
                "duration": 0.18181818181818166,
                "tempo": 120.0
            },
            {
                "start_time": 11.122727272727273,
                "end_time": 11.306818181818182,
                "pitch": 59,
                "velocity": 51,
                "duration": 0.18409090909090864,
                "tempo": 120.0
            },
            {
                "start_time": 11.338636363636363,
                "end_time": 11.506818181818181,
                "pitch": 56,
                "velocity": 51,
                "duration": 0.168181818181818,
                "tempo": 120.0
            },
            {
                "start_time": 11.540909090909091,
                "end_time": 11.729545454545454,
                "pitch": 54,
                "velocity": 51,
                "duration": 0.1886363636363626,
                "tempo": 120.0
            },
            {
                "start_time": 11.763636363636364,
                "end_time": 11.952272727272726,
                "pitch": 56,
                "velocity": 51,
                "duration": 0.1886363636363626,
                "tempo": 120.0
            },
            {
                "start_time": 11.968181818181817,
                "end_time": 12.136363636363635,
                "pitch": 56,
                "velocity": 51,
                "duration": 0.168181818181818,
                "tempo": 120.0
            },
            {
                "start_time": 12.388636363636364,
                "end_time": 12.559090909090909,
                "pitch": 54,
                "velocity": 51,
                "duration": 0.17045454545454497,
                "tempo": 120.0
            },
            {
                "start_time": 12.593181818181817,
                "end_time": 12.797727272727272,
                "pitch": 56,
                "velocity": 51,
                "duration": 0.20454545454545503,
                "tempo": 120.0
            },
            {
                "start_time": 12.813636363636363,
                "end_time": 12.977272727272727,
                "pitch": 56,
                "velocity": 51,
                "duration": 0.16363636363636402,
                "tempo": 120.0
            },
            {
                "start_time": 13.011363636363635,
                "end_time": 13.174999999999999,
                "pitch": 56,
                "velocity": 51,
                "duration": 0.16363636363636402,
                "tempo": 120.0
            },
            {
                "start_time": 13.209090909090909,
                "end_time": 13.397727272727272,
                "pitch": 56,
                "velocity": 51,
                "duration": 0.1886363636363626,
                "tempo": 120.0
            },
            {
                "start_time": 13.431818181818182,
                "end_time": 13.604545454545454,
                "pitch": 66,
                "velocity": 51,
                "duration": 0.17272727272727195,
                "tempo": 120.0
            },
            {
                "start_time": 13.636363636363635,
                "end_time": 13.804545454545455,
                "pitch": 56,
                "velocity": 51,
                "duration": 0.16818181818181976,
                "tempo": 120.0
            },
            {
                "start_time": 14.056818181818182,
                "end_time": 14.227272727272727,
                "pitch": 63,
                "velocity": 51,
                "duration": 0.17045454545454497,
                "tempo": 120.0
            },
            {
                "start_time": 14.261363636363635,
                "end_time": 14.45,
                "pitch": 63,
                "velocity": 51,
                "duration": 0.18863636363636438,
                "tempo": 120.0
            },
            {
                "start_time": 14.484090909090908,
                "end_time": 14.652272727272727,
                "pitch": 63,
                "velocity": 51,
                "duration": 0.16818181818181976,
                "tempo": 120.0
            },
            {
                "start_time": 14.884090909090908,
                "end_time": 15.063636363636363,
                "pitch": 63,
                "velocity": 51,
                "duration": 0.17954545454545467,
                "tempo": 120.0
            },
            {
                "start_time": 15.295454545454545,
                "end_time": 15.484090909090908,
                "pitch": 62,
                "velocity": 51,
                "duration": 0.1886363636363626,
                "tempo": 120.0
            },
            {
                "start_time": 15.725,
                "end_time": 15.897727272727272,
                "pitch": 61,
                "velocity": 51,
                "duration": 0.17272727272727195,
                "tempo": 120.0
            },
            {
                "start_time": 15.931818181818182,
                "end_time": 16.120454545454546,
                "pitch": 60,
                "velocity": 51,
                "duration": 0.18863636363636438,
                "tempo": 120.0
            },
            {
                "start_time": 16.152272727272727,
                "end_time": 16.336363636363636,
                "pitch": 61,
                "velocity": 51,
                "duration": 0.18409090909090864,
                "tempo": 120.0
            },
            {
                "start_time": 16.354545454545455,
                "end_time": 16.520454545454545,
                "pitch": 60,
                "velocity": 51,
                "duration": 0.16590909090908923,
                "tempo": 120.0
            },
            {
                "start_time": 16.570454545454545,
                "end_time": 16.73181818181818,
                "pitch": 61,
                "velocity": 51,
                "duration": 0.16136363636363527,
                "tempo": 120.0
            },
            {
                "start_time": 16.763636363636362,
                "end_time": 16.927272727272726,
                "pitch": 60,
                "velocity": 51,
                "duration": 0.16363636363636402,
                "tempo": 120.0
            },
            {
                "start_time": 16.961363636363636,
                "end_time": 17.15,
                "pitch": 59,
                "velocity": 51,
                "duration": 0.1886363636363626,
                "tempo": 120.0
            },
            {
                "start_time": 17.39090909090909,
                "end_time": 17.563636363636363,
                "pitch": 66,
                "velocity": 51,
                "duration": 0.17272727272727195,
                "tempo": 120.0
            },
            {
                "start_time": 17.597727272727273,
                "end_time": 17.786363636363635,
                "pitch": 56,
                "velocity": 51,
                "duration": 0.1886363636363626,
                "tempo": 120.0
            },
            {
                "start_time": 17.820454545454545,
                "end_time": 17.993181818181817,
                "pitch": 56,
                "velocity": 51,
                "duration": 0.17272727272727195,
                "tempo": 120.0
            },
            {
                "start_time": 18.027272727272727,
                "end_time": 18.21590909090909,
                "pitch": 56,
                "velocity": 51,
                "duration": 0.1886363636363626,
                "tempo": 120.0
            },
            {
                "start_time": 18.25,
                "end_time": 18.41590909090909,
                "pitch": 56,
                "velocity": 51,
                "duration": 0.16590909090908923,
                "tempo": 120.0
            },
            {
                "start_time": 18.45,
                "end_time": 18.61590909090909,
                "pitch": 54,
                "velocity": 51,
                "duration": 0.16590909090908923,
                "tempo": 120.0
            },
            {
                "start_time": 18.65,
                "end_time": 18.834090909090907,
                "pitch": 51,
                "velocity": 51,
                "duration": 0.18409090909090864,
                "tempo": 120.0
            },
            {
                "start_time": 19.068181818181817,
                "end_time": 19.252272727272725,
                "pitch": 56,
                "velocity": 51,
                "duration": 0.18409090909090864,
                "tempo": 120.0
            },
            {
                "start_time": 19.284090909090907,
                "end_time": 19.452272727272728,
                "pitch": 51,
                "velocity": 51,
                "duration": 0.16818181818182154,
                "tempo": 120.0
            },
            {
                "start_time": 19.486363636363635,
                "end_time": 19.65681818181818,
                "pitch": 51,
                "velocity": 51,
                "duration": 0.17045454545454675,
                "tempo": 120.0
            },
            {
                "start_time": 19.693181818181817,
                "end_time": 19.897727272727273,
                "pitch": 51,
                "velocity": 51,
                "duration": 0.2045454545454568,
                "tempo": 120.0
            },
            {
                "start_time": 19.913636363636364,
                "end_time": 20.081818181818182,
                "pitch": 54,
                "velocity": 51,
                "duration": 0.168181818181818,
                "tempo": 120.0
            },
            {
                "start_time": 20.11590909090909,
                "end_time": 20.28181818181818,
                "pitch": 51,
                "velocity": 51,
                "duration": 0.16590909090909278,
                "tempo": 120.0
            },
            {
                "start_time": 20.313636363636363,
                "end_time": 20.495454545454546,
                "pitch": 54,
                "velocity": 51,
                "duration": 0.18181818181818343,
                "tempo": 120.0
            },
            {
                "start_time": 20.527272727272727,
                "end_time": 20.709090909090907,
                "pitch": 55,
                "velocity": 51,
                "duration": 0.18181818181817988,
                "tempo": 120.0
            },
            {
                "start_time": 20.724999999999998,
                "end_time": 21.120454545454546,
                "pitch": 56,
                "velocity": 51,
                "duration": 0.39545454545454817,
                "tempo": 120.0
            },
            {
                "start_time": 21.154545454545453,
                "end_time": 21.554545454545455,
                "pitch": 56,
                "velocity": 51,
                "duration": 0.40000000000000213,
                "tempo": 120.0
            },
            {
                "start_time": 21.57272727272727,
                "end_time": 21.96818181818182,
                "pitch": 56,
                "velocity": 51,
                "duration": 0.39545454545454817,
                "tempo": 120.0
            },
            {
                "start_time": 22.002272727272725,
                "end_time": 22.379545454545454,
                "pitch": 56,
                "velocity": 51,
                "duration": 0.37727272727272876,
                "tempo": 120.0
            },
            {
                "start_time": 24.05909090909091,
                "end_time": 24.443181818181817,
                "pitch": 56,
                "velocity": 51,
                "duration": 0.38409090909090793,
                "tempo": 120.0
            },
            {
                "start_time": 24.477272727272727,
                "end_time": 24.87272727272727,
                "pitch": 56,
                "velocity": 51,
                "duration": 0.3954545454545446,
                "tempo": 120.0
            },
            {
                "start_time": 24.90681818181818,
                "end_time": 25.302272727272726,
                "pitch": 56,
                "velocity": 51,
                "duration": 0.3954545454545446,
                "tempo": 120.0
            },
            {
                "start_time": 25.336363636363636,
                "end_time": 25.73181818181818,
                "pitch": 56,
                "velocity": 51,
                "duration": 0.3954545454545446,
                "tempo": 120.0
            },
            {
                "start_time": 27.427272727272726,
                "end_time": 27.813636363636363,
                "pitch": 61,
                "velocity": 51,
                "duration": 0.3863636363636367,
                "tempo": 120.0
            },
            {
                "start_time": 27.829545454545453,
                "end_time": 28.21363636363636,
                "pitch": 61,
                "velocity": 51,
                "duration": 0.38409090909090793,
                "tempo": 120.0
            },
            {
                "start_time": 28.24772727272727,
                "end_time": 28.64772727272727,
                "pitch": 61,
                "velocity": 51,
                "duration": 0.3999999999999986,
                "tempo": 120.0
            },
            {
                "start_time": 28.66590909090909,
                "end_time": 29.061363636363634,
                "pitch": 61,
                "velocity": 51,
                "duration": 0.3954545454545446,
                "tempo": 120.0
            },
            {
                "start_time": 30.738636363636363,
                "end_time": 31.159090909090907,
                "pitch": 56,
                "velocity": 51,
                "duration": 0.4204545454545432,
                "tempo": 120.0
            },
            {
                "start_time": 31.177272727272726,
                "end_time": 31.554545454545455,
                "pitch": 56,
                "velocity": 51,
                "duration": 0.37727272727272876,
                "tempo": 120.0
            },
            {
                "start_time": 31.586363636363636,
                "end_time": 31.961363636363636,
                "pitch": 56,
                "velocity": 51,
                "duration": 0.375,
                "tempo": 120.0
            },
            {
                "start_time": 31.995454545454542,
                "end_time": 32.39090909090909,
                "pitch": 56,
                "velocity": 51,
                "duration": 0.39545454545454817,
                "tempo": 120.0
            },
            {
                "start_time": 34.06818181818181,
                "end_time": 34.47272727272727,
                "pitch": 63,
                "velocity": 51,
                "duration": 0.4045454545454561,
                "tempo": 120.0
            },
            {
                "start_time": 35.73409090909091,
                "end_time": 36.12954545454545,
                "pitch": 61,
                "velocity": 51,
                "duration": 0.39545454545454106,
                "tempo": 120.0
            },
            {
                "start_time": 37.402272727272724,
                "end_time": 37.804545454545455,
                "pitch": 56,
                "velocity": 51,
                "duration": 0.4022727272727309,
                "tempo": 120.0
            },
            {
                "start_time": 39.06818181818181,
                "end_time": 39.47272727272727,
                "pitch": 56,
                "velocity": 51,
                "duration": 0.4045454545454561,
                "tempo": 120.0
            },
            {
                "start_time": 40.14090909090909,
                "end_time": 40.32954545454545,
                "pitch": 51,
                "velocity": 51,
                "duration": 0.1886363636363626,
                "tempo": 120.0
            },
            {
                "start_time": 40.36363636363636,
                "end_time": 40.53181818181818,
                "pitch": 54,
                "velocity": 51,
                "duration": 0.16818181818182154,
                "tempo": 120.0
            },
            {
                "start_time": 40.56363636363636,
                "end_time": 40.715909090909086,
                "pitch": 55,
                "velocity": 51,
                "duration": 0.15227272727272378,
                "tempo": 120.0
            }
        ]
    }
}