{
    "track_id": "California Games (FM) - 01 - Louie Louie",
    "mood": "happy",
    "instruments": {
        "Harpsichord": [
            {
                "start_time": 1.7272727272727273,
                "end_time": 1.793181818181818,
                "pitch": 50,
                "velocity": 80,
                "duration": 0.0659090909090907,
                "tempo": 120.0
            },
            {
                "start_time": 1.809090909090909,
                "end_time": 2.161363636363636,
                "pitch": 52,
                "velocity": 80,
                "duration": 0.35227272727272707,
                "tempo": 120.0
            },
            {
                "start_time": 2.1954545454545453,
                "end_time": 2.4,
                "pitch": 45,
                "velocity": 80,
                "duration": 0.20454545454545459,
                "tempo": 120.0
            },
            {
                "start_time": 2.415909090909091,
                "end_time": 2.6386363636363637,
                "pitch": 45,
                "velocity": 80,
                "duration": 0.22272727272727266,
                "tempo": 120.0
            },
            {
                "start_time": 2.6568181818181817,
                "end_time": 2.868181818181818,
                "pitch": 45,
                "velocity": 80,
                "duration": 0.21136363636363642,
                "tempo": 120.0
            },
            {
                "start_time": 3.3204545454545453,
                "end_time": 3.5295454545454543,
                "pitch": 62,
                "velocity": 80,
                "duration": 0.209090909090909,
                "tempo": 120.0
            },
            {
                "start_time": 3.5454545454545454,
                "end_time": 3.745454545454545,
                "pitch": 62,
                "velocity": 80,
                "duration": 0.19999999999999973,
                "tempo": 120.0
            },
            {
                "start_time": 3.9977272727272726,
                "end_time": 4.213636363636364,
                "pitch": 64,
                "velocity": 80,
                "duration": 0.21590909090909127,
                "tempo": 120.0
            },
            {
                "start_time": 4.2318181818181815,
                "end_time": 4.447727272727272,
                "pitch": 64,
                "velocity": 80,
                "duration": 0.21590909090909083,
                "tempo": 120.0
            },
            {
                "start_time": 4.465909090909091,
                "end_time": 4.665909090909091,
                "pitch": 64,
                "velocity": 80,
                "duration": 0.20000000000000018,
                "tempo": 120.0
            },
            {
                "start_time": 5.156818181818181,
                "end_time": 5.361363636363636,
                "pitch": 50,
                "velocity": 80,
                "duration": 0.20454545454545503,
                "tempo": 120.0
            },
            {
                "start_time": 5.3954545454545455,
                "end_time": 5.595454545454545,
                "pitch": 50,
                "velocity": 80,
                "duration": 0.1999999999999993,
                "tempo": 120.0
            },
            {
                "start_time": 5.847727272727273,
                "end_time": 6.054545454545455,
                "pitch": 49,
                "velocity": 80,
                "duration": 0.206818181818182,
                "tempo": 120.0
            },
            {
                "start_time": 6.070454545454545,
                "end_time": 6.261363636363636,
                "pitch": 49,
                "velocity": 80,
                "duration": 0.19090909090909047,
                "tempo": 120.0
            },
            {
                "start_time": 6.277272727272727,
                "end_time": 6.5,
                "pitch": 49,
                "velocity": 80,
                "duration": 0.22272727272727266,
                "tempo": 120.0
            },
            {
                "start_time": 6.995454545454545,
                "end_time": 7.202272727272727,
                "pitch": 62,
                "velocity": 80,
                "duration": 0.206818181818182,
                "tempo": 120.0
            },
            {
                "start_time": 7.218181818181818,
                "end_time": 7.422727272727272,
                "pitch": 62,
                "velocity": 80,
                "duration": 0.20454545454545414,
                "tempo": 120.0
            },
            {
                "start_time": 7.656818181818181,
                "end_time": 7.861363636363636,
                "pitch": 64,
                "velocity": 80,
                "duration": 0.20454545454545503,
                "tempo": 120.0
            },
            {
                "start_time": 7.879545454545454,
                "end_time": 8.102272727272727,
                "pitch": 64,
                "velocity": 80,
                "duration": 0.22272727272727266,
                "tempo": 120.0
            },
            {
                "start_time": 8.118181818181817,
                "end_time": 8.331818181818182,
                "pitch": 64,
                "velocity": 80,
                "duration": 0.21363636363636473,
                "tempo": 120.0
            },
            {
                "start_time": 8.793181818181818,
                "end_time": 9.011363636363637,
                "pitch": 50,
                "velocity": 80,
                "duration": 0.2181818181818187,
                "tempo": 120.0
            },
            {
                "start_time": 9.027272727272727,
                "end_time": 9.25,
                "pitch": 50,
                "velocity": 80,
                "duration": 0.22272727272727266,
                "tempo": 120.0
            },
            {
                "start_time": 9.488636363636363,
                "end_time": 9.697727272727272,
                "pitch": 49,
                "velocity": 80,
                "duration": 0.209090909090909,
                "tempo": 120.0
            },
            {
                "start_time": 9.713636363636363,
                "end_time": 9.920454545454545,
                "pitch": 49,
                "velocity": 80,
                "duration": 0.206818181818182,
                "tempo": 120.0
            },
            {
                "start_time": 9.936363636363636,
                "end_time": 10.14090909090909,
                "pitch": 49,
                "velocity": 80,
                "duration": 0.20454545454545503,
                "tempo": 120.0
            },
            {
                "start_time": 10.622727272727273,
                "end_time": 10.829545454545453,
                "pitch": 50,
                "velocity": 80,
                "duration": 0.20681818181818024,
                "tempo": 120.0
            },
            {
                "start_time": 10.845454545454546,
                "end_time": 11.054545454545455,
                "pitch": 50,
                "velocity": 80,
                "duration": 0.209090909090909,
                "tempo": 120.0
            },
            {
                "start_time": 11.318181818181818,
                "end_time": 11.524999999999999,
                "pitch": 52,
                "velocity": 80,
                "duration": 0.20681818181818024,
                "tempo": 120.0
            },
            {
                "start_time": 11.540909090909091,
                "end_time": 11.73409090909091,
                "pitch": 52,
                "velocity": 80,
                "duration": 0.19318181818181834,
                "tempo": 120.0
            },
            {
                "start_time": 11.76590909090909,
                "end_time": 11.970454545454546,
                "pitch": 52,
                "velocity": 80,
                "duration": 0.20454545454545503,
                "tempo": 120.0
            },
            {
                "start_time": 12.45,
                "end_time": 12.643181818181818,
                "pitch": 50,
                "velocity": 80,
                "duration": 0.19318181818181834,
                "tempo": 120.0
            },
            {
                "start_time": 12.659090909090908,
                "end_time": 12.875,
                "pitch": 50,
                "velocity": 80,
                "duration": 0.21590909090909172,
                "tempo": 120.0
            },
            {
                "start_time": 13.127272727272727,
                "end_time": 13.327272727272726,
                "pitch": 49,
                "velocity": 80,
                "duration": 0.1999999999999993,
                "tempo": 120.0
            },
            {
                "start_time": 13.361363636363636,
                "end_time": 13.561363636363636,
                "pitch": 49,
                "velocity": 80,
                "duration": 0.1999999999999993,
                "tempo": 120.0
            },
            {
                "start_time": 13.577272727272726,
                "end_time": 13.795454545454545,
                "pitch": 49,
                "velocity": 80,
                "duration": 0.2181818181818187,
                "tempo": 120.0
            },
            {
                "start_time": 14.263636363636364,
                "end_time": 14.48181818181818,
                "pitch": 50,
                "velocity": 80,
                "duration": 0.21818181818181692,
                "tempo": 120.0
            },
            {
                "start_time": 14.497727272727271,
                "end_time": 14.71590909090909,
                "pitch": 50,
                "velocity": 80,
                "duration": 0.2181818181818187,
                "tempo": 120.0
            },
            {
                "start_time": 14.96590909090909,
                "end_time": 15.161363636363635,
                "pitch": 52,
                "velocity": 80,
                "duration": 0.19545454545454533,
                "tempo": 120.0
            },
            {
                "start_time": 15.177272727272726,
                "end_time": 15.39090909090909,
                "pitch": 52,
                "velocity": 80,
                "duration": 0.21363636363636473,
                "tempo": 120.0
            },
            {
                "start_time": 15.406818181818181,
                "end_time": 15.625,
                "pitch": 52,
                "velocity": 80,
                "duration": 0.2181818181818187,
                "tempo": 120.0
            },
            {
                "start_time": 16.081818181818182,
                "end_time": 16.288636363636364,
                "pitch": 50,
                "velocity": 80,
                "duration": 0.206818181818182,
                "tempo": 120.0
            },
            {
                "start_time": 16.304545454545455,
                "end_time": 16.511363636363637,
                "pitch": 50,
                "velocity": 80,
                "duration": 0.206818181818182,
                "tempo": 120.0
            },
            {
                "start_time": 16.768181818181816,
                "end_time": 16.979545454545455,
                "pitch": 61,
                "velocity": 80,
                "duration": 0.21136363636363953,
                "tempo": 120.0
            },
            {
                "start_time": 17.44772727272727,
                "end_time": 17.670454545454543,
                "pitch": 61,
                "velocity": 80,
                "duration": 0.22272727272727266,
                "tempo": 120.0
            },
            {
                "start_time": 17.686363636363634,
                "end_time": 17.9,
                "pitch": 62,
                "velocity": 80,
                "duration": 0.21363636363636473,
                "tempo": 120.0
            },
            {
                "start_time": 18.361363636363635,
                "end_time": 18.579545454545453,
                "pitch": 62,
                "velocity": 80,
                "duration": 0.2181818181818187,
                "tempo": 120.0
            },
            {
                "start_time": 18.595454545454544,
                "end_time": 18.813636363636363,
                "pitch": 64,
                "velocity": 80,
                "duration": 0.2181818181818187,
                "tempo": 120.0
            },
            {
                "start_time": 18.829545454545453,
                "end_time": 19.03181818181818,
                "pitch": 64,
                "velocity": 80,
                "duration": 0.20227272727272805,
                "tempo": 120.0
            },
            {
                "start_time": 19.047727272727272,
                "end_time": 19.259090909090908,
                "pitch": 64,
                "velocity": 80,
                "duration": 0.21136363636363598,
                "tempo": 120.0
            },
            {
                "start_time": 19.277272727272727,
                "end_time": 19.488636363636363,
                "pitch": 64,
                "velocity": 80,
                "duration": 0.21136363636363598,
                "tempo": 120.0
            },
            {
                "start_time": 19.504545454545454,
                "end_time": 19.706818181818182,
                "pitch": 62,
                "velocity": 80,
                "duration": 0.20227272727272805,
                "tempo": 120.0
            },
            {
                "start_time": 19.738636363636363,
                "end_time": 19.82272727272727,
                "pitch": 62,
                "velocity": 80,
                "duration": 0.08409090909090722,
                "tempo": 120.0
            },
            {
                "start_time": 19.83863636363636,
                "end_time": 20.05681818181818,
                "pitch": 62,
                "velocity": 80,
                "duration": 0.2181818181818187,
                "tempo": 120.0
            },
            {
                "start_time": 20.07272727272727,
                "end_time": 20.175,
                "pitch": 62,
                "velocity": 80,
                "duration": 0.10227272727273018,
                "tempo": 120.0
            },
            {
                "start_time": 20.19090909090909,
                "end_time": 20.409090909090907,
                "pitch": 62,
                "velocity": 80,
                "duration": 0.21818181818181515,
                "tempo": 120.0
            },
            {
                "start_time": 20.425,
                "end_time": 20.625,
                "pitch": 61,
                "velocity": 80,
                "duration": 0.1999999999999993,
                "tempo": 120.0
            },
            {
                "start_time": 21.104545454545452,
                "end_time": 21.3,
                "pitch": 61,
                "velocity": 80,
                "duration": 0.19545454545454888,
                "tempo": 120.0
            },
            {
                "start_time": 21.334090909090907,
                "end_time": 21.538636363636364,
                "pitch": 62,
                "velocity": 80,
                "duration": 0.2045454545454568,
                "tempo": 120.0
            },
            {
                "start_time": 22.018181818181816,
                "end_time": 22.211363636363636,
                "pitch": 62,
                "velocity": 80,
                "duration": 0.19318181818182012,
                "tempo": 120.0
            },
            {
                "start_time": 22.227272727272727,
                "end_time": 22.443181818181817,
                "pitch": 64,
                "velocity": 80,
                "duration": 0.21590909090908994,
                "tempo": 120.0
            },
            {
                "start_time": 22.461363636363636,
                "end_time": 22.677272727272726,
                "pitch": 64,
                "velocity": 80,
                "duration": 0.21590909090908994,
                "tempo": 120.0
            },
            {
                "start_time": 22.695454545454545,
                "end_time": 22.9,
                "pitch": 64,
                "velocity": 80,
                "duration": 0.20454545454545325,
                "tempo": 120.0
            },
            {
                "start_time": 22.93409090909091,
                "end_time": 23.138636363636362,
                "pitch": 64,
                "velocity": 80,
                "duration": 0.20454545454545325,
                "tempo": 120.0
            },
            {
                "start_time": 23.15681818181818,
                "end_time": 23.370454545454546,
                "pitch": 62,
                "velocity": 80,
                "duration": 0.21363636363636473,
                "tempo": 120.0
            },
            {
                "start_time": 23.386363636363637,
                "end_time": 23.48409090909091,
                "pitch": 62,
                "velocity": 80,
                "duration": 0.09772727272727266,
                "tempo": 120.0
            },
            {
                "start_time": 23.5,
                "end_time": 23.7,
                "pitch": 62,
                "velocity": 80,
                "duration": 0.1999999999999993,
                "tempo": 120.0
            },
            {
                "start_time": 23.73409090909091,
                "end_time": 23.820454545454545,
                "pitch": 62,
                "velocity": 80,
                "duration": 0.08636363636363598,
                "tempo": 120.0
            },
            {
                "start_time": 23.836363636363636,
                "end_time": 24.05909090909091,
                "pitch": 62,
                "velocity": 80,
                "duration": 0.22272727272727266,
                "tempo": 120.0
            },
            {
                "start_time": 24.077272727272724,
                "end_time": 24.284090909090907,
                "pitch": 61,
                "velocity": 80,
                "duration": 0.206818181818182,
                "tempo": 120.0
            },
            {
                "start_time": 24.74090909090909,
                "end_time": 24.959090909090907,
                "pitch": 61,
                "velocity": 80,
                "duration": 0.2181818181818187,
                "tempo": 120.0
            },
            {
                "start_time": 24.974999999999998,
                "end_time": 25.193181818181817,
                "pitch": 62,
                "velocity": 80,
                "duration": 0.2181818181818187,
                "tempo": 120.0
            },
            {
                "start_time": 25.65,
                "end_time": 25.85909090909091,
                "pitch": 62,
                "velocity": 80,
                "duration": 0.20909090909091077,
                "tempo": 120.0
            },
            {
                "start_time": 25.875,
                "end_time": 26.084090909090907,
                "pitch": 64,
                "velocity": 80,
                "duration": 0.20909090909090722,
                "tempo": 120.0
            },
            {
                "start_time": 26.118181818181817,
                "end_time": 26.329545454545453,
                "pitch": 64,
                "velocity": 80,
                "duration": 0.21136363636363598,
                "tempo": 120.0
            },
            {
                "start_time": 26.347727272727273,
                "end_time": 26.55909090909091,
                "pitch": 64,
                "velocity": 80,
                "duration": 0.21136363636363598,
                "tempo": 120.0
            },
            {
                "start_time": 26.575,
                "end_time": 26.788636363636364,
                "pitch": 64,
                "velocity": 80,
                "duration": 0.21363636363636473,
                "tempo": 120.0
            },
            {
                "start_time": 26.804545454545455,
                "end_time": 27.004545454545454,
                "pitch": 62,
                "velocity": 80,
                "duration": 0.1999999999999993,
                "tempo": 120.0
            },
            {
                "start_time": 27.02272727272727,
                "end_time": 27.12272727272727,
                "pitch": 62,
                "velocity": 80,
                "duration": 0.10000000000000142,
                "tempo": 120.0
            },
            {
                "start_time": 27.138636363636362,
                "end_time": 27.354545454545452,
                "pitch": 62,
                "velocity": 80,
                "duration": 0.21590909090908994,
                "tempo": 120.0
            },
            {
                "start_time": 27.370454545454542,
                "end_time": 27.468181818181815,
                "pitch": 62,
                "velocity": 80,
                "duration": 0.09772727272727266,
                "tempo": 120.0
            },
            {
                "start_time": 27.48409090909091,
                "end_time": 27.68181818181818,
                "pitch": 62,
                "velocity": 80,
                "duration": 0.19772727272727053,
                "tempo": 120.0
            },
            {
                "start_time": 27.71363636363636,
                "end_time": 27.918181818181818,
                "pitch": 61,
                "velocity": 80,
                "duration": 0.2045454545454568,
                "tempo": 120.0
            },
            {
                "start_time": 28.4,
                "end_time": 28.59090909090909,
                "pitch": 61,
                "velocity": 80,
                "duration": 0.19090909090909136,
                "tempo": 120.0
            },
            {
                "start_time": 28.60681818181818,
                "end_time": 28.82272727272727,
                "pitch": 62,
                "velocity": 80,
                "duration": 0.21590909090908994,
                "tempo": 120.0
            },
            {
                "start_time": 29.30909090909091,
                "end_time": 29.509090909090908,
                "pitch": 62,
                "velocity": 80,
                "duration": 0.1999999999999993,
                "tempo": 120.0
            },
            {
                "start_time": 29.525,
                "end_time": 29.743181818181817,
                "pitch": 64,
                "velocity": 80,
                "duration": 0.2181818181818187,
                "tempo": 120.0
            },
            {
                "start_time": 29.759090909090908,
                "end_time": 29.977272727272727,
                "pitch": 64,
                "velocity": 80,
                "duration": 0.2181818181818187,
                "tempo": 120.0
            },
            {
                "start_time": 29.993181818181817,
                "end_time": 30.195454545454545,
                "pitch": 64,
                "velocity": 80,
                "duration": 0.20227272727272805,
                "tempo": 120.0
            },
            {
                "start_time": 30.211363636363636,
                "end_time": 30.429545454545455,
                "pitch": 64,
                "velocity": 80,
                "duration": 0.2181818181818187,
                "tempo": 120.0
            },
            {
                "start_time": 30.445454545454545,
                "end_time": 30.659090909090907,
                "pitch": 62,
                "velocity": 80,
                "duration": 0.21363636363636118,
                "tempo": 120.0
            },
            {
                "start_time": 30.674999999999997,
                "end_time": 30.77272727272727,
                "pitch": 62,
                "velocity": 80,
                "duration": 0.09772727272727266,
                "tempo": 120.0
            },
            {
                "start_time": 30.78863636363636,
                "end_time": 30.988636363636363,
                "pitch": 62,
                "velocity": 80,
                "duration": 0.20000000000000284,
                "tempo": 120.0
            },
            {
                "start_time": 31.00681818181818,
                "end_time": 31.10909090909091,
                "pitch": 62,
                "velocity": 80,
                "duration": 0.10227272727273018,
                "tempo": 120.0
            },
            {
                "start_time": 31.125,
                "end_time": 31.347727272727273,
                "pitch": 62,
                "velocity": 80,
                "duration": 0.22272727272727266,
                "tempo": 120.0
            },
            {
                "start_time": 31.36590909090909,
                "end_time": 31.577272727272724,
                "pitch": 49,
                "velocity": 80,
                "duration": 0.21136363636363598,
                "tempo": 120.0
            },
            {
                "start_time": 31.593181818181815,
                "end_time": 31.79090909090909,
                "pitch": 49,
                "velocity": 80,
                "duration": 0.19772727272727408,
                "tempo": 120.0
            },
            {
                "start_time": 31.80681818181818,
                "end_time": 32.018181818181816,
                "pitch": 49,
                "velocity": 80,
                "duration": 0.21136363636363598,
                "tempo": 120.0
            },
            {
                "start_time": 32.49772727272727,
                "end_time": 32.69772727272727,
                "pitch": 50,
                "velocity": 80,
                "duration": 0.20000000000000284,
                "tempo": 120.0
            },
            {
                "start_time": 32.715909090909086,
                "end_time": 32.93181818181818,
                "pitch": 50,
                "velocity": 80,
                "duration": 0.2159090909090935,
                "tempo": 120.0
            },
            {
                "start_time": 33.184090909090905,
                "end_time": 33.38409090909091,
                "pitch": 52,
                "velocity": 80,
                "duration": 0.20000000000000284,
                "tempo": 120.0
            },
            {
                "start_time": 33.4,
                "end_time": 33.61818181818182,
                "pitch": 52,
                "velocity": 80,
                "duration": 0.2181818181818187,
                "tempo": 120.0
            },
            {
                "start_time": 33.63409090909091,
                "end_time": 33.84772727272727,
                "pitch": 52,
                "velocity": 80,
                "duration": 0.21363636363636118,
                "tempo": 120.0
            },
            {
                "start_time": 34.309090909090905,
                "end_time": 34.527272727272724,
                "pitch": 50,
                "velocity": 80,
                "duration": 0.2181818181818187,
                "tempo": 120.0
            },
            {
                "start_time": 34.543181818181814,
                "end_time": 34.76136363636363,
                "pitch": 50,
                "velocity": 80,
                "duration": 0.2181818181818187,
                "tempo": 120.0
            },
            {
                "start_time": 34.99545454545454,
                "end_time": 35.20909090909091,
                "pitch": 49,
                "velocity": 80,
                "duration": 0.2136363636363683,
                "tempo": 120.0
            },
            {
                "start_time": 35.225,
                "end_time": 35.43636363636364,
                "pitch": 49,
                "velocity": 80,
                "duration": 0.21136363636363598,
                "tempo": 120.0
            },
            {
                "start_time": 35.45227272727273,
                "end_time": 35.65909090909091,
                "pitch": 49,
                "velocity": 80,
                "duration": 0.20681818181817846,
                "tempo": 120.0
            },
            {
                "start_time": 36.13863636363636,
                "end_time": 36.345454545454544,
                "pitch": 50,
                "velocity": 80,
                "duration": 0.20681818181818556,
                "tempo": 120.0
            },
            {
                "start_time": 36.361363636363635,
                "end_time": 36.56818181818181,
                "pitch": 50,
                "velocity": 80,
                "duration": 0.20681818181817846,
                "tempo": 120.0
            },
            {
                "start_time": 36.824999999999996,
                "end_time": 37.03636363636363,
                "pitch": 52,
                "velocity": 80,
                "duration": 0.21136363636363598,
                "tempo": 120.0
            },
            {
                "start_time": 37.05227272727272,
                "end_time": 37.25,
                "pitch": 52,
                "velocity": 80,
                "duration": 0.19772727272727764,
                "tempo": 120.0
            },
            {
                "start_time": 37.28181818181818,
                "end_time": 37.486363636363635,
                "pitch": 52,
                "velocity": 80,
                "duration": 0.20454545454545325,
                "tempo": 120.0
            },
            {
                "start_time": 37.96818181818182,
                "end_time": 38.15909090909091,
                "pitch": 50,
                "velocity": 80,
                "duration": 0.1909090909090878,
                "tempo": 120.0
            },
            {
                "start_time": 38.175,
                "end_time": 38.393181818181816,
                "pitch": 50,
                "velocity": 80,
                "duration": 0.2181818181818187,
                "tempo": 120.0
            },
            {
                "start_time": 38.643181818181816,
                "end_time": 38.65909090909091,
                "pitch": 49,
                "velocity": 80,
                "duration": 0.01590909090909065,
                "tempo": 120.0
            }
        ],
        "Acoustic Grand Piano": [
            {
                "start_time": 5.847727272727273,
                "end_time": 6.054545454545455,
                "pitch": 33,
                "velocity": 64,
                "duration": 0.206818181818182,
                "tempo": 120.0
            },
            {
                "start_time": 6.070454545454545,
                "end_time": 6.261363636363636,
                "pitch": 33,
                "velocity": 64,
                "duration": 0.19090909090909047,
                "tempo": 120.0
            },
            {
                "start_time": 6.277272727272727,
                "end_time": 6.5,
                "pitch": 33,
                "velocity": 64,
                "duration": 0.22272727272727266,
                "tempo": 120.0
            },
            {
                "start_time": 6.995454545454545,
                "end_time": 7.202272727272727,
                "pitch": 38,
                "velocity": 64,
                "duration": 0.206818181818182,
                "tempo": 120.0
            },
            {
                "start_time": 7.218181818181818,
                "end_time": 7.422727272727272,
                "pitch": 38,
                "velocity": 64,
                "duration": 0.20454545454545414,
                "tempo": 120.0
            },
            {
                "start_time": 7.656818181818181,
                "end_time": 7.861363636363636,
                "pitch": 40,
                "velocity": 64,
                "duration": 0.20454545454545503,
                "tempo": 120.0
            },
            {
                "start_time": 7.879545454545454,
                "end_time": 8.102272727272727,
                "pitch": 40,
                "velocity": 64,
                "duration": 0.22272727272727266,
                "tempo": 120.0
            },
            {
                "start_time": 8.118181818181817,
                "end_time": 8.331818181818182,
                "pitch": 40,
                "velocity": 64,
                "duration": 0.21363636363636473,
                "tempo": 120.0
            },
            {
                "start_time": 8.793181818181818,
                "end_time": 9.011363636363637,
                "pitch": 45,
                "velocity": 64,
                "duration": 0.2181818181818187,
                "tempo": 120.0
            },
            {
                "start_time": 9.027272727272727,
                "end_time": 9.25,
                "pitch": 48,
                "velocity": 64,
                "duration": 0.22272727272727266,
                "tempo": 120.0
            },
            {
                "start_time": 9.26590909090909,
                "end_time": 9.472727272727273,
                "pitch": 45,
                "velocity": 64,
                "duration": 0.206818181818182,
                "tempo": 120.0
            },
            {
                "start_time": 9.488636363636363,
                "end_time": 9.697727272727272,
                "pitch": 33,
                "velocity": 64,
                "duration": 0.209090909090909,
                "tempo": 120.0
            },
            {
                "start_time": 9.713636363636363,
                "end_time": 9.920454545454545,
                "pitch": 33,
                "velocity": 64,
                "duration": 0.206818181818182,
                "tempo": 120.0
            },
            {
                "start_time": 9.936363636363636,
                "end_time": 10.14090909090909,
                "pitch": 33,
                "velocity": 64,
                "duration": 0.20454545454545503,
                "tempo": 120.0
            },
            {
                "start_time": 10.622727272727273,
                "end_time": 10.829545454545453,
                "pitch": 38,
                "velocity": 64,
                "duration": 0.20681818181818024,
                "tempo": 120.0
            },
            {
                "start_time": 10.845454545454546,
                "end_time": 11.054545454545455,
                "pitch": 38,
                "velocity": 64,
                "duration": 0.209090909090909,
                "tempo": 120.0
            },
            {
                "start_time": 11.318181818181818,
                "end_time": 11.524999999999999,
                "pitch": 40,
                "velocity": 64,
                "duration": 0.20681818181818024,
                "tempo": 120.0
            },
            {
                "start_time": 11.540909090909091,
                "end_time": 11.73409090909091,
                "pitch": 40,
                "velocity": 64,
                "duration": 0.19318181818181834,
                "tempo": 120.0
            },
            {
                "start_time": 11.76590909090909,
                "end_time": 11.970454545454546,
                "pitch": 40,
                "velocity": 64,
                "duration": 0.20454545454545503,
                "tempo": 120.0
            },
            {
                "start_time": 12.45,
                "end_time": 12.643181818181818,
                "pitch": 45,
                "velocity": 64,
                "duration": 0.19318181818181834,
                "tempo": 120.0
            },
            {
                "start_time": 12.659090909090908,
                "end_time": 12.875,
                "pitch": 48,
                "velocity": 64,
                "duration": 0.21590909090909172,
                "tempo": 120.0
            },
            {
                "start_time": 12.893181818181818,
                "end_time": 13.109090909090908,
                "pitch": 45,
                "velocity": 64,
                "duration": 0.21590909090908994,
                "tempo": 120.0
            },
            {
                "start_time": 13.127272727272727,
                "end_time": 13.327272727272726,
                "pitch": 33,
                "velocity": 64,
                "duration": 0.1999999999999993,
                "tempo": 120.0
            },
            {
                "start_time": 13.361363636363636,
                "end_time": 13.561363636363636,
                "pitch": 33,
                "velocity": 64,
                "duration": 0.1999999999999993,
                "tempo": 120.0
            },
            {
                "start_time": 13.577272727272726,
                "end_time": 13.795454545454545,
                "pitch": 33,
                "velocity": 64,
                "duration": 0.2181818181818187,
                "tempo": 120.0
            },
            {
                "start_time": 14.263636363636364,
                "end_time": 14.48181818181818,
                "pitch": 38,
                "velocity": 64,
                "duration": 0.21818181818181692,
                "tempo": 120.0
            },
            {
                "start_time": 14.497727272727271,
                "end_time": 14.71590909090909,
                "pitch": 38,
                "velocity": 64,
                "duration": 0.2181818181818187,
                "tempo": 120.0
            },
            {
                "start_time": 14.96590909090909,
                "end_time": 15.161363636363635,
                "pitch": 40,
                "velocity": 64,
                "duration": 0.19545454545454533,
                "tempo": 120.0
            },
            {
                "start_time": 15.177272727272726,
                "end_time": 15.39090909090909,
                "pitch": 40,
                "velocity": 64,
                "duration": 0.21363636363636473,
                "tempo": 120.0
            },
            {
                "start_time": 15.406818181818181,
                "end_time": 15.625,
                "pitch": 40,
                "velocity": 64,
                "duration": 0.2181818181818187,
                "tempo": 120.0
            },
            {
                "start_time": 16.081818181818182,
                "end_time": 16.288636363636364,
                "pitch": 45,
                "velocity": 64,
                "duration": 0.206818181818182,
                "tempo": 120.0
            },
            {
                "start_time": 16.304545454545455,
                "end_time": 16.511363636363637,
                "pitch": 43,
                "velocity": 64,
                "duration": 0.206818181818182,
                "tempo": 120.0
            },
            {
                "start_time": 16.545454545454543,
                "end_time": 16.75,
                "pitch": 40,
                "velocity": 64,
                "duration": 0.2045454545454568,
                "tempo": 120.0
            },
            {
                "start_time": 16.768181818181816,
                "end_time": 16.979545454545455,
                "pitch": 33,
                "velocity": 64,
                "duration": 0.21136363636363953,
                "tempo": 120.0
            },
            {
                "start_time": 17.44772727272727,
                "end_time": 17.670454545454543,
                "pitch": 33,
                "velocity": 64,
                "duration": 0.22272727272727266,
                "tempo": 120.0
            },
            {
                "start_time": 17.686363636363634,
                "end_time": 17.9,
                "pitch": 38,
                "velocity": 64,
                "duration": 0.21363636363636473,
                "tempo": 120.0
            },
            {
                "start_time": 18.361363636363635,
                "end_time": 18.579545454545453,
                "pitch": 38,
                "velocity": 64,
                "duration": 0.2181818181818187,
                "tempo": 120.0
            },
            {
                "start_time": 18.595454545454544,
                "end_time": 18.813636363636363,
                "pitch": 40,
                "velocity": 64,
                "duration": 0.2181818181818187,
                "tempo": 120.0
            },
            {
                "start_time": 18.829545454545453,
                "end_time": 19.03181818181818,
                "pitch": 40,
                "velocity": 64,
                "duration": 0.20227272727272805,
                "tempo": 120.0
            },
            {
                "start_time": 19.047727272727272,
                "end_time": 19.259090909090908,
                "pitch": 40,
                "velocity": 64,
                "duration": 0.21136363636363598,
                "tempo": 120.0
            },
            {
                "start_time": 19.277272727272727,
                "end_time": 19.488636363636363,
                "pitch": 40,
                "velocity": 64,
                "duration": 0.21136363636363598,
                "tempo": 120.0
            },
            {
                "start_time": 19.504545454545454,
                "end_time": 19.706818181818182,
                "pitch": 38,
                "velocity": 64,
                "duration": 0.20227272727272805,
                "tempo": 120.0
            },
            {
                "start_time": 19.738636363636363,
                "end_time": 19.94090909090909,
                "pitch": 45,
                "velocity": 64,
                "duration": 0.20227272727272805,
                "tempo": 120.0
            },
            {
                "start_time": 19.956818181818182,
                "end_time": 20.175,
                "pitch": 48,
                "velocity": 64,
                "duration": 0.2181818181818187,
                "tempo": 120.0
            },
            {
                "start_time": 20.19090909090909,
                "end_time": 20.409090909090907,
                "pitch": 45,
                "velocity": 64,
                "duration": 0.21818181818181515,
                "tempo": 120.0
            },
            {
                "start_time": 20.425,
                "end_time": 20.625,
                "pitch": 33,
                "velocity": 64,
                "duration": 0.1999999999999993,
                "tempo": 120.0
            },
            {
                "start_time": 21.104545454545452,
                "end_time": 21.3,
                "pitch": 33,
                "velocity": 64,
                "duration": 0.19545454545454888,
                "tempo": 120.0
            },
            {
                "start_time": 21.334090909090907,
                "end_time": 21.538636363636364,
                "pitch": 38,
                "velocity": 64,
                "duration": 0.2045454545454568,
                "tempo": 120.0
            },
            {
                "start_time": 22.018181818181816,
                "end_time": 22.211363636363636,
                "pitch": 38,
                "velocity": 64,
                "duration": 0.19318181818182012,
                "tempo": 120.0
            },
            {
                "start_time": 22.227272727272727,
                "end_time": 22.443181818181817,
                "pitch": 40,
                "velocity": 64,
                "duration": 0.21590909090908994,
                "tempo": 120.0
            },
            {
                "start_time": 22.461363636363636,
                "end_time": 22.677272727272726,
                "pitch": 40,
                "velocity": 64,
                "duration": 0.21590909090908994,
                "tempo": 120.0
            },
            {
                "start_time": 22.695454545454545,
                "end_time": 22.9,
                "pitch": 40,
                "velocity": 64,
                "duration": 0.20454545454545325,
                "tempo": 120.0
            },
            {
                "start_time": 22.93409090909091,
                "end_time": 23.138636363636362,
                "pitch": 40,
                "velocity": 64,
                "duration": 0.20454545454545325,
                "tempo": 120.0
            },
            {
                "start_time": 23.15681818181818,
                "end_time": 23.370454545454546,
                "pitch": 38,
                "velocity": 64,
                "duration": 0.21363636363636473,
                "tempo": 120.0
            },
            {
                "start_time": 23.386363636363637,
                "end_time": 23.597727272727273,
                "pitch": 45,
                "velocity": 64,
                "duration": 0.21136363636363598,
                "tempo": 120.0
            },
            {
                "start_time": 23.613636363636363,
                "end_time": 23.820454545454545,
                "pitch": 48,
                "velocity": 64,
                "duration": 0.206818181818182,
                "tempo": 120.0
            },
            {
                "start_time": 23.836363636363636,
                "end_time": 24.05909090909091,
                "pitch": 45,
                "velocity": 64,
                "duration": 0.22272727272727266,
                "tempo": 120.0
            },
            {
                "start_time": 24.077272727272724,
                "end_time": 24.284090909090907,
                "pitch": 33,
                "velocity": 64,
                "duration": 0.206818181818182,
                "tempo": 120.0
            },
            {
                "start_time": 24.74090909090909,
                "end_time": 24.959090909090907,
                "pitch": 33,
                "velocity": 64,
                "duration": 0.2181818181818187,
                "tempo": 120.0
            },
            {
                "start_time": 24.974999999999998,
                "end_time": 25.193181818181817,
                "pitch": 38,
                "velocity": 64,
                "duration": 0.2181818181818187,
                "tempo": 120.0
            },
            {
                "start_time": 25.65,
                "end_time": 25.85909090909091,
                "pitch": 38,
                "velocity": 64,
                "duration": 0.20909090909091077,
                "tempo": 120.0
            },
            {
                "start_time": 25.875,
                "end_time": 26.084090909090907,
                "pitch": 40,
                "velocity": 64,
                "duration": 0.20909090909090722,
                "tempo": 120.0
            },
            {
                "start_time": 26.118181818181817,
                "end_time": 26.329545454545453,
                "pitch": 40,
                "velocity": 64,
                "duration": 0.21136363636363598,
                "tempo": 120.0
            },
            {
                "start_time": 26.347727272727273,
                "end_time": 26.55909090909091,
                "pitch": 40,
                "velocity": 64,
                "duration": 0.21136363636363598,
                "tempo": 120.0
            },
            {
                "start_time": 26.575,
                "end_time": 26.788636363636364,
                "pitch": 40,
                "velocity": 64,
                "duration": 0.21363636363636473,
                "tempo": 120.0
            },
            {
                "start_time": 26.804545454545455,
                "end_time": 27.004545454545454,
                "pitch": 38,
                "velocity": 64,
                "duration": 0.1999999999999993,
                "tempo": 120.0
            },
            {
                "start_time": 27.02272727272727,
                "end_time": 27.238636363636363,
                "pitch": 50,
                "velocity": 64,
                "duration": 0.2159090909090935,
                "tempo": 120.0
            },
            {
                "start_time": 27.25681818181818,
                "end_time": 27.468181818181815,
                "pitch": 48,
                "velocity": 64,
                "duration": 0.21136363636363598,
                "tempo": 120.0
            },
            {
                "start_time": 27.48409090909091,
                "end_time": 27.68181818181818,
                "pitch": 45,
                "velocity": 64,
                "duration": 0.19772727272727053,
                "tempo": 120.0
            },
            {
                "start_time": 27.71363636363636,
                "end_time": 27.918181818181818,
                "pitch": 33,
                "velocity": 64,
                "duration": 0.2045454545454568,
                "tempo": 120.0
            },
            {
                "start_time": 28.4,
                "end_time": 28.59090909090909,
                "pitch": 33,
                "velocity": 64,
                "duration": 0.19090909090909136,
                "tempo": 120.0
            },
            {
                "start_time": 28.60681818181818,
                "end_time": 28.82272727272727,
                "pitch": 38,
                "velocity": 64,
                "duration": 0.21590909090908994,
                "tempo": 120.0
            },
            {
                "start_time": 29.30909090909091,
                "end_time": 29.509090909090908,
                "pitch": 38,
                "velocity": 64,
                "duration": 0.1999999999999993,
                "tempo": 120.0
            },
            {
                "start_time": 29.525,
                "end_time": 29.743181818181817,
                "pitch": 40,
                "velocity": 64,
                "duration": 0.2181818181818187,
                "tempo": 120.0
            },
            {
                "start_time": 29.759090909090908,
                "end_time": 29.977272727272727,
                "pitch": 40,
                "velocity": 64,
                "duration": 0.2181818181818187,
                "tempo": 120.0
            },
            {
                "start_time": 29.993181818181817,
                "end_time": 30.195454545454545,
                "pitch": 40,
                "velocity": 64,
                "duration": 0.20227272727272805,
                "tempo": 120.0
            },
            {
                "start_time": 30.211363636363636,
                "end_time": 30.429545454545455,
                "pitch": 40,
                "velocity": 64,
                "duration": 0.2181818181818187,
                "tempo": 120.0
            },
            {
                "start_time": 30.445454545454545,
                "end_time": 30.659090909090907,
                "pitch": 38,
                "velocity": 64,
                "duration": 0.21363636363636118,
                "tempo": 120.0
            },
            {
                "start_time": 30.674999999999997,
                "end_time": 30.870454545454542,
                "pitch": 45,
                "velocity": 64,
                "duration": 0.19545454545454533,
                "tempo": 120.0
            },
            {
                "start_time": 30.902272727272727,
                "end_time": 31.10909090909091,
                "pitch": 43,
                "velocity": 64,
                "duration": 0.206818181818182,
                "tempo": 120.0
            },
            {
                "start_time": 31.125,
                "end_time": 31.347727272727273,
                "pitch": 40,
                "velocity": 64,
                "duration": 0.22272727272727266,
                "tempo": 120.0
            },
            {
                "start_time": 31.36590909090909,
                "end_time": 31.577272727272724,
                "pitch": 33,
                "velocity": 64,
                "duration": 0.21136363636363598,
                "tempo": 120.0
            },
            {
                "start_time": 31.593181818181815,
                "end_time": 31.79090909090909,
                "pitch": 33,
                "velocity": 64,
                "duration": 0.19772727272727408,
                "tempo": 120.0
            },
            {
                "start_time": 31.80681818181818,
                "end_time": 32.018181818181816,
                "pitch": 33,
                "velocity": 64,
                "duration": 0.21136363636363598,
                "tempo": 120.0
            },
            {
                "start_time": 32.49772727272727,
                "end_time": 32.69772727272727,
                "pitch": 38,
                "velocity": 64,
                "duration": 0.20000000000000284,
                "tempo": 120.0
            },
            {
                "start_time": 32.715909090909086,
                "end_time": 32.93181818181818,
                "pitch": 38,
                "velocity": 64,
                "duration": 0.2159090909090935,
                "tempo": 120.0
            },
            {
                "start_time": 33.184090909090905,
                "end_time": 33.38409090909091,
                "pitch": 40,
                "velocity": 64,
                "duration": 0.20000000000000284,
                "tempo": 120.0
            },
            {
                "start_time": 33.4,
                "end_time": 33.61818181818182,
                "pitch": 40,
                "velocity": 64,
                "duration": 0.2181818181818187,
                "tempo": 120.0
            },
            {
                "start_time": 33.63409090909091,
                "end_time": 33.84772727272727,
                "pitch": 40,
                "velocity": 64,
                "duration": 0.21363636363636118,
                "tempo": 120.0
            },
            {
                "start_time": 34.309090909090905,
                "end_time": 34.527272727272724,
                "pitch": 45,
                "velocity": 64,
                "duration": 0.2181818181818187,
                "tempo": 120.0
            },
            {
                "start_time": 34.543181818181814,
                "end_time": 34.76136363636363,
                "pitch": 43,
                "velocity": 64,
                "duration": 0.2181818181818187,
                "tempo": 120.0
            },
            {
                "start_time": 34.777272727272724,
                "end_time": 34.97954545454545,
                "pitch": 40,
                "velocity": 64,
                "duration": 0.20227272727272805,
                "tempo": 120.0
            },
            {
                "start_time": 34.99545454545454,
                "end_time": 35.20909090909091,
                "pitch": 33,
                "velocity": 64,
                "duration": 0.2136363636363683,
                "tempo": 120.0
            },
            {
                "start_time": 35.225,
                "end_time": 35.43636363636364,
                "pitch": 33,
                "velocity": 64,
                "duration": 0.21136363636363598,
                "tempo": 120.0
            },
            {
                "start_time": 35.45227272727273,
                "end_time": 35.65909090909091,
                "pitch": 33,
                "velocity": 64,
                "duration": 0.20681818181817846,
                "tempo": 120.0
            },
            {
                "start_time": 36.13863636363636,
                "end_time": 36.345454545454544,
                "pitch": 38,
                "velocity": 64,
                "duration": 0.20681818181818556,
                "tempo": 120.0
            },
            {
                "start_time": 36.361363636363635,
                "end_time": 36.56818181818181,
                "pitch": 38,
                "velocity": 64,
                "duration": 0.20681818181817846,
                "tempo": 120.0
            },
            {
                "start_time": 36.824999999999996,
                "end_time": 37.03636363636363,
                "pitch": 40,
                "velocity": 64,
                "duration": 0.21136363636363598,
                "tempo": 120.0
            },
            {
                "start_time": 37.05227272727272,
                "end_time": 37.25,
                "pitch": 40,
                "velocity": 64,
                "duration": 0.19772727272727764,
                "tempo": 120.0
            },
            {
                "start_time": 37.28181818181818,
                "end_time": 37.486363636363635,
                "pitch": 40,
                "velocity": 64,
                "duration": 0.20454545454545325,
                "tempo": 120.0
            },
            {
                "start_time": 37.96818181818182,
                "end_time": 38.15909090909091,
                "pitch": 45,
                "velocity": 64,
                "duration": 0.1909090909090878,
                "tempo": 120.0
            },
            {
                "start_time": 38.175,
                "end_time": 38.393181818181816,
                "pitch": 48,
                "velocity": 64,
                "duration": 0.2181818181818187,
                "tempo": 120.0
            },
            {
                "start_time": 38.40909090909091,
                "end_time": 38.627272727272725,
                "pitch": 45,
                "velocity": 64,
                "duration": 0.2181818181818187,
                "tempo": 120.0
            },
            {
                "start_time": 38.643181818181816,
                "end_time": 38.65909090909091,
                "pitch": 33,
                "velocity": 64,
                "duration": 0.01590909090909065,
                "tempo": 120.0
            }
        ],
        "Clarinet": [
            {
                "start_time": 3.3204545454545453,
                "end_time": 3.5295454545454543,
                "pitch": 57,
                "velocity": 51,
                "duration": 0.209090909090909,
                "tempo": 120.0
            },
            {
                "start_time": 3.5454545454545454,
                "end_time": 3.745454545454545,
                "pitch": 57,
                "velocity": 51,
                "duration": 0.19999999999999973,
                "tempo": 120.0
            },
            {
                "start_time": 3.9977272727272726,
                "end_time": 4.213636363636364,
                "pitch": 59,
                "velocity": 51,
                "duration": 0.21590909090909127,
                "tempo": 120.0
            },
            {
                "start_time": 4.2318181818181815,
                "end_time": 4.447727272727272,
                "pitch": 59,
                "velocity": 51,
                "duration": 0.21590909090909083,
                "tempo": 120.0
            },
            {
                "start_time": 4.465909090909091,
                "end_time": 4.665909090909091,
                "pitch": 59,
                "velocity": 51,
                "duration": 0.20000000000000018,
                "tempo": 120.0
            },
            {
                "start_time": 5.156818181818181,
                "end_time": 5.361363636363636,
                "pitch": 45,
                "velocity": 51,
                "duration": 0.20454545454545503,
                "tempo": 120.0
            },
            {
                "start_time": 5.3954545454545455,
                "end_time": 5.595454545454545,
                "pitch": 45,
                "velocity": 51,
                "duration": 0.1999999999999993,
                "tempo": 120.0
            },
            {
                "start_time": 5.847727272727273,
                "end_time": 6.054545454545455,
                "pitch": 45,
                "velocity": 51,
                "duration": 0.206818181818182,
                "tempo": 120.0
            },
            {
                "start_time": 6.070454545454545,
                "end_time": 6.261363636363636,
                "pitch": 45,
                "velocity": 51,
                "duration": 0.19090909090909047,
                "tempo": 120.0
            },
            {
                "start_time": 6.277272727272727,
                "end_time": 6.5,
                "pitch": 45,
                "velocity": 51,
                "duration": 0.22272727272727266,
                "tempo": 120.0
            },
            {
                "start_time": 6.995454545454545,
                "end_time": 7.202272727272727,
                "pitch": 50,
                "velocity": 51,
                "duration": 0.206818181818182,
                "tempo": 120.0
            },
            {
                "start_time": 7.218181818181818,
                "end_time": 7.422727272727272,
                "pitch": 50,
                "velocity": 51,
                "duration": 0.20454545454545414,
                "tempo": 120.0
            },
            {
                "start_time": 7.656818181818181,
                "end_time": 7.861363636363636,
                "pitch": 52,
                "velocity": 51,
                "duration": 0.20454545454545503,
                "tempo": 120.0
            },
            {
                "start_time": 7.879545454545454,
                "end_time": 8.102272727272727,
                "pitch": 52,
                "velocity": 51,
                "duration": 0.22272727272727266,
                "tempo": 120.0
            },
            {
                "start_time": 8.118181818181817,
                "end_time": 8.331818181818182,
                "pitch": 52,
                "velocity": 51,
                "duration": 0.21363636363636473,
                "tempo": 120.0
            },
            {
                "start_time": 9.713636363636363,
                "end_time": 10.14090909090909,
                "pitch": 45,
                "velocity": 51,
                "duration": 0.4272727272727277,
                "tempo": 120.0
            },
            {
                "start_time": 10.622727272727273,
                "end_time": 11.054545454545455,
                "pitch": 47,
                "velocity": 51,
                "duration": 0.43181818181818166,
                "tempo": 120.0
            },
            {
                "start_time": 11.540909090909091,
                "end_time": 11.970454545454546,
                "pitch": 49,
                "velocity": 51,
                "duration": 0.4295454545454547,
                "tempo": 120.0
            },
            {
                "start_time": 12.45,
                "end_time": 12.875,
                "pitch": 47,
                "velocity": 51,
                "duration": 0.4250000000000007,
                "tempo": 120.0
            },
            {
                "start_time": 13.361363636363636,
                "end_time": 13.795454545454545,
                "pitch": 40,
                "velocity": 51,
                "duration": 0.43409090909090864,
                "tempo": 120.0
            },
            {
                "start_time": 14.263636363636364,
                "end_time": 14.71590909090909,
                "pitch": 42,
                "velocity": 51,
                "duration": 0.45227272727272627,
                "tempo": 120.0
            },
            {
                "start_time": 15.177272727272726,
                "end_time": 15.625,
                "pitch": 44,
                "velocity": 51,
                "duration": 0.4477272727272741,
                "tempo": 120.0
            },
            {
                "start_time": 16.081818181818182,
                "end_time": 16.511363636363637,
                "pitch": 42,
                "velocity": 51,
                "duration": 0.4295454545454547,
                "tempo": 120.0
            },
            {
                "start_time": 16.768181818181816,
                "end_time": 16.979545454545455,
                "pitch": 57,
                "velocity": 51,
                "duration": 0.21136363636363953,
                "tempo": 120.0
            },
            {
                "start_time": 17.44772727272727,
                "end_time": 17.670454545454543,
                "pitch": 57,
                "velocity": 51,
                "duration": 0.22272727272727266,
                "tempo": 120.0
            },
            {
                "start_time": 17.686363636363634,
                "end_time": 17.9,
                "pitch": 57,
                "velocity": 51,
                "duration": 0.21363636363636473,
                "tempo": 120.0
            },
            {
                "start_time": 18.361363636363635,
                "end_time": 18.579545454545453,
                "pitch": 57,
                "velocity": 51,
                "duration": 0.2181818181818187,
                "tempo": 120.0
            },
            {
                "start_time": 18.595454545454544,
                "end_time": 18.813636363636363,
                "pitch": 59,
                "velocity": 51,
                "duration": 0.2181818181818187,
                "tempo": 120.0
            },
            {
                "start_time": 18.829545454545453,
                "end_time": 19.03181818181818,
                "pitch": 59,
                "velocity": 51,
                "duration": 0.20227272727272805,
                "tempo": 120.0
            },
            {
                "start_time": 19.047727272727272,
                "end_time": 19.259090909090908,
                "pitch": 59,
                "velocity": 51,
                "duration": 0.21136363636363598,
                "tempo": 120.0
            },
            {
                "start_time": 19.277272727272727,
                "end_time": 19.488636363636363,
                "pitch": 59,
                "velocity": 51,
                "duration": 0.21136363636363598,
                "tempo": 120.0
            },
            {
                "start_time": 19.504545454545454,
                "end_time": 19.706818181818182,
                "pitch": 57,
                "velocity": 51,
                "duration": 0.20227272727272805,
                "tempo": 120.0
            },
            {
                "start_time": 19.738636363636363,
                "end_time": 19.82272727272727,
                "pitch": 57,
                "velocity": 51,
                "duration": 0.08409090909090722,
                "tempo": 120.0
            },
            {
                "start_time": 19.83863636363636,
                "end_time": 20.05681818181818,
                "pitch": 57,
                "velocity": 51,
                "duration": 0.2181818181818187,
                "tempo": 120.0
            },
            {
                "start_time": 20.07272727272727,
                "end_time": 20.175,
                "pitch": 57,
                "velocity": 51,
                "duration": 0.10227272727273018,
                "tempo": 120.0
            },
            {
                "start_time": 20.19090909090909,
                "end_time": 20.409090909090907,
                "pitch": 57,
                "velocity": 51,
                "duration": 0.21818181818181515,
                "tempo": 120.0
            },
            {
                "start_time": 20.425,
                "end_time": 20.625,
                "pitch": 57,
                "velocity": 51,
                "duration": 0.1999999999999993,
                "tempo": 120.0
            },
            {
                "start_time": 21.104545454545452,
                "end_time": 21.3,
                "pitch": 57,
                "velocity": 51,
                "duration": 0.19545454545454888,
                "tempo": 120.0
            },
            {
                "start_time": 21.334090909090907,
                "end_time": 21.538636363636364,
                "pitch": 57,
                "velocity": 51,
                "duration": 0.2045454545454568,
                "tempo": 120.0
            },
            {
                "start_time": 22.018181818181816,
                "end_time": 22.211363636363636,
                "pitch": 57,
                "velocity": 51,
                "duration": 0.19318181818182012,
                "tempo": 120.0
            },
            {
                "start_time": 22.227272727272727,
                "end_time": 22.443181818181817,
                "pitch": 59,
                "velocity": 51,
                "duration": 0.21590909090908994,
                "tempo": 120.0
            },
            {
                "start_time": 22.461363636363636,
                "end_time": 22.677272727272726,
                "pitch": 59,
                "velocity": 51,
                "duration": 0.21590909090908994,
                "tempo": 120.0
            },
            {
                "start_time": 22.695454545454545,
                "end_time": 22.9,
                "pitch": 59,
                "velocity": 51,
                "duration": 0.20454545454545325,
                "tempo": 120.0
            },
            {
                "start_time": 22.93409090909091,
                "end_time": 23.138636363636362,
                "pitch": 59,
                "velocity": 51,
                "duration": 0.20454545454545325,
                "tempo": 120.0
            },
            {
                "start_time": 23.15681818181818,
                "end_time": 23.370454545454546,
                "pitch": 57,
                "velocity": 51,
                "duration": 0.21363636363636473,
                "tempo": 120.0
            },
            {
                "start_time": 23.386363636363637,
                "end_time": 23.48409090909091,
                "pitch": 57,
                "velocity": 51,
                "duration": 0.09772727272727266,
                "tempo": 120.0
            },
            {
                "start_time": 23.5,
                "end_time": 23.7,
                "pitch": 57,
                "velocity": 51,
                "duration": 0.1999999999999993,
                "tempo": 120.0
            },
            {
                "start_time": 23.73409090909091,
                "end_time": 23.820454545454545,
                "pitch": 57,
                "velocity": 51,
                "duration": 0.08636363636363598,
                "tempo": 120.0
            },
            {
                "start_time": 23.836363636363636,
                "end_time": 24.05909090909091,
                "pitch": 57,
                "velocity": 51,
                "duration": 0.22272727272727266,
                "tempo": 120.0
            },
            {
                "start_time": 24.077272727272724,
                "end_time": 24.284090909090907,
                "pitch": 57,
                "velocity": 51,
                "duration": 0.206818181818182,
                "tempo": 120.0
            },
            {
                "start_time": 24.74090909090909,
                "end_time": 24.959090909090907,
                "pitch": 57,
                "velocity": 51,
                "duration": 0.2181818181818187,
                "tempo": 120.0
            },
            {
                "start_time": 24.974999999999998,
                "end_time": 25.193181818181817,
                "pitch": 57,
                "velocity": 51,
                "duration": 0.2181818181818187,
                "tempo": 120.0
            },
            {
                "start_time": 25.65,
                "end_time": 25.85909090909091,
                "pitch": 57,
                "velocity": 51,
                "duration": 0.20909090909091077,
                "tempo": 120.0
            },
            {
                "start_time": 25.875,
                "end_time": 26.084090909090907,
                "pitch": 59,
                "velocity": 51,
                "duration": 0.20909090909090722,
                "tempo": 120.0
            },
            {
                "start_time": 26.118181818181817,
                "end_time": 26.329545454545453,
                "pitch": 59,
                "velocity": 51,
                "duration": 0.21136363636363598,
                "tempo": 120.0
            },
            {
                "start_time": 26.347727272727273,
                "end_time": 26.55909090909091,
                "pitch": 59,
                "velocity": 51,
                "duration": 0.21136363636363598,
                "tempo": 120.0
            },
            {
                "start_time": 26.575,
                "end_time": 26.788636363636364,
                "pitch": 59,
                "velocity": 51,
                "duration": 0.21363636363636473,
                "tempo": 120.0
            },
            {
                "start_time": 26.804545454545455,
                "end_time": 27.004545454545454,
                "pitch": 57,
                "velocity": 51,
                "duration": 0.1999999999999993,
                "tempo": 120.0
            },
            {
                "start_time": 27.02272727272727,
                "end_time": 27.12272727272727,
                "pitch": 57,
                "velocity": 51,
                "duration": 0.10000000000000142,
                "tempo": 120.0
            },
            {
                "start_time": 27.138636363636362,
                "end_time": 27.354545454545452,
                "pitch": 57,
                "velocity": 51,
                "duration": 0.21590909090908994,
                "tempo": 120.0
            },
            {
                "start_time": 27.370454545454542,
                "end_time": 27.468181818181815,
                "pitch": 57,
                "velocity": 51,
                "duration": 0.09772727272727266,
                "tempo": 120.0
            },
            {
                "start_time": 27.48409090909091,
                "end_time": 27.68181818181818,
                "pitch": 57,
                "velocity": 51,
                "duration": 0.19772727272727053,
                "tempo": 120.0
            },
            {
                "start_time": 27.71363636363636,
                "end_time": 27.918181818181818,
                "pitch": 57,
                "velocity": 51,
                "duration": 0.2045454545454568,
                "tempo": 120.0
            },
            {
                "start_time": 28.4,
                "end_time": 28.59090909090909,
                "pitch": 57,
                "velocity": 51,
                "duration": 0.19090909090909136,
                "tempo": 120.0
            },
            {
                "start_time": 28.60681818181818,
                "end_time": 28.82272727272727,
                "pitch": 57,
                "velocity": 51,
                "duration": 0.21590909090908994,
                "tempo": 120.0
            },
            {
                "start_time": 29.30909090909091,
                "end_time": 29.509090909090908,
                "pitch": 57,
                "velocity": 51,
                "duration": 0.1999999999999993,
                "tempo": 120.0
            },
            {
                "start_time": 29.525,
                "end_time": 29.743181818181817,
                "pitch": 59,
                "velocity": 51,
                "duration": 0.2181818181818187,
                "tempo": 120.0
            },
            {
                "start_time": 29.759090909090908,
                "end_time": 29.977272727272727,
                "pitch": 59,
                "velocity": 51,
                "duration": 0.2181818181818187,
                "tempo": 120.0
            },
            {
                "start_time": 29.993181818181817,
                "end_time": 30.195454545454545,
                "pitch": 59,
                "velocity": 51,
                "duration": 0.20227272727272805,
                "tempo": 120.0
            },
            {
                "start_time": 30.211363636363636,
                "end_time": 30.429545454545455,
                "pitch": 59,
                "velocity": 51,
                "duration": 0.2181818181818187,
                "tempo": 120.0
            },
            {
                "start_time": 30.445454545454545,
                "end_time": 30.659090909090907,
                "pitch": 57,
                "velocity": 51,
                "duration": 0.21363636363636118,
                "tempo": 120.0
            },
            {
                "start_time": 30.674999999999997,
                "end_time": 30.77272727272727,
                "pitch": 57,
                "velocity": 51,
                "duration": 0.09772727272727266,
                "tempo": 120.0
            },
            {
                "start_time": 30.78863636363636,
                "end_time": 30.988636363636363,
                "pitch": 57,
                "velocity": 51,
                "duration": 0.20000000000000284,
                "tempo": 120.0
            },
            {
                "start_time": 31.00681818181818,
                "end_time": 31.10909090909091,
                "pitch": 57,
                "velocity": 51,
                "duration": 0.10227272727273018,
                "tempo": 120.0
            },
            {
                "start_time": 31.125,
                "end_time": 31.347727272727273,
                "pitch": 57,
                "velocity": 51,
                "duration": 0.22272727272727266,
                "tempo": 120.0
            },
            {
                "start_time": 31.593181818181815,
                "end_time": 32.018181818181816,
                "pitch": 45,
                "velocity": 51,
                "duration": 0.4250000000000007,
                "tempo": 120.0
            },
            {
                "start_time": 32.49772727272727,
                "end_time": 32.93181818181818,
                "pitch": 47,
                "velocity": 51,
                "duration": 0.4340909090909122,
                "tempo": 120.0
            },
            {
                "start_time": 33.4,
                "end_time": 33.84772727272727,
                "pitch": 49,
                "velocity": 51,
                "duration": 0.44772727272727053,
                "tempo": 120.0
            },
            {
                "start_time": 34.309090909090905,
                "end_time": 34.76136363636363,
                "pitch": 47,
                "velocity": 51,
                "duration": 0.45227272727272805,
                "tempo": 120.0
            },
            {
                "start_time": 35.225,
                "end_time": 35.65909090909091,
                "pitch": 40,
                "velocity": 51,
                "duration": 0.4340909090909051,
                "tempo": 120.0
            },
            {
                "start_time": 36.13863636363636,
                "end_time": 36.56818181818181,
                "pitch": 42,
                "velocity": 51,
                "duration": 0.4295454545454547,
                "tempo": 120.0
            },
            {
                "start_time": 37.05227272727272,
                "end_time": 37.486363636363635,
                "pitch": 44,
                "velocity": 51,
                "duration": 0.4340909090909122,
                "tempo": 120.0
            },
            {
                "start_time": 37.96818181818182,
                "end_time": 38.393181818181816,
                "pitch": 42,
                "velocity": 51,
                "duration": 0.42499999999999716,
                "tempo": 120.0
            }
        ]
    }
}