{
    "track_id": "Captain Silver (FM) - 10 - Ending",
    "mood": "happy",
    "instruments": {
        "Acoustic Grand Piano": [
            {
                "start_time": 0.015909090909090907,
                "end_time": 0.0659090909090909,
                "pitch": 56,
                "velocity": 80,
                "duration": 0.049999999999999996,
                "tempo": 120.0
            },
            {
                "start_time": 0.0659090909090909,
                "end_time": 0.18181818181818182,
                "pitch": 56,
                "velocity": 80,
                "duration": 0.11590909090909092,
                "tempo": 120.0
            },
            {
                "start_time": 0.19772727272727272,
                "end_time": 0.3818181818181818,
                "pitch": 58,
                "velocity": 80,
                "duration": 0.18409090909090906,
                "tempo": 120.0
            },
            {
                "start_time": 0.3977272727272727,
                "end_time": 0.5727272727272728,
                "pitch": 60,
                "velocity": 80,
                "duration": 0.17500000000000004,
                "tempo": 120.0
            },
            {
                "start_time": 0.5886363636363636,
                "end_time": 0.9636363636363636,
                "pitch": 63,
                "velocity": 80,
                "duration": 0.375,
                "tempo": 120.0
            },
            {
                "start_time": 0.9795454545454545,
                "end_time": 1.1636363636363636,
                "pitch": 60,
                "velocity": 80,
                "duration": 0.18409090909090908,
                "tempo": 120.0
            },
            {
                "start_time": 1.1795454545454545,
                "end_time": 1.3681818181818182,
                "pitch": 58,
                "velocity": 80,
                "duration": 0.1886363636363637,
                "tempo": 120.0
            },
            {
                "start_time": 1.3863636363636362,
                "end_time": 1.575,
                "pitch": 56,
                "velocity": 80,
                "duration": 0.1886363636363637,
                "tempo": 120.0
            },
            {
                "start_time": 1.5909090909090908,
                "end_time": 1.6749999999999998,
                "pitch": 58,
                "velocity": 80,
                "duration": 0.084090909090909,
                "tempo": 120.0
            },
            {
                "start_time": 1.690909090909091,
                "end_time": 1.775,
                "pitch": 60,
                "velocity": 80,
                "duration": 0.084090909090909,
                "tempo": 120.0
            },
            {
                "start_time": 1.793181818181818,
                "end_time": 1.8772727272727272,
                "pitch": 58,
                "velocity": 80,
                "duration": 0.08409090909090922,
                "tempo": 120.0
            },
            {
                "start_time": 1.893181818181818,
                "end_time": 1.977272727272727,
                "pitch": 60,
                "velocity": 80,
                "duration": 0.084090909090909,
                "tempo": 120.0
            },
            {
                "start_time": 1.9931818181818182,
                "end_time": 2.1772727272727272,
                "pitch": 58,
                "velocity": 80,
                "duration": 0.18409090909090908,
                "tempo": 120.0
            },
            {
                "start_time": 2.193181818181818,
                "end_time": 2.377272727272727,
                "pitch": 56,
                "velocity": 80,
                "duration": 0.18409090909090908,
                "tempo": 120.0
            },
            {
                "start_time": 2.393181818181818,
                "end_time": 2.9727272727272727,
                "pitch": 53,
                "velocity": 80,
                "duration": 0.5795454545454546,
                "tempo": 120.0
            },
            {
                "start_time": 2.9909090909090907,
                "end_time": 3.1704545454545454,
                "pitch": 51,
                "velocity": 80,
                "duration": 0.17954545454545467,
                "tempo": 120.0
            },
            {
                "start_time": 3.186363636363636,
                "end_time": 3.2704545454545455,
                "pitch": 53,
                "velocity": 80,
                "duration": 0.08409090909090944,
                "tempo": 120.0
            },
            {
                "start_time": 3.286363636363636,
                "end_time": 3.370454545454545,
                "pitch": 55,
                "velocity": 80,
                "duration": 0.084090909090909,
                "tempo": 120.0
            },
            {
                "start_time": 3.3863636363636362,
                "end_time": 3.4704545454545452,
                "pitch": 53,
                "velocity": 80,
                "duration": 0.084090909090909,
                "tempo": 120.0
            },
            {
                "start_time": 3.4863636363636363,
                "end_time": 3.5704545454545453,
                "pitch": 55,
                "velocity": 80,
                "duration": 0.084090909090909,
                "tempo": 120.0
            },
            {
                "start_time": 3.586363636363636,
                "end_time": 3.775,
                "pitch": 60,
                "velocity": 80,
                "duration": 0.18863636363636394,
                "tempo": 120.0
            },
            {
                "start_time": 3.7909090909090906,
                "end_time": 3.9795454545454545,
                "pitch": 48,
                "velocity": 80,
                "duration": 0.18863636363636394,
                "tempo": 120.0
            },
            {
                "start_time": 3.9977272727272726,
                "end_time": 4.079545454545454,
                "pitch": 53,
                "velocity": 80,
                "duration": 0.08181818181818157,
                "tempo": 120.0
            },
            {
                "start_time": 4.097727272727273,
                "end_time": 4.179545454545455,
                "pitch": 55,
                "velocity": 80,
                "duration": 0.08181818181818201,
                "tempo": 120.0
            },
            {
                "start_time": 4.197727272727272,
                "end_time": 4.279545454545454,
                "pitch": 53,
                "velocity": 80,
                "duration": 0.08181818181818201,
                "tempo": 120.0
            },
            {
                "start_time": 4.297727272727273,
                "end_time": 4.379545454545454,
                "pitch": 55,
                "velocity": 80,
                "duration": 0.08181818181818112,
                "tempo": 120.0
            },
            {
                "start_time": 4.3977272727272725,
                "end_time": 4.581818181818182,
                "pitch": 60,
                "velocity": 80,
                "duration": 0.18409090909090953,
                "tempo": 120.0
            },
            {
                "start_time": 4.597727272727273,
                "end_time": 4.784090909090909,
                "pitch": 48,
                "velocity": 80,
                "duration": 0.1863636363636365,
                "tempo": 120.0
            },
            {
                "start_time": 4.8,
                "end_time": 4.884090909090909,
                "pitch": 53,
                "velocity": 80,
                "duration": 0.084090909090909,
                "tempo": 120.0
            },
            {
                "start_time": 4.8999999999999995,
                "end_time": 4.9840909090909085,
                "pitch": 55,
                "velocity": 80,
                "duration": 0.084090909090909,
                "tempo": 120.0
            },
            {
                "start_time": 5.0,
                "end_time": 5.084090909090909,
                "pitch": 53,
                "velocity": 80,
                "duration": 0.084090909090909,
                "tempo": 120.0
            },
            {
                "start_time": 5.1,
                "end_time": 5.184090909090909,
                "pitch": 55,
                "velocity": 80,
                "duration": 0.084090909090909,
                "tempo": 120.0
            },
            {
                "start_time": 5.2,
                "end_time": 5.384090909090909,
                "pitch": 60,
                "velocity": 80,
                "duration": 0.18409090909090864,
                "tempo": 120.0
            },
            {
                "start_time": 5.3999999999999995,
                "end_time": 5.995454545454545,
                "pitch": 53,
                "velocity": 80,
                "duration": 0.5954545454545457,
                "tempo": 120.0
            },
            {
                "start_time": 6.013636363636364,
                "end_time": 6.388636363636364,
                "pitch": 51,
                "velocity": 80,
                "duration": 0.375,
                "tempo": 120.0
            },
            {
                "start_time": 6.404545454545454,
                "end_time": 6.590909090909091,
                "pitch": 56,
                "velocity": 80,
                "duration": 0.1863636363636365,
                "tempo": 120.0
            },
            {
                "start_time": 6.6068181818181815,
                "end_time": 6.790909090909091,
                "pitch": 58,
                "velocity": 80,
                "duration": 0.18409090909090953,
                "tempo": 120.0
            },
            {
                "start_time": 6.809090909090909,
                "end_time": 6.99090909090909,
                "pitch": 60,
                "velocity": 80,
                "duration": 0.18181818181818166,
                "tempo": 120.0
            },
            {
                "start_time": 7.009090909090909,
                "end_time": 7.388636363636364,
                "pitch": 63,
                "velocity": 80,
                "duration": 0.37954545454545485,
                "tempo": 120.0
            },
            {
                "start_time": 7.404545454545454,
                "end_time": 7.584090909090909,
                "pitch": 60,
                "velocity": 80,
                "duration": 0.17954545454545467,
                "tempo": 120.0
            },
            {
                "start_time": 7.6,
                "end_time": 7.784090909090908,
                "pitch": 58,
                "velocity": 80,
                "duration": 0.18409090909090864,
                "tempo": 120.0
            },
            {
                "start_time": 7.8,
                "end_time": 7.9840909090909085,
                "pitch": 56,
                "velocity": 80,
                "duration": 0.18409090909090864,
                "tempo": 120.0
            },
            {
                "start_time": 8.0,
                "end_time": 8.086363636363636,
                "pitch": 58,
                "velocity": 80,
                "duration": 0.08636363636363598,
                "tempo": 120.0
            },
            {
                "start_time": 8.102272727272727,
                "end_time": 8.188636363636363,
                "pitch": 60,
                "velocity": 80,
                "duration": 0.08636363636363598,
                "tempo": 120.0
            },
            {
                "start_time": 8.204545454545455,
                "end_time": 8.290909090909091,
                "pitch": 58,
                "velocity": 80,
                "duration": 0.08636363636363598,
                "tempo": 120.0
            },
            {
                "start_time": 8.309090909090909,
                "end_time": 8.393181818181818,
                "pitch": 60,
                "velocity": 80,
                "duration": 0.084090909090909,
                "tempo": 120.0
            },
            {
                "start_time": 8.411363636363635,
                "end_time": 8.595454545454546,
                "pitch": 58,
                "velocity": 80,
                "duration": 0.18409090909091042,
                "tempo": 120.0
            },
            {
                "start_time": 8.613636363636363,
                "end_time": 8.797727272727272,
                "pitch": 56,
                "velocity": 80,
                "duration": 0.18409090909090864,
                "tempo": 120.0
            },
            {
                "start_time": 8.813636363636363,
                "end_time": 9.395454545454545,
                "pitch": 53,
                "velocity": 80,
                "duration": 0.581818181818182,
                "tempo": 120.0
            },
            {
                "start_time": 9.411363636363635,
                "end_time": 9.593181818181817,
                "pitch": 51,
                "velocity": 80,
                "duration": 0.18181818181818166,
                "tempo": 120.0
            },
            {
                "start_time": 9.60909090909091,
                "end_time": 9.693181818181818,
                "pitch": 53,
                "velocity": 80,
                "duration": 0.084090909090909,
                "tempo": 120.0
            },
            {
                "start_time": 9.709090909090909,
                "end_time": 9.793181818181818,
                "pitch": 55,
                "velocity": 80,
                "duration": 0.084090909090909,
                "tempo": 120.0
            },
            {
                "start_time": 9.809090909090909,
                "end_time": 9.893181818181818,
                "pitch": 53,
                "velocity": 80,
                "duration": 0.084090909090909,
                "tempo": 120.0
            },
            {
                "start_time": 9.911363636363635,
                "end_time": 9.995454545454544,
                "pitch": 55,
                "velocity": 80,
                "duration": 0.084090909090909,
                "tempo": 120.0
            },
            {
                "start_time": 10.011363636363637,
                "end_time": 10.2,
                "pitch": 60,
                "velocity": 80,
                "duration": 0.1886363636363626,
                "tempo": 120.0
            },
            {
                "start_time": 10.21590909090909,
                "end_time": 10.404545454545454,
                "pitch": 48,
                "velocity": 80,
                "duration": 0.18863636363636438,
                "tempo": 120.0
            },
            {
                "start_time": 10.422727272727272,
                "end_time": 10.506818181818181,
                "pitch": 53,
                "velocity": 80,
                "duration": 0.084090909090909,
                "tempo": 120.0
            },
            {
                "start_time": 10.522727272727272,
                "end_time": 10.60681818181818,
                "pitch": 55,
                "velocity": 80,
                "duration": 0.084090909090909,
                "tempo": 120.0
            },
            {
                "start_time": 10.622727272727273,
                "end_time": 10.706818181818182,
                "pitch": 53,
                "velocity": 80,
                "duration": 0.084090909090909,
                "tempo": 120.0
            },
            {
                "start_time": 10.725,
                "end_time": 10.809090909090909,
                "pitch": 55,
                "velocity": 80,
                "duration": 0.084090909090909,
                "tempo": 120.0
            },
            {
                "start_time": 10.825,
                "end_time": 11.009090909090908,
                "pitch": 60,
                "velocity": 80,
                "duration": 0.18409090909090864,
                "tempo": 120.0
            },
            {
                "start_time": 11.027272727272727,
                "end_time": 11.211363636363636,
                "pitch": 48,
                "velocity": 80,
                "duration": 0.18409090909090864,
                "tempo": 120.0
            },
            {
                "start_time": 11.227272727272727,
                "end_time": 11.406818181818181,
                "pitch": 53,
                "velocity": 80,
                "duration": 0.17954545454545467,
                "tempo": 120.0
            },
            {
                "start_time": 11.422727272727272,
                "end_time": 11.602272727272727,
                "pitch": 55,
                "velocity": 80,
                "duration": 0.17954545454545467,
                "tempo": 120.0
            },
            {
                "start_time": 11.620454545454544,
                "end_time": 11.806818181818182,
                "pitch": 60,
                "velocity": 80,
                "duration": 0.1863636363636374,
                "tempo": 120.0
            },
            {
                "start_time": 11.825,
                "end_time": 12.415909090909091,
                "pitch": 63,
                "velocity": 80,
                "duration": 0.5909090909090917,
                "tempo": 120.0
            },
            {
                "start_time": 12.434090909090909,
                "end_time": 12.818181818181818,
                "pitch": 65,
                "velocity": 80,
                "duration": 0.3840909090909097,
                "tempo": 120.0
            },
            {
                "start_time": 12.836363636363636,
                "end_time": 13.01590909090909,
                "pitch": 63,
                "velocity": 80,
                "duration": 0.17954545454545467,
                "tempo": 120.0
            },
            {
                "start_time": 13.031818181818181,
                "end_time": 13.211363636363636,
                "pitch": 65,
                "velocity": 80,
                "duration": 0.17954545454545467,
                "tempo": 120.0
            },
            {
                "start_time": 13.227272727272727,
                "end_time": 13.413636363636362,
                "pitch": 67,
                "velocity": 80,
                "duration": 0.18636363636363562,
                "tempo": 120.0
            },
            {
                "start_time": 13.429545454545455,
                "end_time": 14.006818181818181,
                "pitch": 65,
                "velocity": 80,
                "duration": 0.5772727272727263,
                "tempo": 120.0
            },
            {
                "start_time": 14.022727272727272,
                "end_time": 14.415909090909091,
                "pitch": 63,
                "velocity": 80,
                "duration": 0.3931818181818194,
                "tempo": 120.0
            },
            {
                "start_time": 14.434090909090909,
                "end_time": 14.618181818181817,
                "pitch": 63,
                "velocity": 80,
                "duration": 0.18409090909090864,
                "tempo": 120.0
            },
            {
                "start_time": 14.634090909090908,
                "end_time": 14.820454545454545,
                "pitch": 65,
                "velocity": 80,
                "duration": 0.1863636363636374,
                "tempo": 120.0
            },
            {
                "start_time": 14.836363636363636,
                "end_time": 15.020454545454545,
                "pitch": 66,
                "velocity": 80,
                "duration": 0.18409090909090864,
                "tempo": 120.0
            },
            {
                "start_time": 15.036363636363635,
                "end_time": 15.622727272727271,
                "pitch": 65,
                "velocity": 80,
                "duration": 0.586363636363636,
                "tempo": 120.0
            },
            {
                "start_time": 15.638636363636364,
                "end_time": 16.025,
                "pitch": 63,
                "velocity": 80,
                "duration": 0.3863636363636349,
                "tempo": 120.0
            },
            {
                "start_time": 16.04090909090909,
                "end_time": 16.227272727272727,
                "pitch": 63,
                "velocity": 80,
                "duration": 0.1863636363636374,
                "tempo": 120.0
            },
            {
                "start_time": 16.243181818181817,
                "end_time": 16.427272727272726,
                "pitch": 65,
                "velocity": 80,
                "duration": 0.18409090909090864,
                "tempo": 120.0
            },
            {
                "start_time": 16.445454545454545,
                "end_time": 16.629545454545454,
                "pitch": 67,
                "velocity": 80,
                "duration": 0.18409090909090864,
                "tempo": 120.0
            },
            {
                "start_time": 16.645454545454545,
                "end_time": 16.829545454545453,
                "pitch": 65,
                "velocity": 80,
                "duration": 0.18409090909090864,
                "tempo": 120.0
            },
            {
                "start_time": 16.847727272727273,
                "end_time": 17.029545454545453,
                "pitch": 63,
                "velocity": 80,
                "duration": 0.18181818181817988,
                "tempo": 120.0
            },
            {
                "start_time": 17.047727272727272,
                "end_time": 17.229545454545455,
                "pitch": 65,
                "velocity": 80,
                "duration": 0.18181818181818343,
                "tempo": 120.0
            },
            {
                "start_time": 17.24772727272727,
                "end_time": 17.43181818181818,
                "pitch": 66,
                "velocity": 80,
                "duration": 0.18409090909090864,
                "tempo": 120.0
            },
            {
                "start_time": 17.44772727272727,
                "end_time": 17.631818181818183,
                "pitch": 65,
                "velocity": 80,
                "duration": 0.1840909090909122,
                "tempo": 120.0
            },
            {
                "start_time": 17.65,
                "end_time": 17.73181818181818,
                "pitch": 63,
                "velocity": 80,
                "duration": 0.08181818181818201,
                "tempo": 120.0
            },
            {
                "start_time": 17.74772727272727,
                "end_time": 17.829545454545453,
                "pitch": 65,
                "velocity": 80,
                "duration": 0.08181818181818201,
                "tempo": 120.0
            },
            {
                "start_time": 17.845454545454544,
                "end_time": 17.927272727272726,
                "pitch": 63,
                "velocity": 80,
                "duration": 0.08181818181818201,
                "tempo": 120.0
            },
            {
                "start_time": 17.943181818181817,
                "end_time": 18.025,
                "pitch": 65,
                "velocity": 80,
                "duration": 0.08181818181818201,
                "tempo": 120.0
            },
            {
                "start_time": 18.04090909090909,
                "end_time": 18.127272727272725,
                "pitch": 67,
                "velocity": 80,
                "duration": 0.08636363636363598,
                "tempo": 120.0
            },
            {
                "start_time": 18.145454545454545,
                "end_time": 18.229545454545455,
                "pitch": 65,
                "velocity": 80,
                "duration": 0.08409090909091077,
                "tempo": 120.0
            },
            {
                "start_time": 18.24772727272727,
                "end_time": 18.331818181818182,
                "pitch": 67,
                "velocity": 80,
                "duration": 0.08409090909091077,
                "tempo": 120.0
            },
            {
                "start_time": 18.349999999999998,
                "end_time": 18.436363636363634,
                "pitch": 65,
                "velocity": 80,
                "duration": 0.08636363636363598,
                "tempo": 120.0
            },
            {
                "start_time": 18.452272727272728,
                "end_time": 18.536363636363635,
                "pitch": 63,
                "velocity": 80,
                "duration": 0.08409090909090722,
                "tempo": 120.0
            },
            {
                "start_time": 18.552272727272726,
                "end_time": 18.636363636363637,
                "pitch": 65,
                "velocity": 80,
                "duration": 0.08409090909091077,
                "tempo": 120.0
            },
            {
                "start_time": 18.654545454545453,
                "end_time": 18.738636363636363,
                "pitch": 67,
                "velocity": 80,
                "duration": 0.08409090909091077,
                "tempo": 120.0
            },
            {
                "start_time": 18.754545454545454,
                "end_time": 18.83863636363636,
                "pitch": 65,
                "velocity": 80,
                "duration": 0.08409090909090722,
                "tempo": 120.0
            },
            {
                "start_time": 18.854545454545455,
                "end_time": 18.938636363636363,
                "pitch": 63,
                "velocity": 80,
                "duration": 0.08409090909090722,
                "tempo": 120.0
            },
            {
                "start_time": 18.954545454545453,
                "end_time": 19.038636363636364,
                "pitch": 61,
                "velocity": 80,
                "duration": 0.08409090909091077,
                "tempo": 120.0
            },
            {
                "start_time": 19.054545454545455,
                "end_time": 19.138636363636362,
                "pitch": 60,
                "velocity": 80,
                "duration": 0.08409090909090722,
                "tempo": 120.0
            },
            {
                "start_time": 19.154545454545453,
                "end_time": 19.238636363636363,
                "pitch": 58,
                "velocity": 80,
                "duration": 0.08409090909091077,
                "tempo": 120.0
            },
            {
                "start_time": 19.254545454545454,
                "end_time": 19.443181818181817,
                "pitch": 56,
                "velocity": 80,
                "duration": 0.1886363636363626,
                "tempo": 120.0
            },
            {
                "start_time": 19.461363636363636,
                "end_time": 19.65,
                "pitch": 58,
                "velocity": 80,
                "duration": 0.1886363636363626,
                "tempo": 120.0
            },
            {
                "start_time": 19.66590909090909,
                "end_time": 19.845454545454544,
                "pitch": 60,
                "velocity": 80,
                "duration": 0.17954545454545467,
                "tempo": 120.0
            },
            {
                "start_time": 19.861363636363635,
                "end_time": 20.24090909090909,
                "pitch": 63,
                "velocity": 80,
                "duration": 0.37954545454545396,
                "tempo": 120.0
            },
            {
                "start_time": 20.259090909090908,
                "end_time": 20.44090909090909,
                "pitch": 60,
                "velocity": 80,
                "duration": 0.18181818181818343,
                "tempo": 120.0
            },
            {
                "start_time": 20.459090909090907,
                "end_time": 20.645454545454545,
                "pitch": 58,
                "velocity": 80,
                "duration": 0.1863636363636374,
                "tempo": 120.0
            },
            {
                "start_time": 20.663636363636364,
                "end_time": 20.852272727272727,
                "pitch": 56,
                "velocity": 80,
                "duration": 0.1886363636363626,
                "tempo": 120.0
            },
            {
                "start_time": 20.868181818181817,
                "end_time": 20.952272727272724,
                "pitch": 58,
                "velocity": 80,
                "duration": 0.08409090909090722,
                "tempo": 120.0
            },
            {
                "start_time": 20.970454545454544,
                "end_time": 21.054545454545455,
                "pitch": 60,
                "velocity": 80,
                "duration": 0.08409090909091077,
                "tempo": 120.0
            },
            {
                "start_time": 21.070454545454545,
                "end_time": 21.154545454545453,
                "pitch": 58,
                "velocity": 80,
                "duration": 0.08409090909090722,
                "tempo": 120.0
            },
            {
                "start_time": 21.170454545454543,
                "end_time": 21.254545454545454,
                "pitch": 60,
                "velocity": 80,
                "duration": 0.08409090909091077,
                "tempo": 120.0
            },
            {
                "start_time": 21.272727272727273,
                "end_time": 21.454545454545453,
                "pitch": 58,
                "velocity": 80,
                "duration": 0.18181818181817988,
                "tempo": 120.0
            },
            {
                "start_time": 21.472727272727273,
                "end_time": 21.654545454545453,
                "pitch": 56,
                "velocity": 80,
                "duration": 0.18181818181817988,
                "tempo": 120.0
            },
            {
                "start_time": 21.672727272727272,
                "end_time": 22.25681818181818,
                "pitch": 53,
                "velocity": 80,
                "duration": 0.5840909090909072,
                "tempo": 120.0
            },
            {
                "start_time": 22.275,
                "end_time": 22.456818181818182,
                "pitch": 51,
                "velocity": 80,
                "duration": 0.18181818181818343,
                "tempo": 120.0
            },
            {
                "start_time": 22.474999999999998,
                "end_time": 22.55681818181818,
                "pitch": 53,
                "velocity": 80,
                "duration": 0.08181818181818201,
                "tempo": 120.0
            },
            {
                "start_time": 22.57272727272727,
                "end_time": 22.654545454545453,
                "pitch": 55,
                "velocity": 80,
                "duration": 0.08181818181818201,
                "tempo": 120.0
            },
            {
                "start_time": 22.670454545454543,
                "end_time": 22.752272727272725,
                "pitch": 53,
                "velocity": 80,
                "duration": 0.08181818181818201,
                "tempo": 120.0
            },
            {
                "start_time": 22.768181818181816,
                "end_time": 22.849999999999998,
                "pitch": 55,
                "velocity": 80,
                "duration": 0.08181818181818201,
                "tempo": 120.0
            },
            {
                "start_time": 22.86590909090909,
                "end_time": 23.054545454545455,
                "pitch": 60,
                "velocity": 80,
                "duration": 0.18863636363636616,
                "tempo": 120.0
            },
            {
                "start_time": 23.07272727272727,
                "end_time": 23.259090909090908,
                "pitch": 48,
                "velocity": 80,
                "duration": 0.1863636363636374,
                "tempo": 120.0
            },
            {
                "start_time": 23.277272727272727,
                "end_time": 23.361363636363635,
                "pitch": 53,
                "velocity": 80,
                "duration": 0.08409090909090722,
                "tempo": 120.0
            },
            {
                "start_time": 23.377272727272725,
                "end_time": 23.461363636363636,
                "pitch": 55,
                "velocity": 80,
                "duration": 0.08409090909091077,
                "tempo": 120.0
            },
            {
                "start_time": 23.477272727272727,
                "end_time": 23.561363636363634,
                "pitch": 53,
                "velocity": 80,
                "duration": 0.08409090909090722,
                "tempo": 120.0
            },
            {
                "start_time": 23.577272727272724,
                "end_time": 23.661363636363635,
                "pitch": 55,
                "velocity": 80,
                "duration": 0.08409090909091077,
                "tempo": 120.0
            },
            {
                "start_time": 23.677272727272726,
                "end_time": 23.861363636363635,
                "pitch": 60,
                "velocity": 80,
                "duration": 0.18409090909090864,
                "tempo": 120.0
            },
            {
                "start_time": 23.879545454545454,
                "end_time": 24.063636363636363,
                "pitch": 48,
                "velocity": 80,
                "duration": 0.18409090909090864,
                "tempo": 120.0
            },
            {
                "start_time": 24.079545454545453,
                "end_time": 24.163636363636364,
                "pitch": 53,
                "velocity": 80,
                "duration": 0.08409090909091077,
                "tempo": 120.0
            },
            {
                "start_time": 24.179545454545455,
                "end_time": 24.263636363636362,
                "pitch": 55,
                "velocity": 80,
                "duration": 0.08409090909090722,
                "tempo": 120.0
            },
            {
                "start_time": 24.279545454545453,
                "end_time": 24.363636363636363,
                "pitch": 53,
                "velocity": 80,
                "duration": 0.08409090909091077,
                "tempo": 120.0
            },
            {
                "start_time": 24.379545454545454,
                "end_time": 24.46363636363636,
                "pitch": 55,
                "velocity": 80,
                "duration": 0.08409090909090722,
                "tempo": 120.0
            },
            {
                "start_time": 24.479545454545452,
                "end_time": 24.663636363636364,
                "pitch": 60,
                "velocity": 80,
                "duration": 0.1840909090909122,
                "tempo": 120.0
            },
            {
                "start_time": 24.679545454545455,
                "end_time": 25.27272727272727,
                "pitch": 53,
                "velocity": 80,
                "duration": 0.5931818181818151,
                "tempo": 120.0
            },
            {
                "start_time": 25.29090909090909,
                "end_time": 25.66590909090909,
                "pitch": 51,
                "velocity": 80,
                "duration": 0.375,
                "tempo": 120.0
            },
            {
                "start_time": 25.68181818181818,
                "end_time": 25.868181818181817,
                "pitch": 56,
                "velocity": 80,
                "duration": 0.1863636363636374,
                "tempo": 120.0
            },
            {
                "start_time": 25.884090909090908,
                "end_time": 26.068181818181817,
                "pitch": 58,
                "velocity": 80,
                "duration": 0.18409090909090864,
                "tempo": 120.0
            },
            {
                "start_time": 26.086363636363636,
                "end_time": 26.268181818181816,
                "pitch": 60,
                "velocity": 80,
                "duration": 0.18181818181817988,
                "tempo": 120.0
            },
            {
                "start_time": 26.286363636363635,
                "end_time": 26.66590909090909,
                "pitch": 63,
                "velocity": 80,
                "duration": 0.37954545454545396,
                "tempo": 120.0
            },
            {
                "start_time": 26.68181818181818,
                "end_time": 26.861363636363635,
                "pitch": 60,
                "velocity": 80,
                "duration": 0.17954545454545467,
                "tempo": 120.0
            },
            {
                "start_time": 26.877272727272725,
                "end_time": 27.06590909090909,
                "pitch": 58,
                "velocity": 80,
                "duration": 0.18863636363636616,
                "tempo": 120.0
            },
            {
                "start_time": 27.081818181818182,
                "end_time": 27.270454545454545,
                "pitch": 56,
                "velocity": 80,
                "duration": 0.1886363636363626,
                "tempo": 120.0
            },
            {
                "start_time": 27.288636363636364,
                "end_time": 27.468181818181815,
                "pitch": 61,
                "velocity": 80,
                "duration": 0.17954545454545112,
                "tempo": 120.0
            },
            {
                "start_time": 27.48409090909091,
                "end_time": 27.663636363636364,
                "pitch": 63,
                "velocity": 80,
                "duration": 0.17954545454545467,
                "tempo": 120.0
            },
            {
                "start_time": 27.679545454545455,
                "end_time": 27.863636363636363,
                "pitch": 65,
                "velocity": 80,
                "duration": 0.18409090909090864,
                "tempo": 120.0
            },
            {
                "start_time": 27.879545454545454,
                "end_time": 28.27272727272727,
                "pitch": 68,
                "velocity": 80,
                "duration": 0.39318181818181586,
                "tempo": 120.0
            },
            {
                "start_time": 28.29090909090909,
                "end_time": 28.48409090909091,
                "pitch": 65,
                "velocity": 80,
                "duration": 0.19318181818182012,
                "tempo": 120.0
            },
            {
                "start_time": 28.502272727272725,
                "end_time": 28.68181818181818,
                "pitch": 63,
                "velocity": 80,
                "duration": 0.17954545454545467,
                "tempo": 120.0
            },
            {
                "start_time": 28.69772727272727,
                "end_time": 28.877272727272725,
                "pitch": 61,
                "velocity": 80,
                "duration": 0.17954545454545467,
                "tempo": 120.0
            },
            {
                "start_time": 28.895454545454545,
                "end_time": 29.075,
                "pitch": 56,
                "velocity": 80,
                "duration": 0.17954545454545467,
                "tempo": 120.0
            },
            {
                "start_time": 29.09090909090909,
                "end_time": 29.270454545454545,
                "pitch": 58,
                "velocity": 80,
                "duration": 0.17954545454545467,
                "tempo": 120.0
            },
            {
                "start_time": 29.286363636363635,
                "end_time": 29.474999999999998,
                "pitch": 60,
                "velocity": 80,
                "duration": 0.1886363636363626,
                "tempo": 120.0
            },
            {
                "start_time": 29.493181818181817,
                "end_time": 29.877272727272725,
                "pitch": 63,
                "velocity": 80,
                "duration": 0.38409090909090793,
                "tempo": 120.0
            },
            {
                "start_time": 29.893181818181816,
                "end_time": 30.07272727272727,
                "pitch": 60,
                "velocity": 80,
                "duration": 0.17954545454545467,
                "tempo": 120.0
            },
            {
                "start_time": 30.08863636363636,
                "end_time": 30.27272727272727,
                "pitch": 63,
                "velocity": 80,
                "duration": 0.18409090909090864,
                "tempo": 120.0
            },
            {
                "start_time": 30.28863636363636,
                "end_time": 30.33863636363636,
                "pitch": 60,
                "velocity": 80,
                "duration": 0.05000000000000071,
                "tempo": 120.0
            },
            {
                "start_time": 30.35681818181818,
                "end_time": 30.40681818181818,
                "pitch": 63,
                "velocity": 80,
                "duration": 0.05000000000000071,
                "tempo": 120.0
            },
            {
                "start_time": 30.422727272727272,
                "end_time": 30.472727272727273,
                "pitch": 65,
                "velocity": 80,
                "duration": 0.05000000000000071,
                "tempo": 120.0
            },
            {
                "start_time": 30.488636363636363,
                "end_time": 30.875,
                "pitch": 68,
                "velocity": 80,
                "duration": 0.3863636363636367,
                "tempo": 120.0
            },
            {
                "start_time": 31.193181818181817,
                "end_time": 31.275,
                "pitch": 68,
                "velocity": 80,
                "duration": 0.08181818181818201,
                "tempo": 120.0
            },
            {
                "start_time": 31.293181818181818,
                "end_time": 31.686363636363634,
                "pitch": 80,
                "velocity": 80,
                "duration": 0.39318181818181586,
                "tempo": 120.0
            },
            {
                "start_time": 32.095454545454544,
                "end_time": 32.16136363636363,
                "pitch": 56,
                "velocity": 80,
                "duration": 0.06590909090908781,
                "tempo": 120.0
            }
        ],
        "Electric Guitar (clean)": [
            {
                "start_time": 0.015909090909090907,
                "end_time": 0.0659090909090909,
                "pitch": 32,
                "velocity": 51,
                "duration": 0.049999999999999996,
                "tempo": 120.0
            },
            {
                "start_time": 0.0659090909090909,
                "end_time": 0.18181818181818182,
                "pitch": 32,
                "velocity": 51,
                "duration": 0.11590909090909092,
                "tempo": 120.0
            },
            {
                "start_time": 0.19772727272727272,
                "end_time": 0.3818181818181818,
                "pitch": 44,
                "velocity": 51,
                "duration": 0.18409090909090906,
                "tempo": 120.0
            },
            {
                "start_time": 0.3977272727272727,
                "end_time": 0.5727272727272728,
                "pitch": 32,
                "velocity": 51,
                "duration": 0.17500000000000004,
                "tempo": 120.0
            },
            {
                "start_time": 0.5886363636363636,
                "end_time": 0.7636363636363636,
                "pitch": 41,
                "velocity": 51,
                "duration": 0.17499999999999993,
                "tempo": 120.0
            },
            {
                "start_time": 0.7795454545454545,
                "end_time": 0.9636363636363636,
                "pitch": 32,
                "velocity": 51,
                "duration": 0.18409090909090908,
                "tempo": 120.0
            },
            {
                "start_time": 0.9795454545454545,
                "end_time": 1.1636363636363636,
                "pitch": 44,
                "velocity": 51,
                "duration": 0.18409090909090908,
                "tempo": 120.0
            },
            {
                "start_time": 1.1795454545454545,
                "end_time": 1.3681818181818182,
                "pitch": 32,
                "velocity": 51,
                "duration": 0.1886363636363637,
                "tempo": 120.0
            },
            {
                "start_time": 1.3863636363636362,
                "end_time": 1.575,
                "pitch": 48,
                "velocity": 51,
                "duration": 0.1886363636363637,
                "tempo": 120.0
            },
            {
                "start_time": 1.5909090909090908,
                "end_time": 1.775,
                "pitch": 32,
                "velocity": 51,
                "duration": 0.18409090909090908,
                "tempo": 120.0
            },
            {
                "start_time": 1.793181818181818,
                "end_time": 1.977272727272727,
                "pitch": 44,
                "velocity": 51,
                "duration": 0.18409090909090908,
                "tempo": 120.0
            },
            {
                "start_time": 1.9931818181818182,
                "end_time": 2.1772727272727272,
                "pitch": 32,
                "velocity": 51,
                "duration": 0.18409090909090908,
                "tempo": 120.0
            },
            {
                "start_time": 2.193181818181818,
                "end_time": 2.377272727272727,
                "pitch": 41,
                "velocity": 51,
                "duration": 0.18409090909090908,
                "tempo": 120.0
            },
            {
                "start_time": 2.393181818181818,
                "end_time": 2.577272727272727,
                "pitch": 32,
                "velocity": 51,
                "duration": 0.18409090909090908,
                "tempo": 120.0
            },
            {
                "start_time": 2.5931818181818183,
                "end_time": 2.7772727272727273,
                "pitch": 44,
                "velocity": 51,
                "duration": 0.18409090909090908,
                "tempo": 120.0
            },
            {
                "start_time": 2.793181818181818,
                "end_time": 2.9727272727272727,
                "pitch": 32,
                "velocity": 51,
                "duration": 0.17954545454545467,
                "tempo": 120.0
            },
            {
                "start_time": 2.9909090909090907,
                "end_time": 3.1704545454545454,
                "pitch": 48,
                "velocity": 51,
                "duration": 0.17954545454545467,
                "tempo": 120.0
            },
            {
                "start_time": 3.186363636363636,
                "end_time": 3.370454545454545,
                "pitch": 29,
                "velocity": 51,
                "duration": 0.18409090909090908,
                "tempo": 120.0
            },
            {
                "start_time": 3.3863636363636362,
                "end_time": 3.5704545454545453,
                "pitch": 41,
                "velocity": 51,
                "duration": 0.18409090909090908,
                "tempo": 120.0
            },
            {
                "start_time": 3.586363636363636,
                "end_time": 3.775,
                "pitch": 29,
                "velocity": 51,
                "duration": 0.18863636363636394,
                "tempo": 120.0
            },
            {
                "start_time": 3.7909090909090906,
                "end_time": 3.9795454545454545,
                "pitch": 37,
                "velocity": 51,
                "duration": 0.18863636363636394,
                "tempo": 120.0
            },
            {
                "start_time": 3.9977272727272726,
                "end_time": 4.179545454545455,
                "pitch": 29,
                "velocity": 51,
                "duration": 0.1818181818181821,
                "tempo": 120.0
            },
            {
                "start_time": 4.197727272727272,
                "end_time": 4.379545454545454,
                "pitch": 41,
                "velocity": 51,
                "duration": 0.18181818181818166,
                "tempo": 120.0
            },
            {
                "start_time": 4.3977272727272725,
                "end_time": 4.581818181818182,
                "pitch": 29,
                "velocity": 51,
                "duration": 0.18409090909090953,
                "tempo": 120.0
            },
            {
                "start_time": 4.597727272727273,
                "end_time": 4.784090909090909,
                "pitch": 44,
                "velocity": 51,
                "duration": 0.1863636363636365,
                "tempo": 120.0
            },
            {
                "start_time": 4.8,
                "end_time": 4.9840909090909085,
                "pitch": 27,
                "velocity": 51,
                "duration": 0.18409090909090864,
                "tempo": 120.0
            },
            {
                "start_time": 5.0,
                "end_time": 5.184090909090909,
                "pitch": 39,
                "velocity": 51,
                "duration": 0.18409090909090864,
                "tempo": 120.0
            },
            {
                "start_time": 5.2,
                "end_time": 5.384090909090909,
                "pitch": 27,
                "velocity": 51,
                "duration": 0.18409090909090864,
                "tempo": 120.0
            },
            {
                "start_time": 5.3999999999999995,
                "end_time": 5.586363636363636,
                "pitch": 36,
                "velocity": 51,
                "duration": 0.1863636363636365,
                "tempo": 120.0
            },
            {
                "start_time": 5.602272727272727,
                "end_time": 5.790909090909091,
                "pitch": 27,
                "velocity": 51,
                "duration": 0.18863636363636438,
                "tempo": 120.0
            },
            {
                "start_time": 5.806818181818182,
                "end_time": 5.995454545454545,
                "pitch": 39,
                "velocity": 51,
                "duration": 0.1886363636363635,
                "tempo": 120.0
            },
            {
                "start_time": 6.013636363636364,
                "end_time": 6.1931818181818175,
                "pitch": 27,
                "velocity": 51,
                "duration": 0.1795454545454538,
                "tempo": 120.0
            },
            {
                "start_time": 6.209090909090909,
                "end_time": 6.388636363636364,
                "pitch": 43,
                "velocity": 51,
                "duration": 0.17954545454545467,
                "tempo": 120.0
            },
            {
                "start_time": 6.404545454545454,
                "end_time": 6.590909090909091,
                "pitch": 32,
                "velocity": 51,
                "duration": 0.1863636363636365,
                "tempo": 120.0
            },
            {
                "start_time": 6.6068181818181815,
                "end_time": 6.790909090909091,
                "pitch": 44,
                "velocity": 51,
                "duration": 0.18409090909090953,
                "tempo": 120.0
            },
            {
                "start_time": 6.809090909090909,
                "end_time": 6.99090909090909,
                "pitch": 32,
                "velocity": 51,
                "duration": 0.18181818181818166,
                "tempo": 120.0
            },
            {
                "start_time": 7.009090909090909,
                "end_time": 7.1909090909090905,
                "pitch": 41,
                "velocity": 51,
                "duration": 0.18181818181818166,
                "tempo": 120.0
            },
            {
                "start_time": 7.206818181818181,
                "end_time": 7.388636363636364,
                "pitch": 32,
                "velocity": 51,
                "duration": 0.18181818181818254,
                "tempo": 120.0
            },
            {
                "start_time": 7.404545454545454,
                "end_time": 7.584090909090909,
                "pitch": 44,
                "velocity": 51,
                "duration": 0.17954545454545467,
                "tempo": 120.0
            },
            {
                "start_time": 7.6,
                "end_time": 7.784090909090908,
                "pitch": 32,
                "velocity": 51,
                "duration": 0.18409090909090864,
                "tempo": 120.0
            },
            {
                "start_time": 7.8,
                "end_time": 7.9840909090909085,
                "pitch": 48,
                "velocity": 51,
                "duration": 0.18409090909090864,
                "tempo": 120.0
            },
            {
                "start_time": 8.0,
                "end_time": 8.188636363636363,
                "pitch": 32,
                "velocity": 51,
                "duration": 0.1886363636363626,
                "tempo": 120.0
            },
            {
                "start_time": 8.204545454545455,
                "end_time": 8.393181818181818,
                "pitch": 44,
                "velocity": 51,
                "duration": 0.1886363636363626,
                "tempo": 120.0
            },
            {
                "start_time": 8.411363636363635,
                "end_time": 8.595454545454546,
                "pitch": 32,
                "velocity": 51,
                "duration": 0.18409090909091042,
                "tempo": 120.0
            },
            {
                "start_time": 8.613636363636363,
                "end_time": 8.797727272727272,
                "pitch": 41,
                "velocity": 51,
                "duration": 0.18409090909090864,
                "tempo": 120.0
            },
            {
                "start_time": 8.813636363636363,
                "end_time": 8.997727272727273,
                "pitch": 32,
                "velocity": 51,
                "duration": 0.18409090909091042,
                "tempo": 120.0
            },
            {
                "start_time": 9.01590909090909,
                "end_time": 9.2,
                "pitch": 44,
                "velocity": 51,
                "duration": 0.18409090909090864,
                "tempo": 120.0
            },
            {
                "start_time": 9.21590909090909,
                "end_time": 9.395454545454545,
                "pitch": 32,
                "velocity": 51,
                "duration": 0.17954545454545467,
                "tempo": 120.0
            },
            {
                "start_time": 9.411363636363635,
                "end_time": 9.593181818181817,
                "pitch": 48,
                "velocity": 51,
                "duration": 0.18181818181818166,
                "tempo": 120.0
            },
            {
                "start_time": 9.60909090909091,
                "end_time": 9.793181818181818,
                "pitch": 29,
                "velocity": 51,
                "duration": 0.18409090909090864,
                "tempo": 120.0
            },
            {
                "start_time": 9.809090909090909,
                "end_time": 9.995454545454544,
                "pitch": 41,
                "velocity": 51,
                "duration": 0.18636363636363562,
                "tempo": 120.0
            },
            {
                "start_time": 10.011363636363637,
                "end_time": 10.2,
                "pitch": 29,
                "velocity": 51,
                "duration": 0.1886363636363626,
                "tempo": 120.0
            },
            {
                "start_time": 10.21590909090909,
                "end_time": 10.404545454545454,
                "pitch": 37,
                "velocity": 51,
                "duration": 0.18863636363636438,
                "tempo": 120.0
            },
            {
                "start_time": 10.422727272727272,
                "end_time": 10.60681818181818,
                "pitch": 29,
                "velocity": 51,
                "duration": 0.18409090909090864,
                "tempo": 120.0
            },
            {
                "start_time": 10.622727272727273,
                "end_time": 10.809090909090909,
                "pitch": 41,
                "velocity": 51,
                "duration": 0.18636363636363562,
                "tempo": 120.0
            },
            {
                "start_time": 10.825,
                "end_time": 11.009090909090908,
                "pitch": 29,
                "velocity": 51,
                "duration": 0.18409090909090864,
                "tempo": 120.0
            },
            {
                "start_time": 11.027272727272727,
                "end_time": 11.211363636363636,
                "pitch": 44,
                "velocity": 51,
                "duration": 0.18409090909090864,
                "tempo": 120.0
            },
            {
                "start_time": 11.227272727272727,
                "end_time": 11.406818181818181,
                "pitch": 27,
                "velocity": 51,
                "duration": 0.17954545454545467,
                "tempo": 120.0
            },
            {
                "start_time": 11.422727272727272,
                "end_time": 11.602272727272727,
                "pitch": 39,
                "velocity": 51,
                "duration": 0.17954545454545467,
                "tempo": 120.0
            },
            {
                "start_time": 11.620454545454544,
                "end_time": 11.806818181818182,
                "pitch": 27,
                "velocity": 51,
                "duration": 0.1863636363636374,
                "tempo": 120.0
            },
            {
                "start_time": 11.825,
                "end_time": 12.013636363636364,
                "pitch": 38,
                "velocity": 51,
                "duration": 0.18863636363636438,
                "tempo": 120.0
            },
            {
                "start_time": 12.029545454545454,
                "end_time": 12.21590909090909,
                "pitch": 27,
                "velocity": 51,
                "duration": 0.18636363636363562,
                "tempo": 120.0
            },
            {
                "start_time": 12.23181818181818,
                "end_time": 12.415909090909091,
                "pitch": 39,
                "velocity": 51,
                "duration": 0.18409090909091042,
                "tempo": 120.0
            },
            {
                "start_time": 12.434090909090909,
                "end_time": 12.618181818181817,
                "pitch": 27,
                "velocity": 51,
                "duration": 0.18409090909090864,
                "tempo": 120.0
            },
            {
                "start_time": 12.634090909090908,
                "end_time": 12.818181818181818,
                "pitch": 42,
                "velocity": 51,
                "duration": 0.18409090909091042,
                "tempo": 120.0
            },
            {
                "start_time": 12.836363636363636,
                "end_time": 13.809090909090909,
                "pitch": 43,
                "velocity": 51,
                "duration": 0.9727272727272727,
                "tempo": 120.0
            },
            {
                "start_time": 13.827272727272726,
                "end_time": 14.006818181818181,
                "pitch": 43,
                "velocity": 51,
                "duration": 0.17954545454545467,
                "tempo": 120.0
            },
            {
                "start_time": 14.022727272727272,
                "end_time": 14.211363636363636,
                "pitch": 43,
                "velocity": 51,
                "duration": 0.18863636363636438,
                "tempo": 120.0
            },
            {
                "start_time": 14.227272727272727,
                "end_time": 14.415909090909091,
                "pitch": 43,
                "velocity": 51,
                "duration": 0.18863636363636438,
                "tempo": 120.0
            },
            {
                "start_time": 14.434090909090909,
                "end_time": 15.420454545454545,
                "pitch": 41,
                "velocity": 51,
                "duration": 0.9863636363636363,
                "tempo": 120.0
            },
            {
                "start_time": 15.438636363636363,
                "end_time": 15.622727272727271,
                "pitch": 41,
                "velocity": 51,
                "duration": 0.18409090909090864,
                "tempo": 120.0
            },
            {
                "start_time": 15.638636363636364,
                "end_time": 15.822727272727272,
                "pitch": 41,
                "velocity": 51,
                "duration": 0.18409090909090864,
                "tempo": 120.0
            },
            {
                "start_time": 15.84090909090909,
                "end_time": 16.025,
                "pitch": 41,
                "velocity": 51,
                "duration": 0.18409090909090864,
                "tempo": 120.0
            },
            {
                "start_time": 16.04090909090909,
                "end_time": 16.427272727272726,
                "pitch": 39,
                "velocity": 51,
                "duration": 0.3863636363636367,
                "tempo": 120.0
            },
            {
                "start_time": 16.847727272727273,
                "end_time": 17.229545454545455,
                "pitch": 37,
                "velocity": 51,
                "duration": 0.3818181818181827,
                "tempo": 120.0
            },
            {
                "start_time": 17.845454545454544,
                "end_time": 18.025,
                "pitch": 36,
                "velocity": 51,
                "duration": 0.17954545454545467,
                "tempo": 120.0
            },
            {
                "start_time": 18.04090909090909,
                "end_time": 18.229545454545455,
                "pitch": 36,
                "velocity": 51,
                "duration": 0.18863636363636616,
                "tempo": 120.0
            },
            {
                "start_time": 18.24772727272727,
                "end_time": 18.436363636363634,
                "pitch": 36,
                "velocity": 51,
                "duration": 0.1886363636363626,
                "tempo": 120.0
            },
            {
                "start_time": 18.452272727272728,
                "end_time": 18.636363636363637,
                "pitch": 34,
                "velocity": 51,
                "duration": 0.18409090909090864,
                "tempo": 120.0
            },
            {
                "start_time": 18.654545454545453,
                "end_time": 19.238636363636363,
                "pitch": 34,
                "velocity": 51,
                "duration": 0.5840909090909108,
                "tempo": 120.0
            },
            {
                "start_time": 19.254545454545454,
                "end_time": 19.443181818181817,
                "pitch": 32,
                "velocity": 51,
                "duration": 0.1886363636363626,
                "tempo": 120.0
            },
            {
                "start_time": 19.461363636363636,
                "end_time": 19.65,
                "pitch": 44,
                "velocity": 51,
                "duration": 0.1886363636363626,
                "tempo": 120.0
            },
            {
                "start_time": 19.66590909090909,
                "end_time": 19.845454545454544,
                "pitch": 32,
                "velocity": 51,
                "duration": 0.17954545454545467,
                "tempo": 120.0
            },
            {
                "start_time": 19.861363636363635,
                "end_time": 20.04090909090909,
                "pitch": 41,
                "velocity": 51,
                "duration": 0.17954545454545467,
                "tempo": 120.0
            },
            {
                "start_time": 20.05909090909091,
                "end_time": 20.24090909090909,
                "pitch": 32,
                "velocity": 51,
                "duration": 0.18181818181817988,
                "tempo": 120.0
            },
            {
                "start_time": 20.259090909090908,
                "end_time": 20.44090909090909,
                "pitch": 44,
                "velocity": 51,
                "duration": 0.18181818181818343,
                "tempo": 120.0
            },
            {
                "start_time": 20.459090909090907,
                "end_time": 20.645454545454545,
                "pitch": 32,
                "velocity": 51,
                "duration": 0.1863636363636374,
                "tempo": 120.0
            },
            {
                "start_time": 20.663636363636364,
                "end_time": 20.852272727272727,
                "pitch": 48,
                "velocity": 51,
                "duration": 0.1886363636363626,
                "tempo": 120.0
            },
            {
                "start_time": 20.868181818181817,
                "end_time": 21.054545454545455,
                "pitch": 32,
                "velocity": 51,
                "duration": 0.1863636363636374,
                "tempo": 120.0
            },
            {
                "start_time": 21.070454545454545,
                "end_time": 21.254545454545454,
                "pitch": 44,
                "velocity": 51,
                "duration": 0.18409090909090864,
                "tempo": 120.0
            },
            {
                "start_time": 21.272727272727273,
                "end_time": 21.454545454545453,
                "pitch": 32,
                "velocity": 51,
                "duration": 0.18181818181817988,
                "tempo": 120.0
            },
            {
                "start_time": 21.472727272727273,
                "end_time": 21.654545454545453,
                "pitch": 41,
                "velocity": 51,
                "duration": 0.18181818181817988,
                "tempo": 120.0
            },
            {
                "start_time": 21.672727272727272,
                "end_time": 21.85681818181818,
                "pitch": 32,
                "velocity": 51,
                "duration": 0.18409090909090864,
                "tempo": 120.0
            },
            {
                "start_time": 21.87272727272727,
                "end_time": 22.05681818181818,
                "pitch": 44,
                "velocity": 51,
                "duration": 0.18409090909090864,
                "tempo": 120.0
            },
            {
                "start_time": 22.075,
                "end_time": 22.25681818181818,
                "pitch": 32,
                "velocity": 51,
                "duration": 0.18181818181817988,
                "tempo": 120.0
            },
            {
                "start_time": 22.275,
                "end_time": 22.456818181818182,
                "pitch": 48,
                "velocity": 51,
                "duration": 0.18181818181818343,
                "tempo": 120.0
            },
            {
                "start_time": 22.474999999999998,
                "end_time": 22.654545454545453,
                "pitch": 29,
                "velocity": 51,
                "duration": 0.17954545454545467,
                "tempo": 120.0
            },
            {
                "start_time": 22.670454545454543,
                "end_time": 22.849999999999998,
                "pitch": 41,
                "velocity": 51,
                "duration": 0.17954545454545467,
                "tempo": 120.0
            },
            {
                "start_time": 22.86590909090909,
                "end_time": 23.054545454545455,
                "pitch": 29,
                "velocity": 51,
                "duration": 0.18863636363636616,
                "tempo": 120.0
            },
            {
                "start_time": 23.07272727272727,
                "end_time": 23.259090909090908,
                "pitch": 37,
                "velocity": 51,
                "duration": 0.1863636363636374,
                "tempo": 120.0
            },
            {
                "start_time": 23.277272727272727,
                "end_time": 23.461363636363636,
                "pitch": 29,
                "velocity": 51,
                "duration": 0.18409090909090864,
                "tempo": 120.0
            },
            {
                "start_time": 23.477272727272727,
                "end_time": 23.661363636363635,
                "pitch": 41,
                "velocity": 51,
                "duration": 0.18409090909090864,
                "tempo": 120.0
            },
            {
                "start_time": 23.677272727272726,
                "end_time": 23.861363636363635,
                "pitch": 29,
                "velocity": 51,
                "duration": 0.18409090909090864,
                "tempo": 120.0
            },
            {
                "start_time": 23.879545454545454,
                "end_time": 24.063636363636363,
                "pitch": 44,
                "velocity": 51,
                "duration": 0.18409090909090864,
                "tempo": 120.0
            },
            {
                "start_time": 24.079545454545453,
                "end_time": 24.263636363636362,
                "pitch": 27,
                "velocity": 51,
                "duration": 0.18409090909090864,
                "tempo": 120.0
            },
            {
                "start_time": 24.279545454545453,
                "end_time": 24.46363636363636,
                "pitch": 39,
                "velocity": 51,
                "duration": 0.18409090909090864,
                "tempo": 120.0
            },
            {
                "start_time": 24.479545454545452,
                "end_time": 24.663636363636364,
                "pitch": 27,
                "velocity": 51,
                "duration": 0.1840909090909122,
                "tempo": 120.0
            },
            {
                "start_time": 24.679545454545455,
                "end_time": 24.863636363636363,
                "pitch": 38,
                "velocity": 51,
                "duration": 0.18409090909090864,
                "tempo": 120.0
            },
            {
                "start_time": 24.879545454545454,
                "end_time": 25.068181818181817,
                "pitch": 27,
                "velocity": 51,
                "duration": 0.1886363636363626,
                "tempo": 120.0
            },
            {
                "start_time": 25.084090909090907,
                "end_time": 25.27272727272727,
                "pitch": 39,
                "velocity": 51,
                "duration": 0.1886363636363626,
                "tempo": 120.0
            },
            {
                "start_time": 25.29090909090909,
                "end_time": 25.470454545454544,
                "pitch": 27,
                "velocity": 51,
                "duration": 0.17954545454545467,
                "tempo": 120.0
            },
            {
                "start_time": 25.486363636363635,
                "end_time": 25.66590909090909,
                "pitch": 42,
                "velocity": 51,
                "duration": 0.17954545454545467,
                "tempo": 120.0
            },
            {
                "start_time": 25.68181818181818,
                "end_time": 25.868181818181817,
                "pitch": 32,
                "velocity": 51,
                "duration": 0.1863636363636374,
                "tempo": 120.0
            },
            {
                "start_time": 25.884090909090908,
                "end_time": 26.068181818181817,
                "pitch": 44,
                "velocity": 51,
                "duration": 0.18409090909090864,
                "tempo": 120.0
            },
            {
                "start_time": 26.086363636363636,
                "end_time": 26.268181818181816,
                "pitch": 32,
                "velocity": 51,
                "duration": 0.18181818181817988,
                "tempo": 120.0
            },
            {
                "start_time": 26.286363636363635,
                "end_time": 26.468181818181815,
                "pitch": 41,
                "velocity": 51,
                "duration": 0.18181818181817988,
                "tempo": 120.0
            },
            {
                "start_time": 26.486363636363635,
                "end_time": 26.66590909090909,
                "pitch": 32,
                "velocity": 51,
                "duration": 0.17954545454545467,
                "tempo": 120.0
            },
            {
                "start_time": 26.68181818181818,
                "end_time": 26.861363636363635,
                "pitch": 44,
                "velocity": 51,
                "duration": 0.17954545454545467,
                "tempo": 120.0
            },
            {
                "start_time": 26.877272727272725,
                "end_time": 27.06590909090909,
                "pitch": 32,
                "velocity": 51,
                "duration": 0.18863636363636616,
                "tempo": 120.0
            },
            {
                "start_time": 27.081818181818182,
                "end_time": 27.270454545454545,
                "pitch": 48,
                "velocity": 51,
                "duration": 0.1886363636363626,
                "tempo": 120.0
            },
            {
                "start_time": 27.288636363636364,
                "end_time": 27.468181818181815,
                "pitch": 37,
                "velocity": 51,
                "duration": 0.17954545454545112,
                "tempo": 120.0
            },
            {
                "start_time": 27.48409090909091,
                "end_time": 27.663636363636364,
                "pitch": 49,
                "velocity": 51,
                "duration": 0.17954545454545467,
                "tempo": 120.0
            },
            {
                "start_time": 27.679545454545455,
                "end_time": 27.863636363636363,
                "pitch": 37,
                "velocity": 51,
                "duration": 0.18409090909090864,
                "tempo": 120.0
            },
            {
                "start_time": 27.879545454545454,
                "end_time": 28.063636363636363,
                "pitch": 46,
                "velocity": 51,
                "duration": 0.18409090909090864,
                "tempo": 120.0
            },
            {
                "start_time": 28.079545454545453,
                "end_time": 28.27272727272727,
                "pitch": 37,
                "velocity": 51,
                "duration": 0.19318181818181657,
                "tempo": 120.0
            },
            {
                "start_time": 28.29090909090909,
                "end_time": 28.48409090909091,
                "pitch": 49,
                "velocity": 51,
                "duration": 0.19318181818182012,
                "tempo": 120.0
            },
            {
                "start_time": 28.502272727272725,
                "end_time": 28.68181818181818,
                "pitch": 37,
                "velocity": 51,
                "duration": 0.17954545454545467,
                "tempo": 120.0
            },
            {
                "start_time": 28.69772727272727,
                "end_time": 28.877272727272725,
                "pitch": 53,
                "velocity": 51,
                "duration": 0.17954545454545467,
                "tempo": 120.0
            },
            {
                "start_time": 28.895454545454545,
                "end_time": 29.075,
                "pitch": 32,
                "velocity": 51,
                "duration": 0.17954545454545467,
                "tempo": 120.0
            },
            {
                "start_time": 29.09090909090909,
                "end_time": 29.270454545454545,
                "pitch": 44,
                "velocity": 51,
                "duration": 0.17954545454545467,
                "tempo": 120.0
            },
            {
                "start_time": 29.286363636363635,
                "end_time": 29.474999999999998,
                "pitch": 32,
                "velocity": 51,
                "duration": 0.1886363636363626,
                "tempo": 120.0
            },
            {
                "start_time": 29.493181818181817,
                "end_time": 29.679545454545455,
                "pitch": 41,
                "velocity": 51,
                "duration": 0.1863636363636374,
                "tempo": 120.0
            },
            {
                "start_time": 29.69772727272727,
                "end_time": 29.877272727272725,
                "pitch": 32,
                "velocity": 51,
                "duration": 0.17954545454545467,
                "tempo": 120.0
            },
            {
                "start_time": 29.893181818181816,
                "end_time": 30.07272727272727,
                "pitch": 44,
                "velocity": 51,
                "duration": 0.17954545454545467,
                "tempo": 120.0
            },
            {
                "start_time": 30.08863636363636,
                "end_time": 30.27272727272727,
                "pitch": 32,
                "velocity": 51,
                "duration": 0.18409090909090864,
                "tempo": 120.0
            },
            {
                "start_time": 30.28863636363636,
                "end_time": 30.472727272727273,
                "pitch": 48,
                "velocity": 51,
                "duration": 0.1840909090909122,
                "tempo": 120.0
            },
            {
                "start_time": 30.488636363636363,
                "end_time": 30.875,
                "pitch": 44,
                "velocity": 51,
                "duration": 0.3863636363636367,
                "tempo": 120.0
            },
            {
                "start_time": 31.293181818181818,
                "end_time": 31.686363636363634,
                "pitch": 32,
                "velocity": 51,
                "duration": 0.39318181818181586,
                "tempo": 120.0
            },
            {
                "start_time": 32.095454545454544,
                "end_time": 32.16136363636363,
                "pitch": 32,
                "velocity": 51,
                "duration": 0.06590909090908781,
                "tempo": 120.0
            }
        ]
    }
}