{
    "track_id": "Captain Silver (FM) - 06 - Scene Complete",
    "mood": "happy",
    "instruments": {
        "Clarinet": [
            {
                "start_time": 0.0,
                "end_time": 0.09999999999999999,
                "pitch": 70,
                "velocity": 80,
                "duration": 0.09999999999999999,
                "tempo": 120.0
            },
            {
                "start_time": 0.25,
                "end_time": 0.3659090909090909,
                "pitch": 67,
                "velocity": 80,
                "duration": 0.1159090909090909,
                "tempo": 120.0
            },
            {
                "start_time": 0.3840909090909091,
                "end_time": 0.5,
                "pitch": 70,
                "velocity": 80,
                "duration": 0.1159090909090909,
                "tempo": 120.0
            },
            {
                "start_time": 0.65,
                "end_time": 1.1659090909090908,
                "pitch": 72,
                "velocity": 80,
                "duration": 0.5159090909090908,
                "tempo": 120.0
            },
            {
                "start_time": 1.184090909090909,
                "end_time": 1.315909090909091,
                "pitch": 74,
                "velocity": 80,
                "duration": 0.13181818181818183,
                "tempo": 120.0
            },
            {
                "start_time": 1.584090909090909,
                "end_time": 1.7,
                "pitch": 70,
                "velocity": 80,
                "duration": 0.11590909090909096,
                "tempo": 120.0
            },
            {
                "start_time": 1.8522727272727273,
                "end_time": 1.968181818181818,
                "pitch": 67,
                "velocity": 80,
                "duration": 0.11590909090909074,
                "tempo": 120.0
            },
            {
                "start_time": 1.9863636363636363,
                "end_time": 2.102272727272727,
                "pitch": 70,
                "velocity": 80,
                "duration": 0.11590909090909074,
                "tempo": 120.0
            },
            {
                "start_time": 2.252272727272727,
                "end_time": 2.7704545454545455,
                "pitch": 72,
                "velocity": 80,
                "duration": 0.5181818181818185,
                "tempo": 120.0
            },
            {
                "start_time": 2.786363636363636,
                "end_time": 3.043181818181818,
                "pitch": 75,
                "velocity": 80,
                "duration": 0.25681818181818183,
                "tempo": 120.0
            },
            {
                "start_time": 3.059090909090909,
                "end_time": 3.1795454545454542,
                "pitch": 77,
                "velocity": 80,
                "duration": 0.12045454545454515,
                "tempo": 120.0
            },
            {
                "start_time": 3.1977272727272728,
                "end_time": 3.440909090909091,
                "pitch": 78,
                "velocity": 80,
                "duration": 0.24318181818181817,
                "tempo": 120.0
            },
            {
                "start_time": 3.459090909090909,
                "end_time": 3.5727272727272728,
                "pitch": 77,
                "velocity": 80,
                "duration": 0.11363636363636376,
                "tempo": 120.0
            },
            {
                "start_time": 3.5886363636363634,
                "end_time": 3.834090909090909,
                "pitch": 75,
                "velocity": 80,
                "duration": 0.2454545454545456,
                "tempo": 120.0
            },
            {
                "start_time": 3.8499999999999996,
                "end_time": 4.2340909090909085,
                "pitch": 77,
                "velocity": 80,
                "duration": 0.3840909090909088,
                "tempo": 120.0
            },
            {
                "start_time": 4.25,
                "end_time": 4.368181818181818,
                "pitch": 75,
                "velocity": 80,
                "duration": 0.11818181818181817,
                "tempo": 120.0
            },
            {
                "start_time": 4.384090909090909,
                "end_time": 4.6477272727272725,
                "pitch": 73,
                "velocity": 80,
                "duration": 0.26363636363636367,
                "tempo": 120.0
            },
            {
                "start_time": 4.665909090909091,
                "end_time": 4.788636363636363,
                "pitch": 77,
                "velocity": 80,
                "duration": 0.12272727272727213,
                "tempo": 120.0
            },
            {
                "start_time": 4.806818181818182,
                "end_time": 4.99090909090909,
                "pitch": 75,
                "velocity": 80,
                "duration": 0.18409090909090864,
                "tempo": 120.0
            },
            {
                "start_time": 5.209090909090909,
                "end_time": 5.388636363636364,
                "pitch": 70,
                "velocity": 80,
                "duration": 0.17954545454545467,
                "tempo": 120.0
            },
            {
                "start_time": 5.602272727272727,
                "end_time": 5.788636363636363,
                "pitch": 63,
                "velocity": 80,
                "duration": 0.1863636363636365,
                "tempo": 120.0
            }
        ],
        "Electric Guitar (clean)": [
            {
                "start_time": 0.0,
                "end_time": 0.3659090909090909,
                "pitch": 51,
                "velocity": 51,
                "duration": 0.3659090909090909,
                "tempo": 120.0
            },
            {
                "start_time": 0.3840909090909091,
                "end_time": 0.7659090909090909,
                "pitch": 46,
                "velocity": 51,
                "duration": 0.3818181818181818,
                "tempo": 120.0
            },
            {
                "start_time": 0.7840909090909091,
                "end_time": 1.1659090909090908,
                "pitch": 44,
                "velocity": 51,
                "duration": 0.3818181818181817,
                "tempo": 120.0
            },
            {
                "start_time": 1.184090909090909,
                "end_time": 1.565909090909091,
                "pitch": 46,
                "velocity": 51,
                "duration": 0.38181818181818183,
                "tempo": 120.0
            },
            {
                "start_time": 1.584090909090909,
                "end_time": 1.968181818181818,
                "pitch": 51,
                "velocity": 51,
                "duration": 0.38409090909090904,
                "tempo": 120.0
            },
            {
                "start_time": 1.9863636363636363,
                "end_time": 2.370454545454545,
                "pitch": 46,
                "velocity": 51,
                "duration": 0.3840909090909088,
                "tempo": 120.0
            },
            {
                "start_time": 2.3863636363636362,
                "end_time": 2.7704545454545455,
                "pitch": 44,
                "velocity": 51,
                "duration": 0.38409090909090926,
                "tempo": 120.0
            },
            {
                "start_time": 2.786363636363636,
                "end_time": 3.1795454545454542,
                "pitch": 46,
                "velocity": 51,
                "duration": 0.3931818181818181,
                "tempo": 120.0
            },
            {
                "start_time": 3.1977272727272728,
                "end_time": 3.5727272727272728,
                "pitch": 54,
                "velocity": 51,
                "duration": 0.375,
                "tempo": 120.0
            },
            {
                "start_time": 3.5886363636363634,
                "end_time": 3.9636363636363634,
                "pitch": 49,
                "velocity": 51,
                "duration": 0.375,
                "tempo": 120.0
            },
            {
                "start_time": 3.9818181818181815,
                "end_time": 4.368181818181818,
                "pitch": 46,
                "velocity": 51,
                "duration": 0.3863636363636367,
                "tempo": 120.0
            },
            {
                "start_time": 4.384090909090909,
                "end_time": 4.788636363636363,
                "pitch": 46,
                "velocity": 51,
                "duration": 0.4045454545454543,
                "tempo": 120.0
            },
            {
                "start_time": 4.806818181818182,
                "end_time": 5.193181818181818,
                "pitch": 51,
                "velocity": 51,
                "duration": 0.3863636363636367,
                "tempo": 120.0
            },
            {
                "start_time": 5.209090909090909,
                "end_time": 5.584090909090909,
                "pitch": 46,
                "velocity": 51,
                "duration": 0.375,
                "tempo": 120.0
            },
            {
                "start_time": 5.602272727272727,
                "end_time": 5.995454545454545,
                "pitch": 51,
                "velocity": 51,
                "duration": 0.3931818181818185,
                "tempo": 120.0
            }
        ],
        "Flute": [
            {
                "start_time": 0.0,
                "end_time": 0.3840909090909091,
                "pitch": 63,
                "velocity": 25,
                "duration": 0.3840909090909091,
                "tempo": 120.0
            },
            {
                "start_time": 0.39999999999999997,
                "end_time": 0.7840909090909091,
                "pitch": 58,
                "velocity": 25,
                "duration": 0.3840909090909091,
                "tempo": 120.0
            },
            {
                "start_time": 0.7999999999999999,
                "end_time": 1.184090909090909,
                "pitch": 56,
                "velocity": 25,
                "duration": 0.38409090909090915,
                "tempo": 120.0
            },
            {
                "start_time": 1.2,
                "end_time": 1.584090909090909,
                "pitch": 58,
                "velocity": 25,
                "duration": 0.38409090909090904,
                "tempo": 120.0
            },
            {
                "start_time": 1.5999999999999999,
                "end_time": 1.9863636363636363,
                "pitch": 63,
                "velocity": 25,
                "duration": 0.38636363636363646,
                "tempo": 120.0
            },
            {
                "start_time": 2.002272727272727,
                "end_time": 2.3863636363636362,
                "pitch": 58,
                "velocity": 25,
                "duration": 0.38409090909090926,
                "tempo": 120.0
            },
            {
                "start_time": 2.4022727272727273,
                "end_time": 2.786363636363636,
                "pitch": 56,
                "velocity": 25,
                "duration": 0.3840909090909088,
                "tempo": 120.0
            },
            {
                "start_time": 2.8022727272727272,
                "end_time": 3.1977272727272728,
                "pitch": 58,
                "velocity": 25,
                "duration": 0.3954545454545455,
                "tempo": 120.0
            },
            {
                "start_time": 3.2136363636363634,
                "end_time": 3.5886363636363634,
                "pitch": 66,
                "velocity": 25,
                "duration": 0.375,
                "tempo": 120.0
            },
            {
                "start_time": 3.6045454545454545,
                "end_time": 3.9818181818181815,
                "pitch": 61,
                "velocity": 25,
                "duration": 0.377272727272727,
                "tempo": 120.0
            },
            {
                "start_time": 3.9977272727272726,
                "end_time": 4.384090909090909,
                "pitch": 58,
                "velocity": 25,
                "duration": 0.38636363636363624,
                "tempo": 120.0
            },
            {
                "start_time": 4.402272727272727,
                "end_time": 4.806818181818182,
                "pitch": 58,
                "velocity": 25,
                "duration": 0.4045454545454543,
                "tempo": 120.0
            },
            {
                "start_time": 4.822727272727272,
                "end_time": 5.209090909090909,
                "pitch": 63,
                "velocity": 25,
                "duration": 0.3863636363636367,
                "tempo": 120.0
            },
            {
                "start_time": 5.225,
                "end_time": 5.602272727272727,
                "pitch": 58,
                "velocity": 25,
                "duration": 0.377272727272727,
                "tempo": 120.0
            },
            {
                "start_time": 5.618181818181818,
                "end_time": 6.011363636363636,
                "pitch": 63,
                "velocity": 25,
                "duration": 0.39318181818181763,
                "tempo": 120.0
            }
        ]
    }
}