{
    "track_id": "Columns (FM) - 01 - Filthy",
    "mood": "happy",
    "instruments": {
        "Violin": [
            {
                "start_time": 0.0,
                "end_time": 0.1590909090909091,
                "pitch": 52,
                "velocity": 80,
                "duration": 0.1590909090909091,
                "tempo": 120.0
            },
            {
                "start_time": 0.1590909090909091,
                "end_time": 0.6113636363636363,
                "pitch": 52,
                "velocity": 80,
                "duration": 0.45227272727272727,
                "tempo": 120.0
            },
            {
                "start_time": 0.6113636363636363,
                "end_time": 0.9113636363636363,
                "pitch": 49,
                "velocity": 80,
                "duration": 0.29999999999999993,
                "tempo": 120.0
            },
            {
                "start_time": 0.6113636363636363,
                "end_time": 1.2113636363636362,
                "pitch": 52,
                "velocity": 80,
                "duration": 0.5999999999999999,
                "tempo": 120.0
            },
            {
                "start_time": 0.9113636363636363,
                "end_time": 1.2113636363636362,
                "pitch": 52,
                "velocity": 80,
                "duration": 0.29999999999999993,
                "tempo": 120.0
            },
            {
                "start_time": 1.2113636363636362,
                "end_time": 1.2249999999999999,
                "pitch": 52,
                "velocity": 80,
                "duration": 0.013636363636363669,
                "tempo": 120.0
            },
            {
                "start_time": 1.2249999999999999,
                "end_time": 1.3636363636363635,
                "pitch": 50,
                "velocity": 80,
                "duration": 0.13863636363636367,
                "tempo": 120.0
            },
            {
                "start_time": 1.3636363636363635,
                "end_time": 1.8227272727272725,
                "pitch": 50,
                "velocity": 80,
                "duration": 0.459090909090909,
                "tempo": 120.0
            },
            {
                "start_time": 1.8227272727272725,
                "end_time": 2.120454545454545,
                "pitch": 47,
                "velocity": 80,
                "duration": 0.2977272727272726,
                "tempo": 120.0
            },
            {
                "start_time": 1.8227272727272725,
                "end_time": 2.7136363636363634,
                "pitch": 50,
                "velocity": 80,
                "duration": 0.8909090909090909,
                "tempo": 120.0
            },
            {
                "start_time": 2.120454545454545,
                "end_time": 2.7136363636363634,
                "pitch": 50,
                "velocity": 80,
                "duration": 0.5931818181818183,
                "tempo": 120.0
            },
            {
                "start_time": 2.7136363636363634,
                "end_time": 2.8613636363636363,
                "pitch": 52,
                "velocity": 80,
                "duration": 0.14772727272727293,
                "tempo": 120.0
            },
            {
                "start_time": 2.8613636363636363,
                "end_time": 3.1636363636363636,
                "pitch": 52,
                "velocity": 80,
                "duration": 0.30227272727272725,
                "tempo": 120.0
            },
            {
                "start_time": 3.1636363636363636,
                "end_time": 3.318181818181818,
                "pitch": 54,
                "velocity": 80,
                "duration": 0.15454545454545432,
                "tempo": 120.0
            },
            {
                "start_time": 3.318181818181818,
                "end_time": 3.3318181818181816,
                "pitch": 54,
                "velocity": 80,
                "duration": 0.013636363636363669,
                "tempo": 120.0
            },
            {
                "start_time": 3.1636363636363636,
                "end_time": 4.2295454545454545,
                "pitch": 52,
                "velocity": 80,
                "duration": 1.065909090909091,
                "tempo": 120.0
            },
            {
                "start_time": 3.3318181818181816,
                "end_time": 4.2295454545454545,
                "pitch": 52,
                "velocity": 80,
                "duration": 0.8977272727272729,
                "tempo": 120.0
            },
            {
                "start_time": 4.2295454545454545,
                "end_time": 4.845454545454545,
                "pitch": 45,
                "velocity": 80,
                "duration": 0.6159090909090903,
                "tempo": 120.0
            },
            {
                "start_time": 2.7136363636363634,
                "end_time": 5.159090909090909,
                "pitch": 50,
                "velocity": 80,
                "duration": 2.4454545454545458,
                "tempo": 120.0
            },
            {
                "start_time": 4.845454545454545,
                "end_time": 5.159090909090909,
                "pitch": 50,
                "velocity": 80,
                "duration": 0.3136363636363644,
                "tempo": 120.0
            },
            {
                "start_time": 5.159090909090909,
                "end_time": 5.470454545454545,
                "pitch": 50,
                "velocity": 80,
                "duration": 0.3113636363636356,
                "tempo": 120.0
            },
            {
                "start_time": 5.470454545454545,
                "end_time": 5.768181818181818,
                "pitch": 50,
                "velocity": 80,
                "duration": 0.29772727272727284,
                "tempo": 120.0
            },
            {
                "start_time": 5.768181818181818,
                "end_time": 5.915909090909091,
                "pitch": 50,
                "velocity": 80,
                "duration": 0.14772727272727337,
                "tempo": 120.0
            },
            {
                "start_time": 4.2295454545454545,
                "end_time": 6.0659090909090905,
                "pitch": 52,
                "velocity": 80,
                "duration": 1.836363636363636,
                "tempo": 120.0
            },
            {
                "start_time": 5.915909090909091,
                "end_time": 6.0659090909090905,
                "pitch": 52,
                "velocity": 80,
                "duration": 0.14999999999999947,
                "tempo": 120.0
            },
            {
                "start_time": 6.0659090909090905,
                "end_time": 6.129545454545454,
                "pitch": 52,
                "velocity": 80,
                "duration": 0.06363636363636349,
                "tempo": 120.0
            },
            {
                "start_time": 6.129545454545454,
                "end_time": 6.670454545454545,
                "pitch": 54,
                "velocity": 80,
                "duration": 0.540909090909091,
                "tempo": 120.0
            },
            {
                "start_time": 6.670454545454545,
                "end_time": 6.7340909090909085,
                "pitch": 53,
                "velocity": 80,
                "duration": 0.06363636363636349,
                "tempo": 120.0
            },
            {
                "start_time": 6.7340909090909085,
                "end_time": 6.8,
                "pitch": 55,
                "velocity": 80,
                "duration": 0.06590909090909136,
                "tempo": 120.0
            },
            {
                "start_time": 6.8,
                "end_time": 6.820454545454545,
                "pitch": 55,
                "velocity": 80,
                "duration": 0.020454545454545503,
                "tempo": 120.0
            },
            {
                "start_time": 6.820454545454545,
                "end_time": 6.970454545454545,
                "pitch": 55,
                "velocity": 80,
                "duration": 0.14999999999999947,
                "tempo": 120.0
            },
            {
                "start_time": 6.970454545454545,
                "end_time": 6.9840909090909085,
                "pitch": 54,
                "velocity": 80,
                "duration": 0.013636363636363669,
                "tempo": 120.0
            },
            {
                "start_time": 6.9840909090909085,
                "end_time": 7.120454545454545,
                "pitch": 52,
                "velocity": 80,
                "duration": 0.1363636363636367,
                "tempo": 120.0
            },
            {
                "start_time": 5.915909090909091,
                "end_time": 7.2704545454545455,
                "pitch": 50,
                "velocity": 80,
                "duration": 1.3545454545454545,
                "tempo": 120.0
            },
            {
                "start_time": 7.120454545454545,
                "end_time": 7.2704545454545455,
                "pitch": 50,
                "velocity": 80,
                "duration": 0.15000000000000036,
                "tempo": 120.0
            },
            {
                "start_time": 7.2704545454545455,
                "end_time": 7.8954545454545455,
                "pitch": 50,
                "velocity": 80,
                "duration": 0.625,
                "tempo": 120.0
            },
            {
                "start_time": 0.9113636363636363,
                "end_time": 8.488636363636363,
                "pitch": 49,
                "velocity": 80,
                "duration": 7.577272727272727,
                "tempo": 120.0
            },
            {
                "start_time": 7.8954545454545455,
                "end_time": 8.488636363636363,
                "pitch": 49,
                "velocity": 80,
                "duration": 0.5931818181818178,
                "tempo": 120.0
            },
            {
                "start_time": 4.845454545454545,
                "end_time": 9.706818181818182,
                "pitch": 45,
                "velocity": 80,
                "duration": 4.861363636363637,
                "tempo": 120.0
            },
            {
                "start_time": 8.488636363636363,
                "end_time": 9.706818181818182,
                "pitch": 45,
                "velocity": 80,
                "duration": 1.2181818181818187,
                "tempo": 120.0
            },
            {
                "start_time": 9.706818181818182,
                "end_time": 9.770454545454545,
                "pitch": 57,
                "velocity": 80,
                "duration": 0.0636363636363626,
                "tempo": 120.0
            },
            {
                "start_time": 9.770454545454545,
                "end_time": 10.011363636363637,
                "pitch": 59,
                "velocity": 80,
                "duration": 0.24090909090909207,
                "tempo": 120.0
            },
            {
                "start_time": 10.011363636363637,
                "end_time": 10.318181818181818,
                "pitch": 59,
                "velocity": 80,
                "duration": 0.30681818181818166,
                "tempo": 120.0
            },
            {
                "start_time": 10.318181818181818,
                "end_time": 10.468181818181817,
                "pitch": 59,
                "velocity": 80,
                "duration": 0.14999999999999858,
                "tempo": 120.0
            },
            {
                "start_time": 10.468181818181817,
                "end_time": 10.48181818181818,
                "pitch": 59,
                "velocity": 80,
                "duration": 0.013636363636363669,
                "tempo": 120.0
            },
            {
                "start_time": 10.48181818181818,
                "end_time": 10.618181818181817,
                "pitch": 57,
                "velocity": 80,
                "duration": 0.1363636363636367,
                "tempo": 120.0
            },
            {
                "start_time": 10.618181818181817,
                "end_time": 10.681818181818182,
                "pitch": 57,
                "velocity": 80,
                "duration": 0.06363636363636438,
                "tempo": 120.0
            },
            {
                "start_time": 10.681818181818182,
                "end_time": 10.768181818181818,
                "pitch": 59,
                "velocity": 80,
                "duration": 0.08636363636363598,
                "tempo": 120.0
            },
            {
                "start_time": 10.768181818181818,
                "end_time": 10.918181818181818,
                "pitch": 61,
                "velocity": 80,
                "duration": 0.15000000000000036,
                "tempo": 120.0
            },
            {
                "start_time": 10.918181818181818,
                "end_time": 11.518181818181818,
                "pitch": 61,
                "velocity": 80,
                "duration": 0.5999999999999996,
                "tempo": 120.0
            },
            {
                "start_time": 11.518181818181818,
                "end_time": 12.118181818181817,
                "pitch": 57,
                "velocity": 80,
                "duration": 0.5999999999999996,
                "tempo": 120.0
            },
            {
                "start_time": 7.120454545454545,
                "end_time": 12.420454545454545,
                "pitch": 52,
                "velocity": 80,
                "duration": 5.3,
                "tempo": 120.0
            },
            {
                "start_time": 12.118181818181817,
                "end_time": 12.420454545454545,
                "pitch": 52,
                "velocity": 80,
                "duration": 0.3022727272727277,
                "tempo": 120.0
            },
            {
                "start_time": 12.420454545454545,
                "end_time": 12.725,
                "pitch": 57,
                "velocity": 80,
                "duration": 0.3045454545454547,
                "tempo": 120.0
            },
            {
                "start_time": 12.725,
                "end_time": 12.788636363636362,
                "pitch": 55,
                "velocity": 80,
                "duration": 0.0636363636363626,
                "tempo": 120.0
            },
            {
                "start_time": 6.7340909090909085,
                "end_time": 12.788636363636362,
                "pitch": 67,
                "velocity": 80,
                "duration": 6.054545454545454,
                "tempo": 120.0
            },
            {
                "start_time": 6.8,
                "end_time": 12.854545454545454,
                "pitch": 0,
                "velocity": 80,
                "duration": 6.054545454545454,
                "tempo": 120.0
            },
            {
                "start_time": 12.788636363636362,
                "end_time": 12.854545454545454,
                "pitch": 55,
                "velocity": 80,
                "duration": 0.06590909090909136,
                "tempo": 120.0
            },
            {
                "start_time": 12.854545454545454,
                "end_time": 12.920454545454545,
                "pitch": 55,
                "velocity": 80,
                "duration": 0.06590909090909136,
                "tempo": 120.0
            },
            {
                "start_time": 12.788636363636362,
                "end_time": 12.920454545454545,
                "pitch": 67,
                "velocity": 80,
                "duration": 0.13181818181818272,
                "tempo": 120.0
            },
            {
                "start_time": 12.854545454545454,
                "end_time": 12.988636363636363,
                "pitch": 0,
                "velocity": 80,
                "duration": 0.1340909090909097,
                "tempo": 120.0
            },
            {
                "start_time": 12.920454545454545,
                "end_time": 12.988636363636363,
                "pitch": 55,
                "velocity": 80,
                "duration": 0.06818181818181834,
                "tempo": 120.0
            },
            {
                "start_time": 12.988636363636363,
                "end_time": 13.040909090909091,
                "pitch": 55,
                "velocity": 80,
                "duration": 0.05227272727272769,
                "tempo": 120.0
            },
            {
                "start_time": 12.920454545454545,
                "end_time": 13.040909090909091,
                "pitch": 67,
                "velocity": 80,
                "duration": 0.12045454545454604,
                "tempo": 120.0
            },
            {
                "start_time": 10.768181818181818,
                "end_time": 13.34090909090909,
                "pitch": 59,
                "velocity": 80,
                "duration": 2.5727272727272723,
                "tempo": 120.0
            },
            {
                "start_time": 13.040909090909091,
                "end_time": 13.34090909090909,
                "pitch": 59,
                "velocity": 80,
                "duration": 0.29999999999999893,
                "tempo": 120.0
            },
            {
                "start_time": 13.34090909090909,
                "end_time": 13.354545454545454,
                "pitch": 59,
                "velocity": 80,
                "duration": 0.013636363636363669,
                "tempo": 120.0
            },
            {
                "start_time": 13.354545454545454,
                "end_time": 14.559090909090909,
                "pitch": 57,
                "velocity": 80,
                "duration": 1.204545454545455,
                "tempo": 120.0
            },
            {
                "start_time": 14.559090909090909,
                "end_time": 15.165909090909091,
                "pitch": 57,
                "velocity": 80,
                "duration": 0.6068181818181824,
                "tempo": 120.0
            },
            {
                "start_time": 15.165909090909091,
                "end_time": 15.229545454545454,
                "pitch": 57,
                "velocity": 80,
                "duration": 0.0636363636363626,
                "tempo": 120.0
            },
            {
                "start_time": 15.229545454545454,
                "end_time": 15.463636363636363,
                "pitch": 59,
                "velocity": 80,
                "duration": 0.23409090909090935,
                "tempo": 120.0
            },
            {
                "start_time": 15.463636363636363,
                "end_time": 15.76590909090909,
                "pitch": 61,
                "velocity": 80,
                "duration": 0.3022727272727277,
                "tempo": 120.0
            },
            {
                "start_time": 15.76590909090909,
                "end_time": 16.377272727272725,
                "pitch": 61,
                "velocity": 80,
                "duration": 0.6113636363636346,
                "tempo": 120.0
            },
            {
                "start_time": 11.518181818181818,
                "end_time": 16.677272727272726,
                "pitch": 62,
                "velocity": 80,
                "duration": 5.159090909090908,
                "tempo": 120.0
            },
            {
                "start_time": 16.377272727272725,
                "end_time": 16.677272727272726,
                "pitch": 62,
                "velocity": 80,
                "duration": 0.3000000000000007,
                "tempo": 120.0
            },
            {
                "start_time": 15.463636363636363,
                "end_time": 16.977272727272727,
                "pitch": 59,
                "velocity": 80,
                "duration": 1.5136363636363637,
                "tempo": 120.0
            },
            {
                "start_time": 16.677272727272726,
                "end_time": 16.977272727272727,
                "pitch": 59,
                "velocity": 80,
                "duration": 0.3000000000000007,
                "tempo": 120.0
            },
            {
                "start_time": 16.977272727272727,
                "end_time": 16.99090909090909,
                "pitch": 59,
                "velocity": 80,
                "duration": 0.013636363636361892,
                "tempo": 120.0
            },
            {
                "start_time": 12.118181818181817,
                "end_time": 17.90681818181818,
                "pitch": 45,
                "velocity": 80,
                "duration": 5.788636363636364,
                "tempo": 120.0
            },
            {
                "start_time": 16.99090909090909,
                "end_time": 17.90681818181818,
                "pitch": 57,
                "velocity": 80,
                "duration": 0.9159090909090928,
                "tempo": 120.0
            },
            {
                "start_time": 17.90681818181818,
                "end_time": 18.21363636363636,
                "pitch": 54,
                "velocity": 80,
                "duration": 0.3068181818181799,
                "tempo": 120.0
            },
            {
                "start_time": 18.21363636363636,
                "end_time": 19.402272727272727,
                "pitch": 54,
                "velocity": 80,
                "duration": 1.1886363636363662,
                "tempo": 120.0
            }
        ]
    }
}