{
    "track_id": "Cyborg Hunter (FM) - 08 - Game Over",
    "mood": "happy",
    "instruments": {
        "Lead 2 (sawtooth)": [
            {
                "start_time": 0.0,
                "end_time": 1.1681818181818182,
                "pitch": 70,
                "velocity": 101,
                "duration": 1.1681818181818182,
                "tempo": 120.0
            },
            {
                "start_time": 1.184090909090909,
                "end_time": 1.268181818181818,
                "pitch": 58,
                "velocity": 101,
                "duration": 0.084090909090909,
                "tempo": 120.0
            },
            {
                "start_time": 1.284090909090909,
                "end_time": 1.3659090909090907,
                "pitch": 63,
                "velocity": 101,
                "duration": 0.08181818181818179,
                "tempo": 120.0
            },
            {
                "start_time": 1.3818181818181818,
                "end_time": 1.4636363636363636,
                "pitch": 65,
                "velocity": 101,
                "duration": 0.08181818181818179,
                "tempo": 120.0
            },
            {
                "start_time": 1.4818181818181817,
                "end_time": 1.5636363636363635,
                "pitch": 60,
                "velocity": 101,
                "duration": 0.08181818181818179,
                "tempo": 120.0
            },
            {
                "start_time": 1.5795454545454544,
                "end_time": 1.6613636363636364,
                "pitch": 65,
                "velocity": 101,
                "duration": 0.08181818181818201,
                "tempo": 120.0
            },
            {
                "start_time": 1.6795454545454545,
                "end_time": 1.7613636363636362,
                "pitch": 67,
                "velocity": 101,
                "duration": 0.08181818181818179,
                "tempo": 120.0
            },
            {
                "start_time": 1.7772727272727271,
                "end_time": 1.8636363636363635,
                "pitch": 61,
                "velocity": 101,
                "duration": 0.08636363636363642,
                "tempo": 120.0
            },
            {
                "start_time": 1.8795454545454544,
                "end_time": 1.9659090909090908,
                "pitch": 67,
                "velocity": 101,
                "duration": 0.08636363636363642,
                "tempo": 120.0
            },
            {
                "start_time": 1.984090909090909,
                "end_time": 2.0704545454545453,
                "pitch": 68,
                "velocity": 101,
                "duration": 0.08636363636363642,
                "tempo": 120.0
            },
            {
                "start_time": 2.0886363636363634,
                "end_time": 2.175,
                "pitch": 63,
                "velocity": 101,
                "duration": 0.08636363636363642,
                "tempo": 120.0
            },
            {
                "start_time": 2.190909090909091,
                "end_time": 2.2772727272727273,
                "pitch": 68,
                "velocity": 101,
                "duration": 0.08636363636363642,
                "tempo": 120.0
            },
            {
                "start_time": 2.2954545454545454,
                "end_time": 2.381818181818182,
                "pitch": 70,
                "velocity": 101,
                "duration": 0.08636363636363642,
                "tempo": 120.0
            },
            {
                "start_time": 2.4,
                "end_time": 2.484090909090909,
                "pitch": 65,
                "velocity": 101,
                "duration": 0.084090909090909,
                "tempo": 120.0
            },
            {
                "start_time": 2.502272727272727,
                "end_time": 2.5863636363636364,
                "pitch": 70,
                "velocity": 101,
                "duration": 0.08409090909090944,
                "tempo": 120.0
            },
            {
                "start_time": 2.602272727272727,
                "end_time": 2.6886363636363635,
                "pitch": 72,
                "velocity": 101,
                "duration": 0.08636363636363642,
                "tempo": 120.0
            },
            {
                "start_time": 2.7045454545454546,
                "end_time": 2.7886363636363636,
                "pitch": 67,
                "velocity": 101,
                "duration": 0.084090909090909,
                "tempo": 120.0
            },
            {
                "start_time": 2.8068181818181817,
                "end_time": 2.8909090909090907,
                "pitch": 72,
                "velocity": 101,
                "duration": 0.084090909090909,
                "tempo": 120.0
            },
            {
                "start_time": 2.9068181818181817,
                "end_time": 2.993181818181818,
                "pitch": 73,
                "velocity": 101,
                "duration": 0.08636363636363642,
                "tempo": 120.0
            },
            {
                "start_time": 3.009090909090909,
                "end_time": 3.093181818181818,
                "pitch": 68,
                "velocity": 101,
                "duration": 0.084090909090909,
                "tempo": 120.0
            },
            {
                "start_time": 3.1113636363636363,
                "end_time": 3.193181818181818,
                "pitch": 73,
                "velocity": 101,
                "duration": 0.08181818181818157,
                "tempo": 120.0
            },
            {
                "start_time": 3.2113636363636364,
                "end_time": 3.2954545454545454,
                "pitch": 75,
                "velocity": 101,
                "duration": 0.084090909090909,
                "tempo": 120.0
            },
            {
                "start_time": 3.311363636363636,
                "end_time": 3.3954545454545455,
                "pitch": 70,
                "velocity": 101,
                "duration": 0.08409090909090944,
                "tempo": 120.0
            },
            {
                "start_time": 3.411363636363636,
                "end_time": 3.495454545454545,
                "pitch": 75,
                "velocity": 101,
                "duration": 0.084090909090909,
                "tempo": 120.0
            },
            {
                "start_time": 3.5136363636363637,
                "end_time": 3.5977272727272727,
                "pitch": 77,
                "velocity": 101,
                "duration": 0.084090909090909,
                "tempo": 120.0
            },
            {
                "start_time": 3.6136363636363633,
                "end_time": 4.8113636363636365,
                "pitch": 82,
                "velocity": 101,
                "duration": 1.1977272727272732,
                "tempo": 120.0
            },
            {
                "start_time": 4.827272727272727,
                "end_time": 6.031818181818181,
                "pitch": 81,
                "velocity": 101,
                "duration": 1.2045454545454541,
                "tempo": 120.0
            }
        ],
        "Acoustic Bass": [
            {
                "start_time": 0.0,
                "end_time": 1.1681818181818182,
                "pitch": 53,
                "velocity": 80,
                "duration": 1.1681818181818182,
                "tempo": 120.0
            },
            {
                "start_time": 1.184090909090909,
                "end_time": 1.268181818181818,
                "pitch": 43,
                "velocity": 80,
                "duration": 0.084090909090909,
                "tempo": 120.0
            },
            {
                "start_time": 1.284090909090909,
                "end_time": 1.3659090909090907,
                "pitch": 48,
                "velocity": 80,
                "duration": 0.08181818181818179,
                "tempo": 120.0
            },
            {
                "start_time": 1.3818181818181818,
                "end_time": 1.4636363636363636,
                "pitch": 49,
                "velocity": 80,
                "duration": 0.08181818181818179,
                "tempo": 120.0
            },
            {
                "start_time": 1.4818181818181817,
                "end_time": 1.5636363636363635,
                "pitch": 44,
                "velocity": 80,
                "duration": 0.08181818181818179,
                "tempo": 120.0
            },
            {
                "start_time": 1.5795454545454544,
                "end_time": 1.6613636363636364,
                "pitch": 49,
                "velocity": 80,
                "duration": 0.08181818181818201,
                "tempo": 120.0
            },
            {
                "start_time": 1.6795454545454545,
                "end_time": 1.7613636363636362,
                "pitch": 51,
                "velocity": 80,
                "duration": 0.08181818181818179,
                "tempo": 120.0
            },
            {
                "start_time": 1.7772727272727271,
                "end_time": 1.8636363636363635,
                "pitch": 46,
                "velocity": 80,
                "duration": 0.08636363636363642,
                "tempo": 120.0
            },
            {
                "start_time": 1.8795454545454544,
                "end_time": 1.9659090909090908,
                "pitch": 51,
                "velocity": 80,
                "duration": 0.08636363636363642,
                "tempo": 120.0
            },
            {
                "start_time": 1.984090909090909,
                "end_time": 2.0704545454545453,
                "pitch": 53,
                "velocity": 80,
                "duration": 0.08636363636363642,
                "tempo": 120.0
            },
            {
                "start_time": 2.0886363636363634,
                "end_time": 2.175,
                "pitch": 48,
                "velocity": 80,
                "duration": 0.08636363636363642,
                "tempo": 120.0
            },
            {
                "start_time": 2.190909090909091,
                "end_time": 2.2772727272727273,
                "pitch": 53,
                "velocity": 80,
                "duration": 0.08636363636363642,
                "tempo": 120.0
            },
            {
                "start_time": 2.2954545454545454,
                "end_time": 2.381818181818182,
                "pitch": 55,
                "velocity": 80,
                "duration": 0.08636363636363642,
                "tempo": 120.0
            },
            {
                "start_time": 2.4,
                "end_time": 2.484090909090909,
                "pitch": 49,
                "velocity": 80,
                "duration": 0.084090909090909,
                "tempo": 120.0
            },
            {
                "start_time": 2.502272727272727,
                "end_time": 2.5863636363636364,
                "pitch": 55,
                "velocity": 80,
                "duration": 0.08409090909090944,
                "tempo": 120.0
            },
            {
                "start_time": 2.602272727272727,
                "end_time": 2.6886363636363635,
                "pitch": 56,
                "velocity": 80,
                "duration": 0.08636363636363642,
                "tempo": 120.0
            },
            {
                "start_time": 2.7045454545454546,
                "end_time": 2.7886363636363636,
                "pitch": 51,
                "velocity": 80,
                "duration": 0.084090909090909,
                "tempo": 120.0
            },
            {
                "start_time": 2.8068181818181817,
                "end_time": 2.8909090909090907,
                "pitch": 56,
                "velocity": 80,
                "duration": 0.084090909090909,
                "tempo": 120.0
            },
            {
                "start_time": 2.9068181818181817,
                "end_time": 2.993181818181818,
                "pitch": 58,
                "velocity": 80,
                "duration": 0.08636363636363642,
                "tempo": 120.0
            },
            {
                "start_time": 3.009090909090909,
                "end_time": 3.093181818181818,
                "pitch": 53,
                "velocity": 80,
                "duration": 0.084090909090909,
                "tempo": 120.0
            },
            {
                "start_time": 3.1113636363636363,
                "end_time": 3.193181818181818,
                "pitch": 58,
                "velocity": 80,
                "duration": 0.08181818181818157,
                "tempo": 120.0
            },
            {
                "start_time": 3.2113636363636364,
                "end_time": 3.2954545454545454,
                "pitch": 60,
                "velocity": 80,
                "duration": 0.084090909090909,
                "tempo": 120.0
            },
            {
                "start_time": 3.311363636363636,
                "end_time": 3.3954545454545455,
                "pitch": 55,
                "velocity": 80,
                "duration": 0.08409090909090944,
                "tempo": 120.0
            },
            {
                "start_time": 3.411363636363636,
                "end_time": 3.495454545454545,
                "pitch": 60,
                "velocity": 80,
                "duration": 0.084090909090909,
                "tempo": 120.0
            },
            {
                "start_time": 3.5136363636363637,
                "end_time": 3.5977272727272727,
                "pitch": 61,
                "velocity": 80,
                "duration": 0.084090909090909,
                "tempo": 120.0
            },
            {
                "start_time": 3.6136363636363633,
                "end_time": 4.8113636363636365,
                "pitch": 65,
                "velocity": 80,
                "duration": 1.1977272727272732,
                "tempo": 120.0
            },
            {
                "start_time": 4.827272727272727,
                "end_time": 6.031818181818181,
                "pitch": 65,
                "velocity": 80,
                "duration": 1.2045454545454541,
                "tempo": 120.0
            }
        ],
        "Trumpet": [
            {
                "start_time": 0.011363636363636364,
                "end_time": 1.1681818181818182,
                "pitch": 60,
                "velocity": 101,
                "duration": 1.1568181818181817,
                "tempo": 120.0
            },
            {
                "start_time": 1.184090909090909,
                "end_time": 1.268181818181818,
                "pitch": 49,
                "velocity": 101,
                "duration": 0.084090909090909,
                "tempo": 120.0
            },
            {
                "start_time": 1.284090909090909,
                "end_time": 1.3659090909090907,
                "pitch": 55,
                "velocity": 101,
                "duration": 0.08181818181818179,
                "tempo": 120.0
            },
            {
                "start_time": 1.3818181818181818,
                "end_time": 1.4636363636363636,
                "pitch": 56,
                "velocity": 101,
                "duration": 0.08181818181818179,
                "tempo": 120.0
            },
            {
                "start_time": 1.4818181818181817,
                "end_time": 1.5636363636363635,
                "pitch": 51,
                "velocity": 101,
                "duration": 0.08181818181818179,
                "tempo": 120.0
            },
            {
                "start_time": 1.5795454545454544,
                "end_time": 1.6613636363636364,
                "pitch": 56,
                "velocity": 101,
                "duration": 0.08181818181818201,
                "tempo": 120.0
            },
            {
                "start_time": 1.6795454545454545,
                "end_time": 1.7613636363636362,
                "pitch": 58,
                "velocity": 101,
                "duration": 0.08181818181818179,
                "tempo": 120.0
            },
            {
                "start_time": 1.7772727272727271,
                "end_time": 1.8636363636363635,
                "pitch": 53,
                "velocity": 101,
                "duration": 0.08636363636363642,
                "tempo": 120.0
            },
            {
                "start_time": 1.8795454545454544,
                "end_time": 1.9659090909090908,
                "pitch": 58,
                "velocity": 101,
                "duration": 0.08636363636363642,
                "tempo": 120.0
            },
            {
                "start_time": 1.984090909090909,
                "end_time": 2.0704545454545453,
                "pitch": 60,
                "velocity": 101,
                "duration": 0.08636363636363642,
                "tempo": 120.0
            },
            {
                "start_time": 2.0886363636363634,
                "end_time": 2.175,
                "pitch": 55,
                "velocity": 101,
                "duration": 0.08636363636363642,
                "tempo": 120.0
            },
            {
                "start_time": 2.190909090909091,
                "end_time": 2.2772727272727273,
                "pitch": 60,
                "velocity": 101,
                "duration": 0.08636363636363642,
                "tempo": 120.0
            },
            {
                "start_time": 2.2954545454545454,
                "end_time": 2.381818181818182,
                "pitch": 61,
                "velocity": 101,
                "duration": 0.08636363636363642,
                "tempo": 120.0
            },
            {
                "start_time": 2.4,
                "end_time": 2.484090909090909,
                "pitch": 56,
                "velocity": 101,
                "duration": 0.084090909090909,
                "tempo": 120.0
            },
            {
                "start_time": 2.502272727272727,
                "end_time": 2.5863636363636364,
                "pitch": 61,
                "velocity": 101,
                "duration": 0.08409090909090944,
                "tempo": 120.0
            },
            {
                "start_time": 2.602272727272727,
                "end_time": 2.6886363636363635,
                "pitch": 63,
                "velocity": 101,
                "duration": 0.08636363636363642,
                "tempo": 120.0
            },
            {
                "start_time": 2.7045454545454546,
                "end_time": 2.7886363636363636,
                "pitch": 58,
                "velocity": 101,
                "duration": 0.084090909090909,
                "tempo": 120.0
            },
            {
                "start_time": 2.8068181818181817,
                "end_time": 2.8909090909090907,
                "pitch": 63,
                "velocity": 101,
                "duration": 0.084090909090909,
                "tempo": 120.0
            },
            {
                "start_time": 2.9068181818181817,
                "end_time": 2.993181818181818,
                "pitch": 65,
                "velocity": 101,
                "duration": 0.08636363636363642,
                "tempo": 120.0
            },
            {
                "start_time": 3.009090909090909,
                "end_time": 3.093181818181818,
                "pitch": 60,
                "velocity": 101,
                "duration": 0.084090909090909,
                "tempo": 120.0
            },
            {
                "start_time": 3.1113636363636363,
                "end_time": 3.193181818181818,
                "pitch": 65,
                "velocity": 101,
                "duration": 0.08181818181818157,
                "tempo": 120.0
            },
            {
                "start_time": 3.2113636363636364,
                "end_time": 3.2954545454545454,
                "pitch": 67,
                "velocity": 101,
                "duration": 0.084090909090909,
                "tempo": 120.0
            },
            {
                "start_time": 3.311363636363636,
                "end_time": 3.3954545454545455,
                "pitch": 61,
                "velocity": 101,
                "duration": 0.08409090909090944,
                "tempo": 120.0
            },
            {
                "start_time": 3.411363636363636,
                "end_time": 3.495454545454545,
                "pitch": 67,
                "velocity": 101,
                "duration": 0.084090909090909,
                "tempo": 120.0
            },
            {
                "start_time": 3.5136363636363637,
                "end_time": 3.5977272727272727,
                "pitch": 68,
                "velocity": 101,
                "duration": 0.084090909090909,
                "tempo": 120.0
            },
            {
                "start_time": 3.6136363636363633,
                "end_time": 4.8113636363636365,
                "pitch": 72,
                "velocity": 101,
                "duration": 1.1977272727272732,
                "tempo": 120.0
            },
            {
                "start_time": 4.827272727272727,
                "end_time": 6.031818181818181,
                "pitch": 72,
                "velocity": 101,
                "duration": 1.2045454545454541,
                "tempo": 120.0
            }
        ],
        "Synth Bass 1": [
            {
                "start_time": 0.011363636363636364,
                "end_time": 1.184090909090909,
                "pitch": 65,
                "velocity": 80,
                "duration": 1.1727272727272726,
                "tempo": 120.0
            },
            {
                "start_time": 1.218181818181818,
                "end_time": 1.284090909090909,
                "pitch": 55,
                "velocity": 80,
                "duration": 0.06590909090909092,
                "tempo": 120.0
            },
            {
                "start_time": 1.315909090909091,
                "end_time": 1.3818181818181818,
                "pitch": 60,
                "velocity": 80,
                "duration": 0.06590909090909092,
                "tempo": 120.0
            },
            {
                "start_time": 1.4159090909090908,
                "end_time": 1.4818181818181817,
                "pitch": 61,
                "velocity": 80,
                "duration": 0.06590909090909092,
                "tempo": 120.0
            },
            {
                "start_time": 1.5136363636363637,
                "end_time": 1.5795454545454544,
                "pitch": 56,
                "velocity": 80,
                "duration": 0.0659090909090907,
                "tempo": 120.0
            },
            {
                "start_time": 1.6136363636363635,
                "end_time": 1.6795454545454545,
                "pitch": 61,
                "velocity": 80,
                "duration": 0.06590909090909092,
                "tempo": 120.0
            },
            {
                "start_time": 1.7113636363636362,
                "end_time": 1.7772727272727271,
                "pitch": 63,
                "velocity": 80,
                "duration": 0.06590909090909092,
                "tempo": 120.0
            },
            {
                "start_time": 1.8113636363636363,
                "end_time": 1.8795454545454544,
                "pitch": 58,
                "velocity": 80,
                "duration": 0.06818181818181812,
                "tempo": 120.0
            },
            {
                "start_time": 1.9159090909090908,
                "end_time": 1.984090909090909,
                "pitch": 63,
                "velocity": 80,
                "duration": 0.06818181818181812,
                "tempo": 120.0
            },
            {
                "start_time": 2.018181818181818,
                "end_time": 2.0886363636363634,
                "pitch": 65,
                "velocity": 80,
                "duration": 0.07045454545454533,
                "tempo": 120.0
            },
            {
                "start_time": 2.1227272727272726,
                "end_time": 2.190909090909091,
                "pitch": 60,
                "velocity": 80,
                "duration": 0.06818181818181834,
                "tempo": 120.0
            },
            {
                "start_time": 2.227272727272727,
                "end_time": 2.2954545454545454,
                "pitch": 65,
                "velocity": 80,
                "duration": 0.06818181818181834,
                "tempo": 120.0
            },
            {
                "start_time": 2.3295454545454546,
                "end_time": 2.4,
                "pitch": 67,
                "velocity": 80,
                "duration": 0.07045454545454533,
                "tempo": 120.0
            },
            {
                "start_time": 2.434090909090909,
                "end_time": 2.502272727272727,
                "pitch": 61,
                "velocity": 80,
                "duration": 0.0681818181818179,
                "tempo": 120.0
            },
            {
                "start_time": 2.534090909090909,
                "end_time": 2.602272727272727,
                "pitch": 67,
                "velocity": 80,
                "duration": 0.0681818181818179,
                "tempo": 120.0
            },
            {
                "start_time": 2.6363636363636362,
                "end_time": 2.7045454545454546,
                "pitch": 68,
                "velocity": 80,
                "duration": 0.06818181818181834,
                "tempo": 120.0
            },
            {
                "start_time": 2.7386363636363633,
                "end_time": 2.8068181818181817,
                "pitch": 63,
                "velocity": 80,
                "duration": 0.06818181818181834,
                "tempo": 120.0
            },
            {
                "start_time": 2.840909090909091,
                "end_time": 2.9068181818181817,
                "pitch": 68,
                "velocity": 80,
                "duration": 0.06590909090909092,
                "tempo": 120.0
            },
            {
                "start_time": 2.940909090909091,
                "end_time": 3.009090909090909,
                "pitch": 70,
                "velocity": 80,
                "duration": 0.0681818181818179,
                "tempo": 120.0
            },
            {
                "start_time": 3.043181818181818,
                "end_time": 3.1113636363636363,
                "pitch": 65,
                "velocity": 80,
                "duration": 0.06818181818181834,
                "tempo": 120.0
            },
            {
                "start_time": 3.143181818181818,
                "end_time": 3.2113636363636364,
                "pitch": 70,
                "velocity": 80,
                "duration": 0.06818181818181834,
                "tempo": 120.0
            },
            {
                "start_time": 3.245454545454545,
                "end_time": 3.311363636363636,
                "pitch": 72,
                "velocity": 80,
                "duration": 0.06590909090909092,
                "tempo": 120.0
            },
            {
                "start_time": 3.3454545454545452,
                "end_time": 3.411363636363636,
                "pitch": 67,
                "velocity": 80,
                "duration": 0.06590909090909092,
                "tempo": 120.0
            },
            {
                "start_time": 3.4454545454545453,
                "end_time": 3.5136363636363637,
                "pitch": 72,
                "velocity": 80,
                "duration": 0.06818181818181834,
                "tempo": 120.0
            },
            {
                "start_time": 3.5477272727272724,
                "end_time": 3.6136363636363633,
                "pitch": 73,
                "velocity": 80,
                "duration": 0.06590909090909092,
                "tempo": 120.0
            },
            {
                "start_time": 3.6477272727272725,
                "end_time": 4.827272727272727,
                "pitch": 77,
                "velocity": 80,
                "duration": 1.1795454545454547,
                "tempo": 120.0
            },
            {
                "start_time": 4.861363636363636,
                "end_time": 6.047727272727273,
                "pitch": 77,
                "velocity": 80,
                "duration": 1.1863636363636365,
                "tempo": 120.0
            }
        ]
    }
}