{
    "track_id": "Disc Station - 01 - Title Screen (FM)",
    "mood": "happy",
    "instruments": {
        "Acoustic Bass": [
            {
                "start_time": 0.02727272727272727,
                "end_time": 0.29318181818181815,
                "pitch": 43,
                "velocity": 101,
                "duration": 0.2659090909090909,
                "tempo": 120.0
            },
            {
                "start_time": 0.29318181818181815,
                "end_time": 0.49318181818181817,
                "pitch": 55,
                "velocity": 101,
                "duration": 0.2,
                "tempo": 120.0
            },
            {
                "start_time": 0.49318181818181817,
                "end_time": 0.5613636363636363,
                "pitch": 55,
                "velocity": 101,
                "duration": 0.06818181818181812,
                "tempo": 120.0
            },
            {
                "start_time": 0.5613636363636363,
                "end_time": 0.6954545454545454,
                "pitch": 50,
                "velocity": 101,
                "duration": 0.13409090909090915,
                "tempo": 120.0
            },
            {
                "start_time": 0.6954545454545454,
                "end_time": 1.1045454545454545,
                "pitch": 55,
                "velocity": 101,
                "duration": 0.40909090909090906,
                "tempo": 120.0
            },
            {
                "start_time": 0.5613636363636363,
                "end_time": 1.3545454545454545,
                "pitch": 43,
                "velocity": 101,
                "duration": 0.7931818181818182,
                "tempo": 120.0
            },
            {
                "start_time": 1.1045454545454545,
                "end_time": 1.3545454545454545,
                "pitch": 43,
                "velocity": 101,
                "duration": 0.25,
                "tempo": 120.0
            },
            {
                "start_time": 1.3545454545454545,
                "end_time": 1.5545454545454545,
                "pitch": 55,
                "velocity": 101,
                "duration": 0.19999999999999996,
                "tempo": 120.0
            },
            {
                "start_time": 1.5545454545454545,
                "end_time": 1.6227272727272726,
                "pitch": 55,
                "velocity": 101,
                "duration": 0.06818181818181812,
                "tempo": 120.0
            },
            {
                "start_time": 1.6227272727272726,
                "end_time": 1.7545454545454544,
                "pitch": 50,
                "velocity": 101,
                "duration": 0.13181818181818183,
                "tempo": 120.0
            },
            {
                "start_time": 0.6954545454545454,
                "end_time": 1.7545454545454544,
                "pitch": 62,
                "velocity": 101,
                "duration": 1.059090909090909,
                "tempo": 120.0
            },
            {
                "start_time": 1.7545454545454544,
                "end_time": 2.1477272727272725,
                "pitch": 55,
                "velocity": 101,
                "duration": 0.3931818181818181,
                "tempo": 120.0
            },
            {
                "start_time": 2.1477272727272725,
                "end_time": 2.3977272727272725,
                "pitch": 40,
                "velocity": 101,
                "duration": 0.25,
                "tempo": 120.0
            },
            {
                "start_time": 2.3977272727272725,
                "end_time": 2.5977272727272727,
                "pitch": 52,
                "velocity": 101,
                "duration": 0.20000000000000018,
                "tempo": 120.0
            },
            {
                "start_time": 2.5977272727272727,
                "end_time": 2.6659090909090906,
                "pitch": 52,
                "velocity": 101,
                "duration": 0.0681818181818179,
                "tempo": 120.0
            },
            {
                "start_time": 2.6659090909090906,
                "end_time": 2.7954545454545454,
                "pitch": 47,
                "velocity": 101,
                "duration": 0.12954545454545485,
                "tempo": 120.0
            },
            {
                "start_time": 2.6659090909090906,
                "end_time": 3.190909090909091,
                "pitch": 52,
                "velocity": 101,
                "duration": 0.5250000000000004,
                "tempo": 120.0
            },
            {
                "start_time": 2.7954545454545454,
                "end_time": 3.190909090909091,
                "pitch": 52,
                "velocity": 101,
                "duration": 0.3954545454545455,
                "tempo": 120.0
            },
            {
                "start_time": 3.190909090909091,
                "end_time": 3.440909090909091,
                "pitch": 40,
                "velocity": 101,
                "duration": 0.25,
                "tempo": 120.0
            },
            {
                "start_time": 3.440909090909091,
                "end_time": 3.6409090909090907,
                "pitch": 52,
                "velocity": 101,
                "duration": 0.19999999999999973,
                "tempo": 120.0
            },
            {
                "start_time": 3.6409090909090907,
                "end_time": 3.7068181818181816,
                "pitch": 52,
                "velocity": 101,
                "duration": 0.06590909090909092,
                "tempo": 120.0
            },
            {
                "start_time": 2.7954545454545454,
                "end_time": 3.8386363636363634,
                "pitch": 47,
                "velocity": 101,
                "duration": 1.043181818181818,
                "tempo": 120.0
            },
            {
                "start_time": 3.7068181818181816,
                "end_time": 3.8386363636363634,
                "pitch": 47,
                "velocity": 101,
                "duration": 0.13181818181818183,
                "tempo": 120.0
            },
            {
                "start_time": 3.7068181818181816,
                "end_time": 4.2340909090909085,
                "pitch": 52,
                "velocity": 101,
                "duration": 0.5272727272727269,
                "tempo": 120.0
            },
            {
                "start_time": 3.8386363636363634,
                "end_time": 4.2340909090909085,
                "pitch": 52,
                "velocity": 101,
                "duration": 0.39545454545454506,
                "tempo": 120.0
            },
            {
                "start_time": 4.2340909090909085,
                "end_time": 4.4840909090909085,
                "pitch": 45,
                "velocity": 101,
                "duration": 0.25,
                "tempo": 120.0
            },
            {
                "start_time": 4.4840909090909085,
                "end_time": 4.684090909090909,
                "pitch": 57,
                "velocity": 101,
                "duration": 0.20000000000000018,
                "tempo": 120.0
            },
            {
                "start_time": 4.684090909090909,
                "end_time": 4.75,
                "pitch": 57,
                "velocity": 101,
                "duration": 0.06590909090909136,
                "tempo": 120.0
            },
            {
                "start_time": 4.2340909090909085,
                "end_time": 4.881818181818182,
                "pitch": 52,
                "velocity": 101,
                "duration": 0.6477272727272734,
                "tempo": 120.0
            },
            {
                "start_time": 4.75,
                "end_time": 4.881818181818182,
                "pitch": 52,
                "velocity": 101,
                "duration": 0.13181818181818183,
                "tempo": 120.0
            },
            {
                "start_time": 4.881818181818182,
                "end_time": 5.277272727272727,
                "pitch": 57,
                "velocity": 101,
                "duration": 0.3954545454545455,
                "tempo": 120.0
            },
            {
                "start_time": 4.75,
                "end_time": 5.527272727272727,
                "pitch": 45,
                "velocity": 101,
                "duration": 0.7772727272727273,
                "tempo": 120.0
            },
            {
                "start_time": 5.277272727272727,
                "end_time": 5.527272727272727,
                "pitch": 45,
                "velocity": 101,
                "duration": 0.25,
                "tempo": 120.0
            },
            {
                "start_time": 5.527272727272727,
                "end_time": 5.727272727272727,
                "pitch": 57,
                "velocity": 101,
                "duration": 0.1999999999999993,
                "tempo": 120.0
            },
            {
                "start_time": 5.727272727272727,
                "end_time": 5.793181818181818,
                "pitch": 57,
                "velocity": 101,
                "duration": 0.06590909090909136,
                "tempo": 120.0
            },
            {
                "start_time": 5.795454545454545,
                "end_time": 5.925,
                "pitch": 52,
                "velocity": 101,
                "duration": 0.12954545454545485,
                "tempo": 120.0
            },
            {
                "start_time": 4.881818181818182,
                "end_time": 5.925,
                "pitch": 64,
                "velocity": 101,
                "duration": 1.043181818181818,
                "tempo": 120.0
            },
            {
                "start_time": 5.925,
                "end_time": 6.3181818181818175,
                "pitch": 57,
                "velocity": 101,
                "duration": 0.39318181818181763,
                "tempo": 120.0
            },
            {
                "start_time": 6.3181818181818175,
                "end_time": 6.570454545454545,
                "pitch": 38,
                "velocity": 101,
                "duration": 0.25227272727272787,
                "tempo": 120.0
            },
            {
                "start_time": 6.570454545454545,
                "end_time": 6.768181818181818,
                "pitch": 50,
                "velocity": 101,
                "duration": 0.1977272727272723,
                "tempo": 120.0
            },
            {
                "start_time": 6.768181818181818,
                "end_time": 6.836363636363636,
                "pitch": 50,
                "velocity": 101,
                "duration": 0.06818181818181834,
                "tempo": 120.0
            },
            {
                "start_time": 5.795454545454545,
                "end_time": 6.968181818181818,
                "pitch": 45,
                "velocity": 101,
                "duration": 1.1727272727272728,
                "tempo": 120.0
            },
            {
                "start_time": 6.836363636363636,
                "end_time": 6.968181818181818,
                "pitch": 45,
                "velocity": 101,
                "duration": 0.13181818181818183,
                "tempo": 120.0
            },
            {
                "start_time": 6.836363636363636,
                "end_time": 7.361363636363636,
                "pitch": 50,
                "velocity": 101,
                "duration": 0.5250000000000004,
                "tempo": 120.0
            },
            {
                "start_time": 6.968181818181818,
                "end_time": 7.361363636363636,
                "pitch": 50,
                "velocity": 101,
                "duration": 0.3931818181818185,
                "tempo": 120.0
            },
            {
                "start_time": 7.361363636363636,
                "end_time": 7.611363636363636,
                "pitch": 38,
                "velocity": 101,
                "duration": 0.25,
                "tempo": 120.0
            },
            {
                "start_time": 7.611363636363636,
                "end_time": 7.811363636363636,
                "pitch": 50,
                "velocity": 101,
                "duration": 0.1999999999999993,
                "tempo": 120.0
            },
            {
                "start_time": 7.811363636363636,
                "end_time": 7.877272727272727,
                "pitch": 50,
                "velocity": 101,
                "duration": 0.06590909090909136,
                "tempo": 120.0
            },
            {
                "start_time": 6.968181818181818,
                "end_time": 8.006818181818181,
                "pitch": 45,
                "velocity": 101,
                "duration": 1.0386363636363631,
                "tempo": 120.0
            },
            {
                "start_time": 7.879545454545454,
                "end_time": 8.006818181818181,
                "pitch": 45,
                "velocity": 101,
                "duration": 0.12727272727272698,
                "tempo": 120.0
            },
            {
                "start_time": 7.879545454545454,
                "end_time": 8.395454545454545,
                "pitch": 50,
                "velocity": 101,
                "duration": 0.5159090909090907,
                "tempo": 120.0
            },
            {
                "start_time": 8.006818181818181,
                "end_time": 8.395454545454545,
                "pitch": 50,
                "velocity": 101,
                "duration": 0.38863636363636367,
                "tempo": 120.0
            },
            {
                "start_time": 1.6227272727272726,
                "end_time": 8.65,
                "pitch": 43,
                "velocity": 101,
                "duration": 7.027272727272727,
                "tempo": 120.0
            },
            {
                "start_time": 8.395454545454545,
                "end_time": 8.65,
                "pitch": 43,
                "velocity": 101,
                "duration": 0.25454545454545574,
                "tempo": 120.0
            },
            {
                "start_time": 8.65,
                "end_time": 8.854545454545454,
                "pitch": 55,
                "velocity": 101,
                "duration": 0.20454545454545325,
                "tempo": 120.0
            },
            {
                "start_time": 8.854545454545454,
                "end_time": 8.922727272727272,
                "pitch": 55,
                "velocity": 101,
                "duration": 0.06818181818181834,
                "tempo": 120.0
            },
            {
                "start_time": 8.395454545454545,
                "end_time": 9.054545454545455,
                "pitch": 50,
                "velocity": 101,
                "duration": 0.6590909090909101,
                "tempo": 120.0
            },
            {
                "start_time": 8.922727272727272,
                "end_time": 9.054545454545455,
                "pitch": 50,
                "velocity": 101,
                "duration": 0.13181818181818272,
                "tempo": 120.0
            },
            {
                "start_time": 1.7545454545454544,
                "end_time": 9.054545454545455,
                "pitch": 62,
                "velocity": 101,
                "duration": 7.300000000000001,
                "tempo": 120.0
            },
            {
                "start_time": 9.054545454545455,
                "end_time": 9.447727272727272,
                "pitch": 55,
                "velocity": 101,
                "duration": 0.39318181818181763,
                "tempo": 120.0
            },
            {
                "start_time": 8.922727272727272,
                "end_time": 9.697727272727272,
                "pitch": 43,
                "velocity": 101,
                "duration": 0.7750000000000004,
                "tempo": 120.0
            },
            {
                "start_time": 9.447727272727272,
                "end_time": 9.697727272727272,
                "pitch": 43,
                "velocity": 101,
                "duration": 0.25,
                "tempo": 120.0
            },
            {
                "start_time": 9.697727272727272,
                "end_time": 9.897727272727272,
                "pitch": 55,
                "velocity": 101,
                "duration": 0.1999999999999993,
                "tempo": 120.0
            },
            {
                "start_time": 9.897727272727272,
                "end_time": 9.96590909090909,
                "pitch": 55,
                "velocity": 101,
                "duration": 0.06818181818181834,
                "tempo": 120.0
            },
            {
                "start_time": 9.96590909090909,
                "end_time": 10.095454545454546,
                "pitch": 50,
                "velocity": 101,
                "duration": 0.12954545454545574,
                "tempo": 120.0
            },
            {
                "start_time": 9.054545454545455,
                "end_time": 10.097727272727273,
                "pitch": 62,
                "velocity": 101,
                "duration": 1.043181818181818,
                "tempo": 120.0
            },
            {
                "start_time": 2.1477272727272725,
                "end_time": 10.49090909090909,
                "pitch": 31,
                "velocity": 101,
                "duration": 8.343181818181819,
                "tempo": 120.0
            },
            {
                "start_time": 10.097727272727273,
                "end_time": 10.49090909090909,
                "pitch": 55,
                "velocity": 101,
                "duration": 0.39318181818181763,
                "tempo": 120.0
            },
            {
                "start_time": 10.49090909090909,
                "end_time": 10.74090909090909,
                "pitch": 40,
                "velocity": 101,
                "duration": 0.25,
                "tempo": 120.0
            },
            {
                "start_time": 10.74090909090909,
                "end_time": 10.94090909090909,
                "pitch": 52,
                "velocity": 101,
                "duration": 0.1999999999999993,
                "tempo": 120.0
            },
            {
                "start_time": 10.94090909090909,
                "end_time": 11.009090909090908,
                "pitch": 52,
                "velocity": 101,
                "duration": 0.06818181818181834,
                "tempo": 120.0
            },
            {
                "start_time": 3.8386363636363634,
                "end_time": 11.138636363636364,
                "pitch": 47,
                "velocity": 101,
                "duration": 7.300000000000001,
                "tempo": 120.0
            },
            {
                "start_time": 11.009090909090908,
                "end_time": 11.138636363636364,
                "pitch": 47,
                "velocity": 101,
                "duration": 0.12954545454545574,
                "tempo": 120.0
            },
            {
                "start_time": 11.009090909090908,
                "end_time": 11.534090909090908,
                "pitch": 52,
                "velocity": 101,
                "duration": 0.5250000000000004,
                "tempo": 120.0
            },
            {
                "start_time": 11.138636363636364,
                "end_time": 11.534090909090908,
                "pitch": 52,
                "velocity": 101,
                "duration": 0.3954545454545446,
                "tempo": 120.0
            },
            {
                "start_time": 11.534090909090908,
                "end_time": 11.784090909090908,
                "pitch": 40,
                "velocity": 101,
                "duration": 0.25,
                "tempo": 120.0
            },
            {
                "start_time": 11.784090909090908,
                "end_time": 11.98409090909091,
                "pitch": 52,
                "velocity": 101,
                "duration": 0.20000000000000107,
                "tempo": 120.0
            },
            {
                "start_time": 11.98409090909091,
                "end_time": 12.052272727272726,
                "pitch": 52,
                "velocity": 101,
                "duration": 0.06818181818181657,
                "tempo": 120.0
            },
            {
                "start_time": 11.138636363636364,
                "end_time": 12.181818181818182,
                "pitch": 47,
                "velocity": 101,
                "duration": 1.043181818181818,
                "tempo": 120.0
            },
            {
                "start_time": 12.052272727272726,
                "end_time": 12.181818181818182,
                "pitch": 47,
                "velocity": 101,
                "duration": 0.12954545454545574,
                "tempo": 120.0
            },
            {
                "start_time": 12.052272727272726,
                "end_time": 12.577272727272726,
                "pitch": 52,
                "velocity": 101,
                "duration": 0.5250000000000004,
                "tempo": 120.0
            },
            {
                "start_time": 12.181818181818182,
                "end_time": 12.577272727272726,
                "pitch": 52,
                "velocity": 101,
                "duration": 0.3954545454545446,
                "tempo": 120.0
            },
            {
                "start_time": 8.006818181818181,
                "end_time": 12.827272727272726,
                "pitch": 45,
                "velocity": 101,
                "duration": 4.820454545454545,
                "tempo": 120.0
            },
            {
                "start_time": 12.577272727272726,
                "end_time": 12.827272727272726,
                "pitch": 45,
                "velocity": 101,
                "duration": 0.25,
                "tempo": 120.0
            },
            {
                "start_time": 12.827272727272726,
                "end_time": 13.027272727272727,
                "pitch": 57,
                "velocity": 101,
                "duration": 0.20000000000000107,
                "tempo": 120.0
            },
            {
                "start_time": 13.027272727272727,
                "end_time": 13.093181818181817,
                "pitch": 57,
                "velocity": 101,
                "duration": 0.06590909090908958,
                "tempo": 120.0
            },
            {
                "start_time": 12.577272727272726,
                "end_time": 13.225,
                "pitch": 52,
                "velocity": 101,
                "duration": 0.6477272727272734,
                "tempo": 120.0
            },
            {
                "start_time": 13.093181818181817,
                "end_time": 13.225,
                "pitch": 52,
                "velocity": 101,
                "duration": 0.13181818181818272,
                "tempo": 120.0
            },
            {
                "start_time": 5.925,
                "end_time": 13.225,
                "pitch": 64,
                "velocity": 101,
                "duration": 7.3,
                "tempo": 120.0
            },
            {
                "start_time": 13.225,
                "end_time": 13.618181818181817,
                "pitch": 57,
                "velocity": 101,
                "duration": 0.39318181818181763,
                "tempo": 120.0
            },
            {
                "start_time": 13.093181818181817,
                "end_time": 13.868181818181817,
                "pitch": 45,
                "velocity": 101,
                "duration": 0.7750000000000004,
                "tempo": 120.0
            },
            {
                "start_time": 13.620454545454544,
                "end_time": 13.868181818181817,
                "pitch": 45,
                "velocity": 101,
                "duration": 0.24772727272727302,
                "tempo": 120.0
            },
            {
                "start_time": 13.868181818181817,
                "end_time": 14.068181818181818,
                "pitch": 57,
                "velocity": 101,
                "duration": 0.20000000000000107,
                "tempo": 120.0
            },
            {
                "start_time": 14.068181818181818,
                "end_time": 14.136363636363635,
                "pitch": 57,
                "velocity": 101,
                "duration": 0.06818181818181657,
                "tempo": 120.0
            },
            {
                "start_time": 14.136363636363635,
                "end_time": 14.268181818181818,
                "pitch": 52,
                "velocity": 101,
                "duration": 0.13181818181818272,
                "tempo": 120.0
            },
            {
                "start_time": 13.225,
                "end_time": 14.268181818181818,
                "pitch": 64,
                "velocity": 101,
                "duration": 1.043181818181818,
                "tempo": 120.0
            },
            {
                "start_time": 6.3181818181818175,
                "end_time": 14.661363636363635,
                "pitch": 33,
                "velocity": 101,
                "duration": 8.343181818181819,
                "tempo": 120.0
            },
            {
                "start_time": 14.268181818181818,
                "end_time": 14.661363636363635,
                "pitch": 57,
                "velocity": 101,
                "duration": 0.39318181818181763,
                "tempo": 120.0
            },
            {
                "start_time": 14.661363636363635,
                "end_time": 14.913636363636362,
                "pitch": 38,
                "velocity": 101,
                "duration": 0.252272727272727,
                "tempo": 120.0
            },
            {
                "start_time": 14.913636363636362,
                "end_time": 15.111363636363636,
                "pitch": 50,
                "velocity": 101,
                "duration": 0.19772727272727408,
                "tempo": 120.0
            },
            {
                "start_time": 15.111363636363636,
                "end_time": 15.179545454545455,
                "pitch": 50,
                "velocity": 101,
                "duration": 0.06818181818181834,
                "tempo": 120.0
            },
            {
                "start_time": 14.136363636363635,
                "end_time": 15.309090909090909,
                "pitch": 45,
                "velocity": 101,
                "duration": 1.1727272727272737,
                "tempo": 120.0
            },
            {
                "start_time": 15.179545454545455,
                "end_time": 15.309090909090909,
                "pitch": 45,
                "velocity": 101,
                "duration": 0.12954545454545396,
                "tempo": 120.0
            },
            {
                "start_time": 15.179545454545455,
                "end_time": 15.704545454545453,
                "pitch": 50,
                "velocity": 101,
                "duration": 0.5249999999999986,
                "tempo": 120.0
            },
            {
                "start_time": 15.309090909090909,
                "end_time": 15.704545454545453,
                "pitch": 50,
                "velocity": 101,
                "duration": 0.3954545454545446,
                "tempo": 120.0
            },
            {
                "start_time": 15.704545454545453,
                "end_time": 15.954545454545453,
                "pitch": 38,
                "velocity": 101,
                "duration": 0.25,
                "tempo": 120.0
            },
            {
                "start_time": 15.954545454545453,
                "end_time": 16.154545454545453,
                "pitch": 50,
                "velocity": 101,
                "duration": 0.1999999999999993,
                "tempo": 120.0
            },
            {
                "start_time": 16.154545454545453,
                "end_time": 16.222727272727273,
                "pitch": 50,
                "velocity": 101,
                "duration": 0.06818181818182012,
                "tempo": 120.0
            },
            {
                "start_time": 15.309090909090909,
                "end_time": 16.352272727272727,
                "pitch": 45,
                "velocity": 101,
                "duration": 1.043181818181818,
                "tempo": 120.0
            },
            {
                "start_time": 16.222727272727273,
                "end_time": 16.352272727272727,
                "pitch": 45,
                "velocity": 101,
                "duration": 0.12954545454545396,
                "tempo": 120.0
            },
            {
                "start_time": 9.96590909090909,
                "end_time": 16.74772727272727,
                "pitch": 43,
                "velocity": 101,
                "duration": 6.781818181818181,
                "tempo": 120.0
            },
            {
                "start_time": 16.222727272727273,
                "end_time": 16.74772727272727,
                "pitch": 50,
                "velocity": 101,
                "duration": 0.5249999999999986,
                "tempo": 120.0
            },
            {
                "start_time": 16.352272727272727,
                "end_time": 16.74772727272727,
                "pitch": 50,
                "velocity": 101,
                "duration": 0.3954545454545446,
                "tempo": 120.0
            }
        ]
    }
}