{
    "track_id": "Double Dragon (FM) - 08 - Mission Complete",
    "mood": "happy",
    "instruments": {
        "Acoustic Bass": [
            {
                "start_time": 0.022727272727272728,
                "end_time": 0.22272727272727272,
                "pitch": 36,
                "velocity": 64,
                "duration": 0.19999999999999998,
                "tempo": 120.0
            },
            {
                "start_time": 0.2568181818181818,
                "end_time": 0.4909090909090909,
                "pitch": 36,
                "velocity": 64,
                "duration": 0.23409090909090913,
                "tempo": 120.0
            },
            {
                "start_time": 0.5227272727272727,
                "end_time": 0.7568181818181818,
                "pitch": 36,
                "velocity": 64,
                "duration": 0.23409090909090913,
                "tempo": 120.0
            },
            {
                "start_time": 0.7909090909090909,
                "end_time": 1.0227272727272727,
                "pitch": 36,
                "velocity": 64,
                "duration": 0.2318181818181818,
                "tempo": 120.0
            },
            {
                "start_time": 1.0568181818181817,
                "end_time": 1.2909090909090908,
                "pitch": 36,
                "velocity": 64,
                "duration": 0.23409090909090913,
                "tempo": 120.0
            },
            {
                "start_time": 1.3227272727272728,
                "end_time": 1.5568181818181817,
                "pitch": 36,
                "velocity": 64,
                "duration": 0.2340909090909089,
                "tempo": 120.0
            },
            {
                "start_time": 1.5909090909090908,
                "end_time": 1.8227272727272725,
                "pitch": 36,
                "velocity": 64,
                "duration": 0.2318181818181817,
                "tempo": 120.0
            },
            {
                "start_time": 1.8568181818181817,
                "end_time": 2.090909090909091,
                "pitch": 36,
                "velocity": 64,
                "duration": 0.23409090909090913,
                "tempo": 120.0
            },
            {
                "start_time": 2.1227272727272726,
                "end_time": 2.356818181818182,
                "pitch": 36,
                "velocity": 64,
                "duration": 0.23409090909090935,
                "tempo": 120.0
            },
            {
                "start_time": 2.3909090909090907,
                "end_time": 2.6227272727272726,
                "pitch": 36,
                "velocity": 64,
                "duration": 0.23181818181818192,
                "tempo": 120.0
            },
            {
                "start_time": 2.6568181818181817,
                "end_time": 2.8909090909090907,
                "pitch": 36,
                "velocity": 64,
                "duration": 0.2340909090909089,
                "tempo": 120.0
            },
            {
                "start_time": 2.9227272727272724,
                "end_time": 3.1568181818181817,
                "pitch": 36,
                "velocity": 64,
                "duration": 0.23409090909090935,
                "tempo": 120.0
            },
            {
                "start_time": 3.190909090909091,
                "end_time": 6.3159090909090905,
                "pitch": 36,
                "velocity": 64,
                "duration": 3.1249999999999996,
                "tempo": 120.0
            }
        ],
        "Vibraphone": [
            {
                "start_time": 0.022727272727272728,
                "end_time": 0.22272727272727272,
                "pitch": 53,
                "velocity": 64,
                "duration": 0.19999999999999998,
                "tempo": 120.0
            },
            {
                "start_time": 0.2568181818181818,
                "end_time": 0.4909090909090909,
                "pitch": 53,
                "velocity": 64,
                "duration": 0.23409090909090913,
                "tempo": 120.0
            },
            {
                "start_time": 0.5227272727272727,
                "end_time": 0.7568181818181818,
                "pitch": 53,
                "velocity": 64,
                "duration": 0.23409090909090913,
                "tempo": 120.0
            },
            {
                "start_time": 0.7909090909090909,
                "end_time": 1.0227272727272727,
                "pitch": 57,
                "velocity": 64,
                "duration": 0.2318181818181818,
                "tempo": 120.0
            },
            {
                "start_time": 1.0568181818181817,
                "end_time": 1.2909090909090908,
                "pitch": 57,
                "velocity": 64,
                "duration": 0.23409090909090913,
                "tempo": 120.0
            },
            {
                "start_time": 1.3227272727272728,
                "end_time": 1.5568181818181817,
                "pitch": 57,
                "velocity": 64,
                "duration": 0.2340909090909089,
                "tempo": 120.0
            },
            {
                "start_time": 1.5909090909090908,
                "end_time": 1.8227272727272725,
                "pitch": 62,
                "velocity": 64,
                "duration": 0.2318181818181817,
                "tempo": 120.0
            },
            {
                "start_time": 1.8568181818181817,
                "end_time": 2.090909090909091,
                "pitch": 62,
                "velocity": 64,
                "duration": 0.23409090909090913,
                "tempo": 120.0
            },
            {
                "start_time": 2.1227272727272726,
                "end_time": 2.356818181818182,
                "pitch": 62,
                "velocity": 64,
                "duration": 0.23409090909090935,
                "tempo": 120.0
            },
            {
                "start_time": 2.3909090909090907,
                "end_time": 2.6227272727272726,
                "pitch": 60,
                "velocity": 64,
                "duration": 0.23181818181818192,
                "tempo": 120.0
            },
            {
                "start_time": 2.6568181818181817,
                "end_time": 2.8909090909090907,
                "pitch": 60,
                "velocity": 64,
                "duration": 0.2340909090909089,
                "tempo": 120.0
            },
            {
                "start_time": 2.9227272727272724,
                "end_time": 3.1568181818181817,
                "pitch": 60,
                "velocity": 64,
                "duration": 0.23409090909090935,
                "tempo": 120.0
            },
            {
                "start_time": 3.190909090909091,
                "end_time": 6.3159090909090905,
                "pitch": 65,
                "velocity": 64,
                "duration": 3.1249999999999996,
                "tempo": 120.0
            }
        ],
        "Acoustic Grand Piano": [
            {
                "start_time": 0.022727272727272728,
                "end_time": 0.22272727272727272,
                "pitch": 60,
                "velocity": 40,
                "duration": 0.19999999999999998,
                "tempo": 120.0
            },
            {
                "start_time": 0.2568181818181818,
                "end_time": 0.4909090909090909,
                "pitch": 60,
                "velocity": 40,
                "duration": 0.23409090909090913,
                "tempo": 120.0
            },
            {
                "start_time": 0.5227272727272727,
                "end_time": 0.7568181818181818,
                "pitch": 60,
                "velocity": 40,
                "duration": 0.23409090909090913,
                "tempo": 120.0
            },
            {
                "start_time": 0.7909090909090909,
                "end_time": 1.0227272727272727,
                "pitch": 65,
                "velocity": 40,
                "duration": 0.2318181818181818,
                "tempo": 120.0
            },
            {
                "start_time": 1.0568181818181817,
                "end_time": 1.2909090909090908,
                "pitch": 65,
                "velocity": 40,
                "duration": 0.23409090909090913,
                "tempo": 120.0
            },
            {
                "start_time": 1.3227272727272728,
                "end_time": 1.5568181818181817,
                "pitch": 65,
                "velocity": 40,
                "duration": 0.2340909090909089,
                "tempo": 120.0
            },
            {
                "start_time": 1.5909090909090908,
                "end_time": 1.8227272727272725,
                "pitch": 70,
                "velocity": 40,
                "duration": 0.2318181818181817,
                "tempo": 120.0
            },
            {
                "start_time": 1.8568181818181817,
                "end_time": 2.090909090909091,
                "pitch": 70,
                "velocity": 40,
                "duration": 0.23409090909090913,
                "tempo": 120.0
            },
            {
                "start_time": 2.1227272727272726,
                "end_time": 2.356818181818182,
                "pitch": 70,
                "velocity": 40,
                "duration": 0.23409090909090935,
                "tempo": 120.0
            },
            {
                "start_time": 2.3909090909090907,
                "end_time": 2.6227272727272726,
                "pitch": 69,
                "velocity": 40,
                "duration": 0.23181818181818192,
                "tempo": 120.0
            },
            {
                "start_time": 2.6568181818181817,
                "end_time": 2.8909090909090907,
                "pitch": 69,
                "velocity": 40,
                "duration": 0.2340909090909089,
                "tempo": 120.0
            },
            {
                "start_time": 2.9227272727272724,
                "end_time": 3.1568181818181817,
                "pitch": 69,
                "velocity": 40,
                "duration": 0.23409090909090935,
                "tempo": 120.0
            },
            {
                "start_time": 3.190909090909091,
                "end_time": 6.3159090909090905,
                "pitch": 72,
                "velocity": 40,
                "duration": 3.1249999999999996,
                "tempo": 120.0
            }
        ]
    }
}