{
    "track_id": "Double Dragon (FM) - 03 - Mission 2",
    "mood": "happy",
    "instruments": {
        "Trumpet": [
            {
                "start_time": 29.61590909090909,
                "end_time": 30.05909090909091,
                "pitch": 74,
                "velocity": 40,
                "duration": 0.4431818181818201,
                "tempo": 120.0
            },
            {
                "start_time": 30.075,
                "end_time": 30.511363636363633,
                "pitch": 75,
                "velocity": 40,
                "duration": 0.43636363636363384,
                "tempo": 120.0
            },
            {
                "start_time": 30.527272727272727,
                "end_time": 30.854545454545452,
                "pitch": 77,
                "velocity": 40,
                "duration": 0.3272727272727245,
                "tempo": 120.0
            },
            {
                "start_time": 30.870454545454542,
                "end_time": 30.952272727272724,
                "pitch": 79,
                "velocity": 40,
                "duration": 0.08181818181818201,
                "tempo": 120.0
            },
            {
                "start_time": 31.086363636363636,
                "end_time": 31.186363636363634,
                "pitch": 79,
                "velocity": 40,
                "duration": 0.09999999999999787,
                "tempo": 120.0
            },
            {
                "start_time": 31.202272727272724,
                "end_time": 31.302272727272726,
                "pitch": 79,
                "velocity": 40,
                "duration": 0.10000000000000142,
                "tempo": 120.0
            },
            {
                "start_time": 31.436363636363634,
                "end_time": 31.534090909090907,
                "pitch": 79,
                "velocity": 40,
                "duration": 0.09772727272727266,
                "tempo": 120.0
            },
            {
                "start_time": 31.66590909090909,
                "end_time": 31.74772727272727,
                "pitch": 77,
                "velocity": 40,
                "duration": 0.08181818181818201,
                "tempo": 120.0
            },
            {
                "start_time": 31.877272727272725,
                "end_time": 32.20454545454545,
                "pitch": 79,
                "velocity": 40,
                "duration": 0.32727272727272805,
                "tempo": 120.0
            },
            {
                "start_time": 32.22272727272727,
                "end_time": 32.320454545454545,
                "pitch": 79,
                "velocity": 40,
                "duration": 0.09772727272727622,
                "tempo": 120.0
            },
            {
                "start_time": 32.809090909090905,
                "end_time": 33.24090909090909,
                "pitch": 72,
                "velocity": 40,
                "duration": 0.431818181818187,
                "tempo": 120.0
            },
            {
                "start_time": 33.25681818181818,
                "end_time": 33.699999999999996,
                "pitch": 74,
                "velocity": 40,
                "duration": 0.443181818181813,
                "tempo": 120.0
            },
            {
                "start_time": 33.71818181818182,
                "end_time": 34.143181818181816,
                "pitch": 75,
                "velocity": 40,
                "duration": 0.42499999999999716,
                "tempo": 120.0
            },
            {
                "start_time": 34.17727272727272,
                "end_time": 34.502272727272725,
                "pitch": 77,
                "velocity": 40,
                "duration": 0.32500000000000284,
                "tempo": 120.0
            },
            {
                "start_time": 34.518181818181816,
                "end_time": 34.62045454545454,
                "pitch": 79,
                "velocity": 40,
                "duration": 0.10227272727272663,
                "tempo": 120.0
            },
            {
                "start_time": 34.752272727272725,
                "end_time": 34.85227272727273,
                "pitch": 79,
                "velocity": 40,
                "duration": 0.10000000000000142,
                "tempo": 120.0
            },
            {
                "start_time": 34.86818181818182,
                "end_time": 34.949999999999996,
                "pitch": 79,
                "velocity": 40,
                "duration": 0.08181818181817846,
                "tempo": 120.0
            },
            {
                "start_time": 35.07954545454545,
                "end_time": 35.17727272727272,
                "pitch": 79,
                "velocity": 40,
                "duration": 0.09772727272726911,
                "tempo": 120.0
            },
            {
                "start_time": 35.304545454545455,
                "end_time": 35.4,
                "pitch": 77,
                "velocity": 40,
                "duration": 0.0954545454545439,
                "tempo": 120.0
            },
            {
                "start_time": 35.527272727272724,
                "end_time": 35.85227272727273,
                "pitch": 79,
                "velocity": 40,
                "duration": 0.32500000000000284,
                "tempo": 120.0
            },
            {
                "start_time": 35.87045454545454,
                "end_time": 35.97272727272727,
                "pitch": 79,
                "velocity": 40,
                "duration": 0.10227272727272663,
                "tempo": 120.0
            },
            {
                "start_time": 40.22727272727273,
                "end_time": 40.324999999999996,
                "pitch": 84,
                "velocity": 51,
                "duration": 0.09772727272726911,
                "tempo": 120.0
            },
            {
                "start_time": 40.34318181818182,
                "end_time": 40.44090909090909,
                "pitch": 82,
                "velocity": 51,
                "duration": 0.09772727272726911,
                "tempo": 120.0
            },
            {
                "start_time": 40.45681818181818,
                "end_time": 40.554545454545455,
                "pitch": 79,
                "velocity": 51,
                "duration": 0.09772727272727622,
                "tempo": 120.0
            },
            {
                "start_time": 40.57272727272727,
                "end_time": 40.67727272727272,
                "pitch": 77,
                "velocity": 51,
                "duration": 0.10454545454545183,
                "tempo": 120.0
            },
            {
                "start_time": 40.695454545454545,
                "end_time": 40.78181818181818,
                "pitch": 75,
                "velocity": 51,
                "duration": 0.08636363636363598,
                "tempo": 120.0
            },
            {
                "start_time": 40.81590909090909,
                "end_time": 40.902272727272724,
                "pitch": 72,
                "velocity": 51,
                "duration": 0.08636363636363598,
                "tempo": 120.0
            },
            {
                "start_time": 40.92045454545455,
                "end_time": 41.025,
                "pitch": 70,
                "velocity": 51,
                "duration": 0.10454545454545183,
                "tempo": 120.0
            },
            {
                "start_time": 41.04090909090909,
                "end_time": 41.13863636363636,
                "pitch": 69,
                "velocity": 51,
                "duration": 0.09772727272726911,
                "tempo": 120.0
            },
            {
                "start_time": 41.154545454545456,
                "end_time": 41.25454545454545,
                "pitch": 68,
                "velocity": 51,
                "duration": 0.09999999999999432,
                "tempo": 120.0
            },
            {
                "start_time": 41.27045454545454,
                "end_time": 41.36818181818182,
                "pitch": 67,
                "velocity": 51,
                "duration": 0.09772727272727622,
                "tempo": 120.0
            },
            {
                "start_time": 41.38409090909091,
                "end_time": 41.48181818181818,
                "pitch": 66,
                "velocity": 51,
                "duration": 0.09772727272726911,
                "tempo": 120.0
            },
            {
                "start_time": 41.49772727272727,
                "end_time": 41.57954545454545,
                "pitch": 63,
                "velocity": 51,
                "duration": 0.08181818181818556,
                "tempo": 120.0
            },
            {
                "start_time": 41.61363636363636,
                "end_time": 41.89090909090909,
                "pitch": 64,
                "velocity": 51,
                "duration": 0.2772727272727309,
                "tempo": 120.0
            }
        ],
        "Lead 2 (sawtooth)": [
            {
                "start_time": 0.6681818181818181,
                "end_time": 0.7454545454545454,
                "pitch": 48,
                "velocity": 51,
                "duration": 0.07727272727272727,
                "tempo": 120.0
            },
            {
                "start_time": 0.7613636363636364,
                "end_time": 0.8568181818181818,
                "pitch": 48,
                "velocity": 51,
                "duration": 0.09545454545454546,
                "tempo": 120.0
            },
            {
                "start_time": 0.8704545454545454,
                "end_time": 0.9704545454545455,
                "pitch": 51,
                "velocity": 51,
                "duration": 0.10000000000000009,
                "tempo": 120.0
            },
            {
                "start_time": 0.9886363636363635,
                "end_time": 1.0886363636363636,
                "pitch": 53,
                "velocity": 51,
                "duration": 0.10000000000000009,
                "tempo": 120.0
            },
            {
                "start_time": 1.1045454545454545,
                "end_time": 1.2045454545454546,
                "pitch": 51,
                "velocity": 51,
                "duration": 0.10000000000000009,
                "tempo": 120.0
            },
            {
                "start_time": 1.3386363636363636,
                "end_time": 1.6568181818181817,
                "pitch": 77,
                "velocity": 51,
                "duration": 0.3181818181818181,
                "tempo": 120.0
            },
            {
                "start_time": 1.6727272727272726,
                "end_time": 1.775,
                "pitch": 77,
                "velocity": 51,
                "duration": 0.10227272727272729,
                "tempo": 120.0
            },
            {
                "start_time": 2.359090909090909,
                "end_time": 2.459090909090909,
                "pitch": 56,
                "velocity": 51,
                "duration": 0.10000000000000009,
                "tempo": 120.0
            },
            {
                "start_time": 2.477272727272727,
                "end_time": 2.577272727272727,
                "pitch": 58,
                "velocity": 51,
                "duration": 0.10000000000000009,
                "tempo": 120.0
            },
            {
                "start_time": 2.5931818181818183,
                "end_time": 2.693181818181818,
                "pitch": 56,
                "velocity": 51,
                "duration": 0.09999999999999964,
                "tempo": 120.0
            },
            {
                "start_time": 2.7113636363636364,
                "end_time": 2.809090909090909,
                "pitch": 60,
                "velocity": 51,
                "duration": 0.09772727272727266,
                "tempo": 120.0
            },
            {
                "start_time": 2.8249999999999997,
                "end_time": 2.9227272727272724,
                "pitch": 58,
                "velocity": 51,
                "duration": 0.09772727272727266,
                "tempo": 120.0
            },
            {
                "start_time": 2.9386363636363635,
                "end_time": 3.0204545454545455,
                "pitch": 56,
                "velocity": 51,
                "duration": 0.08181818181818201,
                "tempo": 120.0
            },
            {
                "start_time": 3.0545454545454542,
                "end_time": 3.1363636363636362,
                "pitch": 53,
                "velocity": 51,
                "duration": 0.08181818181818201,
                "tempo": 120.0
            },
            {
                "start_time": 3.1522727272727273,
                "end_time": 3.25,
                "pitch": 55,
                "velocity": 51,
                "duration": 0.09772727272727266,
                "tempo": 120.0
            },
            {
                "start_time": 3.2659090909090907,
                "end_time": 3.593181818181818,
                "pitch": 51,
                "velocity": 51,
                "duration": 0.32727272727272716,
                "tempo": 120.0
            },
            {
                "start_time": 4.302272727272727,
                "end_time": 4.3999999999999995,
                "pitch": 48,
                "velocity": 51,
                "duration": 0.09772727272727266,
                "tempo": 120.0
            },
            {
                "start_time": 4.415909090909091,
                "end_time": 4.513636363636364,
                "pitch": 48,
                "velocity": 51,
                "duration": 0.09772727272727266,
                "tempo": 120.0
            },
            {
                "start_time": 4.529545454545454,
                "end_time": 4.613636363636363,
                "pitch": 51,
                "velocity": 51,
                "duration": 0.084090909090909,
                "tempo": 120.0
            },
            {
                "start_time": 4.6477272727272725,
                "end_time": 4.7318181818181815,
                "pitch": 53,
                "velocity": 51,
                "duration": 0.084090909090909,
                "tempo": 120.0
            },
            {
                "start_time": 4.747727272727272,
                "end_time": 4.847727272727273,
                "pitch": 51,
                "velocity": 51,
                "duration": 0.10000000000000053,
                "tempo": 120.0
            },
            {
                "start_time": 4.9818181818181815,
                "end_time": 5.309090909090909,
                "pitch": 77,
                "velocity": 51,
                "duration": 0.32727272727272716,
                "tempo": 120.0
            },
            {
                "start_time": 5.325,
                "end_time": 5.406818181818181,
                "pitch": 77,
                "velocity": 51,
                "duration": 0.08181818181818112,
                "tempo": 120.0
            },
            {
                "start_time": 6.0249999999999995,
                "end_time": 6.120454545454545,
                "pitch": 56,
                "velocity": 51,
                "duration": 0.09545454545454568,
                "tempo": 120.0
            },
            {
                "start_time": 6.136363636363636,
                "end_time": 6.215909090909091,
                "pitch": 58,
                "velocity": 51,
                "duration": 0.07954545454545503,
                "tempo": 120.0
            },
            {
                "start_time": 6.247727272727272,
                "end_time": 6.327272727272727,
                "pitch": 56,
                "velocity": 51,
                "duration": 0.07954545454545503,
                "tempo": 120.0
            },
            {
                "start_time": 6.343181818181818,
                "end_time": 6.4431818181818175,
                "pitch": 60,
                "velocity": 51,
                "duration": 0.09999999999999964,
                "tempo": 120.0
            },
            {
                "start_time": 6.459090909090909,
                "end_time": 6.556818181818182,
                "pitch": 58,
                "velocity": 51,
                "duration": 0.09772727272727266,
                "tempo": 120.0
            },
            {
                "start_time": 6.572727272727272,
                "end_time": 6.670454545454545,
                "pitch": 56,
                "velocity": 51,
                "duration": 0.09772727272727266,
                "tempo": 120.0
            },
            {
                "start_time": 6.6886363636363635,
                "end_time": 6.786363636363636,
                "pitch": 53,
                "velocity": 51,
                "duration": 0.09772727272727266,
                "tempo": 120.0
            },
            {
                "start_time": 6.802272727272727,
                "end_time": 6.902272727272727,
                "pitch": 55,
                "velocity": 51,
                "duration": 0.10000000000000053,
                "tempo": 120.0
            },
            {
                "start_time": 6.918181818181818,
                "end_time": 7.236363636363636,
                "pitch": 51,
                "velocity": 51,
                "duration": 0.31818181818181834,
                "tempo": 120.0
            },
            {
                "start_time": 7.9386363636363635,
                "end_time": 8.040909090909091,
                "pitch": 48,
                "velocity": 51,
                "duration": 0.10227272727272751,
                "tempo": 120.0
            },
            {
                "start_time": 8.056818181818182,
                "end_time": 8.156818181818181,
                "pitch": 48,
                "velocity": 51,
                "duration": 0.09999999999999964,
                "tempo": 120.0
            },
            {
                "start_time": 8.172727272727272,
                "end_time": 8.272727272727272,
                "pitch": 51,
                "velocity": 51,
                "duration": 0.09999999999999964,
                "tempo": 120.0
            },
            {
                "start_time": 8.288636363636364,
                "end_time": 8.386363636363637,
                "pitch": 53,
                "velocity": 51,
                "duration": 0.09772727272727266,
                "tempo": 120.0
            },
            {
                "start_time": 8.402272727272727,
                "end_time": 8.5,
                "pitch": 51,
                "velocity": 51,
                "duration": 0.09772727272727266,
                "tempo": 120.0
            },
            {
                "start_time": 8.631818181818181,
                "end_time": 8.956818181818182,
                "pitch": 77,
                "velocity": 51,
                "duration": 0.32500000000000107,
                "tempo": 120.0
            },
            {
                "start_time": 8.972727272727273,
                "end_time": 9.077272727272726,
                "pitch": 77,
                "velocity": 51,
                "duration": 0.10454545454545361,
                "tempo": 120.0
            },
            {
                "start_time": 9.656818181818181,
                "end_time": 9.754545454545454,
                "pitch": 56,
                "velocity": 51,
                "duration": 0.09772727272727266,
                "tempo": 120.0
            },
            {
                "start_time": 9.770454545454545,
                "end_time": 9.86590909090909,
                "pitch": 58,
                "velocity": 51,
                "duration": 0.09545454545454568,
                "tempo": 120.0
            },
            {
                "start_time": 9.881818181818181,
                "end_time": 9.977272727272727,
                "pitch": 56,
                "velocity": 51,
                "duration": 0.09545454545454568,
                "tempo": 120.0
            },
            {
                "start_time": 9.993181818181817,
                "end_time": 10.093181818181817,
                "pitch": 60,
                "velocity": 51,
                "duration": 0.09999999999999964,
                "tempo": 120.0
            },
            {
                "start_time": 10.111363636363636,
                "end_time": 10.193181818181818,
                "pitch": 58,
                "velocity": 51,
                "duration": 0.08181818181818201,
                "tempo": 120.0
            },
            {
                "start_time": 10.227272727272727,
                "end_time": 10.311363636363636,
                "pitch": 56,
                "velocity": 51,
                "duration": 0.084090909090909,
                "tempo": 120.0
            },
            {
                "start_time": 10.327272727272726,
                "end_time": 10.429545454545455,
                "pitch": 53,
                "velocity": 51,
                "duration": 0.1022727272727284,
                "tempo": 120.0
            },
            {
                "start_time": 10.445454545454545,
                "end_time": 10.543181818181818,
                "pitch": 55,
                "velocity": 51,
                "duration": 0.09772727272727266,
                "tempo": 120.0
            },
            {
                "start_time": 10.559090909090909,
                "end_time": 10.886363636363637,
                "pitch": 51,
                "velocity": 51,
                "duration": 0.32727272727272805,
                "tempo": 120.0
            },
            {
                "start_time": 11.6,
                "end_time": 11.695454545454545,
                "pitch": 48,
                "velocity": 51,
                "duration": 0.09545454545454568,
                "tempo": 120.0
            },
            {
                "start_time": 11.711363636363636,
                "end_time": 11.790909090909091,
                "pitch": 48,
                "velocity": 51,
                "duration": 0.07954545454545503,
                "tempo": 120.0
            },
            {
                "start_time": 11.822727272727272,
                "end_time": 11.909090909090908,
                "pitch": 51,
                "velocity": 51,
                "duration": 0.08636363636363598,
                "tempo": 120.0
            },
            {
                "start_time": 11.924999999999999,
                "end_time": 12.029545454545454,
                "pitch": 53,
                "velocity": 51,
                "duration": 0.10454545454545539,
                "tempo": 120.0
            },
            {
                "start_time": 12.045454545454545,
                "end_time": 12.147727272727272,
                "pitch": 51,
                "velocity": 51,
                "duration": 0.10227272727272663,
                "tempo": 120.0
            },
            {
                "start_time": 12.286363636363635,
                "end_time": 12.595454545454546,
                "pitch": 77,
                "velocity": 51,
                "duration": 0.3090909090909104,
                "tempo": 120.0
            },
            {
                "start_time": 12.629545454545454,
                "end_time": 12.711363636363636,
                "pitch": 77,
                "velocity": 51,
                "duration": 0.08181818181818201,
                "tempo": 120.0
            },
            {
                "start_time": 13.311363636363636,
                "end_time": 13.395454545454545,
                "pitch": 56,
                "velocity": 51,
                "duration": 0.084090909090909,
                "tempo": 120.0
            },
            {
                "start_time": 13.429545454545455,
                "end_time": 13.513636363636364,
                "pitch": 58,
                "velocity": 51,
                "duration": 0.084090909090909,
                "tempo": 120.0
            },
            {
                "start_time": 13.529545454545454,
                "end_time": 13.629545454545454,
                "pitch": 56,
                "velocity": 51,
                "duration": 0.09999999999999964,
                "tempo": 120.0
            },
            {
                "start_time": 13.647727272727272,
                "end_time": 13.743181818181817,
                "pitch": 60,
                "velocity": 51,
                "duration": 0.09545454545454568,
                "tempo": 120.0
            },
            {
                "start_time": 13.759090909090908,
                "end_time": 13.854545454545454,
                "pitch": 58,
                "velocity": 51,
                "duration": 0.09545454545454568,
                "tempo": 120.0
            },
            {
                "start_time": 13.870454545454544,
                "end_time": 13.96590909090909,
                "pitch": 56,
                "velocity": 51,
                "duration": 0.09545454545454568,
                "tempo": 120.0
            },
            {
                "start_time": 13.98181818181818,
                "end_time": 14.079545454545453,
                "pitch": 53,
                "velocity": 51,
                "duration": 0.09772727272727266,
                "tempo": 120.0
            },
            {
                "start_time": 14.095454545454544,
                "end_time": 14.179545454545455,
                "pitch": 55,
                "velocity": 51,
                "duration": 0.08409090909091077,
                "tempo": 120.0
            },
            {
                "start_time": 14.213636363636363,
                "end_time": 14.538636363636362,
                "pitch": 51,
                "velocity": 51,
                "duration": 0.3249999999999993,
                "tempo": 120.0
            }
        ],
        "Electric Guitar (clean)": [
            {
                "start_time": 0.013636363636363636,
                "end_time": 0.3159090909090909,
                "pitch": 41,
                "velocity": 64,
                "duration": 0.3022727272727273,
                "tempo": 120.0
            },
            {
                "start_time": 0.3318181818181818,
                "end_time": 0.4318181818181818,
                "pitch": 41,
                "velocity": 64,
                "duration": 0.10000000000000003,
                "tempo": 120.0
            },
            {
                "start_time": 1.6727272727272726,
                "end_time": 1.775,
                "pitch": 39,
                "velocity": 64,
                "duration": 0.10227272727272729,
                "tempo": 120.0
            },
            {
                "start_time": 1.7909090909090908,
                "end_time": 2.125,
                "pitch": 41,
                "velocity": 64,
                "duration": 0.3340909090909092,
                "tempo": 120.0
            },
            {
                "start_time": 2.1409090909090907,
                "end_time": 2.225,
                "pitch": 41,
                "velocity": 64,
                "duration": 0.08409090909090944,
                "tempo": 120.0
            },
            {
                "start_time": 3.609090909090909,
                "end_time": 3.934090909090909,
                "pitch": 41,
                "velocity": 64,
                "duration": 0.3250000000000002,
                "tempo": 120.0
            },
            {
                "start_time": 3.952272727272727,
                "end_time": 4.054545454545455,
                "pitch": 41,
                "velocity": 64,
                "duration": 0.10227272727272751,
                "tempo": 120.0
            },
            {
                "start_time": 5.325,
                "end_time": 5.406818181818181,
                "pitch": 39,
                "velocity": 64,
                "duration": 0.08181818181818112,
                "tempo": 120.0
            },
            {
                "start_time": 5.4386363636363635,
                "end_time": 5.7727272727272725,
                "pitch": 41,
                "velocity": 64,
                "duration": 0.334090909090909,
                "tempo": 120.0
            },
            {
                "start_time": 5.788636363636363,
                "end_time": 5.8954545454545455,
                "pitch": 41,
                "velocity": 64,
                "duration": 0.10681818181818237,
                "tempo": 120.0
            },
            {
                "start_time": 7.254545454545454,
                "end_time": 7.588636363636363,
                "pitch": 41,
                "velocity": 64,
                "duration": 0.334090909090909,
                "tempo": 120.0
            },
            {
                "start_time": 7.6045454545454545,
                "end_time": 7.704545454545454,
                "pitch": 41,
                "velocity": 64,
                "duration": 0.09999999999999964,
                "tempo": 120.0
            },
            {
                "start_time": 8.972727272727273,
                "end_time": 9.077272727272726,
                "pitch": 39,
                "velocity": 64,
                "duration": 0.10454545454545361,
                "tempo": 120.0
            },
            {
                "start_time": 9.093181818181817,
                "end_time": 9.411363636363635,
                "pitch": 41,
                "velocity": 64,
                "duration": 0.31818181818181834,
                "tempo": 120.0
            },
            {
                "start_time": 9.445454545454545,
                "end_time": 9.529545454545454,
                "pitch": 41,
                "velocity": 64,
                "duration": 0.084090909090909,
                "tempo": 120.0
            },
            {
                "start_time": 10.902272727272727,
                "end_time": 11.23409090909091,
                "pitch": 41,
                "velocity": 64,
                "duration": 0.331818181818182,
                "tempo": 120.0
            },
            {
                "start_time": 11.252272727272727,
                "end_time": 11.35909090909091,
                "pitch": 41,
                "velocity": 64,
                "duration": 0.10681818181818237,
                "tempo": 120.0
            },
            {
                "start_time": 12.629545454545454,
                "end_time": 12.711363636363636,
                "pitch": 39,
                "velocity": 64,
                "duration": 0.08181818181818201,
                "tempo": 120.0
            },
            {
                "start_time": 12.727272727272727,
                "end_time": 13.061363636363636,
                "pitch": 41,
                "velocity": 64,
                "duration": 0.334090909090909,
                "tempo": 120.0
            },
            {
                "start_time": 13.077272727272726,
                "end_time": 13.177272727272726,
                "pitch": 41,
                "velocity": 64,
                "duration": 0.09999999999999964,
                "tempo": 120.0
            },
            {
                "start_time": 14.556818181818182,
                "end_time": 14.89090909090909,
                "pitch": 41,
                "velocity": 64,
                "duration": 0.334090909090909,
                "tempo": 120.0
            },
            {
                "start_time": 14.909090909090908,
                "end_time": 14.99090909090909,
                "pitch": 41,
                "velocity": 64,
                "duration": 0.08181818181818201,
                "tempo": 120.0
            },
            {
                "start_time": 16.259090909090908,
                "end_time": 16.35909090909091,
                "pitch": 39,
                "velocity": 64,
                "duration": 0.10000000000000142,
                "tempo": 120.0
            },
            {
                "start_time": 16.377272727272725,
                "end_time": 16.702272727272728,
                "pitch": 41,
                "velocity": 64,
                "duration": 0.32500000000000284,
                "tempo": 120.0
            },
            {
                "start_time": 16.71818181818182,
                "end_time": 16.820454545454545,
                "pitch": 41,
                "velocity": 64,
                "duration": 0.10227272727272663,
                "tempo": 120.0
            },
            {
                "start_time": 18.206818181818182,
                "end_time": 18.538636363636364,
                "pitch": 41,
                "velocity": 64,
                "duration": 0.331818181818182,
                "tempo": 120.0
            },
            {
                "start_time": 18.55681818181818,
                "end_time": 18.661363636363635,
                "pitch": 41,
                "velocity": 64,
                "duration": 0.10454545454545539,
                "tempo": 120.0
            },
            {
                "start_time": 19.9,
                "end_time": 20.004545454545454,
                "pitch": 39,
                "velocity": 64,
                "duration": 0.10454545454545539,
                "tempo": 120.0
            },
            {
                "start_time": 20.020454545454545,
                "end_time": 20.363636363636363,
                "pitch": 41,
                "velocity": 64,
                "duration": 0.3431818181818187,
                "tempo": 120.0
            },
            {
                "start_time": 20.379545454545454,
                "end_time": 20.48409090909091,
                "pitch": 41,
                "velocity": 64,
                "duration": 0.10454545454545539,
                "tempo": 120.0
            },
            {
                "start_time": 21.861363636363635,
                "end_time": 22.179545454545455,
                "pitch": 41,
                "velocity": 64,
                "duration": 0.3181818181818201,
                "tempo": 120.0
            },
            {
                "start_time": 22.21363636363636,
                "end_time": 22.297727272727272,
                "pitch": 41,
                "velocity": 64,
                "duration": 0.08409090909091077,
                "tempo": 120.0
            },
            {
                "start_time": 23.55681818181818,
                "end_time": 23.654545454545453,
                "pitch": 39,
                "velocity": 64,
                "duration": 0.09772727272727266,
                "tempo": 120.0
            },
            {
                "start_time": 23.670454545454543,
                "end_time": 24.004545454545454,
                "pitch": 41,
                "velocity": 64,
                "duration": 0.33409090909091077,
                "tempo": 120.0
            },
            {
                "start_time": 24.020454545454545,
                "end_time": 24.127272727272725,
                "pitch": 41,
                "velocity": 64,
                "duration": 0.10681818181818059,
                "tempo": 120.0
            },
            {
                "start_time": 25.495454545454542,
                "end_time": 25.829545454545453,
                "pitch": 41,
                "velocity": 64,
                "duration": 0.33409090909091077,
                "tempo": 120.0
            },
            {
                "start_time": 25.845454545454544,
                "end_time": 25.94772727272727,
                "pitch": 41,
                "velocity": 64,
                "duration": 0.10227272727272663,
                "tempo": 120.0
            },
            {
                "start_time": 27.204545454545453,
                "end_time": 27.30681818181818,
                "pitch": 39,
                "velocity": 64,
                "duration": 0.10227272727272663,
                "tempo": 120.0
            },
            {
                "start_time": 27.325,
                "end_time": 27.659090909090907,
                "pitch": 41,
                "velocity": 64,
                "duration": 0.3340909090909072,
                "tempo": 120.0
            },
            {
                "start_time": 27.677272727272726,
                "end_time": 27.759090909090908,
                "pitch": 41,
                "velocity": 64,
                "duration": 0.08181818181818201,
                "tempo": 120.0
            },
            {
                "start_time": 29.145454545454545,
                "end_time": 29.599999999999998,
                "pitch": 41,
                "velocity": 64,
                "duration": 0.45454545454545325,
                "tempo": 120.0
            },
            {
                "start_time": 29.61590909090909,
                "end_time": 30.05909090909091,
                "pitch": 43,
                "velocity": 64,
                "duration": 0.4431818181818201,
                "tempo": 120.0
            },
            {
                "start_time": 30.075,
                "end_time": 30.511363636363633,
                "pitch": 44,
                "velocity": 64,
                "duration": 0.43636363636363384,
                "tempo": 120.0
            },
            {
                "start_time": 30.527272727272727,
                "end_time": 30.854545454545452,
                "pitch": 46,
                "velocity": 64,
                "duration": 0.3272727272727245,
                "tempo": 120.0
            },
            {
                "start_time": 30.870454545454542,
                "end_time": 30.952272727272724,
                "pitch": 48,
                "velocity": 64,
                "duration": 0.08181818181818201,
                "tempo": 120.0
            },
            {
                "start_time": 31.086363636363636,
                "end_time": 31.186363636363634,
                "pitch": 48,
                "velocity": 64,
                "duration": 0.09999999999999787,
                "tempo": 120.0
            },
            {
                "start_time": 31.202272727272724,
                "end_time": 31.302272727272726,
                "pitch": 48,
                "velocity": 64,
                "duration": 0.10000000000000142,
                "tempo": 120.0
            },
            {
                "start_time": 31.436363636363634,
                "end_time": 31.534090909090907,
                "pitch": 48,
                "velocity": 64,
                "duration": 0.09772727272727266,
                "tempo": 120.0
            },
            {
                "start_time": 31.66590909090909,
                "end_time": 31.74772727272727,
                "pitch": 46,
                "velocity": 64,
                "duration": 0.08181818181818201,
                "tempo": 120.0
            },
            {
                "start_time": 31.877272727272725,
                "end_time": 32.20454545454545,
                "pitch": 48,
                "velocity": 64,
                "duration": 0.32727272727272805,
                "tempo": 120.0
            },
            {
                "start_time": 32.22272727272727,
                "end_time": 32.320454545454545,
                "pitch": 48,
                "velocity": 64,
                "duration": 0.09772727272727622,
                "tempo": 120.0
            },
            {
                "start_time": 32.809090909090905,
                "end_time": 33.24090909090909,
                "pitch": 41,
                "velocity": 64,
                "duration": 0.431818181818187,
                "tempo": 120.0
            },
            {
                "start_time": 33.25681818181818,
                "end_time": 33.699999999999996,
                "pitch": 43,
                "velocity": 64,
                "duration": 0.443181818181813,
                "tempo": 120.0
            },
            {
                "start_time": 33.71818181818182,
                "end_time": 34.143181818181816,
                "pitch": 44,
                "velocity": 64,
                "duration": 0.42499999999999716,
                "tempo": 120.0
            },
            {
                "start_time": 34.17727272727272,
                "end_time": 34.502272727272725,
                "pitch": 46,
                "velocity": 64,
                "duration": 0.32500000000000284,
                "tempo": 120.0
            },
            {
                "start_time": 34.518181818181816,
                "end_time": 34.62045454545454,
                "pitch": 48,
                "velocity": 64,
                "duration": 0.10227272727272663,
                "tempo": 120.0
            },
            {
                "start_time": 34.752272727272725,
                "end_time": 34.85227272727273,
                "pitch": 48,
                "velocity": 64,
                "duration": 0.10000000000000142,
                "tempo": 120.0
            },
            {
                "start_time": 34.86818181818182,
                "end_time": 34.949999999999996,
                "pitch": 48,
                "velocity": 64,
                "duration": 0.08181818181817846,
                "tempo": 120.0
            },
            {
                "start_time": 35.07954545454545,
                "end_time": 35.17727272727272,
                "pitch": 48,
                "velocity": 64,
                "duration": 0.09772727272726911,
                "tempo": 120.0
            },
            {
                "start_time": 35.304545454545455,
                "end_time": 35.4,
                "pitch": 46,
                "velocity": 64,
                "duration": 0.0954545454545439,
                "tempo": 120.0
            },
            {
                "start_time": 35.527272727272724,
                "end_time": 35.85227272727273,
                "pitch": 48,
                "velocity": 64,
                "duration": 0.32500000000000284,
                "tempo": 120.0
            },
            {
                "start_time": 35.87045454545454,
                "end_time": 35.97272727272727,
                "pitch": 48,
                "velocity": 64,
                "duration": 0.10227272727272663,
                "tempo": 120.0
            },
            {
                "start_time": 36.45909090909091,
                "end_time": 36.893181818181816,
                "pitch": 41,
                "velocity": 64,
                "duration": 0.4340909090909051,
                "tempo": 120.0
            },
            {
                "start_time": 36.91136363636363,
                "end_time": 37.32727272727273,
                "pitch": 43,
                "velocity": 64,
                "duration": 0.41590909090909634,
                "tempo": 120.0
            },
            {
                "start_time": 37.35909090909091,
                "end_time": 37.793181818181814,
                "pitch": 44,
                "velocity": 64,
                "duration": 0.4340909090909051,
                "tempo": 120.0
            },
            {
                "start_time": 37.809090909090905,
                "end_time": 38.12045454545454,
                "pitch": 46,
                "velocity": 64,
                "duration": 0.3113636363636374,
                "tempo": 120.0
            },
            {
                "start_time": 38.152272727272724,
                "end_time": 40.06363636363636,
                "pitch": 48,
                "velocity": 64,
                "duration": 1.9113636363636388,
                "tempo": 120.0
            },
            {
                "start_time": 40.195454545454545,
                "end_time": 40.293181818181814,
                "pitch": 48,
                "velocity": 64,
                "duration": 0.09772727272726911,
                "tempo": 120.0
            },
            {
                "start_time": 40.309090909090905,
                "end_time": 40.40681818181818,
                "pitch": 46,
                "velocity": 64,
                "duration": 0.09772727272727622,
                "tempo": 120.0
            },
            {
                "start_time": 40.425,
                "end_time": 40.50681818181818,
                "pitch": 43,
                "velocity": 64,
                "duration": 0.08181818181818556,
                "tempo": 120.0
            },
            {
                "start_time": 40.538636363636364,
                "end_time": 40.625,
                "pitch": 41,
                "velocity": 64,
                "duration": 0.08636363636363598,
                "tempo": 120.0
            },
            {
                "start_time": 40.643181818181816,
                "end_time": 40.74772727272727,
                "pitch": 39,
                "velocity": 64,
                "duration": 0.10454545454545183,
                "tempo": 120.0
            },
            {
                "start_time": 40.76363636363636,
                "end_time": 40.86818181818182,
                "pitch": 36,
                "velocity": 64,
                "duration": 0.10454545454545894,
                "tempo": 120.0
            },
            {
                "start_time": 40.88636363636363,
                "end_time": 40.99090909090909,
                "pitch": 34,
                "velocity": 64,
                "duration": 0.10454545454545894,
                "tempo": 120.0
            },
            {
                "start_time": 41.00681818181818,
                "end_time": 41.10681818181818,
                "pitch": 33,
                "velocity": 64,
                "duration": 0.09999999999999432,
                "tempo": 120.0
            },
            {
                "start_time": 41.12272727272727,
                "end_time": 41.220454545454544,
                "pitch": 32,
                "velocity": 64,
                "duration": 0.09772727272727622,
                "tempo": 120.0
            },
            {
                "start_time": 41.236363636363635,
                "end_time": 41.31818181818181,
                "pitch": 31,
                "velocity": 64,
                "duration": 0.08181818181817846,
                "tempo": 120.0
            },
            {
                "start_time": 41.35227272727273,
                "end_time": 41.434090909090905,
                "pitch": 30,
                "velocity": 64,
                "duration": 0.08181818181817846,
                "tempo": 120.0
            },
            {
                "start_time": 41.449999999999996,
                "end_time": 41.54772727272727,
                "pitch": 27,
                "velocity": 64,
                "duration": 0.09772727272727622,
                "tempo": 120.0
            },
            {
                "start_time": 41.56363636363636,
                "end_time": 41.89090909090909,
                "pitch": 28,
                "velocity": 64,
                "duration": 0.32727272727272805,
                "tempo": 120.0
            },
            {
                "start_time": 41.90681818181818,
                "end_time": 42.15,
                "pitch": 41,
                "velocity": 64,
                "duration": 0.24318181818181728,
                "tempo": 120.0
            }
        ],
        "Oboe": [
            {
                "start_time": 0.013636363636363636,
                "end_time": 0.08181818181818182,
                "pitch": 53,
                "velocity": 64,
                "duration": 0.06818181818181818,
                "tempo": 120.0
            },
            {
                "start_time": 0.09772727272727272,
                "end_time": 0.19772727272727272,
                "pitch": 53,
                "velocity": 64,
                "duration": 0.1,
                "tempo": 120.0
            },
            {
                "start_time": 0.2159090909090909,
                "end_time": 0.3159090909090909,
                "pitch": 51,
                "velocity": 64,
                "duration": 0.1,
                "tempo": 120.0
            },
            {
                "start_time": 0.44999999999999996,
                "end_time": 0.5431818181818182,
                "pitch": 53,
                "velocity": 64,
                "duration": 0.09318181818181825,
                "tempo": 120.0
            },
            {
                "start_time": 0.6681818181818181,
                "end_time": 0.7454545454545454,
                "pitch": 51,
                "velocity": 64,
                "duration": 0.07727272727272727,
                "tempo": 120.0
            },
            {
                "start_time": 0.8704545454545454,
                "end_time": 0.9704545454545455,
                "pitch": 53,
                "velocity": 64,
                "duration": 0.10000000000000009,
                "tempo": 120.0
            },
            {
                "start_time": 1.1045454545454545,
                "end_time": 1.2045454545454546,
                "pitch": 51,
                "velocity": 64,
                "duration": 0.10000000000000009,
                "tempo": 120.0
            },
            {
                "start_time": 1.3386363636363636,
                "end_time": 1.6568181818181817,
                "pitch": 53,
                "velocity": 64,
                "duration": 0.3181818181818181,
                "tempo": 120.0
            },
            {
                "start_time": 1.6727272727272726,
                "end_time": 1.775,
                "pitch": 53,
                "velocity": 64,
                "duration": 0.10227272727272729,
                "tempo": 120.0
            },
            {
                "start_time": 1.9068181818181817,
                "end_time": 2.009090909090909,
                "pitch": 53,
                "velocity": 64,
                "duration": 0.10227272727272707,
                "tempo": 120.0
            },
            {
                "start_time": 2.025,
                "end_time": 2.125,
                "pitch": 51,
                "velocity": 64,
                "duration": 0.10000000000000009,
                "tempo": 120.0
            },
            {
                "start_time": 2.259090909090909,
                "end_time": 2.3431818181818183,
                "pitch": 53,
                "velocity": 64,
                "duration": 0.08409090909090944,
                "tempo": 120.0
            },
            {
                "start_time": 2.477272727272727,
                "end_time": 2.577272727272727,
                "pitch": 51,
                "velocity": 64,
                "duration": 0.10000000000000009,
                "tempo": 120.0
            },
            {
                "start_time": 2.7113636363636364,
                "end_time": 2.809090909090909,
                "pitch": 53,
                "velocity": 64,
                "duration": 0.09772727272727266,
                "tempo": 120.0
            },
            {
                "start_time": 2.9386363636363635,
                "end_time": 3.0204545454545455,
                "pitch": 51,
                "velocity": 64,
                "duration": 0.08181818181818201,
                "tempo": 120.0
            },
            {
                "start_time": 3.1522727272727273,
                "end_time": 3.593181818181818,
                "pitch": 53,
                "velocity": 64,
                "duration": 0.4409090909090905,
                "tempo": 120.0
            },
            {
                "start_time": 3.609090909090909,
                "end_time": 3.711363636363636,
                "pitch": 53,
                "velocity": 64,
                "duration": 0.10227272727272707,
                "tempo": 120.0
            },
            {
                "start_time": 3.7295454545454545,
                "end_time": 3.815909090909091,
                "pitch": 53,
                "velocity": 64,
                "duration": 0.08636363636363642,
                "tempo": 120.0
            },
            {
                "start_time": 3.8499999999999996,
                "end_time": 3.934090909090909,
                "pitch": 51,
                "velocity": 64,
                "duration": 0.08409090909090944,
                "tempo": 120.0
            },
            {
                "start_time": 4.072727272727272,
                "end_time": 4.170454545454545,
                "pitch": 53,
                "velocity": 64,
                "duration": 0.09772727272727266,
                "tempo": 120.0
            },
            {
                "start_time": 4.302272727272727,
                "end_time": 4.3999999999999995,
                "pitch": 51,
                "velocity": 64,
                "duration": 0.09772727272727266,
                "tempo": 120.0
            },
            {
                "start_time": 4.529545454545454,
                "end_time": 4.613636363636363,
                "pitch": 53,
                "velocity": 64,
                "duration": 0.084090909090909,
                "tempo": 120.0
            },
            {
                "start_time": 4.747727272727272,
                "end_time": 4.847727272727273,
                "pitch": 51,
                "velocity": 64,
                "duration": 0.10000000000000053,
                "tempo": 120.0
            },
            {
                "start_time": 4.9818181818181815,
                "end_time": 5.309090909090909,
                "pitch": 53,
                "velocity": 64,
                "duration": 0.32727272727272716,
                "tempo": 120.0
            },
            {
                "start_time": 5.325,
                "end_time": 5.406818181818181,
                "pitch": 53,
                "velocity": 64,
                "duration": 0.08181818181818112,
                "tempo": 120.0
            },
            {
                "start_time": 5.543181818181818,
                "end_time": 5.6499999999999995,
                "pitch": 53,
                "velocity": 64,
                "duration": 0.10681818181818148,
                "tempo": 120.0
            },
            {
                "start_time": 5.665909090909091,
                "end_time": 5.7727272727272725,
                "pitch": 51,
                "velocity": 64,
                "duration": 0.10681818181818148,
                "tempo": 120.0
            },
            {
                "start_time": 5.911363636363636,
                "end_time": 6.009090909090909,
                "pitch": 53,
                "velocity": 64,
                "duration": 0.09772727272727266,
                "tempo": 120.0
            },
            {
                "start_time": 6.136363636363636,
                "end_time": 6.215909090909091,
                "pitch": 51,
                "velocity": 64,
                "duration": 0.07954545454545503,
                "tempo": 120.0
            },
            {
                "start_time": 6.343181818181818,
                "end_time": 6.4431818181818175,
                "pitch": 53,
                "velocity": 64,
                "duration": 0.09999999999999964,
                "tempo": 120.0
            },
            {
                "start_time": 6.572727272727272,
                "end_time": 6.670454545454545,
                "pitch": 51,
                "velocity": 64,
                "duration": 0.09772727272727266,
                "tempo": 120.0
            },
            {
                "start_time": 6.802272727272727,
                "end_time": 7.236363636363636,
                "pitch": 53,
                "velocity": 64,
                "duration": 0.4340909090909095,
                "tempo": 120.0
            },
            {
                "start_time": 7.254545454545454,
                "end_time": 7.3545454545454545,
                "pitch": 53,
                "velocity": 64,
                "duration": 0.10000000000000053,
                "tempo": 120.0
            },
            {
                "start_time": 7.370454545454545,
                "end_time": 7.470454545454545,
                "pitch": 53,
                "velocity": 64,
                "duration": 0.09999999999999964,
                "tempo": 120.0
            },
            {
                "start_time": 7.488636363636363,
                "end_time": 7.588636363636363,
                "pitch": 51,
                "velocity": 64,
                "duration": 0.09999999999999964,
                "tempo": 120.0
            },
            {
                "start_time": 7.722727272727273,
                "end_time": 7.804545454545454,
                "pitch": 53,
                "velocity": 64,
                "duration": 0.08181818181818112,
                "tempo": 120.0
            },
            {
                "start_time": 7.9386363636363635,
                "end_time": 8.040909090909091,
                "pitch": 51,
                "velocity": 64,
                "duration": 0.10227272727272751,
                "tempo": 120.0
            },
            {
                "start_time": 8.172727272727272,
                "end_time": 8.272727272727272,
                "pitch": 53,
                "velocity": 64,
                "duration": 0.09999999999999964,
                "tempo": 120.0
            },
            {
                "start_time": 8.402272727272727,
                "end_time": 8.5,
                "pitch": 51,
                "velocity": 64,
                "duration": 0.09772727272727266,
                "tempo": 120.0
            },
            {
                "start_time": 8.631818181818181,
                "end_time": 8.956818181818182,
                "pitch": 53,
                "velocity": 64,
                "duration": 0.32500000000000107,
                "tempo": 120.0
            },
            {
                "start_time": 8.972727272727273,
                "end_time": 9.077272727272726,
                "pitch": 53,
                "velocity": 64,
                "duration": 0.10454545454545361,
                "tempo": 120.0
            },
            {
                "start_time": 9.211363636363636,
                "end_time": 9.311363636363636,
                "pitch": 53,
                "velocity": 64,
                "duration": 0.09999999999999964,
                "tempo": 120.0
            },
            {
                "start_time": 9.327272727272726,
                "end_time": 9.411363636363635,
                "pitch": 51,
                "velocity": 64,
                "duration": 0.084090909090909,
                "tempo": 120.0
            },
            {
                "start_time": 9.545454545454545,
                "end_time": 9.64090909090909,
                "pitch": 53,
                "velocity": 64,
                "duration": 0.09545454545454568,
                "tempo": 120.0
            },
            {
                "start_time": 9.770454545454545,
                "end_time": 9.86590909090909,
                "pitch": 51,
                "velocity": 64,
                "duration": 0.09545454545454568,
                "tempo": 120.0
            },
            {
                "start_time": 9.993181818181817,
                "end_time": 10.093181818181817,
                "pitch": 53,
                "velocity": 64,
                "duration": 0.09999999999999964,
                "tempo": 120.0
            },
            {
                "start_time": 10.227272727272727,
                "end_time": 10.311363636363636,
                "pitch": 51,
                "velocity": 64,
                "duration": 0.084090909090909,
                "tempo": 120.0
            },
            {
                "start_time": 10.445454545454545,
                "end_time": 10.886363636363637,
                "pitch": 53,
                "velocity": 64,
                "duration": 0.44090909090909136,
                "tempo": 120.0
            },
            {
                "start_time": 10.902272727272727,
                "end_time": 10.988636363636363,
                "pitch": 53,
                "velocity": 64,
                "duration": 0.08636363636363598,
                "tempo": 120.0
            },
            {
                "start_time": 11.024999999999999,
                "end_time": 11.111363636363636,
                "pitch": 53,
                "velocity": 64,
                "duration": 0.08636363636363775,
                "tempo": 120.0
            },
            {
                "start_time": 11.129545454545454,
                "end_time": 11.23409090909091,
                "pitch": 51,
                "velocity": 64,
                "duration": 0.10454545454545539,
                "tempo": 120.0
            },
            {
                "start_time": 11.375,
                "end_time": 11.472727272727273,
                "pitch": 53,
                "velocity": 64,
                "duration": 0.09772727272727266,
                "tempo": 120.0
            },
            {
                "start_time": 11.6,
                "end_time": 11.695454545454545,
                "pitch": 51,
                "velocity": 64,
                "duration": 0.09545454545454568,
                "tempo": 120.0
            },
            {
                "start_time": 11.822727272727272,
                "end_time": 11.909090909090908,
                "pitch": 53,
                "velocity": 64,
                "duration": 0.08636363636363598,
                "tempo": 120.0
            },
            {
                "start_time": 12.045454545454545,
                "end_time": 12.147727272727272,
                "pitch": 51,
                "velocity": 64,
                "duration": 0.10227272727272663,
                "tempo": 120.0
            },
            {
                "start_time": 12.286363636363635,
                "end_time": 12.595454545454546,
                "pitch": 53,
                "velocity": 64,
                "duration": 0.3090909090909104,
                "tempo": 120.0
            },
            {
                "start_time": 12.629545454545454,
                "end_time": 12.711363636363636,
                "pitch": 53,
                "velocity": 64,
                "duration": 0.08181818181818201,
                "tempo": 120.0
            },
            {
                "start_time": 12.843181818181817,
                "end_time": 12.943181818181818,
                "pitch": 53,
                "velocity": 64,
                "duration": 0.10000000000000142,
                "tempo": 120.0
            },
            {
                "start_time": 12.961363636363636,
                "end_time": 13.061363636363636,
                "pitch": 51,
                "velocity": 64,
                "duration": 0.09999999999999964,
                "tempo": 120.0
            },
            {
                "start_time": 13.195454545454545,
                "end_time": 13.295454545454545,
                "pitch": 53,
                "velocity": 64,
                "duration": 0.09999999999999964,
                "tempo": 120.0
            },
            {
                "start_time": 13.429545454545455,
                "end_time": 13.513636363636364,
                "pitch": 51,
                "velocity": 64,
                "duration": 0.084090909090909,
                "tempo": 120.0
            },
            {
                "start_time": 13.647727272727272,
                "end_time": 13.743181818181817,
                "pitch": 53,
                "velocity": 64,
                "duration": 0.09545454545454568,
                "tempo": 120.0
            },
            {
                "start_time": 13.870454545454544,
                "end_time": 13.96590909090909,
                "pitch": 51,
                "velocity": 64,
                "duration": 0.09545454545454568,
                "tempo": 120.0
            },
            {
                "start_time": 14.095454545454544,
                "end_time": 14.538636363636362,
                "pitch": 53,
                "velocity": 64,
                "duration": 0.44318181818181834,
                "tempo": 120.0
            },
            {
                "start_time": 14.556818181818182,
                "end_time": 14.656818181818181,
                "pitch": 51,
                "velocity": 64,
                "duration": 0.09999999999999964,
                "tempo": 120.0
            },
            {
                "start_time": 14.674999999999999,
                "end_time": 14.774999999999999,
                "pitch": 51,
                "velocity": 64,
                "duration": 0.09999999999999964,
                "tempo": 120.0
            },
            {
                "start_time": 14.790909090909091,
                "end_time": 14.89090909090909,
                "pitch": 51,
                "velocity": 64,
                "duration": 0.09999999999999964,
                "tempo": 120.0
            },
            {
                "start_time": 14.909090909090908,
                "end_time": 14.99090909090909,
                "pitch": 51,
                "velocity": 64,
                "duration": 0.08181818181818201,
                "tempo": 120.0
            },
            {
                "start_time": 15.024999999999999,
                "end_time": 15.109090909090908,
                "pitch": 51,
                "velocity": 64,
                "duration": 0.084090909090909,
                "tempo": 120.0
            },
            {
                "start_time": 15.125,
                "end_time": 15.225,
                "pitch": 51,
                "velocity": 64,
                "duration": 0.09999999999999964,
                "tempo": 120.0
            },
            {
                "start_time": 15.243181818181817,
                "end_time": 15.343181818181817,
                "pitch": 51,
                "velocity": 64,
                "duration": 0.09999999999999964,
                "tempo": 120.0
            },
            {
                "start_time": 15.359090909090908,
                "end_time": 15.459090909090909,
                "pitch": 51,
                "velocity": 64,
                "duration": 0.10000000000000142,
                "tempo": 120.0
            },
            {
                "start_time": 15.477272727272727,
                "end_time": 15.572727272727272,
                "pitch": 50,
                "velocity": 64,
                "duration": 0.09545454545454568,
                "tempo": 120.0
            },
            {
                "start_time": 15.588636363636363,
                "end_time": 15.684090909090909,
                "pitch": 50,
                "velocity": 64,
                "duration": 0.09545454545454568,
                "tempo": 120.0
            },
            {
                "start_time": 15.7,
                "end_time": 15.779545454545454,
                "pitch": 50,
                "velocity": 64,
                "duration": 0.07954545454545503,
                "tempo": 120.0
            },
            {
                "start_time": 15.811363636363636,
                "end_time": 15.893181818181818,
                "pitch": 50,
                "velocity": 64,
                "duration": 0.08181818181818201,
                "tempo": 120.0
            },
            {
                "start_time": 15.909090909090908,
                "end_time": 16.009090909090908,
                "pitch": 50,
                "velocity": 64,
                "duration": 0.09999999999999964,
                "tempo": 120.0
            },
            {
                "start_time": 16.025,
                "end_time": 16.125,
                "pitch": 50,
                "velocity": 64,
                "duration": 0.10000000000000142,
                "tempo": 120.0
            },
            {
                "start_time": 16.143181818181816,
                "end_time": 16.243181818181817,
                "pitch": 50,
                "velocity": 64,
                "duration": 0.10000000000000142,
                "tempo": 120.0
            },
            {
                "start_time": 16.259090909090908,
                "end_time": 16.35909090909091,
                "pitch": 50,
                "velocity": 64,
                "duration": 0.10000000000000142,
                "tempo": 120.0
            },
            {
                "start_time": 16.377272727272725,
                "end_time": 16.479545454545455,
                "pitch": 49,
                "velocity": 64,
                "duration": 0.10227272727273018,
                "tempo": 120.0
            },
            {
                "start_time": 16.495454545454546,
                "end_time": 16.581818181818182,
                "pitch": 49,
                "velocity": 64,
                "duration": 0.08636363636363598,
                "tempo": 120.0
            },
            {
                "start_time": 16.61590909090909,
                "end_time": 16.702272727272728,
                "pitch": 49,
                "velocity": 64,
                "duration": 0.08636363636363953,
                "tempo": 120.0
            },
            {
                "start_time": 16.71818181818182,
                "end_time": 16.820454545454545,
                "pitch": 49,
                "velocity": 64,
                "duration": 0.10227272727272663,
                "tempo": 120.0
            },
            {
                "start_time": 16.83863636363636,
                "end_time": 16.936363636363634,
                "pitch": 49,
                "velocity": 64,
                "duration": 0.09772727272727266,
                "tempo": 120.0
            },
            {
                "start_time": 16.954545454545453,
                "end_time": 17.052272727272726,
                "pitch": 49,
                "velocity": 64,
                "duration": 0.09772727272727266,
                "tempo": 120.0
            },
            {
                "start_time": 17.068181818181817,
                "end_time": 17.16590909090909,
                "pitch": 49,
                "velocity": 64,
                "duration": 0.09772727272727266,
                "tempo": 120.0
            },
            {
                "start_time": 17.18181818181818,
                "end_time": 17.279545454545453,
                "pitch": 49,
                "velocity": 64,
                "duration": 0.09772727272727266,
                "tempo": 120.0
            },
            {
                "start_time": 17.297727272727272,
                "end_time": 17.379545454545454,
                "pitch": 48,
                "velocity": 64,
                "duration": 0.08181818181818201,
                "tempo": 120.0
            },
            {
                "start_time": 17.413636363636364,
                "end_time": 17.49772727272727,
                "pitch": 48,
                "velocity": 64,
                "duration": 0.08409090909090722,
                "tempo": 120.0
            },
            {
                "start_time": 17.513636363636362,
                "end_time": 17.613636363636363,
                "pitch": 48,
                "velocity": 64,
                "duration": 0.10000000000000142,
                "tempo": 120.0
            },
            {
                "start_time": 17.631818181818183,
                "end_time": 17.73181818181818,
                "pitch": 48,
                "velocity": 64,
                "duration": 0.09999999999999787,
                "tempo": 120.0
            },
            {
                "start_time": 17.74772727272727,
                "end_time": 17.845454545454544,
                "pitch": 48,
                "velocity": 64,
                "duration": 0.09772727272727266,
                "tempo": 120.0
            },
            {
                "start_time": 17.863636363636363,
                "end_time": 17.961363636363636,
                "pitch": 48,
                "velocity": 64,
                "duration": 0.09772727272727266,
                "tempo": 120.0
            },
            {
                "start_time": 17.977272727272727,
                "end_time": 18.075,
                "pitch": 48,
                "velocity": 64,
                "duration": 0.09772727272727266,
                "tempo": 120.0
            },
            {
                "start_time": 18.09090909090909,
                "end_time": 18.172727272727272,
                "pitch": 48,
                "velocity": 64,
                "duration": 0.08181818181818201,
                "tempo": 120.0
            },
            {
                "start_time": 18.206818181818182,
                "end_time": 18.293181818181818,
                "pitch": 53,
                "velocity": 64,
                "duration": 0.08636363636363598,
                "tempo": 120.0
            },
            {
                "start_time": 18.311363636363634,
                "end_time": 18.41590909090909,
                "pitch": 53,
                "velocity": 64,
                "duration": 0.10454545454545539,
                "tempo": 120.0
            },
            {
                "start_time": 18.43409090909091,
                "end_time": 18.538636363636364,
                "pitch": 53,
                "velocity": 64,
                "duration": 0.10454545454545539,
                "tempo": 120.0
            },
            {
                "start_time": 18.55681818181818,
                "end_time": 18.661363636363635,
                "pitch": 53,
                "velocity": 64,
                "duration": 0.10454545454545539,
                "tempo": 120.0
            },
            {
                "start_time": 18.679545454545455,
                "end_time": 18.775,
                "pitch": 53,
                "velocity": 64,
                "duration": 0.0954545454545439,
                "tempo": 120.0
            },
            {
                "start_time": 18.79090909090909,
                "end_time": 18.886363636363637,
                "pitch": 53,
                "velocity": 64,
                "duration": 0.09545454545454746,
                "tempo": 120.0
            },
            {
                "start_time": 18.902272727272727,
                "end_time": 18.98409090909091,
                "pitch": 53,
                "velocity": 64,
                "duration": 0.08181818181818201,
                "tempo": 120.0
            },
            {
                "start_time": 19.01590909090909,
                "end_time": 19.095454545454544,
                "pitch": 53,
                "velocity": 64,
                "duration": 0.07954545454545325,
                "tempo": 120.0
            },
            {
                "start_time": 19.111363636363635,
                "end_time": 19.206818181818182,
                "pitch": 52,
                "velocity": 64,
                "duration": 0.09545454545454746,
                "tempo": 120.0
            },
            {
                "start_time": 19.222727272727273,
                "end_time": 19.318181818181817,
                "pitch": 52,
                "velocity": 64,
                "duration": 0.0954545454545439,
                "tempo": 120.0
            },
            {
                "start_time": 19.334090909090907,
                "end_time": 19.429545454545455,
                "pitch": 52,
                "velocity": 64,
                "duration": 0.09545454545454746,
                "tempo": 120.0
            },
            {
                "start_time": 19.44772727272727,
                "end_time": 19.543181818181818,
                "pitch": 52,
                "velocity": 64,
                "duration": 0.09545454545454746,
                "tempo": 120.0
            },
            {
                "start_time": 19.55909090909091,
                "end_time": 19.661363636363635,
                "pitch": 52,
                "velocity": 64,
                "duration": 0.10227272727272663,
                "tempo": 120.0
            },
            {
                "start_time": 19.679545454545455,
                "end_time": 19.763636363636362,
                "pitch": 52,
                "velocity": 64,
                "duration": 0.08409090909090722,
                "tempo": 120.0
            },
            {
                "start_time": 19.797727272727272,
                "end_time": 19.884090909090908,
                "pitch": 52,
                "velocity": 64,
                "duration": 0.08636363636363598,
                "tempo": 120.0
            },
            {
                "start_time": 19.9,
                "end_time": 20.004545454545454,
                "pitch": 52,
                "velocity": 64,
                "duration": 0.10454545454545539,
                "tempo": 120.0
            },
            {
                "start_time": 20.020454545454545,
                "end_time": 20.12272727272727,
                "pitch": 51,
                "velocity": 64,
                "duration": 0.10227272727272663,
                "tempo": 120.0
            },
            {
                "start_time": 20.14090909090909,
                "end_time": 20.243181818181817,
                "pitch": 51,
                "velocity": 64,
                "duration": 0.10227272727272663,
                "tempo": 120.0
            },
            {
                "start_time": 20.261363636363637,
                "end_time": 20.363636363636363,
                "pitch": 51,
                "velocity": 64,
                "duration": 0.10227272727272663,
                "tempo": 120.0
            },
            {
                "start_time": 20.379545454545454,
                "end_time": 20.48409090909091,
                "pitch": 51,
                "velocity": 64,
                "duration": 0.10454545454545539,
                "tempo": 120.0
            },
            {
                "start_time": 20.5,
                "end_time": 20.581818181818182,
                "pitch": 51,
                "velocity": 64,
                "duration": 0.08181818181818201,
                "tempo": 120.0
            },
            {
                "start_time": 20.61590909090909,
                "end_time": 20.69772727272727,
                "pitch": 51,
                "velocity": 64,
                "duration": 0.08181818181818201,
                "tempo": 120.0
            },
            {
                "start_time": 20.71363636363636,
                "end_time": 20.811363636363634,
                "pitch": 51,
                "velocity": 64,
                "duration": 0.09772727272727266,
                "tempo": 120.0
            },
            {
                "start_time": 20.827272727272724,
                "end_time": 20.925,
                "pitch": 51,
                "velocity": 64,
                "duration": 0.09772727272727622,
                "tempo": 120.0
            },
            {
                "start_time": 20.94090909090909,
                "end_time": 21.04090909090909,
                "pitch": 50,
                "velocity": 64,
                "duration": 0.09999999999999787,
                "tempo": 120.0
            },
            {
                "start_time": 21.05681818181818,
                "end_time": 21.154545454545453,
                "pitch": 50,
                "velocity": 64,
                "duration": 0.09772727272727266,
                "tempo": 120.0
            },
            {
                "start_time": 21.170454545454543,
                "end_time": 21.268181818181816,
                "pitch": 50,
                "velocity": 64,
                "duration": 0.09772727272727266,
                "tempo": 120.0
            },
            {
                "start_time": 21.286363636363635,
                "end_time": 21.36590909090909,
                "pitch": 50,
                "velocity": 64,
                "duration": 0.07954545454545325,
                "tempo": 120.0
            },
            {
                "start_time": 21.4,
                "end_time": 21.48409090909091,
                "pitch": 50,
                "velocity": 64,
                "duration": 0.08409090909091077,
                "tempo": 120.0
            },
            {
                "start_time": 21.502272727272725,
                "end_time": 21.604545454545452,
                "pitch": 50,
                "velocity": 64,
                "duration": 0.10227272727272663,
                "tempo": 120.0
            },
            {
                "start_time": 21.62272727272727,
                "end_time": 21.724999999999998,
                "pitch": 50,
                "velocity": 64,
                "duration": 0.10227272727272663,
                "tempo": 120.0
            },
            {
                "start_time": 21.74090909090909,
                "end_time": 21.845454545454544,
                "pitch": 50,
                "velocity": 64,
                "duration": 0.10454545454545539,
                "tempo": 120.0
            },
            {
                "start_time": 21.861363636363635,
                "end_time": 21.961363636363636,
                "pitch": 51,
                "velocity": 64,
                "duration": 0.10000000000000142,
                "tempo": 120.0
            },
            {
                "start_time": 21.979545454545452,
                "end_time": 22.079545454545453,
                "pitch": 51,
                "velocity": 64,
                "duration": 0.10000000000000142,
                "tempo": 120.0
            },
            {
                "start_time": 22.095454545454544,
                "end_time": 22.179545454545455,
                "pitch": 51,
                "velocity": 64,
                "duration": 0.08409090909091077,
                "tempo": 120.0
            },
            {
                "start_time": 22.21363636363636,
                "end_time": 22.297727272727272,
                "pitch": 51,
                "velocity": 64,
                "duration": 0.08409090909091077,
                "tempo": 120.0
            },
            {
                "start_time": 22.313636363636363,
                "end_time": 22.409090909090907,
                "pitch": 51,
                "velocity": 64,
                "duration": 0.0954545454545439,
                "tempo": 120.0
            },
            {
                "start_time": 22.424999999999997,
                "end_time": 22.522727272727273,
                "pitch": 51,
                "velocity": 64,
                "duration": 0.09772727272727622,
                "tempo": 120.0
            },
            {
                "start_time": 22.538636363636364,
                "end_time": 22.634090909090908,
                "pitch": 51,
                "velocity": 64,
                "duration": 0.0954545454545439,
                "tempo": 120.0
            },
            {
                "start_time": 22.65,
                "end_time": 22.745454545454546,
                "pitch": 51,
                "velocity": 64,
                "duration": 0.09545454545454746,
                "tempo": 120.0
            },
            {
                "start_time": 22.761363636363637,
                "end_time": 22.861363636363635,
                "pitch": 50,
                "velocity": 64,
                "duration": 0.09999999999999787,
                "tempo": 120.0
            },
            {
                "start_time": 22.879545454545454,
                "end_time": 22.961363636363636,
                "pitch": 50,
                "velocity": 64,
                "duration": 0.08181818181818201,
                "tempo": 120.0
            },
            {
                "start_time": 22.995454545454546,
                "end_time": 23.079545454545453,
                "pitch": 50,
                "velocity": 64,
                "duration": 0.08409090909090722,
                "tempo": 120.0
            },
            {
                "start_time": 23.095454545454544,
                "end_time": 23.19772727272727,
                "pitch": 50,
                "velocity": 64,
                "duration": 0.10227272727272663,
                "tempo": 120.0
            },
            {
                "start_time": 23.21363636363636,
                "end_time": 23.311363636363634,
                "pitch": 50,
                "velocity": 64,
                "duration": 0.09772727272727266,
                "tempo": 120.0
            },
            {
                "start_time": 23.327272727272724,
                "end_time": 23.424999999999997,
                "pitch": 50,
                "velocity": 64,
                "duration": 0.09772727272727266,
                "tempo": 120.0
            },
            {
                "start_time": 23.443181818181817,
                "end_time": 23.54090909090909,
                "pitch": 50,
                "velocity": 64,
                "duration": 0.09772727272727266,
                "tempo": 120.0
            },
            {
                "start_time": 23.55681818181818,
                "end_time": 23.654545454545453,
                "pitch": 50,
                "velocity": 64,
                "duration": 0.09772727272727266,
                "tempo": 120.0
            },
            {
                "start_time": 23.670454545454543,
                "end_time": 23.75681818181818,
                "pitch": 49,
                "velocity": 64,
                "duration": 0.08636363636363598,
                "tempo": 120.0
            },
            {
                "start_time": 23.793181818181818,
                "end_time": 23.88181818181818,
                "pitch": 49,
                "velocity": 64,
                "duration": 0.08863636363636118,
                "tempo": 120.0
            },
            {
                "start_time": 23.89772727272727,
                "end_time": 24.004545454545454,
                "pitch": 49,
                "velocity": 64,
                "duration": 0.10681818181818414,
                "tempo": 120.0
            },
            {
                "start_time": 24.020454545454545,
                "end_time": 24.127272727272725,
                "pitch": 49,
                "velocity": 64,
                "duration": 0.10681818181818059,
                "tempo": 120.0
            },
            {
                "start_time": 24.143181818181816,
                "end_time": 24.24090909090909,
                "pitch": 49,
                "velocity": 64,
                "duration": 0.09772727272727266,
                "tempo": 120.0
            },
            {
                "start_time": 24.25681818181818,
                "end_time": 24.352272727272727,
                "pitch": 49,
                "velocity": 64,
                "duration": 0.09545454545454746,
                "tempo": 120.0
            },
            {
                "start_time": 24.368181818181817,
                "end_time": 24.46363636363636,
                "pitch": 49,
                "velocity": 64,
                "duration": 0.0954545454545439,
                "tempo": 120.0
            },
            {
                "start_time": 24.479545454545452,
                "end_time": 24.55909090909091,
                "pitch": 49,
                "velocity": 64,
                "duration": 0.0795454545454568,
                "tempo": 120.0
            },
            {
                "start_time": 24.59090909090909,
                "end_time": 24.674999999999997,
                "pitch": 48,
                "velocity": 64,
                "duration": 0.08409090909090722,
                "tempo": 120.0
            },
            {
                "start_time": 24.693181818181817,
                "end_time": 24.793181818181818,
                "pitch": 48,
                "velocity": 64,
                "duration": 0.10000000000000142,
                "tempo": 120.0
            },
            {
                "start_time": 24.80909090909091,
                "end_time": 24.909090909090907,
                "pitch": 48,
                "velocity": 64,
                "duration": 0.09999999999999787,
                "tempo": 120.0
            },
            {
                "start_time": 24.927272727272726,
                "end_time": 25.027272727272727,
                "pitch": 48,
                "velocity": 64,
                "duration": 0.10000000000000142,
                "tempo": 120.0
            },
            {
                "start_time": 25.043181818181818,
                "end_time": 25.143181818181816,
                "pitch": 48,
                "velocity": 64,
                "duration": 0.09999999999999787,
                "tempo": 120.0
            },
            {
                "start_time": 25.161363636363635,
                "end_time": 25.261363636363637,
                "pitch": 48,
                "velocity": 64,
                "duration": 0.10000000000000142,
                "tempo": 120.0
            },
            {
                "start_time": 25.277272727272727,
                "end_time": 25.361363636363635,
                "pitch": 48,
                "velocity": 64,
                "duration": 0.08409090909090722,
                "tempo": 120.0
            },
            {
                "start_time": 25.395454545454545,
                "end_time": 25.479545454545452,
                "pitch": 48,
                "velocity": 64,
                "duration": 0.08409090909090722,
                "tempo": 120.0
            },
            {
                "start_time": 25.495454545454542,
                "end_time": 25.595454545454544,
                "pitch": 46,
                "velocity": 64,
                "duration": 0.10000000000000142,
                "tempo": 120.0
            },
            {
                "start_time": 25.611363636363635,
                "end_time": 25.71363636363636,
                "pitch": 46,
                "velocity": 64,
                "duration": 0.10227272727272663,
                "tempo": 120.0
            },
            {
                "start_time": 25.729545454545452,
                "end_time": 25.829545454545453,
                "pitch": 46,
                "velocity": 64,
                "duration": 0.10000000000000142,
                "tempo": 120.0
            },
            {
                "start_time": 25.845454545454544,
                "end_time": 25.94772727272727,
                "pitch": 46,
                "velocity": 64,
                "duration": 0.10227272727272663,
                "tempo": 120.0
            },
            {
                "start_time": 25.96363636363636,
                "end_time": 26.063636363636363,
                "pitch": 46,
                "velocity": 64,
                "duration": 0.10000000000000142,
                "tempo": 120.0
            },
            {
                "start_time": 26.079545454545453,
                "end_time": 26.163636363636364,
                "pitch": 46,
                "velocity": 64,
                "duration": 0.08409090909091077,
                "tempo": 120.0
            },
            {
                "start_time": 26.19772727272727,
                "end_time": 26.28181818181818,
                "pitch": 46,
                "velocity": 64,
                "duration": 0.08409090909091077,
                "tempo": 120.0
            },
            {
                "start_time": 26.297727272727272,
                "end_time": 26.39772727272727,
                "pitch": 46,
                "velocity": 64,
                "duration": 0.09999999999999787,
                "tempo": 120.0
            },
            {
                "start_time": 26.41590909090909,
                "end_time": 26.511363636363637,
                "pitch": 45,
                "velocity": 64,
                "duration": 0.09545454545454746,
                "tempo": 120.0
            },
            {
                "start_time": 26.527272727272727,
                "end_time": 26.62272727272727,
                "pitch": 45,
                "velocity": 64,
                "duration": 0.0954545454545439,
                "tempo": 120.0
            },
            {
                "start_time": 26.638636363636362,
                "end_time": 26.73409090909091,
                "pitch": 45,
                "velocity": 64,
                "duration": 0.09545454545454746,
                "tempo": 120.0
            },
            {
                "start_time": 26.75,
                "end_time": 26.847727272727273,
                "pitch": 45,
                "velocity": 64,
                "duration": 0.09772727272727266,
                "tempo": 120.0
            },
            {
                "start_time": 26.863636363636363,
                "end_time": 26.94772727272727,
                "pitch": 45,
                "velocity": 64,
                "duration": 0.08409090909090722,
                "tempo": 120.0
            },
            {
                "start_time": 26.98181818181818,
                "end_time": 27.068181818181817,
                "pitch": 45,
                "velocity": 64,
                "duration": 0.08636363636363598,
                "tempo": 120.0
            },
            {
                "start_time": 27.086363636363636,
                "end_time": 27.188636363636363,
                "pitch": 45,
                "velocity": 64,
                "duration": 0.10227272727272663,
                "tempo": 120.0
            },
            {
                "start_time": 27.204545454545453,
                "end_time": 27.30681818181818,
                "pitch": 45,
                "velocity": 64,
                "duration": 0.10227272727272663,
                "tempo": 120.0
            },
            {
                "start_time": 27.325,
                "end_time": 27.424999999999997,
                "pitch": 42,
                "velocity": 64,
                "duration": 0.09999999999999787,
                "tempo": 120.0
            },
            {
                "start_time": 27.443181818181817,
                "end_time": 27.543181818181818,
                "pitch": 42,
                "velocity": 64,
                "duration": 0.10000000000000142,
                "tempo": 120.0
            },
            {
                "start_time": 27.55909090909091,
                "end_time": 27.659090909090907,
                "pitch": 42,
                "velocity": 64,
                "duration": 0.09999999999999787,
                "tempo": 120.0
            },
            {
                "start_time": 27.677272727272726,
                "end_time": 27.759090909090908,
                "pitch": 42,
                "velocity": 64,
                "duration": 0.08181818181818201,
                "tempo": 120.0
            },
            {
                "start_time": 27.793181818181818,
                "end_time": 27.877272727272725,
                "pitch": 42,
                "velocity": 64,
                "duration": 0.08409090909090722,
                "tempo": 120.0
            },
            {
                "start_time": 27.893181818181816,
                "end_time": 27.995454545454542,
                "pitch": 42,
                "velocity": 64,
                "duration": 0.10227272727272663,
                "tempo": 120.0
            },
            {
                "start_time": 28.011363636363637,
                "end_time": 28.111363636363635,
                "pitch": 42,
                "velocity": 64,
                "duration": 0.09999999999999787,
                "tempo": 120.0
            },
            {
                "start_time": 28.127272727272725,
                "end_time": 28.229545454545452,
                "pitch": 42,
                "velocity": 64,
                "duration": 0.10227272727272663,
                "tempo": 120.0
            },
            {
                "start_time": 41.90681818181818,
                "end_time": 42.01136363636363,
                "pitch": 53,
                "velocity": 64,
                "duration": 0.10454545454545183,
                "tempo": 120.0
            },
            {
                "start_time": 42.027272727272724,
                "end_time": 42.11590909090909,
                "pitch": 53,
                "velocity": 64,
                "duration": 0.08863636363636829,
                "tempo": 120.0
            }
        ],
        "Harpsichord": [
            {
                "start_time": 14.790909090909091,
                "end_time": 15.459090909090909,
                "pitch": 63,
                "velocity": 51,
                "duration": 0.668181818181818,
                "tempo": 120.0
            },
            {
                "start_time": 15.7,
                "end_time": 16.35909090909091,
                "pitch": 62,
                "velocity": 51,
                "duration": 0.6590909090909101,
                "tempo": 120.0
            },
            {
                "start_time": 16.61590909090909,
                "end_time": 17.279545454545453,
                "pitch": 61,
                "velocity": 51,
                "duration": 0.663636363636364,
                "tempo": 120.0
            },
            {
                "start_time": 17.513636363636362,
                "end_time": 18.172727272727272,
                "pitch": 60,
                "velocity": 51,
                "duration": 0.6590909090909101,
                "tempo": 120.0
            },
            {
                "start_time": 18.43409090909091,
                "end_time": 19.095454545454544,
                "pitch": 65,
                "velocity": 51,
                "duration": 0.6613636363636353,
                "tempo": 120.0
            },
            {
                "start_time": 19.334090909090907,
                "end_time": 20.004545454545454,
                "pitch": 64,
                "velocity": 51,
                "duration": 0.6704545454545467,
                "tempo": 120.0
            },
            {
                "start_time": 20.261363636363637,
                "end_time": 20.925,
                "pitch": 63,
                "velocity": 51,
                "duration": 0.663636363636364,
                "tempo": 120.0
            },
            {
                "start_time": 21.170454545454543,
                "end_time": 21.845454545454544,
                "pitch": 62,
                "velocity": 51,
                "duration": 0.6750000000000007,
                "tempo": 120.0
            },
            {
                "start_time": 22.095454545454544,
                "end_time": 22.745454545454546,
                "pitch": 70,
                "velocity": 51,
                "duration": 0.6500000000000021,
                "tempo": 120.0
            },
            {
                "start_time": 22.995454545454546,
                "end_time": 23.654545454545453,
                "pitch": 71,
                "velocity": 51,
                "duration": 0.6590909090909065,
                "tempo": 120.0
            },
            {
                "start_time": 23.89772727272727,
                "end_time": 24.55909090909091,
                "pitch": 72,
                "velocity": 51,
                "duration": 0.6613636363636388,
                "tempo": 120.0
            },
            {
                "start_time": 24.80909090909091,
                "end_time": 25.479545454545452,
                "pitch": 73,
                "velocity": 51,
                "duration": 0.6704545454545432,
                "tempo": 120.0
            },
            {
                "start_time": 25.729545454545452,
                "end_time": 26.39772727272727,
                "pitch": 74,
                "velocity": 51,
                "duration": 0.668181818181818,
                "tempo": 120.0
            },
            {
                "start_time": 26.638636363636362,
                "end_time": 27.30681818181818,
                "pitch": 75,
                "velocity": 51,
                "duration": 0.668181818181818,
                "tempo": 120.0
            },
            {
                "start_time": 27.55909090909091,
                "end_time": 28.229545454545452,
                "pitch": 64,
                "velocity": 51,
                "duration": 0.6704545454545432,
                "tempo": 120.0
            },
            {
                "start_time": 28.245454545454542,
                "end_time": 28.295454545454543,
                "pitch": 53,
                "velocity": 51,
                "duration": 0.05000000000000071,
                "tempo": 120.0
            },
            {
                "start_time": 28.329545454545453,
                "end_time": 28.379545454545454,
                "pitch": 55,
                "velocity": 51,
                "duration": 0.05000000000000071,
                "tempo": 120.0
            },
            {
                "start_time": 28.395454545454545,
                "end_time": 28.46363636363636,
                "pitch": 56,
                "velocity": 51,
                "duration": 0.06818181818181657,
                "tempo": 120.0
            },
            {
                "start_time": 28.479545454545452,
                "end_time": 28.529545454545453,
                "pitch": 58,
                "velocity": 51,
                "duration": 0.05000000000000071,
                "tempo": 120.0
            },
            {
                "start_time": 28.545454545454543,
                "end_time": 28.613636363636363,
                "pitch": 60,
                "velocity": 51,
                "duration": 0.06818181818182012,
                "tempo": 120.0
            },
            {
                "start_time": 28.629545454545454,
                "end_time": 28.679545454545455,
                "pitch": 61,
                "velocity": 51,
                "duration": 0.05000000000000071,
                "tempo": 120.0
            },
            {
                "start_time": 28.69772727272727,
                "end_time": 28.761363636363637,
                "pitch": 62,
                "velocity": 51,
                "duration": 0.06363636363636616,
                "tempo": 120.0
            },
            {
                "start_time": 28.777272727272727,
                "end_time": 28.825,
                "pitch": 63,
                "velocity": 51,
                "duration": 0.04772727272727195,
                "tempo": 120.0
            },
            {
                "start_time": 28.85681818181818,
                "end_time": 28.904545454545453,
                "pitch": 64,
                "velocity": 51,
                "duration": 0.04772727272727195,
                "tempo": 120.0
            },
            {
                "start_time": 28.920454545454543,
                "end_time": 28.98409090909091,
                "pitch": 65,
                "velocity": 51,
                "duration": 0.06363636363636616,
                "tempo": 120.0
            },
            {
                "start_time": 29.0,
                "end_time": 29.049999999999997,
                "pitch": 66,
                "velocity": 51,
                "duration": 0.04999999999999716,
                "tempo": 120.0
            },
            {
                "start_time": 29.065909090909088,
                "end_time": 29.129545454545454,
                "pitch": 67,
                "velocity": 51,
                "duration": 0.06363636363636616,
                "tempo": 120.0
            },
            {
                "start_time": 29.161363636363635,
                "end_time": 29.599999999999998,
                "pitch": 48,
                "velocity": 51,
                "duration": 0.4386363636363626,
                "tempo": 120.0
            },
            {
                "start_time": 29.634090909090908,
                "end_time": 30.05909090909091,
                "pitch": 50,
                "velocity": 51,
                "duration": 0.4250000000000007,
                "tempo": 120.0
            },
            {
                "start_time": 30.075,
                "end_time": 30.511363636363633,
                "pitch": 51,
                "velocity": 51,
                "duration": 0.43636363636363384,
                "tempo": 120.0
            },
            {
                "start_time": 30.527272727272727,
                "end_time": 30.854545454545452,
                "pitch": 53,
                "velocity": 51,
                "duration": 0.3272727272727245,
                "tempo": 120.0
            },
            {
                "start_time": 30.870454545454542,
                "end_time": 30.952272727272724,
                "pitch": 55,
                "velocity": 51,
                "duration": 0.08181818181818201,
                "tempo": 120.0
            },
            {
                "start_time": 31.086363636363636,
                "end_time": 31.186363636363634,
                "pitch": 55,
                "velocity": 51,
                "duration": 0.09999999999999787,
                "tempo": 120.0
            },
            {
                "start_time": 31.202272727272724,
                "end_time": 31.302272727272726,
                "pitch": 55,
                "velocity": 51,
                "duration": 0.10000000000000142,
                "tempo": 120.0
            },
            {
                "start_time": 31.436363636363634,
                "end_time": 31.534090909090907,
                "pitch": 55,
                "velocity": 51,
                "duration": 0.09772727272727266,
                "tempo": 120.0
            },
            {
                "start_time": 31.66590909090909,
                "end_time": 31.74772727272727,
                "pitch": 53,
                "velocity": 51,
                "duration": 0.08181818181818201,
                "tempo": 120.0
            },
            {
                "start_time": 31.877272727272725,
                "end_time": 32.20454545454545,
                "pitch": 55,
                "velocity": 51,
                "duration": 0.32727272727272805,
                "tempo": 120.0
            },
            {
                "start_time": 32.22272727272727,
                "end_time": 32.320454545454545,
                "pitch": 55,
                "velocity": 51,
                "duration": 0.09772727272727622,
                "tempo": 120.0
            },
            {
                "start_time": 32.824999999999996,
                "end_time": 33.24090909090909,
                "pitch": 48,
                "velocity": 51,
                "duration": 0.41590909090909634,
                "tempo": 120.0
            },
            {
                "start_time": 33.25681818181818,
                "end_time": 33.699999999999996,
                "pitch": 50,
                "velocity": 51,
                "duration": 0.443181818181813,
                "tempo": 120.0
            },
            {
                "start_time": 33.71818181818182,
                "end_time": 34.143181818181816,
                "pitch": 51,
                "velocity": 51,
                "duration": 0.42499999999999716,
                "tempo": 120.0
            },
            {
                "start_time": 34.17727272727272,
                "end_time": 34.502272727272725,
                "pitch": 53,
                "velocity": 51,
                "duration": 0.32500000000000284,
                "tempo": 120.0
            },
            {
                "start_time": 34.518181818181816,
                "end_time": 34.62045454545454,
                "pitch": 55,
                "velocity": 51,
                "duration": 0.10227272727272663,
                "tempo": 120.0
            },
            {
                "start_time": 34.752272727272725,
                "end_time": 34.85227272727273,
                "pitch": 55,
                "velocity": 51,
                "duration": 0.10000000000000142,
                "tempo": 120.0
            },
            {
                "start_time": 34.86818181818182,
                "end_time": 34.949999999999996,
                "pitch": 55,
                "velocity": 51,
                "duration": 0.08181818181817846,
                "tempo": 120.0
            },
            {
                "start_time": 35.07954545454545,
                "end_time": 35.17727272727272,
                "pitch": 55,
                "velocity": 51,
                "duration": 0.09772727272726911,
                "tempo": 120.0
            },
            {
                "start_time": 35.304545454545455,
                "end_time": 35.4,
                "pitch": 53,
                "velocity": 51,
                "duration": 0.0954545454545439,
                "tempo": 120.0
            },
            {
                "start_time": 35.527272727272724,
                "end_time": 35.85227272727273,
                "pitch": 55,
                "velocity": 51,
                "duration": 0.32500000000000284,
                "tempo": 120.0
            },
            {
                "start_time": 35.87045454545454,
                "end_time": 35.97272727272727,
                "pitch": 55,
                "velocity": 51,
                "duration": 0.10227272727272663,
                "tempo": 120.0
            },
            {
                "start_time": 36.475,
                "end_time": 36.893181818181816,
                "pitch": 48,
                "velocity": 51,
                "duration": 0.41818181818181444,
                "tempo": 120.0
            },
            {
                "start_time": 36.91136363636363,
                "end_time": 37.32727272727273,
                "pitch": 50,
                "velocity": 51,
                "duration": 0.41590909090909634,
                "tempo": 120.0
            },
            {
                "start_time": 37.35909090909091,
                "end_time": 37.793181818181814,
                "pitch": 51,
                "velocity": 51,
                "duration": 0.4340909090909051,
                "tempo": 120.0
            },
            {
                "start_time": 37.809090909090905,
                "end_time": 38.12045454545454,
                "pitch": 53,
                "velocity": 51,
                "duration": 0.3113636363636374,
                "tempo": 120.0
            },
            {
                "start_time": 38.152272727272724,
                "end_time": 40.06363636363636,
                "pitch": 55,
                "velocity": 51,
                "duration": 1.9113636363636388,
                "tempo": 120.0
            },
            {
                "start_time": 40.195454545454545,
                "end_time": 40.293181818181814,
                "pitch": 60,
                "velocity": 51,
                "duration": 0.09772727272726911,
                "tempo": 120.0
            },
            {
                "start_time": 40.309090909090905,
                "end_time": 40.40681818181818,
                "pitch": 58,
                "velocity": 51,
                "duration": 0.09772727272727622,
                "tempo": 120.0
            },
            {
                "start_time": 40.425,
                "end_time": 40.50681818181818,
                "pitch": 55,
                "velocity": 51,
                "duration": 0.08181818181818556,
                "tempo": 120.0
            },
            {
                "start_time": 40.538636363636364,
                "end_time": 40.625,
                "pitch": 53,
                "velocity": 51,
                "duration": 0.08636363636363598,
                "tempo": 120.0
            },
            {
                "start_time": 40.643181818181816,
                "end_time": 40.74772727272727,
                "pitch": 51,
                "velocity": 51,
                "duration": 0.10454545454545183,
                "tempo": 120.0
            },
            {
                "start_time": 40.76363636363636,
                "end_time": 40.86818181818182,
                "pitch": 48,
                "velocity": 51,
                "duration": 0.10454545454545894,
                "tempo": 120.0
            },
            {
                "start_time": 40.88636363636363,
                "end_time": 40.99090909090909,
                "pitch": 46,
                "velocity": 51,
                "duration": 0.10454545454545894,
                "tempo": 120.0
            },
            {
                "start_time": 41.00681818181818,
                "end_time": 41.10681818181818,
                "pitch": 45,
                "velocity": 51,
                "duration": 0.09999999999999432,
                "tempo": 120.0
            },
            {
                "start_time": 41.12272727272727,
                "end_time": 41.220454545454544,
                "pitch": 44,
                "velocity": 51,
                "duration": 0.09772727272727622,
                "tempo": 120.0
            },
            {
                "start_time": 41.236363636363635,
                "end_time": 41.31818181818181,
                "pitch": 43,
                "velocity": 51,
                "duration": 0.08181818181817846,
                "tempo": 120.0
            },
            {
                "start_time": 41.35227272727273,
                "end_time": 41.434090909090905,
                "pitch": 42,
                "velocity": 51,
                "duration": 0.08181818181817846,
                "tempo": 120.0
            },
            {
                "start_time": 41.449999999999996,
                "end_time": 41.54772727272727,
                "pitch": 39,
                "velocity": 51,
                "duration": 0.09772727272727622,
                "tempo": 120.0
            },
            {
                "start_time": 41.56363636363636,
                "end_time": 41.89090909090909,
                "pitch": 40,
                "velocity": 51,
                "duration": 0.32727272727272805,
                "tempo": 120.0
            }
        ]
    }
}