{
    "track_id": "Double Dragon (FM) - 05 - Mission 4",
    "mood": "happy",
    "instruments": {
        "Trumpet": [
            {
                "start_time": 11.263636363636364,
                "end_time": 12.031818181818181,
                "pitch": 68,
                "velocity": 40,
                "duration": 0.7681818181818176,
                "tempo": 120.0
            },
            {
                "start_time": 12.047727272727272,
                "end_time": 12.834090909090909,
                "pitch": 68,
                "velocity": 40,
                "duration": 0.786363636363637,
                "tempo": 120.0
            },
            {
                "start_time": 12.85,
                "end_time": 14.459090909090909,
                "pitch": 75,
                "velocity": 40,
                "duration": 1.6090909090909093,
                "tempo": 120.0
            },
            {
                "start_time": 49.77272727272727,
                "end_time": 50.54090909090909,
                "pitch": 68,
                "velocity": 40,
                "duration": 0.7681818181818159,
                "tempo": 120.0
            },
            {
                "start_time": 50.55681818181818,
                "end_time": 51.34318181818182,
                "pitch": 68,
                "velocity": 40,
                "duration": 0.7863636363636388,
                "tempo": 120.0
            },
            {
                "start_time": 51.35909090909091,
                "end_time": 52.96818181818182,
                "pitch": 75,
                "velocity": 40,
                "duration": 1.6090909090909093,
                "tempo": 120.0
            }
        ],
        "Electric Guitar (clean)": [
            {
                "start_time": 0.19999999999999998,
                "end_time": 0.3840909090909091,
                "pitch": 39,
                "velocity": 51,
                "duration": 0.1840909090909091,
                "tempo": 120.0
            },
            {
                "start_time": 0.39999999999999997,
                "end_time": 0.5840909090909091,
                "pitch": 42,
                "velocity": 51,
                "duration": 0.18409090909090914,
                "tempo": 120.0
            },
            {
                "start_time": 0.6022727272727273,
                "end_time": 0.7863636363636364,
                "pitch": 43,
                "velocity": 51,
                "duration": 0.18409090909090908,
                "tempo": 120.0
            },
            {
                "start_time": 0.8022727272727272,
                "end_time": 0.9863636363636363,
                "pitch": 44,
                "velocity": 51,
                "duration": 0.18409090909090908,
                "tempo": 120.0
            },
            {
                "start_time": 1.0022727272727272,
                "end_time": 1.1863636363636363,
                "pitch": 42,
                "velocity": 51,
                "duration": 0.18409090909090908,
                "tempo": 120.0
            },
            {
                "start_time": 1.2022727272727272,
                "end_time": 1.3954545454545453,
                "pitch": 39,
                "velocity": 51,
                "duration": 0.19318181818181812,
                "tempo": 120.0
            },
            {
                "start_time": 1.4136363636363636,
                "end_time": 1.6068181818181817,
                "pitch": 34,
                "velocity": 51,
                "duration": 0.19318181818181812,
                "tempo": 120.0
            },
            {
                "start_time": 1.625,
                "end_time": 2.0,
                "pitch": 32,
                "velocity": 51,
                "duration": 0.375,
                "tempo": 120.0
            },
            {
                "start_time": 2.0159090909090907,
                "end_time": 2.2045454545454546,
                "pitch": 35,
                "velocity": 51,
                "duration": 0.18863636363636394,
                "tempo": 120.0
            },
            {
                "start_time": 2.2204545454545452,
                "end_time": 2.409090909090909,
                "pitch": 32,
                "velocity": 51,
                "duration": 0.18863636363636394,
                "tempo": 120.0
            },
            {
                "start_time": 2.4272727272727272,
                "end_time": 2.6113636363636363,
                "pitch": 35,
                "velocity": 51,
                "duration": 0.18409090909090908,
                "tempo": 120.0
            },
            {
                "start_time": 2.627272727272727,
                "end_time": 2.811363636363636,
                "pitch": 39,
                "velocity": 51,
                "duration": 0.18409090909090908,
                "tempo": 120.0
            },
            {
                "start_time": 2.827272727272727,
                "end_time": 3.0113636363636362,
                "pitch": 32,
                "velocity": 51,
                "duration": 0.18409090909090908,
                "tempo": 120.0
            },
            {
                "start_time": 3.0272727272727273,
                "end_time": 3.2113636363636364,
                "pitch": 30,
                "velocity": 51,
                "duration": 0.18409090909090908,
                "tempo": 120.0
            },
            {
                "start_time": 3.227272727272727,
                "end_time": 3.6045454545454545,
                "pitch": 32,
                "velocity": 51,
                "duration": 0.3772727272727274,
                "tempo": 120.0
            },
            {
                "start_time": 3.620454545454545,
                "end_time": 3.8068181818181817,
                "pitch": 35,
                "velocity": 51,
                "duration": 0.1863636363636365,
                "tempo": 120.0
            },
            {
                "start_time": 3.8249999999999997,
                "end_time": 4.013636363636364,
                "pitch": 32,
                "velocity": 51,
                "duration": 0.18863636363636394,
                "tempo": 120.0
            },
            {
                "start_time": 4.029545454545454,
                "end_time": 4.213636363636364,
                "pitch": 35,
                "velocity": 51,
                "duration": 0.18409090909090953,
                "tempo": 120.0
            },
            {
                "start_time": 4.2295454545454545,
                "end_time": 4.413636363636363,
                "pitch": 39,
                "velocity": 51,
                "duration": 0.18409090909090864,
                "tempo": 120.0
            },
            {
                "start_time": 4.429545454545455,
                "end_time": 4.61590909090909,
                "pitch": 30,
                "velocity": 51,
                "duration": 0.18636363636363562,
                "tempo": 120.0
            },
            {
                "start_time": 4.631818181818182,
                "end_time": 4.8159090909090905,
                "pitch": 31,
                "velocity": 51,
                "duration": 0.18409090909090864,
                "tempo": 120.0
            },
            {
                "start_time": 4.834090909090909,
                "end_time": 5.618181818181818,
                "pitch": 32,
                "velocity": 51,
                "duration": 0.7840909090909092,
                "tempo": 120.0
            },
            {
                "start_time": 5.636363636363636,
                "end_time": 6.422727272727273,
                "pitch": 32,
                "velocity": 51,
                "duration": 0.786363636363637,
                "tempo": 120.0
            },
            {
                "start_time": 6.4386363636363635,
                "end_time": 6.824999999999999,
                "pitch": 32,
                "velocity": 51,
                "duration": 0.3863636363636358,
                "tempo": 120.0
            },
            {
                "start_time": 6.840909090909091,
                "end_time": 7.0249999999999995,
                "pitch": 35,
                "velocity": 51,
                "duration": 0.18409090909090864,
                "tempo": 120.0
            },
            {
                "start_time": 7.043181818181818,
                "end_time": 7.227272727272727,
                "pitch": 34,
                "velocity": 51,
                "duration": 0.18409090909090864,
                "tempo": 120.0
            },
            {
                "start_time": 7.243181818181818,
                "end_time": 7.427272727272727,
                "pitch": 32,
                "velocity": 51,
                "duration": 0.18409090909090864,
                "tempo": 120.0
            },
            {
                "start_time": 7.4431818181818175,
                "end_time": 7.627272727272727,
                "pitch": 39,
                "velocity": 51,
                "duration": 0.18409090909090953,
                "tempo": 120.0
            },
            {
                "start_time": 7.643181818181818,
                "end_time": 7.827272727272727,
                "pitch": 30,
                "velocity": 51,
                "duration": 0.18409090909090953,
                "tempo": 120.0
            },
            {
                "start_time": 7.845454545454545,
                "end_time": 8.029545454545454,
                "pitch": 31,
                "velocity": 51,
                "duration": 0.18409090909090953,
                "tempo": 120.0
            },
            {
                "start_time": 8.045454545454545,
                "end_time": 8.422727272727272,
                "pitch": 32,
                "velocity": 51,
                "duration": 0.377272727272727,
                "tempo": 120.0
            },
            {
                "start_time": 8.438636363636363,
                "end_time": 8.627272727272727,
                "pitch": 35,
                "velocity": 51,
                "duration": 0.18863636363636438,
                "tempo": 120.0
            },
            {
                "start_time": 8.643181818181818,
                "end_time": 8.831818181818182,
                "pitch": 32,
                "velocity": 51,
                "duration": 0.18863636363636438,
                "tempo": 120.0
            },
            {
                "start_time": 8.85,
                "end_time": 9.034090909090908,
                "pitch": 35,
                "velocity": 51,
                "duration": 0.18409090909090864,
                "tempo": 120.0
            },
            {
                "start_time": 9.049999999999999,
                "end_time": 9.236363636363636,
                "pitch": 39,
                "velocity": 51,
                "duration": 0.1863636363636374,
                "tempo": 120.0
            },
            {
                "start_time": 9.252272727272727,
                "end_time": 9.436363636363636,
                "pitch": 32,
                "velocity": 51,
                "duration": 0.18409090909090864,
                "tempo": 120.0
            },
            {
                "start_time": 9.452272727272726,
                "end_time": 9.638636363636364,
                "pitch": 30,
                "velocity": 51,
                "duration": 0.1863636363636374,
                "tempo": 120.0
            },
            {
                "start_time": 9.654545454545454,
                "end_time": 10.031818181818181,
                "pitch": 32,
                "velocity": 51,
                "duration": 0.377272727272727,
                "tempo": 120.0
            },
            {
                "start_time": 10.047727272727272,
                "end_time": 10.23409090909091,
                "pitch": 35,
                "velocity": 51,
                "duration": 0.1863636363636374,
                "tempo": 120.0
            },
            {
                "start_time": 10.252272727272727,
                "end_time": 10.44090909090909,
                "pitch": 32,
                "velocity": 51,
                "duration": 0.1886363636363626,
                "tempo": 120.0
            },
            {
                "start_time": 10.456818181818182,
                "end_time": 10.643181818181818,
                "pitch": 35,
                "velocity": 51,
                "duration": 0.18636363636363562,
                "tempo": 120.0
            },
            {
                "start_time": 10.659090909090908,
                "end_time": 10.843181818181817,
                "pitch": 39,
                "velocity": 51,
                "duration": 0.18409090909090864,
                "tempo": 120.0
            },
            {
                "start_time": 10.861363636363636,
                "end_time": 11.045454545454545,
                "pitch": 30,
                "velocity": 51,
                "duration": 0.18409090909090864,
                "tempo": 120.0
            },
            {
                "start_time": 11.061363636363636,
                "end_time": 11.245454545454544,
                "pitch": 31,
                "velocity": 51,
                "duration": 0.18409090909090864,
                "tempo": 120.0
            },
            {
                "start_time": 11.263636363636364,
                "end_time": 12.031818181818181,
                "pitch": 32,
                "velocity": 51,
                "duration": 0.7681818181818176,
                "tempo": 120.0
            },
            {
                "start_time": 12.047727272727272,
                "end_time": 12.834090909090909,
                "pitch": 32,
                "velocity": 51,
                "duration": 0.786363636363637,
                "tempo": 120.0
            },
            {
                "start_time": 12.85,
                "end_time": 13.243181818181817,
                "pitch": 32,
                "velocity": 51,
                "duration": 0.39318181818181763,
                "tempo": 120.0
            },
            {
                "start_time": 13.261363636363635,
                "end_time": 13.45,
                "pitch": 35,
                "velocity": 51,
                "duration": 0.18863636363636438,
                "tempo": 120.0
            },
            {
                "start_time": 13.46590909090909,
                "end_time": 13.654545454545454,
                "pitch": 34,
                "velocity": 51,
                "duration": 0.18863636363636438,
                "tempo": 120.0
            },
            {
                "start_time": 13.672727272727272,
                "end_time": 13.85681818181818,
                "pitch": 32,
                "velocity": 51,
                "duration": 0.18409090909090864,
                "tempo": 120.0
            },
            {
                "start_time": 13.872727272727271,
                "end_time": 14.056818181818182,
                "pitch": 39,
                "velocity": 51,
                "duration": 0.18409090909091042,
                "tempo": 120.0
            },
            {
                "start_time": 14.072727272727272,
                "end_time": 14.256818181818181,
                "pitch": 30,
                "velocity": 51,
                "duration": 0.18409090909090864,
                "tempo": 120.0
            },
            {
                "start_time": 14.272727272727272,
                "end_time": 14.459090909090909,
                "pitch": 31,
                "velocity": 51,
                "duration": 0.1863636363636374,
                "tempo": 120.0
            },
            {
                "start_time": 14.475,
                "end_time": 14.659090909090908,
                "pitch": 40,
                "velocity": 51,
                "duration": 0.18409090909090864,
                "tempo": 120.0
            },
            {
                "start_time": 14.877272727272727,
                "end_time": 15.056818181818182,
                "pitch": 40,
                "velocity": 51,
                "duration": 0.17954545454545467,
                "tempo": 120.0
            },
            {
                "start_time": 15.075,
                "end_time": 15.254545454545454,
                "pitch": 40,
                "velocity": 51,
                "duration": 0.17954545454545467,
                "tempo": 120.0
            },
            {
                "start_time": 15.475,
                "end_time": 15.663636363636362,
                "pitch": 40,
                "velocity": 51,
                "duration": 0.1886363636363626,
                "tempo": 120.0
            },
            {
                "start_time": 15.679545454545453,
                "end_time": 15.863636363636363,
                "pitch": 42,
                "velocity": 51,
                "duration": 0.18409090909091042,
                "tempo": 120.0
            },
            {
                "start_time": 15.879545454545454,
                "end_time": 16.063636363636363,
                "pitch": 44,
                "velocity": 51,
                "duration": 0.18409090909090864,
                "tempo": 120.0
            },
            {
                "start_time": 16.079545454545453,
                "end_time": 16.261363636363637,
                "pitch": 40,
                "velocity": 51,
                "duration": 0.18181818181818343,
                "tempo": 120.0
            },
            {
                "start_time": 16.472727272727273,
                "end_time": 16.65681818181818,
                "pitch": 40,
                "velocity": 51,
                "duration": 0.18409090909090864,
                "tempo": 120.0
            },
            {
                "start_time": 16.672727272727272,
                "end_time": 16.85681818181818,
                "pitch": 40,
                "velocity": 51,
                "duration": 0.18409090909090864,
                "tempo": 120.0
            },
            {
                "start_time": 17.07272727272727,
                "end_time": 17.256818181818183,
                "pitch": 40,
                "velocity": 51,
                "duration": 0.1840909090909122,
                "tempo": 120.0
            },
            {
                "start_time": 17.272727272727273,
                "end_time": 17.461363636363636,
                "pitch": 39,
                "velocity": 51,
                "duration": 0.1886363636363626,
                "tempo": 120.0
            },
            {
                "start_time": 17.477272727272727,
                "end_time": 17.66590909090909,
                "pitch": 37,
                "velocity": 51,
                "duration": 0.1886363636363626,
                "tempo": 120.0
            },
            {
                "start_time": 17.68409090909091,
                "end_time": 18.270454545454545,
                "pitch": 32,
                "velocity": 51,
                "duration": 0.586363636363636,
                "tempo": 120.0
            },
            {
                "start_time": 18.286363636363635,
                "end_time": 18.470454545454544,
                "pitch": 32,
                "velocity": 51,
                "duration": 0.18409090909090864,
                "tempo": 120.0
            },
            {
                "start_time": 18.68181818181818,
                "end_time": 18.861363636363635,
                "pitch": 32,
                "velocity": 51,
                "duration": 0.17954545454545467,
                "tempo": 120.0
            },
            {
                "start_time": 18.879545454545454,
                "end_time": 19.06590909090909,
                "pitch": 35,
                "velocity": 51,
                "duration": 0.1863636363636374,
                "tempo": 120.0
            },
            {
                "start_time": 19.084090909090907,
                "end_time": 19.272727272727273,
                "pitch": 39,
                "velocity": 51,
                "duration": 0.18863636363636616,
                "tempo": 120.0
            },
            {
                "start_time": 19.288636363636364,
                "end_time": 19.46818181818182,
                "pitch": 32,
                "velocity": 51,
                "duration": 0.17954545454545467,
                "tempo": 120.0
            },
            {
                "start_time": 19.68181818181818,
                "end_time": 19.863636363636363,
                "pitch": 32,
                "velocity": 51,
                "duration": 0.18181818181818343,
                "tempo": 120.0
            },
            {
                "start_time": 19.88181818181818,
                "end_time": 20.063636363636363,
                "pitch": 32,
                "velocity": 51,
                "duration": 0.18181818181818343,
                "tempo": 120.0
            },
            {
                "start_time": 20.28181818181818,
                "end_time": 20.46818181818182,
                "pitch": 35,
                "velocity": 51,
                "duration": 0.1863636363636374,
                "tempo": 120.0
            },
            {
                "start_time": 20.48409090909091,
                "end_time": 20.672727272727272,
                "pitch": 42,
                "velocity": 51,
                "duration": 0.1886363636363626,
                "tempo": 120.0
            },
            {
                "start_time": 20.688636363636363,
                "end_time": 20.877272727272725,
                "pitch": 41,
                "velocity": 51,
                "duration": 0.1886363636363626,
                "tempo": 120.0
            },
            {
                "start_time": 20.895454545454545,
                "end_time": 21.075,
                "pitch": 40,
                "velocity": 51,
                "duration": 0.17954545454545467,
                "tempo": 120.0
            },
            {
                "start_time": 21.286363636363635,
                "end_time": 21.470454545454544,
                "pitch": 40,
                "velocity": 51,
                "duration": 0.18409090909090864,
                "tempo": 120.0
            },
            {
                "start_time": 21.488636363636363,
                "end_time": 21.672727272727272,
                "pitch": 40,
                "velocity": 51,
                "duration": 0.18409090909090864,
                "tempo": 120.0
            },
            {
                "start_time": 21.888636363636362,
                "end_time": 22.07272727272727,
                "pitch": 40,
                "velocity": 51,
                "duration": 0.18409090909090864,
                "tempo": 120.0
            },
            {
                "start_time": 22.08863636363636,
                "end_time": 22.277272727272727,
                "pitch": 42,
                "velocity": 51,
                "duration": 0.18863636363636616,
                "tempo": 120.0
            },
            {
                "start_time": 22.295454545454543,
                "end_time": 22.48181818181818,
                "pitch": 44,
                "velocity": 51,
                "duration": 0.1863636363636374,
                "tempo": 120.0
            },
            {
                "start_time": 22.5,
                "end_time": 22.679545454545455,
                "pitch": 40,
                "velocity": 51,
                "duration": 0.17954545454545467,
                "tempo": 120.0
            },
            {
                "start_time": 22.893181818181816,
                "end_time": 23.075,
                "pitch": 40,
                "velocity": 51,
                "duration": 0.18181818181818343,
                "tempo": 120.0
            },
            {
                "start_time": 23.09318181818182,
                "end_time": 23.275,
                "pitch": 40,
                "velocity": 51,
                "duration": 0.18181818181817988,
                "tempo": 120.0
            },
            {
                "start_time": 23.493181818181817,
                "end_time": 23.677272727272726,
                "pitch": 40,
                "velocity": 51,
                "duration": 0.18409090909090864,
                "tempo": 120.0
            },
            {
                "start_time": 23.695454545454545,
                "end_time": 23.877272727272725,
                "pitch": 39,
                "velocity": 51,
                "duration": 0.18181818181817988,
                "tempo": 120.0
            },
            {
                "start_time": 23.895454545454545,
                "end_time": 24.077272727272724,
                "pitch": 37,
                "velocity": 51,
                "duration": 0.18181818181817988,
                "tempo": 120.0
            },
            {
                "start_time": 24.095454545454544,
                "end_time": 24.28181818181818,
                "pitch": 32,
                "velocity": 51,
                "duration": 0.1863636363636374,
                "tempo": 120.0
            },
            {
                "start_time": 24.299999999999997,
                "end_time": 24.488636363636363,
                "pitch": 32,
                "velocity": 51,
                "duration": 0.18863636363636616,
                "tempo": 120.0
            },
            {
                "start_time": 24.695454545454545,
                "end_time": 24.87272727272727,
                "pitch": 32,
                "velocity": 51,
                "duration": 0.17727272727272592,
                "tempo": 120.0
            },
            {
                "start_time": 25.08863636363636,
                "end_time": 25.27272727272727,
                "pitch": 37,
                "velocity": 51,
                "duration": 0.18409090909090864,
                "tempo": 120.0
            },
            {
                "start_time": 25.29090909090909,
                "end_time": 25.472727272727273,
                "pitch": 37,
                "velocity": 51,
                "duration": 0.18181818181818343,
                "tempo": 120.0
            },
            {
                "start_time": 25.49090909090909,
                "end_time": 25.672727272727272,
                "pitch": 37,
                "velocity": 51,
                "duration": 0.18181818181818343,
                "tempo": 120.0
            },
            {
                "start_time": 25.69090909090909,
                "end_time": 25.88181818181818,
                "pitch": 39,
                "velocity": 51,
                "duration": 0.1909090909090878,
                "tempo": 120.0
            },
            {
                "start_time": 25.9,
                "end_time": 26.093181818181815,
                "pitch": 39,
                "velocity": 51,
                "duration": 0.19318181818181657,
                "tempo": 120.0
            },
            {
                "start_time": 26.111363636363635,
                "end_time": 26.286363636363635,
                "pitch": 39,
                "velocity": 51,
                "duration": 0.1750000000000007,
                "tempo": 120.0
            },
            {
                "start_time": 26.302272727272726,
                "end_time": 26.477272727272727,
                "pitch": 39,
                "velocity": 51,
                "duration": 0.1750000000000007,
                "tempo": 120.0
            },
            {
                "start_time": 26.693181818181817,
                "end_time": 26.877272727272725,
                "pitch": 39,
                "velocity": 51,
                "duration": 0.18409090909090864,
                "tempo": 120.0
            },
            {
                "start_time": 26.893181818181816,
                "end_time": 27.081818181818182,
                "pitch": 42,
                "velocity": 51,
                "duration": 0.18863636363636616,
                "tempo": 120.0
            },
            {
                "start_time": 27.099999999999998,
                "end_time": 27.286363636363635,
                "pitch": 43,
                "velocity": 51,
                "duration": 0.1863636363636374,
                "tempo": 120.0
            },
            {
                "start_time": 27.304545454545455,
                "end_time": 27.488636363636363,
                "pitch": 44,
                "velocity": 51,
                "duration": 0.18409090909090864,
                "tempo": 120.0
            },
            {
                "start_time": 27.50681818181818,
                "end_time": 27.886363636363637,
                "pitch": 39,
                "velocity": 51,
                "duration": 0.3795454545454575,
                "tempo": 120.0
            },
            {
                "start_time": 27.904545454545453,
                "end_time": 28.284090909090907,
                "pitch": 32,
                "velocity": 51,
                "duration": 0.37954545454545396,
                "tempo": 120.0
            },
            {
                "start_time": 28.299999999999997,
                "end_time": 28.48409090909091,
                "pitch": 35,
                "velocity": 51,
                "duration": 0.1840909090909122,
                "tempo": 120.0
            },
            {
                "start_time": 28.5,
                "end_time": 28.693181818181817,
                "pitch": 37,
                "velocity": 51,
                "duration": 0.19318181818181657,
                "tempo": 120.0
            },
            {
                "start_time": 28.709090909090907,
                "end_time": 28.904545454545453,
                "pitch": 35,
                "velocity": 51,
                "duration": 0.19545454545454533,
                "tempo": 120.0
            },
            {
                "start_time": 28.920454545454543,
                "end_time": 29.493181818181817,
                "pitch": 35,
                "velocity": 51,
                "duration": 0.5727272727272741,
                "tempo": 120.0
            },
            {
                "start_time": 29.509090909090908,
                "end_time": 29.688636363636363,
                "pitch": 34,
                "velocity": 51,
                "duration": 0.17954545454545467,
                "tempo": 120.0
            },
            {
                "start_time": 29.91590909090909,
                "end_time": 30.10909090909091,
                "pitch": 39,
                "velocity": 51,
                "duration": 0.19318181818182012,
                "tempo": 120.0
            },
            {
                "start_time": 30.127272727272725,
                "end_time": 30.30681818181818,
                "pitch": 42,
                "velocity": 51,
                "duration": 0.17954545454545467,
                "tempo": 120.0
            },
            {
                "start_time": 30.325,
                "end_time": 30.504545454545454,
                "pitch": 43,
                "velocity": 51,
                "duration": 0.17954545454545467,
                "tempo": 120.0
            },
            {
                "start_time": 30.520454545454545,
                "end_time": 30.702272727272724,
                "pitch": 44,
                "velocity": 51,
                "duration": 0.18181818181817988,
                "tempo": 120.0
            },
            {
                "start_time": 30.720454545454544,
                "end_time": 31.099999999999998,
                "pitch": 39,
                "velocity": 51,
                "duration": 0.37954545454545396,
                "tempo": 120.0
            },
            {
                "start_time": 31.11590909090909,
                "end_time": 31.495454545454542,
                "pitch": 32,
                "velocity": 51,
                "duration": 0.37954545454545396,
                "tempo": 120.0
            },
            {
                "start_time": 31.511363636363633,
                "end_time": 31.695454545454545,
                "pitch": 35,
                "velocity": 51,
                "duration": 0.1840909090909122,
                "tempo": 120.0
            },
            {
                "start_time": 31.711363636363636,
                "end_time": 31.9,
                "pitch": 37,
                "velocity": 51,
                "duration": 0.1886363636363626,
                "tempo": 120.0
            },
            {
                "start_time": 31.918181818181818,
                "end_time": 32.10454545454545,
                "pitch": 35,
                "velocity": 51,
                "duration": 0.18636363636363384,
                "tempo": 120.0
            },
            {
                "start_time": 32.12272727272727,
                "end_time": 32.70227272727273,
                "pitch": 35,
                "velocity": 51,
                "duration": 0.5795454545454604,
                "tempo": 120.0
            },
            {
                "start_time": 32.71818181818182,
                "end_time": 32.89772727272727,
                "pitch": 34,
                "velocity": 51,
                "duration": 0.17954545454545467,
                "tempo": 120.0
            },
            {
                "start_time": 33.12045454545454,
                "end_time": 33.309090909090905,
                "pitch": 39,
                "velocity": 51,
                "duration": 0.1886363636363626,
                "tempo": 120.0
            },
            {
                "start_time": 33.324999999999996,
                "end_time": 33.513636363636365,
                "pitch": 42,
                "velocity": 51,
                "duration": 0.1886363636363697,
                "tempo": 120.0
            },
            {
                "start_time": 33.53181818181818,
                "end_time": 33.720454545454544,
                "pitch": 43,
                "velocity": 51,
                "duration": 0.1886363636363626,
                "tempo": 120.0
            },
            {
                "start_time": 33.736363636363635,
                "end_time": 33.92045454545455,
                "pitch": 32,
                "velocity": 51,
                "duration": 0.1840909090909122,
                "tempo": 120.0
            },
            {
                "start_time": 33.93636363636364,
                "end_time": 34.12045454545454,
                "pitch": 34,
                "velocity": 51,
                "duration": 0.18409090909090509,
                "tempo": 120.0
            },
            {
                "start_time": 34.13636363636363,
                "end_time": 34.31818181818181,
                "pitch": 35,
                "velocity": 51,
                "duration": 0.18181818181817988,
                "tempo": 120.0
            },
            {
                "start_time": 34.33409090909091,
                "end_time": 34.513636363636365,
                "pitch": 38,
                "velocity": 51,
                "duration": 0.17954545454545467,
                "tempo": 120.0
            },
            {
                "start_time": 34.529545454545456,
                "end_time": 34.71363636363636,
                "pitch": 39,
                "velocity": 51,
                "duration": 0.18409090909090509,
                "tempo": 120.0
            },
            {
                "start_time": 34.72954545454545,
                "end_time": 34.913636363636364,
                "pitch": 43,
                "velocity": 51,
                "duration": 0.1840909090909122,
                "tempo": 120.0
            },
            {
                "start_time": 34.929545454545455,
                "end_time": 35.10909090909091,
                "pitch": 44,
                "velocity": 51,
                "duration": 0.17954545454545467,
                "tempo": 120.0
            },
            {
                "start_time": 35.125,
                "end_time": 35.304545454545455,
                "pitch": 46,
                "velocity": 51,
                "duration": 0.17954545454545467,
                "tempo": 120.0
            },
            {
                "start_time": 35.320454545454545,
                "end_time": 35.50909090909091,
                "pitch": 47,
                "velocity": 51,
                "duration": 0.1886363636363626,
                "tempo": 120.0
            },
            {
                "start_time": 35.527272727272724,
                "end_time": 35.715909090909086,
                "pitch": 49,
                "velocity": 51,
                "duration": 0.1886363636363626,
                "tempo": 120.0
            },
            {
                "start_time": 35.73181818181818,
                "end_time": 35.91590909090909,
                "pitch": 46,
                "velocity": 51,
                "duration": 0.1840909090909122,
                "tempo": 120.0
            },
            {
                "start_time": 35.93181818181818,
                "end_time": 36.11590909090909,
                "pitch": 44,
                "velocity": 51,
                "duration": 0.1840909090909122,
                "tempo": 120.0
            },
            {
                "start_time": 36.13181818181818,
                "end_time": 36.31136363636364,
                "pitch": 43,
                "velocity": 51,
                "duration": 0.17954545454545467,
                "tempo": 120.0
            },
            {
                "start_time": 36.32727272727273,
                "end_time": 36.50909090909091,
                "pitch": 39,
                "velocity": 51,
                "duration": 0.18181818181817988,
                "tempo": 120.0
            },
            {
                "start_time": 36.525,
                "end_time": 36.711363636363636,
                "pitch": 43,
                "velocity": 51,
                "duration": 0.1863636363636374,
                "tempo": 120.0
            },
            {
                "start_time": 36.72954545454545,
                "end_time": 36.918181818181814,
                "pitch": 46,
                "velocity": 51,
                "duration": 0.1886363636363626,
                "tempo": 120.0
            },
            {
                "start_time": 37.14090909090909,
                "end_time": 37.32954545454545,
                "pitch": 44,
                "velocity": 51,
                "duration": 0.1886363636363626,
                "tempo": 120.0
            },
            {
                "start_time": 37.54545454545455,
                "end_time": 37.72954545454545,
                "pitch": 44,
                "velocity": 51,
                "duration": 0.18409090909090509,
                "tempo": 120.0
            },
            {
                "start_time": 37.945454545454545,
                "end_time": 38.12954545454545,
                "pitch": 44,
                "velocity": 51,
                "duration": 0.18409090909090509,
                "tempo": 120.0
            },
            {
                "start_time": 38.34772727272727,
                "end_time": 38.53181818181818,
                "pitch": 44,
                "velocity": 51,
                "duration": 0.1840909090909122,
                "tempo": 120.0
            },
            {
                "start_time": 38.55,
                "end_time": 38.73181818181818,
                "pitch": 38,
                "velocity": 51,
                "duration": 0.18181818181817988,
                "tempo": 120.0
            },
            {
                "start_time": 38.75,
                "end_time": 38.93181818181818,
                "pitch": 39,
                "velocity": 51,
                "duration": 0.18181818181817988,
                "tempo": 120.0
            },
            {
                "start_time": 38.949999999999996,
                "end_time": 39.12954545454545,
                "pitch": 42,
                "velocity": 51,
                "duration": 0.17954545454545467,
                "tempo": 120.0
            },
            {
                "start_time": 39.14545454545454,
                "end_time": 39.324999999999996,
                "pitch": 43,
                "velocity": 51,
                "duration": 0.17954545454545467,
                "tempo": 120.0
            },
            {
                "start_time": 39.340909090909086,
                "end_time": 39.52045454545454,
                "pitch": 44,
                "velocity": 51,
                "duration": 0.17954545454545467,
                "tempo": 120.0
            },
            {
                "start_time": 39.53636363636363,
                "end_time": 39.71818181818182,
                "pitch": 42,
                "velocity": 51,
                "duration": 0.18181818181818699,
                "tempo": 120.0
            },
            {
                "start_time": 39.73409090909091,
                "end_time": 39.925,
                "pitch": 39,
                "velocity": 51,
                "duration": 0.1909090909090878,
                "tempo": 120.0
            },
            {
                "start_time": 39.94318181818181,
                "end_time": 40.13636363636363,
                "pitch": 34,
                "velocity": 51,
                "duration": 0.19318181818182012,
                "tempo": 120.0
            },
            {
                "start_time": 40.154545454545456,
                "end_time": 40.54090909090909,
                "pitch": 32,
                "velocity": 51,
                "duration": 0.38636363636363313,
                "tempo": 120.0
            },
            {
                "start_time": 40.559090909090905,
                "end_time": 40.74090909090909,
                "pitch": 35,
                "velocity": 51,
                "duration": 0.18181818181818699,
                "tempo": 120.0
            },
            {
                "start_time": 40.75909090909091,
                "end_time": 40.94090909090909,
                "pitch": 32,
                "velocity": 51,
                "duration": 0.18181818181817988,
                "tempo": 120.0
            },
            {
                "start_time": 40.959090909090904,
                "end_time": 41.14090909090909,
                "pitch": 35,
                "velocity": 51,
                "duration": 0.18181818181818699,
                "tempo": 120.0
            },
            {
                "start_time": 41.15909090909091,
                "end_time": 41.340909090909086,
                "pitch": 39,
                "velocity": 51,
                "duration": 0.18181818181817988,
                "tempo": 120.0
            },
            {
                "start_time": 41.35909090909091,
                "end_time": 41.54090909090909,
                "pitch": 32,
                "velocity": 51,
                "duration": 0.18181818181817988,
                "tempo": 120.0
            },
            {
                "start_time": 41.559090909090905,
                "end_time": 41.74090909090909,
                "pitch": 30,
                "velocity": 51,
                "duration": 0.18181818181818699,
                "tempo": 120.0
            },
            {
                "start_time": 41.75909090909091,
                "end_time": 42.13409090909091,
                "pitch": 32,
                "velocity": 51,
                "duration": 0.375,
                "tempo": 120.0
            },
            {
                "start_time": 42.15,
                "end_time": 42.33863636363636,
                "pitch": 35,
                "velocity": 51,
                "duration": 0.1886363636363626,
                "tempo": 120.0
            },
            {
                "start_time": 42.35454545454545,
                "end_time": 42.543181818181814,
                "pitch": 32,
                "velocity": 51,
                "duration": 0.1886363636363626,
                "tempo": 120.0
            },
            {
                "start_time": 42.56136363636364,
                "end_time": 42.74545454545454,
                "pitch": 35,
                "velocity": 51,
                "duration": 0.18409090909090509,
                "tempo": 120.0
            },
            {
                "start_time": 42.76136363636363,
                "end_time": 42.945454545454545,
                "pitch": 39,
                "velocity": 51,
                "duration": 0.1840909090909122,
                "tempo": 120.0
            },
            {
                "start_time": 42.961363636363636,
                "end_time": 43.14545454545454,
                "pitch": 30,
                "velocity": 51,
                "duration": 0.18409090909090509,
                "tempo": 120.0
            },
            {
                "start_time": 43.16136363636363,
                "end_time": 43.345454545454544,
                "pitch": 31,
                "velocity": 51,
                "duration": 0.1840909090909122,
                "tempo": 120.0
            },
            {
                "start_time": 43.361363636363635,
                "end_time": 44.14545454545454,
                "pitch": 32,
                "velocity": 51,
                "duration": 0.7840909090909065,
                "tempo": 120.0
            },
            {
                "start_time": 44.16136363636363,
                "end_time": 44.94772727272727,
                "pitch": 32,
                "velocity": 51,
                "duration": 0.7863636363636388,
                "tempo": 120.0
            },
            {
                "start_time": 44.96363636363636,
                "end_time": 45.34772727272727,
                "pitch": 32,
                "velocity": 51,
                "duration": 0.38409090909090793,
                "tempo": 120.0
            },
            {
                "start_time": 45.36363636363636,
                "end_time": 45.54772727272727,
                "pitch": 35,
                "velocity": 51,
                "duration": 0.1840909090909122,
                "tempo": 120.0
            },
            {
                "start_time": 45.56363636363636,
                "end_time": 45.74772727272727,
                "pitch": 34,
                "velocity": 51,
                "duration": 0.18409090909090509,
                "tempo": 120.0
            },
            {
                "start_time": 45.76363636363636,
                "end_time": 45.94772727272727,
                "pitch": 32,
                "velocity": 51,
                "duration": 0.1840909090909122,
                "tempo": 120.0
            },
            {
                "start_time": 45.96363636363636,
                "end_time": 46.14772727272727,
                "pitch": 39,
                "velocity": 51,
                "duration": 0.1840909090909122,
                "tempo": 120.0
            },
            {
                "start_time": 46.163636363636364,
                "end_time": 46.34772727272727,
                "pitch": 30,
                "velocity": 51,
                "duration": 0.18409090909090509,
                "tempo": 120.0
            },
            {
                "start_time": 46.36590909090909,
                "end_time": 46.55,
                "pitch": 31,
                "velocity": 51,
                "duration": 0.18409090909090509,
                "tempo": 120.0
            },
            {
                "start_time": 46.56590909090909,
                "end_time": 46.94318181818181,
                "pitch": 32,
                "velocity": 51,
                "duration": 0.3772727272727252,
                "tempo": 120.0
            },
            {
                "start_time": 46.959090909090904,
                "end_time": 47.14545454545454,
                "pitch": 35,
                "velocity": 51,
                "duration": 0.1863636363636374,
                "tempo": 120.0
            },
            {
                "start_time": 47.163636363636364,
                "end_time": 47.35227272727273,
                "pitch": 32,
                "velocity": 51,
                "duration": 0.1886363636363626,
                "tempo": 120.0
            },
            {
                "start_time": 47.36818181818182,
                "end_time": 47.55227272727272,
                "pitch": 35,
                "velocity": 51,
                "duration": 0.18409090909090509,
                "tempo": 120.0
            },
            {
                "start_time": 47.570454545454545,
                "end_time": 47.752272727272725,
                "pitch": 39,
                "velocity": 51,
                "duration": 0.18181818181817988,
                "tempo": 120.0
            },
            {
                "start_time": 47.77045454545454,
                "end_time": 47.95227272727273,
                "pitch": 32,
                "velocity": 51,
                "duration": 0.18181818181818699,
                "tempo": 120.0
            },
            {
                "start_time": 47.970454545454544,
                "end_time": 48.152272727272724,
                "pitch": 30,
                "velocity": 51,
                "duration": 0.18181818181817988,
                "tempo": 120.0
            },
            {
                "start_time": 48.17045454545454,
                "end_time": 48.54545454545454,
                "pitch": 32,
                "velocity": 51,
                "duration": 0.375,
                "tempo": 120.0
            },
            {
                "start_time": 48.56136363636364,
                "end_time": 48.75,
                "pitch": 35,
                "velocity": 51,
                "duration": 0.1886363636363626,
                "tempo": 120.0
            },
            {
                "start_time": 48.76590909090909,
                "end_time": 48.95454545454545,
                "pitch": 32,
                "velocity": 51,
                "duration": 0.1886363636363626,
                "tempo": 120.0
            },
            {
                "start_time": 48.97272727272727,
                "end_time": 49.15681818181818,
                "pitch": 35,
                "velocity": 51,
                "duration": 0.1840909090909122,
                "tempo": 120.0
            },
            {
                "start_time": 49.17272727272727,
                "end_time": 49.35681818181818,
                "pitch": 39,
                "velocity": 51,
                "duration": 0.18409090909090509,
                "tempo": 120.0
            },
            {
                "start_time": 49.37272727272727,
                "end_time": 49.55681818181818,
                "pitch": 30,
                "velocity": 51,
                "duration": 0.1840909090909122,
                "tempo": 120.0
            },
            {
                "start_time": 49.57272727272727,
                "end_time": 49.75681818181818,
                "pitch": 31,
                "velocity": 51,
                "duration": 0.1840909090909122,
                "tempo": 120.0
            },
            {
                "start_time": 49.77272727272727,
                "end_time": 50.54090909090909,
                "pitch": 32,
                "velocity": 51,
                "duration": 0.7681818181818159,
                "tempo": 120.0
            },
            {
                "start_time": 50.55681818181818,
                "end_time": 51.34318181818182,
                "pitch": 32,
                "velocity": 51,
                "duration": 0.7863636363636388,
                "tempo": 120.0
            },
            {
                "start_time": 51.35909090909091,
                "end_time": 51.752272727272725,
                "pitch": 32,
                "velocity": 51,
                "duration": 0.39318181818181586,
                "tempo": 120.0
            },
            {
                "start_time": 51.77045454545454,
                "end_time": 51.959090909090904,
                "pitch": 35,
                "velocity": 51,
                "duration": 0.1886363636363626,
                "tempo": 120.0
            },
            {
                "start_time": 51.974999999999994,
                "end_time": 52.163636363636364,
                "pitch": 34,
                "velocity": 51,
                "duration": 0.1886363636363697,
                "tempo": 120.0
            },
            {
                "start_time": 52.18181818181818,
                "end_time": 52.365909090909085,
                "pitch": 32,
                "velocity": 51,
                "duration": 0.18409090909090509,
                "tempo": 120.0
            },
            {
                "start_time": 52.38409090909091,
                "end_time": 52.56818181818181,
                "pitch": 39,
                "velocity": 51,
                "duration": 0.18409090909090509,
                "tempo": 120.0
            },
            {
                "start_time": 52.584090909090904,
                "end_time": 52.768181818181816,
                "pitch": 30,
                "velocity": 51,
                "duration": 0.1840909090909122,
                "tempo": 120.0
            },
            {
                "start_time": 52.78409090909091,
                "end_time": 52.96818181818182,
                "pitch": 31,
                "velocity": 51,
                "duration": 0.1840909090909122,
                "tempo": 120.0
            },
            {
                "start_time": 52.98409090909091,
                "end_time": 53.168181818181814,
                "pitch": 40,
                "velocity": 51,
                "duration": 0.18409090909090509,
                "tempo": 120.0
            },
            {
                "start_time": 53.38409090909091,
                "end_time": 53.56363636363636,
                "pitch": 40,
                "velocity": 51,
                "duration": 0.17954545454545467,
                "tempo": 120.0
            },
            {
                "start_time": 53.58181818181818,
                "end_time": 53.76136363636363,
                "pitch": 40,
                "velocity": 51,
                "duration": 0.17954545454545467,
                "tempo": 120.0
            },
            {
                "start_time": 53.97727272727273,
                "end_time": 54.15909090909091,
                "pitch": 40,
                "velocity": 51,
                "duration": 0.18181818181817988,
                "tempo": 120.0
            },
            {
                "start_time": 54.17727272727272,
                "end_time": 54.36363636363636,
                "pitch": 42,
                "velocity": 51,
                "duration": 0.1863636363636374,
                "tempo": 120.0
            },
            {
                "start_time": 54.38181818181818,
                "end_time": 54.570454545454545,
                "pitch": 44,
                "velocity": 51,
                "duration": 0.1886363636363626,
                "tempo": 120.0
            },
            {
                "start_time": 54.586363636363636,
                "end_time": 54.768181818181816,
                "pitch": 40,
                "velocity": 51,
                "duration": 0.18181818181817988,
                "tempo": 120.0
            },
            {
                "start_time": 54.97954545454545,
                "end_time": 55.163636363636364,
                "pitch": 40,
                "velocity": 51,
                "duration": 0.1840909090909122,
                "tempo": 120.0
            },
            {
                "start_time": 55.18181818181818,
                "end_time": 55.365909090909085,
                "pitch": 40,
                "velocity": 51,
                "duration": 0.18409090909090509,
                "tempo": 120.0
            },
            {
                "start_time": 55.58181818181818,
                "end_time": 55.76590909090909,
                "pitch": 40,
                "velocity": 51,
                "duration": 0.1840909090909122,
                "tempo": 120.0
            },
            {
                "start_time": 55.78181818181818,
                "end_time": 55.970454545454544,
                "pitch": 39,
                "velocity": 51,
                "duration": 0.1886363636363626,
                "tempo": 120.0
            },
            {
                "start_time": 55.986363636363635,
                "end_time": 56.175,
                "pitch": 37,
                "velocity": 51,
                "duration": 0.1886363636363626,
                "tempo": 120.0
            },
            {
                "start_time": 56.19318181818181,
                "end_time": 56.77272727272727,
                "pitch": 32,
                "velocity": 51,
                "duration": 0.5795454545454604,
                "tempo": 120.0
            },
            {
                "start_time": 56.79090909090909,
                "end_time": 56.97727272727273,
                "pitch": 32,
                "velocity": 51,
                "duration": 0.1863636363636374,
                "tempo": 120.0
            },
            {
                "start_time": 57.195454545454545,
                "end_time": 57.37954545454545,
                "pitch": 32,
                "velocity": 51,
                "duration": 0.18409090909090509,
                "tempo": 120.0
            },
            {
                "start_time": 57.39545454545454,
                "end_time": 57.57954545454545,
                "pitch": 35,
                "velocity": 51,
                "duration": 0.1840909090909122,
                "tempo": 120.0
            },
            {
                "start_time": 57.595454545454544,
                "end_time": 57.77954545454545,
                "pitch": 39,
                "velocity": 51,
                "duration": 0.18409090909090509,
                "tempo": 120.0
            },
            {
                "start_time": 57.79545454545454,
                "end_time": 57.974999999999994,
                "pitch": 32,
                "velocity": 51,
                "duration": 0.17954545454545467,
                "tempo": 120.0
            },
            {
                "start_time": 58.18863636363636,
                "end_time": 58.37045454545454,
                "pitch": 32,
                "velocity": 51,
                "duration": 0.18181818181817988,
                "tempo": 120.0
            },
            {
                "start_time": 58.38863636363636,
                "end_time": 58.570454545454545,
                "pitch": 32,
                "velocity": 51,
                "duration": 0.18181818181818699,
                "tempo": 120.0
            },
            {
                "start_time": 58.788636363636364,
                "end_time": 58.970454545454544,
                "pitch": 35,
                "velocity": 51,
                "duration": 0.18181818181817988,
                "tempo": 120.0
            },
            {
                "start_time": 58.98863636363636,
                "end_time": 59.175,
                "pitch": 42,
                "velocity": 51,
                "duration": 0.1863636363636374,
                "tempo": 120.0
            },
            {
                "start_time": 59.19318181818181,
                "end_time": 59.381818181818176,
                "pitch": 41,
                "velocity": 51,
                "duration": 0.1886363636363626,
                "tempo": 120.0
            },
            {
                "start_time": 59.39772727272727,
                "end_time": 59.57954545454545,
                "pitch": 40,
                "velocity": 51,
                "duration": 0.18181818181817988,
                "tempo": 120.0
            },
            {
                "start_time": 59.79090909090909,
                "end_time": 59.974999999999994,
                "pitch": 40,
                "velocity": 51,
                "duration": 0.18409090909090509,
                "tempo": 120.0
            },
            {
                "start_time": 59.990909090909085,
                "end_time": 60.175,
                "pitch": 40,
                "velocity": 51,
                "duration": 0.1840909090909122,
                "tempo": 120.0
            },
            {
                "start_time": 60.39090909090909,
                "end_time": 60.574999999999996,
                "pitch": 40,
                "velocity": 51,
                "duration": 0.18409090909090509,
                "tempo": 120.0
            },
            {
                "start_time": 60.590909090909086,
                "end_time": 60.77954545454545,
                "pitch": 42,
                "velocity": 51,
                "duration": 0.1886363636363626,
                "tempo": 120.0
            },
            {
                "start_time": 60.79545454545454,
                "end_time": 60.98409090909091,
                "pitch": 44,
                "velocity": 51,
                "duration": 0.1886363636363697,
                "tempo": 120.0
            },
            {
                "start_time": 61.002272727272725,
                "end_time": 61.18181818181818,
                "pitch": 40,
                "velocity": 51,
                "duration": 0.17954545454545467,
                "tempo": 120.0
            },
            {
                "start_time": 61.393181818181816,
                "end_time": 61.57727272727272,
                "pitch": 40,
                "velocity": 51,
                "duration": 0.18409090909090509,
                "tempo": 120.0
            },
            {
                "start_time": 61.59318181818182,
                "end_time": 61.777272727272724,
                "pitch": 40,
                "velocity": 51,
                "duration": 0.18409090909090509,
                "tempo": 120.0
            },
            {
                "start_time": 61.99318181818182,
                "end_time": 62.17727272727272,
                "pitch": 40,
                "velocity": 51,
                "duration": 0.18409090909090509,
                "tempo": 120.0
            },
            {
                "start_time": 62.19318181818181,
                "end_time": 62.377272727272725,
                "pitch": 39,
                "velocity": 51,
                "duration": 0.1840909090909122,
                "tempo": 120.0
            },
            {
                "start_time": 62.393181818181816,
                "end_time": 62.57727272727272,
                "pitch": 37,
                "velocity": 51,
                "duration": 0.18409090909090509,
                "tempo": 120.0
            },
            {
                "start_time": 62.59318181818181,
                "end_time": 62.78181818181818,
                "pitch": 32,
                "velocity": 51,
                "duration": 0.1886363636363697,
                "tempo": 120.0
            },
            {
                "start_time": 62.79772727272727,
                "end_time": 62.986363636363635,
                "pitch": 32,
                "velocity": 51,
                "duration": 0.1886363636363626,
                "tempo": 120.0
            },
            {
                "start_time": 63.195454545454545,
                "end_time": 63.37045454545454,
                "pitch": 32,
                "velocity": 51,
                "duration": 0.17499999999999716,
                "tempo": 120.0
            },
            {
                "start_time": 63.58863636363636,
                "end_time": 63.772727272727266,
                "pitch": 37,
                "velocity": 51,
                "duration": 0.18409090909090509,
                "tempo": 120.0
            },
            {
                "start_time": 63.788636363636364,
                "end_time": 63.97272727272727,
                "pitch": 37,
                "velocity": 51,
                "duration": 0.18409090909090509,
                "tempo": 120.0
            },
            {
                "start_time": 63.98863636363636,
                "end_time": 64.17272727272727,
                "pitch": 37,
                "velocity": 51,
                "duration": 0.1840909090909122,
                "tempo": 120.0
            },
            {
                "start_time": 64.18863636363636,
                "end_time": 64.38181818181818,
                "pitch": 39,
                "velocity": 51,
                "duration": 0.19318181818181301,
                "tempo": 120.0
            },
            {
                "start_time": 64.39999999999999,
                "end_time": 64.59318181818182,
                "pitch": 39,
                "velocity": 51,
                "duration": 0.19318181818182723,
                "tempo": 120.0
            },
            {
                "start_time": 64.61136363636363,
                "end_time": 64.78636363636363,
                "pitch": 39,
                "velocity": 51,
                "duration": 0.17499999999999716,
                "tempo": 120.0
            },
            {
                "start_time": 64.80227272727272,
                "end_time": 64.97727272727272,
                "pitch": 39,
                "velocity": 51,
                "duration": 0.17499999999999716,
                "tempo": 120.0
            },
            {
                "start_time": 65.19318181818181,
                "end_time": 65.375,
                "pitch": 39,
                "velocity": 51,
                "duration": 0.18181818181818699,
                "tempo": 120.0
            },
            {
                "start_time": 65.39318181818182,
                "end_time": 65.5840909090909,
                "pitch": 42,
                "velocity": 51,
                "duration": 0.1909090909090878,
                "tempo": 120.0
            },
            {
                "start_time": 65.60227272727272,
                "end_time": 65.79545454545455,
                "pitch": 43,
                "velocity": 51,
                "duration": 0.19318181818182723,
                "tempo": 120.0
            },
            {
                "start_time": 65.81363636363636,
                "end_time": 65.99545454545454,
                "pitch": 44,
                "velocity": 51,
                "duration": 0.18181818181817277,
                "tempo": 120.0
            },
            {
                "start_time": 66.01136363636364,
                "end_time": 66.38636363636364,
                "pitch": 39,
                "velocity": 51,
                "duration": 0.375,
                "tempo": 120.0
            },
            {
                "start_time": 66.40227272727273,
                "end_time": 66.7840909090909,
                "pitch": 32,
                "velocity": 51,
                "duration": 0.3818181818181756,
                "tempo": 120.0
            },
            {
                "start_time": 66.8,
                "end_time": 66.98409090909091,
                "pitch": 35,
                "velocity": 51,
                "duration": 0.1840909090909122,
                "tempo": 120.0
            },
            {
                "start_time": 67.00227272727273,
                "end_time": 67.19090909090909,
                "pitch": 37,
                "velocity": 51,
                "duration": 0.1886363636363626,
                "tempo": 120.0
            },
            {
                "start_time": 67.20681818181818,
                "end_time": 67.39545454545454,
                "pitch": 35,
                "velocity": 51,
                "duration": 0.1886363636363626,
                "tempo": 120.0
            },
            {
                "start_time": 67.41136363636363,
                "end_time": 67.99318181818181,
                "pitch": 35,
                "velocity": 51,
                "duration": 0.5818181818181785,
                "tempo": 120.0
            },
            {
                "start_time": 68.0090909090909,
                "end_time": 68.18863636363636,
                "pitch": 34,
                "velocity": 51,
                "duration": 0.17954545454546178,
                "tempo": 120.0
            },
            {
                "start_time": 68.4090909090909,
                "end_time": 68.59772727272727,
                "pitch": 39,
                "velocity": 51,
                "duration": 0.1886363636363626,
                "tempo": 120.0
            },
            {
                "start_time": 68.61590909090908,
                "end_time": 68.8,
                "pitch": 42,
                "velocity": 51,
                "duration": 0.1840909090909122,
                "tempo": 120.0
            },
            {
                "start_time": 68.81590909090909,
                "end_time": 69.0,
                "pitch": 43,
                "velocity": 51,
                "duration": 0.1840909090909122,
                "tempo": 120.0
            },
            {
                "start_time": 69.01590909090909,
                "end_time": 69.2,
                "pitch": 44,
                "velocity": 51,
                "duration": 0.1840909090909122,
                "tempo": 120.0
            },
            {
                "start_time": 69.2159090909091,
                "end_time": 69.59772727272727,
                "pitch": 39,
                "velocity": 51,
                "duration": 0.3818181818181756,
                "tempo": 120.0
            },
            {
                "start_time": 69.61363636363636,
                "end_time": 69.99318181818181,
                "pitch": 32,
                "velocity": 51,
                "duration": 0.3795454545454504,
                "tempo": 120.0
            },
            {
                "start_time": 70.01136363636363,
                "end_time": 70.19318181818181,
                "pitch": 35,
                "velocity": 51,
                "duration": 0.18181818181818699,
                "tempo": 120.0
            },
            {
                "start_time": 70.21136363636363,
                "end_time": 70.39772727272727,
                "pitch": 37,
                "velocity": 51,
                "duration": 0.1863636363636374,
                "tempo": 120.0
            },
            {
                "start_time": 70.41590909090908,
                "end_time": 70.60454545454544,
                "pitch": 35,
                "velocity": 51,
                "duration": 0.1886363636363626,
                "tempo": 120.0
            },
            {
                "start_time": 70.62045454545454,
                "end_time": 71.2,
                "pitch": 35,
                "velocity": 51,
                "duration": 0.5795454545454675,
                "tempo": 120.0
            },
            {
                "start_time": 71.21818181818182,
                "end_time": 71.39772727272727,
                "pitch": 34,
                "velocity": 51,
                "duration": 0.17954545454544757,
                "tempo": 120.0
            },
            {
                "start_time": 71.61818181818181,
                "end_time": 71.80681818181817,
                "pitch": 39,
                "velocity": 51,
                "duration": 0.1886363636363626,
                "tempo": 120.0
            },
            {
                "start_time": 71.825,
                "end_time": 72.01136363636363,
                "pitch": 42,
                "velocity": 51,
                "duration": 0.1863636363636232,
                "tempo": 120.0
            },
            {
                "start_time": 72.02954545454546,
                "end_time": 72.21818181818182,
                "pitch": 43,
                "velocity": 51,
                "duration": 0.1886363636363626,
                "tempo": 120.0
            },
            {
                "start_time": 72.23409090909091,
                "end_time": 72.41818181818182,
                "pitch": 32,
                "velocity": 51,
                "duration": 0.1840909090909122,
                "tempo": 120.0
            },
            {
                "start_time": 72.43636363636364,
                "end_time": 72.61818181818181,
                "pitch": 34,
                "velocity": 51,
                "duration": 0.18181818181817277,
                "tempo": 120.0
            },
            {
                "start_time": 72.63636363636363,
                "end_time": 72.81590909090909,
                "pitch": 35,
                "velocity": 51,
                "duration": 0.17954545454546178,
                "tempo": 120.0
            },
            {
                "start_time": 72.83181818181818,
                "end_time": 73.01136363636363,
                "pitch": 38,
                "velocity": 51,
                "duration": 0.17954545454544757,
                "tempo": 120.0
            },
            {
                "start_time": 73.02727272727272,
                "end_time": 73.21136363636363,
                "pitch": 39,
                "velocity": 51,
                "duration": 0.1840909090909122,
                "tempo": 120.0
            },
            {
                "start_time": 73.22954545454544,
                "end_time": 73.41363636363636,
                "pitch": 43,
                "velocity": 51,
                "duration": 0.1840909090909122,
                "tempo": 120.0
            },
            {
                "start_time": 73.42954545454545,
                "end_time": 73.61363636363636,
                "pitch": 44,
                "velocity": 51,
                "duration": 0.1840909090909122,
                "tempo": 120.0
            },
            {
                "start_time": 73.62954545454545,
                "end_time": 73.81363636363636,
                "pitch": 46,
                "velocity": 51,
                "duration": 0.1840909090909122,
                "tempo": 120.0
            },
            {
                "start_time": 73.82954545454545,
                "end_time": 74.01590909090909,
                "pitch": 47,
                "velocity": 51,
                "duration": 0.1863636363636374,
                "tempo": 120.0
            },
            {
                "start_time": 74.03181818181818,
                "end_time": 74.2159090909091,
                "pitch": 49,
                "velocity": 51,
                "duration": 0.1840909090909122,
                "tempo": 120.0
            },
            {
                "start_time": 74.23409090909091,
                "end_time": 74.41818181818182,
                "pitch": 46,
                "velocity": 51,
                "duration": 0.1840909090909122,
                "tempo": 120.0
            },
            {
                "start_time": 74.43409090909091,
                "end_time": 74.61818181818181,
                "pitch": 44,
                "velocity": 51,
                "duration": 0.18409090909089798,
                "tempo": 120.0
            },
            {
                "start_time": 74.63636363636363,
                "end_time": 74.81818181818181,
                "pitch": 43,
                "velocity": 51,
                "duration": 0.18181818181818699,
                "tempo": 120.0
            },
            {
                "start_time": 74.83636363636363,
                "end_time": 75.01818181818182,
                "pitch": 39,
                "velocity": 51,
                "duration": 0.18181818181818699,
                "tempo": 120.0
            },
            {
                "start_time": 75.03636363636363,
                "end_time": 75.22045454545454,
                "pitch": 43,
                "velocity": 51,
                "duration": 0.1840909090909122,
                "tempo": 120.0
            },
            {
                "start_time": 75.23636363636363,
                "end_time": 75.42045454545455,
                "pitch": 46,
                "velocity": 51,
                "duration": 0.1840909090909122,
                "tempo": 120.0
            },
            {
                "start_time": 75.64318181818182,
                "end_time": 75.83181818181818,
                "pitch": 44,
                "velocity": 51,
                "duration": 0.1886363636363626,
                "tempo": 120.0
            },
            {
                "start_time": 76.05,
                "end_time": 76.23409090909091,
                "pitch": 44,
                "velocity": 51,
                "duration": 0.1840909090909122,
                "tempo": 120.0
            },
            {
                "start_time": 76.45227272727273,
                "end_time": 76.63636363636363,
                "pitch": 44,
                "velocity": 51,
                "duration": 0.18409090909089798,
                "tempo": 120.0
            },
            {
                "start_time": 76.85227272727272,
                "end_time": 77.03863636363636,
                "pitch": 44,
                "velocity": 51,
                "duration": 0.1863636363636374,
                "tempo": 120.0
            },
            {
                "start_time": 77.05454545454545,
                "end_time": 77.23863636363636,
                "pitch": 38,
                "velocity": 51,
                "duration": 0.1840909090909122,
                "tempo": 120.0
            },
            {
                "start_time": 77.25454545454545,
                "end_time": 77.43863636363636,
                "pitch": 39,
                "velocity": 51,
                "duration": 0.1840909090909122,
                "tempo": 120.0
            },
            {
                "start_time": 77.45454545454545,
                "end_time": 77.6340909090909,
                "pitch": 42,
                "velocity": 51,
                "duration": 0.17954545454544757,
                "tempo": 120.0
            },
            {
                "start_time": 77.64999999999999,
                "end_time": 77.83181818181818,
                "pitch": 43,
                "velocity": 51,
                "duration": 0.18181818181818699,
                "tempo": 120.0
            },
            {
                "start_time": 77.84772727272727,
                "end_time": 78.03181818181818,
                "pitch": 38,
                "velocity": 51,
                "duration": 0.1840909090909122,
                "tempo": 120.0
            },
            {
                "start_time": 78.04772727272727,
                "end_time": 78.23181818181818,
                "pitch": 39,
                "velocity": 51,
                "duration": 0.1840909090909122,
                "tempo": 120.0
            },
            {
                "start_time": 78.25,
                "end_time": 78.43409090909091,
                "pitch": 42,
                "velocity": 51,
                "duration": 0.1840909090909122,
                "tempo": 120.0
            },
            {
                "start_time": 78.45,
                "end_time": 78.63636363636363,
                "pitch": 43,
                "velocity": 51,
                "duration": 0.1863636363636232,
                "tempo": 120.0
            },
            {
                "start_time": 78.65227272727272,
                "end_time": 78.8409090909091,
                "pitch": 38,
                "velocity": 51,
                "duration": 0.1886363636363768,
                "tempo": 120.0
            },
            {
                "start_time": 78.85681818181818,
                "end_time": 79.04545454545455,
                "pitch": 39,
                "velocity": 51,
                "duration": 0.1886363636363626,
                "tempo": 120.0
            },
            {
                "start_time": 79.06363636363636,
                "end_time": 79.24318181818181,
                "pitch": 42,
                "velocity": 51,
                "duration": 0.17954545454544757,
                "tempo": 120.0
            },
            {
                "start_time": 79.2590909090909,
                "end_time": 79.43863636363636,
                "pitch": 43,
                "velocity": 51,
                "duration": 0.17954545454546178,
                "tempo": 120.0
            },
            {
                "start_time": 79.45454545454545,
                "end_time": 79.6340909090909,
                "pitch": 44,
                "velocity": 51,
                "duration": 0.17954545454544757,
                "tempo": 120.0
            },
            {
                "start_time": 79.65227272727272,
                "end_time": 79.83181818181818,
                "pitch": 42,
                "velocity": 51,
                "duration": 0.17954545454546178,
                "tempo": 120.0
            },
            {
                "start_time": 79.84772727272727,
                "end_time": 80.03863636363636,
                "pitch": 39,
                "velocity": 51,
                "duration": 0.1909090909090878,
                "tempo": 120.0
            },
            {
                "start_time": 80.05681818181817,
                "end_time": 80.25,
                "pitch": 34,
                "velocity": 51,
                "duration": 0.19318181818182723,
                "tempo": 120.0
            },
            {
                "start_time": 80.26818181818182,
                "end_time": 80.4659090909091,
                "pitch": 32,
                "velocity": 51,
                "duration": 0.19772727272727764,
                "tempo": 120.0
            }
        ],
        "Oboe": [
            {
                "start_time": 1.6409090909090909,
                "end_time": 1.8045454545454545,
                "pitch": 63,
                "velocity": 40,
                "duration": 0.16363636363636358,
                "tempo": 120.0
            },
            {
                "start_time": 1.8204545454545453,
                "end_time": 2.0,
                "pitch": 63,
                "velocity": 40,
                "duration": 0.17954545454545467,
                "tempo": 120.0
            },
            {
                "start_time": 2.2204545454545452,
                "end_time": 2.409090909090909,
                "pitch": 63,
                "velocity": 40,
                "duration": 0.18863636363636394,
                "tempo": 120.0
            },
            {
                "start_time": 2.627272727272727,
                "end_time": 2.811363636363636,
                "pitch": 63,
                "velocity": 40,
                "duration": 0.18409090909090908,
                "tempo": 120.0
            },
            {
                "start_time": 3.227272727272727,
                "end_time": 3.4068181818181817,
                "pitch": 63,
                "velocity": 40,
                "duration": 0.17954545454545467,
                "tempo": 120.0
            },
            {
                "start_time": 3.4227272727272724,
                "end_time": 3.6045454545454545,
                "pitch": 63,
                "velocity": 40,
                "duration": 0.1818181818181821,
                "tempo": 120.0
            },
            {
                "start_time": 3.8249999999999997,
                "end_time": 4.013636363636364,
                "pitch": 63,
                "velocity": 40,
                "duration": 0.18863636363636394,
                "tempo": 120.0
            },
            {
                "start_time": 4.2295454545454545,
                "end_time": 4.413636363636363,
                "pitch": 63,
                "velocity": 40,
                "duration": 0.18409090909090864,
                "tempo": 120.0
            },
            {
                "start_time": 4.631818181818182,
                "end_time": 4.8159090909090905,
                "pitch": 63,
                "velocity": 40,
                "duration": 0.18409090909090864,
                "tempo": 120.0
            },
            {
                "start_time": 4.834090909090909,
                "end_time": 5.018181818181818,
                "pitch": 63,
                "velocity": 40,
                "duration": 0.18409090909090864,
                "tempo": 120.0
            },
            {
                "start_time": 5.034090909090909,
                "end_time": 5.218181818181818,
                "pitch": 63,
                "velocity": 40,
                "duration": 0.18409090909090864,
                "tempo": 120.0
            },
            {
                "start_time": 5.636363636363636,
                "end_time": 5.820454545454545,
                "pitch": 63,
                "velocity": 40,
                "duration": 0.18409090909090953,
                "tempo": 120.0
            },
            {
                "start_time": 5.836363636363636,
                "end_time": 6.0227272727272725,
                "pitch": 63,
                "velocity": 40,
                "duration": 0.1863636363636365,
                "tempo": 120.0
            },
            {
                "start_time": 6.4386363636363635,
                "end_time": 7.227272727272727,
                "pitch": 56,
                "velocity": 40,
                "duration": 0.7886363636363631,
                "tempo": 120.0
            },
            {
                "start_time": 7.243181818181818,
                "end_time": 8.029545454545454,
                "pitch": 56,
                "velocity": 40,
                "duration": 0.7863636363636362,
                "tempo": 120.0
            },
            {
                "start_time": 8.045454545454545,
                "end_time": 8.227272727272727,
                "pitch": 63,
                "velocity": 40,
                "duration": 0.18181818181818166,
                "tempo": 120.0
            },
            {
                "start_time": 8.243181818181817,
                "end_time": 8.422727272727272,
                "pitch": 63,
                "velocity": 40,
                "duration": 0.17954545454545467,
                "tempo": 120.0
            },
            {
                "start_time": 8.643181818181818,
                "end_time": 8.831818181818182,
                "pitch": 63,
                "velocity": 40,
                "duration": 0.18863636363636438,
                "tempo": 120.0
            },
            {
                "start_time": 9.049999999999999,
                "end_time": 9.236363636363636,
                "pitch": 63,
                "velocity": 40,
                "duration": 0.1863636363636374,
                "tempo": 120.0
            },
            {
                "start_time": 9.654545454545454,
                "end_time": 9.834090909090909,
                "pitch": 63,
                "velocity": 40,
                "duration": 0.17954545454545467,
                "tempo": 120.0
            },
            {
                "start_time": 9.85,
                "end_time": 10.031818181818181,
                "pitch": 63,
                "velocity": 40,
                "duration": 0.18181818181818166,
                "tempo": 120.0
            },
            {
                "start_time": 10.252272727272727,
                "end_time": 10.44090909090909,
                "pitch": 63,
                "velocity": 40,
                "duration": 0.1886363636363626,
                "tempo": 120.0
            },
            {
                "start_time": 10.659090909090908,
                "end_time": 10.843181818181817,
                "pitch": 63,
                "velocity": 40,
                "duration": 0.18409090909090864,
                "tempo": 120.0
            },
            {
                "start_time": 11.061363636363636,
                "end_time": 11.245454545454544,
                "pitch": 63,
                "velocity": 40,
                "duration": 0.18409090909090864,
                "tempo": 120.0
            },
            {
                "start_time": 40.17272727272727,
                "end_time": 40.340909090909086,
                "pitch": 63,
                "velocity": 40,
                "duration": 0.16818181818181444,
                "tempo": 120.0
            },
            {
                "start_time": 40.35681818181818,
                "end_time": 40.54090909090909,
                "pitch": 63,
                "velocity": 40,
                "duration": 0.1840909090909122,
                "tempo": 120.0
            },
            {
                "start_time": 40.75909090909091,
                "end_time": 40.94090909090909,
                "pitch": 63,
                "velocity": 40,
                "duration": 0.18181818181817988,
                "tempo": 120.0
            },
            {
                "start_time": 41.15909090909091,
                "end_time": 41.340909090909086,
                "pitch": 63,
                "velocity": 40,
                "duration": 0.18181818181817988,
                "tempo": 120.0
            },
            {
                "start_time": 41.75909090909091,
                "end_time": 41.93863636363636,
                "pitch": 63,
                "velocity": 40,
                "duration": 0.17954545454545467,
                "tempo": 120.0
            },
            {
                "start_time": 41.95454545454545,
                "end_time": 42.13409090909091,
                "pitch": 63,
                "velocity": 40,
                "duration": 0.17954545454545467,
                "tempo": 120.0
            },
            {
                "start_time": 42.35454545454545,
                "end_time": 42.543181818181814,
                "pitch": 63,
                "velocity": 40,
                "duration": 0.1886363636363626,
                "tempo": 120.0
            },
            {
                "start_time": 42.76136363636363,
                "end_time": 42.945454545454545,
                "pitch": 63,
                "velocity": 40,
                "duration": 0.1840909090909122,
                "tempo": 120.0
            },
            {
                "start_time": 43.16136363636363,
                "end_time": 43.345454545454544,
                "pitch": 63,
                "velocity": 40,
                "duration": 0.1840909090909122,
                "tempo": 120.0
            },
            {
                "start_time": 43.361363636363635,
                "end_time": 43.54545454545455,
                "pitch": 63,
                "velocity": 40,
                "duration": 0.1840909090909122,
                "tempo": 120.0
            },
            {
                "start_time": 43.56136363636364,
                "end_time": 43.74545454545454,
                "pitch": 63,
                "velocity": 40,
                "duration": 0.18409090909090509,
                "tempo": 120.0
            },
            {
                "start_time": 44.16136363636363,
                "end_time": 44.345454545454544,
                "pitch": 63,
                "velocity": 40,
                "duration": 0.1840909090909122,
                "tempo": 120.0
            },
            {
                "start_time": 44.361363636363635,
                "end_time": 44.54772727272727,
                "pitch": 63,
                "velocity": 40,
                "duration": 0.1863636363636374,
                "tempo": 120.0
            },
            {
                "start_time": 44.96363636363636,
                "end_time": 45.74772727272727,
                "pitch": 56,
                "velocity": 40,
                "duration": 0.7840909090909065,
                "tempo": 120.0
            },
            {
                "start_time": 45.76363636363636,
                "end_time": 46.55,
                "pitch": 56,
                "velocity": 40,
                "duration": 0.7863636363636388,
                "tempo": 120.0
            },
            {
                "start_time": 46.56590909090909,
                "end_time": 46.74545454545454,
                "pitch": 63,
                "velocity": 40,
                "duration": 0.17954545454545467,
                "tempo": 120.0
            },
            {
                "start_time": 46.76363636363636,
                "end_time": 46.94318181818181,
                "pitch": 63,
                "velocity": 40,
                "duration": 0.17954545454545467,
                "tempo": 120.0
            },
            {
                "start_time": 47.163636363636364,
                "end_time": 47.35227272727273,
                "pitch": 63,
                "velocity": 40,
                "duration": 0.1886363636363626,
                "tempo": 120.0
            },
            {
                "start_time": 47.570454545454545,
                "end_time": 47.752272727272725,
                "pitch": 63,
                "velocity": 40,
                "duration": 0.18181818181817988,
                "tempo": 120.0
            },
            {
                "start_time": 48.17045454545454,
                "end_time": 48.349999999999994,
                "pitch": 63,
                "velocity": 40,
                "duration": 0.17954545454545467,
                "tempo": 120.0
            },
            {
                "start_time": 48.36590909090909,
                "end_time": 48.54545454545454,
                "pitch": 63,
                "velocity": 40,
                "duration": 0.17954545454544757,
                "tempo": 120.0
            },
            {
                "start_time": 48.76590909090909,
                "end_time": 48.95454545454545,
                "pitch": 63,
                "velocity": 40,
                "duration": 0.1886363636363626,
                "tempo": 120.0
            },
            {
                "start_time": 49.17272727272727,
                "end_time": 49.35681818181818,
                "pitch": 63,
                "velocity": 40,
                "duration": 0.18409090909090509,
                "tempo": 120.0
            },
            {
                "start_time": 49.57272727272727,
                "end_time": 49.75681818181818,
                "pitch": 63,
                "velocity": 40,
                "duration": 0.1840909090909122,
                "tempo": 120.0
            },
            {
                "start_time": 80.28636363636363,
                "end_time": 80.45,
                "pitch": 63,
                "velocity": 40,
                "duration": 0.16363636363637113,
                "tempo": 120.0
            }
        ],
        "Clarinet": [
            {
                "start_time": 14.49090909090909,
                "end_time": 14.861363636363636,
                "pitch": 64,
                "velocity": 51,
                "duration": 0.37045454545454604,
                "tempo": 120.0
            },
            {
                "start_time": 14.877272727272727,
                "end_time": 15.056818181818182,
                "pitch": 61,
                "velocity": 51,
                "duration": 0.17954545454545467,
                "tempo": 120.0
            },
            {
                "start_time": 15.075,
                "end_time": 15.45681818181818,
                "pitch": 68,
                "velocity": 51,
                "duration": 0.38181818181818095,
                "tempo": 120.0
            },
            {
                "start_time": 15.475,
                "end_time": 15.663636363636362,
                "pitch": 68,
                "velocity": 51,
                "duration": 0.1886363636363626,
                "tempo": 120.0
            },
            {
                "start_time": 15.679545454545453,
                "end_time": 15.863636363636363,
                "pitch": 64,
                "velocity": 51,
                "duration": 0.18409090909091042,
                "tempo": 120.0
            },
            {
                "start_time": 15.879545454545454,
                "end_time": 16.063636363636363,
                "pitch": 61,
                "velocity": 51,
                "duration": 0.18409090909090864,
                "tempo": 120.0
            },
            {
                "start_time": 16.079545454545453,
                "end_time": 16.456818181818182,
                "pitch": 64,
                "velocity": 51,
                "duration": 0.37727272727272876,
                "tempo": 120.0
            },
            {
                "start_time": 16.472727272727273,
                "end_time": 16.65681818181818,
                "pitch": 61,
                "velocity": 51,
                "duration": 0.18409090909090864,
                "tempo": 120.0
            },
            {
                "start_time": 16.672727272727272,
                "end_time": 17.05681818181818,
                "pitch": 68,
                "velocity": 51,
                "duration": 0.38409090909090793,
                "tempo": 120.0
            },
            {
                "start_time": 17.07272727272727,
                "end_time": 17.256818181818183,
                "pitch": 68,
                "velocity": 51,
                "duration": 0.1840909090909122,
                "tempo": 120.0
            },
            {
                "start_time": 17.272727272727273,
                "end_time": 17.461363636363636,
                "pitch": 70,
                "velocity": 51,
                "duration": 0.1886363636363626,
                "tempo": 120.0
            },
            {
                "start_time": 17.477272727272727,
                "end_time": 17.66590909090909,
                "pitch": 71,
                "velocity": 51,
                "duration": 0.1886363636363626,
                "tempo": 120.0
            },
            {
                "start_time": 17.68409090909091,
                "end_time": 17.868181818181817,
                "pitch": 75,
                "velocity": 51,
                "duration": 0.18409090909090864,
                "tempo": 120.0
            },
            {
                "start_time": 17.884090909090908,
                "end_time": 18.070454545454545,
                "pitch": 71,
                "velocity": 51,
                "duration": 0.1863636363636374,
                "tempo": 120.0
            },
            {
                "start_time": 18.286363636363635,
                "end_time": 18.861363636363635,
                "pitch": 68,
                "velocity": 51,
                "duration": 0.5749999999999993,
                "tempo": 120.0
            },
            {
                "start_time": 18.879545454545454,
                "end_time": 19.272727272727273,
                "pitch": 75,
                "velocity": 51,
                "duration": 0.3931818181818194,
                "tempo": 120.0
            },
            {
                "start_time": 19.288636363636364,
                "end_time": 19.46818181818182,
                "pitch": 78,
                "velocity": 51,
                "duration": 0.17954545454545467,
                "tempo": 120.0
            },
            {
                "start_time": 19.486363636363635,
                "end_time": 19.66590909090909,
                "pitch": 71,
                "velocity": 51,
                "duration": 0.17954545454545467,
                "tempo": 120.0
            },
            {
                "start_time": 19.88181818181818,
                "end_time": 20.46818181818182,
                "pitch": 68,
                "velocity": 51,
                "duration": 0.5863636363636395,
                "tempo": 120.0
            },
            {
                "start_time": 20.48409090909091,
                "end_time": 20.877272727272725,
                "pitch": 63,
                "velocity": 51,
                "duration": 0.39318181818181586,
                "tempo": 120.0
            },
            {
                "start_time": 20.895454545454545,
                "end_time": 21.270454545454545,
                "pitch": 64,
                "velocity": 51,
                "duration": 0.375,
                "tempo": 120.0
            },
            {
                "start_time": 21.286363636363635,
                "end_time": 21.470454545454544,
                "pitch": 61,
                "velocity": 51,
                "duration": 0.18409090909090864,
                "tempo": 120.0
            },
            {
                "start_time": 21.488636363636363,
                "end_time": 21.87272727272727,
                "pitch": 68,
                "velocity": 51,
                "duration": 0.38409090909090793,
                "tempo": 120.0
            },
            {
                "start_time": 21.888636363636362,
                "end_time": 22.07272727272727,
                "pitch": 68,
                "velocity": 51,
                "duration": 0.18409090909090864,
                "tempo": 120.0
            },
            {
                "start_time": 22.08863636363636,
                "end_time": 22.277272727272727,
                "pitch": 64,
                "velocity": 51,
                "duration": 0.18863636363636616,
                "tempo": 120.0
            },
            {
                "start_time": 22.295454545454543,
                "end_time": 22.48181818181818,
                "pitch": 61,
                "velocity": 51,
                "duration": 0.1863636363636374,
                "tempo": 120.0
            },
            {
                "start_time": 22.5,
                "end_time": 22.877272727272725,
                "pitch": 64,
                "velocity": 51,
                "duration": 0.3772727272727252,
                "tempo": 120.0
            },
            {
                "start_time": 22.893181818181816,
                "end_time": 23.075,
                "pitch": 61,
                "velocity": 51,
                "duration": 0.18181818181818343,
                "tempo": 120.0
            },
            {
                "start_time": 23.09318181818182,
                "end_time": 23.477272727272727,
                "pitch": 68,
                "velocity": 51,
                "duration": 0.38409090909090793,
                "tempo": 120.0
            },
            {
                "start_time": 23.493181818181817,
                "end_time": 23.677272727272726,
                "pitch": 68,
                "velocity": 51,
                "duration": 0.18409090909090864,
                "tempo": 120.0
            },
            {
                "start_time": 23.695454545454545,
                "end_time": 23.877272727272725,
                "pitch": 70,
                "velocity": 51,
                "duration": 0.18181818181817988,
                "tempo": 120.0
            },
            {
                "start_time": 23.895454545454545,
                "end_time": 24.077272727272724,
                "pitch": 71,
                "velocity": 51,
                "duration": 0.18181818181817988,
                "tempo": 120.0
            },
            {
                "start_time": 24.095454545454544,
                "end_time": 25.672727272727272,
                "pitch": 56,
                "velocity": 51,
                "duration": 1.577272727272728,
                "tempo": 120.0
            },
            {
                "start_time": 25.69090909090909,
                "end_time": 26.286363636363635,
                "pitch": 55,
                "velocity": 51,
                "duration": 0.5954545454545439,
                "tempo": 120.0
            },
            {
                "start_time": 26.302272727272726,
                "end_time": 26.477272727272727,
                "pitch": 55,
                "velocity": 51,
                "duration": 0.1750000000000007,
                "tempo": 120.0
            },
            {
                "start_time": 26.693181818181817,
                "end_time": 26.877272727272725,
                "pitch": 63,
                "velocity": 51,
                "duration": 0.18409090909090864,
                "tempo": 120.0
            },
            {
                "start_time": 26.893181818181816,
                "end_time": 27.081818181818182,
                "pitch": 66,
                "velocity": 51,
                "duration": 0.18863636363636616,
                "tempo": 120.0
            },
            {
                "start_time": 27.099999999999998,
                "end_time": 27.286363636363635,
                "pitch": 67,
                "velocity": 51,
                "duration": 0.1863636363636374,
                "tempo": 120.0
            },
            {
                "start_time": 53.002272727272725,
                "end_time": 53.36818181818182,
                "pitch": 64,
                "velocity": 51,
                "duration": 0.36590909090909207,
                "tempo": 120.0
            },
            {
                "start_time": 53.38409090909091,
                "end_time": 53.56363636363636,
                "pitch": 61,
                "velocity": 51,
                "duration": 0.17954545454545467,
                "tempo": 120.0
            },
            {
                "start_time": 53.58181818181818,
                "end_time": 53.959090909090904,
                "pitch": 68,
                "velocity": 51,
                "duration": 0.3772727272727252,
                "tempo": 120.0
            },
            {
                "start_time": 53.97727272727273,
                "end_time": 54.15909090909091,
                "pitch": 68,
                "velocity": 51,
                "duration": 0.18181818181817988,
                "tempo": 120.0
            },
            {
                "start_time": 54.17727272727272,
                "end_time": 54.36363636363636,
                "pitch": 64,
                "velocity": 51,
                "duration": 0.1863636363636374,
                "tempo": 120.0
            },
            {
                "start_time": 54.38181818181818,
                "end_time": 54.570454545454545,
                "pitch": 61,
                "velocity": 51,
                "duration": 0.1886363636363626,
                "tempo": 120.0
            },
            {
                "start_time": 54.586363636363636,
                "end_time": 54.96363636363636,
                "pitch": 64,
                "velocity": 51,
                "duration": 0.3772727272727252,
                "tempo": 120.0
            },
            {
                "start_time": 54.97954545454545,
                "end_time": 55.163636363636364,
                "pitch": 61,
                "velocity": 51,
                "duration": 0.1840909090909122,
                "tempo": 120.0
            },
            {
                "start_time": 55.18181818181818,
                "end_time": 55.56590909090909,
                "pitch": 68,
                "velocity": 51,
                "duration": 0.38409090909090793,
                "tempo": 120.0
            },
            {
                "start_time": 55.58181818181818,
                "end_time": 55.76590909090909,
                "pitch": 68,
                "velocity": 51,
                "duration": 0.1840909090909122,
                "tempo": 120.0
            },
            {
                "start_time": 55.78181818181818,
                "end_time": 55.970454545454544,
                "pitch": 70,
                "velocity": 51,
                "duration": 0.1886363636363626,
                "tempo": 120.0
            },
            {
                "start_time": 55.986363636363635,
                "end_time": 56.175,
                "pitch": 71,
                "velocity": 51,
                "duration": 0.1886363636363626,
                "tempo": 120.0
            },
            {
                "start_time": 56.19318181818181,
                "end_time": 56.37272727272727,
                "pitch": 75,
                "velocity": 51,
                "duration": 0.17954545454545467,
                "tempo": 120.0
            },
            {
                "start_time": 56.38863636363636,
                "end_time": 56.56818181818181,
                "pitch": 71,
                "velocity": 51,
                "duration": 0.17954545454545467,
                "tempo": 120.0
            },
            {
                "start_time": 56.79090909090909,
                "end_time": 57.37954545454545,
                "pitch": 68,
                "velocity": 51,
                "duration": 0.5886363636363612,
                "tempo": 120.0
            },
            {
                "start_time": 57.39545454545454,
                "end_time": 57.77954545454545,
                "pitch": 75,
                "velocity": 51,
                "duration": 0.38409090909090793,
                "tempo": 120.0
            },
            {
                "start_time": 57.79545454545454,
                "end_time": 57.974999999999994,
                "pitch": 78,
                "velocity": 51,
                "duration": 0.17954545454545467,
                "tempo": 120.0
            },
            {
                "start_time": 57.99318181818182,
                "end_time": 58.17272727272727,
                "pitch": 71,
                "velocity": 51,
                "duration": 0.17954545454545467,
                "tempo": 120.0
            },
            {
                "start_time": 58.38863636363636,
                "end_time": 58.970454545454544,
                "pitch": 68,
                "velocity": 51,
                "duration": 0.5818181818181856,
                "tempo": 120.0
            },
            {
                "start_time": 58.98863636363636,
                "end_time": 59.381818181818176,
                "pitch": 63,
                "velocity": 51,
                "duration": 0.39318181818181586,
                "tempo": 120.0
            },
            {
                "start_time": 59.39772727272727,
                "end_time": 59.775,
                "pitch": 64,
                "velocity": 51,
                "duration": 0.3772727272727252,
                "tempo": 120.0
            },
            {
                "start_time": 59.79090909090909,
                "end_time": 59.974999999999994,
                "pitch": 61,
                "velocity": 51,
                "duration": 0.18409090909090509,
                "tempo": 120.0
            },
            {
                "start_time": 59.990909090909085,
                "end_time": 60.375,
                "pitch": 68,
                "velocity": 51,
                "duration": 0.38409090909091503,
                "tempo": 120.0
            },
            {
                "start_time": 60.39090909090909,
                "end_time": 60.574999999999996,
                "pitch": 68,
                "velocity": 51,
                "duration": 0.18409090909090509,
                "tempo": 120.0
            },
            {
                "start_time": 60.590909090909086,
                "end_time": 60.77954545454545,
                "pitch": 64,
                "velocity": 51,
                "duration": 0.1886363636363626,
                "tempo": 120.0
            },
            {
                "start_time": 60.79545454545454,
                "end_time": 60.98409090909091,
                "pitch": 61,
                "velocity": 51,
                "duration": 0.1886363636363697,
                "tempo": 120.0
            },
            {
                "start_time": 61.002272727272725,
                "end_time": 61.377272727272725,
                "pitch": 64,
                "velocity": 51,
                "duration": 0.375,
                "tempo": 120.0
            },
            {
                "start_time": 61.393181818181816,
                "end_time": 61.57727272727272,
                "pitch": 61,
                "velocity": 51,
                "duration": 0.18409090909090509,
                "tempo": 120.0
            },
            {
                "start_time": 61.59318181818182,
                "end_time": 61.97727272727273,
                "pitch": 68,
                "velocity": 51,
                "duration": 0.38409090909090793,
                "tempo": 120.0
            },
            {
                "start_time": 61.99318181818182,
                "end_time": 62.17727272727272,
                "pitch": 68,
                "velocity": 51,
                "duration": 0.18409090909090509,
                "tempo": 120.0
            },
            {
                "start_time": 62.19318181818181,
                "end_time": 62.377272727272725,
                "pitch": 70,
                "velocity": 51,
                "duration": 0.1840909090909122,
                "tempo": 120.0
            },
            {
                "start_time": 62.393181818181816,
                "end_time": 62.57727272727272,
                "pitch": 71,
                "velocity": 51,
                "duration": 0.18409090909090509,
                "tempo": 120.0
            },
            {
                "start_time": 62.59318181818181,
                "end_time": 64.17272727272727,
                "pitch": 56,
                "velocity": 51,
                "duration": 1.5795454545454604,
                "tempo": 120.0
            },
            {
                "start_time": 64.18863636363636,
                "end_time": 64.78636363636363,
                "pitch": 55,
                "velocity": 51,
                "duration": 0.5977272727272691,
                "tempo": 120.0
            },
            {
                "start_time": 64.80227272727272,
                "end_time": 64.97727272727272,
                "pitch": 55,
                "velocity": 51,
                "duration": 0.17499999999999716,
                "tempo": 120.0
            },
            {
                "start_time": 65.19318181818181,
                "end_time": 65.375,
                "pitch": 63,
                "velocity": 51,
                "duration": 0.18181818181818699,
                "tempo": 120.0
            },
            {
                "start_time": 65.39318181818182,
                "end_time": 65.5840909090909,
                "pitch": 66,
                "velocity": 51,
                "duration": 0.1909090909090878,
                "tempo": 120.0
            },
            {
                "start_time": 65.60227272727272,
                "end_time": 65.79545454545455,
                "pitch": 67,
                "velocity": 51,
                "duration": 0.19318181818182723,
                "tempo": 120.0
            }
        ],
        "Lead 2 (sawtooth)": [
            {
                "start_time": 27.304545454545455,
                "end_time": 28.904545454545453,
                "pitch": 68,
                "velocity": 51,
                "duration": 1.5999999999999979,
                "tempo": 120.0
            },
            {
                "start_time": 28.920454545454543,
                "end_time": 29.493181818181817,
                "pitch": 74,
                "velocity": 51,
                "duration": 0.5727272727272741,
                "tempo": 120.0
            },
            {
                "start_time": 29.509090909090908,
                "end_time": 29.688636363636363,
                "pitch": 75,
                "velocity": 51,
                "duration": 0.17954545454545467,
                "tempo": 120.0
            },
            {
                "start_time": 30.520454545454545,
                "end_time": 32.10454545454545,
                "pitch": 68,
                "velocity": 51,
                "duration": 1.5840909090909072,
                "tempo": 120.0
            },
            {
                "start_time": 32.12272727272727,
                "end_time": 32.70227272727273,
                "pitch": 74,
                "velocity": 51,
                "duration": 0.5795454545454604,
                "tempo": 120.0
            },
            {
                "start_time": 32.71818181818182,
                "end_time": 32.89772727272727,
                "pitch": 75,
                "velocity": 51,
                "duration": 0.17954545454545467,
                "tempo": 120.0
            },
            {
                "start_time": 33.736363636363635,
                "end_time": 33.92045454545455,
                "pitch": 68,
                "velocity": 51,
                "duration": 0.1840909090909122,
                "tempo": 120.0
            },
            {
                "start_time": 33.93636363636364,
                "end_time": 34.12045454545454,
                "pitch": 70,
                "velocity": 51,
                "duration": 0.18409090909090509,
                "tempo": 120.0
            },
            {
                "start_time": 34.13636363636363,
                "end_time": 34.31818181818181,
                "pitch": 71,
                "velocity": 51,
                "duration": 0.18181818181817988,
                "tempo": 120.0
            },
            {
                "start_time": 34.33409090909091,
                "end_time": 34.513636363636365,
                "pitch": 74,
                "velocity": 51,
                "duration": 0.17954545454545467,
                "tempo": 120.0
            },
            {
                "start_time": 34.529545454545456,
                "end_time": 34.71363636363636,
                "pitch": 75,
                "velocity": 51,
                "duration": 0.18409090909090509,
                "tempo": 120.0
            },
            {
                "start_time": 34.72954545454545,
                "end_time": 34.913636363636364,
                "pitch": 79,
                "velocity": 51,
                "duration": 0.1840909090909122,
                "tempo": 120.0
            },
            {
                "start_time": 34.929545454545455,
                "end_time": 35.10909090909091,
                "pitch": 80,
                "velocity": 51,
                "duration": 0.17954545454545467,
                "tempo": 120.0
            },
            {
                "start_time": 35.125,
                "end_time": 35.304545454545455,
                "pitch": 82,
                "velocity": 51,
                "duration": 0.17954545454545467,
                "tempo": 120.0
            },
            {
                "start_time": 35.320454545454545,
                "end_time": 35.50909090909091,
                "pitch": 83,
                "velocity": 51,
                "duration": 0.1886363636363626,
                "tempo": 120.0
            },
            {
                "start_time": 35.527272727272724,
                "end_time": 35.715909090909086,
                "pitch": 85,
                "velocity": 51,
                "duration": 0.1886363636363626,
                "tempo": 120.0
            },
            {
                "start_time": 35.73181818181818,
                "end_time": 35.91590909090909,
                "pitch": 82,
                "velocity": 51,
                "duration": 0.1840909090909122,
                "tempo": 120.0
            },
            {
                "start_time": 35.93181818181818,
                "end_time": 36.11590909090909,
                "pitch": 80,
                "velocity": 51,
                "duration": 0.1840909090909122,
                "tempo": 120.0
            },
            {
                "start_time": 36.13181818181818,
                "end_time": 36.31136363636364,
                "pitch": 79,
                "velocity": 51,
                "duration": 0.17954545454545467,
                "tempo": 120.0
            },
            {
                "start_time": 36.32727272727273,
                "end_time": 36.50909090909091,
                "pitch": 75,
                "velocity": 51,
                "duration": 0.18181818181817988,
                "tempo": 120.0
            },
            {
                "start_time": 36.525,
                "end_time": 36.711363636363636,
                "pitch": 79,
                "velocity": 51,
                "duration": 0.1863636363636374,
                "tempo": 120.0
            },
            {
                "start_time": 36.72954545454545,
                "end_time": 36.918181818181814,
                "pitch": 82,
                "velocity": 51,
                "duration": 0.1886363636363626,
                "tempo": 120.0
            },
            {
                "start_time": 37.14090909090909,
                "end_time": 37.32954545454545,
                "pitch": 80,
                "velocity": 51,
                "duration": 0.1886363636363626,
                "tempo": 120.0
            },
            {
                "start_time": 37.54545454545455,
                "end_time": 37.72954545454545,
                "pitch": 82,
                "velocity": 51,
                "duration": 0.18409090909090509,
                "tempo": 120.0
            },
            {
                "start_time": 37.945454545454545,
                "end_time": 38.12954545454545,
                "pitch": 83,
                "velocity": 51,
                "duration": 0.18409090909090509,
                "tempo": 120.0
            },
            {
                "start_time": 38.34772727272727,
                "end_time": 38.53181818181818,
                "pitch": 85,
                "velocity": 51,
                "duration": 0.1840909090909122,
                "tempo": 120.0
            },
            {
                "start_time": 38.55,
                "end_time": 40.13636363636363,
                "pitch": 75,
                "velocity": 51,
                "duration": 1.586363636363636,
                "tempo": 120.0
            },
            {
                "start_time": 65.81363636363636,
                "end_time": 67.39545454545454,
                "pitch": 68,
                "velocity": 51,
                "duration": 1.5818181818181785,
                "tempo": 120.0
            },
            {
                "start_time": 67.41136363636363,
                "end_time": 67.99318181818181,
                "pitch": 74,
                "velocity": 51,
                "duration": 0.5818181818181785,
                "tempo": 120.0
            },
            {
                "start_time": 68.0090909090909,
                "end_time": 68.18863636363636,
                "pitch": 75,
                "velocity": 51,
                "duration": 0.17954545454546178,
                "tempo": 120.0
            },
            {
                "start_time": 69.01590909090909,
                "end_time": 70.60454545454544,
                "pitch": 68,
                "velocity": 51,
                "duration": 1.588636363636354,
                "tempo": 120.0
            },
            {
                "start_time": 70.62045454545454,
                "end_time": 71.2,
                "pitch": 74,
                "velocity": 51,
                "duration": 0.5795454545454675,
                "tempo": 120.0
            },
            {
                "start_time": 71.21818181818182,
                "end_time": 71.39772727272727,
                "pitch": 75,
                "velocity": 51,
                "duration": 0.17954545454544757,
                "tempo": 120.0
            },
            {
                "start_time": 72.23409090909091,
                "end_time": 72.41818181818182,
                "pitch": 68,
                "velocity": 51,
                "duration": 0.1840909090909122,
                "tempo": 120.0
            },
            {
                "start_time": 72.43636363636364,
                "end_time": 72.61818181818181,
                "pitch": 70,
                "velocity": 51,
                "duration": 0.18181818181817277,
                "tempo": 120.0
            },
            {
                "start_time": 72.63636363636363,
                "end_time": 72.81590909090909,
                "pitch": 71,
                "velocity": 51,
                "duration": 0.17954545454546178,
                "tempo": 120.0
            },
            {
                "start_time": 72.83181818181818,
                "end_time": 73.01136363636363,
                "pitch": 74,
                "velocity": 51,
                "duration": 0.17954545454544757,
                "tempo": 120.0
            },
            {
                "start_time": 73.02727272727272,
                "end_time": 73.21136363636363,
                "pitch": 75,
                "velocity": 51,
                "duration": 0.1840909090909122,
                "tempo": 120.0
            },
            {
                "start_time": 73.22954545454544,
                "end_time": 73.41363636363636,
                "pitch": 79,
                "velocity": 51,
                "duration": 0.1840909090909122,
                "tempo": 120.0
            },
            {
                "start_time": 73.42954545454545,
                "end_time": 73.61363636363636,
                "pitch": 80,
                "velocity": 51,
                "duration": 0.1840909090909122,
                "tempo": 120.0
            },
            {
                "start_time": 73.62954545454545,
                "end_time": 73.81363636363636,
                "pitch": 82,
                "velocity": 51,
                "duration": 0.1840909090909122,
                "tempo": 120.0
            },
            {
                "start_time": 73.82954545454545,
                "end_time": 74.01590909090909,
                "pitch": 83,
                "velocity": 51,
                "duration": 0.1863636363636374,
                "tempo": 120.0
            },
            {
                "start_time": 74.03181818181818,
                "end_time": 74.2159090909091,
                "pitch": 85,
                "velocity": 51,
                "duration": 0.1840909090909122,
                "tempo": 120.0
            },
            {
                "start_time": 74.23409090909091,
                "end_time": 74.41818181818182,
                "pitch": 82,
                "velocity": 51,
                "duration": 0.1840909090909122,
                "tempo": 120.0
            },
            {
                "start_time": 74.43409090909091,
                "end_time": 74.61818181818181,
                "pitch": 80,
                "velocity": 51,
                "duration": 0.18409090909089798,
                "tempo": 120.0
            },
            {
                "start_time": 74.63636363636363,
                "end_time": 74.81818181818181,
                "pitch": 79,
                "velocity": 51,
                "duration": 0.18181818181818699,
                "tempo": 120.0
            },
            {
                "start_time": 74.83636363636363,
                "end_time": 75.01818181818182,
                "pitch": 75,
                "velocity": 51,
                "duration": 0.18181818181818699,
                "tempo": 120.0
            },
            {
                "start_time": 75.03636363636363,
                "end_time": 75.22045454545454,
                "pitch": 79,
                "velocity": 51,
                "duration": 0.1840909090909122,
                "tempo": 120.0
            },
            {
                "start_time": 75.23636363636363,
                "end_time": 75.42045454545455,
                "pitch": 82,
                "velocity": 51,
                "duration": 0.1840909090909122,
                "tempo": 120.0
            },
            {
                "start_time": 75.64318181818182,
                "end_time": 75.83181818181818,
                "pitch": 80,
                "velocity": 51,
                "duration": 0.1886363636363626,
                "tempo": 120.0
            },
            {
                "start_time": 76.05,
                "end_time": 76.23409090909091,
                "pitch": 82,
                "velocity": 51,
                "duration": 0.1840909090909122,
                "tempo": 120.0
            },
            {
                "start_time": 76.45227272727273,
                "end_time": 76.63636363636363,
                "pitch": 83,
                "velocity": 51,
                "duration": 0.18409090909089798,
                "tempo": 120.0
            },
            {
                "start_time": 76.85227272727272,
                "end_time": 77.03863636363636,
                "pitch": 85,
                "velocity": 51,
                "duration": 0.1863636363636374,
                "tempo": 120.0
            },
            {
                "start_time": 77.05454545454545,
                "end_time": 77.43863636363636,
                "pitch": 74,
                "velocity": 51,
                "duration": 0.38409090909091503,
                "tempo": 120.0
            },
            {
                "start_time": 77.84772727272727,
                "end_time": 78.23181818181818,
                "pitch": 74,
                "velocity": 51,
                "duration": 0.38409090909091503,
                "tempo": 120.0
            },
            {
                "start_time": 78.65227272727272,
                "end_time": 79.04545454545455,
                "pitch": 74,
                "velocity": 51,
                "duration": 0.39318181818183007,
                "tempo": 120.0
            }
        ]
    }
}