{
    "track_id": "Double Dragon (FM) - 04 - Mission 3",
    "mood": "happy",
    "instruments": {
        "Trumpet": [
            {
                "start_time": 1.575,
                "end_time": 3.184090909090909,
                "pitch": 83,
                "velocity": 64,
                "duration": 1.6090909090909091,
                "tempo": 120.0
            },
            {
                "start_time": 3.1999999999999997,
                "end_time": 3.418181818181818,
                "pitch": 81,
                "velocity": 64,
                "duration": 0.21818181818181825,
                "tempo": 120.0
            },
            {
                "start_time": 3.436363636363636,
                "end_time": 5.284090909090909,
                "pitch": 78,
                "velocity": 64,
                "duration": 1.847727272727273,
                "tempo": 120.0
            },
            {
                "start_time": 5.3,
                "end_time": 6.913636363636363,
                "pitch": 83,
                "velocity": 64,
                "duration": 1.6136363636363633,
                "tempo": 120.0
            },
            {
                "start_time": 6.931818181818182,
                "end_time": 7.143181818181818,
                "pitch": 81,
                "velocity": 64,
                "duration": 0.21136363636363598,
                "tempo": 120.0
            },
            {
                "start_time": 7.159090909090909,
                "end_time": 9.002272727272727,
                "pitch": 78,
                "velocity": 64,
                "duration": 1.8431818181818178,
                "tempo": 120.0
            },
            {
                "start_time": 9.020454545454545,
                "end_time": 10.634090909090908,
                "pitch": 83,
                "velocity": 64,
                "duration": 1.6136363636363633,
                "tempo": 120.0
            },
            {
                "start_time": 10.65,
                "end_time": 10.868181818181817,
                "pitch": 81,
                "velocity": 64,
                "duration": 0.21818181818181692,
                "tempo": 120.0
            },
            {
                "start_time": 10.884090909090908,
                "end_time": 11.561363636363636,
                "pitch": 78,
                "velocity": 64,
                "duration": 0.6772727272727277,
                "tempo": 120.0
            },
            {
                "start_time": 11.577272727272726,
                "end_time": 12.5,
                "pitch": 79,
                "velocity": 64,
                "duration": 0.9227272727272737,
                "tempo": 120.0
            },
            {
                "start_time": 12.51590909090909,
                "end_time": 12.729545454545454,
                "pitch": 81,
                "velocity": 64,
                "duration": 0.21363636363636296,
                "tempo": 120.0
            },
            {
                "start_time": 12.745454545454544,
                "end_time": 14.822727272727272,
                "pitch": 83,
                "velocity": 64,
                "duration": 2.077272727272728,
                "tempo": 120.0
            },
            {
                "start_time": 19.027272727272727,
                "end_time": 20.40681818181818,
                "pitch": 66,
                "velocity": 64,
                "duration": 1.379545454545454,
                "tempo": 120.0
            },
            {
                "start_time": 20.652272727272727,
                "end_time": 20.752272727272725,
                "pitch": 66,
                "velocity": 64,
                "duration": 0.09999999999999787,
                "tempo": 120.0
            },
            {
                "start_time": 22.76590909090909,
                "end_time": 23.19772727272727,
                "pitch": 66,
                "velocity": 64,
                "duration": 0.4318181818181799,
                "tempo": 120.0
            },
            {
                "start_time": 23.443181818181817,
                "end_time": 23.654545454545453,
                "pitch": 69,
                "velocity": 64,
                "duration": 0.21136363636363598,
                "tempo": 120.0
            },
            {
                "start_time": 23.672727272727272,
                "end_time": 23.775,
                "pitch": 66,
                "velocity": 64,
                "duration": 0.10227272727272663,
                "tempo": 120.0
            },
            {
                "start_time": 24.384090909090908,
                "end_time": 24.479545454545452,
                "pitch": 66,
                "velocity": 64,
                "duration": 0.0954545454545439,
                "tempo": 120.0
            },
            {
                "start_time": 26.48409090909091,
                "end_time": 26.91590909090909,
                "pitch": 66,
                "velocity": 64,
                "duration": 0.4318181818181799,
                "tempo": 120.0
            },
            {
                "start_time": 27.16590909090909,
                "end_time": 27.384090909090908,
                "pitch": 69,
                "velocity": 64,
                "duration": 0.2181818181818187,
                "tempo": 120.0
            },
            {
                "start_time": 27.4,
                "end_time": 27.49772727272727,
                "pitch": 66,
                "velocity": 64,
                "duration": 0.09772727272727266,
                "tempo": 120.0
            },
            {
                "start_time": 28.093181818181815,
                "end_time": 28.193181818181817,
                "pitch": 66,
                "velocity": 64,
                "duration": 0.10000000000000142,
                "tempo": 120.0
            },
            {
                "start_time": 37.17045454545455,
                "end_time": 44.61363636363636,
                "pitch": 83,
                "velocity": 64,
                "duration": 7.443181818181813,
                "tempo": 120.0
            }
        ],
        "Acoustic Bass": [
            {
                "start_time": 0.013636363636363636,
                "end_time": 0.19772727272727272,
                "pitch": 47,
                "velocity": 64,
                "duration": 0.18409090909090908,
                "tempo": 120.0
            },
            {
                "start_time": 0.21363636363636362,
                "end_time": 0.4318181818181818,
                "pitch": 47,
                "velocity": 64,
                "duration": 0.2181818181818182,
                "tempo": 120.0
            },
            {
                "start_time": 0.44999999999999996,
                "end_time": 0.6477272727272727,
                "pitch": 47,
                "velocity": 64,
                "duration": 0.19772727272727275,
                "tempo": 120.0
            },
            {
                "start_time": 0.6636363636363636,
                "end_time": 0.8613636363636363,
                "pitch": 42,
                "velocity": 64,
                "duration": 0.19772727272727275,
                "tempo": 120.0
            },
            {
                "start_time": 0.8772727272727272,
                "end_time": 1.0954545454545455,
                "pitch": 45,
                "velocity": 64,
                "duration": 0.21818181818181825,
                "tempo": 120.0
            },
            {
                "start_time": 1.1113636363636363,
                "end_time": 1.3295454545454546,
                "pitch": 45,
                "velocity": 64,
                "duration": 0.21818181818181825,
                "tempo": 120.0
            },
            {
                "start_time": 1.575,
                "end_time": 1.7886363636363636,
                "pitch": 42,
                "velocity": 64,
                "duration": 0.21363636363636362,
                "tempo": 120.0
            },
            {
                "start_time": 1.8045454545454545,
                "end_time": 2.0227272727272725,
                "pitch": 47,
                "velocity": 64,
                "duration": 0.21818181818181803,
                "tempo": 120.0
            },
            {
                "start_time": 2.0386363636363636,
                "end_time": 2.256818181818182,
                "pitch": 47,
                "velocity": 64,
                "duration": 0.21818181818181825,
                "tempo": 120.0
            },
            {
                "start_time": 2.2727272727272725,
                "end_time": 2.4909090909090907,
                "pitch": 47,
                "velocity": 64,
                "duration": 0.21818181818181825,
                "tempo": 120.0
            },
            {
                "start_time": 2.509090909090909,
                "end_time": 2.725,
                "pitch": 42,
                "velocity": 64,
                "duration": 0.21590909090909127,
                "tempo": 120.0
            },
            {
                "start_time": 2.743181818181818,
                "end_time": 2.9545454545454546,
                "pitch": 45,
                "velocity": 64,
                "duration": 0.21136363636363642,
                "tempo": 120.0
            },
            {
                "start_time": 2.9727272727272727,
                "end_time": 3.184090909090909,
                "pitch": 45,
                "velocity": 64,
                "duration": 0.21136363636363642,
                "tempo": 120.0
            },
            {
                "start_time": 3.1999999999999997,
                "end_time": 3.418181818181818,
                "pitch": 42,
                "velocity": 64,
                "duration": 0.21818181818181825,
                "tempo": 120.0
            },
            {
                "start_time": 3.436363636363636,
                "end_time": 3.652272727272727,
                "pitch": 45,
                "velocity": 64,
                "duration": 0.21590909090909083,
                "tempo": 120.0
            },
            {
                "start_time": 3.6704545454545454,
                "end_time": 3.8886363636363637,
                "pitch": 47,
                "velocity": 64,
                "duration": 0.21818181818181825,
                "tempo": 120.0
            },
            {
                "start_time": 3.9045454545454543,
                "end_time": 4.122727272727272,
                "pitch": 47,
                "velocity": 64,
                "duration": 0.2181818181818178,
                "tempo": 120.0
            },
            {
                "start_time": 4.138636363636364,
                "end_time": 4.352272727272727,
                "pitch": 47,
                "velocity": 64,
                "duration": 0.21363636363636296,
                "tempo": 120.0
            },
            {
                "start_time": 4.368181818181818,
                "end_time": 4.579545454545454,
                "pitch": 59,
                "velocity": 64,
                "duration": 0.21136363636363598,
                "tempo": 120.0
            },
            {
                "start_time": 4.597727272727273,
                "end_time": 4.8136363636363635,
                "pitch": 50,
                "velocity": 64,
                "duration": 0.21590909090909083,
                "tempo": 120.0
            },
            {
                "start_time": 4.831818181818182,
                "end_time": 5.284090909090909,
                "pitch": 45,
                "velocity": 64,
                "duration": 0.45227272727272716,
                "tempo": 120.0
            },
            {
                "start_time": 5.3,
                "end_time": 5.747727272727272,
                "pitch": 47,
                "velocity": 64,
                "duration": 0.4477272727272723,
                "tempo": 120.0
            },
            {
                "start_time": 5.763636363636364,
                "end_time": 5.977272727272727,
                "pitch": 47,
                "velocity": 64,
                "duration": 0.21363636363636296,
                "tempo": 120.0
            },
            {
                "start_time": 5.993181818181818,
                "end_time": 6.211363636363636,
                "pitch": 47,
                "velocity": 64,
                "duration": 0.2181818181818178,
                "tempo": 120.0
            },
            {
                "start_time": 6.227272727272727,
                "end_time": 6.445454545454545,
                "pitch": 42,
                "velocity": 64,
                "duration": 0.2181818181818187,
                "tempo": 120.0
            },
            {
                "start_time": 6.461363636363636,
                "end_time": 6.679545454545454,
                "pitch": 45,
                "velocity": 64,
                "duration": 0.2181818181818178,
                "tempo": 120.0
            },
            {
                "start_time": 6.697727272727272,
                "end_time": 6.913636363636363,
                "pitch": 45,
                "velocity": 64,
                "duration": 0.21590909090909083,
                "tempo": 120.0
            },
            {
                "start_time": 7.159090909090909,
                "end_time": 7.372727272727272,
                "pitch": 46,
                "velocity": 64,
                "duration": 0.21363636363636296,
                "tempo": 120.0
            },
            {
                "start_time": 7.388636363636364,
                "end_time": 7.6068181818181815,
                "pitch": 47,
                "velocity": 64,
                "duration": 0.2181818181818178,
                "tempo": 120.0
            },
            {
                "start_time": 7.622727272727272,
                "end_time": 7.840909090909091,
                "pitch": 47,
                "velocity": 64,
                "duration": 0.2181818181818187,
                "tempo": 120.0
            },
            {
                "start_time": 7.8590909090909085,
                "end_time": 8.075,
                "pitch": 47,
                "velocity": 64,
                "duration": 0.21590909090909083,
                "tempo": 120.0
            },
            {
                "start_time": 8.093181818181817,
                "end_time": 8.311363636363636,
                "pitch": 42,
                "velocity": 64,
                "duration": 0.2181818181818187,
                "tempo": 120.0
            },
            {
                "start_time": 8.327272727272726,
                "end_time": 8.540909090909091,
                "pitch": 45,
                "velocity": 64,
                "duration": 0.21363636363636473,
                "tempo": 120.0
            },
            {
                "start_time": 8.556818181818182,
                "end_time": 8.768181818181818,
                "pitch": 45,
                "velocity": 64,
                "duration": 0.21136363636363598,
                "tempo": 120.0
            },
            {
                "start_time": 9.020454545454545,
                "end_time": 9.238636363636363,
                "pitch": 42,
                "velocity": 64,
                "duration": 0.2181818181818187,
                "tempo": 120.0
            },
            {
                "start_time": 9.254545454545454,
                "end_time": 9.472727272727273,
                "pitch": 47,
                "velocity": 64,
                "duration": 0.2181818181818187,
                "tempo": 120.0
            },
            {
                "start_time": 9.488636363636363,
                "end_time": 9.706818181818182,
                "pitch": 47,
                "velocity": 64,
                "duration": 0.2181818181818187,
                "tempo": 120.0
            },
            {
                "start_time": 9.722727272727273,
                "end_time": 9.936363636363636,
                "pitch": 47,
                "velocity": 64,
                "duration": 0.21363636363636296,
                "tempo": 120.0
            },
            {
                "start_time": 9.952272727272726,
                "end_time": 10.165909090909091,
                "pitch": 42,
                "velocity": 64,
                "duration": 0.21363636363636473,
                "tempo": 120.0
            },
            {
                "start_time": 10.181818181818182,
                "end_time": 10.4,
                "pitch": 45,
                "velocity": 64,
                "duration": 0.2181818181818187,
                "tempo": 120.0
            },
            {
                "start_time": 10.415909090909091,
                "end_time": 10.634090909090908,
                "pitch": 45,
                "velocity": 64,
                "duration": 0.21818181818181692,
                "tempo": 120.0
            },
            {
                "start_time": 10.65,
                "end_time": 10.868181818181817,
                "pitch": 42,
                "velocity": 64,
                "duration": 0.21818181818181692,
                "tempo": 120.0
            },
            {
                "start_time": 10.884090909090908,
                "end_time": 11.102272727272727,
                "pitch": 45,
                "velocity": 64,
                "duration": 0.2181818181818187,
                "tempo": 120.0
            },
            {
                "start_time": 11.120454545454544,
                "end_time": 11.331818181818182,
                "pitch": 47,
                "velocity": 64,
                "duration": 0.21136363636363775,
                "tempo": 120.0
            },
            {
                "start_time": 11.347727272727273,
                "end_time": 11.561363636363636,
                "pitch": 47,
                "velocity": 64,
                "duration": 0.21363636363636296,
                "tempo": 120.0
            },
            {
                "start_time": 11.577272727272726,
                "end_time": 11.795454545454545,
                "pitch": 47,
                "velocity": 64,
                "duration": 0.2181818181818187,
                "tempo": 120.0
            },
            {
                "start_time": 11.811363636363636,
                "end_time": 12.029545454545454,
                "pitch": 59,
                "velocity": 64,
                "duration": 0.2181818181818187,
                "tempo": 120.0
            },
            {
                "start_time": 12.047727272727272,
                "end_time": 12.263636363636364,
                "pitch": 50,
                "velocity": 64,
                "duration": 0.21590909090909172,
                "tempo": 120.0
            },
            {
                "start_time": 12.281818181818181,
                "end_time": 12.729545454545454,
                "pitch": 45,
                "velocity": 64,
                "duration": 0.4477272727272723,
                "tempo": 120.0
            },
            {
                "start_time": 12.745454545454544,
                "end_time": 13.19090909090909,
                "pitch": 47,
                "velocity": 64,
                "duration": 0.4454545454545453,
                "tempo": 120.0
            },
            {
                "start_time": 13.209090909090909,
                "end_time": 13.427272727272726,
                "pitch": 47,
                "velocity": 64,
                "duration": 0.21818181818181692,
                "tempo": 120.0
            },
            {
                "start_time": 13.443181818181818,
                "end_time": 13.661363636363635,
                "pitch": 47,
                "velocity": 64,
                "duration": 0.21818181818181692,
                "tempo": 120.0
            },
            {
                "start_time": 13.677272727272726,
                "end_time": 13.895454545454545,
                "pitch": 42,
                "velocity": 64,
                "duration": 0.2181818181818187,
                "tempo": 120.0
            },
            {
                "start_time": 13.911363636363635,
                "end_time": 14.125,
                "pitch": 45,
                "velocity": 64,
                "duration": 0.21363636363636473,
                "tempo": 120.0
            },
            {
                "start_time": 14.14090909090909,
                "end_time": 14.354545454545454,
                "pitch": 45,
                "velocity": 64,
                "duration": 0.21363636363636296,
                "tempo": 120.0
            },
            {
                "start_time": 14.604545454545454,
                "end_time": 14.822727272727272,
                "pitch": 46,
                "velocity": 64,
                "duration": 0.2181818181818187,
                "tempo": 120.0
            },
            {
                "start_time": 14.838636363636363,
                "end_time": 15.061363636363636,
                "pitch": 47,
                "velocity": 64,
                "duration": 0.22272727272727266,
                "tempo": 120.0
            },
            {
                "start_time": 15.079545454545453,
                "end_time": 15.302272727272726,
                "pitch": 47,
                "velocity": 64,
                "duration": 0.22272727272727266,
                "tempo": 120.0
            },
            {
                "start_time": 15.318181818181817,
                "end_time": 15.527272727272727,
                "pitch": 47,
                "velocity": 64,
                "duration": 0.20909090909091077,
                "tempo": 120.0
            },
            {
                "start_time": 15.543181818181818,
                "end_time": 15.75,
                "pitch": 42,
                "velocity": 64,
                "duration": 0.206818181818182,
                "tempo": 120.0
            },
            {
                "start_time": 15.76590909090909,
                "end_time": 15.984090909090908,
                "pitch": 45,
                "velocity": 64,
                "duration": 0.21818181818181692,
                "tempo": 120.0
            },
            {
                "start_time": 16.002272727272725,
                "end_time": 16.21818181818182,
                "pitch": 45,
                "velocity": 64,
                "duration": 0.2159090909090935,
                "tempo": 120.0
            },
            {
                "start_time": 16.46363636363636,
                "end_time": 16.677272727272726,
                "pitch": 42,
                "velocity": 64,
                "duration": 0.21363636363636473,
                "tempo": 120.0
            },
            {
                "start_time": 16.693181818181817,
                "end_time": 16.911363636363635,
                "pitch": 47,
                "velocity": 64,
                "duration": 0.2181818181818187,
                "tempo": 120.0
            },
            {
                "start_time": 16.929545454545455,
                "end_time": 17.145454545454545,
                "pitch": 47,
                "velocity": 64,
                "duration": 0.21590909090908994,
                "tempo": 120.0
            },
            {
                "start_time": 17.163636363636364,
                "end_time": 17.381818181818183,
                "pitch": 47,
                "velocity": 64,
                "duration": 0.2181818181818187,
                "tempo": 120.0
            },
            {
                "start_time": 17.397727272727273,
                "end_time": 17.61590909090909,
                "pitch": 42,
                "velocity": 64,
                "duration": 0.21818181818181515,
                "tempo": 120.0
            },
            {
                "start_time": 17.631818181818183,
                "end_time": 17.845454545454544,
                "pitch": 45,
                "velocity": 64,
                "duration": 0.21363636363636118,
                "tempo": 120.0
            },
            {
                "start_time": 17.861363636363635,
                "end_time": 18.07272727272727,
                "pitch": 45,
                "velocity": 64,
                "duration": 0.21136363636363598,
                "tempo": 120.0
            },
            {
                "start_time": 18.09090909090909,
                "end_time": 18.30681818181818,
                "pitch": 42,
                "velocity": 64,
                "duration": 0.21590909090908994,
                "tempo": 120.0
            },
            {
                "start_time": 18.325,
                "end_time": 18.543181818181818,
                "pitch": 45,
                "velocity": 64,
                "duration": 0.2181818181818187,
                "tempo": 120.0
            },
            {
                "start_time": 18.55909090909091,
                "end_time": 18.777272727272727,
                "pitch": 47,
                "velocity": 64,
                "duration": 0.2181818181818187,
                "tempo": 120.0
            },
            {
                "start_time": 18.793181818181818,
                "end_time": 19.011363636363637,
                "pitch": 47,
                "velocity": 64,
                "duration": 0.2181818181818187,
                "tempo": 120.0
            },
            {
                "start_time": 19.027272727272727,
                "end_time": 19.24090909090909,
                "pitch": 47,
                "velocity": 64,
                "duration": 0.21363636363636118,
                "tempo": 120.0
            },
            {
                "start_time": 19.25681818181818,
                "end_time": 19.470454545454544,
                "pitch": 59,
                "velocity": 64,
                "duration": 0.21363636363636473,
                "tempo": 120.0
            },
            {
                "start_time": 19.486363636363635,
                "end_time": 19.704545454545453,
                "pitch": 50,
                "velocity": 64,
                "duration": 0.2181818181818187,
                "tempo": 120.0
            },
            {
                "start_time": 19.720454545454544,
                "end_time": 20.172727272727272,
                "pitch": 45,
                "velocity": 64,
                "duration": 0.45227272727272805,
                "tempo": 120.0
            },
            {
                "start_time": 20.19090909090909,
                "end_time": 20.636363636363637,
                "pitch": 47,
                "velocity": 64,
                "duration": 0.4454545454545453,
                "tempo": 120.0
            },
            {
                "start_time": 20.652272727272727,
                "end_time": 20.86590909090909,
                "pitch": 47,
                "velocity": 64,
                "duration": 0.21363636363636118,
                "tempo": 120.0
            },
            {
                "start_time": 20.88181818181818,
                "end_time": 21.099999999999998,
                "pitch": 47,
                "velocity": 64,
                "duration": 0.2181818181818187,
                "tempo": 120.0
            },
            {
                "start_time": 21.11590909090909,
                "end_time": 21.334090909090907,
                "pitch": 42,
                "velocity": 64,
                "duration": 0.2181818181818187,
                "tempo": 120.0
            },
            {
                "start_time": 21.352272727272727,
                "end_time": 21.568181818181817,
                "pitch": 45,
                "velocity": 64,
                "duration": 0.21590909090908994,
                "tempo": 120.0
            },
            {
                "start_time": 21.586363636363636,
                "end_time": 21.804545454545455,
                "pitch": 45,
                "velocity": 64,
                "duration": 0.2181818181818187,
                "tempo": 120.0
            },
            {
                "start_time": 22.049999999999997,
                "end_time": 22.261363636363637,
                "pitch": 46,
                "velocity": 64,
                "duration": 0.21136363636363953,
                "tempo": 120.0
            },
            {
                "start_time": 22.279545454545453,
                "end_time": 22.504545454545454,
                "pitch": 47,
                "velocity": 64,
                "duration": 0.22500000000000142,
                "tempo": 120.0
            },
            {
                "start_time": 22.520454545454545,
                "end_time": 22.74772727272727,
                "pitch": 47,
                "velocity": 64,
                "duration": 0.22727272727272663,
                "tempo": 120.0
            },
            {
                "start_time": 22.76590909090909,
                "end_time": 22.972727272727273,
                "pitch": 47,
                "velocity": 64,
                "duration": 0.206818181818182,
                "tempo": 120.0
            },
            {
                "start_time": 22.988636363636363,
                "end_time": 23.19772727272727,
                "pitch": 42,
                "velocity": 64,
                "duration": 0.20909090909090722,
                "tempo": 120.0
            },
            {
                "start_time": 23.21363636363636,
                "end_time": 23.427272727272726,
                "pitch": 45,
                "velocity": 64,
                "duration": 0.21363636363636473,
                "tempo": 120.0
            },
            {
                "start_time": 23.443181818181817,
                "end_time": 23.654545454545453,
                "pitch": 45,
                "velocity": 64,
                "duration": 0.21136363636363598,
                "tempo": 120.0
            },
            {
                "start_time": 23.91590909090909,
                "end_time": 24.14090909090909,
                "pitch": 42,
                "velocity": 64,
                "duration": 0.22500000000000142,
                "tempo": 120.0
            },
            {
                "start_time": 24.159090909090907,
                "end_time": 24.36590909090909,
                "pitch": 47,
                "velocity": 64,
                "duration": 0.206818181818182,
                "tempo": 120.0
            },
            {
                "start_time": 24.384090909090908,
                "end_time": 24.59090909090909,
                "pitch": 47,
                "velocity": 64,
                "duration": 0.206818181818182,
                "tempo": 120.0
            },
            {
                "start_time": 24.60681818181818,
                "end_time": 24.820454545454545,
                "pitch": 47,
                "velocity": 64,
                "duration": 0.21363636363636473,
                "tempo": 120.0
            },
            {
                "start_time": 24.836363636363636,
                "end_time": 25.049999999999997,
                "pitch": 42,
                "velocity": 64,
                "duration": 0.21363636363636118,
                "tempo": 120.0
            },
            {
                "start_time": 25.06590909090909,
                "end_time": 25.284090909090907,
                "pitch": 45,
                "velocity": 64,
                "duration": 0.21818181818181515,
                "tempo": 120.0
            },
            {
                "start_time": 25.299999999999997,
                "end_time": 25.518181818181816,
                "pitch": 45,
                "velocity": 64,
                "duration": 0.2181818181818187,
                "tempo": 120.0
            },
            {
                "start_time": 25.534090909090907,
                "end_time": 25.752272727272725,
                "pitch": 42,
                "velocity": 64,
                "duration": 0.2181818181818187,
                "tempo": 120.0
            },
            {
                "start_time": 25.768181818181816,
                "end_time": 25.986363636363635,
                "pitch": 45,
                "velocity": 64,
                "duration": 0.2181818181818187,
                "tempo": 120.0
            },
            {
                "start_time": 26.002272727272725,
                "end_time": 26.224999999999998,
                "pitch": 47,
                "velocity": 64,
                "duration": 0.22272727272727266,
                "tempo": 120.0
            },
            {
                "start_time": 26.243181818181817,
                "end_time": 26.46590909090909,
                "pitch": 47,
                "velocity": 64,
                "duration": 0.22272727272727266,
                "tempo": 120.0
            },
            {
                "start_time": 26.48409090909091,
                "end_time": 26.69090909090909,
                "pitch": 47,
                "velocity": 64,
                "duration": 0.206818181818182,
                "tempo": 120.0
            },
            {
                "start_time": 26.706818181818182,
                "end_time": 26.91590909090909,
                "pitch": 59,
                "velocity": 64,
                "duration": 0.20909090909090722,
                "tempo": 120.0
            },
            {
                "start_time": 26.93181818181818,
                "end_time": 27.14772727272727,
                "pitch": 50,
                "velocity": 64,
                "duration": 0.21590909090908994,
                "tempo": 120.0
            },
            {
                "start_time": 27.16590909090909,
                "end_time": 27.613636363636363,
                "pitch": 45,
                "velocity": 64,
                "duration": 0.4477272727272741,
                "tempo": 120.0
            },
            {
                "start_time": 27.629545454545454,
                "end_time": 28.075,
                "pitch": 47,
                "velocity": 64,
                "duration": 0.4454545454545453,
                "tempo": 120.0
            },
            {
                "start_time": 28.093181818181815,
                "end_time": 28.311363636363634,
                "pitch": 47,
                "velocity": 64,
                "duration": 0.2181818181818187,
                "tempo": 120.0
            },
            {
                "start_time": 28.327272727272724,
                "end_time": 28.545454545454543,
                "pitch": 47,
                "velocity": 64,
                "duration": 0.2181818181818187,
                "tempo": 120.0
            },
            {
                "start_time": 28.561363636363634,
                "end_time": 28.779545454545453,
                "pitch": 42,
                "velocity": 64,
                "duration": 0.2181818181818187,
                "tempo": 120.0
            },
            {
                "start_time": 28.795454545454543,
                "end_time": 29.009090909090908,
                "pitch": 45,
                "velocity": 64,
                "duration": 0.21363636363636473,
                "tempo": 120.0
            },
            {
                "start_time": 29.025,
                "end_time": 29.238636363636363,
                "pitch": 45,
                "velocity": 64,
                "duration": 0.21363636363636473,
                "tempo": 120.0
            },
            {
                "start_time": 29.488636363636363,
                "end_time": 29.706818181818182,
                "pitch": 46,
                "velocity": 64,
                "duration": 0.2181818181818187,
                "tempo": 120.0
            },
            {
                "start_time": 29.722727272727273,
                "end_time": 29.825,
                "pitch": 33,
                "velocity": 64,
                "duration": 0.10227272727272663,
                "tempo": 120.0
            },
            {
                "start_time": 29.843181818181815,
                "end_time": 29.945454545454545,
                "pitch": 35,
                "velocity": 64,
                "duration": 0.10227272727273018,
                "tempo": 120.0
            },
            {
                "start_time": 29.96363636363636,
                "end_time": 30.065909090909088,
                "pitch": 35,
                "velocity": 64,
                "duration": 0.10227272727272663,
                "tempo": 120.0
            },
            {
                "start_time": 30.084090909090907,
                "end_time": 30.186363636363634,
                "pitch": 35,
                "velocity": 64,
                "duration": 0.10227272727272663,
                "tempo": 120.0
            },
            {
                "start_time": 30.204545454545453,
                "end_time": 30.302272727272726,
                "pitch": 35,
                "velocity": 64,
                "duration": 0.09772727272727266,
                "tempo": 120.0
            },
            {
                "start_time": 30.318181818181817,
                "end_time": 30.41590909090909,
                "pitch": 35,
                "velocity": 64,
                "duration": 0.09772727272727266,
                "tempo": 120.0
            },
            {
                "start_time": 30.43181818181818,
                "end_time": 30.53181818181818,
                "pitch": 35,
                "velocity": 64,
                "duration": 0.10000000000000142,
                "tempo": 120.0
            },
            {
                "start_time": 30.547727272727272,
                "end_time": 30.645454545454545,
                "pitch": 35,
                "velocity": 64,
                "duration": 0.09772727272727266,
                "tempo": 120.0
            },
            {
                "start_time": 30.661363636363635,
                "end_time": 30.759090909090908,
                "pitch": 35,
                "velocity": 64,
                "duration": 0.09772727272727266,
                "tempo": 120.0
            },
            {
                "start_time": 30.777272727272727,
                "end_time": 30.875,
                "pitch": 35,
                "velocity": 64,
                "duration": 0.09772727272727266,
                "tempo": 120.0
            },
            {
                "start_time": 30.89090909090909,
                "end_time": 30.988636363636363,
                "pitch": 35,
                "velocity": 64,
                "duration": 0.09772727272727266,
                "tempo": 120.0
            },
            {
                "start_time": 31.004545454545454,
                "end_time": 31.104545454545452,
                "pitch": 35,
                "velocity": 64,
                "duration": 0.09999999999999787,
                "tempo": 120.0
            },
            {
                "start_time": 31.120454545454542,
                "end_time": 31.58863636363636,
                "pitch": 38,
                "velocity": 64,
                "duration": 0.4681818181818187,
                "tempo": 120.0
            },
            {
                "start_time": 31.60681818181818,
                "end_time": 31.706818181818182,
                "pitch": 33,
                "velocity": 64,
                "duration": 0.10000000000000142,
                "tempo": 120.0
            },
            {
                "start_time": 31.722727272727273,
                "end_time": 31.820454545454545,
                "pitch": 35,
                "velocity": 64,
                "duration": 0.09772727272727266,
                "tempo": 120.0
            },
            {
                "start_time": 31.836363636363636,
                "end_time": 31.93409090909091,
                "pitch": 35,
                "velocity": 64,
                "duration": 0.09772727272727266,
                "tempo": 120.0
            },
            {
                "start_time": 31.952272727272724,
                "end_time": 32.05,
                "pitch": 35,
                "velocity": 64,
                "duration": 0.09772727272727266,
                "tempo": 120.0
            },
            {
                "start_time": 32.06590909090909,
                "end_time": 32.16136363636363,
                "pitch": 35,
                "velocity": 64,
                "duration": 0.0954545454545439,
                "tempo": 120.0
            },
            {
                "start_time": 32.17727272727272,
                "end_time": 32.275,
                "pitch": 35,
                "velocity": 64,
                "duration": 0.09772727272727622,
                "tempo": 120.0
            },
            {
                "start_time": 32.29090909090909,
                "end_time": 32.38636363636363,
                "pitch": 35,
                "velocity": 64,
                "duration": 0.0954545454545439,
                "tempo": 120.0
            },
            {
                "start_time": 32.402272727272724,
                "end_time": 32.49772727272727,
                "pitch": 35,
                "velocity": 64,
                "duration": 0.0954545454545439,
                "tempo": 120.0
            },
            {
                "start_time": 32.513636363636365,
                "end_time": 32.61363636363636,
                "pitch": 35,
                "velocity": 64,
                "duration": 0.09999999999999432,
                "tempo": 120.0
            },
            {
                "start_time": 32.63181818181818,
                "end_time": 32.73181818181818,
                "pitch": 35,
                "velocity": 64,
                "duration": 0.09999999999999432,
                "tempo": 120.0
            },
            {
                "start_time": 32.74772727272727,
                "end_time": 32.85,
                "pitch": 35,
                "velocity": 64,
                "duration": 0.10227272727273373,
                "tempo": 120.0
            },
            {
                "start_time": 32.86590909090909,
                "end_time": 32.965909090909086,
                "pitch": 35,
                "velocity": 64,
                "duration": 0.09999999999999432,
                "tempo": 120.0
            },
            {
                "start_time": 32.98181818181818,
                "end_time": 33.20454545454545,
                "pitch": 40,
                "velocity": 64,
                "duration": 0.22272727272727622,
                "tempo": 120.0
            },
            {
                "start_time": 33.22272727272727,
                "end_time": 33.445454545454545,
                "pitch": 38,
                "velocity": 64,
                "duration": 0.22272727272727622,
                "tempo": 120.0
            },
            {
                "start_time": 33.46363636363636,
                "end_time": 33.56363636363636,
                "pitch": 33,
                "velocity": 64,
                "duration": 0.10000000000000142,
                "tempo": 120.0
            },
            {
                "start_time": 33.57954545454545,
                "end_time": 33.68181818181818,
                "pitch": 35,
                "velocity": 64,
                "duration": 0.10227272727272663,
                "tempo": 120.0
            },
            {
                "start_time": 33.69772727272727,
                "end_time": 33.79772727272727,
                "pitch": 35,
                "velocity": 64,
                "duration": 0.10000000000000142,
                "tempo": 120.0
            },
            {
                "start_time": 33.81590909090909,
                "end_time": 33.91590909090909,
                "pitch": 35,
                "velocity": 64,
                "duration": 0.10000000000000142,
                "tempo": 120.0
            },
            {
                "start_time": 33.93181818181818,
                "end_time": 34.027272727272724,
                "pitch": 35,
                "velocity": 64,
                "duration": 0.0954545454545439,
                "tempo": 120.0
            },
            {
                "start_time": 34.04545454545455,
                "end_time": 34.14090909090909,
                "pitch": 35,
                "velocity": 64,
                "duration": 0.0954545454545439,
                "tempo": 120.0
            },
            {
                "start_time": 34.15681818181818,
                "end_time": 34.252272727272725,
                "pitch": 35,
                "velocity": 64,
                "duration": 0.0954545454545439,
                "tempo": 120.0
            },
            {
                "start_time": 34.268181818181816,
                "end_time": 34.36363636363636,
                "pitch": 35,
                "velocity": 64,
                "duration": 0.0954545454545439,
                "tempo": 120.0
            },
            {
                "start_time": 34.37954545454545,
                "end_time": 34.47954545454545,
                "pitch": 35,
                "velocity": 64,
                "duration": 0.10000000000000142,
                "tempo": 120.0
            },
            {
                "start_time": 34.49772727272727,
                "end_time": 34.59772727272727,
                "pitch": 35,
                "velocity": 64,
                "duration": 0.10000000000000142,
                "tempo": 120.0
            },
            {
                "start_time": 34.61363636363636,
                "end_time": 34.715909090909086,
                "pitch": 35,
                "velocity": 64,
                "duration": 0.10227272727272663,
                "tempo": 120.0
            },
            {
                "start_time": 34.73181818181818,
                "end_time": 34.83181818181818,
                "pitch": 35,
                "velocity": 64,
                "duration": 0.10000000000000142,
                "tempo": 120.0
            },
            {
                "start_time": 34.85,
                "end_time": 34.94772727272727,
                "pitch": 35,
                "velocity": 64,
                "duration": 0.09772727272726911,
                "tempo": 120.0
            },
            {
                "start_time": 34.96363636363636,
                "end_time": 35.29090909090909,
                "pitch": 38,
                "velocity": 64,
                "duration": 0.32727272727272805,
                "tempo": 120.0
            },
            {
                "start_time": 35.30681818181818,
                "end_time": 35.40681818181818,
                "pitch": 33,
                "velocity": 64,
                "duration": 0.10000000000000142,
                "tempo": 120.0
            },
            {
                "start_time": 35.425,
                "end_time": 35.525,
                "pitch": 35,
                "velocity": 64,
                "duration": 0.10000000000000142,
                "tempo": 120.0
            },
            {
                "start_time": 35.54090909090909,
                "end_time": 35.643181818181816,
                "pitch": 35,
                "velocity": 64,
                "duration": 0.10227272727272663,
                "tempo": 120.0
            },
            {
                "start_time": 35.65909090909091,
                "end_time": 35.75909090909091,
                "pitch": 35,
                "velocity": 64,
                "duration": 0.10000000000000142,
                "tempo": 120.0
            },
            {
                "start_time": 35.777272727272724,
                "end_time": 35.877272727272725,
                "pitch": 35,
                "velocity": 64,
                "duration": 0.10000000000000142,
                "tempo": 120.0
            },
            {
                "start_time": 35.893181818181816,
                "end_time": 35.99318181818182,
                "pitch": 42,
                "velocity": 64,
                "duration": 0.10000000000000142,
                "tempo": 120.0
            },
            {
                "start_time": 36.01136363636363,
                "end_time": 36.111363636363635,
                "pitch": 35,
                "velocity": 64,
                "duration": 0.10000000000000142,
                "tempo": 120.0
            },
            {
                "start_time": 36.127272727272725,
                "end_time": 36.22954545454545,
                "pitch": 35,
                "velocity": 64,
                "duration": 0.10227272727272663,
                "tempo": 120.0
            },
            {
                "start_time": 36.24545454545454,
                "end_time": 36.34772727272727,
                "pitch": 40,
                "velocity": 64,
                "duration": 0.10227272727272663,
                "tempo": 120.0
            },
            {
                "start_time": 36.36363636363636,
                "end_time": 36.465909090909086,
                "pitch": 35,
                "velocity": 64,
                "duration": 0.10227272727272663,
                "tempo": 120.0
            },
            {
                "start_time": 36.48409090909091,
                "end_time": 36.586363636363636,
                "pitch": 35,
                "velocity": 64,
                "duration": 0.10227272727272663,
                "tempo": 120.0
            },
            {
                "start_time": 36.60227272727273,
                "end_time": 36.70454545454545,
                "pitch": 38,
                "velocity": 64,
                "duration": 0.10227272727272663,
                "tempo": 120.0
            },
            {
                "start_time": 36.720454545454544,
                "end_time": 36.81818181818181,
                "pitch": 35,
                "velocity": 64,
                "duration": 0.09772727272726911,
                "tempo": 120.0
            },
            {
                "start_time": 36.83409090909091,
                "end_time": 36.929545454545455,
                "pitch": 35,
                "velocity": 64,
                "duration": 0.0954545454545439,
                "tempo": 120.0
            },
            {
                "start_time": 36.945454545454545,
                "end_time": 37.04090909090909,
                "pitch": 33,
                "velocity": 64,
                "duration": 0.0954545454545439,
                "tempo": 120.0
            },
            {
                "start_time": 37.05681818181818,
                "end_time": 37.152272727272724,
                "pitch": 35,
                "velocity": 64,
                "duration": 0.0954545454545439,
                "tempo": 120.0
            },
            {
                "start_time": 37.17045454545455,
                "end_time": 37.27045454545454,
                "pitch": 33,
                "velocity": 64,
                "duration": 0.09999999999999432,
                "tempo": 120.0
            },
            {
                "start_time": 37.288636363636364,
                "end_time": 37.39090909090909,
                "pitch": 35,
                "velocity": 64,
                "duration": 0.10227272727272663,
                "tempo": 120.0
            },
            {
                "start_time": 37.40681818181818,
                "end_time": 37.50909090909091,
                "pitch": 35,
                "velocity": 64,
                "duration": 0.10227272727272663,
                "tempo": 120.0
            },
            {
                "start_time": 37.525,
                "end_time": 37.627272727272725,
                "pitch": 35,
                "velocity": 64,
                "duration": 0.10227272727272663,
                "tempo": 120.0
            },
            {
                "start_time": 37.64545454545454,
                "end_time": 37.74090909090909,
                "pitch": 35,
                "velocity": 64,
                "duration": 0.09545454545455101,
                "tempo": 120.0
            },
            {
                "start_time": 37.75681818181818,
                "end_time": 37.85227272727273,
                "pitch": 35,
                "velocity": 64,
                "duration": 0.0954545454545439,
                "tempo": 120.0
            },
            {
                "start_time": 37.86818181818182,
                "end_time": 37.965909090909086,
                "pitch": 35,
                "velocity": 64,
                "duration": 0.09772727272726911,
                "tempo": 120.0
            },
            {
                "start_time": 37.98181818181818,
                "end_time": 38.07727272727273,
                "pitch": 35,
                "velocity": 64,
                "duration": 0.09545454545455101,
                "tempo": 120.0
            },
            {
                "start_time": 38.09318181818182,
                "end_time": 38.19318181818181,
                "pitch": 35,
                "velocity": 64,
                "duration": 0.09999999999999432,
                "tempo": 120.0
            },
            {
                "start_time": 38.20909090909091,
                "end_time": 38.31136363636364,
                "pitch": 35,
                "velocity": 64,
                "duration": 0.10227272727272663,
                "tempo": 120.0
            },
            {
                "start_time": 38.32727272727273,
                "end_time": 38.42727272727272,
                "pitch": 35,
                "velocity": 64,
                "duration": 0.09999999999999432,
                "tempo": 120.0
            },
            {
                "start_time": 38.445454545454545,
                "end_time": 38.54545454545455,
                "pitch": 35,
                "velocity": 64,
                "duration": 0.10000000000000142,
                "tempo": 120.0
            },
            {
                "start_time": 38.56136363636364,
                "end_time": 39.01363636363636,
                "pitch": 38,
                "velocity": 64,
                "duration": 0.45227272727272094,
                "tempo": 120.0
            },
            {
                "start_time": 39.03181818181818,
                "end_time": 39.13409090909091,
                "pitch": 33,
                "velocity": 64,
                "duration": 0.10227272727272663,
                "tempo": 120.0
            },
            {
                "start_time": 39.15,
                "end_time": 39.25454545454545,
                "pitch": 35,
                "velocity": 64,
                "duration": 0.10454545454545183,
                "tempo": 120.0
            },
            {
                "start_time": 39.27045454545454,
                "end_time": 39.37272727272727,
                "pitch": 35,
                "velocity": 64,
                "duration": 0.10227272727272663,
                "tempo": 120.0
            },
            {
                "start_time": 39.39090909090909,
                "end_time": 39.49318181818182,
                "pitch": 35,
                "velocity": 64,
                "duration": 0.10227272727272663,
                "tempo": 120.0
            },
            {
                "start_time": 39.51136363636363,
                "end_time": 39.60681818181818,
                "pitch": 35,
                "velocity": 64,
                "duration": 0.0954545454545439,
                "tempo": 120.0
            },
            {
                "start_time": 39.62272727272727,
                "end_time": 39.71818181818182,
                "pitch": 35,
                "velocity": 64,
                "duration": 0.09545454545455101,
                "tempo": 120.0
            },
            {
                "start_time": 39.73409090909091,
                "end_time": 39.82954545454545,
                "pitch": 35,
                "velocity": 64,
                "duration": 0.0954545454545439,
                "tempo": 120.0
            },
            {
                "start_time": 39.84772727272727,
                "end_time": 39.94318181818181,
                "pitch": 35,
                "velocity": 64,
                "duration": 0.0954545454545439,
                "tempo": 120.0
            },
            {
                "start_time": 39.959090909090904,
                "end_time": 40.059090909090905,
                "pitch": 35,
                "velocity": 64,
                "duration": 0.10000000000000142,
                "tempo": 120.0
            },
            {
                "start_time": 40.074999999999996,
                "end_time": 40.17727272727272,
                "pitch": 35,
                "velocity": 64,
                "duration": 0.10227272727272663,
                "tempo": 120.0
            },
            {
                "start_time": 40.19318181818181,
                "end_time": 40.293181818181814,
                "pitch": 35,
                "velocity": 64,
                "duration": 0.10000000000000142,
                "tempo": 120.0
            },
            {
                "start_time": 40.31136363636364,
                "end_time": 40.41136363636363,
                "pitch": 35,
                "velocity": 64,
                "duration": 0.09999999999999432,
                "tempo": 120.0
            },
            {
                "start_time": 40.42727272727272,
                "end_time": 40.64090909090909,
                "pitch": 40,
                "velocity": 64,
                "duration": 0.2136363636363683,
                "tempo": 120.0
            },
            {
                "start_time": 40.65681818181818,
                "end_time": 40.86818181818182,
                "pitch": 38,
                "velocity": 64,
                "duration": 0.21136363636363598,
                "tempo": 120.0
            },
            {
                "start_time": 40.88636363636363,
                "end_time": 40.98863636363636,
                "pitch": 33,
                "velocity": 64,
                "duration": 0.10227272727272663,
                "tempo": 120.0
            },
            {
                "start_time": 41.00681818181818,
                "end_time": 41.111363636363635,
                "pitch": 35,
                "velocity": 64,
                "duration": 0.10454545454545183,
                "tempo": 120.0
            },
            {
                "start_time": 41.12954545454545,
                "end_time": 41.23409090909091,
                "pitch": 35,
                "velocity": 64,
                "duration": 0.10454545454545894,
                "tempo": 120.0
            },
            {
                "start_time": 41.25,
                "end_time": 41.35454545454545,
                "pitch": 35,
                "velocity": 64,
                "duration": 0.10454545454545183,
                "tempo": 120.0
            },
            {
                "start_time": 41.37272727272727,
                "end_time": 41.46818181818182,
                "pitch": 35,
                "velocity": 64,
                "duration": 0.09545454545455101,
                "tempo": 120.0
            },
            {
                "start_time": 41.48409090909091,
                "end_time": 41.58181818181818,
                "pitch": 35,
                "velocity": 64,
                "duration": 0.09772727272726911,
                "tempo": 120.0
            },
            {
                "start_time": 41.59772727272727,
                "end_time": 41.69318181818181,
                "pitch": 35,
                "velocity": 64,
                "duration": 0.0954545454545439,
                "tempo": 120.0
            },
            {
                "start_time": 41.709090909090904,
                "end_time": 41.804545454545455,
                "pitch": 35,
                "velocity": 64,
                "duration": 0.09545454545455101,
                "tempo": 120.0
            },
            {
                "start_time": 41.820454545454545,
                "end_time": 41.918181818181814,
                "pitch": 35,
                "velocity": 64,
                "duration": 0.09772727272726911,
                "tempo": 120.0
            },
            {
                "start_time": 41.93636363636364,
                "end_time": 42.03409090909091,
                "pitch": 35,
                "velocity": 64,
                "duration": 0.09772727272726911,
                "tempo": 120.0
            },
            {
                "start_time": 42.05,
                "end_time": 42.14772727272727,
                "pitch": 35,
                "velocity": 64,
                "duration": 0.09772727272727622,
                "tempo": 120.0
            },
            {
                "start_time": 42.163636363636364,
                "end_time": 42.26363636363636,
                "pitch": 35,
                "velocity": 64,
                "duration": 0.09999999999999432,
                "tempo": 120.0
            },
            {
                "start_time": 42.27954545454545,
                "end_time": 42.37954545454545,
                "pitch": 35,
                "velocity": 64,
                "duration": 0.10000000000000142,
                "tempo": 120.0
            },
            {
                "start_time": 42.39545454545454,
                "end_time": 42.73181818181818,
                "pitch": 38,
                "velocity": 64,
                "duration": 0.336363636363636,
                "tempo": 120.0
            },
            {
                "start_time": 42.74772727272727,
                "end_time": 42.84772727272727,
                "pitch": 33,
                "velocity": 64,
                "duration": 0.10000000000000142,
                "tempo": 120.0
            },
            {
                "start_time": 42.86590909090909,
                "end_time": 42.965909090909086,
                "pitch": 35,
                "velocity": 64,
                "duration": 0.09999999999999432,
                "tempo": 120.0
            },
            {
                "start_time": 42.98181818181818,
                "end_time": 43.084090909090904,
                "pitch": 35,
                "velocity": 64,
                "duration": 0.10227272727272663,
                "tempo": 120.0
            },
            {
                "start_time": 43.1,
                "end_time": 43.199999999999996,
                "pitch": 35,
                "velocity": 64,
                "duration": 0.09999999999999432,
                "tempo": 120.0
            },
            {
                "start_time": 43.215909090909086,
                "end_time": 43.31590909090909,
                "pitch": 35,
                "velocity": 64,
                "duration": 0.10000000000000142,
                "tempo": 120.0
            },
            {
                "start_time": 43.33181818181818,
                "end_time": 43.429545454545455,
                "pitch": 42,
                "velocity": 64,
                "duration": 0.09772727272727622,
                "tempo": 120.0
            },
            {
                "start_time": 43.445454545454545,
                "end_time": 43.543181818181814,
                "pitch": 35,
                "velocity": 64,
                "duration": 0.09772727272726911,
                "tempo": 120.0
            },
            {
                "start_time": 43.56136363636364,
                "end_time": 43.65909090909091,
                "pitch": 35,
                "velocity": 64,
                "duration": 0.09772727272726911,
                "tempo": 120.0
            },
            {
                "start_time": 43.675,
                "end_time": 43.775,
                "pitch": 40,
                "velocity": 64,
                "duration": 0.10000000000000142,
                "tempo": 120.0
            },
            {
                "start_time": 43.793181818181814,
                "end_time": 43.893181818181816,
                "pitch": 35,
                "velocity": 64,
                "duration": 0.10000000000000142,
                "tempo": 120.0
            },
            {
                "start_time": 43.90909090909091,
                "end_time": 44.00909090909091,
                "pitch": 35,
                "velocity": 64,
                "duration": 0.10000000000000142,
                "tempo": 120.0
            },
            {
                "start_time": 44.027272727272724,
                "end_time": 44.127272727272725,
                "pitch": 38,
                "velocity": 64,
                "duration": 0.10000000000000142,
                "tempo": 120.0
            },
            {
                "start_time": 44.143181818181816,
                "end_time": 44.24545454545454,
                "pitch": 35,
                "velocity": 64,
                "duration": 0.10227272727272663,
                "tempo": 120.0
            },
            {
                "start_time": 44.26136363636363,
                "end_time": 44.361363636363635,
                "pitch": 35,
                "velocity": 64,
                "duration": 0.10000000000000142,
                "tempo": 120.0
            },
            {
                "start_time": 44.37954545454545,
                "end_time": 44.47954545454545,
                "pitch": 33,
                "velocity": 64,
                "duration": 0.10000000000000142,
                "tempo": 120.0
            },
            {
                "start_time": 44.49545454545454,
                "end_time": 44.595454545454544,
                "pitch": 35,
                "velocity": 64,
                "duration": 0.10000000000000142,
                "tempo": 120.0
            },
            {
                "start_time": 46.00681818181818,
                "end_time": 46.10681818181818,
                "pitch": 40,
                "velocity": 64,
                "duration": 0.09999999999999432,
                "tempo": 120.0
            },
            {
                "start_time": 46.12272727272727,
                "end_time": 46.224999999999994,
                "pitch": 38,
                "velocity": 64,
                "duration": 0.10227272727272663,
                "tempo": 120.0
            },
            {
                "start_time": 46.24090909090909,
                "end_time": 46.340909090909086,
                "pitch": 37,
                "velocity": 64,
                "duration": 0.09999999999999432,
                "tempo": 120.0
            },
            {
                "start_time": 46.35909090909091,
                "end_time": 46.459090909090904,
                "pitch": 33,
                "velocity": 64,
                "duration": 0.09999999999999432,
                "tempo": 120.0
            },
            {
                "start_time": 46.474999999999994,
                "end_time": 46.69318181818181,
                "pitch": 47,
                "velocity": 64,
                "duration": 0.2181818181818187,
                "tempo": 120.0
            },
            {
                "start_time": 46.709090909090904,
                "end_time": 46.92727272727272,
                "pitch": 47,
                "velocity": 64,
                "duration": 0.2181818181818187,
                "tempo": 120.0
            },
            {
                "start_time": 46.94318181818181,
                "end_time": 47.15681818181818,
                "pitch": 47,
                "velocity": 64,
                "duration": 0.2136363636363683,
                "tempo": 120.0
            },
            {
                "start_time": 47.17272727272727,
                "end_time": 47.288636363636364,
                "pitch": 42,
                "velocity": 64,
                "duration": 0.11590909090909207,
                "tempo": 120.0
            }
        ],
        "Violin": [
            {
                "start_time": 1.625,
                "end_time": 3.234090909090909,
                "pitch": 83,
                "velocity": 80,
                "duration": 1.609090909090909,
                "tempo": 120.0
            },
            {
                "start_time": 3.25,
                "end_time": 3.468181818181818,
                "pitch": 81,
                "velocity": 80,
                "duration": 0.2181818181818178,
                "tempo": 120.0
            },
            {
                "start_time": 3.4863636363636363,
                "end_time": 5.334090909090909,
                "pitch": 78,
                "velocity": 80,
                "duration": 1.8477272727272727,
                "tempo": 120.0
            },
            {
                "start_time": 5.35,
                "end_time": 6.963636363636363,
                "pitch": 83,
                "velocity": 80,
                "duration": 1.6136363636363633,
                "tempo": 120.0
            },
            {
                "start_time": 6.9795454545454545,
                "end_time": 7.1931818181818175,
                "pitch": 81,
                "velocity": 80,
                "duration": 0.21363636363636296,
                "tempo": 120.0
            },
            {
                "start_time": 7.209090909090909,
                "end_time": 9.054545454545455,
                "pitch": 78,
                "velocity": 80,
                "duration": 1.8454545454545457,
                "tempo": 120.0
            },
            {
                "start_time": 9.070454545454545,
                "end_time": 10.684090909090909,
                "pitch": 83,
                "velocity": 80,
                "duration": 1.6136363636363633,
                "tempo": 120.0
            },
            {
                "start_time": 10.7,
                "end_time": 10.918181818181818,
                "pitch": 81,
                "velocity": 80,
                "duration": 0.2181818181818187,
                "tempo": 120.0
            },
            {
                "start_time": 10.936363636363636,
                "end_time": 11.611363636363636,
                "pitch": 78,
                "velocity": 80,
                "duration": 0.6750000000000007,
                "tempo": 120.0
            },
            {
                "start_time": 11.627272727272727,
                "end_time": 12.547727272727272,
                "pitch": 79,
                "velocity": 80,
                "duration": 0.920454545454545,
                "tempo": 120.0
            },
            {
                "start_time": 12.56590909090909,
                "end_time": 12.777272727272727,
                "pitch": 81,
                "velocity": 80,
                "duration": 0.21136363636363775,
                "tempo": 120.0
            },
            {
                "start_time": 12.793181818181818,
                "end_time": 14.872727272727271,
                "pitch": 83,
                "velocity": 80,
                "duration": 2.0795454545454533,
                "tempo": 120.0
            },
            {
                "start_time": 19.077272727272728,
                "end_time": 20.456818181818182,
                "pitch": 71,
                "velocity": 80,
                "duration": 1.379545454545454,
                "tempo": 120.0
            },
            {
                "start_time": 20.702272727272724,
                "end_time": 20.8,
                "pitch": 71,
                "velocity": 80,
                "duration": 0.09772727272727622,
                "tempo": 120.0
            },
            {
                "start_time": 22.813636363636363,
                "end_time": 23.245454545454546,
                "pitch": 71,
                "velocity": 80,
                "duration": 0.43181818181818343,
                "tempo": 120.0
            },
            {
                "start_time": 23.49090909090909,
                "end_time": 23.706818181818182,
                "pitch": 74,
                "velocity": 80,
                "duration": 0.2159090909090935,
                "tempo": 120.0
            },
            {
                "start_time": 23.722727272727273,
                "end_time": 23.827272727272724,
                "pitch": 71,
                "velocity": 80,
                "duration": 0.10454545454545183,
                "tempo": 120.0
            },
            {
                "start_time": 24.43181818181818,
                "end_time": 24.527272727272727,
                "pitch": 71,
                "velocity": 80,
                "duration": 0.09545454545454746,
                "tempo": 120.0
            },
            {
                "start_time": 26.53181818181818,
                "end_time": 26.96363636363636,
                "pitch": 71,
                "velocity": 80,
                "duration": 0.4318181818181799,
                "tempo": 120.0
            },
            {
                "start_time": 27.21590909090909,
                "end_time": 27.43181818181818,
                "pitch": 74,
                "velocity": 80,
                "duration": 0.21590909090908994,
                "tempo": 120.0
            },
            {
                "start_time": 27.45,
                "end_time": 27.547727272727272,
                "pitch": 71,
                "velocity": 80,
                "duration": 0.09772727272727266,
                "tempo": 120.0
            },
            {
                "start_time": 28.143181818181816,
                "end_time": 28.243181818181817,
                "pitch": 71,
                "velocity": 80,
                "duration": 0.10000000000000142,
                "tempo": 120.0
            },
            {
                "start_time": 29.775,
                "end_time": 31.154545454545453,
                "pitch": 71,
                "velocity": 80,
                "duration": 1.379545454545454,
                "tempo": 120.0
            },
            {
                "start_time": 31.170454545454543,
                "end_time": 31.64090909090909,
                "pitch": 74,
                "velocity": 80,
                "duration": 0.47045454545454746,
                "tempo": 120.0
            },
            {
                "start_time": 31.65681818181818,
                "end_time": 33.01590909090909,
                "pitch": 71,
                "velocity": 80,
                "duration": 1.3590909090909093,
                "tempo": 120.0
            },
            {
                "start_time": 33.03409090909091,
                "end_time": 33.25681818181818,
                "pitch": 76,
                "velocity": 80,
                "duration": 0.22272727272727622,
                "tempo": 120.0
            },
            {
                "start_time": 33.275,
                "end_time": 33.49772727272727,
                "pitch": 74,
                "velocity": 80,
                "duration": 0.2227272727272691,
                "tempo": 120.0
            },
            {
                "start_time": 33.513636363636365,
                "end_time": 34.99545454545454,
                "pitch": 71,
                "velocity": 80,
                "duration": 1.481818181818177,
                "tempo": 120.0
            },
            {
                "start_time": 35.013636363636365,
                "end_time": 35.340909090909086,
                "pitch": 74,
                "velocity": 80,
                "duration": 0.32727272727272094,
                "tempo": 120.0
            },
            {
                "start_time": 35.35681818181818,
                "end_time": 35.92727272727272,
                "pitch": 71,
                "velocity": 80,
                "duration": 0.5704545454545453,
                "tempo": 120.0
            },
            {
                "start_time": 35.94318181818181,
                "end_time": 36.043181818181814,
                "pitch": 78,
                "velocity": 80,
                "duration": 0.10000000000000142,
                "tempo": 120.0
            },
            {
                "start_time": 36.29545454545455,
                "end_time": 36.39772727272727,
                "pitch": 76,
                "velocity": 80,
                "duration": 0.10227272727272663,
                "tempo": 120.0
            },
            {
                "start_time": 36.654545454545456,
                "end_time": 36.75454545454545,
                "pitch": 74,
                "velocity": 80,
                "duration": 0.09999999999999432,
                "tempo": 120.0
            },
            {
                "start_time": 36.99318181818182,
                "end_time": 37.08863636363636,
                "pitch": 69,
                "velocity": 80,
                "duration": 0.0954545454545439,
                "tempo": 120.0
            },
            {
                "start_time": 37.10454545454545,
                "end_time": 37.20227272727273,
                "pitch": 71,
                "velocity": 80,
                "duration": 0.09772727272727622,
                "tempo": 120.0
            },
            {
                "start_time": 37.220454545454544,
                "end_time": 38.595454545454544,
                "pitch": 71,
                "velocity": 80,
                "duration": 1.375,
                "tempo": 120.0
            },
            {
                "start_time": 38.611363636363635,
                "end_time": 39.06363636363636,
                "pitch": 74,
                "velocity": 80,
                "duration": 0.45227272727272805,
                "tempo": 120.0
            },
            {
                "start_time": 39.08181818181818,
                "end_time": 40.459090909090904,
                "pitch": 71,
                "velocity": 80,
                "duration": 1.3772727272727252,
                "tempo": 120.0
            },
            {
                "start_time": 40.47727272727273,
                "end_time": 40.68863636363636,
                "pitch": 76,
                "velocity": 80,
                "duration": 0.21136363636363598,
                "tempo": 120.0
            },
            {
                "start_time": 40.70454545454545,
                "end_time": 40.918181818181814,
                "pitch": 74,
                "velocity": 80,
                "duration": 0.21363636363636118,
                "tempo": 120.0
            },
            {
                "start_time": 40.93636363636364,
                "end_time": 42.429545454545455,
                "pitch": 71,
                "velocity": 80,
                "duration": 1.4931818181818173,
                "tempo": 120.0
            },
            {
                "start_time": 42.445454545454545,
                "end_time": 42.78181818181818,
                "pitch": 74,
                "velocity": 80,
                "duration": 0.336363636363636,
                "tempo": 120.0
            },
            {
                "start_time": 42.79772727272727,
                "end_time": 43.36363636363636,
                "pitch": 71,
                "velocity": 80,
                "duration": 0.5659090909090878,
                "tempo": 120.0
            },
            {
                "start_time": 43.37954545454545,
                "end_time": 43.47954545454545,
                "pitch": 78,
                "velocity": 80,
                "duration": 0.10000000000000142,
                "tempo": 120.0
            },
            {
                "start_time": 43.725,
                "end_time": 43.824999999999996,
                "pitch": 76,
                "velocity": 80,
                "duration": 0.09999999999999432,
                "tempo": 120.0
            },
            {
                "start_time": 44.07727272727273,
                "end_time": 44.17727272727272,
                "pitch": 74,
                "velocity": 80,
                "duration": 0.09999999999999432,
                "tempo": 120.0
            },
            {
                "start_time": 44.429545454545455,
                "end_time": 44.52954545454545,
                "pitch": 69,
                "velocity": 80,
                "duration": 0.09999999999999432,
                "tempo": 120.0
            },
            {
                "start_time": 44.54545454545455,
                "end_time": 44.64772727272727,
                "pitch": 71,
                "velocity": 80,
                "duration": 0.10227272727272663,
                "tempo": 120.0
            }
        ]
    }
}