{
    "track_id": "Double Dragon (FM) - 01 - Title",
    "mood": "happy",
    "instruments": {
        "Trumpet": [
            {
                "start_time": 0.015909090909090907,
                "end_time": 0.37727272727272726,
                "pitch": 55,
                "velocity": 51,
                "duration": 0.36136363636363633,
                "tempo": 120.0
            },
            {
                "start_time": 0.5886363636363636,
                "end_time": 0.9636363636363636,
                "pitch": 57,
                "velocity": 51,
                "duration": 0.375,
                "tempo": 120.0
            },
            {
                "start_time": 1.3727272727272726,
                "end_time": 2.3659090909090907,
                "pitch": 59,
                "velocity": 51,
                "duration": 0.9931818181818182,
                "tempo": 120.0
            },
            {
                "start_time": 3.186363636363636,
                "end_time": 3.5795454545454546,
                "pitch": 55,
                "velocity": 51,
                "duration": 0.3931818181818185,
                "tempo": 120.0
            },
            {
                "start_time": 3.7977272727272724,
                "end_time": 4.177272727272727,
                "pitch": 57,
                "velocity": 51,
                "duration": 0.3795454545454544,
                "tempo": 120.0
            },
            {
                "start_time": 4.584090909090909,
                "end_time": 6.381818181818182,
                "pitch": 64,
                "velocity": 51,
                "duration": 1.7977272727272728,
                "tempo": 120.0
            },
            {
                "start_time": 6.3977272727272725,
                "end_time": 6.790909090909091,
                "pitch": 55,
                "velocity": 51,
                "duration": 0.3931818181818185,
                "tempo": 120.0
            },
            {
                "start_time": 7.009090909090909,
                "end_time": 7.388636363636364,
                "pitch": 57,
                "velocity": 51,
                "duration": 0.37954545454545485,
                "tempo": 120.0
            },
            {
                "start_time": 7.797727272727272,
                "end_time": 8.781818181818181,
                "pitch": 59,
                "velocity": 51,
                "duration": 0.9840909090909093,
                "tempo": 120.0
            },
            {
                "start_time": 9.004545454545454,
                "end_time": 9.193181818181818,
                "pitch": 60,
                "velocity": 51,
                "duration": 0.18863636363636438,
                "tempo": 120.0
            },
            {
                "start_time": 9.209090909090909,
                "end_time": 9.397727272727272,
                "pitch": 64,
                "velocity": 51,
                "duration": 0.1886363636363626,
                "tempo": 120.0
            },
            {
                "start_time": 9.415909090909091,
                "end_time": 12.597727272727273,
                "pitch": 66,
                "velocity": 51,
                "duration": 3.1818181818181817,
                "tempo": 120.0
            },
            {
                "start_time": 12.61590909090909,
                "end_time": 15.975,
                "pitch": 67,
                "velocity": 51,
                "duration": 3.3590909090909093,
                "tempo": 120.0
            }
        ],
        "Electric Guitar (clean)": [
            {
                "start_time": 0.015909090909090907,
                "end_time": 0.37727272727272726,
                "pitch": 36,
                "velocity": 64,
                "duration": 0.36136363636363633,
                "tempo": 120.0
            },
            {
                "start_time": 0.5886363636363636,
                "end_time": 0.9636363636363636,
                "pitch": 38,
                "velocity": 64,
                "duration": 0.375,
                "tempo": 120.0
            },
            {
                "start_time": 1.3727272727272726,
                "end_time": 1.7545454545454544,
                "pitch": 40,
                "velocity": 64,
                "duration": 0.38181818181818183,
                "tempo": 120.0
            },
            {
                "start_time": 1.7704545454545453,
                "end_time": 1.9545454545454544,
                "pitch": 52,
                "velocity": 64,
                "duration": 0.18409090909090908,
                "tempo": 120.0
            },
            {
                "start_time": 1.9727272727272727,
                "end_time": 2.161363636363636,
                "pitch": 50,
                "velocity": 64,
                "duration": 0.1886363636363635,
                "tempo": 120.0
            },
            {
                "start_time": 2.1772727272727272,
                "end_time": 2.3659090909090907,
                "pitch": 48,
                "velocity": 64,
                "duration": 0.1886363636363635,
                "tempo": 120.0
            },
            {
                "start_time": 2.381818181818182,
                "end_time": 2.5704545454545453,
                "pitch": 43,
                "velocity": 64,
                "duration": 0.1886363636363635,
                "tempo": 120.0
            },
            {
                "start_time": 2.5886363636363634,
                "end_time": 2.7772727272727273,
                "pitch": 50,
                "velocity": 64,
                "duration": 0.18863636363636394,
                "tempo": 120.0
            },
            {
                "start_time": 2.793181818181818,
                "end_time": 2.9727272727272727,
                "pitch": 48,
                "velocity": 64,
                "duration": 0.17954545454545467,
                "tempo": 120.0
            },
            {
                "start_time": 2.9909090909090907,
                "end_time": 3.1704545454545454,
                "pitch": 47,
                "velocity": 64,
                "duration": 0.17954545454545467,
                "tempo": 120.0
            },
            {
                "start_time": 3.186363636363636,
                "end_time": 3.5795454545454546,
                "pitch": 36,
                "velocity": 64,
                "duration": 0.3931818181818185,
                "tempo": 120.0
            },
            {
                "start_time": 3.7977272727272724,
                "end_time": 4.177272727272727,
                "pitch": 38,
                "velocity": 64,
                "duration": 0.3795454545454544,
                "tempo": 120.0
            },
            {
                "start_time": 4.388636363636364,
                "end_time": 4.568181818181818,
                "pitch": 35,
                "velocity": 64,
                "duration": 0.17954545454545467,
                "tempo": 120.0
            },
            {
                "start_time": 4.584090909090909,
                "end_time": 4.965909090909091,
                "pitch": 40,
                "velocity": 64,
                "duration": 0.38181818181818183,
                "tempo": 120.0
            },
            {
                "start_time": 4.9818181818181815,
                "end_time": 5.372727272727272,
                "pitch": 43,
                "velocity": 64,
                "duration": 0.39090909090909065,
                "tempo": 120.0
            },
            {
                "start_time": 5.388636363636364,
                "end_time": 5.577272727272727,
                "pitch": 55,
                "velocity": 64,
                "duration": 0.1886363636363635,
                "tempo": 120.0
            },
            {
                "start_time": 5.595454545454545,
                "end_time": 5.777272727272727,
                "pitch": 45,
                "velocity": 64,
                "duration": 0.18181818181818254,
                "tempo": 120.0
            },
            {
                "start_time": 5.795454545454545,
                "end_time": 5.977272727272727,
                "pitch": 57,
                "velocity": 64,
                "duration": 0.18181818181818166,
                "tempo": 120.0
            },
            {
                "start_time": 5.995454545454545,
                "end_time": 6.179545454545455,
                "pitch": 47,
                "velocity": 64,
                "duration": 0.18409090909090953,
                "tempo": 120.0
            },
            {
                "start_time": 6.195454545454545,
                "end_time": 6.381818181818182,
                "pitch": 59,
                "velocity": 64,
                "duration": 0.1863636363636365,
                "tempo": 120.0
            },
            {
                "start_time": 6.3977272727272725,
                "end_time": 6.790909090909091,
                "pitch": 36,
                "velocity": 64,
                "duration": 0.3931818181818185,
                "tempo": 120.0
            },
            {
                "start_time": 7.009090909090909,
                "end_time": 7.388636363636364,
                "pitch": 38,
                "velocity": 64,
                "duration": 0.37954545454545485,
                "tempo": 120.0
            },
            {
                "start_time": 7.797727272727272,
                "end_time": 8.177272727272728,
                "pitch": 40,
                "velocity": 64,
                "duration": 0.37954545454545574,
                "tempo": 120.0
            },
            {
                "start_time": 8.195454545454545,
                "end_time": 8.379545454545454,
                "pitch": 48,
                "velocity": 64,
                "duration": 0.18409090909090864,
                "tempo": 120.0
            },
            {
                "start_time": 8.395454545454545,
                "end_time": 8.579545454545453,
                "pitch": 35,
                "velocity": 64,
                "duration": 0.18409090909090864,
                "tempo": 120.0
            },
            {
                "start_time": 8.597727272727273,
                "end_time": 8.781818181818181,
                "pitch": 47,
                "velocity": 64,
                "duration": 0.18409090909090864,
                "tempo": 120.0
            },
            {
                "start_time": 8.797727272727272,
                "end_time": 8.986363636363636,
                "pitch": 45,
                "velocity": 64,
                "duration": 0.18863636363636438,
                "tempo": 120.0
            },
            {
                "start_time": 9.004545454545454,
                "end_time": 9.193181818181818,
                "pitch": 45,
                "velocity": 64,
                "duration": 0.18863636363636438,
                "tempo": 120.0
            },
            {
                "start_time": 9.209090909090909,
                "end_time": 9.397727272727272,
                "pitch": 48,
                "velocity": 64,
                "duration": 0.1886363636363626,
                "tempo": 120.0
            },
            {
                "start_time": 9.415909090909091,
                "end_time": 9.604545454545454,
                "pitch": 50,
                "velocity": 64,
                "duration": 0.1886363636363626,
                "tempo": 120.0
            },
            {
                "start_time": 9.620454545454544,
                "end_time": 9.795454545454545,
                "pitch": 50,
                "velocity": 64,
                "duration": 0.1750000000000007,
                "tempo": 120.0
            },
            {
                "start_time": 9.811363636363636,
                "end_time": 9.986363636363636,
                "pitch": 50,
                "velocity": 64,
                "duration": 0.1750000000000007,
                "tempo": 120.0
            },
            {
                "start_time": 10.002272727272727,
                "end_time": 10.186363636363636,
                "pitch": 50,
                "velocity": 64,
                "duration": 0.18409090909090864,
                "tempo": 120.0
            },
            {
                "start_time": 10.204545454545453,
                "end_time": 10.388636363636364,
                "pitch": 50,
                "velocity": 64,
                "duration": 0.18409090909091042,
                "tempo": 120.0
            },
            {
                "start_time": 10.404545454545454,
                "end_time": 10.59090909090909,
                "pitch": 50,
                "velocity": 64,
                "duration": 0.18636363636363562,
                "tempo": 120.0
            },
            {
                "start_time": 10.60681818181818,
                "end_time": 10.790909090909091,
                "pitch": 50,
                "velocity": 64,
                "duration": 0.18409090909091042,
                "tempo": 120.0
            },
            {
                "start_time": 10.806818181818182,
                "end_time": 10.99090909090909,
                "pitch": 50,
                "velocity": 64,
                "duration": 0.18409090909090864,
                "tempo": 120.0
            },
            {
                "start_time": 11.006818181818181,
                "end_time": 11.19090909090909,
                "pitch": 50,
                "velocity": 64,
                "duration": 0.18409090909090864,
                "tempo": 120.0
            },
            {
                "start_time": 11.206818181818182,
                "end_time": 11.393181818181818,
                "pitch": 50,
                "velocity": 64,
                "duration": 0.18636363636363562,
                "tempo": 120.0
            },
            {
                "start_time": 11.409090909090908,
                "end_time": 11.593181818181817,
                "pitch": 50,
                "velocity": 64,
                "duration": 0.18409090909090864,
                "tempo": 120.0
            },
            {
                "start_time": 11.611363636363636,
                "end_time": 11.799999999999999,
                "pitch": 50,
                "velocity": 64,
                "duration": 0.1886363636363626,
                "tempo": 120.0
            },
            {
                "start_time": 11.81590909090909,
                "end_time": 12.004545454545454,
                "pitch": 50,
                "velocity": 64,
                "duration": 0.18863636363636438,
                "tempo": 120.0
            },
            {
                "start_time": 12.020454545454545,
                "end_time": 12.2,
                "pitch": 50,
                "velocity": 64,
                "duration": 0.17954545454545467,
                "tempo": 120.0
            },
            {
                "start_time": 12.218181818181817,
                "end_time": 12.397727272727272,
                "pitch": 50,
                "velocity": 64,
                "duration": 0.17954545454545467,
                "tempo": 120.0
            },
            {
                "start_time": 12.413636363636362,
                "end_time": 12.597727272727273,
                "pitch": 50,
                "velocity": 64,
                "duration": 0.18409090909091042,
                "tempo": 120.0
            },
            {
                "start_time": 12.61590909090909,
                "end_time": 12.799999999999999,
                "pitch": 50,
                "velocity": 64,
                "duration": 0.18409090909090864,
                "tempo": 120.0
            },
            {
                "start_time": 12.81590909090909,
                "end_time": 13.004545454545454,
                "pitch": 48,
                "velocity": 80,
                "duration": 0.18863636363636438,
                "tempo": 120.0
            },
            {
                "start_time": 13.022727272727272,
                "end_time": 13.209090909090909,
                "pitch": 48,
                "velocity": 80,
                "duration": 0.1863636363636374,
                "tempo": 120.0
            },
            {
                "start_time": 13.227272727272727,
                "end_time": 13.406818181818181,
                "pitch": 48,
                "velocity": 80,
                "duration": 0.17954545454545467,
                "tempo": 120.0
            },
            {
                "start_time": 13.422727272727272,
                "end_time": 14.004545454545454,
                "pitch": 47,
                "velocity": 80,
                "duration": 0.581818181818182,
                "tempo": 120.0
            },
            {
                "start_time": 14.022727272727272,
                "end_time": 14.415909090909091,
                "pitch": 45,
                "velocity": 80,
                "duration": 0.3931818181818194,
                "tempo": 120.0
            },
            {
                "start_time": 14.431818181818182,
                "end_time": 15.975,
                "pitch": 43,
                "velocity": 80,
                "duration": 1.543181818181818,
                "tempo": 120.0
            }
        ],
        "Lead 2 (sawtooth)": [
            {
                "start_time": 0.015909090909090907,
                "end_time": 0.37727272727272726,
                "pitch": 55,
                "velocity": 51,
                "duration": 0.36136363636363633,
                "tempo": 120.0
            },
            {
                "start_time": 0.5886363636363636,
                "end_time": 0.9636363636363636,
                "pitch": 57,
                "velocity": 51,
                "duration": 0.375,
                "tempo": 120.0
            },
            {
                "start_time": 1.3727272727272726,
                "end_time": 1.9545454545454544,
                "pitch": 59,
                "velocity": 51,
                "duration": 0.5818181818181818,
                "tempo": 120.0
            },
            {
                "start_time": 1.9727272727272727,
                "end_time": 2.3659090909090907,
                "pitch": 76,
                "velocity": 51,
                "duration": 0.3931818181818181,
                "tempo": 120.0
            },
            {
                "start_time": 2.381818181818182,
                "end_time": 2.4681818181818183,
                "pitch": 76,
                "velocity": 51,
                "duration": 0.08636363636363642,
                "tempo": 120.0
            },
            {
                "start_time": 2.4863636363636363,
                "end_time": 2.675,
                "pitch": 76,
                "velocity": 51,
                "duration": 0.1886363636363635,
                "tempo": 120.0
            },
            {
                "start_time": 2.690909090909091,
                "end_time": 2.7772727272727273,
                "pitch": 76,
                "velocity": 51,
                "duration": 0.08636363636363642,
                "tempo": 120.0
            },
            {
                "start_time": 2.793181818181818,
                "end_time": 2.9727272727272727,
                "pitch": 76,
                "velocity": 51,
                "duration": 0.17954545454545467,
                "tempo": 120.0
            },
            {
                "start_time": 2.9909090909090907,
                "end_time": 3.1704545454545454,
                "pitch": 76,
                "velocity": 51,
                "duration": 0.17954545454545467,
                "tempo": 120.0
            },
            {
                "start_time": 3.186363636363636,
                "end_time": 3.5795454545454546,
                "pitch": 55,
                "velocity": 51,
                "duration": 0.3931818181818185,
                "tempo": 120.0
            },
            {
                "start_time": 3.7977272727272724,
                "end_time": 4.177272727272727,
                "pitch": 57,
                "velocity": 51,
                "duration": 0.3795454545454544,
                "tempo": 120.0
            },
            {
                "start_time": 4.584090909090909,
                "end_time": 5.168181818181818,
                "pitch": 64,
                "velocity": 51,
                "duration": 0.584090909090909,
                "tempo": 120.0
            },
            {
                "start_time": 5.184090909090909,
                "end_time": 5.2704545454545455,
                "pitch": 76,
                "velocity": 51,
                "duration": 0.08636363636363686,
                "tempo": 120.0
            },
            {
                "start_time": 5.286363636363636,
                "end_time": 5.475,
                "pitch": 76,
                "velocity": 51,
                "duration": 0.1886363636363635,
                "tempo": 120.0
            },
            {
                "start_time": 5.493181818181818,
                "end_time": 5.677272727272727,
                "pitch": 76,
                "velocity": 51,
                "duration": 0.18409090909090864,
                "tempo": 120.0
            },
            {
                "start_time": 5.695454545454545,
                "end_time": 5.777272727272727,
                "pitch": 76,
                "velocity": 51,
                "duration": 0.08181818181818201,
                "tempo": 120.0
            },
            {
                "start_time": 5.795454545454545,
                "end_time": 5.977272727272727,
                "pitch": 76,
                "velocity": 51,
                "duration": 0.18181818181818166,
                "tempo": 120.0
            },
            {
                "start_time": 5.995454545454545,
                "end_time": 6.079545454545454,
                "pitch": 76,
                "velocity": 51,
                "duration": 0.084090909090909,
                "tempo": 120.0
            },
            {
                "start_time": 6.095454545454545,
                "end_time": 6.279545454545454,
                "pitch": 76,
                "velocity": 51,
                "duration": 0.18409090909090953,
                "tempo": 120.0
            },
            {
                "start_time": 6.297727272727273,
                "end_time": 6.381818181818182,
                "pitch": 76,
                "velocity": 51,
                "duration": 0.084090909090909,
                "tempo": 120.0
            },
            {
                "start_time": 6.413636363636363,
                "end_time": 6.790909090909091,
                "pitch": 55,
                "velocity": 51,
                "duration": 0.37727272727272787,
                "tempo": 120.0
            },
            {
                "start_time": 7.009090909090909,
                "end_time": 7.388636363636364,
                "pitch": 57,
                "velocity": 51,
                "duration": 0.37954545454545485,
                "tempo": 120.0
            },
            {
                "start_time": 7.797727272727272,
                "end_time": 8.379545454545454,
                "pitch": 59,
                "velocity": 51,
                "duration": 0.581818181818182,
                "tempo": 120.0
            },
            {
                "start_time": 8.395454545454545,
                "end_time": 8.781818181818181,
                "pitch": 76,
                "velocity": 51,
                "duration": 0.3863636363636367,
                "tempo": 120.0
            },
            {
                "start_time": 8.797727272727272,
                "end_time": 8.884090909090908,
                "pitch": 76,
                "velocity": 51,
                "duration": 0.08636363636363598,
                "tempo": 120.0
            },
            {
                "start_time": 8.902272727272727,
                "end_time": 8.986363636363636,
                "pitch": 76,
                "velocity": 51,
                "duration": 0.084090909090909,
                "tempo": 120.0
            },
            {
                "start_time": 9.004545454545454,
                "end_time": 9.193181818181818,
                "pitch": 67,
                "velocity": 51,
                "duration": 0.18863636363636438,
                "tempo": 120.0
            },
            {
                "start_time": 9.209090909090909,
                "end_time": 9.397727272727272,
                "pitch": 69,
                "velocity": 51,
                "duration": 0.1886363636363626,
                "tempo": 120.0
            },
            {
                "start_time": 9.415909090909091,
                "end_time": 12.597727272727273,
                "pitch": 74,
                "velocity": 51,
                "duration": 3.1818181818181817,
                "tempo": 120.0
            },
            {
                "start_time": 12.61590909090909,
                "end_time": 15.975,
                "pitch": 74,
                "velocity": 51,
                "duration": 3.3590909090909093,
                "tempo": 120.0
            }
        ]
    }
}