{
    "track_id": "Dynamite Dux (FM) - 04 - Almost Chicago",
    "mood": "happy",
    "instruments": {
        "Clarinet": [
            {
                "start_time": 0.0,
                "end_time": 0.029545454545454545,
                "pitch": 75,
                "velocity": 80,
                "duration": 0.029545454545454545,
                "tempo": 120.0
            },
            {
                "start_time": 0.04772727272727272,
                "end_time": 2.3431818181818183,
                "pitch": 76,
                "velocity": 80,
                "duration": 2.2954545454545454,
                "tempo": 120.0
            },
            {
                "start_time": 2.6522727272727273,
                "end_time": 2.7545454545454544,
                "pitch": 72,
                "velocity": 80,
                "duration": 0.10227272727272707,
                "tempo": 120.0
            },
            {
                "start_time": 2.7886363636363636,
                "end_time": 2.8227272727272728,
                "pitch": 74,
                "velocity": 80,
                "duration": 0.03409090909090917,
                "tempo": 120.0
            },
            {
                "start_time": 3.0568181818181817,
                "end_time": 4.752272727272727,
                "pitch": 69,
                "velocity": 80,
                "duration": 1.6954545454545453,
                "tempo": 120.0
            },
            {
                "start_time": 6.2295454545454545,
                "end_time": 6.368181818181818,
                "pitch": 64,
                "velocity": 80,
                "duration": 0.13863636363636367,
                "tempo": 120.0
            },
            {
                "start_time": 6.402272727272727,
                "end_time": 6.629545454545454,
                "pitch": 67,
                "velocity": 80,
                "duration": 0.22727272727272663,
                "tempo": 120.0
            },
            {
                "start_time": 6.663636363636363,
                "end_time": 6.761363636363636,
                "pitch": 69,
                "velocity": 80,
                "duration": 0.09772727272727266,
                "tempo": 120.0
            },
            {
                "start_time": 8.39090909090909,
                "end_time": 8.559090909090909,
                "pitch": 72,
                "velocity": 80,
                "duration": 0.168181818181818,
                "tempo": 120.0
            },
            {
                "start_time": 8.659090909090908,
                "end_time": 8.827272727272726,
                "pitch": 69,
                "velocity": 80,
                "duration": 0.168181818181818,
                "tempo": 120.0
            },
            {
                "start_time": 9.072727272727272,
                "end_time": 9.245454545454544,
                "pitch": 74,
                "velocity": 80,
                "duration": 0.17272727272727195,
                "tempo": 120.0
            },
            {
                "start_time": 9.475,
                "end_time": 10.788636363636362,
                "pitch": 72,
                "velocity": 80,
                "duration": 1.3136363636363626,
                "tempo": 120.0
            },
            {
                "start_time": 10.822727272727272,
                "end_time": 11.049999999999999,
                "pitch": 74,
                "velocity": 80,
                "duration": 0.22727272727272663,
                "tempo": 120.0
            },
            {
                "start_time": 11.084090909090909,
                "end_time": 11.181818181818182,
                "pitch": 69,
                "velocity": 80,
                "duration": 0.09772727272727266,
                "tempo": 120.0
            },
            {
                "start_time": 11.572727272727272,
                "end_time": 11.706818181818182,
                "pitch": 75,
                "velocity": 80,
                "duration": 0.1340909090909097,
                "tempo": 120.0
            },
            {
                "start_time": 11.74090909090909,
                "end_time": 11.84090909090909,
                "pitch": 76,
                "velocity": 80,
                "duration": 0.09999999999999964,
                "tempo": 120.0
            },
            {
                "start_time": 11.875,
                "end_time": 11.975,
                "pitch": 75,
                "velocity": 80,
                "duration": 0.09999999999999964,
                "tempo": 120.0
            },
            {
                "start_time": 12.009090909090908,
                "end_time": 12.113636363636363,
                "pitch": 74,
                "velocity": 80,
                "duration": 0.10454545454545539,
                "tempo": 120.0
            },
            {
                "start_time": 12.149999999999999,
                "end_time": 12.220454545454546,
                "pitch": 73,
                "velocity": 80,
                "duration": 0.0704545454545471,
                "tempo": 120.0
            },
            {
                "start_time": 12.254545454545454,
                "end_time": 12.395454545454545,
                "pitch": 72,
                "velocity": 80,
                "duration": 0.14090909090909065,
                "tempo": 120.0
            },
            {
                "start_time": 12.431818181818182,
                "end_time": 12.6,
                "pitch": 69,
                "velocity": 80,
                "duration": 0.168181818181818,
                "tempo": 120.0
            },
            {
                "start_time": 12.7,
                "end_time": 12.799999999999999,
                "pitch": 67,
                "velocity": 80,
                "duration": 0.09999999999999964,
                "tempo": 120.0
            },
            {
                "start_time": 12.834090909090909,
                "end_time": 13.063636363636363,
                "pitch": 69,
                "velocity": 80,
                "duration": 0.2295454545454536,
                "tempo": 120.0
            },
            {
                "start_time": 13.095454545454546,
                "end_time": 13.193181818181818,
                "pitch": 72,
                "velocity": 80,
                "duration": 0.09772727272727266,
                "tempo": 120.0
            },
            {
                "start_time": 13.227272727272727,
                "end_time": 13.393181818181818,
                "pitch": 64,
                "velocity": 80,
                "duration": 0.165909090909091,
                "tempo": 120.0
            },
            {
                "start_time": 14.693181818181818,
                "end_time": 14.790909090909091,
                "pitch": 63,
                "velocity": 80,
                "duration": 0.09772727272727266,
                "tempo": 120.0
            },
            {
                "start_time": 14.825,
                "end_time": 15.063636363636363,
                "pitch": 64,
                "velocity": 80,
                "duration": 0.2386363636363633,
                "tempo": 120.0
            },
            {
                "start_time": 15.097727272727273,
                "end_time": 15.2,
                "pitch": 63,
                "velocity": 80,
                "duration": 0.10227272727272663,
                "tempo": 120.0
            },
            {
                "start_time": 15.234090909090908,
                "end_time": 15.406818181818181,
                "pitch": 62,
                "velocity": 80,
                "duration": 0.17272727272727373,
                "tempo": 120.0
            },
            {
                "start_time": 15.509090909090908,
                "end_time": 15.611363636363636,
                "pitch": 60,
                "velocity": 80,
                "duration": 0.1022727272727284,
                "tempo": 120.0
            },
            {
                "start_time": 15.645454545454545,
                "end_time": 15.809090909090909,
                "pitch": 62,
                "velocity": 80,
                "duration": 0.16363636363636402,
                "tempo": 120.0
            },
            {
                "start_time": 15.906818181818181,
                "end_time": 16.004545454545454,
                "pitch": 64,
                "velocity": 80,
                "duration": 0.09772727272727266,
                "tempo": 120.0
            },
            {
                "start_time": 16.30681818181818,
                "end_time": 17.611363636363635,
                "pitch": 57,
                "velocity": 80,
                "duration": 1.3045454545454547,
                "tempo": 120.0
            },
            {
                "start_time": 18.036363636363635,
                "end_time": 18.136363636363637,
                "pitch": 52,
                "velocity": 80,
                "duration": 0.10000000000000142,
                "tempo": 120.0
            },
            {
                "start_time": 18.170454545454543,
                "end_time": 18.270454545454545,
                "pitch": 55,
                "velocity": 80,
                "duration": 0.10000000000000142,
                "tempo": 120.0
            },
            {
                "start_time": 18.302272727272726,
                "end_time": 18.402272727272727,
                "pitch": 57,
                "velocity": 80,
                "duration": 0.10000000000000142,
                "tempo": 120.0
            },
            {
                "start_time": 18.436363636363634,
                "end_time": 18.50681818181818,
                "pitch": 55,
                "velocity": 80,
                "duration": 0.07045454545454533,
                "tempo": 120.0
            },
            {
                "start_time": 18.54090909090909,
                "end_time": 18.68181818181818,
                "pitch": 57,
                "velocity": 80,
                "duration": 0.14090909090909065,
                "tempo": 120.0
            },
            {
                "start_time": 18.71818181818182,
                "end_time": 18.82272727272727,
                "pitch": 60,
                "velocity": 80,
                "duration": 0.10454545454545183,
                "tempo": 120.0
            },
            {
                "start_time": 18.85909090909091,
                "end_time": 18.959090909090907,
                "pitch": 57,
                "velocity": 80,
                "duration": 0.09999999999999787,
                "tempo": 120.0
            },
            {
                "start_time": 18.99090909090909,
                "end_time": 19.09090909090909,
                "pitch": 60,
                "velocity": 80,
                "duration": 0.10000000000000142,
                "tempo": 120.0
            },
            {
                "start_time": 19.125,
                "end_time": 19.224999999999998,
                "pitch": 62,
                "velocity": 80,
                "duration": 0.09999999999999787,
                "tempo": 120.0
            },
            {
                "start_time": 19.259090909090908,
                "end_time": 19.618181818181817,
                "pitch": 64,
                "velocity": 80,
                "duration": 0.35909090909090935,
                "tempo": 120.0
            },
            {
                "start_time": 20.05,
                "end_time": 20.427272727272726,
                "pitch": 65,
                "velocity": 101,
                "duration": 0.3772727272727252,
                "tempo": 120.0
            },
            {
                "start_time": 21.11590909090909,
                "end_time": 21.279545454545453,
                "pitch": 69,
                "velocity": 101,
                "duration": 0.16363636363636402,
                "tempo": 120.0
            },
            {
                "start_time": 21.520454545454545,
                "end_time": 21.62272727272727,
                "pitch": 67,
                "velocity": 101,
                "duration": 0.10227272727272663,
                "tempo": 120.0
            },
            {
                "start_time": 21.793181818181818,
                "end_time": 21.895454545454545,
                "pitch": 64,
                "velocity": 101,
                "duration": 0.10227272727272663,
                "tempo": 120.0
            },
            {
                "start_time": 22.068181818181817,
                "end_time": 22.16590909090909,
                "pitch": 62,
                "velocity": 101,
                "duration": 0.09772727272727266,
                "tempo": 120.0
            },
            {
                "start_time": 22.329545454545453,
                "end_time": 22.427272727272726,
                "pitch": 64,
                "velocity": 101,
                "duration": 0.09772727272727266,
                "tempo": 120.0
            },
            {
                "start_time": 22.59318181818182,
                "end_time": 23.638636363636362,
                "pitch": 60,
                "velocity": 101,
                "duration": 1.0454545454545432,
                "tempo": 120.0
            },
            {
                "start_time": 23.672727272727272,
                "end_time": 23.902272727272727,
                "pitch": 57,
                "velocity": 101,
                "duration": 0.22954545454545539,
                "tempo": 120.0
            },
            {
                "start_time": 23.93409090909091,
                "end_time": 24.03181818181818,
                "pitch": 60,
                "velocity": 80,
                "duration": 0.09772727272727266,
                "tempo": 120.0
            },
            {
                "start_time": 24.195454545454545,
                "end_time": 24.293181818181818,
                "pitch": 69,
                "velocity": 80,
                "duration": 0.09772727272727266,
                "tempo": 120.0
            },
            {
                "start_time": 24.456818181818182,
                "end_time": 24.561363636363634,
                "pitch": 69,
                "velocity": 80,
                "duration": 0.10454545454545183,
                "tempo": 120.0
            },
            {
                "start_time": 25.0,
                "end_time": 25.097727272727273,
                "pitch": 71,
                "velocity": 80,
                "duration": 0.09772727272727266,
                "tempo": 120.0
            },
            {
                "start_time": 25.261363636363637,
                "end_time": 25.363636363636363,
                "pitch": 71,
                "velocity": 80,
                "duration": 0.10227272727272663,
                "tempo": 120.0
            }
        ],
        "Trumpet": [
            {
                "start_time": 0.3795454545454545,
                "end_time": 0.609090909090909,
                "pitch": 64,
                "velocity": 51,
                "duration": 0.2295454545454545,
                "tempo": 120.0
            },
            {
                "start_time": 0.6409090909090909,
                "end_time": 0.7386363636363636,
                "pitch": 64,
                "velocity": 51,
                "duration": 0.09772727272727277,
                "tempo": 120.0
            },
            {
                "start_time": 1.1818181818181817,
                "end_time": 1.4113636363636364,
                "pitch": 64,
                "velocity": 51,
                "duration": 0.22954545454545472,
                "tempo": 120.0
            },
            {
                "start_time": 1.4454545454545453,
                "end_time": 1.5431818181818182,
                "pitch": 64,
                "velocity": 51,
                "duration": 0.09772727272727288,
                "tempo": 120.0
            },
            {
                "start_time": 2.377272727272727,
                "end_time": 3.1568181818181817,
                "pitch": 64,
                "velocity": 51,
                "duration": 0.7795454545454548,
                "tempo": 120.0
            },
            {
                "start_time": 3.5818181818181816,
                "end_time": 3.815909090909091,
                "pitch": 64,
                "velocity": 51,
                "duration": 0.23409090909090935,
                "tempo": 120.0
            },
            {
                "start_time": 3.8477272727272727,
                "end_time": 3.9477272727272728,
                "pitch": 64,
                "velocity": 51,
                "duration": 0.10000000000000009,
                "tempo": 120.0
            },
            {
                "start_time": 4.393181818181818,
                "end_time": 4.620454545454545,
                "pitch": 64,
                "velocity": 51,
                "duration": 0.22727272727272751,
                "tempo": 120.0
            },
            {
                "start_time": 4.654545454545454,
                "end_time": 4.752272727272727,
                "pitch": 64,
                "velocity": 51,
                "duration": 0.09772727272727266,
                "tempo": 120.0
            },
            {
                "start_time": 5.579545454545454,
                "end_time": 6.368181818181818,
                "pitch": 67,
                "velocity": 51,
                "duration": 0.788636363636364,
                "tempo": 120.0
            },
            {
                "start_time": 6.793181818181818,
                "end_time": 7.029545454545454,
                "pitch": 65,
                "velocity": 51,
                "duration": 0.23636363636363633,
                "tempo": 120.0
            },
            {
                "start_time": 7.061363636363636,
                "end_time": 7.163636363636363,
                "pitch": 65,
                "velocity": 51,
                "duration": 0.10227272727272751,
                "tempo": 120.0
            },
            {
                "start_time": 7.6068181818181815,
                "end_time": 7.836363636363636,
                "pitch": 65,
                "velocity": 51,
                "duration": 0.2295454545454545,
                "tempo": 120.0
            },
            {
                "start_time": 7.868181818181818,
                "end_time": 7.965909090909091,
                "pitch": 65,
                "velocity": 51,
                "duration": 0.09772727272727266,
                "tempo": 120.0
            },
            {
                "start_time": 8.790909090909091,
                "end_time": 9.572727272727272,
                "pitch": 65,
                "velocity": 51,
                "duration": 0.7818181818181813,
                "tempo": 120.0
            },
            {
                "start_time": 10.009090909090908,
                "end_time": 10.243181818181817,
                "pitch": 65,
                "velocity": 51,
                "duration": 0.23409090909090935,
                "tempo": 120.0
            },
            {
                "start_time": 10.277272727272727,
                "end_time": 10.377272727272727,
                "pitch": 65,
                "velocity": 51,
                "duration": 0.09999999999999964,
                "tempo": 120.0
            },
            {
                "start_time": 10.822727272727272,
                "end_time": 11.049999999999999,
                "pitch": 65,
                "velocity": 51,
                "duration": 0.22727272727272663,
                "tempo": 120.0
            },
            {
                "start_time": 11.084090909090909,
                "end_time": 11.181818181818182,
                "pitch": 65,
                "velocity": 51,
                "duration": 0.09772727272727266,
                "tempo": 120.0
            },
            {
                "start_time": 12.009090909090908,
                "end_time": 12.799999999999999,
                "pitch": 69,
                "velocity": 51,
                "duration": 0.790909090909091,
                "tempo": 120.0
            },
            {
                "start_time": 13.227272727272727,
                "end_time": 13.461363636363636,
                "pitch": 64,
                "velocity": 51,
                "duration": 0.23409090909090935,
                "tempo": 120.0
            },
            {
                "start_time": 13.495454545454544,
                "end_time": 13.595454545454546,
                "pitch": 64,
                "velocity": 51,
                "duration": 0.10000000000000142,
                "tempo": 120.0
            },
            {
                "start_time": 14.040909090909091,
                "end_time": 14.268181818181818,
                "pitch": 64,
                "velocity": 51,
                "duration": 0.22727272727272663,
                "tempo": 120.0
            },
            {
                "start_time": 14.302272727272726,
                "end_time": 14.399999999999999,
                "pitch": 64,
                "velocity": 51,
                "duration": 0.09772727272727266,
                "tempo": 120.0
            },
            {
                "start_time": 15.234090909090908,
                "end_time": 16.004545454545454,
                "pitch": 64,
                "velocity": 51,
                "duration": 0.7704545454545464,
                "tempo": 120.0
            },
            {
                "start_time": 16.44090909090909,
                "end_time": 16.675,
                "pitch": 64,
                "velocity": 51,
                "duration": 0.23409090909090935,
                "tempo": 120.0
            },
            {
                "start_time": 16.706818181818182,
                "end_time": 16.80681818181818,
                "pitch": 64,
                "velocity": 51,
                "duration": 0.09999999999999787,
                "tempo": 120.0
            },
            {
                "start_time": 17.252272727272725,
                "end_time": 17.479545454545455,
                "pitch": 64,
                "velocity": 51,
                "duration": 0.22727272727273018,
                "tempo": 120.0
            },
            {
                "start_time": 17.513636363636362,
                "end_time": 17.611363636363635,
                "pitch": 64,
                "velocity": 51,
                "duration": 0.09772727272727266,
                "tempo": 120.0
            },
            {
                "start_time": 18.436363636363634,
                "end_time": 19.224999999999998,
                "pitch": 67,
                "velocity": 51,
                "duration": 0.788636363636364,
                "tempo": 120.0
            },
            {
                "start_time": 19.520454545454545,
                "end_time": 20.018181818181816,
                "pitch": 60,
                "velocity": 51,
                "duration": 0.49772727272727124,
                "tempo": 120.0
            },
            {
                "start_time": 20.325,
                "end_time": 20.820454545454545,
                "pitch": 60,
                "velocity": 51,
                "duration": 0.49545454545454604,
                "tempo": 120.0
            },
            {
                "start_time": 21.65681818181818,
                "end_time": 22.427272727272726,
                "pitch": 65,
                "velocity": 51,
                "duration": 0.7704545454545446,
                "tempo": 120.0
            },
            {
                "start_time": 22.85909090909091,
                "end_time": 23.095454545454544,
                "pitch": 65,
                "velocity": 51,
                "duration": 0.23636363636363455,
                "tempo": 120.0
            },
            {
                "start_time": 23.127272727272725,
                "end_time": 23.229545454545452,
                "pitch": 65,
                "velocity": 51,
                "duration": 0.10227272727272663,
                "tempo": 120.0
            },
            {
                "start_time": 23.672727272727272,
                "end_time": 23.902272727272727,
                "pitch": 65,
                "velocity": 51,
                "duration": 0.22954545454545539,
                "tempo": 120.0
            },
            {
                "start_time": 23.93409090909091,
                "end_time": 24.03181818181818,
                "pitch": 65,
                "velocity": 51,
                "duration": 0.09772727272727266,
                "tempo": 120.0
            },
            {
                "start_time": 24.195454545454545,
                "end_time": 24.35909090909091,
                "pitch": 65,
                "velocity": 51,
                "duration": 0.16363636363636402,
                "tempo": 120.0
            },
            {
                "start_time": 24.456818181818182,
                "end_time": 24.561363636363634,
                "pitch": 65,
                "velocity": 51,
                "duration": 0.10454545454545183,
                "tempo": 120.0
            },
            {
                "start_time": 25.0,
                "end_time": 25.161363636363635,
                "pitch": 67,
                "velocity": 51,
                "duration": 0.16136363636363527,
                "tempo": 120.0
            },
            {
                "start_time": 25.261363636363637,
                "end_time": 25.363636363636363,
                "pitch": 67,
                "velocity": 51,
                "duration": 0.10227272727272663,
                "tempo": 120.0
            }
        ],
        "Acoustic Bass": [
            {
                "start_time": 0.013636363636363636,
                "end_time": 0.21363636363636362,
                "pitch": 33,
                "velocity": 51,
                "duration": 0.19999999999999998,
                "tempo": 120.0
            },
            {
                "start_time": 0.2477272727272727,
                "end_time": 0.3477272727272727,
                "pitch": 33,
                "velocity": 51,
                "duration": 0.1,
                "tempo": 120.0
            },
            {
                "start_time": 0.3795454545454545,
                "end_time": 0.609090909090909,
                "pitch": 36,
                "velocity": 51,
                "duration": 0.2295454545454545,
                "tempo": 120.0
            },
            {
                "start_time": 0.6409090909090909,
                "end_time": 0.7386363636363636,
                "pitch": 36,
                "velocity": 51,
                "duration": 0.09772727272727277,
                "tempo": 120.0
            },
            {
                "start_time": 0.7727272727272727,
                "end_time": 1.0113636363636362,
                "pitch": 33,
                "velocity": 51,
                "duration": 0.23863636363636354,
                "tempo": 120.0
            },
            {
                "start_time": 1.0454545454545454,
                "end_time": 1.1477272727272727,
                "pitch": 31,
                "velocity": 51,
                "duration": 0.10227272727272729,
                "tempo": 120.0
            },
            {
                "start_time": 1.1818181818181817,
                "end_time": 1.4113636363636364,
                "pitch": 32,
                "velocity": 51,
                "duration": 0.22954545454545472,
                "tempo": 120.0
            },
            {
                "start_time": 1.4454545454545453,
                "end_time": 1.5431818181818182,
                "pitch": 33,
                "velocity": 51,
                "duration": 0.09772727272727288,
                "tempo": 120.0
            },
            {
                "start_time": 3.1886363636363635,
                "end_time": 3.418181818181818,
                "pitch": 33,
                "velocity": 51,
                "duration": 0.2295454545454545,
                "tempo": 120.0
            },
            {
                "start_time": 3.4499999999999997,
                "end_time": 3.55,
                "pitch": 33,
                "velocity": 51,
                "duration": 0.10000000000000009,
                "tempo": 120.0
            },
            {
                "start_time": 3.5818181818181816,
                "end_time": 3.815909090909091,
                "pitch": 36,
                "velocity": 51,
                "duration": 0.23409090909090935,
                "tempo": 120.0
            },
            {
                "start_time": 3.8477272727272727,
                "end_time": 3.9477272727272728,
                "pitch": 36,
                "velocity": 51,
                "duration": 0.10000000000000009,
                "tempo": 120.0
            },
            {
                "start_time": 3.9818181818181815,
                "end_time": 4.220454545454546,
                "pitch": 33,
                "velocity": 51,
                "duration": 0.2386363636363642,
                "tempo": 120.0
            },
            {
                "start_time": 4.254545454545454,
                "end_time": 4.322727272727272,
                "pitch": 31,
                "velocity": 51,
                "duration": 0.06818181818181834,
                "tempo": 120.0
            },
            {
                "start_time": 4.3590909090909085,
                "end_time": 4.620454545454545,
                "pitch": 32,
                "velocity": 51,
                "duration": 0.2613636363636367,
                "tempo": 120.0
            },
            {
                "start_time": 4.654545454545454,
                "end_time": 4.752272727272727,
                "pitch": 33,
                "velocity": 51,
                "duration": 0.09772727272727266,
                "tempo": 120.0
            },
            {
                "start_time": 5.8545454545454545,
                "end_time": 5.956818181818181,
                "pitch": 28,
                "velocity": 51,
                "duration": 0.10227272727272663,
                "tempo": 120.0
            },
            {
                "start_time": 5.99090909090909,
                "end_time": 6.093181818181818,
                "pitch": 31,
                "velocity": 51,
                "duration": 0.10227272727272751,
                "tempo": 120.0
            },
            {
                "start_time": 6.127272727272727,
                "end_time": 6.2295454545454545,
                "pitch": 32,
                "velocity": 51,
                "duration": 0.10227272727272751,
                "tempo": 120.0
            },
            {
                "start_time": 6.263636363636364,
                "end_time": 6.368181818181818,
                "pitch": 33,
                "velocity": 51,
                "duration": 0.1045454545454545,
                "tempo": 120.0
            },
            {
                "start_time": 6.402272727272727,
                "end_time": 6.629545454545454,
                "pitch": 38,
                "velocity": 51,
                "duration": 0.22727272727272663,
                "tempo": 120.0
            },
            {
                "start_time": 6.663636363636363,
                "end_time": 6.761363636363636,
                "pitch": 38,
                "velocity": 51,
                "duration": 0.09772727272727266,
                "tempo": 120.0
            },
            {
                "start_time": 6.793181818181818,
                "end_time": 7.029545454545454,
                "pitch": 41,
                "velocity": 51,
                "duration": 0.23636363636363633,
                "tempo": 120.0
            },
            {
                "start_time": 7.061363636363636,
                "end_time": 7.163636363636363,
                "pitch": 41,
                "velocity": 51,
                "duration": 0.10227272727272751,
                "tempo": 120.0
            },
            {
                "start_time": 7.195454545454545,
                "end_time": 7.436363636363636,
                "pitch": 38,
                "velocity": 51,
                "duration": 0.2409090909090903,
                "tempo": 120.0
            },
            {
                "start_time": 7.470454545454545,
                "end_time": 7.572727272727272,
                "pitch": 36,
                "velocity": 51,
                "duration": 0.10227272727272751,
                "tempo": 120.0
            },
            {
                "start_time": 7.6068181818181815,
                "end_time": 7.836363636363636,
                "pitch": 37,
                "velocity": 51,
                "duration": 0.2295454545454545,
                "tempo": 120.0
            },
            {
                "start_time": 7.868181818181818,
                "end_time": 7.965909090909091,
                "pitch": 38,
                "velocity": 51,
                "duration": 0.09772727272727266,
                "tempo": 120.0
            },
            {
                "start_time": 9.60681818181818,
                "end_time": 9.84090909090909,
                "pitch": 38,
                "velocity": 51,
                "duration": 0.23409090909090935,
                "tempo": 120.0
            },
            {
                "start_time": 9.875,
                "end_time": 9.975,
                "pitch": 38,
                "velocity": 51,
                "duration": 0.09999999999999964,
                "tempo": 120.0
            },
            {
                "start_time": 10.009090909090908,
                "end_time": 10.243181818181817,
                "pitch": 41,
                "velocity": 51,
                "duration": 0.23409090909090935,
                "tempo": 120.0
            },
            {
                "start_time": 10.277272727272727,
                "end_time": 10.377272727272727,
                "pitch": 41,
                "velocity": 51,
                "duration": 0.09999999999999964,
                "tempo": 120.0
            },
            {
                "start_time": 10.411363636363635,
                "end_time": 10.65,
                "pitch": 38,
                "velocity": 51,
                "duration": 0.2386363636363651,
                "tempo": 120.0
            },
            {
                "start_time": 10.684090909090909,
                "end_time": 10.788636363636362,
                "pitch": 36,
                "velocity": 51,
                "duration": 0.10454545454545361,
                "tempo": 120.0
            },
            {
                "start_time": 10.822727272727272,
                "end_time": 11.049999999999999,
                "pitch": 37,
                "velocity": 51,
                "duration": 0.22727272727272663,
                "tempo": 120.0
            },
            {
                "start_time": 11.084090909090909,
                "end_time": 11.181818181818182,
                "pitch": 38,
                "velocity": 51,
                "duration": 0.09772727272727266,
                "tempo": 120.0
            },
            {
                "start_time": 11.475,
                "end_time": 11.84090909090909,
                "pitch": 45,
                "velocity": 51,
                "duration": 0.3659090909090903,
                "tempo": 120.0
            },
            {
                "start_time": 11.875,
                "end_time": 11.975,
                "pitch": 45,
                "velocity": 51,
                "duration": 0.09999999999999964,
                "tempo": 120.0
            },
            {
                "start_time": 12.009090909090908,
                "end_time": 12.113636363636363,
                "pitch": 44,
                "velocity": 51,
                "duration": 0.10454545454545539,
                "tempo": 120.0
            },
            {
                "start_time": 12.149999999999999,
                "end_time": 12.254545454545454,
                "pitch": 43,
                "velocity": 51,
                "duration": 0.10454545454545539,
                "tempo": 120.0
            },
            {
                "start_time": 12.290909090909091,
                "end_time": 12.395454545454545,
                "pitch": 41,
                "velocity": 51,
                "duration": 0.10454545454545361,
                "tempo": 120.0
            },
            {
                "start_time": 12.431818181818182,
                "end_time": 12.665909090909091,
                "pitch": 36,
                "velocity": 51,
                "duration": 0.23409090909090935,
                "tempo": 120.0
            },
            {
                "start_time": 12.7,
                "end_time": 12.799999999999999,
                "pitch": 38,
                "velocity": 51,
                "duration": 0.09999999999999964,
                "tempo": 120.0
            },
            {
                "start_time": 12.834090909090909,
                "end_time": 13.063636363636363,
                "pitch": 33,
                "velocity": 51,
                "duration": 0.2295454545454536,
                "tempo": 120.0
            },
            {
                "start_time": 13.095454545454546,
                "end_time": 13.193181818181818,
                "pitch": 33,
                "velocity": 51,
                "duration": 0.09772727272727266,
                "tempo": 120.0
            },
            {
                "start_time": 13.227272727272727,
                "end_time": 13.461363636363636,
                "pitch": 36,
                "velocity": 51,
                "duration": 0.23409090909090935,
                "tempo": 120.0
            },
            {
                "start_time": 13.495454545454544,
                "end_time": 13.595454545454546,
                "pitch": 36,
                "velocity": 51,
                "duration": 0.10000000000000142,
                "tempo": 120.0
            },
            {
                "start_time": 13.629545454545454,
                "end_time": 13.868181818181817,
                "pitch": 33,
                "velocity": 51,
                "duration": 0.2386363636363633,
                "tempo": 120.0
            },
            {
                "start_time": 13.902272727272727,
                "end_time": 14.004545454545454,
                "pitch": 31,
                "velocity": 51,
                "duration": 0.10227272727272663,
                "tempo": 120.0
            },
            {
                "start_time": 14.040909090909091,
                "end_time": 14.268181818181818,
                "pitch": 32,
                "velocity": 51,
                "duration": 0.22727272727272663,
                "tempo": 120.0
            },
            {
                "start_time": 14.302272727272726,
                "end_time": 14.399999999999999,
                "pitch": 33,
                "velocity": 51,
                "duration": 0.09772727272727266,
                "tempo": 120.0
            },
            {
                "start_time": 16.038636363636364,
                "end_time": 16.272727272727273,
                "pitch": 33,
                "velocity": 51,
                "duration": 0.23409090909090935,
                "tempo": 120.0
            },
            {
                "start_time": 16.30681818181818,
                "end_time": 16.40681818181818,
                "pitch": 33,
                "velocity": 51,
                "duration": 0.10000000000000142,
                "tempo": 120.0
            },
            {
                "start_time": 16.44090909090909,
                "end_time": 16.675,
                "pitch": 36,
                "velocity": 51,
                "duration": 0.23409090909090935,
                "tempo": 120.0
            },
            {
                "start_time": 16.706818181818182,
                "end_time": 16.80681818181818,
                "pitch": 36,
                "velocity": 51,
                "duration": 0.09999999999999787,
                "tempo": 120.0
            },
            {
                "start_time": 16.84090909090909,
                "end_time": 17.079545454545453,
                "pitch": 33,
                "velocity": 51,
                "duration": 0.2386363636363633,
                "tempo": 120.0
            },
            {
                "start_time": 17.113636363636363,
                "end_time": 17.21818181818182,
                "pitch": 31,
                "velocity": 51,
                "duration": 0.10454545454545539,
                "tempo": 120.0
            },
            {
                "start_time": 17.252272727272725,
                "end_time": 17.479545454545455,
                "pitch": 32,
                "velocity": 51,
                "duration": 0.22727272727273018,
                "tempo": 120.0
            },
            {
                "start_time": 17.513636363636362,
                "end_time": 17.611363636363635,
                "pitch": 33,
                "velocity": 51,
                "duration": 0.09772727272727266,
                "tempo": 120.0
            },
            {
                "start_time": 18.71818181818182,
                "end_time": 18.82272727272727,
                "pitch": 28,
                "velocity": 51,
                "duration": 0.10454545454545183,
                "tempo": 120.0
            },
            {
                "start_time": 18.85909090909091,
                "end_time": 18.959090909090907,
                "pitch": 31,
                "velocity": 51,
                "duration": 0.09999999999999787,
                "tempo": 120.0
            },
            {
                "start_time": 18.99090909090909,
                "end_time": 19.09090909090909,
                "pitch": 32,
                "velocity": 51,
                "duration": 0.10000000000000142,
                "tempo": 120.0
            },
            {
                "start_time": 19.125,
                "end_time": 19.224999999999998,
                "pitch": 33,
                "velocity": 51,
                "duration": 0.09999999999999787,
                "tempo": 120.0
            },
            {
                "start_time": 19.259090909090908,
                "end_time": 19.486363636363635,
                "pitch": 38,
                "velocity": 51,
                "duration": 0.22727272727272663,
                "tempo": 120.0
            },
            {
                "start_time": 19.520454545454545,
                "end_time": 19.618181818181817,
                "pitch": 38,
                "velocity": 51,
                "duration": 0.09772727272727266,
                "tempo": 120.0
            },
            {
                "start_time": 19.65,
                "end_time": 19.884090909090908,
                "pitch": 41,
                "velocity": 51,
                "duration": 0.23409090909090935,
                "tempo": 120.0
            },
            {
                "start_time": 19.918181818181818,
                "end_time": 20.018181818181816,
                "pitch": 41,
                "velocity": 51,
                "duration": 0.09999999999999787,
                "tempo": 120.0
            },
            {
                "start_time": 20.05,
                "end_time": 20.29090909090909,
                "pitch": 38,
                "velocity": 51,
                "duration": 0.24090909090908852,
                "tempo": 120.0
            },
            {
                "start_time": 20.325,
                "end_time": 20.427272727272726,
                "pitch": 36,
                "velocity": 51,
                "duration": 0.10227272727272663,
                "tempo": 120.0
            },
            {
                "start_time": 20.461363636363636,
                "end_time": 20.69090909090909,
                "pitch": 37,
                "velocity": 51,
                "duration": 0.22954545454545539,
                "tempo": 120.0
            },
            {
                "start_time": 20.722727272727273,
                "end_time": 20.820454545454545,
                "pitch": 38,
                "velocity": 51,
                "duration": 0.09772727272727266,
                "tempo": 120.0
            },
            {
                "start_time": 22.459090909090907,
                "end_time": 22.693181818181817,
                "pitch": 38,
                "velocity": 51,
                "duration": 0.23409090909090935,
                "tempo": 120.0
            },
            {
                "start_time": 22.727272727272727,
                "end_time": 22.827272727272724,
                "pitch": 38,
                "velocity": 51,
                "duration": 0.09999999999999787,
                "tempo": 120.0
            },
            {
                "start_time": 22.85909090909091,
                "end_time": 23.095454545454544,
                "pitch": 41,
                "velocity": 51,
                "duration": 0.23636363636363455,
                "tempo": 120.0
            },
            {
                "start_time": 23.127272727272725,
                "end_time": 23.229545454545452,
                "pitch": 41,
                "velocity": 51,
                "duration": 0.10227272727272663,
                "tempo": 120.0
            },
            {
                "start_time": 23.263636363636362,
                "end_time": 23.502272727272725,
                "pitch": 38,
                "velocity": 51,
                "duration": 0.2386363636363633,
                "tempo": 120.0
            },
            {
                "start_time": 23.536363636363635,
                "end_time": 23.638636363636362,
                "pitch": 36,
                "velocity": 51,
                "duration": 0.10227272727272663,
                "tempo": 120.0
            },
            {
                "start_time": 23.672727272727272,
                "end_time": 23.902272727272727,
                "pitch": 37,
                "velocity": 51,
                "duration": 0.22954545454545539,
                "tempo": 120.0
            },
            {
                "start_time": 23.93409090909091,
                "end_time": 24.03181818181818,
                "pitch": 38,
                "velocity": 51,
                "duration": 0.09772727272727266,
                "tempo": 120.0
            },
            {
                "start_time": 24.195454545454545,
                "end_time": 24.35909090909091,
                "pitch": 67,
                "velocity": 51,
                "duration": 0.16363636363636402,
                "tempo": 120.0
            },
            {
                "start_time": 24.456818181818182,
                "end_time": 24.561363636363634,
                "pitch": 67,
                "velocity": 51,
                "duration": 0.10454545454545183,
                "tempo": 120.0
            },
            {
                "start_time": 25.0,
                "end_time": 25.161363636363635,
                "pitch": 69,
                "velocity": 51,
                "duration": 0.16136363636363527,
                "tempo": 120.0
            },
            {
                "start_time": 25.261363636363637,
                "end_time": 25.363636363636363,
                "pitch": 69,
                "velocity": 51,
                "duration": 0.10227272727272663,
                "tempo": 120.0
            }
        ]
    }
}