{
    "track_id": "Dynamite Dux (FM) - 08 - Ending",
    "mood": "happy",
    "instruments": {
        "Trumpet": [
            {
                "start_time": 0.006818181818181818,
                "end_time": 0.12272727272727273,
                "pitch": 73,
                "velocity": 80,
                "duration": 0.1159090909090909,
                "tempo": 120.0
            },
            {
                "start_time": 0.44090909090909086,
                "end_time": 2.368181818181818,
                "pitch": 71,
                "velocity": 80,
                "duration": 1.9272727272727272,
                "tempo": 120.0
            },
            {
                "start_time": 2.3863636363636362,
                "end_time": 2.5204545454545455,
                "pitch": 73,
                "velocity": 80,
                "duration": 0.13409090909090926,
                "tempo": 120.0
            },
            {
                "start_time": 2.8363636363636364,
                "end_time": 4.7749999999999995,
                "pitch": 71,
                "velocity": 80,
                "duration": 1.938636363636363,
                "tempo": 120.0
            },
            {
                "start_time": 4.790909090909091,
                "end_time": 4.925,
                "pitch": 73,
                "velocity": 80,
                "duration": 0.13409090909090882,
                "tempo": 120.0
            },
            {
                "start_time": 5.24090909090909,
                "end_time": 5.375,
                "pitch": 73,
                "velocity": 80,
                "duration": 0.1340909090909097,
                "tempo": 120.0
            },
            {
                "start_time": 5.702272727272727,
                "end_time": 5.977272727272727,
                "pitch": 71,
                "velocity": 80,
                "duration": 0.27499999999999947,
                "tempo": 120.0
            },
            {
                "start_time": 6.293181818181818,
                "end_time": 6.577272727272727,
                "pitch": 71,
                "velocity": 80,
                "duration": 0.28409090909090917,
                "tempo": 120.0
            },
            {
                "start_time": 6.593181818181818,
                "end_time": 6.677272727272727,
                "pitch": 73,
                "velocity": 80,
                "duration": 0.084090909090909,
                "tempo": 120.0
            },
            {
                "start_time": 6.743181818181818,
                "end_time": 7.177272727272727,
                "pitch": 71,
                "velocity": 80,
                "duration": 0.43409090909090864,
                "tempo": 120.0
            },
            {
                "start_time": 7.1931818181818175,
                "end_time": 7.4795454545454545,
                "pitch": 74,
                "velocity": 80,
                "duration": 0.28636363636363704,
                "tempo": 120.0
            },
            {
                "start_time": 7.6454545454545455,
                "end_time": 7.929545454545454,
                "pitch": 75,
                "velocity": 80,
                "duration": 0.2840909090909083,
                "tempo": 120.0
            },
            {
                "start_time": 8.095454545454546,
                "end_time": 8.445454545454545,
                "pitch": 76,
                "velocity": 80,
                "duration": 0.34999999999999964,
                "tempo": 120.0
            },
            {
                "start_time": 8.545454545454545,
                "end_time": 8.595454545454546,
                "pitch": 52,
                "velocity": 80,
                "duration": 0.05000000000000071,
                "tempo": 120.0
            },
            {
                "start_time": 8.697727272727272,
                "end_time": 8.747727272727273,
                "pitch": 52,
                "velocity": 80,
                "duration": 0.05000000000000071,
                "tempo": 120.0
            },
            {
                "start_time": 8.847727272727273,
                "end_time": 8.897727272727272,
                "pitch": 52,
                "velocity": 80,
                "duration": 0.049999999999998934,
                "tempo": 120.0
            }
        ],
        "Harpsichord": [
            {
                "start_time": 0.022727272727272728,
                "end_time": 0.12272727272727273,
                "pitch": 40,
                "velocity": 51,
                "duration": 0.1,
                "tempo": 120.0
            },
            {
                "start_time": 0.1409090909090909,
                "end_time": 0.2727272727272727,
                "pitch": 40,
                "velocity": 51,
                "duration": 0.1318181818181818,
                "tempo": 120.0
            },
            {
                "start_time": 0.2909090909090909,
                "end_time": 0.42272727272727273,
                "pitch": 52,
                "velocity": 51,
                "duration": 0.13181818181818183,
                "tempo": 120.0
            },
            {
                "start_time": 0.44090909090909086,
                "end_time": 0.5727272727272728,
                "pitch": 40,
                "velocity": 51,
                "duration": 0.1318181818181819,
                "tempo": 120.0
            },
            {
                "start_time": 0.5909090909090908,
                "end_time": 0.7204545454545455,
                "pitch": 40,
                "velocity": 51,
                "duration": 0.12954545454545463,
                "tempo": 120.0
            },
            {
                "start_time": 0.7363636363636363,
                "end_time": 0.8659090909090909,
                "pitch": 52,
                "velocity": 51,
                "duration": 0.12954545454545452,
                "tempo": 120.0
            },
            {
                "start_time": 0.8818181818181817,
                "end_time": 1.0159090909090909,
                "pitch": 40,
                "velocity": 51,
                "duration": 0.13409090909090915,
                "tempo": 120.0
            },
            {
                "start_time": 1.0318181818181817,
                "end_time": 1.1659090909090908,
                "pitch": 40,
                "velocity": 51,
                "duration": 0.13409090909090904,
                "tempo": 120.0
            },
            {
                "start_time": 1.1818181818181817,
                "end_time": 1.315909090909091,
                "pitch": 40,
                "velocity": 51,
                "duration": 0.13409090909090926,
                "tempo": 120.0
            },
            {
                "start_time": 1.3318181818181818,
                "end_time": 1.4659090909090908,
                "pitch": 40,
                "velocity": 51,
                "duration": 0.13409090909090904,
                "tempo": 120.0
            },
            {
                "start_time": 1.4818181818181817,
                "end_time": 1.6159090909090907,
                "pitch": 37,
                "velocity": 51,
                "duration": 0.13409090909090904,
                "tempo": 120.0
            },
            {
                "start_time": 1.634090909090909,
                "end_time": 1.768181818181818,
                "pitch": 37,
                "velocity": 51,
                "duration": 0.13409090909090904,
                "tempo": 120.0
            },
            {
                "start_time": 1.784090909090909,
                "end_time": 1.918181818181818,
                "pitch": 38,
                "velocity": 51,
                "duration": 0.13409090909090904,
                "tempo": 120.0
            },
            {
                "start_time": 1.934090909090909,
                "end_time": 2.068181818181818,
                "pitch": 38,
                "velocity": 51,
                "duration": 0.13409090909090882,
                "tempo": 120.0
            },
            {
                "start_time": 2.0863636363636364,
                "end_time": 2.2181818181818183,
                "pitch": 39,
                "velocity": 51,
                "duration": 0.13181818181818183,
                "tempo": 120.0
            },
            {
                "start_time": 2.2363636363636363,
                "end_time": 2.368181818181818,
                "pitch": 39,
                "velocity": 51,
                "duration": 0.13181818181818183,
                "tempo": 120.0
            },
            {
                "start_time": 2.3863636363636362,
                "end_time": 2.5204545454545455,
                "pitch": 40,
                "velocity": 51,
                "duration": 0.13409090909090926,
                "tempo": 120.0
            },
            {
                "start_time": 2.536363636363636,
                "end_time": 2.6704545454545454,
                "pitch": 40,
                "velocity": 51,
                "duration": 0.13409090909090926,
                "tempo": 120.0
            },
            {
                "start_time": 2.686363636363636,
                "end_time": 2.8204545454545453,
                "pitch": 52,
                "velocity": 51,
                "duration": 0.13409090909090926,
                "tempo": 120.0
            },
            {
                "start_time": 2.8363636363636364,
                "end_time": 2.9704545454545452,
                "pitch": 40,
                "velocity": 51,
                "duration": 0.13409090909090882,
                "tempo": 120.0
            },
            {
                "start_time": 2.9863636363636363,
                "end_time": 3.120454545454545,
                "pitch": 40,
                "velocity": 51,
                "duration": 0.13409090909090882,
                "tempo": 120.0
            },
            {
                "start_time": 3.1386363636363637,
                "end_time": 3.2727272727272725,
                "pitch": 52,
                "velocity": 51,
                "duration": 0.13409090909090882,
                "tempo": 120.0
            },
            {
                "start_time": 3.2886363636363636,
                "end_time": 3.4227272727272724,
                "pitch": 40,
                "velocity": 51,
                "duration": 0.13409090909090882,
                "tempo": 120.0
            },
            {
                "start_time": 3.4386363636363635,
                "end_time": 3.5727272727272728,
                "pitch": 40,
                "velocity": 51,
                "duration": 0.13409090909090926,
                "tempo": 120.0
            },
            {
                "start_time": 3.5886363636363634,
                "end_time": 3.7227272727272727,
                "pitch": 40,
                "velocity": 51,
                "duration": 0.13409090909090926,
                "tempo": 120.0
            },
            {
                "start_time": 3.7386363636363633,
                "end_time": 3.8727272727272726,
                "pitch": 40,
                "velocity": 51,
                "duration": 0.13409090909090926,
                "tempo": 120.0
            },
            {
                "start_time": 3.8886363636363637,
                "end_time": 4.0227272727272725,
                "pitch": 37,
                "velocity": 51,
                "duration": 0.13409090909090882,
                "tempo": 120.0
            },
            {
                "start_time": 4.038636363636363,
                "end_time": 4.172727272727273,
                "pitch": 37,
                "velocity": 51,
                "duration": 0.1340909090909097,
                "tempo": 120.0
            },
            {
                "start_time": 4.1909090909090905,
                "end_time": 4.325,
                "pitch": 38,
                "velocity": 51,
                "duration": 0.1340909090909097,
                "tempo": 120.0
            },
            {
                "start_time": 4.340909090909091,
                "end_time": 4.475,
                "pitch": 38,
                "velocity": 51,
                "duration": 0.13409090909090882,
                "tempo": 120.0
            },
            {
                "start_time": 4.49090909090909,
                "end_time": 4.625,
                "pitch": 39,
                "velocity": 51,
                "duration": 0.1340909090909097,
                "tempo": 120.0
            },
            {
                "start_time": 4.640909090909091,
                "end_time": 4.7749999999999995,
                "pitch": 39,
                "velocity": 51,
                "duration": 0.13409090909090882,
                "tempo": 120.0
            },
            {
                "start_time": 4.790909090909091,
                "end_time": 4.925,
                "pitch": 40,
                "velocity": 51,
                "duration": 0.13409090909090882,
                "tempo": 120.0
            },
            {
                "start_time": 4.9409090909090905,
                "end_time": 5.075,
                "pitch": 40,
                "velocity": 51,
                "duration": 0.1340909090909097,
                "tempo": 120.0
            },
            {
                "start_time": 5.090909090909091,
                "end_time": 5.225,
                "pitch": 52,
                "velocity": 51,
                "duration": 0.13409090909090882,
                "tempo": 120.0
            },
            {
                "start_time": 5.24090909090909,
                "end_time": 5.375,
                "pitch": 40,
                "velocity": 51,
                "duration": 0.1340909090909097,
                "tempo": 120.0
            },
            {
                "start_time": 5.390909090909091,
                "end_time": 5.529545454545454,
                "pitch": 40,
                "velocity": 51,
                "duration": 0.13863636363636367,
                "tempo": 120.0
            },
            {
                "start_time": 5.547727272727273,
                "end_time": 5.684090909090909,
                "pitch": 52,
                "velocity": 51,
                "duration": 0.1363636363636358,
                "tempo": 120.0
            },
            {
                "start_time": 5.702272727272727,
                "end_time": 5.831818181818181,
                "pitch": 40,
                "velocity": 51,
                "duration": 0.12954545454545396,
                "tempo": 120.0
            },
            {
                "start_time": 5.847727272727273,
                "end_time": 5.977272727272727,
                "pitch": 40,
                "velocity": 51,
                "duration": 0.12954545454545396,
                "tempo": 120.0
            },
            {
                "start_time": 5.993181818181818,
                "end_time": 6.127272727272727,
                "pitch": 40,
                "velocity": 51,
                "duration": 0.13409090909090882,
                "tempo": 120.0
            },
            {
                "start_time": 6.143181818181818,
                "end_time": 6.277272727272727,
                "pitch": 40,
                "velocity": 51,
                "duration": 0.1340909090909097,
                "tempo": 120.0
            },
            {
                "start_time": 6.293181818181818,
                "end_time": 6.493181818181818,
                "pitch": 39,
                "velocity": 51,
                "duration": 0.20000000000000018,
                "tempo": 120.0
            },
            {
                "start_time": 6.593181818181818,
                "end_time": 6.727272727272727,
                "pitch": 37,
                "velocity": 51,
                "duration": 0.13409090909090882,
                "tempo": 120.0
            },
            {
                "start_time": 6.743181818181818,
                "end_time": 7.177272727272727,
                "pitch": 35,
                "velocity": 51,
                "duration": 0.43409090909090864,
                "tempo": 120.0
            },
            {
                "start_time": 7.1931818181818175,
                "end_time": 7.4795454545454545,
                "pitch": 42,
                "velocity": 51,
                "duration": 0.28636363636363704,
                "tempo": 120.0
            },
            {
                "start_time": 7.6454545454545455,
                "end_time": 7.929545454545454,
                "pitch": 43,
                "velocity": 51,
                "duration": 0.2840909090909083,
                "tempo": 120.0
            },
            {
                "start_time": 8.095454545454546,
                "end_time": 8.379545454545454,
                "pitch": 44,
                "velocity": 51,
                "duration": 0.2840909090909083,
                "tempo": 120.0
            },
            {
                "start_time": 8.545454545454545,
                "end_time": 8.595454545454546,
                "pitch": 40,
                "velocity": 51,
                "duration": 0.05000000000000071,
                "tempo": 120.0
            },
            {
                "start_time": 8.697727272727272,
                "end_time": 8.747727272727273,
                "pitch": 40,
                "velocity": 64,
                "duration": 0.05000000000000071,
                "tempo": 120.0
            },
            {
                "start_time": 8.847727272727273,
                "end_time": 8.897727272727272,
                "pitch": 40,
                "velocity": 64,
                "duration": 0.049999999999998934,
                "tempo": 120.0
            }
        ]
    }
}