{
    "track_id": "Dynamite Dux (FM) - 03 - Pseudo Japan",
    "mood": "happy",
    "instruments": {
        "Electric Guitar (clean)": [
            {
                "start_time": 0.2409090909090909,
                "end_time": 0.6613636363636364,
                "pitch": 63,
                "velocity": 51,
                "duration": 0.42045454545454547,
                "tempo": 120.0
            },
            {
                "start_time": 0.6795454545454546,
                "end_time": 0.9545454545454545,
                "pitch": 63,
                "velocity": 51,
                "duration": 0.2749999999999999,
                "tempo": 120.0
            },
            {
                "start_time": 0.9704545454545455,
                "end_time": 1.2545454545454544,
                "pitch": 63,
                "velocity": 51,
                "duration": 0.28409090909090895,
                "tempo": 120.0
            },
            {
                "start_time": 1.2727272727272727,
                "end_time": 1.5545454545454545,
                "pitch": 59,
                "velocity": 51,
                "duration": 0.28181818181818175,
                "tempo": 120.0
            },
            {
                "start_time": 1.5727272727272728,
                "end_time": 1.8659090909090907,
                "pitch": 60,
                "velocity": 51,
                "duration": 0.293181818181818,
                "tempo": 120.0
            },
            {
                "start_time": 1.8818181818181818,
                "end_time": 2.1568181818181817,
                "pitch": 62,
                "velocity": 51,
                "duration": 0.2749999999999999,
                "tempo": 120.0
            },
            {
                "start_time": 2.172727272727273,
                "end_time": 2.459090909090909,
                "pitch": 59,
                "velocity": 51,
                "duration": 0.28636363636363615,
                "tempo": 120.0
            },
            {
                "start_time": 2.475,
                "end_time": 2.959090909090909,
                "pitch": 55,
                "velocity": 51,
                "duration": 0.4840909090909089,
                "tempo": 120.0
            },
            {
                "start_time": 2.977272727272727,
                "end_time": 3.8613636363636363,
                "pitch": 55,
                "velocity": 51,
                "duration": 0.8840909090909093,
                "tempo": 120.0
            },
            {
                "start_time": 3.877272727272727,
                "end_time": 3.9272727272727272,
                "pitch": 62,
                "velocity": 51,
                "duration": 0.050000000000000266,
                "tempo": 120.0
            },
            {
                "start_time": 4.288636363636363,
                "end_time": 4.531818181818181,
                "pitch": 62,
                "velocity": 51,
                "duration": 0.24318181818181817,
                "tempo": 120.0
            },
            {
                "start_time": 4.881818181818182,
                "end_time": 4.965909090909091,
                "pitch": 56,
                "velocity": 51,
                "duration": 0.084090909090909,
                "tempo": 120.0
            },
            {
                "start_time": 5.49090909090909,
                "end_time": 5.572727272727272,
                "pitch": 56,
                "velocity": 51,
                "duration": 0.08181818181818201,
                "tempo": 120.0
            },
            {
                "start_time": 6.288636363636363,
                "end_time": 6.368181818181818,
                "pitch": 55,
                "velocity": 51,
                "duration": 0.07954545454545503,
                "tempo": 120.0
            },
            {
                "start_time": 6.695454545454545,
                "end_time": 7.2704545454545455,
                "pitch": 55,
                "velocity": 51,
                "duration": 0.5750000000000002,
                "tempo": 120.0
            },
            {
                "start_time": 7.286363636363636,
                "end_time": 7.879545454545454,
                "pitch": 57,
                "velocity": 51,
                "duration": 0.5931818181818178,
                "tempo": 120.0
            },
            {
                "start_time": 7.8977272727272725,
                "end_time": 8.470454545454546,
                "pitch": 60,
                "velocity": 51,
                "duration": 0.5727272727272732,
                "tempo": 120.0
            },
            {
                "start_time": 8.688636363636363,
                "end_time": 9.072727272727272,
                "pitch": 62,
                "velocity": 51,
                "duration": 0.3840909090909097,
                "tempo": 120.0
            },
            {
                "start_time": 9.088636363636363,
                "end_time": 9.172727272727272,
                "pitch": 63,
                "velocity": 51,
                "duration": 0.084090909090909,
                "tempo": 120.0
            },
            {
                "start_time": 9.39090909090909,
                "end_time": 9.44090909090909,
                "pitch": 65,
                "velocity": 51,
                "duration": 0.049999999999998934,
                "tempo": 120.0
            },
            {
                "start_time": 9.893181818181818,
                "end_time": 10.277272727272727,
                "pitch": 63,
                "velocity": 51,
                "duration": 0.3840909090909097,
                "tempo": 120.0
            },
            {
                "start_time": 10.293181818181818,
                "end_time": 10.577272727272726,
                "pitch": 63,
                "velocity": 51,
                "duration": 0.2840909090909083,
                "tempo": 120.0
            },
            {
                "start_time": 10.593181818181817,
                "end_time": 10.879545454545454,
                "pitch": 63,
                "velocity": 51,
                "duration": 0.28636363636363704,
                "tempo": 120.0
            },
            {
                "start_time": 10.895454545454545,
                "end_time": 11.179545454545455,
                "pitch": 59,
                "velocity": 51,
                "duration": 0.28409090909091006,
                "tempo": 120.0
            },
            {
                "start_time": 11.195454545454545,
                "end_time": 11.488636363636363,
                "pitch": 60,
                "velocity": 51,
                "duration": 0.293181818181818,
                "tempo": 120.0
            },
            {
                "start_time": 11.506818181818181,
                "end_time": 11.781818181818181,
                "pitch": 62,
                "velocity": 51,
                "duration": 0.27500000000000036,
                "tempo": 120.0
            },
            {
                "start_time": 11.797727272727272,
                "end_time": 12.081818181818182,
                "pitch": 59,
                "velocity": 51,
                "duration": 0.28409090909091006,
                "tempo": 120.0
            },
            {
                "start_time": 12.097727272727273,
                "end_time": 12.581818181818182,
                "pitch": 55,
                "velocity": 51,
                "duration": 0.48409090909090935,
                "tempo": 120.0
            },
            {
                "start_time": 12.597727272727273,
                "end_time": 13.484090909090908,
                "pitch": 55,
                "velocity": 51,
                "duration": 0.8863636363636349,
                "tempo": 120.0
            },
            {
                "start_time": 13.502272727272727,
                "end_time": 13.584090909090909,
                "pitch": 62,
                "velocity": 51,
                "duration": 0.08181818181818201,
                "tempo": 120.0
            },
            {
                "start_time": 13.911363636363635,
                "end_time": 14.488636363636363,
                "pitch": 62,
                "velocity": 51,
                "duration": 0.577272727272728,
                "tempo": 120.0
            },
            {
                "start_time": 14.504545454545454,
                "end_time": 14.588636363636363,
                "pitch": 56,
                "velocity": 51,
                "duration": 0.084090909090909,
                "tempo": 120.0
            },
            {
                "start_time": 15.10681818181818,
                "end_time": 15.19090909090909,
                "pitch": 56,
                "velocity": 51,
                "duration": 0.084090909090909,
                "tempo": 120.0
            },
            {
                "start_time": 15.913636363636362,
                "end_time": 15.993181818181817,
                "pitch": 55,
                "velocity": 51,
                "duration": 0.07954545454545503,
                "tempo": 120.0
            },
            {
                "start_time": 16.320454545454545,
                "end_time": 16.745454545454546,
                "pitch": 55,
                "velocity": 51,
                "duration": 0.4250000000000007,
                "tempo": 120.0
            },
            {
                "start_time": 17.21363636363636,
                "end_time": 17.506818181818183,
                "pitch": 58,
                "velocity": 51,
                "duration": 0.29318181818182154,
                "tempo": 120.0
            },
            {
                "start_time": 17.525,
                "end_time": 17.8,
                "pitch": 60,
                "velocity": 51,
                "duration": 0.27500000000000213,
                "tempo": 120.0
            },
            {
                "start_time": 17.81590909090909,
                "end_time": 18.099999999999998,
                "pitch": 62,
                "velocity": 51,
                "duration": 0.2840909090909065,
                "tempo": 120.0
            },
            {
                "start_time": 18.118181818181817,
                "end_time": 18.71363636363636,
                "pitch": 63,
                "velocity": 51,
                "duration": 0.5954545454545439,
                "tempo": 120.0
            },
            {
                "start_time": 18.729545454545455,
                "end_time": 19.054545454545455,
                "pitch": 62,
                "velocity": 51,
                "duration": 0.3249999999999993,
                "tempo": 120.0
            },
            {
                "start_time": 19.522727272727273,
                "end_time": 19.909090909090907,
                "pitch": 63,
                "velocity": 51,
                "duration": 0.38636363636363313,
                "tempo": 120.0
            },
            {
                "start_time": 19.925,
                "end_time": 20.21818181818182,
                "pitch": 63,
                "velocity": 51,
                "duration": 0.293181818181818,
                "tempo": 120.0
            },
            {
                "start_time": 20.236363636363635,
                "end_time": 20.318181818181817,
                "pitch": 60,
                "velocity": 51,
                "duration": 0.08181818181818201,
                "tempo": 120.0
            },
            {
                "start_time": 20.729545454545452,
                "end_time": 21.113636363636363,
                "pitch": 63,
                "velocity": 51,
                "duration": 0.3840909090909115,
                "tempo": 120.0
            },
            {
                "start_time": 21.129545454545454,
                "end_time": 21.41590909090909,
                "pitch": 63,
                "velocity": 51,
                "duration": 0.28636363636363527,
                "tempo": 120.0
            },
            {
                "start_time": 21.43181818181818,
                "end_time": 21.51590909090909,
                "pitch": 60,
                "velocity": 51,
                "duration": 0.08409090909091077,
                "tempo": 120.0
            },
            {
                "start_time": 21.93409090909091,
                "end_time": 22.318181818181817,
                "pitch": 63,
                "velocity": 51,
                "duration": 0.38409090909090793,
                "tempo": 120.0
            },
            {
                "start_time": 22.334090909090907,
                "end_time": 22.620454545454546,
                "pitch": 63,
                "velocity": 51,
                "duration": 0.2863636363636388,
                "tempo": 120.0
            },
            {
                "start_time": 22.636363636363637,
                "end_time": 22.720454545454544,
                "pitch": 58,
                "velocity": 51,
                "duration": 0.08409090909090722,
                "tempo": 120.0
            },
            {
                "start_time": 23.138636363636362,
                "end_time": 23.429545454545455,
                "pitch": 55,
                "velocity": 51,
                "duration": 0.2909090909090928,
                "tempo": 120.0
            },
            {
                "start_time": 23.445454545454545,
                "end_time": 23.53181818181818,
                "pitch": 56,
                "velocity": 51,
                "duration": 0.08636363636363598,
                "tempo": 120.0
            },
            {
                "start_time": 23.549999999999997,
                "end_time": 23.63181818181818,
                "pitch": 58,
                "velocity": 51,
                "duration": 0.08181818181818201,
                "tempo": 120.0
            },
            {
                "start_time": 23.84090909090909,
                "end_time": 23.927272727272726,
                "pitch": 55,
                "velocity": 51,
                "duration": 0.08636363636363598,
                "tempo": 120.0
            },
            {
                "start_time": 24.345454545454544,
                "end_time": 24.727272727272727,
                "pitch": 63,
                "velocity": 51,
                "duration": 0.3818181818181827,
                "tempo": 120.0
            },
            {
                "start_time": 24.745454545454542,
                "end_time": 25.027272727272727,
                "pitch": 63,
                "velocity": 51,
                "duration": 0.28181818181818485,
                "tempo": 120.0
            },
            {
                "start_time": 25.045454545454543,
                "end_time": 25.127272727272725,
                "pitch": 60,
                "velocity": 51,
                "duration": 0.08181818181818201,
                "tempo": 120.0
            },
            {
                "start_time": 25.547727272727272,
                "end_time": 25.93181818181818,
                "pitch": 63,
                "velocity": 51,
                "duration": 0.38409090909090793,
                "tempo": 120.0
            },
            {
                "start_time": 25.95,
                "end_time": 26.23409090909091,
                "pitch": 63,
                "velocity": 51,
                "duration": 0.28409090909091006,
                "tempo": 120.0
            },
            {
                "start_time": 26.25,
                "end_time": 26.334090909090907,
                "pitch": 60,
                "velocity": 51,
                "duration": 0.08409090909090722,
                "tempo": 120.0
            },
            {
                "start_time": 26.752272727272725,
                "end_time": 27.136363636363637,
                "pitch": 67,
                "velocity": 51,
                "duration": 0.3840909090909115,
                "tempo": 120.0
            },
            {
                "start_time": 27.154545454545453,
                "end_time": 27.938636363636363,
                "pitch": 63,
                "velocity": 51,
                "duration": 0.7840909090909101,
                "tempo": 120.0
            },
            {
                "start_time": 27.954545454545453,
                "end_time": 28.347727272727273,
                "pitch": 60,
                "velocity": 51,
                "duration": 0.3931818181818194,
                "tempo": 120.0
            },
            {
                "start_time": 28.36590909090909,
                "end_time": 28.668181818181818,
                "pitch": 58,
                "velocity": 51,
                "duration": 0.30227272727272947,
                "tempo": 120.0
            },
            {
                "start_time": 29.159090909090907,
                "end_time": 29.243181818181817,
                "pitch": 60,
                "velocity": 51,
                "duration": 0.08409090909091077,
                "tempo": 120.0
            },
            {
                "start_time": 29.561363636363634,
                "end_time": 30.345454545454544,
                "pitch": 60,
                "velocity": 51,
                "duration": 0.7840909090909101,
                "tempo": 120.0
            },
            {
                "start_time": 30.363636363636363,
                "end_time": 30.44772727272727,
                "pitch": 63,
                "velocity": 51,
                "duration": 0.08409090909090722,
                "tempo": 120.0
            },
            {
                "start_time": 30.775,
                "end_time": 31.2,
                "pitch": 63,
                "velocity": 51,
                "duration": 0.4250000000000007,
                "tempo": 120.0
            },
            {
                "start_time": 31.568181818181817,
                "end_time": 31.952272727272724,
                "pitch": 55,
                "velocity": 51,
                "duration": 0.38409090909090793,
                "tempo": 120.0
            },
            {
                "start_time": 31.970454545454544,
                "end_time": 32.15909090909091,
                "pitch": 58,
                "velocity": 51,
                "duration": 0.1886363636363626,
                "tempo": 120.0
            },
            {
                "start_time": 32.17727272727272,
                "end_time": 32.263636363636365,
                "pitch": 63,
                "velocity": 51,
                "duration": 0.08636363636364308,
                "tempo": 120.0
            },
            {
                "start_time": 32.475,
                "end_time": 32.55681818181818,
                "pitch": 58,
                "velocity": 51,
                "duration": 0.08181818181817846,
                "tempo": 120.0
            },
            {
                "start_time": 32.77272727272727,
                "end_time": 32.85681818181818,
                "pitch": 55,
                "velocity": 51,
                "duration": 0.08409090909090366,
                "tempo": 120.0
            },
            {
                "start_time": 33.07272727272727,
                "end_time": 33.15681818181818,
                "pitch": 51,
                "velocity": 51,
                "duration": 0.08409090909091077,
                "tempo": 120.0
            },
            {
                "start_time": 33.17272727272727,
                "end_time": 33.20681818181818,
                "pitch": 62,
                "velocity": 51,
                "duration": 0.03409090909090651,
                "tempo": 120.0
            },
            {
                "start_time": 33.37272727272727,
                "end_time": 33.40681818181818,
                "pitch": 62,
                "velocity": 51,
                "duration": 0.03409090909091361,
                "tempo": 120.0
            }
        ],
        "Lead 2 (sawtooth)": [
            {
                "start_time": 0.0,
                "end_time": 0.5613636363636363,
                "pitch": 55,
                "velocity": 64,
                "duration": 0.5613636363636363,
                "tempo": 120.0
            },
            {
                "start_time": 0.5795454545454545,
                "end_time": 0.9545454545454545,
                "pitch": 58,
                "velocity": 64,
                "duration": 0.375,
                "tempo": 120.0
            },
            {
                "start_time": 0.9704545454545455,
                "end_time": 1.2545454545454544,
                "pitch": 67,
                "velocity": 64,
                "duration": 0.28409090909090895,
                "tempo": 120.0
            },
            {
                "start_time": 1.2727272727272727,
                "end_time": 1.5545454545454545,
                "pitch": 65,
                "velocity": 64,
                "duration": 0.28181818181818175,
                "tempo": 120.0
            },
            {
                "start_time": 1.5727272727272728,
                "end_time": 1.8659090909090907,
                "pitch": 63,
                "velocity": 64,
                "duration": 0.293181818181818,
                "tempo": 120.0
            },
            {
                "start_time": 1.8818181818181818,
                "end_time": 2.1568181818181817,
                "pitch": 62,
                "velocity": 64,
                "duration": 0.2749999999999999,
                "tempo": 120.0
            },
            {
                "start_time": 2.172727272727273,
                "end_time": 2.459090909090909,
                "pitch": 63,
                "velocity": 64,
                "duration": 0.28636363636363615,
                "tempo": 120.0
            },
            {
                "start_time": 2.475,
                "end_time": 2.959090909090909,
                "pitch": 62,
                "velocity": 64,
                "duration": 0.4840909090909089,
                "tempo": 120.0
            },
            {
                "start_time": 2.977272727272727,
                "end_time": 4.370454545454545,
                "pitch": 60,
                "velocity": 64,
                "duration": 1.393181818181818,
                "tempo": 120.0
            },
            {
                "start_time": 4.881818181818182,
                "end_time": 5.165909090909091,
                "pitch": 63,
                "velocity": 64,
                "duration": 0.28409090909090917,
                "tempo": 120.0
            },
            {
                "start_time": 5.181818181818182,
                "end_time": 5.475,
                "pitch": 60,
                "velocity": 64,
                "duration": 0.293181818181818,
                "tempo": 120.0
            },
            {
                "start_time": 5.49090909090909,
                "end_time": 5.768181818181818,
                "pitch": 63,
                "velocity": 64,
                "duration": 0.27727272727272734,
                "tempo": 120.0
            },
            {
                "start_time": 5.784090909090909,
                "end_time": 6.077272727272727,
                "pitch": 60,
                "velocity": 64,
                "duration": 0.293181818181818,
                "tempo": 120.0
            },
            {
                "start_time": 6.093181818181818,
                "end_time": 6.2704545454545455,
                "pitch": 63,
                "velocity": 64,
                "duration": 0.1772727272727277,
                "tempo": 120.0
            },
            {
                "start_time": 6.288636363636363,
                "end_time": 6.538636363636363,
                "pitch": 60,
                "velocity": 64,
                "duration": 0.25,
                "tempo": 120.0
            },
            {
                "start_time": 6.574999999999999,
                "end_time": 6.677272727272727,
                "pitch": 63,
                "velocity": 64,
                "duration": 0.10227272727272751,
                "tempo": 120.0
            },
            {
                "start_time": 7.186363636363636,
                "end_time": 7.2704545454545455,
                "pitch": 63,
                "velocity": 64,
                "duration": 0.08409090909090988,
                "tempo": 120.0
            },
            {
                "start_time": 7.286363636363636,
                "end_time": 7.570454545454545,
                "pitch": 65,
                "velocity": 64,
                "duration": 0.28409090909090917,
                "tempo": 120.0
            },
            {
                "start_time": 7.586363636363636,
                "end_time": 7.879545454545454,
                "pitch": 63,
                "velocity": 64,
                "duration": 0.293181818181818,
                "tempo": 120.0
            },
            {
                "start_time": 7.8977272727272725,
                "end_time": 8.172727272727272,
                "pitch": 65,
                "velocity": 64,
                "duration": 0.27499999999999947,
                "tempo": 120.0
            },
            {
                "start_time": 8.188636363636363,
                "end_time": 8.470454545454546,
                "pitch": 67,
                "velocity": 64,
                "duration": 0.2818181818181831,
                "tempo": 120.0
            },
            {
                "start_time": 8.488636363636363,
                "end_time": 8.638636363636364,
                "pitch": 65,
                "velocity": 64,
                "duration": 0.15000000000000036,
                "tempo": 120.0
            },
            {
                "start_time": 8.672727272727272,
                "end_time": 8.938636363636363,
                "pitch": 58,
                "velocity": 64,
                "duration": 0.26590909090909065,
                "tempo": 120.0
            },
            {
                "start_time": 8.972727272727273,
                "end_time": 9.674999999999999,
                "pitch": 58,
                "velocity": 64,
                "duration": 0.7022727272727263,
                "tempo": 120.0
            },
            {
                "start_time": 9.69090909090909,
                "end_time": 10.177272727272726,
                "pitch": 55,
                "velocity": 64,
                "duration": 0.48636363636363633,
                "tempo": 120.0
            },
            {
                "start_time": 10.193181818181818,
                "end_time": 10.577272727272726,
                "pitch": 58,
                "velocity": 64,
                "duration": 0.38409090909090793,
                "tempo": 120.0
            },
            {
                "start_time": 10.593181818181817,
                "end_time": 10.879545454545454,
                "pitch": 67,
                "velocity": 64,
                "duration": 0.28636363636363704,
                "tempo": 120.0
            },
            {
                "start_time": 10.895454545454545,
                "end_time": 11.179545454545455,
                "pitch": 65,
                "velocity": 64,
                "duration": 0.28409090909091006,
                "tempo": 120.0
            },
            {
                "start_time": 11.195454545454545,
                "end_time": 11.488636363636363,
                "pitch": 63,
                "velocity": 64,
                "duration": 0.293181818181818,
                "tempo": 120.0
            },
            {
                "start_time": 11.506818181818181,
                "end_time": 11.781818181818181,
                "pitch": 62,
                "velocity": 64,
                "duration": 0.27500000000000036,
                "tempo": 120.0
            },
            {
                "start_time": 11.797727272727272,
                "end_time": 12.081818181818182,
                "pitch": 63,
                "velocity": 64,
                "duration": 0.28409090909091006,
                "tempo": 120.0
            },
            {
                "start_time": 12.097727272727273,
                "end_time": 12.581818181818182,
                "pitch": 62,
                "velocity": 64,
                "duration": 0.48409090909090935,
                "tempo": 120.0
            },
            {
                "start_time": 12.597727272727273,
                "end_time": 13.993181818181817,
                "pitch": 60,
                "velocity": 64,
                "duration": 1.3954545454545446,
                "tempo": 120.0
            },
            {
                "start_time": 14.504545454545454,
                "end_time": 14.756818181818181,
                "pitch": 63,
                "velocity": 64,
                "duration": 0.252272727272727,
                "tempo": 120.0
            },
            {
                "start_time": 14.790909090909091,
                "end_time": 15.056818181818182,
                "pitch": 60,
                "velocity": 64,
                "duration": 0.26590909090909065,
                "tempo": 120.0
            },
            {
                "start_time": 15.09090909090909,
                "end_time": 15.39090909090909,
                "pitch": 63,
                "velocity": 64,
                "duration": 0.3000000000000007,
                "tempo": 120.0
            },
            {
                "start_time": 15.409090909090908,
                "end_time": 15.702272727272726,
                "pitch": 60,
                "velocity": 64,
                "duration": 0.293181818181818,
                "tempo": 120.0
            },
            {
                "start_time": 15.718181818181817,
                "end_time": 15.897727272727272,
                "pitch": 63,
                "velocity": 64,
                "duration": 0.17954545454545467,
                "tempo": 120.0
            },
            {
                "start_time": 15.913636363636362,
                "end_time": 16.2,
                "pitch": 60,
                "velocity": 64,
                "duration": 0.28636363636363704,
                "tempo": 120.0
            },
            {
                "start_time": 16.21590909090909,
                "end_time": 16.302272727272726,
                "pitch": 63,
                "velocity": 64,
                "duration": 0.08636363636363598,
                "tempo": 120.0
            },
            {
                "start_time": 16.813636363636363,
                "end_time": 16.895454545454545,
                "pitch": 63,
                "velocity": 64,
                "duration": 0.08181818181818201,
                "tempo": 120.0
            },
            {
                "start_time": 16.913636363636364,
                "end_time": 17.19772727272727,
                "pitch": 65,
                "velocity": 64,
                "duration": 0.2840909090909065,
                "tempo": 120.0
            },
            {
                "start_time": 17.21363636363636,
                "end_time": 17.506818181818183,
                "pitch": 67,
                "velocity": 64,
                "duration": 0.29318181818182154,
                "tempo": 120.0
            },
            {
                "start_time": 17.525,
                "end_time": 17.8,
                "pitch": 68,
                "velocity": 64,
                "duration": 0.27500000000000213,
                "tempo": 120.0
            },
            {
                "start_time": 17.81590909090909,
                "end_time": 18.099999999999998,
                "pitch": 70,
                "velocity": 64,
                "duration": 0.2840909090909065,
                "tempo": 120.0
            },
            {
                "start_time": 18.118181818181817,
                "end_time": 18.71363636363636,
                "pitch": 72,
                "velocity": 64,
                "duration": 0.5954545454545439,
                "tempo": 120.0
            },
            {
                "start_time": 18.729545454545455,
                "end_time": 19.30681818181818,
                "pitch": 70,
                "velocity": 64,
                "duration": 0.5772727272727245,
                "tempo": 120.0
            },
            {
                "start_time": 19.32272727272727,
                "end_time": 20.21818181818182,
                "pitch": 68,
                "velocity": 64,
                "duration": 0.8954545454545482,
                "tempo": 120.0
            },
            {
                "start_time": 20.236363636363635,
                "end_time": 20.511363636363637,
                "pitch": 70,
                "velocity": 64,
                "duration": 0.27500000000000213,
                "tempo": 120.0
            },
            {
                "start_time": 20.527272727272727,
                "end_time": 20.811363636363634,
                "pitch": 72,
                "velocity": 64,
                "duration": 0.2840909090909065,
                "tempo": 120.0
            },
            {
                "start_time": 20.829545454545453,
                "end_time": 21.113636363636363,
                "pitch": 70,
                "velocity": 64,
                "duration": 0.28409090909091006,
                "tempo": 120.0
            },
            {
                "start_time": 21.129545454545454,
                "end_time": 21.41590909090909,
                "pitch": 68,
                "velocity": 64,
                "duration": 0.28636363636363527,
                "tempo": 120.0
            },
            {
                "start_time": 21.43181818181818,
                "end_time": 21.71590909090909,
                "pitch": 72,
                "velocity": 64,
                "duration": 0.28409090909091006,
                "tempo": 120.0
            },
            {
                "start_time": 21.73409090909091,
                "end_time": 22.318181818181817,
                "pitch": 70,
                "velocity": 64,
                "duration": 0.5840909090909072,
                "tempo": 120.0
            },
            {
                "start_time": 22.334090909090907,
                "end_time": 22.920454545454543,
                "pitch": 67,
                "velocity": 64,
                "duration": 0.586363636363636,
                "tempo": 120.0
            },
            {
                "start_time": 22.938636363636363,
                "end_time": 23.429545454545455,
                "pitch": 63,
                "velocity": 64,
                "duration": 0.49090909090909207,
                "tempo": 120.0
            },
            {
                "start_time": 23.445454545454545,
                "end_time": 23.825,
                "pitch": 67,
                "velocity": 64,
                "duration": 0.37954545454545396,
                "tempo": 120.0
            },
            {
                "start_time": 23.84090909090909,
                "end_time": 24.081818181818182,
                "pitch": 63,
                "velocity": 64,
                "duration": 0.24090909090909207,
                "tempo": 120.0
            },
            {
                "start_time": 24.443181818181817,
                "end_time": 25.027272727272727,
                "pitch": 68,
                "velocity": 64,
                "duration": 0.5840909090909108,
                "tempo": 120.0
            },
            {
                "start_time": 25.045454545454543,
                "end_time": 25.329545454545453,
                "pitch": 70,
                "velocity": 64,
                "duration": 0.28409090909091006,
                "tempo": 120.0
            },
            {
                "start_time": 25.345454545454544,
                "end_time": 25.63181818181818,
                "pitch": 72,
                "velocity": 64,
                "duration": 0.28636363636363527,
                "tempo": 120.0
            },
            {
                "start_time": 25.64772727272727,
                "end_time": 25.93181818181818,
                "pitch": 70,
                "velocity": 64,
                "duration": 0.28409090909091006,
                "tempo": 120.0
            },
            {
                "start_time": 25.95,
                "end_time": 26.23409090909091,
                "pitch": 68,
                "velocity": 64,
                "duration": 0.28409090909091006,
                "tempo": 120.0
            },
            {
                "start_time": 26.25,
                "end_time": 26.534090909090907,
                "pitch": 72,
                "velocity": 64,
                "duration": 0.2840909090909065,
                "tempo": 120.0
            },
            {
                "start_time": 26.549999999999997,
                "end_time": 27.136363636363637,
                "pitch": 75,
                "velocity": 64,
                "duration": 0.5863636363636395,
                "tempo": 120.0
            },
            {
                "start_time": 27.154545454545453,
                "end_time": 27.738636363636363,
                "pitch": 70,
                "velocity": 64,
                "duration": 0.5840909090909108,
                "tempo": 120.0
            },
            {
                "start_time": 27.754545454545454,
                "end_time": 28.347727272727273,
                "pitch": 79,
                "velocity": 64,
                "duration": 0.5931818181818187,
                "tempo": 120.0
            },
            {
                "start_time": 28.36590909090909,
                "end_time": 28.943181818181817,
                "pitch": 76,
                "velocity": 64,
                "duration": 0.577272727272728,
                "tempo": 120.0
            },
            {
                "start_time": 28.959090909090907,
                "end_time": 29.854545454545452,
                "pitch": 77,
                "velocity": 64,
                "duration": 0.8954545454545446,
                "tempo": 120.0
            },
            {
                "start_time": 29.870454545454542,
                "end_time": 29.952272727272724,
                "pitch": 77,
                "velocity": 64,
                "duration": 0.08181818181818201,
                "tempo": 120.0
            },
            {
                "start_time": 29.968181818181815,
                "end_time": 30.049999999999997,
                "pitch": 71,
                "velocity": 64,
                "duration": 0.08181818181818201,
                "tempo": 120.0
            },
            {
                "start_time": 30.065909090909088,
                "end_time": 30.145454545454545,
                "pitch": 72,
                "velocity": 64,
                "duration": 0.0795454545454568,
                "tempo": 120.0
            },
            {
                "start_time": 30.161363636363635,
                "end_time": 30.345454545454544,
                "pitch": 83,
                "velocity": 64,
                "duration": 0.18409090909090864,
                "tempo": 120.0
            },
            {
                "start_time": 30.363636363636363,
                "end_time": 30.654545454545453,
                "pitch": 82,
                "velocity": 64,
                "duration": 0.29090909090908923,
                "tempo": 120.0
            },
            {
                "start_time": 30.670454545454543,
                "end_time": 30.952272727272724,
                "pitch": 80,
                "velocity": 64,
                "duration": 0.2818181818181813,
                "tempo": 120.0
            },
            {
                "start_time": 30.968181818181815,
                "end_time": 31.21590909090909,
                "pitch": 79,
                "velocity": 64,
                "duration": 0.2477272727272748,
                "tempo": 120.0
            },
            {
                "start_time": 31.25,
                "end_time": 32.55681818181818,
                "pitch": 75,
                "velocity": 64,
                "duration": 1.3068181818181799,
                "tempo": 120.0
            }
        ],
        "Synth Bass 1": [
            {
                "start_time": 0.0,
                "end_time": 0.35227272727272724,
                "pitch": 39,
                "velocity": 51,
                "duration": 0.35227272727272724,
                "tempo": 120.0
            },
            {
                "start_time": 0.375,
                "end_time": 0.6613636363636364,
                "pitch": 43,
                "velocity": 51,
                "duration": 0.2863636363636364,
                "tempo": 120.0
            },
            {
                "start_time": 0.6795454545454546,
                "end_time": 0.9227272727272727,
                "pitch": 46,
                "velocity": 51,
                "duration": 0.24318181818181817,
                "tempo": 120.0
            },
            {
                "start_time": 0.9545454545454545,
                "end_time": 1.1545454545454545,
                "pitch": 42,
                "velocity": 51,
                "duration": 0.20000000000000007,
                "tempo": 120.0
            },
            {
                "start_time": 1.1704545454545454,
                "end_time": 1.2545454545454544,
                "pitch": 43,
                "velocity": 51,
                "duration": 0.084090909090909,
                "tempo": 120.0
            },
            {
                "start_time": 1.2727272727272727,
                "end_time": 1.4545454545454546,
                "pitch": 43,
                "velocity": 51,
                "duration": 0.18181818181818188,
                "tempo": 120.0
            },
            {
                "start_time": 1.4727272727272727,
                "end_time": 1.5545454545454545,
                "pitch": 43,
                "velocity": 51,
                "duration": 0.08181818181818179,
                "tempo": 120.0
            },
            {
                "start_time": 1.5727272727272728,
                "end_time": 1.8659090909090907,
                "pitch": 47,
                "velocity": 51,
                "duration": 0.293181818181818,
                "tempo": 120.0
            },
            {
                "start_time": 1.8818181818181818,
                "end_time": 2.1568181818181817,
                "pitch": 50,
                "velocity": 51,
                "duration": 0.2749999999999999,
                "tempo": 120.0
            },
            {
                "start_time": 2.172727272727273,
                "end_time": 2.459090909090909,
                "pitch": 53,
                "velocity": 51,
                "duration": 0.28636363636363615,
                "tempo": 120.0
            },
            {
                "start_time": 2.475,
                "end_time": 2.759090909090909,
                "pitch": 51,
                "velocity": 51,
                "duration": 0.2840909090909087,
                "tempo": 120.0
            },
            {
                "start_time": 2.775,
                "end_time": 3.059090909090909,
                "pitch": 46,
                "velocity": 51,
                "duration": 0.28409090909090917,
                "tempo": 120.0
            },
            {
                "start_time": 3.077272727272727,
                "end_time": 3.359090909090909,
                "pitch": 43,
                "velocity": 51,
                "duration": 0.28181818181818175,
                "tempo": 120.0
            },
            {
                "start_time": 3.377272727272727,
                "end_time": 3.6590909090909087,
                "pitch": 36,
                "velocity": 51,
                "duration": 0.28181818181818175,
                "tempo": 120.0
            },
            {
                "start_time": 3.6772727272727272,
                "end_time": 3.961363636363636,
                "pitch": 34,
                "velocity": 51,
                "duration": 0.2840909090909087,
                "tempo": 120.0
            },
            {
                "start_time": 3.977272727272727,
                "end_time": 4.2704545454545455,
                "pitch": 38,
                "velocity": 51,
                "duration": 0.29318181818181843,
                "tempo": 120.0
            },
            {
                "start_time": 4.288636363636363,
                "end_time": 4.5636363636363635,
                "pitch": 41,
                "velocity": 51,
                "duration": 0.27500000000000036,
                "tempo": 120.0
            },
            {
                "start_time": 4.579545454545454,
                "end_time": 4.863636363636363,
                "pitch": 38,
                "velocity": 51,
                "duration": 0.28409090909090917,
                "tempo": 120.0
            },
            {
                "start_time": 4.881818181818182,
                "end_time": 5.165909090909091,
                "pitch": 44,
                "velocity": 51,
                "duration": 0.28409090909090917,
                "tempo": 120.0
            },
            {
                "start_time": 5.181818181818182,
                "end_time": 5.475,
                "pitch": 36,
                "velocity": 51,
                "duration": 0.293181818181818,
                "tempo": 120.0
            },
            {
                "start_time": 5.49090909090909,
                "end_time": 5.768181818181818,
                "pitch": 39,
                "velocity": 51,
                "duration": 0.27727272727272734,
                "tempo": 120.0
            },
            {
                "start_time": 5.784090909090909,
                "end_time": 6.077272727272727,
                "pitch": 44,
                "velocity": 51,
                "duration": 0.293181818181818,
                "tempo": 120.0
            },
            {
                "start_time": 6.093181818181818,
                "end_time": 6.368181818181818,
                "pitch": 43,
                "velocity": 51,
                "duration": 0.27500000000000036,
                "tempo": 120.0
            },
            {
                "start_time": 6.384090909090909,
                "end_time": 6.677272727272727,
                "pitch": 34,
                "velocity": 51,
                "duration": 0.293181818181818,
                "tempo": 120.0
            },
            {
                "start_time": 6.695454545454545,
                "end_time": 6.9386363636363635,
                "pitch": 38,
                "velocity": 51,
                "duration": 0.24318181818181817,
                "tempo": 120.0
            },
            {
                "start_time": 6.970454545454545,
                "end_time": 7.2704545454545455,
                "pitch": 34,
                "velocity": 51,
                "duration": 0.3000000000000007,
                "tempo": 120.0
            },
            {
                "start_time": 7.286363636363636,
                "end_time": 7.570454545454545,
                "pitch": 41,
                "velocity": 51,
                "duration": 0.28409090909090917,
                "tempo": 120.0
            },
            {
                "start_time": 7.586363636363636,
                "end_time": 7.879545454545454,
                "pitch": 45,
                "velocity": 51,
                "duration": 0.293181818181818,
                "tempo": 120.0
            },
            {
                "start_time": 7.8977272727272725,
                "end_time": 8.172727272727272,
                "pitch": 48,
                "velocity": 51,
                "duration": 0.27499999999999947,
                "tempo": 120.0
            },
            {
                "start_time": 8.188636363636363,
                "end_time": 8.370454545454544,
                "pitch": 53,
                "velocity": 51,
                "duration": 0.18181818181818166,
                "tempo": 120.0
            },
            {
                "start_time": 8.388636363636364,
                "end_time": 8.672727272727272,
                "pitch": 51,
                "velocity": 51,
                "duration": 0.2840909090909083,
                "tempo": 120.0
            },
            {
                "start_time": 8.688636363636363,
                "end_time": 8.772727272727272,
                "pitch": 51,
                "velocity": 51,
                "duration": 0.084090909090909,
                "tempo": 120.0
            },
            {
                "start_time": 8.788636363636364,
                "end_time": 9.072727272727272,
                "pitch": 50,
                "velocity": 51,
                "duration": 0.2840909090909083,
                "tempo": 120.0
            },
            {
                "start_time": 9.088636363636363,
                "end_time": 9.375,
                "pitch": 48,
                "velocity": 51,
                "duration": 0.28636363636363704,
                "tempo": 120.0
            },
            {
                "start_time": 9.39090909090909,
                "end_time": 9.674999999999999,
                "pitch": 46,
                "velocity": 51,
                "duration": 0.2840909090909083,
                "tempo": 120.0
            },
            {
                "start_time": 9.69090909090909,
                "end_time": 9.943181818181818,
                "pitch": 39,
                "velocity": 51,
                "duration": 0.25227272727272876,
                "tempo": 120.0
            },
            {
                "start_time": 9.975,
                "end_time": 10.277272727272727,
                "pitch": 43,
                "velocity": 51,
                "duration": 0.3022727272727277,
                "tempo": 120.0
            },
            {
                "start_time": 10.293181818181818,
                "end_time": 10.577272727272726,
                "pitch": 46,
                "velocity": 51,
                "duration": 0.2840909090909083,
                "tempo": 120.0
            },
            {
                "start_time": 10.593181818181817,
                "end_time": 10.777272727272727,
                "pitch": 42,
                "velocity": 51,
                "duration": 0.18409090909091042,
                "tempo": 120.0
            },
            {
                "start_time": 10.795454545454545,
                "end_time": 10.879545454545454,
                "pitch": 43,
                "velocity": 51,
                "duration": 0.084090909090909,
                "tempo": 120.0
            },
            {
                "start_time": 10.895454545454545,
                "end_time": 11.079545454545453,
                "pitch": 43,
                "velocity": 51,
                "duration": 0.18409090909090864,
                "tempo": 120.0
            },
            {
                "start_time": 11.095454545454546,
                "end_time": 11.179545454545455,
                "pitch": 43,
                "velocity": 51,
                "duration": 0.084090909090909,
                "tempo": 120.0
            },
            {
                "start_time": 11.195454545454545,
                "end_time": 11.488636363636363,
                "pitch": 47,
                "velocity": 51,
                "duration": 0.293181818181818,
                "tempo": 120.0
            },
            {
                "start_time": 11.506818181818181,
                "end_time": 11.781818181818181,
                "pitch": 50,
                "velocity": 51,
                "duration": 0.27500000000000036,
                "tempo": 120.0
            },
            {
                "start_time": 11.797727272727272,
                "end_time": 12.081818181818182,
                "pitch": 53,
                "velocity": 51,
                "duration": 0.28409090909091006,
                "tempo": 120.0
            },
            {
                "start_time": 12.097727272727273,
                "end_time": 12.381818181818181,
                "pitch": 51,
                "velocity": 51,
                "duration": 0.2840909090909083,
                "tempo": 120.0
            },
            {
                "start_time": 12.397727272727272,
                "end_time": 12.681818181818182,
                "pitch": 46,
                "velocity": 51,
                "duration": 0.28409090909091006,
                "tempo": 120.0
            },
            {
                "start_time": 12.697727272727272,
                "end_time": 12.984090909090908,
                "pitch": 43,
                "velocity": 51,
                "duration": 0.28636363636363527,
                "tempo": 120.0
            },
            {
                "start_time": 13.0,
                "end_time": 13.284090909090908,
                "pitch": 36,
                "velocity": 51,
                "duration": 0.2840909090909083,
                "tempo": 120.0
            },
            {
                "start_time": 13.302272727272726,
                "end_time": 13.584090909090909,
                "pitch": 34,
                "velocity": 51,
                "duration": 0.2818181818181831,
                "tempo": 120.0
            },
            {
                "start_time": 13.602272727272727,
                "end_time": 13.895454545454545,
                "pitch": 38,
                "velocity": 51,
                "duration": 0.293181818181818,
                "tempo": 120.0
            },
            {
                "start_time": 13.911363636363635,
                "end_time": 14.186363636363636,
                "pitch": 41,
                "velocity": 51,
                "duration": 0.27500000000000036,
                "tempo": 120.0
            },
            {
                "start_time": 14.204545454545453,
                "end_time": 14.488636363636363,
                "pitch": 38,
                "velocity": 51,
                "duration": 0.28409090909091006,
                "tempo": 120.0
            },
            {
                "start_time": 14.504545454545454,
                "end_time": 14.790909090909091,
                "pitch": 44,
                "velocity": 51,
                "duration": 0.28636363636363704,
                "tempo": 120.0
            },
            {
                "start_time": 14.806818181818182,
                "end_time": 15.09090909090909,
                "pitch": 36,
                "velocity": 51,
                "duration": 0.2840909090909083,
                "tempo": 120.0
            },
            {
                "start_time": 15.10681818181818,
                "end_time": 15.39090909090909,
                "pitch": 39,
                "velocity": 51,
                "duration": 0.28409090909091006,
                "tempo": 120.0
            },
            {
                "start_time": 15.409090909090908,
                "end_time": 15.702272727272726,
                "pitch": 44,
                "velocity": 51,
                "duration": 0.293181818181818,
                "tempo": 120.0
            },
            {
                "start_time": 15.718181818181817,
                "end_time": 15.993181818181817,
                "pitch": 43,
                "velocity": 51,
                "duration": 0.27500000000000036,
                "tempo": 120.0
            },
            {
                "start_time": 16.009090909090908,
                "end_time": 16.302272727272726,
                "pitch": 34,
                "velocity": 51,
                "duration": 0.293181818181818,
                "tempo": 120.0
            },
            {
                "start_time": 16.320454545454545,
                "end_time": 16.563636363636363,
                "pitch": 38,
                "velocity": 51,
                "duration": 0.24318181818181728,
                "tempo": 120.0
            },
            {
                "start_time": 16.595454545454544,
                "end_time": 16.895454545454545,
                "pitch": 34,
                "velocity": 51,
                "duration": 0.3000000000000007,
                "tempo": 120.0
            },
            {
                "start_time": 16.913636363636364,
                "end_time": 17.19772727272727,
                "pitch": 41,
                "velocity": 51,
                "duration": 0.2840909090909065,
                "tempo": 120.0
            },
            {
                "start_time": 17.21363636363636,
                "end_time": 17.506818181818183,
                "pitch": 44,
                "velocity": 51,
                "duration": 0.29318181818182154,
                "tempo": 120.0
            },
            {
                "start_time": 17.525,
                "end_time": 17.8,
                "pitch": 48,
                "velocity": 51,
                "duration": 0.27500000000000213,
                "tempo": 120.0
            },
            {
                "start_time": 17.81590909090909,
                "end_time": 18.0,
                "pitch": 53,
                "velocity": 51,
                "duration": 0.18409090909090864,
                "tempo": 120.0
            },
            {
                "start_time": 18.018181818181816,
                "end_time": 18.302272727272726,
                "pitch": 51,
                "velocity": 51,
                "duration": 0.28409090909091006,
                "tempo": 120.0
            },
            {
                "start_time": 18.318181818181817,
                "end_time": 18.402272727272727,
                "pitch": 51,
                "velocity": 51,
                "duration": 0.08409090909091077,
                "tempo": 120.0
            },
            {
                "start_time": 18.420454545454543,
                "end_time": 18.71363636363636,
                "pitch": 50,
                "velocity": 51,
                "duration": 0.293181818181818,
                "tempo": 120.0
            },
            {
                "start_time": 18.729545454545455,
                "end_time": 19.004545454545454,
                "pitch": 48,
                "velocity": 51,
                "duration": 0.2749999999999986,
                "tempo": 120.0
            },
            {
                "start_time": 19.020454545454545,
                "end_time": 19.30681818181818,
                "pitch": 46,
                "velocity": 51,
                "duration": 0.28636363636363527,
                "tempo": 120.0
            },
            {
                "start_time": 19.32272727272727,
                "end_time": 19.80909090909091,
                "pitch": 44,
                "velocity": 51,
                "duration": 0.4863636363636381,
                "tempo": 120.0
            },
            {
                "start_time": 19.825,
                "end_time": 19.909090909090907,
                "pitch": 44,
                "velocity": 51,
                "duration": 0.08409090909090722,
                "tempo": 120.0
            },
            {
                "start_time": 19.925,
                "end_time": 20.11590909090909,
                "pitch": 48,
                "velocity": 51,
                "duration": 0.1909090909090878,
                "tempo": 120.0
            },
            {
                "start_time": 20.13181818181818,
                "end_time": 20.413636363636364,
                "pitch": 51,
                "velocity": 51,
                "duration": 0.28181818181818485,
                "tempo": 120.0
            },
            {
                "start_time": 20.429545454545455,
                "end_time": 20.711363636363636,
                "pitch": 56,
                "velocity": 51,
                "duration": 0.2818181818181813,
                "tempo": 120.0
            },
            {
                "start_time": 20.729545454545452,
                "end_time": 20.811363636363634,
                "pitch": 56,
                "velocity": 51,
                "duration": 0.08181818181818201,
                "tempo": 120.0
            },
            {
                "start_time": 20.829545454545453,
                "end_time": 21.113636363636363,
                "pitch": 51,
                "velocity": 51,
                "duration": 0.28409090909091006,
                "tempo": 120.0
            },
            {
                "start_time": 21.129545454545454,
                "end_time": 21.31590909090909,
                "pitch": 48,
                "velocity": 51,
                "duration": 0.1863636363636374,
                "tempo": 120.0
            },
            {
                "start_time": 21.331818181818182,
                "end_time": 21.51590909090909,
                "pitch": 51,
                "velocity": 51,
                "duration": 0.18409090909090864,
                "tempo": 120.0
            },
            {
                "start_time": 22.334090909090907,
                "end_time": 22.620454545454546,
                "pitch": 46,
                "velocity": 51,
                "duration": 0.2863636363636388,
                "tempo": 120.0
            },
            {
                "start_time": 22.636363636363637,
                "end_time": 22.920454545454543,
                "pitch": 43,
                "velocity": 51,
                "duration": 0.2840909090909065,
                "tempo": 120.0
            },
            {
                "start_time": 22.938636363636363,
                "end_time": 23.222727272727273,
                "pitch": 51,
                "velocity": 51,
                "duration": 0.28409090909091006,
                "tempo": 120.0
            },
            {
                "start_time": 23.238636363636363,
                "end_time": 23.429545454545455,
                "pitch": 46,
                "velocity": 51,
                "duration": 0.19090909090909136,
                "tempo": 120.0
            },
            {
                "start_time": 23.445454545454545,
                "end_time": 23.727272727272727,
                "pitch": 46,
                "velocity": 51,
                "duration": 0.2818181818181813,
                "tempo": 120.0
            },
            {
                "start_time": 23.745454545454546,
                "end_time": 23.825,
                "pitch": 46,
                "velocity": 51,
                "duration": 0.07954545454545325,
                "tempo": 120.0
            },
            {
                "start_time": 23.84090909090909,
                "end_time": 24.03181818181818,
                "pitch": 46,
                "velocity": 51,
                "duration": 0.19090909090909136,
                "tempo": 120.0
            },
            {
                "start_time": 24.047727272727272,
                "end_time": 24.134090909090908,
                "pitch": 48,
                "velocity": 51,
                "duration": 0.08636363636363598,
                "tempo": 120.0
            },
            {
                "start_time": 24.152272727272727,
                "end_time": 24.627272727272725,
                "pitch": 44,
                "velocity": 51,
                "duration": 0.47499999999999787,
                "tempo": 120.0
            },
            {
                "start_time": 24.643181818181816,
                "end_time": 24.727272727272727,
                "pitch": 44,
                "velocity": 51,
                "duration": 0.08409090909091077,
                "tempo": 120.0
            },
            {
                "start_time": 24.745454545454542,
                "end_time": 24.895454545454545,
                "pitch": 48,
                "velocity": 51,
                "duration": 0.15000000000000213,
                "tempo": 120.0
            },
            {
                "start_time": 24.927272727272726,
                "end_time": 25.229545454545452,
                "pitch": 51,
                "velocity": 51,
                "duration": 0.3022727272727259,
                "tempo": 120.0
            },
            {
                "start_time": 25.245454545454542,
                "end_time": 25.529545454545453,
                "pitch": 56,
                "velocity": 51,
                "duration": 0.28409090909091006,
                "tempo": 120.0
            },
            {
                "start_time": 25.547727272727272,
                "end_time": 25.63181818181818,
                "pitch": 56,
                "velocity": 51,
                "duration": 0.08409090909090722,
                "tempo": 120.0
            },
            {
                "start_time": 25.64772727272727,
                "end_time": 25.93181818181818,
                "pitch": 51,
                "velocity": 51,
                "duration": 0.28409090909091006,
                "tempo": 120.0
            },
            {
                "start_time": 25.95,
                "end_time": 26.23409090909091,
                "pitch": 48,
                "velocity": 51,
                "duration": 0.28409090909091006,
                "tempo": 120.0
            },
            {
                "start_time": 26.25,
                "end_time": 26.73409090909091,
                "pitch": 44,
                "velocity": 51,
                "duration": 0.48409090909090935,
                "tempo": 120.0
            },
            {
                "start_time": 26.752272727272725,
                "end_time": 26.802272727272726,
                "pitch": 51,
                "velocity": 51,
                "duration": 0.05000000000000071,
                "tempo": 120.0
            },
            {
                "start_time": 27.154545454545453,
                "end_time": 27.44772727272727,
                "pitch": 46,
                "velocity": 51,
                "duration": 0.293181818181818,
                "tempo": 120.0
            },
            {
                "start_time": 27.46363636363636,
                "end_time": 27.738636363636363,
                "pitch": 43,
                "velocity": 51,
                "duration": 0.27500000000000213,
                "tempo": 120.0
            },
            {
                "start_time": 27.754545454545454,
                "end_time": 28.038636363636364,
                "pitch": 51,
                "velocity": 51,
                "duration": 0.28409090909091006,
                "tempo": 120.0
            },
            {
                "start_time": 28.054545454545455,
                "end_time": 28.347727272727273,
                "pitch": 48,
                "velocity": 51,
                "duration": 0.293181818181818,
                "tempo": 120.0
            },
            {
                "start_time": 28.36590909090909,
                "end_time": 28.549999999999997,
                "pitch": 46,
                "velocity": 51,
                "duration": 0.18409090909090864,
                "tempo": 120.0
            },
            {
                "start_time": 28.568181818181817,
                "end_time": 28.943181818181817,
                "pitch": 46,
                "velocity": 51,
                "duration": 0.375,
                "tempo": 120.0
            },
            {
                "start_time": 28.959090909090907,
                "end_time": 29.043181818181818,
                "pitch": 44,
                "velocity": 51,
                "duration": 0.08409090909091077,
                "tempo": 120.0
            },
            {
                "start_time": 29.461363636363636,
                "end_time": 29.543181818181818,
                "pitch": 44,
                "velocity": 51,
                "duration": 0.08181818181818201,
                "tempo": 120.0
            },
            {
                "start_time": 29.561363636363634,
                "end_time": 29.71590909090909,
                "pitch": 51,
                "velocity": 51,
                "duration": 0.1545454545454561,
                "tempo": 120.0
            },
            {
                "start_time": 29.75,
                "end_time": 30.01590909090909,
                "pitch": 44,
                "velocity": 51,
                "duration": 0.26590909090909065,
                "tempo": 120.0
            },
            {
                "start_time": 30.049999999999997,
                "end_time": 30.145454545454545,
                "pitch": 56,
                "velocity": 51,
                "duration": 0.09545454545454746,
                "tempo": 120.0
            },
            {
                "start_time": 30.161363636363635,
                "end_time": 30.44772727272727,
                "pitch": 44,
                "velocity": 51,
                "duration": 0.28636363636363527,
                "tempo": 120.0
            },
            {
                "start_time": 30.46363636363636,
                "end_time": 30.75681818181818,
                "pitch": 47,
                "velocity": 51,
                "duration": 0.293181818181818,
                "tempo": 120.0
            },
            {
                "start_time": 30.775,
                "end_time": 30.952272727272724,
                "pitch": 50,
                "velocity": 51,
                "duration": 0.17727272727272592,
                "tempo": 120.0
            },
            {
                "start_time": 30.968181818181815,
                "end_time": 31.25,
                "pitch": 51,
                "velocity": 51,
                "duration": 0.28181818181818485,
                "tempo": 120.0
            },
            {
                "start_time": 31.26590909090909,
                "end_time": 31.852272727272727,
                "pitch": 51,
                "velocity": 51,
                "duration": 0.586363636363636,
                "tempo": 120.0
            },
            {
                "start_time": 31.870454545454542,
                "end_time": 31.952272727272724,
                "pitch": 51,
                "velocity": 51,
                "duration": 0.08181818181818201,
                "tempo": 120.0
            },
            {
                "start_time": 31.970454545454544,
                "end_time": 32.15909090909091,
                "pitch": 55,
                "velocity": 51,
                "duration": 0.1886363636363626,
                "tempo": 120.0
            },
            {
                "start_time": 32.17727272727272,
                "end_time": 32.263636363636365,
                "pitch": 58,
                "velocity": 51,
                "duration": 0.08636363636364308,
                "tempo": 120.0
            },
            {
                "start_time": 32.475,
                "end_time": 32.55681818181818,
                "pitch": 55,
                "velocity": 51,
                "duration": 0.08181818181817846,
                "tempo": 120.0
            },
            {
                "start_time": 32.77272727272727,
                "end_time": 32.85681818181818,
                "pitch": 51,
                "velocity": 51,
                "duration": 0.08409090909090366,
                "tempo": 120.0
            },
            {
                "start_time": 33.07272727272727,
                "end_time": 33.15681818181818,
                "pitch": 46,
                "velocity": 51,
                "duration": 0.08409090909091077,
                "tempo": 120.0
            },
            {
                "start_time": 33.17272727272727,
                "end_time": 33.25681818181818,
                "pitch": 58,
                "velocity": 51,
                "duration": 0.08409090909091077,
                "tempo": 120.0
            },
            {
                "start_time": 33.37272727272727,
                "end_time": 33.42272727272727,
                "pitch": 58,
                "velocity": 51,
                "duration": 0.05000000000000426,
                "tempo": 120.0
            }
        ]
    }
}