{
    "track_id": "Fantasy Zone II (FM) - 02 - Pastaria",
    "mood": "happy",
    "instruments": {
        "Oboe": [
            {
                "start_time": 51.00681818181818,
                "end_time": 51.24545454545454,
                "pitch": 62,
                "velocity": 64,
                "duration": 0.23863636363635976,
                "tempo": 120.0
            },
            {
                "start_time": 51.277272727272724,
                "end_time": 51.51136363636363,
                "pitch": 64,
                "velocity": 64,
                "duration": 0.23409090909090935,
                "tempo": 120.0
            },
            {
                "start_time": 51.54545454545454,
                "end_time": 52.449999999999996,
                "pitch": 66,
                "velocity": 64,
                "duration": 0.9045454545454561,
                "tempo": 120.0
            },
            {
                "start_time": 52.48409090909091,
                "end_time": 52.584090909090904,
                "pitch": 61,
                "velocity": 64,
                "duration": 0.09999999999999432,
                "tempo": 120.0
            },
            {
                "start_time": 52.61818181818182,
                "end_time": 52.85681818181818,
                "pitch": 66,
                "velocity": 64,
                "duration": 0.23863636363635976,
                "tempo": 120.0
            },
            {
                "start_time": 52.89090909090909,
                "end_time": 53.125,
                "pitch": 64,
                "velocity": 64,
                "duration": 0.23409090909090935,
                "tempo": 120.0
            },
            {
                "start_time": 53.15909090909091,
                "end_time": 53.39090909090909,
                "pitch": 62,
                "velocity": 64,
                "duration": 0.23181818181818414,
                "tempo": 120.0
            },
            {
                "start_time": 53.425,
                "end_time": 53.663636363636364,
                "pitch": 61,
                "velocity": 64,
                "duration": 0.23863636363636687,
                "tempo": 120.0
            },
            {
                "start_time": 53.69772727272727,
                "end_time": 54.470454545454544,
                "pitch": 62,
                "velocity": 64,
                "duration": 0.7727272727272734,
                "tempo": 120.0
            },
            {
                "start_time": 54.50454545454545,
                "end_time": 55.00454545454545,
                "pitch": 59,
                "velocity": 64,
                "duration": 0.5,
                "tempo": 120.0
            },
            {
                "start_time": 55.17045454545454,
                "end_time": 55.27272727272727,
                "pitch": 59,
                "velocity": 64,
                "duration": 0.10227272727273373,
                "tempo": 120.0
            },
            {
                "start_time": 55.304545454545455,
                "end_time": 55.538636363636364,
                "pitch": 61,
                "velocity": 64,
                "duration": 0.23409090909090935,
                "tempo": 120.0
            },
            {
                "start_time": 55.57272727272727,
                "end_time": 55.81136363636363,
                "pitch": 62,
                "velocity": 64,
                "duration": 0.23863636363635976,
                "tempo": 120.0
            },
            {
                "start_time": 55.845454545454544,
                "end_time": 56.61818181818182,
                "pitch": 64,
                "velocity": 64,
                "duration": 0.7727272727272734,
                "tempo": 120.0
            },
            {
                "start_time": 56.65,
                "end_time": 56.88409090909091,
                "pitch": 59,
                "velocity": 64,
                "duration": 0.23409090909090935,
                "tempo": 120.0
            },
            {
                "start_time": 56.918181818181814,
                "end_time": 57.152272727272724,
                "pitch": 64,
                "velocity": 64,
                "duration": 0.23409090909090935,
                "tempo": 120.0
            },
            {
                "start_time": 57.18636363636363,
                "end_time": 57.42272727272727,
                "pitch": 62,
                "velocity": 64,
                "duration": 0.23636363636364166,
                "tempo": 120.0
            },
            {
                "start_time": 57.45681818181818,
                "end_time": 57.695454545454545,
                "pitch": 61,
                "velocity": 64,
                "duration": 0.23863636363636687,
                "tempo": 120.0
            },
            {
                "start_time": 57.72954545454545,
                "end_time": 57.96363636363636,
                "pitch": 59,
                "velocity": 64,
                "duration": 0.23409090909090935,
                "tempo": 120.0
            },
            {
                "start_time": 57.99545454545454,
                "end_time": 58.76363636363636,
                "pitch": 61,
                "velocity": 64,
                "duration": 0.7681818181818159,
                "tempo": 120.0
            },
            {
                "start_time": 58.79772727272727,
                "end_time": 59.03636363636363,
                "pitch": 62,
                "velocity": 64,
                "duration": 0.23863636363635976,
                "tempo": 120.0
            },
            {
                "start_time": 59.070454545454545,
                "end_time": 59.709090909090904,
                "pitch": 64,
                "velocity": 64,
                "duration": 0.6386363636363583,
                "tempo": 120.0
            },
            {
                "start_time": 59.74318181818182,
                "end_time": 59.84318181818182,
                "pitch": 61,
                "velocity": 64,
                "duration": 0.10000000000000142,
                "tempo": 120.0
            },
            {
                "start_time": 59.877272727272725,
                "end_time": 59.97727272727273,
                "pitch": 62,
                "velocity": 64,
                "duration": 0.10000000000000142,
                "tempo": 120.0
            },
            {
                "start_time": 60.01136363636363,
                "end_time": 60.11363636363636,
                "pitch": 64,
                "velocity": 64,
                "duration": 0.10227272727272663,
                "tempo": 120.0
            },
            {
                "start_time": 60.147727272727266,
                "end_time": 61.054545454545455,
                "pitch": 66,
                "velocity": 64,
                "duration": 0.9068181818181884,
                "tempo": 120.0
            },
            {
                "start_time": 61.08863636363636,
                "end_time": 61.18863636363636,
                "pitch": 61,
                "velocity": 64,
                "duration": 0.10000000000000142,
                "tempo": 120.0
            },
            {
                "start_time": 61.22272727272727,
                "end_time": 61.45454545454545,
                "pitch": 66,
                "velocity": 64,
                "duration": 0.23181818181818414,
                "tempo": 120.0
            },
            {
                "start_time": 61.48863636363636,
                "end_time": 61.72727272727273,
                "pitch": 64,
                "velocity": 64,
                "duration": 0.23863636363636687,
                "tempo": 120.0
            },
            {
                "start_time": 61.76136363636363,
                "end_time": 62.0,
                "pitch": 62,
                "velocity": 64,
                "duration": 0.23863636363636687,
                "tempo": 120.0
            },
            {
                "start_time": 62.03181818181818,
                "end_time": 62.26590909090909,
                "pitch": 61,
                "velocity": 64,
                "duration": 0.23409090909090935,
                "tempo": 120.0
            },
            {
                "start_time": 62.3,
                "end_time": 63.06818181818181,
                "pitch": 62,
                "velocity": 64,
                "duration": 0.7681818181818159,
                "tempo": 120.0
            },
            {
                "start_time": 63.10227272727273,
                "end_time": 63.60227272727273,
                "pitch": 59,
                "velocity": 64,
                "duration": 0.5,
                "tempo": 120.0
            },
            {
                "start_time": 63.772727272727266,
                "end_time": 63.875,
                "pitch": 59,
                "velocity": 64,
                "duration": 0.10227272727273373,
                "tempo": 120.0
            },
            {
                "start_time": 63.90909090909091,
                "end_time": 64.14545454545454,
                "pitch": 61,
                "velocity": 64,
                "duration": 0.23636363636363455,
                "tempo": 120.0
            },
            {
                "start_time": 64.17954545454545,
                "end_time": 64.41363636363636,
                "pitch": 62,
                "velocity": 64,
                "duration": 0.23409090909090935,
                "tempo": 120.0
            },
            {
                "start_time": 64.44772727272726,
                "end_time": 65.2159090909091,
                "pitch": 64,
                "velocity": 64,
                "duration": 0.7681818181818301,
                "tempo": 120.0
            },
            {
                "start_time": 65.24772727272727,
                "end_time": 65.48636363636363,
                "pitch": 59,
                "velocity": 64,
                "duration": 0.23863636363635976,
                "tempo": 120.0
            },
            {
                "start_time": 65.52045454545454,
                "end_time": 65.7590909090909,
                "pitch": 64,
                "velocity": 64,
                "duration": 0.23863636363635976,
                "tempo": 120.0
            },
            {
                "start_time": 65.79318181818182,
                "end_time": 66.02727272727273,
                "pitch": 59,
                "velocity": 64,
                "duration": 0.23409090909090935,
                "tempo": 120.0
            },
            {
                "start_time": 66.05909090909091,
                "end_time": 66.29318181818182,
                "pitch": 66,
                "velocity": 64,
                "duration": 0.23409090909090935,
                "tempo": 120.0
            },
            {
                "start_time": 66.32727272727273,
                "end_time": 67.63863636363637,
                "pitch": 64,
                "velocity": 64,
                "duration": 1.3113636363636374,
                "tempo": 120.0
            }
        ],
        "Acoustic Bass": [
            {
                "start_time": 3.2977272727272724,
                "end_time": 3.3977272727272725,
                "pitch": 45,
                "velocity": 51,
                "duration": 0.10000000000000009,
                "tempo": 120.0
            },
            {
                "start_time": 3.5636363636363635,
                "end_time": 3.6636363636363636,
                "pitch": 45,
                "velocity": 51,
                "duration": 0.10000000000000009,
                "tempo": 120.0
            },
            {
                "start_time": 3.8318181818181816,
                "end_time": 3.9318181818181817,
                "pitch": 45,
                "velocity": 51,
                "duration": 0.10000000000000009,
                "tempo": 120.0
            },
            {
                "start_time": 3.965909090909091,
                "end_time": 4.0659090909090905,
                "pitch": 45,
                "velocity": 51,
                "duration": 0.09999999999999964,
                "tempo": 120.0
            },
            {
                "start_time": 7.725,
                "end_time": 7.827272727272727,
                "pitch": 29,
                "velocity": 51,
                "duration": 0.10227272727272751,
                "tempo": 120.0
            },
            {
                "start_time": 7.997727272727272,
                "end_time": 8.1,
                "pitch": 29,
                "velocity": 51,
                "duration": 0.10227272727272751,
                "tempo": 120.0
            },
            {
                "start_time": 8.268181818181818,
                "end_time": 8.368181818181817,
                "pitch": 31,
                "velocity": 51,
                "duration": 0.09999999999999964,
                "tempo": 120.0
            },
            {
                "start_time": 8.402272727272727,
                "end_time": 8.502272727272727,
                "pitch": 33,
                "velocity": 51,
                "duration": 0.09999999999999964,
                "tempo": 120.0
            },
            {
                "start_time": 11.895454545454545,
                "end_time": 11.995454545454544,
                "pitch": 45,
                "velocity": 51,
                "duration": 0.09999999999999964,
                "tempo": 120.0
            },
            {
                "start_time": 12.161363636363635,
                "end_time": 12.263636363636364,
                "pitch": 45,
                "velocity": 51,
                "duration": 0.1022727272727284,
                "tempo": 120.0
            },
            {
                "start_time": 12.429545454545455,
                "end_time": 12.529545454545454,
                "pitch": 45,
                "velocity": 51,
                "duration": 0.09999999999999964,
                "tempo": 120.0
            },
            {
                "start_time": 12.563636363636363,
                "end_time": 12.665909090909091,
                "pitch": 45,
                "velocity": 51,
                "duration": 0.1022727272727284,
                "tempo": 120.0
            },
            {
                "start_time": 15.254545454545454,
                "end_time": 15.754545454545454,
                "pitch": 38,
                "velocity": 51,
                "duration": 0.5,
                "tempo": 120.0
            },
            {
                "start_time": 15.788636363636362,
                "end_time": 16.027272727272727,
                "pitch": 38,
                "velocity": 51,
                "duration": 0.2386363636363651,
                "tempo": 120.0
            },
            {
                "start_time": 16.061363636363634,
                "end_time": 16.297727272727272,
                "pitch": 40,
                "velocity": 51,
                "duration": 0.2363636363636381,
                "tempo": 120.0
            },
            {
                "start_time": 17.134090909090908,
                "end_time": 17.645454545454545,
                "pitch": 38,
                "velocity": 51,
                "duration": 0.5113636363636367,
                "tempo": 120.0
            },
            {
                "start_time": 17.677272727272726,
                "end_time": 18.045454545454543,
                "pitch": 38,
                "velocity": 51,
                "duration": 0.3681818181818173,
                "tempo": 120.0
            },
            {
                "start_time": 18.079545454545453,
                "end_time": 18.179545454545455,
                "pitch": 33,
                "velocity": 51,
                "duration": 0.10000000000000142,
                "tempo": 120.0
            },
            {
                "start_time": 18.21363636363636,
                "end_time": 18.445454545454545,
                "pitch": 38,
                "velocity": 51,
                "duration": 0.23181818181818414,
                "tempo": 120.0
            },
            {
                "start_time": 18.479545454545455,
                "end_time": 18.71818181818182,
                "pitch": 33,
                "velocity": 51,
                "duration": 0.2386363636363633,
                "tempo": 120.0
            },
            {
                "start_time": 18.752272727272725,
                "end_time": 18.99090909090909,
                "pitch": 38,
                "velocity": 51,
                "duration": 0.2386363636363633,
                "tempo": 120.0
            },
            {
                "start_time": 19.022727272727273,
                "end_time": 19.25681818181818,
                "pitch": 33,
                "velocity": 51,
                "duration": 0.2340909090909058,
                "tempo": 120.0
            },
            {
                "start_time": 19.29090909090909,
                "end_time": 19.79090909090909,
                "pitch": 33,
                "velocity": 51,
                "duration": 0.5,
                "tempo": 120.0
            },
            {
                "start_time": 19.825,
                "end_time": 20.329545454545453,
                "pitch": 28,
                "velocity": 51,
                "duration": 0.504545454545454,
                "tempo": 120.0
            },
            {
                "start_time": 20.363636363636363,
                "end_time": 20.602272727272727,
                "pitch": 33,
                "velocity": 51,
                "duration": 0.2386363636363633,
                "tempo": 120.0
            },
            {
                "start_time": 20.636363636363637,
                "end_time": 20.870454545454546,
                "pitch": 28,
                "velocity": 51,
                "duration": 0.23409090909090935,
                "tempo": 120.0
            },
            {
                "start_time": 20.904545454545453,
                "end_time": 21.136363636363637,
                "pitch": 33,
                "velocity": 51,
                "duration": 0.23181818181818414,
                "tempo": 120.0
            },
            {
                "start_time": 21.170454545454543,
                "end_time": 21.404545454545453,
                "pitch": 28,
                "velocity": 51,
                "duration": 0.23409090909090935,
                "tempo": 120.0
            },
            {
                "start_time": 21.438636363636363,
                "end_time": 21.943181818181817,
                "pitch": 33,
                "velocity": 51,
                "duration": 0.504545454545454,
                "tempo": 120.0
            },
            {
                "start_time": 21.977272727272727,
                "end_time": 22.48181818181818,
                "pitch": 28,
                "velocity": 51,
                "duration": 0.504545454545454,
                "tempo": 120.0
            },
            {
                "start_time": 22.51590909090909,
                "end_time": 22.75,
                "pitch": 33,
                "velocity": 51,
                "duration": 0.23409090909090935,
                "tempo": 120.0
            },
            {
                "start_time": 22.784090909090907,
                "end_time": 23.018181818181816,
                "pitch": 28,
                "velocity": 51,
                "duration": 0.23409090909090935,
                "tempo": 120.0
            },
            {
                "start_time": 23.049999999999997,
                "end_time": 23.284090909090907,
                "pitch": 33,
                "velocity": 51,
                "duration": 0.23409090909090935,
                "tempo": 120.0
            },
            {
                "start_time": 23.318181818181817,
                "end_time": 23.55681818181818,
                "pitch": 37,
                "velocity": 51,
                "duration": 0.2386363636363633,
                "tempo": 120.0
            },
            {
                "start_time": 23.59090909090909,
                "end_time": 24.095454545454544,
                "pitch": 38,
                "velocity": 51,
                "duration": 0.504545454545454,
                "tempo": 120.0
            },
            {
                "start_time": 24.129545454545454,
                "end_time": 24.629545454545454,
                "pitch": 33,
                "velocity": 51,
                "duration": 0.5,
                "tempo": 120.0
            },
            {
                "start_time": 24.663636363636364,
                "end_time": 24.89772727272727,
                "pitch": 38,
                "velocity": 51,
                "duration": 0.2340909090909058,
                "tempo": 120.0
            },
            {
                "start_time": 24.929545454545455,
                "end_time": 25.163636363636364,
                "pitch": 38,
                "velocity": 51,
                "duration": 0.23409090909090935,
                "tempo": 120.0
            },
            {
                "start_time": 25.19772727272727,
                "end_time": 25.43181818181818,
                "pitch": 33,
                "velocity": 51,
                "duration": 0.23409090909090935,
                "tempo": 120.0
            },
            {
                "start_time": 25.46590909090909,
                "end_time": 25.702272727272724,
                "pitch": 38,
                "velocity": 51,
                "duration": 0.23636363636363455,
                "tempo": 120.0
            },
            {
                "start_time": 25.736363636363635,
                "end_time": 26.243181818181817,
                "pitch": 38,
                "velocity": 51,
                "duration": 0.5068181818181827,
                "tempo": 120.0
            },
            {
                "start_time": 26.277272727272727,
                "end_time": 26.78181818181818,
                "pitch": 33,
                "velocity": 51,
                "duration": 0.504545454545454,
                "tempo": 120.0
            },
            {
                "start_time": 26.81590909090909,
                "end_time": 27.054545454545455,
                "pitch": 38,
                "velocity": 51,
                "duration": 0.2386363636363633,
                "tempo": 120.0
            },
            {
                "start_time": 27.086363636363636,
                "end_time": 27.320454545454545,
                "pitch": 33,
                "velocity": 51,
                "duration": 0.23409090909090935,
                "tempo": 120.0
            },
            {
                "start_time": 27.354545454545452,
                "end_time": 27.58863636363636,
                "pitch": 38,
                "velocity": 51,
                "duration": 0.23409090909090935,
                "tempo": 120.0
            },
            {
                "start_time": 27.62272727272727,
                "end_time": 27.854545454545452,
                "pitch": 33,
                "velocity": 51,
                "duration": 0.2318181818181806,
                "tempo": 120.0
            },
            {
                "start_time": 27.888636363636362,
                "end_time": 28.393181818181816,
                "pitch": 33,
                "velocity": 51,
                "duration": 0.504545454545454,
                "tempo": 120.0
            },
            {
                "start_time": 28.427272727272726,
                "end_time": 28.93409090909091,
                "pitch": 28,
                "velocity": 51,
                "duration": 0.5068181818181827,
                "tempo": 120.0
            },
            {
                "start_time": 28.968181818181815,
                "end_time": 29.2,
                "pitch": 33,
                "velocity": 51,
                "duration": 0.23181818181818414,
                "tempo": 120.0
            },
            {
                "start_time": 29.23409090909091,
                "end_time": 29.468181818181815,
                "pitch": 28,
                "velocity": 51,
                "duration": 0.2340909090909058,
                "tempo": 120.0
            },
            {
                "start_time": 29.502272727272725,
                "end_time": 29.736363636363635,
                "pitch": 33,
                "velocity": 51,
                "duration": 0.23409090909090935,
                "tempo": 120.0
            },
            {
                "start_time": 29.768181818181816,
                "end_time": 30.002272727272725,
                "pitch": 33,
                "velocity": 51,
                "duration": 0.23409090909090935,
                "tempo": 120.0
            },
            {
                "start_time": 30.036363636363635,
                "end_time": 30.54090909090909,
                "pitch": 33,
                "velocity": 51,
                "duration": 0.504545454545454,
                "tempo": 120.0
            },
            {
                "start_time": 30.575,
                "end_time": 31.086363636363636,
                "pitch": 28,
                "velocity": 51,
                "duration": 0.5113636363636367,
                "tempo": 120.0
            },
            {
                "start_time": 31.120454545454542,
                "end_time": 31.625,
                "pitch": 37,
                "velocity": 51,
                "duration": 0.5045454545454575,
                "tempo": 120.0
            },
            {
                "start_time": 31.659090909090907,
                "end_time": 32.15909090909091,
                "pitch": 33,
                "velocity": 51,
                "duration": 0.5,
                "tempo": 120.0
            },
            {
                "start_time": 32.19318181818182,
                "end_time": 32.42727272727272,
                "pitch": 38,
                "velocity": 51,
                "duration": 0.23409090909090224,
                "tempo": 120.0
            },
            {
                "start_time": 32.45909090909091,
                "end_time": 32.961363636363636,
                "pitch": 38,
                "velocity": 51,
                "duration": 0.5022727272727252,
                "tempo": 120.0
            },
            {
                "start_time": 32.99545454545454,
                "end_time": 33.23181818181818,
                "pitch": 33,
                "velocity": 51,
                "duration": 0.23636363636363455,
                "tempo": 120.0
            },
            {
                "start_time": 33.26590909090909,
                "end_time": 33.50454545454545,
                "pitch": 38,
                "velocity": 51,
                "duration": 0.23863636363635976,
                "tempo": 120.0
            },
            {
                "start_time": 34.07272727272727,
                "end_time": 34.30681818181818,
                "pitch": 33,
                "velocity": 51,
                "duration": 0.23409090909090935,
                "tempo": 120.0
            },
            {
                "start_time": 34.340909090909086,
                "end_time": 34.845454545454544,
                "pitch": 38,
                "velocity": 51,
                "duration": 0.5045454545454575,
                "tempo": 120.0
            },
            {
                "start_time": 34.87954545454545,
                "end_time": 35.252272727272725,
                "pitch": 38,
                "velocity": 51,
                "duration": 0.3727272727272748,
                "tempo": 120.0
            },
            {
                "start_time": 35.28409090909091,
                "end_time": 35.38409090909091,
                "pitch": 33,
                "velocity": 51,
                "duration": 0.10000000000000142,
                "tempo": 120.0
            },
            {
                "start_time": 35.418181818181814,
                "end_time": 35.652272727272724,
                "pitch": 38,
                "velocity": 51,
                "duration": 0.23409090909090935,
                "tempo": 120.0
            },
            {
                "start_time": 35.68636363636364,
                "end_time": 35.918181818181814,
                "pitch": 33,
                "velocity": 51,
                "duration": 0.23181818181817704,
                "tempo": 120.0
            },
            {
                "start_time": 35.95227272727273,
                "end_time": 36.18636363636364,
                "pitch": 38,
                "velocity": 51,
                "duration": 0.23409090909090935,
                "tempo": 120.0
            },
            {
                "start_time": 36.220454545454544,
                "end_time": 36.45909090909091,
                "pitch": 33,
                "velocity": 51,
                "duration": 0.23863636363636687,
                "tempo": 120.0
            },
            {
                "start_time": 36.49090909090909,
                "end_time": 36.99772727272727,
                "pitch": 33,
                "velocity": 51,
                "duration": 0.5068181818181756,
                "tempo": 120.0
            },
            {
                "start_time": 37.03181818181818,
                "end_time": 37.53181818181818,
                "pitch": 28,
                "velocity": 51,
                "duration": 0.5,
                "tempo": 120.0
            },
            {
                "start_time": 37.56590909090909,
                "end_time": 37.8,
                "pitch": 33,
                "velocity": 51,
                "duration": 0.23409090909090935,
                "tempo": 120.0
            },
            {
                "start_time": 37.83181818181818,
                "end_time": 38.06590909090909,
                "pitch": 28,
                "velocity": 51,
                "duration": 0.23409090909090935,
                "tempo": 120.0
            },
            {
                "start_time": 38.1,
                "end_time": 38.33409090909091,
                "pitch": 33,
                "velocity": 51,
                "duration": 0.23409090909090935,
                "tempo": 120.0
            },
            {
                "start_time": 38.36818181818182,
                "end_time": 38.60454545454545,
                "pitch": 28,
                "velocity": 51,
                "duration": 0.23636363636363455,
                "tempo": 120.0
            },
            {
                "start_time": 38.63863636363636,
                "end_time": 39.14545454545454,
                "pitch": 33,
                "velocity": 51,
                "duration": 0.5068181818181827,
                "tempo": 120.0
            },
            {
                "start_time": 39.17727272727272,
                "end_time": 39.684090909090905,
                "pitch": 28,
                "velocity": 51,
                "duration": 0.5068181818181827,
                "tempo": 120.0
            },
            {
                "start_time": 39.71818181818182,
                "end_time": 39.95454545454545,
                "pitch": 33,
                "velocity": 51,
                "duration": 0.23636363636363455,
                "tempo": 120.0
            },
            {
                "start_time": 39.98863636363636,
                "end_time": 40.22272727272727,
                "pitch": 28,
                "velocity": 51,
                "duration": 0.23409090909090935,
                "tempo": 120.0
            },
            {
                "start_time": 40.25681818181818,
                "end_time": 40.49090909090909,
                "pitch": 33,
                "velocity": 51,
                "duration": 0.23409090909090935,
                "tempo": 120.0
            },
            {
                "start_time": 40.52272727272727,
                "end_time": 40.76136363636363,
                "pitch": 37,
                "velocity": 51,
                "duration": 0.23863636363635976,
                "tempo": 120.0
            },
            {
                "start_time": 40.79545454545455,
                "end_time": 41.30227272727272,
                "pitch": 38,
                "velocity": 51,
                "duration": 0.5068181818181756,
                "tempo": 120.0
            },
            {
                "start_time": 41.334090909090904,
                "end_time": 41.836363636363636,
                "pitch": 33,
                "velocity": 51,
                "duration": 0.5022727272727323,
                "tempo": 120.0
            },
            {
                "start_time": 41.86818181818182,
                "end_time": 42.10227272727273,
                "pitch": 38,
                "velocity": 51,
                "duration": 0.23409090909090935,
                "tempo": 120.0
            },
            {
                "start_time": 42.13636363636363,
                "end_time": 42.37045454545454,
                "pitch": 38,
                "velocity": 51,
                "duration": 0.23409090909090935,
                "tempo": 120.0
            },
            {
                "start_time": 42.40454545454545,
                "end_time": 42.63636363636363,
                "pitch": 33,
                "velocity": 51,
                "duration": 0.23181818181818414,
                "tempo": 120.0
            },
            {
                "start_time": 42.67045454545455,
                "end_time": 42.90909090909091,
                "pitch": 38,
                "velocity": 51,
                "duration": 0.23863636363635976,
                "tempo": 120.0
            },
            {
                "start_time": 42.94318181818181,
                "end_time": 43.44772727272727,
                "pitch": 38,
                "velocity": 51,
                "duration": 0.5045454545454575,
                "tempo": 120.0
            },
            {
                "start_time": 43.48181818181818,
                "end_time": 43.98181818181818,
                "pitch": 33,
                "velocity": 51,
                "duration": 0.5,
                "tempo": 120.0
            },
            {
                "start_time": 44.01590909090909,
                "end_time": 44.25,
                "pitch": 38,
                "velocity": 51,
                "duration": 0.23409090909090935,
                "tempo": 120.0
            },
            {
                "start_time": 44.28409090909091,
                "end_time": 44.52045454545454,
                "pitch": 33,
                "velocity": 51,
                "duration": 0.23636363636363455,
                "tempo": 120.0
            },
            {
                "start_time": 44.554545454545455,
                "end_time": 44.793181818181814,
                "pitch": 38,
                "velocity": 51,
                "duration": 0.23863636363635976,
                "tempo": 120.0
            },
            {
                "start_time": 44.82727272727273,
                "end_time": 45.06136363636364,
                "pitch": 33,
                "velocity": 51,
                "duration": 0.23409090909090935,
                "tempo": 120.0
            },
            {
                "start_time": 45.095454545454544,
                "end_time": 45.595454545454544,
                "pitch": 33,
                "velocity": 51,
                "duration": 0.5,
                "tempo": 120.0
            },
            {
                "start_time": 45.62954545454545,
                "end_time": 46.12954545454545,
                "pitch": 28,
                "velocity": 51,
                "duration": 0.5,
                "tempo": 120.0
            },
            {
                "start_time": 46.163636363636364,
                "end_time": 46.39772727272727,
                "pitch": 33,
                "velocity": 51,
                "duration": 0.23409090909090935,
                "tempo": 120.0
            },
            {
                "start_time": 46.43181818181818,
                "end_time": 46.668181818181814,
                "pitch": 28,
                "velocity": 51,
                "duration": 0.23636363636363455,
                "tempo": 120.0
            },
            {
                "start_time": 46.70227272727273,
                "end_time": 46.94090909090909,
                "pitch": 33,
                "velocity": 51,
                "duration": 0.23863636363635976,
                "tempo": 120.0
            },
            {
                "start_time": 46.974999999999994,
                "end_time": 47.209090909090904,
                "pitch": 33,
                "velocity": 51,
                "duration": 0.23409090909090935,
                "tempo": 120.0
            },
            {
                "start_time": 47.24090909090909,
                "end_time": 47.74772727272727,
                "pitch": 33,
                "velocity": 51,
                "duration": 0.5068181818181756,
                "tempo": 120.0
            },
            {
                "start_time": 47.78181818181818,
                "end_time": 48.28636363636363,
                "pitch": 28,
                "velocity": 51,
                "duration": 0.5045454545454504,
                "tempo": 120.0
            },
            {
                "start_time": 48.320454545454545,
                "end_time": 48.820454545454545,
                "pitch": 37,
                "velocity": 51,
                "duration": 0.5,
                "tempo": 120.0
            },
            {
                "start_time": 48.85454545454545,
                "end_time": 49.35909090909091,
                "pitch": 33,
                "velocity": 51,
                "duration": 0.5045454545454575,
                "tempo": 120.0
            },
            {
                "start_time": 49.393181818181816,
                "end_time": 49.63181818181818,
                "pitch": 38,
                "velocity": 51,
                "duration": 0.23863636363636687,
                "tempo": 120.0
            },
            {
                "start_time": 49.66590909090909,
                "end_time": 50.16590909090909,
                "pitch": 38,
                "velocity": 51,
                "duration": 0.5,
                "tempo": 120.0
            },
            {
                "start_time": 50.199999999999996,
                "end_time": 50.434090909090905,
                "pitch": 33,
                "velocity": 51,
                "duration": 0.23409090909090935,
                "tempo": 120.0
            },
            {
                "start_time": 50.465909090909086,
                "end_time": 50.97272727272727,
                "pitch": 38,
                "velocity": 51,
                "duration": 0.5068181818181827,
                "tempo": 120.0
            },
            {
                "start_time": 51.00681818181818,
                "end_time": 51.24545454545454,
                "pitch": 38,
                "velocity": 51,
                "duration": 0.23863636363635976,
                "tempo": 120.0
            },
            {
                "start_time": 51.277272727272724,
                "end_time": 51.51136363636363,
                "pitch": 40,
                "velocity": 51,
                "duration": 0.23409090909090935,
                "tempo": 120.0
            },
            {
                "start_time": 51.54545454545454,
                "end_time": 52.04545454545454,
                "pitch": 42,
                "velocity": 51,
                "duration": 0.5,
                "tempo": 120.0
            },
            {
                "start_time": 52.07954545454545,
                "end_time": 52.449999999999996,
                "pitch": 42,
                "velocity": 51,
                "duration": 0.3704545454545425,
                "tempo": 120.0
            },
            {
                "start_time": 52.48409090909091,
                "end_time": 52.584090909090904,
                "pitch": 37,
                "velocity": 51,
                "duration": 0.09999999999999432,
                "tempo": 120.0
            },
            {
                "start_time": 52.61818181818182,
                "end_time": 52.85681818181818,
                "pitch": 42,
                "velocity": 51,
                "duration": 0.23863636363635976,
                "tempo": 120.0
            },
            {
                "start_time": 52.89090909090909,
                "end_time": 53.125,
                "pitch": 37,
                "velocity": 51,
                "duration": 0.23409090909090935,
                "tempo": 120.0
            },
            {
                "start_time": 53.15909090909091,
                "end_time": 53.39090909090909,
                "pitch": 42,
                "velocity": 51,
                "duration": 0.23181818181818414,
                "tempo": 120.0
            },
            {
                "start_time": 53.425,
                "end_time": 53.663636363636364,
                "pitch": 37,
                "velocity": 51,
                "duration": 0.23863636363636687,
                "tempo": 120.0
            },
            {
                "start_time": 53.69772727272727,
                "end_time": 54.20227272727273,
                "pitch": 38,
                "velocity": 51,
                "duration": 0.5045454545454575,
                "tempo": 120.0
            },
            {
                "start_time": 54.236363636363635,
                "end_time": 54.736363636363635,
                "pitch": 35,
                "velocity": 51,
                "duration": 0.5,
                "tempo": 120.0
            },
            {
                "start_time": 54.77045454545454,
                "end_time": 55.27272727272727,
                "pitch": 38,
                "velocity": 51,
                "duration": 0.5022727272727323,
                "tempo": 120.0
            },
            {
                "start_time": 55.304545454545455,
                "end_time": 55.538636363636364,
                "pitch": 35,
                "velocity": 51,
                "duration": 0.23409090909090935,
                "tempo": 120.0
            },
            {
                "start_time": 55.57272727272727,
                "end_time": 55.81136363636363,
                "pitch": 38,
                "velocity": 51,
                "duration": 0.23863636363635976,
                "tempo": 120.0
            },
            {
                "start_time": 55.845454545454544,
                "end_time": 56.349999999999994,
                "pitch": 40,
                "velocity": 51,
                "duration": 0.5045454545454504,
                "tempo": 120.0
            },
            {
                "start_time": 56.38409090909091,
                "end_time": 56.88409090909091,
                "pitch": 35,
                "velocity": 51,
                "duration": 0.5,
                "tempo": 120.0
            },
            {
                "start_time": 56.918181818181814,
                "end_time": 57.152272727272724,
                "pitch": 40,
                "velocity": 51,
                "duration": 0.23409090909090935,
                "tempo": 120.0
            },
            {
                "start_time": 57.18636363636363,
                "end_time": 57.42272727272727,
                "pitch": 35,
                "velocity": 51,
                "duration": 0.23636363636364166,
                "tempo": 120.0
            },
            {
                "start_time": 57.45681818181818,
                "end_time": 57.695454545454545,
                "pitch": 40,
                "velocity": 51,
                "duration": 0.23863636363636687,
                "tempo": 120.0
            },
            {
                "start_time": 57.72954545454545,
                "end_time": 57.96363636363636,
                "pitch": 35,
                "velocity": 51,
                "duration": 0.23409090909090935,
                "tempo": 120.0
            },
            {
                "start_time": 57.99545454545454,
                "end_time": 58.49772727272727,
                "pitch": 37,
                "velocity": 51,
                "duration": 0.5022727272727252,
                "tempo": 120.0
            },
            {
                "start_time": 58.52954545454545,
                "end_time": 59.03636363636363,
                "pitch": 32,
                "velocity": 51,
                "duration": 0.5068181818181827,
                "tempo": 120.0
            },
            {
                "start_time": 59.070454545454545,
                "end_time": 59.309090909090905,
                "pitch": 37,
                "velocity": 51,
                "duration": 0.23863636363635976,
                "tempo": 120.0
            },
            {
                "start_time": 59.340909090909086,
                "end_time": 59.574999999999996,
                "pitch": 37,
                "velocity": 51,
                "duration": 0.23409090909090935,
                "tempo": 120.0
            },
            {
                "start_time": 59.60909090909091,
                "end_time": 59.84318181818182,
                "pitch": 38,
                "velocity": 51,
                "duration": 0.23409090909090935,
                "tempo": 120.0
            },
            {
                "start_time": 59.877272727272725,
                "end_time": 60.11363636363636,
                "pitch": 40,
                "velocity": 51,
                "duration": 0.23636363636363455,
                "tempo": 120.0
            },
            {
                "start_time": 60.147727272727266,
                "end_time": 60.65454545454545,
                "pitch": 42,
                "velocity": 51,
                "duration": 0.5068181818181827,
                "tempo": 120.0
            },
            {
                "start_time": 60.68636363636363,
                "end_time": 61.054545454545455,
                "pitch": 42,
                "velocity": 51,
                "duration": 0.3681818181818244,
                "tempo": 120.0
            },
            {
                "start_time": 61.08863636363636,
                "end_time": 61.18863636363636,
                "pitch": 37,
                "velocity": 51,
                "duration": 0.10000000000000142,
                "tempo": 120.0
            },
            {
                "start_time": 61.22272727272727,
                "end_time": 61.45454545454545,
                "pitch": 42,
                "velocity": 51,
                "duration": 0.23181818181818414,
                "tempo": 120.0
            },
            {
                "start_time": 61.48863636363636,
                "end_time": 61.72727272727273,
                "pitch": 37,
                "velocity": 51,
                "duration": 0.23863636363636687,
                "tempo": 120.0
            },
            {
                "start_time": 61.76136363636363,
                "end_time": 62.0,
                "pitch": 42,
                "velocity": 51,
                "duration": 0.23863636363636687,
                "tempo": 120.0
            },
            {
                "start_time": 62.03181818181818,
                "end_time": 62.26590909090909,
                "pitch": 37,
                "velocity": 51,
                "duration": 0.23409090909090935,
                "tempo": 120.0
            },
            {
                "start_time": 62.3,
                "end_time": 62.8,
                "pitch": 38,
                "velocity": 51,
                "duration": 0.5,
                "tempo": 120.0
            },
            {
                "start_time": 62.834090909090904,
                "end_time": 63.336363636363636,
                "pitch": 35,
                "velocity": 51,
                "duration": 0.5022727272727323,
                "tempo": 120.0
            },
            {
                "start_time": 63.36818181818182,
                "end_time": 63.875,
                "pitch": 38,
                "velocity": 51,
                "duration": 0.5068181818181827,
                "tempo": 120.0
            },
            {
                "start_time": 63.90909090909091,
                "end_time": 64.14545454545454,
                "pitch": 35,
                "velocity": 51,
                "duration": 0.23636363636363455,
                "tempo": 120.0
            },
            {
                "start_time": 64.17954545454545,
                "end_time": 64.41363636363636,
                "pitch": 38,
                "velocity": 51,
                "duration": 0.23409090909090935,
                "tempo": 120.0
            },
            {
                "start_time": 64.44772727272726,
                "end_time": 64.94772727272726,
                "pitch": 40,
                "velocity": 51,
                "duration": 0.5,
                "tempo": 120.0
            },
            {
                "start_time": 64.98181818181818,
                "end_time": 65.48636363636363,
                "pitch": 35,
                "velocity": 51,
                "duration": 0.5045454545454504,
                "tempo": 120.0
            },
            {
                "start_time": 65.52045454545454,
                "end_time": 65.7590909090909,
                "pitch": 40,
                "velocity": 51,
                "duration": 0.23863636363635976,
                "tempo": 120.0
            },
            {
                "start_time": 65.79318181818182,
                "end_time": 66.02727272727273,
                "pitch": 35,
                "velocity": 51,
                "duration": 0.23409090909090935,
                "tempo": 120.0
            },
            {
                "start_time": 66.05909090909091,
                "end_time": 66.29318181818182,
                "pitch": 40,
                "velocity": 51,
                "duration": 0.23409090909090935,
                "tempo": 120.0
            },
            {
                "start_time": 66.32727272727273,
                "end_time": 66.56136363636364,
                "pitch": 35,
                "velocity": 51,
                "duration": 0.23409090909090935,
                "tempo": 120.0
            },
            {
                "start_time": 66.59318181818182,
                "end_time": 66.82727272727273,
                "pitch": 37,
                "velocity": 51,
                "duration": 0.23409090909090935,
                "tempo": 120.0
            },
            {
                "start_time": 66.86136363636363,
                "end_time": 67.1,
                "pitch": 37,
                "velocity": 51,
                "duration": 0.23863636363635976,
                "tempo": 120.0
            },
            {
                "start_time": 67.1340909090909,
                "end_time": 67.37045454545454,
                "pitch": 37,
                "velocity": 51,
                "duration": 0.23636363636363455,
                "tempo": 120.0
            },
            {
                "start_time": 67.40454545454546,
                "end_time": 67.50454545454545,
                "pitch": 38,
                "velocity": 51,
                "duration": 0.09999999999999432,
                "tempo": 120.0
            },
            {
                "start_time": 67.53863636363636,
                "end_time": 67.63863636363637,
                "pitch": 40,
                "velocity": 51,
                "duration": 0.10000000000000853,
                "tempo": 120.0
            }
        ],
        "Synth Bass 1": [
            {
                "start_time": 0.20454545454545453,
                "end_time": 0.4386363636363636,
                "pitch": 86,
                "velocity": 64,
                "duration": 0.23409090909090907,
                "tempo": 120.0
            },
            {
                "start_time": 2.0863636363636364,
                "end_time": 2.318181818181818,
                "pitch": 86,
                "velocity": 64,
                "duration": 0.23181818181818148,
                "tempo": 120.0
            },
            {
                "start_time": 2.352272727272727,
                "end_time": 2.590909090909091,
                "pitch": 86,
                "velocity": 64,
                "duration": 0.23863636363636376,
                "tempo": 120.0
            },
            {
                "start_time": 4.2318181818181815,
                "end_time": 4.465909090909091,
                "pitch": 86,
                "velocity": 64,
                "duration": 0.23409090909090935,
                "tempo": 120.0
            },
            {
                "start_time": 4.5,
                "end_time": 4.738636363636363,
                "pitch": 86,
                "velocity": 64,
                "duration": 0.2386363636363633,
                "tempo": 120.0
            },
            {
                "start_time": 6.384090909090909,
                "end_time": 6.622727272727272,
                "pitch": 86,
                "velocity": 64,
                "duration": 0.2386363636363633,
                "tempo": 120.0
            },
            {
                "start_time": 6.656818181818181,
                "end_time": 6.890909090909091,
                "pitch": 86,
                "velocity": 64,
                "duration": 0.23409090909090935,
                "tempo": 120.0
            },
            {
                "start_time": 8.536363636363635,
                "end_time": 8.770454545454545,
                "pitch": 86,
                "velocity": 64,
                "duration": 0.23409090909090935,
                "tempo": 120.0
            },
            {
                "start_time": 8.804545454545455,
                "end_time": 9.040909090909091,
                "pitch": 86,
                "velocity": 64,
                "duration": 0.23636363636363633,
                "tempo": 120.0
            },
            {
                "start_time": 10.688636363636363,
                "end_time": 10.927272727272726,
                "pitch": 86,
                "velocity": 64,
                "duration": 0.2386363636363633,
                "tempo": 120.0
            },
            {
                "start_time": 10.959090909090909,
                "end_time": 11.193181818181818,
                "pitch": 86,
                "velocity": 64,
                "duration": 0.23409090909090935,
                "tempo": 120.0
            },
            {
                "start_time": 12.836363636363636,
                "end_time": 13.072727272727272,
                "pitch": 86,
                "velocity": 64,
                "duration": 0.23636363636363633,
                "tempo": 120.0
            },
            {
                "start_time": 13.10681818181818,
                "end_time": 13.34090909090909,
                "pitch": 86,
                "velocity": 64,
                "duration": 0.23409090909090935,
                "tempo": 120.0
            },
            {
                "start_time": 16.31590909090909,
                "end_time": 17.377272727272725,
                "pitch": 58,
                "velocity": 64,
                "duration": 1.0613636363636338,
                "tempo": 120.0
            },
            {
                "start_time": 17.411363636363635,
                "end_time": 17.645454545454545,
                "pitch": 86,
                "velocity": 64,
                "duration": 0.23409090909090935,
                "tempo": 120.0
            },
            {
                "start_time": 17.677272727272726,
                "end_time": 17.911363636363635,
                "pitch": 81,
                "velocity": 64,
                "duration": 0.23409090909090935,
                "tempo": 120.0
            },
            {
                "start_time": 17.945454545454545,
                "end_time": 18.179545454545455,
                "pitch": 86,
                "velocity": 64,
                "duration": 0.23409090909090935,
                "tempo": 120.0
            },
            {
                "start_time": 18.345454545454544,
                "end_time": 18.581818181818182,
                "pitch": 86,
                "velocity": 64,
                "duration": 0.2363636363636381,
                "tempo": 120.0
            },
            {
                "start_time": 18.61590909090909,
                "end_time": 18.71818181818182,
                "pitch": 86,
                "velocity": 64,
                "duration": 0.10227272727273018,
                "tempo": 120.0
            },
            {
                "start_time": 18.752272727272725,
                "end_time": 18.99090909090909,
                "pitch": 81,
                "velocity": 64,
                "duration": 0.2386363636363633,
                "tempo": 120.0
            },
            {
                "start_time": 19.022727272727273,
                "end_time": 19.25681818181818,
                "pitch": 86,
                "velocity": 64,
                "duration": 0.2340909090909058,
                "tempo": 120.0
            },
            {
                "start_time": 19.29090909090909,
                "end_time": 19.525,
                "pitch": 88,
                "velocity": 64,
                "duration": 0.23409090909090935,
                "tempo": 120.0
            },
            {
                "start_time": 19.55909090909091,
                "end_time": 19.79090909090909,
                "pitch": 88,
                "velocity": 64,
                "duration": 0.2318181818181806,
                "tempo": 120.0
            },
            {
                "start_time": 19.825,
                "end_time": 20.05909090909091,
                "pitch": 81,
                "velocity": 64,
                "duration": 0.23409090909090935,
                "tempo": 120.0
            },
            {
                "start_time": 20.09318181818182,
                "end_time": 20.329545454545453,
                "pitch": 88,
                "velocity": 64,
                "duration": 0.23636363636363455,
                "tempo": 120.0
            },
            {
                "start_time": 20.5,
                "end_time": 20.736363636363635,
                "pitch": 88,
                "velocity": 64,
                "duration": 0.23636363636363455,
                "tempo": 120.0
            },
            {
                "start_time": 20.770454545454545,
                "end_time": 20.870454545454546,
                "pitch": 88,
                "velocity": 64,
                "duration": 0.10000000000000142,
                "tempo": 120.0
            },
            {
                "start_time": 20.904545454545453,
                "end_time": 21.136363636363637,
                "pitch": 81,
                "velocity": 64,
                "duration": 0.23181818181818414,
                "tempo": 120.0
            },
            {
                "start_time": 21.170454545454543,
                "end_time": 21.404545454545453,
                "pitch": 88,
                "velocity": 64,
                "duration": 0.23409090909090935,
                "tempo": 120.0
            },
            {
                "start_time": 21.438636363636363,
                "end_time": 21.672727272727272,
                "pitch": 88,
                "velocity": 64,
                "duration": 0.23409090909090935,
                "tempo": 120.0
            },
            {
                "start_time": 21.704545454545453,
                "end_time": 21.943181818181817,
                "pitch": 88,
                "velocity": 64,
                "duration": 0.2386363636363633,
                "tempo": 120.0
            },
            {
                "start_time": 21.977272727272727,
                "end_time": 22.21590909090909,
                "pitch": 81,
                "velocity": 64,
                "duration": 0.2386363636363633,
                "tempo": 120.0
            },
            {
                "start_time": 22.25,
                "end_time": 22.48181818181818,
                "pitch": 88,
                "velocity": 64,
                "duration": 0.2318181818181806,
                "tempo": 120.0
            },
            {
                "start_time": 22.65,
                "end_time": 22.884090909090908,
                "pitch": 88,
                "velocity": 64,
                "duration": 0.23409090909090935,
                "tempo": 120.0
            },
            {
                "start_time": 22.918181818181818,
                "end_time": 23.018181818181816,
                "pitch": 88,
                "velocity": 64,
                "duration": 0.09999999999999787,
                "tempo": 120.0
            },
            {
                "start_time": 23.049999999999997,
                "end_time": 23.284090909090907,
                "pitch": 81,
                "velocity": 64,
                "duration": 0.23409090909090935,
                "tempo": 120.0
            },
            {
                "start_time": 23.318181818181817,
                "end_time": 23.55681818181818,
                "pitch": 88,
                "velocity": 64,
                "duration": 0.2386363636363633,
                "tempo": 120.0
            },
            {
                "start_time": 23.59090909090909,
                "end_time": 23.827272727272724,
                "pitch": 86,
                "velocity": 64,
                "duration": 0.23636363636363455,
                "tempo": 120.0
            },
            {
                "start_time": 23.861363636363635,
                "end_time": 24.095454545454544,
                "pitch": 86,
                "velocity": 64,
                "duration": 0.23409090909090935,
                "tempo": 120.0
            },
            {
                "start_time": 24.129545454545454,
                "end_time": 24.363636363636363,
                "pitch": 81,
                "velocity": 64,
                "duration": 0.23409090909090935,
                "tempo": 120.0
            },
            {
                "start_time": 24.395454545454545,
                "end_time": 24.629545454545454,
                "pitch": 86,
                "velocity": 64,
                "duration": 0.23409090909090935,
                "tempo": 120.0
            },
            {
                "start_time": 24.797727272727272,
                "end_time": 25.03181818181818,
                "pitch": 86,
                "velocity": 64,
                "duration": 0.23409090909090935,
                "tempo": 120.0
            },
            {
                "start_time": 25.063636363636363,
                "end_time": 25.163636363636364,
                "pitch": 86,
                "velocity": 64,
                "duration": 0.10000000000000142,
                "tempo": 120.0
            },
            {
                "start_time": 25.19772727272727,
                "end_time": 25.43181818181818,
                "pitch": 81,
                "velocity": 64,
                "duration": 0.23409090909090935,
                "tempo": 120.0
            },
            {
                "start_time": 25.46590909090909,
                "end_time": 25.702272727272724,
                "pitch": 86,
                "velocity": 64,
                "duration": 0.23636363636363455,
                "tempo": 120.0
            },
            {
                "start_time": 25.736363636363635,
                "end_time": 25.974999999999998,
                "pitch": 86,
                "velocity": 64,
                "duration": 0.2386363636363633,
                "tempo": 120.0
            },
            {
                "start_time": 26.009090909090908,
                "end_time": 26.243181818181817,
                "pitch": 86,
                "velocity": 64,
                "duration": 0.23409090909090935,
                "tempo": 120.0
            },
            {
                "start_time": 26.277272727272727,
                "end_time": 26.509090909090908,
                "pitch": 81,
                "velocity": 64,
                "duration": 0.2318181818181806,
                "tempo": 120.0
            },
            {
                "start_time": 26.543181818181818,
                "end_time": 26.78181818181818,
                "pitch": 86,
                "velocity": 64,
                "duration": 0.2386363636363633,
                "tempo": 120.0
            },
            {
                "start_time": 26.952272727272724,
                "end_time": 27.186363636363634,
                "pitch": 86,
                "velocity": 64,
                "duration": 0.23409090909090935,
                "tempo": 120.0
            },
            {
                "start_time": 27.220454545454544,
                "end_time": 27.320454545454545,
                "pitch": 86,
                "velocity": 64,
                "duration": 0.10000000000000142,
                "tempo": 120.0
            },
            {
                "start_time": 27.354545454545452,
                "end_time": 27.58863636363636,
                "pitch": 81,
                "velocity": 64,
                "duration": 0.23409090909090935,
                "tempo": 120.0
            },
            {
                "start_time": 27.62272727272727,
                "end_time": 27.854545454545452,
                "pitch": 86,
                "velocity": 64,
                "duration": 0.2318181818181806,
                "tempo": 120.0
            },
            {
                "start_time": 27.888636363636362,
                "end_time": 28.12272727272727,
                "pitch": 88,
                "velocity": 64,
                "duration": 0.23409090909090935,
                "tempo": 120.0
            },
            {
                "start_time": 28.15681818181818,
                "end_time": 28.393181818181816,
                "pitch": 88,
                "velocity": 64,
                "duration": 0.23636363636363455,
                "tempo": 120.0
            },
            {
                "start_time": 28.427272727272726,
                "end_time": 28.66590909090909,
                "pitch": 81,
                "velocity": 64,
                "duration": 0.2386363636363633,
                "tempo": 120.0
            },
            {
                "start_time": 28.7,
                "end_time": 28.93409090909091,
                "pitch": 88,
                "velocity": 64,
                "duration": 0.23409090909090935,
                "tempo": 120.0
            },
            {
                "start_time": 29.099999999999998,
                "end_time": 29.334090909090907,
                "pitch": 88,
                "velocity": 64,
                "duration": 0.23409090909090935,
                "tempo": 120.0
            },
            {
                "start_time": 29.368181818181817,
                "end_time": 29.468181818181815,
                "pitch": 88,
                "velocity": 64,
                "duration": 0.09999999999999787,
                "tempo": 120.0
            },
            {
                "start_time": 29.502272727272725,
                "end_time": 29.736363636363635,
                "pitch": 81,
                "velocity": 64,
                "duration": 0.23409090909090935,
                "tempo": 120.0
            },
            {
                "start_time": 29.768181818181816,
                "end_time": 30.002272727272725,
                "pitch": 88,
                "velocity": 64,
                "duration": 0.23409090909090935,
                "tempo": 120.0
            },
            {
                "start_time": 30.036363636363635,
                "end_time": 30.270454545454545,
                "pitch": 88,
                "velocity": 64,
                "duration": 0.23409090909090935,
                "tempo": 120.0
            },
            {
                "start_time": 30.302272727272726,
                "end_time": 30.54090909090909,
                "pitch": 88,
                "velocity": 64,
                "duration": 0.2386363636363633,
                "tempo": 120.0
            },
            {
                "start_time": 30.575,
                "end_time": 30.813636363636363,
                "pitch": 81,
                "velocity": 64,
                "duration": 0.2386363636363633,
                "tempo": 120.0
            },
            {
                "start_time": 30.847727272727273,
                "end_time": 31.086363636363636,
                "pitch": 88,
                "velocity": 64,
                "duration": 0.2386363636363633,
                "tempo": 120.0
            },
            {
                "start_time": 31.254545454545454,
                "end_time": 31.49090909090909,
                "pitch": 88,
                "velocity": 64,
                "duration": 0.23636363636363455,
                "tempo": 120.0
            },
            {
                "start_time": 31.525,
                "end_time": 31.625,
                "pitch": 88,
                "velocity": 64,
                "duration": 0.10000000000000142,
                "tempo": 120.0
            },
            {
                "start_time": 31.659090909090907,
                "end_time": 31.893181818181816,
                "pitch": 81,
                "velocity": 64,
                "duration": 0.23409090909090935,
                "tempo": 120.0
            },
            {
                "start_time": 31.924999999999997,
                "end_time": 32.15909090909091,
                "pitch": 88,
                "velocity": 64,
                "duration": 0.23409090909090935,
                "tempo": 120.0
            },
            {
                "start_time": 32.19318181818182,
                "end_time": 32.42727272727272,
                "pitch": 86,
                "velocity": 64,
                "duration": 0.23409090909090224,
                "tempo": 120.0
            },
            {
                "start_time": 32.45909090909091,
                "end_time": 32.69318181818182,
                "pitch": 86,
                "velocity": 64,
                "duration": 0.23409090909090935,
                "tempo": 120.0
            },
            {
                "start_time": 32.72727272727273,
                "end_time": 32.961363636363636,
                "pitch": 81,
                "velocity": 64,
                "duration": 0.23409090909090935,
                "tempo": 120.0
            },
            {
                "start_time": 32.99545454545454,
                "end_time": 33.095454545454544,
                "pitch": 86,
                "velocity": 64,
                "duration": 0.10000000000000142,
                "tempo": 120.0
            },
            {
                "start_time": 33.12954545454545,
                "end_time": 33.23181818181818,
                "pitch": 86,
                "velocity": 64,
                "duration": 0.10227272727272663,
                "tempo": 120.0
            },
            {
                "start_time": 33.52045454545454,
                "end_time": 34.57272727272727,
                "pitch": 58,
                "velocity": 64,
                "duration": 1.0522727272727295,
                "tempo": 120.0
            },
            {
                "start_time": 34.60681818181818,
                "end_time": 34.845454545454544,
                "pitch": 86,
                "velocity": 64,
                "duration": 0.23863636363636687,
                "tempo": 120.0
            },
            {
                "start_time": 34.87954545454545,
                "end_time": 35.11818181818182,
                "pitch": 81,
                "velocity": 64,
                "duration": 0.23863636363636687,
                "tempo": 120.0
            },
            {
                "start_time": 35.15,
                "end_time": 35.38409090909091,
                "pitch": 86,
                "velocity": 64,
                "duration": 0.23409090909090935,
                "tempo": 120.0
            },
            {
                "start_time": 35.55227272727272,
                "end_time": 35.78636363636363,
                "pitch": 86,
                "velocity": 64,
                "duration": 0.23409090909090935,
                "tempo": 120.0
            },
            {
                "start_time": 35.81818181818181,
                "end_time": 35.918181818181814,
                "pitch": 86,
                "velocity": 64,
                "duration": 0.10000000000000142,
                "tempo": 120.0
            },
            {
                "start_time": 35.95227272727273,
                "end_time": 36.18636363636364,
                "pitch": 81,
                "velocity": 64,
                "duration": 0.23409090909090935,
                "tempo": 120.0
            },
            {
                "start_time": 36.220454545454544,
                "end_time": 36.45909090909091,
                "pitch": 86,
                "velocity": 64,
                "duration": 0.23863636363636687,
                "tempo": 120.0
            },
            {
                "start_time": 36.49090909090909,
                "end_time": 36.72954545454545,
                "pitch": 88,
                "velocity": 64,
                "duration": 0.23863636363635976,
                "tempo": 120.0
            },
            {
                "start_time": 36.76363636363636,
                "end_time": 36.99772727272727,
                "pitch": 88,
                "velocity": 64,
                "duration": 0.23409090909090935,
                "tempo": 120.0
            },
            {
                "start_time": 37.03181818181818,
                "end_time": 37.26363636363636,
                "pitch": 81,
                "velocity": 64,
                "duration": 0.23181818181817704,
                "tempo": 120.0
            },
            {
                "start_time": 37.29772727272727,
                "end_time": 37.53181818181818,
                "pitch": 88,
                "velocity": 64,
                "duration": 0.23409090909090935,
                "tempo": 120.0
            },
            {
                "start_time": 37.699999999999996,
                "end_time": 37.93181818181818,
                "pitch": 88,
                "velocity": 64,
                "duration": 0.23181818181818414,
                "tempo": 120.0
            },
            {
                "start_time": 37.965909090909086,
                "end_time": 38.06590909090909,
                "pitch": 88,
                "velocity": 64,
                "duration": 0.10000000000000142,
                "tempo": 120.0
            },
            {
                "start_time": 38.1,
                "end_time": 38.33409090909091,
                "pitch": 81,
                "velocity": 64,
                "duration": 0.23409090909090935,
                "tempo": 120.0
            },
            {
                "start_time": 38.36818181818182,
                "end_time": 38.60454545454545,
                "pitch": 88,
                "velocity": 64,
                "duration": 0.23636363636363455,
                "tempo": 120.0
            },
            {
                "start_time": 38.63863636363636,
                "end_time": 38.877272727272725,
                "pitch": 88,
                "velocity": 64,
                "duration": 0.23863636363636687,
                "tempo": 120.0
            },
            {
                "start_time": 38.91136363636363,
                "end_time": 39.14545454545454,
                "pitch": 88,
                "velocity": 64,
                "duration": 0.23409090909090935,
                "tempo": 120.0
            },
            {
                "start_time": 39.17727272727272,
                "end_time": 39.41136363636363,
                "pitch": 81,
                "velocity": 64,
                "duration": 0.23409090909090935,
                "tempo": 120.0
            },
            {
                "start_time": 39.445454545454545,
                "end_time": 39.684090909090905,
                "pitch": 88,
                "velocity": 64,
                "duration": 0.23863636363635976,
                "tempo": 120.0
            },
            {
                "start_time": 39.85227272727273,
                "end_time": 40.08863636363636,
                "pitch": 88,
                "velocity": 64,
                "duration": 0.23636363636363455,
                "tempo": 120.0
            },
            {
                "start_time": 40.12272727272727,
                "end_time": 40.22272727272727,
                "pitch": 88,
                "velocity": 64,
                "duration": 0.10000000000000142,
                "tempo": 120.0
            },
            {
                "start_time": 40.25681818181818,
                "end_time": 40.49090909090909,
                "pitch": 81,
                "velocity": 64,
                "duration": 0.23409090909090935,
                "tempo": 120.0
            },
            {
                "start_time": 40.52272727272727,
                "end_time": 40.76136363636363,
                "pitch": 88,
                "velocity": 64,
                "duration": 0.23863636363635976,
                "tempo": 120.0
            },
            {
                "start_time": 40.79545454545455,
                "end_time": 41.03409090909091,
                "pitch": 86,
                "velocity": 64,
                "duration": 0.23863636363635976,
                "tempo": 120.0
            },
            {
                "start_time": 41.06818181818181,
                "end_time": 41.30227272727272,
                "pitch": 86,
                "velocity": 64,
                "duration": 0.23409090909090935,
                "tempo": 120.0
            },
            {
                "start_time": 41.334090909090904,
                "end_time": 41.56818181818181,
                "pitch": 81,
                "velocity": 64,
                "duration": 0.23409090909090935,
                "tempo": 120.0
            },
            {
                "start_time": 41.60227272727273,
                "end_time": 41.836363636363636,
                "pitch": 86,
                "velocity": 64,
                "duration": 0.23409090909090935,
                "tempo": 120.0
            },
            {
                "start_time": 42.002272727272725,
                "end_time": 42.236363636363635,
                "pitch": 86,
                "velocity": 64,
                "duration": 0.23409090909090935,
                "tempo": 120.0
            },
            {
                "start_time": 42.27045454545454,
                "end_time": 42.37045454545454,
                "pitch": 86,
                "velocity": 64,
                "duration": 0.10000000000000142,
                "tempo": 120.0
            },
            {
                "start_time": 42.40454545454545,
                "end_time": 42.63636363636363,
                "pitch": 81,
                "velocity": 64,
                "duration": 0.23181818181818414,
                "tempo": 120.0
            },
            {
                "start_time": 42.67045454545455,
                "end_time": 42.90909090909091,
                "pitch": 86,
                "velocity": 64,
                "duration": 0.23863636363635976,
                "tempo": 120.0
            },
            {
                "start_time": 42.94318181818181,
                "end_time": 43.18181818181818,
                "pitch": 86,
                "velocity": 64,
                "duration": 0.23863636363636687,
                "tempo": 120.0
            },
            {
                "start_time": 43.21363636363636,
                "end_time": 43.44772727272727,
                "pitch": 86,
                "velocity": 64,
                "duration": 0.23409090909090935,
                "tempo": 120.0
            },
            {
                "start_time": 43.48181818181818,
                "end_time": 43.715909090909086,
                "pitch": 81,
                "velocity": 64,
                "duration": 0.23409090909090935,
                "tempo": 120.0
            },
            {
                "start_time": 43.75,
                "end_time": 43.98181818181818,
                "pitch": 86,
                "velocity": 64,
                "duration": 0.23181818181817704,
                "tempo": 120.0
            },
            {
                "start_time": 44.15,
                "end_time": 44.38636363636363,
                "pitch": 86,
                "velocity": 64,
                "duration": 0.23636363636363455,
                "tempo": 120.0
            },
            {
                "start_time": 44.42045454545455,
                "end_time": 44.52045454545454,
                "pitch": 86,
                "velocity": 64,
                "duration": 0.09999999999999432,
                "tempo": 120.0
            },
            {
                "start_time": 44.554545454545455,
                "end_time": 44.793181818181814,
                "pitch": 81,
                "velocity": 64,
                "duration": 0.23863636363635976,
                "tempo": 120.0
            },
            {
                "start_time": 44.82727272727273,
                "end_time": 45.06136363636364,
                "pitch": 86,
                "velocity": 64,
                "duration": 0.23409090909090935,
                "tempo": 120.0
            },
            {
                "start_time": 45.095454545454544,
                "end_time": 45.32727272727273,
                "pitch": 88,
                "velocity": 64,
                "duration": 0.23181818181818414,
                "tempo": 120.0
            },
            {
                "start_time": 45.361363636363635,
                "end_time": 45.595454545454544,
                "pitch": 88,
                "velocity": 64,
                "duration": 0.23409090909090935,
                "tempo": 120.0
            },
            {
                "start_time": 45.62954545454545,
                "end_time": 45.86363636363636,
                "pitch": 81,
                "velocity": 64,
                "duration": 0.23409090909090935,
                "tempo": 120.0
            },
            {
                "start_time": 45.89545454545454,
                "end_time": 46.12954545454545,
                "pitch": 88,
                "velocity": 64,
                "duration": 0.23409090909090935,
                "tempo": 120.0
            },
            {
                "start_time": 46.29772727272727,
                "end_time": 46.53181818181818,
                "pitch": 88,
                "velocity": 64,
                "duration": 0.23409090909090935,
                "tempo": 120.0
            },
            {
                "start_time": 46.56590909090909,
                "end_time": 46.668181818181814,
                "pitch": 88,
                "velocity": 64,
                "duration": 0.10227272727272663,
                "tempo": 120.0
            },
            {
                "start_time": 46.70227272727273,
                "end_time": 46.94090909090909,
                "pitch": 81,
                "velocity": 64,
                "duration": 0.23863636363635976,
                "tempo": 120.0
            },
            {
                "start_time": 46.974999999999994,
                "end_time": 47.209090909090904,
                "pitch": 88,
                "velocity": 64,
                "duration": 0.23409090909090935,
                "tempo": 120.0
            },
            {
                "start_time": 47.24090909090909,
                "end_time": 47.474999999999994,
                "pitch": 88,
                "velocity": 64,
                "duration": 0.23409090909090224,
                "tempo": 120.0
            },
            {
                "start_time": 47.50909090909091,
                "end_time": 47.74772727272727,
                "pitch": 88,
                "velocity": 64,
                "duration": 0.23863636363635976,
                "tempo": 120.0
            },
            {
                "start_time": 47.78181818181818,
                "end_time": 48.018181818181816,
                "pitch": 81,
                "velocity": 64,
                "duration": 0.23636363636363455,
                "tempo": 120.0
            },
            {
                "start_time": 48.05227272727272,
                "end_time": 48.28636363636363,
                "pitch": 88,
                "velocity": 64,
                "duration": 0.23409090909090935,
                "tempo": 120.0
            },
            {
                "start_time": 48.45454545454545,
                "end_time": 48.68636363636364,
                "pitch": 88,
                "velocity": 64,
                "duration": 0.23181818181818414,
                "tempo": 120.0
            },
            {
                "start_time": 48.720454545454544,
                "end_time": 48.820454545454545,
                "pitch": 88,
                "velocity": 64,
                "duration": 0.10000000000000142,
                "tempo": 120.0
            },
            {
                "start_time": 48.85454545454545,
                "end_time": 49.08863636363636,
                "pitch": 81,
                "velocity": 64,
                "duration": 0.23409090909090935,
                "tempo": 120.0
            },
            {
                "start_time": 49.12272727272727,
                "end_time": 49.35909090909091,
                "pitch": 88,
                "velocity": 64,
                "duration": 0.23636363636364166,
                "tempo": 120.0
            },
            {
                "start_time": 49.393181818181816,
                "end_time": 49.63181818181818,
                "pitch": 86,
                "velocity": 64,
                "duration": 0.23863636363636687,
                "tempo": 120.0
            },
            {
                "start_time": 49.66590909090909,
                "end_time": 50.16590909090909,
                "pitch": 86,
                "velocity": 64,
                "duration": 0.5,
                "tempo": 120.0
            },
            {
                "start_time": 50.199999999999996,
                "end_time": 50.434090909090905,
                "pitch": 93,
                "velocity": 64,
                "duration": 0.23409090909090935,
                "tempo": 120.0
            },
            {
                "start_time": 50.465909090909086,
                "end_time": 50.699999999999996,
                "pitch": 86,
                "velocity": 64,
                "duration": 0.23409090909090935,
                "tempo": 120.0
            },
            {
                "start_time": 50.71818181818182,
                "end_time": 51.77954545454545,
                "pitch": 58,
                "velocity": 64,
                "duration": 1.0613636363636303,
                "tempo": 120.0
            },
            {
                "start_time": 51.81363636363636,
                "end_time": 52.04545454545454,
                "pitch": 91,
                "velocity": 64,
                "duration": 0.23181818181817704,
                "tempo": 120.0
            },
            {
                "start_time": 52.07954545454545,
                "end_time": 52.31363636363636,
                "pitch": 90,
                "velocity": 64,
                "duration": 0.23409090909090935,
                "tempo": 120.0
            },
            {
                "start_time": 52.34772727272727,
                "end_time": 52.584090909090904,
                "pitch": 88,
                "velocity": 64,
                "duration": 0.23636363636363455,
                "tempo": 120.0
            },
            {
                "start_time": 52.61818181818182,
                "end_time": 52.85681818181818,
                "pitch": 90,
                "velocity": 64,
                "duration": 0.23863636363635976,
                "tempo": 120.0
            },
            {
                "start_time": 52.89090909090909,
                "end_time": 53.125,
                "pitch": 88,
                "velocity": 64,
                "duration": 0.23409090909090935,
                "tempo": 120.0
            },
            {
                "start_time": 53.15909090909091,
                "end_time": 53.39090909090909,
                "pitch": 86,
                "velocity": 64,
                "duration": 0.23181818181818414,
                "tempo": 120.0
            },
            {
                "start_time": 53.425,
                "end_time": 53.663636363636364,
                "pitch": 88,
                "velocity": 64,
                "duration": 0.23863636363636687,
                "tempo": 120.0
            },
            {
                "start_time": 53.69772727272727,
                "end_time": 53.93636363636363,
                "pitch": 86,
                "velocity": 64,
                "duration": 0.23863636363635976,
                "tempo": 120.0
            },
            {
                "start_time": 53.96818181818182,
                "end_time": 54.20227272727273,
                "pitch": 88,
                "velocity": 64,
                "duration": 0.23409090909090935,
                "tempo": 120.0
            },
            {
                "start_time": 54.236363636363635,
                "end_time": 54.470454545454544,
                "pitch": 90,
                "velocity": 64,
                "duration": 0.23409090909090935,
                "tempo": 120.0
            },
            {
                "start_time": 54.50454545454545,
                "end_time": 54.736363636363635,
                "pitch": 88,
                "velocity": 64,
                "duration": 0.23181818181818414,
                "tempo": 120.0
            },
            {
                "start_time": 54.77045454545454,
                "end_time": 55.00454545454545,
                "pitch": 86,
                "velocity": 64,
                "duration": 0.23409090909090935,
                "tempo": 120.0
            },
            {
                "start_time": 55.038636363636364,
                "end_time": 55.27272727272727,
                "pitch": 85,
                "velocity": 64,
                "duration": 0.23409090909090935,
                "tempo": 120.0
            },
            {
                "start_time": 55.304545454545455,
                "end_time": 55.538636363636364,
                "pitch": 86,
                "velocity": 64,
                "duration": 0.23409090909090935,
                "tempo": 120.0
            },
            {
                "start_time": 55.57272727272727,
                "end_time": 55.81136363636363,
                "pitch": 85,
                "velocity": 64,
                "duration": 0.23863636363635976,
                "tempo": 120.0
            },
            {
                "start_time": 55.845454545454544,
                "end_time": 56.08181818181818,
                "pitch": 88,
                "velocity": 64,
                "duration": 0.23636363636363455,
                "tempo": 120.0
            },
            {
                "start_time": 56.115909090909085,
                "end_time": 56.349999999999994,
                "pitch": 90,
                "velocity": 64,
                "duration": 0.23409090909090935,
                "tempo": 120.0
            },
            {
                "start_time": 56.38409090909091,
                "end_time": 56.61818181818182,
                "pitch": 88,
                "velocity": 64,
                "duration": 0.23409090909090935,
                "tempo": 120.0
            },
            {
                "start_time": 56.65,
                "end_time": 56.88409090909091,
                "pitch": 86,
                "velocity": 64,
                "duration": 0.23409090909090935,
                "tempo": 120.0
            },
            {
                "start_time": 56.918181818181814,
                "end_time": 57.152272727272724,
                "pitch": 88,
                "velocity": 64,
                "duration": 0.23409090909090935,
                "tempo": 120.0
            },
            {
                "start_time": 57.18636363636363,
                "end_time": 57.42272727272727,
                "pitch": 86,
                "velocity": 64,
                "duration": 0.23636363636364166,
                "tempo": 120.0
            },
            {
                "start_time": 57.45681818181818,
                "end_time": 57.695454545454545,
                "pitch": 85,
                "velocity": 64,
                "duration": 0.23863636363636687,
                "tempo": 120.0
            },
            {
                "start_time": 57.72954545454545,
                "end_time": 57.96363636363636,
                "pitch": 86,
                "velocity": 64,
                "duration": 0.23409090909090935,
                "tempo": 120.0
            },
            {
                "start_time": 57.99545454545454,
                "end_time": 58.22954545454545,
                "pitch": 85,
                "velocity": 64,
                "duration": 0.23409090909090935,
                "tempo": 120.0
            },
            {
                "start_time": 58.26363636363636,
                "end_time": 58.49772727272727,
                "pitch": 85,
                "velocity": 64,
                "duration": 0.23409090909090935,
                "tempo": 120.0
            },
            {
                "start_time": 58.52954545454545,
                "end_time": 58.76363636363636,
                "pitch": 86,
                "velocity": 64,
                "duration": 0.23409090909090935,
                "tempo": 120.0
            },
            {
                "start_time": 58.79772727272727,
                "end_time": 59.03636363636363,
                "pitch": 86,
                "velocity": 64,
                "duration": 0.23863636363635976,
                "tempo": 120.0
            },
            {
                "start_time": 59.070454545454545,
                "end_time": 59.309090909090905,
                "pitch": 88,
                "velocity": 64,
                "duration": 0.23863636363635976,
                "tempo": 120.0
            },
            {
                "start_time": 59.340909090909086,
                "end_time": 59.574999999999996,
                "pitch": 86,
                "velocity": 64,
                "duration": 0.23409090909090935,
                "tempo": 120.0
            },
            {
                "start_time": 59.60909090909091,
                "end_time": 59.84318181818182,
                "pitch": 88,
                "velocity": 64,
                "duration": 0.23409090909090935,
                "tempo": 120.0
            },
            {
                "start_time": 59.877272727272725,
                "end_time": 60.11363636363636,
                "pitch": 88,
                "velocity": 64,
                "duration": 0.23636363636363455,
                "tempo": 120.0
            },
            {
                "start_time": 60.147727272727266,
                "end_time": 60.38636363636363,
                "pitch": 90,
                "velocity": 64,
                "duration": 0.23863636363636687,
                "tempo": 120.0
            },
            {
                "start_time": 60.42045454545454,
                "end_time": 60.65454545454545,
                "pitch": 91,
                "velocity": 64,
                "duration": 0.23409090909090935,
                "tempo": 120.0
            },
            {
                "start_time": 60.68636363636363,
                "end_time": 60.92045454545454,
                "pitch": 90,
                "velocity": 64,
                "duration": 0.23409090909090935,
                "tempo": 120.0
            },
            {
                "start_time": 60.95454545454545,
                "end_time": 61.18863636363636,
                "pitch": 88,
                "velocity": 64,
                "duration": 0.23409090909090935,
                "tempo": 120.0
            },
            {
                "start_time": 61.22272727272727,
                "end_time": 61.45454545454545,
                "pitch": 90,
                "velocity": 64,
                "duration": 0.23181818181818414,
                "tempo": 120.0
            },
            {
                "start_time": 61.48863636363636,
                "end_time": 61.72727272727273,
                "pitch": 88,
                "velocity": 64,
                "duration": 0.23863636363636687,
                "tempo": 120.0
            },
            {
                "start_time": 61.76136363636363,
                "end_time": 62.0,
                "pitch": 86,
                "velocity": 64,
                "duration": 0.23863636363636687,
                "tempo": 120.0
            },
            {
                "start_time": 62.03181818181818,
                "end_time": 62.26590909090909,
                "pitch": 88,
                "velocity": 64,
                "duration": 0.23409090909090935,
                "tempo": 120.0
            },
            {
                "start_time": 62.3,
                "end_time": 62.53409090909091,
                "pitch": 86,
                "velocity": 64,
                "duration": 0.23409090909090935,
                "tempo": 120.0
            },
            {
                "start_time": 62.56818181818181,
                "end_time": 62.8,
                "pitch": 88,
                "velocity": 64,
                "duration": 0.23181818181818414,
                "tempo": 120.0
            },
            {
                "start_time": 62.834090909090904,
                "end_time": 63.06818181818181,
                "pitch": 90,
                "velocity": 64,
                "duration": 0.23409090909090935,
                "tempo": 120.0
            },
            {
                "start_time": 63.10227272727273,
                "end_time": 63.336363636363636,
                "pitch": 88,
                "velocity": 64,
                "duration": 0.23409090909090935,
                "tempo": 120.0
            },
            {
                "start_time": 63.36818181818182,
                "end_time": 63.60227272727273,
                "pitch": 86,
                "velocity": 64,
                "duration": 0.23409090909090935,
                "tempo": 120.0
            },
            {
                "start_time": 63.63636363636363,
                "end_time": 63.875,
                "pitch": 85,
                "velocity": 64,
                "duration": 0.23863636363636687,
                "tempo": 120.0
            },
            {
                "start_time": 63.90909090909091,
                "end_time": 64.14545454545454,
                "pitch": 86,
                "velocity": 64,
                "duration": 0.23636363636363455,
                "tempo": 120.0
            },
            {
                "start_time": 64.17954545454545,
                "end_time": 64.41363636363636,
                "pitch": 85,
                "velocity": 64,
                "duration": 0.23409090909090935,
                "tempo": 120.0
            },
            {
                "start_time": 64.44772727272726,
                "end_time": 64.68181818181817,
                "pitch": 88,
                "velocity": 64,
                "duration": 0.23409090909090935,
                "tempo": 120.0
            },
            {
                "start_time": 64.71363636363635,
                "end_time": 64.94772727272726,
                "pitch": 90,
                "velocity": 64,
                "duration": 0.23409090909090935,
                "tempo": 120.0
            },
            {
                "start_time": 64.98181818181818,
                "end_time": 65.2159090909091,
                "pitch": 88,
                "velocity": 64,
                "duration": 0.23409090909090935,
                "tempo": 120.0
            },
            {
                "start_time": 65.24772727272727,
                "end_time": 65.48636363636363,
                "pitch": 86,
                "velocity": 64,
                "duration": 0.23863636363635976,
                "tempo": 120.0
            },
            {
                "start_time": 65.52045454545454,
                "end_time": 65.7590909090909,
                "pitch": 88,
                "velocity": 64,
                "duration": 0.23863636363635976,
                "tempo": 120.0
            },
            {
                "start_time": 65.79318181818182,
                "end_time": 66.02727272727273,
                "pitch": 86,
                "velocity": 64,
                "duration": 0.23409090909090935,
                "tempo": 120.0
            },
            {
                "start_time": 66.05909090909091,
                "end_time": 66.29318181818182,
                "pitch": 85,
                "velocity": 64,
                "duration": 0.23409090909090935,
                "tempo": 120.0
            },
            {
                "start_time": 66.32727272727273,
                "end_time": 66.56136363636364,
                "pitch": 86,
                "velocity": 64,
                "duration": 0.23409090909090935,
                "tempo": 120.0
            },
            {
                "start_time": 66.59318181818182,
                "end_time": 66.82727272727273,
                "pitch": 85,
                "velocity": 64,
                "duration": 0.23409090909090935,
                "tempo": 120.0
            },
            {
                "start_time": 66.86136363636363,
                "end_time": 67.1,
                "pitch": 85,
                "velocity": 64,
                "duration": 0.23863636363635976,
                "tempo": 120.0
            },
            {
                "start_time": 67.1340909090909,
                "end_time": 67.37045454545454,
                "pitch": 86,
                "velocity": 64,
                "duration": 0.23636363636363455,
                "tempo": 120.0
            },
            {
                "start_time": 67.40454545454546,
                "end_time": 67.63863636363637,
                "pitch": 88,
                "velocity": 64,
                "duration": 0.23409090909090935,
                "tempo": 120.0
            },
            {
                "start_time": 67.67272727272727,
                "end_time": 67.90681818181818,
                "pitch": 88,
                "velocity": 64,
                "duration": 0.23409090909090935,
                "tempo": 120.0
            }
        ],
        "Acoustic Guitar (nylon)": [
            {
                "start_time": 17.134090909090908,
                "end_time": 33.538636363636364,
                "pitch": 86,
                "velocity": 64,
                "duration": 16.404545454545456,
                "tempo": 120.0
            },
            {
                "start_time": 33.538636363636364,
                "end_time": 33.62272727272727,
                "pitch": 58,
                "velocity": 64,
                "duration": 0.08409090909090366,
                "tempo": 120.0
            },
            {
                "start_time": 33.62272727272727,
                "end_time": 33.654545454545456,
                "pitch": 55,
                "velocity": 64,
                "duration": 0.03181818181818841,
                "tempo": 120.0
            },
            {
                "start_time": 33.654545454545456,
                "end_time": 33.72272727272727,
                "pitch": 55,
                "velocity": 64,
                "duration": 0.06818181818181301,
                "tempo": 120.0
            },
            {
                "start_time": 33.72272727272727,
                "end_time": 33.788636363636364,
                "pitch": 53,
                "velocity": 64,
                "duration": 0.06590909090909491,
                "tempo": 120.0
            },
            {
                "start_time": 33.788636363636364,
                "end_time": 33.87272727272727,
                "pitch": 58,
                "velocity": 64,
                "duration": 0.08409090909090366,
                "tempo": 120.0
            },
            {
                "start_time": 33.87272727272727,
                "end_time": 33.92272727272727,
                "pitch": 56,
                "velocity": 64,
                "duration": 0.05000000000000426,
                "tempo": 120.0
            },
            {
                "start_time": 33.92272727272727,
                "end_time": 33.98863636363636,
                "pitch": 55,
                "velocity": 64,
                "duration": 0.06590909090908781,
                "tempo": 120.0
            },
            {
                "start_time": 33.98863636363636,
                "end_time": 34.05681818181818,
                "pitch": 53,
                "velocity": 64,
                "duration": 0.06818181818182012,
                "tempo": 120.0
            },
            {
                "start_time": 34.05681818181818,
                "end_time": 34.17272727272727,
                "pitch": 52,
                "velocity": 64,
                "duration": 0.11590909090909207,
                "tempo": 120.0
            },
            {
                "start_time": 34.17272727272727,
                "end_time": 34.27272727272727,
                "pitch": 50,
                "velocity": 64,
                "duration": 0.10000000000000142,
                "tempo": 120.0
            },
            {
                "start_time": 34.27272727272727,
                "end_time": 34.32272727272727,
                "pitch": 48,
                "velocity": 64,
                "duration": 0.04999999999999716,
                "tempo": 120.0
            },
            {
                "start_time": 34.340909090909086,
                "end_time": 50.73409090909091,
                "pitch": 86,
                "velocity": 64,
                "duration": 16.393181818181823,
                "tempo": 120.0
            },
            {
                "start_time": 50.73409090909091,
                "end_time": 50.78636363636363,
                "pitch": 57,
                "velocity": 64,
                "duration": 0.052272727272722364,
                "tempo": 120.0
            },
            {
                "start_time": 50.78636363636363,
                "end_time": 50.820454545454545,
                "pitch": 54,
                "velocity": 64,
                "duration": 0.03409090909091361,
                "tempo": 120.0
            },
            {
                "start_time": 50.820454545454545,
                "end_time": 50.85227272727273,
                "pitch": 52,
                "velocity": 64,
                "duration": 0.0318181818181813,
                "tempo": 120.0
            },
            {
                "start_time": 50.85227272727273,
                "end_time": 50.90454545454545,
                "pitch": 58,
                "velocity": 64,
                "duration": 0.052272727272722364,
                "tempo": 120.0
            },
            {
                "start_time": 50.90454545454545,
                "end_time": 50.92045454545454,
                "pitch": 55,
                "velocity": 64,
                "duration": 0.01590909090909065,
                "tempo": 120.0
            },
            {
                "start_time": 50.92045454545454,
                "end_time": 50.95454545454545,
                "pitch": 54,
                "velocity": 64,
                "duration": 0.03409090909091361,
                "tempo": 120.0
            },
            {
                "start_time": 50.95454545454545,
                "end_time": 50.98863636363636,
                "pitch": 52,
                "velocity": 64,
                "duration": 0.03409090909090651,
                "tempo": 120.0
            },
            {
                "start_time": 50.98863636363636,
                "end_time": 51.00681818181818,
                "pitch": 55,
                "velocity": 64,
                "duration": 0.018181818181822962,
                "tempo": 120.0
            },
            {
                "start_time": 51.00681818181818,
                "end_time": 51.074999999999996,
                "pitch": 54,
                "velocity": 64,
                "duration": 0.06818181818181301,
                "tempo": 120.0
            },
            {
                "start_time": 51.074999999999996,
                "end_time": 51.143181818181816,
                "pitch": 52,
                "velocity": 64,
                "duration": 0.06818181818182012,
                "tempo": 120.0
            },
            {
                "start_time": 51.143181818181816,
                "end_time": 51.19318181818181,
                "pitch": 50,
                "velocity": 64,
                "duration": 0.04999999999999716,
                "tempo": 120.0
            },
            {
                "start_time": 51.19318181818181,
                "end_time": 51.24545454545454,
                "pitch": 48,
                "velocity": 64,
                "duration": 0.05227272727272947,
                "tempo": 120.0
            },
            {
                "start_time": 51.24545454545454,
                "end_time": 51.26136363636363,
                "pitch": 46,
                "velocity": 64,
                "duration": 0.01590909090909065,
                "tempo": 120.0
            },
            {
                "start_time": 51.26136363636363,
                "end_time": 51.377272727272725,
                "pitch": 52,
                "velocity": 64,
                "duration": 0.11590909090909207,
                "tempo": 120.0
            },
            {
                "start_time": 51.377272727272725,
                "end_time": 51.47954545454545,
                "pitch": 50,
                "velocity": 64,
                "duration": 0.10227272727272663,
                "tempo": 120.0
            },
            {
                "start_time": 51.47954545454545,
                "end_time": 51.52954545454545,
                "pitch": 48,
                "velocity": 64,
                "duration": 0.04999999999999716,
                "tempo": 120.0
            },
            {
                "start_time": 51.54545454545454,
                "end_time": 67.93863636363636,
                "pitch": 90,
                "velocity": 64,
                "duration": 16.393181818181823,
                "tempo": 120.0
            },
            {
                "start_time": 67.93863636363636,
                "end_time": 67.98863636363636,
                "pitch": 57,
                "velocity": 64,
                "duration": 0.04999999999999716,
                "tempo": 120.0
            },
            {
                "start_time": 67.98863636363636,
                "end_time": 68.02272727272727,
                "pitch": 54,
                "velocity": 64,
                "duration": 0.03409090909090651,
                "tempo": 120.0
            },
            {
                "start_time": 68.02272727272727,
                "end_time": 68.05681818181817,
                "pitch": 52,
                "velocity": 64,
                "duration": 0.03409090909090651,
                "tempo": 120.0
            },
            {
                "start_time": 68.05681818181817,
                "end_time": 68.10681818181818,
                "pitch": 58,
                "velocity": 64,
                "duration": 0.05000000000001137,
                "tempo": 120.0
            },
            {
                "start_time": 68.10681818181818,
                "end_time": 68.12272727272727,
                "pitch": 55,
                "velocity": 64,
                "duration": 0.01590909090909065,
                "tempo": 120.0
            },
            {
                "start_time": 68.12272727272727,
                "end_time": 68.15681818181818,
                "pitch": 54,
                "velocity": 64,
                "duration": 0.03409090909090651,
                "tempo": 120.0
            },
            {
                "start_time": 68.15681818181818,
                "end_time": 68.19090909090909,
                "pitch": 52,
                "velocity": 64,
                "duration": 0.03409090909090651,
                "tempo": 120.0
            },
            {
                "start_time": 68.19090909090909,
                "end_time": 68.20681818181818,
                "pitch": 55,
                "velocity": 64,
                "duration": 0.01590909090909065,
                "tempo": 120.0
            },
            {
                "start_time": 68.20681818181818,
                "end_time": 68.24090909090908,
                "pitch": 54,
                "velocity": 64,
                "duration": 0.03409090909090651,
                "tempo": 120.0
            },
            {
                "start_time": 68.24090909090908,
                "end_time": 68.27272727272727,
                "pitch": 52,
                "velocity": 64,
                "duration": 0.0318181818181813,
                "tempo": 120.0
            },
            {
                "start_time": 68.27272727272727,
                "end_time": 68.30681818181817,
                "pitch": 49,
                "velocity": 64,
                "duration": 0.03409090909090651,
                "tempo": 120.0
            },
            {
                "start_time": 68.30681818181817,
                "end_time": 68.32272727272726,
                "pitch": 46,
                "velocity": 64,
                "duration": 0.01590909090909065,
                "tempo": 120.0
            },
            {
                "start_time": 68.32272727272726,
                "end_time": 68.3409090909091,
                "pitch": 55,
                "velocity": 64,
                "duration": 0.018181818181830067,
                "tempo": 120.0
            },
            {
                "start_time": 68.3409090909091,
                "end_time": 68.37272727272727,
                "pitch": 54,
                "velocity": 64,
                "duration": 0.0318181818181813,
                "tempo": 120.0
            },
            {
                "start_time": 68.37272727272727,
                "end_time": 68.40681818181818,
                "pitch": 52,
                "velocity": 64,
                "duration": 0.03409090909090651,
                "tempo": 120.0
            },
            {
                "start_time": 68.40681818181818,
                "end_time": 68.44090909090909,
                "pitch": 49,
                "velocity": 64,
                "duration": 0.03409090909090651,
                "tempo": 120.0
            },
            {
                "start_time": 68.44090909090909,
                "end_time": 68.45681818181818,
                "pitch": 46,
                "velocity": 64,
                "duration": 0.01590909090909065,
                "tempo": 120.0
            },
            {
                "start_time": 68.45681818181818,
                "end_time": 68.575,
                "pitch": 52,
                "velocity": 64,
                "duration": 0.11818181818182438,
                "tempo": 120.0
            },
            {
                "start_time": 68.575,
                "end_time": 68.675,
                "pitch": 50,
                "velocity": 64,
                "duration": 0.09999999999999432,
                "tempo": 120.0
            },
            {
                "start_time": 68.675,
                "end_time": 68.725,
                "pitch": 48,
                "velocity": 64,
                "duration": 0.04999999999999716,
                "tempo": 120.0
            }
        ]
    }
}