{
    "track_id": "Fantasy Zone II (FM) - 07 - Fuwareak",
    "mood": "happy",
    "instruments": {
        "Lead 2 (sawtooth)": [
            {
                "start_time": 7.368181818181818,
                "end_time": 7.470454545454545,
                "pitch": 73,
                "velocity": 64,
                "duration": 0.10227272727272663,
                "tempo": 120.0
            },
            {
                "start_time": 7.5204545454545455,
                "end_time": 7.620454545454545,
                "pitch": 73,
                "velocity": 64,
                "duration": 0.09999999999999964,
                "tempo": 120.0
            },
            {
                "start_time": 7.670454545454545,
                "end_time": 7.920454545454545,
                "pitch": 74,
                "velocity": 64,
                "duration": 0.25,
                "tempo": 120.0
            },
            {
                "start_time": 7.970454545454545,
                "end_time": 8.070454545454545,
                "pitch": 76,
                "velocity": 64,
                "duration": 0.10000000000000053,
                "tempo": 120.0
            },
            {
                "start_time": 8.120454545454544,
                "end_time": 8.222727272727273,
                "pitch": 81,
                "velocity": 64,
                "duration": 0.1022727272727284,
                "tempo": 120.0
            },
            {
                "start_time": 8.272727272727272,
                "end_time": 8.825,
                "pitch": 79,
                "velocity": 64,
                "duration": 0.5522727272727277,
                "tempo": 120.0
            },
            {
                "start_time": 8.875,
                "end_time": 9.643181818181818,
                "pitch": 78,
                "velocity": 64,
                "duration": 0.7681818181818176,
                "tempo": 120.0
            },
            {
                "start_time": 9.643181818181818,
                "end_time": 9.725,
                "pitch": 73,
                "velocity": 64,
                "duration": 0.08181818181818201,
                "tempo": 120.0
            },
            {
                "start_time": 9.775,
                "end_time": 9.875,
                "pitch": 73,
                "velocity": 64,
                "duration": 0.09999999999999964,
                "tempo": 120.0
            },
            {
                "start_time": 9.924999999999999,
                "end_time": 10.025,
                "pitch": 73,
                "velocity": 64,
                "duration": 0.10000000000000142,
                "tempo": 120.0
            },
            {
                "start_time": 10.075,
                "end_time": 10.325,
                "pitch": 74,
                "velocity": 64,
                "duration": 0.25,
                "tempo": 120.0
            },
            {
                "start_time": 10.375,
                "end_time": 10.477272727272727,
                "pitch": 76,
                "velocity": 64,
                "duration": 0.10227272727272663,
                "tempo": 120.0
            },
            {
                "start_time": 10.527272727272727,
                "end_time": 10.627272727272727,
                "pitch": 81,
                "velocity": 64,
                "duration": 0.09999999999999964,
                "tempo": 120.0
            },
            {
                "start_time": 10.677272727272726,
                "end_time": 11.23181818181818,
                "pitch": 79,
                "velocity": 64,
                "duration": 0.5545454545454547,
                "tempo": 120.0
            },
            {
                "start_time": 11.281818181818181,
                "end_time": 12.047727272727272,
                "pitch": 78,
                "velocity": 64,
                "duration": 0.7659090909090907,
                "tempo": 120.0
            },
            {
                "start_time": 12.047727272727272,
                "end_time": 12.131818181818181,
                "pitch": 73,
                "velocity": 64,
                "duration": 0.084090909090909,
                "tempo": 120.0
            },
            {
                "start_time": 12.181818181818182,
                "end_time": 12.281818181818181,
                "pitch": 73,
                "velocity": 64,
                "duration": 0.09999999999999964,
                "tempo": 120.0
            },
            {
                "start_time": 12.331818181818182,
                "end_time": 12.431818181818182,
                "pitch": 73,
                "velocity": 64,
                "duration": 0.09999999999999964,
                "tempo": 120.0
            },
            {
                "start_time": 12.48181818181818,
                "end_time": 12.73181818181818,
                "pitch": 74,
                "velocity": 64,
                "duration": 0.25,
                "tempo": 120.0
            },
            {
                "start_time": 12.781818181818181,
                "end_time": 12.881818181818181,
                "pitch": 76,
                "velocity": 64,
                "duration": 0.09999999999999964,
                "tempo": 120.0
            },
            {
                "start_time": 12.931818181818182,
                "end_time": 13.031818181818181,
                "pitch": 81,
                "velocity": 64,
                "duration": 0.09999999999999964,
                "tempo": 120.0
            },
            {
                "start_time": 13.081818181818182,
                "end_time": 13.634090909090908,
                "pitch": 79,
                "velocity": 64,
                "duration": 0.5522727272727259,
                "tempo": 120.0
            },
            {
                "start_time": 13.684090909090909,
                "end_time": 14.454545454545453,
                "pitch": 78,
                "velocity": 64,
                "duration": 0.7704545454545446,
                "tempo": 120.0
            },
            {
                "start_time": 14.454545454545453,
                "end_time": 14.688636363636363,
                "pitch": 72,
                "velocity": 64,
                "duration": 0.23409090909090935,
                "tempo": 120.0
            },
            {
                "start_time": 14.738636363636363,
                "end_time": 14.838636363636363,
                "pitch": 74,
                "velocity": 64,
                "duration": 0.09999999999999964,
                "tempo": 120.0
            },
            {
                "start_time": 14.888636363636364,
                "end_time": 14.988636363636363,
                "pitch": 76,
                "velocity": 64,
                "duration": 0.09999999999999964,
                "tempo": 120.0
            },
            {
                "start_time": 15.038636363636362,
                "end_time": 15.288636363636362,
                "pitch": 74,
                "velocity": 64,
                "duration": 0.25,
                "tempo": 120.0
            },
            {
                "start_time": 15.338636363636363,
                "end_time": 15.588636363636363,
                "pitch": 72,
                "velocity": 64,
                "duration": 0.25,
                "tempo": 120.0
            },
            {
                "start_time": 15.638636363636364,
                "end_time": 15.738636363636363,
                "pitch": 71,
                "velocity": 64,
                "duration": 0.09999999999999964,
                "tempo": 120.0
            },
            {
                "start_time": 15.788636363636362,
                "end_time": 15.888636363636364,
                "pitch": 71,
                "velocity": 64,
                "duration": 0.10000000000000142,
                "tempo": 120.0
            },
            {
                "start_time": 15.938636363636363,
                "end_time": 16.04090909090909,
                "pitch": 72,
                "velocity": 64,
                "duration": 0.10227272727272663,
                "tempo": 120.0
            },
            {
                "start_time": 16.09318181818182,
                "end_time": 16.195454545454545,
                "pitch": 74,
                "velocity": 64,
                "duration": 0.10227272727272663,
                "tempo": 120.0
            },
            {
                "start_time": 16.849999999999998,
                "end_time": 16.95,
                "pitch": 73,
                "velocity": 64,
                "duration": 0.10000000000000142,
                "tempo": 120.0
            },
            {
                "start_time": 17.0,
                "end_time": 17.099999999999998,
                "pitch": 73,
                "velocity": 64,
                "duration": 0.09999999999999787,
                "tempo": 120.0
            },
            {
                "start_time": 17.15,
                "end_time": 17.24772727272727,
                "pitch": 73,
                "velocity": 64,
                "duration": 0.09772727272727266,
                "tempo": 120.0
            },
            {
                "start_time": 17.297727272727272,
                "end_time": 17.545454545454543,
                "pitch": 74,
                "velocity": 64,
                "duration": 0.24772727272727124,
                "tempo": 120.0
            },
            {
                "start_time": 17.595454545454544,
                "end_time": 17.695454545454545,
                "pitch": 76,
                "velocity": 64,
                "duration": 0.10000000000000142,
                "tempo": 120.0
            },
            {
                "start_time": 17.745454545454546,
                "end_time": 17.845454545454544,
                "pitch": 81,
                "velocity": 64,
                "duration": 0.09999999999999787,
                "tempo": 120.0
            },
            {
                "start_time": 17.897727272727273,
                "end_time": 18.45,
                "pitch": 79,
                "velocity": 64,
                "duration": 0.5522727272727259,
                "tempo": 120.0
            },
            {
                "start_time": 18.5,
                "end_time": 19.270454545454545,
                "pitch": 78,
                "velocity": 64,
                "duration": 0.7704545454545446,
                "tempo": 120.0
            },
            {
                "start_time": 19.270454545454545,
                "end_time": 19.354545454545452,
                "pitch": 73,
                "velocity": 64,
                "duration": 0.08409090909090722,
                "tempo": 120.0
            },
            {
                "start_time": 19.40681818181818,
                "end_time": 19.50681818181818,
                "pitch": 73,
                "velocity": 64,
                "duration": 0.09999999999999787,
                "tempo": 120.0
            },
            {
                "start_time": 19.55681818181818,
                "end_time": 19.65681818181818,
                "pitch": 73,
                "velocity": 64,
                "duration": 0.10000000000000142,
                "tempo": 120.0
            },
            {
                "start_time": 19.706818181818182,
                "end_time": 19.956818181818182,
                "pitch": 74,
                "velocity": 64,
                "duration": 0.25,
                "tempo": 120.0
            },
            {
                "start_time": 20.00681818181818,
                "end_time": 20.10681818181818,
                "pitch": 76,
                "velocity": 64,
                "duration": 0.10000000000000142,
                "tempo": 120.0
            },
            {
                "start_time": 20.15681818181818,
                "end_time": 20.259090909090908,
                "pitch": 81,
                "velocity": 64,
                "duration": 0.10227272727272663,
                "tempo": 120.0
            },
            {
                "start_time": 20.30909090909091,
                "end_time": 20.863636363636363,
                "pitch": 79,
                "velocity": 64,
                "duration": 0.5545454545454547,
                "tempo": 120.0
            },
            {
                "start_time": 20.91590909090909,
                "end_time": 21.68409090909091,
                "pitch": 78,
                "velocity": 64,
                "duration": 0.7681818181818194,
                "tempo": 120.0
            },
            {
                "start_time": 21.68409090909091,
                "end_time": 21.768181818181816,
                "pitch": 73,
                "velocity": 64,
                "duration": 0.08409090909090722,
                "tempo": 120.0
            },
            {
                "start_time": 21.818181818181817,
                "end_time": 21.918181818181818,
                "pitch": 73,
                "velocity": 64,
                "duration": 0.10000000000000142,
                "tempo": 120.0
            },
            {
                "start_time": 21.970454545454544,
                "end_time": 22.070454545454545,
                "pitch": 73,
                "velocity": 64,
                "duration": 0.10000000000000142,
                "tempo": 120.0
            },
            {
                "start_time": 22.120454545454546,
                "end_time": 22.37272727272727,
                "pitch": 74,
                "velocity": 64,
                "duration": 0.2522727272727252,
                "tempo": 120.0
            },
            {
                "start_time": 22.424999999999997,
                "end_time": 22.525,
                "pitch": 76,
                "velocity": 64,
                "duration": 0.10000000000000142,
                "tempo": 120.0
            },
            {
                "start_time": 22.575,
                "end_time": 22.674999999999997,
                "pitch": 81,
                "velocity": 64,
                "duration": 0.09999999999999787,
                "tempo": 120.0
            },
            {
                "start_time": 22.724999999999998,
                "end_time": 23.277272727272727,
                "pitch": 79,
                "velocity": 64,
                "duration": 0.5522727272727295,
                "tempo": 120.0
            },
            {
                "start_time": 23.327272727272724,
                "end_time": 24.102272727272727,
                "pitch": 78,
                "velocity": 64,
                "duration": 0.7750000000000021,
                "tempo": 120.0
            },
            {
                "start_time": 24.102272727272727,
                "end_time": 24.336363636363636,
                "pitch": 72,
                "velocity": 64,
                "duration": 0.23409090909090935,
                "tempo": 120.0
            },
            {
                "start_time": 24.386363636363637,
                "end_time": 24.486363636363635,
                "pitch": 74,
                "velocity": 64,
                "duration": 0.09999999999999787,
                "tempo": 120.0
            },
            {
                "start_time": 24.536363636363635,
                "end_time": 24.636363636363637,
                "pitch": 76,
                "velocity": 64,
                "duration": 0.10000000000000142,
                "tempo": 120.0
            },
            {
                "start_time": 24.686363636363634,
                "end_time": 24.936363636363634,
                "pitch": 74,
                "velocity": 64,
                "duration": 0.25,
                "tempo": 120.0
            },
            {
                "start_time": 24.988636363636363,
                "end_time": 25.24090909090909,
                "pitch": 72,
                "velocity": 64,
                "duration": 0.2522727272727252,
                "tempo": 120.0
            },
            {
                "start_time": 25.29090909090909,
                "end_time": 25.39090909090909,
                "pitch": 71,
                "velocity": 64,
                "duration": 0.10000000000000142,
                "tempo": 120.0
            },
            {
                "start_time": 25.443181818181817,
                "end_time": 25.7,
                "pitch": 71,
                "velocity": 64,
                "duration": 0.2568181818181827,
                "tempo": 120.0
            },
            {
                "start_time": 25.752272727272725,
                "end_time": 26.013636363636362,
                "pitch": 72,
                "velocity": 64,
                "duration": 0.2613636363636367,
                "tempo": 120.0
            },
            {
                "start_time": 26.063636363636363,
                "end_time": 26.31590909090909,
                "pitch": 72,
                "velocity": 64,
                "duration": 0.25227272727272876,
                "tempo": 120.0
            },
            {
                "start_time": 26.36590909090909,
                "end_time": 26.46363636363636,
                "pitch": 74,
                "velocity": 64,
                "duration": 0.09772727272727266,
                "tempo": 120.0
            }
        ],
        "Vibraphone": [
            {
                "start_time": 0.045454545454545456,
                "end_time": 0.11136363636363636,
                "pitch": 73,
                "velocity": 64,
                "duration": 0.0659090909090909,
                "tempo": 120.0
            },
            {
                "start_time": 0.14545454545454545,
                "end_time": 0.22727272727272727,
                "pitch": 73,
                "velocity": 64,
                "duration": 0.08181818181818182,
                "tempo": 120.0
            },
            {
                "start_time": 0.2772727272727273,
                "end_time": 0.3795454545454545,
                "pitch": 73,
                "velocity": 64,
                "duration": 0.10227272727272724,
                "tempo": 120.0
            },
            {
                "start_time": 0.4295454545454545,
                "end_time": 0.6818181818181818,
                "pitch": 71,
                "velocity": 64,
                "duration": 0.25227272727272726,
                "tempo": 120.0
            },
            {
                "start_time": 0.7318181818181818,
                "end_time": 0.9818181818181818,
                "pitch": 69,
                "velocity": 64,
                "duration": 0.25,
                "tempo": 120.0
            },
            {
                "start_time": 1.0318181818181817,
                "end_time": 1.1318181818181818,
                "pitch": 67,
                "velocity": 64,
                "duration": 0.10000000000000009,
                "tempo": 120.0
            },
            {
                "start_time": 1.1818181818181817,
                "end_time": 1.2818181818181817,
                "pitch": 71,
                "velocity": 64,
                "duration": 0.10000000000000009,
                "tempo": 120.0
            },
            {
                "start_time": 1.3318181818181818,
                "end_time": 1.4318181818181817,
                "pitch": 71,
                "velocity": 64,
                "duration": 0.09999999999999987,
                "tempo": 120.0
            },
            {
                "start_time": 1.4818181818181817,
                "end_time": 1.5795454545454544,
                "pitch": 71,
                "velocity": 64,
                "duration": 0.09772727272727266,
                "tempo": 120.0
            },
            {
                "start_time": 1.6295454545454544,
                "end_time": 1.8772727272727272,
                "pitch": 69,
                "velocity": 64,
                "duration": 0.2477272727272728,
                "tempo": 120.0
            },
            {
                "start_time": 1.9272727272727272,
                "end_time": 2.1818181818181817,
                "pitch": 67,
                "velocity": 64,
                "duration": 0.2545454545454544,
                "tempo": 120.0
            },
            {
                "start_time": 2.231818181818182,
                "end_time": 2.334090909090909,
                "pitch": 66,
                "velocity": 64,
                "duration": 0.10227272727272707,
                "tempo": 120.0
            },
            {
                "start_time": 2.384090909090909,
                "end_time": 2.4863636363636363,
                "pitch": 67,
                "velocity": 64,
                "duration": 0.10227272727272751,
                "tempo": 120.0
            },
            {
                "start_time": 2.993181818181818,
                "end_time": 3.093181818181818,
                "pitch": 67,
                "velocity": 64,
                "duration": 0.09999999999999964,
                "tempo": 120.0
            },
            {
                "start_time": 3.1454545454545455,
                "end_time": 3.245454545454545,
                "pitch": 66,
                "velocity": 64,
                "duration": 0.09999999999999964,
                "tempo": 120.0
            },
            {
                "start_time": 3.2954545454545454,
                "end_time": 3.3977272727272725,
                "pitch": 64,
                "velocity": 64,
                "duration": 0.10227272727272707,
                "tempo": 120.0
            },
            {
                "start_time": 3.4477272727272728,
                "end_time": 3.5477272727272724,
                "pitch": 67,
                "velocity": 64,
                "duration": 0.09999999999999964,
                "tempo": 120.0
            },
            {
                "start_time": 4.334090909090909,
                "end_time": 4.434090909090909,
                "pitch": 71,
                "velocity": 64,
                "duration": 0.09999999999999964,
                "tempo": 120.0
            },
            {
                "start_time": 4.486363636363636,
                "end_time": 4.590909090909091,
                "pitch": 69,
                "velocity": 64,
                "duration": 0.1045454545454545,
                "tempo": 120.0
            },
            {
                "start_time": 4.643181818181818,
                "end_time": 4.747727272727272,
                "pitch": 67,
                "velocity": 64,
                "duration": 0.1045454545454545,
                "tempo": 120.0
            },
            {
                "start_time": 4.8,
                "end_time": 5.4363636363636365,
                "pitch": 66,
                "velocity": 64,
                "duration": 0.6363636363636367,
                "tempo": 120.0
            },
            {
                "start_time": 5.470454545454545,
                "end_time": 5.736363636363636,
                "pitch": 62,
                "velocity": 64,
                "duration": 0.26590909090909154,
                "tempo": 120.0
            },
            {
                "start_time": 5.7704545454545455,
                "end_time": 5.959090909090909,
                "pitch": 62,
                "velocity": 64,
                "duration": 0.1886363636363635,
                "tempo": 120.0
            },
            {
                "start_time": 6.009090909090909,
                "end_time": 7.081818181818181,
                "pitch": 66,
                "velocity": 64,
                "duration": 1.0727272727272723,
                "tempo": 120.0
            },
            {
                "start_time": 7.081818181818181,
                "end_time": 7.11590909090909,
                "pitch": 66,
                "velocity": 64,
                "duration": 0.03409090909090917,
                "tempo": 120.0
            },
            {
                "start_time": 7.168181818181818,
                "end_time": 8.924999999999999,
                "pitch": 73,
                "velocity": 64,
                "duration": 1.756818181818181,
                "tempo": 120.0
            },
            {
                "start_time": 8.975,
                "end_time": 9.075,
                "pitch": 74,
                "velocity": 64,
                "duration": 0.09999999999999964,
                "tempo": 120.0
            },
            {
                "start_time": 9.125,
                "end_time": 9.225,
                "pitch": 73,
                "velocity": 64,
                "duration": 0.09999999999999964,
                "tempo": 120.0
            },
            {
                "start_time": 9.275,
                "end_time": 9.375,
                "pitch": 71,
                "velocity": 64,
                "duration": 0.09999999999999964,
                "tempo": 120.0
            },
            {
                "start_time": 9.424999999999999,
                "end_time": 9.525,
                "pitch": 69,
                "velocity": 64,
                "duration": 0.10000000000000142,
                "tempo": 120.0
            },
            {
                "start_time": 9.575,
                "end_time": 11.331818181818182,
                "pitch": 73,
                "velocity": 64,
                "duration": 1.7568181818181827,
                "tempo": 120.0
            },
            {
                "start_time": 11.381818181818181,
                "end_time": 11.631818181818181,
                "pitch": 74,
                "velocity": 64,
                "duration": 0.25,
                "tempo": 120.0
            },
            {
                "start_time": 11.681818181818182,
                "end_time": 11.931818181818182,
                "pitch": 73,
                "velocity": 64,
                "duration": 0.25,
                "tempo": 120.0
            },
            {
                "start_time": 11.98181818181818,
                "end_time": 13.734090909090908,
                "pitch": 73,
                "velocity": 64,
                "duration": 1.752272727272727,
                "tempo": 120.0
            },
            {
                "start_time": 13.786363636363635,
                "end_time": 13.886363636363635,
                "pitch": 74,
                "velocity": 64,
                "duration": 0.09999999999999964,
                "tempo": 120.0
            },
            {
                "start_time": 13.936363636363636,
                "end_time": 14.038636363636362,
                "pitch": 73,
                "velocity": 64,
                "duration": 0.10227272727272663,
                "tempo": 120.0
            },
            {
                "start_time": 14.088636363636363,
                "end_time": 14.188636363636363,
                "pitch": 71,
                "velocity": 64,
                "duration": 0.09999999999999964,
                "tempo": 120.0
            },
            {
                "start_time": 14.238636363636363,
                "end_time": 14.338636363636363,
                "pitch": 69,
                "velocity": 64,
                "duration": 0.09999999999999964,
                "tempo": 120.0
            },
            {
                "start_time": 14.388636363636364,
                "end_time": 14.638636363636364,
                "pitch": 72,
                "velocity": 64,
                "duration": 0.25,
                "tempo": 120.0
            },
            {
                "start_time": 14.688636363636363,
                "end_time": 14.788636363636362,
                "pitch": 74,
                "velocity": 64,
                "duration": 0.09999999999999964,
                "tempo": 120.0
            },
            {
                "start_time": 14.838636363636363,
                "end_time": 14.938636363636363,
                "pitch": 76,
                "velocity": 64,
                "duration": 0.09999999999999964,
                "tempo": 120.0
            },
            {
                "start_time": 14.988636363636363,
                "end_time": 15.238636363636363,
                "pitch": 74,
                "velocity": 64,
                "duration": 0.25,
                "tempo": 120.0
            },
            {
                "start_time": 15.288636363636362,
                "end_time": 15.538636363636362,
                "pitch": 72,
                "velocity": 64,
                "duration": 0.25,
                "tempo": 120.0
            },
            {
                "start_time": 15.588636363636363,
                "end_time": 18.46590909090909,
                "pitch": 69,
                "velocity": 64,
                "duration": 2.877272727272727,
                "tempo": 120.0
            },
            {
                "start_time": 18.46590909090909,
                "end_time": 18.55,
                "pitch": 73,
                "velocity": 64,
                "duration": 0.08409090909091077,
                "tempo": 120.0
            },
            {
                "start_time": 18.599999999999998,
                "end_time": 18.7,
                "pitch": 74,
                "velocity": 64,
                "duration": 0.10000000000000142,
                "tempo": 120.0
            },
            {
                "start_time": 18.75,
                "end_time": 18.849999999999998,
                "pitch": 73,
                "velocity": 64,
                "duration": 0.09999999999999787,
                "tempo": 120.0
            },
            {
                "start_time": 18.9,
                "end_time": 19.002272727272725,
                "pitch": 71,
                "velocity": 64,
                "duration": 0.10227272727272663,
                "tempo": 120.0
            },
            {
                "start_time": 19.052272727272726,
                "end_time": 19.152272727272727,
                "pitch": 69,
                "velocity": 64,
                "duration": 0.10000000000000142,
                "tempo": 120.0
            },
            {
                "start_time": 19.204545454545453,
                "end_time": 20.96590909090909,
                "pitch": 73,
                "velocity": 64,
                "duration": 1.7613636363636367,
                "tempo": 120.0
            },
            {
                "start_time": 21.01590909090909,
                "end_time": 21.268181818181816,
                "pitch": 74,
                "velocity": 64,
                "duration": 0.2522727272727252,
                "tempo": 120.0
            },
            {
                "start_time": 21.318181818181817,
                "end_time": 21.568181818181817,
                "pitch": 73,
                "velocity": 64,
                "duration": 0.25,
                "tempo": 120.0
            },
            {
                "start_time": 21.618181818181817,
                "end_time": 23.377272727272725,
                "pitch": 73,
                "velocity": 64,
                "duration": 1.759090909090908,
                "tempo": 120.0
            },
            {
                "start_time": 23.427272727272726,
                "end_time": 23.529545454545453,
                "pitch": 74,
                "velocity": 64,
                "duration": 0.10227272727272663,
                "tempo": 120.0
            },
            {
                "start_time": 23.579545454545453,
                "end_time": 23.679545454545455,
                "pitch": 73,
                "velocity": 64,
                "duration": 0.10000000000000142,
                "tempo": 120.0
            },
            {
                "start_time": 23.73181818181818,
                "end_time": 23.831818181818182,
                "pitch": 71,
                "velocity": 64,
                "duration": 0.10000000000000142,
                "tempo": 120.0
            },
            {
                "start_time": 23.88181818181818,
                "end_time": 23.98409090909091,
                "pitch": 69,
                "velocity": 64,
                "duration": 0.10227272727273018,
                "tempo": 120.0
            },
            {
                "start_time": 24.034090909090907,
                "end_time": 24.286363636363635,
                "pitch": 72,
                "velocity": 64,
                "duration": 0.25227272727272876,
                "tempo": 120.0
            },
            {
                "start_time": 24.336363636363636,
                "end_time": 24.436363636363634,
                "pitch": 74,
                "velocity": 64,
                "duration": 0.09999999999999787,
                "tempo": 120.0
            },
            {
                "start_time": 24.486363636363635,
                "end_time": 24.586363636363636,
                "pitch": 76,
                "velocity": 64,
                "duration": 0.10000000000000142,
                "tempo": 120.0
            },
            {
                "start_time": 24.636363636363637,
                "end_time": 24.886363636363637,
                "pitch": 74,
                "velocity": 64,
                "duration": 0.25,
                "tempo": 120.0
            },
            {
                "start_time": 24.936363636363634,
                "end_time": 25.188636363636363,
                "pitch": 72,
                "velocity": 64,
                "duration": 0.25227272727272876,
                "tempo": 120.0
            }
        ],
        "Trumpet": [
            {
                "start_time": 27.57272727272727,
                "end_time": 27.83863636363636,
                "pitch": 79,
                "velocity": 64,
                "duration": 0.26590909090909065,
                "tempo": 120.0
            },
            {
                "start_time": 27.87272727272727,
                "end_time": 27.988636363636363,
                "pitch": 81,
                "velocity": 64,
                "duration": 0.11590909090909207,
                "tempo": 120.0
            },
            {
                "start_time": 28.02272727272727,
                "end_time": 28.14090909090909,
                "pitch": 82,
                "velocity": 64,
                "duration": 0.11818181818182083,
                "tempo": 120.0
            },
            {
                "start_time": 28.174999999999997,
                "end_time": 28.443181818181817,
                "pitch": 81,
                "velocity": 64,
                "duration": 0.2681818181818194,
                "tempo": 120.0
            },
            {
                "start_time": 28.477272727272727,
                "end_time": 28.595454545454544,
                "pitch": 79,
                "velocity": 64,
                "duration": 0.11818181818181728,
                "tempo": 120.0
            },
            {
                "start_time": 28.627272727272725,
                "end_time": 29.952272727272724,
                "pitch": 77,
                "velocity": 64,
                "duration": 1.3249999999999993,
                "tempo": 120.0
            },
            {
                "start_time": 29.986363636363635,
                "end_time": 30.25681818181818,
                "pitch": 75,
                "velocity": 64,
                "duration": 0.2704545454545446,
                "tempo": 120.0
            },
            {
                "start_time": 30.29090909090909,
                "end_time": 30.40681818181818,
                "pitch": 77,
                "velocity": 64,
                "duration": 0.11590909090909207,
                "tempo": 120.0
            },
            {
                "start_time": 30.440909090909088,
                "end_time": 30.55681818181818,
                "pitch": 79,
                "velocity": 64,
                "duration": 0.11590909090909207,
                "tempo": 120.0
            },
            {
                "start_time": 30.59090909090909,
                "end_time": 30.85681818181818,
                "pitch": 77,
                "velocity": 64,
                "duration": 0.26590909090909065,
                "tempo": 120.0
            },
            {
                "start_time": 30.89090909090909,
                "end_time": 31.00681818181818,
                "pitch": 75,
                "velocity": 64,
                "duration": 0.11590909090908852,
                "tempo": 120.0
            },
            {
                "start_time": 31.04090909090909,
                "end_time": 32.36590909090909,
                "pitch": 74,
                "velocity": 64,
                "duration": 1.3250000000000028,
                "tempo": 120.0
            },
            {
                "start_time": 32.4,
                "end_time": 32.668181818181814,
                "pitch": 72,
                "velocity": 64,
                "duration": 0.26818181818181586,
                "tempo": 120.0
            },
            {
                "start_time": 32.70227272727273,
                "end_time": 32.820454545454545,
                "pitch": 74,
                "velocity": 64,
                "duration": 0.11818181818181728,
                "tempo": 120.0
            },
            {
                "start_time": 32.85454545454545,
                "end_time": 32.970454545454544,
                "pitch": 75,
                "velocity": 64,
                "duration": 0.11590909090909207,
                "tempo": 120.0
            },
            {
                "start_time": 33.00454545454545,
                "end_time": 33.275,
                "pitch": 74,
                "velocity": 64,
                "duration": 0.27045454545454817,
                "tempo": 120.0
            },
            {
                "start_time": 33.309090909090905,
                "end_time": 33.425,
                "pitch": 72,
                "velocity": 64,
                "duration": 0.11590909090909207,
                "tempo": 120.0
            },
            {
                "start_time": 33.45909090909091,
                "end_time": 34.934090909090905,
                "pitch": 74,
                "velocity": 64,
                "duration": 1.4749999999999943,
                "tempo": 120.0
            },
            {
                "start_time": 34.96818181818182,
                "end_time": 35.086363636363636,
                "pitch": 72,
                "velocity": 64,
                "duration": 0.11818181818181728,
                "tempo": 120.0
            },
            {
                "start_time": 35.12045454545454,
                "end_time": 35.388636363636365,
                "pitch": 72,
                "velocity": 64,
                "duration": 0.26818181818182296,
                "tempo": 120.0
            },
            {
                "start_time": 35.42272727272727,
                "end_time": 35.69318181818181,
                "pitch": 74,
                "velocity": 64,
                "duration": 0.27045454545454106,
                "tempo": 120.0
            },
            {
                "start_time": 35.72727272727273,
                "end_time": 35.861363636363635,
                "pitch": 74,
                "velocity": 64,
                "duration": 0.13409090909090793,
                "tempo": 120.0
            },
            {
                "start_time": 39.81136363636364,
                "end_time": 39.929545454545455,
                "pitch": 79,
                "velocity": 64,
                "duration": 0.11818181818181728,
                "tempo": 120.0
            },
            {
                "start_time": 39.96363636363636,
                "end_time": 40.22954545454545,
                "pitch": 75,
                "velocity": 64,
                "duration": 0.26590909090909065,
                "tempo": 120.0
            },
            {
                "start_time": 40.26363636363636,
                "end_time": 40.529545454545456,
                "pitch": 70,
                "velocity": 64,
                "duration": 0.26590909090909776,
                "tempo": 120.0
            },
            {
                "start_time": 40.56363636363636,
                "end_time": 40.83181818181818,
                "pitch": 70,
                "velocity": 64,
                "duration": 0.26818181818181586,
                "tempo": 120.0
            },
            {
                "start_time": 40.86590909090909,
                "end_time": 42.043181818181814,
                "pitch": 72,
                "velocity": 64,
                "duration": 1.1772727272727224,
                "tempo": 120.0
            },
            {
                "start_time": 42.07727272727273,
                "end_time": 42.31363636363636,
                "pitch": 74,
                "velocity": 64,
                "duration": 0.23636363636363455,
                "tempo": 120.0
            },
            {
                "start_time": 42.38181818181818,
                "end_time": 42.49772727272727,
                "pitch": 74,
                "velocity": 64,
                "duration": 0.11590909090908497,
                "tempo": 120.0
            },
            {
                "start_time": 42.53181818181818,
                "end_time": 42.80227272727272,
                "pitch": 75,
                "velocity": 64,
                "duration": 0.27045454545454106,
                "tempo": 120.0
            },
            {
                "start_time": 42.836363636363636,
                "end_time": 42.95227272727273,
                "pitch": 74,
                "velocity": 64,
                "duration": 0.11590909090909207,
                "tempo": 120.0
            },
            {
                "start_time": 42.986363636363635,
                "end_time": 43.25454545454545,
                "pitch": 75,
                "velocity": 64,
                "duration": 0.26818181818181586,
                "tempo": 120.0
            },
            {
                "start_time": 43.28636363636363,
                "end_time": 44.61363636363636,
                "pitch": 77,
                "velocity": 64,
                "duration": 1.327272727272728,
                "tempo": 120.0
            },
            {
                "start_time": 44.64772727272727,
                "end_time": 44.76590909090909,
                "pitch": 77,
                "velocity": 64,
                "duration": 0.11818181818181728,
                "tempo": 120.0
            },
            {
                "start_time": 44.8,
                "end_time": 44.918181818181814,
                "pitch": 77,
                "velocity": 64,
                "duration": 0.11818181818181728,
                "tempo": 120.0
            },
            {
                "start_time": 44.95227272727273,
                "end_time": 45.070454545454545,
                "pitch": 77,
                "velocity": 64,
                "duration": 0.11818181818181728,
                "tempo": 120.0
            },
            {
                "start_time": 45.10454545454545,
                "end_time": 45.275,
                "pitch": 77,
                "velocity": 64,
                "duration": 0.17045454545454675,
                "tempo": 120.0
            }
        ],
        "Electric Guitar (clean)": [
            {
                "start_time": 0.08863636363636364,
                "end_time": 0.1659090909090909,
                "pitch": 57,
                "velocity": 40,
                "duration": 0.07727272727272726,
                "tempo": 120.0
            },
            {
                "start_time": 0.19318181818181818,
                "end_time": 0.31136363636363634,
                "pitch": 57,
                "velocity": 40,
                "duration": 0.11818181818181817,
                "tempo": 120.0
            },
            {
                "start_time": 0.34545454545454546,
                "end_time": 0.6136363636363636,
                "pitch": 57,
                "velocity": 40,
                "duration": 0.2681818181818182,
                "tempo": 120.0
            },
            {
                "start_time": 0.6477272727272727,
                "end_time": 0.9159090909090909,
                "pitch": 57,
                "velocity": 40,
                "duration": 0.2681818181818182,
                "tempo": 120.0
            },
            {
                "start_time": 0.95,
                "end_time": 1.065909090909091,
                "pitch": 57,
                "velocity": 40,
                "duration": 0.11590909090909096,
                "tempo": 120.0
            },
            {
                "start_time": 1.0999999999999999,
                "end_time": 1.2159090909090908,
                "pitch": 55,
                "velocity": 40,
                "duration": 0.11590909090909096,
                "tempo": 120.0
            },
            {
                "start_time": 1.25,
                "end_time": 1.3659090909090907,
                "pitch": 55,
                "velocity": 40,
                "duration": 0.11590909090909074,
                "tempo": 120.0
            },
            {
                "start_time": 1.4,
                "end_time": 1.5136363636363637,
                "pitch": 55,
                "velocity": 40,
                "duration": 0.11363636363636376,
                "tempo": 120.0
            },
            {
                "start_time": 1.5477272727272726,
                "end_time": 1.8113636363636363,
                "pitch": 55,
                "velocity": 40,
                "duration": 0.26363636363636367,
                "tempo": 120.0
            },
            {
                "start_time": 1.8454545454545455,
                "end_time": 2.1136363636363633,
                "pitch": 55,
                "velocity": 40,
                "duration": 0.26818181818181785,
                "tempo": 120.0
            },
            {
                "start_time": 2.1477272727272725,
                "end_time": 2.2659090909090907,
                "pitch": 55,
                "velocity": 40,
                "duration": 0.11818181818181817,
                "tempo": 120.0
            },
            {
                "start_time": 2.3,
                "end_time": 2.418181818181818,
                "pitch": 50,
                "velocity": 40,
                "duration": 0.11818181818181817,
                "tempo": 120.0
            },
            {
                "start_time": 2.909090909090909,
                "end_time": 3.0272727272727273,
                "pitch": 50,
                "velocity": 40,
                "duration": 0.11818181818181817,
                "tempo": 120.0
            },
            {
                "start_time": 3.061363636363636,
                "end_time": 3.1772727272727272,
                "pitch": 49,
                "velocity": 40,
                "duration": 0.11590909090909118,
                "tempo": 120.0
            },
            {
                "start_time": 3.2113636363636364,
                "end_time": 3.3295454545454546,
                "pitch": 47,
                "velocity": 40,
                "duration": 0.11818181818181817,
                "tempo": 120.0
            },
            {
                "start_time": 3.3636363636363633,
                "end_time": 3.4818181818181815,
                "pitch": 45,
                "velocity": 40,
                "duration": 0.11818181818181817,
                "tempo": 120.0
            },
            {
                "start_time": 4.254545454545454,
                "end_time": 4.36590909090909,
                "pitch": 50,
                "velocity": 40,
                "duration": 0.11136363636363633,
                "tempo": 120.0
            },
            {
                "start_time": 4.3999999999999995,
                "end_time": 4.5204545454545455,
                "pitch": 49,
                "velocity": 40,
                "duration": 0.12045454545454604,
                "tempo": 120.0
            },
            {
                "start_time": 4.556818181818182,
                "end_time": 4.677272727272727,
                "pitch": 47,
                "velocity": 40,
                "duration": 0.12045454545454515,
                "tempo": 120.0
            },
            {
                "start_time": 4.713636363636364,
                "end_time": 4.834090909090909,
                "pitch": 45,
                "velocity": 40,
                "duration": 0.12045454545454515,
                "tempo": 120.0
            },
            {
                "start_time": 5.470454545454545,
                "end_time": 5.736363636363636,
                "pitch": 50,
                "velocity": 40,
                "duration": 0.26590909090909154,
                "tempo": 120.0
            },
            {
                "start_time": 5.7704545454545455,
                "end_time": 5.890909090909091,
                "pitch": 50,
                "velocity": 40,
                "duration": 0.12045454545454515,
                "tempo": 120.0
            },
            {
                "start_time": 5.925,
                "end_time": 6.043181818181818,
                "pitch": 50,
                "velocity": 40,
                "duration": 0.11818181818181817,
                "tempo": 120.0
            },
            {
                "start_time": 7.134090909090909,
                "end_time": 7.252272727272727,
                "pitch": 49,
                "velocity": 40,
                "duration": 0.11818181818181817,
                "tempo": 120.0
            },
            {
                "start_time": 7.284090909090909,
                "end_time": 7.402272727272727,
                "pitch": 49,
                "velocity": 40,
                "duration": 0.11818181818181817,
                "tempo": 120.0
            },
            {
                "start_time": 7.436363636363636,
                "end_time": 7.670454545454545,
                "pitch": 49,
                "velocity": 40,
                "duration": 0.23409090909090935,
                "tempo": 120.0
            },
            {
                "start_time": 7.720454545454545,
                "end_time": 7.9022727272727264,
                "pitch": 45,
                "velocity": 40,
                "duration": 0.18181818181818166,
                "tempo": 120.0
            },
            {
                "start_time": 7.936363636363636,
                "end_time": 8.002272727272727,
                "pitch": 45,
                "velocity": 40,
                "duration": 0.06590909090909136,
                "tempo": 120.0
            },
            {
                "start_time": 8.036363636363635,
                "end_time": 8.154545454545454,
                "pitch": 57,
                "velocity": 40,
                "duration": 0.11818181818181905,
                "tempo": 120.0
            },
            {
                "start_time": 8.188636363636363,
                "end_time": 8.759090909090908,
                "pitch": 55,
                "velocity": 40,
                "duration": 0.5704545454545453,
                "tempo": 120.0
            },
            {
                "start_time": 8.793181818181818,
                "end_time": 8.909090909090908,
                "pitch": 54,
                "velocity": 40,
                "duration": 0.1159090909090903,
                "tempo": 120.0
            },
            {
                "start_time": 8.943181818181818,
                "end_time": 9.059090909090909,
                "pitch": 55,
                "velocity": 40,
                "duration": 0.1159090909090903,
                "tempo": 120.0
            },
            {
                "start_time": 9.093181818181817,
                "end_time": 9.325,
                "pitch": 54,
                "velocity": 40,
                "duration": 0.23181818181818237,
                "tempo": 120.0
            },
            {
                "start_time": 9.393181818181818,
                "end_time": 9.509090909090908,
                "pitch": 50,
                "velocity": 40,
                "duration": 0.1159090909090903,
                "tempo": 120.0
            },
            {
                "start_time": 9.543181818181818,
                "end_time": 9.659090909090908,
                "pitch": 49,
                "velocity": 40,
                "duration": 0.1159090909090903,
                "tempo": 120.0
            },
            {
                "start_time": 9.693181818181818,
                "end_time": 9.809090909090909,
                "pitch": 49,
                "velocity": 40,
                "duration": 0.1159090909090903,
                "tempo": 120.0
            },
            {
                "start_time": 9.843181818181817,
                "end_time": 10.10909090909091,
                "pitch": 49,
                "velocity": 40,
                "duration": 0.2659090909090924,
                "tempo": 120.0
            },
            {
                "start_time": 10.143181818181818,
                "end_time": 10.35909090909091,
                "pitch": 45,
                "velocity": 40,
                "duration": 0.21590909090909172,
                "tempo": 120.0
            },
            {
                "start_time": 10.393181818181818,
                "end_time": 10.409090909090908,
                "pitch": 45,
                "velocity": 40,
                "duration": 0.01590909090909065,
                "tempo": 120.0
            },
            {
                "start_time": 10.443181818181818,
                "end_time": 10.561363636363636,
                "pitch": 57,
                "velocity": 40,
                "duration": 0.11818181818181728,
                "tempo": 120.0
            },
            {
                "start_time": 10.593181818181817,
                "end_time": 11.081818181818182,
                "pitch": 55,
                "velocity": 40,
                "duration": 0.4886363636363651,
                "tempo": 120.0
            },
            {
                "start_time": 11.131818181818181,
                "end_time": 11.56590909090909,
                "pitch": 54,
                "velocity": 40,
                "duration": 0.43409090909090864,
                "tempo": 120.0
            },
            {
                "start_time": 11.597727272727273,
                "end_time": 11.61590909090909,
                "pitch": 52,
                "velocity": 40,
                "duration": 0.018181818181817633,
                "tempo": 120.0
            },
            {
                "start_time": 11.647727272727272,
                "end_time": 11.915909090909091,
                "pitch": 50,
                "velocity": 40,
                "duration": 0.2681818181818194,
                "tempo": 120.0
            },
            {
                "start_time": 11.947727272727272,
                "end_time": 12.06590909090909,
                "pitch": 49,
                "velocity": 40,
                "duration": 0.11818181818181728,
                "tempo": 120.0
            },
            {
                "start_time": 12.097727272727273,
                "end_time": 12.21590909090909,
                "pitch": 49,
                "velocity": 40,
                "duration": 0.11818181818181728,
                "tempo": 120.0
            },
            {
                "start_time": 12.247727272727273,
                "end_time": 12.51590909090909,
                "pitch": 49,
                "velocity": 40,
                "duration": 0.26818181818181763,
                "tempo": 120.0
            },
            {
                "start_time": 12.547727272727272,
                "end_time": 12.71590909090909,
                "pitch": 45,
                "velocity": 40,
                "duration": 0.168181818181818,
                "tempo": 120.0
            },
            {
                "start_time": 12.747727272727271,
                "end_time": 12.81590909090909,
                "pitch": 45,
                "velocity": 40,
                "duration": 0.06818181818181834,
                "tempo": 120.0
            },
            {
                "start_time": 12.847727272727273,
                "end_time": 12.96590909090909,
                "pitch": 57,
                "velocity": 40,
                "duration": 0.11818181818181728,
                "tempo": 120.0
            },
            {
                "start_time": 12.997727272727271,
                "end_time": 13.56590909090909,
                "pitch": 55,
                "velocity": 40,
                "duration": 0.5681818181818183,
                "tempo": 120.0
            },
            {
                "start_time": 13.6,
                "end_time": 13.718181818181817,
                "pitch": 54,
                "velocity": 40,
                "duration": 0.11818181818181728,
                "tempo": 120.0
            },
            {
                "start_time": 13.752272727272727,
                "end_time": 13.870454545454544,
                "pitch": 55,
                "velocity": 40,
                "duration": 0.11818181818181728,
                "tempo": 120.0
            },
            {
                "start_time": 13.902272727272727,
                "end_time": 14.170454545454545,
                "pitch": 54,
                "velocity": 40,
                "duration": 0.26818181818181763,
                "tempo": 120.0
            },
            {
                "start_time": 14.238636363636363,
                "end_time": 14.320454545454545,
                "pitch": 52,
                "velocity": 40,
                "duration": 0.08181818181818201,
                "tempo": 120.0
            },
            {
                "start_time": 14.354545454545454,
                "end_time": 14.470454545454544,
                "pitch": 48,
                "velocity": 40,
                "duration": 0.1159090909090903,
                "tempo": 120.0
            },
            {
                "start_time": 14.504545454545454,
                "end_time": 14.620454545454544,
                "pitch": 48,
                "velocity": 40,
                "duration": 0.1159090909090903,
                "tempo": 120.0
            },
            {
                "start_time": 14.654545454545454,
                "end_time": 14.770454545454545,
                "pitch": 48,
                "velocity": 40,
                "duration": 0.1159090909090903,
                "tempo": 120.0
            },
            {
                "start_time": 14.804545454545455,
                "end_time": 14.920454545454545,
                "pitch": 48,
                "velocity": 40,
                "duration": 0.1159090909090903,
                "tempo": 120.0
            },
            {
                "start_time": 14.954545454545453,
                "end_time": 15.070454545454545,
                "pitch": 45,
                "velocity": 40,
                "duration": 0.11590909090909207,
                "tempo": 120.0
            },
            {
                "start_time": 15.104545454545454,
                "end_time": 15.220454545454544,
                "pitch": 45,
                "velocity": 40,
                "duration": 0.1159090909090903,
                "tempo": 120.0
            },
            {
                "start_time": 15.254545454545454,
                "end_time": 15.370454545454544,
                "pitch": 45,
                "velocity": 40,
                "duration": 0.1159090909090903,
                "tempo": 120.0
            },
            {
                "start_time": 15.404545454545454,
                "end_time": 15.520454545454545,
                "pitch": 45,
                "velocity": 40,
                "duration": 0.1159090909090903,
                "tempo": 120.0
            },
            {
                "start_time": 15.554545454545455,
                "end_time": 15.670454545454545,
                "pitch": 50,
                "velocity": 40,
                "duration": 0.1159090909090903,
                "tempo": 120.0
            },
            {
                "start_time": 15.704545454545453,
                "end_time": 15.820454545454545,
                "pitch": 50,
                "velocity": 40,
                "duration": 0.11590909090909207,
                "tempo": 120.0
            },
            {
                "start_time": 15.854545454545454,
                "end_time": 15.972727272727273,
                "pitch": 50,
                "velocity": 40,
                "duration": 0.11818181818181905,
                "tempo": 120.0
            },
            {
                "start_time": 16.006818181818183,
                "end_time": 16.127272727272725,
                "pitch": 50,
                "velocity": 40,
                "duration": 0.12045454545454248,
                "tempo": 120.0
            },
            {
                "start_time": 16.76590909090909,
                "end_time": 16.884090909090908,
                "pitch": 49,
                "velocity": 40,
                "duration": 0.11818181818181728,
                "tempo": 120.0
            },
            {
                "start_time": 16.91590909090909,
                "end_time": 17.034090909090907,
                "pitch": 49,
                "velocity": 40,
                "duration": 0.11818181818181728,
                "tempo": 120.0
            },
            {
                "start_time": 17.06590909090909,
                "end_time": 17.297727272727272,
                "pitch": 49,
                "velocity": 40,
                "duration": 0.2318181818181806,
                "tempo": 120.0
            },
            {
                "start_time": 17.347727272727273,
                "end_time": 17.529545454545453,
                "pitch": 45,
                "velocity": 40,
                "duration": 0.18181818181817988,
                "tempo": 120.0
            },
            {
                "start_time": 17.561363636363634,
                "end_time": 17.627272727272725,
                "pitch": 45,
                "velocity": 40,
                "duration": 0.06590909090909136,
                "tempo": 120.0
            },
            {
                "start_time": 17.661363636363635,
                "end_time": 17.779545454545453,
                "pitch": 57,
                "velocity": 40,
                "duration": 0.11818181818181728,
                "tempo": 120.0
            },
            {
                "start_time": 17.811363636363634,
                "end_time": 18.384090909090908,
                "pitch": 55,
                "velocity": 40,
                "duration": 0.5727272727272741,
                "tempo": 120.0
            },
            {
                "start_time": 18.41590909090909,
                "end_time": 18.534090909090907,
                "pitch": 54,
                "velocity": 40,
                "duration": 0.11818181818181728,
                "tempo": 120.0
            },
            {
                "start_time": 18.56590909090909,
                "end_time": 18.68409090909091,
                "pitch": 55,
                "velocity": 40,
                "duration": 0.11818181818181728,
                "tempo": 120.0
            },
            {
                "start_time": 18.71590909090909,
                "end_time": 18.952272727272728,
                "pitch": 54,
                "velocity": 40,
                "duration": 0.2363636363636381,
                "tempo": 120.0
            },
            {
                "start_time": 19.018181818181816,
                "end_time": 19.136363636363637,
                "pitch": 50,
                "velocity": 40,
                "duration": 0.11818181818182083,
                "tempo": 120.0
            },
            {
                "start_time": 19.170454545454543,
                "end_time": 19.288636363636364,
                "pitch": 49,
                "velocity": 40,
                "duration": 0.11818181818182083,
                "tempo": 120.0
            },
            {
                "start_time": 19.320454545454545,
                "end_time": 19.438636363636363,
                "pitch": 49,
                "velocity": 40,
                "duration": 0.11818181818181728,
                "tempo": 120.0
            },
            {
                "start_time": 19.472727272727273,
                "end_time": 19.738636363636363,
                "pitch": 49,
                "velocity": 40,
                "duration": 0.26590909090909065,
                "tempo": 120.0
            },
            {
                "start_time": 19.772727272727273,
                "end_time": 19.988636363636363,
                "pitch": 45,
                "velocity": 40,
                "duration": 0.21590909090908994,
                "tempo": 120.0
            },
            {
                "start_time": 20.022727272727273,
                "end_time": 20.038636363636364,
                "pitch": 45,
                "velocity": 40,
                "duration": 0.01590909090909065,
                "tempo": 120.0
            },
            {
                "start_time": 20.07272727272727,
                "end_time": 20.19090909090909,
                "pitch": 57,
                "velocity": 40,
                "duration": 0.11818181818182083,
                "tempo": 120.0
            },
            {
                "start_time": 20.224999999999998,
                "end_time": 20.71363636363636,
                "pitch": 55,
                "velocity": 40,
                "duration": 0.4886363636363633,
                "tempo": 120.0
            },
            {
                "start_time": 20.763636363636362,
                "end_time": 21.2,
                "pitch": 54,
                "velocity": 40,
                "duration": 0.4363636363636374,
                "tempo": 120.0
            },
            {
                "start_time": 21.23409090909091,
                "end_time": 21.252272727272725,
                "pitch": 52,
                "velocity": 40,
                "duration": 0.018181818181815856,
                "tempo": 120.0
            },
            {
                "start_time": 21.284090909090907,
                "end_time": 21.552272727272726,
                "pitch": 50,
                "velocity": 40,
                "duration": 0.2681818181818194,
                "tempo": 120.0
            },
            {
                "start_time": 21.584090909090907,
                "end_time": 21.702272727272724,
                "pitch": 49,
                "velocity": 40,
                "duration": 0.11818181818181728,
                "tempo": 120.0
            },
            {
                "start_time": 21.73409090909091,
                "end_time": 21.852272727272727,
                "pitch": 49,
                "velocity": 40,
                "duration": 0.11818181818181728,
                "tempo": 120.0
            },
            {
                "start_time": 21.884090909090908,
                "end_time": 22.154545454545453,
                "pitch": 49,
                "velocity": 40,
                "duration": 0.2704545454545446,
                "tempo": 120.0
            },
            {
                "start_time": 22.188636363636363,
                "end_time": 22.35681818181818,
                "pitch": 45,
                "velocity": 40,
                "duration": 0.168181818181818,
                "tempo": 120.0
            },
            {
                "start_time": 22.39090909090909,
                "end_time": 22.456818181818182,
                "pitch": 45,
                "velocity": 40,
                "duration": 0.06590909090909136,
                "tempo": 120.0
            },
            {
                "start_time": 22.49090909090909,
                "end_time": 22.60681818181818,
                "pitch": 57,
                "velocity": 40,
                "duration": 0.11590909090909207,
                "tempo": 120.0
            },
            {
                "start_time": 22.64090909090909,
                "end_time": 23.209090909090907,
                "pitch": 55,
                "velocity": 40,
                "duration": 0.5681818181818166,
                "tempo": 120.0
            },
            {
                "start_time": 23.243181818181817,
                "end_time": 23.361363636363635,
                "pitch": 54,
                "velocity": 40,
                "duration": 0.11818181818181728,
                "tempo": 120.0
            },
            {
                "start_time": 23.393181818181816,
                "end_time": 23.511363636363637,
                "pitch": 55,
                "velocity": 40,
                "duration": 0.11818181818182083,
                "tempo": 120.0
            },
            {
                "start_time": 23.545454545454543,
                "end_time": 23.81590909090909,
                "pitch": 54,
                "velocity": 40,
                "duration": 0.27045454545454817,
                "tempo": 120.0
            },
            {
                "start_time": 23.88181818181818,
                "end_time": 23.96590909090909,
                "pitch": 52,
                "velocity": 40,
                "duration": 0.08409090909091077,
                "tempo": 120.0
            },
            {
                "start_time": 24.0,
                "end_time": 24.118181818181817,
                "pitch": 48,
                "velocity": 40,
                "duration": 0.11818181818181728,
                "tempo": 120.0
            },
            {
                "start_time": 24.152272727272727,
                "end_time": 24.270454545454545,
                "pitch": 48,
                "velocity": 40,
                "duration": 0.11818181818181728,
                "tempo": 120.0
            },
            {
                "start_time": 24.302272727272726,
                "end_time": 24.420454545454543,
                "pitch": 48,
                "velocity": 40,
                "duration": 0.11818181818181728,
                "tempo": 120.0
            },
            {
                "start_time": 24.452272727272724,
                "end_time": 24.570454545454545,
                "pitch": 48,
                "velocity": 40,
                "duration": 0.11818181818182083,
                "tempo": 120.0
            },
            {
                "start_time": 24.602272727272727,
                "end_time": 24.720454545454544,
                "pitch": 45,
                "velocity": 40,
                "duration": 0.11818181818181728,
                "tempo": 120.0
            },
            {
                "start_time": 24.752272727272725,
                "end_time": 24.870454545454542,
                "pitch": 45,
                "velocity": 40,
                "duration": 0.11818181818181728,
                "tempo": 120.0
            },
            {
                "start_time": 24.902272727272727,
                "end_time": 25.020454545454545,
                "pitch": 45,
                "velocity": 40,
                "duration": 0.11818181818181728,
                "tempo": 120.0
            },
            {
                "start_time": 25.054545454545455,
                "end_time": 25.172727272727272,
                "pitch": 45,
                "velocity": 40,
                "duration": 0.11818181818181728,
                "tempo": 120.0
            },
            {
                "start_time": 25.206818181818182,
                "end_time": 25.325,
                "pitch": 47,
                "velocity": 40,
                "duration": 0.11818181818181728,
                "tempo": 120.0
            },
            {
                "start_time": 25.35681818181818,
                "end_time": 25.63181818181818,
                "pitch": 47,
                "velocity": 40,
                "duration": 0.2749999999999986,
                "tempo": 120.0
            },
            {
                "start_time": 25.66590909090909,
                "end_time": 25.943181818181817,
                "pitch": 48,
                "velocity": 40,
                "duration": 0.27727272727272734,
                "tempo": 120.0
            },
            {
                "start_time": 25.977272727272727,
                "end_time": 26.25,
                "pitch": 48,
                "velocity": 40,
                "duration": 0.2727272727272734,
                "tempo": 120.0
            },
            {
                "start_time": 26.28181818181818,
                "end_time": 26.39772727272727,
                "pitch": 50,
                "velocity": 40,
                "duration": 0.11590909090908852,
                "tempo": 120.0
            },
            {
                "start_time": 26.43181818181818,
                "end_time": 26.545454545454543,
                "pitch": 51,
                "velocity": 40,
                "duration": 0.11363636363636331,
                "tempo": 120.0
            },
            {
                "start_time": 26.579545454545453,
                "end_time": 26.695454545454545,
                "pitch": 51,
                "velocity": 40,
                "duration": 0.11590909090909207,
                "tempo": 120.0
            },
            {
                "start_time": 26.974999999999998,
                "end_time": 26.993181818181817,
                "pitch": 48,
                "velocity": 40,
                "duration": 0.01818181818181941,
                "tempo": 120.0
            },
            {
                "start_time": 27.025,
                "end_time": 27.14090909090909,
                "pitch": 51,
                "velocity": 40,
                "duration": 0.11590909090909207,
                "tempo": 120.0
            },
            {
                "start_time": 27.172727272727272,
                "end_time": 27.288636363636364,
                "pitch": 51,
                "velocity": 40,
                "duration": 0.11590909090909207,
                "tempo": 120.0
            },
            {
                "start_time": 27.57272727272727,
                "end_time": 27.58863636363636,
                "pitch": 48,
                "velocity": 40,
                "duration": 0.01590909090909065,
                "tempo": 120.0
            },
            {
                "start_time": 27.62272727272727,
                "end_time": 27.738636363636363,
                "pitch": 51,
                "velocity": 40,
                "duration": 0.11590909090909207,
                "tempo": 120.0
            },
            {
                "start_time": 27.77272727272727,
                "end_time": 27.888636363636362,
                "pitch": 51,
                "velocity": 40,
                "duration": 0.11590909090909207,
                "tempo": 120.0
            },
            {
                "start_time": 28.174999999999997,
                "end_time": 28.190909090909088,
                "pitch": 48,
                "velocity": 40,
                "duration": 0.01590909090909065,
                "tempo": 120.0
            },
            {
                "start_time": 28.224999999999998,
                "end_time": 28.343181818181815,
                "pitch": 51,
                "velocity": 40,
                "duration": 0.11818181818181728,
                "tempo": 120.0
            },
            {
                "start_time": 28.377272727272725,
                "end_time": 28.645454545454545,
                "pitch": 51,
                "velocity": 40,
                "duration": 0.2681818181818194,
                "tempo": 120.0
            },
            {
                "start_time": 28.677272727272726,
                "end_time": 28.795454545454543,
                "pitch": 53,
                "velocity": 40,
                "duration": 0.11818181818181728,
                "tempo": 120.0
            },
            {
                "start_time": 28.827272727272724,
                "end_time": 28.945454545454545,
                "pitch": 50,
                "velocity": 40,
                "duration": 0.11818181818182083,
                "tempo": 120.0
            },
            {
                "start_time": 28.977272727272727,
                "end_time": 29.095454545454544,
                "pitch": 50,
                "velocity": 40,
                "duration": 0.11818181818181728,
                "tempo": 120.0
            },
            {
                "start_time": 29.38181818181818,
                "end_time": 29.39772727272727,
                "pitch": 46,
                "velocity": 40,
                "duration": 0.01590909090909065,
                "tempo": 120.0
            },
            {
                "start_time": 29.43181818181818,
                "end_time": 29.549999999999997,
                "pitch": 50,
                "velocity": 40,
                "duration": 0.11818181818181728,
                "tempo": 120.0
            },
            {
                "start_time": 29.584090909090907,
                "end_time": 29.7,
                "pitch": 50,
                "velocity": 40,
                "duration": 0.11590909090909207,
                "tempo": 120.0
            },
            {
                "start_time": 30.03863636363636,
                "end_time": 30.154545454545453,
                "pitch": 48,
                "velocity": 40,
                "duration": 0.11590909090909207,
                "tempo": 120.0
            },
            {
                "start_time": 30.188636363636363,
                "end_time": 30.30681818181818,
                "pitch": 48,
                "velocity": 40,
                "duration": 0.11818181818181728,
                "tempo": 120.0
            },
            {
                "start_time": 30.59090909090909,
                "end_time": 30.60681818181818,
                "pitch": 43,
                "velocity": 40,
                "duration": 0.01590909090909065,
                "tempo": 120.0
            },
            {
                "start_time": 30.64090909090909,
                "end_time": 30.75681818181818,
                "pitch": 48,
                "velocity": 40,
                "duration": 0.11590909090908852,
                "tempo": 120.0
            },
            {
                "start_time": 30.79090909090909,
                "end_time": 30.90681818181818,
                "pitch": 48,
                "velocity": 40,
                "duration": 0.11590909090909207,
                "tempo": 120.0
            },
            {
                "start_time": 31.243181818181817,
                "end_time": 31.361363636363635,
                "pitch": 46,
                "velocity": 40,
                "duration": 0.11818181818181728,
                "tempo": 120.0
            },
            {
                "start_time": 31.395454545454545,
                "end_time": 31.513636363636362,
                "pitch": 46,
                "velocity": 40,
                "duration": 0.11818181818181728,
                "tempo": 120.0
            },
            {
                "start_time": 31.795454545454543,
                "end_time": 31.813636363636363,
                "pitch": 43,
                "velocity": 40,
                "duration": 0.01818181818181941,
                "tempo": 120.0
            },
            {
                "start_time": 31.845454545454544,
                "end_time": 31.96363636363636,
                "pitch": 46,
                "velocity": 40,
                "duration": 0.11818181818181728,
                "tempo": 120.0
            },
            {
                "start_time": 31.995454545454542,
                "end_time": 32.11363636363636,
                "pitch": 46,
                "velocity": 40,
                "duration": 0.11818181818181728,
                "tempo": 120.0
            },
            {
                "start_time": 32.449999999999996,
                "end_time": 32.56818181818182,
                "pitch": 48,
                "velocity": 40,
                "duration": 0.11818181818182438,
                "tempo": 120.0
            },
            {
                "start_time": 32.60227272727273,
                "end_time": 32.71818181818182,
                "pitch": 48,
                "velocity": 40,
                "duration": 0.11590909090909207,
                "tempo": 120.0
            },
            {
                "start_time": 33.00454545454545,
                "end_time": 33.02272727272727,
                "pitch": 45,
                "velocity": 40,
                "duration": 0.018181818181822962,
                "tempo": 120.0
            },
            {
                "start_time": 33.05681818181818,
                "end_time": 33.17272727272727,
                "pitch": 48,
                "velocity": 40,
                "duration": 0.11590909090909207,
                "tempo": 120.0
            },
            {
                "start_time": 33.20681818181818,
                "end_time": 33.324999999999996,
                "pitch": 48,
                "velocity": 40,
                "duration": 0.11818181818181728,
                "tempo": 120.0
            },
            {
                "start_time": 33.66136363636363,
                "end_time": 33.779545454545456,
                "pitch": 50,
                "velocity": 40,
                "duration": 0.11818181818182438,
                "tempo": 120.0
            },
            {
                "start_time": 33.81363636363636,
                "end_time": 33.93181818181818,
                "pitch": 50,
                "velocity": 40,
                "duration": 0.11818181818181728,
                "tempo": 120.0
            },
            {
                "start_time": 34.21363636363636,
                "end_time": 34.23181818181818,
                "pitch": 46,
                "velocity": 40,
                "duration": 0.018181818181815856,
                "tempo": 120.0
            },
            {
                "start_time": 34.263636363636365,
                "end_time": 34.38181818181818,
                "pitch": 50,
                "velocity": 40,
                "duration": 0.11818181818181728,
                "tempo": 120.0
            },
            {
                "start_time": 34.413636363636364,
                "end_time": 34.53181818181818,
                "pitch": 50,
                "velocity": 40,
                "duration": 0.11818181818181728,
                "tempo": 120.0
            },
            {
                "start_time": 35.02045454545454,
                "end_time": 35.13636363636363,
                "pitch": 51,
                "velocity": 40,
                "duration": 0.11590909090909207,
                "tempo": 120.0
            },
            {
                "start_time": 35.17045454545455,
                "end_time": 35.44090909090909,
                "pitch": 51,
                "velocity": 40,
                "duration": 0.27045454545454106,
                "tempo": 120.0
            },
            {
                "start_time": 35.475,
                "end_time": 35.74318181818182,
                "pitch": 53,
                "velocity": 40,
                "duration": 0.26818181818181586,
                "tempo": 120.0
            },
            {
                "start_time": 35.777272727272724,
                "end_time": 36.04545454545455,
                "pitch": 53,
                "velocity": 40,
                "duration": 0.26818181818182296,
                "tempo": 120.0
            },
            {
                "start_time": 36.07954545454545,
                "end_time": 36.19772727272727,
                "pitch": 55,
                "velocity": 40,
                "duration": 0.11818181818181728,
                "tempo": 120.0
            },
            {
                "start_time": 36.23181818181818,
                "end_time": 36.35,
                "pitch": 55,
                "velocity": 40,
                "duration": 0.11818181818182438,
                "tempo": 120.0
            },
            {
                "start_time": 36.63636363636363,
                "end_time": 36.652272727272724,
                "pitch": 50,
                "velocity": 40,
                "duration": 0.01590909090909065,
                "tempo": 120.0
            },
            {
                "start_time": 36.68636363636364,
                "end_time": 36.804545454545455,
                "pitch": 55,
                "velocity": 40,
                "duration": 0.11818181818181728,
                "tempo": 120.0
            },
            {
                "start_time": 36.83863636363636,
                "end_time": 36.95454545454545,
                "pitch": 55,
                "velocity": 40,
                "duration": 0.11590909090909207,
                "tempo": 120.0
            },
            {
                "start_time": 37.23863636363636,
                "end_time": 37.25454545454545,
                "pitch": 50,
                "velocity": 40,
                "duration": 0.01590909090909065,
                "tempo": 120.0
            },
            {
                "start_time": 37.288636363636364,
                "end_time": 37.404545454545456,
                "pitch": 55,
                "velocity": 40,
                "duration": 0.11590909090909207,
                "tempo": 120.0
            },
            {
                "start_time": 37.43863636363636,
                "end_time": 37.554545454545455,
                "pitch": 55,
                "velocity": 40,
                "duration": 0.11590909090909207,
                "tempo": 120.0
            },
            {
                "start_time": 37.840909090909086,
                "end_time": 37.85909090909091,
                "pitch": 50,
                "velocity": 40,
                "duration": 0.018181818181822962,
                "tempo": 120.0
            },
            {
                "start_time": 37.893181818181816,
                "end_time": 38.00909090909091,
                "pitch": 55,
                "velocity": 40,
                "duration": 0.11590909090909207,
                "tempo": 120.0
            },
            {
                "start_time": 38.043181818181814,
                "end_time": 38.16136363636363,
                "pitch": 55,
                "velocity": 40,
                "duration": 0.11818181818181728,
                "tempo": 120.0
            },
            {
                "start_time": 38.49772727272727,
                "end_time": 38.61590909090909,
                "pitch": 53,
                "velocity": 40,
                "duration": 0.11818181818182438,
                "tempo": 120.0
            },
            {
                "start_time": 38.65,
                "end_time": 38.768181818181816,
                "pitch": 53,
                "velocity": 40,
                "duration": 0.11818181818181728,
                "tempo": 120.0
            },
            {
                "start_time": 39.054545454545455,
                "end_time": 39.070454545454545,
                "pitch": 48,
                "velocity": 40,
                "duration": 0.01590909090909065,
                "tempo": 120.0
            },
            {
                "start_time": 39.10454545454545,
                "end_time": 39.22272727272727,
                "pitch": 53,
                "velocity": 40,
                "duration": 0.11818181818181728,
                "tempo": 120.0
            },
            {
                "start_time": 39.25681818181818,
                "end_time": 39.37272727272727,
                "pitch": 53,
                "velocity": 40,
                "duration": 0.11590909090908497,
                "tempo": 120.0
            },
            {
                "start_time": 39.65909090909091,
                "end_time": 39.67727272727272,
                "pitch": 48,
                "velocity": 40,
                "duration": 0.018181818181815856,
                "tempo": 120.0
            },
            {
                "start_time": 39.711363636363636,
                "end_time": 39.82727272727273,
                "pitch": 53,
                "velocity": 40,
                "duration": 0.11590909090909207,
                "tempo": 120.0
            },
            {
                "start_time": 39.861363636363635,
                "end_time": 39.97954545454545,
                "pitch": 53,
                "velocity": 40,
                "duration": 0.11818181818181728,
                "tempo": 120.0
            },
            {
                "start_time": 40.26363636363636,
                "end_time": 40.279545454545456,
                "pitch": 48,
                "velocity": 40,
                "duration": 0.015909090909097756,
                "tempo": 120.0
            },
            {
                "start_time": 40.31363636363636,
                "end_time": 40.429545454545455,
                "pitch": 53,
                "velocity": 40,
                "duration": 0.11590909090909207,
                "tempo": 120.0
            },
            {
                "start_time": 40.46363636363636,
                "end_time": 40.57954545454545,
                "pitch": 53,
                "velocity": 40,
                "duration": 0.11590909090909207,
                "tempo": 120.0
            },
            {
                "start_time": 40.91590909090909,
                "end_time": 41.03409090909091,
                "pitch": 51,
                "velocity": 40,
                "duration": 0.11818181818181728,
                "tempo": 120.0
            },
            {
                "start_time": 41.06818181818181,
                "end_time": 41.18636363636364,
                "pitch": 51,
                "velocity": 40,
                "duration": 0.11818181818182438,
                "tempo": 120.0
            },
            {
                "start_time": 41.47272727272727,
                "end_time": 41.48863636363636,
                "pitch": 47,
                "velocity": 40,
                "duration": 0.01590909090909065,
                "tempo": 120.0
            },
            {
                "start_time": 41.52272727272727,
                "end_time": 41.64090909090909,
                "pitch": 51,
                "velocity": 40,
                "duration": 0.11818181818181728,
                "tempo": 120.0
            },
            {
                "start_time": 41.675,
                "end_time": 41.79090909090909,
                "pitch": 51,
                "velocity": 40,
                "duration": 0.11590909090909207,
                "tempo": 120.0
            },
            {
                "start_time": 42.12954545454545,
                "end_time": 42.24545454545454,
                "pitch": 53,
                "velocity": 40,
                "duration": 0.11590909090909207,
                "tempo": 120.0
            },
            {
                "start_time": 42.27954545454545,
                "end_time": 42.55,
                "pitch": 53,
                "velocity": 40,
                "duration": 0.27045454545454817,
                "tempo": 120.0
            },
            {
                "start_time": 42.584090909090904,
                "end_time": 42.85227272727273,
                "pitch": 55,
                "velocity": 40,
                "duration": 0.26818181818182296,
                "tempo": 120.0
            },
            {
                "start_time": 42.88636363636363,
                "end_time": 43.00454545454545,
                "pitch": 55,
                "velocity": 40,
                "duration": 0.11818181818181728,
                "tempo": 120.0
            },
            {
                "start_time": 43.03636363636363,
                "end_time": 43.304545454545455,
                "pitch": 55,
                "velocity": 40,
                "duration": 0.26818181818182296,
                "tempo": 120.0
            },
            {
                "start_time": 43.336363636363636,
                "end_time": 44.277272727272724,
                "pitch": 58,
                "velocity": 40,
                "duration": 0.9409090909090878,
                "tempo": 120.0
            },
            {
                "start_time": 44.69772727272727,
                "end_time": 44.81590909090909,
                "pitch": 58,
                "velocity": 40,
                "duration": 0.11818181818181728,
                "tempo": 120.0
            },
            {
                "start_time": 44.849999999999994,
                "end_time": 44.96818181818182,
                "pitch": 58,
                "velocity": 40,
                "duration": 0.11818181818182438,
                "tempo": 120.0
            },
            {
                "start_time": 45.002272727272725,
                "end_time": 45.12272727272727,
                "pitch": 58,
                "velocity": 40,
                "duration": 0.12045454545454248,
                "tempo": 120.0
            },
            {
                "start_time": 45.15681818181818,
                "end_time": 45.275,
                "pitch": 58,
                "velocity": 40,
                "duration": 0.11818181818181728,
                "tempo": 120.0
            }
        ],
        "Acoustic Guitar (nylon)": [
            {
                "start_time": 16.347727272727273,
                "end_time": 16.381818181818183,
                "pitch": 69,
                "velocity": 64,
                "duration": 0.03409090909091006,
                "tempo": 120.0
            },
            {
                "start_time": 16.381818181818183,
                "end_time": 16.43181818181818,
                "pitch": 67,
                "velocity": 64,
                "duration": 0.04999999999999716,
                "tempo": 120.0
            },
            {
                "start_time": 16.43181818181818,
                "end_time": 16.56590909090909,
                "pitch": 64,
                "velocity": 64,
                "duration": 0.13409090909091148,
                "tempo": 120.0
            },
            {
                "start_time": 16.56590909090909,
                "end_time": 16.599999999999998,
                "pitch": 61,
                "velocity": 64,
                "duration": 0.03409090909090651,
                "tempo": 120.0
            },
            {
                "start_time": 16.599999999999998,
                "end_time": 16.65,
                "pitch": 58,
                "velocity": 64,
                "duration": 0.05000000000000071,
                "tempo": 120.0
            },
            {
                "start_time": 16.65,
                "end_time": 16.7,
                "pitch": 63,
                "velocity": 64,
                "duration": 0.05000000000000071,
                "tempo": 120.0
            },
            {
                "start_time": 16.7,
                "end_time": 16.784090909090907,
                "pitch": 61,
                "velocity": 64,
                "duration": 0.08409090909090722,
                "tempo": 120.0
            },
            {
                "start_time": 16.8,
                "end_time": 25.25681818181818,
                "pitch": 73,
                "velocity": 64,
                "duration": 8.456818181818178,
                "tempo": 120.0
            },
            {
                "start_time": 25.25681818181818,
                "end_time": 25.27272727272727,
                "pitch": 66,
                "velocity": 64,
                "duration": 0.01590909090909065,
                "tempo": 120.0
            },
            {
                "start_time": 25.27272727272727,
                "end_time": 25.30681818181818,
                "pitch": 63,
                "velocity": 64,
                "duration": 0.03409090909091006,
                "tempo": 120.0
            },
            {
                "start_time": 25.30681818181818,
                "end_time": 25.325,
                "pitch": 68,
                "velocity": 64,
                "duration": 0.01818181818181941,
                "tempo": 120.0
            },
            {
                "start_time": 25.325,
                "end_time": 25.34090909090909,
                "pitch": 66,
                "velocity": 64,
                "duration": 0.01590909090909065,
                "tempo": 120.0
            },
            {
                "start_time": 25.34090909090909,
                "end_time": 25.39090909090909,
                "pitch": 63,
                "velocity": 64,
                "duration": 0.05000000000000071,
                "tempo": 120.0
            },
            {
                "start_time": 25.39090909090909,
                "end_time": 25.424999999999997,
                "pitch": 66,
                "velocity": 64,
                "duration": 0.03409090909090651,
                "tempo": 120.0
            },
            {
                "start_time": 25.424999999999997,
                "end_time": 25.474999999999998,
                "pitch": 63,
                "velocity": 64,
                "duration": 0.05000000000000071,
                "tempo": 120.0
            },
            {
                "start_time": 25.474999999999998,
                "end_time": 25.543181818181818,
                "pitch": 60,
                "velocity": 64,
                "duration": 0.06818181818182012,
                "tempo": 120.0
            },
            {
                "start_time": 25.543181818181818,
                "end_time": 25.613636363636363,
                "pitch": 63,
                "velocity": 64,
                "duration": 0.07045454545454533,
                "tempo": 120.0
            },
            {
                "start_time": 25.613636363636363,
                "end_time": 25.7,
                "pitch": 61,
                "velocity": 64,
                "duration": 0.08636363636363598,
                "tempo": 120.0
            },
            {
                "start_time": 25.7,
                "end_time": 25.73409090909091,
                "pitch": 67,
                "velocity": 64,
                "duration": 0.03409090909091006,
                "tempo": 120.0
            },
            {
                "start_time": 25.73409090909091,
                "end_time": 25.770454545454545,
                "pitch": 63,
                "velocity": 64,
                "duration": 0.036363636363635266,
                "tempo": 120.0
            },
            {
                "start_time": 25.770454545454545,
                "end_time": 25.786363636363635,
                "pitch": 68,
                "velocity": 64,
                "duration": 0.01590909090909065,
                "tempo": 120.0
            },
            {
                "start_time": 25.786363636363635,
                "end_time": 25.804545454545455,
                "pitch": 66,
                "velocity": 64,
                "duration": 0.01818181818181941,
                "tempo": 120.0
            },
            {
                "start_time": 25.804545454545455,
                "end_time": 25.85681818181818,
                "pitch": 63,
                "velocity": 64,
                "duration": 0.052272727272725916,
                "tempo": 120.0
            },
            {
                "start_time": 25.85681818181818,
                "end_time": 25.89090909090909,
                "pitch": 66,
                "velocity": 64,
                "duration": 0.03409090909091006,
                "tempo": 120.0
            },
            {
                "start_time": 25.89090909090909,
                "end_time": 25.943181818181817,
                "pitch": 63,
                "velocity": 64,
                "duration": 0.052272727272725916,
                "tempo": 120.0
            },
            {
                "start_time": 25.943181818181817,
                "end_time": 26.013636363636362,
                "pitch": 60,
                "velocity": 64,
                "duration": 0.07045454545454533,
                "tempo": 120.0
            },
            {
                "start_time": 26.013636363636362,
                "end_time": 26.081818181818182,
                "pitch": 63,
                "velocity": 64,
                "duration": 0.06818181818182012,
                "tempo": 120.0
            },
            {
                "start_time": 26.081818181818182,
                "end_time": 26.16590909090909,
                "pitch": 61,
                "velocity": 64,
                "duration": 0.08409090909090722,
                "tempo": 120.0
            },
            {
                "start_time": 26.16590909090909,
                "end_time": 26.2,
                "pitch": 66,
                "velocity": 64,
                "duration": 0.03409090909091006,
                "tempo": 120.0
            },
            {
                "start_time": 26.2,
                "end_time": 26.25,
                "pitch": 63,
                "velocity": 64,
                "duration": 0.05000000000000071,
                "tempo": 120.0
            },
            {
                "start_time": 26.25,
                "end_time": 26.31590909090909,
                "pitch": 60,
                "velocity": 64,
                "duration": 0.06590909090909136,
                "tempo": 120.0
            },
            {
                "start_time": 26.31590909090909,
                "end_time": 26.36590909090909,
                "pitch": 63,
                "velocity": 64,
                "duration": 0.04999999999999716,
                "tempo": 120.0
            },
            {
                "start_time": 26.36590909090909,
                "end_time": 26.44772727272727,
                "pitch": 61,
                "velocity": 64,
                "duration": 0.08181818181818201,
                "tempo": 120.0
            }
        ]
    }
}