{
    "track_id": "Fantasy Zone II (FM) - 01 - Title Screen",
    "mood": "happy",
    "instruments": {
        "Clarinet": [
            {
                "start_time": 0.09999999999999999,
                "end_time": 0.1659090909090909,
                "pitch": 72,
                "velocity": 64,
                "duration": 0.0659090909090909,
                "tempo": 120.0
            },
            {
                "start_time": 0.3,
                "end_time": 0.3659090909090909,
                "pitch": 64,
                "velocity": 64,
                "duration": 0.06590909090909092,
                "tempo": 120.0
            },
            {
                "start_time": 0.39999999999999997,
                "end_time": 0.4659090909090909,
                "pitch": 67,
                "velocity": 64,
                "duration": 0.06590909090909092,
                "tempo": 120.0
            },
            {
                "start_time": 0.6,
                "end_time": 0.6659090909090909,
                "pitch": 60,
                "velocity": 64,
                "duration": 0.06590909090909092,
                "tempo": 120.0
            },
            {
                "start_time": 0.7,
                "end_time": 0.7659090909090909,
                "pitch": 64,
                "velocity": 64,
                "duration": 0.06590909090909092,
                "tempo": 120.0
            },
            {
                "start_time": 0.8999999999999999,
                "end_time": 0.9659090909090908,
                "pitch": 67,
                "velocity": 64,
                "duration": 0.06590909090909092,
                "tempo": 120.0
            },
            {
                "start_time": 1.0,
                "end_time": 1.065909090909091,
                "pitch": 72,
                "velocity": 64,
                "duration": 0.06590909090909092,
                "tempo": 120.0
            },
            {
                "start_time": 1.2,
                "end_time": 1.2659090909090909,
                "pitch": 64,
                "velocity": 64,
                "duration": 0.06590909090909092,
                "tempo": 120.0
            },
            {
                "start_time": 1.3,
                "end_time": 1.3659090909090907,
                "pitch": 67,
                "velocity": 64,
                "duration": 0.0659090909090907,
                "tempo": 120.0
            },
            {
                "start_time": 1.5,
                "end_time": 1.565909090909091,
                "pitch": 60,
                "velocity": 64,
                "duration": 0.06590909090909092,
                "tempo": 120.0
            },
            {
                "start_time": 1.5999999999999999,
                "end_time": 1.6681818181818182,
                "pitch": 69,
                "velocity": 64,
                "duration": 0.06818181818181834,
                "tempo": 120.0
            },
            {
                "start_time": 1.7022727272727272,
                "end_time": 1.7704545454545453,
                "pitch": 72,
                "velocity": 64,
                "duration": 0.06818181818181812,
                "tempo": 120.0
            },
            {
                "start_time": 1.909090909090909,
                "end_time": 1.977272727272727,
                "pitch": 65,
                "velocity": 64,
                "duration": 0.06818181818181812,
                "tempo": 120.0
            },
            {
                "start_time": 2.0113636363636362,
                "end_time": 2.0749999999999997,
                "pitch": 69,
                "velocity": 64,
                "duration": 0.06363636363636349,
                "tempo": 120.0
            },
            {
                "start_time": 2.2068181818181816,
                "end_time": 2.2727272727272725,
                "pitch": 60,
                "velocity": 64,
                "duration": 0.06590909090909092,
                "tempo": 120.0
            },
            {
                "start_time": 2.3045454545454542,
                "end_time": 2.370454545454545,
                "pitch": 65,
                "velocity": 64,
                "duration": 0.06590909090909092,
                "tempo": 120.0
            },
            {
                "start_time": 2.5045454545454544,
                "end_time": 2.5749999999999997,
                "pitch": 69,
                "velocity": 64,
                "duration": 0.07045454545454533,
                "tempo": 120.0
            },
            {
                "start_time": 2.609090909090909,
                "end_time": 2.6772727272727272,
                "pitch": 72,
                "velocity": 64,
                "duration": 0.06818181818181834,
                "tempo": 120.0
            },
            {
                "start_time": 2.8136363636363635,
                "end_time": 2.877272727272727,
                "pitch": 65,
                "velocity": 64,
                "duration": 0.06363636363636349,
                "tempo": 120.0
            },
            {
                "start_time": 2.911363636363636,
                "end_time": 2.977272727272727,
                "pitch": 69,
                "velocity": 64,
                "duration": 0.06590909090909092,
                "tempo": 120.0
            },
            {
                "start_time": 3.1068181818181815,
                "end_time": 3.1727272727272724,
                "pitch": 60,
                "velocity": 64,
                "duration": 0.06590909090909092,
                "tempo": 120.0
            },
            {
                "start_time": 3.2045454545454546,
                "end_time": 3.275,
                "pitch": 67,
                "velocity": 64,
                "duration": 0.07045454545454533,
                "tempo": 120.0
            },
            {
                "start_time": 3.309090909090909,
                "end_time": 3.377272727272727,
                "pitch": 72,
                "velocity": 64,
                "duration": 0.0681818181818179,
                "tempo": 120.0
            },
            {
                "start_time": 3.5136363636363637,
                "end_time": 3.5818181818181816,
                "pitch": 64,
                "velocity": 64,
                "duration": 0.0681818181818179,
                "tempo": 120.0
            },
            {
                "start_time": 3.6159090909090907,
                "end_time": 3.6818181818181817,
                "pitch": 67,
                "velocity": 64,
                "duration": 0.06590909090909092,
                "tempo": 120.0
            },
            {
                "start_time": 3.811363636363636,
                "end_time": 3.877272727272727,
                "pitch": 60,
                "velocity": 64,
                "duration": 0.06590909090909092,
                "tempo": 120.0
            },
            {
                "start_time": 3.9090909090909087,
                "end_time": 3.9749999999999996,
                "pitch": 64,
                "velocity": 64,
                "duration": 0.06590909090909092,
                "tempo": 120.0
            },
            {
                "start_time": 4.1090909090909085,
                "end_time": 4.175,
                "pitch": 67,
                "velocity": 64,
                "duration": 0.06590909090909136,
                "tempo": 120.0
            },
            {
                "start_time": 4.209090909090909,
                "end_time": 4.2749999999999995,
                "pitch": 72,
                "velocity": 64,
                "duration": 0.06590909090909047,
                "tempo": 120.0
            },
            {
                "start_time": 4.409090909090909,
                "end_time": 4.475,
                "pitch": 64,
                "velocity": 64,
                "duration": 0.06590909090909047,
                "tempo": 120.0
            },
            {
                "start_time": 4.509090909090909,
                "end_time": 4.575,
                "pitch": 67,
                "velocity": 64,
                "duration": 0.06590909090909136,
                "tempo": 120.0
            },
            {
                "start_time": 4.709090909090909,
                "end_time": 4.7749999999999995,
                "pitch": 60,
                "velocity": 64,
                "duration": 0.06590909090909047,
                "tempo": 120.0
            },
            {
                "start_time": 4.809090909090909,
                "end_time": 4.877272727272727,
                "pitch": 65,
                "velocity": 64,
                "duration": 0.06818181818181834,
                "tempo": 120.0
            },
            {
                "start_time": 4.911363636363636,
                "end_time": 4.9795454545454545,
                "pitch": 67,
                "velocity": 64,
                "duration": 0.06818181818181834,
                "tempo": 120.0
            },
            {
                "start_time": 5.11590909090909,
                "end_time": 5.184090909090909,
                "pitch": 71,
                "velocity": 64,
                "duration": 0.06818181818181834,
                "tempo": 120.0
            },
            {
                "start_time": 5.218181818181818,
                "end_time": 5.284090909090909,
                "pitch": 74,
                "velocity": 64,
                "duration": 0.06590909090909136,
                "tempo": 120.0
            },
            {
                "start_time": 5.413636363636363,
                "end_time": 5.4795454545454545,
                "pitch": 67,
                "velocity": 64,
                "duration": 0.06590909090909136,
                "tempo": 120.0
            },
            {
                "start_time": 5.513636363636364,
                "end_time": 5.577272727272727,
                "pitch": 71,
                "velocity": 64,
                "duration": 0.06363636363636349,
                "tempo": 120.0
            },
            {
                "start_time": 5.711363636363636,
                "end_time": 5.779545454545454,
                "pitch": 62,
                "velocity": 64,
                "duration": 0.06818181818181834,
                "tempo": 120.0
            },
            {
                "start_time": 5.8113636363636365,
                "end_time": 5.879545454545454,
                "pitch": 65,
                "velocity": 64,
                "duration": 0.06818181818181746,
                "tempo": 120.0
            },
            {
                "start_time": 6.013636363636364,
                "end_time": 6.081818181818181,
                "pitch": 59,
                "velocity": 64,
                "duration": 0.06818181818181746,
                "tempo": 120.0
            },
            {
                "start_time": 6.113636363636363,
                "end_time": 6.181818181818182,
                "pitch": 67,
                "velocity": 64,
                "duration": 0.06818181818181834,
                "tempo": 120.0
            },
            {
                "start_time": 6.3159090909090905,
                "end_time": 6.381818181818182,
                "pitch": 62,
                "velocity": 64,
                "duration": 0.06590909090909136,
                "tempo": 120.0
            },
            {
                "start_time": 6.415909090909091,
                "end_time": 6.4840909090909085,
                "pitch": 64,
                "velocity": 64,
                "duration": 0.06818181818181746,
                "tempo": 120.0
            },
            {
                "start_time": 6.5204545454545455,
                "end_time": 6.588636363636363,
                "pitch": 65,
                "velocity": 64,
                "duration": 0.06818181818181746,
                "tempo": 120.0
            },
            {
                "start_time": 6.725,
                "end_time": 6.793181818181818,
                "pitch": 63,
                "velocity": 64,
                "duration": 0.06818181818181834,
                "tempo": 120.0
            },
            {
                "start_time": 6.827272727272727,
                "end_time": 6.893181818181818,
                "pitch": 64,
                "velocity": 64,
                "duration": 0.06590909090909047,
                "tempo": 120.0
            },
            {
                "start_time": 7.0227272727272725,
                "end_time": 7.088636363636363,
                "pitch": 64,
                "velocity": 64,
                "duration": 0.06590909090909047,
                "tempo": 120.0
            },
            {
                "start_time": 7.120454545454545,
                "end_time": 7.186363636363636,
                "pitch": 65,
                "velocity": 64,
                "duration": 0.06590909090909047,
                "tempo": 120.0
            },
            {
                "start_time": 7.322727272727272,
                "end_time": 7.390909090909091,
                "pitch": 63,
                "velocity": 64,
                "duration": 0.06818181818181834,
                "tempo": 120.0
            },
            {
                "start_time": 7.425,
                "end_time": 7.493181818181818,
                "pitch": 64,
                "velocity": 64,
                "duration": 0.06818181818181834,
                "tempo": 120.0
            },
            {
                "start_time": 7.629545454545454,
                "end_time": 7.727272727272727,
                "pitch": 64,
                "velocity": 64,
                "duration": 0.09772727272727266,
                "tempo": 120.0
            },
            {
                "start_time": 7.759090909090909,
                "end_time": 7.8590909090909085,
                "pitch": 66,
                "velocity": 64,
                "duration": 0.09999999999999964,
                "tempo": 120.0
            },
            {
                "start_time": 7.890909090909091,
                "end_time": 7.988636363636363,
                "pitch": 68,
                "velocity": 64,
                "duration": 0.09772727272727266,
                "tempo": 120.0
            },
            {
                "start_time": 8.022727272727272,
                "end_time": 8.09090909090909,
                "pitch": 69,
                "velocity": 64,
                "duration": 0.06818181818181834,
                "tempo": 120.0
            },
            {
                "start_time": 8.125,
                "end_time": 8.193181818181818,
                "pitch": 72,
                "velocity": 64,
                "duration": 0.06818181818181834,
                "tempo": 120.0
            },
            {
                "start_time": 8.329545454545453,
                "end_time": 8.397727272727272,
                "pitch": 68,
                "velocity": 64,
                "duration": 0.06818181818181834,
                "tempo": 120.0
            },
            {
                "start_time": 8.431818181818182,
                "end_time": 8.497727272727273,
                "pitch": 69,
                "velocity": 64,
                "duration": 0.06590909090909136,
                "tempo": 120.0
            },
            {
                "start_time": 8.627272727272727,
                "end_time": 8.693181818181818,
                "pitch": 69,
                "velocity": 64,
                "duration": 0.06590909090909136,
                "tempo": 120.0
            },
            {
                "start_time": 8.725,
                "end_time": 8.790909090909091,
                "pitch": 72,
                "velocity": 64,
                "duration": 0.06590909090909136,
                "tempo": 120.0
            },
            {
                "start_time": 8.927272727272728,
                "end_time": 8.995454545454544,
                "pitch": 68,
                "velocity": 64,
                "duration": 0.06818181818181657,
                "tempo": 120.0
            },
            {
                "start_time": 9.029545454545454,
                "end_time": 9.097727272727273,
                "pitch": 69,
                "velocity": 64,
                "duration": 0.06818181818181834,
                "tempo": 120.0
            },
            {
                "start_time": 9.23409090909091,
                "end_time": 9.331818181818182,
                "pitch": 69,
                "velocity": 64,
                "duration": 0.09772727272727266,
                "tempo": 120.0
            },
            {
                "start_time": 9.36590909090909,
                "end_time": 9.463636363636363,
                "pitch": 71,
                "velocity": 64,
                "duration": 0.09772727272727266,
                "tempo": 120.0
            },
            {
                "start_time": 9.495454545454544,
                "end_time": 9.593181818181817,
                "pitch": 72,
                "velocity": 64,
                "duration": 0.09772727272727266,
                "tempo": 120.0
            },
            {
                "start_time": 9.627272727272727,
                "end_time": 9.695454545454545,
                "pitch": 77,
                "velocity": 64,
                "duration": 0.06818181818181834,
                "tempo": 120.0
            },
            {
                "start_time": 9.729545454545454,
                "end_time": 9.797727272727272,
                "pitch": 74,
                "velocity": 64,
                "duration": 0.06818181818181834,
                "tempo": 120.0
            },
            {
                "start_time": 9.936363636363636,
                "end_time": 10.004545454545454,
                "pitch": 78,
                "velocity": 64,
                "duration": 0.06818181818181834,
                "tempo": 120.0
            },
            {
                "start_time": 10.036363636363635,
                "end_time": 10.102272727272727,
                "pitch": 75,
                "velocity": 64,
                "duration": 0.06590909090909136,
                "tempo": 120.0
            },
            {
                "start_time": 10.23409090909091,
                "end_time": 10.297727272727272,
                "pitch": 79,
                "velocity": 64,
                "duration": 0.0636363636363626,
                "tempo": 120.0
            },
            {
                "start_time": 10.331818181818182,
                "end_time": 10.397727272727272,
                "pitch": 76,
                "velocity": 64,
                "duration": 0.06590909090908958,
                "tempo": 120.0
            },
            {
                "start_time": 10.529545454545454,
                "end_time": 10.597727272727273,
                "pitch": 78,
                "velocity": 64,
                "duration": 0.06818181818181834,
                "tempo": 120.0
            },
            {
                "start_time": 10.631818181818181,
                "end_time": 10.697727272727272,
                "pitch": 75,
                "velocity": 64,
                "duration": 0.06590909090909136,
                "tempo": 120.0
            },
            {
                "start_time": 10.831818181818182,
                "end_time": 10.9,
                "pitch": 77,
                "velocity": 64,
                "duration": 0.06818181818181834,
                "tempo": 120.0
            },
            {
                "start_time": 10.931818181818182,
                "end_time": 11.0,
                "pitch": 74,
                "velocity": 64,
                "duration": 0.06818181818181834,
                "tempo": 120.0
            },
            {
                "start_time": 11.131818181818181,
                "end_time": 11.2,
                "pitch": 75,
                "velocity": 64,
                "duration": 0.06818181818181834,
                "tempo": 120.0
            },
            {
                "start_time": 11.23181818181818,
                "end_time": 14.418181818181818,
                "pitch": 76,
                "velocity": 64,
                "duration": 3.1863636363636374,
                "tempo": 120.0
            },
            {
                "start_time": 14.452272727272726,
                "end_time": 14.520454545454545,
                "pitch": 60,
                "velocity": 64,
                "duration": 0.06818181818181834,
                "tempo": 120.0
            },
            {
                "start_time": 14.554545454545455,
                "end_time": 14.622727272727271,
                "pitch": 65,
                "velocity": 64,
                "duration": 0.06818181818181657,
                "tempo": 120.0
            },
            {
                "start_time": 14.759090909090908,
                "end_time": 14.827272727272726,
                "pitch": 62,
                "velocity": 64,
                "duration": 0.06818181818181834,
                "tempo": 120.0
            },
            {
                "start_time": 14.861363636363636,
                "end_time": 14.927272727272726,
                "pitch": 67,
                "velocity": 64,
                "duration": 0.06590909090908958,
                "tempo": 120.0
            },
            {
                "start_time": 15.056818181818182,
                "end_time": 15.122727272727271,
                "pitch": 64,
                "velocity": 64,
                "duration": 0.06590909090908958,
                "tempo": 120.0
            },
            {
                "start_time": 15.156818181818181,
                "end_time": 15.220454545454544,
                "pitch": 69,
                "velocity": 64,
                "duration": 0.0636363636363626,
                "tempo": 120.0
            },
            {
                "start_time": 15.354545454545454,
                "end_time": 15.422727272727272,
                "pitch": 65,
                "velocity": 64,
                "duration": 0.06818181818181834,
                "tempo": 120.0
            },
            {
                "start_time": 15.45681818181818,
                "end_time": 15.522727272727272,
                "pitch": 71,
                "velocity": 64,
                "duration": 0.06590909090909136,
                "tempo": 120.0
            },
            {
                "start_time": 15.656818181818181,
                "end_time": 15.725,
                "pitch": 67,
                "velocity": 64,
                "duration": 0.06818181818181834,
                "tempo": 120.0
            },
            {
                "start_time": 15.756818181818181,
                "end_time": 15.825,
                "pitch": 71,
                "velocity": 64,
                "duration": 0.06818181818181834,
                "tempo": 120.0
            },
            {
                "start_time": 15.959090909090909,
                "end_time": 16.027272727272727,
                "pitch": 74,
                "velocity": 64,
                "duration": 0.06818181818181834,
                "tempo": 120.0
            },
            {
                "start_time": 16.05909090909091,
                "end_time": 16.429545454545455,
                "pitch": 72,
                "velocity": 64,
                "duration": 0.37045454545454604,
                "tempo": 120.0
            },
            {
                "start_time": 16.561363636363634,
                "end_time": 16.629545454545454,
                "pitch": 66,
                "velocity": 64,
                "duration": 0.06818181818182012,
                "tempo": 120.0
            },
            {
                "start_time": 16.661363636363635,
                "end_time": 16.729545454545455,
                "pitch": 67,
                "velocity": 64,
                "duration": 0.06818181818182012,
                "tempo": 120.0
            },
            {
                "start_time": 16.761363636363637,
                "end_time": 16.829545454545453,
                "pitch": 64,
                "velocity": 64,
                "duration": 0.06818181818181657,
                "tempo": 120.0
            },
            {
                "start_time": 16.861363636363635,
                "end_time": 17.23181818181818,
                "pitch": 60,
                "velocity": 64,
                "duration": 0.37045454545454604,
                "tempo": 120.0
            }
        ],
        "Electric Guitar (clean)": [
            {
                "start_time": 0.39999999999999997,
                "end_time": 0.7659090909090909,
                "pitch": 40,
                "velocity": 40,
                "duration": 0.3659090909090909,
                "tempo": 120.0
            },
            {
                "start_time": 0.7999999999999999,
                "end_time": 1.1659090909090908,
                "pitch": 43,
                "velocity": 40,
                "duration": 0.36590909090909085,
                "tempo": 120.0
            },
            {
                "start_time": 1.2,
                "end_time": 1.3,
                "pitch": 43,
                "velocity": 40,
                "duration": 0.10000000000000009,
                "tempo": 120.0
            },
            {
                "start_time": 1.334090909090909,
                "end_time": 1.434090909090909,
                "pitch": 45,
                "velocity": 40,
                "duration": 0.10000000000000009,
                "tempo": 120.0
            },
            {
                "start_time": 1.4659090909090908,
                "end_time": 1.565909090909091,
                "pitch": 47,
                "velocity": 40,
                "duration": 0.10000000000000009,
                "tempo": 120.0
            },
            {
                "start_time": 1.5999999999999999,
                "end_time": 1.977272727272727,
                "pitch": 48,
                "velocity": 40,
                "duration": 0.3772727272727272,
                "tempo": 120.0
            },
            {
                "start_time": 2.0113636363636362,
                "end_time": 2.370454545454545,
                "pitch": 45,
                "velocity": 40,
                "duration": 0.3590909090909089,
                "tempo": 120.0
            },
            {
                "start_time": 2.4022727272727273,
                "end_time": 2.7795454545454543,
                "pitch": 41,
                "velocity": 40,
                "duration": 0.377272727272727,
                "tempo": 120.0
            },
            {
                "start_time": 2.8136363636363635,
                "end_time": 2.911363636363636,
                "pitch": 48,
                "velocity": 40,
                "duration": 0.09772727272727266,
                "tempo": 120.0
            },
            {
                "start_time": 2.943181818181818,
                "end_time": 3.0409090909090906,
                "pitch": 47,
                "velocity": 40,
                "duration": 0.09772727272727266,
                "tempo": 120.0
            },
            {
                "start_time": 3.0749999999999997,
                "end_time": 3.1727272727272724,
                "pitch": 45,
                "velocity": 40,
                "duration": 0.09772727272727266,
                "tempo": 120.0
            },
            {
                "start_time": 3.2045454545454546,
                "end_time": 3.5818181818181816,
                "pitch": 43,
                "velocity": 40,
                "duration": 0.377272727272727,
                "tempo": 120.0
            },
            {
                "start_time": 3.6159090909090907,
                "end_time": 3.9749999999999996,
                "pitch": 48,
                "velocity": 40,
                "duration": 0.3590909090909089,
                "tempo": 120.0
            },
            {
                "start_time": 4.009090909090909,
                "end_time": 4.375,
                "pitch": 40,
                "velocity": 40,
                "duration": 0.3659090909090912,
                "tempo": 120.0
            },
            {
                "start_time": 4.409090909090909,
                "end_time": 4.7749999999999995,
                "pitch": 43,
                "velocity": 40,
                "duration": 0.3659090909090903,
                "tempo": 120.0
            },
            {
                "start_time": 4.809090909090909,
                "end_time": 5.184090909090909,
                "pitch": 41,
                "velocity": 40,
                "duration": 0.375,
                "tempo": 120.0
            },
            {
                "start_time": 5.218181818181818,
                "end_time": 5.577272727272727,
                "pitch": 43,
                "velocity": 40,
                "duration": 0.35909090909090935,
                "tempo": 120.0
            },
            {
                "start_time": 5.611363636363636,
                "end_time": 5.9795454545454545,
                "pitch": 31,
                "velocity": 40,
                "duration": 0.36818181818181817,
                "tempo": 120.0
            },
            {
                "start_time": 6.013636363636364,
                "end_time": 6.113636363636363,
                "pitch": 31,
                "velocity": 40,
                "duration": 0.09999999999999964,
                "tempo": 120.0
            },
            {
                "start_time": 6.1477272727272725,
                "end_time": 6.247727272727272,
                "pitch": 35,
                "velocity": 40,
                "duration": 0.09999999999999964,
                "tempo": 120.0
            },
            {
                "start_time": 6.281818181818181,
                "end_time": 6.381818181818182,
                "pitch": 38,
                "velocity": 40,
                "duration": 0.10000000000000053,
                "tempo": 120.0
            },
            {
                "start_time": 6.415909090909091,
                "end_time": 6.793181818181818,
                "pitch": 40,
                "velocity": 40,
                "duration": 0.377272727272727,
                "tempo": 120.0
            },
            {
                "start_time": 6.827272727272727,
                "end_time": 7.186363636363636,
                "pitch": 44,
                "velocity": 40,
                "duration": 0.35909090909090846,
                "tempo": 120.0
            },
            {
                "start_time": 7.220454545454545,
                "end_time": 7.595454545454545,
                "pitch": 47,
                "velocity": 40,
                "duration": 0.375,
                "tempo": 120.0
            },
            {
                "start_time": 7.629545454545454,
                "end_time": 7.988636363636363,
                "pitch": 44,
                "velocity": 40,
                "duration": 0.35909090909090935,
                "tempo": 120.0
            },
            {
                "start_time": 8.022727272727272,
                "end_time": 8.397727272727272,
                "pitch": 40,
                "velocity": 40,
                "duration": 0.375,
                "tempo": 120.0
            },
            {
                "start_time": 8.431818181818182,
                "end_time": 8.790909090909091,
                "pitch": 45,
                "velocity": 40,
                "duration": 0.35909090909090935,
                "tempo": 120.0
            },
            {
                "start_time": 8.825,
                "end_time": 9.202272727272726,
                "pitch": 48,
                "velocity": 40,
                "duration": 0.377272727272727,
                "tempo": 120.0
            },
            {
                "start_time": 9.23409090909091,
                "end_time": 9.593181818181817,
                "pitch": 45,
                "velocity": 40,
                "duration": 0.3590909090909076,
                "tempo": 120.0
            },
            {
                "start_time": 9.729545454545454,
                "end_time": 9.797727272727272,
                "pitch": 41,
                "velocity": 40,
                "duration": 0.06818181818181834,
                "tempo": 120.0
            },
            {
                "start_time": 10.036363636363635,
                "end_time": 10.102272727272727,
                "pitch": 42,
                "velocity": 40,
                "duration": 0.06590909090909136,
                "tempo": 120.0
            },
            {
                "start_time": 10.331818181818182,
                "end_time": 10.397727272727272,
                "pitch": 43,
                "velocity": 40,
                "duration": 0.06590909090908958,
                "tempo": 120.0
            },
            {
                "start_time": 10.631818181818181,
                "end_time": 10.697727272727272,
                "pitch": 42,
                "velocity": 40,
                "duration": 0.06590909090909136,
                "tempo": 120.0
            },
            {
                "start_time": 10.931818181818182,
                "end_time": 11.0,
                "pitch": 41,
                "velocity": 40,
                "duration": 0.06818181818181834,
                "tempo": 120.0
            },
            {
                "start_time": 11.23181818181818,
                "end_time": 12.004545454545454,
                "pitch": 40,
                "velocity": 40,
                "duration": 0.7727272727272734,
                "tempo": 120.0
            },
            {
                "start_time": 12.038636363636362,
                "end_time": 12.406818181818181,
                "pitch": 44,
                "velocity": 40,
                "duration": 0.36818181818181905,
                "tempo": 120.0
            },
            {
                "start_time": 12.44090909090909,
                "end_time": 12.809090909090909,
                "pitch": 47,
                "velocity": 40,
                "duration": 0.36818181818181905,
                "tempo": 120.0
            },
            {
                "start_time": 12.843181818181817,
                "end_time": 13.613636363636363,
                "pitch": 40,
                "velocity": 40,
                "duration": 0.7704545454545464,
                "tempo": 120.0
            },
            {
                "start_time": 13.645454545454545,
                "end_time": 14.01590909090909,
                "pitch": 38,
                "velocity": 40,
                "duration": 0.37045454545454604,
                "tempo": 120.0
            },
            {
                "start_time": 14.047727272727272,
                "end_time": 14.418181818181818,
                "pitch": 37,
                "velocity": 40,
                "duration": 0.37045454545454604,
                "tempo": 120.0
            },
            {
                "start_time": 14.452272727272726,
                "end_time": 14.520454545454545,
                "pitch": 36,
                "velocity": 40,
                "duration": 0.06818181818181834,
                "tempo": 120.0
            },
            {
                "start_time": 14.554545454545455,
                "end_time": 14.622727272727271,
                "pitch": 41,
                "velocity": 40,
                "duration": 0.06818181818181657,
                "tempo": 120.0
            },
            {
                "start_time": 14.861363636363636,
                "end_time": 14.927272727272726,
                "pitch": 43,
                "velocity": 40,
                "duration": 0.06590909090908958,
                "tempo": 120.0
            },
            {
                "start_time": 15.156818181818181,
                "end_time": 15.220454545454544,
                "pitch": 45,
                "velocity": 40,
                "duration": 0.0636363636363626,
                "tempo": 120.0
            },
            {
                "start_time": 15.354545454545454,
                "end_time": 15.422727272727272,
                "pitch": 47,
                "velocity": 40,
                "duration": 0.06818181818181834,
                "tempo": 120.0
            },
            {
                "start_time": 15.656818181818181,
                "end_time": 15.825,
                "pitch": 47,
                "velocity": 40,
                "duration": 0.168181818181818,
                "tempo": 120.0
            },
            {
                "start_time": 16.05909090909091,
                "end_time": 16.429545454545455,
                "pitch": 48,
                "velocity": 40,
                "duration": 0.37045454545454604,
                "tempo": 120.0
            },
            {
                "start_time": 16.561363636363634,
                "end_time": 16.629545454545454,
                "pitch": 51,
                "velocity": 40,
                "duration": 0.06818181818182012,
                "tempo": 120.0
            },
            {
                "start_time": 16.661363636363635,
                "end_time": 16.729545454545455,
                "pitch": 40,
                "velocity": 40,
                "duration": 0.06818181818182012,
                "tempo": 120.0
            },
            {
                "start_time": 16.761363636363637,
                "end_time": 16.829545454545453,
                "pitch": 48,
                "velocity": 40,
                "duration": 0.06818181818181657,
                "tempo": 120.0
            },
            {
                "start_time": 16.861363636363635,
                "end_time": 17.23181818181818,
                "pitch": 36,
                "velocity": 40,
                "duration": 0.37045454545454604,
                "tempo": 120.0
            }
        ],
        "Oboe": [
            {
                "start_time": 0.09999999999999999,
                "end_time": 0.1659090909090909,
                "pitch": 55,
                "velocity": 64,
                "duration": 0.0659090909090909,
                "tempo": 120.0
            },
            {
                "start_time": 0.3,
                "end_time": 0.3659090909090909,
                "pitch": 48,
                "velocity": 64,
                "duration": 0.06590909090909092,
                "tempo": 120.0
            },
            {
                "start_time": 0.39999999999999997,
                "end_time": 0.4659090909090909,
                "pitch": 52,
                "velocity": 64,
                "duration": 0.06590909090909092,
                "tempo": 120.0
            },
            {
                "start_time": 0.6,
                "end_time": 0.6659090909090909,
                "pitch": 43,
                "velocity": 64,
                "duration": 0.06590909090909092,
                "tempo": 120.0
            },
            {
                "start_time": 0.7,
                "end_time": 0.7659090909090909,
                "pitch": 48,
                "velocity": 64,
                "duration": 0.06590909090909092,
                "tempo": 120.0
            },
            {
                "start_time": 0.8999999999999999,
                "end_time": 0.9659090909090908,
                "pitch": 52,
                "velocity": 64,
                "duration": 0.06590909090909092,
                "tempo": 120.0
            },
            {
                "start_time": 1.0,
                "end_time": 1.065909090909091,
                "pitch": 55,
                "velocity": 64,
                "duration": 0.06590909090909092,
                "tempo": 120.0
            },
            {
                "start_time": 1.2,
                "end_time": 1.2659090909090909,
                "pitch": 48,
                "velocity": 64,
                "duration": 0.06590909090909092,
                "tempo": 120.0
            },
            {
                "start_time": 1.3,
                "end_time": 1.3659090909090907,
                "pitch": 52,
                "velocity": 64,
                "duration": 0.0659090909090907,
                "tempo": 120.0
            },
            {
                "start_time": 1.5,
                "end_time": 1.565909090909091,
                "pitch": 43,
                "velocity": 64,
                "duration": 0.06590909090909092,
                "tempo": 120.0
            },
            {
                "start_time": 1.5999999999999999,
                "end_time": 1.6681818181818182,
                "pitch": 53,
                "velocity": 64,
                "duration": 0.06818181818181834,
                "tempo": 120.0
            },
            {
                "start_time": 1.7022727272727272,
                "end_time": 1.7704545454545453,
                "pitch": 57,
                "velocity": 64,
                "duration": 0.06818181818181812,
                "tempo": 120.0
            },
            {
                "start_time": 1.909090909090909,
                "end_time": 1.977272727272727,
                "pitch": 48,
                "velocity": 64,
                "duration": 0.06818181818181812,
                "tempo": 120.0
            },
            {
                "start_time": 2.0113636363636362,
                "end_time": 2.0749999999999997,
                "pitch": 53,
                "velocity": 64,
                "duration": 0.06363636363636349,
                "tempo": 120.0
            },
            {
                "start_time": 2.2068181818181816,
                "end_time": 2.2727272727272725,
                "pitch": 45,
                "velocity": 64,
                "duration": 0.06590909090909092,
                "tempo": 120.0
            },
            {
                "start_time": 2.3045454545454542,
                "end_time": 2.370454545454545,
                "pitch": 48,
                "velocity": 64,
                "duration": 0.06590909090909092,
                "tempo": 120.0
            },
            {
                "start_time": 2.5045454545454544,
                "end_time": 2.5749999999999997,
                "pitch": 53,
                "velocity": 64,
                "duration": 0.07045454545454533,
                "tempo": 120.0
            },
            {
                "start_time": 2.609090909090909,
                "end_time": 2.6772727272727272,
                "pitch": 57,
                "velocity": 64,
                "duration": 0.06818181818181834,
                "tempo": 120.0
            },
            {
                "start_time": 2.8136363636363635,
                "end_time": 2.877272727272727,
                "pitch": 48,
                "velocity": 64,
                "duration": 0.06363636363636349,
                "tempo": 120.0
            },
            {
                "start_time": 2.911363636363636,
                "end_time": 2.977272727272727,
                "pitch": 53,
                "velocity": 64,
                "duration": 0.06590909090909092,
                "tempo": 120.0
            },
            {
                "start_time": 3.1068181818181815,
                "end_time": 3.1727272727272724,
                "pitch": 45,
                "velocity": 64,
                "duration": 0.06590909090909092,
                "tempo": 120.0
            },
            {
                "start_time": 3.2045454545454546,
                "end_time": 3.275,
                "pitch": 52,
                "velocity": 64,
                "duration": 0.07045454545454533,
                "tempo": 120.0
            },
            {
                "start_time": 3.309090909090909,
                "end_time": 3.377272727272727,
                "pitch": 55,
                "velocity": 64,
                "duration": 0.0681818181818179,
                "tempo": 120.0
            },
            {
                "start_time": 3.5136363636363637,
                "end_time": 3.5818181818181816,
                "pitch": 48,
                "velocity": 64,
                "duration": 0.0681818181818179,
                "tempo": 120.0
            },
            {
                "start_time": 3.6159090909090907,
                "end_time": 3.6818181818181817,
                "pitch": 52,
                "velocity": 64,
                "duration": 0.06590909090909092,
                "tempo": 120.0
            },
            {
                "start_time": 3.811363636363636,
                "end_time": 3.877272727272727,
                "pitch": 43,
                "velocity": 64,
                "duration": 0.06590909090909092,
                "tempo": 120.0
            },
            {
                "start_time": 3.9090909090909087,
                "end_time": 3.9749999999999996,
                "pitch": 48,
                "velocity": 64,
                "duration": 0.06590909090909092,
                "tempo": 120.0
            },
            {
                "start_time": 4.1090909090909085,
                "end_time": 4.175,
                "pitch": 52,
                "velocity": 64,
                "duration": 0.06590909090909136,
                "tempo": 120.0
            },
            {
                "start_time": 4.209090909090909,
                "end_time": 4.2749999999999995,
                "pitch": 53,
                "velocity": 64,
                "duration": 0.06590909090909047,
                "tempo": 120.0
            },
            {
                "start_time": 4.409090909090909,
                "end_time": 4.475,
                "pitch": 48,
                "velocity": 64,
                "duration": 0.06590909090909047,
                "tempo": 120.0
            },
            {
                "start_time": 4.509090909090909,
                "end_time": 4.575,
                "pitch": 52,
                "velocity": 64,
                "duration": 0.06590909090909136,
                "tempo": 120.0
            },
            {
                "start_time": 4.709090909090909,
                "end_time": 4.7749999999999995,
                "pitch": 43,
                "velocity": 64,
                "duration": 0.06590909090909047,
                "tempo": 120.0
            },
            {
                "start_time": 4.809090909090909,
                "end_time": 4.877272727272727,
                "pitch": 50,
                "velocity": 64,
                "duration": 0.06818181818181834,
                "tempo": 120.0
            },
            {
                "start_time": 4.911363636363636,
                "end_time": 4.9795454545454545,
                "pitch": 52,
                "velocity": 64,
                "duration": 0.06818181818181834,
                "tempo": 120.0
            },
            {
                "start_time": 5.11590909090909,
                "end_time": 5.184090909090909,
                "pitch": 55,
                "velocity": 64,
                "duration": 0.06818181818181834,
                "tempo": 120.0
            },
            {
                "start_time": 5.218181818181818,
                "end_time": 5.284090909090909,
                "pitch": 59,
                "velocity": 64,
                "duration": 0.06590909090909136,
                "tempo": 120.0
            },
            {
                "start_time": 5.413636363636363,
                "end_time": 5.4795454545454545,
                "pitch": 50,
                "velocity": 64,
                "duration": 0.06590909090909136,
                "tempo": 120.0
            },
            {
                "start_time": 5.513636363636364,
                "end_time": 5.577272727272727,
                "pitch": 55,
                "velocity": 64,
                "duration": 0.06363636363636349,
                "tempo": 120.0
            },
            {
                "start_time": 5.711363636363636,
                "end_time": 5.779545454545454,
                "pitch": 47,
                "velocity": 64,
                "duration": 0.06818181818181834,
                "tempo": 120.0
            },
            {
                "start_time": 5.8113636363636365,
                "end_time": 5.879545454545454,
                "pitch": 50,
                "velocity": 64,
                "duration": 0.06818181818181746,
                "tempo": 120.0
            },
            {
                "start_time": 6.013636363636364,
                "end_time": 6.081818181818181,
                "pitch": 43,
                "velocity": 64,
                "duration": 0.06818181818181746,
                "tempo": 120.0
            },
            {
                "start_time": 6.113636363636363,
                "end_time": 6.181818181818182,
                "pitch": 50,
                "velocity": 64,
                "duration": 0.06818181818181834,
                "tempo": 120.0
            },
            {
                "start_time": 6.3159090909090905,
                "end_time": 6.381818181818182,
                "pitch": 47,
                "velocity": 64,
                "duration": 0.06590909090909136,
                "tempo": 120.0
            },
            {
                "start_time": 6.415909090909091,
                "end_time": 7.988636363636363,
                "pitch": 44,
                "velocity": 64,
                "duration": 1.5727272727272723,
                "tempo": 120.0
            },
            {
                "start_time": 8.022727272727272,
                "end_time": 9.593181818181817,
                "pitch": 45,
                "velocity": 64,
                "duration": 1.5704545454545453,
                "tempo": 120.0
            },
            {
                "start_time": 9.627272727272727,
                "end_time": 9.695454545454545,
                "pitch": 65,
                "velocity": 64,
                "duration": 0.06818181818181834,
                "tempo": 120.0
            },
            {
                "start_time": 9.936363636363636,
                "end_time": 10.004545454545454,
                "pitch": 66,
                "velocity": 64,
                "duration": 0.06818181818181834,
                "tempo": 120.0
            },
            {
                "start_time": 10.23409090909091,
                "end_time": 10.297727272727272,
                "pitch": 67,
                "velocity": 64,
                "duration": 0.0636363636363626,
                "tempo": 120.0
            },
            {
                "start_time": 10.529545454545454,
                "end_time": 10.597727272727273,
                "pitch": 66,
                "velocity": 64,
                "duration": 0.06818181818181834,
                "tempo": 120.0
            },
            {
                "start_time": 10.831818181818182,
                "end_time": 10.9,
                "pitch": 65,
                "velocity": 64,
                "duration": 0.06818181818181834,
                "tempo": 120.0
            },
            {
                "start_time": 11.23181818181818,
                "end_time": 11.299999999999999,
                "pitch": 64,
                "velocity": 64,
                "duration": 0.06818181818181834,
                "tempo": 120.0
            },
            {
                "start_time": 11.334090909090909,
                "end_time": 11.399999999999999,
                "pitch": 65,
                "velocity": 64,
                "duration": 0.06590909090908958,
                "tempo": 120.0
            },
            {
                "start_time": 11.434090909090909,
                "end_time": 11.5,
                "pitch": 64,
                "velocity": 64,
                "duration": 0.06590909090909136,
                "tempo": 120.0
            },
            {
                "start_time": 11.534090909090908,
                "end_time": 11.602272727272727,
                "pitch": 63,
                "velocity": 64,
                "duration": 0.06818181818181834,
                "tempo": 120.0
            },
            {
                "start_time": 11.636363636363637,
                "end_time": 11.702272727272726,
                "pitch": 64,
                "velocity": 64,
                "duration": 0.06590909090908958,
                "tempo": 120.0
            },
            {
                "start_time": 11.736363636363636,
                "end_time": 11.802272727272726,
                "pitch": 65,
                "velocity": 64,
                "duration": 0.06590909090908958,
                "tempo": 120.0
            },
            {
                "start_time": 11.836363636363636,
                "end_time": 11.904545454545454,
                "pitch": 64,
                "velocity": 64,
                "duration": 0.06818181818181834,
                "tempo": 120.0
            },
            {
                "start_time": 11.936363636363636,
                "end_time": 12.004545454545454,
                "pitch": 63,
                "velocity": 64,
                "duration": 0.06818181818181834,
                "tempo": 120.0
            },
            {
                "start_time": 12.038636363636362,
                "end_time": 12.104545454545454,
                "pitch": 64,
                "velocity": 64,
                "duration": 0.06590909090909136,
                "tempo": 120.0
            },
            {
                "start_time": 12.138636363636364,
                "end_time": 12.206818181818182,
                "pitch": 65,
                "velocity": 64,
                "duration": 0.06818181818181834,
                "tempo": 120.0
            },
            {
                "start_time": 12.238636363636363,
                "end_time": 12.306818181818182,
                "pitch": 66,
                "velocity": 64,
                "duration": 0.06818181818181834,
                "tempo": 120.0
            },
            {
                "start_time": 12.34090909090909,
                "end_time": 12.406818181818181,
                "pitch": 67,
                "velocity": 64,
                "duration": 0.06590909090909136,
                "tempo": 120.0
            },
            {
                "start_time": 12.44090909090909,
                "end_time": 12.506818181818181,
                "pitch": 68,
                "velocity": 64,
                "duration": 0.06590909090909136,
                "tempo": 120.0
            },
            {
                "start_time": 12.540909090909091,
                "end_time": 12.60909090909091,
                "pitch": 67,
                "velocity": 64,
                "duration": 0.06818181818181834,
                "tempo": 120.0
            },
            {
                "start_time": 12.643181818181818,
                "end_time": 12.709090909090909,
                "pitch": 66,
                "velocity": 64,
                "duration": 0.06590909090909136,
                "tempo": 120.0
            },
            {
                "start_time": 12.743181818181817,
                "end_time": 12.809090909090909,
                "pitch": 65,
                "velocity": 64,
                "duration": 0.06590909090909136,
                "tempo": 120.0
            },
            {
                "start_time": 12.843181818181817,
                "end_time": 12.909090909090908,
                "pitch": 64,
                "velocity": 64,
                "duration": 0.06590909090909136,
                "tempo": 120.0
            },
            {
                "start_time": 12.943181818181818,
                "end_time": 13.009090909090908,
                "pitch": 65,
                "velocity": 64,
                "duration": 0.06590909090908958,
                "tempo": 120.0
            },
            {
                "start_time": 13.043181818181818,
                "end_time": 13.109090909090908,
                "pitch": 64,
                "velocity": 64,
                "duration": 0.06590909090908958,
                "tempo": 120.0
            },
            {
                "start_time": 13.143181818181818,
                "end_time": 13.209090909090909,
                "pitch": 63,
                "velocity": 64,
                "duration": 0.06590909090909136,
                "tempo": 120.0
            },
            {
                "start_time": 13.243181818181817,
                "end_time": 13.311363636363636,
                "pitch": 64,
                "velocity": 64,
                "duration": 0.06818181818181834,
                "tempo": 120.0
            },
            {
                "start_time": 13.343181818181817,
                "end_time": 13.411363636363635,
                "pitch": 65,
                "velocity": 64,
                "duration": 0.06818181818181834,
                "tempo": 120.0
            },
            {
                "start_time": 13.445454545454545,
                "end_time": 13.511363636363635,
                "pitch": 64,
                "velocity": 64,
                "duration": 0.06590909090908958,
                "tempo": 120.0
            },
            {
                "start_time": 13.545454545454545,
                "end_time": 13.613636363636363,
                "pitch": 63,
                "velocity": 64,
                "duration": 0.06818181818181834,
                "tempo": 120.0
            },
            {
                "start_time": 13.645454545454545,
                "end_time": 13.713636363636363,
                "pitch": 64,
                "velocity": 64,
                "duration": 0.06818181818181834,
                "tempo": 120.0
            },
            {
                "start_time": 13.747727272727271,
                "end_time": 13.813636363636363,
                "pitch": 65,
                "velocity": 64,
                "duration": 0.06590909090909136,
                "tempo": 120.0
            },
            {
                "start_time": 13.847727272727273,
                "end_time": 13.913636363636362,
                "pitch": 64,
                "velocity": 64,
                "duration": 0.06590909090908958,
                "tempo": 120.0
            },
            {
                "start_time": 13.947727272727272,
                "end_time": 14.01590909090909,
                "pitch": 63,
                "velocity": 64,
                "duration": 0.06818181818181834,
                "tempo": 120.0
            },
            {
                "start_time": 14.047727272727272,
                "end_time": 14.11590909090909,
                "pitch": 64,
                "velocity": 64,
                "duration": 0.06818181818181834,
                "tempo": 120.0
            },
            {
                "start_time": 14.149999999999999,
                "end_time": 14.21590909090909,
                "pitch": 63,
                "velocity": 64,
                "duration": 0.06590909090909136,
                "tempo": 120.0
            },
            {
                "start_time": 14.25,
                "end_time": 14.318181818181818,
                "pitch": 62,
                "velocity": 64,
                "duration": 0.06818181818181834,
                "tempo": 120.0
            },
            {
                "start_time": 14.35,
                "end_time": 14.418181818181818,
                "pitch": 61,
                "velocity": 64,
                "duration": 0.06818181818181834,
                "tempo": 120.0
            },
            {
                "start_time": 14.554545454545455,
                "end_time": 14.622727272727271,
                "pitch": 57,
                "velocity": 64,
                "duration": 0.06818181818181657,
                "tempo": 120.0
            },
            {
                "start_time": 14.861363636363636,
                "end_time": 14.927272727272726,
                "pitch": 59,
                "velocity": 64,
                "duration": 0.06590909090908958,
                "tempo": 120.0
            },
            {
                "start_time": 15.156818181818181,
                "end_time": 15.220454545454544,
                "pitch": 60,
                "velocity": 64,
                "duration": 0.0636363636363626,
                "tempo": 120.0
            },
            {
                "start_time": 15.45681818181818,
                "end_time": 15.522727272727272,
                "pitch": 62,
                "velocity": 64,
                "duration": 0.06590909090909136,
                "tempo": 120.0
            },
            {
                "start_time": 15.756818181818181,
                "end_time": 15.825,
                "pitch": 65,
                "velocity": 64,
                "duration": 0.06818181818181834,
                "tempo": 120.0
            },
            {
                "start_time": 16.05909090909091,
                "end_time": 16.429545454545455,
                "pitch": 64,
                "velocity": 64,
                "duration": 0.37045454545454604,
                "tempo": 120.0
            },
            {
                "start_time": 16.561363636363634,
                "end_time": 16.629545454545454,
                "pitch": 54,
                "velocity": 64,
                "duration": 0.06818181818182012,
                "tempo": 120.0
            },
            {
                "start_time": 16.661363636363635,
                "end_time": 16.729545454545455,
                "pitch": 55,
                "velocity": 64,
                "duration": 0.06818181818182012,
                "tempo": 120.0
            },
            {
                "start_time": 16.761363636363637,
                "end_time": 16.829545454545453,
                "pitch": 52,
                "velocity": 64,
                "duration": 0.06818181818181657,
                "tempo": 120.0
            },
            {
                "start_time": 16.861363636363635,
                "end_time": 17.23181818181818,
                "pitch": 48,
                "velocity": 64,
                "duration": 0.37045454545454604,
                "tempo": 120.0
            }
        ]
    }
}