{
    "track_id": "Fantasy Zone II (FM) - 11 - Shop",
    "mood": "happy",
    "instruments": {
        "Violin": [
            {
                "start_time": 0.0659090909090909,
                "end_time": 0.23409090909090907,
                "pitch": 69,
                "velocity": 80,
                "duration": 0.16818181818181815,
                "tempo": 120.0
            },
            {
                "start_time": 0.2659090909090909,
                "end_time": 0.4340909090909091,
                "pitch": 69,
                "velocity": 80,
                "duration": 0.1681818181818182,
                "tempo": 120.0
            },
            {
                "start_time": 0.46818181818181814,
                "end_time": 0.634090909090909,
                "pitch": 73,
                "velocity": 80,
                "duration": 0.1659090909090909,
                "tempo": 120.0
            },
            {
                "start_time": 0.6681818181818181,
                "end_time": 0.8363636363636363,
                "pitch": 76,
                "velocity": 80,
                "duration": 0.1681818181818182,
                "tempo": 120.0
            },
            {
                "start_time": 0.8704545454545454,
                "end_time": 1.0363636363636364,
                "pitch": 74,
                "velocity": 80,
                "duration": 0.165909090909091,
                "tempo": 120.0
            },
            {
                "start_time": 1.0704545454545453,
                "end_time": 1.2363636363636363,
                "pitch": 74,
                "velocity": 80,
                "duration": 0.165909090909091,
                "tempo": 120.0
            },
            {
                "start_time": 1.2704545454545455,
                "end_time": 1.4363636363636363,
                "pitch": 78,
                "velocity": 80,
                "duration": 0.16590909090909078,
                "tempo": 120.0
            },
            {
                "start_time": 1.4704545454545455,
                "end_time": 1.6363636363636362,
                "pitch": 81,
                "velocity": 80,
                "duration": 0.16590909090909078,
                "tempo": 120.0
            },
            {
                "start_time": 1.6704545454545454,
                "end_time": 1.8386363636363636,
                "pitch": 69,
                "velocity": 80,
                "duration": 0.1681818181818182,
                "tempo": 120.0
            },
            {
                "start_time": 1.8704545454545454,
                "end_time": 2.0386363636363636,
                "pitch": 69,
                "velocity": 80,
                "duration": 0.1681818181818182,
                "tempo": 120.0
            },
            {
                "start_time": 2.0727272727272728,
                "end_time": 2.2386363636363633,
                "pitch": 73,
                "velocity": 80,
                "duration": 0.16590909090909056,
                "tempo": 120.0
            },
            {
                "start_time": 2.2727272727272725,
                "end_time": 2.6386363636363637,
                "pitch": 76,
                "velocity": 80,
                "duration": 0.3659090909090912,
                "tempo": 120.0
            },
            {
                "start_time": 2.6727272727272724,
                "end_time": 2.8386363636363634,
                "pitch": 78,
                "velocity": 80,
                "duration": 0.165909090909091,
                "tempo": 120.0
            },
            {
                "start_time": 2.8727272727272726,
                "end_time": 3.0386363636363636,
                "pitch": 76,
                "velocity": 80,
                "duration": 0.165909090909091,
                "tempo": 120.0
            },
            {
                "start_time": 3.0727272727272728,
                "end_time": 3.2386363636363633,
                "pitch": 74,
                "velocity": 80,
                "duration": 0.16590909090909056,
                "tempo": 120.0
            },
            {
                "start_time": 3.2727272727272725,
                "end_time": 3.440909090909091,
                "pitch": 69,
                "velocity": 80,
                "duration": 0.16818181818181843,
                "tempo": 120.0
            },
            {
                "start_time": 3.4749999999999996,
                "end_time": 3.6409090909090907,
                "pitch": 69,
                "velocity": 80,
                "duration": 0.165909090909091,
                "tempo": 120.0
            },
            {
                "start_time": 3.675,
                "end_time": 3.840909090909091,
                "pitch": 73,
                "velocity": 80,
                "duration": 0.165909090909091,
                "tempo": 120.0
            },
            {
                "start_time": 3.875,
                "end_time": 4.040909090909091,
                "pitch": 76,
                "velocity": 80,
                "duration": 0.165909090909091,
                "tempo": 120.0
            },
            {
                "start_time": 4.075,
                "end_time": 4.24090909090909,
                "pitch": 74,
                "velocity": 80,
                "duration": 0.16590909090909012,
                "tempo": 120.0
            },
            {
                "start_time": 4.2749999999999995,
                "end_time": 4.4409090909090905,
                "pitch": 74,
                "velocity": 80,
                "duration": 0.165909090909091,
                "tempo": 120.0
            },
            {
                "start_time": 4.475,
                "end_time": 4.640909090909091,
                "pitch": 78,
                "velocity": 80,
                "duration": 0.165909090909091,
                "tempo": 120.0
            },
            {
                "start_time": 4.675,
                "end_time": 5.043181818181818,
                "pitch": 81,
                "velocity": 80,
                "duration": 0.36818181818181817,
                "tempo": 120.0
            },
            {
                "start_time": 5.077272727272727,
                "end_time": 6.502272727272727,
                "pitch": 81,
                "velocity": 80,
                "duration": 1.4249999999999998,
                "tempo": 120.0
            },
            {
                "start_time": 6.502272727272727,
                "end_time": 6.656818181818181,
                "pitch": 69,
                "velocity": 80,
                "duration": 0.15454545454545432,
                "tempo": 120.0
            },
            {
                "start_time": 6.6909090909090905,
                "end_time": 6.8590909090909085,
                "pitch": 69,
                "velocity": 80,
                "duration": 0.168181818181818,
                "tempo": 120.0
            },
            {
                "start_time": 6.890909090909091,
                "end_time": 7.054545454545454,
                "pitch": 73,
                "velocity": 80,
                "duration": 0.16363636363636314,
                "tempo": 120.0
            },
            {
                "start_time": 7.088636363636363,
                "end_time": 7.252272727272727,
                "pitch": 76,
                "velocity": 80,
                "duration": 0.16363636363636402,
                "tempo": 120.0
            },
            {
                "start_time": 7.286363636363636,
                "end_time": 7.452272727272727,
                "pitch": 74,
                "velocity": 80,
                "duration": 0.165909090909091,
                "tempo": 120.0
            },
            {
                "start_time": 7.486363636363636,
                "end_time": 7.652272727272727,
                "pitch": 74,
                "velocity": 80,
                "duration": 0.165909090909091,
                "tempo": 120.0
            },
            {
                "start_time": 7.686363636363636,
                "end_time": 7.8545454545454545,
                "pitch": 78,
                "velocity": 80,
                "duration": 0.16818181818181888,
                "tempo": 120.0
            },
            {
                "start_time": 7.888636363636364,
                "end_time": 8.054545454545455,
                "pitch": 81,
                "velocity": 80,
                "duration": 0.165909090909091,
                "tempo": 120.0
            },
            {
                "start_time": 8.088636363636363,
                "end_time": 8.256818181818181,
                "pitch": 69,
                "velocity": 80,
                "duration": 0.168181818181818,
                "tempo": 120.0
            },
            {
                "start_time": 8.290909090909091,
                "end_time": 8.459090909090909,
                "pitch": 69,
                "velocity": 80,
                "duration": 0.168181818181818,
                "tempo": 120.0
            },
            {
                "start_time": 8.49090909090909,
                "end_time": 8.659090909090908,
                "pitch": 73,
                "velocity": 80,
                "duration": 0.168181818181818,
                "tempo": 120.0
            },
            {
                "start_time": 8.693181818181818,
                "end_time": 9.061363636363636,
                "pitch": 76,
                "velocity": 80,
                "duration": 0.3681818181818173,
                "tempo": 120.0
            },
            {
                "start_time": 9.093181818181817,
                "end_time": 9.261363636363637,
                "pitch": 78,
                "velocity": 80,
                "duration": 0.16818181818181976,
                "tempo": 120.0
            },
            {
                "start_time": 9.295454545454545,
                "end_time": 9.461363636363636,
                "pitch": 76,
                "velocity": 80,
                "duration": 0.165909090909091,
                "tempo": 120.0
            },
            {
                "start_time": 9.495454545454544,
                "end_time": 9.663636363636364,
                "pitch": 74,
                "velocity": 80,
                "duration": 0.16818181818181976,
                "tempo": 120.0
            },
            {
                "start_time": 9.697727272727272,
                "end_time": 9.86590909090909,
                "pitch": 69,
                "velocity": 80,
                "duration": 0.168181818181818,
                "tempo": 120.0
            },
            {
                "start_time": 9.897727272727272,
                "end_time": 10.06590909090909,
                "pitch": 69,
                "velocity": 80,
                "duration": 0.168181818181818,
                "tempo": 120.0
            },
            {
                "start_time": 10.1,
                "end_time": 10.268181818181818,
                "pitch": 73,
                "velocity": 80,
                "duration": 0.168181818181818,
                "tempo": 120.0
            },
            {
                "start_time": 10.299999999999999,
                "end_time": 10.468181818181817,
                "pitch": 76,
                "velocity": 80,
                "duration": 0.168181818181818,
                "tempo": 120.0
            },
            {
                "start_time": 10.502272727272727,
                "end_time": 10.670454545454545,
                "pitch": 74,
                "velocity": 80,
                "duration": 0.168181818181818,
                "tempo": 120.0
            },
            {
                "start_time": 10.704545454545453,
                "end_time": 10.870454545454544,
                "pitch": 74,
                "velocity": 80,
                "duration": 0.165909090909091,
                "tempo": 120.0
            },
            {
                "start_time": 10.904545454545454,
                "end_time": 11.070454545454545,
                "pitch": 78,
                "velocity": 80,
                "duration": 0.165909090909091,
                "tempo": 120.0
            },
            {
                "start_time": 11.104545454545454,
                "end_time": 11.472727272727273,
                "pitch": 81,
                "velocity": 80,
                "duration": 0.36818181818181905,
                "tempo": 120.0
            }
        ],
        "Acoustic Bass": [
            {
                "start_time": 0.19999999999999998,
                "end_time": 0.3659090909090909,
                "pitch": 45,
                "velocity": 51,
                "duration": 0.16590909090909092,
                "tempo": 120.0
            },
            {
                "start_time": 0.8022727272727272,
                "end_time": 0.9704545454545455,
                "pitch": 38,
                "velocity": 51,
                "duration": 0.1681818181818182,
                "tempo": 120.0
            },
            {
                "start_time": 1.0022727272727272,
                "end_time": 1.1704545454545454,
                "pitch": 38,
                "velocity": 51,
                "duration": 0.1681818181818182,
                "tempo": 120.0
            },
            {
                "start_time": 1.6022727272727273,
                "end_time": 1.7704545454545453,
                "pitch": 45,
                "velocity": 51,
                "duration": 0.168181818181818,
                "tempo": 120.0
            },
            {
                "start_time": 1.8045454545454545,
                "end_time": 1.9727272727272727,
                "pitch": 45,
                "velocity": 51,
                "duration": 0.1681818181818182,
                "tempo": 120.0
            },
            {
                "start_time": 2.4045454545454543,
                "end_time": 2.5727272727272728,
                "pitch": 50,
                "velocity": 51,
                "duration": 0.16818181818181843,
                "tempo": 120.0
            },
            {
                "start_time": 2.6045454545454545,
                "end_time": 2.7727272727272725,
                "pitch": 50,
                "velocity": 51,
                "duration": 0.168181818181818,
                "tempo": 120.0
            },
            {
                "start_time": 3.2045454545454546,
                "end_time": 3.3727272727272726,
                "pitch": 45,
                "velocity": 51,
                "duration": 0.168181818181818,
                "tempo": 120.0
            },
            {
                "start_time": 3.4068181818181817,
                "end_time": 3.5749999999999997,
                "pitch": 45,
                "velocity": 51,
                "duration": 0.168181818181818,
                "tempo": 120.0
            },
            {
                "start_time": 4.009090909090909,
                "end_time": 4.175,
                "pitch": 38,
                "velocity": 51,
                "duration": 0.165909090909091,
                "tempo": 120.0
            },
            {
                "start_time": 4.209090909090909,
                "end_time": 4.375,
                "pitch": 38,
                "velocity": 51,
                "duration": 0.165909090909091,
                "tempo": 120.0
            },
            {
                "start_time": 5.009090909090909,
                "end_time": 5.177272727272727,
                "pitch": 41,
                "velocity": 51,
                "duration": 0.168181818181818,
                "tempo": 120.0
            },
            {
                "start_time": 5.211363636363636,
                "end_time": 5.377272727272727,
                "pitch": 41,
                "velocity": 51,
                "duration": 0.165909090909091,
                "tempo": 120.0
            },
            {
                "start_time": 5.411363636363636,
                "end_time": 5.779545454545454,
                "pitch": 43,
                "velocity": 51,
                "duration": 0.36818181818181817,
                "tempo": 120.0
            },
            {
                "start_time": 5.8113636363636365,
                "end_time": 5.9795454545454545,
                "pitch": 43,
                "velocity": 51,
                "duration": 0.168181818181818,
                "tempo": 120.0
            },
            {
                "start_time": 6.013636363636364,
                "end_time": 6.181818181818182,
                "pitch": 45,
                "velocity": 51,
                "duration": 0.168181818181818,
                "tempo": 120.0
            },
            {
                "start_time": 6.215909090909091,
                "end_time": 6.381818181818182,
                "pitch": 45,
                "velocity": 51,
                "duration": 0.165909090909091,
                "tempo": 120.0
            },
            {
                "start_time": 6.415909090909091,
                "end_time": 6.588636363636363,
                "pitch": 45,
                "velocity": 51,
                "duration": 0.17272727272727195,
                "tempo": 120.0
            },
            {
                "start_time": 6.622727272727272,
                "end_time": 6.793181818181818,
                "pitch": 45,
                "velocity": 51,
                "duration": 0.17045454545454586,
                "tempo": 120.0
            },
            {
                "start_time": 7.218181818181818,
                "end_time": 7.386363636363636,
                "pitch": 38,
                "velocity": 51,
                "duration": 0.168181818181818,
                "tempo": 120.0
            },
            {
                "start_time": 7.418181818181818,
                "end_time": 7.586363636363636,
                "pitch": 38,
                "velocity": 51,
                "duration": 0.168181818181818,
                "tempo": 120.0
            },
            {
                "start_time": 8.022727272727272,
                "end_time": 8.188636363636363,
                "pitch": 45,
                "velocity": 51,
                "duration": 0.165909090909091,
                "tempo": 120.0
            },
            {
                "start_time": 8.222727272727273,
                "end_time": 8.39090909090909,
                "pitch": 45,
                "velocity": 51,
                "duration": 0.168181818181818,
                "tempo": 120.0
            },
            {
                "start_time": 8.827272727272726,
                "end_time": 8.993181818181817,
                "pitch": 50,
                "velocity": 51,
                "duration": 0.165909090909091,
                "tempo": 120.0
            },
            {
                "start_time": 9.027272727272727,
                "end_time": 9.193181818181818,
                "pitch": 50,
                "velocity": 51,
                "duration": 0.165909090909091,
                "tempo": 120.0
            },
            {
                "start_time": 9.629545454545454,
                "end_time": 9.797727272727272,
                "pitch": 45,
                "velocity": 51,
                "duration": 0.168181818181818,
                "tempo": 120.0
            },
            {
                "start_time": 9.831818181818182,
                "end_time": 10.0,
                "pitch": 45,
                "velocity": 51,
                "duration": 0.168181818181818,
                "tempo": 120.0
            },
            {
                "start_time": 10.436363636363636,
                "end_time": 10.602272727272727,
                "pitch": 38,
                "velocity": 51,
                "duration": 0.165909090909091,
                "tempo": 120.0
            },
            {
                "start_time": 10.636363636363637,
                "end_time": 10.804545454545455,
                "pitch": 38,
                "velocity": 51,
                "duration": 0.168181818181818,
                "tempo": 120.0
            },
            {
                "start_time": 11.438636363636363,
                "end_time": 11.60681818181818,
                "pitch": 41,
                "velocity": 51,
                "duration": 0.168181818181818,
                "tempo": 120.0
            },
            {
                "start_time": 11.64090909090909,
                "end_time": 11.809090909090909,
                "pitch": 41,
                "velocity": 51,
                "duration": 0.168181818181818,
                "tempo": 120.0
            },
            {
                "start_time": 11.84090909090909,
                "end_time": 12.211363636363636,
                "pitch": 43,
                "velocity": 51,
                "duration": 0.37045454545454604,
                "tempo": 120.0
            },
            {
                "start_time": 12.245454545454544,
                "end_time": 12.411363636363635,
                "pitch": 43,
                "velocity": 51,
                "duration": 0.165909090909091,
                "tempo": 120.0
            },
            {
                "start_time": 12.445454545454545,
                "end_time": 12.613636363636363,
                "pitch": 45,
                "velocity": 51,
                "duration": 0.168181818181818,
                "tempo": 120.0
            },
            {
                "start_time": 12.647727272727272,
                "end_time": 12.81590909090909,
                "pitch": 45,
                "velocity": 51,
                "duration": 0.168181818181818,
                "tempo": 120.0
            }
        ],
        "Trumpet": [
            {
                "start_time": 0.19999999999999998,
                "end_time": 0.3659090909090909,
                "pitch": 69,
                "velocity": 51,
                "duration": 0.16590909090909092,
                "tempo": 120.0
            },
            {
                "start_time": 0.39999999999999997,
                "end_time": 0.5681818181818181,
                "pitch": 73,
                "velocity": 51,
                "duration": 0.16818181818181815,
                "tempo": 120.0
            },
            {
                "start_time": 0.6022727272727273,
                "end_time": 0.7681818181818182,
                "pitch": 76,
                "velocity": 51,
                "duration": 0.1659090909090909,
                "tempo": 120.0
            },
            {
                "start_time": 0.8022727272727272,
                "end_time": 0.9704545454545455,
                "pitch": 74,
                "velocity": 51,
                "duration": 0.1681818181818182,
                "tempo": 120.0
            },
            {
                "start_time": 1.0022727272727272,
                "end_time": 1.1704545454545454,
                "pitch": 74,
                "velocity": 51,
                "duration": 0.1681818181818182,
                "tempo": 120.0
            },
            {
                "start_time": 1.2022727272727272,
                "end_time": 1.3704545454545454,
                "pitch": 78,
                "velocity": 51,
                "duration": 0.1681818181818182,
                "tempo": 120.0
            },
            {
                "start_time": 1.4022727272727271,
                "end_time": 1.5704545454545453,
                "pitch": 81,
                "velocity": 51,
                "duration": 0.1681818181818182,
                "tempo": 120.0
            },
            {
                "start_time": 1.6022727272727273,
                "end_time": 1.7704545454545453,
                "pitch": 69,
                "velocity": 51,
                "duration": 0.168181818181818,
                "tempo": 120.0
            },
            {
                "start_time": 1.8045454545454545,
                "end_time": 1.9727272727272727,
                "pitch": 69,
                "velocity": 51,
                "duration": 0.1681818181818182,
                "tempo": 120.0
            },
            {
                "start_time": 2.0045454545454544,
                "end_time": 2.172727272727273,
                "pitch": 73,
                "velocity": 51,
                "duration": 0.16818181818181843,
                "tempo": 120.0
            },
            {
                "start_time": 2.2045454545454546,
                "end_time": 2.5727272727272728,
                "pitch": 76,
                "velocity": 51,
                "duration": 0.36818181818181817,
                "tempo": 120.0
            },
            {
                "start_time": 2.6045454545454545,
                "end_time": 2.7727272727272725,
                "pitch": 78,
                "velocity": 51,
                "duration": 0.168181818181818,
                "tempo": 120.0
            },
            {
                "start_time": 2.8045454545454542,
                "end_time": 2.9727272727272727,
                "pitch": 76,
                "velocity": 51,
                "duration": 0.16818181818181843,
                "tempo": 120.0
            },
            {
                "start_time": 3.0045454545454544,
                "end_time": 3.1727272727272724,
                "pitch": 74,
                "velocity": 51,
                "duration": 0.168181818181818,
                "tempo": 120.0
            },
            {
                "start_time": 3.2045454545454546,
                "end_time": 3.3727272727272726,
                "pitch": 69,
                "velocity": 51,
                "duration": 0.168181818181818,
                "tempo": 120.0
            },
            {
                "start_time": 3.4068181818181817,
                "end_time": 3.5749999999999997,
                "pitch": 69,
                "velocity": 51,
                "duration": 0.168181818181818,
                "tempo": 120.0
            },
            {
                "start_time": 3.609090909090909,
                "end_time": 3.775,
                "pitch": 73,
                "velocity": 51,
                "duration": 0.165909090909091,
                "tempo": 120.0
            },
            {
                "start_time": 3.809090909090909,
                "end_time": 3.9749999999999996,
                "pitch": 76,
                "velocity": 51,
                "duration": 0.16590909090909056,
                "tempo": 120.0
            },
            {
                "start_time": 4.009090909090909,
                "end_time": 4.175,
                "pitch": 74,
                "velocity": 51,
                "duration": 0.165909090909091,
                "tempo": 120.0
            },
            {
                "start_time": 4.209090909090909,
                "end_time": 4.375,
                "pitch": 74,
                "velocity": 51,
                "duration": 0.165909090909091,
                "tempo": 120.0
            },
            {
                "start_time": 4.409090909090909,
                "end_time": 4.575,
                "pitch": 78,
                "velocity": 51,
                "duration": 0.165909090909091,
                "tempo": 120.0
            },
            {
                "start_time": 4.6090909090909085,
                "end_time": 4.975,
                "pitch": 81,
                "velocity": 51,
                "duration": 0.3659090909090912,
                "tempo": 120.0
            },
            {
                "start_time": 5.009090909090909,
                "end_time": 5.177272727272727,
                "pitch": 84,
                "velocity": 51,
                "duration": 0.168181818181818,
                "tempo": 120.0
            },
            {
                "start_time": 5.211363636363636,
                "end_time": 5.377272727272727,
                "pitch": 86,
                "velocity": 51,
                "duration": 0.165909090909091,
                "tempo": 120.0
            },
            {
                "start_time": 5.411363636363636,
                "end_time": 5.779545454545454,
                "pitch": 88,
                "velocity": 51,
                "duration": 0.36818181818181817,
                "tempo": 120.0
            },
            {
                "start_time": 5.8113636363636365,
                "end_time": 5.9795454545454545,
                "pitch": 86,
                "velocity": 51,
                "duration": 0.168181818181818,
                "tempo": 120.0
            },
            {
                "start_time": 6.013636363636364,
                "end_time": 6.181818181818182,
                "pitch": 84,
                "velocity": 51,
                "duration": 0.168181818181818,
                "tempo": 120.0
            },
            {
                "start_time": 6.215909090909091,
                "end_time": 6.381818181818182,
                "pitch": 83,
                "velocity": 51,
                "duration": 0.165909090909091,
                "tempo": 120.0
            },
            {
                "start_time": 6.415909090909091,
                "end_time": 6.588636363636363,
                "pitch": 69,
                "velocity": 51,
                "duration": 0.17272727272727195,
                "tempo": 120.0
            },
            {
                "start_time": 6.622727272727272,
                "end_time": 6.793181818181818,
                "pitch": 69,
                "velocity": 51,
                "duration": 0.17045454545454586,
                "tempo": 120.0
            },
            {
                "start_time": 6.827272727272727,
                "end_time": 6.99090909090909,
                "pitch": 73,
                "velocity": 51,
                "duration": 0.16363636363636314,
                "tempo": 120.0
            },
            {
                "start_time": 7.0227272727272725,
                "end_time": 7.186363636363636,
                "pitch": 76,
                "velocity": 51,
                "duration": 0.16363636363636314,
                "tempo": 120.0
            },
            {
                "start_time": 7.218181818181818,
                "end_time": 7.386363636363636,
                "pitch": 74,
                "velocity": 51,
                "duration": 0.168181818181818,
                "tempo": 120.0
            },
            {
                "start_time": 7.418181818181818,
                "end_time": 7.586363636363636,
                "pitch": 74,
                "velocity": 51,
                "duration": 0.168181818181818,
                "tempo": 120.0
            },
            {
                "start_time": 7.618181818181818,
                "end_time": 7.786363636363636,
                "pitch": 78,
                "velocity": 51,
                "duration": 0.168181818181818,
                "tempo": 120.0
            },
            {
                "start_time": 7.820454545454545,
                "end_time": 7.988636363636363,
                "pitch": 81,
                "velocity": 51,
                "duration": 0.168181818181818,
                "tempo": 120.0
            },
            {
                "start_time": 8.022727272727272,
                "end_time": 8.188636363636363,
                "pitch": 69,
                "velocity": 51,
                "duration": 0.165909090909091,
                "tempo": 120.0
            },
            {
                "start_time": 8.222727272727273,
                "end_time": 8.39090909090909,
                "pitch": 69,
                "velocity": 51,
                "duration": 0.168181818181818,
                "tempo": 120.0
            },
            {
                "start_time": 8.424999999999999,
                "end_time": 8.593181818181817,
                "pitch": 73,
                "velocity": 51,
                "duration": 0.168181818181818,
                "tempo": 120.0
            },
            {
                "start_time": 8.625,
                "end_time": 8.993181818181817,
                "pitch": 76,
                "velocity": 51,
                "duration": 0.3681818181818173,
                "tempo": 120.0
            },
            {
                "start_time": 9.027272727272727,
                "end_time": 9.193181818181818,
                "pitch": 78,
                "velocity": 51,
                "duration": 0.165909090909091,
                "tempo": 120.0
            },
            {
                "start_time": 9.227272727272727,
                "end_time": 9.395454545454545,
                "pitch": 76,
                "velocity": 51,
                "duration": 0.168181818181818,
                "tempo": 120.0
            },
            {
                "start_time": 9.429545454545455,
                "end_time": 9.595454545454546,
                "pitch": 74,
                "velocity": 51,
                "duration": 0.165909090909091,
                "tempo": 120.0
            },
            {
                "start_time": 9.629545454545454,
                "end_time": 9.797727272727272,
                "pitch": 69,
                "velocity": 51,
                "duration": 0.168181818181818,
                "tempo": 120.0
            },
            {
                "start_time": 9.831818181818182,
                "end_time": 10.0,
                "pitch": 69,
                "velocity": 51,
                "duration": 0.168181818181818,
                "tempo": 120.0
            },
            {
                "start_time": 10.031818181818181,
                "end_time": 10.2,
                "pitch": 73,
                "velocity": 51,
                "duration": 0.168181818181818,
                "tempo": 120.0
            },
            {
                "start_time": 10.23409090909091,
                "end_time": 10.402272727272727,
                "pitch": 76,
                "velocity": 51,
                "duration": 0.168181818181818,
                "tempo": 120.0
            },
            {
                "start_time": 10.436363636363636,
                "end_time": 10.602272727272727,
                "pitch": 74,
                "velocity": 51,
                "duration": 0.165909090909091,
                "tempo": 120.0
            },
            {
                "start_time": 10.636363636363637,
                "end_time": 10.804545454545455,
                "pitch": 74,
                "velocity": 51,
                "duration": 0.168181818181818,
                "tempo": 120.0
            },
            {
                "start_time": 10.838636363636363,
                "end_time": 11.004545454545454,
                "pitch": 78,
                "velocity": 51,
                "duration": 0.165909090909091,
                "tempo": 120.0
            },
            {
                "start_time": 11.038636363636362,
                "end_time": 11.406818181818181,
                "pitch": 81,
                "velocity": 51,
                "duration": 0.36818181818181905,
                "tempo": 120.0
            },
            {
                "start_time": 11.438636363636363,
                "end_time": 11.60681818181818,
                "pitch": 86,
                "velocity": 51,
                "duration": 0.168181818181818,
                "tempo": 120.0
            },
            {
                "start_time": 11.64090909090909,
                "end_time": 11.809090909090909,
                "pitch": 84,
                "velocity": 51,
                "duration": 0.168181818181818,
                "tempo": 120.0
            },
            {
                "start_time": 11.84090909090909,
                "end_time": 12.009090909090908,
                "pitch": 88,
                "velocity": 51,
                "duration": 0.168181818181818,
                "tempo": 120.0
            },
            {
                "start_time": 12.043181818181818,
                "end_time": 12.211363636363636,
                "pitch": 86,
                "velocity": 51,
                "duration": 0.168181818181818,
                "tempo": 120.0
            },
            {
                "start_time": 12.245454545454544,
                "end_time": 12.411363636363635,
                "pitch": 84,
                "velocity": 51,
                "duration": 0.165909090909091,
                "tempo": 120.0
            },
            {
                "start_time": 12.445454545454545,
                "end_time": 12.613636363636363,
                "pitch": 84,
                "velocity": 51,
                "duration": 0.168181818181818,
                "tempo": 120.0
            },
            {
                "start_time": 12.647727272727272,
                "end_time": 12.81590909090909,
                "pitch": 84,
                "velocity": 51,
                "duration": 0.168181818181818,
                "tempo": 120.0
            }
        ],
        "Vibraphone": [
            {
                "start_time": 5.277272727272727,
                "end_time": 5.443181818181818,
                "pitch": 83,
                "velocity": 80,
                "duration": 0.165909090909091,
                "tempo": 120.0
            },
            {
                "start_time": 5.477272727272727,
                "end_time": 5.845454545454545,
                "pitch": 84,
                "velocity": 80,
                "duration": 0.36818181818181817,
                "tempo": 120.0
            },
            {
                "start_time": 5.879545454545454,
                "end_time": 6.047727272727273,
                "pitch": 83,
                "velocity": 80,
                "duration": 0.16818181818181888,
                "tempo": 120.0
            },
            {
                "start_time": 6.079545454545454,
                "end_time": 6.247727272727272,
                "pitch": 81,
                "velocity": 80,
                "duration": 0.168181818181818,
                "tempo": 120.0
            },
            {
                "start_time": 6.281818181818181,
                "end_time": 6.449999999999999,
                "pitch": 79,
                "velocity": 80,
                "duration": 0.168181818181818,
                "tempo": 120.0
            },
            {
                "start_time": 6.4840909090909085,
                "end_time": 11.522727272727272,
                "pitch": 69,
                "velocity": 80,
                "duration": 5.038636363636363,
                "tempo": 120.0
            },
            {
                "start_time": 11.522727272727272,
                "end_time": 11.674999999999999,
                "pitch": 84,
                "velocity": 80,
                "duration": 0.15227272727272734,
                "tempo": 120.0
            },
            {
                "start_time": 11.706818181818182,
                "end_time": 11.909090909090908,
                "pitch": 83,
                "velocity": 80,
                "duration": 0.20227272727272627,
                "tempo": 120.0
            },
            {
                "start_time": 11.943181818181818,
                "end_time": 12.077272727272726,
                "pitch": 81,
                "velocity": 80,
                "duration": 0.13409090909090793,
                "tempo": 120.0
            },
            {
                "start_time": 12.111363636363636,
                "end_time": 12.277272727272727,
                "pitch": 84,
                "velocity": 80,
                "duration": 0.165909090909091,
                "tempo": 120.0
            },
            {
                "start_time": 12.311363636363636,
                "end_time": 12.513636363636364,
                "pitch": 83,
                "velocity": 80,
                "duration": 0.20227272727272805,
                "tempo": 120.0
            },
            {
                "start_time": 12.547727272727272,
                "end_time": 12.713636363636363,
                "pitch": 81,
                "velocity": 80,
                "duration": 0.165909090909091,
                "tempo": 120.0
            },
            {
                "start_time": 12.747727272727271,
                "end_time": 12.85,
                "pitch": 81,
                "velocity": 80,
                "duration": 0.1022727272727284,
                "tempo": 120.0
            }
        ]
    }
}