{
    "track_id": "Fantasy Zone II (FM) - 08 - Spardian",
    "mood": "happy",
    "instruments": {
        "Acoustic Grand Piano": [
            {
                "start_time": 0.08863636363636364,
                "end_time": 0.31136363636363634,
                "pitch": 83,
                "velocity": 64,
                "duration": 0.22272727272727272,
                "tempo": 120.0
            },
            {
                "start_time": 0.34545454545454546,
                "end_time": 0.4636363636363636,
                "pitch": 79,
                "velocity": 64,
                "duration": 0.11818181818181817,
                "tempo": 120.0
            },
            {
                "start_time": 0.4954545454545454,
                "end_time": 0.7659090909090909,
                "pitch": 81,
                "velocity": 64,
                "duration": 0.27045454545454545,
                "tempo": 120.0
            },
            {
                "start_time": 0.7999999999999999,
                "end_time": 0.9159090909090909,
                "pitch": 76,
                "velocity": 64,
                "duration": 0.11590909090909096,
                "tempo": 120.0
            },
            {
                "start_time": 0.95,
                "end_time": 1.2159090909090908,
                "pitch": 79,
                "velocity": 64,
                "duration": 0.2659090909090909,
                "tempo": 120.0
            },
            {
                "start_time": 1.25,
                "end_time": 1.5159090909090909,
                "pitch": 83,
                "velocity": 64,
                "duration": 0.2659090909090909,
                "tempo": 120.0
            },
            {
                "start_time": 1.5499999999999998,
                "end_time": 1.6659090909090908,
                "pitch": 79,
                "velocity": 64,
                "duration": 0.11590909090909096,
                "tempo": 120.0
            },
            {
                "start_time": 1.7,
                "end_time": 2.2659090909090907,
                "pitch": 81,
                "velocity": 64,
                "duration": 0.5659090909090907,
                "tempo": 120.0
            },
            {
                "start_time": 2.4499999999999997,
                "end_time": 2.7181818181818183,
                "pitch": 83,
                "velocity": 64,
                "duration": 0.2681818181818185,
                "tempo": 120.0
            },
            {
                "start_time": 2.75,
                "end_time": 2.868181818181818,
                "pitch": 79,
                "velocity": 64,
                "duration": 0.11818181818181817,
                "tempo": 120.0
            },
            {
                "start_time": 2.9022727272727273,
                "end_time": 3.1727272727272724,
                "pitch": 81,
                "velocity": 64,
                "duration": 0.27045454545454506,
                "tempo": 120.0
            },
            {
                "start_time": 3.2045454545454546,
                "end_time": 3.3227272727272728,
                "pitch": 76,
                "velocity": 64,
                "duration": 0.11818181818181817,
                "tempo": 120.0
            },
            {
                "start_time": 3.3568181818181815,
                "end_time": 3.627272727272727,
                "pitch": 79,
                "velocity": 64,
                "duration": 0.2704545454545455,
                "tempo": 120.0
            },
            {
                "start_time": 3.6590909090909087,
                "end_time": 3.9295454545454542,
                "pitch": 86,
                "velocity": 64,
                "duration": 0.2704545454545455,
                "tempo": 120.0
            },
            {
                "start_time": 3.9636363636363634,
                "end_time": 4.081818181818182,
                "pitch": 84,
                "velocity": 64,
                "duration": 0.11818181818181861,
                "tempo": 120.0
            },
            {
                "start_time": 4.113636363636363,
                "end_time": 4.834090909090909,
                "pitch": 83,
                "velocity": 64,
                "duration": 0.7204545454545457,
                "tempo": 120.0
            },
            {
                "start_time": 4.868181818181818,
                "end_time": 5.136363636363636,
                "pitch": 86,
                "velocity": 64,
                "duration": 0.26818181818181763,
                "tempo": 120.0
            },
            {
                "start_time": 5.168181818181818,
                "end_time": 5.286363636363636,
                "pitch": 83,
                "velocity": 64,
                "duration": 0.11818181818181817,
                "tempo": 120.0
            },
            {
                "start_time": 5.320454545454545,
                "end_time": 5.590909090909091,
                "pitch": 84,
                "velocity": 64,
                "duration": 0.2704545454545455,
                "tempo": 120.0
            },
            {
                "start_time": 5.622727272727272,
                "end_time": 5.74090909090909,
                "pitch": 79,
                "velocity": 64,
                "duration": 0.11818181818181817,
                "tempo": 120.0
            },
            {
                "start_time": 5.7727272727272725,
                "end_time": 6.040909090909091,
                "pitch": 83,
                "velocity": 64,
                "duration": 0.2681818181818185,
                "tempo": 120.0
            },
            {
                "start_time": 6.072727272727272,
                "end_time": 6.340909090909091,
                "pitch": 86,
                "velocity": 64,
                "duration": 0.2681818181818185,
                "tempo": 120.0
            },
            {
                "start_time": 6.372727272727272,
                "end_time": 6.49090909090909,
                "pitch": 83,
                "velocity": 64,
                "duration": 0.11818181818181817,
                "tempo": 120.0
            },
            {
                "start_time": 6.5227272727272725,
                "end_time": 6.890909090909091,
                "pitch": 84,
                "velocity": 64,
                "duration": 0.36818181818181817,
                "tempo": 120.0
            },
            {
                "start_time": 7.277272727272727,
                "end_time": 7.3954545454545455,
                "pitch": 79,
                "velocity": 64,
                "duration": 0.11818181818181817,
                "tempo": 120.0
            },
            {
                "start_time": 7.429545454545454,
                "end_time": 7.545454545454545,
                "pitch": 81,
                "velocity": 64,
                "duration": 0.11590909090909118,
                "tempo": 120.0
            },
            {
                "start_time": 7.579545454545454,
                "end_time": 7.695454545454545,
                "pitch": 83,
                "velocity": 64,
                "duration": 0.11590909090909118,
                "tempo": 120.0
            },
            {
                "start_time": 7.7295454545454545,
                "end_time": 7.995454545454545,
                "pitch": 83,
                "velocity": 64,
                "duration": 0.26590909090909065,
                "tempo": 120.0
            },
            {
                "start_time": 8.029545454545454,
                "end_time": 8.147727272727272,
                "pitch": 81,
                "velocity": 64,
                "duration": 0.11818181818181728,
                "tempo": 120.0
            },
            {
                "start_time": 8.181818181818182,
                "end_time": 8.299999999999999,
                "pitch": 83,
                "velocity": 64,
                "duration": 0.11818181818181728,
                "tempo": 120.0
            },
            {
                "start_time": 8.331818181818182,
                "end_time": 9.202272727272726,
                "pitch": 84,
                "velocity": 64,
                "duration": 0.8704545454545443,
                "tempo": 120.0
            },
            {
                "start_time": 9.686363636363636,
                "end_time": 9.952272727272726,
                "pitch": 83,
                "velocity": 64,
                "duration": 0.26590909090909065,
                "tempo": 120.0
            },
            {
                "start_time": 9.986363636363636,
                "end_time": 10.102272727272727,
                "pitch": 79,
                "velocity": 64,
                "duration": 0.1159090909090903,
                "tempo": 120.0
            },
            {
                "start_time": 10.136363636363637,
                "end_time": 10.402272727272727,
                "pitch": 81,
                "velocity": 64,
                "duration": 0.26590909090909065,
                "tempo": 120.0
            },
            {
                "start_time": 10.436363636363636,
                "end_time": 10.554545454545455,
                "pitch": 76,
                "velocity": 64,
                "duration": 0.11818181818181905,
                "tempo": 120.0
            },
            {
                "start_time": 10.586363636363636,
                "end_time": 10.85681818181818,
                "pitch": 79,
                "velocity": 64,
                "duration": 0.2704545454545446,
                "tempo": 120.0
            },
            {
                "start_time": 10.89090909090909,
                "end_time": 11.159090909090908,
                "pitch": 83,
                "velocity": 64,
                "duration": 0.26818181818181763,
                "tempo": 120.0
            },
            {
                "start_time": 11.19090909090909,
                "end_time": 11.309090909090909,
                "pitch": 79,
                "velocity": 64,
                "duration": 0.11818181818181905,
                "tempo": 120.0
            },
            {
                "start_time": 11.34090909090909,
                "end_time": 11.909090909090908,
                "pitch": 81,
                "velocity": 64,
                "duration": 0.5681818181818183,
                "tempo": 120.0
            },
            {
                "start_time": 12.09090909090909,
                "end_time": 12.35909090909091,
                "pitch": 83,
                "velocity": 64,
                "duration": 0.2681818181818194,
                "tempo": 120.0
            },
            {
                "start_time": 12.39090909090909,
                "end_time": 12.509090909090908,
                "pitch": 79,
                "velocity": 64,
                "duration": 0.11818181818181728,
                "tempo": 120.0
            },
            {
                "start_time": 12.540909090909091,
                "end_time": 12.809090909090909,
                "pitch": 81,
                "velocity": 64,
                "duration": 0.26818181818181763,
                "tempo": 120.0
            },
            {
                "start_time": 12.84090909090909,
                "end_time": 12.959090909090909,
                "pitch": 76,
                "velocity": 64,
                "duration": 0.11818181818181905,
                "tempo": 120.0
            },
            {
                "start_time": 12.99090909090909,
                "end_time": 13.259090909090908,
                "pitch": 79,
                "velocity": 64,
                "duration": 0.26818181818181763,
                "tempo": 120.0
            },
            {
                "start_time": 13.290909090909091,
                "end_time": 13.559090909090909,
                "pitch": 86,
                "velocity": 64,
                "duration": 0.26818181818181763,
                "tempo": 120.0
            },
            {
                "start_time": 13.593181818181817,
                "end_time": 13.711363636363636,
                "pitch": 84,
                "velocity": 64,
                "duration": 0.11818181818181905,
                "tempo": 120.0
            },
            {
                "start_time": 13.745454545454544,
                "end_time": 14.463636363636363,
                "pitch": 83,
                "velocity": 64,
                "duration": 0.7181818181818187,
                "tempo": 120.0
            },
            {
                "start_time": 14.497727272727271,
                "end_time": 14.763636363636364,
                "pitch": 86,
                "velocity": 64,
                "duration": 0.2659090909090924,
                "tempo": 120.0
            },
            {
                "start_time": 14.797727272727272,
                "end_time": 14.913636363636362,
                "pitch": 83,
                "velocity": 64,
                "duration": 0.1159090909090903,
                "tempo": 120.0
            },
            {
                "start_time": 14.947727272727272,
                "end_time": 15.213636363636363,
                "pitch": 84,
                "velocity": 64,
                "duration": 0.26590909090909065,
                "tempo": 120.0
            },
            {
                "start_time": 15.247727272727271,
                "end_time": 15.363636363636363,
                "pitch": 79,
                "velocity": 64,
                "duration": 0.11590909090909207,
                "tempo": 120.0
            },
            {
                "start_time": 15.397727272727272,
                "end_time": 15.663636363636362,
                "pitch": 83,
                "velocity": 64,
                "duration": 0.26590909090909065,
                "tempo": 120.0
            },
            {
                "start_time": 15.697727272727272,
                "end_time": 15.963636363636363,
                "pitch": 86,
                "velocity": 64,
                "duration": 0.26590909090909065,
                "tempo": 120.0
            },
            {
                "start_time": 15.997727272727271,
                "end_time": 16.113636363636363,
                "pitch": 83,
                "velocity": 64,
                "duration": 0.11590909090909207,
                "tempo": 120.0
            },
            {
                "start_time": 16.147727272727273,
                "end_time": 16.513636363636362,
                "pitch": 84,
                "velocity": 64,
                "duration": 0.3659090909090885,
                "tempo": 120.0
            },
            {
                "start_time": 16.897727272727273,
                "end_time": 17.013636363636362,
                "pitch": 79,
                "velocity": 64,
                "duration": 0.11590909090908852,
                "tempo": 120.0
            },
            {
                "start_time": 17.047727272727272,
                "end_time": 17.16590909090909,
                "pitch": 81,
                "velocity": 64,
                "duration": 0.11818181818181728,
                "tempo": 120.0
            },
            {
                "start_time": 17.2,
                "end_time": 17.318181818181817,
                "pitch": 83,
                "velocity": 64,
                "duration": 0.11818181818181728,
                "tempo": 120.0
            },
            {
                "start_time": 17.349999999999998,
                "end_time": 17.620454545454546,
                "pitch": 83,
                "velocity": 64,
                "duration": 0.27045454545454817,
                "tempo": 120.0
            },
            {
                "start_time": 17.654545454545453,
                "end_time": 17.772727272727273,
                "pitch": 81,
                "velocity": 64,
                "duration": 0.11818181818182083,
                "tempo": 120.0
            },
            {
                "start_time": 17.804545454545455,
                "end_time": 17.922727272727272,
                "pitch": 83,
                "velocity": 64,
                "duration": 0.11818181818181728,
                "tempo": 120.0
            },
            {
                "start_time": 17.956818181818182,
                "end_time": 18.827272727272728,
                "pitch": 84,
                "velocity": 64,
                "duration": 0.870454545454546,
                "tempo": 120.0
            },
            {
                "start_time": 18.85909090909091,
                "end_time": 19.129545454545454,
                "pitch": 86,
                "velocity": 64,
                "duration": 0.2704545454545446,
                "tempo": 120.0
            }
        ],
        "Synth Bass 1": [
            {
                "start_time": 0.08863636363636364,
                "end_time": 0.1659090909090909,
                "pitch": 48,
                "velocity": 51,
                "duration": 0.07727272727272726,
                "tempo": 120.0
            },
            {
                "start_time": 0.19318181818181818,
                "end_time": 0.31136363636363634,
                "pitch": 48,
                "velocity": 51,
                "duration": 0.11818181818181817,
                "tempo": 120.0
            },
            {
                "start_time": 0.34545454545454546,
                "end_time": 0.4636363636363636,
                "pitch": 48,
                "velocity": 51,
                "duration": 0.11818181818181817,
                "tempo": 120.0
            },
            {
                "start_time": 0.4954545454545454,
                "end_time": 0.6136363636363636,
                "pitch": 48,
                "velocity": 51,
                "duration": 0.11818181818181822,
                "tempo": 120.0
            },
            {
                "start_time": 0.6477272727272727,
                "end_time": 0.7659090909090909,
                "pitch": 48,
                "velocity": 51,
                "duration": 0.11818181818181817,
                "tempo": 120.0
            },
            {
                "start_time": 0.7999999999999999,
                "end_time": 0.9159090909090909,
                "pitch": 48,
                "velocity": 51,
                "duration": 0.11590909090909096,
                "tempo": 120.0
            },
            {
                "start_time": 0.95,
                "end_time": 1.065909090909091,
                "pitch": 48,
                "velocity": 51,
                "duration": 0.11590909090909096,
                "tempo": 120.0
            },
            {
                "start_time": 1.0999999999999999,
                "end_time": 1.2159090909090908,
                "pitch": 48,
                "velocity": 51,
                "duration": 0.11590909090909096,
                "tempo": 120.0
            },
            {
                "start_time": 1.25,
                "end_time": 1.3659090909090907,
                "pitch": 48,
                "velocity": 51,
                "duration": 0.11590909090909074,
                "tempo": 120.0
            },
            {
                "start_time": 1.4,
                "end_time": 1.5159090909090909,
                "pitch": 48,
                "velocity": 51,
                "duration": 0.11590909090909096,
                "tempo": 120.0
            },
            {
                "start_time": 1.5499999999999998,
                "end_time": 1.6659090909090908,
                "pitch": 48,
                "velocity": 51,
                "duration": 0.11590909090909096,
                "tempo": 120.0
            },
            {
                "start_time": 1.7,
                "end_time": 1.815909090909091,
                "pitch": 48,
                "velocity": 51,
                "duration": 0.11590909090909096,
                "tempo": 120.0
            },
            {
                "start_time": 1.8499999999999999,
                "end_time": 1.9659090909090908,
                "pitch": 48,
                "velocity": 51,
                "duration": 0.11590909090909096,
                "tempo": 120.0
            },
            {
                "start_time": 2.0,
                "end_time": 2.1159090909090907,
                "pitch": 45,
                "velocity": 51,
                "duration": 0.11590909090909074,
                "tempo": 120.0
            },
            {
                "start_time": 2.15,
                "end_time": 2.2659090909090907,
                "pitch": 47,
                "velocity": 51,
                "duration": 0.11590909090909074,
                "tempo": 120.0
            },
            {
                "start_time": 2.3,
                "end_time": 2.415909090909091,
                "pitch": 48,
                "velocity": 51,
                "duration": 0.11590909090909118,
                "tempo": 120.0
            },
            {
                "start_time": 2.4499999999999997,
                "end_time": 2.565909090909091,
                "pitch": 48,
                "velocity": 51,
                "duration": 0.11590909090909118,
                "tempo": 120.0
            },
            {
                "start_time": 2.6,
                "end_time": 2.7181818181818183,
                "pitch": 48,
                "velocity": 51,
                "duration": 0.11818181818181817,
                "tempo": 120.0
            },
            {
                "start_time": 2.75,
                "end_time": 2.868181818181818,
                "pitch": 48,
                "velocity": 51,
                "duration": 0.11818181818181817,
                "tempo": 120.0
            },
            {
                "start_time": 2.9022727272727273,
                "end_time": 3.0204545454545455,
                "pitch": 48,
                "velocity": 51,
                "duration": 0.11818181818181817,
                "tempo": 120.0
            },
            {
                "start_time": 3.0545454545454542,
                "end_time": 3.1727272727272724,
                "pitch": 48,
                "velocity": 51,
                "duration": 0.11818181818181817,
                "tempo": 120.0
            },
            {
                "start_time": 3.2045454545454546,
                "end_time": 3.3227272727272728,
                "pitch": 48,
                "velocity": 51,
                "duration": 0.11818181818181817,
                "tempo": 120.0
            },
            {
                "start_time": 3.3568181818181815,
                "end_time": 3.4749999999999996,
                "pitch": 48,
                "velocity": 51,
                "duration": 0.11818181818181817,
                "tempo": 120.0
            },
            {
                "start_time": 3.509090909090909,
                "end_time": 3.627272727272727,
                "pitch": 48,
                "velocity": 51,
                "duration": 0.11818181818181817,
                "tempo": 120.0
            },
            {
                "start_time": 3.6590909090909087,
                "end_time": 3.777272727272727,
                "pitch": 50,
                "velocity": 51,
                "duration": 0.11818181818181817,
                "tempo": 120.0
            },
            {
                "start_time": 3.811363636363636,
                "end_time": 3.9295454545454542,
                "pitch": 50,
                "velocity": 51,
                "duration": 0.11818181818181817,
                "tempo": 120.0
            },
            {
                "start_time": 3.9636363636363634,
                "end_time": 4.081818181818182,
                "pitch": 50,
                "velocity": 51,
                "duration": 0.11818181818181861,
                "tempo": 120.0
            },
            {
                "start_time": 4.113636363636363,
                "end_time": 4.2318181818181815,
                "pitch": 50,
                "velocity": 51,
                "duration": 0.11818181818181817,
                "tempo": 120.0
            },
            {
                "start_time": 4.265909090909091,
                "end_time": 4.384090909090909,
                "pitch": 50,
                "velocity": 51,
                "duration": 0.11818181818181817,
                "tempo": 120.0
            },
            {
                "start_time": 4.418181818181818,
                "end_time": 4.534090909090909,
                "pitch": 50,
                "velocity": 51,
                "duration": 0.11590909090909118,
                "tempo": 120.0
            },
            {
                "start_time": 4.568181818181818,
                "end_time": 4.684090909090909,
                "pitch": 50,
                "velocity": 51,
                "duration": 0.1159090909090903,
                "tempo": 120.0
            },
            {
                "start_time": 4.718181818181818,
                "end_time": 4.834090909090909,
                "pitch": 50,
                "velocity": 51,
                "duration": 0.11590909090909118,
                "tempo": 120.0
            },
            {
                "start_time": 4.868181818181818,
                "end_time": 4.9840909090909085,
                "pitch": 50,
                "velocity": 51,
                "duration": 0.1159090909090903,
                "tempo": 120.0
            },
            {
                "start_time": 5.018181818181818,
                "end_time": 5.136363636363636,
                "pitch": 50,
                "velocity": 51,
                "duration": 0.11818181818181817,
                "tempo": 120.0
            },
            {
                "start_time": 5.168181818181818,
                "end_time": 5.286363636363636,
                "pitch": 50,
                "velocity": 51,
                "duration": 0.11818181818181817,
                "tempo": 120.0
            },
            {
                "start_time": 5.320454545454545,
                "end_time": 5.4386363636363635,
                "pitch": 50,
                "velocity": 51,
                "duration": 0.11818181818181817,
                "tempo": 120.0
            },
            {
                "start_time": 5.472727272727273,
                "end_time": 5.590909090909091,
                "pitch": 50,
                "velocity": 51,
                "duration": 0.11818181818181817,
                "tempo": 120.0
            },
            {
                "start_time": 5.622727272727272,
                "end_time": 5.74090909090909,
                "pitch": 50,
                "velocity": 51,
                "duration": 0.11818181818181817,
                "tempo": 120.0
            },
            {
                "start_time": 5.7727272727272725,
                "end_time": 5.890909090909091,
                "pitch": 50,
                "velocity": 51,
                "duration": 0.11818181818181817,
                "tempo": 120.0
            },
            {
                "start_time": 5.922727272727273,
                "end_time": 6.040909090909091,
                "pitch": 50,
                "velocity": 51,
                "duration": 0.11818181818181817,
                "tempo": 120.0
            },
            {
                "start_time": 6.072727272727272,
                "end_time": 6.1909090909090905,
                "pitch": 50,
                "velocity": 51,
                "duration": 0.11818181818181817,
                "tempo": 120.0
            },
            {
                "start_time": 6.222727272727273,
                "end_time": 6.340909090909091,
                "pitch": 50,
                "velocity": 51,
                "duration": 0.11818181818181817,
                "tempo": 120.0
            },
            {
                "start_time": 6.372727272727272,
                "end_time": 6.49090909090909,
                "pitch": 50,
                "velocity": 51,
                "duration": 0.11818181818181817,
                "tempo": 120.0
            },
            {
                "start_time": 6.5227272727272725,
                "end_time": 6.640909090909091,
                "pitch": 50,
                "velocity": 51,
                "duration": 0.11818181818181817,
                "tempo": 120.0
            },
            {
                "start_time": 6.672727272727273,
                "end_time": 6.790909090909091,
                "pitch": 50,
                "velocity": 51,
                "duration": 0.11818181818181817,
                "tempo": 120.0
            },
            {
                "start_time": 6.822727272727272,
                "end_time": 6.9409090909090905,
                "pitch": 50,
                "velocity": 51,
                "duration": 0.11818181818181817,
                "tempo": 120.0
            },
            {
                "start_time": 6.975,
                "end_time": 7.093181818181818,
                "pitch": 50,
                "velocity": 51,
                "duration": 0.11818181818181817,
                "tempo": 120.0
            },
            {
                "start_time": 7.127272727272727,
                "end_time": 7.245454545454545,
                "pitch": 43,
                "velocity": 51,
                "duration": 0.11818181818181817,
                "tempo": 120.0
            },
            {
                "start_time": 7.277272727272727,
                "end_time": 7.3954545454545455,
                "pitch": 43,
                "velocity": 51,
                "duration": 0.11818181818181817,
                "tempo": 120.0
            },
            {
                "start_time": 7.429545454545454,
                "end_time": 7.545454545454545,
                "pitch": 43,
                "velocity": 51,
                "duration": 0.11590909090909118,
                "tempo": 120.0
            },
            {
                "start_time": 7.579545454545454,
                "end_time": 7.695454545454545,
                "pitch": 43,
                "velocity": 51,
                "duration": 0.11590909090909118,
                "tempo": 120.0
            },
            {
                "start_time": 7.7295454545454545,
                "end_time": 7.845454545454545,
                "pitch": 47,
                "velocity": 51,
                "duration": 0.1159090909090903,
                "tempo": 120.0
            },
            {
                "start_time": 7.879545454545454,
                "end_time": 7.995454545454545,
                "pitch": 47,
                "velocity": 51,
                "duration": 0.11590909090909118,
                "tempo": 120.0
            },
            {
                "start_time": 8.029545454545454,
                "end_time": 8.147727272727272,
                "pitch": 47,
                "velocity": 51,
                "duration": 0.11818181818181728,
                "tempo": 120.0
            },
            {
                "start_time": 8.181818181818182,
                "end_time": 8.299999999999999,
                "pitch": 47,
                "velocity": 51,
                "duration": 0.11818181818181728,
                "tempo": 120.0
            },
            {
                "start_time": 8.331818181818182,
                "end_time": 8.45,
                "pitch": 48,
                "velocity": 51,
                "duration": 0.11818181818181728,
                "tempo": 120.0
            },
            {
                "start_time": 8.48409090909091,
                "end_time": 8.602272727272727,
                "pitch": 48,
                "velocity": 51,
                "duration": 0.11818181818181728,
                "tempo": 120.0
            },
            {
                "start_time": 8.636363636363637,
                "end_time": 8.752272727272727,
                "pitch": 48,
                "velocity": 51,
                "duration": 0.1159090909090903,
                "tempo": 120.0
            },
            {
                "start_time": 8.786363636363635,
                "end_time": 8.902272727272727,
                "pitch": 48,
                "velocity": 51,
                "duration": 0.11590909090909207,
                "tempo": 120.0
            },
            {
                "start_time": 8.936363636363636,
                "end_time": 9.202272727272726,
                "pitch": 48,
                "velocity": 51,
                "duration": 0.26590909090909065,
                "tempo": 120.0
            },
            {
                "start_time": 9.236363636363636,
                "end_time": 9.352272727272727,
                "pitch": 45,
                "velocity": 51,
                "duration": 0.1159090909090903,
                "tempo": 120.0
            },
            {
                "start_time": 9.386363636363637,
                "end_time": 9.502272727272727,
                "pitch": 47,
                "velocity": 51,
                "duration": 0.1159090909090903,
                "tempo": 120.0
            },
            {
                "start_time": 9.536363636363635,
                "end_time": 9.652272727272727,
                "pitch": 48,
                "velocity": 51,
                "duration": 0.11590909090909207,
                "tempo": 120.0
            },
            {
                "start_time": 9.686363636363636,
                "end_time": 9.802272727272726,
                "pitch": 48,
                "velocity": 51,
                "duration": 0.1159090909090903,
                "tempo": 120.0
            },
            {
                "start_time": 9.836363636363636,
                "end_time": 9.952272727272726,
                "pitch": 48,
                "velocity": 51,
                "duration": 0.1159090909090903,
                "tempo": 120.0
            },
            {
                "start_time": 9.986363636363636,
                "end_time": 10.102272727272727,
                "pitch": 48,
                "velocity": 51,
                "duration": 0.1159090909090903,
                "tempo": 120.0
            },
            {
                "start_time": 10.136363636363637,
                "end_time": 10.252272727272727,
                "pitch": 48,
                "velocity": 51,
                "duration": 0.1159090909090903,
                "tempo": 120.0
            },
            {
                "start_time": 10.286363636363635,
                "end_time": 10.402272727272727,
                "pitch": 48,
                "velocity": 51,
                "duration": 0.11590909090909207,
                "tempo": 120.0
            },
            {
                "start_time": 10.436363636363636,
                "end_time": 10.554545454545455,
                "pitch": 48,
                "velocity": 51,
                "duration": 0.11818181818181905,
                "tempo": 120.0
            },
            {
                "start_time": 10.586363636363636,
                "end_time": 10.704545454545453,
                "pitch": 48,
                "velocity": 51,
                "duration": 0.11818181818181728,
                "tempo": 120.0
            },
            {
                "start_time": 10.738636363636363,
                "end_time": 10.85681818181818,
                "pitch": 48,
                "velocity": 51,
                "duration": 0.11818181818181728,
                "tempo": 120.0
            },
            {
                "start_time": 10.89090909090909,
                "end_time": 11.009090909090908,
                "pitch": 48,
                "velocity": 51,
                "duration": 0.11818181818181728,
                "tempo": 120.0
            },
            {
                "start_time": 11.040909090909091,
                "end_time": 11.159090909090908,
                "pitch": 48,
                "velocity": 51,
                "duration": 0.11818181818181728,
                "tempo": 120.0
            },
            {
                "start_time": 11.19090909090909,
                "end_time": 11.309090909090909,
                "pitch": 48,
                "velocity": 51,
                "duration": 0.11818181818181905,
                "tempo": 120.0
            },
            {
                "start_time": 11.34090909090909,
                "end_time": 11.459090909090909,
                "pitch": 48,
                "velocity": 51,
                "duration": 0.11818181818181905,
                "tempo": 120.0
            },
            {
                "start_time": 11.49090909090909,
                "end_time": 11.60909090909091,
                "pitch": 48,
                "velocity": 51,
                "duration": 0.11818181818181905,
                "tempo": 120.0
            },
            {
                "start_time": 11.64090909090909,
                "end_time": 11.759090909090908,
                "pitch": 45,
                "velocity": 51,
                "duration": 0.11818181818181728,
                "tempo": 120.0
            },
            {
                "start_time": 11.790909090909091,
                "end_time": 11.909090909090908,
                "pitch": 47,
                "velocity": 51,
                "duration": 0.11818181818181728,
                "tempo": 120.0
            },
            {
                "start_time": 11.94090909090909,
                "end_time": 12.059090909090909,
                "pitch": 48,
                "velocity": 51,
                "duration": 0.11818181818181905,
                "tempo": 120.0
            },
            {
                "start_time": 12.09090909090909,
                "end_time": 12.209090909090909,
                "pitch": 48,
                "velocity": 51,
                "duration": 0.11818181818181905,
                "tempo": 120.0
            },
            {
                "start_time": 12.24090909090909,
                "end_time": 12.35909090909091,
                "pitch": 48,
                "velocity": 51,
                "duration": 0.11818181818181905,
                "tempo": 120.0
            },
            {
                "start_time": 12.39090909090909,
                "end_time": 12.509090909090908,
                "pitch": 48,
                "velocity": 51,
                "duration": 0.11818181818181728,
                "tempo": 120.0
            },
            {
                "start_time": 12.540909090909091,
                "end_time": 12.659090909090908,
                "pitch": 48,
                "velocity": 51,
                "duration": 0.11818181818181728,
                "tempo": 120.0
            },
            {
                "start_time": 12.69090909090909,
                "end_time": 12.809090909090909,
                "pitch": 48,
                "velocity": 51,
                "duration": 0.11818181818181905,
                "tempo": 120.0
            },
            {
                "start_time": 12.84090909090909,
                "end_time": 12.959090909090909,
                "pitch": 48,
                "velocity": 51,
                "duration": 0.11818181818181905,
                "tempo": 120.0
            },
            {
                "start_time": 12.99090909090909,
                "end_time": 13.109090909090908,
                "pitch": 48,
                "velocity": 51,
                "duration": 0.11818181818181728,
                "tempo": 120.0
            },
            {
                "start_time": 13.14090909090909,
                "end_time": 13.259090909090908,
                "pitch": 48,
                "velocity": 51,
                "duration": 0.11818181818181728,
                "tempo": 120.0
            },
            {
                "start_time": 13.290909090909091,
                "end_time": 13.409090909090908,
                "pitch": 50,
                "velocity": 51,
                "duration": 0.11818181818181728,
                "tempo": 120.0
            },
            {
                "start_time": 13.44090909090909,
                "end_time": 13.559090909090909,
                "pitch": 50,
                "velocity": 51,
                "duration": 0.11818181818181905,
                "tempo": 120.0
            },
            {
                "start_time": 13.593181818181817,
                "end_time": 13.711363636363636,
                "pitch": 50,
                "velocity": 51,
                "duration": 0.11818181818181905,
                "tempo": 120.0
            },
            {
                "start_time": 13.745454545454544,
                "end_time": 13.863636363636363,
                "pitch": 50,
                "velocity": 51,
                "duration": 0.11818181818181905,
                "tempo": 120.0
            },
            {
                "start_time": 13.895454545454545,
                "end_time": 14.013636363636364,
                "pitch": 50,
                "velocity": 51,
                "duration": 0.11818181818181905,
                "tempo": 120.0
            },
            {
                "start_time": 14.047727272727272,
                "end_time": 14.163636363636362,
                "pitch": 50,
                "velocity": 51,
                "duration": 0.1159090909090903,
                "tempo": 120.0
            },
            {
                "start_time": 14.197727272727272,
                "end_time": 14.313636363636363,
                "pitch": 50,
                "velocity": 51,
                "duration": 0.1159090909090903,
                "tempo": 120.0
            },
            {
                "start_time": 14.347727272727273,
                "end_time": 14.463636363636363,
                "pitch": 50,
                "velocity": 51,
                "duration": 0.1159090909090903,
                "tempo": 120.0
            },
            {
                "start_time": 14.497727272727271,
                "end_time": 14.613636363636363,
                "pitch": 50,
                "velocity": 51,
                "duration": 0.11590909090909207,
                "tempo": 120.0
            },
            {
                "start_time": 14.647727272727272,
                "end_time": 14.763636363636364,
                "pitch": 50,
                "velocity": 51,
                "duration": 0.11590909090909207,
                "tempo": 120.0
            },
            {
                "start_time": 14.797727272727272,
                "end_time": 14.913636363636362,
                "pitch": 50,
                "velocity": 51,
                "duration": 0.1159090909090903,
                "tempo": 120.0
            },
            {
                "start_time": 14.947727272727272,
                "end_time": 15.063636363636363,
                "pitch": 50,
                "velocity": 51,
                "duration": 0.1159090909090903,
                "tempo": 120.0
            },
            {
                "start_time": 15.097727272727273,
                "end_time": 15.213636363636363,
                "pitch": 50,
                "velocity": 51,
                "duration": 0.1159090909090903,
                "tempo": 120.0
            },
            {
                "start_time": 15.247727272727271,
                "end_time": 15.363636363636363,
                "pitch": 50,
                "velocity": 51,
                "duration": 0.11590909090909207,
                "tempo": 120.0
            },
            {
                "start_time": 15.397727272727272,
                "end_time": 15.513636363636364,
                "pitch": 50,
                "velocity": 51,
                "duration": 0.11590909090909207,
                "tempo": 120.0
            },
            {
                "start_time": 15.547727272727272,
                "end_time": 15.663636363636362,
                "pitch": 50,
                "velocity": 51,
                "duration": 0.1159090909090903,
                "tempo": 120.0
            },
            {
                "start_time": 15.697727272727272,
                "end_time": 15.813636363636363,
                "pitch": 50,
                "velocity": 51,
                "duration": 0.1159090909090903,
                "tempo": 120.0
            },
            {
                "start_time": 15.847727272727273,
                "end_time": 15.963636363636363,
                "pitch": 50,
                "velocity": 51,
                "duration": 0.1159090909090903,
                "tempo": 120.0
            },
            {
                "start_time": 15.997727272727271,
                "end_time": 16.113636363636363,
                "pitch": 50,
                "velocity": 51,
                "duration": 0.11590909090909207,
                "tempo": 120.0
            },
            {
                "start_time": 16.147727272727273,
                "end_time": 16.263636363636362,
                "pitch": 50,
                "velocity": 51,
                "duration": 0.11590909090908852,
                "tempo": 120.0
            },
            {
                "start_time": 16.297727272727272,
                "end_time": 16.413636363636364,
                "pitch": 50,
                "velocity": 51,
                "duration": 0.11590909090909207,
                "tempo": 120.0
            },
            {
                "start_time": 16.44772727272727,
                "end_time": 16.563636363636363,
                "pitch": 50,
                "velocity": 51,
                "duration": 0.11590909090909207,
                "tempo": 120.0
            },
            {
                "start_time": 16.597727272727273,
                "end_time": 16.71363636363636,
                "pitch": 50,
                "velocity": 51,
                "duration": 0.11590909090908852,
                "tempo": 120.0
            },
            {
                "start_time": 16.74772727272727,
                "end_time": 16.863636363636363,
                "pitch": 43,
                "velocity": 51,
                "duration": 0.11590909090909207,
                "tempo": 120.0
            },
            {
                "start_time": 16.897727272727273,
                "end_time": 17.013636363636362,
                "pitch": 43,
                "velocity": 51,
                "duration": 0.11590909090908852,
                "tempo": 120.0
            },
            {
                "start_time": 17.047727272727272,
                "end_time": 17.16590909090909,
                "pitch": 43,
                "velocity": 51,
                "duration": 0.11818181818181728,
                "tempo": 120.0
            },
            {
                "start_time": 17.2,
                "end_time": 17.318181818181817,
                "pitch": 43,
                "velocity": 51,
                "duration": 0.11818181818181728,
                "tempo": 120.0
            },
            {
                "start_time": 17.349999999999998,
                "end_time": 17.46818181818182,
                "pitch": 47,
                "velocity": 51,
                "duration": 0.11818181818182083,
                "tempo": 120.0
            },
            {
                "start_time": 17.502272727272725,
                "end_time": 17.620454545454546,
                "pitch": 47,
                "velocity": 51,
                "duration": 0.11818181818182083,
                "tempo": 120.0
            },
            {
                "start_time": 17.654545454545453,
                "end_time": 17.772727272727273,
                "pitch": 47,
                "velocity": 51,
                "duration": 0.11818181818182083,
                "tempo": 120.0
            },
            {
                "start_time": 17.804545454545455,
                "end_time": 17.922727272727272,
                "pitch": 47,
                "velocity": 51,
                "duration": 0.11818181818181728,
                "tempo": 120.0
            },
            {
                "start_time": 17.956818181818182,
                "end_time": 18.075,
                "pitch": 48,
                "velocity": 51,
                "duration": 0.11818181818181728,
                "tempo": 120.0
            },
            {
                "start_time": 18.10909090909091,
                "end_time": 18.227272727272727,
                "pitch": 48,
                "velocity": 51,
                "duration": 0.11818181818181728,
                "tempo": 120.0
            },
            {
                "start_time": 18.259090909090908,
                "end_time": 18.377272727272725,
                "pitch": 48,
                "velocity": 51,
                "duration": 0.11818181818181728,
                "tempo": 120.0
            },
            {
                "start_time": 18.409090909090907,
                "end_time": 18.527272727272727,
                "pitch": 48,
                "velocity": 51,
                "duration": 0.11818181818182083,
                "tempo": 120.0
            },
            {
                "start_time": 18.55909090909091,
                "end_time": 18.677272727272726,
                "pitch": 48,
                "velocity": 51,
                "duration": 0.11818181818181728,
                "tempo": 120.0
            },
            {
                "start_time": 19.163636363636364,
                "end_time": 19.28181818181818,
                "pitch": 52,
                "velocity": 51,
                "duration": 0.11818181818181728,
                "tempo": 120.0
            },
            {
                "start_time": 19.313636363636363,
                "end_time": 19.43181818181818,
                "pitch": 52,
                "velocity": 51,
                "duration": 0.11818181818181728,
                "tempo": 120.0
            },
            {
                "start_time": 19.76590909090909,
                "end_time": 19.88181818181818,
                "pitch": 52,
                "velocity": 51,
                "duration": 0.11590909090908852,
                "tempo": 120.0
            },
            {
                "start_time": 19.91590909090909,
                "end_time": 20.03181818181818,
                "pitch": 52,
                "velocity": 51,
                "duration": 0.11590909090909207,
                "tempo": 120.0
            },
            {
                "start_time": 20.368181818181817,
                "end_time": 20.486363636363635,
                "pitch": 45,
                "velocity": 51,
                "duration": 0.11818181818181728,
                "tempo": 120.0
            },
            {
                "start_time": 20.520454545454545,
                "end_time": 20.638636363636362,
                "pitch": 45,
                "velocity": 51,
                "duration": 0.11818181818181728,
                "tempo": 120.0
            },
            {
                "start_time": 20.974999999999998,
                "end_time": 21.09318181818182,
                "pitch": 45,
                "velocity": 51,
                "duration": 0.11818181818182083,
                "tempo": 120.0
            },
            {
                "start_time": 21.127272727272725,
                "end_time": 21.245454545454546,
                "pitch": 45,
                "velocity": 51,
                "duration": 0.11818181818182083,
                "tempo": 120.0
            },
            {
                "start_time": 21.577272727272724,
                "end_time": 21.695454545454545,
                "pitch": 50,
                "velocity": 51,
                "duration": 0.11818181818182083,
                "tempo": 120.0
            },
            {
                "start_time": 21.727272727272727,
                "end_time": 21.845454545454544,
                "pitch": 50,
                "velocity": 51,
                "duration": 0.11818181818181728,
                "tempo": 120.0
            },
            {
                "start_time": 22.18181818181818,
                "end_time": 22.299999999999997,
                "pitch": 50,
                "velocity": 51,
                "duration": 0.11818181818181728,
                "tempo": 120.0
            },
            {
                "start_time": 22.331818181818182,
                "end_time": 22.45,
                "pitch": 50,
                "velocity": 51,
                "duration": 0.11818181818181728,
                "tempo": 120.0
            },
            {
                "start_time": 22.784090909090907,
                "end_time": 22.9,
                "pitch": 47,
                "velocity": 51,
                "duration": 0.11590909090909207,
                "tempo": 120.0
            },
            {
                "start_time": 22.93409090909091,
                "end_time": 23.049999999999997,
                "pitch": 47,
                "velocity": 51,
                "duration": 0.11590909090908852,
                "tempo": 120.0
            },
            {
                "start_time": 23.386363636363637,
                "end_time": 23.504545454545454,
                "pitch": 55,
                "velocity": 51,
                "duration": 0.11818181818181728,
                "tempo": 120.0
            },
            {
                "start_time": 23.538636363636364,
                "end_time": 23.65681818181818,
                "pitch": 55,
                "velocity": 51,
                "duration": 0.11818181818181728,
                "tempo": 120.0
            },
            {
                "start_time": 23.993181818181817,
                "end_time": 24.111363636363635,
                "pitch": 52,
                "velocity": 51,
                "duration": 0.11818181818181728,
                "tempo": 120.0
            },
            {
                "start_time": 24.145454545454545,
                "end_time": 24.263636363636362,
                "pitch": 52,
                "velocity": 51,
                "duration": 0.11818181818181728,
                "tempo": 120.0
            },
            {
                "start_time": 24.595454545454544,
                "end_time": 24.71363636363636,
                "pitch": 52,
                "velocity": 51,
                "duration": 0.11818181818181728,
                "tempo": 120.0
            },
            {
                "start_time": 24.745454545454542,
                "end_time": 24.863636363636363,
                "pitch": 52,
                "velocity": 51,
                "duration": 0.11818181818182083,
                "tempo": 120.0
            },
            {
                "start_time": 25.2,
                "end_time": 25.318181818181817,
                "pitch": 45,
                "velocity": 51,
                "duration": 0.11818181818181728,
                "tempo": 120.0
            },
            {
                "start_time": 25.349999999999998,
                "end_time": 25.46818181818182,
                "pitch": 45,
                "velocity": 51,
                "duration": 0.11818181818182083,
                "tempo": 120.0
            },
            {
                "start_time": 25.802272727272726,
                "end_time": 25.918181818181818,
                "pitch": 45,
                "velocity": 51,
                "duration": 0.11590909090909207,
                "tempo": 120.0
            },
            {
                "start_time": 25.952272727272724,
                "end_time": 26.068181818181817,
                "pitch": 45,
                "velocity": 51,
                "duration": 0.11590909090909207,
                "tempo": 120.0
            },
            {
                "start_time": 26.404545454545453,
                "end_time": 26.52272727272727,
                "pitch": 50,
                "velocity": 51,
                "duration": 0.11818181818181728,
                "tempo": 120.0
            },
            {
                "start_time": 26.55681818181818,
                "end_time": 26.977272727272727,
                "pitch": 50,
                "velocity": 51,
                "duration": 0.42045454545454675,
                "tempo": 120.0
            },
            {
                "start_time": 27.011363636363637,
                "end_time": 27.129545454545454,
                "pitch": 50,
                "velocity": 51,
                "duration": 0.11818181818181728,
                "tempo": 120.0
            },
            {
                "start_time": 27.163636363636364,
                "end_time": 27.581818181818182,
                "pitch": 50,
                "velocity": 51,
                "duration": 0.418181818181818,
                "tempo": 120.0
            },
            {
                "start_time": 27.613636363636363,
                "end_time": 27.73181818181818,
                "pitch": 43,
                "velocity": 51,
                "duration": 0.11818181818181728,
                "tempo": 120.0
            },
            {
                "start_time": 27.763636363636362,
                "end_time": 28.03181818181818,
                "pitch": 43,
                "velocity": 51,
                "duration": 0.2681818181818194,
                "tempo": 120.0
            },
            {
                "start_time": 28.065909090909088,
                "end_time": 28.18409090909091,
                "pitch": 43,
                "velocity": 51,
                "duration": 0.11818181818182083,
                "tempo": 120.0
            },
            {
                "start_time": 28.218181818181815,
                "end_time": 28.486363636363635,
                "pitch": 48,
                "velocity": 51,
                "duration": 0.2681818181818194,
                "tempo": 120.0
            }
        ],
        "Trumpet": [
            {
                "start_time": 0.08863636363636364,
                "end_time": 0.31136363636363634,
                "pitch": 76,
                "velocity": 80,
                "duration": 0.22272727272727272,
                "tempo": 120.0
            },
            {
                "start_time": 0.34545454545454546,
                "end_time": 0.4636363636363636,
                "pitch": 76,
                "velocity": 80,
                "duration": 0.11818181818181817,
                "tempo": 120.0
            },
            {
                "start_time": 0.4954545454545454,
                "end_time": 0.7659090909090909,
                "pitch": 76,
                "velocity": 80,
                "duration": 0.27045454545454545,
                "tempo": 120.0
            },
            {
                "start_time": 0.7999999999999999,
                "end_time": 0.9159090909090909,
                "pitch": 72,
                "velocity": 80,
                "duration": 0.11590909090909096,
                "tempo": 120.0
            },
            {
                "start_time": 0.95,
                "end_time": 1.2159090909090908,
                "pitch": 74,
                "velocity": 80,
                "duration": 0.2659090909090909,
                "tempo": 120.0
            },
            {
                "start_time": 1.25,
                "end_time": 1.5159090909090909,
                "pitch": 76,
                "velocity": 80,
                "duration": 0.2659090909090909,
                "tempo": 120.0
            },
            {
                "start_time": 1.5499999999999998,
                "end_time": 1.6659090909090908,
                "pitch": 76,
                "velocity": 80,
                "duration": 0.11590909090909096,
                "tempo": 120.0
            },
            {
                "start_time": 1.7,
                "end_time": 1.9659090909090908,
                "pitch": 76,
                "velocity": 80,
                "duration": 0.2659090909090909,
                "tempo": 120.0
            },
            {
                "start_time": 2.4499999999999997,
                "end_time": 2.7181818181818183,
                "pitch": 76,
                "velocity": 80,
                "duration": 0.2681818181818185,
                "tempo": 120.0
            },
            {
                "start_time": 2.75,
                "end_time": 2.868181818181818,
                "pitch": 76,
                "velocity": 80,
                "duration": 0.11818181818181817,
                "tempo": 120.0
            },
            {
                "start_time": 2.9022727272727273,
                "end_time": 3.1727272727272724,
                "pitch": 76,
                "velocity": 80,
                "duration": 0.27045454545454506,
                "tempo": 120.0
            },
            {
                "start_time": 3.2045454545454546,
                "end_time": 3.3227272727272728,
                "pitch": 72,
                "velocity": 80,
                "duration": 0.11818181818181817,
                "tempo": 120.0
            },
            {
                "start_time": 3.3568181818181815,
                "end_time": 3.627272727272727,
                "pitch": 74,
                "velocity": 80,
                "duration": 0.2704545454545455,
                "tempo": 120.0
            },
            {
                "start_time": 3.6590909090909087,
                "end_time": 3.9295454545454542,
                "pitch": 77,
                "velocity": 80,
                "duration": 0.2704545454545455,
                "tempo": 120.0
            },
            {
                "start_time": 3.9636363636363634,
                "end_time": 4.081818181818182,
                "pitch": 77,
                "velocity": 80,
                "duration": 0.11818181818181861,
                "tempo": 120.0
            },
            {
                "start_time": 4.113636363636363,
                "end_time": 4.3999999999999995,
                "pitch": 77,
                "velocity": 80,
                "duration": 0.28636363636363615,
                "tempo": 120.0
            },
            {
                "start_time": 4.868181818181818,
                "end_time": 5.136363636363636,
                "pitch": 77,
                "velocity": 80,
                "duration": 0.26818181818181763,
                "tempo": 120.0
            },
            {
                "start_time": 5.168181818181818,
                "end_time": 5.286363636363636,
                "pitch": 77,
                "velocity": 80,
                "duration": 0.11818181818181817,
                "tempo": 120.0
            },
            {
                "start_time": 5.320454545454545,
                "end_time": 5.590909090909091,
                "pitch": 77,
                "velocity": 80,
                "duration": 0.2704545454545455,
                "tempo": 120.0
            },
            {
                "start_time": 5.622727272727272,
                "end_time": 5.74090909090909,
                "pitch": 76,
                "velocity": 80,
                "duration": 0.11818181818181817,
                "tempo": 120.0
            },
            {
                "start_time": 5.7727272727272725,
                "end_time": 6.040909090909091,
                "pitch": 77,
                "velocity": 80,
                "duration": 0.2681818181818185,
                "tempo": 120.0
            },
            {
                "start_time": 6.072727272727272,
                "end_time": 6.340909090909091,
                "pitch": 77,
                "velocity": 80,
                "duration": 0.2681818181818185,
                "tempo": 120.0
            },
            {
                "start_time": 6.372727272727272,
                "end_time": 6.49090909090909,
                "pitch": 77,
                "velocity": 80,
                "duration": 0.11818181818181817,
                "tempo": 120.0
            },
            {
                "start_time": 6.5227272727272725,
                "end_time": 6.8568181818181815,
                "pitch": 77,
                "velocity": 80,
                "duration": 0.334090909090909,
                "tempo": 120.0
            },
            {
                "start_time": 7.277272727272727,
                "end_time": 7.3954545454545455,
                "pitch": 76,
                "velocity": 80,
                "duration": 0.11818181818181817,
                "tempo": 120.0
            },
            {
                "start_time": 7.429545454545454,
                "end_time": 7.545454545454545,
                "pitch": 77,
                "velocity": 80,
                "duration": 0.11590909090909118,
                "tempo": 120.0
            },
            {
                "start_time": 7.579545454545454,
                "end_time": 7.695454545454545,
                "pitch": 79,
                "velocity": 80,
                "duration": 0.11590909090909118,
                "tempo": 120.0
            },
            {
                "start_time": 7.7295454545454545,
                "end_time": 7.995454545454545,
                "pitch": 79,
                "velocity": 80,
                "duration": 0.26590909090909065,
                "tempo": 120.0
            },
            {
                "start_time": 8.029545454545454,
                "end_time": 8.147727272727272,
                "pitch": 77,
                "velocity": 80,
                "duration": 0.11818181818181728,
                "tempo": 120.0
            },
            {
                "start_time": 8.181818181818182,
                "end_time": 8.299999999999999,
                "pitch": 76,
                "velocity": 80,
                "duration": 0.11818181818181728,
                "tempo": 120.0
            },
            {
                "start_time": 8.331818181818182,
                "end_time": 8.868181818181817,
                "pitch": 79,
                "velocity": 80,
                "duration": 0.5363636363636353,
                "tempo": 120.0
            },
            {
                "start_time": 9.686363636363636,
                "end_time": 9.952272727272726,
                "pitch": 76,
                "velocity": 80,
                "duration": 0.26590909090909065,
                "tempo": 120.0
            },
            {
                "start_time": 9.986363636363636,
                "end_time": 10.102272727272727,
                "pitch": 76,
                "velocity": 80,
                "duration": 0.1159090909090903,
                "tempo": 120.0
            },
            {
                "start_time": 10.136363636363637,
                "end_time": 10.402272727272727,
                "pitch": 76,
                "velocity": 80,
                "duration": 0.26590909090909065,
                "tempo": 120.0
            },
            {
                "start_time": 10.436363636363636,
                "end_time": 10.554545454545455,
                "pitch": 72,
                "velocity": 80,
                "duration": 0.11818181818181905,
                "tempo": 120.0
            },
            {
                "start_time": 10.586363636363636,
                "end_time": 10.85681818181818,
                "pitch": 74,
                "velocity": 80,
                "duration": 0.2704545454545446,
                "tempo": 120.0
            },
            {
                "start_time": 10.89090909090909,
                "end_time": 11.159090909090908,
                "pitch": 76,
                "velocity": 80,
                "duration": 0.26818181818181763,
                "tempo": 120.0
            },
            {
                "start_time": 11.19090909090909,
                "end_time": 11.309090909090909,
                "pitch": 76,
                "velocity": 80,
                "duration": 0.11818181818181905,
                "tempo": 120.0
            },
            {
                "start_time": 11.34090909090909,
                "end_time": 11.60909090909091,
                "pitch": 76,
                "velocity": 80,
                "duration": 0.2681818181818194,
                "tempo": 120.0
            },
            {
                "start_time": 12.09090909090909,
                "end_time": 12.35909090909091,
                "pitch": 76,
                "velocity": 80,
                "duration": 0.2681818181818194,
                "tempo": 120.0
            },
            {
                "start_time": 12.39090909090909,
                "end_time": 12.509090909090908,
                "pitch": 76,
                "velocity": 80,
                "duration": 0.11818181818181728,
                "tempo": 120.0
            },
            {
                "start_time": 12.540909090909091,
                "end_time": 12.809090909090909,
                "pitch": 76,
                "velocity": 80,
                "duration": 0.26818181818181763,
                "tempo": 120.0
            },
            {
                "start_time": 12.84090909090909,
                "end_time": 12.959090909090909,
                "pitch": 72,
                "velocity": 80,
                "duration": 0.11818181818181905,
                "tempo": 120.0
            },
            {
                "start_time": 12.99090909090909,
                "end_time": 13.259090909090908,
                "pitch": 74,
                "velocity": 80,
                "duration": 0.26818181818181763,
                "tempo": 120.0
            },
            {
                "start_time": 13.290909090909091,
                "end_time": 13.559090909090909,
                "pitch": 77,
                "velocity": 80,
                "duration": 0.26818181818181763,
                "tempo": 120.0
            },
            {
                "start_time": 13.593181818181817,
                "end_time": 13.711363636363636,
                "pitch": 77,
                "velocity": 80,
                "duration": 0.11818181818181905,
                "tempo": 120.0
            },
            {
                "start_time": 13.745454545454544,
                "end_time": 14.031818181818181,
                "pitch": 77,
                "velocity": 80,
                "duration": 0.28636363636363704,
                "tempo": 120.0
            },
            {
                "start_time": 14.497727272727271,
                "end_time": 14.763636363636364,
                "pitch": 77,
                "velocity": 80,
                "duration": 0.2659090909090924,
                "tempo": 120.0
            },
            {
                "start_time": 14.797727272727272,
                "end_time": 14.913636363636362,
                "pitch": 77,
                "velocity": 80,
                "duration": 0.1159090909090903,
                "tempo": 120.0
            },
            {
                "start_time": 14.947727272727272,
                "end_time": 15.213636363636363,
                "pitch": 77,
                "velocity": 80,
                "duration": 0.26590909090909065,
                "tempo": 120.0
            },
            {
                "start_time": 15.247727272727271,
                "end_time": 15.363636363636363,
                "pitch": 76,
                "velocity": 80,
                "duration": 0.11590909090909207,
                "tempo": 120.0
            },
            {
                "start_time": 15.397727272727272,
                "end_time": 15.663636363636362,
                "pitch": 77,
                "velocity": 80,
                "duration": 0.26590909090909065,
                "tempo": 120.0
            },
            {
                "start_time": 15.697727272727272,
                "end_time": 15.963636363636363,
                "pitch": 77,
                "velocity": 80,
                "duration": 0.26590909090909065,
                "tempo": 120.0
            },
            {
                "start_time": 15.997727272727271,
                "end_time": 16.113636363636363,
                "pitch": 77,
                "velocity": 80,
                "duration": 0.11590909090909207,
                "tempo": 120.0
            },
            {
                "start_time": 16.147727272727273,
                "end_time": 16.48181818181818,
                "pitch": 77,
                "velocity": 80,
                "duration": 0.3340909090909072,
                "tempo": 120.0
            },
            {
                "start_time": 16.897727272727273,
                "end_time": 17.013636363636362,
                "pitch": 76,
                "velocity": 80,
                "duration": 0.11590909090908852,
                "tempo": 120.0
            },
            {
                "start_time": 17.047727272727272,
                "end_time": 17.16590909090909,
                "pitch": 77,
                "velocity": 80,
                "duration": 0.11818181818181728,
                "tempo": 120.0
            },
            {
                "start_time": 17.2,
                "end_time": 17.318181818181817,
                "pitch": 79,
                "velocity": 80,
                "duration": 0.11818181818181728,
                "tempo": 120.0
            },
            {
                "start_time": 17.349999999999998,
                "end_time": 17.620454545454546,
                "pitch": 79,
                "velocity": 80,
                "duration": 0.27045454545454817,
                "tempo": 120.0
            },
            {
                "start_time": 17.654545454545453,
                "end_time": 17.772727272727273,
                "pitch": 77,
                "velocity": 80,
                "duration": 0.11818181818182083,
                "tempo": 120.0
            },
            {
                "start_time": 17.804545454545455,
                "end_time": 17.922727272727272,
                "pitch": 76,
                "velocity": 80,
                "duration": 0.11818181818181728,
                "tempo": 120.0
            },
            {
                "start_time": 17.956818181818182,
                "end_time": 18.493181818181817,
                "pitch": 79,
                "velocity": 80,
                "duration": 0.5363636363636353,
                "tempo": 120.0
            },
            {
                "start_time": 19.313636363636363,
                "end_time": 19.347727272727273,
                "pitch": 88,
                "velocity": 80,
                "duration": 0.03409090909091006,
                "tempo": 120.0
            },
            {
                "start_time": 19.397727272727273,
                "end_time": 19.43181818181818,
                "pitch": 87,
                "velocity": 80,
                "duration": 0.03409090909090651,
                "tempo": 120.0
            },
            {
                "start_time": 19.46590909090909,
                "end_time": 19.581818181818182,
                "pitch": 88,
                "velocity": 80,
                "duration": 0.11590909090909207,
                "tempo": 120.0
            },
            {
                "start_time": 19.61590909090909,
                "end_time": 19.73181818181818,
                "pitch": 87,
                "velocity": 80,
                "duration": 0.11590909090909207,
                "tempo": 120.0
            },
            {
                "start_time": 19.76590909090909,
                "end_time": 20.03181818181818,
                "pitch": 88,
                "velocity": 80,
                "duration": 0.26590909090909065,
                "tempo": 120.0
            },
            {
                "start_time": 20.06590909090909,
                "end_time": 20.18409090909091,
                "pitch": 86,
                "velocity": 80,
                "duration": 0.11818181818181728,
                "tempo": 120.0
            },
            {
                "start_time": 20.21818181818182,
                "end_time": 20.486363636363635,
                "pitch": 84,
                "velocity": 80,
                "duration": 0.26818181818181586,
                "tempo": 120.0
            },
            {
                "start_time": 20.520454545454545,
                "end_time": 20.554545454545455,
                "pitch": 84,
                "velocity": 80,
                "duration": 0.03409090909091006,
                "tempo": 120.0
            },
            {
                "start_time": 20.604545454545452,
                "end_time": 20.638636363636362,
                "pitch": 86,
                "velocity": 80,
                "duration": 0.03409090909091006,
                "tempo": 120.0
            },
            {
                "start_time": 20.672727272727272,
                "end_time": 20.79090909090909,
                "pitch": 88,
                "velocity": 80,
                "duration": 0.11818181818181728,
                "tempo": 120.0
            },
            {
                "start_time": 20.82272727272727,
                "end_time": 20.94090909090909,
                "pitch": 86,
                "velocity": 80,
                "duration": 0.11818181818182083,
                "tempo": 120.0
            },
            {
                "start_time": 20.974999999999998,
                "end_time": 21.245454545454546,
                "pitch": 84,
                "velocity": 80,
                "duration": 0.27045454545454817,
                "tempo": 120.0
            },
            {
                "start_time": 21.277272727272727,
                "end_time": 21.695454545454545,
                "pitch": 81,
                "velocity": 80,
                "duration": 0.418181818181818,
                "tempo": 120.0
            },
            {
                "start_time": 21.727272727272727,
                "end_time": 21.761363636363637,
                "pitch": 86,
                "velocity": 80,
                "duration": 0.03409090909091006,
                "tempo": 120.0
            },
            {
                "start_time": 21.811363636363634,
                "end_time": 21.845454545454544,
                "pitch": 85,
                "velocity": 80,
                "duration": 0.03409090909091006,
                "tempo": 120.0
            },
            {
                "start_time": 21.877272727272725,
                "end_time": 21.995454545454546,
                "pitch": 86,
                "velocity": 80,
                "duration": 0.11818181818182083,
                "tempo": 120.0
            },
            {
                "start_time": 22.029545454545453,
                "end_time": 22.147727272727273,
                "pitch": 85,
                "velocity": 80,
                "duration": 0.11818181818182083,
                "tempo": 120.0
            },
            {
                "start_time": 22.18181818181818,
                "end_time": 22.45,
                "pitch": 86,
                "velocity": 80,
                "duration": 0.2681818181818194,
                "tempo": 120.0
            },
            {
                "start_time": 22.48409090909091,
                "end_time": 22.9,
                "pitch": 81,
                "velocity": 80,
                "duration": 0.41590909090908923,
                "tempo": 120.0
            },
            {
                "start_time": 22.93409090909091,
                "end_time": 23.049999999999997,
                "pitch": 83,
                "velocity": 80,
                "duration": 0.11590909090908852,
                "tempo": 120.0
            },
            {
                "start_time": 23.084090909090907,
                "end_time": 23.202272727272724,
                "pitch": 83,
                "velocity": 80,
                "duration": 0.11818181818181728,
                "tempo": 120.0
            },
            {
                "start_time": 23.236363636363635,
                "end_time": 23.270454545454545,
                "pitch": 93,
                "velocity": 80,
                "duration": 0.03409090909091006,
                "tempo": 120.0
            },
            {
                "start_time": 23.320454545454545,
                "end_time": 23.959090909090907,
                "pitch": 91,
                "velocity": 80,
                "duration": 0.6386363636363619,
                "tempo": 120.0
            },
            {
                "start_time": 24.145454545454545,
                "end_time": 24.179545454545455,
                "pitch": 88,
                "velocity": 80,
                "duration": 0.03409090909091006,
                "tempo": 120.0
            },
            {
                "start_time": 24.229545454545452,
                "end_time": 24.263636363636362,
                "pitch": 87,
                "velocity": 80,
                "duration": 0.03409090909091006,
                "tempo": 120.0
            },
            {
                "start_time": 24.295454545454543,
                "end_time": 24.413636363636364,
                "pitch": 88,
                "velocity": 80,
                "duration": 0.11818181818182083,
                "tempo": 120.0
            },
            {
                "start_time": 24.445454545454545,
                "end_time": 24.563636363636363,
                "pitch": 87,
                "velocity": 80,
                "duration": 0.11818181818181728,
                "tempo": 120.0
            },
            {
                "start_time": 24.595454545454544,
                "end_time": 24.863636363636363,
                "pitch": 88,
                "velocity": 80,
                "duration": 0.2681818181818194,
                "tempo": 120.0
            },
            {
                "start_time": 24.895454545454545,
                "end_time": 25.013636363636362,
                "pitch": 86,
                "velocity": 80,
                "duration": 0.11818181818181728,
                "tempo": 120.0
            },
            {
                "start_time": 25.047727272727272,
                "end_time": 25.318181818181817,
                "pitch": 84,
                "velocity": 80,
                "duration": 0.2704545454545446,
                "tempo": 120.0
            },
            {
                "start_time": 25.349999999999998,
                "end_time": 25.384090909090908,
                "pitch": 84,
                "velocity": 80,
                "duration": 0.03409090909091006,
                "tempo": 120.0
            },
            {
                "start_time": 25.43409090909091,
                "end_time": 25.46818181818182,
                "pitch": 86,
                "velocity": 80,
                "duration": 0.03409090909091006,
                "tempo": 120.0
            },
            {
                "start_time": 25.502272727272725,
                "end_time": 25.618181818181817,
                "pitch": 88,
                "velocity": 80,
                "duration": 0.11590909090909207,
                "tempo": 120.0
            },
            {
                "start_time": 25.652272727272727,
                "end_time": 25.768181818181816,
                "pitch": 86,
                "velocity": 80,
                "duration": 0.11590909090908852,
                "tempo": 120.0
            },
            {
                "start_time": 25.802272727272726,
                "end_time": 26.068181818181817,
                "pitch": 84,
                "velocity": 80,
                "duration": 0.26590909090909065,
                "tempo": 120.0
            },
            {
                "start_time": 26.102272727272727,
                "end_time": 26.52272727272727,
                "pitch": 81,
                "velocity": 80,
                "duration": 0.4204545454545432,
                "tempo": 120.0
            },
            {
                "start_time": 26.55681818181818,
                "end_time": 26.59090909090909,
                "pitch": 86,
                "velocity": 80,
                "duration": 0.03409090909091006,
                "tempo": 120.0
            },
            {
                "start_time": 26.64090909090909,
                "end_time": 26.674999999999997,
                "pitch": 85,
                "velocity": 80,
                "duration": 0.03409090909090651,
                "tempo": 120.0
            },
            {
                "start_time": 26.709090909090907,
                "end_time": 26.827272727272724,
                "pitch": 86,
                "velocity": 80,
                "duration": 0.11818181818181728,
                "tempo": 120.0
            },
            {
                "start_time": 26.85909090909091,
                "end_time": 26.977272727272727,
                "pitch": 85,
                "velocity": 80,
                "duration": 0.11818181818181728,
                "tempo": 120.0
            },
            {
                "start_time": 27.011363636363637,
                "end_time": 27.28181818181818,
                "pitch": 86,
                "velocity": 80,
                "duration": 0.2704545454545446,
                "tempo": 120.0
            },
            {
                "start_time": 27.313636363636363,
                "end_time": 27.73181818181818,
                "pitch": 81,
                "velocity": 80,
                "duration": 0.418181818181818,
                "tempo": 120.0
            },
            {
                "start_time": 27.763636363636362,
                "end_time": 27.88181818181818,
                "pitch": 83,
                "velocity": 80,
                "duration": 0.11818181818181728,
                "tempo": 120.0
            },
            {
                "start_time": 27.913636363636364,
                "end_time": 28.03181818181818,
                "pitch": 83,
                "velocity": 80,
                "duration": 0.11818181818181728,
                "tempo": 120.0
            },
            {
                "start_time": 28.065909090909088,
                "end_time": 28.18409090909091,
                "pitch": 83,
                "velocity": 80,
                "duration": 0.11818181818182083,
                "tempo": 120.0
            },
            {
                "start_time": 28.218181818181815,
                "end_time": 28.336363636363636,
                "pitch": 84,
                "velocity": 80,
                "duration": 0.11818181818182083,
                "tempo": 120.0
            }
        ]
    }
}