{
    "track_id": "Fantasy Zone II (FM) - 05 - Bow Bow",
    "mood": "happy",
    "instruments": {
        "Acoustic Grand Piano": [
            {
                "start_time": 3.743181818181818,
                "end_time": 3.8454545454545452,
                "pitch": 88,
                "velocity": 51,
                "duration": 0.10227272727272707,
                "tempo": 120.0
            },
            {
                "start_time": 3.895454545454545,
                "end_time": 3.9977272727272726,
                "pitch": 90,
                "velocity": 51,
                "duration": 0.10227272727272751,
                "tempo": 120.0
            },
            {
                "start_time": 4.047727272727273,
                "end_time": 4.45,
                "pitch": 88,
                "velocity": 51,
                "duration": 0.40227272727272734,
                "tempo": 120.0
            },
            {
                "start_time": 4.5,
                "end_time": 5.052272727272727,
                "pitch": 86,
                "velocity": 51,
                "duration": 0.5522727272727268,
                "tempo": 120.0
            },
            {
                "start_time": 5.102272727272727,
                "end_time": 8.434090909090909,
                "pitch": 79,
                "velocity": 51,
                "duration": 3.331818181818182,
                "tempo": 120.0
            },
            {
                "start_time": 8.434090909090909,
                "end_time": 8.518181818181818,
                "pitch": 90,
                "velocity": 51,
                "duration": 0.084090909090909,
                "tempo": 120.0
            },
            {
                "start_time": 8.568181818181818,
                "end_time": 8.668181818181818,
                "pitch": 88,
                "velocity": 51,
                "duration": 0.09999999999999964,
                "tempo": 120.0
            },
            {
                "start_time": 8.718181818181817,
                "end_time": 8.818181818181818,
                "pitch": 86,
                "velocity": 51,
                "duration": 0.10000000000000142,
                "tempo": 120.0
            },
            {
                "start_time": 8.868181818181817,
                "end_time": 9.118181818181817,
                "pitch": 90,
                "velocity": 51,
                "duration": 0.25,
                "tempo": 120.0
            },
            {
                "start_time": 9.168181818181818,
                "end_time": 9.268181818181818,
                "pitch": 88,
                "velocity": 51,
                "duration": 0.09999999999999964,
                "tempo": 120.0
            },
            {
                "start_time": 9.318181818181818,
                "end_time": 9.868181818181817,
                "pitch": 86,
                "velocity": 51,
                "duration": 0.5499999999999989,
                "tempo": 120.0
            },
            {
                "start_time": 9.918181818181818,
                "end_time": 13.24090909090909,
                "pitch": 79,
                "velocity": 51,
                "duration": 3.3227272727272723,
                "tempo": 120.0
            },
            {
                "start_time": 13.24090909090909,
                "end_time": 13.325,
                "pitch": 86,
                "velocity": 51,
                "duration": 0.084090909090909,
                "tempo": 120.0
            },
            {
                "start_time": 13.375,
                "end_time": 13.475,
                "pitch": 88,
                "velocity": 51,
                "duration": 0.09999999999999964,
                "tempo": 120.0
            },
            {
                "start_time": 13.524999999999999,
                "end_time": 13.627272727272727,
                "pitch": 90,
                "velocity": 51,
                "duration": 0.1022727272727284,
                "tempo": 120.0
            },
            {
                "start_time": 13.677272727272726,
                "end_time": 14.081818181818182,
                "pitch": 88,
                "velocity": 51,
                "duration": 0.4045454545454561,
                "tempo": 120.0
            },
            {
                "start_time": 14.131818181818181,
                "end_time": 14.381818181818181,
                "pitch": 86,
                "velocity": 51,
                "duration": 0.25,
                "tempo": 120.0
            },
            {
                "start_time": 14.431818181818182,
                "end_time": 18.05909090909091,
                "pitch": 79,
                "velocity": 51,
                "duration": 3.627272727272727,
                "tempo": 120.0
            },
            {
                "start_time": 18.05909090909091,
                "end_time": 18.295454545454543,
                "pitch": 90,
                "velocity": 51,
                "duration": 0.23636363636363455,
                "tempo": 120.0
            },
            {
                "start_time": 18.347727272727273,
                "end_time": 18.45,
                "pitch": 90,
                "velocity": 51,
                "duration": 0.10227272727272663,
                "tempo": 120.0
            },
            {
                "start_time": 18.502272727272725,
                "end_time": 18.918181818181818,
                "pitch": 88,
                "velocity": 51,
                "duration": 0.4159090909090928,
                "tempo": 120.0
            },
            {
                "start_time": 18.96818181818182,
                "end_time": 19.222727272727273,
                "pitch": 86,
                "velocity": 51,
                "duration": 0.25454545454545396,
                "tempo": 120.0
            }
        ],
        "Flute": [
            {
                "start_time": 0.045454545454545456,
                "end_time": 0.07727272727272727,
                "pitch": 79,
                "velocity": 51,
                "duration": 0.031818181818181815,
                "tempo": 120.0
            },
            {
                "start_time": 0.07727272727272727,
                "end_time": 0.5295454545454545,
                "pitch": 79,
                "velocity": 51,
                "duration": 0.45227272727272727,
                "tempo": 120.0
            },
            {
                "start_time": 0.5795454545454545,
                "end_time": 0.8318181818181818,
                "pitch": 84,
                "velocity": 51,
                "duration": 0.2522727272727273,
                "tempo": 120.0
            },
            {
                "start_time": 0.8818181818181817,
                "end_time": 1.2818181818181817,
                "pitch": 83,
                "velocity": 51,
                "duration": 0.4,
                "tempo": 120.0
            },
            {
                "start_time": 1.3318181818181818,
                "end_time": 1.5818181818181818,
                "pitch": 79,
                "velocity": 51,
                "duration": 0.25,
                "tempo": 120.0
            },
            {
                "start_time": 1.6318181818181818,
                "end_time": 1.7318181818181817,
                "pitch": 79,
                "velocity": 51,
                "duration": 0.09999999999999987,
                "tempo": 120.0
            },
            {
                "start_time": 1.7818181818181817,
                "end_time": 2.0318181818181817,
                "pitch": 84,
                "velocity": 51,
                "duration": 0.25,
                "tempo": 120.0
            },
            {
                "start_time": 2.0818181818181816,
                "end_time": 2.3318181818181816,
                "pitch": 83,
                "velocity": 51,
                "duration": 0.25,
                "tempo": 120.0
            },
            {
                "start_time": 2.381818181818182,
                "end_time": 3.543181818181818,
                "pitch": 86,
                "velocity": 51,
                "duration": 1.1613636363636362,
                "tempo": 120.0
            },
            {
                "start_time": 3.593181818181818,
                "end_time": 5.118181818181818,
                "pitch": 86,
                "velocity": 51,
                "duration": 1.5250000000000004,
                "tempo": 120.0
            },
            {
                "start_time": 5.118181818181818,
                "end_time": 5.3545454545454545,
                "pitch": 79,
                "velocity": 51,
                "duration": 0.23636363636363633,
                "tempo": 120.0
            },
            {
                "start_time": 5.404545454545454,
                "end_time": 5.656818181818181,
                "pitch": 84,
                "velocity": 51,
                "duration": 0.252272727272727,
                "tempo": 120.0
            },
            {
                "start_time": 5.706818181818181,
                "end_time": 5.806818181818182,
                "pitch": 83,
                "velocity": 51,
                "duration": 0.10000000000000053,
                "tempo": 120.0
            },
            {
                "start_time": 5.8568181818181815,
                "end_time": 6.1068181818181815,
                "pitch": 79,
                "velocity": 51,
                "duration": 0.25,
                "tempo": 120.0
            },
            {
                "start_time": 6.156818181818181,
                "end_time": 6.256818181818182,
                "pitch": 79,
                "velocity": 51,
                "duration": 0.10000000000000053,
                "tempo": 120.0
            },
            {
                "start_time": 6.306818181818182,
                "end_time": 6.556818181818182,
                "pitch": 84,
                "velocity": 51,
                "duration": 0.25,
                "tempo": 120.0
            },
            {
                "start_time": 6.6068181818181815,
                "end_time": 6.8568181818181815,
                "pitch": 83,
                "velocity": 51,
                "duration": 0.25,
                "tempo": 120.0
            },
            {
                "start_time": 6.906818181818181,
                "end_time": 7.161363636363636,
                "pitch": 84,
                "velocity": 51,
                "duration": 0.25454545454545485,
                "tempo": 120.0
            },
            {
                "start_time": 7.211363636363636,
                "end_time": 8.36590909090909,
                "pitch": 86,
                "velocity": 51,
                "duration": 1.1545454545454543,
                "tempo": 120.0
            },
            {
                "start_time": 8.415909090909091,
                "end_time": 9.936363636363636,
                "pitch": 90,
                "velocity": 51,
                "duration": 1.5204545454545446,
                "tempo": 120.0
            },
            {
                "start_time": 9.936363636363636,
                "end_time": 10.168181818181818,
                "pitch": 79,
                "velocity": 51,
                "duration": 0.23181818181818237,
                "tempo": 120.0
            },
            {
                "start_time": 10.218181818181817,
                "end_time": 10.470454545454546,
                "pitch": 84,
                "velocity": 51,
                "duration": 0.25227272727272876,
                "tempo": 120.0
            },
            {
                "start_time": 10.520454545454545,
                "end_time": 10.620454545454544,
                "pitch": 83,
                "velocity": 51,
                "duration": 0.09999999999999964,
                "tempo": 120.0
            },
            {
                "start_time": 10.670454545454545,
                "end_time": 10.924999999999999,
                "pitch": 79,
                "velocity": 51,
                "duration": 0.25454545454545396,
                "tempo": 120.0
            },
            {
                "start_time": 10.975,
                "end_time": 11.075,
                "pitch": 79,
                "velocity": 51,
                "duration": 0.09999999999999964,
                "tempo": 120.0
            },
            {
                "start_time": 11.125,
                "end_time": 11.375,
                "pitch": 84,
                "velocity": 51,
                "duration": 0.25,
                "tempo": 120.0
            },
            {
                "start_time": 11.424999999999999,
                "end_time": 11.674999999999999,
                "pitch": 83,
                "velocity": 51,
                "duration": 0.25,
                "tempo": 120.0
            },
            {
                "start_time": 11.725,
                "end_time": 11.975,
                "pitch": 84,
                "velocity": 51,
                "duration": 0.25,
                "tempo": 120.0
            },
            {
                "start_time": 12.024999999999999,
                "end_time": 13.174999999999999,
                "pitch": 86,
                "velocity": 51,
                "duration": 1.1500000000000004,
                "tempo": 120.0
            },
            {
                "start_time": 13.225,
                "end_time": 14.447727272727272,
                "pitch": 86,
                "velocity": 51,
                "duration": 1.2227272727272727,
                "tempo": 120.0
            },
            {
                "start_time": 14.447727272727272,
                "end_time": 14.98181818181818,
                "pitch": 79,
                "velocity": 51,
                "duration": 0.5340909090909083,
                "tempo": 120.0
            },
            {
                "start_time": 15.031818181818181,
                "end_time": 15.281818181818181,
                "pitch": 84,
                "velocity": 51,
                "duration": 0.25,
                "tempo": 120.0
            },
            {
                "start_time": 15.33181818181818,
                "end_time": 15.73181818181818,
                "pitch": 83,
                "velocity": 51,
                "duration": 0.40000000000000036,
                "tempo": 120.0
            },
            {
                "start_time": 15.781818181818181,
                "end_time": 16.03181818181818,
                "pitch": 79,
                "velocity": 51,
                "duration": 0.25,
                "tempo": 120.0
            },
            {
                "start_time": 16.081818181818182,
                "end_time": 16.18181818181818,
                "pitch": 79,
                "velocity": 51,
                "duration": 0.09999999999999787,
                "tempo": 120.0
            },
            {
                "start_time": 16.23181818181818,
                "end_time": 16.48181818181818,
                "pitch": 84,
                "velocity": 51,
                "duration": 0.25,
                "tempo": 120.0
            },
            {
                "start_time": 16.53181818181818,
                "end_time": 16.78181818181818,
                "pitch": 83,
                "velocity": 51,
                "duration": 0.25,
                "tempo": 120.0
            },
            {
                "start_time": 16.831818181818182,
                "end_time": 17.99090909090909,
                "pitch": 86,
                "velocity": 51,
                "duration": 1.1590909090909065,
                "tempo": 120.0
            },
            {
                "start_time": 18.04090909090909,
                "end_time": 28.93181818181818,
                "pitch": 90,
                "velocity": 51,
                "duration": 10.89090909090909,
                "tempo": 120.0
            },
            {
                "start_time": 28.93181818181818,
                "end_time": 28.94772727272727,
                "pitch": 79,
                "velocity": 51,
                "duration": 0.01590909090909065,
                "tempo": 120.0
            }
        ],
        "Trumpet": [
            {
                "start_time": 20.07272727272727,
                "end_time": 20.34318181818182,
                "pitch": 88,
                "velocity": 64,
                "duration": 0.27045454545454817,
                "tempo": 120.0
            },
            {
                "start_time": 20.377272727272725,
                "end_time": 20.797727272727272,
                "pitch": 86,
                "velocity": 64,
                "duration": 0.42045454545454675,
                "tempo": 120.0
            },
            {
                "start_time": 20.831818181818182,
                "end_time": 21.852272727272727,
                "pitch": 88,
                "velocity": 64,
                "duration": 1.0204545454545446,
                "tempo": 120.0
            },
            {
                "start_time": 21.886363636363637,
                "end_time": 22.154545454545453,
                "pitch": 89,
                "velocity": 64,
                "duration": 0.26818181818181586,
                "tempo": 120.0
            },
            {
                "start_time": 22.188636363636363,
                "end_time": 22.459090909090907,
                "pitch": 89,
                "velocity": 64,
                "duration": 0.2704545454545446,
                "tempo": 120.0
            },
            {
                "start_time": 22.49090909090909,
                "end_time": 22.759090909090908,
                "pitch": 91,
                "velocity": 64,
                "duration": 0.2681818181818194,
                "tempo": 120.0
            },
            {
                "start_time": 22.79090909090909,
                "end_time": 23.05909090909091,
                "pitch": 93,
                "velocity": 64,
                "duration": 0.2681818181818194,
                "tempo": 120.0
            },
            {
                "start_time": 23.09090909090909,
                "end_time": 23.209090909090907,
                "pitch": 91,
                "velocity": 64,
                "duration": 0.11818181818181728,
                "tempo": 120.0
            },
            {
                "start_time": 23.243181818181817,
                "end_time": 23.96818181818182,
                "pitch": 89,
                "velocity": 64,
                "duration": 0.7250000000000014,
                "tempo": 120.0
            },
            {
                "start_time": 24.0,
                "end_time": 24.870454545454542,
                "pitch": 92,
                "velocity": 64,
                "duration": 0.8704545454545425,
                "tempo": 120.0
            },
            {
                "start_time": 24.904545454545453,
                "end_time": 25.172727272727272,
                "pitch": 88,
                "velocity": 64,
                "duration": 0.2681818181818194,
                "tempo": 120.0
            },
            {
                "start_time": 25.206818181818182,
                "end_time": 25.627272727272725,
                "pitch": 86,
                "velocity": 64,
                "duration": 0.4204545454545432,
                "tempo": 120.0
            },
            {
                "start_time": 25.659090909090907,
                "end_time": 26.379545454545454,
                "pitch": 88,
                "velocity": 64,
                "duration": 0.7204545454545475,
                "tempo": 120.0
            },
            {
                "start_time": 26.413636363636364,
                "end_time": 26.53181818181818,
                "pitch": 89,
                "velocity": 64,
                "duration": 0.11818181818181728,
                "tempo": 120.0
            },
            {
                "start_time": 26.563636363636363,
                "end_time": 26.597727272727273,
                "pitch": 89,
                "velocity": 64,
                "duration": 0.03409090909091006,
                "tempo": 120.0
            },
            {
                "start_time": 27.02272727272727,
                "end_time": 27.14090909090909,
                "pitch": 89,
                "velocity": 64,
                "duration": 0.11818181818182083,
                "tempo": 120.0
            },
            {
                "start_time": 27.174999999999997,
                "end_time": 27.243181818181817,
                "pitch": 89,
                "velocity": 64,
                "duration": 0.06818181818182012,
                "tempo": 120.0
            },
            {
                "start_time": 27.763636363636362,
                "end_time": 27.877272727272725,
                "pitch": 91,
                "velocity": 64,
                "duration": 0.11363636363636331,
                "tempo": 120.0
            },
            {
                "start_time": 27.911363636363635,
                "end_time": 28.18181818181818,
                "pitch": 91,
                "velocity": 64,
                "duration": 0.2704545454545446,
                "tempo": 120.0
            },
            {
                "start_time": 28.21590909090909,
                "end_time": 28.488636363636363,
                "pitch": 91,
                "velocity": 64,
                "duration": 0.2727272727272734,
                "tempo": 120.0
            },
            {
                "start_time": 28.52272727272727,
                "end_time": 28.795454545454543,
                "pitch": 91,
                "velocity": 64,
                "duration": 0.2727272727272734,
                "tempo": 120.0
            }
        ],
        "Electric Guitar (clean)": [
            {
                "start_time": 0.08863636363636364,
                "end_time": 0.1659090909090909,
                "pitch": 36,
                "velocity": 51,
                "duration": 0.07727272727272726,
                "tempo": 120.0
            },
            {
                "start_time": 0.19318181818181818,
                "end_time": 0.31136363636363634,
                "pitch": 36,
                "velocity": 51,
                "duration": 0.11818181818181817,
                "tempo": 120.0
            },
            {
                "start_time": 0.34545454545454546,
                "end_time": 0.4636363636363636,
                "pitch": 36,
                "velocity": 51,
                "duration": 0.11818181818181817,
                "tempo": 120.0
            },
            {
                "start_time": 0.4954545454545454,
                "end_time": 0.6136363636363636,
                "pitch": 36,
                "velocity": 51,
                "duration": 0.11818181818181822,
                "tempo": 120.0
            },
            {
                "start_time": 0.6477272727272727,
                "end_time": 0.7659090909090909,
                "pitch": 36,
                "velocity": 51,
                "duration": 0.11818181818181817,
                "tempo": 120.0
            },
            {
                "start_time": 0.7999999999999999,
                "end_time": 0.9159090909090909,
                "pitch": 36,
                "velocity": 51,
                "duration": 0.11590909090909096,
                "tempo": 120.0
            },
            {
                "start_time": 0.95,
                "end_time": 1.065909090909091,
                "pitch": 36,
                "velocity": 51,
                "duration": 0.11590909090909096,
                "tempo": 120.0
            },
            {
                "start_time": 1.0999999999999999,
                "end_time": 1.2159090909090908,
                "pitch": 36,
                "velocity": 51,
                "duration": 0.11590909090909096,
                "tempo": 120.0
            },
            {
                "start_time": 1.25,
                "end_time": 1.3659090909090907,
                "pitch": 36,
                "velocity": 51,
                "duration": 0.11590909090909074,
                "tempo": 120.0
            },
            {
                "start_time": 1.4,
                "end_time": 1.5159090909090909,
                "pitch": 36,
                "velocity": 51,
                "duration": 0.11590909090909096,
                "tempo": 120.0
            },
            {
                "start_time": 1.5499999999999998,
                "end_time": 1.6659090909090908,
                "pitch": 36,
                "velocity": 51,
                "duration": 0.11590909090909096,
                "tempo": 120.0
            },
            {
                "start_time": 1.7,
                "end_time": 1.815909090909091,
                "pitch": 36,
                "velocity": 51,
                "duration": 0.11590909090909096,
                "tempo": 120.0
            },
            {
                "start_time": 1.8499999999999999,
                "end_time": 1.9659090909090908,
                "pitch": 36,
                "velocity": 51,
                "duration": 0.11590909090909096,
                "tempo": 120.0
            },
            {
                "start_time": 2.0,
                "end_time": 2.1159090909090907,
                "pitch": 36,
                "velocity": 51,
                "duration": 0.11590909090909074,
                "tempo": 120.0
            },
            {
                "start_time": 2.15,
                "end_time": 2.2659090909090907,
                "pitch": 36,
                "velocity": 51,
                "duration": 0.11590909090909074,
                "tempo": 120.0
            },
            {
                "start_time": 2.3,
                "end_time": 2.415909090909091,
                "pitch": 38,
                "velocity": 51,
                "duration": 0.11590909090909118,
                "tempo": 120.0
            },
            {
                "start_time": 2.4499999999999997,
                "end_time": 2.565909090909091,
                "pitch": 38,
                "velocity": 51,
                "duration": 0.11590909090909118,
                "tempo": 120.0
            },
            {
                "start_time": 2.6,
                "end_time": 2.7181818181818183,
                "pitch": 38,
                "velocity": 51,
                "duration": 0.11818181818181817,
                "tempo": 120.0
            },
            {
                "start_time": 2.75,
                "end_time": 2.868181818181818,
                "pitch": 38,
                "velocity": 51,
                "duration": 0.11818181818181817,
                "tempo": 120.0
            },
            {
                "start_time": 2.9022727272727273,
                "end_time": 3.0204545454545455,
                "pitch": 38,
                "velocity": 51,
                "duration": 0.11818181818181817,
                "tempo": 120.0
            },
            {
                "start_time": 3.0545454545454542,
                "end_time": 3.1727272727272724,
                "pitch": 38,
                "velocity": 51,
                "duration": 0.11818181818181817,
                "tempo": 120.0
            },
            {
                "start_time": 3.2045454545454546,
                "end_time": 3.3227272727272728,
                "pitch": 38,
                "velocity": 51,
                "duration": 0.11818181818181817,
                "tempo": 120.0
            },
            {
                "start_time": 3.3568181818181815,
                "end_time": 3.4749999999999996,
                "pitch": 38,
                "velocity": 51,
                "duration": 0.11818181818181817,
                "tempo": 120.0
            },
            {
                "start_time": 3.509090909090909,
                "end_time": 3.627272727272727,
                "pitch": 38,
                "velocity": 51,
                "duration": 0.11818181818181817,
                "tempo": 120.0
            },
            {
                "start_time": 3.6590909090909087,
                "end_time": 3.777272727272727,
                "pitch": 38,
                "velocity": 51,
                "duration": 0.11818181818181817,
                "tempo": 120.0
            },
            {
                "start_time": 3.811363636363636,
                "end_time": 3.9295454545454542,
                "pitch": 38,
                "velocity": 51,
                "duration": 0.11818181818181817,
                "tempo": 120.0
            },
            {
                "start_time": 3.9636363636363634,
                "end_time": 4.081818181818182,
                "pitch": 38,
                "velocity": 51,
                "duration": 0.11818181818181861,
                "tempo": 120.0
            },
            {
                "start_time": 4.113636363636363,
                "end_time": 4.2318181818181815,
                "pitch": 42,
                "velocity": 51,
                "duration": 0.11818181818181817,
                "tempo": 120.0
            },
            {
                "start_time": 4.265909090909091,
                "end_time": 4.384090909090909,
                "pitch": 38,
                "velocity": 51,
                "duration": 0.11818181818181817,
                "tempo": 120.0
            },
            {
                "start_time": 4.418181818181818,
                "end_time": 4.534090909090909,
                "pitch": 40,
                "velocity": 51,
                "duration": 0.11590909090909118,
                "tempo": 120.0
            },
            {
                "start_time": 4.568181818181818,
                "end_time": 4.684090909090909,
                "pitch": 38,
                "velocity": 51,
                "duration": 0.1159090909090903,
                "tempo": 120.0
            },
            {
                "start_time": 4.718181818181818,
                "end_time": 4.834090909090909,
                "pitch": 36,
                "velocity": 51,
                "duration": 0.11590909090909118,
                "tempo": 120.0
            },
            {
                "start_time": 4.868181818181818,
                "end_time": 4.9840909090909085,
                "pitch": 36,
                "velocity": 51,
                "duration": 0.1159090909090903,
                "tempo": 120.0
            },
            {
                "start_time": 5.018181818181818,
                "end_time": 5.136363636363636,
                "pitch": 36,
                "velocity": 51,
                "duration": 0.11818181818181817,
                "tempo": 120.0
            },
            {
                "start_time": 5.168181818181818,
                "end_time": 5.286363636363636,
                "pitch": 36,
                "velocity": 51,
                "duration": 0.11818181818181817,
                "tempo": 120.0
            },
            {
                "start_time": 5.320454545454545,
                "end_time": 5.4386363636363635,
                "pitch": 36,
                "velocity": 51,
                "duration": 0.11818181818181817,
                "tempo": 120.0
            },
            {
                "start_time": 5.472727272727273,
                "end_time": 5.590909090909091,
                "pitch": 36,
                "velocity": 51,
                "duration": 0.11818181818181817,
                "tempo": 120.0
            },
            {
                "start_time": 5.622727272727272,
                "end_time": 5.74090909090909,
                "pitch": 36,
                "velocity": 51,
                "duration": 0.11818181818181817,
                "tempo": 120.0
            },
            {
                "start_time": 5.7727272727272725,
                "end_time": 5.890909090909091,
                "pitch": 36,
                "velocity": 51,
                "duration": 0.11818181818181817,
                "tempo": 120.0
            },
            {
                "start_time": 5.922727272727273,
                "end_time": 6.040909090909091,
                "pitch": 36,
                "velocity": 51,
                "duration": 0.11818181818181817,
                "tempo": 120.0
            },
            {
                "start_time": 6.072727272727272,
                "end_time": 6.1909090909090905,
                "pitch": 36,
                "velocity": 51,
                "duration": 0.11818181818181817,
                "tempo": 120.0
            },
            {
                "start_time": 6.222727272727273,
                "end_time": 6.340909090909091,
                "pitch": 36,
                "velocity": 51,
                "duration": 0.11818181818181817,
                "tempo": 120.0
            },
            {
                "start_time": 6.372727272727272,
                "end_time": 6.49090909090909,
                "pitch": 36,
                "velocity": 51,
                "duration": 0.11818181818181817,
                "tempo": 120.0
            },
            {
                "start_time": 6.5227272727272725,
                "end_time": 6.640909090909091,
                "pitch": 36,
                "velocity": 51,
                "duration": 0.11818181818181817,
                "tempo": 120.0
            },
            {
                "start_time": 6.672727272727273,
                "end_time": 6.790909090909091,
                "pitch": 36,
                "velocity": 51,
                "duration": 0.11818181818181817,
                "tempo": 120.0
            },
            {
                "start_time": 6.822727272727272,
                "end_time": 6.9409090909090905,
                "pitch": 36,
                "velocity": 51,
                "duration": 0.11818181818181817,
                "tempo": 120.0
            },
            {
                "start_time": 6.975,
                "end_time": 7.093181818181818,
                "pitch": 36,
                "velocity": 51,
                "duration": 0.11818181818181817,
                "tempo": 120.0
            },
            {
                "start_time": 7.127272727272727,
                "end_time": 7.245454545454545,
                "pitch": 38,
                "velocity": 51,
                "duration": 0.11818181818181817,
                "tempo": 120.0
            },
            {
                "start_time": 7.277272727272727,
                "end_time": 7.3954545454545455,
                "pitch": 38,
                "velocity": 51,
                "duration": 0.11818181818181817,
                "tempo": 120.0
            },
            {
                "start_time": 7.429545454545454,
                "end_time": 7.545454545454545,
                "pitch": 38,
                "velocity": 51,
                "duration": 0.11590909090909118,
                "tempo": 120.0
            },
            {
                "start_time": 7.579545454545454,
                "end_time": 7.695454545454545,
                "pitch": 38,
                "velocity": 51,
                "duration": 0.11590909090909118,
                "tempo": 120.0
            },
            {
                "start_time": 7.7295454545454545,
                "end_time": 7.845454545454545,
                "pitch": 38,
                "velocity": 51,
                "duration": 0.1159090909090903,
                "tempo": 120.0
            },
            {
                "start_time": 7.879545454545454,
                "end_time": 7.995454545454545,
                "pitch": 38,
                "velocity": 51,
                "duration": 0.11590909090909118,
                "tempo": 120.0
            },
            {
                "start_time": 8.029545454545454,
                "end_time": 8.147727272727272,
                "pitch": 38,
                "velocity": 51,
                "duration": 0.11818181818181728,
                "tempo": 120.0
            },
            {
                "start_time": 8.181818181818182,
                "end_time": 8.299999999999999,
                "pitch": 38,
                "velocity": 51,
                "duration": 0.11818181818181728,
                "tempo": 120.0
            },
            {
                "start_time": 8.331818181818182,
                "end_time": 8.45,
                "pitch": 38,
                "velocity": 51,
                "duration": 0.11818181818181728,
                "tempo": 120.0
            },
            {
                "start_time": 8.48409090909091,
                "end_time": 8.602272727272727,
                "pitch": 38,
                "velocity": 51,
                "duration": 0.11818181818181728,
                "tempo": 120.0
            },
            {
                "start_time": 8.636363636363637,
                "end_time": 8.752272727272727,
                "pitch": 38,
                "velocity": 51,
                "duration": 0.1159090909090903,
                "tempo": 120.0
            },
            {
                "start_time": 8.786363636363635,
                "end_time": 8.902272727272727,
                "pitch": 38,
                "velocity": 51,
                "duration": 0.11590909090909207,
                "tempo": 120.0
            },
            {
                "start_time": 8.936363636363636,
                "end_time": 9.052272727272728,
                "pitch": 42,
                "velocity": 51,
                "duration": 0.11590909090909207,
                "tempo": 120.0
            },
            {
                "start_time": 9.086363636363636,
                "end_time": 9.202272727272726,
                "pitch": 38,
                "velocity": 51,
                "duration": 0.1159090909090903,
                "tempo": 120.0
            },
            {
                "start_time": 9.236363636363636,
                "end_time": 9.352272727272727,
                "pitch": 40,
                "velocity": 51,
                "duration": 0.1159090909090903,
                "tempo": 120.0
            },
            {
                "start_time": 9.386363636363637,
                "end_time": 9.502272727272727,
                "pitch": 38,
                "velocity": 51,
                "duration": 0.1159090909090903,
                "tempo": 120.0
            },
            {
                "start_time": 9.536363636363635,
                "end_time": 9.652272727272727,
                "pitch": 36,
                "velocity": 51,
                "duration": 0.11590909090909207,
                "tempo": 120.0
            },
            {
                "start_time": 9.686363636363636,
                "end_time": 9.802272727272726,
                "pitch": 36,
                "velocity": 51,
                "duration": 0.1159090909090903,
                "tempo": 120.0
            },
            {
                "start_time": 9.836363636363636,
                "end_time": 9.952272727272726,
                "pitch": 36,
                "velocity": 51,
                "duration": 0.1159090909090903,
                "tempo": 120.0
            },
            {
                "start_time": 9.986363636363636,
                "end_time": 10.102272727272727,
                "pitch": 36,
                "velocity": 51,
                "duration": 0.1159090909090903,
                "tempo": 120.0
            },
            {
                "start_time": 10.136363636363637,
                "end_time": 10.252272727272727,
                "pitch": 36,
                "velocity": 51,
                "duration": 0.1159090909090903,
                "tempo": 120.0
            },
            {
                "start_time": 10.286363636363635,
                "end_time": 10.402272727272727,
                "pitch": 36,
                "velocity": 51,
                "duration": 0.11590909090909207,
                "tempo": 120.0
            },
            {
                "start_time": 10.436363636363636,
                "end_time": 10.554545454545455,
                "pitch": 36,
                "velocity": 51,
                "duration": 0.11818181818181905,
                "tempo": 120.0
            },
            {
                "start_time": 10.586363636363636,
                "end_time": 10.704545454545453,
                "pitch": 36,
                "velocity": 51,
                "duration": 0.11818181818181728,
                "tempo": 120.0
            },
            {
                "start_time": 10.738636363636363,
                "end_time": 10.85681818181818,
                "pitch": 36,
                "velocity": 51,
                "duration": 0.11818181818181728,
                "tempo": 120.0
            },
            {
                "start_time": 10.89090909090909,
                "end_time": 11.009090909090908,
                "pitch": 36,
                "velocity": 51,
                "duration": 0.11818181818181728,
                "tempo": 120.0
            },
            {
                "start_time": 11.040909090909091,
                "end_time": 11.159090909090908,
                "pitch": 36,
                "velocity": 51,
                "duration": 0.11818181818181728,
                "tempo": 120.0
            },
            {
                "start_time": 11.19090909090909,
                "end_time": 11.309090909090909,
                "pitch": 36,
                "velocity": 51,
                "duration": 0.11818181818181905,
                "tempo": 120.0
            },
            {
                "start_time": 11.34090909090909,
                "end_time": 11.459090909090909,
                "pitch": 36,
                "velocity": 51,
                "duration": 0.11818181818181905,
                "tempo": 120.0
            },
            {
                "start_time": 11.49090909090909,
                "end_time": 11.60909090909091,
                "pitch": 36,
                "velocity": 51,
                "duration": 0.11818181818181905,
                "tempo": 120.0
            },
            {
                "start_time": 11.64090909090909,
                "end_time": 11.759090909090908,
                "pitch": 36,
                "velocity": 51,
                "duration": 0.11818181818181728,
                "tempo": 120.0
            },
            {
                "start_time": 11.790909090909091,
                "end_time": 11.909090909090908,
                "pitch": 36,
                "velocity": 51,
                "duration": 0.11818181818181728,
                "tempo": 120.0
            },
            {
                "start_time": 11.94090909090909,
                "end_time": 12.059090909090909,
                "pitch": 38,
                "velocity": 51,
                "duration": 0.11818181818181905,
                "tempo": 120.0
            },
            {
                "start_time": 12.09090909090909,
                "end_time": 12.209090909090909,
                "pitch": 38,
                "velocity": 51,
                "duration": 0.11818181818181905,
                "tempo": 120.0
            },
            {
                "start_time": 12.24090909090909,
                "end_time": 12.35909090909091,
                "pitch": 38,
                "velocity": 51,
                "duration": 0.11818181818181905,
                "tempo": 120.0
            },
            {
                "start_time": 12.39090909090909,
                "end_time": 12.509090909090908,
                "pitch": 38,
                "velocity": 51,
                "duration": 0.11818181818181728,
                "tempo": 120.0
            },
            {
                "start_time": 12.540909090909091,
                "end_time": 12.659090909090908,
                "pitch": 38,
                "velocity": 51,
                "duration": 0.11818181818181728,
                "tempo": 120.0
            },
            {
                "start_time": 12.69090909090909,
                "end_time": 12.809090909090909,
                "pitch": 38,
                "velocity": 51,
                "duration": 0.11818181818181905,
                "tempo": 120.0
            },
            {
                "start_time": 12.84090909090909,
                "end_time": 12.959090909090909,
                "pitch": 38,
                "velocity": 51,
                "duration": 0.11818181818181905,
                "tempo": 120.0
            },
            {
                "start_time": 12.99090909090909,
                "end_time": 13.109090909090908,
                "pitch": 38,
                "velocity": 51,
                "duration": 0.11818181818181728,
                "tempo": 120.0
            },
            {
                "start_time": 13.14090909090909,
                "end_time": 13.259090909090908,
                "pitch": 42,
                "velocity": 51,
                "duration": 0.11818181818181728,
                "tempo": 120.0
            },
            {
                "start_time": 13.290909090909091,
                "end_time": 13.409090909090908,
                "pitch": 38,
                "velocity": 51,
                "duration": 0.11818181818181728,
                "tempo": 120.0
            },
            {
                "start_time": 13.44090909090909,
                "end_time": 13.559090909090909,
                "pitch": 42,
                "velocity": 51,
                "duration": 0.11818181818181905,
                "tempo": 120.0
            },
            {
                "start_time": 13.593181818181817,
                "end_time": 13.711363636363636,
                "pitch": 38,
                "velocity": 51,
                "duration": 0.11818181818181905,
                "tempo": 120.0
            },
            {
                "start_time": 13.745454545454544,
                "end_time": 13.863636363636363,
                "pitch": 43,
                "velocity": 51,
                "duration": 0.11818181818181905,
                "tempo": 120.0
            },
            {
                "start_time": 13.895454545454545,
                "end_time": 14.013636363636364,
                "pitch": 38,
                "velocity": 51,
                "duration": 0.11818181818181905,
                "tempo": 120.0
            },
            {
                "start_time": 14.047727272727272,
                "end_time": 14.163636363636362,
                "pitch": 42,
                "velocity": 51,
                "duration": 0.1159090909090903,
                "tempo": 120.0
            },
            {
                "start_time": 14.197727272727272,
                "end_time": 14.313636363636363,
                "pitch": 38,
                "velocity": 51,
                "duration": 0.1159090909090903,
                "tempo": 120.0
            },
            {
                "start_time": 14.347727272727273,
                "end_time": 14.463636363636363,
                "pitch": 36,
                "velocity": 51,
                "duration": 0.1159090909090903,
                "tempo": 120.0
            },
            {
                "start_time": 14.497727272727271,
                "end_time": 14.613636363636363,
                "pitch": 36,
                "velocity": 51,
                "duration": 0.11590909090909207,
                "tempo": 120.0
            },
            {
                "start_time": 14.647727272727272,
                "end_time": 14.763636363636364,
                "pitch": 36,
                "velocity": 51,
                "duration": 0.11590909090909207,
                "tempo": 120.0
            },
            {
                "start_time": 14.797727272727272,
                "end_time": 14.913636363636362,
                "pitch": 36,
                "velocity": 51,
                "duration": 0.1159090909090903,
                "tempo": 120.0
            },
            {
                "start_time": 14.947727272727272,
                "end_time": 15.063636363636363,
                "pitch": 36,
                "velocity": 51,
                "duration": 0.1159090909090903,
                "tempo": 120.0
            },
            {
                "start_time": 15.097727272727273,
                "end_time": 15.213636363636363,
                "pitch": 36,
                "velocity": 51,
                "duration": 0.1159090909090903,
                "tempo": 120.0
            },
            {
                "start_time": 15.247727272727271,
                "end_time": 15.363636363636363,
                "pitch": 36,
                "velocity": 51,
                "duration": 0.11590909090909207,
                "tempo": 120.0
            },
            {
                "start_time": 15.397727272727272,
                "end_time": 15.513636363636364,
                "pitch": 36,
                "velocity": 51,
                "duration": 0.11590909090909207,
                "tempo": 120.0
            },
            {
                "start_time": 15.547727272727272,
                "end_time": 15.663636363636362,
                "pitch": 36,
                "velocity": 51,
                "duration": 0.1159090909090903,
                "tempo": 120.0
            },
            {
                "start_time": 15.697727272727272,
                "end_time": 15.813636363636363,
                "pitch": 36,
                "velocity": 51,
                "duration": 0.1159090909090903,
                "tempo": 120.0
            },
            {
                "start_time": 15.847727272727273,
                "end_time": 15.963636363636363,
                "pitch": 36,
                "velocity": 51,
                "duration": 0.1159090909090903,
                "tempo": 120.0
            },
            {
                "start_time": 15.997727272727271,
                "end_time": 16.113636363636363,
                "pitch": 36,
                "velocity": 51,
                "duration": 0.11590909090909207,
                "tempo": 120.0
            },
            {
                "start_time": 16.147727272727273,
                "end_time": 16.263636363636362,
                "pitch": 36,
                "velocity": 51,
                "duration": 0.11590909090908852,
                "tempo": 120.0
            },
            {
                "start_time": 16.297727272727272,
                "end_time": 16.413636363636364,
                "pitch": 36,
                "velocity": 51,
                "duration": 0.11590909090909207,
                "tempo": 120.0
            },
            {
                "start_time": 16.44772727272727,
                "end_time": 16.563636363636363,
                "pitch": 36,
                "velocity": 51,
                "duration": 0.11590909090909207,
                "tempo": 120.0
            },
            {
                "start_time": 16.597727272727273,
                "end_time": 16.71363636363636,
                "pitch": 36,
                "velocity": 51,
                "duration": 0.11590909090908852,
                "tempo": 120.0
            },
            {
                "start_time": 16.74772727272727,
                "end_time": 16.863636363636363,
                "pitch": 38,
                "velocity": 51,
                "duration": 0.11590909090909207,
                "tempo": 120.0
            },
            {
                "start_time": 16.897727272727273,
                "end_time": 17.013636363636362,
                "pitch": 38,
                "velocity": 51,
                "duration": 0.11590909090908852,
                "tempo": 120.0
            },
            {
                "start_time": 17.047727272727272,
                "end_time": 17.16590909090909,
                "pitch": 38,
                "velocity": 51,
                "duration": 0.11818181818181728,
                "tempo": 120.0
            },
            {
                "start_time": 17.2,
                "end_time": 17.318181818181817,
                "pitch": 38,
                "velocity": 51,
                "duration": 0.11818181818181728,
                "tempo": 120.0
            },
            {
                "start_time": 17.349999999999998,
                "end_time": 17.46818181818182,
                "pitch": 38,
                "velocity": 51,
                "duration": 0.11818181818182083,
                "tempo": 120.0
            },
            {
                "start_time": 17.502272727272725,
                "end_time": 17.620454545454546,
                "pitch": 38,
                "velocity": 51,
                "duration": 0.11818181818182083,
                "tempo": 120.0
            },
            {
                "start_time": 17.654545454545453,
                "end_time": 17.772727272727273,
                "pitch": 38,
                "velocity": 51,
                "duration": 0.11818181818182083,
                "tempo": 120.0
            },
            {
                "start_time": 17.804545454545455,
                "end_time": 17.922727272727272,
                "pitch": 38,
                "velocity": 51,
                "duration": 0.11818181818181728,
                "tempo": 120.0
            },
            {
                "start_time": 17.956818181818182,
                "end_time": 18.075,
                "pitch": 40,
                "velocity": 51,
                "duration": 0.11818181818181728,
                "tempo": 120.0
            },
            {
                "start_time": 18.10909090909091,
                "end_time": 18.227272727272727,
                "pitch": 38,
                "velocity": 51,
                "duration": 0.11818181818181728,
                "tempo": 120.0
            },
            {
                "start_time": 18.259090909090908,
                "end_time": 18.38181818181818,
                "pitch": 42,
                "velocity": 51,
                "duration": 0.12272727272727124,
                "tempo": 120.0
            },
            {
                "start_time": 18.41590909090909,
                "end_time": 18.538636363636364,
                "pitch": 38,
                "velocity": 51,
                "duration": 0.1227272727272748,
                "tempo": 120.0
            },
            {
                "start_time": 18.57272727272727,
                "end_time": 18.693181818181817,
                "pitch": 43,
                "velocity": 51,
                "duration": 0.12045454545454604,
                "tempo": 120.0
            },
            {
                "start_time": 18.729545454545455,
                "end_time": 18.849999999999998,
                "pitch": 38,
                "velocity": 51,
                "duration": 0.12045454545454248,
                "tempo": 120.0
            },
            {
                "start_time": 18.884090909090908,
                "end_time": 19.002272727272725,
                "pitch": 42,
                "velocity": 51,
                "duration": 0.11818181818181728,
                "tempo": 120.0
            },
            {
                "start_time": 19.036363636363635,
                "end_time": 19.154545454545453,
                "pitch": 38,
                "velocity": 51,
                "duration": 0.11818181818181728,
                "tempo": 120.0
            },
            {
                "start_time": 19.188636363636363,
                "end_time": 19.30681818181818,
                "pitch": 40,
                "velocity": 51,
                "duration": 0.11818181818181728,
                "tempo": 120.0
            },
            {
                "start_time": 19.33863636363636,
                "end_time": 19.456818181818182,
                "pitch": 40,
                "velocity": 51,
                "duration": 0.11818181818182083,
                "tempo": 120.0
            },
            {
                "start_time": 19.49090909090909,
                "end_time": 19.604545454545452,
                "pitch": 40,
                "velocity": 51,
                "duration": 0.11363636363636331,
                "tempo": 120.0
            },
            {
                "start_time": 19.636363636363637,
                "end_time": 19.75,
                "pitch": 40,
                "velocity": 51,
                "duration": 0.11363636363636331,
                "tempo": 120.0
            },
            {
                "start_time": 19.78181818181818,
                "end_time": 19.895454545454545,
                "pitch": 44,
                "velocity": 51,
                "duration": 0.11363636363636331,
                "tempo": 120.0
            },
            {
                "start_time": 19.927272727272726,
                "end_time": 20.04090909090909,
                "pitch": 40,
                "velocity": 51,
                "duration": 0.11363636363636331,
                "tempo": 120.0
            },
            {
                "start_time": 20.07272727272727,
                "end_time": 20.19090909090909,
                "pitch": 44,
                "velocity": 51,
                "duration": 0.11818181818182083,
                "tempo": 120.0
            },
            {
                "start_time": 20.224999999999998,
                "end_time": 20.34318181818182,
                "pitch": 40,
                "velocity": 51,
                "duration": 0.11818181818182083,
                "tempo": 120.0
            },
            {
                "start_time": 20.377272727272725,
                "end_time": 20.495454545454546,
                "pitch": 40,
                "velocity": 51,
                "duration": 0.11818181818182083,
                "tempo": 120.0
            },
            {
                "start_time": 20.527272727272727,
                "end_time": 20.645454545454545,
                "pitch": 40,
                "velocity": 51,
                "duration": 0.11818181818181728,
                "tempo": 120.0
            },
            {
                "start_time": 20.679545454545455,
                "end_time": 20.797727272727272,
                "pitch": 40,
                "velocity": 51,
                "duration": 0.11818181818181728,
                "tempo": 120.0
            },
            {
                "start_time": 20.831818181818182,
                "end_time": 20.95,
                "pitch": 40,
                "velocity": 51,
                "duration": 0.11818181818181728,
                "tempo": 120.0
            },
            {
                "start_time": 20.98181818181818,
                "end_time": 21.099999999999998,
                "pitch": 44,
                "velocity": 51,
                "duration": 0.11818181818181728,
                "tempo": 120.0
            },
            {
                "start_time": 21.134090909090908,
                "end_time": 21.252272727272725,
                "pitch": 40,
                "velocity": 51,
                "duration": 0.11818181818181728,
                "tempo": 120.0
            },
            {
                "start_time": 21.286363636363635,
                "end_time": 21.402272727272727,
                "pitch": 44,
                "velocity": 51,
                "duration": 0.11590909090909207,
                "tempo": 120.0
            },
            {
                "start_time": 21.436363636363634,
                "end_time": 21.552272727272726,
                "pitch": 40,
                "velocity": 51,
                "duration": 0.11590909090909207,
                "tempo": 120.0
            },
            {
                "start_time": 21.586363636363636,
                "end_time": 21.702272727272724,
                "pitch": 41,
                "velocity": 51,
                "duration": 0.11590909090908852,
                "tempo": 120.0
            },
            {
                "start_time": 21.736363636363635,
                "end_time": 21.852272727272727,
                "pitch": 41,
                "velocity": 51,
                "duration": 0.11590909090909207,
                "tempo": 120.0
            },
            {
                "start_time": 21.886363636363637,
                "end_time": 22.004545454545454,
                "pitch": 41,
                "velocity": 51,
                "duration": 0.11818181818181728,
                "tempo": 120.0
            },
            {
                "start_time": 22.036363636363635,
                "end_time": 22.154545454545453,
                "pitch": 41,
                "velocity": 51,
                "duration": 0.11818181818181728,
                "tempo": 120.0
            },
            {
                "start_time": 22.188636363636363,
                "end_time": 22.30681818181818,
                "pitch": 45,
                "velocity": 51,
                "duration": 0.11818181818181728,
                "tempo": 120.0
            },
            {
                "start_time": 22.34090909090909,
                "end_time": 22.459090909090907,
                "pitch": 41,
                "velocity": 51,
                "duration": 0.11818181818181728,
                "tempo": 120.0
            },
            {
                "start_time": 22.49090909090909,
                "end_time": 22.60909090909091,
                "pitch": 45,
                "velocity": 51,
                "duration": 0.11818181818182083,
                "tempo": 120.0
            },
            {
                "start_time": 22.64090909090909,
                "end_time": 22.759090909090908,
                "pitch": 41,
                "velocity": 51,
                "duration": 0.11818181818181728,
                "tempo": 120.0
            },
            {
                "start_time": 22.79090909090909,
                "end_time": 22.909090909090907,
                "pitch": 41,
                "velocity": 51,
                "duration": 0.11818181818181728,
                "tempo": 120.0
            },
            {
                "start_time": 22.94090909090909,
                "end_time": 23.05909090909091,
                "pitch": 41,
                "velocity": 51,
                "duration": 0.11818181818181728,
                "tempo": 120.0
            },
            {
                "start_time": 23.09090909090909,
                "end_time": 23.209090909090907,
                "pitch": 41,
                "velocity": 51,
                "duration": 0.11818181818181728,
                "tempo": 120.0
            },
            {
                "start_time": 23.243181818181817,
                "end_time": 23.361363636363635,
                "pitch": 41,
                "velocity": 51,
                "duration": 0.11818181818181728,
                "tempo": 120.0
            },
            {
                "start_time": 23.395454545454545,
                "end_time": 23.513636363636362,
                "pitch": 41,
                "velocity": 51,
                "duration": 0.11818181818181728,
                "tempo": 120.0
            },
            {
                "start_time": 23.545454545454543,
                "end_time": 23.663636363636364,
                "pitch": 47,
                "velocity": 51,
                "duration": 0.11818181818182083,
                "tempo": 120.0
            },
            {
                "start_time": 23.69772727272727,
                "end_time": 23.81590909090909,
                "pitch": 45,
                "velocity": 51,
                "duration": 0.11818181818182083,
                "tempo": 120.0
            },
            {
                "start_time": 23.849999999999998,
                "end_time": 23.96818181818182,
                "pitch": 41,
                "velocity": 51,
                "duration": 0.11818181818182083,
                "tempo": 120.0
            },
            {
                "start_time": 24.0,
                "end_time": 24.118181818181817,
                "pitch": 40,
                "velocity": 51,
                "duration": 0.11818181818181728,
                "tempo": 120.0
            },
            {
                "start_time": 24.152272727272727,
                "end_time": 24.270454545454545,
                "pitch": 40,
                "velocity": 51,
                "duration": 0.11818181818181728,
                "tempo": 120.0
            },
            {
                "start_time": 24.304545454545455,
                "end_time": 24.420454545454543,
                "pitch": 40,
                "velocity": 51,
                "duration": 0.11590909090908852,
                "tempo": 120.0
            },
            {
                "start_time": 24.454545454545453,
                "end_time": 24.570454545454545,
                "pitch": 40,
                "velocity": 51,
                "duration": 0.11590909090909207,
                "tempo": 120.0
            },
            {
                "start_time": 24.604545454545452,
                "end_time": 24.720454545454544,
                "pitch": 44,
                "velocity": 51,
                "duration": 0.11590909090909207,
                "tempo": 120.0
            },
            {
                "start_time": 24.754545454545454,
                "end_time": 24.870454545454542,
                "pitch": 40,
                "velocity": 51,
                "duration": 0.11590909090908852,
                "tempo": 120.0
            },
            {
                "start_time": 24.904545454545453,
                "end_time": 25.02272727272727,
                "pitch": 44,
                "velocity": 51,
                "duration": 0.11818181818181728,
                "tempo": 120.0
            },
            {
                "start_time": 25.054545454545455,
                "end_time": 25.172727272727272,
                "pitch": 40,
                "velocity": 51,
                "duration": 0.11818181818181728,
                "tempo": 120.0
            },
            {
                "start_time": 25.206818181818182,
                "end_time": 25.325,
                "pitch": 40,
                "velocity": 51,
                "duration": 0.11818181818181728,
                "tempo": 120.0
            },
            {
                "start_time": 25.35909090909091,
                "end_time": 25.477272727272727,
                "pitch": 40,
                "velocity": 51,
                "duration": 0.11818181818181728,
                "tempo": 120.0
            },
            {
                "start_time": 25.509090909090908,
                "end_time": 25.627272727272725,
                "pitch": 40,
                "velocity": 51,
                "duration": 0.11818181818181728,
                "tempo": 120.0
            },
            {
                "start_time": 25.659090909090907,
                "end_time": 25.777272727272727,
                "pitch": 40,
                "velocity": 51,
                "duration": 0.11818181818182083,
                "tempo": 120.0
            },
            {
                "start_time": 25.80909090909091,
                "end_time": 25.927272727272726,
                "pitch": 44,
                "velocity": 51,
                "duration": 0.11818181818181728,
                "tempo": 120.0
            },
            {
                "start_time": 25.959090909090907,
                "end_time": 26.077272727272724,
                "pitch": 40,
                "velocity": 51,
                "duration": 0.11818181818181728,
                "tempo": 120.0
            },
            {
                "start_time": 26.10909090909091,
                "end_time": 26.227272727272727,
                "pitch": 44,
                "velocity": 51,
                "duration": 0.11818181818181728,
                "tempo": 120.0
            },
            {
                "start_time": 26.261363636363637,
                "end_time": 26.379545454545454,
                "pitch": 40,
                "velocity": 51,
                "duration": 0.11818181818181728,
                "tempo": 120.0
            },
            {
                "start_time": 26.413636363636364,
                "end_time": 26.53181818181818,
                "pitch": 41,
                "velocity": 51,
                "duration": 0.11818181818181728,
                "tempo": 120.0
            },
            {
                "start_time": 27.02272727272727,
                "end_time": 27.14090909090909,
                "pitch": 41,
                "velocity": 51,
                "duration": 0.11818181818182083,
                "tempo": 120.0
            },
            {
                "start_time": 27.174999999999997,
                "end_time": 27.193181818181817,
                "pitch": 41,
                "velocity": 51,
                "duration": 0.01818181818181941,
                "tempo": 120.0
            },
            {
                "start_time": 27.763636363636362,
                "end_time": 27.877272727272725,
                "pitch": 43,
                "velocity": 51,
                "duration": 0.11363636363636331,
                "tempo": 120.0
            },
            {
                "start_time": 27.911363636363635,
                "end_time": 28.18181818181818,
                "pitch": 43,
                "velocity": 51,
                "duration": 0.2704545454545446,
                "tempo": 120.0
            },
            {
                "start_time": 28.21590909090909,
                "end_time": 28.488636363636363,
                "pitch": 43,
                "velocity": 51,
                "duration": 0.2727272727272734,
                "tempo": 120.0
            },
            {
                "start_time": 28.52272727272727,
                "end_time": 28.795454545454543,
                "pitch": 43,
                "velocity": 51,
                "duration": 0.2727272727272734,
                "tempo": 120.0
            },
            {
                "start_time": 28.829545454545453,
                "end_time": 28.94772727272727,
                "pitch": 36,
                "velocity": 51,
                "duration": 0.11818181818181728,
                "tempo": 120.0
            }
        ],
        "Acoustic Guitar (nylon)": [
            {
                "start_time": 0.08863636363636364,
                "end_time": 0.1659090909090909,
                "pitch": 55,
                "velocity": 51,
                "duration": 0.07727272727272726,
                "tempo": 120.0
            },
            {
                "start_time": 0.19318181818181818,
                "end_time": 0.31136363636363634,
                "pitch": 55,
                "velocity": 51,
                "duration": 0.11818181818181817,
                "tempo": 120.0
            },
            {
                "start_time": 0.34545454545454546,
                "end_time": 0.4636363636363636,
                "pitch": 55,
                "velocity": 51,
                "duration": 0.11818181818181817,
                "tempo": 120.0
            },
            {
                "start_time": 0.4954545454545454,
                "end_time": 0.6136363636363636,
                "pitch": 55,
                "velocity": 51,
                "duration": 0.11818181818181822,
                "tempo": 120.0
            },
            {
                "start_time": 0.6477272727272727,
                "end_time": 0.7659090909090909,
                "pitch": 55,
                "velocity": 51,
                "duration": 0.11818181818181817,
                "tempo": 120.0
            },
            {
                "start_time": 0.7999999999999999,
                "end_time": 0.9159090909090909,
                "pitch": 55,
                "velocity": 51,
                "duration": 0.11590909090909096,
                "tempo": 120.0
            },
            {
                "start_time": 0.95,
                "end_time": 1.065909090909091,
                "pitch": 55,
                "velocity": 51,
                "duration": 0.11590909090909096,
                "tempo": 120.0
            },
            {
                "start_time": 1.0999999999999999,
                "end_time": 1.2159090909090908,
                "pitch": 55,
                "velocity": 51,
                "duration": 0.11590909090909096,
                "tempo": 120.0
            },
            {
                "start_time": 1.25,
                "end_time": 1.3659090909090907,
                "pitch": 55,
                "velocity": 51,
                "duration": 0.11590909090909074,
                "tempo": 120.0
            },
            {
                "start_time": 1.4,
                "end_time": 1.5159090909090909,
                "pitch": 55,
                "velocity": 51,
                "duration": 0.11590909090909096,
                "tempo": 120.0
            },
            {
                "start_time": 1.5499999999999998,
                "end_time": 1.6659090909090908,
                "pitch": 55,
                "velocity": 51,
                "duration": 0.11590909090909096,
                "tempo": 120.0
            },
            {
                "start_time": 1.7,
                "end_time": 1.815909090909091,
                "pitch": 55,
                "velocity": 51,
                "duration": 0.11590909090909096,
                "tempo": 120.0
            },
            {
                "start_time": 1.8499999999999999,
                "end_time": 1.9659090909090908,
                "pitch": 55,
                "velocity": 51,
                "duration": 0.11590909090909096,
                "tempo": 120.0
            },
            {
                "start_time": 2.0,
                "end_time": 2.1159090909090907,
                "pitch": 55,
                "velocity": 51,
                "duration": 0.11590909090909074,
                "tempo": 120.0
            },
            {
                "start_time": 2.15,
                "end_time": 2.2659090909090907,
                "pitch": 55,
                "velocity": 51,
                "duration": 0.11590909090909074,
                "tempo": 120.0
            },
            {
                "start_time": 2.3,
                "end_time": 2.415909090909091,
                "pitch": 57,
                "velocity": 51,
                "duration": 0.11590909090909118,
                "tempo": 120.0
            },
            {
                "start_time": 2.4499999999999997,
                "end_time": 2.565909090909091,
                "pitch": 57,
                "velocity": 51,
                "duration": 0.11590909090909118,
                "tempo": 120.0
            },
            {
                "start_time": 2.6,
                "end_time": 2.7181818181818183,
                "pitch": 57,
                "velocity": 51,
                "duration": 0.11818181818181817,
                "tempo": 120.0
            },
            {
                "start_time": 2.75,
                "end_time": 2.868181818181818,
                "pitch": 57,
                "velocity": 51,
                "duration": 0.11818181818181817,
                "tempo": 120.0
            },
            {
                "start_time": 2.9022727272727273,
                "end_time": 3.0204545454545455,
                "pitch": 57,
                "velocity": 51,
                "duration": 0.11818181818181817,
                "tempo": 120.0
            },
            {
                "start_time": 3.0545454545454542,
                "end_time": 3.1727272727272724,
                "pitch": 57,
                "velocity": 51,
                "duration": 0.11818181818181817,
                "tempo": 120.0
            },
            {
                "start_time": 3.2045454545454546,
                "end_time": 3.3227272727272728,
                "pitch": 57,
                "velocity": 51,
                "duration": 0.11818181818181817,
                "tempo": 120.0
            },
            {
                "start_time": 3.3568181818181815,
                "end_time": 3.4749999999999996,
                "pitch": 57,
                "velocity": 51,
                "duration": 0.11818181818181817,
                "tempo": 120.0
            },
            {
                "start_time": 3.509090909090909,
                "end_time": 3.627272727272727,
                "pitch": 57,
                "velocity": 51,
                "duration": 0.11818181818181817,
                "tempo": 120.0
            },
            {
                "start_time": 3.6590909090909087,
                "end_time": 3.777272727272727,
                "pitch": 57,
                "velocity": 51,
                "duration": 0.11818181818181817,
                "tempo": 120.0
            },
            {
                "start_time": 3.811363636363636,
                "end_time": 3.9295454545454542,
                "pitch": 57,
                "velocity": 51,
                "duration": 0.11818181818181817,
                "tempo": 120.0
            },
            {
                "start_time": 3.9636363636363634,
                "end_time": 4.081818181818182,
                "pitch": 57,
                "velocity": 51,
                "duration": 0.11818181818181861,
                "tempo": 120.0
            },
            {
                "start_time": 4.113636363636363,
                "end_time": 4.2318181818181815,
                "pitch": 57,
                "velocity": 51,
                "duration": 0.11818181818181817,
                "tempo": 120.0
            },
            {
                "start_time": 4.265909090909091,
                "end_time": 4.384090909090909,
                "pitch": 57,
                "velocity": 51,
                "duration": 0.11818181818181817,
                "tempo": 120.0
            },
            {
                "start_time": 4.418181818181818,
                "end_time": 4.534090909090909,
                "pitch": 57,
                "velocity": 51,
                "duration": 0.11590909090909118,
                "tempo": 120.0
            },
            {
                "start_time": 4.568181818181818,
                "end_time": 4.684090909090909,
                "pitch": 57,
                "velocity": 51,
                "duration": 0.1159090909090903,
                "tempo": 120.0
            },
            {
                "start_time": 4.718181818181818,
                "end_time": 4.834090909090909,
                "pitch": 55,
                "velocity": 51,
                "duration": 0.11590909090909118,
                "tempo": 120.0
            },
            {
                "start_time": 4.868181818181818,
                "end_time": 4.9840909090909085,
                "pitch": 55,
                "velocity": 51,
                "duration": 0.1159090909090903,
                "tempo": 120.0
            },
            {
                "start_time": 5.018181818181818,
                "end_time": 5.136363636363636,
                "pitch": 55,
                "velocity": 51,
                "duration": 0.11818181818181817,
                "tempo": 120.0
            },
            {
                "start_time": 5.168181818181818,
                "end_time": 5.286363636363636,
                "pitch": 55,
                "velocity": 51,
                "duration": 0.11818181818181817,
                "tempo": 120.0
            },
            {
                "start_time": 5.320454545454545,
                "end_time": 5.4386363636363635,
                "pitch": 55,
                "velocity": 51,
                "duration": 0.11818181818181817,
                "tempo": 120.0
            },
            {
                "start_time": 5.472727272727273,
                "end_time": 5.590909090909091,
                "pitch": 55,
                "velocity": 51,
                "duration": 0.11818181818181817,
                "tempo": 120.0
            },
            {
                "start_time": 5.622727272727272,
                "end_time": 5.74090909090909,
                "pitch": 55,
                "velocity": 51,
                "duration": 0.11818181818181817,
                "tempo": 120.0
            },
            {
                "start_time": 5.7727272727272725,
                "end_time": 5.890909090909091,
                "pitch": 55,
                "velocity": 51,
                "duration": 0.11818181818181817,
                "tempo": 120.0
            },
            {
                "start_time": 5.922727272727273,
                "end_time": 6.040909090909091,
                "pitch": 55,
                "velocity": 51,
                "duration": 0.11818181818181817,
                "tempo": 120.0
            },
            {
                "start_time": 6.072727272727272,
                "end_time": 6.1909090909090905,
                "pitch": 55,
                "velocity": 51,
                "duration": 0.11818181818181817,
                "tempo": 120.0
            },
            {
                "start_time": 6.222727272727273,
                "end_time": 6.340909090909091,
                "pitch": 55,
                "velocity": 51,
                "duration": 0.11818181818181817,
                "tempo": 120.0
            },
            {
                "start_time": 6.372727272727272,
                "end_time": 6.49090909090909,
                "pitch": 55,
                "velocity": 51,
                "duration": 0.11818181818181817,
                "tempo": 120.0
            },
            {
                "start_time": 6.5227272727272725,
                "end_time": 6.640909090909091,
                "pitch": 55,
                "velocity": 51,
                "duration": 0.11818181818181817,
                "tempo": 120.0
            },
            {
                "start_time": 6.672727272727273,
                "end_time": 6.790909090909091,
                "pitch": 55,
                "velocity": 51,
                "duration": 0.11818181818181817,
                "tempo": 120.0
            },
            {
                "start_time": 6.822727272727272,
                "end_time": 6.9409090909090905,
                "pitch": 55,
                "velocity": 51,
                "duration": 0.11818181818181817,
                "tempo": 120.0
            },
            {
                "start_time": 6.975,
                "end_time": 7.093181818181818,
                "pitch": 55,
                "velocity": 51,
                "duration": 0.11818181818181817,
                "tempo": 120.0
            },
            {
                "start_time": 7.127272727272727,
                "end_time": 7.245454545454545,
                "pitch": 57,
                "velocity": 51,
                "duration": 0.11818181818181817,
                "tempo": 120.0
            },
            {
                "start_time": 7.277272727272727,
                "end_time": 7.3954545454545455,
                "pitch": 57,
                "velocity": 51,
                "duration": 0.11818181818181817,
                "tempo": 120.0
            },
            {
                "start_time": 7.429545454545454,
                "end_time": 7.545454545454545,
                "pitch": 57,
                "velocity": 51,
                "duration": 0.11590909090909118,
                "tempo": 120.0
            },
            {
                "start_time": 7.579545454545454,
                "end_time": 7.695454545454545,
                "pitch": 57,
                "velocity": 51,
                "duration": 0.11590909090909118,
                "tempo": 120.0
            },
            {
                "start_time": 7.7295454545454545,
                "end_time": 7.845454545454545,
                "pitch": 57,
                "velocity": 51,
                "duration": 0.1159090909090903,
                "tempo": 120.0
            },
            {
                "start_time": 7.879545454545454,
                "end_time": 7.995454545454545,
                "pitch": 57,
                "velocity": 51,
                "duration": 0.11590909090909118,
                "tempo": 120.0
            },
            {
                "start_time": 8.029545454545454,
                "end_time": 8.147727272727272,
                "pitch": 57,
                "velocity": 51,
                "duration": 0.11818181818181728,
                "tempo": 120.0
            },
            {
                "start_time": 8.181818181818182,
                "end_time": 8.299999999999999,
                "pitch": 57,
                "velocity": 51,
                "duration": 0.11818181818181728,
                "tempo": 120.0
            },
            {
                "start_time": 8.331818181818182,
                "end_time": 8.45,
                "pitch": 57,
                "velocity": 51,
                "duration": 0.11818181818181728,
                "tempo": 120.0
            },
            {
                "start_time": 8.48409090909091,
                "end_time": 8.602272727272727,
                "pitch": 57,
                "velocity": 51,
                "duration": 0.11818181818181728,
                "tempo": 120.0
            },
            {
                "start_time": 8.636363636363637,
                "end_time": 8.752272727272727,
                "pitch": 57,
                "velocity": 51,
                "duration": 0.1159090909090903,
                "tempo": 120.0
            },
            {
                "start_time": 8.786363636363635,
                "end_time": 8.902272727272727,
                "pitch": 57,
                "velocity": 51,
                "duration": 0.11590909090909207,
                "tempo": 120.0
            },
            {
                "start_time": 8.936363636363636,
                "end_time": 9.052272727272728,
                "pitch": 57,
                "velocity": 51,
                "duration": 0.11590909090909207,
                "tempo": 120.0
            },
            {
                "start_time": 9.086363636363636,
                "end_time": 9.202272727272726,
                "pitch": 57,
                "velocity": 51,
                "duration": 0.1159090909090903,
                "tempo": 120.0
            },
            {
                "start_time": 9.236363636363636,
                "end_time": 9.352272727272727,
                "pitch": 57,
                "velocity": 51,
                "duration": 0.1159090909090903,
                "tempo": 120.0
            },
            {
                "start_time": 9.386363636363637,
                "end_time": 9.502272727272727,
                "pitch": 57,
                "velocity": 51,
                "duration": 0.1159090909090903,
                "tempo": 120.0
            },
            {
                "start_time": 9.536363636363635,
                "end_time": 9.652272727272727,
                "pitch": 55,
                "velocity": 51,
                "duration": 0.11590909090909207,
                "tempo": 120.0
            },
            {
                "start_time": 9.686363636363636,
                "end_time": 9.802272727272726,
                "pitch": 55,
                "velocity": 51,
                "duration": 0.1159090909090903,
                "tempo": 120.0
            },
            {
                "start_time": 9.836363636363636,
                "end_time": 9.952272727272726,
                "pitch": 55,
                "velocity": 51,
                "duration": 0.1159090909090903,
                "tempo": 120.0
            },
            {
                "start_time": 9.986363636363636,
                "end_time": 10.102272727272727,
                "pitch": 55,
                "velocity": 51,
                "duration": 0.1159090909090903,
                "tempo": 120.0
            },
            {
                "start_time": 10.136363636363637,
                "end_time": 10.252272727272727,
                "pitch": 55,
                "velocity": 51,
                "duration": 0.1159090909090903,
                "tempo": 120.0
            },
            {
                "start_time": 10.286363636363635,
                "end_time": 10.402272727272727,
                "pitch": 55,
                "velocity": 51,
                "duration": 0.11590909090909207,
                "tempo": 120.0
            },
            {
                "start_time": 10.436363636363636,
                "end_time": 10.554545454545455,
                "pitch": 55,
                "velocity": 51,
                "duration": 0.11818181818181905,
                "tempo": 120.0
            },
            {
                "start_time": 10.586363636363636,
                "end_time": 10.704545454545453,
                "pitch": 55,
                "velocity": 51,
                "duration": 0.11818181818181728,
                "tempo": 120.0
            },
            {
                "start_time": 10.738636363636363,
                "end_time": 10.85681818181818,
                "pitch": 55,
                "velocity": 51,
                "duration": 0.11818181818181728,
                "tempo": 120.0
            },
            {
                "start_time": 10.89090909090909,
                "end_time": 11.009090909090908,
                "pitch": 55,
                "velocity": 51,
                "duration": 0.11818181818181728,
                "tempo": 120.0
            },
            {
                "start_time": 11.040909090909091,
                "end_time": 11.159090909090908,
                "pitch": 55,
                "velocity": 51,
                "duration": 0.11818181818181728,
                "tempo": 120.0
            },
            {
                "start_time": 11.19090909090909,
                "end_time": 11.309090909090909,
                "pitch": 55,
                "velocity": 51,
                "duration": 0.11818181818181905,
                "tempo": 120.0
            },
            {
                "start_time": 11.34090909090909,
                "end_time": 11.459090909090909,
                "pitch": 55,
                "velocity": 51,
                "duration": 0.11818181818181905,
                "tempo": 120.0
            },
            {
                "start_time": 11.49090909090909,
                "end_time": 11.60909090909091,
                "pitch": 55,
                "velocity": 51,
                "duration": 0.11818181818181905,
                "tempo": 120.0
            },
            {
                "start_time": 11.64090909090909,
                "end_time": 11.759090909090908,
                "pitch": 55,
                "velocity": 51,
                "duration": 0.11818181818181728,
                "tempo": 120.0
            },
            {
                "start_time": 11.790909090909091,
                "end_time": 11.909090909090908,
                "pitch": 55,
                "velocity": 51,
                "duration": 0.11818181818181728,
                "tempo": 120.0
            },
            {
                "start_time": 11.94090909090909,
                "end_time": 12.059090909090909,
                "pitch": 57,
                "velocity": 51,
                "duration": 0.11818181818181905,
                "tempo": 120.0
            },
            {
                "start_time": 12.09090909090909,
                "end_time": 12.209090909090909,
                "pitch": 57,
                "velocity": 51,
                "duration": 0.11818181818181905,
                "tempo": 120.0
            },
            {
                "start_time": 12.24090909090909,
                "end_time": 12.35909090909091,
                "pitch": 57,
                "velocity": 51,
                "duration": 0.11818181818181905,
                "tempo": 120.0
            },
            {
                "start_time": 12.39090909090909,
                "end_time": 12.509090909090908,
                "pitch": 57,
                "velocity": 51,
                "duration": 0.11818181818181728,
                "tempo": 120.0
            },
            {
                "start_time": 12.540909090909091,
                "end_time": 12.659090909090908,
                "pitch": 57,
                "velocity": 51,
                "duration": 0.11818181818181728,
                "tempo": 120.0
            },
            {
                "start_time": 12.69090909090909,
                "end_time": 12.809090909090909,
                "pitch": 57,
                "velocity": 51,
                "duration": 0.11818181818181905,
                "tempo": 120.0
            },
            {
                "start_time": 12.84090909090909,
                "end_time": 12.959090909090909,
                "pitch": 57,
                "velocity": 51,
                "duration": 0.11818181818181905,
                "tempo": 120.0
            },
            {
                "start_time": 12.99090909090909,
                "end_time": 13.109090909090908,
                "pitch": 57,
                "velocity": 51,
                "duration": 0.11818181818181728,
                "tempo": 120.0
            },
            {
                "start_time": 13.14090909090909,
                "end_time": 13.259090909090908,
                "pitch": 57,
                "velocity": 51,
                "duration": 0.11818181818181728,
                "tempo": 120.0
            },
            {
                "start_time": 13.290909090909091,
                "end_time": 13.409090909090908,
                "pitch": 57,
                "velocity": 51,
                "duration": 0.11818181818181728,
                "tempo": 120.0
            },
            {
                "start_time": 13.44090909090909,
                "end_time": 13.559090909090909,
                "pitch": 57,
                "velocity": 51,
                "duration": 0.11818181818181905,
                "tempo": 120.0
            },
            {
                "start_time": 13.593181818181817,
                "end_time": 13.711363636363636,
                "pitch": 57,
                "velocity": 51,
                "duration": 0.11818181818181905,
                "tempo": 120.0
            },
            {
                "start_time": 13.745454545454544,
                "end_time": 13.863636363636363,
                "pitch": 57,
                "velocity": 51,
                "duration": 0.11818181818181905,
                "tempo": 120.0
            },
            {
                "start_time": 13.895454545454545,
                "end_time": 14.013636363636364,
                "pitch": 57,
                "velocity": 51,
                "duration": 0.11818181818181905,
                "tempo": 120.0
            },
            {
                "start_time": 14.047727272727272,
                "end_time": 14.163636363636362,
                "pitch": 57,
                "velocity": 51,
                "duration": 0.1159090909090903,
                "tempo": 120.0
            },
            {
                "start_time": 14.197727272727272,
                "end_time": 14.313636363636363,
                "pitch": 57,
                "velocity": 51,
                "duration": 0.1159090909090903,
                "tempo": 120.0
            },
            {
                "start_time": 14.347727272727273,
                "end_time": 14.463636363636363,
                "pitch": 55,
                "velocity": 51,
                "duration": 0.1159090909090903,
                "tempo": 120.0
            },
            {
                "start_time": 14.497727272727271,
                "end_time": 14.613636363636363,
                "pitch": 55,
                "velocity": 51,
                "duration": 0.11590909090909207,
                "tempo": 120.0
            },
            {
                "start_time": 14.647727272727272,
                "end_time": 14.763636363636364,
                "pitch": 55,
                "velocity": 51,
                "duration": 0.11590909090909207,
                "tempo": 120.0
            },
            {
                "start_time": 14.797727272727272,
                "end_time": 14.913636363636362,
                "pitch": 55,
                "velocity": 51,
                "duration": 0.1159090909090903,
                "tempo": 120.0
            },
            {
                "start_time": 14.947727272727272,
                "end_time": 15.063636363636363,
                "pitch": 55,
                "velocity": 51,
                "duration": 0.1159090909090903,
                "tempo": 120.0
            },
            {
                "start_time": 15.097727272727273,
                "end_time": 15.213636363636363,
                "pitch": 55,
                "velocity": 51,
                "duration": 0.1159090909090903,
                "tempo": 120.0
            },
            {
                "start_time": 15.247727272727271,
                "end_time": 15.363636363636363,
                "pitch": 55,
                "velocity": 51,
                "duration": 0.11590909090909207,
                "tempo": 120.0
            },
            {
                "start_time": 15.397727272727272,
                "end_time": 15.513636363636364,
                "pitch": 55,
                "velocity": 51,
                "duration": 0.11590909090909207,
                "tempo": 120.0
            },
            {
                "start_time": 15.547727272727272,
                "end_time": 15.663636363636362,
                "pitch": 55,
                "velocity": 51,
                "duration": 0.1159090909090903,
                "tempo": 120.0
            },
            {
                "start_time": 15.697727272727272,
                "end_time": 15.813636363636363,
                "pitch": 55,
                "velocity": 51,
                "duration": 0.1159090909090903,
                "tempo": 120.0
            },
            {
                "start_time": 15.847727272727273,
                "end_time": 15.963636363636363,
                "pitch": 55,
                "velocity": 51,
                "duration": 0.1159090909090903,
                "tempo": 120.0
            },
            {
                "start_time": 15.997727272727271,
                "end_time": 16.113636363636363,
                "pitch": 55,
                "velocity": 51,
                "duration": 0.11590909090909207,
                "tempo": 120.0
            },
            {
                "start_time": 16.147727272727273,
                "end_time": 16.263636363636362,
                "pitch": 55,
                "velocity": 51,
                "duration": 0.11590909090908852,
                "tempo": 120.0
            },
            {
                "start_time": 16.297727272727272,
                "end_time": 16.413636363636364,
                "pitch": 55,
                "velocity": 51,
                "duration": 0.11590909090909207,
                "tempo": 120.0
            },
            {
                "start_time": 16.44772727272727,
                "end_time": 16.563636363636363,
                "pitch": 55,
                "velocity": 51,
                "duration": 0.11590909090909207,
                "tempo": 120.0
            },
            {
                "start_time": 16.597727272727273,
                "end_time": 16.71363636363636,
                "pitch": 55,
                "velocity": 51,
                "duration": 0.11590909090908852,
                "tempo": 120.0
            },
            {
                "start_time": 16.74772727272727,
                "end_time": 16.863636363636363,
                "pitch": 57,
                "velocity": 51,
                "duration": 0.11590909090909207,
                "tempo": 120.0
            },
            {
                "start_time": 16.897727272727273,
                "end_time": 17.013636363636362,
                "pitch": 57,
                "velocity": 51,
                "duration": 0.11590909090908852,
                "tempo": 120.0
            },
            {
                "start_time": 17.047727272727272,
                "end_time": 17.16590909090909,
                "pitch": 57,
                "velocity": 51,
                "duration": 0.11818181818181728,
                "tempo": 120.0
            },
            {
                "start_time": 17.2,
                "end_time": 17.318181818181817,
                "pitch": 57,
                "velocity": 51,
                "duration": 0.11818181818181728,
                "tempo": 120.0
            },
            {
                "start_time": 17.349999999999998,
                "end_time": 17.46818181818182,
                "pitch": 57,
                "velocity": 51,
                "duration": 0.11818181818182083,
                "tempo": 120.0
            },
            {
                "start_time": 17.502272727272725,
                "end_time": 17.620454545454546,
                "pitch": 57,
                "velocity": 51,
                "duration": 0.11818181818182083,
                "tempo": 120.0
            },
            {
                "start_time": 17.654545454545453,
                "end_time": 17.772727272727273,
                "pitch": 57,
                "velocity": 51,
                "duration": 0.11818181818182083,
                "tempo": 120.0
            },
            {
                "start_time": 17.804545454545455,
                "end_time": 17.922727272727272,
                "pitch": 57,
                "velocity": 51,
                "duration": 0.11818181818181728,
                "tempo": 120.0
            },
            {
                "start_time": 17.94090909090909,
                "end_time": 17.956818181818182,
                "pitch": 70,
                "velocity": 51,
                "duration": 0.01590909090909065,
                "tempo": 120.0
            },
            {
                "start_time": 17.956818181818182,
                "end_time": 17.974999999999998,
                "pitch": 68,
                "velocity": 51,
                "duration": 0.018181818181815856,
                "tempo": 120.0
            },
            {
                "start_time": 17.974999999999998,
                "end_time": 17.99090909090909,
                "pitch": 66,
                "velocity": 51,
                "duration": 0.01590909090909065,
                "tempo": 120.0
            },
            {
                "start_time": 17.99090909090909,
                "end_time": 18.025,
                "pitch": 63,
                "velocity": 51,
                "duration": 0.03409090909091006,
                "tempo": 120.0
            },
            {
                "start_time": 18.025,
                "end_time": 18.04090909090909,
                "pitch": 70,
                "velocity": 51,
                "duration": 0.01590909090909065,
                "tempo": 120.0
            },
            {
                "start_time": 18.04090909090909,
                "end_time": 18.075,
                "pitch": 67,
                "velocity": 51,
                "duration": 0.03409090909091006,
                "tempo": 120.0
            },
            {
                "start_time": 18.075,
                "end_time": 18.09090909090909,
                "pitch": 63,
                "velocity": 51,
                "duration": 0.01590909090909065,
                "tempo": 120.0
            },
            {
                "start_time": 18.09090909090909,
                "end_time": 18.125,
                "pitch": 70,
                "velocity": 51,
                "duration": 0.03409090909091006,
                "tempo": 120.0
            },
            {
                "start_time": 18.125,
                "end_time": 18.143181818181816,
                "pitch": 68,
                "velocity": 51,
                "duration": 0.018181818181815856,
                "tempo": 120.0
            },
            {
                "start_time": 18.143181818181816,
                "end_time": 18.193181818181817,
                "pitch": 67,
                "velocity": 51,
                "duration": 0.05000000000000071,
                "tempo": 120.0
            },
            {
                "start_time": 18.193181818181817,
                "end_time": 18.243181818181817,
                "pitch": 64,
                "velocity": 51,
                "duration": 0.05000000000000071,
                "tempo": 120.0
            },
            {
                "start_time": 18.243181818181817,
                "end_time": 18.295454545454543,
                "pitch": 64,
                "velocity": 51,
                "duration": 0.052272727272725916,
                "tempo": 120.0
            },
            {
                "start_time": 18.295454545454543,
                "end_time": 18.38181818181818,
                "pitch": 62,
                "velocity": 51,
                "duration": 0.08636363636363598,
                "tempo": 120.0
            },
            {
                "start_time": 18.38181818181818,
                "end_time": 18.397727272727273,
                "pitch": 59,
                "velocity": 51,
                "duration": 0.015909090909094203,
                "tempo": 120.0
            },
            {
                "start_time": 18.397727272727273,
                "end_time": 18.45,
                "pitch": 64,
                "velocity": 51,
                "duration": 0.052272727272725916,
                "tempo": 120.0
            },
            {
                "start_time": 18.45,
                "end_time": 18.538636363636364,
                "pitch": 62,
                "velocity": 51,
                "duration": 0.08863636363636473,
                "tempo": 120.0
            },
            {
                "start_time": 18.538636363636364,
                "end_time": 18.554545454545455,
                "pitch": 59,
                "velocity": 51,
                "duration": 0.01590909090909065,
                "tempo": 120.0
            },
            {
                "start_time": 18.554545454545455,
                "end_time": 18.59090909090909,
                "pitch": 70,
                "velocity": 51,
                "duration": 0.036363636363635266,
                "tempo": 120.0
            },
            {
                "start_time": 18.59090909090909,
                "end_time": 18.625,
                "pitch": 67,
                "velocity": 51,
                "duration": 0.03409090909091006,
                "tempo": 120.0
            },
            {
                "start_time": 18.625,
                "end_time": 18.659090909090907,
                "pitch": 65,
                "velocity": 51,
                "duration": 0.03409090909090651,
                "tempo": 120.0
            },
            {
                "start_time": 18.659090909090907,
                "end_time": 18.693181818181817,
                "pitch": 70,
                "velocity": 51,
                "duration": 0.03409090909091006,
                "tempo": 120.0
            },
            {
                "start_time": 18.693181818181817,
                "end_time": 18.729545454545455,
                "pitch": 67,
                "velocity": 51,
                "duration": 0.03636363636363882,
                "tempo": 120.0
            },
            {
                "start_time": 18.729545454545455,
                "end_time": 18.763636363636362,
                "pitch": 65,
                "velocity": 51,
                "duration": 0.03409090909090651,
                "tempo": 120.0
            },
            {
                "start_time": 18.763636363636362,
                "end_time": 18.78181818181818,
                "pitch": 67,
                "velocity": 51,
                "duration": 0.01818181818181941,
                "tempo": 120.0
            },
            {
                "start_time": 18.78181818181818,
                "end_time": 18.797727272727272,
                "pitch": 65,
                "velocity": 51,
                "duration": 0.01590909090909065,
                "tempo": 120.0
            },
            {
                "start_time": 18.797727272727272,
                "end_time": 18.81590909090909,
                "pitch": 63,
                "velocity": 51,
                "duration": 0.01818181818181941,
                "tempo": 120.0
            },
            {
                "start_time": 18.81590909090909,
                "end_time": 18.849999999999998,
                "pitch": 61,
                "velocity": 51,
                "duration": 0.03409090909090651,
                "tempo": 120.0
            },
            {
                "start_time": 18.849999999999998,
                "end_time": 18.868181818181817,
                "pitch": 58,
                "velocity": 51,
                "duration": 0.01818181818181941,
                "tempo": 120.0
            },
            {
                "start_time": 18.868181818181817,
                "end_time": 18.884090909090908,
                "pitch": 67,
                "velocity": 51,
                "duration": 0.01590909090909065,
                "tempo": 120.0
            },
            {
                "start_time": 18.884090909090908,
                "end_time": 18.902272727272727,
                "pitch": 65,
                "velocity": 51,
                "duration": 0.01818181818181941,
                "tempo": 120.0
            },
            {
                "start_time": 18.902272727272727,
                "end_time": 18.918181818181818,
                "pitch": 63,
                "velocity": 51,
                "duration": 0.01590909090909065,
                "tempo": 120.0
            },
            {
                "start_time": 18.918181818181818,
                "end_time": 18.952272727272728,
                "pitch": 61,
                "velocity": 51,
                "duration": 0.03409090909091006,
                "tempo": 120.0
            },
            {
                "start_time": 18.952272727272728,
                "end_time": 18.96818181818182,
                "pitch": 58,
                "velocity": 51,
                "duration": 0.01590909090909065,
                "tempo": 120.0
            },
            {
                "start_time": 18.96818181818182,
                "end_time": 19.002272727272725,
                "pitch": 64,
                "velocity": 51,
                "duration": 0.03409090909090651,
                "tempo": 120.0
            },
            {
                "start_time": 19.002272727272725,
                "end_time": 19.054545454545455,
                "pitch": 62,
                "velocity": 51,
                "duration": 0.05227272727272947,
                "tempo": 120.0
            },
            {
                "start_time": 19.054545454545455,
                "end_time": 19.070454545454545,
                "pitch": 59,
                "velocity": 51,
                "duration": 0.01590909090909065,
                "tempo": 120.0
            },
            {
                "start_time": 19.070454545454545,
                "end_time": 19.104545454545455,
                "pitch": 64,
                "velocity": 51,
                "duration": 0.03409090909091006,
                "tempo": 120.0
            },
            {
                "start_time": 19.104545454545455,
                "end_time": 19.154545454545453,
                "pitch": 62,
                "velocity": 51,
                "duration": 0.04999999999999716,
                "tempo": 120.0
            },
            {
                "start_time": 19.154545454545453,
                "end_time": 19.170454545454543,
                "pitch": 59,
                "velocity": 51,
                "duration": 0.01590909090909065,
                "tempo": 120.0
            },
            {
                "start_time": 19.188636363636363,
                "end_time": 19.30681818181818,
                "pitch": 59,
                "velocity": 101,
                "duration": 0.11818181818181728,
                "tempo": 120.0
            },
            {
                "start_time": 19.33863636363636,
                "end_time": 19.456818181818182,
                "pitch": 59,
                "velocity": 51,
                "duration": 0.11818181818182083,
                "tempo": 120.0
            },
            {
                "start_time": 19.49090909090909,
                "end_time": 19.604545454545452,
                "pitch": 62,
                "velocity": 51,
                "duration": 0.11363636363636331,
                "tempo": 120.0
            },
            {
                "start_time": 19.636363636363637,
                "end_time": 19.75,
                "pitch": 59,
                "velocity": 51,
                "duration": 0.11363636363636331,
                "tempo": 120.0
            },
            {
                "start_time": 19.78181818181818,
                "end_time": 19.895454545454545,
                "pitch": 64,
                "velocity": 51,
                "duration": 0.11363636363636331,
                "tempo": 120.0
            },
            {
                "start_time": 19.927272727272726,
                "end_time": 20.04090909090909,
                "pitch": 59,
                "velocity": 51,
                "duration": 0.11363636363636331,
                "tempo": 120.0
            },
            {
                "start_time": 20.07272727272727,
                "end_time": 20.19090909090909,
                "pitch": 65,
                "velocity": 51,
                "duration": 0.11818181818182083,
                "tempo": 120.0
            },
            {
                "start_time": 20.224999999999998,
                "end_time": 20.34318181818182,
                "pitch": 59,
                "velocity": 51,
                "duration": 0.11818181818182083,
                "tempo": 120.0
            },
            {
                "start_time": 20.377272727272725,
                "end_time": 20.495454545454546,
                "pitch": 59,
                "velocity": 51,
                "duration": 0.11818181818182083,
                "tempo": 120.0
            },
            {
                "start_time": 20.527272727272727,
                "end_time": 20.645454545454545,
                "pitch": 59,
                "velocity": 51,
                "duration": 0.11818181818181728,
                "tempo": 120.0
            },
            {
                "start_time": 20.679545454545455,
                "end_time": 20.797727272727272,
                "pitch": 59,
                "velocity": 51,
                "duration": 0.11818181818181728,
                "tempo": 120.0
            },
            {
                "start_time": 20.831818181818182,
                "end_time": 20.95,
                "pitch": 59,
                "velocity": 51,
                "duration": 0.11818181818181728,
                "tempo": 120.0
            },
            {
                "start_time": 20.98181818181818,
                "end_time": 21.099999999999998,
                "pitch": 62,
                "velocity": 51,
                "duration": 0.11818181818181728,
                "tempo": 120.0
            },
            {
                "start_time": 21.134090909090908,
                "end_time": 21.252272727272725,
                "pitch": 59,
                "velocity": 51,
                "duration": 0.11818181818181728,
                "tempo": 120.0
            },
            {
                "start_time": 21.286363636363635,
                "end_time": 21.402272727272727,
                "pitch": 64,
                "velocity": 51,
                "duration": 0.11590909090909207,
                "tempo": 120.0
            },
            {
                "start_time": 21.436363636363634,
                "end_time": 21.552272727272726,
                "pitch": 59,
                "velocity": 51,
                "duration": 0.11590909090909207,
                "tempo": 120.0
            },
            {
                "start_time": 21.586363636363636,
                "end_time": 21.702272727272724,
                "pitch": 60,
                "velocity": 51,
                "duration": 0.11590909090908852,
                "tempo": 120.0
            },
            {
                "start_time": 21.736363636363635,
                "end_time": 21.852272727272727,
                "pitch": 60,
                "velocity": 51,
                "duration": 0.11590909090909207,
                "tempo": 120.0
            },
            {
                "start_time": 21.886363636363637,
                "end_time": 22.004545454545454,
                "pitch": 60,
                "velocity": 51,
                "duration": 0.11818181818181728,
                "tempo": 120.0
            },
            {
                "start_time": 22.036363636363635,
                "end_time": 22.154545454545453,
                "pitch": 60,
                "velocity": 51,
                "duration": 0.11818181818181728,
                "tempo": 120.0
            },
            {
                "start_time": 22.188636363636363,
                "end_time": 22.30681818181818,
                "pitch": 65,
                "velocity": 51,
                "duration": 0.11818181818181728,
                "tempo": 120.0
            },
            {
                "start_time": 22.34090909090909,
                "end_time": 22.459090909090907,
                "pitch": 60,
                "velocity": 51,
                "duration": 0.11818181818181728,
                "tempo": 120.0
            },
            {
                "start_time": 22.49090909090909,
                "end_time": 22.60909090909091,
                "pitch": 64,
                "velocity": 51,
                "duration": 0.11818181818182083,
                "tempo": 120.0
            },
            {
                "start_time": 22.64090909090909,
                "end_time": 22.759090909090908,
                "pitch": 60,
                "velocity": 51,
                "duration": 0.11818181818181728,
                "tempo": 120.0
            },
            {
                "start_time": 22.79090909090909,
                "end_time": 22.909090909090907,
                "pitch": 60,
                "velocity": 51,
                "duration": 0.11818181818181728,
                "tempo": 120.0
            },
            {
                "start_time": 22.94090909090909,
                "end_time": 23.05909090909091,
                "pitch": 60,
                "velocity": 51,
                "duration": 0.11818181818181728,
                "tempo": 120.0
            },
            {
                "start_time": 23.09090909090909,
                "end_time": 23.209090909090907,
                "pitch": 60,
                "velocity": 51,
                "duration": 0.11818181818181728,
                "tempo": 120.0
            },
            {
                "start_time": 23.243181818181817,
                "end_time": 23.361363636363635,
                "pitch": 60,
                "velocity": 51,
                "duration": 0.11818181818181728,
                "tempo": 120.0
            },
            {
                "start_time": 23.395454545454545,
                "end_time": 23.513636363636362,
                "pitch": 65,
                "velocity": 51,
                "duration": 0.11818181818181728,
                "tempo": 120.0
            },
            {
                "start_time": 23.545454545454543,
                "end_time": 23.663636363636364,
                "pitch": 60,
                "velocity": 51,
                "duration": 0.11818181818182083,
                "tempo": 120.0
            },
            {
                "start_time": 23.69772727272727,
                "end_time": 23.81590909090909,
                "pitch": 64,
                "velocity": 51,
                "duration": 0.11818181818182083,
                "tempo": 120.0
            },
            {
                "start_time": 23.849999999999998,
                "end_time": 23.96818181818182,
                "pitch": 60,
                "velocity": 51,
                "duration": 0.11818181818182083,
                "tempo": 120.0
            },
            {
                "start_time": 24.0,
                "end_time": 24.118181818181817,
                "pitch": 59,
                "velocity": 51,
                "duration": 0.11818181818181728,
                "tempo": 120.0
            },
            {
                "start_time": 24.152272727272727,
                "end_time": 24.270454545454545,
                "pitch": 59,
                "velocity": 51,
                "duration": 0.11818181818181728,
                "tempo": 120.0
            },
            {
                "start_time": 24.304545454545455,
                "end_time": 24.420454545454543,
                "pitch": 62,
                "velocity": 51,
                "duration": 0.11590909090908852,
                "tempo": 120.0
            },
            {
                "start_time": 24.454545454545453,
                "end_time": 24.570454545454545,
                "pitch": 59,
                "velocity": 51,
                "duration": 0.11590909090909207,
                "tempo": 120.0
            },
            {
                "start_time": 24.604545454545452,
                "end_time": 24.720454545454544,
                "pitch": 64,
                "velocity": 51,
                "duration": 0.11590909090909207,
                "tempo": 120.0
            },
            {
                "start_time": 24.754545454545454,
                "end_time": 24.870454545454542,
                "pitch": 59,
                "velocity": 51,
                "duration": 0.11590909090908852,
                "tempo": 120.0
            },
            {
                "start_time": 24.904545454545453,
                "end_time": 25.02272727272727,
                "pitch": 65,
                "velocity": 51,
                "duration": 0.11818181818181728,
                "tempo": 120.0
            },
            {
                "start_time": 25.054545454545455,
                "end_time": 25.172727272727272,
                "pitch": 59,
                "velocity": 51,
                "duration": 0.11818181818181728,
                "tempo": 120.0
            },
            {
                "start_time": 25.206818181818182,
                "end_time": 25.325,
                "pitch": 59,
                "velocity": 51,
                "duration": 0.11818181818181728,
                "tempo": 120.0
            },
            {
                "start_time": 25.35909090909091,
                "end_time": 25.477272727272727,
                "pitch": 59,
                "velocity": 51,
                "duration": 0.11818181818181728,
                "tempo": 120.0
            },
            {
                "start_time": 25.509090909090908,
                "end_time": 25.627272727272725,
                "pitch": 59,
                "velocity": 51,
                "duration": 0.11818181818181728,
                "tempo": 120.0
            },
            {
                "start_time": 25.659090909090907,
                "end_time": 25.777272727272727,
                "pitch": 59,
                "velocity": 51,
                "duration": 0.11818181818182083,
                "tempo": 120.0
            },
            {
                "start_time": 25.80909090909091,
                "end_time": 25.927272727272726,
                "pitch": 62,
                "velocity": 51,
                "duration": 0.11818181818181728,
                "tempo": 120.0
            },
            {
                "start_time": 25.959090909090907,
                "end_time": 26.077272727272724,
                "pitch": 59,
                "velocity": 51,
                "duration": 0.11818181818181728,
                "tempo": 120.0
            },
            {
                "start_time": 26.10909090909091,
                "end_time": 26.227272727272727,
                "pitch": 64,
                "velocity": 51,
                "duration": 0.11818181818181728,
                "tempo": 120.0
            },
            {
                "start_time": 26.261363636363637,
                "end_time": 26.379545454545454,
                "pitch": 59,
                "velocity": 51,
                "duration": 0.11818181818181728,
                "tempo": 120.0
            },
            {
                "start_time": 26.413636363636364,
                "end_time": 26.53181818181818,
                "pitch": 60,
                "velocity": 51,
                "duration": 0.11818181818181728,
                "tempo": 120.0
            },
            {
                "start_time": 26.563636363636363,
                "end_time": 26.68181818181818,
                "pitch": 60,
                "velocity": 51,
                "duration": 0.11818181818181728,
                "tempo": 120.0
            },
            {
                "start_time": 27.02272727272727,
                "end_time": 27.14090909090909,
                "pitch": 60,
                "velocity": 51,
                "duration": 0.11818181818182083,
                "tempo": 120.0
            },
            {
                "start_time": 27.174999999999997,
                "end_time": 27.295454545454543,
                "pitch": 60,
                "velocity": 51,
                "duration": 0.12045454545454604,
                "tempo": 120.0
            },
            {
                "start_time": 27.602272727272727,
                "end_time": 27.634090909090908,
                "pitch": 70,
                "velocity": 51,
                "duration": 0.0318181818181813,
                "tempo": 120.0
            },
            {
                "start_time": 27.634090909090908,
                "end_time": 27.65,
                "pitch": 68,
                "velocity": 51,
                "duration": 0.01590909090909065,
                "tempo": 120.0
            },
            {
                "start_time": 27.65,
                "end_time": 27.7,
                "pitch": 67,
                "velocity": 51,
                "duration": 0.05000000000000071,
                "tempo": 120.0
            },
            {
                "start_time": 27.7,
                "end_time": 27.74772727272727,
                "pitch": 64,
                "velocity": 51,
                "duration": 0.04772727272727195,
                "tempo": 120.0
            },
            {
                "start_time": 27.74772727272727,
                "end_time": 27.763636363636362,
                "pitch": 70,
                "velocity": 51,
                "duration": 0.01590909090909065,
                "tempo": 120.0
            },
            {
                "start_time": 27.763636363636362,
                "end_time": 27.779545454545453,
                "pitch": 68,
                "velocity": 51,
                "duration": 0.01590909090909065,
                "tempo": 120.0
            },
            {
                "start_time": 27.779545454545453,
                "end_time": 27.795454545454543,
                "pitch": 66,
                "velocity": 51,
                "duration": 0.01590909090909065,
                "tempo": 120.0
            },
            {
                "start_time": 27.795454545454543,
                "end_time": 27.829545454545453,
                "pitch": 63,
                "velocity": 51,
                "duration": 0.03409090909091006,
                "tempo": 120.0
            },
            {
                "start_time": 27.829545454545453,
                "end_time": 27.845454545454544,
                "pitch": 70,
                "velocity": 51,
                "duration": 0.01590909090909065,
                "tempo": 120.0
            },
            {
                "start_time": 27.845454545454544,
                "end_time": 27.877272727272725,
                "pitch": 67,
                "velocity": 51,
                "duration": 0.0318181818181813,
                "tempo": 120.0
            },
            {
                "start_time": 27.877272727272725,
                "end_time": 27.893181818181816,
                "pitch": 63,
                "velocity": 51,
                "duration": 0.01590909090909065,
                "tempo": 120.0
            },
            {
                "start_time": 27.893181818181816,
                "end_time": 27.911363636363635,
                "pitch": 67,
                "velocity": 51,
                "duration": 0.01818181818181941,
                "tempo": 120.0
            },
            {
                "start_time": 27.911363636363635,
                "end_time": 27.945454545454545,
                "pitch": 66,
                "velocity": 51,
                "duration": 0.03409090909091006,
                "tempo": 120.0
            },
            {
                "start_time": 27.945454545454545,
                "end_time": 27.979545454545452,
                "pitch": 63,
                "velocity": 51,
                "duration": 0.03409090909090651,
                "tempo": 120.0
            },
            {
                "start_time": 27.979545454545452,
                "end_time": 28.029545454545453,
                "pitch": 61,
                "velocity": 51,
                "duration": 0.05000000000000071,
                "tempo": 120.0
            },
            {
                "start_time": 28.029545454545453,
                "end_time": 28.045454545454543,
                "pitch": 58,
                "velocity": 51,
                "duration": 0.01590909090909065,
                "tempo": 120.0
            },
            {
                "start_time": 28.045454545454543,
                "end_time": 28.063636363636363,
                "pitch": 67,
                "velocity": 51,
                "duration": 0.01818181818181941,
                "tempo": 120.0
            },
            {
                "start_time": 28.063636363636363,
                "end_time": 28.079545454545453,
                "pitch": 64,
                "velocity": 51,
                "duration": 0.01590909090909065,
                "tempo": 120.0
            },
            {
                "start_time": 28.079545454545453,
                "end_time": 28.097727272727273,
                "pitch": 61,
                "velocity": 51,
                "duration": 0.01818181818181941,
                "tempo": 120.0
            },
            {
                "start_time": 28.097727272727273,
                "end_time": 28.13181818181818,
                "pitch": 58,
                "velocity": 51,
                "duration": 0.03409090909090651,
                "tempo": 120.0
            },
            {
                "start_time": 28.13181818181818,
                "end_time": 28.14772727272727,
                "pitch": 67,
                "velocity": 51,
                "duration": 0.01590909090909065,
                "tempo": 120.0
            },
            {
                "start_time": 28.14772727272727,
                "end_time": 28.18181818181818,
                "pitch": 63,
                "velocity": 51,
                "duration": 0.03409090909091006,
                "tempo": 120.0
            },
            {
                "start_time": 28.18181818181818,
                "end_time": 28.2,
                "pitch": 58,
                "velocity": 51,
                "duration": 0.01818181818181941,
                "tempo": 120.0
            },
            {
                "start_time": 28.2,
                "end_time": 28.21590909090909,
                "pitch": 70,
                "velocity": 51,
                "duration": 0.01590909090909065,
                "tempo": 120.0
            },
            {
                "start_time": 28.21590909090909,
                "end_time": 28.23409090909091,
                "pitch": 67,
                "velocity": 51,
                "duration": 0.01818181818181941,
                "tempo": 120.0
            },
            {
                "start_time": 28.23409090909091,
                "end_time": 28.25,
                "pitch": 63,
                "velocity": 51,
                "duration": 0.01590909090909065,
                "tempo": 120.0
            },
            {
                "start_time": 28.25,
                "end_time": 28.268181818181816,
                "pitch": 70,
                "velocity": 51,
                "duration": 0.018181818181815856,
                "tempo": 120.0
            },
            {
                "start_time": 28.268181818181816,
                "end_time": 28.284090909090907,
                "pitch": 67,
                "velocity": 51,
                "duration": 0.01590909090909065,
                "tempo": 120.0
            },
            {
                "start_time": 28.284090909090907,
                "end_time": 28.302272727272726,
                "pitch": 63,
                "velocity": 51,
                "duration": 0.01818181818181941,
                "tempo": 120.0
            },
            {
                "start_time": 28.302272727272726,
                "end_time": 28.318181818181817,
                "pitch": 67,
                "velocity": 51,
                "duration": 0.01590909090909065,
                "tempo": 120.0
            },
            {
                "start_time": 28.318181818181817,
                "end_time": 28.336363636363636,
                "pitch": 65,
                "velocity": 51,
                "duration": 0.01818181818181941,
                "tempo": 120.0
            },
            {
                "start_time": 28.336363636363636,
                "end_time": 28.352272727272727,
                "pitch": 63,
                "velocity": 51,
                "duration": 0.01590909090909065,
                "tempo": 120.0
            },
            {
                "start_time": 28.352272727272727,
                "end_time": 28.386363636363637,
                "pitch": 61,
                "velocity": 51,
                "duration": 0.03409090909091006,
                "tempo": 120.0
            },
            {
                "start_time": 28.386363636363637,
                "end_time": 28.404545454545453,
                "pitch": 58,
                "velocity": 51,
                "duration": 0.018181818181815856,
                "tempo": 120.0
            },
            {
                "start_time": 28.404545454545453,
                "end_time": 28.420454545454543,
                "pitch": 67,
                "velocity": 51,
                "duration": 0.01590909090909065,
                "tempo": 120.0
            },
            {
                "start_time": 28.420454545454543,
                "end_time": 28.438636363636363,
                "pitch": 65,
                "velocity": 51,
                "duration": 0.01818181818181941,
                "tempo": 120.0
            },
            {
                "start_time": 28.438636363636363,
                "end_time": 28.454545454545453,
                "pitch": 63,
                "velocity": 51,
                "duration": 0.01590909090909065,
                "tempo": 120.0
            },
            {
                "start_time": 28.454545454545453,
                "end_time": 28.488636363636363,
                "pitch": 61,
                "velocity": 51,
                "duration": 0.03409090909091006,
                "tempo": 120.0
            },
            {
                "start_time": 28.488636363636363,
                "end_time": 28.50681818181818,
                "pitch": 58,
                "velocity": 51,
                "duration": 0.018181818181815856,
                "tempo": 120.0
            },
            {
                "start_time": 28.50681818181818,
                "end_time": 28.52272727272727,
                "pitch": 67,
                "velocity": 51,
                "duration": 0.01590909090909065,
                "tempo": 120.0
            },
            {
                "start_time": 28.52272727272727,
                "end_time": 28.538636363636364,
                "pitch": 63,
                "velocity": 51,
                "duration": 0.015909090909094203,
                "tempo": 120.0
            },
            {
                "start_time": 28.538636363636364,
                "end_time": 28.55681818181818,
                "pitch": 58,
                "velocity": 51,
                "duration": 0.018181818181815856,
                "tempo": 120.0
            },
            {
                "start_time": 28.55681818181818,
                "end_time": 28.57272727272727,
                "pitch": 67,
                "velocity": 51,
                "duration": 0.01590909090909065,
                "tempo": 120.0
            },
            {
                "start_time": 28.57272727272727,
                "end_time": 28.59090909090909,
                "pitch": 63,
                "velocity": 51,
                "duration": 0.01818181818181941,
                "tempo": 120.0
            },
            {
                "start_time": 28.59090909090909,
                "end_time": 28.60681818181818,
                "pitch": 58,
                "velocity": 51,
                "duration": 0.01590909090909065,
                "tempo": 120.0
            },
            {
                "start_time": 28.60681818181818,
                "end_time": 28.64090909090909,
                "pitch": 64,
                "velocity": 51,
                "duration": 0.03409090909091006,
                "tempo": 120.0
            },
            {
                "start_time": 28.64090909090909,
                "end_time": 28.693181818181817,
                "pitch": 62,
                "velocity": 51,
                "duration": 0.052272727272725916,
                "tempo": 120.0
            },
            {
                "start_time": 28.693181818181817,
                "end_time": 28.709090909090907,
                "pitch": 59,
                "velocity": 51,
                "duration": 0.01590909090909065,
                "tempo": 120.0
            },
            {
                "start_time": 28.709090909090907,
                "end_time": 28.743181818181817,
                "pitch": 64,
                "velocity": 51,
                "duration": 0.03409090909091006,
                "tempo": 120.0
            },
            {
                "start_time": 28.743181818181817,
                "end_time": 28.795454545454543,
                "pitch": 62,
                "velocity": 51,
                "duration": 0.052272727272725916,
                "tempo": 120.0
            },
            {
                "start_time": 28.795454545454543,
                "end_time": 28.811363636363634,
                "pitch": 59,
                "velocity": 51,
                "duration": 0.01590909090909065,
                "tempo": 120.0
            },
            {
                "start_time": 28.829545454545453,
                "end_time": 28.94772727272727,
                "pitch": 55,
                "velocity": 101,
                "duration": 0.11818181818181728,
                "tempo": 120.0
            }
        ]
    }
}