{
    "track_id": "Fantasy Zone II (FM) - 04 - Hiyarika",
    "mood": "happy",
    "instruments": {
        "Acoustic Grand Piano": [
            {
                "start_time": 26.029545454545453,
                "end_time": 26.063636363636363,
                "pitch": 85,
                "velocity": 64,
                "duration": 0.03409090909091006,
                "tempo": 120.0
            },
            {
                "start_time": 26.095454545454544,
                "end_time": 26.263636363636362,
                "pitch": 86,
                "velocity": 64,
                "duration": 0.168181818181818,
                "tempo": 120.0
            },
            {
                "start_time": 26.295454545454543,
                "end_time": 26.459090909090907,
                "pitch": 85,
                "velocity": 64,
                "duration": 0.16363636363636402,
                "tempo": 120.0
            },
            {
                "start_time": 26.49090909090909,
                "end_time": 26.85909090909091,
                "pitch": 86,
                "velocity": 64,
                "duration": 0.36818181818182083,
                "tempo": 120.0
            },
            {
                "start_time": 26.893181818181816,
                "end_time": 27.261363636363637,
                "pitch": 81,
                "velocity": 64,
                "duration": 0.36818181818182083,
                "tempo": 120.0
            },
            {
                "start_time": 27.295454545454543,
                "end_time": 27.868181818181817,
                "pitch": 84,
                "velocity": 64,
                "duration": 0.5727272727272741,
                "tempo": 120.0
            },
            {
                "start_time": 27.902272727272727,
                "end_time": 28.068181818181817,
                "pitch": 86,
                "velocity": 64,
                "duration": 0.16590909090908923,
                "tempo": 120.0
            },
            {
                "start_time": 28.102272727272727,
                "end_time": 28.868181818181817,
                "pitch": 84,
                "velocity": 64,
                "duration": 0.7659090909090907,
                "tempo": 120.0
            },
            {
                "start_time": 28.9,
                "end_time": 29.16590909090909,
                "pitch": 89,
                "velocity": 64,
                "duration": 0.26590909090909065,
                "tempo": 120.0
            },
            {
                "start_time": 29.2,
                "end_time": 29.268181818181816,
                "pitch": 88,
                "velocity": 64,
                "duration": 0.06818181818181657,
                "tempo": 120.0
            },
            {
                "start_time": 29.302272727272726,
                "end_time": 29.472727272727273,
                "pitch": 89,
                "velocity": 64,
                "duration": 0.17045454545454675,
                "tempo": 120.0
            },
            {
                "start_time": 29.50681818181818,
                "end_time": 29.670454545454543,
                "pitch": 88,
                "velocity": 64,
                "duration": 0.16363636363636402,
                "tempo": 120.0
            },
            {
                "start_time": 29.702272727272724,
                "end_time": 30.070454545454545,
                "pitch": 89,
                "velocity": 64,
                "duration": 0.36818181818182083,
                "tempo": 120.0
            },
            {
                "start_time": 30.104545454545452,
                "end_time": 30.472727272727273,
                "pitch": 90,
                "velocity": 64,
                "duration": 0.36818181818182083,
                "tempo": 120.0
            },
            {
                "start_time": 30.504545454545454,
                "end_time": 31.079545454545453,
                "pitch": 91,
                "velocity": 64,
                "duration": 0.5749999999999993,
                "tempo": 120.0
            },
            {
                "start_time": 31.111363636363635,
                "end_time": 31.275,
                "pitch": 93,
                "velocity": 64,
                "duration": 0.16363636363636402,
                "tempo": 120.0
            },
            {
                "start_time": 31.30681818181818,
                "end_time": 31.674999999999997,
                "pitch": 91,
                "velocity": 64,
                "duration": 0.3681818181818173,
                "tempo": 120.0
            },
            {
                "start_time": 31.709090909090907,
                "end_time": 31.88181818181818,
                "pitch": 89,
                "velocity": 64,
                "duration": 0.17272727272727195,
                "tempo": 120.0
            },
            {
                "start_time": 31.91590909090909,
                "end_time": 32.08181818181818,
                "pitch": 88,
                "velocity": 64,
                "duration": 0.16590909090908923,
                "tempo": 120.0
            },
            {
                "start_time": 32.11590909090909,
                "end_time": 32.413636363636364,
                "pitch": 86,
                "velocity": 64,
                "duration": 0.29772727272727195,
                "tempo": 120.0
            },
            {
                "start_time": 32.445454545454545,
                "end_time": 32.47727272727273,
                "pitch": 85,
                "velocity": 64,
                "duration": 0.0318181818181813,
                "tempo": 120.0
            },
            {
                "start_time": 32.51136363636363,
                "end_time": 32.675,
                "pitch": 86,
                "velocity": 64,
                "duration": 0.16363636363636402,
                "tempo": 120.0
            },
            {
                "start_time": 32.70681818181818,
                "end_time": 32.875,
                "pitch": 85,
                "velocity": 64,
                "duration": 0.16818181818182154,
                "tempo": 120.0
            },
            {
                "start_time": 32.90681818181818,
                "end_time": 33.275,
                "pitch": 86,
                "velocity": 64,
                "duration": 0.3681818181818173,
                "tempo": 120.0
            },
            {
                "start_time": 33.30681818181818,
                "end_time": 33.675,
                "pitch": 81,
                "velocity": 64,
                "duration": 0.3681818181818173,
                "tempo": 120.0
            },
            {
                "start_time": 33.70909090909091,
                "end_time": 34.277272727272724,
                "pitch": 84,
                "velocity": 64,
                "duration": 0.568181818181813,
                "tempo": 120.0
            },
            {
                "start_time": 34.309090909090905,
                "end_time": 34.47727272727273,
                "pitch": 86,
                "velocity": 64,
                "duration": 0.16818181818182154,
                "tempo": 120.0
            },
            {
                "start_time": 34.50909090909091,
                "end_time": 35.28409090909091,
                "pitch": 84,
                "velocity": 64,
                "duration": 0.7749999999999986,
                "tempo": 120.0
            },
            {
                "start_time": 35.31590909090909,
                "end_time": 35.57954545454545,
                "pitch": 89,
                "velocity": 64,
                "duration": 0.26363636363636545,
                "tempo": 120.0
            },
            {
                "start_time": 35.61363636363636,
                "end_time": 35.679545454545455,
                "pitch": 88,
                "velocity": 64,
                "duration": 0.06590909090909491,
                "tempo": 120.0
            },
            {
                "start_time": 35.71363636363636,
                "end_time": 35.88181818181818,
                "pitch": 89,
                "velocity": 64,
                "duration": 0.16818181818182154,
                "tempo": 120.0
            },
            {
                "start_time": 35.91590909090909,
                "end_time": 36.08181818181818,
                "pitch": 88,
                "velocity": 64,
                "duration": 0.16590909090908923,
                "tempo": 120.0
            },
            {
                "start_time": 36.11590909090909,
                "end_time": 36.48181818181818,
                "pitch": 89,
                "velocity": 64,
                "duration": 0.36590909090908497,
                "tempo": 120.0
            },
            {
                "start_time": 36.51590909090909,
                "end_time": 36.88181818181818,
                "pitch": 90,
                "velocity": 64,
                "duration": 0.36590909090909207,
                "tempo": 120.0
            },
            {
                "start_time": 36.91590909090909,
                "end_time": 37.68636363636364,
                "pitch": 91,
                "velocity": 64,
                "duration": 0.7704545454545482,
                "tempo": 120.0
            }
        ],
        "Oboe": [
            {
                "start_time": 0.19999999999999998,
                "end_time": 0.3659090909090909,
                "pitch": 36,
                "velocity": 51,
                "duration": 0.16590909090909092,
                "tempo": 120.0
            },
            {
                "start_time": 0.39999999999999997,
                "end_time": 0.5659090909090909,
                "pitch": 36,
                "velocity": 51,
                "duration": 0.16590909090909095,
                "tempo": 120.0
            },
            {
                "start_time": 0.6,
                "end_time": 0.7659090909090909,
                "pitch": 31,
                "velocity": 51,
                "duration": 0.1659090909090909,
                "tempo": 120.0
            },
            {
                "start_time": 0.7999999999999999,
                "end_time": 0.9659090909090908,
                "pitch": 36,
                "velocity": 51,
                "duration": 0.1659090909090909,
                "tempo": 120.0
            },
            {
                "start_time": 1.0,
                "end_time": 1.1659090909090908,
                "pitch": 35,
                "velocity": 51,
                "duration": 0.16590909090909078,
                "tempo": 120.0
            },
            {
                "start_time": 1.2,
                "end_time": 1.3659090909090907,
                "pitch": 36,
                "velocity": 51,
                "duration": 0.16590909090909078,
                "tempo": 120.0
            },
            {
                "start_time": 1.4,
                "end_time": 1.565909090909091,
                "pitch": 37,
                "velocity": 51,
                "duration": 0.165909090909091,
                "tempo": 120.0
            },
            {
                "start_time": 1.5999999999999999,
                "end_time": 1.7659090909090909,
                "pitch": 38,
                "velocity": 51,
                "duration": 0.165909090909091,
                "tempo": 120.0
            },
            {
                "start_time": 1.7999999999999998,
                "end_time": 1.968181818181818,
                "pitch": 38,
                "velocity": 51,
                "duration": 0.1681818181818182,
                "tempo": 120.0
            },
            {
                "start_time": 2.002272727272727,
                "end_time": 2.168181818181818,
                "pitch": 38,
                "velocity": 51,
                "duration": 0.165909090909091,
                "tempo": 120.0
            },
            {
                "start_time": 2.202272727272727,
                "end_time": 2.375,
                "pitch": 33,
                "velocity": 51,
                "duration": 0.17272727272727284,
                "tempo": 120.0
            },
            {
                "start_time": 2.409090909090909,
                "end_time": 2.5795454545454546,
                "pitch": 38,
                "velocity": 51,
                "duration": 0.17045454545454541,
                "tempo": 120.0
            },
            {
                "start_time": 2.6136363636363633,
                "end_time": 2.7772727272727273,
                "pitch": 41,
                "velocity": 51,
                "duration": 0.16363636363636402,
                "tempo": 120.0
            },
            {
                "start_time": 2.809090909090909,
                "end_time": 2.9727272727272727,
                "pitch": 40,
                "velocity": 51,
                "duration": 0.16363636363636358,
                "tempo": 120.0
            },
            {
                "start_time": 3.0045454545454544,
                "end_time": 3.1727272727272724,
                "pitch": 38,
                "velocity": 51,
                "duration": 0.168181818181818,
                "tempo": 120.0
            },
            {
                "start_time": 3.2045454545454546,
                "end_time": 3.3727272727272726,
                "pitch": 41,
                "velocity": 51,
                "duration": 0.168181818181818,
                "tempo": 120.0
            },
            {
                "start_time": 3.4045454545454543,
                "end_time": 3.5727272727272728,
                "pitch": 41,
                "velocity": 51,
                "duration": 0.16818181818181843,
                "tempo": 120.0
            },
            {
                "start_time": 3.6045454545454545,
                "end_time": 3.7727272727272725,
                "pitch": 41,
                "velocity": 51,
                "duration": 0.168181818181818,
                "tempo": 120.0
            },
            {
                "start_time": 3.8045454545454542,
                "end_time": 3.9727272727272727,
                "pitch": 36,
                "velocity": 51,
                "duration": 0.16818181818181843,
                "tempo": 120.0
            },
            {
                "start_time": 4.004545454545454,
                "end_time": 4.172727272727273,
                "pitch": 41,
                "velocity": 51,
                "duration": 0.16818181818181888,
                "tempo": 120.0
            },
            {
                "start_time": 4.204545454545454,
                "end_time": 4.372727272727272,
                "pitch": 40,
                "velocity": 51,
                "duration": 0.168181818181818,
                "tempo": 120.0
            },
            {
                "start_time": 4.404545454545454,
                "end_time": 4.572727272727272,
                "pitch": 41,
                "velocity": 51,
                "duration": 0.168181818181818,
                "tempo": 120.0
            },
            {
                "start_time": 4.6068181818181815,
                "end_time": 4.7727272727272725,
                "pitch": 42,
                "velocity": 51,
                "duration": 0.165909090909091,
                "tempo": 120.0
            },
            {
                "start_time": 4.806818181818182,
                "end_time": 4.975,
                "pitch": 43,
                "velocity": 51,
                "duration": 0.168181818181818,
                "tempo": 120.0
            },
            {
                "start_time": 5.009090909090909,
                "end_time": 5.177272727272727,
                "pitch": 43,
                "velocity": 51,
                "duration": 0.168181818181818,
                "tempo": 120.0
            },
            {
                "start_time": 5.209090909090909,
                "end_time": 5.377272727272727,
                "pitch": 43,
                "velocity": 51,
                "duration": 0.168181818181818,
                "tempo": 120.0
            },
            {
                "start_time": 5.411363636363636,
                "end_time": 5.581818181818181,
                "pitch": 40,
                "velocity": 51,
                "duration": 0.17045454545454497,
                "tempo": 120.0
            },
            {
                "start_time": 5.61590909090909,
                "end_time": 5.6499999999999995,
                "pitch": 43,
                "velocity": 51,
                "duration": 0.03409090909090917,
                "tempo": 120.0
            },
            {
                "start_time": 5.920454545454545,
                "end_time": 6.081818181818181,
                "pitch": 43,
                "velocity": 51,
                "duration": 0.16136363636363615,
                "tempo": 120.0
            },
            {
                "start_time": 6.11590909090909,
                "end_time": 6.131818181818182,
                "pitch": 40,
                "velocity": 51,
                "duration": 0.01590909090909154,
                "tempo": 120.0
            },
            {
                "start_time": 6.163636363636363,
                "end_time": 6.384090909090909,
                "pitch": 38,
                "velocity": 51,
                "duration": 0.22045454545454568,
                "tempo": 120.0
            },
            {
                "start_time": 6.420454545454545,
                "end_time": 6.590909090909091,
                "pitch": 36,
                "velocity": 51,
                "duration": 0.17045454545454586,
                "tempo": 120.0
            },
            {
                "start_time": 6.625,
                "end_time": 6.786363636363636,
                "pitch": 36,
                "velocity": 51,
                "duration": 0.16136363636363615,
                "tempo": 120.0
            },
            {
                "start_time": 6.820454545454545,
                "end_time": 6.9840909090909085,
                "pitch": 36,
                "velocity": 51,
                "duration": 0.16363636363636314,
                "tempo": 120.0
            },
            {
                "start_time": 7.015909090909091,
                "end_time": 7.184090909090909,
                "pitch": 31,
                "velocity": 51,
                "duration": 0.168181818181818,
                "tempo": 120.0
            },
            {
                "start_time": 7.218181818181818,
                "end_time": 7.386363636363636,
                "pitch": 36,
                "velocity": 51,
                "duration": 0.168181818181818,
                "tempo": 120.0
            },
            {
                "start_time": 7.418181818181818,
                "end_time": 7.586363636363636,
                "pitch": 35,
                "velocity": 51,
                "duration": 0.168181818181818,
                "tempo": 120.0
            },
            {
                "start_time": 7.618181818181818,
                "end_time": 7.786363636363636,
                "pitch": 36,
                "velocity": 51,
                "duration": 0.168181818181818,
                "tempo": 120.0
            },
            {
                "start_time": 7.820454545454545,
                "end_time": 7.986363636363636,
                "pitch": 37,
                "velocity": 51,
                "duration": 0.165909090909091,
                "tempo": 120.0
            },
            {
                "start_time": 8.020454545454545,
                "end_time": 8.188636363636363,
                "pitch": 38,
                "velocity": 51,
                "duration": 0.168181818181818,
                "tempo": 120.0
            },
            {
                "start_time": 8.222727272727273,
                "end_time": 8.388636363636364,
                "pitch": 38,
                "velocity": 51,
                "duration": 0.165909090909091,
                "tempo": 120.0
            },
            {
                "start_time": 8.422727272727272,
                "end_time": 8.588636363636363,
                "pitch": 38,
                "velocity": 51,
                "duration": 0.165909090909091,
                "tempo": 120.0
            },
            {
                "start_time": 8.622727272727273,
                "end_time": 8.790909090909091,
                "pitch": 33,
                "velocity": 51,
                "duration": 0.168181818181818,
                "tempo": 120.0
            },
            {
                "start_time": 8.822727272727272,
                "end_time": 8.99090909090909,
                "pitch": 38,
                "velocity": 51,
                "duration": 0.168181818181818,
                "tempo": 120.0
            },
            {
                "start_time": 9.025,
                "end_time": 9.193181818181818,
                "pitch": 41,
                "velocity": 51,
                "duration": 0.168181818181818,
                "tempo": 120.0
            },
            {
                "start_time": 9.225,
                "end_time": 9.393181818181818,
                "pitch": 40,
                "velocity": 51,
                "duration": 0.168181818181818,
                "tempo": 120.0
            },
            {
                "start_time": 9.427272727272728,
                "end_time": 9.595454545454546,
                "pitch": 38,
                "velocity": 51,
                "duration": 0.168181818181818,
                "tempo": 120.0
            },
            {
                "start_time": 9.629545454545454,
                "end_time": 9.795454545454545,
                "pitch": 41,
                "velocity": 51,
                "duration": 0.165909090909091,
                "tempo": 120.0
            },
            {
                "start_time": 9.829545454545453,
                "end_time": 9.997727272727273,
                "pitch": 41,
                "velocity": 51,
                "duration": 0.16818181818181976,
                "tempo": 120.0
            },
            {
                "start_time": 10.029545454545454,
                "end_time": 10.197727272727272,
                "pitch": 41,
                "velocity": 51,
                "duration": 0.168181818181818,
                "tempo": 120.0
            },
            {
                "start_time": 10.229545454545454,
                "end_time": 10.402272727272727,
                "pitch": 36,
                "velocity": 51,
                "duration": 0.17272727272727373,
                "tempo": 120.0
            },
            {
                "start_time": 10.436363636363636,
                "end_time": 10.60681818181818,
                "pitch": 43,
                "velocity": 51,
                "duration": 0.17045454545454497,
                "tempo": 120.0
            },
            {
                "start_time": 10.64090909090909,
                "end_time": 10.804545454545455,
                "pitch": 43,
                "velocity": 51,
                "duration": 0.16363636363636402,
                "tempo": 120.0
            },
            {
                "start_time": 10.836363636363636,
                "end_time": 11.0,
                "pitch": 40,
                "velocity": 51,
                "duration": 0.16363636363636402,
                "tempo": 120.0
            },
            {
                "start_time": 11.031818181818181,
                "end_time": 11.2,
                "pitch": 40,
                "velocity": 51,
                "duration": 0.168181818181818,
                "tempo": 120.0
            },
            {
                "start_time": 11.23409090909091,
                "end_time": 11.25,
                "pitch": 36,
                "velocity": 51,
                "duration": 0.01590909090909065,
                "tempo": 120.0
            },
            {
                "start_time": 11.502272727272727,
                "end_time": 11.602272727272727,
                "pitch": 36,
                "velocity": 51,
                "duration": 0.09999999999999964,
                "tempo": 120.0
            },
            {
                "start_time": 11.636363636363637,
                "end_time": 11.804545454545455,
                "pitch": 36,
                "velocity": 51,
                "duration": 0.168181818181818,
                "tempo": 120.0
            },
            {
                "start_time": 11.838636363636363,
                "end_time": 12.004545454545454,
                "pitch": 33,
                "velocity": 51,
                "duration": 0.165909090909091,
                "tempo": 120.0
            },
            {
                "start_time": 12.038636363636362,
                "end_time": 12.088636363636363,
                "pitch": 36,
                "velocity": 51,
                "duration": 0.05000000000000071,
                "tempo": 120.0
            },
            {
                "start_time": 12.847727272727273,
                "end_time": 13.018181818181818,
                "pitch": 36,
                "velocity": 51,
                "duration": 0.17045454545454497,
                "tempo": 120.0
            },
            {
                "start_time": 13.052272727272726,
                "end_time": 13.213636363636363,
                "pitch": 36,
                "velocity": 51,
                "duration": 0.16136363636363704,
                "tempo": 120.0
            },
            {
                "start_time": 13.247727272727271,
                "end_time": 13.411363636363635,
                "pitch": 36,
                "velocity": 51,
                "duration": 0.16363636363636402,
                "tempo": 120.0
            },
            {
                "start_time": 13.443181818181818,
                "end_time": 13.611363636363636,
                "pitch": 31,
                "velocity": 51,
                "duration": 0.168181818181818,
                "tempo": 120.0
            },
            {
                "start_time": 13.645454545454545,
                "end_time": 13.813636363636363,
                "pitch": 36,
                "velocity": 51,
                "duration": 0.168181818181818,
                "tempo": 120.0
            },
            {
                "start_time": 13.845454545454544,
                "end_time": 14.013636363636364,
                "pitch": 35,
                "velocity": 51,
                "duration": 0.16818181818181976,
                "tempo": 120.0
            },
            {
                "start_time": 14.045454545454545,
                "end_time": 14.213636363636363,
                "pitch": 36,
                "velocity": 51,
                "duration": 0.168181818181818,
                "tempo": 120.0
            },
            {
                "start_time": 14.245454545454544,
                "end_time": 14.413636363636362,
                "pitch": 37,
                "velocity": 51,
                "duration": 0.168181818181818,
                "tempo": 120.0
            },
            {
                "start_time": 14.447727272727272,
                "end_time": 14.61590909090909,
                "pitch": 38,
                "velocity": 51,
                "duration": 0.168181818181818,
                "tempo": 120.0
            },
            {
                "start_time": 14.649999999999999,
                "end_time": 14.81590909090909,
                "pitch": 38,
                "velocity": 51,
                "duration": 0.165909090909091,
                "tempo": 120.0
            },
            {
                "start_time": 14.85,
                "end_time": 15.018181818181818,
                "pitch": 38,
                "velocity": 51,
                "duration": 0.168181818181818,
                "tempo": 120.0
            },
            {
                "start_time": 15.052272727272726,
                "end_time": 15.220454545454544,
                "pitch": 33,
                "velocity": 51,
                "duration": 0.168181818181818,
                "tempo": 120.0
            },
            {
                "start_time": 15.252272727272727,
                "end_time": 15.420454545454545,
                "pitch": 38,
                "velocity": 51,
                "duration": 0.168181818181818,
                "tempo": 120.0
            },
            {
                "start_time": 15.454545454545453,
                "end_time": 15.622727272727271,
                "pitch": 41,
                "velocity": 51,
                "duration": 0.168181818181818,
                "tempo": 120.0
            },
            {
                "start_time": 15.656818181818181,
                "end_time": 15.822727272727272,
                "pitch": 40,
                "velocity": 51,
                "duration": 0.165909090909091,
                "tempo": 120.0
            },
            {
                "start_time": 15.85681818181818,
                "end_time": 16.022727272727273,
                "pitch": 38,
                "velocity": 51,
                "duration": 0.16590909090909278,
                "tempo": 120.0
            },
            {
                "start_time": 16.05681818181818,
                "end_time": 16.222727272727273,
                "pitch": 41,
                "velocity": 51,
                "duration": 0.16590909090909278,
                "tempo": 120.0
            },
            {
                "start_time": 16.256818181818183,
                "end_time": 16.425,
                "pitch": 41,
                "velocity": 51,
                "duration": 0.168181818181818,
                "tempo": 120.0
            },
            {
                "start_time": 16.459090909090907,
                "end_time": 16.627272727272725,
                "pitch": 41,
                "velocity": 51,
                "duration": 0.168181818181818,
                "tempo": 120.0
            },
            {
                "start_time": 16.659090909090907,
                "end_time": 16.831818181818182,
                "pitch": 36,
                "velocity": 51,
                "duration": 0.1727272727272755,
                "tempo": 120.0
            },
            {
                "start_time": 16.86590909090909,
                "end_time": 17.036363636363635,
                "pitch": 41,
                "velocity": 51,
                "duration": 0.17045454545454675,
                "tempo": 120.0
            },
            {
                "start_time": 17.070454545454545,
                "end_time": 17.23409090909091,
                "pitch": 40,
                "velocity": 51,
                "duration": 0.16363636363636402,
                "tempo": 120.0
            },
            {
                "start_time": 17.26590909090909,
                "end_time": 17.429545454545455,
                "pitch": 41,
                "velocity": 51,
                "duration": 0.16363636363636402,
                "tempo": 120.0
            },
            {
                "start_time": 17.46363636363636,
                "end_time": 17.629545454545454,
                "pitch": 42,
                "velocity": 51,
                "duration": 0.16590909090909278,
                "tempo": 120.0
            },
            {
                "start_time": 17.663636363636364,
                "end_time": 17.829545454545453,
                "pitch": 43,
                "velocity": 51,
                "duration": 0.16590909090908923,
                "tempo": 120.0
            },
            {
                "start_time": 17.863636363636363,
                "end_time": 18.03181818181818,
                "pitch": 43,
                "velocity": 51,
                "duration": 0.168181818181818,
                "tempo": 120.0
            },
            {
                "start_time": 18.063636363636363,
                "end_time": 18.23181818181818,
                "pitch": 43,
                "velocity": 51,
                "duration": 0.168181818181818,
                "tempo": 120.0
            },
            {
                "start_time": 18.26590909090909,
                "end_time": 18.43181818181818,
                "pitch": 40,
                "velocity": 51,
                "duration": 0.16590909090908923,
                "tempo": 120.0
            },
            {
                "start_time": 18.46590909090909,
                "end_time": 18.49772727272727,
                "pitch": 43,
                "velocity": 51,
                "duration": 0.0318181818181813,
                "tempo": 120.0
            },
            {
                "start_time": 18.76590909090909,
                "end_time": 18.93181818181818,
                "pitch": 43,
                "velocity": 51,
                "duration": 0.16590909090908923,
                "tempo": 120.0
            },
            {
                "start_time": 18.96590909090909,
                "end_time": 18.98181818181818,
                "pitch": 40,
                "velocity": 51,
                "duration": 0.01590909090909065,
                "tempo": 120.0
            },
            {
                "start_time": 19.01590909090909,
                "end_time": 19.236363636363635,
                "pitch": 38,
                "velocity": 51,
                "duration": 0.2204545454545439,
                "tempo": 120.0
            },
            {
                "start_time": 19.270454545454545,
                "end_time": 19.443181818181817,
                "pitch": 36,
                "velocity": 51,
                "duration": 0.17272727272727195,
                "tempo": 120.0
            },
            {
                "start_time": 19.474999999999998,
                "end_time": 19.638636363636362,
                "pitch": 36,
                "velocity": 51,
                "duration": 0.16363636363636402,
                "tempo": 120.0
            },
            {
                "start_time": 19.672727272727272,
                "end_time": 19.834090909090907,
                "pitch": 36,
                "velocity": 51,
                "duration": 0.16136363636363527,
                "tempo": 120.0
            },
            {
                "start_time": 19.868181818181817,
                "end_time": 20.036363636363635,
                "pitch": 31,
                "velocity": 51,
                "duration": 0.168181818181818,
                "tempo": 120.0
            },
            {
                "start_time": 20.070454545454545,
                "end_time": 20.238636363636363,
                "pitch": 36,
                "velocity": 51,
                "duration": 0.168181818181818,
                "tempo": 120.0
            },
            {
                "start_time": 20.270454545454545,
                "end_time": 20.438636363636363,
                "pitch": 35,
                "velocity": 51,
                "duration": 0.168181818181818,
                "tempo": 120.0
            },
            {
                "start_time": 20.470454545454544,
                "end_time": 20.638636363636362,
                "pitch": 36,
                "velocity": 51,
                "duration": 0.168181818181818,
                "tempo": 120.0
            },
            {
                "start_time": 20.670454545454543,
                "end_time": 20.83863636363636,
                "pitch": 37,
                "velocity": 51,
                "duration": 0.168181818181818,
                "tempo": 120.0
            },
            {
                "start_time": 20.870454545454546,
                "end_time": 21.038636363636364,
                "pitch": 38,
                "velocity": 51,
                "duration": 0.168181818181818,
                "tempo": 120.0
            },
            {
                "start_time": 21.070454545454545,
                "end_time": 21.238636363636363,
                "pitch": 38,
                "velocity": 51,
                "duration": 0.168181818181818,
                "tempo": 120.0
            },
            {
                "start_time": 21.272727272727273,
                "end_time": 21.44090909090909,
                "pitch": 38,
                "velocity": 51,
                "duration": 0.168181818181818,
                "tempo": 120.0
            },
            {
                "start_time": 21.472727272727273,
                "end_time": 21.64090909090909,
                "pitch": 33,
                "velocity": 51,
                "duration": 0.168181818181818,
                "tempo": 120.0
            },
            {
                "start_time": 21.672727272727272,
                "end_time": 21.84090909090909,
                "pitch": 38,
                "velocity": 51,
                "duration": 0.168181818181818,
                "tempo": 120.0
            },
            {
                "start_time": 21.87272727272727,
                "end_time": 22.04090909090909,
                "pitch": 41,
                "velocity": 51,
                "duration": 0.168181818181818,
                "tempo": 120.0
            },
            {
                "start_time": 22.075,
                "end_time": 22.243181818181817,
                "pitch": 40,
                "velocity": 51,
                "duration": 0.168181818181818,
                "tempo": 120.0
            },
            {
                "start_time": 22.277272727272727,
                "end_time": 22.443181818181817,
                "pitch": 38,
                "velocity": 51,
                "duration": 0.16590909090908923,
                "tempo": 120.0
            },
            {
                "start_time": 22.477272727272727,
                "end_time": 22.643181818181816,
                "pitch": 41,
                "velocity": 51,
                "duration": 0.16590909090908923,
                "tempo": 120.0
            },
            {
                "start_time": 22.677272727272726,
                "end_time": 22.84318181818182,
                "pitch": 41,
                "velocity": 51,
                "duration": 0.16590909090909278,
                "tempo": 120.0
            },
            {
                "start_time": 22.877272727272725,
                "end_time": 23.043181818181818,
                "pitch": 41,
                "velocity": 51,
                "duration": 0.16590909090909278,
                "tempo": 120.0
            },
            {
                "start_time": 23.077272727272724,
                "end_time": 23.243181818181817,
                "pitch": 36,
                "velocity": 51,
                "duration": 0.16590909090909278,
                "tempo": 120.0
            },
            {
                "start_time": 23.277272727272727,
                "end_time": 23.445454545454545,
                "pitch": 43,
                "velocity": 51,
                "duration": 0.168181818181818,
                "tempo": 120.0
            },
            {
                "start_time": 23.479545454545452,
                "end_time": 23.645454545454545,
                "pitch": 43,
                "velocity": 51,
                "duration": 0.16590909090909278,
                "tempo": 120.0
            },
            {
                "start_time": 23.679545454545455,
                "end_time": 23.845454545454544,
                "pitch": 40,
                "velocity": 51,
                "duration": 0.16590909090908923,
                "tempo": 120.0
            },
            {
                "start_time": 23.879545454545454,
                "end_time": 24.047727272727272,
                "pitch": 40,
                "velocity": 51,
                "duration": 0.168181818181818,
                "tempo": 120.0
            },
            {
                "start_time": 24.079545454545453,
                "end_time": 24.113636363636363,
                "pitch": 36,
                "velocity": 51,
                "duration": 0.03409090909091006,
                "tempo": 120.0
            },
            {
                "start_time": 24.38181818181818,
                "end_time": 24.44772727272727,
                "pitch": 36,
                "velocity": 51,
                "duration": 0.06590909090909136,
                "tempo": 120.0
            },
            {
                "start_time": 24.48181818181818,
                "end_time": 24.64772727272727,
                "pitch": 36,
                "velocity": 51,
                "duration": 0.16590909090908923,
                "tempo": 120.0
            },
            {
                "start_time": 24.68181818181818,
                "end_time": 24.847727272727273,
                "pitch": 33,
                "velocity": 51,
                "duration": 0.16590909090909278,
                "tempo": 120.0
            },
            {
                "start_time": 24.88181818181818,
                "end_time": 24.93181818181818,
                "pitch": 36,
                "velocity": 51,
                "duration": 0.05000000000000071,
                "tempo": 120.0
            },
            {
                "start_time": 25.686363636363634,
                "end_time": 25.702272727272724,
                "pitch": 38,
                "velocity": 51,
                "duration": 0.01590909090909065,
                "tempo": 120.0
            },
            {
                "start_time": 25.995454545454542,
                "end_time": 26.063636363636363,
                "pitch": 38,
                "velocity": 51,
                "duration": 0.06818181818182012,
                "tempo": 120.0
            },
            {
                "start_time": 26.095454545454544,
                "end_time": 26.263636363636362,
                "pitch": 38,
                "velocity": 51,
                "duration": 0.168181818181818,
                "tempo": 120.0
            },
            {
                "start_time": 26.295454545454543,
                "end_time": 26.459090909090907,
                "pitch": 33,
                "velocity": 51,
                "duration": 0.16363636363636402,
                "tempo": 120.0
            },
            {
                "start_time": 26.79090909090909,
                "end_time": 26.85909090909091,
                "pitch": 38,
                "velocity": 51,
                "duration": 0.06818181818182012,
                "tempo": 120.0
            },
            {
                "start_time": 26.893181818181816,
                "end_time": 27.06590909090909,
                "pitch": 38,
                "velocity": 51,
                "duration": 0.1727272727272755,
                "tempo": 120.0
            },
            {
                "start_time": 27.097727272727273,
                "end_time": 27.261363636363637,
                "pitch": 37,
                "velocity": 51,
                "duration": 0.16363636363636402,
                "tempo": 120.0
            },
            {
                "start_time": 27.295454545454543,
                "end_time": 27.311363636363634,
                "pitch": 36,
                "velocity": 51,
                "duration": 0.01590909090909065,
                "tempo": 120.0
            },
            {
                "start_time": 27.593181818181815,
                "end_time": 27.661363636363635,
                "pitch": 36,
                "velocity": 51,
                "duration": 0.06818181818182012,
                "tempo": 120.0
            },
            {
                "start_time": 27.695454545454545,
                "end_time": 27.868181818181817,
                "pitch": 36,
                "velocity": 51,
                "duration": 0.17272727272727195,
                "tempo": 120.0
            },
            {
                "start_time": 27.902272727272727,
                "end_time": 28.068181818181817,
                "pitch": 31,
                "velocity": 51,
                "duration": 0.16590909090908923,
                "tempo": 120.0
            },
            {
                "start_time": 28.102272727272727,
                "end_time": 28.368181818181817,
                "pitch": 36,
                "velocity": 51,
                "duration": 0.26590909090909065,
                "tempo": 120.0
            },
            {
                "start_time": 28.402272727272727,
                "end_time": 28.470454545454544,
                "pitch": 36,
                "velocity": 51,
                "duration": 0.06818181818181657,
                "tempo": 120.0
            },
            {
                "start_time": 28.502272727272725,
                "end_time": 28.670454545454543,
                "pitch": 36,
                "velocity": 51,
                "duration": 0.168181818181818,
                "tempo": 120.0
            },
            {
                "start_time": 28.704545454545453,
                "end_time": 28.868181818181817,
                "pitch": 40,
                "velocity": 51,
                "duration": 0.16363636363636402,
                "tempo": 120.0
            },
            {
                "start_time": 28.9,
                "end_time": 28.93181818181818,
                "pitch": 41,
                "velocity": 51,
                "duration": 0.0318181818181813,
                "tempo": 120.0
            },
            {
                "start_time": 29.2,
                "end_time": 29.268181818181816,
                "pitch": 41,
                "velocity": 51,
                "duration": 0.06818181818181657,
                "tempo": 120.0
            },
            {
                "start_time": 29.302272727272726,
                "end_time": 29.472727272727273,
                "pitch": 41,
                "velocity": 51,
                "duration": 0.17045454545454675,
                "tempo": 120.0
            },
            {
                "start_time": 29.50681818181818,
                "end_time": 29.670454545454543,
                "pitch": 36,
                "velocity": 51,
                "duration": 0.16363636363636402,
                "tempo": 120.0
            },
            {
                "start_time": 29.702272727272724,
                "end_time": 29.73409090909091,
                "pitch": 41,
                "velocity": 51,
                "duration": 0.031818181818184854,
                "tempo": 120.0
            },
            {
                "start_time": 30.002272727272725,
                "end_time": 30.070454545454545,
                "pitch": 41,
                "velocity": 51,
                "duration": 0.06818181818182012,
                "tempo": 120.0
            },
            {
                "start_time": 30.104545454545452,
                "end_time": 30.275,
                "pitch": 41,
                "velocity": 51,
                "duration": 0.17045454545454675,
                "tempo": 120.0
            },
            {
                "start_time": 30.30909090909091,
                "end_time": 30.472727272727273,
                "pitch": 42,
                "velocity": 51,
                "duration": 0.16363636363636402,
                "tempo": 120.0
            },
            {
                "start_time": 30.504545454545454,
                "end_time": 30.53863636363636,
                "pitch": 43,
                "velocity": 51,
                "duration": 0.03409090909090651,
                "tempo": 120.0
            },
            {
                "start_time": 30.804545454545455,
                "end_time": 30.87272727272727,
                "pitch": 43,
                "velocity": 51,
                "duration": 0.06818181818181657,
                "tempo": 120.0
            },
            {
                "start_time": 30.90681818181818,
                "end_time": 31.079545454545453,
                "pitch": 43,
                "velocity": 51,
                "duration": 0.17272727272727195,
                "tempo": 120.0
            },
            {
                "start_time": 31.111363636363635,
                "end_time": 31.275,
                "pitch": 38,
                "velocity": 51,
                "duration": 0.16363636363636402,
                "tempo": 120.0
            },
            {
                "start_time": 31.30681818181818,
                "end_time": 31.34090909090909,
                "pitch": 43,
                "velocity": 51,
                "duration": 0.03409090909091006,
                "tempo": 120.0
            },
            {
                "start_time": 31.60681818181818,
                "end_time": 31.674999999999997,
                "pitch": 43,
                "velocity": 51,
                "duration": 0.06818181818181657,
                "tempo": 120.0
            },
            {
                "start_time": 31.709090909090907,
                "end_time": 31.88181818181818,
                "pitch": 43,
                "velocity": 51,
                "duration": 0.17272727272727195,
                "tempo": 120.0
            },
            {
                "start_time": 31.91590909090909,
                "end_time": 31.98181818181818,
                "pitch": 41,
                "velocity": 51,
                "duration": 0.06590909090909136,
                "tempo": 120.0
            },
            {
                "start_time": 32.01590909090909,
                "end_time": 32.08181818181818,
                "pitch": 40,
                "velocity": 51,
                "duration": 0.06590909090908781,
                "tempo": 120.0
            },
            {
                "start_time": 32.11590909090909,
                "end_time": 32.13181818181818,
                "pitch": 38,
                "velocity": 51,
                "duration": 0.01590909090909065,
                "tempo": 120.0
            },
            {
                "start_time": 32.413636363636364,
                "end_time": 32.47727272727273,
                "pitch": 38,
                "velocity": 51,
                "duration": 0.0636363636363626,
                "tempo": 120.0
            },
            {
                "start_time": 32.51136363636363,
                "end_time": 32.675,
                "pitch": 38,
                "velocity": 51,
                "duration": 0.16363636363636402,
                "tempo": 120.0
            },
            {
                "start_time": 32.70681818181818,
                "end_time": 32.875,
                "pitch": 33,
                "velocity": 51,
                "duration": 0.16818181818182154,
                "tempo": 120.0
            },
            {
                "start_time": 33.20681818181818,
                "end_time": 33.275,
                "pitch": 38,
                "velocity": 51,
                "duration": 0.06818181818182012,
                "tempo": 120.0
            },
            {
                "start_time": 33.30681818181818,
                "end_time": 33.475,
                "pitch": 38,
                "velocity": 51,
                "duration": 0.16818181818182154,
                "tempo": 120.0
            },
            {
                "start_time": 33.50681818181818,
                "end_time": 33.675,
                "pitch": 37,
                "velocity": 51,
                "duration": 0.16818181818181444,
                "tempo": 120.0
            },
            {
                "start_time": 33.70909090909091,
                "end_time": 33.725,
                "pitch": 36,
                "velocity": 51,
                "duration": 0.01590909090909065,
                "tempo": 120.0
            },
            {
                "start_time": 34.00909090909091,
                "end_time": 34.07727272727273,
                "pitch": 36,
                "velocity": 51,
                "duration": 0.06818181818182012,
                "tempo": 120.0
            },
            {
                "start_time": 34.10909090909091,
                "end_time": 34.277272727272724,
                "pitch": 36,
                "velocity": 51,
                "duration": 0.16818181818181444,
                "tempo": 120.0
            },
            {
                "start_time": 34.309090909090905,
                "end_time": 34.47727272727273,
                "pitch": 31,
                "velocity": 51,
                "duration": 0.16818181818182154,
                "tempo": 120.0
            },
            {
                "start_time": 34.50909090909091,
                "end_time": 34.779545454545456,
                "pitch": 36,
                "velocity": 51,
                "duration": 0.27045454545454817,
                "tempo": 120.0
            },
            {
                "start_time": 34.81363636363636,
                "end_time": 34.88181818181818,
                "pitch": 36,
                "velocity": 51,
                "duration": 0.06818181818182012,
                "tempo": 120.0
            },
            {
                "start_time": 34.91590909090909,
                "end_time": 35.086363636363636,
                "pitch": 36,
                "velocity": 51,
                "duration": 0.17045454545454675,
                "tempo": 120.0
            },
            {
                "start_time": 35.12045454545454,
                "end_time": 35.28409090909091,
                "pitch": 40,
                "velocity": 51,
                "duration": 0.16363636363636402,
                "tempo": 120.0
            },
            {
                "start_time": 35.31590909090909,
                "end_time": 35.35,
                "pitch": 41,
                "velocity": 51,
                "duration": 0.03409090909091361,
                "tempo": 120.0
            },
            {
                "start_time": 35.61363636363636,
                "end_time": 35.679545454545455,
                "pitch": 41,
                "velocity": 51,
                "duration": 0.06590909090909491,
                "tempo": 120.0
            },
            {
                "start_time": 35.71363636363636,
                "end_time": 35.88181818181818,
                "pitch": 41,
                "velocity": 51,
                "duration": 0.16818181818182154,
                "tempo": 120.0
            },
            {
                "start_time": 35.91590909090909,
                "end_time": 36.08181818181818,
                "pitch": 36,
                "velocity": 51,
                "duration": 0.16590909090908923,
                "tempo": 120.0
            },
            {
                "start_time": 36.11590909090909,
                "end_time": 36.14772727272727,
                "pitch": 41,
                "velocity": 51,
                "duration": 0.0318181818181813,
                "tempo": 120.0
            },
            {
                "start_time": 36.41590909090909,
                "end_time": 36.48181818181818,
                "pitch": 41,
                "velocity": 51,
                "duration": 0.06590909090908781,
                "tempo": 120.0
            },
            {
                "start_time": 36.51590909090909,
                "end_time": 36.68181818181818,
                "pitch": 41,
                "velocity": 51,
                "duration": 0.16590909090908923,
                "tempo": 120.0
            },
            {
                "start_time": 36.715909090909086,
                "end_time": 36.88181818181818,
                "pitch": 42,
                "velocity": 51,
                "duration": 0.16590909090909634,
                "tempo": 120.0
            },
            {
                "start_time": 36.91590909090909,
                "end_time": 36.965909090909086,
                "pitch": 43,
                "velocity": 51,
                "duration": 0.04999999999999716,
                "tempo": 120.0
            },
            {
                "start_time": 37.215909090909086,
                "end_time": 37.28181818181818,
                "pitch": 43,
                "velocity": 51,
                "duration": 0.06590909090909491,
                "tempo": 120.0
            },
            {
                "start_time": 37.31590909090909,
                "end_time": 37.48181818181818,
                "pitch": 43,
                "velocity": 51,
                "duration": 0.16590909090908923,
                "tempo": 120.0
            },
            {
                "start_time": 37.51590909090909,
                "end_time": 37.68636363636364,
                "pitch": 38,
                "velocity": 51,
                "duration": 0.17045454545454675,
                "tempo": 120.0
            },
            {
                "start_time": 37.720454545454544,
                "end_time": 38.127272727272725,
                "pitch": 43,
                "velocity": 51,
                "duration": 0.4068181818181813,
                "tempo": 120.0
            },
            {
                "start_time": 38.527272727272724,
                "end_time": 38.69318181818181,
                "pitch": 36,
                "velocity": 51,
                "duration": 0.16590909090908923,
                "tempo": 120.0
            },
            {
                "start_time": 38.725,
                "end_time": 38.88863636363636,
                "pitch": 36,
                "velocity": 51,
                "duration": 0.16363636363635692,
                "tempo": 120.0
            },
            {
                "start_time": 38.92272727272727,
                "end_time": 39.086363636363636,
                "pitch": 36,
                "velocity": 51,
                "duration": 0.16363636363636402,
                "tempo": 120.0
            },
            {
                "start_time": 39.11818181818182,
                "end_time": 39.28409090909091,
                "pitch": 31,
                "velocity": 51,
                "duration": 0.16590909090908923,
                "tempo": 120.0
            },
            {
                "start_time": 39.31818181818181,
                "end_time": 39.48409090909091,
                "pitch": 36,
                "velocity": 51,
                "duration": 0.16590909090909634,
                "tempo": 120.0
            },
            {
                "start_time": 39.518181818181816,
                "end_time": 39.68636363636364,
                "pitch": 35,
                "velocity": 51,
                "duration": 0.16818181818182154,
                "tempo": 120.0
            },
            {
                "start_time": 39.720454545454544,
                "end_time": 39.88863636363636,
                "pitch": 36,
                "velocity": 51,
                "duration": 0.16818181818181444,
                "tempo": 120.0
            },
            {
                "start_time": 39.92045454545455,
                "end_time": 40.08863636363636,
                "pitch": 37,
                "velocity": 51,
                "duration": 0.16818181818181444,
                "tempo": 120.0
            },
            {
                "start_time": 40.12045454545454,
                "end_time": 40.288636363636364,
                "pitch": 38,
                "velocity": 51,
                "duration": 0.16818181818182154,
                "tempo": 120.0
            },
            {
                "start_time": 40.320454545454545,
                "end_time": 40.48863636363636,
                "pitch": 38,
                "velocity": 51,
                "duration": 0.16818181818181444,
                "tempo": 120.0
            },
            {
                "start_time": 40.52045454545454,
                "end_time": 40.68863636363636,
                "pitch": 38,
                "velocity": 51,
                "duration": 0.16818181818182154,
                "tempo": 120.0
            },
            {
                "start_time": 40.720454545454544,
                "end_time": 40.88863636363636,
                "pitch": 33,
                "velocity": 51,
                "duration": 0.16818181818181444,
                "tempo": 120.0
            },
            {
                "start_time": 40.92045454545455,
                "end_time": 41.08863636363636,
                "pitch": 38,
                "velocity": 51,
                "duration": 0.16818181818181444,
                "tempo": 120.0
            },
            {
                "start_time": 41.12045454545454,
                "end_time": 41.288636363636364,
                "pitch": 41,
                "velocity": 51,
                "duration": 0.16818181818182154,
                "tempo": 120.0
            },
            {
                "start_time": 41.320454545454545,
                "end_time": 41.48863636363636,
                "pitch": 40,
                "velocity": 51,
                "duration": 0.16818181818181444,
                "tempo": 120.0
            },
            {
                "start_time": 41.52045454545454,
                "end_time": 41.68863636363636,
                "pitch": 38,
                "velocity": 51,
                "duration": 0.16818181818182154,
                "tempo": 120.0
            },
            {
                "start_time": 41.72272727272727,
                "end_time": 41.89090909090909,
                "pitch": 41,
                "velocity": 51,
                "duration": 0.16818181818182154,
                "tempo": 120.0
            },
            {
                "start_time": 41.925,
                "end_time": 42.090909090909086,
                "pitch": 41,
                "velocity": 51,
                "duration": 0.16590909090908923,
                "tempo": 120.0
            },
            {
                "start_time": 42.125,
                "end_time": 42.29090909090909,
                "pitch": 41,
                "velocity": 51,
                "duration": 0.16590909090908923,
                "tempo": 120.0
            },
            {
                "start_time": 42.324999999999996,
                "end_time": 42.49545454545454,
                "pitch": 36,
                "velocity": 51,
                "duration": 0.17045454545454675,
                "tempo": 120.0
            },
            {
                "start_time": 42.52954545454545,
                "end_time": 42.699999999999996,
                "pitch": 43,
                "velocity": 51,
                "duration": 0.17045454545454675,
                "tempo": 120.0
            },
            {
                "start_time": 42.73409090909091,
                "end_time": 42.89772727272727,
                "pitch": 43,
                "velocity": 51,
                "duration": 0.16363636363636402,
                "tempo": 120.0
            },
            {
                "start_time": 42.929545454545455,
                "end_time": 43.09318181818182,
                "pitch": 40,
                "velocity": 51,
                "duration": 0.16363636363636402,
                "tempo": 120.0
            },
            {
                "start_time": 43.127272727272725,
                "end_time": 43.293181818181814,
                "pitch": 40,
                "velocity": 51,
                "duration": 0.16590909090908923,
                "tempo": 120.0
            },
            {
                "start_time": 43.32727272727273,
                "end_time": 43.595454545454544,
                "pitch": 36,
                "velocity": 51,
                "duration": 0.26818181818181586,
                "tempo": 120.0
            },
            {
                "start_time": 43.62954545454545,
                "end_time": 43.69772727272727,
                "pitch": 36,
                "velocity": 51,
                "duration": 0.06818181818182012,
                "tempo": 120.0
            },
            {
                "start_time": 43.73181818181818,
                "end_time": 43.90454545454545,
                "pitch": 36,
                "velocity": 51,
                "duration": 0.17272727272727195,
                "tempo": 120.0
            },
            {
                "start_time": 43.93863636363636,
                "end_time": 44.10454545454545,
                "pitch": 31,
                "velocity": 51,
                "duration": 0.16590909090908923,
                "tempo": 120.0
            },
            {
                "start_time": 44.13863636363636,
                "end_time": 44.45227272727273,
                "pitch": 36,
                "velocity": 51,
                "duration": 0.3136363636363697,
                "tempo": 120.0
            }
        ],
        "Vibraphone": [
            {
                "start_time": 0.6159090909090909,
                "end_time": 0.7840909090909091,
                "pitch": 79,
                "velocity": 51,
                "duration": 0.1681818181818182,
                "tempo": 120.0
            },
            {
                "start_time": 0.8159090909090909,
                "end_time": 1.184090909090909,
                "pitch": 79,
                "velocity": 51,
                "duration": 0.36818181818181817,
                "tempo": 120.0
            },
            {
                "start_time": 1.2159090909090908,
                "end_time": 1.584090909090909,
                "pitch": 76,
                "velocity": 51,
                "duration": 0.36818181818181817,
                "tempo": 120.0
            },
            {
                "start_time": 1.6159090909090907,
                "end_time": 2.186363636363636,
                "pitch": 77,
                "velocity": 51,
                "duration": 0.5704545454545453,
                "tempo": 120.0
            },
            {
                "start_time": 2.2204545454545452,
                "end_time": 2.3909090909090907,
                "pitch": 74,
                "velocity": 51,
                "duration": 0.17045454545454541,
                "tempo": 120.0
            },
            {
                "start_time": 2.425,
                "end_time": 2.793181818181818,
                "pitch": 74,
                "velocity": 51,
                "duration": 0.36818181818181817,
                "tempo": 120.0
            },
            {
                "start_time": 3.2227272727272727,
                "end_time": 3.7886363636363636,
                "pitch": 84,
                "velocity": 51,
                "duration": 0.5659090909090909,
                "tempo": 120.0
            },
            {
                "start_time": 3.8227272727272728,
                "end_time": 3.9886363636363633,
                "pitch": 84,
                "velocity": 51,
                "duration": 0.16590909090909056,
                "tempo": 120.0
            },
            {
                "start_time": 4.0227272727272725,
                "end_time": 4.388636363636364,
                "pitch": 84,
                "velocity": 51,
                "duration": 0.3659090909090912,
                "tempo": 120.0
            },
            {
                "start_time": 4.422727272727273,
                "end_time": 4.790909090909091,
                "pitch": 81,
                "velocity": 51,
                "duration": 0.36818181818181817,
                "tempo": 120.0
            },
            {
                "start_time": 4.822727272727272,
                "end_time": 5.3954545454545455,
                "pitch": 83,
                "velocity": 51,
                "duration": 0.5727272727272732,
                "tempo": 120.0
            },
            {
                "start_time": 5.429545454545455,
                "end_time": 5.6,
                "pitch": 79,
                "velocity": 51,
                "duration": 0.17045454545454497,
                "tempo": 120.0
            },
            {
                "start_time": 5.634090909090909,
                "end_time": 6.163636363636363,
                "pitch": 79,
                "velocity": 51,
                "duration": 0.5295454545454543,
                "tempo": 120.0
            },
            {
                "start_time": 6.436363636363636,
                "end_time": 7.0,
                "pitch": 79,
                "velocity": 51,
                "duration": 0.5636363636363644,
                "tempo": 120.0
            },
            {
                "start_time": 7.034090909090909,
                "end_time": 7.202272727272727,
                "pitch": 79,
                "velocity": 51,
                "duration": 0.168181818181818,
                "tempo": 120.0
            },
            {
                "start_time": 7.2340909090909085,
                "end_time": 7.602272727272727,
                "pitch": 79,
                "velocity": 51,
                "duration": 0.36818181818181817,
                "tempo": 120.0
            },
            {
                "start_time": 7.636363636363636,
                "end_time": 8.004545454545454,
                "pitch": 76,
                "velocity": 51,
                "duration": 0.36818181818181817,
                "tempo": 120.0
            },
            {
                "start_time": 8.036363636363635,
                "end_time": 8.604545454545454,
                "pitch": 76,
                "velocity": 51,
                "duration": 0.5681818181818183,
                "tempo": 120.0
            },
            {
                "start_time": 8.638636363636364,
                "end_time": 8.806818181818182,
                "pitch": 72,
                "velocity": 51,
                "duration": 0.168181818181818,
                "tempo": 120.0
            },
            {
                "start_time": 8.84090909090909,
                "end_time": 9.209090909090909,
                "pitch": 72,
                "velocity": 51,
                "duration": 0.36818181818181905,
                "tempo": 120.0
            },
            {
                "start_time": 9.645454545454545,
                "end_time": 9.963636363636363,
                "pitch": 84,
                "velocity": 51,
                "duration": 0.31818181818181834,
                "tempo": 120.0
            },
            {
                "start_time": 10.247727272727273,
                "end_time": 10.418181818181818,
                "pitch": 84,
                "velocity": 51,
                "duration": 0.17045454545454497,
                "tempo": 120.0
            },
            {
                "start_time": 10.452272727272726,
                "end_time": 10.820454545454545,
                "pitch": 86,
                "velocity": 51,
                "duration": 0.36818181818181905,
                "tempo": 120.0
            },
            {
                "start_time": 10.852272727272727,
                "end_time": 11.218181818181817,
                "pitch": 84,
                "velocity": 51,
                "duration": 0.3659090909090903,
                "tempo": 120.0
            },
            {
                "start_time": 11.25,
                "end_time": 12.220454545454546,
                "pitch": 81,
                "velocity": 51,
                "duration": 0.9704545454545457,
                "tempo": 120.0
            },
            {
                "start_time": 12.254545454545454,
                "end_time": 12.881818181818181,
                "pitch": 69,
                "velocity": 51,
                "duration": 0.627272727272727,
                "tempo": 120.0
            },
            {
                "start_time": 12.881818181818181,
                "end_time": 13.427272727272726,
                "pitch": 79,
                "velocity": 51,
                "duration": 0.545454545454545,
                "tempo": 120.0
            },
            {
                "start_time": 13.461363636363636,
                "end_time": 13.629545454545454,
                "pitch": 79,
                "velocity": 51,
                "duration": 0.168181818181818,
                "tempo": 120.0
            },
            {
                "start_time": 13.661363636363635,
                "end_time": 14.029545454545454,
                "pitch": 79,
                "velocity": 51,
                "duration": 0.36818181818181905,
                "tempo": 120.0
            },
            {
                "start_time": 14.063636363636363,
                "end_time": 14.431818181818182,
                "pitch": 76,
                "velocity": 51,
                "duration": 0.36818181818181905,
                "tempo": 120.0
            },
            {
                "start_time": 14.463636363636363,
                "end_time": 15.034090909090908,
                "pitch": 77,
                "velocity": 51,
                "duration": 0.5704545454545453,
                "tempo": 120.0
            },
            {
                "start_time": 15.068181818181817,
                "end_time": 15.236363636363636,
                "pitch": 74,
                "velocity": 51,
                "duration": 0.16818181818181976,
                "tempo": 120.0
            },
            {
                "start_time": 15.270454545454545,
                "end_time": 15.638636363636364,
                "pitch": 74,
                "velocity": 51,
                "duration": 0.36818181818181905,
                "tempo": 120.0
            },
            {
                "start_time": 16.07272727272727,
                "end_time": 16.643181818181816,
                "pitch": 84,
                "velocity": 51,
                "duration": 0.5704545454545453,
                "tempo": 120.0
            },
            {
                "start_time": 16.677272727272726,
                "end_time": 16.847727272727273,
                "pitch": 84,
                "velocity": 51,
                "duration": 0.17045454545454675,
                "tempo": 120.0
            },
            {
                "start_time": 16.881818181818183,
                "end_time": 17.25,
                "pitch": 84,
                "velocity": 51,
                "duration": 0.3681818181818173,
                "tempo": 120.0
            },
            {
                "start_time": 17.28181818181818,
                "end_time": 17.645454545454545,
                "pitch": 81,
                "velocity": 51,
                "duration": 0.3636363636363633,
                "tempo": 120.0
            },
            {
                "start_time": 17.679545454545455,
                "end_time": 18.24772727272727,
                "pitch": 83,
                "velocity": 51,
                "duration": 0.5681818181818166,
                "tempo": 120.0
            },
            {
                "start_time": 18.28181818181818,
                "end_time": 18.44772727272727,
                "pitch": 79,
                "velocity": 51,
                "duration": 0.16590909090908923,
                "tempo": 120.0
            },
            {
                "start_time": 18.48181818181818,
                "end_time": 19.01590909090909,
                "pitch": 79,
                "velocity": 51,
                "duration": 0.5340909090909101,
                "tempo": 120.0
            },
            {
                "start_time": 19.288636363636364,
                "end_time": 19.852272727272727,
                "pitch": 79,
                "velocity": 51,
                "duration": 0.5636363636363626,
                "tempo": 120.0
            },
            {
                "start_time": 19.884090909090908,
                "end_time": 20.052272727272726,
                "pitch": 79,
                "velocity": 51,
                "duration": 0.168181818181818,
                "tempo": 120.0
            },
            {
                "start_time": 20.086363636363636,
                "end_time": 20.454545454545453,
                "pitch": 79,
                "velocity": 51,
                "duration": 0.3681818181818173,
                "tempo": 120.0
            },
            {
                "start_time": 20.488636363636363,
                "end_time": 20.854545454545452,
                "pitch": 76,
                "velocity": 51,
                "duration": 0.3659090909090885,
                "tempo": 120.0
            },
            {
                "start_time": 20.888636363636362,
                "end_time": 21.456818181818182,
                "pitch": 76,
                "velocity": 51,
                "duration": 0.5681818181818201,
                "tempo": 120.0
            },
            {
                "start_time": 21.49090909090909,
                "end_time": 21.65681818181818,
                "pitch": 72,
                "velocity": 51,
                "duration": 0.16590909090909278,
                "tempo": 120.0
            },
            {
                "start_time": 21.69090909090909,
                "end_time": 22.05909090909091,
                "pitch": 72,
                "velocity": 51,
                "duration": 0.3681818181818173,
                "tempo": 120.0
            },
            {
                "start_time": 22.493181818181817,
                "end_time": 22.80909090909091,
                "pitch": 84,
                "velocity": 51,
                "duration": 0.31590909090909136,
                "tempo": 120.0
            },
            {
                "start_time": 23.09318181818182,
                "end_time": 23.261363636363637,
                "pitch": 84,
                "velocity": 51,
                "duration": 0.168181818181818,
                "tempo": 120.0
            },
            {
                "start_time": 23.295454545454543,
                "end_time": 23.661363636363635,
                "pitch": 86,
                "velocity": 51,
                "duration": 0.36590909090909207,
                "tempo": 120.0
            },
            {
                "start_time": 23.695454545454545,
                "end_time": 24.063636363636363,
                "pitch": 84,
                "velocity": 51,
                "duration": 0.3681818181818173,
                "tempo": 120.0
            },
            {
                "start_time": 24.097727272727273,
                "end_time": 24.66590909090909,
                "pitch": 79,
                "velocity": 51,
                "duration": 0.5681818181818166,
                "tempo": 120.0
            },
            {
                "start_time": 24.69772727272727,
                "end_time": 25.720454545454544,
                "pitch": 69,
                "velocity": 51,
                "duration": 1.0227272727272734,
                "tempo": 120.0
            },
            {
                "start_time": 25.720454545454544,
                "end_time": 25.77272727272727,
                "pitch": 81,
                "velocity": 51,
                "duration": 0.052272727272725916,
                "tempo": 120.0
            },
            {
                "start_time": 25.80909090909091,
                "end_time": 25.879545454545454,
                "pitch": 77,
                "velocity": 51,
                "duration": 0.07045454545454533,
                "tempo": 120.0
            },
            {
                "start_time": 25.913636363636364,
                "end_time": 26.079545454545453,
                "pitch": 74,
                "velocity": 51,
                "duration": 0.16590909090908923,
                "tempo": 120.0
            },
            {
                "start_time": 26.113636363636363,
                "end_time": 26.279545454545453,
                "pitch": 81,
                "velocity": 51,
                "duration": 0.16590909090908923,
                "tempo": 120.0
            },
            {
                "start_time": 26.311363636363634,
                "end_time": 26.474999999999998,
                "pitch": 77,
                "velocity": 51,
                "duration": 0.16363636363636402,
                "tempo": 120.0
            },
            {
                "start_time": 26.509090909090908,
                "end_time": 26.57272727272727,
                "pitch": 81,
                "velocity": 51,
                "duration": 0.0636363636363626,
                "tempo": 120.0
            },
            {
                "start_time": 26.60681818181818,
                "end_time": 26.670454545454543,
                "pitch": 77,
                "velocity": 51,
                "duration": 0.0636363636363626,
                "tempo": 120.0
            },
            {
                "start_time": 26.704545454545453,
                "end_time": 26.877272727272725,
                "pitch": 74,
                "velocity": 51,
                "duration": 0.17272727272727195,
                "tempo": 120.0
            },
            {
                "start_time": 26.911363636363635,
                "end_time": 27.081818181818182,
                "pitch": 81,
                "velocity": 51,
                "duration": 0.17045454545454675,
                "tempo": 120.0
            },
            {
                "start_time": 27.113636363636363,
                "end_time": 27.277272727272727,
                "pitch": 77,
                "velocity": 51,
                "duration": 0.16363636363636402,
                "tempo": 120.0
            },
            {
                "start_time": 27.311363636363634,
                "end_time": 27.375,
                "pitch": 79,
                "velocity": 51,
                "duration": 0.06363636363636616,
                "tempo": 120.0
            },
            {
                "start_time": 27.409090909090907,
                "end_time": 27.474999999999998,
                "pitch": 76,
                "velocity": 51,
                "duration": 0.06590909090909136,
                "tempo": 120.0
            },
            {
                "start_time": 27.509090909090908,
                "end_time": 27.679545454545455,
                "pitch": 72,
                "velocity": 51,
                "duration": 0.17045454545454675,
                "tempo": 120.0
            },
            {
                "start_time": 27.71363636363636,
                "end_time": 27.884090909090908,
                "pitch": 79,
                "velocity": 51,
                "duration": 0.17045454545454675,
                "tempo": 120.0
            },
            {
                "start_time": 27.918181818181818,
                "end_time": 28.084090909090907,
                "pitch": 76,
                "velocity": 51,
                "duration": 0.16590909090908923,
                "tempo": 120.0
            },
            {
                "start_time": 28.118181818181817,
                "end_time": 28.18409090909091,
                "pitch": 79,
                "velocity": 51,
                "duration": 0.06590909090909136,
                "tempo": 120.0
            },
            {
                "start_time": 28.218181818181815,
                "end_time": 28.284090909090907,
                "pitch": 76,
                "velocity": 51,
                "duration": 0.06590909090909136,
                "tempo": 120.0
            },
            {
                "start_time": 28.318181818181817,
                "end_time": 28.486363636363635,
                "pitch": 72,
                "velocity": 51,
                "duration": 0.168181818181818,
                "tempo": 120.0
            },
            {
                "start_time": 28.520454545454545,
                "end_time": 28.686363636363634,
                "pitch": 76,
                "velocity": 51,
                "duration": 0.16590909090908923,
                "tempo": 120.0
            },
            {
                "start_time": 28.720454545454544,
                "end_time": 28.884090909090908,
                "pitch": 79,
                "velocity": 51,
                "duration": 0.16363636363636402,
                "tempo": 120.0
            },
            {
                "start_time": 28.91590909090909,
                "end_time": 28.98181818181818,
                "pitch": 84,
                "velocity": 51,
                "duration": 0.06590909090909136,
                "tempo": 120.0
            },
            {
                "start_time": 29.013636363636362,
                "end_time": 29.079545454545453,
                "pitch": 81,
                "velocity": 51,
                "duration": 0.06590909090909136,
                "tempo": 120.0
            },
            {
                "start_time": 29.113636363636363,
                "end_time": 29.284090909090907,
                "pitch": 77,
                "velocity": 51,
                "duration": 0.1704545454545432,
                "tempo": 120.0
            },
            {
                "start_time": 29.318181818181817,
                "end_time": 29.49090909090909,
                "pitch": 84,
                "velocity": 51,
                "duration": 0.17272727272727195,
                "tempo": 120.0
            },
            {
                "start_time": 29.52272727272727,
                "end_time": 29.686363636363634,
                "pitch": 81,
                "velocity": 51,
                "duration": 0.16363636363636402,
                "tempo": 120.0
            },
            {
                "start_time": 29.718181818181815,
                "end_time": 29.784090909090907,
                "pitch": 84,
                "velocity": 51,
                "duration": 0.06590909090909136,
                "tempo": 120.0
            },
            {
                "start_time": 29.815909090909088,
                "end_time": 29.88181818181818,
                "pitch": 81,
                "velocity": 51,
                "duration": 0.06590909090909136,
                "tempo": 120.0
            },
            {
                "start_time": 29.91590909090909,
                "end_time": 30.086363636363636,
                "pitch": 77,
                "velocity": 51,
                "duration": 0.17045454545454675,
                "tempo": 120.0
            },
            {
                "start_time": 30.12272727272727,
                "end_time": 30.293181818181818,
                "pitch": 81,
                "velocity": 51,
                "duration": 0.17045454545454675,
                "tempo": 120.0
            },
            {
                "start_time": 30.325,
                "end_time": 30.488636363636363,
                "pitch": 84,
                "velocity": 51,
                "duration": 0.16363636363636402,
                "tempo": 120.0
            },
            {
                "start_time": 30.520454545454545,
                "end_time": 30.68409090909091,
                "pitch": 86,
                "velocity": 51,
                "duration": 0.16363636363636402,
                "tempo": 120.0
            },
            {
                "start_time": 30.718181818181815,
                "end_time": 30.89090909090909,
                "pitch": 83,
                "velocity": 51,
                "duration": 0.1727272727272755,
                "tempo": 120.0
            },
            {
                "start_time": 30.924999999999997,
                "end_time": 31.095454545454544,
                "pitch": 79,
                "velocity": 51,
                "duration": 0.17045454545454675,
                "tempo": 120.0
            },
            {
                "start_time": 31.127272727272725,
                "end_time": 31.29090909090909,
                "pitch": 83,
                "velocity": 51,
                "duration": 0.16363636363636402,
                "tempo": 120.0
            },
            {
                "start_time": 31.325,
                "end_time": 31.488636363636363,
                "pitch": 89,
                "velocity": 51,
                "duration": 0.16363636363636402,
                "tempo": 120.0
            },
            {
                "start_time": 31.520454545454545,
                "end_time": 31.693181818181817,
                "pitch": 88,
                "velocity": 51,
                "duration": 0.17272727272727195,
                "tempo": 120.0
            },
            {
                "start_time": 31.727272727272727,
                "end_time": 31.89772727272727,
                "pitch": 86,
                "velocity": 51,
                "duration": 0.1704545454545432,
                "tempo": 120.0
            },
            {
                "start_time": 31.93181818181818,
                "end_time": 32.09772727272727,
                "pitch": 83,
                "velocity": 51,
                "duration": 0.16590909090908923,
                "tempo": 120.0
            },
            {
                "start_time": 32.13181818181818,
                "end_time": 32.19772727272727,
                "pitch": 81,
                "velocity": 51,
                "duration": 0.06590909090908781,
                "tempo": 120.0
            },
            {
                "start_time": 32.23181818181818,
                "end_time": 32.29772727272727,
                "pitch": 77,
                "velocity": 51,
                "duration": 0.06590909090909491,
                "tempo": 120.0
            },
            {
                "start_time": 32.33181818181818,
                "end_time": 32.49545454545454,
                "pitch": 74,
                "velocity": 51,
                "duration": 0.16363636363636402,
                "tempo": 120.0
            },
            {
                "start_time": 32.527272727272724,
                "end_time": 32.69090909090909,
                "pitch": 81,
                "velocity": 51,
                "duration": 0.16363636363636402,
                "tempo": 120.0
            },
            {
                "start_time": 32.725,
                "end_time": 32.89090909090909,
                "pitch": 77,
                "velocity": 51,
                "duration": 0.16590909090908923,
                "tempo": 120.0
            },
            {
                "start_time": 32.925,
                "end_time": 32.99090909090909,
                "pitch": 81,
                "velocity": 51,
                "duration": 0.06590909090909491,
                "tempo": 120.0
            },
            {
                "start_time": 33.025,
                "end_time": 33.090909090909086,
                "pitch": 77,
                "velocity": 51,
                "duration": 0.06590909090908781,
                "tempo": 120.0
            },
            {
                "start_time": 33.125,
                "end_time": 33.29090909090909,
                "pitch": 74,
                "velocity": 51,
                "duration": 0.16590909090908923,
                "tempo": 120.0
            },
            {
                "start_time": 33.324999999999996,
                "end_time": 33.49090909090909,
                "pitch": 81,
                "velocity": 51,
                "duration": 0.16590909090909634,
                "tempo": 120.0
            },
            {
                "start_time": 33.525,
                "end_time": 33.69090909090909,
                "pitch": 77,
                "velocity": 51,
                "duration": 0.16590909090908923,
                "tempo": 120.0
            },
            {
                "start_time": 33.725,
                "end_time": 33.793181818181814,
                "pitch": 79,
                "velocity": 51,
                "duration": 0.06818181818181301,
                "tempo": 120.0
            },
            {
                "start_time": 33.82727272727273,
                "end_time": 33.893181818181816,
                "pitch": 76,
                "velocity": 51,
                "duration": 0.06590909090908781,
                "tempo": 120.0
            },
            {
                "start_time": 33.92727272727272,
                "end_time": 34.09318181818182,
                "pitch": 72,
                "velocity": 51,
                "duration": 0.16590909090909634,
                "tempo": 120.0
            },
            {
                "start_time": 34.127272727272725,
                "end_time": 34.293181818181814,
                "pitch": 79,
                "velocity": 51,
                "duration": 0.16590909090908923,
                "tempo": 120.0
            },
            {
                "start_time": 34.32727272727273,
                "end_time": 34.49318181818182,
                "pitch": 76,
                "velocity": 51,
                "duration": 0.16590909090908923,
                "tempo": 120.0
            },
            {
                "start_time": 34.527272727272724,
                "end_time": 34.59318181818182,
                "pitch": 79,
                "velocity": 51,
                "duration": 0.06590909090909491,
                "tempo": 120.0
            },
            {
                "start_time": 34.627272727272725,
                "end_time": 34.69318181818181,
                "pitch": 76,
                "velocity": 51,
                "duration": 0.06590909090908781,
                "tempo": 120.0
            },
            {
                "start_time": 34.72727272727273,
                "end_time": 34.89772727272727,
                "pitch": 72,
                "velocity": 51,
                "duration": 0.17045454545454675,
                "tempo": 120.0
            },
            {
                "start_time": 34.93181818181818,
                "end_time": 35.10454545454545,
                "pitch": 76,
                "velocity": 51,
                "duration": 0.17272727272727195,
                "tempo": 120.0
            },
            {
                "start_time": 35.13636363636363,
                "end_time": 35.3,
                "pitch": 79,
                "velocity": 51,
                "duration": 0.16363636363636402,
                "tempo": 120.0
            },
            {
                "start_time": 35.33181818181818,
                "end_time": 35.39772727272727,
                "pitch": 84,
                "velocity": 51,
                "duration": 0.06590909090909491,
                "tempo": 120.0
            },
            {
                "start_time": 35.429545454545455,
                "end_time": 35.49545454545454,
                "pitch": 81,
                "velocity": 51,
                "duration": 0.06590909090908781,
                "tempo": 120.0
            },
            {
                "start_time": 35.529545454545456,
                "end_time": 35.69772727272727,
                "pitch": 77,
                "velocity": 51,
                "duration": 0.16818181818181444,
                "tempo": 120.0
            },
            {
                "start_time": 35.73181818181818,
                "end_time": 35.89772727272727,
                "pitch": 81,
                "velocity": 51,
                "duration": 0.16590909090909634,
                "tempo": 120.0
            },
            {
                "start_time": 35.93181818181818,
                "end_time": 36.09772727272727,
                "pitch": 84,
                "velocity": 51,
                "duration": 0.16590909090908923,
                "tempo": 120.0
            },
            {
                "start_time": 36.13181818181818,
                "end_time": 36.19772727272727,
                "pitch": 84,
                "velocity": 51,
                "duration": 0.06590909090908781,
                "tempo": 120.0
            },
            {
                "start_time": 36.23181818181818,
                "end_time": 36.29772727272727,
                "pitch": 81,
                "velocity": 51,
                "duration": 0.06590909090909491,
                "tempo": 120.0
            },
            {
                "start_time": 36.33181818181818,
                "end_time": 36.49772727272727,
                "pitch": 77,
                "velocity": 51,
                "duration": 0.16590909090908923,
                "tempo": 120.0
            },
            {
                "start_time": 36.53181818181818,
                "end_time": 36.69772727272727,
                "pitch": 84,
                "velocity": 51,
                "duration": 0.16590909090908923,
                "tempo": 120.0
            },
            {
                "start_time": 36.73181818181818,
                "end_time": 36.89772727272727,
                "pitch": 81,
                "velocity": 51,
                "duration": 0.16590909090909634,
                "tempo": 120.0
            },
            {
                "start_time": 36.93181818181818,
                "end_time": 37.09772727272727,
                "pitch": 88,
                "velocity": 51,
                "duration": 0.16590909090908923,
                "tempo": 120.0
            },
            {
                "start_time": 37.13181818181818,
                "end_time": 37.29772727272727,
                "pitch": 86,
                "velocity": 51,
                "duration": 0.16590909090908923,
                "tempo": 120.0
            },
            {
                "start_time": 37.33181818181818,
                "end_time": 37.49772727272727,
                "pitch": 84,
                "velocity": 51,
                "duration": 0.16590909090908923,
                "tempo": 120.0
            },
            {
                "start_time": 37.53181818181818,
                "end_time": 38.559090909090905,
                "pitch": 69,
                "velocity": 51,
                "duration": 1.0272727272727238,
                "tempo": 120.0
            },
            {
                "start_time": 38.559090909090905,
                "end_time": 39.10227272727273,
                "pitch": 79,
                "velocity": 51,
                "duration": 0.5431818181818215,
                "tempo": 120.0
            },
            {
                "start_time": 39.13409090909091,
                "end_time": 39.30227272727272,
                "pitch": 79,
                "velocity": 51,
                "duration": 0.16818181818181444,
                "tempo": 120.0
            },
            {
                "start_time": 39.334090909090904,
                "end_time": 39.70227272727273,
                "pitch": 76,
                "velocity": 51,
                "duration": 0.3681818181818244,
                "tempo": 120.0
            },
            {
                "start_time": 39.736363636363635,
                "end_time": 40.10454545454545,
                "pitch": 72,
                "velocity": 51,
                "duration": 0.3681818181818173,
                "tempo": 120.0
            },
            {
                "start_time": 40.13863636363636,
                "end_time": 40.70454545454545,
                "pitch": 76,
                "velocity": 51,
                "duration": 0.5659090909090949,
                "tempo": 120.0
            },
            {
                "start_time": 40.73863636363636,
                "end_time": 40.904545454545456,
                "pitch": 72,
                "velocity": 51,
                "duration": 0.16590909090909634,
                "tempo": 120.0
            },
            {
                "start_time": 40.93863636363636,
                "end_time": 41.220454545454544,
                "pitch": 72,
                "velocity": 51,
                "duration": 0.2818181818181813,
                "tempo": 120.0
            },
            {
                "start_time": 41.68863636363636,
                "end_time": 42.25681818181818,
                "pitch": 84,
                "velocity": 51,
                "duration": 0.5681818181818201,
                "tempo": 120.0
            },
            {
                "start_time": 42.29090909090909,
                "end_time": 42.51363636363636,
                "pitch": 84,
                "velocity": 51,
                "duration": 0.2227272727272691,
                "tempo": 120.0
            },
            {
                "start_time": 42.54772727272727,
                "end_time": 42.913636363636364,
                "pitch": 81,
                "velocity": 51,
                "duration": 0.36590909090909207,
                "tempo": 120.0
            },
            {
                "start_time": 42.94772727272727,
                "end_time": 43.309090909090905,
                "pitch": 83,
                "velocity": 51,
                "duration": 0.36136363636363455,
                "tempo": 120.0
            },
            {
                "start_time": 43.34318181818182,
                "end_time": 43.715909090909086,
                "pitch": 79,
                "velocity": 51,
                "duration": 0.3727272727272677,
                "tempo": 120.0
            }
        ],
        "Acoustic Guitar (nylon)": [
            {
                "start_time": 12.863636363636363,
                "end_time": 24.71590909090909,
                "pitch": 79,
                "velocity": 51,
                "duration": 11.852272727272727,
                "tempo": 120.0
            },
            {
                "start_time": 24.71590909090909,
                "end_time": 24.73181818181818,
                "pitch": 67,
                "velocity": 51,
                "duration": 0.01590909090909065,
                "tempo": 120.0
            },
            {
                "start_time": 24.73181818181818,
                "end_time": 24.78181818181818,
                "pitch": 66,
                "velocity": 51,
                "duration": 0.05000000000000071,
                "tempo": 120.0
            },
            {
                "start_time": 24.78181818181818,
                "end_time": 24.797727272727272,
                "pitch": 63,
                "velocity": 51,
                "duration": 0.01590909090909065,
                "tempo": 120.0
            },
            {
                "start_time": 24.797727272727272,
                "end_time": 24.831818181818182,
                "pitch": 69,
                "velocity": 51,
                "duration": 0.03409090909091006,
                "tempo": 120.0
            },
            {
                "start_time": 24.831818181818182,
                "end_time": 24.86590909090909,
                "pitch": 66,
                "velocity": 51,
                "duration": 0.03409090909090651,
                "tempo": 120.0
            },
            {
                "start_time": 24.86590909090909,
                "end_time": 24.89772727272727,
                "pitch": 63,
                "velocity": 51,
                "duration": 0.0318181818181813,
                "tempo": 120.0
            },
            {
                "start_time": 24.89772727272727,
                "end_time": 24.96590909090909,
                "pitch": 66,
                "velocity": 51,
                "duration": 0.06818181818182012,
                "tempo": 120.0
            },
            {
                "start_time": 24.96590909090909,
                "end_time": 25.01590909090909,
                "pitch": 64,
                "velocity": 51,
                "duration": 0.05000000000000071,
                "tempo": 120.0
            },
            {
                "start_time": 25.01590909090909,
                "end_time": 25.081818181818182,
                "pitch": 61,
                "velocity": 51,
                "duration": 0.06590909090909136,
                "tempo": 120.0
            },
            {
                "start_time": 25.081818181818182,
                "end_time": 25.097727272727273,
                "pitch": 58,
                "velocity": 51,
                "duration": 0.01590909090909065,
                "tempo": 120.0
            },
            {
                "start_time": 25.097727272727273,
                "end_time": 25.163636363636364,
                "pitch": 66,
                "velocity": 51,
                "duration": 0.06590909090909136,
                "tempo": 120.0
            },
            {
                "start_time": 25.163636363636364,
                "end_time": 25.211363636363636,
                "pitch": 64,
                "velocity": 51,
                "duration": 0.04772727272727195,
                "tempo": 120.0
            },
            {
                "start_time": 25.211363636363636,
                "end_time": 25.261363636363637,
                "pitch": 61,
                "velocity": 51,
                "duration": 0.05000000000000071,
                "tempo": 120.0
            },
            {
                "start_time": 25.261363636363637,
                "end_time": 25.277272727272727,
                "pitch": 58,
                "velocity": 51,
                "duration": 0.01590909090909065,
                "tempo": 120.0
            },
            {
                "start_time": 25.277272727272727,
                "end_time": 25.35909090909091,
                "pitch": 64,
                "velocity": 51,
                "duration": 0.08181818181818201,
                "tempo": 120.0
            },
            {
                "start_time": 25.35909090909091,
                "end_time": 25.424999999999997,
                "pitch": 62,
                "velocity": 51,
                "duration": 0.06590909090908781,
                "tempo": 120.0
            },
            {
                "start_time": 25.424999999999997,
                "end_time": 25.49090909090909,
                "pitch": 60,
                "velocity": 51,
                "duration": 0.06590909090909136,
                "tempo": 120.0
            },
            {
                "start_time": 25.49090909090909,
                "end_time": 25.579545454545453,
                "pitch": 64,
                "velocity": 51,
                "duration": 0.08863636363636473,
                "tempo": 120.0
            },
            {
                "start_time": 25.579545454545453,
                "end_time": 25.65,
                "pitch": 62,
                "velocity": 51,
                "duration": 0.07045454545454533,
                "tempo": 120.0
            },
            {
                "start_time": 25.65,
                "end_time": 25.686363636363634,
                "pitch": 59,
                "velocity": 51,
                "duration": 0.036363636363635266,
                "tempo": 120.0
            },
            {
                "start_time": 25.702272727272724,
                "end_time": 37.55,
                "pitch": 81,
                "velocity": 51,
                "duration": 11.847727272727273,
                "tempo": 120.0
            },
            {
                "start_time": 37.55,
                "end_time": 37.56818181818181,
                "pitch": 67,
                "velocity": 51,
                "duration": 0.018181818181815856,
                "tempo": 120.0
            },
            {
                "start_time": 37.56818181818181,
                "end_time": 37.61818181818182,
                "pitch": 66,
                "velocity": 51,
                "duration": 0.05000000000000426,
                "tempo": 120.0
            },
            {
                "start_time": 37.61818181818182,
                "end_time": 37.63636363636363,
                "pitch": 63,
                "velocity": 51,
                "duration": 0.018181818181815856,
                "tempo": 120.0
            },
            {
                "start_time": 37.63636363636363,
                "end_time": 37.67045454545455,
                "pitch": 69,
                "velocity": 51,
                "duration": 0.03409090909091361,
                "tempo": 120.0
            },
            {
                "start_time": 37.67045454545455,
                "end_time": 37.70454545454545,
                "pitch": 66,
                "velocity": 51,
                "duration": 0.03409090909090651,
                "tempo": 120.0
            },
            {
                "start_time": 37.70454545454545,
                "end_time": 37.720454545454544,
                "pitch": 63,
                "velocity": 51,
                "duration": 0.01590909090909065,
                "tempo": 120.0
            },
            {
                "start_time": 37.720454545454544,
                "end_time": 37.73863636363636,
                "pitch": 67,
                "velocity": 51,
                "duration": 0.018181818181815856,
                "tempo": 120.0
            },
            {
                "start_time": 37.73863636363636,
                "end_time": 37.80681818181818,
                "pitch": 66,
                "velocity": 51,
                "duration": 0.06818181818182012,
                "tempo": 120.0
            },
            {
                "start_time": 37.80681818181818,
                "end_time": 37.85909090909091,
                "pitch": 64,
                "velocity": 51,
                "duration": 0.05227272727272947,
                "tempo": 120.0
            },
            {
                "start_time": 37.85909090909091,
                "end_time": 37.92727272727272,
                "pitch": 61,
                "velocity": 51,
                "duration": 0.06818181818181301,
                "tempo": 120.0
            },
            {
                "start_time": 37.92727272727272,
                "end_time": 37.94318181818181,
                "pitch": 58,
                "velocity": 51,
                "duration": 0.01590909090909065,
                "tempo": 120.0
            },
            {
                "start_time": 37.94318181818181,
                "end_time": 38.00909090909091,
                "pitch": 66,
                "velocity": 51,
                "duration": 0.06590909090909491,
                "tempo": 120.0
            },
            {
                "start_time": 38.00909090909091,
                "end_time": 38.059090909090905,
                "pitch": 64,
                "velocity": 51,
                "duration": 0.04999999999999716,
                "tempo": 120.0
            },
            {
                "start_time": 38.059090909090905,
                "end_time": 38.127272727272725,
                "pitch": 61,
                "velocity": 51,
                "duration": 0.06818181818182012,
                "tempo": 120.0
            },
            {
                "start_time": 38.127272727272725,
                "end_time": 38.20909090909091,
                "pitch": 64,
                "velocity": 51,
                "duration": 0.08181818181818556,
                "tempo": 120.0
            },
            {
                "start_time": 38.20909090909091,
                "end_time": 38.277272727272724,
                "pitch": 62,
                "velocity": 51,
                "duration": 0.06818181818181301,
                "tempo": 120.0
            },
            {
                "start_time": 38.277272727272724,
                "end_time": 38.34318181818182,
                "pitch": 60,
                "velocity": 51,
                "duration": 0.06590909090909491,
                "tempo": 120.0
            },
            {
                "start_time": 38.34318181818182,
                "end_time": 38.42727272727272,
                "pitch": 64,
                "velocity": 51,
                "duration": 0.08409090909090366,
                "tempo": 120.0
            },
            {
                "start_time": 38.42727272727272,
                "end_time": 38.49318181818182,
                "pitch": 62,
                "velocity": 51,
                "duration": 0.06590909090909491,
                "tempo": 120.0
            },
            {
                "start_time": 38.49318181818182,
                "end_time": 38.527272727272724,
                "pitch": 59,
                "velocity": 51,
                "duration": 0.03409090909090651,
                "tempo": 120.0
            },
            {
                "start_time": 38.543181818181814,
                "end_time": 43.76590909090909,
                "pitch": 79,
                "velocity": 51,
                "duration": 5.222727272727276,
                "tempo": 120.0
            },
            {
                "start_time": 43.76590909090909,
                "end_time": 43.78409090909091,
                "pitch": 67,
                "velocity": 51,
                "duration": 0.018181818181815856,
                "tempo": 120.0
            },
            {
                "start_time": 43.78409090909091,
                "end_time": 43.836363636363636,
                "pitch": 66,
                "velocity": 51,
                "duration": 0.05227272727272947,
                "tempo": 120.0
            },
            {
                "start_time": 43.836363636363636,
                "end_time": 43.85227272727273,
                "pitch": 63,
                "velocity": 51,
                "duration": 0.01590909090909065,
                "tempo": 120.0
            },
            {
                "start_time": 43.85227272727273,
                "end_time": 43.88636363636363,
                "pitch": 69,
                "velocity": 51,
                "duration": 0.03409090909090651,
                "tempo": 120.0
            },
            {
                "start_time": 43.88636363636363,
                "end_time": 43.93863636363636,
                "pitch": 66,
                "velocity": 51,
                "duration": 0.05227272727272947,
                "tempo": 120.0
            },
            {
                "start_time": 43.93863636363636,
                "end_time": 43.95454545454545,
                "pitch": 63,
                "velocity": 51,
                "duration": 0.01590909090909065,
                "tempo": 120.0
            },
            {
                "start_time": 43.95454545454545,
                "end_time": 44.02045454545454,
                "pitch": 69,
                "velocity": 51,
                "duration": 0.06590909090908781,
                "tempo": 120.0
            },
            {
                "start_time": 44.02045454545454,
                "end_time": 44.038636363636364,
                "pitch": 67,
                "velocity": 51,
                "duration": 0.018181818181822962,
                "tempo": 120.0
            },
            {
                "start_time": 44.038636363636364,
                "end_time": 44.08863636363636,
                "pitch": 67,
                "velocity": 51,
                "duration": 0.04999999999999716,
                "tempo": 120.0
            },
            {
                "start_time": 44.08863636363636,
                "end_time": 44.13863636363636,
                "pitch": 64,
                "velocity": 51,
                "duration": 0.04999999999999716,
                "tempo": 120.0
            },
            {
                "start_time": 44.13863636363636,
                "end_time": 44.15454545454545,
                "pitch": 67,
                "velocity": 51,
                "duration": 0.01590909090909065,
                "tempo": 120.0
            },
            {
                "start_time": 44.15454545454545,
                "end_time": 44.18863636363636,
                "pitch": 66,
                "velocity": 51,
                "duration": 0.03409090909091361,
                "tempo": 120.0
            },
            {
                "start_time": 44.18863636363636,
                "end_time": 44.23863636363636,
                "pitch": 62,
                "velocity": 51,
                "duration": 0.04999999999999716,
                "tempo": 120.0
            },
            {
                "start_time": 44.23863636363636,
                "end_time": 44.25454545454545,
                "pitch": 58,
                "velocity": 51,
                "duration": 0.01590909090909065,
                "tempo": 120.0
            },
            {
                "start_time": 44.25454545454545,
                "end_time": 44.288636363636364,
                "pitch": 66,
                "velocity": 51,
                "duration": 0.03409090909091361,
                "tempo": 120.0
            },
            {
                "start_time": 44.288636363636364,
                "end_time": 44.336363636363636,
                "pitch": 62,
                "velocity": 51,
                "duration": 0.04772727272727195,
                "tempo": 120.0
            },
            {
                "start_time": 44.336363636363636,
                "end_time": 44.35454545454545,
                "pitch": 58,
                "velocity": 51,
                "duration": 0.018181818181815856,
                "tempo": 120.0
            },
            {
                "start_time": 44.35454545454545,
                "end_time": 44.418181818181814,
                "pitch": 66,
                "velocity": 51,
                "duration": 0.0636363636363626,
                "tempo": 120.0
            },
            {
                "start_time": 44.418181818181814,
                "end_time": 44.46818181818182,
                "pitch": 64,
                "velocity": 51,
                "duration": 0.05000000000000426,
                "tempo": 120.0
            },
            {
                "start_time": 44.46818181818182,
                "end_time": 44.53409090909091,
                "pitch": 61,
                "velocity": 51,
                "duration": 0.06590909090908781,
                "tempo": 120.0
            },
            {
                "start_time": 44.53409090909091,
                "end_time": 44.55,
                "pitch": 58,
                "velocity": 51,
                "duration": 0.01590909090909065,
                "tempo": 120.0
            },
            {
                "start_time": 44.55,
                "end_time": 44.59772727272727,
                "pitch": 63,
                "velocity": 51,
                "duration": 0.04772727272727195,
                "tempo": 120.0
            },
            {
                "start_time": 44.59772727272727,
                "end_time": 44.64772727272727,
                "pitch": 60,
                "velocity": 51,
                "duration": 0.05000000000000426,
                "tempo": 120.0
            },
            {
                "start_time": 44.64772727272727,
                "end_time": 44.69772727272727,
                "pitch": 63,
                "velocity": 51,
                "duration": 0.04999999999999716,
                "tempo": 120.0
            },
            {
                "start_time": 44.69772727272727,
                "end_time": 44.74545454545454,
                "pitch": 60,
                "velocity": 51,
                "duration": 0.04772727272727195,
                "tempo": 120.0
            },
            {
                "start_time": 44.74545454545454,
                "end_time": 44.82727272727273,
                "pitch": 64,
                "velocity": 51,
                "duration": 0.08181818181818556,
                "tempo": 120.0
            },
            {
                "start_time": 44.82727272727273,
                "end_time": 44.893181818181816,
                "pitch": 62,
                "velocity": 51,
                "duration": 0.06590909090908781,
                "tempo": 120.0
            },
            {
                "start_time": 44.893181818181816,
                "end_time": 44.925,
                "pitch": 59,
                "velocity": 51,
                "duration": 0.0318181818181813,
                "tempo": 120.0
            }
        ]
    }
}