{
    "track_id": "Fantasy Zone II (FM) - 03 - Sarcand",
    "mood": "happy",
    "instruments": {
        "Electric Guitar (clean)": [
            {
                "start_time": 0.3,
                "end_time": 0.3659090909090909,
                "pitch": 42,
                "velocity": 51,
                "duration": 0.06590909090909092,
                "tempo": 120.0
            },
            {
                "start_time": 0.39999999999999997,
                "end_time": 0.75,
                "pitch": 42,
                "velocity": 51,
                "duration": 0.35000000000000003,
                "tempo": 120.0
            },
            {
                "start_time": 0.7818181818181817,
                "end_time": 0.884090909090909,
                "pitch": 35,
                "velocity": 51,
                "duration": 0.10227272727272729,
                "tempo": 120.0
            },
            {
                "start_time": 1.0045454545454544,
                "end_time": 1.0909090909090908,
                "pitch": 35,
                "velocity": 51,
                "duration": 0.08636363636363642,
                "tempo": 120.0
            },
            {
                "start_time": 1.2909090909090908,
                "end_time": 1.5522727272727272,
                "pitch": 42,
                "velocity": 51,
                "duration": 0.26136363636363646,
                "tempo": 120.0
            },
            {
                "start_time": 1.584090909090909,
                "end_time": 1.859090909090909,
                "pitch": 38,
                "velocity": 51,
                "duration": 0.2749999999999999,
                "tempo": 120.0
            },
            {
                "start_time": 1.893181818181818,
                "end_time": 1.9613636363636362,
                "pitch": 45,
                "velocity": 51,
                "duration": 0.06818181818181812,
                "tempo": 120.0
            },
            {
                "start_time": 1.9954545454545454,
                "end_time": 2.3613636363636363,
                "pitch": 45,
                "velocity": 51,
                "duration": 0.36590909090909096,
                "tempo": 120.0
            },
            {
                "start_time": 2.3954545454545455,
                "end_time": 2.495454545454545,
                "pitch": 38,
                "velocity": 51,
                "duration": 0.09999999999999964,
                "tempo": 120.0
            },
            {
                "start_time": 2.6136363636363633,
                "end_time": 2.6977272727272728,
                "pitch": 38,
                "velocity": 51,
                "duration": 0.08409090909090944,
                "tempo": 120.0
            },
            {
                "start_time": 2.8954545454545455,
                "end_time": 3.1568181818181817,
                "pitch": 45,
                "velocity": 51,
                "duration": 0.26136363636363624,
                "tempo": 120.0
            },
            {
                "start_time": 3.1886363636363635,
                "end_time": 3.4704545454545452,
                "pitch": 40,
                "velocity": 51,
                "duration": 0.28181818181818175,
                "tempo": 120.0
            },
            {
                "start_time": 3.506818181818182,
                "end_time": 3.577272727272727,
                "pitch": 47,
                "velocity": 51,
                "duration": 0.07045454545454533,
                "tempo": 120.0
            },
            {
                "start_time": 3.6113636363636363,
                "end_time": 3.9704545454545452,
                "pitch": 47,
                "velocity": 51,
                "duration": 0.3590909090909089,
                "tempo": 120.0
            },
            {
                "start_time": 4.004545454545454,
                "end_time": 4.1045454545454545,
                "pitch": 40,
                "velocity": 51,
                "duration": 0.10000000000000053,
                "tempo": 120.0
            },
            {
                "start_time": 4.222727272727273,
                "end_time": 4.306818181818182,
                "pitch": 40,
                "velocity": 51,
                "duration": 0.084090909090909,
                "tempo": 120.0
            },
            {
                "start_time": 4.504545454545454,
                "end_time": 4.765909090909091,
                "pitch": 47,
                "velocity": 51,
                "duration": 0.2613636363636367,
                "tempo": 120.0
            },
            {
                "start_time": 4.797727272727273,
                "end_time": 4.868181818181818,
                "pitch": 38,
                "velocity": 51,
                "duration": 0.07045454545454533,
                "tempo": 120.0
            },
            {
                "start_time": 5.004545454545454,
                "end_time": 5.072727272727272,
                "pitch": 38,
                "velocity": 51,
                "duration": 0.06818181818181834,
                "tempo": 120.0
            },
            {
                "start_time": 5.309090909090909,
                "end_time": 5.579545454545454,
                "pitch": 37,
                "velocity": 51,
                "duration": 0.2704545454545455,
                "tempo": 120.0
            },
            {
                "start_time": 5.611363636363636,
                "end_time": 5.711363636363636,
                "pitch": 38,
                "velocity": 51,
                "duration": 0.09999999999999964,
                "tempo": 120.0
            },
            {
                "start_time": 5.829545454545454,
                "end_time": 6.079545454545454,
                "pitch": 33,
                "velocity": 51,
                "duration": 0.25,
                "tempo": 120.0
            },
            {
                "start_time": 6.113636363636363,
                "end_time": 6.381818181818182,
                "pitch": 35,
                "velocity": 51,
                "duration": 0.2681818181818185,
                "tempo": 120.0
            },
            {
                "start_time": 6.415909090909091,
                "end_time": 6.6886363636363635,
                "pitch": 38,
                "velocity": 51,
                "duration": 0.2727272727272725,
                "tempo": 120.0
            },
            {
                "start_time": 6.722727272727273,
                "end_time": 6.790909090909091,
                "pitch": 45,
                "velocity": 51,
                "duration": 0.06818181818181834,
                "tempo": 120.0
            },
            {
                "start_time": 6.824999999999999,
                "end_time": 7.184090909090909,
                "pitch": 45,
                "velocity": 51,
                "duration": 0.35909090909090935,
                "tempo": 120.0
            },
            {
                "start_time": 7.218181818181818,
                "end_time": 7.486363636363636,
                "pitch": 38,
                "velocity": 51,
                "duration": 0.2681818181818185,
                "tempo": 120.0
            },
            {
                "start_time": 7.5204545454545455,
                "end_time": 7.586363636363636,
                "pitch": 45,
                "velocity": 51,
                "duration": 0.06590909090909047,
                "tempo": 120.0
            },
            {
                "start_time": 7.620454545454545,
                "end_time": 7.9795454545454545,
                "pitch": 45,
                "velocity": 51,
                "duration": 0.35909090909090935,
                "tempo": 120.0
            },
            {
                "start_time": 8.013636363636364,
                "end_time": 8.286363636363635,
                "pitch": 40,
                "velocity": 51,
                "duration": 0.2727272727272716,
                "tempo": 120.0
            },
            {
                "start_time": 8.320454545454545,
                "end_time": 8.388636363636364,
                "pitch": 47,
                "velocity": 51,
                "duration": 0.06818181818181834,
                "tempo": 120.0
            },
            {
                "start_time": 8.422727272727272,
                "end_time": 8.793181818181818,
                "pitch": 47,
                "velocity": 51,
                "duration": 0.37045454545454604,
                "tempo": 120.0
            },
            {
                "start_time": 8.825,
                "end_time": 9.093181818181817,
                "pitch": 40,
                "velocity": 51,
                "duration": 0.26818181818181763,
                "tempo": 120.0
            },
            {
                "start_time": 9.125,
                "end_time": 9.193181818181818,
                "pitch": 47,
                "velocity": 51,
                "duration": 0.06818181818181834,
                "tempo": 120.0
            },
            {
                "start_time": 9.225,
                "end_time": 9.595454545454546,
                "pitch": 47,
                "velocity": 51,
                "duration": 0.37045454545454604,
                "tempo": 120.0
            },
            {
                "start_time": 9.629545454545454,
                "end_time": 9.902272727272727,
                "pitch": 38,
                "velocity": 51,
                "duration": 0.2727272727272734,
                "tempo": 120.0
            },
            {
                "start_time": 9.936363636363636,
                "end_time": 10.004545454545454,
                "pitch": 45,
                "velocity": 51,
                "duration": 0.06818181818181834,
                "tempo": 120.0
            },
            {
                "start_time": 10.038636363636364,
                "end_time": 10.397727272727272,
                "pitch": 45,
                "velocity": 51,
                "duration": 0.3590909090909076,
                "tempo": 120.0
            },
            {
                "start_time": 10.431818181818182,
                "end_time": 10.7,
                "pitch": 38,
                "velocity": 51,
                "duration": 0.26818181818181763,
                "tempo": 120.0
            },
            {
                "start_time": 10.73409090909091,
                "end_time": 10.799999999999999,
                "pitch": 45,
                "velocity": 51,
                "duration": 0.06590909090908958,
                "tempo": 120.0
            },
            {
                "start_time": 10.834090909090909,
                "end_time": 11.2,
                "pitch": 45,
                "velocity": 51,
                "duration": 0.3659090909090903,
                "tempo": 120.0
            },
            {
                "start_time": 11.23409090909091,
                "end_time": 11.509090909090908,
                "pitch": 40,
                "velocity": 51,
                "duration": 0.2749999999999986,
                "tempo": 120.0
            },
            {
                "start_time": 11.543181818181818,
                "end_time": 11.611363636363636,
                "pitch": 47,
                "velocity": 51,
                "duration": 0.06818181818181834,
                "tempo": 120.0
            },
            {
                "start_time": 11.645454545454545,
                "end_time": 12.004545454545454,
                "pitch": 47,
                "velocity": 51,
                "duration": 0.35909090909090935,
                "tempo": 120.0
            },
            {
                "start_time": 12.036363636363635,
                "end_time": 12.304545454545455,
                "pitch": 40,
                "velocity": 51,
                "duration": 0.2681818181818194,
                "tempo": 120.0
            },
            {
                "start_time": 12.338636363636363,
                "end_time": 12.406818181818181,
                "pitch": 47,
                "velocity": 51,
                "duration": 0.06818181818181834,
                "tempo": 120.0
            },
            {
                "start_time": 12.438636363636363,
                "end_time": 12.809090909090909,
                "pitch": 47,
                "velocity": 51,
                "duration": 0.37045454545454604,
                "tempo": 120.0
            },
            {
                "start_time": 12.843181818181817,
                "end_time": 13.11590909090909,
                "pitch": 31,
                "velocity": 51,
                "duration": 0.2727272727272734,
                "tempo": 120.0
            },
            {
                "start_time": 13.149999999999999,
                "end_time": 13.218181818181817,
                "pitch": 38,
                "velocity": 51,
                "duration": 0.06818181818181834,
                "tempo": 120.0
            },
            {
                "start_time": 13.252272727272727,
                "end_time": 13.611363636363636,
                "pitch": 38,
                "velocity": 51,
                "duration": 0.35909090909090935,
                "tempo": 120.0
            },
            {
                "start_time": 13.645454545454545,
                "end_time": 13.913636363636362,
                "pitch": 31,
                "velocity": 51,
                "duration": 0.26818181818181763,
                "tempo": 120.0
            },
            {
                "start_time": 13.947727272727272,
                "end_time": 14.013636363636364,
                "pitch": 38,
                "velocity": 51,
                "duration": 0.06590909090909136,
                "tempo": 120.0
            },
            {
                "start_time": 14.047727272727272,
                "end_time": 14.21590909090909,
                "pitch": 38,
                "velocity": 51,
                "duration": 0.168181818181818,
                "tempo": 120.0
            },
            {
                "start_time": 14.25,
                "end_time": 14.418181818181818,
                "pitch": 31,
                "velocity": 51,
                "duration": 0.168181818181818,
                "tempo": 120.0
            },
            {
                "start_time": 14.45,
                "end_time": 14.725,
                "pitch": 38,
                "velocity": 51,
                "duration": 0.27500000000000036,
                "tempo": 120.0
            },
            {
                "start_time": 14.759090909090908,
                "end_time": 14.827272727272726,
                "pitch": 45,
                "velocity": 51,
                "duration": 0.06818181818181834,
                "tempo": 120.0
            },
            {
                "start_time": 14.861363636363636,
                "end_time": 15.220454545454544,
                "pitch": 45,
                "velocity": 51,
                "duration": 0.3590909090909076,
                "tempo": 120.0
            },
            {
                "start_time": 15.254545454545454,
                "end_time": 15.522727272727272,
                "pitch": 38,
                "velocity": 51,
                "duration": 0.26818181818181763,
                "tempo": 120.0
            },
            {
                "start_time": 15.554545454545455,
                "end_time": 15.622727272727271,
                "pitch": 45,
                "velocity": 51,
                "duration": 0.06818181818181657,
                "tempo": 120.0
            },
            {
                "start_time": 15.656818181818181,
                "end_time": 15.825,
                "pitch": 45,
                "velocity": 51,
                "duration": 0.168181818181818,
                "tempo": 120.0
            },
            {
                "start_time": 15.85681818181818,
                "end_time": 16.025,
                "pitch": 38,
                "velocity": 51,
                "duration": 0.168181818181818,
                "tempo": 120.0
            },
            {
                "start_time": 16.05909090909091,
                "end_time": 16.334090909090907,
                "pitch": 36,
                "velocity": 51,
                "duration": 0.2749999999999986,
                "tempo": 120.0
            },
            {
                "start_time": 16.368181818181817,
                "end_time": 16.436363636363634,
                "pitch": 43,
                "velocity": 51,
                "duration": 0.06818181818181657,
                "tempo": 120.0
            },
            {
                "start_time": 16.470454545454544,
                "end_time": 16.829545454545453,
                "pitch": 43,
                "velocity": 51,
                "duration": 0.35909090909090935,
                "tempo": 120.0
            },
            {
                "start_time": 16.861363636363635,
                "end_time": 17.136363636363637,
                "pitch": 36,
                "velocity": 51,
                "duration": 0.27500000000000213,
                "tempo": 120.0
            },
            {
                "start_time": 17.170454545454543,
                "end_time": 17.238636363636363,
                "pitch": 43,
                "velocity": 51,
                "duration": 0.06818181818182012,
                "tempo": 120.0
            },
            {
                "start_time": 17.272727272727273,
                "end_time": 17.436363636363634,
                "pitch": 43,
                "velocity": 51,
                "duration": 0.16363636363636047,
                "tempo": 120.0
            },
            {
                "start_time": 17.46818181818182,
                "end_time": 17.631818181818183,
                "pitch": 36,
                "velocity": 51,
                "duration": 0.16363636363636402,
                "tempo": 120.0
            },
            {
                "start_time": 17.663636363636364,
                "end_time": 17.93181818181818,
                "pitch": 33,
                "velocity": 51,
                "duration": 0.26818181818181586,
                "tempo": 120.0
            },
            {
                "start_time": 17.96363636363636,
                "end_time": 18.03181818181818,
                "pitch": 40,
                "velocity": 51,
                "duration": 0.06818181818182012,
                "tempo": 120.0
            },
            {
                "start_time": 18.063636363636363,
                "end_time": 18.43181818181818,
                "pitch": 40,
                "velocity": 51,
                "duration": 0.3681818181818173,
                "tempo": 120.0
            },
            {
                "start_time": 18.46363636363636,
                "end_time": 18.73409090909091,
                "pitch": 33,
                "velocity": 51,
                "duration": 0.27045454545454817,
                "tempo": 120.0
            },
            {
                "start_time": 18.76590909090909,
                "end_time": 18.834090909090907,
                "pitch": 40,
                "velocity": 51,
                "duration": 0.06818181818181657,
                "tempo": 120.0
            },
            {
                "start_time": 18.868181818181817,
                "end_time": 19.034090909090907,
                "pitch": 40,
                "velocity": 51,
                "duration": 0.16590909090908923,
                "tempo": 120.0
            },
            {
                "start_time": 19.068181818181817,
                "end_time": 19.23409090909091,
                "pitch": 33,
                "velocity": 51,
                "duration": 0.16590909090909278,
                "tempo": 120.0
            },
            {
                "start_time": 19.268181818181816,
                "end_time": 19.54090909090909,
                "pitch": 38,
                "velocity": 51,
                "duration": 0.2727272727272734,
                "tempo": 120.0
            },
            {
                "start_time": 19.575,
                "end_time": 19.643181818181816,
                "pitch": 45,
                "velocity": 51,
                "duration": 0.06818181818181657,
                "tempo": 120.0
            },
            {
                "start_time": 19.677272727272726,
                "end_time": 20.036363636363635,
                "pitch": 45,
                "velocity": 51,
                "duration": 0.35909090909090935,
                "tempo": 120.0
            },
            {
                "start_time": 20.070454545454545,
                "end_time": 20.336363636363636,
                "pitch": 38,
                "velocity": 51,
                "duration": 0.26590909090909065,
                "tempo": 120.0
            },
            {
                "start_time": 20.370454545454546,
                "end_time": 20.436363636363634,
                "pitch": 45,
                "velocity": 51,
                "duration": 0.06590909090908781,
                "tempo": 120.0
            },
            {
                "start_time": 20.470454545454544,
                "end_time": 20.83863636363636,
                "pitch": 45,
                "velocity": 51,
                "duration": 0.3681818181818173,
                "tempo": 120.0
            },
            {
                "start_time": 20.87272727272727,
                "end_time": 21.138636363636362,
                "pitch": 40,
                "velocity": 51,
                "duration": 0.26590909090909065,
                "tempo": 120.0
            },
            {
                "start_time": 21.172727272727272,
                "end_time": 21.238636363636363,
                "pitch": 47,
                "velocity": 51,
                "duration": 0.06590909090909136,
                "tempo": 120.0
            },
            {
                "start_time": 21.272727272727273,
                "end_time": 21.64090909090909,
                "pitch": 47,
                "velocity": 51,
                "duration": 0.3681818181818173,
                "tempo": 120.0
            },
            {
                "start_time": 21.675,
                "end_time": 21.94090909090909,
                "pitch": 40,
                "velocity": 51,
                "duration": 0.26590909090909065,
                "tempo": 120.0
            },
            {
                "start_time": 21.974999999999998,
                "end_time": 22.04090909090909,
                "pitch": 47,
                "velocity": 51,
                "duration": 0.06590909090909136,
                "tempo": 120.0
            },
            {
                "start_time": 22.075,
                "end_time": 22.44090909090909,
                "pitch": 47,
                "velocity": 51,
                "duration": 0.36590909090909207,
                "tempo": 120.0
            },
            {
                "start_time": 22.474999999999998,
                "end_time": 22.75,
                "pitch": 38,
                "velocity": 51,
                "duration": 0.27500000000000213,
                "tempo": 120.0
            },
            {
                "start_time": 22.784090909090907,
                "end_time": 22.852272727272727,
                "pitch": 45,
                "velocity": 51,
                "duration": 0.06818181818182012,
                "tempo": 120.0
            },
            {
                "start_time": 22.886363636363637,
                "end_time": 23.245454545454546,
                "pitch": 45,
                "velocity": 51,
                "duration": 0.35909090909090935,
                "tempo": 120.0
            },
            {
                "start_time": 23.277272727272727,
                "end_time": 23.547727272727272,
                "pitch": 38,
                "velocity": 51,
                "duration": 0.2704545454545446,
                "tempo": 120.0
            },
            {
                "start_time": 23.579545454545453,
                "end_time": 23.64772727272727,
                "pitch": 45,
                "velocity": 51,
                "duration": 0.06818181818181657,
                "tempo": 120.0
            },
            {
                "start_time": 23.68181818181818,
                "end_time": 24.047727272727272,
                "pitch": 45,
                "velocity": 51,
                "duration": 0.36590909090909207,
                "tempo": 120.0
            },
            {
                "start_time": 24.081818181818182,
                "end_time": 24.354545454545452,
                "pitch": 40,
                "velocity": 51,
                "duration": 0.2727272727272698,
                "tempo": 120.0
            },
            {
                "start_time": 24.388636363636362,
                "end_time": 24.456818181818182,
                "pitch": 47,
                "velocity": 51,
                "duration": 0.06818181818182012,
                "tempo": 120.0
            },
            {
                "start_time": 24.49090909090909,
                "end_time": 24.849999999999998,
                "pitch": 47,
                "velocity": 51,
                "duration": 0.35909090909090935,
                "tempo": 120.0
            },
            {
                "start_time": 24.884090909090908,
                "end_time": 25.15,
                "pitch": 40,
                "velocity": 51,
                "duration": 0.26590909090909065,
                "tempo": 120.0
            },
            {
                "start_time": 25.18409090909091,
                "end_time": 25.25,
                "pitch": 47,
                "velocity": 51,
                "duration": 0.06590909090909136,
                "tempo": 120.0
            },
            {
                "start_time": 25.284090909090907,
                "end_time": 25.652272727272727,
                "pitch": 47,
                "velocity": 51,
                "duration": 0.36818181818182083,
                "tempo": 120.0
            },
            {
                "start_time": 25.686363636363634,
                "end_time": 25.961363636363636,
                "pitch": 31,
                "velocity": 51,
                "duration": 0.27500000000000213,
                "tempo": 120.0
            },
            {
                "start_time": 25.995454545454542,
                "end_time": 26.063636363636363,
                "pitch": 38,
                "velocity": 51,
                "duration": 0.06818181818182012,
                "tempo": 120.0
            },
            {
                "start_time": 26.097727272727273,
                "end_time": 26.456818181818182,
                "pitch": 38,
                "velocity": 51,
                "duration": 0.35909090909090935,
                "tempo": 120.0
            },
            {
                "start_time": 26.488636363636363,
                "end_time": 26.75681818181818,
                "pitch": 31,
                "velocity": 51,
                "duration": 0.26818181818181586,
                "tempo": 120.0
            },
            {
                "start_time": 26.79090909090909,
                "end_time": 26.85909090909091,
                "pitch": 38,
                "velocity": 51,
                "duration": 0.06818181818182012,
                "tempo": 120.0
            },
            {
                "start_time": 26.89090909090909,
                "end_time": 27.05909090909091,
                "pitch": 38,
                "velocity": 51,
                "duration": 0.168181818181818,
                "tempo": 120.0
            },
            {
                "start_time": 27.09090909090909,
                "end_time": 27.259090909090908,
                "pitch": 31,
                "velocity": 51,
                "duration": 0.168181818181818,
                "tempo": 120.0
            },
            {
                "start_time": 27.29090909090909,
                "end_time": 27.565909090909088,
                "pitch": 38,
                "velocity": 51,
                "duration": 0.2749999999999986,
                "tempo": 120.0
            },
            {
                "start_time": 27.599999999999998,
                "end_time": 27.668181818181818,
                "pitch": 45,
                "velocity": 51,
                "duration": 0.06818181818182012,
                "tempo": 120.0
            },
            {
                "start_time": 27.702272727272724,
                "end_time": 28.061363636363634,
                "pitch": 45,
                "velocity": 51,
                "duration": 0.35909090909090935,
                "tempo": 120.0
            },
            {
                "start_time": 28.095454545454544,
                "end_time": 28.361363636363635,
                "pitch": 38,
                "velocity": 51,
                "duration": 0.26590909090909065,
                "tempo": 120.0
            },
            {
                "start_time": 28.395454545454545,
                "end_time": 28.461363636363636,
                "pitch": 45,
                "velocity": 51,
                "duration": 0.06590909090909136,
                "tempo": 120.0
            },
            {
                "start_time": 28.495454545454542,
                "end_time": 28.66363636363636,
                "pitch": 45,
                "velocity": 51,
                "duration": 0.168181818181818,
                "tempo": 120.0
            },
            {
                "start_time": 28.695454545454545,
                "end_time": 28.863636363636363,
                "pitch": 38,
                "velocity": 51,
                "duration": 0.168181818181818,
                "tempo": 120.0
            },
            {
                "start_time": 28.89772727272727,
                "end_time": 29.16363636363636,
                "pitch": 36,
                "velocity": 51,
                "duration": 0.26590909090909065,
                "tempo": 120.0
            },
            {
                "start_time": 29.19772727272727,
                "end_time": 29.263636363636362,
                "pitch": 43,
                "velocity": 51,
                "duration": 0.06590909090909136,
                "tempo": 120.0
            },
            {
                "start_time": 29.297727272727272,
                "end_time": 29.66590909090909,
                "pitch": 43,
                "velocity": 51,
                "duration": 0.3681818181818173,
                "tempo": 120.0
            },
            {
                "start_time": 29.7,
                "end_time": 29.96590909090909,
                "pitch": 36,
                "velocity": 51,
                "duration": 0.26590909090909065,
                "tempo": 120.0
            },
            {
                "start_time": 30.0,
                "end_time": 30.065909090909088,
                "pitch": 43,
                "velocity": 51,
                "duration": 0.06590909090908781,
                "tempo": 120.0
            },
            {
                "start_time": 30.099999999999998,
                "end_time": 30.26590909090909,
                "pitch": 43,
                "velocity": 51,
                "duration": 0.16590909090909278,
                "tempo": 120.0
            },
            {
                "start_time": 30.299999999999997,
                "end_time": 30.46590909090909,
                "pitch": 36,
                "velocity": 51,
                "duration": 0.16590909090909278,
                "tempo": 120.0
            },
            {
                "start_time": 30.5,
                "end_time": 30.768181818181816,
                "pitch": 33,
                "velocity": 51,
                "duration": 0.26818181818181586,
                "tempo": 120.0
            },
            {
                "start_time": 30.802272727272726,
                "end_time": 30.870454545454542,
                "pitch": 40,
                "velocity": 51,
                "duration": 0.06818181818181657,
                "tempo": 120.0
            },
            {
                "start_time": 30.902272727272727,
                "end_time": 31.270454545454545,
                "pitch": 40,
                "velocity": 51,
                "duration": 0.3681818181818173,
                "tempo": 120.0
            },
            {
                "start_time": 31.302272727272726,
                "end_time": 31.563636363636363,
                "pitch": 33,
                "velocity": 51,
                "duration": 0.2613636363636367,
                "tempo": 120.0
            },
            {
                "start_time": 31.597727272727273,
                "end_time": 31.661363636363635,
                "pitch": 40,
                "velocity": 51,
                "duration": 0.0636363636363626,
                "tempo": 120.0
            },
            {
                "start_time": 31.695454545454545,
                "end_time": 31.86590909090909,
                "pitch": 40,
                "velocity": 51,
                "duration": 0.1704545454545432,
                "tempo": 120.0
            },
            {
                "start_time": 31.9,
                "end_time": 32.07272727272727,
                "pitch": 33,
                "velocity": 51,
                "duration": 0.17272727272727195,
                "tempo": 120.0
            },
            {
                "start_time": 32.10681818181818,
                "end_time": 32.37954545454545,
                "pitch": 38,
                "velocity": 51,
                "duration": 0.2727272727272734,
                "tempo": 120.0
            },
            {
                "start_time": 32.413636363636364,
                "end_time": 32.48181818181818,
                "pitch": 45,
                "velocity": 51,
                "duration": 0.06818181818181301,
                "tempo": 120.0
            },
            {
                "start_time": 32.51590909090909,
                "end_time": 32.875,
                "pitch": 45,
                "velocity": 51,
                "duration": 0.35909090909090935,
                "tempo": 120.0
            },
            {
                "start_time": 32.90909090909091,
                "end_time": 33.175,
                "pitch": 38,
                "velocity": 51,
                "duration": 0.26590909090909065,
                "tempo": 120.0
            },
            {
                "start_time": 33.20909090909091,
                "end_time": 33.275,
                "pitch": 45,
                "velocity": 51,
                "duration": 0.06590909090908781,
                "tempo": 120.0
            },
            {
                "start_time": 33.309090909090905,
                "end_time": 33.475,
                "pitch": 50,
                "velocity": 51,
                "duration": 0.16590909090909634,
                "tempo": 120.0
            },
            {
                "start_time": 33.50909090909091,
                "end_time": 33.675,
                "pitch": 45,
                "velocity": 51,
                "duration": 0.16590909090908923,
                "tempo": 120.0
            },
            {
                "start_time": 33.70909090909091,
                "end_time": 33.97727272727273,
                "pitch": 33,
                "velocity": 51,
                "duration": 0.26818181818181586,
                "tempo": 120.0
            },
            {
                "start_time": 34.01136363636363,
                "end_time": 34.07727272727273,
                "pitch": 40,
                "velocity": 51,
                "duration": 0.06590909090909491,
                "tempo": 120.0
            },
            {
                "start_time": 34.111363636363635,
                "end_time": 34.47727272727273,
                "pitch": 40,
                "velocity": 51,
                "duration": 0.36590909090909207,
                "tempo": 120.0
            },
            {
                "start_time": 34.51136363636363,
                "end_time": 34.61363636363636,
                "pitch": 33,
                "velocity": 51,
                "duration": 0.10227272727272663,
                "tempo": 120.0
            },
            {
                "start_time": 34.73409090909091,
                "end_time": 34.820454545454545,
                "pitch": 33,
                "velocity": 51,
                "duration": 0.08636363636363598,
                "tempo": 120.0
            },
            {
                "start_time": 35.01590909090909,
                "end_time": 35.27045454545454,
                "pitch": 40,
                "velocity": 51,
                "duration": 0.2545454545454504,
                "tempo": 120.0
            },
            {
                "start_time": 35.30227272727272,
                "end_time": 35.58409090909091,
                "pitch": 38,
                "velocity": 51,
                "duration": 0.2818181818181884,
                "tempo": 120.0
            },
            {
                "start_time": 35.62045454545454,
                "end_time": 35.69090909090909,
                "pitch": 45,
                "velocity": 51,
                "duration": 0.07045454545454533,
                "tempo": 120.0
            },
            {
                "start_time": 35.725,
                "end_time": 36.08409090909091,
                "pitch": 45,
                "velocity": 51,
                "duration": 0.35909090909090935,
                "tempo": 120.0
            },
            {
                "start_time": 36.11818181818182,
                "end_time": 36.38409090909091,
                "pitch": 38,
                "velocity": 51,
                "duration": 0.26590909090909065,
                "tempo": 120.0
            },
            {
                "start_time": 36.418181818181814,
                "end_time": 36.48409090909091,
                "pitch": 45,
                "velocity": 51,
                "duration": 0.06590909090909491,
                "tempo": 120.0
            },
            {
                "start_time": 36.518181818181816,
                "end_time": 36.684090909090905,
                "pitch": 50,
                "velocity": 51,
                "duration": 0.16590909090908923,
                "tempo": 120.0
            },
            {
                "start_time": 36.71818181818182,
                "end_time": 36.88409090909091,
                "pitch": 45,
                "velocity": 51,
                "duration": 0.16590909090908923,
                "tempo": 120.0
            },
            {
                "start_time": 36.918181818181814,
                "end_time": 37.184090909090905,
                "pitch": 33,
                "velocity": 51,
                "duration": 0.26590909090909065,
                "tempo": 120.0
            },
            {
                "start_time": 37.21818181818182,
                "end_time": 37.28409090909091,
                "pitch": 40,
                "velocity": 51,
                "duration": 0.06590909090908781,
                "tempo": 120.0
            },
            {
                "start_time": 37.31818181818181,
                "end_time": 37.684090909090905,
                "pitch": 40,
                "velocity": 51,
                "duration": 0.36590909090909207,
                "tempo": 120.0
            },
            {
                "start_time": 37.71818181818182,
                "end_time": 37.81818181818181,
                "pitch": 33,
                "velocity": 51,
                "duration": 0.09999999999999432,
                "tempo": 120.0
            },
            {
                "start_time": 37.93636363636364,
                "end_time": 38.02045454545454,
                "pitch": 33,
                "velocity": 51,
                "duration": 0.08409090909090366,
                "tempo": 120.0
            },
            {
                "start_time": 38.21818181818182,
                "end_time": 38.47954545454545,
                "pitch": 40,
                "velocity": 51,
                "duration": 0.26136363636363313,
                "tempo": 120.0
            },
            {
                "start_time": 38.51136363636363,
                "end_time": 38.793181818181814,
                "pitch": 38,
                "velocity": 51,
                "duration": 0.2818181818181813,
                "tempo": 120.0
            },
            {
                "start_time": 38.82954545454545,
                "end_time": 38.9,
                "pitch": 45,
                "velocity": 51,
                "duration": 0.07045454545454533,
                "tempo": 120.0
            },
            {
                "start_time": 38.934090909090905,
                "end_time": 39.293181818181814,
                "pitch": 45,
                "velocity": 51,
                "duration": 0.35909090909090935,
                "tempo": 120.0
            },
            {
                "start_time": 39.324999999999996,
                "end_time": 39.59318181818182,
                "pitch": 38,
                "velocity": 51,
                "duration": 0.26818181818182296,
                "tempo": 120.0
            },
            {
                "start_time": 39.625,
                "end_time": 39.69318181818181,
                "pitch": 45,
                "velocity": 51,
                "duration": 0.06818181818181301,
                "tempo": 120.0
            },
            {
                "start_time": 39.725,
                "end_time": 39.893181818181816,
                "pitch": 50,
                "velocity": 51,
                "duration": 0.16818181818181444,
                "tempo": 120.0
            },
            {
                "start_time": 39.92727272727272,
                "end_time": 40.095454545454544,
                "pitch": 45,
                "velocity": 51,
                "duration": 0.16818181818182154,
                "tempo": 120.0
            },
            {
                "start_time": 40.12954545454545,
                "end_time": 40.39545454545454,
                "pitch": 33,
                "velocity": 51,
                "duration": 0.26590909090909065,
                "tempo": 120.0
            },
            {
                "start_time": 40.429545454545455,
                "end_time": 40.49545454545454,
                "pitch": 40,
                "velocity": 51,
                "duration": 0.06590909090908781,
                "tempo": 120.0
            },
            {
                "start_time": 40.529545454545456,
                "end_time": 40.89545454545454,
                "pitch": 40,
                "velocity": 51,
                "duration": 0.36590909090908497,
                "tempo": 120.0
            },
            {
                "start_time": 40.929545454545455,
                "end_time": 41.03181818181818,
                "pitch": 33,
                "velocity": 51,
                "duration": 0.10227272727272663,
                "tempo": 120.0
            },
            {
                "start_time": 41.152272727272724,
                "end_time": 41.236363636363635,
                "pitch": 33,
                "velocity": 51,
                "duration": 0.08409090909091077,
                "tempo": 120.0
            },
            {
                "start_time": 41.434090909090905,
                "end_time": 41.68863636363636,
                "pitch": 40,
                "velocity": 51,
                "duration": 0.2545454545454575,
                "tempo": 120.0
            },
            {
                "start_time": 41.720454545454544,
                "end_time": 42.002272727272725,
                "pitch": 36,
                "velocity": 51,
                "duration": 0.2818181818181813,
                "tempo": 120.0
            },
            {
                "start_time": 42.03636363636363,
                "end_time": 42.10681818181818,
                "pitch": 43,
                "velocity": 51,
                "duration": 0.07045454545454533,
                "tempo": 120.0
            },
            {
                "start_time": 42.143181818181816,
                "end_time": 42.502272727272725,
                "pitch": 43,
                "velocity": 51,
                "duration": 0.35909090909090935,
                "tempo": 120.0
            },
            {
                "start_time": 42.53409090909091,
                "end_time": 42.8,
                "pitch": 36,
                "velocity": 51,
                "duration": 0.26590909090909065,
                "tempo": 120.0
            },
            {
                "start_time": 42.834090909090904,
                "end_time": 42.9,
                "pitch": 43,
                "velocity": 51,
                "duration": 0.06590909090909491,
                "tempo": 120.0
            },
            {
                "start_time": 42.934090909090905,
                "end_time": 43.1,
                "pitch": 43,
                "velocity": 51,
                "duration": 0.16590909090909634,
                "tempo": 120.0
            },
            {
                "start_time": 43.13409090909091,
                "end_time": 43.3,
                "pitch": 36,
                "velocity": 51,
                "duration": 0.16590909090908923,
                "tempo": 120.0
            },
            {
                "start_time": 43.334090909090904,
                "end_time": 43.595454545454544,
                "pitch": 33,
                "velocity": 51,
                "duration": 0.26136363636364024,
                "tempo": 120.0
            },
            {
                "start_time": 43.627272727272725,
                "end_time": 43.69318181818181,
                "pitch": 40,
                "velocity": 51,
                "duration": 0.06590909090908781,
                "tempo": 120.0
            },
            {
                "start_time": 43.72727272727273,
                "end_time": 43.89772727272727,
                "pitch": 40,
                "velocity": 51,
                "duration": 0.17045454545454675,
                "tempo": 120.0
            },
            {
                "start_time": 44.13636363636363,
                "end_time": 44.3,
                "pitch": 33,
                "velocity": 51,
                "duration": 0.16363636363636402,
                "tempo": 120.0
            },
            {
                "start_time": 44.33181818181818,
                "end_time": 44.49545454545454,
                "pitch": 37,
                "velocity": 51,
                "duration": 0.16363636363636402,
                "tempo": 120.0
            },
            {
                "start_time": 44.52954545454545,
                "end_time": 44.69772727272727,
                "pitch": 38,
                "velocity": 51,
                "duration": 0.16818181818182154,
                "tempo": 120.0
            },
            {
                "start_time": 44.73181818181818,
                "end_time": 44.89772727272727,
                "pitch": 40,
                "velocity": 51,
                "duration": 0.16590909090909634,
                "tempo": 120.0
            },
            {
                "start_time": 44.93181818181818,
                "end_time": 45.002272727272725,
                "pitch": 38,
                "velocity": 51,
                "duration": 0.07045454545454533,
                "tempo": 120.0
            },
            {
                "start_time": 45.038636363636364,
                "end_time": 45.10909090909091,
                "pitch": 38,
                "velocity": 51,
                "duration": 0.07045454545454533,
                "tempo": 120.0
            },
            {
                "start_time": 45.55,
                "end_time": 45.61590909090909,
                "pitch": 38,
                "velocity": 51,
                "duration": 0.06590909090909491,
                "tempo": 120.0
            },
            {
                "start_time": 45.64772727272727,
                "end_time": 45.71363636363636,
                "pitch": 38,
                "velocity": 51,
                "duration": 0.06590909090908781,
                "tempo": 120.0
            },
            {
                "start_time": 45.94772727272727,
                "end_time": 46.01363636363636,
                "pitch": 42,
                "velocity": 51,
                "duration": 0.06590909090908781,
                "tempo": 120.0
            },
            {
                "start_time": 46.04772727272727,
                "end_time": 46.11590909090909,
                "pitch": 43,
                "velocity": 51,
                "duration": 0.06818181818182012,
                "tempo": 120.0
            },
            {
                "start_time": 46.15,
                "end_time": 46.51590909090909,
                "pitch": 45,
                "velocity": 51,
                "duration": 0.36590909090909207,
                "tempo": 120.0
            },
            {
                "start_time": 46.55,
                "end_time": 46.61818181818182,
                "pitch": 38,
                "velocity": 51,
                "duration": 0.06818181818182012,
                "tempo": 120.0
            },
            {
                "start_time": 46.652272727272724,
                "end_time": 46.720454545454544,
                "pitch": 38,
                "velocity": 51,
                "duration": 0.06818181818182012,
                "tempo": 120.0
            },
            {
                "start_time": 47.15454545454545,
                "end_time": 47.220454545454544,
                "pitch": 38,
                "velocity": 51,
                "duration": 0.06590909090909491,
                "tempo": 120.0
            },
            {
                "start_time": 47.25454545454545,
                "end_time": 47.31818181818181,
                "pitch": 38,
                "velocity": 51,
                "duration": 0.0636363636363626,
                "tempo": 120.0
            },
            {
                "start_time": 47.35227272727273,
                "end_time": 47.52272727272727,
                "pitch": 38,
                "velocity": 51,
                "duration": 0.17045454545454675,
                "tempo": 120.0
            },
            {
                "start_time": 47.55681818181818,
                "end_time": 47.72727272727273,
                "pitch": 30,
                "velocity": 51,
                "duration": 0.17045454545454675,
                "tempo": 120.0
            },
            {
                "start_time": 47.76136363636363,
                "end_time": 47.92045454545454,
                "pitch": 31,
                "velocity": 51,
                "duration": 0.1590909090909065,
                "tempo": 120.0
            },
            {
                "start_time": 47.95227272727273,
                "end_time": 48.111363636363635,
                "pitch": 33,
                "velocity": 51,
                "duration": 0.1590909090909065,
                "tempo": 120.0
            },
            {
                "start_time": 48.143181818181816,
                "end_time": 48.21363636363636,
                "pitch": 38,
                "velocity": 51,
                "duration": 0.07045454545454533,
                "tempo": 120.0
            },
            {
                "start_time": 48.25,
                "end_time": 48.31818181818181,
                "pitch": 38,
                "velocity": 51,
                "duration": 0.06818181818181301,
                "tempo": 120.0
            },
            {
                "start_time": 48.76590909090909,
                "end_time": 48.83181818181818,
                "pitch": 38,
                "velocity": 51,
                "duration": 0.06590909090908781,
                "tempo": 120.0
            },
            {
                "start_time": 48.86590909090909,
                "end_time": 48.93181818181818,
                "pitch": 38,
                "velocity": 51,
                "duration": 0.06590909090908781,
                "tempo": 120.0
            },
            {
                "start_time": 49.16136363636363,
                "end_time": 49.22727272727273,
                "pitch": 42,
                "velocity": 51,
                "duration": 0.06590909090909491,
                "tempo": 120.0
            },
            {
                "start_time": 49.25909090909091,
                "end_time": 49.324999999999996,
                "pitch": 43,
                "velocity": 51,
                "duration": 0.06590909090908781,
                "tempo": 120.0
            },
            {
                "start_time": 49.35681818181818,
                "end_time": 49.724999999999994,
                "pitch": 45,
                "velocity": 51,
                "duration": 0.3681818181818173,
                "tempo": 120.0
            },
            {
                "start_time": 49.75681818181818,
                "end_time": 49.82727272727273,
                "pitch": 38,
                "velocity": 51,
                "duration": 0.07045454545454533,
                "tempo": 120.0
            },
            {
                "start_time": 49.861363636363635,
                "end_time": 49.929545454545455,
                "pitch": 38,
                "velocity": 51,
                "duration": 0.06818181818182012,
                "tempo": 120.0
            },
            {
                "start_time": 50.36818181818182,
                "end_time": 50.43636363636364,
                "pitch": 38,
                "velocity": 51,
                "duration": 0.06818181818182012,
                "tempo": 120.0
            },
            {
                "start_time": 50.46818181818182,
                "end_time": 50.53636363636363,
                "pitch": 38,
                "velocity": 51,
                "duration": 0.06818181818181301,
                "tempo": 120.0
            },
            {
                "start_time": 50.56818181818181,
                "end_time": 50.73181818181818,
                "pitch": 38,
                "velocity": 51,
                "duration": 0.16363636363636402,
                "tempo": 120.0
            },
            {
                "start_time": 50.76363636363636,
                "end_time": 50.92727272727272,
                "pitch": 30,
                "velocity": 51,
                "duration": 0.16363636363636402,
                "tempo": 120.0
            },
            {
                "start_time": 50.961363636363636,
                "end_time": 51.127272727272725,
                "pitch": 31,
                "velocity": 51,
                "duration": 0.16590909090908923,
                "tempo": 120.0
            },
            {
                "start_time": 51.16136363636363,
                "end_time": 51.32727272727273,
                "pitch": 33,
                "velocity": 51,
                "duration": 0.16590909090909634,
                "tempo": 120.0
            },
            {
                "start_time": 51.361363636363635,
                "end_time": 51.429545454545455,
                "pitch": 38,
                "velocity": 51,
                "duration": 0.06818181818182012,
                "tempo": 120.0
            },
            {
                "start_time": 51.46363636363636,
                "end_time": 51.53181818181818,
                "pitch": 38,
                "velocity": 51,
                "duration": 0.06818181818182012,
                "tempo": 120.0
            },
            {
                "start_time": 51.96818181818182,
                "end_time": 52.03409090909091,
                "pitch": 38,
                "velocity": 51,
                "duration": 0.06590909090908781,
                "tempo": 120.0
            },
            {
                "start_time": 52.06590909090909,
                "end_time": 52.13181818181818,
                "pitch": 38,
                "velocity": 51,
                "duration": 0.06590909090909491,
                "tempo": 120.0
            },
            {
                "start_time": 52.35909090909091,
                "end_time": 52.425,
                "pitch": 42,
                "velocity": 51,
                "duration": 0.06590909090908781,
                "tempo": 120.0
            },
            {
                "start_time": 52.45681818181818,
                "end_time": 52.52272727272727,
                "pitch": 43,
                "velocity": 51,
                "duration": 0.06590909090909491,
                "tempo": 120.0
            },
            {
                "start_time": 52.55681818181818,
                "end_time": 52.934090909090905,
                "pitch": 45,
                "velocity": 51,
                "duration": 0.3772727272727252,
                "tempo": 120.0
            },
            {
                "start_time": 52.965909090909086,
                "end_time": 53.03409090909091,
                "pitch": 38,
                "velocity": 51,
                "duration": 0.06818181818182012,
                "tempo": 120.0
            },
            {
                "start_time": 53.06590909090909,
                "end_time": 53.13409090909091,
                "pitch": 38,
                "velocity": 51,
                "duration": 0.06818181818182012,
                "tempo": 120.0
            },
            {
                "start_time": 53.57272727272727,
                "end_time": 53.64090909090909,
                "pitch": 38,
                "velocity": 51,
                "duration": 0.06818181818182012,
                "tempo": 120.0
            },
            {
                "start_time": 53.675,
                "end_time": 53.74318181818182,
                "pitch": 38,
                "velocity": 51,
                "duration": 0.06818181818182012,
                "tempo": 120.0
            },
            {
                "start_time": 53.777272727272724,
                "end_time": 53.94090909090909,
                "pitch": 38,
                "velocity": 51,
                "duration": 0.16363636363636402,
                "tempo": 120.0
            },
            {
                "start_time": 53.97272727272727,
                "end_time": 54.13636363636363,
                "pitch": 30,
                "velocity": 51,
                "duration": 0.16363636363636402,
                "tempo": 120.0
            },
            {
                "start_time": 54.17045454545454,
                "end_time": 54.336363636363636,
                "pitch": 31,
                "velocity": 51,
                "duration": 0.16590909090909634,
                "tempo": 120.0
            },
            {
                "start_time": 54.37045454545454,
                "end_time": 54.53636363636363,
                "pitch": 33,
                "velocity": 51,
                "duration": 0.16590909090908923,
                "tempo": 120.0
            },
            {
                "start_time": 54.570454545454545,
                "end_time": 54.63863636363636,
                "pitch": 38,
                "velocity": 51,
                "duration": 0.06818181818181301,
                "tempo": 120.0
            },
            {
                "start_time": 54.67272727272727,
                "end_time": 54.740909090909085,
                "pitch": 38,
                "velocity": 51,
                "duration": 0.06818181818181301,
                "tempo": 120.0
            },
            {
                "start_time": 55.17727272727272,
                "end_time": 55.240909090909085,
                "pitch": 38,
                "velocity": 51,
                "duration": 0.0636363636363626,
                "tempo": 120.0
            },
            {
                "start_time": 55.275,
                "end_time": 55.340909090909086,
                "pitch": 38,
                "velocity": 51,
                "duration": 0.06590909090908781,
                "tempo": 120.0
            },
            {
                "start_time": 55.56818181818181,
                "end_time": 55.63409090909091,
                "pitch": 42,
                "velocity": 51,
                "duration": 0.06590909090909491,
                "tempo": 120.0
            },
            {
                "start_time": 55.66590909090909,
                "end_time": 55.73181818181818,
                "pitch": 43,
                "velocity": 51,
                "duration": 0.06590909090908781,
                "tempo": 120.0
            },
            {
                "start_time": 55.76590909090909,
                "end_time": 56.14090909090909,
                "pitch": 45,
                "velocity": 51,
                "duration": 0.375,
                "tempo": 120.0
            },
            {
                "start_time": 56.175,
                "end_time": 56.24545454545454,
                "pitch": 38,
                "velocity": 51,
                "duration": 0.07045454545454533,
                "tempo": 120.0
            },
            {
                "start_time": 56.27954545454545,
                "end_time": 56.34772727272727,
                "pitch": 38,
                "velocity": 51,
                "duration": 0.06818181818182012,
                "tempo": 120.0
            },
            {
                "start_time": 56.78181818181818,
                "end_time": 56.84772727272727,
                "pitch": 38,
                "velocity": 51,
                "duration": 0.06590909090908781,
                "tempo": 120.0
            },
            {
                "start_time": 56.881818181818176,
                "end_time": 56.945454545454545,
                "pitch": 38,
                "velocity": 51,
                "duration": 0.06363636363636971,
                "tempo": 120.0
            },
            {
                "start_time": 56.97954545454545,
                "end_time": 57.04545454545454,
                "pitch": 38,
                "velocity": 51,
                "duration": 0.06590909090908781,
                "tempo": 120.0
            },
            {
                "start_time": 57.07954545454545,
                "end_time": 57.14545454545454,
                "pitch": 40,
                "velocity": 51,
                "duration": 0.06590909090908781,
                "tempo": 120.0
            },
            {
                "start_time": 57.27954545454545,
                "end_time": 57.345454545454544,
                "pitch": 42,
                "velocity": 51,
                "duration": 0.06590909090909491,
                "tempo": 120.0
            },
            {
                "start_time": 57.47727272727273,
                "end_time": 57.54090909090909,
                "pitch": 43,
                "velocity": 51,
                "duration": 0.0636363636363626,
                "tempo": 120.0
            },
            {
                "start_time": 57.67272727272727,
                "end_time": 57.73863636363636,
                "pitch": 45,
                "velocity": 51,
                "duration": 0.06590909090908781,
                "tempo": 120.0
            }
        ],
        "Acoustic Guitar (nylon)": [
            {
                "start_time": 0.0659090909090909,
                "end_time": 1.0227272727272727,
                "pitch": 63,
                "velocity": 51,
                "duration": 0.9568181818181818,
                "tempo": 120.0
            },
            {
                "start_time": 1.0568181818181817,
                "end_time": 1.4204545454545454,
                "pitch": 64,
                "velocity": 51,
                "duration": 0.36363636363636376,
                "tempo": 120.0
            },
            {
                "start_time": 1.4545454545454546,
                "end_time": 1.6181818181818182,
                "pitch": 63,
                "velocity": 51,
                "duration": 0.16363636363636358,
                "tempo": 120.0
            },
            {
                "start_time": 1.6522727272727271,
                "end_time": 3.2249999999999996,
                "pitch": 66,
                "velocity": 51,
                "duration": 1.5727272727272725,
                "tempo": 120.0
            },
            {
                "start_time": 3.259090909090909,
                "end_time": 4.238636363636363,
                "pitch": 68,
                "velocity": 51,
                "duration": 0.9795454545454545,
                "tempo": 120.0
            },
            {
                "start_time": 4.2727272727272725,
                "end_time": 4.634090909090909,
                "pitch": 69,
                "velocity": 51,
                "duration": 0.36136363636363633,
                "tempo": 120.0
            },
            {
                "start_time": 4.668181818181818,
                "end_time": 4.831818181818182,
                "pitch": 68,
                "velocity": 51,
                "duration": 0.16363636363636402,
                "tempo": 120.0
            },
            {
                "start_time": 4.868181818181818,
                "end_time": 4.9363636363636365,
                "pitch": 66,
                "velocity": 51,
                "duration": 0.06818181818181834,
                "tempo": 120.0
            },
            {
                "start_time": 4.970454545454545,
                "end_time": 5.038636363636363,
                "pitch": 67,
                "velocity": 51,
                "duration": 0.06818181818181834,
                "tempo": 120.0
            },
            {
                "start_time": 5.072727272727272,
                "end_time": 5.140909090909091,
                "pitch": 66,
                "velocity": 51,
                "duration": 0.06818181818181834,
                "tempo": 120.0
            },
            {
                "start_time": 5.175,
                "end_time": 5.243181818181818,
                "pitch": 64,
                "velocity": 51,
                "duration": 0.06818181818181834,
                "tempo": 120.0
            },
            {
                "start_time": 5.277272727272727,
                "end_time": 5.343181818181818,
                "pitch": 62,
                "velocity": 51,
                "duration": 0.06590909090909047,
                "tempo": 120.0
            },
            {
                "start_time": 5.377272727272727,
                "end_time": 5.445454545454545,
                "pitch": 66,
                "velocity": 51,
                "duration": 0.06818181818181834,
                "tempo": 120.0
            },
            {
                "start_time": 5.477272727272727,
                "end_time": 5.545454545454545,
                "pitch": 64,
                "velocity": 51,
                "duration": 0.06818181818181834,
                "tempo": 120.0
            },
            {
                "start_time": 5.579545454545454,
                "end_time": 5.6454545454545455,
                "pitch": 60,
                "velocity": 51,
                "duration": 0.06590909090909136,
                "tempo": 120.0
            },
            {
                "start_time": 5.679545454545455,
                "end_time": 5.845454545454545,
                "pitch": 62,
                "velocity": 51,
                "duration": 0.16590909090909012,
                "tempo": 120.0
            },
            {
                "start_time": 6.4840909090909085,
                "end_time": 6.552272727272727,
                "pitch": 56,
                "velocity": 51,
                "duration": 0.06818181818181834,
                "tempo": 120.0
            },
            {
                "start_time": 6.586363636363636,
                "end_time": 8.047727272727272,
                "pitch": 57,
                "velocity": 51,
                "duration": 1.461363636363636,
                "tempo": 120.0
            },
            {
                "start_time": 8.081818181818182,
                "end_time": 8.456818181818182,
                "pitch": 62,
                "velocity": 51,
                "duration": 0.375,
                "tempo": 120.0
            },
            {
                "start_time": 8.49090909090909,
                "end_time": 8.659090909090908,
                "pitch": 61,
                "velocity": 51,
                "duration": 0.168181818181818,
                "tempo": 120.0
            },
            {
                "start_time": 8.690909090909091,
                "end_time": 9.461363636363636,
                "pitch": 59,
                "velocity": 51,
                "duration": 0.7704545454545446,
                "tempo": 120.0
            },
            {
                "start_time": 9.495454545454544,
                "end_time": 9.561363636363636,
                "pitch": 54,
                "velocity": 51,
                "duration": 0.06590909090909136,
                "tempo": 120.0
            },
            {
                "start_time": 9.595454545454546,
                "end_time": 9.663636363636364,
                "pitch": 55,
                "velocity": 51,
                "duration": 0.06818181818181834,
                "tempo": 120.0
            },
            {
                "start_time": 9.697727272727272,
                "end_time": 11.268181818181818,
                "pitch": 57,
                "velocity": 51,
                "duration": 1.5704545454545453,
                "tempo": 120.0
            },
            {
                "start_time": 11.302272727272726,
                "end_time": 11.677272727272726,
                "pitch": 62,
                "velocity": 51,
                "duration": 0.375,
                "tempo": 120.0
            },
            {
                "start_time": 11.709090909090909,
                "end_time": 11.872727272727273,
                "pitch": 61,
                "velocity": 51,
                "duration": 0.16363636363636402,
                "tempo": 120.0
            },
            {
                "start_time": 11.906818181818181,
                "end_time": 12.877272727272727,
                "pitch": 64,
                "velocity": 51,
                "duration": 0.9704545454545457,
                "tempo": 120.0
            },
            {
                "start_time": 12.911363636363635,
                "end_time": 12.979545454545454,
                "pitch": 66,
                "velocity": 51,
                "duration": 0.06818181818181834,
                "tempo": 120.0
            },
            {
                "start_time": 13.11590909090909,
                "end_time": 13.184090909090909,
                "pitch": 67,
                "velocity": 51,
                "duration": 0.06818181818181834,
                "tempo": 120.0
            },
            {
                "start_time": 13.318181818181818,
                "end_time": 13.384090909090908,
                "pitch": 66,
                "velocity": 51,
                "duration": 0.06590909090908958,
                "tempo": 120.0
            },
            {
                "start_time": 13.513636363636364,
                "end_time": 13.579545454545453,
                "pitch": 64,
                "velocity": 51,
                "duration": 0.06590909090908958,
                "tempo": 120.0
            },
            {
                "start_time": 13.611363636363636,
                "end_time": 13.679545454545455,
                "pitch": 62,
                "velocity": 51,
                "duration": 0.06818181818181834,
                "tempo": 120.0
            },
            {
                "start_time": 13.813636363636363,
                "end_time": 13.879545454545454,
                "pitch": 67,
                "velocity": 51,
                "duration": 0.06590909090909136,
                "tempo": 120.0
            },
            {
                "start_time": 14.013636363636364,
                "end_time": 14.081818181818182,
                "pitch": 66,
                "velocity": 51,
                "duration": 0.06818181818181834,
                "tempo": 120.0
            },
            {
                "start_time": 14.11590909090909,
                "end_time": 14.181818181818182,
                "pitch": 64,
                "velocity": 51,
                "duration": 0.06590909090909136,
                "tempo": 120.0
            },
            {
                "start_time": 14.31590909090909,
                "end_time": 14.484090909090908,
                "pitch": 62,
                "velocity": 51,
                "duration": 0.168181818181818,
                "tempo": 120.0
            },
            {
                "start_time": 14.518181818181818,
                "end_time": 14.588636363636363,
                "pitch": 61,
                "velocity": 51,
                "duration": 0.07045454545454533,
                "tempo": 120.0
            },
            {
                "start_time": 14.725,
                "end_time": 14.793181818181818,
                "pitch": 62,
                "velocity": 51,
                "duration": 0.06818181818181834,
                "tempo": 120.0
            },
            {
                "start_time": 14.927272727272726,
                "end_time": 14.99090909090909,
                "pitch": 64,
                "velocity": 51,
                "duration": 0.06363636363636438,
                "tempo": 120.0
            },
            {
                "start_time": 15.122727272727271,
                "end_time": 15.188636363636363,
                "pitch": 59,
                "velocity": 51,
                "duration": 0.06590909090909136,
                "tempo": 120.0
            },
            {
                "start_time": 15.220454545454544,
                "end_time": 15.286363636363635,
                "pitch": 61,
                "velocity": 51,
                "duration": 0.06590909090909136,
                "tempo": 120.0
            },
            {
                "start_time": 15.420454545454545,
                "end_time": 15.488636363636363,
                "pitch": 62,
                "velocity": 51,
                "duration": 0.06818181818181834,
                "tempo": 120.0
            },
            {
                "start_time": 15.622727272727271,
                "end_time": 15.69090909090909,
                "pitch": 64,
                "velocity": 51,
                "duration": 0.06818181818181834,
                "tempo": 120.0
            },
            {
                "start_time": 15.722727272727273,
                "end_time": 16.09318181818182,
                "pitch": 69,
                "velocity": 51,
                "duration": 0.37045454545454604,
                "tempo": 120.0
            },
            {
                "start_time": 16.127272727272725,
                "end_time": 16.402272727272727,
                "pitch": 59,
                "velocity": 51,
                "duration": 0.27500000000000213,
                "tempo": 120.0
            },
            {
                "start_time": 16.436363636363634,
                "end_time": 16.69772727272727,
                "pitch": 61,
                "velocity": 51,
                "duration": 0.2613636363636367,
                "tempo": 120.0
            },
            {
                "start_time": 16.73181818181818,
                "end_time": 16.895454545454545,
                "pitch": 62,
                "velocity": 51,
                "duration": 0.16363636363636402,
                "tempo": 120.0
            },
            {
                "start_time": 16.929545454545455,
                "end_time": 17.204545454545453,
                "pitch": 64,
                "velocity": 51,
                "duration": 0.2749999999999986,
                "tempo": 120.0
            },
            {
                "start_time": 17.238636363636363,
                "end_time": 17.5,
                "pitch": 62,
                "velocity": 51,
                "duration": 0.2613636363636367,
                "tempo": 120.0
            },
            {
                "start_time": 17.534090909090907,
                "end_time": 17.69772727272727,
                "pitch": 61,
                "velocity": 51,
                "duration": 0.16363636363636402,
                "tempo": 120.0
            },
            {
                "start_time": 17.73181818181818,
                "end_time": 18.297727272727272,
                "pitch": 69,
                "velocity": 51,
                "duration": 0.5659090909090914,
                "tempo": 120.0
            },
            {
                "start_time": 18.331818181818182,
                "end_time": 18.397727272727273,
                "pitch": 67,
                "velocity": 51,
                "duration": 0.06590909090909136,
                "tempo": 120.0
            },
            {
                "start_time": 18.43181818181818,
                "end_time": 18.49772727272727,
                "pitch": 66,
                "velocity": 51,
                "duration": 0.06590909090909136,
                "tempo": 120.0
            },
            {
                "start_time": 18.53181818181818,
                "end_time": 19.302272727272726,
                "pitch": 64,
                "velocity": 51,
                "duration": 0.7704545454545446,
                "tempo": 120.0
            },
            {
                "start_time": 19.336363636363636,
                "end_time": 19.404545454545453,
                "pitch": 56,
                "velocity": 51,
                "duration": 0.06818181818181657,
                "tempo": 120.0
            },
            {
                "start_time": 19.438636363636363,
                "end_time": 20.90681818181818,
                "pitch": 57,
                "velocity": 51,
                "duration": 1.4681818181818187,
                "tempo": 120.0
            },
            {
                "start_time": 20.938636363636363,
                "end_time": 21.30681818181818,
                "pitch": 62,
                "velocity": 51,
                "duration": 0.3681818181818173,
                "tempo": 120.0
            },
            {
                "start_time": 21.34090909090909,
                "end_time": 21.50681818181818,
                "pitch": 61,
                "velocity": 51,
                "duration": 0.16590909090908923,
                "tempo": 120.0
            },
            {
                "start_time": 21.54090909090909,
                "end_time": 22.30909090909091,
                "pitch": 59,
                "velocity": 51,
                "duration": 0.7681818181818194,
                "tempo": 120.0
            },
            {
                "start_time": 22.34090909090909,
                "end_time": 22.409090909090907,
                "pitch": 54,
                "velocity": 51,
                "duration": 0.06818181818181657,
                "tempo": 120.0
            },
            {
                "start_time": 22.44090909090909,
                "end_time": 22.509090909090908,
                "pitch": 55,
                "velocity": 51,
                "duration": 0.06818181818181657,
                "tempo": 120.0
            },
            {
                "start_time": 22.543181818181818,
                "end_time": 24.11590909090909,
                "pitch": 57,
                "velocity": 51,
                "duration": 1.5727272727272705,
                "tempo": 120.0
            },
            {
                "start_time": 24.15,
                "end_time": 24.525,
                "pitch": 62,
                "velocity": 51,
                "duration": 0.375,
                "tempo": 120.0
            },
            {
                "start_time": 24.55681818181818,
                "end_time": 24.720454545454544,
                "pitch": 61,
                "velocity": 51,
                "duration": 0.16363636363636402,
                "tempo": 120.0
            },
            {
                "start_time": 24.752272727272725,
                "end_time": 25.720454545454544,
                "pitch": 64,
                "velocity": 51,
                "duration": 0.9681818181818187,
                "tempo": 120.0
            },
            {
                "start_time": 25.754545454545454,
                "end_time": 25.82272727272727,
                "pitch": 66,
                "velocity": 51,
                "duration": 0.06818181818181657,
                "tempo": 120.0
            },
            {
                "start_time": 25.961363636363636,
                "end_time": 26.029545454545453,
                "pitch": 67,
                "velocity": 51,
                "duration": 0.06818181818181657,
                "tempo": 120.0
            },
            {
                "start_time": 26.161363636363635,
                "end_time": 26.227272727272727,
                "pitch": 66,
                "velocity": 51,
                "duration": 0.06590909090909136,
                "tempo": 120.0
            },
            {
                "start_time": 26.35909090909091,
                "end_time": 26.422727272727272,
                "pitch": 64,
                "velocity": 51,
                "duration": 0.0636363636363626,
                "tempo": 120.0
            },
            {
                "start_time": 26.456818181818182,
                "end_time": 26.52272727272727,
                "pitch": 62,
                "velocity": 51,
                "duration": 0.06590909090908781,
                "tempo": 120.0
            },
            {
                "start_time": 26.65681818181818,
                "end_time": 26.724999999999998,
                "pitch": 67,
                "velocity": 51,
                "duration": 0.06818181818181657,
                "tempo": 120.0
            },
            {
                "start_time": 26.85909090909091,
                "end_time": 26.924999999999997,
                "pitch": 66,
                "velocity": 51,
                "duration": 0.06590909090908781,
                "tempo": 120.0
            },
            {
                "start_time": 26.959090909090907,
                "end_time": 27.025,
                "pitch": 64,
                "velocity": 51,
                "duration": 0.06590909090909136,
                "tempo": 120.0
            },
            {
                "start_time": 27.159090909090907,
                "end_time": 27.327272727272724,
                "pitch": 62,
                "velocity": 51,
                "duration": 0.168181818181818,
                "tempo": 120.0
            },
            {
                "start_time": 27.361363636363635,
                "end_time": 27.46363636363636,
                "pitch": 61,
                "velocity": 51,
                "duration": 0.10227272727272663,
                "tempo": 120.0
            },
            {
                "start_time": 27.49772727272727,
                "end_time": 27.599999999999998,
                "pitch": 62,
                "velocity": 51,
                "duration": 0.10227272727272663,
                "tempo": 120.0
            },
            {
                "start_time": 27.634090909090908,
                "end_time": 27.73409090909091,
                "pitch": 64,
                "velocity": 51,
                "duration": 0.10000000000000142,
                "tempo": 120.0
            },
            {
                "start_time": 27.768181818181816,
                "end_time": 27.86590909090909,
                "pitch": 59,
                "velocity": 51,
                "duration": 0.09772727272727266,
                "tempo": 120.0
            },
            {
                "start_time": 27.89772727272727,
                "end_time": 27.99772727272727,
                "pitch": 61,
                "velocity": 51,
                "duration": 0.10000000000000142,
                "tempo": 120.0
            },
            {
                "start_time": 28.029545454545453,
                "end_time": 28.127272727272725,
                "pitch": 62,
                "velocity": 51,
                "duration": 0.09772727272727266,
                "tempo": 120.0
            },
            {
                "start_time": 28.161363636363635,
                "end_time": 28.261363636363637,
                "pitch": 64,
                "velocity": 51,
                "duration": 0.10000000000000142,
                "tempo": 120.0
            },
            {
                "start_time": 28.295454545454543,
                "end_time": 28.395454545454545,
                "pitch": 67,
                "velocity": 51,
                "duration": 0.10000000000000142,
                "tempo": 120.0
            },
            {
                "start_time": 28.427272727272726,
                "end_time": 28.529545454545453,
                "pitch": 64,
                "velocity": 51,
                "duration": 0.10227272727272663,
                "tempo": 120.0
            },
            {
                "start_time": 28.561363636363634,
                "end_time": 28.66363636363636,
                "pitch": 66,
                "velocity": 51,
                "duration": 0.10227272727272663,
                "tempo": 120.0
            },
            {
                "start_time": 28.695454545454545,
                "end_time": 28.797727272727272,
                "pitch": 64,
                "velocity": 51,
                "duration": 0.10227272727272663,
                "tempo": 120.0
            },
            {
                "start_time": 28.829545454545453,
                "end_time": 28.93181818181818,
                "pitch": 62,
                "velocity": 51,
                "duration": 0.10227272727272663,
                "tempo": 120.0
            },
            {
                "start_time": 28.96363636363636,
                "end_time": 29.93409090909091,
                "pitch": 61,
                "velocity": 51,
                "duration": 0.9704545454545475,
                "tempo": 120.0
            },
            {
                "start_time": 29.96590909090909,
                "end_time": 30.334090909090907,
                "pitch": 69,
                "velocity": 51,
                "duration": 0.3681818181818173,
                "tempo": 120.0
            },
            {
                "start_time": 30.36590909090909,
                "end_time": 30.534090909090907,
                "pitch": 67,
                "velocity": 51,
                "duration": 0.168181818181818,
                "tempo": 120.0
            },
            {
                "start_time": 30.568181818181817,
                "end_time": 31.136363636363633,
                "pitch": 66,
                "velocity": 51,
                "duration": 0.5681818181818166,
                "tempo": 120.0
            },
            {
                "start_time": 31.170454545454543,
                "end_time": 31.236363636363635,
                "pitch": 67,
                "velocity": 51,
                "duration": 0.06590909090909136,
                "tempo": 120.0
            },
            {
                "start_time": 31.270454545454545,
                "end_time": 31.334090909090907,
                "pitch": 66,
                "velocity": 51,
                "duration": 0.0636363636363626,
                "tempo": 120.0
            },
            {
                "start_time": 31.368181818181817,
                "end_time": 32.14090909090909,
                "pitch": 64,
                "velocity": 51,
                "duration": 0.7727272727272734,
                "tempo": 120.0
            },
            {
                "start_time": 32.175,
                "end_time": 32.44772727272727,
                "pitch": 55,
                "velocity": 51,
                "duration": 0.2727272727272734,
                "tempo": 120.0
            },
            {
                "start_time": 32.48181818181818,
                "end_time": 32.74545454545454,
                "pitch": 54,
                "velocity": 51,
                "duration": 0.26363636363636545,
                "tempo": 120.0
            },
            {
                "start_time": 32.777272727272724,
                "end_time": 32.94318181818182,
                "pitch": 52,
                "velocity": 51,
                "duration": 0.16590909090909634,
                "tempo": 120.0
            },
            {
                "start_time": 32.975,
                "end_time": 33.543181818181814,
                "pitch": 50,
                "velocity": 51,
                "duration": 0.568181818181813,
                "tempo": 120.0
            },
            {
                "start_time": 33.574999999999996,
                "end_time": 33.643181818181816,
                "pitch": 59,
                "velocity": 51,
                "duration": 0.06818181818182012,
                "tempo": 120.0
            },
            {
                "start_time": 33.675,
                "end_time": 33.74318181818182,
                "pitch": 61,
                "velocity": 51,
                "duration": 0.06818181818182012,
                "tempo": 120.0
            },
            {
                "start_time": 33.777272727272724,
                "end_time": 34.345454545454544,
                "pitch": 62,
                "velocity": 51,
                "duration": 0.5681818181818201,
                "tempo": 120.0
            },
            {
                "start_time": 34.377272727272725,
                "end_time": 34.41136363636363,
                "pitch": 61,
                "velocity": 51,
                "duration": 0.03409090909090651,
                "tempo": 120.0
            },
            {
                "start_time": 34.445454545454545,
                "end_time": 34.47727272727273,
                "pitch": 62,
                "velocity": 51,
                "duration": 0.0318181818181813,
                "tempo": 120.0
            },
            {
                "start_time": 34.51136363636363,
                "end_time": 34.54545454545455,
                "pitch": 61,
                "velocity": 51,
                "duration": 0.03409090909091361,
                "tempo": 120.0
            },
            {
                "start_time": 34.57954545454545,
                "end_time": 35.33863636363636,
                "pitch": 50,
                "velocity": 51,
                "duration": 0.7590909090909079,
                "tempo": 120.0
            },
            {
                "start_time": 35.37272727272727,
                "end_time": 35.75681818181818,
                "pitch": 66,
                "velocity": 51,
                "duration": 0.38409090909091503,
                "tempo": 120.0
            },
            {
                "start_time": 35.79090909090909,
                "end_time": 35.95454545454545,
                "pitch": 62,
                "velocity": 51,
                "duration": 0.16363636363636402,
                "tempo": 120.0
            },
            {
                "start_time": 35.986363636363635,
                "end_time": 36.35,
                "pitch": 64,
                "velocity": 51,
                "duration": 0.36363636363636687,
                "tempo": 120.0
            },
            {
                "start_time": 36.38409090909091,
                "end_time": 36.75,
                "pitch": 66,
                "velocity": 51,
                "duration": 0.36590909090909207,
                "tempo": 120.0
            },
            {
                "start_time": 36.78409090909091,
                "end_time": 36.949999999999996,
                "pitch": 67,
                "velocity": 51,
                "duration": 0.16590909090908923,
                "tempo": 120.0
            },
            {
                "start_time": 36.98409090909091,
                "end_time": 37.55,
                "pitch": 64,
                "velocity": 51,
                "duration": 0.5659090909090878,
                "tempo": 120.0
            },
            {
                "start_time": 37.58409090909091,
                "end_time": 37.75,
                "pitch": 57,
                "velocity": 51,
                "duration": 0.16590909090908923,
                "tempo": 120.0
            },
            {
                "start_time": 37.78409090909091,
                "end_time": 38.54772727272727,
                "pitch": 57,
                "velocity": 51,
                "duration": 0.7636363636363654,
                "tempo": 120.0
            },
            {
                "start_time": 38.58181818181818,
                "end_time": 38.86363636363636,
                "pitch": 67,
                "velocity": 51,
                "duration": 0.2818181818181813,
                "tempo": 120.0
            },
            {
                "start_time": 38.9,
                "end_time": 39.16136363636363,
                "pitch": 66,
                "velocity": 51,
                "duration": 0.26136363636363313,
                "tempo": 120.0
            },
            {
                "start_time": 39.195454545454545,
                "end_time": 39.35909090909091,
                "pitch": 64,
                "velocity": 51,
                "duration": 0.16363636363636402,
                "tempo": 120.0
            },
            {
                "start_time": 39.393181818181816,
                "end_time": 39.559090909090905,
                "pitch": 62,
                "velocity": 51,
                "duration": 0.16590909090908923,
                "tempo": 120.0
            },
            {
                "start_time": 39.59318181818182,
                "end_time": 39.961363636363636,
                "pitch": 69,
                "velocity": 51,
                "duration": 0.3681818181818173,
                "tempo": 120.0
            },
            {
                "start_time": 39.99545454545454,
                "end_time": 40.16136363636363,
                "pitch": 66,
                "velocity": 51,
                "duration": 0.16590909090908923,
                "tempo": 120.0
            },
            {
                "start_time": 40.195454545454545,
                "end_time": 40.76136363636363,
                "pitch": 67,
                "velocity": 51,
                "duration": 0.5659090909090878,
                "tempo": 120.0
            },
            {
                "start_time": 40.79545454545455,
                "end_time": 40.82954545454545,
                "pitch": 66,
                "velocity": 51,
                "duration": 0.03409090909090651,
                "tempo": 120.0
            },
            {
                "start_time": 40.861363636363635,
                "end_time": 40.89545454545454,
                "pitch": 67,
                "velocity": 51,
                "duration": 0.03409090909090651,
                "tempo": 120.0
            },
            {
                "start_time": 40.929545454545455,
                "end_time": 40.96363636363636,
                "pitch": 66,
                "velocity": 51,
                "duration": 0.03409090909090651,
                "tempo": 120.0
            },
            {
                "start_time": 40.99772727272727,
                "end_time": 41.75454545454545,
                "pitch": 64,
                "velocity": 51,
                "duration": 0.7568181818181827,
                "tempo": 120.0
            },
            {
                "start_time": 41.79090909090909,
                "end_time": 42.07272727272727,
                "pitch": 64,
                "velocity": 51,
                "duration": 0.2818181818181813,
                "tempo": 120.0
            },
            {
                "start_time": 42.10681818181818,
                "end_time": 42.37045454545454,
                "pitch": 66,
                "velocity": 51,
                "duration": 0.26363636363636545,
                "tempo": 120.0
            },
            {
                "start_time": 42.40454545454545,
                "end_time": 42.56818181818181,
                "pitch": 67,
                "velocity": 51,
                "duration": 0.16363636363636402,
                "tempo": 120.0
            },
            {
                "start_time": 42.6,
                "end_time": 42.86818181818182,
                "pitch": 62,
                "velocity": 51,
                "duration": 0.26818181818181586,
                "tempo": 120.0
            },
            {
                "start_time": 42.9,
                "end_time": 43.168181818181814,
                "pitch": 64,
                "velocity": 51,
                "duration": 0.26818181818181586,
                "tempo": 120.0
            },
            {
                "start_time": 43.199999999999996,
                "end_time": 43.36590909090909,
                "pitch": 66,
                "velocity": 51,
                "duration": 0.16590909090909634,
                "tempo": 120.0
            },
            {
                "start_time": 43.4,
                "end_time": 43.965909090909086,
                "pitch": 66,
                "velocity": 51,
                "duration": 0.5659090909090878,
                "tempo": 120.0
            },
            {
                "start_time": 44.0,
                "end_time": 44.06818181818181,
                "pitch": 67,
                "velocity": 51,
                "duration": 0.06818181818181301,
                "tempo": 120.0
            },
            {
                "start_time": 44.10454545454545,
                "end_time": 44.17045454545455,
                "pitch": 66,
                "velocity": 51,
                "duration": 0.06590909090909491,
                "tempo": 120.0
            },
            {
                "start_time": 44.20227272727273,
                "end_time": 44.96818181818182,
                "pitch": 64,
                "velocity": 51,
                "duration": 0.7659090909090907,
                "tempo": 120.0
            },
            {
                "start_time": 45.002272727272725,
                "end_time": 45.07272727272727,
                "pitch": 62,
                "velocity": 51,
                "duration": 0.07045454545454533,
                "tempo": 120.0
            },
            {
                "start_time": 45.21363636363636,
                "end_time": 45.28409090909091,
                "pitch": 57,
                "velocity": 51,
                "duration": 0.07045454545454533,
                "tempo": 120.0
            },
            {
                "start_time": 45.418181818181814,
                "end_time": 45.48409090909091,
                "pitch": 64,
                "velocity": 51,
                "duration": 0.06590909090909491,
                "tempo": 120.0
            },
            {
                "start_time": 45.61590909090909,
                "end_time": 45.679545454545455,
                "pitch": 57,
                "velocity": 51,
                "duration": 0.0636363636363626,
                "tempo": 120.0
            },
            {
                "start_time": 45.71363636363636,
                "end_time": 45.77954545454545,
                "pitch": 66,
                "velocity": 51,
                "duration": 0.06590909090908781,
                "tempo": 120.0
            },
            {
                "start_time": 45.913636363636364,
                "end_time": 45.98181818181818,
                "pitch": 57,
                "velocity": 51,
                "duration": 0.06818181818181301,
                "tempo": 120.0
            },
            {
                "start_time": 46.01363636363636,
                "end_time": 46.08181818181818,
                "pitch": 64,
                "velocity": 51,
                "duration": 0.06818181818182012,
                "tempo": 120.0
            },
            {
                "start_time": 46.11590909090909,
                "end_time": 46.18181818181818,
                "pitch": 57,
                "velocity": 51,
                "duration": 0.06590909090908781,
                "tempo": 120.0
            },
            {
                "start_time": 46.215909090909086,
                "end_time": 46.28181818181818,
                "pitch": 62,
                "velocity": 51,
                "duration": 0.06590909090909491,
                "tempo": 120.0
            },
            {
                "start_time": 46.41590909090909,
                "end_time": 46.48181818181818,
                "pitch": 57,
                "velocity": 51,
                "duration": 0.06590909090908781,
                "tempo": 120.0
            },
            {
                "start_time": 46.61818181818182,
                "end_time": 46.68636363636364,
                "pitch": 62,
                "velocity": 51,
                "duration": 0.06818181818182012,
                "tempo": 120.0
            },
            {
                "start_time": 46.82272727272727,
                "end_time": 46.89090909090909,
                "pitch": 57,
                "velocity": 51,
                "duration": 0.06818181818182012,
                "tempo": 120.0
            },
            {
                "start_time": 47.025,
                "end_time": 47.090909090909086,
                "pitch": 64,
                "velocity": 51,
                "duration": 0.06590909090908781,
                "tempo": 120.0
            },
            {
                "start_time": 47.220454545454544,
                "end_time": 47.28636363636363,
                "pitch": 57,
                "velocity": 51,
                "duration": 0.06590909090908781,
                "tempo": 120.0
            },
            {
                "start_time": 47.31818181818181,
                "end_time": 47.38636363636363,
                "pitch": 66,
                "velocity": 51,
                "duration": 0.06818181818182012,
                "tempo": 120.0
            },
            {
                "start_time": 47.52272727272727,
                "end_time": 47.590909090909086,
                "pitch": 66,
                "velocity": 51,
                "duration": 0.06818181818181301,
                "tempo": 120.0
            },
            {
                "start_time": 47.625,
                "end_time": 47.69318181818181,
                "pitch": 67,
                "velocity": 51,
                "duration": 0.06818181818181301,
                "tempo": 120.0
            },
            {
                "start_time": 47.72727272727273,
                "end_time": 47.793181818181814,
                "pitch": 66,
                "velocity": 51,
                "duration": 0.06590909090908781,
                "tempo": 120.0
            },
            {
                "start_time": 47.824999999999996,
                "end_time": 47.98409090909091,
                "pitch": 64,
                "velocity": 51,
                "duration": 0.1590909090909136,
                "tempo": 120.0
            },
            {
                "start_time": 48.01590909090909,
                "end_time": 48.179545454545455,
                "pitch": 62,
                "velocity": 51,
                "duration": 0.16363636363636402,
                "tempo": 120.0
            },
            {
                "start_time": 48.21363636363636,
                "end_time": 48.28409090909091,
                "pitch": 62,
                "velocity": 51,
                "duration": 0.07045454545454533,
                "tempo": 120.0
            },
            {
                "start_time": 48.425,
                "end_time": 48.49545454545454,
                "pitch": 57,
                "velocity": 51,
                "duration": 0.07045454545454533,
                "tempo": 120.0
            },
            {
                "start_time": 48.63181818181818,
                "end_time": 48.699999999999996,
                "pitch": 64,
                "velocity": 51,
                "duration": 0.06818181818181301,
                "tempo": 120.0
            },
            {
                "start_time": 48.83181818181818,
                "end_time": 48.9,
                "pitch": 57,
                "velocity": 51,
                "duration": 0.06818181818182012,
                "tempo": 120.0
            },
            {
                "start_time": 48.93181818181818,
                "end_time": 48.99772727272727,
                "pitch": 66,
                "velocity": 51,
                "duration": 0.06590909090908781,
                "tempo": 120.0
            },
            {
                "start_time": 49.12954545454545,
                "end_time": 49.195454545454545,
                "pitch": 57,
                "velocity": 51,
                "duration": 0.06590909090909491,
                "tempo": 120.0
            },
            {
                "start_time": 49.22727272727273,
                "end_time": 49.293181818181814,
                "pitch": 64,
                "velocity": 51,
                "duration": 0.06590909090908781,
                "tempo": 120.0
            },
            {
                "start_time": 49.324999999999996,
                "end_time": 49.39090909090909,
                "pitch": 57,
                "velocity": 51,
                "duration": 0.06590909090909491,
                "tempo": 120.0
            },
            {
                "start_time": 49.425,
                "end_time": 49.490909090909085,
                "pitch": 62,
                "velocity": 51,
                "duration": 0.06590909090908781,
                "tempo": 120.0
            },
            {
                "start_time": 49.625,
                "end_time": 49.69090909090909,
                "pitch": 57,
                "velocity": 51,
                "duration": 0.06590909090908781,
                "tempo": 120.0
            },
            {
                "start_time": 49.82727272727273,
                "end_time": 49.89545454545454,
                "pitch": 62,
                "velocity": 51,
                "duration": 0.06818181818181301,
                "tempo": 120.0
            },
            {
                "start_time": 50.03181818181818,
                "end_time": 50.099999999999994,
                "pitch": 57,
                "velocity": 51,
                "duration": 0.06818181818181301,
                "tempo": 120.0
            },
            {
                "start_time": 50.236363636363635,
                "end_time": 50.30227272727272,
                "pitch": 64,
                "velocity": 51,
                "duration": 0.06590909090908781,
                "tempo": 120.0
            },
            {
                "start_time": 50.43636363636364,
                "end_time": 50.502272727272725,
                "pitch": 57,
                "velocity": 51,
                "duration": 0.06590909090908781,
                "tempo": 120.0
            },
            {
                "start_time": 50.53636363636363,
                "end_time": 50.60227272727273,
                "pitch": 66,
                "velocity": 51,
                "duration": 0.06590909090909491,
                "tempo": 120.0
            },
            {
                "start_time": 50.73181818181818,
                "end_time": 50.79772727272727,
                "pitch": 57,
                "velocity": 51,
                "duration": 0.06590909090909491,
                "tempo": 120.0
            },
            {
                "start_time": 50.82954545454545,
                "end_time": 50.89545454545454,
                "pitch": 64,
                "velocity": 51,
                "duration": 0.06590909090908781,
                "tempo": 120.0
            },
            {
                "start_time": 50.92727272727272,
                "end_time": 50.99545454545454,
                "pitch": 57,
                "velocity": 51,
                "duration": 0.06818181818182012,
                "tempo": 120.0
            },
            {
                "start_time": 51.027272727272724,
                "end_time": 51.39545454545454,
                "pitch": 64,
                "velocity": 51,
                "duration": 0.3681818181818173,
                "tempo": 120.0
            },
            {
                "start_time": 51.429545454545455,
                "end_time": 51.49772727272727,
                "pitch": 62,
                "velocity": 51,
                "duration": 0.06818181818181301,
                "tempo": 120.0
            },
            {
                "start_time": 51.63409090909091,
                "end_time": 51.70454545454545,
                "pitch": 57,
                "velocity": 51,
                "duration": 0.07045454545454533,
                "tempo": 120.0
            },
            {
                "start_time": 51.836363636363636,
                "end_time": 51.902272727272724,
                "pitch": 64,
                "velocity": 51,
                "duration": 0.06590909090908781,
                "tempo": 120.0
            },
            {
                "start_time": 52.03409090909091,
                "end_time": 52.09772727272727,
                "pitch": 57,
                "velocity": 51,
                "duration": 0.0636363636363626,
                "tempo": 120.0
            },
            {
                "start_time": 52.13181818181818,
                "end_time": 52.195454545454545,
                "pitch": 66,
                "velocity": 51,
                "duration": 0.0636363636363626,
                "tempo": 120.0
            },
            {
                "start_time": 52.32727272727273,
                "end_time": 52.393181818181816,
                "pitch": 57,
                "velocity": 51,
                "duration": 0.06590909090908781,
                "tempo": 120.0
            },
            {
                "start_time": 52.425,
                "end_time": 52.490909090909085,
                "pitch": 64,
                "velocity": 51,
                "duration": 0.06590909090908781,
                "tempo": 120.0
            },
            {
                "start_time": 52.52272727272727,
                "end_time": 52.590909090909086,
                "pitch": 57,
                "velocity": 51,
                "duration": 0.06818181818181301,
                "tempo": 120.0
            },
            {
                "start_time": 52.625,
                "end_time": 52.69318181818181,
                "pitch": 62,
                "velocity": 51,
                "duration": 0.06818181818181301,
                "tempo": 120.0
            },
            {
                "start_time": 52.82954545454545,
                "end_time": 52.89772727272727,
                "pitch": 57,
                "velocity": 51,
                "duration": 0.06818181818182012,
                "tempo": 120.0
            },
            {
                "start_time": 53.03409090909091,
                "end_time": 53.099999999999994,
                "pitch": 62,
                "velocity": 51,
                "duration": 0.06590909090908781,
                "tempo": 120.0
            },
            {
                "start_time": 53.23409090909091,
                "end_time": 53.3,
                "pitch": 57,
                "velocity": 51,
                "duration": 0.06590909090908781,
                "tempo": 120.0
            },
            {
                "start_time": 53.43636363636363,
                "end_time": 53.50454545454545,
                "pitch": 64,
                "velocity": 51,
                "duration": 0.06818181818182012,
                "tempo": 120.0
            },
            {
                "start_time": 53.64090909090909,
                "end_time": 53.709090909090904,
                "pitch": 57,
                "velocity": 51,
                "duration": 0.06818181818181301,
                "tempo": 120.0
            },
            {
                "start_time": 53.74318181818182,
                "end_time": 53.809090909090905,
                "pitch": 66,
                "velocity": 51,
                "duration": 0.06590909090908781,
                "tempo": 120.0
            },
            {
                "start_time": 53.94090909090909,
                "end_time": 54.00681818181818,
                "pitch": 66,
                "velocity": 51,
                "duration": 0.06590909090909491,
                "tempo": 120.0
            },
            {
                "start_time": 54.038636363636364,
                "end_time": 54.10454545454545,
                "pitch": 67,
                "velocity": 51,
                "duration": 0.06590909090908781,
                "tempo": 120.0
            },
            {
                "start_time": 54.13636363636363,
                "end_time": 54.20227272727273,
                "pitch": 66,
                "velocity": 51,
                "duration": 0.06590909090909491,
                "tempo": 120.0
            },
            {
                "start_time": 54.236363636363635,
                "end_time": 54.402272727272724,
                "pitch": 64,
                "velocity": 51,
                "duration": 0.16590909090908923,
                "tempo": 120.0
            },
            {
                "start_time": 54.43636363636363,
                "end_time": 54.60454545454545,
                "pitch": 62,
                "velocity": 51,
                "duration": 0.16818181818182154,
                "tempo": 120.0
            },
            {
                "start_time": 54.63863636363636,
                "end_time": 54.70681818181818,
                "pitch": 62,
                "velocity": 51,
                "duration": 0.06818181818182012,
                "tempo": 120.0
            },
            {
                "start_time": 54.84318181818182,
                "end_time": 54.91136363636363,
                "pitch": 57,
                "velocity": 51,
                "duration": 0.06818181818181301,
                "tempo": 120.0
            },
            {
                "start_time": 55.04545454545454,
                "end_time": 55.111363636363635,
                "pitch": 64,
                "velocity": 51,
                "duration": 0.06590909090909491,
                "tempo": 120.0
            },
            {
                "start_time": 55.240909090909085,
                "end_time": 55.30681818181818,
                "pitch": 57,
                "velocity": 51,
                "duration": 0.06590909090909491,
                "tempo": 120.0
            },
            {
                "start_time": 55.340909090909086,
                "end_time": 55.40454545454545,
                "pitch": 66,
                "velocity": 51,
                "duration": 0.0636363636363626,
                "tempo": 120.0
            },
            {
                "start_time": 55.53636363636363,
                "end_time": 55.60227272727273,
                "pitch": 57,
                "velocity": 51,
                "duration": 0.06590909090909491,
                "tempo": 120.0
            },
            {
                "start_time": 55.63409090909091,
                "end_time": 55.699999999999996,
                "pitch": 64,
                "velocity": 51,
                "duration": 0.06590909090908781,
                "tempo": 120.0
            },
            {
                "start_time": 55.73181818181818,
                "end_time": 55.8,
                "pitch": 57,
                "velocity": 51,
                "duration": 0.06818181818182012,
                "tempo": 120.0
            },
            {
                "start_time": 55.834090909090904,
                "end_time": 55.902272727272724,
                "pitch": 62,
                "velocity": 51,
                "duration": 0.06818181818182012,
                "tempo": 120.0
            },
            {
                "start_time": 56.038636363636364,
                "end_time": 56.10681818181818,
                "pitch": 57,
                "velocity": 51,
                "duration": 0.06818181818181301,
                "tempo": 120.0
            },
            {
                "start_time": 56.24545454545454,
                "end_time": 56.31363636363636,
                "pitch": 62,
                "velocity": 51,
                "duration": 0.06818181818182012,
                "tempo": 120.0
            },
            {
                "start_time": 56.449999999999996,
                "end_time": 56.518181818181816,
                "pitch": 57,
                "velocity": 51,
                "duration": 0.06818181818182012,
                "tempo": 120.0
            },
            {
                "start_time": 56.652272727272724,
                "end_time": 56.71818181818182,
                "pitch": 64,
                "velocity": 51,
                "duration": 0.06590909090909491,
                "tempo": 120.0
            },
            {
                "start_time": 56.84772727272727,
                "end_time": 56.913636363636364,
                "pitch": 57,
                "velocity": 51,
                "duration": 0.06590909090909491,
                "tempo": 120.0
            },
            {
                "start_time": 57.04545454545454,
                "end_time": 57.111363636363635,
                "pitch": 55,
                "velocity": 51,
                "duration": 0.06590909090909491,
                "tempo": 120.0
            },
            {
                "start_time": 57.14545454545454,
                "end_time": 57.211363636363636,
                "pitch": 57,
                "velocity": 51,
                "duration": 0.06590909090909491,
                "tempo": 120.0
            },
            {
                "start_time": 57.345454545454544,
                "end_time": 57.41136363636363,
                "pitch": 59,
                "velocity": 51,
                "duration": 0.06590909090908781,
                "tempo": 120.0
            },
            {
                "start_time": 57.54090909090909,
                "end_time": 57.60681818181818,
                "pitch": 61,
                "velocity": 51,
                "duration": 0.06590909090908781,
                "tempo": 120.0
            },
            {
                "start_time": 57.73863636363636,
                "end_time": 57.77045454545454,
                "pitch": 64,
                "velocity": 51,
                "duration": 0.0318181818181813,
                "tempo": 120.0
            }
        ]
    }
}