{
    "track_id": "Galactic Protector (FM) - 02 - Earth Round",
    "mood": "happy",
    "instruments": {
        "Violin": [
            {
                "start_time": 0.013636363636363636,
                "end_time": 0.9272727272727272,
                "pitch": 84,
                "velocity": 101,
                "duration": 0.9136363636363636,
                "tempo": 120.0
            },
            {
                "start_time": 0.9431818181818181,
                "end_time": 1.0727272727272728,
                "pitch": 84,
                "velocity": 101,
                "duration": 0.12954545454545463,
                "tempo": 120.0
            },
            {
                "start_time": 1.0886363636363636,
                "end_time": 2.1295454545454544,
                "pitch": 84,
                "velocity": 101,
                "duration": 1.0409090909090908,
                "tempo": 120.0
            },
            {
                "start_time": 2.752272727272727,
                "end_time": 3.036363636363636,
                "pitch": 81,
                "velocity": 101,
                "duration": 0.28409090909090917,
                "tempo": 120.0
            },
            {
                "start_time": 3.0522727272727272,
                "end_time": 3.3363636363636364,
                "pitch": 81,
                "velocity": 101,
                "duration": 0.28409090909090917,
                "tempo": 120.0
            },
            {
                "start_time": 3.3545454545454545,
                "end_time": 3.4863636363636363,
                "pitch": 81,
                "velocity": 101,
                "duration": 0.13181818181818183,
                "tempo": 120.0
            },
            {
                "start_time": 3.5045454545454544,
                "end_time": 4.838636363636363,
                "pitch": 82,
                "velocity": 101,
                "duration": 1.3340909090909085,
                "tempo": 120.0
            },
            {
                "start_time": 4.8568181818181815,
                "end_time": 5.74090909090909,
                "pitch": 84,
                "velocity": 101,
                "duration": 0.8840909090909088,
                "tempo": 120.0
            },
            {
                "start_time": 5.756818181818182,
                "end_time": 5.890909090909091,
                "pitch": 84,
                "velocity": 101,
                "duration": 0.13409090909090882,
                "tempo": 120.0
            },
            {
                "start_time": 5.906818181818181,
                "end_time": 7.4818181818181815,
                "pitch": 84,
                "velocity": 101,
                "duration": 1.5750000000000002,
                "tempo": 120.0
            },
            {
                "start_time": 7.502272727272727,
                "end_time": 7.66590909090909,
                "pitch": 81,
                "velocity": 101,
                "duration": 0.16363636363636314,
                "tempo": 120.0
            },
            {
                "start_time": 7.686363636363636,
                "end_time": 7.725,
                "pitch": 81,
                "velocity": 101,
                "duration": 0.038636363636364024,
                "tempo": 120.0
            },
            {
                "start_time": 8.179545454545455,
                "end_time": 8.313636363636363,
                "pitch": 81,
                "velocity": 101,
                "duration": 0.13409090909090793,
                "tempo": 120.0
            },
            {
                "start_time": 8.329545454545453,
                "end_time": 8.345454545454546,
                "pitch": 81,
                "velocity": 101,
                "duration": 0.015909090909092427,
                "tempo": 120.0
            },
            {
                "start_time": 8.920454545454545,
                "end_time": 9.213636363636363,
                "pitch": 82,
                "velocity": 101,
                "duration": 0.293181818181818,
                "tempo": 120.0
            },
            {
                "start_time": 9.23181818181818,
                "end_time": 9.51590909090909,
                "pitch": 82,
                "velocity": 101,
                "duration": 0.28409090909091006,
                "tempo": 120.0
            },
            {
                "start_time": 9.531818181818181,
                "end_time": 9.818181818181818,
                "pitch": 82,
                "velocity": 101,
                "duration": 0.28636363636363704,
                "tempo": 120.0
            },
            {
                "start_time": 9.834090909090909,
                "end_time": 10.720454545454546,
                "pitch": 81,
                "velocity": 101,
                "duration": 0.8863636363636367,
                "tempo": 120.0
            },
            {
                "start_time": 10.736363636363636,
                "end_time": 11.020454545454545,
                "pitch": 77,
                "velocity": 101,
                "duration": 0.2840909090909083,
                "tempo": 120.0
            },
            {
                "start_time": 11.036363636363635,
                "end_time": 11.622727272727273,
                "pitch": 84,
                "velocity": 101,
                "duration": 0.5863636363636378,
                "tempo": 120.0
            },
            {
                "start_time": 11.638636363636364,
                "end_time": 11.772727272727272,
                "pitch": 84,
                "velocity": 101,
                "duration": 0.13409090909090793,
                "tempo": 120.0
            },
            {
                "start_time": 11.788636363636362,
                "end_time": 12.072727272727272,
                "pitch": 82,
                "velocity": 101,
                "duration": 0.28409090909091006,
                "tempo": 120.0
            },
            {
                "start_time": 12.09090909090909,
                "end_time": 12.222727272727273,
                "pitch": 81,
                "velocity": 101,
                "duration": 0.13181818181818272,
                "tempo": 120.0
            },
            {
                "start_time": 12.24090909090909,
                "end_time": 13.125,
                "pitch": 82,
                "velocity": 101,
                "duration": 0.8840909090909097,
                "tempo": 120.0
            },
            {
                "start_time": 13.143181818181818,
                "end_time": 13.427272727272726,
                "pitch": 79,
                "velocity": 101,
                "duration": 0.2840909090909083,
                "tempo": 120.0
            },
            {
                "start_time": 13.443181818181818,
                "end_time": 14.029545454545454,
                "pitch": 87,
                "velocity": 101,
                "duration": 0.586363636363636,
                "tempo": 120.0
            },
            {
                "start_time": 14.045454545454545,
                "end_time": 14.179545454545455,
                "pitch": 87,
                "velocity": 101,
                "duration": 0.1340909090909097,
                "tempo": 120.0
            },
            {
                "start_time": 14.195454545454545,
                "end_time": 14.479545454545454,
                "pitch": 86,
                "velocity": 101,
                "duration": 0.2840909090909083,
                "tempo": 120.0
            },
            {
                "start_time": 14.497727272727271,
                "end_time": 14.547727272727272,
                "pitch": 84,
                "velocity": 101,
                "duration": 0.05000000000000071,
                "tempo": 120.0
            },
            {
                "start_time": 14.947727272727272,
                "end_time": 15.23181818181818,
                "pitch": 80,
                "velocity": 101,
                "duration": 0.2840909090909083,
                "tempo": 120.0
            },
            {
                "start_time": 15.247727272727271,
                "end_time": 15.534090909090908,
                "pitch": 80,
                "velocity": 101,
                "duration": 0.28636363636363704,
                "tempo": 120.0
            },
            {
                "start_time": 15.549999999999999,
                "end_time": 15.834090909090909,
                "pitch": 82,
                "velocity": 101,
                "duration": 0.28409090909091006,
                "tempo": 120.0
            },
            {
                "start_time": 15.852272727272727,
                "end_time": 16.436363636363634,
                "pitch": 84,
                "velocity": 101,
                "duration": 0.5840909090909072,
                "tempo": 120.0
            },
            {
                "start_time": 16.452272727272728,
                "end_time": 16.736363636363635,
                "pitch": 84,
                "velocity": 101,
                "duration": 0.2840909090909065,
                "tempo": 120.0
            },
            {
                "start_time": 16.752272727272725,
                "end_time": 17.038636363636364,
                "pitch": 84,
                "velocity": 101,
                "duration": 0.2863636363636388,
                "tempo": 120.0
            },
            {
                "start_time": 17.054545454545455,
                "end_time": 17.94090909090909,
                "pitch": 86,
                "velocity": 101,
                "duration": 0.8863636363636367,
                "tempo": 120.0
            },
            {
                "start_time": 17.956818181818182,
                "end_time": 18.243181818181817,
                "pitch": 86,
                "velocity": 101,
                "duration": 0.28636363636363527,
                "tempo": 120.0
            },
            {
                "start_time": 18.259090909090908,
                "end_time": 18.388636363636362,
                "pitch": 82,
                "velocity": 101,
                "duration": 0.12954545454545396,
                "tempo": 120.0
            },
            {
                "start_time": 18.404545454545453,
                "end_time": 18.534090909090907,
                "pitch": 84,
                "velocity": 101,
                "duration": 0.12954545454545396,
                "tempo": 120.0
            },
            {
                "start_time": 18.55,
                "end_time": 18.688636363636363,
                "pitch": 86,
                "velocity": 101,
                "duration": 0.1386363636363619,
                "tempo": 120.0
            },
            {
                "start_time": 18.704545454545453,
                "end_time": 18.99090909090909,
                "pitch": 86,
                "velocity": 101,
                "duration": 0.28636363636363527,
                "tempo": 120.0
            },
            {
                "start_time": 19.00681818181818,
                "end_time": 19.136363636363637,
                "pitch": 86,
                "velocity": 101,
                "duration": 0.12954545454545752,
                "tempo": 120.0
            },
            {
                "start_time": 19.152272727272727,
                "end_time": 19.445454545454545,
                "pitch": 82,
                "velocity": 101,
                "duration": 0.293181818181818,
                "tempo": 120.0
            },
            {
                "start_time": 19.461363636363636,
                "end_time": 20.349999999999998,
                "pitch": 81,
                "velocity": 101,
                "duration": 0.8886363636363619,
                "tempo": 120.0
            },
            {
                "start_time": 20.36590909090909,
                "end_time": 20.652272727272727,
                "pitch": 77,
                "velocity": 101,
                "duration": 0.2863636363636388,
                "tempo": 120.0
            },
            {
                "start_time": 20.668181818181818,
                "end_time": 21.252272727272725,
                "pitch": 84,
                "velocity": 101,
                "duration": 0.5840909090909072,
                "tempo": 120.0
            },
            {
                "start_time": 21.270454545454545,
                "end_time": 21.4,
                "pitch": 84,
                "velocity": 101,
                "duration": 0.12954545454545396,
                "tempo": 120.0
            },
            {
                "start_time": 21.41590909090909,
                "end_time": 21.7,
                "pitch": 82,
                "velocity": 101,
                "duration": 0.28409090909091006,
                "tempo": 120.0
            },
            {
                "start_time": 21.71590909090909,
                "end_time": 21.820454545454545,
                "pitch": 81,
                "velocity": 101,
                "duration": 0.10454545454545539,
                "tempo": 120.0
            },
            {
                "start_time": 22.172727272727272,
                "end_time": 22.759090909090908,
                "pitch": 82,
                "velocity": 101,
                "duration": 0.586363636363636,
                "tempo": 120.0
            },
            {
                "start_time": 22.775,
                "end_time": 23.049999999999997,
                "pitch": 79,
                "velocity": 101,
                "duration": 0.2749999999999986,
                "tempo": 120.0
            },
            {
                "start_time": 23.06590909090909,
                "end_time": 23.652272727272727,
                "pitch": 87,
                "velocity": 101,
                "duration": 0.586363636363636,
                "tempo": 120.0
            },
            {
                "start_time": 23.668181818181818,
                "end_time": 23.80681818181818,
                "pitch": 87,
                "velocity": 101,
                "duration": 0.1386363636363619,
                "tempo": 120.0
            },
            {
                "start_time": 23.825,
                "end_time": 24.113636363636363,
                "pitch": 86,
                "velocity": 101,
                "duration": 0.288636363636364,
                "tempo": 120.0
            },
            {
                "start_time": 24.13181818181818,
                "end_time": 24.56590909090909,
                "pitch": 84,
                "velocity": 101,
                "duration": 0.4340909090909122,
                "tempo": 120.0
            },
            {
                "start_time": 24.584090909090907,
                "end_time": 24.868181818181817,
                "pitch": 80,
                "velocity": 101,
                "duration": 0.28409090909091006,
                "tempo": 120.0
            },
            {
                "start_time": 24.884090909090908,
                "end_time": 25.168181818181818,
                "pitch": 80,
                "velocity": 101,
                "duration": 0.28409090909091006,
                "tempo": 120.0
            },
            {
                "start_time": 25.186363636363634,
                "end_time": 25.470454545454544,
                "pitch": 82,
                "velocity": 101,
                "duration": 0.28409090909091006,
                "tempo": 120.0
            },
            {
                "start_time": 25.486363636363635,
                "end_time": 26.07272727272727,
                "pitch": 84,
                "velocity": 101,
                "duration": 0.586363636363636,
                "tempo": 120.0
            },
            {
                "start_time": 26.08863636363636,
                "end_time": 26.37272727272727,
                "pitch": 84,
                "velocity": 101,
                "duration": 0.28409090909091006,
                "tempo": 120.0
            },
            {
                "start_time": 26.39090909090909,
                "end_time": 26.674999999999997,
                "pitch": 84,
                "velocity": 101,
                "duration": 0.2840909090909065,
                "tempo": 120.0
            },
            {
                "start_time": 26.693181818181817,
                "end_time": 27.577272727272724,
                "pitch": 86,
                "velocity": 101,
                "duration": 0.8840909090909079,
                "tempo": 120.0
            },
            {
                "start_time": 27.595454545454544,
                "end_time": 27.879545454545454,
                "pitch": 86,
                "velocity": 101,
                "duration": 0.28409090909091006,
                "tempo": 120.0
            },
            {
                "start_time": 27.895454545454545,
                "end_time": 28.48181818181818,
                "pitch": 88,
                "velocity": 101,
                "duration": 0.586363636363636,
                "tempo": 120.0
            },
            {
                "start_time": 28.49772727272727,
                "end_time": 29.084090909090907,
                "pitch": 84,
                "velocity": 101,
                "duration": 0.586363636363636,
                "tempo": 120.0
            },
            {
                "start_time": 29.102272727272727,
                "end_time": 29.236363636363635,
                "pitch": 86,
                "velocity": 101,
                "duration": 0.13409090909090793,
                "tempo": 120.0
            },
            {
                "start_time": 29.252272727272725,
                "end_time": 29.536363636363635,
                "pitch": 86,
                "velocity": 101,
                "duration": 0.28409090909091006,
                "tempo": 120.0
            },
            {
                "start_time": 29.554545454545455,
                "end_time": 29.688636363636363,
                "pitch": 86,
                "velocity": 101,
                "duration": 0.13409090909090793,
                "tempo": 120.0
            },
            {
                "start_time": 29.704545454545453,
                "end_time": 29.979545454545452,
                "pitch": 86,
                "velocity": 101,
                "duration": 0.2749999999999986,
                "tempo": 120.0
            },
            {
                "start_time": 29.995454545454542,
                "end_time": 30.134090909090908,
                "pitch": 86,
                "velocity": 101,
                "duration": 0.13863636363636545,
                "tempo": 120.0
            },
            {
                "start_time": 30.15,
                "end_time": 30.28863636363636,
                "pitch": 86,
                "velocity": 101,
                "duration": 0.1386363636363619,
                "tempo": 120.0
            },
            {
                "start_time": 30.30681818181818,
                "end_time": 30.93409090909091,
                "pitch": 86,
                "velocity": 101,
                "duration": 0.6272727272727288,
                "tempo": 120.0
            },
            {
                "start_time": 31.652272727272727,
                "end_time": 32.554545454545455,
                "pitch": 84,
                "velocity": 101,
                "duration": 0.9022727272727273,
                "tempo": 120.0
            },
            {
                "start_time": 32.570454545454545,
                "end_time": 32.70454545454545,
                "pitch": 84,
                "velocity": 101,
                "duration": 0.13409090909090793,
                "tempo": 120.0
            },
            {
                "start_time": 32.72272727272727,
                "end_time": 33.763636363636365,
                "pitch": 84,
                "velocity": 101,
                "duration": 1.0409090909090963,
                "tempo": 120.0
            }
        ],
        "Acoustic Bass": [
            {
                "start_time": 0.03636363636363636,
                "end_time": 0.17045454545454544,
                "pitch": 41,
                "velocity": 40,
                "duration": 0.1340909090909091,
                "tempo": 120.0
            },
            {
                "start_time": 0.19318181818181818,
                "end_time": 0.32727272727272727,
                "pitch": 41,
                "velocity": 40,
                "duration": 0.1340909090909091,
                "tempo": 120.0
            },
            {
                "start_time": 0.34545454545454546,
                "end_time": 0.4795454545454545,
                "pitch": 53,
                "velocity": 40,
                "duration": 0.13409090909090904,
                "tempo": 120.0
            },
            {
                "start_time": 0.4954545454545454,
                "end_time": 0.6295454545454545,
                "pitch": 41,
                "velocity": 40,
                "duration": 0.1340909090909091,
                "tempo": 120.0
            },
            {
                "start_time": 0.6454545454545454,
                "end_time": 0.7795454545454545,
                "pitch": 41,
                "velocity": 40,
                "duration": 0.13409090909090915,
                "tempo": 120.0
            },
            {
                "start_time": 0.7977272727272727,
                "end_time": 0.9272727272727272,
                "pitch": 53,
                "velocity": 40,
                "duration": 0.12954545454545452,
                "tempo": 120.0
            },
            {
                "start_time": 0.9431818181818181,
                "end_time": 1.0727272727272728,
                "pitch": 41,
                "velocity": 40,
                "duration": 0.12954545454545463,
                "tempo": 120.0
            },
            {
                "start_time": 1.0886363636363636,
                "end_time": 1.2272727272727273,
                "pitch": 53,
                "velocity": 40,
                "duration": 0.13863636363636367,
                "tempo": 120.0
            },
            {
                "start_time": 1.2431818181818182,
                "end_time": 1.3818181818181818,
                "pitch": 39,
                "velocity": 40,
                "duration": 0.13863636363636367,
                "tempo": 120.0
            },
            {
                "start_time": 1.4,
                "end_time": 1.534090909090909,
                "pitch": 39,
                "velocity": 40,
                "duration": 0.13409090909090904,
                "tempo": 120.0
            },
            {
                "start_time": 1.5499999999999998,
                "end_time": 1.684090909090909,
                "pitch": 51,
                "velocity": 40,
                "duration": 0.13409090909090926,
                "tempo": 120.0
            },
            {
                "start_time": 1.7,
                "end_time": 1.834090909090909,
                "pitch": 39,
                "velocity": 40,
                "duration": 0.13409090909090904,
                "tempo": 120.0
            },
            {
                "start_time": 1.8499999999999999,
                "end_time": 1.984090909090909,
                "pitch": 39,
                "velocity": 40,
                "duration": 0.13409090909090904,
                "tempo": 120.0
            },
            {
                "start_time": 2.0,
                "end_time": 2.1295454545454544,
                "pitch": 51,
                "velocity": 40,
                "duration": 0.1295454545454544,
                "tempo": 120.0
            },
            {
                "start_time": 2.1454545454545455,
                "end_time": 2.275,
                "pitch": 39,
                "velocity": 40,
                "duration": 0.1295454545454544,
                "tempo": 120.0
            },
            {
                "start_time": 2.290909090909091,
                "end_time": 2.4295454545454542,
                "pitch": 51,
                "velocity": 40,
                "duration": 0.13863636363636322,
                "tempo": 120.0
            },
            {
                "start_time": 2.4477272727272728,
                "end_time": 2.584090909090909,
                "pitch": 38,
                "velocity": 40,
                "duration": 0.13636363636363624,
                "tempo": 120.0
            },
            {
                "start_time": 2.602272727272727,
                "end_time": 2.7363636363636363,
                "pitch": 38,
                "velocity": 40,
                "duration": 0.13409090909090926,
                "tempo": 120.0
            },
            {
                "start_time": 2.752272727272727,
                "end_time": 2.8863636363636362,
                "pitch": 50,
                "velocity": 40,
                "duration": 0.13409090909090926,
                "tempo": 120.0
            },
            {
                "start_time": 2.9022727272727273,
                "end_time": 3.036363636363636,
                "pitch": 38,
                "velocity": 40,
                "duration": 0.13409090909090882,
                "tempo": 120.0
            },
            {
                "start_time": 3.0522727272727272,
                "end_time": 3.186363636363636,
                "pitch": 38,
                "velocity": 40,
                "duration": 0.13409090909090882,
                "tempo": 120.0
            },
            {
                "start_time": 3.2045454545454546,
                "end_time": 3.3363636363636364,
                "pitch": 50,
                "velocity": 40,
                "duration": 0.13181818181818183,
                "tempo": 120.0
            },
            {
                "start_time": 3.3545454545454545,
                "end_time": 3.4863636363636363,
                "pitch": 38,
                "velocity": 40,
                "duration": 0.13181818181818183,
                "tempo": 120.0
            },
            {
                "start_time": 3.5045454545454544,
                "end_time": 3.6386363636363637,
                "pitch": 50,
                "velocity": 40,
                "duration": 0.13409090909090926,
                "tempo": 120.0
            },
            {
                "start_time": 3.6545454545454543,
                "end_time": 3.7886363636363636,
                "pitch": 39,
                "velocity": 40,
                "duration": 0.13409090909090926,
                "tempo": 120.0
            },
            {
                "start_time": 3.8045454545454542,
                "end_time": 3.9386363636363635,
                "pitch": 39,
                "velocity": 40,
                "duration": 0.13409090909090926,
                "tempo": 120.0
            },
            {
                "start_time": 3.954545454545454,
                "end_time": 4.088636363636364,
                "pitch": 51,
                "velocity": 40,
                "duration": 0.1340909090909097,
                "tempo": 120.0
            },
            {
                "start_time": 4.1045454545454545,
                "end_time": 4.238636363636363,
                "pitch": 39,
                "velocity": 40,
                "duration": 0.13409090909090882,
                "tempo": 120.0
            },
            {
                "start_time": 4.254545454545454,
                "end_time": 4.388636363636364,
                "pitch": 53,
                "velocity": 40,
                "duration": 0.1340909090909097,
                "tempo": 120.0
            },
            {
                "start_time": 4.404545454545454,
                "end_time": 4.538636363636363,
                "pitch": 39,
                "velocity": 40,
                "duration": 0.13409090909090882,
                "tempo": 120.0
            },
            {
                "start_time": 4.554545454545455,
                "end_time": 4.6886363636363635,
                "pitch": 51,
                "velocity": 40,
                "duration": 0.13409090909090882,
                "tempo": 120.0
            },
            {
                "start_time": 4.704545454545454,
                "end_time": 4.838636363636363,
                "pitch": 39,
                "velocity": 40,
                "duration": 0.13409090909090882,
                "tempo": 120.0
            },
            {
                "start_time": 4.8568181818181815,
                "end_time": 4.99090909090909,
                "pitch": 41,
                "velocity": 40,
                "duration": 0.13409090909090882,
                "tempo": 120.0
            },
            {
                "start_time": 5.006818181818182,
                "end_time": 5.140909090909091,
                "pitch": 41,
                "velocity": 40,
                "duration": 0.13409090909090882,
                "tempo": 120.0
            },
            {
                "start_time": 5.156818181818181,
                "end_time": 5.290909090909091,
                "pitch": 53,
                "velocity": 40,
                "duration": 0.1340909090909097,
                "tempo": 120.0
            },
            {
                "start_time": 5.306818181818182,
                "end_time": 5.4409090909090905,
                "pitch": 41,
                "velocity": 40,
                "duration": 0.13409090909090882,
                "tempo": 120.0
            },
            {
                "start_time": 5.456818181818181,
                "end_time": 5.590909090909091,
                "pitch": 41,
                "velocity": 40,
                "duration": 0.1340909090909097,
                "tempo": 120.0
            },
            {
                "start_time": 5.6068181818181815,
                "end_time": 5.74090909090909,
                "pitch": 53,
                "velocity": 40,
                "duration": 0.13409090909090882,
                "tempo": 120.0
            },
            {
                "start_time": 5.756818181818182,
                "end_time": 5.890909090909091,
                "pitch": 41,
                "velocity": 40,
                "duration": 0.13409090909090882,
                "tempo": 120.0
            },
            {
                "start_time": 5.906818181818181,
                "end_time": 6.040909090909091,
                "pitch": 41,
                "velocity": 40,
                "duration": 0.1340909090909097,
                "tempo": 120.0
            },
            {
                "start_time": 6.056818181818182,
                "end_time": 6.1909090909090905,
                "pitch": 39,
                "velocity": 40,
                "duration": 0.13409090909090882,
                "tempo": 120.0
            },
            {
                "start_time": 6.206818181818181,
                "end_time": 6.340909090909091,
                "pitch": 39,
                "velocity": 40,
                "duration": 0.1340909090909097,
                "tempo": 120.0
            },
            {
                "start_time": 6.3568181818181815,
                "end_time": 6.49090909090909,
                "pitch": 51,
                "velocity": 40,
                "duration": 0.13409090909090882,
                "tempo": 120.0
            },
            {
                "start_time": 6.509090909090909,
                "end_time": 6.640909090909091,
                "pitch": 39,
                "velocity": 40,
                "duration": 0.13181818181818183,
                "tempo": 120.0
            },
            {
                "start_time": 6.659090909090909,
                "end_time": 6.790909090909091,
                "pitch": 39,
                "velocity": 40,
                "duration": 0.13181818181818183,
                "tempo": 120.0
            },
            {
                "start_time": 6.809090909090909,
                "end_time": 6.954545454545454,
                "pitch": 51,
                "velocity": 40,
                "duration": 0.1454545454545455,
                "tempo": 120.0
            },
            {
                "start_time": 6.972727272727273,
                "end_time": 7.125,
                "pitch": 39,
                "velocity": 40,
                "duration": 0.15227272727272734,
                "tempo": 120.0
            },
            {
                "start_time": 7.143181818181818,
                "end_time": 7.4818181818181815,
                "pitch": 51,
                "velocity": 40,
                "duration": 0.33863636363636385,
                "tempo": 120.0
            },
            {
                "start_time": 7.502272727272727,
                "end_time": 7.66590909090909,
                "pitch": 38,
                "velocity": 40,
                "duration": 0.16363636363636314,
                "tempo": 120.0
            },
            {
                "start_time": 7.686363636363636,
                "end_time": 7.745454545454545,
                "pitch": 38,
                "velocity": 40,
                "duration": 0.05909090909090953,
                "tempo": 120.0
            },
            {
                "start_time": 8.179545454545455,
                "end_time": 8.313636363636363,
                "pitch": 38,
                "velocity": 40,
                "duration": 0.13409090909090793,
                "tempo": 120.0
            },
            {
                "start_time": 8.329545454545453,
                "end_time": 8.379545454545454,
                "pitch": 38,
                "velocity": 40,
                "duration": 0.05000000000000071,
                "tempo": 120.0
            },
            {
                "start_time": 8.920454545454545,
                "end_time": 9.213636363636363,
                "pitch": 39,
                "velocity": 40,
                "duration": 0.293181818181818,
                "tempo": 120.0
            },
            {
                "start_time": 9.23181818181818,
                "end_time": 9.51590909090909,
                "pitch": 39,
                "velocity": 40,
                "duration": 0.28409090909091006,
                "tempo": 120.0
            },
            {
                "start_time": 9.531818181818181,
                "end_time": 9.818181818181818,
                "pitch": 39,
                "velocity": 40,
                "duration": 0.28636363636363704,
                "tempo": 120.0
            },
            {
                "start_time": 9.834090909090909,
                "end_time": 9.968181818181817,
                "pitch": 41,
                "velocity": 40,
                "duration": 0.13409090909090793,
                "tempo": 120.0
            },
            {
                "start_time": 9.98409090909091,
                "end_time": 10.118181818181817,
                "pitch": 41,
                "velocity": 40,
                "duration": 0.13409090909090793,
                "tempo": 120.0
            },
            {
                "start_time": 10.134090909090908,
                "end_time": 10.268181818181818,
                "pitch": 53,
                "velocity": 40,
                "duration": 0.1340909090909097,
                "tempo": 120.0
            },
            {
                "start_time": 10.284090909090908,
                "end_time": 10.418181818181818,
                "pitch": 41,
                "velocity": 40,
                "duration": 0.1340909090909097,
                "tempo": 120.0
            },
            {
                "start_time": 10.436363636363636,
                "end_time": 10.570454545454545,
                "pitch": 41,
                "velocity": 40,
                "duration": 0.1340909090909097,
                "tempo": 120.0
            },
            {
                "start_time": 10.586363636363636,
                "end_time": 10.720454545454546,
                "pitch": 48,
                "velocity": 40,
                "duration": 0.1340909090909097,
                "tempo": 120.0
            },
            {
                "start_time": 10.736363636363636,
                "end_time": 10.870454545454544,
                "pitch": 41,
                "velocity": 40,
                "duration": 0.13409090909090793,
                "tempo": 120.0
            },
            {
                "start_time": 10.886363636363637,
                "end_time": 11.020454545454545,
                "pitch": 41,
                "velocity": 40,
                "duration": 0.13409090909090793,
                "tempo": 120.0
            },
            {
                "start_time": 11.036363636363635,
                "end_time": 11.170454545454545,
                "pitch": 41,
                "velocity": 40,
                "duration": 0.1340909090909097,
                "tempo": 120.0
            },
            {
                "start_time": 11.188636363636363,
                "end_time": 11.322727272727272,
                "pitch": 41,
                "velocity": 40,
                "duration": 0.1340909090909097,
                "tempo": 120.0
            },
            {
                "start_time": 11.338636363636363,
                "end_time": 11.472727272727273,
                "pitch": 53,
                "velocity": 40,
                "duration": 0.1340909090909097,
                "tempo": 120.0
            },
            {
                "start_time": 11.488636363636363,
                "end_time": 11.622727272727273,
                "pitch": 41,
                "velocity": 40,
                "duration": 0.1340909090909097,
                "tempo": 120.0
            },
            {
                "start_time": 11.638636363636364,
                "end_time": 11.772727272727272,
                "pitch": 41,
                "velocity": 40,
                "duration": 0.13409090909090793,
                "tempo": 120.0
            },
            {
                "start_time": 11.788636363636362,
                "end_time": 11.922727272727272,
                "pitch": 48,
                "velocity": 40,
                "duration": 0.1340909090909097,
                "tempo": 120.0
            },
            {
                "start_time": 11.94090909090909,
                "end_time": 12.072727272727272,
                "pitch": 41,
                "velocity": 40,
                "duration": 0.13181818181818272,
                "tempo": 120.0
            },
            {
                "start_time": 12.09090909090909,
                "end_time": 12.222727272727273,
                "pitch": 53,
                "velocity": 40,
                "duration": 0.13181818181818272,
                "tempo": 120.0
            },
            {
                "start_time": 12.24090909090909,
                "end_time": 12.370454545454544,
                "pitch": 39,
                "velocity": 40,
                "duration": 0.12954545454545396,
                "tempo": 120.0
            },
            {
                "start_time": 12.386363636363635,
                "end_time": 12.51590909090909,
                "pitch": 39,
                "velocity": 40,
                "duration": 0.12954545454545574,
                "tempo": 120.0
            },
            {
                "start_time": 12.531818181818181,
                "end_time": 12.670454545454545,
                "pitch": 51,
                "velocity": 40,
                "duration": 0.13863636363636367,
                "tempo": 120.0
            },
            {
                "start_time": 12.686363636363636,
                "end_time": 12.825,
                "pitch": 39,
                "velocity": 40,
                "duration": 0.13863636363636367,
                "tempo": 120.0
            },
            {
                "start_time": 12.843181818181817,
                "end_time": 12.975,
                "pitch": 39,
                "velocity": 40,
                "duration": 0.13181818181818272,
                "tempo": 120.0
            },
            {
                "start_time": 12.993181818181817,
                "end_time": 13.125,
                "pitch": 46,
                "velocity": 40,
                "duration": 0.13181818181818272,
                "tempo": 120.0
            },
            {
                "start_time": 13.143181818181818,
                "end_time": 13.277272727272727,
                "pitch": 39,
                "velocity": 40,
                "duration": 0.1340909090909097,
                "tempo": 120.0
            },
            {
                "start_time": 13.293181818181818,
                "end_time": 13.427272727272726,
                "pitch": 39,
                "velocity": 40,
                "duration": 0.13409090909090793,
                "tempo": 120.0
            },
            {
                "start_time": 13.443181818181818,
                "end_time": 13.577272727272726,
                "pitch": 39,
                "velocity": 40,
                "duration": 0.13409090909090793,
                "tempo": 120.0
            },
            {
                "start_time": 13.593181818181817,
                "end_time": 13.727272727272727,
                "pitch": 39,
                "velocity": 40,
                "duration": 0.1340909090909097,
                "tempo": 120.0
            },
            {
                "start_time": 13.743181818181817,
                "end_time": 13.877272727272727,
                "pitch": 51,
                "velocity": 40,
                "duration": 0.1340909090909097,
                "tempo": 120.0
            },
            {
                "start_time": 13.895454545454545,
                "end_time": 14.029545454545454,
                "pitch": 39,
                "velocity": 40,
                "duration": 0.1340909090909097,
                "tempo": 120.0
            },
            {
                "start_time": 14.045454545454545,
                "end_time": 14.179545454545455,
                "pitch": 46,
                "velocity": 40,
                "duration": 0.1340909090909097,
                "tempo": 120.0
            },
            {
                "start_time": 14.195454545454545,
                "end_time": 14.329545454545453,
                "pitch": 39,
                "velocity": 40,
                "duration": 0.13409090909090793,
                "tempo": 120.0
            },
            {
                "start_time": 14.347727272727273,
                "end_time": 14.629545454545454,
                "pitch": 51,
                "velocity": 40,
                "duration": 0.2818181818181813,
                "tempo": 120.0
            },
            {
                "start_time": 14.647727272727272,
                "end_time": 14.781818181818181,
                "pitch": 32,
                "velocity": 40,
                "duration": 0.1340909090909097,
                "tempo": 120.0
            },
            {
                "start_time": 14.797727272727272,
                "end_time": 14.931818181818182,
                "pitch": 32,
                "velocity": 40,
                "duration": 0.1340909090909097,
                "tempo": 120.0
            },
            {
                "start_time": 14.947727272727272,
                "end_time": 15.08181818181818,
                "pitch": 44,
                "velocity": 40,
                "duration": 0.13409090909090793,
                "tempo": 120.0
            },
            {
                "start_time": 15.097727272727273,
                "end_time": 15.23181818181818,
                "pitch": 32,
                "velocity": 40,
                "duration": 0.13409090909090793,
                "tempo": 120.0
            },
            {
                "start_time": 15.247727272727271,
                "end_time": 15.381818181818181,
                "pitch": 32,
                "velocity": 40,
                "duration": 0.1340909090909097,
                "tempo": 120.0
            },
            {
                "start_time": 15.399999999999999,
                "end_time": 15.534090909090908,
                "pitch": 39,
                "velocity": 40,
                "duration": 0.1340909090909097,
                "tempo": 120.0
            },
            {
                "start_time": 15.549999999999999,
                "end_time": 15.684090909090909,
                "pitch": 32,
                "velocity": 40,
                "duration": 0.1340909090909097,
                "tempo": 120.0
            },
            {
                "start_time": 15.7,
                "end_time": 15.834090909090909,
                "pitch": 44,
                "velocity": 40,
                "duration": 0.1340909090909097,
                "tempo": 120.0
            },
            {
                "start_time": 15.852272727272727,
                "end_time": 15.98181818181818,
                "pitch": 32,
                "velocity": 40,
                "duration": 0.12954545454545396,
                "tempo": 120.0
            },
            {
                "start_time": 15.997727272727271,
                "end_time": 16.127272727272725,
                "pitch": 32,
                "velocity": 40,
                "duration": 0.12954545454545396,
                "tempo": 120.0
            },
            {
                "start_time": 16.143181818181816,
                "end_time": 16.279545454545453,
                "pitch": 44,
                "velocity": 40,
                "duration": 0.1363636363636367,
                "tempo": 120.0
            },
            {
                "start_time": 16.297727272727272,
                "end_time": 16.436363636363634,
                "pitch": 32,
                "velocity": 40,
                "duration": 0.1386363636363619,
                "tempo": 120.0
            },
            {
                "start_time": 16.452272727272728,
                "end_time": 16.586363636363636,
                "pitch": 39,
                "velocity": 40,
                "duration": 0.13409090909090793,
                "tempo": 120.0
            },
            {
                "start_time": 16.602272727272727,
                "end_time": 16.736363636363635,
                "pitch": 32,
                "velocity": 40,
                "duration": 0.13409090909090793,
                "tempo": 120.0
            },
            {
                "start_time": 16.752272727272725,
                "end_time": 16.886363636363637,
                "pitch": 44,
                "velocity": 40,
                "duration": 0.13409090909091148,
                "tempo": 120.0
            },
            {
                "start_time": 16.904545454545453,
                "end_time": 17.038636363636364,
                "pitch": 32,
                "velocity": 40,
                "duration": 0.13409090909091148,
                "tempo": 120.0
            },
            {
                "start_time": 17.054545454545455,
                "end_time": 17.188636363636363,
                "pitch": 34,
                "velocity": 40,
                "duration": 0.13409090909090793,
                "tempo": 120.0
            },
            {
                "start_time": 17.204545454545453,
                "end_time": 17.33863636363636,
                "pitch": 34,
                "velocity": 40,
                "duration": 0.13409090909090793,
                "tempo": 120.0
            },
            {
                "start_time": 17.35681818181818,
                "end_time": 17.49090909090909,
                "pitch": 41,
                "velocity": 40,
                "duration": 0.13409090909090793,
                "tempo": 120.0
            },
            {
                "start_time": 17.506818181818183,
                "end_time": 17.64090909090909,
                "pitch": 34,
                "velocity": 40,
                "duration": 0.13409090909090793,
                "tempo": 120.0
            },
            {
                "start_time": 17.65681818181818,
                "end_time": 17.79090909090909,
                "pitch": 46,
                "velocity": 40,
                "duration": 0.13409090909090793,
                "tempo": 120.0
            },
            {
                "start_time": 17.80681818181818,
                "end_time": 17.94090909090909,
                "pitch": 34,
                "velocity": 40,
                "duration": 0.13409090909091148,
                "tempo": 120.0
            },
            {
                "start_time": 17.956818181818182,
                "end_time": 18.09090909090909,
                "pitch": 41,
                "velocity": 40,
                "duration": 0.13409090909090793,
                "tempo": 120.0
            },
            {
                "start_time": 18.10909090909091,
                "end_time": 18.243181818181817,
                "pitch": 34,
                "velocity": 40,
                "duration": 0.13409090909090793,
                "tempo": 120.0
            },
            {
                "start_time": 18.259090909090908,
                "end_time": 18.388636363636362,
                "pitch": 34,
                "velocity": 40,
                "duration": 0.12954545454545396,
                "tempo": 120.0
            },
            {
                "start_time": 18.404545454545453,
                "end_time": 18.534090909090907,
                "pitch": 46,
                "velocity": 40,
                "duration": 0.12954545454545396,
                "tempo": 120.0
            },
            {
                "start_time": 18.55,
                "end_time": 18.688636363636363,
                "pitch": 34,
                "velocity": 40,
                "duration": 0.1386363636363619,
                "tempo": 120.0
            },
            {
                "start_time": 18.704545454545453,
                "end_time": 18.84318181818182,
                "pitch": 46,
                "velocity": 40,
                "duration": 0.13863636363636545,
                "tempo": 120.0
            },
            {
                "start_time": 18.861363636363635,
                "end_time": 18.99090909090909,
                "pitch": 34,
                "velocity": 40,
                "duration": 0.12954545454545396,
                "tempo": 120.0
            },
            {
                "start_time": 19.00681818181818,
                "end_time": 19.136363636363637,
                "pitch": 46,
                "velocity": 40,
                "duration": 0.12954545454545752,
                "tempo": 120.0
            },
            {
                "start_time": 19.152272727272727,
                "end_time": 19.288636363636364,
                "pitch": 34,
                "velocity": 40,
                "duration": 0.1363636363636367,
                "tempo": 120.0
            },
            {
                "start_time": 19.30681818181818,
                "end_time": 19.445454545454545,
                "pitch": 46,
                "velocity": 40,
                "duration": 0.13863636363636545,
                "tempo": 120.0
            },
            {
                "start_time": 19.461363636363636,
                "end_time": 19.595454545454544,
                "pitch": 41,
                "velocity": 40,
                "duration": 0.13409090909090793,
                "tempo": 120.0
            },
            {
                "start_time": 19.613636363636363,
                "end_time": 19.629545454545454,
                "pitch": 41,
                "velocity": 40,
                "duration": 0.01590909090909065,
                "tempo": 120.0
            },
            {
                "start_time": 19.647727272727273,
                "end_time": 19.763636363636362,
                "pitch": 43,
                "velocity": 40,
                "duration": 0.11590909090908852,
                "tempo": 120.0
            },
            {
                "start_time": 19.797727272727272,
                "end_time": 19.897727272727273,
                "pitch": 53,
                "velocity": 40,
                "duration": 0.10000000000000142,
                "tempo": 120.0
            },
            {
                "start_time": 19.913636363636364,
                "end_time": 20.047727272727272,
                "pitch": 41,
                "velocity": 40,
                "duration": 0.13409090909090793,
                "tempo": 120.0
            },
            {
                "start_time": 20.06590909090909,
                "end_time": 20.2,
                "pitch": 53,
                "velocity": 40,
                "duration": 0.13409090909090793,
                "tempo": 120.0
            },
            {
                "start_time": 20.21590909090909,
                "end_time": 20.349999999999998,
                "pitch": 41,
                "velocity": 40,
                "duration": 0.13409090909090793,
                "tempo": 120.0
            },
            {
                "start_time": 20.36590909090909,
                "end_time": 20.5,
                "pitch": 48,
                "velocity": 40,
                "duration": 0.13409090909091148,
                "tempo": 120.0
            },
            {
                "start_time": 20.518181818181816,
                "end_time": 20.652272727272727,
                "pitch": 53,
                "velocity": 40,
                "duration": 0.13409090909091148,
                "tempo": 120.0
            },
            {
                "start_time": 20.668181818181818,
                "end_time": 20.802272727272726,
                "pitch": 41,
                "velocity": 40,
                "duration": 0.13409090909090793,
                "tempo": 120.0
            },
            {
                "start_time": 20.818181818181817,
                "end_time": 20.952272727272724,
                "pitch": 41,
                "velocity": 40,
                "duration": 0.13409090909090793,
                "tempo": 120.0
            },
            {
                "start_time": 20.96818181818182,
                "end_time": 21.102272727272727,
                "pitch": 53,
                "velocity": 40,
                "duration": 0.13409090909090793,
                "tempo": 120.0
            },
            {
                "start_time": 21.118181818181817,
                "end_time": 21.220454545454544,
                "pitch": 41,
                "velocity": 40,
                "duration": 0.10227272727272663,
                "tempo": 120.0
            },
            {
                "start_time": 21.252272727272725,
                "end_time": 21.36590909090909,
                "pitch": 48,
                "velocity": 40,
                "duration": 0.11363636363636331,
                "tempo": 120.0
            },
            {
                "start_time": 21.4,
                "end_time": 21.545454545454543,
                "pitch": 41,
                "velocity": 40,
                "duration": 0.14545454545454461,
                "tempo": 120.0
            },
            {
                "start_time": 21.561363636363634,
                "end_time": 21.577272727272724,
                "pitch": 53,
                "velocity": 40,
                "duration": 0.01590909090909065,
                "tempo": 120.0
            },
            {
                "start_time": 21.595454545454544,
                "end_time": 21.663636363636364,
                "pitch": 55,
                "velocity": 40,
                "duration": 0.06818181818182012,
                "tempo": 120.0
            },
            {
                "start_time": 21.7,
                "end_time": 21.820454545454545,
                "pitch": 41,
                "velocity": 40,
                "duration": 0.12045454545454604,
                "tempo": 120.0
            },
            {
                "start_time": 21.854545454545452,
                "end_time": 21.972727272727273,
                "pitch": 39,
                "velocity": 40,
                "duration": 0.11818181818182083,
                "tempo": 120.0
            },
            {
                "start_time": 22.00681818181818,
                "end_time": 22.15681818181818,
                "pitch": 39,
                "velocity": 40,
                "duration": 0.15000000000000213,
                "tempo": 120.0
            },
            {
                "start_time": 22.172727272727272,
                "end_time": 22.30681818181818,
                "pitch": 51,
                "velocity": 40,
                "duration": 0.13409090909090793,
                "tempo": 120.0
            },
            {
                "start_time": 22.32272727272727,
                "end_time": 22.422727272727272,
                "pitch": 39,
                "velocity": 40,
                "duration": 0.10000000000000142,
                "tempo": 120.0
            },
            {
                "start_time": 22.456818181818182,
                "end_time": 22.57272727272727,
                "pitch": 51,
                "velocity": 40,
                "duration": 0.11590909090908852,
                "tempo": 120.0
            },
            {
                "start_time": 22.60681818181818,
                "end_time": 22.724999999999998,
                "pitch": 39,
                "velocity": 40,
                "duration": 0.11818181818181728,
                "tempo": 120.0
            },
            {
                "start_time": 22.759090909090908,
                "end_time": 22.854545454545452,
                "pitch": 46,
                "velocity": 40,
                "duration": 0.0954545454545439,
                "tempo": 120.0
            },
            {
                "start_time": 22.87272727272727,
                "end_time": 23.049999999999997,
                "pitch": 51,
                "velocity": 40,
                "duration": 0.17727272727272592,
                "tempo": 120.0
            },
            {
                "start_time": 23.06590909090909,
                "end_time": 23.16590909090909,
                "pitch": 39,
                "velocity": 40,
                "duration": 0.09999999999999787,
                "tempo": 120.0
            },
            {
                "start_time": 23.2,
                "end_time": 23.318181818181817,
                "pitch": 39,
                "velocity": 40,
                "duration": 0.11818181818181728,
                "tempo": 120.0
            },
            {
                "start_time": 23.349999999999998,
                "end_time": 23.502272727272725,
                "pitch": 51,
                "velocity": 40,
                "duration": 0.15227272727272734,
                "tempo": 120.0
            },
            {
                "start_time": 23.518181818181816,
                "end_time": 23.652272727272727,
                "pitch": 39,
                "velocity": 40,
                "duration": 0.13409090909091148,
                "tempo": 120.0
            },
            {
                "start_time": 23.668181818181818,
                "end_time": 23.80681818181818,
                "pitch": 46,
                "velocity": 40,
                "duration": 0.1386363636363619,
                "tempo": 120.0
            },
            {
                "start_time": 23.825,
                "end_time": 23.96363636363636,
                "pitch": 39,
                "velocity": 40,
                "duration": 0.1386363636363619,
                "tempo": 120.0
            },
            {
                "start_time": 23.979545454545452,
                "end_time": 24.113636363636363,
                "pitch": 51,
                "velocity": 40,
                "duration": 0.13409090909091148,
                "tempo": 120.0
            },
            {
                "start_time": 24.13181818181818,
                "end_time": 24.26590909090909,
                "pitch": 46,
                "velocity": 40,
                "duration": 0.13409090909091148,
                "tempo": 120.0
            },
            {
                "start_time": 24.28181818181818,
                "end_time": 24.41590909090909,
                "pitch": 32,
                "velocity": 40,
                "duration": 0.13409090909090793,
                "tempo": 120.0
            },
            {
                "start_time": 24.43181818181818,
                "end_time": 24.56590909090909,
                "pitch": 32,
                "velocity": 40,
                "duration": 0.13409090909091148,
                "tempo": 120.0
            },
            {
                "start_time": 24.584090909090907,
                "end_time": 24.68409090909091,
                "pitch": 44,
                "velocity": 40,
                "duration": 0.10000000000000142,
                "tempo": 120.0
            },
            {
                "start_time": 24.71590909090909,
                "end_time": 24.868181818181817,
                "pitch": 32,
                "velocity": 40,
                "duration": 0.15227272727272734,
                "tempo": 120.0
            },
            {
                "start_time": 24.884090909090908,
                "end_time": 24.98409090909091,
                "pitch": 39,
                "velocity": 40,
                "duration": 0.10000000000000142,
                "tempo": 120.0
            },
            {
                "start_time": 25.018181818181816,
                "end_time": 25.136363636363637,
                "pitch": 32,
                "velocity": 40,
                "duration": 0.11818181818182083,
                "tempo": 120.0
            },
            {
                "start_time": 25.168181818181818,
                "end_time": 25.286363636363635,
                "pitch": 44,
                "velocity": 40,
                "duration": 0.11818181818181728,
                "tempo": 120.0
            },
            {
                "start_time": 25.320454545454545,
                "end_time": 25.470454545454544,
                "pitch": 32,
                "velocity": 40,
                "duration": 0.14999999999999858,
                "tempo": 120.0
            },
            {
                "start_time": 25.486363636363635,
                "end_time": 25.620454545454542,
                "pitch": 32,
                "velocity": 40,
                "duration": 0.13409090909090793,
                "tempo": 120.0
            },
            {
                "start_time": 25.636363636363637,
                "end_time": 25.770454545454545,
                "pitch": 44,
                "velocity": 40,
                "duration": 0.13409090909090793,
                "tempo": 120.0
            },
            {
                "start_time": 25.788636363636364,
                "end_time": 25.920454545454543,
                "pitch": 32,
                "velocity": 40,
                "duration": 0.13181818181817917,
                "tempo": 120.0
            },
            {
                "start_time": 25.938636363636363,
                "end_time": 26.038636363636364,
                "pitch": 39,
                "velocity": 40,
                "duration": 0.10000000000000142,
                "tempo": 120.0
            },
            {
                "start_time": 26.07272727272727,
                "end_time": 26.188636363636363,
                "pitch": 32,
                "velocity": 40,
                "duration": 0.11590909090909207,
                "tempo": 120.0
            },
            {
                "start_time": 26.222727272727273,
                "end_time": 26.32272727272727,
                "pitch": 44,
                "velocity": 40,
                "duration": 0.09999999999999787,
                "tempo": 120.0
            },
            {
                "start_time": 26.34090909090909,
                "end_time": 26.49090909090909,
                "pitch": 32,
                "velocity": 40,
                "duration": 0.14999999999999858,
                "tempo": 120.0
            },
            {
                "start_time": 26.525,
                "end_time": 26.64090909090909,
                "pitch": 39,
                "velocity": 40,
                "duration": 0.11590909090909207,
                "tempo": 120.0
            },
            {
                "start_time": 26.674999999999997,
                "end_time": 26.825,
                "pitch": 34,
                "velocity": 40,
                "duration": 0.15000000000000213,
                "tempo": 120.0
            },
            {
                "start_time": 26.843181818181815,
                "end_time": 26.974999999999998,
                "pitch": 34,
                "velocity": 40,
                "duration": 0.13181818181818272,
                "tempo": 120.0
            },
            {
                "start_time": 26.993181818181817,
                "end_time": 27.125,
                "pitch": 34,
                "velocity": 40,
                "duration": 0.13181818181818272,
                "tempo": 120.0
            },
            {
                "start_time": 27.143181818181816,
                "end_time": 27.277272727272727,
                "pitch": 34,
                "velocity": 40,
                "duration": 0.13409090909091148,
                "tempo": 120.0
            },
            {
                "start_time": 27.293181818181818,
                "end_time": 27.427272727272726,
                "pitch": 46,
                "velocity": 40,
                "duration": 0.13409090909090793,
                "tempo": 120.0
            },
            {
                "start_time": 27.445454545454545,
                "end_time": 27.577272727272724,
                "pitch": 34,
                "velocity": 40,
                "duration": 0.13181818181817917,
                "tempo": 120.0
            },
            {
                "start_time": 27.595454545454544,
                "end_time": 27.695454545454545,
                "pitch": 46,
                "velocity": 40,
                "duration": 0.10000000000000142,
                "tempo": 120.0
            },
            {
                "start_time": 27.729545454545452,
                "end_time": 27.879545454545454,
                "pitch": 34,
                "velocity": 40,
                "duration": 0.15000000000000213,
                "tempo": 120.0
            },
            {
                "start_time": 27.895454545454545,
                "end_time": 28.025,
                "pitch": 36,
                "velocity": 40,
                "duration": 0.12954545454545396,
                "tempo": 120.0
            },
            {
                "start_time": 28.043181818181818,
                "end_time": 28.170454545454543,
                "pitch": 36,
                "velocity": 40,
                "duration": 0.1272727272727252,
                "tempo": 120.0
            },
            {
                "start_time": 28.188636363636363,
                "end_time": 28.325,
                "pitch": 48,
                "velocity": 40,
                "duration": 0.1363636363636367,
                "tempo": 120.0
            },
            {
                "start_time": 28.343181818181815,
                "end_time": 28.445454545454545,
                "pitch": 36,
                "velocity": 40,
                "duration": 0.10227272727273018,
                "tempo": 120.0
            },
            {
                "start_time": 28.48181818181818,
                "end_time": 28.63181818181818,
                "pitch": 36,
                "velocity": 40,
                "duration": 0.14999999999999858,
                "tempo": 120.0
            },
            {
                "start_time": 28.65,
                "end_time": 28.784090909090907,
                "pitch": 36,
                "velocity": 40,
                "duration": 0.13409090909090793,
                "tempo": 120.0
            },
            {
                "start_time": 28.799999999999997,
                "end_time": 29.084090909090907,
                "pitch": 48,
                "velocity": 40,
                "duration": 0.28409090909091006,
                "tempo": 120.0
            },
            {
                "start_time": 29.102272727272727,
                "end_time": 29.236363636363635,
                "pitch": 38,
                "velocity": 40,
                "duration": 0.13409090909090793,
                "tempo": 120.0
            },
            {
                "start_time": 29.252272727272725,
                "end_time": 29.554545454545455,
                "pitch": 38,
                "velocity": 40,
                "duration": 0.30227272727272947,
                "tempo": 120.0
            },
            {
                "start_time": 29.586363636363636,
                "end_time": 29.688636363636363,
                "pitch": 38,
                "velocity": 40,
                "duration": 0.10227272727272663,
                "tempo": 120.0
            },
            {
                "start_time": 29.704545454545453,
                "end_time": 29.94772727272727,
                "pitch": 38,
                "velocity": 40,
                "duration": 0.24318181818181728,
                "tempo": 120.0
            },
            {
                "start_time": 29.979545454545452,
                "end_time": 30.097727272727273,
                "pitch": 38,
                "velocity": 40,
                "duration": 0.11818181818182083,
                "tempo": 120.0
            },
            {
                "start_time": 30.134090909090908,
                "end_time": 30.28863636363636,
                "pitch": 38,
                "velocity": 40,
                "duration": 0.15454545454545254,
                "tempo": 120.0
            },
            {
                "start_time": 30.30681818181818,
                "end_time": 31.16590909090909,
                "pitch": 38,
                "velocity": 40,
                "duration": 0.8590909090909093,
                "tempo": 120.0
            },
            {
                "start_time": 31.652272727272727,
                "end_time": 31.799999999999997,
                "pitch": 41,
                "velocity": 40,
                "duration": 0.14772727272726982,
                "tempo": 120.0
            },
            {
                "start_time": 31.818181818181817,
                "end_time": 31.952272727272724,
                "pitch": 41,
                "velocity": 40,
                "duration": 0.13409090909090793,
                "tempo": 120.0
            },
            {
                "start_time": 31.968181818181815,
                "end_time": 32.10227272727273,
                "pitch": 53,
                "velocity": 40,
                "duration": 0.13409090909091148,
                "tempo": 120.0
            },
            {
                "start_time": 32.11818181818182,
                "end_time": 32.252272727272725,
                "pitch": 41,
                "velocity": 40,
                "duration": 0.13409090909090793,
                "tempo": 120.0
            },
            {
                "start_time": 32.27045454545454,
                "end_time": 32.404545454545456,
                "pitch": 41,
                "velocity": 40,
                "duration": 0.13409090909091503,
                "tempo": 120.0
            },
            {
                "start_time": 32.42045454545455,
                "end_time": 32.554545454545455,
                "pitch": 53,
                "velocity": 40,
                "duration": 0.13409090909090793,
                "tempo": 120.0
            },
            {
                "start_time": 32.570454545454545,
                "end_time": 32.70454545454545,
                "pitch": 41,
                "velocity": 40,
                "duration": 0.13409090909090793,
                "tempo": 120.0
            },
            {
                "start_time": 32.72272727272727,
                "end_time": 32.85909090909091,
                "pitch": 53,
                "velocity": 40,
                "duration": 0.13636363636364024,
                "tempo": 120.0
            },
            {
                "start_time": 32.877272727272725,
                "end_time": 33.01590909090909,
                "pitch": 39,
                "velocity": 40,
                "duration": 0.13863636363636545,
                "tempo": 120.0
            },
            {
                "start_time": 33.03181818181818,
                "end_time": 33.16590909090909,
                "pitch": 39,
                "velocity": 40,
                "duration": 0.13409090909090793,
                "tempo": 120.0
            },
            {
                "start_time": 33.18181818181818,
                "end_time": 33.31590909090909,
                "pitch": 51,
                "velocity": 40,
                "duration": 0.13409090909090793,
                "tempo": 120.0
            },
            {
                "start_time": 33.33181818181818,
                "end_time": 33.465909090909086,
                "pitch": 39,
                "velocity": 40,
                "duration": 0.13409090909090793,
                "tempo": 120.0
            },
            {
                "start_time": 33.48409090909091,
                "end_time": 33.61818181818182,
                "pitch": 39,
                "velocity": 40,
                "duration": 0.13409090909090793,
                "tempo": 120.0
            },
            {
                "start_time": 33.63409090909091,
                "end_time": 33.763636363636365,
                "pitch": 51,
                "velocity": 40,
                "duration": 0.12954545454545752,
                "tempo": 120.0
            },
            {
                "start_time": 33.779545454545456,
                "end_time": 33.90909090909091,
                "pitch": 39,
                "velocity": 40,
                "duration": 0.1295454545454504,
                "tempo": 120.0
            },
            {
                "start_time": 33.925,
                "end_time": 34.06363636363636,
                "pitch": 51,
                "velocity": 40,
                "duration": 0.13863636363636545,
                "tempo": 120.0
            },
            {
                "start_time": 34.07954545454545,
                "end_time": 34.21818181818182,
                "pitch": 38,
                "velocity": 40,
                "duration": 0.13863636363636545,
                "tempo": 120.0
            },
            {
                "start_time": 34.236363636363635,
                "end_time": 34.36818181818182,
                "pitch": 38,
                "velocity": 40,
                "duration": 0.13181818181818272,
                "tempo": 120.0
            }
        ],
        "Vibraphone": [
            {
                "start_time": 0.03636363636363636,
                "end_time": 0.9272727272727272,
                "pitch": 81,
                "velocity": 51,
                "duration": 0.8909090909090909,
                "tempo": 120.0
            },
            {
                "start_time": 0.9431818181818181,
                "end_time": 1.0727272727272728,
                "pitch": 81,
                "velocity": 51,
                "duration": 0.12954545454545463,
                "tempo": 120.0
            },
            {
                "start_time": 1.0886363636363636,
                "end_time": 2.05,
                "pitch": 79,
                "velocity": 51,
                "duration": 0.9613636363636362,
                "tempo": 120.0
            },
            {
                "start_time": 2.752272727272727,
                "end_time": 3.036363636363636,
                "pitch": 77,
                "velocity": 51,
                "duration": 0.28409090909090917,
                "tempo": 120.0
            },
            {
                "start_time": 3.0522727272727272,
                "end_time": 3.3363636363636364,
                "pitch": 77,
                "velocity": 51,
                "duration": 0.28409090909090917,
                "tempo": 120.0
            },
            {
                "start_time": 3.3545454545454545,
                "end_time": 3.4863636363636363,
                "pitch": 77,
                "velocity": 51,
                "duration": 0.13181818181818183,
                "tempo": 120.0
            },
            {
                "start_time": 3.5045454545454544,
                "end_time": 4.838636363636363,
                "pitch": 79,
                "velocity": 51,
                "duration": 1.3340909090909085,
                "tempo": 120.0
            },
            {
                "start_time": 4.8568181818181815,
                "end_time": 5.74090909090909,
                "pitch": 81,
                "velocity": 51,
                "duration": 0.8840909090909088,
                "tempo": 120.0
            },
            {
                "start_time": 5.756818181818182,
                "end_time": 5.890909090909091,
                "pitch": 81,
                "velocity": 51,
                "duration": 0.13409090909090882,
                "tempo": 120.0
            },
            {
                "start_time": 5.906818181818181,
                "end_time": 7.4818181818181815,
                "pitch": 79,
                "velocity": 51,
                "duration": 1.5750000000000002,
                "tempo": 120.0
            },
            {
                "start_time": 7.502272727272727,
                "end_time": 7.66590909090909,
                "pitch": 77,
                "velocity": 51,
                "duration": 0.16363636363636314,
                "tempo": 120.0
            },
            {
                "start_time": 7.686363636363636,
                "end_time": 7.725,
                "pitch": 77,
                "velocity": 51,
                "duration": 0.038636363636364024,
                "tempo": 120.0
            },
            {
                "start_time": 8.179545454545455,
                "end_time": 8.313636363636363,
                "pitch": 77,
                "velocity": 51,
                "duration": 0.13409090909090793,
                "tempo": 120.0
            },
            {
                "start_time": 8.329545454545453,
                "end_time": 8.379545454545454,
                "pitch": 77,
                "velocity": 51,
                "duration": 0.05000000000000071,
                "tempo": 120.0
            },
            {
                "start_time": 8.920454545454545,
                "end_time": 9.213636363636363,
                "pitch": 79,
                "velocity": 51,
                "duration": 0.293181818181818,
                "tempo": 120.0
            },
            {
                "start_time": 9.23181818181818,
                "end_time": 9.51590909090909,
                "pitch": 79,
                "velocity": 51,
                "duration": 0.28409090909091006,
                "tempo": 120.0
            },
            {
                "start_time": 9.531818181818181,
                "end_time": 9.818181818181818,
                "pitch": 79,
                "velocity": 51,
                "duration": 0.28636363636363704,
                "tempo": 120.0
            },
            {
                "start_time": 9.834090909090909,
                "end_time": 9.884090909090908,
                "pitch": 84,
                "velocity": 51,
                "duration": 0.049999999999998934,
                "tempo": 120.0
            },
            {
                "start_time": 9.918181818181818,
                "end_time": 9.968181818181817,
                "pitch": 77,
                "velocity": 51,
                "duration": 0.049999999999998934,
                "tempo": 120.0
            },
            {
                "start_time": 9.98409090909091,
                "end_time": 10.034090909090908,
                "pitch": 81,
                "velocity": 51,
                "duration": 0.049999999999998934,
                "tempo": 120.0
            },
            {
                "start_time": 10.068181818181818,
                "end_time": 10.118181818181817,
                "pitch": 77,
                "velocity": 51,
                "duration": 0.049999999999998934,
                "tempo": 120.0
            },
            {
                "start_time": 10.134090909090908,
                "end_time": 10.184090909090909,
                "pitch": 84,
                "velocity": 51,
                "duration": 0.05000000000000071,
                "tempo": 120.0
            },
            {
                "start_time": 10.218181818181817,
                "end_time": 10.268181818181818,
                "pitch": 77,
                "velocity": 51,
                "duration": 0.05000000000000071,
                "tempo": 120.0
            },
            {
                "start_time": 10.284090909090908,
                "end_time": 10.336363636363636,
                "pitch": 81,
                "velocity": 51,
                "duration": 0.05227272727272769,
                "tempo": 120.0
            },
            {
                "start_time": 10.368181818181817,
                "end_time": 10.418181818181818,
                "pitch": 77,
                "velocity": 51,
                "duration": 0.05000000000000071,
                "tempo": 120.0
            },
            {
                "start_time": 10.436363636363636,
                "end_time": 10.486363636363636,
                "pitch": 84,
                "velocity": 51,
                "duration": 0.05000000000000071,
                "tempo": 120.0
            },
            {
                "start_time": 10.520454545454545,
                "end_time": 10.570454545454545,
                "pitch": 77,
                "velocity": 51,
                "duration": 0.05000000000000071,
                "tempo": 120.0
            },
            {
                "start_time": 10.586363636363636,
                "end_time": 10.636363636363637,
                "pitch": 81,
                "velocity": 51,
                "duration": 0.05000000000000071,
                "tempo": 120.0
            },
            {
                "start_time": 10.670454545454545,
                "end_time": 10.720454545454546,
                "pitch": 77,
                "velocity": 51,
                "duration": 0.05000000000000071,
                "tempo": 120.0
            },
            {
                "start_time": 10.736363636363636,
                "end_time": 10.786363636363635,
                "pitch": 84,
                "velocity": 51,
                "duration": 0.049999999999998934,
                "tempo": 120.0
            },
            {
                "start_time": 10.820454545454545,
                "end_time": 10.870454545454544,
                "pitch": 77,
                "velocity": 51,
                "duration": 0.049999999999998934,
                "tempo": 120.0
            },
            {
                "start_time": 10.886363636363637,
                "end_time": 10.936363636363636,
                "pitch": 89,
                "velocity": 51,
                "duration": 0.049999999999998934,
                "tempo": 120.0
            },
            {
                "start_time": 10.970454545454546,
                "end_time": 11.020454545454545,
                "pitch": 77,
                "velocity": 51,
                "duration": 0.049999999999998934,
                "tempo": 120.0
            },
            {
                "start_time": 11.036363636363635,
                "end_time": 11.088636363636363,
                "pitch": 84,
                "velocity": 51,
                "duration": 0.05227272727272769,
                "tempo": 120.0
            },
            {
                "start_time": 11.120454545454544,
                "end_time": 11.170454545454545,
                "pitch": 77,
                "velocity": 51,
                "duration": 0.05000000000000071,
                "tempo": 120.0
            },
            {
                "start_time": 11.188636363636363,
                "end_time": 11.238636363636363,
                "pitch": 81,
                "velocity": 51,
                "duration": 0.05000000000000071,
                "tempo": 120.0
            },
            {
                "start_time": 11.272727272727272,
                "end_time": 11.322727272727272,
                "pitch": 77,
                "velocity": 51,
                "duration": 0.05000000000000071,
                "tempo": 120.0
            },
            {
                "start_time": 11.338636363636363,
                "end_time": 11.388636363636364,
                "pitch": 84,
                "velocity": 51,
                "duration": 0.05000000000000071,
                "tempo": 120.0
            },
            {
                "start_time": 11.422727272727272,
                "end_time": 11.472727272727273,
                "pitch": 77,
                "velocity": 51,
                "duration": 0.05000000000000071,
                "tempo": 120.0
            },
            {
                "start_time": 11.488636363636363,
                "end_time": 11.538636363636362,
                "pitch": 81,
                "velocity": 51,
                "duration": 0.049999999999998934,
                "tempo": 120.0
            },
            {
                "start_time": 11.572727272727272,
                "end_time": 11.622727272727273,
                "pitch": 77,
                "velocity": 51,
                "duration": 0.05000000000000071,
                "tempo": 120.0
            },
            {
                "start_time": 11.638636363636364,
                "end_time": 11.688636363636363,
                "pitch": 84,
                "velocity": 51,
                "duration": 0.049999999999998934,
                "tempo": 120.0
            },
            {
                "start_time": 11.722727272727273,
                "end_time": 11.772727272727272,
                "pitch": 77,
                "velocity": 51,
                "duration": 0.049999999999998934,
                "tempo": 120.0
            },
            {
                "start_time": 11.788636363636362,
                "end_time": 11.84090909090909,
                "pitch": 81,
                "velocity": 51,
                "duration": 0.05227272727272769,
                "tempo": 120.0
            },
            {
                "start_time": 11.872727272727273,
                "end_time": 11.922727272727272,
                "pitch": 77,
                "velocity": 51,
                "duration": 0.049999999999998934,
                "tempo": 120.0
            },
            {
                "start_time": 11.94090909090909,
                "end_time": 11.99090909090909,
                "pitch": 84,
                "velocity": 51,
                "duration": 0.05000000000000071,
                "tempo": 120.0
            },
            {
                "start_time": 12.022727272727272,
                "end_time": 12.072727272727272,
                "pitch": 77,
                "velocity": 51,
                "duration": 0.05000000000000071,
                "tempo": 120.0
            },
            {
                "start_time": 12.09090909090909,
                "end_time": 12.14090909090909,
                "pitch": 89,
                "velocity": 51,
                "duration": 0.05000000000000071,
                "tempo": 120.0
            },
            {
                "start_time": 12.172727272727272,
                "end_time": 12.222727272727273,
                "pitch": 77,
                "velocity": 51,
                "duration": 0.05000000000000071,
                "tempo": 120.0
            },
            {
                "start_time": 12.24090909090909,
                "end_time": 12.288636363636362,
                "pitch": 82,
                "velocity": 51,
                "duration": 0.04772727272727195,
                "tempo": 120.0
            },
            {
                "start_time": 12.320454545454545,
                "end_time": 12.370454545454544,
                "pitch": 75,
                "velocity": 51,
                "duration": 0.049999999999998934,
                "tempo": 120.0
            },
            {
                "start_time": 12.386363636363635,
                "end_time": 12.434090909090909,
                "pitch": 79,
                "velocity": 51,
                "duration": 0.04772727272727373,
                "tempo": 120.0
            },
            {
                "start_time": 12.46590909090909,
                "end_time": 12.51590909090909,
                "pitch": 75,
                "velocity": 51,
                "duration": 0.05000000000000071,
                "tempo": 120.0
            },
            {
                "start_time": 12.531818181818181,
                "end_time": 12.584090909090909,
                "pitch": 82,
                "velocity": 51,
                "duration": 0.05227272727272769,
                "tempo": 120.0
            },
            {
                "start_time": 12.618181818181817,
                "end_time": 12.670454545454545,
                "pitch": 75,
                "velocity": 51,
                "duration": 0.05227272727272769,
                "tempo": 120.0
            },
            {
                "start_time": 12.686363636363636,
                "end_time": 12.738636363636363,
                "pitch": 79,
                "velocity": 51,
                "duration": 0.05227272727272769,
                "tempo": 120.0
            },
            {
                "start_time": 12.772727272727272,
                "end_time": 12.825,
                "pitch": 75,
                "velocity": 51,
                "duration": 0.05227272727272769,
                "tempo": 120.0
            },
            {
                "start_time": 12.843181818181817,
                "end_time": 12.893181818181818,
                "pitch": 82,
                "velocity": 51,
                "duration": 0.05000000000000071,
                "tempo": 120.0
            },
            {
                "start_time": 12.924999999999999,
                "end_time": 12.975,
                "pitch": 75,
                "velocity": 51,
                "duration": 0.05000000000000071,
                "tempo": 120.0
            },
            {
                "start_time": 12.993181818181817,
                "end_time": 13.043181818181818,
                "pitch": 79,
                "velocity": 51,
                "duration": 0.05000000000000071,
                "tempo": 120.0
            },
            {
                "start_time": 13.075,
                "end_time": 13.125,
                "pitch": 75,
                "velocity": 51,
                "duration": 0.05000000000000071,
                "tempo": 120.0
            },
            {
                "start_time": 13.143181818181818,
                "end_time": 13.193181818181818,
                "pitch": 82,
                "velocity": 51,
                "duration": 0.05000000000000071,
                "tempo": 120.0
            },
            {
                "start_time": 13.225,
                "end_time": 13.277272727272727,
                "pitch": 75,
                "velocity": 51,
                "duration": 0.05227272727272769,
                "tempo": 120.0
            },
            {
                "start_time": 13.293181818181818,
                "end_time": 13.343181818181817,
                "pitch": 87,
                "velocity": 51,
                "duration": 0.049999999999998934,
                "tempo": 120.0
            },
            {
                "start_time": 13.377272727272727,
                "end_time": 13.427272727272726,
                "pitch": 75,
                "velocity": 51,
                "duration": 0.049999999999998934,
                "tempo": 120.0
            },
            {
                "start_time": 13.443181818181818,
                "end_time": 13.493181818181817,
                "pitch": 82,
                "velocity": 51,
                "duration": 0.049999999999998934,
                "tempo": 120.0
            },
            {
                "start_time": 13.527272727272727,
                "end_time": 13.577272727272726,
                "pitch": 75,
                "velocity": 51,
                "duration": 0.049999999999998934,
                "tempo": 120.0
            },
            {
                "start_time": 13.593181818181817,
                "end_time": 13.643181818181818,
                "pitch": 79,
                "velocity": 51,
                "duration": 0.05000000000000071,
                "tempo": 120.0
            },
            {
                "start_time": 13.677272727272726,
                "end_time": 13.727272727272727,
                "pitch": 75,
                "velocity": 51,
                "duration": 0.05000000000000071,
                "tempo": 120.0
            },
            {
                "start_time": 13.743181818181817,
                "end_time": 13.793181818181818,
                "pitch": 82,
                "velocity": 51,
                "duration": 0.05000000000000071,
                "tempo": 120.0
            },
            {
                "start_time": 13.827272727272726,
                "end_time": 13.877272727272727,
                "pitch": 75,
                "velocity": 51,
                "duration": 0.05000000000000071,
                "tempo": 120.0
            },
            {
                "start_time": 13.895454545454545,
                "end_time": 13.945454545454545,
                "pitch": 79,
                "velocity": 51,
                "duration": 0.05000000000000071,
                "tempo": 120.0
            },
            {
                "start_time": 13.977272727272727,
                "end_time": 14.029545454545454,
                "pitch": 75,
                "velocity": 51,
                "duration": 0.05227272727272769,
                "tempo": 120.0
            },
            {
                "start_time": 14.045454545454545,
                "end_time": 14.095454545454544,
                "pitch": 82,
                "velocity": 51,
                "duration": 0.049999999999998934,
                "tempo": 120.0
            },
            {
                "start_time": 14.129545454545454,
                "end_time": 14.179545454545455,
                "pitch": 75,
                "velocity": 51,
                "duration": 0.05000000000000071,
                "tempo": 120.0
            },
            {
                "start_time": 14.195454545454545,
                "end_time": 14.245454545454544,
                "pitch": 79,
                "velocity": 51,
                "duration": 0.049999999999998934,
                "tempo": 120.0
            },
            {
                "start_time": 14.279545454545454,
                "end_time": 14.329545454545453,
                "pitch": 75,
                "velocity": 51,
                "duration": 0.049999999999998934,
                "tempo": 120.0
            },
            {
                "start_time": 14.347727272727273,
                "end_time": 14.397727272727272,
                "pitch": 82,
                "velocity": 51,
                "duration": 0.049999999999998934,
                "tempo": 120.0
            },
            {
                "start_time": 14.429545454545455,
                "end_time": 14.479545454545454,
                "pitch": 75,
                "velocity": 51,
                "duration": 0.049999999999998934,
                "tempo": 120.0
            },
            {
                "start_time": 14.497727272727271,
                "end_time": 14.547727272727272,
                "pitch": 87,
                "velocity": 51,
                "duration": 0.05000000000000071,
                "tempo": 120.0
            },
            {
                "start_time": 14.579545454545453,
                "end_time": 14.629545454545454,
                "pitch": 75,
                "velocity": 51,
                "duration": 0.05000000000000071,
                "tempo": 120.0
            },
            {
                "start_time": 14.647727272727272,
                "end_time": 14.697727272727272,
                "pitch": 84,
                "velocity": 51,
                "duration": 0.05000000000000071,
                "tempo": 120.0
            },
            {
                "start_time": 14.729545454545454,
                "end_time": 14.781818181818181,
                "pitch": 75,
                "velocity": 51,
                "duration": 0.05227272727272769,
                "tempo": 120.0
            },
            {
                "start_time": 14.797727272727272,
                "end_time": 14.847727272727273,
                "pitch": 80,
                "velocity": 51,
                "duration": 0.05000000000000071,
                "tempo": 120.0
            },
            {
                "start_time": 14.881818181818181,
                "end_time": 14.931818181818182,
                "pitch": 75,
                "velocity": 51,
                "duration": 0.05000000000000071,
                "tempo": 120.0
            },
            {
                "start_time": 14.947727272727272,
                "end_time": 14.997727272727271,
                "pitch": 84,
                "velocity": 51,
                "duration": 0.049999999999998934,
                "tempo": 120.0
            },
            {
                "start_time": 15.031818181818181,
                "end_time": 15.08181818181818,
                "pitch": 75,
                "velocity": 51,
                "duration": 0.049999999999998934,
                "tempo": 120.0
            },
            {
                "start_time": 15.097727272727273,
                "end_time": 15.147727272727272,
                "pitch": 80,
                "velocity": 51,
                "duration": 0.049999999999998934,
                "tempo": 120.0
            },
            {
                "start_time": 15.181818181818182,
                "end_time": 15.23181818181818,
                "pitch": 75,
                "velocity": 51,
                "duration": 0.049999999999998934,
                "tempo": 120.0
            },
            {
                "start_time": 15.247727272727271,
                "end_time": 15.297727272727272,
                "pitch": 84,
                "velocity": 51,
                "duration": 0.05000000000000071,
                "tempo": 120.0
            },
            {
                "start_time": 15.33181818181818,
                "end_time": 15.381818181818181,
                "pitch": 75,
                "velocity": 51,
                "duration": 0.05000000000000071,
                "tempo": 120.0
            },
            {
                "start_time": 15.399999999999999,
                "end_time": 15.45,
                "pitch": 80,
                "velocity": 51,
                "duration": 0.05000000000000071,
                "tempo": 120.0
            },
            {
                "start_time": 15.48181818181818,
                "end_time": 15.534090909090908,
                "pitch": 75,
                "velocity": 51,
                "duration": 0.05227272727272769,
                "tempo": 120.0
            },
            {
                "start_time": 15.549999999999999,
                "end_time": 15.6,
                "pitch": 84,
                "velocity": 51,
                "duration": 0.05000000000000071,
                "tempo": 120.0
            },
            {
                "start_time": 15.634090909090908,
                "end_time": 15.684090909090909,
                "pitch": 75,
                "velocity": 51,
                "duration": 0.05000000000000071,
                "tempo": 120.0
            },
            {
                "start_time": 15.7,
                "end_time": 15.75,
                "pitch": 86,
                "velocity": 51,
                "duration": 0.05000000000000071,
                "tempo": 120.0
            },
            {
                "start_time": 15.784090909090908,
                "end_time": 15.834090909090909,
                "pitch": 75,
                "velocity": 51,
                "duration": 0.05000000000000071,
                "tempo": 120.0
            },
            {
                "start_time": 15.852272727272727,
                "end_time": 15.899999999999999,
                "pitch": 87,
                "velocity": 51,
                "duration": 0.04772727272727195,
                "tempo": 120.0
            },
            {
                "start_time": 15.931818181818182,
                "end_time": 15.98181818181818,
                "pitch": 75,
                "velocity": 51,
                "duration": 0.049999999999998934,
                "tempo": 120.0
            },
            {
                "start_time": 15.997727272727271,
                "end_time": 16.045454545454543,
                "pitch": 84,
                "velocity": 51,
                "duration": 0.04772727272727195,
                "tempo": 120.0
            },
            {
                "start_time": 16.077272727272728,
                "end_time": 16.127272727272725,
                "pitch": 75,
                "velocity": 51,
                "duration": 0.04999999999999716,
                "tempo": 120.0
            },
            {
                "start_time": 16.143181818181816,
                "end_time": 16.193181818181817,
                "pitch": 80,
                "velocity": 51,
                "duration": 0.05000000000000071,
                "tempo": 120.0
            },
            {
                "start_time": 16.229545454545455,
                "end_time": 16.279545454545453,
                "pitch": 75,
                "velocity": 51,
                "duration": 0.04999999999999716,
                "tempo": 120.0
            },
            {
                "start_time": 16.297727272727272,
                "end_time": 16.349999999999998,
                "pitch": 84,
                "velocity": 51,
                "duration": 0.052272727272725916,
                "tempo": 120.0
            },
            {
                "start_time": 16.384090909090908,
                "end_time": 16.436363636363634,
                "pitch": 75,
                "velocity": 51,
                "duration": 0.052272727272725916,
                "tempo": 120.0
            },
            {
                "start_time": 16.452272727272728,
                "end_time": 16.502272727272725,
                "pitch": 80,
                "velocity": 51,
                "duration": 0.04999999999999716,
                "tempo": 120.0
            },
            {
                "start_time": 16.536363636363635,
                "end_time": 16.586363636363636,
                "pitch": 75,
                "velocity": 51,
                "duration": 0.05000000000000071,
                "tempo": 120.0
            },
            {
                "start_time": 16.602272727272727,
                "end_time": 16.652272727272727,
                "pitch": 84,
                "velocity": 51,
                "duration": 0.05000000000000071,
                "tempo": 120.0
            },
            {
                "start_time": 16.686363636363634,
                "end_time": 16.736363636363635,
                "pitch": 75,
                "velocity": 51,
                "duration": 0.05000000000000071,
                "tempo": 120.0
            },
            {
                "start_time": 16.752272727272725,
                "end_time": 16.804545454545455,
                "pitch": 80,
                "velocity": 51,
                "duration": 0.05227272727272947,
                "tempo": 120.0
            },
            {
                "start_time": 16.836363636363636,
                "end_time": 16.886363636363637,
                "pitch": 75,
                "velocity": 51,
                "duration": 0.05000000000000071,
                "tempo": 120.0
            },
            {
                "start_time": 16.904545454545453,
                "end_time": 16.954545454545453,
                "pitch": 84,
                "velocity": 51,
                "duration": 0.05000000000000071,
                "tempo": 120.0
            },
            {
                "start_time": 16.988636363636363,
                "end_time": 17.038636363636364,
                "pitch": 75,
                "velocity": 51,
                "duration": 0.05000000000000071,
                "tempo": 120.0
            },
            {
                "start_time": 17.054545454545455,
                "end_time": 17.104545454545455,
                "pitch": 86,
                "velocity": 51,
                "duration": 0.05000000000000071,
                "tempo": 120.0
            },
            {
                "start_time": 17.138636363636362,
                "end_time": 17.188636363636363,
                "pitch": 77,
                "velocity": 51,
                "duration": 0.05000000000000071,
                "tempo": 120.0
            },
            {
                "start_time": 17.204545454545453,
                "end_time": 17.256818181818183,
                "pitch": 82,
                "velocity": 51,
                "duration": 0.05227272727272947,
                "tempo": 120.0
            },
            {
                "start_time": 17.288636363636364,
                "end_time": 17.33863636363636,
                "pitch": 77,
                "velocity": 51,
                "duration": 0.04999999999999716,
                "tempo": 120.0
            },
            {
                "start_time": 17.35681818181818,
                "end_time": 17.40681818181818,
                "pitch": 86,
                "velocity": 51,
                "duration": 0.05000000000000071,
                "tempo": 120.0
            },
            {
                "start_time": 17.44090909090909,
                "end_time": 17.49090909090909,
                "pitch": 77,
                "velocity": 51,
                "duration": 0.04999999999999716,
                "tempo": 120.0
            },
            {
                "start_time": 17.506818181818183,
                "end_time": 17.55681818181818,
                "pitch": 82,
                "velocity": 51,
                "duration": 0.04999999999999716,
                "tempo": 120.0
            },
            {
                "start_time": 17.59090909090909,
                "end_time": 17.64090909090909,
                "pitch": 77,
                "velocity": 51,
                "duration": 0.05000000000000071,
                "tempo": 120.0
            },
            {
                "start_time": 17.65681818181818,
                "end_time": 17.706818181818182,
                "pitch": 86,
                "velocity": 51,
                "duration": 0.05000000000000071,
                "tempo": 120.0
            },
            {
                "start_time": 17.74090909090909,
                "end_time": 17.79090909090909,
                "pitch": 77,
                "velocity": 51,
                "duration": 0.05000000000000071,
                "tempo": 120.0
            },
            {
                "start_time": 17.80681818181818,
                "end_time": 17.85681818181818,
                "pitch": 82,
                "velocity": 51,
                "duration": 0.05000000000000071,
                "tempo": 120.0
            },
            {
                "start_time": 17.89090909090909,
                "end_time": 17.94090909090909,
                "pitch": 77,
                "velocity": 51,
                "duration": 0.05000000000000071,
                "tempo": 120.0
            },
            {
                "start_time": 17.956818181818182,
                "end_time": 18.009090909090908,
                "pitch": 86,
                "velocity": 51,
                "duration": 0.052272727272725916,
                "tempo": 120.0
            },
            {
                "start_time": 18.04090909090909,
                "end_time": 18.09090909090909,
                "pitch": 77,
                "velocity": 51,
                "duration": 0.05000000000000071,
                "tempo": 120.0
            },
            {
                "start_time": 18.10909090909091,
                "end_time": 18.159090909090907,
                "pitch": 82,
                "velocity": 51,
                "duration": 0.04999999999999716,
                "tempo": 120.0
            },
            {
                "start_time": 18.193181818181817,
                "end_time": 18.243181818181817,
                "pitch": 77,
                "velocity": 51,
                "duration": 0.05000000000000071,
                "tempo": 120.0
            },
            {
                "start_time": 18.259090909090908,
                "end_time": 18.30681818181818,
                "pitch": 86,
                "velocity": 51,
                "duration": 0.04772727272727195,
                "tempo": 120.0
            },
            {
                "start_time": 18.34090909090909,
                "end_time": 18.388636363636362,
                "pitch": 77,
                "velocity": 51,
                "duration": 0.04772727272727195,
                "tempo": 120.0
            },
            {
                "start_time": 18.404545454545453,
                "end_time": 18.452272727272728,
                "pitch": 89,
                "velocity": 51,
                "duration": 0.047727272727275505,
                "tempo": 120.0
            },
            {
                "start_time": 18.486363636363635,
                "end_time": 18.534090909090907,
                "pitch": 77,
                "velocity": 51,
                "duration": 0.04772727272727195,
                "tempo": 120.0
            },
            {
                "start_time": 18.55,
                "end_time": 18.602272727272727,
                "pitch": 86,
                "velocity": 51,
                "duration": 0.052272727272725916,
                "tempo": 120.0
            },
            {
                "start_time": 18.636363636363637,
                "end_time": 18.688636363636363,
                "pitch": 77,
                "velocity": 51,
                "duration": 0.052272727272725916,
                "tempo": 120.0
            },
            {
                "start_time": 18.704545454545453,
                "end_time": 18.75681818181818,
                "pitch": 82,
                "velocity": 51,
                "duration": 0.052272727272725916,
                "tempo": 120.0
            },
            {
                "start_time": 18.79090909090909,
                "end_time": 18.84318181818182,
                "pitch": 77,
                "velocity": 51,
                "duration": 0.05227272727272947,
                "tempo": 120.0
            },
            {
                "start_time": 18.861363636363635,
                "end_time": 18.909090909090907,
                "pitch": 86,
                "velocity": 51,
                "duration": 0.04772727272727195,
                "tempo": 120.0
            },
            {
                "start_time": 18.94090909090909,
                "end_time": 18.99090909090909,
                "pitch": 77,
                "velocity": 51,
                "duration": 0.04999999999999716,
                "tempo": 120.0
            },
            {
                "start_time": 19.00681818181818,
                "end_time": 19.054545454545455,
                "pitch": 82,
                "velocity": 51,
                "duration": 0.047727272727275505,
                "tempo": 120.0
            },
            {
                "start_time": 19.086363636363636,
                "end_time": 19.136363636363637,
                "pitch": 77,
                "velocity": 51,
                "duration": 0.05000000000000071,
                "tempo": 120.0
            },
            {
                "start_time": 19.152272727272727,
                "end_time": 19.202272727272728,
                "pitch": 86,
                "velocity": 51,
                "duration": 0.05000000000000071,
                "tempo": 120.0
            },
            {
                "start_time": 19.238636363636363,
                "end_time": 19.288636363636364,
                "pitch": 77,
                "velocity": 51,
                "duration": 0.05000000000000071,
                "tempo": 120.0
            },
            {
                "start_time": 19.30681818181818,
                "end_time": 19.35909090909091,
                "pitch": 82,
                "velocity": 51,
                "duration": 0.05227272727272947,
                "tempo": 120.0
            },
            {
                "start_time": 19.393181818181816,
                "end_time": 19.445454545454545,
                "pitch": 77,
                "velocity": 51,
                "duration": 0.05227272727272947,
                "tempo": 120.0
            },
            {
                "start_time": 19.461363636363636,
                "end_time": 19.513636363636362,
                "pitch": 84,
                "velocity": 51,
                "duration": 0.052272727272725916,
                "tempo": 120.0
            },
            {
                "start_time": 19.545454545454543,
                "end_time": 19.595454545454544,
                "pitch": 77,
                "velocity": 51,
                "duration": 0.05000000000000071,
                "tempo": 120.0
            },
            {
                "start_time": 19.613636363636363,
                "end_time": 19.663636363636364,
                "pitch": 81,
                "velocity": 51,
                "duration": 0.05000000000000071,
                "tempo": 120.0
            },
            {
                "start_time": 19.69772727272727,
                "end_time": 19.74772727272727,
                "pitch": 77,
                "velocity": 51,
                "duration": 0.05000000000000071,
                "tempo": 120.0
            },
            {
                "start_time": 19.763636363636362,
                "end_time": 19.813636363636363,
                "pitch": 84,
                "velocity": 51,
                "duration": 0.05000000000000071,
                "tempo": 120.0
            },
            {
                "start_time": 19.847727272727273,
                "end_time": 19.897727272727273,
                "pitch": 77,
                "velocity": 51,
                "duration": 0.05000000000000071,
                "tempo": 120.0
            },
            {
                "start_time": 19.913636363636364,
                "end_time": 19.96590909090909,
                "pitch": 81,
                "velocity": 51,
                "duration": 0.052272727272725916,
                "tempo": 120.0
            },
            {
                "start_time": 19.99772727272727,
                "end_time": 20.047727272727272,
                "pitch": 77,
                "velocity": 51,
                "duration": 0.05000000000000071,
                "tempo": 120.0
            },
            {
                "start_time": 20.06590909090909,
                "end_time": 20.11590909090909,
                "pitch": 84,
                "velocity": 51,
                "duration": 0.04999999999999716,
                "tempo": 120.0
            },
            {
                "start_time": 20.15,
                "end_time": 20.2,
                "pitch": 77,
                "velocity": 51,
                "duration": 0.05000000000000071,
                "tempo": 120.0
            },
            {
                "start_time": 20.21590909090909,
                "end_time": 20.26590909090909,
                "pitch": 81,
                "velocity": 51,
                "duration": 0.05000000000000071,
                "tempo": 120.0
            },
            {
                "start_time": 20.3,
                "end_time": 20.349999999999998,
                "pitch": 77,
                "velocity": 51,
                "duration": 0.04999999999999716,
                "tempo": 120.0
            },
            {
                "start_time": 20.36590909090909,
                "end_time": 20.418181818181818,
                "pitch": 84,
                "velocity": 51,
                "duration": 0.05227272727272947,
                "tempo": 120.0
            },
            {
                "start_time": 20.45,
                "end_time": 20.5,
                "pitch": 77,
                "velocity": 51,
                "duration": 0.05000000000000071,
                "tempo": 120.0
            },
            {
                "start_time": 20.518181818181816,
                "end_time": 20.568181818181817,
                "pitch": 89,
                "velocity": 51,
                "duration": 0.05000000000000071,
                "tempo": 120.0
            },
            {
                "start_time": 20.602272727272727,
                "end_time": 20.652272727272727,
                "pitch": 77,
                "velocity": 51,
                "duration": 0.05000000000000071,
                "tempo": 120.0
            },
            {
                "start_time": 20.668181818181818,
                "end_time": 20.71818181818182,
                "pitch": 84,
                "velocity": 51,
                "duration": 0.05000000000000071,
                "tempo": 120.0
            },
            {
                "start_time": 20.752272727272725,
                "end_time": 20.802272727272726,
                "pitch": 77,
                "velocity": 51,
                "duration": 0.05000000000000071,
                "tempo": 120.0
            },
            {
                "start_time": 20.818181818181817,
                "end_time": 20.868181818181817,
                "pitch": 81,
                "velocity": 51,
                "duration": 0.05000000000000071,
                "tempo": 120.0
            },
            {
                "start_time": 20.902272727272727,
                "end_time": 20.952272727272724,
                "pitch": 77,
                "velocity": 51,
                "duration": 0.04999999999999716,
                "tempo": 120.0
            },
            {
                "start_time": 20.96818181818182,
                "end_time": 21.018181818181816,
                "pitch": 84,
                "velocity": 51,
                "duration": 0.04999999999999716,
                "tempo": 120.0
            },
            {
                "start_time": 21.052272727272726,
                "end_time": 21.102272727272727,
                "pitch": 77,
                "velocity": 51,
                "duration": 0.05000000000000071,
                "tempo": 120.0
            },
            {
                "start_time": 21.118181818181817,
                "end_time": 21.170454545454543,
                "pitch": 81,
                "velocity": 51,
                "duration": 0.052272727272725916,
                "tempo": 120.0
            },
            {
                "start_time": 21.202272727272724,
                "end_time": 21.252272727272725,
                "pitch": 77,
                "velocity": 51,
                "duration": 0.05000000000000071,
                "tempo": 120.0
            },
            {
                "start_time": 21.270454545454545,
                "end_time": 21.318181818181817,
                "pitch": 84,
                "velocity": 51,
                "duration": 0.04772727272727195,
                "tempo": 120.0
            },
            {
                "start_time": 21.349999999999998,
                "end_time": 21.4,
                "pitch": 77,
                "velocity": 51,
                "duration": 0.05000000000000071,
                "tempo": 120.0
            },
            {
                "start_time": 21.41590909090909,
                "end_time": 21.46363636363636,
                "pitch": 89,
                "velocity": 51,
                "duration": 0.04772727272727195,
                "tempo": 120.0
            },
            {
                "start_time": 21.495454545454546,
                "end_time": 21.545454545454543,
                "pitch": 77,
                "velocity": 51,
                "duration": 0.04999999999999716,
                "tempo": 120.0
            },
            {
                "start_time": 21.561363636363634,
                "end_time": 21.613636363636363,
                "pitch": 84,
                "velocity": 51,
                "duration": 0.05227272727272947,
                "tempo": 120.0
            },
            {
                "start_time": 21.647727272727273,
                "end_time": 21.7,
                "pitch": 77,
                "velocity": 51,
                "duration": 0.052272727272725916,
                "tempo": 120.0
            },
            {
                "start_time": 21.71590909090909,
                "end_time": 21.768181818181816,
                "pitch": 81,
                "velocity": 51,
                "duration": 0.052272727272725916,
                "tempo": 120.0
            },
            {
                "start_time": 21.802272727272726,
                "end_time": 21.854545454545452,
                "pitch": 77,
                "velocity": 51,
                "duration": 0.052272727272725916,
                "tempo": 120.0
            },
            {
                "start_time": 21.87272727272727,
                "end_time": 21.922727272727272,
                "pitch": 82,
                "velocity": 51,
                "duration": 0.05000000000000071,
                "tempo": 120.0
            },
            {
                "start_time": 21.954545454545453,
                "end_time": 22.00681818181818,
                "pitch": 75,
                "velocity": 51,
                "duration": 0.052272727272725916,
                "tempo": 120.0
            },
            {
                "start_time": 22.022727272727273,
                "end_time": 22.07272727272727,
                "pitch": 79,
                "velocity": 51,
                "duration": 0.04999999999999716,
                "tempo": 120.0
            },
            {
                "start_time": 22.10681818181818,
                "end_time": 22.15681818181818,
                "pitch": 75,
                "velocity": 51,
                "duration": 0.05000000000000071,
                "tempo": 120.0
            },
            {
                "start_time": 22.172727272727272,
                "end_time": 22.222727272727273,
                "pitch": 82,
                "velocity": 51,
                "duration": 0.05000000000000071,
                "tempo": 120.0
            },
            {
                "start_time": 22.25681818181818,
                "end_time": 22.30681818181818,
                "pitch": 75,
                "velocity": 51,
                "duration": 0.05000000000000071,
                "tempo": 120.0
            },
            {
                "start_time": 22.32272727272727,
                "end_time": 22.37272727272727,
                "pitch": 79,
                "velocity": 51,
                "duration": 0.05000000000000071,
                "tempo": 120.0
            },
            {
                "start_time": 22.40681818181818,
                "end_time": 22.456818181818182,
                "pitch": 75,
                "velocity": 51,
                "duration": 0.05000000000000071,
                "tempo": 120.0
            },
            {
                "start_time": 22.472727272727273,
                "end_time": 22.522727272727273,
                "pitch": 82,
                "velocity": 51,
                "duration": 0.05000000000000071,
                "tempo": 120.0
            },
            {
                "start_time": 22.55681818181818,
                "end_time": 22.60681818181818,
                "pitch": 75,
                "velocity": 51,
                "duration": 0.05000000000000071,
                "tempo": 120.0
            },
            {
                "start_time": 22.625,
                "end_time": 22.674999999999997,
                "pitch": 79,
                "velocity": 51,
                "duration": 0.04999999999999716,
                "tempo": 120.0
            },
            {
                "start_time": 22.706818181818182,
                "end_time": 22.759090909090908,
                "pitch": 75,
                "velocity": 51,
                "duration": 0.052272727272725916,
                "tempo": 120.0
            },
            {
                "start_time": 22.775,
                "end_time": 22.82272727272727,
                "pitch": 82,
                "velocity": 51,
                "duration": 0.04772727272727195,
                "tempo": 120.0
            },
            {
                "start_time": 22.854545454545452,
                "end_time": 22.904545454545453,
                "pitch": 75,
                "velocity": 51,
                "duration": 0.05000000000000071,
                "tempo": 120.0
            },
            {
                "start_time": 22.920454545454543,
                "end_time": 22.96818181818182,
                "pitch": 87,
                "velocity": 51,
                "duration": 0.047727272727275505,
                "tempo": 120.0
            },
            {
                "start_time": 23.002272727272725,
                "end_time": 23.049999999999997,
                "pitch": 75,
                "velocity": 51,
                "duration": 0.04772727272727195,
                "tempo": 120.0
            },
            {
                "start_time": 23.06590909090909,
                "end_time": 23.11590909090909,
                "pitch": 82,
                "velocity": 51,
                "duration": 0.04999999999999716,
                "tempo": 120.0
            },
            {
                "start_time": 23.15,
                "end_time": 23.2,
                "pitch": 75,
                "velocity": 51,
                "duration": 0.05000000000000071,
                "tempo": 120.0
            },
            {
                "start_time": 23.21590909090909,
                "end_time": 23.268181818181816,
                "pitch": 79,
                "velocity": 51,
                "duration": 0.052272727272725916,
                "tempo": 120.0
            },
            {
                "start_time": 23.299999999999997,
                "end_time": 23.349999999999998,
                "pitch": 75,
                "velocity": 51,
                "duration": 0.05000000000000071,
                "tempo": 120.0
            },
            {
                "start_time": 23.368181818181817,
                "end_time": 23.418181818181818,
                "pitch": 82,
                "velocity": 51,
                "duration": 0.05000000000000071,
                "tempo": 120.0
            },
            {
                "start_time": 23.452272727272724,
                "end_time": 23.502272727272725,
                "pitch": 75,
                "velocity": 51,
                "duration": 0.05000000000000071,
                "tempo": 120.0
            },
            {
                "start_time": 23.518181818181816,
                "end_time": 23.568181818181817,
                "pitch": 79,
                "velocity": 51,
                "duration": 0.05000000000000071,
                "tempo": 120.0
            },
            {
                "start_time": 23.602272727272727,
                "end_time": 23.652272727272727,
                "pitch": 75,
                "velocity": 51,
                "duration": 0.05000000000000071,
                "tempo": 120.0
            },
            {
                "start_time": 23.668181818181818,
                "end_time": 23.720454545454544,
                "pitch": 82,
                "velocity": 51,
                "duration": 0.052272727272725916,
                "tempo": 120.0
            },
            {
                "start_time": 23.754545454545454,
                "end_time": 23.80681818181818,
                "pitch": 75,
                "velocity": 51,
                "duration": 0.052272727272725916,
                "tempo": 120.0
            },
            {
                "start_time": 23.825,
                "end_time": 23.877272727272725,
                "pitch": 87,
                "velocity": 51,
                "duration": 0.052272727272725916,
                "tempo": 120.0
            },
            {
                "start_time": 23.911363636363635,
                "end_time": 23.96363636363636,
                "pitch": 75,
                "velocity": 51,
                "duration": 0.052272727272725916,
                "tempo": 120.0
            },
            {
                "start_time": 23.979545454545452,
                "end_time": 24.029545454545453,
                "pitch": 82,
                "velocity": 51,
                "duration": 0.05000000000000071,
                "tempo": 120.0
            },
            {
                "start_time": 24.063636363636363,
                "end_time": 24.113636363636363,
                "pitch": 75,
                "velocity": 51,
                "duration": 0.05000000000000071,
                "tempo": 120.0
            },
            {
                "start_time": 24.13181818181818,
                "end_time": 24.18181818181818,
                "pitch": 79,
                "velocity": 51,
                "duration": 0.05000000000000071,
                "tempo": 120.0
            },
            {
                "start_time": 24.21363636363636,
                "end_time": 24.26590909090909,
                "pitch": 75,
                "velocity": 51,
                "duration": 0.05227272727272947,
                "tempo": 120.0
            },
            {
                "start_time": 24.28181818181818,
                "end_time": 24.331818181818182,
                "pitch": 84,
                "velocity": 51,
                "duration": 0.05000000000000071,
                "tempo": 120.0
            },
            {
                "start_time": 24.36590909090909,
                "end_time": 24.41590909090909,
                "pitch": 75,
                "velocity": 51,
                "duration": 0.05000000000000071,
                "tempo": 120.0
            },
            {
                "start_time": 24.43181818181818,
                "end_time": 24.48181818181818,
                "pitch": 80,
                "velocity": 51,
                "duration": 0.05000000000000071,
                "tempo": 120.0
            },
            {
                "start_time": 24.51590909090909,
                "end_time": 24.56590909090909,
                "pitch": 75,
                "velocity": 51,
                "duration": 0.05000000000000071,
                "tempo": 120.0
            },
            {
                "start_time": 24.584090909090907,
                "end_time": 24.634090909090908,
                "pitch": 84,
                "velocity": 51,
                "duration": 0.05000000000000071,
                "tempo": 120.0
            },
            {
                "start_time": 24.66590909090909,
                "end_time": 24.71590909090909,
                "pitch": 75,
                "velocity": 51,
                "duration": 0.05000000000000071,
                "tempo": 120.0
            },
            {
                "start_time": 24.73409090909091,
                "end_time": 24.784090909090907,
                "pitch": 80,
                "velocity": 51,
                "duration": 0.04999999999999716,
                "tempo": 120.0
            },
            {
                "start_time": 24.818181818181817,
                "end_time": 24.868181818181817,
                "pitch": 75,
                "velocity": 51,
                "duration": 0.05000000000000071,
                "tempo": 120.0
            },
            {
                "start_time": 24.884090909090908,
                "end_time": 24.93409090909091,
                "pitch": 84,
                "velocity": 51,
                "duration": 0.05000000000000071,
                "tempo": 120.0
            },
            {
                "start_time": 24.96818181818182,
                "end_time": 25.018181818181816,
                "pitch": 75,
                "velocity": 51,
                "duration": 0.04999999999999716,
                "tempo": 120.0
            },
            {
                "start_time": 25.036363636363635,
                "end_time": 25.086363636363636,
                "pitch": 80,
                "velocity": 51,
                "duration": 0.05000000000000071,
                "tempo": 120.0
            },
            {
                "start_time": 25.118181818181817,
                "end_time": 25.168181818181818,
                "pitch": 75,
                "velocity": 51,
                "duration": 0.05000000000000071,
                "tempo": 120.0
            },
            {
                "start_time": 25.186363636363634,
                "end_time": 25.236363636363635,
                "pitch": 87,
                "velocity": 51,
                "duration": 0.05000000000000071,
                "tempo": 120.0
            },
            {
                "start_time": 25.270454545454545,
                "end_time": 25.320454545454545,
                "pitch": 75,
                "velocity": 51,
                "duration": 0.05000000000000071,
                "tempo": 120.0
            },
            {
                "start_time": 25.336363636363636,
                "end_time": 25.386363636363637,
                "pitch": 84,
                "velocity": 51,
                "duration": 0.05000000000000071,
                "tempo": 120.0
            },
            {
                "start_time": 25.420454545454543,
                "end_time": 25.470454545454544,
                "pitch": 75,
                "velocity": 51,
                "duration": 0.05000000000000071,
                "tempo": 120.0
            },
            {
                "start_time": 25.486363636363635,
                "end_time": 25.536363636363635,
                "pitch": 80,
                "velocity": 51,
                "duration": 0.05000000000000071,
                "tempo": 120.0
            },
            {
                "start_time": 25.570454545454545,
                "end_time": 25.620454545454542,
                "pitch": 75,
                "velocity": 51,
                "duration": 0.04999999999999716,
                "tempo": 120.0
            },
            {
                "start_time": 25.636363636363637,
                "end_time": 25.686363636363634,
                "pitch": 84,
                "velocity": 51,
                "duration": 0.04999999999999716,
                "tempo": 120.0
            },
            {
                "start_time": 25.720454545454544,
                "end_time": 25.770454545454545,
                "pitch": 75,
                "velocity": 51,
                "duration": 0.05000000000000071,
                "tempo": 120.0
            },
            {
                "start_time": 25.788636363636364,
                "end_time": 25.83863636363636,
                "pitch": 80,
                "velocity": 51,
                "duration": 0.04999999999999716,
                "tempo": 120.0
            },
            {
                "start_time": 25.870454545454542,
                "end_time": 25.920454545454543,
                "pitch": 75,
                "velocity": 51,
                "duration": 0.05000000000000071,
                "tempo": 120.0
            },
            {
                "start_time": 25.938636363636363,
                "end_time": 25.988636363636363,
                "pitch": 84,
                "velocity": 51,
                "duration": 0.05000000000000071,
                "tempo": 120.0
            },
            {
                "start_time": 26.02272727272727,
                "end_time": 26.07272727272727,
                "pitch": 75,
                "velocity": 51,
                "duration": 0.05000000000000071,
                "tempo": 120.0
            },
            {
                "start_time": 26.08863636363636,
                "end_time": 26.138636363636362,
                "pitch": 87,
                "velocity": 51,
                "duration": 0.05000000000000071,
                "tempo": 120.0
            },
            {
                "start_time": 26.172727272727272,
                "end_time": 26.222727272727273,
                "pitch": 75,
                "velocity": 51,
                "duration": 0.05000000000000071,
                "tempo": 120.0
            },
            {
                "start_time": 26.24090909090909,
                "end_time": 26.29090909090909,
                "pitch": 84,
                "velocity": 51,
                "duration": 0.05000000000000071,
                "tempo": 120.0
            },
            {
                "start_time": 26.32272727272727,
                "end_time": 26.37272727272727,
                "pitch": 75,
                "velocity": 51,
                "duration": 0.05000000000000071,
                "tempo": 120.0
            },
            {
                "start_time": 26.39090909090909,
                "end_time": 26.44090909090909,
                "pitch": 80,
                "velocity": 51,
                "duration": 0.05000000000000071,
                "tempo": 120.0
            },
            {
                "start_time": 26.474999999999998,
                "end_time": 26.525,
                "pitch": 75,
                "velocity": 51,
                "duration": 0.05000000000000071,
                "tempo": 120.0
            },
            {
                "start_time": 26.54090909090909,
                "end_time": 26.59090909090909,
                "pitch": 84,
                "velocity": 51,
                "duration": 0.05000000000000071,
                "tempo": 120.0
            },
            {
                "start_time": 26.625,
                "end_time": 26.674999999999997,
                "pitch": 75,
                "velocity": 51,
                "duration": 0.04999999999999716,
                "tempo": 120.0
            },
            {
                "start_time": 26.693181818181817,
                "end_time": 26.743181818181817,
                "pitch": 86,
                "velocity": 51,
                "duration": 0.05000000000000071,
                "tempo": 120.0
            },
            {
                "start_time": 26.775,
                "end_time": 26.825,
                "pitch": 77,
                "velocity": 51,
                "duration": 0.05000000000000071,
                "tempo": 120.0
            },
            {
                "start_time": 26.843181818181815,
                "end_time": 26.893181818181816,
                "pitch": 82,
                "velocity": 51,
                "duration": 0.05000000000000071,
                "tempo": 120.0
            },
            {
                "start_time": 26.924999999999997,
                "end_time": 26.974999999999998,
                "pitch": 77,
                "velocity": 51,
                "duration": 0.05000000000000071,
                "tempo": 120.0
            },
            {
                "start_time": 26.993181818181817,
                "end_time": 27.043181818181818,
                "pitch": 86,
                "velocity": 51,
                "duration": 0.05000000000000071,
                "tempo": 120.0
            },
            {
                "start_time": 27.075,
                "end_time": 27.125,
                "pitch": 77,
                "velocity": 51,
                "duration": 0.05000000000000071,
                "tempo": 120.0
            },
            {
                "start_time": 27.143181818181816,
                "end_time": 27.193181818181817,
                "pitch": 82,
                "velocity": 51,
                "duration": 0.05000000000000071,
                "tempo": 120.0
            },
            {
                "start_time": 27.227272727272727,
                "end_time": 27.277272727272727,
                "pitch": 77,
                "velocity": 51,
                "duration": 0.05000000000000071,
                "tempo": 120.0
            },
            {
                "start_time": 27.293181818181818,
                "end_time": 27.343181818181815,
                "pitch": 86,
                "velocity": 51,
                "duration": 0.04999999999999716,
                "tempo": 120.0
            },
            {
                "start_time": 27.377272727272725,
                "end_time": 27.427272727272726,
                "pitch": 77,
                "velocity": 51,
                "duration": 0.05000000000000071,
                "tempo": 120.0
            },
            {
                "start_time": 27.445454545454545,
                "end_time": 27.495454545454542,
                "pitch": 82,
                "velocity": 51,
                "duration": 0.04999999999999716,
                "tempo": 120.0
            },
            {
                "start_time": 27.527272727272727,
                "end_time": 27.577272727272724,
                "pitch": 77,
                "velocity": 51,
                "duration": 0.04999999999999716,
                "tempo": 120.0
            },
            {
                "start_time": 27.595454545454544,
                "end_time": 27.645454545454545,
                "pitch": 86,
                "velocity": 51,
                "duration": 0.05000000000000071,
                "tempo": 120.0
            },
            {
                "start_time": 27.679545454545455,
                "end_time": 27.729545454545452,
                "pitch": 77,
                "velocity": 51,
                "duration": 0.04999999999999716,
                "tempo": 120.0
            },
            {
                "start_time": 27.745454545454542,
                "end_time": 27.795454545454543,
                "pitch": 82,
                "velocity": 51,
                "duration": 0.05000000000000071,
                "tempo": 120.0
            },
            {
                "start_time": 27.829545454545453,
                "end_time": 27.879545454545454,
                "pitch": 77,
                "velocity": 51,
                "duration": 0.05000000000000071,
                "tempo": 120.0
            },
            {
                "start_time": 27.895454545454545,
                "end_time": 27.945454545454545,
                "pitch": 88,
                "velocity": 51,
                "duration": 0.05000000000000071,
                "tempo": 120.0
            },
            {
                "start_time": 27.977272727272727,
                "end_time": 28.025,
                "pitch": 79,
                "velocity": 51,
                "duration": 0.04772727272727195,
                "tempo": 120.0
            },
            {
                "start_time": 28.043181818181818,
                "end_time": 28.09090909090909,
                "pitch": 84,
                "velocity": 51,
                "duration": 0.04772727272727195,
                "tempo": 120.0
            },
            {
                "start_time": 28.12272727272727,
                "end_time": 28.170454545454543,
                "pitch": 79,
                "velocity": 51,
                "duration": 0.04772727272727195,
                "tempo": 120.0
            },
            {
                "start_time": 28.188636363636363,
                "end_time": 28.238636363636363,
                "pitch": 88,
                "velocity": 51,
                "duration": 0.05000000000000071,
                "tempo": 120.0
            },
            {
                "start_time": 28.27272727272727,
                "end_time": 28.325,
                "pitch": 79,
                "velocity": 51,
                "duration": 0.05227272727272947,
                "tempo": 120.0
            },
            {
                "start_time": 28.343181818181815,
                "end_time": 28.395454545454545,
                "pitch": 84,
                "velocity": 51,
                "duration": 0.05227272727272947,
                "tempo": 120.0
            },
            {
                "start_time": 28.429545454545455,
                "end_time": 28.48181818181818,
                "pitch": 79,
                "velocity": 51,
                "duration": 0.052272727272725916,
                "tempo": 120.0
            },
            {
                "start_time": 28.49772727272727,
                "end_time": 28.547727272727272,
                "pitch": 88,
                "velocity": 51,
                "duration": 0.05000000000000071,
                "tempo": 120.0
            },
            {
                "start_time": 28.581818181818182,
                "end_time": 28.63181818181818,
                "pitch": 79,
                "velocity": 51,
                "duration": 0.04999999999999716,
                "tempo": 120.0
            },
            {
                "start_time": 28.65,
                "end_time": 28.7,
                "pitch": 84,
                "velocity": 51,
                "duration": 0.05000000000000071,
                "tempo": 120.0
            },
            {
                "start_time": 28.73181818181818,
                "end_time": 28.784090909090907,
                "pitch": 79,
                "velocity": 51,
                "duration": 0.052272727272725916,
                "tempo": 120.0
            },
            {
                "start_time": 28.799999999999997,
                "end_time": 28.849999999999998,
                "pitch": 88,
                "velocity": 51,
                "duration": 0.05000000000000071,
                "tempo": 120.0
            },
            {
                "start_time": 28.884090909090908,
                "end_time": 28.93409090909091,
                "pitch": 79,
                "velocity": 51,
                "duration": 0.05000000000000071,
                "tempo": 120.0
            },
            {
                "start_time": 28.95,
                "end_time": 29.0,
                "pitch": 84,
                "velocity": 51,
                "duration": 0.05000000000000071,
                "tempo": 120.0
            },
            {
                "start_time": 29.034090909090907,
                "end_time": 29.084090909090907,
                "pitch": 79,
                "velocity": 51,
                "duration": 0.05000000000000071,
                "tempo": 120.0
            },
            {
                "start_time": 29.102272727272727,
                "end_time": 29.118181818181817,
                "pitch": 88,
                "velocity": 51,
                "duration": 0.01590909090909065,
                "tempo": 120.0
            },
            {
                "start_time": 29.134090909090908,
                "end_time": 29.236363636363635,
                "pitch": 88,
                "velocity": 51,
                "duration": 0.10227272727272663,
                "tempo": 120.0
            },
            {
                "start_time": 29.252272727272725,
                "end_time": 29.536363636363635,
                "pitch": 88,
                "velocity": 51,
                "duration": 0.28409090909091006,
                "tempo": 120.0
            },
            {
                "start_time": 29.554545454545455,
                "end_time": 29.688636363636363,
                "pitch": 88,
                "velocity": 51,
                "duration": 0.13409090909090793,
                "tempo": 120.0
            },
            {
                "start_time": 29.704545454545453,
                "end_time": 29.979545454545452,
                "pitch": 88,
                "velocity": 51,
                "duration": 0.2749999999999986,
                "tempo": 120.0
            },
            {
                "start_time": 29.995454545454542,
                "end_time": 30.134090909090908,
                "pitch": 88,
                "velocity": 51,
                "duration": 0.13863636363636545,
                "tempo": 120.0
            },
            {
                "start_time": 30.15,
                "end_time": 30.28863636363636,
                "pitch": 88,
                "velocity": 51,
                "duration": 0.1386363636363619,
                "tempo": 120.0
            },
            {
                "start_time": 30.30681818181818,
                "end_time": 30.952272727272724,
                "pitch": 88,
                "velocity": 51,
                "duration": 0.6454545454545446,
                "tempo": 120.0
            },
            {
                "start_time": 31.652272727272727,
                "end_time": 32.554545454545455,
                "pitch": 81,
                "velocity": 51,
                "duration": 0.9022727272727273,
                "tempo": 120.0
            },
            {
                "start_time": 32.570454545454545,
                "end_time": 32.70454545454545,
                "pitch": 81,
                "velocity": 51,
                "duration": 0.13409090909090793,
                "tempo": 120.0
            },
            {
                "start_time": 32.72272727272727,
                "end_time": 33.68181818181818,
                "pitch": 79,
                "velocity": 51,
                "duration": 0.9590909090909108,
                "tempo": 120.0
            }
        ],
        "Oboe": [
            {
                "start_time": 0.03636363636363636,
                "end_time": 0.8931818181818182,
                "pitch": 77,
                "velocity": 51,
                "duration": 0.8568181818181818,
                "tempo": 120.0
            },
            {
                "start_time": 0.9272727272727272,
                "end_time": 1.0409090909090908,
                "pitch": 77,
                "velocity": 51,
                "duration": 0.11363636363636354,
                "tempo": 120.0
            },
            {
                "start_time": 1.0727272727272728,
                "end_time": 2.275,
                "pitch": 75,
                "velocity": 51,
                "duration": 1.2022727272727272,
                "tempo": 120.0
            },
            {
                "start_time": 2.7363636363636363,
                "end_time": 2.7409090909090907,
                "pitch": 74,
                "velocity": 51,
                "duration": 0.004545454545454408,
                "tempo": 120.0
            },
            {
                "start_time": 2.7409090909090907,
                "end_time": 3.036363636363636,
                "pitch": 74,
                "velocity": 51,
                "duration": 0.2954545454545454,
                "tempo": 120.0
            },
            {
                "start_time": 3.0522727272727272,
                "end_time": 3.3045454545454542,
                "pitch": 74,
                "velocity": 51,
                "duration": 0.252272727272727,
                "tempo": 120.0
            },
            {
                "start_time": 3.3363636363636364,
                "end_time": 3.4545454545454546,
                "pitch": 74,
                "velocity": 51,
                "duration": 0.11818181818181817,
                "tempo": 120.0
            },
            {
                "start_time": 3.4863636363636363,
                "end_time": 4.806818181818182,
                "pitch": 75,
                "velocity": 51,
                "duration": 1.3204545454545453,
                "tempo": 120.0
            },
            {
                "start_time": 4.838636363636363,
                "end_time": 5.74090909090909,
                "pitch": 77,
                "velocity": 51,
                "duration": 0.9022727272727273,
                "tempo": 120.0
            },
            {
                "start_time": 5.756818181818182,
                "end_time": 5.906818181818181,
                "pitch": 77,
                "velocity": 51,
                "duration": 0.14999999999999947,
                "tempo": 120.0
            },
            {
                "start_time": 5.9409090909090905,
                "end_time": 7.4818181818181815,
                "pitch": 75,
                "velocity": 51,
                "duration": 1.540909090909091,
                "tempo": 120.0
            },
            {
                "start_time": 7.502272727272727,
                "end_time": 7.66590909090909,
                "pitch": 74,
                "velocity": 51,
                "duration": 0.16363636363636314,
                "tempo": 120.0
            },
            {
                "start_time": 7.686363636363636,
                "end_time": 7.725,
                "pitch": 74,
                "velocity": 51,
                "duration": 0.038636363636364024,
                "tempo": 120.0
            },
            {
                "start_time": 8.163636363636364,
                "end_time": 8.313636363636363,
                "pitch": 74,
                "velocity": 51,
                "duration": 0.14999999999999858,
                "tempo": 120.0
            },
            {
                "start_time": 8.329545454545453,
                "end_time": 8.579545454545453,
                "pitch": 74,
                "velocity": 51,
                "duration": 0.25,
                "tempo": 120.0
            },
            {
                "start_time": 8.613636363636363,
                "end_time": 8.904545454545454,
                "pitch": 75,
                "velocity": 51,
                "duration": 0.290909090909091,
                "tempo": 120.0
            },
            {
                "start_time": 8.920454545454545,
                "end_time": 9.213636363636363,
                "pitch": 75,
                "velocity": 51,
                "duration": 0.293181818181818,
                "tempo": 120.0
            },
            {
                "start_time": 9.23181818181818,
                "end_time": 9.48181818181818,
                "pitch": 75,
                "velocity": 51,
                "duration": 0.25,
                "tempo": 120.0
            },
            {
                "start_time": 9.51590909090909,
                "end_time": 9.818181818181818,
                "pitch": 75,
                "velocity": 51,
                "duration": 0.3022727272727277,
                "tempo": 120.0
            },
            {
                "start_time": 9.834090909090909,
                "end_time": 10.986363636363636,
                "pitch": 77,
                "velocity": 51,
                "duration": 1.1522727272727273,
                "tempo": 120.0
            },
            {
                "start_time": 11.020454545454545,
                "end_time": 11.488636363636363,
                "pitch": 81,
                "velocity": 51,
                "duration": 0.4681818181818187,
                "tempo": 120.0
            },
            {
                "start_time": 11.522727272727272,
                "end_time": 12.19090909090909,
                "pitch": 84,
                "velocity": 51,
                "duration": 0.668181818181818,
                "tempo": 120.0
            },
            {
                "start_time": 12.222727272727273,
                "end_time": 13.093181818181817,
                "pitch": 79,
                "velocity": 51,
                "duration": 0.8704545454545443,
                "tempo": 120.0
            },
            {
                "start_time": 13.125,
                "end_time": 13.427272727272726,
                "pitch": 75,
                "velocity": 51,
                "duration": 0.3022727272727259,
                "tempo": 120.0
            },
            {
                "start_time": 13.443181818181818,
                "end_time": 14.897727272727272,
                "pitch": 70,
                "velocity": 51,
                "duration": 1.4545454545454533,
                "tempo": 120.0
            },
            {
                "start_time": 14.931818181818182,
                "end_time": 15.784090909090908,
                "pitch": 68,
                "velocity": 51,
                "duration": 0.8522727272727266,
                "tempo": 120.0
            },
            {
                "start_time": 15.799999999999999,
                "end_time": 16.279545454545453,
                "pitch": 72,
                "velocity": 51,
                "duration": 0.4795454545454536,
                "tempo": 120.0
            },
            {
                "start_time": 16.297727272727272,
                "end_time": 17.054545454545455,
                "pitch": 75,
                "velocity": 51,
                "duration": 0.7568181818181827,
                "tempo": 120.0
            },
            {
                "start_time": 17.08863636363636,
                "end_time": 18.209090909090907,
                "pitch": 74,
                "velocity": 51,
                "duration": 1.120454545454546,
                "tempo": 120.0
            },
            {
                "start_time": 18.243181818181817,
                "end_time": 19.445454545454545,
                "pitch": 70,
                "velocity": 51,
                "duration": 1.202272727272728,
                "tempo": 120.0
            },
            {
                "start_time": 19.461363636363636,
                "end_time": 20.652272727272727,
                "pitch": 77,
                "velocity": 51,
                "duration": 1.1909090909090914,
                "tempo": 120.0
            },
            {
                "start_time": 20.668181818181818,
                "end_time": 21.152272727272727,
                "pitch": 84,
                "velocity": 51,
                "duration": 0.48409090909090935,
                "tempo": 120.0
            },
            {
                "start_time": 21.170454545454543,
                "end_time": 21.87272727272727,
                "pitch": 81,
                "velocity": 51,
                "duration": 0.702272727272728,
                "tempo": 120.0
            },
            {
                "start_time": 21.904545454545453,
                "end_time": 23.018181818181816,
                "pitch": 79,
                "velocity": 51,
                "duration": 1.1136363636363633,
                "tempo": 120.0
            },
            {
                "start_time": 23.049999999999997,
                "end_time": 23.518181818181816,
                "pitch": 75,
                "velocity": 51,
                "duration": 0.4681818181818187,
                "tempo": 120.0
            },
            {
                "start_time": 23.552272727272726,
                "end_time": 24.26590909090909,
                "pitch": 70,
                "velocity": 51,
                "duration": 0.7136363636363647,
                "tempo": 120.0
            },
            {
                "start_time": 24.28181818181818,
                "end_time": 25.420454545454543,
                "pitch": 72,
                "velocity": 51,
                "duration": 1.138636363636362,
                "tempo": 120.0
            },
            {
                "start_time": 25.436363636363634,
                "end_time": 26.64090909090909,
                "pitch": 68,
                "velocity": 51,
                "duration": 1.2045454545454568,
                "tempo": 120.0
            },
            {
                "start_time": 26.674999999999997,
                "end_time": 27.879545454545454,
                "pitch": 74,
                "velocity": 51,
                "duration": 1.2045454545454568,
                "tempo": 120.0
            },
            {
                "start_time": 27.895454545454545,
                "end_time": 29.084090909090907,
                "pitch": 70,
                "velocity": 51,
                "duration": 1.1886363636363626,
                "tempo": 120.0
            },
            {
                "start_time": 29.102272727272727,
                "end_time": 29.236363636363635,
                "pitch": 81,
                "velocity": 51,
                "duration": 0.13409090909090793,
                "tempo": 120.0
            },
            {
                "start_time": 29.252272727272725,
                "end_time": 29.554545454545455,
                "pitch": 81,
                "velocity": 51,
                "duration": 0.30227272727272947,
                "tempo": 120.0
            },
            {
                "start_time": 29.586363636363636,
                "end_time": 29.704545454545453,
                "pitch": 81,
                "velocity": 51,
                "duration": 0.11818181818181728,
                "tempo": 120.0
            },
            {
                "start_time": 29.736363636363635,
                "end_time": 29.979545454545452,
                "pitch": 81,
                "velocity": 51,
                "duration": 0.24318181818181728,
                "tempo": 120.0
            },
            {
                "start_time": 29.995454545454542,
                "end_time": 30.134090909090908,
                "pitch": 81,
                "velocity": 51,
                "duration": 0.13863636363636545,
                "tempo": 120.0
            },
            {
                "start_time": 30.15,
                "end_time": 30.30681818181818,
                "pitch": 81,
                "velocity": 51,
                "duration": 0.1568181818181813,
                "tempo": 120.0
            },
            {
                "start_time": 30.34090909090909,
                "end_time": 31.047727272727272,
                "pitch": 81,
                "velocity": 51,
                "duration": 0.706818181818182,
                "tempo": 120.0
            },
            {
                "start_time": 31.652272727272727,
                "end_time": 32.52045454545454,
                "pitch": 77,
                "velocity": 51,
                "duration": 0.8681818181818137,
                "tempo": 120.0
            },
            {
                "start_time": 32.554545454545455,
                "end_time": 32.67045454545455,
                "pitch": 77,
                "velocity": 51,
                "duration": 0.11590909090909207,
                "tempo": 120.0
            },
            {
                "start_time": 32.70454545454545,
                "end_time": 33.90909090909091,
                "pitch": 75,
                "velocity": 51,
                "duration": 1.2045454545454533,
                "tempo": 120.0
            }
        ]
    }
}