{
    "track_id": "Galactic Protector (FM) - 05 - Mars Round",
    "mood": "happy",
    "instruments": {
        "Acoustic Grand Piano": [
            {
                "start_time": 19.304545454545455,
                "end_time": 19.58863636363636,
                "pitch": 92,
                "velocity": 64,
                "duration": 0.2840909090909065,
                "tempo": 120.0
            },
            {
                "start_time": 19.60681818181818,
                "end_time": 19.74090909090909,
                "pitch": 91,
                "velocity": 64,
                "duration": 0.13409090909090793,
                "tempo": 120.0
            },
            {
                "start_time": 19.75681818181818,
                "end_time": 20.043181818181818,
                "pitch": 92,
                "velocity": 64,
                "duration": 0.2863636363636388,
                "tempo": 120.0
            },
            {
                "start_time": 20.061363636363634,
                "end_time": 20.193181818181817,
                "pitch": 91,
                "velocity": 64,
                "duration": 0.13181818181818272,
                "tempo": 120.0
            },
            {
                "start_time": 20.211363636363636,
                "end_time": 20.493181818181817,
                "pitch": 92,
                "velocity": 64,
                "duration": 0.2818181818181813,
                "tempo": 120.0
            },
            {
                "start_time": 20.511363636363637,
                "end_time": 20.643181818181816,
                "pitch": 92,
                "velocity": 64,
                "duration": 0.13181818181817917,
                "tempo": 120.0
            },
            {
                "start_time": 20.661363636363635,
                "end_time": 20.94772727272727,
                "pitch": 92,
                "velocity": 64,
                "duration": 0.28636363636363527,
                "tempo": 120.0
            },
            {
                "start_time": 20.96363636363636,
                "end_time": 21.097727272727273,
                "pitch": 92,
                "velocity": 64,
                "duration": 0.13409090909091148,
                "tempo": 120.0
            },
            {
                "start_time": 21.11590909090909,
                "end_time": 21.402272727272727,
                "pitch": 91,
                "velocity": 64,
                "duration": 0.2863636363636388,
                "tempo": 120.0
            },
            {
                "start_time": 21.418181818181818,
                "end_time": 21.85681818181818,
                "pitch": 89,
                "velocity": 64,
                "duration": 0.4386363636363626,
                "tempo": 120.0
            },
            {
                "start_time": 21.87272727272727,
                "end_time": 22.15681818181818,
                "pitch": 87,
                "velocity": 64,
                "duration": 0.28409090909091006,
                "tempo": 120.0
            },
            {
                "start_time": 22.172727272727272,
                "end_time": 22.456818181818182,
                "pitch": 87,
                "velocity": 64,
                "duration": 0.28409090909091006,
                "tempo": 120.0
            },
            {
                "start_time": 22.472727272727273,
                "end_time": 22.60681818181818,
                "pitch": 86,
                "velocity": 64,
                "duration": 0.13409090909090793,
                "tempo": 120.0
            },
            {
                "start_time": 22.625,
                "end_time": 23.511363636363637,
                "pitch": 87,
                "velocity": 64,
                "duration": 0.8863636363636367,
                "tempo": 120.0
            },
            {
                "start_time": 23.529545454545453,
                "end_time": 23.661363636363635,
                "pitch": 87,
                "velocity": 64,
                "duration": 0.13181818181818272,
                "tempo": 120.0
            },
            {
                "start_time": 23.679545454545455,
                "end_time": 23.813636363636363,
                "pitch": 86,
                "velocity": 64,
                "duration": 0.13409090909090793,
                "tempo": 120.0
            },
            {
                "start_time": 23.829545454545453,
                "end_time": 23.96590909090909,
                "pitch": 84,
                "velocity": 64,
                "duration": 0.1363636363636367,
                "tempo": 120.0
            },
            {
                "start_time": 23.98181818181818,
                "end_time": 24.420454545454543,
                "pitch": 86,
                "velocity": 64,
                "duration": 0.4386363636363626,
                "tempo": 120.0
            },
            {
                "start_time": 24.436363636363634,
                "end_time": 24.570454545454545,
                "pitch": 84,
                "velocity": 64,
                "duration": 0.13409090909091148,
                "tempo": 120.0
            },
            {
                "start_time": 24.58863636363636,
                "end_time": 25.174999999999997,
                "pitch": 84,
                "velocity": 64,
                "duration": 0.586363636363636,
                "tempo": 120.0
            },
            {
                "start_time": 25.19090909090909,
                "end_time": 25.325,
                "pitch": 89,
                "velocity": 64,
                "duration": 0.13409090909090793,
                "tempo": 120.0
            },
            {
                "start_time": 25.34090909090909,
                "end_time": 25.625,
                "pitch": 87,
                "velocity": 64,
                "duration": 0.28409090909091006,
                "tempo": 120.0
            },
            {
                "start_time": 25.643181818181816,
                "end_time": 26.279545454545453,
                "pitch": 89,
                "velocity": 64,
                "duration": 0.6363636363636367,
                "tempo": 120.0
            },
            {
                "start_time": 26.69772727272727,
                "end_time": 26.977272727272727,
                "pitch": 91,
                "velocity": 64,
                "duration": 0.2795454545454561,
                "tempo": 120.0
            },
            {
                "start_time": 26.993181818181817,
                "end_time": 27.275,
                "pitch": 91,
                "velocity": 64,
                "duration": 0.2818181818181813,
                "tempo": 120.0
            },
            {
                "start_time": 27.29090909090909,
                "end_time": 27.579545454545453,
                "pitch": 91,
                "velocity": 64,
                "duration": 0.288636363636364,
                "tempo": 120.0
            },
            {
                "start_time": 27.597727272727273,
                "end_time": 28.036363636363635,
                "pitch": 95,
                "velocity": 64,
                "duration": 0.4386363636363626,
                "tempo": 120.0
            },
            {
                "start_time": 28.052272727272726,
                "end_time": 28.78863636363636,
                "pitch": 91,
                "velocity": 64,
                "duration": 0.7363636363636346,
                "tempo": 120.0
            },
            {
                "start_time": 28.80681818181818,
                "end_time": 28.940909090909088,
                "pitch": 91,
                "velocity": 64,
                "duration": 0.13409090909090793,
                "tempo": 120.0
            },
            {
                "start_time": 28.956818181818182,
                "end_time": 29.243181818181817,
                "pitch": 92,
                "velocity": 64,
                "duration": 0.28636363636363527,
                "tempo": 120.0
            },
            {
                "start_time": 29.259090909090908,
                "end_time": 29.393181818181816,
                "pitch": 91,
                "velocity": 64,
                "duration": 0.13409090909090793,
                "tempo": 120.0
            },
            {
                "start_time": 29.409090909090907,
                "end_time": 29.693181818181817,
                "pitch": 92,
                "velocity": 64,
                "duration": 0.28409090909091006,
                "tempo": 120.0
            },
            {
                "start_time": 29.709090909090907,
                "end_time": 29.843181818181815,
                "pitch": 91,
                "velocity": 64,
                "duration": 0.13409090909090793,
                "tempo": 120.0
            },
            {
                "start_time": 29.861363636363635,
                "end_time": 30.14772727272727,
                "pitch": 92,
                "velocity": 64,
                "duration": 0.28636363636363527,
                "tempo": 120.0
            },
            {
                "start_time": 30.16363636363636,
                "end_time": 30.297727272727272,
                "pitch": 92,
                "velocity": 64,
                "duration": 0.13409090909091148,
                "tempo": 120.0
            },
            {
                "start_time": 30.315909090909088,
                "end_time": 30.602272727272727,
                "pitch": 92,
                "velocity": 64,
                "duration": 0.2863636363636388,
                "tempo": 120.0
            },
            {
                "start_time": 30.618181818181817,
                "end_time": 30.752272727272725,
                "pitch": 92,
                "velocity": 64,
                "duration": 0.13409090909090793,
                "tempo": 120.0
            },
            {
                "start_time": 30.770454545454545,
                "end_time": 31.054545454545455,
                "pitch": 91,
                "velocity": 64,
                "duration": 0.28409090909091006,
                "tempo": 120.0
            },
            {
                "start_time": 31.070454545454545,
                "end_time": 31.504545454545454,
                "pitch": 89,
                "velocity": 64,
                "duration": 0.43409090909090864,
                "tempo": 120.0
            },
            {
                "start_time": 31.520454545454545,
                "end_time": 31.80681818181818,
                "pitch": 87,
                "velocity": 64,
                "duration": 0.28636363636363527,
                "tempo": 120.0
            },
            {
                "start_time": 31.825,
                "end_time": 32.111363636363635,
                "pitch": 87,
                "velocity": 64,
                "duration": 0.28636363636363527,
                "tempo": 120.0
            },
            {
                "start_time": 32.127272727272725,
                "end_time": 32.26136363636363,
                "pitch": 86,
                "velocity": 64,
                "duration": 0.13409090909090793,
                "tempo": 120.0
            },
            {
                "start_time": 32.277272727272724,
                "end_time": 33.16590909090909,
                "pitch": 87,
                "velocity": 64,
                "duration": 0.8886363636363654,
                "tempo": 120.0
            },
            {
                "start_time": 33.18181818181818,
                "end_time": 33.31590909090909,
                "pitch": 87,
                "velocity": 64,
                "duration": 0.13409090909090793,
                "tempo": 120.0
            },
            {
                "start_time": 33.33409090909091,
                "end_time": 33.46818181818182,
                "pitch": 86,
                "velocity": 64,
                "duration": 0.13409090909090793,
                "tempo": 120.0
            },
            {
                "start_time": 33.48409090909091,
                "end_time": 33.62045454545454,
                "pitch": 84,
                "velocity": 64,
                "duration": 0.13636363636363313,
                "tempo": 120.0
            },
            {
                "start_time": 33.63636363636363,
                "end_time": 34.074999999999996,
                "pitch": 86,
                "velocity": 64,
                "duration": 0.4386363636363626,
                "tempo": 120.0
            },
            {
                "start_time": 34.090909090909086,
                "end_time": 34.225,
                "pitch": 84,
                "velocity": 64,
                "duration": 0.13409090909091503,
                "tempo": 120.0
            },
            {
                "start_time": 34.24318181818182,
                "end_time": 34.82954545454545,
                "pitch": 84,
                "velocity": 64,
                "duration": 0.586363636363636,
                "tempo": 120.0
            },
            {
                "start_time": 34.845454545454544,
                "end_time": 34.97954545454545,
                "pitch": 89,
                "velocity": 64,
                "duration": 0.13409090909090793,
                "tempo": 120.0
            },
            {
                "start_time": 34.99545454545454,
                "end_time": 35.279545454545456,
                "pitch": 87,
                "velocity": 64,
                "duration": 0.2840909090909136,
                "tempo": 120.0
            },
            {
                "start_time": 35.29772727272727,
                "end_time": 35.93636363636364,
                "pitch": 89,
                "velocity": 64,
                "duration": 0.6386363636363654,
                "tempo": 120.0
            },
            {
                "start_time": 36.35681818181818,
                "end_time": 36.63863636363636,
                "pitch": 91,
                "velocity": 64,
                "duration": 0.2818181818181813,
                "tempo": 120.0
            },
            {
                "start_time": 36.654545454545456,
                "end_time": 36.934090909090905,
                "pitch": 91,
                "velocity": 64,
                "duration": 0.279545454545449,
                "tempo": 120.0
            },
            {
                "start_time": 36.95227272727273,
                "end_time": 37.24090909090909,
                "pitch": 91,
                "velocity": 64,
                "duration": 0.288636363636364,
                "tempo": 120.0
            },
            {
                "start_time": 37.25681818181818,
                "end_time": 37.54772727272727,
                "pitch": 95,
                "velocity": 64,
                "duration": 0.29090909090908923,
                "tempo": 120.0
            },
            {
                "start_time": 37.56363636363636,
                "end_time": 37.69772727272727,
                "pitch": 95,
                "velocity": 64,
                "duration": 0.13409090909090793,
                "tempo": 120.0
            },
            {
                "start_time": 37.71363636363636,
                "end_time": 38.06363636363636,
                "pitch": 95,
                "velocity": 64,
                "duration": 0.3500000000000014,
                "tempo": 120.0
            },
            {
                "start_time": 38.09772727272727,
                "end_time": 38.14772727272727,
                "pitch": 95,
                "velocity": 64,
                "duration": 0.05000000000000426,
                "tempo": 120.0
            },
            {
                "start_time": 38.163636363636364,
                "end_time": 38.361363636363635,
                "pitch": 95,
                "velocity": 64,
                "duration": 0.19772727272727053,
                "tempo": 120.0
            }
        ],
        "Church Organ": [
            {
                "start_time": 0.18409090909090908,
                "end_time": 0.7704545454545454,
                "pitch": 84,
                "velocity": 64,
                "duration": 0.5863636363636363,
                "tempo": 120.0
            },
            {
                "start_time": 0.7886363636363636,
                "end_time": 1.0704545454545453,
                "pitch": 86,
                "velocity": 64,
                "duration": 0.28181818181818175,
                "tempo": 120.0
            },
            {
                "start_time": 1.0886363636363636,
                "end_time": 1.2204545454545455,
                "pitch": 87,
                "velocity": 64,
                "duration": 0.13181818181818183,
                "tempo": 120.0
            },
            {
                "start_time": 1.2386363636363635,
                "end_time": 1.2886363636363636,
                "pitch": 87,
                "velocity": 64,
                "duration": 0.050000000000000044,
                "tempo": 120.0
            },
            {
                "start_time": 1.6886363636363635,
                "end_time": 1.9704545454545455,
                "pitch": 87,
                "velocity": 64,
                "duration": 0.28181818181818197,
                "tempo": 120.0
            },
            {
                "start_time": 1.9886363636363635,
                "end_time": 2.1227272727272726,
                "pitch": 86,
                "velocity": 64,
                "duration": 0.13409090909090904,
                "tempo": 120.0
            },
            {
                "start_time": 2.1386363636363637,
                "end_time": 2.577272727272727,
                "pitch": 84,
                "velocity": 64,
                "duration": 0.4386363636363635,
                "tempo": 120.0
            },
            {
                "start_time": 2.5931818181818183,
                "end_time": 2.8795454545454544,
                "pitch": 82,
                "velocity": 64,
                "duration": 0.28636363636363615,
                "tempo": 120.0
            },
            {
                "start_time": 2.8977272727272725,
                "end_time": 3.184090909090909,
                "pitch": 82,
                "velocity": 64,
                "duration": 0.2863636363636366,
                "tempo": 120.0
            },
            {
                "start_time": 3.1999999999999997,
                "end_time": 3.334090909090909,
                "pitch": 81,
                "velocity": 64,
                "duration": 0.13409090909090926,
                "tempo": 120.0
            },
            {
                "start_time": 3.3499999999999996,
                "end_time": 4.388636363636364,
                "pitch": 82,
                "velocity": 64,
                "duration": 1.038636363636364,
                "tempo": 120.0
            },
            {
                "start_time": 4.406818181818181,
                "end_time": 4.540909090909091,
                "pitch": 81,
                "velocity": 64,
                "duration": 0.1340909090909097,
                "tempo": 120.0
            },
            {
                "start_time": 4.556818181818182,
                "end_time": 4.995454545454545,
                "pitch": 82,
                "velocity": 64,
                "duration": 0.4386363636363635,
                "tempo": 120.0
            },
            {
                "start_time": 5.011363636363636,
                "end_time": 5.595454545454545,
                "pitch": 84,
                "velocity": 64,
                "duration": 0.584090909090909,
                "tempo": 120.0
            },
            {
                "start_time": 5.611363636363636,
                "end_time": 5.8954545454545455,
                "pitch": 86,
                "velocity": 64,
                "duration": 0.28409090909090917,
                "tempo": 120.0
            },
            {
                "start_time": 5.911363636363636,
                "end_time": 6.045454545454545,
                "pitch": 87,
                "velocity": 64,
                "duration": 0.13409090909090882,
                "tempo": 120.0
            },
            {
                "start_time": 6.0613636363636365,
                "end_time": 6.1454545454545455,
                "pitch": 87,
                "velocity": 64,
                "duration": 0.084090909090909,
                "tempo": 120.0
            },
            {
                "start_time": 6.515909090909091,
                "end_time": 6.802272727272727,
                "pitch": 87,
                "velocity": 64,
                "duration": 0.28636363636363615,
                "tempo": 120.0
            },
            {
                "start_time": 6.8181818181818175,
                "end_time": 6.952272727272727,
                "pitch": 86,
                "velocity": 64,
                "duration": 0.1340909090909097,
                "tempo": 120.0
            },
            {
                "start_time": 6.968181818181818,
                "end_time": 7.402272727272727,
                "pitch": 84,
                "velocity": 64,
                "duration": 0.4340909090909095,
                "tempo": 120.0
            },
            {
                "start_time": 7.418181818181818,
                "end_time": 7.704545454545454,
                "pitch": 91,
                "velocity": 64,
                "duration": 0.28636363636363615,
                "tempo": 120.0
            },
            {
                "start_time": 7.720454545454545,
                "end_time": 8.006818181818181,
                "pitch": 91,
                "velocity": 64,
                "duration": 0.28636363636363615,
                "tempo": 120.0
            },
            {
                "start_time": 8.025,
                "end_time": 8.306818181818182,
                "pitch": 91,
                "velocity": 64,
                "duration": 0.2818181818181813,
                "tempo": 120.0
            },
            {
                "start_time": 8.325,
                "end_time": 8.456818181818182,
                "pitch": 91,
                "velocity": 64,
                "duration": 0.13181818181818272,
                "tempo": 120.0
            },
            {
                "start_time": 8.475,
                "end_time": 8.60681818181818,
                "pitch": 89,
                "velocity": 64,
                "duration": 0.13181818181818095,
                "tempo": 120.0
            },
            {
                "start_time": 8.625,
                "end_time": 8.756818181818181,
                "pitch": 87,
                "velocity": 64,
                "duration": 0.13181818181818095,
                "tempo": 120.0
            },
            {
                "start_time": 8.775,
                "end_time": 9.506818181818181,
                "pitch": 86,
                "velocity": 64,
                "duration": 0.7318181818181806,
                "tempo": 120.0
            },
            {
                "start_time": 9.825,
                "end_time": 10.413636363636362,
                "pitch": 84,
                "velocity": 64,
                "duration": 0.588636363636363,
                "tempo": 120.0
            },
            {
                "start_time": 10.429545454545455,
                "end_time": 10.713636363636363,
                "pitch": 86,
                "velocity": 64,
                "duration": 0.2840909090909083,
                "tempo": 120.0
            },
            {
                "start_time": 10.729545454545454,
                "end_time": 10.863636363636363,
                "pitch": 87,
                "velocity": 64,
                "duration": 0.1340909090909097,
                "tempo": 120.0
            },
            {
                "start_time": 10.879545454545454,
                "end_time": 10.929545454545455,
                "pitch": 87,
                "velocity": 64,
                "duration": 0.05000000000000071,
                "tempo": 120.0
            },
            {
                "start_time": 11.329545454545453,
                "end_time": 11.613636363636363,
                "pitch": 87,
                "velocity": 64,
                "duration": 0.28409090909091006,
                "tempo": 120.0
            },
            {
                "start_time": 11.629545454545454,
                "end_time": 11.763636363636364,
                "pitch": 86,
                "velocity": 64,
                "duration": 0.1340909090909097,
                "tempo": 120.0
            },
            {
                "start_time": 11.779545454545454,
                "end_time": 12.213636363636363,
                "pitch": 84,
                "velocity": 64,
                "duration": 0.43409090909090864,
                "tempo": 120.0
            },
            {
                "start_time": 12.229545454545454,
                "end_time": 12.513636363636364,
                "pitch": 82,
                "velocity": 64,
                "duration": 0.28409090909091006,
                "tempo": 120.0
            },
            {
                "start_time": 12.529545454545454,
                "end_time": 12.813636363636363,
                "pitch": 82,
                "velocity": 64,
                "duration": 0.2840909090909083,
                "tempo": 120.0
            },
            {
                "start_time": 12.829545454545453,
                "end_time": 12.96590909090909,
                "pitch": 81,
                "velocity": 64,
                "duration": 0.1363636363636367,
                "tempo": 120.0
            },
            {
                "start_time": 12.98181818181818,
                "end_time": 14.020454545454545,
                "pitch": 82,
                "velocity": 64,
                "duration": 1.038636363636364,
                "tempo": 120.0
            },
            {
                "start_time": 14.036363636363635,
                "end_time": 14.170454545454545,
                "pitch": 81,
                "velocity": 64,
                "duration": 0.1340909090909097,
                "tempo": 120.0
            },
            {
                "start_time": 14.186363636363636,
                "end_time": 14.620454545454544,
                "pitch": 82,
                "velocity": 64,
                "duration": 0.43409090909090864,
                "tempo": 120.0
            },
            {
                "start_time": 14.636363636363635,
                "end_time": 15.220454545454544,
                "pitch": 84,
                "velocity": 64,
                "duration": 0.584090909090909,
                "tempo": 120.0
            },
            {
                "start_time": 15.236363636363636,
                "end_time": 15.520454545454545,
                "pitch": 86,
                "velocity": 64,
                "duration": 0.2840909090909083,
                "tempo": 120.0
            },
            {
                "start_time": 15.536363636363635,
                "end_time": 15.670454545454545,
                "pitch": 87,
                "velocity": 64,
                "duration": 0.1340909090909097,
                "tempo": 120.0
            },
            {
                "start_time": 15.686363636363636,
                "end_time": 15.786363636363635,
                "pitch": 87,
                "velocity": 64,
                "duration": 0.09999999999999964,
                "tempo": 120.0
            },
            {
                "start_time": 16.138636363636362,
                "end_time": 16.425,
                "pitch": 87,
                "velocity": 64,
                "duration": 0.2863636363636388,
                "tempo": 120.0
            },
            {
                "start_time": 16.443181818181817,
                "end_time": 16.575,
                "pitch": 86,
                "velocity": 64,
                "duration": 0.13181818181818272,
                "tempo": 120.0
            },
            {
                "start_time": 16.59318181818182,
                "end_time": 17.025,
                "pitch": 84,
                "velocity": 64,
                "duration": 0.4318181818181799,
                "tempo": 120.0
            },
            {
                "start_time": 17.043181818181818,
                "end_time": 17.325,
                "pitch": 91,
                "velocity": 64,
                "duration": 0.2818181818181813,
                "tempo": 120.0
            },
            {
                "start_time": 17.34318181818182,
                "end_time": 17.625,
                "pitch": 91,
                "velocity": 64,
                "duration": 0.2818181818181813,
                "tempo": 120.0
            },
            {
                "start_time": 17.643181818181816,
                "end_time": 19.138636363636362,
                "pitch": 91,
                "velocity": 64,
                "duration": 1.495454545454546,
                "tempo": 120.0
            }
        ],
        "Acoustic Bass": [
            {
                "start_time": 0.004545454545454545,
                "end_time": 0.07272727272727272,
                "pitch": 41,
                "velocity": 40,
                "duration": 0.06818181818181818,
                "tempo": 120.0
            },
            {
                "start_time": 0.08409090909090909,
                "end_time": 0.17272727272727273,
                "pitch": 53,
                "velocity": 40,
                "duration": 0.08863636363636364,
                "tempo": 120.0
            },
            {
                "start_time": 0.18409090909090908,
                "end_time": 0.3159090909090909,
                "pitch": 41,
                "velocity": 40,
                "duration": 0.13181818181818183,
                "tempo": 120.0
            },
            {
                "start_time": 0.33409090909090905,
                "end_time": 0.46818181818181814,
                "pitch": 53,
                "velocity": 40,
                "duration": 0.1340909090909091,
                "tempo": 120.0
            },
            {
                "start_time": 0.48409090909090907,
                "end_time": 0.6204545454545454,
                "pitch": 41,
                "velocity": 40,
                "duration": 0.1363636363636363,
                "tempo": 120.0
            },
            {
                "start_time": 0.6363636363636364,
                "end_time": 0.7704545454545454,
                "pitch": 53,
                "velocity": 40,
                "duration": 0.13409090909090904,
                "tempo": 120.0
            },
            {
                "start_time": 0.7886363636363636,
                "end_time": 0.9204545454545454,
                "pitch": 41,
                "velocity": 40,
                "duration": 0.13181818181818183,
                "tempo": 120.0
            },
            {
                "start_time": 0.9386363636363636,
                "end_time": 1.0704545454545453,
                "pitch": 53,
                "velocity": 40,
                "duration": 0.13181818181818172,
                "tempo": 120.0
            },
            {
                "start_time": 1.0886363636363636,
                "end_time": 1.2204545454545455,
                "pitch": 41,
                "velocity": 40,
                "duration": 0.13181818181818183,
                "tempo": 120.0
            },
            {
                "start_time": 1.2386363636363635,
                "end_time": 1.2886363636363636,
                "pitch": 41,
                "velocity": 40,
                "duration": 0.050000000000000044,
                "tempo": 120.0
            },
            {
                "start_time": 1.3204545454545453,
                "end_time": 1.3704545454545454,
                "pitch": 41,
                "velocity": 40,
                "duration": 0.050000000000000044,
                "tempo": 120.0
            },
            {
                "start_time": 1.3886363636363637,
                "end_time": 1.5204545454545453,
                "pitch": 41,
                "velocity": 40,
                "duration": 0.1318181818181816,
                "tempo": 120.0
            },
            {
                "start_time": 1.5386363636363636,
                "end_time": 1.6704545454545454,
                "pitch": 53,
                "velocity": 40,
                "duration": 0.13181818181818183,
                "tempo": 120.0
            },
            {
                "start_time": 1.6886363636363635,
                "end_time": 1.8204545454545453,
                "pitch": 41,
                "velocity": 40,
                "duration": 0.13181818181818183,
                "tempo": 120.0
            },
            {
                "start_time": 1.8386363636363636,
                "end_time": 1.9704545454545455,
                "pitch": 53,
                "velocity": 40,
                "duration": 0.13181818181818183,
                "tempo": 120.0
            },
            {
                "start_time": 1.9886363636363635,
                "end_time": 2.1227272727272726,
                "pitch": 41,
                "velocity": 40,
                "duration": 0.13409090909090904,
                "tempo": 120.0
            },
            {
                "start_time": 2.1386363636363637,
                "end_time": 2.275,
                "pitch": 53,
                "velocity": 40,
                "duration": 0.13636363636363624,
                "tempo": 120.0
            },
            {
                "start_time": 2.290909090909091,
                "end_time": 2.425,
                "pitch": 39,
                "velocity": 40,
                "duration": 0.13409090909090882,
                "tempo": 120.0
            },
            {
                "start_time": 2.443181818181818,
                "end_time": 2.577272727272727,
                "pitch": 51,
                "velocity": 40,
                "duration": 0.13409090909090926,
                "tempo": 120.0
            },
            {
                "start_time": 2.5931818181818183,
                "end_time": 2.7295454545454545,
                "pitch": 39,
                "velocity": 40,
                "duration": 0.13636363636363624,
                "tempo": 120.0
            },
            {
                "start_time": 2.745454545454545,
                "end_time": 2.8795454545454544,
                "pitch": 51,
                "velocity": 40,
                "duration": 0.13409090909090926,
                "tempo": 120.0
            },
            {
                "start_time": 2.8977272727272725,
                "end_time": 3.0318181818181817,
                "pitch": 39,
                "velocity": 40,
                "duration": 0.13409090909090926,
                "tempo": 120.0
            },
            {
                "start_time": 3.0477272727272724,
                "end_time": 3.184090909090909,
                "pitch": 51,
                "velocity": 40,
                "duration": 0.1363636363636367,
                "tempo": 120.0
            },
            {
                "start_time": 3.1999999999999997,
                "end_time": 3.334090909090909,
                "pitch": 39,
                "velocity": 40,
                "duration": 0.13409090909090926,
                "tempo": 120.0
            },
            {
                "start_time": 3.3499999999999996,
                "end_time": 3.484090909090909,
                "pitch": 51,
                "velocity": 40,
                "duration": 0.13409090909090926,
                "tempo": 120.0
            },
            {
                "start_time": 3.5,
                "end_time": 3.634090909090909,
                "pitch": 39,
                "velocity": 40,
                "duration": 0.13409090909090882,
                "tempo": 120.0
            },
            {
                "start_time": 3.65,
                "end_time": 3.7840909090909087,
                "pitch": 51,
                "velocity": 40,
                "duration": 0.13409090909090882,
                "tempo": 120.0
            },
            {
                "start_time": 3.8,
                "end_time": 3.934090909090909,
                "pitch": 39,
                "velocity": 40,
                "duration": 0.13409090909090926,
                "tempo": 120.0
            },
            {
                "start_time": 3.952272727272727,
                "end_time": 4.086363636363636,
                "pitch": 51,
                "velocity": 40,
                "duration": 0.13409090909090882,
                "tempo": 120.0
            },
            {
                "start_time": 4.1022727272727275,
                "end_time": 4.238636363636363,
                "pitch": 43,
                "velocity": 40,
                "duration": 0.1363636363636358,
                "tempo": 120.0
            },
            {
                "start_time": 4.254545454545454,
                "end_time": 4.388636363636364,
                "pitch": 46,
                "velocity": 40,
                "duration": 0.1340909090909097,
                "tempo": 120.0
            },
            {
                "start_time": 4.406818181818181,
                "end_time": 4.540909090909091,
                "pitch": 39,
                "velocity": 40,
                "duration": 0.1340909090909097,
                "tempo": 120.0
            },
            {
                "start_time": 4.556818181818182,
                "end_time": 4.693181818181818,
                "pitch": 51,
                "velocity": 40,
                "duration": 0.1363636363636367,
                "tempo": 120.0
            },
            {
                "start_time": 4.709090909090909,
                "end_time": 4.843181818181818,
                "pitch": 53,
                "velocity": 40,
                "duration": 0.13409090909090882,
                "tempo": 120.0
            },
            {
                "start_time": 4.861363636363636,
                "end_time": 4.995454545454545,
                "pitch": 41,
                "velocity": 40,
                "duration": 0.13409090909090882,
                "tempo": 120.0
            },
            {
                "start_time": 5.011363636363636,
                "end_time": 5.1454545454545455,
                "pitch": 41,
                "velocity": 40,
                "duration": 0.1340909090909097,
                "tempo": 120.0
            },
            {
                "start_time": 5.161363636363636,
                "end_time": 5.295454545454545,
                "pitch": 53,
                "velocity": 40,
                "duration": 0.13409090909090882,
                "tempo": 120.0
            },
            {
                "start_time": 5.3113636363636365,
                "end_time": 5.445454545454545,
                "pitch": 41,
                "velocity": 40,
                "duration": 0.13409090909090882,
                "tempo": 120.0
            },
            {
                "start_time": 5.461363636363636,
                "end_time": 5.595454545454545,
                "pitch": 41,
                "velocity": 40,
                "duration": 0.13409090909090882,
                "tempo": 120.0
            },
            {
                "start_time": 5.611363636363636,
                "end_time": 5.745454545454545,
                "pitch": 53,
                "velocity": 40,
                "duration": 0.13409090909090882,
                "tempo": 120.0
            },
            {
                "start_time": 5.761363636363636,
                "end_time": 5.8954545454545455,
                "pitch": 41,
                "velocity": 40,
                "duration": 0.1340909090909097,
                "tempo": 120.0
            },
            {
                "start_time": 5.911363636363636,
                "end_time": 6.045454545454545,
                "pitch": 41,
                "velocity": 40,
                "duration": 0.13409090909090882,
                "tempo": 120.0
            },
            {
                "start_time": 6.0613636363636365,
                "end_time": 6.195454545454545,
                "pitch": 53,
                "velocity": 40,
                "duration": 0.13409090909090882,
                "tempo": 120.0
            },
            {
                "start_time": 6.211363636363636,
                "end_time": 6.347727272727273,
                "pitch": 41,
                "velocity": 40,
                "duration": 0.1363636363636367,
                "tempo": 120.0
            },
            {
                "start_time": 6.363636363636363,
                "end_time": 6.497727272727272,
                "pitch": 53,
                "velocity": 40,
                "duration": 0.13409090909090882,
                "tempo": 120.0
            },
            {
                "start_time": 6.515909090909091,
                "end_time": 6.6499999999999995,
                "pitch": 41,
                "velocity": 40,
                "duration": 0.13409090909090882,
                "tempo": 120.0
            },
            {
                "start_time": 6.665909090909091,
                "end_time": 6.718181818181818,
                "pitch": 41,
                "velocity": 40,
                "duration": 0.052272727272726804,
                "tempo": 120.0
            },
            {
                "start_time": 6.75,
                "end_time": 6.802272727272727,
                "pitch": 41,
                "velocity": 40,
                "duration": 0.052272727272726804,
                "tempo": 120.0
            },
            {
                "start_time": 6.8181818181818175,
                "end_time": 6.952272727272727,
                "pitch": 53,
                "velocity": 40,
                "duration": 0.1340909090909097,
                "tempo": 120.0
            },
            {
                "start_time": 6.968181818181818,
                "end_time": 7.102272727272727,
                "pitch": 53,
                "velocity": 40,
                "duration": 0.13409090909090882,
                "tempo": 120.0
            },
            {
                "start_time": 7.118181818181818,
                "end_time": 7.252272727272727,
                "pitch": 39,
                "velocity": 40,
                "duration": 0.13409090909090882,
                "tempo": 120.0
            },
            {
                "start_time": 7.268181818181818,
                "end_time": 7.402272727272727,
                "pitch": 51,
                "velocity": 40,
                "duration": 0.1340909090909097,
                "tempo": 120.0
            },
            {
                "start_time": 7.418181818181818,
                "end_time": 7.552272727272727,
                "pitch": 39,
                "velocity": 40,
                "duration": 0.13409090909090882,
                "tempo": 120.0
            },
            {
                "start_time": 7.570454545454545,
                "end_time": 7.704545454545454,
                "pitch": 51,
                "velocity": 40,
                "duration": 0.13409090909090882,
                "tempo": 120.0
            },
            {
                "start_time": 7.720454545454545,
                "end_time": 7.8568181818181815,
                "pitch": 39,
                "velocity": 40,
                "duration": 0.1363636363636367,
                "tempo": 120.0
            },
            {
                "start_time": 7.872727272727272,
                "end_time": 8.006818181818181,
                "pitch": 51,
                "velocity": 40,
                "duration": 0.13409090909090882,
                "tempo": 120.0
            },
            {
                "start_time": 8.025,
                "end_time": 8.156818181818181,
                "pitch": 39,
                "velocity": 40,
                "duration": 0.13181818181818095,
                "tempo": 120.0
            },
            {
                "start_time": 8.174999999999999,
                "end_time": 8.306818181818182,
                "pitch": 51,
                "velocity": 40,
                "duration": 0.13181818181818272,
                "tempo": 120.0
            },
            {
                "start_time": 8.325,
                "end_time": 8.456818181818182,
                "pitch": 39,
                "velocity": 40,
                "duration": 0.13181818181818272,
                "tempo": 120.0
            },
            {
                "start_time": 8.475,
                "end_time": 8.60681818181818,
                "pitch": 39,
                "velocity": 40,
                "duration": 0.13181818181818095,
                "tempo": 120.0
            },
            {
                "start_time": 8.625,
                "end_time": 8.756818181818181,
                "pitch": 51,
                "velocity": 40,
                "duration": 0.13181818181818095,
                "tempo": 120.0
            },
            {
                "start_time": 8.775,
                "end_time": 8.906818181818181,
                "pitch": 39,
                "velocity": 40,
                "duration": 0.13181818181818095,
                "tempo": 120.0
            },
            {
                "start_time": 8.924999999999999,
                "end_time": 9.056818181818182,
                "pitch": 51,
                "velocity": 40,
                "duration": 0.13181818181818272,
                "tempo": 120.0
            },
            {
                "start_time": 9.075,
                "end_time": 9.125,
                "pitch": 48,
                "velocity": 40,
                "duration": 0.05000000000000071,
                "tempo": 120.0
            },
            {
                "start_time": 9.156818181818181,
                "end_time": 9.206818181818182,
                "pitch": 50,
                "velocity": 40,
                "duration": 0.05000000000000071,
                "tempo": 120.0
            },
            {
                "start_time": 9.225,
                "end_time": 9.35681818181818,
                "pitch": 39,
                "velocity": 40,
                "duration": 0.13181818181818095,
                "tempo": 120.0
            },
            {
                "start_time": 9.375,
                "end_time": 9.506818181818181,
                "pitch": 51,
                "velocity": 40,
                "duration": 0.13181818181818095,
                "tempo": 120.0
            },
            {
                "start_time": 9.525,
                "end_time": 9.656818181818181,
                "pitch": 41,
                "velocity": 40,
                "duration": 0.13181818181818095,
                "tempo": 120.0
            },
            {
                "start_time": 9.674999999999999,
                "end_time": 9.806818181818182,
                "pitch": 53,
                "velocity": 40,
                "duration": 0.13181818181818272,
                "tempo": 120.0
            },
            {
                "start_time": 9.825,
                "end_time": 9.959090909090909,
                "pitch": 41,
                "velocity": 40,
                "duration": 0.1340909090909097,
                "tempo": 120.0
            },
            {
                "start_time": 9.975,
                "end_time": 10.111363636363636,
                "pitch": 53,
                "velocity": 40,
                "duration": 0.1363636363636367,
                "tempo": 120.0
            },
            {
                "start_time": 10.127272727272727,
                "end_time": 10.261363636363637,
                "pitch": 41,
                "velocity": 40,
                "duration": 0.1340909090909097,
                "tempo": 120.0
            },
            {
                "start_time": 10.279545454545454,
                "end_time": 10.413636363636362,
                "pitch": 53,
                "velocity": 40,
                "duration": 0.13409090909090793,
                "tempo": 120.0
            },
            {
                "start_time": 10.429545454545455,
                "end_time": 10.563636363636363,
                "pitch": 41,
                "velocity": 40,
                "duration": 0.13409090909090793,
                "tempo": 120.0
            },
            {
                "start_time": 10.579545454545453,
                "end_time": 10.713636363636363,
                "pitch": 53,
                "velocity": 40,
                "duration": 0.1340909090909097,
                "tempo": 120.0
            },
            {
                "start_time": 10.729545454545454,
                "end_time": 10.863636363636363,
                "pitch": 41,
                "velocity": 40,
                "duration": 0.1340909090909097,
                "tempo": 120.0
            },
            {
                "start_time": 10.879545454545454,
                "end_time": 10.929545454545455,
                "pitch": 41,
                "velocity": 40,
                "duration": 0.05000000000000071,
                "tempo": 120.0
            },
            {
                "start_time": 10.963636363636363,
                "end_time": 11.013636363636364,
                "pitch": 41,
                "velocity": 40,
                "duration": 0.05000000000000071,
                "tempo": 120.0
            },
            {
                "start_time": 11.029545454545454,
                "end_time": 11.163636363636362,
                "pitch": 41,
                "velocity": 40,
                "duration": 0.13409090909090793,
                "tempo": 120.0
            },
            {
                "start_time": 11.179545454545455,
                "end_time": 11.313636363636363,
                "pitch": 53,
                "velocity": 40,
                "duration": 0.13409090909090793,
                "tempo": 120.0
            },
            {
                "start_time": 11.329545454545453,
                "end_time": 11.463636363636363,
                "pitch": 41,
                "velocity": 40,
                "duration": 0.1340909090909097,
                "tempo": 120.0
            },
            {
                "start_time": 11.479545454545454,
                "end_time": 11.613636363636363,
                "pitch": 53,
                "velocity": 40,
                "duration": 0.1340909090909097,
                "tempo": 120.0
            },
            {
                "start_time": 11.629545454545454,
                "end_time": 11.763636363636364,
                "pitch": 41,
                "velocity": 40,
                "duration": 0.1340909090909097,
                "tempo": 120.0
            },
            {
                "start_time": 11.779545454545454,
                "end_time": 11.913636363636362,
                "pitch": 53,
                "velocity": 40,
                "duration": 0.13409090909090793,
                "tempo": 120.0
            },
            {
                "start_time": 11.929545454545455,
                "end_time": 12.063636363636363,
                "pitch": 39,
                "velocity": 40,
                "duration": 0.13409090909090793,
                "tempo": 120.0
            },
            {
                "start_time": 12.079545454545453,
                "end_time": 12.213636363636363,
                "pitch": 51,
                "velocity": 40,
                "duration": 0.1340909090909097,
                "tempo": 120.0
            },
            {
                "start_time": 12.229545454545454,
                "end_time": 12.363636363636363,
                "pitch": 39,
                "velocity": 40,
                "duration": 0.1340909090909097,
                "tempo": 120.0
            },
            {
                "start_time": 12.379545454545454,
                "end_time": 12.513636363636364,
                "pitch": 51,
                "velocity": 40,
                "duration": 0.1340909090909097,
                "tempo": 120.0
            },
            {
                "start_time": 12.529545454545454,
                "end_time": 12.663636363636362,
                "pitch": 39,
                "velocity": 40,
                "duration": 0.13409090909090793,
                "tempo": 120.0
            },
            {
                "start_time": 12.679545454545455,
                "end_time": 12.813636363636363,
                "pitch": 51,
                "velocity": 40,
                "duration": 0.13409090909090793,
                "tempo": 120.0
            },
            {
                "start_time": 12.829545454545453,
                "end_time": 12.96590909090909,
                "pitch": 39,
                "velocity": 40,
                "duration": 0.1363636363636367,
                "tempo": 120.0
            },
            {
                "start_time": 12.98181818181818,
                "end_time": 13.11590909090909,
                "pitch": 51,
                "velocity": 40,
                "duration": 0.1340909090909097,
                "tempo": 120.0
            },
            {
                "start_time": 13.134090909090908,
                "end_time": 13.268181818181818,
                "pitch": 39,
                "velocity": 40,
                "duration": 0.1340909090909097,
                "tempo": 120.0
            },
            {
                "start_time": 13.284090909090908,
                "end_time": 13.420454545454545,
                "pitch": 51,
                "velocity": 40,
                "duration": 0.1363636363636367,
                "tempo": 120.0
            },
            {
                "start_time": 13.436363636363636,
                "end_time": 13.570454545454545,
                "pitch": 39,
                "velocity": 40,
                "duration": 0.1340909090909097,
                "tempo": 120.0
            },
            {
                "start_time": 13.586363636363636,
                "end_time": 13.720454545454544,
                "pitch": 51,
                "velocity": 40,
                "duration": 0.13409090909090793,
                "tempo": 120.0
            },
            {
                "start_time": 13.736363636363636,
                "end_time": 13.870454545454544,
                "pitch": 43,
                "velocity": 40,
                "duration": 0.13409090909090793,
                "tempo": 120.0
            },
            {
                "start_time": 13.886363636363635,
                "end_time": 14.020454545454545,
                "pitch": 46,
                "velocity": 40,
                "duration": 0.1340909090909097,
                "tempo": 120.0
            },
            {
                "start_time": 14.036363636363635,
                "end_time": 14.170454545454545,
                "pitch": 39,
                "velocity": 40,
                "duration": 0.1340909090909097,
                "tempo": 120.0
            },
            {
                "start_time": 14.186363636363636,
                "end_time": 14.320454545454545,
                "pitch": 51,
                "velocity": 40,
                "duration": 0.1340909090909097,
                "tempo": 120.0
            },
            {
                "start_time": 14.336363636363636,
                "end_time": 14.470454545454544,
                "pitch": 53,
                "velocity": 40,
                "duration": 0.13409090909090793,
                "tempo": 120.0
            },
            {
                "start_time": 14.486363636363636,
                "end_time": 14.620454545454544,
                "pitch": 41,
                "velocity": 40,
                "duration": 0.13409090909090793,
                "tempo": 120.0
            },
            {
                "start_time": 14.636363636363635,
                "end_time": 14.770454545454545,
                "pitch": 41,
                "velocity": 40,
                "duration": 0.1340909090909097,
                "tempo": 120.0
            },
            {
                "start_time": 14.786363636363635,
                "end_time": 14.920454545454545,
                "pitch": 53,
                "velocity": 40,
                "duration": 0.1340909090909097,
                "tempo": 120.0
            },
            {
                "start_time": 14.936363636363636,
                "end_time": 15.070454545454545,
                "pitch": 41,
                "velocity": 40,
                "duration": 0.1340909090909097,
                "tempo": 120.0
            },
            {
                "start_time": 15.086363636363636,
                "end_time": 15.220454545454544,
                "pitch": 53,
                "velocity": 40,
                "duration": 0.13409090909090793,
                "tempo": 120.0
            },
            {
                "start_time": 15.236363636363636,
                "end_time": 15.370454545454544,
                "pitch": 41,
                "velocity": 40,
                "duration": 0.13409090909090793,
                "tempo": 120.0
            },
            {
                "start_time": 15.386363636363635,
                "end_time": 15.520454545454545,
                "pitch": 53,
                "velocity": 40,
                "duration": 0.1340909090909097,
                "tempo": 120.0
            },
            {
                "start_time": 15.536363636363635,
                "end_time": 15.670454545454545,
                "pitch": 41,
                "velocity": 40,
                "duration": 0.1340909090909097,
                "tempo": 120.0
            },
            {
                "start_time": 15.686363636363636,
                "end_time": 15.820454545454545,
                "pitch": 53,
                "velocity": 40,
                "duration": 0.1340909090909097,
                "tempo": 120.0
            },
            {
                "start_time": 15.836363636363636,
                "end_time": 16.038636363636364,
                "pitch": 41,
                "velocity": 40,
                "duration": 0.20227272727272805,
                "tempo": 120.0
            },
            {
                "start_time": 16.07272727272727,
                "end_time": 16.12272727272727,
                "pitch": 53,
                "velocity": 40,
                "duration": 0.05000000000000071,
                "tempo": 120.0
            },
            {
                "start_time": 16.138636363636362,
                "end_time": 16.275,
                "pitch": 41,
                "velocity": 40,
                "duration": 0.1363636363636367,
                "tempo": 120.0
            },
            {
                "start_time": 16.29090909090909,
                "end_time": 16.34090909090909,
                "pitch": 41,
                "velocity": 40,
                "duration": 0.05000000000000071,
                "tempo": 120.0
            },
            {
                "start_time": 16.375,
                "end_time": 16.425,
                "pitch": 53,
                "velocity": 40,
                "duration": 0.05000000000000071,
                "tempo": 120.0
            },
            {
                "start_time": 16.443181818181817,
                "end_time": 16.575,
                "pitch": 41,
                "velocity": 40,
                "duration": 0.13181818181818272,
                "tempo": 120.0
            },
            {
                "start_time": 16.59318181818182,
                "end_time": 16.724999999999998,
                "pitch": 41,
                "velocity": 40,
                "duration": 0.13181818181817917,
                "tempo": 120.0
            },
            {
                "start_time": 16.743181818181817,
                "end_time": 16.875,
                "pitch": 43,
                "velocity": 40,
                "duration": 0.13181818181818272,
                "tempo": 120.0
            },
            {
                "start_time": 16.893181818181816,
                "end_time": 17.025,
                "pitch": 55,
                "velocity": 40,
                "duration": 0.13181818181818272,
                "tempo": 120.0
            },
            {
                "start_time": 17.043181818181818,
                "end_time": 17.175,
                "pitch": 43,
                "velocity": 40,
                "duration": 0.13181818181818272,
                "tempo": 120.0
            },
            {
                "start_time": 17.193181818181817,
                "end_time": 17.325,
                "pitch": 55,
                "velocity": 40,
                "duration": 0.13181818181818272,
                "tempo": 120.0
            },
            {
                "start_time": 17.34318181818182,
                "end_time": 17.474999999999998,
                "pitch": 43,
                "velocity": 40,
                "duration": 0.13181818181817917,
                "tempo": 120.0
            },
            {
                "start_time": 17.493181818181817,
                "end_time": 17.625,
                "pitch": 55,
                "velocity": 40,
                "duration": 0.13181818181818272,
                "tempo": 120.0
            },
            {
                "start_time": 17.643181818181816,
                "end_time": 17.777272727272727,
                "pitch": 43,
                "velocity": 40,
                "duration": 0.13409090909091148,
                "tempo": 120.0
            },
            {
                "start_time": 17.793181818181818,
                "end_time": 17.929545454545455,
                "pitch": 55,
                "velocity": 40,
                "duration": 0.1363636363636367,
                "tempo": 120.0
            },
            {
                "start_time": 17.945454545454545,
                "end_time": 18.079545454545453,
                "pitch": 43,
                "velocity": 40,
                "duration": 0.13409090909090793,
                "tempo": 120.0
            },
            {
                "start_time": 18.097727272727273,
                "end_time": 18.23181818181818,
                "pitch": 55,
                "velocity": 40,
                "duration": 0.13409090909090793,
                "tempo": 120.0
            },
            {
                "start_time": 18.24772727272727,
                "end_time": 18.384090909090908,
                "pitch": 43,
                "velocity": 40,
                "duration": 0.1363636363636367,
                "tempo": 120.0
            },
            {
                "start_time": 18.4,
                "end_time": 18.534090909090907,
                "pitch": 55,
                "velocity": 40,
                "duration": 0.13409090909090793,
                "tempo": 120.0
            },
            {
                "start_time": 18.552272727272726,
                "end_time": 18.686363636363634,
                "pitch": 43,
                "velocity": 40,
                "duration": 0.13409090909090793,
                "tempo": 120.0
            },
            {
                "start_time": 18.702272727272728,
                "end_time": 18.83863636363636,
                "pitch": 50,
                "velocity": 40,
                "duration": 0.13636363636363313,
                "tempo": 120.0
            },
            {
                "start_time": 18.854545454545455,
                "end_time": 18.988636363636363,
                "pitch": 46,
                "velocity": 40,
                "duration": 0.13409090909090793,
                "tempo": 120.0
            },
            {
                "start_time": 19.004545454545454,
                "end_time": 19.138636363636362,
                "pitch": 43,
                "velocity": 40,
                "duration": 0.13409090909090793,
                "tempo": 120.0
            },
            {
                "start_time": 19.154545454545453,
                "end_time": 19.288636363636364,
                "pitch": 56,
                "velocity": 40,
                "duration": 0.13409090909091148,
                "tempo": 120.0
            },
            {
                "start_time": 19.304545454545455,
                "end_time": 19.438636363636363,
                "pitch": 56,
                "velocity": 40,
                "duration": 0.13409090909090793,
                "tempo": 120.0
            },
            {
                "start_time": 19.454545454545453,
                "end_time": 19.58863636363636,
                "pitch": 56,
                "velocity": 40,
                "duration": 0.13409090909090793,
                "tempo": 120.0
            },
            {
                "start_time": 19.60681818181818,
                "end_time": 19.74090909090909,
                "pitch": 44,
                "velocity": 40,
                "duration": 0.13409090909090793,
                "tempo": 120.0
            },
            {
                "start_time": 19.75681818181818,
                "end_time": 19.893181818181816,
                "pitch": 44,
                "velocity": 40,
                "duration": 0.1363636363636367,
                "tempo": 120.0
            },
            {
                "start_time": 19.909090909090907,
                "end_time": 20.043181818181818,
                "pitch": 56,
                "velocity": 40,
                "duration": 0.13409090909091148,
                "tempo": 120.0
            },
            {
                "start_time": 20.061363636363634,
                "end_time": 20.193181818181817,
                "pitch": 44,
                "velocity": 40,
                "duration": 0.13181818181818272,
                "tempo": 120.0
            },
            {
                "start_time": 20.211363636363636,
                "end_time": 20.34318181818182,
                "pitch": 44,
                "velocity": 40,
                "duration": 0.13181818181818272,
                "tempo": 120.0
            },
            {
                "start_time": 20.361363636363635,
                "end_time": 20.493181818181817,
                "pitch": 44,
                "velocity": 40,
                "duration": 0.13181818181818272,
                "tempo": 120.0
            },
            {
                "start_time": 20.511363636363637,
                "end_time": 20.561363636363634,
                "pitch": 44,
                "velocity": 40,
                "duration": 0.04999999999999716,
                "tempo": 120.0
            },
            {
                "start_time": 20.59318181818182,
                "end_time": 20.643181818181816,
                "pitch": 44,
                "velocity": 40,
                "duration": 0.04999999999999716,
                "tempo": 120.0
            },
            {
                "start_time": 20.661363636363635,
                "end_time": 20.795454545454543,
                "pitch": 56,
                "velocity": 40,
                "duration": 0.13409090909090793,
                "tempo": 120.0
            },
            {
                "start_time": 20.811363636363634,
                "end_time": 20.94772727272727,
                "pitch": 56,
                "velocity": 40,
                "duration": 0.1363636363636367,
                "tempo": 120.0
            },
            {
                "start_time": 20.96363636363636,
                "end_time": 21.097727272727273,
                "pitch": 56,
                "velocity": 40,
                "duration": 0.13409090909091148,
                "tempo": 120.0
            },
            {
                "start_time": 21.11590909090909,
                "end_time": 21.16590909090909,
                "pitch": 56,
                "velocity": 40,
                "duration": 0.05000000000000071,
                "tempo": 120.0
            },
            {
                "start_time": 21.2,
                "end_time": 21.25,
                "pitch": 56,
                "velocity": 40,
                "duration": 0.05000000000000071,
                "tempo": 120.0
            },
            {
                "start_time": 21.26590909090909,
                "end_time": 21.402272727272727,
                "pitch": 56,
                "velocity": 40,
                "duration": 0.1363636363636367,
                "tempo": 120.0
            },
            {
                "start_time": 21.418181818181818,
                "end_time": 21.552272727272726,
                "pitch": 44,
                "velocity": 40,
                "duration": 0.13409090909090793,
                "tempo": 120.0
            },
            {
                "start_time": 21.570454545454545,
                "end_time": 21.704545454545453,
                "pitch": 39,
                "velocity": 40,
                "duration": 0.13409090909090793,
                "tempo": 120.0
            },
            {
                "start_time": 21.720454545454544,
                "end_time": 21.85681818181818,
                "pitch": 39,
                "velocity": 40,
                "duration": 0.1363636363636367,
                "tempo": 120.0
            },
            {
                "start_time": 21.87272727272727,
                "end_time": 22.00681818181818,
                "pitch": 51,
                "velocity": 40,
                "duration": 0.13409090909090793,
                "tempo": 120.0
            },
            {
                "start_time": 22.022727272727273,
                "end_time": 22.15681818181818,
                "pitch": 39,
                "velocity": 40,
                "duration": 0.13409090909090793,
                "tempo": 120.0
            },
            {
                "start_time": 22.172727272727272,
                "end_time": 22.30681818181818,
                "pitch": 39,
                "velocity": 40,
                "duration": 0.13409090909090793,
                "tempo": 120.0
            },
            {
                "start_time": 22.32272727272727,
                "end_time": 22.37272727272727,
                "pitch": 39,
                "velocity": 40,
                "duration": 0.05000000000000071,
                "tempo": 120.0
            },
            {
                "start_time": 22.40681818181818,
                "end_time": 22.456818181818182,
                "pitch": 39,
                "velocity": 40,
                "duration": 0.05000000000000071,
                "tempo": 120.0
            },
            {
                "start_time": 22.472727272727273,
                "end_time": 22.60681818181818,
                "pitch": 51,
                "velocity": 40,
                "duration": 0.13409090909090793,
                "tempo": 120.0
            },
            {
                "start_time": 22.625,
                "end_time": 22.759090909090908,
                "pitch": 51,
                "velocity": 40,
                "duration": 0.13409090909090793,
                "tempo": 120.0
            },
            {
                "start_time": 22.775,
                "end_time": 22.911363636363635,
                "pitch": 51,
                "velocity": 40,
                "duration": 0.1363636363636367,
                "tempo": 120.0
            },
            {
                "start_time": 22.927272727272726,
                "end_time": 22.977272727272727,
                "pitch": 51,
                "velocity": 40,
                "duration": 0.05000000000000071,
                "tempo": 120.0
            },
            {
                "start_time": 23.011363636363637,
                "end_time": 23.061363636363634,
                "pitch": 51,
                "velocity": 40,
                "duration": 0.04999999999999716,
                "tempo": 120.0
            },
            {
                "start_time": 23.079545454545453,
                "end_time": 23.211363636363636,
                "pitch": 51,
                "velocity": 40,
                "duration": 0.13181818181818272,
                "tempo": 120.0
            },
            {
                "start_time": 23.229545454545452,
                "end_time": 23.361363636363635,
                "pitch": 39,
                "velocity": 40,
                "duration": 0.13181818181818272,
                "tempo": 120.0
            },
            {
                "start_time": 23.379545454545454,
                "end_time": 23.429545454545455,
                "pitch": 51,
                "velocity": 40,
                "duration": 0.05000000000000071,
                "tempo": 120.0
            },
            {
                "start_time": 23.461363636363636,
                "end_time": 23.511363636363637,
                "pitch": 51,
                "velocity": 40,
                "duration": 0.05000000000000071,
                "tempo": 120.0
            },
            {
                "start_time": 23.529545454545453,
                "end_time": 23.661363636363635,
                "pitch": 51,
                "velocity": 40,
                "duration": 0.13181818181818272,
                "tempo": 120.0
            },
            {
                "start_time": 23.679545454545455,
                "end_time": 23.813636363636363,
                "pitch": 39,
                "velocity": 40,
                "duration": 0.13409090909090793,
                "tempo": 120.0
            },
            {
                "start_time": 23.829545454545453,
                "end_time": 23.96590909090909,
                "pitch": 51,
                "velocity": 40,
                "duration": 0.1363636363636367,
                "tempo": 120.0
            },
            {
                "start_time": 23.98181818181818,
                "end_time": 24.11590909090909,
                "pitch": 41,
                "velocity": 40,
                "duration": 0.13409090909090793,
                "tempo": 120.0
            },
            {
                "start_time": 24.134090909090908,
                "end_time": 24.18409090909091,
                "pitch": 41,
                "velocity": 40,
                "duration": 0.05000000000000071,
                "tempo": 120.0
            },
            {
                "start_time": 24.21818181818182,
                "end_time": 24.268181818181816,
                "pitch": 41,
                "velocity": 40,
                "duration": 0.04999999999999716,
                "tempo": 120.0
            },
            {
                "start_time": 24.284090909090907,
                "end_time": 24.420454545454543,
                "pitch": 53,
                "velocity": 40,
                "duration": 0.1363636363636367,
                "tempo": 120.0
            },
            {
                "start_time": 24.436363636363634,
                "end_time": 24.570454545454545,
                "pitch": 53,
                "velocity": 40,
                "duration": 0.13409090909091148,
                "tempo": 120.0
            },
            {
                "start_time": 24.58863636363636,
                "end_time": 24.722727272727273,
                "pitch": 53,
                "velocity": 40,
                "duration": 0.13409090909091148,
                "tempo": 120.0
            },
            {
                "start_time": 24.738636363636363,
                "end_time": 24.79090909090909,
                "pitch": 53,
                "velocity": 40,
                "duration": 0.052272727272725916,
                "tempo": 120.0
            },
            {
                "start_time": 24.82272727272727,
                "end_time": 24.875,
                "pitch": 53,
                "velocity": 40,
                "duration": 0.05227272727272947,
                "tempo": 120.0
            },
            {
                "start_time": 24.89090909090909,
                "end_time": 25.025,
                "pitch": 53,
                "velocity": 40,
                "duration": 0.13409090909090793,
                "tempo": 120.0
            },
            {
                "start_time": 25.04090909090909,
                "end_time": 25.174999999999997,
                "pitch": 41,
                "velocity": 40,
                "duration": 0.13409090909090793,
                "tempo": 120.0
            },
            {
                "start_time": 25.19090909090909,
                "end_time": 25.325,
                "pitch": 41,
                "velocity": 40,
                "duration": 0.13409090909090793,
                "tempo": 120.0
            },
            {
                "start_time": 25.34090909090909,
                "end_time": 25.39090909090909,
                "pitch": 41,
                "velocity": 40,
                "duration": 0.05000000000000071,
                "tempo": 120.0
            },
            {
                "start_time": 25.424999999999997,
                "end_time": 25.474999999999998,
                "pitch": 41,
                "velocity": 40,
                "duration": 0.05000000000000071,
                "tempo": 120.0
            },
            {
                "start_time": 25.49090909090909,
                "end_time": 25.625,
                "pitch": 53,
                "velocity": 40,
                "duration": 0.13409090909091148,
                "tempo": 120.0
            },
            {
                "start_time": 25.643181818181816,
                "end_time": 25.777272727272727,
                "pitch": 41,
                "velocity": 40,
                "duration": 0.13409090909091148,
                "tempo": 120.0
            },
            {
                "start_time": 25.793181818181818,
                "end_time": 25.929545454545455,
                "pitch": 41,
                "velocity": 40,
                "duration": 0.1363636363636367,
                "tempo": 120.0
            },
            {
                "start_time": 25.945454545454545,
                "end_time": 26.079545454545453,
                "pitch": 41,
                "velocity": 40,
                "duration": 0.13409090909090793,
                "tempo": 120.0
            },
            {
                "start_time": 26.097727272727273,
                "end_time": 26.229545454545452,
                "pitch": 53,
                "velocity": 40,
                "duration": 0.13181818181817917,
                "tempo": 120.0
            },
            {
                "start_time": 26.24772727272727,
                "end_time": 26.379545454545454,
                "pitch": 41,
                "velocity": 40,
                "duration": 0.13181818181818272,
                "tempo": 120.0
            },
            {
                "start_time": 26.39772727272727,
                "end_time": 26.529545454545453,
                "pitch": 43,
                "velocity": 40,
                "duration": 0.13181818181818272,
                "tempo": 120.0
            },
            {
                "start_time": 26.547727272727272,
                "end_time": 26.597727272727273,
                "pitch": 43,
                "velocity": 40,
                "duration": 0.05000000000000071,
                "tempo": 120.0
            },
            {
                "start_time": 26.629545454545454,
                "end_time": 26.679545454545455,
                "pitch": 43,
                "velocity": 40,
                "duration": 0.05000000000000071,
                "tempo": 120.0
            },
            {
                "start_time": 26.69772727272727,
                "end_time": 26.829545454545453,
                "pitch": 55,
                "velocity": 40,
                "duration": 0.13181818181818272,
                "tempo": 120.0
            },
            {
                "start_time": 26.845454545454544,
                "end_time": 26.977272727272727,
                "pitch": 55,
                "velocity": 40,
                "duration": 0.13181818181818272,
                "tempo": 120.0
            },
            {
                "start_time": 26.993181818181817,
                "end_time": 27.125,
                "pitch": 55,
                "velocity": 40,
                "duration": 0.13181818181818272,
                "tempo": 120.0
            },
            {
                "start_time": 27.143181818181816,
                "end_time": 27.19090909090909,
                "pitch": 55,
                "velocity": 40,
                "duration": 0.047727272727275505,
                "tempo": 120.0
            },
            {
                "start_time": 27.224999999999998,
                "end_time": 27.275,
                "pitch": 55,
                "velocity": 40,
                "duration": 0.05000000000000071,
                "tempo": 120.0
            },
            {
                "start_time": 27.29090909090909,
                "end_time": 27.427272727272726,
                "pitch": 55,
                "velocity": 40,
                "duration": 0.1363636363636367,
                "tempo": 120.0
            },
            {
                "start_time": 27.443181818181817,
                "end_time": 27.579545454545453,
                "pitch": 43,
                "velocity": 40,
                "duration": 0.1363636363636367,
                "tempo": 120.0
            },
            {
                "start_time": 27.597727272727273,
                "end_time": 27.73181818181818,
                "pitch": 43,
                "velocity": 40,
                "duration": 0.13409090909090793,
                "tempo": 120.0
            },
            {
                "start_time": 27.75,
                "end_time": 27.886363636363637,
                "pitch": 43,
                "velocity": 40,
                "duration": 0.1363636363636367,
                "tempo": 120.0
            },
            {
                "start_time": 27.902272727272727,
                "end_time": 28.036363636363635,
                "pitch": 46,
                "velocity": 40,
                "duration": 0.13409090909090793,
                "tempo": 120.0
            },
            {
                "start_time": 28.052272727272726,
                "end_time": 28.186363636363634,
                "pitch": 50,
                "velocity": 40,
                "duration": 0.13409090909090793,
                "tempo": 120.0
            },
            {
                "start_time": 28.202272727272724,
                "end_time": 28.336363636363636,
                "pitch": 43,
                "velocity": 40,
                "duration": 0.13409090909091148,
                "tempo": 120.0
            },
            {
                "start_time": 28.352272727272727,
                "end_time": 28.486363636363635,
                "pitch": 55,
                "velocity": 40,
                "duration": 0.13409090909090793,
                "tempo": 120.0
            },
            {
                "start_time": 28.502272727272725,
                "end_time": 28.78863636363636,
                "pitch": 43,
                "velocity": 40,
                "duration": 0.28636363636363527,
                "tempo": 120.0
            },
            {
                "start_time": 28.80681818181818,
                "end_time": 28.940909090909088,
                "pitch": 44,
                "velocity": 40,
                "duration": 0.13409090909090793,
                "tempo": 120.0
            },
            {
                "start_time": 28.956818181818182,
                "end_time": 29.009090909090908,
                "pitch": 44,
                "velocity": 40,
                "duration": 0.052272727272725916,
                "tempo": 120.0
            },
            {
                "start_time": 29.04090909090909,
                "end_time": 29.093181818181815,
                "pitch": 44,
                "velocity": 40,
                "duration": 0.052272727272725916,
                "tempo": 120.0
            },
            {
                "start_time": 29.10909090909091,
                "end_time": 29.243181818181817,
                "pitch": 56,
                "velocity": 40,
                "duration": 0.13409090909090793,
                "tempo": 120.0
            },
            {
                "start_time": 29.259090909090908,
                "end_time": 29.393181818181816,
                "pitch": 44,
                "velocity": 40,
                "duration": 0.13409090909090793,
                "tempo": 120.0
            },
            {
                "start_time": 29.409090909090907,
                "end_time": 29.543181818181818,
                "pitch": 44,
                "velocity": 40,
                "duration": 0.13409090909091148,
                "tempo": 120.0
            },
            {
                "start_time": 29.55909090909091,
                "end_time": 29.60909090909091,
                "pitch": 44,
                "velocity": 40,
                "duration": 0.05000000000000071,
                "tempo": 120.0
            },
            {
                "start_time": 29.643181818181816,
                "end_time": 29.693181818181817,
                "pitch": 44,
                "velocity": 40,
                "duration": 0.05000000000000071,
                "tempo": 120.0
            },
            {
                "start_time": 29.709090909090907,
                "end_time": 29.843181818181815,
                "pitch": 56,
                "velocity": 40,
                "duration": 0.13409090909090793,
                "tempo": 120.0
            },
            {
                "start_time": 29.861363636363635,
                "end_time": 29.995454545454542,
                "pitch": 44,
                "velocity": 40,
                "duration": 0.13409090909090793,
                "tempo": 120.0
            },
            {
                "start_time": 30.011363636363633,
                "end_time": 30.14772727272727,
                "pitch": 44,
                "velocity": 40,
                "duration": 0.1363636363636367,
                "tempo": 120.0
            },
            {
                "start_time": 30.16363636363636,
                "end_time": 30.21363636363636,
                "pitch": 44,
                "velocity": 40,
                "duration": 0.05000000000000071,
                "tempo": 120.0
            },
            {
                "start_time": 30.24772727272727,
                "end_time": 30.297727272727272,
                "pitch": 44,
                "velocity": 40,
                "duration": 0.05000000000000071,
                "tempo": 120.0
            },
            {
                "start_time": 30.315909090909088,
                "end_time": 30.45,
                "pitch": 56,
                "velocity": 40,
                "duration": 0.13409090909091148,
                "tempo": 120.0
            },
            {
                "start_time": 30.46590909090909,
                "end_time": 30.602272727272727,
                "pitch": 44,
                "velocity": 40,
                "duration": 0.1363636363636367,
                "tempo": 120.0
            },
            {
                "start_time": 30.618181818181817,
                "end_time": 30.752272727272725,
                "pitch": 44,
                "velocity": 40,
                "duration": 0.13409090909090793,
                "tempo": 120.0
            },
            {
                "start_time": 30.770454545454545,
                "end_time": 30.904545454545453,
                "pitch": 56,
                "velocity": 40,
                "duration": 0.13409090909090793,
                "tempo": 120.0
            },
            {
                "start_time": 30.920454545454543,
                "end_time": 31.054545454545455,
                "pitch": 44,
                "velocity": 40,
                "duration": 0.13409090909091148,
                "tempo": 120.0
            },
            {
                "start_time": 31.070454545454545,
                "end_time": 31.204545454545453,
                "pitch": 56,
                "velocity": 40,
                "duration": 0.13409090909090793,
                "tempo": 120.0
            },
            {
                "start_time": 31.220454545454544,
                "end_time": 31.354545454545452,
                "pitch": 39,
                "velocity": 40,
                "duration": 0.13409090909090793,
                "tempo": 120.0
            },
            {
                "start_time": 31.370454545454542,
                "end_time": 31.420454545454543,
                "pitch": 39,
                "velocity": 40,
                "duration": 0.05000000000000071,
                "tempo": 120.0
            },
            {
                "start_time": 31.454545454545453,
                "end_time": 31.504545454545454,
                "pitch": 39,
                "velocity": 40,
                "duration": 0.05000000000000071,
                "tempo": 120.0
            },
            {
                "start_time": 31.520454545454545,
                "end_time": 31.65681818181818,
                "pitch": 51,
                "velocity": 40,
                "duration": 0.1363636363636367,
                "tempo": 120.0
            },
            {
                "start_time": 31.672727272727272,
                "end_time": 31.80681818181818,
                "pitch": 51,
                "velocity": 40,
                "duration": 0.13409090909090793,
                "tempo": 120.0
            },
            {
                "start_time": 31.825,
                "end_time": 31.959090909090907,
                "pitch": 51,
                "velocity": 40,
                "duration": 0.13409090909090793,
                "tempo": 120.0
            },
            {
                "start_time": 31.974999999999998,
                "end_time": 32.027272727272724,
                "pitch": 51,
                "velocity": 40,
                "duration": 0.052272727272725916,
                "tempo": 120.0
            },
            {
                "start_time": 32.059090909090905,
                "end_time": 32.17727272727272,
                "pitch": 51,
                "velocity": 40,
                "duration": 0.11818181818181728,
                "tempo": 120.0
            },
            {
                "start_time": 32.211363636363636,
                "end_time": 32.26136363636363,
                "pitch": 51,
                "velocity": 40,
                "duration": 0.04999999999999716,
                "tempo": 120.0
            },
            {
                "start_time": 32.277272727272724,
                "end_time": 32.293181818181814,
                "pitch": 39,
                "velocity": 40,
                "duration": 0.01590909090909065,
                "tempo": 120.0
            },
            {
                "start_time": 32.31136363636364,
                "end_time": 32.41136363636363,
                "pitch": 41,
                "velocity": 40,
                "duration": 0.09999999999999432,
                "tempo": 120.0
            },
            {
                "start_time": 32.42727272727272,
                "end_time": 32.56136363636364,
                "pitch": 39,
                "velocity": 40,
                "duration": 0.13409090909091503,
                "tempo": 120.0
            },
            {
                "start_time": 32.57727272727273,
                "end_time": 32.711363636363636,
                "pitch": 39,
                "velocity": 40,
                "duration": 0.13409090909090793,
                "tempo": 120.0
            },
            {
                "start_time": 32.72727272727273,
                "end_time": 32.861363636363635,
                "pitch": 51,
                "velocity": 40,
                "duration": 0.13409090909090793,
                "tempo": 120.0
            },
            {
                "start_time": 32.87954545454545,
                "end_time": 33.013636363636365,
                "pitch": 39,
                "velocity": 40,
                "duration": 0.13409090909091503,
                "tempo": 120.0
            },
            {
                "start_time": 33.029545454545456,
                "end_time": 33.16590909090909,
                "pitch": 39,
                "velocity": 40,
                "duration": 0.13636363636363313,
                "tempo": 120.0
            },
            {
                "start_time": 33.18181818181818,
                "end_time": 33.31590909090909,
                "pitch": 43,
                "velocity": 40,
                "duration": 0.13409090909090793,
                "tempo": 120.0
            },
            {
                "start_time": 33.33409090909091,
                "end_time": 33.46818181818182,
                "pitch": 46,
                "velocity": 40,
                "duration": 0.13409090909090793,
                "tempo": 120.0
            },
            {
                "start_time": 33.48409090909091,
                "end_time": 33.62045454545454,
                "pitch": 39,
                "velocity": 40,
                "duration": 0.13636363636363313,
                "tempo": 120.0
            },
            {
                "start_time": 33.63636363636363,
                "end_time": 33.77045454545454,
                "pitch": 41,
                "velocity": 40,
                "duration": 0.13409090909090793,
                "tempo": 120.0
            },
            {
                "start_time": 33.788636363636364,
                "end_time": 33.92272727272727,
                "pitch": 41,
                "velocity": 40,
                "duration": 0.13409090909090793,
                "tempo": 120.0
            },
            {
                "start_time": 33.93863636363636,
                "end_time": 34.074999999999996,
                "pitch": 53,
                "velocity": 40,
                "duration": 0.13636363636363313,
                "tempo": 120.0
            },
            {
                "start_time": 34.090909090909086,
                "end_time": 34.225,
                "pitch": 41,
                "velocity": 40,
                "duration": 0.13409090909091503,
                "tempo": 120.0
            },
            {
                "start_time": 34.24318181818182,
                "end_time": 34.377272727272725,
                "pitch": 41,
                "velocity": 40,
                "duration": 0.13409090909090793,
                "tempo": 120.0
            },
            {
                "start_time": 34.393181818181816,
                "end_time": 34.445454545454545,
                "pitch": 41,
                "velocity": 40,
                "duration": 0.05227272727272947,
                "tempo": 120.0
            },
            {
                "start_time": 34.47727272727273,
                "end_time": 34.529545454545456,
                "pitch": 41,
                "velocity": 40,
                "duration": 0.05227272727272947,
                "tempo": 120.0
            },
            {
                "start_time": 34.54545454545455,
                "end_time": 34.679545454545455,
                "pitch": 53,
                "velocity": 40,
                "duration": 0.13409090909090793,
                "tempo": 120.0
            },
            {
                "start_time": 34.695454545454545,
                "end_time": 34.82954545454545,
                "pitch": 53,
                "velocity": 40,
                "duration": 0.13409090909090793,
                "tempo": 120.0
            },
            {
                "start_time": 34.845454545454544,
                "end_time": 34.97954545454545,
                "pitch": 53,
                "velocity": 40,
                "duration": 0.13409090909090793,
                "tempo": 120.0
            },
            {
                "start_time": 34.99545454545454,
                "end_time": 35.04545454545455,
                "pitch": 53,
                "velocity": 40,
                "duration": 0.05000000000000426,
                "tempo": 120.0
            },
            {
                "start_time": 35.07954545454545,
                "end_time": 35.12954545454545,
                "pitch": 53,
                "velocity": 40,
                "duration": 0.04999999999999716,
                "tempo": 120.0
            },
            {
                "start_time": 35.14545454545454,
                "end_time": 35.279545454545456,
                "pitch": 53,
                "velocity": 40,
                "duration": 0.13409090909091503,
                "tempo": 120.0
            },
            {
                "start_time": 35.29772727272727,
                "end_time": 35.43181818181818,
                "pitch": 41,
                "velocity": 40,
                "duration": 0.13409090909090793,
                "tempo": 120.0
            },
            {
                "start_time": 35.44772727272727,
                "end_time": 35.58409090909091,
                "pitch": 41,
                "velocity": 40,
                "duration": 0.13636363636364024,
                "tempo": 120.0
            },
            {
                "start_time": 35.6,
                "end_time": 35.65,
                "pitch": 41,
                "velocity": 40,
                "duration": 0.04999999999999716,
                "tempo": 120.0
            },
            {
                "start_time": 35.684090909090905,
                "end_time": 35.73409090909091,
                "pitch": 41,
                "velocity": 40,
                "duration": 0.05000000000000426,
                "tempo": 120.0
            },
            {
                "start_time": 35.752272727272725,
                "end_time": 35.88636363636363,
                "pitch": 53,
                "velocity": 40,
                "duration": 0.13409090909090793,
                "tempo": 120.0
            },
            {
                "start_time": 35.902272727272724,
                "end_time": 36.038636363636364,
                "pitch": 41,
                "velocity": 40,
                "duration": 0.13636363636364024,
                "tempo": 120.0
            },
            {
                "start_time": 36.054545454545455,
                "end_time": 36.18863636363636,
                "pitch": 43,
                "velocity": 40,
                "duration": 0.13409090909090793,
                "tempo": 120.0
            },
            {
                "start_time": 36.20681818181818,
                "end_time": 36.30681818181818,
                "pitch": 43,
                "velocity": 40,
                "duration": 0.10000000000000142,
                "tempo": 120.0
            },
            {
                "start_time": 36.654545454545456,
                "end_time": 36.78636363636363,
                "pitch": 43,
                "velocity": 40,
                "duration": 0.13181818181817562,
                "tempo": 120.0
            },
            {
                "start_time": 36.80227272727272,
                "end_time": 37.24090909090909,
                "pitch": 43,
                "velocity": 40,
                "duration": 0.4386363636363697,
                "tempo": 120.0
            },
            {
                "start_time": 37.25681818181818,
                "end_time": 37.54772727272727,
                "pitch": 44,
                "velocity": 40,
                "duration": 0.29090909090908923,
                "tempo": 120.0
            },
            {
                "start_time": 37.56363636363636,
                "end_time": 37.84772727272727,
                "pitch": 43,
                "velocity": 40,
                "duration": 0.2840909090909065,
                "tempo": 120.0
            },
            {
                "start_time": 37.86363636363636,
                "end_time": 38.14772727272727,
                "pitch": 43,
                "velocity": 40,
                "duration": 0.2840909090909136,
                "tempo": 120.0
            },
            {
                "start_time": 38.163636363636364,
                "end_time": 38.361363636363635,
                "pitch": 43,
                "velocity": 40,
                "duration": 0.19772727272727053,
                "tempo": 120.0
            }
        ],
        "Flute": [
            {
                "start_time": 0.18409090909090908,
                "end_time": 0.7704545454545454,
                "pitch": 81,
                "velocity": 51,
                "duration": 0.5863636363636363,
                "tempo": 120.0
            },
            {
                "start_time": 0.7886363636363636,
                "end_time": 1.0704545454545453,
                "pitch": 82,
                "velocity": 51,
                "duration": 0.28181818181818175,
                "tempo": 120.0
            },
            {
                "start_time": 1.0886363636363636,
                "end_time": 1.2204545454545455,
                "pitch": 84,
                "velocity": 51,
                "duration": 0.13181818181818183,
                "tempo": 120.0
            },
            {
                "start_time": 1.2386363636363635,
                "end_time": 1.2886363636363636,
                "pitch": 84,
                "velocity": 51,
                "duration": 0.050000000000000044,
                "tempo": 120.0
            },
            {
                "start_time": 1.6886363636363635,
                "end_time": 1.9704545454545455,
                "pitch": 84,
                "velocity": 51,
                "duration": 0.28181818181818197,
                "tempo": 120.0
            },
            {
                "start_time": 1.9886363636363635,
                "end_time": 2.1227272727272726,
                "pitch": 82,
                "velocity": 51,
                "duration": 0.13409090909090904,
                "tempo": 120.0
            },
            {
                "start_time": 2.1386363636363637,
                "end_time": 2.577272727272727,
                "pitch": 81,
                "velocity": 51,
                "duration": 0.4386363636363635,
                "tempo": 120.0
            },
            {
                "start_time": 2.5931818181818183,
                "end_time": 2.8795454545454544,
                "pitch": 79,
                "velocity": 51,
                "duration": 0.28636363636363615,
                "tempo": 120.0
            },
            {
                "start_time": 2.8977272727272725,
                "end_time": 3.184090909090909,
                "pitch": 79,
                "velocity": 51,
                "duration": 0.2863636363636366,
                "tempo": 120.0
            },
            {
                "start_time": 3.1999999999999997,
                "end_time": 3.334090909090909,
                "pitch": 77,
                "velocity": 51,
                "duration": 0.13409090909090926,
                "tempo": 120.0
            },
            {
                "start_time": 3.3499999999999996,
                "end_time": 4.154545454545454,
                "pitch": 79,
                "velocity": 51,
                "duration": 0.8045454545454547,
                "tempo": 120.0
            },
            {
                "start_time": 5.011363636363636,
                "end_time": 5.595454545454545,
                "pitch": 81,
                "velocity": 51,
                "duration": 0.584090909090909,
                "tempo": 120.0
            },
            {
                "start_time": 5.611363636363636,
                "end_time": 5.8954545454545455,
                "pitch": 82,
                "velocity": 51,
                "duration": 0.28409090909090917,
                "tempo": 120.0
            },
            {
                "start_time": 5.911363636363636,
                "end_time": 6.045454545454545,
                "pitch": 84,
                "velocity": 51,
                "duration": 0.13409090909090882,
                "tempo": 120.0
            },
            {
                "start_time": 6.0613636363636365,
                "end_time": 6.161363636363636,
                "pitch": 84,
                "velocity": 51,
                "duration": 0.09999999999999964,
                "tempo": 120.0
            },
            {
                "start_time": 6.515909090909091,
                "end_time": 6.802272727272727,
                "pitch": 84,
                "velocity": 51,
                "duration": 0.28636363636363615,
                "tempo": 120.0
            },
            {
                "start_time": 6.8181818181818175,
                "end_time": 6.952272727272727,
                "pitch": 82,
                "velocity": 51,
                "duration": 0.1340909090909097,
                "tempo": 120.0
            },
            {
                "start_time": 6.968181818181818,
                "end_time": 7.402272727272727,
                "pitch": 81,
                "velocity": 51,
                "duration": 0.4340909090909095,
                "tempo": 120.0
            },
            {
                "start_time": 7.418181818181818,
                "end_time": 7.704545454545454,
                "pitch": 87,
                "velocity": 51,
                "duration": 0.28636363636363615,
                "tempo": 120.0
            },
            {
                "start_time": 7.720454545454545,
                "end_time": 8.006818181818181,
                "pitch": 87,
                "velocity": 51,
                "duration": 0.28636363636363615,
                "tempo": 120.0
            },
            {
                "start_time": 8.025,
                "end_time": 8.306818181818182,
                "pitch": 87,
                "velocity": 51,
                "duration": 0.2818181818181813,
                "tempo": 120.0
            },
            {
                "start_time": 8.325,
                "end_time": 8.456818181818182,
                "pitch": 87,
                "velocity": 51,
                "duration": 0.13181818181818272,
                "tempo": 120.0
            },
            {
                "start_time": 8.475,
                "end_time": 8.60681818181818,
                "pitch": 86,
                "velocity": 51,
                "duration": 0.13181818181818095,
                "tempo": 120.0
            },
            {
                "start_time": 8.625,
                "end_time": 8.756818181818181,
                "pitch": 84,
                "velocity": 51,
                "duration": 0.13181818181818095,
                "tempo": 120.0
            },
            {
                "start_time": 8.775,
                "end_time": 9.806818181818182,
                "pitch": 82,
                "velocity": 51,
                "duration": 1.0318181818181813,
                "tempo": 120.0
            },
            {
                "start_time": 9.825,
                "end_time": 10.413636363636362,
                "pitch": 81,
                "velocity": 51,
                "duration": 0.588636363636363,
                "tempo": 120.0
            },
            {
                "start_time": 10.429545454545455,
                "end_time": 10.713636363636363,
                "pitch": 82,
                "velocity": 51,
                "duration": 0.2840909090909083,
                "tempo": 120.0
            },
            {
                "start_time": 10.729545454545454,
                "end_time": 10.863636363636363,
                "pitch": 84,
                "velocity": 51,
                "duration": 0.1340909090909097,
                "tempo": 120.0
            },
            {
                "start_time": 10.879545454545454,
                "end_time": 10.963636363636363,
                "pitch": 84,
                "velocity": 51,
                "duration": 0.084090909090909,
                "tempo": 120.0
            },
            {
                "start_time": 11.329545454545453,
                "end_time": 11.613636363636363,
                "pitch": 84,
                "velocity": 51,
                "duration": 0.28409090909091006,
                "tempo": 120.0
            },
            {
                "start_time": 11.629545454545454,
                "end_time": 11.763636363636364,
                "pitch": 82,
                "velocity": 51,
                "duration": 0.1340909090909097,
                "tempo": 120.0
            },
            {
                "start_time": 11.779545454545454,
                "end_time": 12.213636363636363,
                "pitch": 81,
                "velocity": 51,
                "duration": 0.43409090909090864,
                "tempo": 120.0
            },
            {
                "start_time": 12.229545454545454,
                "end_time": 12.513636363636364,
                "pitch": 79,
                "velocity": 51,
                "duration": 0.28409090909091006,
                "tempo": 120.0
            },
            {
                "start_time": 12.529545454545454,
                "end_time": 12.813636363636363,
                "pitch": 79,
                "velocity": 51,
                "duration": 0.2840909090909083,
                "tempo": 120.0
            },
            {
                "start_time": 12.829545454545453,
                "end_time": 12.96590909090909,
                "pitch": 77,
                "velocity": 51,
                "duration": 0.1363636363636367,
                "tempo": 120.0
            },
            {
                "start_time": 12.98181818181818,
                "end_time": 14.170454545454545,
                "pitch": 79,
                "velocity": 51,
                "duration": 1.1886363636363644,
                "tempo": 120.0
            },
            {
                "start_time": 14.636363636363635,
                "end_time": 15.220454545454544,
                "pitch": 81,
                "velocity": 51,
                "duration": 0.584090909090909,
                "tempo": 120.0
            },
            {
                "start_time": 15.236363636363636,
                "end_time": 15.520454545454545,
                "pitch": 82,
                "velocity": 51,
                "duration": 0.2840909090909083,
                "tempo": 120.0
            },
            {
                "start_time": 15.536363636363635,
                "end_time": 15.670454545454545,
                "pitch": 84,
                "velocity": 51,
                "duration": 0.1340909090909097,
                "tempo": 120.0
            },
            {
                "start_time": 15.686363636363636,
                "end_time": 15.786363636363635,
                "pitch": 84,
                "velocity": 51,
                "duration": 0.09999999999999964,
                "tempo": 120.0
            },
            {
                "start_time": 16.138636363636362,
                "end_time": 16.425,
                "pitch": 84,
                "velocity": 51,
                "duration": 0.2863636363636388,
                "tempo": 120.0
            },
            {
                "start_time": 16.443181818181817,
                "end_time": 16.575,
                "pitch": 82,
                "velocity": 51,
                "duration": 0.13181818181818272,
                "tempo": 120.0
            },
            {
                "start_time": 16.59318181818182,
                "end_time": 17.025,
                "pitch": 81,
                "velocity": 51,
                "duration": 0.4318181818181799,
                "tempo": 120.0
            },
            {
                "start_time": 17.043181818181818,
                "end_time": 17.325,
                "pitch": 86,
                "velocity": 51,
                "duration": 0.2818181818181813,
                "tempo": 120.0
            },
            {
                "start_time": 17.34318181818182,
                "end_time": 17.35909090909091,
                "pitch": 86,
                "velocity": 51,
                "duration": 0.01590909090909065,
                "tempo": 120.0
            },
            {
                "start_time": 17.375,
                "end_time": 17.625,
                "pitch": 87,
                "velocity": 51,
                "duration": 0.25,
                "tempo": 120.0
            },
            {
                "start_time": 17.643181818181816,
                "end_time": 17.659090909090907,
                "pitch": 86,
                "velocity": 51,
                "duration": 0.01590909090909065,
                "tempo": 120.0
            },
            {
                "start_time": 17.675,
                "end_time": 17.777272727272727,
                "pitch": 87,
                "velocity": 51,
                "duration": 0.10227272727272663,
                "tempo": 120.0
            },
            {
                "start_time": 17.793181818181818,
                "end_time": 19.138636363636362,
                "pitch": 86,
                "velocity": 51,
                "duration": 1.345454545454544,
                "tempo": 120.0
            },
            {
                "start_time": 19.154545454545453,
                "end_time": 19.288636363636364,
                "pitch": 87,
                "velocity": 51,
                "duration": 0.13409090909091148,
                "tempo": 120.0
            },
            {
                "start_time": 19.304545454545455,
                "end_time": 19.58863636363636,
                "pitch": 87,
                "velocity": 51,
                "duration": 0.2840909090909065,
                "tempo": 120.0
            },
            {
                "start_time": 19.60681818181818,
                "end_time": 19.74090909090909,
                "pitch": 87,
                "velocity": 51,
                "duration": 0.13409090909090793,
                "tempo": 120.0
            },
            {
                "start_time": 19.75681818181818,
                "end_time": 20.043181818181818,
                "pitch": 87,
                "velocity": 51,
                "duration": 0.2863636363636388,
                "tempo": 120.0
            },
            {
                "start_time": 20.061363636363634,
                "end_time": 20.193181818181817,
                "pitch": 87,
                "velocity": 51,
                "duration": 0.13181818181818272,
                "tempo": 120.0
            },
            {
                "start_time": 20.211363636363636,
                "end_time": 20.493181818181817,
                "pitch": 87,
                "velocity": 51,
                "duration": 0.2818181818181813,
                "tempo": 120.0
            },
            {
                "start_time": 20.511363636363637,
                "end_time": 20.643181818181816,
                "pitch": 87,
                "velocity": 51,
                "duration": 0.13181818181817917,
                "tempo": 120.0
            },
            {
                "start_time": 20.661363636363635,
                "end_time": 20.94772727272727,
                "pitch": 87,
                "velocity": 51,
                "duration": 0.28636363636363527,
                "tempo": 120.0
            },
            {
                "start_time": 20.96363636363636,
                "end_time": 21.097727272727273,
                "pitch": 87,
                "velocity": 51,
                "duration": 0.13409090909091148,
                "tempo": 120.0
            },
            {
                "start_time": 21.11590909090909,
                "end_time": 21.402272727272727,
                "pitch": 86,
                "velocity": 51,
                "duration": 0.2863636363636388,
                "tempo": 120.0
            },
            {
                "start_time": 21.418181818181818,
                "end_time": 21.85681818181818,
                "pitch": 84,
                "velocity": 51,
                "duration": 0.4386363636363626,
                "tempo": 120.0
            },
            {
                "start_time": 21.87272727272727,
                "end_time": 22.15681818181818,
                "pitch": 84,
                "velocity": 51,
                "duration": 0.28409090909091006,
                "tempo": 120.0
            },
            {
                "start_time": 22.172727272727272,
                "end_time": 22.456818181818182,
                "pitch": 84,
                "velocity": 51,
                "duration": 0.28409090909091006,
                "tempo": 120.0
            },
            {
                "start_time": 22.472727272727273,
                "end_time": 22.60681818181818,
                "pitch": 82,
                "velocity": 51,
                "duration": 0.13409090909090793,
                "tempo": 120.0
            },
            {
                "start_time": 22.625,
                "end_time": 23.511363636363637,
                "pitch": 84,
                "velocity": 51,
                "duration": 0.8863636363636367,
                "tempo": 120.0
            },
            {
                "start_time": 23.529545454545453,
                "end_time": 23.661363636363635,
                "pitch": 84,
                "velocity": 51,
                "duration": 0.13181818181818272,
                "tempo": 120.0
            },
            {
                "start_time": 23.679545454545455,
                "end_time": 23.813636363636363,
                "pitch": 82,
                "velocity": 51,
                "duration": 0.13409090909090793,
                "tempo": 120.0
            },
            {
                "start_time": 23.829545454545453,
                "end_time": 23.96590909090909,
                "pitch": 81,
                "velocity": 51,
                "duration": 0.1363636363636367,
                "tempo": 120.0
            },
            {
                "start_time": 23.98181818181818,
                "end_time": 24.420454545454543,
                "pitch": 82,
                "velocity": 51,
                "duration": 0.4386363636363626,
                "tempo": 120.0
            },
            {
                "start_time": 24.436363636363634,
                "end_time": 24.570454545454545,
                "pitch": 81,
                "velocity": 51,
                "duration": 0.13409090909091148,
                "tempo": 120.0
            },
            {
                "start_time": 24.58863636363636,
                "end_time": 25.174999999999997,
                "pitch": 81,
                "velocity": 51,
                "duration": 0.586363636363636,
                "tempo": 120.0
            },
            {
                "start_time": 25.19090909090909,
                "end_time": 25.325,
                "pitch": 84,
                "velocity": 51,
                "duration": 0.13409090909090793,
                "tempo": 120.0
            },
            {
                "start_time": 25.34090909090909,
                "end_time": 25.375,
                "pitch": 82,
                "velocity": 51,
                "duration": 0.03409090909091006,
                "tempo": 120.0
            },
            {
                "start_time": 25.727272727272727,
                "end_time": 25.827272727272724,
                "pitch": 84,
                "velocity": 51,
                "duration": 0.09999999999999787,
                "tempo": 120.0
            },
            {
                "start_time": 26.69772727272727,
                "end_time": 26.977272727272727,
                "pitch": 86,
                "velocity": 51,
                "duration": 0.2795454545454561,
                "tempo": 120.0
            },
            {
                "start_time": 26.993181818181817,
                "end_time": 27.275,
                "pitch": 86,
                "velocity": 51,
                "duration": 0.2818181818181813,
                "tempo": 120.0
            },
            {
                "start_time": 27.29090909090909,
                "end_time": 27.579545454545453,
                "pitch": 86,
                "velocity": 51,
                "duration": 0.288636363636364,
                "tempo": 120.0
            },
            {
                "start_time": 27.597727272727273,
                "end_time": 27.886363636363637,
                "pitch": 91,
                "velocity": 51,
                "duration": 0.288636363636364,
                "tempo": 120.0
            },
            {
                "start_time": 27.902272727272727,
                "end_time": 28.78863636363636,
                "pitch": 91,
                "velocity": 51,
                "duration": 0.8863636363636331,
                "tempo": 120.0
            },
            {
                "start_time": 28.80681818181818,
                "end_time": 28.940909090909088,
                "pitch": 87,
                "velocity": 51,
                "duration": 0.13409090909090793,
                "tempo": 120.0
            },
            {
                "start_time": 28.956818181818182,
                "end_time": 29.243181818181817,
                "pitch": 87,
                "velocity": 51,
                "duration": 0.28636363636363527,
                "tempo": 120.0
            },
            {
                "start_time": 29.259090909090908,
                "end_time": 29.393181818181816,
                "pitch": 87,
                "velocity": 51,
                "duration": 0.13409090909090793,
                "tempo": 120.0
            },
            {
                "start_time": 29.409090909090907,
                "end_time": 29.693181818181817,
                "pitch": 87,
                "velocity": 51,
                "duration": 0.28409090909091006,
                "tempo": 120.0
            },
            {
                "start_time": 29.709090909090907,
                "end_time": 29.843181818181815,
                "pitch": 87,
                "velocity": 51,
                "duration": 0.13409090909090793,
                "tempo": 120.0
            },
            {
                "start_time": 29.861363636363635,
                "end_time": 30.14772727272727,
                "pitch": 87,
                "velocity": 51,
                "duration": 0.28636363636363527,
                "tempo": 120.0
            },
            {
                "start_time": 30.16363636363636,
                "end_time": 30.297727272727272,
                "pitch": 87,
                "velocity": 51,
                "duration": 0.13409090909091148,
                "tempo": 120.0
            },
            {
                "start_time": 30.315909090909088,
                "end_time": 30.602272727272727,
                "pitch": 87,
                "velocity": 51,
                "duration": 0.2863636363636388,
                "tempo": 120.0
            },
            {
                "start_time": 30.618181818181817,
                "end_time": 30.752272727272725,
                "pitch": 87,
                "velocity": 51,
                "duration": 0.13409090909090793,
                "tempo": 120.0
            },
            {
                "start_time": 30.770454545454545,
                "end_time": 31.054545454545455,
                "pitch": 86,
                "velocity": 51,
                "duration": 0.28409090909091006,
                "tempo": 120.0
            },
            {
                "start_time": 31.070454545454545,
                "end_time": 31.504545454545454,
                "pitch": 84,
                "velocity": 51,
                "duration": 0.43409090909090864,
                "tempo": 120.0
            },
            {
                "start_time": 31.520454545454545,
                "end_time": 31.80681818181818,
                "pitch": 84,
                "velocity": 51,
                "duration": 0.28636363636363527,
                "tempo": 120.0
            },
            {
                "start_time": 31.825,
                "end_time": 32.111363636363635,
                "pitch": 84,
                "velocity": 51,
                "duration": 0.28636363636363527,
                "tempo": 120.0
            },
            {
                "start_time": 32.127272727272725,
                "end_time": 32.26136363636363,
                "pitch": 82,
                "velocity": 51,
                "duration": 0.13409090909090793,
                "tempo": 120.0
            },
            {
                "start_time": 32.277272727272724,
                "end_time": 33.16590909090909,
                "pitch": 84,
                "velocity": 51,
                "duration": 0.8886363636363654,
                "tempo": 120.0
            },
            {
                "start_time": 33.18181818181818,
                "end_time": 33.31590909090909,
                "pitch": 84,
                "velocity": 51,
                "duration": 0.13409090909090793,
                "tempo": 120.0
            },
            {
                "start_time": 33.33409090909091,
                "end_time": 33.46818181818182,
                "pitch": 82,
                "velocity": 51,
                "duration": 0.13409090909090793,
                "tempo": 120.0
            },
            {
                "start_time": 33.48409090909091,
                "end_time": 33.62045454545454,
                "pitch": 81,
                "velocity": 51,
                "duration": 0.13636363636363313,
                "tempo": 120.0
            },
            {
                "start_time": 33.63636363636363,
                "end_time": 34.074999999999996,
                "pitch": 82,
                "velocity": 51,
                "duration": 0.4386363636363626,
                "tempo": 120.0
            },
            {
                "start_time": 34.090909090909086,
                "end_time": 34.225,
                "pitch": 81,
                "velocity": 51,
                "duration": 0.13409090909091503,
                "tempo": 120.0
            },
            {
                "start_time": 34.24318181818182,
                "end_time": 34.82954545454545,
                "pitch": 81,
                "velocity": 51,
                "duration": 0.586363636363636,
                "tempo": 120.0
            },
            {
                "start_time": 34.845454545454544,
                "end_time": 34.97954545454545,
                "pitch": 84,
                "velocity": 51,
                "duration": 0.13409090909090793,
                "tempo": 120.0
            },
            {
                "start_time": 34.99545454545454,
                "end_time": 35.029545454545456,
                "pitch": 82,
                "velocity": 51,
                "duration": 0.03409090909091361,
                "tempo": 120.0
            },
            {
                "start_time": 35.38181818181818,
                "end_time": 35.48181818181818,
                "pitch": 84,
                "velocity": 51,
                "duration": 0.09999999999999432,
                "tempo": 120.0
            },
            {
                "start_time": 36.35681818181818,
                "end_time": 36.63863636363636,
                "pitch": 86,
                "velocity": 51,
                "duration": 0.2818181818181813,
                "tempo": 120.0
            },
            {
                "start_time": 36.654545454545456,
                "end_time": 36.934090909090905,
                "pitch": 86,
                "velocity": 51,
                "duration": 0.279545454545449,
                "tempo": 120.0
            },
            {
                "start_time": 36.95227272727273,
                "end_time": 37.24090909090909,
                "pitch": 86,
                "velocity": 51,
                "duration": 0.288636363636364,
                "tempo": 120.0
            },
            {
                "start_time": 37.25681818181818,
                "end_time": 37.54772727272727,
                "pitch": 91,
                "velocity": 51,
                "duration": 0.29090909090908923,
                "tempo": 120.0
            },
            {
                "start_time": 37.56363636363636,
                "end_time": 38.163636363636364,
                "pitch": 91,
                "velocity": 51,
                "duration": 0.6000000000000014,
                "tempo": 120.0
            }
        ],
        "Vibraphone": [
            {
                "start_time": 0.004545454545454545,
                "end_time": 0.07272727272727272,
                "pitch": 93,
                "velocity": 40,
                "duration": 0.06818181818181818,
                "tempo": 120.0
            },
            {
                "start_time": 0.08409090909090909,
                "end_time": 0.1159090909090909,
                "pitch": 89,
                "velocity": 40,
                "duration": 0.031818181818181815,
                "tempo": 120.0
            },
            {
                "start_time": 0.13863636363636364,
                "end_time": 0.17272727272727273,
                "pitch": 84,
                "velocity": 40,
                "duration": 0.03409090909090909,
                "tempo": 120.0
            },
            {
                "start_time": 0.18409090909090908,
                "end_time": 0.3159090909090909,
                "pitch": 93,
                "velocity": 40,
                "duration": 0.13181818181818183,
                "tempo": 120.0
            },
            {
                "start_time": 0.33409090909090905,
                "end_time": 0.3840909090909091,
                "pitch": 89,
                "velocity": 40,
                "duration": 0.050000000000000044,
                "tempo": 120.0
            },
            {
                "start_time": 0.41818181818181815,
                "end_time": 0.46818181818181814,
                "pitch": 84,
                "velocity": 40,
                "duration": 0.04999999999999999,
                "tempo": 120.0
            },
            {
                "start_time": 0.48409090909090907,
                "end_time": 0.6204545454545454,
                "pitch": 93,
                "velocity": 40,
                "duration": 0.1363636363636363,
                "tempo": 120.0
            },
            {
                "start_time": 0.6363636363636364,
                "end_time": 0.6863636363636363,
                "pitch": 89,
                "velocity": 40,
                "duration": 0.04999999999999993,
                "tempo": 120.0
            },
            {
                "start_time": 0.7204545454545455,
                "end_time": 0.7363636363636363,
                "pitch": 84,
                "velocity": 40,
                "duration": 0.015909090909090873,
                "tempo": 120.0
            },
            {
                "start_time": 0.7704545454545454,
                "end_time": 0.8886363636363636,
                "pitch": 93,
                "velocity": 40,
                "duration": 0.11818181818181817,
                "tempo": 120.0
            },
            {
                "start_time": 0.9204545454545454,
                "end_time": 0.9704545454545455,
                "pitch": 89,
                "velocity": 40,
                "duration": 0.050000000000000044,
                "tempo": 120.0
            },
            {
                "start_time": 0.9886363636363635,
                "end_time": 1.0704545454545453,
                "pitch": 84,
                "velocity": 40,
                "duration": 0.08181818181818179,
                "tempo": 120.0
            },
            {
                "start_time": 1.0886363636363636,
                "end_time": 1.1886363636363635,
                "pitch": 93,
                "velocity": 40,
                "duration": 0.09999999999999987,
                "tempo": 120.0
            },
            {
                "start_time": 1.2204545454545455,
                "end_time": 1.2886363636363636,
                "pitch": 89,
                "velocity": 40,
                "duration": 0.06818181818181812,
                "tempo": 120.0
            },
            {
                "start_time": 1.3204545454545453,
                "end_time": 1.3704545454545454,
                "pitch": 84,
                "velocity": 40,
                "duration": 0.050000000000000044,
                "tempo": 120.0
            },
            {
                "start_time": 1.3886363636363637,
                "end_time": 1.5204545454545453,
                "pitch": 93,
                "velocity": 40,
                "duration": 0.1318181818181816,
                "tempo": 120.0
            },
            {
                "start_time": 1.5386363636363636,
                "end_time": 1.5886363636363636,
                "pitch": 89,
                "velocity": 40,
                "duration": 0.050000000000000044,
                "tempo": 120.0
            },
            {
                "start_time": 1.6204545454545454,
                "end_time": 1.6704545454545454,
                "pitch": 84,
                "velocity": 40,
                "duration": 0.050000000000000044,
                "tempo": 120.0
            },
            {
                "start_time": 1.6886363636363635,
                "end_time": 1.8204545454545453,
                "pitch": 93,
                "velocity": 40,
                "duration": 0.13181818181818183,
                "tempo": 120.0
            },
            {
                "start_time": 1.8386363636363636,
                "end_time": 1.8886363636363634,
                "pitch": 89,
                "velocity": 40,
                "duration": 0.04999999999999982,
                "tempo": 120.0
            },
            {
                "start_time": 1.9204545454545454,
                "end_time": 1.9704545454545455,
                "pitch": 84,
                "velocity": 40,
                "duration": 0.050000000000000044,
                "tempo": 120.0
            },
            {
                "start_time": 1.9886363636363635,
                "end_time": 2.1227272727272726,
                "pitch": 93,
                "velocity": 40,
                "duration": 0.13409090909090904,
                "tempo": 120.0
            },
            {
                "start_time": 2.1386363636363637,
                "end_time": 2.190909090909091,
                "pitch": 89,
                "velocity": 40,
                "duration": 0.05227272727272725,
                "tempo": 120.0
            },
            {
                "start_time": 2.2227272727272727,
                "end_time": 2.275,
                "pitch": 84,
                "velocity": 40,
                "duration": 0.05227272727272725,
                "tempo": 120.0
            },
            {
                "start_time": 2.290909090909091,
                "end_time": 2.425,
                "pitch": 91,
                "velocity": 40,
                "duration": 0.13409090909090882,
                "tempo": 120.0
            },
            {
                "start_time": 2.443181818181818,
                "end_time": 2.475,
                "pitch": 87,
                "velocity": 40,
                "duration": 0.03181818181818219,
                "tempo": 120.0
            },
            {
                "start_time": 2.493181818181818,
                "end_time": 2.577272727272727,
                "pitch": 82,
                "velocity": 40,
                "duration": 0.084090909090909,
                "tempo": 120.0
            },
            {
                "start_time": 2.5931818181818183,
                "end_time": 2.7295454545454545,
                "pitch": 91,
                "velocity": 40,
                "duration": 0.13636363636363624,
                "tempo": 120.0
            },
            {
                "start_time": 2.745454545454545,
                "end_time": 2.7954545454545454,
                "pitch": 87,
                "velocity": 40,
                "duration": 0.050000000000000266,
                "tempo": 120.0
            },
            {
                "start_time": 2.8295454545454546,
                "end_time": 2.8795454545454544,
                "pitch": 82,
                "velocity": 40,
                "duration": 0.04999999999999982,
                "tempo": 120.0
            },
            {
                "start_time": 2.8977272727272725,
                "end_time": 3.0318181818181817,
                "pitch": 91,
                "velocity": 40,
                "duration": 0.13409090909090926,
                "tempo": 120.0
            },
            {
                "start_time": 3.0477272727272724,
                "end_time": 3.0818181818181816,
                "pitch": 87,
                "velocity": 40,
                "duration": 0.03409090909090917,
                "tempo": 120.0
            },
            {
                "start_time": 3.0999999999999996,
                "end_time": 3.184090909090909,
                "pitch": 82,
                "velocity": 40,
                "duration": 0.08409090909090944,
                "tempo": 120.0
            },
            {
                "start_time": 3.1999999999999997,
                "end_time": 3.334090909090909,
                "pitch": 91,
                "velocity": 40,
                "duration": 0.13409090909090926,
                "tempo": 120.0
            },
            {
                "start_time": 3.3499999999999996,
                "end_time": 3.4,
                "pitch": 87,
                "velocity": 40,
                "duration": 0.050000000000000266,
                "tempo": 120.0
            },
            {
                "start_time": 3.434090909090909,
                "end_time": 3.484090909090909,
                "pitch": 82,
                "velocity": 40,
                "duration": 0.04999999999999982,
                "tempo": 120.0
            },
            {
                "start_time": 3.5,
                "end_time": 3.5999999999999996,
                "pitch": 91,
                "velocity": 40,
                "duration": 0.09999999999999964,
                "tempo": 120.0
            },
            {
                "start_time": 3.634090909090909,
                "end_time": 3.6999999999999997,
                "pitch": 87,
                "velocity": 40,
                "duration": 0.06590909090909092,
                "tempo": 120.0
            },
            {
                "start_time": 3.734090909090909,
                "end_time": 3.75,
                "pitch": 82,
                "velocity": 40,
                "duration": 0.015909090909091095,
                "tempo": 120.0
            },
            {
                "start_time": 3.7840909090909087,
                "end_time": 3.9,
                "pitch": 91,
                "velocity": 40,
                "duration": 0.11590909090909118,
                "tempo": 120.0
            },
            {
                "start_time": 3.934090909090909,
                "end_time": 4.002272727272727,
                "pitch": 87,
                "velocity": 40,
                "duration": 0.0681818181818179,
                "tempo": 120.0
            },
            {
                "start_time": 4.036363636363636,
                "end_time": 4.052272727272727,
                "pitch": 82,
                "velocity": 40,
                "duration": 0.01590909090909065,
                "tempo": 120.0
            },
            {
                "start_time": 4.086363636363636,
                "end_time": 4.204545454545454,
                "pitch": 91,
                "velocity": 40,
                "duration": 0.11818181818181817,
                "tempo": 120.0
            },
            {
                "start_time": 4.238636363636363,
                "end_time": 4.304545454545455,
                "pitch": 87,
                "velocity": 40,
                "duration": 0.06590909090909136,
                "tempo": 120.0
            },
            {
                "start_time": 4.338636363636364,
                "end_time": 4.3545454545454545,
                "pitch": 82,
                "velocity": 40,
                "duration": 0.01590909090909065,
                "tempo": 120.0
            },
            {
                "start_time": 4.388636363636364,
                "end_time": 4.506818181818182,
                "pitch": 87,
                "velocity": 40,
                "duration": 0.11818181818181817,
                "tempo": 120.0
            },
            {
                "start_time": 4.540909090909091,
                "end_time": 4.693181818181818,
                "pitch": 91,
                "velocity": 40,
                "duration": 0.15227272727272734,
                "tempo": 120.0
            },
            {
                "start_time": 4.709090909090909,
                "end_time": 4.843181818181818,
                "pitch": 93,
                "velocity": 40,
                "duration": 0.13409090909090882,
                "tempo": 120.0
            },
            {
                "start_time": 4.861363636363636,
                "end_time": 4.911363636363636,
                "pitch": 89,
                "velocity": 40,
                "duration": 0.04999999999999982,
                "tempo": 120.0
            },
            {
                "start_time": 4.945454545454545,
                "end_time": 4.995454545454545,
                "pitch": 84,
                "velocity": 40,
                "duration": 0.04999999999999982,
                "tempo": 120.0
            },
            {
                "start_time": 5.011363636363636,
                "end_time": 5.1454545454545455,
                "pitch": 93,
                "velocity": 40,
                "duration": 0.1340909090909097,
                "tempo": 120.0
            },
            {
                "start_time": 5.161363636363636,
                "end_time": 5.211363636363636,
                "pitch": 89,
                "velocity": 40,
                "duration": 0.04999999999999982,
                "tempo": 120.0
            },
            {
                "start_time": 5.245454545454545,
                "end_time": 5.295454545454545,
                "pitch": 84,
                "velocity": 40,
                "duration": 0.04999999999999982,
                "tempo": 120.0
            },
            {
                "start_time": 5.3113636363636365,
                "end_time": 5.445454545454545,
                "pitch": 93,
                "velocity": 40,
                "duration": 0.13409090909090882,
                "tempo": 120.0
            },
            {
                "start_time": 5.461363636363636,
                "end_time": 5.511363636363636,
                "pitch": 89,
                "velocity": 40,
                "duration": 0.04999999999999982,
                "tempo": 120.0
            },
            {
                "start_time": 5.545454545454545,
                "end_time": 5.611363636363636,
                "pitch": 84,
                "velocity": 40,
                "duration": 0.06590909090909136,
                "tempo": 120.0
            },
            {
                "start_time": 5.6454545454545455,
                "end_time": 5.745454545454545,
                "pitch": 93,
                "velocity": 40,
                "duration": 0.09999999999999964,
                "tempo": 120.0
            },
            {
                "start_time": 5.761363636363636,
                "end_time": 5.8113636363636365,
                "pitch": 89,
                "velocity": 40,
                "duration": 0.05000000000000071,
                "tempo": 120.0
            },
            {
                "start_time": 5.845454545454545,
                "end_time": 5.8954545454545455,
                "pitch": 84,
                "velocity": 40,
                "duration": 0.05000000000000071,
                "tempo": 120.0
            },
            {
                "start_time": 5.911363636363636,
                "end_time": 6.0613636363636365,
                "pitch": 93,
                "velocity": 40,
                "duration": 0.15000000000000036,
                "tempo": 120.0
            },
            {
                "start_time": 6.095454545454545,
                "end_time": 6.1454545454545455,
                "pitch": 89,
                "velocity": 40,
                "duration": 0.05000000000000071,
                "tempo": 120.0
            },
            {
                "start_time": 6.161363636363636,
                "end_time": 6.195454545454545,
                "pitch": 84,
                "velocity": 40,
                "duration": 0.03409090909090917,
                "tempo": 120.0
            },
            {
                "start_time": 6.211363636363636,
                "end_time": 6.347727272727273,
                "pitch": 93,
                "velocity": 40,
                "duration": 0.1363636363636367,
                "tempo": 120.0
            },
            {
                "start_time": 6.363636363636363,
                "end_time": 6.413636363636363,
                "pitch": 89,
                "velocity": 40,
                "duration": 0.04999999999999982,
                "tempo": 120.0
            },
            {
                "start_time": 6.447727272727272,
                "end_time": 6.497727272727272,
                "pitch": 84,
                "velocity": 40,
                "duration": 0.04999999999999982,
                "tempo": 120.0
            },
            {
                "start_time": 6.515909090909091,
                "end_time": 6.6499999999999995,
                "pitch": 93,
                "velocity": 40,
                "duration": 0.13409090909090882,
                "tempo": 120.0
            },
            {
                "start_time": 6.665909090909091,
                "end_time": 6.718181818181818,
                "pitch": 89,
                "velocity": 40,
                "duration": 0.052272727272726804,
                "tempo": 120.0
            },
            {
                "start_time": 6.75,
                "end_time": 6.802272727272727,
                "pitch": 84,
                "velocity": 40,
                "duration": 0.052272727272726804,
                "tempo": 120.0
            },
            {
                "start_time": 6.8181818181818175,
                "end_time": 6.952272727272727,
                "pitch": 93,
                "velocity": 40,
                "duration": 0.1340909090909097,
                "tempo": 120.0
            },
            {
                "start_time": 6.968181818181818,
                "end_time": 7.018181818181818,
                "pitch": 89,
                "velocity": 40,
                "duration": 0.04999999999999982,
                "tempo": 120.0
            },
            {
                "start_time": 7.052272727272727,
                "end_time": 7.102272727272727,
                "pitch": 84,
                "velocity": 40,
                "duration": 0.04999999999999982,
                "tempo": 120.0
            },
            {
                "start_time": 7.118181818181818,
                "end_time": 7.252272727272727,
                "pitch": 91,
                "velocity": 40,
                "duration": 0.13409090909090882,
                "tempo": 120.0
            },
            {
                "start_time": 7.268181818181818,
                "end_time": 7.302272727272727,
                "pitch": 87,
                "velocity": 40,
                "duration": 0.03409090909090917,
                "tempo": 120.0
            },
            {
                "start_time": 7.3181818181818175,
                "end_time": 7.402272727272727,
                "pitch": 82,
                "velocity": 40,
                "duration": 0.08409090909090988,
                "tempo": 120.0
            },
            {
                "start_time": 7.418181818181818,
                "end_time": 7.552272727272727,
                "pitch": 91,
                "velocity": 40,
                "duration": 0.13409090909090882,
                "tempo": 120.0
            },
            {
                "start_time": 7.570454545454545,
                "end_time": 7.620454545454545,
                "pitch": 87,
                "velocity": 40,
                "duration": 0.04999999999999982,
                "tempo": 120.0
            },
            {
                "start_time": 7.654545454545454,
                "end_time": 7.704545454545454,
                "pitch": 82,
                "velocity": 40,
                "duration": 0.04999999999999982,
                "tempo": 120.0
            },
            {
                "start_time": 7.720454545454545,
                "end_time": 7.872727272727272,
                "pitch": 91,
                "velocity": 40,
                "duration": 0.15227272727272734,
                "tempo": 120.0
            },
            {
                "start_time": 7.906818181818181,
                "end_time": 7.922727272727272,
                "pitch": 87,
                "velocity": 40,
                "duration": 0.01590909090909065,
                "tempo": 120.0
            },
            {
                "start_time": 7.922727272727272,
                "end_time": 8.006818181818181,
                "pitch": 82,
                "velocity": 40,
                "duration": 0.084090909090909,
                "tempo": 120.0
            },
            {
                "start_time": 8.025,
                "end_time": 8.156818181818181,
                "pitch": 91,
                "velocity": 40,
                "duration": 0.13181818181818095,
                "tempo": 120.0
            },
            {
                "start_time": 8.174999999999999,
                "end_time": 8.225,
                "pitch": 87,
                "velocity": 40,
                "duration": 0.05000000000000071,
                "tempo": 120.0
            },
            {
                "start_time": 8.256818181818181,
                "end_time": 8.306818181818182,
                "pitch": 82,
                "velocity": 40,
                "duration": 0.05000000000000071,
                "tempo": 120.0
            },
            {
                "start_time": 8.325,
                "end_time": 8.424999999999999,
                "pitch": 91,
                "velocity": 40,
                "duration": 0.09999999999999964,
                "tempo": 120.0
            },
            {
                "start_time": 8.456818181818182,
                "end_time": 8.575,
                "pitch": 87,
                "velocity": 40,
                "duration": 0.11818181818181728,
                "tempo": 120.0
            },
            {
                "start_time": 8.60681818181818,
                "end_time": 8.725,
                "pitch": 82,
                "velocity": 40,
                "duration": 0.11818181818181905,
                "tempo": 120.0
            },
            {
                "start_time": 8.756818181818181,
                "end_time": 8.85681818181818,
                "pitch": 87,
                "velocity": 40,
                "duration": 0.09999999999999964,
                "tempo": 120.0
            },
            {
                "start_time": 8.875,
                "end_time": 9.006818181818181,
                "pitch": 91,
                "velocity": 40,
                "duration": 0.13181818181818095,
                "tempo": 120.0
            },
            {
                "start_time": 9.025,
                "end_time": 9.174999999999999,
                "pitch": 87,
                "velocity": 40,
                "duration": 0.14999999999999858,
                "tempo": 120.0
            },
            {
                "start_time": 9.206818181818182,
                "end_time": 9.325,
                "pitch": 82,
                "velocity": 40,
                "duration": 0.11818181818181728,
                "tempo": 120.0
            },
            {
                "start_time": 9.35681818181818,
                "end_time": 9.475,
                "pitch": 91,
                "velocity": 40,
                "duration": 0.11818181818181905,
                "tempo": 120.0
            },
            {
                "start_time": 9.506818181818181,
                "end_time": 9.625,
                "pitch": 93,
                "velocity": 40,
                "duration": 0.11818181818181905,
                "tempo": 120.0
            },
            {
                "start_time": 9.656818181818181,
                "end_time": 9.706818181818182,
                "pitch": 89,
                "velocity": 40,
                "duration": 0.05000000000000071,
                "tempo": 120.0
            },
            {
                "start_time": 9.725,
                "end_time": 9.775,
                "pitch": 84,
                "velocity": 40,
                "duration": 0.05000000000000071,
                "tempo": 120.0
            },
            {
                "start_time": 9.806818181818182,
                "end_time": 9.959090909090909,
                "pitch": 93,
                "velocity": 40,
                "duration": 0.15227272727272734,
                "tempo": 120.0
            },
            {
                "start_time": 9.975,
                "end_time": 10.027272727272727,
                "pitch": 89,
                "velocity": 40,
                "duration": 0.05227272727272769,
                "tempo": 120.0
            },
            {
                "start_time": 10.059090909090909,
                "end_time": 10.111363636363636,
                "pitch": 84,
                "velocity": 40,
                "duration": 0.05227272727272769,
                "tempo": 120.0
            },
            {
                "start_time": 10.127272727272727,
                "end_time": 10.261363636363637,
                "pitch": 93,
                "velocity": 40,
                "duration": 0.1340909090909097,
                "tempo": 120.0
            },
            {
                "start_time": 10.279545454545454,
                "end_time": 10.329545454545453,
                "pitch": 89,
                "velocity": 40,
                "duration": 0.049999999999998934,
                "tempo": 120.0
            },
            {
                "start_time": 10.363636363636363,
                "end_time": 10.429545454545455,
                "pitch": 84,
                "velocity": 40,
                "duration": 0.06590909090909136,
                "tempo": 120.0
            },
            {
                "start_time": 10.463636363636363,
                "end_time": 10.563636363636363,
                "pitch": 93,
                "velocity": 40,
                "duration": 0.09999999999999964,
                "tempo": 120.0
            },
            {
                "start_time": 10.579545454545453,
                "end_time": 10.629545454545454,
                "pitch": 89,
                "velocity": 40,
                "duration": 0.05000000000000071,
                "tempo": 120.0
            },
            {
                "start_time": 10.663636363636362,
                "end_time": 10.713636363636363,
                "pitch": 84,
                "velocity": 40,
                "duration": 0.05000000000000071,
                "tempo": 120.0
            },
            {
                "start_time": 10.729545454545454,
                "end_time": 10.863636363636363,
                "pitch": 93,
                "velocity": 40,
                "duration": 0.1340909090909097,
                "tempo": 120.0
            },
            {
                "start_time": 10.879545454545454,
                "end_time": 10.929545454545455,
                "pitch": 89,
                "velocity": 40,
                "duration": 0.05000000000000071,
                "tempo": 120.0
            },
            {
                "start_time": 10.963636363636363,
                "end_time": 11.029545454545454,
                "pitch": 84,
                "velocity": 40,
                "duration": 0.06590909090909136,
                "tempo": 120.0
            },
            {
                "start_time": 11.063636363636363,
                "end_time": 11.163636363636362,
                "pitch": 93,
                "velocity": 40,
                "duration": 0.09999999999999964,
                "tempo": 120.0
            },
            {
                "start_time": 11.179545454545455,
                "end_time": 11.229545454545454,
                "pitch": 89,
                "velocity": 40,
                "duration": 0.049999999999998934,
                "tempo": 120.0
            },
            {
                "start_time": 11.263636363636364,
                "end_time": 11.279545454545454,
                "pitch": 84,
                "velocity": 40,
                "duration": 0.01590909090909065,
                "tempo": 120.0
            },
            {
                "start_time": 11.313636363636363,
                "end_time": 11.429545454545455,
                "pitch": 93,
                "velocity": 40,
                "duration": 0.11590909090909207,
                "tempo": 120.0
            },
            {
                "start_time": 11.463636363636363,
                "end_time": 11.529545454545454,
                "pitch": 89,
                "velocity": 40,
                "duration": 0.06590909090909136,
                "tempo": 120.0
            },
            {
                "start_time": 11.563636363636363,
                "end_time": 11.579545454545453,
                "pitch": 84,
                "velocity": 40,
                "duration": 0.01590909090909065,
                "tempo": 120.0
            },
            {
                "start_time": 11.613636363636363,
                "end_time": 11.763636363636364,
                "pitch": 93,
                "velocity": 40,
                "duration": 0.15000000000000036,
                "tempo": 120.0
            },
            {
                "start_time": 11.779545454545454,
                "end_time": 11.829545454545453,
                "pitch": 89,
                "velocity": 40,
                "duration": 0.049999999999998934,
                "tempo": 120.0
            },
            {
                "start_time": 11.863636363636363,
                "end_time": 11.879545454545454,
                "pitch": 84,
                "velocity": 40,
                "duration": 0.01590909090909065,
                "tempo": 120.0
            },
            {
                "start_time": 11.913636363636362,
                "end_time": 12.063636363636363,
                "pitch": 91,
                "velocity": 40,
                "duration": 0.15000000000000036,
                "tempo": 120.0
            },
            {
                "start_time": 12.079545454545453,
                "end_time": 12.113636363636363,
                "pitch": 87,
                "velocity": 40,
                "duration": 0.03409090909091006,
                "tempo": 120.0
            },
            {
                "start_time": 12.129545454545454,
                "end_time": 12.213636363636363,
                "pitch": 82,
                "velocity": 40,
                "duration": 0.084090909090909,
                "tempo": 120.0
            },
            {
                "start_time": 12.229545454545454,
                "end_time": 12.363636363636363,
                "pitch": 91,
                "velocity": 40,
                "duration": 0.1340909090909097,
                "tempo": 120.0
            },
            {
                "start_time": 12.379545454545454,
                "end_time": 12.429545454545455,
                "pitch": 87,
                "velocity": 40,
                "duration": 0.05000000000000071,
                "tempo": 120.0
            },
            {
                "start_time": 12.463636363636363,
                "end_time": 12.513636363636364,
                "pitch": 82,
                "velocity": 40,
                "duration": 0.05000000000000071,
                "tempo": 120.0
            },
            {
                "start_time": 12.529545454545454,
                "end_time": 12.663636363636362,
                "pitch": 91,
                "velocity": 40,
                "duration": 0.13409090909090793,
                "tempo": 120.0
            },
            {
                "start_time": 12.679545454545455,
                "end_time": 12.729545454545454,
                "pitch": 87,
                "velocity": 40,
                "duration": 0.049999999999998934,
                "tempo": 120.0
            },
            {
                "start_time": 12.763636363636364,
                "end_time": 12.813636363636363,
                "pitch": 82,
                "velocity": 40,
                "duration": 0.049999999999998934,
                "tempo": 120.0
            },
            {
                "start_time": 12.829545454545453,
                "end_time": 12.96590909090909,
                "pitch": 91,
                "velocity": 40,
                "duration": 0.1363636363636367,
                "tempo": 120.0
            },
            {
                "start_time": 12.98181818181818,
                "end_time": 13.031818181818181,
                "pitch": 87,
                "velocity": 40,
                "duration": 0.05000000000000071,
                "tempo": 120.0
            },
            {
                "start_time": 13.06590909090909,
                "end_time": 13.11590909090909,
                "pitch": 82,
                "velocity": 40,
                "duration": 0.05000000000000071,
                "tempo": 120.0
            },
            {
                "start_time": 13.134090909090908,
                "end_time": 13.268181818181818,
                "pitch": 91,
                "velocity": 40,
                "duration": 0.1340909090909097,
                "tempo": 120.0
            },
            {
                "start_time": 13.284090909090908,
                "end_time": 13.336363636363636,
                "pitch": 87,
                "velocity": 40,
                "duration": 0.05227272727272769,
                "tempo": 120.0
            },
            {
                "start_time": 13.368181818181817,
                "end_time": 13.386363636363635,
                "pitch": 82,
                "velocity": 40,
                "duration": 0.018181818181817633,
                "tempo": 120.0
            },
            {
                "start_time": 13.420454545454545,
                "end_time": 13.570454545454545,
                "pitch": 91,
                "velocity": 40,
                "duration": 0.15000000000000036,
                "tempo": 120.0
            },
            {
                "start_time": 13.586363636363636,
                "end_time": 13.636363636363635,
                "pitch": 87,
                "velocity": 40,
                "duration": 0.049999999999998934,
                "tempo": 120.0
            },
            {
                "start_time": 13.670454545454545,
                "end_time": 13.720454545454544,
                "pitch": 82,
                "velocity": 40,
                "duration": 0.049999999999998934,
                "tempo": 120.0
            },
            {
                "start_time": 13.736363636363636,
                "end_time": 13.836363636363636,
                "pitch": 91,
                "velocity": 40,
                "duration": 0.09999999999999964,
                "tempo": 120.0
            },
            {
                "start_time": 13.870454545454544,
                "end_time": 13.986363636363636,
                "pitch": 87,
                "velocity": 40,
                "duration": 0.11590909090909207,
                "tempo": 120.0
            },
            {
                "start_time": 14.020454545454545,
                "end_time": 14.136363636363635,
                "pitch": 82,
                "velocity": 40,
                "duration": 0.1159090909090903,
                "tempo": 120.0
            },
            {
                "start_time": 14.170454545454545,
                "end_time": 14.286363636363635,
                "pitch": 91,
                "velocity": 40,
                "duration": 0.1159090909090903,
                "tempo": 120.0
            },
            {
                "start_time": 14.320454545454545,
                "end_time": 14.436363636363636,
                "pitch": 93,
                "velocity": 40,
                "duration": 0.1159090909090903,
                "tempo": 120.0
            },
            {
                "start_time": 14.470454545454544,
                "end_time": 14.520454545454545,
                "pitch": 89,
                "velocity": 40,
                "duration": 0.05000000000000071,
                "tempo": 120.0
            },
            {
                "start_time": 14.536363636363635,
                "end_time": 14.586363636363636,
                "pitch": 84,
                "velocity": 40,
                "duration": 0.05000000000000071,
                "tempo": 120.0
            },
            {
                "start_time": 14.620454545454544,
                "end_time": 14.770454545454545,
                "pitch": 93,
                "velocity": 40,
                "duration": 0.15000000000000036,
                "tempo": 120.0
            },
            {
                "start_time": 14.786363636363635,
                "end_time": 14.836363636363636,
                "pitch": 89,
                "velocity": 40,
                "duration": 0.05000000000000071,
                "tempo": 120.0
            },
            {
                "start_time": 14.870454545454544,
                "end_time": 14.920454545454545,
                "pitch": 84,
                "velocity": 40,
                "duration": 0.05000000000000071,
                "tempo": 120.0
            },
            {
                "start_time": 14.936363636363636,
                "end_time": 15.070454545454545,
                "pitch": 93,
                "velocity": 40,
                "duration": 0.1340909090909097,
                "tempo": 120.0
            },
            {
                "start_time": 15.086363636363636,
                "end_time": 15.136363636363635,
                "pitch": 89,
                "velocity": 40,
                "duration": 0.049999999999998934,
                "tempo": 120.0
            },
            {
                "start_time": 15.170454545454545,
                "end_time": 15.220454545454544,
                "pitch": 84,
                "velocity": 40,
                "duration": 0.049999999999998934,
                "tempo": 120.0
            },
            {
                "start_time": 15.236363636363636,
                "end_time": 15.370454545454544,
                "pitch": 93,
                "velocity": 40,
                "duration": 0.13409090909090793,
                "tempo": 120.0
            },
            {
                "start_time": 15.386363636363635,
                "end_time": 15.436363636363636,
                "pitch": 89,
                "velocity": 40,
                "duration": 0.05000000000000071,
                "tempo": 120.0
            },
            {
                "start_time": 15.470454545454544,
                "end_time": 15.520454545454545,
                "pitch": 84,
                "velocity": 40,
                "duration": 0.05000000000000071,
                "tempo": 120.0
            },
            {
                "start_time": 15.536363636363635,
                "end_time": 15.670454545454545,
                "pitch": 93,
                "velocity": 40,
                "duration": 0.1340909090909097,
                "tempo": 120.0
            },
            {
                "start_time": 15.686363636363636,
                "end_time": 15.736363636363636,
                "pitch": 89,
                "velocity": 40,
                "duration": 0.05000000000000071,
                "tempo": 120.0
            },
            {
                "start_time": 15.770454545454545,
                "end_time": 15.820454545454545,
                "pitch": 84,
                "velocity": 40,
                "duration": 0.05000000000000071,
                "tempo": 120.0
            },
            {
                "start_time": 15.836363636363636,
                "end_time": 15.970454545454544,
                "pitch": 93,
                "velocity": 40,
                "duration": 0.13409090909090793,
                "tempo": 120.0
            },
            {
                "start_time": 15.988636363636363,
                "end_time": 16.038636363636364,
                "pitch": 89,
                "velocity": 40,
                "duration": 0.05000000000000071,
                "tempo": 120.0
            },
            {
                "start_time": 16.07272727272727,
                "end_time": 16.12272727272727,
                "pitch": 84,
                "velocity": 40,
                "duration": 0.05000000000000071,
                "tempo": 120.0
            },
            {
                "start_time": 16.138636363636362,
                "end_time": 16.275,
                "pitch": 93,
                "velocity": 40,
                "duration": 0.1363636363636367,
                "tempo": 120.0
            },
            {
                "start_time": 16.29090909090909,
                "end_time": 16.34090909090909,
                "pitch": 89,
                "velocity": 40,
                "duration": 0.05000000000000071,
                "tempo": 120.0
            },
            {
                "start_time": 16.375,
                "end_time": 16.39090909090909,
                "pitch": 84,
                "velocity": 40,
                "duration": 0.01590909090909065,
                "tempo": 120.0
            },
            {
                "start_time": 16.425,
                "end_time": 16.575,
                "pitch": 93,
                "velocity": 40,
                "duration": 0.14999999999999858,
                "tempo": 120.0
            },
            {
                "start_time": 16.59318181818182,
                "end_time": 16.625,
                "pitch": 89,
                "velocity": 40,
                "duration": 0.0318181818181813,
                "tempo": 120.0
            },
            {
                "start_time": 16.643181818181816,
                "end_time": 16.724999999999998,
                "pitch": 84,
                "velocity": 40,
                "duration": 0.08181818181818201,
                "tempo": 120.0
            },
            {
                "start_time": 16.743181818181817,
                "end_time": 16.875,
                "pitch": 95,
                "velocity": 40,
                "duration": 0.13181818181818272,
                "tempo": 120.0
            },
            {
                "start_time": 16.893181818181816,
                "end_time": 16.943181818181817,
                "pitch": 91,
                "velocity": 40,
                "duration": 0.05000000000000071,
                "tempo": 120.0
            },
            {
                "start_time": 16.974999999999998,
                "end_time": 17.025,
                "pitch": 86,
                "velocity": 40,
                "duration": 0.05000000000000071,
                "tempo": 120.0
            },
            {
                "start_time": 17.043181818181818,
                "end_time": 17.175,
                "pitch": 95,
                "velocity": 40,
                "duration": 0.13181818181818272,
                "tempo": 120.0
            },
            {
                "start_time": 17.193181818181817,
                "end_time": 17.243181818181817,
                "pitch": 91,
                "velocity": 40,
                "duration": 0.05000000000000071,
                "tempo": 120.0
            },
            {
                "start_time": 17.275,
                "end_time": 17.325,
                "pitch": 86,
                "velocity": 40,
                "duration": 0.05000000000000071,
                "tempo": 120.0
            },
            {
                "start_time": 17.34318181818182,
                "end_time": 17.474999999999998,
                "pitch": 95,
                "velocity": 40,
                "duration": 0.13181818181817917,
                "tempo": 120.0
            },
            {
                "start_time": 17.493181818181817,
                "end_time": 17.543181818181818,
                "pitch": 91,
                "velocity": 40,
                "duration": 0.05000000000000071,
                "tempo": 120.0
            },
            {
                "start_time": 17.575,
                "end_time": 17.625,
                "pitch": 86,
                "velocity": 40,
                "duration": 0.05000000000000071,
                "tempo": 120.0
            },
            {
                "start_time": 17.643181818181816,
                "end_time": 17.777272727272727,
                "pitch": 95,
                "velocity": 40,
                "duration": 0.13409090909091148,
                "tempo": 120.0
            },
            {
                "start_time": 17.793181818181818,
                "end_time": 17.877272727272725,
                "pitch": 91,
                "velocity": 40,
                "duration": 0.08409090909090722,
                "tempo": 120.0
            },
            {
                "start_time": 17.895454545454545,
                "end_time": 17.929545454545455,
                "pitch": 86,
                "velocity": 40,
                "duration": 0.03409090909091006,
                "tempo": 120.0
            },
            {
                "start_time": 17.945454545454545,
                "end_time": 18.079545454545453,
                "pitch": 95,
                "velocity": 40,
                "duration": 0.13409090909090793,
                "tempo": 120.0
            },
            {
                "start_time": 18.097727272727273,
                "end_time": 18.23181818181818,
                "pitch": 91,
                "velocity": 40,
                "duration": 0.13409090909090793,
                "tempo": 120.0
            },
            {
                "start_time": 18.24772727272727,
                "end_time": 18.26590909090909,
                "pitch": 95,
                "velocity": 40,
                "duration": 0.01818181818181941,
                "tempo": 120.0
            },
            {
                "start_time": 18.28181818181818,
                "end_time": 18.384090909090908,
                "pitch": 86,
                "velocity": 40,
                "duration": 0.10227272727272663,
                "tempo": 120.0
            },
            {
                "start_time": 18.4,
                "end_time": 18.5,
                "pitch": 91,
                "velocity": 40,
                "duration": 0.10000000000000142,
                "tempo": 120.0
            },
            {
                "start_time": 18.534090909090907,
                "end_time": 18.686363636363634,
                "pitch": 95,
                "velocity": 40,
                "duration": 0.15227272727272734,
                "tempo": 120.0
            },
            {
                "start_time": 18.702272727272728,
                "end_time": 18.83863636363636,
                "pitch": 95,
                "velocity": 40,
                "duration": 0.13636363636363313,
                "tempo": 120.0
            },
            {
                "start_time": 18.854545454545455,
                "end_time": 18.954545454545453,
                "pitch": 86,
                "velocity": 40,
                "duration": 0.09999999999999787,
                "tempo": 120.0
            },
            {
                "start_time": 18.988636363636363,
                "end_time": 19.138636363636362,
                "pitch": 95,
                "velocity": 40,
                "duration": 0.14999999999999858,
                "tempo": 120.0
            },
            {
                "start_time": 19.154545454545453,
                "end_time": 19.60681818181818,
                "pitch": 92,
                "velocity": 40,
                "duration": 0.45227272727272805,
                "tempo": 120.0
            },
            {
                "start_time": 19.638636363636362,
                "end_time": 20.043181818181818,
                "pitch": 87,
                "velocity": 40,
                "duration": 0.4045454545454561,
                "tempo": 120.0
            },
            {
                "start_time": 20.061363636363634,
                "end_time": 21.552272727272726,
                "pitch": 84,
                "velocity": 40,
                "duration": 1.490909090909092,
                "tempo": 120.0
            },
            {
                "start_time": 22.927272727272726,
                "end_time": 23.061363636363634,
                "pitch": 75,
                "velocity": 40,
                "duration": 0.13409090909090793,
                "tempo": 120.0
            },
            {
                "start_time": 23.079545454545453,
                "end_time": 23.211363636363636,
                "pitch": 79,
                "velocity": 40,
                "duration": 0.13181818181818272,
                "tempo": 120.0
            },
            {
                "start_time": 23.229545454545452,
                "end_time": 23.611363636363635,
                "pitch": 82,
                "velocity": 40,
                "duration": 0.3818181818181827,
                "tempo": 120.0
            },
            {
                "start_time": 25.19090909090909,
                "end_time": 25.325,
                "pitch": 86,
                "velocity": 40,
                "duration": 0.13409090909090793,
                "tempo": 120.0
            },
            {
                "start_time": 25.34090909090909,
                "end_time": 25.44090909090909,
                "pitch": 84,
                "velocity": 40,
                "duration": 0.10000000000000142,
                "tempo": 120.0
            },
            {
                "start_time": 25.474999999999998,
                "end_time": 25.643181818181816,
                "pitch": 81,
                "velocity": 40,
                "duration": 0.168181818181818,
                "tempo": 120.0
            },
            {
                "start_time": 25.674999999999997,
                "end_time": 26.19772727272727,
                "pitch": 77,
                "velocity": 40,
                "duration": 0.5227272727272734,
                "tempo": 120.0
            },
            {
                "start_time": 27.63181818181818,
                "end_time": 27.73181818181818,
                "pitch": 87,
                "velocity": 40,
                "duration": 0.10000000000000142,
                "tempo": 120.0
            },
            {
                "start_time": 27.75,
                "end_time": 27.886363636363637,
                "pitch": 86,
                "velocity": 40,
                "duration": 0.1363636363636367,
                "tempo": 120.0
            },
            {
                "start_time": 27.902272727272727,
                "end_time": 28.036363636363635,
                "pitch": 83,
                "velocity": 40,
                "duration": 0.13409090909090793,
                "tempo": 120.0
            },
            {
                "start_time": 28.052272727272726,
                "end_time": 28.202272727272724,
                "pitch": 86,
                "velocity": 40,
                "duration": 0.14999999999999858,
                "tempo": 120.0
            },
            {
                "start_time": 28.236363636363635,
                "end_time": 28.352272727272727,
                "pitch": 87,
                "velocity": 40,
                "duration": 0.11590909090909207,
                "tempo": 120.0
            },
            {
                "start_time": 28.386363636363637,
                "end_time": 28.502272727272725,
                "pitch": 89,
                "velocity": 40,
                "duration": 0.11590909090908852,
                "tempo": 120.0
            },
            {
                "start_time": 28.536363636363635,
                "end_time": 28.704545454545453,
                "pitch": 91,
                "velocity": 40,
                "duration": 0.168181818181818,
                "tempo": 120.0
            },
            {
                "start_time": 33.23181818181818,
                "end_time": 33.48409090909091,
                "pitch": 87,
                "velocity": 40,
                "duration": 0.2522727272727323,
                "tempo": 120.0
            },
            {
                "start_time": 33.518181818181816,
                "end_time": 34.82954545454545,
                "pitch": 84,
                "velocity": 40,
                "duration": 1.3113636363636374,
                "tempo": 120.0
            },
            {
                "start_time": 37.25681818181818,
                "end_time": 37.35909090909091,
                "pitch": 79,
                "velocity": 40,
                "duration": 0.10227272727272663,
                "tempo": 120.0
            },
            {
                "start_time": 37.393181818181816,
                "end_time": 37.54772727272727,
                "pitch": 83,
                "velocity": 40,
                "duration": 0.1545454545454561,
                "tempo": 120.0
            },
            {
                "start_time": 37.56363636363636,
                "end_time": 37.69772727272727,
                "pitch": 86,
                "velocity": 40,
                "duration": 0.13409090909090793,
                "tempo": 120.0
            },
            {
                "start_time": 37.71363636363636,
                "end_time": 37.86363636363636,
                "pitch": 87,
                "velocity": 40,
                "duration": 0.14999999999999858,
                "tempo": 120.0
            },
            {
                "start_time": 37.89772727272727,
                "end_time": 38.11363636363636,
                "pitch": 89,
                "velocity": 40,
                "duration": 0.2159090909090864,
                "tempo": 120.0
            },
            {
                "start_time": 38.14772727272727,
                "end_time": 38.361363636363635,
                "pitch": 91,
                "velocity": 40,
                "duration": 0.21363636363636118,
                "tempo": 120.0
            }
        ]
    }
}