{
    "track_id": "Galactic Protector (FM) - 08 - Game Over",
    "mood": "happy",
    "instruments": {
        "Vibraphone": [
            {
                "start_time": 0.0022727272727272726,
                "end_time": 0.10227272727272727,
                "pitch": 63,
                "velocity": 64,
                "duration": 0.09999999999999999,
                "tempo": 120.0
            },
            {
                "start_time": 0.11818181818181818,
                "end_time": 0.21818181818181817,
                "pitch": 59,
                "velocity": 64,
                "duration": 0.09999999999999999,
                "tempo": 120.0
            },
            {
                "start_time": 0.2318181818181818,
                "end_time": 0.33409090909090905,
                "pitch": 63,
                "velocity": 64,
                "duration": 0.10227272727272724,
                "tempo": 120.0
            },
            {
                "start_time": 0.3477272727272727,
                "end_time": 0.8295454545454545,
                "pitch": 66,
                "velocity": 64,
                "duration": 0.48181818181818176,
                "tempo": 120.0
            },
            {
                "start_time": 0.8636363636363636,
                "end_time": 1.1045454545454545,
                "pitch": 65,
                "velocity": 64,
                "duration": 0.24090909090909085,
                "tempo": 120.0
            },
            {
                "start_time": 1.1386363636363637,
                "end_time": 1.3772727272727272,
                "pitch": 61,
                "velocity": 64,
                "duration": 0.23863636363636354,
                "tempo": 120.0
            },
            {
                "start_time": 1.4136363636363636,
                "end_time": 1.6522727272727271,
                "pitch": 65,
                "velocity": 64,
                "duration": 0.23863636363636354,
                "tempo": 120.0
            },
            {
                "start_time": 1.6863636363636363,
                "end_time": 1.9272727272727272,
                "pitch": 68,
                "velocity": 64,
                "duration": 0.24090909090909096,
                "tempo": 120.0
            },
            {
                "start_time": 1.9613636363636362,
                "end_time": 2.202272727272727,
                "pitch": 65,
                "velocity": 64,
                "duration": 0.24090909090909096,
                "tempo": 120.0
            },
            {
                "start_time": 2.2363636363636363,
                "end_time": 2.477272727272727,
                "pitch": 68,
                "velocity": 64,
                "duration": 0.24090909090909074,
                "tempo": 120.0
            },
            {
                "start_time": 2.5113636363636362,
                "end_time": 5.727272727272727,
                "pitch": 67,
                "velocity": 64,
                "duration": 3.2159090909090904,
                "tempo": 120.0
            }
        ],
        "Acoustic Bass": [
            {
                "start_time": 0.0022727272727272726,
                "end_time": 0.10227272727272727,
                "pitch": 35,
                "velocity": 40,
                "duration": 0.09999999999999999,
                "tempo": 120.0
            },
            {
                "start_time": 0.11818181818181818,
                "end_time": 0.21818181818181817,
                "pitch": 47,
                "velocity": 40,
                "duration": 0.09999999999999999,
                "tempo": 120.0
            },
            {
                "start_time": 0.2318181818181818,
                "end_time": 0.33409090909090905,
                "pitch": 35,
                "velocity": 40,
                "duration": 0.10227272727272724,
                "tempo": 120.0
            },
            {
                "start_time": 0.3477272727272727,
                "end_time": 0.8295454545454545,
                "pitch": 35,
                "velocity": 40,
                "duration": 0.48181818181818176,
                "tempo": 120.0
            },
            {
                "start_time": 0.8636363636363636,
                "end_time": 1.1045454545454545,
                "pitch": 37,
                "velocity": 40,
                "duration": 0.24090909090909085,
                "tempo": 120.0
            },
            {
                "start_time": 1.1386363636363637,
                "end_time": 1.3772727272727272,
                "pitch": 49,
                "velocity": 40,
                "duration": 0.23863636363636354,
                "tempo": 120.0
            },
            {
                "start_time": 1.4136363636363636,
                "end_time": 1.6522727272727271,
                "pitch": 37,
                "velocity": 40,
                "duration": 0.23863636363636354,
                "tempo": 120.0
            },
            {
                "start_time": 1.6863636363636363,
                "end_time": 1.9272727272727272,
                "pitch": 37,
                "velocity": 40,
                "duration": 0.24090909090909096,
                "tempo": 120.0
            },
            {
                "start_time": 1.9613636363636362,
                "end_time": 2.202272727272727,
                "pitch": 49,
                "velocity": 40,
                "duration": 0.24090909090909096,
                "tempo": 120.0
            },
            {
                "start_time": 2.2363636363636363,
                "end_time": 2.477272727272727,
                "pitch": 37,
                "velocity": 40,
                "duration": 0.24090909090909074,
                "tempo": 120.0
            },
            {
                "start_time": 2.5113636363636362,
                "end_time": 5.727272727272727,
                "pitch": 39,
                "velocity": 40,
                "duration": 3.2159090909090904,
                "tempo": 120.0
            }
        ],
        "Acoustic Grand Piano": [
            {
                "start_time": 0.015909090909090907,
                "end_time": 0.10227272727272727,
                "pitch": 66,
                "velocity": 80,
                "duration": 0.08636363636363636,
                "tempo": 120.0
            },
            {
                "start_time": 0.11818181818181818,
                "end_time": 0.21818181818181817,
                "pitch": 68,
                "velocity": 80,
                "duration": 0.09999999999999999,
                "tempo": 120.0
            },
            {
                "start_time": 0.2318181818181818,
                "end_time": 0.33409090909090905,
                "pitch": 70,
                "velocity": 80,
                "duration": 0.10227272727272724,
                "tempo": 120.0
            },
            {
                "start_time": 0.3477272727272727,
                "end_time": 0.4477272727272727,
                "pitch": 68,
                "velocity": 80,
                "duration": 0.09999999999999998,
                "tempo": 120.0
            },
            {
                "start_time": 0.4636363636363636,
                "end_time": 0.5636363636363636,
                "pitch": 66,
                "velocity": 80,
                "duration": 0.09999999999999998,
                "tempo": 120.0
            },
            {
                "start_time": 0.5886363636363636,
                "end_time": 1.1045454545454545,
                "pitch": 65,
                "velocity": 80,
                "duration": 0.5159090909090909,
                "tempo": 120.0
            },
            {
                "start_time": 1.1386363636363637,
                "end_time": 1.1727272727272726,
                "pitch": 65,
                "velocity": 80,
                "duration": 0.03409090909090895,
                "tempo": 120.0
            },
            {
                "start_time": 1.2068181818181818,
                "end_time": 1.3772727272727272,
                "pitch": 65,
                "velocity": 80,
                "duration": 0.17045454545454541,
                "tempo": 120.0
            },
            {
                "start_time": 1.4136363636363636,
                "end_time": 1.6522727272727271,
                "pitch": 68,
                "velocity": 80,
                "duration": 0.23863636363636354,
                "tempo": 120.0
            },
            {
                "start_time": 1.6863636363636363,
                "end_time": 1.9272727272727272,
                "pitch": 65,
                "velocity": 80,
                "duration": 0.24090909090909096,
                "tempo": 120.0
            },
            {
                "start_time": 1.9613636363636362,
                "end_time": 2.202272727272727,
                "pitch": 61,
                "velocity": 80,
                "duration": 0.24090909090909096,
                "tempo": 120.0
            },
            {
                "start_time": 2.2363636363636363,
                "end_time": 2.477272727272727,
                "pitch": 65,
                "velocity": 80,
                "duration": 0.24090909090909074,
                "tempo": 120.0
            },
            {
                "start_time": 2.5113636363636362,
                "end_time": 5.727272727272727,
                "pitch": 70,
                "velocity": 80,
                "duration": 3.2159090909090904,
                "tempo": 120.0
            }
        ]
    }
}