{
    "track_id": "Galactic Protector (FM) - 06 - Perfect!",
    "mood": "happy",
    "instruments": {
        "French Horn": [
            {
                "start_time": 0.5181818181818182,
                "end_time": 0.6022727272727273,
                "pitch": 82,
                "velocity": 64,
                "duration": 0.0840909090909091,
                "tempo": 120.0
            },
            {
                "start_time": 0.6204545454545454,
                "end_time": 0.7022727272727273,
                "pitch": 82,
                "velocity": 64,
                "duration": 0.0818181818181819,
                "tempo": 120.0
            },
            {
                "start_time": 0.7204545454545455,
                "end_time": 0.8045454545454545,
                "pitch": 82,
                "velocity": 64,
                "duration": 0.084090909090909,
                "tempo": 120.0
            },
            {
                "start_time": 0.8204545454545454,
                "end_time": 1.0954545454545455,
                "pitch": 82,
                "velocity": 64,
                "duration": 0.275,
                "tempo": 120.0
            },
            {
                "start_time": 1.1113636363636363,
                "end_time": 1.190909090909091,
                "pitch": 84,
                "velocity": 64,
                "duration": 0.07954545454545459,
                "tempo": 120.0
            },
            {
                "start_time": 1.209090909090909,
                "end_time": 1.2886363636363636,
                "pitch": 84,
                "velocity": 64,
                "duration": 0.07954545454545459,
                "tempo": 120.0
            },
            {
                "start_time": 1.3045454545454545,
                "end_time": 1.3863636363636362,
                "pitch": 84,
                "velocity": 64,
                "duration": 0.08181818181818179,
                "tempo": 120.0
            },
            {
                "start_time": 1.4022727272727271,
                "end_time": 1.6931818181818181,
                "pitch": 84,
                "velocity": 64,
                "duration": 0.290909090909091,
                "tempo": 120.0
            },
            {
                "start_time": 1.709090909090909,
                "end_time": 2.9068181818181817,
                "pitch": 86,
                "velocity": 64,
                "duration": 1.1977272727272728,
                "tempo": 120.0
            }
        ],
        "Acoustic Bass": [
            {
                "start_time": 0.5181818181818182,
                "end_time": 0.6022727272727273,
                "pitch": 39,
                "velocity": 40,
                "duration": 0.0840909090909091,
                "tempo": 120.0
            },
            {
                "start_time": 0.6204545454545454,
                "end_time": 0.7022727272727273,
                "pitch": 51,
                "velocity": 40,
                "duration": 0.0818181818181819,
                "tempo": 120.0
            },
            {
                "start_time": 0.7204545454545455,
                "end_time": 0.8045454545454545,
                "pitch": 39,
                "velocity": 40,
                "duration": 0.084090909090909,
                "tempo": 120.0
            },
            {
                "start_time": 0.8204545454545454,
                "end_time": 1.0954545454545455,
                "pitch": 51,
                "velocity": 40,
                "duration": 0.275,
                "tempo": 120.0
            },
            {
                "start_time": 1.1113636363636363,
                "end_time": 1.1931818181818181,
                "pitch": 41,
                "velocity": 40,
                "duration": 0.08181818181818179,
                "tempo": 120.0
            },
            {
                "start_time": 1.209090909090909,
                "end_time": 1.2886363636363636,
                "pitch": 53,
                "velocity": 40,
                "duration": 0.07954545454545459,
                "tempo": 120.0
            },
            {
                "start_time": 1.3045454545454545,
                "end_time": 1.3863636363636362,
                "pitch": 41,
                "velocity": 40,
                "duration": 0.08181818181818179,
                "tempo": 120.0
            },
            {
                "start_time": 1.4022727272727271,
                "end_time": 1.6931818181818181,
                "pitch": 53,
                "velocity": 40,
                "duration": 0.290909090909091,
                "tempo": 120.0
            },
            {
                "start_time": 1.7113636363636362,
                "end_time": 2.9068181818181817,
                "pitch": 43,
                "velocity": 40,
                "duration": 1.1954545454545455,
                "tempo": 120.0
            }
        ],
        "Flute": [
            {
                "start_time": 0.5204545454545454,
                "end_time": 0.6022727272727273,
                "pitch": 79,
                "velocity": 51,
                "duration": 0.0818181818181819,
                "tempo": 120.0
            },
            {
                "start_time": 0.6204545454545454,
                "end_time": 0.7045454545454545,
                "pitch": 79,
                "velocity": 51,
                "duration": 0.0840909090909091,
                "tempo": 120.0
            },
            {
                "start_time": 0.7204545454545455,
                "end_time": 0.8045454545454545,
                "pitch": 79,
                "velocity": 51,
                "duration": 0.084090909090909,
                "tempo": 120.0
            },
            {
                "start_time": 0.8204545454545454,
                "end_time": 1.0954545454545455,
                "pitch": 79,
                "velocity": 51,
                "duration": 0.275,
                "tempo": 120.0
            },
            {
                "start_time": 1.1113636363636363,
                "end_time": 1.1931818181818181,
                "pitch": 81,
                "velocity": 51,
                "duration": 0.08181818181818179,
                "tempo": 120.0
            },
            {
                "start_time": 1.209090909090909,
                "end_time": 1.2886363636363636,
                "pitch": 81,
                "velocity": 51,
                "duration": 0.07954545454545459,
                "tempo": 120.0
            },
            {
                "start_time": 1.3068181818181817,
                "end_time": 1.3863636363636362,
                "pitch": 81,
                "velocity": 51,
                "duration": 0.07954545454545459,
                "tempo": 120.0
            },
            {
                "start_time": 1.4022727272727271,
                "end_time": 1.6931818181818181,
                "pitch": 81,
                "velocity": 51,
                "duration": 0.290909090909091,
                "tempo": 120.0
            },
            {
                "start_time": 1.7113636363636362,
                "end_time": 2.9068181818181817,
                "pitch": 83,
                "velocity": 51,
                "duration": 1.1954545454545455,
                "tempo": 120.0
            }
        ],
        "Acoustic Grand Piano": [
            {
                "start_time": 0.6022727272727273,
                "end_time": 0.6704545454545454,
                "pitch": 82,
                "velocity": 20,
                "duration": 0.06818181818181812,
                "tempo": 120.0
            },
            {
                "start_time": 0.7045454545454545,
                "end_time": 0.7704545454545454,
                "pitch": 82,
                "velocity": 20,
                "duration": 0.06590909090909092,
                "tempo": 120.0
            },
            {
                "start_time": 0.8045454545454545,
                "end_time": 0.8704545454545454,
                "pitch": 82,
                "velocity": 20,
                "duration": 0.06590909090909092,
                "tempo": 120.0
            },
            {
                "start_time": 0.9022727272727272,
                "end_time": 1.1613636363636364,
                "pitch": 82,
                "velocity": 20,
                "duration": 0.25909090909090915,
                "tempo": 120.0
            },
            {
                "start_time": 1.1931818181818181,
                "end_time": 1.2568181818181818,
                "pitch": 84,
                "velocity": 20,
                "duration": 0.06363636363636371,
                "tempo": 120.0
            },
            {
                "start_time": 1.2886363636363636,
                "end_time": 1.3545454545454545,
                "pitch": 84,
                "velocity": 20,
                "duration": 0.06590909090909092,
                "tempo": 120.0
            },
            {
                "start_time": 1.3863636363636362,
                "end_time": 1.4545454545454546,
                "pitch": 84,
                "velocity": 20,
                "duration": 0.06818181818181834,
                "tempo": 120.0
            },
            {
                "start_time": 1.4886363636363635,
                "end_time": 1.7613636363636362,
                "pitch": 84,
                "velocity": 20,
                "duration": 0.2727272727272727,
                "tempo": 120.0
            },
            {
                "start_time": 1.7954545454545454,
                "end_time": 2.9749999999999996,
                "pitch": 86,
                "velocity": 20,
                "duration": 1.1795454545454542,
                "tempo": 120.0
            }
        ]
    }
}