{
    "track_id": "Galactic Protector (FM) - 01 - Title Screen",
    "mood": "happy",
    "instruments": {
        "Flute": [
            {
                "start_time": 0.0,
                "end_time": 0.05227272727272727,
                "pitch": 84,
                "velocity": 64,
                "duration": 0.05227272727272727,
                "tempo": 120.0
            },
            {
                "start_time": 0.06363636363636363,
                "end_time": 0.12045454545454545,
                "pitch": 82,
                "velocity": 64,
                "duration": 0.05681818181818182,
                "tempo": 120.0
            },
            {
                "start_time": 0.13636363636363635,
                "end_time": 0.32045454545454544,
                "pitch": 81,
                "velocity": 64,
                "duration": 0.18409090909090908,
                "tempo": 120.0
            },
            {
                "start_time": 0.33636363636363636,
                "end_time": 0.5204545454545454,
                "pitch": 81,
                "velocity": 64,
                "duration": 0.18409090909090903,
                "tempo": 120.0
            },
            {
                "start_time": 0.5363636363636364,
                "end_time": 0.6204545454545454,
                "pitch": 81,
                "velocity": 64,
                "duration": 0.084090909090909,
                "tempo": 120.0
            },
            {
                "start_time": 0.6363636363636364,
                "end_time": 0.8227272727272726,
                "pitch": 79,
                "velocity": 64,
                "duration": 0.1863636363636363,
                "tempo": 120.0
            },
            {
                "start_time": 0.8409090909090908,
                "end_time": 1.0318181818181817,
                "pitch": 84,
                "velocity": 64,
                "duration": 0.19090909090909092,
                "tempo": 120.0
            },
            {
                "start_time": 1.0477272727272726,
                "end_time": 1.134090909090909,
                "pitch": 82,
                "velocity": 64,
                "duration": 0.08636363636363642,
                "tempo": 120.0
            },
            {
                "start_time": 1.1522727272727271,
                "end_time": 1.343181818181818,
                "pitch": 81,
                "velocity": 64,
                "duration": 0.19090909090909092,
                "tempo": 120.0
            },
            {
                "start_time": 1.3590909090909091,
                "end_time": 1.5386363636363636,
                "pitch": 79,
                "velocity": 64,
                "duration": 0.17954545454545445,
                "tempo": 120.0
            },
            {
                "start_time": 1.5545454545454545,
                "end_time": 1.634090909090909,
                "pitch": 84,
                "velocity": 64,
                "duration": 0.07954545454545459,
                "tempo": 120.0
            },
            {
                "start_time": 1.65,
                "end_time": 1.7318181818181817,
                "pitch": 82,
                "velocity": 64,
                "duration": 0.08181818181818179,
                "tempo": 120.0
            },
            {
                "start_time": 1.7477272727272726,
                "end_time": 1.9249999999999998,
                "pitch": 81,
                "velocity": 64,
                "duration": 0.17727272727272725,
                "tempo": 120.0
            },
            {
                "start_time": 1.9431818181818181,
                "end_time": 2.134090909090909,
                "pitch": 81,
                "velocity": 64,
                "duration": 0.1909090909090907,
                "tempo": 120.0
            },
            {
                "start_time": 2.15,
                "end_time": 2.2363636363636363,
                "pitch": 81,
                "velocity": 64,
                "duration": 0.08636363636363642,
                "tempo": 120.0
            },
            {
                "start_time": 2.2545454545454544,
                "end_time": 2.4454545454545453,
                "pitch": 79,
                "velocity": 64,
                "duration": 0.19090909090909092,
                "tempo": 120.0
            },
            {
                "start_time": 2.4636363636363634,
                "end_time": 2.65,
                "pitch": 79,
                "velocity": 64,
                "duration": 0.1863636363636365,
                "tempo": 120.0
            },
            {
                "start_time": 2.6659090909090906,
                "end_time": 2.7477272727272726,
                "pitch": 79,
                "velocity": 64,
                "duration": 0.08181818181818201,
                "tempo": 120.0
            },
            {
                "start_time": 2.7636363636363637,
                "end_time": 2.9454545454545453,
                "pitch": 84,
                "velocity": 64,
                "duration": 0.18181818181818166,
                "tempo": 120.0
            },
            {
                "start_time": 2.9636363636363634,
                "end_time": 3.143181818181818,
                "pitch": 82,
                "velocity": 64,
                "duration": 0.17954545454545467,
                "tempo": 120.0
            },
            {
                "start_time": 3.161363636363636,
                "end_time": 3.756818181818182,
                "pitch": 75,
                "velocity": 64,
                "duration": 0.5954545454545457,
                "tempo": 120.0
            },
            {
                "start_time": 3.7727272727272725,
                "end_time": 4.152272727272727,
                "pitch": 75,
                "velocity": 64,
                "duration": 0.37954545454545485,
                "tempo": 120.0
            },
            {
                "start_time": 4.168181818181818,
                "end_time": 4.35,
                "pitch": 82,
                "velocity": 64,
                "duration": 0.18181818181818166,
                "tempo": 120.0
            },
            {
                "start_time": 4.36590909090909,
                "end_time": 4.55,
                "pitch": 81,
                "velocity": 64,
                "duration": 0.18409090909090953,
                "tempo": 120.0
            },
            {
                "start_time": 4.5659090909090905,
                "end_time": 4.75,
                "pitch": 79,
                "velocity": 64,
                "duration": 0.18409090909090953,
                "tempo": 120.0
            },
            {
                "start_time": 4.765909090909091,
                "end_time": 5.3545454545454545,
                "pitch": 77,
                "velocity": 64,
                "duration": 0.5886363636363638,
                "tempo": 120.0
            },
            {
                "start_time": 5.370454545454545,
                "end_time": 5.956818181818181,
                "pitch": 84,
                "velocity": 64,
                "duration": 0.586363636363636,
                "tempo": 120.0
            },
            {
                "start_time": 5.972727272727273,
                "end_time": 6.3590909090909085,
                "pitch": 81,
                "velocity": 64,
                "duration": 0.3863636363636358,
                "tempo": 120.0
            },
            {
                "start_time": 6.375,
                "end_time": 6.459090909090909,
                "pitch": 79,
                "velocity": 64,
                "duration": 0.084090909090909,
                "tempo": 120.0
            },
            {
                "start_time": 6.475,
                "end_time": 6.661363636363636,
                "pitch": 79,
                "velocity": 64,
                "duration": 0.1863636363636365,
                "tempo": 120.0
            },
            {
                "start_time": 6.677272727272727,
                "end_time": 6.761363636363636,
                "pitch": 79,
                "velocity": 64,
                "duration": 0.084090909090909,
                "tempo": 120.0
            },
            {
                "start_time": 6.779545454545454,
                "end_time": 6.961363636363636,
                "pitch": 79,
                "velocity": 64,
                "duration": 0.18181818181818166,
                "tempo": 120.0
            },
            {
                "start_time": 6.9795454545454545,
                "end_time": 7.061363636363636,
                "pitch": 79,
                "velocity": 64,
                "duration": 0.08181818181818112,
                "tempo": 120.0
            },
            {
                "start_time": 7.079545454545454,
                "end_time": 7.2295454545454545,
                "pitch": 79,
                "velocity": 64,
                "duration": 0.15000000000000036,
                "tempo": 120.0
            }
        ],
        "Electric Guitar (clean)": [
            {
                "start_time": 0.00909090909090909,
                "end_time": 0.05227272727272727,
                "pitch": 48,
                "velocity": 40,
                "duration": 0.04318181818181818,
                "tempo": 120.0
            },
            {
                "start_time": 0.06363636363636363,
                "end_time": 0.12045454545454545,
                "pitch": 57,
                "velocity": 40,
                "duration": 0.05681818181818182,
                "tempo": 120.0
            },
            {
                "start_time": 0.13636363636363635,
                "end_time": 0.32045454545454544,
                "pitch": 58,
                "velocity": 40,
                "duration": 0.18409090909090908,
                "tempo": 120.0
            },
            {
                "start_time": 0.33636363636363636,
                "end_time": 0.5204545454545454,
                "pitch": 48,
                "velocity": 40,
                "duration": 0.18409090909090903,
                "tempo": 120.0
            },
            {
                "start_time": 0.5363636363636364,
                "end_time": 0.6204545454545454,
                "pitch": 55,
                "velocity": 40,
                "duration": 0.084090909090909,
                "tempo": 120.0
            },
            {
                "start_time": 0.6363636363636364,
                "end_time": 0.8227272727272726,
                "pitch": 55,
                "velocity": 40,
                "duration": 0.1863636363636363,
                "tempo": 120.0
            },
            {
                "start_time": 0.8409090909090908,
                "end_time": 1.0318181818181817,
                "pitch": 57,
                "velocity": 40,
                "duration": 0.19090909090909092,
                "tempo": 120.0
            },
            {
                "start_time": 1.0477272727272726,
                "end_time": 1.134090909090909,
                "pitch": 58,
                "velocity": 40,
                "duration": 0.08636363636363642,
                "tempo": 120.0
            },
            {
                "start_time": 1.1522727272727271,
                "end_time": 1.343181818181818,
                "pitch": 58,
                "velocity": 40,
                "duration": 0.19090909090909092,
                "tempo": 120.0
            },
            {
                "start_time": 1.3590909090909091,
                "end_time": 1.5386363636363636,
                "pitch": 55,
                "velocity": 40,
                "duration": 0.17954545454545445,
                "tempo": 120.0
            },
            {
                "start_time": 1.5545454545454545,
                "end_time": 1.634090909090909,
                "pitch": 48,
                "velocity": 40,
                "duration": 0.07954545454545459,
                "tempo": 120.0
            },
            {
                "start_time": 1.65,
                "end_time": 1.7318181818181817,
                "pitch": 57,
                "velocity": 40,
                "duration": 0.08181818181818179,
                "tempo": 120.0
            },
            {
                "start_time": 1.7477272727272726,
                "end_time": 1.9249999999999998,
                "pitch": 58,
                "velocity": 40,
                "duration": 0.17727272727272725,
                "tempo": 120.0
            },
            {
                "start_time": 1.9431818181818181,
                "end_time": 2.134090909090909,
                "pitch": 48,
                "velocity": 40,
                "duration": 0.1909090909090907,
                "tempo": 120.0
            },
            {
                "start_time": 2.15,
                "end_time": 2.2363636363636363,
                "pitch": 55,
                "velocity": 40,
                "duration": 0.08636363636363642,
                "tempo": 120.0
            },
            {
                "start_time": 2.2545454545454544,
                "end_time": 2.4454545454545453,
                "pitch": 57,
                "velocity": 40,
                "duration": 0.19090909090909092,
                "tempo": 120.0
            },
            {
                "start_time": 2.4636363636363634,
                "end_time": 2.65,
                "pitch": 58,
                "velocity": 40,
                "duration": 0.1863636363636365,
                "tempo": 120.0
            },
            {
                "start_time": 2.6659090909090906,
                "end_time": 2.7477272727272726,
                "pitch": 57,
                "velocity": 40,
                "duration": 0.08181818181818201,
                "tempo": 120.0
            },
            {
                "start_time": 2.7636363636363637,
                "end_time": 2.9454545454545453,
                "pitch": 55,
                "velocity": 40,
                "duration": 0.18181818181818166,
                "tempo": 120.0
            },
            {
                "start_time": 2.9636363636363634,
                "end_time": 3.143181818181818,
                "pitch": 57,
                "velocity": 40,
                "duration": 0.17954545454545467,
                "tempo": 120.0
            },
            {
                "start_time": 3.161363636363636,
                "end_time": 3.4499999999999997,
                "pitch": 44,
                "velocity": 40,
                "duration": 0.2886363636363636,
                "tempo": 120.0
            },
            {
                "start_time": 3.465909090909091,
                "end_time": 3.756818181818182,
                "pitch": 44,
                "velocity": 40,
                "duration": 0.290909090909091,
                "tempo": 120.0
            },
            {
                "start_time": 3.7727272727272725,
                "end_time": 4.152272727272727,
                "pitch": 51,
                "velocity": 40,
                "duration": 0.37954545454545485,
                "tempo": 120.0
            },
            {
                "start_time": 4.168181818181818,
                "end_time": 4.35,
                "pitch": 51,
                "velocity": 40,
                "duration": 0.18181818181818166,
                "tempo": 120.0
            },
            {
                "start_time": 4.36590909090909,
                "end_time": 4.75,
                "pitch": 51,
                "velocity": 40,
                "duration": 0.3840909090909097,
                "tempo": 120.0
            },
            {
                "start_time": 4.765909090909091,
                "end_time": 5.05,
                "pitch": 46,
                "velocity": 40,
                "duration": 0.28409090909090917,
                "tempo": 120.0
            },
            {
                "start_time": 5.068181818181818,
                "end_time": 5.152272727272727,
                "pitch": 46,
                "velocity": 40,
                "duration": 0.084090909090909,
                "tempo": 120.0
            },
            {
                "start_time": 5.168181818181818,
                "end_time": 5.3545454545454545,
                "pitch": 46,
                "velocity": 40,
                "duration": 0.1863636363636365,
                "tempo": 120.0
            },
            {
                "start_time": 5.370454545454545,
                "end_time": 5.756818181818182,
                "pitch": 53,
                "velocity": 40,
                "duration": 0.3863636363636367,
                "tempo": 120.0
            },
            {
                "start_time": 5.7727272727272725,
                "end_time": 5.956818181818181,
                "pitch": 46,
                "velocity": 40,
                "duration": 0.18409090909090864,
                "tempo": 120.0
            },
            {
                "start_time": 5.972727272727273,
                "end_time": 6.3590909090909085,
                "pitch": 53,
                "velocity": 40,
                "duration": 0.3863636363636358,
                "tempo": 120.0
            },
            {
                "start_time": 6.375,
                "end_time": 6.459090909090909,
                "pitch": 48,
                "velocity": 40,
                "duration": 0.084090909090909,
                "tempo": 120.0
            },
            {
                "start_time": 6.475,
                "end_time": 6.661363636363636,
                "pitch": 48,
                "velocity": 40,
                "duration": 0.1863636363636365,
                "tempo": 120.0
            },
            {
                "start_time": 6.677272727272727,
                "end_time": 6.761363636363636,
                "pitch": 48,
                "velocity": 40,
                "duration": 0.084090909090909,
                "tempo": 120.0
            },
            {
                "start_time": 6.779545454545454,
                "end_time": 6.961363636363636,
                "pitch": 48,
                "velocity": 40,
                "duration": 0.18181818181818166,
                "tempo": 120.0
            },
            {
                "start_time": 6.9795454545454545,
                "end_time": 7.129545454545454,
                "pitch": 48,
                "velocity": 40,
                "duration": 0.14999999999999947,
                "tempo": 120.0
            }
        ],
        "Lead 2 (sawtooth)": [
            {
                "start_time": 0.00909090909090909,
                "end_time": 0.05227272727272727,
                "pitch": 91,
                "velocity": 51,
                "duration": 0.04318181818181818,
                "tempo": 120.0
            },
            {
                "start_time": 0.06363636363636363,
                "end_time": 0.12045454545454545,
                "pitch": 89,
                "velocity": 51,
                "duration": 0.05681818181818182,
                "tempo": 120.0
            },
            {
                "start_time": 0.13636363636363635,
                "end_time": 0.22045454545454543,
                "pitch": 88,
                "velocity": 51,
                "duration": 0.08409090909090908,
                "tempo": 120.0
            },
            {
                "start_time": 0.23636363636363636,
                "end_time": 0.32045454545454544,
                "pitch": 86,
                "velocity": 51,
                "duration": 0.08409090909090908,
                "tempo": 120.0
            },
            {
                "start_time": 0.33636363636363636,
                "end_time": 0.4204545454545454,
                "pitch": 89,
                "velocity": 51,
                "duration": 0.08409090909090905,
                "tempo": 120.0
            },
            {
                "start_time": 0.43636363636363634,
                "end_time": 0.5204545454545454,
                "pitch": 88,
                "velocity": 51,
                "duration": 0.08409090909090905,
                "tempo": 120.0
            },
            {
                "start_time": 0.5363636363636364,
                "end_time": 0.6204545454545454,
                "pitch": 86,
                "velocity": 51,
                "duration": 0.084090909090909,
                "tempo": 120.0
            },
            {
                "start_time": 0.6363636363636364,
                "end_time": 0.7204545454545455,
                "pitch": 84,
                "velocity": 51,
                "duration": 0.0840909090909091,
                "tempo": 120.0
            },
            {
                "start_time": 0.7363636363636363,
                "end_time": 0.8227272727272726,
                "pitch": 84,
                "velocity": 51,
                "duration": 0.08636363636363631,
                "tempo": 120.0
            },
            {
                "start_time": 0.8409090909090908,
                "end_time": 0.9272727272727272,
                "pitch": 86,
                "velocity": 51,
                "duration": 0.08636363636363642,
                "tempo": 120.0
            },
            {
                "start_time": 0.9431818181818181,
                "end_time": 1.0318181818181817,
                "pitch": 88,
                "velocity": 51,
                "duration": 0.08863636363636362,
                "tempo": 120.0
            },
            {
                "start_time": 1.0477272727272726,
                "end_time": 1.134090909090909,
                "pitch": 89,
                "velocity": 51,
                "duration": 0.08636363636363642,
                "tempo": 120.0
            },
            {
                "start_time": 1.1522727272727271,
                "end_time": 1.2386363636363635,
                "pitch": 91,
                "velocity": 51,
                "duration": 0.08636363636363642,
                "tempo": 120.0
            },
            {
                "start_time": 1.2568181818181818,
                "end_time": 1.343181818181818,
                "pitch": 89,
                "velocity": 51,
                "duration": 0.0863636363636362,
                "tempo": 120.0
            },
            {
                "start_time": 1.3590909090909091,
                "end_time": 1.440909090909091,
                "pitch": 88,
                "velocity": 51,
                "duration": 0.08181818181818179,
                "tempo": 120.0
            },
            {
                "start_time": 1.4568181818181818,
                "end_time": 1.5386363636363636,
                "pitch": 86,
                "velocity": 51,
                "duration": 0.08181818181818179,
                "tempo": 120.0
            },
            {
                "start_time": 1.5545454545454545,
                "end_time": 1.634090909090909,
                "pitch": 91,
                "velocity": 51,
                "duration": 0.07954545454545459,
                "tempo": 120.0
            },
            {
                "start_time": 1.65,
                "end_time": 1.7318181818181817,
                "pitch": 89,
                "velocity": 51,
                "duration": 0.08181818181818179,
                "tempo": 120.0
            },
            {
                "start_time": 1.7477272727272726,
                "end_time": 1.8295454545454544,
                "pitch": 88,
                "velocity": 51,
                "duration": 0.08181818181818179,
                "tempo": 120.0
            },
            {
                "start_time": 1.8454545454545455,
                "end_time": 1.9249999999999998,
                "pitch": 86,
                "velocity": 51,
                "duration": 0.07954545454545436,
                "tempo": 120.0
            },
            {
                "start_time": 1.9431818181818181,
                "end_time": 2.0295454545454543,
                "pitch": 89,
                "velocity": 51,
                "duration": 0.0863636363636362,
                "tempo": 120.0
            },
            {
                "start_time": 2.0454545454545454,
                "end_time": 2.134090909090909,
                "pitch": 88,
                "velocity": 51,
                "duration": 0.0886363636363634,
                "tempo": 120.0
            },
            {
                "start_time": 2.15,
                "end_time": 2.2363636363636363,
                "pitch": 86,
                "velocity": 51,
                "duration": 0.08636363636363642,
                "tempo": 120.0
            },
            {
                "start_time": 2.2545454545454544,
                "end_time": 2.340909090909091,
                "pitch": 84,
                "velocity": 51,
                "duration": 0.08636363636363642,
                "tempo": 120.0
            },
            {
                "start_time": 2.359090909090909,
                "end_time": 2.4454545454545453,
                "pitch": 84,
                "velocity": 51,
                "duration": 0.08636363636363642,
                "tempo": 120.0
            },
            {
                "start_time": 2.4636363636363634,
                "end_time": 2.55,
                "pitch": 86,
                "velocity": 51,
                "duration": 0.08636363636363642,
                "tempo": 120.0
            },
            {
                "start_time": 2.565909090909091,
                "end_time": 2.65,
                "pitch": 88,
                "velocity": 51,
                "duration": 0.084090909090909,
                "tempo": 120.0
            },
            {
                "start_time": 2.6659090909090906,
                "end_time": 2.7477272727272726,
                "pitch": 89,
                "velocity": 51,
                "duration": 0.08181818181818201,
                "tempo": 120.0
            },
            {
                "start_time": 2.7636363636363637,
                "end_time": 2.8477272727272727,
                "pitch": 91,
                "velocity": 51,
                "duration": 0.084090909090909,
                "tempo": 120.0
            },
            {
                "start_time": 2.8636363636363633,
                "end_time": 2.9454545454545453,
                "pitch": 91,
                "velocity": 51,
                "duration": 0.08181818181818201,
                "tempo": 120.0
            },
            {
                "start_time": 2.9636363636363634,
                "end_time": 3.0454545454545454,
                "pitch": 91,
                "velocity": 51,
                "duration": 0.08181818181818201,
                "tempo": 120.0
            },
            {
                "start_time": 3.061363636363636,
                "end_time": 3.143181818181818,
                "pitch": 91,
                "velocity": 51,
                "duration": 0.08181818181818201,
                "tempo": 120.0
            },
            {
                "start_time": 3.161363636363636,
                "end_time": 3.756818181818182,
                "pitch": 80,
                "velocity": 51,
                "duration": 0.5954545454545457,
                "tempo": 120.0
            },
            {
                "start_time": 3.7727272727272725,
                "end_time": 4.152272727272727,
                "pitch": 87,
                "velocity": 51,
                "duration": 0.37954545454545485,
                "tempo": 120.0
            },
            {
                "start_time": 4.168181818181818,
                "end_time": 4.35,
                "pitch": 87,
                "velocity": 51,
                "duration": 0.18181818181818166,
                "tempo": 120.0
            },
            {
                "start_time": 4.36590909090909,
                "end_time": 4.75,
                "pitch": 87,
                "velocity": 51,
                "duration": 0.3840909090909097,
                "tempo": 120.0
            },
            {
                "start_time": 4.765909090909091,
                "end_time": 5.3545454545454545,
                "pitch": 82,
                "velocity": 51,
                "duration": 0.5886363636363638,
                "tempo": 120.0
            },
            {
                "start_time": 5.370454545454545,
                "end_time": 5.956818181818181,
                "pitch": 89,
                "velocity": 51,
                "duration": 0.586363636363636,
                "tempo": 120.0
            },
            {
                "start_time": 5.972727272727273,
                "end_time": 6.3590909090909085,
                "pitch": 89,
                "velocity": 51,
                "duration": 0.3863636363636358,
                "tempo": 120.0
            },
            {
                "start_time": 6.375,
                "end_time": 6.459090909090909,
                "pitch": 88,
                "velocity": 51,
                "duration": 0.084090909090909,
                "tempo": 120.0
            },
            {
                "start_time": 6.475,
                "end_time": 6.661363636363636,
                "pitch": 88,
                "velocity": 51,
                "duration": 0.1863636363636365,
                "tempo": 120.0
            },
            {
                "start_time": 6.677272727272727,
                "end_time": 6.761363636363636,
                "pitch": 88,
                "velocity": 51,
                "duration": 0.084090909090909,
                "tempo": 120.0
            },
            {
                "start_time": 6.779545454545454,
                "end_time": 6.961363636363636,
                "pitch": 88,
                "velocity": 51,
                "duration": 0.18181818181818166,
                "tempo": 120.0
            },
            {
                "start_time": 6.9795454545454545,
                "end_time": 7.061363636363636,
                "pitch": 88,
                "velocity": 51,
                "duration": 0.08181818181818112,
                "tempo": 120.0
            },
            {
                "start_time": 7.079545454545454,
                "end_time": 7.195454545454545,
                "pitch": 88,
                "velocity": 51,
                "duration": 0.11590909090909118,
                "tempo": 120.0
            }
        ]
    }
}