{
    "track_id": "Galactic Protector (FM) - 03 - Round Clear",
    "mood": "happy",
    "instruments": {
        "Church Organ": [
            {
                "start_time": 0.006818181818181818,
                "end_time": 0.5909090909090908,
                "pitch": 75,
                "velocity": 64,
                "duration": 0.584090909090909,
                "tempo": 120.0
            },
            {
                "start_time": 0.6068181818181818,
                "end_time": 2.1954545454545453,
                "pitch": 79,
                "velocity": 64,
                "duration": 1.5886363636363634,
                "tempo": 120.0
            },
            {
                "start_time": 2.2113636363636364,
                "end_time": 2.590909090909091,
                "pitch": 82,
                "velocity": 64,
                "duration": 0.3795454545454544,
                "tempo": 120.0
            },
            {
                "start_time": 2.6068181818181815,
                "end_time": 2.786363636363636,
                "pitch": 80,
                "velocity": 64,
                "duration": 0.17954545454545467,
                "tempo": 120.0
            },
            {
                "start_time": 2.8045454545454542,
                "end_time": 2.9863636363636363,
                "pitch": 79,
                "velocity": 64,
                "duration": 0.1818181818181821,
                "tempo": 120.0
            },
            {
                "start_time": 3.0045454545454544,
                "end_time": 4.793181818181818,
                "pitch": 75,
                "velocity": 64,
                "duration": 1.7886363636363636,
                "tempo": 120.0
            }
        ],
        "Acoustic Bass": [
            {
                "start_time": 0.022727272727272728,
                "end_time": 0.5909090909090908,
                "pitch": 39,
                "velocity": 40,
                "duration": 0.5681818181818181,
                "tempo": 120.0
            },
            {
                "start_time": 0.6068181818181818,
                "end_time": 0.7818181818181817,
                "pitch": 39,
                "velocity": 40,
                "duration": 0.17499999999999993,
                "tempo": 120.0
            },
            {
                "start_time": 0.7977272727272727,
                "end_time": 0.8159090909090909,
                "pitch": 39,
                "velocity": 40,
                "duration": 0.018181818181818188,
                "tempo": 120.0
            },
            {
                "start_time": 1.4045454545454545,
                "end_time": 1.584090909090909,
                "pitch": 34,
                "velocity": 40,
                "duration": 0.17954545454545445,
                "tempo": 120.0
            },
            {
                "start_time": 1.5999999999999999,
                "end_time": 2.1954545454545453,
                "pitch": 39,
                "velocity": 40,
                "duration": 0.5954545454545455,
                "tempo": 120.0
            },
            {
                "start_time": 2.2113636363636364,
                "end_time": 2.3954545454545455,
                "pitch": 39,
                "velocity": 40,
                "duration": 0.18409090909090908,
                "tempo": 120.0
            },
            {
                "start_time": 2.411363636363636,
                "end_time": 2.4272727272727272,
                "pitch": 39,
                "velocity": 40,
                "duration": 0.015909090909091095,
                "tempo": 120.0
            },
            {
                "start_time": 3.0045454545454544,
                "end_time": 3.0545454545454542,
                "pitch": 41,
                "velocity": 40,
                "duration": 0.04999999999999982,
                "tempo": 120.0
            },
            {
                "start_time": 3.0704545454545453,
                "end_time": 3.186363636363636,
                "pitch": 43,
                "velocity": 40,
                "duration": 0.11590909090909074,
                "tempo": 120.0
            },
            {
                "start_time": 3.2045454545454546,
                "end_time": 3.793181818181818,
                "pitch": 39,
                "velocity": 40,
                "duration": 0.5886363636363634,
                "tempo": 120.0
            },
            {
                "start_time": 3.811363636363636,
                "end_time": 3.9909090909090907,
                "pitch": 39,
                "velocity": 40,
                "duration": 0.17954545454545467,
                "tempo": 120.0
            },
            {
                "start_time": 4.006818181818182,
                "end_time": 4.0227272727272725,
                "pitch": 39,
                "velocity": 40,
                "duration": 0.01590909090909065,
                "tempo": 120.0
            },
            {
                "start_time": 4.613636363636363,
                "end_time": 4.793181818181818,
                "pitch": 34,
                "velocity": 40,
                "duration": 0.17954545454545467,
                "tempo": 120.0
            },
            {
                "start_time": 4.809090909090909,
                "end_time": 5.3999999999999995,
                "pitch": 39,
                "velocity": 40,
                "duration": 0.5909090909090908,
                "tempo": 120.0
            },
            {
                "start_time": 5.415909090909091,
                "end_time": 5.595454545454545,
                "pitch": 39,
                "velocity": 40,
                "duration": 0.1795454545454538,
                "tempo": 120.0
            },
            {
                "start_time": 5.611363636363636,
                "end_time": 5.629545454545454,
                "pitch": 39,
                "velocity": 40,
                "duration": 0.018181818181817633,
                "tempo": 120.0
            },
            {
                "start_time": 6.213636363636363,
                "end_time": 6.263636363636364,
                "pitch": 41,
                "velocity": 40,
                "duration": 0.05000000000000071,
                "tempo": 120.0
            },
            {
                "start_time": 6.279545454545454,
                "end_time": 6.3977272727272725,
                "pitch": 43,
                "velocity": 40,
                "duration": 0.11818181818181817,
                "tempo": 120.0
            }
        ],
        "French Horn": [
            {
                "start_time": 0.022727272727272728,
                "end_time": 0.39999999999999997,
                "pitch": 63,
                "velocity": 64,
                "duration": 0.37727272727272726,
                "tempo": 120.0
            },
            {
                "start_time": 0.4159090909090909,
                "end_time": 0.7818181818181817,
                "pitch": 51,
                "velocity": 64,
                "duration": 0.36590909090909085,
                "tempo": 120.0
            },
            {
                "start_time": 0.7977272727272727,
                "end_time": 1.190909090909091,
                "pitch": 63,
                "velocity": 64,
                "duration": 0.3931818181818182,
                "tempo": 120.0
            },
            {
                "start_time": 1.209090909090909,
                "end_time": 1.584090909090909,
                "pitch": 51,
                "velocity": 64,
                "duration": 0.375,
                "tempo": 120.0
            },
            {
                "start_time": 1.5999999999999999,
                "end_time": 1.9954545454545454,
                "pitch": 63,
                "velocity": 64,
                "duration": 0.3954545454545455,
                "tempo": 120.0
            },
            {
                "start_time": 2.0113636363636362,
                "end_time": 2.3954545454545455,
                "pitch": 51,
                "velocity": 64,
                "duration": 0.38409090909090926,
                "tempo": 120.0
            },
            {
                "start_time": 2.411363636363636,
                "end_time": 2.786363636363636,
                "pitch": 63,
                "velocity": 64,
                "duration": 0.375,
                "tempo": 120.0
            },
            {
                "start_time": 2.8045454545454542,
                "end_time": 3.186363636363636,
                "pitch": 51,
                "velocity": 64,
                "duration": 0.38181818181818183,
                "tempo": 120.0
            },
            {
                "start_time": 3.2045454545454546,
                "end_time": 3.5977272727272727,
                "pitch": 63,
                "velocity": 64,
                "duration": 0.3931818181818181,
                "tempo": 120.0
            },
            {
                "start_time": 3.6136363636363633,
                "end_time": 3.9909090909090907,
                "pitch": 51,
                "velocity": 64,
                "duration": 0.3772727272727274,
                "tempo": 120.0
            },
            {
                "start_time": 4.006818181818182,
                "end_time": 4.3999999999999995,
                "pitch": 63,
                "velocity": 64,
                "duration": 0.39318181818181763,
                "tempo": 120.0
            },
            {
                "start_time": 4.418181818181818,
                "end_time": 4.793181818181818,
                "pitch": 51,
                "velocity": 64,
                "duration": 0.375,
                "tempo": 120.0
            },
            {
                "start_time": 4.809090909090909,
                "end_time": 5.202272727272727,
                "pitch": 63,
                "velocity": 64,
                "duration": 0.3931818181818185,
                "tempo": 120.0
            },
            {
                "start_time": 5.220454545454545,
                "end_time": 5.595454545454545,
                "pitch": 51,
                "velocity": 64,
                "duration": 0.375,
                "tempo": 120.0
            },
            {
                "start_time": 5.611363636363636,
                "end_time": 5.995454545454545,
                "pitch": 63,
                "velocity": 64,
                "duration": 0.3840909090909088,
                "tempo": 120.0
            },
            {
                "start_time": 6.011363636363636,
                "end_time": 6.3977272727272725,
                "pitch": 51,
                "velocity": 64,
                "duration": 0.3863636363636367,
                "tempo": 120.0
            }
        ],
        "Acoustic Grand Piano": [
            {
                "start_time": 0.022727272727272728,
                "end_time": 0.5909090909090908,
                "pitch": 75,
                "velocity": 20,
                "duration": 0.5681818181818181,
                "tempo": 120.0
            },
            {
                "start_time": 0.6068181818181818,
                "end_time": 2.1954545454545453,
                "pitch": 79,
                "velocity": 20,
                "duration": 1.5886363636363634,
                "tempo": 120.0
            },
            {
                "start_time": 2.2113636363636364,
                "end_time": 2.590909090909091,
                "pitch": 82,
                "velocity": 20,
                "duration": 0.3795454545454544,
                "tempo": 120.0
            },
            {
                "start_time": 2.6068181818181815,
                "end_time": 2.786363636363636,
                "pitch": 80,
                "velocity": 20,
                "duration": 0.17954545454545467,
                "tempo": 120.0
            },
            {
                "start_time": 2.8045454545454542,
                "end_time": 2.9863636363636363,
                "pitch": 79,
                "velocity": 20,
                "duration": 0.1818181818181821,
                "tempo": 120.0
            },
            {
                "start_time": 3.0045454545454544,
                "end_time": 4.793181818181818,
                "pitch": 75,
                "velocity": 20,
                "duration": 1.7886363636363636,
                "tempo": 120.0
            }
        ]
    }
}