{
    "track_id": "Galaxy Force (FM) - 07 - Name Entry",
    "mood": "happy",
    "instruments": {
        "Acoustic Grand Piano": [
            {
                "start_time": 0.0,
                "end_time": 1.6227272727272726,
                "pitch": 78,
                "velocity": 64,
                "duration": 1.6227272727272726,
                "tempo": 120.0
            },
            {
                "start_time": 1.6409090909090909,
                "end_time": 3.227272727272727,
                "pitch": 76,
                "velocity": 64,
                "duration": 1.5863636363636362,
                "tempo": 120.0
            },
            {
                "start_time": 3.245454545454545,
                "end_time": 4.029545454545454,
                "pitch": 76,
                "velocity": 64,
                "duration": 0.7840909090909092,
                "tempo": 120.0
            },
            {
                "start_time": 4.322727272727272,
                "end_time": 4.834090909090909,
                "pitch": 76,
                "velocity": 64,
                "duration": 0.5113636363636367,
                "tempo": 120.0
            },
            {
                "start_time": 4.852272727272727,
                "end_time": 6.4386363636363635,
                "pitch": 76,
                "velocity": 64,
                "duration": 1.5863636363636369,
                "tempo": 120.0
            },
            {
                "start_time": 6.456818181818181,
                "end_time": 7.243181818181818,
                "pitch": 74,
                "velocity": 64,
                "duration": 0.786363636363637,
                "tempo": 120.0
            },
            {
                "start_time": 7.536363636363636,
                "end_time": 7.654545454545454,
                "pitch": 74,
                "velocity": 64,
                "duration": 0.11818181818181817,
                "tempo": 120.0
            },
            {
                "start_time": 8.065909090909091,
                "end_time": 8.179545454545455,
                "pitch": 73,
                "velocity": 64,
                "duration": 0.11363636363636331,
                "tempo": 120.0
            },
            {
                "start_time": 8.73409090909091,
                "end_time": 9.522727272727272,
                "pitch": 73,
                "velocity": 64,
                "duration": 0.7886363636363622,
                "tempo": 120.0
            },
            {
                "start_time": 9.670454545454545,
                "end_time": 10.454545454545453,
                "pitch": 73,
                "velocity": 64,
                "duration": 0.7840909090909083,
                "tempo": 120.0
            },
            {
                "start_time": 10.747727272727273,
                "end_time": 10.86590909090909,
                "pitch": 73,
                "velocity": 64,
                "duration": 0.11818181818181728,
                "tempo": 120.0
            },
            {
                "start_time": 11.26590909090909,
                "end_time": 12.863636363636363,
                "pitch": 73,
                "velocity": 64,
                "duration": 1.5977272727272727,
                "tempo": 120.0
            },
            {
                "start_time": 12.881818181818181,
                "end_time": 13.668181818181818,
                "pitch": 74,
                "velocity": 64,
                "duration": 0.786363636363637,
                "tempo": 120.0
            },
            {
                "start_time": 13.961363636363636,
                "end_time": 14.079545454545453,
                "pitch": 74,
                "velocity": 64,
                "duration": 0.11818181818181728,
                "tempo": 120.0
            },
            {
                "start_time": 14.479545454545454,
                "end_time": 14.597727272727273,
                "pitch": 73,
                "velocity": 64,
                "duration": 0.11818181818181905,
                "tempo": 120.0
            },
            {
                "start_time": 15.159090909090908,
                "end_time": 15.947727272727272,
                "pitch": 73,
                "velocity": 64,
                "duration": 0.788636363636364,
                "tempo": 120.0
            },
            {
                "start_time": 16.095454545454544,
                "end_time": 16.884090909090908,
                "pitch": 73,
                "velocity": 64,
                "duration": 0.788636363636364,
                "tempo": 120.0
            },
            {
                "start_time": 17.175,
                "end_time": 17.293181818181818,
                "pitch": 73,
                "velocity": 64,
                "duration": 0.11818181818181728,
                "tempo": 120.0
            },
            {
                "start_time": 17.704545454545453,
                "end_time": 18.488636363636363,
                "pitch": 73,
                "velocity": 64,
                "duration": 0.7840909090909101,
                "tempo": 120.0
            },
            {
                "start_time": 18.775,
                "end_time": 18.89090909090909,
                "pitch": 73,
                "velocity": 64,
                "duration": 0.11590909090909207,
                "tempo": 120.0
            },
            {
                "start_time": 19.30909090909091,
                "end_time": 20.897727272727273,
                "pitch": 78,
                "velocity": 64,
                "duration": 1.5886363636363647,
                "tempo": 120.0
            },
            {
                "start_time": 20.91590909090909,
                "end_time": 22.5,
                "pitch": 76,
                "velocity": 64,
                "duration": 1.5840909090909108,
                "tempo": 120.0
            },
            {
                "start_time": 22.518181818181816,
                "end_time": 23.302272727272726,
                "pitch": 76,
                "velocity": 64,
                "duration": 0.7840909090909101,
                "tempo": 120.0
            },
            {
                "start_time": 23.59318181818182,
                "end_time": 23.71363636363636,
                "pitch": 76,
                "velocity": 64,
                "duration": 0.12045454545454248,
                "tempo": 120.0
            },
            {
                "start_time": 24.12272727272727,
                "end_time": 25.709090909090907,
                "pitch": 76,
                "velocity": 64,
                "duration": 1.586363636363636,
                "tempo": 120.0
            },
            {
                "start_time": 25.727272727272727,
                "end_time": 26.511363636363637,
                "pitch": 74,
                "velocity": 64,
                "duration": 0.7840909090909101,
                "tempo": 120.0
            },
            {
                "start_time": 26.802272727272726,
                "end_time": 26.920454545454543,
                "pitch": 74,
                "velocity": 64,
                "duration": 0.11818181818181728,
                "tempo": 120.0
            },
            {
                "start_time": 27.331818181818182,
                "end_time": 27.44772727272727,
                "pitch": 73,
                "velocity": 64,
                "duration": 0.11590909090908852,
                "tempo": 120.0
            },
            {
                "start_time": 28.0,
                "end_time": 28.78863636363636,
                "pitch": 73,
                "velocity": 64,
                "duration": 0.7886363636363605,
                "tempo": 120.0
            },
            {
                "start_time": 28.938636363636363,
                "end_time": 29.720454545454544,
                "pitch": 73,
                "velocity": 64,
                "duration": 0.7818181818181813,
                "tempo": 120.0
            },
            {
                "start_time": 29.738636363636363,
                "end_time": 30.52272727272727,
                "pitch": 77,
                "velocity": 64,
                "duration": 0.7840909090909065,
                "tempo": 120.0
            },
            {
                "start_time": 30.54090909090909,
                "end_time": 30.65681818181818,
                "pitch": 76,
                "velocity": 64,
                "duration": 0.11590909090909207,
                "tempo": 120.0
            },
            {
                "start_time": 31.138636363636362,
                "end_time": 31.93409090909091,
                "pitch": 75,
                "velocity": 64,
                "duration": 0.7954545454545467,
                "tempo": 120.0
            },
            {
                "start_time": 32.14772727272727,
                "end_time": 33.736363636363635,
                "pitch": 74,
                "velocity": 64,
                "duration": 1.5886363636363612,
                "tempo": 120.0
            },
            {
                "start_time": 33.75454545454545,
                "end_time": 35.34318181818182,
                "pitch": 73,
                "velocity": 64,
                "duration": 1.5886363636363683,
                "tempo": 120.0
            },
            {
                "start_time": 35.62045454545454,
                "end_time": 35.73409090909091,
                "pitch": 78,
                "velocity": 64,
                "duration": 0.11363636363636687,
                "tempo": 120.0
            },
            {
                "start_time": 36.152272727272724,
                "end_time": 36.268181818181816,
                "pitch": 78,
                "velocity": 64,
                "duration": 0.11590909090909207,
                "tempo": 120.0
            },
            {
                "start_time": 36.97272727272727,
                "end_time": 37.08409090909091,
                "pitch": 78,
                "velocity": 64,
                "duration": 0.11136363636364166,
                "tempo": 120.0
            },
            {
                "start_time": 37.62272727272727,
                "end_time": 38.559090909090905,
                "pitch": 78,
                "velocity": 64,
                "duration": 0.9363636363636374,
                "tempo": 120.0
            }
        ],
        "Acoustic Bass": [
            {
                "start_time": 0.0,
                "end_time": 0.7977272727272727,
                "pitch": 47,
                "velocity": 80,
                "duration": 0.7977272727272727,
                "tempo": 120.0
            },
            {
                "start_time": 0.8159090909090909,
                "end_time": 1.6227272727272726,
                "pitch": 42,
                "velocity": 80,
                "duration": 0.8068181818181817,
                "tempo": 120.0
            },
            {
                "start_time": 1.6386363636363634,
                "end_time": 2.425,
                "pitch": 40,
                "velocity": 80,
                "duration": 0.7863636363636364,
                "tempo": 120.0
            },
            {
                "start_time": 2.440909090909091,
                "end_time": 2.834090909090909,
                "pitch": 47,
                "velocity": 80,
                "duration": 0.3931818181818181,
                "tempo": 120.0
            },
            {
                "start_time": 2.852272727272727,
                "end_time": 3.227272727272727,
                "pitch": 52,
                "velocity": 80,
                "duration": 0.375,
                "tempo": 120.0
            },
            {
                "start_time": 3.245454545454545,
                "end_time": 4.029545454545454,
                "pitch": 45,
                "velocity": 80,
                "duration": 0.7840909090909092,
                "tempo": 120.0
            },
            {
                "start_time": 4.047727272727273,
                "end_time": 4.4409090909090905,
                "pitch": 52,
                "velocity": 80,
                "duration": 0.39318181818181763,
                "tempo": 120.0
            },
            {
                "start_time": 4.456818181818182,
                "end_time": 4.834090909090909,
                "pitch": 51,
                "velocity": 80,
                "duration": 0.377272727272727,
                "tempo": 120.0
            },
            {
                "start_time": 4.85,
                "end_time": 5.636363636363636,
                "pitch": 50,
                "velocity": 80,
                "duration": 0.7863636363636362,
                "tempo": 120.0
            },
            {
                "start_time": 5.652272727272727,
                "end_time": 6.4386363636363635,
                "pitch": 42,
                "velocity": 80,
                "duration": 0.7863636363636362,
                "tempo": 120.0
            },
            {
                "start_time": 6.456818181818181,
                "end_time": 7.243181818181818,
                "pitch": 44,
                "velocity": 80,
                "duration": 0.786363636363637,
                "tempo": 120.0
            },
            {
                "start_time": 7.261363636363636,
                "end_time": 8.047727272727272,
                "pitch": 38,
                "velocity": 80,
                "duration": 0.7863636363636362,
                "tempo": 120.0
            },
            {
                "start_time": 8.063636363636363,
                "end_time": 8.85,
                "pitch": 37,
                "velocity": 80,
                "duration": 0.786363636363637,
                "tempo": 120.0
            },
            {
                "start_time": 8.86590909090909,
                "end_time": 9.652272727272727,
                "pitch": 41,
                "velocity": 80,
                "duration": 0.786363636363637,
                "tempo": 120.0
            },
            {
                "start_time": 9.670454545454545,
                "end_time": 10.454545454545453,
                "pitch": 42,
                "velocity": 80,
                "duration": 0.7840909090909083,
                "tempo": 120.0
            },
            {
                "start_time": 10.472727272727273,
                "end_time": 11.120454545454544,
                "pitch": 49,
                "velocity": 80,
                "duration": 0.6477272727272716,
                "tempo": 120.0
            },
            {
                "start_time": 11.136363636363637,
                "end_time": 11.247727272727273,
                "pitch": 54,
                "velocity": 80,
                "duration": 0.11136363636363633,
                "tempo": 120.0
            },
            {
                "start_time": 11.263636363636364,
                "end_time": 11.656818181818181,
                "pitch": 54,
                "velocity": 80,
                "duration": 0.39318181818181763,
                "tempo": 120.0
            },
            {
                "start_time": 11.674999999999999,
                "end_time": 12.059090909090909,
                "pitch": 53,
                "velocity": 80,
                "duration": 0.3840909090909097,
                "tempo": 120.0
            },
            {
                "start_time": 12.075,
                "end_time": 12.461363636363636,
                "pitch": 54,
                "velocity": 80,
                "duration": 0.3863636363636367,
                "tempo": 120.0
            },
            {
                "start_time": 12.477272727272727,
                "end_time": 12.863636363636363,
                "pitch": 55,
                "velocity": 80,
                "duration": 0.3863636363636367,
                "tempo": 120.0
            },
            {
                "start_time": 12.881818181818181,
                "end_time": 13.26590909090909,
                "pitch": 56,
                "velocity": 80,
                "duration": 0.3840909090909097,
                "tempo": 120.0
            },
            {
                "start_time": 13.284090909090908,
                "end_time": 13.668181818181818,
                "pitch": 54,
                "velocity": 80,
                "duration": 0.3840909090909097,
                "tempo": 120.0
            },
            {
                "start_time": 13.686363636363636,
                "end_time": 14.079545454545453,
                "pitch": 53,
                "velocity": 80,
                "duration": 0.39318181818181763,
                "tempo": 120.0
            },
            {
                "start_time": 14.095454545454544,
                "end_time": 14.461363636363636,
                "pitch": 51,
                "velocity": 80,
                "duration": 0.36590909090909207,
                "tempo": 120.0
            },
            {
                "start_time": 14.479545454545454,
                "end_time": 14.870454545454544,
                "pitch": 49,
                "velocity": 80,
                "duration": 0.39090909090909065,
                "tempo": 120.0
            },
            {
                "start_time": 14.888636363636364,
                "end_time": 15.274999999999999,
                "pitch": 47,
                "velocity": 80,
                "duration": 0.3863636363636349,
                "tempo": 120.0
            },
            {
                "start_time": 15.290909090909091,
                "end_time": 15.684090909090909,
                "pitch": 45,
                "velocity": 80,
                "duration": 0.39318181818181763,
                "tempo": 120.0
            },
            {
                "start_time": 15.702272727272726,
                "end_time": 16.077272727272728,
                "pitch": 44,
                "velocity": 80,
                "duration": 0.3750000000000018,
                "tempo": 120.0
            },
            {
                "start_time": 16.095454545454544,
                "end_time": 16.479545454545455,
                "pitch": 42,
                "velocity": 80,
                "duration": 0.3840909090909115,
                "tempo": 120.0
            },
            {
                "start_time": 16.49772727272727,
                "end_time": 16.881818181818183,
                "pitch": 44,
                "velocity": 80,
                "duration": 0.3840909090909115,
                "tempo": 120.0
            },
            {
                "start_time": 16.9,
                "end_time": 17.293181818181818,
                "pitch": 45,
                "velocity": 80,
                "duration": 0.3931818181818194,
                "tempo": 120.0
            },
            {
                "start_time": 17.311363636363634,
                "end_time": 17.686363636363634,
                "pitch": 44,
                "velocity": 80,
                "duration": 0.375,
                "tempo": 120.0
            },
            {
                "start_time": 17.702272727272728,
                "end_time": 18.08863636363636,
                "pitch": 42,
                "velocity": 80,
                "duration": 0.38636363636363313,
                "tempo": 120.0
            },
            {
                "start_time": 18.104545454545455,
                "end_time": 18.488636363636363,
                "pitch": 44,
                "velocity": 80,
                "duration": 0.38409090909090793,
                "tempo": 120.0
            },
            {
                "start_time": 18.50681818181818,
                "end_time": 18.89090909090909,
                "pitch": 45,
                "velocity": 80,
                "duration": 0.3840909090909115,
                "tempo": 120.0
            },
            {
                "start_time": 18.909090909090907,
                "end_time": 19.29090909090909,
                "pitch": 46,
                "velocity": 80,
                "duration": 0.3818181818181827,
                "tempo": 120.0
            },
            {
                "start_time": 19.30909090909091,
                "end_time": 19.69090909090909,
                "pitch": 47,
                "velocity": 80,
                "duration": 0.3818181818181827,
                "tempo": 120.0
            },
            {
                "start_time": 19.709090909090907,
                "end_time": 20.09318181818182,
                "pitch": 49,
                "velocity": 80,
                "duration": 0.3840909090909115,
                "tempo": 120.0
            },
            {
                "start_time": 20.111363636363635,
                "end_time": 20.504545454545454,
                "pitch": 50,
                "velocity": 80,
                "duration": 0.3931818181818194,
                "tempo": 120.0
            },
            {
                "start_time": 20.520454545454545,
                "end_time": 20.897727272727273,
                "pitch": 51,
                "velocity": 80,
                "duration": 0.37727272727272876,
                "tempo": 120.0
            },
            {
                "start_time": 20.913636363636364,
                "end_time": 21.297727272727272,
                "pitch": 52,
                "velocity": 80,
                "duration": 0.38409090909090793,
                "tempo": 120.0
            },
            {
                "start_time": 21.313636363636363,
                "end_time": 21.69772727272727,
                "pitch": 50,
                "velocity": 80,
                "duration": 0.38409090909090793,
                "tempo": 120.0
            },
            {
                "start_time": 21.71363636363636,
                "end_time": 22.10681818181818,
                "pitch": 49,
                "velocity": 80,
                "duration": 0.3931818181818194,
                "tempo": 120.0
            },
            {
                "start_time": 22.125,
                "end_time": 22.5,
                "pitch": 47,
                "velocity": 80,
                "duration": 0.375,
                "tempo": 120.0
            },
            {
                "start_time": 22.518181818181816,
                "end_time": 22.902272727272727,
                "pitch": 45,
                "velocity": 80,
                "duration": 0.3840909090909115,
                "tempo": 120.0
            },
            {
                "start_time": 22.920454545454543,
                "end_time": 23.302272727272726,
                "pitch": 37,
                "velocity": 80,
                "duration": 0.3818181818181827,
                "tempo": 120.0
            },
            {
                "start_time": 23.320454545454545,
                "end_time": 23.71363636363636,
                "pitch": 40,
                "velocity": 80,
                "duration": 0.39318181818181586,
                "tempo": 120.0
            },
            {
                "start_time": 23.729545454545452,
                "end_time": 24.10681818181818,
                "pitch": 45,
                "velocity": 80,
                "duration": 0.37727272727272876,
                "tempo": 120.0
            },
            {
                "start_time": 24.12272727272727,
                "end_time": 24.504545454545454,
                "pitch": 37,
                "velocity": 80,
                "duration": 0.3818181818181827,
                "tempo": 120.0
            },
            {
                "start_time": 24.52272727272727,
                "end_time": 24.90681818181818,
                "pitch": 42,
                "velocity": 80,
                "duration": 0.3840909090909115,
                "tempo": 120.0
            },
            {
                "start_time": 24.924999999999997,
                "end_time": 25.30909090909091,
                "pitch": 47,
                "velocity": 80,
                "duration": 0.3840909090909115,
                "tempo": 120.0
            },
            {
                "start_time": 25.325,
                "end_time": 25.709090909090907,
                "pitch": 45,
                "velocity": 80,
                "duration": 0.38409090909090793,
                "tempo": 120.0
            },
            {
                "start_time": 25.724999999999998,
                "end_time": 26.111363636363635,
                "pitch": 44,
                "velocity": 80,
                "duration": 0.3863636363636367,
                "tempo": 120.0
            },
            {
                "start_time": 26.127272727272725,
                "end_time": 26.511363636363637,
                "pitch": 46,
                "velocity": 80,
                "duration": 0.3840909090909115,
                "tempo": 120.0
            },
            {
                "start_time": 26.527272727272727,
                "end_time": 26.920454545454543,
                "pitch": 47,
                "velocity": 80,
                "duration": 0.39318181818181586,
                "tempo": 120.0
            },
            {
                "start_time": 26.938636363636363,
                "end_time": 27.313636363636363,
                "pitch": 48,
                "velocity": 80,
                "duration": 0.375,
                "tempo": 120.0
            },
            {
                "start_time": 27.331818181818182,
                "end_time": 27.71363636363636,
                "pitch": 49,
                "velocity": 80,
                "duration": 0.38181818181817917,
                "tempo": 120.0
            },
            {
                "start_time": 27.73181818181818,
                "end_time": 28.11590909090909,
                "pitch": 47,
                "velocity": 80,
                "duration": 0.38409090909090793,
                "tempo": 120.0
            },
            {
                "start_time": 28.134090909090908,
                "end_time": 28.527272727272727,
                "pitch": 45,
                "velocity": 80,
                "duration": 0.3931818181818194,
                "tempo": 120.0
            },
            {
                "start_time": 28.543181818181818,
                "end_time": 28.920454545454543,
                "pitch": 44,
                "velocity": 80,
                "duration": 0.3772727272727252,
                "tempo": 120.0
            },
            {
                "start_time": 28.936363636363634,
                "end_time": 29.318181818181817,
                "pitch": 42,
                "velocity": 80,
                "duration": 0.3818181818181827,
                "tempo": 120.0
            },
            {
                "start_time": 29.336363636363636,
                "end_time": 29.718181818181815,
                "pitch": 49,
                "velocity": 80,
                "duration": 0.38181818181817917,
                "tempo": 120.0
            },
            {
                "start_time": 29.736363636363635,
                "end_time": 30.52272727272727,
                "pitch": 53,
                "velocity": 80,
                "duration": 0.7863636363636353,
                "tempo": 120.0
            },
            {
                "start_time": 30.53863636363636,
                "end_time": 30.924999999999997,
                "pitch": 52,
                "velocity": 80,
                "duration": 0.3863636363636367,
                "tempo": 120.0
            },
            {
                "start_time": 31.202272727272724,
                "end_time": 32.13181818181818,
                "pitch": 51,
                "velocity": 80,
                "duration": 0.9295454545454582,
                "tempo": 120.0
            },
            {
                "start_time": 32.14772727272727,
                "end_time": 32.53181818181818,
                "pitch": 44,
                "velocity": 80,
                "duration": 0.38409090909090793,
                "tempo": 120.0
            },
            {
                "start_time": 32.55,
                "end_time": 32.934090909090905,
                "pitch": 46,
                "velocity": 80,
                "duration": 0.38409090909090793,
                "tempo": 120.0
            },
            {
                "start_time": 32.949999999999996,
                "end_time": 33.34318181818182,
                "pitch": 47,
                "velocity": 80,
                "duration": 0.39318181818182296,
                "tempo": 120.0
            },
            {
                "start_time": 33.361363636363635,
                "end_time": 33.736363636363635,
                "pitch": 48,
                "velocity": 80,
                "duration": 0.375,
                "tempo": 120.0
            },
            {
                "start_time": 33.752272727272725,
                "end_time": 34.13636363636363,
                "pitch": 49,
                "velocity": 80,
                "duration": 0.38409090909090793,
                "tempo": 120.0
            },
            {
                "start_time": 34.152272727272724,
                "end_time": 34.538636363636364,
                "pitch": 53,
                "velocity": 80,
                "duration": 0.38636363636364024,
                "tempo": 120.0
            },
            {
                "start_time": 34.554545454545455,
                "end_time": 34.94772727272727,
                "pitch": 56,
                "velocity": 80,
                "duration": 0.39318181818181586,
                "tempo": 120.0
            },
            {
                "start_time": 34.965909090909086,
                "end_time": 35.340909090909086,
                "pitch": 49,
                "velocity": 80,
                "duration": 0.375,
                "tempo": 120.0
            },
            {
                "start_time": 35.62045454545454,
                "end_time": 35.73409090909091,
                "pitch": 54,
                "velocity": 80,
                "duration": 0.11363636363636687,
                "tempo": 120.0
            },
            {
                "start_time": 36.15,
                "end_time": 36.268181818181816,
                "pitch": 54,
                "velocity": 80,
                "duration": 0.11818181818181728,
                "tempo": 120.0
            },
            {
                "start_time": 36.97272727272727,
                "end_time": 37.08409090909091,
                "pitch": 54,
                "velocity": 80,
                "duration": 0.11136363636364166,
                "tempo": 120.0
            },
            {
                "start_time": 37.62045454545454,
                "end_time": 38.559090909090905,
                "pitch": 54,
                "velocity": 80,
                "duration": 0.9386363636363626,
                "tempo": 120.0
            }
        ]
    }
}