{
    "track_id": "Global Defense (FM) - 04 - Perfect",
    "mood": "happy",
    "instruments": {
        "Acoustic Grand Piano": [
            {
                "start_time": 0.011363636363636364,
                "end_time": 0.07954545454545454,
                "pitch": 69,
                "velocity": 80,
                "duration": 0.06818181818181818,
                "tempo": 120.0
            },
            {
                "start_time": 0.19545454545454544,
                "end_time": 0.27954545454545454,
                "pitch": 69,
                "velocity": 80,
                "duration": 0.0840909090909091,
                "tempo": 120.0
            },
            {
                "start_time": 0.2954545454545454,
                "end_time": 0.3795454545454545,
                "pitch": 69,
                "velocity": 80,
                "duration": 0.0840909090909091,
                "tempo": 120.0
            },
            {
                "start_time": 0.39545454545454545,
                "end_time": 0.475,
                "pitch": 69,
                "velocity": 80,
                "duration": 0.07954545454545453,
                "tempo": 120.0
            },
            {
                "start_time": 0.5863636363636363,
                "end_time": 0.6659090909090909,
                "pitch": 69,
                "velocity": 80,
                "duration": 0.07954545454545459,
                "tempo": 120.0
            },
            {
                "start_time": 0.7772727272727272,
                "end_time": 1.1704545454545454,
                "pitch": 69,
                "velocity": 80,
                "duration": 0.3931818181818182,
                "tempo": 120.0
            },
            {
                "start_time": 1.1886363636363635,
                "end_time": 1.5727272727272728,
                "pitch": 69,
                "velocity": 80,
                "duration": 0.38409090909090926,
                "tempo": 120.0
            },
            {
                "start_time": 1.5886363636363636,
                "end_time": 1.7727272727272727,
                "pitch": 66,
                "velocity": 80,
                "duration": 0.18409090909090908,
                "tempo": 120.0
            },
            {
                "start_time": 1.7909090909090908,
                "end_time": 1.8727272727272726,
                "pitch": 66,
                "velocity": 80,
                "duration": 0.08181818181818179,
                "tempo": 120.0
            },
            {
                "start_time": 1.9909090909090907,
                "end_time": 2.175,
                "pitch": 66,
                "velocity": 80,
                "duration": 0.18409090909090908,
                "tempo": 120.0
            },
            {
                "start_time": 2.190909090909091,
                "end_time": 2.275,
                "pitch": 66,
                "velocity": 80,
                "duration": 0.084090909090909,
                "tempo": 120.0
            },
            {
                "start_time": 2.3909090909090907,
                "end_time": 2.7772727272727273,
                "pitch": 69,
                "velocity": 80,
                "duration": 0.3863636363636367,
                "tempo": 120.0
            },
            {
                "start_time": 2.793181818181818,
                "end_time": 3.1772727272727272,
                "pitch": 68,
                "velocity": 80,
                "duration": 0.38409090909090926,
                "tempo": 120.0
            },
            {
                "start_time": 3.193181818181818,
                "end_time": 3.277272727272727,
                "pitch": 69,
                "velocity": 80,
                "duration": 0.084090909090909,
                "tempo": 120.0
            },
            {
                "start_time": 3.393181818181818,
                "end_time": 3.477272727272727,
                "pitch": 69,
                "velocity": 80,
                "duration": 0.084090909090909,
                "tempo": 120.0
            },
            {
                "start_time": 3.493181818181818,
                "end_time": 3.577272727272727,
                "pitch": 69,
                "velocity": 80,
                "duration": 0.084090909090909,
                "tempo": 120.0
            },
            {
                "start_time": 3.593181818181818,
                "end_time": 3.675,
                "pitch": 69,
                "velocity": 80,
                "duration": 0.08181818181818201,
                "tempo": 120.0
            },
            {
                "start_time": 3.7886363636363636,
                "end_time": 3.870454545454545,
                "pitch": 69,
                "velocity": 80,
                "duration": 0.08181818181818157,
                "tempo": 120.0
            },
            {
                "start_time": 3.9863636363636363,
                "end_time": 4.379545454545454,
                "pitch": 68,
                "velocity": 80,
                "duration": 0.39318181818181763,
                "tempo": 120.0
            },
            {
                "start_time": 4.3977272727272725,
                "end_time": 4.790909090909091,
                "pitch": 68,
                "velocity": 80,
                "duration": 0.3931818181818185,
                "tempo": 120.0
            },
            {
                "start_time": 4.806818181818182,
                "end_time": 4.888636363636364,
                "pitch": 71,
                "velocity": 80,
                "duration": 0.08181818181818201,
                "tempo": 120.0
            },
            {
                "start_time": 5.004545454545454,
                "end_time": 5.086363636363636,
                "pitch": 71,
                "velocity": 80,
                "duration": 0.08181818181818201,
                "tempo": 120.0
            },
            {
                "start_time": 5.102272727272727,
                "end_time": 5.184090909090909,
                "pitch": 71,
                "velocity": 80,
                "duration": 0.08181818181818201,
                "tempo": 120.0
            },
            {
                "start_time": 5.2,
                "end_time": 5.284090909090909,
                "pitch": 71,
                "velocity": 80,
                "duration": 0.084090909090909,
                "tempo": 120.0
            },
            {
                "start_time": 5.402272727272727,
                "end_time": 5.4840909090909085,
                "pitch": 71,
                "velocity": 80,
                "duration": 0.08181818181818112,
                "tempo": 120.0
            },
            {
                "start_time": 5.602272727272727,
                "end_time": 6.186363636363636,
                "pitch": 69,
                "velocity": 80,
                "duration": 0.584090909090909,
                "tempo": 120.0
            }
        ]
    }
}