{
    "track_id": "Global Defense (FM) - 05 - We are Desirous of Peace (Ending)",
    "mood": "happy",
    "instruments": {
        "Acoustic Grand Piano": [
            {
                "start_time": 0.004545454545454545,
                "end_time": 1.259090909090909,
                "pitch": 65,
                "velocity": 64,
                "duration": 1.2545454545454544,
                "tempo": 120.0
            },
            {
                "start_time": 1.2772727272727271,
                "end_time": 2.609090909090909,
                "pitch": 62,
                "velocity": 51,
                "duration": 1.3318181818181818,
                "tempo": 120.0
            },
            {
                "start_time": 2.625,
                "end_time": 3.9272727272727272,
                "pitch": 65,
                "velocity": 51,
                "duration": 1.3022727272727272,
                "tempo": 120.0
            },
            {
                "start_time": 3.9454545454545453,
                "end_time": 5.277272727272727,
                "pitch": 62,
                "velocity": 51,
                "duration": 1.331818181818182,
                "tempo": 120.0
            },
            {
                "start_time": 5.293181818181818,
                "end_time": 6.588636363636363,
                "pitch": 65,
                "velocity": 51,
                "duration": 1.295454545454545,
                "tempo": 120.0
            },
            {
                "start_time": 6.6068181818181815,
                "end_time": 7.9386363636363635,
                "pitch": 62,
                "velocity": 51,
                "duration": 1.331818181818182,
                "tempo": 120.0
            },
            {
                "start_time": 7.954545454545454,
                "end_time": 9.272727272727272,
                "pitch": 65,
                "velocity": 51,
                "duration": 1.3181818181818175,
                "tempo": 120.0
            },
            {
                "start_time": 9.288636363636364,
                "end_time": 10.6,
                "pitch": 62,
                "velocity": 51,
                "duration": 1.3113636363636356,
                "tempo": 120.0
            },
            {
                "start_time": 10.61590909090909,
                "end_time": 12.779545454545454,
                "pitch": 62,
                "velocity": 51,
                "duration": 2.163636363636364,
                "tempo": 120.0
            },
            {
                "start_time": 12.795454545454545,
                "end_time": 12.945454545454545,
                "pitch": 62,
                "velocity": 51,
                "duration": 0.15000000000000036,
                "tempo": 120.0
            },
            {
                "start_time": 12.963636363636363,
                "end_time": 13.113636363636363,
                "pitch": 62,
                "velocity": 51,
                "duration": 0.15000000000000036,
                "tempo": 120.0
            },
            {
                "start_time": 13.131818181818181,
                "end_time": 13.281818181818181,
                "pitch": 62,
                "velocity": 51,
                "duration": 0.15000000000000036,
                "tempo": 120.0
            },
            {
                "start_time": 13.297727272727272,
                "end_time": 13.618181818181817,
                "pitch": 64,
                "velocity": 51,
                "duration": 0.3204545454545453,
                "tempo": 120.0
            },
            {
                "start_time": 13.634090909090908,
                "end_time": 15.618181818181817,
                "pitch": 62,
                "velocity": 51,
                "duration": 1.9840909090909093,
                "tempo": 120.0
            },
            {
                "start_time": 15.634090909090908,
                "end_time": 15.784090909090908,
                "pitch": 57,
                "velocity": 51,
                "duration": 0.15000000000000036,
                "tempo": 120.0
            },
            {
                "start_time": 15.799999999999999,
                "end_time": 18.127272727272725,
                "pitch": 62,
                "velocity": 51,
                "duration": 2.3272727272727263,
                "tempo": 120.0
            },
            {
                "start_time": 18.145454545454545,
                "end_time": 18.293181818181818,
                "pitch": 62,
                "velocity": 51,
                "duration": 0.14772727272727337,
                "tempo": 120.0
            },
            {
                "start_time": 18.311363636363634,
                "end_time": 18.459090909090907,
                "pitch": 62,
                "velocity": 51,
                "duration": 0.14772727272727337,
                "tempo": 120.0
            },
            {
                "start_time": 18.474999999999998,
                "end_time": 18.625,
                "pitch": 67,
                "velocity": 51,
                "duration": 0.15000000000000213,
                "tempo": 120.0
            },
            {
                "start_time": 18.64090909090909,
                "end_time": 18.956818181818182,
                "pitch": 67,
                "velocity": 51,
                "duration": 0.31590909090909136,
                "tempo": 120.0
            },
            {
                "start_time": 18.972727272727273,
                "end_time": 19.96590909090909,
                "pitch": 67,
                "velocity": 51,
                "duration": 0.9931818181818173,
                "tempo": 120.0
            },
            {
                "start_time": 19.98409090909091,
                "end_time": 20.636363636363637,
                "pitch": 67,
                "velocity": 51,
                "duration": 0.6522727272727273,
                "tempo": 120.0
            },
            {
                "start_time": 20.654545454545453,
                "end_time": 20.804545454545455,
                "pitch": 67,
                "velocity": 51,
                "duration": 0.15000000000000213,
                "tempo": 120.0
            },
            {
                "start_time": 20.820454545454545,
                "end_time": 21.3,
                "pitch": 72,
                "velocity": 51,
                "duration": 0.4795454545454554,
                "tempo": 120.0
            },
            {
                "start_time": 21.318181818181817,
                "end_time": 23.304545454545455,
                "pitch": 74,
                "velocity": 51,
                "duration": 1.986363636363638,
                "tempo": 120.0
            },
            {
                "start_time": 23.32272727272727,
                "end_time": 23.520454545454545,
                "pitch": 74,
                "velocity": 51,
                "duration": 0.19772727272727408,
                "tempo": 120.0
            },
            {
                "start_time": 23.538636363636364,
                "end_time": 23.736363636363635,
                "pitch": 74,
                "velocity": 51,
                "duration": 0.19772727272727053,
                "tempo": 120.0
            },
            {
                "start_time": 23.752272727272725,
                "end_time": 23.96818181818182,
                "pitch": 74,
                "velocity": 51,
                "duration": 0.2159090909090935,
                "tempo": 120.0
            },
            {
                "start_time": 23.986363636363635,
                "end_time": 24.304545454545455,
                "pitch": 78,
                "velocity": 51,
                "duration": 0.3181818181818201,
                "tempo": 120.0
            },
            {
                "start_time": 24.320454545454545,
                "end_time": 26.345454545454544,
                "pitch": 69,
                "velocity": 51,
                "duration": 2.0249999999999986,
                "tempo": 120.0
            },
            {
                "start_time": 26.361363636363635,
                "end_time": 26.511363636363637,
                "pitch": 69,
                "velocity": 51,
                "duration": 0.15000000000000213,
                "tempo": 120.0
            },
            {
                "start_time": 26.527272727272727,
                "end_time": 29.020454545454545,
                "pitch": 74,
                "velocity": 51,
                "duration": 2.4931818181818173,
                "tempo": 120.0
            },
            {
                "start_time": 29.036363636363635,
                "end_time": 29.186363636363634,
                "pitch": 79,
                "velocity": 51,
                "duration": 0.14999999999999858,
                "tempo": 120.0
            },
            {
                "start_time": 29.202272727272724,
                "end_time": 29.352272727272727,
                "pitch": 79,
                "velocity": 51,
                "duration": 0.15000000000000213,
                "tempo": 120.0
            },
            {
                "start_time": 29.368181818181817,
                "end_time": 30.327272727272724,
                "pitch": 76,
                "velocity": 51,
                "duration": 0.9590909090909072,
                "tempo": 120.0
            },
            {
                "start_time": 30.345454545454544,
                "end_time": 30.502272727272725,
                "pitch": 76,
                "velocity": 51,
                "duration": 0.1568181818181813,
                "tempo": 120.0
            },
            {
                "start_time": 30.520454545454545,
                "end_time": 30.677272727272726,
                "pitch": 76,
                "velocity": 51,
                "duration": 0.1568181818181813,
                "tempo": 120.0
            },
            {
                "start_time": 30.695454545454545,
                "end_time": 32.02045454545454,
                "pitch": 76,
                "velocity": 51,
                "duration": 1.3249999999999957,
                "tempo": 120.0
            },
            {
                "start_time": 32.03636363636363,
                "end_time": 32.18181818181818,
                "pitch": 74,
                "velocity": 51,
                "duration": 0.14545454545454817,
                "tempo": 120.0
            },
            {
                "start_time": 32.19772727272727,
                "end_time": 32.34318181818182,
                "pitch": 74,
                "velocity": 13,
                "duration": 0.14545454545454817,
                "tempo": 120.0
            },
            {
                "start_time": 32.35909090909091,
                "end_time": 32.502272727272725,
                "pitch": 74,
                "velocity": 16,
                "duration": 0.14318181818181586,
                "tempo": 120.0
            },
            {
                "start_time": 32.518181818181816,
                "end_time": 32.663636363636364,
                "pitch": 74,
                "velocity": 20,
                "duration": 0.14545454545454817,
                "tempo": 120.0
            },
            {
                "start_time": 32.679545454545455,
                "end_time": 32.82954545454545,
                "pitch": 74,
                "velocity": 20,
                "duration": 0.14999999999999858,
                "tempo": 120.0
            },
            {
                "start_time": 32.845454545454544,
                "end_time": 32.99545454545454,
                "pitch": 74,
                "velocity": 20,
                "duration": 0.14999999999999858,
                "tempo": 120.0
            },
            {
                "start_time": 33.01136363636363,
                "end_time": 33.16136363636363,
                "pitch": 74,
                "velocity": 25,
                "duration": 0.14999999999999858,
                "tempo": 120.0
            },
            {
                "start_time": 33.17727272727272,
                "end_time": 33.32727272727273,
                "pitch": 74,
                "velocity": 25,
                "duration": 0.15000000000000568,
                "tempo": 120.0
            },
            {
                "start_time": 33.34318181818182,
                "end_time": 33.49090909090909,
                "pitch": 74,
                "velocity": 32,
                "duration": 0.14772727272727337,
                "tempo": 120.0
            },
            {
                "start_time": 33.50909090909091,
                "end_time": 33.65681818181818,
                "pitch": 74,
                "velocity": 32,
                "duration": 0.14772727272727337,
                "tempo": 120.0
            },
            {
                "start_time": 33.675,
                "end_time": 33.82272727272727,
                "pitch": 74,
                "velocity": 40,
                "duration": 0.14772727272727337,
                "tempo": 120.0
            },
            {
                "start_time": 33.840909090909086,
                "end_time": 33.98863636363636,
                "pitch": 74,
                "velocity": 40,
                "duration": 0.14772727272727337,
                "tempo": 120.0
            },
            {
                "start_time": 34.00681818181818,
                "end_time": 34.15681818181818,
                "pitch": 74,
                "velocity": 51,
                "duration": 0.14999999999999858,
                "tempo": 120.0
            },
            {
                "start_time": 34.17272727272727,
                "end_time": 34.65909090909091,
                "pitch": 74,
                "velocity": 64,
                "duration": 0.48636363636363455,
                "tempo": 120.0
            },
            {
                "start_time": 34.67727272727272,
                "end_time": 35.33181818181818,
                "pitch": 53,
                "velocity": 64,
                "duration": 0.6545454545454561,
                "tempo": 120.0
            },
            {
                "start_time": 35.34772727272727,
                "end_time": 36.002272727272725,
                "pitch": 53,
                "velocity": 64,
                "duration": 0.6545454545454561,
                "tempo": 120.0
            },
            {
                "start_time": 36.018181818181816,
                "end_time": 36.168181818181814,
                "pitch": 53,
                "velocity": 64,
                "duration": 0.14999999999999858,
                "tempo": 120.0
            },
            {
                "start_time": 36.18636363636364,
                "end_time": 36.336363636363636,
                "pitch": 60,
                "velocity": 64,
                "duration": 0.14999999999999858,
                "tempo": 120.0
            },
            {
                "start_time": 36.35454545454545,
                "end_time": 36.50454545454545,
                "pitch": 60,
                "velocity": 64,
                "duration": 0.14999999999999858,
                "tempo": 120.0
            },
            {
                "start_time": 36.52045454545454,
                "end_time": 36.67272727272727,
                "pitch": 65,
                "velocity": 64,
                "duration": 0.1522727272727309,
                "tempo": 120.0
            },
            {
                "start_time": 36.68863636363636,
                "end_time": 36.83409090909091,
                "pitch": 65,
                "velocity": 64,
                "duration": 0.14545454545454817,
                "tempo": 120.0
            },
            {
                "start_time": 36.85,
                "end_time": 36.99772727272727,
                "pitch": 69,
                "velocity": 64,
                "duration": 0.14772727272726627,
                "tempo": 120.0
            },
            {
                "start_time": 37.01363636363636,
                "end_time": 37.15909090909091,
                "pitch": 69,
                "velocity": 64,
                "duration": 0.14545454545454817,
                "tempo": 120.0
            },
            {
                "start_time": 37.175,
                "end_time": 37.320454545454545,
                "pitch": 72,
                "velocity": 64,
                "duration": 0.14545454545454817,
                "tempo": 120.0
            },
            {
                "start_time": 37.33863636363636,
                "end_time": 37.99772727272727,
                "pitch": 55,
                "velocity": 64,
                "duration": 0.6590909090909065,
                "tempo": 120.0
            },
            {
                "start_time": 38.01590909090909,
                "end_time": 38.67045454545455,
                "pitch": 55,
                "velocity": 64,
                "duration": 0.6545454545454561,
                "tempo": 120.0
            },
            {
                "start_time": 38.68636363636364,
                "end_time": 39.340909090909086,
                "pitch": 55,
                "velocity": 64,
                "duration": 0.654545454545449,
                "tempo": 120.0
            },
            {
                "start_time": 39.35681818181818,
                "end_time": 40.00454545454545,
                "pitch": 55,
                "velocity": 64,
                "duration": 0.6477272727272734,
                "tempo": 120.0
            },
            {
                "start_time": 40.02045454545454,
                "end_time": 40.675,
                "pitch": 53,
                "velocity": 64,
                "duration": 0.6545454545454561,
                "tempo": 120.0
            },
            {
                "start_time": 40.69090909090909,
                "end_time": 41.345454545454544,
                "pitch": 53,
                "velocity": 64,
                "duration": 0.6545454545454561,
                "tempo": 120.0
            },
            {
                "start_time": 41.361363636363635,
                "end_time": 42.00909090909091,
                "pitch": 53,
                "velocity": 64,
                "duration": 0.6477272727272734,
                "tempo": 120.0
            },
            {
                "start_time": 42.025,
                "end_time": 42.679545454545455,
                "pitch": 53,
                "velocity": 64,
                "duration": 0.6545454545454561,
                "tempo": 120.0
            },
            {
                "start_time": 42.695454545454545,
                "end_time": 43.01363636363636,
                "pitch": 60,
                "velocity": 64,
                "duration": 0.318181818181813,
                "tempo": 120.0
            },
            {
                "start_time": 43.03181818181818,
                "end_time": 43.18181818181818,
                "pitch": 60,
                "velocity": 64,
                "duration": 0.14999999999999858,
                "tempo": 120.0
            },
            {
                "start_time": 43.199999999999996,
                "end_time": 43.695454545454545,
                "pitch": 60,
                "velocity": 64,
                "duration": 0.4954545454545496,
                "tempo": 120.0
            },
            {
                "start_time": 43.71363636363636,
                "end_time": 43.86818181818182,
                "pitch": 60,
                "velocity": 64,
                "duration": 0.1545454545454561,
                "tempo": 120.0
            },
            {
                "start_time": 43.88636363636363,
                "end_time": 45.377272727272725,
                "pitch": 57,
                "velocity": 64,
                "duration": 1.490909090909092,
                "tempo": 120.0
            },
            {
                "start_time": 45.39545454545454,
                "end_time": 45.70227272727273,
                "pitch": 62,
                "velocity": 64,
                "duration": 0.306818181818187,
                "tempo": 120.0
            },
            {
                "start_time": 45.720454545454544,
                "end_time": 45.86590909090909,
                "pitch": 57,
                "velocity": 64,
                "duration": 0.14545454545454817,
                "tempo": 120.0
            },
            {
                "start_time": 45.88181818181818,
                "end_time": 47.538636363636364,
                "pitch": 57,
                "velocity": 64,
                "duration": 1.6568181818181813,
                "tempo": 120.0
            },
            {
                "start_time": 47.554545454545455,
                "end_time": 47.699999999999996,
                "pitch": 57,
                "velocity": 64,
                "duration": 0.14545454545454106,
                "tempo": 120.0
            },
            {
                "start_time": 47.71818181818182,
                "end_time": 47.86363636363636,
                "pitch": 57,
                "velocity": 64,
                "duration": 0.14545454545454106,
                "tempo": 120.0
            },
            {
                "start_time": 47.87954545454545,
                "end_time": 48.025,
                "pitch": 62,
                "velocity": 64,
                "duration": 0.14545454545454817,
                "tempo": 120.0
            },
            {
                "start_time": 48.04090909090909,
                "end_time": 48.349999999999994,
                "pitch": 60,
                "velocity": 64,
                "duration": 0.3090909090909051,
                "tempo": 120.0
            },
            {
                "start_time": 48.36590909090909,
                "end_time": 48.51136363636363,
                "pitch": 55,
                "velocity": 64,
                "duration": 0.14545454545454106,
                "tempo": 120.0
            },
            {
                "start_time": 48.527272727272724,
                "end_time": 49.54090909090909,
                "pitch": 55,
                "velocity": 64,
                "duration": 1.0136363636363654,
                "tempo": 120.0
            },
            {
                "start_time": 49.55681818181818,
                "end_time": 49.70681818181818,
                "pitch": 64,
                "velocity": 64,
                "duration": 0.14999999999999858,
                "tempo": 120.0
            },
            {
                "start_time": 49.72272727272727,
                "end_time": 49.87272727272727,
                "pitch": 64,
                "velocity": 25,
                "duration": 0.14999999999999858,
                "tempo": 120.0
            },
            {
                "start_time": 49.88863636363636,
                "end_time": 50.038636363636364,
                "pitch": 64,
                "velocity": 25,
                "duration": 0.15000000000000568,
                "tempo": 120.0
            },
            {
                "start_time": 50.054545454545455,
                "end_time": 50.199999999999996,
                "pitch": 64,
                "velocity": 32,
                "duration": 0.14545454545454106,
                "tempo": 120.0
            },
            {
                "start_time": 50.215909090909086,
                "end_time": 50.35909090909091,
                "pitch": 64,
                "velocity": 40,
                "duration": 0.14318181818182296,
                "tempo": 120.0
            },
            {
                "start_time": 50.375,
                "end_time": 50.52045454545454,
                "pitch": 64,
                "velocity": 40,
                "duration": 0.14545454545454106,
                "tempo": 120.0
            },
            {
                "start_time": 50.53636363636363,
                "end_time": 50.679545454545455,
                "pitch": 64,
                "velocity": 51,
                "duration": 0.14318181818182296,
                "tempo": 120.0
            },
            {
                "start_time": 50.69772727272727,
                "end_time": 51.01590909090909,
                "pitch": 62,
                "velocity": 64,
                "duration": 0.3181818181818201,
                "tempo": 120.0
            },
            {
                "start_time": 51.03181818181818,
                "end_time": 51.18181818181818,
                "pitch": 62,
                "velocity": 64,
                "duration": 0.14999999999999858,
                "tempo": 120.0
            },
            {
                "start_time": 51.199999999999996,
                "end_time": 52.21818181818182,
                "pitch": 57,
                "velocity": 64,
                "duration": 1.018181818181823,
                "tempo": 120.0
            },
            {
                "start_time": 52.236363636363635,
                "end_time": 52.38409090909091,
                "pitch": 57,
                "velocity": 64,
                "duration": 0.14772727272727337,
                "tempo": 120.0
            },
            {
                "start_time": 52.402272727272724,
                "end_time": 52.55,
                "pitch": 58,
                "velocity": 64,
                "duration": 0.14772727272727337,
                "tempo": 120.0
            },
            {
                "start_time": 52.56818181818181,
                "end_time": 52.73409090909091,
                "pitch": 60,
                "velocity": 64,
                "duration": 0.16590909090909634,
                "tempo": 120.0
            },
            {
                "start_time": 52.75,
                "end_time": 52.91590909090909,
                "pitch": 62,
                "velocity": 64,
                "duration": 0.16590909090908923,
                "tempo": 120.0
            },
            {
                "start_time": 52.93181818181818,
                "end_time": 53.09772727272727,
                "pitch": 64,
                "velocity": 64,
                "duration": 0.16590909090908923,
                "tempo": 120.0
            },
            {
                "start_time": 53.11363636363636,
                "end_time": 53.29772727272727,
                "pitch": 65,
                "velocity": 64,
                "duration": 0.1840909090909122,
                "tempo": 120.0
            },
            {
                "start_time": 53.31363636363636,
                "end_time": 53.49545454545454,
                "pitch": 60,
                "velocity": 64,
                "duration": 0.18181818181817988,
                "tempo": 120.0
            },
            {
                "start_time": 53.51136363636363,
                "end_time": 54.47954545454545,
                "pitch": 62,
                "velocity": 64,
                "duration": 0.9681818181818187,
                "tempo": 120.0
            },
            {
                "start_time": 54.5,
                "end_time": 55.586363636363636,
                "pitch": 60,
                "velocity": 64,
                "duration": 1.086363636363636,
                "tempo": 120.0
            },
            {
                "start_time": 55.60681818181818,
                "end_time": 56.77045454545454,
                "pitch": 55,
                "velocity": 64,
                "duration": 1.163636363636364,
                "tempo": 120.0
            },
            {
                "start_time": 56.79090909090909,
                "end_time": 58.01590909090909,
                "pitch": 67,
                "velocity": 64,
                "duration": 1.2250000000000014,
                "tempo": 120.0
            },
            {
                "start_time": 58.038636363636364,
                "end_time": 59.93181818181818,
                "pitch": 50,
                "velocity": 64,
                "duration": 1.8931818181818159,
                "tempo": 120.0
            },
            {
                "start_time": 63.93636363636363,
                "end_time": 65.9090909090909,
                "pitch": 61,
                "velocity": 64,
                "duration": 1.9727272727272762,
                "tempo": 120.0
            }
        ]
    }
}