{
    "track_id": "Golvellius - Valley of Doom (FM) - 10 - Victory",
    "mood": "happy",
    "instruments": {
        "Acoustic Guitar (nylon)": [
            {
                "start_time": 0.024999999999999998,
                "end_time": 0.19318181818181818,
                "pitch": 38,
                "velocity": 101,
                "duration": 0.16818181818181818,
                "tempo": 120.0
            },
            {
                "start_time": 0.19318181818181818,
                "end_time": 0.37727272727272726,
                "pitch": 38,
                "velocity": 101,
                "duration": 0.18409090909090908,
                "tempo": 120.0
            },
            {
                "start_time": 0.37727272727272726,
                "end_time": 0.5272727272727272,
                "pitch": 45,
                "velocity": 101,
                "duration": 0.14999999999999997,
                "tempo": 120.0
            },
            {
                "start_time": 0.5272727272727272,
                "end_time": 0.7136363636363636,
                "pitch": 42,
                "velocity": 101,
                "duration": 0.1863636363636364,
                "tempo": 120.0
            },
            {
                "start_time": 0.7136363636363636,
                "end_time": 0.8681818181818182,
                "pitch": 33,
                "velocity": 101,
                "duration": 0.15454545454545454,
                "tempo": 120.0
            },
            {
                "start_time": 0.8681818181818182,
                "end_time": 1.0431818181818182,
                "pitch": 33,
                "velocity": 101,
                "duration": 0.17500000000000004,
                "tempo": 120.0
            },
            {
                "start_time": 1.0431818181818182,
                "end_time": 1.2159090909090908,
                "pitch": 40,
                "velocity": 101,
                "duration": 0.17272727272727262,
                "tempo": 120.0
            },
            {
                "start_time": 1.2159090909090908,
                "end_time": 1.4068181818181817,
                "pitch": 37,
                "velocity": 101,
                "duration": 0.19090909090909092,
                "tempo": 120.0
            },
            {
                "start_time": 1.4068181818181817,
                "end_time": 1.5568181818181817,
                "pitch": 37,
                "velocity": 101,
                "duration": 0.1499999999999999,
                "tempo": 120.0
            },
            {
                "start_time": 1.5568181818181817,
                "end_time": 1.7386363636363635,
                "pitch": 36,
                "velocity": 101,
                "duration": 0.18181818181818188,
                "tempo": 120.0
            },
            {
                "start_time": 1.7386363636363635,
                "end_time": 1.8863636363636362,
                "pitch": 43,
                "velocity": 101,
                "duration": 0.1477272727272727,
                "tempo": 120.0
            },
            {
                "start_time": 1.8863636363636362,
                "end_time": 2.0704545454545453,
                "pitch": 40,
                "velocity": 101,
                "duration": 0.18409090909090908,
                "tempo": 120.0
            },
            {
                "start_time": 2.0704545454545453,
                "end_time": 2.2386363636363633,
                "pitch": 38,
                "velocity": 101,
                "duration": 0.168181818181818,
                "tempo": 120.0
            },
            {
                "start_time": 2.2386363636363633,
                "end_time": 2.3886363636363637,
                "pitch": 38,
                "velocity": 101,
                "duration": 0.15000000000000036,
                "tempo": 120.0
            },
            {
                "start_time": 2.3886363636363637,
                "end_time": 2.5568181818181817,
                "pitch": 45,
                "velocity": 101,
                "duration": 0.168181818181818,
                "tempo": 120.0
            },
            {
                "start_time": 2.5568181818181817,
                "end_time": 2.7409090909090907,
                "pitch": 42,
                "velocity": 101,
                "duration": 0.18409090909090908,
                "tempo": 120.0
            }
        ],
        "Harpsichord": [
            {
                "start_time": 0.00909090909090909,
                "end_time": 0.37727272727272726,
                "pitch": 62,
                "velocity": 40,
                "duration": 0.36818181818181817,
                "tempo": 120.0
            },
            {
                "start_time": 0.37727272727272726,
                "end_time": 0.46136363636363636,
                "pitch": 66,
                "velocity": 40,
                "duration": 0.0840909090909091,
                "tempo": 120.0
            },
            {
                "start_time": 0.46136363636363636,
                "end_time": 0.5795454545454545,
                "pitch": 64,
                "velocity": 40,
                "duration": 0.11818181818181811,
                "tempo": 120.0
            },
            {
                "start_time": 0.5795454545454545,
                "end_time": 0.7136363636363636,
                "pitch": 62,
                "velocity": 40,
                "duration": 0.13409090909090915,
                "tempo": 120.0
            },
            {
                "start_time": 0.7136363636363636,
                "end_time": 1.4068181818181817,
                "pitch": 69,
                "velocity": 40,
                "duration": 0.6931818181818181,
                "tempo": 120.0
            },
            {
                "start_time": 1.4068181818181817,
                "end_time": 1.7227272727272727,
                "pitch": 72,
                "velocity": 40,
                "duration": 0.3159090909090909,
                "tempo": 120.0
            },
            {
                "start_time": 1.7386363636363635,
                "end_time": 2.0704545454545453,
                "pitch": 72,
                "velocity": 40,
                "duration": 0.3318181818181818,
                "tempo": 120.0
            },
            {
                "start_time": 2.0704545454545453,
                "end_time": 2.2204545454545452,
                "pitch": 69,
                "velocity": 40,
                "duration": 0.1499999999999999,
                "tempo": 120.0
            },
            {
                "start_time": 2.2204545454545452,
                "end_time": 2.2386363636363633,
                "pitch": 29,
                "velocity": 40,
                "duration": 0.018181818181818077,
                "tempo": 120.0
            },
            {
                "start_time": 2.2386363636363633,
                "end_time": 2.2886363636363636,
                "pitch": 67,
                "velocity": 40,
                "duration": 0.050000000000000266,
                "tempo": 120.0
            },
            {
                "start_time": 2.2886363636363636,
                "end_time": 2.4227272727272724,
                "pitch": 67,
                "velocity": 40,
                "duration": 0.13409090909090882,
                "tempo": 120.0
            },
            {
                "start_time": 2.4227272727272724,
                "end_time": 2.5568181818181817,
                "pitch": 67,
                "velocity": 40,
                "duration": 0.13409090909090926,
                "tempo": 120.0
            },
            {
                "start_time": 2.5568181818181817,
                "end_time": 2.690909090909091,
                "pitch": 67,
                "velocity": 40,
                "duration": 0.13409090909090926,
                "tempo": 120.0
            },
            {
                "start_time": 2.690909090909091,
                "end_time": 2.725,
                "pitch": 67,
                "velocity": 40,
                "duration": 0.03409090909090917,
                "tempo": 120.0
            }
        ]
    }
}