{
    "track_id": "Golvellius - Valley of Doom (FM) - 07 - Randar",
    "mood": "happy",
    "instruments": {
        "Lead 2 (sawtooth)": [
            {
                "start_time": 0.04318181818181818,
                "end_time": 1.2727272727272727,
                "pitch": 50,
                "velocity": 64,
                "duration": 1.2295454545454545,
                "tempo": 120.0
            },
            {
                "start_time": 1.2727272727272727,
                "end_time": 1.3227272727272728,
                "pitch": 55,
                "velocity": 64,
                "duration": 0.050000000000000044,
                "tempo": 120.0
            },
            {
                "start_time": 1.3227272727272728,
                "end_time": 1.3886363636363637,
                "pitch": 55,
                "velocity": 64,
                "duration": 0.06590909090909092,
                "tempo": 120.0
            },
            {
                "start_time": 1.3886363636363637,
                "end_time": 1.4568181818181818,
                "pitch": 55,
                "velocity": 64,
                "duration": 0.06818181818181812,
                "tempo": 120.0
            },
            {
                "start_time": 1.4568181818181818,
                "end_time": 1.5227272727272727,
                "pitch": 55,
                "velocity": 64,
                "duration": 0.06590909090909092,
                "tempo": 120.0
            },
            {
                "start_time": 1.5227272727272727,
                "end_time": 1.5886363636363636,
                "pitch": 55,
                "velocity": 64,
                "duration": 0.06590909090909092,
                "tempo": 120.0
            },
            {
                "start_time": 1.5886363636363636,
                "end_time": 1.6545454545454545,
                "pitch": 55,
                "velocity": 64,
                "duration": 0.06590909090909092,
                "tempo": 120.0
            },
            {
                "start_time": 1.6545454545454545,
                "end_time": 1.718181818181818,
                "pitch": 55,
                "velocity": 64,
                "duration": 0.06363636363636349,
                "tempo": 120.0
            },
            {
                "start_time": 1.718181818181818,
                "end_time": 1.784090909090909,
                "pitch": 55,
                "velocity": 64,
                "duration": 0.06590909090909092,
                "tempo": 120.0
            },
            {
                "start_time": 1.784090909090909,
                "end_time": 1.8477272727272727,
                "pitch": 55,
                "velocity": 64,
                "duration": 0.06363636363636371,
                "tempo": 120.0
            },
            {
                "start_time": 1.8477272727272727,
                "end_time": 1.9159090909090908,
                "pitch": 55,
                "velocity": 64,
                "duration": 0.06818181818181812,
                "tempo": 120.0
            },
            {
                "start_time": 1.9159090909090908,
                "end_time": 1.9818181818181817,
                "pitch": 55,
                "velocity": 64,
                "duration": 0.06590909090909092,
                "tempo": 120.0
            },
            {
                "start_time": 1.9818181818181817,
                "end_time": 2.05,
                "pitch": 55,
                "velocity": 64,
                "duration": 0.06818181818181812,
                "tempo": 120.0
            },
            {
                "start_time": 2.05,
                "end_time": 2.1159090909090907,
                "pitch": 55,
                "velocity": 64,
                "duration": 0.06590909090909092,
                "tempo": 120.0
            },
            {
                "start_time": 2.1159090909090907,
                "end_time": 2.184090909090909,
                "pitch": 55,
                "velocity": 64,
                "duration": 0.06818181818181834,
                "tempo": 120.0
            },
            {
                "start_time": 2.184090909090909,
                "end_time": 2.25,
                "pitch": 55,
                "velocity": 64,
                "duration": 0.06590909090909092,
                "tempo": 120.0
            },
            {
                "start_time": 2.25,
                "end_time": 2.315909090909091,
                "pitch": 55,
                "velocity": 64,
                "duration": 0.06590909090909092,
                "tempo": 120.0
            },
            {
                "start_time": 2.315909090909091,
                "end_time": 2.384090909090909,
                "pitch": 55,
                "velocity": 64,
                "duration": 0.0681818181818179,
                "tempo": 120.0
            },
            {
                "start_time": 2.384090909090909,
                "end_time": 2.465909090909091,
                "pitch": 55,
                "velocity": 64,
                "duration": 0.08181818181818201,
                "tempo": 120.0
            },
            {
                "start_time": 2.465909090909091,
                "end_time": 3.6704545454545454,
                "pitch": 53,
                "velocity": 64,
                "duration": 1.2045454545454546,
                "tempo": 120.0
            },
            {
                "start_time": 3.6704545454545454,
                "end_time": 4.8999999999999995,
                "pitch": 57,
                "velocity": 64,
                "duration": 1.229545454545454,
                "tempo": 120.0
            },
            {
                "start_time": 4.8999999999999995,
                "end_time": 4.952272727272727,
                "pitch": 55,
                "velocity": 64,
                "duration": 0.05227272727272769,
                "tempo": 120.0
            },
            {
                "start_time": 4.952272727272727,
                "end_time": 5.0249999999999995,
                "pitch": 55,
                "velocity": 64,
                "duration": 0.07272727272727231,
                "tempo": 120.0
            },
            {
                "start_time": 5.0249999999999995,
                "end_time": 5.095454545454545,
                "pitch": 55,
                "velocity": 64,
                "duration": 0.07045454545454533,
                "tempo": 120.0
            },
            {
                "start_time": 5.095454545454545,
                "end_time": 5.165909090909091,
                "pitch": 55,
                "velocity": 64,
                "duration": 0.07045454545454621,
                "tempo": 120.0
            },
            {
                "start_time": 5.165909090909091,
                "end_time": 5.236363636363636,
                "pitch": 55,
                "velocity": 64,
                "duration": 0.07045454545454533,
                "tempo": 120.0
            },
            {
                "start_time": 5.236363636363636,
                "end_time": 5.302272727272727,
                "pitch": 55,
                "velocity": 64,
                "duration": 0.06590909090909047,
                "tempo": 120.0
            },
            {
                "start_time": 5.302272727272727,
                "end_time": 5.370454545454545,
                "pitch": 55,
                "velocity": 64,
                "duration": 0.06818181818181834,
                "tempo": 120.0
            },
            {
                "start_time": 5.370454545454545,
                "end_time": 5.4363636363636365,
                "pitch": 55,
                "velocity": 64,
                "duration": 0.06590909090909136,
                "tempo": 120.0
            },
            {
                "start_time": 5.4363636363636365,
                "end_time": 5.502272727272727,
                "pitch": 55,
                "velocity": 64,
                "duration": 0.06590909090909047,
                "tempo": 120.0
            },
            {
                "start_time": 5.502272727272727,
                "end_time": 5.568181818181818,
                "pitch": 55,
                "velocity": 64,
                "duration": 0.06590909090909136,
                "tempo": 120.0
            },
            {
                "start_time": 5.568181818181818,
                "end_time": 5.631818181818182,
                "pitch": 55,
                "velocity": 64,
                "duration": 0.06363636363636349,
                "tempo": 120.0
            },
            {
                "start_time": 5.631818181818182,
                "end_time": 5.697727272727272,
                "pitch": 55,
                "velocity": 64,
                "duration": 0.06590909090909047,
                "tempo": 120.0
            },
            {
                "start_time": 5.697727272727272,
                "end_time": 5.761363636363636,
                "pitch": 55,
                "velocity": 64,
                "duration": 0.06363636363636349,
                "tempo": 120.0
            },
            {
                "start_time": 5.761363636363636,
                "end_time": 5.827272727272727,
                "pitch": 55,
                "velocity": 64,
                "duration": 0.06590909090909136,
                "tempo": 120.0
            },
            {
                "start_time": 5.827272727272727,
                "end_time": 5.8954545454545455,
                "pitch": 55,
                "velocity": 64,
                "duration": 0.06818181818181834,
                "tempo": 120.0
            },
            {
                "start_time": 5.8954545454545455,
                "end_time": 5.961363636363636,
                "pitch": 55,
                "velocity": 64,
                "duration": 0.06590909090909047,
                "tempo": 120.0
            },
            {
                "start_time": 5.961363636363636,
                "end_time": 6.027272727272727,
                "pitch": 55,
                "velocity": 64,
                "duration": 0.06590909090909136,
                "tempo": 120.0
            },
            {
                "start_time": 6.027272727272727,
                "end_time": 6.095454545454545,
                "pitch": 55,
                "velocity": 64,
                "duration": 0.06818181818181746,
                "tempo": 120.0
            },
            {
                "start_time": 6.095454545454545,
                "end_time": 7.324999999999999,
                "pitch": 59,
                "velocity": 64,
                "duration": 1.2295454545454545,
                "tempo": 120.0
            },
            {
                "start_time": 7.324999999999999,
                "end_time": 8.509090909090908,
                "pitch": 57,
                "velocity": 64,
                "duration": 1.1840909090909086,
                "tempo": 120.0
            },
            {
                "start_time": 8.509090909090908,
                "end_time": 9.747727272727273,
                "pitch": 53,
                "velocity": 64,
                "duration": 1.238636363636365,
                "tempo": 120.0
            },
            {
                "start_time": 9.747727272727273,
                "end_time": 9.799999999999999,
                "pitch": 55,
                "velocity": 64,
                "duration": 0.052272727272725916,
                "tempo": 120.0
            },
            {
                "start_time": 9.799999999999999,
                "end_time": 9.872727272727273,
                "pitch": 55,
                "velocity": 64,
                "duration": 0.07272727272727408,
                "tempo": 120.0
            },
            {
                "start_time": 9.872727272727273,
                "end_time": 9.943181818181818,
                "pitch": 55,
                "velocity": 64,
                "duration": 0.07045454545454533,
                "tempo": 120.0
            },
            {
                "start_time": 9.943181818181818,
                "end_time": 10.013636363636364,
                "pitch": 55,
                "velocity": 64,
                "duration": 0.07045454545454533,
                "tempo": 120.0
            },
            {
                "start_time": 10.013636363636364,
                "end_time": 10.081818181818182,
                "pitch": 55,
                "velocity": 64,
                "duration": 0.06818181818181834,
                "tempo": 120.0
            },
            {
                "start_time": 10.081818181818182,
                "end_time": 10.147727272727272,
                "pitch": 55,
                "velocity": 64,
                "duration": 0.06590909090908958,
                "tempo": 120.0
            },
            {
                "start_time": 10.147727272727272,
                "end_time": 10.211363636363636,
                "pitch": 55,
                "velocity": 64,
                "duration": 0.06363636363636438,
                "tempo": 120.0
            },
            {
                "start_time": 10.211363636363636,
                "end_time": 10.277272727272727,
                "pitch": 55,
                "velocity": 64,
                "duration": 0.06590909090909136,
                "tempo": 120.0
            },
            {
                "start_time": 10.277272727272727,
                "end_time": 10.34090909090909,
                "pitch": 55,
                "velocity": 64,
                "duration": 0.0636363636363626,
                "tempo": 120.0
            },
            {
                "start_time": 10.34090909090909,
                "end_time": 10.409090909090908,
                "pitch": 55,
                "velocity": 64,
                "duration": 0.06818181818181834,
                "tempo": 120.0
            },
            {
                "start_time": 10.409090909090908,
                "end_time": 10.475,
                "pitch": 55,
                "velocity": 64,
                "duration": 0.06590909090909136,
                "tempo": 120.0
            },
            {
                "start_time": 10.475,
                "end_time": 10.540909090909091,
                "pitch": 55,
                "velocity": 64,
                "duration": 0.06590909090909136,
                "tempo": 120.0
            },
            {
                "start_time": 10.540909090909091,
                "end_time": 10.60909090909091,
                "pitch": 55,
                "velocity": 64,
                "duration": 0.06818181818181834,
                "tempo": 120.0
            },
            {
                "start_time": 10.60909090909091,
                "end_time": 10.674999999999999,
                "pitch": 55,
                "velocity": 64,
                "duration": 0.06590909090908958,
                "tempo": 120.0
            },
            {
                "start_time": 10.674999999999999,
                "end_time": 10.745454545454544,
                "pitch": 55,
                "velocity": 64,
                "duration": 0.07045454545454533,
                "tempo": 120.0
            },
            {
                "start_time": 10.745454545454544,
                "end_time": 10.813636363636363,
                "pitch": 55,
                "velocity": 64,
                "duration": 0.06818181818181834,
                "tempo": 120.0
            },
            {
                "start_time": 10.813636363636363,
                "end_time": 10.884090909090908,
                "pitch": 55,
                "velocity": 64,
                "duration": 0.07045454545454533,
                "tempo": 120.0
            },
            {
                "start_time": 10.884090909090908,
                "end_time": 10.968181818181817,
                "pitch": 55,
                "velocity": 64,
                "duration": 0.084090909090909,
                "tempo": 120.0
            },
            {
                "start_time": 10.968181818181817,
                "end_time": 12.172727272727272,
                "pitch": 53,
                "velocity": 64,
                "duration": 1.204545454545455,
                "tempo": 120.0
            }
        ]
    }
}