{
    "track_id": "Golvellius - Valley of Doom (FM) - 15 - Overworld 2",
    "mood": "happy",
    "instruments": {
        "Acoustic Bass": [
            {
                "start_time": 0.031818181818181815,
                "end_time": 0.23409090909090907,
                "pitch": 38,
                "velocity": 127,
                "duration": 0.20227272727272727,
                "tempo": 120.0
            },
            {
                "start_time": 0.23409090909090907,
                "end_time": 0.4340909090909091,
                "pitch": 38,
                "velocity": 127,
                "duration": 0.2,
                "tempo": 120.0
            },
            {
                "start_time": 0.4340909090909091,
                "end_time": 0.6409090909090909,
                "pitch": 38,
                "velocity": 127,
                "duration": 0.2068181818181818,
                "tempo": 120.0
            },
            {
                "start_time": 0.6409090909090909,
                "end_time": 0.8318181818181818,
                "pitch": 38,
                "velocity": 127,
                "duration": 0.19090909090909092,
                "tempo": 120.0
            },
            {
                "start_time": 0.8318181818181818,
                "end_time": 1.05,
                "pitch": 38,
                "velocity": 127,
                "duration": 0.21818181818181825,
                "tempo": 120.0
            },
            {
                "start_time": 1.05,
                "end_time": 1.268181818181818,
                "pitch": 38,
                "velocity": 127,
                "duration": 0.21818181818181803,
                "tempo": 120.0
            },
            {
                "start_time": 1.268181818181818,
                "end_time": 1.4954545454545454,
                "pitch": 38,
                "velocity": 127,
                "duration": 0.2272727272727273,
                "tempo": 120.0
            },
            {
                "start_time": 1.4954545454545454,
                "end_time": 1.7045454545454544,
                "pitch": 38,
                "velocity": 127,
                "duration": 0.209090909090909,
                "tempo": 120.0
            },
            {
                "start_time": 1.7045454545454544,
                "end_time": 1.9,
                "pitch": 38,
                "velocity": 127,
                "duration": 0.19545454545454555,
                "tempo": 120.0
            },
            {
                "start_time": 1.9,
                "end_time": 2.0954545454545452,
                "pitch": 38,
                "velocity": 127,
                "duration": 0.19545454545454533,
                "tempo": 120.0
            },
            {
                "start_time": 2.0954545454545452,
                "end_time": 2.309090909090909,
                "pitch": 38,
                "velocity": 127,
                "duration": 0.21363636363636385,
                "tempo": 120.0
            },
            {
                "start_time": 2.309090909090909,
                "end_time": 2.5204545454545455,
                "pitch": 38,
                "velocity": 127,
                "duration": 0.21136363636363642,
                "tempo": 120.0
            },
            {
                "start_time": 2.5204545454545455,
                "end_time": 2.743181818181818,
                "pitch": 38,
                "velocity": 127,
                "duration": 0.22272727272727266,
                "tempo": 120.0
            },
            {
                "start_time": 2.743181818181818,
                "end_time": 2.9477272727272728,
                "pitch": 38,
                "velocity": 127,
                "duration": 0.20454545454545459,
                "tempo": 120.0
            },
            {
                "start_time": 2.9477272727272728,
                "end_time": 3.143181818181818,
                "pitch": 38,
                "velocity": 127,
                "duration": 0.19545454545454533,
                "tempo": 120.0
            },
            {
                "start_time": 3.143181818181818,
                "end_time": 3.3545454545454545,
                "pitch": 38,
                "velocity": 127,
                "duration": 0.21136363636363642,
                "tempo": 120.0
            },
            {
                "start_time": 3.3545454545454545,
                "end_time": 3.577272727272727,
                "pitch": 41,
                "velocity": 127,
                "duration": 0.22272727272727266,
                "tempo": 120.0
            },
            {
                "start_time": 3.577272727272727,
                "end_time": 3.7840909090909087,
                "pitch": 41,
                "velocity": 127,
                "duration": 0.20681818181818157,
                "tempo": 120.0
            },
            {
                "start_time": 3.7840909090909087,
                "end_time": 3.9795454545454545,
                "pitch": 41,
                "velocity": 127,
                "duration": 0.19545454545454577,
                "tempo": 120.0
            },
            {
                "start_time": 3.9795454545454545,
                "end_time": 4.175,
                "pitch": 41,
                "velocity": 127,
                "duration": 0.19545454545454533,
                "tempo": 120.0
            },
            {
                "start_time": 4.175,
                "end_time": 4.381818181818182,
                "pitch": 41,
                "velocity": 127,
                "duration": 0.206818181818182,
                "tempo": 120.0
            },
            {
                "start_time": 4.381818181818182,
                "end_time": 4.575,
                "pitch": 41,
                "velocity": 127,
                "duration": 0.19318181818181834,
                "tempo": 120.0
            },
            {
                "start_time": 4.575,
                "end_time": 4.793181818181818,
                "pitch": 41,
                "velocity": 127,
                "duration": 0.2181818181818178,
                "tempo": 120.0
            },
            {
                "start_time": 4.793181818181818,
                "end_time": 5.011363636363636,
                "pitch": 41,
                "velocity": 127,
                "duration": 0.2181818181818178,
                "tempo": 120.0
            },
            {
                "start_time": 5.011363636363636,
                "end_time": 5.2318181818181815,
                "pitch": 41,
                "velocity": 127,
                "duration": 0.22045454545454568,
                "tempo": 120.0
            },
            {
                "start_time": 5.2318181818181815,
                "end_time": 5.4386363636363635,
                "pitch": 41,
                "velocity": 127,
                "duration": 0.206818181818182,
                "tempo": 120.0
            },
            {
                "start_time": 5.4386363636363635,
                "end_time": 5.656818181818181,
                "pitch": 41,
                "velocity": 127,
                "duration": 0.2181818181818178,
                "tempo": 120.0
            },
            {
                "start_time": 5.656818181818181,
                "end_time": 5.8568181818181815,
                "pitch": 41,
                "velocity": 127,
                "duration": 0.20000000000000018,
                "tempo": 120.0
            },
            {
                "start_time": 5.8568181818181815,
                "end_time": 6.070454545454545,
                "pitch": 41,
                "velocity": 127,
                "duration": 0.21363636363636385,
                "tempo": 120.0
            },
            {
                "start_time": 6.070454545454545,
                "end_time": 6.265909090909091,
                "pitch": 41,
                "velocity": 127,
                "duration": 0.19545454545454533,
                "tempo": 120.0
            },
            {
                "start_time": 6.265909090909091,
                "end_time": 6.4840909090909085,
                "pitch": 41,
                "velocity": 127,
                "duration": 0.2181818181818178,
                "tempo": 120.0
            },
            {
                "start_time": 6.4840909090909085,
                "end_time": 6.684090909090909,
                "pitch": 41,
                "velocity": 127,
                "duration": 0.20000000000000018,
                "tempo": 120.0
            },
            {
                "start_time": 6.684090909090909,
                "end_time": 6.7340909090909085,
                "pitch": 43,
                "velocity": 127,
                "duration": 0.04999999999999982,
                "tempo": 120.0
            },
            {
                "start_time": 6.7340909090909085,
                "end_time": 6.802272727272727,
                "pitch": 43,
                "velocity": 127,
                "duration": 0.06818181818181834,
                "tempo": 120.0
            },
            {
                "start_time": 6.802272727272727,
                "end_time": 6.868181818181818,
                "pitch": 43,
                "velocity": 127,
                "duration": 0.06590909090909136,
                "tempo": 120.0
            },
            {
                "start_time": 6.868181818181818,
                "end_time": 6.886363636363636,
                "pitch": 43,
                "velocity": 127,
                "duration": 0.018181818181817633,
                "tempo": 120.0
            },
            {
                "start_time": 6.886363636363636,
                "end_time": 6.952272727272727,
                "pitch": 43,
                "velocity": 127,
                "duration": 0.06590909090909136,
                "tempo": 120.0
            },
            {
                "start_time": 6.952272727272727,
                "end_time": 7.0204545454545455,
                "pitch": 43,
                "velocity": 127,
                "duration": 0.06818181818181834,
                "tempo": 120.0
            },
            {
                "start_time": 7.0204545454545455,
                "end_time": 7.1045454545454545,
                "pitch": 43,
                "velocity": 127,
                "duration": 0.084090909090909,
                "tempo": 120.0
            },
            {
                "start_time": 7.1045454545454545,
                "end_time": 7.152272727272727,
                "pitch": 43,
                "velocity": 127,
                "duration": 0.04772727272727284,
                "tempo": 120.0
            },
            {
                "start_time": 7.152272727272727,
                "end_time": 7.218181818181818,
                "pitch": 43,
                "velocity": 127,
                "duration": 0.06590909090909047,
                "tempo": 120.0
            },
            {
                "start_time": 7.218181818181818,
                "end_time": 7.284090909090909,
                "pitch": 43,
                "velocity": 127,
                "duration": 0.06590909090909136,
                "tempo": 120.0
            },
            {
                "start_time": 7.284090909090909,
                "end_time": 7.3,
                "pitch": 43,
                "velocity": 127,
                "duration": 0.01590909090909065,
                "tempo": 120.0
            },
            {
                "start_time": 7.3,
                "end_time": 7.36590909090909,
                "pitch": 43,
                "velocity": 127,
                "duration": 0.06590909090909047,
                "tempo": 120.0
            },
            {
                "start_time": 7.36590909090909,
                "end_time": 7.429545454545454,
                "pitch": 43,
                "velocity": 127,
                "duration": 0.06363636363636349,
                "tempo": 120.0
            },
            {
                "start_time": 7.429545454545454,
                "end_time": 7.495454545454545,
                "pitch": 43,
                "velocity": 127,
                "duration": 0.06590909090909136,
                "tempo": 120.0
            },
            {
                "start_time": 7.495454545454545,
                "end_time": 7.559090909090909,
                "pitch": 43,
                "velocity": 127,
                "duration": 0.06363636363636349,
                "tempo": 120.0
            },
            {
                "start_time": 7.559090909090909,
                "end_time": 7.622727272727272,
                "pitch": 43,
                "velocity": 127,
                "duration": 0.06363636363636349,
                "tempo": 120.0
            },
            {
                "start_time": 7.622727272727272,
                "end_time": 7.686363636363636,
                "pitch": 43,
                "velocity": 127,
                "duration": 0.06363636363636349,
                "tempo": 120.0
            },
            {
                "start_time": 7.686363636363636,
                "end_time": 7.702272727272727,
                "pitch": 43,
                "velocity": 127,
                "duration": 0.01590909090909154,
                "tempo": 120.0
            },
            {
                "start_time": 7.702272727272727,
                "end_time": 7.765909090909091,
                "pitch": 43,
                "velocity": 127,
                "duration": 0.06363636363636349,
                "tempo": 120.0
            },
            {
                "start_time": 7.765909090909091,
                "end_time": 7.829545454545454,
                "pitch": 43,
                "velocity": 127,
                "duration": 0.06363636363636349,
                "tempo": 120.0
            },
            {
                "start_time": 7.829545454545454,
                "end_time": 7.893181818181818,
                "pitch": 43,
                "velocity": 127,
                "duration": 0.06363636363636349,
                "tempo": 120.0
            },
            {
                "start_time": 7.893181818181818,
                "end_time": 7.959090909090909,
                "pitch": 43,
                "velocity": 127,
                "duration": 0.06590909090909136,
                "tempo": 120.0
            },
            {
                "start_time": 7.959090909090909,
                "end_time": 8.027272727272727,
                "pitch": 43,
                "velocity": 127,
                "duration": 0.06818181818181834,
                "tempo": 120.0
            },
            {
                "start_time": 8.027272727272727,
                "end_time": 8.093181818181817,
                "pitch": 43,
                "velocity": 127,
                "duration": 0.06590909090908958,
                "tempo": 120.0
            },
            {
                "start_time": 8.093181818181817,
                "end_time": 8.10909090909091,
                "pitch": 43,
                "velocity": 127,
                "duration": 0.015909090909092427,
                "tempo": 120.0
            },
            {
                "start_time": 8.10909090909091,
                "end_time": 8.177272727272728,
                "pitch": 43,
                "velocity": 127,
                "duration": 0.06818181818181834,
                "tempo": 120.0
            },
            {
                "start_time": 8.177272727272728,
                "end_time": 8.243181818181817,
                "pitch": 43,
                "velocity": 127,
                "duration": 0.06590909090908958,
                "tempo": 120.0
            },
            {
                "start_time": 8.243181818181817,
                "end_time": 8.327272727272726,
                "pitch": 43,
                "velocity": 127,
                "duration": 0.084090909090909,
                "tempo": 120.0
            },
            {
                "start_time": 8.327272727272726,
                "end_time": 8.379545454545454,
                "pitch": 43,
                "velocity": 127,
                "duration": 0.05227272727272769,
                "tempo": 120.0
            },
            {
                "start_time": 8.379545454545454,
                "end_time": 8.447727272727272,
                "pitch": 43,
                "velocity": 127,
                "duration": 0.06818181818181834,
                "tempo": 120.0
            },
            {
                "start_time": 8.447727272727272,
                "end_time": 8.51590909090909,
                "pitch": 43,
                "velocity": 127,
                "duration": 0.06818181818181834,
                "tempo": 120.0
            },
            {
                "start_time": 8.51590909090909,
                "end_time": 8.584090909090909,
                "pitch": 43,
                "velocity": 127,
                "duration": 0.06818181818181834,
                "tempo": 120.0
            },
            {
                "start_time": 8.584090909090909,
                "end_time": 8.654545454545454,
                "pitch": 43,
                "velocity": 127,
                "duration": 0.07045454545454533,
                "tempo": 120.0
            },
            {
                "start_time": 8.654545454545454,
                "end_time": 8.722727272727273,
                "pitch": 43,
                "velocity": 127,
                "duration": 0.06818181818181834,
                "tempo": 120.0
            },
            {
                "start_time": 8.722727272727273,
                "end_time": 8.738636363636363,
                "pitch": 43,
                "velocity": 127,
                "duration": 0.01590909090909065,
                "tempo": 120.0
            },
            {
                "start_time": 8.738636363636363,
                "end_time": 8.804545454545455,
                "pitch": 43,
                "velocity": 127,
                "duration": 0.06590909090909136,
                "tempo": 120.0
            },
            {
                "start_time": 8.804545454545455,
                "end_time": 8.870454545454544,
                "pitch": 43,
                "velocity": 127,
                "duration": 0.06590909090908958,
                "tempo": 120.0
            },
            {
                "start_time": 8.870454545454544,
                "end_time": 8.936363636363636,
                "pitch": 43,
                "velocity": 127,
                "duration": 0.06590909090909136,
                "tempo": 120.0
            },
            {
                "start_time": 8.936363636363636,
                "end_time": 9.0,
                "pitch": 43,
                "velocity": 127,
                "duration": 0.06363636363636438,
                "tempo": 120.0
            },
            {
                "start_time": 9.0,
                "end_time": 9.06590909090909,
                "pitch": 43,
                "velocity": 127,
                "duration": 0.06590909090908958,
                "tempo": 120.0
            },
            {
                "start_time": 9.06590909090909,
                "end_time": 9.131818181818181,
                "pitch": 43,
                "velocity": 127,
                "duration": 0.06590909090909136,
                "tempo": 120.0
            },
            {
                "start_time": 9.131818181818181,
                "end_time": 9.163636363636364,
                "pitch": 43,
                "velocity": 127,
                "duration": 0.03181818181818308,
                "tempo": 120.0
            },
            {
                "start_time": 9.163636363636364,
                "end_time": 9.213636363636363,
                "pitch": 43,
                "velocity": 127,
                "duration": 0.049999999999998934,
                "tempo": 120.0
            },
            {
                "start_time": 9.213636363636363,
                "end_time": 9.284090909090908,
                "pitch": 43,
                "velocity": 127,
                "duration": 0.07045454545454533,
                "tempo": 120.0
            },
            {
                "start_time": 9.284090909090908,
                "end_time": 9.368181818181817,
                "pitch": 43,
                "velocity": 127,
                "duration": 0.084090909090909,
                "tempo": 120.0
            },
            {
                "start_time": 9.368181818181817,
                "end_time": 9.420454545454545,
                "pitch": 43,
                "velocity": 127,
                "duration": 0.05227272727272769,
                "tempo": 120.0
            },
            {
                "start_time": 9.420454545454545,
                "end_time": 9.488636363636363,
                "pitch": 43,
                "velocity": 127,
                "duration": 0.06818181818181834,
                "tempo": 120.0
            },
            {
                "start_time": 9.488636363636363,
                "end_time": 9.556818181818182,
                "pitch": 43,
                "velocity": 127,
                "duration": 0.06818181818181834,
                "tempo": 120.0
            },
            {
                "start_time": 9.556818181818182,
                "end_time": 9.59090909090909,
                "pitch": 43,
                "velocity": 127,
                "duration": 0.034090909090908283,
                "tempo": 120.0
            },
            {
                "start_time": 9.59090909090909,
                "end_time": 9.64090909090909,
                "pitch": 43,
                "velocity": 127,
                "duration": 0.05000000000000071,
                "tempo": 120.0
            },
            {
                "start_time": 9.64090909090909,
                "end_time": 9.706818181818182,
                "pitch": 43,
                "velocity": 127,
                "duration": 0.06590909090909136,
                "tempo": 120.0
            },
            {
                "start_time": 9.706818181818182,
                "end_time": 9.786363636363635,
                "pitch": 43,
                "velocity": 127,
                "duration": 0.07954545454545325,
                "tempo": 120.0
            },
            {
                "start_time": 9.786363636363635,
                "end_time": 9.836363636363636,
                "pitch": 43,
                "velocity": 127,
                "duration": 0.05000000000000071,
                "tempo": 120.0
            },
            {
                "start_time": 9.836363636363636,
                "end_time": 9.902272727272727,
                "pitch": 43,
                "velocity": 127,
                "duration": 0.06590909090909136,
                "tempo": 120.0
            },
            {
                "start_time": 9.902272727272727,
                "end_time": 9.96590909090909,
                "pitch": 43,
                "velocity": 127,
                "duration": 0.0636363636363626,
                "tempo": 120.0
            },
            {
                "start_time": 9.96590909090909,
                "end_time": 10.0,
                "pitch": 43,
                "velocity": 127,
                "duration": 0.03409090909091006,
                "tempo": 120.0
            },
            {
                "start_time": 10.0,
                "end_time": 10.184090909090909,
                "pitch": 46,
                "velocity": 127,
                "duration": 0.18409090909090864,
                "tempo": 120.0
            },
            {
                "start_time": 10.184090909090909,
                "end_time": 10.402272727272727,
                "pitch": 46,
                "velocity": 127,
                "duration": 0.2181818181818187,
                "tempo": 120.0
            },
            {
                "start_time": 10.402272727272727,
                "end_time": 10.597727272727273,
                "pitch": 46,
                "velocity": 127,
                "duration": 0.19545454545454533,
                "tempo": 120.0
            },
            {
                "start_time": 10.597727272727273,
                "end_time": 10.809090909090909,
                "pitch": 46,
                "velocity": 127,
                "duration": 0.21136363636363598,
                "tempo": 120.0
            },
            {
                "start_time": 10.809090909090909,
                "end_time": 11.006818181818181,
                "pitch": 46,
                "velocity": 127,
                "duration": 0.1977272727272723,
                "tempo": 120.0
            },
            {
                "start_time": 11.006818181818181,
                "end_time": 11.23409090909091,
                "pitch": 46,
                "velocity": 127,
                "duration": 0.2272727272727284,
                "tempo": 120.0
            },
            {
                "start_time": 11.23409090909091,
                "end_time": 11.438636363636363,
                "pitch": 46,
                "velocity": 127,
                "duration": 0.20454545454545325,
                "tempo": 120.0
            },
            {
                "start_time": 11.438636363636363,
                "end_time": 11.661363636363635,
                "pitch": 46,
                "velocity": 127,
                "duration": 0.22272727272727266,
                "tempo": 120.0
            },
            {
                "start_time": 11.661363636363635,
                "end_time": 11.84090909090909,
                "pitch": 46,
                "velocity": 127,
                "duration": 0.17954545454545467,
                "tempo": 120.0
            },
            {
                "start_time": 11.84090909090909,
                "end_time": 12.052272727272726,
                "pitch": 46,
                "velocity": 127,
                "duration": 0.21136363636363598,
                "tempo": 120.0
            },
            {
                "start_time": 12.052272727272726,
                "end_time": 12.25,
                "pitch": 46,
                "velocity": 127,
                "duration": 0.19772727272727408,
                "tempo": 120.0
            },
            {
                "start_time": 12.25,
                "end_time": 12.461363636363636,
                "pitch": 46,
                "velocity": 127,
                "duration": 0.21136363636363598,
                "tempo": 120.0
            },
            {
                "start_time": 12.461363636363636,
                "end_time": 12.656818181818181,
                "pitch": 46,
                "velocity": 127,
                "duration": 0.19545454545454533,
                "tempo": 120.0
            },
            {
                "start_time": 12.656818181818181,
                "end_time": 12.868181818181817,
                "pitch": 46,
                "velocity": 127,
                "duration": 0.21136363636363598,
                "tempo": 120.0
            },
            {
                "start_time": 12.868181818181817,
                "end_time": 13.072727272727272,
                "pitch": 46,
                "velocity": 127,
                "duration": 0.20454545454545503,
                "tempo": 120.0
            },
            {
                "start_time": 13.072727272727272,
                "end_time": 13.313636363636363,
                "pitch": 46,
                "velocity": 127,
                "duration": 0.2409090909090903,
                "tempo": 120.0
            },
            {
                "start_time": 13.313636363636363,
                "end_time": 13.513636363636364,
                "pitch": 38,
                "velocity": 127,
                "duration": 0.20000000000000107,
                "tempo": 120.0
            },
            {
                "start_time": 13.513636363636364,
                "end_time": 13.73181818181818,
                "pitch": 38,
                "velocity": 127,
                "duration": 0.21818181818181692,
                "tempo": 120.0
            },
            {
                "start_time": 13.73181818181818,
                "end_time": 13.934090909090909,
                "pitch": 38,
                "velocity": 127,
                "duration": 0.20227272727272805,
                "tempo": 120.0
            },
            {
                "start_time": 13.934090909090909,
                "end_time": 14.134090909090908,
                "pitch": 38,
                "velocity": 127,
                "duration": 0.1999999999999993,
                "tempo": 120.0
            },
            {
                "start_time": 14.134090909090908,
                "end_time": 14.343181818181817,
                "pitch": 38,
                "velocity": 127,
                "duration": 0.209090909090909,
                "tempo": 120.0
            },
            {
                "start_time": 14.343181818181817,
                "end_time": 14.549999999999999,
                "pitch": 38,
                "velocity": 127,
                "duration": 0.206818181818182,
                "tempo": 120.0
            },
            {
                "start_time": 14.549999999999999,
                "end_time": 14.756818181818181,
                "pitch": 38,
                "velocity": 127,
                "duration": 0.206818181818182,
                "tempo": 120.0
            },
            {
                "start_time": 14.756818181818181,
                "end_time": 14.979545454545454,
                "pitch": 38,
                "velocity": 127,
                "duration": 0.22272727272727266,
                "tempo": 120.0
            },
            {
                "start_time": 14.979545454545454,
                "end_time": 15.159090909090908,
                "pitch": 38,
                "velocity": 127,
                "duration": 0.17954545454545467,
                "tempo": 120.0
            },
            {
                "start_time": 15.159090909090908,
                "end_time": 15.386363636363635,
                "pitch": 38,
                "velocity": 127,
                "duration": 0.22727272727272663,
                "tempo": 120.0
            },
            {
                "start_time": 15.386363636363635,
                "end_time": 15.588636363636363,
                "pitch": 38,
                "velocity": 127,
                "duration": 0.20227272727272805,
                "tempo": 120.0
            },
            {
                "start_time": 15.588636363636363,
                "end_time": 15.806818181818182,
                "pitch": 38,
                "velocity": 127,
                "duration": 0.2181818181818187,
                "tempo": 120.0
            },
            {
                "start_time": 15.806818181818182,
                "end_time": 16.006818181818183,
                "pitch": 38,
                "velocity": 127,
                "duration": 0.20000000000000107,
                "tempo": 120.0
            },
            {
                "start_time": 16.006818181818183,
                "end_time": 16.224999999999998,
                "pitch": 38,
                "velocity": 127,
                "duration": 0.21818181818181515,
                "tempo": 120.0
            },
            {
                "start_time": 16.224999999999998,
                "end_time": 16.427272727272726,
                "pitch": 38,
                "velocity": 127,
                "duration": 0.20227272727272805,
                "tempo": 120.0
            },
            {
                "start_time": 16.427272727272726,
                "end_time": 16.645454545454545,
                "pitch": 38,
                "velocity": 127,
                "duration": 0.2181818181818187,
                "tempo": 120.0
            },
            {
                "start_time": 16.645454545454545,
                "end_time": 16.845454545454544,
                "pitch": 41,
                "velocity": 127,
                "duration": 0.1999999999999993,
                "tempo": 120.0
            },
            {
                "start_time": 16.845454545454544,
                "end_time": 17.047727272727272,
                "pitch": 41,
                "velocity": 127,
                "duration": 0.20227272727272805,
                "tempo": 120.0
            },
            {
                "start_time": 17.047727272727272,
                "end_time": 17.254545454545454,
                "pitch": 41,
                "velocity": 127,
                "duration": 0.206818181818182,
                "tempo": 120.0
            },
            {
                "start_time": 17.254545454545454,
                "end_time": 17.443181818181817,
                "pitch": 41,
                "velocity": 127,
                "duration": 0.1886363636363626,
                "tempo": 120.0
            },
            {
                "start_time": 17.443181818181817,
                "end_time": 17.65681818181818,
                "pitch": 41,
                "velocity": 127,
                "duration": 0.21363636363636473,
                "tempo": 120.0
            },
            {
                "start_time": 17.65681818181818,
                "end_time": 17.852272727272727,
                "pitch": 41,
                "velocity": 127,
                "duration": 0.19545454545454533,
                "tempo": 120.0
            },
            {
                "start_time": 17.852272727272727,
                "end_time": 18.070454545454545,
                "pitch": 41,
                "velocity": 127,
                "duration": 0.2181818181818187,
                "tempo": 120.0
            },
            {
                "start_time": 18.070454545454545,
                "end_time": 18.270454545454545,
                "pitch": 41,
                "velocity": 127,
                "duration": 0.1999999999999993,
                "tempo": 120.0
            },
            {
                "start_time": 18.270454545454545,
                "end_time": 18.472727272727273,
                "pitch": 41,
                "velocity": 127,
                "duration": 0.20227272727272805,
                "tempo": 120.0
            },
            {
                "start_time": 18.472727272727273,
                "end_time": 18.672727272727272,
                "pitch": 41,
                "velocity": 127,
                "duration": 0.1999999999999993,
                "tempo": 120.0
            },
            {
                "start_time": 18.672727272727272,
                "end_time": 18.902272727272727,
                "pitch": 41,
                "velocity": 127,
                "duration": 0.22954545454545539,
                "tempo": 120.0
            },
            {
                "start_time": 18.902272727272727,
                "end_time": 19.097727272727273,
                "pitch": 41,
                "velocity": 127,
                "duration": 0.19545454545454533,
                "tempo": 120.0
            },
            {
                "start_time": 19.097727272727273,
                "end_time": 19.293181818181818,
                "pitch": 41,
                "velocity": 127,
                "duration": 0.19545454545454533,
                "tempo": 120.0
            },
            {
                "start_time": 19.293181818181818,
                "end_time": 19.488636363636363,
                "pitch": 41,
                "velocity": 127,
                "duration": 0.19545454545454533,
                "tempo": 120.0
            },
            {
                "start_time": 19.488636363636363,
                "end_time": 19.722727272727273,
                "pitch": 41,
                "velocity": 127,
                "duration": 0.23409090909090935,
                "tempo": 120.0
            },
            {
                "start_time": 19.722727272727273,
                "end_time": 19.925,
                "pitch": 41,
                "velocity": 127,
                "duration": 0.20227272727272805,
                "tempo": 120.0
            },
            {
                "start_time": 19.925,
                "end_time": 19.974999999999998,
                "pitch": 43,
                "velocity": 127,
                "duration": 0.04999999999999716,
                "tempo": 120.0
            },
            {
                "start_time": 19.974999999999998,
                "end_time": 20.045454545454543,
                "pitch": 43,
                "velocity": 127,
                "duration": 0.07045454545454533,
                "tempo": 120.0
            },
            {
                "start_time": 20.045454545454543,
                "end_time": 20.113636363636363,
                "pitch": 43,
                "velocity": 127,
                "duration": 0.06818181818182012,
                "tempo": 120.0
            },
            {
                "start_time": 20.113636363636363,
                "end_time": 20.147727272727273,
                "pitch": 43,
                "velocity": 127,
                "duration": 0.03409090909091006,
                "tempo": 120.0
            },
            {
                "start_time": 20.147727272727273,
                "end_time": 20.19772727272727,
                "pitch": 43,
                "velocity": 127,
                "duration": 0.04999999999999716,
                "tempo": 120.0
            },
            {
                "start_time": 20.19772727272727,
                "end_time": 20.268181818181816,
                "pitch": 43,
                "velocity": 127,
                "duration": 0.07045454545454533,
                "tempo": 120.0
            },
            {
                "start_time": 20.268181818181816,
                "end_time": 20.352272727272727,
                "pitch": 43,
                "velocity": 127,
                "duration": 0.08409090909091077,
                "tempo": 120.0
            },
            {
                "start_time": 20.352272727272727,
                "end_time": 20.402272727272727,
                "pitch": 43,
                "velocity": 127,
                "duration": 0.05000000000000071,
                "tempo": 120.0
            },
            {
                "start_time": 20.402272727272727,
                "end_time": 20.46818181818182,
                "pitch": 43,
                "velocity": 127,
                "duration": 0.06590909090909136,
                "tempo": 120.0
            },
            {
                "start_time": 20.46818181818182,
                "end_time": 20.53181818181818,
                "pitch": 43,
                "velocity": 127,
                "duration": 0.0636363636363626,
                "tempo": 120.0
            },
            {
                "start_time": 20.53181818181818,
                "end_time": 20.56590909090909,
                "pitch": 43,
                "velocity": 127,
                "duration": 0.03409090909091006,
                "tempo": 120.0
            },
            {
                "start_time": 20.56590909090909,
                "end_time": 20.613636363636363,
                "pitch": 43,
                "velocity": 127,
                "duration": 0.04772727272727195,
                "tempo": 120.0
            },
            {
                "start_time": 20.613636363636363,
                "end_time": 20.679545454545455,
                "pitch": 43,
                "velocity": 127,
                "duration": 0.06590909090909136,
                "tempo": 120.0
            },
            {
                "start_time": 20.679545454545455,
                "end_time": 20.761363636363637,
                "pitch": 43,
                "velocity": 127,
                "duration": 0.08181818181818201,
                "tempo": 120.0
            },
            {
                "start_time": 20.761363636363637,
                "end_time": 20.811363636363634,
                "pitch": 43,
                "velocity": 127,
                "duration": 0.04999999999999716,
                "tempo": 120.0
            },
            {
                "start_time": 20.811363636363634,
                "end_time": 20.877272727272725,
                "pitch": 43,
                "velocity": 127,
                "duration": 0.06590909090909136,
                "tempo": 120.0
            },
            {
                "start_time": 20.877272727272725,
                "end_time": 20.945454545454545,
                "pitch": 43,
                "velocity": 127,
                "duration": 0.06818181818182012,
                "tempo": 120.0
            },
            {
                "start_time": 20.945454545454545,
                "end_time": 20.979545454545452,
                "pitch": 43,
                "velocity": 127,
                "duration": 0.03409090909090651,
                "tempo": 120.0
            },
            {
                "start_time": 20.979545454545452,
                "end_time": 21.029545454545453,
                "pitch": 43,
                "velocity": 127,
                "duration": 0.05000000000000071,
                "tempo": 120.0
            },
            {
                "start_time": 21.029545454545453,
                "end_time": 21.095454545454544,
                "pitch": 43,
                "velocity": 127,
                "duration": 0.06590909090909136,
                "tempo": 120.0
            },
            {
                "start_time": 21.095454545454544,
                "end_time": 21.179545454545455,
                "pitch": 43,
                "velocity": 127,
                "duration": 0.08409090909091077,
                "tempo": 120.0
            },
            {
                "start_time": 21.179545454545455,
                "end_time": 21.229545454545452,
                "pitch": 43,
                "velocity": 127,
                "duration": 0.04999999999999716,
                "tempo": 120.0
            },
            {
                "start_time": 21.229545454545452,
                "end_time": 21.293181818181818,
                "pitch": 43,
                "velocity": 127,
                "duration": 0.06363636363636616,
                "tempo": 120.0
            },
            {
                "start_time": 21.293181818181818,
                "end_time": 21.35909090909091,
                "pitch": 43,
                "velocity": 127,
                "duration": 0.06590909090909136,
                "tempo": 120.0
            },
            {
                "start_time": 21.35909090909091,
                "end_time": 21.393181818181816,
                "pitch": 43,
                "velocity": 127,
                "duration": 0.03409090909090651,
                "tempo": 120.0
            },
            {
                "start_time": 21.393181818181816,
                "end_time": 21.44090909090909,
                "pitch": 43,
                "velocity": 127,
                "duration": 0.047727272727275505,
                "tempo": 120.0
            },
            {
                "start_time": 21.44090909090909,
                "end_time": 21.50681818181818,
                "pitch": 43,
                "velocity": 127,
                "duration": 0.06590909090908781,
                "tempo": 120.0
            },
            {
                "start_time": 21.50681818181818,
                "end_time": 21.58863636363636,
                "pitch": 43,
                "velocity": 127,
                "duration": 0.08181818181818201,
                "tempo": 120.0
            },
            {
                "start_time": 21.58863636363636,
                "end_time": 21.638636363636362,
                "pitch": 43,
                "velocity": 127,
                "duration": 0.05000000000000071,
                "tempo": 120.0
            },
            {
                "start_time": 21.638636363636362,
                "end_time": 21.704545454545453,
                "pitch": 43,
                "velocity": 127,
                "duration": 0.06590909090909136,
                "tempo": 120.0
            },
            {
                "start_time": 21.704545454545453,
                "end_time": 21.772727272727273,
                "pitch": 43,
                "velocity": 127,
                "duration": 0.06818181818182012,
                "tempo": 120.0
            },
            {
                "start_time": 21.772727272727273,
                "end_time": 21.788636363636364,
                "pitch": 43,
                "velocity": 127,
                "duration": 0.01590909090909065,
                "tempo": 120.0
            },
            {
                "start_time": 21.788636363636364,
                "end_time": 21.85681818181818,
                "pitch": 43,
                "velocity": 127,
                "duration": 0.06818181818181657,
                "tempo": 120.0
            },
            {
                "start_time": 21.85681818181818,
                "end_time": 21.922727272727272,
                "pitch": 43,
                "velocity": 127,
                "duration": 0.06590909090909136,
                "tempo": 120.0
            },
            {
                "start_time": 21.922727272727272,
                "end_time": 21.99090909090909,
                "pitch": 43,
                "velocity": 127,
                "duration": 0.06818181818181657,
                "tempo": 120.0
            },
            {
                "start_time": 21.99090909090909,
                "end_time": 22.05681818181818,
                "pitch": 43,
                "velocity": 127,
                "duration": 0.06590909090909136,
                "tempo": 120.0
            },
            {
                "start_time": 22.05681818181818,
                "end_time": 22.120454545454546,
                "pitch": 43,
                "velocity": 127,
                "duration": 0.06363636363636616,
                "tempo": 120.0
            },
            {
                "start_time": 22.120454545454546,
                "end_time": 22.186363636363634,
                "pitch": 43,
                "velocity": 127,
                "duration": 0.06590909090908781,
                "tempo": 120.0
            },
            {
                "start_time": 22.186363636363634,
                "end_time": 22.21818181818182,
                "pitch": 43,
                "velocity": 127,
                "duration": 0.031818181818184854,
                "tempo": 120.0
            },
            {
                "start_time": 22.21818181818182,
                "end_time": 22.268181818181816,
                "pitch": 43,
                "velocity": 127,
                "duration": 0.04999999999999716,
                "tempo": 120.0
            },
            {
                "start_time": 22.268181818181816,
                "end_time": 22.334090909090907,
                "pitch": 43,
                "velocity": 127,
                "duration": 0.06590909090909136,
                "tempo": 120.0
            },
            {
                "start_time": 22.334090909090907,
                "end_time": 22.413636363636364,
                "pitch": 43,
                "velocity": 127,
                "duration": 0.0795454545454568,
                "tempo": 120.0
            },
            {
                "start_time": 22.413636363636364,
                "end_time": 22.46363636363636,
                "pitch": 43,
                "velocity": 127,
                "duration": 0.04999999999999716,
                "tempo": 120.0
            },
            {
                "start_time": 22.46363636363636,
                "end_time": 22.529545454545453,
                "pitch": 43,
                "velocity": 127,
                "duration": 0.06590909090909136,
                "tempo": 120.0
            },
            {
                "start_time": 22.529545454545453,
                "end_time": 22.59318181818182,
                "pitch": 43,
                "velocity": 127,
                "duration": 0.06363636363636616,
                "tempo": 120.0
            },
            {
                "start_time": 22.59318181818182,
                "end_time": 22.627272727272725,
                "pitch": 43,
                "velocity": 127,
                "duration": 0.03409090909090651,
                "tempo": 120.0
            },
            {
                "start_time": 22.627272727272725,
                "end_time": 22.674999999999997,
                "pitch": 43,
                "velocity": 127,
                "duration": 0.04772727272727195,
                "tempo": 120.0
            },
            {
                "start_time": 22.674999999999997,
                "end_time": 22.74090909090909,
                "pitch": 43,
                "velocity": 127,
                "duration": 0.06590909090909136,
                "tempo": 120.0
            },
            {
                "start_time": 22.74090909090909,
                "end_time": 22.82272727272727,
                "pitch": 43,
                "velocity": 127,
                "duration": 0.08181818181818201,
                "tempo": 120.0
            },
            {
                "start_time": 22.82272727272727,
                "end_time": 22.87272727272727,
                "pitch": 43,
                "velocity": 127,
                "duration": 0.05000000000000071,
                "tempo": 120.0
            },
            {
                "start_time": 22.87272727272727,
                "end_time": 22.94090909090909,
                "pitch": 43,
                "velocity": 127,
                "duration": 0.06818181818182012,
                "tempo": 120.0
            },
            {
                "start_time": 22.94090909090909,
                "end_time": 23.011363636363637,
                "pitch": 43,
                "velocity": 127,
                "duration": 0.07045454545454533,
                "tempo": 120.0
            },
            {
                "start_time": 23.011363636363637,
                "end_time": 23.045454545454543,
                "pitch": 43,
                "velocity": 127,
                "duration": 0.03409090909090651,
                "tempo": 120.0
            },
            {
                "start_time": 23.045454545454543,
                "end_time": 23.095454545454544,
                "pitch": 43,
                "velocity": 127,
                "duration": 0.05000000000000071,
                "tempo": 120.0
            },
            {
                "start_time": 23.095454545454544,
                "end_time": 23.163636363636364,
                "pitch": 43,
                "velocity": 127,
                "duration": 0.06818181818182012,
                "tempo": 120.0
            },
            {
                "start_time": 23.163636363636364,
                "end_time": 23.25,
                "pitch": 43,
                "velocity": 127,
                "duration": 0.08636363636363598,
                "tempo": 120.0
            },
            {
                "start_time": 23.25,
                "end_time": 23.452272727272724,
                "pitch": 45,
                "velocity": 127,
                "duration": 0.2022727272727245,
                "tempo": 120.0
            },
            {
                "start_time": 23.452272727272724,
                "end_time": 23.670454545454543,
                "pitch": 45,
                "velocity": 127,
                "duration": 0.2181818181818187,
                "tempo": 120.0
            },
            {
                "start_time": 23.670454545454543,
                "end_time": 23.88181818181818,
                "pitch": 45,
                "velocity": 127,
                "duration": 0.21136363636363598,
                "tempo": 120.0
            },
            {
                "start_time": 23.88181818181818,
                "end_time": 24.077272727272724,
                "pitch": 45,
                "velocity": 127,
                "duration": 0.19545454545454533,
                "tempo": 120.0
            },
            {
                "start_time": 24.077272727272724,
                "end_time": 24.279545454545453,
                "pitch": 45,
                "velocity": 127,
                "duration": 0.20227272727272805,
                "tempo": 120.0
            },
            {
                "start_time": 24.279545454545453,
                "end_time": 24.495454545454546,
                "pitch": 45,
                "velocity": 127,
                "duration": 0.2159090909090935,
                "tempo": 120.0
            },
            {
                "start_time": 24.495454545454546,
                "end_time": 24.709090909090907,
                "pitch": 45,
                "velocity": 127,
                "duration": 0.21363636363636118,
                "tempo": 120.0
            },
            {
                "start_time": 24.709090909090907,
                "end_time": 24.904545454545453,
                "pitch": 45,
                "velocity": 127,
                "duration": 0.19545454545454533,
                "tempo": 120.0
            },
            {
                "start_time": 24.904545454545453,
                "end_time": 25.104545454545452,
                "pitch": 45,
                "velocity": 127,
                "duration": 0.1999999999999993,
                "tempo": 120.0
            },
            {
                "start_time": 25.104545454545452,
                "end_time": 25.30681818181818,
                "pitch": 45,
                "velocity": 127,
                "duration": 0.20227272727272805,
                "tempo": 120.0
            },
            {
                "start_time": 25.30681818181818,
                "end_time": 25.49772727272727,
                "pitch": 45,
                "velocity": 127,
                "duration": 0.19090909090909136,
                "tempo": 120.0
            },
            {
                "start_time": 25.49772727272727,
                "end_time": 25.722727272727273,
                "pitch": 45,
                "velocity": 127,
                "duration": 0.22500000000000142,
                "tempo": 120.0
            },
            {
                "start_time": 25.722727272727273,
                "end_time": 25.924999999999997,
                "pitch": 45,
                "velocity": 127,
                "duration": 0.2022727272727245,
                "tempo": 120.0
            },
            {
                "start_time": 25.924999999999997,
                "end_time": 26.125,
                "pitch": 45,
                "velocity": 127,
                "duration": 0.20000000000000284,
                "tempo": 120.0
            },
            {
                "start_time": 26.143181818181816,
                "end_time": 26.329545454545453,
                "pitch": 45,
                "velocity": 127,
                "duration": 0.1863636363636374,
                "tempo": 120.0
            },
            {
                "start_time": 26.329545454545453,
                "end_time": 26.570454545454545,
                "pitch": 45,
                "velocity": 127,
                "duration": 0.24090909090909207,
                "tempo": 120.0
            },
            {
                "start_time": 26.570454545454545,
                "end_time": 26.77272727272727,
                "pitch": 38,
                "velocity": 127,
                "duration": 0.2022727272727245,
                "tempo": 120.0
            },
            {
                "start_time": 26.77272727272727,
                "end_time": 26.988636363636363,
                "pitch": 38,
                "velocity": 127,
                "duration": 0.2159090909090935,
                "tempo": 120.0
            },
            {
                "start_time": 26.988636363636363,
                "end_time": 27.186363636363634,
                "pitch": 38,
                "velocity": 127,
                "duration": 0.19772727272727053,
                "tempo": 120.0
            },
            {
                "start_time": 27.186363636363634,
                "end_time": 27.39772727272727,
                "pitch": 38,
                "velocity": 127,
                "duration": 0.21136363636363598,
                "tempo": 120.0
            },
            {
                "start_time": 27.39772727272727,
                "end_time": 27.597727272727273,
                "pitch": 38,
                "velocity": 127,
                "duration": 0.20000000000000284,
                "tempo": 120.0
            },
            {
                "start_time": 27.597727272727273,
                "end_time": 27.799999999999997,
                "pitch": 38,
                "velocity": 127,
                "duration": 0.2022727272727245,
                "tempo": 120.0
            },
            {
                "start_time": 27.799999999999997,
                "end_time": 28.011363636363637,
                "pitch": 38,
                "velocity": 127,
                "duration": 0.21136363636363953,
                "tempo": 120.0
            },
            {
                "start_time": 28.011363636363637,
                "end_time": 28.224999999999998,
                "pitch": 38,
                "velocity": 127,
                "duration": 0.21363636363636118,
                "tempo": 120.0
            },
            {
                "start_time": 28.224999999999998,
                "end_time": 28.424999999999997,
                "pitch": 38,
                "velocity": 127,
                "duration": 0.1999999999999993,
                "tempo": 120.0
            },
            {
                "start_time": 28.424999999999997,
                "end_time": 28.643181818181816,
                "pitch": 38,
                "velocity": 127,
                "duration": 0.2181818181818187,
                "tempo": 120.0
            },
            {
                "start_time": 28.643181818181816,
                "end_time": 28.845454545454544,
                "pitch": 38,
                "velocity": 127,
                "duration": 0.20227272727272805,
                "tempo": 120.0
            },
            {
                "start_time": 28.845454545454544,
                "end_time": 29.045454545454543,
                "pitch": 38,
                "velocity": 127,
                "duration": 0.1999999999999993,
                "tempo": 120.0
            },
            {
                "start_time": 29.045454545454543,
                "end_time": 29.254545454545454,
                "pitch": 38,
                "velocity": 127,
                "duration": 0.20909090909091077,
                "tempo": 120.0
            },
            {
                "start_time": 29.254545454545454,
                "end_time": 29.445454545454545,
                "pitch": 38,
                "velocity": 127,
                "duration": 0.19090909090909136,
                "tempo": 120.0
            },
            {
                "start_time": 29.445454545454545,
                "end_time": 29.66363636363636,
                "pitch": 38,
                "velocity": 127,
                "duration": 0.21818181818181515,
                "tempo": 120.0
            },
            {
                "start_time": 29.66363636363636,
                "end_time": 29.863636363636363,
                "pitch": 38,
                "velocity": 127,
                "duration": 0.20000000000000284,
                "tempo": 120.0
            },
            {
                "start_time": 29.863636363636363,
                "end_time": 30.065909090909088,
                "pitch": 38,
                "velocity": 127,
                "duration": 0.2022727272727245,
                "tempo": 120.0
            },
            {
                "start_time": 30.065909090909088,
                "end_time": 30.284090909090907,
                "pitch": 38,
                "velocity": 127,
                "duration": 0.2181818181818187,
                "tempo": 120.0
            },
            {
                "start_time": 30.284090909090907,
                "end_time": 30.479545454545452,
                "pitch": 38,
                "velocity": 127,
                "duration": 0.19545454545454533,
                "tempo": 120.0
            },
            {
                "start_time": 30.479545454545452,
                "end_time": 30.690909090909088,
                "pitch": 38,
                "velocity": 127,
                "duration": 0.21136363636363598,
                "tempo": 120.0
            },
            {
                "start_time": 30.690909090909088,
                "end_time": 30.893181818181816,
                "pitch": 38,
                "velocity": 127,
                "duration": 0.20227272727272805,
                "tempo": 120.0
            },
            {
                "start_time": 30.893181818181816,
                "end_time": 31.111363636363635,
                "pitch": 38,
                "velocity": 127,
                "duration": 0.2181818181818187,
                "tempo": 120.0
            },
            {
                "start_time": 31.111363636363635,
                "end_time": 31.30681818181818,
                "pitch": 38,
                "velocity": 127,
                "duration": 0.19545454545454533,
                "tempo": 120.0
            },
            {
                "start_time": 31.30681818181818,
                "end_time": 31.518181818181816,
                "pitch": 38,
                "velocity": 127,
                "duration": 0.21136363636363598,
                "tempo": 120.0
            },
            {
                "start_time": 31.518181818181816,
                "end_time": 31.722727272727273,
                "pitch": 38,
                "velocity": 127,
                "duration": 0.2045454545454568,
                "tempo": 120.0
            },
            {
                "start_time": 31.722727272727273,
                "end_time": 31.945454545454545,
                "pitch": 38,
                "velocity": 127,
                "duration": 0.22272727272727266,
                "tempo": 120.0
            },
            {
                "start_time": 31.945454545454545,
                "end_time": 32.14090909090909,
                "pitch": 38,
                "velocity": 127,
                "duration": 0.19545454545454533,
                "tempo": 120.0
            },
            {
                "start_time": 32.14090909090909,
                "end_time": 32.35454545454545,
                "pitch": 38,
                "velocity": 127,
                "duration": 0.21363636363636118,
                "tempo": 120.0
            },
            {
                "start_time": 32.35454545454545,
                "end_time": 32.554545454545455,
                "pitch": 38,
                "velocity": 127,
                "duration": 0.20000000000000284,
                "tempo": 120.0
            },
            {
                "start_time": 32.554545454545455,
                "end_time": 32.77272727272727,
                "pitch": 38,
                "velocity": 127,
                "duration": 0.2181818181818187,
                "tempo": 120.0
            },
            {
                "start_time": 32.77272727272727,
                "end_time": 32.98409090909091,
                "pitch": 38,
                "velocity": 127,
                "duration": 0.21136363636363598,
                "tempo": 120.0
            },
            {
                "start_time": 32.98409090909091,
                "end_time": 33.19772727272727,
                "pitch": 36,
                "velocity": 127,
                "duration": 0.21363636363636118,
                "tempo": 120.0
            },
            {
                "start_time": 33.19772727272727,
                "end_time": 33.402272727272724,
                "pitch": 36,
                "velocity": 127,
                "duration": 0.20454545454545325,
                "tempo": 120.0
            },
            {
                "start_time": 33.402272727272724,
                "end_time": 33.625,
                "pitch": 36,
                "velocity": 127,
                "duration": 0.22272727272727622,
                "tempo": 120.0
            },
            {
                "start_time": 33.625,
                "end_time": 33.809090909090905,
                "pitch": 36,
                "velocity": 127,
                "duration": 0.18409090909090509,
                "tempo": 120.0
            },
            {
                "start_time": 33.809090909090905,
                "end_time": 34.027272727272724,
                "pitch": 36,
                "velocity": 127,
                "duration": 0.2181818181818187,
                "tempo": 120.0
            },
            {
                "start_time": 34.027272727272724,
                "end_time": 34.23409090909091,
                "pitch": 36,
                "velocity": 127,
                "duration": 0.20681818181818556,
                "tempo": 120.0
            },
            {
                "start_time": 34.23409090909091,
                "end_time": 34.425,
                "pitch": 36,
                "velocity": 127,
                "duration": 0.1909090909090878,
                "tempo": 120.0
            },
            {
                "start_time": 34.425,
                "end_time": 34.643181818181816,
                "pitch": 36,
                "velocity": 127,
                "duration": 0.2181818181818187,
                "tempo": 120.0
            },
            {
                "start_time": 34.643181818181816,
                "end_time": 34.82727272727273,
                "pitch": 36,
                "velocity": 127,
                "duration": 0.1840909090909122,
                "tempo": 120.0
            },
            {
                "start_time": 34.82727272727273,
                "end_time": 35.05,
                "pitch": 36,
                "velocity": 127,
                "duration": 0.2227272727272691,
                "tempo": 120.0
            },
            {
                "start_time": 35.05,
                "end_time": 35.24090909090909,
                "pitch": 36,
                "velocity": 127,
                "duration": 0.19090909090909491,
                "tempo": 120.0
            },
            {
                "start_time": 35.24090909090909,
                "end_time": 35.445454545454545,
                "pitch": 36,
                "velocity": 127,
                "duration": 0.20454545454545325,
                "tempo": 120.0
            },
            {
                "start_time": 35.445454545454545,
                "end_time": 35.668181818181814,
                "pitch": 36,
                "velocity": 127,
                "duration": 0.2227272727272691,
                "tempo": 120.0
            },
            {
                "start_time": 35.668181818181814,
                "end_time": 35.87045454545454,
                "pitch": 36,
                "velocity": 127,
                "duration": 0.20227272727272805,
                "tempo": 120.0
            },
            {
                "start_time": 35.87045454545454,
                "end_time": 36.08863636363636,
                "pitch": 36,
                "velocity": 127,
                "duration": 0.2181818181818187,
                "tempo": 120.0
            },
            {
                "start_time": 36.08863636363636,
                "end_time": 36.28409090909091,
                "pitch": 36,
                "velocity": 127,
                "duration": 0.19545454545454533,
                "tempo": 120.0
            },
            {
                "start_time": 36.28409090909091,
                "end_time": 36.47954545454545,
                "pitch": 36,
                "velocity": 127,
                "duration": 0.19545454545454533,
                "tempo": 120.0
            },
            {
                "start_time": 36.47954545454545,
                "end_time": 36.69090909090909,
                "pitch": 36,
                "velocity": 127,
                "duration": 0.21136363636363598,
                "tempo": 120.0
            },
            {
                "start_time": 36.69090909090909,
                "end_time": 36.902272727272724,
                "pitch": 36,
                "velocity": 127,
                "duration": 0.21136363636363598,
                "tempo": 120.0
            },
            {
                "start_time": 36.902272727272724,
                "end_time": 37.10909090909091,
                "pitch": 36,
                "velocity": 127,
                "duration": 0.20681818181818556,
                "tempo": 120.0
            },
            {
                "start_time": 37.10909090909091,
                "end_time": 37.31363636363636,
                "pitch": 36,
                "velocity": 127,
                "duration": 0.20454545454545325,
                "tempo": 120.0
            },
            {
                "start_time": 37.31363636363636,
                "end_time": 37.52045454545454,
                "pitch": 36,
                "velocity": 127,
                "duration": 0.20681818181817846,
                "tempo": 120.0
            },
            {
                "start_time": 37.52045454545454,
                "end_time": 37.72727272727273,
                "pitch": 36,
                "velocity": 127,
                "duration": 0.20681818181818556,
                "tempo": 120.0
            },
            {
                "start_time": 37.72727272727273,
                "end_time": 37.93181818181818,
                "pitch": 36,
                "velocity": 127,
                "duration": 0.20454545454545325,
                "tempo": 120.0
            },
            {
                "start_time": 37.93181818181818,
                "end_time": 38.13863636363636,
                "pitch": 36,
                "velocity": 127,
                "duration": 0.20681818181817846,
                "tempo": 120.0
            },
            {
                "start_time": 38.13863636363636,
                "end_time": 38.345454545454544,
                "pitch": 36,
                "velocity": 127,
                "duration": 0.20681818181818556,
                "tempo": 120.0
            },
            {
                "start_time": 38.345454545454544,
                "end_time": 38.55,
                "pitch": 36,
                "velocity": 127,
                "duration": 0.20454545454545325,
                "tempo": 120.0
            },
            {
                "start_time": 38.55,
                "end_time": 38.75681818181818,
                "pitch": 36,
                "velocity": 127,
                "duration": 0.20681818181818556,
                "tempo": 120.0
            },
            {
                "start_time": 38.75681818181818,
                "end_time": 38.961363636363636,
                "pitch": 36,
                "velocity": 127,
                "duration": 0.20454545454545325,
                "tempo": 120.0
            },
            {
                "start_time": 38.961363636363636,
                "end_time": 39.175,
                "pitch": 36,
                "velocity": 127,
                "duration": 0.21363636363636118,
                "tempo": 120.0
            },
            {
                "start_time": 39.175,
                "end_time": 39.38636363636363,
                "pitch": 36,
                "velocity": 127,
                "duration": 0.21136363636363598,
                "tempo": 120.0
            },
            {
                "start_time": 39.38636363636363,
                "end_time": 39.60909090909091,
                "pitch": 34,
                "velocity": 127,
                "duration": 0.22272727272727622,
                "tempo": 120.0
            },
            {
                "start_time": 39.60909090909091,
                "end_time": 39.81363636363636,
                "pitch": 34,
                "velocity": 127,
                "duration": 0.20454545454545325,
                "tempo": 120.0
            },
            {
                "start_time": 39.81363636363636,
                "end_time": 40.027272727272724,
                "pitch": 34,
                "velocity": 127,
                "duration": 0.21363636363636118,
                "tempo": 120.0
            },
            {
                "start_time": 40.027272727272724,
                "end_time": 40.20681818181818,
                "pitch": 34,
                "velocity": 127,
                "duration": 0.17954545454545467,
                "tempo": 120.0
            },
            {
                "start_time": 40.20681818181818,
                "end_time": 40.434090909090905,
                "pitch": 34,
                "velocity": 127,
                "duration": 0.22727272727272663,
                "tempo": 120.0
            },
            {
                "start_time": 40.434090909090905,
                "end_time": 40.62954545454545,
                "pitch": 34,
                "velocity": 127,
                "duration": 0.19545454545454533,
                "tempo": 120.0
            },
            {
                "start_time": 40.62954545454545,
                "end_time": 40.84772727272727,
                "pitch": 34,
                "velocity": 127,
                "duration": 0.2181818181818187,
                "tempo": 120.0
            },
            {
                "start_time": 40.84772727272727,
                "end_time": 41.05,
                "pitch": 34,
                "velocity": 127,
                "duration": 0.20227272727272805,
                "tempo": 120.0
            },
            {
                "start_time": 41.05,
                "end_time": 41.25,
                "pitch": 34,
                "velocity": 127,
                "duration": 0.20000000000000284,
                "tempo": 120.0
            },
            {
                "start_time": 41.25,
                "end_time": 41.45227272727273,
                "pitch": 34,
                "velocity": 127,
                "duration": 0.20227272727272805,
                "tempo": 120.0
            },
            {
                "start_time": 41.45227272727273,
                "end_time": 41.663636363636364,
                "pitch": 34,
                "velocity": 127,
                "duration": 0.21136363636363598,
                "tempo": 120.0
            },
            {
                "start_time": 41.663636363636364,
                "end_time": 41.877272727272725,
                "pitch": 34,
                "velocity": 127,
                "duration": 0.21363636363636118,
                "tempo": 120.0
            },
            {
                "start_time": 41.877272727272725,
                "end_time": 42.09772727272727,
                "pitch": 34,
                "velocity": 127,
                "duration": 0.2204545454545439,
                "tempo": 120.0
            },
            {
                "start_time": 42.09772727272727,
                "end_time": 42.304545454545455,
                "pitch": 34,
                "velocity": 127,
                "duration": 0.20681818181818556,
                "tempo": 120.0
            },
            {
                "start_time": 42.304545454545455,
                "end_time": 42.5,
                "pitch": 34,
                "velocity": 127,
                "duration": 0.19545454545454533,
                "tempo": 120.0
            },
            {
                "start_time": 42.5,
                "end_time": 42.711363636363636,
                "pitch": 34,
                "velocity": 127,
                "duration": 0.21136363636363598,
                "tempo": 120.0
            },
            {
                "start_time": 42.711363636363636,
                "end_time": 42.89545454545454,
                "pitch": 34,
                "velocity": 127,
                "duration": 0.18409090909090509,
                "tempo": 120.0
            },
            {
                "start_time": 42.89545454545454,
                "end_time": 43.11363636363636,
                "pitch": 36,
                "velocity": 127,
                "duration": 0.2181818181818187,
                "tempo": 120.0
            },
            {
                "start_time": 43.11363636363636,
                "end_time": 43.304545454545455,
                "pitch": 36,
                "velocity": 127,
                "duration": 0.19090909090909491,
                "tempo": 120.0
            },
            {
                "start_time": 43.304545454545455,
                "end_time": 43.51136363636363,
                "pitch": 36,
                "velocity": 127,
                "duration": 0.20681818181817846,
                "tempo": 120.0
            },
            {
                "start_time": 43.51136363636363,
                "end_time": 43.711363636363636,
                "pitch": 36,
                "velocity": 127,
                "duration": 0.20000000000000284,
                "tempo": 120.0
            },
            {
                "start_time": 43.711363636363636,
                "end_time": 43.929545454545455,
                "pitch": 36,
                "velocity": 127,
                "duration": 0.2181818181818187,
                "tempo": 120.0
            },
            {
                "start_time": 43.929545454545455,
                "end_time": 44.13181818181818,
                "pitch": 36,
                "velocity": 127,
                "duration": 0.20227272727272805,
                "tempo": 120.0
            },
            {
                "start_time": 44.13181818181818,
                "end_time": 44.36590909090909,
                "pitch": 36,
                "velocity": 127,
                "duration": 0.23409090909090935,
                "tempo": 120.0
            },
            {
                "start_time": 44.36590909090909,
                "end_time": 44.554545454545455,
                "pitch": 36,
                "velocity": 127,
                "duration": 0.1886363636363626,
                "tempo": 120.0
            },
            {
                "start_time": 44.554545454545455,
                "end_time": 44.777272727272724,
                "pitch": 36,
                "velocity": 127,
                "duration": 0.2227272727272691,
                "tempo": 120.0
            },
            {
                "start_time": 44.777272727272724,
                "end_time": 44.96818181818182,
                "pitch": 36,
                "velocity": 127,
                "duration": 0.19090909090909491,
                "tempo": 120.0
            },
            {
                "start_time": 44.96818181818182,
                "end_time": 45.175,
                "pitch": 36,
                "velocity": 127,
                "duration": 0.20681818181817846,
                "tempo": 120.0
            },
            {
                "start_time": 45.175,
                "end_time": 45.37954545454545,
                "pitch": 36,
                "velocity": 127,
                "duration": 0.20454545454545325,
                "tempo": 120.0
            },
            {
                "start_time": 45.37954545454545,
                "end_time": 45.61818181818182,
                "pitch": 36,
                "velocity": 127,
                "duration": 0.23863636363636687,
                "tempo": 120.0
            },
            {
                "start_time": 45.61818181818182,
                "end_time": 45.80227272727272,
                "pitch": 36,
                "velocity": 127,
                "duration": 0.18409090909090509,
                "tempo": 120.0
            },
            {
                "start_time": 45.80227272727272,
                "end_time": 46.038636363636364,
                "pitch": 36,
                "velocity": 127,
                "duration": 0.23636363636364166,
                "tempo": 120.0
            }
        ]
    }
}